<?xml version="1.0" encoding="UTF-8"?>
<svg xmlns="http://www.w3.org/2000/svg" xmlns:xlink="http://www.w3.org/1999/xlink" width="1179pt" height="517pt" viewBox="0 0 1179 517" version="1.1">
<g id="surface1351">
<rect x="0" y="0" width="1179" height="517" style="fill:rgb(90%,90%,90%);fill-opacity:1;stroke:none;"/>
<path style="fill-rule:nonzero;fill:rgb(53%,27%,7%);fill-opacity:1;stroke-width:1;stroke-linecap:butt;stroke-linejoin:miter;stroke:rgb(0%,0%,0%);stroke-opacity:1;stroke-miterlimit:10;" d="M 376.214844 237 C 376.214844 248.714844 366.714844 258.214844 355 258.214844 C 343.285156 258.214844 333.785156 248.714844 333.785156 237 C 333.785156 225.285156 343.285156 215.785156 355 215.785156 C 366.714844 215.785156 376.214844 225.285156 376.214844 237 "/>
<path style="fill-rule:nonzero;fill:rgb(53%,27%,7%);fill-opacity:1;stroke-width:1;stroke-linecap:butt;stroke-linejoin:miter;stroke:rgb(0%,0%,0%);stroke-opacity:1;stroke-miterlimit:10;" d="M 900.214844 195 C 900.214844 206.714844 890.714844 216.214844 879 216.214844 C 867.285156 216.214844 857.785156 206.714844 857.785156 195 C 857.785156 183.285156 867.285156 173.785156 879 173.785156 C 890.714844 173.785156 900.214844 183.285156 900.214844 195 "/>
<path style="fill-rule:nonzero;fill:rgb(53%,27%,7%);fill-opacity:1;stroke-width:1;stroke-linecap:butt;stroke-linejoin:miter;stroke:rgb(0%,0%,0%);stroke-opacity:1;stroke-miterlimit:10;" d="M 1032.214844 398 C 1032.214844 409.714844 1022.714844 419.214844 1011 419.214844 C 999.285156 419.214844 989.785156 409.714844 989.785156 398 C 989.785156 386.285156 999.285156 376.785156 1011 376.785156 C 1022.714844 376.785156 1032.214844 386.285156 1032.214844 398 "/>
<path style="fill-rule:nonzero;fill:rgb(53%,27%,7%);fill-opacity:1;stroke-width:1;stroke-linecap:butt;stroke-linejoin:miter;stroke:rgb(0%,0%,0%);stroke-opacity:1;stroke-miterlimit:10;" d="M 592.214844 214 C 592.214844 225.714844 582.714844 235.214844 571 235.214844 C 559.285156 235.214844 549.785156 225.714844 549.785156 214 C 549.785156 202.285156 559.285156 192.785156 571 192.785156 C 582.714844 192.785156 592.214844 202.285156 592.214844 214 "/>
<path style="fill-rule:nonzero;fill:rgb(53%,27%,7%);fill-opacity:1;stroke-width:1;stroke-linecap:butt;stroke-linejoin:miter;stroke:rgb(0%,0%,0%);stroke-opacity:1;stroke-miterlimit:10;" d="M 317.214844 359 C 317.214844 370.714844 307.714844 380.214844 296 380.214844 C 284.285156 380.214844 274.785156 370.714844 274.785156 359 C 274.785156 347.285156 284.285156 337.785156 296 337.785156 C 307.714844 337.785156 317.214844 347.285156 317.214844 359 "/>
<path style="fill-rule:nonzero;fill:rgb(100%,51%,0%);fill-opacity:1;stroke-width:1;stroke-linecap:butt;stroke-linejoin:miter;stroke:rgb(0%,0%,0%);stroke-opacity:1;stroke-miterlimit:10;" d="M 227 105 L 256.664062 105 L 268.664062 76.785156 L 280.664062 105 L 310.332031 105 L 286.332031 122.4375 L 294.417969 153.980469 L 268.664062 136.542969 L 242.914062 153.980469 L 255.214844 122.4375 L 227 105 "/>
<path style="fill-rule:nonzero;fill:rgb(100%,51%,0%);fill-opacity:1;stroke-width:1;stroke-linecap:butt;stroke-linejoin:miter;stroke:rgb(0%,0%,0%);stroke-opacity:1;stroke-miterlimit:10;" d="M 80 184 L 109.664062 184 L 121.664062 155.785156 L 133.664062 184 L 163.332031 184 L 139.332031 201.4375 L 147.417969 232.980469 L 121.664062 215.542969 L 95.914062 232.980469 L 108.214844 201.4375 L 80 184 "/>
<path style="fill-rule:nonzero;fill:rgb(100%,51%,0%);fill-opacity:1;stroke-width:1;stroke-linecap:butt;stroke-linejoin:miter;stroke:rgb(0%,0%,0%);stroke-opacity:1;stroke-miterlimit:10;" d="M 824 334 L 853.664062 334 L 865.664062 305.785156 L 877.664062 334 L 907.332031 334 L 883.332031 351.4375 L 891.417969 382.980469 L 865.664062 365.542969 L 839.914062 382.980469 L 852.214844 351.4375 L 824 334 "/>
<path style="fill-rule:nonzero;fill:rgb(100%,51%,0%);fill-opacity:1;stroke-width:1;stroke-linecap:butt;stroke-linejoin:miter;stroke:rgb(0%,0%,0%);stroke-opacity:1;stroke-miterlimit:10;" d="M 117 415 L 146.664062 415 L 158.664062 386.785156 L 170.664062 415 L 200.332031 415 L 176.332031 432.4375 L 184.417969 463.980469 L 158.664062 446.542969 L 132.914062 463.980469 L 145.214844 432.4375 L 117 415 "/>
<path style="fill-rule:nonzero;fill:rgb(100%,51%,0%);fill-opacity:1;stroke-width:1;stroke-linecap:butt;stroke-linejoin:miter;stroke:rgb(0%,0%,0%);stroke-opacity:1;stroke-miterlimit:10;" d="M 554 391 L 583.664062 391 L 595.664062 362.785156 L 607.664062 391 L 637.332031 391 L 613.332031 408.4375 L 621.417969 439.980469 L 595.664062 422.542969 L 569.914062 439.980469 L 582.214844 408.4375 L 554 391 "/>
</g>
</svg>
