<?xml version="1.0" encoding="UTF-8"?>
<svg xmlns="http://www.w3.org/2000/svg" xmlns:xlink="http://www.w3.org/1999/xlink" width="1179pt" height="517pt" viewBox="0 0 1179 517" version="1.1">
<g id="surface396">
<rect x="0" y="0" width="1179" height="517" style="fill:rgb(90%,90%,90%);fill-opacity:1;stroke:none;"/>
<path style="fill-rule:nonzero;fill:rgb(35%,70%,90%);fill-opacity:1;stroke-width:1;stroke-linecap:butt;stroke-linejoin:miter;stroke:rgb(0%,0%,0%);stroke-opacity:1;stroke-miterlimit:10;" d="M 196 227 L 225.664062 227 L 237.664062 198.785156 L 249.664062 227 L 279.332031 227 L 255.332031 244.4375 L 263.417969 275.980469 L 237.664062 258.542969 L 211.914062 275.980469 L 224.214844 244.4375 L 196 227 "/>
<path style="fill-rule:nonzero;fill:rgb(35%,70%,90%);fill-opacity:1;stroke-width:1;stroke-linecap:butt;stroke-linejoin:miter;stroke:rgb(0%,0%,0%);stroke-opacity:1;stroke-miterlimit:10;" d="M 898 194 L 927.664062 194 L 939.664062 165.785156 L 951.664062 194 L 981.332031 194 L 957.332031 211.4375 L 965.417969 242.980469 L 939.664062 225.542969 L 913.914062 242.980469 L 926.214844 211.4375 L 898 194 "/>
<path style="fill-rule:nonzero;fill:rgb(35%,70%,90%);fill-opacity:1;stroke-width:1;stroke-linecap:butt;stroke-linejoin:miter;stroke:rgb(0%,0%,0%);stroke-opacity:1;stroke-miterlimit:10;" d="M 519 169 L 548.664062 169 L 560.664062 140.785156 L 572.664062 169 L 602.332031 169 L 578.332031 186.4375 L 586.417969 217.980469 L 560.664062 200.542969 L 534.914062 217.980469 L 547.214844 186.4375 L 519 169 "/>
<path style="fill-rule:nonzero;fill:rgb(35%,70%,90%);fill-opacity:1;stroke-width:1;stroke-linecap:butt;stroke-linejoin:miter;stroke:rgb(0%,0%,0%);stroke-opacity:1;stroke-miterlimit:10;" d="M 304 402 L 333.664062 402 L 345.664062 373.785156 L 357.664062 402 L 387.332031 402 L 363.332031 419.4375 L 371.417969 450.980469 L 345.664062 433.542969 L 319.914062 450.980469 L 332.214844 419.4375 L 304 402 "/>
<path style="fill-rule:nonzero;fill:rgb(53%,27%,7%);fill-opacity:1;stroke-width:1;stroke-linecap:butt;stroke-linejoin:miter;stroke:rgb(0%,0%,0%);stroke-opacity:1;stroke-miterlimit:10;" d="M 494 373 L 468.019531 418 L 519.980469 418 L 494 373 "/>
<path style="fill-rule:nonzero;fill:rgb(53%,27%,7%);fill-opacity:1;stroke-width:1;stroke-linecap:butt;stroke-linejoin:miter;stroke:rgb(0%,0%,0%);stroke-opacity:1;stroke-miterlimit:10;" d="M 730 287 L 704.019531 332 L 755.980469 332 L 730 287 "/>
<path style="fill-rule:nonzero;fill:rgb(53%,27%,7%);fill-opacity:1;stroke-width:1;stroke-linecap:butt;stroke-linejoin:miter;stroke:rgb(0%,0%,0%);stroke-opacity:1;stroke-miterlimit:10;" d="M 348 67 L 322.019531 112 L 373.980469 112 L 348 67 "/>
<path style="fill-rule:nonzero;fill:rgb(53%,27%,7%);fill-opacity:1;stroke-width:1;stroke-linecap:butt;stroke-linejoin:miter;stroke:rgb(0%,0%,0%);stroke-opacity:1;stroke-miterlimit:10;" d="M 644 394 L 618.019531 439 L 669.980469 439 L 644 394 "/>
</g>
</svg>
