<?xml version="1.0" encoding="UTF-8"?>
<svg xmlns="http://www.w3.org/2000/svg" xmlns:xlink="http://www.w3.org/1999/xlink" width="1179pt" height="517pt" viewBox="0 0 1179 517" version="1.1">
<g id="surface1356">
<rect x="0" y="0" width="1179" height="517" style="fill:rgb(90%,90%,90%);fill-opacity:1;stroke:none;"/>
<path style="fill-rule:nonzero;fill:rgb(55%,51%,53%);fill-opacity:1;stroke-width:1;stroke-linecap:butt;stroke-linejoin:miter;stroke:rgb(0%,0%,0%);stroke-opacity:1;stroke-miterlimit:10;" d="M 1003 247 L 977.019531 292 L 1028.980469 292 L 1003 247 "/>
<path style="fill-rule:nonzero;fill:rgb(55%,51%,53%);fill-opacity:1;stroke-width:1;stroke-linecap:butt;stroke-linejoin:miter;stroke:rgb(0%,0%,0%);stroke-opacity:1;stroke-miterlimit:10;" d="M 761 195 L 735.019531 240 L 786.980469 240 L 761 195 "/>
<path style="fill-rule:nonzero;fill:rgb(55%,51%,53%);fill-opacity:1;stroke-width:1;stroke-linecap:butt;stroke-linejoin:miter;stroke:rgb(0%,0%,0%);stroke-opacity:1;stroke-miterlimit:10;" d="M 541 211 L 515.019531 256 L 566.980469 256 L 541 211 "/>
<path style="fill-rule:nonzero;fill:rgb(55%,51%,53%);fill-opacity:1;stroke-width:1;stroke-linecap:butt;stroke-linejoin:miter;stroke:rgb(0%,0%,0%);stroke-opacity:1;stroke-miterlimit:10;" d="M 244 235 L 218.019531 280 L 269.980469 280 L 244 235 "/>
<path style="fill-rule:nonzero;fill:rgb(55%,51%,53%);fill-opacity:1;stroke-width:1;stroke-linecap:butt;stroke-linejoin:miter;stroke:rgb(0%,0%,0%);stroke-opacity:1;stroke-miterlimit:10;" d="M 684 329 L 658.019531 374 L 709.980469 374 L 684 329 "/>
<path style="fill-rule:nonzero;fill:rgb(35%,70%,90%);fill-opacity:1;stroke-width:1;stroke-linecap:butt;stroke-linejoin:miter;stroke:rgb(0%,0%,0%);stroke-opacity:1;stroke-miterlimit:10;" d="M 343 121 L 372.664062 121 L 384.664062 92.785156 L 396.664062 121 L 426.332031 121 L 402.332031 138.4375 L 410.417969 169.980469 L 384.664062 152.542969 L 358.914062 169.980469 L 371.214844 138.4375 L 343 121 "/>
<path style="fill-rule:nonzero;fill:rgb(35%,70%,90%);fill-opacity:1;stroke-width:1;stroke-linecap:butt;stroke-linejoin:miter;stroke:rgb(0%,0%,0%);stroke-opacity:1;stroke-miterlimit:10;" d="M 453 378 L 482.664062 378 L 494.664062 349.785156 L 506.664062 378 L 536.332031 378 L 512.332031 395.4375 L 520.417969 426.980469 L 494.664062 409.542969 L 468.914062 426.980469 L 481.214844 395.4375 L 453 378 "/>
<path style="fill-rule:nonzero;fill:rgb(35%,70%,90%);fill-opacity:1;stroke-width:1;stroke-linecap:butt;stroke-linejoin:miter;stroke:rgb(0%,0%,0%);stroke-opacity:1;stroke-miterlimit:10;" d="M 921 180 L 950.664062 180 L 962.664062 151.785156 L 974.664062 180 L 1004.332031 180 L 980.332031 197.4375 L 988.417969 228.980469 L 962.664062 211.542969 L 936.914062 228.980469 L 949.214844 197.4375 L 921 180 "/>
<path style="fill-rule:nonzero;fill:rgb(35%,70%,90%);fill-opacity:1;stroke-width:1;stroke-linecap:butt;stroke-linejoin:miter;stroke:rgb(0%,0%,0%);stroke-opacity:1;stroke-miterlimit:10;" d="M 856 300 L 885.664062 300 L 897.664062 271.785156 L 909.664062 300 L 939.332031 300 L 915.332031 317.4375 L 923.417969 348.980469 L 897.664062 331.542969 L 871.914062 348.980469 L 884.214844 317.4375 L 856 300 "/>
</g>
</svg>
