<?xml version="1.0" encoding="UTF-8"?>
<svg xmlns="http://www.w3.org/2000/svg" xmlns:xlink="http://www.w3.org/1999/xlink" width="1179pt" height="517pt" viewBox="0 0 1179 517" version="1.1">
<g id="surface1431">
<rect x="0" y="0" width="1179" height="517" style="fill:rgb(90%,90%,90%);fill-opacity:1;stroke:none;"/>
<path style="fill-rule:nonzero;fill:rgb(55%,51%,53%);fill-opacity:1;stroke-width:1;stroke-linecap:butt;stroke-linejoin:miter;stroke:rgb(0%,0%,0%);stroke-opacity:1;stroke-miterlimit:10;" d="M 209 86 L 238.664062 86 L 250.664062 57.785156 L 262.664062 86 L 292.332031 86 L 268.332031 103.4375 L 276.417969 134.980469 L 250.664062 117.542969 L 224.914062 134.980469 L 237.214844 103.4375 L 209 86 "/>
<path style="fill-rule:nonzero;fill:rgb(55%,51%,53%);fill-opacity:1;stroke-width:1;stroke-linecap:butt;stroke-linejoin:miter;stroke:rgb(0%,0%,0%);stroke-opacity:1;stroke-miterlimit:10;" d="M 589 160 L 618.664062 160 L 630.664062 131.785156 L 642.664062 160 L 672.332031 160 L 648.332031 177.4375 L 656.417969 208.980469 L 630.664062 191.542969 L 604.914062 208.980469 L 617.214844 177.4375 L 589 160 "/>
<path style="fill-rule:nonzero;fill:rgb(55%,51%,53%);fill-opacity:1;stroke-width:1;stroke-linecap:butt;stroke-linejoin:miter;stroke:rgb(0%,0%,0%);stroke-opacity:1;stroke-miterlimit:10;" d="M 715 109 L 744.664062 109 L 756.664062 80.785156 L 768.664062 109 L 798.332031 109 L 774.332031 126.4375 L 782.417969 157.980469 L 756.664062 140.542969 L 730.914062 157.980469 L 743.214844 126.4375 L 715 109 "/>
<path style="fill-rule:nonzero;fill:rgb(55%,51%,53%);fill-opacity:1;stroke-width:1;stroke-linecap:butt;stroke-linejoin:miter;stroke:rgb(0%,0%,0%);stroke-opacity:1;stroke-miterlimit:10;" d="M 915 212 L 944.664062 212 L 956.664062 183.785156 L 968.664062 212 L 998.332031 212 L 974.332031 229.4375 L 982.417969 260.980469 L 956.664062 243.542969 L 930.914062 260.980469 L 943.214844 229.4375 L 915 212 "/>
<path style="fill-rule:nonzero;fill:rgb(100%,51%,0%);fill-opacity:1;stroke-width:1;stroke-linecap:butt;stroke-linejoin:miter;stroke:rgb(0%,0%,0%);stroke-opacity:1;stroke-miterlimit:10;" d="M 126.214844 231 C 126.214844 242.714844 116.714844 252.214844 105 252.214844 C 93.285156 252.214844 83.785156 242.714844 83.785156 231 C 83.785156 219.285156 93.285156 209.785156 105 209.785156 C 116.714844 209.785156 126.214844 219.285156 126.214844 231 "/>
<path style="fill-rule:nonzero;fill:rgb(100%,51%,0%);fill-opacity:1;stroke-width:1;stroke-linecap:butt;stroke-linejoin:miter;stroke:rgb(0%,0%,0%);stroke-opacity:1;stroke-miterlimit:10;" d="M 995.214844 426 C 995.214844 437.714844 985.714844 447.214844 974 447.214844 C 962.285156 447.214844 952.785156 437.714844 952.785156 426 C 952.785156 414.285156 962.285156 404.785156 974 404.785156 C 985.714844 404.785156 995.214844 414.285156 995.214844 426 "/>
<path style="fill-rule:nonzero;fill:rgb(100%,51%,0%);fill-opacity:1;stroke-width:1;stroke-linecap:butt;stroke-linejoin:miter;stroke:rgb(0%,0%,0%);stroke-opacity:1;stroke-miterlimit:10;" d="M 168.214844 346 C 168.214844 357.714844 158.714844 367.214844 147 367.214844 C 135.285156 367.214844 125.785156 357.714844 125.785156 346 C 125.785156 334.285156 135.285156 324.785156 147 324.785156 C 158.714844 324.785156 168.214844 334.285156 168.214844 346 "/>
<path style="fill-rule:nonzero;fill:rgb(100%,51%,0%);fill-opacity:1;stroke-width:1;stroke-linecap:butt;stroke-linejoin:miter;stroke:rgb(0%,0%,0%);stroke-opacity:1;stroke-miterlimit:10;" d="M 476.214844 332 C 476.214844 343.714844 466.714844 353.214844 455 353.214844 C 443.285156 353.214844 433.785156 343.714844 433.785156 332 C 433.785156 320.285156 443.285156 310.785156 455 310.785156 C 466.714844 310.785156 476.214844 320.285156 476.214844 332 "/>
<path style="fill-rule:nonzero;fill:rgb(100%,51%,0%);fill-opacity:1;stroke-width:1;stroke-linecap:butt;stroke-linejoin:miter;stroke:rgb(0%,0%,0%);stroke-opacity:1;stroke-miterlimit:10;" d="M 1015.214844 112 C 1015.214844 123.714844 1005.714844 133.214844 994 133.214844 C 982.285156 133.214844 972.785156 123.714844 972.785156 112 C 972.785156 100.285156 982.285156 90.785156 994 90.785156 C 1005.714844 90.785156 1015.214844 100.285156 1015.214844 112 "/>
</g>
</svg>
