<?xml version="1.0" encoding="UTF-8"?>
<svg xmlns="http://www.w3.org/2000/svg" xmlns:xlink="http://www.w3.org/1999/xlink" width="1179pt" height="517pt" viewBox="0 0 1179 517" version="1.1">
<g id="surface961">
<rect x="0" y="0" width="1179" height="517" style="fill:rgb(90%,90%,90%);fill-opacity:1;stroke:none;"/>
<path style="fill-rule:nonzero;fill:rgb(35%,70%,90%);fill-opacity:1;stroke-width:1;stroke-linecap:butt;stroke-linejoin:miter;stroke:rgb(0%,0%,0%);stroke-opacity:1;stroke-miterlimit:10;" d="M 289 182 L 318.664062 182 L 330.664062 153.785156 L 342.664062 182 L 372.332031 182 L 348.332031 199.4375 L 356.417969 230.980469 L 330.664062 213.542969 L 304.914062 230.980469 L 317.214844 199.4375 L 289 182 "/>
<path style="fill-rule:nonzero;fill:rgb(35%,70%,90%);fill-opacity:1;stroke-width:1;stroke-linecap:butt;stroke-linejoin:miter;stroke:rgb(0%,0%,0%);stroke-opacity:1;stroke-miterlimit:10;" d="M 598 297 L 627.664062 297 L 639.664062 268.785156 L 651.664062 297 L 681.332031 297 L 657.332031 314.4375 L 665.417969 345.980469 L 639.664062 328.542969 L 613.914062 345.980469 L 626.214844 314.4375 L 598 297 "/>
<path style="fill-rule:nonzero;fill:rgb(35%,70%,90%);fill-opacity:1;stroke-width:1;stroke-linecap:butt;stroke-linejoin:miter;stroke:rgb(0%,0%,0%);stroke-opacity:1;stroke-miterlimit:10;" d="M 1025 389 L 1054.664062 389 L 1066.664062 360.785156 L 1078.664062 389 L 1108.332031 389 L 1084.332031 406.4375 L 1092.417969 437.980469 L 1066.664062 420.542969 L 1040.914062 437.980469 L 1053.214844 406.4375 L 1025 389 "/>
<path style="fill-rule:nonzero;fill:rgb(35%,70%,90%);fill-opacity:1;stroke-width:1;stroke-linecap:butt;stroke-linejoin:miter;stroke:rgb(0%,0%,0%);stroke-opacity:1;stroke-miterlimit:10;" d="M 456 382 L 485.664062 382 L 497.664062 353.785156 L 509.664062 382 L 539.332031 382 L 515.332031 399.4375 L 523.417969 430.980469 L 497.664062 413.542969 L 471.914062 430.980469 L 484.214844 399.4375 L 456 382 "/>
<path style="fill-rule:nonzero;fill:rgb(35%,70%,90%);fill-opacity:1;stroke-width:1;stroke-linecap:butt;stroke-linejoin:miter;stroke:rgb(0%,0%,0%);stroke-opacity:1;stroke-miterlimit:10;" d="M 224 298 L 253.664062 298 L 265.664062 269.785156 L 277.664062 298 L 307.332031 298 L 283.332031 315.4375 L 291.417969 346.980469 L 265.664062 329.542969 L 239.914062 346.980469 L 252.214844 315.4375 L 224 298 "/>
<path style="fill-rule:nonzero;fill:rgb(55%,51%,53%);fill-opacity:1;stroke-width:1;stroke-linecap:butt;stroke-linejoin:miter;stroke:rgb(0%,0%,0%);stroke-opacity:1;stroke-miterlimit:10;" d="M 659.214844 424 C 659.214844 435.714844 649.714844 445.214844 638 445.214844 C 626.285156 445.214844 616.785156 435.714844 616.785156 424 C 616.785156 412.285156 626.285156 402.785156 638 402.785156 C 649.714844 402.785156 659.214844 412.285156 659.214844 424 "/>
<path style="fill-rule:nonzero;fill:rgb(55%,51%,53%);fill-opacity:1;stroke-width:1;stroke-linecap:butt;stroke-linejoin:miter;stroke:rgb(0%,0%,0%);stroke-opacity:1;stroke-miterlimit:10;" d="M 754.214844 201 C 754.214844 212.714844 744.714844 222.214844 733 222.214844 C 721.285156 222.214844 711.785156 212.714844 711.785156 201 C 711.785156 189.285156 721.285156 179.785156 733 179.785156 C 744.714844 179.785156 754.214844 189.285156 754.214844 201 "/>
<path style="fill-rule:nonzero;fill:rgb(55%,51%,53%);fill-opacity:1;stroke-width:1;stroke-linecap:butt;stroke-linejoin:miter;stroke:rgb(0%,0%,0%);stroke-opacity:1;stroke-miterlimit:10;" d="M 175.214844 430 C 175.214844 441.714844 165.714844 451.214844 154 451.214844 C 142.285156 451.214844 132.785156 441.714844 132.785156 430 C 132.785156 418.285156 142.285156 408.785156 154 408.785156 C 165.714844 408.785156 175.214844 418.285156 175.214844 430 "/>
<path style="fill-rule:nonzero;fill:rgb(55%,51%,53%);fill-opacity:1;stroke-width:1;stroke-linecap:butt;stroke-linejoin:miter;stroke:rgb(0%,0%,0%);stroke-opacity:1;stroke-miterlimit:10;" d="M 548.214844 146 C 548.214844 157.714844 538.714844 167.214844 527 167.214844 C 515.285156 167.214844 505.785156 157.714844 505.785156 146 C 505.785156 134.285156 515.285156 124.785156 527 124.785156 C 538.714844 124.785156 548.214844 134.285156 548.214844 146 "/>
</g>
</svg>
