<?xml version="1.0" encoding="UTF-8"?>
<svg xmlns="http://www.w3.org/2000/svg" xmlns:xlink="http://www.w3.org/1999/xlink" width="1179pt" height="517pt" viewBox="0 0 1179 517" version="1.1">
<g id="surface801">
<rect x="0" y="0" width="1179" height="517" style="fill:rgb(90%,90%,90%);fill-opacity:1;stroke:none;"/>
<path style="fill-rule:nonzero;fill:rgb(100%,0%,0%);fill-opacity:1;stroke-width:1;stroke-linecap:butt;stroke-linejoin:miter;stroke:rgb(0%,0%,0%);stroke-opacity:1;stroke-miterlimit:10;" d="M 989 148.601562 C 989 134.199219 965 134.199219 965 148.601562 C 965 163 989 165.398438 989 177.398438 C 989 165.398438 1013 163 1013 148.601562 C 1013 134.199219 989 134.199219 989 148.601562 "/>
<path style="fill-rule:nonzero;fill:rgb(100%,0%,0%);fill-opacity:1;stroke-width:1;stroke-linecap:butt;stroke-linejoin:miter;stroke:rgb(0%,0%,0%);stroke-opacity:1;stroke-miterlimit:10;" d="M 434 173.601562 C 434 159.199219 410 159.199219 410 173.601562 C 410 188 434 190.398438 434 202.398438 C 434 190.398438 458 188 458 173.601562 C 458 159.199219 434 159.199219 434 173.601562 "/>
<path style="fill-rule:nonzero;fill:rgb(100%,0%,0%);fill-opacity:1;stroke-width:1;stroke-linecap:butt;stroke-linejoin:miter;stroke:rgb(0%,0%,0%);stroke-opacity:1;stroke-miterlimit:10;" d="M 310 103.601562 C 310 89.199219 286 89.199219 286 103.601562 C 286 118 310 120.398438 310 132.398438 C 310 120.398438 334 118 334 103.601562 C 334 89.199219 310 89.199219 310 103.601562 "/>
<path style="fill-rule:nonzero;fill:rgb(100%,0%,0%);fill-opacity:1;stroke-width:1;stroke-linecap:butt;stroke-linejoin:miter;stroke:rgb(0%,0%,0%);stroke-opacity:1;stroke-miterlimit:10;" d="M 566 386.601562 C 566 372.199219 542 372.199219 542 386.601562 C 542 401 566 403.398438 566 415.398438 C 566 403.398438 590 401 590 386.601562 C 590 372.199219 566 372.199219 566 386.601562 "/>
<path style="fill-rule:nonzero;fill:rgb(0%,0%,0%);fill-opacity:1;stroke-width:1;stroke-linecap:butt;stroke-linejoin:miter;stroke:rgb(0%,0%,0%);stroke-opacity:1;stroke-miterlimit:10;" d="M 764 272 L 744 272 L 744 282 L 764 282 L 764 302 L 774 302 L 774 282 L 794 282 L 794 272 L 774 272 L 774 252 L 764 252 L 764 272 "/>
<path style="fill-rule:nonzero;fill:rgb(0%,0%,0%);fill-opacity:1;stroke-width:1;stroke-linecap:butt;stroke-linejoin:miter;stroke:rgb(0%,0%,0%);stroke-opacity:1;stroke-miterlimit:10;" d="M 249 352 L 229 352 L 229 362 L 249 362 L 249 382 L 259 382 L 259 362 L 279 362 L 279 352 L 259 352 L 259 332 L 249 332 L 249 352 "/>
<path style="fill-rule:nonzero;fill:rgb(0%,0%,0%);fill-opacity:1;stroke-width:1;stroke-linecap:butt;stroke-linejoin:miter;stroke:rgb(0%,0%,0%);stroke-opacity:1;stroke-miterlimit:10;" d="M 435 376 L 415 376 L 415 386 L 435 386 L 435 406 L 445 406 L 445 386 L 465 386 L 465 376 L 445 376 L 445 356 L 435 356 L 435 376 "/>
</g>
</svg>
