<?xml version="1.0" encoding="UTF-8"?>
<svg xmlns="http://www.w3.org/2000/svg" xmlns:xlink="http://www.w3.org/1999/xlink" width="1179pt" height="517pt" viewBox="0 0 1179 517" version="1.1">
<g id="surface186">
<rect x="0" y="0" width="1179" height="517" style="fill:rgb(90%,90%,90%);fill-opacity:1;stroke:none;"/>
<path style="fill-rule:nonzero;fill:rgb(35%,70%,90%);fill-opacity:1;stroke-width:1;stroke-linecap:butt;stroke-linejoin:miter;stroke:rgb(0%,0%,0%);stroke-opacity:1;stroke-miterlimit:10;" d="M 294 167 L 323.664062 167 L 335.664062 138.785156 L 347.664062 167 L 377.332031 167 L 353.332031 184.4375 L 361.417969 215.980469 L 335.664062 198.542969 L 309.914062 215.980469 L 322.214844 184.4375 L 294 167 "/>
<path style="fill-rule:nonzero;fill:rgb(35%,70%,90%);fill-opacity:1;stroke-width:1;stroke-linecap:butt;stroke-linejoin:miter;stroke:rgb(0%,0%,0%);stroke-opacity:1;stroke-miterlimit:10;" d="M 516 307 L 545.664062 307 L 557.664062 278.785156 L 569.664062 307 L 599.332031 307 L 575.332031 324.4375 L 583.417969 355.980469 L 557.664062 338.542969 L 531.914062 355.980469 L 544.214844 324.4375 L 516 307 "/>
<path style="fill-rule:nonzero;fill:rgb(35%,70%,90%);fill-opacity:1;stroke-width:1;stroke-linecap:butt;stroke-linejoin:miter;stroke:rgb(0%,0%,0%);stroke-opacity:1;stroke-miterlimit:10;" d="M 87 105 L 116.664062 105 L 128.664062 76.785156 L 140.664062 105 L 170.332031 105 L 146.332031 122.4375 L 154.417969 153.980469 L 128.664062 136.542969 L 102.914062 153.980469 L 115.214844 122.4375 L 87 105 "/>
<path style="fill-rule:nonzero;fill:rgb(35%,70%,90%);fill-opacity:1;stroke-width:1;stroke-linecap:butt;stroke-linejoin:miter;stroke:rgb(0%,0%,0%);stroke-opacity:1;stroke-miterlimit:10;" d="M 826 122 L 855.664062 122 L 867.664062 93.785156 L 879.664062 122 L 909.332031 122 L 885.332031 139.4375 L 893.417969 170.980469 L 867.664062 153.542969 L 841.914062 170.980469 L 854.214844 139.4375 L 826 122 "/>
<path style="fill-rule:nonzero;fill:rgb(100%,51%,0%);fill-opacity:1;stroke-width:1;stroke-linecap:butt;stroke-linejoin:miter;stroke:rgb(0%,0%,0%);stroke-opacity:1;stroke-miterlimit:10;" d="M 196 372 L 170.019531 417 L 221.980469 417 L 196 372 "/>
<path style="fill-rule:nonzero;fill:rgb(100%,51%,0%);fill-opacity:1;stroke-width:1;stroke-linecap:butt;stroke-linejoin:miter;stroke:rgb(0%,0%,0%);stroke-opacity:1;stroke-miterlimit:10;" d="M 1036 210 L 1010.019531 255 L 1061.980469 255 L 1036 210 "/>
<path style="fill-rule:nonzero;fill:rgb(100%,51%,0%);fill-opacity:1;stroke-width:1;stroke-linecap:butt;stroke-linejoin:miter;stroke:rgb(0%,0%,0%);stroke-opacity:1;stroke-miterlimit:10;" d="M 121 261 L 95.019531 306 L 146.980469 306 L 121 261 "/>
</g>
</svg>
