<?xml version="1.0" encoding="UTF-8"?>
<svg xmlns="http://www.w3.org/2000/svg" xmlns:xlink="http://www.w3.org/1999/xlink" width="1179pt" height="517pt" viewBox="0 0 1179 517" version="1.1">
<g id="surface316">
<rect x="0" y="0" width="1179" height="517" style="fill:rgb(90%,90%,90%);fill-opacity:1;stroke:none;"/>
<path style="fill-rule:nonzero;fill:rgb(100%,51%,0%);fill-opacity:1;stroke-width:1;stroke-linecap:butt;stroke-linejoin:miter;stroke:rgb(0%,0%,0%);stroke-opacity:1;stroke-miterlimit:10;" d="M 161.214844 146 C 161.214844 157.714844 151.714844 167.214844 140 167.214844 C 128.285156 167.214844 118.785156 157.714844 118.785156 146 C 118.785156 134.285156 128.285156 124.785156 140 124.785156 C 151.714844 124.785156 161.214844 134.285156 161.214844 146 "/>
<path style="fill-rule:nonzero;fill:rgb(55%,51%,53%);fill-opacity:1;stroke-width:1;stroke-linecap:butt;stroke-linejoin:miter;stroke:rgb(0%,0%,0%);stroke-opacity:1;stroke-miterlimit:10;" d="M 284.214844 432 C 284.214844 443.714844 274.714844 453.214844 263 453.214844 C 251.285156 453.214844 241.785156 443.714844 241.785156 432 C 241.785156 420.285156 251.285156 410.785156 263 410.785156 C 274.714844 410.785156 284.214844 420.285156 284.214844 432 "/>
<path style="fill-rule:nonzero;fill:rgb(55%,51%,53%);fill-opacity:1;stroke-width:1;stroke-linecap:butt;stroke-linejoin:miter;stroke:rgb(0%,0%,0%);stroke-opacity:1;stroke-miterlimit:10;" d="M 451.214844 333 C 451.214844 344.714844 441.714844 354.214844 430 354.214844 C 418.285156 354.214844 408.785156 344.714844 408.785156 333 C 408.785156 321.285156 418.285156 311.785156 430 311.785156 C 441.714844 311.785156 451.214844 321.285156 451.214844 333 "/>
<path style="fill-rule:nonzero;fill:rgb(100%,51%,0%);fill-opacity:1;stroke-width:1;stroke-linecap:butt;stroke-linejoin:miter;stroke:rgb(0%,0%,0%);stroke-opacity:1;stroke-miterlimit:10;" d="M 224.214844 224 C 224.214844 235.714844 214.714844 245.214844 203 245.214844 C 191.285156 245.214844 181.785156 235.714844 181.785156 224 C 181.785156 212.285156 191.285156 202.785156 203 202.785156 C 214.714844 202.785156 224.214844 212.285156 224.214844 224 "/>
<path style="fill-rule:nonzero;fill:rgb(55%,51%,53%);fill-opacity:1;stroke-width:1;stroke-linecap:butt;stroke-linejoin:miter;stroke:rgb(0%,0%,0%);stroke-opacity:1;stroke-miterlimit:10;" d="M 715 168 L 689.019531 213 L 740.980469 213 L 715 168 "/>
<path style="fill-rule:nonzero;fill:rgb(100%,51%,0%);fill-opacity:1;stroke-width:1;stroke-linecap:butt;stroke-linejoin:miter;stroke:rgb(0%,0%,0%);stroke-opacity:1;stroke-miterlimit:10;" d="M 835 104 L 809.019531 149 L 860.980469 149 L 835 104 "/>
<path style="fill-rule:nonzero;fill:rgb(100%,51%,0%);fill-opacity:1;stroke-width:1;stroke-linecap:butt;stroke-linejoin:miter;stroke:rgb(0%,0%,0%);stroke-opacity:1;stroke-miterlimit:10;" d="M 830 283 L 804.019531 328 L 855.980469 328 L 830 283 "/>
<path style="fill-rule:nonzero;fill:rgb(55%,51%,53%);fill-opacity:1;stroke-width:1;stroke-linecap:butt;stroke-linejoin:miter;stroke:rgb(0%,0%,0%);stroke-opacity:1;stroke-miterlimit:10;" d="M 981 325 L 955.019531 370 L 1006.980469 370 L 981 325 "/>
<path style="fill-rule:nonzero;fill:rgb(55%,51%,53%);fill-opacity:1;stroke-width:1;stroke-linecap:butt;stroke-linejoin:miter;stroke:rgb(0%,0%,0%);stroke-opacity:1;stroke-miterlimit:10;" d="M 841 400 L 815.019531 445 L 866.980469 445 L 841 400 "/>
</g>
</svg>
