<?xml version="1.0" encoding="UTF-8"?>
<svg xmlns="http://www.w3.org/2000/svg" xmlns:xlink="http://www.w3.org/1999/xlink" width="1179pt" height="517pt" viewBox="0 0 1179 517" version="1.1">
<g id="surface601">
<rect x="0" y="0" width="1179" height="517" style="fill:rgb(90%,90%,90%);fill-opacity:1;stroke:none;"/>
<path style="fill-rule:nonzero;fill:rgb(35%,70%,90%);fill-opacity:1;stroke-width:1;stroke-linecap:butt;stroke-linejoin:miter;stroke:rgb(0%,0%,0%);stroke-opacity:1;stroke-miterlimit:10;" d="M 450 316 L 479.664062 316 L 491.664062 287.785156 L 503.664062 316 L 533.332031 316 L 509.332031 333.4375 L 517.417969 364.980469 L 491.664062 347.542969 L 465.914062 364.980469 L 478.214844 333.4375 L 450 316 "/>
<path style="fill-rule:nonzero;fill:rgb(35%,70%,90%);fill-opacity:1;stroke-width:1;stroke-linecap:butt;stroke-linejoin:miter;stroke:rgb(0%,0%,0%);stroke-opacity:1;stroke-miterlimit:10;" d="M 896 431 L 925.664062 431 L 937.664062 402.785156 L 949.664062 431 L 979.332031 431 L 955.332031 448.4375 L 963.417969 479.980469 L 937.664062 462.542969 L 911.914062 479.980469 L 924.214844 448.4375 L 896 431 "/>
<path style="fill-rule:nonzero;fill:rgb(35%,70%,90%);fill-opacity:1;stroke-width:1;stroke-linecap:butt;stroke-linejoin:miter;stroke:rgb(0%,0%,0%);stroke-opacity:1;stroke-miterlimit:10;" d="M 562 187 L 591.664062 187 L 603.664062 158.785156 L 615.664062 187 L 645.332031 187 L 621.332031 204.4375 L 629.417969 235.980469 L 603.664062 218.542969 L 577.914062 235.980469 L 590.214844 204.4375 L 562 187 "/>
<path style="fill-rule:nonzero;fill:rgb(35%,70%,90%);fill-opacity:1;stroke-width:1;stroke-linecap:butt;stroke-linejoin:miter;stroke:rgb(0%,0%,0%);stroke-opacity:1;stroke-miterlimit:10;" d="M 1036 179 L 1065.664062 179 L 1077.664062 150.785156 L 1089.664062 179 L 1119.332031 179 L 1095.332031 196.4375 L 1103.417969 227.980469 L 1077.664062 210.542969 L 1051.914062 227.980469 L 1064.214844 196.4375 L 1036 179 "/>
<path style="fill-rule:nonzero;fill:rgb(55%,51%,53%);fill-opacity:1;stroke-width:1;stroke-linecap:butt;stroke-linejoin:miter;stroke:rgb(0%,0%,0%);stroke-opacity:1;stroke-miterlimit:10;" d="M 104.214844 116 C 104.214844 127.714844 94.714844 137.214844 83 137.214844 C 71.285156 137.214844 61.785156 127.714844 61.785156 116 C 61.785156 104.285156 71.285156 94.785156 83 94.785156 C 94.714844 94.785156 104.214844 104.285156 104.214844 116 "/>
<path style="fill-rule:nonzero;fill:rgb(55%,51%,53%);fill-opacity:1;stroke-width:1;stroke-linecap:butt;stroke-linejoin:miter;stroke:rgb(0%,0%,0%);stroke-opacity:1;stroke-miterlimit:10;" d="M 156.214844 231 C 156.214844 242.714844 146.714844 252.214844 135 252.214844 C 123.285156 252.214844 113.785156 242.714844 113.785156 231 C 113.785156 219.285156 123.285156 209.785156 135 209.785156 C 146.714844 209.785156 156.214844 219.285156 156.214844 231 "/>
<path style="fill-rule:nonzero;fill:rgb(55%,51%,53%);fill-opacity:1;stroke-width:1;stroke-linecap:butt;stroke-linejoin:miter;stroke:rgb(0%,0%,0%);stroke-opacity:1;stroke-miterlimit:10;" d="M 683.214844 105 C 683.214844 116.714844 673.714844 126.214844 662 126.214844 C 650.285156 126.214844 640.785156 116.714844 640.785156 105 C 640.785156 93.285156 650.285156 83.785156 662 83.785156 C 673.714844 83.785156 683.214844 93.285156 683.214844 105 "/>
</g>
</svg>
