<?xml version="1.0" encoding="UTF-8"?>
<svg xmlns="http://www.w3.org/2000/svg" xmlns:xlink="http://www.w3.org/1999/xlink" width="1179pt" height="517pt" viewBox="0 0 1179 517" version="1.1">
<g id="surface1011">
<rect x="0" y="0" width="1179" height="517" style="fill:rgb(90%,90%,90%);fill-opacity:1;stroke:none;"/>
<path style="fill-rule:nonzero;fill:rgb(35%,70%,90%);fill-opacity:1;stroke-width:1;stroke-linecap:butt;stroke-linejoin:miter;stroke:rgb(0%,0%,0%);stroke-opacity:1;stroke-miterlimit:10;" d="M 147.214844 367 C 147.214844 378.714844 137.714844 388.214844 126 388.214844 C 114.285156 388.214844 104.785156 378.714844 104.785156 367 C 104.785156 355.285156 114.285156 345.785156 126 345.785156 C 137.714844 345.785156 147.214844 355.285156 147.214844 367 "/>
<path style="fill-rule:nonzero;fill:rgb(35%,70%,90%);fill-opacity:1;stroke-width:1;stroke-linecap:butt;stroke-linejoin:miter;stroke:rgb(0%,0%,0%);stroke-opacity:1;stroke-miterlimit:10;" d="M 544.214844 257 C 544.214844 268.714844 534.714844 278.214844 523 278.214844 C 511.285156 278.214844 501.785156 268.714844 501.785156 257 C 501.785156 245.285156 511.285156 235.785156 523 235.785156 C 534.714844 235.785156 544.214844 245.285156 544.214844 257 "/>
<path style="fill-rule:nonzero;fill:rgb(35%,70%,90%);fill-opacity:1;stroke-width:1;stroke-linecap:butt;stroke-linejoin:miter;stroke:rgb(0%,0%,0%);stroke-opacity:1;stroke-miterlimit:10;" d="M 1056.214844 285 C 1056.214844 296.714844 1046.714844 306.214844 1035 306.214844 C 1023.285156 306.214844 1013.785156 296.714844 1013.785156 285 C 1013.785156 273.285156 1023.285156 263.785156 1035 263.785156 C 1046.714844 263.785156 1056.214844 273.285156 1056.214844 285 "/>
<path style="fill-rule:nonzero;fill:rgb(35%,70%,90%);fill-opacity:1;stroke-width:1;stroke-linecap:butt;stroke-linejoin:miter;stroke:rgb(0%,0%,0%);stroke-opacity:1;stroke-miterlimit:10;" d="M 117.214844 106 C 117.214844 117.714844 107.714844 127.214844 96 127.214844 C 84.285156 127.214844 74.785156 117.714844 74.785156 106 C 74.785156 94.285156 84.285156 84.785156 96 84.785156 C 107.714844 84.785156 117.214844 94.285156 117.214844 106 "/>
<path style="fill-rule:nonzero;fill:rgb(100%,51%,0%);fill-opacity:1;stroke-width:1;stroke-linecap:butt;stroke-linejoin:miter;stroke:rgb(0%,0%,0%);stroke-opacity:1;stroke-miterlimit:10;" d="M 741 358 L 715.019531 403 L 766.980469 403 L 741 358 "/>
<path style="fill-rule:nonzero;fill:rgb(100%,51%,0%);fill-opacity:1;stroke-width:1;stroke-linecap:butt;stroke-linejoin:miter;stroke:rgb(0%,0%,0%);stroke-opacity:1;stroke-miterlimit:10;" d="M 235 193 L 209.019531 238 L 260.980469 238 L 235 193 "/>
<path style="fill-rule:nonzero;fill:rgb(100%,51%,0%);fill-opacity:1;stroke-width:1;stroke-linecap:butt;stroke-linejoin:miter;stroke:rgb(0%,0%,0%);stroke-opacity:1;stroke-miterlimit:10;" d="M 775 236 L 749.019531 281 L 800.980469 281 L 775 236 "/>
<path style="fill-rule:nonzero;fill:rgb(100%,51%,0%);fill-opacity:1;stroke-width:1;stroke-linecap:butt;stroke-linejoin:miter;stroke:rgb(0%,0%,0%);stroke-opacity:1;stroke-miterlimit:10;" d="M 869 332 L 843.019531 377 L 894.980469 377 L 869 332 "/>
</g>
</svg>
