<?xml version="1.0" encoding="UTF-8"?>
<svg xmlns="http://www.w3.org/2000/svg" xmlns:xlink="http://www.w3.org/1999/xlink" width="1179pt" height="517pt" viewBox="0 0 1179 517" version="1.1">
<g id="surface946">
<rect x="0" y="0" width="1179" height="517" style="fill:rgb(90%,90%,90%);fill-opacity:1;stroke:none;"/>
<path style="fill-rule:nonzero;fill:rgb(53%,27%,7%);fill-opacity:1;stroke-width:1;stroke-linecap:butt;stroke-linejoin:miter;stroke:rgb(0%,0%,0%);stroke-opacity:1;stroke-miterlimit:10;" d="M 818 393.601562 C 818 379.199219 794 379.199219 794 393.601562 C 794 408 818 410.398438 818 422.398438 C 818 410.398438 842 408 842 393.601562 C 842 379.199219 818 379.199219 818 393.601562 "/>
<path style="fill-rule:nonzero;fill:rgb(53%,27%,7%);fill-opacity:1;stroke-width:1;stroke-linecap:butt;stroke-linejoin:miter;stroke:rgb(0%,0%,0%);stroke-opacity:1;stroke-miterlimit:10;" d="M 657 196.601562 C 657 182.199219 633 182.199219 633 196.601562 C 633 211 657 213.398438 657 225.398438 C 657 213.398438 681 211 681 196.601562 C 681 182.199219 657 182.199219 657 196.601562 "/>
<path style="fill-rule:nonzero;fill:rgb(53%,27%,7%);fill-opacity:1;stroke-width:1;stroke-linecap:butt;stroke-linejoin:miter;stroke:rgb(0%,0%,0%);stroke-opacity:1;stroke-miterlimit:10;" d="M 965 205.601562 C 965 191.199219 941 191.199219 941 205.601562 C 941 220 965 222.398438 965 234.398438 C 965 222.398438 989 220 989 205.601562 C 989 191.199219 965 191.199219 965 205.601562 "/>
<path style="fill-rule:nonzero;fill:rgb(53%,27%,7%);fill-opacity:1;stroke-width:1;stroke-linecap:butt;stroke-linejoin:miter;stroke:rgb(0%,0%,0%);stroke-opacity:1;stroke-miterlimit:10;" d="M 348 410.601562 C 348 396.199219 324 396.199219 324 410.601562 C 324 425 348 427.398438 348 439.398438 C 348 427.398438 372 425 372 410.601562 C 372 396.199219 348 396.199219 348 410.601562 "/>
<path style="fill-rule:nonzero;fill:rgb(53%,27%,7%);fill-opacity:1;stroke-width:1;stroke-linecap:butt;stroke-linejoin:miter;stroke:rgb(0%,0%,0%);stroke-opacity:1;stroke-miterlimit:10;" d="M 508 366.601562 C 508 352.199219 484 352.199219 484 366.601562 C 484 381 508 383.398438 508 395.398438 C 508 383.398438 532 381 532 366.601562 C 532 352.199219 508 352.199219 508 366.601562 "/>
<path style="fill-rule:nonzero;fill:rgb(100%,51%,0%);fill-opacity:1;stroke-width:1;stroke-linecap:butt;stroke-linejoin:miter;stroke:rgb(0%,0%,0%);stroke-opacity:1;stroke-miterlimit:10;" d="M 147.214844 184 C 147.214844 195.714844 137.714844 205.214844 126 205.214844 C 114.285156 205.214844 104.785156 195.714844 104.785156 184 C 104.785156 172.285156 114.285156 162.785156 126 162.785156 C 137.714844 162.785156 147.214844 172.285156 147.214844 184 "/>
<path style="fill-rule:nonzero;fill:rgb(100%,51%,0%);fill-opacity:1;stroke-width:1;stroke-linecap:butt;stroke-linejoin:miter;stroke:rgb(0%,0%,0%);stroke-opacity:1;stroke-miterlimit:10;" d="M 1036.214844 365 C 1036.214844 376.714844 1026.714844 386.214844 1015 386.214844 C 1003.285156 386.214844 993.785156 376.714844 993.785156 365 C 993.785156 353.285156 1003.285156 343.785156 1015 343.785156 C 1026.714844 343.785156 1036.214844 353.285156 1036.214844 365 "/>
<path style="fill-rule:nonzero;fill:rgb(100%,51%,0%);fill-opacity:1;stroke-width:1;stroke-linecap:butt;stroke-linejoin:miter;stroke:rgb(0%,0%,0%);stroke-opacity:1;stroke-miterlimit:10;" d="M 373.214844 228 C 373.214844 239.714844 363.714844 249.214844 352 249.214844 C 340.285156 249.214844 330.785156 239.714844 330.785156 228 C 330.785156 216.285156 340.285156 206.785156 352 206.785156 C 363.714844 206.785156 373.214844 216.285156 373.214844 228 "/>
<path style="fill-rule:nonzero;fill:rgb(100%,51%,0%);fill-opacity:1;stroke-width:1;stroke-linecap:butt;stroke-linejoin:miter;stroke:rgb(0%,0%,0%);stroke-opacity:1;stroke-miterlimit:10;" d="M 889.214844 98 C 889.214844 109.714844 879.714844 119.214844 868 119.214844 C 856.285156 119.214844 846.785156 109.714844 846.785156 98 C 846.785156 86.285156 856.285156 76.785156 868 76.785156 C 879.714844 76.785156 889.214844 86.285156 889.214844 98 "/>
</g>
</svg>
