<?xml version="1.0" encoding="UTF-8"?>
<svg xmlns="http://www.w3.org/2000/svg" xmlns:xlink="http://www.w3.org/1999/xlink" width="1179pt" height="517pt" viewBox="0 0 1179 517" version="1.1">
<g id="surface896">
<rect x="0" y="0" width="1179" height="517" style="fill:rgb(90%,90%,90%);fill-opacity:1;stroke:none;"/>
<path style="fill-rule:nonzero;fill:rgb(53%,27%,7%);fill-opacity:1;stroke-width:1;stroke-linecap:butt;stroke-linejoin:miter;stroke:rgb(0%,0%,0%);stroke-opacity:1;stroke-miterlimit:10;" d="M 105 132.601562 C 105 118.199219 81 118.199219 81 132.601562 C 81 147 105 149.398438 105 161.398438 C 105 149.398438 129 147 129 132.601562 C 129 118.199219 105 118.199219 105 132.601562 "/>
<path style="fill-rule:nonzero;fill:rgb(53%,27%,7%);fill-opacity:1;stroke-width:1;stroke-linecap:butt;stroke-linejoin:miter;stroke:rgb(0%,0%,0%);stroke-opacity:1;stroke-miterlimit:10;" d="M 306 122.601562 C 306 108.199219 282 108.199219 282 122.601562 C 282 137 306 139.398438 306 151.398438 C 306 139.398438 330 137 330 122.601562 C 330 108.199219 306 108.199219 306 122.601562 "/>
<path style="fill-rule:nonzero;fill:rgb(53%,27%,7%);fill-opacity:1;stroke-width:1;stroke-linecap:butt;stroke-linejoin:miter;stroke:rgb(0%,0%,0%);stroke-opacity:1;stroke-miterlimit:10;" d="M 228.214844 358 C 228.214844 369.714844 218.714844 379.214844 207 379.214844 C 195.285156 379.214844 185.785156 369.714844 185.785156 358 C 185.785156 346.285156 195.285156 336.785156 207 336.785156 C 218.714844 336.785156 228.214844 346.285156 228.214844 358 "/>
<path style="fill-rule:nonzero;fill:rgb(100%,51%,0%);fill-opacity:1;stroke-width:1;stroke-linecap:butt;stroke-linejoin:miter;stroke:rgb(0%,0%,0%);stroke-opacity:1;stroke-miterlimit:10;" d="M 839.214844 259 C 839.214844 270.714844 829.714844 280.214844 818 280.214844 C 806.285156 280.214844 796.785156 270.714844 796.785156 259 C 796.785156 247.285156 806.285156 237.785156 818 237.785156 C 829.714844 237.785156 839.214844 247.285156 839.214844 259 "/>
<path style="fill-rule:nonzero;fill:rgb(100%,51%,0%);fill-opacity:1;stroke-width:1;stroke-linecap:butt;stroke-linejoin:miter;stroke:rgb(0%,0%,0%);stroke-opacity:1;stroke-miterlimit:10;" d="M 1060.214844 365 C 1060.214844 376.714844 1050.714844 386.214844 1039 386.214844 C 1027.285156 386.214844 1017.785156 376.714844 1017.785156 365 C 1017.785156 353.285156 1027.285156 343.785156 1039 343.785156 C 1050.714844 343.785156 1060.214844 353.285156 1060.214844 365 "/>
<path style="fill-rule:nonzero;fill:rgb(100%,51%,0%);fill-opacity:1;stroke-width:1;stroke-linecap:butt;stroke-linejoin:miter;stroke:rgb(0%,0%,0%);stroke-opacity:1;stroke-miterlimit:10;" d="M 931 159.601562 C 931 145.199219 907 145.199219 907 159.601562 C 907 174 931 176.398438 931 188.398438 C 931 176.398438 955 174 955 159.601562 C 955 145.199219 931 145.199219 931 159.601562 "/>
<path style="fill-rule:nonzero;fill:rgb(100%,51%,0%);fill-opacity:1;stroke-width:1;stroke-linecap:butt;stroke-linejoin:miter;stroke:rgb(0%,0%,0%);stroke-opacity:1;stroke-miterlimit:10;" d="M 856 77.601562 C 856 63.199219 832 63.199219 832 77.601562 C 832 92 856 94.398438 856 106.398438 C 856 94.398438 880 92 880 77.601562 C 880 63.199219 856 63.199219 856 77.601562 "/>
<path style="fill-rule:nonzero;fill:rgb(100%,51%,0%);fill-opacity:1;stroke-width:1;stroke-linecap:butt;stroke-linejoin:miter;stroke:rgb(0%,0%,0%);stroke-opacity:1;stroke-miterlimit:10;" d="M 866.214844 369 C 866.214844 380.714844 856.714844 390.214844 845 390.214844 C 833.285156 390.214844 823.785156 380.714844 823.785156 369 C 823.785156 357.285156 833.285156 347.785156 845 347.785156 C 856.714844 347.785156 866.214844 357.285156 866.214844 369 "/>
</g>
</svg>
