<?xml version="1.0" encoding="UTF-8"?>
<svg xmlns="http://www.w3.org/2000/svg" xmlns:xlink="http://www.w3.org/1999/xlink" width="1179pt" height="517pt" viewBox="0 0 1179 517" version="1.1">
<g id="surface766">
<rect x="0" y="0" width="1179" height="517" style="fill:rgb(90%,90%,90%);fill-opacity:1;stroke:none;"/>
<path style="fill-rule:nonzero;fill:rgb(53%,27%,7%);fill-opacity:1;stroke-width:1;stroke-linecap:butt;stroke-linejoin:miter;stroke:rgb(0%,0%,0%);stroke-opacity:1;stroke-miterlimit:10;" d="M 904 285.601562 C 904 271.199219 880 271.199219 880 285.601562 C 880 300 904 302.398438 904 314.398438 C 904 302.398438 928 300 928 285.601562 C 928 271.199219 904 271.199219 904 285.601562 "/>
<path style="fill-rule:nonzero;fill:rgb(53%,27%,7%);fill-opacity:1;stroke-width:1;stroke-linecap:butt;stroke-linejoin:miter;stroke:rgb(0%,0%,0%);stroke-opacity:1;stroke-miterlimit:10;" d="M 903 130.601562 C 903 116.199219 879 116.199219 879 130.601562 C 879 145 903 147.398438 903 159.398438 C 903 147.398438 927 145 927 130.601562 C 927 116.199219 903 116.199219 903 130.601562 "/>
<path style="fill-rule:nonzero;fill:rgb(53%,27%,7%);fill-opacity:1;stroke-width:1;stroke-linecap:butt;stroke-linejoin:miter;stroke:rgb(0%,0%,0%);stroke-opacity:1;stroke-miterlimit:10;" d="M 355 156.601562 C 355 142.199219 331 142.199219 331 156.601562 C 331 171 355 173.398438 355 185.398438 C 355 173.398438 379 171 379 156.601562 C 379 142.199219 355 142.199219 355 156.601562 "/>
<path style="fill-rule:nonzero;fill:rgb(53%,27%,7%);fill-opacity:1;stroke-width:1;stroke-linecap:butt;stroke-linejoin:miter;stroke:rgb(0%,0%,0%);stroke-opacity:1;stroke-miterlimit:10;" d="M 165 317.601562 C 165 303.199219 141 303.199219 141 317.601562 C 141 332 165 334.398438 165 346.398438 C 165 334.398438 189 332 189 317.601562 C 189 303.199219 165 303.199219 165 317.601562 "/>
<path style="fill-rule:nonzero;fill:rgb(53%,27%,7%);fill-opacity:1;stroke-width:1;stroke-linecap:butt;stroke-linejoin:miter;stroke:rgb(0%,0%,0%);stroke-opacity:1;stroke-miterlimit:10;" d="M 485 168.601562 C 485 154.199219 461 154.199219 461 168.601562 C 461 183 485 185.398438 485 197.398438 C 485 185.398438 509 183 509 168.601562 C 509 154.199219 485 154.199219 485 168.601562 "/>
<path style="fill-rule:nonzero;fill:rgb(100%,51%,0%);fill-opacity:1;stroke-width:1;stroke-linecap:butt;stroke-linejoin:miter;stroke:rgb(0%,0%,0%);stroke-opacity:1;stroke-miterlimit:10;" d="M 717.214844 396 C 717.214844 407.714844 707.714844 417.214844 696 417.214844 C 684.285156 417.214844 674.785156 407.714844 674.785156 396 C 674.785156 384.285156 684.285156 374.785156 696 374.785156 C 707.714844 374.785156 717.214844 384.285156 717.214844 396 "/>
<path style="fill-rule:nonzero;fill:rgb(100%,51%,0%);fill-opacity:1;stroke-width:1;stroke-linecap:butt;stroke-linejoin:miter;stroke:rgb(0%,0%,0%);stroke-opacity:1;stroke-miterlimit:10;" d="M 424.214844 327 C 424.214844 338.714844 414.714844 348.214844 403 348.214844 C 391.285156 348.214844 381.785156 338.714844 381.785156 327 C 381.785156 315.285156 391.285156 305.785156 403 305.785156 C 414.714844 305.785156 424.214844 315.285156 424.214844 327 "/>
<path style="fill-rule:nonzero;fill:rgb(100%,51%,0%);fill-opacity:1;stroke-width:1;stroke-linecap:butt;stroke-linejoin:miter;stroke:rgb(0%,0%,0%);stroke-opacity:1;stroke-miterlimit:10;" d="M 254.214844 114 C 254.214844 125.714844 244.714844 135.214844 233 135.214844 C 221.285156 135.214844 211.785156 125.714844 211.785156 114 C 211.785156 102.285156 221.285156 92.785156 233 92.785156 C 244.714844 92.785156 254.214844 102.285156 254.214844 114 "/>
<path style="fill-rule:nonzero;fill:rgb(100%,51%,0%);fill-opacity:1;stroke-width:1;stroke-linecap:butt;stroke-linejoin:miter;stroke:rgb(0%,0%,0%);stroke-opacity:1;stroke-miterlimit:10;" d="M 601.214844 285 C 601.214844 296.714844 591.714844 306.214844 580 306.214844 C 568.285156 306.214844 558.785156 296.714844 558.785156 285 C 558.785156 273.285156 568.285156 263.785156 580 263.785156 C 591.714844 263.785156 601.214844 273.285156 601.214844 285 "/>
<path style="fill-rule:nonzero;fill:rgb(100%,51%,0%);fill-opacity:1;stroke-width:1;stroke-linecap:butt;stroke-linejoin:miter;stroke:rgb(0%,0%,0%);stroke-opacity:1;stroke-miterlimit:10;" d="M 541.214844 424 C 541.214844 435.714844 531.714844 445.214844 520 445.214844 C 508.285156 445.214844 498.785156 435.714844 498.785156 424 C 498.785156 412.285156 508.285156 402.785156 520 402.785156 C 531.714844 402.785156 541.214844 412.285156 541.214844 424 "/>
</g>
</svg>
