<?xml version="1.0" encoding="UTF-8"?>
<svg xmlns="http://www.w3.org/2000/svg" xmlns:xlink="http://www.w3.org/1999/xlink" width="1179pt" height="517pt" viewBox="0 0 1179 517" version="1.1">
<g id="surface1">
<rect x="0" y="0" width="1179" height="517" style="fill:rgb(90%,90%,90%);fill-opacity:1;stroke:none;"/>
<path style="fill-rule:nonzero;fill:rgb(100%,51%,0%);fill-opacity:1;stroke-width:1;stroke-linecap:butt;stroke-linejoin:miter;stroke:rgb(0%,0%,0%);stroke-opacity:1;stroke-miterlimit:10;" d="M 306.214844 181 C 306.214844 192.714844 296.714844 202.214844 285 202.214844 C 273.285156 202.214844 263.785156 192.714844 263.785156 181 C 263.785156 169.285156 273.285156 159.785156 285 159.785156 C 296.714844 159.785156 306.214844 169.285156 306.214844 181 "/>
<path style="fill-rule:nonzero;fill:rgb(35%,70%,90%);fill-opacity:1;stroke-width:1;stroke-linecap:butt;stroke-linejoin:miter;stroke:rgb(0%,0%,0%);stroke-opacity:1;stroke-miterlimit:10;" d="M 391 233 L 420.664062 233 L 432.664062 204.785156 L 444.664062 233 L 474.332031 233 L 450.332031 250.4375 L 458.417969 281.980469 L 432.664062 264.542969 L 406.914062 281.980469 L 419.214844 250.4375 L 391 233 "/>
<path style="fill-rule:nonzero;fill:rgb(35%,70%,90%);fill-opacity:1;stroke-width:1;stroke-linecap:butt;stroke-linejoin:miter;stroke:rgb(0%,0%,0%);stroke-opacity:1;stroke-miterlimit:10;" d="M 189 94 L 218.664062 94 L 230.664062 65.785156 L 242.664062 94 L 272.332031 94 L 248.332031 111.4375 L 256.417969 142.980469 L 230.664062 125.542969 L 204.914062 142.980469 L 217.214844 111.4375 L 189 94 "/>
<path style="fill-rule:nonzero;fill:rgb(100%,51%,0%);fill-opacity:1;stroke-width:1;stroke-linecap:butt;stroke-linejoin:miter;stroke:rgb(0%,0%,0%);stroke-opacity:1;stroke-miterlimit:10;" d="M 122.214844 318 C 122.214844 329.714844 112.714844 339.214844 101 339.214844 C 89.285156 339.214844 79.785156 329.714844 79.785156 318 C 79.785156 306.285156 89.285156 296.785156 101 296.785156 C 112.714844 296.785156 122.214844 306.285156 122.214844 318 "/>
<path style="fill-rule:nonzero;fill:rgb(35%,70%,90%);fill-opacity:1;stroke-width:1;stroke-linecap:butt;stroke-linejoin:miter;stroke:rgb(0%,0%,0%);stroke-opacity:1;stroke-miterlimit:10;" d="M 231 364 L 260.664062 364 L 272.664062 335.785156 L 284.664062 364 L 314.332031 364 L 290.332031 381.4375 L 298.417969 412.980469 L 272.664062 395.542969 L 246.914062 412.980469 L 259.214844 381.4375 L 231 364 "/>
<path style="fill-rule:nonzero;fill:rgb(100%,51%,0%);fill-opacity:1;stroke-width:1;stroke-linecap:butt;stroke-linejoin:miter;stroke:rgb(0%,0%,0%);stroke-opacity:1;stroke-miterlimit:10;" d="M 345.214844 294 C 345.214844 305.714844 335.714844 315.214844 324 315.214844 C 312.285156 315.214844 302.785156 305.714844 302.785156 294 C 302.785156 282.285156 312.285156 272.785156 324 272.785156 C 335.714844 272.785156 345.214844 282.285156 345.214844 294 "/>
<path style="fill-rule:nonzero;fill:rgb(100%,51%,0%);fill-opacity:1;stroke-width:1;stroke-linecap:butt;stroke-linejoin:miter;stroke:rgb(0%,0%,0%);stroke-opacity:1;stroke-miterlimit:10;" d="M 172.214844 219 C 172.214844 230.714844 162.714844 240.214844 151 240.214844 C 139.285156 240.214844 129.785156 230.714844 129.785156 219 C 129.785156 207.285156 139.285156 197.785156 151 197.785156 C 162.714844 197.785156 172.214844 207.285156 172.214844 219 "/>
<path style="fill-rule:nonzero;fill:rgb(35%,70%,90%);fill-opacity:1;stroke-width:1;stroke-linecap:butt;stroke-linejoin:miter;stroke:rgb(0%,0%,0%);stroke-opacity:1;stroke-miterlimit:10;" d="M 952 119 L 981.664062 119 L 993.664062 90.785156 L 1005.664062 119 L 1035.332031 119 L 1011.332031 136.4375 L 1019.417969 167.980469 L 993.664062 150.542969 L 967.914062 167.980469 L 980.214844 136.4375 L 952 119 "/>
<path style="fill-rule:nonzero;fill:rgb(35%,70%,90%);fill-opacity:1;stroke-width:1;stroke-linecap:butt;stroke-linejoin:miter;stroke:rgb(0%,0%,0%);stroke-opacity:1;stroke-miterlimit:10;" d="M 804 328 L 833.664062 328 L 845.664062 299.785156 L 857.664062 328 L 887.332031 328 L 863.332031 345.4375 L 871.417969 376.980469 L 845.664062 359.542969 L 819.914062 376.980469 L 832.214844 345.4375 L 804 328 "/>
<path style="fill-rule:nonzero;fill:rgb(35%,70%,90%);fill-opacity:1;stroke-width:1;stroke-linecap:butt;stroke-linejoin:miter;stroke:rgb(0%,0%,0%);stroke-opacity:1;stroke-miterlimit:10;" d="M 1029 429 L 1058.664062 429 L 1070.664062 400.785156 L 1082.664062 429 L 1112.332031 429 L 1088.332031 446.4375 L 1096.417969 477.980469 L 1070.664062 460.542969 L 1044.914062 477.980469 L 1057.214844 446.4375 L 1029 429 "/>
<path style="fill-rule:nonzero;fill:rgb(35%,70%,90%);fill-opacity:1;stroke-width:1;stroke-linecap:butt;stroke-linejoin:miter;stroke:rgb(0%,0%,0%);stroke-opacity:1;stroke-miterlimit:10;" d="M 851 200 L 880.664062 200 L 892.664062 171.785156 L 904.664062 200 L 934.332031 200 L 910.332031 217.4375 L 918.417969 248.980469 L 892.664062 231.542969 L 866.914062 248.980469 L 879.214844 217.4375 L 851 200 "/>
<path style="fill-rule:nonzero;fill:rgb(100%,51%,0%);fill-opacity:1;stroke-width:1;stroke-linecap:butt;stroke-linejoin:miter;stroke:rgb(0%,0%,0%);stroke-opacity:1;stroke-miterlimit:10;" d="M 877.214844 426 C 877.214844 437.714844 867.714844 447.214844 856 447.214844 C 844.285156 447.214844 834.785156 437.714844 834.785156 426 C 834.785156 414.285156 844.285156 404.785156 856 404.785156 C 867.714844 404.785156 877.214844 414.285156 877.214844 426 "/>
<path style="fill-rule:nonzero;fill:rgb(100%,51%,0%);fill-opacity:1;stroke-width:1;stroke-linecap:butt;stroke-linejoin:miter;stroke:rgb(0%,0%,0%);stroke-opacity:1;stroke-miterlimit:10;" d="M 989.214844 335 C 989.214844 346.714844 979.714844 356.214844 968 356.214844 C 956.285156 356.214844 946.785156 346.714844 946.785156 335 C 946.785156 323.285156 956.285156 313.785156 968 313.785156 C 979.714844 313.785156 989.214844 323.285156 989.214844 335 "/>
<path style="fill-rule:nonzero;fill:rgb(100%,51%,0%);fill-opacity:1;stroke-width:1;stroke-linecap:butt;stroke-linejoin:miter;stroke:rgb(0%,0%,0%);stroke-opacity:1;stroke-miterlimit:10;" d="M 728.214844 383 C 728.214844 394.714844 718.714844 404.214844 707 404.214844 C 695.285156 404.214844 685.785156 394.714844 685.785156 383 C 685.785156 371.285156 695.285156 361.785156 707 361.785156 C 718.714844 361.785156 728.214844 371.285156 728.214844 383 "/>
<path style="fill-rule:nonzero;fill:rgb(100%,51%,0%);fill-opacity:1;stroke-width:1;stroke-linecap:butt;stroke-linejoin:miter;stroke:rgb(0%,0%,0%);stroke-opacity:1;stroke-miterlimit:10;" d="M 746.214844 148 C 746.214844 159.714844 736.714844 169.214844 725 169.214844 C 713.285156 169.214844 703.785156 159.714844 703.785156 148 C 703.785156 136.285156 713.285156 126.785156 725 126.785156 C 736.714844 126.785156 746.214844 136.285156 746.214844 148 "/>
</g>
</svg>
