<?xml version="1.0" encoding="UTF-8"?>
<svg xmlns="http://www.w3.org/2000/svg" xmlns:xlink="http://www.w3.org/1999/xlink" width="1179pt" height="517pt" viewBox="0 0 1179 517" version="1.1">
<g id="surface621">
<rect x="0" y="0" width="1179" height="517" style="fill:rgb(90%,90%,90%);fill-opacity:1;stroke:none;"/>
<path style="fill-rule:nonzero;fill:rgb(35%,70%,90%);fill-opacity:1;stroke-width:1;stroke-linecap:butt;stroke-linejoin:miter;stroke:rgb(0%,0%,0%);stroke-opacity:1;stroke-miterlimit:10;" d="M 298.214844 262 C 298.214844 273.714844 288.714844 283.214844 277 283.214844 C 265.285156 283.214844 255.785156 273.714844 255.785156 262 C 255.785156 250.285156 265.285156 240.785156 277 240.785156 C 288.714844 240.785156 298.214844 250.285156 298.214844 262 "/>
<path style="fill-rule:nonzero;fill:rgb(35%,70%,90%);fill-opacity:1;stroke-width:1;stroke-linecap:butt;stroke-linejoin:miter;stroke:rgb(0%,0%,0%);stroke-opacity:1;stroke-miterlimit:10;" d="M 316.785156 81.785156 L 316.785156 124.214844 L 359.214844 124.214844 L 359.214844 81.785156 L 316.785156 81.785156 "/>
<path style="fill-rule:nonzero;fill:rgb(35%,70%,90%);fill-opacity:1;stroke-width:1;stroke-linecap:butt;stroke-linejoin:miter;stroke:rgb(0%,0%,0%);stroke-opacity:1;stroke-miterlimit:10;" d="M 172.785156 287.785156 L 172.785156 330.214844 L 215.214844 330.214844 L 215.214844 287.785156 L 172.785156 287.785156 "/>
<path style="fill-rule:nonzero;fill:rgb(35%,70%,90%);fill-opacity:1;stroke-width:1;stroke-linecap:butt;stroke-linejoin:miter;stroke:rgb(0%,0%,0%);stroke-opacity:1;stroke-miterlimit:10;" d="M 211.214844 158 C 211.214844 169.714844 201.714844 179.214844 190 179.214844 C 178.285156 179.214844 168.785156 169.714844 168.785156 158 C 168.785156 146.285156 178.285156 136.785156 190 136.785156 C 201.714844 136.785156 211.214844 146.285156 211.214844 158 "/>
<path style="fill-rule:nonzero;fill:rgb(55%,51%,53%);fill-opacity:1;stroke-width:1;stroke-linecap:butt;stroke-linejoin:miter;stroke:rgb(0%,0%,0%);stroke-opacity:1;stroke-miterlimit:10;" d="M 951.785156 96.785156 L 951.785156 139.214844 L 994.214844 139.214844 L 994.214844 96.785156 L 951.785156 96.785156 "/>
<path style="fill-rule:nonzero;fill:rgb(55%,51%,53%);fill-opacity:1;stroke-width:1;stroke-linecap:butt;stroke-linejoin:miter;stroke:rgb(0%,0%,0%);stroke-opacity:1;stroke-miterlimit:10;" d="M 822.214844 122 C 822.214844 133.714844 812.714844 143.214844 801 143.214844 C 789.285156 143.214844 779.785156 133.714844 779.785156 122 C 779.785156 110.285156 789.285156 100.785156 801 100.785156 C 812.714844 100.785156 822.214844 110.285156 822.214844 122 "/>
<path style="fill-rule:nonzero;fill:rgb(55%,51%,53%);fill-opacity:1;stroke-width:1;stroke-linecap:butt;stroke-linejoin:miter;stroke:rgb(0%,0%,0%);stroke-opacity:1;stroke-miterlimit:10;" d="M 1036.214844 332 C 1036.214844 343.714844 1026.714844 353.214844 1015 353.214844 C 1003.285156 353.214844 993.785156 343.714844 993.785156 332 C 993.785156 320.285156 1003.285156 310.785156 1015 310.785156 C 1026.714844 310.785156 1036.214844 320.285156 1036.214844 332 "/>
<path style="fill-rule:nonzero;fill:rgb(55%,51%,53%);fill-opacity:1;stroke-width:1;stroke-linecap:butt;stroke-linejoin:miter;stroke:rgb(0%,0%,0%);stroke-opacity:1;stroke-miterlimit:10;" d="M 765.785156 241.785156 L 765.785156 284.214844 L 808.214844 284.214844 L 808.214844 241.785156 L 765.785156 241.785156 "/>
</g>
</svg>
