<?xml version="1.0" encoding="UTF-8"?>
<svg xmlns="http://www.w3.org/2000/svg" xmlns:xlink="http://www.w3.org/1999/xlink" width="1179pt" height="517pt" viewBox="0 0 1179 517" version="1.1">
<g id="surface1131">
<rect x="0" y="0" width="1179" height="517" style="fill:rgb(90%,90%,90%);fill-opacity:1;stroke:none;"/>
<path style="fill-rule:nonzero;fill:rgb(100%,51%,0%);fill-opacity:1;stroke-width:1;stroke-linecap:butt;stroke-linejoin:miter;stroke:rgb(0%,0%,0%);stroke-opacity:1;stroke-miterlimit:10;" d="M 498 277 L 527.664062 277 L 539.664062 248.785156 L 551.664062 277 L 581.332031 277 L 557.332031 294.4375 L 565.417969 325.980469 L 539.664062 308.542969 L 513.914062 325.980469 L 526.214844 294.4375 L 498 277 "/>
<path style="fill-rule:nonzero;fill:rgb(100%,51%,0%);fill-opacity:1;stroke-width:1;stroke-linecap:butt;stroke-linejoin:miter;stroke:rgb(0%,0%,0%);stroke-opacity:1;stroke-miterlimit:10;" d="M 100 81 L 129.664062 81 L 141.664062 52.785156 L 153.664062 81 L 183.332031 81 L 159.332031 98.4375 L 167.417969 129.980469 L 141.664062 112.542969 L 115.914062 129.980469 L 128.214844 98.4375 L 100 81 "/>
<path style="fill-rule:nonzero;fill:rgb(100%,51%,0%);fill-opacity:1;stroke-width:1;stroke-linecap:butt;stroke-linejoin:miter;stroke:rgb(0%,0%,0%);stroke-opacity:1;stroke-miterlimit:10;" d="M 257 430 L 286.664062 430 L 298.664062 401.785156 L 310.664062 430 L 340.332031 430 L 316.332031 447.4375 L 324.417969 478.980469 L 298.664062 461.542969 L 272.914062 478.980469 L 285.214844 447.4375 L 257 430 "/>
<path style="fill-rule:nonzero;fill:rgb(100%,51%,0%);fill-opacity:1;stroke-width:1;stroke-linecap:butt;stroke-linejoin:miter;stroke:rgb(0%,0%,0%);stroke-opacity:1;stroke-miterlimit:10;" d="M 846 184 L 875.664062 184 L 887.664062 155.785156 L 899.664062 184 L 929.332031 184 L 905.332031 201.4375 L 913.417969 232.980469 L 887.664062 215.542969 L 861.914062 232.980469 L 874.214844 201.4375 L 846 184 "/>
<path style="fill-rule:nonzero;fill:rgb(55%,51%,53%);fill-opacity:1;stroke-width:1;stroke-linecap:butt;stroke-linejoin:miter;stroke:rgb(0%,0%,0%);stroke-opacity:1;stroke-miterlimit:10;" d="M 1065.214844 271 C 1065.214844 282.714844 1055.714844 292.214844 1044 292.214844 C 1032.285156 292.214844 1022.785156 282.714844 1022.785156 271 C 1022.785156 259.285156 1032.285156 249.785156 1044 249.785156 C 1055.714844 249.785156 1065.214844 259.285156 1065.214844 271 "/>
<path style="fill-rule:nonzero;fill:rgb(55%,51%,53%);fill-opacity:1;stroke-width:1;stroke-linecap:butt;stroke-linejoin:miter;stroke:rgb(0%,0%,0%);stroke-opacity:1;stroke-miterlimit:10;" d="M 732.214844 414 C 732.214844 425.714844 722.714844 435.214844 711 435.214844 C 699.285156 435.214844 689.785156 425.714844 689.785156 414 C 689.785156 402.285156 699.285156 392.785156 711 392.785156 C 722.714844 392.785156 732.214844 402.285156 732.214844 414 "/>
<path style="fill-rule:nonzero;fill:rgb(55%,51%,53%);fill-opacity:1;stroke-width:1;stroke-linecap:butt;stroke-linejoin:miter;stroke:rgb(0%,0%,0%);stroke-opacity:1;stroke-miterlimit:10;" d="M 699.214844 141 C 699.214844 152.714844 689.714844 162.214844 678 162.214844 C 666.285156 162.214844 656.785156 152.714844 656.785156 141 C 656.785156 129.285156 666.285156 119.785156 678 119.785156 C 689.714844 119.785156 699.214844 129.285156 699.214844 141 "/>
<path style="fill-rule:nonzero;fill:rgb(55%,51%,53%);fill-opacity:1;stroke-width:1;stroke-linecap:butt;stroke-linejoin:miter;stroke:rgb(0%,0%,0%);stroke-opacity:1;stroke-miterlimit:10;" d="M 735.214844 264 C 735.214844 275.714844 725.714844 285.214844 714 285.214844 C 702.285156 285.214844 692.785156 275.714844 692.785156 264 C 692.785156 252.285156 702.285156 242.785156 714 242.785156 C 725.714844 242.785156 735.214844 252.285156 735.214844 264 "/>
<path style="fill-rule:nonzero;fill:rgb(55%,51%,53%);fill-opacity:1;stroke-width:1;stroke-linecap:butt;stroke-linejoin:miter;stroke:rgb(0%,0%,0%);stroke-opacity:1;stroke-miterlimit:10;" d="M 479.214844 395 C 479.214844 406.714844 469.714844 416.214844 458 416.214844 C 446.285156 416.214844 436.785156 406.714844 436.785156 395 C 436.785156 383.285156 446.285156 373.785156 458 373.785156 C 469.714844 373.785156 479.214844 383.285156 479.214844 395 "/>
</g>
</svg>
