<?xml version="1.0" encoding="UTF-8"?>
<svg xmlns="http://www.w3.org/2000/svg" xmlns:xlink="http://www.w3.org/1999/xlink" width="1179pt" height="517pt" viewBox="0 0 1179 517" version="1.1">
<g id="surface646">
<rect x="0" y="0" width="1179" height="517" style="fill:rgb(90%,90%,90%);fill-opacity:1;stroke:none;"/>
<path style="fill-rule:nonzero;fill:rgb(100%,51%,0%);fill-opacity:1;stroke-width:1;stroke-linecap:butt;stroke-linejoin:miter;stroke:rgb(0%,0%,0%);stroke-opacity:1;stroke-miterlimit:10;" d="M 343.214844 133 C 343.214844 144.714844 333.714844 154.214844 322 154.214844 C 310.285156 154.214844 300.785156 144.714844 300.785156 133 C 300.785156 121.285156 310.285156 111.785156 322 111.785156 C 333.714844 111.785156 343.214844 121.285156 343.214844 133 "/>
<path style="fill-rule:nonzero;fill:rgb(100%,51%,0%);fill-opacity:1;stroke-width:1;stroke-linecap:butt;stroke-linejoin:miter;stroke:rgb(0%,0%,0%);stroke-opacity:1;stroke-miterlimit:10;" d="M 448.214844 166 C 448.214844 177.714844 438.714844 187.214844 427 187.214844 C 415.285156 187.214844 405.785156 177.714844 405.785156 166 C 405.785156 154.285156 415.285156 144.785156 427 144.785156 C 438.714844 144.785156 448.214844 154.285156 448.214844 166 "/>
<path style="fill-rule:nonzero;fill:rgb(53%,27%,7%);fill-opacity:1;stroke-width:1;stroke-linecap:butt;stroke-linejoin:miter;stroke:rgb(0%,0%,0%);stroke-opacity:1;stroke-miterlimit:10;" d="M 119.214844 248 C 119.214844 259.714844 109.714844 269.214844 98 269.214844 C 86.285156 269.214844 76.785156 259.714844 76.785156 248 C 76.785156 236.285156 86.285156 226.785156 98 226.785156 C 109.714844 226.785156 119.214844 236.285156 119.214844 248 "/>
<path style="fill-rule:nonzero;fill:rgb(53%,27%,7%);fill-opacity:1;stroke-width:1;stroke-linecap:butt;stroke-linejoin:miter;stroke:rgb(0%,0%,0%);stroke-opacity:1;stroke-miterlimit:10;" d="M 176.214844 345 C 176.214844 356.714844 166.714844 366.214844 155 366.214844 C 143.285156 366.214844 133.785156 356.714844 133.785156 345 C 133.785156 333.285156 143.285156 323.785156 155 323.785156 C 166.714844 323.785156 176.214844 333.285156 176.214844 345 "/>
<path style="fill-rule:nonzero;fill:rgb(100%,51%,0%);fill-opacity:1;stroke-width:1;stroke-linecap:butt;stroke-linejoin:miter;stroke:rgb(0%,0%,0%);stroke-opacity:1;stroke-miterlimit:10;" d="M 412.214844 256 C 412.214844 267.714844 402.714844 277.214844 391 277.214844 C 379.285156 277.214844 369.785156 267.714844 369.785156 256 C 369.785156 244.285156 379.285156 234.785156 391 234.785156 C 402.714844 234.785156 412.214844 244.285156 412.214844 256 "/>
<path style="fill-rule:nonzero;fill:rgb(100%,51%,0%);fill-opacity:1;stroke-width:1;stroke-linecap:butt;stroke-linejoin:miter;stroke:rgb(0%,0%,0%);stroke-opacity:1;stroke-miterlimit:10;" d="M 442.214844 406 C 442.214844 417.714844 432.714844 427.214844 421 427.214844 C 409.285156 427.214844 399.785156 417.714844 399.785156 406 C 399.785156 394.285156 409.285156 384.785156 421 384.785156 C 432.714844 384.785156 442.214844 394.285156 442.214844 406 "/>
<path style="fill-rule:nonzero;fill:rgb(100%,51%,0%);fill-opacity:1;stroke-width:1;stroke-linecap:butt;stroke-linejoin:miter;stroke:rgb(0%,0%,0%);stroke-opacity:1;stroke-miterlimit:10;" d="M 267.214844 356 C 267.214844 367.714844 257.714844 377.214844 246 377.214844 C 234.285156 377.214844 224.785156 367.714844 224.785156 356 C 224.785156 344.285156 234.285156 334.785156 246 334.785156 C 257.714844 334.785156 267.214844 344.285156 267.214844 356 "/>
<path style="fill-rule:nonzero;fill:rgb(100%,51%,0%);fill-opacity:1;stroke-width:1;stroke-linecap:butt;stroke-linejoin:miter;stroke:rgb(0%,0%,0%);stroke-opacity:1;stroke-miterlimit:10;" d="M 216.214844 124 C 216.214844 135.714844 206.714844 145.214844 195 145.214844 C 183.285156 145.214844 173.785156 135.714844 173.785156 124 C 173.785156 112.285156 183.285156 102.785156 195 102.785156 C 206.714844 102.785156 216.214844 112.285156 216.214844 124 "/>
<path style="fill-rule:nonzero;fill:rgb(53%,27%,7%);fill-opacity:1;stroke-width:1;stroke-linecap:butt;stroke-linejoin:miter;stroke:rgb(0%,0%,0%);stroke-opacity:1;stroke-miterlimit:10;" d="M 772 331 L 746.019531 376 L 797.980469 376 L 772 331 "/>
<path style="fill-rule:nonzero;fill:rgb(53%,27%,7%);fill-opacity:1;stroke-width:1;stroke-linecap:butt;stroke-linejoin:miter;stroke:rgb(0%,0%,0%);stroke-opacity:1;stroke-miterlimit:10;" d="M 969 391 L 943.019531 436 L 994.980469 436 L 969 391 "/>
<path style="fill-rule:nonzero;fill:rgb(100%,51%,0%);fill-opacity:1;stroke-width:1;stroke-linecap:butt;stroke-linejoin:miter;stroke:rgb(0%,0%,0%);stroke-opacity:1;stroke-miterlimit:10;" d="M 709 93 L 683.019531 138 L 734.980469 138 L 709 93 "/>
<path style="fill-rule:nonzero;fill:rgb(100%,51%,0%);fill-opacity:1;stroke-width:1;stroke-linecap:butt;stroke-linejoin:miter;stroke:rgb(0%,0%,0%);stroke-opacity:1;stroke-miterlimit:10;" d="M 986 74 L 960.019531 119 L 1011.980469 119 L 986 74 "/>
</g>
</svg>
