<?xml version="1.0" encoding="UTF-8"?>
<svg xmlns="http://www.w3.org/2000/svg" xmlns:xlink="http://www.w3.org/1999/xlink" width="1179pt" height="517pt" viewBox="0 0 1179 517" version="1.1">
<g id="surface1466">
<rect x="0" y="0" width="1179" height="517" style="fill:rgb(90%,90%,90%);fill-opacity:1;stroke:none;"/>
<path style="fill-rule:nonzero;fill:rgb(55%,51%,53%);fill-opacity:1;stroke-width:1;stroke-linecap:butt;stroke-linejoin:miter;stroke:rgb(0%,0%,0%);stroke-opacity:1;stroke-miterlimit:10;" d="M 1029 91.601562 C 1029 77.199219 1005 77.199219 1005 91.601562 C 1005 106 1029 108.398438 1029 120.398438 C 1029 108.398438 1053 106 1053 91.601562 C 1053 77.199219 1029 77.199219 1029 91.601562 "/>
<path style="fill-rule:nonzero;fill:rgb(55%,51%,53%);fill-opacity:1;stroke-width:1;stroke-linecap:butt;stroke-linejoin:miter;stroke:rgb(0%,0%,0%);stroke-opacity:1;stroke-miterlimit:10;" d="M 119 314.601562 C 119 300.199219 95 300.199219 95 314.601562 C 95 329 119 331.398438 119 343.398438 C 119 331.398438 143 329 143 314.601562 C 143 300.199219 119 300.199219 119 314.601562 "/>
<path style="fill-rule:nonzero;fill:rgb(55%,51%,53%);fill-opacity:1;stroke-width:1;stroke-linecap:butt;stroke-linejoin:miter;stroke:rgb(0%,0%,0%);stroke-opacity:1;stroke-miterlimit:10;" d="M 836 207.601562 C 836 193.199219 812 193.199219 812 207.601562 C 812 222 836 224.398438 836 236.398438 C 836 224.398438 860 222 860 207.601562 C 860 193.199219 836 193.199219 836 207.601562 "/>
<path style="fill-rule:nonzero;fill:rgb(55%,51%,53%);fill-opacity:1;stroke-width:1;stroke-linecap:butt;stroke-linejoin:miter;stroke:rgb(0%,0%,0%);stroke-opacity:1;stroke-miterlimit:10;" d="M 530 234.601562 C 530 220.199219 506 220.199219 506 234.601562 C 506 249 530 251.398438 530 263.398438 C 530 251.398438 554 249 554 234.601562 C 554 220.199219 530 220.199219 530 234.601562 "/>
<path style="fill-rule:nonzero;fill:rgb(53%,27%,7%);fill-opacity:1;stroke-width:1;stroke-linecap:butt;stroke-linejoin:miter;stroke:rgb(0%,0%,0%);stroke-opacity:1;stroke-miterlimit:10;" d="M 187 226 L 216.664062 226 L 228.664062 197.785156 L 240.664062 226 L 270.332031 226 L 246.332031 243.4375 L 254.417969 274.980469 L 228.664062 257.542969 L 202.914062 274.980469 L 215.214844 243.4375 L 187 226 "/>
<path style="fill-rule:nonzero;fill:rgb(53%,27%,7%);fill-opacity:1;stroke-width:1;stroke-linecap:butt;stroke-linejoin:miter;stroke:rgb(0%,0%,0%);stroke-opacity:1;stroke-miterlimit:10;" d="M 977 406 L 1006.664062 406 L 1018.664062 377.785156 L 1030.664062 406 L 1060.332031 406 L 1036.332031 423.4375 L 1044.417969 454.980469 L 1018.664062 437.542969 L 992.914062 454.980469 L 1005.214844 423.4375 L 977 406 "/>
<path style="fill-rule:nonzero;fill:rgb(53%,27%,7%);fill-opacity:1;stroke-width:1;stroke-linecap:butt;stroke-linejoin:miter;stroke:rgb(0%,0%,0%);stroke-opacity:1;stroke-miterlimit:10;" d="M 707 212 L 736.664062 212 L 748.664062 183.785156 L 760.664062 212 L 790.332031 212 L 766.332031 229.4375 L 774.417969 260.980469 L 748.664062 243.542969 L 722.914062 260.980469 L 735.214844 229.4375 L 707 212 "/>
<path style="fill-rule:nonzero;fill:rgb(53%,27%,7%);fill-opacity:1;stroke-width:1;stroke-linecap:butt;stroke-linejoin:miter;stroke:rgb(0%,0%,0%);stroke-opacity:1;stroke-miterlimit:10;" d="M 548 392 L 577.664062 392 L 589.664062 363.785156 L 601.664062 392 L 631.332031 392 L 607.332031 409.4375 L 615.417969 440.980469 L 589.664062 423.542969 L 563.914062 440.980469 L 576.214844 409.4375 L 548 392 "/>
</g>
</svg>
