<?xml version="1.0" encoding="UTF-8"?>
<svg xmlns="http://www.w3.org/2000/svg" xmlns:xlink="http://www.w3.org/1999/xlink" width="1179pt" height="517pt" viewBox="0 0 1179 517" version="1.1">
<g id="surface1251">
<rect x="0" y="0" width="1179" height="517" style="fill:rgb(90%,90%,90%);fill-opacity:1;stroke:none;"/>
<path style="fill-rule:nonzero;fill:rgb(55%,51%,53%);fill-opacity:1;stroke-width:1;stroke-linecap:butt;stroke-linejoin:miter;stroke:rgb(0%,0%,0%);stroke-opacity:1;stroke-miterlimit:10;" d="M 419 89 L 448.664062 89 L 460.664062 60.785156 L 472.664062 89 L 502.332031 89 L 478.332031 106.4375 L 486.417969 137.980469 L 460.664062 120.542969 L 434.914062 137.980469 L 447.214844 106.4375 L 419 89 "/>
<path style="fill-rule:nonzero;fill:rgb(55%,51%,53%);fill-opacity:1;stroke-width:1;stroke-linecap:butt;stroke-linejoin:miter;stroke:rgb(0%,0%,0%);stroke-opacity:1;stroke-miterlimit:10;" d="M 684 215 L 713.664062 215 L 725.664062 186.785156 L 737.664062 215 L 767.332031 215 L 743.332031 232.4375 L 751.417969 263.980469 L 725.664062 246.542969 L 699.914062 263.980469 L 712.214844 232.4375 L 684 215 "/>
<path style="fill-rule:nonzero;fill:rgb(55%,51%,53%);fill-opacity:1;stroke-width:1;stroke-linecap:butt;stroke-linejoin:miter;stroke:rgb(0%,0%,0%);stroke-opacity:1;stroke-miterlimit:10;" d="M 402 384 L 431.664062 384 L 443.664062 355.785156 L 455.664062 384 L 485.332031 384 L 461.332031 401.4375 L 469.417969 432.980469 L 443.664062 415.542969 L 417.914062 432.980469 L 430.214844 401.4375 L 402 384 "/>
<path style="fill-rule:nonzero;fill:rgb(55%,51%,53%);fill-opacity:1;stroke-width:1;stroke-linecap:butt;stroke-linejoin:miter;stroke:rgb(0%,0%,0%);stroke-opacity:1;stroke-miterlimit:10;" d="M 143 82 L 172.664062 82 L 184.664062 53.785156 L 196.664062 82 L 226.332031 82 L 202.332031 99.4375 L 210.417969 130.980469 L 184.664062 113.542969 L 158.914062 130.980469 L 171.214844 99.4375 L 143 82 "/>
<path style="fill-rule:nonzero;fill:rgb(100%,51%,0%);fill-opacity:1;stroke-width:1;stroke-linecap:butt;stroke-linejoin:miter;stroke:rgb(0%,0%,0%);stroke-opacity:1;stroke-miterlimit:10;" d="M 946.214844 336 C 946.214844 347.714844 936.714844 357.214844 925 357.214844 C 913.285156 357.214844 903.785156 347.714844 903.785156 336 C 903.785156 324.285156 913.285156 314.785156 925 314.785156 C 936.714844 314.785156 946.214844 324.285156 946.214844 336 "/>
<path style="fill-rule:nonzero;fill:rgb(100%,51%,0%);fill-opacity:1;stroke-width:1;stroke-linecap:butt;stroke-linejoin:miter;stroke:rgb(0%,0%,0%);stroke-opacity:1;stroke-miterlimit:10;" d="M 869.214844 101 C 869.214844 112.714844 859.714844 122.214844 848 122.214844 C 836.285156 122.214844 826.785156 112.714844 826.785156 101 C 826.785156 89.285156 836.285156 79.785156 848 79.785156 C 859.714844 79.785156 869.214844 89.285156 869.214844 101 "/>
<path style="fill-rule:nonzero;fill:rgb(100%,51%,0%);fill-opacity:1;stroke-width:1;stroke-linecap:butt;stroke-linejoin:miter;stroke:rgb(0%,0%,0%);stroke-opacity:1;stroke-miterlimit:10;" d="M 103.214844 281 C 103.214844 292.714844 93.714844 302.214844 82 302.214844 C 70.285156 302.214844 60.785156 292.714844 60.785156 281 C 60.785156 269.285156 70.285156 259.785156 82 259.785156 C 93.714844 259.785156 103.214844 269.285156 103.214844 281 "/>
<path style="fill-rule:nonzero;fill:rgb(100%,51%,0%);fill-opacity:1;stroke-width:1;stroke-linecap:butt;stroke-linejoin:miter;stroke:rgb(0%,0%,0%);stroke-opacity:1;stroke-miterlimit:10;" d="M 432.214844 218 C 432.214844 229.714844 422.714844 239.214844 411 239.214844 C 399.285156 239.214844 389.785156 229.714844 389.785156 218 C 389.785156 206.285156 399.285156 196.785156 411 196.785156 C 422.714844 196.785156 432.214844 206.285156 432.214844 218 "/>
<path style="fill-rule:nonzero;fill:rgb(100%,51%,0%);fill-opacity:1;stroke-width:1;stroke-linecap:butt;stroke-linejoin:miter;stroke:rgb(0%,0%,0%);stroke-opacity:1;stroke-miterlimit:10;" d="M 1045.214844 171 C 1045.214844 182.714844 1035.714844 192.214844 1024 192.214844 C 1012.285156 192.214844 1002.785156 182.714844 1002.785156 171 C 1002.785156 159.285156 1012.285156 149.785156 1024 149.785156 C 1035.714844 149.785156 1045.214844 159.285156 1045.214844 171 "/>
</g>
</svg>
