<?xml version="1.0" encoding="UTF-8"?>
<svg xmlns="http://www.w3.org/2000/svg" xmlns:xlink="http://www.w3.org/1999/xlink" width="1179pt" height="517pt" viewBox="0 0 1179 517" version="1.1">
<g id="surface781">
<rect x="0" y="0" width="1179" height="517" style="fill:rgb(90%,90%,90%);fill-opacity:1;stroke:none;"/>
<path style="fill-rule:nonzero;fill:rgb(53%,27%,7%);fill-opacity:1;stroke-width:1;stroke-linecap:butt;stroke-linejoin:miter;stroke:rgb(0%,0%,0%);stroke-opacity:1;stroke-miterlimit:10;" d="M 675 150 L 704.664062 150 L 716.664062 121.785156 L 728.664062 150 L 758.332031 150 L 734.332031 167.4375 L 742.417969 198.980469 L 716.664062 181.542969 L 690.914062 198.980469 L 703.214844 167.4375 L 675 150 "/>
<path style="fill-rule:nonzero;fill:rgb(53%,27%,7%);fill-opacity:1;stroke-width:1;stroke-linecap:butt;stroke-linejoin:miter;stroke:rgb(0%,0%,0%);stroke-opacity:1;stroke-miterlimit:10;" d="M 935 300 L 964.664062 300 L 976.664062 271.785156 L 988.664062 300 L 1018.332031 300 L 994.332031 317.4375 L 1002.417969 348.980469 L 976.664062 331.542969 L 950.914062 348.980469 L 963.214844 317.4375 L 935 300 "/>
<path style="fill-rule:nonzero;fill:rgb(53%,27%,7%);fill-opacity:1;stroke-width:1;stroke-linecap:butt;stroke-linejoin:miter;stroke:rgb(0%,0%,0%);stroke-opacity:1;stroke-miterlimit:10;" d="M 587 386 L 616.664062 386 L 628.664062 357.785156 L 640.664062 386 L 670.332031 386 L 646.332031 403.4375 L 654.417969 434.980469 L 628.664062 417.542969 L 602.914062 434.980469 L 615.214844 403.4375 L 587 386 "/>
<path style="fill-rule:nonzero;fill:rgb(55%,51%,53%);fill-opacity:1;stroke-width:1;stroke-linecap:butt;stroke-linejoin:miter;stroke:rgb(0%,0%,0%);stroke-opacity:1;stroke-miterlimit:10;" d="M 441 282 L 470.664062 282 L 482.664062 253.785156 L 494.664062 282 L 524.332031 282 L 500.332031 299.4375 L 508.417969 330.980469 L 482.664062 313.542969 L 456.914062 330.980469 L 469.214844 299.4375 L 441 282 "/>
<path style="fill-rule:nonzero;fill:rgb(55%,51%,53%);fill-opacity:1;stroke-width:1;stroke-linecap:butt;stroke-linejoin:miter;stroke:rgb(0%,0%,0%);stroke-opacity:1;stroke-miterlimit:10;" d="M 859 169 L 888.664062 169 L 900.664062 140.785156 L 912.664062 169 L 942.332031 169 L 918.332031 186.4375 L 926.417969 217.980469 L 900.664062 200.542969 L 874.914062 217.980469 L 887.214844 186.4375 L 859 169 "/>
<path style="fill-rule:nonzero;fill:rgb(55%,51%,53%);fill-opacity:1;stroke-width:1;stroke-linecap:butt;stroke-linejoin:miter;stroke:rgb(0%,0%,0%);stroke-opacity:1;stroke-miterlimit:10;" d="M 331 83 L 360.664062 83 L 372.664062 54.785156 L 384.664062 83 L 414.332031 83 L 390.332031 100.4375 L 398.417969 131.980469 L 372.664062 114.542969 L 346.914062 131.980469 L 359.214844 100.4375 L 331 83 "/>
<path style="fill-rule:nonzero;fill:rgb(55%,51%,53%);fill-opacity:1;stroke-width:1;stroke-linecap:butt;stroke-linejoin:miter;stroke:rgb(0%,0%,0%);stroke-opacity:1;stroke-miterlimit:10;" d="M 110 180 L 139.664062 180 L 151.664062 151.785156 L 163.664062 180 L 193.332031 180 L 169.332031 197.4375 L 177.417969 228.980469 L 151.664062 211.542969 L 125.914062 228.980469 L 138.214844 197.4375 L 110 180 "/>
<path style="fill-rule:nonzero;fill:rgb(55%,51%,53%);fill-opacity:1;stroke-width:1;stroke-linecap:butt;stroke-linejoin:miter;stroke:rgb(0%,0%,0%);stroke-opacity:1;stroke-miterlimit:10;" d="M 513 140 L 542.664062 140 L 554.664062 111.785156 L 566.664062 140 L 596.332031 140 L 572.332031 157.4375 L 580.417969 188.980469 L 554.664062 171.542969 L 528.914062 188.980469 L 541.214844 157.4375 L 513 140 "/>
</g>
</svg>
