<?xml version="1.0" encoding="UTF-8"?>
<svg xmlns="http://www.w3.org/2000/svg" xmlns:xlink="http://www.w3.org/1999/xlink" width="1179pt" height="517pt" viewBox="0 0 1179 517" version="1.1">
<g id="surface491">
<rect x="0" y="0" width="1179" height="517" style="fill:rgb(90%,90%,90%);fill-opacity:1;stroke:none;"/>
<path style="fill-rule:nonzero;fill:rgb(100%,51%,0%);fill-opacity:1;stroke-width:1;stroke-linecap:butt;stroke-linejoin:miter;stroke:rgb(0%,0%,0%);stroke-opacity:1;stroke-miterlimit:10;" d="M 241 95 L 270.664062 95 L 282.664062 66.785156 L 294.664062 95 L 324.332031 95 L 300.332031 112.4375 L 308.417969 143.980469 L 282.664062 126.542969 L 256.914062 143.980469 L 269.214844 112.4375 L 241 95 "/>
<path style="fill-rule:nonzero;fill:rgb(100%,51%,0%);fill-opacity:1;stroke-width:1;stroke-linecap:butt;stroke-linejoin:miter;stroke:rgb(0%,0%,0%);stroke-opacity:1;stroke-miterlimit:10;" d="M 118.785156 393.785156 L 118.785156 436.214844 L 161.214844 436.214844 L 161.214844 393.785156 L 118.785156 393.785156 "/>
<path style="fill-rule:nonzero;fill:rgb(100%,51%,0%);fill-opacity:1;stroke-width:1;stroke-linecap:butt;stroke-linejoin:miter;stroke:rgb(0%,0%,0%);stroke-opacity:1;stroke-miterlimit:10;" d="M 288.785156 324.785156 L 288.785156 367.214844 L 331.214844 367.214844 L 331.214844 324.785156 L 288.785156 324.785156 "/>
<path style="fill-rule:nonzero;fill:rgb(100%,51%,0%);fill-opacity:1;stroke-width:1;stroke-linecap:butt;stroke-linejoin:miter;stroke:rgb(0%,0%,0%);stroke-opacity:1;stroke-miterlimit:10;" d="M 183 205 L 212.664062 205 L 224.664062 176.785156 L 236.664062 205 L 266.332031 205 L 242.332031 222.4375 L 250.417969 253.980469 L 224.664062 236.542969 L 198.914062 253.980469 L 211.214844 222.4375 L 183 205 "/>
<path style="fill-rule:nonzero;fill:rgb(100%,51%,0%);fill-opacity:1;stroke-width:1;stroke-linecap:butt;stroke-linejoin:miter;stroke:rgb(0%,0%,0%);stroke-opacity:1;stroke-miterlimit:10;" d="M 361 177 L 390.664062 177 L 402.664062 148.785156 L 414.664062 177 L 444.332031 177 L 420.332031 194.4375 L 428.417969 225.980469 L 402.664062 208.542969 L 376.914062 225.980469 L 389.214844 194.4375 L 361 177 "/>
<path style="fill-rule:nonzero;fill:rgb(55%,51%,53%);fill-opacity:1;stroke-width:1;stroke-linecap:butt;stroke-linejoin:miter;stroke:rgb(0%,0%,0%);stroke-opacity:1;stroke-miterlimit:10;" d="M 876.785156 374.785156 L 876.785156 417.214844 L 919.214844 417.214844 L 919.214844 374.785156 L 876.785156 374.785156 "/>
<path style="fill-rule:nonzero;fill:rgb(55%,51%,53%);fill-opacity:1;stroke-width:1;stroke-linecap:butt;stroke-linejoin:miter;stroke:rgb(0%,0%,0%);stroke-opacity:1;stroke-miterlimit:10;" d="M 852 274 L 881.664062 274 L 893.664062 245.785156 L 905.664062 274 L 935.332031 274 L 911.332031 291.4375 L 919.417969 322.980469 L 893.664062 305.542969 L 867.914062 322.980469 L 880.214844 291.4375 L 852 274 "/>
<path style="fill-rule:nonzero;fill:rgb(55%,51%,53%);fill-opacity:1;stroke-width:1;stroke-linecap:butt;stroke-linejoin:miter;stroke:rgb(0%,0%,0%);stroke-opacity:1;stroke-miterlimit:10;" d="M 763 226 L 792.664062 226 L 804.664062 197.785156 L 816.664062 226 L 846.332031 226 L 822.332031 243.4375 L 830.417969 274.980469 L 804.664062 257.542969 L 778.914062 274.980469 L 791.214844 243.4375 L 763 226 "/>
<path style="fill-rule:nonzero;fill:rgb(55%,51%,53%);fill-opacity:1;stroke-width:1;stroke-linecap:butt;stroke-linejoin:miter;stroke:rgb(0%,0%,0%);stroke-opacity:1;stroke-miterlimit:10;" d="M 987.785156 368.785156 L 987.785156 411.214844 L 1030.214844 411.214844 L 1030.214844 368.785156 L 987.785156 368.785156 "/>
<path style="fill-rule:nonzero;fill:rgb(55%,51%,53%);fill-opacity:1;stroke-width:1;stroke-linecap:butt;stroke-linejoin:miter;stroke:rgb(0%,0%,0%);stroke-opacity:1;stroke-miterlimit:10;" d="M 1009.785156 96.785156 L 1009.785156 139.214844 L 1052.214844 139.214844 L 1052.214844 96.785156 L 1009.785156 96.785156 "/>
</g>
</svg>
