<?xml version="1.0" encoding="UTF-8"?>
<svg xmlns="http://www.w3.org/2000/svg" xmlns:xlink="http://www.w3.org/1999/xlink" width="1179pt" height="517pt" viewBox="0 0 1179 517" version="1.1">
<g id="surface1371">
<rect x="0" y="0" width="1179" height="517" style="fill:rgb(90%,90%,90%);fill-opacity:1;stroke:none;"/>
<path style="fill-rule:nonzero;fill:rgb(35%,70%,90%);fill-opacity:1;stroke-width:1;stroke-linecap:butt;stroke-linejoin:miter;stroke:rgb(0%,0%,0%);stroke-opacity:1;stroke-miterlimit:10;" d="M 549.214844 91 C 549.214844 102.714844 539.714844 112.214844 528 112.214844 C 516.285156 112.214844 506.785156 102.714844 506.785156 91 C 506.785156 79.285156 516.285156 69.785156 528 69.785156 C 539.714844 69.785156 549.214844 79.285156 549.214844 91 "/>
<path style="fill-rule:nonzero;fill:rgb(35%,70%,90%);fill-opacity:1;stroke-width:1;stroke-linecap:butt;stroke-linejoin:miter;stroke:rgb(0%,0%,0%);stroke-opacity:1;stroke-miterlimit:10;" d="M 159.214844 274 C 159.214844 285.714844 149.714844 295.214844 138 295.214844 C 126.285156 295.214844 116.785156 285.714844 116.785156 274 C 116.785156 262.285156 126.285156 252.785156 138 252.785156 C 149.714844 252.785156 159.214844 262.285156 159.214844 274 "/>
<path style="fill-rule:nonzero;fill:rgb(35%,70%,90%);fill-opacity:1;stroke-width:1;stroke-linecap:butt;stroke-linejoin:miter;stroke:rgb(0%,0%,0%);stroke-opacity:1;stroke-miterlimit:10;" d="M 301.214844 415 C 301.214844 426.714844 291.714844 436.214844 280 436.214844 C 268.285156 436.214844 258.785156 426.714844 258.785156 415 C 258.785156 403.285156 268.285156 393.785156 280 393.785156 C 291.714844 393.785156 301.214844 403.285156 301.214844 415 "/>
<path style="fill-rule:nonzero;fill:rgb(35%,70%,90%);fill-opacity:1;stroke-width:1;stroke-linecap:butt;stroke-linejoin:miter;stroke:rgb(0%,0%,0%);stroke-opacity:1;stroke-miterlimit:10;" d="M 1041.214844 366 C 1041.214844 377.714844 1031.714844 387.214844 1020 387.214844 C 1008.285156 387.214844 998.785156 377.714844 998.785156 366 C 998.785156 354.285156 1008.285156 344.785156 1020 344.785156 C 1031.714844 344.785156 1041.214844 354.285156 1041.214844 366 "/>
<path style="fill-rule:nonzero;fill:rgb(100%,51%,0%);fill-opacity:1;stroke-width:1;stroke-linecap:butt;stroke-linejoin:miter;stroke:rgb(0%,0%,0%);stroke-opacity:1;stroke-miterlimit:10;" d="M 527 343 L 501.019531 388 L 552.980469 388 L 527 343 "/>
<path style="fill-rule:nonzero;fill:rgb(100%,51%,0%);fill-opacity:1;stroke-width:1;stroke-linecap:butt;stroke-linejoin:miter;stroke:rgb(0%,0%,0%);stroke-opacity:1;stroke-miterlimit:10;" d="M 88 356 L 62.019531 401 L 113.980469 401 L 88 356 "/>
<path style="fill-rule:nonzero;fill:rgb(100%,51%,0%);fill-opacity:1;stroke-width:1;stroke-linecap:butt;stroke-linejoin:miter;stroke:rgb(0%,0%,0%);stroke-opacity:1;stroke-miterlimit:10;" d="M 850 400 L 824.019531 445 L 875.980469 445 L 850 400 "/>
<path style="fill-rule:nonzero;fill:rgb(100%,51%,0%);fill-opacity:1;stroke-width:1;stroke-linecap:butt;stroke-linejoin:miter;stroke:rgb(0%,0%,0%);stroke-opacity:1;stroke-miterlimit:10;" d="M 961 172 L 935.019531 217 L 986.980469 217 L 961 172 "/>
</g>
</svg>
