<?xml version="1.0" encoding="UTF-8"?>
<svg xmlns="http://www.w3.org/2000/svg" xmlns:xlink="http://www.w3.org/1999/xlink" width="1179pt" height="517pt" viewBox="0 0 1179 517" version="1.1">
<g id="surface491">
<rect x="0" y="0" width="1179" height="517" style="fill:rgb(90%,90%,90%);fill-opacity:1;stroke:none;"/>
<path style="fill-rule:nonzero;fill:rgb(100%,51%,0%);fill-opacity:1;stroke-width:1;stroke-linecap:butt;stroke-linejoin:miter;stroke:rgb(0%,0%,0%);stroke-opacity:1;stroke-miterlimit:10;" d="M 148 255 L 177.664062 255 L 189.664062 226.785156 L 201.664062 255 L 231.332031 255 L 207.332031 272.4375 L 215.417969 303.980469 L 189.664062 286.542969 L 163.914062 303.980469 L 176.214844 272.4375 L 148 255 "/>
<path style="fill-rule:nonzero;fill:rgb(100%,51%,0%);fill-opacity:1;stroke-width:1;stroke-linecap:butt;stroke-linejoin:miter;stroke:rgb(0%,0%,0%);stroke-opacity:1;stroke-miterlimit:10;" d="M 360 83 L 389.664062 83 L 401.664062 54.785156 L 413.664062 83 L 443.332031 83 L 419.332031 100.4375 L 427.417969 131.980469 L 401.664062 114.542969 L 375.914062 131.980469 L 388.214844 100.4375 L 360 83 "/>
<path style="fill-rule:nonzero;fill:rgb(100%,51%,0%);fill-opacity:1;stroke-width:1;stroke-linecap:butt;stroke-linejoin:miter;stroke:rgb(0%,0%,0%);stroke-opacity:1;stroke-miterlimit:10;" d="M 250.785156 378.785156 L 250.785156 421.214844 L 293.214844 421.214844 L 293.214844 378.785156 L 250.785156 378.785156 "/>
<path style="fill-rule:nonzero;fill:rgb(100%,51%,0%);fill-opacity:1;stroke-width:1;stroke-linecap:butt;stroke-linejoin:miter;stroke:rgb(0%,0%,0%);stroke-opacity:1;stroke-miterlimit:10;" d="M 136.785156 111.785156 L 136.785156 154.214844 L 179.214844 154.214844 L 179.214844 111.785156 L 136.785156 111.785156 "/>
<path style="fill-rule:nonzero;fill:rgb(100%,51%,0%);fill-opacity:1;stroke-width:1;stroke-linecap:butt;stroke-linejoin:miter;stroke:rgb(0%,0%,0%);stroke-opacity:1;stroke-miterlimit:10;" d="M 364 304 L 393.664062 304 L 405.664062 275.785156 L 417.664062 304 L 447.332031 304 L 423.332031 321.4375 L 431.417969 352.980469 L 405.664062 335.542969 L 379.914062 352.980469 L 392.214844 321.4375 L 364 304 "/>
<path style="fill-rule:nonzero;fill:rgb(55%,51%,53%);fill-opacity:1;stroke-width:1;stroke-linecap:butt;stroke-linejoin:miter;stroke:rgb(0%,0%,0%);stroke-opacity:1;stroke-miterlimit:10;" d="M 878.785156 318.785156 L 878.785156 361.214844 L 921.214844 361.214844 L 921.214844 318.785156 L 878.785156 318.785156 "/>
<path style="fill-rule:nonzero;fill:rgb(55%,51%,53%);fill-opacity:1;stroke-width:1;stroke-linecap:butt;stroke-linejoin:miter;stroke:rgb(0%,0%,0%);stroke-opacity:1;stroke-miterlimit:10;" d="M 977.785156 81.785156 L 977.785156 124.214844 L 1020.214844 124.214844 L 1020.214844 81.785156 L 977.785156 81.785156 "/>
<path style="fill-rule:nonzero;fill:rgb(55%,51%,53%);fill-opacity:1;stroke-width:1;stroke-linecap:butt;stroke-linejoin:miter;stroke:rgb(0%,0%,0%);stroke-opacity:1;stroke-miterlimit:10;" d="M 755 386 L 784.664062 386 L 796.664062 357.785156 L 808.664062 386 L 838.332031 386 L 814.332031 403.4375 L 822.417969 434.980469 L 796.664062 417.542969 L 770.914062 434.980469 L 783.214844 403.4375 L 755 386 "/>
<path style="fill-rule:nonzero;fill:rgb(55%,51%,53%);fill-opacity:1;stroke-width:1;stroke-linecap:butt;stroke-linejoin:miter;stroke:rgb(0%,0%,0%);stroke-opacity:1;stroke-miterlimit:10;" d="M 779 173 L 808.664062 173 L 820.664062 144.785156 L 832.664062 173 L 862.332031 173 L 838.332031 190.4375 L 846.417969 221.980469 L 820.664062 204.542969 L 794.914062 221.980469 L 807.214844 190.4375 L 779 173 "/>
<path style="fill-rule:nonzero;fill:rgb(55%,51%,53%);fill-opacity:1;stroke-width:1;stroke-linecap:butt;stroke-linejoin:miter;stroke:rgb(0%,0%,0%);stroke-opacity:1;stroke-miterlimit:10;" d="M 993.785156 381.785156 L 993.785156 424.214844 L 1036.214844 424.214844 L 1036.214844 381.785156 L 993.785156 381.785156 "/>
</g>
</svg>
