<?xml version="1.0" encoding="UTF-8"?>
<svg xmlns="http://www.w3.org/2000/svg" xmlns:xlink="http://www.w3.org/1999/xlink" width="1179pt" height="517pt" viewBox="0 0 1179 517" version="1.1">
<g id="surface726">
<rect x="0" y="0" width="1179" height="517" style="fill:rgb(90%,90%,90%);fill-opacity:1;stroke:none;"/>
<path style="fill-rule:nonzero;fill:rgb(55%,51%,53%);fill-opacity:1;stroke-width:1;stroke-linecap:butt;stroke-linejoin:miter;stroke:rgb(0%,0%,0%);stroke-opacity:1;stroke-miterlimit:10;" d="M 362 116 L 391.664062 116 L 403.664062 87.785156 L 415.664062 116 L 445.332031 116 L 421.332031 133.4375 L 429.417969 164.980469 L 403.664062 147.542969 L 377.914062 164.980469 L 390.214844 133.4375 L 362 116 "/>
<path style="fill-rule:nonzero;fill:rgb(55%,51%,53%);fill-opacity:1;stroke-width:1;stroke-linecap:butt;stroke-linejoin:miter;stroke:rgb(0%,0%,0%);stroke-opacity:1;stroke-miterlimit:10;" d="M 85 182 L 59.019531 227 L 110.980469 227 L 85 182 "/>
<path style="fill-rule:nonzero;fill:rgb(55%,51%,53%);fill-opacity:1;stroke-width:1;stroke-linecap:butt;stroke-linejoin:miter;stroke:rgb(0%,0%,0%);stroke-opacity:1;stroke-miterlimit:10;" d="M 427 211 L 456.664062 211 L 468.664062 182.785156 L 480.664062 211 L 510.332031 211 L 486.332031 228.4375 L 494.417969 259.980469 L 468.664062 242.542969 L 442.914062 259.980469 L 455.214844 228.4375 L 427 211 "/>
<path style="fill-rule:nonzero;fill:rgb(55%,51%,53%);fill-opacity:1;stroke-width:1;stroke-linecap:butt;stroke-linejoin:miter;stroke:rgb(0%,0%,0%);stroke-opacity:1;stroke-miterlimit:10;" d="M 205 217 L 179.019531 262 L 230.980469 262 L 205 217 "/>
<path style="fill-rule:nonzero;fill:rgb(55%,51%,53%);fill-opacity:1;stroke-width:1;stroke-linecap:butt;stroke-linejoin:miter;stroke:rgb(0%,0%,0%);stroke-opacity:1;stroke-miterlimit:10;" d="M 358 356 L 387.664062 356 L 399.664062 327.785156 L 411.664062 356 L 441.332031 356 L 417.332031 373.4375 L 425.417969 404.980469 L 399.664062 387.542969 L 373.914062 404.980469 L 386.214844 373.4375 L 358 356 "/>
<path style="fill-rule:nonzero;fill:rgb(55%,51%,53%);fill-opacity:1;stroke-width:1;stroke-linecap:butt;stroke-linejoin:miter;stroke:rgb(0%,0%,0%);stroke-opacity:1;stroke-miterlimit:10;" d="M 109 335 L 83.019531 380 L 134.980469 380 L 109 335 "/>
<path style="fill-rule:nonzero;fill:rgb(55%,51%,53%);fill-opacity:1;stroke-width:1;stroke-linecap:butt;stroke-linejoin:miter;stroke:rgb(0%,0%,0%);stroke-opacity:1;stroke-miterlimit:10;" d="M 182 100 L 211.664062 100 L 223.664062 71.785156 L 235.664062 100 L 265.332031 100 L 241.332031 117.4375 L 249.417969 148.980469 L 223.664062 131.542969 L 197.914062 148.980469 L 210.214844 117.4375 L 182 100 "/>
<path style="fill-rule:nonzero;fill:rgb(55%,51%,53%);fill-opacity:1;stroke-width:1;stroke-linecap:butt;stroke-linejoin:miter;stroke:rgb(0%,0%,0%);stroke-opacity:1;stroke-miterlimit:10;" d="M 300 226 L 274.019531 271 L 325.980469 271 L 300 226 "/>
<path style="fill-rule:nonzero;fill:rgb(55%,51%,53%);fill-opacity:1;stroke-width:1;stroke-linecap:butt;stroke-linejoin:miter;stroke:rgb(0%,0%,0%);stroke-opacity:1;stroke-miterlimit:10;" d="M 757 156 L 786.664062 156 L 798.664062 127.785156 L 810.664062 156 L 840.332031 156 L 816.332031 173.4375 L 824.417969 204.980469 L 798.664062 187.542969 L 772.914062 204.980469 L 785.214844 173.4375 L 757 156 "/>
<path style="fill-rule:nonzero;fill:rgb(55%,51%,53%);fill-opacity:1;stroke-width:1;stroke-linecap:butt;stroke-linejoin:miter;stroke:rgb(0%,0%,0%);stroke-opacity:1;stroke-miterlimit:10;" d="M 946 83 L 975.664062 83 L 987.664062 54.785156 L 999.664062 83 L 1029.332031 83 L 1005.332031 100.4375 L 1013.417969 131.980469 L 987.664062 114.542969 L 961.914062 131.980469 L 974.214844 100.4375 L 946 83 "/>
<path style="fill-rule:nonzero;fill:rgb(55%,51%,53%);fill-opacity:1;stroke-width:1;stroke-linecap:butt;stroke-linejoin:miter;stroke:rgb(0%,0%,0%);stroke-opacity:1;stroke-miterlimit:10;" d="M 763 327 L 792.664062 327 L 804.664062 298.785156 L 816.664062 327 L 846.332031 327 L 822.332031 344.4375 L 830.417969 375.980469 L 804.664062 358.542969 L 778.914062 375.980469 L 791.214844 344.4375 L 763 327 "/>
<path style="fill-rule:nonzero;fill:rgb(55%,51%,53%);fill-opacity:1;stroke-width:1;stroke-linecap:butt;stroke-linejoin:miter;stroke:rgb(0%,0%,0%);stroke-opacity:1;stroke-miterlimit:10;" d="M 889 388 L 863.019531 433 L 914.980469 433 L 889 388 "/>
<path style="fill-rule:nonzero;fill:rgb(55%,51%,53%);fill-opacity:1;stroke-width:1;stroke-linecap:butt;stroke-linejoin:miter;stroke:rgb(0%,0%,0%);stroke-opacity:1;stroke-miterlimit:10;" d="M 943 305 L 972.664062 305 L 984.664062 276.785156 L 996.664062 305 L 1026.332031 305 L 1002.332031 322.4375 L 1010.417969 353.980469 L 984.664062 336.542969 L 958.914062 353.980469 L 971.214844 322.4375 L 943 305 "/>
<path style="fill-rule:nonzero;fill:rgb(55%,51%,53%);fill-opacity:1;stroke-width:1;stroke-linecap:butt;stroke-linejoin:miter;stroke:rgb(0%,0%,0%);stroke-opacity:1;stroke-miterlimit:10;" d="M 872 176 L 846.019531 221 L 897.980469 221 L 872 176 "/>
<path style="fill-rule:nonzero;fill:rgb(55%,51%,53%);fill-opacity:1;stroke-width:1;stroke-linecap:butt;stroke-linejoin:miter;stroke:rgb(0%,0%,0%);stroke-opacity:1;stroke-miterlimit:10;" d="M 1029 228 L 1058.664062 228 L 1070.664062 199.785156 L 1082.664062 228 L 1112.332031 228 L 1088.332031 245.4375 L 1096.417969 276.980469 L 1070.664062 259.542969 L 1044.914062 276.980469 L 1057.214844 245.4375 L 1029 228 "/>
</g>
</svg>
