<?xml version="1.0" encoding="UTF-8"?>
<svg xmlns="http://www.w3.org/2000/svg" xmlns:xlink="http://www.w3.org/1999/xlink" width="1179pt" height="517pt" viewBox="0 0 1179 517" version="1.1">
<g id="surface856">
<rect x="0" y="0" width="1179" height="517" style="fill:rgb(90%,90%,90%);fill-opacity:1;stroke:none;"/>
<path style="fill-rule:nonzero;fill:rgb(100%,51%,0%);fill-opacity:1;stroke-width:1;stroke-linecap:butt;stroke-linejoin:miter;stroke:rgb(0%,0%,0%);stroke-opacity:1;stroke-miterlimit:10;" d="M 247.214844 381 C 247.214844 392.714844 237.714844 402.214844 226 402.214844 C 214.285156 402.214844 204.785156 392.714844 204.785156 381 C 204.785156 369.285156 214.285156 359.785156 226 359.785156 C 237.714844 359.785156 247.214844 369.285156 247.214844 381 "/>
<path style="fill-rule:nonzero;fill:rgb(53%,27%,7%);fill-opacity:1;stroke-width:1;stroke-linecap:butt;stroke-linejoin:miter;stroke:rgb(0%,0%,0%);stroke-opacity:1;stroke-miterlimit:10;" d="M 194 158.601562 C 194 144.199219 170 144.199219 170 158.601562 C 170 173 194 175.398438 194 187.398438 C 194 175.398438 218 173 218 158.601562 C 218 144.199219 194 144.199219 194 158.601562 "/>
<path style="fill-rule:nonzero;fill:rgb(53%,27%,7%);fill-opacity:1;stroke-width:1;stroke-linecap:butt;stroke-linejoin:miter;stroke:rgb(0%,0%,0%);stroke-opacity:1;stroke-miterlimit:10;" d="M 326 70.601562 C 326 56.199219 302 56.199219 302 70.601562 C 302 85 326 87.398438 326 99.398438 C 326 87.398438 350 85 350 70.601562 C 350 56.199219 326 56.199219 326 70.601562 "/>
<path style="fill-rule:nonzero;fill:rgb(53%,27%,7%);fill-opacity:1;stroke-width:1;stroke-linecap:butt;stroke-linejoin:miter;stroke:rgb(0%,0%,0%);stroke-opacity:1;stroke-miterlimit:10;" d="M 205 278.601562 C 205 264.199219 181 264.199219 181 278.601562 C 181 293 205 295.398438 205 307.398438 C 205 295.398438 229 293 229 278.601562 C 229 264.199219 205 264.199219 205 278.601562 "/>
<path style="fill-rule:nonzero;fill:rgb(53%,27%,7%);fill-opacity:1;stroke-width:1;stroke-linecap:butt;stroke-linejoin:miter;stroke:rgb(0%,0%,0%);stroke-opacity:1;stroke-miterlimit:10;" d="M 220 65.601562 C 220 51.199219 196 51.199219 196 65.601562 C 196 80 220 82.398438 220 94.398438 C 220 82.398438 244 80 244 65.601562 C 244 51.199219 220 51.199219 220 65.601562 "/>
<path style="fill-rule:nonzero;fill:rgb(100%,51%,0%);fill-opacity:1;stroke-width:1;stroke-linecap:butt;stroke-linejoin:miter;stroke:rgb(0%,0%,0%);stroke-opacity:1;stroke-miterlimit:10;" d="M 1032.214844 193 C 1032.214844 204.714844 1022.714844 214.214844 1011 214.214844 C 999.285156 214.214844 989.785156 204.714844 989.785156 193 C 989.785156 181.285156 999.285156 171.785156 1011 171.785156 C 1022.714844 171.785156 1032.214844 181.285156 1032.214844 193 "/>
<path style="fill-rule:nonzero;fill:rgb(100%,51%,0%);fill-opacity:1;stroke-width:1;stroke-linecap:butt;stroke-linejoin:miter;stroke:rgb(0%,0%,0%);stroke-opacity:1;stroke-miterlimit:10;" d="M 978.214844 279 C 978.214844 290.714844 968.714844 300.214844 957 300.214844 C 945.285156 300.214844 935.785156 290.714844 935.785156 279 C 935.785156 267.285156 945.285156 257.785156 957 257.785156 C 968.714844 257.785156 978.214844 267.285156 978.214844 279 "/>
<path style="fill-rule:nonzero;fill:rgb(100%,51%,0%);fill-opacity:1;stroke-width:1;stroke-linecap:butt;stroke-linejoin:miter;stroke:rgb(0%,0%,0%);stroke-opacity:1;stroke-miterlimit:10;" d="M 746.214844 193 C 746.214844 204.714844 736.714844 214.214844 725 214.214844 C 713.285156 214.214844 703.785156 204.714844 703.785156 193 C 703.785156 181.285156 713.285156 171.785156 725 171.785156 C 736.714844 171.785156 746.214844 181.285156 746.214844 193 "/>
<path style="fill-rule:nonzero;fill:rgb(100%,51%,0%);fill-opacity:1;stroke-width:1;stroke-linecap:butt;stroke-linejoin:miter;stroke:rgb(0%,0%,0%);stroke-opacity:1;stroke-miterlimit:10;" d="M 807.214844 117 C 807.214844 128.714844 797.714844 138.214844 786 138.214844 C 774.285156 138.214844 764.785156 128.714844 764.785156 117 C 764.785156 105.285156 774.285156 95.785156 786 95.785156 C 797.714844 95.785156 807.214844 105.285156 807.214844 117 "/>
<path style="fill-rule:nonzero;fill:rgb(100%,51%,0%);fill-opacity:1;stroke-width:1;stroke-linecap:butt;stroke-linejoin:miter;stroke:rgb(0%,0%,0%);stroke-opacity:1;stroke-miterlimit:10;" d="M 871.214844 249 C 871.214844 260.714844 861.714844 270.214844 850 270.214844 C 838.285156 270.214844 828.785156 260.714844 828.785156 249 C 828.785156 237.285156 838.285156 227.785156 850 227.785156 C 861.714844 227.785156 871.214844 237.285156 871.214844 249 "/>
<path style="fill-rule:nonzero;fill:rgb(53%,27%,7%);fill-opacity:1;stroke-width:1;stroke-linecap:butt;stroke-linejoin:miter;stroke:rgb(0%,0%,0%);stroke-opacity:1;stroke-miterlimit:10;" d="M 793 373.601562 C 793 359.199219 769 359.199219 769 373.601562 C 769 388 793 390.398438 793 402.398438 C 793 390.398438 817 388 817 373.601562 C 817 359.199219 793 359.199219 793 373.601562 "/>
<path style="fill-rule:nonzero;fill:rgb(100%,51%,0%);fill-opacity:1;stroke-width:1;stroke-linecap:butt;stroke-linejoin:miter;stroke:rgb(0%,0%,0%);stroke-opacity:1;stroke-miterlimit:10;" d="M 963.214844 372 C 963.214844 383.714844 953.714844 393.214844 942 393.214844 C 930.285156 393.214844 920.785156 383.714844 920.785156 372 C 920.785156 360.285156 930.285156 350.785156 942 350.785156 C 953.714844 350.785156 963.214844 360.285156 963.214844 372 "/>
<path style="fill-rule:nonzero;fill:rgb(100%,51%,0%);fill-opacity:1;stroke-width:1;stroke-linecap:butt;stroke-linejoin:miter;stroke:rgb(0%,0%,0%);stroke-opacity:1;stroke-miterlimit:10;" d="M 926.214844 86 C 926.214844 97.714844 916.714844 107.214844 905 107.214844 C 893.285156 107.214844 883.785156 97.714844 883.785156 86 C 883.785156 74.285156 893.285156 64.785156 905 64.785156 C 916.714844 64.785156 926.214844 74.285156 926.214844 86 "/>
</g>
</svg>
