<?xml version="1.0" encoding="UTF-8"?>
<svg xmlns="http://www.w3.org/2000/svg" xmlns:xlink="http://www.w3.org/1999/xlink" width="1179pt" height="517pt" viewBox="0 0 1179 517" version="1.1">
<g id="surface1086">
<rect x="0" y="0" width="1179" height="517" style="fill:rgb(90%,90%,90%);fill-opacity:1;stroke:none;"/>
<path style="fill-rule:nonzero;fill:rgb(55%,51%,53%);fill-opacity:1;stroke-width:1;stroke-linecap:butt;stroke-linejoin:miter;stroke:rgb(0%,0%,0%);stroke-opacity:1;stroke-miterlimit:10;" d="M 672 119 L 646.019531 164 L 697.980469 164 L 672 119 "/>
<path style="fill-rule:nonzero;fill:rgb(55%,51%,53%);fill-opacity:1;stroke-width:1;stroke-linecap:butt;stroke-linejoin:miter;stroke:rgb(0%,0%,0%);stroke-opacity:1;stroke-miterlimit:10;" d="M 966 311 L 940.019531 356 L 991.980469 356 L 966 311 "/>
<path style="fill-rule:nonzero;fill:rgb(55%,51%,53%);fill-opacity:1;stroke-width:1;stroke-linecap:butt;stroke-linejoin:miter;stroke:rgb(0%,0%,0%);stroke-opacity:1;stroke-miterlimit:10;" d="M 933 72 L 907.019531 117 L 958.980469 117 L 933 72 "/>
<path style="fill-rule:nonzero;fill:rgb(55%,51%,53%);fill-opacity:1;stroke-width:1;stroke-linecap:butt;stroke-linejoin:miter;stroke:rgb(0%,0%,0%);stroke-opacity:1;stroke-miterlimit:10;" d="M 217 163 L 191.019531 208 L 242.980469 208 L 217 163 "/>
<path style="fill-rule:nonzero;fill:rgb(55%,51%,53%);fill-opacity:1;stroke-width:1;stroke-linecap:butt;stroke-linejoin:miter;stroke:rgb(0%,0%,0%);stroke-opacity:1;stroke-miterlimit:10;" d="M 619 285 L 593.019531 330 L 644.980469 330 L 619 285 "/>
<path style="fill-rule:nonzero;fill:rgb(35%,70%,90%);fill-opacity:1;stroke-width:1;stroke-linecap:butt;stroke-linejoin:miter;stroke:rgb(0%,0%,0%);stroke-opacity:1;stroke-miterlimit:10;" d="M 490 429 L 519.664062 429 L 531.664062 400.785156 L 543.664062 429 L 573.332031 429 L 549.332031 446.4375 L 557.417969 477.980469 L 531.664062 460.542969 L 505.914062 477.980469 L 518.214844 446.4375 L 490 429 "/>
<path style="fill-rule:nonzero;fill:rgb(35%,70%,90%);fill-opacity:1;stroke-width:1;stroke-linecap:butt;stroke-linejoin:miter;stroke:rgb(0%,0%,0%);stroke-opacity:1;stroke-miterlimit:10;" d="M 766 424 L 795.664062 424 L 807.664062 395.785156 L 819.664062 424 L 849.332031 424 L 825.332031 441.4375 L 833.417969 472.980469 L 807.664062 455.542969 L 781.914062 472.980469 L 794.214844 441.4375 L 766 424 "/>
<path style="fill-rule:nonzero;fill:rgb(35%,70%,90%);fill-opacity:1;stroke-width:1;stroke-linecap:butt;stroke-linejoin:miter;stroke:rgb(0%,0%,0%);stroke-opacity:1;stroke-miterlimit:10;" d="M 86 373 L 115.664062 373 L 127.664062 344.785156 L 139.664062 373 L 169.332031 373 L 145.332031 390.4375 L 153.417969 421.980469 L 127.664062 404.542969 L 101.914062 421.980469 L 114.214844 390.4375 L 86 373 "/>
<path style="fill-rule:nonzero;fill:rgb(35%,70%,90%);fill-opacity:1;stroke-width:1;stroke-linecap:butt;stroke-linejoin:miter;stroke:rgb(0%,0%,0%);stroke-opacity:1;stroke-miterlimit:10;" d="M 210 315 L 239.664062 315 L 251.664062 286.785156 L 263.664062 315 L 293.332031 315 L 269.332031 332.4375 L 277.417969 363.980469 L 251.664062 346.542969 L 225.914062 363.980469 L 238.214844 332.4375 L 210 315 "/>
</g>
</svg>
