<?xml version="1.0" encoding="UTF-8"?>
<svg xmlns="http://www.w3.org/2000/svg" xmlns:xlink="http://www.w3.org/1999/xlink" width="1179pt" height="517pt" viewBox="0 0 1179 517" version="1.1">
<g id="surface256">
<rect x="0" y="0" width="1179" height="517" style="fill:rgb(90%,90%,90%);fill-opacity:1;stroke:none;"/>
<path style="fill-rule:nonzero;fill:rgb(35%,70%,90%);fill-opacity:1;stroke-width:1;stroke-linecap:butt;stroke-linejoin:miter;stroke:rgb(0%,0%,0%);stroke-opacity:1;stroke-miterlimit:10;" d="M 127.214844 354 C 127.214844 365.714844 117.714844 375.214844 106 375.214844 C 94.285156 375.214844 84.785156 365.714844 84.785156 354 C 84.785156 342.285156 94.285156 332.785156 106 332.785156 C 117.714844 332.785156 127.214844 342.285156 127.214844 354 "/>
<path style="fill-rule:nonzero;fill:rgb(35%,70%,90%);fill-opacity:1;stroke-width:1;stroke-linecap:butt;stroke-linejoin:miter;stroke:rgb(0%,0%,0%);stroke-opacity:1;stroke-miterlimit:10;" d="M 195.214844 132 C 195.214844 143.714844 185.714844 153.214844 174 153.214844 C 162.285156 153.214844 152.785156 143.714844 152.785156 132 C 152.785156 120.285156 162.285156 110.785156 174 110.785156 C 185.714844 110.785156 195.214844 120.285156 195.214844 132 "/>
<path style="fill-rule:nonzero;fill:rgb(55%,51%,53%);fill-opacity:1;stroke-width:1;stroke-linecap:butt;stroke-linejoin:miter;stroke:rgb(0%,0%,0%);stroke-opacity:1;stroke-miterlimit:10;" d="M 407.214844 254 C 407.214844 265.714844 397.714844 275.214844 386 275.214844 C 374.285156 275.214844 364.785156 265.714844 364.785156 254 C 364.785156 242.285156 374.285156 232.785156 386 232.785156 C 397.714844 232.785156 407.214844 242.285156 407.214844 254 "/>
<path style="fill-rule:nonzero;fill:rgb(55%,51%,53%);fill-opacity:1;stroke-width:1;stroke-linecap:butt;stroke-linejoin:miter;stroke:rgb(0%,0%,0%);stroke-opacity:1;stroke-miterlimit:10;" d="M 404.214844 347 C 404.214844 358.714844 394.714844 368.214844 383 368.214844 C 371.285156 368.214844 361.785156 358.714844 361.785156 347 C 361.785156 335.285156 371.285156 325.785156 383 325.785156 C 394.714844 325.785156 404.214844 335.285156 404.214844 347 "/>
<path style="fill-rule:nonzero;fill:rgb(55%,51%,53%);fill-opacity:1;stroke-width:1;stroke-linecap:butt;stroke-linejoin:miter;stroke:rgb(0%,0%,0%);stroke-opacity:1;stroke-miterlimit:10;" d="M 982 192 L 956.019531 237 L 1007.980469 237 L 982 192 "/>
<path style="fill-rule:nonzero;fill:rgb(55%,51%,53%);fill-opacity:1;stroke-width:1;stroke-linecap:butt;stroke-linejoin:miter;stroke:rgb(0%,0%,0%);stroke-opacity:1;stroke-miterlimit:10;" d="M 762 318 L 736.019531 363 L 787.980469 363 L 762 318 "/>
<path style="fill-rule:nonzero;fill:rgb(35%,70%,90%);fill-opacity:1;stroke-width:1;stroke-linecap:butt;stroke-linejoin:miter;stroke:rgb(0%,0%,0%);stroke-opacity:1;stroke-miterlimit:10;" d="M 950 303 L 924.019531 348 L 975.980469 348 L 950 303 "/>
<path style="fill-rule:nonzero;fill:rgb(35%,70%,90%);fill-opacity:1;stroke-width:1;stroke-linecap:butt;stroke-linejoin:miter;stroke:rgb(0%,0%,0%);stroke-opacity:1;stroke-miterlimit:10;" d="M 745 123 L 719.019531 168 L 770.980469 168 L 745 123 "/>
<path style="fill-rule:nonzero;fill:rgb(55%,51%,53%);fill-opacity:1;stroke-width:1;stroke-linecap:butt;stroke-linejoin:miter;stroke:rgb(0%,0%,0%);stroke-opacity:1;stroke-miterlimit:10;" d="M 903 117 L 877.019531 162 L 928.980469 162 L 903 117 "/>
</g>
</svg>
