<?xml version="1.0" encoding="UTF-8"?>
<svg xmlns="http://www.w3.org/2000/svg" xmlns:xlink="http://www.w3.org/1999/xlink" width="1179pt" height="517pt" viewBox="0 0 1179 517" version="1.1">
<g id="surface111">
<rect x="0" y="0" width="1179" height="517" style="fill:rgb(90%,90%,90%);fill-opacity:1;stroke:none;"/>
<path style="fill-rule:nonzero;fill:rgb(100%,51%,0%);fill-opacity:1;stroke-width:1;stroke-linecap:butt;stroke-linejoin:miter;stroke:rgb(0%,0%,0%);stroke-opacity:1;stroke-miterlimit:10;" d="M 387.214844 288 C 387.214844 299.714844 377.714844 309.214844 366 309.214844 C 354.285156 309.214844 344.785156 299.714844 344.785156 288 C 344.785156 276.285156 354.285156 266.785156 366 266.785156 C 377.714844 266.785156 387.214844 276.285156 387.214844 288 "/>
<path style="fill-rule:nonzero;fill:rgb(53%,27%,7%);fill-opacity:1;stroke-width:1;stroke-linecap:butt;stroke-linejoin:miter;stroke:rgb(0%,0%,0%);stroke-opacity:1;stroke-miterlimit:10;" d="M 255.214844 412 C 255.214844 423.714844 245.714844 433.214844 234 433.214844 C 222.285156 433.214844 212.785156 423.714844 212.785156 412 C 212.785156 400.285156 222.285156 390.785156 234 390.785156 C 245.714844 390.785156 255.214844 400.285156 255.214844 412 "/>
<path style="fill-rule:nonzero;fill:rgb(100%,51%,0%);fill-opacity:1;stroke-width:1;stroke-linecap:butt;stroke-linejoin:miter;stroke:rgb(0%,0%,0%);stroke-opacity:1;stroke-miterlimit:10;" d="M 358.214844 416 C 358.214844 427.714844 348.714844 437.214844 337 437.214844 C 325.285156 437.214844 315.785156 427.714844 315.785156 416 C 315.785156 404.285156 325.285156 394.785156 337 394.785156 C 348.714844 394.785156 358.214844 404.285156 358.214844 416 "/>
<path style="fill-rule:nonzero;fill:rgb(53%,27%,7%);fill-opacity:1;stroke-width:1;stroke-linecap:butt;stroke-linejoin:miter;stroke:rgb(0%,0%,0%);stroke-opacity:1;stroke-miterlimit:10;" d="M 293.214844 223 C 293.214844 234.714844 283.714844 244.214844 272 244.214844 C 260.285156 244.214844 250.785156 234.714844 250.785156 223 C 250.785156 211.285156 260.285156 201.785156 272 201.785156 C 283.714844 201.785156 293.214844 211.285156 293.214844 223 "/>
<path style="fill-rule:nonzero;fill:rgb(53%,27%,7%);fill-opacity:1;stroke-width:1;stroke-linecap:butt;stroke-linejoin:miter;stroke:rgb(0%,0%,0%);stroke-opacity:1;stroke-miterlimit:10;" d="M 996.785156 272.785156 L 996.785156 315.214844 L 1039.214844 315.214844 L 1039.214844 272.785156 L 996.785156 272.785156 "/>
<path style="fill-rule:nonzero;fill:rgb(100%,51%,0%);fill-opacity:1;stroke-width:1;stroke-linecap:butt;stroke-linejoin:miter;stroke:rgb(0%,0%,0%);stroke-opacity:1;stroke-miterlimit:10;" d="M 809.785156 150.785156 L 809.785156 193.214844 L 852.214844 193.214844 L 852.214844 150.785156 L 809.785156 150.785156 "/>
<path style="fill-rule:nonzero;fill:rgb(53%,27%,7%);fill-opacity:1;stroke-width:1;stroke-linecap:butt;stroke-linejoin:miter;stroke:rgb(0%,0%,0%);stroke-opacity:1;stroke-miterlimit:10;" d="M 966.785156 374.785156 L 966.785156 417.214844 L 1009.214844 417.214844 L 1009.214844 374.785156 L 966.785156 374.785156 "/>
<path style="fill-rule:nonzero;fill:rgb(100%,51%,0%);fill-opacity:1;stroke-width:1;stroke-linecap:butt;stroke-linejoin:miter;stroke:rgb(0%,0%,0%);stroke-opacity:1;stroke-miterlimit:10;" d="M 886.785156 66.785156 L 886.785156 109.214844 L 929.214844 109.214844 L 929.214844 66.785156 L 886.785156 66.785156 "/>
</g>
</svg>
