<?xml version="1.0" encoding="UTF-8"?>
<svg xmlns="http://www.w3.org/2000/svg" xmlns:xlink="http://www.w3.org/1999/xlink" width="1179pt" height="517pt" viewBox="0 0 1179 517" version="1.1">
<g id="surface1171">
<rect x="0" y="0" width="1179" height="517" style="fill:rgb(90%,90%,90%);fill-opacity:1;stroke:none;"/>
<path style="fill-rule:nonzero;fill:rgb(53%,27%,7%);fill-opacity:1;stroke-width:1;stroke-linecap:butt;stroke-linejoin:miter;stroke:rgb(0%,0%,0%);stroke-opacity:1;stroke-miterlimit:10;" d="M 855.214844 322 C 855.214844 333.714844 845.714844 343.214844 834 343.214844 C 822.285156 343.214844 812.785156 333.714844 812.785156 322 C 812.785156 310.285156 822.285156 300.785156 834 300.785156 C 845.714844 300.785156 855.214844 310.285156 855.214844 322 "/>
<path style="fill-rule:nonzero;fill:rgb(53%,27%,7%);fill-opacity:1;stroke-width:1;stroke-linecap:butt;stroke-linejoin:miter;stroke:rgb(0%,0%,0%);stroke-opacity:1;stroke-miterlimit:10;" d="M 307.214844 339 C 307.214844 350.714844 297.714844 360.214844 286 360.214844 C 274.285156 360.214844 264.785156 350.714844 264.785156 339 C 264.785156 327.285156 274.285156 317.785156 286 317.785156 C 297.714844 317.785156 307.214844 327.285156 307.214844 339 "/>
<path style="fill-rule:nonzero;fill:rgb(53%,27%,7%);fill-opacity:1;stroke-width:1;stroke-linecap:butt;stroke-linejoin:miter;stroke:rgb(0%,0%,0%);stroke-opacity:1;stroke-miterlimit:10;" d="M 640.214844 368 C 640.214844 379.714844 630.714844 389.214844 619 389.214844 C 607.285156 389.214844 597.785156 379.714844 597.785156 368 C 597.785156 356.285156 607.285156 346.785156 619 346.785156 C 630.714844 346.785156 640.214844 356.285156 640.214844 368 "/>
<path style="fill-rule:nonzero;fill:rgb(53%,27%,7%);fill-opacity:1;stroke-width:1;stroke-linecap:butt;stroke-linejoin:miter;stroke:rgb(0%,0%,0%);stroke-opacity:1;stroke-miterlimit:10;" d="M 1012.214844 232 C 1012.214844 243.714844 1002.714844 253.214844 991 253.214844 C 979.285156 253.214844 969.785156 243.714844 969.785156 232 C 969.785156 220.285156 979.285156 210.785156 991 210.785156 C 1002.714844 210.785156 1012.214844 220.285156 1012.214844 232 "/>
<path style="fill-rule:nonzero;fill:rgb(53%,27%,7%);fill-opacity:1;stroke-width:1;stroke-linecap:butt;stroke-linejoin:miter;stroke:rgb(0%,0%,0%);stroke-opacity:1;stroke-miterlimit:10;" d="M 549.214844 157 C 549.214844 168.714844 539.714844 178.214844 528 178.214844 C 516.285156 178.214844 506.785156 168.714844 506.785156 157 C 506.785156 145.285156 516.285156 135.785156 528 135.785156 C 539.714844 135.785156 549.214844 145.285156 549.214844 157 "/>
<path style="fill-rule:nonzero;fill:rgb(100%,51%,0%);fill-opacity:1;stroke-width:1;stroke-linecap:butt;stroke-linejoin:miter;stroke:rgb(0%,0%,0%);stroke-opacity:1;stroke-miterlimit:10;" d="M 965 107 L 994.664062 107 L 1006.664062 78.785156 L 1018.664062 107 L 1048.332031 107 L 1024.332031 124.4375 L 1032.417969 155.980469 L 1006.664062 138.542969 L 980.914062 155.980469 L 993.214844 124.4375 L 965 107 "/>
<path style="fill-rule:nonzero;fill:rgb(100%,51%,0%);fill-opacity:1;stroke-width:1;stroke-linecap:butt;stroke-linejoin:miter;stroke:rgb(0%,0%,0%);stroke-opacity:1;stroke-miterlimit:10;" d="M 346 91 L 375.664062 91 L 387.664062 62.785156 L 399.664062 91 L 429.332031 91 L 405.332031 108.4375 L 413.417969 139.980469 L 387.664062 122.542969 L 361.914062 139.980469 L 374.214844 108.4375 L 346 91 "/>
<path style="fill-rule:nonzero;fill:rgb(100%,51%,0%);fill-opacity:1;stroke-width:1;stroke-linecap:butt;stroke-linejoin:miter;stroke:rgb(0%,0%,0%);stroke-opacity:1;stroke-miterlimit:10;" d="M 108 232 L 137.664062 232 L 149.664062 203.785156 L 161.664062 232 L 191.332031 232 L 167.332031 249.4375 L 175.417969 280.980469 L 149.664062 263.542969 L 123.914062 280.980469 L 136.214844 249.4375 L 108 232 "/>
<path style="fill-rule:nonzero;fill:rgb(100%,51%,0%);fill-opacity:1;stroke-width:1;stroke-linecap:butt;stroke-linejoin:miter;stroke:rgb(0%,0%,0%);stroke-opacity:1;stroke-miterlimit:10;" d="M 434 399 L 463.664062 399 L 475.664062 370.785156 L 487.664062 399 L 517.332031 399 L 493.332031 416.4375 L 501.417969 447.980469 L 475.664062 430.542969 L 449.914062 447.980469 L 462.214844 416.4375 L 434 399 "/>
<path style="fill-rule:nonzero;fill:rgb(100%,51%,0%);fill-opacity:1;stroke-width:1;stroke-linecap:butt;stroke-linejoin:miter;stroke:rgb(0%,0%,0%);stroke-opacity:1;stroke-miterlimit:10;" d="M 767 141 L 796.664062 141 L 808.664062 112.785156 L 820.664062 141 L 850.332031 141 L 826.332031 158.4375 L 834.417969 189.980469 L 808.664062 172.542969 L 782.914062 189.980469 L 795.214844 158.4375 L 767 141 "/>
</g>
</svg>
