<?xml version="1.0" encoding="UTF-8"?>
<svg xmlns="http://www.w3.org/2000/svg" xmlns:xlink="http://www.w3.org/1999/xlink" width="1179pt" height="517pt" viewBox="0 0 1179 517" version="1.1">
<g id="surface361">
<rect x="0" y="0" width="1179" height="517" style="fill:rgb(90%,90%,90%);fill-opacity:1;stroke:none;"/>
<path style="fill-rule:nonzero;fill:rgb(35%,70%,90%);fill-opacity:1;stroke-width:1;stroke-linecap:butt;stroke-linejoin:miter;stroke:rgb(0%,0%,0%);stroke-opacity:1;stroke-miterlimit:10;" d="M 1041 115 L 1070.664062 115 L 1082.664062 86.785156 L 1094.664062 115 L 1124.332031 115 L 1100.332031 132.4375 L 1108.417969 163.980469 L 1082.664062 146.542969 L 1056.914062 163.980469 L 1069.214844 132.4375 L 1041 115 "/>
<path style="fill-rule:nonzero;fill:rgb(35%,70%,90%);fill-opacity:1;stroke-width:1;stroke-linecap:butt;stroke-linejoin:miter;stroke:rgb(0%,0%,0%);stroke-opacity:1;stroke-miterlimit:10;" d="M 661 110 L 690.664062 110 L 702.664062 81.785156 L 714.664062 110 L 744.332031 110 L 720.332031 127.4375 L 728.417969 158.980469 L 702.664062 141.542969 L 676.914062 158.980469 L 689.214844 127.4375 L 661 110 "/>
<path style="fill-rule:nonzero;fill:rgb(35%,70%,90%);fill-opacity:1;stroke-width:1;stroke-linecap:butt;stroke-linejoin:miter;stroke:rgb(0%,0%,0%);stroke-opacity:1;stroke-miterlimit:10;" d="M 355 199 L 384.664062 199 L 396.664062 170.785156 L 408.664062 199 L 438.332031 199 L 414.332031 216.4375 L 422.417969 247.980469 L 396.664062 230.542969 L 370.914062 247.980469 L 383.214844 216.4375 L 355 199 "/>
<path style="fill-rule:nonzero;fill:rgb(35%,70%,90%);fill-opacity:1;stroke-width:1;stroke-linecap:butt;stroke-linejoin:miter;stroke:rgb(0%,0%,0%);stroke-opacity:1;stroke-miterlimit:10;" d="M 884 352 L 913.664062 352 L 925.664062 323.785156 L 937.664062 352 L 967.332031 352 L 943.332031 369.4375 L 951.417969 400.980469 L 925.664062 383.542969 L 899.914062 400.980469 L 912.214844 369.4375 L 884 352 "/>
<path style="fill-rule:nonzero;fill:rgb(100%,51%,0%);fill-opacity:1;stroke-width:1;stroke-linecap:butt;stroke-linejoin:miter;stroke:rgb(0%,0%,0%);stroke-opacity:1;stroke-miterlimit:10;" d="M 372.214844 422 C 372.214844 433.714844 362.714844 443.214844 351 443.214844 C 339.285156 443.214844 329.785156 433.714844 329.785156 422 C 329.785156 410.285156 339.285156 400.785156 351 400.785156 C 362.714844 400.785156 372.214844 410.285156 372.214844 422 "/>
<path style="fill-rule:nonzero;fill:rgb(100%,51%,0%);fill-opacity:1;stroke-width:1;stroke-linecap:butt;stroke-linejoin:miter;stroke:rgb(0%,0%,0%);stroke-opacity:1;stroke-miterlimit:10;" d="M 458.214844 318 C 458.214844 329.714844 448.714844 339.214844 437 339.214844 C 425.285156 339.214844 415.785156 329.714844 415.785156 318 C 415.785156 306.285156 425.285156 296.785156 437 296.785156 C 448.714844 296.785156 458.214844 306.285156 458.214844 318 "/>
<path style="fill-rule:nonzero;fill:rgb(100%,51%,0%);fill-opacity:1;stroke-width:1;stroke-linecap:butt;stroke-linejoin:miter;stroke:rgb(0%,0%,0%);stroke-opacity:1;stroke-miterlimit:10;" d="M 640.214844 335 C 640.214844 346.714844 630.714844 356.214844 619 356.214844 C 607.285156 356.214844 597.785156 346.714844 597.785156 335 C 597.785156 323.285156 607.285156 313.785156 619 313.785156 C 630.714844 313.785156 640.214844 323.285156 640.214844 335 "/>
</g>
</svg>
