<?xml version="1.0" encoding="UTF-8"?>
<svg xmlns="http://www.w3.org/2000/svg" xmlns:xlink="http://www.w3.org/1999/xlink" width="1179pt" height="517pt" viewBox="0 0 1179 517" version="1.1">
<g id="surface91">
<rect x="0" y="0" width="1179" height="517" style="fill:rgb(90%,90%,90%);fill-opacity:1;stroke:none;"/>
<path style="fill-rule:nonzero;fill:rgb(100%,51%,0%);fill-opacity:1;stroke-width:1;stroke-linecap:butt;stroke-linejoin:miter;stroke:rgb(0%,0%,0%);stroke-opacity:1;stroke-miterlimit:10;" d="M 86 411 L 115.664062 411 L 127.664062 382.785156 L 139.664062 411 L 169.332031 411 L 145.332031 428.4375 L 153.417969 459.980469 L 127.664062 442.542969 L 101.914062 459.980469 L 114.214844 428.4375 L 86 411 "/>
<path style="fill-rule:nonzero;fill:rgb(100%,51%,0%);fill-opacity:1;stroke-width:1;stroke-linecap:butt;stroke-linejoin:miter;stroke:rgb(0%,0%,0%);stroke-opacity:1;stroke-miterlimit:10;" d="M 917 401 L 946.664062 401 L 958.664062 372.785156 L 970.664062 401 L 1000.332031 401 L 976.332031 418.4375 L 984.417969 449.980469 L 958.664062 432.542969 L 932.914062 449.980469 L 945.214844 418.4375 L 917 401 "/>
<path style="fill-rule:nonzero;fill:rgb(100%,51%,0%);fill-opacity:1;stroke-width:1;stroke-linecap:butt;stroke-linejoin:miter;stroke:rgb(0%,0%,0%);stroke-opacity:1;stroke-miterlimit:10;" d="M 483 432 L 512.664062 432 L 524.664062 403.785156 L 536.664062 432 L 566.332031 432 L 542.332031 449.4375 L 550.417969 480.980469 L 524.664062 463.542969 L 498.914062 480.980469 L 511.214844 449.4375 L 483 432 "/>
<path style="fill-rule:nonzero;fill:rgb(100%,51%,0%);fill-opacity:1;stroke-width:1;stroke-linecap:butt;stroke-linejoin:miter;stroke:rgb(0%,0%,0%);stroke-opacity:1;stroke-miterlimit:10;" d="M 774 290 L 803.664062 290 L 815.664062 261.785156 L 827.664062 290 L 857.332031 290 L 833.332031 307.4375 L 841.417969 338.980469 L 815.664062 321.542969 L 789.914062 338.980469 L 802.214844 307.4375 L 774 290 "/>
<path style="fill-rule:nonzero;fill:rgb(100%,51%,0%);fill-opacity:1;stroke-width:1;stroke-linecap:butt;stroke-linejoin:miter;stroke:rgb(0%,0%,0%);stroke-opacity:1;stroke-miterlimit:10;" d="M 255 278 L 284.664062 278 L 296.664062 249.785156 L 308.664062 278 L 338.332031 278 L 314.332031 295.4375 L 322.417969 326.980469 L 296.664062 309.542969 L 270.914062 326.980469 L 283.214844 295.4375 L 255 278 "/>
<path style="fill-rule:nonzero;fill:rgb(53%,27%,7%);fill-opacity:1;stroke-width:1;stroke-linecap:butt;stroke-linejoin:miter;stroke:rgb(0%,0%,0%);stroke-opacity:1;stroke-miterlimit:10;" d="M 255.214844 406 C 255.214844 417.714844 245.714844 427.214844 234 427.214844 C 222.285156 427.214844 212.785156 417.714844 212.785156 406 C 212.785156 394.285156 222.285156 384.785156 234 384.785156 C 245.714844 384.785156 255.214844 394.285156 255.214844 406 "/>
<path style="fill-rule:nonzero;fill:rgb(53%,27%,7%);fill-opacity:1;stroke-width:1;stroke-linecap:butt;stroke-linejoin:miter;stroke:rgb(0%,0%,0%);stroke-opacity:1;stroke-miterlimit:10;" d="M 999.214844 81 C 999.214844 92.714844 989.714844 102.214844 978 102.214844 C 966.285156 102.214844 956.785156 92.714844 956.785156 81 C 956.785156 69.285156 966.285156 59.785156 978 59.785156 C 989.714844 59.785156 999.214844 69.285156 999.214844 81 "/>
<path style="fill-rule:nonzero;fill:rgb(53%,27%,7%);fill-opacity:1;stroke-width:1;stroke-linecap:butt;stroke-linejoin:miter;stroke:rgb(0%,0%,0%);stroke-opacity:1;stroke-miterlimit:10;" d="M 567.214844 204 C 567.214844 215.714844 557.714844 225.214844 546 225.214844 C 534.285156 225.214844 524.785156 215.714844 524.785156 204 C 524.785156 192.285156 534.285156 182.785156 546 182.785156 C 557.714844 182.785156 567.214844 192.285156 567.214844 204 "/>
<path style="fill-rule:nonzero;fill:rgb(53%,27%,7%);fill-opacity:1;stroke-width:1;stroke-linecap:butt;stroke-linejoin:miter;stroke:rgb(0%,0%,0%);stroke-opacity:1;stroke-miterlimit:10;" d="M 196.214844 126 C 196.214844 137.714844 186.714844 147.214844 175 147.214844 C 163.285156 147.214844 153.785156 137.714844 153.785156 126 C 153.785156 114.285156 163.285156 104.785156 175 104.785156 C 186.714844 104.785156 196.214844 114.285156 196.214844 126 "/>
<path style="fill-rule:nonzero;fill:rgb(53%,27%,7%);fill-opacity:1;stroke-width:1;stroke-linecap:butt;stroke-linejoin:miter;stroke:rgb(0%,0%,0%);stroke-opacity:1;stroke-miterlimit:10;" d="M 625.214844 374 C 625.214844 385.714844 615.714844 395.214844 604 395.214844 C 592.285156 395.214844 582.785156 385.714844 582.785156 374 C 582.785156 362.285156 592.285156 352.785156 604 352.785156 C 615.714844 352.785156 625.214844 362.285156 625.214844 374 "/>
</g>
</svg>
