<?xml version="1.0" encoding="UTF-8"?>
<svg xmlns="http://www.w3.org/2000/svg" xmlns:xlink="http://www.w3.org/1999/xlink" width="1179pt" height="517pt" viewBox="0 0 1179 517" version="1.1">
<g id="surface881">
<rect x="0" y="0" width="1179" height="517" style="fill:rgb(90%,90%,90%);fill-opacity:1;stroke:none;"/>
<path style="fill-rule:nonzero;fill:rgb(35%,70%,90%);fill-opacity:1;stroke-width:1;stroke-linecap:butt;stroke-linejoin:miter;stroke:rgb(0%,0%,0%);stroke-opacity:1;stroke-miterlimit:10;" d="M 642.214844 418 C 642.214844 429.714844 632.714844 439.214844 621 439.214844 C 609.285156 439.214844 599.785156 429.714844 599.785156 418 C 599.785156 406.285156 609.285156 396.785156 621 396.785156 C 632.714844 396.785156 642.214844 406.285156 642.214844 418 "/>
<path style="fill-rule:nonzero;fill:rgb(35%,70%,90%);fill-opacity:1;stroke-width:1;stroke-linecap:butt;stroke-linejoin:miter;stroke:rgb(0%,0%,0%);stroke-opacity:1;stroke-miterlimit:10;" d="M 1045.214844 353 C 1045.214844 364.714844 1035.714844 374.214844 1024 374.214844 C 1012.285156 374.214844 1002.785156 364.714844 1002.785156 353 C 1002.785156 341.285156 1012.285156 331.785156 1024 331.785156 C 1035.714844 331.785156 1045.214844 341.285156 1045.214844 353 "/>
<path style="fill-rule:nonzero;fill:rgb(35%,70%,90%);fill-opacity:1;stroke-width:1;stroke-linecap:butt;stroke-linejoin:miter;stroke:rgb(0%,0%,0%);stroke-opacity:1;stroke-miterlimit:10;" d="M 816.214844 280 C 816.214844 291.714844 806.714844 301.214844 795 301.214844 C 783.285156 301.214844 773.785156 291.714844 773.785156 280 C 773.785156 268.285156 783.285156 258.785156 795 258.785156 C 806.714844 258.785156 816.214844 268.285156 816.214844 280 "/>
<path style="fill-rule:nonzero;fill:rgb(35%,70%,90%);fill-opacity:1;stroke-width:1;stroke-linecap:butt;stroke-linejoin:miter;stroke:rgb(0%,0%,0%);stroke-opacity:1;stroke-miterlimit:10;" d="M 163 404 L 192.664062 404 L 204.664062 375.785156 L 216.664062 404 L 246.332031 404 L 222.332031 421.4375 L 230.417969 452.980469 L 204.664062 435.542969 L 178.914062 452.980469 L 191.214844 421.4375 L 163 404 "/>
<path style="fill-rule:nonzero;fill:rgb(35%,70%,90%);fill-opacity:1;stroke-width:1;stroke-linecap:butt;stroke-linejoin:miter;stroke:rgb(0%,0%,0%);stroke-opacity:1;stroke-miterlimit:10;" d="M 987 160 L 1016.664062 160 L 1028.664062 131.785156 L 1040.664062 160 L 1070.332031 160 L 1046.332031 177.4375 L 1054.417969 208.980469 L 1028.664062 191.542969 L 1002.914062 208.980469 L 1015.214844 177.4375 L 987 160 "/>
<path style="fill-rule:nonzero;fill:rgb(35%,70%,90%);fill-opacity:1;stroke-width:1;stroke-linecap:butt;stroke-linejoin:miter;stroke:rgb(0%,0%,0%);stroke-opacity:1;stroke-miterlimit:10;" d="M 777 95 L 806.664062 95 L 818.664062 66.785156 L 830.664062 95 L 860.332031 95 L 836.332031 112.4375 L 844.417969 143.980469 L 818.664062 126.542969 L 792.914062 143.980469 L 805.214844 112.4375 L 777 95 "/>
<path style="fill-rule:nonzero;fill:rgb(35%,70%,90%);fill-opacity:1;stroke-width:1;stroke-linecap:butt;stroke-linejoin:miter;stroke:rgb(0%,0%,0%);stroke-opacity:1;stroke-miterlimit:10;" d="M 409 222 L 438.664062 222 L 450.664062 193.785156 L 462.664062 222 L 492.332031 222 L 468.332031 239.4375 L 476.417969 270.980469 L 450.664062 253.542969 L 424.914062 270.980469 L 437.214844 239.4375 L 409 222 "/>
</g>
</svg>
