<?xml version="1.0" encoding="UTF-8"?>
<svg xmlns="http://www.w3.org/2000/svg" xmlns:xlink="http://www.w3.org/1999/xlink" width="1179pt" height="517pt" viewBox="0 0 1179 517" version="1.1">
<g id="surface61">
<rect x="0" y="0" width="1179" height="517" style="fill:rgb(90%,90%,90%);fill-opacity:1;stroke:none;"/>
<path style="fill-rule:nonzero;fill:rgb(35%,70%,90%);fill-opacity:1;stroke-width:1;stroke-linecap:butt;stroke-linejoin:miter;stroke:rgb(0%,0%,0%);stroke-opacity:1;stroke-miterlimit:10;" d="M 246 415 L 275.664062 415 L 287.664062 386.785156 L 299.664062 415 L 329.332031 415 L 305.332031 432.4375 L 313.417969 463.980469 L 287.664062 446.542969 L 261.914062 463.980469 L 274.214844 432.4375 L 246 415 "/>
<path style="fill-rule:nonzero;fill:rgb(35%,70%,90%);fill-opacity:1;stroke-width:1;stroke-linecap:butt;stroke-linejoin:miter;stroke:rgb(0%,0%,0%);stroke-opacity:1;stroke-miterlimit:10;" d="M 456 315 L 485.664062 315 L 497.664062 286.785156 L 509.664062 315 L 539.332031 315 L 515.332031 332.4375 L 523.417969 363.980469 L 497.664062 346.542969 L 471.914062 363.980469 L 484.214844 332.4375 L 456 315 "/>
<path style="fill-rule:nonzero;fill:rgb(35%,70%,90%);fill-opacity:1;stroke-width:1;stroke-linecap:butt;stroke-linejoin:miter;stroke:rgb(0%,0%,0%);stroke-opacity:1;stroke-miterlimit:10;" d="M 692 250 L 721.664062 250 L 733.664062 221.785156 L 745.664062 250 L 775.332031 250 L 751.332031 267.4375 L 759.417969 298.980469 L 733.664062 281.542969 L 707.914062 298.980469 L 720.214844 267.4375 L 692 250 "/>
<path style="fill-rule:nonzero;fill:rgb(55%,51%,53%);fill-opacity:1;stroke-width:1;stroke-linecap:butt;stroke-linejoin:miter;stroke:rgb(0%,0%,0%);stroke-opacity:1;stroke-miterlimit:10;" d="M 864.214844 213 C 864.214844 224.714844 854.714844 234.214844 843 234.214844 C 831.285156 234.214844 821.785156 224.714844 821.785156 213 C 821.785156 201.285156 831.285156 191.785156 843 191.785156 C 854.714844 191.785156 864.214844 201.285156 864.214844 213 "/>
<path style="fill-rule:nonzero;fill:rgb(55%,51%,53%);fill-opacity:1;stroke-width:1;stroke-linecap:butt;stroke-linejoin:miter;stroke:rgb(0%,0%,0%);stroke-opacity:1;stroke-miterlimit:10;" d="M 469.214844 114 C 469.214844 125.714844 459.714844 135.214844 448 135.214844 C 436.285156 135.214844 426.785156 125.714844 426.785156 114 C 426.785156 102.285156 436.285156 92.785156 448 92.785156 C 459.714844 92.785156 469.214844 102.285156 469.214844 114 "/>
<path style="fill-rule:nonzero;fill:rgb(55%,51%,53%);fill-opacity:1;stroke-width:1;stroke-linecap:butt;stroke-linejoin:miter;stroke:rgb(0%,0%,0%);stroke-opacity:1;stroke-miterlimit:10;" d="M 743.214844 398 C 743.214844 409.714844 733.714844 419.214844 722 419.214844 C 710.285156 419.214844 700.785156 409.714844 700.785156 398 C 700.785156 386.285156 710.285156 376.785156 722 376.785156 C 733.714844 376.785156 743.214844 386.285156 743.214844 398 "/>
</g>
</svg>
