<?xml version="1.0" encoding="UTF-8"?>
<svg xmlns="http://www.w3.org/2000/svg" xmlns:xlink="http://www.w3.org/1999/xlink" width="1179pt" height="517pt" viewBox="0 0 1179 517" version="1.1">
<g id="surface1051">
<rect x="0" y="0" width="1179" height="517" style="fill:rgb(90%,90%,90%);fill-opacity:1;stroke:none;"/>
<path style="fill-rule:nonzero;fill:rgb(53%,27%,7%);fill-opacity:1;stroke-width:1;stroke-linecap:butt;stroke-linejoin:miter;stroke:rgb(0%,0%,0%);stroke-opacity:1;stroke-miterlimit:10;" d="M 751.214844 330 C 751.214844 341.714844 741.714844 351.214844 730 351.214844 C 718.285156 351.214844 708.785156 341.714844 708.785156 330 C 708.785156 318.285156 718.285156 308.785156 730 308.785156 C 741.714844 308.785156 751.214844 318.285156 751.214844 330 "/>
<path style="fill-rule:nonzero;fill:rgb(53%,27%,7%);fill-opacity:1;stroke-width:1;stroke-linecap:butt;stroke-linejoin:miter;stroke:rgb(0%,0%,0%);stroke-opacity:1;stroke-miterlimit:10;" d="M 484.214844 114 C 484.214844 125.714844 474.714844 135.214844 463 135.214844 C 451.285156 135.214844 441.785156 125.714844 441.785156 114 C 441.785156 102.285156 451.285156 92.785156 463 92.785156 C 474.714844 92.785156 484.214844 102.285156 484.214844 114 "/>
<path style="fill-rule:nonzero;fill:rgb(53%,27%,7%);fill-opacity:1;stroke-width:1;stroke-linecap:butt;stroke-linejoin:miter;stroke:rgb(0%,0%,0%);stroke-opacity:1;stroke-miterlimit:10;" d="M 890.214844 250 C 890.214844 261.714844 880.714844 271.214844 869 271.214844 C 857.285156 271.214844 847.785156 261.714844 847.785156 250 C 847.785156 238.285156 857.285156 228.785156 869 228.785156 C 880.714844 228.785156 890.214844 238.285156 890.214844 250 "/>
<path style="fill-rule:nonzero;fill:rgb(53%,27%,7%);fill-opacity:1;stroke-width:1;stroke-linecap:butt;stroke-linejoin:miter;stroke:rgb(0%,0%,0%);stroke-opacity:1;stroke-miterlimit:10;" d="M 337.214844 377 C 337.214844 388.714844 327.714844 398.214844 316 398.214844 C 304.285156 398.214844 294.785156 388.714844 294.785156 377 C 294.785156 365.285156 304.285156 355.785156 316 355.785156 C 327.714844 355.785156 337.214844 365.285156 337.214844 377 "/>
<path style="fill-rule:nonzero;fill:rgb(55%,51%,53%);fill-opacity:1;stroke-width:1;stroke-linecap:butt;stroke-linejoin:miter;stroke:rgb(0%,0%,0%);stroke-opacity:1;stroke-miterlimit:10;" d="M 187 378 L 161.019531 423 L 212.980469 423 L 187 378 "/>
<path style="fill-rule:nonzero;fill:rgb(55%,51%,53%);fill-opacity:1;stroke-width:1;stroke-linecap:butt;stroke-linejoin:miter;stroke:rgb(0%,0%,0%);stroke-opacity:1;stroke-miterlimit:10;" d="M 448 336 L 422.019531 381 L 473.980469 381 L 448 336 "/>
<path style="fill-rule:nonzero;fill:rgb(55%,51%,53%);fill-opacity:1;stroke-width:1;stroke-linecap:butt;stroke-linejoin:miter;stroke:rgb(0%,0%,0%);stroke-opacity:1;stroke-miterlimit:10;" d="M 922 60 L 896.019531 105 L 947.980469 105 L 922 60 "/>
</g>
</svg>
