<?xml version="1.0" encoding="UTF-8"?>
<svg xmlns="http://www.w3.org/2000/svg" xmlns:xlink="http://www.w3.org/1999/xlink" width="1179pt" height="517pt" viewBox="0 0 1179 517" version="1.1">
<g id="surface256">
<rect x="0" y="0" width="1179" height="517" style="fill:rgb(90%,90%,90%);fill-opacity:1;stroke:none;"/>
<path style="fill-rule:nonzero;fill:rgb(35%,70%,90%);fill-opacity:1;stroke-width:1;stroke-linecap:butt;stroke-linejoin:miter;stroke:rgb(0%,0%,0%);stroke-opacity:1;stroke-miterlimit:10;" d="M 351.214844 232 C 351.214844 243.714844 341.714844 253.214844 330 253.214844 C 318.285156 253.214844 308.785156 243.714844 308.785156 232 C 308.785156 220.285156 318.285156 210.785156 330 210.785156 C 341.714844 210.785156 351.214844 220.285156 351.214844 232 "/>
<path style="fill-rule:nonzero;fill:rgb(35%,70%,90%);fill-opacity:1;stroke-width:1;stroke-linecap:butt;stroke-linejoin:miter;stroke:rgb(0%,0%,0%);stroke-opacity:1;stroke-miterlimit:10;" d="M 376.214844 412 C 376.214844 423.714844 366.714844 433.214844 355 433.214844 C 343.285156 433.214844 333.785156 423.714844 333.785156 412 C 333.785156 400.285156 343.285156 390.785156 355 390.785156 C 366.714844 390.785156 376.214844 400.285156 376.214844 412 "/>
<path style="fill-rule:nonzero;fill:rgb(35%,70%,90%);fill-opacity:1;stroke-width:1;stroke-linecap:butt;stroke-linejoin:miter;stroke:rgb(0%,0%,0%);stroke-opacity:1;stroke-miterlimit:10;" d="M 329.214844 332 C 329.214844 343.714844 319.714844 353.214844 308 353.214844 C 296.285156 353.214844 286.785156 343.714844 286.785156 332 C 286.785156 320.285156 296.285156 310.785156 308 310.785156 C 319.714844 310.785156 329.214844 320.285156 329.214844 332 "/>
<path style="fill-rule:nonzero;fill:rgb(55%,51%,53%);fill-opacity:1;stroke-width:1;stroke-linecap:butt;stroke-linejoin:miter;stroke:rgb(0%,0%,0%);stroke-opacity:1;stroke-miterlimit:10;" d="M 229.214844 215 C 229.214844 226.714844 219.714844 236.214844 208 236.214844 C 196.285156 236.214844 186.785156 226.714844 186.785156 215 C 186.785156 203.285156 196.285156 193.785156 208 193.785156 C 219.714844 193.785156 229.214844 203.285156 229.214844 215 "/>
<path style="fill-rule:nonzero;fill:rgb(55%,51%,53%);fill-opacity:1;stroke-width:1;stroke-linecap:butt;stroke-linejoin:miter;stroke:rgb(0%,0%,0%);stroke-opacity:1;stroke-miterlimit:10;" d="M 882 371 L 856.019531 416 L 907.980469 416 L 882 371 "/>
<path style="fill-rule:nonzero;fill:rgb(55%,51%,53%);fill-opacity:1;stroke-width:1;stroke-linecap:butt;stroke-linejoin:miter;stroke:rgb(0%,0%,0%);stroke-opacity:1;stroke-miterlimit:10;" d="M 934 283 L 908.019531 328 L 959.980469 328 L 934 283 "/>
<path style="fill-rule:nonzero;fill:rgb(55%,51%,53%);fill-opacity:1;stroke-width:1;stroke-linecap:butt;stroke-linejoin:miter;stroke:rgb(0%,0%,0%);stroke-opacity:1;stroke-miterlimit:10;" d="M 1026 241 L 1000.019531 286 L 1051.980469 286 L 1026 241 "/>
<path style="fill-rule:nonzero;fill:rgb(35%,70%,90%);fill-opacity:1;stroke-width:1;stroke-linecap:butt;stroke-linejoin:miter;stroke:rgb(0%,0%,0%);stroke-opacity:1;stroke-miterlimit:10;" d="M 842 290 L 816.019531 335 L 867.980469 335 L 842 290 "/>
<path style="fill-rule:nonzero;fill:rgb(55%,51%,53%);fill-opacity:1;stroke-width:1;stroke-linecap:butt;stroke-linejoin:miter;stroke:rgb(0%,0%,0%);stroke-opacity:1;stroke-miterlimit:10;" d="M 748 268 L 722.019531 313 L 773.980469 313 L 748 268 "/>
</g>
</svg>
