<?xml version="1.0" encoding="UTF-8"?>
<svg xmlns="http://www.w3.org/2000/svg" xmlns:xlink="http://www.w3.org/1999/xlink" width="1179pt" height="517pt" viewBox="0 0 1179 517" version="1.1">
<g id="surface846">
<rect x="0" y="0" width="1179" height="517" style="fill:rgb(90%,90%,90%);fill-opacity:1;stroke:none;"/>
<path style="fill-rule:nonzero;fill:rgb(100%,0%,0%);fill-opacity:1;stroke-width:1;stroke-linecap:butt;stroke-linejoin:miter;stroke:rgb(0%,0%,0%);stroke-opacity:1;stroke-miterlimit:10;" d="M 1037 367.601562 C 1037 353.199219 1013 353.199219 1013 367.601562 C 1013 382 1037 384.398438 1037 396.398438 C 1037 384.398438 1061 382 1061 367.601562 C 1061 353.199219 1037 353.199219 1037 367.601562 "/>
<path style="fill-rule:nonzero;fill:rgb(100%,0%,0%);fill-opacity:1;stroke-width:1;stroke-linecap:butt;stroke-linejoin:miter;stroke:rgb(0%,0%,0%);stroke-opacity:1;stroke-miterlimit:10;" d="M 748 167.601562 C 748 153.199219 724 153.199219 724 167.601562 C 724 182 748 184.398438 748 196.398438 C 748 184.398438 772 182 772 167.601562 C 772 153.199219 748 153.199219 748 167.601562 "/>
<path style="fill-rule:nonzero;fill:rgb(100%,0%,0%);fill-opacity:1;stroke-width:1;stroke-linecap:butt;stroke-linejoin:miter;stroke:rgb(0%,0%,0%);stroke-opacity:1;stroke-miterlimit:10;" d="M 420 237.601562 C 420 223.199219 396 223.199219 396 237.601562 C 396 252 420 254.398438 420 266.398438 C 420 254.398438 444 252 444 237.601562 C 444 223.199219 420 223.199219 420 237.601562 "/>
<path style="fill-rule:nonzero;fill:rgb(0%,0%,0%);fill-opacity:1;stroke-width:1;stroke-linecap:butt;stroke-linejoin:miter;stroke:rgb(0%,0%,0%);stroke-opacity:1;stroke-miterlimit:10;" d="M 541 292 L 521 292 L 521 302 L 541 302 L 541 322 L 551 322 L 551 302 L 571 302 L 571 292 L 551 292 L 551 272 L 541 272 L 541 292 "/>
<path style="fill-rule:nonzero;fill:rgb(0%,0%,0%);fill-opacity:1;stroke-width:1;stroke-linecap:butt;stroke-linejoin:miter;stroke:rgb(0%,0%,0%);stroke-opacity:1;stroke-miterlimit:10;" d="M 915 194 L 895 194 L 895 204 L 915 204 L 915 224 L 925 224 L 925 204 L 945 204 L 945 194 L 925 194 L 925 174 L 915 174 L 915 194 "/>
<path style="fill-rule:nonzero;fill:rgb(0%,0%,0%);fill-opacity:1;stroke-width:1;stroke-linecap:butt;stroke-linejoin:miter;stroke:rgb(0%,0%,0%);stroke-opacity:1;stroke-miterlimit:10;" d="M 703 330 L 683 330 L 683 340 L 703 340 L 703 360 L 713 360 L 713 340 L 733 340 L 733 330 L 713 330 L 713 310 L 703 310 L 703 330 "/>
</g>
</svg>
