<?xml version="1.0" encoding="UTF-8"?>
<svg xmlns="http://www.w3.org/2000/svg" xmlns:xlink="http://www.w3.org/1999/xlink" width="1179pt" height="517pt" viewBox="0 0 1179 517" version="1.1">
<g id="surface451">
<rect x="0" y="0" width="1179" height="517" style="fill:rgb(90%,90%,90%);fill-opacity:1;stroke:none;"/>
<path style="fill-rule:nonzero;fill:rgb(100%,51%,0%);fill-opacity:1;stroke-width:1;stroke-linecap:butt;stroke-linejoin:miter;stroke:rgb(0%,0%,0%);stroke-opacity:1;stroke-miterlimit:10;" d="M 244 110 L 273.664062 110 L 285.664062 81.785156 L 297.664062 110 L 327.332031 110 L 303.332031 127.4375 L 311.417969 158.980469 L 285.664062 141.542969 L 259.914062 158.980469 L 272.214844 127.4375 L 244 110 "/>
<path style="fill-rule:nonzero;fill:rgb(100%,51%,0%);fill-opacity:1;stroke-width:1;stroke-linecap:butt;stroke-linejoin:miter;stroke:rgb(0%,0%,0%);stroke-opacity:1;stroke-miterlimit:10;" d="M 118 349 L 147.664062 349 L 159.664062 320.785156 L 171.664062 349 L 201.332031 349 L 177.332031 366.4375 L 185.417969 397.980469 L 159.664062 380.542969 L 133.914062 397.980469 L 146.214844 366.4375 L 118 349 "/>
<path style="fill-rule:nonzero;fill:rgb(100%,51%,0%);fill-opacity:1;stroke-width:1;stroke-linecap:butt;stroke-linejoin:miter;stroke:rgb(0%,0%,0%);stroke-opacity:1;stroke-miterlimit:10;" d="M 752 299 L 781.664062 299 L 793.664062 270.785156 L 805.664062 299 L 835.332031 299 L 811.332031 316.4375 L 819.417969 347.980469 L 793.664062 330.542969 L 767.914062 347.980469 L 780.214844 316.4375 L 752 299 "/>
<path style="fill-rule:nonzero;fill:rgb(100%,51%,0%);fill-opacity:1;stroke-width:1;stroke-linecap:butt;stroke-linejoin:miter;stroke:rgb(0%,0%,0%);stroke-opacity:1;stroke-miterlimit:10;" d="M 936 139 L 965.664062 139 L 977.664062 110.785156 L 989.664062 139 L 1019.332031 139 L 995.332031 156.4375 L 1003.417969 187.980469 L 977.664062 170.542969 L 951.914062 187.980469 L 964.214844 156.4375 L 936 139 "/>
<path style="fill-rule:nonzero;fill:rgb(53%,27%,7%);fill-opacity:1;stroke-width:1;stroke-linecap:butt;stroke-linejoin:miter;stroke:rgb(0%,0%,0%);stroke-opacity:1;stroke-miterlimit:10;" d="M 617.214844 267 C 617.214844 278.714844 607.714844 288.214844 596 288.214844 C 584.285156 288.214844 574.785156 278.714844 574.785156 267 C 574.785156 255.285156 584.285156 245.785156 596 245.785156 C 607.714844 245.785156 617.214844 255.285156 617.214844 267 "/>
<path style="fill-rule:nonzero;fill:rgb(53%,27%,7%);fill-opacity:1;stroke-width:1;stroke-linecap:butt;stroke-linejoin:miter;stroke:rgb(0%,0%,0%);stroke-opacity:1;stroke-miterlimit:10;" d="M 230.214844 247 C 230.214844 258.714844 220.714844 268.214844 209 268.214844 C 197.285156 268.214844 187.785156 258.714844 187.785156 247 C 187.785156 235.285156 197.285156 225.785156 209 225.785156 C 220.714844 225.785156 230.214844 235.285156 230.214844 247 "/>
<path style="fill-rule:nonzero;fill:rgb(53%,27%,7%);fill-opacity:1;stroke-width:1;stroke-linecap:butt;stroke-linejoin:miter;stroke:rgb(0%,0%,0%);stroke-opacity:1;stroke-miterlimit:10;" d="M 248.214844 406 C 248.214844 417.714844 238.714844 427.214844 227 427.214844 C 215.285156 427.214844 205.785156 417.714844 205.785156 406 C 205.785156 394.285156 215.285156 384.785156 227 384.785156 C 238.714844 384.785156 248.214844 394.285156 248.214844 406 "/>
<path style="fill-rule:nonzero;fill:rgb(53%,27%,7%);fill-opacity:1;stroke-width:1;stroke-linecap:butt;stroke-linejoin:miter;stroke:rgb(0%,0%,0%);stroke-opacity:1;stroke-miterlimit:10;" d="M 945.214844 382 C 945.214844 393.714844 935.714844 403.214844 924 403.214844 C 912.285156 403.214844 902.785156 393.714844 902.785156 382 C 902.785156 370.285156 912.285156 360.785156 924 360.785156 C 935.714844 360.785156 945.214844 370.285156 945.214844 382 "/>
</g>
</svg>
