<?xml version="1.0" encoding="UTF-8"?>
<svg xmlns="http://www.w3.org/2000/svg" xmlns:xlink="http://www.w3.org/1999/xlink" width="1179pt" height="517pt" viewBox="0 0 1179 517" version="1.1">
<g id="surface1246">
<rect x="0" y="0" width="1179" height="517" style="fill:rgb(90%,90%,90%);fill-opacity:1;stroke:none;"/>
<path style="fill-rule:nonzero;fill:rgb(100%,51%,0%);fill-opacity:1;stroke-width:1;stroke-linecap:butt;stroke-linejoin:miter;stroke:rgb(0%,0%,0%);stroke-opacity:1;stroke-miterlimit:10;" d="M 81 366 L 55.019531 411 L 106.980469 411 L 81 366 "/>
<path style="fill-rule:nonzero;fill:rgb(100%,51%,0%);fill-opacity:1;stroke-width:1;stroke-linecap:butt;stroke-linejoin:miter;stroke:rgb(0%,0%,0%);stroke-opacity:1;stroke-miterlimit:10;" d="M 807 271 L 781.019531 316 L 832.980469 316 L 807 271 "/>
<path style="fill-rule:nonzero;fill:rgb(100%,51%,0%);fill-opacity:1;stroke-width:1;stroke-linecap:butt;stroke-linejoin:miter;stroke:rgb(0%,0%,0%);stroke-opacity:1;stroke-miterlimit:10;" d="M 188 80 L 162.019531 125 L 213.980469 125 L 188 80 "/>
<path style="fill-rule:nonzero;fill:rgb(53%,27%,7%);fill-opacity:1;stroke-width:1;stroke-linecap:butt;stroke-linejoin:miter;stroke:rgb(0%,0%,0%);stroke-opacity:1;stroke-miterlimit:10;" d="M 501 190.601562 C 501 176.199219 477 176.199219 477 190.601562 C 477 205 501 207.398438 501 219.398438 C 501 207.398438 525 205 525 190.601562 C 525 176.199219 501 176.199219 501 190.601562 "/>
<path style="fill-rule:nonzero;fill:rgb(53%,27%,7%);fill-opacity:1;stroke-width:1;stroke-linecap:butt;stroke-linejoin:miter;stroke:rgb(0%,0%,0%);stroke-opacity:1;stroke-miterlimit:10;" d="M 187 299.601562 C 187 285.199219 163 285.199219 163 299.601562 C 163 314 187 316.398438 187 328.398438 C 187 316.398438 211 314 211 299.601562 C 211 285.199219 187 285.199219 187 299.601562 "/>
<path style="fill-rule:nonzero;fill:rgb(53%,27%,7%);fill-opacity:1;stroke-width:1;stroke-linecap:butt;stroke-linejoin:miter;stroke:rgb(0%,0%,0%);stroke-opacity:1;stroke-miterlimit:10;" d="M 322 256.601562 C 322 242.199219 298 242.199219 298 256.601562 C 298 271 322 273.398438 322 285.398438 C 322 273.398438 346 271 346 256.601562 C 346 242.199219 322 242.199219 322 256.601562 "/>
<path style="fill-rule:nonzero;fill:rgb(53%,27%,7%);fill-opacity:1;stroke-width:1;stroke-linecap:butt;stroke-linejoin:miter;stroke:rgb(0%,0%,0%);stroke-opacity:1;stroke-miterlimit:10;" d="M 999 210.601562 C 999 196.199219 975 196.199219 975 210.601562 C 975 225 999 227.398438 999 239.398438 C 999 227.398438 1023 225 1023 210.601562 C 1023 196.199219 999 196.199219 999 210.601562 "/>
<path style="fill-rule:nonzero;fill:rgb(53%,27%,7%);fill-opacity:1;stroke-width:1;stroke-linecap:butt;stroke-linejoin:miter;stroke:rgb(0%,0%,0%);stroke-opacity:1;stroke-miterlimit:10;" d="M 692 168.601562 C 692 154.199219 668 154.199219 668 168.601562 C 668 183 692 185.398438 692 197.398438 C 692 185.398438 716 183 716 168.601562 C 716 154.199219 692 154.199219 692 168.601562 "/>
</g>
</svg>
