<?xml version="1.0" encoding="UTF-8"?>
<svg xmlns="http://www.w3.org/2000/svg" xmlns:xlink="http://www.w3.org/1999/xlink" width="1179pt" height="517pt" viewBox="0 0 1179 517" version="1.1">
<g id="surface816">
<rect x="0" y="0" width="1179" height="517" style="fill:rgb(90%,90%,90%);fill-opacity:1;stroke:none;"/>
<path style="fill-rule:nonzero;fill:rgb(55%,51%,53%);fill-opacity:1;stroke-width:1;stroke-linecap:butt;stroke-linejoin:miter;stroke:rgb(0%,0%,0%);stroke-opacity:1;stroke-miterlimit:10;" d="M 742 130 L 716.019531 175 L 767.980469 175 L 742 130 "/>
<path style="fill-rule:nonzero;fill:rgb(55%,51%,53%);fill-opacity:1;stroke-width:1;stroke-linecap:butt;stroke-linejoin:miter;stroke:rgb(0%,0%,0%);stroke-opacity:1;stroke-miterlimit:10;" d="M 741 390 L 715.019531 435 L 766.980469 435 L 741 390 "/>
<path style="fill-rule:nonzero;fill:rgb(55%,51%,53%);fill-opacity:1;stroke-width:1;stroke-linecap:butt;stroke-linejoin:miter;stroke:rgb(0%,0%,0%);stroke-opacity:1;stroke-miterlimit:10;" d="M 297 182 L 271.019531 227 L 322.980469 227 L 297 182 "/>
<path style="fill-rule:nonzero;fill:rgb(55%,51%,53%);fill-opacity:1;stroke-width:1;stroke-linecap:butt;stroke-linejoin:miter;stroke:rgb(0%,0%,0%);stroke-opacity:1;stroke-miterlimit:10;" d="M 104 95 L 78.019531 140 L 129.980469 140 L 104 95 "/>
<path style="fill-rule:nonzero;fill:rgb(55%,51%,53%);fill-opacity:1;stroke-width:1;stroke-linecap:butt;stroke-linejoin:miter;stroke:rgb(0%,0%,0%);stroke-opacity:1;stroke-miterlimit:10;" d="M 911 165 L 885.019531 210 L 936.980469 210 L 911 165 "/>
<path style="fill-rule:nonzero;fill:rgb(100%,51%,0%);fill-opacity:1;stroke-width:1;stroke-linecap:butt;stroke-linejoin:miter;stroke:rgb(0%,0%,0%);stroke-opacity:1;stroke-miterlimit:10;" d="M 656 247 L 685.664062 247 L 697.664062 218.785156 L 709.664062 247 L 739.332031 247 L 715.332031 264.4375 L 723.417969 295.980469 L 697.664062 278.542969 L 671.914062 295.980469 L 684.214844 264.4375 L 656 247 "/>
<path style="fill-rule:nonzero;fill:rgb(100%,51%,0%);fill-opacity:1;stroke-width:1;stroke-linecap:butt;stroke-linejoin:miter;stroke:rgb(0%,0%,0%);stroke-opacity:1;stroke-miterlimit:10;" d="M 441 291 L 470.664062 291 L 482.664062 262.785156 L 494.664062 291 L 524.332031 291 L 500.332031 308.4375 L 508.417969 339.980469 L 482.664062 322.542969 L 456.914062 339.980469 L 469.214844 308.4375 L 441 291 "/>
<path style="fill-rule:nonzero;fill:rgb(100%,51%,0%);fill-opacity:1;stroke-width:1;stroke-linecap:butt;stroke-linejoin:miter;stroke:rgb(0%,0%,0%);stroke-opacity:1;stroke-miterlimit:10;" d="M 251 387 L 280.664062 387 L 292.664062 358.785156 L 304.664062 387 L 334.332031 387 L 310.332031 404.4375 L 318.417969 435.980469 L 292.664062 418.542969 L 266.914062 435.980469 L 279.214844 404.4375 L 251 387 "/>
<path style="fill-rule:nonzero;fill:rgb(100%,51%,0%);fill-opacity:1;stroke-width:1;stroke-linecap:butt;stroke-linejoin:miter;stroke:rgb(0%,0%,0%);stroke-opacity:1;stroke-miterlimit:10;" d="M 394 82 L 423.664062 82 L 435.664062 53.785156 L 447.664062 82 L 477.332031 82 L 453.332031 99.4375 L 461.417969 130.980469 L 435.664062 113.542969 L 409.914062 130.980469 L 422.214844 99.4375 L 394 82 "/>
</g>
</svg>
