<?xml version="1.0" encoding="UTF-8"?>
<svg xmlns="http://www.w3.org/2000/svg" xmlns:xlink="http://www.w3.org/1999/xlink" width="1179pt" height="517pt" viewBox="0 0 1179 517" version="1.1">
<g id="surface556">
<rect x="0" y="0" width="1179" height="517" style="fill:rgb(90%,90%,90%);fill-opacity:1;stroke:none;"/>
<path style="fill-rule:nonzero;fill:rgb(35%,70%,90%);fill-opacity:1;stroke-width:1;stroke-linecap:butt;stroke-linejoin:miter;stroke:rgb(0%,0%,0%);stroke-opacity:1;stroke-miterlimit:10;" d="M 452.214844 274 C 452.214844 285.714844 442.714844 295.214844 431 295.214844 C 419.285156 295.214844 409.785156 285.714844 409.785156 274 C 409.785156 262.285156 419.285156 252.785156 431 252.785156 C 442.714844 252.785156 452.214844 262.285156 452.214844 274 "/>
<path style="fill-rule:nonzero;fill:rgb(35%,70%,90%);fill-opacity:1;stroke-width:1;stroke-linecap:butt;stroke-linejoin:miter;stroke:rgb(0%,0%,0%);stroke-opacity:1;stroke-miterlimit:10;" d="M 299.214844 178 C 299.214844 189.714844 289.714844 199.214844 278 199.214844 C 266.285156 199.214844 256.785156 189.714844 256.785156 178 C 256.785156 166.285156 266.285156 156.785156 278 156.785156 C 289.714844 156.785156 299.214844 166.285156 299.214844 178 "/>
<path style="fill-rule:nonzero;fill:rgb(35%,70%,90%);fill-opacity:1;stroke-width:1;stroke-linecap:butt;stroke-linejoin:miter;stroke:rgb(0%,0%,0%);stroke-opacity:1;stroke-miterlimit:10;" d="M 154.214844 420 C 154.214844 431.714844 144.714844 441.214844 133 441.214844 C 121.285156 441.214844 111.785156 431.714844 111.785156 420 C 111.785156 408.285156 121.285156 398.785156 133 398.785156 C 144.714844 398.785156 154.214844 408.285156 154.214844 420 "/>
<path style="fill-rule:nonzero;fill:rgb(100%,51%,0%);fill-opacity:1;stroke-width:1;stroke-linecap:butt;stroke-linejoin:miter;stroke:rgb(0%,0%,0%);stroke-opacity:1;stroke-miterlimit:10;" d="M 404.214844 88 C 404.214844 99.714844 394.714844 109.214844 383 109.214844 C 371.285156 109.214844 361.785156 99.714844 361.785156 88 C 361.785156 76.285156 371.285156 66.785156 383 66.785156 C 394.714844 66.785156 404.214844 76.285156 404.214844 88 "/>
<path style="fill-rule:nonzero;fill:rgb(35%,70%,90%);fill-opacity:1;stroke-width:1;stroke-linecap:butt;stroke-linejoin:miter;stroke:rgb(0%,0%,0%);stroke-opacity:1;stroke-miterlimit:10;" d="M 340.214844 371 C 340.214844 382.714844 330.714844 392.214844 319 392.214844 C 307.285156 392.214844 297.785156 382.714844 297.785156 371 C 297.785156 359.285156 307.285156 349.785156 319 349.785156 C 330.714844 349.785156 340.214844 359.285156 340.214844 371 "/>
<path style="fill-rule:nonzero;fill:rgb(35%,70%,90%);fill-opacity:1;stroke-width:1;stroke-linecap:butt;stroke-linejoin:miter;stroke:rgb(0%,0%,0%);stroke-opacity:1;stroke-miterlimit:10;" d="M 138.214844 201 C 138.214844 212.714844 128.714844 222.214844 117 222.214844 C 105.285156 222.214844 95.785156 212.714844 95.785156 201 C 95.785156 189.285156 105.285156 179.785156 117 179.785156 C 128.714844 179.785156 138.214844 189.285156 138.214844 201 "/>
<path style="fill-rule:nonzero;fill:rgb(35%,70%,90%);fill-opacity:1;stroke-width:1;stroke-linecap:butt;stroke-linejoin:miter;stroke:rgb(0%,0%,0%);stroke-opacity:1;stroke-miterlimit:10;" d="M 250.214844 269 C 250.214844 280.714844 240.714844 290.214844 229 290.214844 C 217.285156 290.214844 207.785156 280.714844 207.785156 269 C 207.785156 257.285156 217.285156 247.785156 229 247.785156 C 240.714844 247.785156 250.214844 257.285156 250.214844 269 "/>
<path style="fill-rule:nonzero;fill:rgb(100%,51%,0%);fill-opacity:1;stroke-width:1;stroke-linecap:butt;stroke-linejoin:miter;stroke:rgb(0%,0%,0%);stroke-opacity:1;stroke-miterlimit:10;" d="M 1035 336 L 1009.019531 381 L 1060.980469 381 L 1035 336 "/>
<path style="fill-rule:nonzero;fill:rgb(100%,51%,0%);fill-opacity:1;stroke-width:1;stroke-linecap:butt;stroke-linejoin:miter;stroke:rgb(0%,0%,0%);stroke-opacity:1;stroke-miterlimit:10;" d="M 772 182 L 746.019531 227 L 797.980469 227 L 772 182 "/>
<path style="fill-rule:nonzero;fill:rgb(100%,51%,0%);fill-opacity:1;stroke-width:1;stroke-linecap:butt;stroke-linejoin:miter;stroke:rgb(0%,0%,0%);stroke-opacity:1;stroke-miterlimit:10;" d="M 908 208 L 882.019531 253 L 933.980469 253 L 908 208 "/>
<path style="fill-rule:nonzero;fill:rgb(35%,70%,90%);fill-opacity:1;stroke-width:1;stroke-linecap:butt;stroke-linejoin:miter;stroke:rgb(0%,0%,0%);stroke-opacity:1;stroke-miterlimit:10;" d="M 750 280 L 724.019531 325 L 775.980469 325 L 750 280 "/>
<path style="fill-rule:nonzero;fill:rgb(100%,51%,0%);fill-opacity:1;stroke-width:1;stroke-linecap:butt;stroke-linejoin:miter;stroke:rgb(0%,0%,0%);stroke-opacity:1;stroke-miterlimit:10;" d="M 927 107 L 901.019531 152 L 952.980469 152 L 927 107 "/>
</g>
</svg>
