<?xml version="1.0" encoding="UTF-8"?>
<svg xmlns="http://www.w3.org/2000/svg" xmlns:xlink="http://www.w3.org/1999/xlink" width="1179pt" height="517pt" viewBox="0 0 1179 517" version="1.1">
<g id="surface1026">
<rect x="0" y="0" width="1179" height="517" style="fill:rgb(90%,90%,90%);fill-opacity:1;stroke:none;"/>
<path style="fill-rule:nonzero;fill:rgb(55%,51%,53%);fill-opacity:1;stroke-width:1;stroke-linecap:butt;stroke-linejoin:miter;stroke:rgb(0%,0%,0%);stroke-opacity:1;stroke-miterlimit:10;" d="M 121.214844 217 C 121.214844 228.714844 111.714844 238.214844 100 238.214844 C 88.285156 238.214844 78.785156 228.714844 78.785156 217 C 78.785156 205.285156 88.285156 195.785156 100 195.785156 C 111.714844 195.785156 121.214844 205.285156 121.214844 217 "/>
<path style="fill-rule:nonzero;fill:rgb(55%,51%,53%);fill-opacity:1;stroke-width:1;stroke-linecap:butt;stroke-linejoin:miter;stroke:rgb(0%,0%,0%);stroke-opacity:1;stroke-miterlimit:10;" d="M 969.214844 130 C 969.214844 141.714844 959.714844 151.214844 948 151.214844 C 936.285156 151.214844 926.785156 141.714844 926.785156 130 C 926.785156 118.285156 936.285156 108.785156 948 108.785156 C 959.714844 108.785156 969.214844 118.285156 969.214844 130 "/>
<path style="fill-rule:nonzero;fill:rgb(55%,51%,53%);fill-opacity:1;stroke-width:1;stroke-linecap:butt;stroke-linejoin:miter;stroke:rgb(0%,0%,0%);stroke-opacity:1;stroke-miterlimit:10;" d="M 915.214844 306 C 915.214844 317.714844 905.714844 327.214844 894 327.214844 C 882.285156 327.214844 872.785156 317.714844 872.785156 306 C 872.785156 294.285156 882.285156 284.785156 894 284.785156 C 905.714844 284.785156 915.214844 294.285156 915.214844 306 "/>
<path style="fill-rule:nonzero;fill:rgb(100%,51%,0%);fill-opacity:1;stroke-width:1;stroke-linecap:butt;stroke-linejoin:miter;stroke:rgb(0%,0%,0%);stroke-opacity:1;stroke-miterlimit:10;" d="M 267 366.601562 C 267 352.199219 243 352.199219 243 366.601562 C 243 381 267 383.398438 267 395.398438 C 267 383.398438 291 381 291 366.601562 C 291 352.199219 267 352.199219 267 366.601562 "/>
<path style="fill-rule:nonzero;fill:rgb(100%,51%,0%);fill-opacity:1;stroke-width:1;stroke-linecap:butt;stroke-linejoin:miter;stroke:rgb(0%,0%,0%);stroke-opacity:1;stroke-miterlimit:10;" d="M 338 190.601562 C 338 176.199219 314 176.199219 314 190.601562 C 314 205 338 207.398438 338 219.398438 C 338 207.398438 362 205 362 190.601562 C 362 176.199219 338 176.199219 338 190.601562 "/>
<path style="fill-rule:nonzero;fill:rgb(100%,51%,0%);fill-opacity:1;stroke-width:1;stroke-linecap:butt;stroke-linejoin:miter;stroke:rgb(0%,0%,0%);stroke-opacity:1;stroke-miterlimit:10;" d="M 612 410.601562 C 612 396.199219 588 396.199219 588 410.601562 C 588 425 612 427.398438 612 439.398438 C 612 427.398438 636 425 636 410.601562 C 636 396.199219 612 396.199219 612 410.601562 "/>
<path style="fill-rule:nonzero;fill:rgb(100%,51%,0%);fill-opacity:1;stroke-width:1;stroke-linecap:butt;stroke-linejoin:miter;stroke:rgb(0%,0%,0%);stroke-opacity:1;stroke-miterlimit:10;" d="M 602 230.601562 C 602 216.199219 578 216.199219 578 230.601562 C 578 245 602 247.398438 602 259.398438 C 602 247.398438 626 245 626 230.601562 C 626 216.199219 602 216.199219 602 230.601562 "/>
</g>
</svg>
