<?xml version="1.0" encoding="UTF-8"?>
<svg xmlns="http://www.w3.org/2000/svg" xmlns:xlink="http://www.w3.org/1999/xlink" width="1179pt" height="517pt" viewBox="0 0 1179 517" version="1.1">
<g id="surface1051">
<rect x="0" y="0" width="1179" height="517" style="fill:rgb(90%,90%,90%);fill-opacity:1;stroke:none;"/>
<path style="fill-rule:nonzero;fill:rgb(53%,27%,7%);fill-opacity:1;stroke-width:1;stroke-linecap:butt;stroke-linejoin:miter;stroke:rgb(0%,0%,0%);stroke-opacity:1;stroke-miterlimit:10;" d="M 894.214844 160 C 894.214844 171.714844 884.714844 181.214844 873 181.214844 C 861.285156 181.214844 851.785156 171.714844 851.785156 160 C 851.785156 148.285156 861.285156 138.785156 873 138.785156 C 884.714844 138.785156 894.214844 148.285156 894.214844 160 "/>
<path style="fill-rule:nonzero;fill:rgb(53%,27%,7%);fill-opacity:1;stroke-width:1;stroke-linecap:butt;stroke-linejoin:miter;stroke:rgb(0%,0%,0%);stroke-opacity:1;stroke-miterlimit:10;" d="M 589.214844 352 C 589.214844 363.714844 579.714844 373.214844 568 373.214844 C 556.285156 373.214844 546.785156 363.714844 546.785156 352 C 546.785156 340.285156 556.285156 330.785156 568 330.785156 C 579.714844 330.785156 589.214844 340.285156 589.214844 352 "/>
<path style="fill-rule:nonzero;fill:rgb(53%,27%,7%);fill-opacity:1;stroke-width:1;stroke-linecap:butt;stroke-linejoin:miter;stroke:rgb(0%,0%,0%);stroke-opacity:1;stroke-miterlimit:10;" d="M 389.214844 179 C 389.214844 190.714844 379.714844 200.214844 368 200.214844 C 356.285156 200.214844 346.785156 190.714844 346.785156 179 C 346.785156 167.285156 356.285156 157.785156 368 157.785156 C 379.714844 157.785156 389.214844 167.285156 389.214844 179 "/>
<path style="fill-rule:nonzero;fill:rgb(53%,27%,7%);fill-opacity:1;stroke-width:1;stroke-linecap:butt;stroke-linejoin:miter;stroke:rgb(0%,0%,0%);stroke-opacity:1;stroke-miterlimit:10;" d="M 640.214844 201 C 640.214844 212.714844 630.714844 222.214844 619 222.214844 C 607.285156 222.214844 597.785156 212.714844 597.785156 201 C 597.785156 189.285156 607.285156 179.785156 619 179.785156 C 630.714844 179.785156 640.214844 189.285156 640.214844 201 "/>
<path style="fill-rule:nonzero;fill:rgb(55%,51%,53%);fill-opacity:1;stroke-width:1;stroke-linecap:butt;stroke-linejoin:miter;stroke:rgb(0%,0%,0%);stroke-opacity:1;stroke-miterlimit:10;" d="M 932 386 L 906.019531 431 L 957.980469 431 L 932 386 "/>
<path style="fill-rule:nonzero;fill:rgb(55%,51%,53%);fill-opacity:1;stroke-width:1;stroke-linecap:butt;stroke-linejoin:miter;stroke:rgb(0%,0%,0%);stroke-opacity:1;stroke-miterlimit:10;" d="M 215 63 L 189.019531 108 L 240.980469 108 L 215 63 "/>
<path style="fill-rule:nonzero;fill:rgb(55%,51%,53%);fill-opacity:1;stroke-width:1;stroke-linecap:butt;stroke-linejoin:miter;stroke:rgb(0%,0%,0%);stroke-opacity:1;stroke-miterlimit:10;" d="M 475 239 L 449.019531 284 L 500.980469 284 L 475 239 "/>
</g>
</svg>
