<?xml version="1.0" encoding="UTF-8"?>
<svg xmlns="http://www.w3.org/2000/svg" xmlns:xlink="http://www.w3.org/1999/xlink" width="1179pt" height="517pt" viewBox="0 0 1179 517" version="1.1">
<g id="surface851">
<rect x="0" y="0" width="1179" height="517" style="fill:rgb(90%,90%,90%);fill-opacity:1;stroke:none;"/>
<path style="fill-rule:nonzero;fill:rgb(53%,27%,7%);fill-opacity:1;stroke-width:1;stroke-linecap:butt;stroke-linejoin:miter;stroke:rgb(0%,0%,0%);stroke-opacity:1;stroke-miterlimit:10;" d="M 391 195.601562 C 391 181.199219 367 181.199219 367 195.601562 C 367 210 391 212.398438 391 224.398438 C 391 212.398438 415 210 415 195.601562 C 415 181.199219 391 181.199219 391 195.601562 "/>
<path style="fill-rule:nonzero;fill:rgb(53%,27%,7%);fill-opacity:1;stroke-width:1;stroke-linecap:butt;stroke-linejoin:miter;stroke:rgb(0%,0%,0%);stroke-opacity:1;stroke-miterlimit:10;" d="M 321.214844 218 C 321.214844 229.714844 311.714844 239.214844 300 239.214844 C 288.285156 239.214844 278.785156 229.714844 278.785156 218 C 278.785156 206.285156 288.285156 196.785156 300 196.785156 C 311.714844 196.785156 321.214844 206.285156 321.214844 218 "/>
<path style="fill-rule:nonzero;fill:rgb(53%,27%,7%);fill-opacity:1;stroke-width:1;stroke-linecap:butt;stroke-linejoin:miter;stroke:rgb(0%,0%,0%);stroke-opacity:1;stroke-miterlimit:10;" d="M 217 121.601562 C 217 107.199219 193 107.199219 193 121.601562 C 193 136 217 138.398438 217 150.398438 C 217 138.398438 241 136 241 121.601562 C 241 107.199219 217 107.199219 217 121.601562 "/>
<path style="fill-rule:nonzero;fill:rgb(53%,27%,7%);fill-opacity:1;stroke-width:1;stroke-linecap:butt;stroke-linejoin:miter;stroke:rgb(0%,0%,0%);stroke-opacity:1;stroke-miterlimit:10;" d="M 100 177.601562 C 100 163.199219 76 163.199219 76 177.601562 C 76 192 100 194.398438 100 206.398438 C 100 194.398438 124 192 124 177.601562 C 124 163.199219 100 163.199219 100 177.601562 "/>
<path style="fill-rule:nonzero;fill:rgb(100%,51%,0%);fill-opacity:1;stroke-width:1;stroke-linecap:butt;stroke-linejoin:miter;stroke:rgb(0%,0%,0%);stroke-opacity:1;stroke-miterlimit:10;" d="M 994.214844 102 C 994.214844 113.714844 984.714844 123.214844 973 123.214844 C 961.285156 123.214844 951.785156 113.714844 951.785156 102 C 951.785156 90.285156 961.285156 80.785156 973 80.785156 C 984.714844 80.785156 994.214844 90.285156 994.214844 102 "/>
<path style="fill-rule:nonzero;fill:rgb(100%,51%,0%);fill-opacity:1;stroke-width:1;stroke-linecap:butt;stroke-linejoin:miter;stroke:rgb(0%,0%,0%);stroke-opacity:1;stroke-miterlimit:10;" d="M 939 329.601562 C 939 315.199219 915 315.199219 915 329.601562 C 915 344 939 346.398438 939 358.398438 C 939 346.398438 963 344 963 329.601562 C 963 315.199219 939 315.199219 939 329.601562 "/>
<path style="fill-rule:nonzero;fill:rgb(100%,51%,0%);fill-opacity:1;stroke-width:1;stroke-linecap:butt;stroke-linejoin:miter;stroke:rgb(0%,0%,0%);stroke-opacity:1;stroke-miterlimit:10;" d="M 757.214844 182 C 757.214844 193.714844 747.714844 203.214844 736 203.214844 C 724.285156 203.214844 714.785156 193.714844 714.785156 182 C 714.785156 170.285156 724.285156 160.785156 736 160.785156 C 747.714844 160.785156 757.214844 170.285156 757.214844 182 "/>
</g>
</svg>
