<?xml version="1.0" encoding="UTF-8"?>
<svg xmlns="http://www.w3.org/2000/svg" xmlns:xlink="http://www.w3.org/1999/xlink" width="1179pt" height="517pt" viewBox="0 0 1179 517" version="1.1">
<g id="surface1221">
<rect x="0" y="0" width="1179" height="517" style="fill:rgb(90%,90%,90%);fill-opacity:1;stroke:none;"/>
<path style="fill-rule:nonzero;fill:rgb(100%,51%,0%);fill-opacity:1;stroke-width:1;stroke-linecap:butt;stroke-linejoin:miter;stroke:rgb(0%,0%,0%);stroke-opacity:1;stroke-miterlimit:10;" d="M 227 307 L 256.664062 307 L 268.664062 278.785156 L 280.664062 307 L 310.332031 307 L 286.332031 324.4375 L 294.417969 355.980469 L 268.664062 338.542969 L 242.914062 355.980469 L 255.214844 324.4375 L 227 307 "/>
<path style="fill-rule:nonzero;fill:rgb(100%,51%,0%);fill-opacity:1;stroke-width:1;stroke-linecap:butt;stroke-linejoin:miter;stroke:rgb(0%,0%,0%);stroke-opacity:1;stroke-miterlimit:10;" d="M 609 99 L 638.664062 99 L 650.664062 70.785156 L 662.664062 99 L 692.332031 99 L 668.332031 116.4375 L 676.417969 147.980469 L 650.664062 130.542969 L 624.914062 147.980469 L 637.214844 116.4375 L 609 99 "/>
<path style="fill-rule:nonzero;fill:rgb(100%,51%,0%);fill-opacity:1;stroke-width:1;stroke-linecap:butt;stroke-linejoin:miter;stroke:rgb(0%,0%,0%);stroke-opacity:1;stroke-miterlimit:10;" d="M 498 304 L 527.664062 304 L 539.664062 275.785156 L 551.664062 304 L 581.332031 304 L 557.332031 321.4375 L 565.417969 352.980469 L 539.664062 335.542969 L 513.914062 352.980469 L 526.214844 321.4375 L 498 304 "/>
<path style="fill-rule:nonzero;fill:rgb(100%,51%,0%);fill-opacity:1;stroke-width:1;stroke-linecap:butt;stroke-linejoin:miter;stroke:rgb(0%,0%,0%);stroke-opacity:1;stroke-miterlimit:10;" d="M 906 187 L 935.664062 187 L 947.664062 158.785156 L 959.664062 187 L 989.332031 187 L 965.332031 204.4375 L 973.417969 235.980469 L 947.664062 218.542969 L 921.914062 235.980469 L 934.214844 204.4375 L 906 187 "/>
<path style="fill-rule:nonzero;fill:rgb(55%,51%,53%);fill-opacity:1;stroke-width:1;stroke-linecap:butt;stroke-linejoin:miter;stroke:rgb(0%,0%,0%);stroke-opacity:1;stroke-miterlimit:10;" d="M 1028.214844 118 C 1028.214844 129.714844 1018.714844 139.214844 1007 139.214844 C 995.285156 139.214844 985.785156 129.714844 985.785156 118 C 985.785156 106.285156 995.285156 96.785156 1007 96.785156 C 1018.714844 96.785156 1028.214844 106.285156 1028.214844 118 "/>
<path style="fill-rule:nonzero;fill:rgb(55%,51%,53%);fill-opacity:1;stroke-width:1;stroke-linecap:butt;stroke-linejoin:miter;stroke:rgb(0%,0%,0%);stroke-opacity:1;stroke-miterlimit:10;" d="M 366.214844 109 C 366.214844 120.714844 356.714844 130.214844 345 130.214844 C 333.285156 130.214844 323.785156 120.714844 323.785156 109 C 323.785156 97.285156 333.285156 87.785156 345 87.785156 C 356.714844 87.785156 366.214844 97.285156 366.214844 109 "/>
<path style="fill-rule:nonzero;fill:rgb(55%,51%,53%);fill-opacity:1;stroke-width:1;stroke-linecap:butt;stroke-linejoin:miter;stroke:rgb(0%,0%,0%);stroke-opacity:1;stroke-miterlimit:10;" d="M 1000.214844 295 C 1000.214844 306.714844 990.714844 316.214844 979 316.214844 C 967.285156 316.214844 957.785156 306.714844 957.785156 295 C 957.785156 283.285156 967.285156 273.785156 979 273.785156 C 990.714844 273.785156 1000.214844 283.285156 1000.214844 295 "/>
<path style="fill-rule:nonzero;fill:rgb(55%,51%,53%);fill-opacity:1;stroke-width:1;stroke-linecap:butt;stroke-linejoin:miter;stroke:rgb(0%,0%,0%);stroke-opacity:1;stroke-miterlimit:10;" d="M 731.214844 415 C 731.214844 426.714844 721.714844 436.214844 710 436.214844 C 698.285156 436.214844 688.785156 426.714844 688.785156 415 C 688.785156 403.285156 698.285156 393.785156 710 393.785156 C 721.714844 393.785156 731.214844 403.285156 731.214844 415 "/>
<path style="fill-rule:nonzero;fill:rgb(55%,51%,53%);fill-opacity:1;stroke-width:1;stroke-linecap:butt;stroke-linejoin:miter;stroke:rgb(0%,0%,0%);stroke-opacity:1;stroke-miterlimit:10;" d="M 206.214844 88 C 206.214844 99.714844 196.714844 109.214844 185 109.214844 C 173.285156 109.214844 163.785156 99.714844 163.785156 88 C 163.785156 76.285156 173.285156 66.785156 185 66.785156 C 196.714844 66.785156 206.214844 76.285156 206.214844 88 "/>
</g>
</svg>
