<?xml version="1.0" encoding="UTF-8"?>
<svg xmlns="http://www.w3.org/2000/svg" xmlns:xlink="http://www.w3.org/1999/xlink" width="1179pt" height="517pt" viewBox="0 0 1179 517" version="1.1">
<g id="surface181">
<rect x="0" y="0" width="1179" height="517" style="fill:rgb(90%,90%,90%);fill-opacity:1;stroke:none;"/>
<path style="fill-rule:nonzero;fill:rgb(35%,70%,90%);fill-opacity:1;stroke-width:1;stroke-linecap:butt;stroke-linejoin:miter;stroke:rgb(0%,0%,0%);stroke-opacity:1;stroke-miterlimit:10;" d="M 266 351 L 295.664062 351 L 307.664062 322.785156 L 319.664062 351 L 349.332031 351 L 325.332031 368.4375 L 333.417969 399.980469 L 307.664062 382.542969 L 281.914062 399.980469 L 294.214844 368.4375 L 266 351 "/>
<path style="fill-rule:nonzero;fill:rgb(100%,51%,0%);fill-opacity:1;stroke-width:1;stroke-linecap:butt;stroke-linejoin:miter;stroke:rgb(0%,0%,0%);stroke-opacity:1;stroke-miterlimit:10;" d="M 113.214844 329 C 113.214844 340.714844 103.714844 350.214844 92 350.214844 C 80.285156 350.214844 70.785156 340.714844 70.785156 329 C 70.785156 317.285156 80.285156 307.785156 92 307.785156 C 103.714844 307.785156 113.214844 317.285156 113.214844 329 "/>
<path style="fill-rule:nonzero;fill:rgb(35%,70%,90%);fill-opacity:1;stroke-width:1;stroke-linecap:butt;stroke-linejoin:miter;stroke:rgb(0%,0%,0%);stroke-opacity:1;stroke-miterlimit:10;" d="M 361 348 L 390.664062 348 L 402.664062 319.785156 L 414.664062 348 L 444.332031 348 L 420.332031 365.4375 L 428.417969 396.980469 L 402.664062 379.542969 L 376.914062 396.980469 L 389.214844 365.4375 L 361 348 "/>
<path style="fill-rule:nonzero;fill:rgb(100%,51%,0%);fill-opacity:1;stroke-width:1;stroke-linecap:butt;stroke-linejoin:miter;stroke:rgb(0%,0%,0%);stroke-opacity:1;stroke-miterlimit:10;" d="M 133.214844 177 C 133.214844 188.714844 123.714844 198.214844 112 198.214844 C 100.285156 198.214844 90.785156 188.714844 90.785156 177 C 90.785156 165.285156 100.285156 155.785156 112 155.785156 C 123.714844 155.785156 133.214844 165.285156 133.214844 177 "/>
<path style="fill-rule:nonzero;fill:rgb(35%,70%,90%);fill-opacity:1;stroke-width:1;stroke-linecap:butt;stroke-linejoin:miter;stroke:rgb(0%,0%,0%);stroke-opacity:1;stroke-miterlimit:10;" d="M 165 89 L 194.664062 89 L 206.664062 60.785156 L 218.664062 89 L 248.332031 89 L 224.332031 106.4375 L 232.417969 137.980469 L 206.664062 120.542969 L 180.914062 137.980469 L 193.214844 106.4375 L 165 89 "/>
<path style="fill-rule:nonzero;fill:rgb(100%,51%,0%);fill-opacity:1;stroke-width:1;stroke-linecap:butt;stroke-linejoin:miter;stroke:rgb(0%,0%,0%);stroke-opacity:1;stroke-miterlimit:10;" d="M 359.214844 125 C 359.214844 136.714844 349.714844 146.214844 338 146.214844 C 326.285156 146.214844 316.785156 136.714844 316.785156 125 C 316.785156 113.285156 326.285156 103.785156 338 103.785156 C 349.714844 103.785156 359.214844 113.285156 359.214844 125 "/>
<path style="fill-rule:nonzero;fill:rgb(100%,51%,0%);fill-opacity:1;stroke-width:1;stroke-linecap:butt;stroke-linejoin:miter;stroke:rgb(0%,0%,0%);stroke-opacity:1;stroke-miterlimit:10;" d="M 1000.214844 374 C 1000.214844 385.714844 990.714844 395.214844 979 395.214844 C 967.285156 395.214844 957.785156 385.714844 957.785156 374 C 957.785156 362.285156 967.285156 352.785156 979 352.785156 C 990.714844 352.785156 1000.214844 362.285156 1000.214844 374 "/>
<path style="fill-rule:nonzero;fill:rgb(100%,51%,0%);fill-opacity:1;stroke-width:1;stroke-linecap:butt;stroke-linejoin:miter;stroke:rgb(0%,0%,0%);stroke-opacity:1;stroke-miterlimit:10;" d="M 923.214844 271 C 923.214844 282.714844 913.714844 292.214844 902 292.214844 C 890.285156 292.214844 880.785156 282.714844 880.785156 271 C 880.785156 259.285156 890.285156 249.785156 902 249.785156 C 913.714844 249.785156 923.214844 259.285156 923.214844 271 "/>
<path style="fill-rule:nonzero;fill:rgb(100%,51%,0%);fill-opacity:1;stroke-width:1;stroke-linecap:butt;stroke-linejoin:miter;stroke:rgb(0%,0%,0%);stroke-opacity:1;stroke-miterlimit:10;" d="M 896.214844 420 C 896.214844 431.714844 886.714844 441.214844 875 441.214844 C 863.285156 441.214844 853.785156 431.714844 853.785156 420 C 853.785156 408.285156 863.285156 398.785156 875 398.785156 C 886.714844 398.785156 896.214844 408.285156 896.214844 420 "/>
<path style="fill-rule:nonzero;fill:rgb(35%,70%,90%);fill-opacity:1;stroke-width:1;stroke-linecap:butt;stroke-linejoin:miter;stroke:rgb(0%,0%,0%);stroke-opacity:1;stroke-miterlimit:10;" d="M 779 162 L 808.664062 162 L 820.664062 133.785156 L 832.664062 162 L 862.332031 162 L 838.332031 179.4375 L 846.417969 210.980469 L 820.664062 193.542969 L 794.914062 210.980469 L 807.214844 179.4375 L 779 162 "/>
<path style="fill-rule:nonzero;fill:rgb(100%,51%,0%);fill-opacity:1;stroke-width:1;stroke-linecap:butt;stroke-linejoin:miter;stroke:rgb(0%,0%,0%);stroke-opacity:1;stroke-miterlimit:10;" d="M 881.214844 120 C 881.214844 131.714844 871.714844 141.214844 860 141.214844 C 848.285156 141.214844 838.785156 131.714844 838.785156 120 C 838.785156 108.285156 848.285156 98.785156 860 98.785156 C 871.714844 98.785156 881.214844 108.285156 881.214844 120 "/>
<path style="fill-rule:nonzero;fill:rgb(35%,70%,90%);fill-opacity:1;stroke-width:1;stroke-linecap:butt;stroke-linejoin:miter;stroke:rgb(0%,0%,0%);stroke-opacity:1;stroke-miterlimit:10;" d="M 961 105 L 990.664062 105 L 1002.664062 76.785156 L 1014.664062 105 L 1044.332031 105 L 1020.332031 122.4375 L 1028.417969 153.980469 L 1002.664062 136.542969 L 976.914062 153.980469 L 989.214844 122.4375 L 961 105 "/>
<path style="fill-rule:nonzero;fill:rgb(35%,70%,90%);fill-opacity:1;stroke-width:1;stroke-linecap:butt;stroke-linejoin:miter;stroke:rgb(0%,0%,0%);stroke-opacity:1;stroke-miterlimit:10;" d="M 1044 255 L 1073.664062 255 L 1085.664062 226.785156 L 1097.664062 255 L 1127.332031 255 L 1103.332031 272.4375 L 1111.417969 303.980469 L 1085.664062 286.542969 L 1059.914062 303.980469 L 1072.214844 272.4375 L 1044 255 "/>
</g>
</svg>
