<?xml version="1.0" encoding="UTF-8"?>
<svg xmlns="http://www.w3.org/2000/svg" xmlns:xlink="http://www.w3.org/1999/xlink" width="1179pt" height="517pt" viewBox="0 0 1179 517" version="1.1">
<g id="surface121">
<rect x="0" y="0" width="1179" height="517" style="fill:rgb(90%,90%,90%);fill-opacity:1;stroke:none;"/>
<path style="fill-rule:nonzero;fill:rgb(100%,51%,0%);fill-opacity:1;stroke-width:1;stroke-linecap:butt;stroke-linejoin:miter;stroke:rgb(0%,0%,0%);stroke-opacity:1;stroke-miterlimit:10;" d="M 953 143 L 982.664062 143 L 994.664062 114.785156 L 1006.664062 143 L 1036.332031 143 L 1012.332031 160.4375 L 1020.417969 191.980469 L 994.664062 174.542969 L 968.914062 191.980469 L 981.214844 160.4375 L 953 143 "/>
<path style="fill-rule:nonzero;fill:rgb(100%,51%,0%);fill-opacity:1;stroke-width:1;stroke-linecap:butt;stroke-linejoin:miter;stroke:rgb(0%,0%,0%);stroke-opacity:1;stroke-miterlimit:10;" d="M 267 202 L 296.664062 202 L 308.664062 173.785156 L 320.664062 202 L 350.332031 202 L 326.332031 219.4375 L 334.417969 250.980469 L 308.664062 233.542969 L 282.914062 250.980469 L 295.214844 219.4375 L 267 202 "/>
<path style="fill-rule:nonzero;fill:rgb(100%,51%,0%);fill-opacity:1;stroke-width:1;stroke-linecap:butt;stroke-linejoin:miter;stroke:rgb(0%,0%,0%);stroke-opacity:1;stroke-miterlimit:10;" d="M 840 372 L 869.664062 372 L 881.664062 343.785156 L 893.664062 372 L 923.332031 372 L 899.332031 389.4375 L 907.417969 420.980469 L 881.664062 403.542969 L 855.914062 420.980469 L 868.214844 389.4375 L 840 372 "/>
<path style="fill-rule:nonzero;fill:rgb(100%,51%,0%);fill-opacity:1;stroke-width:1;stroke-linecap:butt;stroke-linejoin:miter;stroke:rgb(0%,0%,0%);stroke-opacity:1;stroke-miterlimit:10;" d="M 566 249 L 595.664062 249 L 607.664062 220.785156 L 619.664062 249 L 649.332031 249 L 625.332031 266.4375 L 633.417969 297.980469 L 607.664062 280.542969 L 581.914062 297.980469 L 594.214844 266.4375 L 566 249 "/>
<path style="fill-rule:nonzero;fill:rgb(55%,51%,53%);fill-opacity:1;stroke-width:1;stroke-linecap:butt;stroke-linejoin:miter;stroke:rgb(0%,0%,0%);stroke-opacity:1;stroke-miterlimit:10;" d="M 660.214844 358 C 660.214844 369.714844 650.714844 379.214844 639 379.214844 C 627.285156 379.214844 617.785156 369.714844 617.785156 358 C 617.785156 346.285156 627.285156 336.785156 639 336.785156 C 650.714844 336.785156 660.214844 346.285156 660.214844 358 "/>
<path style="fill-rule:nonzero;fill:rgb(55%,51%,53%);fill-opacity:1;stroke-width:1;stroke-linecap:butt;stroke-linejoin:miter;stroke:rgb(0%,0%,0%);stroke-opacity:1;stroke-miterlimit:10;" d="M 1000.214844 429 C 1000.214844 440.714844 990.714844 450.214844 979 450.214844 C 967.285156 450.214844 957.785156 440.714844 957.785156 429 C 957.785156 417.285156 967.285156 407.785156 979 407.785156 C 990.714844 407.785156 1000.214844 417.285156 1000.214844 429 "/>
<path style="fill-rule:nonzero;fill:rgb(55%,51%,53%);fill-opacity:1;stroke-width:1;stroke-linecap:butt;stroke-linejoin:miter;stroke:rgb(0%,0%,0%);stroke-opacity:1;stroke-miterlimit:10;" d="M 480.214844 316 C 480.214844 327.714844 470.714844 337.214844 459 337.214844 C 447.285156 337.214844 437.785156 327.714844 437.785156 316 C 437.785156 304.285156 447.285156 294.785156 459 294.785156 C 470.714844 294.785156 480.214844 304.285156 480.214844 316 "/>
<path style="fill-rule:nonzero;fill:rgb(55%,51%,53%);fill-opacity:1;stroke-width:1;stroke-linecap:butt;stroke-linejoin:miter;stroke:rgb(0%,0%,0%);stroke-opacity:1;stroke-miterlimit:10;" d="M 203.214844 288 C 203.214844 299.714844 193.714844 309.214844 182 309.214844 C 170.285156 309.214844 160.785156 299.714844 160.785156 288 C 160.785156 276.285156 170.285156 266.785156 182 266.785156 C 193.714844 266.785156 203.214844 276.285156 203.214844 288 "/>
<path style="fill-rule:nonzero;fill:rgb(55%,51%,53%);fill-opacity:1;stroke-width:1;stroke-linecap:butt;stroke-linejoin:miter;stroke:rgb(0%,0%,0%);stroke-opacity:1;stroke-miterlimit:10;" d="M 228.214844 94 C 228.214844 105.714844 218.714844 115.214844 207 115.214844 C 195.285156 115.214844 185.785156 105.714844 185.785156 94 C 185.785156 82.285156 195.285156 72.785156 207 72.785156 C 218.714844 72.785156 228.214844 82.285156 228.214844 94 "/>
</g>
</svg>
