<?xml version="1.0" encoding="UTF-8"?>
<svg xmlns="http://www.w3.org/2000/svg" xmlns:xlink="http://www.w3.org/1999/xlink" width="1179pt" height="517pt" viewBox="0 0 1179 517" version="1.1">
<g id="surface581">
<rect x="0" y="0" width="1179" height="517" style="fill:rgb(90%,90%,90%);fill-opacity:1;stroke:none;"/>
<path style="fill-rule:nonzero;fill:rgb(35%,70%,90%);fill-opacity:1;stroke-width:1;stroke-linecap:butt;stroke-linejoin:miter;stroke:rgb(0%,0%,0%);stroke-opacity:1;stroke-miterlimit:10;" d="M 171 299 L 200.664062 299 L 212.664062 270.785156 L 224.664062 299 L 254.332031 299 L 230.332031 316.4375 L 238.417969 347.980469 L 212.664062 330.542969 L 186.914062 347.980469 L 199.214844 316.4375 L 171 299 "/>
<path style="fill-rule:nonzero;fill:rgb(35%,70%,90%);fill-opacity:1;stroke-width:1;stroke-linecap:butt;stroke-linejoin:miter;stroke:rgb(0%,0%,0%);stroke-opacity:1;stroke-miterlimit:10;" d="M 161 102 L 190.664062 102 L 202.664062 73.785156 L 214.664062 102 L 244.332031 102 L 220.332031 119.4375 L 228.417969 150.980469 L 202.664062 133.542969 L 176.914062 150.980469 L 189.214844 119.4375 L 161 102 "/>
<path style="fill-rule:nonzero;fill:rgb(53%,27%,7%);fill-opacity:1;stroke-width:1;stroke-linecap:butt;stroke-linejoin:miter;stroke:rgb(0%,0%,0%);stroke-opacity:1;stroke-miterlimit:10;" d="M 103 400 L 132.664062 400 L 144.664062 371.785156 L 156.664062 400 L 186.332031 400 L 162.332031 417.4375 L 170.417969 448.980469 L 144.664062 431.542969 L 118.914062 448.980469 L 131.214844 417.4375 L 103 400 "/>
<path style="fill-rule:nonzero;fill:rgb(53%,27%,7%);fill-opacity:1;stroke-width:1;stroke-linecap:butt;stroke-linejoin:miter;stroke:rgb(0%,0%,0%);stroke-opacity:1;stroke-miterlimit:10;" d="M 262 178 L 291.664062 178 L 303.664062 149.785156 L 315.664062 178 L 345.332031 178 L 321.332031 195.4375 L 329.417969 226.980469 L 303.664062 209.542969 L 277.914062 226.980469 L 290.214844 195.4375 L 262 178 "/>
<path style="fill-rule:nonzero;fill:rgb(35%,70%,90%);fill-opacity:1;stroke-width:1;stroke-linecap:butt;stroke-linejoin:miter;stroke:rgb(0%,0%,0%);stroke-opacity:1;stroke-miterlimit:10;" d="M 250 402 L 279.664062 402 L 291.664062 373.785156 L 303.664062 402 L 333.332031 402 L 309.332031 419.4375 L 317.417969 450.980469 L 291.664062 433.542969 L 265.914062 450.980469 L 278.214844 419.4375 L 250 402 "/>
<path style="fill-rule:nonzero;fill:rgb(53%,27%,7%);fill-opacity:1;stroke-width:1;stroke-linecap:butt;stroke-linejoin:miter;stroke:rgb(0%,0%,0%);stroke-opacity:1;stroke-miterlimit:10;" d="M 733.785156 410.785156 L 733.785156 453.214844 L 776.214844 453.214844 L 776.214844 410.785156 L 733.785156 410.785156 "/>
<path style="fill-rule:nonzero;fill:rgb(53%,27%,7%);fill-opacity:1;stroke-width:1;stroke-linecap:butt;stroke-linejoin:miter;stroke:rgb(0%,0%,0%);stroke-opacity:1;stroke-miterlimit:10;" d="M 986.785156 275.785156 L 986.785156 318.214844 L 1029.214844 318.214844 L 1029.214844 275.785156 L 986.785156 275.785156 "/>
<path style="fill-rule:nonzero;fill:rgb(35%,70%,90%);fill-opacity:1;stroke-width:1;stroke-linecap:butt;stroke-linejoin:miter;stroke:rgb(0%,0%,0%);stroke-opacity:1;stroke-miterlimit:10;" d="M 804.785156 138.785156 L 804.785156 181.214844 L 847.214844 181.214844 L 847.214844 138.785156 L 804.785156 138.785156 "/>
<path style="fill-rule:nonzero;fill:rgb(35%,70%,90%);fill-opacity:1;stroke-width:1;stroke-linecap:butt;stroke-linejoin:miter;stroke:rgb(0%,0%,0%);stroke-opacity:1;stroke-miterlimit:10;" d="M 793.785156 275.785156 L 793.785156 318.214844 L 836.214844 318.214844 L 836.214844 275.785156 L 793.785156 275.785156 "/>
</g>
</svg>
