<?xml version="1.0" encoding="UTF-8"?>
<svg xmlns="http://www.w3.org/2000/svg" xmlns:xlink="http://www.w3.org/1999/xlink" width="1179pt" height="517pt" viewBox="0 0 1179 517" version="1.1">
<g id="surface441">
<rect x="0" y="0" width="1179" height="517" style="fill:rgb(90%,90%,90%);fill-opacity:1;stroke:none;"/>
<path style="fill-rule:nonzero;fill:rgb(35%,70%,90%);fill-opacity:1;stroke-width:1;stroke-linecap:butt;stroke-linejoin:miter;stroke:rgb(0%,0%,0%);stroke-opacity:1;stroke-miterlimit:10;" d="M 420.214844 178 C 420.214844 189.714844 410.714844 199.214844 399 199.214844 C 387.285156 199.214844 377.785156 189.714844 377.785156 178 C 377.785156 166.285156 387.285156 156.785156 399 156.785156 C 410.714844 156.785156 420.214844 166.285156 420.214844 178 "/>
<path style="fill-rule:nonzero;fill:rgb(55%,51%,53%);fill-opacity:1;stroke-width:1;stroke-linecap:butt;stroke-linejoin:miter;stroke:rgb(0%,0%,0%);stroke-opacity:1;stroke-miterlimit:10;" d="M 192.214844 207 C 192.214844 218.714844 182.714844 228.214844 171 228.214844 C 159.285156 228.214844 149.785156 218.714844 149.785156 207 C 149.785156 195.285156 159.285156 185.785156 171 185.785156 C 182.714844 185.785156 192.214844 195.285156 192.214844 207 "/>
<path style="fill-rule:nonzero;fill:rgb(55%,51%,53%);fill-opacity:1;stroke-width:1;stroke-linecap:butt;stroke-linejoin:miter;stroke:rgb(0%,0%,0%);stroke-opacity:1;stroke-miterlimit:10;" d="M 426.214844 330 C 426.214844 341.714844 416.714844 351.214844 405 351.214844 C 393.285156 351.214844 383.785156 341.714844 383.785156 330 C 383.785156 318.285156 393.285156 308.785156 405 308.785156 C 416.714844 308.785156 426.214844 318.285156 426.214844 330 "/>
<path style="fill-rule:nonzero;fill:rgb(35%,70%,90%);fill-opacity:1;stroke-width:1;stroke-linecap:butt;stroke-linejoin:miter;stroke:rgb(0%,0%,0%);stroke-opacity:1;stroke-miterlimit:10;" d="M 245.214844 428 C 245.214844 439.714844 235.714844 449.214844 224 449.214844 C 212.285156 449.214844 202.785156 439.714844 202.785156 428 C 202.785156 416.285156 212.285156 406.785156 224 406.785156 C 235.714844 406.785156 245.214844 416.285156 245.214844 428 "/>
<path style="fill-rule:nonzero;fill:rgb(55%,51%,53%);fill-opacity:1;stroke-width:1;stroke-linecap:butt;stroke-linejoin:miter;stroke:rgb(0%,0%,0%);stroke-opacity:1;stroke-miterlimit:10;" d="M 1016.785156 261.785156 L 1016.785156 304.214844 L 1059.214844 304.214844 L 1059.214844 261.785156 L 1016.785156 261.785156 "/>
<path style="fill-rule:nonzero;fill:rgb(35%,70%,90%);fill-opacity:1;stroke-width:1;stroke-linecap:butt;stroke-linejoin:miter;stroke:rgb(0%,0%,0%);stroke-opacity:1;stroke-miterlimit:10;" d="M 871.785156 333.785156 L 871.785156 376.214844 L 914.214844 376.214844 L 914.214844 333.785156 L 871.785156 333.785156 "/>
<path style="fill-rule:nonzero;fill:rgb(35%,70%,90%);fill-opacity:1;stroke-width:1;stroke-linecap:butt;stroke-linejoin:miter;stroke:rgb(0%,0%,0%);stroke-opacity:1;stroke-miterlimit:10;" d="M 689.785156 241.785156 L 689.785156 284.214844 L 732.214844 284.214844 L 732.214844 241.785156 L 689.785156 241.785156 "/>
</g>
</svg>
