<?xml version="1.0" encoding="UTF-8"?>
<svg xmlns="http://www.w3.org/2000/svg" xmlns:xlink="http://www.w3.org/1999/xlink" width="1179pt" height="517pt" viewBox="0 0 1179 517" version="1.1">
<g id="surface851">
<rect x="0" y="0" width="1179" height="517" style="fill:rgb(90%,90%,90%);fill-opacity:1;stroke:none;"/>
<path style="fill-rule:nonzero;fill:rgb(53%,27%,7%);fill-opacity:1;stroke-width:1;stroke-linecap:butt;stroke-linejoin:miter;stroke:rgb(0%,0%,0%);stroke-opacity:1;stroke-miterlimit:10;" d="M 384 161.601562 C 384 147.199219 360 147.199219 360 161.601562 C 360 176 384 178.398438 384 190.398438 C 384 178.398438 408 176 408 161.601562 C 408 147.199219 384 147.199219 384 161.601562 "/>
<path style="fill-rule:nonzero;fill:rgb(53%,27%,7%);fill-opacity:1;stroke-width:1;stroke-linecap:butt;stroke-linejoin:miter;stroke:rgb(0%,0%,0%);stroke-opacity:1;stroke-miterlimit:10;" d="M 202.214844 138 C 202.214844 149.714844 192.714844 159.214844 181 159.214844 C 169.285156 159.214844 159.785156 149.714844 159.785156 138 C 159.785156 126.285156 169.285156 116.785156 181 116.785156 C 192.714844 116.785156 202.214844 126.285156 202.214844 138 "/>
<path style="fill-rule:nonzero;fill:rgb(53%,27%,7%);fill-opacity:1;stroke-width:1;stroke-linecap:butt;stroke-linejoin:miter;stroke:rgb(0%,0%,0%);stroke-opacity:1;stroke-miterlimit:10;" d="M 348.214844 97 C 348.214844 108.714844 338.714844 118.214844 327 118.214844 C 315.285156 118.214844 305.785156 108.714844 305.785156 97 C 305.785156 85.285156 315.285156 75.785156 327 75.785156 C 338.714844 75.785156 348.214844 85.285156 348.214844 97 "/>
<path style="fill-rule:nonzero;fill:rgb(53%,27%,7%);fill-opacity:1;stroke-width:1;stroke-linecap:butt;stroke-linejoin:miter;stroke:rgb(0%,0%,0%);stroke-opacity:1;stroke-miterlimit:10;" d="M 287 369.601562 C 287 355.199219 263 355.199219 263 369.601562 C 263 384 287 386.398438 287 398.398438 C 287 386.398438 311 384 311 369.601562 C 311 355.199219 287 355.199219 287 369.601562 "/>
<path style="fill-rule:nonzero;fill:rgb(100%,51%,0%);fill-opacity:1;stroke-width:1;stroke-linecap:butt;stroke-linejoin:miter;stroke:rgb(0%,0%,0%);stroke-opacity:1;stroke-miterlimit:10;" d="M 1006.214844 270 C 1006.214844 281.714844 996.714844 291.214844 985 291.214844 C 973.285156 291.214844 963.785156 281.714844 963.785156 270 C 963.785156 258.285156 973.285156 248.785156 985 248.785156 C 996.714844 248.785156 1006.214844 258.285156 1006.214844 270 "/>
<path style="fill-rule:nonzero;fill:rgb(100%,51%,0%);fill-opacity:1;stroke-width:1;stroke-linecap:butt;stroke-linejoin:miter;stroke:rgb(0%,0%,0%);stroke-opacity:1;stroke-miterlimit:10;" d="M 712 125.601562 C 712 111.199219 688 111.199219 688 125.601562 C 688 140 712 142.398438 712 154.398438 C 712 142.398438 736 140 736 125.601562 C 736 111.199219 712 111.199219 712 125.601562 "/>
<path style="fill-rule:nonzero;fill:rgb(100%,51%,0%);fill-opacity:1;stroke-width:1;stroke-linecap:butt;stroke-linejoin:miter;stroke:rgb(0%,0%,0%);stroke-opacity:1;stroke-miterlimit:10;" d="M 905 140.601562 C 905 126.199219 881 126.199219 881 140.601562 C 881 155 905 157.398438 905 169.398438 C 905 157.398438 929 155 929 140.601562 C 929 126.199219 905 126.199219 905 140.601562 "/>
</g>
</svg>
