<?xml version="1.0" encoding="UTF-8"?>
<svg xmlns="http://www.w3.org/2000/svg" xmlns:xlink="http://www.w3.org/1999/xlink" width="1179pt" height="517pt" viewBox="0 0 1179 517" version="1.1">
<g id="surface576">
<rect x="0" y="0" width="1179" height="517" style="fill:rgb(90%,90%,90%);fill-opacity:1;stroke:none;"/>
<path style="fill-rule:nonzero;fill:rgb(35%,70%,90%);fill-opacity:1;stroke-width:1;stroke-linecap:butt;stroke-linejoin:miter;stroke:rgb(0%,0%,0%);stroke-opacity:1;stroke-miterlimit:10;" d="M 300 407 L 329.664062 407 L 341.664062 378.785156 L 353.664062 407 L 383.332031 407 L 359.332031 424.4375 L 367.417969 455.980469 L 341.664062 438.542969 L 315.914062 455.980469 L 328.214844 424.4375 L 300 407 "/>
<path style="fill-rule:nonzero;fill:rgb(35%,70%,90%);fill-opacity:1;stroke-width:1;stroke-linecap:butt;stroke-linejoin:miter;stroke:rgb(0%,0%,0%);stroke-opacity:1;stroke-miterlimit:10;" d="M 279 202 L 308.664062 202 L 320.664062 173.785156 L 332.664062 202 L 362.332031 202 L 338.332031 219.4375 L 346.417969 250.980469 L 320.664062 233.542969 L 294.914062 250.980469 L 307.214844 219.4375 L 279 202 "/>
<path style="fill-rule:nonzero;fill:rgb(35%,70%,90%);fill-opacity:1;stroke-width:1;stroke-linecap:butt;stroke-linejoin:miter;stroke:rgb(0%,0%,0%);stroke-opacity:1;stroke-miterlimit:10;" d="M 191 256 L 220.664062 256 L 232.664062 227.785156 L 244.664062 256 L 274.332031 256 L 250.332031 273.4375 L 258.417969 304.980469 L 232.664062 287.542969 L 206.914062 304.980469 L 219.214844 273.4375 L 191 256 "/>
<path style="fill-rule:nonzero;fill:rgb(53%,27%,7%);fill-opacity:1;stroke-width:1;stroke-linecap:butt;stroke-linejoin:miter;stroke:rgb(0%,0%,0%);stroke-opacity:1;stroke-miterlimit:10;" d="M 168 381 L 142.019531 426 L 193.980469 426 L 168 381 "/>
<path style="fill-rule:nonzero;fill:rgb(53%,27%,7%);fill-opacity:1;stroke-width:1;stroke-linecap:butt;stroke-linejoin:miter;stroke:rgb(0%,0%,0%);stroke-opacity:1;stroke-miterlimit:10;" d="M 376 326 L 350.019531 371 L 401.980469 371 L 376 326 "/>
<path style="fill-rule:nonzero;fill:rgb(35%,70%,90%);fill-opacity:1;stroke-width:1;stroke-linecap:butt;stroke-linejoin:miter;stroke:rgb(0%,0%,0%);stroke-opacity:1;stroke-miterlimit:10;" d="M 119 323 L 148.664062 323 L 160.664062 294.785156 L 172.664062 323 L 202.332031 323 L 178.332031 340.4375 L 186.417969 371.980469 L 160.664062 354.542969 L 134.914062 371.980469 L 147.214844 340.4375 L 119 323 "/>
<path style="fill-rule:nonzero;fill:rgb(35%,70%,90%);fill-opacity:1;stroke-width:1;stroke-linecap:butt;stroke-linejoin:miter;stroke:rgb(0%,0%,0%);stroke-opacity:1;stroke-miterlimit:10;" d="M 913 249 L 942.664062 249 L 954.664062 220.785156 L 966.664062 249 L 996.332031 249 L 972.332031 266.4375 L 980.417969 297.980469 L 954.664062 280.542969 L 928.914062 297.980469 L 941.214844 266.4375 L 913 249 "/>
<path style="fill-rule:nonzero;fill:rgb(35%,70%,90%);fill-opacity:1;stroke-width:1;stroke-linecap:butt;stroke-linejoin:miter;stroke:rgb(0%,0%,0%);stroke-opacity:1;stroke-miterlimit:10;" d="M 990 419 L 1019.664062 419 L 1031.664062 390.785156 L 1043.664062 419 L 1073.332031 419 L 1049.332031 436.4375 L 1057.417969 467.980469 L 1031.664062 450.542969 L 1005.914062 467.980469 L 1018.214844 436.4375 L 990 419 "/>
<path style="fill-rule:nonzero;fill:rgb(35%,70%,90%);fill-opacity:1;stroke-width:1;stroke-linecap:butt;stroke-linejoin:miter;stroke:rgb(0%,0%,0%);stroke-opacity:1;stroke-miterlimit:10;" d="M 736 243 L 765.664062 243 L 777.664062 214.785156 L 789.664062 243 L 819.332031 243 L 795.332031 260.4375 L 803.417969 291.980469 L 777.664062 274.542969 L 751.914062 291.980469 L 764.214844 260.4375 L 736 243 "/>
<path style="fill-rule:nonzero;fill:rgb(53%,27%,7%);fill-opacity:1;stroke-width:1;stroke-linecap:butt;stroke-linejoin:miter;stroke:rgb(0%,0%,0%);stroke-opacity:1;stroke-miterlimit:10;" d="M 780 98 L 754.019531 143 L 805.980469 143 L 780 98 "/>
</g>
</svg>
