<?xml version="1.0" encoding="UTF-8"?>
<svg xmlns="http://www.w3.org/2000/svg" xmlns:xlink="http://www.w3.org/1999/xlink" width="1179pt" height="517pt" viewBox="0 0 1179 517" version="1.1">
<g id="surface776">
<rect x="0" y="0" width="1179" height="517" style="fill:rgb(90%,90%,90%);fill-opacity:1;stroke:none;"/>
<path style="fill-rule:nonzero;fill:rgb(35%,70%,90%);fill-opacity:1;stroke-width:1;stroke-linecap:butt;stroke-linejoin:miter;stroke:rgb(0%,0%,0%);stroke-opacity:1;stroke-miterlimit:10;" d="M 627 232 L 656.664062 232 L 668.664062 203.785156 L 680.664062 232 L 710.332031 232 L 686.332031 249.4375 L 694.417969 280.980469 L 668.664062 263.542969 L 642.914062 280.980469 L 655.214844 249.4375 L 627 232 "/>
<path style="fill-rule:nonzero;fill:rgb(35%,70%,90%);fill-opacity:1;stroke-width:1;stroke-linecap:butt;stroke-linejoin:miter;stroke:rgb(0%,0%,0%);stroke-opacity:1;stroke-miterlimit:10;" d="M 164 286 L 193.664062 286 L 205.664062 257.785156 L 217.664062 286 L 247.332031 286 L 223.332031 303.4375 L 231.417969 334.980469 L 205.664062 317.542969 L 179.914062 334.980469 L 192.214844 303.4375 L 164 286 "/>
<path style="fill-rule:nonzero;fill:rgb(35%,70%,90%);fill-opacity:1;stroke-width:1;stroke-linecap:butt;stroke-linejoin:miter;stroke:rgb(0%,0%,0%);stroke-opacity:1;stroke-miterlimit:10;" d="M 498 237 L 527.664062 237 L 539.664062 208.785156 L 551.664062 237 L 581.332031 237 L 557.332031 254.4375 L 565.417969 285.980469 L 539.664062 268.542969 L 513.914062 285.980469 L 526.214844 254.4375 L 498 237 "/>
<path style="fill-rule:nonzero;fill:rgb(35%,70%,90%);fill-opacity:1;stroke-width:1;stroke-linecap:butt;stroke-linejoin:miter;stroke:rgb(0%,0%,0%);stroke-opacity:1;stroke-miterlimit:10;" d="M 1029 220 L 1058.664062 220 L 1070.664062 191.785156 L 1082.664062 220 L 1112.332031 220 L 1088.332031 237.4375 L 1096.417969 268.980469 L 1070.664062 251.542969 L 1044.914062 268.980469 L 1057.214844 237.4375 L 1029 220 "/>
<path style="fill-rule:nonzero;fill:rgb(35%,70%,90%);fill-opacity:1;stroke-width:1;stroke-linecap:butt;stroke-linejoin:miter;stroke:rgb(0%,0%,0%);stroke-opacity:1;stroke-miterlimit:10;" d="M 350 356 L 379.664062 356 L 391.664062 327.785156 L 403.664062 356 L 433.332031 356 L 409.332031 373.4375 L 417.417969 404.980469 L 391.664062 387.542969 L 365.914062 404.980469 L 378.214844 373.4375 L 350 356 "/>
<path style="fill-rule:nonzero;fill:rgb(55%,51%,53%);fill-opacity:1;stroke-width:1;stroke-linecap:butt;stroke-linejoin:miter;stroke:rgb(0%,0%,0%);stroke-opacity:1;stroke-miterlimit:10;" d="M 827.214844 369 C 827.214844 380.714844 817.714844 390.214844 806 390.214844 C 794.285156 390.214844 784.785156 380.714844 784.785156 369 C 784.785156 357.285156 794.285156 347.785156 806 347.785156 C 817.714844 347.785156 827.214844 357.285156 827.214844 369 "/>
<path style="fill-rule:nonzero;fill:rgb(55%,51%,53%);fill-opacity:1;stroke-width:1;stroke-linecap:butt;stroke-linejoin:miter;stroke:rgb(0%,0%,0%);stroke-opacity:1;stroke-miterlimit:10;" d="M 191.214844 146 C 191.214844 157.714844 181.714844 167.214844 170 167.214844 C 158.285156 167.214844 148.785156 157.714844 148.785156 146 C 148.785156 134.285156 158.285156 124.785156 170 124.785156 C 181.714844 124.785156 191.214844 134.285156 191.214844 146 "/>
<path style="fill-rule:nonzero;fill:rgb(55%,51%,53%);fill-opacity:1;stroke-width:1;stroke-linecap:butt;stroke-linejoin:miter;stroke:rgb(0%,0%,0%);stroke-opacity:1;stroke-miterlimit:10;" d="M 1011.214844 83 C 1011.214844 94.714844 1001.714844 104.214844 990 104.214844 C 978.285156 104.214844 968.785156 94.714844 968.785156 83 C 968.785156 71.285156 978.285156 61.785156 990 61.785156 C 1001.714844 61.785156 1011.214844 71.285156 1011.214844 83 "/>
</g>
</svg>
