<?xml version="1.0" encoding="UTF-8"?>
<svg xmlns="http://www.w3.org/2000/svg" xmlns:xlink="http://www.w3.org/1999/xlink" width="1179pt" height="517pt" viewBox="0 0 1179 517" version="1.1">
<g id="surface136">
<rect x="0" y="0" width="1179" height="517" style="fill:rgb(90%,90%,90%);fill-opacity:1;stroke:none;"/>
<path style="fill-rule:nonzero;fill:rgb(100%,51%,0%);fill-opacity:1;stroke-width:1;stroke-linecap:butt;stroke-linejoin:miter;stroke:rgb(0%,0%,0%);stroke-opacity:1;stroke-miterlimit:10;" d="M 299.214844 111 C 299.214844 122.714844 289.714844 132.214844 278 132.214844 C 266.285156 132.214844 256.785156 122.714844 256.785156 111 C 256.785156 99.285156 266.285156 89.785156 278 89.785156 C 289.714844 89.785156 299.214844 99.285156 299.214844 111 "/>
<path style="fill-rule:nonzero;fill:rgb(100%,51%,0%);fill-opacity:1;stroke-width:1;stroke-linecap:butt;stroke-linejoin:miter;stroke:rgb(0%,0%,0%);stroke-opacity:1;stroke-miterlimit:10;" d="M 306.214844 241 C 306.214844 252.714844 296.714844 262.214844 285 262.214844 C 273.285156 262.214844 263.785156 252.714844 263.785156 241 C 263.785156 229.285156 273.285156 219.785156 285 219.785156 C 296.714844 219.785156 306.214844 229.285156 306.214844 241 "/>
<path style="fill-rule:nonzero;fill:rgb(100%,51%,0%);fill-opacity:1;stroke-width:1;stroke-linecap:butt;stroke-linejoin:miter;stroke:rgb(0%,0%,0%);stroke-opacity:1;stroke-miterlimit:10;" d="M 96 176 L 70.019531 221 L 121.980469 221 L 96 176 "/>
<path style="fill-rule:nonzero;fill:rgb(55%,51%,53%);fill-opacity:1;stroke-width:1;stroke-linecap:butt;stroke-linejoin:miter;stroke:rgb(0%,0%,0%);stroke-opacity:1;stroke-miterlimit:10;" d="M 800 230 L 774.019531 275 L 825.980469 275 L 800 230 "/>
<path style="fill-rule:nonzero;fill:rgb(55%,51%,53%);fill-opacity:1;stroke-width:1;stroke-linecap:butt;stroke-linejoin:miter;stroke:rgb(0%,0%,0%);stroke-opacity:1;stroke-miterlimit:10;" d="M 739 63 L 713.019531 108 L 764.980469 108 L 739 63 "/>
<path style="fill-rule:nonzero;fill:rgb(55%,51%,53%);fill-opacity:1;stroke-width:1;stroke-linecap:butt;stroke-linejoin:miter;stroke:rgb(0%,0%,0%);stroke-opacity:1;stroke-miterlimit:10;" d="M 872.214844 416 C 872.214844 427.714844 862.714844 437.214844 851 437.214844 C 839.285156 437.214844 829.785156 427.714844 829.785156 416 C 829.785156 404.285156 839.285156 394.785156 851 394.785156 C 862.714844 394.785156 872.214844 404.285156 872.214844 416 "/>
</g>
</svg>
