<?xml version="1.0" encoding="UTF-8"?>
<svg xmlns="http://www.w3.org/2000/svg" xmlns:xlink="http://www.w3.org/1999/xlink" width="1179pt" height="517pt" viewBox="0 0 1179 517" version="1.1">
<g id="surface856">
<rect x="0" y="0" width="1179" height="517" style="fill:rgb(90%,90%,90%);fill-opacity:1;stroke:none;"/>
<path style="fill-rule:nonzero;fill:rgb(53%,27%,7%);fill-opacity:1;stroke-width:1;stroke-linecap:butt;stroke-linejoin:miter;stroke:rgb(0%,0%,0%);stroke-opacity:1;stroke-miterlimit:10;" d="M 435 159.601562 C 435 145.199219 411 145.199219 411 159.601562 C 411 174 435 176.398438 435 188.398438 C 435 176.398438 459 174 459 159.601562 C 459 145.199219 435 145.199219 435 159.601562 "/>
<path style="fill-rule:nonzero;fill:rgb(53%,27%,7%);fill-opacity:1;stroke-width:1;stroke-linecap:butt;stroke-linejoin:miter;stroke:rgb(0%,0%,0%);stroke-opacity:1;stroke-miterlimit:10;" d="M 123 347.601562 C 123 333.199219 99 333.199219 99 347.601562 C 99 362 123 364.398438 123 376.398438 C 123 364.398438 147 362 147 347.601562 C 147 333.199219 123 333.199219 123 347.601562 "/>
<path style="fill-rule:nonzero;fill:rgb(53%,27%,7%);fill-opacity:1;stroke-width:1;stroke-linecap:butt;stroke-linejoin:miter;stroke:rgb(0%,0%,0%);stroke-opacity:1;stroke-miterlimit:10;" d="M 930 199.601562 C 930 185.199219 906 185.199219 906 199.601562 C 906 214 930 216.398438 930 228.398438 C 930 216.398438 954 214 954 199.601562 C 954 185.199219 930 185.199219 930 199.601562 "/>
<path style="fill-rule:nonzero;fill:rgb(53%,27%,7%);fill-opacity:1;stroke-width:1;stroke-linecap:butt;stroke-linejoin:miter;stroke:rgb(0%,0%,0%);stroke-opacity:1;stroke-miterlimit:10;" d="M 963 351.601562 C 963 337.199219 939 337.199219 939 351.601562 C 939 366 963 368.398438 963 380.398438 C 963 368.398438 987 366 987 351.601562 C 987 337.199219 963 337.199219 963 351.601562 "/>
<path style="fill-rule:nonzero;fill:rgb(53%,27%,7%);fill-opacity:1;stroke-width:1;stroke-linecap:butt;stroke-linejoin:miter;stroke:rgb(0%,0%,0%);stroke-opacity:1;stroke-miterlimit:10;" d="M 733 146.601562 C 733 132.199219 709 132.199219 709 146.601562 C 709 161 733 163.398438 733 175.398438 C 733 163.398438 757 161 757 146.601562 C 757 132.199219 733 132.199219 733 146.601562 "/>
<path style="fill-rule:nonzero;fill:rgb(100%,51%,0%);fill-opacity:1;stroke-width:1;stroke-linecap:butt;stroke-linejoin:miter;stroke:rgb(0%,0%,0%);stroke-opacity:1;stroke-miterlimit:10;" d="M 689.214844 363 C 689.214844 374.714844 679.714844 384.214844 668 384.214844 C 656.285156 384.214844 646.785156 374.714844 646.785156 363 C 646.785156 351.285156 656.285156 341.785156 668 341.785156 C 679.714844 341.785156 689.214844 351.285156 689.214844 363 "/>
<path style="fill-rule:nonzero;fill:rgb(100%,51%,0%);fill-opacity:1;stroke-width:1;stroke-linecap:butt;stroke-linejoin:miter;stroke:rgb(0%,0%,0%);stroke-opacity:1;stroke-miterlimit:10;" d="M 221.214844 209 C 221.214844 220.714844 211.714844 230.214844 200 230.214844 C 188.285156 230.214844 178.785156 220.714844 178.785156 209 C 178.785156 197.285156 188.285156 187.785156 200 187.785156 C 211.714844 187.785156 221.214844 197.285156 221.214844 209 "/>
<path style="fill-rule:nonzero;fill:rgb(100%,51%,0%);fill-opacity:1;stroke-width:1;stroke-linecap:butt;stroke-linejoin:miter;stroke:rgb(0%,0%,0%);stroke-opacity:1;stroke-miterlimit:10;" d="M 279.214844 327 C 279.214844 338.714844 269.714844 348.214844 258 348.214844 C 246.285156 348.214844 236.785156 338.714844 236.785156 327 C 236.785156 315.285156 246.285156 305.785156 258 305.785156 C 269.714844 305.785156 279.214844 315.285156 279.214844 327 "/>
<path style="fill-rule:nonzero;fill:rgb(100%,51%,0%);fill-opacity:1;stroke-width:1;stroke-linecap:butt;stroke-linejoin:miter;stroke:rgb(0%,0%,0%);stroke-opacity:1;stroke-miterlimit:10;" d="M 505.214844 373 C 505.214844 384.714844 495.714844 394.214844 484 394.214844 C 472.285156 394.214844 462.785156 384.714844 462.785156 373 C 462.785156 361.285156 472.285156 351.785156 484 351.785156 C 495.714844 351.785156 505.214844 361.285156 505.214844 373 "/>
<path style="fill-rule:nonzero;fill:rgb(100%,51%,0%);fill-opacity:1;stroke-width:1;stroke-linecap:butt;stroke-linejoin:miter;stroke:rgb(0%,0%,0%);stroke-opacity:1;stroke-miterlimit:10;" d="M 861.214844 412 C 861.214844 423.714844 851.714844 433.214844 840 433.214844 C 828.285156 433.214844 818.785156 423.714844 818.785156 412 C 818.785156 400.285156 828.285156 390.785156 840 390.785156 C 851.714844 390.785156 861.214844 400.285156 861.214844 412 "/>
</g>
</svg>
