<?xml version="1.0" encoding="UTF-8"?>
<svg xmlns="http://www.w3.org/2000/svg" xmlns:xlink="http://www.w3.org/1999/xlink" width="1179pt" height="517pt" viewBox="0 0 1179 517" version="1.1">
<g id="surface591">
<rect x="0" y="0" width="1179" height="517" style="fill:rgb(90%,90%,90%);fill-opacity:1;stroke:none;"/>
<path style="fill-rule:nonzero;fill:rgb(35%,70%,90%);fill-opacity:1;stroke-width:1;stroke-linecap:butt;stroke-linejoin:miter;stroke:rgb(0%,0%,0%);stroke-opacity:1;stroke-miterlimit:10;" d="M 179.214844 360 C 179.214844 371.714844 169.714844 381.214844 158 381.214844 C 146.285156 381.214844 136.785156 371.714844 136.785156 360 C 136.785156 348.285156 146.285156 338.785156 158 338.785156 C 169.714844 338.785156 179.214844 348.285156 179.214844 360 "/>
<path style="fill-rule:nonzero;fill:rgb(35%,70%,90%);fill-opacity:1;stroke-width:1;stroke-linecap:butt;stroke-linejoin:miter;stroke:rgb(0%,0%,0%);stroke-opacity:1;stroke-miterlimit:10;" d="M 333.214844 359 C 333.214844 370.714844 323.714844 380.214844 312 380.214844 C 300.285156 380.214844 290.785156 370.714844 290.785156 359 C 290.785156 347.285156 300.285156 337.785156 312 337.785156 C 323.714844 337.785156 333.214844 347.285156 333.214844 359 "/>
<path style="fill-rule:nonzero;fill:rgb(35%,70%,90%);fill-opacity:1;stroke-width:1;stroke-linecap:butt;stroke-linejoin:miter;stroke:rgb(0%,0%,0%);stroke-opacity:1;stroke-miterlimit:10;" d="M 360.785156 163.785156 L 360.785156 206.214844 L 403.214844 206.214844 L 403.214844 163.785156 L 360.785156 163.785156 "/>
<path style="fill-rule:nonzero;fill:rgb(53%,27%,7%);fill-opacity:1;stroke-width:1;stroke-linecap:butt;stroke-linejoin:miter;stroke:rgb(0%,0%,0%);stroke-opacity:1;stroke-miterlimit:10;" d="M 962.785156 183.785156 L 962.785156 226.214844 L 1005.214844 226.214844 L 1005.214844 183.785156 L 962.785156 183.785156 "/>
<path style="fill-rule:nonzero;fill:rgb(53%,27%,7%);fill-opacity:1;stroke-width:1;stroke-linecap:butt;stroke-linejoin:miter;stroke:rgb(0%,0%,0%);stroke-opacity:1;stroke-miterlimit:10;" d="M 731.785156 214.785156 L 731.785156 257.214844 L 774.214844 257.214844 L 774.214844 214.785156 L 731.785156 214.785156 "/>
<path style="fill-rule:nonzero;fill:rgb(53%,27%,7%);fill-opacity:1;stroke-width:1;stroke-linecap:butt;stroke-linejoin:miter;stroke:rgb(0%,0%,0%);stroke-opacity:1;stroke-miterlimit:10;" d="M 907.214844 357 C 907.214844 368.714844 897.714844 378.214844 886 378.214844 C 874.285156 378.214844 864.785156 368.714844 864.785156 357 C 864.785156 345.285156 874.285156 335.785156 886 335.785156 C 897.714844 335.785156 907.214844 345.285156 907.214844 357 "/>
</g>
</svg>
