<?xml version="1.0" encoding="UTF-8"?>
<svg xmlns="http://www.w3.org/2000/svg" xmlns:xlink="http://www.w3.org/1999/xlink" width="1179pt" height="517pt" viewBox="0 0 1179 517" version="1.1">
<g id="surface911">
<rect x="0" y="0" width="1179" height="517" style="fill:rgb(90%,90%,90%);fill-opacity:1;stroke:none;"/>
<path style="fill-rule:nonzero;fill:rgb(35%,70%,90%);fill-opacity:1;stroke-width:1;stroke-linecap:butt;stroke-linejoin:miter;stroke:rgb(0%,0%,0%);stroke-opacity:1;stroke-miterlimit:10;" d="M 331 95 L 360.664062 95 L 372.664062 66.785156 L 384.664062 95 L 414.332031 95 L 390.332031 112.4375 L 398.417969 143.980469 L 372.664062 126.542969 L 346.914062 143.980469 L 359.214844 112.4375 L 331 95 "/>
<path style="fill-rule:nonzero;fill:rgb(35%,70%,90%);fill-opacity:1;stroke-width:1;stroke-linecap:butt;stroke-linejoin:miter;stroke:rgb(0%,0%,0%);stroke-opacity:1;stroke-miterlimit:10;" d="M 297 331 L 326.664062 331 L 338.664062 302.785156 L 350.664062 331 L 380.332031 331 L 356.332031 348.4375 L 364.417969 379.980469 L 338.664062 362.542969 L 312.914062 379.980469 L 325.214844 348.4375 L 297 331 "/>
<path style="fill-rule:nonzero;fill:rgb(35%,70%,90%);fill-opacity:1;stroke-width:1;stroke-linecap:butt;stroke-linejoin:miter;stroke:rgb(0%,0%,0%);stroke-opacity:1;stroke-miterlimit:10;" d="M 948 197 L 977.664062 197 L 989.664062 168.785156 L 1001.664062 197 L 1031.332031 197 L 1007.332031 214.4375 L 1015.417969 245.980469 L 989.664062 228.542969 L 963.914062 245.980469 L 976.214844 214.4375 L 948 197 "/>
<path style="fill-rule:nonzero;fill:rgb(35%,70%,90%);fill-opacity:1;stroke-width:1;stroke-linecap:butt;stroke-linejoin:miter;stroke:rgb(0%,0%,0%);stroke-opacity:1;stroke-miterlimit:10;" d="M 119 428 L 148.664062 428 L 160.664062 399.785156 L 172.664062 428 L 202.332031 428 L 178.332031 445.4375 L 186.417969 476.980469 L 160.664062 459.542969 L 134.914062 476.980469 L 147.214844 445.4375 L 119 428 "/>
<path style="fill-rule:nonzero;fill:rgb(55%,51%,53%);fill-opacity:1;stroke-width:1;stroke-linecap:butt;stroke-linejoin:miter;stroke:rgb(0%,0%,0%);stroke-opacity:1;stroke-miterlimit:10;" d="M 1020.214844 414 C 1020.214844 425.714844 1010.714844 435.214844 999 435.214844 C 987.285156 435.214844 977.785156 425.714844 977.785156 414 C 977.785156 402.285156 987.285156 392.785156 999 392.785156 C 1010.714844 392.785156 1020.214844 402.285156 1020.214844 414 "/>
<path style="fill-rule:nonzero;fill:rgb(55%,51%,53%);fill-opacity:1;stroke-width:1;stroke-linecap:butt;stroke-linejoin:miter;stroke:rgb(0%,0%,0%);stroke-opacity:1;stroke-miterlimit:10;" d="M 555.214844 245 C 555.214844 256.714844 545.714844 266.214844 534 266.214844 C 522.285156 266.214844 512.785156 256.714844 512.785156 245 C 512.785156 233.285156 522.285156 223.785156 534 223.785156 C 545.714844 223.785156 555.214844 233.285156 555.214844 245 "/>
<path style="fill-rule:nonzero;fill:rgb(55%,51%,53%);fill-opacity:1;stroke-width:1;stroke-linecap:butt;stroke-linejoin:miter;stroke:rgb(0%,0%,0%);stroke-opacity:1;stroke-miterlimit:10;" d="M 708.214844 188 C 708.214844 199.714844 698.714844 209.214844 687 209.214844 C 675.285156 209.214844 665.785156 199.714844 665.785156 188 C 665.785156 176.285156 675.285156 166.785156 687 166.785156 C 698.714844 166.785156 708.214844 176.285156 708.214844 188 "/>
<path style="fill-rule:nonzero;fill:rgb(55%,51%,53%);fill-opacity:1;stroke-width:1;stroke-linecap:butt;stroke-linejoin:miter;stroke:rgb(0%,0%,0%);stroke-opacity:1;stroke-miterlimit:10;" d="M 505.214844 99 C 505.214844 110.714844 495.714844 120.214844 484 120.214844 C 472.285156 120.214844 462.785156 110.714844 462.785156 99 C 462.785156 87.285156 472.285156 77.785156 484 77.785156 C 495.714844 77.785156 505.214844 87.285156 505.214844 99 "/>
<path style="fill-rule:nonzero;fill:rgb(55%,51%,53%);fill-opacity:1;stroke-width:1;stroke-linecap:butt;stroke-linejoin:miter;stroke:rgb(0%,0%,0%);stroke-opacity:1;stroke-miterlimit:10;" d="M 213.214844 181 C 213.214844 192.714844 203.714844 202.214844 192 202.214844 C 180.285156 202.214844 170.785156 192.714844 170.785156 181 C 170.785156 169.285156 180.285156 159.785156 192 159.785156 C 203.714844 159.785156 213.214844 169.285156 213.214844 181 "/>
</g>
</svg>
