<?xml version="1.0" encoding="UTF-8"?>
<svg xmlns="http://www.w3.org/2000/svg" xmlns:xlink="http://www.w3.org/1999/xlink" width="1179pt" height="517pt" viewBox="0 0 1179 517" version="1.1">
<g id="surface1476">
<rect x="0" y="0" width="1179" height="517" style="fill:rgb(90%,90%,90%);fill-opacity:1;stroke:none;"/>
<path style="fill-rule:nonzero;fill:rgb(55%,51%,53%);fill-opacity:1;stroke-width:1;stroke-linecap:butt;stroke-linejoin:miter;stroke:rgb(0%,0%,0%);stroke-opacity:1;stroke-miterlimit:10;" d="M 984.214844 230 C 984.214844 241.714844 974.714844 251.214844 963 251.214844 C 951.285156 251.214844 941.785156 241.714844 941.785156 230 C 941.785156 218.285156 951.285156 208.785156 963 208.785156 C 974.714844 208.785156 984.214844 218.285156 984.214844 230 "/>
<path style="fill-rule:nonzero;fill:rgb(55%,51%,53%);fill-opacity:1;stroke-width:1;stroke-linecap:butt;stroke-linejoin:miter;stroke:rgb(0%,0%,0%);stroke-opacity:1;stroke-miterlimit:10;" d="M 761.214844 179 C 761.214844 190.714844 751.714844 200.214844 740 200.214844 C 728.285156 200.214844 718.785156 190.714844 718.785156 179 C 718.785156 167.285156 728.285156 157.785156 740 157.785156 C 751.714844 157.785156 761.214844 167.285156 761.214844 179 "/>
<path style="fill-rule:nonzero;fill:rgb(55%,51%,53%);fill-opacity:1;stroke-width:1;stroke-linecap:butt;stroke-linejoin:miter;stroke:rgb(0%,0%,0%);stroke-opacity:1;stroke-miterlimit:10;" d="M 166.214844 333 C 166.214844 344.714844 156.714844 354.214844 145 354.214844 C 133.285156 354.214844 123.785156 344.714844 123.785156 333 C 123.785156 321.285156 133.285156 311.785156 145 311.785156 C 156.714844 311.785156 166.214844 321.285156 166.214844 333 "/>
<path style="fill-rule:nonzero;fill:rgb(100%,51%,0%);fill-opacity:1;stroke-width:1;stroke-linecap:butt;stroke-linejoin:miter;stroke:rgb(0%,0%,0%);stroke-opacity:1;stroke-miterlimit:10;" d="M 608 69.601562 C 608 55.199219 584 55.199219 584 69.601562 C 584 84 608 86.398438 608 98.398438 C 608 86.398438 632 84 632 69.601562 C 632 55.199219 608 55.199219 608 69.601562 "/>
<path style="fill-rule:nonzero;fill:rgb(100%,51%,0%);fill-opacity:1;stroke-width:1;stroke-linecap:butt;stroke-linejoin:miter;stroke:rgb(0%,0%,0%);stroke-opacity:1;stroke-miterlimit:10;" d="M 385 375.601562 C 385 361.199219 361 361.199219 361 375.601562 C 361 390 385 392.398438 385 404.398438 C 385 392.398438 409 390 409 375.601562 C 409 361.199219 385 361.199219 385 375.601562 "/>
<path style="fill-rule:nonzero;fill:rgb(100%,51%,0%);fill-opacity:1;stroke-width:1;stroke-linecap:butt;stroke-linejoin:miter;stroke:rgb(0%,0%,0%);stroke-opacity:1;stroke-miterlimit:10;" d="M 585 318.601562 C 585 304.199219 561 304.199219 561 318.601562 C 561 333 585 335.398438 585 347.398438 C 585 335.398438 609 333 609 318.601562 C 609 304.199219 585 304.199219 585 318.601562 "/>
<path style="fill-rule:nonzero;fill:rgb(100%,51%,0%);fill-opacity:1;stroke-width:1;stroke-linecap:butt;stroke-linejoin:miter;stroke:rgb(0%,0%,0%);stroke-opacity:1;stroke-miterlimit:10;" d="M 994 362.601562 C 994 348.199219 970 348.199219 970 362.601562 C 970 377 994 379.398438 994 391.398438 C 994 379.398438 1018 377 1018 362.601562 C 1018 348.199219 994 348.199219 994 362.601562 "/>
</g>
</svg>
