<?xml version="1.0" encoding="UTF-8"?>
<svg xmlns="http://www.w3.org/2000/svg" xmlns:xlink="http://www.w3.org/1999/xlink" width="1179pt" height="517pt" viewBox="0 0 1179 517" version="1.1">
<g id="surface681">
<rect x="0" y="0" width="1179" height="517" style="fill:rgb(90%,90%,90%);fill-opacity:1;stroke:none;"/>
<path style="fill-rule:nonzero;fill:rgb(100%,51%,0%);fill-opacity:1;stroke-width:1;stroke-linecap:butt;stroke-linejoin:miter;stroke:rgb(0%,0%,0%);stroke-opacity:1;stroke-miterlimit:10;" d="M 441.214844 98 C 441.214844 109.714844 431.714844 119.214844 420 119.214844 C 408.285156 119.214844 398.785156 109.714844 398.785156 98 C 398.785156 86.285156 408.285156 76.785156 420 76.785156 C 431.714844 76.785156 441.214844 86.285156 441.214844 98 "/>
<path style="fill-rule:nonzero;fill:rgb(100%,51%,0%);fill-opacity:1;stroke-width:1;stroke-linecap:butt;stroke-linejoin:miter;stroke:rgb(0%,0%,0%);stroke-opacity:1;stroke-miterlimit:10;" d="M 222.785156 58.785156 L 222.785156 101.214844 L 265.214844 101.214844 L 265.214844 58.785156 L 222.785156 58.785156 "/>
<path style="fill-rule:nonzero;fill:rgb(100%,51%,0%);fill-opacity:1;stroke-width:1;stroke-linecap:butt;stroke-linejoin:miter;stroke:rgb(0%,0%,0%);stroke-opacity:1;stroke-miterlimit:10;" d="M 185.214844 409 C 185.214844 420.714844 175.714844 430.214844 164 430.214844 C 152.285156 430.214844 142.785156 420.714844 142.785156 409 C 142.785156 397.285156 152.285156 387.785156 164 387.785156 C 175.714844 387.785156 185.214844 397.285156 185.214844 409 "/>
<path style="fill-rule:nonzero;fill:rgb(100%,51%,0%);fill-opacity:1;stroke-width:1;stroke-linecap:butt;stroke-linejoin:miter;stroke:rgb(0%,0%,0%);stroke-opacity:1;stroke-miterlimit:10;" d="M 198.785156 219.785156 L 198.785156 262.214844 L 241.214844 262.214844 L 241.214844 219.785156 L 198.785156 219.785156 "/>
<path style="fill-rule:nonzero;fill:rgb(100%,51%,0%);fill-opacity:1;stroke-width:1;stroke-linecap:butt;stroke-linejoin:miter;stroke:rgb(0%,0%,0%);stroke-opacity:1;stroke-miterlimit:10;" d="M 447.214844 346 C 447.214844 357.714844 437.714844 367.214844 426 367.214844 C 414.285156 367.214844 404.785156 357.714844 404.785156 346 C 404.785156 334.285156 414.285156 324.785156 426 324.785156 C 437.714844 324.785156 447.214844 334.285156 447.214844 346 "/>
<path style="fill-rule:nonzero;fill:rgb(55%,51%,53%);fill-opacity:1;stroke-width:1;stroke-linecap:butt;stroke-linejoin:miter;stroke:rgb(0%,0%,0%);stroke-opacity:1;stroke-miterlimit:10;" d="M 783.785156 197.785156 L 783.785156 240.214844 L 826.214844 240.214844 L 826.214844 197.785156 L 783.785156 197.785156 "/>
<path style="fill-rule:nonzero;fill:rgb(55%,51%,53%);fill-opacity:1;stroke-width:1;stroke-linecap:butt;stroke-linejoin:miter;stroke:rgb(0%,0%,0%);stroke-opacity:1;stroke-miterlimit:10;" d="M 1012.214844 183 C 1012.214844 194.714844 1002.714844 204.214844 991 204.214844 C 979.285156 204.214844 969.785156 194.714844 969.785156 183 C 969.785156 171.285156 979.285156 161.785156 991 161.785156 C 1002.714844 161.785156 1012.214844 171.285156 1012.214844 183 "/>
<path style="fill-rule:nonzero;fill:rgb(55%,51%,53%);fill-opacity:1;stroke-width:1;stroke-linecap:butt;stroke-linejoin:miter;stroke:rgb(0%,0%,0%);stroke-opacity:1;stroke-miterlimit:10;" d="M 889.785156 112.785156 L 889.785156 155.214844 L 932.214844 155.214844 L 932.214844 112.785156 L 889.785156 112.785156 "/>
<path style="fill-rule:nonzero;fill:rgb(55%,51%,53%);fill-opacity:1;stroke-width:1;stroke-linecap:butt;stroke-linejoin:miter;stroke:rgb(0%,0%,0%);stroke-opacity:1;stroke-miterlimit:10;" d="M 764.214844 286 C 764.214844 297.714844 754.714844 307.214844 743 307.214844 C 731.285156 307.214844 721.785156 297.714844 721.785156 286 C 721.785156 274.285156 731.285156 264.785156 743 264.785156 C 754.714844 264.785156 764.214844 274.285156 764.214844 286 "/>
<path style="fill-rule:nonzero;fill:rgb(55%,51%,53%);fill-opacity:1;stroke-width:1;stroke-linecap:butt;stroke-linejoin:miter;stroke:rgb(0%,0%,0%);stroke-opacity:1;stroke-miterlimit:10;" d="M 774.785156 393.785156 L 774.785156 436.214844 L 817.214844 436.214844 L 817.214844 393.785156 L 774.785156 393.785156 "/>
</g>
</svg>
