<?xml version="1.0" encoding="UTF-8"?>
<svg xmlns="http://www.w3.org/2000/svg" xmlns:xlink="http://www.w3.org/1999/xlink" width="1179pt" height="517pt" viewBox="0 0 1179 517" version="1.1">
<g id="surface586">
<rect x="0" y="0" width="1179" height="517" style="fill:rgb(90%,90%,90%);fill-opacity:1;stroke:none;"/>
<path style="fill-rule:nonzero;fill:rgb(35%,70%,90%);fill-opacity:1;stroke-width:1;stroke-linecap:butt;stroke-linejoin:miter;stroke:rgb(0%,0%,0%);stroke-opacity:1;stroke-miterlimit:10;" d="M 397.214844 357 C 397.214844 368.714844 387.714844 378.214844 376 378.214844 C 364.285156 378.214844 354.785156 368.714844 354.785156 357 C 354.785156 345.285156 364.285156 335.785156 376 335.785156 C 387.714844 335.785156 397.214844 345.285156 397.214844 357 "/>
<path style="fill-rule:nonzero;fill:rgb(35%,70%,90%);fill-opacity:1;stroke-width:1;stroke-linecap:butt;stroke-linejoin:miter;stroke:rgb(0%,0%,0%);stroke-opacity:1;stroke-miterlimit:10;" d="M 208.214844 364 C 208.214844 375.714844 198.714844 385.214844 187 385.214844 C 175.285156 385.214844 165.785156 375.714844 165.785156 364 C 165.785156 352.285156 175.285156 342.785156 187 342.785156 C 198.714844 342.785156 208.214844 352.285156 208.214844 364 "/>
<path style="fill-rule:nonzero;fill:rgb(53%,27%,7%);fill-opacity:1;stroke-width:1;stroke-linecap:butt;stroke-linejoin:miter;stroke:rgb(0%,0%,0%);stroke-opacity:1;stroke-miterlimit:10;" d="M 297.214844 215 C 297.214844 226.714844 287.714844 236.214844 276 236.214844 C 264.285156 236.214844 254.785156 226.714844 254.785156 215 C 254.785156 203.285156 264.285156 193.785156 276 193.785156 C 287.714844 193.785156 297.214844 203.285156 297.214844 215 "/>
<path style="fill-rule:nonzero;fill:rgb(53%,27%,7%);fill-opacity:1;stroke-width:1;stroke-linecap:butt;stroke-linejoin:miter;stroke:rgb(0%,0%,0%);stroke-opacity:1;stroke-miterlimit:10;" d="M 910 208 L 884.019531 253 L 935.980469 253 L 910 208 "/>
<path style="fill-rule:nonzero;fill:rgb(53%,27%,7%);fill-opacity:1;stroke-width:1;stroke-linecap:butt;stroke-linejoin:miter;stroke:rgb(0%,0%,0%);stroke-opacity:1;stroke-miterlimit:10;" d="M 882 63 L 856.019531 108 L 907.980469 108 L 882 63 "/>
<path style="fill-rule:nonzero;fill:rgb(35%,70%,90%);fill-opacity:1;stroke-width:1;stroke-linecap:butt;stroke-linejoin:miter;stroke:rgb(0%,0%,0%);stroke-opacity:1;stroke-miterlimit:10;" d="M 724 80 L 698.019531 125 L 749.980469 125 L 724 80 "/>
</g>
</svg>
