<?xml version="1.0" encoding="UTF-8"?>
<svg xmlns="http://www.w3.org/2000/svg" xmlns:xlink="http://www.w3.org/1999/xlink" width="1179pt" height="517pt" viewBox="0 0 1179 517" version="1.1">
<g id="surface1391">
<rect x="0" y="0" width="1179" height="517" style="fill:rgb(90%,90%,90%);fill-opacity:1;stroke:none;"/>
<path style="fill-rule:nonzero;fill:rgb(53%,27%,7%);fill-opacity:1;stroke-width:1;stroke-linecap:butt;stroke-linejoin:miter;stroke:rgb(0%,0%,0%);stroke-opacity:1;stroke-miterlimit:10;" d="M 896 345 L 870.019531 390 L 921.980469 390 L 896 345 "/>
<path style="fill-rule:nonzero;fill:rgb(53%,27%,7%);fill-opacity:1;stroke-width:1;stroke-linecap:butt;stroke-linejoin:miter;stroke:rgb(0%,0%,0%);stroke-opacity:1;stroke-miterlimit:10;" d="M 502 318 L 476.019531 363 L 527.980469 363 L 502 318 "/>
<path style="fill-rule:nonzero;fill:rgb(53%,27%,7%);fill-opacity:1;stroke-width:1;stroke-linecap:butt;stroke-linejoin:miter;stroke:rgb(0%,0%,0%);stroke-opacity:1;stroke-miterlimit:10;" d="M 345 310 L 319.019531 355 L 370.980469 355 L 345 310 "/>
<path style="fill-rule:nonzero;fill:rgb(53%,27%,7%);fill-opacity:1;stroke-width:1;stroke-linecap:butt;stroke-linejoin:miter;stroke:rgb(0%,0%,0%);stroke-opacity:1;stroke-miterlimit:10;" d="M 655 202 L 629.019531 247 L 680.980469 247 L 655 202 "/>
<path style="fill-rule:nonzero;fill:rgb(35%,70%,90%);fill-opacity:1;stroke-width:1;stroke-linecap:butt;stroke-linejoin:miter;stroke:rgb(0%,0%,0%);stroke-opacity:1;stroke-miterlimit:10;" d="M 535 126 L 564.664062 126 L 576.664062 97.785156 L 588.664062 126 L 618.332031 126 L 594.332031 143.4375 L 602.417969 174.980469 L 576.664062 157.542969 L 550.914062 174.980469 L 563.214844 143.4375 L 535 126 "/>
<path style="fill-rule:nonzero;fill:rgb(35%,70%,90%);fill-opacity:1;stroke-width:1;stroke-linecap:butt;stroke-linejoin:miter;stroke:rgb(0%,0%,0%);stroke-opacity:1;stroke-miterlimit:10;" d="M 1005 170 L 1034.664062 170 L 1046.664062 141.785156 L 1058.664062 170 L 1088.332031 170 L 1064.332031 187.4375 L 1072.417969 218.980469 L 1046.664062 201.542969 L 1020.914062 218.980469 L 1033.214844 187.4375 L 1005 170 "/>
<path style="fill-rule:nonzero;fill:rgb(35%,70%,90%);fill-opacity:1;stroke-width:1;stroke-linecap:butt;stroke-linejoin:miter;stroke:rgb(0%,0%,0%);stroke-opacity:1;stroke-miterlimit:10;" d="M 317 198 L 346.664062 198 L 358.664062 169.785156 L 370.664062 198 L 400.332031 198 L 376.332031 215.4375 L 384.417969 246.980469 L 358.664062 229.542969 L 332.914062 246.980469 L 345.214844 215.4375 L 317 198 "/>
<path style="fill-rule:nonzero;fill:rgb(35%,70%,90%);fill-opacity:1;stroke-width:1;stroke-linecap:butt;stroke-linejoin:miter;stroke:rgb(0%,0%,0%);stroke-opacity:1;stroke-miterlimit:10;" d="M 765 312 L 794.664062 312 L 806.664062 283.785156 L 818.664062 312 L 848.332031 312 L 824.332031 329.4375 L 832.417969 360.980469 L 806.664062 343.542969 L 780.914062 360.980469 L 793.214844 329.4375 L 765 312 "/>
<path style="fill-rule:nonzero;fill:rgb(35%,70%,90%);fill-opacity:1;stroke-width:1;stroke-linecap:butt;stroke-linejoin:miter;stroke:rgb(0%,0%,0%);stroke-opacity:1;stroke-miterlimit:10;" d="M 919 81 L 948.664062 81 L 960.664062 52.785156 L 972.664062 81 L 1002.332031 81 L 978.332031 98.4375 L 986.417969 129.980469 L 960.664062 112.542969 L 934.914062 129.980469 L 947.214844 98.4375 L 919 81 "/>
</g>
</svg>
