<?xml version="1.0" encoding="UTF-8"?>
<svg xmlns="http://www.w3.org/2000/svg" xmlns:xlink="http://www.w3.org/1999/xlink" width="1179pt" height="517pt" viewBox="0 0 1179 517" version="1.1">
<g id="surface676">
<rect x="0" y="0" width="1179" height="517" style="fill:rgb(90%,90%,90%);fill-opacity:1;stroke:none;"/>
<path style="fill-rule:nonzero;fill:rgb(100%,51%,0%);fill-opacity:1;stroke-width:1;stroke-linecap:butt;stroke-linejoin:miter;stroke:rgb(0%,0%,0%);stroke-opacity:1;stroke-miterlimit:10;" d="M 426.214844 366 C 426.214844 377.714844 416.714844 387.214844 405 387.214844 C 393.285156 387.214844 383.785156 377.714844 383.785156 366 C 383.785156 354.285156 393.285156 344.785156 405 344.785156 C 416.714844 344.785156 426.214844 354.285156 426.214844 366 "/>
<path style="fill-rule:nonzero;fill:rgb(100%,51%,0%);fill-opacity:1;stroke-width:1;stroke-linecap:butt;stroke-linejoin:miter;stroke:rgb(0%,0%,0%);stroke-opacity:1;stroke-miterlimit:10;" d="M 399.214844 234 C 399.214844 245.714844 389.714844 255.214844 378 255.214844 C 366.285156 255.214844 356.785156 245.714844 356.785156 234 C 356.785156 222.285156 366.285156 212.785156 378 212.785156 C 389.714844 212.785156 399.214844 222.285156 399.214844 234 "/>
<path style="fill-rule:nonzero;fill:rgb(55%,51%,53%);fill-opacity:1;stroke-width:1;stroke-linecap:butt;stroke-linejoin:miter;stroke:rgb(0%,0%,0%);stroke-opacity:1;stroke-miterlimit:10;" d="M 308.214844 424 C 308.214844 435.714844 298.714844 445.214844 287 445.214844 C 275.285156 445.214844 265.785156 435.714844 265.785156 424 C 265.785156 412.285156 275.285156 402.785156 287 402.785156 C 298.714844 402.785156 308.214844 412.285156 308.214844 424 "/>
<path style="fill-rule:nonzero;fill:rgb(100%,51%,0%);fill-opacity:1;stroke-width:1;stroke-linecap:butt;stroke-linejoin:miter;stroke:rgb(0%,0%,0%);stroke-opacity:1;stroke-miterlimit:10;" d="M 104.214844 115 C 104.214844 126.714844 94.714844 136.214844 83 136.214844 C 71.285156 136.214844 61.785156 126.714844 61.785156 115 C 61.785156 103.285156 71.285156 93.785156 83 93.785156 C 94.714844 93.785156 104.214844 103.285156 104.214844 115 "/>
<path style="fill-rule:nonzero;fill:rgb(100%,51%,0%);fill-opacity:1;stroke-width:1;stroke-linecap:butt;stroke-linejoin:miter;stroke:rgb(0%,0%,0%);stroke-opacity:1;stroke-miterlimit:10;" d="M 301.214844 260 C 301.214844 271.714844 291.714844 281.214844 280 281.214844 C 268.285156 281.214844 258.785156 271.714844 258.785156 260 C 258.785156 248.285156 268.285156 238.785156 280 238.785156 C 291.714844 238.785156 301.214844 248.285156 301.214844 260 "/>
<path style="fill-rule:nonzero;fill:rgb(100%,51%,0%);fill-opacity:1;stroke-width:1;stroke-linecap:butt;stroke-linejoin:miter;stroke:rgb(0%,0%,0%);stroke-opacity:1;stroke-miterlimit:10;" d="M 113.214844 212 C 113.214844 223.714844 103.714844 233.214844 92 233.214844 C 80.285156 233.214844 70.785156 223.714844 70.785156 212 C 70.785156 200.285156 80.285156 190.785156 92 190.785156 C 103.714844 190.785156 113.214844 200.285156 113.214844 212 "/>
<path style="fill-rule:nonzero;fill:rgb(100%,51%,0%);fill-opacity:1;stroke-width:1;stroke-linecap:butt;stroke-linejoin:miter;stroke:rgb(0%,0%,0%);stroke-opacity:1;stroke-miterlimit:10;" d="M 220.214844 205 C 220.214844 216.714844 210.714844 226.214844 199 226.214844 C 187.285156 226.214844 177.785156 216.714844 177.785156 205 C 177.785156 193.285156 187.285156 183.785156 199 183.785156 C 210.714844 183.785156 220.214844 193.285156 220.214844 205 "/>
<path style="fill-rule:nonzero;fill:rgb(100%,51%,0%);fill-opacity:1;stroke-width:1;stroke-linecap:butt;stroke-linejoin:miter;stroke:rgb(0%,0%,0%);stroke-opacity:1;stroke-miterlimit:10;" d="M 252.214844 95 C 252.214844 106.714844 242.714844 116.214844 231 116.214844 C 219.285156 116.214844 209.785156 106.714844 209.785156 95 C 209.785156 83.285156 219.285156 73.785156 231 73.785156 C 242.714844 73.785156 252.214844 83.285156 252.214844 95 "/>
<path style="fill-rule:nonzero;fill:rgb(55%,51%,53%);fill-opacity:1;stroke-width:1;stroke-linecap:butt;stroke-linejoin:miter;stroke:rgb(0%,0%,0%);stroke-opacity:1;stroke-miterlimit:10;" d="M 887 193 L 861.019531 238 L 912.980469 238 L 887 193 "/>
<path style="fill-rule:nonzero;fill:rgb(55%,51%,53%);fill-opacity:1;stroke-width:1;stroke-linecap:butt;stroke-linejoin:miter;stroke:rgb(0%,0%,0%);stroke-opacity:1;stroke-miterlimit:10;" d="M 786 238 L 760.019531 283 L 811.980469 283 L 786 238 "/>
<path style="fill-rule:nonzero;fill:rgb(100%,51%,0%);fill-opacity:1;stroke-width:1;stroke-linecap:butt;stroke-linejoin:miter;stroke:rgb(0%,0%,0%);stroke-opacity:1;stroke-miterlimit:10;" d="M 880 284 L 854.019531 329 L 905.980469 329 L 880 284 "/>
<path style="fill-rule:nonzero;fill:rgb(55%,51%,53%);fill-opacity:1;stroke-width:1;stroke-linecap:butt;stroke-linejoin:miter;stroke:rgb(0%,0%,0%);stroke-opacity:1;stroke-miterlimit:10;" d="M 958 363 L 932.019531 408 L 983.980469 408 L 958 363 "/>
<path style="fill-rule:nonzero;fill:rgb(55%,51%,53%);fill-opacity:1;stroke-width:1;stroke-linecap:butt;stroke-linejoin:miter;stroke:rgb(0%,0%,0%);stroke-opacity:1;stroke-miterlimit:10;" d="M 827 120 L 801.019531 165 L 852.980469 165 L 827 120 "/>
<path style="fill-rule:nonzero;fill:rgb(55%,51%,53%);fill-opacity:1;stroke-width:1;stroke-linecap:butt;stroke-linejoin:miter;stroke:rgb(0%,0%,0%);stroke-opacity:1;stroke-miterlimit:10;" d="M 1039 90 L 1013.019531 135 L 1064.980469 135 L 1039 90 "/>
<path style="fill-rule:nonzero;fill:rgb(55%,51%,53%);fill-opacity:1;stroke-width:1;stroke-linecap:butt;stroke-linejoin:miter;stroke:rgb(0%,0%,0%);stroke-opacity:1;stroke-miterlimit:10;" d="M 737 112 L 711.019531 157 L 762.980469 157 L 737 112 "/>
</g>
</svg>
