<?xml version="1.0" encoding="UTF-8"?>
<svg xmlns="http://www.w3.org/2000/svg" xmlns:xlink="http://www.w3.org/1999/xlink" width="1179pt" height="517pt" viewBox="0 0 1179 517" version="1.1">
<g id="surface526">
<rect x="0" y="0" width="1179" height="517" style="fill:rgb(90%,90%,90%);fill-opacity:1;stroke:none;"/>
<path style="fill-rule:nonzero;fill:rgb(55%,51%,53%);fill-opacity:1;stroke-width:1;stroke-linecap:butt;stroke-linejoin:miter;stroke:rgb(0%,0%,0%);stroke-opacity:1;stroke-miterlimit:10;" d="M 365.214844 240 C 365.214844 251.714844 355.714844 261.214844 344 261.214844 C 332.285156 261.214844 322.785156 251.714844 322.785156 240 C 322.785156 228.285156 332.285156 218.785156 344 218.785156 C 355.714844 218.785156 365.214844 228.285156 365.214844 240 "/>
<path style="fill-rule:nonzero;fill:rgb(55%,51%,53%);fill-opacity:1;stroke-width:1;stroke-linecap:butt;stroke-linejoin:miter;stroke:rgb(0%,0%,0%);stroke-opacity:1;stroke-miterlimit:10;" d="M 388.214844 95 C 388.214844 106.714844 378.714844 116.214844 367 116.214844 C 355.285156 116.214844 345.785156 106.714844 345.785156 95 C 345.785156 83.285156 355.285156 73.785156 367 73.785156 C 378.714844 73.785156 388.214844 83.285156 388.214844 95 "/>
<path style="fill-rule:nonzero;fill:rgb(55%,51%,53%);fill-opacity:1;stroke-width:1;stroke-linecap:butt;stroke-linejoin:miter;stroke:rgb(0%,0%,0%);stroke-opacity:1;stroke-miterlimit:10;" d="M 111.214844 156 C 111.214844 167.714844 101.714844 177.214844 90 177.214844 C 78.285156 177.214844 68.785156 167.714844 68.785156 156 C 68.785156 144.285156 78.285156 134.785156 90 134.785156 C 101.714844 134.785156 111.214844 144.285156 111.214844 156 "/>
<path style="fill-rule:nonzero;fill:rgb(53%,27%,7%);fill-opacity:1;stroke-width:1;stroke-linecap:butt;stroke-linejoin:miter;stroke:rgb(0%,0%,0%);stroke-opacity:1;stroke-miterlimit:10;" d="M 952 304 L 926.019531 349 L 977.980469 349 L 952 304 "/>
<path style="fill-rule:nonzero;fill:rgb(53%,27%,7%);fill-opacity:1;stroke-width:1;stroke-linecap:butt;stroke-linejoin:miter;stroke:rgb(0%,0%,0%);stroke-opacity:1;stroke-miterlimit:10;" d="M 937 60 L 911.019531 105 L 962.980469 105 L 937 60 "/>
<path style="fill-rule:nonzero;fill:rgb(53%,27%,7%);fill-opacity:1;stroke-width:1;stroke-linecap:butt;stroke-linejoin:miter;stroke:rgb(0%,0%,0%);stroke-opacity:1;stroke-miterlimit:10;" d="M 774 125 L 748.019531 170 L 799.980469 170 L 774 125 "/>
<path style="fill-rule:nonzero;fill:rgb(53%,27%,7%);fill-opacity:1;stroke-width:1;stroke-linecap:butt;stroke-linejoin:miter;stroke:rgb(0%,0%,0%);stroke-opacity:1;stroke-miterlimit:10;" d="M 859.214844 384 C 859.214844 395.714844 849.714844 405.214844 838 405.214844 C 826.285156 405.214844 816.785156 395.714844 816.785156 384 C 816.785156 372.285156 826.285156 362.785156 838 362.785156 C 849.714844 362.785156 859.214844 372.285156 859.214844 384 "/>
<path style="fill-rule:nonzero;fill:rgb(53%,27%,7%);fill-opacity:1;stroke-width:1;stroke-linecap:butt;stroke-linejoin:miter;stroke:rgb(0%,0%,0%);stroke-opacity:1;stroke-miterlimit:10;" d="M 895 164 L 869.019531 209 L 920.980469 209 L 895 164 "/>
</g>
</svg>
