<?xml version="1.0" encoding="UTF-8"?>
<svg xmlns="http://www.w3.org/2000/svg" xmlns:xlink="http://www.w3.org/1999/xlink" width="1179pt" height="517pt" viewBox="0 0 1179 517" version="1.1">
<g id="surface676">
<rect x="0" y="0" width="1179" height="517" style="fill:rgb(90%,90%,90%);fill-opacity:1;stroke:none;"/>
<path style="fill-rule:nonzero;fill:rgb(100%,51%,0%);fill-opacity:1;stroke-width:1;stroke-linecap:butt;stroke-linejoin:miter;stroke:rgb(0%,0%,0%);stroke-opacity:1;stroke-miterlimit:10;" d="M 364.214844 109 C 364.214844 120.714844 354.714844 130.214844 343 130.214844 C 331.285156 130.214844 321.785156 120.714844 321.785156 109 C 321.785156 97.285156 331.285156 87.785156 343 87.785156 C 354.714844 87.785156 364.214844 97.285156 364.214844 109 "/>
<path style="fill-rule:nonzero;fill:rgb(55%,51%,53%);fill-opacity:1;stroke-width:1;stroke-linecap:butt;stroke-linejoin:miter;stroke:rgb(0%,0%,0%);stroke-opacity:1;stroke-miterlimit:10;" d="M 192.214844 98 C 192.214844 109.714844 182.714844 119.214844 171 119.214844 C 159.285156 119.214844 149.785156 109.714844 149.785156 98 C 149.785156 86.285156 159.285156 76.785156 171 76.785156 C 182.714844 76.785156 192.214844 86.285156 192.214844 98 "/>
<path style="fill-rule:nonzero;fill:rgb(55%,51%,53%);fill-opacity:1;stroke-width:1;stroke-linecap:butt;stroke-linejoin:miter;stroke:rgb(0%,0%,0%);stroke-opacity:1;stroke-miterlimit:10;" d="M 157.214844 358 C 157.214844 369.714844 147.714844 379.214844 136 379.214844 C 124.285156 379.214844 114.785156 369.714844 114.785156 358 C 114.785156 346.285156 124.285156 336.785156 136 336.785156 C 147.714844 336.785156 157.214844 346.285156 157.214844 358 "/>
<path style="fill-rule:nonzero;fill:rgb(100%,51%,0%);fill-opacity:1;stroke-width:1;stroke-linecap:butt;stroke-linejoin:miter;stroke:rgb(0%,0%,0%);stroke-opacity:1;stroke-miterlimit:10;" d="M 367.214844 273 C 367.214844 284.714844 357.714844 294.214844 346 294.214844 C 334.285156 294.214844 324.785156 284.714844 324.785156 273 C 324.785156 261.285156 334.285156 251.785156 346 251.785156 C 357.714844 251.785156 367.214844 261.285156 367.214844 273 "/>
<path style="fill-rule:nonzero;fill:rgb(100%,51%,0%);fill-opacity:1;stroke-width:1;stroke-linecap:butt;stroke-linejoin:miter;stroke:rgb(0%,0%,0%);stroke-opacity:1;stroke-miterlimit:10;" d="M 360.214844 386 C 360.214844 397.714844 350.714844 407.214844 339 407.214844 C 327.285156 407.214844 317.785156 397.714844 317.785156 386 C 317.785156 374.285156 327.285156 364.785156 339 364.785156 C 350.714844 364.785156 360.214844 374.285156 360.214844 386 "/>
<path style="fill-rule:nonzero;fill:rgb(55%,51%,53%);fill-opacity:1;stroke-width:1;stroke-linecap:butt;stroke-linejoin:miter;stroke:rgb(0%,0%,0%);stroke-opacity:1;stroke-miterlimit:10;" d="M 858 283 L 832.019531 328 L 883.980469 328 L 858 283 "/>
<path style="fill-rule:nonzero;fill:rgb(100%,51%,0%);fill-opacity:1;stroke-width:1;stroke-linecap:butt;stroke-linejoin:miter;stroke:rgb(0%,0%,0%);stroke-opacity:1;stroke-miterlimit:10;" d="M 758 66 L 732.019531 111 L 783.980469 111 L 758 66 "/>
<path style="fill-rule:nonzero;fill:rgb(100%,51%,0%);fill-opacity:1;stroke-width:1;stroke-linecap:butt;stroke-linejoin:miter;stroke:rgb(0%,0%,0%);stroke-opacity:1;stroke-miterlimit:10;" d="M 985 219 L 959.019531 264 L 1010.980469 264 L 985 219 "/>
</g>
</svg>
