<?xml version="1.0" encoding="UTF-8"?>
<svg xmlns="http://www.w3.org/2000/svg" xmlns:xlink="http://www.w3.org/1999/xlink" width="1179pt" height="517pt" viewBox="0 0 1179 517" version="1.1">
<g id="surface1">
<rect x="0" y="0" width="1179" height="517" style="fill:rgb(90%,90%,90%);fill-opacity:1;stroke:none;"/>
<path style="fill-rule:nonzero;fill:rgb(35%,70%,90%);fill-opacity:1;stroke-width:1;stroke-linecap:butt;stroke-linejoin:miter;stroke:rgb(0%,0%,0%);stroke-opacity:1;stroke-miterlimit:10;" d="M 401 391 L 430.664062 391 L 442.664062 362.785156 L 454.664062 391 L 484.332031 391 L 460.332031 408.4375 L 468.417969 439.980469 L 442.664062 422.542969 L 416.914062 439.980469 L 429.214844 408.4375 L 401 391 "/>
<path style="fill-rule:nonzero;fill:rgb(35%,70%,90%);fill-opacity:1;stroke-width:1;stroke-linecap:butt;stroke-linejoin:miter;stroke:rgb(0%,0%,0%);stroke-opacity:1;stroke-miterlimit:10;" d="M 312 281 L 341.664062 281 L 353.664062 252.785156 L 365.664062 281 L 395.332031 281 L 371.332031 298.4375 L 379.417969 329.980469 L 353.664062 312.542969 L 327.914062 329.980469 L 340.214844 298.4375 L 312 281 "/>
<path style="fill-rule:nonzero;fill:rgb(35%,70%,90%);fill-opacity:1;stroke-width:1;stroke-linecap:butt;stroke-linejoin:miter;stroke:rgb(0%,0%,0%);stroke-opacity:1;stroke-miterlimit:10;" d="M 649 371 L 678.664062 371 L 690.664062 342.785156 L 702.664062 371 L 732.332031 371 L 708.332031 388.4375 L 716.417969 419.980469 L 690.664062 402.542969 L 664.914062 419.980469 L 677.214844 388.4375 L 649 371 "/>
<path style="fill-rule:nonzero;fill:rgb(35%,70%,90%);fill-opacity:1;stroke-width:1;stroke-linecap:butt;stroke-linejoin:miter;stroke:rgb(0%,0%,0%);stroke-opacity:1;stroke-miterlimit:10;" d="M 240 141 L 269.664062 141 L 281.664062 112.785156 L 293.664062 141 L 323.332031 141 L 299.332031 158.4375 L 307.417969 189.980469 L 281.664062 172.542969 L 255.914062 189.980469 L 268.214844 158.4375 L 240 141 "/>
<path style="fill-rule:nonzero;fill:rgb(100%,51%,0%);fill-opacity:1;stroke-width:1;stroke-linecap:butt;stroke-linejoin:miter;stroke:rgb(0%,0%,0%);stroke-opacity:1;stroke-miterlimit:10;" d="M 906.214844 103 C 906.214844 114.714844 896.714844 124.214844 885 124.214844 C 873.285156 124.214844 863.785156 114.714844 863.785156 103 C 863.785156 91.285156 873.285156 81.785156 885 81.785156 C 896.714844 81.785156 906.214844 91.285156 906.214844 103 "/>
<path style="fill-rule:nonzero;fill:rgb(100%,51%,0%);fill-opacity:1;stroke-width:1;stroke-linecap:butt;stroke-linejoin:miter;stroke:rgb(0%,0%,0%);stroke-opacity:1;stroke-miterlimit:10;" d="M 824.214844 229 C 824.214844 240.714844 814.714844 250.214844 803 250.214844 C 791.285156 250.214844 781.785156 240.714844 781.785156 229 C 781.785156 217.285156 791.285156 207.785156 803 207.785156 C 814.714844 207.785156 824.214844 217.285156 824.214844 229 "/>
<path style="fill-rule:nonzero;fill:rgb(100%,51%,0%);fill-opacity:1;stroke-width:1;stroke-linecap:butt;stroke-linejoin:miter;stroke:rgb(0%,0%,0%);stroke-opacity:1;stroke-miterlimit:10;" d="M 468.214844 280 C 468.214844 291.714844 458.714844 301.214844 447 301.214844 C 435.285156 301.214844 425.785156 291.714844 425.785156 280 C 425.785156 268.285156 435.285156 258.785156 447 258.785156 C 458.714844 258.785156 468.214844 268.285156 468.214844 280 "/>
</g>
</svg>
