<?xml version="1.0" encoding="UTF-8"?>
<svg xmlns="http://www.w3.org/2000/svg" xmlns:xlink="http://www.w3.org/1999/xlink" width="1179pt" height="517pt" viewBox="0 0 1179 517" version="1.1">
<g id="surface696">
<rect x="0" y="0" width="1179" height="517" style="fill:rgb(90%,90%,90%);fill-opacity:1;stroke:none;"/>
<path style="fill-rule:nonzero;fill:rgb(55%,51%,53%);fill-opacity:1;stroke-width:1;stroke-linecap:butt;stroke-linejoin:miter;stroke:rgb(0%,0%,0%);stroke-opacity:1;stroke-miterlimit:10;" d="M 720 82 L 749.664062 82 L 761.664062 53.785156 L 773.664062 82 L 803.332031 82 L 779.332031 99.4375 L 787.417969 130.980469 L 761.664062 113.542969 L 735.914062 130.980469 L 748.214844 99.4375 L 720 82 "/>
<path style="fill-rule:nonzero;fill:rgb(55%,51%,53%);fill-opacity:1;stroke-width:1;stroke-linecap:butt;stroke-linejoin:miter;stroke:rgb(0%,0%,0%);stroke-opacity:1;stroke-miterlimit:10;" d="M 850 237 L 879.664062 237 L 891.664062 208.785156 L 903.664062 237 L 933.332031 237 L 909.332031 254.4375 L 917.417969 285.980469 L 891.664062 268.542969 L 865.914062 285.980469 L 878.214844 254.4375 L 850 237 "/>
<path style="fill-rule:nonzero;fill:rgb(55%,51%,53%);fill-opacity:1;stroke-width:1;stroke-linecap:butt;stroke-linejoin:miter;stroke:rgb(0%,0%,0%);stroke-opacity:1;stroke-miterlimit:10;" d="M 516 80 L 545.664062 80 L 557.664062 51.785156 L 569.664062 80 L 599.332031 80 L 575.332031 97.4375 L 583.417969 128.980469 L 557.664062 111.542969 L 531.914062 128.980469 L 544.214844 97.4375 L 516 80 "/>
<path style="fill-rule:nonzero;fill:rgb(55%,51%,53%);fill-opacity:1;stroke-width:1;stroke-linecap:butt;stroke-linejoin:miter;stroke:rgb(0%,0%,0%);stroke-opacity:1;stroke-miterlimit:10;" d="M 433 236 L 462.664062 236 L 474.664062 207.785156 L 486.664062 236 L 516.332031 236 L 492.332031 253.4375 L 500.417969 284.980469 L 474.664062 267.542969 L 448.914062 284.980469 L 461.214844 253.4375 L 433 236 "/>
<path style="fill-rule:nonzero;fill:rgb(53%,27%,7%);fill-opacity:1;stroke-width:1;stroke-linecap:butt;stroke-linejoin:miter;stroke:rgb(0%,0%,0%);stroke-opacity:1;stroke-miterlimit:10;" d="M 604 363 L 578.019531 408 L 629.980469 408 L 604 363 "/>
<path style="fill-rule:nonzero;fill:rgb(53%,27%,7%);fill-opacity:1;stroke-width:1;stroke-linecap:butt;stroke-linejoin:miter;stroke:rgb(0%,0%,0%);stroke-opacity:1;stroke-miterlimit:10;" d="M 439 386 L 413.019531 431 L 464.980469 431 L 439 386 "/>
<path style="fill-rule:nonzero;fill:rgb(53%,27%,7%);fill-opacity:1;stroke-width:1;stroke-linecap:butt;stroke-linejoin:miter;stroke:rgb(0%,0%,0%);stroke-opacity:1;stroke-miterlimit:10;" d="M 658 186 L 632.019531 231 L 683.980469 231 L 658 186 "/>
<path style="fill-rule:nonzero;fill:rgb(53%,27%,7%);fill-opacity:1;stroke-width:1;stroke-linecap:butt;stroke-linejoin:miter;stroke:rgb(0%,0%,0%);stroke-opacity:1;stroke-miterlimit:10;" d="M 774 341 L 748.019531 386 L 799.980469 386 L 774 341 "/>
</g>
</svg>
