<?xml version="1.0" encoding="UTF-8"?>
<svg xmlns="http://www.w3.org/2000/svg" xmlns:xlink="http://www.w3.org/1999/xlink" width="1179pt" height="517pt" viewBox="0 0 1179 517" version="1.1">
<g id="surface1016">
<rect x="0" y="0" width="1179" height="517" style="fill:rgb(90%,90%,90%);fill-opacity:1;stroke:none;"/>
<path style="fill-rule:nonzero;fill:rgb(55%,51%,53%);fill-opacity:1;stroke-width:1;stroke-linecap:butt;stroke-linejoin:miter;stroke:rgb(0%,0%,0%);stroke-opacity:1;stroke-miterlimit:10;" d="M 617 150.601562 C 617 136.199219 593 136.199219 593 150.601562 C 593 165 617 167.398438 617 179.398438 C 617 167.398438 641 165 641 150.601562 C 641 136.199219 617 136.199219 617 150.601562 "/>
<path style="fill-rule:nonzero;fill:rgb(55%,51%,53%);fill-opacity:1;stroke-width:1;stroke-linecap:butt;stroke-linejoin:miter;stroke:rgb(0%,0%,0%);stroke-opacity:1;stroke-miterlimit:10;" d="M 322 177.601562 C 322 163.199219 298 163.199219 298 177.601562 C 298 192 322 194.398438 322 206.398438 C 322 194.398438 346 192 346 177.601562 C 346 163.199219 322 163.199219 322 177.601562 "/>
<path style="fill-rule:nonzero;fill:rgb(55%,51%,53%);fill-opacity:1;stroke-width:1;stroke-linecap:butt;stroke-linejoin:miter;stroke:rgb(0%,0%,0%);stroke-opacity:1;stroke-miterlimit:10;" d="M 270 308.601562 C 270 294.199219 246 294.199219 246 308.601562 C 246 323 270 325.398438 270 337.398438 C 270 325.398438 294 323 294 308.601562 C 294 294.199219 270 294.199219 270 308.601562 "/>
<path style="fill-rule:nonzero;fill:rgb(55%,51%,53%);fill-opacity:1;stroke-width:1;stroke-linecap:butt;stroke-linejoin:miter;stroke:rgb(0%,0%,0%);stroke-opacity:1;stroke-miterlimit:10;" d="M 815 277.601562 C 815 263.199219 791 263.199219 791 277.601562 C 791 292 815 294.398438 815 306.398438 C 815 294.398438 839 292 839 277.601562 C 839 263.199219 815 263.199219 815 277.601562 "/>
<path style="fill-rule:nonzero;fill:rgb(53%,27%,7%);fill-opacity:1;stroke-width:1;stroke-linecap:butt;stroke-linejoin:miter;stroke:rgb(0%,0%,0%);stroke-opacity:1;stroke-miterlimit:10;" d="M 123 139 L 152.664062 139 L 164.664062 110.785156 L 176.664062 139 L 206.332031 139 L 182.332031 156.4375 L 190.417969 187.980469 L 164.664062 170.542969 L 138.914062 187.980469 L 151.214844 156.4375 L 123 139 "/>
<path style="fill-rule:nonzero;fill:rgb(53%,27%,7%);fill-opacity:1;stroke-width:1;stroke-linecap:butt;stroke-linejoin:miter;stroke:rgb(0%,0%,0%);stroke-opacity:1;stroke-miterlimit:10;" d="M 967 283 L 996.664062 283 L 1008.664062 254.785156 L 1020.664062 283 L 1050.332031 283 L 1026.332031 300.4375 L 1034.417969 331.980469 L 1008.664062 314.542969 L 982.914062 331.980469 L 995.214844 300.4375 L 967 283 "/>
<path style="fill-rule:nonzero;fill:rgb(53%,27%,7%);fill-opacity:1;stroke-width:1;stroke-linecap:butt;stroke-linejoin:miter;stroke:rgb(0%,0%,0%);stroke-opacity:1;stroke-miterlimit:10;" d="M 159 378 L 188.664062 378 L 200.664062 349.785156 L 212.664062 378 L 242.332031 378 L 218.332031 395.4375 L 226.417969 426.980469 L 200.664062 409.542969 L 174.914062 426.980469 L 187.214844 395.4375 L 159 378 "/>
<path style="fill-rule:nonzero;fill:rgb(53%,27%,7%);fill-opacity:1;stroke-width:1;stroke-linecap:butt;stroke-linejoin:miter;stroke:rgb(0%,0%,0%);stroke-opacity:1;stroke-miterlimit:10;" d="M 405 405 L 434.664062 405 L 446.664062 376.785156 L 458.664062 405 L 488.332031 405 L 464.332031 422.4375 L 472.417969 453.980469 L 446.664062 436.542969 L 420.914062 453.980469 L 433.214844 422.4375 L 405 405 "/>
</g>
</svg>
