<?xml version="1.0" encoding="UTF-8"?>
<svg xmlns="http://www.w3.org/2000/svg" xmlns:xlink="http://www.w3.org/1999/xlink" width="1179pt" height="517pt" viewBox="0 0 1179 517" version="1.1">
<g id="surface201">
<rect x="0" y="0" width="1179" height="517" style="fill:rgb(90%,90%,90%);fill-opacity:1;stroke:none;"/>
<path style="fill-rule:nonzero;fill:rgb(35%,70%,90%);fill-opacity:1;stroke-width:1;stroke-linecap:butt;stroke-linejoin:miter;stroke:rgb(0%,0%,0%);stroke-opacity:1;stroke-miterlimit:10;" d="M 445.214844 146 C 445.214844 157.714844 435.714844 167.214844 424 167.214844 C 412.285156 167.214844 402.785156 157.714844 402.785156 146 C 402.785156 134.285156 412.285156 124.785156 424 124.785156 C 435.714844 124.785156 445.214844 134.285156 445.214844 146 "/>
<path style="fill-rule:nonzero;fill:rgb(35%,70%,90%);fill-opacity:1;stroke-width:1;stroke-linecap:butt;stroke-linejoin:miter;stroke:rgb(0%,0%,0%);stroke-opacity:1;stroke-miterlimit:10;" d="M 297.785156 200.785156 L 297.785156 243.214844 L 340.214844 243.214844 L 340.214844 200.785156 L 297.785156 200.785156 "/>
<path style="fill-rule:nonzero;fill:rgb(35%,70%,90%);fill-opacity:1;stroke-width:1;stroke-linecap:butt;stroke-linejoin:miter;stroke:rgb(0%,0%,0%);stroke-opacity:1;stroke-miterlimit:10;" d="M 247.214844 190 C 247.214844 201.714844 237.714844 211.214844 226 211.214844 C 214.285156 211.214844 204.785156 201.714844 204.785156 190 C 204.785156 178.285156 214.285156 168.785156 226 168.785156 C 237.714844 168.785156 247.214844 178.285156 247.214844 190 "/>
<path style="fill-rule:nonzero;fill:rgb(35%,70%,90%);fill-opacity:1;stroke-width:1;stroke-linecap:butt;stroke-linejoin:miter;stroke:rgb(0%,0%,0%);stroke-opacity:1;stroke-miterlimit:10;" d="M 336.214844 81 C 336.214844 92.714844 326.714844 102.214844 315 102.214844 C 303.285156 102.214844 293.785156 92.714844 293.785156 81 C 293.785156 69.285156 303.285156 59.785156 315 59.785156 C 326.714844 59.785156 336.214844 69.285156 336.214844 81 "/>
<path style="fill-rule:nonzero;fill:rgb(35%,70%,90%);fill-opacity:1;stroke-width:1;stroke-linecap:butt;stroke-linejoin:miter;stroke:rgb(0%,0%,0%);stroke-opacity:1;stroke-miterlimit:10;" d="M 142.214844 141 C 142.214844 152.714844 132.714844 162.214844 121 162.214844 C 109.285156 162.214844 99.785156 152.714844 99.785156 141 C 99.785156 129.285156 109.285156 119.785156 121 119.785156 C 132.714844 119.785156 142.214844 129.285156 142.214844 141 "/>
<path style="fill-rule:nonzero;fill:rgb(35%,70%,90%);fill-opacity:1;stroke-width:1;stroke-linecap:butt;stroke-linejoin:miter;stroke:rgb(0%,0%,0%);stroke-opacity:1;stroke-miterlimit:10;" d="M 123.214844 259 C 123.214844 270.714844 113.714844 280.214844 102 280.214844 C 90.285156 280.214844 80.785156 270.714844 80.785156 259 C 80.785156 247.285156 90.285156 237.785156 102 237.785156 C 113.714844 237.785156 123.214844 247.285156 123.214844 259 "/>
<path style="fill-rule:nonzero;fill:rgb(35%,70%,90%);fill-opacity:1;stroke-width:1;stroke-linecap:butt;stroke-linejoin:miter;stroke:rgb(0%,0%,0%);stroke-opacity:1;stroke-miterlimit:10;" d="M 393.214844 351 C 393.214844 362.714844 383.714844 372.214844 372 372.214844 C 360.285156 372.214844 350.785156 362.714844 350.785156 351 C 350.785156 339.285156 360.285156 329.785156 372 329.785156 C 383.714844 329.785156 393.214844 339.285156 393.214844 351 "/>
<path style="fill-rule:nonzero;fill:rgb(35%,70%,90%);fill-opacity:1;stroke-width:1;stroke-linecap:butt;stroke-linejoin:miter;stroke:rgb(0%,0%,0%);stroke-opacity:1;stroke-miterlimit:10;" d="M 163.214844 422 C 163.214844 433.714844 153.714844 443.214844 142 443.214844 C 130.285156 443.214844 120.785156 433.714844 120.785156 422 C 120.785156 410.285156 130.285156 400.785156 142 400.785156 C 153.714844 400.785156 163.214844 410.285156 163.214844 422 "/>
<path style="fill-rule:nonzero;fill:rgb(100%,51%,0%);fill-opacity:1;stroke-width:1;stroke-linecap:butt;stroke-linejoin:miter;stroke:rgb(0%,0%,0%);stroke-opacity:1;stroke-miterlimit:10;" d="M 870.785156 130.785156 L 870.785156 173.214844 L 913.214844 173.214844 L 913.214844 130.785156 L 870.785156 130.785156 "/>
<path style="fill-rule:nonzero;fill:rgb(100%,51%,0%);fill-opacity:1;stroke-width:1;stroke-linecap:butt;stroke-linejoin:miter;stroke:rgb(0%,0%,0%);stroke-opacity:1;stroke-miterlimit:10;" d="M 892.214844 264 C 892.214844 275.714844 882.714844 285.214844 871 285.214844 C 859.285156 285.214844 849.785156 275.714844 849.785156 264 C 849.785156 252.285156 859.285156 242.785156 871 242.785156 C 882.714844 242.785156 892.214844 252.285156 892.214844 264 "/>
<path style="fill-rule:nonzero;fill:rgb(100%,51%,0%);fill-opacity:1;stroke-width:1;stroke-linecap:butt;stroke-linejoin:miter;stroke:rgb(0%,0%,0%);stroke-opacity:1;stroke-miterlimit:10;" d="M 861.785156 360.785156 L 861.785156 403.214844 L 904.214844 403.214844 L 904.214844 360.785156 L 861.785156 360.785156 "/>
<path style="fill-rule:nonzero;fill:rgb(100%,51%,0%);fill-opacity:1;stroke-width:1;stroke-linecap:butt;stroke-linejoin:miter;stroke:rgb(0%,0%,0%);stroke-opacity:1;stroke-miterlimit:10;" d="M 998.785156 115.785156 L 998.785156 158.214844 L 1041.214844 158.214844 L 1041.214844 115.785156 L 998.785156 115.785156 "/>
<path style="fill-rule:nonzero;fill:rgb(100%,51%,0%);fill-opacity:1;stroke-width:1;stroke-linecap:butt;stroke-linejoin:miter;stroke:rgb(0%,0%,0%);stroke-opacity:1;stroke-miterlimit:10;" d="M 756.785156 68.785156 L 756.785156 111.214844 L 799.214844 111.214844 L 799.214844 68.785156 L 756.785156 68.785156 "/>
<path style="fill-rule:nonzero;fill:rgb(100%,51%,0%);fill-opacity:1;stroke-width:1;stroke-linecap:butt;stroke-linejoin:miter;stroke:rgb(0%,0%,0%);stroke-opacity:1;stroke-miterlimit:10;" d="M 741.785156 167.785156 L 741.785156 210.214844 L 784.214844 210.214844 L 784.214844 167.785156 L 741.785156 167.785156 "/>
<path style="fill-rule:nonzero;fill:rgb(100%,51%,0%);fill-opacity:1;stroke-width:1;stroke-linecap:butt;stroke-linejoin:miter;stroke:rgb(0%,0%,0%);stroke-opacity:1;stroke-miterlimit:10;" d="M 973.785156 358.785156 L 973.785156 401.214844 L 1016.214844 401.214844 L 1016.214844 358.785156 L 973.785156 358.785156 "/>
</g>
</svg>
