<?xml version="1.0" encoding="UTF-8"?>
<svg xmlns="http://www.w3.org/2000/svg" xmlns:xlink="http://www.w3.org/1999/xlink" width="1179pt" height="517pt" viewBox="0 0 1179 517" version="1.1">
<g id="surface1201">
<rect x="0" y="0" width="1179" height="517" style="fill:rgb(90%,90%,90%);fill-opacity:1;stroke:none;"/>
<path style="fill-rule:nonzero;fill:rgb(100%,51%,0%);fill-opacity:1;stroke-width:1;stroke-linecap:butt;stroke-linejoin:miter;stroke:rgb(0%,0%,0%);stroke-opacity:1;stroke-miterlimit:10;" d="M 195 312 L 224.664062 312 L 236.664062 283.785156 L 248.664062 312 L 278.332031 312 L 254.332031 329.4375 L 262.417969 360.980469 L 236.664062 343.542969 L 210.914062 360.980469 L 223.214844 329.4375 L 195 312 "/>
<path style="fill-rule:nonzero;fill:rgb(100%,51%,0%);fill-opacity:1;stroke-width:1;stroke-linecap:butt;stroke-linejoin:miter;stroke:rgb(0%,0%,0%);stroke-opacity:1;stroke-miterlimit:10;" d="M 1020 392 L 1049.664062 392 L 1061.664062 363.785156 L 1073.664062 392 L 1103.332031 392 L 1079.332031 409.4375 L 1087.417969 440.980469 L 1061.664062 423.542969 L 1035.914062 440.980469 L 1048.214844 409.4375 L 1020 392 "/>
<path style="fill-rule:nonzero;fill:rgb(100%,51%,0%);fill-opacity:1;stroke-width:1;stroke-linecap:butt;stroke-linejoin:miter;stroke:rgb(0%,0%,0%);stroke-opacity:1;stroke-miterlimit:10;" d="M 405 163 L 434.664062 163 L 446.664062 134.785156 L 458.664062 163 L 488.332031 163 L 464.332031 180.4375 L 472.417969 211.980469 L 446.664062 194.542969 L 420.914062 211.980469 L 433.214844 180.4375 L 405 163 "/>
<path style="fill-rule:nonzero;fill:rgb(100%,51%,0%);fill-opacity:1;stroke-width:1;stroke-linecap:butt;stroke-linejoin:miter;stroke:rgb(0%,0%,0%);stroke-opacity:1;stroke-miterlimit:10;" d="M 435 331 L 464.664062 331 L 476.664062 302.785156 L 488.664062 331 L 518.332031 331 L 494.332031 348.4375 L 502.417969 379.980469 L 476.664062 362.542969 L 450.914062 379.980469 L 463.214844 348.4375 L 435 331 "/>
<path style="fill-rule:nonzero;fill:rgb(100%,51%,0%);fill-opacity:1;stroke-width:1;stroke-linecap:butt;stroke-linejoin:miter;stroke:rgb(0%,0%,0%);stroke-opacity:1;stroke-miterlimit:10;" d="M 867 103 L 896.664062 103 L 908.664062 74.785156 L 920.664062 103 L 950.332031 103 L 926.332031 120.4375 L 934.417969 151.980469 L 908.664062 134.542969 L 882.914062 151.980469 L 895.214844 120.4375 L 867 103 "/>
<path style="fill-rule:nonzero;fill:rgb(35%,70%,90%);fill-opacity:1;stroke-width:1;stroke-linecap:butt;stroke-linejoin:miter;stroke:rgb(0%,0%,0%);stroke-opacity:1;stroke-miterlimit:10;" d="M 112 398 L 86.019531 443 L 137.980469 443 L 112 398 "/>
<path style="fill-rule:nonzero;fill:rgb(35%,70%,90%);fill-opacity:1;stroke-width:1;stroke-linecap:butt;stroke-linejoin:miter;stroke:rgb(0%,0%,0%);stroke-opacity:1;stroke-miterlimit:10;" d="M 1004 140 L 978.019531 185 L 1029.980469 185 L 1004 140 "/>
<path style="fill-rule:nonzero;fill:rgb(35%,70%,90%);fill-opacity:1;stroke-width:1;stroke-linecap:butt;stroke-linejoin:miter;stroke:rgb(0%,0%,0%);stroke-opacity:1;stroke-miterlimit:10;" d="M 684 397 L 658.019531 442 L 709.980469 442 L 684 397 "/>
</g>
</svg>
