<?xml version="1.0" encoding="UTF-8"?>
<svg xmlns="http://www.w3.org/2000/svg" xmlns:xlink="http://www.w3.org/1999/xlink" width="1179pt" height="517pt" viewBox="0 0 1179 517" version="1.1">
<g id="surface836">
<rect x="0" y="0" width="1179" height="517" style="fill:rgb(90%,90%,90%);fill-opacity:1;stroke:none;"/>
<path style="fill-rule:nonzero;fill:rgb(35%,70%,90%);fill-opacity:1;stroke-width:1;stroke-linecap:butt;stroke-linejoin:miter;stroke:rgb(0%,0%,0%);stroke-opacity:1;stroke-miterlimit:10;" d="M 785.214844 307 C 785.214844 318.714844 775.714844 328.214844 764 328.214844 C 752.285156 328.214844 742.785156 318.714844 742.785156 307 C 742.785156 295.285156 752.285156 285.785156 764 285.785156 C 775.714844 285.785156 785.214844 295.285156 785.214844 307 "/>
<path style="fill-rule:nonzero;fill:rgb(35%,70%,90%);fill-opacity:1;stroke-width:1;stroke-linecap:butt;stroke-linejoin:miter;stroke:rgb(0%,0%,0%);stroke-opacity:1;stroke-miterlimit:10;" d="M 546.214844 134 C 546.214844 145.714844 536.714844 155.214844 525 155.214844 C 513.285156 155.214844 503.785156 145.714844 503.785156 134 C 503.785156 122.285156 513.285156 112.785156 525 112.785156 C 536.714844 112.785156 546.214844 122.285156 546.214844 134 "/>
<path style="fill-rule:nonzero;fill:rgb(35%,70%,90%);fill-opacity:1;stroke-width:1;stroke-linecap:butt;stroke-linejoin:miter;stroke:rgb(0%,0%,0%);stroke-opacity:1;stroke-miterlimit:10;" d="M 138.214844 189 C 138.214844 200.714844 128.714844 210.214844 117 210.214844 C 105.285156 210.214844 95.785156 200.714844 95.785156 189 C 95.785156 177.285156 105.285156 167.785156 117 167.785156 C 128.714844 167.785156 138.214844 177.285156 138.214844 189 "/>
<path style="fill-rule:nonzero;fill:rgb(35%,70%,90%);fill-opacity:1;stroke-width:1;stroke-linecap:butt;stroke-linejoin:miter;stroke:rgb(0%,0%,0%);stroke-opacity:1;stroke-miterlimit:10;" d="M 388.214844 85 C 388.214844 96.714844 378.714844 106.214844 367 106.214844 C 355.285156 106.214844 345.785156 96.714844 345.785156 85 C 345.785156 73.285156 355.285156 63.785156 367 63.785156 C 378.714844 63.785156 388.214844 73.285156 388.214844 85 "/>
<path style="fill-rule:nonzero;fill:rgb(35%,70%,90%);fill-opacity:1;stroke-width:1;stroke-linecap:butt;stroke-linejoin:miter;stroke:rgb(0%,0%,0%);stroke-opacity:1;stroke-miterlimit:10;" d="M 596.214844 414 C 596.214844 425.714844 586.714844 435.214844 575 435.214844 C 563.285156 435.214844 553.785156 425.714844 553.785156 414 C 553.785156 402.285156 563.285156 392.785156 575 392.785156 C 586.714844 392.785156 596.214844 402.285156 596.214844 414 "/>
<path style="fill-rule:nonzero;fill:rgb(67%,100%,18%);fill-opacity:1;stroke-width:1;stroke-linecap:butt;stroke-linejoin:miter;stroke:rgb(0%,0%,0%);stroke-opacity:1;stroke-miterlimit:10;" d="M 984 213 L 1013.664062 213 L 1025.664062 184.785156 L 1037.664062 213 L 1067.332031 213 L 1043.332031 230.4375 L 1051.417969 261.980469 L 1025.664062 244.542969 L 999.914062 261.980469 L 1012.214844 230.4375 L 984 213 "/>
<path style="fill-rule:nonzero;fill:rgb(67%,100%,18%);fill-opacity:1;stroke-width:1;stroke-linecap:butt;stroke-linejoin:miter;stroke:rgb(0%,0%,0%);stroke-opacity:1;stroke-miterlimit:10;" d="M 207 270 L 236.664062 270 L 248.664062 241.785156 L 260.664062 270 L 290.332031 270 L 266.332031 287.4375 L 274.417969 318.980469 L 248.664062 301.542969 L 222.914062 318.980469 L 235.214844 287.4375 L 207 270 "/>
<path style="fill-rule:nonzero;fill:rgb(67%,100%,18%);fill-opacity:1;stroke-width:1;stroke-linecap:butt;stroke-linejoin:miter;stroke:rgb(0%,0%,0%);stroke-opacity:1;stroke-miterlimit:10;" d="M 471 312 L 500.664062 312 L 512.664062 283.785156 L 524.664062 312 L 554.332031 312 L 530.332031 329.4375 L 538.417969 360.980469 L 512.664062 343.542969 L 486.914062 360.980469 L 499.214844 329.4375 L 471 312 "/>
</g>
</svg>
