<?xml version="1.0" encoding="UTF-8"?>
<svg xmlns="http://www.w3.org/2000/svg" xmlns:xlink="http://www.w3.org/1999/xlink" width="1179pt" height="517pt" viewBox="0 0 1179 517" version="1.1">
<g id="surface226">
<rect x="0" y="0" width="1179" height="517" style="fill:rgb(90%,90%,90%);fill-opacity:1;stroke:none;"/>
<path style="fill-rule:nonzero;fill:rgb(35%,70%,90%);fill-opacity:1;stroke-width:1;stroke-linecap:butt;stroke-linejoin:miter;stroke:rgb(0%,0%,0%);stroke-opacity:1;stroke-miterlimit:10;" d="M 171.214844 382 C 171.214844 393.714844 161.714844 403.214844 150 403.214844 C 138.285156 403.214844 128.785156 393.714844 128.785156 382 C 128.785156 370.285156 138.285156 360.785156 150 360.785156 C 161.714844 360.785156 171.214844 370.285156 171.214844 382 "/>
<path style="fill-rule:nonzero;fill:rgb(35%,70%,90%);fill-opacity:1;stroke-width:1;stroke-linecap:butt;stroke-linejoin:miter;stroke:rgb(0%,0%,0%);stroke-opacity:1;stroke-miterlimit:10;" d="M 357.214844 431 C 357.214844 442.714844 347.714844 452.214844 336 452.214844 C 324.285156 452.214844 314.785156 442.714844 314.785156 431 C 314.785156 419.285156 324.285156 409.785156 336 409.785156 C 347.714844 409.785156 357.214844 419.285156 357.214844 431 "/>
<path style="fill-rule:nonzero;fill:rgb(53%,27%,7%);fill-opacity:1;stroke-width:1;stroke-linecap:butt;stroke-linejoin:miter;stroke:rgb(0%,0%,0%);stroke-opacity:1;stroke-miterlimit:10;" d="M 438.214844 117 C 438.214844 128.714844 428.714844 138.214844 417 138.214844 C 405.285156 138.214844 395.785156 128.714844 395.785156 117 C 395.785156 105.285156 405.285156 95.785156 417 95.785156 C 428.714844 95.785156 438.214844 105.285156 438.214844 117 "/>
<path style="fill-rule:nonzero;fill:rgb(53%,27%,7%);fill-opacity:1;stroke-width:1;stroke-linecap:butt;stroke-linejoin:miter;stroke:rgb(0%,0%,0%);stroke-opacity:1;stroke-miterlimit:10;" d="M 754 269 L 728.019531 314 L 779.980469 314 L 754 269 "/>
<path style="fill-rule:nonzero;fill:rgb(53%,27%,7%);fill-opacity:1;stroke-width:1;stroke-linecap:butt;stroke-linejoin:miter;stroke:rgb(0%,0%,0%);stroke-opacity:1;stroke-miterlimit:10;" d="M 896 219 L 870.019531 264 L 921.980469 264 L 896 219 "/>
<path style="fill-rule:nonzero;fill:rgb(35%,70%,90%);fill-opacity:1;stroke-width:1;stroke-linecap:butt;stroke-linejoin:miter;stroke:rgb(0%,0%,0%);stroke-opacity:1;stroke-miterlimit:10;" d="M 764 51 L 738.019531 96 L 789.980469 96 L 764 51 "/>
</g>
</svg>
