<?xml version="1.0" encoding="UTF-8"?>
<svg xmlns="http://www.w3.org/2000/svg" xmlns:xlink="http://www.w3.org/1999/xlink" width="1179pt" height="517pt" viewBox="0 0 1179 517" version="1.1">
<g id="surface481">
<rect x="0" y="0" width="1179" height="517" style="fill:rgb(90%,90%,90%);fill-opacity:1;stroke:none;"/>
<path style="fill-rule:nonzero;fill:rgb(100%,51%,0%);fill-opacity:1;stroke-width:1;stroke-linecap:butt;stroke-linejoin:miter;stroke:rgb(0%,0%,0%);stroke-opacity:1;stroke-miterlimit:10;" d="M 980 338 L 1009.664062 338 L 1021.664062 309.785156 L 1033.664062 338 L 1063.332031 338 L 1039.332031 355.4375 L 1047.417969 386.980469 L 1021.664062 369.542969 L 995.914062 386.980469 L 1008.214844 355.4375 L 980 338 "/>
<path style="fill-rule:nonzero;fill:rgb(100%,51%,0%);fill-opacity:1;stroke-width:1;stroke-linecap:butt;stroke-linejoin:miter;stroke:rgb(0%,0%,0%);stroke-opacity:1;stroke-miterlimit:10;" d="M 471 386 L 500.664062 386 L 512.664062 357.785156 L 524.664062 386 L 554.332031 386 L 530.332031 403.4375 L 538.417969 434.980469 L 512.664062 417.542969 L 486.914062 434.980469 L 499.214844 403.4375 L 471 386 "/>
<path style="fill-rule:nonzero;fill:rgb(100%,51%,0%);fill-opacity:1;stroke-width:1;stroke-linecap:butt;stroke-linejoin:miter;stroke:rgb(0%,0%,0%);stroke-opacity:1;stroke-miterlimit:10;" d="M 363 174 L 392.664062 174 L 404.664062 145.785156 L 416.664062 174 L 446.332031 174 L 422.332031 191.4375 L 430.417969 222.980469 L 404.664062 205.542969 L 378.914062 222.980469 L 391.214844 191.4375 L 363 174 "/>
<path style="fill-rule:nonzero;fill:rgb(100%,51%,0%);fill-opacity:1;stroke-width:1;stroke-linecap:butt;stroke-linejoin:miter;stroke:rgb(0%,0%,0%);stroke-opacity:1;stroke-miterlimit:10;" d="M 762 133 L 791.664062 133 L 803.664062 104.785156 L 815.664062 133 L 845.332031 133 L 821.332031 150.4375 L 829.417969 181.980469 L 803.664062 164.542969 L 777.914062 181.980469 L 790.214844 150.4375 L 762 133 "/>
<path style="fill-rule:nonzero;fill:rgb(55%,51%,53%);fill-opacity:1;stroke-width:1;stroke-linecap:butt;stroke-linejoin:miter;stroke:rgb(0%,0%,0%);stroke-opacity:1;stroke-miterlimit:10;" d="M 651.214844 145 C 651.214844 156.714844 641.714844 166.214844 630 166.214844 C 618.285156 166.214844 608.785156 156.714844 608.785156 145 C 608.785156 133.285156 618.285156 123.785156 630 123.785156 C 641.714844 123.785156 651.214844 133.285156 651.214844 145 "/>
<path style="fill-rule:nonzero;fill:rgb(55%,51%,53%);fill-opacity:1;stroke-width:1;stroke-linecap:butt;stroke-linejoin:miter;stroke:rgb(0%,0%,0%);stroke-opacity:1;stroke-miterlimit:10;" d="M 198.214844 269 C 198.214844 280.714844 188.714844 290.214844 177 290.214844 C 165.285156 290.214844 155.785156 280.714844 155.785156 269 C 155.785156 257.285156 165.285156 247.785156 177 247.785156 C 188.714844 247.785156 198.214844 257.285156 198.214844 269 "/>
<path style="fill-rule:nonzero;fill:rgb(55%,51%,53%);fill-opacity:1;stroke-width:1;stroke-linecap:butt;stroke-linejoin:miter;stroke:rgb(0%,0%,0%);stroke-opacity:1;stroke-miterlimit:10;" d="M 169.214844 100 C 169.214844 111.714844 159.714844 121.214844 148 121.214844 C 136.285156 121.214844 126.785156 111.714844 126.785156 100 C 126.785156 88.285156 136.285156 78.785156 148 78.785156 C 159.714844 78.785156 169.214844 88.285156 169.214844 100 "/>
</g>
</svg>
