<?xml version="1.0" encoding="UTF-8"?>
<svg xmlns="http://www.w3.org/2000/svg" xmlns:xlink="http://www.w3.org/1999/xlink" width="1179pt" height="517pt" viewBox="0 0 1179 517" version="1.1">
<g id="surface876">
<rect x="0" y="0" width="1179" height="517" style="fill:rgb(90%,90%,90%);fill-opacity:1;stroke:none;"/>
<path style="fill-rule:nonzero;fill:rgb(100%,51%,0%);fill-opacity:1;stroke-width:1;stroke-linecap:butt;stroke-linejoin:miter;stroke:rgb(0%,0%,0%);stroke-opacity:1;stroke-miterlimit:10;" d="M 368.214844 197 C 368.214844 208.714844 358.714844 218.214844 347 218.214844 C 335.285156 218.214844 325.785156 208.714844 325.785156 197 C 325.785156 185.285156 335.285156 175.785156 347 175.785156 C 358.714844 175.785156 368.214844 185.285156 368.214844 197 "/>
<path style="fill-rule:nonzero;fill:rgb(100%,51%,0%);fill-opacity:1;stroke-width:1;stroke-linecap:butt;stroke-linejoin:miter;stroke:rgb(0%,0%,0%);stroke-opacity:1;stroke-miterlimit:10;" d="M 1049.214844 224 C 1049.214844 235.714844 1039.714844 245.214844 1028 245.214844 C 1016.285156 245.214844 1006.785156 235.714844 1006.785156 224 C 1006.785156 212.285156 1016.285156 202.785156 1028 202.785156 C 1039.714844 202.785156 1049.214844 212.285156 1049.214844 224 "/>
<path style="fill-rule:nonzero;fill:rgb(100%,51%,0%);fill-opacity:1;stroke-width:1;stroke-linecap:butt;stroke-linejoin:miter;stroke:rgb(0%,0%,0%);stroke-opacity:1;stroke-miterlimit:10;" d="M 138.214844 316 C 138.214844 327.714844 128.714844 337.214844 117 337.214844 C 105.285156 337.214844 95.785156 327.714844 95.785156 316 C 95.785156 304.285156 105.285156 294.785156 117 294.785156 C 128.714844 294.785156 138.214844 304.285156 138.214844 316 "/>
<path style="fill-rule:nonzero;fill:rgb(35%,70%,90%);fill-opacity:1;stroke-width:1;stroke-linecap:butt;stroke-linejoin:miter;stroke:rgb(0%,0%,0%);stroke-opacity:1;stroke-miterlimit:10;" d="M 699 285 L 728.664062 285 L 740.664062 256.785156 L 752.664062 285 L 782.332031 285 L 758.332031 302.4375 L 766.417969 333.980469 L 740.664062 316.542969 L 714.914062 333.980469 L 727.214844 302.4375 L 699 285 "/>
<path style="fill-rule:nonzero;fill:rgb(35%,70%,90%);fill-opacity:1;stroke-width:1;stroke-linecap:butt;stroke-linejoin:miter;stroke:rgb(0%,0%,0%);stroke-opacity:1;stroke-miterlimit:10;" d="M 312 388 L 341.664062 388 L 353.664062 359.785156 L 365.664062 388 L 395.332031 388 L 371.332031 405.4375 L 379.417969 436.980469 L 353.664062 419.542969 L 327.914062 436.980469 L 340.214844 405.4375 L 312 388 "/>
<path style="fill-rule:nonzero;fill:rgb(35%,70%,90%);fill-opacity:1;stroke-width:1;stroke-linecap:butt;stroke-linejoin:miter;stroke:rgb(0%,0%,0%);stroke-opacity:1;stroke-miterlimit:10;" d="M 577 122 L 606.664062 122 L 618.664062 93.785156 L 630.664062 122 L 660.332031 122 L 636.332031 139.4375 L 644.417969 170.980469 L 618.664062 153.542969 L 592.914062 170.980469 L 605.214844 139.4375 L 577 122 "/>
<path style="fill-rule:nonzero;fill:rgb(35%,70%,90%);fill-opacity:1;stroke-width:1;stroke-linecap:butt;stroke-linejoin:miter;stroke:rgb(0%,0%,0%);stroke-opacity:1;stroke-miterlimit:10;" d="M 792 402 L 821.664062 402 L 833.664062 373.785156 L 845.664062 402 L 875.332031 402 L 851.332031 419.4375 L 859.417969 450.980469 L 833.664062 433.542969 L 807.914062 450.980469 L 820.214844 419.4375 L 792 402 "/>
</g>
</svg>
