<?xml version="1.0" encoding="UTF-8"?>
<svg xmlns="http://www.w3.org/2000/svg" xmlns:xlink="http://www.w3.org/1999/xlink" width="1179pt" height="517pt" viewBox="0 0 1179 517" version="1.1">
<g id="surface916">
<rect x="0" y="0" width="1179" height="517" style="fill:rgb(90%,90%,90%);fill-opacity:1;stroke:none;"/>
<path style="fill-rule:nonzero;fill:rgb(55%,51%,53%);fill-opacity:1;stroke-width:1;stroke-linecap:butt;stroke-linejoin:miter;stroke:rgb(0%,0%,0%);stroke-opacity:1;stroke-miterlimit:10;" d="M 403 127 L 432.664062 127 L 444.664062 98.785156 L 456.664062 127 L 486.332031 127 L 462.332031 144.4375 L 470.417969 175.980469 L 444.664062 158.542969 L 418.914062 175.980469 L 431.214844 144.4375 L 403 127 "/>
<path style="fill-rule:nonzero;fill:rgb(55%,51%,53%);fill-opacity:1;stroke-width:1;stroke-linecap:butt;stroke-linejoin:miter;stroke:rgb(0%,0%,0%);stroke-opacity:1;stroke-miterlimit:10;" d="M 216 239 L 245.664062 239 L 257.664062 210.785156 L 269.664062 239 L 299.332031 239 L 275.332031 256.4375 L 283.417969 287.980469 L 257.664062 270.542969 L 231.914062 287.980469 L 244.214844 256.4375 L 216 239 "/>
<path style="fill-rule:nonzero;fill:rgb(55%,51%,53%);fill-opacity:1;stroke-width:1;stroke-linecap:butt;stroke-linejoin:miter;stroke:rgb(0%,0%,0%);stroke-opacity:1;stroke-miterlimit:10;" d="M 80 153 L 109.664062 153 L 121.664062 124.785156 L 133.664062 153 L 163.332031 153 L 139.332031 170.4375 L 147.417969 201.980469 L 121.664062 184.542969 L 95.914062 201.980469 L 108.214844 170.4375 L 80 153 "/>
<path style="fill-rule:nonzero;fill:rgb(53%,27%,7%);fill-opacity:1;stroke-width:1;stroke-linecap:butt;stroke-linejoin:miter;stroke:rgb(0%,0%,0%);stroke-opacity:1;stroke-miterlimit:10;" d="M 104 388 L 133.664062 388 L 145.664062 359.785156 L 157.664062 388 L 187.332031 388 L 163.332031 405.4375 L 171.417969 436.980469 L 145.664062 419.542969 L 119.914062 436.980469 L 132.214844 405.4375 L 104 388 "/>
<path style="fill-rule:nonzero;fill:rgb(55%,51%,53%);fill-opacity:1;stroke-width:1;stroke-linecap:butt;stroke-linejoin:miter;stroke:rgb(0%,0%,0%);stroke-opacity:1;stroke-miterlimit:10;" d="M 404 264 L 433.664062 264 L 445.664062 235.785156 L 457.664062 264 L 487.332031 264 L 463.332031 281.4375 L 471.417969 312.980469 L 445.664062 295.542969 L 419.914062 312.980469 L 432.214844 281.4375 L 404 264 "/>
<path style="fill-rule:nonzero;fill:rgb(55%,51%,53%);fill-opacity:1;stroke-width:1;stroke-linecap:butt;stroke-linejoin:miter;stroke:rgb(0%,0%,0%);stroke-opacity:1;stroke-miterlimit:10;" d="M 815 349 L 844.664062 349 L 856.664062 320.785156 L 868.664062 349 L 898.332031 349 L 874.332031 366.4375 L 882.417969 397.980469 L 856.664062 380.542969 L 830.914062 397.980469 L 843.214844 366.4375 L 815 349 "/>
<path style="fill-rule:nonzero;fill:rgb(55%,51%,53%);fill-opacity:1;stroke-width:1;stroke-linecap:butt;stroke-linejoin:miter;stroke:rgb(0%,0%,0%);stroke-opacity:1;stroke-miterlimit:10;" d="M 806 136 L 835.664062 136 L 847.664062 107.785156 L 859.664062 136 L 889.332031 136 L 865.332031 153.4375 L 873.417969 184.980469 L 847.664062 167.542969 L 821.914062 184.980469 L 834.214844 153.4375 L 806 136 "/>
<path style="fill-rule:nonzero;fill:rgb(55%,51%,53%);fill-opacity:1;stroke-width:1;stroke-linecap:butt;stroke-linejoin:miter;stroke:rgb(0%,0%,0%);stroke-opacity:1;stroke-miterlimit:10;" d="M 964 179 L 993.664062 179 L 1005.664062 150.785156 L 1017.664062 179 L 1047.332031 179 L 1023.332031 196.4375 L 1031.417969 227.980469 L 1005.664062 210.542969 L 979.914062 227.980469 L 992.214844 196.4375 L 964 179 "/>
<path style="fill-rule:nonzero;fill:rgb(53%,27%,7%);fill-opacity:1;stroke-width:1;stroke-linecap:butt;stroke-linejoin:miter;stroke:rgb(0%,0%,0%);stroke-opacity:1;stroke-miterlimit:10;" d="M 713 382 L 742.664062 382 L 754.664062 353.785156 L 766.664062 382 L 796.332031 382 L 772.332031 399.4375 L 780.417969 430.980469 L 754.664062 413.542969 L 728.914062 430.980469 L 741.214844 399.4375 L 713 382 "/>
<path style="fill-rule:nonzero;fill:rgb(55%,51%,53%);fill-opacity:1;stroke-width:1;stroke-linecap:butt;stroke-linejoin:miter;stroke:rgb(0%,0%,0%);stroke-opacity:1;stroke-miterlimit:10;" d="M 907 85 L 936.664062 85 L 948.664062 56.785156 L 960.664062 85 L 990.332031 85 L 966.332031 102.4375 L 974.417969 133.980469 L 948.664062 116.542969 L 922.914062 133.980469 L 935.214844 102.4375 L 907 85 "/>
<path style="fill-rule:nonzero;fill:rgb(55%,51%,53%);fill-opacity:1;stroke-width:1;stroke-linecap:butt;stroke-linejoin:miter;stroke:rgb(0%,0%,0%);stroke-opacity:1;stroke-miterlimit:10;" d="M 757 213 L 786.664062 213 L 798.664062 184.785156 L 810.664062 213 L 840.332031 213 L 816.332031 230.4375 L 824.417969 261.980469 L 798.664062 244.542969 L 772.914062 261.980469 L 785.214844 230.4375 L 757 213 "/>
<path style="fill-rule:nonzero;fill:rgb(53%,27%,7%);fill-opacity:1;stroke-width:1;stroke-linecap:butt;stroke-linejoin:miter;stroke:rgb(0%,0%,0%);stroke-opacity:1;stroke-miterlimit:10;" d="M 890 299 L 919.664062 299 L 931.664062 270.785156 L 943.664062 299 L 973.332031 299 L 949.332031 316.4375 L 957.417969 347.980469 L 931.664062 330.542969 L 905.914062 347.980469 L 918.214844 316.4375 L 890 299 "/>
<path style="fill-rule:nonzero;fill:rgb(55%,51%,53%);fill-opacity:1;stroke-width:1;stroke-linecap:butt;stroke-linejoin:miter;stroke:rgb(0%,0%,0%);stroke-opacity:1;stroke-miterlimit:10;" d="M 1043 113 L 1072.664062 113 L 1084.664062 84.785156 L 1096.664062 113 L 1126.332031 113 L 1102.332031 130.4375 L 1110.417969 161.980469 L 1084.664062 144.542969 L 1058.914062 161.980469 L 1071.214844 130.4375 L 1043 113 "/>
</g>
</svg>
