<?xml version="1.0" encoding="UTF-8"?>
<svg xmlns="http://www.w3.org/2000/svg" xmlns:xlink="http://www.w3.org/1999/xlink" width="1179pt" height="517pt" viewBox="0 0 1179 517" version="1.1">
<g id="surface521">
<rect x="0" y="0" width="1179" height="517" style="fill:rgb(90%,90%,90%);fill-opacity:1;stroke:none;"/>
<path style="fill-rule:nonzero;fill:rgb(55%,51%,53%);fill-opacity:1;stroke-width:1;stroke-linecap:butt;stroke-linejoin:miter;stroke:rgb(0%,0%,0%);stroke-opacity:1;stroke-miterlimit:10;" d="M 267 239 L 296.664062 239 L 308.664062 210.785156 L 320.664062 239 L 350.332031 239 L 326.332031 256.4375 L 334.417969 287.980469 L 308.664062 270.542969 L 282.914062 287.980469 L 295.214844 256.4375 L 267 239 "/>
<path style="fill-rule:nonzero;fill:rgb(55%,51%,53%);fill-opacity:1;stroke-width:1;stroke-linecap:butt;stroke-linejoin:miter;stroke:rgb(0%,0%,0%);stroke-opacity:1;stroke-miterlimit:10;" d="M 319.785156 121.785156 L 319.785156 164.214844 L 362.214844 164.214844 L 362.214844 121.785156 L 319.785156 121.785156 "/>
<path style="fill-rule:nonzero;fill:rgb(55%,51%,53%);fill-opacity:1;stroke-width:1;stroke-linecap:butt;stroke-linejoin:miter;stroke:rgb(0%,0%,0%);stroke-opacity:1;stroke-miterlimit:10;" d="M 182 405 L 211.664062 405 L 223.664062 376.785156 L 235.664062 405 L 265.332031 405 L 241.332031 422.4375 L 249.417969 453.980469 L 223.664062 436.542969 L 197.914062 453.980469 L 210.214844 422.4375 L 182 405 "/>
<path style="fill-rule:nonzero;fill:rgb(53%,27%,7%);fill-opacity:1;stroke-width:1;stroke-linecap:butt;stroke-linejoin:miter;stroke:rgb(0%,0%,0%);stroke-opacity:1;stroke-miterlimit:10;" d="M 1013.785156 91.785156 L 1013.785156 134.214844 L 1056.214844 134.214844 L 1056.214844 91.785156 L 1013.785156 91.785156 "/>
<path style="fill-rule:nonzero;fill:rgb(53%,27%,7%);fill-opacity:1;stroke-width:1;stroke-linecap:butt;stroke-linejoin:miter;stroke:rgb(0%,0%,0%);stroke-opacity:1;stroke-miterlimit:10;" d="M 709 181 L 738.664062 181 L 750.664062 152.785156 L 762.664062 181 L 792.332031 181 L 768.332031 198.4375 L 776.417969 229.980469 L 750.664062 212.542969 L 724.914062 229.980469 L 737.214844 198.4375 L 709 181 "/>
<path style="fill-rule:nonzero;fill:rgb(53%,27%,7%);fill-opacity:1;stroke-width:1;stroke-linecap:butt;stroke-linejoin:miter;stroke:rgb(0%,0%,0%);stroke-opacity:1;stroke-miterlimit:10;" d="M 993.785156 297.785156 L 993.785156 340.214844 L 1036.214844 340.214844 L 1036.214844 297.785156 L 993.785156 297.785156 "/>
<path style="fill-rule:nonzero;fill:rgb(53%,27%,7%);fill-opacity:1;stroke-width:1;stroke-linecap:butt;stroke-linejoin:miter;stroke:rgb(0%,0%,0%);stroke-opacity:1;stroke-miterlimit:10;" d="M 935 119 L 964.664062 119 L 976.664062 90.785156 L 988.664062 119 L 1018.332031 119 L 994.332031 136.4375 L 1002.417969 167.980469 L 976.664062 150.542969 L 950.914062 167.980469 L 963.214844 136.4375 L 935 119 "/>
<path style="fill-rule:nonzero;fill:rgb(53%,27%,7%);fill-opacity:1;stroke-width:1;stroke-linecap:butt;stroke-linejoin:miter;stroke:rgb(0%,0%,0%);stroke-opacity:1;stroke-miterlimit:10;" d="M 772.785156 272.785156 L 772.785156 315.214844 L 815.214844 315.214844 L 815.214844 272.785156 L 772.785156 272.785156 "/>
</g>
</svg>
