<?xml version="1.0" encoding="UTF-8"?>
<svg xmlns="http://www.w3.org/2000/svg" xmlns:xlink="http://www.w3.org/1999/xlink" width="1179pt" height="517pt" viewBox="0 0 1179 517" version="1.1">
<g id="surface1511">
<rect x="0" y="0" width="1179" height="517" style="fill:rgb(90%,90%,90%);fill-opacity:1;stroke:none;"/>
<path style="fill-rule:nonzero;fill:rgb(55%,51%,53%);fill-opacity:1;stroke-width:1;stroke-linecap:butt;stroke-linejoin:miter;stroke:rgb(0%,0%,0%);stroke-opacity:1;stroke-miterlimit:10;" d="M 157.214844 138 C 157.214844 149.714844 147.714844 159.214844 136 159.214844 C 124.285156 159.214844 114.785156 149.714844 114.785156 138 C 114.785156 126.285156 124.285156 116.785156 136 116.785156 C 147.714844 116.785156 157.214844 126.285156 157.214844 138 "/>
<path style="fill-rule:nonzero;fill:rgb(55%,51%,53%);fill-opacity:1;stroke-width:1;stroke-linecap:butt;stroke-linejoin:miter;stroke:rgb(0%,0%,0%);stroke-opacity:1;stroke-miterlimit:10;" d="M 806.214844 327 C 806.214844 338.714844 796.714844 348.214844 785 348.214844 C 773.285156 348.214844 763.785156 338.714844 763.785156 327 C 763.785156 315.285156 773.285156 305.785156 785 305.785156 C 796.714844 305.785156 806.214844 315.285156 806.214844 327 "/>
<path style="fill-rule:nonzero;fill:rgb(55%,51%,53%);fill-opacity:1;stroke-width:1;stroke-linecap:butt;stroke-linejoin:miter;stroke:rgb(0%,0%,0%);stroke-opacity:1;stroke-miterlimit:10;" d="M 1030.214844 251 C 1030.214844 262.714844 1020.714844 272.214844 1009 272.214844 C 997.285156 272.214844 987.785156 262.714844 987.785156 251 C 987.785156 239.285156 997.285156 229.785156 1009 229.785156 C 1020.714844 229.785156 1030.214844 239.285156 1030.214844 251 "/>
<path style="fill-rule:nonzero;fill:rgb(55%,51%,53%);fill-opacity:1;stroke-width:1;stroke-linecap:butt;stroke-linejoin:miter;stroke:rgb(0%,0%,0%);stroke-opacity:1;stroke-miterlimit:10;" d="M 272.214844 389 C 272.214844 400.714844 262.714844 410.214844 251 410.214844 C 239.285156 410.214844 229.785156 400.714844 229.785156 389 C 229.785156 377.285156 239.285156 367.785156 251 367.785156 C 262.714844 367.785156 272.214844 377.285156 272.214844 389 "/>
<path style="fill-rule:nonzero;fill:rgb(35%,70%,90%);fill-opacity:1;stroke-width:1;stroke-linecap:butt;stroke-linejoin:miter;stroke:rgb(0%,0%,0%);stroke-opacity:1;stroke-miterlimit:10;" d="M 652 275 L 626.019531 320 L 677.980469 320 L 652 275 "/>
<path style="fill-rule:nonzero;fill:rgb(35%,70%,90%);fill-opacity:1;stroke-width:1;stroke-linecap:butt;stroke-linejoin:miter;stroke:rgb(0%,0%,0%);stroke-opacity:1;stroke-miterlimit:10;" d="M 190 246 L 164.019531 291 L 215.980469 291 L 190 246 "/>
<path style="fill-rule:nonzero;fill:rgb(35%,70%,90%);fill-opacity:1;stroke-width:1;stroke-linecap:butt;stroke-linejoin:miter;stroke:rgb(0%,0%,0%);stroke-opacity:1;stroke-miterlimit:10;" d="M 573 90 L 547.019531 135 L 598.980469 135 L 573 90 "/>
</g>
</svg>
