<?xml version="1.0" encoding="UTF-8"?>
<svg xmlns="http://www.w3.org/2000/svg" xmlns:xlink="http://www.w3.org/1999/xlink" width="1179pt" height="517pt" viewBox="0 0 1179 517" version="1.1">
<g id="surface11">
<rect x="0" y="0" width="1179" height="517" style="fill:rgb(90%,90%,90%);fill-opacity:1;stroke:none;"/>
<path style="fill-rule:nonzero;fill:rgb(35%,70%,90%);fill-opacity:1;stroke-width:1;stroke-linecap:butt;stroke-linejoin:miter;stroke:rgb(0%,0%,0%);stroke-opacity:1;stroke-miterlimit:10;" d="M 207 250 L 236.664062 250 L 248.664062 221.785156 L 260.664062 250 L 290.332031 250 L 266.332031 267.4375 L 274.417969 298.980469 L 248.664062 281.542969 L 222.914062 298.980469 L 235.214844 267.4375 L 207 250 "/>
<path style="fill-rule:nonzero;fill:rgb(35%,70%,90%);fill-opacity:1;stroke-width:1;stroke-linecap:butt;stroke-linejoin:miter;stroke:rgb(0%,0%,0%);stroke-opacity:1;stroke-miterlimit:10;" d="M 287.785156 250.785156 L 287.785156 293.214844 L 330.214844 293.214844 L 330.214844 250.785156 L 287.785156 250.785156 "/>
<path style="fill-rule:nonzero;fill:rgb(35%,70%,90%);fill-opacity:1;stroke-width:1;stroke-linecap:butt;stroke-linejoin:miter;stroke:rgb(0%,0%,0%);stroke-opacity:1;stroke-miterlimit:10;" d="M 93.785156 315.785156 L 93.785156 358.214844 L 136.214844 358.214844 L 136.214844 315.785156 L 93.785156 315.785156 "/>
<path style="fill-rule:nonzero;fill:rgb(35%,70%,90%);fill-opacity:1;stroke-width:1;stroke-linecap:butt;stroke-linejoin:miter;stroke:rgb(0%,0%,0%);stroke-opacity:1;stroke-miterlimit:10;" d="M 421 409 L 450.664062 409 L 462.664062 380.785156 L 474.664062 409 L 504.332031 409 L 480.332031 426.4375 L 488.417969 457.980469 L 462.664062 440.542969 L 436.914062 457.980469 L 449.214844 426.4375 L 421 409 "/>
<path style="fill-rule:nonzero;fill:rgb(100%,51%,0%);fill-opacity:1;stroke-width:1;stroke-linecap:butt;stroke-linejoin:miter;stroke:rgb(0%,0%,0%);stroke-opacity:1;stroke-miterlimit:10;" d="M 818.785156 139.785156 L 818.785156 182.214844 L 861.214844 182.214844 L 861.214844 139.785156 L 818.785156 139.785156 "/>
<path style="fill-rule:nonzero;fill:rgb(100%,51%,0%);fill-opacity:1;stroke-width:1;stroke-linecap:butt;stroke-linejoin:miter;stroke:rgb(0%,0%,0%);stroke-opacity:1;stroke-miterlimit:10;" d="M 838 327 L 867.664062 327 L 879.664062 298.785156 L 891.664062 327 L 921.332031 327 L 897.332031 344.4375 L 905.417969 375.980469 L 879.664062 358.542969 L 853.914062 375.980469 L 866.214844 344.4375 L 838 327 "/>
<path style="fill-rule:nonzero;fill:rgb(100%,51%,0%);fill-opacity:1;stroke-width:1;stroke-linecap:butt;stroke-linejoin:miter;stroke:rgb(0%,0%,0%);stroke-opacity:1;stroke-miterlimit:10;" d="M 992 409 L 1021.664062 409 L 1033.664062 380.785156 L 1045.664062 409 L 1075.332031 409 L 1051.332031 426.4375 L 1059.417969 457.980469 L 1033.664062 440.542969 L 1007.914062 457.980469 L 1020.214844 426.4375 L 992 409 "/>
</g>
</svg>
