<?xml version="1.0" encoding="UTF-8"?>
<svg xmlns="http://www.w3.org/2000/svg" xmlns:xlink="http://www.w3.org/1999/xlink" width="1179pt" height="517pt" viewBox="0 0 1179 517" version="1.1">
<g id="surface321">
<rect x="0" y="0" width="1179" height="517" style="fill:rgb(90%,90%,90%);fill-opacity:1;stroke:none;"/>
<path style="fill-rule:nonzero;fill:rgb(100%,51%,0%);fill-opacity:1;stroke-width:1;stroke-linecap:butt;stroke-linejoin:miter;stroke:rgb(0%,0%,0%);stroke-opacity:1;stroke-miterlimit:10;" d="M 331.214844 182 C 331.214844 193.714844 321.714844 203.214844 310 203.214844 C 298.285156 203.214844 288.785156 193.714844 288.785156 182 C 288.785156 170.285156 298.285156 160.785156 310 160.785156 C 321.714844 160.785156 331.214844 170.285156 331.214844 182 "/>
<path style="fill-rule:nonzero;fill:rgb(100%,51%,0%);fill-opacity:1;stroke-width:1;stroke-linecap:butt;stroke-linejoin:miter;stroke:rgb(0%,0%,0%);stroke-opacity:1;stroke-miterlimit:10;" d="M 431.214844 370 C 431.214844 381.714844 421.714844 391.214844 410 391.214844 C 398.285156 391.214844 388.785156 381.714844 388.785156 370 C 388.785156 358.285156 398.285156 348.785156 410 348.785156 C 421.714844 348.785156 431.214844 358.285156 431.214844 370 "/>
<path style="fill-rule:nonzero;fill:rgb(100%,51%,0%);fill-opacity:1;stroke-width:1;stroke-linecap:butt;stroke-linejoin:miter;stroke:rgb(0%,0%,0%);stroke-opacity:1;stroke-miterlimit:10;" d="M 306.785156 252.785156 L 306.785156 295.214844 L 349.214844 295.214844 L 349.214844 252.785156 L 306.785156 252.785156 "/>
<path style="fill-rule:nonzero;fill:rgb(100%,51%,0%);fill-opacity:1;stroke-width:1;stroke-linecap:butt;stroke-linejoin:miter;stroke:rgb(0%,0%,0%);stroke-opacity:1;stroke-miterlimit:10;" d="M 78.785156 379.785156 L 78.785156 422.214844 L 121.214844 422.214844 L 121.214844 379.785156 L 78.785156 379.785156 "/>
<path style="fill-rule:nonzero;fill:rgb(100%,51%,0%);fill-opacity:1;stroke-width:1;stroke-linecap:butt;stroke-linejoin:miter;stroke:rgb(0%,0%,0%);stroke-opacity:1;stroke-miterlimit:10;" d="M 213.214844 228 C 213.214844 239.714844 203.714844 249.214844 192 249.214844 C 180.285156 249.214844 170.785156 239.714844 170.785156 228 C 170.785156 216.285156 180.285156 206.785156 192 206.785156 C 203.714844 206.785156 213.214844 216.285156 213.214844 228 "/>
<path style="fill-rule:nonzero;fill:rgb(100%,51%,0%);fill-opacity:1;stroke-width:1;stroke-linecap:butt;stroke-linejoin:miter;stroke:rgb(0%,0%,0%);stroke-opacity:1;stroke-miterlimit:10;" d="M 431.214844 87 C 431.214844 98.714844 421.714844 108.214844 410 108.214844 C 398.285156 108.214844 388.785156 98.714844 388.785156 87 C 388.785156 75.285156 398.285156 65.785156 410 65.785156 C 421.714844 65.785156 431.214844 75.285156 431.214844 87 "/>
<path style="fill-rule:nonzero;fill:rgb(55%,51%,53%);fill-opacity:1;stroke-width:1;stroke-linecap:butt;stroke-linejoin:miter;stroke:rgb(0%,0%,0%);stroke-opacity:1;stroke-miterlimit:10;" d="M 982.785156 193.785156 L 982.785156 236.214844 L 1025.214844 236.214844 L 1025.214844 193.785156 L 982.785156 193.785156 "/>
<path style="fill-rule:nonzero;fill:rgb(55%,51%,53%);fill-opacity:1;stroke-width:1;stroke-linecap:butt;stroke-linejoin:miter;stroke:rgb(0%,0%,0%);stroke-opacity:1;stroke-miterlimit:10;" d="M 864.785156 134.785156 L 864.785156 177.214844 L 907.214844 177.214844 L 907.214844 134.785156 L 864.785156 134.785156 "/>
<path style="fill-rule:nonzero;fill:rgb(55%,51%,53%);fill-opacity:1;stroke-width:1;stroke-linecap:butt;stroke-linejoin:miter;stroke:rgb(0%,0%,0%);stroke-opacity:1;stroke-miterlimit:10;" d="M 737.214844 260 C 737.214844 271.714844 727.714844 281.214844 716 281.214844 C 704.285156 281.214844 694.785156 271.714844 694.785156 260 C 694.785156 248.285156 704.285156 238.785156 716 238.785156 C 727.714844 238.785156 737.214844 248.285156 737.214844 260 "/>
<path style="fill-rule:nonzero;fill:rgb(55%,51%,53%);fill-opacity:1;stroke-width:1;stroke-linecap:butt;stroke-linejoin:miter;stroke:rgb(0%,0%,0%);stroke-opacity:1;stroke-miterlimit:10;" d="M 1023.214844 310 C 1023.214844 321.714844 1013.714844 331.214844 1002 331.214844 C 990.285156 331.214844 980.785156 321.714844 980.785156 310 C 980.785156 298.285156 990.285156 288.785156 1002 288.785156 C 1013.714844 288.785156 1023.214844 298.285156 1023.214844 310 "/>
<path style="fill-rule:nonzero;fill:rgb(55%,51%,53%);fill-opacity:1;stroke-width:1;stroke-linecap:butt;stroke-linejoin:miter;stroke:rgb(0%,0%,0%);stroke-opacity:1;stroke-miterlimit:10;" d="M 738.785156 365.785156 L 738.785156 408.214844 L 781.214844 408.214844 L 781.214844 365.785156 L 738.785156 365.785156 "/>
</g>
</svg>
