<?xml version="1.0" encoding="UTF-8"?>
<svg xmlns="http://www.w3.org/2000/svg" xmlns:xlink="http://www.w3.org/1999/xlink" width="1179pt" height="517pt" viewBox="0 0 1179 517" version="1.1">
<g id="surface531">
<rect x="0" y="0" width="1179" height="517" style="fill:rgb(90%,90%,90%);fill-opacity:1;stroke:none;"/>
<path style="fill-rule:nonzero;fill:rgb(55%,51%,53%);fill-opacity:1;stroke-width:1;stroke-linecap:butt;stroke-linejoin:miter;stroke:rgb(0%,0%,0%);stroke-opacity:1;stroke-miterlimit:10;" d="M 392.214844 220 C 392.214844 231.714844 382.714844 241.214844 371 241.214844 C 359.285156 241.214844 349.785156 231.714844 349.785156 220 C 349.785156 208.285156 359.285156 198.785156 371 198.785156 C 382.714844 198.785156 392.214844 208.285156 392.214844 220 "/>
<path style="fill-rule:nonzero;fill:rgb(55%,51%,53%);fill-opacity:1;stroke-width:1;stroke-linecap:butt;stroke-linejoin:miter;stroke:rgb(0%,0%,0%);stroke-opacity:1;stroke-miterlimit:10;" d="M 271.214844 368 C 271.214844 379.714844 261.714844 389.214844 250 389.214844 C 238.285156 389.214844 228.785156 379.714844 228.785156 368 C 228.785156 356.285156 238.285156 346.785156 250 346.785156 C 261.714844 346.785156 271.214844 356.285156 271.214844 368 "/>
<path style="fill-rule:nonzero;fill:rgb(53%,27%,7%);fill-opacity:1;stroke-width:1;stroke-linecap:butt;stroke-linejoin:miter;stroke:rgb(0%,0%,0%);stroke-opacity:1;stroke-miterlimit:10;" d="M 371.214844 340 C 371.214844 351.714844 361.714844 361.214844 350 361.214844 C 338.285156 361.214844 328.785156 351.714844 328.785156 340 C 328.785156 328.285156 338.285156 318.785156 350 318.785156 C 361.714844 318.785156 371.214844 328.285156 371.214844 340 "/>
<path style="fill-rule:nonzero;fill:rgb(53%,27%,7%);fill-opacity:1;stroke-width:1;stroke-linecap:butt;stroke-linejoin:miter;stroke:rgb(0%,0%,0%);stroke-opacity:1;stroke-miterlimit:10;" d="M 772.785156 116.785156 L 772.785156 159.214844 L 815.214844 159.214844 L 815.214844 116.785156 L 772.785156 116.785156 "/>
<path style="fill-rule:nonzero;fill:rgb(53%,27%,7%);fill-opacity:1;stroke-width:1;stroke-linecap:butt;stroke-linejoin:miter;stroke:rgb(0%,0%,0%);stroke-opacity:1;stroke-miterlimit:10;" d="M 1006.785156 322.785156 L 1006.785156 365.214844 L 1049.214844 365.214844 L 1049.214844 322.785156 L 1006.785156 322.785156 "/>
<path style="fill-rule:nonzero;fill:rgb(55%,51%,53%);fill-opacity:1;stroke-width:1;stroke-linecap:butt;stroke-linejoin:miter;stroke:rgb(0%,0%,0%);stroke-opacity:1;stroke-miterlimit:10;" d="M 881.785156 96.785156 L 881.785156 139.214844 L 924.214844 139.214844 L 924.214844 96.785156 L 881.785156 96.785156 "/>
<path style="fill-rule:nonzero;fill:rgb(55%,51%,53%);fill-opacity:1;stroke-width:1;stroke-linecap:butt;stroke-linejoin:miter;stroke:rgb(0%,0%,0%);stroke-opacity:1;stroke-miterlimit:10;" d="M 973.785156 229.785156 L 973.785156 272.214844 L 1016.214844 272.214844 L 1016.214844 229.785156 L 973.785156 229.785156 "/>
</g>
</svg>
