<?xml version="1.0" encoding="UTF-8"?>
<svg xmlns="http://www.w3.org/2000/svg" xmlns:xlink="http://www.w3.org/1999/xlink" width="1179pt" height="517pt" viewBox="0 0 1179 517" version="1.1">
<g id="surface591">
<rect x="0" y="0" width="1179" height="517" style="fill:rgb(90%,90%,90%);fill-opacity:1;stroke:none;"/>
<path style="fill-rule:nonzero;fill:rgb(35%,70%,90%);fill-opacity:1;stroke-width:1;stroke-linecap:butt;stroke-linejoin:miter;stroke:rgb(0%,0%,0%);stroke-opacity:1;stroke-miterlimit:10;" d="M 359.214844 400 C 359.214844 411.714844 349.714844 421.214844 338 421.214844 C 326.285156 421.214844 316.785156 411.714844 316.785156 400 C 316.785156 388.285156 326.285156 378.785156 338 378.785156 C 349.714844 378.785156 359.214844 388.285156 359.214844 400 "/>
<path style="fill-rule:nonzero;fill:rgb(35%,70%,90%);fill-opacity:1;stroke-width:1;stroke-linecap:butt;stroke-linejoin:miter;stroke:rgb(0%,0%,0%);stroke-opacity:1;stroke-miterlimit:10;" d="M 171.214844 254 C 171.214844 265.714844 161.714844 275.214844 150 275.214844 C 138.285156 275.214844 128.785156 265.714844 128.785156 254 C 128.785156 242.285156 138.285156 232.785156 150 232.785156 C 161.714844 232.785156 171.214844 242.285156 171.214844 254 "/>
<path style="fill-rule:nonzero;fill:rgb(35%,70%,90%);fill-opacity:1;stroke-width:1;stroke-linecap:butt;stroke-linejoin:miter;stroke:rgb(0%,0%,0%);stroke-opacity:1;stroke-miterlimit:10;" d="M 342.785156 112.785156 L 342.785156 155.214844 L 385.214844 155.214844 L 385.214844 112.785156 L 342.785156 112.785156 "/>
<path style="fill-rule:nonzero;fill:rgb(53%,27%,7%);fill-opacity:1;stroke-width:1;stroke-linecap:butt;stroke-linejoin:miter;stroke:rgb(0%,0%,0%);stroke-opacity:1;stroke-miterlimit:10;" d="M 905.785156 90.785156 L 905.785156 133.214844 L 948.214844 133.214844 L 948.214844 90.785156 L 905.785156 90.785156 "/>
<path style="fill-rule:nonzero;fill:rgb(53%,27%,7%);fill-opacity:1;stroke-width:1;stroke-linecap:butt;stroke-linejoin:miter;stroke:rgb(0%,0%,0%);stroke-opacity:1;stroke-miterlimit:10;" d="M 812.785156 209.785156 L 812.785156 252.214844 L 855.214844 252.214844 L 855.214844 209.785156 L 812.785156 209.785156 "/>
<path style="fill-rule:nonzero;fill:rgb(53%,27%,7%);fill-opacity:1;stroke-width:1;stroke-linecap:butt;stroke-linejoin:miter;stroke:rgb(0%,0%,0%);stroke-opacity:1;stroke-miterlimit:10;" d="M 809.214844 384 C 809.214844 395.714844 799.714844 405.214844 788 405.214844 C 776.285156 405.214844 766.785156 395.714844 766.785156 384 C 766.785156 372.285156 776.285156 362.785156 788 362.785156 C 799.714844 362.785156 809.214844 372.285156 809.214844 384 "/>
</g>
</svg>
