<?xml version="1.0" encoding="UTF-8"?>
<svg xmlns="http://www.w3.org/2000/svg" xmlns:xlink="http://www.w3.org/1999/xlink" width="1179pt" height="517pt" viewBox="0 0 1179 517" version="1.1">
<g id="surface1361">
<rect x="0" y="0" width="1179" height="517" style="fill:rgb(90%,90%,90%);fill-opacity:1;stroke:none;"/>
<path style="fill-rule:nonzero;fill:rgb(35%,70%,90%);fill-opacity:1;stroke-width:1;stroke-linecap:butt;stroke-linejoin:miter;stroke:rgb(0%,0%,0%);stroke-opacity:1;stroke-miterlimit:10;" d="M 954.214844 150 C 954.214844 161.714844 944.714844 171.214844 933 171.214844 C 921.285156 171.214844 911.785156 161.714844 911.785156 150 C 911.785156 138.285156 921.285156 128.785156 933 128.785156 C 944.714844 128.785156 954.214844 138.285156 954.214844 150 "/>
<path style="fill-rule:nonzero;fill:rgb(35%,70%,90%);fill-opacity:1;stroke-width:1;stroke-linecap:butt;stroke-linejoin:miter;stroke:rgb(0%,0%,0%);stroke-opacity:1;stroke-miterlimit:10;" d="M 317.214844 291 C 317.214844 302.714844 307.714844 312.214844 296 312.214844 C 284.285156 312.214844 274.785156 302.714844 274.785156 291 C 274.785156 279.285156 284.285156 269.785156 296 269.785156 C 307.714844 269.785156 317.214844 279.285156 317.214844 291 "/>
<path style="fill-rule:nonzero;fill:rgb(35%,70%,90%);fill-opacity:1;stroke-width:1;stroke-linecap:butt;stroke-linejoin:miter;stroke:rgb(0%,0%,0%);stroke-opacity:1;stroke-miterlimit:10;" d="M 213.214844 128 C 213.214844 139.714844 203.714844 149.214844 192 149.214844 C 180.285156 149.214844 170.785156 139.714844 170.785156 128 C 170.785156 116.285156 180.285156 106.785156 192 106.785156 C 203.714844 106.785156 213.214844 116.285156 213.214844 128 "/>
<path style="fill-rule:nonzero;fill:rgb(35%,70%,90%);fill-opacity:1;stroke-width:1;stroke-linecap:butt;stroke-linejoin:miter;stroke:rgb(0%,0%,0%);stroke-opacity:1;stroke-miterlimit:10;" d="M 454.214844 337 C 454.214844 348.714844 444.714844 358.214844 433 358.214844 C 421.285156 358.214844 411.785156 348.714844 411.785156 337 C 411.785156 325.285156 421.285156 315.785156 433 315.785156 C 444.714844 315.785156 454.214844 325.285156 454.214844 337 "/>
<path style="fill-rule:nonzero;fill:rgb(55%,51%,53%);fill-opacity:1;stroke-width:1;stroke-linecap:butt;stroke-linejoin:miter;stroke:rgb(0%,0%,0%);stroke-opacity:1;stroke-miterlimit:10;" d="M 362 139 L 391.664062 139 L 403.664062 110.785156 L 415.664062 139 L 445.332031 139 L 421.332031 156.4375 L 429.417969 187.980469 L 403.664062 170.542969 L 377.914062 187.980469 L 390.214844 156.4375 L 362 139 "/>
<path style="fill-rule:nonzero;fill:rgb(55%,51%,53%);fill-opacity:1;stroke-width:1;stroke-linecap:butt;stroke-linejoin:miter;stroke:rgb(0%,0%,0%);stroke-opacity:1;stroke-miterlimit:10;" d="M 555 170 L 584.664062 170 L 596.664062 141.785156 L 608.664062 170 L 638.332031 170 L 614.332031 187.4375 L 622.417969 218.980469 L 596.664062 201.542969 L 570.914062 218.980469 L 583.214844 187.4375 L 555 170 "/>
<path style="fill-rule:nonzero;fill:rgb(55%,51%,53%);fill-opacity:1;stroke-width:1;stroke-linecap:butt;stroke-linejoin:miter;stroke:rgb(0%,0%,0%);stroke-opacity:1;stroke-miterlimit:10;" d="M 756 244 L 785.664062 244 L 797.664062 215.785156 L 809.664062 244 L 839.332031 244 L 815.332031 261.4375 L 823.417969 292.980469 L 797.664062 275.542969 L 771.914062 292.980469 L 784.214844 261.4375 L 756 244 "/>
<path style="fill-rule:nonzero;fill:rgb(55%,51%,53%);fill-opacity:1;stroke-width:1;stroke-linecap:butt;stroke-linejoin:miter;stroke:rgb(0%,0%,0%);stroke-opacity:1;stroke-miterlimit:10;" d="M 815 424 L 844.664062 424 L 856.664062 395.785156 L 868.664062 424 L 898.332031 424 L 874.332031 441.4375 L 882.417969 472.980469 L 856.664062 455.542969 L 830.914062 472.980469 L 843.214844 441.4375 L 815 424 "/>
</g>
</svg>
