<?xml version="1.0" encoding="UTF-8"?>
<svg xmlns="http://www.w3.org/2000/svg" xmlns:xlink="http://www.w3.org/1999/xlink" width="1179pt" height="517pt" viewBox="0 0 1179 517" version="1.1">
<g id="surface841">
<rect x="0" y="0" width="1179" height="517" style="fill:rgb(90%,90%,90%);fill-opacity:1;stroke:none;"/>
<path style="fill-rule:nonzero;fill:rgb(55%,51%,53%);fill-opacity:1;stroke-width:1;stroke-linecap:butt;stroke-linejoin:miter;stroke:rgb(0%,0%,0%);stroke-opacity:1;stroke-miterlimit:10;" d="M 263.214844 253 C 263.214844 264.714844 253.714844 274.214844 242 274.214844 C 230.285156 274.214844 220.785156 264.714844 220.785156 253 C 220.785156 241.285156 230.285156 231.785156 242 231.785156 C 253.714844 231.785156 263.214844 241.285156 263.214844 253 "/>
<path style="fill-rule:nonzero;fill:rgb(67%,100%,18%);fill-opacity:1;stroke-width:1;stroke-linecap:butt;stroke-linejoin:miter;stroke:rgb(0%,0%,0%);stroke-opacity:1;stroke-miterlimit:10;" d="M 427.214844 424 C 427.214844 435.714844 417.714844 445.214844 406 445.214844 C 394.285156 445.214844 384.785156 435.714844 384.785156 424 C 384.785156 412.285156 394.285156 402.785156 406 402.785156 C 417.714844 402.785156 427.214844 412.285156 427.214844 424 "/>
<path style="fill-rule:nonzero;fill:rgb(67%,100%,18%);fill-opacity:1;stroke-width:1;stroke-linecap:butt;stroke-linejoin:miter;stroke:rgb(0%,0%,0%);stroke-opacity:1;stroke-miterlimit:10;" d="M 440.214844 164 C 440.214844 175.714844 430.714844 185.214844 419 185.214844 C 407.285156 185.214844 397.785156 175.714844 397.785156 164 C 397.785156 152.285156 407.285156 142.785156 419 142.785156 C 430.714844 142.785156 440.214844 152.285156 440.214844 164 "/>
<path style="fill-rule:nonzero;fill:rgb(55%,51%,53%);fill-opacity:1;stroke-width:1;stroke-linecap:butt;stroke-linejoin:miter;stroke:rgb(0%,0%,0%);stroke-opacity:1;stroke-miterlimit:10;" d="M 445.214844 291 C 445.214844 302.714844 435.714844 312.214844 424 312.214844 C 412.285156 312.214844 402.785156 302.714844 402.785156 291 C 402.785156 279.285156 412.285156 269.785156 424 269.785156 C 435.714844 269.785156 445.214844 279.285156 445.214844 291 "/>
<path style="fill-rule:nonzero;fill:rgb(55%,51%,53%);fill-opacity:1;stroke-width:1;stroke-linecap:butt;stroke-linejoin:miter;stroke:rgb(0%,0%,0%);stroke-opacity:1;stroke-miterlimit:10;" d="M 203.214844 321 C 203.214844 332.714844 193.714844 342.214844 182 342.214844 C 170.285156 342.214844 160.785156 332.714844 160.785156 321 C 160.785156 309.285156 170.285156 299.785156 182 299.785156 C 193.714844 299.785156 203.214844 309.285156 203.214844 321 "/>
<path style="fill-rule:nonzero;fill:rgb(67%,100%,18%);fill-opacity:1;stroke-width:1;stroke-linecap:butt;stroke-linejoin:miter;stroke:rgb(0%,0%,0%);stroke-opacity:1;stroke-miterlimit:10;" d="M 837 240 L 811.019531 285 L 862.980469 285 L 837 240 "/>
<path style="fill-rule:nonzero;fill:rgb(55%,51%,53%);fill-opacity:1;stroke-width:1;stroke-linecap:butt;stroke-linejoin:miter;stroke:rgb(0%,0%,0%);stroke-opacity:1;stroke-miterlimit:10;" d="M 724 131 L 698.019531 176 L 749.980469 176 L 724 131 "/>
<path style="fill-rule:nonzero;fill:rgb(55%,51%,53%);fill-opacity:1;stroke-width:1;stroke-linecap:butt;stroke-linejoin:miter;stroke:rgb(0%,0%,0%);stroke-opacity:1;stroke-miterlimit:10;" d="M 1009 305 L 983.019531 350 L 1034.980469 350 L 1009 305 "/>
</g>
</svg>
