<?xml version="1.0" encoding="UTF-8"?>
<svg xmlns="http://www.w3.org/2000/svg" xmlns:xlink="http://www.w3.org/1999/xlink" width="1179pt" height="517pt" viewBox="0 0 1179 517" version="1.1">
<g id="surface171">
<rect x="0" y="0" width="1179" height="517" style="fill:rgb(90%,90%,90%);fill-opacity:1;stroke:none;"/>
<path style="fill-rule:nonzero;fill:rgb(55%,51%,53%);fill-opacity:1;stroke-width:1;stroke-linecap:butt;stroke-linejoin:miter;stroke:rgb(0%,0%,0%);stroke-opacity:1;stroke-miterlimit:10;" d="M 206.214844 241 C 206.214844 252.714844 196.714844 262.214844 185 262.214844 C 173.285156 262.214844 163.785156 252.714844 163.785156 241 C 163.785156 229.285156 173.285156 219.785156 185 219.785156 C 196.714844 219.785156 206.214844 229.285156 206.214844 241 "/>
<path style="fill-rule:nonzero;fill:rgb(53%,27%,7%);fill-opacity:1;stroke-width:1;stroke-linecap:butt;stroke-linejoin:miter;stroke:rgb(0%,0%,0%);stroke-opacity:1;stroke-miterlimit:10;" d="M 101.214844 102 C 101.214844 113.714844 91.714844 123.214844 80 123.214844 C 68.285156 123.214844 58.785156 113.714844 58.785156 102 C 58.785156 90.285156 68.285156 80.785156 80 80.785156 C 91.714844 80.785156 101.214844 90.285156 101.214844 102 "/>
<path style="fill-rule:nonzero;fill:rgb(53%,27%,7%);fill-opacity:1;stroke-width:1;stroke-linecap:butt;stroke-linejoin:miter;stroke:rgb(0%,0%,0%);stroke-opacity:1;stroke-miterlimit:10;" d="M 314.214844 338 C 314.214844 349.714844 304.714844 359.214844 293 359.214844 C 281.285156 359.214844 271.785156 349.714844 271.785156 338 C 271.785156 326.285156 281.285156 316.785156 293 316.785156 C 304.714844 316.785156 314.214844 326.285156 314.214844 338 "/>
<path style="fill-rule:nonzero;fill:rgb(55%,51%,53%);fill-opacity:1;stroke-width:1;stroke-linecap:butt;stroke-linejoin:miter;stroke:rgb(0%,0%,0%);stroke-opacity:1;stroke-miterlimit:10;" d="M 446.214844 146 C 446.214844 157.714844 436.714844 167.214844 425 167.214844 C 413.285156 167.214844 403.785156 157.714844 403.785156 146 C 403.785156 134.285156 413.285156 124.785156 425 124.785156 C 436.714844 124.785156 446.214844 134.285156 446.214844 146 "/>
<path style="fill-rule:nonzero;fill:rgb(55%,51%,53%);fill-opacity:1;stroke-width:1;stroke-linecap:butt;stroke-linejoin:miter;stroke:rgb(0%,0%,0%);stroke-opacity:1;stroke-miterlimit:10;" d="M 230.214844 412 C 230.214844 423.714844 220.714844 433.214844 209 433.214844 C 197.285156 433.214844 187.785156 423.714844 187.785156 412 C 187.785156 400.285156 197.285156 390.785156 209 390.785156 C 220.714844 390.785156 230.214844 400.285156 230.214844 412 "/>
<path style="fill-rule:nonzero;fill:rgb(53%,27%,7%);fill-opacity:1;stroke-width:1;stroke-linecap:butt;stroke-linejoin:miter;stroke:rgb(0%,0%,0%);stroke-opacity:1;stroke-miterlimit:10;" d="M 1022.785156 335.785156 L 1022.785156 378.214844 L 1065.214844 378.214844 L 1065.214844 335.785156 L 1022.785156 335.785156 "/>
<path style="fill-rule:nonzero;fill:rgb(55%,51%,53%);fill-opacity:1;stroke-width:1;stroke-linecap:butt;stroke-linejoin:miter;stroke:rgb(0%,0%,0%);stroke-opacity:1;stroke-miterlimit:10;" d="M 950.785156 63.785156 L 950.785156 106.214844 L 993.214844 106.214844 L 993.214844 63.785156 L 950.785156 63.785156 "/>
<path style="fill-rule:nonzero;fill:rgb(55%,51%,53%);fill-opacity:1;stroke-width:1;stroke-linecap:butt;stroke-linejoin:miter;stroke:rgb(0%,0%,0%);stroke-opacity:1;stroke-miterlimit:10;" d="M 689.785156 367.785156 L 689.785156 410.214844 L 732.214844 410.214844 L 732.214844 367.785156 L 689.785156 367.785156 "/>
</g>
</svg>
