<?xml version="1.0" encoding="UTF-8"?>
<svg xmlns="http://www.w3.org/2000/svg" xmlns:xlink="http://www.w3.org/1999/xlink" width="1179pt" height="517pt" viewBox="0 0 1179 517" version="1.1">
<g id="surface801">
<rect x="0" y="0" width="1179" height="517" style="fill:rgb(90%,90%,90%);fill-opacity:1;stroke:none;"/>
<path style="fill-rule:nonzero;fill:rgb(0%,0%,0%);fill-opacity:1;stroke-width:1;stroke-linecap:butt;stroke-linejoin:miter;stroke:rgb(0%,0%,0%);stroke-opacity:1;stroke-miterlimit:10;" d="M 272 261 L 252 261 L 252 271 L 272 271 L 272 291 L 282 291 L 282 271 L 302 271 L 302 261 L 282 261 L 282 241 L 272 241 L 272 261 "/>
<path style="fill-rule:nonzero;fill:rgb(0%,0%,0%);fill-opacity:1;stroke-width:1;stroke-linecap:butt;stroke-linejoin:miter;stroke:rgb(0%,0%,0%);stroke-opacity:1;stroke-miterlimit:10;" d="M 75 405 L 55 405 L 55 415 L 75 415 L 75 435 L 85 435 L 85 415 L 105 415 L 105 405 L 85 405 L 85 385 L 75 385 L 75 405 "/>
<path style="fill-rule:nonzero;fill:rgb(0%,0%,0%);fill-opacity:1;stroke-width:1;stroke-linecap:butt;stroke-linejoin:miter;stroke:rgb(0%,0%,0%);stroke-opacity:1;stroke-miterlimit:10;" d="M 189 339 L 169 339 L 169 349 L 189 349 L 189 369 L 199 369 L 199 349 L 219 349 L 219 339 L 199 339 L 199 319 L 189 319 L 189 339 "/>
<path style="fill-rule:nonzero;fill:rgb(0%,0%,0%);fill-opacity:1;stroke-width:1;stroke-linecap:butt;stroke-linejoin:miter;stroke:rgb(0%,0%,0%);stroke-opacity:1;stroke-miterlimit:10;" d="M 97 144 L 77 144 L 77 154 L 97 154 L 97 174 L 107 174 L 107 154 L 127 154 L 127 144 L 107 144 L 107 124 L 97 124 L 97 144 "/>
<path style="fill-rule:nonzero;fill:rgb(0%,0%,0%);fill-opacity:1;stroke-width:1;stroke-linecap:butt;stroke-linejoin:miter;stroke:rgb(0%,0%,0%);stroke-opacity:1;stroke-miterlimit:10;" d="M 401 190 L 381 190 L 381 200 L 401 200 L 401 220 L 411 220 L 411 200 L 431 200 L 431 190 L 411 190 L 411 170 L 401 170 L 401 190 "/>
<path style="fill-rule:nonzero;fill:rgb(100%,0%,0%);fill-opacity:1;stroke-width:1;stroke-linecap:butt;stroke-linejoin:miter;stroke:rgb(0%,0%,0%);stroke-opacity:1;stroke-miterlimit:10;" d="M 1019 376.601562 C 1019 362.199219 995 362.199219 995 376.601562 C 995 391 1019 393.398438 1019 405.398438 C 1019 393.398438 1043 391 1043 376.601562 C 1043 362.199219 1019 362.199219 1019 376.601562 "/>
<path style="fill-rule:nonzero;fill:rgb(0%,0%,0%);fill-opacity:1;stroke-width:1;stroke-linecap:butt;stroke-linejoin:miter;stroke:rgb(0%,0%,0%);stroke-opacity:1;stroke-miterlimit:10;" d="M 926 149 L 906 149 L 906 159 L 926 159 L 926 179 L 936 179 L 936 159 L 956 159 L 956 149 L 936 149 L 936 129 L 926 129 L 926 149 "/>
<path style="fill-rule:nonzero;fill:rgb(0%,0%,0%);fill-opacity:1;stroke-width:1;stroke-linecap:butt;stroke-linejoin:miter;stroke:rgb(0%,0%,0%);stroke-opacity:1;stroke-miterlimit:10;" d="M 842 392 L 822 392 L 822 402 L 842 402 L 842 422 L 852 422 L 852 402 L 872 402 L 872 392 L 852 392 L 852 372 L 842 372 L 842 392 "/>
<path style="fill-rule:nonzero;fill:rgb(100%,0%,0%);fill-opacity:1;stroke-width:1;stroke-linecap:butt;stroke-linejoin:miter;stroke:rgb(0%,0%,0%);stroke-opacity:1;stroke-miterlimit:10;" d="M 734 119.601562 C 734 105.199219 710 105.199219 710 119.601562 C 710 134 734 136.398438 734 148.398438 C 734 136.398438 758 134 758 119.601562 C 758 105.199219 734 105.199219 734 119.601562 "/>
<path style="fill-rule:nonzero;fill:rgb(0%,0%,0%);fill-opacity:1;stroke-width:1;stroke-linecap:butt;stroke-linejoin:miter;stroke:rgb(0%,0%,0%);stroke-opacity:1;stroke-miterlimit:10;" d="M 714 254 L 694 254 L 694 264 L 714 264 L 714 284 L 724 284 L 724 264 L 744 264 L 744 254 L 724 254 L 724 234 L 714 234 L 714 254 "/>
<path style="fill-rule:nonzero;fill:rgb(100%,0%,0%);fill-opacity:1;stroke-width:1;stroke-linecap:butt;stroke-linejoin:miter;stroke:rgb(0%,0%,0%);stroke-opacity:1;stroke-miterlimit:10;" d="M 1043 241.601562 C 1043 227.199219 1019 227.199219 1019 241.601562 C 1019 256 1043 258.398438 1043 270.398438 C 1043 258.398438 1067 256 1067 241.601562 C 1067 227.199219 1043 227.199219 1043 241.601562 "/>
</g>
</svg>
