<?xml version="1.0" encoding="UTF-8"?>
<svg xmlns="http://www.w3.org/2000/svg" xmlns:xlink="http://www.w3.org/1999/xlink" width="1179pt" height="517pt" viewBox="0 0 1179 517" version="1.1">
<g id="surface916">
<rect x="0" y="0" width="1179" height="517" style="fill:rgb(90%,90%,90%);fill-opacity:1;stroke:none;"/>
<path style="fill-rule:nonzero;fill:rgb(53%,27%,7%);fill-opacity:1;stroke-width:1;stroke-linecap:butt;stroke-linejoin:miter;stroke:rgb(0%,0%,0%);stroke-opacity:1;stroke-miterlimit:10;" d="M 549 161 L 578.664062 161 L 590.664062 132.785156 L 602.664062 161 L 632.332031 161 L 608.332031 178.4375 L 616.417969 209.980469 L 590.664062 192.542969 L 564.914062 209.980469 L 577.214844 178.4375 L 549 161 "/>
<path style="fill-rule:nonzero;fill:rgb(53%,27%,7%);fill-opacity:1;stroke-width:1;stroke-linecap:butt;stroke-linejoin:miter;stroke:rgb(0%,0%,0%);stroke-opacity:1;stroke-miterlimit:10;" d="M 107 201 L 136.664062 201 L 148.664062 172.785156 L 160.664062 201 L 190.332031 201 L 166.332031 218.4375 L 174.417969 249.980469 L 148.664062 232.542969 L 122.914062 249.980469 L 135.214844 218.4375 L 107 201 "/>
<path style="fill-rule:nonzero;fill:rgb(53%,27%,7%);fill-opacity:1;stroke-width:1;stroke-linecap:butt;stroke-linejoin:miter;stroke:rgb(0%,0%,0%);stroke-opacity:1;stroke-miterlimit:10;" d="M 934 125 L 963.664062 125 L 975.664062 96.785156 L 987.664062 125 L 1017.332031 125 L 993.332031 142.4375 L 1001.417969 173.980469 L 975.664062 156.542969 L 949.914062 173.980469 L 962.214844 142.4375 L 934 125 "/>
<path style="fill-rule:nonzero;fill:rgb(55%,51%,53%);fill-opacity:1;stroke-width:1;stroke-linecap:butt;stroke-linejoin:miter;stroke:rgb(0%,0%,0%);stroke-opacity:1;stroke-miterlimit:10;" d="M 156 427 L 185.664062 427 L 197.664062 398.785156 L 209.664062 427 L 239.332031 427 L 215.332031 444.4375 L 223.417969 475.980469 L 197.664062 458.542969 L 171.914062 475.980469 L 184.214844 444.4375 L 156 427 "/>
<path style="fill-rule:nonzero;fill:rgb(55%,51%,53%);fill-opacity:1;stroke-width:1;stroke-linecap:butt;stroke-linejoin:miter;stroke:rgb(0%,0%,0%);stroke-opacity:1;stroke-miterlimit:10;" d="M 741 205 L 770.664062 205 L 782.664062 176.785156 L 794.664062 205 L 824.332031 205 L 800.332031 222.4375 L 808.417969 253.980469 L 782.664062 236.542969 L 756.914062 253.980469 L 769.214844 222.4375 L 741 205 "/>
<path style="fill-rule:nonzero;fill:rgb(55%,51%,53%);fill-opacity:1;stroke-width:1;stroke-linecap:butt;stroke-linejoin:miter;stroke:rgb(0%,0%,0%);stroke-opacity:1;stroke-miterlimit:10;" d="M 626 411 L 655.664062 411 L 667.664062 382.785156 L 679.664062 411 L 709.332031 411 L 685.332031 428.4375 L 693.417969 459.980469 L 667.664062 442.542969 L 641.914062 459.980469 L 654.214844 428.4375 L 626 411 "/>
<path style="fill-rule:nonzero;fill:rgb(55%,51%,53%);fill-opacity:1;stroke-width:1;stroke-linecap:butt;stroke-linejoin:miter;stroke:rgb(0%,0%,0%);stroke-opacity:1;stroke-miterlimit:10;" d="M 409 136 L 438.664062 136 L 450.664062 107.785156 L 462.664062 136 L 492.332031 136 L 468.332031 153.4375 L 476.417969 184.980469 L 450.664062 167.542969 L 424.914062 184.980469 L 437.214844 153.4375 L 409 136 "/>
</g>
</svg>
