<?xml version="1.0" encoding="UTF-8"?>
<svg xmlns="http://www.w3.org/2000/svg" xmlns:xlink="http://www.w3.org/1999/xlink" width="1179pt" height="517pt" viewBox="0 0 1179 517" version="1.1">
<g id="surface1071">
<rect x="0" y="0" width="1179" height="517" style="fill:rgb(90%,90%,90%);fill-opacity:1;stroke:none;"/>
<path style="fill-rule:nonzero;fill:rgb(55%,51%,53%);fill-opacity:1;stroke-width:1;stroke-linecap:butt;stroke-linejoin:miter;stroke:rgb(0%,0%,0%);stroke-opacity:1;stroke-miterlimit:10;" d="M 423 348 L 452.664062 348 L 464.664062 319.785156 L 476.664062 348 L 506.332031 348 L 482.332031 365.4375 L 490.417969 396.980469 L 464.664062 379.542969 L 438.914062 396.980469 L 451.214844 365.4375 L 423 348 "/>
<path style="fill-rule:nonzero;fill:rgb(55%,51%,53%);fill-opacity:1;stroke-width:1;stroke-linecap:butt;stroke-linejoin:miter;stroke:rgb(0%,0%,0%);stroke-opacity:1;stroke-miterlimit:10;" d="M 100 360 L 129.664062 360 L 141.664062 331.785156 L 153.664062 360 L 183.332031 360 L 159.332031 377.4375 L 167.417969 408.980469 L 141.664062 391.542969 L 115.914062 408.980469 L 128.214844 377.4375 L 100 360 "/>
<path style="fill-rule:nonzero;fill:rgb(55%,51%,53%);fill-opacity:1;stroke-width:1;stroke-linecap:butt;stroke-linejoin:miter;stroke:rgb(0%,0%,0%);stroke-opacity:1;stroke-miterlimit:10;" d="M 947 409 L 976.664062 409 L 988.664062 380.785156 L 1000.664062 409 L 1030.332031 409 L 1006.332031 426.4375 L 1014.417969 457.980469 L 988.664062 440.542969 L 962.914062 457.980469 L 975.214844 426.4375 L 947 409 "/>
<path style="fill-rule:nonzero;fill:rgb(55%,51%,53%);fill-opacity:1;stroke-width:1;stroke-linecap:butt;stroke-linejoin:miter;stroke:rgb(0%,0%,0%);stroke-opacity:1;stroke-miterlimit:10;" d="M 991 295 L 1020.664062 295 L 1032.664062 266.785156 L 1044.664062 295 L 1074.332031 295 L 1050.332031 312.4375 L 1058.417969 343.980469 L 1032.664062 326.542969 L 1006.914062 343.980469 L 1019.214844 312.4375 L 991 295 "/>
<path style="fill-rule:nonzero;fill:rgb(100%,51%,0%);fill-opacity:1;stroke-width:1;stroke-linecap:butt;stroke-linejoin:miter;stroke:rgb(0%,0%,0%);stroke-opacity:1;stroke-miterlimit:10;" d="M 201.214844 87 C 201.214844 98.714844 191.714844 108.214844 180 108.214844 C 168.285156 108.214844 158.785156 98.714844 158.785156 87 C 158.785156 75.285156 168.285156 65.785156 180 65.785156 C 191.714844 65.785156 201.214844 75.285156 201.214844 87 "/>
<path style="fill-rule:nonzero;fill:rgb(100%,51%,0%);fill-opacity:1;stroke-width:1;stroke-linecap:butt;stroke-linejoin:miter;stroke:rgb(0%,0%,0%);stroke-opacity:1;stroke-miterlimit:10;" d="M 586.214844 230 C 586.214844 241.714844 576.714844 251.214844 565 251.214844 C 553.285156 251.214844 543.785156 241.714844 543.785156 230 C 543.785156 218.285156 553.285156 208.785156 565 208.785156 C 576.714844 208.785156 586.214844 218.285156 586.214844 230 "/>
<path style="fill-rule:nonzero;fill:rgb(100%,51%,0%);fill-opacity:1;stroke-width:1;stroke-linecap:butt;stroke-linejoin:miter;stroke:rgb(0%,0%,0%);stroke-opacity:1;stroke-miterlimit:10;" d="M 274.214844 278 C 274.214844 289.714844 264.714844 299.214844 253 299.214844 C 241.285156 299.214844 231.785156 289.714844 231.785156 278 C 231.785156 266.285156 241.285156 256.785156 253 256.785156 C 264.714844 256.785156 274.214844 266.285156 274.214844 278 "/>
<path style="fill-rule:nonzero;fill:rgb(100%,51%,0%);fill-opacity:1;stroke-width:1;stroke-linecap:butt;stroke-linejoin:miter;stroke:rgb(0%,0%,0%);stroke-opacity:1;stroke-miterlimit:10;" d="M 558.214844 428 C 558.214844 439.714844 548.714844 449.214844 537 449.214844 C 525.285156 449.214844 515.785156 439.714844 515.785156 428 C 515.785156 416.285156 525.285156 406.785156 537 406.785156 C 548.714844 406.785156 558.214844 416.285156 558.214844 428 "/>
<path style="fill-rule:nonzero;fill:rgb(100%,51%,0%);fill-opacity:1;stroke-width:1;stroke-linecap:butt;stroke-linejoin:miter;stroke:rgb(0%,0%,0%);stroke-opacity:1;stroke-miterlimit:10;" d="M 883.214844 219 C 883.214844 230.714844 873.714844 240.214844 862 240.214844 C 850.285156 240.214844 840.785156 230.714844 840.785156 219 C 840.785156 207.285156 850.285156 197.785156 862 197.785156 C 873.714844 197.785156 883.214844 207.285156 883.214844 219 "/>
</g>
</svg>
