<?xml version="1.0" encoding="UTF-8"?>
<svg xmlns="http://www.w3.org/2000/svg" xmlns:xlink="http://www.w3.org/1999/xlink" width="1179pt" height="517pt" viewBox="0 0 1179 517" version="1.1">
<g id="surface1246">
<rect x="0" y="0" width="1179" height="517" style="fill:rgb(90%,90%,90%);fill-opacity:1;stroke:none;"/>
<path style="fill-rule:nonzero;fill:rgb(100%,51%,0%);fill-opacity:1;stroke-width:1;stroke-linecap:butt;stroke-linejoin:miter;stroke:rgb(0%,0%,0%);stroke-opacity:1;stroke-miterlimit:10;" d="M 677 215 L 651.019531 260 L 702.980469 260 L 677 215 "/>
<path style="fill-rule:nonzero;fill:rgb(100%,51%,0%);fill-opacity:1;stroke-width:1;stroke-linecap:butt;stroke-linejoin:miter;stroke:rgb(0%,0%,0%);stroke-opacity:1;stroke-miterlimit:10;" d="M 766 391 L 740.019531 436 L 791.980469 436 L 766 391 "/>
<path style="fill-rule:nonzero;fill:rgb(100%,51%,0%);fill-opacity:1;stroke-width:1;stroke-linecap:butt;stroke-linejoin:miter;stroke:rgb(0%,0%,0%);stroke-opacity:1;stroke-miterlimit:10;" d="M 956 93 L 930.019531 138 L 981.980469 138 L 956 93 "/>
<path style="fill-rule:nonzero;fill:rgb(53%,27%,7%);fill-opacity:1;stroke-width:1;stroke-linecap:butt;stroke-linejoin:miter;stroke:rgb(0%,0%,0%);stroke-opacity:1;stroke-miterlimit:10;" d="M 108 227.601562 C 108 213.199219 84 213.199219 84 227.601562 C 84 242 108 244.398438 108 256.398438 C 108 244.398438 132 242 132 227.601562 C 132 213.199219 108 213.199219 108 227.601562 "/>
<path style="fill-rule:nonzero;fill:rgb(53%,27%,7%);fill-opacity:1;stroke-width:1;stroke-linecap:butt;stroke-linejoin:miter;stroke:rgb(0%,0%,0%);stroke-opacity:1;stroke-miterlimit:10;" d="M 280 236.601562 C 280 222.199219 256 222.199219 256 236.601562 C 256 251 280 253.398438 280 265.398438 C 280 253.398438 304 251 304 236.601562 C 304 222.199219 280 222.199219 280 236.601562 "/>
<path style="fill-rule:nonzero;fill:rgb(53%,27%,7%);fill-opacity:1;stroke-width:1;stroke-linecap:butt;stroke-linejoin:miter;stroke:rgb(0%,0%,0%);stroke-opacity:1;stroke-miterlimit:10;" d="M 606 383.601562 C 606 369.199219 582 369.199219 582 383.601562 C 582 398 606 400.398438 606 412.398438 C 606 400.398438 630 398 630 383.601562 C 630 369.199219 606 369.199219 606 383.601562 "/>
<path style="fill-rule:nonzero;fill:rgb(53%,27%,7%);fill-opacity:1;stroke-width:1;stroke-linecap:butt;stroke-linejoin:miter;stroke:rgb(0%,0%,0%);stroke-opacity:1;stroke-miterlimit:10;" d="M 227 345.601562 C 227 331.199219 203 331.199219 203 345.601562 C 203 360 227 362.398438 227 374.398438 C 227 362.398438 251 360 251 345.601562 C 251 331.199219 227 331.199219 227 345.601562 "/>
<path style="fill-rule:nonzero;fill:rgb(53%,27%,7%);fill-opacity:1;stroke-width:1;stroke-linecap:butt;stroke-linejoin:miter;stroke:rgb(0%,0%,0%);stroke-opacity:1;stroke-miterlimit:10;" d="M 962 272.601562 C 962 258.199219 938 258.199219 938 272.601562 C 938 287 962 289.398438 962 301.398438 C 962 289.398438 986 287 986 272.601562 C 986 258.199219 962 258.199219 962 272.601562 "/>
</g>
</svg>
