<?xml version="1.0" encoding="UTF-8"?>
<svg xmlns="http://www.w3.org/2000/svg" xmlns:xlink="http://www.w3.org/1999/xlink" width="1179pt" height="517pt" viewBox="0 0 1179 517" version="1.1">
<g id="surface131">
<rect x="0" y="0" width="1179" height="517" style="fill:rgb(90%,90%,90%);fill-opacity:1;stroke:none;"/>
<path style="fill-rule:nonzero;fill:rgb(100%,51%,0%);fill-opacity:1;stroke-width:1;stroke-linecap:butt;stroke-linejoin:miter;stroke:rgb(0%,0%,0%);stroke-opacity:1;stroke-miterlimit:10;" d="M 209 316 L 238.664062 316 L 250.664062 287.785156 L 262.664062 316 L 292.332031 316 L 268.332031 333.4375 L 276.417969 364.980469 L 250.664062 347.542969 L 224.914062 364.980469 L 237.214844 333.4375 L 209 316 "/>
<path style="fill-rule:nonzero;fill:rgb(100%,51%,0%);fill-opacity:1;stroke-width:1;stroke-linecap:butt;stroke-linejoin:miter;stroke:rgb(0%,0%,0%);stroke-opacity:1;stroke-miterlimit:10;" d="M 92.785156 233.785156 L 92.785156 276.214844 L 135.214844 276.214844 L 135.214844 233.785156 L 92.785156 233.785156 "/>
<path style="fill-rule:nonzero;fill:rgb(100%,51%,0%);fill-opacity:1;stroke-width:1;stroke-linecap:butt;stroke-linejoin:miter;stroke:rgb(0%,0%,0%);stroke-opacity:1;stroke-miterlimit:10;" d="M 104 81 L 133.664062 81 L 145.664062 52.785156 L 157.664062 81 L 187.332031 81 L 163.332031 98.4375 L 171.417969 129.980469 L 145.664062 112.542969 L 119.914062 129.980469 L 132.214844 98.4375 L 104 81 "/>
<path style="fill-rule:nonzero;fill:rgb(100%,51%,0%);fill-opacity:1;stroke-width:1;stroke-linecap:butt;stroke-linejoin:miter;stroke:rgb(0%,0%,0%);stroke-opacity:1;stroke-miterlimit:10;" d="M 227.785156 159.785156 L 227.785156 202.214844 L 270.214844 202.214844 L 270.214844 159.785156 L 227.785156 159.785156 "/>
<path style="fill-rule:nonzero;fill:rgb(100%,51%,0%);fill-opacity:1;stroke-width:1;stroke-linecap:butt;stroke-linejoin:miter;stroke:rgb(0%,0%,0%);stroke-opacity:1;stroke-miterlimit:10;" d="M 367 146 L 396.664062 146 L 408.664062 117.785156 L 420.664062 146 L 450.332031 146 L 426.332031 163.4375 L 434.417969 194.980469 L 408.664062 177.542969 L 382.914062 194.980469 L 395.214844 163.4375 L 367 146 "/>
<path style="fill-rule:nonzero;fill:rgb(55%,51%,53%);fill-opacity:1;stroke-width:1;stroke-linecap:butt;stroke-linejoin:miter;stroke:rgb(0%,0%,0%);stroke-opacity:1;stroke-miterlimit:10;" d="M 974.785156 285.785156 L 974.785156 328.214844 L 1017.214844 328.214844 L 1017.214844 285.785156 L 974.785156 285.785156 "/>
<path style="fill-rule:nonzero;fill:rgb(55%,51%,53%);fill-opacity:1;stroke-width:1;stroke-linecap:butt;stroke-linejoin:miter;stroke:rgb(0%,0%,0%);stroke-opacity:1;stroke-miterlimit:10;" d="M 914 349 L 943.664062 349 L 955.664062 320.785156 L 967.664062 349 L 997.332031 349 L 973.332031 366.4375 L 981.417969 397.980469 L 955.664062 380.542969 L 929.914062 397.980469 L 942.214844 366.4375 L 914 349 "/>
<path style="fill-rule:nonzero;fill:rgb(55%,51%,53%);fill-opacity:1;stroke-width:1;stroke-linecap:butt;stroke-linejoin:miter;stroke:rgb(0%,0%,0%);stroke-opacity:1;stroke-miterlimit:10;" d="M 1009.785156 406.785156 L 1009.785156 449.214844 L 1052.214844 449.214844 L 1052.214844 406.785156 L 1009.785156 406.785156 "/>
</g>
</svg>
