<?xml version="1.0" encoding="UTF-8"?>
<svg xmlns="http://www.w3.org/2000/svg" xmlns:xlink="http://www.w3.org/1999/xlink" width="1179pt" height="517pt" viewBox="0 0 1179 517" version="1.1">
<g id="surface1021">
<rect x="0" y="0" width="1179" height="517" style="fill:rgb(90%,90%,90%);fill-opacity:1;stroke:none;"/>
<path style="fill-rule:nonzero;fill:rgb(100%,51%,0%);fill-opacity:1;stroke-width:1;stroke-linecap:butt;stroke-linejoin:miter;stroke:rgb(0%,0%,0%);stroke-opacity:1;stroke-miterlimit:10;" d="M 587 194 L 616.664062 194 L 628.664062 165.785156 L 640.664062 194 L 670.332031 194 L 646.332031 211.4375 L 654.417969 242.980469 L 628.664062 225.542969 L 602.914062 242.980469 L 615.214844 211.4375 L 587 194 "/>
<path style="fill-rule:nonzero;fill:rgb(100%,51%,0%);fill-opacity:1;stroke-width:1;stroke-linecap:butt;stroke-linejoin:miter;stroke:rgb(0%,0%,0%);stroke-opacity:1;stroke-miterlimit:10;" d="M 97 92 L 126.664062 92 L 138.664062 63.785156 L 150.664062 92 L 180.332031 92 L 156.332031 109.4375 L 164.417969 140.980469 L 138.664062 123.542969 L 112.914062 140.980469 L 125.214844 109.4375 L 97 92 "/>
<path style="fill-rule:nonzero;fill:rgb(100%,51%,0%);fill-opacity:1;stroke-width:1;stroke-linecap:butt;stroke-linejoin:miter;stroke:rgb(0%,0%,0%);stroke-opacity:1;stroke-miterlimit:10;" d="M 1009 84 L 1038.664062 84 L 1050.664062 55.785156 L 1062.664062 84 L 1092.332031 84 L 1068.332031 101.4375 L 1076.417969 132.980469 L 1050.664062 115.542969 L 1024.914062 132.980469 L 1037.214844 101.4375 L 1009 84 "/>
<path style="fill-rule:nonzero;fill:rgb(100%,51%,0%);fill-opacity:1;stroke-width:1;stroke-linecap:butt;stroke-linejoin:miter;stroke:rgb(0%,0%,0%);stroke-opacity:1;stroke-miterlimit:10;" d="M 405 408 L 434.664062 408 L 446.664062 379.785156 L 458.664062 408 L 488.332031 408 L 464.332031 425.4375 L 472.417969 456.980469 L 446.664062 439.542969 L 420.914062 456.980469 L 433.214844 425.4375 L 405 408 "/>
<path style="fill-rule:nonzero;fill:rgb(100%,51%,0%);fill-opacity:1;stroke-width:1;stroke-linecap:butt;stroke-linejoin:miter;stroke:rgb(0%,0%,0%);stroke-opacity:1;stroke-miterlimit:10;" d="M 351 145 L 380.664062 145 L 392.664062 116.785156 L 404.664062 145 L 434.332031 145 L 410.332031 162.4375 L 418.417969 193.980469 L 392.664062 176.542969 L 366.914062 193.980469 L 379.214844 162.4375 L 351 145 "/>
<path style="fill-rule:nonzero;fill:rgb(35%,70%,90%);fill-opacity:1;stroke-width:1;stroke-linecap:butt;stroke-linejoin:miter;stroke:rgb(0%,0%,0%);stroke-opacity:1;stroke-miterlimit:10;" d="M 988 379 L 962.019531 424 L 1013.980469 424 L 988 379 "/>
<path style="fill-rule:nonzero;fill:rgb(35%,70%,90%);fill-opacity:1;stroke-width:1;stroke-linecap:butt;stroke-linejoin:miter;stroke:rgb(0%,0%,0%);stroke-opacity:1;stroke-miterlimit:10;" d="M 841 171 L 815.019531 216 L 866.980469 216 L 841 171 "/>
<path style="fill-rule:nonzero;fill:rgb(35%,70%,90%);fill-opacity:1;stroke-width:1;stroke-linecap:butt;stroke-linejoin:miter;stroke:rgb(0%,0%,0%);stroke-opacity:1;stroke-miterlimit:10;" d="M 822 340 L 796.019531 385 L 847.980469 385 L 822 340 "/>
</g>
</svg>
