<?xml version="1.0" encoding="UTF-8"?>
<svg xmlns="http://www.w3.org/2000/svg" xmlns:xlink="http://www.w3.org/1999/xlink" width="1179pt" height="517pt" viewBox="0 0 1179 517" version="1.1">
<g id="surface1516">
<rect x="0" y="0" width="1179" height="517" style="fill:rgb(90%,90%,90%);fill-opacity:1;stroke:none;"/>
<path style="fill-rule:nonzero;fill:rgb(100%,51%,0%);fill-opacity:1;stroke-width:1;stroke-linecap:butt;stroke-linejoin:miter;stroke:rgb(0%,0%,0%);stroke-opacity:1;stroke-miterlimit:10;" d="M 112 329 L 86.019531 374 L 137.980469 374 L 112 329 "/>
<path style="fill-rule:nonzero;fill:rgb(100%,51%,0%);fill-opacity:1;stroke-width:1;stroke-linecap:butt;stroke-linejoin:miter;stroke:rgb(0%,0%,0%);stroke-opacity:1;stroke-miterlimit:10;" d="M 952 95 L 926.019531 140 L 977.980469 140 L 952 95 "/>
<path style="fill-rule:nonzero;fill:rgb(100%,51%,0%);fill-opacity:1;stroke-width:1;stroke-linecap:butt;stroke-linejoin:miter;stroke:rgb(0%,0%,0%);stroke-opacity:1;stroke-miterlimit:10;" d="M 773 145 L 747.019531 190 L 798.980469 190 L 773 145 "/>
<path style="fill-rule:nonzero;fill:rgb(53%,27%,7%);fill-opacity:1;stroke-width:1;stroke-linecap:butt;stroke-linejoin:miter;stroke:rgb(0%,0%,0%);stroke-opacity:1;stroke-miterlimit:10;" d="M 147 222.601562 C 147 208.199219 123 208.199219 123 222.601562 C 123 237 147 239.398438 147 251.398438 C 147 239.398438 171 237 171 222.601562 C 171 208.199219 147 208.199219 147 222.601562 "/>
<path style="fill-rule:nonzero;fill:rgb(53%,27%,7%);fill-opacity:1;stroke-width:1;stroke-linecap:butt;stroke-linejoin:miter;stroke:rgb(0%,0%,0%);stroke-opacity:1;stroke-miterlimit:10;" d="M 268 244.601562 C 268 230.199219 244 230.199219 244 244.601562 C 244 259 268 261.398438 268 273.398438 C 268 261.398438 292 259 292 244.601562 C 292 230.199219 268 230.199219 268 244.601562 "/>
<path style="fill-rule:nonzero;fill:rgb(53%,27%,7%);fill-opacity:1;stroke-width:1;stroke-linecap:butt;stroke-linejoin:miter;stroke:rgb(0%,0%,0%);stroke-opacity:1;stroke-miterlimit:10;" d="M 633 270.601562 C 633 256.199219 609 256.199219 609 270.601562 C 609 285 633 287.398438 633 299.398438 C 633 287.398438 657 285 657 270.601562 C 657 256.199219 633 256.199219 633 270.601562 "/>
<path style="fill-rule:nonzero;fill:rgb(53%,27%,7%);fill-opacity:1;stroke-width:1;stroke-linecap:butt;stroke-linejoin:miter;stroke:rgb(0%,0%,0%);stroke-opacity:1;stroke-miterlimit:10;" d="M 551 153.601562 C 551 139.199219 527 139.199219 527 153.601562 C 527 168 551 170.398438 551 182.398438 C 551 170.398438 575 168 575 153.601562 C 575 139.199219 551 139.199219 551 153.601562 "/>
<path style="fill-rule:nonzero;fill:rgb(53%,27%,7%);fill-opacity:1;stroke-width:1;stroke-linecap:butt;stroke-linejoin:miter;stroke:rgb(0%,0%,0%);stroke-opacity:1;stroke-miterlimit:10;" d="M 237 75.601562 C 237 61.199219 213 61.199219 213 75.601562 C 213 90 237 92.398438 237 104.398438 C 237 92.398438 261 90 261 75.601562 C 261 61.199219 237 61.199219 237 75.601562 "/>
</g>
</svg>
