<?xml version="1.0" encoding="UTF-8"?>
<svg xmlns="http://www.w3.org/2000/svg" xmlns:xlink="http://www.w3.org/1999/xlink" width="1179pt" height="517pt" viewBox="0 0 1179 517" version="1.1">
<g id="surface841">
<rect x="0" y="0" width="1179" height="517" style="fill:rgb(90%,90%,90%);fill-opacity:1;stroke:none;"/>
<path style="fill-rule:nonzero;fill:rgb(55%,51%,53%);fill-opacity:1;stroke-width:1;stroke-linecap:butt;stroke-linejoin:miter;stroke:rgb(0%,0%,0%);stroke-opacity:1;stroke-miterlimit:10;" d="M 175.214844 315 C 175.214844 326.714844 165.714844 336.214844 154 336.214844 C 142.285156 336.214844 132.785156 326.714844 132.785156 315 C 132.785156 303.285156 142.285156 293.785156 154 293.785156 C 165.714844 293.785156 175.214844 303.285156 175.214844 315 "/>
<path style="fill-rule:nonzero;fill:rgb(55%,51%,53%);fill-opacity:1;stroke-width:1;stroke-linecap:butt;stroke-linejoin:miter;stroke:rgb(0%,0%,0%);stroke-opacity:1;stroke-miterlimit:10;" d="M 334.214844 334 C 334.214844 345.714844 324.714844 355.214844 313 355.214844 C 301.285156 355.214844 291.785156 345.714844 291.785156 334 C 291.785156 322.285156 301.285156 312.785156 313 312.785156 C 324.714844 312.785156 334.214844 322.285156 334.214844 334 "/>
<path style="fill-rule:nonzero;fill:rgb(67%,100%,18%);fill-opacity:1;stroke-width:1;stroke-linecap:butt;stroke-linejoin:miter;stroke:rgb(0%,0%,0%);stroke-opacity:1;stroke-miterlimit:10;" d="M 130.214844 102 C 130.214844 113.714844 120.714844 123.214844 109 123.214844 C 97.285156 123.214844 87.785156 113.714844 87.785156 102 C 87.785156 90.285156 97.285156 80.785156 109 80.785156 C 120.714844 80.785156 130.214844 90.285156 130.214844 102 "/>
<path style="fill-rule:nonzero;fill:rgb(55%,51%,53%);fill-opacity:1;stroke-width:1;stroke-linecap:butt;stroke-linejoin:miter;stroke:rgb(0%,0%,0%);stroke-opacity:1;stroke-miterlimit:10;" d="M 413.214844 185 C 413.214844 196.714844 403.714844 206.214844 392 206.214844 C 380.285156 206.214844 370.785156 196.714844 370.785156 185 C 370.785156 173.285156 380.285156 163.785156 392 163.785156 C 403.714844 163.785156 413.214844 173.285156 413.214844 185 "/>
<path style="fill-rule:nonzero;fill:rgb(55%,51%,53%);fill-opacity:1;stroke-width:1;stroke-linecap:butt;stroke-linejoin:miter;stroke:rgb(0%,0%,0%);stroke-opacity:1;stroke-miterlimit:10;" d="M 103.214844 237 C 103.214844 248.714844 93.714844 258.214844 82 258.214844 C 70.285156 258.214844 60.785156 248.714844 60.785156 237 C 60.785156 225.285156 70.285156 215.785156 82 215.785156 C 93.714844 215.785156 103.214844 225.285156 103.214844 237 "/>
<path style="fill-rule:nonzero;fill:rgb(67%,100%,18%);fill-opacity:1;stroke-width:1;stroke-linecap:butt;stroke-linejoin:miter;stroke:rgb(0%,0%,0%);stroke-opacity:1;stroke-miterlimit:10;" d="M 1007 352 L 981.019531 397 L 1032.980469 397 L 1007 352 "/>
<path style="fill-rule:nonzero;fill:rgb(67%,100%,18%);fill-opacity:1;stroke-width:1;stroke-linecap:butt;stroke-linejoin:miter;stroke:rgb(0%,0%,0%);stroke-opacity:1;stroke-miterlimit:10;" d="M 796 337 L 770.019531 382 L 821.980469 382 L 796 337 "/>
<path style="fill-rule:nonzero;fill:rgb(55%,51%,53%);fill-opacity:1;stroke-width:1;stroke-linecap:butt;stroke-linejoin:miter;stroke:rgb(0%,0%,0%);stroke-opacity:1;stroke-miterlimit:10;" d="M 809 178 L 783.019531 223 L 834.980469 223 L 809 178 "/>
</g>
</svg>
