<?xml version="1.0" encoding="UTF-8"?>
<svg xmlns="http://www.w3.org/2000/svg" xmlns:xlink="http://www.w3.org/1999/xlink" width="1179pt" height="517pt" viewBox="0 0 1179 517" version="1.1">
<g id="surface1091">
<rect x="0" y="0" width="1179" height="517" style="fill:rgb(90%,90%,90%);fill-opacity:1;stroke:none;"/>
<path style="fill-rule:nonzero;fill:rgb(35%,70%,90%);fill-opacity:1;stroke-width:1;stroke-linecap:butt;stroke-linejoin:miter;stroke:rgb(0%,0%,0%);stroke-opacity:1;stroke-miterlimit:10;" d="M 238.214844 123 C 238.214844 134.714844 228.714844 144.214844 217 144.214844 C 205.285156 144.214844 195.785156 134.714844 195.785156 123 C 195.785156 111.285156 205.285156 101.785156 217 101.785156 C 228.714844 101.785156 238.214844 111.285156 238.214844 123 "/>
<path style="fill-rule:nonzero;fill:rgb(35%,70%,90%);fill-opacity:1;stroke-width:1;stroke-linecap:butt;stroke-linejoin:miter;stroke:rgb(0%,0%,0%);stroke-opacity:1;stroke-miterlimit:10;" d="M 238.214844 402 C 238.214844 413.714844 228.714844 423.214844 217 423.214844 C 205.285156 423.214844 195.785156 413.714844 195.785156 402 C 195.785156 390.285156 205.285156 380.785156 217 380.785156 C 228.714844 380.785156 238.214844 390.285156 238.214844 402 "/>
<path style="fill-rule:nonzero;fill:rgb(35%,70%,90%);fill-opacity:1;stroke-width:1;stroke-linecap:butt;stroke-linejoin:miter;stroke:rgb(0%,0%,0%);stroke-opacity:1;stroke-miterlimit:10;" d="M 943.214844 104 C 943.214844 115.714844 933.714844 125.214844 922 125.214844 C 910.285156 125.214844 900.785156 115.714844 900.785156 104 C 900.785156 92.285156 910.285156 82.785156 922 82.785156 C 933.714844 82.785156 943.214844 92.285156 943.214844 104 "/>
<path style="fill-rule:nonzero;fill:rgb(35%,70%,90%);fill-opacity:1;stroke-width:1;stroke-linecap:butt;stroke-linejoin:miter;stroke:rgb(0%,0%,0%);stroke-opacity:1;stroke-miterlimit:10;" d="M 576.214844 430 C 576.214844 441.714844 566.714844 451.214844 555 451.214844 C 543.285156 451.214844 533.785156 441.714844 533.785156 430 C 533.785156 418.285156 543.285156 408.785156 555 408.785156 C 566.714844 408.785156 576.214844 418.285156 576.214844 430 "/>
<path style="fill-rule:nonzero;fill:rgb(55%,51%,53%);fill-opacity:1;stroke-width:1;stroke-linecap:butt;stroke-linejoin:miter;stroke:rgb(0%,0%,0%);stroke-opacity:1;stroke-miterlimit:10;" d="M 387 182 L 416.664062 182 L 428.664062 153.785156 L 440.664062 182 L 470.332031 182 L 446.332031 199.4375 L 454.417969 230.980469 L 428.664062 213.542969 L 402.914062 230.980469 L 415.214844 199.4375 L 387 182 "/>
<path style="fill-rule:nonzero;fill:rgb(55%,51%,53%);fill-opacity:1;stroke-width:1;stroke-linecap:butt;stroke-linejoin:miter;stroke:rgb(0%,0%,0%);stroke-opacity:1;stroke-miterlimit:10;" d="M 306 284 L 335.664062 284 L 347.664062 255.785156 L 359.664062 284 L 389.332031 284 L 365.332031 301.4375 L 373.417969 332.980469 L 347.664062 315.542969 L 321.914062 332.980469 L 334.214844 301.4375 L 306 284 "/>
<path style="fill-rule:nonzero;fill:rgb(55%,51%,53%);fill-opacity:1;stroke-width:1;stroke-linecap:butt;stroke-linejoin:miter;stroke:rgb(0%,0%,0%);stroke-opacity:1;stroke-miterlimit:10;" d="M 892 285 L 921.664062 285 L 933.664062 256.785156 L 945.664062 285 L 975.332031 285 L 951.332031 302.4375 L 959.417969 333.980469 L 933.664062 316.542969 L 907.914062 333.980469 L 920.214844 302.4375 L 892 285 "/>
<path style="fill-rule:nonzero;fill:rgb(55%,51%,53%);fill-opacity:1;stroke-width:1;stroke-linecap:butt;stroke-linejoin:miter;stroke:rgb(0%,0%,0%);stroke-opacity:1;stroke-miterlimit:10;" d="M 94 208 L 123.664062 208 L 135.664062 179.785156 L 147.664062 208 L 177.332031 208 L 153.332031 225.4375 L 161.417969 256.980469 L 135.664062 239.542969 L 109.914062 256.980469 L 122.214844 225.4375 L 94 208 "/>
</g>
</svg>
