<?xml version="1.0" encoding="UTF-8"?>
<svg xmlns="http://www.w3.org/2000/svg" xmlns:xlink="http://www.w3.org/1999/xlink" width="1179pt" height="517pt" viewBox="0 0 1179 517" version="1.1">
<g id="surface36">
<rect x="0" y="0" width="1179" height="517" style="fill:rgb(90%,90%,90%);fill-opacity:1;stroke:none;"/>
<path style="fill-rule:nonzero;fill:rgb(35%,70%,90%);fill-opacity:1;stroke-width:1;stroke-linecap:butt;stroke-linejoin:miter;stroke:rgb(0%,0%,0%);stroke-opacity:1;stroke-miterlimit:10;" d="M 886 331 L 915.664062 331 L 927.664062 302.785156 L 939.664062 331 L 969.332031 331 L 945.332031 348.4375 L 953.417969 379.980469 L 927.664062 362.542969 L 901.914062 379.980469 L 914.214844 348.4375 L 886 331 "/>
<path style="fill-rule:nonzero;fill:rgb(35%,70%,90%);fill-opacity:1;stroke-width:1;stroke-linecap:butt;stroke-linejoin:miter;stroke:rgb(0%,0%,0%);stroke-opacity:1;stroke-miterlimit:10;" d="M 1005 213 L 1034.664062 213 L 1046.664062 184.785156 L 1058.664062 213 L 1088.332031 213 L 1064.332031 230.4375 L 1072.417969 261.980469 L 1046.664062 244.542969 L 1020.914062 261.980469 L 1033.214844 230.4375 L 1005 213 "/>
<path style="fill-rule:nonzero;fill:rgb(35%,70%,90%);fill-opacity:1;stroke-width:1;stroke-linecap:butt;stroke-linejoin:miter;stroke:rgb(0%,0%,0%);stroke-opacity:1;stroke-miterlimit:10;" d="M 306 367 L 335.664062 367 L 347.664062 338.785156 L 359.664062 367 L 389.332031 367 L 365.332031 384.4375 L 373.417969 415.980469 L 347.664062 398.542969 L 321.914062 415.980469 L 334.214844 384.4375 L 306 367 "/>
<path style="fill-rule:nonzero;fill:rgb(35%,70%,90%);fill-opacity:1;stroke-width:1;stroke-linecap:butt;stroke-linejoin:miter;stroke:rgb(0%,0%,0%);stroke-opacity:1;stroke-miterlimit:10;" d="M 386 181 L 415.664062 181 L 427.664062 152.785156 L 439.664062 181 L 469.332031 181 L 445.332031 198.4375 L 453.417969 229.980469 L 427.664062 212.542969 L 401.914062 229.980469 L 414.214844 198.4375 L 386 181 "/>
<path style="fill-rule:nonzero;fill:rgb(53%,27%,7%);fill-opacity:1;stroke-width:1;stroke-linecap:butt;stroke-linejoin:miter;stroke:rgb(0%,0%,0%);stroke-opacity:1;stroke-miterlimit:10;" d="M 470 293 L 444.019531 338 L 495.980469 338 L 470 293 "/>
<path style="fill-rule:nonzero;fill:rgb(53%,27%,7%);fill-opacity:1;stroke-width:1;stroke-linecap:butt;stroke-linejoin:miter;stroke:rgb(0%,0%,0%);stroke-opacity:1;stroke-miterlimit:10;" d="M 719 224 L 693.019531 269 L 744.980469 269 L 719 224 "/>
<path style="fill-rule:nonzero;fill:rgb(53%,27%,7%);fill-opacity:1;stroke-width:1;stroke-linecap:butt;stroke-linejoin:miter;stroke:rgb(0%,0%,0%);stroke-opacity:1;stroke-miterlimit:10;" d="M 198 92 L 172.019531 137 L 223.980469 137 L 198 92 "/>
<path style="fill-rule:nonzero;fill:rgb(53%,27%,7%);fill-opacity:1;stroke-width:1;stroke-linecap:butt;stroke-linejoin:miter;stroke:rgb(0%,0%,0%);stroke-opacity:1;stroke-miterlimit:10;" d="M 675 351 L 649.019531 396 L 700.980469 396 L 675 351 "/>
<path style="fill-rule:nonzero;fill:rgb(53%,27%,7%);fill-opacity:1;stroke-width:1;stroke-linecap:butt;stroke-linejoin:miter;stroke:rgb(0%,0%,0%);stroke-opacity:1;stroke-miterlimit:10;" d="M 153 347 L 127.019531 392 L 178.980469 392 L 153 347 "/>
</g>
</svg>
