<?xml version="1.0" encoding="UTF-8"?>
<svg xmlns="http://www.w3.org/2000/svg" xmlns:xlink="http://www.w3.org/1999/xlink" width="1179pt" height="517pt" viewBox="0 0 1179 517" version="1.1">
<g id="surface1016">
<rect x="0" y="0" width="1179" height="517" style="fill:rgb(90%,90%,90%);fill-opacity:1;stroke:none;"/>
<path style="fill-rule:nonzero;fill:rgb(55%,51%,53%);fill-opacity:1;stroke-width:1;stroke-linecap:butt;stroke-linejoin:miter;stroke:rgb(0%,0%,0%);stroke-opacity:1;stroke-miterlimit:10;" d="M 884 249.601562 C 884 235.199219 860 235.199219 860 249.601562 C 860 264 884 266.398438 884 278.398438 C 884 266.398438 908 264 908 249.601562 C 908 235.199219 884 235.199219 884 249.601562 "/>
<path style="fill-rule:nonzero;fill:rgb(55%,51%,53%);fill-opacity:1;stroke-width:1;stroke-linecap:butt;stroke-linejoin:miter;stroke:rgb(0%,0%,0%);stroke-opacity:1;stroke-miterlimit:10;" d="M 373 388.601562 C 373 374.199219 349 374.199219 349 388.601562 C 349 403 373 405.398438 373 417.398438 C 373 405.398438 397 403 397 388.601562 C 397 374.199219 373 374.199219 373 388.601562 "/>
<path style="fill-rule:nonzero;fill:rgb(55%,51%,53%);fill-opacity:1;stroke-width:1;stroke-linecap:butt;stroke-linejoin:miter;stroke:rgb(0%,0%,0%);stroke-opacity:1;stroke-miterlimit:10;" d="M 633 300.601562 C 633 286.199219 609 286.199219 609 300.601562 C 609 315 633 317.398438 633 329.398438 C 633 317.398438 657 315 657 300.601562 C 657 286.199219 633 286.199219 633 300.601562 "/>
<path style="fill-rule:nonzero;fill:rgb(55%,51%,53%);fill-opacity:1;stroke-width:1;stroke-linecap:butt;stroke-linejoin:miter;stroke:rgb(0%,0%,0%);stroke-opacity:1;stroke-miterlimit:10;" d="M 255 346.601562 C 255 332.199219 231 332.199219 231 346.601562 C 231 361 255 363.398438 255 375.398438 C 255 363.398438 279 361 279 346.601562 C 279 332.199219 255 332.199219 255 346.601562 "/>
<path style="fill-rule:nonzero;fill:rgb(53%,27%,7%);fill-opacity:1;stroke-width:1;stroke-linecap:butt;stroke-linejoin:miter;stroke:rgb(0%,0%,0%);stroke-opacity:1;stroke-miterlimit:10;" d="M 658 159 L 687.664062 159 L 699.664062 130.785156 L 711.664062 159 L 741.332031 159 L 717.332031 176.4375 L 725.417969 207.980469 L 699.664062 190.542969 L 673.914062 207.980469 L 686.214844 176.4375 L 658 159 "/>
<path style="fill-rule:nonzero;fill:rgb(53%,27%,7%);fill-opacity:1;stroke-width:1;stroke-linecap:butt;stroke-linejoin:miter;stroke:rgb(0%,0%,0%);stroke-opacity:1;stroke-miterlimit:10;" d="M 434 184 L 463.664062 184 L 475.664062 155.785156 L 487.664062 184 L 517.332031 184 L 493.332031 201.4375 L 501.417969 232.980469 L 475.664062 215.542969 L 449.914062 232.980469 L 462.214844 201.4375 L 434 184 "/>
<path style="fill-rule:nonzero;fill:rgb(53%,27%,7%);fill-opacity:1;stroke-width:1;stroke-linecap:butt;stroke-linejoin:miter;stroke:rgb(0%,0%,0%);stroke-opacity:1;stroke-miterlimit:10;" d="M 811 365 L 840.664062 365 L 852.664062 336.785156 L 864.664062 365 L 894.332031 365 L 870.332031 382.4375 L 878.417969 413.980469 L 852.664062 396.542969 L 826.914062 413.980469 L 839.214844 382.4375 L 811 365 "/>
<path style="fill-rule:nonzero;fill:rgb(53%,27%,7%);fill-opacity:1;stroke-width:1;stroke-linecap:butt;stroke-linejoin:miter;stroke:rgb(0%,0%,0%);stroke-opacity:1;stroke-miterlimit:10;" d="M 129 227 L 158.664062 227 L 170.664062 198.785156 L 182.664062 227 L 212.332031 227 L 188.332031 244.4375 L 196.417969 275.980469 L 170.664062 258.542969 L 144.914062 275.980469 L 157.214844 244.4375 L 129 227 "/>
</g>
</svg>
