<?xml version="1.0" encoding="UTF-8"?>
<svg xmlns="http://www.w3.org/2000/svg" xmlns:xlink="http://www.w3.org/1999/xlink" width="1179pt" height="517pt" viewBox="0 0 1179 517" version="1.1">
<g id="surface1151">
<rect x="0" y="0" width="1179" height="517" style="fill:rgb(90%,90%,90%);fill-opacity:1;stroke:none;"/>
<path style="fill-rule:nonzero;fill:rgb(55%,51%,53%);fill-opacity:1;stroke-width:1;stroke-linecap:butt;stroke-linejoin:miter;stroke:rgb(0%,0%,0%);stroke-opacity:1;stroke-miterlimit:10;" d="M 631.214844 369 C 631.214844 380.714844 621.714844 390.214844 610 390.214844 C 598.285156 390.214844 588.785156 380.714844 588.785156 369 C 588.785156 357.285156 598.285156 347.785156 610 347.785156 C 621.714844 347.785156 631.214844 357.285156 631.214844 369 "/>
<path style="fill-rule:nonzero;fill:rgb(55%,51%,53%);fill-opacity:1;stroke-width:1;stroke-linecap:butt;stroke-linejoin:miter;stroke:rgb(0%,0%,0%);stroke-opacity:1;stroke-miterlimit:10;" d="M 996.214844 426 C 996.214844 437.714844 986.714844 447.214844 975 447.214844 C 963.285156 447.214844 953.785156 437.714844 953.785156 426 C 953.785156 414.285156 963.285156 404.785156 975 404.785156 C 986.714844 404.785156 996.214844 414.285156 996.214844 426 "/>
<path style="fill-rule:nonzero;fill:rgb(55%,51%,53%);fill-opacity:1;stroke-width:1;stroke-linecap:butt;stroke-linejoin:miter;stroke:rgb(0%,0%,0%);stroke-opacity:1;stroke-miterlimit:10;" d="M 248.214844 391 C 248.214844 402.714844 238.714844 412.214844 227 412.214844 C 215.285156 412.214844 205.785156 402.714844 205.785156 391 C 205.785156 379.285156 215.285156 369.785156 227 369.785156 C 238.714844 369.785156 248.214844 379.285156 248.214844 391 "/>
<path style="fill-rule:nonzero;fill:rgb(55%,51%,53%);fill-opacity:1;stroke-width:1;stroke-linecap:butt;stroke-linejoin:miter;stroke:rgb(0%,0%,0%);stroke-opacity:1;stroke-miterlimit:10;" d="M 134.214844 352 C 134.214844 363.714844 124.714844 373.214844 113 373.214844 C 101.285156 373.214844 91.785156 363.714844 91.785156 352 C 91.785156 340.285156 101.285156 330.785156 113 330.785156 C 124.714844 330.785156 134.214844 340.285156 134.214844 352 "/>
<path style="fill-rule:nonzero;fill:rgb(35%,70%,90%);fill-opacity:1;stroke-width:1;stroke-linecap:butt;stroke-linejoin:miter;stroke:rgb(0%,0%,0%);stroke-opacity:1;stroke-miterlimit:10;" d="M 832 328 L 806.019531 373 L 857.980469 373 L 832 328 "/>
<path style="fill-rule:nonzero;fill:rgb(35%,70%,90%);fill-opacity:1;stroke-width:1;stroke-linecap:butt;stroke-linejoin:miter;stroke:rgb(0%,0%,0%);stroke-opacity:1;stroke-miterlimit:10;" d="M 231 97 L 205.019531 142 L 256.980469 142 L 231 97 "/>
<path style="fill-rule:nonzero;fill:rgb(35%,70%,90%);fill-opacity:1;stroke-width:1;stroke-linecap:butt;stroke-linejoin:miter;stroke:rgb(0%,0%,0%);stroke-opacity:1;stroke-miterlimit:10;" d="M 454 95 L 428.019531 140 L 479.980469 140 L 454 95 "/>
</g>
</svg>
