<?xml version="1.0" encoding="UTF-8"?>
<svg xmlns="http://www.w3.org/2000/svg" xmlns:xlink="http://www.w3.org/1999/xlink" width="1179pt" height="517pt" viewBox="0 0 1179 517" version="1.1">
<g id="surface1231">
<rect x="0" y="0" width="1179" height="517" style="fill:rgb(90%,90%,90%);fill-opacity:1;stroke:none;"/>
<path style="fill-rule:nonzero;fill:rgb(53%,27%,7%);fill-opacity:1;stroke-width:1;stroke-linecap:butt;stroke-linejoin:miter;stroke:rgb(0%,0%,0%);stroke-opacity:1;stroke-miterlimit:10;" d="M 1049.214844 313 C 1049.214844 324.714844 1039.714844 334.214844 1028 334.214844 C 1016.285156 334.214844 1006.785156 324.714844 1006.785156 313 C 1006.785156 301.285156 1016.285156 291.785156 1028 291.785156 C 1039.714844 291.785156 1049.214844 301.285156 1049.214844 313 "/>
<path style="fill-rule:nonzero;fill:rgb(53%,27%,7%);fill-opacity:1;stroke-width:1;stroke-linecap:butt;stroke-linejoin:miter;stroke:rgb(0%,0%,0%);stroke-opacity:1;stroke-miterlimit:10;" d="M 921.214844 99 C 921.214844 110.714844 911.714844 120.214844 900 120.214844 C 888.285156 120.214844 878.785156 110.714844 878.785156 99 C 878.785156 87.285156 888.285156 77.785156 900 77.785156 C 911.714844 77.785156 921.214844 87.285156 921.214844 99 "/>
<path style="fill-rule:nonzero;fill:rgb(53%,27%,7%);fill-opacity:1;stroke-width:1;stroke-linecap:butt;stroke-linejoin:miter;stroke:rgb(0%,0%,0%);stroke-opacity:1;stroke-miterlimit:10;" d="M 392.214844 95 C 392.214844 106.714844 382.714844 116.214844 371 116.214844 C 359.285156 116.214844 349.785156 106.714844 349.785156 95 C 349.785156 83.285156 359.285156 73.785156 371 73.785156 C 382.714844 73.785156 392.214844 83.285156 392.214844 95 "/>
<path style="fill-rule:nonzero;fill:rgb(53%,27%,7%);fill-opacity:1;stroke-width:1;stroke-linecap:butt;stroke-linejoin:miter;stroke:rgb(0%,0%,0%);stroke-opacity:1;stroke-miterlimit:10;" d="M 659.214844 418 C 659.214844 429.714844 649.714844 439.214844 638 439.214844 C 626.285156 439.214844 616.785156 429.714844 616.785156 418 C 616.785156 406.285156 626.285156 396.785156 638 396.785156 C 649.714844 396.785156 659.214844 406.285156 659.214844 418 "/>
<path style="fill-rule:nonzero;fill:rgb(55%,51%,53%);fill-opacity:1;stroke-width:1;stroke-linecap:butt;stroke-linejoin:miter;stroke:rgb(0%,0%,0%);stroke-opacity:1;stroke-miterlimit:10;" d="M 272 350 L 246.019531 395 L 297.980469 395 L 272 350 "/>
<path style="fill-rule:nonzero;fill:rgb(55%,51%,53%);fill-opacity:1;stroke-width:1;stroke-linecap:butt;stroke-linejoin:miter;stroke:rgb(0%,0%,0%);stroke-opacity:1;stroke-miterlimit:10;" d="M 95 303 L 69.019531 348 L 120.980469 348 L 95 303 "/>
<path style="fill-rule:nonzero;fill:rgb(55%,51%,53%);fill-opacity:1;stroke-width:1;stroke-linecap:butt;stroke-linejoin:miter;stroke:rgb(0%,0%,0%);stroke-opacity:1;stroke-miterlimit:10;" d="M 865 303 L 839.019531 348 L 890.980469 348 L 865 303 "/>
</g>
</svg>
