<?xml version="1.0" encoding="UTF-8"?>
<svg xmlns="http://www.w3.org/2000/svg" xmlns:xlink="http://www.w3.org/1999/xlink" width="1179pt" height="517pt" viewBox="0 0 1179 517" version="1.1">
<g id="surface466">
<rect x="0" y="0" width="1179" height="517" style="fill:rgb(90%,90%,90%);fill-opacity:1;stroke:none;"/>
<path style="fill-rule:nonzero;fill:rgb(100%,51%,0%);fill-opacity:1;stroke-width:1;stroke-linecap:butt;stroke-linejoin:miter;stroke:rgb(0%,0%,0%);stroke-opacity:1;stroke-miterlimit:10;" d="M 345.214844 194 C 345.214844 205.714844 335.714844 215.214844 324 215.214844 C 312.285156 215.214844 302.785156 205.714844 302.785156 194 C 302.785156 182.285156 312.285156 172.785156 324 172.785156 C 335.714844 172.785156 345.214844 182.285156 345.214844 194 "/>
<path style="fill-rule:nonzero;fill:rgb(100%,51%,0%);fill-opacity:1;stroke-width:1;stroke-linecap:butt;stroke-linejoin:miter;stroke:rgb(0%,0%,0%);stroke-opacity:1;stroke-miterlimit:10;" d="M 431 391 L 405.019531 436 L 456.980469 436 L 431 391 "/>
<path style="fill-rule:nonzero;fill:rgb(100%,51%,0%);fill-opacity:1;stroke-width:1;stroke-linecap:butt;stroke-linejoin:miter;stroke:rgb(0%,0%,0%);stroke-opacity:1;stroke-miterlimit:10;" d="M 450.214844 314 C 450.214844 325.714844 440.714844 335.214844 429 335.214844 C 417.285156 335.214844 407.785156 325.714844 407.785156 314 C 407.785156 302.285156 417.285156 292.785156 429 292.785156 C 440.714844 292.785156 450.214844 302.285156 450.214844 314 "/>
<path style="fill-rule:nonzero;fill:rgb(100%,51%,0%);fill-opacity:1;stroke-width:1;stroke-linecap:butt;stroke-linejoin:miter;stroke:rgb(0%,0%,0%);stroke-opacity:1;stroke-miterlimit:10;" d="M 289.214844 419 C 289.214844 430.714844 279.714844 440.214844 268 440.214844 C 256.285156 440.214844 246.785156 430.714844 246.785156 419 C 246.785156 407.285156 256.285156 397.785156 268 397.785156 C 279.714844 397.785156 289.214844 407.285156 289.214844 419 "/>
<path style="fill-rule:nonzero;fill:rgb(100%,51%,0%);fill-opacity:1;stroke-width:1;stroke-linecap:butt;stroke-linejoin:miter;stroke:rgb(0%,0%,0%);stroke-opacity:1;stroke-miterlimit:10;" d="M 123.214844 338 C 123.214844 349.714844 113.714844 359.214844 102 359.214844 C 90.285156 359.214844 80.785156 349.714844 80.785156 338 C 80.785156 326.285156 90.285156 316.785156 102 316.785156 C 113.714844 316.785156 123.214844 326.285156 123.214844 338 "/>
<path style="fill-rule:nonzero;fill:rgb(53%,27%,7%);fill-opacity:1;stroke-width:1;stroke-linecap:butt;stroke-linejoin:miter;stroke:rgb(0%,0%,0%);stroke-opacity:1;stroke-miterlimit:10;" d="M 969 142 L 943.019531 187 L 994.980469 187 L 969 142 "/>
<path style="fill-rule:nonzero;fill:rgb(53%,27%,7%);fill-opacity:1;stroke-width:1;stroke-linecap:butt;stroke-linejoin:miter;stroke:rgb(0%,0%,0%);stroke-opacity:1;stroke-miterlimit:10;" d="M 866.214844 131 C 866.214844 142.714844 856.714844 152.214844 845 152.214844 C 833.285156 152.214844 823.785156 142.714844 823.785156 131 C 823.785156 119.285156 833.285156 109.785156 845 109.785156 C 856.714844 109.785156 866.214844 119.285156 866.214844 131 "/>
<path style="fill-rule:nonzero;fill:rgb(53%,27%,7%);fill-opacity:1;stroke-width:1;stroke-linecap:butt;stroke-linejoin:miter;stroke:rgb(0%,0%,0%);stroke-opacity:1;stroke-miterlimit:10;" d="M 731 124 L 705.019531 169 L 756.980469 169 L 731 124 "/>
<path style="fill-rule:nonzero;fill:rgb(53%,27%,7%);fill-opacity:1;stroke-width:1;stroke-linecap:butt;stroke-linejoin:miter;stroke:rgb(0%,0%,0%);stroke-opacity:1;stroke-miterlimit:10;" d="M 856 269 L 830.019531 314 L 881.980469 314 L 856 269 "/>
<path style="fill-rule:nonzero;fill:rgb(53%,27%,7%);fill-opacity:1;stroke-width:1;stroke-linecap:butt;stroke-linejoin:miter;stroke:rgb(0%,0%,0%);stroke-opacity:1;stroke-miterlimit:10;" d="M 699 383 L 673.019531 428 L 724.980469 428 L 699 383 "/>
</g>
</svg>
