<?xml version="1.0" encoding="UTF-8"?>
<svg xmlns="http://www.w3.org/2000/svg" xmlns:xlink="http://www.w3.org/1999/xlink" width="1179pt" height="517pt" viewBox="0 0 1179 517" version="1.1">
<g id="surface246">
<rect x="0" y="0" width="1179" height="517" style="fill:rgb(90%,90%,90%);fill-opacity:1;stroke:none;"/>
<path style="fill-rule:nonzero;fill:rgb(35%,70%,90%);fill-opacity:1;stroke-width:1;stroke-linecap:butt;stroke-linejoin:miter;stroke:rgb(0%,0%,0%);stroke-opacity:1;stroke-miterlimit:10;" d="M 328 374 L 357.664062 374 L 369.664062 345.785156 L 381.664062 374 L 411.332031 374 L 387.332031 391.4375 L 395.417969 422.980469 L 369.664062 405.542969 L 343.914062 422.980469 L 356.214844 391.4375 L 328 374 "/>
<path style="fill-rule:nonzero;fill:rgb(35%,70%,90%);fill-opacity:1;stroke-width:1;stroke-linecap:butt;stroke-linejoin:miter;stroke:rgb(0%,0%,0%);stroke-opacity:1;stroke-miterlimit:10;" d="M 821 432 L 850.664062 432 L 862.664062 403.785156 L 874.664062 432 L 904.332031 432 L 880.332031 449.4375 L 888.417969 480.980469 L 862.664062 463.542969 L 836.914062 480.980469 L 849.214844 449.4375 L 821 432 "/>
<path style="fill-rule:nonzero;fill:rgb(35%,70%,90%);fill-opacity:1;stroke-width:1;stroke-linecap:butt;stroke-linejoin:miter;stroke:rgb(0%,0%,0%);stroke-opacity:1;stroke-miterlimit:10;" d="M 415 184 L 444.664062 184 L 456.664062 155.785156 L 468.664062 184 L 498.332031 184 L 474.332031 201.4375 L 482.417969 232.980469 L 456.664062 215.542969 L 430.914062 232.980469 L 443.214844 201.4375 L 415 184 "/>
<path style="fill-rule:nonzero;fill:rgb(55%,51%,53%);fill-opacity:1;stroke-width:1;stroke-linecap:butt;stroke-linejoin:miter;stroke:rgb(0%,0%,0%);stroke-opacity:1;stroke-miterlimit:10;" d="M 458 339 L 432.019531 384 L 483.980469 384 L 458 339 "/>
<path style="fill-rule:nonzero;fill:rgb(55%,51%,53%);fill-opacity:1;stroke-width:1;stroke-linecap:butt;stroke-linejoin:miter;stroke:rgb(0%,0%,0%);stroke-opacity:1;stroke-miterlimit:10;" d="M 198 313 L 172.019531 358 L 223.980469 358 L 198 313 "/>
<path style="fill-rule:nonzero;fill:rgb(55%,51%,53%);fill-opacity:1;stroke-width:1;stroke-linecap:butt;stroke-linejoin:miter;stroke:rgb(0%,0%,0%);stroke-opacity:1;stroke-miterlimit:10;" d="M 660 56 L 634.019531 101 L 685.980469 101 L 660 56 "/>
<path style="fill-rule:nonzero;fill:rgb(55%,51%,53%);fill-opacity:1;stroke-width:1;stroke-linecap:butt;stroke-linejoin:miter;stroke:rgb(0%,0%,0%);stroke-opacity:1;stroke-miterlimit:10;" d="M 262 174 L 236.019531 219 L 287.980469 219 L 262 174 "/>
</g>
</svg>
