<?xml version="1.0" encoding="UTF-8"?>
<svg xmlns="http://www.w3.org/2000/svg" xmlns:xlink="http://www.w3.org/1999/xlink" width="1179pt" height="517pt" viewBox="0 0 1179 517" version="1.1">
<g id="surface826">
<rect x="0" y="0" width="1179" height="517" style="fill:rgb(90%,90%,90%);fill-opacity:1;stroke:none;"/>
<path style="fill-rule:nonzero;fill:rgb(53%,27%,7%);fill-opacity:1;stroke-width:1;stroke-linecap:butt;stroke-linejoin:miter;stroke:rgb(0%,0%,0%);stroke-opacity:1;stroke-miterlimit:10;" d="M 1030 371 L 1059.664062 371 L 1071.664062 342.785156 L 1083.664062 371 L 1113.332031 371 L 1089.332031 388.4375 L 1097.417969 419.980469 L 1071.664062 402.542969 L 1045.914062 419.980469 L 1058.214844 388.4375 L 1030 371 "/>
<path style="fill-rule:nonzero;fill:rgb(53%,27%,7%);fill-opacity:1;stroke-width:1;stroke-linecap:butt;stroke-linejoin:miter;stroke:rgb(0%,0%,0%);stroke-opacity:1;stroke-miterlimit:10;" d="M 730 217 L 759.664062 217 L 771.664062 188.785156 L 783.664062 217 L 813.332031 217 L 789.332031 234.4375 L 797.417969 265.980469 L 771.664062 248.542969 L 745.914062 265.980469 L 758.214844 234.4375 L 730 217 "/>
<path style="fill-rule:nonzero;fill:rgb(53%,27%,7%);fill-opacity:1;stroke-width:1;stroke-linecap:butt;stroke-linejoin:miter;stroke:rgb(0%,0%,0%);stroke-opacity:1;stroke-miterlimit:10;" d="M 679 396 L 708.664062 396 L 720.664062 367.785156 L 732.664062 396 L 762.332031 396 L 738.332031 413.4375 L 746.417969 444.980469 L 720.664062 427.542969 L 694.914062 444.980469 L 707.214844 413.4375 L 679 396 "/>
<path style="fill-rule:nonzero;fill:rgb(53%,27%,7%);fill-opacity:1;stroke-width:1;stroke-linecap:butt;stroke-linejoin:miter;stroke:rgb(0%,0%,0%);stroke-opacity:1;stroke-miterlimit:10;" d="M 517 301 L 546.664062 301 L 558.664062 272.785156 L 570.664062 301 L 600.332031 301 L 576.332031 318.4375 L 584.417969 349.980469 L 558.664062 332.542969 L 532.914062 349.980469 L 545.214844 318.4375 L 517 301 "/>
<path style="fill-rule:nonzero;fill:rgb(53%,27%,7%);fill-opacity:1;stroke-width:1;stroke-linecap:butt;stroke-linejoin:miter;stroke:rgb(0%,0%,0%);stroke-opacity:1;stroke-miterlimit:10;" d="M 113 175 L 142.664062 175 L 154.664062 146.785156 L 166.664062 175 L 196.332031 175 L 172.332031 192.4375 L 180.417969 223.980469 L 154.664062 206.542969 L 128.914062 223.980469 L 141.214844 192.4375 L 113 175 "/>
<path style="fill-rule:nonzero;fill:rgb(55%,51%,53%);fill-opacity:1;stroke-width:1;stroke-linecap:butt;stroke-linejoin:miter;stroke:rgb(0%,0%,0%);stroke-opacity:1;stroke-miterlimit:10;" d="M 717 89 L 746.664062 89 L 758.664062 60.785156 L 770.664062 89 L 800.332031 89 L 776.332031 106.4375 L 784.417969 137.980469 L 758.664062 120.542969 L 732.914062 137.980469 L 745.214844 106.4375 L 717 89 "/>
<path style="fill-rule:nonzero;fill:rgb(55%,51%,53%);fill-opacity:1;stroke-width:1;stroke-linecap:butt;stroke-linejoin:miter;stroke:rgb(0%,0%,0%);stroke-opacity:1;stroke-miterlimit:10;" d="M 396 86 L 425.664062 86 L 437.664062 57.785156 L 449.664062 86 L 479.332031 86 L 455.332031 103.4375 L 463.417969 134.980469 L 437.664062 117.542969 L 411.914062 134.980469 L 424.214844 103.4375 L 396 86 "/>
<path style="fill-rule:nonzero;fill:rgb(55%,51%,53%);fill-opacity:1;stroke-width:1;stroke-linecap:butt;stroke-linejoin:miter;stroke:rgb(0%,0%,0%);stroke-opacity:1;stroke-miterlimit:10;" d="M 535 96 L 564.664062 96 L 576.664062 67.785156 L 588.664062 96 L 618.332031 96 L 594.332031 113.4375 L 602.417969 144.980469 L 576.664062 127.542969 L 550.914062 144.980469 L 563.214844 113.4375 L 535 96 "/>
</g>
</svg>
