<?xml version="1.0" encoding="UTF-8"?>
<svg xmlns="http://www.w3.org/2000/svg" xmlns:xlink="http://www.w3.org/1999/xlink" width="1179pt" height="517pt" viewBox="0 0 1179 517" version="1.1">
<g id="surface601">
<rect x="0" y="0" width="1179" height="517" style="fill:rgb(90%,90%,90%);fill-opacity:1;stroke:none;"/>
<path style="fill-rule:nonzero;fill:rgb(35%,70%,90%);fill-opacity:1;stroke-width:1;stroke-linecap:butt;stroke-linejoin:miter;stroke:rgb(0%,0%,0%);stroke-opacity:1;stroke-miterlimit:10;" d="M 350 334 L 379.664062 334 L 391.664062 305.785156 L 403.664062 334 L 433.332031 334 L 409.332031 351.4375 L 417.417969 382.980469 L 391.664062 365.542969 L 365.914062 382.980469 L 378.214844 351.4375 L 350 334 "/>
<path style="fill-rule:nonzero;fill:rgb(35%,70%,90%);fill-opacity:1;stroke-width:1;stroke-linecap:butt;stroke-linejoin:miter;stroke:rgb(0%,0%,0%);stroke-opacity:1;stroke-miterlimit:10;" d="M 512 152 L 541.664062 152 L 553.664062 123.785156 L 565.664062 152 L 595.332031 152 L 571.332031 169.4375 L 579.417969 200.980469 L 553.664062 183.542969 L 527.914062 200.980469 L 540.214844 169.4375 L 512 152 "/>
<path style="fill-rule:nonzero;fill:rgb(35%,70%,90%);fill-opacity:1;stroke-width:1;stroke-linecap:butt;stroke-linejoin:miter;stroke:rgb(0%,0%,0%);stroke-opacity:1;stroke-miterlimit:10;" d="M 152 432 L 181.664062 432 L 193.664062 403.785156 L 205.664062 432 L 235.332031 432 L 211.332031 449.4375 L 219.417969 480.980469 L 193.664062 463.542969 L 167.914062 480.980469 L 180.214844 449.4375 L 152 432 "/>
<path style="fill-rule:nonzero;fill:rgb(35%,70%,90%);fill-opacity:1;stroke-width:1;stroke-linecap:butt;stroke-linejoin:miter;stroke:rgb(0%,0%,0%);stroke-opacity:1;stroke-miterlimit:10;" d="M 700 185 L 729.664062 185 L 741.664062 156.785156 L 753.664062 185 L 783.332031 185 L 759.332031 202.4375 L 767.417969 233.980469 L 741.664062 216.542969 L 715.914062 233.980469 L 728.214844 202.4375 L 700 185 "/>
<path style="fill-rule:nonzero;fill:rgb(55%,51%,53%);fill-opacity:1;stroke-width:1;stroke-linecap:butt;stroke-linejoin:miter;stroke:rgb(0%,0%,0%);stroke-opacity:1;stroke-miterlimit:10;" d="M 952.214844 234 C 952.214844 245.714844 942.714844 255.214844 931 255.214844 C 919.285156 255.214844 909.785156 245.714844 909.785156 234 C 909.785156 222.285156 919.285156 212.785156 931 212.785156 C 942.714844 212.785156 952.214844 222.285156 952.214844 234 "/>
<path style="fill-rule:nonzero;fill:rgb(55%,51%,53%);fill-opacity:1;stroke-width:1;stroke-linecap:butt;stroke-linejoin:miter;stroke:rgb(0%,0%,0%);stroke-opacity:1;stroke-miterlimit:10;" d="M 532.214844 423 C 532.214844 434.714844 522.714844 444.214844 511 444.214844 C 499.285156 444.214844 489.785156 434.714844 489.785156 423 C 489.785156 411.285156 499.285156 401.785156 511 401.785156 C 522.714844 401.785156 532.214844 411.285156 532.214844 423 "/>
<path style="fill-rule:nonzero;fill:rgb(55%,51%,53%);fill-opacity:1;stroke-width:1;stroke-linecap:butt;stroke-linejoin:miter;stroke:rgb(0%,0%,0%);stroke-opacity:1;stroke-miterlimit:10;" d="M 984.214844 103 C 984.214844 114.714844 974.714844 124.214844 963 124.214844 C 951.285156 124.214844 941.785156 114.714844 941.785156 103 C 941.785156 91.285156 951.285156 81.785156 963 81.785156 C 974.714844 81.785156 984.214844 91.285156 984.214844 103 "/>
</g>
</svg>
