<?xml version="1.0" encoding="UTF-8"?>
<svg xmlns="http://www.w3.org/2000/svg" xmlns:xlink="http://www.w3.org/1999/xlink" width="1179pt" height="517pt" viewBox="0 0 1179 517" version="1.1">
<g id="surface611">
<rect x="0" y="0" width="1179" height="517" style="fill:rgb(90%,90%,90%);fill-opacity:1;stroke:none;"/>
<path style="fill-rule:nonzero;fill:rgb(35%,70%,90%);fill-opacity:1;stroke-width:1;stroke-linecap:butt;stroke-linejoin:miter;stroke:rgb(0%,0%,0%);stroke-opacity:1;stroke-miterlimit:10;" d="M 122 290 L 151.664062 290 L 163.664062 261.785156 L 175.664062 290 L 205.332031 290 L 181.332031 307.4375 L 189.417969 338.980469 L 163.664062 321.542969 L 137.914062 338.980469 L 150.214844 307.4375 L 122 290 "/>
<path style="fill-rule:nonzero;fill:rgb(35%,70%,90%);fill-opacity:1;stroke-width:1;stroke-linecap:butt;stroke-linejoin:miter;stroke:rgb(0%,0%,0%);stroke-opacity:1;stroke-miterlimit:10;" d="M 411 357 L 440.664062 357 L 452.664062 328.785156 L 464.664062 357 L 494.332031 357 L 470.332031 374.4375 L 478.417969 405.980469 L 452.664062 388.542969 L 426.914062 405.980469 L 439.214844 374.4375 L 411 357 "/>
<path style="fill-rule:nonzero;fill:rgb(35%,70%,90%);fill-opacity:1;stroke-width:1;stroke-linecap:butt;stroke-linejoin:miter;stroke:rgb(0%,0%,0%);stroke-opacity:1;stroke-miterlimit:10;" d="M 248 283 L 277.664062 283 L 289.664062 254.785156 L 301.664062 283 L 331.332031 283 L 307.332031 300.4375 L 315.417969 331.980469 L 289.664062 314.542969 L 263.914062 331.980469 L 276.214844 300.4375 L 248 283 "/>
<path style="fill-rule:nonzero;fill:rgb(55%,51%,53%);fill-opacity:1;stroke-width:1;stroke-linecap:butt;stroke-linejoin:miter;stroke:rgb(0%,0%,0%);stroke-opacity:1;stroke-miterlimit:10;" d="M 170 373 L 199.664062 373 L 211.664062 344.785156 L 223.664062 373 L 253.332031 373 L 229.332031 390.4375 L 237.417969 421.980469 L 211.664062 404.542969 L 185.914062 421.980469 L 198.214844 390.4375 L 170 373 "/>
<path style="fill-rule:nonzero;fill:rgb(35%,70%,90%);fill-opacity:1;stroke-width:1;stroke-linecap:butt;stroke-linejoin:miter;stroke:rgb(0%,0%,0%);stroke-opacity:1;stroke-miterlimit:10;" d="M 155 109 L 184.664062 109 L 196.664062 80.785156 L 208.664062 109 L 238.332031 109 L 214.332031 126.4375 L 222.417969 157.980469 L 196.664062 140.542969 L 170.914062 157.980469 L 183.214844 126.4375 L 155 109 "/>
<path style="fill-rule:nonzero;fill:rgb(55%,51%,53%);fill-opacity:1;stroke-width:1;stroke-linecap:butt;stroke-linejoin:miter;stroke:rgb(0%,0%,0%);stroke-opacity:1;stroke-miterlimit:10;" d="M 935.785156 130.785156 L 935.785156 173.214844 L 978.214844 173.214844 L 978.214844 130.785156 L 935.785156 130.785156 "/>
<path style="fill-rule:nonzero;fill:rgb(55%,51%,53%);fill-opacity:1;stroke-width:1;stroke-linecap:butt;stroke-linejoin:miter;stroke:rgb(0%,0%,0%);stroke-opacity:1;stroke-miterlimit:10;" d="M 706.785156 265.785156 L 706.785156 308.214844 L 749.214844 308.214844 L 749.214844 265.785156 L 706.785156 265.785156 "/>
<path style="fill-rule:nonzero;fill:rgb(55%,51%,53%);fill-opacity:1;stroke-width:1;stroke-linecap:butt;stroke-linejoin:miter;stroke:rgb(0%,0%,0%);stroke-opacity:1;stroke-miterlimit:10;" d="M 835.785156 347.785156 L 835.785156 390.214844 L 878.214844 390.214844 L 878.214844 347.785156 L 835.785156 347.785156 "/>
</g>
</svg>
