<?xml version="1.0" encoding="UTF-8"?>
<svg xmlns="http://www.w3.org/2000/svg" xmlns:xlink="http://www.w3.org/1999/xlink" width="1179pt" height="517pt" viewBox="0 0 1179 517" version="1.1">
<g id="surface1151">
<rect x="0" y="0" width="1179" height="517" style="fill:rgb(90%,90%,90%);fill-opacity:1;stroke:none;"/>
<path style="fill-rule:nonzero;fill:rgb(55%,51%,53%);fill-opacity:1;stroke-width:1;stroke-linecap:butt;stroke-linejoin:miter;stroke:rgb(0%,0%,0%);stroke-opacity:1;stroke-miterlimit:10;" d="M 1000.214844 379 C 1000.214844 390.714844 990.714844 400.214844 979 400.214844 C 967.285156 400.214844 957.785156 390.714844 957.785156 379 C 957.785156 367.285156 967.285156 357.785156 979 357.785156 C 990.714844 357.785156 1000.214844 367.285156 1000.214844 379 "/>
<path style="fill-rule:nonzero;fill:rgb(55%,51%,53%);fill-opacity:1;stroke-width:1;stroke-linecap:butt;stroke-linejoin:miter;stroke:rgb(0%,0%,0%);stroke-opacity:1;stroke-miterlimit:10;" d="M 280.214844 287 C 280.214844 298.714844 270.714844 308.214844 259 308.214844 C 247.285156 308.214844 237.785156 298.714844 237.785156 287 C 237.785156 275.285156 247.285156 265.785156 259 265.785156 C 270.714844 265.785156 280.214844 275.285156 280.214844 287 "/>
<path style="fill-rule:nonzero;fill:rgb(55%,51%,53%);fill-opacity:1;stroke-width:1;stroke-linecap:butt;stroke-linejoin:miter;stroke:rgb(0%,0%,0%);stroke-opacity:1;stroke-miterlimit:10;" d="M 659.214844 95 C 659.214844 106.714844 649.714844 116.214844 638 116.214844 C 626.285156 116.214844 616.785156 106.714844 616.785156 95 C 616.785156 83.285156 626.285156 73.785156 638 73.785156 C 649.714844 73.785156 659.214844 83.285156 659.214844 95 "/>
<path style="fill-rule:nonzero;fill:rgb(55%,51%,53%);fill-opacity:1;stroke-width:1;stroke-linecap:butt;stroke-linejoin:miter;stroke:rgb(0%,0%,0%);stroke-opacity:1;stroke-miterlimit:10;" d="M 408.214844 218 C 408.214844 229.714844 398.714844 239.214844 387 239.214844 C 375.285156 239.214844 365.785156 229.714844 365.785156 218 C 365.785156 206.285156 375.285156 196.785156 387 196.785156 C 398.714844 196.785156 408.214844 206.285156 408.214844 218 "/>
<path style="fill-rule:nonzero;fill:rgb(35%,70%,90%);fill-opacity:1;stroke-width:1;stroke-linecap:butt;stroke-linejoin:miter;stroke:rgb(0%,0%,0%);stroke-opacity:1;stroke-miterlimit:10;" d="M 690 342 L 664.019531 387 L 715.980469 387 L 690 342 "/>
<path style="fill-rule:nonzero;fill:rgb(35%,70%,90%);fill-opacity:1;stroke-width:1;stroke-linecap:butt;stroke-linejoin:miter;stroke:rgb(0%,0%,0%);stroke-opacity:1;stroke-miterlimit:10;" d="M 248 119 L 222.019531 164 L 273.980469 164 L 248 119 "/>
<path style="fill-rule:nonzero;fill:rgb(35%,70%,90%);fill-opacity:1;stroke-width:1;stroke-linecap:butt;stroke-linejoin:miter;stroke:rgb(0%,0%,0%);stroke-opacity:1;stroke-miterlimit:10;" d="M 774 89 L 748.019531 134 L 799.980469 134 L 774 89 "/>
</g>
</svg>
