<?xml version="1.0" encoding="UTF-8"?>
<svg xmlns="http://www.w3.org/2000/svg" xmlns:xlink="http://www.w3.org/1999/xlink" width="1179pt" height="517pt" viewBox="0 0 1179 517" version="1.1">
<g id="surface886">
<rect x="0" y="0" width="1179" height="517" style="fill:rgb(90%,90%,90%);fill-opacity:1;stroke:none;"/>
<path style="fill-rule:nonzero;fill:rgb(55%,51%,53%);fill-opacity:1;stroke-width:1;stroke-linecap:butt;stroke-linejoin:miter;stroke:rgb(0%,0%,0%);stroke-opacity:1;stroke-miterlimit:10;" d="M 319.214844 194 C 319.214844 205.714844 309.714844 215.214844 298 215.214844 C 286.285156 215.214844 276.785156 205.714844 276.785156 194 C 276.785156 182.285156 286.285156 172.785156 298 172.785156 C 309.714844 172.785156 319.214844 182.285156 319.214844 194 "/>
<path style="fill-rule:nonzero;fill:rgb(67%,100%,18%);fill-opacity:1;stroke-width:1;stroke-linecap:butt;stroke-linejoin:miter;stroke:rgb(0%,0%,0%);stroke-opacity:1;stroke-miterlimit:10;" d="M 215.214844 341 C 215.214844 352.714844 205.714844 362.214844 194 362.214844 C 182.285156 362.214844 172.785156 352.714844 172.785156 341 C 172.785156 329.285156 182.285156 319.785156 194 319.785156 C 205.714844 319.785156 215.214844 329.285156 215.214844 341 "/>
<path style="fill-rule:nonzero;fill:rgb(55%,51%,53%);fill-opacity:1;stroke-width:1;stroke-linecap:butt;stroke-linejoin:miter;stroke:rgb(0%,0%,0%);stroke-opacity:1;stroke-miterlimit:10;" d="M 300.214844 404 C 300.214844 415.714844 290.714844 425.214844 279 425.214844 C 267.285156 425.214844 257.785156 415.714844 257.785156 404 C 257.785156 392.285156 267.285156 382.785156 279 382.785156 C 290.714844 382.785156 300.214844 392.285156 300.214844 404 "/>
<path style="fill-rule:nonzero;fill:rgb(67%,100%,18%);fill-opacity:1;stroke-width:1;stroke-linecap:butt;stroke-linejoin:miter;stroke:rgb(0%,0%,0%);stroke-opacity:1;stroke-miterlimit:10;" d="M 106.214844 88 C 106.214844 99.714844 96.714844 109.214844 85 109.214844 C 73.285156 109.214844 63.785156 99.714844 63.785156 88 C 63.785156 76.285156 73.285156 66.785156 85 66.785156 C 96.714844 66.785156 106.214844 76.285156 106.214844 88 "/>
<path style="fill-rule:nonzero;fill:rgb(55%,51%,53%);fill-opacity:1;stroke-width:1;stroke-linecap:butt;stroke-linejoin:miter;stroke:rgb(0%,0%,0%);stroke-opacity:1;stroke-miterlimit:10;" d="M 123.214844 312 C 123.214844 323.714844 113.714844 333.214844 102 333.214844 C 90.285156 333.214844 80.785156 323.714844 80.785156 312 C 80.785156 300.285156 90.285156 290.785156 102 290.785156 C 113.714844 290.785156 123.214844 300.285156 123.214844 312 "/>
<path style="fill-rule:nonzero;fill:rgb(67%,100%,18%);fill-opacity:1;stroke-width:1;stroke-linecap:butt;stroke-linejoin:miter;stroke:rgb(0%,0%,0%);stroke-opacity:1;stroke-miterlimit:10;" d="M 788 58 L 762.019531 103 L 813.980469 103 L 788 58 "/>
<path style="fill-rule:nonzero;fill:rgb(55%,51%,53%);fill-opacity:1;stroke-width:1;stroke-linecap:butt;stroke-linejoin:miter;stroke:rgb(0%,0%,0%);stroke-opacity:1;stroke-miterlimit:10;" d="M 971 328 L 945.019531 373 L 996.980469 373 L 971 328 "/>
<path style="fill-rule:nonzero;fill:rgb(67%,100%,18%);fill-opacity:1;stroke-width:1;stroke-linecap:butt;stroke-linejoin:miter;stroke:rgb(0%,0%,0%);stroke-opacity:1;stroke-miterlimit:10;" d="M 702 127 L 676.019531 172 L 727.980469 172 L 702 127 "/>
<path style="fill-rule:nonzero;fill:rgb(55%,51%,53%);fill-opacity:1;stroke-width:1;stroke-linecap:butt;stroke-linejoin:miter;stroke:rgb(0%,0%,0%);stroke-opacity:1;stroke-miterlimit:10;" d="M 967 160 L 941.019531 205 L 992.980469 205 L 967 160 "/>
</g>
</svg>
