<?xml version="1.0" encoding="UTF-8"?>
<svg xmlns="http://www.w3.org/2000/svg" xmlns:xlink="http://www.w3.org/1999/xlink" width="1179pt" height="517pt" viewBox="0 0 1179 517" version="1.1">
<g id="surface786">
<rect x="0" y="0" width="1179" height="517" style="fill:rgb(90%,90%,90%);fill-opacity:1;stroke:none;"/>
<path style="fill-rule:nonzero;fill:rgb(100%,51%,0%);fill-opacity:1;stroke-width:1;stroke-linecap:butt;stroke-linejoin:miter;stroke:rgb(0%,0%,0%);stroke-opacity:1;stroke-miterlimit:10;" d="M 996.214844 321 C 996.214844 332.714844 986.714844 342.214844 975 342.214844 C 963.285156 342.214844 953.785156 332.714844 953.785156 321 C 953.785156 309.285156 963.285156 299.785156 975 299.785156 C 986.714844 299.785156 996.214844 309.285156 996.214844 321 "/>
<path style="fill-rule:nonzero;fill:rgb(100%,51%,0%);fill-opacity:1;stroke-width:1;stroke-linecap:butt;stroke-linejoin:miter;stroke:rgb(0%,0%,0%);stroke-opacity:1;stroke-miterlimit:10;" d="M 555.214844 355 C 555.214844 366.714844 545.714844 376.214844 534 376.214844 C 522.285156 376.214844 512.785156 366.714844 512.785156 355 C 512.785156 343.285156 522.285156 333.785156 534 333.785156 C 545.714844 333.785156 555.214844 343.285156 555.214844 355 "/>
<path style="fill-rule:nonzero;fill:rgb(100%,51%,0%);fill-opacity:1;stroke-width:1;stroke-linecap:butt;stroke-linejoin:miter;stroke:rgb(0%,0%,0%);stroke-opacity:1;stroke-miterlimit:10;" d="M 586.214844 135 C 586.214844 146.714844 576.714844 156.214844 565 156.214844 C 553.285156 156.214844 543.785156 146.714844 543.785156 135 C 543.785156 123.285156 553.285156 113.785156 565 113.785156 C 576.714844 113.785156 586.214844 123.285156 586.214844 135 "/>
<path style="fill-rule:nonzero;fill:rgb(35%,70%,90%);fill-opacity:1;stroke-width:1;stroke-linecap:butt;stroke-linejoin:miter;stroke:rgb(0%,0%,0%);stroke-opacity:1;stroke-miterlimit:10;" d="M 976 93 L 1005.664062 93 L 1017.664062 64.785156 L 1029.664062 93 L 1059.332031 93 L 1035.332031 110.4375 L 1043.417969 141.980469 L 1017.664062 124.542969 L 991.914062 141.980469 L 1004.214844 110.4375 L 976 93 "/>
<path style="fill-rule:nonzero;fill:rgb(35%,70%,90%);fill-opacity:1;stroke-width:1;stroke-linecap:butt;stroke-linejoin:miter;stroke:rgb(0%,0%,0%);stroke-opacity:1;stroke-miterlimit:10;" d="M 343 362 L 372.664062 362 L 384.664062 333.785156 L 396.664062 362 L 426.332031 362 L 402.332031 379.4375 L 410.417969 410.980469 L 384.664062 393.542969 L 358.914062 410.980469 L 371.214844 379.4375 L 343 362 "/>
<path style="fill-rule:nonzero;fill:rgb(35%,70%,90%);fill-opacity:1;stroke-width:1;stroke-linecap:butt;stroke-linejoin:miter;stroke:rgb(0%,0%,0%);stroke-opacity:1;stroke-miterlimit:10;" d="M 160 276 L 189.664062 276 L 201.664062 247.785156 L 213.664062 276 L 243.332031 276 L 219.332031 293.4375 L 227.417969 324.980469 L 201.664062 307.542969 L 175.914062 324.980469 L 188.214844 293.4375 L 160 276 "/>
<path style="fill-rule:nonzero;fill:rgb(35%,70%,90%);fill-opacity:1;stroke-width:1;stroke-linecap:butt;stroke-linejoin:miter;stroke:rgb(0%,0%,0%);stroke-opacity:1;stroke-miterlimit:10;" d="M 844 314 L 873.664062 314 L 885.664062 285.785156 L 897.664062 314 L 927.332031 314 L 903.332031 331.4375 L 911.417969 362.980469 L 885.664062 345.542969 L 859.914062 362.980469 L 872.214844 331.4375 L 844 314 "/>
</g>
</svg>
