<?xml version="1.0" encoding="UTF-8"?>
<svg xmlns="http://www.w3.org/2000/svg" xmlns:xlink="http://www.w3.org/1999/xlink" width="1179pt" height="517pt" viewBox="0 0 1179 517" version="1.1">
<g id="surface711">
<rect x="0" y="0" width="1179" height="517" style="fill:rgb(90%,90%,90%);fill-opacity:1;stroke:none;"/>
<path style="fill-rule:nonzero;fill:rgb(55%,51%,53%);fill-opacity:1;stroke-width:1;stroke-linecap:butt;stroke-linejoin:miter;stroke:rgb(0%,0%,0%);stroke-opacity:1;stroke-miterlimit:10;" d="M 337.214844 361 C 337.214844 372.714844 327.714844 382.214844 316 382.214844 C 304.285156 382.214844 294.785156 372.714844 294.785156 361 C 294.785156 349.285156 304.285156 339.785156 316 339.785156 C 327.714844 339.785156 337.214844 349.285156 337.214844 361 "/>
<path style="fill-rule:nonzero;fill:rgb(55%,51%,53%);fill-opacity:1;stroke-width:1;stroke-linecap:butt;stroke-linejoin:miter;stroke:rgb(0%,0%,0%);stroke-opacity:1;stroke-miterlimit:10;" d="M 266.214844 238 C 266.214844 249.714844 256.714844 259.214844 245 259.214844 C 233.285156 259.214844 223.785156 249.714844 223.785156 238 C 223.785156 226.285156 233.285156 216.785156 245 216.785156 C 256.714844 216.785156 266.214844 226.285156 266.214844 238 "/>
<path style="fill-rule:nonzero;fill:rgb(55%,51%,53%);fill-opacity:1;stroke-width:1;stroke-linecap:butt;stroke-linejoin:miter;stroke:rgb(0%,0%,0%);stroke-opacity:1;stroke-miterlimit:10;" d="M 365.785156 160.785156 L 365.785156 203.214844 L 408.214844 203.214844 L 408.214844 160.785156 L 365.785156 160.785156 "/>
<path style="fill-rule:nonzero;fill:rgb(55%,51%,53%);fill-opacity:1;stroke-width:1;stroke-linecap:butt;stroke-linejoin:miter;stroke:rgb(0%,0%,0%);stroke-opacity:1;stroke-miterlimit:10;" d="M 75.785156 265.785156 L 75.785156 308.214844 L 118.214844 308.214844 L 118.214844 265.785156 L 75.785156 265.785156 "/>
<path style="fill-rule:nonzero;fill:rgb(55%,51%,53%);fill-opacity:1;stroke-width:1;stroke-linecap:butt;stroke-linejoin:miter;stroke:rgb(0%,0%,0%);stroke-opacity:1;stroke-miterlimit:10;" d="M 202.214844 101 C 202.214844 112.714844 192.714844 122.214844 181 122.214844 C 169.285156 122.214844 159.785156 112.714844 159.785156 101 C 159.785156 89.285156 169.285156 79.785156 181 79.785156 C 192.714844 79.785156 202.214844 89.285156 202.214844 101 "/>
<path style="fill-rule:nonzero;fill:rgb(53%,27%,7%);fill-opacity:1;stroke-width:1;stroke-linecap:butt;stroke-linejoin:miter;stroke:rgb(0%,0%,0%);stroke-opacity:1;stroke-miterlimit:10;" d="M 883.785156 179.785156 L 883.785156 222.214844 L 926.214844 222.214844 L 926.214844 179.785156 L 883.785156 179.785156 "/>
<path style="fill-rule:nonzero;fill:rgb(53%,27%,7%);fill-opacity:1;stroke-width:1;stroke-linecap:butt;stroke-linejoin:miter;stroke:rgb(0%,0%,0%);stroke-opacity:1;stroke-miterlimit:10;" d="M 744.785156 113.785156 L 744.785156 156.214844 L 787.214844 156.214844 L 787.214844 113.785156 L 744.785156 113.785156 "/>
<path style="fill-rule:nonzero;fill:rgb(53%,27%,7%);fill-opacity:1;stroke-width:1;stroke-linecap:butt;stroke-linejoin:miter;stroke:rgb(0%,0%,0%);stroke-opacity:1;stroke-miterlimit:10;" d="M 890.214844 372 C 890.214844 383.714844 880.714844 393.214844 869 393.214844 C 857.285156 393.214844 847.785156 383.714844 847.785156 372 C 847.785156 360.285156 857.285156 350.785156 869 350.785156 C 880.714844 350.785156 890.214844 360.285156 890.214844 372 "/>
<path style="fill-rule:nonzero;fill:rgb(53%,27%,7%);fill-opacity:1;stroke-width:1;stroke-linecap:butt;stroke-linejoin:miter;stroke:rgb(0%,0%,0%);stroke-opacity:1;stroke-miterlimit:10;" d="M 977.214844 295 C 977.214844 306.714844 967.714844 316.214844 956 316.214844 C 944.285156 316.214844 934.785156 306.714844 934.785156 295 C 934.785156 283.285156 944.285156 273.785156 956 273.785156 C 967.714844 273.785156 977.214844 283.285156 977.214844 295 "/>
</g>
</svg>
