<?xml version="1.0" encoding="UTF-8"?>
<svg xmlns="http://www.w3.org/2000/svg" xmlns:xlink="http://www.w3.org/1999/xlink" width="1179pt" height="517pt" viewBox="0 0 1179 517" version="1.1">
<g id="surface546">
<rect x="0" y="0" width="1179" height="517" style="fill:rgb(90%,90%,90%);fill-opacity:1;stroke:none;"/>
<path style="fill-rule:nonzero;fill:rgb(35%,70%,90%);fill-opacity:1;stroke-width:1;stroke-linecap:butt;stroke-linejoin:miter;stroke:rgb(0%,0%,0%);stroke-opacity:1;stroke-miterlimit:10;" d="M 493 232 L 522.664062 232 L 534.664062 203.785156 L 546.664062 232 L 576.332031 232 L 552.332031 249.4375 L 560.417969 280.980469 L 534.664062 263.542969 L 508.914062 280.980469 L 521.214844 249.4375 L 493 232 "/>
<path style="fill-rule:nonzero;fill:rgb(35%,70%,90%);fill-opacity:1;stroke-width:1;stroke-linecap:butt;stroke-linejoin:miter;stroke:rgb(0%,0%,0%);stroke-opacity:1;stroke-miterlimit:10;" d="M 914 377 L 943.664062 377 L 955.664062 348.785156 L 967.664062 377 L 997.332031 377 L 973.332031 394.4375 L 981.417969 425.980469 L 955.664062 408.542969 L 929.914062 425.980469 L 942.214844 394.4375 L 914 377 "/>
<path style="fill-rule:nonzero;fill:rgb(35%,70%,90%);fill-opacity:1;stroke-width:1;stroke-linecap:butt;stroke-linejoin:miter;stroke:rgb(0%,0%,0%);stroke-opacity:1;stroke-miterlimit:10;" d="M 262 347 L 291.664062 347 L 303.664062 318.785156 L 315.664062 347 L 345.332031 347 L 321.332031 364.4375 L 329.417969 395.980469 L 303.664062 378.542969 L 277.914062 395.980469 L 290.214844 364.4375 L 262 347 "/>
<path style="fill-rule:nonzero;fill:rgb(35%,70%,90%);fill-opacity:1;stroke-width:1;stroke-linecap:butt;stroke-linejoin:miter;stroke:rgb(0%,0%,0%);stroke-opacity:1;stroke-miterlimit:10;" d="M 750 169 L 779.664062 169 L 791.664062 140.785156 L 803.664062 169 L 833.332031 169 L 809.332031 186.4375 L 817.417969 217.980469 L 791.664062 200.542969 L 765.914062 217.980469 L 778.214844 186.4375 L 750 169 "/>
<path style="fill-rule:nonzero;fill:rgb(100%,51%,0%);fill-opacity:1;stroke-width:1;stroke-linecap:butt;stroke-linejoin:miter;stroke:rgb(0%,0%,0%);stroke-opacity:1;stroke-miterlimit:10;" d="M 774 320 L 748.019531 365 L 799.980469 365 L 774 320 "/>
<path style="fill-rule:nonzero;fill:rgb(100%,51%,0%);fill-opacity:1;stroke-width:1;stroke-linecap:butt;stroke-linejoin:miter;stroke:rgb(0%,0%,0%);stroke-opacity:1;stroke-miterlimit:10;" d="M 284 90 L 258.019531 135 L 309.980469 135 L 284 90 "/>
<path style="fill-rule:nonzero;fill:rgb(100%,51%,0%);fill-opacity:1;stroke-width:1;stroke-linecap:butt;stroke-linejoin:miter;stroke:rgb(0%,0%,0%);stroke-opacity:1;stroke-miterlimit:10;" d="M 566 323 L 540.019531 368 L 591.980469 368 L 566 323 "/>
</g>
</svg>
