<?xml version="1.0" encoding="UTF-8"?>
<svg xmlns="http://www.w3.org/2000/svg" xmlns:xlink="http://www.w3.org/1999/xlink" width="1179pt" height="517pt" viewBox="0 0 1179 517" version="1.1">
<g id="surface46">
<rect x="0" y="0" width="1179" height="517" style="fill:rgb(90%,90%,90%);fill-opacity:1;stroke:none;"/>
<path style="fill-rule:nonzero;fill:rgb(35%,70%,90%);fill-opacity:1;stroke-width:1;stroke-linecap:butt;stroke-linejoin:miter;stroke:rgb(0%,0%,0%);stroke-opacity:1;stroke-miterlimit:10;" d="M 422.214844 110 C 422.214844 121.714844 412.714844 131.214844 401 131.214844 C 389.285156 131.214844 379.785156 121.714844 379.785156 110 C 379.785156 98.285156 389.285156 88.785156 401 88.785156 C 412.714844 88.785156 422.214844 98.285156 422.214844 110 "/>
<path style="fill-rule:nonzero;fill:rgb(35%,70%,90%);fill-opacity:1;stroke-width:1;stroke-linecap:butt;stroke-linejoin:miter;stroke:rgb(0%,0%,0%);stroke-opacity:1;stroke-miterlimit:10;" d="M 298 159 L 272.019531 204 L 323.980469 204 L 298 159 "/>
<path style="fill-rule:nonzero;fill:rgb(35%,70%,90%);fill-opacity:1;stroke-width:1;stroke-linecap:butt;stroke-linejoin:miter;stroke:rgb(0%,0%,0%);stroke-opacity:1;stroke-miterlimit:10;" d="M 179.214844 398 C 179.214844 409.714844 169.714844 419.214844 158 419.214844 C 146.285156 419.214844 136.785156 409.714844 136.785156 398 C 136.785156 386.285156 146.285156 376.785156 158 376.785156 C 169.714844 376.785156 179.214844 386.285156 179.214844 398 "/>
<path style="fill-rule:nonzero;fill:rgb(35%,70%,90%);fill-opacity:1;stroke-width:1;stroke-linecap:butt;stroke-linejoin:miter;stroke:rgb(0%,0%,0%);stroke-opacity:1;stroke-miterlimit:10;" d="M 407.214844 417 C 407.214844 428.714844 397.714844 438.214844 386 438.214844 C 374.285156 438.214844 364.785156 428.714844 364.785156 417 C 364.785156 405.285156 374.285156 395.785156 386 395.785156 C 397.714844 395.785156 407.214844 405.285156 407.214844 417 "/>
<path style="fill-rule:nonzero;fill:rgb(35%,70%,90%);fill-opacity:1;stroke-width:1;stroke-linecap:butt;stroke-linejoin:miter;stroke:rgb(0%,0%,0%);stroke-opacity:1;stroke-miterlimit:10;" d="M 358.214844 283 C 358.214844 294.714844 348.714844 304.214844 337 304.214844 C 325.285156 304.214844 315.785156 294.714844 315.785156 283 C 315.785156 271.285156 325.285156 261.785156 337 261.785156 C 348.714844 261.785156 358.214844 271.285156 358.214844 283 "/>
<path style="fill-rule:nonzero;fill:rgb(35%,70%,90%);fill-opacity:1;stroke-width:1;stroke-linecap:butt;stroke-linejoin:miter;stroke:rgb(0%,0%,0%);stroke-opacity:1;stroke-miterlimit:10;" d="M 430.214844 216 C 430.214844 227.714844 420.714844 237.214844 409 237.214844 C 397.285156 237.214844 387.785156 227.714844 387.785156 216 C 387.785156 204.285156 397.285156 194.785156 409 194.785156 C 420.714844 194.785156 430.214844 204.285156 430.214844 216 "/>
<path style="fill-rule:nonzero;fill:rgb(35%,70%,90%);fill-opacity:1;stroke-width:1;stroke-linecap:butt;stroke-linejoin:miter;stroke:rgb(0%,0%,0%);stroke-opacity:1;stroke-miterlimit:10;" d="M 311.214844 403 C 311.214844 414.714844 301.714844 424.214844 290 424.214844 C 278.285156 424.214844 268.785156 414.714844 268.785156 403 C 268.785156 391.285156 278.285156 381.785156 290 381.785156 C 301.714844 381.785156 311.214844 391.285156 311.214844 403 "/>
<path style="fill-rule:nonzero;fill:rgb(35%,70%,90%);fill-opacity:1;stroke-width:1;stroke-linecap:butt;stroke-linejoin:miter;stroke:rgb(0%,0%,0%);stroke-opacity:1;stroke-miterlimit:10;" d="M 151.214844 269 C 151.214844 280.714844 141.714844 290.214844 130 290.214844 C 118.285156 290.214844 108.785156 280.714844 108.785156 269 C 108.785156 257.285156 118.285156 247.785156 130 247.785156 C 141.714844 247.785156 151.214844 257.285156 151.214844 269 "/>
<path style="fill-rule:nonzero;fill:rgb(53%,27%,7%);fill-opacity:1;stroke-width:1;stroke-linecap:butt;stroke-linejoin:miter;stroke:rgb(0%,0%,0%);stroke-opacity:1;stroke-miterlimit:10;" d="M 1019 114 L 993.019531 159 L 1044.980469 159 L 1019 114 "/>
<path style="fill-rule:nonzero;fill:rgb(53%,27%,7%);fill-opacity:1;stroke-width:1;stroke-linecap:butt;stroke-linejoin:miter;stroke:rgb(0%,0%,0%);stroke-opacity:1;stroke-miterlimit:10;" d="M 779.214844 223 C 779.214844 234.714844 769.714844 244.214844 758 244.214844 C 746.285156 244.214844 736.785156 234.714844 736.785156 223 C 736.785156 211.285156 746.285156 201.785156 758 201.785156 C 769.714844 201.785156 779.214844 211.285156 779.214844 223 "/>
<path style="fill-rule:nonzero;fill:rgb(53%,27%,7%);fill-opacity:1;stroke-width:1;stroke-linecap:butt;stroke-linejoin:miter;stroke:rgb(0%,0%,0%);stroke-opacity:1;stroke-miterlimit:10;" d="M 753 376 L 727.019531 421 L 778.980469 421 L 753 376 "/>
<path style="fill-rule:nonzero;fill:rgb(53%,27%,7%);fill-opacity:1;stroke-width:1;stroke-linecap:butt;stroke-linejoin:miter;stroke:rgb(0%,0%,0%);stroke-opacity:1;stroke-miterlimit:10;" d="M 855 341 L 829.019531 386 L 880.980469 386 L 855 341 "/>
<path style="fill-rule:nonzero;fill:rgb(53%,27%,7%);fill-opacity:1;stroke-width:1;stroke-linecap:butt;stroke-linejoin:miter;stroke:rgb(0%,0%,0%);stroke-opacity:1;stroke-miterlimit:10;" d="M 899 254 L 873.019531 299 L 924.980469 299 L 899 254 "/>
<path style="fill-rule:nonzero;fill:rgb(53%,27%,7%);fill-opacity:1;stroke-width:1;stroke-linecap:butt;stroke-linejoin:miter;stroke:rgb(0%,0%,0%);stroke-opacity:1;stroke-miterlimit:10;" d="M 838 51 L 812.019531 96 L 863.980469 96 L 838 51 "/>
<path style="fill-rule:nonzero;fill:rgb(53%,27%,7%);fill-opacity:1;stroke-width:1;stroke-linecap:butt;stroke-linejoin:miter;stroke:rgb(0%,0%,0%);stroke-opacity:1;stroke-miterlimit:10;" d="M 993 306 L 967.019531 351 L 1018.980469 351 L 993 306 "/>
</g>
</svg>
