<?xml version="1.0" encoding="UTF-8"?>
<svg xmlns="http://www.w3.org/2000/svg" xmlns:xlink="http://www.w3.org/1999/xlink" width="1179pt" height="517pt" viewBox="0 0 1179 517" version="1.1">
<g id="surface496">
<rect x="0" y="0" width="1179" height="517" style="fill:rgb(90%,90%,90%);fill-opacity:1;stroke:none;"/>
<path style="fill-rule:nonzero;fill:rgb(100%,51%,0%);fill-opacity:1;stroke-width:1;stroke-linecap:butt;stroke-linejoin:miter;stroke:rgb(0%,0%,0%);stroke-opacity:1;stroke-miterlimit:10;" d="M 428.214844 363 C 428.214844 374.714844 418.714844 384.214844 407 384.214844 C 395.285156 384.214844 385.785156 374.714844 385.785156 363 C 385.785156 351.285156 395.285156 341.785156 407 341.785156 C 418.714844 341.785156 428.214844 351.285156 428.214844 363 "/>
<path style="fill-rule:nonzero;fill:rgb(100%,51%,0%);fill-opacity:1;stroke-width:1;stroke-linecap:butt;stroke-linejoin:miter;stroke:rgb(0%,0%,0%);stroke-opacity:1;stroke-miterlimit:10;" d="M 215 184 L 189.019531 229 L 240.980469 229 L 215 184 "/>
<path style="fill-rule:nonzero;fill:rgb(100%,51%,0%);fill-opacity:1;stroke-width:1;stroke-linecap:butt;stroke-linejoin:miter;stroke:rgb(0%,0%,0%);stroke-opacity:1;stroke-miterlimit:10;" d="M 326.214844 351 C 326.214844 362.714844 316.714844 372.214844 305 372.214844 C 293.285156 372.214844 283.785156 362.714844 283.785156 351 C 283.785156 339.285156 293.285156 329.785156 305 329.785156 C 316.714844 329.785156 326.214844 339.285156 326.214844 351 "/>
<path style="fill-rule:nonzero;fill:rgb(100%,51%,0%);fill-opacity:1;stroke-width:1;stroke-linecap:butt;stroke-linejoin:miter;stroke:rgb(0%,0%,0%);stroke-opacity:1;stroke-miterlimit:10;" d="M 85 390 L 59.019531 435 L 110.980469 435 L 85 390 "/>
<path style="fill-rule:nonzero;fill:rgb(100%,51%,0%);fill-opacity:1;stroke-width:1;stroke-linecap:butt;stroke-linejoin:miter;stroke:rgb(0%,0%,0%);stroke-opacity:1;stroke-miterlimit:10;" d="M 131.214844 289 C 131.214844 300.714844 121.714844 310.214844 110 310.214844 C 98.285156 310.214844 88.785156 300.714844 88.785156 289 C 88.785156 277.285156 98.285156 267.785156 110 267.785156 C 121.714844 267.785156 131.214844 277.285156 131.214844 289 "/>
<path style="fill-rule:nonzero;fill:rgb(55%,51%,53%);fill-opacity:1;stroke-width:1;stroke-linecap:butt;stroke-linejoin:miter;stroke:rgb(0%,0%,0%);stroke-opacity:1;stroke-miterlimit:10;" d="M 702 326 L 676.019531 371 L 727.980469 371 L 702 326 "/>
<path style="fill-rule:nonzero;fill:rgb(55%,51%,53%);fill-opacity:1;stroke-width:1;stroke-linecap:butt;stroke-linejoin:miter;stroke:rgb(0%,0%,0%);stroke-opacity:1;stroke-miterlimit:10;" d="M 859.214844 163 C 859.214844 174.714844 849.714844 184.214844 838 184.214844 C 826.285156 184.214844 816.785156 174.714844 816.785156 163 C 816.785156 151.285156 826.285156 141.785156 838 141.785156 C 849.714844 141.785156 859.214844 151.285156 859.214844 163 "/>
<path style="fill-rule:nonzero;fill:rgb(55%,51%,53%);fill-opacity:1;stroke-width:1;stroke-linecap:butt;stroke-linejoin:miter;stroke:rgb(0%,0%,0%);stroke-opacity:1;stroke-miterlimit:10;" d="M 948 128 L 922.019531 173 L 973.980469 173 L 948 128 "/>
<path style="fill-rule:nonzero;fill:rgb(55%,51%,53%);fill-opacity:1;stroke-width:1;stroke-linecap:butt;stroke-linejoin:miter;stroke:rgb(0%,0%,0%);stroke-opacity:1;stroke-miterlimit:10;" d="M 1039.214844 92 C 1039.214844 103.714844 1029.714844 113.214844 1018 113.214844 C 1006.285156 113.214844 996.785156 103.714844 996.785156 92 C 996.785156 80.285156 1006.285156 70.785156 1018 70.785156 C 1029.714844 70.785156 1039.214844 80.285156 1039.214844 92 "/>
</g>
</svg>
