<?xml version="1.0" encoding="UTF-8"?>
<svg xmlns="http://www.w3.org/2000/svg" xmlns:xlink="http://www.w3.org/1999/xlink" width="1179pt" height="517pt" viewBox="0 0 1179 517" version="1.1">
<g id="surface931">
<rect x="0" y="0" width="1179" height="517" style="fill:rgb(90%,90%,90%);fill-opacity:1;stroke:none;"/>
<path style="fill-rule:nonzero;fill:rgb(55%,51%,53%);fill-opacity:1;stroke-width:1;stroke-linecap:butt;stroke-linejoin:miter;stroke:rgb(0%,0%,0%);stroke-opacity:1;stroke-miterlimit:10;" d="M 338.214844 386 C 338.214844 397.714844 328.714844 407.214844 317 407.214844 C 305.285156 407.214844 295.785156 397.714844 295.785156 386 C 295.785156 374.285156 305.285156 364.785156 317 364.785156 C 328.714844 364.785156 338.214844 374.285156 338.214844 386 "/>
<path style="fill-rule:nonzero;fill:rgb(55%,51%,53%);fill-opacity:1;stroke-width:1;stroke-linecap:butt;stroke-linejoin:miter;stroke:rgb(0%,0%,0%);stroke-opacity:1;stroke-miterlimit:10;" d="M 216.214844 254 C 216.214844 265.714844 206.714844 275.214844 195 275.214844 C 183.285156 275.214844 173.785156 265.714844 173.785156 254 C 173.785156 242.285156 183.285156 232.785156 195 232.785156 C 206.714844 232.785156 216.214844 242.285156 216.214844 254 "/>
<path style="fill-rule:nonzero;fill:rgb(55%,51%,53%);fill-opacity:1;stroke-width:1;stroke-linecap:butt;stroke-linejoin:miter;stroke:rgb(0%,0%,0%);stroke-opacity:1;stroke-miterlimit:10;" d="M 123.214844 399 C 123.214844 410.714844 113.714844 420.214844 102 420.214844 C 90.285156 420.214844 80.785156 410.714844 80.785156 399 C 80.785156 387.285156 90.285156 377.785156 102 377.785156 C 113.714844 377.785156 123.214844 387.285156 123.214844 399 "/>
<path style="fill-rule:nonzero;fill:rgb(67%,100%,18%);fill-opacity:1;stroke-width:1;stroke-linecap:butt;stroke-linejoin:miter;stroke:rgb(0%,0%,0%);stroke-opacity:1;stroke-miterlimit:10;" d="M 380.214844 154 C 380.214844 165.714844 370.714844 175.214844 359 175.214844 C 347.285156 175.214844 337.785156 165.714844 337.785156 154 C 337.785156 142.285156 347.285156 132.785156 359 132.785156 C 370.714844 132.785156 380.214844 142.285156 380.214844 154 "/>
<path style="fill-rule:nonzero;fill:rgb(67%,100%,18%);fill-opacity:1;stroke-width:1;stroke-linecap:butt;stroke-linejoin:miter;stroke:rgb(0%,0%,0%);stroke-opacity:1;stroke-miterlimit:10;" d="M 815 88 L 789.019531 133 L 840.980469 133 L 815 88 "/>
<path style="fill-rule:nonzero;fill:rgb(67%,100%,18%);fill-opacity:1;stroke-width:1;stroke-linecap:butt;stroke-linejoin:miter;stroke:rgb(0%,0%,0%);stroke-opacity:1;stroke-miterlimit:10;" d="M 1044 329 L 1018.019531 374 L 1069.980469 374 L 1044 329 "/>
<path style="fill-rule:nonzero;fill:rgb(67%,100%,18%);fill-opacity:1;stroke-width:1;stroke-linecap:butt;stroke-linejoin:miter;stroke:rgb(0%,0%,0%);stroke-opacity:1;stroke-miterlimit:10;" d="M 782 310 L 756.019531 355 L 807.980469 355 L 782 310 "/>
</g>
</svg>
