<?xml version="1.0" encoding="UTF-8"?>
<svg xmlns="http://www.w3.org/2000/svg" xmlns:xlink="http://www.w3.org/1999/xlink" width="1179pt" height="517pt" viewBox="0 0 1179 517" version="1.1">
<g id="surface381">
<rect x="0" y="0" width="1179" height="517" style="fill:rgb(90%,90%,90%);fill-opacity:1;stroke:none;"/>
<path style="fill-rule:nonzero;fill:rgb(35%,70%,90%);fill-opacity:1;stroke-width:1;stroke-linecap:butt;stroke-linejoin:miter;stroke:rgb(0%,0%,0%);stroke-opacity:1;stroke-miterlimit:10;" d="M 221.214844 85 C 221.214844 96.714844 211.714844 106.214844 200 106.214844 C 188.285156 106.214844 178.785156 96.714844 178.785156 85 C 178.785156 73.285156 188.285156 63.785156 200 63.785156 C 211.714844 63.785156 221.214844 73.285156 221.214844 85 "/>
<path style="fill-rule:nonzero;fill:rgb(35%,70%,90%);fill-opacity:1;stroke-width:1;stroke-linecap:butt;stroke-linejoin:miter;stroke:rgb(0%,0%,0%);stroke-opacity:1;stroke-miterlimit:10;" d="M 258.214844 177 C 258.214844 188.714844 248.714844 198.214844 237 198.214844 C 225.285156 198.214844 215.785156 188.714844 215.785156 177 C 215.785156 165.285156 225.285156 155.785156 237 155.785156 C 248.714844 155.785156 258.214844 165.285156 258.214844 177 "/>
<path style="fill-rule:nonzero;fill:rgb(35%,70%,90%);fill-opacity:1;stroke-width:1;stroke-linecap:butt;stroke-linejoin:miter;stroke:rgb(0%,0%,0%);stroke-opacity:1;stroke-miterlimit:10;" d="M 133.214844 330 C 133.214844 341.714844 123.714844 351.214844 112 351.214844 C 100.285156 351.214844 90.785156 341.714844 90.785156 330 C 90.785156 318.285156 100.285156 308.785156 112 308.785156 C 123.714844 308.785156 133.214844 318.285156 133.214844 330 "/>
<path style="fill-rule:nonzero;fill:rgb(100%,51%,0%);fill-opacity:1;stroke-width:1;stroke-linecap:butt;stroke-linejoin:miter;stroke:rgb(0%,0%,0%);stroke-opacity:1;stroke-miterlimit:10;" d="M 376.214844 220 C 376.214844 231.714844 366.714844 241.214844 355 241.214844 C 343.285156 241.214844 333.785156 231.714844 333.785156 220 C 333.785156 208.285156 343.285156 198.785156 355 198.785156 C 366.714844 198.785156 376.214844 208.285156 376.214844 220 "/>
<path style="fill-rule:nonzero;fill:rgb(35%,70%,90%);fill-opacity:1;stroke-width:1;stroke-linecap:butt;stroke-linejoin:miter;stroke:rgb(0%,0%,0%);stroke-opacity:1;stroke-miterlimit:10;" d="M 145.214844 224 C 145.214844 235.714844 135.714844 245.214844 124 245.214844 C 112.285156 245.214844 102.785156 235.714844 102.785156 224 C 102.785156 212.285156 112.285156 202.785156 124 202.785156 C 135.714844 202.785156 145.214844 212.285156 145.214844 224 "/>
<path style="fill-rule:nonzero;fill:rgb(100%,51%,0%);fill-opacity:1;stroke-width:1;stroke-linecap:butt;stroke-linejoin:miter;stroke:rgb(0%,0%,0%);stroke-opacity:1;stroke-miterlimit:10;" d="M 675.785156 82.785156 L 675.785156 125.214844 L 718.214844 125.214844 L 718.214844 82.785156 L 675.785156 82.785156 "/>
<path style="fill-rule:nonzero;fill:rgb(100%,51%,0%);fill-opacity:1;stroke-width:1;stroke-linecap:butt;stroke-linejoin:miter;stroke:rgb(0%,0%,0%);stroke-opacity:1;stroke-miterlimit:10;" d="M 975.785156 298.785156 L 975.785156 341.214844 L 1018.214844 341.214844 L 1018.214844 298.785156 L 975.785156 298.785156 "/>
<path style="fill-rule:nonzero;fill:rgb(100%,51%,0%);fill-opacity:1;stroke-width:1;stroke-linecap:butt;stroke-linejoin:miter;stroke:rgb(0%,0%,0%);stroke-opacity:1;stroke-miterlimit:10;" d="M 870.785156 102.785156 L 870.785156 145.214844 L 913.214844 145.214844 L 913.214844 102.785156 L 870.785156 102.785156 "/>
<path style="fill-rule:nonzero;fill:rgb(35%,70%,90%);fill-opacity:1;stroke-width:1;stroke-linecap:butt;stroke-linejoin:miter;stroke:rgb(0%,0%,0%);stroke-opacity:1;stroke-miterlimit:10;" d="M 677.785156 287.785156 L 677.785156 330.214844 L 720.214844 330.214844 L 720.214844 287.785156 L 677.785156 287.785156 "/>
</g>
</svg>
