<?xml version="1.0" encoding="UTF-8"?>
<svg xmlns="http://www.w3.org/2000/svg" xmlns:xlink="http://www.w3.org/1999/xlink" width="1179pt" height="517pt" viewBox="0 0 1179 517" version="1.1">
<g id="surface1486">
<rect x="0" y="0" width="1179" height="517" style="fill:rgb(90%,90%,90%);fill-opacity:1;stroke:none;"/>
<path style="fill-rule:nonzero;fill:rgb(35%,70%,90%);fill-opacity:1;stroke-width:1;stroke-linecap:butt;stroke-linejoin:miter;stroke:rgb(0%,0%,0%);stroke-opacity:1;stroke-miterlimit:10;" d="M 155 356.601562 C 155 342.199219 131 342.199219 131 356.601562 C 131 371 155 373.398438 155 385.398438 C 155 373.398438 179 371 179 356.601562 C 179 342.199219 155 342.199219 155 356.601562 "/>
<path style="fill-rule:nonzero;fill:rgb(35%,70%,90%);fill-opacity:1;stroke-width:1;stroke-linecap:butt;stroke-linejoin:miter;stroke:rgb(0%,0%,0%);stroke-opacity:1;stroke-miterlimit:10;" d="M 646 174.601562 C 646 160.199219 622 160.199219 622 174.601562 C 622 189 646 191.398438 646 203.398438 C 646 191.398438 670 189 670 174.601562 C 670 160.199219 646 160.199219 646 174.601562 "/>
<path style="fill-rule:nonzero;fill:rgb(35%,70%,90%);fill-opacity:1;stroke-width:1;stroke-linecap:butt;stroke-linejoin:miter;stroke:rgb(0%,0%,0%);stroke-opacity:1;stroke-miterlimit:10;" d="M 996 299.601562 C 996 285.199219 972 285.199219 972 299.601562 C 972 314 996 316.398438 996 328.398438 C 996 316.398438 1020 314 1020 299.601562 C 1020 285.199219 996 285.199219 996 299.601562 "/>
<path style="fill-rule:nonzero;fill:rgb(35%,70%,90%);fill-opacity:1;stroke-width:1;stroke-linecap:butt;stroke-linejoin:miter;stroke:rgb(0%,0%,0%);stroke-opacity:1;stroke-miterlimit:10;" d="M 147 81.601562 C 147 67.199219 123 67.199219 123 81.601562 C 123 96 147 98.398438 147 110.398438 C 147 98.398438 171 96 171 81.601562 C 171 67.199219 147 67.199219 147 81.601562 "/>
<path style="fill-rule:nonzero;fill:rgb(35%,70%,90%);fill-opacity:1;stroke-width:1;stroke-linecap:butt;stroke-linejoin:miter;stroke:rgb(0%,0%,0%);stroke-opacity:1;stroke-miterlimit:10;" d="M 852 209.601562 C 852 195.199219 828 195.199219 828 209.601562 C 828 224 852 226.398438 852 238.398438 C 852 226.398438 876 224 876 209.601562 C 876 195.199219 852 195.199219 852 209.601562 "/>
<path style="fill-rule:nonzero;fill:rgb(53%,27%,7%);fill-opacity:1;stroke-width:1;stroke-linecap:butt;stroke-linejoin:miter;stroke:rgb(0%,0%,0%);stroke-opacity:1;stroke-miterlimit:10;" d="M 757.214844 271 C 757.214844 282.714844 747.714844 292.214844 736 292.214844 C 724.285156 292.214844 714.785156 282.714844 714.785156 271 C 714.785156 259.285156 724.285156 249.785156 736 249.785156 C 747.714844 249.785156 757.214844 259.285156 757.214844 271 "/>
<path style="fill-rule:nonzero;fill:rgb(53%,27%,7%);fill-opacity:1;stroke-width:1;stroke-linecap:butt;stroke-linejoin:miter;stroke:rgb(0%,0%,0%);stroke-opacity:1;stroke-miterlimit:10;" d="M 361.214844 415 C 361.214844 426.714844 351.714844 436.214844 340 436.214844 C 328.285156 436.214844 318.785156 426.714844 318.785156 415 C 318.785156 403.285156 328.285156 393.785156 340 393.785156 C 351.714844 393.785156 361.214844 403.285156 361.214844 415 "/>
<path style="fill-rule:nonzero;fill:rgb(53%,27%,7%);fill-opacity:1;stroke-width:1;stroke-linecap:butt;stroke-linejoin:miter;stroke:rgb(0%,0%,0%);stroke-opacity:1;stroke-miterlimit:10;" d="M 328.214844 96 C 328.214844 107.714844 318.714844 117.214844 307 117.214844 C 295.285156 117.214844 285.785156 107.714844 285.785156 96 C 285.785156 84.285156 295.285156 74.785156 307 74.785156 C 318.714844 74.785156 328.214844 84.285156 328.214844 96 "/>
</g>
</svg>
