<?xml version="1.0" encoding="UTF-8"?>
<svg xmlns="http://www.w3.org/2000/svg" xmlns:xlink="http://www.w3.org/1999/xlink" width="1179pt" height="517pt" viewBox="0 0 1179 517" version="1.1">
<g id="surface456">
<rect x="0" y="0" width="1179" height="517" style="fill:rgb(90%,90%,90%);fill-opacity:1;stroke:none;"/>
<path style="fill-rule:nonzero;fill:rgb(100%,51%,0%);fill-opacity:1;stroke-width:1;stroke-linecap:butt;stroke-linejoin:miter;stroke:rgb(0%,0%,0%);stroke-opacity:1;stroke-miterlimit:10;" d="M 1029 297 L 1058.664062 297 L 1070.664062 268.785156 L 1082.664062 297 L 1112.332031 297 L 1088.332031 314.4375 L 1096.417969 345.980469 L 1070.664062 328.542969 L 1044.914062 345.980469 L 1057.214844 314.4375 L 1029 297 "/>
<path style="fill-rule:nonzero;fill:rgb(100%,51%,0%);fill-opacity:1;stroke-width:1;stroke-linecap:butt;stroke-linejoin:miter;stroke:rgb(0%,0%,0%);stroke-opacity:1;stroke-miterlimit:10;" d="M 974 190 L 1003.664062 190 L 1015.664062 161.785156 L 1027.664062 190 L 1057.332031 190 L 1033.332031 207.4375 L 1041.417969 238.980469 L 1015.664062 221.542969 L 989.914062 238.980469 L 1002.214844 207.4375 L 974 190 "/>
<path style="fill-rule:nonzero;fill:rgb(100%,51%,0%);fill-opacity:1;stroke-width:1;stroke-linecap:butt;stroke-linejoin:miter;stroke:rgb(0%,0%,0%);stroke-opacity:1;stroke-miterlimit:10;" d="M 402 416 L 431.664062 416 L 443.664062 387.785156 L 455.664062 416 L 485.332031 416 L 461.332031 433.4375 L 469.417969 464.980469 L 443.664062 447.542969 L 417.914062 464.980469 L 430.214844 433.4375 L 402 416 "/>
<path style="fill-rule:nonzero;fill:rgb(100%,51%,0%);fill-opacity:1;stroke-width:1;stroke-linecap:butt;stroke-linejoin:miter;stroke:rgb(0%,0%,0%);stroke-opacity:1;stroke-miterlimit:10;" d="M 123 244 L 152.664062 244 L 164.664062 215.785156 L 176.664062 244 L 206.332031 244 L 182.332031 261.4375 L 190.417969 292.980469 L 164.664062 275.542969 L 138.914062 292.980469 L 151.214844 261.4375 L 123 244 "/>
<path style="fill-rule:nonzero;fill:rgb(53%,27%,7%);fill-opacity:1;stroke-width:1;stroke-linecap:butt;stroke-linejoin:miter;stroke:rgb(0%,0%,0%);stroke-opacity:1;stroke-miterlimit:10;" d="M 565 170 L 539.019531 215 L 590.980469 215 L 565 170 "/>
<path style="fill-rule:nonzero;fill:rgb(53%,27%,7%);fill-opacity:1;stroke-width:1;stroke-linecap:butt;stroke-linejoin:miter;stroke:rgb(0%,0%,0%);stroke-opacity:1;stroke-miterlimit:10;" d="M 820 336 L 794.019531 381 L 845.980469 381 L 820 336 "/>
<path style="fill-rule:nonzero;fill:rgb(53%,27%,7%);fill-opacity:1;stroke-width:1;stroke-linecap:butt;stroke-linejoin:miter;stroke:rgb(0%,0%,0%);stroke-opacity:1;stroke-miterlimit:10;" d="M 325 176 L 299.019531 221 L 350.980469 221 L 325 176 "/>
</g>
</svg>
