<?xml version="1.0" encoding="UTF-8"?>
<svg xmlns="http://www.w3.org/2000/svg" xmlns:xlink="http://www.w3.org/1999/xlink" width="1179pt" height="517pt" viewBox="0 0 1179 517" version="1.1">
<g id="surface976">
<rect x="0" y="0" width="1179" height="517" style="fill:rgb(90%,90%,90%);fill-opacity:1;stroke:none;"/>
<path style="fill-rule:nonzero;fill:rgb(35%,70%,90%);fill-opacity:1;stroke-width:1;stroke-linecap:butt;stroke-linejoin:miter;stroke:rgb(0%,0%,0%);stroke-opacity:1;stroke-miterlimit:10;" d="M 373.214844 193 C 373.214844 204.714844 363.714844 214.214844 352 214.214844 C 340.285156 214.214844 330.785156 204.714844 330.785156 193 C 330.785156 181.285156 340.285156 171.785156 352 171.785156 C 363.714844 171.785156 373.214844 181.285156 373.214844 193 "/>
<path style="fill-rule:nonzero;fill:rgb(67%,100%,18%);fill-opacity:1;stroke-width:1;stroke-linecap:butt;stroke-linejoin:miter;stroke:rgb(0%,0%,0%);stroke-opacity:1;stroke-miterlimit:10;" d="M 307.214844 125 C 307.214844 136.714844 297.714844 146.214844 286 146.214844 C 274.285156 146.214844 264.785156 136.714844 264.785156 125 C 264.785156 113.285156 274.285156 103.785156 286 103.785156 C 297.714844 103.785156 307.214844 113.285156 307.214844 125 "/>
<path style="fill-rule:nonzero;fill:rgb(67%,100%,18%);fill-opacity:1;stroke-width:1;stroke-linecap:butt;stroke-linejoin:miter;stroke:rgb(0%,0%,0%);stroke-opacity:1;stroke-miterlimit:10;" d="M 154.214844 380 C 154.214844 391.714844 144.714844 401.214844 133 401.214844 C 121.285156 401.214844 111.785156 391.714844 111.785156 380 C 111.785156 368.285156 121.285156 358.785156 133 358.785156 C 144.714844 358.785156 154.214844 368.285156 154.214844 380 "/>
<path style="fill-rule:nonzero;fill:rgb(35%,70%,90%);fill-opacity:1;stroke-width:1;stroke-linecap:butt;stroke-linejoin:miter;stroke:rgb(0%,0%,0%);stroke-opacity:1;stroke-miterlimit:10;" d="M 151.214844 190 C 151.214844 201.714844 141.714844 211.214844 130 211.214844 C 118.285156 211.214844 108.785156 201.714844 108.785156 190 C 108.785156 178.285156 118.285156 168.785156 130 168.785156 C 141.714844 168.785156 151.214844 178.285156 151.214844 190 "/>
<path style="fill-rule:nonzero;fill:rgb(67%,100%,18%);fill-opacity:1;stroke-width:1;stroke-linecap:butt;stroke-linejoin:miter;stroke:rgb(0%,0%,0%);stroke-opacity:1;stroke-miterlimit:10;" d="M 735 241 L 764.664062 241 L 776.664062 212.785156 L 788.664062 241 L 818.332031 241 L 794.332031 258.4375 L 802.417969 289.980469 L 776.664062 272.542969 L 750.914062 289.980469 L 763.214844 258.4375 L 735 241 "/>
<path style="fill-rule:nonzero;fill:rgb(35%,70%,90%);fill-opacity:1;stroke-width:1;stroke-linecap:butt;stroke-linejoin:miter;stroke:rgb(0%,0%,0%);stroke-opacity:1;stroke-miterlimit:10;" d="M 930 258 L 959.664062 258 L 971.664062 229.785156 L 983.664062 258 L 1013.332031 258 L 989.332031 275.4375 L 997.417969 306.980469 L 971.664062 289.542969 L 945.914062 306.980469 L 958.214844 275.4375 L 930 258 "/>
<path style="fill-rule:nonzero;fill:rgb(35%,70%,90%);fill-opacity:1;stroke-width:1;stroke-linecap:butt;stroke-linejoin:miter;stroke:rgb(0%,0%,0%);stroke-opacity:1;stroke-miterlimit:10;" d="M 849 425 L 878.664062 425 L 890.664062 396.785156 L 902.664062 425 L 932.332031 425 L 908.332031 442.4375 L 916.417969 473.980469 L 890.664062 456.542969 L 864.914062 473.980469 L 877.214844 442.4375 L 849 425 "/>
<path style="fill-rule:nonzero;fill:rgb(67%,100%,18%);fill-opacity:1;stroke-width:1;stroke-linecap:butt;stroke-linejoin:miter;stroke:rgb(0%,0%,0%);stroke-opacity:1;stroke-miterlimit:10;" d="M 761 134 L 790.664062 134 L 802.664062 105.785156 L 814.664062 134 L 844.332031 134 L 820.332031 151.4375 L 828.417969 182.980469 L 802.664062 165.542969 L 776.914062 182.980469 L 789.214844 151.4375 L 761 134 "/>
</g>
</svg>
