<?xml version="1.0" encoding="UTF-8"?>
<svg xmlns="http://www.w3.org/2000/svg" xmlns:xlink="http://www.w3.org/1999/xlink" width="1179pt" height="517pt" viewBox="0 0 1179 517" version="1.1">
<g id="surface1201">
<rect x="0" y="0" width="1179" height="517" style="fill:rgb(90%,90%,90%);fill-opacity:1;stroke:none;"/>
<path style="fill-rule:nonzero;fill:rgb(100%,51%,0%);fill-opacity:1;stroke-width:1;stroke-linecap:butt;stroke-linejoin:miter;stroke:rgb(0%,0%,0%);stroke-opacity:1;stroke-miterlimit:10;" d="M 834 239 L 863.664062 239 L 875.664062 210.785156 L 887.664062 239 L 917.332031 239 L 893.332031 256.4375 L 901.417969 287.980469 L 875.664062 270.542969 L 849.914062 287.980469 L 862.214844 256.4375 L 834 239 "/>
<path style="fill-rule:nonzero;fill:rgb(100%,51%,0%);fill-opacity:1;stroke-width:1;stroke-linecap:butt;stroke-linejoin:miter;stroke:rgb(0%,0%,0%);stroke-opacity:1;stroke-miterlimit:10;" d="M 586 320 L 615.664062 320 L 627.664062 291.785156 L 639.664062 320 L 669.332031 320 L 645.332031 337.4375 L 653.417969 368.980469 L 627.664062 351.542969 L 601.914062 368.980469 L 614.214844 337.4375 L 586 320 "/>
<path style="fill-rule:nonzero;fill:rgb(100%,51%,0%);fill-opacity:1;stroke-width:1;stroke-linecap:butt;stroke-linejoin:miter;stroke:rgb(0%,0%,0%);stroke-opacity:1;stroke-miterlimit:10;" d="M 723 382 L 752.664062 382 L 764.664062 353.785156 L 776.664062 382 L 806.332031 382 L 782.332031 399.4375 L 790.417969 430.980469 L 764.664062 413.542969 L 738.914062 430.980469 L 751.214844 399.4375 L 723 382 "/>
<path style="fill-rule:nonzero;fill:rgb(100%,51%,0%);fill-opacity:1;stroke-width:1;stroke-linecap:butt;stroke-linejoin:miter;stroke:rgb(0%,0%,0%);stroke-opacity:1;stroke-miterlimit:10;" d="M 625 180 L 654.664062 180 L 666.664062 151.785156 L 678.664062 180 L 708.332031 180 L 684.332031 197.4375 L 692.417969 228.980469 L 666.664062 211.542969 L 640.914062 228.980469 L 653.214844 197.4375 L 625 180 "/>
<path style="fill-rule:nonzero;fill:rgb(100%,51%,0%);fill-opacity:1;stroke-width:1;stroke-linecap:butt;stroke-linejoin:miter;stroke:rgb(0%,0%,0%);stroke-opacity:1;stroke-miterlimit:10;" d="M 291 171 L 320.664062 171 L 332.664062 142.785156 L 344.664062 171 L 374.332031 171 L 350.332031 188.4375 L 358.417969 219.980469 L 332.664062 202.542969 L 306.914062 219.980469 L 319.214844 188.4375 L 291 171 "/>
<path style="fill-rule:nonzero;fill:rgb(35%,70%,90%);fill-opacity:1;stroke-width:1;stroke-linecap:butt;stroke-linejoin:miter;stroke:rgb(0%,0%,0%);stroke-opacity:1;stroke-miterlimit:10;" d="M 1031 64 L 1005.019531 109 L 1056.980469 109 L 1031 64 "/>
<path style="fill-rule:nonzero;fill:rgb(35%,70%,90%);fill-opacity:1;stroke-width:1;stroke-linecap:butt;stroke-linejoin:miter;stroke:rgb(0%,0%,0%);stroke-opacity:1;stroke-miterlimit:10;" d="M 984 179 L 958.019531 224 L 1009.980469 224 L 984 179 "/>
<path style="fill-rule:nonzero;fill:rgb(35%,70%,90%);fill-opacity:1;stroke-width:1;stroke-linecap:butt;stroke-linejoin:miter;stroke:rgb(0%,0%,0%);stroke-opacity:1;stroke-miterlimit:10;" d="M 126 345 L 100.019531 390 L 151.980469 390 L 126 345 "/>
</g>
</svg>
