<?xml version="1.0" encoding="UTF-8"?>
<svg xmlns="http://www.w3.org/2000/svg" xmlns:xlink="http://www.w3.org/1999/xlink" width="1179pt" height="517pt" viewBox="0 0 1179 517" version="1.1">
<g id="surface101">
<rect x="0" y="0" width="1179" height="517" style="fill:rgb(90%,90%,90%);fill-opacity:1;stroke:none;"/>
<path style="fill-rule:nonzero;fill:rgb(100%,51%,0%);fill-opacity:1;stroke-width:1;stroke-linecap:butt;stroke-linejoin:miter;stroke:rgb(0%,0%,0%);stroke-opacity:1;stroke-miterlimit:10;" d="M 190 149 L 219.664062 149 L 231.664062 120.785156 L 243.664062 149 L 273.332031 149 L 249.332031 166.4375 L 257.417969 197.980469 L 231.664062 180.542969 L 205.914062 197.980469 L 218.214844 166.4375 L 190 149 "/>
<path style="fill-rule:nonzero;fill:rgb(100%,51%,0%);fill-opacity:1;stroke-width:1;stroke-linecap:butt;stroke-linejoin:miter;stroke:rgb(0%,0%,0%);stroke-opacity:1;stroke-miterlimit:10;" d="M 224 321 L 253.664062 321 L 265.664062 292.785156 L 277.664062 321 L 307.332031 321 L 283.332031 338.4375 L 291.417969 369.980469 L 265.664062 352.542969 L 239.914062 369.980469 L 252.214844 338.4375 L 224 321 "/>
<path style="fill-rule:nonzero;fill:rgb(100%,51%,0%);fill-opacity:1;stroke-width:1;stroke-linecap:butt;stroke-linejoin:miter;stroke:rgb(0%,0%,0%);stroke-opacity:1;stroke-miterlimit:10;" d="M 79.785156 229.785156 L 79.785156 272.214844 L 122.214844 272.214844 L 122.214844 229.785156 L 79.785156 229.785156 "/>
<path style="fill-rule:nonzero;fill:rgb(53%,27%,7%);fill-opacity:1;stroke-width:1;stroke-linecap:butt;stroke-linejoin:miter;stroke:rgb(0%,0%,0%);stroke-opacity:1;stroke-miterlimit:10;" d="M 772.785156 397.785156 L 772.785156 440.214844 L 815.214844 440.214844 L 815.214844 397.785156 L 772.785156 397.785156 "/>
<path style="fill-rule:nonzero;fill:rgb(53%,27%,7%);fill-opacity:1;stroke-width:1;stroke-linecap:butt;stroke-linejoin:miter;stroke:rgb(0%,0%,0%);stroke-opacity:1;stroke-miterlimit:10;" d="M 742.785156 175.785156 L 742.785156 218.214844 L 785.214844 218.214844 L 785.214844 175.785156 L 742.785156 175.785156 "/>
<path style="fill-rule:nonzero;fill:rgb(53%,27%,7%);fill-opacity:1;stroke-width:1;stroke-linecap:butt;stroke-linejoin:miter;stroke:rgb(0%,0%,0%);stroke-opacity:1;stroke-miterlimit:10;" d="M 886 180 L 915.664062 180 L 927.664062 151.785156 L 939.664062 180 L 969.332031 180 L 945.332031 197.4375 L 953.417969 228.980469 L 927.664062 211.542969 L 901.914062 228.980469 L 914.214844 197.4375 L 886 180 "/>
<path style="fill-rule:nonzero;fill:rgb(53%,27%,7%);fill-opacity:1;stroke-width:1;stroke-linecap:butt;stroke-linejoin:miter;stroke:rgb(0%,0%,0%);stroke-opacity:1;stroke-miterlimit:10;" d="M 961.785156 113.785156 L 961.785156 156.214844 L 1004.214844 156.214844 L 1004.214844 113.785156 L 961.785156 113.785156 "/>
<path style="fill-rule:nonzero;fill:rgb(53%,27%,7%);fill-opacity:1;stroke-width:1;stroke-linecap:butt;stroke-linejoin:miter;stroke:rgb(0%,0%,0%);stroke-opacity:1;stroke-miterlimit:10;" d="M 980.785156 362.785156 L 980.785156 405.214844 L 1023.214844 405.214844 L 1023.214844 362.785156 L 980.785156 362.785156 "/>
</g>
</svg>
