<?xml version="1.0" encoding="UTF-8"?>
<svg xmlns="http://www.w3.org/2000/svg" xmlns:xlink="http://www.w3.org/1999/xlink" width="1179pt" height="517pt" viewBox="0 0 1179 517" version="1.1">
<g id="surface611">
<rect x="0" y="0" width="1179" height="517" style="fill:rgb(90%,90%,90%);fill-opacity:1;stroke:none;"/>
<path style="fill-rule:nonzero;fill:rgb(35%,70%,90%);fill-opacity:1;stroke-width:1;stroke-linecap:butt;stroke-linejoin:miter;stroke:rgb(0%,0%,0%);stroke-opacity:1;stroke-miterlimit:10;" d="M 339 415 L 368.664062 415 L 380.664062 386.785156 L 392.664062 415 L 422.332031 415 L 398.332031 432.4375 L 406.417969 463.980469 L 380.664062 446.542969 L 354.914062 463.980469 L 367.214844 432.4375 L 339 415 "/>
<path style="fill-rule:nonzero;fill:rgb(55%,51%,53%);fill-opacity:1;stroke-width:1;stroke-linecap:butt;stroke-linejoin:miter;stroke:rgb(0%,0%,0%);stroke-opacity:1;stroke-miterlimit:10;" d="M 324 218 L 353.664062 218 L 365.664062 189.785156 L 377.664062 218 L 407.332031 218 L 383.332031 235.4375 L 391.417969 266.980469 L 365.664062 249.542969 L 339.914062 266.980469 L 352.214844 235.4375 L 324 218 "/>
<path style="fill-rule:nonzero;fill:rgb(55%,51%,53%);fill-opacity:1;stroke-width:1;stroke-linecap:butt;stroke-linejoin:miter;stroke:rgb(0%,0%,0%);stroke-opacity:1;stroke-miterlimit:10;" d="M 318 83 L 347.664062 83 L 359.664062 54.785156 L 371.664062 83 L 401.332031 83 L 377.332031 100.4375 L 385.417969 131.980469 L 359.664062 114.542969 L 333.914062 131.980469 L 346.214844 100.4375 L 318 83 "/>
<path style="fill-rule:nonzero;fill:rgb(35%,70%,90%);fill-opacity:1;stroke-width:1;stroke-linecap:butt;stroke-linejoin:miter;stroke:rgb(0%,0%,0%);stroke-opacity:1;stroke-miterlimit:10;" d="M 406 257 L 435.664062 257 L 447.664062 228.785156 L 459.664062 257 L 489.332031 257 L 465.332031 274.4375 L 473.417969 305.980469 L 447.664062 288.542969 L 421.914062 305.980469 L 434.214844 274.4375 L 406 257 "/>
<path style="fill-rule:nonzero;fill:rgb(35%,70%,90%);fill-opacity:1;stroke-width:1;stroke-linecap:butt;stroke-linejoin:miter;stroke:rgb(0%,0%,0%);stroke-opacity:1;stroke-miterlimit:10;" d="M 211 381 L 240.664062 381 L 252.664062 352.785156 L 264.664062 381 L 294.332031 381 L 270.332031 398.4375 L 278.417969 429.980469 L 252.664062 412.542969 L 226.914062 429.980469 L 239.214844 398.4375 L 211 381 "/>
<path style="fill-rule:nonzero;fill:rgb(55%,51%,53%);fill-opacity:1;stroke-width:1;stroke-linecap:butt;stroke-linejoin:miter;stroke:rgb(0%,0%,0%);stroke-opacity:1;stroke-miterlimit:10;" d="M 917.785156 389.785156 L 917.785156 432.214844 L 960.214844 432.214844 L 960.214844 389.785156 L 917.785156 389.785156 "/>
<path style="fill-rule:nonzero;fill:rgb(35%,70%,90%);fill-opacity:1;stroke-width:1;stroke-linecap:butt;stroke-linejoin:miter;stroke:rgb(0%,0%,0%);stroke-opacity:1;stroke-miterlimit:10;" d="M 705.785156 395.785156 L 705.785156 438.214844 L 748.214844 438.214844 L 748.214844 395.785156 L 705.785156 395.785156 "/>
<path style="fill-rule:nonzero;fill:rgb(35%,70%,90%);fill-opacity:1;stroke-width:1;stroke-linecap:butt;stroke-linejoin:miter;stroke:rgb(0%,0%,0%);stroke-opacity:1;stroke-miterlimit:10;" d="M 882.785156 276.785156 L 882.785156 319.214844 L 925.214844 319.214844 L 925.214844 276.785156 L 882.785156 276.785156 "/>
</g>
</svg>
