<?xml version="1.0" encoding="UTF-8"?>
<svg xmlns="http://www.w3.org/2000/svg" xmlns:xlink="http://www.w3.org/1999/xlink" width="1179pt" height="517pt" viewBox="0 0 1179 517" version="1.1">
<g id="surface831">
<rect x="0" y="0" width="1179" height="517" style="fill:rgb(90%,90%,90%);fill-opacity:1;stroke:none;"/>
<path style="fill-rule:nonzero;fill:rgb(100%,51%,0%);fill-opacity:1;stroke-width:1;stroke-linecap:butt;stroke-linejoin:miter;stroke:rgb(0%,0%,0%);stroke-opacity:1;stroke-miterlimit:10;" d="M 148.214844 124 C 148.214844 135.714844 138.714844 145.214844 127 145.214844 C 115.285156 145.214844 105.785156 135.714844 105.785156 124 C 105.785156 112.285156 115.285156 102.785156 127 102.785156 C 138.714844 102.785156 148.214844 112.285156 148.214844 124 "/>
<path style="fill-rule:nonzero;fill:rgb(35%,70%,90%);fill-opacity:1;stroke-width:1;stroke-linecap:butt;stroke-linejoin:miter;stroke:rgb(0%,0%,0%);stroke-opacity:1;stroke-miterlimit:10;" d="M 207 193 L 236.664062 193 L 248.664062 164.785156 L 260.664062 193 L 290.332031 193 L 266.332031 210.4375 L 274.417969 241.980469 L 248.664062 224.542969 L 222.914062 241.980469 L 235.214844 210.4375 L 207 193 "/>
<path style="fill-rule:nonzero;fill:rgb(100%,51%,0%);fill-opacity:1;stroke-width:1;stroke-linecap:butt;stroke-linejoin:miter;stroke:rgb(0%,0%,0%);stroke-opacity:1;stroke-miterlimit:10;" d="M 440.214844 140 C 440.214844 151.714844 430.714844 161.214844 419 161.214844 C 407.285156 161.214844 397.785156 151.714844 397.785156 140 C 397.785156 128.285156 407.285156 118.785156 419 118.785156 C 430.714844 118.785156 440.214844 128.285156 440.214844 140 "/>
<path style="fill-rule:nonzero;fill:rgb(100%,51%,0%);fill-opacity:1;stroke-width:1;stroke-linecap:butt;stroke-linejoin:miter;stroke:rgb(0%,0%,0%);stroke-opacity:1;stroke-miterlimit:10;" d="M 349.214844 377 C 349.214844 388.714844 339.714844 398.214844 328 398.214844 C 316.285156 398.214844 306.785156 388.714844 306.785156 377 C 306.785156 365.285156 316.285156 355.785156 328 355.785156 C 339.714844 355.785156 349.214844 365.285156 349.214844 377 "/>
<path style="fill-rule:nonzero;fill:rgb(35%,70%,90%);fill-opacity:1;stroke-width:1;stroke-linecap:butt;stroke-linejoin:miter;stroke:rgb(0%,0%,0%);stroke-opacity:1;stroke-miterlimit:10;" d="M 212 337 L 241.664062 337 L 253.664062 308.785156 L 265.664062 337 L 295.332031 337 L 271.332031 354.4375 L 279.417969 385.980469 L 253.664062 368.542969 L 227.914062 385.980469 L 240.214844 354.4375 L 212 337 "/>
<path style="fill-rule:nonzero;fill:rgb(35%,70%,90%);fill-opacity:1;stroke-width:1;stroke-linecap:butt;stroke-linejoin:miter;stroke:rgb(0%,0%,0%);stroke-opacity:1;stroke-miterlimit:10;" d="M 862 414 L 891.664062 414 L 903.664062 385.785156 L 915.664062 414 L 945.332031 414 L 921.332031 431.4375 L 929.417969 462.980469 L 903.664062 445.542969 L 877.914062 462.980469 L 890.214844 431.4375 L 862 414 "/>
<path style="fill-rule:nonzero;fill:rgb(100%,51%,0%);fill-opacity:1;stroke-width:1;stroke-linecap:butt;stroke-linejoin:miter;stroke:rgb(0%,0%,0%);stroke-opacity:1;stroke-miterlimit:10;" d="M 767.214844 124 C 767.214844 135.714844 757.714844 145.214844 746 145.214844 C 734.285156 145.214844 724.785156 135.714844 724.785156 124 C 724.785156 112.285156 734.285156 102.785156 746 102.785156 C 757.714844 102.785156 767.214844 112.285156 767.214844 124 "/>
<path style="fill-rule:nonzero;fill:rgb(100%,51%,0%);fill-opacity:1;stroke-width:1;stroke-linecap:butt;stroke-linejoin:miter;stroke:rgb(0%,0%,0%);stroke-opacity:1;stroke-miterlimit:10;" d="M 932.214844 337 C 932.214844 348.714844 922.714844 358.214844 911 358.214844 C 899.285156 358.214844 889.785156 348.714844 889.785156 337 C 889.785156 325.285156 899.285156 315.785156 911 315.785156 C 922.714844 315.785156 932.214844 325.285156 932.214844 337 "/>
<path style="fill-rule:nonzero;fill:rgb(100%,51%,0%);fill-opacity:1;stroke-width:1;stroke-linecap:butt;stroke-linejoin:miter;stroke:rgb(0%,0%,0%);stroke-opacity:1;stroke-miterlimit:10;" d="M 852.214844 91 C 852.214844 102.714844 842.714844 112.214844 831 112.214844 C 819.285156 112.214844 809.785156 102.714844 809.785156 91 C 809.785156 79.285156 819.285156 69.785156 831 69.785156 C 842.714844 69.785156 852.214844 79.285156 852.214844 91 "/>
<path style="fill-rule:nonzero;fill:rgb(100%,51%,0%);fill-opacity:1;stroke-width:1;stroke-linecap:butt;stroke-linejoin:miter;stroke:rgb(0%,0%,0%);stroke-opacity:1;stroke-miterlimit:10;" d="M 985.214844 416 C 985.214844 427.714844 975.714844 437.214844 964 437.214844 C 952.285156 437.214844 942.785156 427.714844 942.785156 416 C 942.785156 404.285156 952.285156 394.785156 964 394.785156 C 975.714844 394.785156 985.214844 404.285156 985.214844 416 "/>
<path style="fill-rule:nonzero;fill:rgb(100%,51%,0%);fill-opacity:1;stroke-width:1;stroke-linecap:butt;stroke-linejoin:miter;stroke:rgb(0%,0%,0%);stroke-opacity:1;stroke-miterlimit:10;" d="M 1060.214844 333 C 1060.214844 344.714844 1050.714844 354.214844 1039 354.214844 C 1027.285156 354.214844 1017.785156 344.714844 1017.785156 333 C 1017.785156 321.285156 1027.285156 311.785156 1039 311.785156 C 1050.714844 311.785156 1060.214844 321.285156 1060.214844 333 "/>
<path style="fill-rule:nonzero;fill:rgb(100%,51%,0%);fill-opacity:1;stroke-width:1;stroke-linecap:butt;stroke-linejoin:miter;stroke:rgb(0%,0%,0%);stroke-opacity:1;stroke-miterlimit:10;" d="M 944.214844 177 C 944.214844 188.714844 934.714844 198.214844 923 198.214844 C 911.285156 198.214844 901.785156 188.714844 901.785156 177 C 901.785156 165.285156 911.285156 155.785156 923 155.785156 C 934.714844 155.785156 944.214844 165.285156 944.214844 177 "/>
<path style="fill-rule:nonzero;fill:rgb(35%,70%,90%);fill-opacity:1;stroke-width:1;stroke-linecap:butt;stroke-linejoin:miter;stroke:rgb(0%,0%,0%);stroke-opacity:1;stroke-miterlimit:10;" d="M 998 252 L 1027.664062 252 L 1039.664062 223.785156 L 1051.664062 252 L 1081.332031 252 L 1057.332031 269.4375 L 1065.417969 300.980469 L 1039.664062 283.542969 L 1013.914062 300.980469 L 1026.214844 269.4375 L 998 252 "/>
</g>
</svg>
