<?xml version="1.0" encoding="UTF-8"?>
<svg xmlns="http://www.w3.org/2000/svg" xmlns:xlink="http://www.w3.org/1999/xlink" width="1179pt" height="517pt" viewBox="0 0 1179 517" version="1.1">
<g id="surface486">
<rect x="0" y="0" width="1179" height="517" style="fill:rgb(90%,90%,90%);fill-opacity:1;stroke:none;"/>
<path style="fill-rule:nonzero;fill:rgb(100%,51%,0%);fill-opacity:1;stroke-width:1;stroke-linecap:butt;stroke-linejoin:miter;stroke:rgb(0%,0%,0%);stroke-opacity:1;stroke-miterlimit:10;" d="M 856 284 L 885.664062 284 L 897.664062 255.785156 L 909.664062 284 L 939.332031 284 L 915.332031 301.4375 L 923.417969 332.980469 L 897.664062 315.542969 L 871.914062 332.980469 L 884.214844 301.4375 L 856 284 "/>
<path style="fill-rule:nonzero;fill:rgb(100%,51%,0%);fill-opacity:1;stroke-width:1;stroke-linecap:butt;stroke-linejoin:miter;stroke:rgb(0%,0%,0%);stroke-opacity:1;stroke-miterlimit:10;" d="M 393 182 L 422.664062 182 L 434.664062 153.785156 L 446.664062 182 L 476.332031 182 L 452.332031 199.4375 L 460.417969 230.980469 L 434.664062 213.542969 L 408.914062 230.980469 L 421.214844 199.4375 L 393 182 "/>
<path style="fill-rule:nonzero;fill:rgb(100%,51%,0%);fill-opacity:1;stroke-width:1;stroke-linecap:butt;stroke-linejoin:miter;stroke:rgb(0%,0%,0%);stroke-opacity:1;stroke-miterlimit:10;" d="M 183 230 L 212.664062 230 L 224.664062 201.785156 L 236.664062 230 L 266.332031 230 L 242.332031 247.4375 L 250.417969 278.980469 L 224.664062 261.542969 L 198.914062 278.980469 L 211.214844 247.4375 L 183 230 "/>
<path style="fill-rule:nonzero;fill:rgb(100%,51%,0%);fill-opacity:1;stroke-width:1;stroke-linecap:butt;stroke-linejoin:miter;stroke:rgb(0%,0%,0%);stroke-opacity:1;stroke-miterlimit:10;" d="M 94 122 L 123.664062 122 L 135.664062 93.785156 L 147.664062 122 L 177.332031 122 L 153.332031 139.4375 L 161.417969 170.980469 L 135.664062 153.542969 L 109.914062 170.980469 L 122.214844 139.4375 L 94 122 "/>
<path style="fill-rule:nonzero;fill:rgb(55%,51%,53%);fill-opacity:1;stroke-width:1;stroke-linecap:butt;stroke-linejoin:miter;stroke:rgb(0%,0%,0%);stroke-opacity:1;stroke-miterlimit:10;" d="M 732 119 L 706.019531 164 L 757.980469 164 L 732 119 "/>
<path style="fill-rule:nonzero;fill:rgb(55%,51%,53%);fill-opacity:1;stroke-width:1;stroke-linecap:butt;stroke-linejoin:miter;stroke:rgb(0%,0%,0%);stroke-opacity:1;stroke-miterlimit:10;" d="M 255 51 L 229.019531 96 L 280.980469 96 L 255 51 "/>
<path style="fill-rule:nonzero;fill:rgb(55%,51%,53%);fill-opacity:1;stroke-width:1;stroke-linecap:butt;stroke-linejoin:miter;stroke:rgb(0%,0%,0%);stroke-opacity:1;stroke-miterlimit:10;" d="M 476 289 L 450.019531 334 L 501.980469 334 L 476 289 "/>
</g>
</svg>
