<?xml version="1.0" encoding="UTF-8"?>
<svg xmlns="http://www.w3.org/2000/svg" xmlns:xlink="http://www.w3.org/1999/xlink" width="1179pt" height="517pt" viewBox="0 0 1179 517" version="1.1">
<g id="surface481">
<rect x="0" y="0" width="1179" height="517" style="fill:rgb(90%,90%,90%);fill-opacity:1;stroke:none;"/>
<path style="fill-rule:nonzero;fill:rgb(100%,51%,0%);fill-opacity:1;stroke-width:1;stroke-linecap:butt;stroke-linejoin:miter;stroke:rgb(0%,0%,0%);stroke-opacity:1;stroke-miterlimit:10;" d="M 646 428 L 675.664062 428 L 687.664062 399.785156 L 699.664062 428 L 729.332031 428 L 705.332031 445.4375 L 713.417969 476.980469 L 687.664062 459.542969 L 661.914062 476.980469 L 674.214844 445.4375 L 646 428 "/>
<path style="fill-rule:nonzero;fill:rgb(100%,51%,0%);fill-opacity:1;stroke-width:1;stroke-linecap:butt;stroke-linejoin:miter;stroke:rgb(0%,0%,0%);stroke-opacity:1;stroke-miterlimit:10;" d="M 411 331 L 440.664062 331 L 452.664062 302.785156 L 464.664062 331 L 494.332031 331 L 470.332031 348.4375 L 478.417969 379.980469 L 452.664062 362.542969 L 426.914062 379.980469 L 439.214844 348.4375 L 411 331 "/>
<path style="fill-rule:nonzero;fill:rgb(100%,51%,0%);fill-opacity:1;stroke-width:1;stroke-linecap:butt;stroke-linejoin:miter;stroke:rgb(0%,0%,0%);stroke-opacity:1;stroke-miterlimit:10;" d="M 120 275 L 149.664062 275 L 161.664062 246.785156 L 173.664062 275 L 203.332031 275 L 179.332031 292.4375 L 187.417969 323.980469 L 161.664062 306.542969 L 135.914062 323.980469 L 148.214844 292.4375 L 120 275 "/>
<path style="fill-rule:nonzero;fill:rgb(100%,51%,0%);fill-opacity:1;stroke-width:1;stroke-linecap:butt;stroke-linejoin:miter;stroke:rgb(0%,0%,0%);stroke-opacity:1;stroke-miterlimit:10;" d="M 617 249 L 646.664062 249 L 658.664062 220.785156 L 670.664062 249 L 700.332031 249 L 676.332031 266.4375 L 684.417969 297.980469 L 658.664062 280.542969 L 632.914062 297.980469 L 645.214844 266.4375 L 617 249 "/>
<path style="fill-rule:nonzero;fill:rgb(55%,51%,53%);fill-opacity:1;stroke-width:1;stroke-linecap:butt;stroke-linejoin:miter;stroke:rgb(0%,0%,0%);stroke-opacity:1;stroke-miterlimit:10;" d="M 284.214844 154 C 284.214844 165.714844 274.714844 175.214844 263 175.214844 C 251.285156 175.214844 241.785156 165.714844 241.785156 154 C 241.785156 142.285156 251.285156 132.785156 263 132.785156 C 274.714844 132.785156 284.214844 142.285156 284.214844 154 "/>
<path style="fill-rule:nonzero;fill:rgb(55%,51%,53%);fill-opacity:1;stroke-width:1;stroke-linecap:butt;stroke-linejoin:miter;stroke:rgb(0%,0%,0%);stroke-opacity:1;stroke-miterlimit:10;" d="M 539.214844 135 C 539.214844 146.714844 529.714844 156.214844 518 156.214844 C 506.285156 156.214844 496.785156 146.714844 496.785156 135 C 496.785156 123.285156 506.285156 113.785156 518 113.785156 C 529.714844 113.785156 539.214844 123.285156 539.214844 135 "/>
<path style="fill-rule:nonzero;fill:rgb(55%,51%,53%);fill-opacity:1;stroke-width:1;stroke-linecap:butt;stroke-linejoin:miter;stroke:rgb(0%,0%,0%);stroke-opacity:1;stroke-miterlimit:10;" d="M 846.214844 383 C 846.214844 394.714844 836.714844 404.214844 825 404.214844 C 813.285156 404.214844 803.785156 394.714844 803.785156 383 C 803.785156 371.285156 813.285156 361.785156 825 361.785156 C 836.714844 361.785156 846.214844 371.285156 846.214844 383 "/>
</g>
</svg>
