<?xml version="1.0" encoding="UTF-8"?>
<svg xmlns="http://www.w3.org/2000/svg" xmlns:xlink="http://www.w3.org/1999/xlink" width="1179pt" height="517pt" viewBox="0 0 1179 517" version="1.1">
<g id="surface661">
<rect x="0" y="0" width="1179" height="517" style="fill:rgb(90%,90%,90%);fill-opacity:1;stroke:none;"/>
<path style="fill-rule:nonzero;fill:rgb(100%,51%,0%);fill-opacity:1;stroke-width:1;stroke-linecap:butt;stroke-linejoin:miter;stroke:rgb(0%,0%,0%);stroke-opacity:1;stroke-miterlimit:10;" d="M 450 143 L 479.664062 143 L 491.664062 114.785156 L 503.664062 143 L 533.332031 143 L 509.332031 160.4375 L 517.417969 191.980469 L 491.664062 174.542969 L 465.914062 191.980469 L 478.214844 160.4375 L 450 143 "/>
<path style="fill-rule:nonzero;fill:rgb(100%,51%,0%);fill-opacity:1;stroke-width:1;stroke-linecap:butt;stroke-linejoin:miter;stroke:rgb(0%,0%,0%);stroke-opacity:1;stroke-miterlimit:10;" d="M 174 207 L 203.664062 207 L 215.664062 178.785156 L 227.664062 207 L 257.332031 207 L 233.332031 224.4375 L 241.417969 255.980469 L 215.664062 238.542969 L 189.914062 255.980469 L 202.214844 224.4375 L 174 207 "/>
<path style="fill-rule:nonzero;fill:rgb(100%,51%,0%);fill-opacity:1;stroke-width:1;stroke-linecap:butt;stroke-linejoin:miter;stroke:rgb(0%,0%,0%);stroke-opacity:1;stroke-miterlimit:10;" d="M 596 299 L 625.664062 299 L 637.664062 270.785156 L 649.664062 299 L 679.332031 299 L 655.332031 316.4375 L 663.417969 347.980469 L 637.664062 330.542969 L 611.914062 347.980469 L 624.214844 316.4375 L 596 299 "/>
<path style="fill-rule:nonzero;fill:rgb(100%,51%,0%);fill-opacity:1;stroke-width:1;stroke-linecap:butt;stroke-linejoin:miter;stroke:rgb(0%,0%,0%);stroke-opacity:1;stroke-miterlimit:10;" d="M 1010 335 L 1039.664062 335 L 1051.664062 306.785156 L 1063.664062 335 L 1093.332031 335 L 1069.332031 352.4375 L 1077.417969 383.980469 L 1051.664062 366.542969 L 1025.914062 383.980469 L 1038.214844 352.4375 L 1010 335 "/>
<path style="fill-rule:nonzero;fill:rgb(55%,51%,53%);fill-opacity:1;stroke-width:1;stroke-linecap:butt;stroke-linejoin:miter;stroke:rgb(0%,0%,0%);stroke-opacity:1;stroke-miterlimit:10;" d="M 350.214844 137 C 350.214844 148.714844 340.714844 158.214844 329 158.214844 C 317.285156 158.214844 307.785156 148.714844 307.785156 137 C 307.785156 125.285156 317.285156 115.785156 329 115.785156 C 340.714844 115.785156 350.214844 125.285156 350.214844 137 "/>
<path style="fill-rule:nonzero;fill:rgb(55%,51%,53%);fill-opacity:1;stroke-width:1;stroke-linecap:butt;stroke-linejoin:miter;stroke:rgb(0%,0%,0%);stroke-opacity:1;stroke-miterlimit:10;" d="M 700.214844 93 C 700.214844 104.714844 690.714844 114.214844 679 114.214844 C 667.285156 114.214844 657.785156 104.714844 657.785156 93 C 657.785156 81.285156 667.285156 71.785156 679 71.785156 C 690.714844 71.785156 700.214844 81.285156 700.214844 93 "/>
<path style="fill-rule:nonzero;fill:rgb(55%,51%,53%);fill-opacity:1;stroke-width:1;stroke-linecap:butt;stroke-linejoin:miter;stroke:rgb(0%,0%,0%);stroke-opacity:1;stroke-miterlimit:10;" d="M 228.214844 336 C 228.214844 347.714844 218.714844 357.214844 207 357.214844 C 195.285156 357.214844 185.785156 347.714844 185.785156 336 C 185.785156 324.285156 195.285156 314.785156 207 314.785156 C 218.714844 314.785156 228.214844 324.285156 228.214844 336 "/>
<path style="fill-rule:nonzero;fill:rgb(55%,51%,53%);fill-opacity:1;stroke-width:1;stroke-linecap:butt;stroke-linejoin:miter;stroke:rgb(0%,0%,0%);stroke-opacity:1;stroke-miterlimit:10;" d="M 416.214844 422 C 416.214844 433.714844 406.714844 443.214844 395 443.214844 C 383.285156 443.214844 373.785156 433.714844 373.785156 422 C 373.785156 410.285156 383.285156 400.785156 395 400.785156 C 406.714844 400.785156 416.214844 410.285156 416.214844 422 "/>
<path style="fill-rule:nonzero;fill:rgb(55%,51%,53%);fill-opacity:1;stroke-width:1;stroke-linecap:butt;stroke-linejoin:miter;stroke:rgb(0%,0%,0%);stroke-opacity:1;stroke-miterlimit:10;" d="M 1060.214844 118 C 1060.214844 129.714844 1050.714844 139.214844 1039 139.214844 C 1027.285156 139.214844 1017.785156 129.714844 1017.785156 118 C 1017.785156 106.285156 1027.285156 96.785156 1039 96.785156 C 1050.714844 96.785156 1060.214844 106.285156 1060.214844 118 "/>
</g>
</svg>
