<?xml version="1.0" encoding="UTF-8"?>
<svg xmlns="http://www.w3.org/2000/svg" xmlns:xlink="http://www.w3.org/1999/xlink" width="1179pt" height="517pt" viewBox="0 0 1179 517" version="1.1">
<g id="surface791">
<rect x="0" y="0" width="1179" height="517" style="fill:rgb(90%,90%,90%);fill-opacity:1;stroke:none;"/>
<path style="fill-rule:nonzero;fill:rgb(35%,70%,90%);fill-opacity:1;stroke-width:1;stroke-linecap:butt;stroke-linejoin:miter;stroke:rgb(0%,0%,0%);stroke-opacity:1;stroke-miterlimit:10;" d="M 616.214844 112 C 616.214844 123.714844 606.714844 133.214844 595 133.214844 C 583.285156 133.214844 573.785156 123.714844 573.785156 112 C 573.785156 100.285156 583.285156 90.785156 595 90.785156 C 606.714844 90.785156 616.214844 100.285156 616.214844 112 "/>
<path style="fill-rule:nonzero;fill:rgb(35%,70%,90%);fill-opacity:1;stroke-width:1;stroke-linecap:butt;stroke-linejoin:miter;stroke:rgb(0%,0%,0%);stroke-opacity:1;stroke-miterlimit:10;" d="M 267.214844 324 C 267.214844 335.714844 257.714844 345.214844 246 345.214844 C 234.285156 345.214844 224.785156 335.714844 224.785156 324 C 224.785156 312.285156 234.285156 302.785156 246 302.785156 C 257.714844 302.785156 267.214844 312.285156 267.214844 324 "/>
<path style="fill-rule:nonzero;fill:rgb(35%,70%,90%);fill-opacity:1;stroke-width:1;stroke-linecap:butt;stroke-linejoin:miter;stroke:rgb(0%,0%,0%);stroke-opacity:1;stroke-miterlimit:10;" d="M 910.214844 288 C 910.214844 299.714844 900.714844 309.214844 889 309.214844 C 877.285156 309.214844 867.785156 299.714844 867.785156 288 C 867.785156 276.285156 877.285156 266.785156 889 266.785156 C 900.714844 266.785156 910.214844 276.285156 910.214844 288 "/>
<path style="fill-rule:nonzero;fill:rgb(35%,70%,90%);fill-opacity:1;stroke-width:1;stroke-linecap:butt;stroke-linejoin:miter;stroke:rgb(0%,0%,0%);stroke-opacity:1;stroke-miterlimit:10;" d="M 137.214844 392 C 137.214844 403.714844 127.714844 413.214844 116 413.214844 C 104.285156 413.214844 94.785156 403.714844 94.785156 392 C 94.785156 380.285156 104.285156 370.785156 116 370.785156 C 127.714844 370.785156 137.214844 380.285156 137.214844 392 "/>
<path style="fill-rule:nonzero;fill:rgb(35%,70%,90%);fill-opacity:1;stroke-width:1;stroke-linecap:butt;stroke-linejoin:miter;stroke:rgb(0%,0%,0%);stroke-opacity:1;stroke-miterlimit:10;" d="M 592.214844 346 C 592.214844 357.714844 582.714844 367.214844 571 367.214844 C 559.285156 367.214844 549.785156 357.714844 549.785156 346 C 549.785156 334.285156 559.285156 324.785156 571 324.785156 C 582.714844 324.785156 592.214844 334.285156 592.214844 346 "/>
<path style="fill-rule:nonzero;fill:rgb(67%,100%,18%);fill-opacity:1;stroke-width:1;stroke-linecap:butt;stroke-linejoin:miter;stroke:rgb(0%,0%,0%);stroke-opacity:1;stroke-miterlimit:10;" d="M 403 169 L 432.664062 169 L 444.664062 140.785156 L 456.664062 169 L 486.332031 169 L 462.332031 186.4375 L 470.417969 217.980469 L 444.664062 200.542969 L 418.914062 217.980469 L 431.214844 186.4375 L 403 169 "/>
<path style="fill-rule:nonzero;fill:rgb(67%,100%,18%);fill-opacity:1;stroke-width:1;stroke-linecap:butt;stroke-linejoin:miter;stroke:rgb(0%,0%,0%);stroke-opacity:1;stroke-miterlimit:10;" d="M 806 121 L 835.664062 121 L 847.664062 92.785156 L 859.664062 121 L 889.332031 121 L 865.332031 138.4375 L 873.417969 169.980469 L 847.664062 152.542969 L 821.914062 169.980469 L 834.214844 138.4375 L 806 121 "/>
<path style="fill-rule:nonzero;fill:rgb(67%,100%,18%);fill-opacity:1;stroke-width:1;stroke-linecap:butt;stroke-linejoin:miter;stroke:rgb(0%,0%,0%);stroke-opacity:1;stroke-miterlimit:10;" d="M 118 165 L 147.664062 165 L 159.664062 136.785156 L 171.664062 165 L 201.332031 165 L 177.332031 182.4375 L 185.417969 213.980469 L 159.664062 196.542969 L 133.914062 213.980469 L 146.214844 182.4375 L 118 165 "/>
</g>
</svg>
