<?xml version="1.0" encoding="UTF-8"?>
<svg xmlns="http://www.w3.org/2000/svg" xmlns:xlink="http://www.w3.org/1999/xlink" width="1179pt" height="517pt" viewBox="0 0 1179 517" version="1.1">
<g id="surface1506">
<rect x="0" y="0" width="1179" height="517" style="fill:rgb(90%,90%,90%);fill-opacity:1;stroke:none;"/>
<path style="fill-rule:nonzero;fill:rgb(35%,70%,90%);fill-opacity:1;stroke-width:1;stroke-linecap:butt;stroke-linejoin:miter;stroke:rgb(0%,0%,0%);stroke-opacity:1;stroke-miterlimit:10;" d="M 488 360 L 517.664062 360 L 529.664062 331.785156 L 541.664062 360 L 571.332031 360 L 547.332031 377.4375 L 555.417969 408.980469 L 529.664062 391.542969 L 503.914062 408.980469 L 516.214844 377.4375 L 488 360 "/>
<path style="fill-rule:nonzero;fill:rgb(35%,70%,90%);fill-opacity:1;stroke-width:1;stroke-linecap:butt;stroke-linejoin:miter;stroke:rgb(0%,0%,0%);stroke-opacity:1;stroke-miterlimit:10;" d="M 393 172 L 422.664062 172 L 434.664062 143.785156 L 446.664062 172 L 476.332031 172 L 452.332031 189.4375 L 460.417969 220.980469 L 434.664062 203.542969 L 408.914062 220.980469 L 421.214844 189.4375 L 393 172 "/>
<path style="fill-rule:nonzero;fill:rgb(35%,70%,90%);fill-opacity:1;stroke-width:1;stroke-linecap:butt;stroke-linejoin:miter;stroke:rgb(0%,0%,0%);stroke-opacity:1;stroke-miterlimit:10;" d="M 141 128 L 170.664062 128 L 182.664062 99.785156 L 194.664062 128 L 224.332031 128 L 200.332031 145.4375 L 208.417969 176.980469 L 182.664062 159.542969 L 156.914062 176.980469 L 169.214844 145.4375 L 141 128 "/>
<path style="fill-rule:nonzero;fill:rgb(100%,51%,0%);fill-opacity:1;stroke-width:1;stroke-linecap:butt;stroke-linejoin:miter;stroke:rgb(0%,0%,0%);stroke-opacity:1;stroke-miterlimit:10;" d="M 620 261.601562 C 620 247.199219 596 247.199219 596 261.601562 C 596 276 620 278.398438 620 290.398438 C 620 278.398438 644 276 644 261.601562 C 644 247.199219 620 247.199219 620 261.601562 "/>
<path style="fill-rule:nonzero;fill:rgb(100%,51%,0%);fill-opacity:1;stroke-width:1;stroke-linecap:butt;stroke-linejoin:miter;stroke:rgb(0%,0%,0%);stroke-opacity:1;stroke-miterlimit:10;" d="M 711 356.601562 C 711 342.199219 687 342.199219 687 356.601562 C 687 371 711 373.398438 711 385.398438 C 711 373.398438 735 371 735 356.601562 C 735 342.199219 711 342.199219 711 356.601562 "/>
<path style="fill-rule:nonzero;fill:rgb(100%,51%,0%);fill-opacity:1;stroke-width:1;stroke-linecap:butt;stroke-linejoin:miter;stroke:rgb(0%,0%,0%);stroke-opacity:1;stroke-miterlimit:10;" d="M 990 163.601562 C 990 149.199219 966 149.199219 966 163.601562 C 966 178 990 180.398438 990 192.398438 C 990 180.398438 1014 178 1014 163.601562 C 1014 149.199219 990 149.199219 990 163.601562 "/>
<path style="fill-rule:nonzero;fill:rgb(100%,51%,0%);fill-opacity:1;stroke-width:1;stroke-linecap:butt;stroke-linejoin:miter;stroke:rgb(0%,0%,0%);stroke-opacity:1;stroke-miterlimit:10;" d="M 374 304.601562 C 374 290.199219 350 290.199219 350 304.601562 C 350 319 374 321.398438 374 333.398438 C 374 321.398438 398 319 398 304.601562 C 398 290.199219 374 290.199219 374 304.601562 "/>
<path style="fill-rule:nonzero;fill:rgb(100%,51%,0%);fill-opacity:1;stroke-width:1;stroke-linecap:butt;stroke-linejoin:miter;stroke:rgb(0%,0%,0%);stroke-opacity:1;stroke-miterlimit:10;" d="M 664 140.601562 C 664 126.199219 640 126.199219 640 140.601562 C 640 155 664 157.398438 664 169.398438 C 664 157.398438 688 155 688 140.601562 C 688 126.199219 664 126.199219 664 140.601562 "/>
</g>
</svg>
