<?xml version="1.0" encoding="UTF-8"?>
<svg xmlns="http://www.w3.org/2000/svg" xmlns:xlink="http://www.w3.org/1999/xlink" width="1179pt" height="517pt" viewBox="0 0 1179 517" version="1.1">
<g id="surface96">
<rect x="0" y="0" width="1179" height="517" style="fill:rgb(90%,90%,90%);fill-opacity:1;stroke:none;"/>
<path style="fill-rule:nonzero;fill:rgb(100%,51%,0%);fill-opacity:1;stroke-width:1;stroke-linecap:butt;stroke-linejoin:miter;stroke:rgb(0%,0%,0%);stroke-opacity:1;stroke-miterlimit:10;" d="M 413 418 L 442.664062 418 L 454.664062 389.785156 L 466.664062 418 L 496.332031 418 L 472.332031 435.4375 L 480.417969 466.980469 L 454.664062 449.542969 L 428.914062 466.980469 L 441.214844 435.4375 L 413 418 "/>
<path style="fill-rule:nonzero;fill:rgb(100%,51%,0%);fill-opacity:1;stroke-width:1;stroke-linecap:butt;stroke-linejoin:miter;stroke:rgb(0%,0%,0%);stroke-opacity:1;stroke-miterlimit:10;" d="M 184 430 L 213.664062 430 L 225.664062 401.785156 L 237.664062 430 L 267.332031 430 L 243.332031 447.4375 L 251.417969 478.980469 L 225.664062 461.542969 L 199.914062 478.980469 L 212.214844 447.4375 L 184 430 "/>
<path style="fill-rule:nonzero;fill:rgb(100%,51%,0%);fill-opacity:1;stroke-width:1;stroke-linecap:butt;stroke-linejoin:miter;stroke:rgb(0%,0%,0%);stroke-opacity:1;stroke-miterlimit:10;" d="M 480 176 L 509.664062 176 L 521.664062 147.785156 L 533.664062 176 L 563.332031 176 L 539.332031 193.4375 L 547.417969 224.980469 L 521.664062 207.542969 L 495.914062 224.980469 L 508.214844 193.4375 L 480 176 "/>
<path style="fill-rule:nonzero;fill:rgb(100%,51%,0%);fill-opacity:1;stroke-width:1;stroke-linecap:butt;stroke-linejoin:miter;stroke:rgb(0%,0%,0%);stroke-opacity:1;stroke-miterlimit:10;" d="M 1030 331 L 1059.664062 331 L 1071.664062 302.785156 L 1083.664062 331 L 1113.332031 331 L 1089.332031 348.4375 L 1097.417969 379.980469 L 1071.664062 362.542969 L 1045.914062 379.980469 L 1058.214844 348.4375 L 1030 331 "/>
<path style="fill-rule:nonzero;fill:rgb(53%,27%,7%);fill-opacity:1;stroke-width:1;stroke-linecap:butt;stroke-linejoin:miter;stroke:rgb(0%,0%,0%);stroke-opacity:1;stroke-miterlimit:10;" d="M 190 280 L 164.019531 325 L 215.980469 325 L 190 280 "/>
<path style="fill-rule:nonzero;fill:rgb(53%,27%,7%);fill-opacity:1;stroke-width:1;stroke-linecap:butt;stroke-linejoin:miter;stroke:rgb(0%,0%,0%);stroke-opacity:1;stroke-miterlimit:10;" d="M 859 97 L 833.019531 142 L 884.980469 142 L 859 97 "/>
<path style="fill-rule:nonzero;fill:rgb(53%,27%,7%);fill-opacity:1;stroke-width:1;stroke-linecap:butt;stroke-linejoin:miter;stroke:rgb(0%,0%,0%);stroke-opacity:1;stroke-miterlimit:10;" d="M 616 262 L 590.019531 307 L 641.980469 307 L 616 262 "/>
<path style="fill-rule:nonzero;fill:rgb(53%,27%,7%);fill-opacity:1;stroke-width:1;stroke-linecap:butt;stroke-linejoin:miter;stroke:rgb(0%,0%,0%);stroke-opacity:1;stroke-miterlimit:10;" d="M 1003 109 L 977.019531 154 L 1028.980469 154 L 1003 109 "/>
</g>
</svg>
