<?xml version="1.0" encoding="UTF-8"?>
<svg xmlns="http://www.w3.org/2000/svg" xmlns:xlink="http://www.w3.org/1999/xlink" width="1179pt" height="517pt" viewBox="0 0 1179 517" version="1.1">
<g id="surface796">
<rect x="0" y="0" width="1179" height="517" style="fill:rgb(90%,90%,90%);fill-opacity:1;stroke:none;"/>
<path style="fill-rule:nonzero;fill:rgb(55%,51%,53%);fill-opacity:1;stroke-width:1;stroke-linecap:butt;stroke-linejoin:miter;stroke:rgb(0%,0%,0%);stroke-opacity:1;stroke-miterlimit:10;" d="M 286.214844 332 C 286.214844 343.714844 276.714844 353.214844 265 353.214844 C 253.285156 353.214844 243.785156 343.714844 243.785156 332 C 243.785156 320.285156 253.285156 310.785156 265 310.785156 C 276.714844 310.785156 286.214844 320.285156 286.214844 332 "/>
<path style="fill-rule:nonzero;fill:rgb(67%,100%,18%);fill-opacity:1;stroke-width:1;stroke-linecap:butt;stroke-linejoin:miter;stroke:rgb(0%,0%,0%);stroke-opacity:1;stroke-miterlimit:10;" d="M 282.214844 148 C 282.214844 159.714844 272.714844 169.214844 261 169.214844 C 249.285156 169.214844 239.785156 159.714844 239.785156 148 C 239.785156 136.285156 249.285156 126.785156 261 126.785156 C 272.714844 126.785156 282.214844 136.285156 282.214844 148 "/>
<path style="fill-rule:nonzero;fill:rgb(55%,51%,53%);fill-opacity:1;stroke-width:1;stroke-linecap:butt;stroke-linejoin:miter;stroke:rgb(0%,0%,0%);stroke-opacity:1;stroke-miterlimit:10;" d="M 143.214844 150 C 143.214844 161.714844 133.714844 171.214844 122 171.214844 C 110.285156 171.214844 100.785156 161.714844 100.785156 150 C 100.785156 138.285156 110.285156 128.785156 122 128.785156 C 133.714844 128.785156 143.214844 138.285156 143.214844 150 "/>
<path style="fill-rule:nonzero;fill:rgb(67%,100%,18%);fill-opacity:1;stroke-width:1;stroke-linecap:butt;stroke-linejoin:miter;stroke:rgb(0%,0%,0%);stroke-opacity:1;stroke-miterlimit:10;" d="M 105.214844 290 C 105.214844 301.714844 95.714844 311.214844 84 311.214844 C 72.285156 311.214844 62.785156 301.714844 62.785156 290 C 62.785156 278.285156 72.285156 268.785156 84 268.785156 C 95.714844 268.785156 105.214844 278.285156 105.214844 290 "/>
<path style="fill-rule:nonzero;fill:rgb(67%,100%,18%);fill-opacity:1;stroke-width:1;stroke-linecap:butt;stroke-linejoin:miter;stroke:rgb(0%,0%,0%);stroke-opacity:1;stroke-miterlimit:10;" d="M 816 273 L 790.019531 318 L 841.980469 318 L 816 273 "/>
<path style="fill-rule:nonzero;fill:rgb(55%,51%,53%);fill-opacity:1;stroke-width:1;stroke-linecap:butt;stroke-linejoin:miter;stroke:rgb(0%,0%,0%);stroke-opacity:1;stroke-miterlimit:10;" d="M 699 133 L 673.019531 178 L 724.980469 178 L 699 133 "/>
<path style="fill-rule:nonzero;fill:rgb(67%,100%,18%);fill-opacity:1;stroke-width:1;stroke-linecap:butt;stroke-linejoin:miter;stroke:rgb(0%,0%,0%);stroke-opacity:1;stroke-miterlimit:10;" d="M 883 87 L 857.019531 132 L 908.980469 132 L 883 87 "/>
<path style="fill-rule:nonzero;fill:rgb(55%,51%,53%);fill-opacity:1;stroke-width:1;stroke-linecap:butt;stroke-linejoin:miter;stroke:rgb(0%,0%,0%);stroke-opacity:1;stroke-miterlimit:10;" d="M 978 398 L 952.019531 443 L 1003.980469 443 L 978 398 "/>
<path style="fill-rule:nonzero;fill:rgb(67%,100%,18%);fill-opacity:1;stroke-width:1;stroke-linecap:butt;stroke-linejoin:miter;stroke:rgb(0%,0%,0%);stroke-opacity:1;stroke-miterlimit:10;" d="M 938 227 L 912.019531 272 L 963.980469 272 L 938 227 "/>
</g>
</svg>
