<?xml version="1.0" encoding="UTF-8"?>
<svg xmlns="http://www.w3.org/2000/svg" xmlns:xlink="http://www.w3.org/1999/xlink" width="1179pt" height="517pt" viewBox="0 0 1179 517" version="1.1">
<g id="surface1041">
<rect x="0" y="0" width="1179" height="517" style="fill:rgb(90%,90%,90%);fill-opacity:1;stroke:none;"/>
<path style="fill-rule:nonzero;fill:rgb(100%,51%,0%);fill-opacity:1;stroke-width:1;stroke-linecap:butt;stroke-linejoin:miter;stroke:rgb(0%,0%,0%);stroke-opacity:1;stroke-miterlimit:10;" d="M 494 253 L 523.664062 253 L 535.664062 224.785156 L 547.664062 253 L 577.332031 253 L 553.332031 270.4375 L 561.417969 301.980469 L 535.664062 284.542969 L 509.914062 301.980469 L 522.214844 270.4375 L 494 253 "/>
<path style="fill-rule:nonzero;fill:rgb(100%,51%,0%);fill-opacity:1;stroke-width:1;stroke-linecap:butt;stroke-linejoin:miter;stroke:rgb(0%,0%,0%);stroke-opacity:1;stroke-miterlimit:10;" d="M 181 417 L 210.664062 417 L 222.664062 388.785156 L 234.664062 417 L 264.332031 417 L 240.332031 434.4375 L 248.417969 465.980469 L 222.664062 448.542969 L 196.914062 465.980469 L 209.214844 434.4375 L 181 417 "/>
<path style="fill-rule:nonzero;fill:rgb(100%,51%,0%);fill-opacity:1;stroke-width:1;stroke-linecap:butt;stroke-linejoin:miter;stroke:rgb(0%,0%,0%);stroke-opacity:1;stroke-miterlimit:10;" d="M 351 265 L 380.664062 265 L 392.664062 236.785156 L 404.664062 265 L 434.332031 265 L 410.332031 282.4375 L 418.417969 313.980469 L 392.664062 296.542969 L 366.914062 313.980469 L 379.214844 282.4375 L 351 265 "/>
<path style="fill-rule:nonzero;fill:rgb(100%,51%,0%);fill-opacity:1;stroke-width:1;stroke-linecap:butt;stroke-linejoin:miter;stroke:rgb(0%,0%,0%);stroke-opacity:1;stroke-miterlimit:10;" d="M 828 124 L 857.664062 124 L 869.664062 95.785156 L 881.664062 124 L 911.332031 124 L 887.332031 141.4375 L 895.417969 172.980469 L 869.664062 155.542969 L 843.914062 172.980469 L 856.214844 141.4375 L 828 124 "/>
<path style="fill-rule:nonzero;fill:rgb(55%,51%,53%);fill-opacity:1;stroke-width:1;stroke-linecap:butt;stroke-linejoin:miter;stroke:rgb(0%,0%,0%);stroke-opacity:1;stroke-miterlimit:10;" d="M 730.214844 364 C 730.214844 375.714844 720.714844 385.214844 709 385.214844 C 697.285156 385.214844 687.785156 375.714844 687.785156 364 C 687.785156 352.285156 697.285156 342.785156 709 342.785156 C 720.714844 342.785156 730.214844 352.285156 730.214844 364 "/>
<path style="fill-rule:nonzero;fill:rgb(55%,51%,53%);fill-opacity:1;stroke-width:1;stroke-linecap:butt;stroke-linejoin:miter;stroke:rgb(0%,0%,0%);stroke-opacity:1;stroke-miterlimit:10;" d="M 968.214844 240 C 968.214844 251.714844 958.714844 261.214844 947 261.214844 C 935.285156 261.214844 925.785156 251.714844 925.785156 240 C 925.785156 228.285156 935.285156 218.785156 947 218.785156 C 958.714844 218.785156 968.214844 228.285156 968.214844 240 "/>
<path style="fill-rule:nonzero;fill:rgb(55%,51%,53%);fill-opacity:1;stroke-width:1;stroke-linecap:butt;stroke-linejoin:miter;stroke:rgb(0%,0%,0%);stroke-opacity:1;stroke-miterlimit:10;" d="M 522.214844 86 C 522.214844 97.714844 512.714844 107.214844 501 107.214844 C 489.285156 107.214844 479.785156 97.714844 479.785156 86 C 479.785156 74.285156 489.285156 64.785156 501 64.785156 C 512.714844 64.785156 522.214844 74.285156 522.214844 86 "/>
<path style="fill-rule:nonzero;fill:rgb(55%,51%,53%);fill-opacity:1;stroke-width:1;stroke-linecap:butt;stroke-linejoin:miter;stroke:rgb(0%,0%,0%);stroke-opacity:1;stroke-miterlimit:10;" d="M 334.214844 146 C 334.214844 157.714844 324.714844 167.214844 313 167.214844 C 301.285156 167.214844 291.785156 157.714844 291.785156 146 C 291.785156 134.285156 301.285156 124.785156 313 124.785156 C 324.714844 124.785156 334.214844 134.285156 334.214844 146 "/>
<path style="fill-rule:nonzero;fill:rgb(55%,51%,53%);fill-opacity:1;stroke-width:1;stroke-linecap:butt;stroke-linejoin:miter;stroke:rgb(0%,0%,0%);stroke-opacity:1;stroke-miterlimit:10;" d="M 177.214844 172 C 177.214844 183.714844 167.714844 193.214844 156 193.214844 C 144.285156 193.214844 134.785156 183.714844 134.785156 172 C 134.785156 160.285156 144.285156 150.785156 156 150.785156 C 167.714844 150.785156 177.214844 160.285156 177.214844 172 "/>
</g>
</svg>
