<?xml version="1.0" encoding="UTF-8"?>
<svg xmlns="http://www.w3.org/2000/svg" xmlns:xlink="http://www.w3.org/1999/xlink" width="1179pt" height="517pt" viewBox="0 0 1179 517" version="1.1">
<g id="surface631">
<rect x="0" y="0" width="1179" height="517" style="fill:rgb(90%,90%,90%);fill-opacity:1;stroke:none;"/>
<path style="fill-rule:nonzero;fill:rgb(53%,27%,7%);fill-opacity:1;stroke-width:1;stroke-linecap:butt;stroke-linejoin:miter;stroke:rgb(0%,0%,0%);stroke-opacity:1;stroke-miterlimit:10;" d="M 179.214844 327 C 179.214844 338.714844 169.714844 348.214844 158 348.214844 C 146.285156 348.214844 136.785156 338.714844 136.785156 327 C 136.785156 315.285156 146.285156 305.785156 158 305.785156 C 169.714844 305.785156 179.214844 315.285156 179.214844 327 "/>
<path style="fill-rule:nonzero;fill:rgb(100%,51%,0%);fill-opacity:1;stroke-width:1;stroke-linecap:butt;stroke-linejoin:miter;stroke:rgb(0%,0%,0%);stroke-opacity:1;stroke-miterlimit:10;" d="M 386 280 L 415.664062 280 L 427.664062 251.785156 L 439.664062 280 L 469.332031 280 L 445.332031 297.4375 L 453.417969 328.980469 L 427.664062 311.542969 L 401.914062 328.980469 L 414.214844 297.4375 L 386 280 "/>
<path style="fill-rule:nonzero;fill:rgb(100%,51%,0%);fill-opacity:1;stroke-width:1;stroke-linecap:butt;stroke-linejoin:miter;stroke:rgb(0%,0%,0%);stroke-opacity:1;stroke-miterlimit:10;" d="M 419 147 L 448.664062 147 L 460.664062 118.785156 L 472.664062 147 L 502.332031 147 L 478.332031 164.4375 L 486.417969 195.980469 L 460.664062 178.542969 L 434.914062 195.980469 L 447.214844 164.4375 L 419 147 "/>
<path style="fill-rule:nonzero;fill:rgb(53%,27%,7%);fill-opacity:1;stroke-width:1;stroke-linecap:butt;stroke-linejoin:miter;stroke:rgb(0%,0%,0%);stroke-opacity:1;stroke-miterlimit:10;" d="M 182.214844 87 C 182.214844 98.714844 172.714844 108.214844 161 108.214844 C 149.285156 108.214844 139.785156 98.714844 139.785156 87 C 139.785156 75.285156 149.285156 65.785156 161 65.785156 C 172.714844 65.785156 182.214844 75.285156 182.214844 87 "/>
<path style="fill-rule:nonzero;fill:rgb(100%,51%,0%);fill-opacity:1;stroke-width:1;stroke-linecap:butt;stroke-linejoin:miter;stroke:rgb(0%,0%,0%);stroke-opacity:1;stroke-miterlimit:10;" d="M 228 417 L 257.664062 417 L 269.664062 388.785156 L 281.664062 417 L 311.332031 417 L 287.332031 434.4375 L 295.417969 465.980469 L 269.664062 448.542969 L 243.914062 465.980469 L 256.214844 434.4375 L 228 417 "/>
<path style="fill-rule:nonzero;fill:rgb(100%,51%,0%);fill-opacity:1;stroke-width:1;stroke-linecap:butt;stroke-linejoin:miter;stroke:rgb(0%,0%,0%);stroke-opacity:1;stroke-miterlimit:10;" d="M 275 172 L 304.664062 172 L 316.664062 143.785156 L 328.664062 172 L 358.332031 172 L 334.332031 189.4375 L 342.417969 220.980469 L 316.664062 203.542969 L 290.914062 220.980469 L 303.214844 189.4375 L 275 172 "/>
<path style="fill-rule:nonzero;fill:rgb(100%,51%,0%);fill-opacity:1;stroke-width:1;stroke-linecap:butt;stroke-linejoin:miter;stroke:rgb(0%,0%,0%);stroke-opacity:1;stroke-miterlimit:10;" d="M 1041 192 L 1070.664062 192 L 1082.664062 163.785156 L 1094.664062 192 L 1124.332031 192 L 1100.332031 209.4375 L 1108.417969 240.980469 L 1082.664062 223.542969 L 1056.914062 240.980469 L 1069.214844 209.4375 L 1041 192 "/>
<path style="fill-rule:nonzero;fill:rgb(53%,27%,7%);fill-opacity:1;stroke-width:1;stroke-linecap:butt;stroke-linejoin:miter;stroke:rgb(0%,0%,0%);stroke-opacity:1;stroke-miterlimit:10;" d="M 1039.214844 359 C 1039.214844 370.714844 1029.714844 380.214844 1018 380.214844 C 1006.285156 380.214844 996.785156 370.714844 996.785156 359 C 996.785156 347.285156 1006.285156 337.785156 1018 337.785156 C 1029.714844 337.785156 1039.214844 347.285156 1039.214844 359 "/>
<path style="fill-rule:nonzero;fill:rgb(53%,27%,7%);fill-opacity:1;stroke-width:1;stroke-linecap:butt;stroke-linejoin:miter;stroke:rgb(0%,0%,0%);stroke-opacity:1;stroke-miterlimit:10;" d="M 723.214844 225 C 723.214844 236.714844 713.714844 246.214844 702 246.214844 C 690.285156 246.214844 680.785156 236.714844 680.785156 225 C 680.785156 213.285156 690.285156 203.785156 702 203.785156 C 713.714844 203.785156 723.214844 213.285156 723.214844 225 "/>
<path style="fill-rule:nonzero;fill:rgb(53%,27%,7%);fill-opacity:1;stroke-width:1;stroke-linecap:butt;stroke-linejoin:miter;stroke:rgb(0%,0%,0%);stroke-opacity:1;stroke-miterlimit:10;" d="M 823.214844 336 C 823.214844 347.714844 813.714844 357.214844 802 357.214844 C 790.285156 357.214844 780.785156 347.714844 780.785156 336 C 780.785156 324.285156 790.285156 314.785156 802 314.785156 C 813.714844 314.785156 823.214844 324.285156 823.214844 336 "/>
</g>
</svg>
