<?xml version="1.0" encoding="UTF-8"?>
<svg xmlns="http://www.w3.org/2000/svg" xmlns:xlink="http://www.w3.org/1999/xlink" width="1179pt" height="517pt" viewBox="0 0 1179 517" version="1.1">
<g id="surface1181">
<rect x="0" y="0" width="1179" height="517" style="fill:rgb(90%,90%,90%);fill-opacity:1;stroke:none;"/>
<path style="fill-rule:nonzero;fill:rgb(35%,70%,90%);fill-opacity:1;stroke-width:1;stroke-linecap:butt;stroke-linejoin:miter;stroke:rgb(0%,0%,0%);stroke-opacity:1;stroke-miterlimit:10;" d="M 422.214844 163 C 422.214844 174.714844 412.714844 184.214844 401 184.214844 C 389.285156 184.214844 379.785156 174.714844 379.785156 163 C 379.785156 151.285156 389.285156 141.785156 401 141.785156 C 412.714844 141.785156 422.214844 151.285156 422.214844 163 "/>
<path style="fill-rule:nonzero;fill:rgb(35%,70%,90%);fill-opacity:1;stroke-width:1;stroke-linecap:butt;stroke-linejoin:miter;stroke:rgb(0%,0%,0%);stroke-opacity:1;stroke-miterlimit:10;" d="M 281.214844 321 C 281.214844 332.714844 271.714844 342.214844 260 342.214844 C 248.285156 342.214844 238.785156 332.714844 238.785156 321 C 238.785156 309.285156 248.285156 299.785156 260 299.785156 C 271.714844 299.785156 281.214844 309.285156 281.214844 321 "/>
<path style="fill-rule:nonzero;fill:rgb(35%,70%,90%);fill-opacity:1;stroke-width:1;stroke-linecap:butt;stroke-linejoin:miter;stroke:rgb(0%,0%,0%);stroke-opacity:1;stroke-miterlimit:10;" d="M 926.214844 401 C 926.214844 412.714844 916.714844 422.214844 905 422.214844 C 893.285156 422.214844 883.785156 412.714844 883.785156 401 C 883.785156 389.285156 893.285156 379.785156 905 379.785156 C 916.714844 379.785156 926.214844 389.285156 926.214844 401 "/>
<path style="fill-rule:nonzero;fill:rgb(35%,70%,90%);fill-opacity:1;stroke-width:1;stroke-linecap:butt;stroke-linejoin:miter;stroke:rgb(0%,0%,0%);stroke-opacity:1;stroke-miterlimit:10;" d="M 736.214844 347 C 736.214844 358.714844 726.714844 368.214844 715 368.214844 C 703.285156 368.214844 693.785156 358.714844 693.785156 347 C 693.785156 335.285156 703.285156 325.785156 715 325.785156 C 726.714844 325.785156 736.214844 335.285156 736.214844 347 "/>
<path style="fill-rule:nonzero;fill:rgb(55%,51%,53%);fill-opacity:1;stroke-width:1;stroke-linecap:butt;stroke-linejoin:miter;stroke:rgb(0%,0%,0%);stroke-opacity:1;stroke-miterlimit:10;" d="M 160 133 L 189.664062 133 L 201.664062 104.785156 L 213.664062 133 L 243.332031 133 L 219.332031 150.4375 L 227.417969 181.980469 L 201.664062 164.542969 L 175.914062 181.980469 L 188.214844 150.4375 L 160 133 "/>
<path style="fill-rule:nonzero;fill:rgb(55%,51%,53%);fill-opacity:1;stroke-width:1;stroke-linecap:butt;stroke-linejoin:miter;stroke:rgb(0%,0%,0%);stroke-opacity:1;stroke-miterlimit:10;" d="M 442 422 L 471.664062 422 L 483.664062 393.785156 L 495.664062 422 L 525.332031 422 L 501.332031 439.4375 L 509.417969 470.980469 L 483.664062 453.542969 L 457.914062 470.980469 L 470.214844 439.4375 L 442 422 "/>
<path style="fill-rule:nonzero;fill:rgb(55%,51%,53%);fill-opacity:1;stroke-width:1;stroke-linecap:butt;stroke-linejoin:miter;stroke:rgb(0%,0%,0%);stroke-opacity:1;stroke-miterlimit:10;" d="M 629 261 L 658.664062 261 L 670.664062 232.785156 L 682.664062 261 L 712.332031 261 L 688.332031 278.4375 L 696.417969 309.980469 L 670.664062 292.542969 L 644.914062 309.980469 L 657.214844 278.4375 L 629 261 "/>
<path style="fill-rule:nonzero;fill:rgb(55%,51%,53%);fill-opacity:1;stroke-width:1;stroke-linecap:butt;stroke-linejoin:miter;stroke:rgb(0%,0%,0%);stroke-opacity:1;stroke-miterlimit:10;" d="M 918 199 L 947.664062 199 L 959.664062 170.785156 L 971.664062 199 L 1001.332031 199 L 977.332031 216.4375 L 985.417969 247.980469 L 959.664062 230.542969 L 933.914062 247.980469 L 946.214844 216.4375 L 918 199 "/>
</g>
</svg>
