<?xml version="1.0" encoding="UTF-8"?>
<svg xmlns="http://www.w3.org/2000/svg" xmlns:xlink="http://www.w3.org/1999/xlink" width="1179pt" height="517pt" viewBox="0 0 1179 517" version="1.1">
<g id="surface1201">
<rect x="0" y="0" width="1179" height="517" style="fill:rgb(90%,90%,90%);fill-opacity:1;stroke:none;"/>
<path style="fill-rule:nonzero;fill:rgb(100%,51%,0%);fill-opacity:1;stroke-width:1;stroke-linecap:butt;stroke-linejoin:miter;stroke:rgb(0%,0%,0%);stroke-opacity:1;stroke-miterlimit:10;" d="M 631 331 L 660.664062 331 L 672.664062 302.785156 L 684.664062 331 L 714.332031 331 L 690.332031 348.4375 L 698.417969 379.980469 L 672.664062 362.542969 L 646.914062 379.980469 L 659.214844 348.4375 L 631 331 "/>
<path style="fill-rule:nonzero;fill:rgb(100%,51%,0%);fill-opacity:1;stroke-width:1;stroke-linecap:butt;stroke-linejoin:miter;stroke:rgb(0%,0%,0%);stroke-opacity:1;stroke-miterlimit:10;" d="M 897 338 L 926.664062 338 L 938.664062 309.785156 L 950.664062 338 L 980.332031 338 L 956.332031 355.4375 L 964.417969 386.980469 L 938.664062 369.542969 L 912.914062 386.980469 L 925.214844 355.4375 L 897 338 "/>
<path style="fill-rule:nonzero;fill:rgb(100%,51%,0%);fill-opacity:1;stroke-width:1;stroke-linecap:butt;stroke-linejoin:miter;stroke:rgb(0%,0%,0%);stroke-opacity:1;stroke-miterlimit:10;" d="M 93 309 L 122.664062 309 L 134.664062 280.785156 L 146.664062 309 L 176.332031 309 L 152.332031 326.4375 L 160.417969 357.980469 L 134.664062 340.542969 L 108.914062 357.980469 L 121.214844 326.4375 L 93 309 "/>
<path style="fill-rule:nonzero;fill:rgb(100%,51%,0%);fill-opacity:1;stroke-width:1;stroke-linecap:butt;stroke-linejoin:miter;stroke:rgb(0%,0%,0%);stroke-opacity:1;stroke-miterlimit:10;" d="M 189 181 L 218.664062 181 L 230.664062 152.785156 L 242.664062 181 L 272.332031 181 L 248.332031 198.4375 L 256.417969 229.980469 L 230.664062 212.542969 L 204.914062 229.980469 L 217.214844 198.4375 L 189 181 "/>
<path style="fill-rule:nonzero;fill:rgb(100%,51%,0%);fill-opacity:1;stroke-width:1;stroke-linecap:butt;stroke-linejoin:miter;stroke:rgb(0%,0%,0%);stroke-opacity:1;stroke-miterlimit:10;" d="M 655 142 L 684.664062 142 L 696.664062 113.785156 L 708.664062 142 L 738.332031 142 L 714.332031 159.4375 L 722.417969 190.980469 L 696.664062 173.542969 L 670.914062 190.980469 L 683.214844 159.4375 L 655 142 "/>
<path style="fill-rule:nonzero;fill:rgb(35%,70%,90%);fill-opacity:1;stroke-width:1;stroke-linecap:butt;stroke-linejoin:miter;stroke:rgb(0%,0%,0%);stroke-opacity:1;stroke-miterlimit:10;" d="M 1001 402 L 975.019531 447 L 1026.980469 447 L 1001 402 "/>
<path style="fill-rule:nonzero;fill:rgb(35%,70%,90%);fill-opacity:1;stroke-width:1;stroke-linecap:butt;stroke-linejoin:miter;stroke:rgb(0%,0%,0%);stroke-opacity:1;stroke-miterlimit:10;" d="M 794 82 L 768.019531 127 L 819.980469 127 L 794 82 "/>
<path style="fill-rule:nonzero;fill:rgb(35%,70%,90%);fill-opacity:1;stroke-width:1;stroke-linecap:butt;stroke-linejoin:miter;stroke:rgb(0%,0%,0%);stroke-opacity:1;stroke-miterlimit:10;" d="M 720 400 L 694.019531 445 L 745.980469 445 L 720 400 "/>
</g>
</svg>
