<?xml version="1.0" encoding="UTF-8"?>
<svg xmlns="http://www.w3.org/2000/svg" xmlns:xlink="http://www.w3.org/1999/xlink" width="1179pt" height="517pt" viewBox="0 0 1179 517" version="1.1">
<g id="surface196">
<rect x="0" y="0" width="1179" height="517" style="fill:rgb(90%,90%,90%);fill-opacity:1;stroke:none;"/>
<path style="fill-rule:nonzero;fill:rgb(35%,70%,90%);fill-opacity:1;stroke-width:1;stroke-linecap:butt;stroke-linejoin:miter;stroke:rgb(0%,0%,0%);stroke-opacity:1;stroke-miterlimit:10;" d="M 340.214844 417 C 340.214844 428.714844 330.714844 438.214844 319 438.214844 C 307.285156 438.214844 297.785156 428.714844 297.785156 417 C 297.785156 405.285156 307.285156 395.785156 319 395.785156 C 330.714844 395.785156 340.214844 405.285156 340.214844 417 "/>
<path style="fill-rule:nonzero;fill:rgb(35%,70%,90%);fill-opacity:1;stroke-width:1;stroke-linecap:butt;stroke-linejoin:miter;stroke:rgb(0%,0%,0%);stroke-opacity:1;stroke-miterlimit:10;" d="M 436.214844 392 C 436.214844 403.714844 426.714844 413.214844 415 413.214844 C 403.285156 413.214844 393.785156 403.714844 393.785156 392 C 393.785156 380.285156 403.285156 370.785156 415 370.785156 C 426.714844 370.785156 436.214844 380.285156 436.214844 392 "/>
<path style="fill-rule:nonzero;fill:rgb(100%,51%,0%);fill-opacity:1;stroke-width:1;stroke-linecap:butt;stroke-linejoin:miter;stroke:rgb(0%,0%,0%);stroke-opacity:1;stroke-miterlimit:10;" d="M 173.214844 321 C 173.214844 332.714844 163.714844 342.214844 152 342.214844 C 140.285156 342.214844 130.785156 332.714844 130.785156 321 C 130.785156 309.285156 140.285156 299.785156 152 299.785156 C 163.714844 299.785156 173.214844 309.285156 173.214844 321 "/>
<path style="fill-rule:nonzero;fill:rgb(100%,51%,0%);fill-opacity:1;stroke-width:1;stroke-linecap:butt;stroke-linejoin:miter;stroke:rgb(0%,0%,0%);stroke-opacity:1;stroke-miterlimit:10;" d="M 352.214844 206 C 352.214844 217.714844 342.714844 227.214844 331 227.214844 C 319.285156 227.214844 309.785156 217.714844 309.785156 206 C 309.785156 194.285156 319.285156 184.785156 331 184.785156 C 342.714844 184.785156 352.214844 194.285156 352.214844 206 "/>
<path style="fill-rule:nonzero;fill:rgb(35%,70%,90%);fill-opacity:1;stroke-width:1;stroke-linecap:butt;stroke-linejoin:miter;stroke:rgb(0%,0%,0%);stroke-opacity:1;stroke-miterlimit:10;" d="M 145.214844 177 C 145.214844 188.714844 135.714844 198.214844 124 198.214844 C 112.285156 198.214844 102.785156 188.714844 102.785156 177 C 102.785156 165.285156 112.285156 155.785156 124 155.785156 C 135.714844 155.785156 145.214844 165.285156 145.214844 177 "/>
<path style="fill-rule:nonzero;fill:rgb(100%,51%,0%);fill-opacity:1;stroke-width:1;stroke-linecap:butt;stroke-linejoin:miter;stroke:rgb(0%,0%,0%);stroke-opacity:1;stroke-miterlimit:10;" d="M 728 173 L 702.019531 218 L 753.980469 218 L 728 173 "/>
<path style="fill-rule:nonzero;fill:rgb(100%,51%,0%);fill-opacity:1;stroke-width:1;stroke-linecap:butt;stroke-linejoin:miter;stroke:rgb(0%,0%,0%);stroke-opacity:1;stroke-miterlimit:10;" d="M 828 251 L 802.019531 296 L 853.980469 296 L 828 251 "/>
<path style="fill-rule:nonzero;fill:rgb(35%,70%,90%);fill-opacity:1;stroke-width:1;stroke-linecap:butt;stroke-linejoin:miter;stroke:rgb(0%,0%,0%);stroke-opacity:1;stroke-miterlimit:10;" d="M 981 305 L 955.019531 350 L 1006.980469 350 L 981 305 "/>
<path style="fill-rule:nonzero;fill:rgb(35%,70%,90%);fill-opacity:1;stroke-width:1;stroke-linecap:butt;stroke-linejoin:miter;stroke:rgb(0%,0%,0%);stroke-opacity:1;stroke-miterlimit:10;" d="M 972 132 L 946.019531 177 L 997.980469 177 L 972 132 "/>
<path style="fill-rule:nonzero;fill:rgb(100%,51%,0%);fill-opacity:1;stroke-width:1;stroke-linecap:butt;stroke-linejoin:miter;stroke:rgb(0%,0%,0%);stroke-opacity:1;stroke-miterlimit:10;" d="M 809 94 L 783.019531 139 L 834.980469 139 L 809 94 "/>
</g>
</svg>
