<?xml version="1.0" encoding="UTF-8"?>
<svg xmlns="http://www.w3.org/2000/svg" xmlns:xlink="http://www.w3.org/1999/xlink" width="1179pt" height="517pt" viewBox="0 0 1179 517" version="1.1">
<g id="surface1196">
<rect x="0" y="0" width="1179" height="517" style="fill:rgb(90%,90%,90%);fill-opacity:1;stroke:none;"/>
<path style="fill-rule:nonzero;fill:rgb(55%,51%,53%);fill-opacity:1;stroke-width:1;stroke-linecap:butt;stroke-linejoin:miter;stroke:rgb(0%,0%,0%);stroke-opacity:1;stroke-miterlimit:10;" d="M 460 142.601562 C 460 128.199219 436 128.199219 436 142.601562 C 436 157 460 159.398438 460 171.398438 C 460 159.398438 484 157 484 142.601562 C 484 128.199219 460 128.199219 460 142.601562 "/>
<path style="fill-rule:nonzero;fill:rgb(55%,51%,53%);fill-opacity:1;stroke-width:1;stroke-linecap:butt;stroke-linejoin:miter;stroke:rgb(0%,0%,0%);stroke-opacity:1;stroke-miterlimit:10;" d="M 171 124.601562 C 171 110.199219 147 110.199219 147 124.601562 C 147 139 171 141.398438 171 153.398438 C 171 141.398438 195 139 195 124.601562 C 195 110.199219 171 110.199219 171 124.601562 "/>
<path style="fill-rule:nonzero;fill:rgb(55%,51%,53%);fill-opacity:1;stroke-width:1;stroke-linecap:butt;stroke-linejoin:miter;stroke:rgb(0%,0%,0%);stroke-opacity:1;stroke-miterlimit:10;" d="M 1005 275.601562 C 1005 261.199219 981 261.199219 981 275.601562 C 981 290 1005 292.398438 1005 304.398438 C 1005 292.398438 1029 290 1029 275.601562 C 1029 261.199219 1005 261.199219 1005 275.601562 "/>
<path style="fill-rule:nonzero;fill:rgb(55%,51%,53%);fill-opacity:1;stroke-width:1;stroke-linecap:butt;stroke-linejoin:miter;stroke:rgb(0%,0%,0%);stroke-opacity:1;stroke-miterlimit:10;" d="M 639 245.601562 C 639 231.199219 615 231.199219 615 245.601562 C 615 260 639 262.398438 639 274.398438 C 639 262.398438 663 260 663 245.601562 C 663 231.199219 639 231.199219 639 245.601562 "/>
<path style="fill-rule:nonzero;fill:rgb(53%,27%,7%);fill-opacity:1;stroke-width:1;stroke-linecap:butt;stroke-linejoin:miter;stroke:rgb(0%,0%,0%);stroke-opacity:1;stroke-miterlimit:10;" d="M 653 93 L 682.664062 93 L 694.664062 64.785156 L 706.664062 93 L 736.332031 93 L 712.332031 110.4375 L 720.417969 141.980469 L 694.664062 124.542969 L 668.914062 141.980469 L 681.214844 110.4375 L 653 93 "/>
<path style="fill-rule:nonzero;fill:rgb(53%,27%,7%);fill-opacity:1;stroke-width:1;stroke-linecap:butt;stroke-linejoin:miter;stroke:rgb(0%,0%,0%);stroke-opacity:1;stroke-miterlimit:10;" d="M 303 255 L 332.664062 255 L 344.664062 226.785156 L 356.664062 255 L 386.332031 255 L 362.332031 272.4375 L 370.417969 303.980469 L 344.664062 286.542969 L 318.914062 303.980469 L 331.214844 272.4375 L 303 255 "/>
<path style="fill-rule:nonzero;fill:rgb(53%,27%,7%);fill-opacity:1;stroke-width:1;stroke-linecap:butt;stroke-linejoin:miter;stroke:rgb(0%,0%,0%);stroke-opacity:1;stroke-miterlimit:10;" d="M 853 431 L 882.664062 431 L 894.664062 402.785156 L 906.664062 431 L 936.332031 431 L 912.332031 448.4375 L 920.417969 479.980469 L 894.664062 462.542969 L 868.914062 479.980469 L 881.214844 448.4375 L 853 431 "/>
<path style="fill-rule:nonzero;fill:rgb(53%,27%,7%);fill-opacity:1;stroke-width:1;stroke-linecap:butt;stroke-linejoin:miter;stroke:rgb(0%,0%,0%);stroke-opacity:1;stroke-miterlimit:10;" d="M 596 420 L 625.664062 420 L 637.664062 391.785156 L 649.664062 420 L 679.332031 420 L 655.332031 437.4375 L 663.417969 468.980469 L 637.664062 451.542969 L 611.914062 468.980469 L 624.214844 437.4375 L 596 420 "/>
</g>
</svg>
