<?xml version="1.0" encoding="UTF-8"?>
<svg xmlns="http://www.w3.org/2000/svg" xmlns:xlink="http://www.w3.org/1999/xlink" width="1179pt" height="517pt" viewBox="0 0 1179 517" version="1.1">
<g id="surface756">
<rect x="0" y="0" width="1179" height="517" style="fill:rgb(90%,90%,90%);fill-opacity:1;stroke:none;"/>
<path style="fill-rule:nonzero;fill:rgb(100%,0%,0%);fill-opacity:1;stroke-width:1;stroke-linecap:butt;stroke-linejoin:miter;stroke:rgb(0%,0%,0%);stroke-opacity:1;stroke-miterlimit:10;" d="M 337 213.601562 C 337 199.199219 313 199.199219 313 213.601562 C 313 228 337 230.398438 337 242.398438 C 337 230.398438 361 228 361 213.601562 C 361 199.199219 337 199.199219 337 213.601562 "/>
<path style="fill-rule:nonzero;fill:rgb(100%,0%,0%);fill-opacity:1;stroke-width:1;stroke-linecap:butt;stroke-linejoin:miter;stroke:rgb(0%,0%,0%);stroke-opacity:1;stroke-miterlimit:10;" d="M 742 385.601562 C 742 371.199219 718 371.199219 718 385.601562 C 718 400 742 402.398438 742 414.398438 C 742 402.398438 766 400 766 385.601562 C 766 371.199219 742 371.199219 742 385.601562 "/>
<path style="fill-rule:nonzero;fill:rgb(100%,0%,0%);fill-opacity:1;stroke-width:1;stroke-linecap:butt;stroke-linejoin:miter;stroke:rgb(0%,0%,0%);stroke-opacity:1;stroke-miterlimit:10;" d="M 914 277.601562 C 914 263.199219 890 263.199219 890 277.601562 C 890 292 914 294.398438 914 306.398438 C 914 294.398438 938 292 938 277.601562 C 938 263.199219 914 263.199219 914 277.601562 "/>
<path style="fill-rule:nonzero;fill:rgb(100%,0%,0%);fill-opacity:1;stroke-width:1;stroke-linecap:butt;stroke-linejoin:miter;stroke:rgb(0%,0%,0%);stroke-opacity:1;stroke-miterlimit:10;" d="M 456 94.601562 C 456 80.199219 432 80.199219 432 94.601562 C 432 109 456 111.398438 456 123.398438 C 456 111.398438 480 109 480 94.601562 C 480 80.199219 456 80.199219 456 94.601562 "/>
<path style="fill-rule:nonzero;fill:rgb(0%,0%,0%);fill-opacity:1;stroke-width:1;stroke-linecap:butt;stroke-linejoin:miter;stroke:rgb(0%,0%,0%);stroke-opacity:1;stroke-miterlimit:10;" d="M 725 113 L 705 113 L 705 123 L 725 123 L 725 143 L 735 143 L 735 123 L 755 123 L 755 113 L 735 113 L 735 93 L 725 93 L 725 113 "/>
<path style="fill-rule:nonzero;fill:rgb(0%,0%,0%);fill-opacity:1;stroke-width:1;stroke-linecap:butt;stroke-linejoin:miter;stroke:rgb(0%,0%,0%);stroke-opacity:1;stroke-miterlimit:10;" d="M 79 418 L 59 418 L 59 428 L 79 428 L 79 448 L 89 448 L 89 428 L 109 428 L 109 418 L 89 418 L 89 398 L 79 398 L 79 418 "/>
<path style="fill-rule:nonzero;fill:rgb(0%,0%,0%);fill-opacity:1;stroke-width:1;stroke-linecap:butt;stroke-linejoin:miter;stroke:rgb(0%,0%,0%);stroke-opacity:1;stroke-miterlimit:10;" d="M 444 413 L 424 413 L 424 423 L 444 423 L 444 443 L 454 443 L 454 423 L 474 423 L 474 413 L 454 413 L 454 393 L 444 393 L 444 413 "/>
</g>
</svg>
