<?xml version="1.0" encoding="UTF-8"?>
<svg xmlns="http://www.w3.org/2000/svg" xmlns:xlink="http://www.w3.org/1999/xlink" width="1179pt" height="517pt" viewBox="0 0 1179 517" version="1.1">
<g id="surface1466">
<rect x="0" y="0" width="1179" height="517" style="fill:rgb(90%,90%,90%);fill-opacity:1;stroke:none;"/>
<path style="fill-rule:nonzero;fill:rgb(55%,51%,53%);fill-opacity:1;stroke-width:1;stroke-linecap:butt;stroke-linejoin:miter;stroke:rgb(0%,0%,0%);stroke-opacity:1;stroke-miterlimit:10;" d="M 685 367.601562 C 685 353.199219 661 353.199219 661 367.601562 C 661 382 685 384.398438 685 396.398438 C 685 384.398438 709 382 709 367.601562 C 709 353.199219 685 353.199219 685 367.601562 "/>
<path style="fill-rule:nonzero;fill:rgb(55%,51%,53%);fill-opacity:1;stroke-width:1;stroke-linecap:butt;stroke-linejoin:miter;stroke:rgb(0%,0%,0%);stroke-opacity:1;stroke-miterlimit:10;" d="M 444 263.601562 C 444 249.199219 420 249.199219 420 263.601562 C 420 278 444 280.398438 444 292.398438 C 444 280.398438 468 278 468 263.601562 C 468 249.199219 444 249.199219 444 263.601562 "/>
<path style="fill-rule:nonzero;fill:rgb(55%,51%,53%);fill-opacity:1;stroke-width:1;stroke-linecap:butt;stroke-linejoin:miter;stroke:rgb(0%,0%,0%);stroke-opacity:1;stroke-miterlimit:10;" d="M 604 179.601562 C 604 165.199219 580 165.199219 580 179.601562 C 580 194 604 196.398438 604 208.398438 C 604 196.398438 628 194 628 179.601562 C 628 165.199219 604 165.199219 604 179.601562 "/>
<path style="fill-rule:nonzero;fill:rgb(55%,51%,53%);fill-opacity:1;stroke-width:1;stroke-linecap:butt;stroke-linejoin:miter;stroke:rgb(0%,0%,0%);stroke-opacity:1;stroke-miterlimit:10;" d="M 133 374.601562 C 133 360.199219 109 360.199219 109 374.601562 C 109 389 133 391.398438 133 403.398438 C 133 391.398438 157 389 157 374.601562 C 157 360.199219 133 360.199219 133 374.601562 "/>
<path style="fill-rule:nonzero;fill:rgb(53%,27%,7%);fill-opacity:1;stroke-width:1;stroke-linecap:butt;stroke-linejoin:miter;stroke:rgb(0%,0%,0%);stroke-opacity:1;stroke-miterlimit:10;" d="M 755 270 L 784.664062 270 L 796.664062 241.785156 L 808.664062 270 L 838.332031 270 L 814.332031 287.4375 L 822.417969 318.980469 L 796.664062 301.542969 L 770.914062 318.980469 L 783.214844 287.4375 L 755 270 "/>
<path style="fill-rule:nonzero;fill:rgb(53%,27%,7%);fill-opacity:1;stroke-width:1;stroke-linecap:butt;stroke-linejoin:miter;stroke:rgb(0%,0%,0%);stroke-opacity:1;stroke-miterlimit:10;" d="M 949 163 L 978.664062 163 L 990.664062 134.785156 L 1002.664062 163 L 1032.332031 163 L 1008.332031 180.4375 L 1016.417969 211.980469 L 990.664062 194.542969 L 964.914062 211.980469 L 977.214844 180.4375 L 949 163 "/>
<path style="fill-rule:nonzero;fill:rgb(53%,27%,7%);fill-opacity:1;stroke-width:1;stroke-linecap:butt;stroke-linejoin:miter;stroke:rgb(0%,0%,0%);stroke-opacity:1;stroke-miterlimit:10;" d="M 80 196 L 109.664062 196 L 121.664062 167.785156 L 133.664062 196 L 163.332031 196 L 139.332031 213.4375 L 147.417969 244.980469 L 121.664062 227.542969 L 95.914062 244.980469 L 108.214844 213.4375 L 80 196 "/>
<path style="fill-rule:nonzero;fill:rgb(53%,27%,7%);fill-opacity:1;stroke-width:1;stroke-linecap:butt;stroke-linejoin:miter;stroke:rgb(0%,0%,0%);stroke-opacity:1;stroke-miterlimit:10;" d="M 970 324 L 999.664062 324 L 1011.664062 295.785156 L 1023.664062 324 L 1053.332031 324 L 1029.332031 341.4375 L 1037.417969 372.980469 L 1011.664062 355.542969 L 985.914062 372.980469 L 998.214844 341.4375 L 970 324 "/>
</g>
</svg>
