<?xml version="1.0" encoding="UTF-8"?>
<svg xmlns="http://www.w3.org/2000/svg" xmlns:xlink="http://www.w3.org/1999/xlink" width="1179pt" height="517pt" viewBox="0 0 1179 517" version="1.1">
<g id="surface901">
<rect x="0" y="0" width="1179" height="517" style="fill:rgb(90%,90%,90%);fill-opacity:1;stroke:none;"/>
<path style="fill-rule:nonzero;fill:rgb(53%,27%,7%);fill-opacity:1;stroke-width:1;stroke-linecap:butt;stroke-linejoin:miter;stroke:rgb(0%,0%,0%);stroke-opacity:1;stroke-miterlimit:10;" d="M 201 169.601562 C 201 155.199219 177 155.199219 177 169.601562 C 177 184 201 186.398438 201 198.398438 C 201 186.398438 225 184 225 169.601562 C 225 155.199219 201 155.199219 201 169.601562 "/>
<path style="fill-rule:nonzero;fill:rgb(53%,27%,7%);fill-opacity:1;stroke-width:1;stroke-linecap:butt;stroke-linejoin:miter;stroke:rgb(0%,0%,0%);stroke-opacity:1;stroke-miterlimit:10;" d="M 444 306.601562 C 444 292.199219 420 292.199219 420 306.601562 C 420 321 444 323.398438 444 335.398438 C 444 323.398438 468 321 468 306.601562 C 468 292.199219 444 292.199219 444 306.601562 "/>
<path style="fill-rule:nonzero;fill:rgb(53%,27%,7%);fill-opacity:1;stroke-width:1;stroke-linecap:butt;stroke-linejoin:miter;stroke:rgb(0%,0%,0%);stroke-opacity:1;stroke-miterlimit:10;" d="M 678 296.601562 C 678 282.199219 654 282.199219 654 296.601562 C 654 311 678 313.398438 678 325.398438 C 678 313.398438 702 311 702 296.601562 C 702 282.199219 678 282.199219 678 296.601562 "/>
<path style="fill-rule:nonzero;fill:rgb(53%,27%,7%);fill-opacity:1;stroke-width:1;stroke-linecap:butt;stroke-linejoin:miter;stroke:rgb(0%,0%,0%);stroke-opacity:1;stroke-miterlimit:10;" d="M 272 371.601562 C 272 357.199219 248 357.199219 248 371.601562 C 248 386 272 388.398438 272 400.398438 C 272 388.398438 296 386 296 371.601562 C 296 357.199219 272 357.199219 272 371.601562 "/>
<path style="fill-rule:nonzero;fill:rgb(53%,27%,7%);fill-opacity:1;stroke-width:1;stroke-linecap:butt;stroke-linejoin:miter;stroke:rgb(0%,0%,0%);stroke-opacity:1;stroke-miterlimit:10;" d="M 733 153.601562 C 733 139.199219 709 139.199219 709 153.601562 C 709 168 733 170.398438 733 182.398438 C 733 170.398438 757 168 757 153.601562 C 757 139.199219 733 139.199219 733 153.601562 "/>
<path style="fill-rule:nonzero;fill:rgb(100%,51%,0%);fill-opacity:1;stroke-width:1;stroke-linecap:butt;stroke-linejoin:miter;stroke:rgb(0%,0%,0%);stroke-opacity:1;stroke-miterlimit:10;" d="M 457.214844 166 C 457.214844 177.714844 447.714844 187.214844 436 187.214844 C 424.285156 187.214844 414.785156 177.714844 414.785156 166 C 414.785156 154.285156 424.285156 144.785156 436 144.785156 C 447.714844 144.785156 457.214844 154.285156 457.214844 166 "/>
<path style="fill-rule:nonzero;fill:rgb(100%,51%,0%);fill-opacity:1;stroke-width:1;stroke-linecap:butt;stroke-linejoin:miter;stroke:rgb(0%,0%,0%);stroke-opacity:1;stroke-miterlimit:10;" d="M 860.214844 356 C 860.214844 367.714844 850.714844 377.214844 839 377.214844 C 827.285156 377.214844 817.785156 367.714844 817.785156 356 C 817.785156 344.285156 827.285156 334.785156 839 334.785156 C 850.714844 334.785156 860.214844 344.285156 860.214844 356 "/>
<path style="fill-rule:nonzero;fill:rgb(100%,51%,0%);fill-opacity:1;stroke-width:1;stroke-linecap:butt;stroke-linejoin:miter;stroke:rgb(0%,0%,0%);stroke-opacity:1;stroke-miterlimit:10;" d="M 1022.214844 353 C 1022.214844 364.714844 1012.714844 374.214844 1001 374.214844 C 989.285156 374.214844 979.785156 364.714844 979.785156 353 C 979.785156 341.285156 989.285156 331.785156 1001 331.785156 C 1012.714844 331.785156 1022.214844 341.285156 1022.214844 353 "/>
</g>
</svg>
