<?xml version="1.0" encoding="UTF-8"?>
<svg xmlns="http://www.w3.org/2000/svg" xmlns:xlink="http://www.w3.org/1999/xlink" width="1179pt" height="517pt" viewBox="0 0 1179 517" version="1.1">
<g id="surface1106">
<rect x="0" y="0" width="1179" height="517" style="fill:rgb(90%,90%,90%);fill-opacity:1;stroke:none;"/>
<path style="fill-rule:nonzero;fill:rgb(55%,51%,53%);fill-opacity:1;stroke-width:1;stroke-linecap:butt;stroke-linejoin:miter;stroke:rgb(0%,0%,0%);stroke-opacity:1;stroke-miterlimit:10;" d="M 970 393.601562 C 970 379.199219 946 379.199219 946 393.601562 C 946 408 970 410.398438 970 422.398438 C 970 410.398438 994 408 994 393.601562 C 994 379.199219 970 379.199219 970 393.601562 "/>
<path style="fill-rule:nonzero;fill:rgb(55%,51%,53%);fill-opacity:1;stroke-width:1;stroke-linecap:butt;stroke-linejoin:miter;stroke:rgb(0%,0%,0%);stroke-opacity:1;stroke-miterlimit:10;" d="M 543 256.601562 C 543 242.199219 519 242.199219 519 256.601562 C 519 271 543 273.398438 543 285.398438 C 543 273.398438 567 271 567 256.601562 C 567 242.199219 543 242.199219 543 256.601562 "/>
<path style="fill-rule:nonzero;fill:rgb(55%,51%,53%);fill-opacity:1;stroke-width:1;stroke-linecap:butt;stroke-linejoin:miter;stroke:rgb(0%,0%,0%);stroke-opacity:1;stroke-miterlimit:10;" d="M 304 412.601562 C 304 398.199219 280 398.199219 280 412.601562 C 280 427 304 429.398438 304 441.398438 C 304 429.398438 328 427 328 412.601562 C 328 398.199219 304 398.199219 304 412.601562 "/>
<path style="fill-rule:nonzero;fill:rgb(55%,51%,53%);fill-opacity:1;stroke-width:1;stroke-linecap:butt;stroke-linejoin:miter;stroke:rgb(0%,0%,0%);stroke-opacity:1;stroke-miterlimit:10;" d="M 953 192.601562 C 953 178.199219 929 178.199219 929 192.601562 C 929 207 953 209.398438 953 221.398438 C 953 209.398438 977 207 977 192.601562 C 977 178.199219 953 178.199219 953 192.601562 "/>
<path style="fill-rule:nonzero;fill:rgb(53%,27%,7%);fill-opacity:1;stroke-width:1;stroke-linecap:butt;stroke-linejoin:miter;stroke:rgb(0%,0%,0%);stroke-opacity:1;stroke-miterlimit:10;" d="M 607 414 L 636.664062 414 L 648.664062 385.785156 L 660.664062 414 L 690.332031 414 L 666.332031 431.4375 L 674.417969 462.980469 L 648.664062 445.542969 L 622.914062 462.980469 L 635.214844 431.4375 L 607 414 "/>
<path style="fill-rule:nonzero;fill:rgb(53%,27%,7%);fill-opacity:1;stroke-width:1;stroke-linecap:butt;stroke-linejoin:miter;stroke:rgb(0%,0%,0%);stroke-opacity:1;stroke-miterlimit:10;" d="M 734 316 L 763.664062 316 L 775.664062 287.785156 L 787.664062 316 L 817.332031 316 L 793.332031 333.4375 L 801.417969 364.980469 L 775.664062 347.542969 L 749.914062 364.980469 L 762.214844 333.4375 L 734 316 "/>
<path style="fill-rule:nonzero;fill:rgb(53%,27%,7%);fill-opacity:1;stroke-width:1;stroke-linecap:butt;stroke-linejoin:miter;stroke:rgb(0%,0%,0%);stroke-opacity:1;stroke-miterlimit:10;" d="M 607 128 L 636.664062 128 L 648.664062 99.785156 L 660.664062 128 L 690.332031 128 L 666.332031 145.4375 L 674.417969 176.980469 L 648.664062 159.542969 L 622.914062 176.980469 L 635.214844 145.4375 L 607 128 "/>
<path style="fill-rule:nonzero;fill:rgb(53%,27%,7%);fill-opacity:1;stroke-width:1;stroke-linecap:butt;stroke-linejoin:miter;stroke:rgb(0%,0%,0%);stroke-opacity:1;stroke-miterlimit:10;" d="M 96 372 L 125.664062 372 L 137.664062 343.785156 L 149.664062 372 L 179.332031 372 L 155.332031 389.4375 L 163.417969 420.980469 L 137.664062 403.542969 L 111.914062 420.980469 L 124.214844 389.4375 L 96 372 "/>
</g>
</svg>
