<?xml version="1.0" encoding="UTF-8"?>
<svg xmlns="http://www.w3.org/2000/svg" xmlns:xlink="http://www.w3.org/1999/xlink" width="1179pt" height="517pt" viewBox="0 0 1179 517" version="1.1">
<g id="surface141">
<rect x="0" y="0" width="1179" height="517" style="fill:rgb(90%,90%,90%);fill-opacity:1;stroke:none;"/>
<path style="fill-rule:nonzero;fill:rgb(100%,51%,0%);fill-opacity:1;stroke-width:1;stroke-linecap:butt;stroke-linejoin:miter;stroke:rgb(0%,0%,0%);stroke-opacity:1;stroke-miterlimit:10;" d="M 417.214844 209 C 417.214844 220.714844 407.714844 230.214844 396 230.214844 C 384.285156 230.214844 374.785156 220.714844 374.785156 209 C 374.785156 197.285156 384.285156 187.785156 396 187.785156 C 407.714844 187.785156 417.214844 197.285156 417.214844 209 "/>
<path style="fill-rule:nonzero;fill:rgb(55%,51%,53%);fill-opacity:1;stroke-width:1;stroke-linecap:butt;stroke-linejoin:miter;stroke:rgb(0%,0%,0%);stroke-opacity:1;stroke-miterlimit:10;" d="M 187.214844 230 C 187.214844 241.714844 177.714844 251.214844 166 251.214844 C 154.285156 251.214844 144.785156 241.714844 144.785156 230 C 144.785156 218.285156 154.285156 208.785156 166 208.785156 C 177.714844 208.785156 187.214844 218.285156 187.214844 230 "/>
<path style="fill-rule:nonzero;fill:rgb(100%,51%,0%);fill-opacity:1;stroke-width:1;stroke-linecap:butt;stroke-linejoin:miter;stroke:rgb(0%,0%,0%);stroke-opacity:1;stroke-miterlimit:10;" d="M 411.214844 330 C 411.214844 341.714844 401.714844 351.214844 390 351.214844 C 378.285156 351.214844 368.785156 341.714844 368.785156 330 C 368.785156 318.285156 378.285156 308.785156 390 308.785156 C 401.714844 308.785156 411.214844 318.285156 411.214844 330 "/>
<path style="fill-rule:nonzero;fill:rgb(100%,51%,0%);fill-opacity:1;stroke-width:1;stroke-linecap:butt;stroke-linejoin:miter;stroke:rgb(0%,0%,0%);stroke-opacity:1;stroke-miterlimit:10;" d="M 322.214844 151 C 322.214844 162.714844 312.714844 172.214844 301 172.214844 C 289.285156 172.214844 279.785156 162.714844 279.785156 151 C 279.785156 139.285156 289.285156 129.785156 301 129.785156 C 312.714844 129.785156 322.214844 139.285156 322.214844 151 "/>
<path style="fill-rule:nonzero;fill:rgb(100%,51%,0%);fill-opacity:1;stroke-width:1;stroke-linecap:butt;stroke-linejoin:miter;stroke:rgb(0%,0%,0%);stroke-opacity:1;stroke-miterlimit:10;" d="M 191.214844 115 C 191.214844 126.714844 181.714844 136.214844 170 136.214844 C 158.285156 136.214844 148.785156 126.714844 148.785156 115 C 148.785156 103.285156 158.285156 93.785156 170 93.785156 C 181.714844 93.785156 191.214844 103.285156 191.214844 115 "/>
<path style="fill-rule:nonzero;fill:rgb(55%,51%,53%);fill-opacity:1;stroke-width:1;stroke-linecap:butt;stroke-linejoin:miter;stroke:rgb(0%,0%,0%);stroke-opacity:1;stroke-miterlimit:10;" d="M 672.785156 93.785156 L 672.785156 136.214844 L 715.214844 136.214844 L 715.214844 93.785156 L 672.785156 93.785156 "/>
<path style="fill-rule:nonzero;fill:rgb(100%,51%,0%);fill-opacity:1;stroke-width:1;stroke-linecap:butt;stroke-linejoin:miter;stroke:rgb(0%,0%,0%);stroke-opacity:1;stroke-miterlimit:10;" d="M 940.785156 236.785156 L 940.785156 279.214844 L 983.214844 279.214844 L 983.214844 236.785156 L 940.785156 236.785156 "/>
<path style="fill-rule:nonzero;fill:rgb(55%,51%,53%);fill-opacity:1;stroke-width:1;stroke-linecap:butt;stroke-linejoin:miter;stroke:rgb(0%,0%,0%);stroke-opacity:1;stroke-miterlimit:10;" d="M 711.785156 270.785156 L 711.785156 313.214844 L 754.214844 313.214844 L 754.214844 270.785156 L 711.785156 270.785156 "/>
</g>
</svg>
