<?xml version="1.0" encoding="UTF-8"?>
<svg xmlns="http://www.w3.org/2000/svg" xmlns:xlink="http://www.w3.org/1999/xlink" width="1179pt" height="517pt" viewBox="0 0 1179 517" version="1.1">
<g id="surface1171">
<rect x="0" y="0" width="1179" height="517" style="fill:rgb(90%,90%,90%);fill-opacity:1;stroke:none;"/>
<path style="fill-rule:nonzero;fill:rgb(53%,27%,7%);fill-opacity:1;stroke-width:1;stroke-linecap:butt;stroke-linejoin:miter;stroke:rgb(0%,0%,0%);stroke-opacity:1;stroke-miterlimit:10;" d="M 960.214844 113 C 960.214844 124.714844 950.714844 134.214844 939 134.214844 C 927.285156 134.214844 917.785156 124.714844 917.785156 113 C 917.785156 101.285156 927.285156 91.785156 939 91.785156 C 950.714844 91.785156 960.214844 101.285156 960.214844 113 "/>
<path style="fill-rule:nonzero;fill:rgb(53%,27%,7%);fill-opacity:1;stroke-width:1;stroke-linecap:butt;stroke-linejoin:miter;stroke:rgb(0%,0%,0%);stroke-opacity:1;stroke-miterlimit:10;" d="M 211.214844 80 C 211.214844 91.714844 201.714844 101.214844 190 101.214844 C 178.285156 101.214844 168.785156 91.714844 168.785156 80 C 168.785156 68.285156 178.285156 58.785156 190 58.785156 C 201.714844 58.785156 211.214844 68.285156 211.214844 80 "/>
<path style="fill-rule:nonzero;fill:rgb(53%,27%,7%);fill-opacity:1;stroke-width:1;stroke-linecap:butt;stroke-linejoin:miter;stroke:rgb(0%,0%,0%);stroke-opacity:1;stroke-miterlimit:10;" d="M 201.214844 347 C 201.214844 358.714844 191.714844 368.214844 180 368.214844 C 168.285156 368.214844 158.785156 358.714844 158.785156 347 C 158.785156 335.285156 168.285156 325.785156 180 325.785156 C 191.714844 325.785156 201.214844 335.285156 201.214844 347 "/>
<path style="fill-rule:nonzero;fill:rgb(53%,27%,7%);fill-opacity:1;stroke-width:1;stroke-linecap:butt;stroke-linejoin:miter;stroke:rgb(0%,0%,0%);stroke-opacity:1;stroke-miterlimit:10;" d="M 995.214844 254 C 995.214844 265.714844 985.714844 275.214844 974 275.214844 C 962.285156 275.214844 952.785156 265.714844 952.785156 254 C 952.785156 242.285156 962.285156 232.785156 974 232.785156 C 985.714844 232.785156 995.214844 242.285156 995.214844 254 "/>
<path style="fill-rule:nonzero;fill:rgb(53%,27%,7%);fill-opacity:1;stroke-width:1;stroke-linecap:butt;stroke-linejoin:miter;stroke:rgb(0%,0%,0%);stroke-opacity:1;stroke-miterlimit:10;" d="M 542.214844 429 C 542.214844 440.714844 532.714844 450.214844 521 450.214844 C 509.285156 450.214844 499.785156 440.714844 499.785156 429 C 499.785156 417.285156 509.285156 407.785156 521 407.785156 C 532.714844 407.785156 542.214844 417.285156 542.214844 429 "/>
<path style="fill-rule:nonzero;fill:rgb(100%,51%,0%);fill-opacity:1;stroke-width:1;stroke-linecap:butt;stroke-linejoin:miter;stroke:rgb(0%,0%,0%);stroke-opacity:1;stroke-miterlimit:10;" d="M 773 125 L 802.664062 125 L 814.664062 96.785156 L 826.664062 125 L 856.332031 125 L 832.332031 142.4375 L 840.417969 173.980469 L 814.664062 156.542969 L 788.914062 173.980469 L 801.214844 142.4375 L 773 125 "/>
<path style="fill-rule:nonzero;fill:rgb(100%,51%,0%);fill-opacity:1;stroke-width:1;stroke-linecap:butt;stroke-linejoin:miter;stroke:rgb(0%,0%,0%);stroke-opacity:1;stroke-miterlimit:10;" d="M 739 275 L 768.664062 275 L 780.664062 246.785156 L 792.664062 275 L 822.332031 275 L 798.332031 292.4375 L 806.417969 323.980469 L 780.664062 306.542969 L 754.914062 323.980469 L 767.214844 292.4375 L 739 275 "/>
<path style="fill-rule:nonzero;fill:rgb(100%,51%,0%);fill-opacity:1;stroke-width:1;stroke-linecap:butt;stroke-linejoin:miter;stroke:rgb(0%,0%,0%);stroke-opacity:1;stroke-miterlimit:10;" d="M 435 272 L 464.664062 272 L 476.664062 243.785156 L 488.664062 272 L 518.332031 272 L 494.332031 289.4375 L 502.417969 320.980469 L 476.664062 303.542969 L 450.914062 320.980469 L 463.214844 289.4375 L 435 272 "/>
<path style="fill-rule:nonzero;fill:rgb(100%,51%,0%);fill-opacity:1;stroke-width:1;stroke-linecap:butt;stroke-linejoin:miter;stroke:rgb(0%,0%,0%);stroke-opacity:1;stroke-miterlimit:10;" d="M 556 213 L 585.664062 213 L 597.664062 184.785156 L 609.664062 213 L 639.332031 213 L 615.332031 230.4375 L 623.417969 261.980469 L 597.664062 244.542969 L 571.914062 261.980469 L 584.214844 230.4375 L 556 213 "/>
<path style="fill-rule:nonzero;fill:rgb(100%,51%,0%);fill-opacity:1;stroke-width:1;stroke-linecap:butt;stroke-linejoin:miter;stroke:rgb(0%,0%,0%);stroke-opacity:1;stroke-miterlimit:10;" d="M 796 401 L 825.664062 401 L 837.664062 372.785156 L 849.664062 401 L 879.332031 401 L 855.332031 418.4375 L 863.417969 449.980469 L 837.664062 432.542969 L 811.914062 449.980469 L 824.214844 418.4375 L 796 401 "/>
</g>
</svg>
