<?xml version="1.0" encoding="UTF-8"?>
<svg xmlns="http://www.w3.org/2000/svg" xmlns:xlink="http://www.w3.org/1999/xlink" width="1179pt" height="517pt" viewBox="0 0 1179 517" version="1.1">
<g id="surface861">
<rect x="0" y="0" width="1179" height="517" style="fill:rgb(90%,90%,90%);fill-opacity:1;stroke:none;"/>
<path style="fill-rule:nonzero;fill:rgb(55%,51%,53%);fill-opacity:1;stroke-width:1;stroke-linecap:butt;stroke-linejoin:miter;stroke:rgb(0%,0%,0%);stroke-opacity:1;stroke-miterlimit:10;" d="M 353 118 L 382.664062 118 L 394.664062 89.785156 L 406.664062 118 L 436.332031 118 L 412.332031 135.4375 L 420.417969 166.980469 L 394.664062 149.542969 L 368.914062 166.980469 L 381.214844 135.4375 L 353 118 "/>
<path style="fill-rule:nonzero;fill:rgb(55%,51%,53%);fill-opacity:1;stroke-width:1;stroke-linecap:butt;stroke-linejoin:miter;stroke:rgb(0%,0%,0%);stroke-opacity:1;stroke-miterlimit:10;" d="M 120 186 L 149.664062 186 L 161.664062 157.785156 L 173.664062 186 L 203.332031 186 L 179.332031 203.4375 L 187.417969 234.980469 L 161.664062 217.542969 L 135.914062 234.980469 L 148.214844 203.4375 L 120 186 "/>
<path style="fill-rule:nonzero;fill:rgb(55%,51%,53%);fill-opacity:1;stroke-width:1;stroke-linecap:butt;stroke-linejoin:miter;stroke:rgb(0%,0%,0%);stroke-opacity:1;stroke-miterlimit:10;" d="M 179 306 L 153.019531 351 L 204.980469 351 L 179 306 "/>
<path style="fill-rule:nonzero;fill:rgb(55%,51%,53%);fill-opacity:1;stroke-width:1;stroke-linecap:butt;stroke-linejoin:miter;stroke:rgb(0%,0%,0%);stroke-opacity:1;stroke-miterlimit:10;" d="M 401 209 L 430.664062 209 L 442.664062 180.785156 L 454.664062 209 L 484.332031 209 L 460.332031 226.4375 L 468.417969 257.980469 L 442.664062 240.542969 L 416.914062 257.980469 L 429.214844 226.4375 L 401 209 "/>
<path style="fill-rule:nonzero;fill:rgb(55%,51%,53%);fill-opacity:1;stroke-width:1;stroke-linecap:butt;stroke-linejoin:miter;stroke:rgb(0%,0%,0%);stroke-opacity:1;stroke-miterlimit:10;" d="M 217 191 L 246.664062 191 L 258.664062 162.785156 L 270.664062 191 L 300.332031 191 L 276.332031 208.4375 L 284.417969 239.980469 L 258.664062 222.542969 L 232.914062 239.980469 L 245.214844 208.4375 L 217 191 "/>
<path style="fill-rule:nonzero;fill:rgb(55%,51%,53%);fill-opacity:1;stroke-width:1;stroke-linecap:butt;stroke-linejoin:miter;stroke:rgb(0%,0%,0%);stroke-opacity:1;stroke-miterlimit:10;" d="M 297 334 L 326.664062 334 L 338.664062 305.785156 L 350.664062 334 L 380.332031 334 L 356.332031 351.4375 L 364.417969 382.980469 L 338.664062 365.542969 L 312.914062 382.980469 L 325.214844 351.4375 L 297 334 "/>
<path style="fill-rule:nonzero;fill:rgb(55%,51%,53%);fill-opacity:1;stroke-width:1;stroke-linecap:butt;stroke-linejoin:miter;stroke:rgb(0%,0%,0%);stroke-opacity:1;stroke-miterlimit:10;" d="M 410 375 L 384.019531 420 L 435.980469 420 L 410 375 "/>
<path style="fill-rule:nonzero;fill:rgb(55%,51%,53%);fill-opacity:1;stroke-width:1;stroke-linecap:butt;stroke-linejoin:miter;stroke:rgb(0%,0%,0%);stroke-opacity:1;stroke-miterlimit:10;" d="M 122 57 L 96.019531 102 L 147.980469 102 L 122 57 "/>
<path style="fill-rule:nonzero;fill:rgb(55%,51%,53%);fill-opacity:1;stroke-width:1;stroke-linecap:butt;stroke-linejoin:miter;stroke:rgb(0%,0%,0%);stroke-opacity:1;stroke-miterlimit:10;" d="M 1033 220 L 1062.664062 220 L 1074.664062 191.785156 L 1086.664062 220 L 1116.332031 220 L 1092.332031 237.4375 L 1100.417969 268.980469 L 1074.664062 251.542969 L 1048.914062 268.980469 L 1061.214844 237.4375 L 1033 220 "/>
<path style="fill-rule:nonzero;fill:rgb(55%,51%,53%);fill-opacity:1;stroke-width:1;stroke-linecap:butt;stroke-linejoin:miter;stroke:rgb(0%,0%,0%);stroke-opacity:1;stroke-miterlimit:10;" d="M 778 178 L 807.664062 178 L 819.664062 149.785156 L 831.664062 178 L 861.332031 178 L 837.332031 195.4375 L 845.417969 226.980469 L 819.664062 209.542969 L 793.914062 226.980469 L 806.214844 195.4375 L 778 178 "/>
<path style="fill-rule:nonzero;fill:rgb(55%,51%,53%);fill-opacity:1;stroke-width:1;stroke-linecap:butt;stroke-linejoin:miter;stroke:rgb(0%,0%,0%);stroke-opacity:1;stroke-miterlimit:10;" d="M 892 114 L 866.019531 159 L 917.980469 159 L 892 114 "/>
<path style="fill-rule:nonzero;fill:rgb(55%,51%,53%);fill-opacity:1;stroke-width:1;stroke-linecap:butt;stroke-linejoin:miter;stroke:rgb(0%,0%,0%);stroke-opacity:1;stroke-miterlimit:10;" d="M 920 367 L 894.019531 412 L 945.980469 412 L 920 367 "/>
<path style="fill-rule:nonzero;fill:rgb(55%,51%,53%);fill-opacity:1;stroke-width:1;stroke-linecap:butt;stroke-linejoin:miter;stroke:rgb(0%,0%,0%);stroke-opacity:1;stroke-miterlimit:10;" d="M 793 429 L 822.664062 429 L 834.664062 400.785156 L 846.664062 429 L 876.332031 429 L 852.332031 446.4375 L 860.417969 477.980469 L 834.664062 460.542969 L 808.914062 477.980469 L 821.214844 446.4375 L 793 429 "/>
<path style="fill-rule:nonzero;fill:rgb(55%,51%,53%);fill-opacity:1;stroke-width:1;stroke-linecap:butt;stroke-linejoin:miter;stroke:rgb(0%,0%,0%);stroke-opacity:1;stroke-miterlimit:10;" d="M 858 273 L 832.019531 318 L 883.980469 318 L 858 273 "/>
<path style="fill-rule:nonzero;fill:rgb(55%,51%,53%);fill-opacity:1;stroke-width:1;stroke-linecap:butt;stroke-linejoin:miter;stroke:rgb(0%,0%,0%);stroke-opacity:1;stroke-miterlimit:10;" d="M 722 66 L 696.019531 111 L 747.980469 111 L 722 66 "/>
</g>
</svg>
