<?xml version="1.0" encoding="UTF-8"?>
<svg xmlns="http://www.w3.org/2000/svg" xmlns:xlink="http://www.w3.org/1999/xlink" width="1179pt" height="517pt" viewBox="0 0 1179 517" version="1.1">
<g id="surface31">
<rect x="0" y="0" width="1179" height="517" style="fill:rgb(90%,90%,90%);fill-opacity:1;stroke:none;"/>
<path style="fill-rule:nonzero;fill:rgb(35%,70%,90%);fill-opacity:1;stroke-width:1;stroke-linecap:butt;stroke-linejoin:miter;stroke:rgb(0%,0%,0%);stroke-opacity:1;stroke-miterlimit:10;" d="M 583 367 L 612.664062 367 L 624.664062 338.785156 L 636.664062 367 L 666.332031 367 L 642.332031 384.4375 L 650.417969 415.980469 L 624.664062 398.542969 L 598.914062 415.980469 L 611.214844 384.4375 L 583 367 "/>
<path style="fill-rule:nonzero;fill:rgb(35%,70%,90%);fill-opacity:1;stroke-width:1;stroke-linecap:butt;stroke-linejoin:miter;stroke:rgb(0%,0%,0%);stroke-opacity:1;stroke-miterlimit:10;" d="M 987 124 L 1016.664062 124 L 1028.664062 95.785156 L 1040.664062 124 L 1070.332031 124 L 1046.332031 141.4375 L 1054.417969 172.980469 L 1028.664062 155.542969 L 1002.914062 172.980469 L 1015.214844 141.4375 L 987 124 "/>
<path style="fill-rule:nonzero;fill:rgb(35%,70%,90%);fill-opacity:1;stroke-width:1;stroke-linecap:butt;stroke-linejoin:miter;stroke:rgb(0%,0%,0%);stroke-opacity:1;stroke-miterlimit:10;" d="M 381 325 L 410.664062 325 L 422.664062 296.785156 L 434.664062 325 L 464.332031 325 L 440.332031 342.4375 L 448.417969 373.980469 L 422.664062 356.542969 L 396.914062 373.980469 L 409.214844 342.4375 L 381 325 "/>
<path style="fill-rule:nonzero;fill:rgb(35%,70%,90%);fill-opacity:1;stroke-width:1;stroke-linecap:butt;stroke-linejoin:miter;stroke:rgb(0%,0%,0%);stroke-opacity:1;stroke-miterlimit:10;" d="M 799 109 L 828.664062 109 L 840.664062 80.785156 L 852.664062 109 L 882.332031 109 L 858.332031 126.4375 L 866.417969 157.980469 L 840.664062 140.542969 L 814.914062 157.980469 L 827.214844 126.4375 L 799 109 "/>
<path style="fill-rule:nonzero;fill:rgb(35%,70%,90%);fill-opacity:1;stroke-width:1;stroke-linecap:butt;stroke-linejoin:miter;stroke:rgb(0%,0%,0%);stroke-opacity:1;stroke-miterlimit:10;" d="M 861 362 L 890.664062 362 L 902.664062 333.785156 L 914.664062 362 L 944.332031 362 L 920.332031 379.4375 L 928.417969 410.980469 L 902.664062 393.542969 L 876.914062 410.980469 L 889.214844 379.4375 L 861 362 "/>
<path style="fill-rule:nonzero;fill:rgb(53%,27%,7%);fill-opacity:1;stroke-width:1;stroke-linecap:butt;stroke-linejoin:miter;stroke:rgb(0%,0%,0%);stroke-opacity:1;stroke-miterlimit:10;" d="M 513.214844 116 C 513.214844 127.714844 503.714844 137.214844 492 137.214844 C 480.285156 137.214844 470.785156 127.714844 470.785156 116 C 470.785156 104.285156 480.285156 94.785156 492 94.785156 C 503.714844 94.785156 513.214844 104.285156 513.214844 116 "/>
<path style="fill-rule:nonzero;fill:rgb(53%,27%,7%);fill-opacity:1;stroke-width:1;stroke-linecap:butt;stroke-linejoin:miter;stroke:rgb(0%,0%,0%);stroke-opacity:1;stroke-miterlimit:10;" d="M 221.214844 430 C 221.214844 441.714844 211.714844 451.214844 200 451.214844 C 188.285156 451.214844 178.785156 441.714844 178.785156 430 C 178.785156 418.285156 188.285156 408.785156 200 408.785156 C 211.714844 408.785156 221.214844 418.285156 221.214844 430 "/>
<path style="fill-rule:nonzero;fill:rgb(53%,27%,7%);fill-opacity:1;stroke-width:1;stroke-linecap:butt;stroke-linejoin:miter;stroke:rgb(0%,0%,0%);stroke-opacity:1;stroke-miterlimit:10;" d="M 1020.214844 420 C 1020.214844 431.714844 1010.714844 441.214844 999 441.214844 C 987.285156 441.214844 977.785156 431.714844 977.785156 420 C 977.785156 408.285156 987.285156 398.785156 999 398.785156 C 1010.714844 398.785156 1020.214844 408.285156 1020.214844 420 "/>
<path style="fill-rule:nonzero;fill:rgb(53%,27%,7%);fill-opacity:1;stroke-width:1;stroke-linecap:butt;stroke-linejoin:miter;stroke:rgb(0%,0%,0%);stroke-opacity:1;stroke-miterlimit:10;" d="M 375.214844 102 C 375.214844 113.714844 365.714844 123.214844 354 123.214844 C 342.285156 123.214844 332.785156 113.714844 332.785156 102 C 332.785156 90.285156 342.285156 80.785156 354 80.785156 C 365.714844 80.785156 375.214844 90.285156 375.214844 102 "/>
</g>
</svg>
