<?xml version="1.0" encoding="UTF-8"?>
<svg xmlns="http://www.w3.org/2000/svg" xmlns:xlink="http://www.w3.org/1999/xlink" width="1179pt" height="517pt" viewBox="0 0 1179 517" version="1.1">
<g id="surface451">
<rect x="0" y="0" width="1179" height="517" style="fill:rgb(90%,90%,90%);fill-opacity:1;stroke:none;"/>
<path style="fill-rule:nonzero;fill:rgb(100%,51%,0%);fill-opacity:1;stroke-width:1;stroke-linecap:butt;stroke-linejoin:miter;stroke:rgb(0%,0%,0%);stroke-opacity:1;stroke-miterlimit:10;" d="M 516 183 L 545.664062 183 L 557.664062 154.785156 L 569.664062 183 L 599.332031 183 L 575.332031 200.4375 L 583.417969 231.980469 L 557.664062 214.542969 L 531.914062 231.980469 L 544.214844 200.4375 L 516 183 "/>
<path style="fill-rule:nonzero;fill:rgb(100%,51%,0%);fill-opacity:1;stroke-width:1;stroke-linecap:butt;stroke-linejoin:miter;stroke:rgb(0%,0%,0%);stroke-opacity:1;stroke-miterlimit:10;" d="M 710 137 L 739.664062 137 L 751.664062 108.785156 L 763.664062 137 L 793.332031 137 L 769.332031 154.4375 L 777.417969 185.980469 L 751.664062 168.542969 L 725.914062 185.980469 L 738.214844 154.4375 L 710 137 "/>
<path style="fill-rule:nonzero;fill:rgb(100%,51%,0%);fill-opacity:1;stroke-width:1;stroke-linecap:butt;stroke-linejoin:miter;stroke:rgb(0%,0%,0%);stroke-opacity:1;stroke-miterlimit:10;" d="M 432 352 L 461.664062 352 L 473.664062 323.785156 L 485.664062 352 L 515.332031 352 L 491.332031 369.4375 L 499.417969 400.980469 L 473.664062 383.542969 L 447.914062 400.980469 L 460.214844 369.4375 L 432 352 "/>
<path style="fill-rule:nonzero;fill:rgb(100%,51%,0%);fill-opacity:1;stroke-width:1;stroke-linecap:butt;stroke-linejoin:miter;stroke:rgb(0%,0%,0%);stroke-opacity:1;stroke-miterlimit:10;" d="M 202 126 L 231.664062 126 L 243.664062 97.785156 L 255.664062 126 L 285.332031 126 L 261.332031 143.4375 L 269.417969 174.980469 L 243.664062 157.542969 L 217.914062 174.980469 L 230.214844 143.4375 L 202 126 "/>
<path style="fill-rule:nonzero;fill:rgb(53%,27%,7%);fill-opacity:1;stroke-width:1;stroke-linecap:butt;stroke-linejoin:miter;stroke:rgb(0%,0%,0%);stroke-opacity:1;stroke-miterlimit:10;" d="M 633.214844 393 C 633.214844 404.714844 623.714844 414.214844 612 414.214844 C 600.285156 414.214844 590.785156 404.714844 590.785156 393 C 590.785156 381.285156 600.285156 371.785156 612 371.785156 C 623.714844 371.785156 633.214844 381.285156 633.214844 393 "/>
<path style="fill-rule:nonzero;fill:rgb(53%,27%,7%);fill-opacity:1;stroke-width:1;stroke-linecap:butt;stroke-linejoin:miter;stroke:rgb(0%,0%,0%);stroke-opacity:1;stroke-miterlimit:10;" d="M 924.214844 124 C 924.214844 135.714844 914.714844 145.214844 903 145.214844 C 891.285156 145.214844 881.785156 135.714844 881.785156 124 C 881.785156 112.285156 891.285156 102.785156 903 102.785156 C 914.714844 102.785156 924.214844 112.285156 924.214844 124 "/>
<path style="fill-rule:nonzero;fill:rgb(53%,27%,7%);fill-opacity:1;stroke-width:1;stroke-linecap:butt;stroke-linejoin:miter;stroke:rgb(0%,0%,0%);stroke-opacity:1;stroke-miterlimit:10;" d="M 702.214844 282 C 702.214844 293.714844 692.714844 303.214844 681 303.214844 C 669.285156 303.214844 659.785156 293.714844 659.785156 282 C 659.785156 270.285156 669.285156 260.785156 681 260.785156 C 692.714844 260.785156 702.214844 270.285156 702.214844 282 "/>
<path style="fill-rule:nonzero;fill:rgb(53%,27%,7%);fill-opacity:1;stroke-width:1;stroke-linecap:butt;stroke-linejoin:miter;stroke:rgb(0%,0%,0%);stroke-opacity:1;stroke-miterlimit:10;" d="M 187.214844 260 C 187.214844 271.714844 177.714844 281.214844 166 281.214844 C 154.285156 281.214844 144.785156 271.714844 144.785156 260 C 144.785156 248.285156 154.285156 238.785156 166 238.785156 C 177.714844 238.785156 187.214844 248.285156 187.214844 260 "/>
</g>
</svg>
