<?xml version="1.0" encoding="UTF-8"?>
<svg xmlns="http://www.w3.org/2000/svg" xmlns:xlink="http://www.w3.org/1999/xlink" width="1179pt" height="517pt" viewBox="0 0 1179 517" version="1.1">
<g id="surface46">
<rect x="0" y="0" width="1179" height="517" style="fill:rgb(90%,90%,90%);fill-opacity:1;stroke:none;"/>
<path style="fill-rule:nonzero;fill:rgb(35%,70%,90%);fill-opacity:1;stroke-width:1;stroke-linecap:butt;stroke-linejoin:miter;stroke:rgb(0%,0%,0%);stroke-opacity:1;stroke-miterlimit:10;" d="M 159.214844 232 C 159.214844 243.714844 149.714844 253.214844 138 253.214844 C 126.285156 253.214844 116.785156 243.714844 116.785156 232 C 116.785156 220.285156 126.285156 210.785156 138 210.785156 C 149.714844 210.785156 159.214844 220.285156 159.214844 232 "/>
<path style="fill-rule:nonzero;fill:rgb(35%,70%,90%);fill-opacity:1;stroke-width:1;stroke-linecap:butt;stroke-linejoin:miter;stroke:rgb(0%,0%,0%);stroke-opacity:1;stroke-miterlimit:10;" d="M 273.214844 162 C 273.214844 173.714844 263.714844 183.214844 252 183.214844 C 240.285156 183.214844 230.785156 173.714844 230.785156 162 C 230.785156 150.285156 240.285156 140.785156 252 140.785156 C 263.714844 140.785156 273.214844 150.285156 273.214844 162 "/>
<path style="fill-rule:nonzero;fill:rgb(35%,70%,90%);fill-opacity:1;stroke-width:1;stroke-linecap:butt;stroke-linejoin:miter;stroke:rgb(0%,0%,0%);stroke-opacity:1;stroke-miterlimit:10;" d="M 317 58 L 291.019531 103 L 342.980469 103 L 317 58 "/>
<path style="fill-rule:nonzero;fill:rgb(53%,27%,7%);fill-opacity:1;stroke-width:1;stroke-linecap:butt;stroke-linejoin:miter;stroke:rgb(0%,0%,0%);stroke-opacity:1;stroke-miterlimit:10;" d="M 817 131 L 791.019531 176 L 842.980469 176 L 817 131 "/>
<path style="fill-rule:nonzero;fill:rgb(53%,27%,7%);fill-opacity:1;stroke-width:1;stroke-linecap:butt;stroke-linejoin:miter;stroke:rgb(0%,0%,0%);stroke-opacity:1;stroke-miterlimit:10;" d="M 953 104 L 927.019531 149 L 978.980469 149 L 953 104 "/>
<path style="fill-rule:nonzero;fill:rgb(53%,27%,7%);fill-opacity:1;stroke-width:1;stroke-linecap:butt;stroke-linejoin:miter;stroke:rgb(0%,0%,0%);stroke-opacity:1;stroke-miterlimit:10;" d="M 739.214844 112 C 739.214844 123.714844 729.714844 133.214844 718 133.214844 C 706.285156 133.214844 696.785156 123.714844 696.785156 112 C 696.785156 100.285156 706.285156 90.785156 718 90.785156 C 729.714844 90.785156 739.214844 100.285156 739.214844 112 "/>
<path style="fill-rule:nonzero;fill:rgb(53%,27%,7%);fill-opacity:1;stroke-width:1;stroke-linecap:butt;stroke-linejoin:miter;stroke:rgb(0%,0%,0%);stroke-opacity:1;stroke-miterlimit:10;" d="M 860.214844 312 C 860.214844 323.714844 850.714844 333.214844 839 333.214844 C 827.285156 333.214844 817.785156 323.714844 817.785156 312 C 817.785156 300.285156 827.285156 290.785156 839 290.785156 C 850.714844 290.785156 860.214844 300.285156 860.214844 312 "/>
<path style="fill-rule:nonzero;fill:rgb(53%,27%,7%);fill-opacity:1;stroke-width:1;stroke-linecap:butt;stroke-linejoin:miter;stroke:rgb(0%,0%,0%);stroke-opacity:1;stroke-miterlimit:10;" d="M 922 357 L 896.019531 402 L 947.980469 402 L 922 357 "/>
</g>
</svg>
