<?xml version="1.0" encoding="UTF-8"?>
<svg xmlns="http://www.w3.org/2000/svg" xmlns:xlink="http://www.w3.org/1999/xlink" width="1179pt" height="517pt" viewBox="0 0 1179 517" version="1.1">
<g id="surface151">
<rect x="0" y="0" width="1179" height="517" style="fill:rgb(90%,90%,90%);fill-opacity:1;stroke:none;"/>
<path style="fill-rule:nonzero;fill:rgb(55%,51%,53%);fill-opacity:1;stroke-width:1;stroke-linecap:butt;stroke-linejoin:miter;stroke:rgb(0%,0%,0%);stroke-opacity:1;stroke-miterlimit:10;" d="M 465 261 L 494.664062 261 L 506.664062 232.785156 L 518.664062 261 L 548.332031 261 L 524.332031 278.4375 L 532.417969 309.980469 L 506.664062 292.542969 L 480.914062 309.980469 L 493.214844 278.4375 L 465 261 "/>
<path style="fill-rule:nonzero;fill:rgb(55%,51%,53%);fill-opacity:1;stroke-width:1;stroke-linecap:butt;stroke-linejoin:miter;stroke:rgb(0%,0%,0%);stroke-opacity:1;stroke-miterlimit:10;" d="M 435 112 L 464.664062 112 L 476.664062 83.785156 L 488.664062 112 L 518.332031 112 L 494.332031 129.4375 L 502.417969 160.980469 L 476.664062 143.542969 L 450.914062 160.980469 L 463.214844 129.4375 L 435 112 "/>
<path style="fill-rule:nonzero;fill:rgb(55%,51%,53%);fill-opacity:1;stroke-width:1;stroke-linecap:butt;stroke-linejoin:miter;stroke:rgb(0%,0%,0%);stroke-opacity:1;stroke-miterlimit:10;" d="M 164 369 L 193.664062 369 L 205.664062 340.785156 L 217.664062 369 L 247.332031 369 L 223.332031 386.4375 L 231.417969 417.980469 L 205.664062 400.542969 L 179.914062 417.980469 L 192.214844 386.4375 L 164 369 "/>
<path style="fill-rule:nonzero;fill:rgb(55%,51%,53%);fill-opacity:1;stroke-width:1;stroke-linecap:butt;stroke-linejoin:miter;stroke:rgb(0%,0%,0%);stroke-opacity:1;stroke-miterlimit:10;" d="M 639 209 L 668.664062 209 L 680.664062 180.785156 L 692.664062 209 L 722.332031 209 L 698.332031 226.4375 L 706.417969 257.980469 L 680.664062 240.542969 L 654.914062 257.980469 L 667.214844 226.4375 L 639 209 "/>
<path style="fill-rule:nonzero;fill:rgb(53%,27%,7%);fill-opacity:1;stroke-width:1;stroke-linecap:butt;stroke-linejoin:miter;stroke:rgb(0%,0%,0%);stroke-opacity:1;stroke-miterlimit:10;" d="M 924.214844 255 C 924.214844 266.714844 914.714844 276.214844 903 276.214844 C 891.285156 276.214844 881.785156 266.714844 881.785156 255 C 881.785156 243.285156 891.285156 233.785156 903 233.785156 C 914.714844 233.785156 924.214844 243.285156 924.214844 255 "/>
<path style="fill-rule:nonzero;fill:rgb(53%,27%,7%);fill-opacity:1;stroke-width:1;stroke-linecap:butt;stroke-linejoin:miter;stroke:rgb(0%,0%,0%);stroke-opacity:1;stroke-miterlimit:10;" d="M 1065.214844 258 C 1065.214844 269.714844 1055.714844 279.214844 1044 279.214844 C 1032.285156 279.214844 1022.785156 269.714844 1022.785156 258 C 1022.785156 246.285156 1032.285156 236.785156 1044 236.785156 C 1055.714844 236.785156 1065.214844 246.285156 1065.214844 258 "/>
<path style="fill-rule:nonzero;fill:rgb(53%,27%,7%);fill-opacity:1;stroke-width:1;stroke-linecap:butt;stroke-linejoin:miter;stroke:rgb(0%,0%,0%);stroke-opacity:1;stroke-miterlimit:10;" d="M 351.214844 416 C 351.214844 427.714844 341.714844 437.214844 330 437.214844 C 318.285156 437.214844 308.785156 427.714844 308.785156 416 C 308.785156 404.285156 318.285156 394.785156 330 394.785156 C 341.714844 394.785156 351.214844 404.285156 351.214844 416 "/>
<path style="fill-rule:nonzero;fill:rgb(53%,27%,7%);fill-opacity:1;stroke-width:1;stroke-linecap:butt;stroke-linejoin:miter;stroke:rgb(0%,0%,0%);stroke-opacity:1;stroke-miterlimit:10;" d="M 273.214844 83 C 273.214844 94.714844 263.714844 104.214844 252 104.214844 C 240.285156 104.214844 230.785156 94.714844 230.785156 83 C 230.785156 71.285156 240.285156 61.785156 252 61.785156 C 263.714844 61.785156 273.214844 71.285156 273.214844 83 "/>
<path style="fill-rule:nonzero;fill:rgb(53%,27%,7%);fill-opacity:1;stroke-width:1;stroke-linecap:butt;stroke-linejoin:miter;stroke:rgb(0%,0%,0%);stroke-opacity:1;stroke-miterlimit:10;" d="M 718.214844 393 C 718.214844 404.714844 708.714844 414.214844 697 414.214844 C 685.285156 414.214844 675.785156 404.714844 675.785156 393 C 675.785156 381.285156 685.285156 371.785156 697 371.785156 C 708.714844 371.785156 718.214844 381.285156 718.214844 393 "/>
</g>
</svg>
