<?xml version="1.0" encoding="UTF-8"?>
<svg xmlns="http://www.w3.org/2000/svg" xmlns:xlink="http://www.w3.org/1999/xlink" width="1179pt" height="517pt" viewBox="0 0 1179 517" version="1.1">
<g id="surface791">
<rect x="0" y="0" width="1179" height="517" style="fill:rgb(90%,90%,90%);fill-opacity:1;stroke:none;"/>
<path style="fill-rule:nonzero;fill:rgb(35%,70%,90%);fill-opacity:1;stroke-width:1;stroke-linecap:butt;stroke-linejoin:miter;stroke:rgb(0%,0%,0%);stroke-opacity:1;stroke-miterlimit:10;" d="M 921.214844 341 C 921.214844 352.714844 911.714844 362.214844 900 362.214844 C 888.285156 362.214844 878.785156 352.714844 878.785156 341 C 878.785156 329.285156 888.285156 319.785156 900 319.785156 C 911.714844 319.785156 921.214844 329.285156 921.214844 341 "/>
<path style="fill-rule:nonzero;fill:rgb(35%,70%,90%);fill-opacity:1;stroke-width:1;stroke-linecap:butt;stroke-linejoin:miter;stroke:rgb(0%,0%,0%);stroke-opacity:1;stroke-miterlimit:10;" d="M 660.214844 154 C 660.214844 165.714844 650.714844 175.214844 639 175.214844 C 627.285156 175.214844 617.785156 165.714844 617.785156 154 C 617.785156 142.285156 627.285156 132.785156 639 132.785156 C 650.714844 132.785156 660.214844 142.285156 660.214844 154 "/>
<path style="fill-rule:nonzero;fill:rgb(35%,70%,90%);fill-opacity:1;stroke-width:1;stroke-linecap:butt;stroke-linejoin:miter;stroke:rgb(0%,0%,0%);stroke-opacity:1;stroke-miterlimit:10;" d="M 188.214844 382 C 188.214844 393.714844 178.714844 403.214844 167 403.214844 C 155.285156 403.214844 145.785156 393.714844 145.785156 382 C 145.785156 370.285156 155.285156 360.785156 167 360.785156 C 178.714844 360.785156 188.214844 370.285156 188.214844 382 "/>
<path style="fill-rule:nonzero;fill:rgb(35%,70%,90%);fill-opacity:1;stroke-width:1;stroke-linecap:butt;stroke-linejoin:miter;stroke:rgb(0%,0%,0%);stroke-opacity:1;stroke-miterlimit:10;" d="M 537.214844 363 C 537.214844 374.714844 527.714844 384.214844 516 384.214844 C 504.285156 384.214844 494.785156 374.714844 494.785156 363 C 494.785156 351.285156 504.285156 341.785156 516 341.785156 C 527.714844 341.785156 537.214844 351.285156 537.214844 363 "/>
<path style="fill-rule:nonzero;fill:rgb(35%,70%,90%);fill-opacity:1;stroke-width:1;stroke-linecap:butt;stroke-linejoin:miter;stroke:rgb(0%,0%,0%);stroke-opacity:1;stroke-miterlimit:10;" d="M 366.214844 216 C 366.214844 227.714844 356.714844 237.214844 345 237.214844 C 333.285156 237.214844 323.785156 227.714844 323.785156 216 C 323.785156 204.285156 333.285156 194.785156 345 194.785156 C 356.714844 194.785156 366.214844 204.285156 366.214844 216 "/>
<path style="fill-rule:nonzero;fill:rgb(35%,70%,90%);fill-opacity:1;stroke-width:1;stroke-linecap:butt;stroke-linejoin:miter;stroke:rgb(0%,0%,0%);stroke-opacity:1;stroke-miterlimit:10;" d="M 84 260 L 113.664062 260 L 125.664062 231.785156 L 137.664062 260 L 167.332031 260 L 143.332031 277.4375 L 151.417969 308.980469 L 125.664062 291.542969 L 99.914062 308.980469 L 112.214844 277.4375 L 84 260 "/>
<path style="fill-rule:nonzero;fill:rgb(35%,70%,90%);fill-opacity:1;stroke-width:1;stroke-linecap:butt;stroke-linejoin:miter;stroke:rgb(0%,0%,0%);stroke-opacity:1;stroke-miterlimit:10;" d="M 805 174 L 834.664062 174 L 846.664062 145.785156 L 858.664062 174 L 888.332031 174 L 864.332031 191.4375 L 872.417969 222.980469 L 846.664062 205.542969 L 820.914062 222.980469 L 833.214844 191.4375 L 805 174 "/>
<path style="fill-rule:nonzero;fill:rgb(35%,70%,90%);fill-opacity:1;stroke-width:1;stroke-linecap:butt;stroke-linejoin:miter;stroke:rgb(0%,0%,0%);stroke-opacity:1;stroke-miterlimit:10;" d="M 634 316 L 663.664062 316 L 675.664062 287.785156 L 687.664062 316 L 717.332031 316 L 693.332031 333.4375 L 701.417969 364.980469 L 675.664062 347.542969 L 649.914062 364.980469 L 662.214844 333.4375 L 634 316 "/>
</g>
</svg>
