<?xml version="1.0" encoding="UTF-8"?>
<svg xmlns="http://www.w3.org/2000/svg" xmlns:xlink="http://www.w3.org/1999/xlink" width="1179pt" height="517pt" viewBox="0 0 1179 517" version="1.1">
<g id="surface951">
<rect x="0" y="0" width="1179" height="517" style="fill:rgb(90%,90%,90%);fill-opacity:1;stroke:none;"/>
<path style="fill-rule:nonzero;fill:rgb(53%,27%,7%);fill-opacity:1;stroke-width:1;stroke-linecap:butt;stroke-linejoin:miter;stroke:rgb(0%,0%,0%);stroke-opacity:1;stroke-miterlimit:10;" d="M 786 128.601562 C 786 114.199219 762 114.199219 762 128.601562 C 762 143 786 145.398438 786 157.398438 C 786 145.398438 810 143 810 128.601562 C 810 114.199219 786 114.199219 786 128.601562 "/>
<path style="fill-rule:nonzero;fill:rgb(53%,27%,7%);fill-opacity:1;stroke-width:1;stroke-linecap:butt;stroke-linejoin:miter;stroke:rgb(0%,0%,0%);stroke-opacity:1;stroke-miterlimit:10;" d="M 432 317.601562 C 432 303.199219 408 303.199219 408 317.601562 C 408 332 432 334.398438 432 346.398438 C 432 334.398438 456 332 456 317.601562 C 456 303.199219 432 303.199219 432 317.601562 "/>
<path style="fill-rule:nonzero;fill:rgb(53%,27%,7%);fill-opacity:1;stroke-width:1;stroke-linecap:butt;stroke-linejoin:miter;stroke:rgb(0%,0%,0%);stroke-opacity:1;stroke-miterlimit:10;" d="M 591 312.601562 C 591 298.199219 567 298.199219 567 312.601562 C 567 327 591 329.398438 591 341.398438 C 591 329.398438 615 327 615 312.601562 C 615 298.199219 591 298.199219 591 312.601562 "/>
<path style="fill-rule:nonzero;fill:rgb(100%,51%,0%);fill-opacity:1;stroke-width:1;stroke-linecap:butt;stroke-linejoin:miter;stroke:rgb(0%,0%,0%);stroke-opacity:1;stroke-miterlimit:10;" d="M 1003.214844 119 C 1003.214844 130.714844 993.714844 140.214844 982 140.214844 C 970.285156 140.214844 960.785156 130.714844 960.785156 119 C 960.785156 107.285156 970.285156 97.785156 982 97.785156 C 993.714844 97.785156 1003.214844 107.285156 1003.214844 119 "/>
<path style="fill-rule:nonzero;fill:rgb(100%,51%,0%);fill-opacity:1;stroke-width:1;stroke-linecap:butt;stroke-linejoin:miter;stroke:rgb(0%,0%,0%);stroke-opacity:1;stroke-miterlimit:10;" d="M 951.214844 239 C 951.214844 250.714844 941.714844 260.214844 930 260.214844 C 918.285156 260.214844 908.785156 250.714844 908.785156 239 C 908.785156 227.285156 918.285156 217.785156 930 217.785156 C 941.714844 217.785156 951.214844 227.285156 951.214844 239 "/>
<path style="fill-rule:nonzero;fill:rgb(100%,51%,0%);fill-opacity:1;stroke-width:1;stroke-linecap:butt;stroke-linejoin:miter;stroke:rgb(0%,0%,0%);stroke-opacity:1;stroke-miterlimit:10;" d="M 230.214844 294 C 230.214844 305.714844 220.714844 315.214844 209 315.214844 C 197.285156 315.214844 187.785156 305.714844 187.785156 294 C 187.785156 282.285156 197.285156 272.785156 209 272.785156 C 220.714844 272.785156 230.214844 282.285156 230.214844 294 "/>
<path style="fill-rule:nonzero;fill:rgb(100%,51%,0%);fill-opacity:1;stroke-width:1;stroke-linecap:butt;stroke-linejoin:miter;stroke:rgb(0%,0%,0%);stroke-opacity:1;stroke-miterlimit:10;" d="M 479.214844 210 C 479.214844 221.714844 469.714844 231.214844 458 231.214844 C 446.285156 231.214844 436.785156 221.714844 436.785156 210 C 436.785156 198.285156 446.285156 188.785156 458 188.785156 C 469.714844 188.785156 479.214844 198.285156 479.214844 210 "/>
<path style="fill-rule:nonzero;fill:rgb(100%,51%,0%);fill-opacity:1;stroke-width:1;stroke-linecap:butt;stroke-linejoin:miter;stroke:rgb(0%,0%,0%);stroke-opacity:1;stroke-miterlimit:10;" d="M 853.214844 431 C 853.214844 442.714844 843.714844 452.214844 832 452.214844 C 820.285156 452.214844 810.785156 442.714844 810.785156 431 C 810.785156 419.285156 820.285156 409.785156 832 409.785156 C 843.714844 409.785156 853.214844 419.285156 853.214844 431 "/>
</g>
</svg>
