<?xml version="1.0" encoding="UTF-8"?>
<svg xmlns="http://www.w3.org/2000/svg" xmlns:xlink="http://www.w3.org/1999/xlink" width="1179pt" height="517pt" viewBox="0 0 1179 517" version="1.1">
<g id="surface241">
<rect x="0" y="0" width="1179" height="517" style="fill:rgb(90%,90%,90%);fill-opacity:1;stroke:none;"/>
<path style="fill-rule:nonzero;fill:rgb(35%,70%,90%);fill-opacity:1;stroke-width:1;stroke-linecap:butt;stroke-linejoin:miter;stroke:rgb(0%,0%,0%);stroke-opacity:1;stroke-miterlimit:10;" d="M 536 215 L 565.664062 215 L 577.664062 186.785156 L 589.664062 215 L 619.332031 215 L 595.332031 232.4375 L 603.417969 263.980469 L 577.664062 246.542969 L 551.914062 263.980469 L 564.214844 232.4375 L 536 215 "/>
<path style="fill-rule:nonzero;fill:rgb(35%,70%,90%);fill-opacity:1;stroke-width:1;stroke-linecap:butt;stroke-linejoin:miter;stroke:rgb(0%,0%,0%);stroke-opacity:1;stroke-miterlimit:10;" d="M 139 94 L 168.664062 94 L 180.664062 65.785156 L 192.664062 94 L 222.332031 94 L 198.332031 111.4375 L 206.417969 142.980469 L 180.664062 125.542969 L 154.914062 142.980469 L 167.214844 111.4375 L 139 94 "/>
<path style="fill-rule:nonzero;fill:rgb(35%,70%,90%);fill-opacity:1;stroke-width:1;stroke-linecap:butt;stroke-linejoin:miter;stroke:rgb(0%,0%,0%);stroke-opacity:1;stroke-miterlimit:10;" d="M 197 317 L 226.664062 317 L 238.664062 288.785156 L 250.664062 317 L 280.332031 317 L 256.332031 334.4375 L 264.417969 365.980469 L 238.664062 348.542969 L 212.914062 365.980469 L 225.214844 334.4375 L 197 317 "/>
<path style="fill-rule:nonzero;fill:rgb(55%,51%,53%);fill-opacity:1;stroke-width:1;stroke-linecap:butt;stroke-linejoin:miter;stroke:rgb(0%,0%,0%);stroke-opacity:1;stroke-miterlimit:10;" d="M 920.214844 118 C 920.214844 129.714844 910.714844 139.214844 899 139.214844 C 887.285156 139.214844 877.785156 129.714844 877.785156 118 C 877.785156 106.285156 887.285156 96.785156 899 96.785156 C 910.714844 96.785156 920.214844 106.285156 920.214844 118 "/>
<path style="fill-rule:nonzero;fill:rgb(55%,51%,53%);fill-opacity:1;stroke-width:1;stroke-linecap:butt;stroke-linejoin:miter;stroke:rgb(0%,0%,0%);stroke-opacity:1;stroke-miterlimit:10;" d="M 1014.214844 315 C 1014.214844 326.714844 1004.714844 336.214844 993 336.214844 C 981.285156 336.214844 971.785156 326.714844 971.785156 315 C 971.785156 303.285156 981.285156 293.785156 993 293.785156 C 1004.714844 293.785156 1014.214844 303.285156 1014.214844 315 "/>
<path style="fill-rule:nonzero;fill:rgb(55%,51%,53%);fill-opacity:1;stroke-width:1;stroke-linecap:butt;stroke-linejoin:miter;stroke:rgb(0%,0%,0%);stroke-opacity:1;stroke-miterlimit:10;" d="M 737.214844 338 C 737.214844 349.714844 727.714844 359.214844 716 359.214844 C 704.285156 359.214844 694.785156 349.714844 694.785156 338 C 694.785156 326.285156 704.285156 316.785156 716 316.785156 C 727.714844 316.785156 737.214844 326.285156 737.214844 338 "/>
<path style="fill-rule:nonzero;fill:rgb(55%,51%,53%);fill-opacity:1;stroke-width:1;stroke-linecap:butt;stroke-linejoin:miter;stroke:rgb(0%,0%,0%);stroke-opacity:1;stroke-miterlimit:10;" d="M 530.214844 381 C 530.214844 392.714844 520.714844 402.214844 509 402.214844 C 497.285156 402.214844 487.785156 392.714844 487.785156 381 C 487.785156 369.285156 497.285156 359.785156 509 359.785156 C 520.714844 359.785156 530.214844 369.285156 530.214844 381 "/>
<path style="fill-rule:nonzero;fill:rgb(55%,51%,53%);fill-opacity:1;stroke-width:1;stroke-linecap:butt;stroke-linejoin:miter;stroke:rgb(0%,0%,0%);stroke-opacity:1;stroke-miterlimit:10;" d="M 954.214844 425 C 954.214844 436.714844 944.714844 446.214844 933 446.214844 C 921.285156 446.214844 911.785156 436.714844 911.785156 425 C 911.785156 413.285156 921.285156 403.785156 933 403.785156 C 944.714844 403.785156 954.214844 413.285156 954.214844 425 "/>
</g>
</svg>
