<?xml version="1.0" encoding="UTF-8"?>
<svg xmlns="http://www.w3.org/2000/svg" xmlns:xlink="http://www.w3.org/1999/xlink" width="1179pt" height="517pt" viewBox="0 0 1179 517" version="1.1">
<g id="surface1491">
<rect x="0" y="0" width="1179" height="517" style="fill:rgb(90%,90%,90%);fill-opacity:1;stroke:none;"/>
<path style="fill-rule:nonzero;fill:rgb(100%,51%,0%);fill-opacity:1;stroke-width:1;stroke-linecap:butt;stroke-linejoin:miter;stroke:rgb(0%,0%,0%);stroke-opacity:1;stroke-miterlimit:10;" d="M 582 131 L 611.664062 131 L 623.664062 102.785156 L 635.664062 131 L 665.332031 131 L 641.332031 148.4375 L 649.417969 179.980469 L 623.664062 162.542969 L 597.914062 179.980469 L 610.214844 148.4375 L 582 131 "/>
<path style="fill-rule:nonzero;fill:rgb(100%,51%,0%);fill-opacity:1;stroke-width:1;stroke-linecap:butt;stroke-linejoin:miter;stroke:rgb(0%,0%,0%);stroke-opacity:1;stroke-miterlimit:10;" d="M 475 368 L 504.664062 368 L 516.664062 339.785156 L 528.664062 368 L 558.332031 368 L 534.332031 385.4375 L 542.417969 416.980469 L 516.664062 399.542969 L 490.914062 416.980469 L 503.214844 385.4375 L 475 368 "/>
<path style="fill-rule:nonzero;fill:rgb(100%,51%,0%);fill-opacity:1;stroke-width:1;stroke-linecap:butt;stroke-linejoin:miter;stroke:rgb(0%,0%,0%);stroke-opacity:1;stroke-miterlimit:10;" d="M 853 209 L 882.664062 209 L 894.664062 180.785156 L 906.664062 209 L 936.332031 209 L 912.332031 226.4375 L 920.417969 257.980469 L 894.664062 240.542969 L 868.914062 257.980469 L 881.214844 226.4375 L 853 209 "/>
<path style="fill-rule:nonzero;fill:rgb(100%,51%,0%);fill-opacity:1;stroke-width:1;stroke-linecap:butt;stroke-linejoin:miter;stroke:rgb(0%,0%,0%);stroke-opacity:1;stroke-miterlimit:10;" d="M 1030 232 L 1059.664062 232 L 1071.664062 203.785156 L 1083.664062 232 L 1113.332031 232 L 1089.332031 249.4375 L 1097.417969 280.980469 L 1071.664062 263.542969 L 1045.914062 280.980469 L 1058.214844 249.4375 L 1030 232 "/>
<path style="fill-rule:nonzero;fill:rgb(55%,51%,53%);fill-opacity:1;stroke-width:1;stroke-linecap:butt;stroke-linejoin:miter;stroke:rgb(0%,0%,0%);stroke-opacity:1;stroke-miterlimit:10;" d="M 722.214844 195 C 722.214844 206.714844 712.714844 216.214844 701 216.214844 C 689.285156 216.214844 679.785156 206.714844 679.785156 195 C 679.785156 183.285156 689.285156 173.785156 701 173.785156 C 712.714844 173.785156 722.214844 183.285156 722.214844 195 "/>
<path style="fill-rule:nonzero;fill:rgb(55%,51%,53%);fill-opacity:1;stroke-width:1;stroke-linecap:butt;stroke-linejoin:miter;stroke:rgb(0%,0%,0%);stroke-opacity:1;stroke-miterlimit:10;" d="M 889.214844 416 C 889.214844 427.714844 879.714844 437.214844 868 437.214844 C 856.285156 437.214844 846.785156 427.714844 846.785156 416 C 846.785156 404.285156 856.285156 394.785156 868 394.785156 C 879.714844 394.785156 889.214844 404.285156 889.214844 416 "/>
<path style="fill-rule:nonzero;fill:rgb(55%,51%,53%);fill-opacity:1;stroke-width:1;stroke-linecap:butt;stroke-linejoin:miter;stroke:rgb(0%,0%,0%);stroke-opacity:1;stroke-miterlimit:10;" d="M 239.214844 134 C 239.214844 145.714844 229.714844 155.214844 218 155.214844 C 206.285156 155.214844 196.785156 145.714844 196.785156 134 C 196.785156 122.285156 206.285156 112.785156 218 112.785156 C 229.714844 112.785156 239.214844 122.285156 239.214844 134 "/>
<path style="fill-rule:nonzero;fill:rgb(55%,51%,53%);fill-opacity:1;stroke-width:1;stroke-linecap:butt;stroke-linejoin:miter;stroke:rgb(0%,0%,0%);stroke-opacity:1;stroke-miterlimit:10;" d="M 626.214844 273 C 626.214844 284.714844 616.714844 294.214844 605 294.214844 C 593.285156 294.214844 583.785156 284.714844 583.785156 273 C 583.785156 261.285156 593.285156 251.785156 605 251.785156 C 616.714844 251.785156 626.214844 261.285156 626.214844 273 "/>
<path style="fill-rule:nonzero;fill:rgb(55%,51%,53%);fill-opacity:1;stroke-width:1;stroke-linecap:butt;stroke-linejoin:miter;stroke:rgb(0%,0%,0%);stroke-opacity:1;stroke-miterlimit:10;" d="M 457.214844 214 C 457.214844 225.714844 447.714844 235.214844 436 235.214844 C 424.285156 235.214844 414.785156 225.714844 414.785156 214 C 414.785156 202.285156 424.285156 192.785156 436 192.785156 C 447.714844 192.785156 457.214844 202.285156 457.214844 214 "/>
</g>
</svg>
