<?xml version="1.0" encoding="UTF-8"?>
<svg xmlns="http://www.w3.org/2000/svg" xmlns:xlink="http://www.w3.org/1999/xlink" width="1179pt" height="517pt" viewBox="0 0 1179 517" version="1.1">
<g id="surface541">
<rect x="0" y="0" width="1179" height="517" style="fill:rgb(90%,90%,90%);fill-opacity:1;stroke:none;"/>
<path style="fill-rule:nonzero;fill:rgb(35%,70%,90%);fill-opacity:1;stroke-width:1;stroke-linecap:butt;stroke-linejoin:miter;stroke:rgb(0%,0%,0%);stroke-opacity:1;stroke-miterlimit:10;" d="M 408 317 L 437.664062 317 L 449.664062 288.785156 L 461.664062 317 L 491.332031 317 L 467.332031 334.4375 L 475.417969 365.980469 L 449.664062 348.542969 L 423.914062 365.980469 L 436.214844 334.4375 L 408 317 "/>
<path style="fill-rule:nonzero;fill:rgb(35%,70%,90%);fill-opacity:1;stroke-width:1;stroke-linecap:butt;stroke-linejoin:miter;stroke:rgb(0%,0%,0%);stroke-opacity:1;stroke-miterlimit:10;" d="M 591 289 L 620.664062 289 L 632.664062 260.785156 L 644.664062 289 L 674.332031 289 L 650.332031 306.4375 L 658.417969 337.980469 L 632.664062 320.542969 L 606.914062 337.980469 L 619.214844 306.4375 L 591 289 "/>
<path style="fill-rule:nonzero;fill:rgb(35%,70%,90%);fill-opacity:1;stroke-width:1;stroke-linecap:butt;stroke-linejoin:miter;stroke:rgb(0%,0%,0%);stroke-opacity:1;stroke-miterlimit:10;" d="M 269 227 L 298.664062 227 L 310.664062 198.785156 L 322.664062 227 L 352.332031 227 L 328.332031 244.4375 L 336.417969 275.980469 L 310.664062 258.542969 L 284.914062 275.980469 L 297.214844 244.4375 L 269 227 "/>
<path style="fill-rule:nonzero;fill:rgb(100%,51%,0%);fill-opacity:1;stroke-width:1;stroke-linecap:butt;stroke-linejoin:miter;stroke:rgb(0%,0%,0%);stroke-opacity:1;stroke-miterlimit:10;" d="M 1051.214844 185 C 1051.214844 196.714844 1041.714844 206.214844 1030 206.214844 C 1018.285156 206.214844 1008.785156 196.714844 1008.785156 185 C 1008.785156 173.285156 1018.285156 163.785156 1030 163.785156 C 1041.714844 163.785156 1051.214844 173.285156 1051.214844 185 "/>
<path style="fill-rule:nonzero;fill:rgb(100%,51%,0%);fill-opacity:1;stroke-width:1;stroke-linecap:butt;stroke-linejoin:miter;stroke:rgb(0%,0%,0%);stroke-opacity:1;stroke-miterlimit:10;" d="M 767.214844 431 C 767.214844 442.714844 757.714844 452.214844 746 452.214844 C 734.285156 452.214844 724.785156 442.714844 724.785156 431 C 724.785156 419.285156 734.285156 409.785156 746 409.785156 C 757.714844 409.785156 767.214844 419.285156 767.214844 431 "/>
<path style="fill-rule:nonzero;fill:rgb(100%,51%,0%);fill-opacity:1;stroke-width:1;stroke-linecap:butt;stroke-linejoin:miter;stroke:rgb(0%,0%,0%);stroke-opacity:1;stroke-miterlimit:10;" d="M 835.214844 86 C 835.214844 97.714844 825.714844 107.214844 814 107.214844 C 802.285156 107.214844 792.785156 97.714844 792.785156 86 C 792.785156 74.285156 802.285156 64.785156 814 64.785156 C 825.714844 64.785156 835.214844 74.285156 835.214844 86 "/>
</g>
</svg>
