<?xml version="1.0" encoding="UTF-8"?>
<svg xmlns="http://www.w3.org/2000/svg" xmlns:xlink="http://www.w3.org/1999/xlink" width="1179pt" height="517pt" viewBox="0 0 1179 517" version="1.1">
<g id="surface1456">
<rect x="0" y="0" width="1179" height="517" style="fill:rgb(90%,90%,90%);fill-opacity:1;stroke:none;"/>
<path style="fill-rule:nonzero;fill:rgb(100%,51%,0%);fill-opacity:1;stroke-width:1;stroke-linecap:butt;stroke-linejoin:miter;stroke:rgb(0%,0%,0%);stroke-opacity:1;stroke-miterlimit:10;" d="M 303 282 L 332.664062 282 L 344.664062 253.785156 L 356.664062 282 L 386.332031 282 L 362.332031 299.4375 L 370.417969 330.980469 L 344.664062 313.542969 L 318.914062 330.980469 L 331.214844 299.4375 L 303 282 "/>
<path style="fill-rule:nonzero;fill:rgb(100%,51%,0%);fill-opacity:1;stroke-width:1;stroke-linecap:butt;stroke-linejoin:miter;stroke:rgb(0%,0%,0%);stroke-opacity:1;stroke-miterlimit:10;" d="M 1023 425 L 1052.664062 425 L 1064.664062 396.785156 L 1076.664062 425 L 1106.332031 425 L 1082.332031 442.4375 L 1090.417969 473.980469 L 1064.664062 456.542969 L 1038.914062 473.980469 L 1051.214844 442.4375 L 1023 425 "/>
<path style="fill-rule:nonzero;fill:rgb(100%,51%,0%);fill-opacity:1;stroke-width:1;stroke-linecap:butt;stroke-linejoin:miter;stroke:rgb(0%,0%,0%);stroke-opacity:1;stroke-miterlimit:10;" d="M 449 260 L 478.664062 260 L 490.664062 231.785156 L 502.664062 260 L 532.332031 260 L 508.332031 277.4375 L 516.417969 308.980469 L 490.664062 291.542969 L 464.914062 308.980469 L 477.214844 277.4375 L 449 260 "/>
<path style="fill-rule:nonzero;fill:rgb(100%,51%,0%);fill-opacity:1;stroke-width:1;stroke-linecap:butt;stroke-linejoin:miter;stroke:rgb(0%,0%,0%);stroke-opacity:1;stroke-miterlimit:10;" d="M 926 327 L 955.664062 327 L 967.664062 298.785156 L 979.664062 327 L 1009.332031 327 L 985.332031 344.4375 L 993.417969 375.980469 L 967.664062 358.542969 L 941.914062 375.980469 L 954.214844 344.4375 L 926 327 "/>
<path style="fill-rule:nonzero;fill:rgb(53%,27%,7%);fill-opacity:1;stroke-width:1;stroke-linecap:butt;stroke-linejoin:miter;stroke:rgb(0%,0%,0%);stroke-opacity:1;stroke-miterlimit:10;" d="M 964.214844 197 C 964.214844 208.714844 954.714844 218.214844 943 218.214844 C 931.285156 218.214844 921.785156 208.714844 921.785156 197 C 921.785156 185.285156 931.285156 175.785156 943 175.785156 C 954.714844 175.785156 964.214844 185.285156 964.214844 197 "/>
<path style="fill-rule:nonzero;fill:rgb(53%,27%,7%);fill-opacity:1;stroke-width:1;stroke-linecap:butt;stroke-linejoin:miter;stroke:rgb(0%,0%,0%);stroke-opacity:1;stroke-miterlimit:10;" d="M 672.214844 387 C 672.214844 398.714844 662.714844 408.214844 651 408.214844 C 639.285156 408.214844 629.785156 398.714844 629.785156 387 C 629.785156 375.285156 639.285156 365.785156 651 365.785156 C 662.714844 365.785156 672.214844 375.285156 672.214844 387 "/>
<path style="fill-rule:nonzero;fill:rgb(53%,27%,7%);fill-opacity:1;stroke-width:1;stroke-linecap:butt;stroke-linejoin:miter;stroke:rgb(0%,0%,0%);stroke-opacity:1;stroke-miterlimit:10;" d="M 801.214844 430 C 801.214844 441.714844 791.714844 451.214844 780 451.214844 C 768.285156 451.214844 758.785156 441.714844 758.785156 430 C 758.785156 418.285156 768.285156 408.785156 780 408.785156 C 791.714844 408.785156 801.214844 418.285156 801.214844 430 "/>
<path style="fill-rule:nonzero;fill:rgb(53%,27%,7%);fill-opacity:1;stroke-width:1;stroke-linecap:butt;stroke-linejoin:miter;stroke:rgb(0%,0%,0%);stroke-opacity:1;stroke-miterlimit:10;" d="M 435.214844 114 C 435.214844 125.714844 425.714844 135.214844 414 135.214844 C 402.285156 135.214844 392.785156 125.714844 392.785156 114 C 392.785156 102.285156 402.285156 92.785156 414 92.785156 C 425.714844 92.785156 435.214844 102.285156 435.214844 114 "/>
<path style="fill-rule:nonzero;fill:rgb(53%,27%,7%);fill-opacity:1;stroke-width:1;stroke-linecap:butt;stroke-linejoin:miter;stroke:rgb(0%,0%,0%);stroke-opacity:1;stroke-miterlimit:10;" d="M 650.214844 182 C 650.214844 193.714844 640.714844 203.214844 629 203.214844 C 617.285156 203.214844 607.785156 193.714844 607.785156 182 C 607.785156 170.285156 617.285156 160.785156 629 160.785156 C 640.714844 160.785156 650.214844 170.285156 650.214844 182 "/>
</g>
</svg>
