<?xml version="1.0" encoding="UTF-8"?>
<svg xmlns="http://www.w3.org/2000/svg" xmlns:xlink="http://www.w3.org/1999/xlink" width="1179pt" height="517pt" viewBox="0 0 1179 517" version="1.1">
<g id="surface251">
<rect x="0" y="0" width="1179" height="517" style="fill:rgb(90%,90%,90%);fill-opacity:1;stroke:none;"/>
<path style="fill-rule:nonzero;fill:rgb(35%,70%,90%);fill-opacity:1;stroke-width:1;stroke-linecap:butt;stroke-linejoin:miter;stroke:rgb(0%,0%,0%);stroke-opacity:1;stroke-miterlimit:10;" d="M 295 221 L 324.664062 221 L 336.664062 192.785156 L 348.664062 221 L 378.332031 221 L 354.332031 238.4375 L 362.417969 269.980469 L 336.664062 252.542969 L 310.914062 269.980469 L 323.214844 238.4375 L 295 221 "/>
<path style="fill-rule:nonzero;fill:rgb(55%,51%,53%);fill-opacity:1;stroke-width:1;stroke-linecap:butt;stroke-linejoin:miter;stroke:rgb(0%,0%,0%);stroke-opacity:1;stroke-miterlimit:10;" d="M 250 109 L 279.664062 109 L 291.664062 80.785156 L 303.664062 109 L 333.332031 109 L 309.332031 126.4375 L 317.417969 157.980469 L 291.664062 140.542969 L 265.914062 157.980469 L 278.214844 126.4375 L 250 109 "/>
<path style="fill-rule:nonzero;fill:rgb(35%,70%,90%);fill-opacity:1;stroke-width:1;stroke-linecap:butt;stroke-linejoin:miter;stroke:rgb(0%,0%,0%);stroke-opacity:1;stroke-miterlimit:10;" d="M 349 408 L 378.664062 408 L 390.664062 379.785156 L 402.664062 408 L 432.332031 408 L 408.332031 425.4375 L 416.417969 456.980469 L 390.664062 439.542969 L 364.914062 456.980469 L 377.214844 425.4375 L 349 408 "/>
<path style="fill-rule:nonzero;fill:rgb(55%,51%,53%);fill-opacity:1;stroke-width:1;stroke-linecap:butt;stroke-linejoin:miter;stroke:rgb(0%,0%,0%);stroke-opacity:1;stroke-miterlimit:10;" d="M 146 271 L 175.664062 271 L 187.664062 242.785156 L 199.664062 271 L 229.332031 271 L 205.332031 288.4375 L 213.417969 319.980469 L 187.664062 302.542969 L 161.914062 319.980469 L 174.214844 288.4375 L 146 271 "/>
<path style="fill-rule:nonzero;fill:rgb(55%,51%,53%);fill-opacity:1;stroke-width:1;stroke-linecap:butt;stroke-linejoin:miter;stroke:rgb(0%,0%,0%);stroke-opacity:1;stroke-miterlimit:10;" d="M 726.785156 323.785156 L 726.785156 366.214844 L 769.214844 366.214844 L 769.214844 323.785156 L 726.785156 323.785156 "/>
<path style="fill-rule:nonzero;fill:rgb(35%,70%,90%);fill-opacity:1;stroke-width:1;stroke-linecap:butt;stroke-linejoin:miter;stroke:rgb(0%,0%,0%);stroke-opacity:1;stroke-miterlimit:10;" d="M 872.785156 109.785156 L 872.785156 152.214844 L 915.214844 152.214844 L 915.214844 109.785156 L 872.785156 109.785156 "/>
<path style="fill-rule:nonzero;fill:rgb(55%,51%,53%);fill-opacity:1;stroke-width:1;stroke-linecap:butt;stroke-linejoin:miter;stroke:rgb(0%,0%,0%);stroke-opacity:1;stroke-miterlimit:10;" d="M 1004.785156 151.785156 L 1004.785156 194.214844 L 1047.214844 194.214844 L 1047.214844 151.785156 L 1004.785156 151.785156 "/>
<path style="fill-rule:nonzero;fill:rgb(35%,70%,90%);fill-opacity:1;stroke-width:1;stroke-linecap:butt;stroke-linejoin:miter;stroke:rgb(0%,0%,0%);stroke-opacity:1;stroke-miterlimit:10;" d="M 755.785156 191.785156 L 755.785156 234.214844 L 798.214844 234.214844 L 798.214844 191.785156 L 755.785156 191.785156 "/>
<path style="fill-rule:nonzero;fill:rgb(55%,51%,53%);fill-opacity:1;stroke-width:1;stroke-linecap:butt;stroke-linejoin:miter;stroke:rgb(0%,0%,0%);stroke-opacity:1;stroke-miterlimit:10;" d="M 1008.785156 337.785156 L 1008.785156 380.214844 L 1051.214844 380.214844 L 1051.214844 337.785156 L 1008.785156 337.785156 "/>
</g>
</svg>
