<?xml version="1.0" encoding="UTF-8"?>
<svg xmlns="http://www.w3.org/2000/svg" xmlns:xlink="http://www.w3.org/1999/xlink" width="1179pt" height="517pt" viewBox="0 0 1179 517" version="1.1">
<g id="surface1121">
<rect x="0" y="0" width="1179" height="517" style="fill:rgb(90%,90%,90%);fill-opacity:1;stroke:none;"/>
<path style="fill-rule:nonzero;fill:rgb(53%,27%,7%);fill-opacity:1;stroke-width:1;stroke-linecap:butt;stroke-linejoin:miter;stroke:rgb(0%,0%,0%);stroke-opacity:1;stroke-miterlimit:10;" d="M 480 248 L 454.019531 293 L 505.980469 293 L 480 248 "/>
<path style="fill-rule:nonzero;fill:rgb(53%,27%,7%);fill-opacity:1;stroke-width:1;stroke-linecap:butt;stroke-linejoin:miter;stroke:rgb(0%,0%,0%);stroke-opacity:1;stroke-miterlimit:10;" d="M 542 135 L 516.019531 180 L 567.980469 180 L 542 135 "/>
<path style="fill-rule:nonzero;fill:rgb(53%,27%,7%);fill-opacity:1;stroke-width:1;stroke-linecap:butt;stroke-linejoin:miter;stroke:rgb(0%,0%,0%);stroke-opacity:1;stroke-miterlimit:10;" d="M 401 88 L 375.019531 133 L 426.980469 133 L 401 88 "/>
<path style="fill-rule:nonzero;fill:rgb(53%,27%,7%);fill-opacity:1;stroke-width:1;stroke-linecap:butt;stroke-linejoin:miter;stroke:rgb(0%,0%,0%);stroke-opacity:1;stroke-miterlimit:10;" d="M 246 230 L 220.019531 275 L 271.980469 275 L 246 230 "/>
<path style="fill-rule:nonzero;fill:rgb(35%,70%,90%);fill-opacity:1;stroke-width:1;stroke-linecap:butt;stroke-linejoin:miter;stroke:rgb(0%,0%,0%);stroke-opacity:1;stroke-miterlimit:10;" d="M 324 428 L 353.664062 428 L 365.664062 399.785156 L 377.664062 428 L 407.332031 428 L 383.332031 445.4375 L 391.417969 476.980469 L 365.664062 459.542969 L 339.914062 476.980469 L 352.214844 445.4375 L 324 428 "/>
<path style="fill-rule:nonzero;fill:rgb(35%,70%,90%);fill-opacity:1;stroke-width:1;stroke-linecap:butt;stroke-linejoin:miter;stroke:rgb(0%,0%,0%);stroke-opacity:1;stroke-miterlimit:10;" d="M 185 121 L 214.664062 121 L 226.664062 92.785156 L 238.664062 121 L 268.332031 121 L 244.332031 138.4375 L 252.417969 169.980469 L 226.664062 152.542969 L 200.914062 169.980469 L 213.214844 138.4375 L 185 121 "/>
<path style="fill-rule:nonzero;fill:rgb(35%,70%,90%);fill-opacity:1;stroke-width:1;stroke-linecap:butt;stroke-linejoin:miter;stroke:rgb(0%,0%,0%);stroke-opacity:1;stroke-miterlimit:10;" d="M 686 187 L 715.664062 187 L 727.664062 158.785156 L 739.664062 187 L 769.332031 187 L 745.332031 204.4375 L 753.417969 235.980469 L 727.664062 218.542969 L 701.914062 235.980469 L 714.214844 204.4375 L 686 187 "/>
<path style="fill-rule:nonzero;fill:rgb(35%,70%,90%);fill-opacity:1;stroke-width:1;stroke-linecap:butt;stroke-linejoin:miter;stroke:rgb(0%,0%,0%);stroke-opacity:1;stroke-miterlimit:10;" d="M 970 419 L 999.664062 419 L 1011.664062 390.785156 L 1023.664062 419 L 1053.332031 419 L 1029.332031 436.4375 L 1037.417969 467.980469 L 1011.664062 450.542969 L 985.914062 467.980469 L 998.214844 436.4375 L 970 419 "/>
<path style="fill-rule:nonzero;fill:rgb(35%,70%,90%);fill-opacity:1;stroke-width:1;stroke-linecap:butt;stroke-linejoin:miter;stroke:rgb(0%,0%,0%);stroke-opacity:1;stroke-miterlimit:10;" d="M 875 295 L 904.664062 295 L 916.664062 266.785156 L 928.664062 295 L 958.332031 295 L 934.332031 312.4375 L 942.417969 343.980469 L 916.664062 326.542969 L 890.914062 343.980469 L 903.214844 312.4375 L 875 295 "/>
</g>
</svg>
