<?xml version="1.0" encoding="UTF-8"?>
<svg xmlns="http://www.w3.org/2000/svg" xmlns:xlink="http://www.w3.org/1999/xlink" width="1179pt" height="517pt" viewBox="0 0 1179 517" version="1.1">
<g id="surface391">
<rect x="0" y="0" width="1179" height="517" style="fill:rgb(90%,90%,90%);fill-opacity:1;stroke:none;"/>
<path style="fill-rule:nonzero;fill:rgb(35%,70%,90%);fill-opacity:1;stroke-width:1;stroke-linecap:butt;stroke-linejoin:miter;stroke:rgb(0%,0%,0%);stroke-opacity:1;stroke-miterlimit:10;" d="M 540 387 L 569.664062 387 L 581.664062 358.785156 L 593.664062 387 L 623.332031 387 L 599.332031 404.4375 L 607.417969 435.980469 L 581.664062 418.542969 L 555.914062 435.980469 L 568.214844 404.4375 L 540 387 "/>
<path style="fill-rule:nonzero;fill:rgb(35%,70%,90%);fill-opacity:1;stroke-width:1;stroke-linecap:butt;stroke-linejoin:miter;stroke:rgb(0%,0%,0%);stroke-opacity:1;stroke-miterlimit:10;" d="M 320 336 L 349.664062 336 L 361.664062 307.785156 L 373.664062 336 L 403.332031 336 L 379.332031 353.4375 L 387.417969 384.980469 L 361.664062 367.542969 L 335.914062 384.980469 L 348.214844 353.4375 L 320 336 "/>
<path style="fill-rule:nonzero;fill:rgb(35%,70%,90%);fill-opacity:1;stroke-width:1;stroke-linecap:butt;stroke-linejoin:miter;stroke:rgb(0%,0%,0%);stroke-opacity:1;stroke-miterlimit:10;" d="M 403 192 L 432.664062 192 L 444.664062 163.785156 L 456.664062 192 L 486.332031 192 L 462.332031 209.4375 L 470.417969 240.980469 L 444.664062 223.542969 L 418.914062 240.980469 L 431.214844 209.4375 L 403 192 "/>
<path style="fill-rule:nonzero;fill:rgb(35%,70%,90%);fill-opacity:1;stroke-width:1;stroke-linecap:butt;stroke-linejoin:miter;stroke:rgb(0%,0%,0%);stroke-opacity:1;stroke-miterlimit:10;" d="M 758 246 L 787.664062 246 L 799.664062 217.785156 L 811.664062 246 L 841.332031 246 L 817.332031 263.4375 L 825.417969 294.980469 L 799.664062 277.542969 L 773.914062 294.980469 L 786.214844 263.4375 L 758 246 "/>
<path style="fill-rule:nonzero;fill:rgb(53%,27%,7%);fill-opacity:1;stroke-width:1;stroke-linecap:butt;stroke-linejoin:miter;stroke:rgb(0%,0%,0%);stroke-opacity:1;stroke-miterlimit:10;" d="M 115.214844 376 C 115.214844 387.714844 105.714844 397.214844 94 397.214844 C 82.285156 397.214844 72.785156 387.714844 72.785156 376 C 72.785156 364.285156 82.285156 354.785156 94 354.785156 C 105.714844 354.785156 115.214844 364.285156 115.214844 376 "/>
<path style="fill-rule:nonzero;fill:rgb(53%,27%,7%);fill-opacity:1;stroke-width:1;stroke-linecap:butt;stroke-linejoin:miter;stroke:rgb(0%,0%,0%);stroke-opacity:1;stroke-miterlimit:10;" d="M 819.214844 382 C 819.214844 393.714844 809.714844 403.214844 798 403.214844 C 786.285156 403.214844 776.785156 393.714844 776.785156 382 C 776.785156 370.285156 786.285156 360.785156 798 360.785156 C 809.714844 360.785156 819.214844 370.285156 819.214844 382 "/>
<path style="fill-rule:nonzero;fill:rgb(53%,27%,7%);fill-opacity:1;stroke-width:1;stroke-linecap:butt;stroke-linejoin:miter;stroke:rgb(0%,0%,0%);stroke-opacity:1;stroke-miterlimit:10;" d="M 743.214844 112 C 743.214844 123.714844 733.714844 133.214844 722 133.214844 C 710.285156 133.214844 700.785156 123.714844 700.785156 112 C 700.785156 100.285156 710.285156 90.785156 722 90.785156 C 733.714844 90.785156 743.214844 100.285156 743.214844 112 "/>
<path style="fill-rule:nonzero;fill:rgb(53%,27%,7%);fill-opacity:1;stroke-width:1;stroke-linecap:butt;stroke-linejoin:miter;stroke:rgb(0%,0%,0%);stroke-opacity:1;stroke-miterlimit:10;" d="M 586.214844 120 C 586.214844 131.714844 576.714844 141.214844 565 141.214844 C 553.285156 141.214844 543.785156 131.714844 543.785156 120 C 543.785156 108.285156 553.285156 98.785156 565 98.785156 C 576.714844 98.785156 586.214844 108.285156 586.214844 120 "/>
</g>
</svg>
