<?xml version="1.0" encoding="UTF-8"?>
<svg xmlns="http://www.w3.org/2000/svg" xmlns:xlink="http://www.w3.org/1999/xlink" width="1179pt" height="517pt" viewBox="0 0 1179 517" version="1.1">
<g id="surface1291">
<rect x="0" y="0" width="1179" height="517" style="fill:rgb(90%,90%,90%);fill-opacity:1;stroke:none;"/>
<path style="fill-rule:nonzero;fill:rgb(100%,51%,0%);fill-opacity:1;stroke-width:1;stroke-linecap:butt;stroke-linejoin:miter;stroke:rgb(0%,0%,0%);stroke-opacity:1;stroke-miterlimit:10;" d="M 696 107 L 725.664062 107 L 737.664062 78.785156 L 749.664062 107 L 779.332031 107 L 755.332031 124.4375 L 763.417969 155.980469 L 737.664062 138.542969 L 711.914062 155.980469 L 724.214844 124.4375 L 696 107 "/>
<path style="fill-rule:nonzero;fill:rgb(100%,51%,0%);fill-opacity:1;stroke-width:1;stroke-linecap:butt;stroke-linejoin:miter;stroke:rgb(0%,0%,0%);stroke-opacity:1;stroke-miterlimit:10;" d="M 297 379 L 326.664062 379 L 338.664062 350.785156 L 350.664062 379 L 380.332031 379 L 356.332031 396.4375 L 364.417969 427.980469 L 338.664062 410.542969 L 312.914062 427.980469 L 325.214844 396.4375 L 297 379 "/>
<path style="fill-rule:nonzero;fill:rgb(100%,51%,0%);fill-opacity:1;stroke-width:1;stroke-linecap:butt;stroke-linejoin:miter;stroke:rgb(0%,0%,0%);stroke-opacity:1;stroke-miterlimit:10;" d="M 513 362 L 542.664062 362 L 554.664062 333.785156 L 566.664062 362 L 596.332031 362 L 572.332031 379.4375 L 580.417969 410.980469 L 554.664062 393.542969 L 528.914062 410.980469 L 541.214844 379.4375 L 513 362 "/>
<path style="fill-rule:nonzero;fill:rgb(100%,51%,0%);fill-opacity:1;stroke-width:1;stroke-linecap:butt;stroke-linejoin:miter;stroke:rgb(0%,0%,0%);stroke-opacity:1;stroke-miterlimit:10;" d="M 848 268 L 877.664062 268 L 889.664062 239.785156 L 901.664062 268 L 931.332031 268 L 907.332031 285.4375 L 915.417969 316.980469 L 889.664062 299.542969 L 863.914062 316.980469 L 876.214844 285.4375 L 848 268 "/>
<path style="fill-rule:nonzero;fill:rgb(100%,51%,0%);fill-opacity:1;stroke-width:1;stroke-linecap:butt;stroke-linejoin:miter;stroke:rgb(0%,0%,0%);stroke-opacity:1;stroke-miterlimit:10;" d="M 675 241 L 704.664062 241 L 716.664062 212.785156 L 728.664062 241 L 758.332031 241 L 734.332031 258.4375 L 742.417969 289.980469 L 716.664062 272.542969 L 690.914062 289.980469 L 703.214844 258.4375 L 675 241 "/>
<path style="fill-rule:nonzero;fill:rgb(35%,70%,90%);fill-opacity:1;stroke-width:1;stroke-linecap:butt;stroke-linejoin:miter;stroke:rgb(0%,0%,0%);stroke-opacity:1;stroke-miterlimit:10;" d="M 280 99 L 254.019531 144 L 305.980469 144 L 280 99 "/>
<path style="fill-rule:nonzero;fill:rgb(35%,70%,90%);fill-opacity:1;stroke-width:1;stroke-linecap:butt;stroke-linejoin:miter;stroke:rgb(0%,0%,0%);stroke-opacity:1;stroke-miterlimit:10;" d="M 971 225 L 945.019531 270 L 996.980469 270 L 971 225 "/>
<path style="fill-rule:nonzero;fill:rgb(35%,70%,90%);fill-opacity:1;stroke-width:1;stroke-linecap:butt;stroke-linejoin:miter;stroke:rgb(0%,0%,0%);stroke-opacity:1;stroke-miterlimit:10;" d="M 123 385 L 97.019531 430 L 148.980469 430 L 123 385 "/>
</g>
</svg>
