<?xml version="1.0" encoding="UTF-8"?>
<svg xmlns="http://www.w3.org/2000/svg" xmlns:xlink="http://www.w3.org/1999/xlink" width="1179pt" height="517pt" viewBox="0 0 1179 517" version="1.1">
<g id="surface406">
<rect x="0" y="0" width="1179" height="517" style="fill:rgb(90%,90%,90%);fill-opacity:1;stroke:none;"/>
<path style="fill-rule:nonzero;fill:rgb(35%,70%,90%);fill-opacity:1;stroke-width:1;stroke-linecap:butt;stroke-linejoin:miter;stroke:rgb(0%,0%,0%);stroke-opacity:1;stroke-miterlimit:10;" d="M 385.214844 392 C 385.214844 403.714844 375.714844 413.214844 364 413.214844 C 352.285156 413.214844 342.785156 403.714844 342.785156 392 C 342.785156 380.285156 352.285156 370.785156 364 370.785156 C 375.714844 370.785156 385.214844 380.285156 385.214844 392 "/>
<path style="fill-rule:nonzero;fill:rgb(35%,70%,90%);fill-opacity:1;stroke-width:1;stroke-linecap:butt;stroke-linejoin:miter;stroke:rgb(0%,0%,0%);stroke-opacity:1;stroke-miterlimit:10;" d="M 351.214844 194 C 351.214844 205.714844 341.714844 215.214844 330 215.214844 C 318.285156 215.214844 308.785156 205.714844 308.785156 194 C 308.785156 182.285156 318.285156 172.785156 330 172.785156 C 341.714844 172.785156 351.214844 182.285156 351.214844 194 "/>
<path style="fill-rule:nonzero;fill:rgb(35%,70%,90%);fill-opacity:1;stroke-width:1;stroke-linecap:butt;stroke-linejoin:miter;stroke:rgb(0%,0%,0%);stroke-opacity:1;stroke-miterlimit:10;" d="M 170.214844 250 C 170.214844 261.714844 160.714844 271.214844 149 271.214844 C 137.285156 271.214844 127.785156 261.714844 127.785156 250 C 127.785156 238.285156 137.285156 228.785156 149 228.785156 C 160.714844 228.785156 170.214844 238.285156 170.214844 250 "/>
<path style="fill-rule:nonzero;fill:rgb(53%,27%,7%);fill-opacity:1;stroke-width:1;stroke-linecap:butt;stroke-linejoin:miter;stroke:rgb(0%,0%,0%);stroke-opacity:1;stroke-miterlimit:10;" d="M 737 182 L 711.019531 227 L 762.980469 227 L 737 182 "/>
<path style="fill-rule:nonzero;fill:rgb(53%,27%,7%);fill-opacity:1;stroke-width:1;stroke-linecap:butt;stroke-linejoin:miter;stroke:rgb(0%,0%,0%);stroke-opacity:1;stroke-miterlimit:10;" d="M 785 389 L 759.019531 434 L 810.980469 434 L 785 389 "/>
<path style="fill-rule:nonzero;fill:rgb(53%,27%,7%);fill-opacity:1;stroke-width:1;stroke-linecap:butt;stroke-linejoin:miter;stroke:rgb(0%,0%,0%);stroke-opacity:1;stroke-miterlimit:10;" d="M 943 163 L 917.019531 208 L 968.980469 208 L 943 163 "/>
</g>
</svg>
