<?xml version="1.0" encoding="UTF-8"?>
<svg xmlns="http://www.w3.org/2000/svg" xmlns:xlink="http://www.w3.org/1999/xlink" width="1179pt" height="517pt" viewBox="0 0 1179 517" version="1.1">
<g id="surface1131">
<rect x="0" y="0" width="1179" height="517" style="fill:rgb(90%,90%,90%);fill-opacity:1;stroke:none;"/>
<path style="fill-rule:nonzero;fill:rgb(100%,51%,0%);fill-opacity:1;stroke-width:1;stroke-linecap:butt;stroke-linejoin:miter;stroke:rgb(0%,0%,0%);stroke-opacity:1;stroke-miterlimit:10;" d="M 597 227 L 626.664062 227 L 638.664062 198.785156 L 650.664062 227 L 680.332031 227 L 656.332031 244.4375 L 664.417969 275.980469 L 638.664062 258.542969 L 612.914062 275.980469 L 625.214844 244.4375 L 597 227 "/>
<path style="fill-rule:nonzero;fill:rgb(100%,51%,0%);fill-opacity:1;stroke-width:1;stroke-linecap:butt;stroke-linejoin:miter;stroke:rgb(0%,0%,0%);stroke-opacity:1;stroke-miterlimit:10;" d="M 83 164 L 112.664062 164 L 124.664062 135.785156 L 136.664062 164 L 166.332031 164 L 142.332031 181.4375 L 150.417969 212.980469 L 124.664062 195.542969 L 98.914062 212.980469 L 111.214844 181.4375 L 83 164 "/>
<path style="fill-rule:nonzero;fill:rgb(100%,51%,0%);fill-opacity:1;stroke-width:1;stroke-linecap:butt;stroke-linejoin:miter;stroke:rgb(0%,0%,0%);stroke-opacity:1;stroke-miterlimit:10;" d="M 346 212 L 375.664062 212 L 387.664062 183.785156 L 399.664062 212 L 429.332031 212 L 405.332031 229.4375 L 413.417969 260.980469 L 387.664062 243.542969 L 361.914062 260.980469 L 374.214844 229.4375 L 346 212 "/>
<path style="fill-rule:nonzero;fill:rgb(100%,51%,0%);fill-opacity:1;stroke-width:1;stroke-linecap:butt;stroke-linejoin:miter;stroke:rgb(0%,0%,0%);stroke-opacity:1;stroke-miterlimit:10;" d="M 1018 112 L 1047.664062 112 L 1059.664062 83.785156 L 1071.664062 112 L 1101.332031 112 L 1077.332031 129.4375 L 1085.417969 160.980469 L 1059.664062 143.542969 L 1033.914062 160.980469 L 1046.214844 129.4375 L 1018 112 "/>
<path style="fill-rule:nonzero;fill:rgb(55%,51%,53%);fill-opacity:1;stroke-width:1;stroke-linecap:butt;stroke-linejoin:miter;stroke:rgb(0%,0%,0%);stroke-opacity:1;stroke-miterlimit:10;" d="M 580.214844 407 C 580.214844 418.714844 570.714844 428.214844 559 428.214844 C 547.285156 428.214844 537.785156 418.714844 537.785156 407 C 537.785156 395.285156 547.285156 385.785156 559 385.785156 C 570.714844 385.785156 580.214844 395.285156 580.214844 407 "/>
<path style="fill-rule:nonzero;fill:rgb(55%,51%,53%);fill-opacity:1;stroke-width:1;stroke-linecap:butt;stroke-linejoin:miter;stroke:rgb(0%,0%,0%);stroke-opacity:1;stroke-miterlimit:10;" d="M 931.214844 300 C 931.214844 311.714844 921.714844 321.214844 910 321.214844 C 898.285156 321.214844 888.785156 311.714844 888.785156 300 C 888.785156 288.285156 898.285156 278.785156 910 278.785156 C 921.714844 278.785156 931.214844 288.285156 931.214844 300 "/>
<path style="fill-rule:nonzero;fill:rgb(55%,51%,53%);fill-opacity:1;stroke-width:1;stroke-linecap:butt;stroke-linejoin:miter;stroke:rgb(0%,0%,0%);stroke-opacity:1;stroke-miterlimit:10;" d="M 865.214844 199 C 865.214844 210.714844 855.714844 220.214844 844 220.214844 C 832.285156 220.214844 822.785156 210.714844 822.785156 199 C 822.785156 187.285156 832.285156 177.785156 844 177.785156 C 855.714844 177.785156 865.214844 187.285156 865.214844 199 "/>
<path style="fill-rule:nonzero;fill:rgb(55%,51%,53%);fill-opacity:1;stroke-width:1;stroke-linecap:butt;stroke-linejoin:miter;stroke:rgb(0%,0%,0%);stroke-opacity:1;stroke-miterlimit:10;" d="M 488.214844 273 C 488.214844 284.714844 478.714844 294.214844 467 294.214844 C 455.285156 294.214844 445.785156 284.714844 445.785156 273 C 445.785156 261.285156 455.285156 251.785156 467 251.785156 C 478.714844 251.785156 488.214844 261.285156 488.214844 273 "/>
<path style="fill-rule:nonzero;fill:rgb(55%,51%,53%);fill-opacity:1;stroke-width:1;stroke-linecap:butt;stroke-linejoin:miter;stroke:rgb(0%,0%,0%);stroke-opacity:1;stroke-miterlimit:10;" d="M 1046.214844 413 C 1046.214844 424.714844 1036.714844 434.214844 1025 434.214844 C 1013.285156 434.214844 1003.785156 424.714844 1003.785156 413 C 1003.785156 401.285156 1013.285156 391.785156 1025 391.785156 C 1036.714844 391.785156 1046.214844 401.285156 1046.214844 413 "/>
</g>
</svg>
