<?xml version="1.0" encoding="UTF-8"?>
<svg xmlns="http://www.w3.org/2000/svg" xmlns:xlink="http://www.w3.org/1999/xlink" width="1179pt" height="517pt" viewBox="0 0 1179 517" version="1.1">
<g id="surface641">
<rect x="0" y="0" width="1179" height="517" style="fill:rgb(90%,90%,90%);fill-opacity:1;stroke:none;"/>
<path style="fill-rule:nonzero;fill:rgb(100%,51%,0%);fill-opacity:1;stroke-width:1;stroke-linecap:butt;stroke-linejoin:miter;stroke:rgb(0%,0%,0%);stroke-opacity:1;stroke-miterlimit:10;" d="M 376 171 L 405.664062 171 L 417.664062 142.785156 L 429.664062 171 L 459.332031 171 L 435.332031 188.4375 L 443.417969 219.980469 L 417.664062 202.542969 L 391.914062 219.980469 L 404.214844 188.4375 L 376 171 "/>
<path style="fill-rule:nonzero;fill:rgb(53%,27%,7%);fill-opacity:1;stroke-width:1;stroke-linecap:butt;stroke-linejoin:miter;stroke:rgb(0%,0%,0%);stroke-opacity:1;stroke-miterlimit:10;" d="M 104 267 L 133.664062 267 L 145.664062 238.785156 L 157.664062 267 L 187.332031 267 L 163.332031 284.4375 L 171.417969 315.980469 L 145.664062 298.542969 L 119.914062 315.980469 L 132.214844 284.4375 L 104 267 "/>
<path style="fill-rule:nonzero;fill:rgb(100%,51%,0%);fill-opacity:1;stroke-width:1;stroke-linecap:butt;stroke-linejoin:miter;stroke:rgb(0%,0%,0%);stroke-opacity:1;stroke-miterlimit:10;" d="M 147 122 L 176.664062 122 L 188.664062 93.785156 L 200.664062 122 L 230.332031 122 L 206.332031 139.4375 L 214.417969 170.980469 L 188.664062 153.542969 L 162.914062 170.980469 L 175.214844 139.4375 L 147 122 "/>
<path style="fill-rule:nonzero;fill:rgb(53%,27%,7%);fill-opacity:1;stroke-width:1;stroke-linecap:butt;stroke-linejoin:miter;stroke:rgb(0%,0%,0%);stroke-opacity:1;stroke-miterlimit:10;" d="M 875.785156 272.785156 L 875.785156 315.214844 L 918.214844 315.214844 L 918.214844 272.785156 L 875.785156 272.785156 "/>
<path style="fill-rule:nonzero;fill:rgb(100%,51%,0%);fill-opacity:1;stroke-width:1;stroke-linecap:butt;stroke-linejoin:miter;stroke:rgb(0%,0%,0%);stroke-opacity:1;stroke-miterlimit:10;" d="M 687.785156 203.785156 L 687.785156 246.214844 L 730.214844 246.214844 L 730.214844 203.785156 L 687.785156 203.785156 "/>
<path style="fill-rule:nonzero;fill:rgb(53%,27%,7%);fill-opacity:1;stroke-width:1;stroke-linecap:butt;stroke-linejoin:miter;stroke:rgb(0%,0%,0%);stroke-opacity:1;stroke-miterlimit:10;" d="M 1004.785156 177.785156 L 1004.785156 220.214844 L 1047.214844 220.214844 L 1047.214844 177.785156 L 1004.785156 177.785156 "/>
<path style="fill-rule:nonzero;fill:rgb(53%,27%,7%);fill-opacity:1;stroke-width:1;stroke-linecap:butt;stroke-linejoin:miter;stroke:rgb(0%,0%,0%);stroke-opacity:1;stroke-miterlimit:10;" d="M 683.785156 304.785156 L 683.785156 347.214844 L 726.214844 347.214844 L 726.214844 304.785156 L 683.785156 304.785156 "/>
<path style="fill-rule:nonzero;fill:rgb(53%,27%,7%);fill-opacity:1;stroke-width:1;stroke-linecap:butt;stroke-linejoin:miter;stroke:rgb(0%,0%,0%);stroke-opacity:1;stroke-miterlimit:10;" d="M 867.785156 365.785156 L 867.785156 408.214844 L 910.214844 408.214844 L 910.214844 365.785156 L 867.785156 365.785156 "/>
</g>
</svg>
