<?xml version="1.0" encoding="UTF-8"?>
<svg xmlns="http://www.w3.org/2000/svg" xmlns:xlink="http://www.w3.org/1999/xlink" width="1179pt" height="517pt" viewBox="0 0 1179 517" version="1.1">
<g id="surface311">
<rect x="0" y="0" width="1179" height="517" style="fill:rgb(90%,90%,90%);fill-opacity:1;stroke:none;"/>
<path style="fill-rule:nonzero;fill:rgb(100%,51%,0%);fill-opacity:1;stroke-width:1;stroke-linecap:butt;stroke-linejoin:miter;stroke:rgb(0%,0%,0%);stroke-opacity:1;stroke-miterlimit:10;" d="M 371 383 L 400.664062 383 L 412.664062 354.785156 L 424.664062 383 L 454.332031 383 L 430.332031 400.4375 L 438.417969 431.980469 L 412.664062 414.542969 L 386.914062 431.980469 L 399.214844 400.4375 L 371 383 "/>
<path style="fill-rule:nonzero;fill:rgb(100%,51%,0%);fill-opacity:1;stroke-width:1;stroke-linecap:butt;stroke-linejoin:miter;stroke:rgb(0%,0%,0%);stroke-opacity:1;stroke-miterlimit:10;" d="M 350 246 L 379.664062 246 L 391.664062 217.785156 L 403.664062 246 L 433.332031 246 L 409.332031 263.4375 L 417.417969 294.980469 L 391.664062 277.542969 L 365.914062 294.980469 L 378.214844 263.4375 L 350 246 "/>
<path style="fill-rule:nonzero;fill:rgb(100%,51%,0%);fill-opacity:1;stroke-width:1;stroke-linecap:butt;stroke-linejoin:miter;stroke:rgb(0%,0%,0%);stroke-opacity:1;stroke-miterlimit:10;" d="M 292 141 L 321.664062 141 L 333.664062 112.785156 L 345.664062 141 L 375.332031 141 L 351.332031 158.4375 L 359.417969 189.980469 L 333.664062 172.542969 L 307.914062 189.980469 L 320.214844 158.4375 L 292 141 "/>
<path style="fill-rule:nonzero;fill:rgb(55%,51%,53%);fill-opacity:1;stroke-width:1;stroke-linecap:butt;stroke-linejoin:miter;stroke:rgb(0%,0%,0%);stroke-opacity:1;stroke-miterlimit:10;" d="M 149 327 L 178.664062 327 L 190.664062 298.785156 L 202.664062 327 L 232.332031 327 L 208.332031 344.4375 L 216.417969 375.980469 L 190.664062 358.542969 L 164.914062 375.980469 L 177.214844 344.4375 L 149 327 "/>
<path style="fill-rule:nonzero;fill:rgb(55%,51%,53%);fill-opacity:1;stroke-width:1;stroke-linecap:butt;stroke-linejoin:miter;stroke:rgb(0%,0%,0%);stroke-opacity:1;stroke-miterlimit:10;" d="M 687.785156 315.785156 L 687.785156 358.214844 L 730.214844 358.214844 L 730.214844 315.785156 L 687.785156 315.785156 "/>
<path style="fill-rule:nonzero;fill:rgb(55%,51%,53%);fill-opacity:1;stroke-width:1;stroke-linecap:butt;stroke-linejoin:miter;stroke:rgb(0%,0%,0%);stroke-opacity:1;stroke-miterlimit:10;" d="M 786.785156 209.785156 L 786.785156 252.214844 L 829.214844 252.214844 L 829.214844 209.785156 L 786.785156 209.785156 "/>
<path style="fill-rule:nonzero;fill:rgb(55%,51%,53%);fill-opacity:1;stroke-width:1;stroke-linecap:butt;stroke-linejoin:miter;stroke:rgb(0%,0%,0%);stroke-opacity:1;stroke-miterlimit:10;" d="M 955.785156 86.785156 L 955.785156 129.214844 L 998.214844 129.214844 L 998.214844 86.785156 L 955.785156 86.785156 "/>
<path style="fill-rule:nonzero;fill:rgb(100%,51%,0%);fill-opacity:1;stroke-width:1;stroke-linecap:butt;stroke-linejoin:miter;stroke:rgb(0%,0%,0%);stroke-opacity:1;stroke-miterlimit:10;" d="M 959.785156 402.785156 L 959.785156 445.214844 L 1002.214844 445.214844 L 1002.214844 402.785156 L 959.785156 402.785156 "/>
</g>
</svg>
