<?xml version="1.0" encoding="UTF-8"?>
<svg xmlns="http://www.w3.org/2000/svg" xmlns:xlink="http://www.w3.org/1999/xlink" width="1179pt" height="517pt" viewBox="0 0 1179 517" version="1.1">
<g id="surface1021">
<rect x="0" y="0" width="1179" height="517" style="fill:rgb(90%,90%,90%);fill-opacity:1;stroke:none;"/>
<path style="fill-rule:nonzero;fill:rgb(100%,51%,0%);fill-opacity:1;stroke-width:1;stroke-linecap:butt;stroke-linejoin:miter;stroke:rgb(0%,0%,0%);stroke-opacity:1;stroke-miterlimit:10;" d="M 413 162 L 442.664062 162 L 454.664062 133.785156 L 466.664062 162 L 496.332031 162 L 472.332031 179.4375 L 480.417969 210.980469 L 454.664062 193.542969 L 428.914062 210.980469 L 441.214844 179.4375 L 413 162 "/>
<path style="fill-rule:nonzero;fill:rgb(100%,51%,0%);fill-opacity:1;stroke-width:1;stroke-linecap:butt;stroke-linejoin:miter;stroke:rgb(0%,0%,0%);stroke-opacity:1;stroke-miterlimit:10;" d="M 595 429 L 624.664062 429 L 636.664062 400.785156 L 648.664062 429 L 678.332031 429 L 654.332031 446.4375 L 662.417969 477.980469 L 636.664062 460.542969 L 610.914062 477.980469 L 623.214844 446.4375 L 595 429 "/>
<path style="fill-rule:nonzero;fill:rgb(100%,51%,0%);fill-opacity:1;stroke-width:1;stroke-linecap:butt;stroke-linejoin:miter;stroke:rgb(0%,0%,0%);stroke-opacity:1;stroke-miterlimit:10;" d="M 808 403 L 837.664062 403 L 849.664062 374.785156 L 861.664062 403 L 891.332031 403 L 867.332031 420.4375 L 875.417969 451.980469 L 849.664062 434.542969 L 823.914062 451.980469 L 836.214844 420.4375 L 808 403 "/>
<path style="fill-rule:nonzero;fill:rgb(100%,51%,0%);fill-opacity:1;stroke-width:1;stroke-linecap:butt;stroke-linejoin:miter;stroke:rgb(0%,0%,0%);stroke-opacity:1;stroke-miterlimit:10;" d="M 811 134 L 840.664062 134 L 852.664062 105.785156 L 864.664062 134 L 894.332031 134 L 870.332031 151.4375 L 878.417969 182.980469 L 852.664062 165.542969 L 826.914062 182.980469 L 839.214844 151.4375 L 811 134 "/>
<path style="fill-rule:nonzero;fill:rgb(100%,51%,0%);fill-opacity:1;stroke-width:1;stroke-linecap:butt;stroke-linejoin:miter;stroke:rgb(0%,0%,0%);stroke-opacity:1;stroke-miterlimit:10;" d="M 187 198 L 216.664062 198 L 228.664062 169.785156 L 240.664062 198 L 270.332031 198 L 246.332031 215.4375 L 254.417969 246.980469 L 228.664062 229.542969 L 202.914062 246.980469 L 215.214844 215.4375 L 187 198 "/>
<path style="fill-rule:nonzero;fill:rgb(35%,70%,90%);fill-opacity:1;stroke-width:1;stroke-linecap:butt;stroke-linejoin:miter;stroke:rgb(0%,0%,0%);stroke-opacity:1;stroke-miterlimit:10;" d="M 588 83 L 562.019531 128 L 613.980469 128 L 588 83 "/>
<path style="fill-rule:nonzero;fill:rgb(35%,70%,90%);fill-opacity:1;stroke-width:1;stroke-linecap:butt;stroke-linejoin:miter;stroke:rgb(0%,0%,0%);stroke-opacity:1;stroke-miterlimit:10;" d="M 1002 238 L 976.019531 283 L 1027.980469 283 L 1002 238 "/>
<path style="fill-rule:nonzero;fill:rgb(35%,70%,90%);fill-opacity:1;stroke-width:1;stroke-linecap:butt;stroke-linejoin:miter;stroke:rgb(0%,0%,0%);stroke-opacity:1;stroke-miterlimit:10;" d="M 80 252 L 54.019531 297 L 105.980469 297 L 80 252 "/>
</g>
</svg>
