<?xml version="1.0" encoding="UTF-8"?>
<svg xmlns="http://www.w3.org/2000/svg" xmlns:xlink="http://www.w3.org/1999/xlink" width="1179pt" height="517pt" viewBox="0 0 1179 517" version="1.1">
<g id="surface1471">
<rect x="0" y="0" width="1179" height="517" style="fill:rgb(90%,90%,90%);fill-opacity:1;stroke:none;"/>
<path style="fill-rule:nonzero;fill:rgb(100%,51%,0%);fill-opacity:1;stroke-width:1;stroke-linecap:butt;stroke-linejoin:miter;stroke:rgb(0%,0%,0%);stroke-opacity:1;stroke-miterlimit:10;" d="M 152 153 L 181.664062 153 L 193.664062 124.785156 L 205.664062 153 L 235.332031 153 L 211.332031 170.4375 L 219.417969 201.980469 L 193.664062 184.542969 L 167.914062 201.980469 L 180.214844 170.4375 L 152 153 "/>
<path style="fill-rule:nonzero;fill:rgb(100%,51%,0%);fill-opacity:1;stroke-width:1;stroke-linecap:butt;stroke-linejoin:miter;stroke:rgb(0%,0%,0%);stroke-opacity:1;stroke-miterlimit:10;" d="M 794 129 L 823.664062 129 L 835.664062 100.785156 L 847.664062 129 L 877.332031 129 L 853.332031 146.4375 L 861.417969 177.980469 L 835.664062 160.542969 L 809.914062 177.980469 L 822.214844 146.4375 L 794 129 "/>
<path style="fill-rule:nonzero;fill:rgb(100%,51%,0%);fill-opacity:1;stroke-width:1;stroke-linecap:butt;stroke-linejoin:miter;stroke:rgb(0%,0%,0%);stroke-opacity:1;stroke-miterlimit:10;" d="M 632 294 L 661.664062 294 L 673.664062 265.785156 L 685.664062 294 L 715.332031 294 L 691.332031 311.4375 L 699.417969 342.980469 L 673.664062 325.542969 L 647.914062 342.980469 L 660.214844 311.4375 L 632 294 "/>
<path style="fill-rule:nonzero;fill:rgb(100%,51%,0%);fill-opacity:1;stroke-width:1;stroke-linecap:butt;stroke-linejoin:miter;stroke:rgb(0%,0%,0%);stroke-opacity:1;stroke-miterlimit:10;" d="M 764 366 L 793.664062 366 L 805.664062 337.785156 L 817.664062 366 L 847.332031 366 L 823.332031 383.4375 L 831.417969 414.980469 L 805.664062 397.542969 L 779.914062 414.980469 L 792.214844 383.4375 L 764 366 "/>
<path style="fill-rule:nonzero;fill:rgb(100%,51%,0%);fill-opacity:1;stroke-width:1;stroke-linecap:butt;stroke-linejoin:miter;stroke:rgb(0%,0%,0%);stroke-opacity:1;stroke-miterlimit:10;" d="M 362 272 L 391.664062 272 L 403.664062 243.785156 L 415.664062 272 L 445.332031 272 L 421.332031 289.4375 L 429.417969 320.980469 L 403.664062 303.542969 L 377.914062 320.980469 L 390.214844 289.4375 L 362 272 "/>
<path style="fill-rule:nonzero;fill:rgb(35%,70%,90%);fill-opacity:1;stroke-width:1;stroke-linecap:butt;stroke-linejoin:miter;stroke:rgb(0%,0%,0%);stroke-opacity:1;stroke-miterlimit:10;" d="M 228 306 L 202.019531 351 L 253.980469 351 L 228 306 "/>
<path style="fill-rule:nonzero;fill:rgb(35%,70%,90%);fill-opacity:1;stroke-width:1;stroke-linecap:butt;stroke-linejoin:miter;stroke:rgb(0%,0%,0%);stroke-opacity:1;stroke-miterlimit:10;" d="M 950 79 L 924.019531 124 L 975.980469 124 L 950 79 "/>
<path style="fill-rule:nonzero;fill:rgb(35%,70%,90%);fill-opacity:1;stroke-width:1;stroke-linecap:butt;stroke-linejoin:miter;stroke:rgb(0%,0%,0%);stroke-opacity:1;stroke-miterlimit:10;" d="M 969 328 L 943.019531 373 L 994.980469 373 L 969 328 "/>
</g>
</svg>
