<?xml version="1.0" encoding="UTF-8"?>
<svg xmlns="http://www.w3.org/2000/svg" xmlns:xlink="http://www.w3.org/1999/xlink" width="1179pt" height="517pt" viewBox="0 0 1179 517" version="1.1">
<g id="surface1331">
<rect x="0" y="0" width="1179" height="517" style="fill:rgb(90%,90%,90%);fill-opacity:1;stroke:none;"/>
<path style="fill-rule:nonzero;fill:rgb(55%,51%,53%);fill-opacity:1;stroke-width:1;stroke-linecap:butt;stroke-linejoin:miter;stroke:rgb(0%,0%,0%);stroke-opacity:1;stroke-miterlimit:10;" d="M 514.214844 172 C 514.214844 183.714844 504.714844 193.214844 493 193.214844 C 481.285156 193.214844 471.785156 183.714844 471.785156 172 C 471.785156 160.285156 481.285156 150.785156 493 150.785156 C 504.714844 150.785156 514.214844 160.285156 514.214844 172 "/>
<path style="fill-rule:nonzero;fill:rgb(55%,51%,53%);fill-opacity:1;stroke-width:1;stroke-linecap:butt;stroke-linejoin:miter;stroke:rgb(0%,0%,0%);stroke-opacity:1;stroke-miterlimit:10;" d="M 468.214844 407 C 468.214844 418.714844 458.714844 428.214844 447 428.214844 C 435.285156 428.214844 425.785156 418.714844 425.785156 407 C 425.785156 395.285156 435.285156 385.785156 447 385.785156 C 458.714844 385.785156 468.214844 395.285156 468.214844 407 "/>
<path style="fill-rule:nonzero;fill:rgb(55%,51%,53%);fill-opacity:1;stroke-width:1;stroke-linecap:butt;stroke-linejoin:miter;stroke:rgb(0%,0%,0%);stroke-opacity:1;stroke-miterlimit:10;" d="M 364.214844 181 C 364.214844 192.714844 354.714844 202.214844 343 202.214844 C 331.285156 202.214844 321.785156 192.714844 321.785156 181 C 321.785156 169.285156 331.285156 159.785156 343 159.785156 C 354.714844 159.785156 364.214844 169.285156 364.214844 181 "/>
<path style="fill-rule:nonzero;fill:rgb(55%,51%,53%);fill-opacity:1;stroke-width:1;stroke-linecap:butt;stroke-linejoin:miter;stroke:rgb(0%,0%,0%);stroke-opacity:1;stroke-miterlimit:10;" d="M 767.214844 379 C 767.214844 390.714844 757.714844 400.214844 746 400.214844 C 734.285156 400.214844 724.785156 390.714844 724.785156 379 C 724.785156 367.285156 734.285156 357.785156 746 357.785156 C 757.714844 357.785156 767.214844 367.285156 767.214844 379 "/>
<path style="fill-rule:nonzero;fill:rgb(35%,70%,90%);fill-opacity:1;stroke-width:1;stroke-linecap:butt;stroke-linejoin:miter;stroke:rgb(0%,0%,0%);stroke-opacity:1;stroke-miterlimit:10;" d="M 1036 298 L 1010.019531 343 L 1061.980469 343 L 1036 298 "/>
<path style="fill-rule:nonzero;fill:rgb(35%,70%,90%);fill-opacity:1;stroke-width:1;stroke-linecap:butt;stroke-linejoin:miter;stroke:rgb(0%,0%,0%);stroke-opacity:1;stroke-miterlimit:10;" d="M 119 308 L 93.019531 353 L 144.980469 353 L 119 308 "/>
<path style="fill-rule:nonzero;fill:rgb(35%,70%,90%);fill-opacity:1;stroke-width:1;stroke-linecap:butt;stroke-linejoin:miter;stroke:rgb(0%,0%,0%);stroke-opacity:1;stroke-miterlimit:10;" d="M 639 169 L 613.019531 214 L 664.980469 214 L 639 169 "/>
</g>
</svg>
