<?xml version="1.0" encoding="UTF-8"?>
<svg xmlns="http://www.w3.org/2000/svg" xmlns:xlink="http://www.w3.org/1999/xlink" width="1179pt" height="517pt" viewBox="0 0 1179 517" version="1.1">
<g id="surface1211">
<rect x="0" y="0" width="1179" height="517" style="fill:rgb(90%,90%,90%);fill-opacity:1;stroke:none;"/>
<path style="fill-rule:nonzero;fill:rgb(53%,27%,7%);fill-opacity:1;stroke-width:1;stroke-linecap:butt;stroke-linejoin:miter;stroke:rgb(0%,0%,0%);stroke-opacity:1;stroke-miterlimit:10;" d="M 667 390 L 641.019531 435 L 692.980469 435 L 667 390 "/>
<path style="fill-rule:nonzero;fill:rgb(53%,27%,7%);fill-opacity:1;stroke-width:1;stroke-linecap:butt;stroke-linejoin:miter;stroke:rgb(0%,0%,0%);stroke-opacity:1;stroke-miterlimit:10;" d="M 122 328 L 96.019531 373 L 147.980469 373 L 122 328 "/>
<path style="fill-rule:nonzero;fill:rgb(53%,27%,7%);fill-opacity:1;stroke-width:1;stroke-linecap:butt;stroke-linejoin:miter;stroke:rgb(0%,0%,0%);stroke-opacity:1;stroke-miterlimit:10;" d="M 868 331 L 842.019531 376 L 893.980469 376 L 868 331 "/>
<path style="fill-rule:nonzero;fill:rgb(53%,27%,7%);fill-opacity:1;stroke-width:1;stroke-linecap:butt;stroke-linejoin:miter;stroke:rgb(0%,0%,0%);stroke-opacity:1;stroke-miterlimit:10;" d="M 974 167 L 948.019531 212 L 999.980469 212 L 974 167 "/>
<path style="fill-rule:nonzero;fill:rgb(35%,70%,90%);fill-opacity:1;stroke-width:1;stroke-linecap:butt;stroke-linejoin:miter;stroke:rgb(0%,0%,0%);stroke-opacity:1;stroke-miterlimit:10;" d="M 262 213 L 291.664062 213 L 303.664062 184.785156 L 315.664062 213 L 345.332031 213 L 321.332031 230.4375 L 329.417969 261.980469 L 303.664062 244.542969 L 277.914062 261.980469 L 290.214844 230.4375 L 262 213 "/>
<path style="fill-rule:nonzero;fill:rgb(35%,70%,90%);fill-opacity:1;stroke-width:1;stroke-linecap:butt;stroke-linejoin:miter;stroke:rgb(0%,0%,0%);stroke-opacity:1;stroke-miterlimit:10;" d="M 788 93 L 817.664062 93 L 829.664062 64.785156 L 841.664062 93 L 871.332031 93 L 847.332031 110.4375 L 855.417969 141.980469 L 829.664062 124.542969 L 803.914062 141.980469 L 816.214844 110.4375 L 788 93 "/>
<path style="fill-rule:nonzero;fill:rgb(35%,70%,90%);fill-opacity:1;stroke-width:1;stroke-linecap:butt;stroke-linejoin:miter;stroke:rgb(0%,0%,0%);stroke-opacity:1;stroke-miterlimit:10;" d="M 589 97 L 618.664062 97 L 630.664062 68.785156 L 642.664062 97 L 672.332031 97 L 648.332031 114.4375 L 656.417969 145.980469 L 630.664062 128.542969 L 604.914062 145.980469 L 617.214844 114.4375 L 589 97 "/>
<path style="fill-rule:nonzero;fill:rgb(35%,70%,90%);fill-opacity:1;stroke-width:1;stroke-linecap:butt;stroke-linejoin:miter;stroke:rgb(0%,0%,0%);stroke-opacity:1;stroke-miterlimit:10;" d="M 762 244 L 791.664062 244 L 803.664062 215.785156 L 815.664062 244 L 845.332031 244 L 821.332031 261.4375 L 829.417969 292.980469 L 803.664062 275.542969 L 777.914062 292.980469 L 790.214844 261.4375 L 762 244 "/>
<path style="fill-rule:nonzero;fill:rgb(35%,70%,90%);fill-opacity:1;stroke-width:1;stroke-linecap:butt;stroke-linejoin:miter;stroke:rgb(0%,0%,0%);stroke-opacity:1;stroke-miterlimit:10;" d="M 243 424 L 272.664062 424 L 284.664062 395.785156 L 296.664062 424 L 326.332031 424 L 302.332031 441.4375 L 310.417969 472.980469 L 284.664062 455.542969 L 258.914062 472.980469 L 271.214844 441.4375 L 243 424 "/>
</g>
</svg>
