<?xml version="1.0" encoding="UTF-8"?>
<svg xmlns="http://www.w3.org/2000/svg" xmlns:xlink="http://www.w3.org/1999/xlink" width="1179pt" height="517pt" viewBox="0 0 1179 517" version="1.1">
<g id="surface31">
<rect x="0" y="0" width="1179" height="517" style="fill:rgb(90%,90%,90%);fill-opacity:1;stroke:none;"/>
<path style="fill-rule:nonzero;fill:rgb(35%,70%,90%);fill-opacity:1;stroke-width:1;stroke-linecap:butt;stroke-linejoin:miter;stroke:rgb(0%,0%,0%);stroke-opacity:1;stroke-miterlimit:10;" d="M 957 112 L 986.664062 112 L 998.664062 83.785156 L 1010.664062 112 L 1040.332031 112 L 1016.332031 129.4375 L 1024.417969 160.980469 L 998.664062 143.542969 L 972.914062 160.980469 L 985.214844 129.4375 L 957 112 "/>
<path style="fill-rule:nonzero;fill:rgb(35%,70%,90%);fill-opacity:1;stroke-width:1;stroke-linecap:butt;stroke-linejoin:miter;stroke:rgb(0%,0%,0%);stroke-opacity:1;stroke-miterlimit:10;" d="M 279 239 L 308.664062 239 L 320.664062 210.785156 L 332.664062 239 L 362.332031 239 L 338.332031 256.4375 L 346.417969 287.980469 L 320.664062 270.542969 L 294.914062 287.980469 L 307.214844 256.4375 L 279 239 "/>
<path style="fill-rule:nonzero;fill:rgb(35%,70%,90%);fill-opacity:1;stroke-width:1;stroke-linecap:butt;stroke-linejoin:miter;stroke:rgb(0%,0%,0%);stroke-opacity:1;stroke-miterlimit:10;" d="M 988 431 L 1017.664062 431 L 1029.664062 402.785156 L 1041.664062 431 L 1071.332031 431 L 1047.332031 448.4375 L 1055.417969 479.980469 L 1029.664062 462.542969 L 1003.914062 479.980469 L 1016.214844 448.4375 L 988 431 "/>
<path style="fill-rule:nonzero;fill:rgb(35%,70%,90%);fill-opacity:1;stroke-width:1;stroke-linecap:butt;stroke-linejoin:miter;stroke:rgb(0%,0%,0%);stroke-opacity:1;stroke-miterlimit:10;" d="M 572 101 L 601.664062 101 L 613.664062 72.785156 L 625.664062 101 L 655.332031 101 L 631.332031 118.4375 L 639.417969 149.980469 L 613.664062 132.542969 L 587.914062 149.980469 L 600.214844 118.4375 L 572 101 "/>
<path style="fill-rule:nonzero;fill:rgb(35%,70%,90%);fill-opacity:1;stroke-width:1;stroke-linecap:butt;stroke-linejoin:miter;stroke:rgb(0%,0%,0%);stroke-opacity:1;stroke-miterlimit:10;" d="M 633 406 L 662.664062 406 L 674.664062 377.785156 L 686.664062 406 L 716.332031 406 L 692.332031 423.4375 L 700.417969 454.980469 L 674.664062 437.542969 L 648.914062 454.980469 L 661.214844 423.4375 L 633 406 "/>
<path style="fill-rule:nonzero;fill:rgb(53%,27%,7%);fill-opacity:1;stroke-width:1;stroke-linecap:butt;stroke-linejoin:miter;stroke:rgb(0%,0%,0%);stroke-opacity:1;stroke-miterlimit:10;" d="M 902.214844 350 C 902.214844 361.714844 892.714844 371.214844 881 371.214844 C 869.285156 371.214844 859.785156 361.714844 859.785156 350 C 859.785156 338.285156 869.285156 328.785156 881 328.785156 C 892.714844 328.785156 902.214844 338.285156 902.214844 350 "/>
<path style="fill-rule:nonzero;fill:rgb(53%,27%,7%);fill-opacity:1;stroke-width:1;stroke-linecap:butt;stroke-linejoin:miter;stroke:rgb(0%,0%,0%);stroke-opacity:1;stroke-miterlimit:10;" d="M 806.214844 145 C 806.214844 156.714844 796.714844 166.214844 785 166.214844 C 773.285156 166.214844 763.785156 156.714844 763.785156 145 C 763.785156 133.285156 773.285156 123.785156 785 123.785156 C 796.714844 123.785156 806.214844 133.285156 806.214844 145 "/>
<path style="fill-rule:nonzero;fill:rgb(53%,27%,7%);fill-opacity:1;stroke-width:1;stroke-linecap:butt;stroke-linejoin:miter;stroke:rgb(0%,0%,0%);stroke-opacity:1;stroke-miterlimit:10;" d="M 429.214844 173 C 429.214844 184.714844 419.714844 194.214844 408 194.214844 C 396.285156 194.214844 386.785156 184.714844 386.785156 173 C 386.785156 161.285156 396.285156 151.785156 408 151.785156 C 419.714844 151.785156 429.214844 161.285156 429.214844 173 "/>
<path style="fill-rule:nonzero;fill:rgb(53%,27%,7%);fill-opacity:1;stroke-width:1;stroke-linecap:butt;stroke-linejoin:miter;stroke:rgb(0%,0%,0%);stroke-opacity:1;stroke-miterlimit:10;" d="M 450.214844 415 C 450.214844 426.714844 440.714844 436.214844 429 436.214844 C 417.285156 436.214844 407.785156 426.714844 407.785156 415 C 407.785156 403.285156 417.285156 393.785156 429 393.785156 C 440.714844 393.785156 450.214844 403.285156 450.214844 415 "/>
</g>
</svg>
