<?xml version="1.0" encoding="UTF-8"?>
<svg xmlns="http://www.w3.org/2000/svg" xmlns:xlink="http://www.w3.org/1999/xlink" width="1179pt" height="517pt" viewBox="0 0 1179 517" version="1.1">
<g id="surface251">
<rect x="0" y="0" width="1179" height="517" style="fill:rgb(90%,90%,90%);fill-opacity:1;stroke:none;"/>
<path style="fill-rule:nonzero;fill:rgb(35%,70%,90%);fill-opacity:1;stroke-width:1;stroke-linecap:butt;stroke-linejoin:miter;stroke:rgb(0%,0%,0%);stroke-opacity:1;stroke-miterlimit:10;" d="M 131 104 L 160.664062 104 L 172.664062 75.785156 L 184.664062 104 L 214.332031 104 L 190.332031 121.4375 L 198.417969 152.980469 L 172.664062 135.542969 L 146.914062 152.980469 L 159.214844 121.4375 L 131 104 "/>
<path style="fill-rule:nonzero;fill:rgb(35%,70%,90%);fill-opacity:1;stroke-width:1;stroke-linecap:butt;stroke-linejoin:miter;stroke:rgb(0%,0%,0%);stroke-opacity:1;stroke-miterlimit:10;" d="M 367 288 L 396.664062 288 L 408.664062 259.785156 L 420.664062 288 L 450.332031 288 L 426.332031 305.4375 L 434.417969 336.980469 L 408.664062 319.542969 L 382.914062 336.980469 L 395.214844 305.4375 L 367 288 "/>
<path style="fill-rule:nonzero;fill:rgb(55%,51%,53%);fill-opacity:1;stroke-width:1;stroke-linecap:butt;stroke-linejoin:miter;stroke:rgb(0%,0%,0%);stroke-opacity:1;stroke-miterlimit:10;" d="M 397 374 L 426.664062 374 L 438.664062 345.785156 L 450.664062 374 L 480.332031 374 L 456.332031 391.4375 L 464.417969 422.980469 L 438.664062 405.542969 L 412.914062 422.980469 L 425.214844 391.4375 L 397 374 "/>
<path style="fill-rule:nonzero;fill:rgb(55%,51%,53%);fill-opacity:1;stroke-width:1;stroke-linecap:butt;stroke-linejoin:miter;stroke:rgb(0%,0%,0%);stroke-opacity:1;stroke-miterlimit:10;" d="M 142 322 L 171.664062 322 L 183.664062 293.785156 L 195.664062 322 L 225.332031 322 L 201.332031 339.4375 L 209.417969 370.980469 L 183.664062 353.542969 L 157.914062 370.980469 L 170.214844 339.4375 L 142 322 "/>
<path style="fill-rule:nonzero;fill:rgb(55%,51%,53%);fill-opacity:1;stroke-width:1;stroke-linecap:butt;stroke-linejoin:miter;stroke:rgb(0%,0%,0%);stroke-opacity:1;stroke-miterlimit:10;" d="M 861.785156 190.785156 L 861.785156 233.214844 L 904.214844 233.214844 L 904.214844 190.785156 L 861.785156 190.785156 "/>
<path style="fill-rule:nonzero;fill:rgb(55%,51%,53%);fill-opacity:1;stroke-width:1;stroke-linecap:butt;stroke-linejoin:miter;stroke:rgb(0%,0%,0%);stroke-opacity:1;stroke-miterlimit:10;" d="M 882.785156 309.785156 L 882.785156 352.214844 L 925.214844 352.214844 L 925.214844 309.785156 L 882.785156 309.785156 "/>
<path style="fill-rule:nonzero;fill:rgb(35%,70%,90%);fill-opacity:1;stroke-width:1;stroke-linecap:butt;stroke-linejoin:miter;stroke:rgb(0%,0%,0%);stroke-opacity:1;stroke-miterlimit:10;" d="M 790.785156 381.785156 L 790.785156 424.214844 L 833.214844 424.214844 L 833.214844 381.785156 L 790.785156 381.785156 "/>
<path style="fill-rule:nonzero;fill:rgb(35%,70%,90%);fill-opacity:1;stroke-width:1;stroke-linecap:butt;stroke-linejoin:miter;stroke:rgb(0%,0%,0%);stroke-opacity:1;stroke-miterlimit:10;" d="M 988.785156 133.785156 L 988.785156 176.214844 L 1031.214844 176.214844 L 1031.214844 133.785156 L 988.785156 133.785156 "/>
<path style="fill-rule:nonzero;fill:rgb(55%,51%,53%);fill-opacity:1;stroke-width:1;stroke-linecap:butt;stroke-linejoin:miter;stroke:rgb(0%,0%,0%);stroke-opacity:1;stroke-miterlimit:10;" d="M 1018.785156 293.785156 L 1018.785156 336.214844 L 1061.214844 336.214844 L 1061.214844 293.785156 L 1018.785156 293.785156 "/>
</g>
</svg>
