<?xml version="1.0" encoding="UTF-8"?>
<svg xmlns="http://www.w3.org/2000/svg" xmlns:xlink="http://www.w3.org/1999/xlink" width="1179pt" height="517pt" viewBox="0 0 1179 517" version="1.1">
<g id="surface571">
<rect x="0" y="0" width="1179" height="517" style="fill:rgb(90%,90%,90%);fill-opacity:1;stroke:none;"/>
<path style="fill-rule:nonzero;fill:rgb(35%,70%,90%);fill-opacity:1;stroke-width:1;stroke-linecap:butt;stroke-linejoin:miter;stroke:rgb(0%,0%,0%);stroke-opacity:1;stroke-miterlimit:10;" d="M 398 107 L 427.664062 107 L 439.664062 78.785156 L 451.664062 107 L 481.332031 107 L 457.332031 124.4375 L 465.417969 155.980469 L 439.664062 138.542969 L 413.914062 155.980469 L 426.214844 124.4375 L 398 107 "/>
<path style="fill-rule:nonzero;fill:rgb(35%,70%,90%);fill-opacity:1;stroke-width:1;stroke-linecap:butt;stroke-linejoin:miter;stroke:rgb(0%,0%,0%);stroke-opacity:1;stroke-miterlimit:10;" d="M 1035 367 L 1064.664062 367 L 1076.664062 338.785156 L 1088.664062 367 L 1118.332031 367 L 1094.332031 384.4375 L 1102.417969 415.980469 L 1076.664062 398.542969 L 1050.914062 415.980469 L 1063.214844 384.4375 L 1035 367 "/>
<path style="fill-rule:nonzero;fill:rgb(35%,70%,90%);fill-opacity:1;stroke-width:1;stroke-linecap:butt;stroke-linejoin:miter;stroke:rgb(0%,0%,0%);stroke-opacity:1;stroke-miterlimit:10;" d="M 1023 171 L 1052.664062 171 L 1064.664062 142.785156 L 1076.664062 171 L 1106.332031 171 L 1082.332031 188.4375 L 1090.417969 219.980469 L 1064.664062 202.542969 L 1038.914062 219.980469 L 1051.214844 188.4375 L 1023 171 "/>
<path style="fill-rule:nonzero;fill:rgb(35%,70%,90%);fill-opacity:1;stroke-width:1;stroke-linecap:butt;stroke-linejoin:miter;stroke:rgb(0%,0%,0%);stroke-opacity:1;stroke-miterlimit:10;" d="M 150 310 L 179.664062 310 L 191.664062 281.785156 L 203.664062 310 L 233.332031 310 L 209.332031 327.4375 L 217.417969 358.980469 L 191.664062 341.542969 L 165.914062 358.980469 L 178.214844 327.4375 L 150 310 "/>
<path style="fill-rule:nonzero;fill:rgb(35%,70%,90%);fill-opacity:1;stroke-width:1;stroke-linecap:butt;stroke-linejoin:miter;stroke:rgb(0%,0%,0%);stroke-opacity:1;stroke-miterlimit:10;" d="M 276 251 L 305.664062 251 L 317.664062 222.785156 L 329.664062 251 L 359.332031 251 L 335.332031 268.4375 L 343.417969 299.980469 L 317.664062 282.542969 L 291.914062 299.980469 L 304.214844 268.4375 L 276 251 "/>
<path style="fill-rule:nonzero;fill:rgb(53%,27%,7%);fill-opacity:1;stroke-width:1;stroke-linecap:butt;stroke-linejoin:miter;stroke:rgb(0%,0%,0%);stroke-opacity:1;stroke-miterlimit:10;" d="M 699.214844 190 C 699.214844 201.714844 689.714844 211.214844 678 211.214844 C 666.285156 211.214844 656.785156 201.714844 656.785156 190 C 656.785156 178.285156 666.285156 168.785156 678 168.785156 C 689.714844 168.785156 699.214844 178.285156 699.214844 190 "/>
<path style="fill-rule:nonzero;fill:rgb(53%,27%,7%);fill-opacity:1;stroke-width:1;stroke-linecap:butt;stroke-linejoin:miter;stroke:rgb(0%,0%,0%);stroke-opacity:1;stroke-miterlimit:10;" d="M 750.214844 413 C 750.214844 424.714844 740.714844 434.214844 729 434.214844 C 717.285156 434.214844 707.785156 424.714844 707.785156 413 C 707.785156 401.285156 717.285156 391.785156 729 391.785156 C 740.714844 391.785156 750.214844 401.285156 750.214844 413 "/>
<path style="fill-rule:nonzero;fill:rgb(53%,27%,7%);fill-opacity:1;stroke-width:1;stroke-linecap:butt;stroke-linejoin:miter;stroke:rgb(0%,0%,0%);stroke-opacity:1;stroke-miterlimit:10;" d="M 464.214844 358 C 464.214844 369.714844 454.714844 379.214844 443 379.214844 C 431.285156 379.214844 421.785156 369.714844 421.785156 358 C 421.785156 346.285156 431.285156 336.785156 443 336.785156 C 454.714844 336.785156 464.214844 346.285156 464.214844 358 "/>
</g>
</svg>
