<?xml version="1.0" encoding="UTF-8"?>
<svg xmlns="http://www.w3.org/2000/svg" xmlns:xlink="http://www.w3.org/1999/xlink" width="1179pt" height="517pt" viewBox="0 0 1179 517" version="1.1">
<g id="surface861">
<rect x="0" y="0" width="1179" height="517" style="fill:rgb(90%,90%,90%);fill-opacity:1;stroke:none;"/>
<path style="fill-rule:nonzero;fill:rgb(55%,51%,53%);fill-opacity:1;stroke-width:1;stroke-linecap:butt;stroke-linejoin:miter;stroke:rgb(0%,0%,0%);stroke-opacity:1;stroke-miterlimit:10;" d="M 674 332 L 648.019531 377 L 699.980469 377 L 674 332 "/>
<path style="fill-rule:nonzero;fill:rgb(55%,51%,53%);fill-opacity:1;stroke-width:1;stroke-linecap:butt;stroke-linejoin:miter;stroke:rgb(0%,0%,0%);stroke-opacity:1;stroke-miterlimit:10;" d="M 209 355 L 183.019531 400 L 234.980469 400 L 209 355 "/>
<path style="fill-rule:nonzero;fill:rgb(55%,51%,53%);fill-opacity:1;stroke-width:1;stroke-linecap:butt;stroke-linejoin:miter;stroke:rgb(0%,0%,0%);stroke-opacity:1;stroke-miterlimit:10;" d="M 557 181 L 531.019531 226 L 582.980469 226 L 557 181 "/>
<path style="fill-rule:nonzero;fill:rgb(100%,51%,0%);fill-opacity:1;stroke-width:1;stroke-linecap:butt;stroke-linejoin:miter;stroke:rgb(0%,0%,0%);stroke-opacity:1;stroke-miterlimit:10;" d="M 478 91 L 507.664062 91 L 519.664062 62.785156 L 531.664062 91 L 561.332031 91 L 537.332031 108.4375 L 545.417969 139.980469 L 519.664062 122.542969 L 493.914062 139.980469 L 506.214844 108.4375 L 478 91 "/>
<path style="fill-rule:nonzero;fill:rgb(100%,51%,0%);fill-opacity:1;stroke-width:1;stroke-linecap:butt;stroke-linejoin:miter;stroke:rgb(0%,0%,0%);stroke-opacity:1;stroke-miterlimit:10;" d="M 805 352 L 834.664062 352 L 846.664062 323.785156 L 858.664062 352 L 888.332031 352 L 864.332031 369.4375 L 872.417969 400.980469 L 846.664062 383.542969 L 820.914062 400.980469 L 833.214844 369.4375 L 805 352 "/>
<path style="fill-rule:nonzero;fill:rgb(100%,51%,0%);fill-opacity:1;stroke-width:1;stroke-linecap:butt;stroke-linejoin:miter;stroke:rgb(0%,0%,0%);stroke-opacity:1;stroke-miterlimit:10;" d="M 216 123 L 245.664062 123 L 257.664062 94.785156 L 269.664062 123 L 299.332031 123 L 275.332031 140.4375 L 283.417969 171.980469 L 257.664062 154.542969 L 231.914062 171.980469 L 244.214844 140.4375 L 216 123 "/>
</g>
</svg>
