<?xml version="1.0" encoding="UTF-8"?>
<svg xmlns="http://www.w3.org/2000/svg" xmlns:xlink="http://www.w3.org/1999/xlink" width="1179pt" height="517pt" viewBox="0 0 1179 517" version="1.1">
<g id="surface896">
<rect x="0" y="0" width="1179" height="517" style="fill:rgb(90%,90%,90%);fill-opacity:1;stroke:none;"/>
<path style="fill-rule:nonzero;fill:rgb(53%,27%,7%);fill-opacity:1;stroke-width:1;stroke-linecap:butt;stroke-linejoin:miter;stroke:rgb(0%,0%,0%);stroke-opacity:1;stroke-miterlimit:10;" d="M 192 165.601562 C 192 151.199219 168 151.199219 168 165.601562 C 168 180 192 182.398438 192 194.398438 C 192 182.398438 216 180 216 165.601562 C 216 151.199219 192 151.199219 192 165.601562 "/>
<path style="fill-rule:nonzero;fill:rgb(53%,27%,7%);fill-opacity:1;stroke-width:1;stroke-linecap:butt;stroke-linejoin:miter;stroke:rgb(0%,0%,0%);stroke-opacity:1;stroke-miterlimit:10;" d="M 371 295.601562 C 371 281.199219 347 281.199219 347 295.601562 C 347 310 371 312.398438 371 324.398438 C 371 312.398438 395 310 395 295.601562 C 395 281.199219 371 281.199219 371 295.601562 "/>
<path style="fill-rule:nonzero;fill:rgb(53%,27%,7%);fill-opacity:1;stroke-width:1;stroke-linecap:butt;stroke-linejoin:miter;stroke:rgb(0%,0%,0%);stroke-opacity:1;stroke-miterlimit:10;" d="M 82 355.601562 C 82 341.199219 58 341.199219 58 355.601562 C 58 370 82 372.398438 82 384.398438 C 82 372.398438 106 370 106 355.601562 C 106 341.199219 82 341.199219 82 355.601562 "/>
<path style="fill-rule:nonzero;fill:rgb(100%,51%,0%);fill-opacity:1;stroke-width:1;stroke-linecap:butt;stroke-linejoin:miter;stroke:rgb(0%,0%,0%);stroke-opacity:1;stroke-miterlimit:10;" d="M 981.214844 137 C 981.214844 148.714844 971.714844 158.214844 960 158.214844 C 948.285156 158.214844 938.785156 148.714844 938.785156 137 C 938.785156 125.285156 948.285156 115.785156 960 115.785156 C 971.714844 115.785156 981.214844 125.285156 981.214844 137 "/>
<path style="fill-rule:nonzero;fill:rgb(100%,51%,0%);fill-opacity:1;stroke-width:1;stroke-linecap:butt;stroke-linejoin:miter;stroke:rgb(0%,0%,0%);stroke-opacity:1;stroke-miterlimit:10;" d="M 861.214844 192 C 861.214844 203.714844 851.714844 213.214844 840 213.214844 C 828.285156 213.214844 818.785156 203.714844 818.785156 192 C 818.785156 180.285156 828.285156 170.785156 840 170.785156 C 851.714844 170.785156 861.214844 180.285156 861.214844 192 "/>
<path style="fill-rule:nonzero;fill:rgb(100%,51%,0%);fill-opacity:1;stroke-width:1;stroke-linecap:butt;stroke-linejoin:miter;stroke:rgb(0%,0%,0%);stroke-opacity:1;stroke-miterlimit:10;" d="M 1020.214844 278 C 1020.214844 289.714844 1010.714844 299.214844 999 299.214844 C 987.285156 299.214844 977.785156 289.714844 977.785156 278 C 977.785156 266.285156 987.285156 256.785156 999 256.785156 C 1010.714844 256.785156 1020.214844 266.285156 1020.214844 278 "/>
<path style="fill-rule:nonzero;fill:rgb(100%,51%,0%);fill-opacity:1;stroke-width:1;stroke-linecap:butt;stroke-linejoin:miter;stroke:rgb(0%,0%,0%);stroke-opacity:1;stroke-miterlimit:10;" d="M 705 228.601562 C 705 214.199219 681 214.199219 681 228.601562 C 681 243 705 245.398438 705 257.398438 C 705 245.398438 729 243 729 228.601562 C 729 214.199219 705 214.199219 705 228.601562 "/>
<path style="fill-rule:nonzero;fill:rgb(100%,51%,0%);fill-opacity:1;stroke-width:1;stroke-linecap:butt;stroke-linejoin:miter;stroke:rgb(0%,0%,0%);stroke-opacity:1;stroke-miterlimit:10;" d="M 821.214844 410 C 821.214844 421.714844 811.714844 431.214844 800 431.214844 C 788.285156 431.214844 778.785156 421.714844 778.785156 410 C 778.785156 398.285156 788.285156 388.785156 800 388.785156 C 811.714844 388.785156 821.214844 398.285156 821.214844 410 "/>
</g>
</svg>
