<?xml version="1.0" encoding="UTF-8"?>
<svg xmlns="http://www.w3.org/2000/svg" xmlns:xlink="http://www.w3.org/1999/xlink" width="1179pt" height="517pt" viewBox="0 0 1179 517" version="1.1">
<g id="surface556">
<rect x="0" y="0" width="1179" height="517" style="fill:rgb(90%,90%,90%);fill-opacity:1;stroke:none;"/>
<path style="fill-rule:nonzero;fill:rgb(35%,70%,90%);fill-opacity:1;stroke-width:1;stroke-linecap:butt;stroke-linejoin:miter;stroke:rgb(0%,0%,0%);stroke-opacity:1;stroke-miterlimit:10;" d="M 431.214844 332 C 431.214844 343.714844 421.714844 353.214844 410 353.214844 C 398.285156 353.214844 388.785156 343.714844 388.785156 332 C 388.785156 320.285156 398.285156 310.785156 410 310.785156 C 421.714844 310.785156 431.214844 320.285156 431.214844 332 "/>
<path style="fill-rule:nonzero;fill:rgb(35%,70%,90%);fill-opacity:1;stroke-width:1;stroke-linecap:butt;stroke-linejoin:miter;stroke:rgb(0%,0%,0%);stroke-opacity:1;stroke-miterlimit:10;" d="M 344.214844 100 C 344.214844 111.714844 334.714844 121.214844 323 121.214844 C 311.285156 121.214844 301.785156 111.714844 301.785156 100 C 301.785156 88.285156 311.285156 78.785156 323 78.785156 C 334.714844 78.785156 344.214844 88.285156 344.214844 100 "/>
<path style="fill-rule:nonzero;fill:rgb(100%,51%,0%);fill-opacity:1;stroke-width:1;stroke-linecap:butt;stroke-linejoin:miter;stroke:rgb(0%,0%,0%);stroke-opacity:1;stroke-miterlimit:10;" d="M 215.214844 209 C 215.214844 220.714844 205.714844 230.214844 194 230.214844 C 182.285156 230.214844 172.785156 220.714844 172.785156 209 C 172.785156 197.285156 182.285156 187.785156 194 187.785156 C 205.714844 187.785156 215.214844 197.285156 215.214844 209 "/>
<path style="fill-rule:nonzero;fill:rgb(35%,70%,90%);fill-opacity:1;stroke-width:1;stroke-linecap:butt;stroke-linejoin:miter;stroke:rgb(0%,0%,0%);stroke-opacity:1;stroke-miterlimit:10;" d="M 372.214844 404 C 372.214844 415.714844 362.714844 425.214844 351 425.214844 C 339.285156 425.214844 329.785156 415.714844 329.785156 404 C 329.785156 392.285156 339.285156 382.785156 351 382.785156 C 362.714844 382.785156 372.214844 392.285156 372.214844 404 "/>
<path style="fill-rule:nonzero;fill:rgb(35%,70%,90%);fill-opacity:1;stroke-width:1;stroke-linecap:butt;stroke-linejoin:miter;stroke:rgb(0%,0%,0%);stroke-opacity:1;stroke-miterlimit:10;" d="M 112.214844 221 C 112.214844 232.714844 102.714844 242.214844 91 242.214844 C 79.285156 242.214844 69.785156 232.714844 69.785156 221 C 69.785156 209.285156 79.285156 199.785156 91 199.785156 C 102.714844 199.785156 112.214844 209.285156 112.214844 221 "/>
<path style="fill-rule:nonzero;fill:rgb(100%,51%,0%);fill-opacity:1;stroke-width:1;stroke-linecap:butt;stroke-linejoin:miter;stroke:rgb(0%,0%,0%);stroke-opacity:1;stroke-miterlimit:10;" d="M 928 398 L 902.019531 443 L 953.980469 443 L 928 398 "/>
<path style="fill-rule:nonzero;fill:rgb(100%,51%,0%);fill-opacity:1;stroke-width:1;stroke-linecap:butt;stroke-linejoin:miter;stroke:rgb(0%,0%,0%);stroke-opacity:1;stroke-miterlimit:10;" d="M 755 304 L 729.019531 349 L 780.980469 349 L 755 304 "/>
<path style="fill-rule:nonzero;fill:rgb(35%,70%,90%);fill-opacity:1;stroke-width:1;stroke-linecap:butt;stroke-linejoin:miter;stroke:rgb(0%,0%,0%);stroke-opacity:1;stroke-miterlimit:10;" d="M 885 61 L 859.019531 106 L 910.980469 106 L 885 61 "/>
<path style="fill-rule:nonzero;fill:rgb(100%,51%,0%);fill-opacity:1;stroke-width:1;stroke-linecap:butt;stroke-linejoin:miter;stroke:rgb(0%,0%,0%);stroke-opacity:1;stroke-miterlimit:10;" d="M 834 194 L 808.019531 239 L 859.980469 239 L 834 194 "/>
</g>
</svg>
