<?xml version="1.0" encoding="UTF-8"?>
<svg xmlns="http://www.w3.org/2000/svg" xmlns:xlink="http://www.w3.org/1999/xlink" width="1179pt" height="517pt" viewBox="0 0 1179 517" version="1.1">
<g id="surface661">
<rect x="0" y="0" width="1179" height="517" style="fill:rgb(90%,90%,90%);fill-opacity:1;stroke:none;"/>
<path style="fill-rule:nonzero;fill:rgb(100%,51%,0%);fill-opacity:1;stroke-width:1;stroke-linecap:butt;stroke-linejoin:miter;stroke:rgb(0%,0%,0%);stroke-opacity:1;stroke-miterlimit:10;" d="M 782 168 L 811.664062 168 L 823.664062 139.785156 L 835.664062 168 L 865.332031 168 L 841.332031 185.4375 L 849.417969 216.980469 L 823.664062 199.542969 L 797.914062 216.980469 L 810.214844 185.4375 L 782 168 "/>
<path style="fill-rule:nonzero;fill:rgb(100%,51%,0%);fill-opacity:1;stroke-width:1;stroke-linecap:butt;stroke-linejoin:miter;stroke:rgb(0%,0%,0%);stroke-opacity:1;stroke-miterlimit:10;" d="M 331 325 L 360.664062 325 L 372.664062 296.785156 L 384.664062 325 L 414.332031 325 L 390.332031 342.4375 L 398.417969 373.980469 L 372.664062 356.542969 L 346.914062 373.980469 L 359.214844 342.4375 L 331 325 "/>
<path style="fill-rule:nonzero;fill:rgb(100%,51%,0%);fill-opacity:1;stroke-width:1;stroke-linecap:butt;stroke-linejoin:miter;stroke:rgb(0%,0%,0%);stroke-opacity:1;stroke-miterlimit:10;" d="M 998 264 L 1027.664062 264 L 1039.664062 235.785156 L 1051.664062 264 L 1081.332031 264 L 1057.332031 281.4375 L 1065.417969 312.980469 L 1039.664062 295.542969 L 1013.914062 312.980469 L 1026.214844 281.4375 L 998 264 "/>
<path style="fill-rule:nonzero;fill:rgb(100%,51%,0%);fill-opacity:1;stroke-width:1;stroke-linecap:butt;stroke-linejoin:miter;stroke:rgb(0%,0%,0%);stroke-opacity:1;stroke-miterlimit:10;" d="M 668 359 L 697.664062 359 L 709.664062 330.785156 L 721.664062 359 L 751.332031 359 L 727.332031 376.4375 L 735.417969 407.980469 L 709.664062 390.542969 L 683.914062 407.980469 L 696.214844 376.4375 L 668 359 "/>
<path style="fill-rule:nonzero;fill:rgb(55%,51%,53%);fill-opacity:1;stroke-width:1;stroke-linecap:butt;stroke-linejoin:miter;stroke:rgb(0%,0%,0%);stroke-opacity:1;stroke-miterlimit:10;" d="M 678.214844 211 C 678.214844 222.714844 668.714844 232.214844 657 232.214844 C 645.285156 232.214844 635.785156 222.714844 635.785156 211 C 635.785156 199.285156 645.285156 189.785156 657 189.785156 C 668.714844 189.785156 678.214844 199.285156 678.214844 211 "/>
<path style="fill-rule:nonzero;fill:rgb(55%,51%,53%);fill-opacity:1;stroke-width:1;stroke-linecap:butt;stroke-linejoin:miter;stroke:rgb(0%,0%,0%);stroke-opacity:1;stroke-miterlimit:10;" d="M 553.214844 303 C 553.214844 314.714844 543.714844 324.214844 532 324.214844 C 520.285156 324.214844 510.785156 314.714844 510.785156 303 C 510.785156 291.285156 520.285156 281.785156 532 281.785156 C 543.714844 281.785156 553.214844 291.285156 553.214844 303 "/>
<path style="fill-rule:nonzero;fill:rgb(55%,51%,53%);fill-opacity:1;stroke-width:1;stroke-linecap:butt;stroke-linejoin:miter;stroke:rgb(0%,0%,0%);stroke-opacity:1;stroke-miterlimit:10;" d="M 481.214844 409 C 481.214844 420.714844 471.714844 430.214844 460 430.214844 C 448.285156 430.214844 438.785156 420.714844 438.785156 409 C 438.785156 397.285156 448.285156 387.785156 460 387.785156 C 471.714844 387.785156 481.214844 397.285156 481.214844 409 "/>
<path style="fill-rule:nonzero;fill:rgb(55%,51%,53%);fill-opacity:1;stroke-width:1;stroke-linecap:butt;stroke-linejoin:miter;stroke:rgb(0%,0%,0%);stroke-opacity:1;stroke-miterlimit:10;" d="M 661.214844 85 C 661.214844 96.714844 651.714844 106.214844 640 106.214844 C 628.285156 106.214844 618.785156 96.714844 618.785156 85 C 618.785156 73.285156 628.285156 63.785156 640 63.785156 C 651.714844 63.785156 661.214844 73.285156 661.214844 85 "/>
<path style="fill-rule:nonzero;fill:rgb(55%,51%,53%);fill-opacity:1;stroke-width:1;stroke-linecap:butt;stroke-linejoin:miter;stroke:rgb(0%,0%,0%);stroke-opacity:1;stroke-miterlimit:10;" d="M 432.214844 84 C 432.214844 95.714844 422.714844 105.214844 411 105.214844 C 399.285156 105.214844 389.785156 95.714844 389.785156 84 C 389.785156 72.285156 399.285156 62.785156 411 62.785156 C 422.714844 62.785156 432.214844 72.285156 432.214844 84 "/>
</g>
</svg>
