<?xml version="1.0" encoding="UTF-8"?>
<svg xmlns="http://www.w3.org/2000/svg" xmlns:xlink="http://www.w3.org/1999/xlink" width="1179pt" height="517pt" viewBox="0 0 1179 517" version="1.1">
<g id="surface866">
<rect x="0" y="0" width="1179" height="517" style="fill:rgb(90%,90%,90%);fill-opacity:1;stroke:none;"/>
<path style="fill-rule:nonzero;fill:rgb(35%,70%,90%);fill-opacity:1;stroke-width:1;stroke-linecap:butt;stroke-linejoin:miter;stroke:rgb(0%,0%,0%);stroke-opacity:1;stroke-miterlimit:10;" d="M 357 158 L 386.664062 158 L 398.664062 129.785156 L 410.664062 158 L 440.332031 158 L 416.332031 175.4375 L 424.417969 206.980469 L 398.664062 189.542969 L 372.914062 206.980469 L 385.214844 175.4375 L 357 158 "/>
<path style="fill-rule:nonzero;fill:rgb(35%,70%,90%);fill-opacity:1;stroke-width:1;stroke-linecap:butt;stroke-linejoin:miter;stroke:rgb(0%,0%,0%);stroke-opacity:1;stroke-miterlimit:10;" d="M 98 316 L 127.664062 316 L 139.664062 287.785156 L 151.664062 316 L 181.332031 316 L 157.332031 333.4375 L 165.417969 364.980469 L 139.664062 347.542969 L 113.914062 364.980469 L 126.214844 333.4375 L 98 316 "/>
<path style="fill-rule:nonzero;fill:rgb(55%,51%,53%);fill-opacity:1;stroke-width:1;stroke-linecap:butt;stroke-linejoin:miter;stroke:rgb(0%,0%,0%);stroke-opacity:1;stroke-miterlimit:10;" d="M 385.214844 327 C 385.214844 338.714844 375.714844 348.214844 364 348.214844 C 352.285156 348.214844 342.785156 338.714844 342.785156 327 C 342.785156 315.285156 352.285156 305.785156 364 305.785156 C 375.714844 305.785156 385.214844 315.285156 385.214844 327 "/>
<path style="fill-rule:nonzero;fill:rgb(55%,51%,53%);fill-opacity:1;stroke-width:1;stroke-linecap:butt;stroke-linejoin:miter;stroke:rgb(0%,0%,0%);stroke-opacity:1;stroke-miterlimit:10;" d="M 320.214844 409 C 320.214844 420.714844 310.714844 430.214844 299 430.214844 C 287.285156 430.214844 277.785156 420.714844 277.785156 409 C 277.785156 397.285156 287.285156 387.785156 299 387.785156 C 310.714844 387.785156 320.214844 397.285156 320.214844 409 "/>
<path style="fill-rule:nonzero;fill:rgb(55%,51%,53%);fill-opacity:1;stroke-width:1;stroke-linecap:butt;stroke-linejoin:miter;stroke:rgb(0%,0%,0%);stroke-opacity:1;stroke-miterlimit:10;" d="M 174.214844 236 C 174.214844 247.714844 164.714844 257.214844 153 257.214844 C 141.285156 257.214844 131.785156 247.714844 131.785156 236 C 131.785156 224.285156 141.285156 214.785156 153 214.785156 C 164.714844 214.785156 174.214844 224.285156 174.214844 236 "/>
<path style="fill-rule:nonzero;fill:rgb(35%,70%,90%);fill-opacity:1;stroke-width:1;stroke-linecap:butt;stroke-linejoin:miter;stroke:rgb(0%,0%,0%);stroke-opacity:1;stroke-miterlimit:10;" d="M 196 98 L 225.664062 98 L 237.664062 69.785156 L 249.664062 98 L 279.332031 98 L 255.332031 115.4375 L 263.417969 146.980469 L 237.664062 129.542969 L 211.914062 146.980469 L 224.214844 115.4375 L 196 98 "/>
<path style="fill-rule:nonzero;fill:rgb(55%,51%,53%);fill-opacity:1;stroke-width:1;stroke-linecap:butt;stroke-linejoin:miter;stroke:rgb(0%,0%,0%);stroke-opacity:1;stroke-miterlimit:10;" d="M 858.214844 107 C 858.214844 118.714844 848.714844 128.214844 837 128.214844 C 825.285156 128.214844 815.785156 118.714844 815.785156 107 C 815.785156 95.285156 825.285156 85.785156 837 85.785156 C 848.714844 85.785156 858.214844 95.285156 858.214844 107 "/>
<path style="fill-rule:nonzero;fill:rgb(35%,70%,90%);fill-opacity:1;stroke-width:1;stroke-linecap:butt;stroke-linejoin:miter;stroke:rgb(0%,0%,0%);stroke-opacity:1;stroke-miterlimit:10;" d="M 964 90 L 993.664062 90 L 1005.664062 61.785156 L 1017.664062 90 L 1047.332031 90 L 1023.332031 107.4375 L 1031.417969 138.980469 L 1005.664062 121.542969 L 979.914062 138.980469 L 992.214844 107.4375 L 964 90 "/>
<path style="fill-rule:nonzero;fill:rgb(55%,51%,53%);fill-opacity:1;stroke-width:1;stroke-linecap:butt;stroke-linejoin:miter;stroke:rgb(0%,0%,0%);stroke-opacity:1;stroke-miterlimit:10;" d="M 725.214844 142 C 725.214844 153.714844 715.714844 163.214844 704 163.214844 C 692.285156 163.214844 682.785156 153.714844 682.785156 142 C 682.785156 130.285156 692.285156 120.785156 704 120.785156 C 715.714844 120.785156 725.214844 130.285156 725.214844 142 "/>
<path style="fill-rule:nonzero;fill:rgb(55%,51%,53%);fill-opacity:1;stroke-width:1;stroke-linecap:butt;stroke-linejoin:miter;stroke:rgb(0%,0%,0%);stroke-opacity:1;stroke-miterlimit:10;" d="M 1007.214844 179 C 1007.214844 190.714844 997.714844 200.214844 986 200.214844 C 974.285156 200.214844 964.785156 190.714844 964.785156 179 C 964.785156 167.285156 974.285156 157.785156 986 157.785156 C 997.714844 157.785156 1007.214844 167.285156 1007.214844 179 "/>
<path style="fill-rule:nonzero;fill:rgb(35%,70%,90%);fill-opacity:1;stroke-width:1;stroke-linecap:butt;stroke-linejoin:miter;stroke:rgb(0%,0%,0%);stroke-opacity:1;stroke-miterlimit:10;" d="M 811 222 L 840.664062 222 L 852.664062 193.785156 L 864.664062 222 L 894.332031 222 L 870.332031 239.4375 L 878.417969 270.980469 L 852.664062 253.542969 L 826.914062 270.980469 L 839.214844 239.4375 L 811 222 "/>
<path style="fill-rule:nonzero;fill:rgb(35%,70%,90%);fill-opacity:1;stroke-width:1;stroke-linecap:butt;stroke-linejoin:miter;stroke:rgb(0%,0%,0%);stroke-opacity:1;stroke-miterlimit:10;" d="M 936 262 L 965.664062 262 L 977.664062 233.785156 L 989.664062 262 L 1019.332031 262 L 995.332031 279.4375 L 1003.417969 310.980469 L 977.664062 293.542969 L 951.914062 310.980469 L 964.214844 279.4375 L 936 262 "/>
<path style="fill-rule:nonzero;fill:rgb(55%,51%,53%);fill-opacity:1;stroke-width:1;stroke-linecap:butt;stroke-linejoin:miter;stroke:rgb(0%,0%,0%);stroke-opacity:1;stroke-miterlimit:10;" d="M 911.214844 424 C 911.214844 435.714844 901.714844 445.214844 890 445.214844 C 878.285156 445.214844 868.785156 435.714844 868.785156 424 C 868.785156 412.285156 878.285156 402.785156 890 402.785156 C 901.714844 402.785156 911.214844 412.285156 911.214844 424 "/>
<path style="fill-rule:nonzero;fill:rgb(55%,51%,53%);fill-opacity:1;stroke-width:1;stroke-linecap:butt;stroke-linejoin:miter;stroke:rgb(0%,0%,0%);stroke-opacity:1;stroke-miterlimit:10;" d="M 849.214844 353 C 849.214844 364.714844 839.714844 374.214844 828 374.214844 C 816.285156 374.214844 806.785156 364.714844 806.785156 353 C 806.785156 341.285156 816.285156 331.785156 828 331.785156 C 839.714844 331.785156 849.214844 341.285156 849.214844 353 "/>
</g>
</svg>
