<?xml version="1.0" encoding="UTF-8"?>
<svg xmlns="http://www.w3.org/2000/svg" xmlns:xlink="http://www.w3.org/1999/xlink" width="1179pt" height="517pt" viewBox="0 0 1179 517" version="1.1">
<g id="surface1206">
<rect x="0" y="0" width="1179" height="517" style="fill:rgb(90%,90%,90%);fill-opacity:1;stroke:none;"/>
<path style="fill-rule:nonzero;fill:rgb(55%,51%,53%);fill-opacity:1;stroke-width:1;stroke-linecap:butt;stroke-linejoin:miter;stroke:rgb(0%,0%,0%);stroke-opacity:1;stroke-miterlimit:10;" d="M 758.214844 344 C 758.214844 355.714844 748.714844 365.214844 737 365.214844 C 725.285156 365.214844 715.785156 355.714844 715.785156 344 C 715.785156 332.285156 725.285156 322.785156 737 322.785156 C 748.714844 322.785156 758.214844 332.285156 758.214844 344 "/>
<path style="fill-rule:nonzero;fill:rgb(55%,51%,53%);fill-opacity:1;stroke-width:1;stroke-linecap:butt;stroke-linejoin:miter;stroke:rgb(0%,0%,0%);stroke-opacity:1;stroke-miterlimit:10;" d="M 738.214844 219 C 738.214844 230.714844 728.714844 240.214844 717 240.214844 C 705.285156 240.214844 695.785156 230.714844 695.785156 219 C 695.785156 207.285156 705.285156 197.785156 717 197.785156 C 728.714844 197.785156 738.214844 207.285156 738.214844 219 "/>
<path style="fill-rule:nonzero;fill:rgb(55%,51%,53%);fill-opacity:1;stroke-width:1;stroke-linecap:butt;stroke-linejoin:miter;stroke:rgb(0%,0%,0%);stroke-opacity:1;stroke-miterlimit:10;" d="M 576.214844 307 C 576.214844 318.714844 566.714844 328.214844 555 328.214844 C 543.285156 328.214844 533.785156 318.714844 533.785156 307 C 533.785156 295.285156 543.285156 285.785156 555 285.785156 C 566.714844 285.785156 576.214844 295.285156 576.214844 307 "/>
<path style="fill-rule:nonzero;fill:rgb(100%,51%,0%);fill-opacity:1;stroke-width:1;stroke-linecap:butt;stroke-linejoin:miter;stroke:rgb(0%,0%,0%);stroke-opacity:1;stroke-miterlimit:10;" d="M 355 168.601562 C 355 154.199219 331 154.199219 331 168.601562 C 331 183 355 185.398438 355 197.398438 C 355 185.398438 379 183 379 168.601562 C 379 154.199219 355 154.199219 355 168.601562 "/>
<path style="fill-rule:nonzero;fill:rgb(100%,51%,0%);fill-opacity:1;stroke-width:1;stroke-linecap:butt;stroke-linejoin:miter;stroke:rgb(0%,0%,0%);stroke-opacity:1;stroke-miterlimit:10;" d="M 955 276.601562 C 955 262.199219 931 262.199219 931 276.601562 C 931 291 955 293.398438 955 305.398438 C 955 293.398438 979 291 979 276.601562 C 979 262.199219 955 262.199219 955 276.601562 "/>
<path style="fill-rule:nonzero;fill:rgb(100%,51%,0%);fill-opacity:1;stroke-width:1;stroke-linecap:butt;stroke-linejoin:miter;stroke:rgb(0%,0%,0%);stroke-opacity:1;stroke-miterlimit:10;" d="M 110 199.601562 C 110 185.199219 86 185.199219 86 199.601562 C 86 214 110 216.398438 110 228.398438 C 110 216.398438 134 214 134 199.601562 C 134 185.199219 110 185.199219 110 199.601562 "/>
<path style="fill-rule:nonzero;fill:rgb(100%,51%,0%);fill-opacity:1;stroke-width:1;stroke-linecap:butt;stroke-linejoin:miter;stroke:rgb(0%,0%,0%);stroke-opacity:1;stroke-miterlimit:10;" d="M 887 122.601562 C 887 108.199219 863 108.199219 863 122.601562 C 863 137 887 139.398438 887 151.398438 C 887 139.398438 911 137 911 122.601562 C 911 108.199219 887 108.199219 887 122.601562 "/>
</g>
</svg>
