<?xml version="1.0" encoding="UTF-8"?>
<svg xmlns="http://www.w3.org/2000/svg" xmlns:xlink="http://www.w3.org/1999/xlink" width="1179pt" height="517pt" viewBox="0 0 1179 517" version="1.1">
<g id="surface1111">
<rect x="0" y="0" width="1179" height="517" style="fill:rgb(90%,90%,90%);fill-opacity:1;stroke:none;"/>
<path style="fill-rule:nonzero;fill:rgb(100%,51%,0%);fill-opacity:1;stroke-width:1;stroke-linecap:butt;stroke-linejoin:miter;stroke:rgb(0%,0%,0%);stroke-opacity:1;stroke-miterlimit:10;" d="M 578 407 L 607.664062 407 L 619.664062 378.785156 L 631.664062 407 L 661.332031 407 L 637.332031 424.4375 L 645.417969 455.980469 L 619.664062 438.542969 L 593.914062 455.980469 L 606.214844 424.4375 L 578 407 "/>
<path style="fill-rule:nonzero;fill:rgb(100%,51%,0%);fill-opacity:1;stroke-width:1;stroke-linecap:butt;stroke-linejoin:miter;stroke:rgb(0%,0%,0%);stroke-opacity:1;stroke-miterlimit:10;" d="M 527 272 L 556.664062 272 L 568.664062 243.785156 L 580.664062 272 L 610.332031 272 L 586.332031 289.4375 L 594.417969 320.980469 L 568.664062 303.542969 L 542.914062 320.980469 L 555.214844 289.4375 L 527 272 "/>
<path style="fill-rule:nonzero;fill:rgb(100%,51%,0%);fill-opacity:1;stroke-width:1;stroke-linecap:butt;stroke-linejoin:miter;stroke:rgb(0%,0%,0%);stroke-opacity:1;stroke-miterlimit:10;" d="M 797 375 L 826.664062 375 L 838.664062 346.785156 L 850.664062 375 L 880.332031 375 L 856.332031 392.4375 L 864.417969 423.980469 L 838.664062 406.542969 L 812.914062 423.980469 L 825.214844 392.4375 L 797 375 "/>
<path style="fill-rule:nonzero;fill:rgb(100%,51%,0%);fill-opacity:1;stroke-width:1;stroke-linecap:butt;stroke-linejoin:miter;stroke:rgb(0%,0%,0%);stroke-opacity:1;stroke-miterlimit:10;" d="M 325 230 L 354.664062 230 L 366.664062 201.785156 L 378.664062 230 L 408.332031 230 L 384.332031 247.4375 L 392.417969 278.980469 L 366.664062 261.542969 L 340.914062 278.980469 L 353.214844 247.4375 L 325 230 "/>
<path style="fill-rule:nonzero;fill:rgb(100%,51%,0%);fill-opacity:1;stroke-width:1;stroke-linecap:butt;stroke-linejoin:miter;stroke:rgb(0%,0%,0%);stroke-opacity:1;stroke-miterlimit:10;" d="M 1033 192 L 1062.664062 192 L 1074.664062 163.785156 L 1086.664062 192 L 1116.332031 192 L 1092.332031 209.4375 L 1100.417969 240.980469 L 1074.664062 223.542969 L 1048.914062 240.980469 L 1061.214844 209.4375 L 1033 192 "/>
<path style="fill-rule:nonzero;fill:rgb(35%,70%,90%);fill-opacity:1;stroke-width:1;stroke-linecap:butt;stroke-linejoin:miter;stroke:rgb(0%,0%,0%);stroke-opacity:1;stroke-miterlimit:10;" d="M 156 358 L 130.019531 403 L 181.980469 403 L 156 358 "/>
<path style="fill-rule:nonzero;fill:rgb(35%,70%,90%);fill-opacity:1;stroke-width:1;stroke-linecap:butt;stroke-linejoin:miter;stroke:rgb(0%,0%,0%);stroke-opacity:1;stroke-miterlimit:10;" d="M 389 334 L 363.019531 379 L 414.980469 379 L 389 334 "/>
<path style="fill-rule:nonzero;fill:rgb(35%,70%,90%);fill-opacity:1;stroke-width:1;stroke-linecap:butt;stroke-linejoin:miter;stroke:rgb(0%,0%,0%);stroke-opacity:1;stroke-miterlimit:10;" d="M 782 214 L 756.019531 259 L 807.980469 259 L 782 214 "/>
</g>
</svg>
