<?xml version="1.0" encoding="UTF-8"?>
<svg xmlns="http://www.w3.org/2000/svg" xmlns:xlink="http://www.w3.org/1999/xlink" width="1179pt" height="517pt" viewBox="0 0 1179 517" version="1.1">
<g id="surface196">
<rect x="0" y="0" width="1179" height="517" style="fill:rgb(90%,90%,90%);fill-opacity:1;stroke:none;"/>
<path style="fill-rule:nonzero;fill:rgb(35%,70%,90%);fill-opacity:1;stroke-width:1;stroke-linecap:butt;stroke-linejoin:miter;stroke:rgb(0%,0%,0%);stroke-opacity:1;stroke-miterlimit:10;" d="M 361.214844 230 C 361.214844 241.714844 351.714844 251.214844 340 251.214844 C 328.285156 251.214844 318.785156 241.714844 318.785156 230 C 318.785156 218.285156 328.285156 208.785156 340 208.785156 C 351.714844 208.785156 361.214844 218.285156 361.214844 230 "/>
<path style="fill-rule:nonzero;fill:rgb(35%,70%,90%);fill-opacity:1;stroke-width:1;stroke-linecap:butt;stroke-linejoin:miter;stroke:rgb(0%,0%,0%);stroke-opacity:1;stroke-miterlimit:10;" d="M 229.214844 429 C 229.214844 440.714844 219.714844 450.214844 208 450.214844 C 196.285156 450.214844 186.785156 440.714844 186.785156 429 C 186.785156 417.285156 196.285156 407.785156 208 407.785156 C 219.714844 407.785156 229.214844 417.285156 229.214844 429 "/>
<path style="fill-rule:nonzero;fill:rgb(35%,70%,90%);fill-opacity:1;stroke-width:1;stroke-linecap:butt;stroke-linejoin:miter;stroke:rgb(0%,0%,0%);stroke-opacity:1;stroke-miterlimit:10;" d="M 219.214844 245 C 219.214844 256.714844 209.714844 266.214844 198 266.214844 C 186.285156 266.214844 176.785156 256.714844 176.785156 245 C 176.785156 233.285156 186.285156 223.785156 198 223.785156 C 209.714844 223.785156 219.214844 233.285156 219.214844 245 "/>
<path style="fill-rule:nonzero;fill:rgb(100%,51%,0%);fill-opacity:1;stroke-width:1;stroke-linecap:butt;stroke-linejoin:miter;stroke:rgb(0%,0%,0%);stroke-opacity:1;stroke-miterlimit:10;" d="M 278.214844 331 C 278.214844 342.714844 268.714844 352.214844 257 352.214844 C 245.285156 352.214844 235.785156 342.714844 235.785156 331 C 235.785156 319.285156 245.285156 309.785156 257 309.785156 C 268.714844 309.785156 278.214844 319.285156 278.214844 331 "/>
<path style="fill-rule:nonzero;fill:rgb(100%,51%,0%);fill-opacity:1;stroke-width:1;stroke-linecap:butt;stroke-linejoin:miter;stroke:rgb(0%,0%,0%);stroke-opacity:1;stroke-miterlimit:10;" d="M 998 149 L 972.019531 194 L 1023.980469 194 L 998 149 "/>
<path style="fill-rule:nonzero;fill:rgb(100%,51%,0%);fill-opacity:1;stroke-width:1;stroke-linecap:butt;stroke-linejoin:miter;stroke:rgb(0%,0%,0%);stroke-opacity:1;stroke-miterlimit:10;" d="M 859 246 L 833.019531 291 L 884.980469 291 L 859 246 "/>
<path style="fill-rule:nonzero;fill:rgb(100%,51%,0%);fill-opacity:1;stroke-width:1;stroke-linecap:butt;stroke-linejoin:miter;stroke:rgb(0%,0%,0%);stroke-opacity:1;stroke-miterlimit:10;" d="M 894 395 L 868.019531 440 L 919.980469 440 L 894 395 "/>
<path style="fill-rule:nonzero;fill:rgb(35%,70%,90%);fill-opacity:1;stroke-width:1;stroke-linecap:butt;stroke-linejoin:miter;stroke:rgb(0%,0%,0%);stroke-opacity:1;stroke-miterlimit:10;" d="M 806 341 L 780.019531 386 L 831.980469 386 L 806 341 "/>
<path style="fill-rule:nonzero;fill:rgb(100%,51%,0%);fill-opacity:1;stroke-width:1;stroke-linecap:butt;stroke-linejoin:miter;stroke:rgb(0%,0%,0%);stroke-opacity:1;stroke-miterlimit:10;" d="M 825 143 L 799.019531 188 L 850.980469 188 L 825 143 "/>
<path style="fill-rule:nonzero;fill:rgb(100%,51%,0%);fill-opacity:1;stroke-width:1;stroke-linecap:butt;stroke-linejoin:miter;stroke:rgb(0%,0%,0%);stroke-opacity:1;stroke-miterlimit:10;" d="M 719 218 L 693.019531 263 L 744.980469 263 L 719 218 "/>
<path style="fill-rule:nonzero;fill:rgb(100%,51%,0%);fill-opacity:1;stroke-width:1;stroke-linecap:butt;stroke-linejoin:miter;stroke:rgb(0%,0%,0%);stroke-opacity:1;stroke-miterlimit:10;" d="M 975 316 L 949.019531 361 L 1000.980469 361 L 975 316 "/>
<path style="fill-rule:nonzero;fill:rgb(100%,51%,0%);fill-opacity:1;stroke-width:1;stroke-linecap:butt;stroke-linejoin:miter;stroke:rgb(0%,0%,0%);stroke-opacity:1;stroke-miterlimit:10;" d="M 724 56 L 698.019531 101 L 749.980469 101 L 724 56 "/>
</g>
</svg>
