<?xml version="1.0" encoding="UTF-8"?>
<svg xmlns="http://www.w3.org/2000/svg" xmlns:xlink="http://www.w3.org/1999/xlink" width="1179pt" height="517pt" viewBox="0 0 1179 517" version="1.1">
<g id="surface776">
<rect x="0" y="0" width="1179" height="517" style="fill:rgb(90%,90%,90%);fill-opacity:1;stroke:none;"/>
<path style="fill-rule:nonzero;fill:rgb(35%,70%,90%);fill-opacity:1;stroke-width:1;stroke-linecap:butt;stroke-linejoin:miter;stroke:rgb(0%,0%,0%);stroke-opacity:1;stroke-miterlimit:10;" d="M 613 379 L 642.664062 379 L 654.664062 350.785156 L 666.664062 379 L 696.332031 379 L 672.332031 396.4375 L 680.417969 427.980469 L 654.664062 410.542969 L 628.914062 427.980469 L 641.214844 396.4375 L 613 379 "/>
<path style="fill-rule:nonzero;fill:rgb(35%,70%,90%);fill-opacity:1;stroke-width:1;stroke-linecap:butt;stroke-linejoin:miter;stroke:rgb(0%,0%,0%);stroke-opacity:1;stroke-miterlimit:10;" d="M 500 111 L 529.664062 111 L 541.664062 82.785156 L 553.664062 111 L 583.332031 111 L 559.332031 128.4375 L 567.417969 159.980469 L 541.664062 142.542969 L 515.914062 159.980469 L 528.214844 128.4375 L 500 111 "/>
<path style="fill-rule:nonzero;fill:rgb(35%,70%,90%);fill-opacity:1;stroke-width:1;stroke-linecap:butt;stroke-linejoin:miter;stroke:rgb(0%,0%,0%);stroke-opacity:1;stroke-miterlimit:10;" d="M 416 390 L 445.664062 390 L 457.664062 361.785156 L 469.664062 390 L 499.332031 390 L 475.332031 407.4375 L 483.417969 438.980469 L 457.664062 421.542969 L 431.914062 438.980469 L 444.214844 407.4375 L 416 390 "/>
<path style="fill-rule:nonzero;fill:rgb(35%,70%,90%);fill-opacity:1;stroke-width:1;stroke-linecap:butt;stroke-linejoin:miter;stroke:rgb(0%,0%,0%);stroke-opacity:1;stroke-miterlimit:10;" d="M 1030 353 L 1059.664062 353 L 1071.664062 324.785156 L 1083.664062 353 L 1113.332031 353 L 1089.332031 370.4375 L 1097.417969 401.980469 L 1071.664062 384.542969 L 1045.914062 401.980469 L 1058.214844 370.4375 L 1030 353 "/>
<path style="fill-rule:nonzero;fill:rgb(35%,70%,90%);fill-opacity:1;stroke-width:1;stroke-linecap:butt;stroke-linejoin:miter;stroke:rgb(0%,0%,0%);stroke-opacity:1;stroke-miterlimit:10;" d="M 89 347 L 118.664062 347 L 130.664062 318.785156 L 142.664062 347 L 172.332031 347 L 148.332031 364.4375 L 156.417969 395.980469 L 130.664062 378.542969 L 104.914062 395.980469 L 117.214844 364.4375 L 89 347 "/>
<path style="fill-rule:nonzero;fill:rgb(55%,51%,53%);fill-opacity:1;stroke-width:1;stroke-linecap:butt;stroke-linejoin:miter;stroke:rgb(0%,0%,0%);stroke-opacity:1;stroke-miterlimit:10;" d="M 898.214844 263 C 898.214844 274.714844 888.714844 284.214844 877 284.214844 C 865.285156 284.214844 855.785156 274.714844 855.785156 263 C 855.785156 251.285156 865.285156 241.785156 877 241.785156 C 888.714844 241.785156 898.214844 251.285156 898.214844 263 "/>
<path style="fill-rule:nonzero;fill:rgb(55%,51%,53%);fill-opacity:1;stroke-width:1;stroke-linecap:butt;stroke-linejoin:miter;stroke:rgb(0%,0%,0%);stroke-opacity:1;stroke-miterlimit:10;" d="M 788.214844 91 C 788.214844 102.714844 778.714844 112.214844 767 112.214844 C 755.285156 112.214844 745.785156 102.714844 745.785156 91 C 745.785156 79.285156 755.285156 69.785156 767 69.785156 C 778.714844 69.785156 788.214844 79.285156 788.214844 91 "/>
<path style="fill-rule:nonzero;fill:rgb(55%,51%,53%);fill-opacity:1;stroke-width:1;stroke-linecap:butt;stroke-linejoin:miter;stroke:rgb(0%,0%,0%);stroke-opacity:1;stroke-miterlimit:10;" d="M 192.214844 129 C 192.214844 140.714844 182.714844 150.214844 171 150.214844 C 159.285156 150.214844 149.785156 140.714844 149.785156 129 C 149.785156 117.285156 159.285156 107.785156 171 107.785156 C 182.714844 107.785156 192.214844 117.285156 192.214844 129 "/>
</g>
</svg>
