<?xml version="1.0" encoding="UTF-8"?>
<svg xmlns="http://www.w3.org/2000/svg" xmlns:xlink="http://www.w3.org/1999/xlink" width="1179pt" height="517pt" viewBox="0 0 1179 517" version="1.1">
<g id="surface486">
<rect x="0" y="0" width="1179" height="517" style="fill:rgb(90%,90%,90%);fill-opacity:1;stroke:none;"/>
<path style="fill-rule:nonzero;fill:rgb(100%,51%,0%);fill-opacity:1;stroke-width:1;stroke-linecap:butt;stroke-linejoin:miter;stroke:rgb(0%,0%,0%);stroke-opacity:1;stroke-miterlimit:10;" d="M 936 410 L 965.664062 410 L 977.664062 381.785156 L 989.664062 410 L 1019.332031 410 L 995.332031 427.4375 L 1003.417969 458.980469 L 977.664062 441.542969 L 951.914062 458.980469 L 964.214844 427.4375 L 936 410 "/>
<path style="fill-rule:nonzero;fill:rgb(100%,51%,0%);fill-opacity:1;stroke-width:1;stroke-linecap:butt;stroke-linejoin:miter;stroke:rgb(0%,0%,0%);stroke-opacity:1;stroke-miterlimit:10;" d="M 965 247 L 994.664062 247 L 1006.664062 218.785156 L 1018.664062 247 L 1048.332031 247 L 1024.332031 264.4375 L 1032.417969 295.980469 L 1006.664062 278.542969 L 980.914062 295.980469 L 993.214844 264.4375 L 965 247 "/>
<path style="fill-rule:nonzero;fill:rgb(100%,51%,0%);fill-opacity:1;stroke-width:1;stroke-linecap:butt;stroke-linejoin:miter;stroke:rgb(0%,0%,0%);stroke-opacity:1;stroke-miterlimit:10;" d="M 455 161 L 484.664062 161 L 496.664062 132.785156 L 508.664062 161 L 538.332031 161 L 514.332031 178.4375 L 522.417969 209.980469 L 496.664062 192.542969 L 470.914062 209.980469 L 483.214844 178.4375 L 455 161 "/>
<path style="fill-rule:nonzero;fill:rgb(100%,51%,0%);fill-opacity:1;stroke-width:1;stroke-linecap:butt;stroke-linejoin:miter;stroke:rgb(0%,0%,0%);stroke-opacity:1;stroke-miterlimit:10;" d="M 200 110 L 229.664062 110 L 241.664062 81.785156 L 253.664062 110 L 283.332031 110 L 259.332031 127.4375 L 267.417969 158.980469 L 241.664062 141.542969 L 215.914062 158.980469 L 228.214844 127.4375 L 200 110 "/>
<path style="fill-rule:nonzero;fill:rgb(55%,51%,53%);fill-opacity:1;stroke-width:1;stroke-linecap:butt;stroke-linejoin:miter;stroke:rgb(0%,0%,0%);stroke-opacity:1;stroke-miterlimit:10;" d="M 916 60 L 890.019531 105 L 941.980469 105 L 916 60 "/>
<path style="fill-rule:nonzero;fill:rgb(55%,51%,53%);fill-opacity:1;stroke-width:1;stroke-linecap:butt;stroke-linejoin:miter;stroke:rgb(0%,0%,0%);stroke-opacity:1;stroke-miterlimit:10;" d="M 470 356 L 444.019531 401 L 495.980469 401 L 470 356 "/>
<path style="fill-rule:nonzero;fill:rgb(55%,51%,53%);fill-opacity:1;stroke-width:1;stroke-linecap:butt;stroke-linejoin:miter;stroke:rgb(0%,0%,0%);stroke-opacity:1;stroke-miterlimit:10;" d="M 361 301 L 335.019531 346 L 386.980469 346 L 361 301 "/>
</g>
</svg>
