<?xml version="1.0" encoding="UTF-8"?>
<svg xmlns="http://www.w3.org/2000/svg" xmlns:xlink="http://www.w3.org/1999/xlink" width="1179pt" height="517pt" viewBox="0 0 1179 517" version="1.1">
<g id="surface801">
<rect x="0" y="0" width="1179" height="517" style="fill:rgb(90%,90%,90%);fill-opacity:1;stroke:none;"/>
<path style="fill-rule:nonzero;fill:rgb(100%,0%,0%);fill-opacity:1;stroke-width:1;stroke-linecap:butt;stroke-linejoin:miter;stroke:rgb(0%,0%,0%);stroke-opacity:1;stroke-miterlimit:10;" d="M 771 249.601562 C 771 235.199219 747 235.199219 747 249.601562 C 747 264 771 266.398438 771 278.398438 C 771 266.398438 795 264 795 249.601562 C 795 235.199219 771 235.199219 771 249.601562 "/>
<path style="fill-rule:nonzero;fill:rgb(100%,0%,0%);fill-opacity:1;stroke-width:1;stroke-linecap:butt;stroke-linejoin:miter;stroke:rgb(0%,0%,0%);stroke-opacity:1;stroke-miterlimit:10;" d="M 435 209.601562 C 435 195.199219 411 195.199219 411 209.601562 C 411 224 435 226.398438 435 238.398438 C 435 226.398438 459 224 459 209.601562 C 459 195.199219 435 195.199219 435 209.601562 "/>
<path style="fill-rule:nonzero;fill:rgb(100%,0%,0%);fill-opacity:1;stroke-width:1;stroke-linecap:butt;stroke-linejoin:miter;stroke:rgb(0%,0%,0%);stroke-opacity:1;stroke-miterlimit:10;" d="M 289 392.601562 C 289 378.199219 265 378.199219 265 392.601562 C 265 407 289 409.398438 289 421.398438 C 289 409.398438 313 407 313 392.601562 C 313 378.199219 289 378.199219 289 392.601562 "/>
<path style="fill-rule:nonzero;fill:rgb(100%,0%,0%);fill-opacity:1;stroke-width:1;stroke-linecap:butt;stroke-linejoin:miter;stroke:rgb(0%,0%,0%);stroke-opacity:1;stroke-miterlimit:10;" d="M 744 71.601562 C 744 57.199219 720 57.199219 720 71.601562 C 720 86 744 88.398438 744 100.398438 C 744 88.398438 768 86 768 71.601562 C 768 57.199219 744 57.199219 744 71.601562 "/>
<path style="fill-rule:nonzero;fill:rgb(0%,0%,0%);fill-opacity:1;stroke-width:1;stroke-linecap:butt;stroke-linejoin:miter;stroke:rgb(0%,0%,0%);stroke-opacity:1;stroke-miterlimit:10;" d="M 808 375 L 788 375 L 788 385 L 808 385 L 808 405 L 818 405 L 818 385 L 838 385 L 838 375 L 818 375 L 818 355 L 808 355 L 808 375 "/>
<path style="fill-rule:nonzero;fill:rgb(0%,0%,0%);fill-opacity:1;stroke-width:1;stroke-linecap:butt;stroke-linejoin:miter;stroke:rgb(0%,0%,0%);stroke-opacity:1;stroke-miterlimit:10;" d="M 881 100 L 861 100 L 861 110 L 881 110 L 881 130 L 891 130 L 891 110 L 911 110 L 911 100 L 891 100 L 891 80 L 881 80 L 881 100 "/>
<path style="fill-rule:nonzero;fill:rgb(0%,0%,0%);fill-opacity:1;stroke-width:1;stroke-linecap:butt;stroke-linejoin:miter;stroke:rgb(0%,0%,0%);stroke-opacity:1;stroke-miterlimit:10;" d="M 547 79 L 527 79 L 527 89 L 547 89 L 547 109 L 557 109 L 557 89 L 577 89 L 577 79 L 557 79 L 557 59 L 547 59 L 547 79 "/>
</g>
</svg>
