<?xml version="1.0" encoding="UTF-8"?>
<svg xmlns="http://www.w3.org/2000/svg" xmlns:xlink="http://www.w3.org/1999/xlink" width="1179pt" height="517pt" viewBox="0 0 1179 517" version="1.1">
<g id="surface201">
<rect x="0" y="0" width="1179" height="517" style="fill:rgb(90%,90%,90%);fill-opacity:1;stroke:none;"/>
<path style="fill-rule:nonzero;fill:rgb(35%,70%,90%);fill-opacity:1;stroke-width:1;stroke-linecap:butt;stroke-linejoin:miter;stroke:rgb(0%,0%,0%);stroke-opacity:1;stroke-miterlimit:10;" d="M 235.214844 219 C 235.214844 230.714844 225.714844 240.214844 214 240.214844 C 202.285156 240.214844 192.785156 230.714844 192.785156 219 C 192.785156 207.285156 202.285156 197.785156 214 197.785156 C 225.714844 197.785156 235.214844 207.285156 235.214844 219 "/>
<path style="fill-rule:nonzero;fill:rgb(35%,70%,90%);fill-opacity:1;stroke-width:1;stroke-linecap:butt;stroke-linejoin:miter;stroke:rgb(0%,0%,0%);stroke-opacity:1;stroke-miterlimit:10;" d="M 361.785156 218.785156 L 361.785156 261.214844 L 404.214844 261.214844 L 404.214844 218.785156 L 361.785156 218.785156 "/>
<path style="fill-rule:nonzero;fill:rgb(35%,70%,90%);fill-opacity:1;stroke-width:1;stroke-linecap:butt;stroke-linejoin:miter;stroke:rgb(0%,0%,0%);stroke-opacity:1;stroke-miterlimit:10;" d="M 380.214844 397 C 380.214844 408.714844 370.714844 418.214844 359 418.214844 C 347.285156 418.214844 337.785156 408.714844 337.785156 397 C 337.785156 385.285156 347.285156 375.785156 359 375.785156 C 370.714844 375.785156 380.214844 385.285156 380.214844 397 "/>
<path style="fill-rule:nonzero;fill:rgb(35%,70%,90%);fill-opacity:1;stroke-width:1;stroke-linecap:butt;stroke-linejoin:miter;stroke:rgb(0%,0%,0%);stroke-opacity:1;stroke-miterlimit:10;" d="M 394.214844 105 C 394.214844 116.714844 384.714844 126.214844 373 126.214844 C 361.285156 126.214844 351.785156 116.714844 351.785156 105 C 351.785156 93.285156 361.285156 83.785156 373 83.785156 C 384.714844 83.785156 394.214844 93.285156 394.214844 105 "/>
<path style="fill-rule:nonzero;fill:rgb(100%,51%,0%);fill-opacity:1;stroke-width:1;stroke-linecap:butt;stroke-linejoin:miter;stroke:rgb(0%,0%,0%);stroke-opacity:1;stroke-miterlimit:10;" d="M 677.785156 70.785156 L 677.785156 113.214844 L 720.214844 113.214844 L 720.214844 70.785156 L 677.785156 70.785156 "/>
<path style="fill-rule:nonzero;fill:rgb(100%,51%,0%);fill-opacity:1;stroke-width:1;stroke-linecap:butt;stroke-linejoin:miter;stroke:rgb(0%,0%,0%);stroke-opacity:1;stroke-miterlimit:10;" d="M 985.214844 326 C 985.214844 337.714844 975.714844 347.214844 964 347.214844 C 952.285156 347.214844 942.785156 337.714844 942.785156 326 C 942.785156 314.285156 952.285156 304.785156 964 304.785156 C 975.714844 304.785156 985.214844 314.285156 985.214844 326 "/>
<path style="fill-rule:nonzero;fill:rgb(100%,51%,0%);fill-opacity:1;stroke-width:1;stroke-linecap:butt;stroke-linejoin:miter;stroke:rgb(0%,0%,0%);stroke-opacity:1;stroke-miterlimit:10;" d="M 976.785156 101.785156 L 976.785156 144.214844 L 1019.214844 144.214844 L 1019.214844 101.785156 L 976.785156 101.785156 "/>
</g>
</svg>
