<?xml version="1.0" encoding="UTF-8"?>
<svg xmlns="http://www.w3.org/2000/svg" xmlns:xlink="http://www.w3.org/1999/xlink" width="1179pt" height="517pt" viewBox="0 0 1179 517" version="1.1">
<g id="surface1441">
<rect x="0" y="0" width="1179" height="517" style="fill:rgb(90%,90%,90%);fill-opacity:1;stroke:none;"/>
<path style="fill-rule:nonzero;fill:rgb(53%,27%,7%);fill-opacity:1;stroke-width:1;stroke-linecap:butt;stroke-linejoin:miter;stroke:rgb(0%,0%,0%);stroke-opacity:1;stroke-miterlimit:10;" d="M 378.214844 294 C 378.214844 305.714844 368.714844 315.214844 357 315.214844 C 345.285156 315.214844 335.785156 305.714844 335.785156 294 C 335.785156 282.285156 345.285156 272.785156 357 272.785156 C 368.714844 272.785156 378.214844 282.285156 378.214844 294 "/>
<path style="fill-rule:nonzero;fill:rgb(53%,27%,7%);fill-opacity:1;stroke-width:1;stroke-linecap:butt;stroke-linejoin:miter;stroke:rgb(0%,0%,0%);stroke-opacity:1;stroke-miterlimit:10;" d="M 841.214844 299 C 841.214844 310.714844 831.714844 320.214844 820 320.214844 C 808.285156 320.214844 798.785156 310.714844 798.785156 299 C 798.785156 287.285156 808.285156 277.785156 820 277.785156 C 831.714844 277.785156 841.214844 287.285156 841.214844 299 "/>
<path style="fill-rule:nonzero;fill:rgb(53%,27%,7%);fill-opacity:1;stroke-width:1;stroke-linecap:butt;stroke-linejoin:miter;stroke:rgb(0%,0%,0%);stroke-opacity:1;stroke-miterlimit:10;" d="M 321.214844 159 C 321.214844 170.714844 311.714844 180.214844 300 180.214844 C 288.285156 180.214844 278.785156 170.714844 278.785156 159 C 278.785156 147.285156 288.285156 137.785156 300 137.785156 C 311.714844 137.785156 321.214844 147.285156 321.214844 159 "/>
<path style="fill-rule:nonzero;fill:rgb(53%,27%,7%);fill-opacity:1;stroke-width:1;stroke-linecap:butt;stroke-linejoin:miter;stroke:rgb(0%,0%,0%);stroke-opacity:1;stroke-miterlimit:10;" d="M 534.214844 272 C 534.214844 283.714844 524.714844 293.214844 513 293.214844 C 501.285156 293.214844 491.785156 283.714844 491.785156 272 C 491.785156 260.285156 501.285156 250.785156 513 250.785156 C 524.714844 250.785156 534.214844 260.285156 534.214844 272 "/>
<path style="fill-rule:nonzero;fill:rgb(53%,27%,7%);fill-opacity:1;stroke-width:1;stroke-linecap:butt;stroke-linejoin:miter;stroke:rgb(0%,0%,0%);stroke-opacity:1;stroke-miterlimit:10;" d="M 1022.214844 155 C 1022.214844 166.714844 1012.714844 176.214844 1001 176.214844 C 989.285156 176.214844 979.785156 166.714844 979.785156 155 C 979.785156 143.285156 989.285156 133.785156 1001 133.785156 C 1012.714844 133.785156 1022.214844 143.285156 1022.214844 155 "/>
<path style="fill-rule:nonzero;fill:rgb(100%,51%,0%);fill-opacity:1;stroke-width:1;stroke-linecap:butt;stroke-linejoin:miter;stroke:rgb(0%,0%,0%);stroke-opacity:1;stroke-miterlimit:10;" d="M 202 315 L 231.664062 315 L 243.664062 286.785156 L 255.664062 315 L 285.332031 315 L 261.332031 332.4375 L 269.417969 363.980469 L 243.664062 346.542969 L 217.914062 363.980469 L 230.214844 332.4375 L 202 315 "/>
<path style="fill-rule:nonzero;fill:rgb(100%,51%,0%);fill-opacity:1;stroke-width:1;stroke-linecap:butt;stroke-linejoin:miter;stroke:rgb(0%,0%,0%);stroke-opacity:1;stroke-miterlimit:10;" d="M 961 290 L 990.664062 290 L 1002.664062 261.785156 L 1014.664062 290 L 1044.332031 290 L 1020.332031 307.4375 L 1028.417969 338.980469 L 1002.664062 321.542969 L 976.914062 338.980469 L 989.214844 307.4375 L 961 290 "/>
<path style="fill-rule:nonzero;fill:rgb(100%,51%,0%);fill-opacity:1;stroke-width:1;stroke-linecap:butt;stroke-linejoin:miter;stroke:rgb(0%,0%,0%);stroke-opacity:1;stroke-miterlimit:10;" d="M 131 126 L 160.664062 126 L 172.664062 97.785156 L 184.664062 126 L 214.332031 126 L 190.332031 143.4375 L 198.417969 174.980469 L 172.664062 157.542969 L 146.914062 174.980469 L 159.214844 143.4375 L 131 126 "/>
<path style="fill-rule:nonzero;fill:rgb(100%,51%,0%);fill-opacity:1;stroke-width:1;stroke-linecap:butt;stroke-linejoin:miter;stroke:rgb(0%,0%,0%);stroke-opacity:1;stroke-miterlimit:10;" d="M 660 131 L 689.664062 131 L 701.664062 102.785156 L 713.664062 131 L 743.332031 131 L 719.332031 148.4375 L 727.417969 179.980469 L 701.664062 162.542969 L 675.914062 179.980469 L 688.214844 148.4375 L 660 131 "/>
<path style="fill-rule:nonzero;fill:rgb(100%,51%,0%);fill-opacity:1;stroke-width:1;stroke-linecap:butt;stroke-linejoin:miter;stroke:rgb(0%,0%,0%);stroke-opacity:1;stroke-miterlimit:10;" d="M 90 370 L 119.664062 370 L 131.664062 341.785156 L 143.664062 370 L 173.332031 370 L 149.332031 387.4375 L 157.417969 418.980469 L 131.664062 401.542969 L 105.914062 418.980469 L 118.214844 387.4375 L 90 370 "/>
</g>
</svg>
