<?xml version="1.0" encoding="UTF-8"?>
<svg xmlns="http://www.w3.org/2000/svg" xmlns:xlink="http://www.w3.org/1999/xlink" width="1179pt" height="517pt" viewBox="0 0 1179 517" version="1.1">
<g id="surface286">
<rect x="0" y="0" width="1179" height="517" style="fill:rgb(90%,90%,90%);fill-opacity:1;stroke:none;"/>
<path style="fill-rule:nonzero;fill:rgb(100%,51%,0%);fill-opacity:1;stroke-width:1;stroke-linecap:butt;stroke-linejoin:miter;stroke:rgb(0%,0%,0%);stroke-opacity:1;stroke-miterlimit:10;" d="M 272.214844 397 C 272.214844 408.714844 262.714844 418.214844 251 418.214844 C 239.285156 418.214844 229.785156 408.714844 229.785156 397 C 229.785156 385.285156 239.285156 375.785156 251 375.785156 C 262.714844 375.785156 272.214844 385.285156 272.214844 397 "/>
<path style="fill-rule:nonzero;fill:rgb(53%,27%,7%);fill-opacity:1;stroke-width:1;stroke-linecap:butt;stroke-linejoin:miter;stroke:rgb(0%,0%,0%);stroke-opacity:1;stroke-miterlimit:10;" d="M 426.214844 253 C 426.214844 264.714844 416.714844 274.214844 405 274.214844 C 393.285156 274.214844 383.785156 264.714844 383.785156 253 C 383.785156 241.285156 393.285156 231.785156 405 231.785156 C 416.714844 231.785156 426.214844 241.285156 426.214844 253 "/>
<path style="fill-rule:nonzero;fill:rgb(53%,27%,7%);fill-opacity:1;stroke-width:1;stroke-linecap:butt;stroke-linejoin:miter;stroke:rgb(0%,0%,0%);stroke-opacity:1;stroke-miterlimit:10;" d="M 407.214844 85 C 407.214844 96.714844 397.714844 106.214844 386 106.214844 C 374.285156 106.214844 364.785156 96.714844 364.785156 85 C 364.785156 73.285156 374.285156 63.785156 386 63.785156 C 397.714844 63.785156 407.214844 73.285156 407.214844 85 "/>
<path style="fill-rule:nonzero;fill:rgb(53%,27%,7%);fill-opacity:1;stroke-width:1;stroke-linecap:butt;stroke-linejoin:miter;stroke:rgb(0%,0%,0%);stroke-opacity:1;stroke-miterlimit:10;" d="M 977 145 L 951.019531 190 L 1002.980469 190 L 977 145 "/>
<path style="fill-rule:nonzero;fill:rgb(100%,51%,0%);fill-opacity:1;stroke-width:1;stroke-linecap:butt;stroke-linejoin:miter;stroke:rgb(0%,0%,0%);stroke-opacity:1;stroke-miterlimit:10;" d="M 752 224 L 726.019531 269 L 777.980469 269 L 752 224 "/>
<path style="fill-rule:nonzero;fill:rgb(100%,51%,0%);fill-opacity:1;stroke-width:1;stroke-linecap:butt;stroke-linejoin:miter;stroke:rgb(0%,0%,0%);stroke-opacity:1;stroke-miterlimit:10;" d="M 1033 384 L 1007.019531 429 L 1058.980469 429 L 1033 384 "/>
<path style="fill-rule:nonzero;fill:rgb(53%,27%,7%);fill-opacity:1;stroke-width:1;stroke-linecap:butt;stroke-linejoin:miter;stroke:rgb(0%,0%,0%);stroke-opacity:1;stroke-miterlimit:10;" d="M 883 193 L 857.019531 238 L 908.980469 238 L 883 193 "/>
<path style="fill-rule:nonzero;fill:rgb(53%,27%,7%);fill-opacity:1;stroke-width:1;stroke-linecap:butt;stroke-linejoin:miter;stroke:rgb(0%,0%,0%);stroke-opacity:1;stroke-miterlimit:10;" d="M 813 343 L 787.019531 388 L 838.980469 388 L 813 343 "/>
</g>
</svg>
