<?xml version="1.0" encoding="UTF-8"?>
<svg xmlns="http://www.w3.org/2000/svg" xmlns:xlink="http://www.w3.org/1999/xlink" width="1179pt" height="517pt" viewBox="0 0 1179 517" version="1.1">
<g id="surface866">
<rect x="0" y="0" width="1179" height="517" style="fill:rgb(90%,90%,90%);fill-opacity:1;stroke:none;"/>
<path style="fill-rule:nonzero;fill:rgb(35%,70%,90%);fill-opacity:1;stroke-width:1;stroke-linecap:butt;stroke-linejoin:miter;stroke:rgb(0%,0%,0%);stroke-opacity:1;stroke-miterlimit:10;" d="M 1032 344 L 1061.664062 344 L 1073.664062 315.785156 L 1085.664062 344 L 1115.332031 344 L 1091.332031 361.4375 L 1099.417969 392.980469 L 1073.664062 375.542969 L 1047.914062 392.980469 L 1060.214844 361.4375 L 1032 344 "/>
<path style="fill-rule:nonzero;fill:rgb(35%,70%,90%);fill-opacity:1;stroke-width:1;stroke-linecap:butt;stroke-linejoin:miter;stroke:rgb(0%,0%,0%);stroke-opacity:1;stroke-miterlimit:10;" d="M 614 202 L 643.664062 202 L 655.664062 173.785156 L 667.664062 202 L 697.332031 202 L 673.332031 219.4375 L 681.417969 250.980469 L 655.664062 233.542969 L 629.914062 250.980469 L 642.214844 219.4375 L 614 202 "/>
<path style="fill-rule:nonzero;fill:rgb(35%,70%,90%);fill-opacity:1;stroke-width:1;stroke-linecap:butt;stroke-linejoin:miter;stroke:rgb(0%,0%,0%);stroke-opacity:1;stroke-miterlimit:10;" d="M 754 244 L 783.664062 244 L 795.664062 215.785156 L 807.664062 244 L 837.332031 244 L 813.332031 261.4375 L 821.417969 292.980469 L 795.664062 275.542969 L 769.914062 292.980469 L 782.214844 261.4375 L 754 244 "/>
<path style="fill-rule:nonzero;fill:rgb(55%,51%,53%);fill-opacity:1;stroke-width:1;stroke-linecap:butt;stroke-linejoin:miter;stroke:rgb(0%,0%,0%);stroke-opacity:1;stroke-miterlimit:10;" d="M 242.214844 146 C 242.214844 157.714844 232.714844 167.214844 221 167.214844 C 209.285156 167.214844 199.785156 157.714844 199.785156 146 C 199.785156 134.285156 209.285156 124.785156 221 124.785156 C 232.714844 124.785156 242.214844 134.285156 242.214844 146 "/>
<path style="fill-rule:nonzero;fill:rgb(55%,51%,53%);fill-opacity:1;stroke-width:1;stroke-linecap:butt;stroke-linejoin:miter;stroke:rgb(0%,0%,0%);stroke-opacity:1;stroke-miterlimit:10;" d="M 982.214844 148 C 982.214844 159.714844 972.714844 169.214844 961 169.214844 C 949.285156 169.214844 939.785156 159.714844 939.785156 148 C 939.785156 136.285156 949.285156 126.785156 961 126.785156 C 972.714844 126.785156 982.214844 136.285156 982.214844 148 "/>
<path style="fill-rule:nonzero;fill:rgb(55%,51%,53%);fill-opacity:1;stroke-width:1;stroke-linecap:butt;stroke-linejoin:miter;stroke:rgb(0%,0%,0%);stroke-opacity:1;stroke-miterlimit:10;" d="M 162.214844 417 C 162.214844 428.714844 152.714844 438.214844 141 438.214844 C 129.285156 438.214844 119.785156 428.714844 119.785156 417 C 119.785156 405.285156 129.285156 395.785156 141 395.785156 C 152.714844 395.785156 162.214844 405.285156 162.214844 417 "/>
<path style="fill-rule:nonzero;fill:rgb(55%,51%,53%);fill-opacity:1;stroke-width:1;stroke-linecap:butt;stroke-linejoin:miter;stroke:rgb(0%,0%,0%);stroke-opacity:1;stroke-miterlimit:10;" d="M 519.214844 387 C 519.214844 398.714844 509.714844 408.214844 498 408.214844 C 486.285156 408.214844 476.785156 398.714844 476.785156 387 C 476.785156 375.285156 486.285156 365.785156 498 365.785156 C 509.714844 365.785156 519.214844 375.285156 519.214844 387 "/>
</g>
</svg>
