<?xml version="1.0" encoding="UTF-8"?>
<svg xmlns="http://www.w3.org/2000/svg" xmlns:xlink="http://www.w3.org/1999/xlink" width="1179pt" height="517pt" viewBox="0 0 1179 517" version="1.1">
<g id="surface351">
<rect x="0" y="0" width="1179" height="517" style="fill:rgb(90%,90%,90%);fill-opacity:1;stroke:none;"/>
<path style="fill-rule:nonzero;fill:rgb(55%,51%,53%);fill-opacity:1;stroke-width:1;stroke-linecap:butt;stroke-linejoin:miter;stroke:rgb(0%,0%,0%);stroke-opacity:1;stroke-miterlimit:10;" d="M 419.214844 260 C 419.214844 271.714844 409.714844 281.214844 398 281.214844 C 386.285156 281.214844 376.785156 271.714844 376.785156 260 C 376.785156 248.285156 386.285156 238.785156 398 238.785156 C 409.714844 238.785156 419.214844 248.285156 419.214844 260 "/>
<path style="fill-rule:nonzero;fill:rgb(55%,51%,53%);fill-opacity:1;stroke-width:1;stroke-linecap:butt;stroke-linejoin:miter;stroke:rgb(0%,0%,0%);stroke-opacity:1;stroke-miterlimit:10;" d="M 300.214844 185 C 300.214844 196.714844 290.714844 206.214844 279 206.214844 C 267.285156 206.214844 257.785156 196.714844 257.785156 185 C 257.785156 173.285156 267.285156 163.785156 279 163.785156 C 290.714844 163.785156 300.214844 173.285156 300.214844 185 "/>
<path style="fill-rule:nonzero;fill:rgb(55%,51%,53%);fill-opacity:1;stroke-width:1;stroke-linecap:butt;stroke-linejoin:miter;stroke:rgb(0%,0%,0%);stroke-opacity:1;stroke-miterlimit:10;" d="M 109.785156 330.785156 L 109.785156 373.214844 L 152.214844 373.214844 L 152.214844 330.785156 L 109.785156 330.785156 "/>
<path style="fill-rule:nonzero;fill:rgb(53%,27%,7%);fill-opacity:1;stroke-width:1;stroke-linecap:butt;stroke-linejoin:miter;stroke:rgb(0%,0%,0%);stroke-opacity:1;stroke-miterlimit:10;" d="M 711.785156 195.785156 L 711.785156 238.214844 L 754.214844 238.214844 L 754.214844 195.785156 L 711.785156 195.785156 "/>
<path style="fill-rule:nonzero;fill:rgb(53%,27%,7%);fill-opacity:1;stroke-width:1;stroke-linecap:butt;stroke-linejoin:miter;stroke:rgb(0%,0%,0%);stroke-opacity:1;stroke-miterlimit:10;" d="M 878.785156 137.785156 L 878.785156 180.214844 L 921.214844 180.214844 L 921.214844 137.785156 L 878.785156 137.785156 "/>
<path style="fill-rule:nonzero;fill:rgb(53%,27%,7%);fill-opacity:1;stroke-width:1;stroke-linecap:butt;stroke-linejoin:miter;stroke:rgb(0%,0%,0%);stroke-opacity:1;stroke-miterlimit:10;" d="M 1029.214844 84 C 1029.214844 95.714844 1019.714844 105.214844 1008 105.214844 C 996.285156 105.214844 986.785156 95.714844 986.785156 84 C 986.785156 72.285156 996.285156 62.785156 1008 62.785156 C 1019.714844 62.785156 1029.214844 72.285156 1029.214844 84 "/>
<path style="fill-rule:nonzero;fill:rgb(53%,27%,7%);fill-opacity:1;stroke-width:1;stroke-linecap:butt;stroke-linejoin:miter;stroke:rgb(0%,0%,0%);stroke-opacity:1;stroke-miterlimit:10;" d="M 775.214844 375 C 775.214844 386.714844 765.714844 396.214844 754 396.214844 C 742.285156 396.214844 732.785156 386.714844 732.785156 375 C 732.785156 363.285156 742.285156 353.785156 754 353.785156 C 765.714844 353.785156 775.214844 363.285156 775.214844 375 "/>
<path style="fill-rule:nonzero;fill:rgb(53%,27%,7%);fill-opacity:1;stroke-width:1;stroke-linecap:butt;stroke-linejoin:miter;stroke:rgb(0%,0%,0%);stroke-opacity:1;stroke-miterlimit:10;" d="M 964.785156 274.785156 L 964.785156 317.214844 L 1007.214844 317.214844 L 1007.214844 274.785156 L 964.785156 274.785156 "/>
</g>
</svg>
