<?xml version="1.0" encoding="UTF-8"?>
<svg xmlns="http://www.w3.org/2000/svg" xmlns:xlink="http://www.w3.org/1999/xlink" width="1179pt" height="517pt" viewBox="0 0 1179 517" version="1.1">
<g id="surface576">
<rect x="0" y="0" width="1179" height="517" style="fill:rgb(90%,90%,90%);fill-opacity:1;stroke:none;"/>
<path style="fill-rule:nonzero;fill:rgb(35%,70%,90%);fill-opacity:1;stroke-width:1;stroke-linecap:butt;stroke-linejoin:miter;stroke:rgb(0%,0%,0%);stroke-opacity:1;stroke-miterlimit:10;" d="M 803 307 L 832.664062 307 L 844.664062 278.785156 L 856.664062 307 L 886.332031 307 L 862.332031 324.4375 L 870.417969 355.980469 L 844.664062 338.542969 L 818.914062 355.980469 L 831.214844 324.4375 L 803 307 "/>
<path style="fill-rule:nonzero;fill:rgb(35%,70%,90%);fill-opacity:1;stroke-width:1;stroke-linecap:butt;stroke-linejoin:miter;stroke:rgb(0%,0%,0%);stroke-opacity:1;stroke-miterlimit:10;" d="M 649 97 L 678.664062 97 L 690.664062 68.785156 L 702.664062 97 L 732.332031 97 L 708.332031 114.4375 L 716.417969 145.980469 L 690.664062 128.542969 L 664.914062 145.980469 L 677.214844 114.4375 L 649 97 "/>
<path style="fill-rule:nonzero;fill:rgb(35%,70%,90%);fill-opacity:1;stroke-width:1;stroke-linecap:butt;stroke-linejoin:miter;stroke:rgb(0%,0%,0%);stroke-opacity:1;stroke-miterlimit:10;" d="M 664 305 L 693.664062 305 L 705.664062 276.785156 L 717.664062 305 L 747.332031 305 L 723.332031 322.4375 L 731.417969 353.980469 L 705.664062 336.542969 L 679.914062 353.980469 L 692.214844 322.4375 L 664 305 "/>
<path style="fill-rule:nonzero;fill:rgb(35%,70%,90%);fill-opacity:1;stroke-width:1;stroke-linecap:butt;stroke-linejoin:miter;stroke:rgb(0%,0%,0%);stroke-opacity:1;stroke-miterlimit:10;" d="M 998 404 L 1027.664062 404 L 1039.664062 375.785156 L 1051.664062 404 L 1081.332031 404 L 1057.332031 421.4375 L 1065.417969 452.980469 L 1039.664062 435.542969 L 1013.914062 452.980469 L 1026.214844 421.4375 L 998 404 "/>
<path style="fill-rule:nonzero;fill:rgb(53%,27%,7%);fill-opacity:1;stroke-width:1;stroke-linecap:butt;stroke-linejoin:miter;stroke:rgb(0%,0%,0%);stroke-opacity:1;stroke-miterlimit:10;" d="M 281 108 L 255.019531 153 L 306.980469 153 L 281 108 "/>
<path style="fill-rule:nonzero;fill:rgb(53%,27%,7%);fill-opacity:1;stroke-width:1;stroke-linecap:butt;stroke-linejoin:miter;stroke:rgb(0%,0%,0%);stroke-opacity:1;stroke-miterlimit:10;" d="M 137 399 L 111.019531 444 L 162.980469 444 L 137 399 "/>
<path style="fill-rule:nonzero;fill:rgb(53%,27%,7%);fill-opacity:1;stroke-width:1;stroke-linecap:butt;stroke-linejoin:miter;stroke:rgb(0%,0%,0%);stroke-opacity:1;stroke-miterlimit:10;" d="M 314 396 L 288.019531 441 L 339.980469 441 L 314 396 "/>
<path style="fill-rule:nonzero;fill:rgb(53%,27%,7%);fill-opacity:1;stroke-width:1;stroke-linecap:butt;stroke-linejoin:miter;stroke:rgb(0%,0%,0%);stroke-opacity:1;stroke-miterlimit:10;" d="M 542 209 L 516.019531 254 L 567.980469 254 L 542 209 "/>
<path style="fill-rule:nonzero;fill:rgb(53%,27%,7%);fill-opacity:1;stroke-width:1;stroke-linecap:butt;stroke-linejoin:miter;stroke:rgb(0%,0%,0%);stroke-opacity:1;stroke-miterlimit:10;" d="M 85 179 L 59.019531 224 L 110.980469 224 L 85 179 "/>
</g>
</svg>
