<?xml version="1.0" encoding="UTF-8"?>
<svg xmlns="http://www.w3.org/2000/svg" xmlns:xlink="http://www.w3.org/1999/xlink" width="1179pt" height="517pt" viewBox="0 0 1179 517" version="1.1">
<g id="surface821">
<rect x="0" y="0" width="1179" height="517" style="fill:rgb(90%,90%,90%);fill-opacity:1;stroke:none;"/>
<path style="fill-rule:nonzero;fill:rgb(35%,70%,90%);fill-opacity:1;stroke-width:1;stroke-linecap:butt;stroke-linejoin:miter;stroke:rgb(0%,0%,0%);stroke-opacity:1;stroke-miterlimit:10;" d="M 594 338 L 623.664062 338 L 635.664062 309.785156 L 647.664062 338 L 677.332031 338 L 653.332031 355.4375 L 661.417969 386.980469 L 635.664062 369.542969 L 609.914062 386.980469 L 622.214844 355.4375 L 594 338 "/>
<path style="fill-rule:nonzero;fill:rgb(35%,70%,90%);fill-opacity:1;stroke-width:1;stroke-linecap:butt;stroke-linejoin:miter;stroke:rgb(0%,0%,0%);stroke-opacity:1;stroke-miterlimit:10;" d="M 435 176 L 464.664062 176 L 476.664062 147.785156 L 488.664062 176 L 518.332031 176 L 494.332031 193.4375 L 502.417969 224.980469 L 476.664062 207.542969 L 450.914062 224.980469 L 463.214844 193.4375 L 435 176 "/>
<path style="fill-rule:nonzero;fill:rgb(35%,70%,90%);fill-opacity:1;stroke-width:1;stroke-linecap:butt;stroke-linejoin:miter;stroke:rgb(0%,0%,0%);stroke-opacity:1;stroke-miterlimit:10;" d="M 981 80 L 1010.664062 80 L 1022.664062 51.785156 L 1034.664062 80 L 1064.332031 80 L 1040.332031 97.4375 L 1048.417969 128.980469 L 1022.664062 111.542969 L 996.914062 128.980469 L 1009.214844 97.4375 L 981 80 "/>
<path style="fill-rule:nonzero;fill:rgb(35%,70%,90%);fill-opacity:1;stroke-width:1;stroke-linecap:butt;stroke-linejoin:miter;stroke:rgb(0%,0%,0%);stroke-opacity:1;stroke-miterlimit:10;" d="M 231 350 L 260.664062 350 L 272.664062 321.785156 L 284.664062 350 L 314.332031 350 L 290.332031 367.4375 L 298.417969 398.980469 L 272.664062 381.542969 L 246.914062 398.980469 L 259.214844 367.4375 L 231 350 "/>
<path style="fill-rule:nonzero;fill:rgb(55%,51%,53%);fill-opacity:1;stroke-width:1;stroke-linecap:butt;stroke-linejoin:miter;stroke:rgb(0%,0%,0%);stroke-opacity:1;stroke-miterlimit:10;" d="M 841.214844 372 C 841.214844 383.714844 831.714844 393.214844 820 393.214844 C 808.285156 393.214844 798.785156 383.714844 798.785156 372 C 798.785156 360.285156 808.285156 350.785156 820 350.785156 C 831.714844 350.785156 841.214844 360.285156 841.214844 372 "/>
<path style="fill-rule:nonzero;fill:rgb(55%,51%,53%);fill-opacity:1;stroke-width:1;stroke-linecap:butt;stroke-linejoin:miter;stroke:rgb(0%,0%,0%);stroke-opacity:1;stroke-miterlimit:10;" d="M 208.214844 87 C 208.214844 98.714844 198.714844 108.214844 187 108.214844 C 175.285156 108.214844 165.785156 98.714844 165.785156 87 C 165.785156 75.285156 175.285156 65.785156 187 65.785156 C 198.714844 65.785156 208.214844 75.285156 208.214844 87 "/>
<path style="fill-rule:nonzero;fill:rgb(55%,51%,53%);fill-opacity:1;stroke-width:1;stroke-linecap:butt;stroke-linejoin:miter;stroke:rgb(0%,0%,0%);stroke-opacity:1;stroke-miterlimit:10;" d="M 376.214844 299 C 376.214844 310.714844 366.714844 320.214844 355 320.214844 C 343.285156 320.214844 333.785156 310.714844 333.785156 299 C 333.785156 287.285156 343.285156 277.785156 355 277.785156 C 366.714844 277.785156 376.214844 287.285156 376.214844 299 "/>
<path style="fill-rule:nonzero;fill:rgb(55%,51%,53%);fill-opacity:1;stroke-width:1;stroke-linecap:butt;stroke-linejoin:miter;stroke:rgb(0%,0%,0%);stroke-opacity:1;stroke-miterlimit:10;" d="M 1053.214844 215 C 1053.214844 226.714844 1043.714844 236.214844 1032 236.214844 C 1020.285156 236.214844 1010.785156 226.714844 1010.785156 215 C 1010.785156 203.285156 1020.285156 193.785156 1032 193.785156 C 1043.714844 193.785156 1053.214844 203.285156 1053.214844 215 "/>
<path style="fill-rule:nonzero;fill:rgb(55%,51%,53%);fill-opacity:1;stroke-width:1;stroke-linecap:butt;stroke-linejoin:miter;stroke:rgb(0%,0%,0%);stroke-opacity:1;stroke-miterlimit:10;" d="M 897.214844 170 C 897.214844 181.714844 887.714844 191.214844 876 191.214844 C 864.285156 191.214844 854.785156 181.714844 854.785156 170 C 854.785156 158.285156 864.285156 148.785156 876 148.785156 C 887.714844 148.785156 897.214844 158.285156 897.214844 170 "/>
</g>
</svg>
