<?xml version="1.0" encoding="UTF-8"?>
<svg xmlns="http://www.w3.org/2000/svg" xmlns:xlink="http://www.w3.org/1999/xlink" width="1179pt" height="517pt" viewBox="0 0 1179 517" version="1.1">
<g id="surface431">
<rect x="0" y="0" width="1179" height="517" style="fill:rgb(90%,90%,90%);fill-opacity:1;stroke:none;"/>
<path style="fill-rule:nonzero;fill:rgb(35%,70%,90%);fill-opacity:1;stroke-width:1;stroke-linecap:butt;stroke-linejoin:miter;stroke:rgb(0%,0%,0%);stroke-opacity:1;stroke-miterlimit:10;" d="M 328 166 L 357.664062 166 L 369.664062 137.785156 L 381.664062 166 L 411.332031 166 L 387.332031 183.4375 L 395.417969 214.980469 L 369.664062 197.542969 L 343.914062 214.980469 L 356.214844 183.4375 L 328 166 "/>
<path style="fill-rule:nonzero;fill:rgb(35%,70%,90%);fill-opacity:1;stroke-width:1;stroke-linecap:butt;stroke-linejoin:miter;stroke:rgb(0%,0%,0%);stroke-opacity:1;stroke-miterlimit:10;" d="M 173 148 L 202.664062 148 L 214.664062 119.785156 L 226.664062 148 L 256.332031 148 L 232.332031 165.4375 L 240.417969 196.980469 L 214.664062 179.542969 L 188.914062 196.980469 L 201.214844 165.4375 L 173 148 "/>
<path style="fill-rule:nonzero;fill:rgb(35%,70%,90%);fill-opacity:1;stroke-width:1;stroke-linecap:butt;stroke-linejoin:miter;stroke:rgb(0%,0%,0%);stroke-opacity:1;stroke-miterlimit:10;" d="M 189.785156 217.785156 L 189.785156 260.214844 L 232.214844 260.214844 L 232.214844 217.785156 L 189.785156 217.785156 "/>
<path style="fill-rule:nonzero;fill:rgb(55%,51%,53%);fill-opacity:1;stroke-width:1;stroke-linecap:butt;stroke-linejoin:miter;stroke:rgb(0%,0%,0%);stroke-opacity:1;stroke-miterlimit:10;" d="M 1011.785156 71.785156 L 1011.785156 114.214844 L 1054.214844 114.214844 L 1054.214844 71.785156 L 1011.785156 71.785156 "/>
<path style="fill-rule:nonzero;fill:rgb(55%,51%,53%);fill-opacity:1;stroke-width:1;stroke-linecap:butt;stroke-linejoin:miter;stroke:rgb(0%,0%,0%);stroke-opacity:1;stroke-miterlimit:10;" d="M 905.785156 344.785156 L 905.785156 387.214844 L 948.214844 387.214844 L 948.214844 344.785156 L 905.785156 344.785156 "/>
<path style="fill-rule:nonzero;fill:rgb(55%,51%,53%);fill-opacity:1;stroke-width:1;stroke-linecap:butt;stroke-linejoin:miter;stroke:rgb(0%,0%,0%);stroke-opacity:1;stroke-miterlimit:10;" d="M 1043 346 L 1072.664062 346 L 1084.664062 317.785156 L 1096.664062 346 L 1126.332031 346 L 1102.332031 363.4375 L 1110.417969 394.980469 L 1084.664062 377.542969 L 1058.914062 394.980469 L 1071.214844 363.4375 L 1043 346 "/>
</g>
</svg>
