<?xml version="1.0" encoding="UTF-8"?>
<svg xmlns="http://www.w3.org/2000/svg" xmlns:xlink="http://www.w3.org/1999/xlink" width="1179pt" height="517pt" viewBox="0 0 1179 517" version="1.1">
<g id="surface1056">
<rect x="0" y="0" width="1179" height="517" style="fill:rgb(90%,90%,90%);fill-opacity:1;stroke:none;"/>
<path style="fill-rule:nonzero;fill:rgb(35%,70%,90%);fill-opacity:1;stroke-width:1;stroke-linecap:butt;stroke-linejoin:miter;stroke:rgb(0%,0%,0%);stroke-opacity:1;stroke-miterlimit:10;" d="M 220 221 L 249.664062 221 L 261.664062 192.785156 L 273.664062 221 L 303.332031 221 L 279.332031 238.4375 L 287.417969 269.980469 L 261.664062 252.542969 L 235.914062 269.980469 L 248.214844 238.4375 L 220 221 "/>
<path style="fill-rule:nonzero;fill:rgb(35%,70%,90%);fill-opacity:1;stroke-width:1;stroke-linecap:butt;stroke-linejoin:miter;stroke:rgb(0%,0%,0%);stroke-opacity:1;stroke-miterlimit:10;" d="M 356 141 L 385.664062 141 L 397.664062 112.785156 L 409.664062 141 L 439.332031 141 L 415.332031 158.4375 L 423.417969 189.980469 L 397.664062 172.542969 L 371.914062 189.980469 L 384.214844 158.4375 L 356 141 "/>
<path style="fill-rule:nonzero;fill:rgb(35%,70%,90%);fill-opacity:1;stroke-width:1;stroke-linecap:butt;stroke-linejoin:miter;stroke:rgb(0%,0%,0%);stroke-opacity:1;stroke-miterlimit:10;" d="M 934 267 L 963.664062 267 L 975.664062 238.785156 L 987.664062 267 L 1017.332031 267 L 993.332031 284.4375 L 1001.417969 315.980469 L 975.664062 298.542969 L 949.914062 315.980469 L 962.214844 284.4375 L 934 267 "/>
<path style="fill-rule:nonzero;fill:rgb(100%,51%,0%);fill-opacity:1;stroke-width:1;stroke-linecap:butt;stroke-linejoin:miter;stroke:rgb(0%,0%,0%);stroke-opacity:1;stroke-miterlimit:10;" d="M 748 403.601562 C 748 389.199219 724 389.199219 724 403.601562 C 724 418 748 420.398438 748 432.398438 C 748 420.398438 772 418 772 403.601562 C 772 389.199219 748 389.199219 748 403.601562 "/>
<path style="fill-rule:nonzero;fill:rgb(100%,51%,0%);fill-opacity:1;stroke-width:1;stroke-linecap:butt;stroke-linejoin:miter;stroke:rgb(0%,0%,0%);stroke-opacity:1;stroke-miterlimit:10;" d="M 844 65.601562 C 844 51.199219 820 51.199219 820 65.601562 C 820 80 844 82.398438 844 94.398438 C 844 82.398438 868 80 868 65.601562 C 868 51.199219 844 51.199219 844 65.601562 "/>
<path style="fill-rule:nonzero;fill:rgb(100%,51%,0%);fill-opacity:1;stroke-width:1;stroke-linecap:butt;stroke-linejoin:miter;stroke:rgb(0%,0%,0%);stroke-opacity:1;stroke-miterlimit:10;" d="M 180 325.601562 C 180 311.199219 156 311.199219 156 325.601562 C 156 340 180 342.398438 180 354.398438 C 180 342.398438 204 340 204 325.601562 C 204 311.199219 180 311.199219 180 325.601562 "/>
<path style="fill-rule:nonzero;fill:rgb(100%,51%,0%);fill-opacity:1;stroke-width:1;stroke-linecap:butt;stroke-linejoin:miter;stroke:rgb(0%,0%,0%);stroke-opacity:1;stroke-miterlimit:10;" d="M 548 322.601562 C 548 308.199219 524 308.199219 524 322.601562 C 524 337 548 339.398438 548 351.398438 C 548 339.398438 572 337 572 322.601562 C 572 308.199219 548 308.199219 548 322.601562 "/>
<path style="fill-rule:nonzero;fill:rgb(100%,51%,0%);fill-opacity:1;stroke-width:1;stroke-linecap:butt;stroke-linejoin:miter;stroke:rgb(0%,0%,0%);stroke-opacity:1;stroke-miterlimit:10;" d="M 639 226.601562 C 639 212.199219 615 212.199219 615 226.601562 C 615 241 639 243.398438 639 255.398438 C 639 243.398438 663 241 663 226.601562 C 663 212.199219 639 212.199219 639 226.601562 "/>
</g>
</svg>
