<?xml version="1.0" encoding="UTF-8"?>
<svg xmlns="http://www.w3.org/2000/svg" xmlns:xlink="http://www.w3.org/1999/xlink" width="1179pt" height="517pt" viewBox="0 0 1179 517" version="1.1">
<g id="surface886">
<rect x="0" y="0" width="1179" height="517" style="fill:rgb(90%,90%,90%);fill-opacity:1;stroke:none;"/>
<path style="fill-rule:nonzero;fill:rgb(55%,51%,53%);fill-opacity:1;stroke-width:1;stroke-linecap:butt;stroke-linejoin:miter;stroke:rgb(0%,0%,0%);stroke-opacity:1;stroke-miterlimit:10;" d="M 215.214844 319 C 215.214844 330.714844 205.714844 340.214844 194 340.214844 C 182.285156 340.214844 172.785156 330.714844 172.785156 319 C 172.785156 307.285156 182.285156 297.785156 194 297.785156 C 205.714844 297.785156 215.214844 307.285156 215.214844 319 "/>
<path style="fill-rule:nonzero;fill:rgb(55%,51%,53%);fill-opacity:1;stroke-width:1;stroke-linecap:butt;stroke-linejoin:miter;stroke:rgb(0%,0%,0%);stroke-opacity:1;stroke-miterlimit:10;" d="M 279.214844 173 C 279.214844 184.714844 269.714844 194.214844 258 194.214844 C 246.285156 194.214844 236.785156 184.714844 236.785156 173 C 236.785156 161.285156 246.285156 151.785156 258 151.785156 C 269.714844 151.785156 279.214844 161.285156 279.214844 173 "/>
<path style="fill-rule:nonzero;fill:rgb(55%,51%,53%);fill-opacity:1;stroke-width:1;stroke-linecap:butt;stroke-linejoin:miter;stroke:rgb(0%,0%,0%);stroke-opacity:1;stroke-miterlimit:10;" d="M 433.214844 106 C 433.214844 117.714844 423.714844 127.214844 412 127.214844 C 400.285156 127.214844 390.785156 117.714844 390.785156 106 C 390.785156 94.285156 400.285156 84.785156 412 84.785156 C 423.714844 84.785156 433.214844 94.285156 433.214844 106 "/>
<path style="fill-rule:nonzero;fill:rgb(67%,100%,18%);fill-opacity:1;stroke-width:1;stroke-linecap:butt;stroke-linejoin:miter;stroke:rgb(0%,0%,0%);stroke-opacity:1;stroke-miterlimit:10;" d="M 145.214844 195 C 145.214844 206.714844 135.714844 216.214844 124 216.214844 C 112.285156 216.214844 102.785156 206.714844 102.785156 195 C 102.785156 183.285156 112.285156 173.785156 124 173.785156 C 135.714844 173.785156 145.214844 183.285156 145.214844 195 "/>
<path style="fill-rule:nonzero;fill:rgb(55%,51%,53%);fill-opacity:1;stroke-width:1;stroke-linecap:butt;stroke-linejoin:miter;stroke:rgb(0%,0%,0%);stroke-opacity:1;stroke-miterlimit:10;" d="M 416.214844 254 C 416.214844 265.714844 406.714844 275.214844 395 275.214844 C 383.285156 275.214844 373.785156 265.714844 373.785156 254 C 373.785156 242.285156 383.285156 232.785156 395 232.785156 C 406.714844 232.785156 416.214844 242.285156 416.214844 254 "/>
<path style="fill-rule:nonzero;fill:rgb(67%,100%,18%);fill-opacity:1;stroke-width:1;stroke-linecap:butt;stroke-linejoin:miter;stroke:rgb(0%,0%,0%);stroke-opacity:1;stroke-miterlimit:10;" d="M 720 100 L 694.019531 145 L 745.980469 145 L 720 100 "/>
<path style="fill-rule:nonzero;fill:rgb(67%,100%,18%);fill-opacity:1;stroke-width:1;stroke-linecap:butt;stroke-linejoin:miter;stroke:rgb(0%,0%,0%);stroke-opacity:1;stroke-miterlimit:10;" d="M 787 282 L 761.019531 327 L 812.980469 327 L 787 282 "/>
<path style="fill-rule:nonzero;fill:rgb(67%,100%,18%);fill-opacity:1;stroke-width:1;stroke-linecap:butt;stroke-linejoin:miter;stroke:rgb(0%,0%,0%);stroke-opacity:1;stroke-miterlimit:10;" d="M 877 366 L 851.019531 411 L 902.980469 411 L 877 366 "/>
<path style="fill-rule:nonzero;fill:rgb(55%,51%,53%);fill-opacity:1;stroke-width:1;stroke-linecap:butt;stroke-linejoin:miter;stroke:rgb(0%,0%,0%);stroke-opacity:1;stroke-miterlimit:10;" d="M 954 143 L 928.019531 188 L 979.980469 188 L 954 143 "/>
</g>
</svg>
