<?xml version="1.0" encoding="UTF-8"?>
<svg xmlns="http://www.w3.org/2000/svg" xmlns:xlink="http://www.w3.org/1999/xlink" width="1179pt" height="517pt" viewBox="0 0 1179 517" version="1.1">
<g id="surface271">
<rect x="0" y="0" width="1179" height="517" style="fill:rgb(90%,90%,90%);fill-opacity:1;stroke:none;"/>
<path style="fill-rule:nonzero;fill:rgb(100%,51%,0%);fill-opacity:1;stroke-width:1;stroke-linecap:butt;stroke-linejoin:miter;stroke:rgb(0%,0%,0%);stroke-opacity:1;stroke-miterlimit:10;" d="M 865 288 L 894.664062 288 L 906.664062 259.785156 L 918.664062 288 L 948.332031 288 L 924.332031 305.4375 L 932.417969 336.980469 L 906.664062 319.542969 L 880.914062 336.980469 L 893.214844 305.4375 L 865 288 "/>
<path style="fill-rule:nonzero;fill:rgb(100%,51%,0%);fill-opacity:1;stroke-width:1;stroke-linecap:butt;stroke-linejoin:miter;stroke:rgb(0%,0%,0%);stroke-opacity:1;stroke-miterlimit:10;" d="M 1008 135 L 1037.664062 135 L 1049.664062 106.785156 L 1061.664062 135 L 1091.332031 135 L 1067.332031 152.4375 L 1075.417969 183.980469 L 1049.664062 166.542969 L 1023.914062 183.980469 L 1036.214844 152.4375 L 1008 135 "/>
<path style="fill-rule:nonzero;fill:rgb(100%,51%,0%);fill-opacity:1;stroke-width:1;stroke-linecap:butt;stroke-linejoin:miter;stroke:rgb(0%,0%,0%);stroke-opacity:1;stroke-miterlimit:10;" d="M 561 326 L 590.664062 326 L 602.664062 297.785156 L 614.664062 326 L 644.332031 326 L 620.332031 343.4375 L 628.417969 374.980469 L 602.664062 357.542969 L 576.914062 374.980469 L 589.214844 343.4375 L 561 326 "/>
<path style="fill-rule:nonzero;fill:rgb(53%,27%,7%);fill-opacity:1;stroke-width:1;stroke-linecap:butt;stroke-linejoin:miter;stroke:rgb(0%,0%,0%);stroke-opacity:1;stroke-miterlimit:10;" d="M 113.214844 103 C 113.214844 114.714844 103.714844 124.214844 92 124.214844 C 80.285156 124.214844 70.785156 114.714844 70.785156 103 C 70.785156 91.285156 80.285156 81.785156 92 81.785156 C 103.714844 81.785156 113.214844 91.285156 113.214844 103 "/>
<path style="fill-rule:nonzero;fill:rgb(53%,27%,7%);fill-opacity:1;stroke-width:1;stroke-linecap:butt;stroke-linejoin:miter;stroke:rgb(0%,0%,0%);stroke-opacity:1;stroke-miterlimit:10;" d="M 837.214844 172 C 837.214844 183.714844 827.714844 193.214844 816 193.214844 C 804.285156 193.214844 794.785156 183.714844 794.785156 172 C 794.785156 160.285156 804.285156 150.785156 816 150.785156 C 827.714844 150.785156 837.214844 160.285156 837.214844 172 "/>
<path style="fill-rule:nonzero;fill:rgb(53%,27%,7%);fill-opacity:1;stroke-width:1;stroke-linecap:butt;stroke-linejoin:miter;stroke:rgb(0%,0%,0%);stroke-opacity:1;stroke-miterlimit:10;" d="M 657.214844 87 C 657.214844 98.714844 647.714844 108.214844 636 108.214844 C 624.285156 108.214844 614.785156 98.714844 614.785156 87 C 614.785156 75.285156 624.285156 65.785156 636 65.785156 C 647.714844 65.785156 657.214844 75.285156 657.214844 87 "/>
<path style="fill-rule:nonzero;fill:rgb(53%,27%,7%);fill-opacity:1;stroke-width:1;stroke-linecap:butt;stroke-linejoin:miter;stroke:rgb(0%,0%,0%);stroke-opacity:1;stroke-miterlimit:10;" d="M 429.214844 348 C 429.214844 359.714844 419.714844 369.214844 408 369.214844 C 396.285156 369.214844 386.785156 359.714844 386.785156 348 C 386.785156 336.285156 396.285156 326.785156 408 326.785156 C 419.714844 326.785156 429.214844 336.285156 429.214844 348 "/>
<path style="fill-rule:nonzero;fill:rgb(53%,27%,7%);fill-opacity:1;stroke-width:1;stroke-linecap:butt;stroke-linejoin:miter;stroke:rgb(0%,0%,0%);stroke-opacity:1;stroke-miterlimit:10;" d="M 686.214844 233 C 686.214844 244.714844 676.714844 254.214844 665 254.214844 C 653.285156 254.214844 643.785156 244.714844 643.785156 233 C 643.785156 221.285156 653.285156 211.785156 665 211.785156 C 676.714844 211.785156 686.214844 221.285156 686.214844 233 "/>
</g>
</svg>
