<?xml version="1.0" encoding="UTF-8"?>
<svg xmlns="http://www.w3.org/2000/svg" xmlns:xlink="http://www.w3.org/1999/xlink" width="1179pt" height="517pt" viewBox="0 0 1179 517" version="1.1">
<g id="surface756">
<rect x="0" y="0" width="1179" height="517" style="fill:rgb(90%,90%,90%);fill-opacity:1;stroke:none;"/>
<path style="fill-rule:nonzero;fill:rgb(100%,0%,0%);fill-opacity:1;stroke-width:1;stroke-linecap:butt;stroke-linejoin:miter;stroke:rgb(0%,0%,0%);stroke-opacity:1;stroke-miterlimit:10;" d="M 996 380.601562 C 996 366.199219 972 366.199219 972 380.601562 C 972 395 996 397.398438 996 409.398438 C 996 397.398438 1020 395 1020 380.601562 C 1020 366.199219 996 366.199219 996 380.601562 "/>
<path style="fill-rule:nonzero;fill:rgb(100%,0%,0%);fill-opacity:1;stroke-width:1;stroke-linecap:butt;stroke-linejoin:miter;stroke:rgb(0%,0%,0%);stroke-opacity:1;stroke-miterlimit:10;" d="M 223 107.601562 C 223 93.199219 199 93.199219 199 107.601562 C 199 122 223 124.398438 223 136.398438 C 223 124.398438 247 122 247 107.601562 C 247 93.199219 223 93.199219 223 107.601562 "/>
<path style="fill-rule:nonzero;fill:rgb(100%,0%,0%);fill-opacity:1;stroke-width:1;stroke-linecap:butt;stroke-linejoin:miter;stroke:rgb(0%,0%,0%);stroke-opacity:1;stroke-miterlimit:10;" d="M 133 323.601562 C 133 309.199219 109 309.199219 109 323.601562 C 109 338 133 340.398438 133 352.398438 C 133 340.398438 157 338 157 323.601562 C 157 309.199219 133 309.199219 133 323.601562 "/>
<path style="fill-rule:nonzero;fill:rgb(100%,0%,0%);fill-opacity:1;stroke-width:1;stroke-linecap:butt;stroke-linejoin:miter;stroke:rgb(0%,0%,0%);stroke-opacity:1;stroke-miterlimit:10;" d="M 961 174.601562 C 961 160.199219 937 160.199219 937 174.601562 C 937 189 961 191.398438 961 203.398438 C 961 191.398438 985 189 985 174.601562 C 985 160.199219 961 160.199219 961 174.601562 "/>
<path style="fill-rule:nonzero;fill:rgb(0%,0%,0%);fill-opacity:1;stroke-width:1;stroke-linecap:butt;stroke-linejoin:miter;stroke:rgb(0%,0%,0%);stroke-opacity:1;stroke-miterlimit:10;" d="M 302 404 L 282 404 L 282 414 L 302 414 L 302 434 L 312 434 L 312 414 L 332 414 L 332 404 L 312 404 L 312 384 L 302 384 L 302 404 "/>
<path style="fill-rule:nonzero;fill:rgb(0%,0%,0%);fill-opacity:1;stroke-width:1;stroke-linecap:butt;stroke-linejoin:miter;stroke:rgb(0%,0%,0%);stroke-opacity:1;stroke-miterlimit:10;" d="M 673 102 L 653 102 L 653 112 L 673 112 L 673 132 L 683 132 L 683 112 L 703 112 L 703 102 L 683 102 L 683 82 L 673 82 L 673 102 "/>
<path style="fill-rule:nonzero;fill:rgb(0%,0%,0%);fill-opacity:1;stroke-width:1;stroke-linecap:butt;stroke-linejoin:miter;stroke:rgb(0%,0%,0%);stroke-opacity:1;stroke-miterlimit:10;" d="M 329 236 L 309 236 L 309 246 L 329 246 L 329 266 L 339 266 L 339 246 L 359 246 L 359 236 L 339 236 L 339 216 L 329 216 L 329 236 "/>
</g>
</svg>
