<?xml version="1.0" encoding="UTF-8"?>
<svg xmlns="http://www.w3.org/2000/svg" xmlns:xlink="http://www.w3.org/1999/xlink" width="1179pt" height="517pt" viewBox="0 0 1179 517" version="1.1">
<g id="surface1141">
<rect x="0" y="0" width="1179" height="517" style="fill:rgb(90%,90%,90%);fill-opacity:1;stroke:none;"/>
<path style="fill-rule:nonzero;fill:rgb(53%,27%,7%);fill-opacity:1;stroke-width:1;stroke-linecap:butt;stroke-linejoin:miter;stroke:rgb(0%,0%,0%);stroke-opacity:1;stroke-miterlimit:10;" d="M 104.214844 237 C 104.214844 248.714844 94.714844 258.214844 83 258.214844 C 71.285156 258.214844 61.785156 248.714844 61.785156 237 C 61.785156 225.285156 71.285156 215.785156 83 215.785156 C 94.714844 215.785156 104.214844 225.285156 104.214844 237 "/>
<path style="fill-rule:nonzero;fill:rgb(53%,27%,7%);fill-opacity:1;stroke-width:1;stroke-linecap:butt;stroke-linejoin:miter;stroke:rgb(0%,0%,0%);stroke-opacity:1;stroke-miterlimit:10;" d="M 651.214844 324 C 651.214844 335.714844 641.714844 345.214844 630 345.214844 C 618.285156 345.214844 608.785156 335.714844 608.785156 324 C 608.785156 312.285156 618.285156 302.785156 630 302.785156 C 641.714844 302.785156 651.214844 312.285156 651.214844 324 "/>
<path style="fill-rule:nonzero;fill:rgb(53%,27%,7%);fill-opacity:1;stroke-width:1;stroke-linecap:butt;stroke-linejoin:miter;stroke:rgb(0%,0%,0%);stroke-opacity:1;stroke-miterlimit:10;" d="M 385.214844 402 C 385.214844 413.714844 375.714844 423.214844 364 423.214844 C 352.285156 423.214844 342.785156 413.714844 342.785156 402 C 342.785156 390.285156 352.285156 380.785156 364 380.785156 C 375.714844 380.785156 385.214844 390.285156 385.214844 402 "/>
<path style="fill-rule:nonzero;fill:rgb(53%,27%,7%);fill-opacity:1;stroke-width:1;stroke-linecap:butt;stroke-linejoin:miter;stroke:rgb(0%,0%,0%);stroke-opacity:1;stroke-miterlimit:10;" d="M 262.214844 342 C 262.214844 353.714844 252.714844 363.214844 241 363.214844 C 229.285156 363.214844 219.785156 353.714844 219.785156 342 C 219.785156 330.285156 229.285156 320.785156 241 320.785156 C 252.714844 320.785156 262.214844 330.285156 262.214844 342 "/>
<path style="fill-rule:nonzero;fill:rgb(55%,51%,53%);fill-opacity:1;stroke-width:1;stroke-linecap:butt;stroke-linejoin:miter;stroke:rgb(0%,0%,0%);stroke-opacity:1;stroke-miterlimit:10;" d="M 853 383 L 827.019531 428 L 878.980469 428 L 853 383 "/>
<path style="fill-rule:nonzero;fill:rgb(55%,51%,53%);fill-opacity:1;stroke-width:1;stroke-linecap:butt;stroke-linejoin:miter;stroke:rgb(0%,0%,0%);stroke-opacity:1;stroke-miterlimit:10;" d="M 900 176 L 874.019531 221 L 925.980469 221 L 900 176 "/>
<path style="fill-rule:nonzero;fill:rgb(55%,51%,53%);fill-opacity:1;stroke-width:1;stroke-linecap:butt;stroke-linejoin:miter;stroke:rgb(0%,0%,0%);stroke-opacity:1;stroke-miterlimit:10;" d="M 466 68 L 440.019531 113 L 491.980469 113 L 466 68 "/>
</g>
</svg>
