<?xml version="1.0" encoding="UTF-8"?>
<svg xmlns="http://www.w3.org/2000/svg" xmlns:xlink="http://www.w3.org/1999/xlink" width="1179pt" height="517pt" viewBox="0 0 1179 517" version="1.1">
<g id="surface1056">
<rect x="0" y="0" width="1179" height="517" style="fill:rgb(90%,90%,90%);fill-opacity:1;stroke:none;"/>
<path style="fill-rule:nonzero;fill:rgb(35%,70%,90%);fill-opacity:1;stroke-width:1;stroke-linecap:butt;stroke-linejoin:miter;stroke:rgb(0%,0%,0%);stroke-opacity:1;stroke-miterlimit:10;" d="M 94 310 L 123.664062 310 L 135.664062 281.785156 L 147.664062 310 L 177.332031 310 L 153.332031 327.4375 L 161.417969 358.980469 L 135.664062 341.542969 L 109.914062 358.980469 L 122.214844 327.4375 L 94 310 "/>
<path style="fill-rule:nonzero;fill:rgb(35%,70%,90%);fill-opacity:1;stroke-width:1;stroke-linecap:butt;stroke-linejoin:miter;stroke:rgb(0%,0%,0%);stroke-opacity:1;stroke-miterlimit:10;" d="M 629 273 L 658.664062 273 L 670.664062 244.785156 L 682.664062 273 L 712.332031 273 L 688.332031 290.4375 L 696.417969 321.980469 L 670.664062 304.542969 L 644.914062 321.980469 L 657.214844 290.4375 L 629 273 "/>
<path style="fill-rule:nonzero;fill:rgb(35%,70%,90%);fill-opacity:1;stroke-width:1;stroke-linecap:butt;stroke-linejoin:miter;stroke:rgb(0%,0%,0%);stroke-opacity:1;stroke-miterlimit:10;" d="M 270 116 L 299.664062 116 L 311.664062 87.785156 L 323.664062 116 L 353.332031 116 L 329.332031 133.4375 L 337.417969 164.980469 L 311.664062 147.542969 L 285.914062 164.980469 L 298.214844 133.4375 L 270 116 "/>
<path style="fill-rule:nonzero;fill:rgb(100%,51%,0%);fill-opacity:1;stroke-width:1;stroke-linecap:butt;stroke-linejoin:miter;stroke:rgb(0%,0%,0%);stroke-opacity:1;stroke-miterlimit:10;" d="M 307 412.601562 C 307 398.199219 283 398.199219 283 412.601562 C 283 427 307 429.398438 307 441.398438 C 307 429.398438 331 427 331 412.601562 C 331 398.199219 307 398.199219 307 412.601562 "/>
<path style="fill-rule:nonzero;fill:rgb(100%,51%,0%);fill-opacity:1;stroke-width:1;stroke-linecap:butt;stroke-linejoin:miter;stroke:rgb(0%,0%,0%);stroke-opacity:1;stroke-miterlimit:10;" d="M 1035 391.601562 C 1035 377.199219 1011 377.199219 1011 391.601562 C 1011 406 1035 408.398438 1035 420.398438 C 1035 408.398438 1059 406 1059 391.601562 C 1059 377.199219 1035 377.199219 1035 391.601562 "/>
<path style="fill-rule:nonzero;fill:rgb(100%,51%,0%);fill-opacity:1;stroke-width:1;stroke-linecap:butt;stroke-linejoin:miter;stroke:rgb(0%,0%,0%);stroke-opacity:1;stroke-miterlimit:10;" d="M 422 234.601562 C 422 220.199219 398 220.199219 398 234.601562 C 398 249 422 251.398438 422 263.398438 C 422 251.398438 446 249 446 234.601562 C 446 220.199219 422 220.199219 422 234.601562 "/>
<path style="fill-rule:nonzero;fill:rgb(100%,51%,0%);fill-opacity:1;stroke-width:1;stroke-linecap:butt;stroke-linejoin:miter;stroke:rgb(0%,0%,0%);stroke-opacity:1;stroke-miterlimit:10;" d="M 736 85.601562 C 736 71.199219 712 71.199219 712 85.601562 C 712 100 736 102.398438 736 114.398438 C 736 102.398438 760 100 760 85.601562 C 760 71.199219 736 71.199219 736 85.601562 "/>
<path style="fill-rule:nonzero;fill:rgb(100%,51%,0%);fill-opacity:1;stroke-width:1;stroke-linecap:butt;stroke-linejoin:miter;stroke:rgb(0%,0%,0%);stroke-opacity:1;stroke-miterlimit:10;" d="M 503 374.601562 C 503 360.199219 479 360.199219 479 374.601562 C 479 389 503 391.398438 503 403.398438 C 503 391.398438 527 389 527 374.601562 C 527 360.199219 503 360.199219 503 374.601562 "/>
</g>
</svg>
