<?xml version="1.0" encoding="UTF-8"?>
<svg xmlns="http://www.w3.org/2000/svg" xmlns:xlink="http://www.w3.org/1999/xlink" width="1179pt" height="517pt" viewBox="0 0 1179 517" version="1.1">
<g id="surface1491">
<rect x="0" y="0" width="1179" height="517" style="fill:rgb(90%,90%,90%);fill-opacity:1;stroke:none;"/>
<path style="fill-rule:nonzero;fill:rgb(100%,51%,0%);fill-opacity:1;stroke-width:1;stroke-linecap:butt;stroke-linejoin:miter;stroke:rgb(0%,0%,0%);stroke-opacity:1;stroke-miterlimit:10;" d="M 746 111 L 775.664062 111 L 787.664062 82.785156 L 799.664062 111 L 829.332031 111 L 805.332031 128.4375 L 813.417969 159.980469 L 787.664062 142.542969 L 761.914062 159.980469 L 774.214844 128.4375 L 746 111 "/>
<path style="fill-rule:nonzero;fill:rgb(100%,51%,0%);fill-opacity:1;stroke-width:1;stroke-linecap:butt;stroke-linejoin:miter;stroke:rgb(0%,0%,0%);stroke-opacity:1;stroke-miterlimit:10;" d="M 174 209 L 203.664062 209 L 215.664062 180.785156 L 227.664062 209 L 257.332031 209 L 233.332031 226.4375 L 241.417969 257.980469 L 215.664062 240.542969 L 189.914062 257.980469 L 202.214844 226.4375 L 174 209 "/>
<path style="fill-rule:nonzero;fill:rgb(100%,51%,0%);fill-opacity:1;stroke-width:1;stroke-linecap:butt;stroke-linejoin:miter;stroke:rgb(0%,0%,0%);stroke-opacity:1;stroke-miterlimit:10;" d="M 938 84 L 967.664062 84 L 979.664062 55.785156 L 991.664062 84 L 1021.332031 84 L 997.332031 101.4375 L 1005.417969 132.980469 L 979.664062 115.542969 L 953.914062 132.980469 L 966.214844 101.4375 L 938 84 "/>
<path style="fill-rule:nonzero;fill:rgb(100%,51%,0%);fill-opacity:1;stroke-width:1;stroke-linecap:butt;stroke-linejoin:miter;stroke:rgb(0%,0%,0%);stroke-opacity:1;stroke-miterlimit:10;" d="M 619 206 L 648.664062 206 L 660.664062 177.785156 L 672.664062 206 L 702.332031 206 L 678.332031 223.4375 L 686.417969 254.980469 L 660.664062 237.542969 L 634.914062 254.980469 L 647.214844 223.4375 L 619 206 "/>
<path style="fill-rule:nonzero;fill:rgb(55%,51%,53%);fill-opacity:1;stroke-width:1;stroke-linecap:butt;stroke-linejoin:miter;stroke:rgb(0%,0%,0%);stroke-opacity:1;stroke-miterlimit:10;" d="M 570.214844 353 C 570.214844 364.714844 560.714844 374.214844 549 374.214844 C 537.285156 374.214844 527.785156 364.714844 527.785156 353 C 527.785156 341.285156 537.285156 331.785156 549 331.785156 C 560.714844 331.785156 570.214844 341.285156 570.214844 353 "/>
<path style="fill-rule:nonzero;fill:rgb(55%,51%,53%);fill-opacity:1;stroke-width:1;stroke-linecap:butt;stroke-linejoin:miter;stroke:rgb(0%,0%,0%);stroke-opacity:1;stroke-miterlimit:10;" d="M 889.214844 253 C 889.214844 264.714844 879.714844 274.214844 868 274.214844 C 856.285156 274.214844 846.785156 264.714844 846.785156 253 C 846.785156 241.285156 856.285156 231.785156 868 231.785156 C 879.714844 231.785156 889.214844 241.285156 889.214844 253 "/>
<path style="fill-rule:nonzero;fill:rgb(55%,51%,53%);fill-opacity:1;stroke-width:1;stroke-linecap:butt;stroke-linejoin:miter;stroke:rgb(0%,0%,0%);stroke-opacity:1;stroke-miterlimit:10;" d="M 113.214844 85 C 113.214844 96.714844 103.714844 106.214844 92 106.214844 C 80.285156 106.214844 70.785156 96.714844 70.785156 85 C 70.785156 73.285156 80.285156 63.785156 92 63.785156 C 103.714844 63.785156 113.214844 73.285156 113.214844 85 "/>
<path style="fill-rule:nonzero;fill:rgb(55%,51%,53%);fill-opacity:1;stroke-width:1;stroke-linecap:butt;stroke-linejoin:miter;stroke:rgb(0%,0%,0%);stroke-opacity:1;stroke-miterlimit:10;" d="M 166.214844 365 C 166.214844 376.714844 156.714844 386.214844 145 386.214844 C 133.285156 386.214844 123.785156 376.714844 123.785156 365 C 123.785156 353.285156 133.285156 343.785156 145 343.785156 C 156.714844 343.785156 166.214844 353.285156 166.214844 365 "/>
<path style="fill-rule:nonzero;fill:rgb(55%,51%,53%);fill-opacity:1;stroke-width:1;stroke-linecap:butt;stroke-linejoin:miter;stroke:rgb(0%,0%,0%);stroke-opacity:1;stroke-miterlimit:10;" d="M 701.214844 418 C 701.214844 429.714844 691.714844 439.214844 680 439.214844 C 668.285156 439.214844 658.785156 429.714844 658.785156 418 C 658.785156 406.285156 668.285156 396.785156 680 396.785156 C 691.714844 396.785156 701.214844 406.285156 701.214844 418 "/>
</g>
</svg>
