<?xml version="1.0" encoding="UTF-8"?>
<svg xmlns="http://www.w3.org/2000/svg" xmlns:xlink="http://www.w3.org/1999/xlink" width="1179pt" height="517pt" viewBox="0 0 1179 517" version="1.1">
<g id="surface346">
<rect x="0" y="0" width="1179" height="517" style="fill:rgb(90%,90%,90%);fill-opacity:1;stroke:none;"/>
<path style="fill-rule:nonzero;fill:rgb(55%,51%,53%);fill-opacity:1;stroke-width:1;stroke-linecap:butt;stroke-linejoin:miter;stroke:rgb(0%,0%,0%);stroke-opacity:1;stroke-miterlimit:10;" d="M 271.214844 333 C 271.214844 344.714844 261.714844 354.214844 250 354.214844 C 238.285156 354.214844 228.785156 344.714844 228.785156 333 C 228.785156 321.285156 238.285156 311.785156 250 311.785156 C 261.714844 311.785156 271.214844 321.285156 271.214844 333 "/>
<path style="fill-rule:nonzero;fill:rgb(53%,27%,7%);fill-opacity:1;stroke-width:1;stroke-linecap:butt;stroke-linejoin:miter;stroke:rgb(0%,0%,0%);stroke-opacity:1;stroke-miterlimit:10;" d="M 289.214844 157 C 289.214844 168.714844 279.714844 178.214844 268 178.214844 C 256.285156 178.214844 246.785156 168.714844 246.785156 157 C 246.785156 145.285156 256.285156 135.785156 268 135.785156 C 279.714844 135.785156 289.214844 145.285156 289.214844 157 "/>
<path style="fill-rule:nonzero;fill:rgb(53%,27%,7%);fill-opacity:1;stroke-width:1;stroke-linecap:butt;stroke-linejoin:miter;stroke:rgb(0%,0%,0%);stroke-opacity:1;stroke-miterlimit:10;" d="M 419.214844 239 C 419.214844 250.714844 409.714844 260.214844 398 260.214844 C 386.285156 260.214844 376.785156 250.714844 376.785156 239 C 376.785156 227.285156 386.285156 217.785156 398 217.785156 C 409.714844 217.785156 419.214844 227.285156 419.214844 239 "/>
<path style="fill-rule:nonzero;fill:rgb(55%,51%,53%);fill-opacity:1;stroke-width:1;stroke-linecap:butt;stroke-linejoin:miter;stroke:rgb(0%,0%,0%);stroke-opacity:1;stroke-miterlimit:10;" d="M 439.214844 388 C 439.214844 399.714844 429.714844 409.214844 418 409.214844 C 406.285156 409.214844 396.785156 399.714844 396.785156 388 C 396.785156 376.285156 406.285156 366.785156 418 366.785156 C 429.714844 366.785156 439.214844 376.285156 439.214844 388 "/>
<path style="fill-rule:nonzero;fill:rgb(55%,51%,53%);fill-opacity:1;stroke-width:1;stroke-linecap:butt;stroke-linejoin:miter;stroke:rgb(0%,0%,0%);stroke-opacity:1;stroke-miterlimit:10;" d="M 284.214844 423 C 284.214844 434.714844 274.714844 444.214844 263 444.214844 C 251.285156 444.214844 241.785156 434.714844 241.785156 423 C 241.785156 411.285156 251.285156 401.785156 263 401.785156 C 274.714844 401.785156 284.214844 411.285156 284.214844 423 "/>
<path style="fill-rule:nonzero;fill:rgb(55%,51%,53%);fill-opacity:1;stroke-width:1;stroke-linecap:butt;stroke-linejoin:miter;stroke:rgb(0%,0%,0%);stroke-opacity:1;stroke-miterlimit:10;" d="M 149.214844 100 C 149.214844 111.714844 139.714844 121.214844 128 121.214844 C 116.285156 121.214844 106.785156 111.714844 106.785156 100 C 106.785156 88.285156 116.285156 78.785156 128 78.785156 C 139.714844 78.785156 149.214844 88.285156 149.214844 100 "/>
<path style="fill-rule:nonzero;fill:rgb(55%,51%,53%);fill-opacity:1;stroke-width:1;stroke-linecap:butt;stroke-linejoin:miter;stroke:rgb(0%,0%,0%);stroke-opacity:1;stroke-miterlimit:10;" d="M 149.214844 197 C 149.214844 208.714844 139.714844 218.214844 128 218.214844 C 116.285156 218.214844 106.785156 208.714844 106.785156 197 C 106.785156 185.285156 116.285156 175.785156 128 175.785156 C 139.714844 175.785156 149.214844 185.285156 149.214844 197 "/>
<path style="fill-rule:nonzero;fill:rgb(55%,51%,53%);fill-opacity:1;stroke-width:1;stroke-linecap:butt;stroke-linejoin:miter;stroke:rgb(0%,0%,0%);stroke-opacity:1;stroke-miterlimit:10;" d="M 351.214844 85 C 351.214844 96.714844 341.714844 106.214844 330 106.214844 C 318.285156 106.214844 308.785156 96.714844 308.785156 85 C 308.785156 73.285156 318.285156 63.785156 330 63.785156 C 341.714844 63.785156 351.214844 73.285156 351.214844 85 "/>
<path style="fill-rule:nonzero;fill:rgb(53%,27%,7%);fill-opacity:1;stroke-width:1;stroke-linecap:butt;stroke-linejoin:miter;stroke:rgb(0%,0%,0%);stroke-opacity:1;stroke-miterlimit:10;" d="M 795 282 L 769.019531 327 L 820.980469 327 L 795 282 "/>
<path style="fill-rule:nonzero;fill:rgb(55%,51%,53%);fill-opacity:1;stroke-width:1;stroke-linecap:butt;stroke-linejoin:miter;stroke:rgb(0%,0%,0%);stroke-opacity:1;stroke-miterlimit:10;" d="M 771 94 L 745.019531 139 L 796.980469 139 L 771 94 "/>
<path style="fill-rule:nonzero;fill:rgb(55%,51%,53%);fill-opacity:1;stroke-width:1;stroke-linecap:butt;stroke-linejoin:miter;stroke:rgb(0%,0%,0%);stroke-opacity:1;stroke-miterlimit:10;" d="M 933 217 L 907.019531 262 L 958.980469 262 L 933 217 "/>
<path style="fill-rule:nonzero;fill:rgb(53%,27%,7%);fill-opacity:1;stroke-width:1;stroke-linecap:butt;stroke-linejoin:miter;stroke:rgb(0%,0%,0%);stroke-opacity:1;stroke-miterlimit:10;" d="M 742 402 L 716.019531 447 L 767.980469 447 L 742 402 "/>
</g>
</svg>
