<?xml version="1.0" encoding="UTF-8"?>
<svg xmlns="http://www.w3.org/2000/svg" xmlns:xlink="http://www.w3.org/1999/xlink" width="1179pt" height="517pt" viewBox="0 0 1179 517" version="1.1">
<g id="surface1106">
<rect x="0" y="0" width="1179" height="517" style="fill:rgb(90%,90%,90%);fill-opacity:1;stroke:none;"/>
<path style="fill-rule:nonzero;fill:rgb(55%,51%,53%);fill-opacity:1;stroke-width:1;stroke-linecap:butt;stroke-linejoin:miter;stroke:rgb(0%,0%,0%);stroke-opacity:1;stroke-miterlimit:10;" d="M 439 348.601562 C 439 334.199219 415 334.199219 415 348.601562 C 415 363 439 365.398438 439 377.398438 C 439 365.398438 463 363 463 348.601562 C 463 334.199219 439 334.199219 439 348.601562 "/>
<path style="fill-rule:nonzero;fill:rgb(55%,51%,53%);fill-opacity:1;stroke-width:1;stroke-linecap:butt;stroke-linejoin:miter;stroke:rgb(0%,0%,0%);stroke-opacity:1;stroke-miterlimit:10;" d="M 595 416.601562 C 595 402.199219 571 402.199219 571 416.601562 C 571 431 595 433.398438 595 445.398438 C 595 433.398438 619 431 619 416.601562 C 619 402.199219 595 402.199219 595 416.601562 "/>
<path style="fill-rule:nonzero;fill:rgb(55%,51%,53%);fill-opacity:1;stroke-width:1;stroke-linecap:butt;stroke-linejoin:miter;stroke:rgb(0%,0%,0%);stroke-opacity:1;stroke-miterlimit:10;" d="M 698 278.601562 C 698 264.199219 674 264.199219 674 278.601562 C 674 293 698 295.398438 698 307.398438 C 698 295.398438 722 293 722 278.601562 C 722 264.199219 698 264.199219 698 278.601562 "/>
<path style="fill-rule:nonzero;fill:rgb(55%,51%,53%);fill-opacity:1;stroke-width:1;stroke-linecap:butt;stroke-linejoin:miter;stroke:rgb(0%,0%,0%);stroke-opacity:1;stroke-miterlimit:10;" d="M 928 332.601562 C 928 318.199219 904 318.199219 904 332.601562 C 904 347 928 349.398438 928 361.398438 C 928 349.398438 952 347 952 332.601562 C 952 318.199219 928 318.199219 928 332.601562 "/>
<path style="fill-rule:nonzero;fill:rgb(53%,27%,7%);fill-opacity:1;stroke-width:1;stroke-linecap:butt;stroke-linejoin:miter;stroke:rgb(0%,0%,0%);stroke-opacity:1;stroke-miterlimit:10;" d="M 962 198 L 991.664062 198 L 1003.664062 169.785156 L 1015.664062 198 L 1045.332031 198 L 1021.332031 215.4375 L 1029.417969 246.980469 L 1003.664062 229.542969 L 977.914062 246.980469 L 990.214844 215.4375 L 962 198 "/>
<path style="fill-rule:nonzero;fill:rgb(53%,27%,7%);fill-opacity:1;stroke-width:1;stroke-linecap:butt;stroke-linejoin:miter;stroke:rgb(0%,0%,0%);stroke-opacity:1;stroke-miterlimit:10;" d="M 224 279 L 253.664062 279 L 265.664062 250.785156 L 277.664062 279 L 307.332031 279 L 283.332031 296.4375 L 291.417969 327.980469 L 265.664062 310.542969 L 239.914062 327.980469 L 252.214844 296.4375 L 224 279 "/>
<path style="fill-rule:nonzero;fill:rgb(53%,27%,7%);fill-opacity:1;stroke-width:1;stroke-linecap:butt;stroke-linejoin:miter;stroke:rgb(0%,0%,0%);stroke-opacity:1;stroke-miterlimit:10;" d="M 418 199 L 447.664062 199 L 459.664062 170.785156 L 471.664062 199 L 501.332031 199 L 477.332031 216.4375 L 485.417969 247.980469 L 459.664062 230.542969 L 433.914062 247.980469 L 446.214844 216.4375 L 418 199 "/>
<path style="fill-rule:nonzero;fill:rgb(53%,27%,7%);fill-opacity:1;stroke-width:1;stroke-linecap:butt;stroke-linejoin:miter;stroke:rgb(0%,0%,0%);stroke-opacity:1;stroke-miterlimit:10;" d="M 164 154 L 193.664062 154 L 205.664062 125.785156 L 217.664062 154 L 247.332031 154 L 223.332031 171.4375 L 231.417969 202.980469 L 205.664062 185.542969 L 179.914062 202.980469 L 192.214844 171.4375 L 164 154 "/>
</g>
</svg>
