<?xml version="1.0" encoding="UTF-8"?>
<svg xmlns="http://www.w3.org/2000/svg" xmlns:xlink="http://www.w3.org/1999/xlink" width="1179pt" height="517pt" viewBox="0 0 1179 517" version="1.1">
<g id="surface81">
<rect x="0" y="0" width="1179" height="517" style="fill:rgb(90%,90%,90%);fill-opacity:1;stroke:none;"/>
<path style="fill-rule:nonzero;fill:rgb(35%,70%,90%);fill-opacity:1;stroke-width:1;stroke-linecap:butt;stroke-linejoin:miter;stroke:rgb(0%,0%,0%);stroke-opacity:1;stroke-miterlimit:10;" d="M 120.214844 161 C 120.214844 172.714844 110.714844 182.214844 99 182.214844 C 87.285156 182.214844 77.785156 172.714844 77.785156 161 C 77.785156 149.285156 87.285156 139.785156 99 139.785156 C 110.714844 139.785156 120.214844 149.285156 120.214844 161 "/>
<path style="fill-rule:nonzero;fill:rgb(55%,51%,53%);fill-opacity:1;stroke-width:1;stroke-linecap:butt;stroke-linejoin:miter;stroke:rgb(0%,0%,0%);stroke-opacity:1;stroke-miterlimit:10;" d="M 134.214844 297 C 134.214844 308.714844 124.714844 318.214844 113 318.214844 C 101.285156 318.214844 91.785156 308.714844 91.785156 297 C 91.785156 285.285156 101.285156 275.785156 113 275.785156 C 124.714844 275.785156 134.214844 285.285156 134.214844 297 "/>
<path style="fill-rule:nonzero;fill:rgb(35%,70%,90%);fill-opacity:1;stroke-width:1;stroke-linecap:butt;stroke-linejoin:miter;stroke:rgb(0%,0%,0%);stroke-opacity:1;stroke-miterlimit:10;" d="M 223.214844 357 C 223.214844 368.714844 213.714844 378.214844 202 378.214844 C 190.285156 378.214844 180.785156 368.714844 180.785156 357 C 180.785156 345.285156 190.285156 335.785156 202 335.785156 C 213.714844 335.785156 223.214844 345.285156 223.214844 357 "/>
<path style="fill-rule:nonzero;fill:rgb(35%,70%,90%);fill-opacity:1;stroke-width:1;stroke-linecap:butt;stroke-linejoin:miter;stroke:rgb(0%,0%,0%);stroke-opacity:1;stroke-miterlimit:10;" d="M 328.214844 289 C 328.214844 300.714844 318.714844 310.214844 307 310.214844 C 295.285156 310.214844 285.785156 300.714844 285.785156 289 C 285.785156 277.285156 295.285156 267.785156 307 267.785156 C 318.714844 267.785156 328.214844 277.285156 328.214844 289 "/>
<path style="fill-rule:nonzero;fill:rgb(55%,51%,53%);fill-opacity:1;stroke-width:1;stroke-linecap:butt;stroke-linejoin:miter;stroke:rgb(0%,0%,0%);stroke-opacity:1;stroke-miterlimit:10;" d="M 887.785156 271.785156 L 887.785156 314.214844 L 930.214844 314.214844 L 930.214844 271.785156 L 887.785156 271.785156 "/>
<path style="fill-rule:nonzero;fill:rgb(35%,70%,90%);fill-opacity:1;stroke-width:1;stroke-linecap:butt;stroke-linejoin:miter;stroke:rgb(0%,0%,0%);stroke-opacity:1;stroke-miterlimit:10;" d="M 1004.785156 106.785156 L 1004.785156 149.214844 L 1047.214844 149.214844 L 1047.214844 106.785156 L 1004.785156 106.785156 "/>
<path style="fill-rule:nonzero;fill:rgb(55%,51%,53%);fill-opacity:1;stroke-width:1;stroke-linecap:butt;stroke-linejoin:miter;stroke:rgb(0%,0%,0%);stroke-opacity:1;stroke-miterlimit:10;" d="M 1003.785156 296.785156 L 1003.785156 339.214844 L 1046.214844 339.214844 L 1046.214844 296.785156 L 1003.785156 296.785156 "/>
</g>
</svg>
