<?xml version="1.0" encoding="UTF-8"?>
<svg xmlns="http://www.w3.org/2000/svg" xmlns:xlink="http://www.w3.org/1999/xlink" width="1179pt" height="517pt" viewBox="0 0 1179 517" version="1.1">
<g id="surface1061">
<rect x="0" y="0" width="1179" height="517" style="fill:rgb(90%,90%,90%);fill-opacity:1;stroke:none;"/>
<path style="fill-rule:nonzero;fill:rgb(55%,51%,53%);fill-opacity:1;stroke-width:1;stroke-linecap:butt;stroke-linejoin:miter;stroke:rgb(0%,0%,0%);stroke-opacity:1;stroke-miterlimit:10;" d="M 529.214844 199 C 529.214844 210.714844 519.714844 220.214844 508 220.214844 C 496.285156 220.214844 486.785156 210.714844 486.785156 199 C 486.785156 187.285156 496.285156 177.785156 508 177.785156 C 519.714844 177.785156 529.214844 187.285156 529.214844 199 "/>
<path style="fill-rule:nonzero;fill:rgb(55%,51%,53%);fill-opacity:1;stroke-width:1;stroke-linecap:butt;stroke-linejoin:miter;stroke:rgb(0%,0%,0%);stroke-opacity:1;stroke-miterlimit:10;" d="M 752.214844 135 C 752.214844 146.714844 742.714844 156.214844 731 156.214844 C 719.285156 156.214844 709.785156 146.714844 709.785156 135 C 709.785156 123.285156 719.285156 113.785156 731 113.785156 C 742.714844 113.785156 752.214844 123.285156 752.214844 135 "/>
<path style="fill-rule:nonzero;fill:rgb(55%,51%,53%);fill-opacity:1;stroke-width:1;stroke-linecap:butt;stroke-linejoin:miter;stroke:rgb(0%,0%,0%);stroke-opacity:1;stroke-miterlimit:10;" d="M 551.214844 394 C 551.214844 405.714844 541.714844 415.214844 530 415.214844 C 518.285156 415.214844 508.785156 405.714844 508.785156 394 C 508.785156 382.285156 518.285156 372.785156 530 372.785156 C 541.714844 372.785156 551.214844 382.285156 551.214844 394 "/>
<path style="fill-rule:nonzero;fill:rgb(55%,51%,53%);fill-opacity:1;stroke-width:1;stroke-linecap:butt;stroke-linejoin:miter;stroke:rgb(0%,0%,0%);stroke-opacity:1;stroke-miterlimit:10;" d="M 319.214844 280 C 319.214844 291.714844 309.714844 301.214844 298 301.214844 C 286.285156 301.214844 276.785156 291.714844 276.785156 280 C 276.785156 268.285156 286.285156 258.785156 298 258.785156 C 309.714844 258.785156 319.214844 268.285156 319.214844 280 "/>
<path style="fill-rule:nonzero;fill:rgb(35%,70%,90%);fill-opacity:1;stroke-width:1;stroke-linecap:butt;stroke-linejoin:miter;stroke:rgb(0%,0%,0%);stroke-opacity:1;stroke-miterlimit:10;" d="M 888 264 L 862.019531 309 L 913.980469 309 L 888 264 "/>
<path style="fill-rule:nonzero;fill:rgb(35%,70%,90%);fill-opacity:1;stroke-width:1;stroke-linecap:butt;stroke-linejoin:miter;stroke:rgb(0%,0%,0%);stroke-opacity:1;stroke-miterlimit:10;" d="M 319 52 L 293.019531 97 L 344.980469 97 L 319 52 "/>
<path style="fill-rule:nonzero;fill:rgb(35%,70%,90%);fill-opacity:1;stroke-width:1;stroke-linecap:butt;stroke-linejoin:miter;stroke:rgb(0%,0%,0%);stroke-opacity:1;stroke-miterlimit:10;" d="M 646 260 L 620.019531 305 L 671.980469 305 L 646 260 "/>
</g>
</svg>
