<?xml version="1.0" encoding="UTF-8"?>
<svg xmlns="http://www.w3.org/2000/svg" xmlns:xlink="http://www.w3.org/1999/xlink" width="1179pt" height="517pt" viewBox="0 0 1179 517" version="1.1">
<g id="surface836">
<rect x="0" y="0" width="1179" height="517" style="fill:rgb(90%,90%,90%);fill-opacity:1;stroke:none;"/>
<path style="fill-rule:nonzero;fill:rgb(35%,70%,90%);fill-opacity:1;stroke-width:1;stroke-linecap:butt;stroke-linejoin:miter;stroke:rgb(0%,0%,0%);stroke-opacity:1;stroke-miterlimit:10;" d="M 825.214844 424 C 825.214844 435.714844 815.714844 445.214844 804 445.214844 C 792.285156 445.214844 782.785156 435.714844 782.785156 424 C 782.785156 412.285156 792.285156 402.785156 804 402.785156 C 815.714844 402.785156 825.214844 412.285156 825.214844 424 "/>
<path style="fill-rule:nonzero;fill:rgb(35%,70%,90%);fill-opacity:1;stroke-width:1;stroke-linecap:butt;stroke-linejoin:miter;stroke:rgb(0%,0%,0%);stroke-opacity:1;stroke-miterlimit:10;" d="M 423.214844 239 C 423.214844 250.714844 413.714844 260.214844 402 260.214844 C 390.285156 260.214844 380.785156 250.714844 380.785156 239 C 380.785156 227.285156 390.285156 217.785156 402 217.785156 C 413.714844 217.785156 423.214844 227.285156 423.214844 239 "/>
<path style="fill-rule:nonzero;fill:rgb(35%,70%,90%);fill-opacity:1;stroke-width:1;stroke-linecap:butt;stroke-linejoin:miter;stroke:rgb(0%,0%,0%);stroke-opacity:1;stroke-miterlimit:10;" d="M 280.214844 305 C 280.214844 316.714844 270.714844 326.214844 259 326.214844 C 247.285156 326.214844 237.785156 316.714844 237.785156 305 C 237.785156 293.285156 247.285156 283.785156 259 283.785156 C 270.714844 283.785156 280.214844 293.285156 280.214844 305 "/>
<path style="fill-rule:nonzero;fill:rgb(35%,70%,90%);fill-opacity:1;stroke-width:1;stroke-linecap:butt;stroke-linejoin:miter;stroke:rgb(0%,0%,0%);stroke-opacity:1;stroke-miterlimit:10;" d="M 255.214844 165 C 255.214844 176.714844 245.714844 186.214844 234 186.214844 C 222.285156 186.214844 212.785156 176.714844 212.785156 165 C 212.785156 153.285156 222.285156 143.785156 234 143.785156 C 245.714844 143.785156 255.214844 153.285156 255.214844 165 "/>
<path style="fill-rule:nonzero;fill:rgb(35%,70%,90%);fill-opacity:1;stroke-width:1;stroke-linecap:butt;stroke-linejoin:miter;stroke:rgb(0%,0%,0%);stroke-opacity:1;stroke-miterlimit:10;" d="M 609.214844 347 C 609.214844 358.714844 599.714844 368.214844 588 368.214844 C 576.285156 368.214844 566.785156 358.714844 566.785156 347 C 566.785156 335.285156 576.285156 325.785156 588 325.785156 C 599.714844 325.785156 609.214844 335.285156 609.214844 347 "/>
<path style="fill-rule:nonzero;fill:rgb(35%,70%,90%);fill-opacity:1;stroke-width:1;stroke-linecap:butt;stroke-linejoin:miter;stroke:rgb(0%,0%,0%);stroke-opacity:1;stroke-miterlimit:10;" d="M 452 395 L 481.664062 395 L 493.664062 366.785156 L 505.664062 395 L 535.332031 395 L 511.332031 412.4375 L 519.417969 443.980469 L 493.664062 426.542969 L 467.914062 443.980469 L 480.214844 412.4375 L 452 395 "/>
<path style="fill-rule:nonzero;fill:rgb(35%,70%,90%);fill-opacity:1;stroke-width:1;stroke-linecap:butt;stroke-linejoin:miter;stroke:rgb(0%,0%,0%);stroke-opacity:1;stroke-miterlimit:10;" d="M 719 115 L 748.664062 115 L 760.664062 86.785156 L 772.664062 115 L 802.332031 115 L 778.332031 132.4375 L 786.417969 163.980469 L 760.664062 146.542969 L 734.914062 163.980469 L 747.214844 132.4375 L 719 115 "/>
<path style="fill-rule:nonzero;fill:rgb(35%,70%,90%);fill-opacity:1;stroke-width:1;stroke-linecap:butt;stroke-linejoin:miter;stroke:rgb(0%,0%,0%);stroke-opacity:1;stroke-miterlimit:10;" d="M 857 275 L 886.664062 275 L 898.664062 246.785156 L 910.664062 275 L 940.332031 275 L 916.332031 292.4375 L 924.417969 323.980469 L 898.664062 306.542969 L 872.914062 323.980469 L 885.214844 292.4375 L 857 275 "/>
</g>
</svg>
