<?xml version="1.0" encoding="UTF-8"?>
<svg xmlns="http://www.w3.org/2000/svg" xmlns:xlink="http://www.w3.org/1999/xlink" width="1179pt" height="517pt" viewBox="0 0 1179 517" version="1.1">
<g id="surface1111">
<rect x="0" y="0" width="1179" height="517" style="fill:rgb(90%,90%,90%);fill-opacity:1;stroke:none;"/>
<path style="fill-rule:nonzero;fill:rgb(100%,51%,0%);fill-opacity:1;stroke-width:1;stroke-linecap:butt;stroke-linejoin:miter;stroke:rgb(0%,0%,0%);stroke-opacity:1;stroke-miterlimit:10;" d="M 886 231 L 915.664062 231 L 927.664062 202.785156 L 939.664062 231 L 969.332031 231 L 945.332031 248.4375 L 953.417969 279.980469 L 927.664062 262.542969 L 901.914062 279.980469 L 914.214844 248.4375 L 886 231 "/>
<path style="fill-rule:nonzero;fill:rgb(100%,51%,0%);fill-opacity:1;stroke-width:1;stroke-linecap:butt;stroke-linejoin:miter;stroke:rgb(0%,0%,0%);stroke-opacity:1;stroke-miterlimit:10;" d="M 221 156 L 250.664062 156 L 262.664062 127.785156 L 274.664062 156 L 304.332031 156 L 280.332031 173.4375 L 288.417969 204.980469 L 262.664062 187.542969 L 236.914062 204.980469 L 249.214844 173.4375 L 221 156 "/>
<path style="fill-rule:nonzero;fill:rgb(100%,51%,0%);fill-opacity:1;stroke-width:1;stroke-linecap:butt;stroke-linejoin:miter;stroke:rgb(0%,0%,0%);stroke-opacity:1;stroke-miterlimit:10;" d="M 423 407 L 452.664062 407 L 464.664062 378.785156 L 476.664062 407 L 506.332031 407 L 482.332031 424.4375 L 490.417969 455.980469 L 464.664062 438.542969 L 438.914062 455.980469 L 451.214844 424.4375 L 423 407 "/>
<path style="fill-rule:nonzero;fill:rgb(100%,51%,0%);fill-opacity:1;stroke-width:1;stroke-linecap:butt;stroke-linejoin:miter;stroke:rgb(0%,0%,0%);stroke-opacity:1;stroke-miterlimit:10;" d="M 197 377 L 226.664062 377 L 238.664062 348.785156 L 250.664062 377 L 280.332031 377 L 256.332031 394.4375 L 264.417969 425.980469 L 238.664062 408.542969 L 212.914062 425.980469 L 225.214844 394.4375 L 197 377 "/>
<path style="fill-rule:nonzero;fill:rgb(100%,51%,0%);fill-opacity:1;stroke-width:1;stroke-linecap:butt;stroke-linejoin:miter;stroke:rgb(0%,0%,0%);stroke-opacity:1;stroke-miterlimit:10;" d="M 82 429 L 111.664062 429 L 123.664062 400.785156 L 135.664062 429 L 165.332031 429 L 141.332031 446.4375 L 149.417969 477.980469 L 123.664062 460.542969 L 97.914062 477.980469 L 110.214844 446.4375 L 82 429 "/>
<path style="fill-rule:nonzero;fill:rgb(35%,70%,90%);fill-opacity:1;stroke-width:1;stroke-linecap:butt;stroke-linejoin:miter;stroke:rgb(0%,0%,0%);stroke-opacity:1;stroke-miterlimit:10;" d="M 934 53 L 908.019531 98 L 959.980469 98 L 934 53 "/>
<path style="fill-rule:nonzero;fill:rgb(35%,70%,90%);fill-opacity:1;stroke-width:1;stroke-linecap:butt;stroke-linejoin:miter;stroke:rgb(0%,0%,0%);stroke-opacity:1;stroke-miterlimit:10;" d="M 399 102 L 373.019531 147 L 424.980469 147 L 399 102 "/>
<path style="fill-rule:nonzero;fill:rgb(35%,70%,90%);fill-opacity:1;stroke-width:1;stroke-linecap:butt;stroke-linejoin:miter;stroke:rgb(0%,0%,0%);stroke-opacity:1;stroke-miterlimit:10;" d="M 611 59 L 585.019531 104 L 636.980469 104 L 611 59 "/>
</g>
</svg>
