<?xml version="1.0" encoding="UTF-8"?>
<svg xmlns="http://www.w3.org/2000/svg" xmlns:xlink="http://www.w3.org/1999/xlink" width="1179pt" height="517pt" viewBox="0 0 1179 517" version="1.1">
<g id="surface741">
<rect x="0" y="0" width="1179" height="517" style="fill:rgb(90%,90%,90%);fill-opacity:1;stroke:none;"/>
<path style="fill-rule:nonzero;fill:rgb(100%,51%,0%);fill-opacity:1;stroke-width:1;stroke-linecap:butt;stroke-linejoin:miter;stroke:rgb(0%,0%,0%);stroke-opacity:1;stroke-miterlimit:10;" d="M 270.214844 205 C 270.214844 216.714844 260.714844 226.214844 249 226.214844 C 237.285156 226.214844 227.785156 216.714844 227.785156 205 C 227.785156 193.285156 237.285156 183.785156 249 183.785156 C 260.714844 183.785156 270.214844 193.285156 270.214844 205 "/>
<path style="fill-rule:nonzero;fill:rgb(35%,70%,90%);fill-opacity:1;stroke-width:1;stroke-linecap:butt;stroke-linejoin:miter;stroke:rgb(0%,0%,0%);stroke-opacity:1;stroke-miterlimit:10;" d="M 373 426 L 402.664062 426 L 414.664062 397.785156 L 426.664062 426 L 456.332031 426 L 432.332031 443.4375 L 440.417969 474.980469 L 414.664062 457.542969 L 388.914062 474.980469 L 401.214844 443.4375 L 373 426 "/>
<path style="fill-rule:nonzero;fill:rgb(35%,70%,90%);fill-opacity:1;stroke-width:1;stroke-linecap:butt;stroke-linejoin:miter;stroke:rgb(0%,0%,0%);stroke-opacity:1;stroke-miterlimit:10;" d="M 295 304 L 324.664062 304 L 336.664062 275.785156 L 348.664062 304 L 378.332031 304 L 354.332031 321.4375 L 362.417969 352.980469 L 336.664062 335.542969 L 310.914062 352.980469 L 323.214844 321.4375 L 295 304 "/>
<path style="fill-rule:nonzero;fill:rgb(100%,51%,0%);fill-opacity:1;stroke-width:1;stroke-linecap:butt;stroke-linejoin:miter;stroke:rgb(0%,0%,0%);stroke-opacity:1;stroke-miterlimit:10;" d="M 161.214844 300 C 161.214844 311.714844 151.714844 321.214844 140 321.214844 C 128.285156 321.214844 118.785156 311.714844 118.785156 300 C 118.785156 288.285156 128.285156 278.785156 140 278.785156 C 151.714844 278.785156 161.214844 288.285156 161.214844 300 "/>
<path style="fill-rule:nonzero;fill:rgb(35%,70%,90%);fill-opacity:1;stroke-width:1;stroke-linecap:butt;stroke-linejoin:miter;stroke:rgb(0%,0%,0%);stroke-opacity:1;stroke-miterlimit:10;" d="M 143 143 L 172.664062 143 L 184.664062 114.785156 L 196.664062 143 L 226.332031 143 L 202.332031 160.4375 L 210.417969 191.980469 L 184.664062 174.542969 L 158.914062 191.980469 L 171.214844 160.4375 L 143 143 "/>
<path style="fill-rule:nonzero;fill:rgb(35%,70%,90%);fill-opacity:1;stroke-width:1;stroke-linecap:butt;stroke-linejoin:miter;stroke:rgb(0%,0%,0%);stroke-opacity:1;stroke-miterlimit:10;" d="M 860 257 L 889.664062 257 L 901.664062 228.785156 L 913.664062 257 L 943.332031 257 L 919.332031 274.4375 L 927.417969 305.980469 L 901.664062 288.542969 L 875.914062 305.980469 L 888.214844 274.4375 L 860 257 "/>
<path style="fill-rule:nonzero;fill:rgb(100%,51%,0%);fill-opacity:1;stroke-width:1;stroke-linecap:butt;stroke-linejoin:miter;stroke:rgb(0%,0%,0%);stroke-opacity:1;stroke-miterlimit:10;" d="M 847.214844 370 C 847.214844 381.714844 837.714844 391.214844 826 391.214844 C 814.285156 391.214844 804.785156 381.714844 804.785156 370 C 804.785156 358.285156 814.285156 348.785156 826 348.785156 C 837.714844 348.785156 847.214844 358.285156 847.214844 370 "/>
<path style="fill-rule:nonzero;fill:rgb(100%,51%,0%);fill-opacity:1;stroke-width:1;stroke-linecap:butt;stroke-linejoin:miter;stroke:rgb(0%,0%,0%);stroke-opacity:1;stroke-miterlimit:10;" d="M 946.214844 84 C 946.214844 95.714844 936.714844 105.214844 925 105.214844 C 913.285156 105.214844 903.785156 95.714844 903.785156 84 C 903.785156 72.285156 913.285156 62.785156 925 62.785156 C 936.714844 62.785156 946.214844 72.285156 946.214844 84 "/>
<path style="fill-rule:nonzero;fill:rgb(100%,51%,0%);fill-opacity:1;stroke-width:1;stroke-linecap:butt;stroke-linejoin:miter;stroke:rgb(0%,0%,0%);stroke-opacity:1;stroke-miterlimit:10;" d="M 724.214844 324 C 724.214844 335.714844 714.714844 345.214844 703 345.214844 C 691.285156 345.214844 681.785156 335.714844 681.785156 324 C 681.785156 312.285156 691.285156 302.785156 703 302.785156 C 714.714844 302.785156 724.214844 312.285156 724.214844 324 "/>
<path style="fill-rule:nonzero;fill:rgb(100%,51%,0%);fill-opacity:1;stroke-width:1;stroke-linecap:butt;stroke-linejoin:miter;stroke:rgb(0%,0%,0%);stroke-opacity:1;stroke-miterlimit:10;" d="M 849.214844 148 C 849.214844 159.714844 839.714844 169.214844 828 169.214844 C 816.285156 169.214844 806.785156 159.714844 806.785156 148 C 806.785156 136.285156 816.285156 126.785156 828 126.785156 C 839.714844 126.785156 849.214844 136.285156 849.214844 148 "/>
<path style="fill-rule:nonzero;fill:rgb(100%,51%,0%);fill-opacity:1;stroke-width:1;stroke-linecap:butt;stroke-linejoin:miter;stroke:rgb(0%,0%,0%);stroke-opacity:1;stroke-miterlimit:10;" d="M 1029.214844 429 C 1029.214844 440.714844 1019.714844 450.214844 1008 450.214844 C 996.285156 450.214844 986.785156 440.714844 986.785156 429 C 986.785156 417.285156 996.285156 407.785156 1008 407.785156 C 1019.714844 407.785156 1029.214844 417.285156 1029.214844 429 "/>
<path style="fill-rule:nonzero;fill:rgb(35%,70%,90%);fill-opacity:1;stroke-width:1;stroke-linecap:butt;stroke-linejoin:miter;stroke:rgb(0%,0%,0%);stroke-opacity:1;stroke-miterlimit:10;" d="M 944 197 L 973.664062 197 L 985.664062 168.785156 L 997.664062 197 L 1027.332031 197 L 1003.332031 214.4375 L 1011.417969 245.980469 L 985.664062 228.542969 L 959.914062 245.980469 L 972.214844 214.4375 L 944 197 "/>
<path style="fill-rule:nonzero;fill:rgb(35%,70%,90%);fill-opacity:1;stroke-width:1;stroke-linecap:butt;stroke-linejoin:miter;stroke:rgb(0%,0%,0%);stroke-opacity:1;stroke-miterlimit:10;" d="M 922 359 L 951.664062 359 L 963.664062 330.785156 L 975.664062 359 L 1005.332031 359 L 981.332031 376.4375 L 989.417969 407.980469 L 963.664062 390.542969 L 937.914062 407.980469 L 950.214844 376.4375 L 922 359 "/>
</g>
</svg>
