<?xml version="1.0" encoding="UTF-8"?>
<svg xmlns="http://www.w3.org/2000/svg" xmlns:xlink="http://www.w3.org/1999/xlink" width="1179pt" height="517pt" viewBox="0 0 1179 517" version="1.1">
<g id="surface1236">
<rect x="0" y="0" width="1179" height="517" style="fill:rgb(90%,90%,90%);fill-opacity:1;stroke:none;"/>
<path style="fill-rule:nonzero;fill:rgb(35%,70%,90%);fill-opacity:1;stroke-width:1;stroke-linecap:butt;stroke-linejoin:miter;stroke:rgb(0%,0%,0%);stroke-opacity:1;stroke-miterlimit:10;" d="M 203 308 L 232.664062 308 L 244.664062 279.785156 L 256.664062 308 L 286.332031 308 L 262.332031 325.4375 L 270.417969 356.980469 L 244.664062 339.542969 L 218.914062 356.980469 L 231.214844 325.4375 L 203 308 "/>
<path style="fill-rule:nonzero;fill:rgb(35%,70%,90%);fill-opacity:1;stroke-width:1;stroke-linecap:butt;stroke-linejoin:miter;stroke:rgb(0%,0%,0%);stroke-opacity:1;stroke-miterlimit:10;" d="M 291 174 L 320.664062 174 L 332.664062 145.785156 L 344.664062 174 L 374.332031 174 L 350.332031 191.4375 L 358.417969 222.980469 L 332.664062 205.542969 L 306.914062 222.980469 L 319.214844 191.4375 L 291 174 "/>
<path style="fill-rule:nonzero;fill:rgb(35%,70%,90%);fill-opacity:1;stroke-width:1;stroke-linecap:butt;stroke-linejoin:miter;stroke:rgb(0%,0%,0%);stroke-opacity:1;stroke-miterlimit:10;" d="M 933 227 L 962.664062 227 L 974.664062 198.785156 L 986.664062 227 L 1016.332031 227 L 992.332031 244.4375 L 1000.417969 275.980469 L 974.664062 258.542969 L 948.914062 275.980469 L 961.214844 244.4375 L 933 227 "/>
<path style="fill-rule:nonzero;fill:rgb(100%,51%,0%);fill-opacity:1;stroke-width:1;stroke-linecap:butt;stroke-linejoin:miter;stroke:rgb(0%,0%,0%);stroke-opacity:1;stroke-miterlimit:10;" d="M 776 70.601562 C 776 56.199219 752 56.199219 752 70.601562 C 752 85 776 87.398438 776 99.398438 C 776 87.398438 800 85 800 70.601562 C 800 56.199219 776 56.199219 776 70.601562 "/>
<path style="fill-rule:nonzero;fill:rgb(100%,51%,0%);fill-opacity:1;stroke-width:1;stroke-linecap:butt;stroke-linejoin:miter;stroke:rgb(0%,0%,0%);stroke-opacity:1;stroke-miterlimit:10;" d="M 449 295.601562 C 449 281.199219 425 281.199219 425 295.601562 C 425 310 449 312.398438 449 324.398438 C 449 312.398438 473 310 473 295.601562 C 473 281.199219 449 281.199219 449 295.601562 "/>
<path style="fill-rule:nonzero;fill:rgb(100%,51%,0%);fill-opacity:1;stroke-width:1;stroke-linecap:butt;stroke-linejoin:miter;stroke:rgb(0%,0%,0%);stroke-opacity:1;stroke-miterlimit:10;" d="M 824 286.601562 C 824 272.199219 800 272.199219 800 286.601562 C 800 301 824 303.398438 824 315.398438 C 824 303.398438 848 301 848 286.601562 C 848 272.199219 824 272.199219 824 286.601562 "/>
<path style="fill-rule:nonzero;fill:rgb(100%,51%,0%);fill-opacity:1;stroke-width:1;stroke-linecap:butt;stroke-linejoin:miter;stroke:rgb(0%,0%,0%);stroke-opacity:1;stroke-miterlimit:10;" d="M 589 416.601562 C 589 402.199219 565 402.199219 565 416.601562 C 565 431 589 433.398438 589 445.398438 C 589 433.398438 613 431 613 416.601562 C 613 402.199219 589 402.199219 589 416.601562 "/>
<path style="fill-rule:nonzero;fill:rgb(100%,51%,0%);fill-opacity:1;stroke-width:1;stroke-linecap:butt;stroke-linejoin:miter;stroke:rgb(0%,0%,0%);stroke-opacity:1;stroke-miterlimit:10;" d="M 671 261.601562 C 671 247.199219 647 247.199219 647 261.601562 C 647 276 671 278.398438 671 290.398438 C 671 278.398438 695 276 695 261.601562 C 695 247.199219 671 247.199219 671 261.601562 "/>
</g>
</svg>
