<?xml version="1.0" encoding="UTF-8"?>
<svg xmlns="http://www.w3.org/2000/svg" xmlns:xlink="http://www.w3.org/1999/xlink" width="1179pt" height="517pt" viewBox="0 0 1179 517" version="1.1">
<g id="surface726">
<rect x="0" y="0" width="1179" height="517" style="fill:rgb(90%,90%,90%);fill-opacity:1;stroke:none;"/>
<path style="fill-rule:nonzero;fill:rgb(55%,51%,53%);fill-opacity:1;stroke-width:1;stroke-linecap:butt;stroke-linejoin:miter;stroke:rgb(0%,0%,0%);stroke-opacity:1;stroke-miterlimit:10;" d="M 301 278 L 275.019531 323 L 326.980469 323 L 301 278 "/>
<path style="fill-rule:nonzero;fill:rgb(55%,51%,53%);fill-opacity:1;stroke-width:1;stroke-linecap:butt;stroke-linejoin:miter;stroke:rgb(0%,0%,0%);stroke-opacity:1;stroke-miterlimit:10;" d="M 847 215 L 821.019531 260 L 872.980469 260 L 847 215 "/>
<path style="fill-rule:nonzero;fill:rgb(55%,51%,53%);fill-opacity:1;stroke-width:1;stroke-linecap:butt;stroke-linejoin:miter;stroke:rgb(0%,0%,0%);stroke-opacity:1;stroke-miterlimit:10;" d="M 982 301 L 956.019531 346 L 1007.980469 346 L 982 301 "/>
<path style="fill-rule:nonzero;fill:rgb(55%,51%,53%);fill-opacity:1;stroke-width:1;stroke-linecap:butt;stroke-linejoin:miter;stroke:rgb(0%,0%,0%);stroke-opacity:1;stroke-miterlimit:10;" d="M 106 301 L 135.664062 301 L 147.664062 272.785156 L 159.664062 301 L 189.332031 301 L 165.332031 318.4375 L 173.417969 349.980469 L 147.664062 332.542969 L 121.914062 349.980469 L 134.214844 318.4375 L 106 301 "/>
<path style="fill-rule:nonzero;fill:rgb(55%,51%,53%);fill-opacity:1;stroke-width:1;stroke-linecap:butt;stroke-linejoin:miter;stroke:rgb(0%,0%,0%);stroke-opacity:1;stroke-miterlimit:10;" d="M 805 412 L 834.664062 412 L 846.664062 383.785156 L 858.664062 412 L 888.332031 412 L 864.332031 429.4375 L 872.417969 460.980469 L 846.664062 443.542969 L 820.914062 460.980469 L 833.214844 429.4375 L 805 412 "/>
<path style="fill-rule:nonzero;fill:rgb(55%,51%,53%);fill-opacity:1;stroke-width:1;stroke-linecap:butt;stroke-linejoin:miter;stroke:rgb(0%,0%,0%);stroke-opacity:1;stroke-miterlimit:10;" d="M 479 268 L 508.664062 268 L 520.664062 239.785156 L 532.664062 268 L 562.332031 268 L 538.332031 285.4375 L 546.417969 316.980469 L 520.664062 299.542969 L 494.914062 316.980469 L 507.214844 285.4375 L 479 268 "/>
<path style="fill-rule:nonzero;fill:rgb(55%,51%,53%);fill-opacity:1;stroke-width:1;stroke-linecap:butt;stroke-linejoin:miter;stroke:rgb(0%,0%,0%);stroke-opacity:1;stroke-miterlimit:10;" d="M 384 415 L 413.664062 415 L 425.664062 386.785156 L 437.664062 415 L 467.332031 415 L 443.332031 432.4375 L 451.417969 463.980469 L 425.664062 446.542969 L 399.914062 463.980469 L 412.214844 432.4375 L 384 415 "/>
<path style="fill-rule:nonzero;fill:rgb(55%,51%,53%);fill-opacity:1;stroke-width:1;stroke-linecap:butt;stroke-linejoin:miter;stroke:rgb(0%,0%,0%);stroke-opacity:1;stroke-miterlimit:10;" d="M 743 117 L 772.664062 117 L 784.664062 88.785156 L 796.664062 117 L 826.332031 117 L 802.332031 134.4375 L 810.417969 165.980469 L 784.664062 148.542969 L 758.914062 165.980469 L 771.214844 134.4375 L 743 117 "/>
</g>
</svg>
