<?xml version="1.0" encoding="UTF-8"?>
<svg xmlns="http://www.w3.org/2000/svg" xmlns:xlink="http://www.w3.org/1999/xlink" width="1179pt" height="517pt" viewBox="0 0 1179 517" version="1.1">
<g id="surface646">
<rect x="0" y="0" width="1179" height="517" style="fill:rgb(90%,90%,90%);fill-opacity:1;stroke:none;"/>
<path style="fill-rule:nonzero;fill:rgb(100%,51%,0%);fill-opacity:1;stroke-width:1;stroke-linecap:butt;stroke-linejoin:miter;stroke:rgb(0%,0%,0%);stroke-opacity:1;stroke-miterlimit:10;" d="M 267.214844 222 C 267.214844 233.714844 257.714844 243.214844 246 243.214844 C 234.285156 243.214844 224.785156 233.714844 224.785156 222 C 224.785156 210.285156 234.285156 200.785156 246 200.785156 C 257.714844 200.785156 267.214844 210.285156 267.214844 222 "/>
<path style="fill-rule:nonzero;fill:rgb(100%,51%,0%);fill-opacity:1;stroke-width:1;stroke-linecap:butt;stroke-linejoin:miter;stroke:rgb(0%,0%,0%);stroke-opacity:1;stroke-miterlimit:10;" d="M 435.214844 278 C 435.214844 289.714844 425.714844 299.214844 414 299.214844 C 402.285156 299.214844 392.785156 289.714844 392.785156 278 C 392.785156 266.285156 402.285156 256.785156 414 256.785156 C 425.714844 256.785156 435.214844 266.285156 435.214844 278 "/>
<path style="fill-rule:nonzero;fill:rgb(53%,27%,7%);fill-opacity:1;stroke-width:1;stroke-linecap:butt;stroke-linejoin:miter;stroke:rgb(0%,0%,0%);stroke-opacity:1;stroke-miterlimit:10;" d="M 317.214844 361 C 317.214844 372.714844 307.714844 382.214844 296 382.214844 C 284.285156 382.214844 274.785156 372.714844 274.785156 361 C 274.785156 349.285156 284.285156 339.785156 296 339.785156 C 307.714844 339.785156 317.214844 349.285156 317.214844 361 "/>
<path style="fill-rule:nonzero;fill:rgb(53%,27%,7%);fill-opacity:1;stroke-width:1;stroke-linecap:butt;stroke-linejoin:miter;stroke:rgb(0%,0%,0%);stroke-opacity:1;stroke-miterlimit:10;" d="M 378.214844 430 C 378.214844 441.714844 368.714844 451.214844 357 451.214844 C 345.285156 451.214844 335.785156 441.714844 335.785156 430 C 335.785156 418.285156 345.285156 408.785156 357 408.785156 C 368.714844 408.785156 378.214844 418.285156 378.214844 430 "/>
<path style="fill-rule:nonzero;fill:rgb(53%,27%,7%);fill-opacity:1;stroke-width:1;stroke-linecap:butt;stroke-linejoin:miter;stroke:rgb(0%,0%,0%);stroke-opacity:1;stroke-miterlimit:10;" d="M 786 102 L 760.019531 147 L 811.980469 147 L 786 102 "/>
<path style="fill-rule:nonzero;fill:rgb(53%,27%,7%);fill-opacity:1;stroke-width:1;stroke-linecap:butt;stroke-linejoin:miter;stroke:rgb(0%,0%,0%);stroke-opacity:1;stroke-miterlimit:10;" d="M 1026 348 L 1000.019531 393 L 1051.980469 393 L 1026 348 "/>
<path style="fill-rule:nonzero;fill:rgb(100%,51%,0%);fill-opacity:1;stroke-width:1;stroke-linecap:butt;stroke-linejoin:miter;stroke:rgb(0%,0%,0%);stroke-opacity:1;stroke-miterlimit:10;" d="M 888 292 L 862.019531 337 L 913.980469 337 L 888 292 "/>
<path style="fill-rule:nonzero;fill:rgb(100%,51%,0%);fill-opacity:1;stroke-width:1;stroke-linecap:butt;stroke-linejoin:miter;stroke:rgb(0%,0%,0%);stroke-opacity:1;stroke-miterlimit:10;" d="M 905 193 L 879.019531 238 L 930.980469 238 L 905 193 "/>
<path style="fill-rule:nonzero;fill:rgb(53%,27%,7%);fill-opacity:1;stroke-width:1;stroke-linecap:butt;stroke-linejoin:miter;stroke:rgb(0%,0%,0%);stroke-opacity:1;stroke-miterlimit:10;" d="M 1031 130 L 1005.019531 175 L 1056.980469 175 L 1031 130 "/>
</g>
</svg>
