<?xml version="1.0" encoding="UTF-8"?>
<svg xmlns="http://www.w3.org/2000/svg" xmlns:xlink="http://www.w3.org/1999/xlink" width="1179pt" height="517pt" viewBox="0 0 1179 517" version="1.1">
<g id="surface856">
<rect x="0" y="0" width="1179" height="517" style="fill:rgb(90%,90%,90%);fill-opacity:1;stroke:none;"/>
<path style="fill-rule:nonzero;fill:rgb(53%,27%,7%);fill-opacity:1;stroke-width:1;stroke-linecap:butt;stroke-linejoin:miter;stroke:rgb(0%,0%,0%);stroke-opacity:1;stroke-miterlimit:10;" d="M 829 112.601562 C 829 98.199219 805 98.199219 805 112.601562 C 805 127 829 129.398438 829 141.398438 C 829 129.398438 853 127 853 112.601562 C 853 98.199219 829 98.199219 829 112.601562 "/>
<path style="fill-rule:nonzero;fill:rgb(53%,27%,7%);fill-opacity:1;stroke-width:1;stroke-linecap:butt;stroke-linejoin:miter;stroke:rgb(0%,0%,0%);stroke-opacity:1;stroke-miterlimit:10;" d="M 482 209.601562 C 482 195.199219 458 195.199219 458 209.601562 C 458 224 482 226.398438 482 238.398438 C 482 226.398438 506 224 506 209.601562 C 506 195.199219 482 195.199219 482 209.601562 "/>
<path style="fill-rule:nonzero;fill:rgb(53%,27%,7%);fill-opacity:1;stroke-width:1;stroke-linecap:butt;stroke-linejoin:miter;stroke:rgb(0%,0%,0%);stroke-opacity:1;stroke-miterlimit:10;" d="M 1025 385.601562 C 1025 371.199219 1001 371.199219 1001 385.601562 C 1001 400 1025 402.398438 1025 414.398438 C 1025 402.398438 1049 400 1049 385.601562 C 1049 371.199219 1025 371.199219 1025 385.601562 "/>
<path style="fill-rule:nonzero;fill:rgb(53%,27%,7%);fill-opacity:1;stroke-width:1;stroke-linecap:butt;stroke-linejoin:miter;stroke:rgb(0%,0%,0%);stroke-opacity:1;stroke-miterlimit:10;" d="M 574 398.601562 C 574 384.199219 550 384.199219 550 398.601562 C 550 413 574 415.398438 574 427.398438 C 574 415.398438 598 413 598 398.601562 C 598 384.199219 574 384.199219 574 398.601562 "/>
<path style="fill-rule:nonzero;fill:rgb(53%,27%,7%);fill-opacity:1;stroke-width:1;stroke-linecap:butt;stroke-linejoin:miter;stroke:rgb(0%,0%,0%);stroke-opacity:1;stroke-miterlimit:10;" d="M 249 409.601562 C 249 395.199219 225 395.199219 225 409.601562 C 225 424 249 426.398438 249 438.398438 C 249 426.398438 273 424 273 409.601562 C 273 395.199219 249 395.199219 249 409.601562 "/>
<path style="fill-rule:nonzero;fill:rgb(100%,51%,0%);fill-opacity:1;stroke-width:1;stroke-linecap:butt;stroke-linejoin:miter;stroke:rgb(0%,0%,0%);stroke-opacity:1;stroke-miterlimit:10;" d="M 874.214844 296 C 874.214844 307.714844 864.714844 317.214844 853 317.214844 C 841.285156 317.214844 831.785156 307.714844 831.785156 296 C 831.785156 284.285156 841.285156 274.785156 853 274.785156 C 864.714844 274.785156 874.214844 284.285156 874.214844 296 "/>
<path style="fill-rule:nonzero;fill:rgb(100%,51%,0%);fill-opacity:1;stroke-width:1;stroke-linecap:butt;stroke-linejoin:miter;stroke:rgb(0%,0%,0%);stroke-opacity:1;stroke-miterlimit:10;" d="M 1003.214844 279 C 1003.214844 290.714844 993.714844 300.214844 982 300.214844 C 970.285156 300.214844 960.785156 290.714844 960.785156 279 C 960.785156 267.285156 970.285156 257.785156 982 257.785156 C 993.714844 257.785156 1003.214844 267.285156 1003.214844 279 "/>
<path style="fill-rule:nonzero;fill:rgb(100%,51%,0%);fill-opacity:1;stroke-width:1;stroke-linecap:butt;stroke-linejoin:miter;stroke:rgb(0%,0%,0%);stroke-opacity:1;stroke-miterlimit:10;" d="M 700.214844 262 C 700.214844 273.714844 690.714844 283.214844 679 283.214844 C 667.285156 283.214844 657.785156 273.714844 657.785156 262 C 657.785156 250.285156 667.285156 240.785156 679 240.785156 C 690.714844 240.785156 700.214844 250.285156 700.214844 262 "/>
<path style="fill-rule:nonzero;fill:rgb(100%,51%,0%);fill-opacity:1;stroke-width:1;stroke-linecap:butt;stroke-linejoin:miter;stroke:rgb(0%,0%,0%);stroke-opacity:1;stroke-miterlimit:10;" d="M 582.214844 89 C 582.214844 100.714844 572.714844 110.214844 561 110.214844 C 549.285156 110.214844 539.785156 100.714844 539.785156 89 C 539.785156 77.285156 549.285156 67.785156 561 67.785156 C 572.714844 67.785156 582.214844 77.285156 582.214844 89 "/>
<path style="fill-rule:nonzero;fill:rgb(100%,51%,0%);fill-opacity:1;stroke-width:1;stroke-linecap:butt;stroke-linejoin:miter;stroke:rgb(0%,0%,0%);stroke-opacity:1;stroke-miterlimit:10;" d="M 110.214844 320 C 110.214844 331.714844 100.714844 341.214844 89 341.214844 C 77.285156 341.214844 67.785156 331.714844 67.785156 320 C 67.785156 308.285156 77.285156 298.785156 89 298.785156 C 100.714844 298.785156 110.214844 308.285156 110.214844 320 "/>
</g>
</svg>
