<?xml version="1.0" encoding="UTF-8"?>
<svg xmlns="http://www.w3.org/2000/svg" xmlns:xlink="http://www.w3.org/1999/xlink" width="1179pt" height="517pt" viewBox="0 0 1179 517" version="1.1">
<g id="surface11">
<rect x="0" y="0" width="1179" height="517" style="fill:rgb(90%,90%,90%);fill-opacity:1;stroke:none;"/>
<path style="fill-rule:nonzero;fill:rgb(35%,70%,90%);fill-opacity:1;stroke-width:1;stroke-linecap:butt;stroke-linejoin:miter;stroke:rgb(0%,0%,0%);stroke-opacity:1;stroke-miterlimit:10;" d="M 184 191 L 213.664062 191 L 225.664062 162.785156 L 237.664062 191 L 267.332031 191 L 243.332031 208.4375 L 251.417969 239.980469 L 225.664062 222.542969 L 199.914062 239.980469 L 212.214844 208.4375 L 184 191 "/>
<path style="fill-rule:nonzero;fill:rgb(35%,70%,90%);fill-opacity:1;stroke-width:1;stroke-linecap:butt;stroke-linejoin:miter;stroke:rgb(0%,0%,0%);stroke-opacity:1;stroke-miterlimit:10;" d="M 119.785156 290.785156 L 119.785156 333.214844 L 162.214844 333.214844 L 162.214844 290.785156 L 119.785156 290.785156 "/>
<path style="fill-rule:nonzero;fill:rgb(35%,70%,90%);fill-opacity:1;stroke-width:1;stroke-linecap:butt;stroke-linejoin:miter;stroke:rgb(0%,0%,0%);stroke-opacity:1;stroke-miterlimit:10;" d="M 154.785156 402.785156 L 154.785156 445.214844 L 197.214844 445.214844 L 197.214844 402.785156 L 154.785156 402.785156 "/>
<path style="fill-rule:nonzero;fill:rgb(35%,70%,90%);fill-opacity:1;stroke-width:1;stroke-linecap:butt;stroke-linejoin:miter;stroke:rgb(0%,0%,0%);stroke-opacity:1;stroke-miterlimit:10;" d="M 215 82 L 244.664062 82 L 256.664062 53.785156 L 268.664062 82 L 298.332031 82 L 274.332031 99.4375 L 282.417969 130.980469 L 256.664062 113.542969 L 230.914062 130.980469 L 243.214844 99.4375 L 215 82 "/>
<path style="fill-rule:nonzero;fill:rgb(100%,51%,0%);fill-opacity:1;stroke-width:1;stroke-linecap:butt;stroke-linejoin:miter;stroke:rgb(0%,0%,0%);stroke-opacity:1;stroke-miterlimit:10;" d="M 916.785156 286.785156 L 916.785156 329.214844 L 959.214844 329.214844 L 959.214844 286.785156 L 916.785156 286.785156 "/>
<path style="fill-rule:nonzero;fill:rgb(100%,51%,0%);fill-opacity:1;stroke-width:1;stroke-linecap:butt;stroke-linejoin:miter;stroke:rgb(0%,0%,0%);stroke-opacity:1;stroke-miterlimit:10;" d="M 833 149 L 862.664062 149 L 874.664062 120.785156 L 886.664062 149 L 916.332031 149 L 892.332031 166.4375 L 900.417969 197.980469 L 874.664062 180.542969 L 848.914062 197.980469 L 861.214844 166.4375 L 833 149 "/>
<path style="fill-rule:nonzero;fill:rgb(100%,51%,0%);fill-opacity:1;stroke-width:1;stroke-linecap:butt;stroke-linejoin:miter;stroke:rgb(0%,0%,0%);stroke-opacity:1;stroke-miterlimit:10;" d="M 927 420 L 956.664062 420 L 968.664062 391.785156 L 980.664062 420 L 1010.332031 420 L 986.332031 437.4375 L 994.417969 468.980469 L 968.664062 451.542969 L 942.914062 468.980469 L 955.214844 437.4375 L 927 420 "/>
</g>
</svg>
