<?xml version="1.0" encoding="UTF-8"?>
<svg xmlns="http://www.w3.org/2000/svg" xmlns:xlink="http://www.w3.org/1999/xlink" width="1179pt" height="517pt" viewBox="0 0 1179 517" version="1.1">
<g id="surface611">
<rect x="0" y="0" width="1179" height="517" style="fill:rgb(90%,90%,90%);fill-opacity:1;stroke:none;"/>
<path style="fill-rule:nonzero;fill:rgb(35%,70%,90%);fill-opacity:1;stroke-width:1;stroke-linecap:butt;stroke-linejoin:miter;stroke:rgb(0%,0%,0%);stroke-opacity:1;stroke-miterlimit:10;" d="M 289 86 L 318.664062 86 L 330.664062 57.785156 L 342.664062 86 L 372.332031 86 L 348.332031 103.4375 L 356.417969 134.980469 L 330.664062 117.542969 L 304.914062 134.980469 L 317.214844 103.4375 L 289 86 "/>
<path style="fill-rule:nonzero;fill:rgb(35%,70%,90%);fill-opacity:1;stroke-width:1;stroke-linecap:butt;stroke-linejoin:miter;stroke:rgb(0%,0%,0%);stroke-opacity:1;stroke-miterlimit:10;" d="M 129 322 L 158.664062 322 L 170.664062 293.785156 L 182.664062 322 L 212.332031 322 L 188.332031 339.4375 L 196.417969 370.980469 L 170.664062 353.542969 L 144.914062 370.980469 L 157.214844 339.4375 L 129 322 "/>
<path style="fill-rule:nonzero;fill:rgb(55%,51%,53%);fill-opacity:1;stroke-width:1;stroke-linecap:butt;stroke-linejoin:miter;stroke:rgb(0%,0%,0%);stroke-opacity:1;stroke-miterlimit:10;" d="M 253 289 L 282.664062 289 L 294.664062 260.785156 L 306.664062 289 L 336.332031 289 L 312.332031 306.4375 L 320.417969 337.980469 L 294.664062 320.542969 L 268.914062 337.980469 L 281.214844 306.4375 L 253 289 "/>
<path style="fill-rule:nonzero;fill:rgb(35%,70%,90%);fill-opacity:1;stroke-width:1;stroke-linecap:butt;stroke-linejoin:miter;stroke:rgb(0%,0%,0%);stroke-opacity:1;stroke-miterlimit:10;" d="M 136 138 L 165.664062 138 L 177.664062 109.785156 L 189.664062 138 L 219.332031 138 L 195.332031 155.4375 L 203.417969 186.980469 L 177.664062 169.542969 L 151.914062 186.980469 L 164.214844 155.4375 L 136 138 "/>
<path style="fill-rule:nonzero;fill:rgb(35%,70%,90%);fill-opacity:1;stroke-width:1;stroke-linecap:butt;stroke-linejoin:miter;stroke:rgb(0%,0%,0%);stroke-opacity:1;stroke-miterlimit:10;" d="M 315 388 L 344.664062 388 L 356.664062 359.785156 L 368.664062 388 L 398.332031 388 L 374.332031 405.4375 L 382.417969 436.980469 L 356.664062 419.542969 L 330.914062 436.980469 L 343.214844 405.4375 L 315 388 "/>
<path style="fill-rule:nonzero;fill:rgb(55%,51%,53%);fill-opacity:1;stroke-width:1;stroke-linecap:butt;stroke-linejoin:miter;stroke:rgb(0%,0%,0%);stroke-opacity:1;stroke-miterlimit:10;" d="M 922.785156 228.785156 L 922.785156 271.214844 L 965.214844 271.214844 L 965.214844 228.785156 L 922.785156 228.785156 "/>
<path style="fill-rule:nonzero;fill:rgb(55%,51%,53%);fill-opacity:1;stroke-width:1;stroke-linecap:butt;stroke-linejoin:miter;stroke:rgb(0%,0%,0%);stroke-opacity:1;stroke-miterlimit:10;" d="M 702.785156 144.785156 L 702.785156 187.214844 L 745.214844 187.214844 L 745.214844 144.785156 L 702.785156 144.785156 "/>
<path style="fill-rule:nonzero;fill:rgb(35%,70%,90%);fill-opacity:1;stroke-width:1;stroke-linecap:butt;stroke-linejoin:miter;stroke:rgb(0%,0%,0%);stroke-opacity:1;stroke-miterlimit:10;" d="M 757.785156 302.785156 L 757.785156 345.214844 L 800.214844 345.214844 L 800.214844 302.785156 L 757.785156 302.785156 "/>
</g>
</svg>
