<?xml version="1.0" encoding="UTF-8"?>
<svg xmlns="http://www.w3.org/2000/svg" xmlns:xlink="http://www.w3.org/1999/xlink" width="1179pt" height="517pt" viewBox="0 0 1179 517" version="1.1">
<g id="surface1401">
<rect x="0" y="0" width="1179" height="517" style="fill:rgb(90%,90%,90%);fill-opacity:1;stroke:none;"/>
<path style="fill-rule:nonzero;fill:rgb(100%,51%,0%);fill-opacity:1;stroke-width:1;stroke-linecap:butt;stroke-linejoin:miter;stroke:rgb(0%,0%,0%);stroke-opacity:1;stroke-miterlimit:10;" d="M 818 295 L 847.664062 295 L 859.664062 266.785156 L 871.664062 295 L 901.332031 295 L 877.332031 312.4375 L 885.417969 343.980469 L 859.664062 326.542969 L 833.914062 343.980469 L 846.214844 312.4375 L 818 295 "/>
<path style="fill-rule:nonzero;fill:rgb(100%,51%,0%);fill-opacity:1;stroke-width:1;stroke-linecap:butt;stroke-linejoin:miter;stroke:rgb(0%,0%,0%);stroke-opacity:1;stroke-miterlimit:10;" d="M 514 158 L 543.664062 158 L 555.664062 129.785156 L 567.664062 158 L 597.332031 158 L 573.332031 175.4375 L 581.417969 206.980469 L 555.664062 189.542969 L 529.914062 206.980469 L 542.214844 175.4375 L 514 158 "/>
<path style="fill-rule:nonzero;fill:rgb(100%,51%,0%);fill-opacity:1;stroke-width:1;stroke-linecap:butt;stroke-linejoin:miter;stroke:rgb(0%,0%,0%);stroke-opacity:1;stroke-miterlimit:10;" d="M 1024 196 L 1053.664062 196 L 1065.664062 167.785156 L 1077.664062 196 L 1107.332031 196 L 1083.332031 213.4375 L 1091.417969 244.980469 L 1065.664062 227.542969 L 1039.914062 244.980469 L 1052.214844 213.4375 L 1024 196 "/>
<path style="fill-rule:nonzero;fill:rgb(100%,51%,0%);fill-opacity:1;stroke-width:1;stroke-linecap:butt;stroke-linejoin:miter;stroke:rgb(0%,0%,0%);stroke-opacity:1;stroke-miterlimit:10;" d="M 859 157 L 888.664062 157 L 900.664062 128.785156 L 912.664062 157 L 942.332031 157 L 918.332031 174.4375 L 926.417969 205.980469 L 900.664062 188.542969 L 874.914062 205.980469 L 887.214844 174.4375 L 859 157 "/>
<path style="fill-rule:nonzero;fill:rgb(55%,51%,53%);fill-opacity:1;stroke-width:1;stroke-linecap:butt;stroke-linejoin:miter;stroke:rgb(0%,0%,0%);stroke-opacity:1;stroke-miterlimit:10;" d="M 261.214844 115 C 261.214844 126.714844 251.714844 136.214844 240 136.214844 C 228.285156 136.214844 218.785156 126.714844 218.785156 115 C 218.785156 103.285156 228.285156 93.785156 240 93.785156 C 251.714844 93.785156 261.214844 103.285156 261.214844 115 "/>
<path style="fill-rule:nonzero;fill:rgb(55%,51%,53%);fill-opacity:1;stroke-width:1;stroke-linecap:butt;stroke-linejoin:miter;stroke:rgb(0%,0%,0%);stroke-opacity:1;stroke-miterlimit:10;" d="M 581.214844 409 C 581.214844 420.714844 571.714844 430.214844 560 430.214844 C 548.285156 430.214844 538.785156 420.714844 538.785156 409 C 538.785156 397.285156 548.285156 387.785156 560 387.785156 C 571.714844 387.785156 581.214844 397.285156 581.214844 409 "/>
<path style="fill-rule:nonzero;fill:rgb(55%,51%,53%);fill-opacity:1;stroke-width:1;stroke-linecap:butt;stroke-linejoin:miter;stroke:rgb(0%,0%,0%);stroke-opacity:1;stroke-miterlimit:10;" d="M 635.214844 277 C 635.214844 288.714844 625.714844 298.214844 614 298.214844 C 602.285156 298.214844 592.785156 288.714844 592.785156 277 C 592.785156 265.285156 602.285156 255.785156 614 255.785156 C 625.714844 255.785156 635.214844 265.285156 635.214844 277 "/>
<path style="fill-rule:nonzero;fill:rgb(55%,51%,53%);fill-opacity:1;stroke-width:1;stroke-linecap:butt;stroke-linejoin:miter;stroke:rgb(0%,0%,0%);stroke-opacity:1;stroke-miterlimit:10;" d="M 719.214844 410 C 719.214844 421.714844 709.714844 431.214844 698 431.214844 C 686.285156 431.214844 676.785156 421.714844 676.785156 410 C 676.785156 398.285156 686.285156 388.785156 698 388.785156 C 709.714844 388.785156 719.214844 398.285156 719.214844 410 "/>
<path style="fill-rule:nonzero;fill:rgb(55%,51%,53%);fill-opacity:1;stroke-width:1;stroke-linecap:butt;stroke-linejoin:miter;stroke:rgb(0%,0%,0%);stroke-opacity:1;stroke-miterlimit:10;" d="M 194.214844 389 C 194.214844 400.714844 184.714844 410.214844 173 410.214844 C 161.285156 410.214844 151.785156 400.714844 151.785156 389 C 151.785156 377.285156 161.285156 367.785156 173 367.785156 C 184.714844 367.785156 194.214844 377.285156 194.214844 389 "/>
</g>
</svg>
