<?xml version="1.0" encoding="UTF-8"?>
<svg xmlns="http://www.w3.org/2000/svg" xmlns:xlink="http://www.w3.org/1999/xlink" width="1179pt" height="517pt" viewBox="0 0 1179 517" version="1.1">
<g id="surface796">
<rect x="0" y="0" width="1179" height="517" style="fill:rgb(90%,90%,90%);fill-opacity:1;stroke:none;"/>
<path style="fill-rule:nonzero;fill:rgb(55%,51%,53%);fill-opacity:1;stroke-width:1;stroke-linecap:butt;stroke-linejoin:miter;stroke:rgb(0%,0%,0%);stroke-opacity:1;stroke-miterlimit:10;" d="M 156.214844 298 C 156.214844 309.714844 146.714844 319.214844 135 319.214844 C 123.285156 319.214844 113.785156 309.714844 113.785156 298 C 113.785156 286.285156 123.285156 276.785156 135 276.785156 C 146.714844 276.785156 156.214844 286.285156 156.214844 298 "/>
<path style="fill-rule:nonzero;fill:rgb(55%,51%,53%);fill-opacity:1;stroke-width:1;stroke-linecap:butt;stroke-linejoin:miter;stroke:rgb(0%,0%,0%);stroke-opacity:1;stroke-miterlimit:10;" d="M 316.214844 83 C 316.214844 94.714844 306.714844 104.214844 295 104.214844 C 283.285156 104.214844 273.785156 94.714844 273.785156 83 C 273.785156 71.285156 283.285156 61.785156 295 61.785156 C 306.714844 61.785156 316.214844 71.285156 316.214844 83 "/>
<path style="fill-rule:nonzero;fill:rgb(67%,100%,18%);fill-opacity:1;stroke-width:1;stroke-linecap:butt;stroke-linejoin:miter;stroke:rgb(0%,0%,0%);stroke-opacity:1;stroke-miterlimit:10;" d="M 245.214844 228 C 245.214844 239.714844 235.714844 249.214844 224 249.214844 C 212.285156 249.214844 202.785156 239.714844 202.785156 228 C 202.785156 216.285156 212.285156 206.785156 224 206.785156 C 235.714844 206.785156 245.214844 216.285156 245.214844 228 "/>
<path style="fill-rule:nonzero;fill:rgb(67%,100%,18%);fill-opacity:1;stroke-width:1;stroke-linecap:butt;stroke-linejoin:miter;stroke:rgb(0%,0%,0%);stroke-opacity:1;stroke-miterlimit:10;" d="M 435.214844 219 C 435.214844 230.714844 425.714844 240.214844 414 240.214844 C 402.285156 240.214844 392.785156 230.714844 392.785156 219 C 392.785156 207.285156 402.285156 197.785156 414 197.785156 C 425.714844 197.785156 435.214844 207.285156 435.214844 219 "/>
<path style="fill-rule:nonzero;fill:rgb(67%,100%,18%);fill-opacity:1;stroke-width:1;stroke-linecap:butt;stroke-linejoin:miter;stroke:rgb(0%,0%,0%);stroke-opacity:1;stroke-miterlimit:10;" d="M 889 325 L 863.019531 370 L 914.980469 370 L 889 325 "/>
<path style="fill-rule:nonzero;fill:rgb(67%,100%,18%);fill-opacity:1;stroke-width:1;stroke-linecap:butt;stroke-linejoin:miter;stroke:rgb(0%,0%,0%);stroke-opacity:1;stroke-miterlimit:10;" d="M 922 202 L 896.019531 247 L 947.980469 247 L 922 202 "/>
<path style="fill-rule:nonzero;fill:rgb(55%,51%,53%);fill-opacity:1;stroke-width:1;stroke-linecap:butt;stroke-linejoin:miter;stroke:rgb(0%,0%,0%);stroke-opacity:1;stroke-miterlimit:10;" d="M 714 125 L 688.019531 170 L 739.980469 170 L 714 125 "/>
<path style="fill-rule:nonzero;fill:rgb(55%,51%,53%);fill-opacity:1;stroke-width:1;stroke-linecap:butt;stroke-linejoin:miter;stroke:rgb(0%,0%,0%);stroke-opacity:1;stroke-miterlimit:10;" d="M 1011 124 L 985.019531 169 L 1036.980469 169 L 1011 124 "/>
<path style="fill-rule:nonzero;fill:rgb(67%,100%,18%);fill-opacity:1;stroke-width:1;stroke-linecap:butt;stroke-linejoin:miter;stroke:rgb(0%,0%,0%);stroke-opacity:1;stroke-miterlimit:10;" d="M 784 263 L 758.019531 308 L 809.980469 308 L 784 263 "/>
</g>
</svg>
