<?xml version="1.0" encoding="UTF-8"?>
<svg xmlns="http://www.w3.org/2000/svg" xmlns:xlink="http://www.w3.org/1999/xlink" width="1179pt" height="517pt" viewBox="0 0 1179 517" version="1.1">
<g id="surface946">
<rect x="0" y="0" width="1179" height="517" style="fill:rgb(90%,90%,90%);fill-opacity:1;stroke:none;"/>
<path style="fill-rule:nonzero;fill:rgb(53%,27%,7%);fill-opacity:1;stroke-width:1;stroke-linecap:butt;stroke-linejoin:miter;stroke:rgb(0%,0%,0%);stroke-opacity:1;stroke-miterlimit:10;" d="M 198 147.601562 C 198 133.199219 174 133.199219 174 147.601562 C 174 162 198 164.398438 198 176.398438 C 198 164.398438 222 162 222 147.601562 C 222 133.199219 198 133.199219 198 147.601562 "/>
<path style="fill-rule:nonzero;fill:rgb(53%,27%,7%);fill-opacity:1;stroke-width:1;stroke-linecap:butt;stroke-linejoin:miter;stroke:rgb(0%,0%,0%);stroke-opacity:1;stroke-miterlimit:10;" d="M 619 288.601562 C 619 274.199219 595 274.199219 595 288.601562 C 595 303 619 305.398438 619 317.398438 C 619 305.398438 643 303 643 288.601562 C 643 274.199219 619 274.199219 619 288.601562 "/>
<path style="fill-rule:nonzero;fill:rgb(53%,27%,7%);fill-opacity:1;stroke-width:1;stroke-linecap:butt;stroke-linejoin:miter;stroke:rgb(0%,0%,0%);stroke-opacity:1;stroke-miterlimit:10;" d="M 321 370.601562 C 321 356.199219 297 356.199219 297 370.601562 C 297 385 321 387.398438 321 399.398438 C 321 387.398438 345 385 345 370.601562 C 345 356.199219 321 356.199219 321 370.601562 "/>
<path style="fill-rule:nonzero;fill:rgb(53%,27%,7%);fill-opacity:1;stroke-width:1;stroke-linecap:butt;stroke-linejoin:miter;stroke:rgb(0%,0%,0%);stroke-opacity:1;stroke-miterlimit:10;" d="M 187 385.601562 C 187 371.199219 163 371.199219 163 385.601562 C 163 400 187 402.398438 187 414.398438 C 187 402.398438 211 400 211 385.601562 C 211 371.199219 187 371.199219 187 385.601562 "/>
<path style="fill-rule:nonzero;fill:rgb(53%,27%,7%);fill-opacity:1;stroke-width:1;stroke-linecap:butt;stroke-linejoin:miter;stroke:rgb(0%,0%,0%);stroke-opacity:1;stroke-miterlimit:10;" d="M 565 87.601562 C 565 73.199219 541 73.199219 541 87.601562 C 541 102 565 104.398438 565 116.398438 C 565 104.398438 589 102 589 87.601562 C 589 73.199219 565 73.199219 565 87.601562 "/>
<path style="fill-rule:nonzero;fill:rgb(100%,51%,0%);fill-opacity:1;stroke-width:1;stroke-linecap:butt;stroke-linejoin:miter;stroke:rgb(0%,0%,0%);stroke-opacity:1;stroke-miterlimit:10;" d="M 821.214844 294 C 821.214844 305.714844 811.714844 315.214844 800 315.214844 C 788.285156 315.214844 778.785156 305.714844 778.785156 294 C 778.785156 282.285156 788.285156 272.785156 800 272.785156 C 811.714844 272.785156 821.214844 282.285156 821.214844 294 "/>
<path style="fill-rule:nonzero;fill:rgb(100%,51%,0%);fill-opacity:1;stroke-width:1;stroke-linecap:butt;stroke-linejoin:miter;stroke:rgb(0%,0%,0%);stroke-opacity:1;stroke-miterlimit:10;" d="M 921.214844 422 C 921.214844 433.714844 911.714844 443.214844 900 443.214844 C 888.285156 443.214844 878.785156 433.714844 878.785156 422 C 878.785156 410.285156 888.285156 400.785156 900 400.785156 C 911.714844 400.785156 921.214844 410.285156 921.214844 422 "/>
<path style="fill-rule:nonzero;fill:rgb(100%,51%,0%);fill-opacity:1;stroke-width:1;stroke-linecap:butt;stroke-linejoin:miter;stroke:rgb(0%,0%,0%);stroke-opacity:1;stroke-miterlimit:10;" d="M 542.214844 422 C 542.214844 433.714844 532.714844 443.214844 521 443.214844 C 509.285156 443.214844 499.785156 433.714844 499.785156 422 C 499.785156 410.285156 509.285156 400.785156 521 400.785156 C 532.714844 400.785156 542.214844 410.285156 542.214844 422 "/>
<path style="fill-rule:nonzero;fill:rgb(100%,51%,0%);fill-opacity:1;stroke-width:1;stroke-linecap:butt;stroke-linejoin:miter;stroke:rgb(0%,0%,0%);stroke-opacity:1;stroke-miterlimit:10;" d="M 453.214844 223 C 453.214844 234.714844 443.714844 244.214844 432 244.214844 C 420.285156 244.214844 410.785156 234.714844 410.785156 223 C 410.785156 211.285156 420.285156 201.785156 432 201.785156 C 443.714844 201.785156 453.214844 211.285156 453.214844 223 "/>
</g>
</svg>
