<?xml version="1.0" encoding="UTF-8"?>
<svg xmlns="http://www.w3.org/2000/svg" xmlns:xlink="http://www.w3.org/1999/xlink" width="1179pt" height="517pt" viewBox="0 0 1179 517" version="1.1">
<g id="surface166">
<rect x="0" y="0" width="1179" height="517" style="fill:rgb(90%,90%,90%);fill-opacity:1;stroke:none;"/>
<path style="fill-rule:nonzero;fill:rgb(55%,51%,53%);fill-opacity:1;stroke-width:1;stroke-linecap:butt;stroke-linejoin:miter;stroke:rgb(0%,0%,0%);stroke-opacity:1;stroke-miterlimit:10;" d="M 200.214844 287 C 200.214844 298.714844 190.714844 308.214844 179 308.214844 C 167.285156 308.214844 157.785156 298.714844 157.785156 287 C 157.785156 275.285156 167.285156 265.785156 179 265.785156 C 190.714844 265.785156 200.214844 275.285156 200.214844 287 "/>
<path style="fill-rule:nonzero;fill:rgb(55%,51%,53%);fill-opacity:1;stroke-width:1;stroke-linecap:butt;stroke-linejoin:miter;stroke:rgb(0%,0%,0%);stroke-opacity:1;stroke-miterlimit:10;" d="M 242.214844 160 C 242.214844 171.714844 232.714844 181.214844 221 181.214844 C 209.285156 181.214844 199.785156 171.714844 199.785156 160 C 199.785156 148.285156 209.285156 138.785156 221 138.785156 C 232.714844 138.785156 242.214844 148.285156 242.214844 160 "/>
<path style="fill-rule:nonzero;fill:rgb(55%,51%,53%);fill-opacity:1;stroke-width:1;stroke-linecap:butt;stroke-linejoin:miter;stroke:rgb(0%,0%,0%);stroke-opacity:1;stroke-miterlimit:10;" d="M 385 194 L 359.019531 239 L 410.980469 239 L 385 194 "/>
<path style="fill-rule:nonzero;fill:rgb(55%,51%,53%);fill-opacity:1;stroke-width:1;stroke-linecap:butt;stroke-linejoin:miter;stroke:rgb(0%,0%,0%);stroke-opacity:1;stroke-miterlimit:10;" d="M 317 84 L 291.019531 129 L 342.980469 129 L 317 84 "/>
<path style="fill-rule:nonzero;fill:rgb(53%,27%,7%);fill-opacity:1;stroke-width:1;stroke-linecap:butt;stroke-linejoin:miter;stroke:rgb(0%,0%,0%);stroke-opacity:1;stroke-miterlimit:10;" d="M 1042 151 L 1016.019531 196 L 1067.980469 196 L 1042 151 "/>
<path style="fill-rule:nonzero;fill:rgb(53%,27%,7%);fill-opacity:1;stroke-width:1;stroke-linecap:butt;stroke-linejoin:miter;stroke:rgb(0%,0%,0%);stroke-opacity:1;stroke-miterlimit:10;" d="M 934 384 L 908.019531 429 L 959.980469 429 L 934 384 "/>
<path style="fill-rule:nonzero;fill:rgb(53%,27%,7%);fill-opacity:1;stroke-width:1;stroke-linecap:butt;stroke-linejoin:miter;stroke:rgb(0%,0%,0%);stroke-opacity:1;stroke-miterlimit:10;" d="M 808.214844 237 C 808.214844 248.714844 798.714844 258.214844 787 258.214844 C 775.285156 258.214844 765.785156 248.714844 765.785156 237 C 765.785156 225.285156 775.285156 215.785156 787 215.785156 C 798.714844 215.785156 808.214844 225.285156 808.214844 237 "/>
<path style="fill-rule:nonzero;fill:rgb(53%,27%,7%);fill-opacity:1;stroke-width:1;stroke-linecap:butt;stroke-linejoin:miter;stroke:rgb(0%,0%,0%);stroke-opacity:1;stroke-miterlimit:10;" d="M 828.214844 88 C 828.214844 99.714844 818.714844 109.214844 807 109.214844 C 795.285156 109.214844 785.785156 99.714844 785.785156 88 C 785.785156 76.285156 795.285156 66.785156 807 66.785156 C 818.714844 66.785156 828.214844 76.285156 828.214844 88 "/>
</g>
</svg>
