<?xml version="1.0" encoding="UTF-8"?>
<svg xmlns="http://www.w3.org/2000/svg" xmlns:xlink="http://www.w3.org/1999/xlink" width="1179pt" height="517pt" viewBox="0 0 1179 517" version="1.1">
<g id="surface806">
<rect x="0" y="0" width="1179" height="517" style="fill:rgb(90%,90%,90%);fill-opacity:1;stroke:none;"/>
<path style="fill-rule:nonzero;fill:rgb(53%,27%,7%);fill-opacity:1;stroke-width:1;stroke-linecap:butt;stroke-linejoin:miter;stroke:rgb(0%,0%,0%);stroke-opacity:1;stroke-miterlimit:10;" d="M 115 71.601562 C 115 57.199219 91 57.199219 91 71.601562 C 91 86 115 88.398438 115 100.398438 C 115 88.398438 139 86 139 71.601562 C 139 57.199219 115 57.199219 115 71.601562 "/>
<path style="fill-rule:nonzero;fill:rgb(53%,27%,7%);fill-opacity:1;stroke-width:1;stroke-linecap:butt;stroke-linejoin:miter;stroke:rgb(0%,0%,0%);stroke-opacity:1;stroke-miterlimit:10;" d="M 352 261.601562 C 352 247.199219 328 247.199219 328 261.601562 C 328 276 352 278.398438 352 290.398438 C 352 278.398438 376 276 376 261.601562 C 376 247.199219 352 247.199219 352 261.601562 "/>
<path style="fill-rule:nonzero;fill:rgb(53%,27%,7%);fill-opacity:1;stroke-width:1;stroke-linecap:butt;stroke-linejoin:miter;stroke:rgb(0%,0%,0%);stroke-opacity:1;stroke-miterlimit:10;" d="M 332 85.601562 C 332 71.199219 308 71.199219 308 85.601562 C 308 100 332 102.398438 332 114.398438 C 332 102.398438 356 100 356 85.601562 C 356 71.199219 332 71.199219 332 85.601562 "/>
<path style="fill-rule:nonzero;fill:rgb(53%,27%,7%);fill-opacity:1;stroke-width:1;stroke-linecap:butt;stroke-linejoin:miter;stroke:rgb(0%,0%,0%);stroke-opacity:1;stroke-miterlimit:10;" d="M 301.214844 193 C 301.214844 204.714844 291.714844 214.214844 280 214.214844 C 268.285156 214.214844 258.785156 204.714844 258.785156 193 C 258.785156 181.285156 268.285156 171.785156 280 171.785156 C 291.714844 171.785156 301.214844 181.285156 301.214844 193 "/>
<path style="fill-rule:nonzero;fill:rgb(100%,51%,0%);fill-opacity:1;stroke-width:1;stroke-linecap:butt;stroke-linejoin:miter;stroke:rgb(0%,0%,0%);stroke-opacity:1;stroke-miterlimit:10;" d="M 875.214844 125 C 875.214844 136.714844 865.714844 146.214844 854 146.214844 C 842.285156 146.214844 832.785156 136.714844 832.785156 125 C 832.785156 113.285156 842.285156 103.785156 854 103.785156 C 865.714844 103.785156 875.214844 113.285156 875.214844 125 "/>
<path style="fill-rule:nonzero;fill:rgb(100%,51%,0%);fill-opacity:1;stroke-width:1;stroke-linecap:butt;stroke-linejoin:miter;stroke:rgb(0%,0%,0%);stroke-opacity:1;stroke-miterlimit:10;" d="M 865.214844 426 C 865.214844 437.714844 855.714844 447.214844 844 447.214844 C 832.285156 447.214844 822.785156 437.714844 822.785156 426 C 822.785156 414.285156 832.285156 404.785156 844 404.785156 C 855.714844 404.785156 865.214844 414.285156 865.214844 426 "/>
<path style="fill-rule:nonzero;fill:rgb(100%,51%,0%);fill-opacity:1;stroke-width:1;stroke-linecap:butt;stroke-linejoin:miter;stroke:rgb(0%,0%,0%);stroke-opacity:1;stroke-miterlimit:10;" d="M 718.214844 421 C 718.214844 432.714844 708.714844 442.214844 697 442.214844 C 685.285156 442.214844 675.785156 432.714844 675.785156 421 C 675.785156 409.285156 685.285156 399.785156 697 399.785156 C 708.714844 399.785156 718.214844 409.285156 718.214844 421 "/>
</g>
</svg>
