<?xml version="1.0" encoding="UTF-8"?>
<svg xmlns="http://www.w3.org/2000/svg" xmlns:xlink="http://www.w3.org/1999/xlink" width="1179pt" height="517pt" viewBox="0 0 1179 517" version="1.1">
<g id="surface731">
<rect x="0" y="0" width="1179" height="517" style="fill:rgb(90%,90%,90%);fill-opacity:1;stroke:none;"/>
<path style="fill-rule:nonzero;fill:rgb(35%,70%,90%);fill-opacity:1;stroke-width:1;stroke-linecap:butt;stroke-linejoin:miter;stroke:rgb(0%,0%,0%);stroke-opacity:1;stroke-miterlimit:10;" d="M 690 288 L 719.664062 288 L 731.664062 259.785156 L 743.664062 288 L 773.332031 288 L 749.332031 305.4375 L 757.417969 336.980469 L 731.664062 319.542969 L 705.914062 336.980469 L 718.214844 305.4375 L 690 288 "/>
<path style="fill-rule:nonzero;fill:rgb(35%,70%,90%);fill-opacity:1;stroke-width:1;stroke-linecap:butt;stroke-linejoin:miter;stroke:rgb(0%,0%,0%);stroke-opacity:1;stroke-miterlimit:10;" d="M 177 375 L 206.664062 375 L 218.664062 346.785156 L 230.664062 375 L 260.332031 375 L 236.332031 392.4375 L 244.417969 423.980469 L 218.664062 406.542969 L 192.914062 423.980469 L 205.214844 392.4375 L 177 375 "/>
<path style="fill-rule:nonzero;fill:rgb(35%,70%,90%);fill-opacity:1;stroke-width:1;stroke-linecap:butt;stroke-linejoin:miter;stroke:rgb(0%,0%,0%);stroke-opacity:1;stroke-miterlimit:10;" d="M 552 306 L 581.664062 306 L 593.664062 277.785156 L 605.664062 306 L 635.332031 306 L 611.332031 323.4375 L 619.417969 354.980469 L 593.664062 337.542969 L 567.914062 354.980469 L 580.214844 323.4375 L 552 306 "/>
<path style="fill-rule:nonzero;fill:rgb(35%,70%,90%);fill-opacity:1;stroke-width:1;stroke-linecap:butt;stroke-linejoin:miter;stroke:rgb(0%,0%,0%);stroke-opacity:1;stroke-miterlimit:10;" d="M 686 428 L 715.664062 428 L 727.664062 399.785156 L 739.664062 428 L 769.332031 428 L 745.332031 445.4375 L 753.417969 476.980469 L 727.664062 459.542969 L 701.914062 476.980469 L 714.214844 445.4375 L 686 428 "/>
<path style="fill-rule:nonzero;fill:rgb(55%,51%,53%);fill-opacity:1;stroke-width:1;stroke-linecap:butt;stroke-linejoin:miter;stroke:rgb(0%,0%,0%);stroke-opacity:1;stroke-miterlimit:10;" d="M 912.214844 258 C 912.214844 269.714844 902.714844 279.214844 891 279.214844 C 879.285156 279.214844 869.785156 269.714844 869.785156 258 C 869.785156 246.285156 879.285156 236.785156 891 236.785156 C 902.714844 236.785156 912.214844 246.285156 912.214844 258 "/>
<path style="fill-rule:nonzero;fill:rgb(55%,51%,53%);fill-opacity:1;stroke-width:1;stroke-linecap:butt;stroke-linejoin:miter;stroke:rgb(0%,0%,0%);stroke-opacity:1;stroke-miterlimit:10;" d="M 1063.214844 329 C 1063.214844 340.714844 1053.714844 350.214844 1042 350.214844 C 1030.285156 350.214844 1020.785156 340.714844 1020.785156 329 C 1020.785156 317.285156 1030.285156 307.785156 1042 307.785156 C 1053.714844 307.785156 1063.214844 317.285156 1063.214844 329 "/>
<path style="fill-rule:nonzero;fill:rgb(55%,51%,53%);fill-opacity:1;stroke-width:1;stroke-linecap:butt;stroke-linejoin:miter;stroke:rgb(0%,0%,0%);stroke-opacity:1;stroke-miterlimit:10;" d="M 372.214844 289 C 372.214844 300.714844 362.714844 310.214844 351 310.214844 C 339.285156 310.214844 329.785156 300.714844 329.785156 289 C 329.785156 277.285156 339.285156 267.785156 351 267.785156 C 362.714844 267.785156 372.214844 277.285156 372.214844 289 "/>
<path style="fill-rule:nonzero;fill:rgb(55%,51%,53%);fill-opacity:1;stroke-width:1;stroke-linecap:butt;stroke-linejoin:miter;stroke:rgb(0%,0%,0%);stroke-opacity:1;stroke-miterlimit:10;" d="M 1037.214844 122 C 1037.214844 133.714844 1027.714844 143.214844 1016 143.214844 C 1004.285156 143.214844 994.785156 133.714844 994.785156 122 C 994.785156 110.285156 1004.285156 100.785156 1016 100.785156 C 1027.714844 100.785156 1037.214844 110.285156 1037.214844 122 "/>
</g>
</svg>
