<?xml version="1.0" encoding="UTF-8"?>
<svg xmlns="http://www.w3.org/2000/svg" xmlns:xlink="http://www.w3.org/1999/xlink" width="1179pt" height="517pt" viewBox="0 0 1179 517" version="1.1">
<g id="surface106">
<rect x="0" y="0" width="1179" height="517" style="fill:rgb(90%,90%,90%);fill-opacity:1;stroke:none;"/>
<path style="fill-rule:nonzero;fill:rgb(100%,51%,0%);fill-opacity:1;stroke-width:1;stroke-linecap:butt;stroke-linejoin:miter;stroke:rgb(0%,0%,0%);stroke-opacity:1;stroke-miterlimit:10;" d="M 332.214844 289 C 332.214844 300.714844 322.714844 310.214844 311 310.214844 C 299.285156 310.214844 289.785156 300.714844 289.785156 289 C 289.785156 277.285156 299.285156 267.785156 311 267.785156 C 322.714844 267.785156 332.214844 277.285156 332.214844 289 "/>
<path style="fill-rule:nonzero;fill:rgb(100%,51%,0%);fill-opacity:1;stroke-width:1;stroke-linecap:butt;stroke-linejoin:miter;stroke:rgb(0%,0%,0%);stroke-opacity:1;stroke-miterlimit:10;" d="M 118.214844 96 C 118.214844 107.714844 108.714844 117.214844 97 117.214844 C 85.285156 117.214844 75.785156 107.714844 75.785156 96 C 75.785156 84.285156 85.285156 74.785156 97 74.785156 C 108.714844 74.785156 118.214844 84.285156 118.214844 96 "/>
<path style="fill-rule:nonzero;fill:rgb(100%,51%,0%);fill-opacity:1;stroke-width:1;stroke-linecap:butt;stroke-linejoin:miter;stroke:rgb(0%,0%,0%);stroke-opacity:1;stroke-miterlimit:10;" d="M 164 304 L 138.019531 349 L 189.980469 349 L 164 304 "/>
<path style="fill-rule:nonzero;fill:rgb(100%,51%,0%);fill-opacity:1;stroke-width:1;stroke-linecap:butt;stroke-linejoin:miter;stroke:rgb(0%,0%,0%);stroke-opacity:1;stroke-miterlimit:10;" d="M 430 190 L 404.019531 235 L 455.980469 235 L 430 190 "/>
<path style="fill-rule:nonzero;fill:rgb(53%,27%,7%);fill-opacity:1;stroke-width:1;stroke-linecap:butt;stroke-linejoin:miter;stroke:rgb(0%,0%,0%);stroke-opacity:1;stroke-miterlimit:10;" d="M 937 316 L 911.019531 361 L 962.980469 361 L 937 316 "/>
<path style="fill-rule:nonzero;fill:rgb(53%,27%,7%);fill-opacity:1;stroke-width:1;stroke-linecap:butt;stroke-linejoin:miter;stroke:rgb(0%,0%,0%);stroke-opacity:1;stroke-miterlimit:10;" d="M 701 127 L 675.019531 172 L 726.980469 172 L 701 127 "/>
<path style="fill-rule:nonzero;fill:rgb(53%,27%,7%);fill-opacity:1;stroke-width:1;stroke-linecap:butt;stroke-linejoin:miter;stroke:rgb(0%,0%,0%);stroke-opacity:1;stroke-miterlimit:10;" d="M 812.214844 205 C 812.214844 216.714844 802.714844 226.214844 791 226.214844 C 779.285156 226.214844 769.785156 216.714844 769.785156 205 C 769.785156 193.285156 779.285156 183.785156 791 183.785156 C 802.714844 183.785156 812.214844 193.285156 812.214844 205 "/>
</g>
</svg>
