<?xml version="1.0" encoding="UTF-8"?>
<svg xmlns="http://www.w3.org/2000/svg" xmlns:xlink="http://www.w3.org/1999/xlink" width="1179pt" height="517pt" viewBox="0 0 1179 517" version="1.1">
<g id="surface1181">
<rect x="0" y="0" width="1179" height="517" style="fill:rgb(90%,90%,90%);fill-opacity:1;stroke:none;"/>
<path style="fill-rule:nonzero;fill:rgb(35%,70%,90%);fill-opacity:1;stroke-width:1;stroke-linecap:butt;stroke-linejoin:miter;stroke:rgb(0%,0%,0%);stroke-opacity:1;stroke-miterlimit:10;" d="M 231.214844 430 C 231.214844 441.714844 221.714844 451.214844 210 451.214844 C 198.285156 451.214844 188.785156 441.714844 188.785156 430 C 188.785156 418.285156 198.285156 408.785156 210 408.785156 C 221.714844 408.785156 231.214844 418.285156 231.214844 430 "/>
<path style="fill-rule:nonzero;fill:rgb(35%,70%,90%);fill-opacity:1;stroke-width:1;stroke-linecap:butt;stroke-linejoin:miter;stroke:rgb(0%,0%,0%);stroke-opacity:1;stroke-miterlimit:10;" d="M 677.214844 155 C 677.214844 166.714844 667.714844 176.214844 656 176.214844 C 644.285156 176.214844 634.785156 166.714844 634.785156 155 C 634.785156 143.285156 644.285156 133.785156 656 133.785156 C 667.714844 133.785156 677.214844 143.285156 677.214844 155 "/>
<path style="fill-rule:nonzero;fill:rgb(35%,70%,90%);fill-opacity:1;stroke-width:1;stroke-linecap:butt;stroke-linejoin:miter;stroke:rgb(0%,0%,0%);stroke-opacity:1;stroke-miterlimit:10;" d="M 759.214844 398 C 759.214844 409.714844 749.714844 419.214844 738 419.214844 C 726.285156 419.214844 716.785156 409.714844 716.785156 398 C 716.785156 386.285156 726.285156 376.785156 738 376.785156 C 749.714844 376.785156 759.214844 386.285156 759.214844 398 "/>
<path style="fill-rule:nonzero;fill:rgb(35%,70%,90%);fill-opacity:1;stroke-width:1;stroke-linecap:butt;stroke-linejoin:miter;stroke:rgb(0%,0%,0%);stroke-opacity:1;stroke-miterlimit:10;" d="M 869.214844 299 C 869.214844 310.714844 859.714844 320.214844 848 320.214844 C 836.285156 320.214844 826.785156 310.714844 826.785156 299 C 826.785156 287.285156 836.285156 277.785156 848 277.785156 C 859.714844 277.785156 869.214844 287.285156 869.214844 299 "/>
<path style="fill-rule:nonzero;fill:rgb(55%,51%,53%);fill-opacity:1;stroke-width:1;stroke-linecap:butt;stroke-linejoin:miter;stroke:rgb(0%,0%,0%);stroke-opacity:1;stroke-miterlimit:10;" d="M 370 249 L 399.664062 249 L 411.664062 220.785156 L 423.664062 249 L 453.332031 249 L 429.332031 266.4375 L 437.417969 297.980469 L 411.664062 280.542969 L 385.914062 297.980469 L 398.214844 266.4375 L 370 249 "/>
<path style="fill-rule:nonzero;fill:rgb(55%,51%,53%);fill-opacity:1;stroke-width:1;stroke-linecap:butt;stroke-linejoin:miter;stroke:rgb(0%,0%,0%);stroke-opacity:1;stroke-miterlimit:10;" d="M 504 248 L 533.664062 248 L 545.664062 219.785156 L 557.664062 248 L 587.332031 248 L 563.332031 265.4375 L 571.417969 296.980469 L 545.664062 279.542969 L 519.914062 296.980469 L 532.214844 265.4375 L 504 248 "/>
<path style="fill-rule:nonzero;fill:rgb(55%,51%,53%);fill-opacity:1;stroke-width:1;stroke-linecap:butt;stroke-linejoin:miter;stroke:rgb(0%,0%,0%);stroke-opacity:1;stroke-miterlimit:10;" d="M 977 413 L 1006.664062 413 L 1018.664062 384.785156 L 1030.664062 413 L 1060.332031 413 L 1036.332031 430.4375 L 1044.417969 461.980469 L 1018.664062 444.542969 L 992.914062 461.980469 L 1005.214844 430.4375 L 977 413 "/>
<path style="fill-rule:nonzero;fill:rgb(55%,51%,53%);fill-opacity:1;stroke-width:1;stroke-linecap:butt;stroke-linejoin:miter;stroke:rgb(0%,0%,0%);stroke-opacity:1;stroke-miterlimit:10;" d="M 316 101 L 345.664062 101 L 357.664062 72.785156 L 369.664062 101 L 399.332031 101 L 375.332031 118.4375 L 383.417969 149.980469 L 357.664062 132.542969 L 331.914062 149.980469 L 344.214844 118.4375 L 316 101 "/>
</g>
</svg>
