<?xml version="1.0" encoding="UTF-8"?>
<svg xmlns="http://www.w3.org/2000/svg" xmlns:xlink="http://www.w3.org/1999/xlink" width="1179pt" height="517pt" viewBox="0 0 1179 517" version="1.1">
<g id="surface966">
<rect x="0" y="0" width="1179" height="517" style="fill:rgb(90%,90%,90%);fill-opacity:1;stroke:none;"/>
<path style="fill-rule:nonzero;fill:rgb(100%,51%,0%);fill-opacity:1;stroke-width:1;stroke-linecap:butt;stroke-linejoin:miter;stroke:rgb(0%,0%,0%);stroke-opacity:1;stroke-miterlimit:10;" d="M 944.214844 337 C 944.214844 348.714844 934.714844 358.214844 923 358.214844 C 911.285156 358.214844 901.785156 348.714844 901.785156 337 C 901.785156 325.285156 911.285156 315.785156 923 315.785156 C 934.714844 315.785156 944.214844 325.285156 944.214844 337 "/>
<path style="fill-rule:nonzero;fill:rgb(100%,51%,0%);fill-opacity:1;stroke-width:1;stroke-linecap:butt;stroke-linejoin:miter;stroke:rgb(0%,0%,0%);stroke-opacity:1;stroke-miterlimit:10;" d="M 938.214844 82 C 938.214844 93.714844 928.714844 103.214844 917 103.214844 C 905.285156 103.214844 895.785156 93.714844 895.785156 82 C 895.785156 70.285156 905.285156 60.785156 917 60.785156 C 928.714844 60.785156 938.214844 70.285156 938.214844 82 "/>
<path style="fill-rule:nonzero;fill:rgb(100%,51%,0%);fill-opacity:1;stroke-width:1;stroke-linecap:butt;stroke-linejoin:miter;stroke:rgb(0%,0%,0%);stroke-opacity:1;stroke-miterlimit:10;" d="M 421.214844 431 C 421.214844 442.714844 411.714844 452.214844 400 452.214844 C 388.285156 452.214844 378.785156 442.714844 378.785156 431 C 378.785156 419.285156 388.285156 409.785156 400 409.785156 C 411.714844 409.785156 421.214844 419.285156 421.214844 431 "/>
<path style="fill-rule:nonzero;fill:rgb(100%,51%,0%);fill-opacity:1;stroke-width:1;stroke-linecap:butt;stroke-linejoin:miter;stroke:rgb(0%,0%,0%);stroke-opacity:1;stroke-miterlimit:10;" d="M 418.214844 304 C 418.214844 315.714844 408.714844 325.214844 397 325.214844 C 385.285156 325.214844 375.785156 315.714844 375.785156 304 C 375.785156 292.285156 385.285156 282.785156 397 282.785156 C 408.714844 282.785156 418.214844 292.285156 418.214844 304 "/>
<path style="fill-rule:nonzero;fill:rgb(35%,70%,90%);fill-opacity:1;stroke-width:1;stroke-linecap:butt;stroke-linejoin:miter;stroke:rgb(0%,0%,0%);stroke-opacity:1;stroke-miterlimit:10;" d="M 326 194 L 355.664062 194 L 367.664062 165.785156 L 379.664062 194 L 409.332031 194 L 385.332031 211.4375 L 393.417969 242.980469 L 367.664062 225.542969 L 341.914062 242.980469 L 354.214844 211.4375 L 326 194 "/>
<path style="fill-rule:nonzero;fill:rgb(35%,70%,90%);fill-opacity:1;stroke-width:1;stroke-linecap:butt;stroke-linejoin:miter;stroke:rgb(0%,0%,0%);stroke-opacity:1;stroke-miterlimit:10;" d="M 770 406 L 799.664062 406 L 811.664062 377.785156 L 823.664062 406 L 853.332031 406 L 829.332031 423.4375 L 837.417969 454.980469 L 811.664062 437.542969 L 785.914062 454.980469 L 798.214844 423.4375 L 770 406 "/>
<path style="fill-rule:nonzero;fill:rgb(35%,70%,90%);fill-opacity:1;stroke-width:1;stroke-linecap:butt;stroke-linejoin:miter;stroke:rgb(0%,0%,0%);stroke-opacity:1;stroke-miterlimit:10;" d="M 698 301 L 727.664062 301 L 739.664062 272.785156 L 751.664062 301 L 781.332031 301 L 757.332031 318.4375 L 765.417969 349.980469 L 739.664062 332.542969 L 713.914062 349.980469 L 726.214844 318.4375 L 698 301 "/>
<path style="fill-rule:nonzero;fill:rgb(35%,70%,90%);fill-opacity:1;stroke-width:1;stroke-linecap:butt;stroke-linejoin:miter;stroke:rgb(0%,0%,0%);stroke-opacity:1;stroke-miterlimit:10;" d="M 245 350 L 274.664062 350 L 286.664062 321.785156 L 298.664062 350 L 328.332031 350 L 304.332031 367.4375 L 312.417969 398.980469 L 286.664062 381.542969 L 260.914062 398.980469 L 273.214844 367.4375 L 245 350 "/>
</g>
</svg>
