<?xml version="1.0" encoding="UTF-8"?>
<svg xmlns="http://www.w3.org/2000/svg" xmlns:xlink="http://www.w3.org/1999/xlink" width="1179pt" height="517pt" viewBox="0 0 1179 517" version="1.1">
<g id="surface231">
<rect x="0" y="0" width="1179" height="517" style="fill:rgb(90%,90%,90%);fill-opacity:1;stroke:none;"/>
<path style="fill-rule:nonzero;fill:rgb(35%,70%,90%);fill-opacity:1;stroke-width:1;stroke-linecap:butt;stroke-linejoin:miter;stroke:rgb(0%,0%,0%);stroke-opacity:1;stroke-miterlimit:10;" d="M 126.214844 99 C 126.214844 110.714844 116.714844 120.214844 105 120.214844 C 93.285156 120.214844 83.785156 110.714844 83.785156 99 C 83.785156 87.285156 93.285156 77.785156 105 77.785156 C 116.714844 77.785156 126.214844 87.285156 126.214844 99 "/>
<path style="fill-rule:nonzero;fill:rgb(35%,70%,90%);fill-opacity:1;stroke-width:1;stroke-linecap:butt;stroke-linejoin:miter;stroke:rgb(0%,0%,0%);stroke-opacity:1;stroke-miterlimit:10;" d="M 367.214844 421 C 367.214844 432.714844 357.714844 442.214844 346 442.214844 C 334.285156 442.214844 324.785156 432.714844 324.785156 421 C 324.785156 409.285156 334.285156 399.785156 346 399.785156 C 357.714844 399.785156 367.214844 409.285156 367.214844 421 "/>
<path style="fill-rule:nonzero;fill:rgb(35%,70%,90%);fill-opacity:1;stroke-width:1;stroke-linecap:butt;stroke-linejoin:miter;stroke:rgb(0%,0%,0%);stroke-opacity:1;stroke-miterlimit:10;" d="M 410.785156 211.785156 L 410.785156 254.214844 L 453.214844 254.214844 L 453.214844 211.785156 L 410.785156 211.785156 "/>
<path style="fill-rule:nonzero;fill:rgb(35%,70%,90%);fill-opacity:1;stroke-width:1;stroke-linecap:butt;stroke-linejoin:miter;stroke:rgb(0%,0%,0%);stroke-opacity:1;stroke-miterlimit:10;" d="M 237.785156 142.785156 L 237.785156 185.214844 L 280.214844 185.214844 L 280.214844 142.785156 L 237.785156 142.785156 "/>
<path style="fill-rule:nonzero;fill:rgb(53%,27%,7%);fill-opacity:1;stroke-width:1;stroke-linecap:butt;stroke-linejoin:miter;stroke:rgb(0%,0%,0%);stroke-opacity:1;stroke-miterlimit:10;" d="M 936.785156 58.785156 L 936.785156 101.214844 L 979.214844 101.214844 L 979.214844 58.785156 L 936.785156 58.785156 "/>
<path style="fill-rule:nonzero;fill:rgb(53%,27%,7%);fill-opacity:1;stroke-width:1;stroke-linecap:butt;stroke-linejoin:miter;stroke:rgb(0%,0%,0%);stroke-opacity:1;stroke-miterlimit:10;" d="M 933.785156 166.785156 L 933.785156 209.214844 L 976.214844 209.214844 L 976.214844 166.785156 L 933.785156 166.785156 "/>
<path style="fill-rule:nonzero;fill:rgb(53%,27%,7%);fill-opacity:1;stroke-width:1;stroke-linecap:butt;stroke-linejoin:miter;stroke:rgb(0%,0%,0%);stroke-opacity:1;stroke-miterlimit:10;" d="M 810.214844 126 C 810.214844 137.714844 800.714844 147.214844 789 147.214844 C 777.285156 147.214844 767.785156 137.714844 767.785156 126 C 767.785156 114.285156 777.285156 104.785156 789 104.785156 C 800.714844 104.785156 810.214844 114.285156 810.214844 126 "/>
<path style="fill-rule:nonzero;fill:rgb(53%,27%,7%);fill-opacity:1;stroke-width:1;stroke-linecap:butt;stroke-linejoin:miter;stroke:rgb(0%,0%,0%);stroke-opacity:1;stroke-miterlimit:10;" d="M 829.214844 321 C 829.214844 332.714844 819.714844 342.214844 808 342.214844 C 796.285156 342.214844 786.785156 332.714844 786.785156 321 C 786.785156 309.285156 796.285156 299.785156 808 299.785156 C 819.714844 299.785156 829.214844 309.285156 829.214844 321 "/>
</g>
</svg>
