<?xml version="1.0" encoding="UTF-8"?>
<svg xmlns="http://www.w3.org/2000/svg" xmlns:xlink="http://www.w3.org/1999/xlink" width="1179pt" height="517pt" viewBox="0 0 1179 517" version="1.1">
<g id="surface556">
<rect x="0" y="0" width="1179" height="517" style="fill:rgb(90%,90%,90%);fill-opacity:1;stroke:none;"/>
<path style="fill-rule:nonzero;fill:rgb(35%,70%,90%);fill-opacity:1;stroke-width:1;stroke-linecap:butt;stroke-linejoin:miter;stroke:rgb(0%,0%,0%);stroke-opacity:1;stroke-miterlimit:10;" d="M 282.214844 274 C 282.214844 285.714844 272.714844 295.214844 261 295.214844 C 249.285156 295.214844 239.785156 285.714844 239.785156 274 C 239.785156 262.285156 249.285156 252.785156 261 252.785156 C 272.714844 252.785156 282.214844 262.285156 282.214844 274 "/>
<path style="fill-rule:nonzero;fill:rgb(35%,70%,90%);fill-opacity:1;stroke-width:1;stroke-linecap:butt;stroke-linejoin:miter;stroke:rgb(0%,0%,0%);stroke-opacity:1;stroke-miterlimit:10;" d="M 199.214844 409 C 199.214844 420.714844 189.714844 430.214844 178 430.214844 C 166.285156 430.214844 156.785156 420.714844 156.785156 409 C 156.785156 397.285156 166.285156 387.785156 178 387.785156 C 189.714844 387.785156 199.214844 397.285156 199.214844 409 "/>
<path style="fill-rule:nonzero;fill:rgb(35%,70%,90%);fill-opacity:1;stroke-width:1;stroke-linecap:butt;stroke-linejoin:miter;stroke:rgb(0%,0%,0%);stroke-opacity:1;stroke-miterlimit:10;" d="M 392.214844 363 C 392.214844 374.714844 382.714844 384.214844 371 384.214844 C 359.285156 384.214844 349.785156 374.714844 349.785156 363 C 349.785156 351.285156 359.285156 341.785156 371 341.785156 C 382.714844 341.785156 392.214844 351.285156 392.214844 363 "/>
<path style="fill-rule:nonzero;fill:rgb(100%,51%,0%);fill-opacity:1;stroke-width:1;stroke-linecap:butt;stroke-linejoin:miter;stroke:rgb(0%,0%,0%);stroke-opacity:1;stroke-miterlimit:10;" d="M 131.214844 183 C 131.214844 194.714844 121.714844 204.214844 110 204.214844 C 98.285156 204.214844 88.785156 194.714844 88.785156 183 C 88.785156 171.285156 98.285156 161.785156 110 161.785156 C 121.714844 161.785156 131.214844 171.285156 131.214844 183 "/>
<path style="fill-rule:nonzero;fill:rgb(35%,70%,90%);fill-opacity:1;stroke-width:1;stroke-linecap:butt;stroke-linejoin:miter;stroke:rgb(0%,0%,0%);stroke-opacity:1;stroke-miterlimit:10;" d="M 200.214844 102 C 200.214844 113.714844 190.714844 123.214844 179 123.214844 C 167.285156 123.214844 157.785156 113.714844 157.785156 102 C 157.785156 90.285156 167.285156 80.785156 179 80.785156 C 190.714844 80.785156 200.214844 90.285156 200.214844 102 "/>
<path style="fill-rule:nonzero;fill:rgb(100%,51%,0%);fill-opacity:1;stroke-width:1;stroke-linecap:butt;stroke-linejoin:miter;stroke:rgb(0%,0%,0%);stroke-opacity:1;stroke-miterlimit:10;" d="M 767 213 L 741.019531 258 L 792.980469 258 L 767 213 "/>
<path style="fill-rule:nonzero;fill:rgb(100%,51%,0%);fill-opacity:1;stroke-width:1;stroke-linecap:butt;stroke-linejoin:miter;stroke:rgb(0%,0%,0%);stroke-opacity:1;stroke-miterlimit:10;" d="M 828 391 L 802.019531 436 L 853.980469 436 L 828 391 "/>
<path style="fill-rule:nonzero;fill:rgb(100%,51%,0%);fill-opacity:1;stroke-width:1;stroke-linecap:butt;stroke-linejoin:miter;stroke:rgb(0%,0%,0%);stroke-opacity:1;stroke-miterlimit:10;" d="M 957 396 L 931.019531 441 L 982.980469 441 L 957 396 "/>
<path style="fill-rule:nonzero;fill:rgb(35%,70%,90%);fill-opacity:1;stroke-width:1;stroke-linecap:butt;stroke-linejoin:miter;stroke:rgb(0%,0%,0%);stroke-opacity:1;stroke-miterlimit:10;" d="M 1044 355 L 1018.019531 400 L 1069.980469 400 L 1044 355 "/>
</g>
</svg>
