<?xml version="1.0" encoding="UTF-8"?>
<svg xmlns="http://www.w3.org/2000/svg" xmlns:xlink="http://www.w3.org/1999/xlink" width="1179pt" height="517pt" viewBox="0 0 1179 517" version="1.1">
<g id="surface861">
<rect x="0" y="0" width="1179" height="517" style="fill:rgb(90%,90%,90%);fill-opacity:1;stroke:none;"/>
<path style="fill-rule:nonzero;fill:rgb(55%,51%,53%);fill-opacity:1;stroke-width:1;stroke-linecap:butt;stroke-linejoin:miter;stroke:rgb(0%,0%,0%);stroke-opacity:1;stroke-miterlimit:10;" d="M 272 182 L 246.019531 227 L 297.980469 227 L 272 182 "/>
<path style="fill-rule:nonzero;fill:rgb(55%,51%,53%);fill-opacity:1;stroke-width:1;stroke-linecap:butt;stroke-linejoin:miter;stroke:rgb(0%,0%,0%);stroke-opacity:1;stroke-miterlimit:10;" d="M 87 302 L 61.019531 347 L 112.980469 347 L 87 302 "/>
<path style="fill-rule:nonzero;fill:rgb(55%,51%,53%);fill-opacity:1;stroke-width:1;stroke-linecap:butt;stroke-linejoin:miter;stroke:rgb(0%,0%,0%);stroke-opacity:1;stroke-miterlimit:10;" d="M 750 320 L 724.019531 365 L 775.980469 365 L 750 320 "/>
<path style="fill-rule:nonzero;fill:rgb(55%,51%,53%);fill-opacity:1;stroke-width:1;stroke-linecap:butt;stroke-linejoin:miter;stroke:rgb(0%,0%,0%);stroke-opacity:1;stroke-miterlimit:10;" d="M 176 94 L 205.664062 94 L 217.664062 65.785156 L 229.664062 94 L 259.332031 94 L 235.332031 111.4375 L 243.417969 142.980469 L 217.664062 125.542969 L 191.914062 142.980469 L 204.214844 111.4375 L 176 94 "/>
<path style="fill-rule:nonzero;fill:rgb(55%,51%,53%);fill-opacity:1;stroke-width:1;stroke-linecap:butt;stroke-linejoin:miter;stroke:rgb(0%,0%,0%);stroke-opacity:1;stroke-miterlimit:10;" d="M 542 232 L 571.664062 232 L 583.664062 203.785156 L 595.664062 232 L 625.332031 232 L 601.332031 249.4375 L 609.417969 280.980469 L 583.664062 263.542969 L 557.914062 280.980469 L 570.214844 249.4375 L 542 232 "/>
<path style="fill-rule:nonzero;fill:rgb(55%,51%,53%);fill-opacity:1;stroke-width:1;stroke-linecap:butt;stroke-linejoin:miter;stroke:rgb(0%,0%,0%);stroke-opacity:1;stroke-miterlimit:10;" d="M 919 400 L 948.664062 400 L 960.664062 371.785156 L 972.664062 400 L 1002.332031 400 L 978.332031 417.4375 L 986.417969 448.980469 L 960.664062 431.542969 L 934.914062 448.980469 L 947.214844 417.4375 L 919 400 "/>
</g>
</svg>
