<?xml version="1.0" encoding="UTF-8"?>
<svg xmlns="http://www.w3.org/2000/svg" xmlns:xlink="http://www.w3.org/1999/xlink" width="1179pt" height="517pt" viewBox="0 0 1179 517" version="1.1">
<g id="surface1361">
<rect x="0" y="0" width="1179" height="517" style="fill:rgb(90%,90%,90%);fill-opacity:1;stroke:none;"/>
<path style="fill-rule:nonzero;fill:rgb(35%,70%,90%);fill-opacity:1;stroke-width:1;stroke-linecap:butt;stroke-linejoin:miter;stroke:rgb(0%,0%,0%);stroke-opacity:1;stroke-miterlimit:10;" d="M 630.214844 432 C 630.214844 443.714844 620.714844 453.214844 609 453.214844 C 597.285156 453.214844 587.785156 443.714844 587.785156 432 C 587.785156 420.285156 597.285156 410.785156 609 410.785156 C 620.714844 410.785156 630.214844 420.285156 630.214844 432 "/>
<path style="fill-rule:nonzero;fill:rgb(35%,70%,90%);fill-opacity:1;stroke-width:1;stroke-linecap:butt;stroke-linejoin:miter;stroke:rgb(0%,0%,0%);stroke-opacity:1;stroke-miterlimit:10;" d="M 956.214844 304 C 956.214844 315.714844 946.714844 325.214844 935 325.214844 C 923.285156 325.214844 913.785156 315.714844 913.785156 304 C 913.785156 292.285156 923.285156 282.785156 935 282.785156 C 946.714844 282.785156 956.214844 292.285156 956.214844 304 "/>
<path style="fill-rule:nonzero;fill:rgb(35%,70%,90%);fill-opacity:1;stroke-width:1;stroke-linecap:butt;stroke-linejoin:miter;stroke:rgb(0%,0%,0%);stroke-opacity:1;stroke-miterlimit:10;" d="M 377.214844 118 C 377.214844 129.714844 367.714844 139.214844 356 139.214844 C 344.285156 139.214844 334.785156 129.714844 334.785156 118 C 334.785156 106.285156 344.285156 96.785156 356 96.785156 C 367.714844 96.785156 377.214844 106.285156 377.214844 118 "/>
<path style="fill-rule:nonzero;fill:rgb(35%,70%,90%);fill-opacity:1;stroke-width:1;stroke-linecap:butt;stroke-linejoin:miter;stroke:rgb(0%,0%,0%);stroke-opacity:1;stroke-miterlimit:10;" d="M 119.214844 397 C 119.214844 408.714844 109.714844 418.214844 98 418.214844 C 86.285156 418.214844 76.785156 408.714844 76.785156 397 C 76.785156 385.285156 86.285156 375.785156 98 375.785156 C 109.714844 375.785156 119.214844 385.285156 119.214844 397 "/>
<path style="fill-rule:nonzero;fill:rgb(55%,51%,53%);fill-opacity:1;stroke-width:1;stroke-linecap:butt;stroke-linejoin:miter;stroke:rgb(0%,0%,0%);stroke-opacity:1;stroke-miterlimit:10;" d="M 722 246 L 751.664062 246 L 763.664062 217.785156 L 775.664062 246 L 805.332031 246 L 781.332031 263.4375 L 789.417969 294.980469 L 763.664062 277.542969 L 737.914062 294.980469 L 750.214844 263.4375 L 722 246 "/>
<path style="fill-rule:nonzero;fill:rgb(55%,51%,53%);fill-opacity:1;stroke-width:1;stroke-linecap:butt;stroke-linejoin:miter;stroke:rgb(0%,0%,0%);stroke-opacity:1;stroke-miterlimit:10;" d="M 82 195 L 111.664062 195 L 123.664062 166.785156 L 135.664062 195 L 165.332031 195 L 141.332031 212.4375 L 149.417969 243.980469 L 123.664062 226.542969 L 97.914062 243.980469 L 110.214844 212.4375 L 82 195 "/>
<path style="fill-rule:nonzero;fill:rgb(55%,51%,53%);fill-opacity:1;stroke-width:1;stroke-linecap:butt;stroke-linejoin:miter;stroke:rgb(0%,0%,0%);stroke-opacity:1;stroke-miterlimit:10;" d="M 909 93 L 938.664062 93 L 950.664062 64.785156 L 962.664062 93 L 992.332031 93 L 968.332031 110.4375 L 976.417969 141.980469 L 950.664062 124.542969 L 924.914062 141.980469 L 937.214844 110.4375 L 909 93 "/>
<path style="fill-rule:nonzero;fill:rgb(55%,51%,53%);fill-opacity:1;stroke-width:1;stroke-linecap:butt;stroke-linejoin:miter;stroke:rgb(0%,0%,0%);stroke-opacity:1;stroke-miterlimit:10;" d="M 845 211 L 874.664062 211 L 886.664062 182.785156 L 898.664062 211 L 928.332031 211 L 904.332031 228.4375 L 912.417969 259.980469 L 886.664062 242.542969 L 860.914062 259.980469 L 873.214844 228.4375 L 845 211 "/>
</g>
</svg>
