<?xml version="1.0" encoding="UTF-8"?>
<svg xmlns="http://www.w3.org/2000/svg" xmlns:xlink="http://www.w3.org/1999/xlink" width="1179pt" height="517pt" viewBox="0 0 1179 517" version="1.1">
<g id="surface1396">
<rect x="0" y="0" width="1179" height="517" style="fill:rgb(90%,90%,90%);fill-opacity:1;stroke:none;"/>
<path style="fill-rule:nonzero;fill:rgb(35%,70%,90%);fill-opacity:1;stroke-width:1;stroke-linecap:butt;stroke-linejoin:miter;stroke:rgb(0%,0%,0%);stroke-opacity:1;stroke-miterlimit:10;" d="M 97 292.601562 C 97 278.199219 73 278.199219 73 292.601562 C 73 307 97 309.398438 97 321.398438 C 97 309.398438 121 307 121 292.601562 C 121 278.199219 97 278.199219 97 292.601562 "/>
<path style="fill-rule:nonzero;fill:rgb(35%,70%,90%);fill-opacity:1;stroke-width:1;stroke-linecap:butt;stroke-linejoin:miter;stroke:rgb(0%,0%,0%);stroke-opacity:1;stroke-miterlimit:10;" d="M 454 254.601562 C 454 240.199219 430 240.199219 430 254.601562 C 430 269 454 271.398438 454 283.398438 C 454 271.398438 478 269 478 254.601562 C 478 240.199219 454 240.199219 454 254.601562 "/>
<path style="fill-rule:nonzero;fill:rgb(35%,70%,90%);fill-opacity:1;stroke-width:1;stroke-linecap:butt;stroke-linejoin:miter;stroke:rgb(0%,0%,0%);stroke-opacity:1;stroke-miterlimit:10;" d="M 603 323.601562 C 603 309.199219 579 309.199219 579 323.601562 C 579 338 603 340.398438 603 352.398438 C 603 340.398438 627 338 627 323.601562 C 627 309.199219 603 309.199219 603 323.601562 "/>
<path style="fill-rule:nonzero;fill:rgb(35%,70%,90%);fill-opacity:1;stroke-width:1;stroke-linecap:butt;stroke-linejoin:miter;stroke:rgb(0%,0%,0%);stroke-opacity:1;stroke-miterlimit:10;" d="M 454 101.601562 C 454 87.199219 430 87.199219 430 101.601562 C 430 116 454 118.398438 454 130.398438 C 454 118.398438 478 116 478 101.601562 C 478 87.199219 454 87.199219 454 101.601562 "/>
<path style="fill-rule:nonzero;fill:rgb(35%,70%,90%);fill-opacity:1;stroke-width:1;stroke-linecap:butt;stroke-linejoin:miter;stroke:rgb(0%,0%,0%);stroke-opacity:1;stroke-miterlimit:10;" d="M 893 91.601562 C 893 77.199219 869 77.199219 869 91.601562 C 869 106 893 108.398438 893 120.398438 C 893 108.398438 917 106 917 91.601562 C 917 77.199219 893 77.199219 893 91.601562 "/>
<path style="fill-rule:nonzero;fill:rgb(53%,27%,7%);fill-opacity:1;stroke-width:1;stroke-linecap:butt;stroke-linejoin:miter;stroke:rgb(0%,0%,0%);stroke-opacity:1;stroke-miterlimit:10;" d="M 751.214844 386 C 751.214844 397.714844 741.714844 407.214844 730 407.214844 C 718.285156 407.214844 708.785156 397.714844 708.785156 386 C 708.785156 374.285156 718.285156 364.785156 730 364.785156 C 741.714844 364.785156 751.214844 374.285156 751.214844 386 "/>
<path style="fill-rule:nonzero;fill:rgb(53%,27%,7%);fill-opacity:1;stroke-width:1;stroke-linecap:butt;stroke-linejoin:miter;stroke:rgb(0%,0%,0%);stroke-opacity:1;stroke-miterlimit:10;" d="M 1010.214844 281 C 1010.214844 292.714844 1000.714844 302.214844 989 302.214844 C 977.285156 302.214844 967.785156 292.714844 967.785156 281 C 967.785156 269.285156 977.285156 259.785156 989 259.785156 C 1000.714844 259.785156 1010.214844 269.285156 1010.214844 281 "/>
<path style="fill-rule:nonzero;fill:rgb(53%,27%,7%);fill-opacity:1;stroke-width:1;stroke-linecap:butt;stroke-linejoin:miter;stroke:rgb(0%,0%,0%);stroke-opacity:1;stroke-miterlimit:10;" d="M 329.214844 113 C 329.214844 124.714844 319.714844 134.214844 308 134.214844 C 296.285156 134.214844 286.785156 124.714844 286.785156 113 C 286.785156 101.285156 296.285156 91.785156 308 91.785156 C 319.714844 91.785156 329.214844 101.285156 329.214844 113 "/>
</g>
</svg>
