<?xml version="1.0" encoding="UTF-8"?>
<svg xmlns="http://www.w3.org/2000/svg" xmlns:xlink="http://www.w3.org/1999/xlink" width="1179pt" height="517pt" viewBox="0 0 1179 517" version="1.1">
<g id="surface216">
<rect x="0" y="0" width="1179" height="517" style="fill:rgb(90%,90%,90%);fill-opacity:1;stroke:none;"/>
<path style="fill-rule:nonzero;fill:rgb(35%,70%,90%);fill-opacity:1;stroke-width:1;stroke-linecap:butt;stroke-linejoin:miter;stroke:rgb(0%,0%,0%);stroke-opacity:1;stroke-miterlimit:10;" d="M 932 370 L 961.664062 370 L 973.664062 341.785156 L 985.664062 370 L 1015.332031 370 L 991.332031 387.4375 L 999.417969 418.980469 L 973.664062 401.542969 L 947.914062 418.980469 L 960.214844 387.4375 L 932 370 "/>
<path style="fill-rule:nonzero;fill:rgb(35%,70%,90%);fill-opacity:1;stroke-width:1;stroke-linecap:butt;stroke-linejoin:miter;stroke:rgb(0%,0%,0%);stroke-opacity:1;stroke-miterlimit:10;" d="M 762 365 L 791.664062 365 L 803.664062 336.785156 L 815.664062 365 L 845.332031 365 L 821.332031 382.4375 L 829.417969 413.980469 L 803.664062 396.542969 L 777.914062 413.980469 L 790.214844 382.4375 L 762 365 "/>
<path style="fill-rule:nonzero;fill:rgb(35%,70%,90%);fill-opacity:1;stroke-width:1;stroke-linecap:butt;stroke-linejoin:miter;stroke:rgb(0%,0%,0%);stroke-opacity:1;stroke-miterlimit:10;" d="M 913 232 L 942.664062 232 L 954.664062 203.785156 L 966.664062 232 L 996.332031 232 L 972.332031 249.4375 L 980.417969 280.980469 L 954.664062 263.542969 L 928.914062 280.980469 L 941.214844 249.4375 L 913 232 "/>
<path style="fill-rule:nonzero;fill:rgb(53%,27%,7%);fill-opacity:1;stroke-width:1;stroke-linecap:butt;stroke-linejoin:miter;stroke:rgb(0%,0%,0%);stroke-opacity:1;stroke-miterlimit:10;" d="M 398 322 L 372.019531 367 L 423.980469 367 L 398 322 "/>
<path style="fill-rule:nonzero;fill:rgb(53%,27%,7%);fill-opacity:1;stroke-width:1;stroke-linecap:butt;stroke-linejoin:miter;stroke:rgb(0%,0%,0%);stroke-opacity:1;stroke-miterlimit:10;" d="M 527 170 L 501.019531 215 L 552.980469 215 L 527 170 "/>
<path style="fill-rule:nonzero;fill:rgb(53%,27%,7%);fill-opacity:1;stroke-width:1;stroke-linecap:butt;stroke-linejoin:miter;stroke:rgb(0%,0%,0%);stroke-opacity:1;stroke-miterlimit:10;" d="M 374 126 L 348.019531 171 L 399.980469 171 L 374 126 "/>
<path style="fill-rule:nonzero;fill:rgb(53%,27%,7%);fill-opacity:1;stroke-width:1;stroke-linecap:butt;stroke-linejoin:miter;stroke:rgb(0%,0%,0%);stroke-opacity:1;stroke-miterlimit:10;" d="M 798 141 L 772.019531 186 L 823.980469 186 L 798 141 "/>
</g>
</svg>
