<?xml version="1.0" encoding="UTF-8"?>
<svg xmlns="http://www.w3.org/2000/svg" xmlns:xlink="http://www.w3.org/1999/xlink" width="1179pt" height="517pt" viewBox="0 0 1179 517" version="1.1">
<g id="surface1411">
<rect x="0" y="0" width="1179" height="517" style="fill:rgb(90%,90%,90%);fill-opacity:1;stroke:none;"/>
<path style="fill-rule:nonzero;fill:rgb(53%,27%,7%);fill-opacity:1;stroke-width:1;stroke-linecap:butt;stroke-linejoin:miter;stroke:rgb(0%,0%,0%);stroke-opacity:1;stroke-miterlimit:10;" d="M 803.214844 368 C 803.214844 379.714844 793.714844 389.214844 782 389.214844 C 770.285156 389.214844 760.785156 379.714844 760.785156 368 C 760.785156 356.285156 770.285156 346.785156 782 346.785156 C 793.714844 346.785156 803.214844 356.285156 803.214844 368 "/>
<path style="fill-rule:nonzero;fill:rgb(53%,27%,7%);fill-opacity:1;stroke-width:1;stroke-linecap:butt;stroke-linejoin:miter;stroke:rgb(0%,0%,0%);stroke-opacity:1;stroke-miterlimit:10;" d="M 165.214844 128 C 165.214844 139.714844 155.714844 149.214844 144 149.214844 C 132.285156 149.214844 122.785156 139.714844 122.785156 128 C 122.785156 116.285156 132.285156 106.785156 144 106.785156 C 155.714844 106.785156 165.214844 116.285156 165.214844 128 "/>
<path style="fill-rule:nonzero;fill:rgb(53%,27%,7%);fill-opacity:1;stroke-width:1;stroke-linecap:butt;stroke-linejoin:miter;stroke:rgb(0%,0%,0%);stroke-opacity:1;stroke-miterlimit:10;" d="M 249.214844 229 C 249.214844 240.714844 239.714844 250.214844 228 250.214844 C 216.285156 250.214844 206.785156 240.714844 206.785156 229 C 206.785156 217.285156 216.285156 207.785156 228 207.785156 C 239.714844 207.785156 249.214844 217.285156 249.214844 229 "/>
<path style="fill-rule:nonzero;fill:rgb(53%,27%,7%);fill-opacity:1;stroke-width:1;stroke-linecap:butt;stroke-linejoin:miter;stroke:rgb(0%,0%,0%);stroke-opacity:1;stroke-miterlimit:10;" d="M 1002.214844 419 C 1002.214844 430.714844 992.714844 440.214844 981 440.214844 C 969.285156 440.214844 959.785156 430.714844 959.785156 419 C 959.785156 407.285156 969.285156 397.785156 981 397.785156 C 992.714844 397.785156 1002.214844 407.285156 1002.214844 419 "/>
<path style="fill-rule:nonzero;fill:rgb(55%,51%,53%);fill-opacity:1;stroke-width:1;stroke-linecap:butt;stroke-linejoin:miter;stroke:rgb(0%,0%,0%);stroke-opacity:1;stroke-miterlimit:10;" d="M 488 228 L 462.019531 273 L 513.980469 273 L 488 228 "/>
<path style="fill-rule:nonzero;fill:rgb(55%,51%,53%);fill-opacity:1;stroke-width:1;stroke-linecap:butt;stroke-linejoin:miter;stroke:rgb(0%,0%,0%);stroke-opacity:1;stroke-miterlimit:10;" d="M 920 257 L 894.019531 302 L 945.980469 302 L 920 257 "/>
<path style="fill-rule:nonzero;fill:rgb(55%,51%,53%);fill-opacity:1;stroke-width:1;stroke-linecap:butt;stroke-linejoin:miter;stroke:rgb(0%,0%,0%);stroke-opacity:1;stroke-miterlimit:10;" d="M 358 51 L 332.019531 96 L 383.980469 96 L 358 51 "/>
</g>
</svg>
