<?xml version="1.0" encoding="UTF-8"?>
<svg xmlns="http://www.w3.org/2000/svg" xmlns:xlink="http://www.w3.org/1999/xlink" width="1179pt" height="517pt" viewBox="0 0 1179 517" version="1.1">
<g id="surface981">
<rect x="0" y="0" width="1179" height="517" style="fill:rgb(90%,90%,90%);fill-opacity:1;stroke:none;"/>
<path style="fill-rule:nonzero;fill:rgb(100%,0%,0%);fill-opacity:1;stroke-width:1;stroke-linecap:butt;stroke-linejoin:miter;stroke:rgb(0%,0%,0%);stroke-opacity:1;stroke-miterlimit:10;" d="M 156 384.601562 C 156 370.199219 132 370.199219 132 384.601562 C 132 399 156 401.398438 156 413.398438 C 156 401.398438 180 399 180 384.601562 C 180 370.199219 156 370.199219 156 384.601562 "/>
<path style="fill-rule:nonzero;fill:rgb(100%,0%,0%);fill-opacity:1;stroke-width:1;stroke-linecap:butt;stroke-linejoin:miter;stroke:rgb(0%,0%,0%);stroke-opacity:1;stroke-miterlimit:10;" d="M 808 330.601562 C 808 316.199219 784 316.199219 784 330.601562 C 784 345 808 347.398438 808 359.398438 C 808 347.398438 832 345 832 330.601562 C 832 316.199219 808 316.199219 808 330.601562 "/>
<path style="fill-rule:nonzero;fill:rgb(100%,0%,0%);fill-opacity:1;stroke-width:1;stroke-linecap:butt;stroke-linejoin:miter;stroke:rgb(0%,0%,0%);stroke-opacity:1;stroke-miterlimit:10;" d="M 163 227.601562 C 163 213.199219 139 213.199219 139 227.601562 C 139 242 163 244.398438 163 256.398438 C 163 244.398438 187 242 187 227.601562 C 187 213.199219 163 213.199219 163 227.601562 "/>
<path style="fill-rule:nonzero;fill:rgb(100%,0%,0%);fill-opacity:1;stroke-width:1;stroke-linecap:butt;stroke-linejoin:miter;stroke:rgb(0%,0%,0%);stroke-opacity:1;stroke-miterlimit:10;" d="M 989 355.601562 C 989 341.199219 965 341.199219 965 355.601562 C 965 370 989 372.398438 989 384.398438 C 989 372.398438 1013 370 1013 355.601562 C 1013 341.199219 989 341.199219 989 355.601562 "/>
<path style="fill-rule:nonzero;fill:rgb(100%,0%,0%);fill-opacity:1;stroke-width:1;stroke-linecap:butt;stroke-linejoin:miter;stroke:rgb(0%,0%,0%);stroke-opacity:1;stroke-miterlimit:10;" d="M 321 97.601562 C 321 83.199219 297 83.199219 297 97.601562 C 297 112 321 114.398438 321 126.398438 C 321 114.398438 345 112 345 97.601562 C 345 83.199219 321 83.199219 321 97.601562 "/>
<path style="fill-rule:nonzero;fill:rgb(0%,0%,0%);fill-opacity:1;stroke-width:1;stroke-linecap:butt;stroke-linejoin:miter;stroke:rgb(0%,0%,0%);stroke-opacity:1;stroke-miterlimit:10;" d="M 613 98 L 593 98 L 593 108 L 613 108 L 613 128 L 623 128 L 623 108 L 643 108 L 643 98 L 623 98 L 623 78 L 613 78 L 613 98 "/>
<path style="fill-rule:nonzero;fill:rgb(0%,0%,0%);fill-opacity:1;stroke-width:1;stroke-linecap:butt;stroke-linejoin:miter;stroke:rgb(0%,0%,0%);stroke-opacity:1;stroke-miterlimit:10;" d="M 620 393 L 600 393 L 600 403 L 620 403 L 620 423 L 630 423 L 630 403 L 650 403 L 650 393 L 630 393 L 630 373 L 620 373 L 620 393 "/>
<path style="fill-rule:nonzero;fill:rgb(0%,0%,0%);fill-opacity:1;stroke-width:1;stroke-linecap:butt;stroke-linejoin:miter;stroke:rgb(0%,0%,0%);stroke-opacity:1;stroke-miterlimit:10;" d="M 596 274 L 576 274 L 576 284 L 596 284 L 596 304 L 606 304 L 606 284 L 626 284 L 626 274 L 606 274 L 606 254 L 596 254 L 596 274 "/>
<path style="fill-rule:nonzero;fill:rgb(0%,0%,0%);fill-opacity:1;stroke-width:1;stroke-linecap:butt;stroke-linejoin:miter;stroke:rgb(0%,0%,0%);stroke-opacity:1;stroke-miterlimit:10;" d="M 352 238 L 332 238 L 332 248 L 352 248 L 352 268 L 362 268 L 362 248 L 382 248 L 382 238 L 362 238 L 362 218 L 352 218 L 352 238 "/>
<path style="fill-rule:nonzero;fill:rgb(0%,0%,0%);fill-opacity:1;stroke-width:1;stroke-linecap:butt;stroke-linejoin:miter;stroke:rgb(0%,0%,0%);stroke-opacity:1;stroke-miterlimit:10;" d="M 859 172 L 839 172 L 839 182 L 859 182 L 859 202 L 869 202 L 869 182 L 889 182 L 889 172 L 869 172 L 869 152 L 859 152 L 859 172 "/>
</g>
</svg>
