<?xml version="1.0" encoding="UTF-8"?>
<svg xmlns="http://www.w3.org/2000/svg" xmlns:xlink="http://www.w3.org/1999/xlink" width="1179pt" height="517pt" viewBox="0 0 1179 517" version="1.1">
<g id="surface51">
<rect x="0" y="0" width="1179" height="517" style="fill:rgb(90%,90%,90%);fill-opacity:1;stroke:none;"/>
<path style="fill-rule:nonzero;fill:rgb(35%,70%,90%);fill-opacity:1;stroke-width:1;stroke-linecap:butt;stroke-linejoin:miter;stroke:rgb(0%,0%,0%);stroke-opacity:1;stroke-miterlimit:10;" d="M 138.214844 107 C 138.214844 118.714844 128.714844 128.214844 117 128.214844 C 105.285156 128.214844 95.785156 118.714844 95.785156 107 C 95.785156 95.285156 105.285156 85.785156 117 85.785156 C 128.714844 85.785156 138.214844 95.285156 138.214844 107 "/>
<path style="fill-rule:nonzero;fill:rgb(53%,27%,7%);fill-opacity:1;stroke-width:1;stroke-linecap:butt;stroke-linejoin:miter;stroke:rgb(0%,0%,0%);stroke-opacity:1;stroke-miterlimit:10;" d="M 253.214844 331 C 253.214844 342.714844 243.714844 352.214844 232 352.214844 C 220.285156 352.214844 210.785156 342.714844 210.785156 331 C 210.785156 319.285156 220.285156 309.785156 232 309.785156 C 243.714844 309.785156 253.214844 319.285156 253.214844 331 "/>
<path style="fill-rule:nonzero;fill:rgb(53%,27%,7%);fill-opacity:1;stroke-width:1;stroke-linecap:butt;stroke-linejoin:miter;stroke:rgb(0%,0%,0%);stroke-opacity:1;stroke-miterlimit:10;" d="M 443.214844 80 C 443.214844 91.714844 433.714844 101.214844 422 101.214844 C 410.285156 101.214844 400.785156 91.714844 400.785156 80 C 400.785156 68.285156 410.285156 58.785156 422 58.785156 C 433.714844 58.785156 443.214844 68.285156 443.214844 80 "/>
<path style="fill-rule:nonzero;fill:rgb(35%,70%,90%);fill-opacity:1;stroke-width:1;stroke-linecap:butt;stroke-linejoin:miter;stroke:rgb(0%,0%,0%);stroke-opacity:1;stroke-miterlimit:10;" d="M 344.214844 250 C 344.214844 261.714844 334.714844 271.214844 323 271.214844 C 311.285156 271.214844 301.785156 261.714844 301.785156 250 C 301.785156 238.285156 311.285156 228.785156 323 228.785156 C 334.714844 228.785156 344.214844 238.285156 344.214844 250 "/>
<path style="fill-rule:nonzero;fill:rgb(35%,70%,90%);fill-opacity:1;stroke-width:1;stroke-linecap:butt;stroke-linejoin:miter;stroke:rgb(0%,0%,0%);stroke-opacity:1;stroke-miterlimit:10;" d="M 203.214844 245 C 203.214844 256.714844 193.714844 266.214844 182 266.214844 C 170.285156 266.214844 160.785156 256.714844 160.785156 245 C 160.785156 233.285156 170.285156 223.785156 182 223.785156 C 193.714844 223.785156 203.214844 233.285156 203.214844 245 "/>
<path style="fill-rule:nonzero;fill:rgb(53%,27%,7%);fill-opacity:1;stroke-width:1;stroke-linecap:butt;stroke-linejoin:miter;stroke:rgb(0%,0%,0%);stroke-opacity:1;stroke-miterlimit:10;" d="M 760.785156 105.785156 L 760.785156 148.214844 L 803.214844 148.214844 L 803.214844 105.785156 L 760.785156 105.785156 "/>
<path style="fill-rule:nonzero;fill:rgb(35%,70%,90%);fill-opacity:1;stroke-width:1;stroke-linecap:butt;stroke-linejoin:miter;stroke:rgb(0%,0%,0%);stroke-opacity:1;stroke-miterlimit:10;" d="M 925.785156 247.785156 L 925.785156 290.214844 L 968.214844 290.214844 L 968.214844 247.785156 L 925.785156 247.785156 "/>
<path style="fill-rule:nonzero;fill:rgb(35%,70%,90%);fill-opacity:1;stroke-width:1;stroke-linecap:butt;stroke-linejoin:miter;stroke:rgb(0%,0%,0%);stroke-opacity:1;stroke-miterlimit:10;" d="M 842.785156 393.785156 L 842.785156 436.214844 L 885.214844 436.214844 L 885.214844 393.785156 L 842.785156 393.785156 "/>
<path style="fill-rule:nonzero;fill:rgb(53%,27%,7%);fill-opacity:1;stroke-width:1;stroke-linecap:butt;stroke-linejoin:miter;stroke:rgb(0%,0%,0%);stroke-opacity:1;stroke-miterlimit:10;" d="M 727.785156 271.785156 L 727.785156 314.214844 L 770.214844 314.214844 L 770.214844 271.785156 L 727.785156 271.785156 "/>
<path style="fill-rule:nonzero;fill:rgb(53%,27%,7%);fill-opacity:1;stroke-width:1;stroke-linecap:butt;stroke-linejoin:miter;stroke:rgb(0%,0%,0%);stroke-opacity:1;stroke-miterlimit:10;" d="M 950.785156 364.785156 L 950.785156 407.214844 L 993.214844 407.214844 L 993.214844 364.785156 L 950.785156 364.785156 "/>
</g>
</svg>
