<?xml version="1.0" encoding="UTF-8"?>
<svg xmlns="http://www.w3.org/2000/svg" xmlns:xlink="http://www.w3.org/1999/xlink" width="1179pt" height="517pt" viewBox="0 0 1179 517" version="1.1">
<g id="surface1031">
<rect x="0" y="0" width="1179" height="517" style="fill:rgb(90%,90%,90%);fill-opacity:1;stroke:none;"/>
<path style="fill-rule:nonzero;fill:rgb(53%,27%,7%);fill-opacity:1;stroke-width:1;stroke-linecap:butt;stroke-linejoin:miter;stroke:rgb(0%,0%,0%);stroke-opacity:1;stroke-miterlimit:10;" d="M 141 64 L 115.019531 109 L 166.980469 109 L 141 64 "/>
<path style="fill-rule:nonzero;fill:rgb(53%,27%,7%);fill-opacity:1;stroke-width:1;stroke-linecap:butt;stroke-linejoin:miter;stroke:rgb(0%,0%,0%);stroke-opacity:1;stroke-miterlimit:10;" d="M 965 248 L 939.019531 293 L 990.980469 293 L 965 248 "/>
<path style="fill-rule:nonzero;fill:rgb(53%,27%,7%);fill-opacity:1;stroke-width:1;stroke-linecap:butt;stroke-linejoin:miter;stroke:rgb(0%,0%,0%);stroke-opacity:1;stroke-miterlimit:10;" d="M 946 127 L 920.019531 172 L 971.980469 172 L 946 127 "/>
<path style="fill-rule:nonzero;fill:rgb(53%,27%,7%);fill-opacity:1;stroke-width:1;stroke-linecap:butt;stroke-linejoin:miter;stroke:rgb(0%,0%,0%);stroke-opacity:1;stroke-miterlimit:10;" d="M 491 361 L 465.019531 406 L 516.980469 406 L 491 361 "/>
<path style="fill-rule:nonzero;fill:rgb(35%,70%,90%);fill-opacity:1;stroke-width:1;stroke-linecap:butt;stroke-linejoin:miter;stroke:rgb(0%,0%,0%);stroke-opacity:1;stroke-miterlimit:10;" d="M 503 219 L 532.664062 219 L 544.664062 190.785156 L 556.664062 219 L 586.332031 219 L 562.332031 236.4375 L 570.417969 267.980469 L 544.664062 250.542969 L 518.914062 267.980469 L 531.214844 236.4375 L 503 219 "/>
<path style="fill-rule:nonzero;fill:rgb(35%,70%,90%);fill-opacity:1;stroke-width:1;stroke-linecap:butt;stroke-linejoin:miter;stroke:rgb(0%,0%,0%);stroke-opacity:1;stroke-miterlimit:10;" d="M 283 407 L 312.664062 407 L 324.664062 378.785156 L 336.664062 407 L 366.332031 407 L 342.332031 424.4375 L 350.417969 455.980469 L 324.664062 438.542969 L 298.914062 455.980469 L 311.214844 424.4375 L 283 407 "/>
<path style="fill-rule:nonzero;fill:rgb(35%,70%,90%);fill-opacity:1;stroke-width:1;stroke-linecap:butt;stroke-linejoin:miter;stroke:rgb(0%,0%,0%);stroke-opacity:1;stroke-miterlimit:10;" d="M 115 270 L 144.664062 270 L 156.664062 241.785156 L 168.664062 270 L 198.332031 270 L 174.332031 287.4375 L 182.417969 318.980469 L 156.664062 301.542969 L 130.914062 318.980469 L 143.214844 287.4375 L 115 270 "/>
<path style="fill-rule:nonzero;fill:rgb(35%,70%,90%);fill-opacity:1;stroke-width:1;stroke-linecap:butt;stroke-linejoin:miter;stroke:rgb(0%,0%,0%);stroke-opacity:1;stroke-miterlimit:10;" d="M 563 103 L 592.664062 103 L 604.664062 74.785156 L 616.664062 103 L 646.332031 103 L 622.332031 120.4375 L 630.417969 151.980469 L 604.664062 134.542969 L 578.914062 151.980469 L 591.214844 120.4375 L 563 103 "/>
<path style="fill-rule:nonzero;fill:rgb(35%,70%,90%);fill-opacity:1;stroke-width:1;stroke-linecap:butt;stroke-linejoin:miter;stroke:rgb(0%,0%,0%);stroke-opacity:1;stroke-miterlimit:10;" d="M 151 392 L 180.664062 392 L 192.664062 363.785156 L 204.664062 392 L 234.332031 392 L 210.332031 409.4375 L 218.417969 440.980469 L 192.664062 423.542969 L 166.914062 440.980469 L 179.214844 409.4375 L 151 392 "/>
</g>
</svg>
