<?xml version="1.0" encoding="UTF-8"?>
<svg xmlns="http://www.w3.org/2000/svg" xmlns:xlink="http://www.w3.org/1999/xlink" width="1179pt" height="517pt" viewBox="0 0 1179 517" version="1.1">
<g id="surface1371">
<rect x="0" y="0" width="1179" height="517" style="fill:rgb(90%,90%,90%);fill-opacity:1;stroke:none;"/>
<path style="fill-rule:nonzero;fill:rgb(35%,70%,90%);fill-opacity:1;stroke-width:1;stroke-linecap:butt;stroke-linejoin:miter;stroke:rgb(0%,0%,0%);stroke-opacity:1;stroke-miterlimit:10;" d="M 466.214844 243 C 466.214844 254.714844 456.714844 264.214844 445 264.214844 C 433.285156 264.214844 423.785156 254.714844 423.785156 243 C 423.785156 231.285156 433.285156 221.785156 445 221.785156 C 456.714844 221.785156 466.214844 231.285156 466.214844 243 "/>
<path style="fill-rule:nonzero;fill:rgb(35%,70%,90%);fill-opacity:1;stroke-width:1;stroke-linecap:butt;stroke-linejoin:miter;stroke:rgb(0%,0%,0%);stroke-opacity:1;stroke-miterlimit:10;" d="M 932.214844 150 C 932.214844 161.714844 922.714844 171.214844 911 171.214844 C 899.285156 171.214844 889.785156 161.714844 889.785156 150 C 889.785156 138.285156 899.285156 128.785156 911 128.785156 C 922.714844 128.785156 932.214844 138.285156 932.214844 150 "/>
<path style="fill-rule:nonzero;fill:rgb(35%,70%,90%);fill-opacity:1;stroke-width:1;stroke-linecap:butt;stroke-linejoin:miter;stroke:rgb(0%,0%,0%);stroke-opacity:1;stroke-miterlimit:10;" d="M 532.214844 419 C 532.214844 430.714844 522.714844 440.214844 511 440.214844 C 499.285156 440.214844 489.785156 430.714844 489.785156 419 C 489.785156 407.285156 499.285156 397.785156 511 397.785156 C 522.714844 397.785156 532.214844 407.285156 532.214844 419 "/>
<path style="fill-rule:nonzero;fill:rgb(35%,70%,90%);fill-opacity:1;stroke-width:1;stroke-linecap:butt;stroke-linejoin:miter;stroke:rgb(0%,0%,0%);stroke-opacity:1;stroke-miterlimit:10;" d="M 1054.214844 403 C 1054.214844 414.714844 1044.714844 424.214844 1033 424.214844 C 1021.285156 424.214844 1011.785156 414.714844 1011.785156 403 C 1011.785156 391.285156 1021.285156 381.785156 1033 381.785156 C 1044.714844 381.785156 1054.214844 391.285156 1054.214844 403 "/>
<path style="fill-rule:nonzero;fill:rgb(100%,51%,0%);fill-opacity:1;stroke-width:1;stroke-linecap:butt;stroke-linejoin:miter;stroke:rgb(0%,0%,0%);stroke-opacity:1;stroke-miterlimit:10;" d="M 782 149 L 756.019531 194 L 807.980469 194 L 782 149 "/>
<path style="fill-rule:nonzero;fill:rgb(100%,51%,0%);fill-opacity:1;stroke-width:1;stroke-linecap:butt;stroke-linejoin:miter;stroke:rgb(0%,0%,0%);stroke-opacity:1;stroke-miterlimit:10;" d="M 325 258 L 299.019531 303 L 350.980469 303 L 325 258 "/>
<path style="fill-rule:nonzero;fill:rgb(100%,51%,0%);fill-opacity:1;stroke-width:1;stroke-linecap:butt;stroke-linejoin:miter;stroke:rgb(0%,0%,0%);stroke-opacity:1;stroke-miterlimit:10;" d="M 129 295 L 103.019531 340 L 154.980469 340 L 129 295 "/>
<path style="fill-rule:nonzero;fill:rgb(100%,51%,0%);fill-opacity:1;stroke-width:1;stroke-linecap:butt;stroke-linejoin:miter;stroke:rgb(0%,0%,0%);stroke-opacity:1;stroke-miterlimit:10;" d="M 168 175 L 142.019531 220 L 193.980469 220 L 168 175 "/>
</g>
</svg>
