<?xml version="1.0" encoding="UTF-8"?>
<svg xmlns="http://www.w3.org/2000/svg" xmlns:xlink="http://www.w3.org/1999/xlink" width="1179pt" height="517pt" viewBox="0 0 1179 517" version="1.1">
<g id="surface496">
<rect x="0" y="0" width="1179" height="517" style="fill:rgb(90%,90%,90%);fill-opacity:1;stroke:none;"/>
<path style="fill-rule:nonzero;fill:rgb(100%,51%,0%);fill-opacity:1;stroke-width:1;stroke-linecap:butt;stroke-linejoin:miter;stroke:rgb(0%,0%,0%);stroke-opacity:1;stroke-miterlimit:10;" d="M 451.214844 422 C 451.214844 433.714844 441.714844 443.214844 430 443.214844 C 418.285156 443.214844 408.785156 433.714844 408.785156 422 C 408.785156 410.285156 418.285156 400.785156 430 400.785156 C 441.714844 400.785156 451.214844 410.285156 451.214844 422 "/>
<path style="fill-rule:nonzero;fill:rgb(100%,51%,0%);fill-opacity:1;stroke-width:1;stroke-linecap:butt;stroke-linejoin:miter;stroke:rgb(0%,0%,0%);stroke-opacity:1;stroke-miterlimit:10;" d="M 163.214844 251 C 163.214844 262.714844 153.714844 272.214844 142 272.214844 C 130.285156 272.214844 120.785156 262.714844 120.785156 251 C 120.785156 239.285156 130.285156 229.785156 142 229.785156 C 153.714844 229.785156 163.214844 239.285156 163.214844 251 "/>
<path style="fill-rule:nonzero;fill:rgb(100%,51%,0%);fill-opacity:1;stroke-width:1;stroke-linecap:butt;stroke-linejoin:miter;stroke:rgb(0%,0%,0%);stroke-opacity:1;stroke-miterlimit:10;" d="M 320 145 L 294.019531 190 L 345.980469 190 L 320 145 "/>
<path style="fill-rule:nonzero;fill:rgb(100%,51%,0%);fill-opacity:1;stroke-width:1;stroke-linecap:butt;stroke-linejoin:miter;stroke:rgb(0%,0%,0%);stroke-opacity:1;stroke-miterlimit:10;" d="M 252 71 L 226.019531 116 L 277.980469 116 L 252 71 "/>
<path style="fill-rule:nonzero;fill:rgb(100%,51%,0%);fill-opacity:1;stroke-width:1;stroke-linecap:butt;stroke-linejoin:miter;stroke:rgb(0%,0%,0%);stroke-opacity:1;stroke-miterlimit:10;" d="M 380.214844 319 C 380.214844 330.714844 370.714844 340.214844 359 340.214844 C 347.285156 340.214844 337.785156 330.714844 337.785156 319 C 337.785156 307.285156 347.285156 297.785156 359 297.785156 C 370.714844 297.785156 380.214844 307.285156 380.214844 319 "/>
<path style="fill-rule:nonzero;fill:rgb(100%,51%,0%);fill-opacity:1;stroke-width:1;stroke-linecap:butt;stroke-linejoin:miter;stroke:rgb(0%,0%,0%);stroke-opacity:1;stroke-miterlimit:10;" d="M 219.214844 416 C 219.214844 427.714844 209.714844 437.214844 198 437.214844 C 186.285156 437.214844 176.785156 427.714844 176.785156 416 C 176.785156 404.285156 186.285156 394.785156 198 394.785156 C 209.714844 394.785156 219.214844 404.285156 219.214844 416 "/>
<path style="fill-rule:nonzero;fill:rgb(100%,51%,0%);fill-opacity:1;stroke-width:1;stroke-linecap:butt;stroke-linejoin:miter;stroke:rgb(0%,0%,0%);stroke-opacity:1;stroke-miterlimit:10;" d="M 448.214844 99 C 448.214844 110.714844 438.714844 120.214844 427 120.214844 C 415.285156 120.214844 405.785156 110.714844 405.785156 99 C 405.785156 87.285156 415.285156 77.785156 427 77.785156 C 438.714844 77.785156 448.214844 87.285156 448.214844 99 "/>
<path style="fill-rule:nonzero;fill:rgb(100%,51%,0%);fill-opacity:1;stroke-width:1;stroke-linecap:butt;stroke-linejoin:miter;stroke:rgb(0%,0%,0%);stroke-opacity:1;stroke-miterlimit:10;" d="M 111.214844 375 C 111.214844 386.714844 101.714844 396.214844 90 396.214844 C 78.285156 396.214844 68.785156 386.714844 68.785156 375 C 68.785156 363.285156 78.285156 353.785156 90 353.785156 C 101.714844 353.785156 111.214844 363.285156 111.214844 375 "/>
<path style="fill-rule:nonzero;fill:rgb(55%,51%,53%);fill-opacity:1;stroke-width:1;stroke-linecap:butt;stroke-linejoin:miter;stroke:rgb(0%,0%,0%);stroke-opacity:1;stroke-miterlimit:10;" d="M 1003 216 L 977.019531 261 L 1028.980469 261 L 1003 216 "/>
<path style="fill-rule:nonzero;fill:rgb(55%,51%,53%);fill-opacity:1;stroke-width:1;stroke-linecap:butt;stroke-linejoin:miter;stroke:rgb(0%,0%,0%);stroke-opacity:1;stroke-miterlimit:10;" d="M 894 191 L 868.019531 236 L 919.980469 236 L 894 191 "/>
<path style="fill-rule:nonzero;fill:rgb(55%,51%,53%);fill-opacity:1;stroke-width:1;stroke-linecap:butt;stroke-linejoin:miter;stroke:rgb(0%,0%,0%);stroke-opacity:1;stroke-miterlimit:10;" d="M 763.214844 400 C 763.214844 411.714844 753.714844 421.214844 742 421.214844 C 730.285156 421.214844 720.785156 411.714844 720.785156 400 C 720.785156 388.285156 730.285156 378.785156 742 378.785156 C 753.714844 378.785156 763.214844 388.285156 763.214844 400 "/>
<path style="fill-rule:nonzero;fill:rgb(55%,51%,53%);fill-opacity:1;stroke-width:1;stroke-linecap:butt;stroke-linejoin:miter;stroke:rgb(0%,0%,0%);stroke-opacity:1;stroke-miterlimit:10;" d="M 810.214844 203 C 810.214844 214.714844 800.714844 224.214844 789 224.214844 C 777.285156 224.214844 767.785156 214.714844 767.785156 203 C 767.785156 191.285156 777.285156 181.785156 789 181.785156 C 800.714844 181.785156 810.214844 191.285156 810.214844 203 "/>
<path style="fill-rule:nonzero;fill:rgb(55%,51%,53%);fill-opacity:1;stroke-width:1;stroke-linecap:butt;stroke-linejoin:miter;stroke:rgb(0%,0%,0%);stroke-opacity:1;stroke-miterlimit:10;" d="M 879 369 L 853.019531 414 L 904.980469 414 L 879 369 "/>
<path style="fill-rule:nonzero;fill:rgb(55%,51%,53%);fill-opacity:1;stroke-width:1;stroke-linecap:butt;stroke-linejoin:miter;stroke:rgb(0%,0%,0%);stroke-opacity:1;stroke-miterlimit:10;" d="M 932 274 L 906.019531 319 L 957.980469 319 L 932 274 "/>
<path style="fill-rule:nonzero;fill:rgb(55%,51%,53%);fill-opacity:1;stroke-width:1;stroke-linecap:butt;stroke-linejoin:miter;stroke:rgb(0%,0%,0%);stroke-opacity:1;stroke-miterlimit:10;" d="M 701 224 L 675.019531 269 L 726.980469 269 L 701 224 "/>
</g>
</svg>
