<?xml version="1.0" encoding="UTF-8"?>
<svg xmlns="http://www.w3.org/2000/svg" xmlns:xlink="http://www.w3.org/1999/xlink" width="1179pt" height="517pt" viewBox="0 0 1179 517" version="1.1">
<g id="surface1446">
<rect x="0" y="0" width="1179" height="517" style="fill:rgb(90%,90%,90%);fill-opacity:1;stroke:none;"/>
<path style="fill-rule:nonzero;fill:rgb(55%,51%,53%);fill-opacity:1;stroke-width:1;stroke-linecap:butt;stroke-linejoin:miter;stroke:rgb(0%,0%,0%);stroke-opacity:1;stroke-miterlimit:10;" d="M 209 391 L 183.019531 436 L 234.980469 436 L 209 391 "/>
<path style="fill-rule:nonzero;fill:rgb(55%,51%,53%);fill-opacity:1;stroke-width:1;stroke-linecap:butt;stroke-linejoin:miter;stroke:rgb(0%,0%,0%);stroke-opacity:1;stroke-miterlimit:10;" d="M 175 100 L 149.019531 145 L 200.980469 145 L 175 100 "/>
<path style="fill-rule:nonzero;fill:rgb(55%,51%,53%);fill-opacity:1;stroke-width:1;stroke-linecap:butt;stroke-linejoin:miter;stroke:rgb(0%,0%,0%);stroke-opacity:1;stroke-miterlimit:10;" d="M 288 258 L 262.019531 303 L 313.980469 303 L 288 258 "/>
<path style="fill-rule:nonzero;fill:rgb(55%,51%,53%);fill-opacity:1;stroke-width:1;stroke-linecap:butt;stroke-linejoin:miter;stroke:rgb(0%,0%,0%);stroke-opacity:1;stroke-miterlimit:10;" d="M 939 378 L 913.019531 423 L 964.980469 423 L 939 378 "/>
<path style="fill-rule:nonzero;fill:rgb(55%,51%,53%);fill-opacity:1;stroke-width:1;stroke-linecap:butt;stroke-linejoin:miter;stroke:rgb(0%,0%,0%);stroke-opacity:1;stroke-miterlimit:10;" d="M 669 211 L 643.019531 256 L 694.980469 256 L 669 211 "/>
<path style="fill-rule:nonzero;fill:rgb(35%,70%,90%);fill-opacity:1;stroke-width:1;stroke-linecap:butt;stroke-linejoin:miter;stroke:rgb(0%,0%,0%);stroke-opacity:1;stroke-miterlimit:10;" d="M 507 234 L 536.664062 234 L 548.664062 205.785156 L 560.664062 234 L 590.332031 234 L 566.332031 251.4375 L 574.417969 282.980469 L 548.664062 265.542969 L 522.914062 282.980469 L 535.214844 251.4375 L 507 234 "/>
<path style="fill-rule:nonzero;fill:rgb(35%,70%,90%);fill-opacity:1;stroke-width:1;stroke-linecap:butt;stroke-linejoin:miter;stroke:rgb(0%,0%,0%);stroke-opacity:1;stroke-miterlimit:10;" d="M 830 314 L 859.664062 314 L 871.664062 285.785156 L 883.664062 314 L 913.332031 314 L 889.332031 331.4375 L 897.417969 362.980469 L 871.664062 345.542969 L 845.914062 362.980469 L 858.214844 331.4375 L 830 314 "/>
<path style="fill-rule:nonzero;fill:rgb(35%,70%,90%);fill-opacity:1;stroke-width:1;stroke-linecap:butt;stroke-linejoin:miter;stroke:rgb(0%,0%,0%);stroke-opacity:1;stroke-miterlimit:10;" d="M 540 359 L 569.664062 359 L 581.664062 330.785156 L 593.664062 359 L 623.332031 359 L 599.332031 376.4375 L 607.417969 407.980469 L 581.664062 390.542969 L 555.914062 407.980469 L 568.214844 376.4375 L 540 359 "/>
<path style="fill-rule:nonzero;fill:rgb(35%,70%,90%);fill-opacity:1;stroke-width:1;stroke-linecap:butt;stroke-linejoin:miter;stroke:rgb(0%,0%,0%);stroke-opacity:1;stroke-miterlimit:10;" d="M 1040 87 L 1069.664062 87 L 1081.664062 58.785156 L 1093.664062 87 L 1123.332031 87 L 1099.332031 104.4375 L 1107.417969 135.980469 L 1081.664062 118.542969 L 1055.914062 135.980469 L 1068.214844 104.4375 L 1040 87 "/>
</g>
</svg>
