<?xml version="1.0" encoding="UTF-8"?>
<svg xmlns="http://www.w3.org/2000/svg" xmlns:xlink="http://www.w3.org/1999/xlink" width="1179pt" height="517pt" viewBox="0 0 1179 517" version="1.1">
<g id="surface1281">
<rect x="0" y="0" width="1179" height="517" style="fill:rgb(90%,90%,90%);fill-opacity:1;stroke:none;"/>
<path style="fill-rule:nonzero;fill:rgb(35%,70%,90%);fill-opacity:1;stroke-width:1;stroke-linecap:butt;stroke-linejoin:miter;stroke:rgb(0%,0%,0%);stroke-opacity:1;stroke-miterlimit:10;" d="M 270.214844 399 C 270.214844 410.714844 260.714844 420.214844 249 420.214844 C 237.285156 420.214844 227.785156 410.714844 227.785156 399 C 227.785156 387.285156 237.285156 377.785156 249 377.785156 C 260.714844 377.785156 270.214844 387.285156 270.214844 399 "/>
<path style="fill-rule:nonzero;fill:rgb(35%,70%,90%);fill-opacity:1;stroke-width:1;stroke-linecap:butt;stroke-linejoin:miter;stroke:rgb(0%,0%,0%);stroke-opacity:1;stroke-miterlimit:10;" d="M 368.214844 324 C 368.214844 335.714844 358.714844 345.214844 347 345.214844 C 335.285156 345.214844 325.785156 335.714844 325.785156 324 C 325.785156 312.285156 335.285156 302.785156 347 302.785156 C 358.714844 302.785156 368.214844 312.285156 368.214844 324 "/>
<path style="fill-rule:nonzero;fill:rgb(35%,70%,90%);fill-opacity:1;stroke-width:1;stroke-linecap:butt;stroke-linejoin:miter;stroke:rgb(0%,0%,0%);stroke-opacity:1;stroke-miterlimit:10;" d="M 762.214844 259 C 762.214844 270.714844 752.714844 280.214844 741 280.214844 C 729.285156 280.214844 719.785156 270.714844 719.785156 259 C 719.785156 247.285156 729.285156 237.785156 741 237.785156 C 752.714844 237.785156 762.214844 247.285156 762.214844 259 "/>
<path style="fill-rule:nonzero;fill:rgb(35%,70%,90%);fill-opacity:1;stroke-width:1;stroke-linecap:butt;stroke-linejoin:miter;stroke:rgb(0%,0%,0%);stroke-opacity:1;stroke-miterlimit:10;" d="M 1045.214844 182 C 1045.214844 193.714844 1035.714844 203.214844 1024 203.214844 C 1012.285156 203.214844 1002.785156 193.714844 1002.785156 182 C 1002.785156 170.285156 1012.285156 160.785156 1024 160.785156 C 1035.714844 160.785156 1045.214844 170.285156 1045.214844 182 "/>
<path style="fill-rule:nonzero;fill:rgb(100%,51%,0%);fill-opacity:1;stroke-width:1;stroke-linecap:butt;stroke-linejoin:miter;stroke:rgb(0%,0%,0%);stroke-opacity:1;stroke-miterlimit:10;" d="M 90 364 L 64.019531 409 L 115.980469 409 L 90 364 "/>
<path style="fill-rule:nonzero;fill:rgb(100%,51%,0%);fill-opacity:1;stroke-width:1;stroke-linecap:butt;stroke-linejoin:miter;stroke:rgb(0%,0%,0%);stroke-opacity:1;stroke-miterlimit:10;" d="M 181 231 L 155.019531 276 L 206.980469 276 L 181 231 "/>
<path style="fill-rule:nonzero;fill:rgb(100%,51%,0%);fill-opacity:1;stroke-width:1;stroke-linecap:butt;stroke-linejoin:miter;stroke:rgb(0%,0%,0%);stroke-opacity:1;stroke-miterlimit:10;" d="M 527 143 L 501.019531 188 L 552.980469 188 L 527 143 "/>
<path style="fill-rule:nonzero;fill:rgb(100%,51%,0%);fill-opacity:1;stroke-width:1;stroke-linecap:butt;stroke-linejoin:miter;stroke:rgb(0%,0%,0%);stroke-opacity:1;stroke-miterlimit:10;" d="M 364 168 L 338.019531 213 L 389.980469 213 L 364 168 "/>
</g>
</svg>
