<?xml version="1.0" encoding="UTF-8"?>
<svg xmlns="http://www.w3.org/2000/svg" xmlns:xlink="http://www.w3.org/1999/xlink" width="1179pt" height="517pt" viewBox="0 0 1179 517" version="1.1">
<g id="surface341">
<rect x="0" y="0" width="1179" height="517" style="fill:rgb(90%,90%,90%);fill-opacity:1;stroke:none;"/>
<path style="fill-rule:nonzero;fill:rgb(55%,51%,53%);fill-opacity:1;stroke-width:1;stroke-linecap:butt;stroke-linejoin:miter;stroke:rgb(0%,0%,0%);stroke-opacity:1;stroke-miterlimit:10;" d="M 397 377 L 426.664062 377 L 438.664062 348.785156 L 450.664062 377 L 480.332031 377 L 456.332031 394.4375 L 464.417969 425.980469 L 438.664062 408.542969 L 412.914062 425.980469 L 425.214844 394.4375 L 397 377 "/>
<path style="fill-rule:nonzero;fill:rgb(55%,51%,53%);fill-opacity:1;stroke-width:1;stroke-linecap:butt;stroke-linejoin:miter;stroke:rgb(0%,0%,0%);stroke-opacity:1;stroke-miterlimit:10;" d="M 269 314 L 298.664062 314 L 310.664062 285.785156 L 322.664062 314 L 352.332031 314 L 328.332031 331.4375 L 336.417969 362.980469 L 310.664062 345.542969 L 284.914062 362.980469 L 297.214844 331.4375 L 269 314 "/>
<path style="fill-rule:nonzero;fill:rgb(55%,51%,53%);fill-opacity:1;stroke-width:1;stroke-linecap:butt;stroke-linejoin:miter;stroke:rgb(0%,0%,0%);stroke-opacity:1;stroke-miterlimit:10;" d="M 242 156 L 271.664062 156 L 283.664062 127.785156 L 295.664062 156 L 325.332031 156 L 301.332031 173.4375 L 309.417969 204.980469 L 283.664062 187.542969 L 257.914062 204.980469 L 270.214844 173.4375 L 242 156 "/>
<path style="fill-rule:nonzero;fill:rgb(53%,27%,7%);fill-opacity:1;stroke-width:1;stroke-linecap:butt;stroke-linejoin:miter;stroke:rgb(0%,0%,0%);stroke-opacity:1;stroke-miterlimit:10;" d="M 861.785156 118.785156 L 861.785156 161.214844 L 904.214844 161.214844 L 904.214844 118.785156 L 861.785156 118.785156 "/>
<path style="fill-rule:nonzero;fill:rgb(53%,27%,7%);fill-opacity:1;stroke-width:1;stroke-linecap:butt;stroke-linejoin:miter;stroke:rgb(0%,0%,0%);stroke-opacity:1;stroke-miterlimit:10;" d="M 753.785156 111.785156 L 753.785156 154.214844 L 796.214844 154.214844 L 796.214844 111.785156 L 753.785156 111.785156 "/>
<path style="fill-rule:nonzero;fill:rgb(53%,27%,7%);fill-opacity:1;stroke-width:1;stroke-linecap:butt;stroke-linejoin:miter;stroke:rgb(0%,0%,0%);stroke-opacity:1;stroke-miterlimit:10;" d="M 887.785156 259.785156 L 887.785156 302.214844 L 930.214844 302.214844 L 930.214844 259.785156 L 887.785156 259.785156 "/>
<path style="fill-rule:nonzero;fill:rgb(55%,51%,53%);fill-opacity:1;stroke-width:1;stroke-linecap:butt;stroke-linejoin:miter;stroke:rgb(0%,0%,0%);stroke-opacity:1;stroke-miterlimit:10;" d="M 984.785156 58.785156 L 984.785156 101.214844 L 1027.214844 101.214844 L 1027.214844 58.785156 L 984.785156 58.785156 "/>
<path style="fill-rule:nonzero;fill:rgb(53%,27%,7%);fill-opacity:1;stroke-width:1;stroke-linecap:butt;stroke-linejoin:miter;stroke:rgb(0%,0%,0%);stroke-opacity:1;stroke-miterlimit:10;" d="M 963.785156 150.785156 L 963.785156 193.214844 L 1006.214844 193.214844 L 1006.214844 150.785156 L 963.785156 150.785156 "/>
</g>
</svg>
