<?xml version="1.0" encoding="UTF-8"?>
<svg xmlns="http://www.w3.org/2000/svg" xmlns:xlink="http://www.w3.org/1999/xlink" width="1179pt" height="517pt" viewBox="0 0 1179 517" version="1.1">
<g id="surface421">
<rect x="0" y="0" width="1179" height="517" style="fill:rgb(90%,90%,90%);fill-opacity:1;stroke:none;"/>
<path style="fill-rule:nonzero;fill:rgb(35%,70%,90%);fill-opacity:1;stroke-width:1;stroke-linecap:butt;stroke-linejoin:miter;stroke:rgb(0%,0%,0%);stroke-opacity:1;stroke-miterlimit:10;" d="M 656 327 L 685.664062 327 L 697.664062 298.785156 L 709.664062 327 L 739.332031 327 L 715.332031 344.4375 L 723.417969 375.980469 L 697.664062 358.542969 L 671.914062 375.980469 L 684.214844 344.4375 L 656 327 "/>
<path style="fill-rule:nonzero;fill:rgb(35%,70%,90%);fill-opacity:1;stroke-width:1;stroke-linecap:butt;stroke-linejoin:miter;stroke:rgb(0%,0%,0%);stroke-opacity:1;stroke-miterlimit:10;" d="M 444 415 L 473.664062 415 L 485.664062 386.785156 L 497.664062 415 L 527.332031 415 L 503.332031 432.4375 L 511.417969 463.980469 L 485.664062 446.542969 L 459.914062 463.980469 L 472.214844 432.4375 L 444 415 "/>
<path style="fill-rule:nonzero;fill:rgb(35%,70%,90%);fill-opacity:1;stroke-width:1;stroke-linecap:butt;stroke-linejoin:miter;stroke:rgb(0%,0%,0%);stroke-opacity:1;stroke-miterlimit:10;" d="M 890 310 L 919.664062 310 L 931.664062 281.785156 L 943.664062 310 L 973.332031 310 L 949.332031 327.4375 L 957.417969 358.980469 L 931.664062 341.542969 L 905.914062 358.980469 L 918.214844 327.4375 L 890 310 "/>
<path style="fill-rule:nonzero;fill:rgb(35%,70%,90%);fill-opacity:1;stroke-width:1;stroke-linecap:butt;stroke-linejoin:miter;stroke:rgb(0%,0%,0%);stroke-opacity:1;stroke-miterlimit:10;" d="M 174 301 L 203.664062 301 L 215.664062 272.785156 L 227.664062 301 L 257.332031 301 L 233.332031 318.4375 L 241.417969 349.980469 L 215.664062 332.542969 L 189.914062 349.980469 L 202.214844 318.4375 L 174 301 "/>
<path style="fill-rule:nonzero;fill:rgb(35%,70%,90%);fill-opacity:1;stroke-width:1;stroke-linecap:butt;stroke-linejoin:miter;stroke:rgb(0%,0%,0%);stroke-opacity:1;stroke-miterlimit:10;" d="M 510 179 L 539.664062 179 L 551.664062 150.785156 L 563.664062 179 L 593.332031 179 L 569.332031 196.4375 L 577.417969 227.980469 L 551.664062 210.542969 L 525.914062 227.980469 L 538.214844 196.4375 L 510 179 "/>
<path style="fill-rule:nonzero;fill:rgb(55%,51%,53%);fill-opacity:1;stroke-width:1;stroke-linecap:butt;stroke-linejoin:miter;stroke:rgb(0%,0%,0%);stroke-opacity:1;stroke-miterlimit:10;" d="M 743.214844 91 C 743.214844 102.714844 733.714844 112.214844 722 112.214844 C 710.285156 112.214844 700.785156 102.714844 700.785156 91 C 700.785156 79.285156 710.285156 69.785156 722 69.785156 C 733.714844 69.785156 743.214844 79.285156 743.214844 91 "/>
<path style="fill-rule:nonzero;fill:rgb(55%,51%,53%);fill-opacity:1;stroke-width:1;stroke-linecap:butt;stroke-linejoin:miter;stroke:rgb(0%,0%,0%);stroke-opacity:1;stroke-miterlimit:10;" d="M 255.214844 101 C 255.214844 112.714844 245.714844 122.214844 234 122.214844 C 222.285156 122.214844 212.785156 112.714844 212.785156 101 C 212.785156 89.285156 222.285156 79.785156 234 79.785156 C 245.714844 79.785156 255.214844 89.285156 255.214844 101 "/>
<path style="fill-rule:nonzero;fill:rgb(55%,51%,53%);fill-opacity:1;stroke-width:1;stroke-linecap:butt;stroke-linejoin:miter;stroke:rgb(0%,0%,0%);stroke-opacity:1;stroke-miterlimit:10;" d="M 378.214844 164 C 378.214844 175.714844 368.714844 185.214844 357 185.214844 C 345.285156 185.214844 335.785156 175.714844 335.785156 164 C 335.785156 152.285156 345.285156 142.785156 357 142.785156 C 368.714844 142.785156 378.214844 152.285156 378.214844 164 "/>
<path style="fill-rule:nonzero;fill:rgb(55%,51%,53%);fill-opacity:1;stroke-width:1;stroke-linecap:butt;stroke-linejoin:miter;stroke:rgb(0%,0%,0%);stroke-opacity:1;stroke-miterlimit:10;" d="M 354.214844 366 C 354.214844 377.714844 344.714844 387.214844 333 387.214844 C 321.285156 387.214844 311.785156 377.714844 311.785156 366 C 311.785156 354.285156 321.285156 344.785156 333 344.785156 C 344.714844 344.785156 354.214844 354.285156 354.214844 366 "/>
<path style="fill-rule:nonzero;fill:rgb(55%,51%,53%);fill-opacity:1;stroke-width:1;stroke-linecap:butt;stroke-linejoin:miter;stroke:rgb(0%,0%,0%);stroke-opacity:1;stroke-miterlimit:10;" d="M 1036.214844 177 C 1036.214844 188.714844 1026.714844 198.214844 1015 198.214844 C 1003.285156 198.214844 993.785156 188.714844 993.785156 177 C 993.785156 165.285156 1003.285156 155.785156 1015 155.785156 C 1026.714844 155.785156 1036.214844 165.285156 1036.214844 177 "/>
</g>
</svg>
