<?xml version="1.0" encoding="UTF-8"?>
<svg xmlns="http://www.w3.org/2000/svg" xmlns:xlink="http://www.w3.org/1999/xlink" width="1179pt" height="517pt" viewBox="0 0 1179 517" version="1.1">
<g id="surface441">
<rect x="0" y="0" width="1179" height="517" style="fill:rgb(90%,90%,90%);fill-opacity:1;stroke:none;"/>
<path style="fill-rule:nonzero;fill:rgb(35%,70%,90%);fill-opacity:1;stroke-width:1;stroke-linecap:butt;stroke-linejoin:miter;stroke:rgb(0%,0%,0%);stroke-opacity:1;stroke-miterlimit:10;" d="M 297.214844 373 C 297.214844 384.714844 287.714844 394.214844 276 394.214844 C 264.285156 394.214844 254.785156 384.714844 254.785156 373 C 254.785156 361.285156 264.285156 351.785156 276 351.785156 C 287.714844 351.785156 297.214844 361.285156 297.214844 373 "/>
<path style="fill-rule:nonzero;fill:rgb(35%,70%,90%);fill-opacity:1;stroke-width:1;stroke-linecap:butt;stroke-linejoin:miter;stroke:rgb(0%,0%,0%);stroke-opacity:1;stroke-miterlimit:10;" d="M 160.214844 299 C 160.214844 310.714844 150.714844 320.214844 139 320.214844 C 127.285156 320.214844 117.785156 310.714844 117.785156 299 C 117.785156 287.285156 127.285156 277.785156 139 277.785156 C 150.714844 277.785156 160.214844 287.285156 160.214844 299 "/>
<path style="fill-rule:nonzero;fill:rgb(55%,51%,53%);fill-opacity:1;stroke-width:1;stroke-linecap:butt;stroke-linejoin:miter;stroke:rgb(0%,0%,0%);stroke-opacity:1;stroke-miterlimit:10;" d="M 105.214844 137 C 105.214844 148.714844 95.714844 158.214844 84 158.214844 C 72.285156 158.214844 62.785156 148.714844 62.785156 137 C 62.785156 125.285156 72.285156 115.785156 84 115.785156 C 95.714844 115.785156 105.214844 125.285156 105.214844 137 "/>
<path style="fill-rule:nonzero;fill:rgb(35%,70%,90%);fill-opacity:1;stroke-width:1;stroke-linecap:butt;stroke-linejoin:miter;stroke:rgb(0%,0%,0%);stroke-opacity:1;stroke-miterlimit:10;" d="M 425.214844 177 C 425.214844 188.714844 415.714844 198.214844 404 198.214844 C 392.285156 198.214844 382.785156 188.714844 382.785156 177 C 382.785156 165.285156 392.285156 155.785156 404 155.785156 C 415.714844 155.785156 425.214844 165.285156 425.214844 177 "/>
<path style="fill-rule:nonzero;fill:rgb(55%,51%,53%);fill-opacity:1;stroke-width:1;stroke-linecap:butt;stroke-linejoin:miter;stroke:rgb(0%,0%,0%);stroke-opacity:1;stroke-miterlimit:10;" d="M 846.785156 394.785156 L 846.785156 437.214844 L 889.214844 437.214844 L 889.214844 394.785156 L 846.785156 394.785156 "/>
<path style="fill-rule:nonzero;fill:rgb(55%,51%,53%);fill-opacity:1;stroke-width:1;stroke-linecap:butt;stroke-linejoin:miter;stroke:rgb(0%,0%,0%);stroke-opacity:1;stroke-miterlimit:10;" d="M 998.785156 170.785156 L 998.785156 213.214844 L 1041.214844 213.214844 L 1041.214844 170.785156 L 998.785156 170.785156 "/>
<path style="fill-rule:nonzero;fill:rgb(35%,70%,90%);fill-opacity:1;stroke-width:1;stroke-linecap:butt;stroke-linejoin:miter;stroke:rgb(0%,0%,0%);stroke-opacity:1;stroke-miterlimit:10;" d="M 689.785156 154.785156 L 689.785156 197.214844 L 732.214844 197.214844 L 732.214844 154.785156 L 689.785156 154.785156 "/>
</g>
</svg>
