<?xml version="1.0" encoding="UTF-8"?>
<svg xmlns="http://www.w3.org/2000/svg" xmlns:xlink="http://www.w3.org/1999/xlink" width="1179pt" height="517pt" viewBox="0 0 1179 517" version="1.1">
<g id="surface811">
<rect x="0" y="0" width="1179" height="517" style="fill:rgb(90%,90%,90%);fill-opacity:1;stroke:none;"/>
<path style="fill-rule:nonzero;fill:rgb(53%,27%,7%);fill-opacity:1;stroke-width:1;stroke-linecap:butt;stroke-linejoin:miter;stroke:rgb(0%,0%,0%);stroke-opacity:1;stroke-miterlimit:10;" d="M 816 203.601562 C 816 189.199219 792 189.199219 792 203.601562 C 792 218 816 220.398438 816 232.398438 C 816 220.398438 840 218 840 203.601562 C 840 189.199219 816 189.199219 816 203.601562 "/>
<path style="fill-rule:nonzero;fill:rgb(53%,27%,7%);fill-opacity:1;stroke-width:1;stroke-linecap:butt;stroke-linejoin:miter;stroke:rgb(0%,0%,0%);stroke-opacity:1;stroke-miterlimit:10;" d="M 231 298.601562 C 231 284.199219 207 284.199219 207 298.601562 C 207 313 231 315.398438 231 327.398438 C 231 315.398438 255 313 255 298.601562 C 255 284.199219 231 284.199219 231 298.601562 "/>
<path style="fill-rule:nonzero;fill:rgb(53%,27%,7%);fill-opacity:1;stroke-width:1;stroke-linecap:butt;stroke-linejoin:miter;stroke:rgb(0%,0%,0%);stroke-opacity:1;stroke-miterlimit:10;" d="M 934 122.601562 C 934 108.199219 910 108.199219 910 122.601562 C 910 137 934 139.398438 934 151.398438 C 934 139.398438 958 137 958 122.601562 C 958 108.199219 934 108.199219 934 122.601562 "/>
<path style="fill-rule:nonzero;fill:rgb(53%,27%,7%);fill-opacity:1;stroke-width:1;stroke-linecap:butt;stroke-linejoin:miter;stroke:rgb(0%,0%,0%);stroke-opacity:1;stroke-miterlimit:10;" d="M 90 282.601562 C 90 268.199219 66 268.199219 66 282.601562 C 66 297 90 299.398438 90 311.398438 C 90 299.398438 114 297 114 282.601562 C 114 268.199219 90 268.199219 90 282.601562 "/>
<path style="fill-rule:nonzero;fill:rgb(53%,27%,7%);fill-opacity:1;stroke-width:1;stroke-linecap:butt;stroke-linejoin:miter;stroke:rgb(0%,0%,0%);stroke-opacity:1;stroke-miterlimit:10;" d="M 693 375.601562 C 693 361.199219 669 361.199219 669 375.601562 C 669 390 693 392.398438 693 404.398438 C 693 392.398438 717 390 717 375.601562 C 717 361.199219 693 361.199219 693 375.601562 "/>
<path style="fill-rule:nonzero;fill:rgb(100%,51%,0%);fill-opacity:1;stroke-width:1;stroke-linecap:butt;stroke-linejoin:miter;stroke:rgb(0%,0%,0%);stroke-opacity:1;stroke-miterlimit:10;" d="M 412.214844 178 C 412.214844 189.714844 402.714844 199.214844 391 199.214844 C 379.285156 199.214844 369.785156 189.714844 369.785156 178 C 369.785156 166.285156 379.285156 156.785156 391 156.785156 C 402.714844 156.785156 412.214844 166.285156 412.214844 178 "/>
<path style="fill-rule:nonzero;fill:rgb(100%,51%,0%);fill-opacity:1;stroke-width:1;stroke-linecap:butt;stroke-linejoin:miter;stroke:rgb(0%,0%,0%);stroke-opacity:1;stroke-miterlimit:10;" d="M 385.214844 374 C 385.214844 385.714844 375.714844 395.214844 364 395.214844 C 352.285156 395.214844 342.785156 385.714844 342.785156 374 C 342.785156 362.285156 352.285156 352.785156 364 352.785156 C 375.714844 352.785156 385.214844 362.285156 385.214844 374 "/>
<path style="fill-rule:nonzero;fill:rgb(100%,51%,0%);fill-opacity:1;stroke-width:1;stroke-linecap:butt;stroke-linejoin:miter;stroke:rgb(0%,0%,0%);stroke-opacity:1;stroke-miterlimit:10;" d="M 137.214844 100 C 137.214844 111.714844 127.714844 121.214844 116 121.214844 C 104.285156 121.214844 94.785156 111.714844 94.785156 100 C 94.785156 88.285156 104.285156 78.785156 116 78.785156 C 127.714844 78.785156 137.214844 88.285156 137.214844 100 "/>
</g>
</svg>
