<?xml version="1.0" encoding="UTF-8"?>
<svg xmlns="http://www.w3.org/2000/svg" xmlns:xlink="http://www.w3.org/1999/xlink" width="1179pt" height="517pt" viewBox="0 0 1179 517" version="1.1">
<g id="surface1501">
<rect x="0" y="0" width="1179" height="517" style="fill:rgb(90%,90%,90%);fill-opacity:1;stroke:none;"/>
<path style="fill-rule:nonzero;fill:rgb(53%,27%,7%);fill-opacity:1;stroke-width:1;stroke-linecap:butt;stroke-linejoin:miter;stroke:rgb(0%,0%,0%);stroke-opacity:1;stroke-miterlimit:10;" d="M 745.214844 101 C 745.214844 112.714844 735.714844 122.214844 724 122.214844 C 712.285156 122.214844 702.785156 112.714844 702.785156 101 C 702.785156 89.285156 712.285156 79.785156 724 79.785156 C 735.714844 79.785156 745.214844 89.285156 745.214844 101 "/>
<path style="fill-rule:nonzero;fill:rgb(53%,27%,7%);fill-opacity:1;stroke-width:1;stroke-linecap:butt;stroke-linejoin:miter;stroke:rgb(0%,0%,0%);stroke-opacity:1;stroke-miterlimit:10;" d="M 620.214844 246 C 620.214844 257.714844 610.714844 267.214844 599 267.214844 C 587.285156 267.214844 577.785156 257.714844 577.785156 246 C 577.785156 234.285156 587.285156 224.785156 599 224.785156 C 610.714844 224.785156 620.214844 234.285156 620.214844 246 "/>
<path style="fill-rule:nonzero;fill:rgb(53%,27%,7%);fill-opacity:1;stroke-width:1;stroke-linecap:butt;stroke-linejoin:miter;stroke:rgb(0%,0%,0%);stroke-opacity:1;stroke-miterlimit:10;" d="M 489.214844 97 C 489.214844 108.714844 479.714844 118.214844 468 118.214844 C 456.285156 118.214844 446.785156 108.714844 446.785156 97 C 446.785156 85.285156 456.285156 75.785156 468 75.785156 C 479.714844 75.785156 489.214844 85.285156 489.214844 97 "/>
<path style="fill-rule:nonzero;fill:rgb(53%,27%,7%);fill-opacity:1;stroke-width:1;stroke-linecap:butt;stroke-linejoin:miter;stroke:rgb(0%,0%,0%);stroke-opacity:1;stroke-miterlimit:10;" d="M 773.214844 419 C 773.214844 430.714844 763.714844 440.214844 752 440.214844 C 740.285156 440.214844 730.785156 430.714844 730.785156 419 C 730.785156 407.285156 740.285156 397.785156 752 397.785156 C 763.714844 397.785156 773.214844 407.285156 773.214844 419 "/>
<path style="fill-rule:nonzero;fill:rgb(55%,51%,53%);fill-opacity:1;stroke-width:1;stroke-linecap:butt;stroke-linejoin:miter;stroke:rgb(0%,0%,0%);stroke-opacity:1;stroke-miterlimit:10;" d="M 1029 336 L 1003.019531 381 L 1054.980469 381 L 1029 336 "/>
<path style="fill-rule:nonzero;fill:rgb(55%,51%,53%);fill-opacity:1;stroke-width:1;stroke-linecap:butt;stroke-linejoin:miter;stroke:rgb(0%,0%,0%);stroke-opacity:1;stroke-miterlimit:10;" d="M 273 149 L 247.019531 194 L 298.980469 194 L 273 149 "/>
<path style="fill-rule:nonzero;fill:rgb(55%,51%,53%);fill-opacity:1;stroke-width:1;stroke-linecap:butt;stroke-linejoin:miter;stroke:rgb(0%,0%,0%);stroke-opacity:1;stroke-miterlimit:10;" d="M 343 298 L 317.019531 343 L 368.980469 343 L 343 298 "/>
</g>
</svg>
