<?xml version="1.0" encoding="UTF-8"?>
<svg xmlns="http://www.w3.org/2000/svg" xmlns:xlink="http://www.w3.org/1999/xlink" width="1179pt" height="517pt" viewBox="0 0 1179 517" version="1.1">
<g id="surface991">
<rect x="0" y="0" width="1179" height="517" style="fill:rgb(90%,90%,90%);fill-opacity:1;stroke:none;"/>
<path style="fill-rule:nonzero;fill:rgb(53%,27%,7%);fill-opacity:1;stroke-width:1;stroke-linecap:butt;stroke-linejoin:miter;stroke:rgb(0%,0%,0%);stroke-opacity:1;stroke-miterlimit:10;" d="M 844.214844 319 C 844.214844 330.714844 834.714844 340.214844 823 340.214844 C 811.285156 340.214844 801.785156 330.714844 801.785156 319 C 801.785156 307.285156 811.285156 297.785156 823 297.785156 C 834.714844 297.785156 844.214844 307.285156 844.214844 319 "/>
<path style="fill-rule:nonzero;fill:rgb(53%,27%,7%);fill-opacity:1;stroke-width:1;stroke-linecap:butt;stroke-linejoin:miter;stroke:rgb(0%,0%,0%);stroke-opacity:1;stroke-miterlimit:10;" d="M 288.214844 233 C 288.214844 244.714844 278.714844 254.214844 267 254.214844 C 255.285156 254.214844 245.785156 244.714844 245.785156 233 C 245.785156 221.285156 255.285156 211.785156 267 211.785156 C 278.714844 211.785156 288.214844 221.285156 288.214844 233 "/>
<path style="fill-rule:nonzero;fill:rgb(53%,27%,7%);fill-opacity:1;stroke-width:1;stroke-linecap:butt;stroke-linejoin:miter;stroke:rgb(0%,0%,0%);stroke-opacity:1;stroke-miterlimit:10;" d="M 297.214844 363 C 297.214844 374.714844 287.714844 384.214844 276 384.214844 C 264.285156 384.214844 254.785156 374.714844 254.785156 363 C 254.785156 351.285156 264.285156 341.785156 276 341.785156 C 287.714844 341.785156 297.214844 351.285156 297.214844 363 "/>
<path style="fill-rule:nonzero;fill:rgb(53%,27%,7%);fill-opacity:1;stroke-width:1;stroke-linecap:butt;stroke-linejoin:miter;stroke:rgb(0%,0%,0%);stroke-opacity:1;stroke-miterlimit:10;" d="M 541.214844 174 C 541.214844 185.714844 531.714844 195.214844 520 195.214844 C 508.285156 195.214844 498.785156 185.714844 498.785156 174 C 498.785156 162.285156 508.285156 152.785156 520 152.785156 C 531.714844 152.785156 541.214844 162.285156 541.214844 174 "/>
<path style="fill-rule:nonzero;fill:rgb(53%,27%,7%);fill-opacity:1;stroke-width:1;stroke-linecap:butt;stroke-linejoin:miter;stroke:rgb(0%,0%,0%);stroke-opacity:1;stroke-miterlimit:10;" d="M 133.214844 402 C 133.214844 413.714844 123.714844 423.214844 112 423.214844 C 100.285156 423.214844 90.785156 413.714844 90.785156 402 C 90.785156 390.285156 100.285156 380.785156 112 380.785156 C 123.714844 380.785156 133.214844 390.285156 133.214844 402 "/>
<path style="fill-rule:nonzero;fill:rgb(100%,51%,0%);fill-opacity:1;stroke-width:1;stroke-linecap:butt;stroke-linejoin:miter;stroke:rgb(0%,0%,0%);stroke-opacity:1;stroke-miterlimit:10;" d="M 343 105 L 372.664062 105 L 384.664062 76.785156 L 396.664062 105 L 426.332031 105 L 402.332031 122.4375 L 410.417969 153.980469 L 384.664062 136.542969 L 358.914062 153.980469 L 371.214844 122.4375 L 343 105 "/>
<path style="fill-rule:nonzero;fill:rgb(100%,51%,0%);fill-opacity:1;stroke-width:1;stroke-linecap:butt;stroke-linejoin:miter;stroke:rgb(0%,0%,0%);stroke-opacity:1;stroke-miterlimit:10;" d="M 478 386 L 507.664062 386 L 519.664062 357.785156 L 531.664062 386 L 561.332031 386 L 537.332031 403.4375 L 545.417969 434.980469 L 519.664062 417.542969 L 493.914062 434.980469 L 506.214844 403.4375 L 478 386 "/>
<path style="fill-rule:nonzero;fill:rgb(100%,51%,0%);fill-opacity:1;stroke-width:1;stroke-linecap:butt;stroke-linejoin:miter;stroke:rgb(0%,0%,0%);stroke-opacity:1;stroke-miterlimit:10;" d="M 942 244 L 971.664062 244 L 983.664062 215.785156 L 995.664062 244 L 1025.332031 244 L 1001.332031 261.4375 L 1009.417969 292.980469 L 983.664062 275.542969 L 957.914062 292.980469 L 970.214844 261.4375 L 942 244 "/>
<path style="fill-rule:nonzero;fill:rgb(100%,51%,0%);fill-opacity:1;stroke-width:1;stroke-linecap:butt;stroke-linejoin:miter;stroke:rgb(0%,0%,0%);stroke-opacity:1;stroke-miterlimit:10;" d="M 1027 111 L 1056.664062 111 L 1068.664062 82.785156 L 1080.664062 111 L 1110.332031 111 L 1086.332031 128.4375 L 1094.417969 159.980469 L 1068.664062 142.542969 L 1042.914062 159.980469 L 1055.214844 128.4375 L 1027 111 "/>
<path style="fill-rule:nonzero;fill:rgb(100%,51%,0%);fill-opacity:1;stroke-width:1;stroke-linecap:butt;stroke-linejoin:miter;stroke:rgb(0%,0%,0%);stroke-opacity:1;stroke-miterlimit:10;" d="M 1008 365 L 1037.664062 365 L 1049.664062 336.785156 L 1061.664062 365 L 1091.332031 365 L 1067.332031 382.4375 L 1075.417969 413.980469 L 1049.664062 396.542969 L 1023.914062 413.980469 L 1036.214844 382.4375 L 1008 365 "/>
</g>
</svg>
