<?xml version="1.0" encoding="UTF-8"?>
<svg xmlns="http://www.w3.org/2000/svg" xmlns:xlink="http://www.w3.org/1999/xlink" width="1179pt" height="517pt" viewBox="0 0 1179 517" version="1.1">
<g id="surface1001">
<rect x="0" y="0" width="1179" height="517" style="fill:rgb(90%,90%,90%);fill-opacity:1;stroke:none;"/>
<path style="fill-rule:nonzero;fill:rgb(35%,70%,90%);fill-opacity:1;stroke-width:1;stroke-linecap:butt;stroke-linejoin:miter;stroke:rgb(0%,0%,0%);stroke-opacity:1;stroke-miterlimit:10;" d="M 525.214844 297 C 525.214844 308.714844 515.714844 318.214844 504 318.214844 C 492.285156 318.214844 482.785156 308.714844 482.785156 297 C 482.785156 285.285156 492.285156 275.785156 504 275.785156 C 515.714844 275.785156 525.214844 285.285156 525.214844 297 "/>
<path style="fill-rule:nonzero;fill:rgb(35%,70%,90%);fill-opacity:1;stroke-width:1;stroke-linecap:butt;stroke-linejoin:miter;stroke:rgb(0%,0%,0%);stroke-opacity:1;stroke-miterlimit:10;" d="M 982.214844 341 C 982.214844 352.714844 972.714844 362.214844 961 362.214844 C 949.285156 362.214844 939.785156 352.714844 939.785156 341 C 939.785156 329.285156 949.285156 319.785156 961 319.785156 C 972.714844 319.785156 982.214844 329.285156 982.214844 341 "/>
<path style="fill-rule:nonzero;fill:rgb(35%,70%,90%);fill-opacity:1;stroke-width:1;stroke-linecap:butt;stroke-linejoin:miter;stroke:rgb(0%,0%,0%);stroke-opacity:1;stroke-miterlimit:10;" d="M 280.214844 319 C 280.214844 330.714844 270.714844 340.214844 259 340.214844 C 247.285156 340.214844 237.785156 330.714844 237.785156 319 C 237.785156 307.285156 247.285156 297.785156 259 297.785156 C 270.714844 297.785156 280.214844 307.285156 280.214844 319 "/>
<path style="fill-rule:nonzero;fill:rgb(35%,70%,90%);fill-opacity:1;stroke-width:1;stroke-linecap:butt;stroke-linejoin:miter;stroke:rgb(0%,0%,0%);stroke-opacity:1;stroke-miterlimit:10;" d="M 419.214844 148 C 419.214844 159.714844 409.714844 169.214844 398 169.214844 C 386.285156 169.214844 376.785156 159.714844 376.785156 148 C 376.785156 136.285156 386.285156 126.785156 398 126.785156 C 409.714844 126.785156 419.214844 136.285156 419.214844 148 "/>
<path style="fill-rule:nonzero;fill:rgb(55%,51%,53%);fill-opacity:1;stroke-width:1;stroke-linecap:butt;stroke-linejoin:miter;stroke:rgb(0%,0%,0%);stroke-opacity:1;stroke-miterlimit:10;" d="M 91 355 L 120.664062 355 L 132.664062 326.785156 L 144.664062 355 L 174.332031 355 L 150.332031 372.4375 L 158.417969 403.980469 L 132.664062 386.542969 L 106.914062 403.980469 L 119.214844 372.4375 L 91 355 "/>
<path style="fill-rule:nonzero;fill:rgb(55%,51%,53%);fill-opacity:1;stroke-width:1;stroke-linecap:butt;stroke-linejoin:miter;stroke:rgb(0%,0%,0%);stroke-opacity:1;stroke-miterlimit:10;" d="M 824 265 L 853.664062 265 L 865.664062 236.785156 L 877.664062 265 L 907.332031 265 L 883.332031 282.4375 L 891.417969 313.980469 L 865.664062 296.542969 L 839.914062 313.980469 L 852.214844 282.4375 L 824 265 "/>
<path style="fill-rule:nonzero;fill:rgb(55%,51%,53%);fill-opacity:1;stroke-width:1;stroke-linecap:butt;stroke-linejoin:miter;stroke:rgb(0%,0%,0%);stroke-opacity:1;stroke-miterlimit:10;" d="M 186 102 L 215.664062 102 L 227.664062 73.785156 L 239.664062 102 L 269.332031 102 L 245.332031 119.4375 L 253.417969 150.980469 L 227.664062 133.542969 L 201.914062 150.980469 L 214.214844 119.4375 L 186 102 "/>
<path style="fill-rule:nonzero;fill:rgb(55%,51%,53%);fill-opacity:1;stroke-width:1;stroke-linecap:butt;stroke-linejoin:miter;stroke:rgb(0%,0%,0%);stroke-opacity:1;stroke-miterlimit:10;" d="M 673 160 L 702.664062 160 L 714.664062 131.785156 L 726.664062 160 L 756.332031 160 L 732.332031 177.4375 L 740.417969 208.980469 L 714.664062 191.542969 L 688.914062 208.980469 L 701.214844 177.4375 L 673 160 "/>
</g>
</svg>
