<?xml version="1.0" encoding="UTF-8"?>
<svg xmlns="http://www.w3.org/2000/svg" xmlns:xlink="http://www.w3.org/1999/xlink" width="1179pt" height="517pt" viewBox="0 0 1179 517" version="1.1">
<g id="surface1356">
<rect x="0" y="0" width="1179" height="517" style="fill:rgb(90%,90%,90%);fill-opacity:1;stroke:none;"/>
<path style="fill-rule:nonzero;fill:rgb(55%,51%,53%);fill-opacity:1;stroke-width:1;stroke-linecap:butt;stroke-linejoin:miter;stroke:rgb(0%,0%,0%);stroke-opacity:1;stroke-miterlimit:10;" d="M 158 123 L 132.019531 168 L 183.980469 168 L 158 123 "/>
<path style="fill-rule:nonzero;fill:rgb(55%,51%,53%);fill-opacity:1;stroke-width:1;stroke-linecap:butt;stroke-linejoin:miter;stroke:rgb(0%,0%,0%);stroke-opacity:1;stroke-miterlimit:10;" d="M 314 185 L 288.019531 230 L 339.980469 230 L 314 185 "/>
<path style="fill-rule:nonzero;fill:rgb(55%,51%,53%);fill-opacity:1;stroke-width:1;stroke-linecap:butt;stroke-linejoin:miter;stroke:rgb(0%,0%,0%);stroke-opacity:1;stroke-miterlimit:10;" d="M 183 264 L 157.019531 309 L 208.980469 309 L 183 264 "/>
<path style="fill-rule:nonzero;fill:rgb(55%,51%,53%);fill-opacity:1;stroke-width:1;stroke-linecap:butt;stroke-linejoin:miter;stroke:rgb(0%,0%,0%);stroke-opacity:1;stroke-miterlimit:10;" d="M 976 331 L 950.019531 376 L 1001.980469 376 L 976 331 "/>
<path style="fill-rule:nonzero;fill:rgb(55%,51%,53%);fill-opacity:1;stroke-width:1;stroke-linecap:butt;stroke-linejoin:miter;stroke:rgb(0%,0%,0%);stroke-opacity:1;stroke-miterlimit:10;" d="M 638 144 L 612.019531 189 L 663.980469 189 L 638 144 "/>
<path style="fill-rule:nonzero;fill:rgb(35%,70%,90%);fill-opacity:1;stroke-width:1;stroke-linecap:butt;stroke-linejoin:miter;stroke:rgb(0%,0%,0%);stroke-opacity:1;stroke-miterlimit:10;" d="M 488 410 L 517.664062 410 L 529.664062 381.785156 L 541.664062 410 L 571.332031 410 L 547.332031 427.4375 L 555.417969 458.980469 L 529.664062 441.542969 L 503.914062 458.980469 L 516.214844 427.4375 L 488 410 "/>
<path style="fill-rule:nonzero;fill:rgb(35%,70%,90%);fill-opacity:1;stroke-width:1;stroke-linecap:butt;stroke-linejoin:miter;stroke:rgb(0%,0%,0%);stroke-opacity:1;stroke-miterlimit:10;" d="M 1005 98 L 1034.664062 98 L 1046.664062 69.785156 L 1058.664062 98 L 1088.332031 98 L 1064.332031 115.4375 L 1072.417969 146.980469 L 1046.664062 129.542969 L 1020.914062 146.980469 L 1033.214844 115.4375 L 1005 98 "/>
<path style="fill-rule:nonzero;fill:rgb(35%,70%,90%);fill-opacity:1;stroke-width:1;stroke-linecap:butt;stroke-linejoin:miter;stroke:rgb(0%,0%,0%);stroke-opacity:1;stroke-miterlimit:10;" d="M 779 409 L 808.664062 409 L 820.664062 380.785156 L 832.664062 409 L 862.332031 409 L 838.332031 426.4375 L 846.417969 457.980469 L 820.664062 440.542969 L 794.914062 457.980469 L 807.214844 426.4375 L 779 409 "/>
<path style="fill-rule:nonzero;fill:rgb(35%,70%,90%);fill-opacity:1;stroke-width:1;stroke-linecap:butt;stroke-linejoin:miter;stroke:rgb(0%,0%,0%);stroke-opacity:1;stroke-miterlimit:10;" d="M 819 213 L 848.664062 213 L 860.664062 184.785156 L 872.664062 213 L 902.332031 213 L 878.332031 230.4375 L 886.417969 261.980469 L 860.664062 244.542969 L 834.914062 261.980469 L 847.214844 230.4375 L 819 213 "/>
</g>
</svg>
