<?xml version="1.0" encoding="UTF-8"?>
<svg xmlns="http://www.w3.org/2000/svg" xmlns:xlink="http://www.w3.org/1999/xlink" width="1179pt" height="517pt" viewBox="0 0 1179 517" version="1.1">
<g id="surface331">
<rect x="0" y="0" width="1179" height="517" style="fill:rgb(90%,90%,90%);fill-opacity:1;stroke:none;"/>
<path style="fill-rule:nonzero;fill:rgb(55%,51%,53%);fill-opacity:1;stroke-width:1;stroke-linecap:butt;stroke-linejoin:miter;stroke:rgb(0%,0%,0%);stroke-opacity:1;stroke-miterlimit:10;" d="M 823 376 L 852.664062 376 L 864.664062 347.785156 L 876.664062 376 L 906.332031 376 L 882.332031 393.4375 L 890.417969 424.980469 L 864.664062 407.542969 L 838.914062 424.980469 L 851.214844 393.4375 L 823 376 "/>
<path style="fill-rule:nonzero;fill:rgb(55%,51%,53%);fill-opacity:1;stroke-width:1;stroke-linecap:butt;stroke-linejoin:miter;stroke:rgb(0%,0%,0%);stroke-opacity:1;stroke-miterlimit:10;" d="M 341 127 L 370.664062 127 L 382.664062 98.785156 L 394.664062 127 L 424.332031 127 L 400.332031 144.4375 L 408.417969 175.980469 L 382.664062 158.542969 L 356.914062 175.980469 L 369.214844 144.4375 L 341 127 "/>
<path style="fill-rule:nonzero;fill:rgb(55%,51%,53%);fill-opacity:1;stroke-width:1;stroke-linecap:butt;stroke-linejoin:miter;stroke:rgb(0%,0%,0%);stroke-opacity:1;stroke-miterlimit:10;" d="M 640 184 L 669.664062 184 L 681.664062 155.785156 L 693.664062 184 L 723.332031 184 L 699.332031 201.4375 L 707.417969 232.980469 L 681.664062 215.542969 L 655.914062 232.980469 L 668.214844 201.4375 L 640 184 "/>
<path style="fill-rule:nonzero;fill:rgb(55%,51%,53%);fill-opacity:1;stroke-width:1;stroke-linecap:butt;stroke-linejoin:miter;stroke:rgb(0%,0%,0%);stroke-opacity:1;stroke-miterlimit:10;" d="M 842 179 L 871.664062 179 L 883.664062 150.785156 L 895.664062 179 L 925.332031 179 L 901.332031 196.4375 L 909.417969 227.980469 L 883.664062 210.542969 L 857.914062 227.980469 L 870.214844 196.4375 L 842 179 "/>
<path style="fill-rule:nonzero;fill:rgb(55%,51%,53%);fill-opacity:1;stroke-width:1;stroke-linecap:butt;stroke-linejoin:miter;stroke:rgb(0%,0%,0%);stroke-opacity:1;stroke-miterlimit:10;" d="M 363 323 L 392.664062 323 L 404.664062 294.785156 L 416.664062 323 L 446.332031 323 L 422.332031 340.4375 L 430.417969 371.980469 L 404.664062 354.542969 L 378.914062 371.980469 L 391.214844 340.4375 L 363 323 "/>
<path style="fill-rule:nonzero;fill:rgb(53%,27%,7%);fill-opacity:1;stroke-width:1;stroke-linecap:butt;stroke-linejoin:miter;stroke:rgb(0%,0%,0%);stroke-opacity:1;stroke-miterlimit:10;" d="M 543.214844 89 C 543.214844 100.714844 533.714844 110.214844 522 110.214844 C 510.285156 110.214844 500.785156 100.714844 500.785156 89 C 500.785156 77.285156 510.285156 67.785156 522 67.785156 C 533.714844 67.785156 543.214844 77.285156 543.214844 89 "/>
<path style="fill-rule:nonzero;fill:rgb(53%,27%,7%);fill-opacity:1;stroke-width:1;stroke-linecap:butt;stroke-linejoin:miter;stroke:rgb(0%,0%,0%);stroke-opacity:1;stroke-miterlimit:10;" d="M 1015.214844 349 C 1015.214844 360.714844 1005.714844 370.214844 994 370.214844 C 982.285156 370.214844 972.785156 360.714844 972.785156 349 C 972.785156 337.285156 982.285156 327.785156 994 327.785156 C 1005.714844 327.785156 1015.214844 337.285156 1015.214844 349 "/>
<path style="fill-rule:nonzero;fill:rgb(53%,27%,7%);fill-opacity:1;stroke-width:1;stroke-linecap:butt;stroke-linejoin:miter;stroke:rgb(0%,0%,0%);stroke-opacity:1;stroke-miterlimit:10;" d="M 1042.214844 156 C 1042.214844 167.714844 1032.714844 177.214844 1021 177.214844 C 1009.285156 177.214844 999.785156 167.714844 999.785156 156 C 999.785156 144.285156 1009.285156 134.785156 1021 134.785156 C 1032.714844 134.785156 1042.214844 144.285156 1042.214844 156 "/>
</g>
</svg>
