<?xml version="1.0" encoding="UTF-8"?>
<svg xmlns="http://www.w3.org/2000/svg" xmlns:xlink="http://www.w3.org/1999/xlink" width="1179pt" height="517pt" viewBox="0 0 1179 517" version="1.1">
<g id="surface1261">
<rect x="0" y="0" width="1179" height="517" style="fill:rgb(90%,90%,90%);fill-opacity:1;stroke:none;"/>
<path style="fill-rule:nonzero;fill:rgb(53%,27%,7%);fill-opacity:1;stroke-width:1;stroke-linecap:butt;stroke-linejoin:miter;stroke:rgb(0%,0%,0%);stroke-opacity:1;stroke-miterlimit:10;" d="M 818.214844 230 C 818.214844 241.714844 808.714844 251.214844 797 251.214844 C 785.285156 251.214844 775.785156 241.714844 775.785156 230 C 775.785156 218.285156 785.285156 208.785156 797 208.785156 C 808.714844 208.785156 818.214844 218.285156 818.214844 230 "/>
<path style="fill-rule:nonzero;fill:rgb(53%,27%,7%);fill-opacity:1;stroke-width:1;stroke-linecap:butt;stroke-linejoin:miter;stroke:rgb(0%,0%,0%);stroke-opacity:1;stroke-miterlimit:10;" d="M 183.214844 131 C 183.214844 142.714844 173.714844 152.214844 162 152.214844 C 150.285156 152.214844 140.785156 142.714844 140.785156 131 C 140.785156 119.285156 150.285156 109.785156 162 109.785156 C 173.714844 109.785156 183.214844 119.285156 183.214844 131 "/>
<path style="fill-rule:nonzero;fill:rgb(53%,27%,7%);fill-opacity:1;stroke-width:1;stroke-linecap:butt;stroke-linejoin:miter;stroke:rgb(0%,0%,0%);stroke-opacity:1;stroke-miterlimit:10;" d="M 1023.214844 201 C 1023.214844 212.714844 1013.714844 222.214844 1002 222.214844 C 990.285156 222.214844 980.785156 212.714844 980.785156 201 C 980.785156 189.285156 990.285156 179.785156 1002 179.785156 C 1013.714844 179.785156 1023.214844 189.285156 1023.214844 201 "/>
<path style="fill-rule:nonzero;fill:rgb(53%,27%,7%);fill-opacity:1;stroke-width:1;stroke-linecap:butt;stroke-linejoin:miter;stroke:rgb(0%,0%,0%);stroke-opacity:1;stroke-miterlimit:10;" d="M 613.214844 246 C 613.214844 257.714844 603.714844 267.214844 592 267.214844 C 580.285156 267.214844 570.785156 257.714844 570.785156 246 C 570.785156 234.285156 580.285156 224.785156 592 224.785156 C 603.714844 224.785156 613.214844 234.285156 613.214844 246 "/>
<path style="fill-rule:nonzero;fill:rgb(53%,27%,7%);fill-opacity:1;stroke-width:1;stroke-linecap:butt;stroke-linejoin:miter;stroke:rgb(0%,0%,0%);stroke-opacity:1;stroke-miterlimit:10;" d="M 406.214844 292 C 406.214844 303.714844 396.714844 313.214844 385 313.214844 C 373.285156 313.214844 363.785156 303.714844 363.785156 292 C 363.785156 280.285156 373.285156 270.785156 385 270.785156 C 396.714844 270.785156 406.214844 280.285156 406.214844 292 "/>
<path style="fill-rule:nonzero;fill:rgb(100%,51%,0%);fill-opacity:1;stroke-width:1;stroke-linecap:butt;stroke-linejoin:miter;stroke:rgb(0%,0%,0%);stroke-opacity:1;stroke-miterlimit:10;" d="M 261 230 L 290.664062 230 L 302.664062 201.785156 L 314.664062 230 L 344.332031 230 L 320.332031 247.4375 L 328.417969 278.980469 L 302.664062 261.542969 L 276.914062 278.980469 L 289.214844 247.4375 L 261 230 "/>
<path style="fill-rule:nonzero;fill:rgb(100%,51%,0%);fill-opacity:1;stroke-width:1;stroke-linecap:butt;stroke-linejoin:miter;stroke:rgb(0%,0%,0%);stroke-opacity:1;stroke-miterlimit:10;" d="M 310 90 L 339.664062 90 L 351.664062 61.785156 L 363.664062 90 L 393.332031 90 L 369.332031 107.4375 L 377.417969 138.980469 L 351.664062 121.542969 L 325.914062 138.980469 L 338.214844 107.4375 L 310 90 "/>
<path style="fill-rule:nonzero;fill:rgb(100%,51%,0%);fill-opacity:1;stroke-width:1;stroke-linecap:butt;stroke-linejoin:miter;stroke:rgb(0%,0%,0%);stroke-opacity:1;stroke-miterlimit:10;" d="M 887 326 L 916.664062 326 L 928.664062 297.785156 L 940.664062 326 L 970.332031 326 L 946.332031 343.4375 L 954.417969 374.980469 L 928.664062 357.542969 L 902.914062 374.980469 L 915.214844 343.4375 L 887 326 "/>
<path style="fill-rule:nonzero;fill:rgb(100%,51%,0%);fill-opacity:1;stroke-width:1;stroke-linecap:butt;stroke-linejoin:miter;stroke:rgb(0%,0%,0%);stroke-opacity:1;stroke-miterlimit:10;" d="M 94 385 L 123.664062 385 L 135.664062 356.785156 L 147.664062 385 L 177.332031 385 L 153.332031 402.4375 L 161.417969 433.980469 L 135.664062 416.542969 L 109.914062 433.980469 L 122.214844 402.4375 L 94 385 "/>
<path style="fill-rule:nonzero;fill:rgb(100%,51%,0%);fill-opacity:1;stroke-width:1;stroke-linecap:butt;stroke-linejoin:miter;stroke:rgb(0%,0%,0%);stroke-opacity:1;stroke-miterlimit:10;" d="M 329 429 L 358.664062 429 L 370.664062 400.785156 L 382.664062 429 L 412.332031 429 L 388.332031 446.4375 L 396.417969 477.980469 L 370.664062 460.542969 L 344.914062 477.980469 L 357.214844 446.4375 L 329 429 "/>
</g>
</svg>
