<?xml version="1.0" encoding="UTF-8"?>
<svg xmlns="http://www.w3.org/2000/svg" xmlns:xlink="http://www.w3.org/1999/xlink" width="1179pt" height="517pt" viewBox="0 0 1179 517" version="1.1">
<g id="surface691">
<rect x="0" y="0" width="1179" height="517" style="fill:rgb(90%,90%,90%);fill-opacity:1;stroke:none;"/>
<path style="fill-rule:nonzero;fill:rgb(55%,51%,53%);fill-opacity:1;stroke-width:1;stroke-linecap:butt;stroke-linejoin:miter;stroke:rgb(0%,0%,0%);stroke-opacity:1;stroke-miterlimit:10;" d="M 347 108 L 376.664062 108 L 388.664062 79.785156 L 400.664062 108 L 430.332031 108 L 406.332031 125.4375 L 414.417969 156.980469 L 388.664062 139.542969 L 362.914062 156.980469 L 375.214844 125.4375 L 347 108 "/>
<path style="fill-rule:nonzero;fill:rgb(55%,51%,53%);fill-opacity:1;stroke-width:1;stroke-linecap:butt;stroke-linejoin:miter;stroke:rgb(0%,0%,0%);stroke-opacity:1;stroke-miterlimit:10;" d="M 603 219 L 632.664062 219 L 644.664062 190.785156 L 656.664062 219 L 686.332031 219 L 662.332031 236.4375 L 670.417969 267.980469 L 644.664062 250.542969 L 618.914062 267.980469 L 631.214844 236.4375 L 603 219 "/>
<path style="fill-rule:nonzero;fill:rgb(55%,51%,53%);fill-opacity:1;stroke-width:1;stroke-linecap:butt;stroke-linejoin:miter;stroke:rgb(0%,0%,0%);stroke-opacity:1;stroke-miterlimit:10;" d="M 81 351 L 110.664062 351 L 122.664062 322.785156 L 134.664062 351 L 164.332031 351 L 140.332031 368.4375 L 148.417969 399.980469 L 122.664062 382.542969 L 96.914062 399.980469 L 109.214844 368.4375 L 81 351 "/>
<path style="fill-rule:nonzero;fill:rgb(55%,51%,53%);fill-opacity:1;stroke-width:1;stroke-linecap:butt;stroke-linejoin:miter;stroke:rgb(0%,0%,0%);stroke-opacity:1;stroke-miterlimit:10;" d="M 447 379 L 476.664062 379 L 488.664062 350.785156 L 500.664062 379 L 530.332031 379 L 506.332031 396.4375 L 514.417969 427.980469 L 488.664062 410.542969 L 462.914062 427.980469 L 475.214844 396.4375 L 447 379 "/>
<path style="fill-rule:nonzero;fill:rgb(53%,27%,7%);fill-opacity:1;stroke-width:1;stroke-linecap:butt;stroke-linejoin:miter;stroke:rgb(0%,0%,0%);stroke-opacity:1;stroke-miterlimit:10;" d="M 797.214844 398 C 797.214844 409.714844 787.714844 419.214844 776 419.214844 C 764.285156 419.214844 754.785156 409.714844 754.785156 398 C 754.785156 386.285156 764.285156 376.785156 776 376.785156 C 787.714844 376.785156 797.214844 386.285156 797.214844 398 "/>
<path style="fill-rule:nonzero;fill:rgb(53%,27%,7%);fill-opacity:1;stroke-width:1;stroke-linecap:butt;stroke-linejoin:miter;stroke:rgb(0%,0%,0%);stroke-opacity:1;stroke-miterlimit:10;" d="M 237.214844 402 C 237.214844 413.714844 227.714844 423.214844 216 423.214844 C 204.285156 423.214844 194.785156 413.714844 194.785156 402 C 194.785156 390.285156 204.285156 380.785156 216 380.785156 C 227.714844 380.785156 237.214844 390.285156 237.214844 402 "/>
<path style="fill-rule:nonzero;fill:rgb(53%,27%,7%);fill-opacity:1;stroke-width:1;stroke-linecap:butt;stroke-linejoin:miter;stroke:rgb(0%,0%,0%);stroke-opacity:1;stroke-miterlimit:10;" d="M 264.214844 248 C 264.214844 259.714844 254.714844 269.214844 243 269.214844 C 231.285156 269.214844 221.785156 259.714844 221.785156 248 C 221.785156 236.285156 231.285156 226.785156 243 226.785156 C 254.714844 226.785156 264.214844 236.285156 264.214844 248 "/>
</g>
</svg>
