<?xml version="1.0" encoding="UTF-8"?>
<svg xmlns="http://www.w3.org/2000/svg" xmlns:xlink="http://www.w3.org/1999/xlink" width="1179pt" height="517pt" viewBox="0 0 1179 517" version="1.1">
<g id="surface766">
<rect x="0" y="0" width="1179" height="517" style="fill:rgb(90%,90%,90%);fill-opacity:1;stroke:none;"/>
<path style="fill-rule:nonzero;fill:rgb(53%,27%,7%);fill-opacity:1;stroke-width:1;stroke-linecap:butt;stroke-linejoin:miter;stroke:rgb(0%,0%,0%);stroke-opacity:1;stroke-miterlimit:10;" d="M 555 180.601562 C 555 166.199219 531 166.199219 531 180.601562 C 531 195 555 197.398438 555 209.398438 C 555 197.398438 579 195 579 180.601562 C 579 166.199219 555 166.199219 555 180.601562 "/>
<path style="fill-rule:nonzero;fill:rgb(53%,27%,7%);fill-opacity:1;stroke-width:1;stroke-linecap:butt;stroke-linejoin:miter;stroke:rgb(0%,0%,0%);stroke-opacity:1;stroke-miterlimit:10;" d="M 128 359.601562 C 128 345.199219 104 345.199219 104 359.601562 C 104 374 128 376.398438 128 388.398438 C 128 376.398438 152 374 152 359.601562 C 152 345.199219 128 345.199219 128 359.601562 "/>
<path style="fill-rule:nonzero;fill:rgb(53%,27%,7%);fill-opacity:1;stroke-width:1;stroke-linecap:butt;stroke-linejoin:miter;stroke:rgb(0%,0%,0%);stroke-opacity:1;stroke-miterlimit:10;" d="M 816 152.601562 C 816 138.199219 792 138.199219 792 152.601562 C 792 167 816 169.398438 816 181.398438 C 816 169.398438 840 167 840 152.601562 C 840 138.199219 816 138.199219 816 152.601562 "/>
<path style="fill-rule:nonzero;fill:rgb(53%,27%,7%);fill-opacity:1;stroke-width:1;stroke-linecap:butt;stroke-linejoin:miter;stroke:rgb(0%,0%,0%);stroke-opacity:1;stroke-miterlimit:10;" d="M 1023 404.601562 C 1023 390.199219 999 390.199219 999 404.601562 C 999 419 1023 421.398438 1023 433.398438 C 1023 421.398438 1047 419 1047 404.601562 C 1047 390.199219 1023 390.199219 1023 404.601562 "/>
<path style="fill-rule:nonzero;fill:rgb(53%,27%,7%);fill-opacity:1;stroke-width:1;stroke-linecap:butt;stroke-linejoin:miter;stroke:rgb(0%,0%,0%);stroke-opacity:1;stroke-miterlimit:10;" d="M 158 122.601562 C 158 108.199219 134 108.199219 134 122.601562 C 134 137 158 139.398438 158 151.398438 C 158 139.398438 182 137 182 122.601562 C 182 108.199219 158 108.199219 158 122.601562 "/>
<path style="fill-rule:nonzero;fill:rgb(100%,51%,0%);fill-opacity:1;stroke-width:1;stroke-linecap:butt;stroke-linejoin:miter;stroke:rgb(0%,0%,0%);stroke-opacity:1;stroke-miterlimit:10;" d="M 456.214844 414 C 456.214844 425.714844 446.714844 435.214844 435 435.214844 C 423.285156 435.214844 413.785156 425.714844 413.785156 414 C 413.785156 402.285156 423.285156 392.785156 435 392.785156 C 446.714844 392.785156 456.214844 402.285156 456.214844 414 "/>
<path style="fill-rule:nonzero;fill:rgb(100%,51%,0%);fill-opacity:1;stroke-width:1;stroke-linecap:butt;stroke-linejoin:miter;stroke:rgb(0%,0%,0%);stroke-opacity:1;stroke-miterlimit:10;" d="M 698.214844 122 C 698.214844 133.714844 688.714844 143.214844 677 143.214844 C 665.285156 143.214844 655.785156 133.714844 655.785156 122 C 655.785156 110.285156 665.285156 100.785156 677 100.785156 C 688.714844 100.785156 698.214844 110.285156 698.214844 122 "/>
<path style="fill-rule:nonzero;fill:rgb(100%,51%,0%);fill-opacity:1;stroke-width:1;stroke-linecap:butt;stroke-linejoin:miter;stroke:rgb(0%,0%,0%);stroke-opacity:1;stroke-miterlimit:10;" d="M 639.214844 392 C 639.214844 403.714844 629.714844 413.214844 618 413.214844 C 606.285156 413.214844 596.785156 403.714844 596.785156 392 C 596.785156 380.285156 606.285156 370.785156 618 370.785156 C 629.714844 370.785156 639.214844 380.285156 639.214844 392 "/>
<path style="fill-rule:nonzero;fill:rgb(100%,51%,0%);fill-opacity:1;stroke-width:1;stroke-linecap:butt;stroke-linejoin:miter;stroke:rgb(0%,0%,0%);stroke-opacity:1;stroke-miterlimit:10;" d="M 324.214844 423 C 324.214844 434.714844 314.714844 444.214844 303 444.214844 C 291.285156 444.214844 281.785156 434.714844 281.785156 423 C 281.785156 411.285156 291.285156 401.785156 303 401.785156 C 314.714844 401.785156 324.214844 411.285156 324.214844 423 "/>
<path style="fill-rule:nonzero;fill:rgb(100%,51%,0%);fill-opacity:1;stroke-width:1;stroke-linecap:butt;stroke-linejoin:miter;stroke:rgb(0%,0%,0%);stroke-opacity:1;stroke-miterlimit:10;" d="M 1037.214844 295 C 1037.214844 306.714844 1027.714844 316.214844 1016 316.214844 C 1004.285156 316.214844 994.785156 306.714844 994.785156 295 C 994.785156 283.285156 1004.285156 273.785156 1016 273.785156 C 1027.714844 273.785156 1037.214844 283.285156 1037.214844 295 "/>
</g>
</svg>
