<?xml version="1.0" encoding="UTF-8"?>
<svg xmlns="http://www.w3.org/2000/svg" xmlns:xlink="http://www.w3.org/1999/xlink" width="1179pt" height="517pt" viewBox="0 0 1179 517" version="1.1">
<g id="surface926">
<rect x="0" y="0" width="1179" height="517" style="fill:rgb(90%,90%,90%);fill-opacity:1;stroke:none;"/>
<path style="fill-rule:nonzero;fill:rgb(35%,70%,90%);fill-opacity:1;stroke-width:1;stroke-linecap:butt;stroke-linejoin:miter;stroke:rgb(0%,0%,0%);stroke-opacity:1;stroke-miterlimit:10;" d="M 189 292 L 218.664062 292 L 230.664062 263.785156 L 242.664062 292 L 272.332031 292 L 248.332031 309.4375 L 256.417969 340.980469 L 230.664062 323.542969 L 204.914062 340.980469 L 217.214844 309.4375 L 189 292 "/>
<path style="fill-rule:nonzero;fill:rgb(35%,70%,90%);fill-opacity:1;stroke-width:1;stroke-linecap:butt;stroke-linejoin:miter;stroke:rgb(0%,0%,0%);stroke-opacity:1;stroke-miterlimit:10;" d="M 171 190 L 200.664062 190 L 212.664062 161.785156 L 224.664062 190 L 254.332031 190 L 230.332031 207.4375 L 238.417969 238.980469 L 212.664062 221.542969 L 186.914062 238.980469 L 199.214844 207.4375 L 171 190 "/>
<path style="fill-rule:nonzero;fill:rgb(35%,70%,90%);fill-opacity:1;stroke-width:1;stroke-linecap:butt;stroke-linejoin:miter;stroke:rgb(0%,0%,0%);stroke-opacity:1;stroke-miterlimit:10;" d="M 302.214844 406 C 302.214844 417.714844 292.714844 427.214844 281 427.214844 C 269.285156 427.214844 259.785156 417.714844 259.785156 406 C 259.785156 394.285156 269.285156 384.785156 281 384.785156 C 292.714844 384.785156 302.214844 394.285156 302.214844 406 "/>
<path style="fill-rule:nonzero;fill:rgb(35%,70%,90%);fill-opacity:1;stroke-width:1;stroke-linecap:butt;stroke-linejoin:miter;stroke:rgb(0%,0%,0%);stroke-opacity:1;stroke-miterlimit:10;" d="M 394 156 L 423.664062 156 L 435.664062 127.785156 L 447.664062 156 L 477.332031 156 L 453.332031 173.4375 L 461.417969 204.980469 L 435.664062 187.542969 L 409.914062 204.980469 L 422.214844 173.4375 L 394 156 "/>
<path style="fill-rule:nonzero;fill:rgb(35%,70%,90%);fill-opacity:1;stroke-width:1;stroke-linecap:butt;stroke-linejoin:miter;stroke:rgb(0%,0%,0%);stroke-opacity:1;stroke-miterlimit:10;" d="M 345.214844 99 C 345.214844 110.714844 335.714844 120.214844 324 120.214844 C 312.285156 120.214844 302.785156 110.714844 302.785156 99 C 302.785156 87.285156 312.285156 77.785156 324 77.785156 C 335.714844 77.785156 345.214844 87.285156 345.214844 99 "/>
<path style="fill-rule:nonzero;fill:rgb(35%,70%,90%);fill-opacity:1;stroke-width:1;stroke-linecap:butt;stroke-linejoin:miter;stroke:rgb(0%,0%,0%);stroke-opacity:1;stroke-miterlimit:10;" d="M 398.214844 306 C 398.214844 317.714844 388.714844 327.214844 377 327.214844 C 365.285156 327.214844 355.785156 317.714844 355.785156 306 C 355.785156 294.285156 365.285156 284.785156 377 284.785156 C 388.714844 284.785156 398.214844 294.285156 398.214844 306 "/>
<path style="fill-rule:nonzero;fill:rgb(35%,70%,90%);fill-opacity:1;stroke-width:1;stroke-linecap:butt;stroke-linejoin:miter;stroke:rgb(0%,0%,0%);stroke-opacity:1;stroke-miterlimit:10;" d="M 751.214844 240 C 751.214844 251.714844 741.714844 261.214844 730 261.214844 C 718.285156 261.214844 708.785156 251.714844 708.785156 240 C 708.785156 228.285156 718.285156 218.785156 730 218.785156 C 741.714844 218.785156 751.214844 228.285156 751.214844 240 "/>
<path style="fill-rule:nonzero;fill:rgb(35%,70%,90%);fill-opacity:1;stroke-width:1;stroke-linecap:butt;stroke-linejoin:miter;stroke:rgb(0%,0%,0%);stroke-opacity:1;stroke-miterlimit:10;" d="M 831 401 L 860.664062 401 L 872.664062 372.785156 L 884.664062 401 L 914.332031 401 L 890.332031 418.4375 L 898.417969 449.980469 L 872.664062 432.542969 L 846.914062 449.980469 L 859.214844 418.4375 L 831 401 "/>
<path style="fill-rule:nonzero;fill:rgb(35%,70%,90%);fill-opacity:1;stroke-width:1;stroke-linecap:butt;stroke-linejoin:miter;stroke:rgb(0%,0%,0%);stroke-opacity:1;stroke-miterlimit:10;" d="M 953.214844 186 C 953.214844 197.714844 943.714844 207.214844 932 207.214844 C 920.285156 207.214844 910.785156 197.714844 910.785156 186 C 910.785156 174.285156 920.285156 164.785156 932 164.785156 C 943.714844 164.785156 953.214844 174.285156 953.214844 186 "/>
<path style="fill-rule:nonzero;fill:rgb(35%,70%,90%);fill-opacity:1;stroke-width:1;stroke-linecap:butt;stroke-linejoin:miter;stroke:rgb(0%,0%,0%);stroke-opacity:1;stroke-miterlimit:10;" d="M 1020.214844 305 C 1020.214844 316.714844 1010.714844 326.214844 999 326.214844 C 987.285156 326.214844 977.785156 316.714844 977.785156 305 C 977.785156 293.285156 987.285156 283.785156 999 283.785156 C 1010.714844 283.785156 1020.214844 293.285156 1020.214844 305 "/>
<path style="fill-rule:nonzero;fill:rgb(35%,70%,90%);fill-opacity:1;stroke-width:1;stroke-linecap:butt;stroke-linejoin:miter;stroke:rgb(0%,0%,0%);stroke-opacity:1;stroke-miterlimit:10;" d="M 1057.214844 413 C 1057.214844 424.714844 1047.714844 434.214844 1036 434.214844 C 1024.285156 434.214844 1014.785156 424.714844 1014.785156 413 C 1014.785156 401.285156 1024.285156 391.785156 1036 391.785156 C 1047.714844 391.785156 1057.214844 401.285156 1057.214844 413 "/>
</g>
</svg>
