<?xml version="1.0" encoding="UTF-8"?>
<svg xmlns="http://www.w3.org/2000/svg" xmlns:xlink="http://www.w3.org/1999/xlink" width="1179pt" height="517pt" viewBox="0 0 1179 517" version="1.1">
<g id="surface576">
<rect x="0" y="0" width="1179" height="517" style="fill:rgb(90%,90%,90%);fill-opacity:1;stroke:none;"/>
<path style="fill-rule:nonzero;fill:rgb(35%,70%,90%);fill-opacity:1;stroke-width:1;stroke-linecap:butt;stroke-linejoin:miter;stroke:rgb(0%,0%,0%);stroke-opacity:1;stroke-miterlimit:10;" d="M 359 421 L 388.664062 421 L 400.664062 392.785156 L 412.664062 421 L 442.332031 421 L 418.332031 438.4375 L 426.417969 469.980469 L 400.664062 452.542969 L 374.914062 469.980469 L 387.214844 438.4375 L 359 421 "/>
<path style="fill-rule:nonzero;fill:rgb(35%,70%,90%);fill-opacity:1;stroke-width:1;stroke-linecap:butt;stroke-linejoin:miter;stroke:rgb(0%,0%,0%);stroke-opacity:1;stroke-miterlimit:10;" d="M 1001 426 L 1030.664062 426 L 1042.664062 397.785156 L 1054.664062 426 L 1084.332031 426 L 1060.332031 443.4375 L 1068.417969 474.980469 L 1042.664062 457.542969 L 1016.914062 474.980469 L 1029.214844 443.4375 L 1001 426 "/>
<path style="fill-rule:nonzero;fill:rgb(35%,70%,90%);fill-opacity:1;stroke-width:1;stroke-linecap:butt;stroke-linejoin:miter;stroke:rgb(0%,0%,0%);stroke-opacity:1;stroke-miterlimit:10;" d="M 394 137 L 423.664062 137 L 435.664062 108.785156 L 447.664062 137 L 477.332031 137 L 453.332031 154.4375 L 461.417969 185.980469 L 435.664062 168.542969 L 409.914062 185.980469 L 422.214844 154.4375 L 394 137 "/>
<path style="fill-rule:nonzero;fill:rgb(35%,70%,90%);fill-opacity:1;stroke-width:1;stroke-linecap:butt;stroke-linejoin:miter;stroke:rgb(0%,0%,0%);stroke-opacity:1;stroke-miterlimit:10;" d="M 261 189 L 290.664062 189 L 302.664062 160.785156 L 314.664062 189 L 344.332031 189 L 320.332031 206.4375 L 328.417969 237.980469 L 302.664062 220.542969 L 276.914062 237.980469 L 289.214844 206.4375 L 261 189 "/>
<path style="fill-rule:nonzero;fill:rgb(53%,27%,7%);fill-opacity:1;stroke-width:1;stroke-linecap:butt;stroke-linejoin:miter;stroke:rgb(0%,0%,0%);stroke-opacity:1;stroke-miterlimit:10;" d="M 1041 178 L 1015.019531 223 L 1066.980469 223 L 1041 178 "/>
<path style="fill-rule:nonzero;fill:rgb(53%,27%,7%);fill-opacity:1;stroke-width:1;stroke-linecap:butt;stroke-linejoin:miter;stroke:rgb(0%,0%,0%);stroke-opacity:1;stroke-miterlimit:10;" d="M 548 169 L 522.019531 214 L 573.980469 214 L 548 169 "/>
<path style="fill-rule:nonzero;fill:rgb(53%,27%,7%);fill-opacity:1;stroke-width:1;stroke-linecap:butt;stroke-linejoin:miter;stroke:rgb(0%,0%,0%);stroke-opacity:1;stroke-miterlimit:10;" d="M 404 272 L 378.019531 317 L 429.980469 317 L 404 272 "/>
<path style="fill-rule:nonzero;fill:rgb(53%,27%,7%);fill-opacity:1;stroke-width:1;stroke-linecap:butt;stroke-linejoin:miter;stroke:rgb(0%,0%,0%);stroke-opacity:1;stroke-miterlimit:10;" d="M 853 149 L 827.019531 194 L 878.980469 194 L 853 149 "/>
<path style="fill-rule:nonzero;fill:rgb(53%,27%,7%);fill-opacity:1;stroke-width:1;stroke-linecap:butt;stroke-linejoin:miter;stroke:rgb(0%,0%,0%);stroke-opacity:1;stroke-miterlimit:10;" d="M 151 216 L 125.019531 261 L 176.980469 261 L 151 216 "/>
</g>
</svg>
