<?xml version="1.0" encoding="UTF-8"?>
<svg xmlns="http://www.w3.org/2000/svg" xmlns:xlink="http://www.w3.org/1999/xlink" width="1179pt" height="517pt" viewBox="0 0 1179 517" version="1.1">
<g id="surface841">
<rect x="0" y="0" width="1179" height="517" style="fill:rgb(90%,90%,90%);fill-opacity:1;stroke:none;"/>
<path style="fill-rule:nonzero;fill:rgb(55%,51%,53%);fill-opacity:1;stroke-width:1;stroke-linecap:butt;stroke-linejoin:miter;stroke:rgb(0%,0%,0%);stroke-opacity:1;stroke-miterlimit:10;" d="M 305.214844 384 C 305.214844 395.714844 295.714844 405.214844 284 405.214844 C 272.285156 405.214844 262.785156 395.714844 262.785156 384 C 262.785156 372.285156 272.285156 362.785156 284 362.785156 C 295.714844 362.785156 305.214844 372.285156 305.214844 384 "/>
<path style="fill-rule:nonzero;fill:rgb(55%,51%,53%);fill-opacity:1;stroke-width:1;stroke-linecap:butt;stroke-linejoin:miter;stroke:rgb(0%,0%,0%);stroke-opacity:1;stroke-miterlimit:10;" d="M 176.214844 81 C 176.214844 92.714844 166.714844 102.214844 155 102.214844 C 143.285156 102.214844 133.785156 92.714844 133.785156 81 C 133.785156 69.285156 143.285156 59.785156 155 59.785156 C 166.714844 59.785156 176.214844 69.285156 176.214844 81 "/>
<path style="fill-rule:nonzero;fill:rgb(55%,51%,53%);fill-opacity:1;stroke-width:1;stroke-linecap:butt;stroke-linejoin:miter;stroke:rgb(0%,0%,0%);stroke-opacity:1;stroke-miterlimit:10;" d="M 426.214844 100 C 426.214844 111.714844 416.714844 121.214844 405 121.214844 C 393.285156 121.214844 383.785156 111.714844 383.785156 100 C 383.785156 88.285156 393.285156 78.785156 405 78.785156 C 416.714844 78.785156 426.214844 88.285156 426.214844 100 "/>
<path style="fill-rule:nonzero;fill:rgb(67%,100%,18%);fill-opacity:1;stroke-width:1;stroke-linecap:butt;stroke-linejoin:miter;stroke:rgb(0%,0%,0%);stroke-opacity:1;stroke-miterlimit:10;" d="M 106.214844 231 C 106.214844 242.714844 96.714844 252.214844 85 252.214844 C 73.285156 252.214844 63.785156 242.714844 63.785156 231 C 63.785156 219.285156 73.285156 209.785156 85 209.785156 C 96.714844 209.785156 106.214844 219.285156 106.214844 231 "/>
<path style="fill-rule:nonzero;fill:rgb(55%,51%,53%);fill-opacity:1;stroke-width:1;stroke-linecap:butt;stroke-linejoin:miter;stroke:rgb(0%,0%,0%);stroke-opacity:1;stroke-miterlimit:10;" d="M 143.214844 397 C 143.214844 408.714844 133.714844 418.214844 122 418.214844 C 110.285156 418.214844 100.785156 408.714844 100.785156 397 C 100.785156 385.285156 110.285156 375.785156 122 375.785156 C 133.714844 375.785156 143.214844 385.285156 143.214844 397 "/>
<path style="fill-rule:nonzero;fill:rgb(55%,51%,53%);fill-opacity:1;stroke-width:1;stroke-linecap:butt;stroke-linejoin:miter;stroke:rgb(0%,0%,0%);stroke-opacity:1;stroke-miterlimit:10;" d="M 410.214844 311 C 410.214844 322.714844 400.714844 332.214844 389 332.214844 C 377.285156 332.214844 367.785156 322.714844 367.785156 311 C 367.785156 299.285156 377.285156 289.785156 389 289.785156 C 400.714844 289.785156 410.214844 299.285156 410.214844 311 "/>
<path style="fill-rule:nonzero;fill:rgb(55%,51%,53%);fill-opacity:1;stroke-width:1;stroke-linecap:butt;stroke-linejoin:miter;stroke:rgb(0%,0%,0%);stroke-opacity:1;stroke-miterlimit:10;" d="M 200.214844 274 C 200.214844 285.714844 190.714844 295.214844 179 295.214844 C 167.285156 295.214844 157.785156 285.714844 157.785156 274 C 157.785156 262.285156 167.285156 252.785156 179 252.785156 C 190.714844 252.785156 200.214844 262.285156 200.214844 274 "/>
<path style="fill-rule:nonzero;fill:rgb(55%,51%,53%);fill-opacity:1;stroke-width:1;stroke-linecap:butt;stroke-linejoin:miter;stroke:rgb(0%,0%,0%);stroke-opacity:1;stroke-miterlimit:10;" d="M 434.214844 399 C 434.214844 410.714844 424.714844 420.214844 413 420.214844 C 401.285156 420.214844 391.785156 410.714844 391.785156 399 C 391.785156 387.285156 401.285156 377.785156 413 377.785156 C 424.714844 377.785156 434.214844 387.285156 434.214844 399 "/>
<path style="fill-rule:nonzero;fill:rgb(67%,100%,18%);fill-opacity:1;stroke-width:1;stroke-linecap:butt;stroke-linejoin:miter;stroke:rgb(0%,0%,0%);stroke-opacity:1;stroke-miterlimit:10;" d="M 822 170 L 796.019531 215 L 847.980469 215 L 822 170 "/>
<path style="fill-rule:nonzero;fill:rgb(67%,100%,18%);fill-opacity:1;stroke-width:1;stroke-linecap:butt;stroke-linejoin:miter;stroke:rgb(0%,0%,0%);stroke-opacity:1;stroke-miterlimit:10;" d="M 871 256 L 845.019531 301 L 896.980469 301 L 871 256 "/>
<path style="fill-rule:nonzero;fill:rgb(67%,100%,18%);fill-opacity:1;stroke-width:1;stroke-linecap:butt;stroke-linejoin:miter;stroke:rgb(0%,0%,0%);stroke-opacity:1;stroke-miterlimit:10;" d="M 992 113 L 966.019531 158 L 1017.980469 158 L 992 113 "/>
<path style="fill-rule:nonzero;fill:rgb(55%,51%,53%);fill-opacity:1;stroke-width:1;stroke-linecap:butt;stroke-linejoin:miter;stroke:rgb(0%,0%,0%);stroke-opacity:1;stroke-miterlimit:10;" d="M 779 381 L 753.019531 426 L 804.980469 426 L 779 381 "/>
<path style="fill-rule:nonzero;fill:rgb(67%,100%,18%);fill-opacity:1;stroke-width:1;stroke-linecap:butt;stroke-linejoin:miter;stroke:rgb(0%,0%,0%);stroke-opacity:1;stroke-miterlimit:10;" d="M 699 271 L 673.019531 316 L 724.980469 316 L 699 271 "/>
<path style="fill-rule:nonzero;fill:rgb(67%,100%,18%);fill-opacity:1;stroke-width:1;stroke-linecap:butt;stroke-linejoin:miter;stroke:rgb(0%,0%,0%);stroke-opacity:1;stroke-miterlimit:10;" d="M 959 374 L 933.019531 419 L 984.980469 419 L 959 374 "/>
</g>
</svg>
