<?xml version="1.0" encoding="UTF-8"?>
<svg xmlns="http://www.w3.org/2000/svg" xmlns:xlink="http://www.w3.org/1999/xlink" width="1179pt" height="517pt" viewBox="0 0 1179 517" version="1.1">
<g id="surface811">
<rect x="0" y="0" width="1179" height="517" style="fill:rgb(90%,90%,90%);fill-opacity:1;stroke:none;"/>
<path style="fill-rule:nonzero;fill:rgb(53%,27%,7%);fill-opacity:1;stroke-width:1;stroke-linecap:butt;stroke-linejoin:miter;stroke:rgb(0%,0%,0%);stroke-opacity:1;stroke-miterlimit:10;" d="M 843 113.601562 C 843 99.199219 819 99.199219 819 113.601562 C 819 128 843 130.398438 843 142.398438 C 843 130.398438 867 128 867 113.601562 C 867 99.199219 843 99.199219 843 113.601562 "/>
<path style="fill-rule:nonzero;fill:rgb(53%,27%,7%);fill-opacity:1;stroke-width:1;stroke-linecap:butt;stroke-linejoin:miter;stroke:rgb(0%,0%,0%);stroke-opacity:1;stroke-miterlimit:10;" d="M 89 350.601562 C 89 336.199219 65 336.199219 65 350.601562 C 65 365 89 367.398438 89 379.398438 C 89 367.398438 113 365 113 350.601562 C 113 336.199219 89 336.199219 89 350.601562 "/>
<path style="fill-rule:nonzero;fill:rgb(53%,27%,7%);fill-opacity:1;stroke-width:1;stroke-linecap:butt;stroke-linejoin:miter;stroke:rgb(0%,0%,0%);stroke-opacity:1;stroke-miterlimit:10;" d="M 372 319.601562 C 372 305.199219 348 305.199219 348 319.601562 C 348 334 372 336.398438 372 348.398438 C 372 336.398438 396 334 396 319.601562 C 396 305.199219 372 305.199219 372 319.601562 "/>
<path style="fill-rule:nonzero;fill:rgb(53%,27%,7%);fill-opacity:1;stroke-width:1;stroke-linecap:butt;stroke-linejoin:miter;stroke:rgb(0%,0%,0%);stroke-opacity:1;stroke-miterlimit:10;" d="M 735 204.601562 C 735 190.199219 711 190.199219 711 204.601562 C 711 219 735 221.398438 735 233.398438 C 735 221.398438 759 219 759 204.601562 C 759 190.199219 735 190.199219 735 204.601562 "/>
<path style="fill-rule:nonzero;fill:rgb(53%,27%,7%);fill-opacity:1;stroke-width:1;stroke-linecap:butt;stroke-linejoin:miter;stroke:rgb(0%,0%,0%);stroke-opacity:1;stroke-miterlimit:10;" d="M 592 83.601562 C 592 69.199219 568 69.199219 568 83.601562 C 568 98 592 100.398438 592 112.398438 C 592 100.398438 616 98 616 83.601562 C 616 69.199219 592 69.199219 592 83.601562 "/>
<path style="fill-rule:nonzero;fill:rgb(100%,51%,0%);fill-opacity:1;stroke-width:1;stroke-linecap:butt;stroke-linejoin:miter;stroke:rgb(0%,0%,0%);stroke-opacity:1;stroke-miterlimit:10;" d="M 1016.214844 153 C 1016.214844 164.714844 1006.714844 174.214844 995 174.214844 C 983.285156 174.214844 973.785156 164.714844 973.785156 153 C 973.785156 141.285156 983.285156 131.785156 995 131.785156 C 1006.714844 131.785156 1016.214844 141.285156 1016.214844 153 "/>
<path style="fill-rule:nonzero;fill:rgb(100%,51%,0%);fill-opacity:1;stroke-width:1;stroke-linecap:butt;stroke-linejoin:miter;stroke:rgb(0%,0%,0%);stroke-opacity:1;stroke-miterlimit:10;" d="M 635.214844 313 C 635.214844 324.714844 625.714844 334.214844 614 334.214844 C 602.285156 334.214844 592.785156 324.714844 592.785156 313 C 592.785156 301.285156 602.285156 291.785156 614 291.785156 C 625.714844 291.785156 635.214844 301.285156 635.214844 313 "/>
<path style="fill-rule:nonzero;fill:rgb(100%,51%,0%);fill-opacity:1;stroke-width:1;stroke-linecap:butt;stroke-linejoin:miter;stroke:rgb(0%,0%,0%);stroke-opacity:1;stroke-miterlimit:10;" d="M 203.214844 279 C 203.214844 290.714844 193.714844 300.214844 182 300.214844 C 170.285156 300.214844 160.785156 290.714844 160.785156 279 C 160.785156 267.285156 170.285156 257.785156 182 257.785156 C 193.714844 257.785156 203.214844 267.285156 203.214844 279 "/>
</g>
</svg>
