<?xml version="1.0" encoding="UTF-8"?>
<svg xmlns="http://www.w3.org/2000/svg" xmlns:xlink="http://www.w3.org/1999/xlink" width="1179pt" height="517pt" viewBox="0 0 1179 517" version="1.1">
<g id="surface756">
<rect x="0" y="0" width="1179" height="517" style="fill:rgb(90%,90%,90%);fill-opacity:1;stroke:none;"/>
<path style="fill-rule:nonzero;fill:rgb(100%,0%,0%);fill-opacity:1;stroke-width:1;stroke-linecap:butt;stroke-linejoin:miter;stroke:rgb(0%,0%,0%);stroke-opacity:1;stroke-miterlimit:10;" d="M 409 286.601562 C 409 272.199219 385 272.199219 385 286.601562 C 385 301 409 303.398438 409 315.398438 C 409 303.398438 433 301 433 286.601562 C 433 272.199219 409 272.199219 409 286.601562 "/>
<path style="fill-rule:nonzero;fill:rgb(100%,0%,0%);fill-opacity:1;stroke-width:1;stroke-linecap:butt;stroke-linejoin:miter;stroke:rgb(0%,0%,0%);stroke-opacity:1;stroke-miterlimit:10;" d="M 238 78.601562 C 238 64.199219 214 64.199219 214 78.601562 C 214 93 238 95.398438 238 107.398438 C 238 95.398438 262 93 262 78.601562 C 262 64.199219 238 64.199219 238 78.601562 "/>
<path style="fill-rule:nonzero;fill:rgb(100%,0%,0%);fill-opacity:1;stroke-width:1;stroke-linecap:butt;stroke-linejoin:miter;stroke:rgb(0%,0%,0%);stroke-opacity:1;stroke-miterlimit:10;" d="M 748 360.601562 C 748 346.199219 724 346.199219 724 360.601562 C 724 375 748 377.398438 748 389.398438 C 748 377.398438 772 375 772 360.601562 C 772 346.199219 748 346.199219 748 360.601562 "/>
<path style="fill-rule:nonzero;fill:rgb(100%,0%,0%);fill-opacity:1;stroke-width:1;stroke-linecap:butt;stroke-linejoin:miter;stroke:rgb(0%,0%,0%);stroke-opacity:1;stroke-miterlimit:10;" d="M 95 238.601562 C 95 224.199219 71 224.199219 71 238.601562 C 71 253 95 255.398438 95 267.398438 C 95 255.398438 119 253 119 238.601562 C 119 224.199219 95 224.199219 95 238.601562 "/>
<path style="fill-rule:nonzero;fill:rgb(0%,0%,0%);fill-opacity:1;stroke-width:1;stroke-linecap:butt;stroke-linejoin:miter;stroke:rgb(0%,0%,0%);stroke-opacity:1;stroke-miterlimit:10;" d="M 423 117 L 403 117 L 403 127 L 423 127 L 423 147 L 433 147 L 433 127 L 453 127 L 453 117 L 433 117 L 433 97 L 423 97 L 423 117 "/>
<path style="fill-rule:nonzero;fill:rgb(0%,0%,0%);fill-opacity:1;stroke-width:1;stroke-linecap:butt;stroke-linejoin:miter;stroke:rgb(0%,0%,0%);stroke-opacity:1;stroke-miterlimit:10;" d="M 495 423 L 475 423 L 475 433 L 495 433 L 495 453 L 505 453 L 505 433 L 525 433 L 525 423 L 505 423 L 505 403 L 495 403 L 495 423 "/>
<path style="fill-rule:nonzero;fill:rgb(0%,0%,0%);fill-opacity:1;stroke-width:1;stroke-linecap:butt;stroke-linejoin:miter;stroke:rgb(0%,0%,0%);stroke-opacity:1;stroke-miterlimit:10;" d="M 878 353 L 858 353 L 858 363 L 878 363 L 878 383 L 888 383 L 888 363 L 908 363 L 908 353 L 888 353 L 888 333 L 878 333 L 878 353 "/>
</g>
</svg>
