<?xml version="1.0" encoding="UTF-8"?>
<svg xmlns="http://www.w3.org/2000/svg" xmlns:xlink="http://www.w3.org/1999/xlink" width="1179pt" height="517pt" viewBox="0 0 1179 517" version="1.1">
<g id="surface1366">
<rect x="0" y="0" width="1179" height="517" style="fill:rgb(90%,90%,90%);fill-opacity:1;stroke:none;"/>
<path style="fill-rule:nonzero;fill:rgb(100%,51%,0%);fill-opacity:1;stroke-width:1;stroke-linecap:butt;stroke-linejoin:miter;stroke:rgb(0%,0%,0%);stroke-opacity:1;stroke-miterlimit:10;" d="M 614 94 L 643.664062 94 L 655.664062 65.785156 L 667.664062 94 L 697.332031 94 L 673.332031 111.4375 L 681.417969 142.980469 L 655.664062 125.542969 L 629.914062 142.980469 L 642.214844 111.4375 L 614 94 "/>
<path style="fill-rule:nonzero;fill:rgb(100%,51%,0%);fill-opacity:1;stroke-width:1;stroke-linecap:butt;stroke-linejoin:miter;stroke:rgb(0%,0%,0%);stroke-opacity:1;stroke-miterlimit:10;" d="M 330 149 L 359.664062 149 L 371.664062 120.785156 L 383.664062 149 L 413.332031 149 L 389.332031 166.4375 L 397.417969 197.980469 L 371.664062 180.542969 L 345.914062 197.980469 L 358.214844 166.4375 L 330 149 "/>
<path style="fill-rule:nonzero;fill:rgb(100%,51%,0%);fill-opacity:1;stroke-width:1;stroke-linecap:butt;stroke-linejoin:miter;stroke:rgb(0%,0%,0%);stroke-opacity:1;stroke-miterlimit:10;" d="M 502 291 L 531.664062 291 L 543.664062 262.785156 L 555.664062 291 L 585.332031 291 L 561.332031 308.4375 L 569.417969 339.980469 L 543.664062 322.542969 L 517.914062 339.980469 L 530.214844 308.4375 L 502 291 "/>
<path style="fill-rule:nonzero;fill:rgb(100%,51%,0%);fill-opacity:1;stroke-width:1;stroke-linecap:butt;stroke-linejoin:miter;stroke:rgb(0%,0%,0%);stroke-opacity:1;stroke-miterlimit:10;" d="M 143 361 L 172.664062 361 L 184.664062 332.785156 L 196.664062 361 L 226.332031 361 L 202.332031 378.4375 L 210.417969 409.980469 L 184.664062 392.542969 L 158.914062 409.980469 L 171.214844 378.4375 L 143 361 "/>
<path style="fill-rule:nonzero;fill:rgb(53%,27%,7%);fill-opacity:1;stroke-width:1;stroke-linecap:butt;stroke-linejoin:miter;stroke:rgb(0%,0%,0%);stroke-opacity:1;stroke-miterlimit:10;" d="M 723.214844 349 C 723.214844 360.714844 713.714844 370.214844 702 370.214844 C 690.285156 370.214844 680.785156 360.714844 680.785156 349 C 680.785156 337.285156 690.285156 327.785156 702 327.785156 C 713.714844 327.785156 723.214844 337.285156 723.214844 349 "/>
<path style="fill-rule:nonzero;fill:rgb(53%,27%,7%);fill-opacity:1;stroke-width:1;stroke-linecap:butt;stroke-linejoin:miter;stroke:rgb(0%,0%,0%);stroke-opacity:1;stroke-miterlimit:10;" d="M 938.214844 373 C 938.214844 384.714844 928.714844 394.214844 917 394.214844 C 905.285156 394.214844 895.785156 384.714844 895.785156 373 C 895.785156 361.285156 905.285156 351.785156 917 351.785156 C 928.714844 351.785156 938.214844 361.285156 938.214844 373 "/>
<path style="fill-rule:nonzero;fill:rgb(53%,27%,7%);fill-opacity:1;stroke-width:1;stroke-linecap:butt;stroke-linejoin:miter;stroke:rgb(0%,0%,0%);stroke-opacity:1;stroke-miterlimit:10;" d="M 214.214844 126 C 214.214844 137.714844 204.714844 147.214844 193 147.214844 C 181.285156 147.214844 171.785156 137.714844 171.785156 126 C 171.785156 114.285156 181.285156 104.785156 193 104.785156 C 204.714844 104.785156 214.214844 114.285156 214.214844 126 "/>
<path style="fill-rule:nonzero;fill:rgb(53%,27%,7%);fill-opacity:1;stroke-width:1;stroke-linecap:butt;stroke-linejoin:miter;stroke:rgb(0%,0%,0%);stroke-opacity:1;stroke-miterlimit:10;" d="M 1001.214844 109 C 1001.214844 120.714844 991.714844 130.214844 980 130.214844 C 968.285156 130.214844 958.785156 120.714844 958.785156 109 C 958.785156 97.285156 968.285156 87.785156 980 87.785156 C 991.714844 87.785156 1001.214844 97.285156 1001.214844 109 "/>
<path style="fill-rule:nonzero;fill:rgb(53%,27%,7%);fill-opacity:1;stroke-width:1;stroke-linecap:butt;stroke-linejoin:miter;stroke:rgb(0%,0%,0%);stroke-opacity:1;stroke-miterlimit:10;" d="M 912.214844 196 C 912.214844 207.714844 902.714844 217.214844 891 217.214844 C 879.285156 217.214844 869.785156 207.714844 869.785156 196 C 869.785156 184.285156 879.285156 174.785156 891 174.785156 C 902.714844 174.785156 912.214844 184.285156 912.214844 196 "/>
</g>
</svg>
