<?xml version="1.0" encoding="UTF-8"?>
<svg xmlns="http://www.w3.org/2000/svg" xmlns:xlink="http://www.w3.org/1999/xlink" width="1179pt" height="517pt" viewBox="0 0 1179 517" version="1.1">
<g id="surface1521">
<rect x="0" y="0" width="1179" height="517" style="fill:rgb(90%,90%,90%);fill-opacity:1;stroke:none;"/>
<path style="fill-rule:nonzero;fill:rgb(55%,51%,53%);fill-opacity:1;stroke-width:1;stroke-linecap:butt;stroke-linejoin:miter;stroke:rgb(0%,0%,0%);stroke-opacity:1;stroke-miterlimit:10;" d="M 613 326 L 642.664062 326 L 654.664062 297.785156 L 666.664062 326 L 696.332031 326 L 672.332031 343.4375 L 680.417969 374.980469 L 654.664062 357.542969 L 628.914062 374.980469 L 641.214844 343.4375 L 613 326 "/>
<path style="fill-rule:nonzero;fill:rgb(55%,51%,53%);fill-opacity:1;stroke-width:1;stroke-linecap:butt;stroke-linejoin:miter;stroke:rgb(0%,0%,0%);stroke-opacity:1;stroke-miterlimit:10;" d="M 996 160 L 1025.664062 160 L 1037.664062 131.785156 L 1049.664062 160 L 1079.332031 160 L 1055.332031 177.4375 L 1063.417969 208.980469 L 1037.664062 191.542969 L 1011.914062 208.980469 L 1024.214844 177.4375 L 996 160 "/>
<path style="fill-rule:nonzero;fill:rgb(55%,51%,53%);fill-opacity:1;stroke-width:1;stroke-linecap:butt;stroke-linejoin:miter;stroke:rgb(0%,0%,0%);stroke-opacity:1;stroke-miterlimit:10;" d="M 444 410 L 473.664062 410 L 485.664062 381.785156 L 497.664062 410 L 527.332031 410 L 503.332031 427.4375 L 511.417969 458.980469 L 485.664062 441.542969 L 459.914062 458.980469 L 472.214844 427.4375 L 444 410 "/>
<path style="fill-rule:nonzero;fill:rgb(55%,51%,53%);fill-opacity:1;stroke-width:1;stroke-linecap:butt;stroke-linejoin:miter;stroke:rgb(0%,0%,0%);stroke-opacity:1;stroke-miterlimit:10;" d="M 784 170 L 813.664062 170 L 825.664062 141.785156 L 837.664062 170 L 867.332031 170 L 843.332031 187.4375 L 851.417969 218.980469 L 825.664062 201.542969 L 799.914062 218.980469 L 812.214844 187.4375 L 784 170 "/>
<path style="fill-rule:nonzero;fill:rgb(100%,51%,0%);fill-opacity:1;stroke-width:1;stroke-linecap:butt;stroke-linejoin:miter;stroke:rgb(0%,0%,0%);stroke-opacity:1;stroke-miterlimit:10;" d="M 153.214844 102 C 153.214844 113.714844 143.714844 123.214844 132 123.214844 C 120.285156 123.214844 110.785156 113.714844 110.785156 102 C 110.785156 90.285156 120.285156 80.785156 132 80.785156 C 143.714844 80.785156 153.214844 90.285156 153.214844 102 "/>
<path style="fill-rule:nonzero;fill:rgb(100%,51%,0%);fill-opacity:1;stroke-width:1;stroke-linecap:butt;stroke-linejoin:miter;stroke:rgb(0%,0%,0%);stroke-opacity:1;stroke-miterlimit:10;" d="M 224.214844 401 C 224.214844 412.714844 214.714844 422.214844 203 422.214844 C 191.285156 422.214844 181.785156 412.714844 181.785156 401 C 181.785156 389.285156 191.285156 379.785156 203 379.785156 C 214.714844 379.785156 224.214844 389.285156 224.214844 401 "/>
<path style="fill-rule:nonzero;fill:rgb(100%,51%,0%);fill-opacity:1;stroke-width:1;stroke-linecap:butt;stroke-linejoin:miter;stroke:rgb(0%,0%,0%);stroke-opacity:1;stroke-miterlimit:10;" d="M 876.214844 409 C 876.214844 420.714844 866.714844 430.214844 855 430.214844 C 843.285156 430.214844 833.785156 420.714844 833.785156 409 C 833.785156 397.285156 843.285156 387.785156 855 387.785156 C 866.714844 387.785156 876.214844 397.285156 876.214844 409 "/>
<path style="fill-rule:nonzero;fill:rgb(100%,51%,0%);fill-opacity:1;stroke-width:1;stroke-linecap:butt;stroke-linejoin:miter;stroke:rgb(0%,0%,0%);stroke-opacity:1;stroke-miterlimit:10;" d="M 137.214844 234 C 137.214844 245.714844 127.714844 255.214844 116 255.214844 C 104.285156 255.214844 94.785156 245.714844 94.785156 234 C 94.785156 222.285156 104.285156 212.785156 116 212.785156 C 127.714844 212.785156 137.214844 222.285156 137.214844 234 "/>
<path style="fill-rule:nonzero;fill:rgb(100%,51%,0%);fill-opacity:1;stroke-width:1;stroke-linecap:butt;stroke-linejoin:miter;stroke:rgb(0%,0%,0%);stroke-opacity:1;stroke-miterlimit:10;" d="M 640.214844 191 C 640.214844 202.714844 630.714844 212.214844 619 212.214844 C 607.285156 212.214844 597.785156 202.714844 597.785156 191 C 597.785156 179.285156 607.285156 169.785156 619 169.785156 C 630.714844 169.785156 640.214844 179.285156 640.214844 191 "/>
</g>
</svg>
