<?xml version="1.0" encoding="UTF-8"?>
<svg xmlns="http://www.w3.org/2000/svg" xmlns:xlink="http://www.w3.org/1999/xlink" width="1179pt" height="517pt" viewBox="0 0 1179 517" version="1.1">
<g id="surface186">
<rect x="0" y="0" width="1179" height="517" style="fill:rgb(90%,90%,90%);fill-opacity:1;stroke:none;"/>
<path style="fill-rule:nonzero;fill:rgb(35%,70%,90%);fill-opacity:1;stroke-width:1;stroke-linecap:butt;stroke-linejoin:miter;stroke:rgb(0%,0%,0%);stroke-opacity:1;stroke-miterlimit:10;" d="M 622 250 L 651.664062 250 L 663.664062 221.785156 L 675.664062 250 L 705.332031 250 L 681.332031 267.4375 L 689.417969 298.980469 L 663.664062 281.542969 L 637.914062 298.980469 L 650.214844 267.4375 L 622 250 "/>
<path style="fill-rule:nonzero;fill:rgb(35%,70%,90%);fill-opacity:1;stroke-width:1;stroke-linecap:butt;stroke-linejoin:miter;stroke:rgb(0%,0%,0%);stroke-opacity:1;stroke-miterlimit:10;" d="M 343 277 L 372.664062 277 L 384.664062 248.785156 L 396.664062 277 L 426.332031 277 L 402.332031 294.4375 L 410.417969 325.980469 L 384.664062 308.542969 L 358.914062 325.980469 L 371.214844 294.4375 L 343 277 "/>
<path style="fill-rule:nonzero;fill:rgb(35%,70%,90%);fill-opacity:1;stroke-width:1;stroke-linecap:butt;stroke-linejoin:miter;stroke:rgb(0%,0%,0%);stroke-opacity:1;stroke-miterlimit:10;" d="M 846 202 L 875.664062 202 L 887.664062 173.785156 L 899.664062 202 L 929.332031 202 L 905.332031 219.4375 L 913.417969 250.980469 L 887.664062 233.542969 L 861.914062 250.980469 L 874.214844 219.4375 L 846 202 "/>
<path style="fill-rule:nonzero;fill:rgb(35%,70%,90%);fill-opacity:1;stroke-width:1;stroke-linecap:butt;stroke-linejoin:miter;stroke:rgb(0%,0%,0%);stroke-opacity:1;stroke-miterlimit:10;" d="M 758 301 L 787.664062 301 L 799.664062 272.785156 L 811.664062 301 L 841.332031 301 L 817.332031 318.4375 L 825.417969 349.980469 L 799.664062 332.542969 L 773.914062 349.980469 L 786.214844 318.4375 L 758 301 "/>
<path style="fill-rule:nonzero;fill:rgb(100%,51%,0%);fill-opacity:1;stroke-width:1;stroke-linecap:butt;stroke-linejoin:miter;stroke:rgb(0%,0%,0%);stroke-opacity:1;stroke-miterlimit:10;" d="M 853 374 L 827.019531 419 L 878.980469 419 L 853 374 "/>
<path style="fill-rule:nonzero;fill:rgb(100%,51%,0%);fill-opacity:1;stroke-width:1;stroke-linecap:butt;stroke-linejoin:miter;stroke:rgb(0%,0%,0%);stroke-opacity:1;stroke-miterlimit:10;" d="M 248 91 L 222.019531 136 L 273.980469 136 L 248 91 "/>
<path style="fill-rule:nonzero;fill:rgb(100%,51%,0%);fill-opacity:1;stroke-width:1;stroke-linecap:butt;stroke-linejoin:miter;stroke:rgb(0%,0%,0%);stroke-opacity:1;stroke-miterlimit:10;" d="M 982 258 L 956.019531 303 L 1007.980469 303 L 982 258 "/>
</g>
</svg>
