<?xml version="1.0" encoding="UTF-8"?>
<svg xmlns="http://www.w3.org/2000/svg" xmlns:xlink="http://www.w3.org/1999/xlink" width="1179pt" height="517pt" viewBox="0 0 1179 517" version="1.1">
<g id="surface791">
<rect x="0" y="0" width="1179" height="517" style="fill:rgb(90%,90%,90%);fill-opacity:1;stroke:none;"/>
<path style="fill-rule:nonzero;fill:rgb(35%,70%,90%);fill-opacity:1;stroke-width:1;stroke-linecap:butt;stroke-linejoin:miter;stroke:rgb(0%,0%,0%);stroke-opacity:1;stroke-miterlimit:10;" d="M 251.214844 85 C 251.214844 96.714844 241.714844 106.214844 230 106.214844 C 218.285156 106.214844 208.785156 96.714844 208.785156 85 C 208.785156 73.285156 218.285156 63.785156 230 63.785156 C 241.714844 63.785156 251.214844 73.285156 251.214844 85 "/>
<path style="fill-rule:nonzero;fill:rgb(35%,70%,90%);fill-opacity:1;stroke-width:1;stroke-linecap:butt;stroke-linejoin:miter;stroke:rgb(0%,0%,0%);stroke-opacity:1;stroke-miterlimit:10;" d="M 343 88 L 372.664062 88 L 384.664062 59.785156 L 396.664062 88 L 426.332031 88 L 402.332031 105.4375 L 410.417969 136.980469 L 384.664062 119.542969 L 358.914062 136.980469 L 371.214844 105.4375 L 343 88 "/>
<path style="fill-rule:nonzero;fill:rgb(35%,70%,90%);fill-opacity:1;stroke-width:1;stroke-linecap:butt;stroke-linejoin:miter;stroke:rgb(0%,0%,0%);stroke-opacity:1;stroke-miterlimit:10;" d="M 133 315 L 162.664062 315 L 174.664062 286.785156 L 186.664062 315 L 216.332031 315 L 192.332031 332.4375 L 200.417969 363.980469 L 174.664062 346.542969 L 148.914062 363.980469 L 161.214844 332.4375 L 133 315 "/>
<path style="fill-rule:nonzero;fill:rgb(35%,70%,90%);fill-opacity:1;stroke-width:1;stroke-linecap:butt;stroke-linejoin:miter;stroke:rgb(0%,0%,0%);stroke-opacity:1;stroke-miterlimit:10;" d="M 250 331 L 279.664062 331 L 291.664062 302.785156 L 303.664062 331 L 333.332031 331 L 309.332031 348.4375 L 317.417969 379.980469 L 291.664062 362.542969 L 265.914062 379.980469 L 278.214844 348.4375 L 250 331 "/>
<path style="fill-rule:nonzero;fill:rgb(35%,70%,90%);fill-opacity:1;stroke-width:1;stroke-linecap:butt;stroke-linejoin:miter;stroke:rgb(0%,0%,0%);stroke-opacity:1;stroke-miterlimit:10;" d="M 354 422 L 383.664062 422 L 395.664062 393.785156 L 407.664062 422 L 437.332031 422 L 413.332031 439.4375 L 421.417969 470.980469 L 395.664062 453.542969 L 369.914062 470.980469 L 382.214844 439.4375 L 354 422 "/>
<path style="fill-rule:nonzero;fill:rgb(35%,70%,90%);fill-opacity:1;stroke-width:1;stroke-linecap:butt;stroke-linejoin:miter;stroke:rgb(0%,0%,0%);stroke-opacity:1;stroke-miterlimit:10;" d="M 187 225 L 216.664062 225 L 228.664062 196.785156 L 240.664062 225 L 270.332031 225 L 246.332031 242.4375 L 254.417969 273.980469 L 228.664062 256.542969 L 202.914062 273.980469 L 215.214844 242.4375 L 187 225 "/>
<path style="fill-rule:nonzero;fill:rgb(35%,70%,90%);fill-opacity:1;stroke-width:1;stroke-linecap:butt;stroke-linejoin:miter;stroke:rgb(0%,0%,0%);stroke-opacity:1;stroke-miterlimit:10;" d="M 769 159 L 798.664062 159 L 810.664062 130.785156 L 822.664062 159 L 852.332031 159 L 828.332031 176.4375 L 836.417969 207.980469 L 810.664062 190.542969 L 784.914062 207.980469 L 797.214844 176.4375 L 769 159 "/>
<path style="fill-rule:nonzero;fill:rgb(35%,70%,90%);fill-opacity:1;stroke-width:1;stroke-linecap:butt;stroke-linejoin:miter;stroke:rgb(0%,0%,0%);stroke-opacity:1;stroke-miterlimit:10;" d="M 870 208 L 899.664062 208 L 911.664062 179.785156 L 923.664062 208 L 953.332031 208 L 929.332031 225.4375 L 937.417969 256.980469 L 911.664062 239.542969 L 885.914062 256.980469 L 898.214844 225.4375 L 870 208 "/>
<path style="fill-rule:nonzero;fill:rgb(35%,70%,90%);fill-opacity:1;stroke-width:1;stroke-linecap:butt;stroke-linejoin:miter;stroke:rgb(0%,0%,0%);stroke-opacity:1;stroke-miterlimit:10;" d="M 1032.214844 310 C 1032.214844 321.714844 1022.714844 331.214844 1011 331.214844 C 999.285156 331.214844 989.785156 321.714844 989.785156 310 C 989.785156 298.285156 999.285156 288.785156 1011 288.785156 C 1022.714844 288.785156 1032.214844 298.285156 1032.214844 310 "/>
<path style="fill-rule:nonzero;fill:rgb(35%,70%,90%);fill-opacity:1;stroke-width:1;stroke-linecap:butt;stroke-linejoin:miter;stroke:rgb(0%,0%,0%);stroke-opacity:1;stroke-miterlimit:10;" d="M 797.214844 330 C 797.214844 341.714844 787.714844 351.214844 776 351.214844 C 764.285156 351.214844 754.785156 341.714844 754.785156 330 C 754.785156 318.285156 764.285156 308.785156 776 308.785156 C 787.714844 308.785156 797.214844 318.285156 797.214844 330 "/>
<path style="fill-rule:nonzero;fill:rgb(35%,70%,90%);fill-opacity:1;stroke-width:1;stroke-linecap:butt;stroke-linejoin:miter;stroke:rgb(0%,0%,0%);stroke-opacity:1;stroke-miterlimit:10;" d="M 836 398 L 865.664062 398 L 877.664062 369.785156 L 889.664062 398 L 919.332031 398 L 895.332031 415.4375 L 903.417969 446.980469 L 877.664062 429.542969 L 851.914062 446.980469 L 864.214844 415.4375 L 836 398 "/>
</g>
</svg>
