<?xml version="1.0" encoding="UTF-8"?>
<svg xmlns="http://www.w3.org/2000/svg" xmlns:xlink="http://www.w3.org/1999/xlink" width="1179pt" height="517pt" viewBox="0 0 1179 517" version="1.1">
<g id="surface366">
<rect x="0" y="0" width="1179" height="517" style="fill:rgb(90%,90%,90%);fill-opacity:1;stroke:none;"/>
<path style="fill-rule:nonzero;fill:rgb(100%,51%,0%);fill-opacity:1;stroke-width:1;stroke-linecap:butt;stroke-linejoin:miter;stroke:rgb(0%,0%,0%);stroke-opacity:1;stroke-miterlimit:10;" d="M 280 74 L 254.019531 119 L 305.980469 119 L 280 74 "/>
<path style="fill-rule:nonzero;fill:rgb(35%,70%,90%);fill-opacity:1;stroke-width:1;stroke-linecap:butt;stroke-linejoin:miter;stroke:rgb(0%,0%,0%);stroke-opacity:1;stroke-miterlimit:10;" d="M 93 209 L 122.664062 209 L 134.664062 180.785156 L 146.664062 209 L 176.332031 209 L 152.332031 226.4375 L 160.417969 257.980469 L 134.664062 240.542969 L 108.914062 257.980469 L 121.214844 226.4375 L 93 209 "/>
<path style="fill-rule:nonzero;fill:rgb(35%,70%,90%);fill-opacity:1;stroke-width:1;stroke-linecap:butt;stroke-linejoin:miter;stroke:rgb(0%,0%,0%);stroke-opacity:1;stroke-miterlimit:10;" d="M 305 394 L 334.664062 394 L 346.664062 365.785156 L 358.664062 394 L 388.332031 394 L 364.332031 411.4375 L 372.417969 442.980469 L 346.664062 425.542969 L 320.914062 442.980469 L 333.214844 411.4375 L 305 394 "/>
<path style="fill-rule:nonzero;fill:rgb(100%,51%,0%);fill-opacity:1;stroke-width:1;stroke-linecap:butt;stroke-linejoin:miter;stroke:rgb(0%,0%,0%);stroke-opacity:1;stroke-miterlimit:10;" d="M 315 208 L 289.019531 253 L 340.980469 253 L 315 208 "/>
<path style="fill-rule:nonzero;fill:rgb(35%,70%,90%);fill-opacity:1;stroke-width:1;stroke-linecap:butt;stroke-linejoin:miter;stroke:rgb(0%,0%,0%);stroke-opacity:1;stroke-miterlimit:10;" d="M 214 400 L 243.664062 400 L 255.664062 371.785156 L 267.664062 400 L 297.332031 400 L 273.332031 417.4375 L 281.417969 448.980469 L 255.664062 431.542969 L 229.914062 448.980469 L 242.214844 417.4375 L 214 400 "/>
<path style="fill-rule:nonzero;fill:rgb(35%,70%,90%);fill-opacity:1;stroke-width:1;stroke-linecap:butt;stroke-linejoin:miter;stroke:rgb(0%,0%,0%);stroke-opacity:1;stroke-miterlimit:10;" d="M 404 357 L 433.664062 357 L 445.664062 328.785156 L 457.664062 357 L 487.332031 357 L 463.332031 374.4375 L 471.417969 405.980469 L 445.664062 388.542969 L 419.914062 405.980469 L 432.214844 374.4375 L 404 357 "/>
<path style="fill-rule:nonzero;fill:rgb(35%,70%,90%);fill-opacity:1;stroke-width:1;stroke-linecap:butt;stroke-linejoin:miter;stroke:rgb(0%,0%,0%);stroke-opacity:1;stroke-miterlimit:10;" d="M 172 159 L 201.664062 159 L 213.664062 130.785156 L 225.664062 159 L 255.332031 159 L 231.332031 176.4375 L 239.417969 207.980469 L 213.664062 190.542969 L 187.914062 207.980469 L 200.214844 176.4375 L 172 159 "/>
<path style="fill-rule:nonzero;fill:rgb(100%,51%,0%);fill-opacity:1;stroke-width:1;stroke-linecap:butt;stroke-linejoin:miter;stroke:rgb(0%,0%,0%);stroke-opacity:1;stroke-miterlimit:10;" d="M 157 299 L 131.019531 344 L 182.980469 344 L 157 299 "/>
<path style="fill-rule:nonzero;fill:rgb(100%,51%,0%);fill-opacity:1;stroke-width:1;stroke-linecap:butt;stroke-linejoin:miter;stroke:rgb(0%,0%,0%);stroke-opacity:1;stroke-miterlimit:10;" d="M 1000 114 L 974.019531 159 L 1025.980469 159 L 1000 114 "/>
<path style="fill-rule:nonzero;fill:rgb(100%,51%,0%);fill-opacity:1;stroke-width:1;stroke-linecap:butt;stroke-linejoin:miter;stroke:rgb(0%,0%,0%);stroke-opacity:1;stroke-miterlimit:10;" d="M 811 217 L 785.019531 262 L 836.980469 262 L 811 217 "/>
<path style="fill-rule:nonzero;fill:rgb(35%,70%,90%);fill-opacity:1;stroke-width:1;stroke-linecap:butt;stroke-linejoin:miter;stroke:rgb(0%,0%,0%);stroke-opacity:1;stroke-miterlimit:10;" d="M 901 296 L 930.664062 296 L 942.664062 267.785156 L 954.664062 296 L 984.332031 296 L 960.332031 313.4375 L 968.417969 344.980469 L 942.664062 327.542969 L 916.914062 344.980469 L 929.214844 313.4375 L 901 296 "/>
<path style="fill-rule:nonzero;fill:rgb(100%,51%,0%);fill-opacity:1;stroke-width:1;stroke-linecap:butt;stroke-linejoin:miter;stroke:rgb(0%,0%,0%);stroke-opacity:1;stroke-miterlimit:10;" d="M 959 376 L 933.019531 421 L 984.980469 421 L 959 376 "/>
<path style="fill-rule:nonzero;fill:rgb(100%,51%,0%);fill-opacity:1;stroke-width:1;stroke-linecap:butt;stroke-linejoin:miter;stroke:rgb(0%,0%,0%);stroke-opacity:1;stroke-miterlimit:10;" d="M 784 358 L 758.019531 403 L 809.980469 403 L 784 358 "/>
<path style="fill-rule:nonzero;fill:rgb(35%,70%,90%);fill-opacity:1;stroke-width:1;stroke-linecap:butt;stroke-linejoin:miter;stroke:rgb(0%,0%,0%);stroke-opacity:1;stroke-miterlimit:10;" d="M 833 121 L 862.664062 121 L 874.664062 92.785156 L 886.664062 121 L 916.332031 121 L 892.332031 138.4375 L 900.417969 169.980469 L 874.664062 152.542969 L 848.914062 169.980469 L 861.214844 138.4375 L 833 121 "/>
<path style="fill-rule:nonzero;fill:rgb(35%,70%,90%);fill-opacity:1;stroke-width:1;stroke-linecap:butt;stroke-linejoin:miter;stroke:rgb(0%,0%,0%);stroke-opacity:1;stroke-miterlimit:10;" d="M 1005 265 L 1034.664062 265 L 1046.664062 236.785156 L 1058.664062 265 L 1088.332031 265 L 1064.332031 282.4375 L 1072.417969 313.980469 L 1046.664062 296.542969 L 1020.914062 313.980469 L 1033.214844 282.4375 L 1005 265 "/>
</g>
</svg>
