<?xml version="1.0" encoding="UTF-8"?>
<svg xmlns="http://www.w3.org/2000/svg" xmlns:xlink="http://www.w3.org/1999/xlink" width="1179pt" height="517pt" viewBox="0 0 1179 517" version="1.1">
<g id="surface871">
<rect x="0" y="0" width="1179" height="517" style="fill:rgb(90%,90%,90%);fill-opacity:1;stroke:none;"/>
<path style="fill-rule:nonzero;fill:rgb(53%,27%,7%);fill-opacity:1;stroke-width:1;stroke-linecap:butt;stroke-linejoin:miter;stroke:rgb(0%,0%,0%);stroke-opacity:1;stroke-miterlimit:10;" d="M 88 334 L 117.664062 334 L 129.664062 305.785156 L 141.664062 334 L 171.332031 334 L 147.332031 351.4375 L 155.417969 382.980469 L 129.664062 365.542969 L 103.914062 382.980469 L 116.214844 351.4375 L 88 334 "/>
<path style="fill-rule:nonzero;fill:rgb(53%,27%,7%);fill-opacity:1;stroke-width:1;stroke-linecap:butt;stroke-linejoin:miter;stroke:rgb(0%,0%,0%);stroke-opacity:1;stroke-miterlimit:10;" d="M 974 194 L 1003.664062 194 L 1015.664062 165.785156 L 1027.664062 194 L 1057.332031 194 L 1033.332031 211.4375 L 1041.417969 242.980469 L 1015.664062 225.542969 L 989.914062 242.980469 L 1002.214844 211.4375 L 974 194 "/>
<path style="fill-rule:nonzero;fill:rgb(53%,27%,7%);fill-opacity:1;stroke-width:1;stroke-linecap:butt;stroke-linejoin:miter;stroke:rgb(0%,0%,0%);stroke-opacity:1;stroke-miterlimit:10;" d="M 289 203 L 318.664062 203 L 330.664062 174.785156 L 342.664062 203 L 372.332031 203 L 348.332031 220.4375 L 356.417969 251.980469 L 330.664062 234.542969 L 304.914062 251.980469 L 317.214844 220.4375 L 289 203 "/>
<path style="fill-rule:nonzero;fill:rgb(53%,27%,7%);fill-opacity:1;stroke-width:1;stroke-linecap:butt;stroke-linejoin:miter;stroke:rgb(0%,0%,0%);stroke-opacity:1;stroke-miterlimit:10;" d="M 843 419 L 872.664062 419 L 884.664062 390.785156 L 896.664062 419 L 926.332031 419 L 902.332031 436.4375 L 910.417969 467.980469 L 884.664062 450.542969 L 858.914062 467.980469 L 871.214844 436.4375 L 843 419 "/>
<path style="fill-rule:nonzero;fill:rgb(53%,27%,7%);fill-opacity:1;stroke-width:1;stroke-linecap:butt;stroke-linejoin:miter;stroke:rgb(0%,0%,0%);stroke-opacity:1;stroke-miterlimit:10;" d="M 431 193 L 460.664062 193 L 472.664062 164.785156 L 484.664062 193 L 514.332031 193 L 490.332031 210.4375 L 498.417969 241.980469 L 472.664062 224.542969 L 446.914062 241.980469 L 459.214844 210.4375 L 431 193 "/>
<path style="fill-rule:nonzero;fill:rgb(55%,51%,53%);fill-opacity:1;stroke-width:1;stroke-linecap:butt;stroke-linejoin:miter;stroke:rgb(0%,0%,0%);stroke-opacity:1;stroke-miterlimit:10;" d="M 772 191 L 801.664062 191 L 813.664062 162.785156 L 825.664062 191 L 855.332031 191 L 831.332031 208.4375 L 839.417969 239.980469 L 813.664062 222.542969 L 787.914062 239.980469 L 800.214844 208.4375 L 772 191 "/>
<path style="fill-rule:nonzero;fill:rgb(55%,51%,53%);fill-opacity:1;stroke-width:1;stroke-linecap:butt;stroke-linejoin:miter;stroke:rgb(0%,0%,0%);stroke-opacity:1;stroke-miterlimit:10;" d="M 406 407 L 435.664062 407 L 447.664062 378.785156 L 459.664062 407 L 489.332031 407 L 465.332031 424.4375 L 473.417969 455.980469 L 447.664062 438.542969 L 421.914062 455.980469 L 434.214844 424.4375 L 406 407 "/>
<path style="fill-rule:nonzero;fill:rgb(55%,51%,53%);fill-opacity:1;stroke-width:1;stroke-linecap:butt;stroke-linejoin:miter;stroke:rgb(0%,0%,0%);stroke-opacity:1;stroke-miterlimit:10;" d="M 600 254 L 629.664062 254 L 641.664062 225.785156 L 653.664062 254 L 683.332031 254 L 659.332031 271.4375 L 667.417969 302.980469 L 641.664062 285.542969 L 615.914062 302.980469 L 628.214844 271.4375 L 600 254 "/>
</g>
</svg>
