<?xml version="1.0" encoding="UTF-8"?>
<svg xmlns="http://www.w3.org/2000/svg" xmlns:xlink="http://www.w3.org/1999/xlink" width="1179pt" height="517pt" viewBox="0 0 1179 517" version="1.1">
<g id="surface581">
<rect x="0" y="0" width="1179" height="517" style="fill:rgb(90%,90%,90%);fill-opacity:1;stroke:none;"/>
<path style="fill-rule:nonzero;fill:rgb(35%,70%,90%);fill-opacity:1;stroke-width:1;stroke-linecap:butt;stroke-linejoin:miter;stroke:rgb(0%,0%,0%);stroke-opacity:1;stroke-miterlimit:10;" d="M 231 116 L 260.664062 116 L 272.664062 87.785156 L 284.664062 116 L 314.332031 116 L 290.332031 133.4375 L 298.417969 164.980469 L 272.664062 147.542969 L 246.914062 164.980469 L 259.214844 133.4375 L 231 116 "/>
<path style="fill-rule:nonzero;fill:rgb(53%,27%,7%);fill-opacity:1;stroke-width:1;stroke-linecap:butt;stroke-linejoin:miter;stroke:rgb(0%,0%,0%);stroke-opacity:1;stroke-miterlimit:10;" d="M 315 266 L 344.664062 266 L 356.664062 237.785156 L 368.664062 266 L 398.332031 266 L 374.332031 283.4375 L 382.417969 314.980469 L 356.664062 297.542969 L 330.914062 314.980469 L 343.214844 283.4375 L 315 266 "/>
<path style="fill-rule:nonzero;fill:rgb(53%,27%,7%);fill-opacity:1;stroke-width:1;stroke-linecap:butt;stroke-linejoin:miter;stroke:rgb(0%,0%,0%);stroke-opacity:1;stroke-miterlimit:10;" d="M 362 360 L 391.664062 360 L 403.664062 331.785156 L 415.664062 360 L 445.332031 360 L 421.332031 377.4375 L 429.417969 408.980469 L 403.664062 391.542969 L 377.914062 408.980469 L 390.214844 377.4375 L 362 360 "/>
<path style="fill-rule:nonzero;fill:rgb(35%,70%,90%);fill-opacity:1;stroke-width:1;stroke-linecap:butt;stroke-linejoin:miter;stroke:rgb(0%,0%,0%);stroke-opacity:1;stroke-miterlimit:10;" d="M 130 197 L 159.664062 197 L 171.664062 168.785156 L 183.664062 197 L 213.332031 197 L 189.332031 214.4375 L 197.417969 245.980469 L 171.664062 228.542969 L 145.914062 245.980469 L 158.214844 214.4375 L 130 197 "/>
<path style="fill-rule:nonzero;fill:rgb(35%,70%,90%);fill-opacity:1;stroke-width:1;stroke-linecap:butt;stroke-linejoin:miter;stroke:rgb(0%,0%,0%);stroke-opacity:1;stroke-miterlimit:10;" d="M 391 160 L 420.664062 160 L 432.664062 131.785156 L 444.664062 160 L 474.332031 160 L 450.332031 177.4375 L 458.417969 208.980469 L 432.664062 191.542969 L 406.914062 208.980469 L 419.214844 177.4375 L 391 160 "/>
<path style="fill-rule:nonzero;fill:rgb(53%,27%,7%);fill-opacity:1;stroke-width:1;stroke-linecap:butt;stroke-linejoin:miter;stroke:rgb(0%,0%,0%);stroke-opacity:1;stroke-miterlimit:10;" d="M 885.785156 219.785156 L 885.785156 262.214844 L 928.214844 262.214844 L 928.214844 219.785156 L 885.785156 219.785156 "/>
<path style="fill-rule:nonzero;fill:rgb(35%,70%,90%);fill-opacity:1;stroke-width:1;stroke-linecap:butt;stroke-linejoin:miter;stroke:rgb(0%,0%,0%);stroke-opacity:1;stroke-miterlimit:10;" d="M 908.785156 83.785156 L 908.785156 126.214844 L 951.214844 126.214844 L 951.214844 83.785156 L 908.785156 83.785156 "/>
<path style="fill-rule:nonzero;fill:rgb(35%,70%,90%);fill-opacity:1;stroke-width:1;stroke-linecap:butt;stroke-linejoin:miter;stroke:rgb(0%,0%,0%);stroke-opacity:1;stroke-miterlimit:10;" d="M 722.785156 139.785156 L 722.785156 182.214844 L 765.214844 182.214844 L 765.214844 139.785156 L 722.785156 139.785156 "/>
<path style="fill-rule:nonzero;fill:rgb(53%,27%,7%);fill-opacity:1;stroke-width:1;stroke-linecap:butt;stroke-linejoin:miter;stroke:rgb(0%,0%,0%);stroke-opacity:1;stroke-miterlimit:10;" d="M 908.785156 397.785156 L 908.785156 440.214844 L 951.214844 440.214844 L 951.214844 397.785156 L 908.785156 397.785156 "/>
</g>
</svg>
