<?xml version="1.0" encoding="UTF-8"?>
<svg xmlns="http://www.w3.org/2000/svg" xmlns:xlink="http://www.w3.org/1999/xlink" width="1179pt" height="517pt" viewBox="0 0 1179 517" version="1.1">
<g id="surface691">
<rect x="0" y="0" width="1179" height="517" style="fill:rgb(90%,90%,90%);fill-opacity:1;stroke:none;"/>
<path style="fill-rule:nonzero;fill:rgb(55%,51%,53%);fill-opacity:1;stroke-width:1;stroke-linecap:butt;stroke-linejoin:miter;stroke:rgb(0%,0%,0%);stroke-opacity:1;stroke-miterlimit:10;" d="M 668 83 L 697.664062 83 L 709.664062 54.785156 L 721.664062 83 L 751.332031 83 L 727.332031 100.4375 L 735.417969 131.980469 L 709.664062 114.542969 L 683.914062 131.980469 L 696.214844 100.4375 L 668 83 "/>
<path style="fill-rule:nonzero;fill:rgb(55%,51%,53%);fill-opacity:1;stroke-width:1;stroke-linecap:butt;stroke-linejoin:miter;stroke:rgb(0%,0%,0%);stroke-opacity:1;stroke-miterlimit:10;" d="M 861 310 L 890.664062 310 L 902.664062 281.785156 L 914.664062 310 L 944.332031 310 L 920.332031 327.4375 L 928.417969 358.980469 L 902.664062 341.542969 L 876.914062 358.980469 L 889.214844 327.4375 L 861 310 "/>
<path style="fill-rule:nonzero;fill:rgb(55%,51%,53%);fill-opacity:1;stroke-width:1;stroke-linecap:butt;stroke-linejoin:miter;stroke:rgb(0%,0%,0%);stroke-opacity:1;stroke-miterlimit:10;" d="M 683 342 L 712.664062 342 L 724.664062 313.785156 L 736.664062 342 L 766.332031 342 L 742.332031 359.4375 L 750.417969 390.980469 L 724.664062 373.542969 L 698.914062 390.980469 L 711.214844 359.4375 L 683 342 "/>
<path style="fill-rule:nonzero;fill:rgb(55%,51%,53%);fill-opacity:1;stroke-width:1;stroke-linecap:butt;stroke-linejoin:miter;stroke:rgb(0%,0%,0%);stroke-opacity:1;stroke-miterlimit:10;" d="M 495 227 L 524.664062 227 L 536.664062 198.785156 L 548.664062 227 L 578.332031 227 L 554.332031 244.4375 L 562.417969 275.980469 L 536.664062 258.542969 L 510.914062 275.980469 L 523.214844 244.4375 L 495 227 "/>
<path style="fill-rule:nonzero;fill:rgb(53%,27%,7%);fill-opacity:1;stroke-width:1;stroke-linecap:butt;stroke-linejoin:miter;stroke:rgb(0%,0%,0%);stroke-opacity:1;stroke-miterlimit:10;" d="M 226.214844 390 C 226.214844 401.714844 216.714844 411.214844 205 411.214844 C 193.285156 411.214844 183.785156 401.714844 183.785156 390 C 183.785156 378.285156 193.285156 368.785156 205 368.785156 C 216.714844 368.785156 226.214844 378.285156 226.214844 390 "/>
<path style="fill-rule:nonzero;fill:rgb(53%,27%,7%);fill-opacity:1;stroke-width:1;stroke-linecap:butt;stroke-linejoin:miter;stroke:rgb(0%,0%,0%);stroke-opacity:1;stroke-miterlimit:10;" d="M 847.214844 431 C 847.214844 442.714844 837.714844 452.214844 826 452.214844 C 814.285156 452.214844 804.785156 442.714844 804.785156 431 C 804.785156 419.285156 814.285156 409.785156 826 409.785156 C 837.714844 409.785156 847.214844 419.285156 847.214844 431 "/>
<path style="fill-rule:nonzero;fill:rgb(53%,27%,7%);fill-opacity:1;stroke-width:1;stroke-linecap:butt;stroke-linejoin:miter;stroke:rgb(0%,0%,0%);stroke-opacity:1;stroke-miterlimit:10;" d="M 220.214844 164 C 220.214844 175.714844 210.714844 185.214844 199 185.214844 C 187.285156 185.214844 177.785156 175.714844 177.785156 164 C 177.785156 152.285156 187.285156 142.785156 199 142.785156 C 210.714844 142.785156 220.214844 152.285156 220.214844 164 "/>
</g>
</svg>
