<?xml version="1.0" encoding="UTF-8"?>
<svg xmlns="http://www.w3.org/2000/svg" xmlns:xlink="http://www.w3.org/1999/xlink" width="1179pt" height="517pt" viewBox="0 0 1179 517" version="1.1">
<g id="surface261">
<rect x="0" y="0" width="1179" height="517" style="fill:rgb(90%,90%,90%);fill-opacity:1;stroke:none;"/>
<path style="fill-rule:nonzero;fill:rgb(35%,70%,90%);fill-opacity:1;stroke-width:1;stroke-linecap:butt;stroke-linejoin:miter;stroke:rgb(0%,0%,0%);stroke-opacity:1;stroke-miterlimit:10;" d="M 381.214844 292 C 381.214844 303.714844 371.714844 313.214844 360 313.214844 C 348.285156 313.214844 338.785156 303.714844 338.785156 292 C 338.785156 280.285156 348.285156 270.785156 360 270.785156 C 371.714844 270.785156 381.214844 280.285156 381.214844 292 "/>
<path style="fill-rule:nonzero;fill:rgb(35%,70%,90%);fill-opacity:1;stroke-width:1;stroke-linecap:butt;stroke-linejoin:miter;stroke:rgb(0%,0%,0%);stroke-opacity:1;stroke-miterlimit:10;" d="M 80.785156 58.785156 L 80.785156 101.214844 L 123.214844 101.214844 L 123.214844 58.785156 L 80.785156 58.785156 "/>
<path style="fill-rule:nonzero;fill:rgb(35%,70%,90%);fill-opacity:1;stroke-width:1;stroke-linecap:butt;stroke-linejoin:miter;stroke:rgb(0%,0%,0%);stroke-opacity:1;stroke-miterlimit:10;" d="M 261.214844 398 C 261.214844 409.714844 251.714844 419.214844 240 419.214844 C 228.285156 419.214844 218.785156 409.714844 218.785156 398 C 218.785156 386.285156 228.285156 376.785156 240 376.785156 C 251.714844 376.785156 261.214844 386.285156 261.214844 398 "/>
<path style="fill-rule:nonzero;fill:rgb(55%,51%,53%);fill-opacity:1;stroke-width:1;stroke-linecap:butt;stroke-linejoin:miter;stroke:rgb(0%,0%,0%);stroke-opacity:1;stroke-miterlimit:10;" d="M 784.785156 337.785156 L 784.785156 380.214844 L 827.214844 380.214844 L 827.214844 337.785156 L 784.785156 337.785156 "/>
<path style="fill-rule:nonzero;fill:rgb(55%,51%,53%);fill-opacity:1;stroke-width:1;stroke-linecap:butt;stroke-linejoin:miter;stroke:rgb(0%,0%,0%);stroke-opacity:1;stroke-miterlimit:10;" d="M 1009.214844 290 C 1009.214844 301.714844 999.714844 311.214844 988 311.214844 C 976.285156 311.214844 966.785156 301.714844 966.785156 290 C 966.785156 278.285156 976.285156 268.785156 988 268.785156 C 999.714844 268.785156 1009.214844 278.285156 1009.214844 290 "/>
<path style="fill-rule:nonzero;fill:rgb(55%,51%,53%);fill-opacity:1;stroke-width:1;stroke-linecap:butt;stroke-linejoin:miter;stroke:rgb(0%,0%,0%);stroke-opacity:1;stroke-miterlimit:10;" d="M 705.785156 155.785156 L 705.785156 198.214844 L 748.214844 198.214844 L 748.214844 155.785156 L 705.785156 155.785156 "/>
</g>
</svg>
