<?xml version="1.0" encoding="UTF-8"?>
<svg xmlns="http://www.w3.org/2000/svg" xmlns:xlink="http://www.w3.org/1999/xlink" width="1179pt" height="517pt" viewBox="0 0 1179 517" version="1.1">
<g id="surface71">
<rect x="0" y="0" width="1179" height="517" style="fill:rgb(90%,90%,90%);fill-opacity:1;stroke:none;"/>
<path style="fill-rule:nonzero;fill:rgb(35%,70%,90%);fill-opacity:1;stroke-width:1;stroke-linecap:butt;stroke-linejoin:miter;stroke:rgb(0%,0%,0%);stroke-opacity:1;stroke-miterlimit:10;" d="M 432 381 L 461.664062 381 L 473.664062 352.785156 L 485.664062 381 L 515.332031 381 L 491.332031 398.4375 L 499.417969 429.980469 L 473.664062 412.542969 L 447.914062 429.980469 L 460.214844 398.4375 L 432 381 "/>
<path style="fill-rule:nonzero;fill:rgb(35%,70%,90%);fill-opacity:1;stroke-width:1;stroke-linecap:butt;stroke-linejoin:miter;stroke:rgb(0%,0%,0%);stroke-opacity:1;stroke-miterlimit:10;" d="M 309 231 L 338.664062 231 L 350.664062 202.785156 L 362.664062 231 L 392.332031 231 L 368.332031 248.4375 L 376.417969 279.980469 L 350.664062 262.542969 L 324.914062 279.980469 L 337.214844 248.4375 L 309 231 "/>
<path style="fill-rule:nonzero;fill:rgb(35%,70%,90%);fill-opacity:1;stroke-width:1;stroke-linecap:butt;stroke-linejoin:miter;stroke:rgb(0%,0%,0%);stroke-opacity:1;stroke-miterlimit:10;" d="M 112 320 L 141.664062 320 L 153.664062 291.785156 L 165.664062 320 L 195.332031 320 L 171.332031 337.4375 L 179.417969 368.980469 L 153.664062 351.542969 L 127.914062 368.980469 L 140.214844 337.4375 L 112 320 "/>
<path style="fill-rule:nonzero;fill:rgb(35%,70%,90%);fill-opacity:1;stroke-width:1;stroke-linecap:butt;stroke-linejoin:miter;stroke:rgb(0%,0%,0%);stroke-opacity:1;stroke-miterlimit:10;" d="M 138.785156 395.785156 L 138.785156 438.214844 L 181.214844 438.214844 L 181.214844 395.785156 L 138.785156 395.785156 "/>
<path style="fill-rule:nonzero;fill:rgb(35%,70%,90%);fill-opacity:1;stroke-width:1;stroke-linecap:butt;stroke-linejoin:miter;stroke:rgb(0%,0%,0%);stroke-opacity:1;stroke-miterlimit:10;" d="M 302 81 L 331.664062 81 L 343.664062 52.785156 L 355.664062 81 L 385.332031 81 L 361.332031 98.4375 L 369.417969 129.980469 L 343.664062 112.542969 L 317.914062 129.980469 L 330.214844 98.4375 L 302 81 "/>
<path style="fill-rule:nonzero;fill:rgb(55%,51%,53%);fill-opacity:1;stroke-width:1;stroke-linecap:butt;stroke-linejoin:miter;stroke:rgb(0%,0%,0%);stroke-opacity:1;stroke-miterlimit:10;" d="M 898.785156 275.785156 L 898.785156 318.214844 L 941.214844 318.214844 L 941.214844 275.785156 L 898.785156 275.785156 "/>
<path style="fill-rule:nonzero;fill:rgb(55%,51%,53%);fill-opacity:1;stroke-width:1;stroke-linecap:butt;stroke-linejoin:miter;stroke:rgb(0%,0%,0%);stroke-opacity:1;stroke-miterlimit:10;" d="M 707.785156 377.785156 L 707.785156 420.214844 L 750.214844 420.214844 L 750.214844 377.785156 L 707.785156 377.785156 "/>
<path style="fill-rule:nonzero;fill:rgb(55%,51%,53%);fill-opacity:1;stroke-width:1;stroke-linecap:butt;stroke-linejoin:miter;stroke:rgb(0%,0%,0%);stroke-opacity:1;stroke-miterlimit:10;" d="M 917.785156 66.785156 L 917.785156 109.214844 L 960.214844 109.214844 L 960.214844 66.785156 L 917.785156 66.785156 "/>
<path style="fill-rule:nonzero;fill:rgb(55%,51%,53%);fill-opacity:1;stroke-width:1;stroke-linecap:butt;stroke-linejoin:miter;stroke:rgb(0%,0%,0%);stroke-opacity:1;stroke-miterlimit:10;" d="M 984 186 L 1013.664062 186 L 1025.664062 157.785156 L 1037.664062 186 L 1067.332031 186 L 1043.332031 203.4375 L 1051.417969 234.980469 L 1025.664062 217.542969 L 999.914062 234.980469 L 1012.214844 203.4375 L 984 186 "/>
</g>
</svg>
