<?xml version="1.0" encoding="UTF-8"?>
<svg xmlns="http://www.w3.org/2000/svg" xmlns:xlink="http://www.w3.org/1999/xlink" width="1179pt" height="517pt" viewBox="0 0 1179 517" version="1.1">
<g id="surface1031">
<rect x="0" y="0" width="1179" height="517" style="fill:rgb(90%,90%,90%);fill-opacity:1;stroke:none;"/>
<path style="fill-rule:nonzero;fill:rgb(53%,27%,7%);fill-opacity:1;stroke-width:1;stroke-linecap:butt;stroke-linejoin:miter;stroke:rgb(0%,0%,0%);stroke-opacity:1;stroke-miterlimit:10;" d="M 549 220 L 523.019531 265 L 574.980469 265 L 549 220 "/>
<path style="fill-rule:nonzero;fill:rgb(53%,27%,7%);fill-opacity:1;stroke-width:1;stroke-linecap:butt;stroke-linejoin:miter;stroke:rgb(0%,0%,0%);stroke-opacity:1;stroke-miterlimit:10;" d="M 758 75 L 732.019531 120 L 783.980469 120 L 758 75 "/>
<path style="fill-rule:nonzero;fill:rgb(53%,27%,7%);fill-opacity:1;stroke-width:1;stroke-linecap:butt;stroke-linejoin:miter;stroke:rgb(0%,0%,0%);stroke-opacity:1;stroke-miterlimit:10;" d="M 780 357 L 754.019531 402 L 805.980469 402 L 780 357 "/>
<path style="fill-rule:nonzero;fill:rgb(53%,27%,7%);fill-opacity:1;stroke-width:1;stroke-linecap:butt;stroke-linejoin:miter;stroke:rgb(0%,0%,0%);stroke-opacity:1;stroke-miterlimit:10;" d="M 187 354 L 161.019531 399 L 212.980469 399 L 187 354 "/>
<path style="fill-rule:nonzero;fill:rgb(35%,70%,90%);fill-opacity:1;stroke-width:1;stroke-linecap:butt;stroke-linejoin:miter;stroke:rgb(0%,0%,0%);stroke-opacity:1;stroke-miterlimit:10;" d="M 925 389 L 954.664062 389 L 966.664062 360.785156 L 978.664062 389 L 1008.332031 389 L 984.332031 406.4375 L 992.417969 437.980469 L 966.664062 420.542969 L 940.914062 437.980469 L 953.214844 406.4375 L 925 389 "/>
<path style="fill-rule:nonzero;fill:rgb(35%,70%,90%);fill-opacity:1;stroke-width:1;stroke-linecap:butt;stroke-linejoin:miter;stroke:rgb(0%,0%,0%);stroke-opacity:1;stroke-miterlimit:10;" d="M 435 176 L 464.664062 176 L 476.664062 147.785156 L 488.664062 176 L 518.332031 176 L 494.332031 193.4375 L 502.417969 224.980469 L 476.664062 207.542969 L 450.914062 224.980469 L 463.214844 193.4375 L 435 176 "/>
<path style="fill-rule:nonzero;fill:rgb(35%,70%,90%);fill-opacity:1;stroke-width:1;stroke-linecap:butt;stroke-linejoin:miter;stroke:rgb(0%,0%,0%);stroke-opacity:1;stroke-miterlimit:10;" d="M 190 137 L 219.664062 137 L 231.664062 108.785156 L 243.664062 137 L 273.332031 137 L 249.332031 154.4375 L 257.417969 185.980469 L 231.664062 168.542969 L 205.914062 185.980469 L 218.214844 154.4375 L 190 137 "/>
<path style="fill-rule:nonzero;fill:rgb(35%,70%,90%);fill-opacity:1;stroke-width:1;stroke-linecap:butt;stroke-linejoin:miter;stroke:rgb(0%,0%,0%);stroke-opacity:1;stroke-miterlimit:10;" d="M 970 138 L 999.664062 138 L 1011.664062 109.785156 L 1023.664062 138 L 1053.332031 138 L 1029.332031 155.4375 L 1037.417969 186.980469 L 1011.664062 169.542969 L 985.914062 186.980469 L 998.214844 155.4375 L 970 138 "/>
<path style="fill-rule:nonzero;fill:rgb(35%,70%,90%);fill-opacity:1;stroke-width:1;stroke-linecap:butt;stroke-linejoin:miter;stroke:rgb(0%,0%,0%);stroke-opacity:1;stroke-miterlimit:10;" d="M 277 235 L 306.664062 235 L 318.664062 206.785156 L 330.664062 235 L 360.332031 235 L 336.332031 252.4375 L 344.417969 283.980469 L 318.664062 266.542969 L 292.914062 283.980469 L 305.214844 252.4375 L 277 235 "/>
</g>
</svg>
