<?xml version="1.0" encoding="UTF-8"?>
<svg xmlns="http://www.w3.org/2000/svg" xmlns:xlink="http://www.w3.org/1999/xlink" width="1179pt" height="517pt" viewBox="0 0 1179 517" version="1.1">
<g id="surface411">
<rect x="0" y="0" width="1179" height="517" style="fill:rgb(90%,90%,90%);fill-opacity:1;stroke:none;"/>
<path style="fill-rule:nonzero;fill:rgb(35%,70%,90%);fill-opacity:1;stroke-width:1;stroke-linecap:butt;stroke-linejoin:miter;stroke:rgb(0%,0%,0%);stroke-opacity:1;stroke-miterlimit:10;" d="M 212.214844 336 C 212.214844 347.714844 202.714844 357.214844 191 357.214844 C 179.285156 357.214844 169.785156 347.714844 169.785156 336 C 169.785156 324.285156 179.285156 314.785156 191 314.785156 C 202.714844 314.785156 212.214844 324.285156 212.214844 336 "/>
<path style="fill-rule:nonzero;fill:rgb(35%,70%,90%);fill-opacity:1;stroke-width:1;stroke-linecap:butt;stroke-linejoin:miter;stroke:rgb(0%,0%,0%);stroke-opacity:1;stroke-miterlimit:10;" d="M 217.214844 166 C 217.214844 177.714844 207.714844 187.214844 196 187.214844 C 184.285156 187.214844 174.785156 177.714844 174.785156 166 C 174.785156 154.285156 184.285156 144.785156 196 144.785156 C 207.714844 144.785156 217.214844 154.285156 217.214844 166 "/>
<path style="fill-rule:nonzero;fill:rgb(53%,27%,7%);fill-opacity:1;stroke-width:1;stroke-linecap:butt;stroke-linejoin:miter;stroke:rgb(0%,0%,0%);stroke-opacity:1;stroke-miterlimit:10;" d="M 107.214844 150 C 107.214844 161.714844 97.714844 171.214844 86 171.214844 C 74.285156 171.214844 64.785156 161.714844 64.785156 150 C 64.785156 138.285156 74.285156 128.785156 86 128.785156 C 97.714844 128.785156 107.214844 138.285156 107.214844 150 "/>
<path style="fill-rule:nonzero;fill:rgb(53%,27%,7%);fill-opacity:1;stroke-width:1;stroke-linecap:butt;stroke-linejoin:miter;stroke:rgb(0%,0%,0%);stroke-opacity:1;stroke-miterlimit:10;" d="M 389.214844 215 C 389.214844 226.714844 379.714844 236.214844 368 236.214844 C 356.285156 236.214844 346.785156 226.714844 346.785156 215 C 346.785156 203.285156 356.285156 193.785156 368 193.785156 C 379.714844 193.785156 389.214844 203.285156 389.214844 215 "/>
<path style="fill-rule:nonzero;fill:rgb(53%,27%,7%);fill-opacity:1;stroke-width:1;stroke-linecap:butt;stroke-linejoin:miter;stroke:rgb(0%,0%,0%);stroke-opacity:1;stroke-miterlimit:10;" d="M 961.785156 96.785156 L 961.785156 139.214844 L 1004.214844 139.214844 L 1004.214844 96.785156 L 961.785156 96.785156 "/>
<path style="fill-rule:nonzero;fill:rgb(53%,27%,7%);fill-opacity:1;stroke-width:1;stroke-linecap:butt;stroke-linejoin:miter;stroke:rgb(0%,0%,0%);stroke-opacity:1;stroke-miterlimit:10;" d="M 1015.785156 346.785156 L 1015.785156 389.214844 L 1058.214844 389.214844 L 1058.214844 346.785156 L 1015.785156 346.785156 "/>
<path style="fill-rule:nonzero;fill:rgb(35%,70%,90%);fill-opacity:1;stroke-width:1;stroke-linecap:butt;stroke-linejoin:miter;stroke:rgb(0%,0%,0%);stroke-opacity:1;stroke-miterlimit:10;" d="M 759.785156 176.785156 L 759.785156 219.214844 L 802.214844 219.214844 L 802.214844 176.785156 L 759.785156 176.785156 "/>
<path style="fill-rule:nonzero;fill:rgb(35%,70%,90%);fill-opacity:1;stroke-width:1;stroke-linecap:butt;stroke-linejoin:miter;stroke:rgb(0%,0%,0%);stroke-opacity:1;stroke-miterlimit:10;" d="M 792.785156 337.785156 L 792.785156 380.214844 L 835.214844 380.214844 L 835.214844 337.785156 L 792.785156 337.785156 "/>
<path style="fill-rule:nonzero;fill:rgb(53%,27%,7%);fill-opacity:1;stroke-width:1;stroke-linecap:butt;stroke-linejoin:miter;stroke:rgb(0%,0%,0%);stroke-opacity:1;stroke-miterlimit:10;" d="M 932.785156 192.785156 L 932.785156 235.214844 L 975.214844 235.214844 L 975.214844 192.785156 L 932.785156 192.785156 "/>
</g>
</svg>
