<?xml version="1.0" encoding="UTF-8"?>
<svg xmlns="http://www.w3.org/2000/svg" xmlns:xlink="http://www.w3.org/1999/xlink" width="1179pt" height="517pt" viewBox="0 0 1179 517" version="1.1">
<g id="surface1151">
<rect x="0" y="0" width="1179" height="517" style="fill:rgb(90%,90%,90%);fill-opacity:1;stroke:none;"/>
<path style="fill-rule:nonzero;fill:rgb(55%,51%,53%);fill-opacity:1;stroke-width:1;stroke-linecap:butt;stroke-linejoin:miter;stroke:rgb(0%,0%,0%);stroke-opacity:1;stroke-miterlimit:10;" d="M 802.214844 183 C 802.214844 194.714844 792.714844 204.214844 781 204.214844 C 769.285156 204.214844 759.785156 194.714844 759.785156 183 C 759.785156 171.285156 769.285156 161.785156 781 161.785156 C 792.714844 161.785156 802.214844 171.285156 802.214844 183 "/>
<path style="fill-rule:nonzero;fill:rgb(55%,51%,53%);fill-opacity:1;stroke-width:1;stroke-linecap:butt;stroke-linejoin:miter;stroke:rgb(0%,0%,0%);stroke-opacity:1;stroke-miterlimit:10;" d="M 475.214844 423 C 475.214844 434.714844 465.714844 444.214844 454 444.214844 C 442.285156 444.214844 432.785156 434.714844 432.785156 423 C 432.785156 411.285156 442.285156 401.785156 454 401.785156 C 465.714844 401.785156 475.214844 411.285156 475.214844 423 "/>
<path style="fill-rule:nonzero;fill:rgb(55%,51%,53%);fill-opacity:1;stroke-width:1;stroke-linecap:butt;stroke-linejoin:miter;stroke:rgb(0%,0%,0%);stroke-opacity:1;stroke-miterlimit:10;" d="M 497.214844 128 C 497.214844 139.714844 487.714844 149.214844 476 149.214844 C 464.285156 149.214844 454.785156 139.714844 454.785156 128 C 454.785156 116.285156 464.285156 106.785156 476 106.785156 C 487.714844 106.785156 497.214844 116.285156 497.214844 128 "/>
<path style="fill-rule:nonzero;fill:rgb(55%,51%,53%);fill-opacity:1;stroke-width:1;stroke-linecap:butt;stroke-linejoin:miter;stroke:rgb(0%,0%,0%);stroke-opacity:1;stroke-miterlimit:10;" d="M 347.214844 237 C 347.214844 248.714844 337.714844 258.214844 326 258.214844 C 314.285156 258.214844 304.785156 248.714844 304.785156 237 C 304.785156 225.285156 314.285156 215.785156 326 215.785156 C 337.714844 215.785156 347.214844 225.285156 347.214844 237 "/>
<path style="fill-rule:nonzero;fill:rgb(35%,70%,90%);fill-opacity:1;stroke-width:1;stroke-linecap:butt;stroke-linejoin:miter;stroke:rgb(0%,0%,0%);stroke-opacity:1;stroke-miterlimit:10;" d="M 1010 346 L 984.019531 391 L 1035.980469 391 L 1010 346 "/>
<path style="fill-rule:nonzero;fill:rgb(35%,70%,90%);fill-opacity:1;stroke-width:1;stroke-linecap:butt;stroke-linejoin:miter;stroke:rgb(0%,0%,0%);stroke-opacity:1;stroke-miterlimit:10;" d="M 212 72 L 186.019531 117 L 237.980469 117 L 212 72 "/>
<path style="fill-rule:nonzero;fill:rgb(35%,70%,90%);fill-opacity:1;stroke-width:1;stroke-linecap:butt;stroke-linejoin:miter;stroke:rgb(0%,0%,0%);stroke-opacity:1;stroke-miterlimit:10;" d="M 861 298 L 835.019531 343 L 886.980469 343 L 861 298 "/>
</g>
</svg>
