<?xml version="1.0" encoding="UTF-8"?>
<svg xmlns="http://www.w3.org/2000/svg" xmlns:xlink="http://www.w3.org/1999/xlink" width="1179pt" height="517pt" viewBox="0 0 1179 517" version="1.1">
<g id="surface736">
<rect x="0" y="0" width="1179" height="517" style="fill:rgb(90%,90%,90%);fill-opacity:1;stroke:none;"/>
<path style="fill-rule:nonzero;fill:rgb(53%,27%,7%);fill-opacity:1;stroke-width:1;stroke-linecap:butt;stroke-linejoin:miter;stroke:rgb(0%,0%,0%);stroke-opacity:1;stroke-miterlimit:10;" d="M 149 417 L 178.664062 417 L 190.664062 388.785156 L 202.664062 417 L 232.332031 417 L 208.332031 434.4375 L 216.417969 465.980469 L 190.664062 448.542969 L 164.914062 465.980469 L 177.214844 434.4375 L 149 417 "/>
<path style="fill-rule:nonzero;fill:rgb(53%,27%,7%);fill-opacity:1;stroke-width:1;stroke-linecap:butt;stroke-linejoin:miter;stroke:rgb(0%,0%,0%);stroke-opacity:1;stroke-miterlimit:10;" d="M 450 395 L 479.664062 395 L 491.664062 366.785156 L 503.664062 395 L 533.332031 395 L 509.332031 412.4375 L 517.417969 443.980469 L 491.664062 426.542969 L 465.914062 443.980469 L 478.214844 412.4375 L 450 395 "/>
<path style="fill-rule:nonzero;fill:rgb(53%,27%,7%);fill-opacity:1;stroke-width:1;stroke-linecap:butt;stroke-linejoin:miter;stroke:rgb(0%,0%,0%);stroke-opacity:1;stroke-miterlimit:10;" d="M 92 185 L 121.664062 185 L 133.664062 156.785156 L 145.664062 185 L 175.332031 185 L 151.332031 202.4375 L 159.417969 233.980469 L 133.664062 216.542969 L 107.914062 233.980469 L 120.214844 202.4375 L 92 185 "/>
<path style="fill-rule:nonzero;fill:rgb(53%,27%,7%);fill-opacity:1;stroke-width:1;stroke-linecap:butt;stroke-linejoin:miter;stroke:rgb(0%,0%,0%);stroke-opacity:1;stroke-miterlimit:10;" d="M 946 239 L 975.664062 239 L 987.664062 210.785156 L 999.664062 239 L 1029.332031 239 L 1005.332031 256.4375 L 1013.417969 287.980469 L 987.664062 270.542969 L 961.914062 287.980469 L 974.214844 256.4375 L 946 239 "/>
<path style="fill-rule:nonzero;fill:rgb(53%,27%,7%);fill-opacity:1;stroke-width:1;stroke-linecap:butt;stroke-linejoin:miter;stroke:rgb(0%,0%,0%);stroke-opacity:1;stroke-miterlimit:10;" d="M 346 95 L 375.664062 95 L 387.664062 66.785156 L 399.664062 95 L 429.332031 95 L 405.332031 112.4375 L 413.417969 143.980469 L 387.664062 126.542969 L 361.914062 143.980469 L 374.214844 112.4375 L 346 95 "/>
<path style="fill-rule:nonzero;fill:rgb(55%,51%,53%);fill-opacity:1;stroke-width:1;stroke-linecap:butt;stroke-linejoin:miter;stroke:rgb(0%,0%,0%);stroke-opacity:1;stroke-miterlimit:10;" d="M 762 146 L 791.664062 146 L 803.664062 117.785156 L 815.664062 146 L 845.332031 146 L 821.332031 163.4375 L 829.417969 194.980469 L 803.664062 177.542969 L 777.914062 194.980469 L 790.214844 163.4375 L 762 146 "/>
<path style="fill-rule:nonzero;fill:rgb(55%,51%,53%);fill-opacity:1;stroke-width:1;stroke-linecap:butt;stroke-linejoin:miter;stroke:rgb(0%,0%,0%);stroke-opacity:1;stroke-miterlimit:10;" d="M 281 287 L 310.664062 287 L 322.664062 258.785156 L 334.664062 287 L 364.332031 287 L 340.332031 304.4375 L 348.417969 335.980469 L 322.664062 318.542969 L 296.914062 335.980469 L 309.214844 304.4375 L 281 287 "/>
<path style="fill-rule:nonzero;fill:rgb(55%,51%,53%);fill-opacity:1;stroke-width:1;stroke-linecap:butt;stroke-linejoin:miter;stroke:rgb(0%,0%,0%);stroke-opacity:1;stroke-miterlimit:10;" d="M 222 85 L 251.664062 85 L 263.664062 56.785156 L 275.664062 85 L 305.332031 85 L 281.332031 102.4375 L 289.417969 133.980469 L 263.664062 116.542969 L 237.914062 133.980469 L 250.214844 102.4375 L 222 85 "/>
</g>
</svg>
