<?xml version="1.0" encoding="UTF-8"?>
<svg xmlns="http://www.w3.org/2000/svg" xmlns:xlink="http://www.w3.org/1999/xlink" width="1179pt" height="517pt" viewBox="0 0 1179 517" version="1.1">
<g id="surface876">
<rect x="0" y="0" width="1179" height="517" style="fill:rgb(90%,90%,90%);fill-opacity:1;stroke:none;"/>
<path style="fill-rule:nonzero;fill:rgb(100%,51%,0%);fill-opacity:1;stroke-width:1;stroke-linecap:butt;stroke-linejoin:miter;stroke:rgb(0%,0%,0%);stroke-opacity:1;stroke-miterlimit:10;" d="M 105.214844 252 C 105.214844 263.714844 95.714844 273.214844 84 273.214844 C 72.285156 273.214844 62.785156 263.714844 62.785156 252 C 62.785156 240.285156 72.285156 230.785156 84 230.785156 C 95.714844 230.785156 105.214844 240.285156 105.214844 252 "/>
<path style="fill-rule:nonzero;fill:rgb(100%,51%,0%);fill-opacity:1;stroke-width:1;stroke-linecap:butt;stroke-linejoin:miter;stroke:rgb(0%,0%,0%);stroke-opacity:1;stroke-miterlimit:10;" d="M 274.214844 405 C 274.214844 416.714844 264.714844 426.214844 253 426.214844 C 241.285156 426.214844 231.785156 416.714844 231.785156 405 C 231.785156 393.285156 241.285156 383.785156 253 383.785156 C 264.714844 383.785156 274.214844 393.285156 274.214844 405 "/>
<path style="fill-rule:nonzero;fill:rgb(100%,51%,0%);fill-opacity:1;stroke-width:1;stroke-linecap:butt;stroke-linejoin:miter;stroke:rgb(0%,0%,0%);stroke-opacity:1;stroke-miterlimit:10;" d="M 750.214844 201 C 750.214844 212.714844 740.714844 222.214844 729 222.214844 C 717.285156 222.214844 707.785156 212.714844 707.785156 201 C 707.785156 189.285156 717.285156 179.785156 729 179.785156 C 740.714844 179.785156 750.214844 189.285156 750.214844 201 "/>
<path style="fill-rule:nonzero;fill:rgb(35%,70%,90%);fill-opacity:1;stroke-width:1;stroke-linecap:butt;stroke-linejoin:miter;stroke:rgb(0%,0%,0%);stroke-opacity:1;stroke-miterlimit:10;" d="M 959 186 L 988.664062 186 L 1000.664062 157.785156 L 1012.664062 186 L 1042.332031 186 L 1018.332031 203.4375 L 1026.417969 234.980469 L 1000.664062 217.542969 L 974.914062 234.980469 L 987.214844 203.4375 L 959 186 "/>
<path style="fill-rule:nonzero;fill:rgb(35%,70%,90%);fill-opacity:1;stroke-width:1;stroke-linecap:butt;stroke-linejoin:miter;stroke:rgb(0%,0%,0%);stroke-opacity:1;stroke-miterlimit:10;" d="M 882 354 L 911.664062 354 L 923.664062 325.785156 L 935.664062 354 L 965.332031 354 L 941.332031 371.4375 L 949.417969 402.980469 L 923.664062 385.542969 L 897.914062 402.980469 L 910.214844 371.4375 L 882 354 "/>
<path style="fill-rule:nonzero;fill:rgb(35%,70%,90%);fill-opacity:1;stroke-width:1;stroke-linecap:butt;stroke-linejoin:miter;stroke:rgb(0%,0%,0%);stroke-opacity:1;stroke-miterlimit:10;" d="M 706 426 L 735.664062 426 L 747.664062 397.785156 L 759.664062 426 L 789.332031 426 L 765.332031 443.4375 L 773.417969 474.980469 L 747.664062 457.542969 L 721.914062 474.980469 L 734.214844 443.4375 L 706 426 "/>
<path style="fill-rule:nonzero;fill:rgb(35%,70%,90%);fill-opacity:1;stroke-width:1;stroke-linecap:butt;stroke-linejoin:miter;stroke:rgb(0%,0%,0%);stroke-opacity:1;stroke-miterlimit:10;" d="M 378 346 L 407.664062 346 L 419.664062 317.785156 L 431.664062 346 L 461.332031 346 L 437.332031 363.4375 L 445.417969 394.980469 L 419.664062 377.542969 L 393.914062 394.980469 L 406.214844 363.4375 L 378 346 "/>
</g>
</svg>
