<?xml version="1.0" encoding="UTF-8"?>
<svg xmlns="http://www.w3.org/2000/svg" xmlns:xlink="http://www.w3.org/1999/xlink" width="1179pt" height="517pt" viewBox="0 0 1179 517" version="1.1">
<g id="surface1111">
<rect x="0" y="0" width="1179" height="517" style="fill:rgb(90%,90%,90%);fill-opacity:1;stroke:none;"/>
<path style="fill-rule:nonzero;fill:rgb(100%,51%,0%);fill-opacity:1;stroke-width:1;stroke-linecap:butt;stroke-linejoin:miter;stroke:rgb(0%,0%,0%);stroke-opacity:1;stroke-miterlimit:10;" d="M 522 134 L 551.664062 134 L 563.664062 105.785156 L 575.664062 134 L 605.332031 134 L 581.332031 151.4375 L 589.417969 182.980469 L 563.664062 165.542969 L 537.914062 182.980469 L 550.214844 151.4375 L 522 134 "/>
<path style="fill-rule:nonzero;fill:rgb(100%,51%,0%);fill-opacity:1;stroke-width:1;stroke-linecap:butt;stroke-linejoin:miter;stroke:rgb(0%,0%,0%);stroke-opacity:1;stroke-miterlimit:10;" d="M 383 427 L 412.664062 427 L 424.664062 398.785156 L 436.664062 427 L 466.332031 427 L 442.332031 444.4375 L 450.417969 475.980469 L 424.664062 458.542969 L 398.914062 475.980469 L 411.214844 444.4375 L 383 427 "/>
<path style="fill-rule:nonzero;fill:rgb(100%,51%,0%);fill-opacity:1;stroke-width:1;stroke-linecap:butt;stroke-linejoin:miter;stroke:rgb(0%,0%,0%);stroke-opacity:1;stroke-miterlimit:10;" d="M 392 102 L 421.664062 102 L 433.664062 73.785156 L 445.664062 102 L 475.332031 102 L 451.332031 119.4375 L 459.417969 150.980469 L 433.664062 133.542969 L 407.914062 150.980469 L 420.214844 119.4375 L 392 102 "/>
<path style="fill-rule:nonzero;fill:rgb(100%,51%,0%);fill-opacity:1;stroke-width:1;stroke-linecap:butt;stroke-linejoin:miter;stroke:rgb(0%,0%,0%);stroke-opacity:1;stroke-miterlimit:10;" d="M 468 281 L 497.664062 281 L 509.664062 252.785156 L 521.664062 281 L 551.332031 281 L 527.332031 298.4375 L 535.417969 329.980469 L 509.664062 312.542969 L 483.914062 329.980469 L 496.214844 298.4375 L 468 281 "/>
<path style="fill-rule:nonzero;fill:rgb(100%,51%,0%);fill-opacity:1;stroke-width:1;stroke-linecap:butt;stroke-linejoin:miter;stroke:rgb(0%,0%,0%);stroke-opacity:1;stroke-miterlimit:10;" d="M 212 242 L 241.664062 242 L 253.664062 213.785156 L 265.664062 242 L 295.332031 242 L 271.332031 259.4375 L 279.417969 290.980469 L 253.664062 273.542969 L 227.914062 290.980469 L 240.214844 259.4375 L 212 242 "/>
<path style="fill-rule:nonzero;fill:rgb(35%,70%,90%);fill-opacity:1;stroke-width:1;stroke-linecap:butt;stroke-linejoin:miter;stroke:rgb(0%,0%,0%);stroke-opacity:1;stroke-miterlimit:10;" d="M 644 227 L 618.019531 272 L 669.980469 272 L 644 227 "/>
<path style="fill-rule:nonzero;fill:rgb(35%,70%,90%);fill-opacity:1;stroke-width:1;stroke-linecap:butt;stroke-linejoin:miter;stroke:rgb(0%,0%,0%);stroke-opacity:1;stroke-miterlimit:10;" d="M 861 79 L 835.019531 124 L 886.980469 124 L 861 79 "/>
<path style="fill-rule:nonzero;fill:rgb(35%,70%,90%);fill-opacity:1;stroke-width:1;stroke-linecap:butt;stroke-linejoin:miter;stroke:rgb(0%,0%,0%);stroke-opacity:1;stroke-miterlimit:10;" d="M 336 211 L 310.019531 256 L 361.980469 256 L 336 211 "/>
</g>
</svg>
