<?xml version="1.0" encoding="UTF-8"?>
<svg xmlns="http://www.w3.org/2000/svg" xmlns:xlink="http://www.w3.org/1999/xlink" width="1179pt" height="517pt" viewBox="0 0 1179 517" version="1.1">
<g id="surface331">
<rect x="0" y="0" width="1179" height="517" style="fill:rgb(90%,90%,90%);fill-opacity:1;stroke:none;"/>
<path style="fill-rule:nonzero;fill:rgb(55%,51%,53%);fill-opacity:1;stroke-width:1;stroke-linecap:butt;stroke-linejoin:miter;stroke:rgb(0%,0%,0%);stroke-opacity:1;stroke-miterlimit:10;" d="M 131 149 L 160.664062 149 L 172.664062 120.785156 L 184.664062 149 L 214.332031 149 L 190.332031 166.4375 L 198.417969 197.980469 L 172.664062 180.542969 L 146.914062 197.980469 L 159.214844 166.4375 L 131 149 "/>
<path style="fill-rule:nonzero;fill:rgb(55%,51%,53%);fill-opacity:1;stroke-width:1;stroke-linecap:butt;stroke-linejoin:miter;stroke:rgb(0%,0%,0%);stroke-opacity:1;stroke-miterlimit:10;" d="M 297 326 L 326.664062 326 L 338.664062 297.785156 L 350.664062 326 L 380.332031 326 L 356.332031 343.4375 L 364.417969 374.980469 L 338.664062 357.542969 L 312.914062 374.980469 L 325.214844 343.4375 L 297 326 "/>
<path style="fill-rule:nonzero;fill:rgb(53%,27%,7%);fill-opacity:1;stroke-width:1;stroke-linecap:butt;stroke-linejoin:miter;stroke:rgb(0%,0%,0%);stroke-opacity:1;stroke-miterlimit:10;" d="M 367.214844 215 C 367.214844 226.714844 357.714844 236.214844 346 236.214844 C 334.285156 236.214844 324.785156 226.714844 324.785156 215 C 324.785156 203.285156 334.285156 193.785156 346 193.785156 C 357.714844 193.785156 367.214844 203.285156 367.214844 215 "/>
<path style="fill-rule:nonzero;fill:rgb(55%,51%,53%);fill-opacity:1;stroke-width:1;stroke-linecap:butt;stroke-linejoin:miter;stroke:rgb(0%,0%,0%);stroke-opacity:1;stroke-miterlimit:10;" d="M 247 427 L 276.664062 427 L 288.664062 398.785156 L 300.664062 427 L 330.332031 427 L 306.332031 444.4375 L 314.417969 475.980469 L 288.664062 458.542969 L 262.914062 475.980469 L 275.214844 444.4375 L 247 427 "/>
<path style="fill-rule:nonzero;fill:rgb(55%,51%,53%);fill-opacity:1;stroke-width:1;stroke-linecap:butt;stroke-linejoin:miter;stroke:rgb(0%,0%,0%);stroke-opacity:1;stroke-miterlimit:10;" d="M 426 140 L 455.664062 140 L 467.664062 111.785156 L 479.664062 140 L 509.332031 140 L 485.332031 157.4375 L 493.417969 188.980469 L 467.664062 171.542969 L 441.914062 188.980469 L 454.214844 157.4375 L 426 140 "/>
<path style="fill-rule:nonzero;fill:rgb(53%,27%,7%);fill-opacity:1;stroke-width:1;stroke-linecap:butt;stroke-linejoin:miter;stroke:rgb(0%,0%,0%);stroke-opacity:1;stroke-miterlimit:10;" d="M 936.214844 93 C 936.214844 104.714844 926.714844 114.214844 915 114.214844 C 903.285156 114.214844 893.785156 104.714844 893.785156 93 C 893.785156 81.285156 903.285156 71.785156 915 71.785156 C 926.714844 71.785156 936.214844 81.285156 936.214844 93 "/>
<path style="fill-rule:nonzero;fill:rgb(53%,27%,7%);fill-opacity:1;stroke-width:1;stroke-linecap:butt;stroke-linejoin:miter;stroke:rgb(0%,0%,0%);stroke-opacity:1;stroke-miterlimit:10;" d="M 800.214844 198 C 800.214844 209.714844 790.714844 219.214844 779 219.214844 C 767.285156 219.214844 757.785156 209.714844 757.785156 198 C 757.785156 186.285156 767.285156 176.785156 779 176.785156 C 790.714844 176.785156 800.214844 186.285156 800.214844 198 "/>
<path style="fill-rule:nonzero;fill:rgb(55%,51%,53%);fill-opacity:1;stroke-width:1;stroke-linecap:butt;stroke-linejoin:miter;stroke:rgb(0%,0%,0%);stroke-opacity:1;stroke-miterlimit:10;" d="M 1032 344 L 1061.664062 344 L 1073.664062 315.785156 L 1085.664062 344 L 1115.332031 344 L 1091.332031 361.4375 L 1099.417969 392.980469 L 1073.664062 375.542969 L 1047.914062 392.980469 L 1060.214844 361.4375 L 1032 344 "/>
<path style="fill-rule:nonzero;fill:rgb(55%,51%,53%);fill-opacity:1;stroke-width:1;stroke-linecap:butt;stroke-linejoin:miter;stroke:rgb(0%,0%,0%);stroke-opacity:1;stroke-miterlimit:10;" d="M 768 289 L 797.664062 289 L 809.664062 260.785156 L 821.664062 289 L 851.332031 289 L 827.332031 306.4375 L 835.417969 337.980469 L 809.664062 320.542969 L 783.914062 337.980469 L 796.214844 306.4375 L 768 289 "/>
<path style="fill-rule:nonzero;fill:rgb(53%,27%,7%);fill-opacity:1;stroke-width:1;stroke-linecap:butt;stroke-linejoin:miter;stroke:rgb(0%,0%,0%);stroke-opacity:1;stroke-miterlimit:10;" d="M 976.214844 393 C 976.214844 404.714844 966.714844 414.214844 955 414.214844 C 943.285156 414.214844 933.785156 404.714844 933.785156 393 C 933.785156 381.285156 943.285156 371.785156 955 371.785156 C 966.714844 371.785156 976.214844 381.285156 976.214844 393 "/>
<path style="fill-rule:nonzero;fill:rgb(55%,51%,53%);fill-opacity:1;stroke-width:1;stroke-linecap:butt;stroke-linejoin:miter;stroke:rgb(0%,0%,0%);stroke-opacity:1;stroke-miterlimit:10;" d="M 1011 99 L 1040.664062 99 L 1052.664062 70.785156 L 1064.664062 99 L 1094.332031 99 L 1070.332031 116.4375 L 1078.417969 147.980469 L 1052.664062 130.542969 L 1026.914062 147.980469 L 1039.214844 116.4375 L 1011 99 "/>
<path style="fill-rule:nonzero;fill:rgb(53%,27%,7%);fill-opacity:1;stroke-width:1;stroke-linecap:butt;stroke-linejoin:miter;stroke:rgb(0%,0%,0%);stroke-opacity:1;stroke-miterlimit:10;" d="M 925.214844 271 C 925.214844 282.714844 915.714844 292.214844 904 292.214844 C 892.285156 292.214844 882.785156 282.714844 882.785156 271 C 882.785156 259.285156 892.285156 249.785156 904 249.785156 C 915.714844 249.785156 925.214844 259.285156 925.214844 271 "/>
</g>
</svg>
