<?xml version="1.0" encoding="UTF-8"?>
<svg xmlns="http://www.w3.org/2000/svg" xmlns:xlink="http://www.w3.org/1999/xlink" width="1179pt" height="517pt" viewBox="0 0 1179 517" version="1.1">
<g id="surface1306">
<rect x="0" y="0" width="1179" height="517" style="fill:rgb(90%,90%,90%);fill-opacity:1;stroke:none;"/>
<path style="fill-rule:nonzero;fill:rgb(35%,70%,90%);fill-opacity:1;stroke-width:1;stroke-linecap:butt;stroke-linejoin:miter;stroke:rgb(0%,0%,0%);stroke-opacity:1;stroke-miterlimit:10;" d="M 844 261.601562 C 844 247.199219 820 247.199219 820 261.601562 C 820 276 844 278.398438 844 290.398438 C 844 278.398438 868 276 868 261.601562 C 868 247.199219 844 247.199219 844 261.601562 "/>
<path style="fill-rule:nonzero;fill:rgb(35%,70%,90%);fill-opacity:1;stroke-width:1;stroke-linecap:butt;stroke-linejoin:miter;stroke:rgb(0%,0%,0%);stroke-opacity:1;stroke-miterlimit:10;" d="M 195 269.601562 C 195 255.199219 171 255.199219 171 269.601562 C 171 284 195 286.398438 195 298.398438 C 195 286.398438 219 284 219 269.601562 C 219 255.199219 195 255.199219 195 269.601562 "/>
<path style="fill-rule:nonzero;fill:rgb(35%,70%,90%);fill-opacity:1;stroke-width:1;stroke-linecap:butt;stroke-linejoin:miter;stroke:rgb(0%,0%,0%);stroke-opacity:1;stroke-miterlimit:10;" d="M 279 115.601562 C 279 101.199219 255 101.199219 255 115.601562 C 255 130 279 132.398438 279 144.398438 C 279 132.398438 303 130 303 115.601562 C 303 101.199219 279 101.199219 279 115.601562 "/>
<path style="fill-rule:nonzero;fill:rgb(35%,70%,90%);fill-opacity:1;stroke-width:1;stroke-linecap:butt;stroke-linejoin:miter;stroke:rgb(0%,0%,0%);stroke-opacity:1;stroke-miterlimit:10;" d="M 1020 154.601562 C 1020 140.199219 996 140.199219 996 154.601562 C 996 169 1020 171.398438 1020 183.398438 C 1020 171.398438 1044 169 1044 154.601562 C 1044 140.199219 1020 140.199219 1020 154.601562 "/>
<path style="fill-rule:nonzero;fill:rgb(35%,70%,90%);fill-opacity:1;stroke-width:1;stroke-linecap:butt;stroke-linejoin:miter;stroke:rgb(0%,0%,0%);stroke-opacity:1;stroke-miterlimit:10;" d="M 715 316.601562 C 715 302.199219 691 302.199219 691 316.601562 C 691 331 715 333.398438 715 345.398438 C 715 333.398438 739 331 739 316.601562 C 739 302.199219 715 302.199219 715 316.601562 "/>
<path style="fill-rule:nonzero;fill:rgb(53%,27%,7%);fill-opacity:1;stroke-width:1;stroke-linecap:butt;stroke-linejoin:miter;stroke:rgb(0%,0%,0%);stroke-opacity:1;stroke-miterlimit:10;" d="M 436.214844 188 C 436.214844 199.714844 426.714844 209.214844 415 209.214844 C 403.285156 209.214844 393.785156 199.714844 393.785156 188 C 393.785156 176.285156 403.285156 166.785156 415 166.785156 C 426.714844 166.785156 436.214844 176.285156 436.214844 188 "/>
<path style="fill-rule:nonzero;fill:rgb(53%,27%,7%);fill-opacity:1;stroke-width:1;stroke-linecap:butt;stroke-linejoin:miter;stroke:rgb(0%,0%,0%);stroke-opacity:1;stroke-miterlimit:10;" d="M 879.214844 432 C 879.214844 443.714844 869.714844 453.214844 858 453.214844 C 846.285156 453.214844 836.785156 443.714844 836.785156 432 C 836.785156 420.285156 846.285156 410.785156 858 410.785156 C 869.714844 410.785156 879.214844 420.285156 879.214844 432 "/>
<path style="fill-rule:nonzero;fill:rgb(53%,27%,7%);fill-opacity:1;stroke-width:1;stroke-linecap:butt;stroke-linejoin:miter;stroke:rgb(0%,0%,0%);stroke-opacity:1;stroke-miterlimit:10;" d="M 897.214844 126 C 897.214844 137.714844 887.714844 147.214844 876 147.214844 C 864.285156 147.214844 854.785156 137.714844 854.785156 126 C 854.785156 114.285156 864.285156 104.785156 876 104.785156 C 887.714844 104.785156 897.214844 114.285156 897.214844 126 "/>
</g>
</svg>
