<?xml version="1.0" encoding="UTF-8"?>
<svg xmlns="http://www.w3.org/2000/svg" xmlns:xlink="http://www.w3.org/1999/xlink" width="1179pt" height="517pt" viewBox="0 0 1179 517" version="1.1">
<g id="surface1521">
<rect x="0" y="0" width="1179" height="517" style="fill:rgb(90%,90%,90%);fill-opacity:1;stroke:none;"/>
<path style="fill-rule:nonzero;fill:rgb(55%,51%,53%);fill-opacity:1;stroke-width:1;stroke-linecap:butt;stroke-linejoin:miter;stroke:rgb(0%,0%,0%);stroke-opacity:1;stroke-miterlimit:10;" d="M 954 318 L 983.664062 318 L 995.664062 289.785156 L 1007.664062 318 L 1037.332031 318 L 1013.332031 335.4375 L 1021.417969 366.980469 L 995.664062 349.542969 L 969.914062 366.980469 L 982.214844 335.4375 L 954 318 "/>
<path style="fill-rule:nonzero;fill:rgb(55%,51%,53%);fill-opacity:1;stroke-width:1;stroke-linecap:butt;stroke-linejoin:miter;stroke:rgb(0%,0%,0%);stroke-opacity:1;stroke-miterlimit:10;" d="M 426 265 L 455.664062 265 L 467.664062 236.785156 L 479.664062 265 L 509.332031 265 L 485.332031 282.4375 L 493.417969 313.980469 L 467.664062 296.542969 L 441.914062 313.980469 L 454.214844 282.4375 L 426 265 "/>
<path style="fill-rule:nonzero;fill:rgb(55%,51%,53%);fill-opacity:1;stroke-width:1;stroke-linecap:butt;stroke-linejoin:miter;stroke:rgb(0%,0%,0%);stroke-opacity:1;stroke-miterlimit:10;" d="M 719 369 L 748.664062 369 L 760.664062 340.785156 L 772.664062 369 L 802.332031 369 L 778.332031 386.4375 L 786.417969 417.980469 L 760.664062 400.542969 L 734.914062 417.980469 L 747.214844 386.4375 L 719 369 "/>
<path style="fill-rule:nonzero;fill:rgb(55%,51%,53%);fill-opacity:1;stroke-width:1;stroke-linecap:butt;stroke-linejoin:miter;stroke:rgb(0%,0%,0%);stroke-opacity:1;stroke-miterlimit:10;" d="M 431 423 L 460.664062 423 L 472.664062 394.785156 L 484.664062 423 L 514.332031 423 L 490.332031 440.4375 L 498.417969 471.980469 L 472.664062 454.542969 L 446.914062 471.980469 L 459.214844 440.4375 L 431 423 "/>
<path style="fill-rule:nonzero;fill:rgb(100%,51%,0%);fill-opacity:1;stroke-width:1;stroke-linecap:butt;stroke-linejoin:miter;stroke:rgb(0%,0%,0%);stroke-opacity:1;stroke-miterlimit:10;" d="M 1040.214844 84 C 1040.214844 95.714844 1030.714844 105.214844 1019 105.214844 C 1007.285156 105.214844 997.785156 95.714844 997.785156 84 C 997.785156 72.285156 1007.285156 62.785156 1019 62.785156 C 1030.714844 62.785156 1040.214844 72.285156 1040.214844 84 "/>
<path style="fill-rule:nonzero;fill:rgb(100%,51%,0%);fill-opacity:1;stroke-width:1;stroke-linecap:butt;stroke-linejoin:miter;stroke:rgb(0%,0%,0%);stroke-opacity:1;stroke-miterlimit:10;" d="M 289.214844 104 C 289.214844 115.714844 279.714844 125.214844 268 125.214844 C 256.285156 125.214844 246.785156 115.714844 246.785156 104 C 246.785156 92.285156 256.285156 82.785156 268 82.785156 C 279.714844 82.785156 289.214844 92.285156 289.214844 104 "/>
<path style="fill-rule:nonzero;fill:rgb(100%,51%,0%);fill-opacity:1;stroke-width:1;stroke-linecap:butt;stroke-linejoin:miter;stroke:rgb(0%,0%,0%);stroke-opacity:1;stroke-miterlimit:10;" d="M 629.214844 310 C 629.214844 321.714844 619.714844 331.214844 608 331.214844 C 596.285156 331.214844 586.785156 321.714844 586.785156 310 C 586.785156 298.285156 596.285156 288.785156 608 288.785156 C 619.714844 288.785156 629.214844 298.285156 629.214844 310 "/>
<path style="fill-rule:nonzero;fill:rgb(100%,51%,0%);fill-opacity:1;stroke-width:1;stroke-linecap:butt;stroke-linejoin:miter;stroke:rgb(0%,0%,0%);stroke-opacity:1;stroke-miterlimit:10;" d="M 238.214844 353 C 238.214844 364.714844 228.714844 374.214844 217 374.214844 C 205.285156 374.214844 195.785156 364.714844 195.785156 353 C 195.785156 341.285156 205.285156 331.785156 217 331.785156 C 228.714844 331.785156 238.214844 341.285156 238.214844 353 "/>
<path style="fill-rule:nonzero;fill:rgb(100%,51%,0%);fill-opacity:1;stroke-width:1;stroke-linecap:butt;stroke-linejoin:miter;stroke:rgb(0%,0%,0%);stroke-opacity:1;stroke-miterlimit:10;" d="M 596.214844 123 C 596.214844 134.714844 586.714844 144.214844 575 144.214844 C 563.285156 144.214844 553.785156 134.714844 553.785156 123 C 553.785156 111.285156 563.285156 101.785156 575 101.785156 C 586.714844 101.785156 596.214844 111.285156 596.214844 123 "/>
</g>
</svg>
