<?xml version="1.0" encoding="UTF-8"?>
<svg xmlns="http://www.w3.org/2000/svg" xmlns:xlink="http://www.w3.org/1999/xlink" width="1179pt" height="517pt" viewBox="0 0 1179 517" version="1.1">
<g id="surface431">
<rect x="0" y="0" width="1179" height="517" style="fill:rgb(90%,90%,90%);fill-opacity:1;stroke:none;"/>
<path style="fill-rule:nonzero;fill:rgb(35%,70%,90%);fill-opacity:1;stroke-width:1;stroke-linecap:butt;stroke-linejoin:miter;stroke:rgb(0%,0%,0%);stroke-opacity:1;stroke-miterlimit:10;" d="M 178 321 L 207.664062 321 L 219.664062 292.785156 L 231.664062 321 L 261.332031 321 L 237.332031 338.4375 L 245.417969 369.980469 L 219.664062 352.542969 L 193.914062 369.980469 L 206.214844 338.4375 L 178 321 "/>
<path style="fill-rule:nonzero;fill:rgb(35%,70%,90%);fill-opacity:1;stroke-width:1;stroke-linecap:butt;stroke-linejoin:miter;stroke:rgb(0%,0%,0%);stroke-opacity:1;stroke-miterlimit:10;" d="M 196 131 L 225.664062 131 L 237.664062 102.785156 L 249.664062 131 L 279.332031 131 L 255.332031 148.4375 L 263.417969 179.980469 L 237.664062 162.542969 L 211.914062 179.980469 L 224.214844 148.4375 L 196 131 "/>
<path style="fill-rule:nonzero;fill:rgb(35%,70%,90%);fill-opacity:1;stroke-width:1;stroke-linecap:butt;stroke-linejoin:miter;stroke:rgb(0%,0%,0%);stroke-opacity:1;stroke-miterlimit:10;" d="M 315.785156 222.785156 L 315.785156 265.214844 L 358.214844 265.214844 L 358.214844 222.785156 L 315.785156 222.785156 "/>
<path style="fill-rule:nonzero;fill:rgb(55%,51%,53%);fill-opacity:1;stroke-width:1;stroke-linecap:butt;stroke-linejoin:miter;stroke:rgb(0%,0%,0%);stroke-opacity:1;stroke-miterlimit:10;" d="M 917.785156 340.785156 L 917.785156 383.214844 L 960.214844 383.214844 L 960.214844 340.785156 L 917.785156 340.785156 "/>
<path style="fill-rule:nonzero;fill:rgb(55%,51%,53%);fill-opacity:1;stroke-width:1;stroke-linecap:butt;stroke-linejoin:miter;stroke:rgb(0%,0%,0%);stroke-opacity:1;stroke-miterlimit:10;" d="M 873.785156 60.785156 L 873.785156 103.214844 L 916.214844 103.214844 L 916.214844 60.785156 L 873.785156 60.785156 "/>
<path style="fill-rule:nonzero;fill:rgb(55%,51%,53%);fill-opacity:1;stroke-width:1;stroke-linecap:butt;stroke-linejoin:miter;stroke:rgb(0%,0%,0%);stroke-opacity:1;stroke-miterlimit:10;" d="M 858 256 L 887.664062 256 L 899.664062 227.785156 L 911.664062 256 L 941.332031 256 L 917.332031 273.4375 L 925.417969 304.980469 L 899.664062 287.542969 L 873.914062 304.980469 L 886.214844 273.4375 L 858 256 "/>
</g>
</svg>
