<?xml version="1.0" encoding="UTF-8"?>
<svg xmlns="http://www.w3.org/2000/svg" xmlns:xlink="http://www.w3.org/1999/xlink" width="1179pt" height="517pt" viewBox="0 0 1179 517" version="1.1">
<g id="surface501">
<rect x="0" y="0" width="1179" height="517" style="fill:rgb(90%,90%,90%);fill-opacity:1;stroke:none;"/>
<path style="fill-rule:nonzero;fill:rgb(100%,51%,0%);fill-opacity:1;stroke-width:1;stroke-linecap:butt;stroke-linejoin:miter;stroke:rgb(0%,0%,0%);stroke-opacity:1;stroke-miterlimit:10;" d="M 319.214844 225 C 319.214844 236.714844 309.714844 246.214844 298 246.214844 C 286.285156 246.214844 276.785156 236.714844 276.785156 225 C 276.785156 213.285156 286.285156 203.785156 298 203.785156 C 309.714844 203.785156 319.214844 213.285156 319.214844 225 "/>
<path style="fill-rule:nonzero;fill:rgb(55%,51%,53%);fill-opacity:1;stroke-width:1;stroke-linecap:butt;stroke-linejoin:miter;stroke:rgb(0%,0%,0%);stroke-opacity:1;stroke-miterlimit:10;" d="M 269.214844 382 C 269.214844 393.714844 259.714844 403.214844 248 403.214844 C 236.285156 403.214844 226.785156 393.714844 226.785156 382 C 226.785156 370.285156 236.285156 360.785156 248 360.785156 C 259.714844 360.785156 269.214844 370.285156 269.214844 382 "/>
<path style="fill-rule:nonzero;fill:rgb(100%,51%,0%);fill-opacity:1;stroke-width:1;stroke-linecap:butt;stroke-linejoin:miter;stroke:rgb(0%,0%,0%);stroke-opacity:1;stroke-miterlimit:10;" d="M 118.214844 259 C 118.214844 270.714844 108.714844 280.214844 97 280.214844 C 85.285156 280.214844 75.785156 270.714844 75.785156 259 C 75.785156 247.285156 85.285156 237.785156 97 237.785156 C 108.714844 237.785156 118.214844 247.285156 118.214844 259 "/>
<path style="fill-rule:nonzero;fill:rgb(55%,51%,53%);fill-opacity:1;stroke-width:1;stroke-linecap:butt;stroke-linejoin:miter;stroke:rgb(0%,0%,0%);stroke-opacity:1;stroke-miterlimit:10;" d="M 765.785156 296.785156 L 765.785156 339.214844 L 808.214844 339.214844 L 808.214844 296.785156 L 765.785156 296.785156 "/>
<path style="fill-rule:nonzero;fill:rgb(100%,51%,0%);fill-opacity:1;stroke-width:1;stroke-linecap:butt;stroke-linejoin:miter;stroke:rgb(0%,0%,0%);stroke-opacity:1;stroke-miterlimit:10;" d="M 877.785156 317.785156 L 877.785156 360.214844 L 920.214844 360.214844 L 920.214844 317.785156 L 877.785156 317.785156 "/>
<path style="fill-rule:nonzero;fill:rgb(55%,51%,53%);fill-opacity:1;stroke-width:1;stroke-linecap:butt;stroke-linejoin:miter;stroke:rgb(0%,0%,0%);stroke-opacity:1;stroke-miterlimit:10;" d="M 683.785156 105.785156 L 683.785156 148.214844 L 726.214844 148.214844 L 726.214844 105.785156 L 683.785156 105.785156 "/>
<path style="fill-rule:nonzero;fill:rgb(55%,51%,53%);fill-opacity:1;stroke-width:1;stroke-linecap:butt;stroke-linejoin:miter;stroke:rgb(0%,0%,0%);stroke-opacity:1;stroke-miterlimit:10;" d="M 787.785156 136.785156 L 787.785156 179.214844 L 830.214844 179.214844 L 830.214844 136.785156 L 787.785156 136.785156 "/>
<path style="fill-rule:nonzero;fill:rgb(55%,51%,53%);fill-opacity:1;stroke-width:1;stroke-linecap:butt;stroke-linejoin:miter;stroke:rgb(0%,0%,0%);stroke-opacity:1;stroke-miterlimit:10;" d="M 1007.785156 299.785156 L 1007.785156 342.214844 L 1050.214844 342.214844 L 1050.214844 299.785156 L 1007.785156 299.785156 "/>
</g>
</svg>
