<?xml version="1.0" encoding="UTF-8"?>
<svg xmlns="http://www.w3.org/2000/svg" xmlns:xlink="http://www.w3.org/1999/xlink" width="1179pt" height="517pt" viewBox="0 0 1179 517" version="1.1">
<g id="surface846">
<rect x="0" y="0" width="1179" height="517" style="fill:rgb(90%,90%,90%);fill-opacity:1;stroke:none;"/>
<path style="fill-rule:nonzero;fill:rgb(100%,0%,0%);fill-opacity:1;stroke-width:1;stroke-linecap:butt;stroke-linejoin:miter;stroke:rgb(0%,0%,0%);stroke-opacity:1;stroke-miterlimit:10;" d="M 464 113.601562 C 464 99.199219 440 99.199219 440 113.601562 C 440 128 464 130.398438 464 142.398438 C 464 130.398438 488 128 488 113.601562 C 488 99.199219 464 99.199219 464 113.601562 "/>
<path style="fill-rule:nonzero;fill:rgb(100%,0%,0%);fill-opacity:1;stroke-width:1;stroke-linecap:butt;stroke-linejoin:miter;stroke:rgb(0%,0%,0%);stroke-opacity:1;stroke-miterlimit:10;" d="M 756 146.601562 C 756 132.199219 732 132.199219 732 146.601562 C 732 161 756 163.398438 756 175.398438 C 756 163.398438 780 161 780 146.601562 C 780 132.199219 756 132.199219 756 146.601562 "/>
<path style="fill-rule:nonzero;fill:rgb(100%,0%,0%);fill-opacity:1;stroke-width:1;stroke-linecap:butt;stroke-linejoin:miter;stroke:rgb(0%,0%,0%);stroke-opacity:1;stroke-miterlimit:10;" d="M 371 315.601562 C 371 301.199219 347 301.199219 347 315.601562 C 347 330 371 332.398438 371 344.398438 C 371 332.398438 395 330 395 315.601562 C 395 301.199219 371 301.199219 371 315.601562 "/>
<path style="fill-rule:nonzero;fill:rgb(0%,0%,0%);fill-opacity:1;stroke-width:1;stroke-linecap:butt;stroke-linejoin:miter;stroke:rgb(0%,0%,0%);stroke-opacity:1;stroke-miterlimit:10;" d="M 913 410 L 893 410 L 893 420 L 913 420 L 913 440 L 923 440 L 923 420 L 943 420 L 943 410 L 923 410 L 923 390 L 913 390 L 913 410 "/>
<path style="fill-rule:nonzero;fill:rgb(0%,0%,0%);fill-opacity:1;stroke-width:1;stroke-linecap:butt;stroke-linejoin:miter;stroke:rgb(0%,0%,0%);stroke-opacity:1;stroke-miterlimit:10;" d="M 912 267 L 892 267 L 892 277 L 912 277 L 912 297 L 922 297 L 922 277 L 942 277 L 942 267 L 922 267 L 922 247 L 912 247 L 912 267 "/>
<path style="fill-rule:nonzero;fill:rgb(0%,0%,0%);fill-opacity:1;stroke-width:1;stroke-linecap:butt;stroke-linejoin:miter;stroke:rgb(0%,0%,0%);stroke-opacity:1;stroke-miterlimit:10;" d="M 500 422 L 480 422 L 480 432 L 500 432 L 500 452 L 510 452 L 510 432 L 530 432 L 530 422 L 510 422 L 510 402 L 500 402 L 500 422 "/>
</g>
</svg>
