<?xml version="1.0" encoding="UTF-8"?>
<svg xmlns="http://www.w3.org/2000/svg" xmlns:xlink="http://www.w3.org/1999/xlink" width="1179pt" height="517pt" viewBox="0 0 1179 517" version="1.1">
<g id="surface721">
<rect x="0" y="0" width="1179" height="517" style="fill:rgb(90%,90%,90%);fill-opacity:1;stroke:none;"/>
<path style="fill-rule:nonzero;fill:rgb(53%,27%,7%);fill-opacity:1;stroke-width:1;stroke-linecap:butt;stroke-linejoin:miter;stroke:rgb(0%,0%,0%);stroke-opacity:1;stroke-miterlimit:10;" d="M 203 327.601562 C 203 313.199219 179 313.199219 179 327.601562 C 179 342 203 344.398438 203 356.398438 C 203 344.398438 227 342 227 327.601562 C 227 313.199219 203 313.199219 203 327.601562 "/>
<path style="fill-rule:nonzero;fill:rgb(53%,27%,7%);fill-opacity:1;stroke-width:1;stroke-linecap:butt;stroke-linejoin:miter;stroke:rgb(0%,0%,0%);stroke-opacity:1;stroke-miterlimit:10;" d="M 700 395.601562 C 700 381.199219 676 381.199219 676 395.601562 C 676 410 700 412.398438 700 424.398438 C 700 412.398438 724 410 724 395.601562 C 724 381.199219 700 381.199219 700 395.601562 "/>
<path style="fill-rule:nonzero;fill:rgb(53%,27%,7%);fill-opacity:1;stroke-width:1;stroke-linecap:butt;stroke-linejoin:miter;stroke:rgb(0%,0%,0%);stroke-opacity:1;stroke-miterlimit:10;" d="M 138 73.601562 C 138 59.199219 114 59.199219 114 73.601562 C 114 88 138 90.398438 138 102.398438 C 138 90.398438 162 88 162 73.601562 C 162 59.199219 138 59.199219 138 73.601562 "/>
<path style="fill-rule:nonzero;fill:rgb(53%,27%,7%);fill-opacity:1;stroke-width:1;stroke-linecap:butt;stroke-linejoin:miter;stroke:rgb(0%,0%,0%);stroke-opacity:1;stroke-miterlimit:10;" d="M 106 235.601562 C 106 221.199219 82 221.199219 82 235.601562 C 82 250 106 252.398438 106 264.398438 C 106 252.398438 130 250 130 235.601562 C 130 221.199219 106 221.199219 106 235.601562 "/>
<path style="fill-rule:nonzero;fill:rgb(53%,27%,7%);fill-opacity:1;stroke-width:1;stroke-linecap:butt;stroke-linejoin:miter;stroke:rgb(0%,0%,0%);stroke-opacity:1;stroke-miterlimit:10;" d="M 978 94.601562 C 978 80.199219 954 80.199219 954 94.601562 C 954 109 978 111.398438 978 123.398438 C 978 111.398438 1002 109 1002 94.601562 C 1002 80.199219 978 80.199219 978 94.601562 "/>
<path style="fill-rule:nonzero;fill:rgb(100%,51%,0%);fill-opacity:1;stroke-width:1;stroke-linecap:butt;stroke-linejoin:miter;stroke:rgb(0%,0%,0%);stroke-opacity:1;stroke-miterlimit:10;" d="M 427.214844 171 C 427.214844 182.714844 417.714844 192.214844 406 192.214844 C 394.285156 192.214844 384.785156 182.714844 384.785156 171 C 384.785156 159.285156 394.285156 149.785156 406 149.785156 C 417.714844 149.785156 427.214844 159.285156 427.214844 171 "/>
<path style="fill-rule:nonzero;fill:rgb(100%,51%,0%);fill-opacity:1;stroke-width:1;stroke-linecap:butt;stroke-linejoin:miter;stroke:rgb(0%,0%,0%);stroke-opacity:1;stroke-miterlimit:10;" d="M 872.214844 407 C 872.214844 418.714844 862.714844 428.214844 851 428.214844 C 839.285156 428.214844 829.785156 418.714844 829.785156 407 C 829.785156 395.285156 839.285156 385.785156 851 385.785156 C 862.714844 385.785156 872.214844 395.285156 872.214844 407 "/>
<path style="fill-rule:nonzero;fill:rgb(100%,51%,0%);fill-opacity:1;stroke-width:1;stroke-linecap:butt;stroke-linejoin:miter;stroke:rgb(0%,0%,0%);stroke-opacity:1;stroke-miterlimit:10;" d="M 305.214844 115 C 305.214844 126.714844 295.714844 136.214844 284 136.214844 C 272.285156 136.214844 262.785156 126.714844 262.785156 115 C 262.785156 103.285156 272.285156 93.785156 284 93.785156 C 295.714844 93.785156 305.214844 103.285156 305.214844 115 "/>
<path style="fill-rule:nonzero;fill:rgb(100%,51%,0%);fill-opacity:1;stroke-width:1;stroke-linecap:butt;stroke-linejoin:miter;stroke:rgb(0%,0%,0%);stroke-opacity:1;stroke-miterlimit:10;" d="M 781.214844 99 C 781.214844 110.714844 771.714844 120.214844 760 120.214844 C 748.285156 120.214844 738.785156 110.714844 738.785156 99 C 738.785156 87.285156 748.285156 77.785156 760 77.785156 C 771.714844 77.785156 781.214844 87.285156 781.214844 99 "/>
<path style="fill-rule:nonzero;fill:rgb(100%,51%,0%);fill-opacity:1;stroke-width:1;stroke-linecap:butt;stroke-linejoin:miter;stroke:rgb(0%,0%,0%);stroke-opacity:1;stroke-miterlimit:10;" d="M 631.214844 205 C 631.214844 216.714844 621.714844 226.214844 610 226.214844 C 598.285156 226.214844 588.785156 216.714844 588.785156 205 C 588.785156 193.285156 598.285156 183.785156 610 183.785156 C 621.714844 183.785156 631.214844 193.285156 631.214844 205 "/>
</g>
</svg>
