<?xml version="1.0" encoding="UTF-8"?>
<svg xmlns="http://www.w3.org/2000/svg" xmlns:xlink="http://www.w3.org/1999/xlink" width="1179pt" height="517pt" viewBox="0 0 1179 517" version="1.1">
<g id="surface361">
<rect x="0" y="0" width="1179" height="517" style="fill:rgb(90%,90%,90%);fill-opacity:1;stroke:none;"/>
<path style="fill-rule:nonzero;fill:rgb(35%,70%,90%);fill-opacity:1;stroke-width:1;stroke-linecap:butt;stroke-linejoin:miter;stroke:rgb(0%,0%,0%);stroke-opacity:1;stroke-miterlimit:10;" d="M 398 284 L 427.664062 284 L 439.664062 255.785156 L 451.664062 284 L 481.332031 284 L 457.332031 301.4375 L 465.417969 332.980469 L 439.664062 315.542969 L 413.914062 332.980469 L 426.214844 301.4375 L 398 284 "/>
<path style="fill-rule:nonzero;fill:rgb(35%,70%,90%);fill-opacity:1;stroke-width:1;stroke-linecap:butt;stroke-linejoin:miter;stroke:rgb(0%,0%,0%);stroke-opacity:1;stroke-miterlimit:10;" d="M 939 271 L 968.664062 271 L 980.664062 242.785156 L 992.664062 271 L 1022.332031 271 L 998.332031 288.4375 L 1006.417969 319.980469 L 980.664062 302.542969 L 954.914062 319.980469 L 967.214844 288.4375 L 939 271 "/>
<path style="fill-rule:nonzero;fill:rgb(35%,70%,90%);fill-opacity:1;stroke-width:1;stroke-linecap:butt;stroke-linejoin:miter;stroke:rgb(0%,0%,0%);stroke-opacity:1;stroke-miterlimit:10;" d="M 368 126 L 397.664062 126 L 409.664062 97.785156 L 421.664062 126 L 451.332031 126 L 427.332031 143.4375 L 435.417969 174.980469 L 409.664062 157.542969 L 383.914062 174.980469 L 396.214844 143.4375 L 368 126 "/>
<path style="fill-rule:nonzero;fill:rgb(35%,70%,90%);fill-opacity:1;stroke-width:1;stroke-linecap:butt;stroke-linejoin:miter;stroke:rgb(0%,0%,0%);stroke-opacity:1;stroke-miterlimit:10;" d="M 159 420 L 188.664062 420 L 200.664062 391.785156 L 212.664062 420 L 242.332031 420 L 218.332031 437.4375 L 226.417969 468.980469 L 200.664062 451.542969 L 174.914062 468.980469 L 187.214844 437.4375 L 159 420 "/>
<path style="fill-rule:nonzero;fill:rgb(100%,51%,0%);fill-opacity:1;stroke-width:1;stroke-linecap:butt;stroke-linejoin:miter;stroke:rgb(0%,0%,0%);stroke-opacity:1;stroke-miterlimit:10;" d="M 705.214844 229 C 705.214844 240.714844 695.714844 250.214844 684 250.214844 C 672.285156 250.214844 662.785156 240.714844 662.785156 229 C 662.785156 217.285156 672.285156 207.785156 684 207.785156 C 695.714844 207.785156 705.214844 217.285156 705.214844 229 "/>
<path style="fill-rule:nonzero;fill:rgb(100%,51%,0%);fill-opacity:1;stroke-width:1;stroke-linecap:butt;stroke-linejoin:miter;stroke:rgb(0%,0%,0%);stroke-opacity:1;stroke-miterlimit:10;" d="M 476.214844 432 C 476.214844 443.714844 466.714844 453.214844 455 453.214844 C 443.285156 453.214844 433.785156 443.714844 433.785156 432 C 433.785156 420.285156 443.285156 410.785156 455 410.785156 C 466.714844 410.785156 476.214844 420.285156 476.214844 432 "/>
<path style="fill-rule:nonzero;fill:rgb(100%,51%,0%);fill-opacity:1;stroke-width:1;stroke-linecap:butt;stroke-linejoin:miter;stroke:rgb(0%,0%,0%);stroke-opacity:1;stroke-miterlimit:10;" d="M 581.214844 136 C 581.214844 147.714844 571.714844 157.214844 560 157.214844 C 548.285156 157.214844 538.785156 147.714844 538.785156 136 C 538.785156 124.285156 548.285156 114.785156 560 114.785156 C 571.714844 114.785156 581.214844 124.285156 581.214844 136 "/>
</g>
</svg>
