<?xml version="1.0" encoding="UTF-8"?>
<svg xmlns="http://www.w3.org/2000/svg" xmlns:xlink="http://www.w3.org/1999/xlink" width="1179pt" height="517pt" viewBox="0 0 1179 517" version="1.1">
<g id="surface256">
<rect x="0" y="0" width="1179" height="517" style="fill:rgb(90%,90%,90%);fill-opacity:1;stroke:none;"/>
<path style="fill-rule:nonzero;fill:rgb(35%,70%,90%);fill-opacity:1;stroke-width:1;stroke-linecap:butt;stroke-linejoin:miter;stroke:rgb(0%,0%,0%);stroke-opacity:1;stroke-miterlimit:10;" d="M 265.214844 128 C 265.214844 139.714844 255.714844 149.214844 244 149.214844 C 232.285156 149.214844 222.785156 139.714844 222.785156 128 C 222.785156 116.285156 232.285156 106.785156 244 106.785156 C 255.714844 106.785156 265.214844 116.285156 265.214844 128 "/>
<path style="fill-rule:nonzero;fill:rgb(35%,70%,90%);fill-opacity:1;stroke-width:1;stroke-linecap:butt;stroke-linejoin:miter;stroke:rgb(0%,0%,0%);stroke-opacity:1;stroke-miterlimit:10;" d="M 293.214844 261 C 293.214844 272.714844 283.714844 282.214844 272 282.214844 C 260.285156 282.214844 250.785156 272.714844 250.785156 261 C 250.785156 249.285156 260.285156 239.785156 272 239.785156 C 283.714844 239.785156 293.214844 249.285156 293.214844 261 "/>
<path style="fill-rule:nonzero;fill:rgb(55%,51%,53%);fill-opacity:1;stroke-width:1;stroke-linecap:butt;stroke-linejoin:miter;stroke:rgb(0%,0%,0%);stroke-opacity:1;stroke-miterlimit:10;" d="M 370.214844 367 C 370.214844 378.714844 360.714844 388.214844 349 388.214844 C 337.285156 388.214844 327.785156 378.714844 327.785156 367 C 327.785156 355.285156 337.285156 345.785156 349 345.785156 C 360.714844 345.785156 370.214844 355.285156 370.214844 367 "/>
<path style="fill-rule:nonzero;fill:rgb(35%,70%,90%);fill-opacity:1;stroke-width:1;stroke-linecap:butt;stroke-linejoin:miter;stroke:rgb(0%,0%,0%);stroke-opacity:1;stroke-miterlimit:10;" d="M 254.214844 369 C 254.214844 380.714844 244.714844 390.214844 233 390.214844 C 221.285156 390.214844 211.785156 380.714844 211.785156 369 C 211.785156 357.285156 221.285156 347.785156 233 347.785156 C 244.714844 347.785156 254.214844 357.285156 254.214844 369 "/>
<path style="fill-rule:nonzero;fill:rgb(55%,51%,53%);fill-opacity:1;stroke-width:1;stroke-linecap:butt;stroke-linejoin:miter;stroke:rgb(0%,0%,0%);stroke-opacity:1;stroke-miterlimit:10;" d="M 1001 119 L 975.019531 164 L 1026.980469 164 L 1001 119 "/>
<path style="fill-rule:nonzero;fill:rgb(55%,51%,53%);fill-opacity:1;stroke-width:1;stroke-linecap:butt;stroke-linejoin:miter;stroke:rgb(0%,0%,0%);stroke-opacity:1;stroke-miterlimit:10;" d="M 699 365 L 673.019531 410 L 724.980469 410 L 699 365 "/>
<path style="fill-rule:nonzero;fill:rgb(35%,70%,90%);fill-opacity:1;stroke-width:1;stroke-linecap:butt;stroke-linejoin:miter;stroke:rgb(0%,0%,0%);stroke-opacity:1;stroke-miterlimit:10;" d="M 787 339 L 761.019531 384 L 812.980469 384 L 787 339 "/>
<path style="fill-rule:nonzero;fill:rgb(55%,51%,53%);fill-opacity:1;stroke-width:1;stroke-linecap:butt;stroke-linejoin:miter;stroke:rgb(0%,0%,0%);stroke-opacity:1;stroke-miterlimit:10;" d="M 937 191 L 911.019531 236 L 962.980469 236 L 937 191 "/>
<path style="fill-rule:nonzero;fill:rgb(55%,51%,53%);fill-opacity:1;stroke-width:1;stroke-linecap:butt;stroke-linejoin:miter;stroke:rgb(0%,0%,0%);stroke-opacity:1;stroke-miterlimit:10;" d="M 847 199 L 821.019531 244 L 872.980469 244 L 847 199 "/>
</g>
</svg>
