<?xml version="1.0" encoding="UTF-8"?>
<svg xmlns="http://www.w3.org/2000/svg" xmlns:xlink="http://www.w3.org/1999/xlink" width="1179pt" height="517pt" viewBox="0 0 1179 517" version="1.1">
<g id="surface71">
<rect x="0" y="0" width="1179" height="517" style="fill:rgb(90%,90%,90%);fill-opacity:1;stroke:none;"/>
<path style="fill-rule:nonzero;fill:rgb(35%,70%,90%);fill-opacity:1;stroke-width:1;stroke-linecap:butt;stroke-linejoin:miter;stroke:rgb(0%,0%,0%);stroke-opacity:1;stroke-miterlimit:10;" d="M 258 172 L 287.664062 172 L 299.664062 143.785156 L 311.664062 172 L 341.332031 172 L 317.332031 189.4375 L 325.417969 220.980469 L 299.664062 203.542969 L 273.914062 220.980469 L 286.214844 189.4375 L 258 172 "/>
<path style="fill-rule:nonzero;fill:rgb(35%,70%,90%);fill-opacity:1;stroke-width:1;stroke-linecap:butt;stroke-linejoin:miter;stroke:rgb(0%,0%,0%);stroke-opacity:1;stroke-miterlimit:10;" d="M 344 399 L 373.664062 399 L 385.664062 370.785156 L 397.664062 399 L 427.332031 399 L 403.332031 416.4375 L 411.417969 447.980469 L 385.664062 430.542969 L 359.914062 447.980469 L 372.214844 416.4375 L 344 399 "/>
<path style="fill-rule:nonzero;fill:rgb(35%,70%,90%);fill-opacity:1;stroke-width:1;stroke-linecap:butt;stroke-linejoin:miter;stroke:rgb(0%,0%,0%);stroke-opacity:1;stroke-miterlimit:10;" d="M 178.785156 256.785156 L 178.785156 299.214844 L 221.214844 299.214844 L 221.214844 256.785156 L 178.785156 256.785156 "/>
<path style="fill-rule:nonzero;fill:rgb(35%,70%,90%);fill-opacity:1;stroke-width:1;stroke-linecap:butt;stroke-linejoin:miter;stroke:rgb(0%,0%,0%);stroke-opacity:1;stroke-miterlimit:10;" d="M 126.785156 346.785156 L 126.785156 389.214844 L 169.214844 389.214844 L 169.214844 346.785156 L 126.785156 346.785156 "/>
<path style="fill-rule:nonzero;fill:rgb(35%,70%,90%);fill-opacity:1;stroke-width:1;stroke-linecap:butt;stroke-linejoin:miter;stroke:rgb(0%,0%,0%);stroke-opacity:1;stroke-miterlimit:10;" d="M 101 217 L 130.664062 217 L 142.664062 188.785156 L 154.664062 217 L 184.332031 217 L 160.332031 234.4375 L 168.417969 265.980469 L 142.664062 248.542969 L 116.914062 265.980469 L 129.214844 234.4375 L 101 217 "/>
<path style="fill-rule:nonzero;fill:rgb(55%,51%,53%);fill-opacity:1;stroke-width:1;stroke-linecap:butt;stroke-linejoin:miter;stroke:rgb(0%,0%,0%);stroke-opacity:1;stroke-miterlimit:10;" d="M 910.785156 275.785156 L 910.785156 318.214844 L 953.214844 318.214844 L 953.214844 275.785156 L 910.785156 275.785156 "/>
<path style="fill-rule:nonzero;fill:rgb(55%,51%,53%);fill-opacity:1;stroke-width:1;stroke-linecap:butt;stroke-linejoin:miter;stroke:rgb(0%,0%,0%);stroke-opacity:1;stroke-miterlimit:10;" d="M 1009.785156 246.785156 L 1009.785156 289.214844 L 1052.214844 289.214844 L 1052.214844 246.785156 L 1009.785156 246.785156 "/>
<path style="fill-rule:nonzero;fill:rgb(55%,51%,53%);fill-opacity:1;stroke-width:1;stroke-linecap:butt;stroke-linejoin:miter;stroke:rgb(0%,0%,0%);stroke-opacity:1;stroke-miterlimit:10;" d="M 755 332 L 784.664062 332 L 796.664062 303.785156 L 808.664062 332 L 838.332031 332 L 814.332031 349.4375 L 822.417969 380.980469 L 796.664062 363.542969 L 770.914062 380.980469 L 783.214844 349.4375 L 755 332 "/>
<path style="fill-rule:nonzero;fill:rgb(55%,51%,53%);fill-opacity:1;stroke-width:1;stroke-linecap:butt;stroke-linejoin:miter;stroke:rgb(0%,0%,0%);stroke-opacity:1;stroke-miterlimit:10;" d="M 895 205 L 924.664062 205 L 936.664062 176.785156 L 948.664062 205 L 978.332031 205 L 954.332031 222.4375 L 962.417969 253.980469 L 936.664062 236.542969 L 910.914062 253.980469 L 923.214844 222.4375 L 895 205 "/>
<path style="fill-rule:nonzero;fill:rgb(55%,51%,53%);fill-opacity:1;stroke-width:1;stroke-linecap:butt;stroke-linejoin:miter;stroke:rgb(0%,0%,0%);stroke-opacity:1;stroke-miterlimit:10;" d="M 970.785156 383.785156 L 970.785156 426.214844 L 1013.214844 426.214844 L 1013.214844 383.785156 L 970.785156 383.785156 "/>
</g>
</svg>
