<?xml version="1.0" encoding="UTF-8"?>
<svg xmlns="http://www.w3.org/2000/svg" xmlns:xlink="http://www.w3.org/1999/xlink" width="1179pt" height="517pt" viewBox="0 0 1179 517" version="1.1">
<g id="surface526">
<rect x="0" y="0" width="1179" height="517" style="fill:rgb(90%,90%,90%);fill-opacity:1;stroke:none;"/>
<path style="fill-rule:nonzero;fill:rgb(55%,51%,53%);fill-opacity:1;stroke-width:1;stroke-linecap:butt;stroke-linejoin:miter;stroke:rgb(0%,0%,0%);stroke-opacity:1;stroke-miterlimit:10;" d="M 407.214844 202 C 407.214844 213.714844 397.714844 223.214844 386 223.214844 C 374.285156 223.214844 364.785156 213.714844 364.785156 202 C 364.785156 190.285156 374.285156 180.785156 386 180.785156 C 397.714844 180.785156 407.214844 190.285156 407.214844 202 "/>
<path style="fill-rule:nonzero;fill:rgb(55%,51%,53%);fill-opacity:1;stroke-width:1;stroke-linecap:butt;stroke-linejoin:miter;stroke:rgb(0%,0%,0%);stroke-opacity:1;stroke-miterlimit:10;" d="M 314.214844 301 C 314.214844 312.714844 304.714844 322.214844 293 322.214844 C 281.285156 322.214844 271.785156 312.714844 271.785156 301 C 271.785156 289.285156 281.285156 279.785156 293 279.785156 C 304.714844 279.785156 314.214844 289.285156 314.214844 301 "/>
<path style="fill-rule:nonzero;fill:rgb(55%,51%,53%);fill-opacity:1;stroke-width:1;stroke-linecap:butt;stroke-linejoin:miter;stroke:rgb(0%,0%,0%);stroke-opacity:1;stroke-miterlimit:10;" d="M 331 353 L 305.019531 398 L 356.980469 398 L 331 353 "/>
<path style="fill-rule:nonzero;fill:rgb(53%,27%,7%);fill-opacity:1;stroke-width:1;stroke-linecap:butt;stroke-linejoin:miter;stroke:rgb(0%,0%,0%);stroke-opacity:1;stroke-miterlimit:10;" d="M 708 340 L 682.019531 385 L 733.980469 385 L 708 340 "/>
<path style="fill-rule:nonzero;fill:rgb(53%,27%,7%);fill-opacity:1;stroke-width:1;stroke-linecap:butt;stroke-linejoin:miter;stroke:rgb(0%,0%,0%);stroke-opacity:1;stroke-miterlimit:10;" d="M 974 148 L 948.019531 193 L 999.980469 193 L 974 148 "/>
<path style="fill-rule:nonzero;fill:rgb(53%,27%,7%);fill-opacity:1;stroke-width:1;stroke-linecap:butt;stroke-linejoin:miter;stroke:rgb(0%,0%,0%);stroke-opacity:1;stroke-miterlimit:10;" d="M 954.214844 310 C 954.214844 321.714844 944.714844 331.214844 933 331.214844 C 921.285156 331.214844 911.785156 321.714844 911.785156 310 C 911.785156 298.285156 921.285156 288.785156 933 288.785156 C 944.714844 288.785156 954.214844 298.285156 954.214844 310 "/>
<path style="fill-rule:nonzero;fill:rgb(53%,27%,7%);fill-opacity:1;stroke-width:1;stroke-linecap:butt;stroke-linejoin:miter;stroke:rgb(0%,0%,0%);stroke-opacity:1;stroke-miterlimit:10;" d="M 735.214844 133 C 735.214844 144.714844 725.714844 154.214844 714 154.214844 C 702.285156 154.214844 692.785156 144.714844 692.785156 133 C 692.785156 121.285156 702.285156 111.785156 714 111.785156 C 725.714844 111.785156 735.214844 121.285156 735.214844 133 "/>
<path style="fill-rule:nonzero;fill:rgb(53%,27%,7%);fill-opacity:1;stroke-width:1;stroke-linecap:butt;stroke-linejoin:miter;stroke:rgb(0%,0%,0%);stroke-opacity:1;stroke-miterlimit:10;" d="M 801 380 L 775.019531 425 L 826.980469 425 L 801 380 "/>
</g>
</svg>
