<?xml version="1.0" encoding="UTF-8"?>
<svg xmlns="http://www.w3.org/2000/svg" xmlns:xlink="http://www.w3.org/1999/xlink" width="1179pt" height="517pt" viewBox="0 0 1179 517" version="1.1">
<g id="surface276">
<rect x="0" y="0" width="1179" height="517" style="fill:rgb(90%,90%,90%);fill-opacity:1;stroke:none;"/>
<path style="fill-rule:nonzero;fill:rgb(53%,27%,7%);fill-opacity:1;stroke-width:1;stroke-linecap:butt;stroke-linejoin:miter;stroke:rgb(0%,0%,0%);stroke-opacity:1;stroke-miterlimit:10;" d="M 225 264 L 199.019531 309 L 250.980469 309 L 225 264 "/>
<path style="fill-rule:nonzero;fill:rgb(53%,27%,7%);fill-opacity:1;stroke-width:1;stroke-linecap:butt;stroke-linejoin:miter;stroke:rgb(0%,0%,0%);stroke-opacity:1;stroke-miterlimit:10;" d="M 366 291 L 340.019531 336 L 391.980469 336 L 366 291 "/>
<path style="fill-rule:nonzero;fill:rgb(53%,27%,7%);fill-opacity:1;stroke-width:1;stroke-linecap:butt;stroke-linejoin:miter;stroke:rgb(0%,0%,0%);stroke-opacity:1;stroke-miterlimit:10;" d="M 197 177 L 171.019531 222 L 222.980469 222 L 197 177 "/>
<path style="fill-rule:nonzero;fill:rgb(53%,27%,7%);fill-opacity:1;stroke-width:1;stroke-linecap:butt;stroke-linejoin:miter;stroke:rgb(0%,0%,0%);stroke-opacity:1;stroke-miterlimit:10;" d="M 415 376 L 389.019531 421 L 440.980469 421 L 415 376 "/>
<path style="fill-rule:nonzero;fill:rgb(100%,51%,0%);fill-opacity:1;stroke-width:1;stroke-linecap:butt;stroke-linejoin:miter;stroke:rgb(0%,0%,0%);stroke-opacity:1;stroke-miterlimit:10;" d="M 317 106 L 346.664062 106 L 358.664062 77.785156 L 370.664062 106 L 400.332031 106 L 376.332031 123.4375 L 384.417969 154.980469 L 358.664062 137.542969 L 332.914062 154.980469 L 345.214844 123.4375 L 317 106 "/>
<path style="fill-rule:nonzero;fill:rgb(100%,51%,0%);fill-opacity:1;stroke-width:1;stroke-linecap:butt;stroke-linejoin:miter;stroke:rgb(0%,0%,0%);stroke-opacity:1;stroke-miterlimit:10;" d="M 770 416 L 799.664062 416 L 811.664062 387.785156 L 823.664062 416 L 853.332031 416 L 829.332031 433.4375 L 837.417969 464.980469 L 811.664062 447.542969 L 785.914062 464.980469 L 798.214844 433.4375 L 770 416 "/>
<path style="fill-rule:nonzero;fill:rgb(100%,51%,0%);fill-opacity:1;stroke-width:1;stroke-linecap:butt;stroke-linejoin:miter;stroke:rgb(0%,0%,0%);stroke-opacity:1;stroke-miterlimit:10;" d="M 876 126 L 905.664062 126 L 917.664062 97.785156 L 929.664062 126 L 959.332031 126 L 935.332031 143.4375 L 943.417969 174.980469 L 917.664062 157.542969 L 891.914062 174.980469 L 904.214844 143.4375 L 876 126 "/>
<path style="fill-rule:nonzero;fill:rgb(100%,51%,0%);fill-opacity:1;stroke-width:1;stroke-linecap:butt;stroke-linejoin:miter;stroke:rgb(0%,0%,0%);stroke-opacity:1;stroke-miterlimit:10;" d="M 781 149 L 810.664062 149 L 822.664062 120.785156 L 834.664062 149 L 864.332031 149 L 840.332031 166.4375 L 848.417969 197.980469 L 822.664062 180.542969 L 796.914062 197.980469 L 809.214844 166.4375 L 781 149 "/>
<path style="fill-rule:nonzero;fill:rgb(53%,27%,7%);fill-opacity:1;stroke-width:1;stroke-linecap:butt;stroke-linejoin:miter;stroke:rgb(0%,0%,0%);stroke-opacity:1;stroke-miterlimit:10;" d="M 745 290 L 719.019531 335 L 770.980469 335 L 745 290 "/>
<path style="fill-rule:nonzero;fill:rgb(53%,27%,7%);fill-opacity:1;stroke-width:1;stroke-linecap:butt;stroke-linejoin:miter;stroke:rgb(0%,0%,0%);stroke-opacity:1;stroke-miterlimit:10;" d="M 977 305 L 951.019531 350 L 1002.980469 350 L 977 305 "/>
<path style="fill-rule:nonzero;fill:rgb(100%,51%,0%);fill-opacity:1;stroke-width:1;stroke-linecap:butt;stroke-linejoin:miter;stroke:rgb(0%,0%,0%);stroke-opacity:1;stroke-miterlimit:10;" d="M 701 208 L 730.664062 208 L 742.664062 179.785156 L 754.664062 208 L 784.332031 208 L 760.332031 225.4375 L 768.417969 256.980469 L 742.664062 239.542969 L 716.914062 256.980469 L 729.214844 225.4375 L 701 208 "/>
<path style="fill-rule:nonzero;fill:rgb(100%,51%,0%);fill-opacity:1;stroke-width:1;stroke-linecap:butt;stroke-linejoin:miter;stroke:rgb(0%,0%,0%);stroke-opacity:1;stroke-miterlimit:10;" d="M 901 231 L 930.664062 231 L 942.664062 202.785156 L 954.664062 231 L 984.332031 231 L 960.332031 248.4375 L 968.417969 279.980469 L 942.664062 262.542969 L 916.914062 279.980469 L 929.214844 248.4375 L 901 231 "/>
<path style="fill-rule:nonzero;fill:rgb(100%,51%,0%);fill-opacity:1;stroke-width:1;stroke-linecap:butt;stroke-linejoin:miter;stroke:rgb(0%,0%,0%);stroke-opacity:1;stroke-miterlimit:10;" d="M 1000 179 L 1029.664062 179 L 1041.664062 150.785156 L 1053.664062 179 L 1083.332031 179 L 1059.332031 196.4375 L 1067.417969 227.980469 L 1041.664062 210.542969 L 1015.914062 227.980469 L 1028.214844 196.4375 L 1000 179 "/>
</g>
</svg>
