<?xml version="1.0" encoding="UTF-8"?>
<svg xmlns="http://www.w3.org/2000/svg" xmlns:xlink="http://www.w3.org/1999/xlink" width="1179pt" height="517pt" viewBox="0 0 1179 517" version="1.1">
<g id="surface1416">
<rect x="0" y="0" width="1179" height="517" style="fill:rgb(90%,90%,90%);fill-opacity:1;stroke:none;"/>
<path style="fill-rule:nonzero;fill:rgb(35%,70%,90%);fill-opacity:1;stroke-width:1;stroke-linecap:butt;stroke-linejoin:miter;stroke:rgb(0%,0%,0%);stroke-opacity:1;stroke-miterlimit:10;" d="M 704 208 L 733.664062 208 L 745.664062 179.785156 L 757.664062 208 L 787.332031 208 L 763.332031 225.4375 L 771.417969 256.980469 L 745.664062 239.542969 L 719.914062 256.980469 L 732.214844 225.4375 L 704 208 "/>
<path style="fill-rule:nonzero;fill:rgb(35%,70%,90%);fill-opacity:1;stroke-width:1;stroke-linecap:butt;stroke-linejoin:miter;stroke:rgb(0%,0%,0%);stroke-opacity:1;stroke-miterlimit:10;" d="M 333 234 L 362.664062 234 L 374.664062 205.785156 L 386.664062 234 L 416.332031 234 L 392.332031 251.4375 L 400.417969 282.980469 L 374.664062 265.542969 L 348.914062 282.980469 L 361.214844 251.4375 L 333 234 "/>
<path style="fill-rule:nonzero;fill:rgb(35%,70%,90%);fill-opacity:1;stroke-width:1;stroke-linecap:butt;stroke-linejoin:miter;stroke:rgb(0%,0%,0%);stroke-opacity:1;stroke-miterlimit:10;" d="M 417 144 L 446.664062 144 L 458.664062 115.785156 L 470.664062 144 L 500.332031 144 L 476.332031 161.4375 L 484.417969 192.980469 L 458.664062 175.542969 L 432.914062 192.980469 L 445.214844 161.4375 L 417 144 "/>
<path style="fill-rule:nonzero;fill:rgb(100%,51%,0%);fill-opacity:1;stroke-width:1;stroke-linecap:butt;stroke-linejoin:miter;stroke:rgb(0%,0%,0%);stroke-opacity:1;stroke-miterlimit:10;" d="M 969 159.601562 C 969 145.199219 945 145.199219 945 159.601562 C 945 174 969 176.398438 969 188.398438 C 969 176.398438 993 174 993 159.601562 C 993 145.199219 969 145.199219 969 159.601562 "/>
<path style="fill-rule:nonzero;fill:rgb(100%,51%,0%);fill-opacity:1;stroke-width:1;stroke-linecap:butt;stroke-linejoin:miter;stroke:rgb(0%,0%,0%);stroke-opacity:1;stroke-miterlimit:10;" d="M 980 327.601562 C 980 313.199219 956 313.199219 956 327.601562 C 956 342 980 344.398438 980 356.398438 C 980 344.398438 1004 342 1004 327.601562 C 1004 313.199219 980 313.199219 980 327.601562 "/>
<path style="fill-rule:nonzero;fill:rgb(100%,51%,0%);fill-opacity:1;stroke-width:1;stroke-linecap:butt;stroke-linejoin:miter;stroke:rgb(0%,0%,0%);stroke-opacity:1;stroke-miterlimit:10;" d="M 111 349.601562 C 111 335.199219 87 335.199219 87 349.601562 C 87 364 111 366.398438 111 378.398438 C 111 366.398438 135 364 135 349.601562 C 135 335.199219 111 335.199219 111 349.601562 "/>
<path style="fill-rule:nonzero;fill:rgb(100%,51%,0%);fill-opacity:1;stroke-width:1;stroke-linecap:butt;stroke-linejoin:miter;stroke:rgb(0%,0%,0%);stroke-opacity:1;stroke-miterlimit:10;" d="M 582 129.601562 C 582 115.199219 558 115.199219 558 129.601562 C 558 144 582 146.398438 582 158.398438 C 582 146.398438 606 144 606 129.601562 C 606 115.199219 582 115.199219 582 129.601562 "/>
<path style="fill-rule:nonzero;fill:rgb(100%,51%,0%);fill-opacity:1;stroke-width:1;stroke-linecap:butt;stroke-linejoin:miter;stroke:rgb(0%,0%,0%);stroke-opacity:1;stroke-miterlimit:10;" d="M 197 85.601562 C 197 71.199219 173 71.199219 173 85.601562 C 173 100 197 102.398438 197 114.398438 C 197 102.398438 221 100 221 85.601562 C 221 71.199219 197 71.199219 197 85.601562 "/>
</g>
</svg>
