<?xml version="1.0" encoding="UTF-8"?>
<svg xmlns="http://www.w3.org/2000/svg" xmlns:xlink="http://www.w3.org/1999/xlink" width="1179pt" height="517pt" viewBox="0 0 1179 517" version="1.1">
<g id="surface1001">
<rect x="0" y="0" width="1179" height="517" style="fill:rgb(90%,90%,90%);fill-opacity:1;stroke:none;"/>
<path style="fill-rule:nonzero;fill:rgb(35%,70%,90%);fill-opacity:1;stroke-width:1;stroke-linecap:butt;stroke-linejoin:miter;stroke:rgb(0%,0%,0%);stroke-opacity:1;stroke-miterlimit:10;" d="M 973.214844 185 C 973.214844 196.714844 963.714844 206.214844 952 206.214844 C 940.285156 206.214844 930.785156 196.714844 930.785156 185 C 930.785156 173.285156 940.285156 163.785156 952 163.785156 C 963.714844 163.785156 973.214844 173.285156 973.214844 185 "/>
<path style="fill-rule:nonzero;fill:rgb(35%,70%,90%);fill-opacity:1;stroke-width:1;stroke-linecap:butt;stroke-linejoin:miter;stroke:rgb(0%,0%,0%);stroke-opacity:1;stroke-miterlimit:10;" d="M 348.214844 401 C 348.214844 412.714844 338.714844 422.214844 327 422.214844 C 315.285156 422.214844 305.785156 412.714844 305.785156 401 C 305.785156 389.285156 315.285156 379.785156 327 379.785156 C 338.714844 379.785156 348.214844 389.285156 348.214844 401 "/>
<path style="fill-rule:nonzero;fill:rgb(35%,70%,90%);fill-opacity:1;stroke-width:1;stroke-linecap:butt;stroke-linejoin:miter;stroke:rgb(0%,0%,0%);stroke-opacity:1;stroke-miterlimit:10;" d="M 680.214844 143 C 680.214844 154.714844 670.714844 164.214844 659 164.214844 C 647.285156 164.214844 637.785156 154.714844 637.785156 143 C 637.785156 131.285156 647.285156 121.785156 659 121.785156 C 670.714844 121.785156 680.214844 131.285156 680.214844 143 "/>
<path style="fill-rule:nonzero;fill:rgb(35%,70%,90%);fill-opacity:1;stroke-width:1;stroke-linecap:butt;stroke-linejoin:miter;stroke:rgb(0%,0%,0%);stroke-opacity:1;stroke-miterlimit:10;" d="M 817.214844 282 C 817.214844 293.714844 807.714844 303.214844 796 303.214844 C 784.285156 303.214844 774.785156 293.714844 774.785156 282 C 774.785156 270.285156 784.285156 260.785156 796 260.785156 C 807.714844 260.785156 817.214844 270.285156 817.214844 282 "/>
<path style="fill-rule:nonzero;fill:rgb(55%,51%,53%);fill-opacity:1;stroke-width:1;stroke-linecap:butt;stroke-linejoin:miter;stroke:rgb(0%,0%,0%);stroke-opacity:1;stroke-miterlimit:10;" d="M 885 402 L 914.664062 402 L 926.664062 373.785156 L 938.664062 402 L 968.332031 402 L 944.332031 419.4375 L 952.417969 450.980469 L 926.664062 433.542969 L 900.914062 450.980469 L 913.214844 419.4375 L 885 402 "/>
<path style="fill-rule:nonzero;fill:rgb(55%,51%,53%);fill-opacity:1;stroke-width:1;stroke-linecap:butt;stroke-linejoin:miter;stroke:rgb(0%,0%,0%);stroke-opacity:1;stroke-miterlimit:10;" d="M 831 89 L 860.664062 89 L 872.664062 60.785156 L 884.664062 89 L 914.332031 89 L 890.332031 106.4375 L 898.417969 137.980469 L 872.664062 120.542969 L 846.914062 137.980469 L 859.214844 106.4375 L 831 89 "/>
<path style="fill-rule:nonzero;fill:rgb(55%,51%,53%);fill-opacity:1;stroke-width:1;stroke-linecap:butt;stroke-linejoin:miter;stroke:rgb(0%,0%,0%);stroke-opacity:1;stroke-miterlimit:10;" d="M 521 270 L 550.664062 270 L 562.664062 241.785156 L 574.664062 270 L 604.332031 270 L 580.332031 287.4375 L 588.417969 318.980469 L 562.664062 301.542969 L 536.914062 318.980469 L 549.214844 287.4375 L 521 270 "/>
<path style="fill-rule:nonzero;fill:rgb(55%,51%,53%);fill-opacity:1;stroke-width:1;stroke-linecap:butt;stroke-linejoin:miter;stroke:rgb(0%,0%,0%);stroke-opacity:1;stroke-miterlimit:10;" d="M 142 136 L 171.664062 136 L 183.664062 107.785156 L 195.664062 136 L 225.332031 136 L 201.332031 153.4375 L 209.417969 184.980469 L 183.664062 167.542969 L 157.914062 184.980469 L 170.214844 153.4375 L 142 136 "/>
</g>
</svg>
