<?xml version="1.0" encoding="UTF-8"?>
<svg xmlns="http://www.w3.org/2000/svg" xmlns:xlink="http://www.w3.org/1999/xlink" width="1179pt" height="517pt" viewBox="0 0 1179 517" version="1.1">
<g id="surface346">
<rect x="0" y="0" width="1179" height="517" style="fill:rgb(90%,90%,90%);fill-opacity:1;stroke:none;"/>
<path style="fill-rule:nonzero;fill:rgb(55%,51%,53%);fill-opacity:1;stroke-width:1;stroke-linecap:butt;stroke-linejoin:miter;stroke:rgb(0%,0%,0%);stroke-opacity:1;stroke-miterlimit:10;" d="M 254.214844 245 C 254.214844 256.714844 244.714844 266.214844 233 266.214844 C 221.285156 266.214844 211.785156 256.714844 211.785156 245 C 211.785156 233.285156 221.285156 223.785156 233 223.785156 C 244.714844 223.785156 254.214844 233.285156 254.214844 245 "/>
<path style="fill-rule:nonzero;fill:rgb(53%,27%,7%);fill-opacity:1;stroke-width:1;stroke-linecap:butt;stroke-linejoin:miter;stroke:rgb(0%,0%,0%);stroke-opacity:1;stroke-miterlimit:10;" d="M 348.214844 239 C 348.214844 250.714844 338.714844 260.214844 327 260.214844 C 315.285156 260.214844 305.785156 250.714844 305.785156 239 C 305.785156 227.285156 315.285156 217.785156 327 217.785156 C 338.714844 217.785156 348.214844 227.285156 348.214844 239 "/>
<path style="fill-rule:nonzero;fill:rgb(55%,51%,53%);fill-opacity:1;stroke-width:1;stroke-linecap:butt;stroke-linejoin:miter;stroke:rgb(0%,0%,0%);stroke-opacity:1;stroke-miterlimit:10;" d="M 328.214844 83 C 328.214844 94.714844 318.714844 104.214844 307 104.214844 C 295.285156 104.214844 285.785156 94.714844 285.785156 83 C 285.785156 71.285156 295.285156 61.785156 307 61.785156 C 318.714844 61.785156 328.214844 71.285156 328.214844 83 "/>
<path style="fill-rule:nonzero;fill:rgb(53%,27%,7%);fill-opacity:1;stroke-width:1;stroke-linecap:butt;stroke-linejoin:miter;stroke:rgb(0%,0%,0%);stroke-opacity:1;stroke-miterlimit:10;" d="M 168.214844 385 C 168.214844 396.714844 158.714844 406.214844 147 406.214844 C 135.285156 406.214844 125.785156 396.714844 125.785156 385 C 125.785156 373.285156 135.285156 363.785156 147 363.785156 C 158.714844 363.785156 168.214844 373.285156 168.214844 385 "/>
<path style="fill-rule:nonzero;fill:rgb(55%,51%,53%);fill-opacity:1;stroke-width:1;stroke-linecap:butt;stroke-linejoin:miter;stroke:rgb(0%,0%,0%);stroke-opacity:1;stroke-miterlimit:10;" d="M 155.214844 80 C 155.214844 91.714844 145.714844 101.214844 134 101.214844 C 122.285156 101.214844 112.785156 91.714844 112.785156 80 C 112.785156 68.285156 122.285156 58.785156 134 58.785156 C 145.714844 58.785156 155.214844 68.285156 155.214844 80 "/>
<path style="fill-rule:nonzero;fill:rgb(53%,27%,7%);fill-opacity:1;stroke-width:1;stroke-linecap:butt;stroke-linejoin:miter;stroke:rgb(0%,0%,0%);stroke-opacity:1;stroke-miterlimit:10;" d="M 1042 385 L 1016.019531 430 L 1067.980469 430 L 1042 385 "/>
<path style="fill-rule:nonzero;fill:rgb(55%,51%,53%);fill-opacity:1;stroke-width:1;stroke-linecap:butt;stroke-linejoin:miter;stroke:rgb(0%,0%,0%);stroke-opacity:1;stroke-miterlimit:10;" d="M 723 190 L 697.019531 235 L 748.980469 235 L 723 190 "/>
<path style="fill-rule:nonzero;fill:rgb(53%,27%,7%);fill-opacity:1;stroke-width:1;stroke-linecap:butt;stroke-linejoin:miter;stroke:rgb(0%,0%,0%);stroke-opacity:1;stroke-miterlimit:10;" d="M 995 298 L 969.019531 343 L 1020.980469 343 L 995 298 "/>
<path style="fill-rule:nonzero;fill:rgb(55%,51%,53%);fill-opacity:1;stroke-width:1;stroke-linecap:butt;stroke-linejoin:miter;stroke:rgb(0%,0%,0%);stroke-opacity:1;stroke-miterlimit:10;" d="M 774 110 L 748.019531 155 L 799.980469 155 L 774 110 "/>
</g>
</svg>
