<?xml version="1.0" encoding="UTF-8"?>
<svg xmlns="http://www.w3.org/2000/svg" xmlns:xlink="http://www.w3.org/1999/xlink" width="1179pt" height="517pt" viewBox="0 0 1179 517" version="1.1">
<g id="surface1161">
<rect x="0" y="0" width="1179" height="517" style="fill:rgb(90%,90%,90%);fill-opacity:1;stroke:none;"/>
<path style="fill-rule:nonzero;fill:rgb(55%,51%,53%);fill-opacity:1;stroke-width:1;stroke-linecap:butt;stroke-linejoin:miter;stroke:rgb(0%,0%,0%);stroke-opacity:1;stroke-miterlimit:10;" d="M 964 370 L 993.664062 370 L 1005.664062 341.785156 L 1017.664062 370 L 1047.332031 370 L 1023.332031 387.4375 L 1031.417969 418.980469 L 1005.664062 401.542969 L 979.914062 418.980469 L 992.214844 387.4375 L 964 370 "/>
<path style="fill-rule:nonzero;fill:rgb(55%,51%,53%);fill-opacity:1;stroke-width:1;stroke-linecap:butt;stroke-linejoin:miter;stroke:rgb(0%,0%,0%);stroke-opacity:1;stroke-miterlimit:10;" d="M 793 173 L 822.664062 173 L 834.664062 144.785156 L 846.664062 173 L 876.332031 173 L 852.332031 190.4375 L 860.417969 221.980469 L 834.664062 204.542969 L 808.914062 221.980469 L 821.214844 190.4375 L 793 173 "/>
<path style="fill-rule:nonzero;fill:rgb(55%,51%,53%);fill-opacity:1;stroke-width:1;stroke-linecap:butt;stroke-linejoin:miter;stroke:rgb(0%,0%,0%);stroke-opacity:1;stroke-miterlimit:10;" d="M 284 294 L 313.664062 294 L 325.664062 265.785156 L 337.664062 294 L 367.332031 294 L 343.332031 311.4375 L 351.417969 342.980469 L 325.664062 325.542969 L 299.914062 342.980469 L 312.214844 311.4375 L 284 294 "/>
<path style="fill-rule:nonzero;fill:rgb(55%,51%,53%);fill-opacity:1;stroke-width:1;stroke-linecap:butt;stroke-linejoin:miter;stroke:rgb(0%,0%,0%);stroke-opacity:1;stroke-miterlimit:10;" d="M 420 306 L 449.664062 306 L 461.664062 277.785156 L 473.664062 306 L 503.332031 306 L 479.332031 323.4375 L 487.417969 354.980469 L 461.664062 337.542969 L 435.914062 354.980469 L 448.214844 323.4375 L 420 306 "/>
<path style="fill-rule:nonzero;fill:rgb(100%,51%,0%);fill-opacity:1;stroke-width:1;stroke-linecap:butt;stroke-linejoin:miter;stroke:rgb(0%,0%,0%);stroke-opacity:1;stroke-miterlimit:10;" d="M 665.214844 165 C 665.214844 176.714844 655.714844 186.214844 644 186.214844 C 632.285156 186.214844 622.785156 176.714844 622.785156 165 C 622.785156 153.285156 632.285156 143.785156 644 143.785156 C 655.714844 143.785156 665.214844 153.285156 665.214844 165 "/>
<path style="fill-rule:nonzero;fill:rgb(100%,51%,0%);fill-opacity:1;stroke-width:1;stroke-linecap:butt;stroke-linejoin:miter;stroke:rgb(0%,0%,0%);stroke-opacity:1;stroke-miterlimit:10;" d="M 513.214844 127 C 513.214844 138.714844 503.714844 148.214844 492 148.214844 C 480.285156 148.214844 470.785156 138.714844 470.785156 127 C 470.785156 115.285156 480.285156 105.785156 492 105.785156 C 503.714844 105.785156 513.214844 115.285156 513.214844 127 "/>
<path style="fill-rule:nonzero;fill:rgb(100%,51%,0%);fill-opacity:1;stroke-width:1;stroke-linecap:butt;stroke-linejoin:miter;stroke:rgb(0%,0%,0%);stroke-opacity:1;stroke-miterlimit:10;" d="M 214.214844 378 C 214.214844 389.714844 204.714844 399.214844 193 399.214844 C 181.285156 399.214844 171.785156 389.714844 171.785156 378 C 171.785156 366.285156 181.285156 356.785156 193 356.785156 C 204.714844 356.785156 214.214844 366.285156 214.214844 378 "/>
<path style="fill-rule:nonzero;fill:rgb(100%,51%,0%);fill-opacity:1;stroke-width:1;stroke-linecap:butt;stroke-linejoin:miter;stroke:rgb(0%,0%,0%);stroke-opacity:1;stroke-miterlimit:10;" d="M 155.214844 123 C 155.214844 134.714844 145.714844 144.214844 134 144.214844 C 122.285156 144.214844 112.785156 134.714844 112.785156 123 C 112.785156 111.285156 122.285156 101.785156 134 101.785156 C 145.714844 101.785156 155.214844 111.285156 155.214844 123 "/>
<path style="fill-rule:nonzero;fill:rgb(100%,51%,0%);fill-opacity:1;stroke-width:1;stroke-linecap:butt;stroke-linejoin:miter;stroke:rgb(0%,0%,0%);stroke-opacity:1;stroke-miterlimit:10;" d="M 932.214844 218 C 932.214844 229.714844 922.714844 239.214844 911 239.214844 C 899.285156 239.214844 889.785156 229.714844 889.785156 218 C 889.785156 206.285156 899.285156 196.785156 911 196.785156 C 922.714844 196.785156 932.214844 206.285156 932.214844 218 "/>
</g>
</svg>
