<?xml version="1.0" encoding="UTF-8"?>
<svg xmlns="http://www.w3.org/2000/svg" xmlns:xlink="http://www.w3.org/1999/xlink" width="1179pt" height="517pt" viewBox="0 0 1179 517" version="1.1">
<g id="surface1066">
<rect x="0" y="0" width="1179" height="517" style="fill:rgb(90%,90%,90%);fill-opacity:1;stroke:none;"/>
<path style="fill-rule:nonzero;fill:rgb(100%,51%,0%);fill-opacity:1;stroke-width:1;stroke-linecap:butt;stroke-linejoin:miter;stroke:rgb(0%,0%,0%);stroke-opacity:1;stroke-miterlimit:10;" d="M 792 132 L 766.019531 177 L 817.980469 177 L 792 132 "/>
<path style="fill-rule:nonzero;fill:rgb(100%,51%,0%);fill-opacity:1;stroke-width:1;stroke-linecap:butt;stroke-linejoin:miter;stroke:rgb(0%,0%,0%);stroke-opacity:1;stroke-miterlimit:10;" d="M 889 398 L 863.019531 443 L 914.980469 443 L 889 398 "/>
<path style="fill-rule:nonzero;fill:rgb(100%,51%,0%);fill-opacity:1;stroke-width:1;stroke-linecap:butt;stroke-linejoin:miter;stroke:rgb(0%,0%,0%);stroke-opacity:1;stroke-miterlimit:10;" d="M 997 265 L 971.019531 310 L 1022.980469 310 L 997 265 "/>
<path style="fill-rule:nonzero;fill:rgb(53%,27%,7%);fill-opacity:1;stroke-width:1;stroke-linecap:butt;stroke-linejoin:miter;stroke:rgb(0%,0%,0%);stroke-opacity:1;stroke-miterlimit:10;" d="M 177 71.601562 C 177 57.199219 153 57.199219 153 71.601562 C 153 86 177 88.398438 177 100.398438 C 177 88.398438 201 86 201 71.601562 C 201 57.199219 177 57.199219 177 71.601562 "/>
<path style="fill-rule:nonzero;fill:rgb(53%,27%,7%);fill-opacity:1;stroke-width:1;stroke-linecap:butt;stroke-linejoin:miter;stroke:rgb(0%,0%,0%);stroke-opacity:1;stroke-miterlimit:10;" d="M 662 372.601562 C 662 358.199219 638 358.199219 638 372.601562 C 638 387 662 389.398438 662 401.398438 C 662 389.398438 686 387 686 372.601562 C 686 358.199219 662 358.199219 662 372.601562 "/>
<path style="fill-rule:nonzero;fill:rgb(53%,27%,7%);fill-opacity:1;stroke-width:1;stroke-linecap:butt;stroke-linejoin:miter;stroke:rgb(0%,0%,0%);stroke-opacity:1;stroke-miterlimit:10;" d="M 138 342.601562 C 138 328.199219 114 328.199219 114 342.601562 C 114 357 138 359.398438 138 371.398438 C 138 359.398438 162 357 162 342.601562 C 162 328.199219 138 328.199219 138 342.601562 "/>
<path style="fill-rule:nonzero;fill:rgb(53%,27%,7%);fill-opacity:1;stroke-width:1;stroke-linecap:butt;stroke-linejoin:miter;stroke:rgb(0%,0%,0%);stroke-opacity:1;stroke-miterlimit:10;" d="M 598 74.601562 C 598 60.199219 574 60.199219 574 74.601562 C 574 89 598 91.398438 598 103.398438 C 598 91.398438 622 89 622 74.601562 C 622 60.199219 598 60.199219 598 74.601562 "/>
<path style="fill-rule:nonzero;fill:rgb(53%,27%,7%);fill-opacity:1;stroke-width:1;stroke-linecap:butt;stroke-linejoin:miter;stroke:rgb(0%,0%,0%);stroke-opacity:1;stroke-miterlimit:10;" d="M 516 218.601562 C 516 204.199219 492 204.199219 492 218.601562 C 492 233 516 235.398438 516 247.398438 C 516 235.398438 540 233 540 218.601562 C 540 204.199219 516 204.199219 516 218.601562 "/>
</g>
</svg>
