<?xml version="1.0" encoding="UTF-8"?>
<svg xmlns="http://www.w3.org/2000/svg" xmlns:xlink="http://www.w3.org/1999/xlink" width="1179pt" height="517pt" viewBox="0 0 1179 517" version="1.1">
<g id="surface921">
<rect x="0" y="0" width="1179" height="517" style="fill:rgb(90%,90%,90%);fill-opacity:1;stroke:none;"/>
<path style="fill-rule:nonzero;fill:rgb(100%,51%,0%);fill-opacity:1;stroke-width:1;stroke-linecap:butt;stroke-linejoin:miter;stroke:rgb(0%,0%,0%);stroke-opacity:1;stroke-miterlimit:10;" d="M 364.214844 274 C 364.214844 285.714844 354.714844 295.214844 343 295.214844 C 331.285156 295.214844 321.785156 285.714844 321.785156 274 C 321.785156 262.285156 331.285156 252.785156 343 252.785156 C 354.714844 252.785156 364.214844 262.285156 364.214844 274 "/>
<path style="fill-rule:nonzero;fill:rgb(100%,51%,0%);fill-opacity:1;stroke-width:1;stroke-linecap:butt;stroke-linejoin:miter;stroke:rgb(0%,0%,0%);stroke-opacity:1;stroke-miterlimit:10;" d="M 304.214844 409 C 304.214844 420.714844 294.714844 430.214844 283 430.214844 C 271.285156 430.214844 261.785156 420.714844 261.785156 409 C 261.785156 397.285156 271.285156 387.785156 283 387.785156 C 294.714844 387.785156 304.214844 397.285156 304.214844 409 "/>
<path style="fill-rule:nonzero;fill:rgb(100%,51%,0%);fill-opacity:1;stroke-width:1;stroke-linecap:butt;stroke-linejoin:miter;stroke:rgb(0%,0%,0%);stroke-opacity:1;stroke-miterlimit:10;" d="M 787.214844 408 C 787.214844 419.714844 777.714844 429.214844 766 429.214844 C 754.285156 429.214844 744.785156 419.714844 744.785156 408 C 744.785156 396.285156 754.285156 386.785156 766 386.785156 C 777.714844 386.785156 787.214844 396.285156 787.214844 408 "/>
<path style="fill-rule:nonzero;fill:rgb(100%,51%,0%);fill-opacity:1;stroke-width:1;stroke-linecap:butt;stroke-linejoin:miter;stroke:rgb(0%,0%,0%);stroke-opacity:1;stroke-miterlimit:10;" d="M 803.214844 184 C 803.214844 195.714844 793.714844 205.214844 782 205.214844 C 770.285156 205.214844 760.785156 195.714844 760.785156 184 C 760.785156 172.285156 770.285156 162.785156 782 162.785156 C 793.714844 162.785156 803.214844 172.285156 803.214844 184 "/>
<path style="fill-rule:nonzero;fill:rgb(100%,51%,0%);fill-opacity:1;stroke-width:1;stroke-linecap:butt;stroke-linejoin:miter;stroke:rgb(0%,0%,0%);stroke-opacity:1;stroke-miterlimit:10;" d="M 1044.214844 137 C 1044.214844 148.714844 1034.714844 158.214844 1023 158.214844 C 1011.285156 158.214844 1001.785156 148.714844 1001.785156 137 C 1001.785156 125.285156 1011.285156 115.785156 1023 115.785156 C 1034.714844 115.785156 1044.214844 125.285156 1044.214844 137 "/>
<path style="fill-rule:nonzero;fill:rgb(35%,70%,90%);fill-opacity:1;stroke-width:1;stroke-linecap:butt;stroke-linejoin:miter;stroke:rgb(0%,0%,0%);stroke-opacity:1;stroke-miterlimit:10;" d="M 1022 272 L 1051.664062 272 L 1063.664062 243.785156 L 1075.664062 272 L 1105.332031 272 L 1081.332031 289.4375 L 1089.417969 320.980469 L 1063.664062 303.542969 L 1037.914062 320.980469 L 1050.214844 289.4375 L 1022 272 "/>
<path style="fill-rule:nonzero;fill:rgb(35%,70%,90%);fill-opacity:1;stroke-width:1;stroke-linecap:butt;stroke-linejoin:miter;stroke:rgb(0%,0%,0%);stroke-opacity:1;stroke-miterlimit:10;" d="M 357 136 L 386.664062 136 L 398.664062 107.785156 L 410.664062 136 L 440.332031 136 L 416.332031 153.4375 L 424.417969 184.980469 L 398.664062 167.542969 L 372.914062 184.980469 L 385.214844 153.4375 L 357 136 "/>
<path style="fill-rule:nonzero;fill:rgb(35%,70%,90%);fill-opacity:1;stroke-width:1;stroke-linecap:butt;stroke-linejoin:miter;stroke:rgb(0%,0%,0%);stroke-opacity:1;stroke-miterlimit:10;" d="M 892 314 L 921.664062 314 L 933.664062 285.785156 L 945.664062 314 L 975.332031 314 L 951.332031 331.4375 L 959.417969 362.980469 L 933.664062 345.542969 L 907.914062 362.980469 L 920.214844 331.4375 L 892 314 "/>
<path style="fill-rule:nonzero;fill:rgb(35%,70%,90%);fill-opacity:1;stroke-width:1;stroke-linecap:butt;stroke-linejoin:miter;stroke:rgb(0%,0%,0%);stroke-opacity:1;stroke-miterlimit:10;" d="M 870 84 L 899.664062 84 L 911.664062 55.785156 L 923.664062 84 L 953.332031 84 L 929.332031 101.4375 L 937.417969 132.980469 L 911.664062 115.542969 L 885.914062 132.980469 L 898.214844 101.4375 L 870 84 "/>
</g>
</svg>
