<?xml version="1.0" encoding="UTF-8"?>
<svg xmlns="http://www.w3.org/2000/svg" xmlns:xlink="http://www.w3.org/1999/xlink" width="1179pt" height="517pt" viewBox="0 0 1179 517" version="1.1">
<g id="surface1431">
<rect x="0" y="0" width="1179" height="517" style="fill:rgb(90%,90%,90%);fill-opacity:1;stroke:none;"/>
<path style="fill-rule:nonzero;fill:rgb(55%,51%,53%);fill-opacity:1;stroke-width:1;stroke-linecap:butt;stroke-linejoin:miter;stroke:rgb(0%,0%,0%);stroke-opacity:1;stroke-miterlimit:10;" d="M 945 166 L 974.664062 166 L 986.664062 137.785156 L 998.664062 166 L 1028.332031 166 L 1004.332031 183.4375 L 1012.417969 214.980469 L 986.664062 197.542969 L 960.914062 214.980469 L 973.214844 183.4375 L 945 166 "/>
<path style="fill-rule:nonzero;fill:rgb(55%,51%,53%);fill-opacity:1;stroke-width:1;stroke-linecap:butt;stroke-linejoin:miter;stroke:rgb(0%,0%,0%);stroke-opacity:1;stroke-miterlimit:10;" d="M 377 404 L 406.664062 404 L 418.664062 375.785156 L 430.664062 404 L 460.332031 404 L 436.332031 421.4375 L 444.417969 452.980469 L 418.664062 435.542969 L 392.914062 452.980469 L 405.214844 421.4375 L 377 404 "/>
<path style="fill-rule:nonzero;fill:rgb(55%,51%,53%);fill-opacity:1;stroke-width:1;stroke-linecap:butt;stroke-linejoin:miter;stroke:rgb(0%,0%,0%);stroke-opacity:1;stroke-miterlimit:10;" d="M 730 323 L 759.664062 323 L 771.664062 294.785156 L 783.664062 323 L 813.332031 323 L 789.332031 340.4375 L 797.417969 371.980469 L 771.664062 354.542969 L 745.914062 371.980469 L 758.214844 340.4375 L 730 323 "/>
<path style="fill-rule:nonzero;fill:rgb(55%,51%,53%);fill-opacity:1;stroke-width:1;stroke-linecap:butt;stroke-linejoin:miter;stroke:rgb(0%,0%,0%);stroke-opacity:1;stroke-miterlimit:10;" d="M 755 122 L 784.664062 122 L 796.664062 93.785156 L 808.664062 122 L 838.332031 122 L 814.332031 139.4375 L 822.417969 170.980469 L 796.664062 153.542969 L 770.914062 170.980469 L 783.214844 139.4375 L 755 122 "/>
<path style="fill-rule:nonzero;fill:rgb(100%,51%,0%);fill-opacity:1;stroke-width:1;stroke-linecap:butt;stroke-linejoin:miter;stroke:rgb(0%,0%,0%);stroke-opacity:1;stroke-miterlimit:10;" d="M 609.214844 373 C 609.214844 384.714844 599.714844 394.214844 588 394.214844 C 576.285156 394.214844 566.785156 384.714844 566.785156 373 C 566.785156 361.285156 576.285156 351.785156 588 351.785156 C 599.714844 351.785156 609.214844 361.285156 609.214844 373 "/>
<path style="fill-rule:nonzero;fill:rgb(100%,51%,0%);fill-opacity:1;stroke-width:1;stroke-linecap:butt;stroke-linejoin:miter;stroke:rgb(0%,0%,0%);stroke-opacity:1;stroke-miterlimit:10;" d="M 889.214844 285 C 889.214844 296.714844 879.714844 306.214844 868 306.214844 C 856.285156 306.214844 846.785156 296.714844 846.785156 285 C 846.785156 273.285156 856.285156 263.785156 868 263.785156 C 879.714844 263.785156 889.214844 273.285156 889.214844 285 "/>
<path style="fill-rule:nonzero;fill:rgb(100%,51%,0%);fill-opacity:1;stroke-width:1;stroke-linecap:butt;stroke-linejoin:miter;stroke:rgb(0%,0%,0%);stroke-opacity:1;stroke-miterlimit:10;" d="M 207.214844 93 C 207.214844 104.714844 197.714844 114.214844 186 114.214844 C 174.285156 114.214844 164.785156 104.714844 164.785156 93 C 164.785156 81.285156 174.285156 71.785156 186 71.785156 C 197.714844 71.785156 207.214844 81.285156 207.214844 93 "/>
<path style="fill-rule:nonzero;fill:rgb(100%,51%,0%);fill-opacity:1;stroke-width:1;stroke-linecap:butt;stroke-linejoin:miter;stroke:rgb(0%,0%,0%);stroke-opacity:1;stroke-miterlimit:10;" d="M 245.214844 241 C 245.214844 252.714844 235.714844 262.214844 224 262.214844 C 212.285156 262.214844 202.785156 252.714844 202.785156 241 C 202.785156 229.285156 212.285156 219.785156 224 219.785156 C 235.714844 219.785156 245.214844 229.285156 245.214844 241 "/>
<path style="fill-rule:nonzero;fill:rgb(100%,51%,0%);fill-opacity:1;stroke-width:1;stroke-linecap:butt;stroke-linejoin:miter;stroke:rgb(0%,0%,0%);stroke-opacity:1;stroke-miterlimit:10;" d="M 415.214844 219 C 415.214844 230.714844 405.714844 240.214844 394 240.214844 C 382.285156 240.214844 372.785156 230.714844 372.785156 219 C 372.785156 207.285156 382.285156 197.785156 394 197.785156 C 405.714844 197.785156 415.214844 207.285156 415.214844 219 "/>
</g>
</svg>
