<?xml version="1.0" encoding="UTF-8"?>
<svg xmlns="http://www.w3.org/2000/svg" xmlns:xlink="http://www.w3.org/1999/xlink" width="1179pt" height="517pt" viewBox="0 0 1179 517" version="1.1">
<g id="surface1306">
<rect x="0" y="0" width="1179" height="517" style="fill:rgb(90%,90%,90%);fill-opacity:1;stroke:none;"/>
<path style="fill-rule:nonzero;fill:rgb(35%,70%,90%);fill-opacity:1;stroke-width:1;stroke-linecap:butt;stroke-linejoin:miter;stroke:rgb(0%,0%,0%);stroke-opacity:1;stroke-miterlimit:10;" d="M 988 407.601562 C 988 393.199219 964 393.199219 964 407.601562 C 964 422 988 424.398438 988 436.398438 C 988 424.398438 1012 422 1012 407.601562 C 1012 393.199219 988 393.199219 988 407.601562 "/>
<path style="fill-rule:nonzero;fill:rgb(35%,70%,90%);fill-opacity:1;stroke-width:1;stroke-linecap:butt;stroke-linejoin:miter;stroke:rgb(0%,0%,0%);stroke-opacity:1;stroke-miterlimit:10;" d="M 346 222.601562 C 346 208.199219 322 208.199219 322 222.601562 C 322 237 346 239.398438 346 251.398438 C 346 239.398438 370 237 370 222.601562 C 370 208.199219 346 208.199219 346 222.601562 "/>
<path style="fill-rule:nonzero;fill:rgb(35%,70%,90%);fill-opacity:1;stroke-width:1;stroke-linecap:butt;stroke-linejoin:miter;stroke:rgb(0%,0%,0%);stroke-opacity:1;stroke-miterlimit:10;" d="M 475 374.601562 C 475 360.199219 451 360.199219 451 374.601562 C 451 389 475 391.398438 475 403.398438 C 475 391.398438 499 389 499 374.601562 C 499 360.199219 475 360.199219 475 374.601562 "/>
<path style="fill-rule:nonzero;fill:rgb(35%,70%,90%);fill-opacity:1;stroke-width:1;stroke-linecap:butt;stroke-linejoin:miter;stroke:rgb(0%,0%,0%);stroke-opacity:1;stroke-miterlimit:10;" d="M 642 391.601562 C 642 377.199219 618 377.199219 618 391.601562 C 618 406 642 408.398438 642 420.398438 C 642 408.398438 666 406 666 391.601562 C 666 377.199219 642 377.199219 642 391.601562 "/>
<path style="fill-rule:nonzero;fill:rgb(35%,70%,90%);fill-opacity:1;stroke-width:1;stroke-linecap:butt;stroke-linejoin:miter;stroke:rgb(0%,0%,0%);stroke-opacity:1;stroke-miterlimit:10;" d="M 818 247.601562 C 818 233.199219 794 233.199219 794 247.601562 C 794 262 818 264.398438 818 276.398438 C 818 264.398438 842 262 842 247.601562 C 842 233.199219 818 233.199219 818 247.601562 "/>
<path style="fill-rule:nonzero;fill:rgb(53%,27%,7%);fill-opacity:1;stroke-width:1;stroke-linecap:butt;stroke-linejoin:miter;stroke:rgb(0%,0%,0%);stroke-opacity:1;stroke-miterlimit:10;" d="M 142.214844 261 C 142.214844 272.714844 132.714844 282.214844 121 282.214844 C 109.285156 282.214844 99.785156 272.714844 99.785156 261 C 99.785156 249.285156 109.285156 239.785156 121 239.785156 C 132.714844 239.785156 142.214844 249.285156 142.214844 261 "/>
<path style="fill-rule:nonzero;fill:rgb(53%,27%,7%);fill-opacity:1;stroke-width:1;stroke-linecap:butt;stroke-linejoin:miter;stroke:rgb(0%,0%,0%);stroke-opacity:1;stroke-miterlimit:10;" d="M 494.214844 190 C 494.214844 201.714844 484.714844 211.214844 473 211.214844 C 461.285156 211.214844 451.785156 201.714844 451.785156 190 C 451.785156 178.285156 461.285156 168.785156 473 168.785156 C 484.714844 168.785156 494.214844 178.285156 494.214844 190 "/>
<path style="fill-rule:nonzero;fill:rgb(53%,27%,7%);fill-opacity:1;stroke-width:1;stroke-linecap:butt;stroke-linejoin:miter;stroke:rgb(0%,0%,0%);stroke-opacity:1;stroke-miterlimit:10;" d="M 1005.214844 185 C 1005.214844 196.714844 995.714844 206.214844 984 206.214844 C 972.285156 206.214844 962.785156 196.714844 962.785156 185 C 962.785156 173.285156 972.285156 163.785156 984 163.785156 C 995.714844 163.785156 1005.214844 173.285156 1005.214844 185 "/>
</g>
</svg>
