<?xml version="1.0" encoding="UTF-8"?>
<svg xmlns="http://www.w3.org/2000/svg" xmlns:xlink="http://www.w3.org/1999/xlink" width="1179pt" height="517pt" viewBox="0 0 1179 517" version="1.1">
<g id="surface961">
<rect x="0" y="0" width="1179" height="517" style="fill:rgb(90%,90%,90%);fill-opacity:1;stroke:none;"/>
<path style="fill-rule:nonzero;fill:rgb(55%,51%,53%);fill-opacity:1;stroke-width:1;stroke-linecap:butt;stroke-linejoin:miter;stroke:rgb(0%,0%,0%);stroke-opacity:1;stroke-miterlimit:10;" d="M 410 125 L 439.664062 125 L 451.664062 96.785156 L 463.664062 125 L 493.332031 125 L 469.332031 142.4375 L 477.417969 173.980469 L 451.664062 156.542969 L 425.914062 173.980469 L 438.214844 142.4375 L 410 125 "/>
<path style="fill-rule:nonzero;fill:rgb(55%,51%,53%);fill-opacity:1;stroke-width:1;stroke-linecap:butt;stroke-linejoin:miter;stroke:rgb(0%,0%,0%);stroke-opacity:1;stroke-miterlimit:10;" d="M 160 384 L 189.664062 384 L 201.664062 355.785156 L 213.664062 384 L 243.332031 384 L 219.332031 401.4375 L 227.417969 432.980469 L 201.664062 415.542969 L 175.914062 432.980469 L 188.214844 401.4375 L 160 384 "/>
<path style="fill-rule:nonzero;fill:rgb(53%,27%,7%);fill-opacity:1;stroke-width:1;stroke-linecap:butt;stroke-linejoin:miter;stroke:rgb(0%,0%,0%);stroke-opacity:1;stroke-miterlimit:10;" d="M 189 294 L 218.664062 294 L 230.664062 265.785156 L 242.664062 294 L 272.332031 294 L 248.332031 311.4375 L 256.417969 342.980469 L 230.664062 325.542969 L 204.914062 342.980469 L 217.214844 311.4375 L 189 294 "/>
<path style="fill-rule:nonzero;fill:rgb(53%,27%,7%);fill-opacity:1;stroke-width:1;stroke-linecap:butt;stroke-linejoin:miter;stroke:rgb(0%,0%,0%);stroke-opacity:1;stroke-miterlimit:10;" d="M 430 286 L 459.664062 286 L 471.664062 257.785156 L 483.664062 286 L 513.332031 286 L 489.332031 303.4375 L 497.417969 334.980469 L 471.664062 317.542969 L 445.914062 334.980469 L 458.214844 303.4375 L 430 286 "/>
<path style="fill-rule:nonzero;fill:rgb(55%,51%,53%);fill-opacity:1;stroke-width:1;stroke-linecap:butt;stroke-linejoin:miter;stroke:rgb(0%,0%,0%);stroke-opacity:1;stroke-miterlimit:10;" d="M 280 182 L 309.664062 182 L 321.664062 153.785156 L 333.664062 182 L 363.332031 182 L 339.332031 199.4375 L 347.417969 230.980469 L 321.664062 213.542969 L 295.914062 230.980469 L 308.214844 199.4375 L 280 182 "/>
<path style="fill-rule:nonzero;fill:rgb(55%,51%,53%);fill-opacity:1;stroke-width:1;stroke-linecap:butt;stroke-linejoin:miter;stroke:rgb(0%,0%,0%);stroke-opacity:1;stroke-miterlimit:10;" d="M 893 334 L 922.664062 334 L 934.664062 305.785156 L 946.664062 334 L 976.332031 334 L 952.332031 351.4375 L 960.417969 382.980469 L 934.664062 365.542969 L 908.914062 382.980469 L 921.214844 351.4375 L 893 334 "/>
<path style="fill-rule:nonzero;fill:rgb(55%,51%,53%);fill-opacity:1;stroke-width:1;stroke-linecap:butt;stroke-linejoin:miter;stroke:rgb(0%,0%,0%);stroke-opacity:1;stroke-miterlimit:10;" d="M 761 316 L 790.664062 316 L 802.664062 287.785156 L 814.664062 316 L 844.332031 316 L 820.332031 333.4375 L 828.417969 364.980469 L 802.664062 347.542969 L 776.914062 364.980469 L 789.214844 333.4375 L 761 316 "/>
<path style="fill-rule:nonzero;fill:rgb(55%,51%,53%);fill-opacity:1;stroke-width:1;stroke-linecap:butt;stroke-linejoin:miter;stroke:rgb(0%,0%,0%);stroke-opacity:1;stroke-miterlimit:10;" d="M 938 205 L 967.664062 205 L 979.664062 176.785156 L 991.664062 205 L 1021.332031 205 L 997.332031 222.4375 L 1005.417969 253.980469 L 979.664062 236.542969 L 953.914062 253.980469 L 966.214844 222.4375 L 938 205 "/>
<path style="fill-rule:nonzero;fill:rgb(55%,51%,53%);fill-opacity:1;stroke-width:1;stroke-linecap:butt;stroke-linejoin:miter;stroke:rgb(0%,0%,0%);stroke-opacity:1;stroke-miterlimit:10;" d="M 1026 181 L 1055.664062 181 L 1067.664062 152.785156 L 1079.664062 181 L 1109.332031 181 L 1085.332031 198.4375 L 1093.417969 229.980469 L 1067.664062 212.542969 L 1041.914062 229.980469 L 1054.214844 198.4375 L 1026 181 "/>
<path style="fill-rule:nonzero;fill:rgb(55%,51%,53%);fill-opacity:1;stroke-width:1;stroke-linecap:butt;stroke-linejoin:miter;stroke:rgb(0%,0%,0%);stroke-opacity:1;stroke-miterlimit:10;" d="M 951 421 L 980.664062 421 L 992.664062 392.785156 L 1004.664062 421 L 1034.332031 421 L 1010.332031 438.4375 L 1018.417969 469.980469 L 992.664062 452.542969 L 966.914062 469.980469 L 979.214844 438.4375 L 951 421 "/>
<path style="fill-rule:nonzero;fill:rgb(55%,51%,53%);fill-opacity:1;stroke-width:1;stroke-linecap:butt;stroke-linejoin:miter;stroke:rgb(0%,0%,0%);stroke-opacity:1;stroke-miterlimit:10;" d="M 800 220 L 829.664062 220 L 841.664062 191.785156 L 853.664062 220 L 883.332031 220 L 859.332031 237.4375 L 867.417969 268.980469 L 841.664062 251.542969 L 815.914062 268.980469 L 828.214844 237.4375 L 800 220 "/>
<path style="fill-rule:nonzero;fill:rgb(55%,51%,53%);fill-opacity:1;stroke-width:1;stroke-linecap:butt;stroke-linejoin:miter;stroke:rgb(0%,0%,0%);stroke-opacity:1;stroke-miterlimit:10;" d="M 719 420 L 748.664062 420 L 760.664062 391.785156 L 772.664062 420 L 802.332031 420 L 778.332031 437.4375 L 786.417969 468.980469 L 760.664062 451.542969 L 734.914062 468.980469 L 747.214844 437.4375 L 719 420 "/>
<path style="fill-rule:nonzero;fill:rgb(53%,27%,7%);fill-opacity:1;stroke-width:1;stroke-linecap:butt;stroke-linejoin:miter;stroke:rgb(0%,0%,0%);stroke-opacity:1;stroke-miterlimit:10;" d="M 846 119 L 875.664062 119 L 887.664062 90.785156 L 899.664062 119 L 929.332031 119 L 905.332031 136.4375 L 913.417969 167.980469 L 887.664062 150.542969 L 861.914062 167.980469 L 874.214844 136.4375 L 846 119 "/>
</g>
</svg>
