<?xml version="1.0" encoding="UTF-8"?>
<svg xmlns="http://www.w3.org/2000/svg" xmlns:xlink="http://www.w3.org/1999/xlink" width="1179pt" height="517pt" viewBox="0 0 1179 517" version="1.1">
<g id="surface281">
<rect x="0" y="0" width="1179" height="517" style="fill:rgb(90%,90%,90%);fill-opacity:1;stroke:none;"/>
<path style="fill-rule:nonzero;fill:rgb(100%,51%,0%);fill-opacity:1;stroke-width:1;stroke-linecap:butt;stroke-linejoin:miter;stroke:rgb(0%,0%,0%);stroke-opacity:1;stroke-miterlimit:10;" d="M 187 191 L 216.664062 191 L 228.664062 162.785156 L 240.664062 191 L 270.332031 191 L 246.332031 208.4375 L 254.417969 239.980469 L 228.664062 222.542969 L 202.914062 239.980469 L 215.214844 208.4375 L 187 191 "/>
<path style="fill-rule:nonzero;fill:rgb(100%,51%,0%);fill-opacity:1;stroke-width:1;stroke-linecap:butt;stroke-linejoin:miter;stroke:rgb(0%,0%,0%);stroke-opacity:1;stroke-miterlimit:10;" d="M 169 408 L 198.664062 408 L 210.664062 379.785156 L 222.664062 408 L 252.332031 408 L 228.332031 425.4375 L 236.417969 456.980469 L 210.664062 439.542969 L 184.914062 456.980469 L 197.214844 425.4375 L 169 408 "/>
<path style="fill-rule:nonzero;fill:rgb(53%,27%,7%);fill-opacity:1;stroke-width:1;stroke-linecap:butt;stroke-linejoin:miter;stroke:rgb(0%,0%,0%);stroke-opacity:1;stroke-miterlimit:10;" d="M 338 313 L 367.664062 313 L 379.664062 284.785156 L 391.664062 313 L 421.332031 313 L 397.332031 330.4375 L 405.417969 361.980469 L 379.664062 344.542969 L 353.914062 361.980469 L 366.214844 330.4375 L 338 313 "/>
<path style="fill-rule:nonzero;fill:rgb(53%,27%,7%);fill-opacity:1;stroke-width:1;stroke-linecap:butt;stroke-linejoin:miter;stroke:rgb(0%,0%,0%);stroke-opacity:1;stroke-miterlimit:10;" d="M 425 217 L 454.664062 217 L 466.664062 188.785156 L 478.664062 217 L 508.332031 217 L 484.332031 234.4375 L 492.417969 265.980469 L 466.664062 248.542969 L 440.914062 265.980469 L 453.214844 234.4375 L 425 217 "/>
<path style="fill-rule:nonzero;fill:rgb(100%,51%,0%);fill-opacity:1;stroke-width:1;stroke-linecap:butt;stroke-linejoin:miter;stroke:rgb(0%,0%,0%);stroke-opacity:1;stroke-miterlimit:10;" d="M 84 305 L 113.664062 305 L 125.664062 276.785156 L 137.664062 305 L 167.332031 305 L 143.332031 322.4375 L 151.417969 353.980469 L 125.664062 336.542969 L 99.914062 353.980469 L 112.214844 322.4375 L 84 305 "/>
<path style="fill-rule:nonzero;fill:rgb(53%,27%,7%);fill-opacity:1;stroke-width:1;stroke-linecap:butt;stroke-linejoin:miter;stroke:rgb(0%,0%,0%);stroke-opacity:1;stroke-miterlimit:10;" d="M 878.785156 381.785156 L 878.785156 424.214844 L 921.214844 424.214844 L 921.214844 381.785156 L 878.785156 381.785156 "/>
<path style="fill-rule:nonzero;fill:rgb(53%,27%,7%);fill-opacity:1;stroke-width:1;stroke-linecap:butt;stroke-linejoin:miter;stroke:rgb(0%,0%,0%);stroke-opacity:1;stroke-miterlimit:10;" d="M 869.785156 155.785156 L 869.785156 198.214844 L 912.214844 198.214844 L 912.214844 155.785156 L 869.785156 155.785156 "/>
<path style="fill-rule:nonzero;fill:rgb(100%,51%,0%);fill-opacity:1;stroke-width:1;stroke-linecap:butt;stroke-linejoin:miter;stroke:rgb(0%,0%,0%);stroke-opacity:1;stroke-miterlimit:10;" d="M 1000.785156 148.785156 L 1000.785156 191.214844 L 1043.214844 191.214844 L 1043.214844 148.785156 L 1000.785156 148.785156 "/>
</g>
</svg>
