<?xml version="1.0" encoding="UTF-8"?>
<svg xmlns="http://www.w3.org/2000/svg" xmlns:xlink="http://www.w3.org/1999/xlink" width="1179pt" height="517pt" viewBox="0 0 1179 517" version="1.1">
<g id="surface1396">
<rect x="0" y="0" width="1179" height="517" style="fill:rgb(90%,90%,90%);fill-opacity:1;stroke:none;"/>
<path style="fill-rule:nonzero;fill:rgb(35%,70%,90%);fill-opacity:1;stroke-width:1;stroke-linecap:butt;stroke-linejoin:miter;stroke:rgb(0%,0%,0%);stroke-opacity:1;stroke-miterlimit:10;" d="M 611 157.601562 C 611 143.199219 587 143.199219 587 157.601562 C 587 172 611 174.398438 611 186.398438 C 611 174.398438 635 172 635 157.601562 C 635 143.199219 611 143.199219 611 157.601562 "/>
<path style="fill-rule:nonzero;fill:rgb(35%,70%,90%);fill-opacity:1;stroke-width:1;stroke-linecap:butt;stroke-linejoin:miter;stroke:rgb(0%,0%,0%);stroke-opacity:1;stroke-miterlimit:10;" d="M 228 308.601562 C 228 294.199219 204 294.199219 204 308.601562 C 204 323 228 325.398438 228 337.398438 C 228 325.398438 252 323 252 308.601562 C 252 294.199219 228 294.199219 228 308.601562 "/>
<path style="fill-rule:nonzero;fill:rgb(35%,70%,90%);fill-opacity:1;stroke-width:1;stroke-linecap:butt;stroke-linejoin:miter;stroke:rgb(0%,0%,0%);stroke-opacity:1;stroke-miterlimit:10;" d="M 888 218.601562 C 888 204.199219 864 204.199219 864 218.601562 C 864 233 888 235.398438 888 247.398438 C 888 235.398438 912 233 912 218.601562 C 912 204.199219 888 204.199219 888 218.601562 "/>
<path style="fill-rule:nonzero;fill:rgb(35%,70%,90%);fill-opacity:1;stroke-width:1;stroke-linecap:butt;stroke-linejoin:miter;stroke:rgb(0%,0%,0%);stroke-opacity:1;stroke-miterlimit:10;" d="M 479 237.601562 C 479 223.199219 455 223.199219 455 237.601562 C 455 252 479 254.398438 479 266.398438 C 479 254.398438 503 252 503 237.601562 C 503 223.199219 479 223.199219 479 237.601562 "/>
<path style="fill-rule:nonzero;fill:rgb(35%,70%,90%);fill-opacity:1;stroke-width:1;stroke-linecap:butt;stroke-linejoin:miter;stroke:rgb(0%,0%,0%);stroke-opacity:1;stroke-miterlimit:10;" d="M 853 380.601562 C 853 366.199219 829 366.199219 829 380.601562 C 829 395 853 397.398438 853 409.398438 C 853 397.398438 877 395 877 380.601562 C 877 366.199219 853 366.199219 853 380.601562 "/>
<path style="fill-rule:nonzero;fill:rgb(53%,27%,7%);fill-opacity:1;stroke-width:1;stroke-linecap:butt;stroke-linejoin:miter;stroke:rgb(0%,0%,0%);stroke-opacity:1;stroke-miterlimit:10;" d="M 685.214844 425 C 685.214844 436.714844 675.714844 446.214844 664 446.214844 C 652.285156 446.214844 642.785156 436.714844 642.785156 425 C 642.785156 413.285156 652.285156 403.785156 664 403.785156 C 675.714844 403.785156 685.214844 413.285156 685.214844 425 "/>
<path style="fill-rule:nonzero;fill:rgb(53%,27%,7%);fill-opacity:1;stroke-width:1;stroke-linecap:butt;stroke-linejoin:miter;stroke:rgb(0%,0%,0%);stroke-opacity:1;stroke-miterlimit:10;" d="M 129.214844 151 C 129.214844 162.714844 119.714844 172.214844 108 172.214844 C 96.285156 172.214844 86.785156 162.714844 86.785156 151 C 86.785156 139.285156 96.285156 129.785156 108 129.785156 C 119.714844 129.785156 129.214844 139.285156 129.214844 151 "/>
<path style="fill-rule:nonzero;fill:rgb(53%,27%,7%);fill-opacity:1;stroke-width:1;stroke-linecap:butt;stroke-linejoin:miter;stroke:rgb(0%,0%,0%);stroke-opacity:1;stroke-miterlimit:10;" d="M 1060.214844 429 C 1060.214844 440.714844 1050.714844 450.214844 1039 450.214844 C 1027.285156 450.214844 1017.785156 440.714844 1017.785156 429 C 1017.785156 417.285156 1027.285156 407.785156 1039 407.785156 C 1050.714844 407.785156 1060.214844 417.285156 1060.214844 429 "/>
</g>
</svg>
