<?xml version="1.0" encoding="UTF-8"?>
<svg xmlns="http://www.w3.org/2000/svg" xmlns:xlink="http://www.w3.org/1999/xlink" width="1179pt" height="517pt" viewBox="0 0 1179 517" version="1.1">
<g id="surface1311">
<rect x="0" y="0" width="1179" height="517" style="fill:rgb(90%,90%,90%);fill-opacity:1;stroke:none;"/>
<path style="fill-rule:nonzero;fill:rgb(100%,51%,0%);fill-opacity:1;stroke-width:1;stroke-linecap:butt;stroke-linejoin:miter;stroke:rgb(0%,0%,0%);stroke-opacity:1;stroke-miterlimit:10;" d="M 967 214 L 996.664062 214 L 1008.664062 185.785156 L 1020.664062 214 L 1050.332031 214 L 1026.332031 231.4375 L 1034.417969 262.980469 L 1008.664062 245.542969 L 982.914062 262.980469 L 995.214844 231.4375 L 967 214 "/>
<path style="fill-rule:nonzero;fill:rgb(100%,51%,0%);fill-opacity:1;stroke-width:1;stroke-linecap:butt;stroke-linejoin:miter;stroke:rgb(0%,0%,0%);stroke-opacity:1;stroke-miterlimit:10;" d="M 861 342 L 890.664062 342 L 902.664062 313.785156 L 914.664062 342 L 944.332031 342 L 920.332031 359.4375 L 928.417969 390.980469 L 902.664062 373.542969 L 876.914062 390.980469 L 889.214844 359.4375 L 861 342 "/>
<path style="fill-rule:nonzero;fill:rgb(100%,51%,0%);fill-opacity:1;stroke-width:1;stroke-linecap:butt;stroke-linejoin:miter;stroke:rgb(0%,0%,0%);stroke-opacity:1;stroke-miterlimit:10;" d="M 866 88 L 895.664062 88 L 907.664062 59.785156 L 919.664062 88 L 949.332031 88 L 925.332031 105.4375 L 933.417969 136.980469 L 907.664062 119.542969 L 881.914062 136.980469 L 894.214844 105.4375 L 866 88 "/>
<path style="fill-rule:nonzero;fill:rgb(100%,51%,0%);fill-opacity:1;stroke-width:1;stroke-linecap:butt;stroke-linejoin:miter;stroke:rgb(0%,0%,0%);stroke-opacity:1;stroke-miterlimit:10;" d="M 1023 432 L 1052.664062 432 L 1064.664062 403.785156 L 1076.664062 432 L 1106.332031 432 L 1082.332031 449.4375 L 1090.417969 480.980469 L 1064.664062 463.542969 L 1038.914062 480.980469 L 1051.214844 449.4375 L 1023 432 "/>
<path style="fill-rule:nonzero;fill:rgb(55%,51%,53%);fill-opacity:1;stroke-width:1;stroke-linecap:butt;stroke-linejoin:miter;stroke:rgb(0%,0%,0%);stroke-opacity:1;stroke-miterlimit:10;" d="M 553.214844 417 C 553.214844 428.714844 543.714844 438.214844 532 438.214844 C 520.285156 438.214844 510.785156 428.714844 510.785156 417 C 510.785156 405.285156 520.285156 395.785156 532 395.785156 C 543.714844 395.785156 553.214844 405.285156 553.214844 417 "/>
<path style="fill-rule:nonzero;fill:rgb(55%,51%,53%);fill-opacity:1;stroke-width:1;stroke-linecap:butt;stroke-linejoin:miter;stroke:rgb(0%,0%,0%);stroke-opacity:1;stroke-miterlimit:10;" d="M 492.214844 94 C 492.214844 105.714844 482.714844 115.214844 471 115.214844 C 459.285156 115.214844 449.785156 105.714844 449.785156 94 C 449.785156 82.285156 459.285156 72.785156 471 72.785156 C 482.714844 72.785156 492.214844 82.285156 492.214844 94 "/>
<path style="fill-rule:nonzero;fill:rgb(55%,51%,53%);fill-opacity:1;stroke-width:1;stroke-linecap:butt;stroke-linejoin:miter;stroke:rgb(0%,0%,0%);stroke-opacity:1;stroke-miterlimit:10;" d="M 147.214844 363 C 147.214844 374.714844 137.714844 384.214844 126 384.214844 C 114.285156 384.214844 104.785156 374.714844 104.785156 363 C 104.785156 351.285156 114.285156 341.785156 126 341.785156 C 137.714844 341.785156 147.214844 351.285156 147.214844 363 "/>
<path style="fill-rule:nonzero;fill:rgb(55%,51%,53%);fill-opacity:1;stroke-width:1;stroke-linecap:butt;stroke-linejoin:miter;stroke:rgb(0%,0%,0%);stroke-opacity:1;stroke-miterlimit:10;" d="M 121.214844 167 C 121.214844 178.714844 111.714844 188.214844 100 188.214844 C 88.285156 188.214844 78.785156 178.714844 78.785156 167 C 78.785156 155.285156 88.285156 145.785156 100 145.785156 C 111.714844 145.785156 121.214844 155.285156 121.214844 167 "/>
<path style="fill-rule:nonzero;fill:rgb(55%,51%,53%);fill-opacity:1;stroke-width:1;stroke-linecap:butt;stroke-linejoin:miter;stroke:rgb(0%,0%,0%);stroke-opacity:1;stroke-miterlimit:10;" d="M 340.214844 201 C 340.214844 212.714844 330.714844 222.214844 319 222.214844 C 307.285156 222.214844 297.785156 212.714844 297.785156 201 C 297.785156 189.285156 307.285156 179.785156 319 179.785156 C 330.714844 179.785156 340.214844 189.285156 340.214844 201 "/>
</g>
</svg>
