<?xml version="1.0" encoding="UTF-8"?>
<svg xmlns="http://www.w3.org/2000/svg" xmlns:xlink="http://www.w3.org/1999/xlink" width="1179pt" height="517pt" viewBox="0 0 1179 517" version="1.1">
<g id="surface11">
<rect x="0" y="0" width="1179" height="517" style="fill:rgb(90%,90%,90%);fill-opacity:1;stroke:none;"/>
<path style="fill-rule:nonzero;fill:rgb(35%,70%,90%);fill-opacity:1;stroke-width:1;stroke-linecap:butt;stroke-linejoin:miter;stroke:rgb(0%,0%,0%);stroke-opacity:1;stroke-miterlimit:10;" d="M 138 202 L 167.664062 202 L 179.664062 173.785156 L 191.664062 202 L 221.332031 202 L 197.332031 219.4375 L 205.417969 250.980469 L 179.664062 233.542969 L 153.914062 250.980469 L 166.214844 219.4375 L 138 202 "/>
<path style="fill-rule:nonzero;fill:rgb(35%,70%,90%);fill-opacity:1;stroke-width:1;stroke-linecap:butt;stroke-linejoin:miter;stroke:rgb(0%,0%,0%);stroke-opacity:1;stroke-miterlimit:10;" d="M 352 405 L 381.664062 405 L 393.664062 376.785156 L 405.664062 405 L 435.332031 405 L 411.332031 422.4375 L 419.417969 453.980469 L 393.664062 436.542969 L 367.914062 453.980469 L 380.214844 422.4375 L 352 405 "/>
<path style="fill-rule:nonzero;fill:rgb(35%,70%,90%);fill-opacity:1;stroke-width:1;stroke-linecap:butt;stroke-linejoin:miter;stroke:rgb(0%,0%,0%);stroke-opacity:1;stroke-miterlimit:10;" d="M 154.785156 352.785156 L 154.785156 395.214844 L 197.214844 395.214844 L 197.214844 352.785156 L 154.785156 352.785156 "/>
<path style="fill-rule:nonzero;fill:rgb(35%,70%,90%);fill-opacity:1;stroke-width:1;stroke-linecap:butt;stroke-linejoin:miter;stroke:rgb(0%,0%,0%);stroke-opacity:1;stroke-miterlimit:10;" d="M 397 281 L 426.664062 281 L 438.664062 252.785156 L 450.664062 281 L 480.332031 281 L 456.332031 298.4375 L 464.417969 329.980469 L 438.664062 312.542969 L 412.914062 329.980469 L 425.214844 298.4375 L 397 281 "/>
<path style="fill-rule:nonzero;fill:rgb(100%,51%,0%);fill-opacity:1;stroke-width:1;stroke-linecap:butt;stroke-linejoin:miter;stroke:rgb(0%,0%,0%);stroke-opacity:1;stroke-miterlimit:10;" d="M 707.785156 297.785156 L 707.785156 340.214844 L 750.214844 340.214844 L 750.214844 297.785156 L 707.785156 297.785156 "/>
<path style="fill-rule:nonzero;fill:rgb(100%,51%,0%);fill-opacity:1;stroke-width:1;stroke-linecap:butt;stroke-linejoin:miter;stroke:rgb(0%,0%,0%);stroke-opacity:1;stroke-miterlimit:10;" d="M 1018.785156 313.785156 L 1018.785156 356.214844 L 1061.214844 356.214844 L 1061.214844 313.785156 L 1018.785156 313.785156 "/>
<path style="fill-rule:nonzero;fill:rgb(100%,51%,0%);fill-opacity:1;stroke-width:1;stroke-linecap:butt;stroke-linejoin:miter;stroke:rgb(0%,0%,0%);stroke-opacity:1;stroke-miterlimit:10;" d="M 866 281 L 895.664062 281 L 907.664062 252.785156 L 919.664062 281 L 949.332031 281 L 925.332031 298.4375 L 933.417969 329.980469 L 907.664062 312.542969 L 881.914062 329.980469 L 894.214844 298.4375 L 866 281 "/>
</g>
</svg>
