<?xml version="1.0" encoding="UTF-8"?>
<svg xmlns="http://www.w3.org/2000/svg" xmlns:xlink="http://www.w3.org/1999/xlink" width="1179pt" height="517pt" viewBox="0 0 1179 517" version="1.1">
<g id="surface606">
<rect x="0" y="0" width="1179" height="517" style="fill:rgb(90%,90%,90%);fill-opacity:1;stroke:none;"/>
<path style="fill-rule:nonzero;fill:rgb(35%,70%,90%);fill-opacity:1;stroke-width:1;stroke-linecap:butt;stroke-linejoin:miter;stroke:rgb(0%,0%,0%);stroke-opacity:1;stroke-miterlimit:10;" d="M 83 87 L 112.664062 87 L 124.664062 58.785156 L 136.664062 87 L 166.332031 87 L 142.332031 104.4375 L 150.417969 135.980469 L 124.664062 118.542969 L 98.914062 135.980469 L 111.214844 104.4375 L 83 87 "/>
<path style="fill-rule:nonzero;fill:rgb(35%,70%,90%);fill-opacity:1;stroke-width:1;stroke-linecap:butt;stroke-linejoin:miter;stroke:rgb(0%,0%,0%);stroke-opacity:1;stroke-miterlimit:10;" d="M 266 330 L 295.664062 330 L 307.664062 301.785156 L 319.664062 330 L 349.332031 330 L 325.332031 347.4375 L 333.417969 378.980469 L 307.664062 361.542969 L 281.914062 378.980469 L 294.214844 347.4375 L 266 330 "/>
<path style="fill-rule:nonzero;fill:rgb(35%,70%,90%);fill-opacity:1;stroke-width:1;stroke-linecap:butt;stroke-linejoin:miter;stroke:rgb(0%,0%,0%);stroke-opacity:1;stroke-miterlimit:10;" d="M 314 155 L 343.664062 155 L 355.664062 126.785156 L 367.664062 155 L 397.332031 155 L 373.332031 172.4375 L 381.417969 203.980469 L 355.664062 186.542969 L 329.914062 203.980469 L 342.214844 172.4375 L 314 155 "/>
<path style="fill-rule:nonzero;fill:rgb(35%,70%,90%);fill-opacity:1;stroke-width:1;stroke-linecap:butt;stroke-linejoin:miter;stroke:rgb(0%,0%,0%);stroke-opacity:1;stroke-miterlimit:10;" d="M 698 319 L 727.664062 319 L 739.664062 290.785156 L 751.664062 319 L 781.332031 319 L 757.332031 336.4375 L 765.417969 367.980469 L 739.664062 350.542969 L 713.914062 367.980469 L 726.214844 336.4375 L 698 319 "/>
<path style="fill-rule:nonzero;fill:rgb(35%,70%,90%);fill-opacity:1;stroke-width:1;stroke-linecap:butt;stroke-linejoin:miter;stroke:rgb(0%,0%,0%);stroke-opacity:1;stroke-miterlimit:10;" d="M 754 140 L 783.664062 140 L 795.664062 111.785156 L 807.664062 140 L 837.332031 140 L 813.332031 157.4375 L 821.417969 188.980469 L 795.664062 171.542969 L 769.914062 188.980469 L 782.214844 157.4375 L 754 140 "/>
<path style="fill-rule:nonzero;fill:rgb(55%,51%,53%);fill-opacity:1;stroke-width:1;stroke-linecap:butt;stroke-linejoin:miter;stroke:rgb(0%,0%,0%);stroke-opacity:1;stroke-miterlimit:10;" d="M 534 391 L 508.019531 436 L 559.980469 436 L 534 391 "/>
<path style="fill-rule:nonzero;fill:rgb(55%,51%,53%);fill-opacity:1;stroke-width:1;stroke-linecap:butt;stroke-linejoin:miter;stroke:rgb(0%,0%,0%);stroke-opacity:1;stroke-miterlimit:10;" d="M 188 198 L 162.019531 243 L 213.980469 243 L 188 198 "/>
<path style="fill-rule:nonzero;fill:rgb(55%,51%,53%);fill-opacity:1;stroke-width:1;stroke-linecap:butt;stroke-linejoin:miter;stroke:rgb(0%,0%,0%);stroke-opacity:1;stroke-miterlimit:10;" d="M 1044 116 L 1018.019531 161 L 1069.980469 161 L 1044 116 "/>
<path style="fill-rule:nonzero;fill:rgb(55%,51%,53%);fill-opacity:1;stroke-width:1;stroke-linecap:butt;stroke-linejoin:miter;stroke:rgb(0%,0%,0%);stroke-opacity:1;stroke-miterlimit:10;" d="M 111 307 L 85.019531 352 L 136.980469 352 L 111 307 "/>
<path style="fill-rule:nonzero;fill:rgb(55%,51%,53%);fill-opacity:1;stroke-width:1;stroke-linecap:butt;stroke-linejoin:miter;stroke:rgb(0%,0%,0%);stroke-opacity:1;stroke-miterlimit:10;" d="M 552 82 L 526.019531 127 L 577.980469 127 L 552 82 "/>
</g>
</svg>
