<?xml version="1.0" encoding="UTF-8"?>
<svg xmlns="http://www.w3.org/2000/svg" xmlns:xlink="http://www.w3.org/1999/xlink" width="1179pt" height="517pt" viewBox="0 0 1179 517" version="1.1">
<g id="surface346">
<rect x="0" y="0" width="1179" height="517" style="fill:rgb(90%,90%,90%);fill-opacity:1;stroke:none;"/>
<path style="fill-rule:nonzero;fill:rgb(55%,51%,53%);fill-opacity:1;stroke-width:1;stroke-linecap:butt;stroke-linejoin:miter;stroke:rgb(0%,0%,0%);stroke-opacity:1;stroke-miterlimit:10;" d="M 224.214844 400 C 224.214844 411.714844 214.714844 421.214844 203 421.214844 C 191.285156 421.214844 181.785156 411.714844 181.785156 400 C 181.785156 388.285156 191.285156 378.785156 203 378.785156 C 214.714844 378.785156 224.214844 388.285156 224.214844 400 "/>
<path style="fill-rule:nonzero;fill:rgb(55%,51%,53%);fill-opacity:1;stroke-width:1;stroke-linecap:butt;stroke-linejoin:miter;stroke:rgb(0%,0%,0%);stroke-opacity:1;stroke-miterlimit:10;" d="M 194.214844 114 C 194.214844 125.714844 184.714844 135.214844 173 135.214844 C 161.285156 135.214844 151.785156 125.714844 151.785156 114 C 151.785156 102.285156 161.285156 92.785156 173 92.785156 C 184.714844 92.785156 194.214844 102.285156 194.214844 114 "/>
<path style="fill-rule:nonzero;fill:rgb(53%,27%,7%);fill-opacity:1;stroke-width:1;stroke-linecap:butt;stroke-linejoin:miter;stroke:rgb(0%,0%,0%);stroke-opacity:1;stroke-miterlimit:10;" d="M 404.214844 383 C 404.214844 394.714844 394.714844 404.214844 383 404.214844 C 371.285156 404.214844 361.785156 394.714844 361.785156 383 C 361.785156 371.285156 371.285156 361.785156 383 361.785156 C 394.714844 361.785156 404.214844 371.285156 404.214844 383 "/>
<path style="fill-rule:nonzero;fill:rgb(55%,51%,53%);fill-opacity:1;stroke-width:1;stroke-linecap:butt;stroke-linejoin:miter;stroke:rgb(0%,0%,0%);stroke-opacity:1;stroke-miterlimit:10;" d="M 406.214844 269 C 406.214844 280.714844 396.714844 290.214844 385 290.214844 C 373.285156 290.214844 363.785156 280.714844 363.785156 269 C 363.785156 257.285156 373.285156 247.785156 385 247.785156 C 396.714844 247.785156 406.214844 257.285156 406.214844 269 "/>
<path style="fill-rule:nonzero;fill:rgb(55%,51%,53%);fill-opacity:1;stroke-width:1;stroke-linecap:butt;stroke-linejoin:miter;stroke:rgb(0%,0%,0%);stroke-opacity:1;stroke-miterlimit:10;" d="M 278.214844 297 C 278.214844 308.714844 268.714844 318.214844 257 318.214844 C 245.285156 318.214844 235.785156 308.714844 235.785156 297 C 235.785156 285.285156 245.285156 275.785156 257 275.785156 C 268.714844 275.785156 278.214844 285.285156 278.214844 297 "/>
<path style="fill-rule:nonzero;fill:rgb(53%,27%,7%);fill-opacity:1;stroke-width:1;stroke-linecap:butt;stroke-linejoin:miter;stroke:rgb(0%,0%,0%);stroke-opacity:1;stroke-miterlimit:10;" d="M 823 154 L 797.019531 199 L 848.980469 199 L 823 154 "/>
<path style="fill-rule:nonzero;fill:rgb(53%,27%,7%);fill-opacity:1;stroke-width:1;stroke-linecap:butt;stroke-linejoin:miter;stroke:rgb(0%,0%,0%);stroke-opacity:1;stroke-miterlimit:10;" d="M 830 381 L 804.019531 426 L 855.980469 426 L 830 381 "/>
<path style="fill-rule:nonzero;fill:rgb(55%,51%,53%);fill-opacity:1;stroke-width:1;stroke-linecap:butt;stroke-linejoin:miter;stroke:rgb(0%,0%,0%);stroke-opacity:1;stroke-miterlimit:10;" d="M 964 325 L 938.019531 370 L 989.980469 370 L 964 325 "/>
<path style="fill-rule:nonzero;fill:rgb(53%,27%,7%);fill-opacity:1;stroke-width:1;stroke-linecap:butt;stroke-linejoin:miter;stroke:rgb(0%,0%,0%);stroke-opacity:1;stroke-miterlimit:10;" d="M 733 128 L 707.019531 173 L 758.980469 173 L 733 128 "/>
</g>
</svg>
