<?xml version="1.0" encoding="UTF-8"?>
<svg xmlns="http://www.w3.org/2000/svg" xmlns:xlink="http://www.w3.org/1999/xlink" width="1179pt" height="517pt" viewBox="0 0 1179 517" version="1.1">
<g id="surface1091">
<rect x="0" y="0" width="1179" height="517" style="fill:rgb(90%,90%,90%);fill-opacity:1;stroke:none;"/>
<path style="fill-rule:nonzero;fill:rgb(35%,70%,90%);fill-opacity:1;stroke-width:1;stroke-linecap:butt;stroke-linejoin:miter;stroke:rgb(0%,0%,0%);stroke-opacity:1;stroke-miterlimit:10;" d="M 998.214844 317 C 998.214844 328.714844 988.714844 338.214844 977 338.214844 C 965.285156 338.214844 955.785156 328.714844 955.785156 317 C 955.785156 305.285156 965.285156 295.785156 977 295.785156 C 988.714844 295.785156 998.214844 305.285156 998.214844 317 "/>
<path style="fill-rule:nonzero;fill:rgb(35%,70%,90%);fill-opacity:1;stroke-width:1;stroke-linecap:butt;stroke-linejoin:miter;stroke:rgb(0%,0%,0%);stroke-opacity:1;stroke-miterlimit:10;" d="M 195.214844 236 C 195.214844 247.714844 185.714844 257.214844 174 257.214844 C 162.285156 257.214844 152.785156 247.714844 152.785156 236 C 152.785156 224.285156 162.285156 214.785156 174 214.785156 C 185.714844 214.785156 195.214844 224.285156 195.214844 236 "/>
<path style="fill-rule:nonzero;fill:rgb(35%,70%,90%);fill-opacity:1;stroke-width:1;stroke-linecap:butt;stroke-linejoin:miter;stroke:rgb(0%,0%,0%);stroke-opacity:1;stroke-miterlimit:10;" d="M 392.214844 371 C 392.214844 382.714844 382.714844 392.214844 371 392.214844 C 359.285156 392.214844 349.785156 382.714844 349.785156 371 C 349.785156 359.285156 359.285156 349.785156 371 349.785156 C 382.714844 349.785156 392.214844 359.285156 392.214844 371 "/>
<path style="fill-rule:nonzero;fill:rgb(35%,70%,90%);fill-opacity:1;stroke-width:1;stroke-linecap:butt;stroke-linejoin:miter;stroke:rgb(0%,0%,0%);stroke-opacity:1;stroke-miterlimit:10;" d="M 300.214844 156 C 300.214844 167.714844 290.714844 177.214844 279 177.214844 C 267.285156 177.214844 257.785156 167.714844 257.785156 156 C 257.785156 144.285156 267.285156 134.785156 279 134.785156 C 290.714844 134.785156 300.214844 144.285156 300.214844 156 "/>
<path style="fill-rule:nonzero;fill:rgb(55%,51%,53%);fill-opacity:1;stroke-width:1;stroke-linecap:butt;stroke-linejoin:miter;stroke:rgb(0%,0%,0%);stroke-opacity:1;stroke-miterlimit:10;" d="M 606 364 L 635.664062 364 L 647.664062 335.785156 L 659.664062 364 L 689.332031 364 L 665.332031 381.4375 L 673.417969 412.980469 L 647.664062 395.542969 L 621.914062 412.980469 L 634.214844 381.4375 L 606 364 "/>
<path style="fill-rule:nonzero;fill:rgb(55%,51%,53%);fill-opacity:1;stroke-width:1;stroke-linecap:butt;stroke-linejoin:miter;stroke:rgb(0%,0%,0%);stroke-opacity:1;stroke-miterlimit:10;" d="M 655 162 L 684.664062 162 L 696.664062 133.785156 L 708.664062 162 L 738.332031 162 L 714.332031 179.4375 L 722.417969 210.980469 L 696.664062 193.542969 L 670.914062 210.980469 L 683.214844 179.4375 L 655 162 "/>
<path style="fill-rule:nonzero;fill:rgb(55%,51%,53%);fill-opacity:1;stroke-width:1;stroke-linecap:butt;stroke-linejoin:miter;stroke:rgb(0%,0%,0%);stroke-opacity:1;stroke-miterlimit:10;" d="M 796 341 L 825.664062 341 L 837.664062 312.785156 L 849.664062 341 L 879.332031 341 L 855.332031 358.4375 L 863.417969 389.980469 L 837.664062 372.542969 L 811.914062 389.980469 L 824.214844 358.4375 L 796 341 "/>
<path style="fill-rule:nonzero;fill:rgb(55%,51%,53%);fill-opacity:1;stroke-width:1;stroke-linecap:butt;stroke-linejoin:miter;stroke:rgb(0%,0%,0%);stroke-opacity:1;stroke-miterlimit:10;" d="M 862 195 L 891.664062 195 L 903.664062 166.785156 L 915.664062 195 L 945.332031 195 L 921.332031 212.4375 L 929.417969 243.980469 L 903.664062 226.542969 L 877.914062 243.980469 L 890.214844 212.4375 L 862 195 "/>
</g>
</svg>
