<?xml version="1.0" encoding="UTF-8"?>
<svg xmlns="http://www.w3.org/2000/svg" xmlns:xlink="http://www.w3.org/1999/xlink" width="1179pt" height="517pt" viewBox="0 0 1179 517" version="1.1">
<g id="surface911">
<rect x="0" y="0" width="1179" height="517" style="fill:rgb(90%,90%,90%);fill-opacity:1;stroke:none;"/>
<path style="fill-rule:nonzero;fill:rgb(35%,70%,90%);fill-opacity:1;stroke-width:1;stroke-linecap:butt;stroke-linejoin:miter;stroke:rgb(0%,0%,0%);stroke-opacity:1;stroke-miterlimit:10;" d="M 324 358 L 353.664062 358 L 365.664062 329.785156 L 377.664062 358 L 407.332031 358 L 383.332031 375.4375 L 391.417969 406.980469 L 365.664062 389.542969 L 339.914062 406.980469 L 352.214844 375.4375 L 324 358 "/>
<path style="fill-rule:nonzero;fill:rgb(35%,70%,90%);fill-opacity:1;stroke-width:1;stroke-linecap:butt;stroke-linejoin:miter;stroke:rgb(0%,0%,0%);stroke-opacity:1;stroke-miterlimit:10;" d="M 468 280 L 497.664062 280 L 509.664062 251.785156 L 521.664062 280 L 551.332031 280 L 527.332031 297.4375 L 535.417969 328.980469 L 509.664062 311.542969 L 483.914062 328.980469 L 496.214844 297.4375 L 468 280 "/>
<path style="fill-rule:nonzero;fill:rgb(35%,70%,90%);fill-opacity:1;stroke-width:1;stroke-linecap:butt;stroke-linejoin:miter;stroke:rgb(0%,0%,0%);stroke-opacity:1;stroke-miterlimit:10;" d="M 902 324 L 931.664062 324 L 943.664062 295.785156 L 955.664062 324 L 985.332031 324 L 961.332031 341.4375 L 969.417969 372.980469 L 943.664062 355.542969 L 917.914062 372.980469 L 930.214844 341.4375 L 902 324 "/>
<path style="fill-rule:nonzero;fill:rgb(35%,70%,90%);fill-opacity:1;stroke-width:1;stroke-linecap:butt;stroke-linejoin:miter;stroke:rgb(0%,0%,0%);stroke-opacity:1;stroke-miterlimit:10;" d="M 394 174 L 423.664062 174 L 435.664062 145.785156 L 447.664062 174 L 477.332031 174 L 453.332031 191.4375 L 461.417969 222.980469 L 435.664062 205.542969 L 409.914062 222.980469 L 422.214844 191.4375 L 394 174 "/>
<path style="fill-rule:nonzero;fill:rgb(55%,51%,53%);fill-opacity:1;stroke-width:1;stroke-linecap:butt;stroke-linejoin:miter;stroke:rgb(0%,0%,0%);stroke-opacity:1;stroke-miterlimit:10;" d="M 1049.214844 291 C 1049.214844 302.714844 1039.714844 312.214844 1028 312.214844 C 1016.285156 312.214844 1006.785156 302.714844 1006.785156 291 C 1006.785156 279.285156 1016.285156 269.785156 1028 269.785156 C 1039.714844 269.785156 1049.214844 279.285156 1049.214844 291 "/>
<path style="fill-rule:nonzero;fill:rgb(55%,51%,53%);fill-opacity:1;stroke-width:1;stroke-linecap:butt;stroke-linejoin:miter;stroke:rgb(0%,0%,0%);stroke-opacity:1;stroke-miterlimit:10;" d="M 869.214844 194 C 869.214844 205.714844 859.714844 215.214844 848 215.214844 C 836.285156 215.214844 826.785156 205.714844 826.785156 194 C 826.785156 182.285156 836.285156 172.785156 848 172.785156 C 859.714844 172.785156 869.214844 182.285156 869.214844 194 "/>
<path style="fill-rule:nonzero;fill:rgb(55%,51%,53%);fill-opacity:1;stroke-width:1;stroke-linecap:butt;stroke-linejoin:miter;stroke:rgb(0%,0%,0%);stroke-opacity:1;stroke-miterlimit:10;" d="M 197.214844 109 C 197.214844 120.714844 187.714844 130.214844 176 130.214844 C 164.285156 130.214844 154.785156 120.714844 154.785156 109 C 154.785156 97.285156 164.285156 87.785156 176 87.785156 C 187.714844 87.785156 197.214844 97.285156 197.214844 109 "/>
<path style="fill-rule:nonzero;fill:rgb(55%,51%,53%);fill-opacity:1;stroke-width:1;stroke-linecap:butt;stroke-linejoin:miter;stroke:rgb(0%,0%,0%);stroke-opacity:1;stroke-miterlimit:10;" d="M 120.214844 387 C 120.214844 398.714844 110.714844 408.214844 99 408.214844 C 87.285156 408.214844 77.785156 398.714844 77.785156 387 C 77.785156 375.285156 87.285156 365.785156 99 365.785156 C 110.714844 365.785156 120.214844 375.285156 120.214844 387 "/>
<path style="fill-rule:nonzero;fill:rgb(55%,51%,53%);fill-opacity:1;stroke-width:1;stroke-linecap:butt;stroke-linejoin:miter;stroke:rgb(0%,0%,0%);stroke-opacity:1;stroke-miterlimit:10;" d="M 720.214844 105 C 720.214844 116.714844 710.714844 126.214844 699 126.214844 C 687.285156 126.214844 677.785156 116.714844 677.785156 105 C 677.785156 93.285156 687.285156 83.785156 699 83.785156 C 710.714844 83.785156 720.214844 93.285156 720.214844 105 "/>
</g>
</svg>
