<?xml version="1.0" encoding="UTF-8"?>
<svg xmlns="http://www.w3.org/2000/svg" xmlns:xlink="http://www.w3.org/1999/xlink" width="1179pt" height="517pt" viewBox="0 0 1179 517" version="1.1">
<g id="surface701">
<rect x="0" y="0" width="1179" height="517" style="fill:rgb(90%,90%,90%);fill-opacity:1;stroke:none;"/>
<path style="fill-rule:nonzero;fill:rgb(55%,51%,53%);fill-opacity:1;stroke-width:1;stroke-linecap:butt;stroke-linejoin:miter;stroke:rgb(0%,0%,0%);stroke-opacity:1;stroke-miterlimit:10;" d="M 325 272 L 354.664062 272 L 366.664062 243.785156 L 378.664062 272 L 408.332031 272 L 384.332031 289.4375 L 392.417969 320.980469 L 366.664062 303.542969 L 340.914062 320.980469 L 353.214844 289.4375 L 325 272 "/>
<path style="fill-rule:nonzero;fill:rgb(53%,27%,7%);fill-opacity:1;stroke-width:1;stroke-linecap:butt;stroke-linejoin:miter;stroke:rgb(0%,0%,0%);stroke-opacity:1;stroke-miterlimit:10;" d="M 92 334 L 121.664062 334 L 133.664062 305.785156 L 145.664062 334 L 175.332031 334 L 151.332031 351.4375 L 159.417969 382.980469 L 133.664062 365.542969 L 107.914062 382.980469 L 120.214844 351.4375 L 92 334 "/>
<path style="fill-rule:nonzero;fill:rgb(53%,27%,7%);fill-opacity:1;stroke-width:1;stroke-linecap:butt;stroke-linejoin:miter;stroke:rgb(0%,0%,0%);stroke-opacity:1;stroke-miterlimit:10;" d="M 405 416 L 434.664062 416 L 446.664062 387.785156 L 458.664062 416 L 488.332031 416 L 464.332031 433.4375 L 472.417969 464.980469 L 446.664062 447.542969 L 420.914062 464.980469 L 433.214844 433.4375 L 405 416 "/>
<path style="fill-rule:nonzero;fill:rgb(55%,51%,53%);fill-opacity:1;stroke-width:1;stroke-linecap:butt;stroke-linejoin:miter;stroke:rgb(0%,0%,0%);stroke-opacity:1;stroke-miterlimit:10;" d="M 360 174 L 389.664062 174 L 401.664062 145.785156 L 413.664062 174 L 443.332031 174 L 419.332031 191.4375 L 427.417969 222.980469 L 401.664062 205.542969 L 375.914062 222.980469 L 388.214844 191.4375 L 360 174 "/>
<path style="fill-rule:nonzero;fill:rgb(53%,27%,7%);fill-opacity:1;stroke-width:1;stroke-linecap:butt;stroke-linejoin:miter;stroke:rgb(0%,0%,0%);stroke-opacity:1;stroke-miterlimit:10;" d="M 783.785156 292.785156 L 783.785156 335.214844 L 826.214844 335.214844 L 826.214844 292.785156 L 783.785156 292.785156 "/>
<path style="fill-rule:nonzero;fill:rgb(55%,51%,53%);fill-opacity:1;stroke-width:1;stroke-linecap:butt;stroke-linejoin:miter;stroke:rgb(0%,0%,0%);stroke-opacity:1;stroke-miterlimit:10;" d="M 829.785156 379.785156 L 829.785156 422.214844 L 872.214844 422.214844 L 872.214844 379.785156 L 829.785156 379.785156 "/>
<path style="fill-rule:nonzero;fill:rgb(55%,51%,53%);fill-opacity:1;stroke-width:1;stroke-linecap:butt;stroke-linejoin:miter;stroke:rgb(0%,0%,0%);stroke-opacity:1;stroke-miterlimit:10;" d="M 672.785156 189.785156 L 672.785156 232.214844 L 715.214844 232.214844 L 715.214844 189.785156 L 672.785156 189.785156 "/>
</g>
</svg>
