<?xml version="1.0" encoding="UTF-8"?>
<svg xmlns="http://www.w3.org/2000/svg" xmlns:xlink="http://www.w3.org/1999/xlink" width="1179pt" height="517pt" viewBox="0 0 1179 517" version="1.1">
<g id="surface1141">
<rect x="0" y="0" width="1179" height="517" style="fill:rgb(90%,90%,90%);fill-opacity:1;stroke:none;"/>
<path style="fill-rule:nonzero;fill:rgb(53%,27%,7%);fill-opacity:1;stroke-width:1;stroke-linecap:butt;stroke-linejoin:miter;stroke:rgb(0%,0%,0%);stroke-opacity:1;stroke-miterlimit:10;" d="M 551.214844 132 C 551.214844 143.714844 541.714844 153.214844 530 153.214844 C 518.285156 153.214844 508.785156 143.714844 508.785156 132 C 508.785156 120.285156 518.285156 110.785156 530 110.785156 C 541.714844 110.785156 551.214844 120.285156 551.214844 132 "/>
<path style="fill-rule:nonzero;fill:rgb(53%,27%,7%);fill-opacity:1;stroke-width:1;stroke-linecap:butt;stroke-linejoin:miter;stroke:rgb(0%,0%,0%);stroke-opacity:1;stroke-miterlimit:10;" d="M 147.214844 354 C 147.214844 365.714844 137.714844 375.214844 126 375.214844 C 114.285156 375.214844 104.785156 365.714844 104.785156 354 C 104.785156 342.285156 114.285156 332.785156 126 332.785156 C 137.714844 332.785156 147.214844 342.285156 147.214844 354 "/>
<path style="fill-rule:nonzero;fill:rgb(53%,27%,7%);fill-opacity:1;stroke-width:1;stroke-linecap:butt;stroke-linejoin:miter;stroke:rgb(0%,0%,0%);stroke-opacity:1;stroke-miterlimit:10;" d="M 497.214844 370 C 497.214844 381.714844 487.714844 391.214844 476 391.214844 C 464.285156 391.214844 454.785156 381.714844 454.785156 370 C 454.785156 358.285156 464.285156 348.785156 476 348.785156 C 487.714844 348.785156 497.214844 358.285156 497.214844 370 "/>
<path style="fill-rule:nonzero;fill:rgb(53%,27%,7%);fill-opacity:1;stroke-width:1;stroke-linecap:butt;stroke-linejoin:miter;stroke:rgb(0%,0%,0%);stroke-opacity:1;stroke-miterlimit:10;" d="M 1007.214844 355 C 1007.214844 366.714844 997.714844 376.214844 986 376.214844 C 974.285156 376.214844 964.785156 366.714844 964.785156 355 C 964.785156 343.285156 974.285156 333.785156 986 333.785156 C 997.714844 333.785156 1007.214844 343.285156 1007.214844 355 "/>
<path style="fill-rule:nonzero;fill:rgb(55%,51%,53%);fill-opacity:1;stroke-width:1;stroke-linecap:butt;stroke-linejoin:miter;stroke:rgb(0%,0%,0%);stroke-opacity:1;stroke-miterlimit:10;" d="M 680 177 L 654.019531 222 L 705.980469 222 L 680 177 "/>
<path style="fill-rule:nonzero;fill:rgb(55%,51%,53%);fill-opacity:1;stroke-width:1;stroke-linecap:butt;stroke-linejoin:miter;stroke:rgb(0%,0%,0%);stroke-opacity:1;stroke-miterlimit:10;" d="M 276 116 L 250.019531 161 L 301.980469 161 L 276 116 "/>
<path style="fill-rule:nonzero;fill:rgb(55%,51%,53%);fill-opacity:1;stroke-width:1;stroke-linecap:butt;stroke-linejoin:miter;stroke:rgb(0%,0%,0%);stroke-opacity:1;stroke-miterlimit:10;" d="M 100 206 L 74.019531 251 L 125.980469 251 L 100 206 "/>
</g>
</svg>
