<?xml version="1.0" encoding="UTF-8"?>
<svg xmlns="http://www.w3.org/2000/svg" xmlns:xlink="http://www.w3.org/1999/xlink" width="1179pt" height="517pt" viewBox="0 0 1179 517" version="1.1">
<g id="surface1456">
<rect x="0" y="0" width="1179" height="517" style="fill:rgb(90%,90%,90%);fill-opacity:1;stroke:none;"/>
<path style="fill-rule:nonzero;fill:rgb(100%,51%,0%);fill-opacity:1;stroke-width:1;stroke-linecap:butt;stroke-linejoin:miter;stroke:rgb(0%,0%,0%);stroke-opacity:1;stroke-miterlimit:10;" d="M 585 270 L 614.664062 270 L 626.664062 241.785156 L 638.664062 270 L 668.332031 270 L 644.332031 287.4375 L 652.417969 318.980469 L 626.664062 301.542969 L 600.914062 318.980469 L 613.214844 287.4375 L 585 270 "/>
<path style="fill-rule:nonzero;fill:rgb(100%,51%,0%);fill-opacity:1;stroke-width:1;stroke-linecap:butt;stroke-linejoin:miter;stroke:rgb(0%,0%,0%);stroke-opacity:1;stroke-miterlimit:10;" d="M 125 155 L 154.664062 155 L 166.664062 126.785156 L 178.664062 155 L 208.332031 155 L 184.332031 172.4375 L 192.417969 203.980469 L 166.664062 186.542969 L 140.914062 203.980469 L 153.214844 172.4375 L 125 155 "/>
<path style="fill-rule:nonzero;fill:rgb(100%,51%,0%);fill-opacity:1;stroke-width:1;stroke-linecap:butt;stroke-linejoin:miter;stroke:rgb(0%,0%,0%);stroke-opacity:1;stroke-miterlimit:10;" d="M 770 305 L 799.664062 305 L 811.664062 276.785156 L 823.664062 305 L 853.332031 305 L 829.332031 322.4375 L 837.417969 353.980469 L 811.664062 336.542969 L 785.914062 353.980469 L 798.214844 322.4375 L 770 305 "/>
<path style="fill-rule:nonzero;fill:rgb(100%,51%,0%);fill-opacity:1;stroke-width:1;stroke-linecap:butt;stroke-linejoin:miter;stroke:rgb(0%,0%,0%);stroke-opacity:1;stroke-miterlimit:10;" d="M 393 409 L 422.664062 409 L 434.664062 380.785156 L 446.664062 409 L 476.332031 409 L 452.332031 426.4375 L 460.417969 457.980469 L 434.664062 440.542969 L 408.914062 457.980469 L 421.214844 426.4375 L 393 409 "/>
<path style="fill-rule:nonzero;fill:rgb(53%,27%,7%);fill-opacity:1;stroke-width:1;stroke-linecap:butt;stroke-linejoin:miter;stroke:rgb(0%,0%,0%);stroke-opacity:1;stroke-miterlimit:10;" d="M 1056.214844 402 C 1056.214844 413.714844 1046.714844 423.214844 1035 423.214844 C 1023.285156 423.214844 1013.785156 413.714844 1013.785156 402 C 1013.785156 390.285156 1023.285156 380.785156 1035 380.785156 C 1046.714844 380.785156 1056.214844 390.285156 1056.214844 402 "/>
<path style="fill-rule:nonzero;fill:rgb(53%,27%,7%);fill-opacity:1;stroke-width:1;stroke-linecap:butt;stroke-linejoin:miter;stroke:rgb(0%,0%,0%);stroke-opacity:1;stroke-miterlimit:10;" d="M 619.214844 145 C 619.214844 156.714844 609.714844 166.214844 598 166.214844 C 586.285156 166.214844 576.785156 156.714844 576.785156 145 C 576.785156 133.285156 586.285156 123.785156 598 123.785156 C 609.714844 123.785156 619.214844 133.285156 619.214844 145 "/>
<path style="fill-rule:nonzero;fill:rgb(53%,27%,7%);fill-opacity:1;stroke-width:1;stroke-linecap:butt;stroke-linejoin:miter;stroke:rgb(0%,0%,0%);stroke-opacity:1;stroke-miterlimit:10;" d="M 603.214844 405 C 603.214844 416.714844 593.714844 426.214844 582 426.214844 C 570.285156 426.214844 560.785156 416.714844 560.785156 405 C 560.785156 393.285156 570.285156 383.785156 582 383.785156 C 593.714844 383.785156 603.214844 393.285156 603.214844 405 "/>
<path style="fill-rule:nonzero;fill:rgb(53%,27%,7%);fill-opacity:1;stroke-width:1;stroke-linecap:butt;stroke-linejoin:miter;stroke:rgb(0%,0%,0%);stroke-opacity:1;stroke-miterlimit:10;" d="M 312.214844 92 C 312.214844 103.714844 302.714844 113.214844 291 113.214844 C 279.285156 113.214844 269.785156 103.714844 269.785156 92 C 269.785156 80.285156 279.285156 70.785156 291 70.785156 C 302.714844 70.785156 312.214844 80.285156 312.214844 92 "/>
<path style="fill-rule:nonzero;fill:rgb(53%,27%,7%);fill-opacity:1;stroke-width:1;stroke-linecap:butt;stroke-linejoin:miter;stroke:rgb(0%,0%,0%);stroke-opacity:1;stroke-miterlimit:10;" d="M 439.214844 121 C 439.214844 132.714844 429.714844 142.214844 418 142.214844 C 406.285156 142.214844 396.785156 132.714844 396.785156 121 C 396.785156 109.285156 406.285156 99.785156 418 99.785156 C 429.714844 99.785156 439.214844 109.285156 439.214844 121 "/>
</g>
</svg>
