<?xml version="1.0" encoding="UTF-8"?>
<svg xmlns="http://www.w3.org/2000/svg" xmlns:xlink="http://www.w3.org/1999/xlink" width="1179pt" height="517pt" viewBox="0 0 1179 517" version="1.1">
<g id="surface676">
<rect x="0" y="0" width="1179" height="517" style="fill:rgb(90%,90%,90%);fill-opacity:1;stroke:none;"/>
<path style="fill-rule:nonzero;fill:rgb(100%,51%,0%);fill-opacity:1;stroke-width:1;stroke-linecap:butt;stroke-linejoin:miter;stroke:rgb(0%,0%,0%);stroke-opacity:1;stroke-miterlimit:10;" d="M 338.214844 309 C 338.214844 320.714844 328.714844 330.214844 317 330.214844 C 305.285156 330.214844 295.785156 320.714844 295.785156 309 C 295.785156 297.285156 305.285156 287.785156 317 287.785156 C 328.714844 287.785156 338.214844 297.285156 338.214844 309 "/>
<path style="fill-rule:nonzero;fill:rgb(55%,51%,53%);fill-opacity:1;stroke-width:1;stroke-linecap:butt;stroke-linejoin:miter;stroke:rgb(0%,0%,0%);stroke-opacity:1;stroke-miterlimit:10;" d="M 172.214844 124 C 172.214844 135.714844 162.714844 145.214844 151 145.214844 C 139.285156 145.214844 129.785156 135.714844 129.785156 124 C 129.785156 112.285156 139.285156 102.785156 151 102.785156 C 162.714844 102.785156 172.214844 112.285156 172.214844 124 "/>
<path style="fill-rule:nonzero;fill:rgb(55%,51%,53%);fill-opacity:1;stroke-width:1;stroke-linecap:butt;stroke-linejoin:miter;stroke:rgb(0%,0%,0%);stroke-opacity:1;stroke-miterlimit:10;" d="M 136.214844 289 C 136.214844 300.714844 126.714844 310.214844 115 310.214844 C 103.285156 310.214844 93.785156 300.714844 93.785156 289 C 93.785156 277.285156 103.285156 267.785156 115 267.785156 C 126.714844 267.785156 136.214844 277.285156 136.214844 289 "/>
<path style="fill-rule:nonzero;fill:rgb(100%,51%,0%);fill-opacity:1;stroke-width:1;stroke-linecap:butt;stroke-linejoin:miter;stroke:rgb(0%,0%,0%);stroke-opacity:1;stroke-miterlimit:10;" d="M 430.214844 421 C 430.214844 432.714844 420.714844 442.214844 409 442.214844 C 397.285156 442.214844 387.785156 432.714844 387.785156 421 C 387.785156 409.285156 397.285156 399.785156 409 399.785156 C 420.714844 399.785156 430.214844 409.285156 430.214844 421 "/>
<path style="fill-rule:nonzero;fill:rgb(100%,51%,0%);fill-opacity:1;stroke-width:1;stroke-linecap:butt;stroke-linejoin:miter;stroke:rgb(0%,0%,0%);stroke-opacity:1;stroke-miterlimit:10;" d="M 141.214844 432 C 141.214844 443.714844 131.714844 453.214844 120 453.214844 C 108.285156 453.214844 98.785156 443.714844 98.785156 432 C 98.785156 420.285156 108.285156 410.785156 120 410.785156 C 131.714844 410.785156 141.214844 420.285156 141.214844 432 "/>
<path style="fill-rule:nonzero;fill:rgb(55%,51%,53%);fill-opacity:1;stroke-width:1;stroke-linecap:butt;stroke-linejoin:miter;stroke:rgb(0%,0%,0%);stroke-opacity:1;stroke-miterlimit:10;" d="M 972 63 L 946.019531 108 L 997.980469 108 L 972 63 "/>
<path style="fill-rule:nonzero;fill:rgb(100%,51%,0%);fill-opacity:1;stroke-width:1;stroke-linecap:butt;stroke-linejoin:miter;stroke:rgb(0%,0%,0%);stroke-opacity:1;stroke-miterlimit:10;" d="M 826 104 L 800.019531 149 L 851.980469 149 L 826 104 "/>
<path style="fill-rule:nonzero;fill:rgb(100%,51%,0%);fill-opacity:1;stroke-width:1;stroke-linecap:butt;stroke-linejoin:miter;stroke:rgb(0%,0%,0%);stroke-opacity:1;stroke-miterlimit:10;" d="M 973 395 L 947.019531 440 L 998.980469 440 L 973 395 "/>
</g>
</svg>
