<?xml version="1.0" encoding="UTF-8"?>
<svg xmlns="http://www.w3.org/2000/svg" xmlns:xlink="http://www.w3.org/1999/xlink" width="1179pt" height="517pt" viewBox="0 0 1179 517" version="1.1">
<g id="surface761">
<rect x="0" y="0" width="1179" height="517" style="fill:rgb(90%,90%,90%);fill-opacity:1;stroke:none;"/>
<path style="fill-rule:nonzero;fill:rgb(53%,27%,7%);fill-opacity:1;stroke-width:1;stroke-linecap:butt;stroke-linejoin:miter;stroke:rgb(0%,0%,0%);stroke-opacity:1;stroke-miterlimit:10;" d="M 194 382.601562 C 194 368.199219 170 368.199219 170 382.601562 C 170 397 194 399.398438 194 411.398438 C 194 399.398438 218 397 218 382.601562 C 218 368.199219 194 368.199219 194 382.601562 "/>
<path style="fill-rule:nonzero;fill:rgb(53%,27%,7%);fill-opacity:1;stroke-width:1;stroke-linecap:butt;stroke-linejoin:miter;stroke:rgb(0%,0%,0%);stroke-opacity:1;stroke-miterlimit:10;" d="M 413.214844 133 C 413.214844 144.714844 403.714844 154.214844 392 154.214844 C 380.285156 154.214844 370.785156 144.714844 370.785156 133 C 370.785156 121.285156 380.285156 111.785156 392 111.785156 C 403.714844 111.785156 413.214844 121.285156 413.214844 133 "/>
<path style="fill-rule:nonzero;fill:rgb(53%,27%,7%);fill-opacity:1;stroke-width:1;stroke-linecap:butt;stroke-linejoin:miter;stroke:rgb(0%,0%,0%);stroke-opacity:1;stroke-miterlimit:10;" d="M 108 184.601562 C 108 170.199219 84 170.199219 84 184.601562 C 84 199 108 201.398438 108 213.398438 C 108 201.398438 132 199 132 184.601562 C 132 170.199219 108 170.199219 108 184.601562 "/>
<path style="fill-rule:nonzero;fill:rgb(53%,27%,7%);fill-opacity:1;stroke-width:1;stroke-linecap:butt;stroke-linejoin:miter;stroke:rgb(0%,0%,0%);stroke-opacity:1;stroke-miterlimit:10;" d="M 316.214844 375 C 316.214844 386.714844 306.714844 396.214844 295 396.214844 C 283.285156 396.214844 273.785156 386.714844 273.785156 375 C 273.785156 363.285156 283.285156 353.785156 295 353.785156 C 306.714844 353.785156 316.214844 363.285156 316.214844 375 "/>
<path style="fill-rule:nonzero;fill:rgb(53%,27%,7%);fill-opacity:1;stroke-width:1;stroke-linecap:butt;stroke-linejoin:miter;stroke:rgb(0%,0%,0%);stroke-opacity:1;stroke-miterlimit:10;" d="M 80 362.601562 C 80 348.199219 56 348.199219 56 362.601562 C 56 377 80 379.398438 80 391.398438 C 80 379.398438 104 377 104 362.601562 C 104 348.199219 80 348.199219 80 362.601562 "/>
<path style="fill-rule:nonzero;fill:rgb(100%,51%,0%);fill-opacity:1;stroke-width:1;stroke-linecap:butt;stroke-linejoin:miter;stroke:rgb(0%,0%,0%);stroke-opacity:1;stroke-miterlimit:10;" d="M 717.214844 121 C 717.214844 132.714844 707.714844 142.214844 696 142.214844 C 684.285156 142.214844 674.785156 132.714844 674.785156 121 C 674.785156 109.285156 684.285156 99.785156 696 99.785156 C 707.714844 99.785156 717.214844 109.285156 717.214844 121 "/>
<path style="fill-rule:nonzero;fill:rgb(100%,51%,0%);fill-opacity:1;stroke-width:1;stroke-linecap:butt;stroke-linejoin:miter;stroke:rgb(0%,0%,0%);stroke-opacity:1;stroke-miterlimit:10;" d="M 1020 146.601562 C 1020 132.199219 996 132.199219 996 146.601562 C 996 161 1020 163.398438 1020 175.398438 C 1020 163.398438 1044 161 1044 146.601562 C 1044 132.199219 1020 132.199219 1020 146.601562 "/>
<path style="fill-rule:nonzero;fill:rgb(100%,51%,0%);fill-opacity:1;stroke-width:1;stroke-linecap:butt;stroke-linejoin:miter;stroke:rgb(0%,0%,0%);stroke-opacity:1;stroke-miterlimit:10;" d="M 714.214844 320 C 714.214844 331.714844 704.714844 341.214844 693 341.214844 C 681.285156 341.214844 671.785156 331.714844 671.785156 320 C 671.785156 308.285156 681.285156 298.785156 693 298.785156 C 704.714844 298.785156 714.214844 308.285156 714.214844 320 "/>
<path style="fill-rule:nonzero;fill:rgb(100%,51%,0%);fill-opacity:1;stroke-width:1;stroke-linecap:butt;stroke-linejoin:miter;stroke:rgb(0%,0%,0%);stroke-opacity:1;stroke-miterlimit:10;" d="M 762 405.601562 C 762 391.199219 738 391.199219 738 405.601562 C 738 420 762 422.398438 762 434.398438 C 762 422.398438 786 420 786 405.601562 C 786 391.199219 762 391.199219 762 405.601562 "/>
</g>
</svg>
