<?xml version="1.0" encoding="UTF-8"?>
<svg xmlns="http://www.w3.org/2000/svg" xmlns:xlink="http://www.w3.org/1999/xlink" width="1179pt" height="517pt" viewBox="0 0 1179 517" version="1.1">
<g id="surface401">
<rect x="0" y="0" width="1179" height="517" style="fill:rgb(90%,90%,90%);fill-opacity:1;stroke:none;"/>
<path style="fill-rule:nonzero;fill:rgb(35%,70%,90%);fill-opacity:1;stroke-width:1;stroke-linecap:butt;stroke-linejoin:miter;stroke:rgb(0%,0%,0%);stroke-opacity:1;stroke-miterlimit:10;" d="M 225 211 L 254.664062 211 L 266.664062 182.785156 L 278.664062 211 L 308.332031 211 L 284.332031 228.4375 L 292.417969 259.980469 L 266.664062 242.542969 L 240.914062 259.980469 L 253.214844 228.4375 L 225 211 "/>
<path style="fill-rule:nonzero;fill:rgb(35%,70%,90%);fill-opacity:1;stroke-width:1;stroke-linecap:butt;stroke-linejoin:miter;stroke:rgb(0%,0%,0%);stroke-opacity:1;stroke-miterlimit:10;" d="M 389 122 L 418.664062 122 L 430.664062 93.785156 L 442.664062 122 L 472.332031 122 L 448.332031 139.4375 L 456.417969 170.980469 L 430.664062 153.542969 L 404.914062 170.980469 L 417.214844 139.4375 L 389 122 "/>
<path style="fill-rule:nonzero;fill:rgb(35%,70%,90%);fill-opacity:1;stroke-width:1;stroke-linecap:butt;stroke-linejoin:miter;stroke:rgb(0%,0%,0%);stroke-opacity:1;stroke-miterlimit:10;" d="M 225.785156 323.785156 L 225.785156 366.214844 L 268.214844 366.214844 L 268.214844 323.785156 L 225.785156 323.785156 "/>
<path style="fill-rule:nonzero;fill:rgb(35%,70%,90%);fill-opacity:1;stroke-width:1;stroke-linecap:butt;stroke-linejoin:miter;stroke:rgb(0%,0%,0%);stroke-opacity:1;stroke-miterlimit:10;" d="M 189 113 L 218.664062 113 L 230.664062 84.785156 L 242.664062 113 L 272.332031 113 L 248.332031 130.4375 L 256.417969 161.980469 L 230.664062 144.542969 L 204.914062 161.980469 L 217.214844 130.4375 L 189 113 "/>
<path style="fill-rule:nonzero;fill:rgb(35%,70%,90%);fill-opacity:1;stroke-width:1;stroke-linecap:butt;stroke-linejoin:miter;stroke:rgb(0%,0%,0%);stroke-opacity:1;stroke-miterlimit:10;" d="M 424 242 L 453.664062 242 L 465.664062 213.785156 L 477.664062 242 L 507.332031 242 L 483.332031 259.4375 L 491.417969 290.980469 L 465.664062 273.542969 L 439.914062 290.980469 L 452.214844 259.4375 L 424 242 "/>
<path style="fill-rule:nonzero;fill:rgb(53%,27%,7%);fill-opacity:1;stroke-width:1;stroke-linecap:butt;stroke-linejoin:miter;stroke:rgb(0%,0%,0%);stroke-opacity:1;stroke-miterlimit:10;" d="M 899.785156 304.785156 L 899.785156 347.214844 L 942.214844 347.214844 L 942.214844 304.785156 L 899.785156 304.785156 "/>
<path style="fill-rule:nonzero;fill:rgb(53%,27%,7%);fill-opacity:1;stroke-width:1;stroke-linecap:butt;stroke-linejoin:miter;stroke:rgb(0%,0%,0%);stroke-opacity:1;stroke-miterlimit:10;" d="M 1018.785156 132.785156 L 1018.785156 175.214844 L 1061.214844 175.214844 L 1061.214844 132.785156 L 1018.785156 132.785156 "/>
<path style="fill-rule:nonzero;fill:rgb(53%,27%,7%);fill-opacity:1;stroke-width:1;stroke-linecap:butt;stroke-linejoin:miter;stroke:rgb(0%,0%,0%);stroke-opacity:1;stroke-miterlimit:10;" d="M 830 142 L 859.664062 142 L 871.664062 113.785156 L 883.664062 142 L 913.332031 142 L 889.332031 159.4375 L 897.417969 190.980469 L 871.664062 173.542969 L 845.914062 190.980469 L 858.214844 159.4375 L 830 142 "/>
<path style="fill-rule:nonzero;fill:rgb(53%,27%,7%);fill-opacity:1;stroke-width:1;stroke-linecap:butt;stroke-linejoin:miter;stroke:rgb(0%,0%,0%);stroke-opacity:1;stroke-miterlimit:10;" d="M 674.785156 136.785156 L 674.785156 179.214844 L 717.214844 179.214844 L 717.214844 136.785156 L 674.785156 136.785156 "/>
</g>
</svg>
