<?xml version="1.0" encoding="UTF-8"?>
<svg xmlns="http://www.w3.org/2000/svg" xmlns:xlink="http://www.w3.org/1999/xlink" width="1179pt" height="517pt" viewBox="0 0 1179 517" version="1.1">
<g id="surface1211">
<rect x="0" y="0" width="1179" height="517" style="fill:rgb(90%,90%,90%);fill-opacity:1;stroke:none;"/>
<path style="fill-rule:nonzero;fill:rgb(53%,27%,7%);fill-opacity:1;stroke-width:1;stroke-linecap:butt;stroke-linejoin:miter;stroke:rgb(0%,0%,0%);stroke-opacity:1;stroke-miterlimit:10;" d="M 687 139 L 661.019531 184 L 712.980469 184 L 687 139 "/>
<path style="fill-rule:nonzero;fill:rgb(53%,27%,7%);fill-opacity:1;stroke-width:1;stroke-linecap:butt;stroke-linejoin:miter;stroke:rgb(0%,0%,0%);stroke-opacity:1;stroke-miterlimit:10;" d="M 102 339 L 76.019531 384 L 127.980469 384 L 102 339 "/>
<path style="fill-rule:nonzero;fill:rgb(53%,27%,7%);fill-opacity:1;stroke-width:1;stroke-linecap:butt;stroke-linejoin:miter;stroke:rgb(0%,0%,0%);stroke-opacity:1;stroke-miterlimit:10;" d="M 165 114 L 139.019531 159 L 190.980469 159 L 165 114 "/>
<path style="fill-rule:nonzero;fill:rgb(53%,27%,7%);fill-opacity:1;stroke-width:1;stroke-linecap:butt;stroke-linejoin:miter;stroke:rgb(0%,0%,0%);stroke-opacity:1;stroke-miterlimit:10;" d="M 326 105 L 300.019531 150 L 351.980469 150 L 326 105 "/>
<path style="fill-rule:nonzero;fill:rgb(35%,70%,90%);fill-opacity:1;stroke-width:1;stroke-linecap:butt;stroke-linejoin:miter;stroke:rgb(0%,0%,0%);stroke-opacity:1;stroke-miterlimit:10;" d="M 674 401 L 703.664062 401 L 715.664062 372.785156 L 727.664062 401 L 757.332031 401 L 733.332031 418.4375 L 741.417969 449.980469 L 715.664062 432.542969 L 689.914062 449.980469 L 702.214844 418.4375 L 674 401 "/>
<path style="fill-rule:nonzero;fill:rgb(35%,70%,90%);fill-opacity:1;stroke-width:1;stroke-linecap:butt;stroke-linejoin:miter;stroke:rgb(0%,0%,0%);stroke-opacity:1;stroke-miterlimit:10;" d="M 783 302 L 812.664062 302 L 824.664062 273.785156 L 836.664062 302 L 866.332031 302 L 842.332031 319.4375 L 850.417969 350.980469 L 824.664062 333.542969 L 798.914062 350.980469 L 811.214844 319.4375 L 783 302 "/>
<path style="fill-rule:nonzero;fill:rgb(35%,70%,90%);fill-opacity:1;stroke-width:1;stroke-linecap:butt;stroke-linejoin:miter;stroke:rgb(0%,0%,0%);stroke-opacity:1;stroke-miterlimit:10;" d="M 983 398 L 1012.664062 398 L 1024.664062 369.785156 L 1036.664062 398 L 1066.332031 398 L 1042.332031 415.4375 L 1050.417969 446.980469 L 1024.664062 429.542969 L 998.914062 446.980469 L 1011.214844 415.4375 L 983 398 "/>
<path style="fill-rule:nonzero;fill:rgb(35%,70%,90%);fill-opacity:1;stroke-width:1;stroke-linecap:butt;stroke-linejoin:miter;stroke:rgb(0%,0%,0%);stroke-opacity:1;stroke-miterlimit:10;" d="M 893 216 L 922.664062 216 L 934.664062 187.785156 L 946.664062 216 L 976.332031 216 L 952.332031 233.4375 L 960.417969 264.980469 L 934.664062 247.542969 L 908.914062 264.980469 L 921.214844 233.4375 L 893 216 "/>
<path style="fill-rule:nonzero;fill:rgb(35%,70%,90%);fill-opacity:1;stroke-width:1;stroke-linecap:butt;stroke-linejoin:miter;stroke:rgb(0%,0%,0%);stroke-opacity:1;stroke-miterlimit:10;" d="M 510 153 L 539.664062 153 L 551.664062 124.785156 L 563.664062 153 L 593.332031 153 L 569.332031 170.4375 L 577.417969 201.980469 L 551.664062 184.542969 L 525.914062 201.980469 L 538.214844 170.4375 L 510 153 "/>
</g>
</svg>
