<?xml version="1.0" encoding="UTF-8"?>
<svg xmlns="http://www.w3.org/2000/svg" xmlns:xlink="http://www.w3.org/1999/xlink" width="1179pt" height="517pt" viewBox="0 0 1179 517" version="1.1">
<g id="surface351">
<rect x="0" y="0" width="1179" height="517" style="fill:rgb(90%,90%,90%);fill-opacity:1;stroke:none;"/>
<path style="fill-rule:nonzero;fill:rgb(55%,51%,53%);fill-opacity:1;stroke-width:1;stroke-linecap:butt;stroke-linejoin:miter;stroke:rgb(0%,0%,0%);stroke-opacity:1;stroke-miterlimit:10;" d="M 280.214844 300 C 280.214844 311.714844 270.714844 321.214844 259 321.214844 C 247.285156 321.214844 237.785156 311.714844 237.785156 300 C 237.785156 288.285156 247.285156 278.785156 259 278.785156 C 270.714844 278.785156 280.214844 288.285156 280.214844 300 "/>
<path style="fill-rule:nonzero;fill:rgb(55%,51%,53%);fill-opacity:1;stroke-width:1;stroke-linecap:butt;stroke-linejoin:miter;stroke:rgb(0%,0%,0%);stroke-opacity:1;stroke-miterlimit:10;" d="M 364.785156 406.785156 L 364.785156 449.214844 L 407.214844 449.214844 L 407.214844 406.785156 L 364.785156 406.785156 "/>
<path style="fill-rule:nonzero;fill:rgb(55%,51%,53%);fill-opacity:1;stroke-width:1;stroke-linecap:butt;stroke-linejoin:miter;stroke:rgb(0%,0%,0%);stroke-opacity:1;stroke-miterlimit:10;" d="M 260.785156 86.785156 L 260.785156 129.214844 L 303.214844 129.214844 L 303.214844 86.785156 L 260.785156 86.785156 "/>
<path style="fill-rule:nonzero;fill:rgb(53%,27%,7%);fill-opacity:1;stroke-width:1;stroke-linecap:butt;stroke-linejoin:miter;stroke:rgb(0%,0%,0%);stroke-opacity:1;stroke-miterlimit:10;" d="M 770.785156 341.785156 L 770.785156 384.214844 L 813.214844 384.214844 L 813.214844 341.785156 L 770.785156 341.785156 "/>
<path style="fill-rule:nonzero;fill:rgb(53%,27%,7%);fill-opacity:1;stroke-width:1;stroke-linecap:butt;stroke-linejoin:miter;stroke:rgb(0%,0%,0%);stroke-opacity:1;stroke-miterlimit:10;" d="M 911.214844 223 C 911.214844 234.714844 901.714844 244.214844 890 244.214844 C 878.285156 244.214844 868.785156 234.714844 868.785156 223 C 868.785156 211.285156 878.285156 201.785156 890 201.785156 C 901.714844 201.785156 911.214844 211.285156 911.214844 223 "/>
<path style="fill-rule:nonzero;fill:rgb(53%,27%,7%);fill-opacity:1;stroke-width:1;stroke-linecap:butt;stroke-linejoin:miter;stroke:rgb(0%,0%,0%);stroke-opacity:1;stroke-miterlimit:10;" d="M 760.214844 152 C 760.214844 163.714844 750.714844 173.214844 739 173.214844 C 727.285156 173.214844 717.785156 163.714844 717.785156 152 C 717.785156 140.285156 727.285156 130.785156 739 130.785156 C 750.714844 130.785156 760.214844 140.285156 760.214844 152 "/>
<path style="fill-rule:nonzero;fill:rgb(53%,27%,7%);fill-opacity:1;stroke-width:1;stroke-linecap:butt;stroke-linejoin:miter;stroke:rgb(0%,0%,0%);stroke-opacity:1;stroke-miterlimit:10;" d="M 848.785156 397.785156 L 848.785156 440.214844 L 891.214844 440.214844 L 891.214844 397.785156 L 848.785156 397.785156 "/>
<path style="fill-rule:nonzero;fill:rgb(53%,27%,7%);fill-opacity:1;stroke-width:1;stroke-linecap:butt;stroke-linejoin:miter;stroke:rgb(0%,0%,0%);stroke-opacity:1;stroke-miterlimit:10;" d="M 990.785156 166.785156 L 990.785156 209.214844 L 1033.214844 209.214844 L 1033.214844 166.785156 L 990.785156 166.785156 "/>
</g>
</svg>
