<?xml version="1.0" encoding="UTF-8"?>
<svg xmlns="http://www.w3.org/2000/svg" xmlns:xlink="http://www.w3.org/1999/xlink" width="1179pt" height="517pt" viewBox="0 0 1179 517" version="1.1">
<g id="surface1171">
<rect x="0" y="0" width="1179" height="517" style="fill:rgb(90%,90%,90%);fill-opacity:1;stroke:none;"/>
<path style="fill-rule:nonzero;fill:rgb(53%,27%,7%);fill-opacity:1;stroke-width:1;stroke-linecap:butt;stroke-linejoin:miter;stroke:rgb(0%,0%,0%);stroke-opacity:1;stroke-miterlimit:10;" d="M 221.214844 205 C 221.214844 216.714844 211.714844 226.214844 200 226.214844 C 188.285156 226.214844 178.785156 216.714844 178.785156 205 C 178.785156 193.285156 188.285156 183.785156 200 183.785156 C 211.714844 183.785156 221.214844 193.285156 221.214844 205 "/>
<path style="fill-rule:nonzero;fill:rgb(53%,27%,7%);fill-opacity:1;stroke-width:1;stroke-linecap:butt;stroke-linejoin:miter;stroke:rgb(0%,0%,0%);stroke-opacity:1;stroke-miterlimit:10;" d="M 196.214844 392 C 196.214844 403.714844 186.714844 413.214844 175 413.214844 C 163.285156 413.214844 153.785156 403.714844 153.785156 392 C 153.785156 380.285156 163.285156 370.785156 175 370.785156 C 186.714844 370.785156 196.214844 380.285156 196.214844 392 "/>
<path style="fill-rule:nonzero;fill:rgb(53%,27%,7%);fill-opacity:1;stroke-width:1;stroke-linecap:butt;stroke-linejoin:miter;stroke:rgb(0%,0%,0%);stroke-opacity:1;stroke-miterlimit:10;" d="M 1055.214844 209 C 1055.214844 220.714844 1045.714844 230.214844 1034 230.214844 C 1022.285156 230.214844 1012.785156 220.714844 1012.785156 209 C 1012.785156 197.285156 1022.285156 187.785156 1034 187.785156 C 1045.714844 187.785156 1055.214844 197.285156 1055.214844 209 "/>
<path style="fill-rule:nonzero;fill:rgb(53%,27%,7%);fill-opacity:1;stroke-width:1;stroke-linecap:butt;stroke-linejoin:miter;stroke:rgb(0%,0%,0%);stroke-opacity:1;stroke-miterlimit:10;" d="M 775.214844 410 C 775.214844 421.714844 765.714844 431.214844 754 431.214844 C 742.285156 431.214844 732.785156 421.714844 732.785156 410 C 732.785156 398.285156 742.285156 388.785156 754 388.785156 C 765.714844 388.785156 775.214844 398.285156 775.214844 410 "/>
<path style="fill-rule:nonzero;fill:rgb(53%,27%,7%);fill-opacity:1;stroke-width:1;stroke-linecap:butt;stroke-linejoin:miter;stroke:rgb(0%,0%,0%);stroke-opacity:1;stroke-miterlimit:10;" d="M 549.214844 137 C 549.214844 148.714844 539.714844 158.214844 528 158.214844 C 516.285156 158.214844 506.785156 148.714844 506.785156 137 C 506.785156 125.285156 516.285156 115.785156 528 115.785156 C 539.714844 115.785156 549.214844 125.285156 549.214844 137 "/>
<path style="fill-rule:nonzero;fill:rgb(100%,51%,0%);fill-opacity:1;stroke-width:1;stroke-linecap:butt;stroke-linejoin:miter;stroke:rgb(0%,0%,0%);stroke-opacity:1;stroke-miterlimit:10;" d="M 418 378 L 447.664062 378 L 459.664062 349.785156 L 471.664062 378 L 501.332031 378 L 477.332031 395.4375 L 485.417969 426.980469 L 459.664062 409.542969 L 433.914062 426.980469 L 446.214844 395.4375 L 418 378 "/>
<path style="fill-rule:nonzero;fill:rgb(100%,51%,0%);fill-opacity:1;stroke-width:1;stroke-linecap:butt;stroke-linejoin:miter;stroke:rgb(0%,0%,0%);stroke-opacity:1;stroke-miterlimit:10;" d="M 817 227 L 846.664062 227 L 858.664062 198.785156 L 870.664062 227 L 900.332031 227 L 876.332031 244.4375 L 884.417969 275.980469 L 858.664062 258.542969 L 832.914062 275.980469 L 845.214844 244.4375 L 817 227 "/>
<path style="fill-rule:nonzero;fill:rgb(100%,51%,0%);fill-opacity:1;stroke-width:1;stroke-linecap:butt;stroke-linejoin:miter;stroke:rgb(0%,0%,0%);stroke-opacity:1;stroke-miterlimit:10;" d="M 571 321 L 600.664062 321 L 612.664062 292.785156 L 624.664062 321 L 654.332031 321 L 630.332031 338.4375 L 638.417969 369.980469 L 612.664062 352.542969 L 586.914062 369.980469 L 599.214844 338.4375 L 571 321 "/>
<path style="fill-rule:nonzero;fill:rgb(100%,51%,0%);fill-opacity:1;stroke-width:1;stroke-linecap:butt;stroke-linejoin:miter;stroke:rgb(0%,0%,0%);stroke-opacity:1;stroke-miterlimit:10;" d="M 870 105 L 899.664062 105 L 911.664062 76.785156 L 923.664062 105 L 953.332031 105 L 929.332031 122.4375 L 937.417969 153.980469 L 911.664062 136.542969 L 885.914062 153.980469 L 898.214844 122.4375 L 870 105 "/>
<path style="fill-rule:nonzero;fill:rgb(100%,51%,0%);fill-opacity:1;stroke-width:1;stroke-linecap:butt;stroke-linejoin:miter;stroke:rgb(0%,0%,0%);stroke-opacity:1;stroke-miterlimit:10;" d="M 635 200 L 664.664062 200 L 676.664062 171.785156 L 688.664062 200 L 718.332031 200 L 694.332031 217.4375 L 702.417969 248.980469 L 676.664062 231.542969 L 650.914062 248.980469 L 663.214844 217.4375 L 635 200 "/>
</g>
</svg>
