<?xml version="1.0" encoding="UTF-8"?>
<svg xmlns="http://www.w3.org/2000/svg" xmlns:xlink="http://www.w3.org/1999/xlink" width="1179pt" height="517pt" viewBox="0 0 1179 517" version="1.1">
<g id="surface621">
<rect x="0" y="0" width="1179" height="517" style="fill:rgb(90%,90%,90%);fill-opacity:1;stroke:none;"/>
<path style="fill-rule:nonzero;fill:rgb(35%,70%,90%);fill-opacity:1;stroke-width:1;stroke-linecap:butt;stroke-linejoin:miter;stroke:rgb(0%,0%,0%);stroke-opacity:1;stroke-miterlimit:10;" d="M 139.214844 116 C 139.214844 127.714844 129.714844 137.214844 118 137.214844 C 106.285156 137.214844 96.785156 127.714844 96.785156 116 C 96.785156 104.285156 106.285156 94.785156 118 94.785156 C 129.714844 94.785156 139.214844 104.285156 139.214844 116 "/>
<path style="fill-rule:nonzero;fill:rgb(35%,70%,90%);fill-opacity:1;stroke-width:1;stroke-linecap:butt;stroke-linejoin:miter;stroke:rgb(0%,0%,0%);stroke-opacity:1;stroke-miterlimit:10;" d="M 103.785156 256.785156 L 103.785156 299.214844 L 146.214844 299.214844 L 146.214844 256.785156 L 103.785156 256.785156 "/>
<path style="fill-rule:nonzero;fill:rgb(35%,70%,90%);fill-opacity:1;stroke-width:1;stroke-linecap:butt;stroke-linejoin:miter;stroke:rgb(0%,0%,0%);stroke-opacity:1;stroke-miterlimit:10;" d="M 92.785156 382.785156 L 92.785156 425.214844 L 135.214844 425.214844 L 135.214844 382.785156 L 92.785156 382.785156 "/>
<path style="fill-rule:nonzero;fill:rgb(35%,70%,90%);fill-opacity:1;stroke-width:1;stroke-linecap:butt;stroke-linejoin:miter;stroke:rgb(0%,0%,0%);stroke-opacity:1;stroke-miterlimit:10;" d="M 376.214844 355 C 376.214844 366.714844 366.714844 376.214844 355 376.214844 C 343.285156 376.214844 333.785156 366.714844 333.785156 355 C 333.785156 343.285156 343.285156 333.785156 355 333.785156 C 366.714844 333.785156 376.214844 343.285156 376.214844 355 "/>
<path style="fill-rule:nonzero;fill:rgb(55%,51%,53%);fill-opacity:1;stroke-width:1;stroke-linecap:butt;stroke-linejoin:miter;stroke:rgb(0%,0%,0%);stroke-opacity:1;stroke-miterlimit:10;" d="M 871.785156 208.785156 L 871.785156 251.214844 L 914.214844 251.214844 L 914.214844 208.785156 L 871.785156 208.785156 "/>
<path style="fill-rule:nonzero;fill:rgb(55%,51%,53%);fill-opacity:1;stroke-width:1;stroke-linecap:butt;stroke-linejoin:miter;stroke:rgb(0%,0%,0%);stroke-opacity:1;stroke-miterlimit:10;" d="M 808.214844 369 C 808.214844 380.714844 798.714844 390.214844 787 390.214844 C 775.285156 390.214844 765.785156 380.714844 765.785156 369 C 765.785156 357.285156 775.285156 347.785156 787 347.785156 C 798.714844 347.785156 808.214844 357.285156 808.214844 369 "/>
<path style="fill-rule:nonzero;fill:rgb(55%,51%,53%);fill-opacity:1;stroke-width:1;stroke-linecap:butt;stroke-linejoin:miter;stroke:rgb(0%,0%,0%);stroke-opacity:1;stroke-miterlimit:10;" d="M 805.214844 224 C 805.214844 235.714844 795.714844 245.214844 784 245.214844 C 772.285156 245.214844 762.785156 235.714844 762.785156 224 C 762.785156 212.285156 772.285156 202.785156 784 202.785156 C 795.714844 202.785156 805.214844 212.285156 805.214844 224 "/>
<path style="fill-rule:nonzero;fill:rgb(55%,51%,53%);fill-opacity:1;stroke-width:1;stroke-linecap:butt;stroke-linejoin:miter;stroke:rgb(0%,0%,0%);stroke-opacity:1;stroke-miterlimit:10;" d="M 678.785156 168.785156 L 678.785156 211.214844 L 721.214844 211.214844 L 721.214844 168.785156 L 678.785156 168.785156 "/>
</g>
</svg>
