<?xml version="1.0" encoding="UTF-8"?>
<svg xmlns="http://www.w3.org/2000/svg" xmlns:xlink="http://www.w3.org/1999/xlink" width="1179pt" height="517pt" viewBox="0 0 1179 517" version="1.1">
<g id="surface1186">
<rect x="0" y="0" width="1179" height="517" style="fill:rgb(90%,90%,90%);fill-opacity:1;stroke:none;"/>
<path style="fill-rule:nonzero;fill:rgb(100%,51%,0%);fill-opacity:1;stroke-width:1;stroke-linecap:butt;stroke-linejoin:miter;stroke:rgb(0%,0%,0%);stroke-opacity:1;stroke-miterlimit:10;" d="M 799 229 L 828.664062 229 L 840.664062 200.785156 L 852.664062 229 L 882.332031 229 L 858.332031 246.4375 L 866.417969 277.980469 L 840.664062 260.542969 L 814.914062 277.980469 L 827.214844 246.4375 L 799 229 "/>
<path style="fill-rule:nonzero;fill:rgb(100%,51%,0%);fill-opacity:1;stroke-width:1;stroke-linecap:butt;stroke-linejoin:miter;stroke:rgb(0%,0%,0%);stroke-opacity:1;stroke-miterlimit:10;" d="M 313 183 L 342.664062 183 L 354.664062 154.785156 L 366.664062 183 L 396.332031 183 L 372.332031 200.4375 L 380.417969 231.980469 L 354.664062 214.542969 L 328.914062 231.980469 L 341.214844 200.4375 L 313 183 "/>
<path style="fill-rule:nonzero;fill:rgb(100%,51%,0%);fill-opacity:1;stroke-width:1;stroke-linecap:butt;stroke-linejoin:miter;stroke:rgb(0%,0%,0%);stroke-opacity:1;stroke-miterlimit:10;" d="M 579 273 L 608.664062 273 L 620.664062 244.785156 L 632.664062 273 L 662.332031 273 L 638.332031 290.4375 L 646.417969 321.980469 L 620.664062 304.542969 L 594.914062 321.980469 L 607.214844 290.4375 L 579 273 "/>
<path style="fill-rule:nonzero;fill:rgb(100%,51%,0%);fill-opacity:1;stroke-width:1;stroke-linecap:butt;stroke-linejoin:miter;stroke:rgb(0%,0%,0%);stroke-opacity:1;stroke-miterlimit:10;" d="M 201 135 L 230.664062 135 L 242.664062 106.785156 L 254.664062 135 L 284.332031 135 L 260.332031 152.4375 L 268.417969 183.980469 L 242.664062 166.542969 L 216.914062 183.980469 L 229.214844 152.4375 L 201 135 "/>
<path style="fill-rule:nonzero;fill:rgb(53%,27%,7%);fill-opacity:1;stroke-width:1;stroke-linecap:butt;stroke-linejoin:miter;stroke:rgb(0%,0%,0%);stroke-opacity:1;stroke-miterlimit:10;" d="M 967.214844 392 C 967.214844 403.714844 957.714844 413.214844 946 413.214844 C 934.285156 413.214844 924.785156 403.714844 924.785156 392 C 924.785156 380.285156 934.285156 370.785156 946 370.785156 C 957.714844 370.785156 967.214844 380.285156 967.214844 392 "/>
<path style="fill-rule:nonzero;fill:rgb(53%,27%,7%);fill-opacity:1;stroke-width:1;stroke-linecap:butt;stroke-linejoin:miter;stroke:rgb(0%,0%,0%);stroke-opacity:1;stroke-miterlimit:10;" d="M 1004.214844 239 C 1004.214844 250.714844 994.714844 260.214844 983 260.214844 C 971.285156 260.214844 961.785156 250.714844 961.785156 239 C 961.785156 227.285156 971.285156 217.785156 983 217.785156 C 994.714844 217.785156 1004.214844 227.285156 1004.214844 239 "/>
<path style="fill-rule:nonzero;fill:rgb(53%,27%,7%);fill-opacity:1;stroke-width:1;stroke-linecap:butt;stroke-linejoin:miter;stroke:rgb(0%,0%,0%);stroke-opacity:1;stroke-miterlimit:10;" d="M 722.214844 157 C 722.214844 168.714844 712.714844 178.214844 701 178.214844 C 689.285156 178.214844 679.785156 168.714844 679.785156 157 C 679.785156 145.285156 689.285156 135.785156 701 135.785156 C 712.714844 135.785156 722.214844 145.285156 722.214844 157 "/>
<path style="fill-rule:nonzero;fill:rgb(53%,27%,7%);fill-opacity:1;stroke-width:1;stroke-linecap:butt;stroke-linejoin:miter;stroke:rgb(0%,0%,0%);stroke-opacity:1;stroke-miterlimit:10;" d="M 134.214844 377 C 134.214844 388.714844 124.714844 398.214844 113 398.214844 C 101.285156 398.214844 91.785156 388.714844 91.785156 377 C 91.785156 365.285156 101.285156 355.785156 113 355.785156 C 124.714844 355.785156 134.214844 365.285156 134.214844 377 "/>
<path style="fill-rule:nonzero;fill:rgb(53%,27%,7%);fill-opacity:1;stroke-width:1;stroke-linecap:butt;stroke-linejoin:miter;stroke:rgb(0%,0%,0%);stroke-opacity:1;stroke-miterlimit:10;" d="M 444.214844 87 C 444.214844 98.714844 434.714844 108.214844 423 108.214844 C 411.285156 108.214844 401.785156 98.714844 401.785156 87 C 401.785156 75.285156 411.285156 65.785156 423 65.785156 C 434.714844 65.785156 444.214844 75.285156 444.214844 87 "/>
</g>
</svg>
