<?xml version="1.0" encoding="UTF-8"?>
<svg xmlns="http://www.w3.org/2000/svg" xmlns:xlink="http://www.w3.org/1999/xlink" width="1179pt" height="517pt" viewBox="0 0 1179 517" version="1.1">
<g id="surface456">
<rect x="0" y="0" width="1179" height="517" style="fill:rgb(90%,90%,90%);fill-opacity:1;stroke:none;"/>
<path style="fill-rule:nonzero;fill:rgb(100%,51%,0%);fill-opacity:1;stroke-width:1;stroke-linecap:butt;stroke-linejoin:miter;stroke:rgb(0%,0%,0%);stroke-opacity:1;stroke-miterlimit:10;" d="M 277 409 L 306.664062 409 L 318.664062 380.785156 L 330.664062 409 L 360.332031 409 L 336.332031 426.4375 L 344.417969 457.980469 L 318.664062 440.542969 L 292.914062 457.980469 L 305.214844 426.4375 L 277 409 "/>
<path style="fill-rule:nonzero;fill:rgb(100%,51%,0%);fill-opacity:1;stroke-width:1;stroke-linecap:butt;stroke-linejoin:miter;stroke:rgb(0%,0%,0%);stroke-opacity:1;stroke-miterlimit:10;" d="M 227 248 L 256.664062 248 L 268.664062 219.785156 L 280.664062 248 L 310.332031 248 L 286.332031 265.4375 L 294.417969 296.980469 L 268.664062 279.542969 L 242.914062 296.980469 L 255.214844 265.4375 L 227 248 "/>
<path style="fill-rule:nonzero;fill:rgb(100%,51%,0%);fill-opacity:1;stroke-width:1;stroke-linecap:butt;stroke-linejoin:miter;stroke:rgb(0%,0%,0%);stroke-opacity:1;stroke-miterlimit:10;" d="M 143 369 L 172.664062 369 L 184.664062 340.785156 L 196.664062 369 L 226.332031 369 L 202.332031 386.4375 L 210.417969 417.980469 L 184.664062 400.542969 L 158.914062 417.980469 L 171.214844 386.4375 L 143 369 "/>
<path style="fill-rule:nonzero;fill:rgb(100%,51%,0%);fill-opacity:1;stroke-width:1;stroke-linecap:butt;stroke-linejoin:miter;stroke:rgb(0%,0%,0%);stroke-opacity:1;stroke-miterlimit:10;" d="M 996 210 L 1025.664062 210 L 1037.664062 181.785156 L 1049.664062 210 L 1079.332031 210 L 1055.332031 227.4375 L 1063.417969 258.980469 L 1037.664062 241.542969 L 1011.914062 258.980469 L 1024.214844 227.4375 L 996 210 "/>
<path style="fill-rule:nonzero;fill:rgb(53%,27%,7%);fill-opacity:1;stroke-width:1;stroke-linecap:butt;stroke-linejoin:miter;stroke:rgb(0%,0%,0%);stroke-opacity:1;stroke-miterlimit:10;" d="M 569 121 L 543.019531 166 L 594.980469 166 L 569 121 "/>
<path style="fill-rule:nonzero;fill:rgb(53%,27%,7%);fill-opacity:1;stroke-width:1;stroke-linecap:butt;stroke-linejoin:miter;stroke:rgb(0%,0%,0%);stroke-opacity:1;stroke-miterlimit:10;" d="M 740 116 L 714.019531 161 L 765.980469 161 L 740 116 "/>
<path style="fill-rule:nonzero;fill:rgb(53%,27%,7%);fill-opacity:1;stroke-width:1;stroke-linecap:butt;stroke-linejoin:miter;stroke:rgb(0%,0%,0%);stroke-opacity:1;stroke-miterlimit:10;" d="M 616 396 L 590.019531 441 L 641.980469 441 L 616 396 "/>
</g>
</svg>
