<?xml version="1.0" encoding="UTF-8"?>
<svg xmlns="http://www.w3.org/2000/svg" xmlns:xlink="http://www.w3.org/1999/xlink" width="1179pt" height="517pt" viewBox="0 0 1179 517" version="1.1">
<g id="surface636">
<rect x="0" y="0" width="1179" height="517" style="fill:rgb(90%,90%,90%);fill-opacity:1;stroke:none;"/>
<path style="fill-rule:nonzero;fill:rgb(100%,51%,0%);fill-opacity:1;stroke-width:1;stroke-linecap:butt;stroke-linejoin:miter;stroke:rgb(0%,0%,0%);stroke-opacity:1;stroke-miterlimit:10;" d="M 720 211 L 749.664062 211 L 761.664062 182.785156 L 773.664062 211 L 803.332031 211 L 779.332031 228.4375 L 787.417969 259.980469 L 761.664062 242.542969 L 735.914062 259.980469 L 748.214844 228.4375 L 720 211 "/>
<path style="fill-rule:nonzero;fill:rgb(100%,51%,0%);fill-opacity:1;stroke-width:1;stroke-linecap:butt;stroke-linejoin:miter;stroke:rgb(0%,0%,0%);stroke-opacity:1;stroke-miterlimit:10;" d="M 585 158 L 614.664062 158 L 626.664062 129.785156 L 638.664062 158 L 668.332031 158 L 644.332031 175.4375 L 652.417969 206.980469 L 626.664062 189.542969 L 600.914062 206.980469 L 613.214844 175.4375 L 585 158 "/>
<path style="fill-rule:nonzero;fill:rgb(100%,51%,0%);fill-opacity:1;stroke-width:1;stroke-linecap:butt;stroke-linejoin:miter;stroke:rgb(0%,0%,0%);stroke-opacity:1;stroke-miterlimit:10;" d="M 135 244 L 164.664062 244 L 176.664062 215.785156 L 188.664062 244 L 218.332031 244 L 194.332031 261.4375 L 202.417969 292.980469 L 176.664062 275.542969 L 150.914062 292.980469 L 163.214844 261.4375 L 135 244 "/>
<path style="fill-rule:nonzero;fill:rgb(100%,51%,0%);fill-opacity:1;stroke-width:1;stroke-linecap:butt;stroke-linejoin:miter;stroke:rgb(0%,0%,0%);stroke-opacity:1;stroke-miterlimit:10;" d="M 454 92 L 483.664062 92 L 495.664062 63.785156 L 507.664062 92 L 537.332031 92 L 513.332031 109.4375 L 521.417969 140.980469 L 495.664062 123.542969 L 469.914062 140.980469 L 482.214844 109.4375 L 454 92 "/>
<path style="fill-rule:nonzero;fill:rgb(53%,27%,7%);fill-opacity:1;stroke-width:1;stroke-linecap:butt;stroke-linejoin:miter;stroke:rgb(0%,0%,0%);stroke-opacity:1;stroke-miterlimit:10;" d="M 194 394 L 168.019531 439 L 219.980469 439 L 194 394 "/>
<path style="fill-rule:nonzero;fill:rgb(53%,27%,7%);fill-opacity:1;stroke-width:1;stroke-linecap:butt;stroke-linejoin:miter;stroke:rgb(0%,0%,0%);stroke-opacity:1;stroke-miterlimit:10;" d="M 319 161 L 293.019531 206 L 344.980469 206 L 319 161 "/>
<path style="fill-rule:nonzero;fill:rgb(53%,27%,7%);fill-opacity:1;stroke-width:1;stroke-linecap:butt;stroke-linejoin:miter;stroke:rgb(0%,0%,0%);stroke-opacity:1;stroke-miterlimit:10;" d="M 599 346 L 573.019531 391 L 624.980469 391 L 599 346 "/>
<path style="fill-rule:nonzero;fill:rgb(53%,27%,7%);fill-opacity:1;stroke-width:1;stroke-linecap:butt;stroke-linejoin:miter;stroke:rgb(0%,0%,0%);stroke-opacity:1;stroke-miterlimit:10;" d="M 817 384 L 791.019531 429 L 842.980469 429 L 817 384 "/>
</g>
</svg>
