<?xml version="1.0" encoding="UTF-8"?>
<svg xmlns="http://www.w3.org/2000/svg" xmlns:xlink="http://www.w3.org/1999/xlink" width="1179pt" height="517pt" viewBox="0 0 1179 517" version="1.1">
<g id="surface1186">
<rect x="0" y="0" width="1179" height="517" style="fill:rgb(90%,90%,90%);fill-opacity:1;stroke:none;"/>
<path style="fill-rule:nonzero;fill:rgb(100%,51%,0%);fill-opacity:1;stroke-width:1;stroke-linecap:butt;stroke-linejoin:miter;stroke:rgb(0%,0%,0%);stroke-opacity:1;stroke-miterlimit:10;" d="M 1034 179 L 1063.664062 179 L 1075.664062 150.785156 L 1087.664062 179 L 1117.332031 179 L 1093.332031 196.4375 L 1101.417969 227.980469 L 1075.664062 210.542969 L 1049.914062 227.980469 L 1062.214844 196.4375 L 1034 179 "/>
<path style="fill-rule:nonzero;fill:rgb(100%,51%,0%);fill-opacity:1;stroke-width:1;stroke-linecap:butt;stroke-linejoin:miter;stroke:rgb(0%,0%,0%);stroke-opacity:1;stroke-miterlimit:10;" d="M 937 338 L 966.664062 338 L 978.664062 309.785156 L 990.664062 338 L 1020.332031 338 L 996.332031 355.4375 L 1004.417969 386.980469 L 978.664062 369.542969 L 952.914062 386.980469 L 965.214844 355.4375 L 937 338 "/>
<path style="fill-rule:nonzero;fill:rgb(100%,51%,0%);fill-opacity:1;stroke-width:1;stroke-linecap:butt;stroke-linejoin:miter;stroke:rgb(0%,0%,0%);stroke-opacity:1;stroke-miterlimit:10;" d="M 206 160 L 235.664062 160 L 247.664062 131.785156 L 259.664062 160 L 289.332031 160 L 265.332031 177.4375 L 273.417969 208.980469 L 247.664062 191.542969 L 221.914062 208.980469 L 234.214844 177.4375 L 206 160 "/>
<path style="fill-rule:nonzero;fill:rgb(100%,51%,0%);fill-opacity:1;stroke-width:1;stroke-linecap:butt;stroke-linejoin:miter;stroke:rgb(0%,0%,0%);stroke-opacity:1;stroke-miterlimit:10;" d="M 360 388 L 389.664062 388 L 401.664062 359.785156 L 413.664062 388 L 443.332031 388 L 419.332031 405.4375 L 427.417969 436.980469 L 401.664062 419.542969 L 375.914062 436.980469 L 388.214844 405.4375 L 360 388 "/>
<path style="fill-rule:nonzero;fill:rgb(53%,27%,7%);fill-opacity:1;stroke-width:1;stroke-linecap:butt;stroke-linejoin:miter;stroke:rgb(0%,0%,0%);stroke-opacity:1;stroke-miterlimit:10;" d="M 657.214844 205 C 657.214844 216.714844 647.714844 226.214844 636 226.214844 C 624.285156 226.214844 614.785156 216.714844 614.785156 205 C 614.785156 193.285156 624.285156 183.785156 636 183.785156 C 647.714844 183.785156 657.214844 193.285156 657.214844 205 "/>
<path style="fill-rule:nonzero;fill:rgb(53%,27%,7%);fill-opacity:1;stroke-width:1;stroke-linecap:butt;stroke-linejoin:miter;stroke:rgb(0%,0%,0%);stroke-opacity:1;stroke-miterlimit:10;" d="M 736.214844 394 C 736.214844 405.714844 726.714844 415.214844 715 415.214844 C 703.285156 415.214844 693.785156 405.714844 693.785156 394 C 693.785156 382.285156 703.285156 372.785156 715 372.785156 C 726.714844 372.785156 736.214844 382.285156 736.214844 394 "/>
<path style="fill-rule:nonzero;fill:rgb(53%,27%,7%);fill-opacity:1;stroke-width:1;stroke-linecap:butt;stroke-linejoin:miter;stroke:rgb(0%,0%,0%);stroke-opacity:1;stroke-miterlimit:10;" d="M 871.214844 244 C 871.214844 255.714844 861.714844 265.214844 850 265.214844 C 838.285156 265.214844 828.785156 255.714844 828.785156 244 C 828.785156 232.285156 838.285156 222.785156 850 222.785156 C 861.714844 222.785156 871.214844 232.285156 871.214844 244 "/>
<path style="fill-rule:nonzero;fill:rgb(53%,27%,7%);fill-opacity:1;stroke-width:1;stroke-linecap:butt;stroke-linejoin:miter;stroke:rgb(0%,0%,0%);stroke-opacity:1;stroke-miterlimit:10;" d="M 419.214844 117 C 419.214844 128.714844 409.714844 138.214844 398 138.214844 C 386.285156 138.214844 376.785156 128.714844 376.785156 117 C 376.785156 105.285156 386.285156 95.785156 398 95.785156 C 409.714844 95.785156 419.214844 105.285156 419.214844 117 "/>
<path style="fill-rule:nonzero;fill:rgb(53%,27%,7%);fill-opacity:1;stroke-width:1;stroke-linecap:butt;stroke-linejoin:miter;stroke:rgb(0%,0%,0%);stroke-opacity:1;stroke-miterlimit:10;" d="M 102.214844 110 C 102.214844 121.714844 92.714844 131.214844 81 131.214844 C 69.285156 131.214844 59.785156 121.714844 59.785156 110 C 59.785156 98.285156 69.285156 88.785156 81 88.785156 C 92.714844 88.785156 102.214844 98.285156 102.214844 110 "/>
</g>
</svg>
