<?xml version="1.0" encoding="UTF-8"?>
<svg xmlns="http://www.w3.org/2000/svg" xmlns:xlink="http://www.w3.org/1999/xlink" width="1179pt" height="517pt" viewBox="0 0 1179 517" version="1.1">
<g id="surface621">
<rect x="0" y="0" width="1179" height="517" style="fill:rgb(90%,90%,90%);fill-opacity:1;stroke:none;"/>
<path style="fill-rule:nonzero;fill:rgb(35%,70%,90%);fill-opacity:1;stroke-width:1;stroke-linecap:butt;stroke-linejoin:miter;stroke:rgb(0%,0%,0%);stroke-opacity:1;stroke-miterlimit:10;" d="M 236.214844 275 C 236.214844 286.714844 226.714844 296.214844 215 296.214844 C 203.285156 296.214844 193.785156 286.714844 193.785156 275 C 193.785156 263.285156 203.285156 253.785156 215 253.785156 C 226.714844 253.785156 236.214844 263.285156 236.214844 275 "/>
<path style="fill-rule:nonzero;fill:rgb(35%,70%,90%);fill-opacity:1;stroke-width:1;stroke-linecap:butt;stroke-linejoin:miter;stroke:rgb(0%,0%,0%);stroke-opacity:1;stroke-miterlimit:10;" d="M 179.785156 147.785156 L 179.785156 190.214844 L 222.214844 190.214844 L 222.214844 147.785156 L 179.785156 147.785156 "/>
<path style="fill-rule:nonzero;fill:rgb(35%,70%,90%);fill-opacity:1;stroke-width:1;stroke-linecap:butt;stroke-linejoin:miter;stroke:rgb(0%,0%,0%);stroke-opacity:1;stroke-miterlimit:10;" d="M 140.214844 386 C 140.214844 397.714844 130.714844 407.214844 119 407.214844 C 107.285156 407.214844 97.785156 397.714844 97.785156 386 C 97.785156 374.285156 107.285156 364.785156 119 364.785156 C 130.714844 364.785156 140.214844 374.285156 140.214844 386 "/>
<path style="fill-rule:nonzero;fill:rgb(35%,70%,90%);fill-opacity:1;stroke-width:1;stroke-linecap:butt;stroke-linejoin:miter;stroke:rgb(0%,0%,0%);stroke-opacity:1;stroke-miterlimit:10;" d="M 366.214844 353 C 366.214844 364.714844 356.714844 374.214844 345 374.214844 C 333.285156 374.214844 323.785156 364.714844 323.785156 353 C 323.785156 341.285156 333.285156 331.785156 345 331.785156 C 356.714844 331.785156 366.214844 341.285156 366.214844 353 "/>
<path style="fill-rule:nonzero;fill:rgb(55%,51%,53%);fill-opacity:1;stroke-width:1;stroke-linecap:butt;stroke-linejoin:miter;stroke:rgb(0%,0%,0%);stroke-opacity:1;stroke-miterlimit:10;" d="M 965.785156 83.785156 L 965.785156 126.214844 L 1008.214844 126.214844 L 1008.214844 83.785156 L 965.785156 83.785156 "/>
<path style="fill-rule:nonzero;fill:rgb(55%,51%,53%);fill-opacity:1;stroke-width:1;stroke-linecap:butt;stroke-linejoin:miter;stroke:rgb(0%,0%,0%);stroke-opacity:1;stroke-miterlimit:10;" d="M 727.214844 247 C 727.214844 258.714844 717.714844 268.214844 706 268.214844 C 694.285156 268.214844 684.785156 258.714844 684.785156 247 C 684.785156 235.285156 694.285156 225.785156 706 225.785156 C 717.714844 225.785156 727.214844 235.285156 727.214844 247 "/>
<path style="fill-rule:nonzero;fill:rgb(55%,51%,53%);fill-opacity:1;stroke-width:1;stroke-linecap:butt;stroke-linejoin:miter;stroke:rgb(0%,0%,0%);stroke-opacity:1;stroke-miterlimit:10;" d="M 989.785156 321.785156 L 989.785156 364.214844 L 1032.214844 364.214844 L 1032.214844 321.785156 L 989.785156 321.785156 "/>
<path style="fill-rule:nonzero;fill:rgb(55%,51%,53%);fill-opacity:1;stroke-width:1;stroke-linecap:butt;stroke-linejoin:miter;stroke:rgb(0%,0%,0%);stroke-opacity:1;stroke-miterlimit:10;" d="M 796.785156 137.785156 L 796.785156 180.214844 L 839.214844 180.214844 L 839.214844 137.785156 L 796.785156 137.785156 "/>
</g>
</svg>
