<?xml version="1.0" encoding="UTF-8"?>
<svg xmlns="http://www.w3.org/2000/svg" xmlns:xlink="http://www.w3.org/1999/xlink" width="1179pt" height="517pt" viewBox="0 0 1179 517" version="1.1">
<g id="surface691">
<rect x="0" y="0" width="1179" height="517" style="fill:rgb(90%,90%,90%);fill-opacity:1;stroke:none;"/>
<path style="fill-rule:nonzero;fill:rgb(55%,51%,53%);fill-opacity:1;stroke-width:1;stroke-linecap:butt;stroke-linejoin:miter;stroke:rgb(0%,0%,0%);stroke-opacity:1;stroke-miterlimit:10;" d="M 254 431 L 283.664062 431 L 295.664062 402.785156 L 307.664062 431 L 337.332031 431 L 313.332031 448.4375 L 321.417969 479.980469 L 295.664062 462.542969 L 269.914062 479.980469 L 282.214844 448.4375 L 254 431 "/>
<path style="fill-rule:nonzero;fill:rgb(55%,51%,53%);fill-opacity:1;stroke-width:1;stroke-linecap:butt;stroke-linejoin:miter;stroke:rgb(0%,0%,0%);stroke-opacity:1;stroke-miterlimit:10;" d="M 749 355 L 778.664062 355 L 790.664062 326.785156 L 802.664062 355 L 832.332031 355 L 808.332031 372.4375 L 816.417969 403.980469 L 790.664062 386.542969 L 764.914062 403.980469 L 777.214844 372.4375 L 749 355 "/>
<path style="fill-rule:nonzero;fill:rgb(55%,51%,53%);fill-opacity:1;stroke-width:1;stroke-linecap:butt;stroke-linejoin:miter;stroke:rgb(0%,0%,0%);stroke-opacity:1;stroke-miterlimit:10;" d="M 564 213 L 593.664062 213 L 605.664062 184.785156 L 617.664062 213 L 647.332031 213 L 623.332031 230.4375 L 631.417969 261.980469 L 605.664062 244.542969 L 579.914062 261.980469 L 592.214844 230.4375 L 564 213 "/>
<path style="fill-rule:nonzero;fill:rgb(55%,51%,53%);fill-opacity:1;stroke-width:1;stroke-linecap:butt;stroke-linejoin:miter;stroke:rgb(0%,0%,0%);stroke-opacity:1;stroke-miterlimit:10;" d="M 128 215 L 157.664062 215 L 169.664062 186.785156 L 181.664062 215 L 211.332031 215 L 187.332031 232.4375 L 195.417969 263.980469 L 169.664062 246.542969 L 143.914062 263.980469 L 156.214844 232.4375 L 128 215 "/>
<path style="fill-rule:nonzero;fill:rgb(53%,27%,7%);fill-opacity:1;stroke-width:1;stroke-linecap:butt;stroke-linejoin:miter;stroke:rgb(0%,0%,0%);stroke-opacity:1;stroke-miterlimit:10;" d="M 377.214844 324 C 377.214844 335.714844 367.714844 345.214844 356 345.214844 C 344.285156 345.214844 334.785156 335.714844 334.785156 324 C 334.785156 312.285156 344.285156 302.785156 356 302.785156 C 367.714844 302.785156 377.214844 312.285156 377.214844 324 "/>
<path style="fill-rule:nonzero;fill:rgb(53%,27%,7%);fill-opacity:1;stroke-width:1;stroke-linecap:butt;stroke-linejoin:miter;stroke:rgb(0%,0%,0%);stroke-opacity:1;stroke-miterlimit:10;" d="M 328.214844 85 C 328.214844 96.714844 318.714844 106.214844 307 106.214844 C 295.285156 106.214844 285.785156 96.714844 285.785156 85 C 285.785156 73.285156 295.285156 63.785156 307 63.785156 C 318.714844 63.785156 328.214844 73.285156 328.214844 85 "/>
<path style="fill-rule:nonzero;fill:rgb(53%,27%,7%);fill-opacity:1;stroke-width:1;stroke-linecap:butt;stroke-linejoin:miter;stroke:rgb(0%,0%,0%);stroke-opacity:1;stroke-miterlimit:10;" d="M 595.214844 430 C 595.214844 441.714844 585.714844 451.214844 574 451.214844 C 562.285156 451.214844 552.785156 441.714844 552.785156 430 C 552.785156 418.285156 562.285156 408.785156 574 408.785156 C 585.714844 408.785156 595.214844 418.285156 595.214844 430 "/>
</g>
</svg>
