<?xml version="1.0" encoding="UTF-8"?>
<svg xmlns="http://www.w3.org/2000/svg" xmlns:xlink="http://www.w3.org/1999/xlink" width="1179pt" height="517pt" viewBox="0 0 1179 517" version="1.1">
<g id="surface931">
<rect x="0" y="0" width="1179" height="517" style="fill:rgb(90%,90%,90%);fill-opacity:1;stroke:none;"/>
<path style="fill-rule:nonzero;fill:rgb(55%,51%,53%);fill-opacity:1;stroke-width:1;stroke-linecap:butt;stroke-linejoin:miter;stroke:rgb(0%,0%,0%);stroke-opacity:1;stroke-miterlimit:10;" d="M 405.214844 256 C 405.214844 267.714844 395.714844 277.214844 384 277.214844 C 372.285156 277.214844 362.785156 267.714844 362.785156 256 C 362.785156 244.285156 372.285156 234.785156 384 234.785156 C 395.714844 234.785156 405.214844 244.285156 405.214844 256 "/>
<path style="fill-rule:nonzero;fill:rgb(67%,100%,18%);fill-opacity:1;stroke-width:1;stroke-linecap:butt;stroke-linejoin:miter;stroke:rgb(0%,0%,0%);stroke-opacity:1;stroke-miterlimit:10;" d="M 385.214844 428 C 385.214844 439.714844 375.714844 449.214844 364 449.214844 C 352.285156 449.214844 342.785156 439.714844 342.785156 428 C 342.785156 416.285156 352.285156 406.785156 364 406.785156 C 375.714844 406.785156 385.214844 416.285156 385.214844 428 "/>
<path style="fill-rule:nonzero;fill:rgb(55%,51%,53%);fill-opacity:1;stroke-width:1;stroke-linecap:butt;stroke-linejoin:miter;stroke:rgb(0%,0%,0%);stroke-opacity:1;stroke-miterlimit:10;" d="M 144.214844 98 C 144.214844 109.714844 134.714844 119.214844 123 119.214844 C 111.285156 119.214844 101.785156 109.714844 101.785156 98 C 101.785156 86.285156 111.285156 76.785156 123 76.785156 C 134.714844 76.785156 144.214844 86.285156 144.214844 98 "/>
<path style="fill-rule:nonzero;fill:rgb(67%,100%,18%);fill-opacity:1;stroke-width:1;stroke-linecap:butt;stroke-linejoin:miter;stroke:rgb(0%,0%,0%);stroke-opacity:1;stroke-miterlimit:10;" d="M 295.214844 211 C 295.214844 222.714844 285.714844 232.214844 274 232.214844 C 262.285156 232.214844 252.785156 222.714844 252.785156 211 C 252.785156 199.285156 262.285156 189.785156 274 189.785156 C 285.714844 189.785156 295.214844 199.285156 295.214844 211 "/>
<path style="fill-rule:nonzero;fill:rgb(67%,100%,18%);fill-opacity:1;stroke-width:1;stroke-linecap:butt;stroke-linejoin:miter;stroke:rgb(0%,0%,0%);stroke-opacity:1;stroke-miterlimit:10;" d="M 714 139 L 688.019531 184 L 739.980469 184 L 714 139 "/>
<path style="fill-rule:nonzero;fill:rgb(55%,51%,53%);fill-opacity:1;stroke-width:1;stroke-linecap:butt;stroke-linejoin:miter;stroke:rgb(0%,0%,0%);stroke-opacity:1;stroke-miterlimit:10;" d="M 728 269 L 702.019531 314 L 753.980469 314 L 728 269 "/>
<path style="fill-rule:nonzero;fill:rgb(67%,100%,18%);fill-opacity:1;stroke-width:1;stroke-linecap:butt;stroke-linejoin:miter;stroke:rgb(0%,0%,0%);stroke-opacity:1;stroke-miterlimit:10;" d="M 855 249 L 829.019531 294 L 880.980469 294 L 855 249 "/>
</g>
</svg>
