<?xml version="1.0" encoding="UTF-8"?>
<svg xmlns="http://www.w3.org/2000/svg" xmlns:xlink="http://www.w3.org/1999/xlink" width="1179pt" height="517pt" viewBox="0 0 1179 517" version="1.1">
<g id="surface351">
<rect x="0" y="0" width="1179" height="517" style="fill:rgb(90%,90%,90%);fill-opacity:1;stroke:none;"/>
<path style="fill-rule:nonzero;fill:rgb(55%,51%,53%);fill-opacity:1;stroke-width:1;stroke-linecap:butt;stroke-linejoin:miter;stroke:rgb(0%,0%,0%);stroke-opacity:1;stroke-miterlimit:10;" d="M 192.214844 396 C 192.214844 407.714844 182.714844 417.214844 171 417.214844 C 159.285156 417.214844 149.785156 407.714844 149.785156 396 C 149.785156 384.285156 159.285156 374.785156 171 374.785156 C 182.714844 374.785156 192.214844 384.285156 192.214844 396 "/>
<path style="fill-rule:nonzero;fill:rgb(55%,51%,53%);fill-opacity:1;stroke-width:1;stroke-linecap:butt;stroke-linejoin:miter;stroke:rgb(0%,0%,0%);stroke-opacity:1;stroke-miterlimit:10;" d="M 286.785156 253.785156 L 286.785156 296.214844 L 329.214844 296.214844 L 329.214844 253.785156 L 286.785156 253.785156 "/>
<path style="fill-rule:nonzero;fill:rgb(55%,51%,53%);fill-opacity:1;stroke-width:1;stroke-linecap:butt;stroke-linejoin:miter;stroke:rgb(0%,0%,0%);stroke-opacity:1;stroke-miterlimit:10;" d="M 360.785156 106.785156 L 360.785156 149.214844 L 403.214844 149.214844 L 403.214844 106.785156 L 360.785156 106.785156 "/>
<path style="fill-rule:nonzero;fill:rgb(53%,27%,7%);fill-opacity:1;stroke-width:1;stroke-linecap:butt;stroke-linejoin:miter;stroke:rgb(0%,0%,0%);stroke-opacity:1;stroke-miterlimit:10;" d="M 807.785156 107.785156 L 807.785156 150.214844 L 850.214844 150.214844 L 850.214844 107.785156 L 807.785156 107.785156 "/>
<path style="fill-rule:nonzero;fill:rgb(53%,27%,7%);fill-opacity:1;stroke-width:1;stroke-linecap:butt;stroke-linejoin:miter;stroke:rgb(0%,0%,0%);stroke-opacity:1;stroke-miterlimit:10;" d="M 962.214844 265 C 962.214844 276.714844 952.714844 286.214844 941 286.214844 C 929.285156 286.214844 919.785156 276.714844 919.785156 265 C 919.785156 253.285156 929.285156 243.785156 941 243.785156 C 952.714844 243.785156 962.214844 253.285156 962.214844 265 "/>
<path style="fill-rule:nonzero;fill:rgb(53%,27%,7%);fill-opacity:1;stroke-width:1;stroke-linecap:butt;stroke-linejoin:miter;stroke:rgb(0%,0%,0%);stroke-opacity:1;stroke-miterlimit:10;" d="M 912.214844 393 C 912.214844 404.714844 902.714844 414.214844 891 414.214844 C 879.285156 414.214844 869.785156 404.714844 869.785156 393 C 869.785156 381.285156 879.285156 371.785156 891 371.785156 C 902.714844 371.785156 912.214844 381.285156 912.214844 393 "/>
<path style="fill-rule:nonzero;fill:rgb(53%,27%,7%);fill-opacity:1;stroke-width:1;stroke-linecap:butt;stroke-linejoin:miter;stroke:rgb(0%,0%,0%);stroke-opacity:1;stroke-miterlimit:10;" d="M 714.785156 254.785156 L 714.785156 297.214844 L 757.214844 297.214844 L 757.214844 254.785156 L 714.785156 254.785156 "/>
<path style="fill-rule:nonzero;fill:rgb(53%,27%,7%);fill-opacity:1;stroke-width:1;stroke-linecap:butt;stroke-linejoin:miter;stroke:rgb(0%,0%,0%);stroke-opacity:1;stroke-miterlimit:10;" d="M 993.785156 403.785156 L 993.785156 446.214844 L 1036.214844 446.214844 L 1036.214844 403.785156 L 993.785156 403.785156 "/>
</g>
</svg>
