<?xml version="1.0" encoding="UTF-8"?>
<svg xmlns="http://www.w3.org/2000/svg" xmlns:xlink="http://www.w3.org/1999/xlink" width="1179pt" height="517pt" viewBox="0 0 1179 517" version="1.1">
<g id="surface1176">
<rect x="0" y="0" width="1179" height="517" style="fill:rgb(90%,90%,90%);fill-opacity:1;stroke:none;"/>
<path style="fill-rule:nonzero;fill:rgb(55%,51%,53%);fill-opacity:1;stroke-width:1;stroke-linecap:butt;stroke-linejoin:miter;stroke:rgb(0%,0%,0%);stroke-opacity:1;stroke-miterlimit:10;" d="M 450 246 L 424.019531 291 L 475.980469 291 L 450 246 "/>
<path style="fill-rule:nonzero;fill:rgb(55%,51%,53%);fill-opacity:1;stroke-width:1;stroke-linecap:butt;stroke-linejoin:miter;stroke:rgb(0%,0%,0%);stroke-opacity:1;stroke-miterlimit:10;" d="M 608 262 L 582.019531 307 L 633.980469 307 L 608 262 "/>
<path style="fill-rule:nonzero;fill:rgb(55%,51%,53%);fill-opacity:1;stroke-width:1;stroke-linecap:butt;stroke-linejoin:miter;stroke:rgb(0%,0%,0%);stroke-opacity:1;stroke-miterlimit:10;" d="M 744 330 L 718.019531 375 L 769.980469 375 L 744 330 "/>
<path style="fill-rule:nonzero;fill:rgb(55%,51%,53%);fill-opacity:1;stroke-width:1;stroke-linecap:butt;stroke-linejoin:miter;stroke:rgb(0%,0%,0%);stroke-opacity:1;stroke-miterlimit:10;" d="M 102 246 L 76.019531 291 L 127.980469 291 L 102 246 "/>
<path style="fill-rule:nonzero;fill:rgb(55%,51%,53%);fill-opacity:1;stroke-width:1;stroke-linecap:butt;stroke-linejoin:miter;stroke:rgb(0%,0%,0%);stroke-opacity:1;stroke-miterlimit:10;" d="M 300 113 L 274.019531 158 L 325.980469 158 L 300 113 "/>
<path style="fill-rule:nonzero;fill:rgb(35%,70%,90%);fill-opacity:1;stroke-width:1;stroke-linecap:butt;stroke-linejoin:miter;stroke:rgb(0%,0%,0%);stroke-opacity:1;stroke-miterlimit:10;" d="M 148 165 L 177.664062 165 L 189.664062 136.785156 L 201.664062 165 L 231.332031 165 L 207.332031 182.4375 L 215.417969 213.980469 L 189.664062 196.542969 L 163.914062 213.980469 L 176.214844 182.4375 L 148 165 "/>
<path style="fill-rule:nonzero;fill:rgb(35%,70%,90%);fill-opacity:1;stroke-width:1;stroke-linecap:butt;stroke-linejoin:miter;stroke:rgb(0%,0%,0%);stroke-opacity:1;stroke-miterlimit:10;" d="M 507 139 L 536.664062 139 L 548.664062 110.785156 L 560.664062 139 L 590.332031 139 L 566.332031 156.4375 L 574.417969 187.980469 L 548.664062 170.542969 L 522.914062 187.980469 L 535.214844 156.4375 L 507 139 "/>
<path style="fill-rule:nonzero;fill:rgb(35%,70%,90%);fill-opacity:1;stroke-width:1;stroke-linecap:butt;stroke-linejoin:miter;stroke:rgb(0%,0%,0%);stroke-opacity:1;stroke-miterlimit:10;" d="M 84 419 L 113.664062 419 L 125.664062 390.785156 L 137.664062 419 L 167.332031 419 L 143.332031 436.4375 L 151.417969 467.980469 L 125.664062 450.542969 L 99.914062 467.980469 L 112.214844 436.4375 L 84 419 "/>
<path style="fill-rule:nonzero;fill:rgb(35%,70%,90%);fill-opacity:1;stroke-width:1;stroke-linecap:butt;stroke-linejoin:miter;stroke:rgb(0%,0%,0%);stroke-opacity:1;stroke-miterlimit:10;" d="M 1006 197 L 1035.664062 197 L 1047.664062 168.785156 L 1059.664062 197 L 1089.332031 197 L 1065.332031 214.4375 L 1073.417969 245.980469 L 1047.664062 228.542969 L 1021.914062 245.980469 L 1034.214844 214.4375 L 1006 197 "/>
</g>
</svg>
