<?xml version="1.0" encoding="UTF-8"?>
<svg xmlns="http://www.w3.org/2000/svg" xmlns:xlink="http://www.w3.org/1999/xlink" width="1179pt" height="517pt" viewBox="0 0 1179 517" version="1.1">
<g id="surface1366">
<rect x="0" y="0" width="1179" height="517" style="fill:rgb(90%,90%,90%);fill-opacity:1;stroke:none;"/>
<path style="fill-rule:nonzero;fill:rgb(100%,51%,0%);fill-opacity:1;stroke-width:1;stroke-linecap:butt;stroke-linejoin:miter;stroke:rgb(0%,0%,0%);stroke-opacity:1;stroke-miterlimit:10;" d="M 295 224 L 324.664062 224 L 336.664062 195.785156 L 348.664062 224 L 378.332031 224 L 354.332031 241.4375 L 362.417969 272.980469 L 336.664062 255.542969 L 310.914062 272.980469 L 323.214844 241.4375 L 295 224 "/>
<path style="fill-rule:nonzero;fill:rgb(100%,51%,0%);fill-opacity:1;stroke-width:1;stroke-linecap:butt;stroke-linejoin:miter;stroke:rgb(0%,0%,0%);stroke-opacity:1;stroke-miterlimit:10;" d="M 767 208 L 796.664062 208 L 808.664062 179.785156 L 820.664062 208 L 850.332031 208 L 826.332031 225.4375 L 834.417969 256.980469 L 808.664062 239.542969 L 782.914062 256.980469 L 795.214844 225.4375 L 767 208 "/>
<path style="fill-rule:nonzero;fill:rgb(100%,51%,0%);fill-opacity:1;stroke-width:1;stroke-linecap:butt;stroke-linejoin:miter;stroke:rgb(0%,0%,0%);stroke-opacity:1;stroke-miterlimit:10;" d="M 661 282 L 690.664062 282 L 702.664062 253.785156 L 714.664062 282 L 744.332031 282 L 720.332031 299.4375 L 728.417969 330.980469 L 702.664062 313.542969 L 676.914062 330.980469 L 689.214844 299.4375 L 661 282 "/>
<path style="fill-rule:nonzero;fill:rgb(100%,51%,0%);fill-opacity:1;stroke-width:1;stroke-linecap:butt;stroke-linejoin:miter;stroke:rgb(0%,0%,0%);stroke-opacity:1;stroke-miterlimit:10;" d="M 163 411 L 192.664062 411 L 204.664062 382.785156 L 216.664062 411 L 246.332031 411 L 222.332031 428.4375 L 230.417969 459.980469 L 204.664062 442.542969 L 178.914062 459.980469 L 191.214844 428.4375 L 163 411 "/>
<path style="fill-rule:nonzero;fill:rgb(53%,27%,7%);fill-opacity:1;stroke-width:1;stroke-linecap:butt;stroke-linejoin:miter;stroke:rgb(0%,0%,0%);stroke-opacity:1;stroke-miterlimit:10;" d="M 418.214844 132 C 418.214844 143.714844 408.714844 153.214844 397 153.214844 C 385.285156 153.214844 375.785156 143.714844 375.785156 132 C 375.785156 120.285156 385.285156 110.785156 397 110.785156 C 408.714844 110.785156 418.214844 120.285156 418.214844 132 "/>
<path style="fill-rule:nonzero;fill:rgb(53%,27%,7%);fill-opacity:1;stroke-width:1;stroke-linecap:butt;stroke-linejoin:miter;stroke:rgb(0%,0%,0%);stroke-opacity:1;stroke-miterlimit:10;" d="M 499.214844 362 C 499.214844 373.714844 489.714844 383.214844 478 383.214844 C 466.285156 383.214844 456.785156 373.714844 456.785156 362 C 456.785156 350.285156 466.285156 340.785156 478 340.785156 C 489.714844 340.785156 499.214844 350.285156 499.214844 362 "/>
<path style="fill-rule:nonzero;fill:rgb(53%,27%,7%);fill-opacity:1;stroke-width:1;stroke-linecap:butt;stroke-linejoin:miter;stroke:rgb(0%,0%,0%);stroke-opacity:1;stroke-miterlimit:10;" d="M 947.214844 293 C 947.214844 304.714844 937.714844 314.214844 926 314.214844 C 914.285156 314.214844 904.785156 304.714844 904.785156 293 C 904.785156 281.285156 914.285156 271.785156 926 271.785156 C 937.714844 271.785156 947.214844 281.285156 947.214844 293 "/>
<path style="fill-rule:nonzero;fill:rgb(53%,27%,7%);fill-opacity:1;stroke-width:1;stroke-linecap:butt;stroke-linejoin:miter;stroke:rgb(0%,0%,0%);stroke-opacity:1;stroke-miterlimit:10;" d="M 1054.214844 391 C 1054.214844 402.714844 1044.714844 412.214844 1033 412.214844 C 1021.285156 412.214844 1011.785156 402.714844 1011.785156 391 C 1011.785156 379.285156 1021.285156 369.785156 1033 369.785156 C 1044.714844 369.785156 1054.214844 379.285156 1054.214844 391 "/>
<path style="fill-rule:nonzero;fill:rgb(53%,27%,7%);fill-opacity:1;stroke-width:1;stroke-linecap:butt;stroke-linejoin:miter;stroke:rgb(0%,0%,0%);stroke-opacity:1;stroke-miterlimit:10;" d="M 941.214844 161 C 941.214844 172.714844 931.714844 182.214844 920 182.214844 C 908.285156 182.214844 898.785156 172.714844 898.785156 161 C 898.785156 149.285156 908.285156 139.785156 920 139.785156 C 931.714844 139.785156 941.214844 149.285156 941.214844 161 "/>
</g>
</svg>
