<?xml version="1.0" encoding="UTF-8"?>
<svg xmlns="http://www.w3.org/2000/svg" xmlns:xlink="http://www.w3.org/1999/xlink" width="1179pt" height="517pt" viewBox="0 0 1179 517" version="1.1">
<g id="surface16">
<rect x="0" y="0" width="1179" height="517" style="fill:rgb(90%,90%,90%);fill-opacity:1;stroke:none;"/>
<path style="fill-rule:nonzero;fill:rgb(35%,70%,90%);fill-opacity:1;stroke-width:1;stroke-linecap:butt;stroke-linejoin:miter;stroke:rgb(0%,0%,0%);stroke-opacity:1;stroke-miterlimit:10;" d="M 173.214844 419 C 173.214844 430.714844 163.714844 440.214844 152 440.214844 C 140.285156 440.214844 130.785156 430.714844 130.785156 419 C 130.785156 407.285156 140.285156 397.785156 152 397.785156 C 163.714844 397.785156 173.214844 407.285156 173.214844 419 "/>
<path style="fill-rule:nonzero;fill:rgb(35%,70%,90%);fill-opacity:1;stroke-width:1;stroke-linecap:butt;stroke-linejoin:miter;stroke:rgb(0%,0%,0%);stroke-opacity:1;stroke-miterlimit:10;" d="M 337.214844 382 C 337.214844 393.714844 327.714844 403.214844 316 403.214844 C 304.285156 403.214844 294.785156 393.714844 294.785156 382 C 294.785156 370.285156 304.285156 360.785156 316 360.785156 C 327.714844 360.785156 337.214844 370.285156 337.214844 382 "/>
<path style="fill-rule:nonzero;fill:rgb(35%,70%,90%);fill-opacity:1;stroke-width:1;stroke-linecap:butt;stroke-linejoin:miter;stroke:rgb(0%,0%,0%);stroke-opacity:1;stroke-miterlimit:10;" d="M 418 283 L 392.019531 328 L 443.980469 328 L 418 283 "/>
<path style="fill-rule:nonzero;fill:rgb(35%,70%,90%);fill-opacity:1;stroke-width:1;stroke-linecap:butt;stroke-linejoin:miter;stroke:rgb(0%,0%,0%);stroke-opacity:1;stroke-miterlimit:10;" d="M 376.214844 150 C 376.214844 161.714844 366.714844 171.214844 355 171.214844 C 343.285156 171.214844 333.785156 161.714844 333.785156 150 C 333.785156 138.285156 343.285156 128.785156 355 128.785156 C 366.714844 128.785156 376.214844 138.285156 376.214844 150 "/>
<path style="fill-rule:nonzero;fill:rgb(35%,70%,90%);fill-opacity:1;stroke-width:1;stroke-linecap:butt;stroke-linejoin:miter;stroke:rgb(0%,0%,0%);stroke-opacity:1;stroke-miterlimit:10;" d="M 130.214844 181 C 130.214844 192.714844 120.714844 202.214844 109 202.214844 C 97.285156 202.214844 87.785156 192.714844 87.785156 181 C 87.785156 169.285156 97.285156 159.785156 109 159.785156 C 120.714844 159.785156 130.214844 169.285156 130.214844 181 "/>
<path style="fill-rule:nonzero;fill:rgb(100%,51%,0%);fill-opacity:1;stroke-width:1;stroke-linecap:butt;stroke-linejoin:miter;stroke:rgb(0%,0%,0%);stroke-opacity:1;stroke-miterlimit:10;" d="M 851 122 L 825.019531 167 L 876.980469 167 L 851 122 "/>
<path style="fill-rule:nonzero;fill:rgb(100%,51%,0%);fill-opacity:1;stroke-width:1;stroke-linecap:butt;stroke-linejoin:miter;stroke:rgb(0%,0%,0%);stroke-opacity:1;stroke-miterlimit:10;" d="M 842 233 L 816.019531 278 L 867.980469 278 L 842 233 "/>
<path style="fill-rule:nonzero;fill:rgb(100%,51%,0%);fill-opacity:1;stroke-width:1;stroke-linecap:butt;stroke-linejoin:miter;stroke:rgb(0%,0%,0%);stroke-opacity:1;stroke-miterlimit:10;" d="M 851.214844 376 C 851.214844 387.714844 841.714844 397.214844 830 397.214844 C 818.285156 397.214844 808.785156 387.714844 808.785156 376 C 808.785156 364.285156 818.285156 354.785156 830 354.785156 C 841.714844 354.785156 851.214844 364.285156 851.214844 376 "/>
<path style="fill-rule:nonzero;fill:rgb(100%,51%,0%);fill-opacity:1;stroke-width:1;stroke-linecap:butt;stroke-linejoin:miter;stroke:rgb(0%,0%,0%);stroke-opacity:1;stroke-miterlimit:10;" d="M 1034 61 L 1008.019531 106 L 1059.980469 106 L 1034 61 "/>
<path style="fill-rule:nonzero;fill:rgb(100%,51%,0%);fill-opacity:1;stroke-width:1;stroke-linecap:butt;stroke-linejoin:miter;stroke:rgb(0%,0%,0%);stroke-opacity:1;stroke-miterlimit:10;" d="M 742 286 L 716.019531 331 L 767.980469 331 L 742 286 "/>
</g>
</svg>
