<?xml version="1.0" encoding="UTF-8"?>
<svg xmlns="http://www.w3.org/2000/svg" xmlns:xlink="http://www.w3.org/1999/xlink" width="1179pt" height="517pt" viewBox="0 0 1179 517" version="1.1">
<g id="surface546">
<rect x="0" y="0" width="1179" height="517" style="fill:rgb(90%,90%,90%);fill-opacity:1;stroke:none;"/>
<path style="fill-rule:nonzero;fill:rgb(35%,70%,90%);fill-opacity:1;stroke-width:1;stroke-linecap:butt;stroke-linejoin:miter;stroke:rgb(0%,0%,0%);stroke-opacity:1;stroke-miterlimit:10;" d="M 507 340 L 536.664062 340 L 548.664062 311.785156 L 560.664062 340 L 590.332031 340 L 566.332031 357.4375 L 574.417969 388.980469 L 548.664062 371.542969 L 522.914062 388.980469 L 535.214844 357.4375 L 507 340 "/>
<path style="fill-rule:nonzero;fill:rgb(35%,70%,90%);fill-opacity:1;stroke-width:1;stroke-linecap:butt;stroke-linejoin:miter;stroke:rgb(0%,0%,0%);stroke-opacity:1;stroke-miterlimit:10;" d="M 363 286 L 392.664062 286 L 404.664062 257.785156 L 416.664062 286 L 446.332031 286 L 422.332031 303.4375 L 430.417969 334.980469 L 404.664062 317.542969 L 378.914062 334.980469 L 391.214844 303.4375 L 363 286 "/>
<path style="fill-rule:nonzero;fill:rgb(35%,70%,90%);fill-opacity:1;stroke-width:1;stroke-linecap:butt;stroke-linejoin:miter;stroke:rgb(0%,0%,0%);stroke-opacity:1;stroke-miterlimit:10;" d="M 992 384 L 1021.664062 384 L 1033.664062 355.785156 L 1045.664062 384 L 1075.332031 384 L 1051.332031 401.4375 L 1059.417969 432.980469 L 1033.664062 415.542969 L 1007.914062 432.980469 L 1020.214844 401.4375 L 992 384 "/>
<path style="fill-rule:nonzero;fill:rgb(35%,70%,90%);fill-opacity:1;stroke-width:1;stroke-linecap:butt;stroke-linejoin:miter;stroke:rgb(0%,0%,0%);stroke-opacity:1;stroke-miterlimit:10;" d="M 873 326 L 902.664062 326 L 914.664062 297.785156 L 926.664062 326 L 956.332031 326 L 932.332031 343.4375 L 940.417969 374.980469 L 914.664062 357.542969 L 888.914062 374.980469 L 901.214844 343.4375 L 873 326 "/>
<path style="fill-rule:nonzero;fill:rgb(100%,51%,0%);fill-opacity:1;stroke-width:1;stroke-linecap:butt;stroke-linejoin:miter;stroke:rgb(0%,0%,0%);stroke-opacity:1;stroke-miterlimit:10;" d="M 980 151 L 954.019531 196 L 1005.980469 196 L 980 151 "/>
<path style="fill-rule:nonzero;fill:rgb(100%,51%,0%);fill-opacity:1;stroke-width:1;stroke-linecap:butt;stroke-linejoin:miter;stroke:rgb(0%,0%,0%);stroke-opacity:1;stroke-miterlimit:10;" d="M 752 349 L 726.019531 394 L 777.980469 394 L 752 349 "/>
<path style="fill-rule:nonzero;fill:rgb(100%,51%,0%);fill-opacity:1;stroke-width:1;stroke-linecap:butt;stroke-linejoin:miter;stroke:rgb(0%,0%,0%);stroke-opacity:1;stroke-miterlimit:10;" d="M 230 59 L 204.019531 104 L 255.980469 104 L 230 59 "/>
</g>
</svg>
