<?xml version="1.0" encoding="UTF-8"?>
<svg xmlns="http://www.w3.org/2000/svg" xmlns:xlink="http://www.w3.org/1999/xlink" width="1179pt" height="517pt" viewBox="0 0 1179 517" version="1.1">
<g id="surface381">
<rect x="0" y="0" width="1179" height="517" style="fill:rgb(90%,90%,90%);fill-opacity:1;stroke:none;"/>
<path style="fill-rule:nonzero;fill:rgb(35%,70%,90%);fill-opacity:1;stroke-width:1;stroke-linecap:butt;stroke-linejoin:miter;stroke:rgb(0%,0%,0%);stroke-opacity:1;stroke-miterlimit:10;" d="M 306.214844 283 C 306.214844 294.714844 296.714844 304.214844 285 304.214844 C 273.285156 304.214844 263.785156 294.714844 263.785156 283 C 263.785156 271.285156 273.285156 261.785156 285 261.785156 C 296.714844 261.785156 306.214844 271.285156 306.214844 283 "/>
<path style="fill-rule:nonzero;fill:rgb(100%,51%,0%);fill-opacity:1;stroke-width:1;stroke-linecap:butt;stroke-linejoin:miter;stroke:rgb(0%,0%,0%);stroke-opacity:1;stroke-miterlimit:10;" d="M 287.214844 145 C 287.214844 156.714844 277.714844 166.214844 266 166.214844 C 254.285156 166.214844 244.785156 156.714844 244.785156 145 C 244.785156 133.285156 254.285156 123.785156 266 123.785156 C 277.714844 123.785156 287.214844 133.285156 287.214844 145 "/>
<path style="fill-rule:nonzero;fill:rgb(100%,51%,0%);fill-opacity:1;stroke-width:1;stroke-linecap:butt;stroke-linejoin:miter;stroke:rgb(0%,0%,0%);stroke-opacity:1;stroke-miterlimit:10;" d="M 129.214844 232 C 129.214844 243.714844 119.714844 253.214844 108 253.214844 C 96.285156 253.214844 86.785156 243.714844 86.785156 232 C 86.785156 220.285156 96.285156 210.785156 108 210.785156 C 119.714844 210.785156 129.214844 220.285156 129.214844 232 "/>
<path style="fill-rule:nonzero;fill:rgb(35%,70%,90%);fill-opacity:1;stroke-width:1;stroke-linecap:butt;stroke-linejoin:miter;stroke:rgb(0%,0%,0%);stroke-opacity:1;stroke-miterlimit:10;" d="M 205.214844 323 C 205.214844 334.714844 195.714844 344.214844 184 344.214844 C 172.285156 344.214844 162.785156 334.714844 162.785156 323 C 162.785156 311.285156 172.285156 301.785156 184 301.785156 C 195.714844 301.785156 205.214844 311.285156 205.214844 323 "/>
<path style="fill-rule:nonzero;fill:rgb(35%,70%,90%);fill-opacity:1;stroke-width:1;stroke-linecap:butt;stroke-linejoin:miter;stroke:rgb(0%,0%,0%);stroke-opacity:1;stroke-miterlimit:10;" d="M 180.214844 123 C 180.214844 134.714844 170.714844 144.214844 159 144.214844 C 147.285156 144.214844 137.785156 134.714844 137.785156 123 C 137.785156 111.285156 147.285156 101.785156 159 101.785156 C 170.714844 101.785156 180.214844 111.285156 180.214844 123 "/>
<path style="fill-rule:nonzero;fill:rgb(100%,51%,0%);fill-opacity:1;stroke-width:1;stroke-linecap:butt;stroke-linejoin:miter;stroke:rgb(0%,0%,0%);stroke-opacity:1;stroke-miterlimit:10;" d="M 809.785156 405.785156 L 809.785156 448.214844 L 852.214844 448.214844 L 852.214844 405.785156 L 809.785156 405.785156 "/>
<path style="fill-rule:nonzero;fill:rgb(35%,70%,90%);fill-opacity:1;stroke-width:1;stroke-linecap:butt;stroke-linejoin:miter;stroke:rgb(0%,0%,0%);stroke-opacity:1;stroke-miterlimit:10;" d="M 738.785156 158.785156 L 738.785156 201.214844 L 781.214844 201.214844 L 781.214844 158.785156 L 738.785156 158.785156 "/>
<path style="fill-rule:nonzero;fill:rgb(35%,70%,90%);fill-opacity:1;stroke-width:1;stroke-linecap:butt;stroke-linejoin:miter;stroke:rgb(0%,0%,0%);stroke-opacity:1;stroke-miterlimit:10;" d="M 1006.785156 160.785156 L 1006.785156 203.214844 L 1049.214844 203.214844 L 1049.214844 160.785156 L 1006.785156 160.785156 "/>
<path style="fill-rule:nonzero;fill:rgb(100%,51%,0%);fill-opacity:1;stroke-width:1;stroke-linecap:butt;stroke-linejoin:miter;stroke:rgb(0%,0%,0%);stroke-opacity:1;stroke-miterlimit:10;" d="M 922.785156 350.785156 L 922.785156 393.214844 L 965.214844 393.214844 L 965.214844 350.785156 L 922.785156 350.785156 "/>
</g>
</svg>
