<?xml version="1.0" encoding="UTF-8"?>
<svg xmlns="http://www.w3.org/2000/svg" xmlns:xlink="http://www.w3.org/1999/xlink" width="1179pt" height="517pt" viewBox="0 0 1179 517" version="1.1">
<g id="surface586">
<rect x="0" y="0" width="1179" height="517" style="fill:rgb(90%,90%,90%);fill-opacity:1;stroke:none;"/>
<path style="fill-rule:nonzero;fill:rgb(35%,70%,90%);fill-opacity:1;stroke-width:1;stroke-linecap:butt;stroke-linejoin:miter;stroke:rgb(0%,0%,0%);stroke-opacity:1;stroke-miterlimit:10;" d="M 370.214844 344 C 370.214844 355.714844 360.714844 365.214844 349 365.214844 C 337.285156 365.214844 327.785156 355.714844 327.785156 344 C 327.785156 332.285156 337.285156 322.785156 349 322.785156 C 360.714844 322.785156 370.214844 332.285156 370.214844 344 "/>
<path style="fill-rule:nonzero;fill:rgb(35%,70%,90%);fill-opacity:1;stroke-width:1;stroke-linecap:butt;stroke-linejoin:miter;stroke:rgb(0%,0%,0%);stroke-opacity:1;stroke-miterlimit:10;" d="M 436.214844 126 C 436.214844 137.714844 426.714844 147.214844 415 147.214844 C 403.285156 147.214844 393.785156 137.714844 393.785156 126 C 393.785156 114.285156 403.285156 104.785156 415 104.785156 C 426.714844 104.785156 436.214844 114.285156 436.214844 126 "/>
<path style="fill-rule:nonzero;fill:rgb(53%,27%,7%);fill-opacity:1;stroke-width:1;stroke-linecap:butt;stroke-linejoin:miter;stroke:rgb(0%,0%,0%);stroke-opacity:1;stroke-miterlimit:10;" d="M 279.214844 304 C 279.214844 315.714844 269.714844 325.214844 258 325.214844 C 246.285156 325.214844 236.785156 315.714844 236.785156 304 C 236.785156 292.285156 246.285156 282.785156 258 282.785156 C 269.714844 282.785156 279.214844 292.285156 279.214844 304 "/>
<path style="fill-rule:nonzero;fill:rgb(53%,27%,7%);fill-opacity:1;stroke-width:1;stroke-linecap:butt;stroke-linejoin:miter;stroke:rgb(0%,0%,0%);stroke-opacity:1;stroke-miterlimit:10;" d="M 1033 201 L 1007.019531 246 L 1058.980469 246 L 1033 201 "/>
<path style="fill-rule:nonzero;fill:rgb(53%,27%,7%);fill-opacity:1;stroke-width:1;stroke-linecap:butt;stroke-linejoin:miter;stroke:rgb(0%,0%,0%);stroke-opacity:1;stroke-miterlimit:10;" d="M 873 187 L 847.019531 232 L 898.980469 232 L 873 187 "/>
<path style="fill-rule:nonzero;fill:rgb(35%,70%,90%);fill-opacity:1;stroke-width:1;stroke-linecap:butt;stroke-linejoin:miter;stroke:rgb(0%,0%,0%);stroke-opacity:1;stroke-miterlimit:10;" d="M 991 327 L 965.019531 372 L 1016.980469 372 L 991 327 "/>
</g>
</svg>
