<?xml version="1.0" encoding="UTF-8"?>
<svg xmlns="http://www.w3.org/2000/svg" xmlns:xlink="http://www.w3.org/1999/xlink" width="1179pt" height="517pt" viewBox="0 0 1179 517" version="1.1">
<g id="surface911">
<rect x="0" y="0" width="1179" height="517" style="fill:rgb(90%,90%,90%);fill-opacity:1;stroke:none;"/>
<path style="fill-rule:nonzero;fill:rgb(35%,70%,90%);fill-opacity:1;stroke-width:1;stroke-linecap:butt;stroke-linejoin:miter;stroke:rgb(0%,0%,0%);stroke-opacity:1;stroke-miterlimit:10;" d="M 113 275 L 142.664062 275 L 154.664062 246.785156 L 166.664062 275 L 196.332031 275 L 172.332031 292.4375 L 180.417969 323.980469 L 154.664062 306.542969 L 128.914062 323.980469 L 141.214844 292.4375 L 113 275 "/>
<path style="fill-rule:nonzero;fill:rgb(35%,70%,90%);fill-opacity:1;stroke-width:1;stroke-linecap:butt;stroke-linejoin:miter;stroke:rgb(0%,0%,0%);stroke-opacity:1;stroke-miterlimit:10;" d="M 468 274 L 497.664062 274 L 509.664062 245.785156 L 521.664062 274 L 551.332031 274 L 527.332031 291.4375 L 535.417969 322.980469 L 509.664062 305.542969 L 483.914062 322.980469 L 496.214844 291.4375 L 468 274 "/>
<path style="fill-rule:nonzero;fill:rgb(35%,70%,90%);fill-opacity:1;stroke-width:1;stroke-linecap:butt;stroke-linejoin:miter;stroke:rgb(0%,0%,0%);stroke-opacity:1;stroke-miterlimit:10;" d="M 725 104 L 754.664062 104 L 766.664062 75.785156 L 778.664062 104 L 808.332031 104 L 784.332031 121.4375 L 792.417969 152.980469 L 766.664062 135.542969 L 740.914062 152.980469 L 753.214844 121.4375 L 725 104 "/>
<path style="fill-rule:nonzero;fill:rgb(35%,70%,90%);fill-opacity:1;stroke-width:1;stroke-linecap:butt;stroke-linejoin:miter;stroke:rgb(0%,0%,0%);stroke-opacity:1;stroke-miterlimit:10;" d="M 513 128 L 542.664062 128 L 554.664062 99.785156 L 566.664062 128 L 596.332031 128 L 572.332031 145.4375 L 580.417969 176.980469 L 554.664062 159.542969 L 528.914062 176.980469 L 541.214844 145.4375 L 513 128 "/>
<path style="fill-rule:nonzero;fill:rgb(55%,51%,53%);fill-opacity:1;stroke-width:1;stroke-linecap:butt;stroke-linejoin:miter;stroke:rgb(0%,0%,0%);stroke-opacity:1;stroke-miterlimit:10;" d="M 766.214844 392 C 766.214844 403.714844 756.714844 413.214844 745 413.214844 C 733.285156 413.214844 723.785156 403.714844 723.785156 392 C 723.785156 380.285156 733.285156 370.785156 745 370.785156 C 756.714844 370.785156 766.214844 380.285156 766.214844 392 "/>
<path style="fill-rule:nonzero;fill:rgb(55%,51%,53%);fill-opacity:1;stroke-width:1;stroke-linecap:butt;stroke-linejoin:miter;stroke:rgb(0%,0%,0%);stroke-opacity:1;stroke-miterlimit:10;" d="M 1041.214844 183 C 1041.214844 194.714844 1031.714844 204.214844 1020 204.214844 C 1008.285156 204.214844 998.785156 194.714844 998.785156 183 C 998.785156 171.285156 1008.285156 161.785156 1020 161.785156 C 1031.714844 161.785156 1041.214844 171.285156 1041.214844 183 "/>
<path style="fill-rule:nonzero;fill:rgb(55%,51%,53%);fill-opacity:1;stroke-width:1;stroke-linecap:butt;stroke-linejoin:miter;stroke:rgb(0%,0%,0%);stroke-opacity:1;stroke-miterlimit:10;" d="M 374.214844 367 C 374.214844 378.714844 364.714844 388.214844 353 388.214844 C 341.285156 388.214844 331.785156 378.714844 331.785156 367 C 331.785156 355.285156 341.285156 345.785156 353 345.785156 C 364.714844 345.785156 374.214844 355.285156 374.214844 367 "/>
<path style="fill-rule:nonzero;fill:rgb(55%,51%,53%);fill-opacity:1;stroke-width:1;stroke-linecap:butt;stroke-linejoin:miter;stroke:rgb(0%,0%,0%);stroke-opacity:1;stroke-miterlimit:10;" d="M 173.214844 134 C 173.214844 145.714844 163.714844 155.214844 152 155.214844 C 140.285156 155.214844 130.785156 145.714844 130.785156 134 C 130.785156 122.285156 140.285156 112.785156 152 112.785156 C 163.714844 112.785156 173.214844 122.285156 173.214844 134 "/>
<path style="fill-rule:nonzero;fill:rgb(55%,51%,53%);fill-opacity:1;stroke-width:1;stroke-linecap:butt;stroke-linejoin:miter;stroke:rgb(0%,0%,0%);stroke-opacity:1;stroke-miterlimit:10;" d="M 662.214844 239 C 662.214844 250.714844 652.714844 260.214844 641 260.214844 C 629.285156 260.214844 619.785156 250.714844 619.785156 239 C 619.785156 227.285156 629.285156 217.785156 641 217.785156 C 652.714844 217.785156 662.214844 227.285156 662.214844 239 "/>
</g>
</svg>
