<?xml version="1.0" encoding="UTF-8"?>
<svg xmlns="http://www.w3.org/2000/svg" xmlns:xlink="http://www.w3.org/1999/xlink" width="1179pt" height="517pt" viewBox="0 0 1179 517" version="1.1">
<g id="surface6">
<rect x="0" y="0" width="1179" height="517" style="fill:rgb(90%,90%,90%);fill-opacity:1;stroke:none;"/>
<path style="fill-rule:nonzero;fill:rgb(35%,70%,90%);fill-opacity:1;stroke-width:1;stroke-linecap:butt;stroke-linejoin:miter;stroke:rgb(0%,0%,0%);stroke-opacity:1;stroke-miterlimit:10;" d="M 127 364 L 156.664062 364 L 168.664062 335.785156 L 180.664062 364 L 210.332031 364 L 186.332031 381.4375 L 194.417969 412.980469 L 168.664062 395.542969 L 142.914062 412.980469 L 155.214844 381.4375 L 127 364 "/>
<path style="fill-rule:nonzero;fill:rgb(35%,70%,90%);fill-opacity:1;stroke-width:1;stroke-linecap:butt;stroke-linejoin:miter;stroke:rgb(0%,0%,0%);stroke-opacity:1;stroke-miterlimit:10;" d="M 725 150 L 754.664062 150 L 766.664062 121.785156 L 778.664062 150 L 808.332031 150 L 784.332031 167.4375 L 792.417969 198.980469 L 766.664062 181.542969 L 740.914062 198.980469 L 753.214844 167.4375 L 725 150 "/>
<path style="fill-rule:nonzero;fill:rgb(35%,70%,90%);fill-opacity:1;stroke-width:1;stroke-linecap:butt;stroke-linejoin:miter;stroke:rgb(0%,0%,0%);stroke-opacity:1;stroke-miterlimit:10;" d="M 1006 348 L 1035.664062 348 L 1047.664062 319.785156 L 1059.664062 348 L 1089.332031 348 L 1065.332031 365.4375 L 1073.417969 396.980469 L 1047.664062 379.542969 L 1021.914062 396.980469 L 1034.214844 365.4375 L 1006 348 "/>
<path style="fill-rule:nonzero;fill:rgb(35%,70%,90%);fill-opacity:1;stroke-width:1;stroke-linecap:butt;stroke-linejoin:miter;stroke:rgb(0%,0%,0%);stroke-opacity:1;stroke-miterlimit:10;" d="M 540 328 L 569.664062 328 L 581.664062 299.785156 L 593.664062 328 L 623.332031 328 L 599.332031 345.4375 L 607.417969 376.980469 L 581.664062 359.542969 L 555.914062 376.980469 L 568.214844 345.4375 L 540 328 "/>
<path style="fill-rule:nonzero;fill:rgb(35%,70%,90%);fill-opacity:1;stroke-width:1;stroke-linecap:butt;stroke-linejoin:miter;stroke:rgb(0%,0%,0%);stroke-opacity:1;stroke-miterlimit:10;" d="M 439 129 L 468.664062 129 L 480.664062 100.785156 L 492.664062 129 L 522.332031 129 L 498.332031 146.4375 L 506.417969 177.980469 L 480.664062 160.542969 L 454.914062 177.980469 L 467.214844 146.4375 L 439 129 "/>
<path style="fill-rule:nonzero;fill:rgb(100%,51%,0%);fill-opacity:1;stroke-width:1;stroke-linecap:butt;stroke-linejoin:miter;stroke:rgb(0%,0%,0%);stroke-opacity:1;stroke-miterlimit:10;" d="M 103 103 L 77.019531 148 L 128.980469 148 L 103 103 "/>
<path style="fill-rule:nonzero;fill:rgb(100%,51%,0%);fill-opacity:1;stroke-width:1;stroke-linecap:butt;stroke-linejoin:miter;stroke:rgb(0%,0%,0%);stroke-opacity:1;stroke-miterlimit:10;" d="M 624 400 L 598.019531 445 L 649.980469 445 L 624 400 "/>
<path style="fill-rule:nonzero;fill:rgb(100%,51%,0%);fill-opacity:1;stroke-width:1;stroke-linecap:butt;stroke-linejoin:miter;stroke:rgb(0%,0%,0%);stroke-opacity:1;stroke-miterlimit:10;" d="M 262 56 L 236.019531 101 L 287.980469 101 L 262 56 "/>
<path style="fill-rule:nonzero;fill:rgb(100%,51%,0%);fill-opacity:1;stroke-width:1;stroke-linecap:butt;stroke-linejoin:miter;stroke:rgb(0%,0%,0%);stroke-opacity:1;stroke-miterlimit:10;" d="M 860 51 L 834.019531 96 L 885.980469 96 L 860 51 "/>
<path style="fill-rule:nonzero;fill:rgb(100%,51%,0%);fill-opacity:1;stroke-width:1;stroke-linecap:butt;stroke-linejoin:miter;stroke:rgb(0%,0%,0%);stroke-opacity:1;stroke-miterlimit:10;" d="M 327 299 L 301.019531 344 L 352.980469 344 L 327 299 "/>
</g>
</svg>
