<?xml version="1.0" encoding="UTF-8"?>
<svg xmlns="http://www.w3.org/2000/svg" xmlns:xlink="http://www.w3.org/1999/xlink" width="1179pt" height="517pt" viewBox="0 0 1179 517" version="1.1">
<g id="surface456">
<rect x="0" y="0" width="1179" height="517" style="fill:rgb(90%,90%,90%);fill-opacity:1;stroke:none;"/>
<path style="fill-rule:nonzero;fill:rgb(53%,27%,7%);fill-opacity:1;stroke-width:1;stroke-linecap:butt;stroke-linejoin:miter;stroke:rgb(0%,0%,0%);stroke-opacity:1;stroke-miterlimit:10;" d="M 98 268 L 72.019531 313 L 123.980469 313 L 98 268 "/>
<path style="fill-rule:nonzero;fill:rgb(53%,27%,7%);fill-opacity:1;stroke-width:1;stroke-linecap:butt;stroke-linejoin:miter;stroke:rgb(0%,0%,0%);stroke-opacity:1;stroke-miterlimit:10;" d="M 343 334 L 317.019531 379 L 368.980469 379 L 343 334 "/>
<path style="fill-rule:nonzero;fill:rgb(53%,27%,7%);fill-opacity:1;stroke-width:1;stroke-linecap:butt;stroke-linejoin:miter;stroke:rgb(0%,0%,0%);stroke-opacity:1;stroke-miterlimit:10;" d="M 269 227 L 243.019531 272 L 294.980469 272 L 269 227 "/>
<path style="fill-rule:nonzero;fill:rgb(100%,51%,0%);fill-opacity:1;stroke-width:1;stroke-linecap:butt;stroke-linejoin:miter;stroke:rgb(0%,0%,0%);stroke-opacity:1;stroke-miterlimit:10;" d="M 348 180 L 377.664062 180 L 389.664062 151.785156 L 401.664062 180 L 431.332031 180 L 407.332031 197.4375 L 415.417969 228.980469 L 389.664062 211.542969 L 363.914062 228.980469 L 376.214844 197.4375 L 348 180 "/>
<path style="fill-rule:nonzero;fill:rgb(100%,51%,0%);fill-opacity:1;stroke-width:1;stroke-linecap:butt;stroke-linejoin:miter;stroke:rgb(0%,0%,0%);stroke-opacity:1;stroke-miterlimit:10;" d="M 130 413 L 159.664062 413 L 171.664062 384.785156 L 183.664062 413 L 213.332031 413 L 189.332031 430.4375 L 197.417969 461.980469 L 171.664062 444.542969 L 145.914062 461.980469 L 158.214844 430.4375 L 130 413 "/>
<path style="fill-rule:nonzero;fill:rgb(100%,51%,0%);fill-opacity:1;stroke-width:1;stroke-linecap:butt;stroke-linejoin:miter;stroke:rgb(0%,0%,0%);stroke-opacity:1;stroke-miterlimit:10;" d="M 898 249 L 927.664062 249 L 939.664062 220.785156 L 951.664062 249 L 981.332031 249 L 957.332031 266.4375 L 965.417969 297.980469 L 939.664062 280.542969 L 913.914062 297.980469 L 926.214844 266.4375 L 898 249 "/>
<path style="fill-rule:nonzero;fill:rgb(100%,51%,0%);fill-opacity:1;stroke-width:1;stroke-linecap:butt;stroke-linejoin:miter;stroke:rgb(0%,0%,0%);stroke-opacity:1;stroke-miterlimit:10;" d="M 936 151 L 965.664062 151 L 977.664062 122.785156 L 989.664062 151 L 1019.332031 151 L 995.332031 168.4375 L 1003.417969 199.980469 L 977.664062 182.542969 L 951.914062 199.980469 L 964.214844 168.4375 L 936 151 "/>
<path style="fill-rule:nonzero;fill:rgb(53%,27%,7%);fill-opacity:1;stroke-width:1;stroke-linecap:butt;stroke-linejoin:miter;stroke:rgb(0%,0%,0%);stroke-opacity:1;stroke-miterlimit:10;" d="M 760 250 L 734.019531 295 L 785.980469 295 L 760 250 "/>
<path style="fill-rule:nonzero;fill:rgb(53%,27%,7%);fill-opacity:1;stroke-width:1;stroke-linecap:butt;stroke-linejoin:miter;stroke:rgb(0%,0%,0%);stroke-opacity:1;stroke-miterlimit:10;" d="M 1019 273 L 993.019531 318 L 1044.980469 318 L 1019 273 "/>
<path style="fill-rule:nonzero;fill:rgb(100%,51%,0%);fill-opacity:1;stroke-width:1;stroke-linecap:butt;stroke-linejoin:miter;stroke:rgb(0%,0%,0%);stroke-opacity:1;stroke-miterlimit:10;" d="M 941 365 L 970.664062 365 L 982.664062 336.785156 L 994.664062 365 L 1024.332031 365 L 1000.332031 382.4375 L 1008.417969 413.980469 L 982.664062 396.542969 L 956.914062 413.980469 L 969.214844 382.4375 L 941 365 "/>
<path style="fill-rule:nonzero;fill:rgb(53%,27%,7%);fill-opacity:1;stroke-width:1;stroke-linecap:butt;stroke-linejoin:miter;stroke:rgb(0%,0%,0%);stroke-opacity:1;stroke-miterlimit:10;" d="M 804 402 L 778.019531 447 L 829.980469 447 L 804 402 "/>
<path style="fill-rule:nonzero;fill:rgb(100%,51%,0%);fill-opacity:1;stroke-width:1;stroke-linecap:butt;stroke-linejoin:miter;stroke:rgb(0%,0%,0%);stroke-opacity:1;stroke-miterlimit:10;" d="M 736 93 L 765.664062 93 L 777.664062 64.785156 L 789.664062 93 L 819.332031 93 L 795.332031 110.4375 L 803.417969 141.980469 L 777.664062 124.542969 L 751.914062 141.980469 L 764.214844 110.4375 L 736 93 "/>
<path style="fill-rule:nonzero;fill:rgb(100%,51%,0%);fill-opacity:1;stroke-width:1;stroke-linecap:butt;stroke-linejoin:miter;stroke:rgb(0%,0%,0%);stroke-opacity:1;stroke-miterlimit:10;" d="M 1035 428 L 1064.664062 428 L 1076.664062 399.785156 L 1088.664062 428 L 1118.332031 428 L 1094.332031 445.4375 L 1102.417969 476.980469 L 1076.664062 459.542969 L 1050.914062 476.980469 L 1063.214844 445.4375 L 1035 428 "/>
</g>
</svg>
