<?xml version="1.0" encoding="UTF-8"?>
<svg xmlns="http://www.w3.org/2000/svg" xmlns:xlink="http://www.w3.org/1999/xlink" width="1179pt" height="517pt" viewBox="0 0 1179 517" version="1.1">
<g id="surface1041">
<rect x="0" y="0" width="1179" height="517" style="fill:rgb(90%,90%,90%);fill-opacity:1;stroke:none;"/>
<path style="fill-rule:nonzero;fill:rgb(100%,51%,0%);fill-opacity:1;stroke-width:1;stroke-linecap:butt;stroke-linejoin:miter;stroke:rgb(0%,0%,0%);stroke-opacity:1;stroke-miterlimit:10;" d="M 93 90 L 122.664062 90 L 134.664062 61.785156 L 146.664062 90 L 176.332031 90 L 152.332031 107.4375 L 160.417969 138.980469 L 134.664062 121.542969 L 108.914062 138.980469 L 121.214844 107.4375 L 93 90 "/>
<path style="fill-rule:nonzero;fill:rgb(100%,51%,0%);fill-opacity:1;stroke-width:1;stroke-linecap:butt;stroke-linejoin:miter;stroke:rgb(0%,0%,0%);stroke-opacity:1;stroke-miterlimit:10;" d="M 904 256 L 933.664062 256 L 945.664062 227.785156 L 957.664062 256 L 987.332031 256 L 963.332031 273.4375 L 971.417969 304.980469 L 945.664062 287.542969 L 919.914062 304.980469 L 932.214844 273.4375 L 904 256 "/>
<path style="fill-rule:nonzero;fill:rgb(100%,51%,0%);fill-opacity:1;stroke-width:1;stroke-linecap:butt;stroke-linejoin:miter;stroke:rgb(0%,0%,0%);stroke-opacity:1;stroke-miterlimit:10;" d="M 557 162 L 586.664062 162 L 598.664062 133.785156 L 610.664062 162 L 640.332031 162 L 616.332031 179.4375 L 624.417969 210.980469 L 598.664062 193.542969 L 572.914062 210.980469 L 585.214844 179.4375 L 557 162 "/>
<path style="fill-rule:nonzero;fill:rgb(100%,51%,0%);fill-opacity:1;stroke-width:1;stroke-linecap:butt;stroke-linejoin:miter;stroke:rgb(0%,0%,0%);stroke-opacity:1;stroke-miterlimit:10;" d="M 413 283 L 442.664062 283 L 454.664062 254.785156 L 466.664062 283 L 496.332031 283 L 472.332031 300.4375 L 480.417969 331.980469 L 454.664062 314.542969 L 428.914062 331.980469 L 441.214844 300.4375 L 413 283 "/>
<path style="fill-rule:nonzero;fill:rgb(55%,51%,53%);fill-opacity:1;stroke-width:1;stroke-linecap:butt;stroke-linejoin:miter;stroke:rgb(0%,0%,0%);stroke-opacity:1;stroke-miterlimit:10;" d="M 261.214844 105 C 261.214844 116.714844 251.714844 126.214844 240 126.214844 C 228.285156 126.214844 218.785156 116.714844 218.785156 105 C 218.785156 93.285156 228.285156 83.785156 240 83.785156 C 251.714844 83.785156 261.214844 93.285156 261.214844 105 "/>
<path style="fill-rule:nonzero;fill:rgb(55%,51%,53%);fill-opacity:1;stroke-width:1;stroke-linecap:butt;stroke-linejoin:miter;stroke:rgb(0%,0%,0%);stroke-opacity:1;stroke-miterlimit:10;" d="M 841.214844 360 C 841.214844 371.714844 831.714844 381.214844 820 381.214844 C 808.285156 381.214844 798.785156 371.714844 798.785156 360 C 798.785156 348.285156 808.285156 338.785156 820 338.785156 C 831.714844 338.785156 841.214844 348.285156 841.214844 360 "/>
<path style="fill-rule:nonzero;fill:rgb(55%,51%,53%);fill-opacity:1;stroke-width:1;stroke-linecap:butt;stroke-linejoin:miter;stroke:rgb(0%,0%,0%);stroke-opacity:1;stroke-miterlimit:10;" d="M 150.214844 418 C 150.214844 429.714844 140.714844 439.214844 129 439.214844 C 117.285156 439.214844 107.785156 429.714844 107.785156 418 C 107.785156 406.285156 117.285156 396.785156 129 396.785156 C 140.714844 396.785156 150.214844 406.285156 150.214844 418 "/>
<path style="fill-rule:nonzero;fill:rgb(55%,51%,53%);fill-opacity:1;stroke-width:1;stroke-linecap:butt;stroke-linejoin:miter;stroke:rgb(0%,0%,0%);stroke-opacity:1;stroke-miterlimit:10;" d="M 708.214844 324 C 708.214844 335.714844 698.714844 345.214844 687 345.214844 C 675.285156 345.214844 665.785156 335.714844 665.785156 324 C 665.785156 312.285156 675.285156 302.785156 687 302.785156 C 698.714844 302.785156 708.214844 312.285156 708.214844 324 "/>
<path style="fill-rule:nonzero;fill:rgb(55%,51%,53%);fill-opacity:1;stroke-width:1;stroke-linecap:butt;stroke-linejoin:miter;stroke:rgb(0%,0%,0%);stroke-opacity:1;stroke-miterlimit:10;" d="M 287.214844 279 C 287.214844 290.714844 277.714844 300.214844 266 300.214844 C 254.285156 300.214844 244.785156 290.714844 244.785156 279 C 244.785156 267.285156 254.285156 257.785156 266 257.785156 C 277.714844 257.785156 287.214844 267.285156 287.214844 279 "/>
</g>
</svg>
