<?xml version="1.0" encoding="UTF-8"?>
<svg xmlns="http://www.w3.org/2000/svg" xmlns:xlink="http://www.w3.org/1999/xlink" width="1179pt" height="517pt" viewBox="0 0 1179 517" version="1.1">
<g id="surface556">
<rect x="0" y="0" width="1179" height="517" style="fill:rgb(90%,90%,90%);fill-opacity:1;stroke:none;"/>
<path style="fill-rule:nonzero;fill:rgb(35%,70%,90%);fill-opacity:1;stroke-width:1;stroke-linecap:butt;stroke-linejoin:miter;stroke:rgb(0%,0%,0%);stroke-opacity:1;stroke-miterlimit:10;" d="M 373.214844 368 C 373.214844 379.714844 363.714844 389.214844 352 389.214844 C 340.285156 389.214844 330.785156 379.714844 330.785156 368 C 330.785156 356.285156 340.285156 346.785156 352 346.785156 C 363.714844 346.785156 373.214844 356.285156 373.214844 368 "/>
<path style="fill-rule:nonzero;fill:rgb(35%,70%,90%);fill-opacity:1;stroke-width:1;stroke-linecap:butt;stroke-linejoin:miter;stroke:rgb(0%,0%,0%);stroke-opacity:1;stroke-miterlimit:10;" d="M 151.214844 183 C 151.214844 194.714844 141.714844 204.214844 130 204.214844 C 118.285156 204.214844 108.785156 194.714844 108.785156 183 C 108.785156 171.285156 118.285156 161.785156 130 161.785156 C 141.714844 161.785156 151.214844 171.285156 151.214844 183 "/>
<path style="fill-rule:nonzero;fill:rgb(100%,51%,0%);fill-opacity:1;stroke-width:1;stroke-linecap:butt;stroke-linejoin:miter;stroke:rgb(0%,0%,0%);stroke-opacity:1;stroke-miterlimit:10;" d="M 291.214844 165 C 291.214844 176.714844 281.714844 186.214844 270 186.214844 C 258.285156 186.214844 248.785156 176.714844 248.785156 165 C 248.785156 153.285156 258.285156 143.785156 270 143.785156 C 281.714844 143.785156 291.214844 153.285156 291.214844 165 "/>
<path style="fill-rule:nonzero;fill:rgb(100%,51%,0%);fill-opacity:1;stroke-width:1;stroke-linecap:butt;stroke-linejoin:miter;stroke:rgb(0%,0%,0%);stroke-opacity:1;stroke-miterlimit:10;" d="M 120.214844 398 C 120.214844 409.714844 110.714844 419.214844 99 419.214844 C 87.285156 419.214844 77.785156 409.714844 77.785156 398 C 77.785156 386.285156 87.285156 376.785156 99 376.785156 C 110.714844 376.785156 120.214844 386.285156 120.214844 398 "/>
<path style="fill-rule:nonzero;fill:rgb(35%,70%,90%);fill-opacity:1;stroke-width:1;stroke-linecap:butt;stroke-linejoin:miter;stroke:rgb(0%,0%,0%);stroke-opacity:1;stroke-miterlimit:10;" d="M 134.214844 93 C 134.214844 104.714844 124.714844 114.214844 113 114.214844 C 101.285156 114.214844 91.785156 104.714844 91.785156 93 C 91.785156 81.285156 101.285156 71.785156 113 71.785156 C 124.714844 71.785156 134.214844 81.285156 134.214844 93 "/>
<path style="fill-rule:nonzero;fill:rgb(100%,51%,0%);fill-opacity:1;stroke-width:1;stroke-linecap:butt;stroke-linejoin:miter;stroke:rgb(0%,0%,0%);stroke-opacity:1;stroke-miterlimit:10;" d="M 759 105 L 733.019531 150 L 784.980469 150 L 759 105 "/>
<path style="fill-rule:nonzero;fill:rgb(100%,51%,0%);fill-opacity:1;stroke-width:1;stroke-linecap:butt;stroke-linejoin:miter;stroke:rgb(0%,0%,0%);stroke-opacity:1;stroke-miterlimit:10;" d="M 1003 296 L 977.019531 341 L 1028.980469 341 L 1003 296 "/>
<path style="fill-rule:nonzero;fill:rgb(35%,70%,90%);fill-opacity:1;stroke-width:1;stroke-linecap:butt;stroke-linejoin:miter;stroke:rgb(0%,0%,0%);stroke-opacity:1;stroke-miterlimit:10;" d="M 755 309 L 729.019531 354 L 780.980469 354 L 755 309 "/>
<path style="fill-rule:nonzero;fill:rgb(35%,70%,90%);fill-opacity:1;stroke-width:1;stroke-linecap:butt;stroke-linejoin:miter;stroke:rgb(0%,0%,0%);stroke-opacity:1;stroke-miterlimit:10;" d="M 866 50 L 840.019531 95 L 891.980469 95 L 866 50 "/>
</g>
</svg>
