<?xml version="1.0" encoding="UTF-8"?>
<svg xmlns="http://www.w3.org/2000/svg" xmlns:xlink="http://www.w3.org/1999/xlink" width="1179pt" height="517pt" viewBox="0 0 1179 517" version="1.1">
<g id="surface781">
<rect x="0" y="0" width="1179" height="517" style="fill:rgb(90%,90%,90%);fill-opacity:1;stroke:none;"/>
<path style="fill-rule:nonzero;fill:rgb(53%,27%,7%);fill-opacity:1;stroke-width:1;stroke-linecap:butt;stroke-linejoin:miter;stroke:rgb(0%,0%,0%);stroke-opacity:1;stroke-miterlimit:10;" d="M 421 175 L 450.664062 175 L 462.664062 146.785156 L 474.664062 175 L 504.332031 175 L 480.332031 192.4375 L 488.417969 223.980469 L 462.664062 206.542969 L 436.914062 223.980469 L 449.214844 192.4375 L 421 175 "/>
<path style="fill-rule:nonzero;fill:rgb(53%,27%,7%);fill-opacity:1;stroke-width:1;stroke-linecap:butt;stroke-linejoin:miter;stroke:rgb(0%,0%,0%);stroke-opacity:1;stroke-miterlimit:10;" d="M 711 410 L 740.664062 410 L 752.664062 381.785156 L 764.664062 410 L 794.332031 410 L 770.332031 427.4375 L 778.417969 458.980469 L 752.664062 441.542969 L 726.914062 458.980469 L 739.214844 427.4375 L 711 410 "/>
<path style="fill-rule:nonzero;fill:rgb(53%,27%,7%);fill-opacity:1;stroke-width:1;stroke-linecap:butt;stroke-linejoin:miter;stroke:rgb(0%,0%,0%);stroke-opacity:1;stroke-miterlimit:10;" d="M 813 279 L 842.664062 279 L 854.664062 250.785156 L 866.664062 279 L 896.332031 279 L 872.332031 296.4375 L 880.417969 327.980469 L 854.664062 310.542969 L 828.914062 327.980469 L 841.214844 296.4375 L 813 279 "/>
<path style="fill-rule:nonzero;fill:rgb(55%,51%,53%);fill-opacity:1;stroke-width:1;stroke-linecap:butt;stroke-linejoin:miter;stroke:rgb(0%,0%,0%);stroke-opacity:1;stroke-miterlimit:10;" d="M 839 100 L 868.664062 100 L 880.664062 71.785156 L 892.664062 100 L 922.332031 100 L 898.332031 117.4375 L 906.417969 148.980469 L 880.664062 131.542969 L 854.914062 148.980469 L 867.214844 117.4375 L 839 100 "/>
<path style="fill-rule:nonzero;fill:rgb(55%,51%,53%);fill-opacity:1;stroke-width:1;stroke-linecap:butt;stroke-linejoin:miter;stroke:rgb(0%,0%,0%);stroke-opacity:1;stroke-miterlimit:10;" d="M 259 374 L 288.664062 374 L 300.664062 345.785156 L 312.664062 374 L 342.332031 374 L 318.332031 391.4375 L 326.417969 422.980469 L 300.664062 405.542969 L 274.914062 422.980469 L 287.214844 391.4375 L 259 374 "/>
<path style="fill-rule:nonzero;fill:rgb(55%,51%,53%);fill-opacity:1;stroke-width:1;stroke-linecap:butt;stroke-linejoin:miter;stroke:rgb(0%,0%,0%);stroke-opacity:1;stroke-miterlimit:10;" d="M 421 424 L 450.664062 424 L 462.664062 395.785156 L 474.664062 424 L 504.332031 424 L 480.332031 441.4375 L 488.417969 472.980469 L 462.664062 455.542969 L 436.914062 472.980469 L 449.214844 441.4375 L 421 424 "/>
<path style="fill-rule:nonzero;fill:rgb(55%,51%,53%);fill-opacity:1;stroke-width:1;stroke-linecap:butt;stroke-linejoin:miter;stroke:rgb(0%,0%,0%);stroke-opacity:1;stroke-miterlimit:10;" d="M 145 254 L 174.664062 254 L 186.664062 225.785156 L 198.664062 254 L 228.332031 254 L 204.332031 271.4375 L 212.417969 302.980469 L 186.664062 285.542969 L 160.914062 302.980469 L 173.214844 271.4375 L 145 254 "/>
<path style="fill-rule:nonzero;fill:rgb(55%,51%,53%);fill-opacity:1;stroke-width:1;stroke-linecap:butt;stroke-linejoin:miter;stroke:rgb(0%,0%,0%);stroke-opacity:1;stroke-miterlimit:10;" d="M 131 94 L 160.664062 94 L 172.664062 65.785156 L 184.664062 94 L 214.332031 94 L 190.332031 111.4375 L 198.417969 142.980469 L 172.664062 125.542969 L 146.914062 142.980469 L 159.214844 111.4375 L 131 94 "/>
</g>
</svg>
