<?xml version="1.0" encoding="UTF-8"?>
<svg xmlns="http://www.w3.org/2000/svg" xmlns:xlink="http://www.w3.org/1999/xlink" width="1179pt" height="517pt" viewBox="0 0 1179 517" version="1.1">
<g id="surface111">
<rect x="0" y="0" width="1179" height="517" style="fill:rgb(90%,90%,90%);fill-opacity:1;stroke:none;"/>
<path style="fill-rule:nonzero;fill:rgb(100%,51%,0%);fill-opacity:1;stroke-width:1;stroke-linecap:butt;stroke-linejoin:miter;stroke:rgb(0%,0%,0%);stroke-opacity:1;stroke-miterlimit:10;" d="M 101.214844 145 C 101.214844 156.714844 91.714844 166.214844 80 166.214844 C 68.285156 166.214844 58.785156 156.714844 58.785156 145 C 58.785156 133.285156 68.285156 123.785156 80 123.785156 C 91.714844 123.785156 101.214844 133.285156 101.214844 145 "/>
<path style="fill-rule:nonzero;fill:rgb(53%,27%,7%);fill-opacity:1;stroke-width:1;stroke-linecap:butt;stroke-linejoin:miter;stroke:rgb(0%,0%,0%);stroke-opacity:1;stroke-miterlimit:10;" d="M 273.214844 324 C 273.214844 335.714844 263.714844 345.214844 252 345.214844 C 240.285156 345.214844 230.785156 335.714844 230.785156 324 C 230.785156 312.285156 240.285156 302.785156 252 302.785156 C 263.714844 302.785156 273.214844 312.285156 273.214844 324 "/>
<path style="fill-rule:nonzero;fill:rgb(53%,27%,7%);fill-opacity:1;stroke-width:1;stroke-linecap:butt;stroke-linejoin:miter;stroke:rgb(0%,0%,0%);stroke-opacity:1;stroke-miterlimit:10;" d="M 367.214844 223 C 367.214844 234.714844 357.714844 244.214844 346 244.214844 C 334.285156 244.214844 324.785156 234.714844 324.785156 223 C 324.785156 211.285156 334.285156 201.785156 346 201.785156 C 357.714844 201.785156 367.214844 211.285156 367.214844 223 "/>
<path style="fill-rule:nonzero;fill:rgb(100%,51%,0%);fill-opacity:1;stroke-width:1;stroke-linecap:butt;stroke-linejoin:miter;stroke:rgb(0%,0%,0%);stroke-opacity:1;stroke-miterlimit:10;" d="M 217.214844 89 C 217.214844 100.714844 207.714844 110.214844 196 110.214844 C 184.285156 110.214844 174.785156 100.714844 174.785156 89 C 174.785156 77.285156 184.285156 67.785156 196 67.785156 C 207.714844 67.785156 217.214844 77.285156 217.214844 89 "/>
<path style="fill-rule:nonzero;fill:rgb(53%,27%,7%);fill-opacity:1;stroke-width:1;stroke-linecap:butt;stroke-linejoin:miter;stroke:rgb(0%,0%,0%);stroke-opacity:1;stroke-miterlimit:10;" d="M 1000.785156 135.785156 L 1000.785156 178.214844 L 1043.214844 178.214844 L 1043.214844 135.785156 L 1000.785156 135.785156 "/>
<path style="fill-rule:nonzero;fill:rgb(100%,51%,0%);fill-opacity:1;stroke-width:1;stroke-linecap:butt;stroke-linejoin:miter;stroke:rgb(0%,0%,0%);stroke-opacity:1;stroke-miterlimit:10;" d="M 748.785156 181.785156 L 748.785156 224.214844 L 791.214844 224.214844 L 791.214844 181.785156 L 748.785156 181.785156 "/>
<path style="fill-rule:nonzero;fill:rgb(100%,51%,0%);fill-opacity:1;stroke-width:1;stroke-linecap:butt;stroke-linejoin:miter;stroke:rgb(0%,0%,0%);stroke-opacity:1;stroke-miterlimit:10;" d="M 822.785156 297.785156 L 822.785156 340.214844 L 865.214844 340.214844 L 865.214844 297.785156 L 822.785156 297.785156 "/>
<path style="fill-rule:nonzero;fill:rgb(53%,27%,7%);fill-opacity:1;stroke-width:1;stroke-linecap:butt;stroke-linejoin:miter;stroke:rgb(0%,0%,0%);stroke-opacity:1;stroke-miterlimit:10;" d="M 899.785156 171.785156 L 899.785156 214.214844 L 942.214844 214.214844 L 942.214844 171.785156 L 899.785156 171.785156 "/>
</g>
</svg>
