<?xml version="1.0" encoding="UTF-8"?>
<svg xmlns="http://www.w3.org/2000/svg" xmlns:xlink="http://www.w3.org/1999/xlink" width="1179pt" height="517pt" viewBox="0 0 1179 517" version="1.1">
<g id="surface1476">
<rect x="0" y="0" width="1179" height="517" style="fill:rgb(90%,90%,90%);fill-opacity:1;stroke:none;"/>
<path style="fill-rule:nonzero;fill:rgb(55%,51%,53%);fill-opacity:1;stroke-width:1;stroke-linecap:butt;stroke-linejoin:miter;stroke:rgb(0%,0%,0%);stroke-opacity:1;stroke-miterlimit:10;" d="M 766.214844 90 C 766.214844 101.714844 756.714844 111.214844 745 111.214844 C 733.285156 111.214844 723.785156 101.714844 723.785156 90 C 723.785156 78.285156 733.285156 68.785156 745 68.785156 C 756.714844 68.785156 766.214844 78.285156 766.214844 90 "/>
<path style="fill-rule:nonzero;fill:rgb(55%,51%,53%);fill-opacity:1;stroke-width:1;stroke-linecap:butt;stroke-linejoin:miter;stroke:rgb(0%,0%,0%);stroke-opacity:1;stroke-miterlimit:10;" d="M 343.214844 315 C 343.214844 326.714844 333.714844 336.214844 322 336.214844 C 310.285156 336.214844 300.785156 326.714844 300.785156 315 C 300.785156 303.285156 310.285156 293.785156 322 293.785156 C 333.714844 293.785156 343.214844 303.285156 343.214844 315 "/>
<path style="fill-rule:nonzero;fill:rgb(55%,51%,53%);fill-opacity:1;stroke-width:1;stroke-linecap:butt;stroke-linejoin:miter;stroke:rgb(0%,0%,0%);stroke-opacity:1;stroke-miterlimit:10;" d="M 586.214844 239 C 586.214844 250.714844 576.714844 260.214844 565 260.214844 C 553.285156 260.214844 543.785156 250.714844 543.785156 239 C 543.785156 227.285156 553.285156 217.785156 565 217.785156 C 576.714844 217.785156 586.214844 227.285156 586.214844 239 "/>
<path style="fill-rule:nonzero;fill:rgb(100%,51%,0%);fill-opacity:1;stroke-width:1;stroke-linecap:butt;stroke-linejoin:miter;stroke:rgb(0%,0%,0%);stroke-opacity:1;stroke-miterlimit:10;" d="M 950 354.601562 C 950 340.199219 926 340.199219 926 354.601562 C 926 369 950 371.398438 950 383.398438 C 950 371.398438 974 369 974 354.601562 C 974 340.199219 950 340.199219 950 354.601562 "/>
<path style="fill-rule:nonzero;fill:rgb(100%,51%,0%);fill-opacity:1;stroke-width:1;stroke-linecap:butt;stroke-linejoin:miter;stroke:rgb(0%,0%,0%);stroke-opacity:1;stroke-miterlimit:10;" d="M 828 294.601562 C 828 280.199219 804 280.199219 804 294.601562 C 804 309 828 311.398438 828 323.398438 C 828 311.398438 852 309 852 294.601562 C 852 280.199219 828 280.199219 828 294.601562 "/>
<path style="fill-rule:nonzero;fill:rgb(100%,51%,0%);fill-opacity:1;stroke-width:1;stroke-linecap:butt;stroke-linejoin:miter;stroke:rgb(0%,0%,0%);stroke-opacity:1;stroke-miterlimit:10;" d="M 851 137.601562 C 851 123.199219 827 123.199219 827 137.601562 C 827 152 851 154.398438 851 166.398438 C 851 154.398438 875 152 875 137.601562 C 875 123.199219 851 123.199219 851 137.601562 "/>
<path style="fill-rule:nonzero;fill:rgb(100%,51%,0%);fill-opacity:1;stroke-width:1;stroke-linecap:butt;stroke-linejoin:miter;stroke:rgb(0%,0%,0%);stroke-opacity:1;stroke-miterlimit:10;" d="M 289 98.601562 C 289 84.199219 265 84.199219 265 98.601562 C 265 113 289 115.398438 289 127.398438 C 289 115.398438 313 113 313 98.601562 C 313 84.199219 289 84.199219 289 98.601562 "/>
</g>
</svg>
