<?xml version="1.0" encoding="UTF-8"?>
<svg xmlns="http://www.w3.org/2000/svg" xmlns:xlink="http://www.w3.org/1999/xlink" width="1179pt" height="517pt" viewBox="0 0 1179 517" version="1.1">
<g id="surface1396">
<rect x="0" y="0" width="1179" height="517" style="fill:rgb(90%,90%,90%);fill-opacity:1;stroke:none;"/>
<path style="fill-rule:nonzero;fill:rgb(35%,70%,90%);fill-opacity:1;stroke-width:1;stroke-linecap:butt;stroke-linejoin:miter;stroke:rgb(0%,0%,0%);stroke-opacity:1;stroke-miterlimit:10;" d="M 143 84.601562 C 143 70.199219 119 70.199219 119 84.601562 C 119 99 143 101.398438 143 113.398438 C 143 101.398438 167 99 167 84.601562 C 167 70.199219 143 70.199219 143 84.601562 "/>
<path style="fill-rule:nonzero;fill:rgb(35%,70%,90%);fill-opacity:1;stroke-width:1;stroke-linecap:butt;stroke-linejoin:miter;stroke:rgb(0%,0%,0%);stroke-opacity:1;stroke-miterlimit:10;" d="M 295 398.601562 C 295 384.199219 271 384.199219 271 398.601562 C 271 413 295 415.398438 295 427.398438 C 295 415.398438 319 413 319 398.601562 C 319 384.199219 295 384.199219 295 398.601562 "/>
<path style="fill-rule:nonzero;fill:rgb(35%,70%,90%);fill-opacity:1;stroke-width:1;stroke-linecap:butt;stroke-linejoin:miter;stroke:rgb(0%,0%,0%);stroke-opacity:1;stroke-miterlimit:10;" d="M 925 220.601562 C 925 206.199219 901 206.199219 901 220.601562 C 901 235 925 237.398438 925 249.398438 C 925 237.398438 949 235 949 220.601562 C 949 206.199219 925 206.199219 925 220.601562 "/>
<path style="fill-rule:nonzero;fill:rgb(35%,70%,90%);fill-opacity:1;stroke-width:1;stroke-linecap:butt;stroke-linejoin:miter;stroke:rgb(0%,0%,0%);stroke-opacity:1;stroke-miterlimit:10;" d="M 427 331.601562 C 427 317.199219 403 317.199219 403 331.601562 C 403 346 427 348.398438 427 360.398438 C 427 348.398438 451 346 451 331.601562 C 451 317.199219 427 317.199219 427 331.601562 "/>
<path style="fill-rule:nonzero;fill:rgb(35%,70%,90%);fill-opacity:1;stroke-width:1;stroke-linecap:butt;stroke-linejoin:miter;stroke:rgb(0%,0%,0%);stroke-opacity:1;stroke-miterlimit:10;" d="M 774 356.601562 C 774 342.199219 750 342.199219 750 356.601562 C 750 371 774 373.398438 774 385.398438 C 774 373.398438 798 371 798 356.601562 C 798 342.199219 774 342.199219 774 356.601562 "/>
<path style="fill-rule:nonzero;fill:rgb(53%,27%,7%);fill-opacity:1;stroke-width:1;stroke-linecap:butt;stroke-linejoin:miter;stroke:rgb(0%,0%,0%);stroke-opacity:1;stroke-miterlimit:10;" d="M 608.214844 339 C 608.214844 350.714844 598.714844 360.214844 587 360.214844 C 575.285156 360.214844 565.785156 350.714844 565.785156 339 C 565.785156 327.285156 575.285156 317.785156 587 317.785156 C 598.714844 317.785156 608.214844 327.285156 608.214844 339 "/>
<path style="fill-rule:nonzero;fill:rgb(53%,27%,7%);fill-opacity:1;stroke-width:1;stroke-linecap:butt;stroke-linejoin:miter;stroke:rgb(0%,0%,0%);stroke-opacity:1;stroke-miterlimit:10;" d="M 136.214844 349 C 136.214844 360.714844 126.714844 370.214844 115 370.214844 C 103.285156 370.214844 93.785156 360.714844 93.785156 349 C 93.785156 337.285156 103.285156 327.785156 115 327.785156 C 126.714844 327.785156 136.214844 337.285156 136.214844 349 "/>
<path style="fill-rule:nonzero;fill:rgb(53%,27%,7%);fill-opacity:1;stroke-width:1;stroke-linecap:butt;stroke-linejoin:miter;stroke:rgb(0%,0%,0%);stroke-opacity:1;stroke-miterlimit:10;" d="M 594.214844 124 C 594.214844 135.714844 584.714844 145.214844 573 145.214844 C 561.285156 145.214844 551.785156 135.714844 551.785156 124 C 551.785156 112.285156 561.285156 102.785156 573 102.785156 C 584.714844 102.785156 594.214844 112.285156 594.214844 124 "/>
</g>
</svg>
