<?xml version="1.0" encoding="UTF-8"?>
<svg xmlns="http://www.w3.org/2000/svg" xmlns:xlink="http://www.w3.org/1999/xlink" width="1179pt" height="517pt" viewBox="0 0 1179 517" version="1.1">
<g id="surface451">
<rect x="0" y="0" width="1179" height="517" style="fill:rgb(90%,90%,90%);fill-opacity:1;stroke:none;"/>
<path style="fill-rule:nonzero;fill:rgb(100%,51%,0%);fill-opacity:1;stroke-width:1;stroke-linecap:butt;stroke-linejoin:miter;stroke:rgb(0%,0%,0%);stroke-opacity:1;stroke-miterlimit:10;" d="M 201 187 L 230.664062 187 L 242.664062 158.785156 L 254.664062 187 L 284.332031 187 L 260.332031 204.4375 L 268.417969 235.980469 L 242.664062 218.542969 L 216.914062 235.980469 L 229.214844 204.4375 L 201 187 "/>
<path style="fill-rule:nonzero;fill:rgb(100%,51%,0%);fill-opacity:1;stroke-width:1;stroke-linecap:butt;stroke-linejoin:miter;stroke:rgb(0%,0%,0%);stroke-opacity:1;stroke-miterlimit:10;" d="M 241 334 L 270.664062 334 L 282.664062 305.785156 L 294.664062 334 L 324.332031 334 L 300.332031 351.4375 L 308.417969 382.980469 L 282.664062 365.542969 L 256.914062 382.980469 L 269.214844 351.4375 L 241 334 "/>
<path style="fill-rule:nonzero;fill:rgb(100%,51%,0%);fill-opacity:1;stroke-width:1;stroke-linecap:butt;stroke-linejoin:miter;stroke:rgb(0%,0%,0%);stroke-opacity:1;stroke-miterlimit:10;" d="M 393 164 L 422.664062 164 L 434.664062 135.785156 L 446.664062 164 L 476.332031 164 L 452.332031 181.4375 L 460.417969 212.980469 L 434.664062 195.542969 L 408.914062 212.980469 L 421.214844 181.4375 L 393 164 "/>
<path style="fill-rule:nonzero;fill:rgb(100%,51%,0%);fill-opacity:1;stroke-width:1;stroke-linecap:butt;stroke-linejoin:miter;stroke:rgb(0%,0%,0%);stroke-opacity:1;stroke-miterlimit:10;" d="M 529 198 L 558.664062 198 L 570.664062 169.785156 L 582.664062 198 L 612.332031 198 L 588.332031 215.4375 L 596.417969 246.980469 L 570.664062 229.542969 L 544.914062 246.980469 L 557.214844 215.4375 L 529 198 "/>
<path style="fill-rule:nonzero;fill:rgb(53%,27%,7%);fill-opacity:1;stroke-width:1;stroke-linecap:butt;stroke-linejoin:miter;stroke:rgb(0%,0%,0%);stroke-opacity:1;stroke-miterlimit:10;" d="M 982.214844 380 C 982.214844 391.714844 972.714844 401.214844 961 401.214844 C 949.285156 401.214844 939.785156 391.714844 939.785156 380 C 939.785156 368.285156 949.285156 358.785156 961 358.785156 C 972.714844 358.785156 982.214844 368.285156 982.214844 380 "/>
<path style="fill-rule:nonzero;fill:rgb(53%,27%,7%);fill-opacity:1;stroke-width:1;stroke-linecap:butt;stroke-linejoin:miter;stroke:rgb(0%,0%,0%);stroke-opacity:1;stroke-miterlimit:10;" d="M 914.214844 124 C 914.214844 135.714844 904.714844 145.214844 893 145.214844 C 881.285156 145.214844 871.785156 135.714844 871.785156 124 C 871.785156 112.285156 881.285156 102.785156 893 102.785156 C 904.714844 102.785156 914.214844 112.285156 914.214844 124 "/>
<path style="fill-rule:nonzero;fill:rgb(53%,27%,7%);fill-opacity:1;stroke-width:1;stroke-linecap:butt;stroke-linejoin:miter;stroke:rgb(0%,0%,0%);stroke-opacity:1;stroke-miterlimit:10;" d="M 730.214844 162 C 730.214844 173.714844 720.714844 183.214844 709 183.214844 C 697.285156 183.214844 687.785156 173.714844 687.785156 162 C 687.785156 150.285156 697.285156 140.785156 709 140.785156 C 720.714844 140.785156 730.214844 150.285156 730.214844 162 "/>
<path style="fill-rule:nonzero;fill:rgb(53%,27%,7%);fill-opacity:1;stroke-width:1;stroke-linecap:butt;stroke-linejoin:miter;stroke:rgb(0%,0%,0%);stroke-opacity:1;stroke-miterlimit:10;" d="M 542.214844 395 C 542.214844 406.714844 532.714844 416.214844 521 416.214844 C 509.285156 416.214844 499.785156 406.714844 499.785156 395 C 499.785156 383.285156 509.285156 373.785156 521 373.785156 C 532.714844 373.785156 542.214844 383.285156 542.214844 395 "/>
</g>
</svg>
