<?xml version="1.0" encoding="UTF-8"?>
<svg xmlns="http://www.w3.org/2000/svg" xmlns:xlink="http://www.w3.org/1999/xlink" width="1179pt" height="517pt" viewBox="0 0 1179 517" version="1.1">
<g id="surface221">
<rect x="0" y="0" width="1179" height="517" style="fill:rgb(90%,90%,90%);fill-opacity:1;stroke:none;"/>
<path style="fill-rule:nonzero;fill:rgb(35%,70%,90%);fill-opacity:1;stroke-width:1;stroke-linecap:butt;stroke-linejoin:miter;stroke:rgb(0%,0%,0%);stroke-opacity:1;stroke-miterlimit:10;" d="M 92 313 L 121.664062 313 L 133.664062 284.785156 L 145.664062 313 L 175.332031 313 L 151.332031 330.4375 L 159.417969 361.980469 L 133.664062 344.542969 L 107.914062 361.980469 L 120.214844 330.4375 L 92 313 "/>
<path style="fill-rule:nonzero;fill:rgb(53%,27%,7%);fill-opacity:1;stroke-width:1;stroke-linecap:butt;stroke-linejoin:miter;stroke:rgb(0%,0%,0%);stroke-opacity:1;stroke-miterlimit:10;" d="M 301 154 L 330.664062 154 L 342.664062 125.785156 L 354.664062 154 L 384.332031 154 L 360.332031 171.4375 L 368.417969 202.980469 L 342.664062 185.542969 L 316.914062 202.980469 L 329.214844 171.4375 L 301 154 "/>
<path style="fill-rule:nonzero;fill:rgb(53%,27%,7%);fill-opacity:1;stroke-width:1;stroke-linecap:butt;stroke-linejoin:miter;stroke:rgb(0%,0%,0%);stroke-opacity:1;stroke-miterlimit:10;" d="M 252 239 L 281.664062 239 L 293.664062 210.785156 L 305.664062 239 L 335.332031 239 L 311.332031 256.4375 L 319.417969 287.980469 L 293.664062 270.542969 L 267.914062 287.980469 L 280.214844 256.4375 L 252 239 "/>
<path style="fill-rule:nonzero;fill:rgb(35%,70%,90%);fill-opacity:1;stroke-width:1;stroke-linecap:butt;stroke-linejoin:miter;stroke:rgb(0%,0%,0%);stroke-opacity:1;stroke-miterlimit:10;" d="M 101 186 L 130.664062 186 L 142.664062 157.785156 L 154.664062 186 L 184.332031 186 L 160.332031 203.4375 L 168.417969 234.980469 L 142.664062 217.542969 L 116.914062 234.980469 L 129.214844 203.4375 L 101 186 "/>
<path style="fill-rule:nonzero;fill:rgb(35%,70%,90%);fill-opacity:1;stroke-width:1;stroke-linecap:butt;stroke-linejoin:miter;stroke:rgb(0%,0%,0%);stroke-opacity:1;stroke-miterlimit:10;" d="M 323 426 L 352.664062 426 L 364.664062 397.785156 L 376.664062 426 L 406.332031 426 L 382.332031 443.4375 L 390.417969 474.980469 L 364.664062 457.542969 L 338.914062 474.980469 L 351.214844 443.4375 L 323 426 "/>
<path style="fill-rule:nonzero;fill:rgb(35%,70%,90%);fill-opacity:1;stroke-width:1;stroke-linecap:butt;stroke-linejoin:miter;stroke:rgb(0%,0%,0%);stroke-opacity:1;stroke-miterlimit:10;" d="M 186 333 L 215.664062 333 L 227.664062 304.785156 L 239.664062 333 L 269.332031 333 L 245.332031 350.4375 L 253.417969 381.980469 L 227.664062 364.542969 L 201.914062 381.980469 L 214.214844 350.4375 L 186 333 "/>
<path style="fill-rule:nonzero;fill:rgb(35%,70%,90%);fill-opacity:1;stroke-width:1;stroke-linecap:butt;stroke-linejoin:miter;stroke:rgb(0%,0%,0%);stroke-opacity:1;stroke-miterlimit:10;" d="M 413 179 L 442.664062 179 L 454.664062 150.785156 L 466.664062 179 L 496.332031 179 L 472.332031 196.4375 L 480.417969 227.980469 L 454.664062 210.542969 L 428.914062 227.980469 L 441.214844 196.4375 L 413 179 "/>
<path style="fill-rule:nonzero;fill:rgb(35%,70%,90%);fill-opacity:1;stroke-width:1;stroke-linecap:butt;stroke-linejoin:miter;stroke:rgb(0%,0%,0%);stroke-opacity:1;stroke-miterlimit:10;" d="M 422 350 L 451.664062 350 L 463.664062 321.785156 L 475.664062 350 L 505.332031 350 L 481.332031 367.4375 L 489.417969 398.980469 L 463.664062 381.542969 L 437.914062 398.980469 L 450.214844 367.4375 L 422 350 "/>
<path style="fill-rule:nonzero;fill:rgb(53%,27%,7%);fill-opacity:1;stroke-width:1;stroke-linecap:butt;stroke-linejoin:miter;stroke:rgb(0%,0%,0%);stroke-opacity:1;stroke-miterlimit:10;" d="M 819.785156 258.785156 L 819.785156 301.214844 L 862.214844 301.214844 L 862.214844 258.785156 L 819.785156 258.785156 "/>
<path style="fill-rule:nonzero;fill:rgb(35%,70%,90%);fill-opacity:1;stroke-width:1;stroke-linecap:butt;stroke-linejoin:miter;stroke:rgb(0%,0%,0%);stroke-opacity:1;stroke-miterlimit:10;" d="M 960.785156 399.785156 L 960.785156 442.214844 L 1003.214844 442.214844 L 1003.214844 399.785156 L 960.785156 399.785156 "/>
<path style="fill-rule:nonzero;fill:rgb(35%,70%,90%);fill-opacity:1;stroke-width:1;stroke-linecap:butt;stroke-linejoin:miter;stroke:rgb(0%,0%,0%);stroke-opacity:1;stroke-miterlimit:10;" d="M 816.785156 84.785156 L 816.785156 127.214844 L 859.214844 127.214844 L 859.214844 84.785156 L 816.785156 84.785156 "/>
<path style="fill-rule:nonzero;fill:rgb(53%,27%,7%);fill-opacity:1;stroke-width:1;stroke-linecap:butt;stroke-linejoin:miter;stroke:rgb(0%,0%,0%);stroke-opacity:1;stroke-miterlimit:10;" d="M 979.785156 109.785156 L 979.785156 152.214844 L 1022.214844 152.214844 L 1022.214844 109.785156 L 979.785156 109.785156 "/>
<path style="fill-rule:nonzero;fill:rgb(53%,27%,7%);fill-opacity:1;stroke-width:1;stroke-linecap:butt;stroke-linejoin:miter;stroke:rgb(0%,0%,0%);stroke-opacity:1;stroke-miterlimit:10;" d="M 672.785156 165.785156 L 672.785156 208.214844 L 715.214844 208.214844 L 715.214844 165.785156 L 672.785156 165.785156 "/>
<path style="fill-rule:nonzero;fill:rgb(53%,27%,7%);fill-opacity:1;stroke-width:1;stroke-linecap:butt;stroke-linejoin:miter;stroke:rgb(0%,0%,0%);stroke-opacity:1;stroke-miterlimit:10;" d="M 707.785156 315.785156 L 707.785156 358.214844 L 750.214844 358.214844 L 750.214844 315.785156 L 707.785156 315.785156 "/>
</g>
</svg>
