<?xml version="1.0" encoding="UTF-8"?>
<svg xmlns="http://www.w3.org/2000/svg" xmlns:xlink="http://www.w3.org/1999/xlink" width="1179pt" height="517pt" viewBox="0 0 1179 517" version="1.1">
<g id="surface1121">
<rect x="0" y="0" width="1179" height="517" style="fill:rgb(90%,90%,90%);fill-opacity:1;stroke:none;"/>
<path style="fill-rule:nonzero;fill:rgb(53%,27%,7%);fill-opacity:1;stroke-width:1;stroke-linecap:butt;stroke-linejoin:miter;stroke:rgb(0%,0%,0%);stroke-opacity:1;stroke-miterlimit:10;" d="M 401 92 L 375.019531 137 L 426.980469 137 L 401 92 "/>
<path style="fill-rule:nonzero;fill:rgb(53%,27%,7%);fill-opacity:1;stroke-width:1;stroke-linecap:butt;stroke-linejoin:miter;stroke:rgb(0%,0%,0%);stroke-opacity:1;stroke-miterlimit:10;" d="M 974 65 L 948.019531 110 L 999.980469 110 L 974 65 "/>
<path style="fill-rule:nonzero;fill:rgb(53%,27%,7%);fill-opacity:1;stroke-width:1;stroke-linecap:butt;stroke-linejoin:miter;stroke:rgb(0%,0%,0%);stroke-opacity:1;stroke-miterlimit:10;" d="M 870 136 L 844.019531 181 L 895.980469 181 L 870 136 "/>
<path style="fill-rule:nonzero;fill:rgb(53%,27%,7%);fill-opacity:1;stroke-width:1;stroke-linecap:butt;stroke-linejoin:miter;stroke:rgb(0%,0%,0%);stroke-opacity:1;stroke-miterlimit:10;" d="M 608 157 L 582.019531 202 L 633.980469 202 L 608 157 "/>
<path style="fill-rule:nonzero;fill:rgb(35%,70%,90%);fill-opacity:1;stroke-width:1;stroke-linecap:butt;stroke-linejoin:miter;stroke:rgb(0%,0%,0%);stroke-opacity:1;stroke-miterlimit:10;" d="M 759 86 L 788.664062 86 L 800.664062 57.785156 L 812.664062 86 L 842.332031 86 L 818.332031 103.4375 L 826.417969 134.980469 L 800.664062 117.542969 L 774.914062 134.980469 L 787.214844 103.4375 L 759 86 "/>
<path style="fill-rule:nonzero;fill:rgb(35%,70%,90%);fill-opacity:1;stroke-width:1;stroke-linecap:butt;stroke-linejoin:miter;stroke:rgb(0%,0%,0%);stroke-opacity:1;stroke-miterlimit:10;" d="M 80 332 L 109.664062 332 L 121.664062 303.785156 L 133.664062 332 L 163.332031 332 L 139.332031 349.4375 L 147.417969 380.980469 L 121.664062 363.542969 L 95.914062 380.980469 L 108.214844 349.4375 L 80 332 "/>
<path style="fill-rule:nonzero;fill:rgb(35%,70%,90%);fill-opacity:1;stroke-width:1;stroke-linecap:butt;stroke-linejoin:miter;stroke:rgb(0%,0%,0%);stroke-opacity:1;stroke-miterlimit:10;" d="M 783 251 L 812.664062 251 L 824.664062 222.785156 L 836.664062 251 L 866.332031 251 L 842.332031 268.4375 L 850.417969 299.980469 L 824.664062 282.542969 L 798.914062 299.980469 L 811.214844 268.4375 L 783 251 "/>
<path style="fill-rule:nonzero;fill:rgb(35%,70%,90%);fill-opacity:1;stroke-width:1;stroke-linecap:butt;stroke-linejoin:miter;stroke:rgb(0%,0%,0%);stroke-opacity:1;stroke-miterlimit:10;" d="M 211 191 L 240.664062 191 L 252.664062 162.785156 L 264.664062 191 L 294.332031 191 L 270.332031 208.4375 L 278.417969 239.980469 L 252.664062 222.542969 L 226.914062 239.980469 L 239.214844 208.4375 L 211 191 "/>
<path style="fill-rule:nonzero;fill:rgb(35%,70%,90%);fill-opacity:1;stroke-width:1;stroke-linecap:butt;stroke-linejoin:miter;stroke:rgb(0%,0%,0%);stroke-opacity:1;stroke-miterlimit:10;" d="M 569 394 L 598.664062 394 L 610.664062 365.785156 L 622.664062 394 L 652.332031 394 L 628.332031 411.4375 L 636.417969 442.980469 L 610.664062 425.542969 L 584.914062 442.980469 L 597.214844 411.4375 L 569 394 "/>
</g>
</svg>
