<?xml version="1.0" encoding="UTF-8"?>
<svg xmlns="http://www.w3.org/2000/svg" xmlns:xlink="http://www.w3.org/1999/xlink" width="1179pt" height="517pt" viewBox="0 0 1179 517" version="1.1">
<g id="surface1191">
<rect x="0" y="0" width="1179" height="517" style="fill:rgb(90%,90%,90%);fill-opacity:1;stroke:none;"/>
<path style="fill-rule:nonzero;fill:rgb(35%,70%,90%);fill-opacity:1;stroke-width:1;stroke-linecap:butt;stroke-linejoin:miter;stroke:rgb(0%,0%,0%);stroke-opacity:1;stroke-miterlimit:10;" d="M 461.214844 306 C 461.214844 317.714844 451.714844 327.214844 440 327.214844 C 428.285156 327.214844 418.785156 317.714844 418.785156 306 C 418.785156 294.285156 428.285156 284.785156 440 284.785156 C 451.714844 284.785156 461.214844 294.285156 461.214844 306 "/>
<path style="fill-rule:nonzero;fill:rgb(35%,70%,90%);fill-opacity:1;stroke-width:1;stroke-linecap:butt;stroke-linejoin:miter;stroke:rgb(0%,0%,0%);stroke-opacity:1;stroke-miterlimit:10;" d="M 294.214844 365 C 294.214844 376.714844 284.714844 386.214844 273 386.214844 C 261.285156 386.214844 251.785156 376.714844 251.785156 365 C 251.785156 353.285156 261.285156 343.785156 273 343.785156 C 284.714844 343.785156 294.214844 353.285156 294.214844 365 "/>
<path style="fill-rule:nonzero;fill:rgb(35%,70%,90%);fill-opacity:1;stroke-width:1;stroke-linecap:butt;stroke-linejoin:miter;stroke:rgb(0%,0%,0%);stroke-opacity:1;stroke-miterlimit:10;" d="M 470.214844 109 C 470.214844 120.714844 460.714844 130.214844 449 130.214844 C 437.285156 130.214844 427.785156 120.714844 427.785156 109 C 427.785156 97.285156 437.285156 87.785156 449 87.785156 C 460.714844 87.785156 470.214844 97.285156 470.214844 109 "/>
<path style="fill-rule:nonzero;fill:rgb(35%,70%,90%);fill-opacity:1;stroke-width:1;stroke-linecap:butt;stroke-linejoin:miter;stroke:rgb(0%,0%,0%);stroke-opacity:1;stroke-miterlimit:10;" d="M 760.214844 385 C 760.214844 396.714844 750.714844 406.214844 739 406.214844 C 727.285156 406.214844 717.785156 396.714844 717.785156 385 C 717.785156 373.285156 727.285156 363.785156 739 363.785156 C 750.714844 363.785156 760.214844 373.285156 760.214844 385 "/>
<path style="fill-rule:nonzero;fill:rgb(100%,51%,0%);fill-opacity:1;stroke-width:1;stroke-linecap:butt;stroke-linejoin:miter;stroke:rgb(0%,0%,0%);stroke-opacity:1;stroke-miterlimit:10;" d="M 264 93 L 238.019531 138 L 289.980469 138 L 264 93 "/>
<path style="fill-rule:nonzero;fill:rgb(100%,51%,0%);fill-opacity:1;stroke-width:1;stroke-linecap:butt;stroke-linejoin:miter;stroke:rgb(0%,0%,0%);stroke-opacity:1;stroke-miterlimit:10;" d="M 604 299 L 578.019531 344 L 629.980469 344 L 604 299 "/>
<path style="fill-rule:nonzero;fill:rgb(100%,51%,0%);fill-opacity:1;stroke-width:1;stroke-linecap:butt;stroke-linejoin:miter;stroke:rgb(0%,0%,0%);stroke-opacity:1;stroke-miterlimit:10;" d="M 800 129 L 774.019531 174 L 825.980469 174 L 800 129 "/>
<path style="fill-rule:nonzero;fill:rgb(100%,51%,0%);fill-opacity:1;stroke-width:1;stroke-linecap:butt;stroke-linejoin:miter;stroke:rgb(0%,0%,0%);stroke-opacity:1;stroke-miterlimit:10;" d="M 664 94 L 638.019531 139 L 689.980469 139 L 664 94 "/>
</g>
</svg>
