<?xml version="1.0" encoding="UTF-8"?>
<svg xmlns="http://www.w3.org/2000/svg" xmlns:xlink="http://www.w3.org/1999/xlink" width="1179pt" height="517pt" viewBox="0 0 1179 517" version="1.1">
<g id="surface1451">
<rect x="0" y="0" width="1179" height="517" style="fill:rgb(90%,90%,90%);fill-opacity:1;stroke:none;"/>
<path style="fill-rule:nonzero;fill:rgb(35%,70%,90%);fill-opacity:1;stroke-width:1;stroke-linecap:butt;stroke-linejoin:miter;stroke:rgb(0%,0%,0%);stroke-opacity:1;stroke-miterlimit:10;" d="M 625.214844 184 C 625.214844 195.714844 615.714844 205.214844 604 205.214844 C 592.285156 205.214844 582.785156 195.714844 582.785156 184 C 582.785156 172.285156 592.285156 162.785156 604 162.785156 C 615.714844 162.785156 625.214844 172.285156 625.214844 184 "/>
<path style="fill-rule:nonzero;fill:rgb(35%,70%,90%);fill-opacity:1;stroke-width:1;stroke-linecap:butt;stroke-linejoin:miter;stroke:rgb(0%,0%,0%);stroke-opacity:1;stroke-miterlimit:10;" d="M 258.214844 94 C 258.214844 105.714844 248.714844 115.214844 237 115.214844 C 225.285156 115.214844 215.785156 105.714844 215.785156 94 C 215.785156 82.285156 225.285156 72.785156 237 72.785156 C 248.714844 72.785156 258.214844 82.285156 258.214844 94 "/>
<path style="fill-rule:nonzero;fill:rgb(35%,70%,90%);fill-opacity:1;stroke-width:1;stroke-linecap:butt;stroke-linejoin:miter;stroke:rgb(0%,0%,0%);stroke-opacity:1;stroke-miterlimit:10;" d="M 885.214844 82 C 885.214844 93.714844 875.714844 103.214844 864 103.214844 C 852.285156 103.214844 842.785156 93.714844 842.785156 82 C 842.785156 70.285156 852.285156 60.785156 864 60.785156 C 875.714844 60.785156 885.214844 70.285156 885.214844 82 "/>
<path style="fill-rule:nonzero;fill:rgb(35%,70%,90%);fill-opacity:1;stroke-width:1;stroke-linecap:butt;stroke-linejoin:miter;stroke:rgb(0%,0%,0%);stroke-opacity:1;stroke-miterlimit:10;" d="M 809.214844 181 C 809.214844 192.714844 799.714844 202.214844 788 202.214844 C 776.285156 202.214844 766.785156 192.714844 766.785156 181 C 766.785156 169.285156 776.285156 159.785156 788 159.785156 C 799.714844 159.785156 809.214844 169.285156 809.214844 181 "/>
<path style="fill-rule:nonzero;fill:rgb(55%,51%,53%);fill-opacity:1;stroke-width:1;stroke-linecap:butt;stroke-linejoin:miter;stroke:rgb(0%,0%,0%);stroke-opacity:1;stroke-miterlimit:10;" d="M 435 237 L 464.664062 237 L 476.664062 208.785156 L 488.664062 237 L 518.332031 237 L 494.332031 254.4375 L 502.417969 285.980469 L 476.664062 268.542969 L 450.914062 285.980469 L 463.214844 254.4375 L 435 237 "/>
<path style="fill-rule:nonzero;fill:rgb(55%,51%,53%);fill-opacity:1;stroke-width:1;stroke-linecap:butt;stroke-linejoin:miter;stroke:rgb(0%,0%,0%);stroke-opacity:1;stroke-miterlimit:10;" d="M 959 404 L 988.664062 404 L 1000.664062 375.785156 L 1012.664062 404 L 1042.332031 404 L 1018.332031 421.4375 L 1026.417969 452.980469 L 1000.664062 435.542969 L 974.914062 452.980469 L 987.214844 421.4375 L 959 404 "/>
<path style="fill-rule:nonzero;fill:rgb(55%,51%,53%);fill-opacity:1;stroke-width:1;stroke-linecap:butt;stroke-linejoin:miter;stroke:rgb(0%,0%,0%);stroke-opacity:1;stroke-miterlimit:10;" d="M 193 333 L 222.664062 333 L 234.664062 304.785156 L 246.664062 333 L 276.332031 333 L 252.332031 350.4375 L 260.417969 381.980469 L 234.664062 364.542969 L 208.914062 381.980469 L 221.214844 350.4375 L 193 333 "/>
<path style="fill-rule:nonzero;fill:rgb(55%,51%,53%);fill-opacity:1;stroke-width:1;stroke-linecap:butt;stroke-linejoin:miter;stroke:rgb(0%,0%,0%);stroke-opacity:1;stroke-miterlimit:10;" d="M 690 316 L 719.664062 316 L 731.664062 287.785156 L 743.664062 316 L 773.332031 316 L 749.332031 333.4375 L 757.417969 364.980469 L 731.664062 347.542969 L 705.914062 364.980469 L 718.214844 333.4375 L 690 316 "/>
</g>
</svg>
