<?xml version="1.0" encoding="UTF-8"?>
<svg xmlns="http://www.w3.org/2000/svg" xmlns:xlink="http://www.w3.org/1999/xlink" width="1179pt" height="517pt" viewBox="0 0 1179 517" version="1.1">
<g id="surface921">
<rect x="0" y="0" width="1179" height="517" style="fill:rgb(90%,90%,90%);fill-opacity:1;stroke:none;"/>
<path style="fill-rule:nonzero;fill:rgb(100%,51%,0%);fill-opacity:1;stroke-width:1;stroke-linecap:butt;stroke-linejoin:miter;stroke:rgb(0%,0%,0%);stroke-opacity:1;stroke-miterlimit:10;" d="M 867.214844 341 C 867.214844 352.714844 857.714844 362.214844 846 362.214844 C 834.285156 362.214844 824.785156 352.714844 824.785156 341 C 824.785156 329.285156 834.285156 319.785156 846 319.785156 C 857.714844 319.785156 867.214844 329.285156 867.214844 341 "/>
<path style="fill-rule:nonzero;fill:rgb(100%,51%,0%);fill-opacity:1;stroke-width:1;stroke-linecap:butt;stroke-linejoin:miter;stroke:rgb(0%,0%,0%);stroke-opacity:1;stroke-miterlimit:10;" d="M 386.214844 269 C 386.214844 280.714844 376.714844 290.214844 365 290.214844 C 353.285156 290.214844 343.785156 280.714844 343.785156 269 C 343.785156 257.285156 353.285156 247.785156 365 247.785156 C 376.714844 247.785156 386.214844 257.285156 386.214844 269 "/>
<path style="fill-rule:nonzero;fill:rgb(100%,51%,0%);fill-opacity:1;stroke-width:1;stroke-linecap:butt;stroke-linejoin:miter;stroke:rgb(0%,0%,0%);stroke-opacity:1;stroke-miterlimit:10;" d="M 852.214844 152 C 852.214844 163.714844 842.714844 173.214844 831 173.214844 C 819.285156 173.214844 809.785156 163.714844 809.785156 152 C 809.785156 140.285156 819.285156 130.785156 831 130.785156 C 842.714844 130.785156 852.214844 140.285156 852.214844 152 "/>
<path style="fill-rule:nonzero;fill:rgb(100%,51%,0%);fill-opacity:1;stroke-width:1;stroke-linecap:butt;stroke-linejoin:miter;stroke:rgb(0%,0%,0%);stroke-opacity:1;stroke-miterlimit:10;" d="M 964.214844 235 C 964.214844 246.714844 954.714844 256.214844 943 256.214844 C 931.285156 256.214844 921.785156 246.714844 921.785156 235 C 921.785156 223.285156 931.285156 213.785156 943 213.785156 C 954.714844 213.785156 964.214844 223.285156 964.214844 235 "/>
<path style="fill-rule:nonzero;fill:rgb(100%,51%,0%);fill-opacity:1;stroke-width:1;stroke-linecap:butt;stroke-linejoin:miter;stroke:rgb(0%,0%,0%);stroke-opacity:1;stroke-miterlimit:10;" d="M 736.214844 333 C 736.214844 344.714844 726.714844 354.214844 715 354.214844 C 703.285156 354.214844 693.785156 344.714844 693.785156 333 C 693.785156 321.285156 703.285156 311.785156 715 311.785156 C 726.714844 311.785156 736.214844 321.285156 736.214844 333 "/>
<path style="fill-rule:nonzero;fill:rgb(35%,70%,90%);fill-opacity:1;stroke-width:1;stroke-linecap:butt;stroke-linejoin:miter;stroke:rgb(0%,0%,0%);stroke-opacity:1;stroke-miterlimit:10;" d="M 662 107 L 691.664062 107 L 703.664062 78.785156 L 715.664062 107 L 745.332031 107 L 721.332031 124.4375 L 729.417969 155.980469 L 703.664062 138.542969 L 677.914062 155.980469 L 690.214844 124.4375 L 662 107 "/>
<path style="fill-rule:nonzero;fill:rgb(35%,70%,90%);fill-opacity:1;stroke-width:1;stroke-linecap:butt;stroke-linejoin:miter;stroke:rgb(0%,0%,0%);stroke-opacity:1;stroke-miterlimit:10;" d="M 231 262 L 260.664062 262 L 272.664062 233.785156 L 284.664062 262 L 314.332031 262 L 290.332031 279.4375 L 298.417969 310.980469 L 272.664062 293.542969 L 246.914062 310.980469 L 259.214844 279.4375 L 231 262 "/>
<path style="fill-rule:nonzero;fill:rgb(35%,70%,90%);fill-opacity:1;stroke-width:1;stroke-linecap:butt;stroke-linejoin:miter;stroke:rgb(0%,0%,0%);stroke-opacity:1;stroke-miterlimit:10;" d="M 158 384 L 187.664062 384 L 199.664062 355.785156 L 211.664062 384 L 241.332031 384 L 217.332031 401.4375 L 225.417969 432.980469 L 199.664062 415.542969 L 173.914062 432.980469 L 186.214844 401.4375 L 158 384 "/>
<path style="fill-rule:nonzero;fill:rgb(35%,70%,90%);fill-opacity:1;stroke-width:1;stroke-linecap:butt;stroke-linejoin:miter;stroke:rgb(0%,0%,0%);stroke-opacity:1;stroke-miterlimit:10;" d="M 548 256 L 577.664062 256 L 589.664062 227.785156 L 601.664062 256 L 631.332031 256 L 607.332031 273.4375 L 615.417969 304.980469 L 589.664062 287.542969 L 563.914062 304.980469 L 576.214844 273.4375 L 548 256 "/>
</g>
</svg>
