<?xml version="1.0" encoding="UTF-8"?>
<svg xmlns="http://www.w3.org/2000/svg" xmlns:xlink="http://www.w3.org/1999/xlink" width="1179pt" height="517pt" viewBox="0 0 1179 517" version="1.1">
<g id="surface701">
<rect x="0" y="0" width="1179" height="517" style="fill:rgb(90%,90%,90%);fill-opacity:1;stroke:none;"/>
<path style="fill-rule:nonzero;fill:rgb(55%,51%,53%);fill-opacity:1;stroke-width:1;stroke-linecap:butt;stroke-linejoin:miter;stroke:rgb(0%,0%,0%);stroke-opacity:1;stroke-miterlimit:10;" d="M 141 176 L 170.664062 176 L 182.664062 147.785156 L 194.664062 176 L 224.332031 176 L 200.332031 193.4375 L 208.417969 224.980469 L 182.664062 207.542969 L 156.914062 224.980469 L 169.214844 193.4375 L 141 176 "/>
<path style="fill-rule:nonzero;fill:rgb(55%,51%,53%);fill-opacity:1;stroke-width:1;stroke-linecap:butt;stroke-linejoin:miter;stroke:rgb(0%,0%,0%);stroke-opacity:1;stroke-miterlimit:10;" d="M 408 121 L 437.664062 121 L 449.664062 92.785156 L 461.664062 121 L 491.332031 121 L 467.332031 138.4375 L 475.417969 169.980469 L 449.664062 152.542969 L 423.914062 169.980469 L 436.214844 138.4375 L 408 121 "/>
<path style="fill-rule:nonzero;fill:rgb(55%,51%,53%);fill-opacity:1;stroke-width:1;stroke-linecap:butt;stroke-linejoin:miter;stroke:rgb(0%,0%,0%);stroke-opacity:1;stroke-miterlimit:10;" d="M 221 88 L 250.664062 88 L 262.664062 59.785156 L 274.664062 88 L 304.332031 88 L 280.332031 105.4375 L 288.417969 136.980469 L 262.664062 119.542969 L 236.914062 136.980469 L 249.214844 105.4375 L 221 88 "/>
<path style="fill-rule:nonzero;fill:rgb(53%,27%,7%);fill-opacity:1;stroke-width:1;stroke-linecap:butt;stroke-linejoin:miter;stroke:rgb(0%,0%,0%);stroke-opacity:1;stroke-miterlimit:10;" d="M 332 360 L 361.664062 360 L 373.664062 331.785156 L 385.664062 360 L 415.332031 360 L 391.332031 377.4375 L 399.417969 408.980469 L 373.664062 391.542969 L 347.914062 408.980469 L 360.214844 377.4375 L 332 360 "/>
<path style="fill-rule:nonzero;fill:rgb(53%,27%,7%);fill-opacity:1;stroke-width:1;stroke-linecap:butt;stroke-linejoin:miter;stroke:rgb(0%,0%,0%);stroke-opacity:1;stroke-miterlimit:10;" d="M 925.785156 190.785156 L 925.785156 233.214844 L 968.214844 233.214844 L 968.214844 190.785156 L 925.785156 190.785156 "/>
<path style="fill-rule:nonzero;fill:rgb(53%,27%,7%);fill-opacity:1;stroke-width:1;stroke-linecap:butt;stroke-linejoin:miter;stroke:rgb(0%,0%,0%);stroke-opacity:1;stroke-miterlimit:10;" d="M 983.785156 335.785156 L 983.785156 378.214844 L 1026.214844 378.214844 L 1026.214844 335.785156 L 983.785156 335.785156 "/>
<path style="fill-rule:nonzero;fill:rgb(53%,27%,7%);fill-opacity:1;stroke-width:1;stroke-linecap:butt;stroke-linejoin:miter;stroke:rgb(0%,0%,0%);stroke-opacity:1;stroke-miterlimit:10;" d="M 721.785156 218.785156 L 721.785156 261.214844 L 764.214844 261.214844 L 764.214844 218.785156 L 721.785156 218.785156 "/>
</g>
</svg>
