<?xml version="1.0" encoding="UTF-8"?>
<svg xmlns="http://www.w3.org/2000/svg" xmlns:xlink="http://www.w3.org/1999/xlink" width="1179pt" height="517pt" viewBox="0 0 1179 517" version="1.1">
<g id="surface1311">
<rect x="0" y="0" width="1179" height="517" style="fill:rgb(90%,90%,90%);fill-opacity:1;stroke:none;"/>
<path style="fill-rule:nonzero;fill:rgb(100%,51%,0%);fill-opacity:1;stroke-width:1;stroke-linecap:butt;stroke-linejoin:miter;stroke:rgb(0%,0%,0%);stroke-opacity:1;stroke-miterlimit:10;" d="M 349 85 L 378.664062 85 L 390.664062 56.785156 L 402.664062 85 L 432.332031 85 L 408.332031 102.4375 L 416.417969 133.980469 L 390.664062 116.542969 L 364.914062 133.980469 L 377.214844 102.4375 L 349 85 "/>
<path style="fill-rule:nonzero;fill:rgb(100%,51%,0%);fill-opacity:1;stroke-width:1;stroke-linecap:butt;stroke-linejoin:miter;stroke:rgb(0%,0%,0%);stroke-opacity:1;stroke-miterlimit:10;" d="M 210 140 L 239.664062 140 L 251.664062 111.785156 L 263.664062 140 L 293.332031 140 L 269.332031 157.4375 L 277.417969 188.980469 L 251.664062 171.542969 L 225.914062 188.980469 L 238.214844 157.4375 L 210 140 "/>
<path style="fill-rule:nonzero;fill:rgb(100%,51%,0%);fill-opacity:1;stroke-width:1;stroke-linecap:butt;stroke-linejoin:miter;stroke:rgb(0%,0%,0%);stroke-opacity:1;stroke-miterlimit:10;" d="M 813 428 L 842.664062 428 L 854.664062 399.785156 L 866.664062 428 L 896.332031 428 L 872.332031 445.4375 L 880.417969 476.980469 L 854.664062 459.542969 L 828.914062 476.980469 L 841.214844 445.4375 L 813 428 "/>
<path style="fill-rule:nonzero;fill:rgb(100%,51%,0%);fill-opacity:1;stroke-width:1;stroke-linecap:butt;stroke-linejoin:miter;stroke:rgb(0%,0%,0%);stroke-opacity:1;stroke-miterlimit:10;" d="M 992 210 L 1021.664062 210 L 1033.664062 181.785156 L 1045.664062 210 L 1075.332031 210 L 1051.332031 227.4375 L 1059.417969 258.980469 L 1033.664062 241.542969 L 1007.914062 258.980469 L 1020.214844 227.4375 L 992 210 "/>
<path style="fill-rule:nonzero;fill:rgb(55%,51%,53%);fill-opacity:1;stroke-width:1;stroke-linecap:butt;stroke-linejoin:miter;stroke:rgb(0%,0%,0%);stroke-opacity:1;stroke-miterlimit:10;" d="M 194.214844 264 C 194.214844 275.714844 184.714844 285.214844 173 285.214844 C 161.285156 285.214844 151.785156 275.714844 151.785156 264 C 151.785156 252.285156 161.285156 242.785156 173 242.785156 C 184.714844 242.785156 194.214844 252.285156 194.214844 264 "/>
<path style="fill-rule:nonzero;fill:rgb(55%,51%,53%);fill-opacity:1;stroke-width:1;stroke-linecap:butt;stroke-linejoin:miter;stroke:rgb(0%,0%,0%);stroke-opacity:1;stroke-miterlimit:10;" d="M 626.214844 378 C 626.214844 389.714844 616.714844 399.214844 605 399.214844 C 593.285156 399.214844 583.785156 389.714844 583.785156 378 C 583.785156 366.285156 593.285156 356.785156 605 356.785156 C 616.714844 356.785156 626.214844 366.285156 626.214844 378 "/>
<path style="fill-rule:nonzero;fill:rgb(55%,51%,53%);fill-opacity:1;stroke-width:1;stroke-linecap:butt;stroke-linejoin:miter;stroke:rgb(0%,0%,0%);stroke-opacity:1;stroke-miterlimit:10;" d="M 987.214844 411 C 987.214844 422.714844 977.714844 432.214844 966 432.214844 C 954.285156 432.214844 944.785156 422.714844 944.785156 411 C 944.785156 399.285156 954.285156 389.785156 966 389.785156 C 977.714844 389.785156 987.214844 399.285156 987.214844 411 "/>
<path style="fill-rule:nonzero;fill:rgb(55%,51%,53%);fill-opacity:1;stroke-width:1;stroke-linecap:butt;stroke-linejoin:miter;stroke:rgb(0%,0%,0%);stroke-opacity:1;stroke-miterlimit:10;" d="M 378.214844 420 C 378.214844 431.714844 368.714844 441.214844 357 441.214844 C 345.285156 441.214844 335.785156 431.714844 335.785156 420 C 335.785156 408.285156 345.285156 398.785156 357 398.785156 C 368.714844 398.785156 378.214844 408.285156 378.214844 420 "/>
<path style="fill-rule:nonzero;fill:rgb(55%,51%,53%);fill-opacity:1;stroke-width:1;stroke-linecap:butt;stroke-linejoin:miter;stroke:rgb(0%,0%,0%);stroke-opacity:1;stroke-miterlimit:10;" d="M 729.214844 215 C 729.214844 226.714844 719.714844 236.214844 708 236.214844 C 696.285156 236.214844 686.785156 226.714844 686.785156 215 C 686.785156 203.285156 696.285156 193.785156 708 193.785156 C 719.714844 193.785156 729.214844 203.285156 729.214844 215 "/>
</g>
</svg>
