<?xml version="1.0" encoding="UTF-8"?>
<svg xmlns="http://www.w3.org/2000/svg" xmlns:xlink="http://www.w3.org/1999/xlink" width="1179pt" height="517pt" viewBox="0 0 1179 517" version="1.1">
<g id="surface901">
<rect x="0" y="0" width="1179" height="517" style="fill:rgb(90%,90%,90%);fill-opacity:1;stroke:none;"/>
<path style="fill-rule:nonzero;fill:rgb(53%,27%,7%);fill-opacity:1;stroke-width:1;stroke-linecap:butt;stroke-linejoin:miter;stroke:rgb(0%,0%,0%);stroke-opacity:1;stroke-miterlimit:10;" d="M 475 86.601562 C 475 72.199219 451 72.199219 451 86.601562 C 451 101 475 103.398438 475 115.398438 C 475 103.398438 499 101 499 86.601562 C 499 72.199219 475 72.199219 475 86.601562 "/>
<path style="fill-rule:nonzero;fill:rgb(53%,27%,7%);fill-opacity:1;stroke-width:1;stroke-linecap:butt;stroke-linejoin:miter;stroke:rgb(0%,0%,0%);stroke-opacity:1;stroke-miterlimit:10;" d="M 789 304.601562 C 789 290.199219 765 290.199219 765 304.601562 C 765 319 789 321.398438 789 333.398438 C 789 321.398438 813 319 813 304.601562 C 813 290.199219 789 290.199219 789 304.601562 "/>
<path style="fill-rule:nonzero;fill:rgb(53%,27%,7%);fill-opacity:1;stroke-width:1;stroke-linecap:butt;stroke-linejoin:miter;stroke:rgb(0%,0%,0%);stroke-opacity:1;stroke-miterlimit:10;" d="M 556 406.601562 C 556 392.199219 532 392.199219 532 406.601562 C 532 421 556 423.398438 556 435.398438 C 556 423.398438 580 421 580 406.601562 C 580 392.199219 556 392.199219 556 406.601562 "/>
<path style="fill-rule:nonzero;fill:rgb(53%,27%,7%);fill-opacity:1;stroke-width:1;stroke-linecap:butt;stroke-linejoin:miter;stroke:rgb(0%,0%,0%);stroke-opacity:1;stroke-miterlimit:10;" d="M 309 210.601562 C 309 196.199219 285 196.199219 285 210.601562 C 285 225 309 227.398438 309 239.398438 C 309 227.398438 333 225 333 210.601562 C 333 196.199219 309 196.199219 309 210.601562 "/>
<path style="fill-rule:nonzero;fill:rgb(53%,27%,7%);fill-opacity:1;stroke-width:1;stroke-linecap:butt;stroke-linejoin:miter;stroke:rgb(0%,0%,0%);stroke-opacity:1;stroke-miterlimit:10;" d="M 371 364.601562 C 371 350.199219 347 350.199219 347 364.601562 C 347 379 371 381.398438 371 393.398438 C 371 381.398438 395 379 395 364.601562 C 395 350.199219 371 350.199219 371 364.601562 "/>
<path style="fill-rule:nonzero;fill:rgb(100%,51%,0%);fill-opacity:1;stroke-width:1;stroke-linecap:butt;stroke-linejoin:miter;stroke:rgb(0%,0%,0%);stroke-opacity:1;stroke-miterlimit:10;" d="M 463.214844 263 C 463.214844 274.714844 453.714844 284.214844 442 284.214844 C 430.285156 284.214844 420.785156 274.714844 420.785156 263 C 420.785156 251.285156 430.285156 241.785156 442 241.785156 C 453.714844 241.785156 463.214844 251.285156 463.214844 263 "/>
<path style="fill-rule:nonzero;fill:rgb(100%,51%,0%);fill-opacity:1;stroke-width:1;stroke-linecap:butt;stroke-linejoin:miter;stroke:rgb(0%,0%,0%);stroke-opacity:1;stroke-miterlimit:10;" d="M 260.214844 375 C 260.214844 386.714844 250.714844 396.214844 239 396.214844 C 227.285156 396.214844 217.785156 386.714844 217.785156 375 C 217.785156 363.285156 227.285156 353.785156 239 353.785156 C 250.714844 353.785156 260.214844 363.285156 260.214844 375 "/>
<path style="fill-rule:nonzero;fill:rgb(100%,51%,0%);fill-opacity:1;stroke-width:1;stroke-linecap:butt;stroke-linejoin:miter;stroke:rgb(0%,0%,0%);stroke-opacity:1;stroke-miterlimit:10;" d="M 863.214844 119 C 863.214844 130.714844 853.714844 140.214844 842 140.214844 C 830.285156 140.214844 820.785156 130.714844 820.785156 119 C 820.785156 107.285156 830.285156 97.785156 842 97.785156 C 853.714844 97.785156 863.214844 107.285156 863.214844 119 "/>
</g>
</svg>
