<?xml version="1.0" encoding="UTF-8"?>
<svg xmlns="http://www.w3.org/2000/svg" xmlns:xlink="http://www.w3.org/1999/xlink" width="1179pt" height="517pt" viewBox="0 0 1179 517" version="1.1">
<g id="surface1326">
<rect x="0" y="0" width="1179" height="517" style="fill:rgb(90%,90%,90%);fill-opacity:1;stroke:none;"/>
<path style="fill-rule:nonzero;fill:rgb(35%,70%,90%);fill-opacity:1;stroke-width:1;stroke-linecap:butt;stroke-linejoin:miter;stroke:rgb(0%,0%,0%);stroke-opacity:1;stroke-miterlimit:10;" d="M 80 245 L 109.664062 245 L 121.664062 216.785156 L 133.664062 245 L 163.332031 245 L 139.332031 262.4375 L 147.417969 293.980469 L 121.664062 276.542969 L 95.914062 293.980469 L 108.214844 262.4375 L 80 245 "/>
<path style="fill-rule:nonzero;fill:rgb(35%,70%,90%);fill-opacity:1;stroke-width:1;stroke-linecap:butt;stroke-linejoin:miter;stroke:rgb(0%,0%,0%);stroke-opacity:1;stroke-miterlimit:10;" d="M 1029 342 L 1058.664062 342 L 1070.664062 313.785156 L 1082.664062 342 L 1112.332031 342 L 1088.332031 359.4375 L 1096.417969 390.980469 L 1070.664062 373.542969 L 1044.914062 390.980469 L 1057.214844 359.4375 L 1029 342 "/>
<path style="fill-rule:nonzero;fill:rgb(35%,70%,90%);fill-opacity:1;stroke-width:1;stroke-linecap:butt;stroke-linejoin:miter;stroke:rgb(0%,0%,0%);stroke-opacity:1;stroke-miterlimit:10;" d="M 372 392 L 401.664062 392 L 413.664062 363.785156 L 425.664062 392 L 455.332031 392 L 431.332031 409.4375 L 439.417969 440.980469 L 413.664062 423.542969 L 387.914062 440.980469 L 400.214844 409.4375 L 372 392 "/>
<path style="fill-rule:nonzero;fill:rgb(100%,51%,0%);fill-opacity:1;stroke-width:1;stroke-linecap:butt;stroke-linejoin:miter;stroke:rgb(0%,0%,0%);stroke-opacity:1;stroke-miterlimit:10;" d="M 978 127.601562 C 978 113.199219 954 113.199219 954 127.601562 C 954 142 978 144.398438 978 156.398438 C 978 144.398438 1002 142 1002 127.601562 C 1002 113.199219 978 113.199219 978 127.601562 "/>
<path style="fill-rule:nonzero;fill:rgb(100%,51%,0%);fill-opacity:1;stroke-width:1;stroke-linecap:butt;stroke-linejoin:miter;stroke:rgb(0%,0%,0%);stroke-opacity:1;stroke-miterlimit:10;" d="M 467 155.601562 C 467 141.199219 443 141.199219 443 155.601562 C 443 170 467 172.398438 467 184.398438 C 467 172.398438 491 170 491 155.601562 C 491 141.199219 467 141.199219 467 155.601562 "/>
<path style="fill-rule:nonzero;fill:rgb(100%,51%,0%);fill-opacity:1;stroke-width:1;stroke-linecap:butt;stroke-linejoin:miter;stroke:rgb(0%,0%,0%);stroke-opacity:1;stroke-miterlimit:10;" d="M 750 205.601562 C 750 191.199219 726 191.199219 726 205.601562 C 726 220 750 222.398438 750 234.398438 C 750 222.398438 774 220 774 205.601562 C 774 191.199219 750 191.199219 750 205.601562 "/>
<path style="fill-rule:nonzero;fill:rgb(100%,51%,0%);fill-opacity:1;stroke-width:1;stroke-linecap:butt;stroke-linejoin:miter;stroke:rgb(0%,0%,0%);stroke-opacity:1;stroke-miterlimit:10;" d="M 218 117.601562 C 218 103.199219 194 103.199219 194 117.601562 C 194 132 218 134.398438 218 146.398438 C 218 134.398438 242 132 242 117.601562 C 242 103.199219 218 103.199219 218 117.601562 "/>
<path style="fill-rule:nonzero;fill:rgb(100%,51%,0%);fill-opacity:1;stroke-width:1;stroke-linecap:butt;stroke-linejoin:miter;stroke:rgb(0%,0%,0%);stroke-opacity:1;stroke-miterlimit:10;" d="M 449 274.601562 C 449 260.199219 425 260.199219 425 274.601562 C 425 289 449 291.398438 449 303.398438 C 449 291.398438 473 289 473 274.601562 C 473 260.199219 449 260.199219 449 274.601562 "/>
</g>
</svg>
