<?xml version="1.0" encoding="UTF-8"?>
<svg xmlns="http://www.w3.org/2000/svg" xmlns:xlink="http://www.w3.org/1999/xlink" width="1179pt" height="517pt" viewBox="0 0 1179 517" version="1.1">
<g id="surface6">
<rect x="0" y="0" width="1179" height="517" style="fill:rgb(90%,90%,90%);fill-opacity:1;stroke:none;"/>
<path style="fill-rule:nonzero;fill:rgb(35%,70%,90%);fill-opacity:1;stroke-width:1;stroke-linecap:butt;stroke-linejoin:miter;stroke:rgb(0%,0%,0%);stroke-opacity:1;stroke-miterlimit:10;" d="M 135 86 L 164.664062 86 L 176.664062 57.785156 L 188.664062 86 L 218.332031 86 L 194.332031 103.4375 L 202.417969 134.980469 L 176.664062 117.542969 L 150.914062 134.980469 L 163.214844 103.4375 L 135 86 "/>
<path style="fill-rule:nonzero;fill:rgb(35%,70%,90%);fill-opacity:1;stroke-width:1;stroke-linecap:butt;stroke-linejoin:miter;stroke:rgb(0%,0%,0%);stroke-opacity:1;stroke-miterlimit:10;" d="M 780 90 L 809.664062 90 L 821.664062 61.785156 L 833.664062 90 L 863.332031 90 L 839.332031 107.4375 L 847.417969 138.980469 L 821.664062 121.542969 L 795.914062 138.980469 L 808.214844 107.4375 L 780 90 "/>
<path style="fill-rule:nonzero;fill:rgb(35%,70%,90%);fill-opacity:1;stroke-width:1;stroke-linecap:butt;stroke-linejoin:miter;stroke:rgb(0%,0%,0%);stroke-opacity:1;stroke-miterlimit:10;" d="M 971 251 L 1000.664062 251 L 1012.664062 222.785156 L 1024.664062 251 L 1054.332031 251 L 1030.332031 268.4375 L 1038.417969 299.980469 L 1012.664062 282.542969 L 986.914062 299.980469 L 999.214844 268.4375 L 971 251 "/>
<path style="fill-rule:nonzero;fill:rgb(35%,70%,90%);fill-opacity:1;stroke-width:1;stroke-linecap:butt;stroke-linejoin:miter;stroke:rgb(0%,0%,0%);stroke-opacity:1;stroke-miterlimit:10;" d="M 595 194 L 624.664062 194 L 636.664062 165.785156 L 648.664062 194 L 678.332031 194 L 654.332031 211.4375 L 662.417969 242.980469 L 636.664062 225.542969 L 610.914062 242.980469 L 623.214844 211.4375 L 595 194 "/>
<path style="fill-rule:nonzero;fill:rgb(35%,70%,90%);fill-opacity:1;stroke-width:1;stroke-linecap:butt;stroke-linejoin:miter;stroke:rgb(0%,0%,0%);stroke-opacity:1;stroke-miterlimit:10;" d="M 423 365 L 452.664062 365 L 464.664062 336.785156 L 476.664062 365 L 506.332031 365 L 482.332031 382.4375 L 490.417969 413.980469 L 464.664062 396.542969 L 438.914062 413.980469 L 451.214844 382.4375 L 423 365 "/>
<path style="fill-rule:nonzero;fill:rgb(100%,51%,0%);fill-opacity:1;stroke-width:1;stroke-linecap:butt;stroke-linejoin:miter;stroke:rgb(0%,0%,0%);stroke-opacity:1;stroke-miterlimit:10;" d="M 704 281 L 678.019531 326 L 729.980469 326 L 704 281 "/>
<path style="fill-rule:nonzero;fill:rgb(100%,51%,0%);fill-opacity:1;stroke-width:1;stroke-linecap:butt;stroke-linejoin:miter;stroke:rgb(0%,0%,0%);stroke-opacity:1;stroke-miterlimit:10;" d="M 324 178 L 298.019531 223 L 349.980469 223 L 324 178 "/>
<path style="fill-rule:nonzero;fill:rgb(100%,51%,0%);fill-opacity:1;stroke-width:1;stroke-linecap:butt;stroke-linejoin:miter;stroke:rgb(0%,0%,0%);stroke-opacity:1;stroke-miterlimit:10;" d="M 260 402 L 234.019531 447 L 285.980469 447 L 260 402 "/>
<path style="fill-rule:nonzero;fill:rgb(100%,51%,0%);fill-opacity:1;stroke-width:1;stroke-linecap:butt;stroke-linejoin:miter;stroke:rgb(0%,0%,0%);stroke-opacity:1;stroke-miterlimit:10;" d="M 441 107 L 415.019531 152 L 466.980469 152 L 441 107 "/>
<path style="fill-rule:nonzero;fill:rgb(100%,51%,0%);fill-opacity:1;stroke-width:1;stroke-linecap:butt;stroke-linejoin:miter;stroke:rgb(0%,0%,0%);stroke-opacity:1;stroke-miterlimit:10;" d="M 571 282 L 545.019531 327 L 596.980469 327 L 571 282 "/>
</g>
</svg>
