<?xml version="1.0" encoding="UTF-8"?>
<svg xmlns="http://www.w3.org/2000/svg" xmlns:xlink="http://www.w3.org/1999/xlink" width="1179pt" height="517pt" viewBox="0 0 1179 517" version="1.1">
<g id="surface46">
<rect x="0" y="0" width="1179" height="517" style="fill:rgb(90%,90%,90%);fill-opacity:1;stroke:none;"/>
<path style="fill-rule:nonzero;fill:rgb(35%,70%,90%);fill-opacity:1;stroke-width:1;stroke-linecap:butt;stroke-linejoin:miter;stroke:rgb(0%,0%,0%);stroke-opacity:1;stroke-miterlimit:10;" d="M 173.214844 232 C 173.214844 243.714844 163.714844 253.214844 152 253.214844 C 140.285156 253.214844 130.785156 243.714844 130.785156 232 C 130.785156 220.285156 140.285156 210.785156 152 210.785156 C 163.714844 210.785156 173.214844 220.285156 173.214844 232 "/>
<path style="fill-rule:nonzero;fill:rgb(35%,70%,90%);fill-opacity:1;stroke-width:1;stroke-linecap:butt;stroke-linejoin:miter;stroke:rgb(0%,0%,0%);stroke-opacity:1;stroke-miterlimit:10;" d="M 323 53 L 297.019531 98 L 348.980469 98 L 323 53 "/>
<path style="fill-rule:nonzero;fill:rgb(35%,70%,90%);fill-opacity:1;stroke-width:1;stroke-linecap:butt;stroke-linejoin:miter;stroke:rgb(0%,0%,0%);stroke-opacity:1;stroke-miterlimit:10;" d="M 441.214844 432 C 441.214844 443.714844 431.714844 453.214844 420 453.214844 C 408.285156 453.214844 398.785156 443.714844 398.785156 432 C 398.785156 420.285156 408.285156 410.785156 420 410.785156 C 431.714844 410.785156 441.214844 420.285156 441.214844 432 "/>
<path style="fill-rule:nonzero;fill:rgb(53%,27%,7%);fill-opacity:1;stroke-width:1;stroke-linecap:butt;stroke-linejoin:miter;stroke:rgb(0%,0%,0%);stroke-opacity:1;stroke-miterlimit:10;" d="M 724 145 L 698.019531 190 L 749.980469 190 L 724 145 "/>
<path style="fill-rule:nonzero;fill:rgb(53%,27%,7%);fill-opacity:1;stroke-width:1;stroke-linecap:butt;stroke-linejoin:miter;stroke:rgb(0%,0%,0%);stroke-opacity:1;stroke-miterlimit:10;" d="M 1055.214844 278 C 1055.214844 289.714844 1045.714844 299.214844 1034 299.214844 C 1022.285156 299.214844 1012.785156 289.714844 1012.785156 278 C 1012.785156 266.285156 1022.285156 256.785156 1034 256.785156 C 1045.714844 256.785156 1055.214844 266.285156 1055.214844 278 "/>
<path style="fill-rule:nonzero;fill:rgb(53%,27%,7%);fill-opacity:1;stroke-width:1;stroke-linecap:butt;stroke-linejoin:miter;stroke:rgb(0%,0%,0%);stroke-opacity:1;stroke-miterlimit:10;" d="M 734 237 L 708.019531 282 L 759.980469 282 L 734 237 "/>
<path style="fill-rule:nonzero;fill:rgb(53%,27%,7%);fill-opacity:1;stroke-width:1;stroke-linecap:butt;stroke-linejoin:miter;stroke:rgb(0%,0%,0%);stroke-opacity:1;stroke-miterlimit:10;" d="M 897.214844 275 C 897.214844 286.714844 887.714844 296.214844 876 296.214844 C 864.285156 296.214844 854.785156 286.714844 854.785156 275 C 854.785156 263.285156 864.285156 253.785156 876 253.785156 C 887.714844 253.785156 897.214844 263.285156 897.214844 275 "/>
<path style="fill-rule:nonzero;fill:rgb(53%,27%,7%);fill-opacity:1;stroke-width:1;stroke-linecap:butt;stroke-linejoin:miter;stroke:rgb(0%,0%,0%);stroke-opacity:1;stroke-miterlimit:10;" d="M 769 359 L 743.019531 404 L 794.980469 404 L 769 359 "/>
</g>
</svg>
