<?xml version="1.0" encoding="UTF-8"?>
<svg xmlns="http://www.w3.org/2000/svg" xmlns:xlink="http://www.w3.org/1999/xlink" width="1179pt" height="517pt" viewBox="0 0 1179 517" version="1.1">
<g id="surface1011">
<rect x="0" y="0" width="1179" height="517" style="fill:rgb(90%,90%,90%);fill-opacity:1;stroke:none;"/>
<path style="fill-rule:nonzero;fill:rgb(35%,70%,90%);fill-opacity:1;stroke-width:1;stroke-linecap:butt;stroke-linejoin:miter;stroke:rgb(0%,0%,0%);stroke-opacity:1;stroke-miterlimit:10;" d="M 883.214844 157 C 883.214844 168.714844 873.714844 178.214844 862 178.214844 C 850.285156 178.214844 840.785156 168.714844 840.785156 157 C 840.785156 145.285156 850.285156 135.785156 862 135.785156 C 873.714844 135.785156 883.214844 145.285156 883.214844 157 "/>
<path style="fill-rule:nonzero;fill:rgb(35%,70%,90%);fill-opacity:1;stroke-width:1;stroke-linecap:butt;stroke-linejoin:miter;stroke:rgb(0%,0%,0%);stroke-opacity:1;stroke-miterlimit:10;" d="M 855.214844 410 C 855.214844 421.714844 845.714844 431.214844 834 431.214844 C 822.285156 431.214844 812.785156 421.714844 812.785156 410 C 812.785156 398.285156 822.285156 388.785156 834 388.785156 C 845.714844 388.785156 855.214844 398.285156 855.214844 410 "/>
<path style="fill-rule:nonzero;fill:rgb(35%,70%,90%);fill-opacity:1;stroke-width:1;stroke-linecap:butt;stroke-linejoin:miter;stroke:rgb(0%,0%,0%);stroke-opacity:1;stroke-miterlimit:10;" d="M 733.214844 315 C 733.214844 326.714844 723.714844 336.214844 712 336.214844 C 700.285156 336.214844 690.785156 326.714844 690.785156 315 C 690.785156 303.285156 700.285156 293.785156 712 293.785156 C 723.714844 293.785156 733.214844 303.285156 733.214844 315 "/>
<path style="fill-rule:nonzero;fill:rgb(35%,70%,90%);fill-opacity:1;stroke-width:1;stroke-linecap:butt;stroke-linejoin:miter;stroke:rgb(0%,0%,0%);stroke-opacity:1;stroke-miterlimit:10;" d="M 169.214844 305 C 169.214844 316.714844 159.714844 326.214844 148 326.214844 C 136.285156 326.214844 126.785156 316.714844 126.785156 305 C 126.785156 293.285156 136.285156 283.785156 148 283.785156 C 159.714844 283.785156 169.214844 293.285156 169.214844 305 "/>
<path style="fill-rule:nonzero;fill:rgb(100%,51%,0%);fill-opacity:1;stroke-width:1;stroke-linecap:butt;stroke-linejoin:miter;stroke:rgb(0%,0%,0%);stroke-opacity:1;stroke-miterlimit:10;" d="M 214 95 L 188.019531 140 L 239.980469 140 L 214 95 "/>
<path style="fill-rule:nonzero;fill:rgb(100%,51%,0%);fill-opacity:1;stroke-width:1;stroke-linecap:butt;stroke-linejoin:miter;stroke:rgb(0%,0%,0%);stroke-opacity:1;stroke-miterlimit:10;" d="M 310 268 L 284.019531 313 L 335.980469 313 L 310 268 "/>
<path style="fill-rule:nonzero;fill:rgb(100%,51%,0%);fill-opacity:1;stroke-width:1;stroke-linecap:butt;stroke-linejoin:miter;stroke:rgb(0%,0%,0%);stroke-opacity:1;stroke-miterlimit:10;" d="M 593 78 L 567.019531 123 L 618.980469 123 L 593 78 "/>
<path style="fill-rule:nonzero;fill:rgb(100%,51%,0%);fill-opacity:1;stroke-width:1;stroke-linecap:butt;stroke-linejoin:miter;stroke:rgb(0%,0%,0%);stroke-opacity:1;stroke-miterlimit:10;" d="M 695 154 L 669.019531 199 L 720.980469 199 L 695 154 "/>
</g>
</svg>
