<?xml version="1.0" encoding="UTF-8"?>
<svg xmlns="http://www.w3.org/2000/svg" xmlns:xlink="http://www.w3.org/1999/xlink" width="1179pt" height="517pt" viewBox="0 0 1179 517" version="1.1">
<g id="surface546">
<rect x="0" y="0" width="1179" height="517" style="fill:rgb(90%,90%,90%);fill-opacity:1;stroke:none;"/>
<path style="fill-rule:nonzero;fill:rgb(35%,70%,90%);fill-opacity:1;stroke-width:1;stroke-linecap:butt;stroke-linejoin:miter;stroke:rgb(0%,0%,0%);stroke-opacity:1;stroke-miterlimit:10;" d="M 305 394 L 334.664062 394 L 346.664062 365.785156 L 358.664062 394 L 388.332031 394 L 364.332031 411.4375 L 372.417969 442.980469 L 346.664062 425.542969 L 320.914062 442.980469 L 333.214844 411.4375 L 305 394 "/>
<path style="fill-rule:nonzero;fill:rgb(35%,70%,90%);fill-opacity:1;stroke-width:1;stroke-linecap:butt;stroke-linejoin:miter;stroke:rgb(0%,0%,0%);stroke-opacity:1;stroke-miterlimit:10;" d="M 952 123 L 981.664062 123 L 993.664062 94.785156 L 1005.664062 123 L 1035.332031 123 L 1011.332031 140.4375 L 1019.417969 171.980469 L 993.664062 154.542969 L 967.914062 171.980469 L 980.214844 140.4375 L 952 123 "/>
<path style="fill-rule:nonzero;fill:rgb(35%,70%,90%);fill-opacity:1;stroke-width:1;stroke-linecap:butt;stroke-linejoin:miter;stroke:rgb(0%,0%,0%);stroke-opacity:1;stroke-miterlimit:10;" d="M 777 300 L 806.664062 300 L 818.664062 271.785156 L 830.664062 300 L 860.332031 300 L 836.332031 317.4375 L 844.417969 348.980469 L 818.664062 331.542969 L 792.914062 348.980469 L 805.214844 317.4375 L 777 300 "/>
<path style="fill-rule:nonzero;fill:rgb(35%,70%,90%);fill-opacity:1;stroke-width:1;stroke-linecap:butt;stroke-linejoin:miter;stroke:rgb(0%,0%,0%);stroke-opacity:1;stroke-miterlimit:10;" d="M 556 423 L 585.664062 423 L 597.664062 394.785156 L 609.664062 423 L 639.332031 423 L 615.332031 440.4375 L 623.417969 471.980469 L 597.664062 454.542969 L 571.914062 471.980469 L 584.214844 440.4375 L 556 423 "/>
<path style="fill-rule:nonzero;fill:rgb(100%,51%,0%);fill-opacity:1;stroke-width:1;stroke-linecap:butt;stroke-linejoin:miter;stroke:rgb(0%,0%,0%);stroke-opacity:1;stroke-miterlimit:10;" d="M 106 333 L 80.019531 378 L 131.980469 378 L 106 333 "/>
<path style="fill-rule:nonzero;fill:rgb(100%,51%,0%);fill-opacity:1;stroke-width:1;stroke-linecap:butt;stroke-linejoin:miter;stroke:rgb(0%,0%,0%);stroke-opacity:1;stroke-miterlimit:10;" d="M 638 298 L 612.019531 343 L 663.980469 343 L 638 298 "/>
<path style="fill-rule:nonzero;fill:rgb(100%,51%,0%);fill-opacity:1;stroke-width:1;stroke-linecap:butt;stroke-linejoin:miter;stroke:rgb(0%,0%,0%);stroke-opacity:1;stroke-miterlimit:10;" d="M 126 94 L 100.019531 139 L 151.980469 139 L 126 94 "/>
</g>
</svg>
