<?xml version="1.0" encoding="UTF-8"?>
<svg xmlns="http://www.w3.org/2000/svg" xmlns:xlink="http://www.w3.org/1999/xlink" width="1179pt" height="517pt" viewBox="0 0 1179 517" version="1.1">
<g id="surface926">
<rect x="0" y="0" width="1179" height="517" style="fill:rgb(90%,90%,90%);fill-opacity:1;stroke:none;"/>
<path style="fill-rule:nonzero;fill:rgb(35%,70%,90%);fill-opacity:1;stroke-width:1;stroke-linecap:butt;stroke-linejoin:miter;stroke:rgb(0%,0%,0%);stroke-opacity:1;stroke-miterlimit:10;" d="M 160.214844 207 C 160.214844 218.714844 150.714844 228.214844 139 228.214844 C 127.285156 228.214844 117.785156 218.714844 117.785156 207 C 117.785156 195.285156 127.285156 185.785156 139 185.785156 C 150.714844 185.785156 160.214844 195.285156 160.214844 207 "/>
<path style="fill-rule:nonzero;fill:rgb(35%,70%,90%);fill-opacity:1;stroke-width:1;stroke-linecap:butt;stroke-linejoin:miter;stroke:rgb(0%,0%,0%);stroke-opacity:1;stroke-miterlimit:10;" d="M 493.214844 93 C 493.214844 104.714844 483.714844 114.214844 472 114.214844 C 460.285156 114.214844 450.785156 104.714844 450.785156 93 C 450.785156 81.285156 460.285156 71.785156 472 71.785156 C 483.714844 71.785156 493.214844 81.285156 493.214844 93 "/>
<path style="fill-rule:nonzero;fill:rgb(35%,70%,90%);fill-opacity:1;stroke-width:1;stroke-linecap:butt;stroke-linejoin:miter;stroke:rgb(0%,0%,0%);stroke-opacity:1;stroke-miterlimit:10;" d="M 373.214844 286 C 373.214844 297.714844 363.714844 307.214844 352 307.214844 C 340.285156 307.214844 330.785156 297.714844 330.785156 286 C 330.785156 274.285156 340.285156 264.785156 352 264.785156 C 363.714844 264.785156 373.214844 274.285156 373.214844 286 "/>
<path style="fill-rule:nonzero;fill:rgb(35%,70%,90%);fill-opacity:1;stroke-width:1;stroke-linecap:butt;stroke-linejoin:miter;stroke:rgb(0%,0%,0%);stroke-opacity:1;stroke-miterlimit:10;" d="M 119 360 L 148.664062 360 L 160.664062 331.785156 L 172.664062 360 L 202.332031 360 L 178.332031 377.4375 L 186.417969 408.980469 L 160.664062 391.542969 L 134.914062 408.980469 L 147.214844 377.4375 L 119 360 "/>
<path style="fill-rule:nonzero;fill:rgb(35%,70%,90%);fill-opacity:1;stroke-width:1;stroke-linecap:butt;stroke-linejoin:miter;stroke:rgb(0%,0%,0%);stroke-opacity:1;stroke-miterlimit:10;" d="M 649 231 L 678.664062 231 L 690.664062 202.785156 L 702.664062 231 L 732.332031 231 L 708.332031 248.4375 L 716.417969 279.980469 L 690.664062 262.542969 L 664.914062 279.980469 L 677.214844 248.4375 L 649 231 "/>
<path style="fill-rule:nonzero;fill:rgb(35%,70%,90%);fill-opacity:1;stroke-width:1;stroke-linecap:butt;stroke-linejoin:miter;stroke:rgb(0%,0%,0%);stroke-opacity:1;stroke-miterlimit:10;" d="M 963 235 L 992.664062 235 L 1004.664062 206.785156 L 1016.664062 235 L 1046.332031 235 L 1022.332031 252.4375 L 1030.417969 283.980469 L 1004.664062 266.542969 L 978.914062 283.980469 L 991.214844 252.4375 L 963 235 "/>
</g>
</svg>
