<?xml version="1.0" encoding="UTF-8"?>
<svg xmlns="http://www.w3.org/2000/svg" xmlns:xlink="http://www.w3.org/1999/xlink" width="1179pt" height="517pt" viewBox="0 0 1179 517" version="1.1">
<g id="surface1301">
<rect x="0" y="0" width="1179" height="517" style="fill:rgb(90%,90%,90%);fill-opacity:1;stroke:none;"/>
<path style="fill-rule:nonzero;fill:rgb(53%,27%,7%);fill-opacity:1;stroke-width:1;stroke-linecap:butt;stroke-linejoin:miter;stroke:rgb(0%,0%,0%);stroke-opacity:1;stroke-miterlimit:10;" d="M 818 75 L 792.019531 120 L 843.980469 120 L 818 75 "/>
<path style="fill-rule:nonzero;fill:rgb(53%,27%,7%);fill-opacity:1;stroke-width:1;stroke-linecap:butt;stroke-linejoin:miter;stroke:rgb(0%,0%,0%);stroke-opacity:1;stroke-miterlimit:10;" d="M 605 362 L 579.019531 407 L 630.980469 407 L 605 362 "/>
<path style="fill-rule:nonzero;fill:rgb(53%,27%,7%);fill-opacity:1;stroke-width:1;stroke-linecap:butt;stroke-linejoin:miter;stroke:rgb(0%,0%,0%);stroke-opacity:1;stroke-miterlimit:10;" d="M 83 143 L 57.019531 188 L 108.980469 188 L 83 143 "/>
<path style="fill-rule:nonzero;fill:rgb(53%,27%,7%);fill-opacity:1;stroke-width:1;stroke-linecap:butt;stroke-linejoin:miter;stroke:rgb(0%,0%,0%);stroke-opacity:1;stroke-miterlimit:10;" d="M 992 305 L 966.019531 350 L 1017.980469 350 L 992 305 "/>
<path style="fill-rule:nonzero;fill:rgb(35%,70%,90%);fill-opacity:1;stroke-width:1;stroke-linecap:butt;stroke-linejoin:miter;stroke:rgb(0%,0%,0%);stroke-opacity:1;stroke-miterlimit:10;" d="M 572 258 L 601.664062 258 L 613.664062 229.785156 L 625.664062 258 L 655.332031 258 L 631.332031 275.4375 L 639.417969 306.980469 L 613.664062 289.542969 L 587.914062 306.980469 L 600.214844 275.4375 L 572 258 "/>
<path style="fill-rule:nonzero;fill:rgb(35%,70%,90%);fill-opacity:1;stroke-width:1;stroke-linecap:butt;stroke-linejoin:miter;stroke:rgb(0%,0%,0%);stroke-opacity:1;stroke-miterlimit:10;" d="M 484 381 L 513.664062 381 L 525.664062 352.785156 L 537.664062 381 L 567.332031 381 L 543.332031 398.4375 L 551.417969 429.980469 L 525.664062 412.542969 L 499.914062 429.980469 L 512.214844 398.4375 L 484 381 "/>
<path style="fill-rule:nonzero;fill:rgb(35%,70%,90%);fill-opacity:1;stroke-width:1;stroke-linecap:butt;stroke-linejoin:miter;stroke:rgb(0%,0%,0%);stroke-opacity:1;stroke-miterlimit:10;" d="M 160 317 L 189.664062 317 L 201.664062 288.785156 L 213.664062 317 L 243.332031 317 L 219.332031 334.4375 L 227.417969 365.980469 L 201.664062 348.542969 L 175.914062 365.980469 L 188.214844 334.4375 L 160 317 "/>
<path style="fill-rule:nonzero;fill:rgb(35%,70%,90%);fill-opacity:1;stroke-width:1;stroke-linecap:butt;stroke-linejoin:miter;stroke:rgb(0%,0%,0%);stroke-opacity:1;stroke-miterlimit:10;" d="M 496 121 L 525.664062 121 L 537.664062 92.785156 L 549.664062 121 L 579.332031 121 L 555.332031 138.4375 L 563.417969 169.980469 L 537.664062 152.542969 L 511.914062 169.980469 L 524.214844 138.4375 L 496 121 "/>
<path style="fill-rule:nonzero;fill:rgb(35%,70%,90%);fill-opacity:1;stroke-width:1;stroke-linecap:butt;stroke-linejoin:miter;stroke:rgb(0%,0%,0%);stroke-opacity:1;stroke-miterlimit:10;" d="M 907 220 L 936.664062 220 L 948.664062 191.785156 L 960.664062 220 L 990.332031 220 L 966.332031 237.4375 L 974.417969 268.980469 L 948.664062 251.542969 L 922.914062 268.980469 L 935.214844 237.4375 L 907 220 "/>
</g>
</svg>
