<?xml version="1.0" encoding="UTF-8"?>
<svg xmlns="http://www.w3.org/2000/svg" xmlns:xlink="http://www.w3.org/1999/xlink" width="1179pt" height="517pt" viewBox="0 0 1179 517" version="1.1">
<g id="surface1101">
<rect x="0" y="0" width="1179" height="517" style="fill:rgb(90%,90%,90%);fill-opacity:1;stroke:none;"/>
<path style="fill-rule:nonzero;fill:rgb(35%,70%,90%);fill-opacity:1;stroke-width:1;stroke-linecap:butt;stroke-linejoin:miter;stroke:rgb(0%,0%,0%);stroke-opacity:1;stroke-miterlimit:10;" d="M 298.214844 317 C 298.214844 328.714844 288.714844 338.214844 277 338.214844 C 265.285156 338.214844 255.785156 328.714844 255.785156 317 C 255.785156 305.285156 265.285156 295.785156 277 295.785156 C 288.714844 295.785156 298.214844 305.285156 298.214844 317 "/>
<path style="fill-rule:nonzero;fill:rgb(35%,70%,90%);fill-opacity:1;stroke-width:1;stroke-linecap:butt;stroke-linejoin:miter;stroke:rgb(0%,0%,0%);stroke-opacity:1;stroke-miterlimit:10;" d="M 298.214844 145 C 298.214844 156.714844 288.714844 166.214844 277 166.214844 C 265.285156 166.214844 255.785156 156.714844 255.785156 145 C 255.785156 133.285156 265.285156 123.785156 277 123.785156 C 288.714844 123.785156 298.214844 133.285156 298.214844 145 "/>
<path style="fill-rule:nonzero;fill:rgb(35%,70%,90%);fill-opacity:1;stroke-width:1;stroke-linecap:butt;stroke-linejoin:miter;stroke:rgb(0%,0%,0%);stroke-opacity:1;stroke-miterlimit:10;" d="M 614.214844 387 C 614.214844 398.714844 604.714844 408.214844 593 408.214844 C 581.285156 408.214844 571.785156 398.714844 571.785156 387 C 571.785156 375.285156 581.285156 365.785156 593 365.785156 C 604.714844 365.785156 614.214844 375.285156 614.214844 387 "/>
<path style="fill-rule:nonzero;fill:rgb(35%,70%,90%);fill-opacity:1;stroke-width:1;stroke-linecap:butt;stroke-linejoin:miter;stroke:rgb(0%,0%,0%);stroke-opacity:1;stroke-miterlimit:10;" d="M 114.214844 328 C 114.214844 339.714844 104.714844 349.214844 93 349.214844 C 81.285156 349.214844 71.785156 339.714844 71.785156 328 C 71.785156 316.285156 81.285156 306.785156 93 306.785156 C 104.714844 306.785156 114.214844 316.285156 114.214844 328 "/>
<path style="fill-rule:nonzero;fill:rgb(100%,51%,0%);fill-opacity:1;stroke-width:1;stroke-linecap:butt;stroke-linejoin:miter;stroke:rgb(0%,0%,0%);stroke-opacity:1;stroke-miterlimit:10;" d="M 1027 274 L 1001.019531 319 L 1052.980469 319 L 1027 274 "/>
<path style="fill-rule:nonzero;fill:rgb(100%,51%,0%);fill-opacity:1;stroke-width:1;stroke-linecap:butt;stroke-linejoin:miter;stroke:rgb(0%,0%,0%);stroke-opacity:1;stroke-miterlimit:10;" d="M 769 128 L 743.019531 173 L 794.980469 173 L 769 128 "/>
<path style="fill-rule:nonzero;fill:rgb(100%,51%,0%);fill-opacity:1;stroke-width:1;stroke-linecap:butt;stroke-linejoin:miter;stroke:rgb(0%,0%,0%);stroke-opacity:1;stroke-miterlimit:10;" d="M 395 239 L 369.019531 284 L 420.980469 284 L 395 239 "/>
<path style="fill-rule:nonzero;fill:rgb(100%,51%,0%);fill-opacity:1;stroke-width:1;stroke-linecap:butt;stroke-linejoin:miter;stroke:rgb(0%,0%,0%);stroke-opacity:1;stroke-miterlimit:10;" d="M 400 367 L 374.019531 412 L 425.980469 412 L 400 367 "/>
</g>
</svg>
