<?xml version="1.0" encoding="UTF-8"?>
<svg xmlns="http://www.w3.org/2000/svg" xmlns:xlink="http://www.w3.org/1999/xlink" width="1179pt" height="517pt" viewBox="0 0 1179 517" version="1.1">
<g id="surface581">
<rect x="0" y="0" width="1179" height="517" style="fill:rgb(90%,90%,90%);fill-opacity:1;stroke:none;"/>
<path style="fill-rule:nonzero;fill:rgb(35%,70%,90%);fill-opacity:1;stroke-width:1;stroke-linecap:butt;stroke-linejoin:miter;stroke:rgb(0%,0%,0%);stroke-opacity:1;stroke-miterlimit:10;" d="M 310 330 L 339.664062 330 L 351.664062 301.785156 L 363.664062 330 L 393.332031 330 L 369.332031 347.4375 L 377.417969 378.980469 L 351.664062 361.542969 L 325.914062 378.980469 L 338.214844 347.4375 L 310 330 "/>
<path style="fill-rule:nonzero;fill:rgb(53%,27%,7%);fill-opacity:1;stroke-width:1;stroke-linecap:butt;stroke-linejoin:miter;stroke:rgb(0%,0%,0%);stroke-opacity:1;stroke-miterlimit:10;" d="M 96 173 L 125.664062 173 L 137.664062 144.785156 L 149.664062 173 L 179.332031 173 L 155.332031 190.4375 L 163.417969 221.980469 L 137.664062 204.542969 L 111.914062 221.980469 L 124.214844 190.4375 L 96 173 "/>
<path style="fill-rule:nonzero;fill:rgb(53%,27%,7%);fill-opacity:1;stroke-width:1;stroke-linecap:butt;stroke-linejoin:miter;stroke:rgb(0%,0%,0%);stroke-opacity:1;stroke-miterlimit:10;" d="M 244 233 L 273.664062 233 L 285.664062 204.785156 L 297.664062 233 L 327.332031 233 L 303.332031 250.4375 L 311.417969 281.980469 L 285.664062 264.542969 L 259.914062 281.980469 L 272.214844 250.4375 L 244 233 "/>
<path style="fill-rule:nonzero;fill:rgb(35%,70%,90%);fill-opacity:1;stroke-width:1;stroke-linecap:butt;stroke-linejoin:miter;stroke:rgb(0%,0%,0%);stroke-opacity:1;stroke-miterlimit:10;" d="M 348 163 L 377.664062 163 L 389.664062 134.785156 L 401.664062 163 L 431.332031 163 L 407.332031 180.4375 L 415.417969 211.980469 L 389.664062 194.542969 L 363.914062 211.980469 L 376.214844 180.4375 L 348 163 "/>
<path style="fill-rule:nonzero;fill:rgb(35%,70%,90%);fill-opacity:1;stroke-width:1;stroke-linecap:butt;stroke-linejoin:miter;stroke:rgb(0%,0%,0%);stroke-opacity:1;stroke-miterlimit:10;" d="M 130 284 L 159.664062 284 L 171.664062 255.785156 L 183.664062 284 L 213.332031 284 L 189.332031 301.4375 L 197.417969 332.980469 L 171.664062 315.542969 L 145.914062 332.980469 L 158.214844 301.4375 L 130 284 "/>
<path style="fill-rule:nonzero;fill:rgb(53%,27%,7%);fill-opacity:1;stroke-width:1;stroke-linecap:butt;stroke-linejoin:miter;stroke:rgb(0%,0%,0%);stroke-opacity:1;stroke-miterlimit:10;" d="M 866.785156 247.785156 L 866.785156 290.214844 L 909.214844 290.214844 L 909.214844 247.785156 L 866.785156 247.785156 "/>
<path style="fill-rule:nonzero;fill:rgb(35%,70%,90%);fill-opacity:1;stroke-width:1;stroke-linecap:butt;stroke-linejoin:miter;stroke:rgb(0%,0%,0%);stroke-opacity:1;stroke-miterlimit:10;" d="M 786.785156 386.785156 L 786.785156 429.214844 L 829.214844 429.214844 L 829.214844 386.785156 L 786.785156 386.785156 "/>
<path style="fill-rule:nonzero;fill:rgb(35%,70%,90%);fill-opacity:1;stroke-width:1;stroke-linecap:butt;stroke-linejoin:miter;stroke:rgb(0%,0%,0%);stroke-opacity:1;stroke-miterlimit:10;" d="M 980.785156 389.785156 L 980.785156 432.214844 L 1023.214844 432.214844 L 1023.214844 389.785156 L 980.785156 389.785156 "/>
<path style="fill-rule:nonzero;fill:rgb(53%,27%,7%);fill-opacity:1;stroke-width:1;stroke-linecap:butt;stroke-linejoin:miter;stroke:rgb(0%,0%,0%);stroke-opacity:1;stroke-miterlimit:10;" d="M 712.785156 281.785156 L 712.785156 324.214844 L 755.214844 324.214844 L 755.214844 281.785156 L 712.785156 281.785156 "/>
</g>
</svg>
