<?xml version="1.0" encoding="UTF-8"?>
<svg xmlns="http://www.w3.org/2000/svg" xmlns:xlink="http://www.w3.org/1999/xlink" width="1179pt" height="517pt" viewBox="0 0 1179 517" version="1.1">
<g id="surface336">
<rect x="0" y="0" width="1179" height="517" style="fill:rgb(90%,90%,90%);fill-opacity:1;stroke:none;"/>
<path style="fill-rule:nonzero;fill:rgb(55%,51%,53%);fill-opacity:1;stroke-width:1;stroke-linecap:butt;stroke-linejoin:miter;stroke:rgb(0%,0%,0%);stroke-opacity:1;stroke-miterlimit:10;" d="M 429 81 L 458.664062 81 L 470.664062 52.785156 L 482.664062 81 L 512.332031 81 L 488.332031 98.4375 L 496.417969 129.980469 L 470.664062 112.542969 L 444.914062 129.980469 L 457.214844 98.4375 L 429 81 "/>
<path style="fill-rule:nonzero;fill:rgb(55%,51%,53%);fill-opacity:1;stroke-width:1;stroke-linecap:butt;stroke-linejoin:miter;stroke:rgb(0%,0%,0%);stroke-opacity:1;stroke-miterlimit:10;" d="M 600 409 L 629.664062 409 L 641.664062 380.785156 L 653.664062 409 L 683.332031 409 L 659.332031 426.4375 L 667.417969 457.980469 L 641.664062 440.542969 L 615.914062 457.980469 L 628.214844 426.4375 L 600 409 "/>
<path style="fill-rule:nonzero;fill:rgb(55%,51%,53%);fill-opacity:1;stroke-width:1;stroke-linecap:butt;stroke-linejoin:miter;stroke:rgb(0%,0%,0%);stroke-opacity:1;stroke-miterlimit:10;" d="M 469 392 L 498.664062 392 L 510.664062 363.785156 L 522.664062 392 L 552.332031 392 L 528.332031 409.4375 L 536.417969 440.980469 L 510.664062 423.542969 L 484.914062 440.980469 L 497.214844 409.4375 L 469 392 "/>
<path style="fill-rule:nonzero;fill:rgb(55%,51%,53%);fill-opacity:1;stroke-width:1;stroke-linecap:butt;stroke-linejoin:miter;stroke:rgb(0%,0%,0%);stroke-opacity:1;stroke-miterlimit:10;" d="M 184 142 L 213.664062 142 L 225.664062 113.785156 L 237.664062 142 L 267.332031 142 L 243.332031 159.4375 L 251.417969 190.980469 L 225.664062 173.542969 L 199.914062 190.980469 L 212.214844 159.4375 L 184 142 "/>
<path style="fill-rule:nonzero;fill:rgb(53%,27%,7%);fill-opacity:1;stroke-width:1;stroke-linecap:butt;stroke-linejoin:miter;stroke:rgb(0%,0%,0%);stroke-opacity:1;stroke-miterlimit:10;" d="M 1026 339 L 1000.019531 384 L 1051.980469 384 L 1026 339 "/>
<path style="fill-rule:nonzero;fill:rgb(53%,27%,7%);fill-opacity:1;stroke-width:1;stroke-linecap:butt;stroke-linejoin:miter;stroke:rgb(0%,0%,0%);stroke-opacity:1;stroke-miterlimit:10;" d="M 859 402 L 833.019531 447 L 884.980469 447 L 859 402 "/>
<path style="fill-rule:nonzero;fill:rgb(53%,27%,7%);fill-opacity:1;stroke-width:1;stroke-linecap:butt;stroke-linejoin:miter;stroke:rgb(0%,0%,0%);stroke-opacity:1;stroke-miterlimit:10;" d="M 618 209 L 592.019531 254 L 643.980469 254 L 618 209 "/>
<path style="fill-rule:nonzero;fill:rgb(53%,27%,7%);fill-opacity:1;stroke-width:1;stroke-linecap:butt;stroke-linejoin:miter;stroke:rgb(0%,0%,0%);stroke-opacity:1;stroke-miterlimit:10;" d="M 188 254 L 162.019531 299 L 213.980469 299 L 188 254 "/>
</g>
</svg>
