<?xml version="1.0" encoding="UTF-8"?>
<svg xmlns="http://www.w3.org/2000/svg" xmlns:xlink="http://www.w3.org/1999/xlink" width="1179pt" height="517pt" viewBox="0 0 1179 517" version="1.1">
<g id="surface1181">
<rect x="0" y="0" width="1179" height="517" style="fill:rgb(90%,90%,90%);fill-opacity:1;stroke:none;"/>
<path style="fill-rule:nonzero;fill:rgb(35%,70%,90%);fill-opacity:1;stroke-width:1;stroke-linecap:butt;stroke-linejoin:miter;stroke:rgb(0%,0%,0%);stroke-opacity:1;stroke-miterlimit:10;" d="M 412.214844 108 C 412.214844 119.714844 402.714844 129.214844 391 129.214844 C 379.285156 129.214844 369.785156 119.714844 369.785156 108 C 369.785156 96.285156 379.285156 86.785156 391 86.785156 C 402.714844 86.785156 412.214844 96.285156 412.214844 108 "/>
<path style="fill-rule:nonzero;fill:rgb(35%,70%,90%);fill-opacity:1;stroke-width:1;stroke-linecap:butt;stroke-linejoin:miter;stroke:rgb(0%,0%,0%);stroke-opacity:1;stroke-miterlimit:10;" d="M 310.214844 347 C 310.214844 358.714844 300.714844 368.214844 289 368.214844 C 277.285156 368.214844 267.785156 358.714844 267.785156 347 C 267.785156 335.285156 277.285156 325.785156 289 325.785156 C 300.714844 325.785156 310.214844 335.285156 310.214844 347 "/>
<path style="fill-rule:nonzero;fill:rgb(35%,70%,90%);fill-opacity:1;stroke-width:1;stroke-linecap:butt;stroke-linejoin:miter;stroke:rgb(0%,0%,0%);stroke-opacity:1;stroke-miterlimit:10;" d="M 673.214844 327 C 673.214844 338.714844 663.714844 348.214844 652 348.214844 C 640.285156 348.214844 630.785156 338.714844 630.785156 327 C 630.785156 315.285156 640.285156 305.785156 652 305.785156 C 663.714844 305.785156 673.214844 315.285156 673.214844 327 "/>
<path style="fill-rule:nonzero;fill:rgb(35%,70%,90%);fill-opacity:1;stroke-width:1;stroke-linecap:butt;stroke-linejoin:miter;stroke:rgb(0%,0%,0%);stroke-opacity:1;stroke-miterlimit:10;" d="M 762.214844 172 C 762.214844 183.714844 752.714844 193.214844 741 193.214844 C 729.285156 193.214844 719.785156 183.714844 719.785156 172 C 719.785156 160.285156 729.285156 150.785156 741 150.785156 C 752.714844 150.785156 762.214844 160.285156 762.214844 172 "/>
<path style="fill-rule:nonzero;fill:rgb(55%,51%,53%);fill-opacity:1;stroke-width:1;stroke-linecap:butt;stroke-linejoin:miter;stroke:rgb(0%,0%,0%);stroke-opacity:1;stroke-miterlimit:10;" d="M 143 198 L 172.664062 198 L 184.664062 169.785156 L 196.664062 198 L 226.332031 198 L 202.332031 215.4375 L 210.417969 246.980469 L 184.664062 229.542969 L 158.914062 246.980469 L 171.214844 215.4375 L 143 198 "/>
<path style="fill-rule:nonzero;fill:rgb(55%,51%,53%);fill-opacity:1;stroke-width:1;stroke-linecap:butt;stroke-linejoin:miter;stroke:rgb(0%,0%,0%);stroke-opacity:1;stroke-miterlimit:10;" d="M 539 246 L 568.664062 246 L 580.664062 217.785156 L 592.664062 246 L 622.332031 246 L 598.332031 263.4375 L 606.417969 294.980469 L 580.664062 277.542969 L 554.914062 294.980469 L 567.214844 263.4375 L 539 246 "/>
<path style="fill-rule:nonzero;fill:rgb(55%,51%,53%);fill-opacity:1;stroke-width:1;stroke-linecap:butt;stroke-linejoin:miter;stroke:rgb(0%,0%,0%);stroke-opacity:1;stroke-miterlimit:10;" d="M 455 393 L 484.664062 393 L 496.664062 364.785156 L 508.664062 393 L 538.332031 393 L 514.332031 410.4375 L 522.417969 441.980469 L 496.664062 424.542969 L 470.914062 441.980469 L 483.214844 410.4375 L 455 393 "/>
<path style="fill-rule:nonzero;fill:rgb(55%,51%,53%);fill-opacity:1;stroke-width:1;stroke-linecap:butt;stroke-linejoin:miter;stroke:rgb(0%,0%,0%);stroke-opacity:1;stroke-miterlimit:10;" d="M 310 215 L 339.664062 215 L 351.664062 186.785156 L 363.664062 215 L 393.332031 215 L 369.332031 232.4375 L 377.417969 263.980469 L 351.664062 246.542969 L 325.914062 263.980469 L 338.214844 232.4375 L 310 215 "/>
</g>
</svg>
