<?xml version="1.0" encoding="UTF-8"?>
<svg xmlns="http://www.w3.org/2000/svg" xmlns:xlink="http://www.w3.org/1999/xlink" width="1179pt" height="517pt" viewBox="0 0 1179 517" version="1.1">
<g id="surface346">
<rect x="0" y="0" width="1179" height="517" style="fill:rgb(90%,90%,90%);fill-opacity:1;stroke:none;"/>
<path style="fill-rule:nonzero;fill:rgb(55%,51%,53%);fill-opacity:1;stroke-width:1;stroke-linecap:butt;stroke-linejoin:miter;stroke:rgb(0%,0%,0%);stroke-opacity:1;stroke-miterlimit:10;" d="M 423.214844 116 C 423.214844 127.714844 413.714844 137.214844 402 137.214844 C 390.285156 137.214844 380.785156 127.714844 380.785156 116 C 380.785156 104.285156 390.285156 94.785156 402 94.785156 C 413.714844 94.785156 423.214844 104.285156 423.214844 116 "/>
<path style="fill-rule:nonzero;fill:rgb(53%,27%,7%);fill-opacity:1;stroke-width:1;stroke-linecap:butt;stroke-linejoin:miter;stroke:rgb(0%,0%,0%);stroke-opacity:1;stroke-miterlimit:10;" d="M 421.214844 254 C 421.214844 265.714844 411.714844 275.214844 400 275.214844 C 388.285156 275.214844 378.785156 265.714844 378.785156 254 C 378.785156 242.285156 388.285156 232.785156 400 232.785156 C 411.714844 232.785156 421.214844 242.285156 421.214844 254 "/>
<path style="fill-rule:nonzero;fill:rgb(53%,27%,7%);fill-opacity:1;stroke-width:1;stroke-linecap:butt;stroke-linejoin:miter;stroke:rgb(0%,0%,0%);stroke-opacity:1;stroke-miterlimit:10;" d="M 172.214844 431 C 172.214844 442.714844 162.714844 452.214844 151 452.214844 C 139.285156 452.214844 129.785156 442.714844 129.785156 431 C 129.785156 419.285156 139.285156 409.785156 151 409.785156 C 162.714844 409.785156 172.214844 419.285156 172.214844 431 "/>
<path style="fill-rule:nonzero;fill:rgb(55%,51%,53%);fill-opacity:1;stroke-width:1;stroke-linecap:butt;stroke-linejoin:miter;stroke:rgb(0%,0%,0%);stroke-opacity:1;stroke-miterlimit:10;" d="M 178.214844 162 C 178.214844 173.714844 168.714844 183.214844 157 183.214844 C 145.285156 183.214844 135.785156 173.714844 135.785156 162 C 135.785156 150.285156 145.285156 140.785156 157 140.785156 C 168.714844 140.785156 178.214844 150.285156 178.214844 162 "/>
<path style="fill-rule:nonzero;fill:rgb(55%,51%,53%);fill-opacity:1;stroke-width:1;stroke-linecap:butt;stroke-linejoin:miter;stroke:rgb(0%,0%,0%);stroke-opacity:1;stroke-miterlimit:10;" d="M 251.214844 351 C 251.214844 362.714844 241.714844 372.214844 230 372.214844 C 218.285156 372.214844 208.785156 362.714844 208.785156 351 C 208.785156 339.285156 218.285156 329.785156 230 329.785156 C 241.714844 329.785156 251.214844 339.285156 251.214844 351 "/>
<path style="fill-rule:nonzero;fill:rgb(53%,27%,7%);fill-opacity:1;stroke-width:1;stroke-linecap:butt;stroke-linejoin:miter;stroke:rgb(0%,0%,0%);stroke-opacity:1;stroke-miterlimit:10;" d="M 777 326 L 751.019531 371 L 802.980469 371 L 777 326 "/>
<path style="fill-rule:nonzero;fill:rgb(55%,51%,53%);fill-opacity:1;stroke-width:1;stroke-linecap:butt;stroke-linejoin:miter;stroke:rgb(0%,0%,0%);stroke-opacity:1;stroke-miterlimit:10;" d="M 907 187 L 881.019531 232 L 932.980469 232 L 907 187 "/>
<path style="fill-rule:nonzero;fill:rgb(55%,51%,53%);fill-opacity:1;stroke-width:1;stroke-linecap:butt;stroke-linejoin:miter;stroke:rgb(0%,0%,0%);stroke-opacity:1;stroke-miterlimit:10;" d="M 755 89 L 729.019531 134 L 780.980469 134 L 755 89 "/>
<path style="fill-rule:nonzero;fill:rgb(53%,27%,7%);fill-opacity:1;stroke-width:1;stroke-linecap:butt;stroke-linejoin:miter;stroke:rgb(0%,0%,0%);stroke-opacity:1;stroke-miterlimit:10;" d="M 717 214 L 691.019531 259 L 742.980469 259 L 717 214 "/>
</g>
</svg>
