<?xml version="1.0" encoding="UTF-8"?>
<svg xmlns="http://www.w3.org/2000/svg" xmlns:xlink="http://www.w3.org/1999/xlink" width="1179pt" height="517pt" viewBox="0 0 1179 517" version="1.1">
<g id="surface586">
<rect x="0" y="0" width="1179" height="517" style="fill:rgb(90%,90%,90%);fill-opacity:1;stroke:none;"/>
<path style="fill-rule:nonzero;fill:rgb(35%,70%,90%);fill-opacity:1;stroke-width:1;stroke-linecap:butt;stroke-linejoin:miter;stroke:rgb(0%,0%,0%);stroke-opacity:1;stroke-miterlimit:10;" d="M 177.214844 152 C 177.214844 163.714844 167.714844 173.214844 156 173.214844 C 144.285156 173.214844 134.785156 163.714844 134.785156 152 C 134.785156 140.285156 144.285156 130.785156 156 130.785156 C 167.714844 130.785156 177.214844 140.285156 177.214844 152 "/>
<path style="fill-rule:nonzero;fill:rgb(35%,70%,90%);fill-opacity:1;stroke-width:1;stroke-linecap:butt;stroke-linejoin:miter;stroke:rgb(0%,0%,0%);stroke-opacity:1;stroke-miterlimit:10;" d="M 269.214844 308 C 269.214844 319.714844 259.714844 329.214844 248 329.214844 C 236.285156 329.214844 226.785156 319.714844 226.785156 308 C 226.785156 296.285156 236.285156 286.785156 248 286.785156 C 259.714844 286.785156 269.214844 296.285156 269.214844 308 "/>
<path style="fill-rule:nonzero;fill:rgb(35%,70%,90%);fill-opacity:1;stroke-width:1;stroke-linecap:butt;stroke-linejoin:miter;stroke:rgb(0%,0%,0%);stroke-opacity:1;stroke-miterlimit:10;" d="M 225.214844 414 C 225.214844 425.714844 215.714844 435.214844 204 435.214844 C 192.285156 435.214844 182.785156 425.714844 182.785156 414 C 182.785156 402.285156 192.285156 392.785156 204 392.785156 C 215.714844 392.785156 225.214844 402.285156 225.214844 414 "/>
<path style="fill-rule:nonzero;fill:rgb(53%,27%,7%);fill-opacity:1;stroke-width:1;stroke-linecap:butt;stroke-linejoin:miter;stroke:rgb(0%,0%,0%);stroke-opacity:1;stroke-miterlimit:10;" d="M 883 236 L 857.019531 281 L 908.980469 281 L 883 236 "/>
<path style="fill-rule:nonzero;fill:rgb(53%,27%,7%);fill-opacity:1;stroke-width:1;stroke-linecap:butt;stroke-linejoin:miter;stroke:rgb(0%,0%,0%);stroke-opacity:1;stroke-miterlimit:10;" d="M 818 302 L 792.019531 347 L 843.980469 347 L 818 302 "/>
<path style="fill-rule:nonzero;fill:rgb(53%,27%,7%);fill-opacity:1;stroke-width:1;stroke-linecap:butt;stroke-linejoin:miter;stroke:rgb(0%,0%,0%);stroke-opacity:1;stroke-miterlimit:10;" d="M 883 127 L 857.019531 172 L 908.980469 172 L 883 127 "/>
</g>
</svg>
