<?xml version="1.0" encoding="UTF-8"?>
<svg xmlns="http://www.w3.org/2000/svg" xmlns:xlink="http://www.w3.org/1999/xlink" width="1179pt" height="517pt" viewBox="0 0 1179 517" version="1.1">
<g id="surface1246">
<rect x="0" y="0" width="1179" height="517" style="fill:rgb(90%,90%,90%);fill-opacity:1;stroke:none;"/>
<path style="fill-rule:nonzero;fill:rgb(100%,51%,0%);fill-opacity:1;stroke-width:1;stroke-linecap:butt;stroke-linejoin:miter;stroke:rgb(0%,0%,0%);stroke-opacity:1;stroke-miterlimit:10;" d="M 1034 338 L 1008.019531 383 L 1059.980469 383 L 1034 338 "/>
<path style="fill-rule:nonzero;fill:rgb(100%,51%,0%);fill-opacity:1;stroke-width:1;stroke-linecap:butt;stroke-linejoin:miter;stroke:rgb(0%,0%,0%);stroke-opacity:1;stroke-miterlimit:10;" d="M 465 85 L 439.019531 130 L 490.980469 130 L 465 85 "/>
<path style="fill-rule:nonzero;fill:rgb(100%,51%,0%);fill-opacity:1;stroke-width:1;stroke-linecap:butt;stroke-linejoin:miter;stroke:rgb(0%,0%,0%);stroke-opacity:1;stroke-miterlimit:10;" d="M 998 93 L 972.019531 138 L 1023.980469 138 L 998 93 "/>
<path style="fill-rule:nonzero;fill:rgb(53%,27%,7%);fill-opacity:1;stroke-width:1;stroke-linecap:butt;stroke-linejoin:miter;stroke:rgb(0%,0%,0%);stroke-opacity:1;stroke-miterlimit:10;" d="M 708 86.601562 C 708 72.199219 684 72.199219 684 86.601562 C 684 101 708 103.398438 708 115.398438 C 708 103.398438 732 101 732 86.601562 C 732 72.199219 708 72.199219 708 86.601562 "/>
<path style="fill-rule:nonzero;fill:rgb(53%,27%,7%);fill-opacity:1;stroke-width:1;stroke-linecap:butt;stroke-linejoin:miter;stroke:rgb(0%,0%,0%);stroke-opacity:1;stroke-miterlimit:10;" d="M 250 79.601562 C 250 65.199219 226 65.199219 226 79.601562 C 226 94 250 96.398438 250 108.398438 C 250 96.398438 274 94 274 79.601562 C 274 65.199219 250 65.199219 250 79.601562 "/>
<path style="fill-rule:nonzero;fill:rgb(53%,27%,7%);fill-opacity:1;stroke-width:1;stroke-linecap:butt;stroke-linejoin:miter;stroke:rgb(0%,0%,0%);stroke-opacity:1;stroke-miterlimit:10;" d="M 881 78.601562 C 881 64.199219 857 64.199219 857 78.601562 C 857 93 881 95.398438 881 107.398438 C 881 95.398438 905 93 905 78.601562 C 905 64.199219 881 64.199219 881 78.601562 "/>
<path style="fill-rule:nonzero;fill:rgb(53%,27%,7%);fill-opacity:1;stroke-width:1;stroke-linecap:butt;stroke-linejoin:miter;stroke:rgb(0%,0%,0%);stroke-opacity:1;stroke-miterlimit:10;" d="M 308 279.601562 C 308 265.199219 284 265.199219 284 279.601562 C 284 294 308 296.398438 308 308.398438 C 308 296.398438 332 294 332 279.601562 C 332 265.199219 308 265.199219 308 279.601562 "/>
<path style="fill-rule:nonzero;fill:rgb(53%,27%,7%);fill-opacity:1;stroke-width:1;stroke-linecap:butt;stroke-linejoin:miter;stroke:rgb(0%,0%,0%);stroke-opacity:1;stroke-miterlimit:10;" d="M 880 272.601562 C 880 258.199219 856 258.199219 856 272.601562 C 856 287 880 289.398438 880 301.398438 C 880 289.398438 904 287 904 272.601562 C 904 258.199219 880 258.199219 880 272.601562 "/>
</g>
</svg>
