<?xml version="1.0" encoding="UTF-8"?>
<svg xmlns="http://www.w3.org/2000/svg" xmlns:xlink="http://www.w3.org/1999/xlink" width="1179pt" height="517pt" viewBox="0 0 1179 517" version="1.1">
<g id="surface826">
<rect x="0" y="0" width="1179" height="517" style="fill:rgb(90%,90%,90%);fill-opacity:1;stroke:none;"/>
<path style="fill-rule:nonzero;fill:rgb(53%,27%,7%);fill-opacity:1;stroke-width:1;stroke-linecap:butt;stroke-linejoin:miter;stroke:rgb(0%,0%,0%);stroke-opacity:1;stroke-miterlimit:10;" d="M 928 138 L 957.664062 138 L 969.664062 109.785156 L 981.664062 138 L 1011.332031 138 L 987.332031 155.4375 L 995.417969 186.980469 L 969.664062 169.542969 L 943.914062 186.980469 L 956.214844 155.4375 L 928 138 "/>
<path style="fill-rule:nonzero;fill:rgb(53%,27%,7%);fill-opacity:1;stroke-width:1;stroke-linecap:butt;stroke-linejoin:miter;stroke:rgb(0%,0%,0%);stroke-opacity:1;stroke-miterlimit:10;" d="M 272 173 L 301.664062 173 L 313.664062 144.785156 L 325.664062 173 L 355.332031 173 L 331.332031 190.4375 L 339.417969 221.980469 L 313.664062 204.542969 L 287.914062 221.980469 L 300.214844 190.4375 L 272 173 "/>
<path style="fill-rule:nonzero;fill:rgb(53%,27%,7%);fill-opacity:1;stroke-width:1;stroke-linecap:butt;stroke-linejoin:miter;stroke:rgb(0%,0%,0%);stroke-opacity:1;stroke-miterlimit:10;" d="M 678 260 L 707.664062 260 L 719.664062 231.785156 L 731.664062 260 L 761.332031 260 L 737.332031 277.4375 L 745.417969 308.980469 L 719.664062 291.542969 L 693.914062 308.980469 L 706.214844 277.4375 L 678 260 "/>
<path style="fill-rule:nonzero;fill:rgb(53%,27%,7%);fill-opacity:1;stroke-width:1;stroke-linecap:butt;stroke-linejoin:miter;stroke:rgb(0%,0%,0%);stroke-opacity:1;stroke-miterlimit:10;" d="M 319 393 L 348.664062 393 L 360.664062 364.785156 L 372.664062 393 L 402.332031 393 L 378.332031 410.4375 L 386.417969 441.980469 L 360.664062 424.542969 L 334.914062 441.980469 L 347.214844 410.4375 L 319 393 "/>
<path style="fill-rule:nonzero;fill:rgb(53%,27%,7%);fill-opacity:1;stroke-width:1;stroke-linecap:butt;stroke-linejoin:miter;stroke:rgb(0%,0%,0%);stroke-opacity:1;stroke-miterlimit:10;" d="M 750 124 L 779.664062 124 L 791.664062 95.785156 L 803.664062 124 L 833.332031 124 L 809.332031 141.4375 L 817.417969 172.980469 L 791.664062 155.542969 L 765.914062 172.980469 L 778.214844 141.4375 L 750 124 "/>
<path style="fill-rule:nonzero;fill:rgb(55%,51%,53%);fill-opacity:1;stroke-width:1;stroke-linecap:butt;stroke-linejoin:miter;stroke:rgb(0%,0%,0%);stroke-opacity:1;stroke-miterlimit:10;" d="M 784 404 L 813.664062 404 L 825.664062 375.785156 L 837.664062 404 L 867.332031 404 L 843.332031 421.4375 L 851.417969 452.980469 L 825.664062 435.542969 L 799.914062 452.980469 L 812.214844 421.4375 L 784 404 "/>
<path style="fill-rule:nonzero;fill:rgb(55%,51%,53%);fill-opacity:1;stroke-width:1;stroke-linecap:butt;stroke-linejoin:miter;stroke:rgb(0%,0%,0%);stroke-opacity:1;stroke-miterlimit:10;" d="M 92 114 L 121.664062 114 L 133.664062 85.785156 L 145.664062 114 L 175.332031 114 L 151.332031 131.4375 L 159.417969 162.980469 L 133.664062 145.542969 L 107.914062 162.980469 L 120.214844 131.4375 L 92 114 "/>
<path style="fill-rule:nonzero;fill:rgb(55%,51%,53%);fill-opacity:1;stroke-width:1;stroke-linecap:butt;stroke-linejoin:miter;stroke:rgb(0%,0%,0%);stroke-opacity:1;stroke-miterlimit:10;" d="M 423 177 L 452.664062 177 L 464.664062 148.785156 L 476.664062 177 L 506.332031 177 L 482.332031 194.4375 L 490.417969 225.980469 L 464.664062 208.542969 L 438.914062 225.980469 L 451.214844 194.4375 L 423 177 "/>
</g>
</svg>
