<?xml version="1.0" encoding="UTF-8"?>
<svg xmlns="http://www.w3.org/2000/svg" xmlns:xlink="http://www.w3.org/1999/xlink" width="1179pt" height="517pt" viewBox="0 0 1179 517" version="1.1">
<g id="surface1121">
<rect x="0" y="0" width="1179" height="517" style="fill:rgb(90%,90%,90%);fill-opacity:1;stroke:none;"/>
<path style="fill-rule:nonzero;fill:rgb(53%,27%,7%);fill-opacity:1;stroke-width:1;stroke-linecap:butt;stroke-linejoin:miter;stroke:rgb(0%,0%,0%);stroke-opacity:1;stroke-miterlimit:10;" d="M 131 186 L 105.019531 231 L 156.980469 231 L 131 186 "/>
<path style="fill-rule:nonzero;fill:rgb(53%,27%,7%);fill-opacity:1;stroke-width:1;stroke-linecap:butt;stroke-linejoin:miter;stroke:rgb(0%,0%,0%);stroke-opacity:1;stroke-miterlimit:10;" d="M 244 81 L 218.019531 126 L 269.980469 126 L 244 81 "/>
<path style="fill-rule:nonzero;fill:rgb(53%,27%,7%);fill-opacity:1;stroke-width:1;stroke-linecap:butt;stroke-linejoin:miter;stroke:rgb(0%,0%,0%);stroke-opacity:1;stroke-miterlimit:10;" d="M 902 310 L 876.019531 355 L 927.980469 355 L 902 310 "/>
<path style="fill-rule:nonzero;fill:rgb(53%,27%,7%);fill-opacity:1;stroke-width:1;stroke-linecap:butt;stroke-linejoin:miter;stroke:rgb(0%,0%,0%);stroke-opacity:1;stroke-miterlimit:10;" d="M 415 57 L 389.019531 102 L 440.980469 102 L 415 57 "/>
<path style="fill-rule:nonzero;fill:rgb(35%,70%,90%);fill-opacity:1;stroke-width:1;stroke-linecap:butt;stroke-linejoin:miter;stroke:rgb(0%,0%,0%);stroke-opacity:1;stroke-miterlimit:10;" d="M 351 332 L 380.664062 332 L 392.664062 303.785156 L 404.664062 332 L 434.332031 332 L 410.332031 349.4375 L 418.417969 380.980469 L 392.664062 363.542969 L 366.914062 380.980469 L 379.214844 349.4375 L 351 332 "/>
<path style="fill-rule:nonzero;fill:rgb(35%,70%,90%);fill-opacity:1;stroke-width:1;stroke-linecap:butt;stroke-linejoin:miter;stroke:rgb(0%,0%,0%);stroke-opacity:1;stroke-miterlimit:10;" d="M 130 411 L 159.664062 411 L 171.664062 382.785156 L 183.664062 411 L 213.332031 411 L 189.332031 428.4375 L 197.417969 459.980469 L 171.664062 442.542969 L 145.914062 459.980469 L 158.214844 428.4375 L 130 411 "/>
<path style="fill-rule:nonzero;fill:rgb(35%,70%,90%);fill-opacity:1;stroke-width:1;stroke-linecap:butt;stroke-linejoin:miter;stroke:rgb(0%,0%,0%);stroke-opacity:1;stroke-miterlimit:10;" d="M 507 230 L 536.664062 230 L 548.664062 201.785156 L 560.664062 230 L 590.332031 230 L 566.332031 247.4375 L 574.417969 278.980469 L 548.664062 261.542969 L 522.914062 278.980469 L 535.214844 247.4375 L 507 230 "/>
<path style="fill-rule:nonzero;fill:rgb(35%,70%,90%);fill-opacity:1;stroke-width:1;stroke-linecap:butt;stroke-linejoin:miter;stroke:rgb(0%,0%,0%);stroke-opacity:1;stroke-miterlimit:10;" d="M 644 122 L 673.664062 122 L 685.664062 93.785156 L 697.664062 122 L 727.332031 122 L 703.332031 139.4375 L 711.417969 170.980469 L 685.664062 153.542969 L 659.914062 170.980469 L 672.214844 139.4375 L 644 122 "/>
<path style="fill-rule:nonzero;fill:rgb(35%,70%,90%);fill-opacity:1;stroke-width:1;stroke-linecap:butt;stroke-linejoin:miter;stroke:rgb(0%,0%,0%);stroke-opacity:1;stroke-miterlimit:10;" d="M 642 400 L 671.664062 400 L 683.664062 371.785156 L 695.664062 400 L 725.332031 400 L 701.332031 417.4375 L 709.417969 448.980469 L 683.664062 431.542969 L 657.914062 448.980469 L 670.214844 417.4375 L 642 400 "/>
</g>
</svg>
