<?xml version="1.0" encoding="UTF-8"?>
<svg xmlns="http://www.w3.org/2000/svg" xmlns:xlink="http://www.w3.org/1999/xlink" width="1179pt" height="517pt" viewBox="0 0 1179 517" version="1.1">
<g id="surface1331">
<rect x="0" y="0" width="1179" height="517" style="fill:rgb(90%,90%,90%);fill-opacity:1;stroke:none;"/>
<path style="fill-rule:nonzero;fill:rgb(55%,51%,53%);fill-opacity:1;stroke-width:1;stroke-linecap:butt;stroke-linejoin:miter;stroke:rgb(0%,0%,0%);stroke-opacity:1;stroke-miterlimit:10;" d="M 332.214844 328 C 332.214844 339.714844 322.714844 349.214844 311 349.214844 C 299.285156 349.214844 289.785156 339.714844 289.785156 328 C 289.785156 316.285156 299.285156 306.785156 311 306.785156 C 322.714844 306.785156 332.214844 316.285156 332.214844 328 "/>
<path style="fill-rule:nonzero;fill:rgb(55%,51%,53%);fill-opacity:1;stroke-width:1;stroke-linecap:butt;stroke-linejoin:miter;stroke:rgb(0%,0%,0%);stroke-opacity:1;stroke-miterlimit:10;" d="M 614.214844 247 C 614.214844 258.714844 604.714844 268.214844 593 268.214844 C 581.285156 268.214844 571.785156 258.714844 571.785156 247 C 571.785156 235.285156 581.285156 225.785156 593 225.785156 C 604.714844 225.785156 614.214844 235.285156 614.214844 247 "/>
<path style="fill-rule:nonzero;fill:rgb(55%,51%,53%);fill-opacity:1;stroke-width:1;stroke-linecap:butt;stroke-linejoin:miter;stroke:rgb(0%,0%,0%);stroke-opacity:1;stroke-miterlimit:10;" d="M 515.214844 175 C 515.214844 186.714844 505.714844 196.214844 494 196.214844 C 482.285156 196.214844 472.785156 186.714844 472.785156 175 C 472.785156 163.285156 482.285156 153.785156 494 153.785156 C 505.714844 153.785156 515.214844 163.285156 515.214844 175 "/>
<path style="fill-rule:nonzero;fill:rgb(55%,51%,53%);fill-opacity:1;stroke-width:1;stroke-linecap:butt;stroke-linejoin:miter;stroke:rgb(0%,0%,0%);stroke-opacity:1;stroke-miterlimit:10;" d="M 813.214844 224 C 813.214844 235.714844 803.714844 245.214844 792 245.214844 C 780.285156 245.214844 770.785156 235.714844 770.785156 224 C 770.785156 212.285156 780.285156 202.785156 792 202.785156 C 803.714844 202.785156 813.214844 212.285156 813.214844 224 "/>
<path style="fill-rule:nonzero;fill:rgb(35%,70%,90%);fill-opacity:1;stroke-width:1;stroke-linecap:butt;stroke-linejoin:miter;stroke:rgb(0%,0%,0%);stroke-opacity:1;stroke-miterlimit:10;" d="M 112 289 L 86.019531 334 L 137.980469 334 L 112 289 "/>
<path style="fill-rule:nonzero;fill:rgb(35%,70%,90%);fill-opacity:1;stroke-width:1;stroke-linecap:butt;stroke-linejoin:miter;stroke:rgb(0%,0%,0%);stroke-opacity:1;stroke-miterlimit:10;" d="M 644 397 L 618.019531 442 L 669.980469 442 L 644 397 "/>
<path style="fill-rule:nonzero;fill:rgb(35%,70%,90%);fill-opacity:1;stroke-width:1;stroke-linecap:butt;stroke-linejoin:miter;stroke:rgb(0%,0%,0%);stroke-opacity:1;stroke-miterlimit:10;" d="M 125 133 L 99.019531 178 L 150.980469 178 L 125 133 "/>
</g>
</svg>
