<?xml version="1.0" encoding="UTF-8"?>
<svg xmlns="http://www.w3.org/2000/svg" xmlns:xlink="http://www.w3.org/1999/xlink" width="1179pt" height="517pt" viewBox="0 0 1179 517" version="1.1">
<g id="surface311">
<rect x="0" y="0" width="1179" height="517" style="fill:rgb(90%,90%,90%);fill-opacity:1;stroke:none;"/>
<path style="fill-rule:nonzero;fill:rgb(100%,51%,0%);fill-opacity:1;stroke-width:1;stroke-linecap:butt;stroke-linejoin:miter;stroke:rgb(0%,0%,0%);stroke-opacity:1;stroke-miterlimit:10;" d="M 232 158 L 261.664062 158 L 273.664062 129.785156 L 285.664062 158 L 315.332031 158 L 291.332031 175.4375 L 299.417969 206.980469 L 273.664062 189.542969 L 247.914062 206.980469 L 260.214844 175.4375 L 232 158 "/>
<path style="fill-rule:nonzero;fill:rgb(55%,51%,53%);fill-opacity:1;stroke-width:1;stroke-linecap:butt;stroke-linejoin:miter;stroke:rgb(0%,0%,0%);stroke-opacity:1;stroke-miterlimit:10;" d="M 344 219 L 373.664062 219 L 385.664062 190.785156 L 397.664062 219 L 427.332031 219 L 403.332031 236.4375 L 411.417969 267.980469 L 385.664062 250.542969 L 359.914062 267.980469 L 372.214844 236.4375 L 344 219 "/>
<path style="fill-rule:nonzero;fill:rgb(100%,51%,0%);fill-opacity:1;stroke-width:1;stroke-linecap:butt;stroke-linejoin:miter;stroke:rgb(0%,0%,0%);stroke-opacity:1;stroke-miterlimit:10;" d="M 340 320 L 369.664062 320 L 381.664062 291.785156 L 393.664062 320 L 423.332031 320 L 399.332031 337.4375 L 407.417969 368.980469 L 381.664062 351.542969 L 355.914062 368.980469 L 368.214844 337.4375 L 340 320 "/>
<path style="fill-rule:nonzero;fill:rgb(55%,51%,53%);fill-opacity:1;stroke-width:1;stroke-linecap:butt;stroke-linejoin:miter;stroke:rgb(0%,0%,0%);stroke-opacity:1;stroke-miterlimit:10;" d="M 430 249 L 459.664062 249 L 471.664062 220.785156 L 483.664062 249 L 513.332031 249 L 489.332031 266.4375 L 497.417969 297.980469 L 471.664062 280.542969 L 445.914062 297.980469 L 458.214844 266.4375 L 430 249 "/>
<path style="fill-rule:nonzero;fill:rgb(55%,51%,53%);fill-opacity:1;stroke-width:1;stroke-linecap:butt;stroke-linejoin:miter;stroke:rgb(0%,0%,0%);stroke-opacity:1;stroke-miterlimit:10;" d="M 889.785156 269.785156 L 889.785156 312.214844 L 932.214844 312.214844 L 932.214844 269.785156 L 889.785156 269.785156 "/>
<path style="fill-rule:nonzero;fill:rgb(100%,51%,0%);fill-opacity:1;stroke-width:1;stroke-linecap:butt;stroke-linejoin:miter;stroke:rgb(0%,0%,0%);stroke-opacity:1;stroke-miterlimit:10;" d="M 880.785156 178.785156 L 880.785156 221.214844 L 923.214844 221.214844 L 923.214844 178.785156 L 880.785156 178.785156 "/>
<path style="fill-rule:nonzero;fill:rgb(55%,51%,53%);fill-opacity:1;stroke-width:1;stroke-linecap:butt;stroke-linejoin:miter;stroke:rgb(0%,0%,0%);stroke-opacity:1;stroke-miterlimit:10;" d="M 672.785156 265.785156 L 672.785156 308.214844 L 715.214844 308.214844 L 715.214844 265.785156 L 672.785156 265.785156 "/>
<path style="fill-rule:nonzero;fill:rgb(100%,51%,0%);fill-opacity:1;stroke-width:1;stroke-linecap:butt;stroke-linejoin:miter;stroke:rgb(0%,0%,0%);stroke-opacity:1;stroke-miterlimit:10;" d="M 769.785156 256.785156 L 769.785156 299.214844 L 812.214844 299.214844 L 812.214844 256.785156 L 769.785156 256.785156 "/>
</g>
</svg>
