<?xml version="1.0" encoding="UTF-8"?>
<svg xmlns="http://www.w3.org/2000/svg" xmlns:xlink="http://www.w3.org/1999/xlink" width="1179pt" height="517pt" viewBox="0 0 1179 517" version="1.1">
<g id="surface301">
<rect x="0" y="0" width="1179" height="517" style="fill:rgb(90%,90%,90%);fill-opacity:1;stroke:none;"/>
<path style="fill-rule:nonzero;fill:rgb(100%,51%,0%);fill-opacity:1;stroke-width:1;stroke-linecap:butt;stroke-linejoin:miter;stroke:rgb(0%,0%,0%);stroke-opacity:1;stroke-miterlimit:10;" d="M 81 228 L 110.664062 228 L 122.664062 199.785156 L 134.664062 228 L 164.332031 228 L 140.332031 245.4375 L 148.417969 276.980469 L 122.664062 259.542969 L 96.914062 276.980469 L 109.214844 245.4375 L 81 228 "/>
<path style="fill-rule:nonzero;fill:rgb(100%,51%,0%);fill-opacity:1;stroke-width:1;stroke-linecap:butt;stroke-linejoin:miter;stroke:rgb(0%,0%,0%);stroke-opacity:1;stroke-miterlimit:10;" d="M 801 267 L 830.664062 267 L 842.664062 238.785156 L 854.664062 267 L 884.332031 267 L 860.332031 284.4375 L 868.417969 315.980469 L 842.664062 298.542969 L 816.914062 315.980469 L 829.214844 284.4375 L 801 267 "/>
<path style="fill-rule:nonzero;fill:rgb(100%,51%,0%);fill-opacity:1;stroke-width:1;stroke-linecap:butt;stroke-linejoin:miter;stroke:rgb(0%,0%,0%);stroke-opacity:1;stroke-miterlimit:10;" d="M 182 364 L 211.664062 364 L 223.664062 335.785156 L 235.664062 364 L 265.332031 364 L 241.332031 381.4375 L 249.417969 412.980469 L 223.664062 395.542969 L 197.914062 412.980469 L 210.214844 381.4375 L 182 364 "/>
<path style="fill-rule:nonzero;fill:rgb(100%,51%,0%);fill-opacity:1;stroke-width:1;stroke-linecap:butt;stroke-linejoin:miter;stroke:rgb(0%,0%,0%);stroke-opacity:1;stroke-miterlimit:10;" d="M 934 283 L 963.664062 283 L 975.664062 254.785156 L 987.664062 283 L 1017.332031 283 L 993.332031 300.4375 L 1001.417969 331.980469 L 975.664062 314.542969 L 949.914062 331.980469 L 962.214844 300.4375 L 934 283 "/>
<path style="fill-rule:nonzero;fill:rgb(100%,51%,0%);fill-opacity:1;stroke-width:1;stroke-linecap:butt;stroke-linejoin:miter;stroke:rgb(0%,0%,0%);stroke-opacity:1;stroke-miterlimit:10;" d="M 870 135 L 899.664062 135 L 911.664062 106.785156 L 923.664062 135 L 953.332031 135 L 929.332031 152.4375 L 937.417969 183.980469 L 911.664062 166.542969 L 885.914062 183.980469 L 898.214844 152.4375 L 870 135 "/>
<path style="fill-rule:nonzero;fill:rgb(55%,51%,53%);fill-opacity:1;stroke-width:1;stroke-linecap:butt;stroke-linejoin:miter;stroke:rgb(0%,0%,0%);stroke-opacity:1;stroke-miterlimit:10;" d="M 541.214844 354 C 541.214844 365.714844 531.714844 375.214844 520 375.214844 C 508.285156 375.214844 498.785156 365.714844 498.785156 354 C 498.785156 342.285156 508.285156 332.785156 520 332.785156 C 531.714844 332.785156 541.214844 342.285156 541.214844 354 "/>
<path style="fill-rule:nonzero;fill:rgb(55%,51%,53%);fill-opacity:1;stroke-width:1;stroke-linecap:butt;stroke-linejoin:miter;stroke:rgb(0%,0%,0%);stroke-opacity:1;stroke-miterlimit:10;" d="M 185.214844 121 C 185.214844 132.714844 175.714844 142.214844 164 142.214844 C 152.285156 142.214844 142.785156 132.714844 142.785156 121 C 142.785156 109.285156 152.285156 99.785156 164 99.785156 C 175.714844 99.785156 185.214844 109.285156 185.214844 121 "/>
<path style="fill-rule:nonzero;fill:rgb(55%,51%,53%);fill-opacity:1;stroke-width:1;stroke-linecap:butt;stroke-linejoin:miter;stroke:rgb(0%,0%,0%);stroke-opacity:1;stroke-miterlimit:10;" d="M 344.214844 189 C 344.214844 200.714844 334.714844 210.214844 323 210.214844 C 311.285156 210.214844 301.785156 200.714844 301.785156 189 C 301.785156 177.285156 311.285156 167.785156 323 167.785156 C 334.714844 167.785156 344.214844 177.285156 344.214844 189 "/>
<path style="fill-rule:nonzero;fill:rgb(55%,51%,53%);fill-opacity:1;stroke-width:1;stroke-linecap:butt;stroke-linejoin:miter;stroke:rgb(0%,0%,0%);stroke-opacity:1;stroke-miterlimit:10;" d="M 732.214844 111 C 732.214844 122.714844 722.714844 132.214844 711 132.214844 C 699.285156 132.214844 689.785156 122.714844 689.785156 111 C 689.785156 99.285156 699.285156 89.785156 711 89.785156 C 722.714844 89.785156 732.214844 99.285156 732.214844 111 "/>
</g>
</svg>
