<?xml version="1.0" encoding="UTF-8"?>
<svg xmlns="http://www.w3.org/2000/svg" xmlns:xlink="http://www.w3.org/1999/xlink" width="1179pt" height="517pt" viewBox="0 0 1179 517" version="1.1">
<g id="surface1336">
<rect x="0" y="0" width="1179" height="517" style="fill:rgb(90%,90%,90%);fill-opacity:1;stroke:none;"/>
<path style="fill-rule:nonzero;fill:rgb(100%,51%,0%);fill-opacity:1;stroke-width:1;stroke-linecap:butt;stroke-linejoin:miter;stroke:rgb(0%,0%,0%);stroke-opacity:1;stroke-miterlimit:10;" d="M 1005 299 L 979.019531 344 L 1030.980469 344 L 1005 299 "/>
<path style="fill-rule:nonzero;fill:rgb(100%,51%,0%);fill-opacity:1;stroke-width:1;stroke-linecap:butt;stroke-linejoin:miter;stroke:rgb(0%,0%,0%);stroke-opacity:1;stroke-miterlimit:10;" d="M 1042 66 L 1016.019531 111 L 1067.980469 111 L 1042 66 "/>
<path style="fill-rule:nonzero;fill:rgb(100%,51%,0%);fill-opacity:1;stroke-width:1;stroke-linecap:butt;stroke-linejoin:miter;stroke:rgb(0%,0%,0%);stroke-opacity:1;stroke-miterlimit:10;" d="M 635 397 L 609.019531 442 L 660.980469 442 L 635 397 "/>
<path style="fill-rule:nonzero;fill:rgb(53%,27%,7%);fill-opacity:1;stroke-width:1;stroke-linecap:butt;stroke-linejoin:miter;stroke:rgb(0%,0%,0%);stroke-opacity:1;stroke-miterlimit:10;" d="M 314 99.601562 C 314 85.199219 290 85.199219 290 99.601562 C 290 114 314 116.398438 314 128.398438 C 314 116.398438 338 114 338 99.601562 C 338 85.199219 314 85.199219 314 99.601562 "/>
<path style="fill-rule:nonzero;fill:rgb(53%,27%,7%);fill-opacity:1;stroke-width:1;stroke-linecap:butt;stroke-linejoin:miter;stroke:rgb(0%,0%,0%);stroke-opacity:1;stroke-miterlimit:10;" d="M 194 192.601562 C 194 178.199219 170 178.199219 170 192.601562 C 170 207 194 209.398438 194 221.398438 C 194 209.398438 218 207 218 192.601562 C 218 178.199219 194 178.199219 194 192.601562 "/>
<path style="fill-rule:nonzero;fill:rgb(53%,27%,7%);fill-opacity:1;stroke-width:1;stroke-linecap:butt;stroke-linejoin:miter;stroke:rgb(0%,0%,0%);stroke-opacity:1;stroke-miterlimit:10;" d="M 385 358.601562 C 385 344.199219 361 344.199219 361 358.601562 C 361 373 385 375.398438 385 387.398438 C 385 375.398438 409 373 409 358.601562 C 409 344.199219 385 344.199219 385 358.601562 "/>
<path style="fill-rule:nonzero;fill:rgb(53%,27%,7%);fill-opacity:1;stroke-width:1;stroke-linecap:butt;stroke-linejoin:miter;stroke:rgb(0%,0%,0%);stroke-opacity:1;stroke-miterlimit:10;" d="M 471 154.601562 C 471 140.199219 447 140.199219 447 154.601562 C 447 169 471 171.398438 471 183.398438 C 471 171.398438 495 169 495 154.601562 C 495 140.199219 471 140.199219 471 154.601562 "/>
<path style="fill-rule:nonzero;fill:rgb(53%,27%,7%);fill-opacity:1;stroke-width:1;stroke-linecap:butt;stroke-linejoin:miter;stroke:rgb(0%,0%,0%);stroke-opacity:1;stroke-miterlimit:10;" d="M 88 407.601562 C 88 393.199219 64 393.199219 64 407.601562 C 64 422 88 424.398438 88 436.398438 C 88 424.398438 112 422 112 407.601562 C 112 393.199219 88 393.199219 88 407.601562 "/>
</g>
</svg>
