<?xml version="1.0" encoding="UTF-8"?>
<svg xmlns="http://www.w3.org/2000/svg" xmlns:xlink="http://www.w3.org/1999/xlink" width="1179pt" height="517pt" viewBox="0 0 1179 517" version="1.1">
<g id="surface616">
<rect x="0" y="0" width="1179" height="517" style="fill:rgb(90%,90%,90%);fill-opacity:1;stroke:none;"/>
<path style="fill-rule:nonzero;fill:rgb(35%,70%,90%);fill-opacity:1;stroke-width:1;stroke-linecap:butt;stroke-linejoin:miter;stroke:rgb(0%,0%,0%);stroke-opacity:1;stroke-miterlimit:10;" d="M 141.214844 146 C 141.214844 157.714844 131.714844 167.214844 120 167.214844 C 108.285156 167.214844 98.785156 157.714844 98.785156 146 C 98.785156 134.285156 108.285156 124.785156 120 124.785156 C 131.714844 124.785156 141.214844 134.285156 141.214844 146 "/>
<path style="fill-rule:nonzero;fill:rgb(35%,70%,90%);fill-opacity:1;stroke-width:1;stroke-linecap:butt;stroke-linejoin:miter;stroke:rgb(0%,0%,0%);stroke-opacity:1;stroke-miterlimit:10;" d="M 370.214844 392 C 370.214844 403.714844 360.714844 413.214844 349 413.214844 C 337.285156 413.214844 327.785156 403.714844 327.785156 392 C 327.785156 380.285156 337.285156 370.785156 349 370.785156 C 360.714844 370.785156 370.214844 380.285156 370.214844 392 "/>
<path style="fill-rule:nonzero;fill:rgb(55%,51%,53%);fill-opacity:1;stroke-width:1;stroke-linecap:butt;stroke-linejoin:miter;stroke:rgb(0%,0%,0%);stroke-opacity:1;stroke-miterlimit:10;" d="M 123.214844 395 C 123.214844 406.714844 113.714844 416.214844 102 416.214844 C 90.285156 416.214844 80.785156 406.714844 80.785156 395 C 80.785156 383.285156 90.285156 373.785156 102 373.785156 C 113.714844 373.785156 123.214844 383.285156 123.214844 395 "/>
<path style="fill-rule:nonzero;fill:rgb(55%,51%,53%);fill-opacity:1;stroke-width:1;stroke-linecap:butt;stroke-linejoin:miter;stroke:rgb(0%,0%,0%);stroke-opacity:1;stroke-miterlimit:10;" d="M 951 267 L 925.019531 312 L 976.980469 312 L 951 267 "/>
<path style="fill-rule:nonzero;fill:rgb(55%,51%,53%);fill-opacity:1;stroke-width:1;stroke-linecap:butt;stroke-linejoin:miter;stroke:rgb(0%,0%,0%);stroke-opacity:1;stroke-miterlimit:10;" d="M 804 140 L 778.019531 185 L 829.980469 185 L 804 140 "/>
<path style="fill-rule:nonzero;fill:rgb(35%,70%,90%);fill-opacity:1;stroke-width:1;stroke-linecap:butt;stroke-linejoin:miter;stroke:rgb(0%,0%,0%);stroke-opacity:1;stroke-miterlimit:10;" d="M 990 373 L 964.019531 418 L 1015.980469 418 L 990 373 "/>
<path style="fill-rule:nonzero;fill:rgb(55%,51%,53%);fill-opacity:1;stroke-width:1;stroke-linecap:butt;stroke-linejoin:miter;stroke:rgb(0%,0%,0%);stroke-opacity:1;stroke-miterlimit:10;" d="M 741 354 L 715.019531 399 L 766.980469 399 L 741 354 "/>
</g>
</svg>
