<?xml version="1.0" encoding="UTF-8"?>
<svg xmlns="http://www.w3.org/2000/svg" xmlns:xlink="http://www.w3.org/1999/xlink" width="1179pt" height="517pt" viewBox="0 0 1179 517" version="1.1">
<g id="surface926">
<rect x="0" y="0" width="1179" height="517" style="fill:rgb(90%,90%,90%);fill-opacity:1;stroke:none;"/>
<path style="fill-rule:nonzero;fill:rgb(35%,70%,90%);fill-opacity:1;stroke-width:1;stroke-linecap:butt;stroke-linejoin:miter;stroke:rgb(0%,0%,0%);stroke-opacity:1;stroke-miterlimit:10;" d="M 390.214844 415 C 390.214844 426.714844 380.714844 436.214844 369 436.214844 C 357.285156 436.214844 347.785156 426.714844 347.785156 415 C 347.785156 403.285156 357.285156 393.785156 369 393.785156 C 380.714844 393.785156 390.214844 403.285156 390.214844 415 "/>
<path style="fill-rule:nonzero;fill:rgb(35%,70%,90%);fill-opacity:1;stroke-width:1;stroke-linecap:butt;stroke-linejoin:miter;stroke:rgb(0%,0%,0%);stroke-opacity:1;stroke-miterlimit:10;" d="M 129.214844 429 C 129.214844 440.714844 119.714844 450.214844 108 450.214844 C 96.285156 450.214844 86.785156 440.714844 86.785156 429 C 86.785156 417.285156 96.285156 407.785156 108 407.785156 C 119.714844 407.785156 129.214844 417.285156 129.214844 429 "/>
<path style="fill-rule:nonzero;fill:rgb(35%,70%,90%);fill-opacity:1;stroke-width:1;stroke-linecap:butt;stroke-linejoin:miter;stroke:rgb(0%,0%,0%);stroke-opacity:1;stroke-miterlimit:10;" d="M 693.214844 84 C 693.214844 95.714844 683.714844 105.214844 672 105.214844 C 660.285156 105.214844 650.785156 95.714844 650.785156 84 C 650.785156 72.285156 660.285156 62.785156 672 62.785156 C 683.714844 62.785156 693.214844 72.285156 693.214844 84 "/>
<path style="fill-rule:nonzero;fill:rgb(67%,100%,18%);fill-opacity:1;stroke-width:1;stroke-linecap:butt;stroke-linejoin:miter;stroke:rgb(0%,0%,0%);stroke-opacity:1;stroke-miterlimit:10;" d="M 492 276 L 521.664062 276 L 533.664062 247.785156 L 545.664062 276 L 575.332031 276 L 551.332031 293.4375 L 559.417969 324.980469 L 533.664062 307.542969 L 507.914062 324.980469 L 520.214844 293.4375 L 492 276 "/>
<path style="fill-rule:nonzero;fill:rgb(67%,100%,18%);fill-opacity:1;stroke-width:1;stroke-linecap:butt;stroke-linejoin:miter;stroke:rgb(0%,0%,0%);stroke-opacity:1;stroke-miterlimit:10;" d="M 508 155 L 537.664062 155 L 549.664062 126.785156 L 561.664062 155 L 591.332031 155 L 567.332031 172.4375 L 575.417969 203.980469 L 549.664062 186.542969 L 523.914062 203.980469 L 536.214844 172.4375 L 508 155 "/>
<path style="fill-rule:nonzero;fill:rgb(67%,100%,18%);fill-opacity:1;stroke-width:1;stroke-linecap:butt;stroke-linejoin:miter;stroke:rgb(0%,0%,0%);stroke-opacity:1;stroke-miterlimit:10;" d="M 1019 243 L 1048.664062 243 L 1060.664062 214.785156 L 1072.664062 243 L 1102.332031 243 L 1078.332031 260.4375 L 1086.417969 291.980469 L 1060.664062 274.542969 L 1034.914062 291.980469 L 1047.214844 260.4375 L 1019 243 "/>
</g>
</svg>
