<?xml version="1.0" encoding="UTF-8"?>
<svg xmlns="http://www.w3.org/2000/svg" xmlns:xlink="http://www.w3.org/1999/xlink" width="1179pt" height="517pt" viewBox="0 0 1179 517" version="1.1">
<g id="surface861">
<rect x="0" y="0" width="1179" height="517" style="fill:rgb(90%,90%,90%);fill-opacity:1;stroke:none;"/>
<path style="fill-rule:nonzero;fill:rgb(55%,51%,53%);fill-opacity:1;stroke-width:1;stroke-linecap:butt;stroke-linejoin:miter;stroke:rgb(0%,0%,0%);stroke-opacity:1;stroke-miterlimit:10;" d="M 1005 334 L 979.019531 379 L 1030.980469 379 L 1005 334 "/>
<path style="fill-rule:nonzero;fill:rgb(55%,51%,53%);fill-opacity:1;stroke-width:1;stroke-linecap:butt;stroke-linejoin:miter;stroke:rgb(0%,0%,0%);stroke-opacity:1;stroke-miterlimit:10;" d="M 192 316 L 166.019531 361 L 217.980469 361 L 192 316 "/>
<path style="fill-rule:nonzero;fill:rgb(55%,51%,53%);fill-opacity:1;stroke-width:1;stroke-linecap:butt;stroke-linejoin:miter;stroke:rgb(0%,0%,0%);stroke-opacity:1;stroke-miterlimit:10;" d="M 897 76 L 871.019531 121 L 922.980469 121 L 897 76 "/>
<path style="fill-rule:nonzero;fill:rgb(100%,51%,0%);fill-opacity:1;stroke-width:1;stroke-linecap:butt;stroke-linejoin:miter;stroke:rgb(0%,0%,0%);stroke-opacity:1;stroke-miterlimit:10;" d="M 304 295 L 333.664062 295 L 345.664062 266.785156 L 357.664062 295 L 387.332031 295 L 363.332031 312.4375 L 371.417969 343.980469 L 345.664062 326.542969 L 319.914062 343.980469 L 332.214844 312.4375 L 304 295 "/>
<path style="fill-rule:nonzero;fill:rgb(100%,51%,0%);fill-opacity:1;stroke-width:1;stroke-linecap:butt;stroke-linejoin:miter;stroke:rgb(0%,0%,0%);stroke-opacity:1;stroke-miterlimit:10;" d="M 913 259 L 942.664062 259 L 954.664062 230.785156 L 966.664062 259 L 996.332031 259 L 972.332031 276.4375 L 980.417969 307.980469 L 954.664062 290.542969 L 928.914062 307.980469 L 941.214844 276.4375 L 913 259 "/>
<path style="fill-rule:nonzero;fill:rgb(100%,51%,0%);fill-opacity:1;stroke-width:1;stroke-linecap:butt;stroke-linejoin:miter;stroke:rgb(0%,0%,0%);stroke-opacity:1;stroke-miterlimit:10;" d="M 613 191 L 642.664062 191 L 654.664062 162.785156 L 666.664062 191 L 696.332031 191 L 672.332031 208.4375 L 680.417969 239.980469 L 654.664062 222.542969 L 628.914062 239.980469 L 641.214844 208.4375 L 613 191 "/>
</g>
</svg>
