<?xml version="1.0" encoding="UTF-8"?>
<svg xmlns="http://www.w3.org/2000/svg" xmlns:xlink="http://www.w3.org/1999/xlink" width="1179pt" height="517pt" viewBox="0 0 1179 517" version="1.1">
<g id="surface1146">
<rect x="0" y="0" width="1179" height="517" style="fill:rgb(90%,90%,90%);fill-opacity:1;stroke:none;"/>
<path style="fill-rule:nonzero;fill:rgb(35%,70%,90%);fill-opacity:1;stroke-width:1;stroke-linecap:butt;stroke-linejoin:miter;stroke:rgb(0%,0%,0%);stroke-opacity:1;stroke-miterlimit:10;" d="M 941 247 L 970.664062 247 L 982.664062 218.785156 L 994.664062 247 L 1024.332031 247 L 1000.332031 264.4375 L 1008.417969 295.980469 L 982.664062 278.542969 L 956.914062 295.980469 L 969.214844 264.4375 L 941 247 "/>
<path style="fill-rule:nonzero;fill:rgb(35%,70%,90%);fill-opacity:1;stroke-width:1;stroke-linecap:butt;stroke-linejoin:miter;stroke:rgb(0%,0%,0%);stroke-opacity:1;stroke-miterlimit:10;" d="M 702 315 L 731.664062 315 L 743.664062 286.785156 L 755.664062 315 L 785.332031 315 L 761.332031 332.4375 L 769.417969 363.980469 L 743.664062 346.542969 L 717.914062 363.980469 L 730.214844 332.4375 L 702 315 "/>
<path style="fill-rule:nonzero;fill:rgb(35%,70%,90%);fill-opacity:1;stroke-width:1;stroke-linecap:butt;stroke-linejoin:miter;stroke:rgb(0%,0%,0%);stroke-opacity:1;stroke-miterlimit:10;" d="M 604 99 L 633.664062 99 L 645.664062 70.785156 L 657.664062 99 L 687.332031 99 L 663.332031 116.4375 L 671.417969 147.980469 L 645.664062 130.542969 L 619.914062 147.980469 L 632.214844 116.4375 L 604 99 "/>
<path style="fill-rule:nonzero;fill:rgb(100%,51%,0%);fill-opacity:1;stroke-width:1;stroke-linecap:butt;stroke-linejoin:miter;stroke:rgb(0%,0%,0%);stroke-opacity:1;stroke-miterlimit:10;" d="M 488 280.601562 C 488 266.199219 464 266.199219 464 280.601562 C 464 295 488 297.398438 488 309.398438 C 488 297.398438 512 295 512 280.601562 C 512 266.199219 488 266.199219 488 280.601562 "/>
<path style="fill-rule:nonzero;fill:rgb(100%,51%,0%);fill-opacity:1;stroke-width:1;stroke-linecap:butt;stroke-linejoin:miter;stroke:rgb(0%,0%,0%);stroke-opacity:1;stroke-miterlimit:10;" d="M 738 90.601562 C 738 76.199219 714 76.199219 714 90.601562 C 714 105 738 107.398438 738 119.398438 C 738 107.398438 762 105 762 90.601562 C 762 76.199219 738 76.199219 738 90.601562 "/>
<path style="fill-rule:nonzero;fill:rgb(100%,51%,0%);fill-opacity:1;stroke-width:1;stroke-linecap:butt;stroke-linejoin:miter;stroke:rgb(0%,0%,0%);stroke-opacity:1;stroke-miterlimit:10;" d="M 250 265.601562 C 250 251.199219 226 251.199219 226 265.601562 C 226 280 250 282.398438 250 294.398438 C 250 282.398438 274 280 274 265.601562 C 274 251.199219 250 251.199219 250 265.601562 "/>
<path style="fill-rule:nonzero;fill:rgb(100%,51%,0%);fill-opacity:1;stroke-width:1;stroke-linecap:butt;stroke-linejoin:miter;stroke:rgb(0%,0%,0%);stroke-opacity:1;stroke-miterlimit:10;" d="M 295 405.601562 C 295 391.199219 271 391.199219 271 405.601562 C 271 420 295 422.398438 295 434.398438 C 295 422.398438 319 420 319 405.601562 C 319 391.199219 295 391.199219 295 405.601562 "/>
<path style="fill-rule:nonzero;fill:rgb(100%,51%,0%);fill-opacity:1;stroke-width:1;stroke-linecap:butt;stroke-linejoin:miter;stroke:rgb(0%,0%,0%);stroke-opacity:1;stroke-miterlimit:10;" d="M 348 125.601562 C 348 111.199219 324 111.199219 324 125.601562 C 324 140 348 142.398438 348 154.398438 C 348 142.398438 372 140 372 125.601562 C 372 111.199219 348 111.199219 348 125.601562 "/>
</g>
</svg>
