<?xml version="1.0" encoding="UTF-8"?>
<svg xmlns="http://www.w3.org/2000/svg" xmlns:xlink="http://www.w3.org/1999/xlink" width="1179pt" height="517pt" viewBox="0 0 1179 517" version="1.1">
<g id="surface551">
<rect x="0" y="0" width="1179" height="517" style="fill:rgb(90%,90%,90%);fill-opacity:1;stroke:none;"/>
<path style="fill-rule:nonzero;fill:rgb(35%,70%,90%);fill-opacity:1;stroke-width:1;stroke-linecap:butt;stroke-linejoin:miter;stroke:rgb(0%,0%,0%);stroke-opacity:1;stroke-miterlimit:10;" d="M 415 224 L 444.664062 224 L 456.664062 195.785156 L 468.664062 224 L 498.332031 224 L 474.332031 241.4375 L 482.417969 272.980469 L 456.664062 255.542969 L 430.914062 272.980469 L 443.214844 241.4375 L 415 224 "/>
<path style="fill-rule:nonzero;fill:rgb(100%,51%,0%);fill-opacity:1;stroke-width:1;stroke-linecap:butt;stroke-linejoin:miter;stroke:rgb(0%,0%,0%);stroke-opacity:1;stroke-miterlimit:10;" d="M 210 167 L 239.664062 167 L 251.664062 138.785156 L 263.664062 167 L 293.332031 167 L 269.332031 184.4375 L 277.417969 215.980469 L 251.664062 198.542969 L 225.914062 215.980469 L 238.214844 184.4375 L 210 167 "/>
<path style="fill-rule:nonzero;fill:rgb(100%,51%,0%);fill-opacity:1;stroke-width:1;stroke-linecap:butt;stroke-linejoin:miter;stroke:rgb(0%,0%,0%);stroke-opacity:1;stroke-miterlimit:10;" d="M 109 322 L 138.664062 322 L 150.664062 293.785156 L 162.664062 322 L 192.332031 322 L 168.332031 339.4375 L 176.417969 370.980469 L 150.664062 353.542969 L 124.914062 370.980469 L 137.214844 339.4375 L 109 322 "/>
<path style="fill-rule:nonzero;fill:rgb(35%,70%,90%);fill-opacity:1;stroke-width:1;stroke-linecap:butt;stroke-linejoin:miter;stroke:rgb(0%,0%,0%);stroke-opacity:1;stroke-miterlimit:10;" d="M 290 247 L 319.664062 247 L 331.664062 218.785156 L 343.664062 247 L 373.332031 247 L 349.332031 264.4375 L 357.417969 295.980469 L 331.664062 278.542969 L 305.914062 295.980469 L 318.214844 264.4375 L 290 247 "/>
<path style="fill-rule:nonzero;fill:rgb(100%,51%,0%);fill-opacity:1;stroke-width:1;stroke-linecap:butt;stroke-linejoin:miter;stroke:rgb(0%,0%,0%);stroke-opacity:1;stroke-miterlimit:10;" d="M 858.785156 159.785156 L 858.785156 202.214844 L 901.214844 202.214844 L 901.214844 159.785156 L 858.785156 159.785156 "/>
<path style="fill-rule:nonzero;fill:rgb(35%,70%,90%);fill-opacity:1;stroke-width:1;stroke-linecap:butt;stroke-linejoin:miter;stroke:rgb(0%,0%,0%);stroke-opacity:1;stroke-miterlimit:10;" d="M 995.785156 387.785156 L 995.785156 430.214844 L 1038.214844 430.214844 L 1038.214844 387.785156 L 995.785156 387.785156 "/>
<path style="fill-rule:nonzero;fill:rgb(35%,70%,90%);fill-opacity:1;stroke-width:1;stroke-linecap:butt;stroke-linejoin:miter;stroke:rgb(0%,0%,0%);stroke-opacity:1;stroke-miterlimit:10;" d="M 1000.785156 244.785156 L 1000.785156 287.214844 L 1043.214844 287.214844 L 1043.214844 244.785156 L 1000.785156 244.785156 "/>
<path style="fill-rule:nonzero;fill:rgb(100%,51%,0%);fill-opacity:1;stroke-width:1;stroke-linecap:butt;stroke-linejoin:miter;stroke:rgb(0%,0%,0%);stroke-opacity:1;stroke-miterlimit:10;" d="M 726.785156 155.785156 L 726.785156 198.214844 L 769.214844 198.214844 L 769.214844 155.785156 L 726.785156 155.785156 "/>
</g>
</svg>
