<?xml version="1.0" encoding="UTF-8"?>
<svg xmlns="http://www.w3.org/2000/svg" xmlns:xlink="http://www.w3.org/1999/xlink" width="1179pt" height="517pt" viewBox="0 0 1179 517" version="1.1">
<g id="surface1391">
<rect x="0" y="0" width="1179" height="517" style="fill:rgb(90%,90%,90%);fill-opacity:1;stroke:none;"/>
<path style="fill-rule:nonzero;fill:rgb(53%,27%,7%);fill-opacity:1;stroke-width:1;stroke-linecap:butt;stroke-linejoin:miter;stroke:rgb(0%,0%,0%);stroke-opacity:1;stroke-miterlimit:10;" d="M 322 365 L 296.019531 410 L 347.980469 410 L 322 365 "/>
<path style="fill-rule:nonzero;fill:rgb(53%,27%,7%);fill-opacity:1;stroke-width:1;stroke-linecap:butt;stroke-linejoin:miter;stroke:rgb(0%,0%,0%);stroke-opacity:1;stroke-miterlimit:10;" d="M 698 175 L 672.019531 220 L 723.980469 220 L 698 175 "/>
<path style="fill-rule:nonzero;fill:rgb(53%,27%,7%);fill-opacity:1;stroke-width:1;stroke-linecap:butt;stroke-linejoin:miter;stroke:rgb(0%,0%,0%);stroke-opacity:1;stroke-miterlimit:10;" d="M 504 340 L 478.019531 385 L 529.980469 385 L 504 340 "/>
<path style="fill-rule:nonzero;fill:rgb(53%,27%,7%);fill-opacity:1;stroke-width:1;stroke-linecap:butt;stroke-linejoin:miter;stroke:rgb(0%,0%,0%);stroke-opacity:1;stroke-miterlimit:10;" d="M 887 309 L 861.019531 354 L 912.980469 354 L 887 309 "/>
<path style="fill-rule:nonzero;fill:rgb(35%,70%,90%);fill-opacity:1;stroke-width:1;stroke-linecap:butt;stroke-linejoin:miter;stroke:rgb(0%,0%,0%);stroke-opacity:1;stroke-miterlimit:10;" d="M 130 308 L 159.664062 308 L 171.664062 279.785156 L 183.664062 308 L 213.332031 308 L 189.332031 325.4375 L 197.417969 356.980469 L 171.664062 339.542969 L 145.914062 356.980469 L 158.214844 325.4375 L 130 308 "/>
<path style="fill-rule:nonzero;fill:rgb(35%,70%,90%);fill-opacity:1;stroke-width:1;stroke-linecap:butt;stroke-linejoin:miter;stroke:rgb(0%,0%,0%);stroke-opacity:1;stroke-miterlimit:10;" d="M 376 82 L 405.664062 82 L 417.664062 53.785156 L 429.664062 82 L 459.332031 82 L 435.332031 99.4375 L 443.417969 130.980469 L 417.664062 113.542969 L 391.914062 130.980469 L 404.214844 99.4375 L 376 82 "/>
<path style="fill-rule:nonzero;fill:rgb(35%,70%,90%);fill-opacity:1;stroke-width:1;stroke-linecap:butt;stroke-linejoin:miter;stroke:rgb(0%,0%,0%);stroke-opacity:1;stroke-miterlimit:10;" d="M 1016 417 L 1045.664062 417 L 1057.664062 388.785156 L 1069.664062 417 L 1099.332031 417 L 1075.332031 434.4375 L 1083.417969 465.980469 L 1057.664062 448.542969 L 1031.914062 465.980469 L 1044.214844 434.4375 L 1016 417 "/>
<path style="fill-rule:nonzero;fill:rgb(35%,70%,90%);fill-opacity:1;stroke-width:1;stroke-linecap:butt;stroke-linejoin:miter;stroke:rgb(0%,0%,0%);stroke-opacity:1;stroke-miterlimit:10;" d="M 820 234 L 849.664062 234 L 861.664062 205.785156 L 873.664062 234 L 903.332031 234 L 879.332031 251.4375 L 887.417969 282.980469 L 861.664062 265.542969 L 835.914062 282.980469 L 848.214844 251.4375 L 820 234 "/>
<path style="fill-rule:nonzero;fill:rgb(35%,70%,90%);fill-opacity:1;stroke-width:1;stroke-linecap:butt;stroke-linejoin:miter;stroke:rgb(0%,0%,0%);stroke-opacity:1;stroke-miterlimit:10;" d="M 657 83 L 686.664062 83 L 698.664062 54.785156 L 710.664062 83 L 740.332031 83 L 716.332031 100.4375 L 724.417969 131.980469 L 698.664062 114.542969 L 672.914062 131.980469 L 685.214844 100.4375 L 657 83 "/>
</g>
</svg>
