<?xml version="1.0" encoding="UTF-8"?>
<svg xmlns="http://www.w3.org/2000/svg" xmlns:xlink="http://www.w3.org/1999/xlink" width="1179pt" height="517pt" viewBox="0 0 1179 517" version="1.1">
<g id="surface186">
<rect x="0" y="0" width="1179" height="517" style="fill:rgb(90%,90%,90%);fill-opacity:1;stroke:none;"/>
<path style="fill-rule:nonzero;fill:rgb(35%,70%,90%);fill-opacity:1;stroke-width:1;stroke-linecap:butt;stroke-linejoin:miter;stroke:rgb(0%,0%,0%);stroke-opacity:1;stroke-miterlimit:10;" d="M 513 338 L 542.664062 338 L 554.664062 309.785156 L 566.664062 338 L 596.332031 338 L 572.332031 355.4375 L 580.417969 386.980469 L 554.664062 369.542969 L 528.914062 386.980469 L 541.214844 355.4375 L 513 338 "/>
<path style="fill-rule:nonzero;fill:rgb(35%,70%,90%);fill-opacity:1;stroke-width:1;stroke-linecap:butt;stroke-linejoin:miter;stroke:rgb(0%,0%,0%);stroke-opacity:1;stroke-miterlimit:10;" d="M 838 411 L 867.664062 411 L 879.664062 382.785156 L 891.664062 411 L 921.332031 411 L 897.332031 428.4375 L 905.417969 459.980469 L 879.664062 442.542969 L 853.914062 459.980469 L 866.214844 428.4375 L 838 411 "/>
<path style="fill-rule:nonzero;fill:rgb(35%,70%,90%);fill-opacity:1;stroke-width:1;stroke-linecap:butt;stroke-linejoin:miter;stroke:rgb(0%,0%,0%);stroke-opacity:1;stroke-miterlimit:10;" d="M 513 108 L 542.664062 108 L 554.664062 79.785156 L 566.664062 108 L 596.332031 108 L 572.332031 125.4375 L 580.417969 156.980469 L 554.664062 139.542969 L 528.914062 156.980469 L 541.214844 125.4375 L 513 108 "/>
<path style="fill-rule:nonzero;fill:rgb(35%,70%,90%);fill-opacity:1;stroke-width:1;stroke-linecap:butt;stroke-linejoin:miter;stroke:rgb(0%,0%,0%);stroke-opacity:1;stroke-miterlimit:10;" d="M 967 216 L 996.664062 216 L 1008.664062 187.785156 L 1020.664062 216 L 1050.332031 216 L 1026.332031 233.4375 L 1034.417969 264.980469 L 1008.664062 247.542969 L 982.914062 264.980469 L 995.214844 233.4375 L 967 216 "/>
<path style="fill-rule:nonzero;fill:rgb(100%,51%,0%);fill-opacity:1;stroke-width:1;stroke-linecap:butt;stroke-linejoin:miter;stroke:rgb(0%,0%,0%);stroke-opacity:1;stroke-miterlimit:10;" d="M 769 118 L 743.019531 163 L 794.980469 163 L 769 118 "/>
<path style="fill-rule:nonzero;fill:rgb(100%,51%,0%);fill-opacity:1;stroke-width:1;stroke-linecap:butt;stroke-linejoin:miter;stroke:rgb(0%,0%,0%);stroke-opacity:1;stroke-miterlimit:10;" d="M 286 93 L 260.019531 138 L 311.980469 138 L 286 93 "/>
<path style="fill-rule:nonzero;fill:rgb(100%,51%,0%);fill-opacity:1;stroke-width:1;stroke-linecap:butt;stroke-linejoin:miter;stroke:rgb(0%,0%,0%);stroke-opacity:1;stroke-miterlimit:10;" d="M 832 251 L 806.019531 296 L 857.980469 296 L 832 251 "/>
</g>
</svg>
