<?xml version="1.0" encoding="UTF-8"?>
<svg xmlns="http://www.w3.org/2000/svg" xmlns:xlink="http://www.w3.org/1999/xlink" width="1179pt" height="517pt" viewBox="0 0 1179 517" version="1.1">
<g id="surface806">
<rect x="0" y="0" width="1179" height="517" style="fill:rgb(90%,90%,90%);fill-opacity:1;stroke:none;"/>
<path style="fill-rule:nonzero;fill:rgb(53%,27%,7%);fill-opacity:1;stroke-width:1;stroke-linecap:butt;stroke-linejoin:miter;stroke:rgb(0%,0%,0%);stroke-opacity:1;stroke-miterlimit:10;" d="M 118 185.601562 C 118 171.199219 94 171.199219 94 185.601562 C 94 200 118 202.398438 118 214.398438 C 118 202.398438 142 200 142 185.601562 C 142 171.199219 118 171.199219 118 185.601562 "/>
<path style="fill-rule:nonzero;fill:rgb(53%,27%,7%);fill-opacity:1;stroke-width:1;stroke-linecap:butt;stroke-linejoin:miter;stroke:rgb(0%,0%,0%);stroke-opacity:1;stroke-miterlimit:10;" d="M 361.214844 423 C 361.214844 434.714844 351.714844 444.214844 340 444.214844 C 328.285156 444.214844 318.785156 434.714844 318.785156 423 C 318.785156 411.285156 328.285156 401.785156 340 401.785156 C 351.714844 401.785156 361.214844 411.285156 361.214844 423 "/>
<path style="fill-rule:nonzero;fill:rgb(53%,27%,7%);fill-opacity:1;stroke-width:1;stroke-linecap:butt;stroke-linejoin:miter;stroke:rgb(0%,0%,0%);stroke-opacity:1;stroke-miterlimit:10;" d="M 177 97.601562 C 177 83.199219 153 83.199219 153 97.601562 C 153 112 177 114.398438 177 126.398438 C 177 114.398438 201 112 201 97.601562 C 201 83.199219 177 83.199219 177 97.601562 "/>
<path style="fill-rule:nonzero;fill:rgb(53%,27%,7%);fill-opacity:1;stroke-width:1;stroke-linecap:butt;stroke-linejoin:miter;stroke:rgb(0%,0%,0%);stroke-opacity:1;stroke-miterlimit:10;" d="M 270 196.601562 C 270 182.199219 246 182.199219 246 196.601562 C 246 211 270 213.398438 270 225.398438 C 270 213.398438 294 211 294 196.601562 C 294 182.199219 270 182.199219 270 196.601562 "/>
<path style="fill-rule:nonzero;fill:rgb(100%,51%,0%);fill-opacity:1;stroke-width:1;stroke-linecap:butt;stroke-linejoin:miter;stroke:rgb(0%,0%,0%);stroke-opacity:1;stroke-miterlimit:10;" d="M 736.214844 258 C 736.214844 269.714844 726.714844 279.214844 715 279.214844 C 703.285156 279.214844 693.785156 269.714844 693.785156 258 C 693.785156 246.285156 703.285156 236.785156 715 236.785156 C 726.714844 236.785156 736.214844 246.285156 736.214844 258 "/>
<path style="fill-rule:nonzero;fill:rgb(100%,51%,0%);fill-opacity:1;stroke-width:1;stroke-linecap:butt;stroke-linejoin:miter;stroke:rgb(0%,0%,0%);stroke-opacity:1;stroke-miterlimit:10;" d="M 693 70.601562 C 693 56.199219 669 56.199219 669 70.601562 C 669 85 693 87.398438 693 99.398438 C 693 87.398438 717 85 717 70.601562 C 717 56.199219 693 56.199219 693 70.601562 "/>
<path style="fill-rule:nonzero;fill:rgb(100%,51%,0%);fill-opacity:1;stroke-width:1;stroke-linecap:butt;stroke-linejoin:miter;stroke:rgb(0%,0%,0%);stroke-opacity:1;stroke-miterlimit:10;" d="M 883.214844 277 C 883.214844 288.714844 873.714844 298.214844 862 298.214844 C 850.285156 298.214844 840.785156 288.714844 840.785156 277 C 840.785156 265.285156 850.285156 255.785156 862 255.785156 C 873.714844 255.785156 883.214844 265.285156 883.214844 277 "/>
</g>
</svg>
