<?xml version="1.0" encoding="UTF-8"?>
<svg xmlns="http://www.w3.org/2000/svg" xmlns:xlink="http://www.w3.org/1999/xlink" width="1179pt" height="517pt" viewBox="0 0 1179 517" version="1.1">
<g id="surface631">
<rect x="0" y="0" width="1179" height="517" style="fill:rgb(90%,90%,90%);fill-opacity:1;stroke:none;"/>
<path style="fill-rule:nonzero;fill:rgb(100%,51%,0%);fill-opacity:1;stroke-width:1;stroke-linecap:butt;stroke-linejoin:miter;stroke:rgb(0%,0%,0%);stroke-opacity:1;stroke-miterlimit:10;" d="M 468 316 L 497.664062 316 L 509.664062 287.785156 L 521.664062 316 L 551.332031 316 L 527.332031 333.4375 L 535.417969 364.980469 L 509.664062 347.542969 L 483.914062 364.980469 L 496.214844 333.4375 L 468 316 "/>
<path style="fill-rule:nonzero;fill:rgb(100%,51%,0%);fill-opacity:1;stroke-width:1;stroke-linecap:butt;stroke-linejoin:miter;stroke:rgb(0%,0%,0%);stroke-opacity:1;stroke-miterlimit:10;" d="M 845 347 L 874.664062 347 L 886.664062 318.785156 L 898.664062 347 L 928.332031 347 L 904.332031 364.4375 L 912.417969 395.980469 L 886.664062 378.542969 L 860.914062 395.980469 L 873.214844 364.4375 L 845 347 "/>
<path style="fill-rule:nonzero;fill:rgb(100%,51%,0%);fill-opacity:1;stroke-width:1;stroke-linecap:butt;stroke-linejoin:miter;stroke:rgb(0%,0%,0%);stroke-opacity:1;stroke-miterlimit:10;" d="M 872 178 L 901.664062 178 L 913.664062 149.785156 L 925.664062 178 L 955.332031 178 L 931.332031 195.4375 L 939.417969 226.980469 L 913.664062 209.542969 L 887.914062 226.980469 L 900.214844 195.4375 L 872 178 "/>
<path style="fill-rule:nonzero;fill:rgb(100%,51%,0%);fill-opacity:1;stroke-width:1;stroke-linecap:butt;stroke-linejoin:miter;stroke:rgb(0%,0%,0%);stroke-opacity:1;stroke-miterlimit:10;" d="M 324 80 L 353.664062 80 L 365.664062 51.785156 L 377.664062 80 L 407.332031 80 L 383.332031 97.4375 L 391.417969 128.980469 L 365.664062 111.542969 L 339.914062 128.980469 L 352.214844 97.4375 L 324 80 "/>
<path style="fill-rule:nonzero;fill:rgb(100%,51%,0%);fill-opacity:1;stroke-width:1;stroke-linecap:butt;stroke-linejoin:miter;stroke:rgb(0%,0%,0%);stroke-opacity:1;stroke-miterlimit:10;" d="M 985 379 L 1014.664062 379 L 1026.664062 350.785156 L 1038.664062 379 L 1068.332031 379 L 1044.332031 396.4375 L 1052.417969 427.980469 L 1026.664062 410.542969 L 1000.914062 427.980469 L 1013.214844 396.4375 L 985 379 "/>
<path style="fill-rule:nonzero;fill:rgb(53%,27%,7%);fill-opacity:1;stroke-width:1;stroke-linecap:butt;stroke-linejoin:miter;stroke:rgb(0%,0%,0%);stroke-opacity:1;stroke-miterlimit:10;" d="M 513.214844 191 C 513.214844 202.714844 503.714844 212.214844 492 212.214844 C 480.285156 212.214844 470.785156 202.714844 470.785156 191 C 470.785156 179.285156 480.285156 169.785156 492 169.785156 C 503.714844 169.785156 513.214844 179.285156 513.214844 191 "/>
<path style="fill-rule:nonzero;fill:rgb(53%,27%,7%);fill-opacity:1;stroke-width:1;stroke-linecap:butt;stroke-linejoin:miter;stroke:rgb(0%,0%,0%);stroke-opacity:1;stroke-miterlimit:10;" d="M 620.214844 427 C 620.214844 438.714844 610.714844 448.214844 599 448.214844 C 587.285156 448.214844 577.785156 438.714844 577.785156 427 C 577.785156 415.285156 587.285156 405.785156 599 405.785156 C 610.714844 405.785156 620.214844 415.285156 620.214844 427 "/>
<path style="fill-rule:nonzero;fill:rgb(53%,27%,7%);fill-opacity:1;stroke-width:1;stroke-linecap:butt;stroke-linejoin:miter;stroke:rgb(0%,0%,0%);stroke-opacity:1;stroke-miterlimit:10;" d="M 1043.214844 259 C 1043.214844 270.714844 1033.714844 280.214844 1022 280.214844 C 1010.285156 280.214844 1000.785156 270.714844 1000.785156 259 C 1000.785156 247.285156 1010.285156 237.785156 1022 237.785156 C 1033.714844 237.785156 1043.214844 247.285156 1043.214844 259 "/>
<path style="fill-rule:nonzero;fill:rgb(53%,27%,7%);fill-opacity:1;stroke-width:1;stroke-linecap:butt;stroke-linejoin:miter;stroke:rgb(0%,0%,0%);stroke-opacity:1;stroke-miterlimit:10;" d="M 366.214844 365 C 366.214844 376.714844 356.714844 386.214844 345 386.214844 C 333.285156 386.214844 323.785156 376.714844 323.785156 365 C 323.785156 353.285156 333.285156 343.785156 345 343.785156 C 356.714844 343.785156 366.214844 353.285156 366.214844 365 "/>
<path style="fill-rule:nonzero;fill:rgb(53%,27%,7%);fill-opacity:1;stroke-width:1;stroke-linecap:butt;stroke-linejoin:miter;stroke:rgb(0%,0%,0%);stroke-opacity:1;stroke-miterlimit:10;" d="M 230.214844 177 C 230.214844 188.714844 220.714844 198.214844 209 198.214844 C 197.285156 198.214844 187.785156 188.714844 187.785156 177 C 187.785156 165.285156 197.285156 155.785156 209 155.785156 C 220.714844 155.785156 230.214844 165.285156 230.214844 177 "/>
</g>
</svg>
