<?xml version="1.0" encoding="UTF-8"?>
<svg xmlns="http://www.w3.org/2000/svg" xmlns:xlink="http://www.w3.org/1999/xlink" width="1179pt" height="517pt" viewBox="0 0 1179 517" version="1.1">
<g id="surface651">
<rect x="0" y="0" width="1179" height="517" style="fill:rgb(90%,90%,90%);fill-opacity:1;stroke:none;"/>
<path style="fill-rule:nonzero;fill:rgb(100%,51%,0%);fill-opacity:1;stroke-width:1;stroke-linecap:butt;stroke-linejoin:miter;stroke:rgb(0%,0%,0%);stroke-opacity:1;stroke-miterlimit:10;" d="M 229.214844 288 C 229.214844 299.714844 219.714844 309.214844 208 309.214844 C 196.285156 309.214844 186.785156 299.714844 186.785156 288 C 186.785156 276.285156 196.285156 266.785156 208 266.785156 C 219.714844 266.785156 229.214844 276.285156 229.214844 288 "/>
<path style="fill-rule:nonzero;fill:rgb(100%,51%,0%);fill-opacity:1;stroke-width:1;stroke-linecap:butt;stroke-linejoin:miter;stroke:rgb(0%,0%,0%);stroke-opacity:1;stroke-miterlimit:10;" d="M 174.785156 406.785156 L 174.785156 449.214844 L 217.214844 449.214844 L 217.214844 406.785156 L 174.785156 406.785156 "/>
<path style="fill-rule:nonzero;fill:rgb(100%,51%,0%);fill-opacity:1;stroke-width:1;stroke-linecap:butt;stroke-linejoin:miter;stroke:rgb(0%,0%,0%);stroke-opacity:1;stroke-miterlimit:10;" d="M 79.785156 112.785156 L 79.785156 155.214844 L 122.214844 155.214844 L 122.214844 112.785156 L 79.785156 112.785156 "/>
<path style="fill-rule:nonzero;fill:rgb(100%,51%,0%);fill-opacity:1;stroke-width:1;stroke-linecap:butt;stroke-linejoin:miter;stroke:rgb(0%,0%,0%);stroke-opacity:1;stroke-miterlimit:10;" d="M 326.214844 335 C 326.214844 346.714844 316.714844 356.214844 305 356.214844 C 293.285156 356.214844 283.785156 346.714844 283.785156 335 C 283.785156 323.285156 293.285156 313.785156 305 313.785156 C 316.714844 313.785156 326.214844 323.285156 326.214844 335 "/>
<path style="fill-rule:nonzero;fill:rgb(53%,27%,7%);fill-opacity:1;stroke-width:1;stroke-linecap:butt;stroke-linejoin:miter;stroke:rgb(0%,0%,0%);stroke-opacity:1;stroke-miterlimit:10;" d="M 751.785156 100.785156 L 751.785156 143.214844 L 794.214844 143.214844 L 794.214844 100.785156 L 751.785156 100.785156 "/>
<path style="fill-rule:nonzero;fill:rgb(53%,27%,7%);fill-opacity:1;stroke-width:1;stroke-linecap:butt;stroke-linejoin:miter;stroke:rgb(0%,0%,0%);stroke-opacity:1;stroke-miterlimit:10;" d="M 748.214844 221 C 748.214844 232.714844 738.714844 242.214844 727 242.214844 C 715.285156 242.214844 705.785156 232.714844 705.785156 221 C 705.785156 209.285156 715.285156 199.785156 727 199.785156 C 738.714844 199.785156 748.214844 209.285156 748.214844 221 "/>
<path style="fill-rule:nonzero;fill:rgb(53%,27%,7%);fill-opacity:1;stroke-width:1;stroke-linecap:butt;stroke-linejoin:miter;stroke:rgb(0%,0%,0%);stroke-opacity:1;stroke-miterlimit:10;" d="M 917.214844 86 C 917.214844 97.714844 907.714844 107.214844 896 107.214844 C 884.285156 107.214844 874.785156 97.714844 874.785156 86 C 874.785156 74.285156 884.285156 64.785156 896 64.785156 C 907.714844 64.785156 917.214844 74.285156 917.214844 86 "/>
</g>
</svg>
