<?xml version="1.0" encoding="UTF-8"?>
<svg xmlns="http://www.w3.org/2000/svg" xmlns:xlink="http://www.w3.org/1999/xlink" width="1179pt" height="517pt" viewBox="0 0 1179 517" version="1.1">
<g id="surface1056">
<rect x="0" y="0" width="1179" height="517" style="fill:rgb(90%,90%,90%);fill-opacity:1;stroke:none;"/>
<path style="fill-rule:nonzero;fill:rgb(35%,70%,90%);fill-opacity:1;stroke-width:1;stroke-linecap:butt;stroke-linejoin:miter;stroke:rgb(0%,0%,0%);stroke-opacity:1;stroke-miterlimit:10;" d="M 581 132 L 610.664062 132 L 622.664062 103.785156 L 634.664062 132 L 664.332031 132 L 640.332031 149.4375 L 648.417969 180.980469 L 622.664062 163.542969 L 596.914062 180.980469 L 609.214844 149.4375 L 581 132 "/>
<path style="fill-rule:nonzero;fill:rgb(35%,70%,90%);fill-opacity:1;stroke-width:1;stroke-linecap:butt;stroke-linejoin:miter;stroke:rgb(0%,0%,0%);stroke-opacity:1;stroke-miterlimit:10;" d="M 861 277 L 890.664062 277 L 902.664062 248.785156 L 914.664062 277 L 944.332031 277 L 920.332031 294.4375 L 928.417969 325.980469 L 902.664062 308.542969 L 876.914062 325.980469 L 889.214844 294.4375 L 861 277 "/>
<path style="fill-rule:nonzero;fill:rgb(35%,70%,90%);fill-opacity:1;stroke-width:1;stroke-linecap:butt;stroke-linejoin:miter;stroke:rgb(0%,0%,0%);stroke-opacity:1;stroke-miterlimit:10;" d="M 717 164 L 746.664062 164 L 758.664062 135.785156 L 770.664062 164 L 800.332031 164 L 776.332031 181.4375 L 784.417969 212.980469 L 758.664062 195.542969 L 732.914062 212.980469 L 745.214844 181.4375 L 717 164 "/>
<path style="fill-rule:nonzero;fill:rgb(100%,51%,0%);fill-opacity:1;stroke-width:1;stroke-linecap:butt;stroke-linejoin:miter;stroke:rgb(0%,0%,0%);stroke-opacity:1;stroke-miterlimit:10;" d="M 102 412.601562 C 102 398.199219 78 398.199219 78 412.601562 C 78 427 102 429.398438 102 441.398438 C 102 429.398438 126 427 126 412.601562 C 126 398.199219 102 398.199219 102 412.601562 "/>
<path style="fill-rule:nonzero;fill:rgb(100%,51%,0%);fill-opacity:1;stroke-width:1;stroke-linecap:butt;stroke-linejoin:miter;stroke:rgb(0%,0%,0%);stroke-opacity:1;stroke-miterlimit:10;" d="M 290 176.601562 C 290 162.199219 266 162.199219 266 176.601562 C 266 191 290 193.398438 290 205.398438 C 290 193.398438 314 191 314 176.601562 C 314 162.199219 290 162.199219 290 176.601562 "/>
<path style="fill-rule:nonzero;fill:rgb(100%,51%,0%);fill-opacity:1;stroke-width:1;stroke-linecap:butt;stroke-linejoin:miter;stroke:rgb(0%,0%,0%);stroke-opacity:1;stroke-miterlimit:10;" d="M 904 400.601562 C 904 386.199219 880 386.199219 880 400.601562 C 880 415 904 417.398438 904 429.398438 C 904 417.398438 928 415 928 400.601562 C 928 386.199219 904 386.199219 904 400.601562 "/>
<path style="fill-rule:nonzero;fill:rgb(100%,51%,0%);fill-opacity:1;stroke-width:1;stroke-linecap:butt;stroke-linejoin:miter;stroke:rgb(0%,0%,0%);stroke-opacity:1;stroke-miterlimit:10;" d="M 999 247.601562 C 999 233.199219 975 233.199219 975 247.601562 C 975 262 999 264.398438 999 276.398438 C 999 264.398438 1023 262 1023 247.601562 C 1023 233.199219 999 233.199219 999 247.601562 "/>
<path style="fill-rule:nonzero;fill:rgb(100%,51%,0%);fill-opacity:1;stroke-width:1;stroke-linecap:butt;stroke-linejoin:miter;stroke:rgb(0%,0%,0%);stroke-opacity:1;stroke-miterlimit:10;" d="M 943 127.601562 C 943 113.199219 919 113.199219 919 127.601562 C 919 142 943 144.398438 943 156.398438 C 943 144.398438 967 142 967 127.601562 C 967 113.199219 943 113.199219 943 127.601562 "/>
</g>
</svg>
