<?xml version="1.0" encoding="UTF-8"?>
<svg xmlns="http://www.w3.org/2000/svg" xmlns:xlink="http://www.w3.org/1999/xlink" width="1179pt" height="517pt" viewBox="0 0 1179 517" version="1.1">
<g id="surface241">
<rect x="0" y="0" width="1179" height="517" style="fill:rgb(90%,90%,90%);fill-opacity:1;stroke:none;"/>
<path style="fill-rule:nonzero;fill:rgb(35%,70%,90%);fill-opacity:1;stroke-width:1;stroke-linecap:butt;stroke-linejoin:miter;stroke:rgb(0%,0%,0%);stroke-opacity:1;stroke-miterlimit:10;" d="M 388 254 L 417.664062 254 L 429.664062 225.785156 L 441.664062 254 L 471.332031 254 L 447.332031 271.4375 L 455.417969 302.980469 L 429.664062 285.542969 L 403.914062 302.980469 L 416.214844 271.4375 L 388 254 "/>
<path style="fill-rule:nonzero;fill:rgb(35%,70%,90%);fill-opacity:1;stroke-width:1;stroke-linecap:butt;stroke-linejoin:miter;stroke:rgb(0%,0%,0%);stroke-opacity:1;stroke-miterlimit:10;" d="M 189 331 L 218.664062 331 L 230.664062 302.785156 L 242.664062 331 L 272.332031 331 L 248.332031 348.4375 L 256.417969 379.980469 L 230.664062 362.542969 L 204.914062 379.980469 L 217.214844 348.4375 L 189 331 "/>
<path style="fill-rule:nonzero;fill:rgb(35%,70%,90%);fill-opacity:1;stroke-width:1;stroke-linecap:butt;stroke-linejoin:miter;stroke:rgb(0%,0%,0%);stroke-opacity:1;stroke-miterlimit:10;" d="M 842 339 L 871.664062 339 L 883.664062 310.785156 L 895.664062 339 L 925.332031 339 L 901.332031 356.4375 L 909.417969 387.980469 L 883.664062 370.542969 L 857.914062 387.980469 L 870.214844 356.4375 L 842 339 "/>
<path style="fill-rule:nonzero;fill:rgb(55%,51%,53%);fill-opacity:1;stroke-width:1;stroke-linecap:butt;stroke-linejoin:miter;stroke:rgb(0%,0%,0%);stroke-opacity:1;stroke-miterlimit:10;" d="M 851.214844 93 C 851.214844 104.714844 841.714844 114.214844 830 114.214844 C 818.285156 114.214844 808.785156 104.714844 808.785156 93 C 808.785156 81.285156 818.285156 71.785156 830 71.785156 C 841.714844 71.785156 851.214844 81.285156 851.214844 93 "/>
<path style="fill-rule:nonzero;fill:rgb(55%,51%,53%);fill-opacity:1;stroke-width:1;stroke-linecap:butt;stroke-linejoin:miter;stroke:rgb(0%,0%,0%);stroke-opacity:1;stroke-miterlimit:10;" d="M 656.214844 342 C 656.214844 353.714844 646.714844 363.214844 635 363.214844 C 623.285156 363.214844 613.785156 353.714844 613.785156 342 C 613.785156 330.285156 623.285156 320.785156 635 320.785156 C 646.714844 320.785156 656.214844 330.285156 656.214844 342 "/>
<path style="fill-rule:nonzero;fill:rgb(55%,51%,53%);fill-opacity:1;stroke-width:1;stroke-linecap:butt;stroke-linejoin:miter;stroke:rgb(0%,0%,0%);stroke-opacity:1;stroke-miterlimit:10;" d="M 481.214844 155 C 481.214844 166.714844 471.714844 176.214844 460 176.214844 C 448.285156 176.214844 438.785156 166.714844 438.785156 155 C 438.785156 143.285156 448.285156 133.785156 460 133.785156 C 471.714844 133.785156 481.214844 143.285156 481.214844 155 "/>
<path style="fill-rule:nonzero;fill:rgb(55%,51%,53%);fill-opacity:1;stroke-width:1;stroke-linecap:butt;stroke-linejoin:miter;stroke:rgb(0%,0%,0%);stroke-opacity:1;stroke-miterlimit:10;" d="M 276.214844 101 C 276.214844 112.714844 266.714844 122.214844 255 122.214844 C 243.285156 122.214844 233.785156 112.714844 233.785156 101 C 233.785156 89.285156 243.285156 79.785156 255 79.785156 C 266.714844 79.785156 276.214844 89.285156 276.214844 101 "/>
<path style="fill-rule:nonzero;fill:rgb(55%,51%,53%);fill-opacity:1;stroke-width:1;stroke-linecap:butt;stroke-linejoin:miter;stroke:rgb(0%,0%,0%);stroke-opacity:1;stroke-miterlimit:10;" d="M 1025.214844 404 C 1025.214844 415.714844 1015.714844 425.214844 1004 425.214844 C 992.285156 425.214844 982.785156 415.714844 982.785156 404 C 982.785156 392.285156 992.285156 382.785156 1004 382.785156 C 1015.714844 382.785156 1025.214844 392.285156 1025.214844 404 "/>
</g>
</svg>
