<?xml version="1.0" encoding="UTF-8"?>
<svg xmlns="http://www.w3.org/2000/svg" xmlns:xlink="http://www.w3.org/1999/xlink" width="1179pt" height="517pt" viewBox="0 0 1179 517" version="1.1">
<g id="surface461">
<rect x="0" y="0" width="1179" height="517" style="fill:rgb(90%,90%,90%);fill-opacity:1;stroke:none;"/>
<path style="fill-rule:nonzero;fill:rgb(100%,51%,0%);fill-opacity:1;stroke-width:1;stroke-linecap:butt;stroke-linejoin:miter;stroke:rgb(0%,0%,0%);stroke-opacity:1;stroke-miterlimit:10;" d="M 408 282 L 437.664062 282 L 449.664062 253.785156 L 461.664062 282 L 491.332031 282 L 467.332031 299.4375 L 475.417969 330.980469 L 449.664062 313.542969 L 423.914062 330.980469 L 436.214844 299.4375 L 408 282 "/>
<path style="fill-rule:nonzero;fill:rgb(100%,51%,0%);fill-opacity:1;stroke-width:1;stroke-linecap:butt;stroke-linejoin:miter;stroke:rgb(0%,0%,0%);stroke-opacity:1;stroke-miterlimit:10;" d="M 272 419 L 301.664062 419 L 313.664062 390.785156 L 325.664062 419 L 355.332031 419 L 331.332031 436.4375 L 339.417969 467.980469 L 313.664062 450.542969 L 287.914062 467.980469 L 300.214844 436.4375 L 272 419 "/>
<path style="fill-rule:nonzero;fill:rgb(100%,51%,0%);fill-opacity:1;stroke-width:1;stroke-linecap:butt;stroke-linejoin:miter;stroke:rgb(0%,0%,0%);stroke-opacity:1;stroke-miterlimit:10;" d="M 166 262 L 195.664062 262 L 207.664062 233.785156 L 219.664062 262 L 249.332031 262 L 225.332031 279.4375 L 233.417969 310.980469 L 207.664062 293.542969 L 181.914062 310.980469 L 194.214844 279.4375 L 166 262 "/>
<path style="fill-rule:nonzero;fill:rgb(100%,51%,0%);fill-opacity:1;stroke-width:1;stroke-linecap:butt;stroke-linejoin:miter;stroke:rgb(0%,0%,0%);stroke-opacity:1;stroke-miterlimit:10;" d="M 109.785156 341.785156 L 109.785156 384.214844 L 152.214844 384.214844 L 152.214844 341.785156 L 109.785156 341.785156 "/>
<path style="fill-rule:nonzero;fill:rgb(53%,27%,7%);fill-opacity:1;stroke-width:1;stroke-linecap:butt;stroke-linejoin:miter;stroke:rgb(0%,0%,0%);stroke-opacity:1;stroke-miterlimit:10;" d="M 775.785156 326.785156 L 775.785156 369.214844 L 818.214844 369.214844 L 818.214844 326.785156 L 775.785156 326.785156 "/>
<path style="fill-rule:nonzero;fill:rgb(53%,27%,7%);fill-opacity:1;stroke-width:1;stroke-linecap:butt;stroke-linejoin:miter;stroke:rgb(0%,0%,0%);stroke-opacity:1;stroke-miterlimit:10;" d="M 720.785156 207.785156 L 720.785156 250.214844 L 763.214844 250.214844 L 763.214844 207.785156 L 720.785156 207.785156 "/>
<path style="fill-rule:nonzero;fill:rgb(53%,27%,7%);fill-opacity:1;stroke-width:1;stroke-linecap:butt;stroke-linejoin:miter;stroke:rgb(0%,0%,0%);stroke-opacity:1;stroke-miterlimit:10;" d="M 953.785156 268.785156 L 953.785156 311.214844 L 996.214844 311.214844 L 996.214844 268.785156 L 953.785156 268.785156 "/>
<path style="fill-rule:nonzero;fill:rgb(53%,27%,7%);fill-opacity:1;stroke-width:1;stroke-linecap:butt;stroke-linejoin:miter;stroke:rgb(0%,0%,0%);stroke-opacity:1;stroke-miterlimit:10;" d="M 805 122 L 834.664062 122 L 846.664062 93.785156 L 858.664062 122 L 888.332031 122 L 864.332031 139.4375 L 872.417969 170.980469 L 846.664062 153.542969 L 820.914062 170.980469 L 833.214844 139.4375 L 805 122 "/>
</g>
</svg>
