<?xml version="1.0" encoding="UTF-8"?>
<svg xmlns="http://www.w3.org/2000/svg" xmlns:xlink="http://www.w3.org/1999/xlink" width="1179pt" height="517pt" viewBox="0 0 1179 517" version="1.1">
<g id="surface436">
<rect x="0" y="0" width="1179" height="517" style="fill:rgb(90%,90%,90%);fill-opacity:1;stroke:none;"/>
<path style="fill-rule:nonzero;fill:rgb(35%,70%,90%);fill-opacity:1;stroke-width:1;stroke-linecap:butt;stroke-linejoin:miter;stroke:rgb(0%,0%,0%);stroke-opacity:1;stroke-miterlimit:10;" d="M 181.214844 203 C 181.214844 214.714844 171.714844 224.214844 160 224.214844 C 148.285156 224.214844 138.785156 214.714844 138.785156 203 C 138.785156 191.285156 148.285156 181.785156 160 181.785156 C 171.714844 181.785156 181.214844 191.285156 181.214844 203 "/>
<path style="fill-rule:nonzero;fill:rgb(35%,70%,90%);fill-opacity:1;stroke-width:1;stroke-linecap:butt;stroke-linejoin:miter;stroke:rgb(0%,0%,0%);stroke-opacity:1;stroke-miterlimit:10;" d="M 132 371 L 106.019531 416 L 157.980469 416 L 132 371 "/>
<path style="fill-rule:nonzero;fill:rgb(35%,70%,90%);fill-opacity:1;stroke-width:1;stroke-linecap:butt;stroke-linejoin:miter;stroke:rgb(0%,0%,0%);stroke-opacity:1;stroke-miterlimit:10;" d="M 243 355 L 217.019531 400 L 268.980469 400 L 243 355 "/>
<path style="fill-rule:nonzero;fill:rgb(55%,51%,53%);fill-opacity:1;stroke-width:1;stroke-linecap:butt;stroke-linejoin:miter;stroke:rgb(0%,0%,0%);stroke-opacity:1;stroke-miterlimit:10;" d="M 972 150 L 946.019531 195 L 997.980469 195 L 972 150 "/>
<path style="fill-rule:nonzero;fill:rgb(55%,51%,53%);fill-opacity:1;stroke-width:1;stroke-linecap:butt;stroke-linejoin:miter;stroke:rgb(0%,0%,0%);stroke-opacity:1;stroke-miterlimit:10;" d="M 791.214844 179 C 791.214844 190.714844 781.714844 200.214844 770 200.214844 C 758.285156 200.214844 748.785156 190.714844 748.785156 179 C 748.785156 167.285156 758.285156 157.785156 770 157.785156 C 781.714844 157.785156 791.214844 167.285156 791.214844 179 "/>
<path style="fill-rule:nonzero;fill:rgb(55%,51%,53%);fill-opacity:1;stroke-width:1;stroke-linecap:butt;stroke-linejoin:miter;stroke:rgb(0%,0%,0%);stroke-opacity:1;stroke-miterlimit:10;" d="M 782.214844 345 C 782.214844 356.714844 772.714844 366.214844 761 366.214844 C 749.285156 366.214844 739.785156 356.714844 739.785156 345 C 739.785156 333.285156 749.285156 323.785156 761 323.785156 C 772.714844 323.785156 782.214844 333.285156 782.214844 345 "/>
<path style="fill-rule:nonzero;fill:rgb(55%,51%,53%);fill-opacity:1;stroke-width:1;stroke-linecap:butt;stroke-linejoin:miter;stroke:rgb(0%,0%,0%);stroke-opacity:1;stroke-miterlimit:10;" d="M 938 236 L 912.019531 281 L 963.980469 281 L 938 236 "/>
<path style="fill-rule:nonzero;fill:rgb(55%,51%,53%);fill-opacity:1;stroke-width:1;stroke-linecap:butt;stroke-linejoin:miter;stroke:rgb(0%,0%,0%);stroke-opacity:1;stroke-miterlimit:10;" d="M 917 380 L 891.019531 425 L 942.980469 425 L 917 380 "/>
</g>
</svg>
