<?xml version="1.0" encoding="UTF-8"?>
<svg xmlns="http://www.w3.org/2000/svg" xmlns:xlink="http://www.w3.org/1999/xlink" width="1179pt" height="517pt" viewBox="0 0 1179 517" version="1.1">
<g id="surface166">
<rect x="0" y="0" width="1179" height="517" style="fill:rgb(90%,90%,90%);fill-opacity:1;stroke:none;"/>
<path style="fill-rule:nonzero;fill:rgb(55%,51%,53%);fill-opacity:1;stroke-width:1;stroke-linecap:butt;stroke-linejoin:miter;stroke:rgb(0%,0%,0%);stroke-opacity:1;stroke-miterlimit:10;" d="M 411.214844 241 C 411.214844 252.714844 401.714844 262.214844 390 262.214844 C 378.285156 262.214844 368.785156 252.714844 368.785156 241 C 368.785156 229.285156 378.285156 219.785156 390 219.785156 C 401.714844 219.785156 411.214844 229.285156 411.214844 241 "/>
<path style="fill-rule:nonzero;fill:rgb(55%,51%,53%);fill-opacity:1;stroke-width:1;stroke-linecap:butt;stroke-linejoin:miter;stroke:rgb(0%,0%,0%);stroke-opacity:1;stroke-miterlimit:10;" d="M 137.214844 380 C 137.214844 391.714844 127.714844 401.214844 116 401.214844 C 104.285156 401.214844 94.785156 391.714844 94.785156 380 C 94.785156 368.285156 104.285156 358.785156 116 358.785156 C 127.714844 358.785156 137.214844 368.285156 137.214844 380 "/>
<path style="fill-rule:nonzero;fill:rgb(55%,51%,53%);fill-opacity:1;stroke-width:1;stroke-linecap:butt;stroke-linejoin:miter;stroke:rgb(0%,0%,0%);stroke-opacity:1;stroke-miterlimit:10;" d="M 175 270 L 149.019531 315 L 200.980469 315 L 175 270 "/>
<path style="fill-rule:nonzero;fill:rgb(55%,51%,53%);fill-opacity:1;stroke-width:1;stroke-linecap:butt;stroke-linejoin:miter;stroke:rgb(0%,0%,0%);stroke-opacity:1;stroke-miterlimit:10;" d="M 372 402 L 346.019531 447 L 397.980469 447 L 372 402 "/>
<path style="fill-rule:nonzero;fill:rgb(53%,27%,7%);fill-opacity:1;stroke-width:1;stroke-linecap:butt;stroke-linejoin:miter;stroke:rgb(0%,0%,0%);stroke-opacity:1;stroke-miterlimit:10;" d="M 737 188 L 711.019531 233 L 762.980469 233 L 737 188 "/>
<path style="fill-rule:nonzero;fill:rgb(53%,27%,7%);fill-opacity:1;stroke-width:1;stroke-linecap:butt;stroke-linejoin:miter;stroke:rgb(0%,0%,0%);stroke-opacity:1;stroke-miterlimit:10;" d="M 805 104 L 779.019531 149 L 830.980469 149 L 805 104 "/>
<path style="fill-rule:nonzero;fill:rgb(53%,27%,7%);fill-opacity:1;stroke-width:1;stroke-linecap:butt;stroke-linejoin:miter;stroke:rgb(0%,0%,0%);stroke-opacity:1;stroke-miterlimit:10;" d="M 947.214844 388 C 947.214844 399.714844 937.714844 409.214844 926 409.214844 C 914.285156 409.214844 904.785156 399.714844 904.785156 388 C 904.785156 376.285156 914.285156 366.785156 926 366.785156 C 937.714844 366.785156 947.214844 376.285156 947.214844 388 "/>
<path style="fill-rule:nonzero;fill:rgb(53%,27%,7%);fill-opacity:1;stroke-width:1;stroke-linecap:butt;stroke-linejoin:miter;stroke:rgb(0%,0%,0%);stroke-opacity:1;stroke-miterlimit:10;" d="M 755.214844 327 C 755.214844 338.714844 745.714844 348.214844 734 348.214844 C 722.285156 348.214844 712.785156 338.714844 712.785156 327 C 712.785156 315.285156 722.285156 305.785156 734 305.785156 C 745.714844 305.785156 755.214844 315.285156 755.214844 327 "/>
</g>
</svg>
