<?xml version="1.0" encoding="UTF-8"?>
<svg xmlns="http://www.w3.org/2000/svg" xmlns:xlink="http://www.w3.org/1999/xlink" width="1179pt" height="517pt" viewBox="0 0 1179 517" version="1.1">
<g id="surface516">
<rect x="0" y="0" width="1179" height="517" style="fill:rgb(90%,90%,90%);fill-opacity:1;stroke:none;"/>
<path style="fill-rule:nonzero;fill:rgb(53%,27%,7%);fill-opacity:1;stroke-width:1;stroke-linecap:butt;stroke-linejoin:miter;stroke:rgb(0%,0%,0%);stroke-opacity:1;stroke-miterlimit:10;" d="M 101 175 L 75.019531 220 L 126.980469 220 L 101 175 "/>
<path style="fill-rule:nonzero;fill:rgb(55%,51%,53%);fill-opacity:1;stroke-width:1;stroke-linecap:butt;stroke-linejoin:miter;stroke:rgb(0%,0%,0%);stroke-opacity:1;stroke-miterlimit:10;" d="M 340 385 L 369.664062 385 L 381.664062 356.785156 L 393.664062 385 L 423.332031 385 L 399.332031 402.4375 L 407.417969 433.980469 L 381.664062 416.542969 L 355.914062 433.980469 L 368.214844 402.4375 L 340 385 "/>
<path style="fill-rule:nonzero;fill:rgb(53%,27%,7%);fill-opacity:1;stroke-width:1;stroke-linecap:butt;stroke-linejoin:miter;stroke:rgb(0%,0%,0%);stroke-opacity:1;stroke-miterlimit:10;" d="M 180 284 L 154.019531 329 L 205.980469 329 L 180 284 "/>
<path style="fill-rule:nonzero;fill:rgb(55%,51%,53%);fill-opacity:1;stroke-width:1;stroke-linecap:butt;stroke-linejoin:miter;stroke:rgb(0%,0%,0%);stroke-opacity:1;stroke-miterlimit:10;" d="M 83 104 L 112.664062 104 L 124.664062 75.785156 L 136.664062 104 L 166.332031 104 L 142.332031 121.4375 L 150.417969 152.980469 L 124.664062 135.542969 L 98.914062 152.980469 L 111.214844 121.4375 L 83 104 "/>
<path style="fill-rule:nonzero;fill:rgb(55%,51%,53%);fill-opacity:1;stroke-width:1;stroke-linecap:butt;stroke-linejoin:miter;stroke:rgb(0%,0%,0%);stroke-opacity:1;stroke-miterlimit:10;" d="M 814 286 L 843.664062 286 L 855.664062 257.785156 L 867.664062 286 L 897.332031 286 L 873.332031 303.4375 L 881.417969 334.980469 L 855.664062 317.542969 L 829.914062 334.980469 L 842.214844 303.4375 L 814 286 "/>
<path style="fill-rule:nonzero;fill:rgb(53%,27%,7%);fill-opacity:1;stroke-width:1;stroke-linecap:butt;stroke-linejoin:miter;stroke:rgb(0%,0%,0%);stroke-opacity:1;stroke-miterlimit:10;" d="M 906 334 L 880.019531 379 L 931.980469 379 L 906 334 "/>
<path style="fill-rule:nonzero;fill:rgb(55%,51%,53%);fill-opacity:1;stroke-width:1;stroke-linecap:butt;stroke-linejoin:miter;stroke:rgb(0%,0%,0%);stroke-opacity:1;stroke-miterlimit:10;" d="M 756 114 L 785.664062 114 L 797.664062 85.785156 L 809.664062 114 L 839.332031 114 L 815.332031 131.4375 L 823.417969 162.980469 L 797.664062 145.542969 L 771.914062 162.980469 L 784.214844 131.4375 L 756 114 "/>
<path style="fill-rule:nonzero;fill:rgb(55%,51%,53%);fill-opacity:1;stroke-width:1;stroke-linecap:butt;stroke-linejoin:miter;stroke:rgb(0%,0%,0%);stroke-opacity:1;stroke-miterlimit:10;" d="M 869 82 L 898.664062 82 L 910.664062 53.785156 L 922.664062 82 L 952.332031 82 L 928.332031 99.4375 L 936.417969 130.980469 L 910.664062 113.542969 L 884.914062 130.980469 L 897.214844 99.4375 L 869 82 "/>
<path style="fill-rule:nonzero;fill:rgb(53%,27%,7%);fill-opacity:1;stroke-width:1;stroke-linecap:butt;stroke-linejoin:miter;stroke:rgb(0%,0%,0%);stroke-opacity:1;stroke-miterlimit:10;" d="M 978 275 L 952.019531 320 L 1003.980469 320 L 978 275 "/>
<path style="fill-rule:nonzero;fill:rgb(53%,27%,7%);fill-opacity:1;stroke-width:1;stroke-linecap:butt;stroke-linejoin:miter;stroke:rgb(0%,0%,0%);stroke-opacity:1;stroke-miterlimit:10;" d="M 1013 133 L 987.019531 178 L 1038.980469 178 L 1013 133 "/>
</g>
</svg>
