<?xml version="1.0" encoding="UTF-8"?>
<svg xmlns="http://www.w3.org/2000/svg" xmlns:xlink="http://www.w3.org/1999/xlink" width="1179pt" height="517pt" viewBox="0 0 1179 517" version="1.1">
<g id="surface721">
<rect x="0" y="0" width="1179" height="517" style="fill:rgb(90%,90%,90%);fill-opacity:1;stroke:none;"/>
<path style="fill-rule:nonzero;fill:rgb(53%,27%,7%);fill-opacity:1;stroke-width:1;stroke-linecap:butt;stroke-linejoin:miter;stroke:rgb(0%,0%,0%);stroke-opacity:1;stroke-miterlimit:10;" d="M 1010 322.601562 C 1010 308.199219 986 308.199219 986 322.601562 C 986 337 1010 339.398438 1010 351.398438 C 1010 339.398438 1034 337 1034 322.601562 C 1034 308.199219 1010 308.199219 1010 322.601562 "/>
<path style="fill-rule:nonzero;fill:rgb(53%,27%,7%);fill-opacity:1;stroke-width:1;stroke-linecap:butt;stroke-linejoin:miter;stroke:rgb(0%,0%,0%);stroke-opacity:1;stroke-miterlimit:10;" d="M 966 188.601562 C 966 174.199219 942 174.199219 942 188.601562 C 942 203 966 205.398438 966 217.398438 C 966 205.398438 990 203 990 188.601562 C 990 174.199219 966 174.199219 966 188.601562 "/>
<path style="fill-rule:nonzero;fill:rgb(53%,27%,7%);fill-opacity:1;stroke-width:1;stroke-linecap:butt;stroke-linejoin:miter;stroke:rgb(0%,0%,0%);stroke-opacity:1;stroke-miterlimit:10;" d="M 750 343.601562 C 750 329.199219 726 329.199219 726 343.601562 C 726 358 750 360.398438 750 372.398438 C 750 360.398438 774 358 774 343.601562 C 774 329.199219 750 329.199219 750 343.601562 "/>
<path style="fill-rule:nonzero;fill:rgb(53%,27%,7%);fill-opacity:1;stroke-width:1;stroke-linecap:butt;stroke-linejoin:miter;stroke:rgb(0%,0%,0%);stroke-opacity:1;stroke-miterlimit:10;" d="M 292 321.601562 C 292 307.199219 268 307.199219 268 321.601562 C 268 336 292 338.398438 292 350.398438 C 292 338.398438 316 336 316 321.601562 C 316 307.199219 292 307.199219 292 321.601562 "/>
<path style="fill-rule:nonzero;fill:rgb(53%,27%,7%);fill-opacity:1;stroke-width:1;stroke-linecap:butt;stroke-linejoin:miter;stroke:rgb(0%,0%,0%);stroke-opacity:1;stroke-miterlimit:10;" d="M 852 253.601562 C 852 239.199219 828 239.199219 828 253.601562 C 828 268 852 270.398438 852 282.398438 C 852 270.398438 876 268 876 253.601562 C 876 239.199219 852 239.199219 852 253.601562 "/>
<path style="fill-rule:nonzero;fill:rgb(100%,51%,0%);fill-opacity:1;stroke-width:1;stroke-linecap:butt;stroke-linejoin:miter;stroke:rgb(0%,0%,0%);stroke-opacity:1;stroke-miterlimit:10;" d="M 143.214844 374 C 143.214844 385.714844 133.714844 395.214844 122 395.214844 C 110.285156 395.214844 100.785156 385.714844 100.785156 374 C 100.785156 362.285156 110.285156 352.785156 122 352.785156 C 133.714844 352.785156 143.214844 362.285156 143.214844 374 "/>
<path style="fill-rule:nonzero;fill:rgb(100%,51%,0%);fill-opacity:1;stroke-width:1;stroke-linecap:butt;stroke-linejoin:miter;stroke:rgb(0%,0%,0%);stroke-opacity:1;stroke-miterlimit:10;" d="M 452.214844 406 C 452.214844 417.714844 442.714844 427.214844 431 427.214844 C 419.285156 427.214844 409.785156 417.714844 409.785156 406 C 409.785156 394.285156 419.285156 384.785156 431 384.785156 C 442.714844 384.785156 452.214844 394.285156 452.214844 406 "/>
<path style="fill-rule:nonzero;fill:rgb(100%,51%,0%);fill-opacity:1;stroke-width:1;stroke-linecap:butt;stroke-linejoin:miter;stroke:rgb(0%,0%,0%);stroke-opacity:1;stroke-miterlimit:10;" d="M 842.214844 90 C 842.214844 101.714844 832.714844 111.214844 821 111.214844 C 809.285156 111.214844 799.785156 101.714844 799.785156 90 C 799.785156 78.285156 809.285156 68.785156 821 68.785156 C 832.714844 68.785156 842.214844 78.285156 842.214844 90 "/>
<path style="fill-rule:nonzero;fill:rgb(100%,51%,0%);fill-opacity:1;stroke-width:1;stroke-linecap:butt;stroke-linejoin:miter;stroke:rgb(0%,0%,0%);stroke-opacity:1;stroke-miterlimit:10;" d="M 138.214844 136 C 138.214844 147.714844 128.714844 157.214844 117 157.214844 C 105.285156 157.214844 95.785156 147.714844 95.785156 136 C 95.785156 124.285156 105.285156 114.785156 117 114.785156 C 128.714844 114.785156 138.214844 124.285156 138.214844 136 "/>
<path style="fill-rule:nonzero;fill:rgb(100%,51%,0%);fill-opacity:1;stroke-width:1;stroke-linecap:butt;stroke-linejoin:miter;stroke:rgb(0%,0%,0%);stroke-opacity:1;stroke-miterlimit:10;" d="M 692.214844 140 C 692.214844 151.714844 682.714844 161.214844 671 161.214844 C 659.285156 161.214844 649.785156 151.714844 649.785156 140 C 649.785156 128.285156 659.285156 118.785156 671 118.785156 C 682.714844 118.785156 692.214844 128.285156 692.214844 140 "/>
</g>
</svg>
