<?xml version="1.0" encoding="UTF-8"?>
<svg xmlns="http://www.w3.org/2000/svg" xmlns:xlink="http://www.w3.org/1999/xlink" width="1179pt" height="517pt" viewBox="0 0 1179 517" version="1.1">
<g id="surface936">
<rect x="0" y="0" width="1179" height="517" style="fill:rgb(90%,90%,90%);fill-opacity:1;stroke:none;"/>
<path style="fill-rule:nonzero;fill:rgb(100%,0%,0%);fill-opacity:1;stroke-width:1;stroke-linecap:butt;stroke-linejoin:miter;stroke:rgb(0%,0%,0%);stroke-opacity:1;stroke-miterlimit:10;" d="M 885 128.601562 C 885 114.199219 861 114.199219 861 128.601562 C 861 143 885 145.398438 885 157.398438 C 885 145.398438 909 143 909 128.601562 C 909 114.199219 885 114.199219 885 128.601562 "/>
<path style="fill-rule:nonzero;fill:rgb(100%,0%,0%);fill-opacity:1;stroke-width:1;stroke-linecap:butt;stroke-linejoin:miter;stroke:rgb(0%,0%,0%);stroke-opacity:1;stroke-miterlimit:10;" d="M 493 341.601562 C 493 327.199219 469 327.199219 469 341.601562 C 469 356 493 358.398438 493 370.398438 C 493 358.398438 517 356 517 341.601562 C 517 327.199219 493 327.199219 493 341.601562 "/>
<path style="fill-rule:nonzero;fill:rgb(100%,0%,0%);fill-opacity:1;stroke-width:1;stroke-linecap:butt;stroke-linejoin:miter;stroke:rgb(0%,0%,0%);stroke-opacity:1;stroke-miterlimit:10;" d="M 756 317.601562 C 756 303.199219 732 303.199219 732 317.601562 C 732 332 756 334.398438 756 346.398438 C 756 334.398438 780 332 780 317.601562 C 780 303.199219 756 303.199219 756 317.601562 "/>
<path style="fill-rule:nonzero;fill:rgb(100%,0%,0%);fill-opacity:1;stroke-width:1;stroke-linecap:butt;stroke-linejoin:miter;stroke:rgb(0%,0%,0%);stroke-opacity:1;stroke-miterlimit:10;" d="M 89 139.601562 C 89 125.199219 65 125.199219 65 139.601562 C 65 154 89 156.398438 89 168.398438 C 89 156.398438 113 154 113 139.601562 C 113 125.199219 89 125.199219 89 139.601562 "/>
<path style="fill-rule:nonzero;fill:rgb(100%,0%,0%);fill-opacity:1;stroke-width:1;stroke-linecap:butt;stroke-linejoin:miter;stroke:rgb(0%,0%,0%);stroke-opacity:1;stroke-miterlimit:10;" d="M 982 236.601562 C 982 222.199219 958 222.199219 958 236.601562 C 958 251 982 253.398438 982 265.398438 C 982 253.398438 1006 251 1006 236.601562 C 1006 222.199219 982 222.199219 982 236.601562 "/>
<path style="fill-rule:nonzero;fill:rgb(0%,0%,0%);fill-opacity:1;stroke-width:1;stroke-linecap:butt;stroke-linejoin:miter;stroke:rgb(0%,0%,0%);stroke-opacity:1;stroke-miterlimit:10;" d="M 505 113 L 485 113 L 485 123 L 505 123 L 505 143 L 515 143 L 515 123 L 535 123 L 535 113 L 515 113 L 515 93 L 505 93 L 505 113 "/>
<path style="fill-rule:nonzero;fill:rgb(0%,0%,0%);fill-opacity:1;stroke-width:1;stroke-linecap:butt;stroke-linejoin:miter;stroke:rgb(0%,0%,0%);stroke-opacity:1;stroke-miterlimit:10;" d="M 888 329 L 868 329 L 868 339 L 888 339 L 888 359 L 898 359 L 898 339 L 918 339 L 918 329 L 898 329 L 898 309 L 888 309 L 888 329 "/>
<path style="fill-rule:nonzero;fill:rgb(0%,0%,0%);fill-opacity:1;stroke-width:1;stroke-linecap:butt;stroke-linejoin:miter;stroke:rgb(0%,0%,0%);stroke-opacity:1;stroke-miterlimit:10;" d="M 284 210 L 264 210 L 264 220 L 284 220 L 284 240 L 294 240 L 294 220 L 314 220 L 314 210 L 294 210 L 294 190 L 284 190 L 284 210 "/>
</g>
</svg>
