<?xml version="1.0" encoding="UTF-8"?>
<svg xmlns="http://www.w3.org/2000/svg" xmlns:xlink="http://www.w3.org/1999/xlink" width="1179pt" height="517pt" viewBox="0 0 1179 517" version="1.1">
<g id="surface726">
<rect x="0" y="0" width="1179" height="517" style="fill:rgb(90%,90%,90%);fill-opacity:1;stroke:none;"/>
<path style="fill-rule:nonzero;fill:rgb(55%,51%,53%);fill-opacity:1;stroke-width:1;stroke-linecap:butt;stroke-linejoin:miter;stroke:rgb(0%,0%,0%);stroke-opacity:1;stroke-miterlimit:10;" d="M 174 365 L 148.019531 410 L 199.980469 410 L 174 365 "/>
<path style="fill-rule:nonzero;fill:rgb(55%,51%,53%);fill-opacity:1;stroke-width:1;stroke-linecap:butt;stroke-linejoin:miter;stroke:rgb(0%,0%,0%);stroke-opacity:1;stroke-miterlimit:10;" d="M 689 67 L 663.019531 112 L 714.980469 112 L 689 67 "/>
<path style="fill-rule:nonzero;fill:rgb(55%,51%,53%);fill-opacity:1;stroke-width:1;stroke-linecap:butt;stroke-linejoin:miter;stroke:rgb(0%,0%,0%);stroke-opacity:1;stroke-miterlimit:10;" d="M 359 380 L 333.019531 425 L 384.980469 425 L 359 380 "/>
<path style="fill-rule:nonzero;fill:rgb(100%,51%,0%);fill-opacity:1;stroke-width:1;stroke-linecap:butt;stroke-linejoin:miter;stroke:rgb(0%,0%,0%);stroke-opacity:1;stroke-miterlimit:10;" d="M 528 333 L 557.664062 333 L 569.664062 304.785156 L 581.664062 333 L 611.332031 333 L 587.332031 350.4375 L 595.417969 381.980469 L 569.664062 364.542969 L 543.914062 381.980469 L 556.214844 350.4375 L 528 333 "/>
<path style="fill-rule:nonzero;fill:rgb(100%,51%,0%);fill-opacity:1;stroke-width:1;stroke-linecap:butt;stroke-linejoin:miter;stroke:rgb(0%,0%,0%);stroke-opacity:1;stroke-miterlimit:10;" d="M 923 89 L 952.664062 89 L 964.664062 60.785156 L 976.664062 89 L 1006.332031 89 L 982.332031 106.4375 L 990.417969 137.980469 L 964.664062 120.542969 L 938.914062 137.980469 L 951.214844 106.4375 L 923 89 "/>
<path style="fill-rule:nonzero;fill:rgb(100%,51%,0%);fill-opacity:1;stroke-width:1;stroke-linecap:butt;stroke-linejoin:miter;stroke:rgb(0%,0%,0%);stroke-opacity:1;stroke-miterlimit:10;" d="M 376 254 L 405.664062 254 L 417.664062 225.785156 L 429.664062 254 L 459.332031 254 L 435.332031 271.4375 L 443.417969 302.980469 L 417.664062 285.542969 L 391.914062 302.980469 L 404.214844 271.4375 L 376 254 "/>
<path style="fill-rule:nonzero;fill:rgb(100%,51%,0%);fill-opacity:1;stroke-width:1;stroke-linecap:butt;stroke-linejoin:miter;stroke:rgb(0%,0%,0%);stroke-opacity:1;stroke-miterlimit:10;" d="M 269 89 L 298.664062 89 L 310.664062 60.785156 L 322.664062 89 L 352.332031 89 L 328.332031 106.4375 L 336.417969 137.980469 L 310.664062 120.542969 L 284.914062 137.980469 L 297.214844 106.4375 L 269 89 "/>
<path style="fill-rule:nonzero;fill:rgb(100%,51%,0%);fill-opacity:1;stroke-width:1;stroke-linecap:butt;stroke-linejoin:miter;stroke:rgb(0%,0%,0%);stroke-opacity:1;stroke-miterlimit:10;" d="M 778 186 L 807.664062 186 L 819.664062 157.785156 L 831.664062 186 L 861.332031 186 L 837.332031 203.4375 L 845.417969 234.980469 L 819.664062 217.542969 L 793.914062 234.980469 L 806.214844 203.4375 L 778 186 "/>
</g>
</svg>
