<?xml version="1.0" encoding="UTF-8"?>
<svg xmlns="http://www.w3.org/2000/svg" xmlns:xlink="http://www.w3.org/1999/xlink" width="1179pt" height="517pt" viewBox="0 0 1179 517" version="1.1">
<g id="surface271">
<rect x="0" y="0" width="1179" height="517" style="fill:rgb(90%,90%,90%);fill-opacity:1;stroke:none;"/>
<path style="fill-rule:nonzero;fill:rgb(100%,51%,0%);fill-opacity:1;stroke-width:1;stroke-linecap:butt;stroke-linejoin:miter;stroke:rgb(0%,0%,0%);stroke-opacity:1;stroke-miterlimit:10;" d="M 868 347 L 897.664062 347 L 909.664062 318.785156 L 921.664062 347 L 951.332031 347 L 927.332031 364.4375 L 935.417969 395.980469 L 909.664062 378.542969 L 883.914062 395.980469 L 896.214844 364.4375 L 868 347 "/>
<path style="fill-rule:nonzero;fill:rgb(100%,51%,0%);fill-opacity:1;stroke-width:1;stroke-linecap:butt;stroke-linejoin:miter;stroke:rgb(0%,0%,0%);stroke-opacity:1;stroke-miterlimit:10;" d="M 515 411 L 544.664062 411 L 556.664062 382.785156 L 568.664062 411 L 598.332031 411 L 574.332031 428.4375 L 582.417969 459.980469 L 556.664062 442.542969 L 530.914062 459.980469 L 543.214844 428.4375 L 515 411 "/>
<path style="fill-rule:nonzero;fill:rgb(100%,51%,0%);fill-opacity:1;stroke-width:1;stroke-linecap:butt;stroke-linejoin:miter;stroke:rgb(0%,0%,0%);stroke-opacity:1;stroke-miterlimit:10;" d="M 644 229 L 673.664062 229 L 685.664062 200.785156 L 697.664062 229 L 727.332031 229 L 703.332031 246.4375 L 711.417969 277.980469 L 685.664062 260.542969 L 659.914062 277.980469 L 672.214844 246.4375 L 644 229 "/>
<path style="fill-rule:nonzero;fill:rgb(53%,27%,7%);fill-opacity:1;stroke-width:1;stroke-linecap:butt;stroke-linejoin:miter;stroke:rgb(0%,0%,0%);stroke-opacity:1;stroke-miterlimit:10;" d="M 1014.214844 410 C 1014.214844 421.714844 1004.714844 431.214844 993 431.214844 C 981.285156 431.214844 971.785156 421.714844 971.785156 410 C 971.785156 398.285156 981.285156 388.785156 993 388.785156 C 1004.714844 388.785156 1014.214844 398.285156 1014.214844 410 "/>
<path style="fill-rule:nonzero;fill:rgb(53%,27%,7%);fill-opacity:1;stroke-width:1;stroke-linecap:butt;stroke-linejoin:miter;stroke:rgb(0%,0%,0%);stroke-opacity:1;stroke-miterlimit:10;" d="M 130.214844 258 C 130.214844 269.714844 120.714844 279.214844 109 279.214844 C 97.285156 279.214844 87.785156 269.714844 87.785156 258 C 87.785156 246.285156 97.285156 236.785156 109 236.785156 C 120.714844 236.785156 130.214844 246.285156 130.214844 258 "/>
<path style="fill-rule:nonzero;fill:rgb(53%,27%,7%);fill-opacity:1;stroke-width:1;stroke-linecap:butt;stroke-linejoin:miter;stroke:rgb(0%,0%,0%);stroke-opacity:1;stroke-miterlimit:10;" d="M 135.214844 138 C 135.214844 149.714844 125.714844 159.214844 114 159.214844 C 102.285156 159.214844 92.785156 149.714844 92.785156 138 C 92.785156 126.285156 102.285156 116.785156 114 116.785156 C 125.714844 116.785156 135.214844 126.285156 135.214844 138 "/>
<path style="fill-rule:nonzero;fill:rgb(53%,27%,7%);fill-opacity:1;stroke-width:1;stroke-linecap:butt;stroke-linejoin:miter;stroke:rgb(0%,0%,0%);stroke-opacity:1;stroke-miterlimit:10;" d="M 869.214844 198 C 869.214844 209.714844 859.714844 219.214844 848 219.214844 C 836.285156 219.214844 826.785156 209.714844 826.785156 198 C 826.785156 186.285156 836.285156 176.785156 848 176.785156 C 859.714844 176.785156 869.214844 186.285156 869.214844 198 "/>
<path style="fill-rule:nonzero;fill:rgb(53%,27%,7%);fill-opacity:1;stroke-width:1;stroke-linecap:butt;stroke-linejoin:miter;stroke:rgb(0%,0%,0%);stroke-opacity:1;stroke-miterlimit:10;" d="M 340.214844 392 C 340.214844 403.714844 330.714844 413.214844 319 413.214844 C 307.285156 413.214844 297.785156 403.714844 297.785156 392 C 297.785156 380.285156 307.285156 370.785156 319 370.785156 C 330.714844 370.785156 340.214844 380.285156 340.214844 392 "/>
</g>
</svg>
