<?xml version="1.0" encoding="UTF-8"?>
<svg xmlns="http://www.w3.org/2000/svg" xmlns:xlink="http://www.w3.org/1999/xlink" width="1179pt" height="517pt" viewBox="0 0 1179 517" version="1.1">
<g id="surface1441">
<rect x="0" y="0" width="1179" height="517" style="fill:rgb(90%,90%,90%);fill-opacity:1;stroke:none;"/>
<path style="fill-rule:nonzero;fill:rgb(53%,27%,7%);fill-opacity:1;stroke-width:1;stroke-linecap:butt;stroke-linejoin:miter;stroke:rgb(0%,0%,0%);stroke-opacity:1;stroke-miterlimit:10;" d="M 963.214844 413 C 963.214844 424.714844 953.714844 434.214844 942 434.214844 C 930.285156 434.214844 920.785156 424.714844 920.785156 413 C 920.785156 401.285156 930.285156 391.785156 942 391.785156 C 953.714844 391.785156 963.214844 401.285156 963.214844 413 "/>
<path style="fill-rule:nonzero;fill:rgb(53%,27%,7%);fill-opacity:1;stroke-width:1;stroke-linecap:butt;stroke-linejoin:miter;stroke:rgb(0%,0%,0%);stroke-opacity:1;stroke-miterlimit:10;" d="M 385.214844 200 C 385.214844 211.714844 375.714844 221.214844 364 221.214844 C 352.285156 221.214844 342.785156 211.714844 342.785156 200 C 342.785156 188.285156 352.285156 178.785156 364 178.785156 C 375.714844 178.785156 385.214844 188.285156 385.214844 200 "/>
<path style="fill-rule:nonzero;fill:rgb(53%,27%,7%);fill-opacity:1;stroke-width:1;stroke-linecap:butt;stroke-linejoin:miter;stroke:rgb(0%,0%,0%);stroke-opacity:1;stroke-miterlimit:10;" d="M 517.214844 330 C 517.214844 341.714844 507.714844 351.214844 496 351.214844 C 484.285156 351.214844 474.785156 341.714844 474.785156 330 C 474.785156 318.285156 484.285156 308.785156 496 308.785156 C 507.714844 308.785156 517.214844 318.285156 517.214844 330 "/>
<path style="fill-rule:nonzero;fill:rgb(53%,27%,7%);fill-opacity:1;stroke-width:1;stroke-linecap:butt;stroke-linejoin:miter;stroke:rgb(0%,0%,0%);stroke-opacity:1;stroke-miterlimit:10;" d="M 969.214844 133 C 969.214844 144.714844 959.714844 154.214844 948 154.214844 C 936.285156 154.214844 926.785156 144.714844 926.785156 133 C 926.785156 121.285156 936.285156 111.785156 948 111.785156 C 959.714844 111.785156 969.214844 121.285156 969.214844 133 "/>
<path style="fill-rule:nonzero;fill:rgb(53%,27%,7%);fill-opacity:1;stroke-width:1;stroke-linecap:butt;stroke-linejoin:miter;stroke:rgb(0%,0%,0%);stroke-opacity:1;stroke-miterlimit:10;" d="M 692.214844 380 C 692.214844 391.714844 682.714844 401.214844 671 401.214844 C 659.285156 401.214844 649.785156 391.714844 649.785156 380 C 649.785156 368.285156 659.285156 358.785156 671 358.785156 C 682.714844 358.785156 692.214844 368.285156 692.214844 380 "/>
<path style="fill-rule:nonzero;fill:rgb(100%,51%,0%);fill-opacity:1;stroke-width:1;stroke-linecap:butt;stroke-linejoin:miter;stroke:rgb(0%,0%,0%);stroke-opacity:1;stroke-miterlimit:10;" d="M 133 426 L 162.664062 426 L 174.664062 397.785156 L 186.664062 426 L 216.332031 426 L 192.332031 443.4375 L 200.417969 474.980469 L 174.664062 457.542969 L 148.914062 474.980469 L 161.214844 443.4375 L 133 426 "/>
<path style="fill-rule:nonzero;fill:rgb(100%,51%,0%);fill-opacity:1;stroke-width:1;stroke-linecap:butt;stroke-linejoin:miter;stroke:rgb(0%,0%,0%);stroke-opacity:1;stroke-miterlimit:10;" d="M 715 229 L 744.664062 229 L 756.664062 200.785156 L 768.664062 229 L 798.332031 229 L 774.332031 246.4375 L 782.417969 277.980469 L 756.664062 260.542969 L 730.914062 277.980469 L 743.214844 246.4375 L 715 229 "/>
<path style="fill-rule:nonzero;fill:rgb(100%,51%,0%);fill-opacity:1;stroke-width:1;stroke-linecap:butt;stroke-linejoin:miter;stroke:rgb(0%,0%,0%);stroke-opacity:1;stroke-miterlimit:10;" d="M 138 202 L 167.664062 202 L 179.664062 173.785156 L 191.664062 202 L 221.332031 202 L 197.332031 219.4375 L 205.417969 250.980469 L 179.664062 233.542969 L 153.914062 250.980469 L 166.214844 219.4375 L 138 202 "/>
<path style="fill-rule:nonzero;fill:rgb(100%,51%,0%);fill-opacity:1;stroke-width:1;stroke-linecap:butt;stroke-linejoin:miter;stroke:rgb(0%,0%,0%);stroke-opacity:1;stroke-miterlimit:10;" d="M 356 363 L 385.664062 363 L 397.664062 334.785156 L 409.664062 363 L 439.332031 363 L 415.332031 380.4375 L 423.417969 411.980469 L 397.664062 394.542969 L 371.914062 411.980469 L 384.214844 380.4375 L 356 363 "/>
<path style="fill-rule:nonzero;fill:rgb(100%,51%,0%);fill-opacity:1;stroke-width:1;stroke-linecap:butt;stroke-linejoin:miter;stroke:rgb(0%,0%,0%);stroke-opacity:1;stroke-miterlimit:10;" d="M 488 101 L 517.664062 101 L 529.664062 72.785156 L 541.664062 101 L 571.332031 101 L 547.332031 118.4375 L 555.417969 149.980469 L 529.664062 132.542969 L 503.914062 149.980469 L 516.214844 118.4375 L 488 101 "/>
</g>
</svg>
