<?xml version="1.0" encoding="UTF-8"?>
<svg xmlns="http://www.w3.org/2000/svg" xmlns:xlink="http://www.w3.org/1999/xlink" width="1179pt" height="517pt" viewBox="0 0 1179 517" version="1.1">
<g id="surface751">
<rect x="0" y="0" width="1179" height="517" style="fill:rgb(90%,90%,90%);fill-opacity:1;stroke:none;"/>
<path style="fill-rule:nonzero;fill:rgb(55%,51%,53%);fill-opacity:1;stroke-width:1;stroke-linecap:butt;stroke-linejoin:miter;stroke:rgb(0%,0%,0%);stroke-opacity:1;stroke-miterlimit:10;" d="M 221.214844 421 C 221.214844 432.714844 211.714844 442.214844 200 442.214844 C 188.285156 442.214844 178.785156 432.714844 178.785156 421 C 178.785156 409.285156 188.285156 399.785156 200 399.785156 C 211.714844 399.785156 221.214844 409.285156 221.214844 421 "/>
<path style="fill-rule:nonzero;fill:rgb(55%,51%,53%);fill-opacity:1;stroke-width:1;stroke-linecap:butt;stroke-linejoin:miter;stroke:rgb(0%,0%,0%);stroke-opacity:1;stroke-miterlimit:10;" d="M 367.214844 172 C 367.214844 183.714844 357.714844 193.214844 346 193.214844 C 334.285156 193.214844 324.785156 183.714844 324.785156 172 C 324.785156 160.285156 334.285156 150.785156 346 150.785156 C 357.714844 150.785156 367.214844 160.285156 367.214844 172 "/>
<path style="fill-rule:nonzero;fill:rgb(67%,100%,18%);fill-opacity:1;stroke-width:1;stroke-linecap:butt;stroke-linejoin:miter;stroke:rgb(0%,0%,0%);stroke-opacity:1;stroke-miterlimit:10;" d="M 108.214844 390 C 108.214844 401.714844 98.714844 411.214844 87 411.214844 C 75.285156 411.214844 65.785156 401.714844 65.785156 390 C 65.785156 378.285156 75.285156 368.785156 87 368.785156 C 98.714844 368.785156 108.214844 378.285156 108.214844 390 "/>
<path style="fill-rule:nonzero;fill:rgb(67%,100%,18%);fill-opacity:1;stroke-width:1;stroke-linecap:butt;stroke-linejoin:miter;stroke:rgb(0%,0%,0%);stroke-opacity:1;stroke-miterlimit:10;" d="M 859 316 L 833.019531 361 L 884.980469 361 L 859 316 "/>
<path style="fill-rule:nonzero;fill:rgb(67%,100%,18%);fill-opacity:1;stroke-width:1;stroke-linecap:butt;stroke-linejoin:miter;stroke:rgb(0%,0%,0%);stroke-opacity:1;stroke-miterlimit:10;" d="M 829 137 L 803.019531 182 L 854.980469 182 L 829 137 "/>
<path style="fill-rule:nonzero;fill:rgb(55%,51%,53%);fill-opacity:1;stroke-width:1;stroke-linecap:butt;stroke-linejoin:miter;stroke:rgb(0%,0%,0%);stroke-opacity:1;stroke-miterlimit:10;" d="M 1028 213 L 1002.019531 258 L 1053.980469 258 L 1028 213 "/>
<path style="fill-rule:nonzero;fill:rgb(55%,51%,53%);fill-opacity:1;stroke-width:1;stroke-linecap:butt;stroke-linejoin:miter;stroke:rgb(0%,0%,0%);stroke-opacity:1;stroke-miterlimit:10;" d="M 934 114 L 908.019531 159 L 959.980469 159 L 934 114 "/>
</g>
</svg>
