<?xml version="1.0" encoding="UTF-8"?>
<svg xmlns="http://www.w3.org/2000/svg" xmlns:xlink="http://www.w3.org/1999/xlink" width="1179pt" height="517pt" viewBox="0 0 1179 517" version="1.1">
<g id="surface1321">
<rect x="0" y="0" width="1179" height="517" style="fill:rgb(90%,90%,90%);fill-opacity:1;stroke:none;"/>
<path style="fill-rule:nonzero;fill:rgb(53%,27%,7%);fill-opacity:1;stroke-width:1;stroke-linecap:butt;stroke-linejoin:miter;stroke:rgb(0%,0%,0%);stroke-opacity:1;stroke-miterlimit:10;" d="M 889.214844 339 C 889.214844 350.714844 879.714844 360.214844 868 360.214844 C 856.285156 360.214844 846.785156 350.714844 846.785156 339 C 846.785156 327.285156 856.285156 317.785156 868 317.785156 C 879.714844 317.785156 889.214844 327.285156 889.214844 339 "/>
<path style="fill-rule:nonzero;fill:rgb(53%,27%,7%);fill-opacity:1;stroke-width:1;stroke-linecap:butt;stroke-linejoin:miter;stroke:rgb(0%,0%,0%);stroke-opacity:1;stroke-miterlimit:10;" d="M 578.214844 325 C 578.214844 336.714844 568.714844 346.214844 557 346.214844 C 545.285156 346.214844 535.785156 336.714844 535.785156 325 C 535.785156 313.285156 545.285156 303.785156 557 303.785156 C 568.714844 303.785156 578.214844 313.285156 578.214844 325 "/>
<path style="fill-rule:nonzero;fill:rgb(53%,27%,7%);fill-opacity:1;stroke-width:1;stroke-linecap:butt;stroke-linejoin:miter;stroke:rgb(0%,0%,0%);stroke-opacity:1;stroke-miterlimit:10;" d="M 300.214844 337 C 300.214844 348.714844 290.714844 358.214844 279 358.214844 C 267.285156 358.214844 257.785156 348.714844 257.785156 337 C 257.785156 325.285156 267.285156 315.785156 279 315.785156 C 290.714844 315.785156 300.214844 325.285156 300.214844 337 "/>
<path style="fill-rule:nonzero;fill:rgb(53%,27%,7%);fill-opacity:1;stroke-width:1;stroke-linecap:butt;stroke-linejoin:miter;stroke:rgb(0%,0%,0%);stroke-opacity:1;stroke-miterlimit:10;" d="M 170.214844 144 C 170.214844 155.714844 160.714844 165.214844 149 165.214844 C 137.285156 165.214844 127.785156 155.714844 127.785156 144 C 127.785156 132.285156 137.285156 122.785156 149 122.785156 C 160.714844 122.785156 170.214844 132.285156 170.214844 144 "/>
<path style="fill-rule:nonzero;fill:rgb(55%,51%,53%);fill-opacity:1;stroke-width:1;stroke-linecap:butt;stroke-linejoin:miter;stroke:rgb(0%,0%,0%);stroke-opacity:1;stroke-miterlimit:10;" d="M 357 63 L 331.019531 108 L 382.980469 108 L 357 63 "/>
<path style="fill-rule:nonzero;fill:rgb(55%,51%,53%);fill-opacity:1;stroke-width:1;stroke-linecap:butt;stroke-linejoin:miter;stroke:rgb(0%,0%,0%);stroke-opacity:1;stroke-miterlimit:10;" d="M 497 130 L 471.019531 175 L 522.980469 175 L 497 130 "/>
<path style="fill-rule:nonzero;fill:rgb(55%,51%,53%);fill-opacity:1;stroke-width:1;stroke-linecap:butt;stroke-linejoin:miter;stroke:rgb(0%,0%,0%);stroke-opacity:1;stroke-miterlimit:10;" d="M 979 157 L 953.019531 202 L 1004.980469 202 L 979 157 "/>
</g>
</svg>
