<?xml version="1.0" encoding="UTF-8"?>
<svg xmlns="http://www.w3.org/2000/svg" xmlns:xlink="http://www.w3.org/1999/xlink" width="1179pt" height="517pt" viewBox="0 0 1179 517" version="1.1">
<g id="surface1036">
<rect x="0" y="0" width="1179" height="517" style="fill:rgb(90%,90%,90%);fill-opacity:1;stroke:none;"/>
<path style="fill-rule:nonzero;fill:rgb(35%,70%,90%);fill-opacity:1;stroke-width:1;stroke-linecap:butt;stroke-linejoin:miter;stroke:rgb(0%,0%,0%);stroke-opacity:1;stroke-miterlimit:10;" d="M 319 315.601562 C 319 301.199219 295 301.199219 295 315.601562 C 295 330 319 332.398438 319 344.398438 C 319 332.398438 343 330 343 315.601562 C 343 301.199219 319 301.199219 319 315.601562 "/>
<path style="fill-rule:nonzero;fill:rgb(35%,70%,90%);fill-opacity:1;stroke-width:1;stroke-linecap:butt;stroke-linejoin:miter;stroke:rgb(0%,0%,0%);stroke-opacity:1;stroke-miterlimit:10;" d="M 174 86.601562 C 174 72.199219 150 72.199219 150 86.601562 C 150 101 174 103.398438 174 115.398438 C 174 103.398438 198 101 198 86.601562 C 198 72.199219 174 72.199219 174 86.601562 "/>
<path style="fill-rule:nonzero;fill:rgb(35%,70%,90%);fill-opacity:1;stroke-width:1;stroke-linecap:butt;stroke-linejoin:miter;stroke:rgb(0%,0%,0%);stroke-opacity:1;stroke-miterlimit:10;" d="M 719 80.601562 C 719 66.199219 695 66.199219 695 80.601562 C 695 95 719 97.398438 719 109.398438 C 719 97.398438 743 95 743 80.601562 C 743 66.199219 719 66.199219 719 80.601562 "/>
<path style="fill-rule:nonzero;fill:rgb(35%,70%,90%);fill-opacity:1;stroke-width:1;stroke-linecap:butt;stroke-linejoin:miter;stroke:rgb(0%,0%,0%);stroke-opacity:1;stroke-miterlimit:10;" d="M 828 231.601562 C 828 217.199219 804 217.199219 804 231.601562 C 804 246 828 248.398438 828 260.398438 C 828 248.398438 852 246 852 231.601562 C 852 217.199219 828 217.199219 828 231.601562 "/>
<path style="fill-rule:nonzero;fill:rgb(35%,70%,90%);fill-opacity:1;stroke-width:1;stroke-linecap:butt;stroke-linejoin:miter;stroke:rgb(0%,0%,0%);stroke-opacity:1;stroke-miterlimit:10;" d="M 783 413.601562 C 783 399.199219 759 399.199219 759 413.601562 C 759 428 783 430.398438 783 442.398438 C 783 430.398438 807 428 807 413.601562 C 807 399.199219 783 399.199219 783 413.601562 "/>
<path style="fill-rule:nonzero;fill:rgb(53%,27%,7%);fill-opacity:1;stroke-width:1;stroke-linecap:butt;stroke-linejoin:miter;stroke:rgb(0%,0%,0%);stroke-opacity:1;stroke-miterlimit:10;" d="M 984.214844 338 C 984.214844 349.714844 974.714844 359.214844 963 359.214844 C 951.285156 359.214844 941.785156 349.714844 941.785156 338 C 941.785156 326.285156 951.285156 316.785156 963 316.785156 C 974.714844 316.785156 984.214844 326.285156 984.214844 338 "/>
<path style="fill-rule:nonzero;fill:rgb(53%,27%,7%);fill-opacity:1;stroke-width:1;stroke-linecap:butt;stroke-linejoin:miter;stroke:rgb(0%,0%,0%);stroke-opacity:1;stroke-miterlimit:10;" d="M 485.214844 159 C 485.214844 170.714844 475.714844 180.214844 464 180.214844 C 452.285156 180.214844 442.785156 170.714844 442.785156 159 C 442.785156 147.285156 452.285156 137.785156 464 137.785156 C 475.714844 137.785156 485.214844 147.285156 485.214844 159 "/>
<path style="fill-rule:nonzero;fill:rgb(53%,27%,7%);fill-opacity:1;stroke-width:1;stroke-linecap:butt;stroke-linejoin:miter;stroke:rgb(0%,0%,0%);stroke-opacity:1;stroke-miterlimit:10;" d="M 550.214844 409 C 550.214844 420.714844 540.714844 430.214844 529 430.214844 C 517.285156 430.214844 507.785156 420.714844 507.785156 409 C 507.785156 397.285156 517.285156 387.785156 529 387.785156 C 540.714844 387.785156 550.214844 397.285156 550.214844 409 "/>
</g>
</svg>
