<?xml version="1.0" encoding="UTF-8"?>
<svg xmlns="http://www.w3.org/2000/svg" xmlns:xlink="http://www.w3.org/1999/xlink" width="1179pt" height="517pt" viewBox="0 0 1179 517" version="1.1">
<g id="surface1241">
<rect x="0" y="0" width="1179" height="517" style="fill:rgb(90%,90%,90%);fill-opacity:1;stroke:none;"/>
<path style="fill-rule:nonzero;fill:rgb(55%,51%,53%);fill-opacity:1;stroke-width:1;stroke-linecap:butt;stroke-linejoin:miter;stroke:rgb(0%,0%,0%);stroke-opacity:1;stroke-miterlimit:10;" d="M 635.214844 419 C 635.214844 430.714844 625.714844 440.214844 614 440.214844 C 602.285156 440.214844 592.785156 430.714844 592.785156 419 C 592.785156 407.285156 602.285156 397.785156 614 397.785156 C 625.714844 397.785156 635.214844 407.285156 635.214844 419 "/>
<path style="fill-rule:nonzero;fill:rgb(55%,51%,53%);fill-opacity:1;stroke-width:1;stroke-linecap:butt;stroke-linejoin:miter;stroke:rgb(0%,0%,0%);stroke-opacity:1;stroke-miterlimit:10;" d="M 1047.214844 237 C 1047.214844 248.714844 1037.714844 258.214844 1026 258.214844 C 1014.285156 258.214844 1004.785156 248.714844 1004.785156 237 C 1004.785156 225.285156 1014.285156 215.785156 1026 215.785156 C 1037.714844 215.785156 1047.214844 225.285156 1047.214844 237 "/>
<path style="fill-rule:nonzero;fill:rgb(55%,51%,53%);fill-opacity:1;stroke-width:1;stroke-linecap:butt;stroke-linejoin:miter;stroke:rgb(0%,0%,0%);stroke-opacity:1;stroke-miterlimit:10;" d="M 845.214844 317 C 845.214844 328.714844 835.714844 338.214844 824 338.214844 C 812.285156 338.214844 802.785156 328.714844 802.785156 317 C 802.785156 305.285156 812.285156 295.785156 824 295.785156 C 835.714844 295.785156 845.214844 305.285156 845.214844 317 "/>
<path style="fill-rule:nonzero;fill:rgb(55%,51%,53%);fill-opacity:1;stroke-width:1;stroke-linecap:butt;stroke-linejoin:miter;stroke:rgb(0%,0%,0%);stroke-opacity:1;stroke-miterlimit:10;" d="M 299.214844 190 C 299.214844 201.714844 289.714844 211.214844 278 211.214844 C 266.285156 211.214844 256.785156 201.714844 256.785156 190 C 256.785156 178.285156 266.285156 168.785156 278 168.785156 C 289.714844 168.785156 299.214844 178.285156 299.214844 190 "/>
<path style="fill-rule:nonzero;fill:rgb(35%,70%,90%);fill-opacity:1;stroke-width:1;stroke-linecap:butt;stroke-linejoin:miter;stroke:rgb(0%,0%,0%);stroke-opacity:1;stroke-miterlimit:10;" d="M 620 231 L 594.019531 276 L 645.980469 276 L 620 231 "/>
<path style="fill-rule:nonzero;fill:rgb(35%,70%,90%);fill-opacity:1;stroke-width:1;stroke-linecap:butt;stroke-linejoin:miter;stroke:rgb(0%,0%,0%);stroke-opacity:1;stroke-miterlimit:10;" d="M 755 143 L 729.019531 188 L 780.980469 188 L 755 143 "/>
<path style="fill-rule:nonzero;fill:rgb(35%,70%,90%);fill-opacity:1;stroke-width:1;stroke-linecap:butt;stroke-linejoin:miter;stroke:rgb(0%,0%,0%);stroke-opacity:1;stroke-miterlimit:10;" d="M 116 354 L 90.019531 399 L 141.980469 399 L 116 354 "/>
</g>
</svg>
