<?xml version="1.0" encoding="UTF-8"?>
<svg xmlns="http://www.w3.org/2000/svg" xmlns:xlink="http://www.w3.org/1999/xlink" width="1179pt" height="517pt" viewBox="0 0 1179 517" version="1.1">
<g id="surface1131">
<rect x="0" y="0" width="1179" height="517" style="fill:rgb(90%,90%,90%);fill-opacity:1;stroke:none;"/>
<path style="fill-rule:nonzero;fill:rgb(100%,51%,0%);fill-opacity:1;stroke-width:1;stroke-linecap:butt;stroke-linejoin:miter;stroke:rgb(0%,0%,0%);stroke-opacity:1;stroke-miterlimit:10;" d="M 515 102 L 544.664062 102 L 556.664062 73.785156 L 568.664062 102 L 598.332031 102 L 574.332031 119.4375 L 582.417969 150.980469 L 556.664062 133.542969 L 530.914062 150.980469 L 543.214844 119.4375 L 515 102 "/>
<path style="fill-rule:nonzero;fill:rgb(100%,51%,0%);fill-opacity:1;stroke-width:1;stroke-linecap:butt;stroke-linejoin:miter;stroke:rgb(0%,0%,0%);stroke-opacity:1;stroke-miterlimit:10;" d="M 264 431 L 293.664062 431 L 305.664062 402.785156 L 317.664062 431 L 347.332031 431 L 323.332031 448.4375 L 331.417969 479.980469 L 305.664062 462.542969 L 279.914062 479.980469 L 292.214844 448.4375 L 264 431 "/>
<path style="fill-rule:nonzero;fill:rgb(100%,51%,0%);fill-opacity:1;stroke-width:1;stroke-linecap:butt;stroke-linejoin:miter;stroke:rgb(0%,0%,0%);stroke-opacity:1;stroke-miterlimit:10;" d="M 891 188 L 920.664062 188 L 932.664062 159.785156 L 944.664062 188 L 974.332031 188 L 950.332031 205.4375 L 958.417969 236.980469 L 932.664062 219.542969 L 906.914062 236.980469 L 919.214844 205.4375 L 891 188 "/>
<path style="fill-rule:nonzero;fill:rgb(100%,51%,0%);fill-opacity:1;stroke-width:1;stroke-linecap:butt;stroke-linejoin:miter;stroke:rgb(0%,0%,0%);stroke-opacity:1;stroke-miterlimit:10;" d="M 175 233 L 204.664062 233 L 216.664062 204.785156 L 228.664062 233 L 258.332031 233 L 234.332031 250.4375 L 242.417969 281.980469 L 216.664062 264.542969 L 190.914062 281.980469 L 203.214844 250.4375 L 175 233 "/>
<path style="fill-rule:nonzero;fill:rgb(55%,51%,53%);fill-opacity:1;stroke-width:1;stroke-linecap:butt;stroke-linejoin:miter;stroke:rgb(0%,0%,0%);stroke-opacity:1;stroke-miterlimit:10;" d="M 496.214844 347 C 496.214844 358.714844 486.714844 368.214844 475 368.214844 C 463.285156 368.214844 453.785156 358.714844 453.785156 347 C 453.785156 335.285156 463.285156 325.785156 475 325.785156 C 486.714844 325.785156 496.214844 335.285156 496.214844 347 "/>
<path style="fill-rule:nonzero;fill:rgb(55%,51%,53%);fill-opacity:1;stroke-width:1;stroke-linecap:butt;stroke-linejoin:miter;stroke:rgb(0%,0%,0%);stroke-opacity:1;stroke-miterlimit:10;" d="M 436.214844 238 C 436.214844 249.714844 426.714844 259.214844 415 259.214844 C 403.285156 259.214844 393.785156 249.714844 393.785156 238 C 393.785156 226.285156 403.285156 216.785156 415 216.785156 C 426.714844 216.785156 436.214844 226.285156 436.214844 238 "/>
<path style="fill-rule:nonzero;fill:rgb(55%,51%,53%);fill-opacity:1;stroke-width:1;stroke-linecap:butt;stroke-linejoin:miter;stroke:rgb(0%,0%,0%);stroke-opacity:1;stroke-miterlimit:10;" d="M 1040.214844 97 C 1040.214844 108.714844 1030.714844 118.214844 1019 118.214844 C 1007.285156 118.214844 997.785156 108.714844 997.785156 97 C 997.785156 85.285156 1007.285156 75.785156 1019 75.785156 C 1030.714844 75.785156 1040.214844 85.285156 1040.214844 97 "/>
<path style="fill-rule:nonzero;fill:rgb(55%,51%,53%);fill-opacity:1;stroke-width:1;stroke-linecap:butt;stroke-linejoin:miter;stroke:rgb(0%,0%,0%);stroke-opacity:1;stroke-miterlimit:10;" d="M 926.214844 399 C 926.214844 410.714844 916.714844 420.214844 905 420.214844 C 893.285156 420.214844 883.785156 410.714844 883.785156 399 C 883.785156 387.285156 893.285156 377.785156 905 377.785156 C 916.714844 377.785156 926.214844 387.285156 926.214844 399 "/>
<path style="fill-rule:nonzero;fill:rgb(55%,51%,53%);fill-opacity:1;stroke-width:1;stroke-linecap:butt;stroke-linejoin:miter;stroke:rgb(0%,0%,0%);stroke-opacity:1;stroke-miterlimit:10;" d="M 109.214844 386 C 109.214844 397.714844 99.714844 407.214844 88 407.214844 C 76.285156 407.214844 66.785156 397.714844 66.785156 386 C 66.785156 374.285156 76.285156 364.785156 88 364.785156 C 99.714844 364.785156 109.214844 374.285156 109.214844 386 "/>
</g>
</svg>
