<?xml version="1.0" encoding="UTF-8"?>
<svg xmlns="http://www.w3.org/2000/svg" xmlns:xlink="http://www.w3.org/1999/xlink" width="1179pt" height="517pt" viewBox="0 0 1179 517" version="1.1">
<g id="surface891">
<rect x="0" y="0" width="1179" height="517" style="fill:rgb(90%,90%,90%);fill-opacity:1;stroke:none;"/>
<path style="fill-rule:nonzero;fill:rgb(100%,0%,0%);fill-opacity:1;stroke-width:1;stroke-linecap:butt;stroke-linejoin:miter;stroke:rgb(0%,0%,0%);stroke-opacity:1;stroke-miterlimit:10;" d="M 710 120.601562 C 710 106.199219 686 106.199219 686 120.601562 C 686 135 710 137.398438 710 149.398438 C 710 137.398438 734 135 734 120.601562 C 734 106.199219 710 106.199219 710 120.601562 "/>
<path style="fill-rule:nonzero;fill:rgb(100%,0%,0%);fill-opacity:1;stroke-width:1;stroke-linecap:butt;stroke-linejoin:miter;stroke:rgb(0%,0%,0%);stroke-opacity:1;stroke-miterlimit:10;" d="M 254 365.601562 C 254 351.199219 230 351.199219 230 365.601562 C 230 380 254 382.398438 254 394.398438 C 254 382.398438 278 380 278 365.601562 C 278 351.199219 254 351.199219 254 365.601562 "/>
<path style="fill-rule:nonzero;fill:rgb(100%,0%,0%);fill-opacity:1;stroke-width:1;stroke-linecap:butt;stroke-linejoin:miter;stroke:rgb(0%,0%,0%);stroke-opacity:1;stroke-miterlimit:10;" d="M 953 196.601562 C 953 182.199219 929 182.199219 929 196.601562 C 929 211 953 213.398438 953 225.398438 C 953 213.398438 977 211 977 196.601562 C 977 182.199219 953 182.199219 953 196.601562 "/>
<path style="fill-rule:nonzero;fill:rgb(100%,0%,0%);fill-opacity:1;stroke-width:1;stroke-linecap:butt;stroke-linejoin:miter;stroke:rgb(0%,0%,0%);stroke-opacity:1;stroke-miterlimit:10;" d="M 483 331.601562 C 483 317.199219 459 317.199219 459 331.601562 C 459 346 483 348.398438 483 360.398438 C 483 348.398438 507 346 507 331.601562 C 507 317.199219 483 317.199219 483 331.601562 "/>
<path style="fill-rule:nonzero;fill:rgb(0%,0%,0%);fill-opacity:1;stroke-width:1;stroke-linecap:butt;stroke-linejoin:miter;stroke:rgb(0%,0%,0%);stroke-opacity:1;stroke-miterlimit:10;" d="M 411 148 L 391 148 L 391 158 L 411 158 L 411 178 L 421 178 L 421 158 L 441 158 L 441 148 L 421 148 L 421 128 L 411 128 L 411 148 "/>
<path style="fill-rule:nonzero;fill:rgb(0%,0%,0%);fill-opacity:1;stroke-width:1;stroke-linecap:butt;stroke-linejoin:miter;stroke:rgb(0%,0%,0%);stroke-opacity:1;stroke-miterlimit:10;" d="M 593 218 L 573 218 L 573 228 L 593 228 L 593 248 L 603 248 L 603 228 L 623 228 L 623 218 L 603 218 L 603 198 L 593 198 L 593 218 "/>
<path style="fill-rule:nonzero;fill:rgb(0%,0%,0%);fill-opacity:1;stroke-width:1;stroke-linecap:butt;stroke-linejoin:miter;stroke:rgb(0%,0%,0%);stroke-opacity:1;stroke-miterlimit:10;" d="M 821 297 L 801 297 L 801 307 L 821 307 L 821 327 L 831 327 L 831 307 L 851 307 L 851 297 L 831 297 L 831 277 L 821 277 L 821 297 "/>
<path style="fill-rule:nonzero;fill:rgb(0%,0%,0%);fill-opacity:1;stroke-width:1;stroke-linecap:butt;stroke-linejoin:miter;stroke:rgb(0%,0%,0%);stroke-opacity:1;stroke-miterlimit:10;" d="M 858 118 L 838 118 L 838 128 L 858 128 L 858 148 L 868 148 L 868 128 L 888 128 L 888 118 L 868 118 L 868 98 L 858 98 L 858 118 "/>
</g>
</svg>
