<?xml version="1.0" encoding="UTF-8"?>
<svg xmlns="http://www.w3.org/2000/svg" xmlns:xlink="http://www.w3.org/1999/xlink" width="1179pt" height="517pt" viewBox="0 0 1179 517" version="1.1">
<g id="surface1161">
<rect x="0" y="0" width="1179" height="517" style="fill:rgb(90%,90%,90%);fill-opacity:1;stroke:none;"/>
<path style="fill-rule:nonzero;fill:rgb(55%,51%,53%);fill-opacity:1;stroke-width:1;stroke-linecap:butt;stroke-linejoin:miter;stroke:rgb(0%,0%,0%);stroke-opacity:1;stroke-miterlimit:10;" d="M 662 207 L 691.664062 207 L 703.664062 178.785156 L 715.664062 207 L 745.332031 207 L 721.332031 224.4375 L 729.417969 255.980469 L 703.664062 238.542969 L 677.914062 255.980469 L 690.214844 224.4375 L 662 207 "/>
<path style="fill-rule:nonzero;fill:rgb(55%,51%,53%);fill-opacity:1;stroke-width:1;stroke-linecap:butt;stroke-linejoin:miter;stroke:rgb(0%,0%,0%);stroke-opacity:1;stroke-miterlimit:10;" d="M 651 392 L 680.664062 392 L 692.664062 363.785156 L 704.664062 392 L 734.332031 392 L 710.332031 409.4375 L 718.417969 440.980469 L 692.664062 423.542969 L 666.914062 440.980469 L 679.214844 409.4375 L 651 392 "/>
<path style="fill-rule:nonzero;fill:rgb(55%,51%,53%);fill-opacity:1;stroke-width:1;stroke-linecap:butt;stroke-linejoin:miter;stroke:rgb(0%,0%,0%);stroke-opacity:1;stroke-miterlimit:10;" d="M 379 282 L 408.664062 282 L 420.664062 253.785156 L 432.664062 282 L 462.332031 282 L 438.332031 299.4375 L 446.417969 330.980469 L 420.664062 313.542969 L 394.914062 330.980469 L 407.214844 299.4375 L 379 282 "/>
<path style="fill-rule:nonzero;fill:rgb(55%,51%,53%);fill-opacity:1;stroke-width:1;stroke-linecap:butt;stroke-linejoin:miter;stroke:rgb(0%,0%,0%);stroke-opacity:1;stroke-miterlimit:10;" d="M 447 407 L 476.664062 407 L 488.664062 378.785156 L 500.664062 407 L 530.332031 407 L 506.332031 424.4375 L 514.417969 455.980469 L 488.664062 438.542969 L 462.914062 455.980469 L 475.214844 424.4375 L 447 407 "/>
<path style="fill-rule:nonzero;fill:rgb(100%,51%,0%);fill-opacity:1;stroke-width:1;stroke-linecap:butt;stroke-linejoin:miter;stroke:rgb(0%,0%,0%);stroke-opacity:1;stroke-miterlimit:10;" d="M 417.214844 117 C 417.214844 128.714844 407.714844 138.214844 396 138.214844 C 384.285156 138.214844 374.785156 128.714844 374.785156 117 C 374.785156 105.285156 384.285156 95.785156 396 95.785156 C 407.714844 95.785156 417.214844 105.285156 417.214844 117 "/>
<path style="fill-rule:nonzero;fill:rgb(100%,51%,0%);fill-opacity:1;stroke-width:1;stroke-linecap:butt;stroke-linejoin:miter;stroke:rgb(0%,0%,0%);stroke-opacity:1;stroke-miterlimit:10;" d="M 105.214844 302 C 105.214844 313.714844 95.714844 323.214844 84 323.214844 C 72.285156 323.214844 62.785156 313.714844 62.785156 302 C 62.785156 290.285156 72.285156 280.785156 84 280.785156 C 95.714844 280.785156 105.214844 290.285156 105.214844 302 "/>
<path style="fill-rule:nonzero;fill:rgb(100%,51%,0%);fill-opacity:1;stroke-width:1;stroke-linecap:butt;stroke-linejoin:miter;stroke:rgb(0%,0%,0%);stroke-opacity:1;stroke-miterlimit:10;" d="M 990.214844 213 C 990.214844 224.714844 980.714844 234.214844 969 234.214844 C 957.285156 234.214844 947.785156 224.714844 947.785156 213 C 947.785156 201.285156 957.285156 191.785156 969 191.785156 C 980.714844 191.785156 990.214844 201.285156 990.214844 213 "/>
<path style="fill-rule:nonzero;fill:rgb(100%,51%,0%);fill-opacity:1;stroke-width:1;stroke-linecap:butt;stroke-linejoin:miter;stroke:rgb(0%,0%,0%);stroke-opacity:1;stroke-miterlimit:10;" d="M 848.214844 83 C 848.214844 94.714844 838.714844 104.214844 827 104.214844 C 815.285156 104.214844 805.785156 94.714844 805.785156 83 C 805.785156 71.285156 815.285156 61.785156 827 61.785156 C 838.714844 61.785156 848.214844 71.285156 848.214844 83 "/>
<path style="fill-rule:nonzero;fill:rgb(100%,51%,0%);fill-opacity:1;stroke-width:1;stroke-linecap:butt;stroke-linejoin:miter;stroke:rgb(0%,0%,0%);stroke-opacity:1;stroke-miterlimit:10;" d="M 1026.214844 354 C 1026.214844 365.714844 1016.714844 375.214844 1005 375.214844 C 993.285156 375.214844 983.785156 365.714844 983.785156 354 C 983.785156 342.285156 993.285156 332.785156 1005 332.785156 C 1016.714844 332.785156 1026.214844 342.285156 1026.214844 354 "/>
</g>
</svg>
