<?xml version="1.0" encoding="UTF-8"?>
<svg xmlns="http://www.w3.org/2000/svg" xmlns:xlink="http://www.w3.org/1999/xlink" width="1179pt" height="517pt" viewBox="0 0 1179 517" version="1.1">
<g id="surface746">
<rect x="0" y="0" width="1179" height="517" style="fill:rgb(90%,90%,90%);fill-opacity:1;stroke:none;"/>
<path style="fill-rule:nonzero;fill:rgb(35%,70%,90%);fill-opacity:1;stroke-width:1;stroke-linecap:butt;stroke-linejoin:miter;stroke:rgb(0%,0%,0%);stroke-opacity:1;stroke-miterlimit:10;" d="M 1008.214844 409 C 1008.214844 420.714844 998.714844 430.214844 987 430.214844 C 975.285156 430.214844 965.785156 420.714844 965.785156 409 C 965.785156 397.285156 975.285156 387.785156 987 387.785156 C 998.714844 387.785156 1008.214844 397.285156 1008.214844 409 "/>
<path style="fill-rule:nonzero;fill:rgb(35%,70%,90%);fill-opacity:1;stroke-width:1;stroke-linecap:butt;stroke-linejoin:miter;stroke:rgb(0%,0%,0%);stroke-opacity:1;stroke-miterlimit:10;" d="M 784.214844 340 C 784.214844 351.714844 774.714844 361.214844 763 361.214844 C 751.285156 361.214844 741.785156 351.714844 741.785156 340 C 741.785156 328.285156 751.285156 318.785156 763 318.785156 C 774.714844 318.785156 784.214844 328.285156 784.214844 340 "/>
<path style="fill-rule:nonzero;fill:rgb(35%,70%,90%);fill-opacity:1;stroke-width:1;stroke-linecap:butt;stroke-linejoin:miter;stroke:rgb(0%,0%,0%);stroke-opacity:1;stroke-miterlimit:10;" d="M 212.214844 100 C 212.214844 111.714844 202.714844 121.214844 191 121.214844 C 179.285156 121.214844 169.785156 111.714844 169.785156 100 C 169.785156 88.285156 179.285156 78.785156 191 78.785156 C 202.714844 78.785156 212.214844 88.285156 212.214844 100 "/>
<path style="fill-rule:nonzero;fill:rgb(35%,70%,90%);fill-opacity:1;stroke-width:1;stroke-linecap:butt;stroke-linejoin:miter;stroke:rgb(0%,0%,0%);stroke-opacity:1;stroke-miterlimit:10;" d="M 362.214844 346 C 362.214844 357.714844 352.714844 367.214844 341 367.214844 C 329.285156 367.214844 319.785156 357.714844 319.785156 346 C 319.785156 334.285156 329.285156 324.785156 341 324.785156 C 352.714844 324.785156 362.214844 334.285156 362.214844 346 "/>
<path style="fill-rule:nonzero;fill:rgb(67%,100%,18%);fill-opacity:1;stroke-width:1;stroke-linecap:butt;stroke-linejoin:miter;stroke:rgb(0%,0%,0%);stroke-opacity:1;stroke-miterlimit:10;" d="M 636 229 L 665.664062 229 L 677.664062 200.785156 L 689.664062 229 L 719.332031 229 L 695.332031 246.4375 L 703.417969 277.980469 L 677.664062 260.542969 L 651.914062 277.980469 L 664.214844 246.4375 L 636 229 "/>
<path style="fill-rule:nonzero;fill:rgb(67%,100%,18%);fill-opacity:1;stroke-width:1;stroke-linecap:butt;stroke-linejoin:miter;stroke:rgb(0%,0%,0%);stroke-opacity:1;stroke-miterlimit:10;" d="M 647 409 L 676.664062 409 L 688.664062 380.785156 L 700.664062 409 L 730.332031 409 L 706.332031 426.4375 L 714.417969 457.980469 L 688.664062 440.542969 L 662.914062 457.980469 L 675.214844 426.4375 L 647 409 "/>
<path style="fill-rule:nonzero;fill:rgb(67%,100%,18%);fill-opacity:1;stroke-width:1;stroke-linecap:butt;stroke-linejoin:miter;stroke:rgb(0%,0%,0%);stroke-opacity:1;stroke-miterlimit:10;" d="M 124 390 L 153.664062 390 L 165.664062 361.785156 L 177.664062 390 L 207.332031 390 L 183.332031 407.4375 L 191.417969 438.980469 L 165.664062 421.542969 L 139.914062 438.980469 L 152.214844 407.4375 L 124 390 "/>
<path style="fill-rule:nonzero;fill:rgb(67%,100%,18%);fill-opacity:1;stroke-width:1;stroke-linecap:butt;stroke-linejoin:miter;stroke:rgb(0%,0%,0%);stroke-opacity:1;stroke-miterlimit:10;" d="M 885 316 L 914.664062 316 L 926.664062 287.785156 L 938.664062 316 L 968.332031 316 L 944.332031 333.4375 L 952.417969 364.980469 L 926.664062 347.542969 L 900.914062 364.980469 L 913.214844 333.4375 L 885 316 "/>
<path style="fill-rule:nonzero;fill:rgb(67%,100%,18%);fill-opacity:1;stroke-width:1;stroke-linecap:butt;stroke-linejoin:miter;stroke:rgb(0%,0%,0%);stroke-opacity:1;stroke-miterlimit:10;" d="M 109 249 L 138.664062 249 L 150.664062 220.785156 L 162.664062 249 L 192.332031 249 L 168.332031 266.4375 L 176.417969 297.980469 L 150.664062 280.542969 L 124.914062 297.980469 L 137.214844 266.4375 L 109 249 "/>
</g>
</svg>
