<?xml version="1.0" encoding="UTF-8"?>
<svg xmlns="http://www.w3.org/2000/svg" xmlns:xlink="http://www.w3.org/1999/xlink" width="1179pt" height="517pt" viewBox="0 0 1179 517" version="1.1">
<g id="surface41">
<rect x="0" y="0" width="1179" height="517" style="fill:rgb(90%,90%,90%);fill-opacity:1;stroke:none;"/>
<path style="fill-rule:nonzero;fill:rgb(35%,70%,90%);fill-opacity:1;stroke-width:1;stroke-linecap:butt;stroke-linejoin:miter;stroke:rgb(0%,0%,0%);stroke-opacity:1;stroke-miterlimit:10;" d="M 386 424 L 415.664062 424 L 427.664062 395.785156 L 439.664062 424 L 469.332031 424 L 445.332031 441.4375 L 453.417969 472.980469 L 427.664062 455.542969 L 401.914062 472.980469 L 414.214844 441.4375 L 386 424 "/>
<path style="fill-rule:nonzero;fill:rgb(35%,70%,90%);fill-opacity:1;stroke-width:1;stroke-linecap:butt;stroke-linejoin:miter;stroke:rgb(0%,0%,0%);stroke-opacity:1;stroke-miterlimit:10;" d="M 360 324 L 389.664062 324 L 401.664062 295.785156 L 413.664062 324 L 443.332031 324 L 419.332031 341.4375 L 427.417969 372.980469 L 401.664062 355.542969 L 375.914062 372.980469 L 388.214844 341.4375 L 360 324 "/>
<path style="fill-rule:nonzero;fill:rgb(35%,70%,90%);fill-opacity:1;stroke-width:1;stroke-linecap:butt;stroke-linejoin:miter;stroke:rgb(0%,0%,0%);stroke-opacity:1;stroke-miterlimit:10;" d="M 148 390 L 177.664062 390 L 189.664062 361.785156 L 201.664062 390 L 231.332031 390 L 207.332031 407.4375 L 215.417969 438.980469 L 189.664062 421.542969 L 163.914062 438.980469 L 176.214844 407.4375 L 148 390 "/>
<path style="fill-rule:nonzero;fill:rgb(53%,27%,7%);fill-opacity:1;stroke-width:1;stroke-linecap:butt;stroke-linejoin:miter;stroke:rgb(0%,0%,0%);stroke-opacity:1;stroke-miterlimit:10;" d="M 874.785156 292.785156 L 874.785156 335.214844 L 917.214844 335.214844 L 917.214844 292.785156 L 874.785156 292.785156 "/>
<path style="fill-rule:nonzero;fill:rgb(53%,27%,7%);fill-opacity:1;stroke-width:1;stroke-linecap:butt;stroke-linejoin:miter;stroke:rgb(0%,0%,0%);stroke-opacity:1;stroke-miterlimit:10;" d="M 980.785156 392.785156 L 980.785156 435.214844 L 1023.214844 435.214844 L 1023.214844 392.785156 L 980.785156 392.785156 "/>
<path style="fill-rule:nonzero;fill:rgb(53%,27%,7%);fill-opacity:1;stroke-width:1;stroke-linecap:butt;stroke-linejoin:miter;stroke:rgb(0%,0%,0%);stroke-opacity:1;stroke-miterlimit:10;" d="M 834.785156 203.785156 L 834.785156 246.214844 L 877.214844 246.214844 L 877.214844 203.785156 L 834.785156 203.785156 "/>
<path style="fill-rule:nonzero;fill:rgb(53%,27%,7%);fill-opacity:1;stroke-width:1;stroke-linecap:butt;stroke-linejoin:miter;stroke:rgb(0%,0%,0%);stroke-opacity:1;stroke-miterlimit:10;" d="M 693 127 L 722.664062 127 L 734.664062 98.785156 L 746.664062 127 L 776.332031 127 L 752.332031 144.4375 L 760.417969 175.980469 L 734.664062 158.542969 L 708.914062 175.980469 L 721.214844 144.4375 L 693 127 "/>
</g>
</svg>
