<?xml version="1.0" encoding="UTF-8"?>
<svg xmlns="http://www.w3.org/2000/svg" xmlns:xlink="http://www.w3.org/1999/xlink" width="1179pt" height="517pt" viewBox="0 0 1179 517" version="1.1">
<g id="surface291">
<rect x="0" y="0" width="1179" height="517" style="fill:rgb(90%,90%,90%);fill-opacity:1;stroke:none;"/>
<path style="fill-rule:nonzero;fill:rgb(100%,51%,0%);fill-opacity:1;stroke-width:1;stroke-linecap:butt;stroke-linejoin:miter;stroke:rgb(0%,0%,0%);stroke-opacity:1;stroke-miterlimit:10;" d="M 322.214844 186 C 322.214844 197.714844 312.714844 207.214844 301 207.214844 C 289.285156 207.214844 279.785156 197.714844 279.785156 186 C 279.785156 174.285156 289.285156 164.785156 301 164.785156 C 312.714844 164.785156 322.214844 174.285156 322.214844 186 "/>
<path style="fill-rule:nonzero;fill:rgb(100%,51%,0%);fill-opacity:1;stroke-width:1;stroke-linecap:butt;stroke-linejoin:miter;stroke:rgb(0%,0%,0%);stroke-opacity:1;stroke-miterlimit:10;" d="M 239.785156 339.785156 L 239.785156 382.214844 L 282.214844 382.214844 L 282.214844 339.785156 L 239.785156 339.785156 "/>
<path style="fill-rule:nonzero;fill:rgb(100%,51%,0%);fill-opacity:1;stroke-width:1;stroke-linecap:butt;stroke-linejoin:miter;stroke:rgb(0%,0%,0%);stroke-opacity:1;stroke-miterlimit:10;" d="M 372.785156 355.785156 L 372.785156 398.214844 L 415.214844 398.214844 L 415.214844 355.785156 L 372.785156 355.785156 "/>
<path style="fill-rule:nonzero;fill:rgb(100%,51%,0%);fill-opacity:1;stroke-width:1;stroke-linecap:butt;stroke-linejoin:miter;stroke:rgb(0%,0%,0%);stroke-opacity:1;stroke-miterlimit:10;" d="M 432.214844 146 C 432.214844 157.714844 422.714844 167.214844 411 167.214844 C 399.285156 167.214844 389.785156 157.714844 389.785156 146 C 389.785156 134.285156 399.285156 124.785156 411 124.785156 C 422.714844 124.785156 432.214844 134.285156 432.214844 146 "/>
<path style="fill-rule:nonzero;fill:rgb(100%,51%,0%);fill-opacity:1;stroke-width:1;stroke-linecap:butt;stroke-linejoin:miter;stroke:rgb(0%,0%,0%);stroke-opacity:1;stroke-miterlimit:10;" d="M 136.214844 174 C 136.214844 185.714844 126.714844 195.214844 115 195.214844 C 103.285156 195.214844 93.785156 185.714844 93.785156 174 C 93.785156 162.285156 103.285156 152.785156 115 152.785156 C 126.714844 152.785156 136.214844 162.285156 136.214844 174 "/>
<path style="fill-rule:nonzero;fill:rgb(53%,27%,7%);fill-opacity:1;stroke-width:1;stroke-linecap:butt;stroke-linejoin:miter;stroke:rgb(0%,0%,0%);stroke-opacity:1;stroke-miterlimit:10;" d="M 1007.785156 295.785156 L 1007.785156 338.214844 L 1050.214844 338.214844 L 1050.214844 295.785156 L 1007.785156 295.785156 "/>
<path style="fill-rule:nonzero;fill:rgb(53%,27%,7%);fill-opacity:1;stroke-width:1;stroke-linecap:butt;stroke-linejoin:miter;stroke:rgb(0%,0%,0%);stroke-opacity:1;stroke-miterlimit:10;" d="M 757.214844 388 C 757.214844 399.714844 747.714844 409.214844 736 409.214844 C 724.285156 409.214844 714.785156 399.714844 714.785156 388 C 714.785156 376.285156 724.285156 366.785156 736 366.785156 C 747.714844 366.785156 757.214844 376.285156 757.214844 388 "/>
<path style="fill-rule:nonzero;fill:rgb(53%,27%,7%);fill-opacity:1;stroke-width:1;stroke-linecap:butt;stroke-linejoin:miter;stroke:rgb(0%,0%,0%);stroke-opacity:1;stroke-miterlimit:10;" d="M 1048.214844 150 C 1048.214844 161.714844 1038.714844 171.214844 1027 171.214844 C 1015.285156 171.214844 1005.785156 161.714844 1005.785156 150 C 1005.785156 138.285156 1015.285156 128.785156 1027 128.785156 C 1038.714844 128.785156 1048.214844 138.285156 1048.214844 150 "/>
<path style="fill-rule:nonzero;fill:rgb(53%,27%,7%);fill-opacity:1;stroke-width:1;stroke-linecap:butt;stroke-linejoin:miter;stroke:rgb(0%,0%,0%);stroke-opacity:1;stroke-miterlimit:10;" d="M 914.785156 191.785156 L 914.785156 234.214844 L 957.214844 234.214844 L 957.214844 191.785156 L 914.785156 191.785156 "/>
</g>
</svg>
