<?xml version="1.0" encoding="UTF-8"?>
<svg xmlns="http://www.w3.org/2000/svg" xmlns:xlink="http://www.w3.org/1999/xlink" width="1179pt" height="517pt" viewBox="0 0 1179 517" version="1.1">
<g id="surface746">
<rect x="0" y="0" width="1179" height="517" style="fill:rgb(90%,90%,90%);fill-opacity:1;stroke:none;"/>
<path style="fill-rule:nonzero;fill:rgb(35%,70%,90%);fill-opacity:1;stroke-width:1;stroke-linecap:butt;stroke-linejoin:miter;stroke:rgb(0%,0%,0%);stroke-opacity:1;stroke-miterlimit:10;" d="M 415.214844 359 C 415.214844 370.714844 405.714844 380.214844 394 380.214844 C 382.285156 380.214844 372.785156 370.714844 372.785156 359 C 372.785156 347.285156 382.285156 337.785156 394 337.785156 C 405.714844 337.785156 415.214844 347.285156 415.214844 359 "/>
<path style="fill-rule:nonzero;fill:rgb(35%,70%,90%);fill-opacity:1;stroke-width:1;stroke-linecap:butt;stroke-linejoin:miter;stroke:rgb(0%,0%,0%);stroke-opacity:1;stroke-miterlimit:10;" d="M 243 390 L 272.664062 390 L 284.664062 361.785156 L 296.664062 390 L 326.332031 390 L 302.332031 407.4375 L 310.417969 438.980469 L 284.664062 421.542969 L 258.914062 438.980469 L 271.214844 407.4375 L 243 390 "/>
<path style="fill-rule:nonzero;fill:rgb(35%,70%,90%);fill-opacity:1;stroke-width:1;stroke-linecap:butt;stroke-linejoin:miter;stroke:rgb(0%,0%,0%);stroke-opacity:1;stroke-miterlimit:10;" d="M 135.214844 125 C 135.214844 136.714844 125.714844 146.214844 114 146.214844 C 102.285156 146.214844 92.785156 136.714844 92.785156 125 C 92.785156 113.285156 102.285156 103.785156 114 103.785156 C 125.714844 103.785156 135.214844 113.285156 135.214844 125 "/>
<path style="fill-rule:nonzero;fill:rgb(35%,70%,90%);fill-opacity:1;stroke-width:1;stroke-linecap:butt;stroke-linejoin:miter;stroke:rgb(0%,0%,0%);stroke-opacity:1;stroke-miterlimit:10;" d="M 326.214844 87 C 326.214844 98.714844 316.714844 108.214844 305 108.214844 C 293.285156 108.214844 283.785156 98.714844 283.785156 87 C 283.785156 75.285156 293.285156 65.785156 305 65.785156 C 316.714844 65.785156 326.214844 75.285156 326.214844 87 "/>
<path style="fill-rule:nonzero;fill:rgb(35%,70%,90%);fill-opacity:1;stroke-width:1;stroke-linecap:butt;stroke-linejoin:miter;stroke:rgb(0%,0%,0%);stroke-opacity:1;stroke-miterlimit:10;" d="M 322.214844 196 C 322.214844 207.714844 312.714844 217.214844 301 217.214844 C 289.285156 217.214844 279.785156 207.714844 279.785156 196 C 279.785156 184.285156 289.285156 174.785156 301 174.785156 C 312.714844 174.785156 322.214844 184.285156 322.214844 196 "/>
<path style="fill-rule:nonzero;fill:rgb(35%,70%,90%);fill-opacity:1;stroke-width:1;stroke-linecap:butt;stroke-linejoin:miter;stroke:rgb(0%,0%,0%);stroke-opacity:1;stroke-miterlimit:10;" d="M 105.214844 294 C 105.214844 305.714844 95.714844 315.214844 84 315.214844 C 72.285156 315.214844 62.785156 305.714844 62.785156 294 C 62.785156 282.285156 72.285156 272.785156 84 272.785156 C 95.714844 272.785156 105.214844 282.285156 105.214844 294 "/>
<path style="fill-rule:nonzero;fill:rgb(35%,70%,90%);fill-opacity:1;stroke-width:1;stroke-linecap:butt;stroke-linejoin:miter;stroke:rgb(0%,0%,0%);stroke-opacity:1;stroke-miterlimit:10;" d="M 766.214844 140 C 766.214844 151.714844 756.714844 161.214844 745 161.214844 C 733.285156 161.214844 723.785156 151.714844 723.785156 140 C 723.785156 128.285156 733.285156 118.785156 745 118.785156 C 756.714844 118.785156 766.214844 128.285156 766.214844 140 "/>
<path style="fill-rule:nonzero;fill:rgb(35%,70%,90%);fill-opacity:1;stroke-width:1;stroke-linecap:butt;stroke-linejoin:miter;stroke:rgb(0%,0%,0%);stroke-opacity:1;stroke-miterlimit:10;" d="M 984 364 L 1013.664062 364 L 1025.664062 335.785156 L 1037.664062 364 L 1067.332031 364 L 1043.332031 381.4375 L 1051.417969 412.980469 L 1025.664062 395.542969 L 999.914062 412.980469 L 1012.214844 381.4375 L 984 364 "/>
<path style="fill-rule:nonzero;fill:rgb(35%,70%,90%);fill-opacity:1;stroke-width:1;stroke-linecap:butt;stroke-linejoin:miter;stroke:rgb(0%,0%,0%);stroke-opacity:1;stroke-miterlimit:10;" d="M 957 271 L 986.664062 271 L 998.664062 242.785156 L 1010.664062 271 L 1040.332031 271 L 1016.332031 288.4375 L 1024.417969 319.980469 L 998.664062 302.542969 L 972.914062 319.980469 L 985.214844 288.4375 L 957 271 "/>
<path style="fill-rule:nonzero;fill:rgb(35%,70%,90%);fill-opacity:1;stroke-width:1;stroke-linecap:butt;stroke-linejoin:miter;stroke:rgb(0%,0%,0%);stroke-opacity:1;stroke-miterlimit:10;" d="M 800.214844 338 C 800.214844 349.714844 790.714844 359.214844 779 359.214844 C 767.285156 359.214844 757.785156 349.714844 757.785156 338 C 757.785156 326.285156 767.285156 316.785156 779 316.785156 C 790.714844 316.785156 800.214844 326.285156 800.214844 338 "/>
<path style="fill-rule:nonzero;fill:rgb(35%,70%,90%);fill-opacity:1;stroke-width:1;stroke-linecap:butt;stroke-linejoin:miter;stroke:rgb(0%,0%,0%);stroke-opacity:1;stroke-miterlimit:10;" d="M 927.214844 134 C 927.214844 145.714844 917.714844 155.214844 906 155.214844 C 894.285156 155.214844 884.785156 145.714844 884.785156 134 C 884.785156 122.285156 894.285156 112.785156 906 112.785156 C 917.714844 112.785156 927.214844 122.285156 927.214844 134 "/>
</g>
</svg>
