<?xml version="1.0" encoding="UTF-8"?>
<svg xmlns="http://www.w3.org/2000/svg" xmlns:xlink="http://www.w3.org/1999/xlink" width="1179pt" height="517pt" viewBox="0 0 1179 517" version="1.1">
<g id="surface1176">
<rect x="0" y="0" width="1179" height="517" style="fill:rgb(90%,90%,90%);fill-opacity:1;stroke:none;"/>
<path style="fill-rule:nonzero;fill:rgb(55%,51%,53%);fill-opacity:1;stroke-width:1;stroke-linecap:butt;stroke-linejoin:miter;stroke:rgb(0%,0%,0%);stroke-opacity:1;stroke-miterlimit:10;" d="M 486 361 L 460.019531 406 L 511.980469 406 L 486 361 "/>
<path style="fill-rule:nonzero;fill:rgb(55%,51%,53%);fill-opacity:1;stroke-width:1;stroke-linecap:butt;stroke-linejoin:miter;stroke:rgb(0%,0%,0%);stroke-opacity:1;stroke-miterlimit:10;" d="M 980 291 L 954.019531 336 L 1005.980469 336 L 980 291 "/>
<path style="fill-rule:nonzero;fill:rgb(55%,51%,53%);fill-opacity:1;stroke-width:1;stroke-linecap:butt;stroke-linejoin:miter;stroke:rgb(0%,0%,0%);stroke-opacity:1;stroke-miterlimit:10;" d="M 783 275 L 757.019531 320 L 808.980469 320 L 783 275 "/>
<path style="fill-rule:nonzero;fill:rgb(55%,51%,53%);fill-opacity:1;stroke-width:1;stroke-linecap:butt;stroke-linejoin:miter;stroke:rgb(0%,0%,0%);stroke-opacity:1;stroke-miterlimit:10;" d="M 916 399 L 890.019531 444 L 941.980469 444 L 916 399 "/>
<path style="fill-rule:nonzero;fill:rgb(55%,51%,53%);fill-opacity:1;stroke-width:1;stroke-linecap:butt;stroke-linejoin:miter;stroke:rgb(0%,0%,0%);stroke-opacity:1;stroke-miterlimit:10;" d="M 200 258 L 174.019531 303 L 225.980469 303 L 200 258 "/>
<path style="fill-rule:nonzero;fill:rgb(35%,70%,90%);fill-opacity:1;stroke-width:1;stroke-linecap:butt;stroke-linejoin:miter;stroke:rgb(0%,0%,0%);stroke-opacity:1;stroke-miterlimit:10;" d="M 897 137 L 926.664062 137 L 938.664062 108.785156 L 950.664062 137 L 980.332031 137 L 956.332031 154.4375 L 964.417969 185.980469 L 938.664062 168.542969 L 912.914062 185.980469 L 925.214844 154.4375 L 897 137 "/>
<path style="fill-rule:nonzero;fill:rgb(35%,70%,90%);fill-opacity:1;stroke-width:1;stroke-linecap:butt;stroke-linejoin:miter;stroke:rgb(0%,0%,0%);stroke-opacity:1;stroke-miterlimit:10;" d="M 653 303 L 682.664062 303 L 694.664062 274.785156 L 706.664062 303 L 736.332031 303 L 712.332031 320.4375 L 720.417969 351.980469 L 694.664062 334.542969 L 668.914062 351.980469 L 681.214844 320.4375 L 653 303 "/>
<path style="fill-rule:nonzero;fill:rgb(35%,70%,90%);fill-opacity:1;stroke-width:1;stroke-linecap:butt;stroke-linejoin:miter;stroke:rgb(0%,0%,0%);stroke-opacity:1;stroke-miterlimit:10;" d="M 346 315 L 375.664062 315 L 387.664062 286.785156 L 399.664062 315 L 429.332031 315 L 405.332031 332.4375 L 413.417969 363.980469 L 387.664062 346.542969 L 361.914062 363.980469 L 374.214844 332.4375 L 346 315 "/>
<path style="fill-rule:nonzero;fill:rgb(35%,70%,90%);fill-opacity:1;stroke-width:1;stroke-linecap:butt;stroke-linejoin:miter;stroke:rgb(0%,0%,0%);stroke-opacity:1;stroke-miterlimit:10;" d="M 647 176 L 676.664062 176 L 688.664062 147.785156 L 700.664062 176 L 730.332031 176 L 706.332031 193.4375 L 714.417969 224.980469 L 688.664062 207.542969 L 662.914062 224.980469 L 675.214844 193.4375 L 647 176 "/>
</g>
</svg>
