<?xml version="1.0" encoding="UTF-8"?>
<svg xmlns="http://www.w3.org/2000/svg" xmlns:xlink="http://www.w3.org/1999/xlink" width="1179pt" height="517pt" viewBox="0 0 1179 517" version="1.1">
<g id="surface1231">
<rect x="0" y="0" width="1179" height="517" style="fill:rgb(90%,90%,90%);fill-opacity:1;stroke:none;"/>
<path style="fill-rule:nonzero;fill:rgb(53%,27%,7%);fill-opacity:1;stroke-width:1;stroke-linecap:butt;stroke-linejoin:miter;stroke:rgb(0%,0%,0%);stroke-opacity:1;stroke-miterlimit:10;" d="M 612.214844 282 C 612.214844 293.714844 602.714844 303.214844 591 303.214844 C 579.285156 303.214844 569.785156 293.714844 569.785156 282 C 569.785156 270.285156 579.285156 260.785156 591 260.785156 C 602.714844 260.785156 612.214844 270.285156 612.214844 282 "/>
<path style="fill-rule:nonzero;fill:rgb(53%,27%,7%);fill-opacity:1;stroke-width:1;stroke-linecap:butt;stroke-linejoin:miter;stroke:rgb(0%,0%,0%);stroke-opacity:1;stroke-miterlimit:10;" d="M 1014.214844 404 C 1014.214844 415.714844 1004.714844 425.214844 993 425.214844 C 981.285156 425.214844 971.785156 415.714844 971.785156 404 C 971.785156 392.285156 981.285156 382.785156 993 382.785156 C 1004.714844 382.785156 1014.214844 392.285156 1014.214844 404 "/>
<path style="fill-rule:nonzero;fill:rgb(53%,27%,7%);fill-opacity:1;stroke-width:1;stroke-linecap:butt;stroke-linejoin:miter;stroke:rgb(0%,0%,0%);stroke-opacity:1;stroke-miterlimit:10;" d="M 464.214844 425 C 464.214844 436.714844 454.714844 446.214844 443 446.214844 C 431.285156 446.214844 421.785156 436.714844 421.785156 425 C 421.785156 413.285156 431.285156 403.785156 443 403.785156 C 454.714844 403.785156 464.214844 413.285156 464.214844 425 "/>
<path style="fill-rule:nonzero;fill:rgb(53%,27%,7%);fill-opacity:1;stroke-width:1;stroke-linecap:butt;stroke-linejoin:miter;stroke:rgb(0%,0%,0%);stroke-opacity:1;stroke-miterlimit:10;" d="M 503.214844 117 C 503.214844 128.714844 493.714844 138.214844 482 138.214844 C 470.285156 138.214844 460.785156 128.714844 460.785156 117 C 460.785156 105.285156 470.285156 95.785156 482 95.785156 C 493.714844 95.785156 503.214844 105.285156 503.214844 117 "/>
<path style="fill-rule:nonzero;fill:rgb(55%,51%,53%);fill-opacity:1;stroke-width:1;stroke-linecap:butt;stroke-linejoin:miter;stroke:rgb(0%,0%,0%);stroke-opacity:1;stroke-miterlimit:10;" d="M 298 132 L 272.019531 177 L 323.980469 177 L 298 132 "/>
<path style="fill-rule:nonzero;fill:rgb(55%,51%,53%);fill-opacity:1;stroke-width:1;stroke-linecap:butt;stroke-linejoin:miter;stroke:rgb(0%,0%,0%);stroke-opacity:1;stroke-miterlimit:10;" d="M 865 59 L 839.019531 104 L 890.980469 104 L 865 59 "/>
<path style="fill-rule:nonzero;fill:rgb(55%,51%,53%);fill-opacity:1;stroke-width:1;stroke-linecap:butt;stroke-linejoin:miter;stroke:rgb(0%,0%,0%);stroke-opacity:1;stroke-miterlimit:10;" d="M 319 285 L 293.019531 330 L 344.980469 330 L 319 285 "/>
</g>
</svg>
