<?xml version="1.0" encoding="UTF-8"?>
<svg xmlns="http://www.w3.org/2000/svg" xmlns:xlink="http://www.w3.org/1999/xlink" width="1179pt" height="517pt" viewBox="0 0 1179 517" version="1.1">
<g id="surface666">
<rect x="0" y="0" width="1179" height="517" style="fill:rgb(90%,90%,90%);fill-opacity:1;stroke:none;"/>
<path style="fill-rule:nonzero;fill:rgb(100%,51%,0%);fill-opacity:1;stroke-width:1;stroke-linecap:butt;stroke-linejoin:miter;stroke:rgb(0%,0%,0%);stroke-opacity:1;stroke-miterlimit:10;" d="M 360 157 L 389.664062 157 L 401.664062 128.785156 L 413.664062 157 L 443.332031 157 L 419.332031 174.4375 L 427.417969 205.980469 L 401.664062 188.542969 L 375.914062 205.980469 L 388.214844 174.4375 L 360 157 "/>
<path style="fill-rule:nonzero;fill:rgb(100%,51%,0%);fill-opacity:1;stroke-width:1;stroke-linecap:butt;stroke-linejoin:miter;stroke:rgb(0%,0%,0%);stroke-opacity:1;stroke-miterlimit:10;" d="M 764 257 L 793.664062 257 L 805.664062 228.785156 L 817.664062 257 L 847.332031 257 L 823.332031 274.4375 L 831.417969 305.980469 L 805.664062 288.542969 L 779.914062 305.980469 L 792.214844 274.4375 L 764 257 "/>
<path style="fill-rule:nonzero;fill:rgb(100%,51%,0%);fill-opacity:1;stroke-width:1;stroke-linecap:butt;stroke-linejoin:miter;stroke:rgb(0%,0%,0%);stroke-opacity:1;stroke-miterlimit:10;" d="M 258 320 L 287.664062 320 L 299.664062 291.785156 L 311.664062 320 L 341.332031 320 L 317.332031 337.4375 L 325.417969 368.980469 L 299.664062 351.542969 L 273.914062 368.980469 L 286.214844 337.4375 L 258 320 "/>
<path style="fill-rule:nonzero;fill:rgb(100%,51%,0%);fill-opacity:1;stroke-width:1;stroke-linecap:butt;stroke-linejoin:miter;stroke:rgb(0%,0%,0%);stroke-opacity:1;stroke-miterlimit:10;" d="M 564 417 L 593.664062 417 L 605.664062 388.785156 L 617.664062 417 L 647.332031 417 L 623.332031 434.4375 L 631.417969 465.980469 L 605.664062 448.542969 L 579.914062 465.980469 L 592.214844 434.4375 L 564 417 "/>
<path style="fill-rule:nonzero;fill:rgb(100%,51%,0%);fill-opacity:1;stroke-width:1;stroke-linecap:butt;stroke-linejoin:miter;stroke:rgb(0%,0%,0%);stroke-opacity:1;stroke-miterlimit:10;" d="M 412 276 L 441.664062 276 L 453.664062 247.785156 L 465.664062 276 L 495.332031 276 L 471.332031 293.4375 L 479.417969 324.980469 L 453.664062 307.542969 L 427.914062 324.980469 L 440.214844 293.4375 L 412 276 "/>
<path style="fill-rule:nonzero;fill:rgb(55%,51%,53%);fill-opacity:1;stroke-width:1;stroke-linecap:butt;stroke-linejoin:miter;stroke:rgb(0%,0%,0%);stroke-opacity:1;stroke-miterlimit:10;" d="M 219 115 L 193.019531 160 L 244.980469 160 L 219 115 "/>
<path style="fill-rule:nonzero;fill:rgb(55%,51%,53%);fill-opacity:1;stroke-width:1;stroke-linecap:butt;stroke-linejoin:miter;stroke:rgb(0%,0%,0%);stroke-opacity:1;stroke-miterlimit:10;" d="M 659 297 L 633.019531 342 L 684.980469 342 L 659 297 "/>
<path style="fill-rule:nonzero;fill:rgb(55%,51%,53%);fill-opacity:1;stroke-width:1;stroke-linecap:butt;stroke-linejoin:miter;stroke:rgb(0%,0%,0%);stroke-opacity:1;stroke-miterlimit:10;" d="M 1022 294 L 996.019531 339 L 1047.980469 339 L 1022 294 "/>
</g>
</svg>
