<?xml version="1.0" encoding="UTF-8"?>
<svg xmlns="http://www.w3.org/2000/svg" xmlns:xlink="http://www.w3.org/1999/xlink" width="1179pt" height="517pt" viewBox="0 0 1179 517" version="1.1">
<g id="surface636">
<rect x="0" y="0" width="1179" height="517" style="fill:rgb(90%,90%,90%);fill-opacity:1;stroke:none;"/>
<path style="fill-rule:nonzero;fill:rgb(100%,51%,0%);fill-opacity:1;stroke-width:1;stroke-linecap:butt;stroke-linejoin:miter;stroke:rgb(0%,0%,0%);stroke-opacity:1;stroke-miterlimit:10;" d="M 712 153 L 741.664062 153 L 753.664062 124.785156 L 765.664062 153 L 795.332031 153 L 771.332031 170.4375 L 779.417969 201.980469 L 753.664062 184.542969 L 727.914062 201.980469 L 740.214844 170.4375 L 712 153 "/>
<path style="fill-rule:nonzero;fill:rgb(100%,51%,0%);fill-opacity:1;stroke-width:1;stroke-linecap:butt;stroke-linejoin:miter;stroke:rgb(0%,0%,0%);stroke-opacity:1;stroke-miterlimit:10;" d="M 997 222 L 1026.664062 222 L 1038.664062 193.785156 L 1050.664062 222 L 1080.332031 222 L 1056.332031 239.4375 L 1064.417969 270.980469 L 1038.664062 253.542969 L 1012.914062 270.980469 L 1025.214844 239.4375 L 997 222 "/>
<path style="fill-rule:nonzero;fill:rgb(100%,51%,0%);fill-opacity:1;stroke-width:1;stroke-linecap:butt;stroke-linejoin:miter;stroke:rgb(0%,0%,0%);stroke-opacity:1;stroke-miterlimit:10;" d="M 801 317 L 830.664062 317 L 842.664062 288.785156 L 854.664062 317 L 884.332031 317 L 860.332031 334.4375 L 868.417969 365.980469 L 842.664062 348.542969 L 816.914062 365.980469 L 829.214844 334.4375 L 801 317 "/>
<path style="fill-rule:nonzero;fill:rgb(100%,51%,0%);fill-opacity:1;stroke-width:1;stroke-linecap:butt;stroke-linejoin:miter;stroke:rgb(0%,0%,0%);stroke-opacity:1;stroke-miterlimit:10;" d="M 259 348 L 288.664062 348 L 300.664062 319.785156 L 312.664062 348 L 342.332031 348 L 318.332031 365.4375 L 326.417969 396.980469 L 300.664062 379.542969 L 274.914062 396.980469 L 287.214844 365.4375 L 259 348 "/>
<path style="fill-rule:nonzero;fill:rgb(53%,27%,7%);fill-opacity:1;stroke-width:1;stroke-linecap:butt;stroke-linejoin:miter;stroke:rgb(0%,0%,0%);stroke-opacity:1;stroke-miterlimit:10;" d="M 155 76 L 129.019531 121 L 180.980469 121 L 155 76 "/>
<path style="fill-rule:nonzero;fill:rgb(53%,27%,7%);fill-opacity:1;stroke-width:1;stroke-linecap:butt;stroke-linejoin:miter;stroke:rgb(0%,0%,0%);stroke-opacity:1;stroke-miterlimit:10;" d="M 485 64 L 459.019531 109 L 510.980469 109 L 485 64 "/>
<path style="fill-rule:nonzero;fill:rgb(53%,27%,7%);fill-opacity:1;stroke-width:1;stroke-linecap:butt;stroke-linejoin:miter;stroke:rgb(0%,0%,0%);stroke-opacity:1;stroke-miterlimit:10;" d="M 867 138 L 841.019531 183 L 892.980469 183 L 867 138 "/>
<path style="fill-rule:nonzero;fill:rgb(53%,27%,7%);fill-opacity:1;stroke-width:1;stroke-linecap:butt;stroke-linejoin:miter;stroke:rgb(0%,0%,0%);stroke-opacity:1;stroke-miterlimit:10;" d="M 290 125 L 264.019531 170 L 315.980469 170 L 290 125 "/>
</g>
</svg>
