<?xml version="1.0" encoding="UTF-8"?>
<svg xmlns="http://www.w3.org/2000/svg" xmlns:xlink="http://www.w3.org/1999/xlink" width="1179pt" height="517pt" viewBox="0 0 1179 517" version="1.1">
<g id="surface131">
<rect x="0" y="0" width="1179" height="517" style="fill:rgb(90%,90%,90%);fill-opacity:1;stroke:none;"/>
<path style="fill-rule:nonzero;fill:rgb(100%,51%,0%);fill-opacity:1;stroke-width:1;stroke-linecap:butt;stroke-linejoin:miter;stroke:rgb(0%,0%,0%);stroke-opacity:1;stroke-miterlimit:10;" d="M 194 170 L 223.664062 170 L 235.664062 141.785156 L 247.664062 170 L 277.332031 170 L 253.332031 187.4375 L 261.417969 218.980469 L 235.664062 201.542969 L 209.914062 218.980469 L 222.214844 187.4375 L 194 170 "/>
<path style="fill-rule:nonzero;fill:rgb(100%,51%,0%);fill-opacity:1;stroke-width:1;stroke-linecap:butt;stroke-linejoin:miter;stroke:rgb(0%,0%,0%);stroke-opacity:1;stroke-miterlimit:10;" d="M 75.785156 296.785156 L 75.785156 339.214844 L 118.214844 339.214844 L 118.214844 296.785156 L 75.785156 296.785156 "/>
<path style="fill-rule:nonzero;fill:rgb(100%,51%,0%);fill-opacity:1;stroke-width:1;stroke-linecap:butt;stroke-linejoin:miter;stroke:rgb(0%,0%,0%);stroke-opacity:1;stroke-miterlimit:10;" d="M 279.785156 108.785156 L 279.785156 151.214844 L 322.214844 151.214844 L 322.214844 108.785156 L 279.785156 108.785156 "/>
<path style="fill-rule:nonzero;fill:rgb(100%,51%,0%);fill-opacity:1;stroke-width:1;stroke-linecap:butt;stroke-linejoin:miter;stroke:rgb(0%,0%,0%);stroke-opacity:1;stroke-miterlimit:10;" d="M 252 295 L 281.664062 295 L 293.664062 266.785156 L 305.664062 295 L 335.332031 295 L 311.332031 312.4375 L 319.417969 343.980469 L 293.664062 326.542969 L 267.914062 343.980469 L 280.214844 312.4375 L 252 295 "/>
<path style="fill-rule:nonzero;fill:rgb(100%,51%,0%);fill-opacity:1;stroke-width:1;stroke-linecap:butt;stroke-linejoin:miter;stroke:rgb(0%,0%,0%);stroke-opacity:1;stroke-miterlimit:10;" d="M 101 431 L 130.664062 431 L 142.664062 402.785156 L 154.664062 431 L 184.332031 431 L 160.332031 448.4375 L 168.417969 479.980469 L 142.664062 462.542969 L 116.914062 479.980469 L 129.214844 448.4375 L 101 431 "/>
<path style="fill-rule:nonzero;fill:rgb(55%,51%,53%);fill-opacity:1;stroke-width:1;stroke-linecap:butt;stroke-linejoin:miter;stroke:rgb(0%,0%,0%);stroke-opacity:1;stroke-miterlimit:10;" d="M 870.785156 283.785156 L 870.785156 326.214844 L 913.214844 326.214844 L 913.214844 283.785156 L 870.785156 283.785156 "/>
<path style="fill-rule:nonzero;fill:rgb(55%,51%,53%);fill-opacity:1;stroke-width:1;stroke-linecap:butt;stroke-linejoin:miter;stroke:rgb(0%,0%,0%);stroke-opacity:1;stroke-miterlimit:10;" d="M 952 231 L 981.664062 231 L 993.664062 202.785156 L 1005.664062 231 L 1035.332031 231 L 1011.332031 248.4375 L 1019.417969 279.980469 L 993.664062 262.542969 L 967.914062 279.980469 L 980.214844 248.4375 L 952 231 "/>
<path style="fill-rule:nonzero;fill:rgb(55%,51%,53%);fill-opacity:1;stroke-width:1;stroke-linecap:butt;stroke-linejoin:miter;stroke:rgb(0%,0%,0%);stroke-opacity:1;stroke-miterlimit:10;" d="M 807 182 L 836.664062 182 L 848.664062 153.785156 L 860.664062 182 L 890.332031 182 L 866.332031 199.4375 L 874.417969 230.980469 L 848.664062 213.542969 L 822.914062 230.980469 L 835.214844 199.4375 L 807 182 "/>
</g>
</svg>
