<?xml version="1.0" encoding="UTF-8"?>
<svg xmlns="http://www.w3.org/2000/svg" xmlns:xlink="http://www.w3.org/1999/xlink" width="1179pt" height="517pt" viewBox="0 0 1179 517" version="1.1">
<g id="surface1416">
<rect x="0" y="0" width="1179" height="517" style="fill:rgb(90%,90%,90%);fill-opacity:1;stroke:none;"/>
<path style="fill-rule:nonzero;fill:rgb(35%,70%,90%);fill-opacity:1;stroke-width:1;stroke-linecap:butt;stroke-linejoin:miter;stroke:rgb(0%,0%,0%);stroke-opacity:1;stroke-miterlimit:10;" d="M 290 413 L 319.664062 413 L 331.664062 384.785156 L 343.664062 413 L 373.332031 413 L 349.332031 430.4375 L 357.417969 461.980469 L 331.664062 444.542969 L 305.914062 461.980469 L 318.214844 430.4375 L 290 413 "/>
<path style="fill-rule:nonzero;fill:rgb(35%,70%,90%);fill-opacity:1;stroke-width:1;stroke-linecap:butt;stroke-linejoin:miter;stroke:rgb(0%,0%,0%);stroke-opacity:1;stroke-miterlimit:10;" d="M 184 246 L 213.664062 246 L 225.664062 217.785156 L 237.664062 246 L 267.332031 246 L 243.332031 263.4375 L 251.417969 294.980469 L 225.664062 277.542969 L 199.914062 294.980469 L 212.214844 263.4375 L 184 246 "/>
<path style="fill-rule:nonzero;fill:rgb(35%,70%,90%);fill-opacity:1;stroke-width:1;stroke-linecap:butt;stroke-linejoin:miter;stroke:rgb(0%,0%,0%);stroke-opacity:1;stroke-miterlimit:10;" d="M 248 128 L 277.664062 128 L 289.664062 99.785156 L 301.664062 128 L 331.332031 128 L 307.332031 145.4375 L 315.417969 176.980469 L 289.664062 159.542969 L 263.914062 176.980469 L 276.214844 145.4375 L 248 128 "/>
<path style="fill-rule:nonzero;fill:rgb(100%,51%,0%);fill-opacity:1;stroke-width:1;stroke-linecap:butt;stroke-linejoin:miter;stroke:rgb(0%,0%,0%);stroke-opacity:1;stroke-miterlimit:10;" d="M 486 319.601562 C 486 305.199219 462 305.199219 462 319.601562 C 462 334 486 336.398438 486 348.398438 C 486 336.398438 510 334 510 319.601562 C 510 305.199219 486 305.199219 486 319.601562 "/>
<path style="fill-rule:nonzero;fill:rgb(100%,51%,0%);fill-opacity:1;stroke-width:1;stroke-linecap:butt;stroke-linejoin:miter;stroke:rgb(0%,0%,0%);stroke-opacity:1;stroke-miterlimit:10;" d="M 130 359.601562 C 130 345.199219 106 345.199219 106 359.601562 C 106 374 130 376.398438 130 388.398438 C 130 376.398438 154 374 154 359.601562 C 154 345.199219 130 345.199219 130 359.601562 "/>
<path style="fill-rule:nonzero;fill:rgb(100%,51%,0%);fill-opacity:1;stroke-width:1;stroke-linecap:butt;stroke-linejoin:miter;stroke:rgb(0%,0%,0%);stroke-opacity:1;stroke-miterlimit:10;" d="M 550 120.601562 C 550 106.199219 526 106.199219 526 120.601562 C 526 135 550 137.398438 550 149.398438 C 550 137.398438 574 135 574 120.601562 C 574 106.199219 550 106.199219 550 120.601562 "/>
<path style="fill-rule:nonzero;fill:rgb(100%,51%,0%);fill-opacity:1;stroke-width:1;stroke-linecap:butt;stroke-linejoin:miter;stroke:rgb(0%,0%,0%);stroke-opacity:1;stroke-miterlimit:10;" d="M 680 308.601562 C 680 294.199219 656 294.199219 656 308.601562 C 656 323 680 325.398438 680 337.398438 C 680 325.398438 704 323 704 308.601562 C 704 294.199219 680 294.199219 680 308.601562 "/>
<path style="fill-rule:nonzero;fill:rgb(100%,51%,0%);fill-opacity:1;stroke-width:1;stroke-linecap:butt;stroke-linejoin:miter;stroke:rgb(0%,0%,0%);stroke-opacity:1;stroke-miterlimit:10;" d="M 854 85.601562 C 854 71.199219 830 71.199219 830 85.601562 C 830 100 854 102.398438 854 114.398438 C 854 102.398438 878 100 878 85.601562 C 878 71.199219 854 71.199219 854 85.601562 "/>
</g>
</svg>
