<?xml version="1.0" encoding="UTF-8"?>
<svg xmlns="http://www.w3.org/2000/svg" xmlns:xlink="http://www.w3.org/1999/xlink" width="1179pt" height="517pt" viewBox="0 0 1179 517" version="1.1">
<g id="surface216">
<rect x="0" y="0" width="1179" height="517" style="fill:rgb(90%,90%,90%);fill-opacity:1;stroke:none;"/>
<path style="fill-rule:nonzero;fill:rgb(35%,70%,90%);fill-opacity:1;stroke-width:1;stroke-linecap:butt;stroke-linejoin:miter;stroke:rgb(0%,0%,0%);stroke-opacity:1;stroke-miterlimit:10;" d="M 813 412 L 842.664062 412 L 854.664062 383.785156 L 866.664062 412 L 896.332031 412 L 872.332031 429.4375 L 880.417969 460.980469 L 854.664062 443.542969 L 828.914062 460.980469 L 841.214844 429.4375 L 813 412 "/>
<path style="fill-rule:nonzero;fill:rgb(35%,70%,90%);fill-opacity:1;stroke-width:1;stroke-linecap:butt;stroke-linejoin:miter;stroke:rgb(0%,0%,0%);stroke-opacity:1;stroke-miterlimit:10;" d="M 626 182 L 655.664062 182 L 667.664062 153.785156 L 679.664062 182 L 709.332031 182 L 685.332031 199.4375 L 693.417969 230.980469 L 667.664062 213.542969 L 641.914062 230.980469 L 654.214844 199.4375 L 626 182 "/>
<path style="fill-rule:nonzero;fill:rgb(35%,70%,90%);fill-opacity:1;stroke-width:1;stroke-linecap:butt;stroke-linejoin:miter;stroke:rgb(0%,0%,0%);stroke-opacity:1;stroke-miterlimit:10;" d="M 614 373 L 643.664062 373 L 655.664062 344.785156 L 667.664062 373 L 697.332031 373 L 673.332031 390.4375 L 681.417969 421.980469 L 655.664062 404.542969 L 629.914062 421.980469 L 642.214844 390.4375 L 614 373 "/>
<path style="fill-rule:nonzero;fill:rgb(53%,27%,7%);fill-opacity:1;stroke-width:1;stroke-linecap:butt;stroke-linejoin:miter;stroke:rgb(0%,0%,0%);stroke-opacity:1;stroke-miterlimit:10;" d="M 1042 328 L 1016.019531 373 L 1067.980469 373 L 1042 328 "/>
<path style="fill-rule:nonzero;fill:rgb(53%,27%,7%);fill-opacity:1;stroke-width:1;stroke-linecap:butt;stroke-linejoin:miter;stroke:rgb(0%,0%,0%);stroke-opacity:1;stroke-miterlimit:10;" d="M 797 261 L 771.019531 306 L 822.980469 306 L 797 261 "/>
<path style="fill-rule:nonzero;fill:rgb(53%,27%,7%);fill-opacity:1;stroke-width:1;stroke-linecap:butt;stroke-linejoin:miter;stroke:rgb(0%,0%,0%);stroke-opacity:1;stroke-miterlimit:10;" d="M 473 66 L 447.019531 111 L 498.980469 111 L 473 66 "/>
<path style="fill-rule:nonzero;fill:rgb(53%,27%,7%);fill-opacity:1;stroke-width:1;stroke-linecap:butt;stroke-linejoin:miter;stroke:rgb(0%,0%,0%);stroke-opacity:1;stroke-miterlimit:10;" d="M 256 396 L 230.019531 441 L 281.980469 441 L 256 396 "/>
</g>
</svg>
