<?xml version="1.0" encoding="UTF-8"?>
<svg xmlns="http://www.w3.org/2000/svg" xmlns:xlink="http://www.w3.org/1999/xlink" width="1179pt" height="517pt" viewBox="0 0 1179 517" version="1.1">
<g id="surface521">
<rect x="0" y="0" width="1179" height="517" style="fill:rgb(90%,90%,90%);fill-opacity:1;stroke:none;"/>
<path style="fill-rule:nonzero;fill:rgb(55%,51%,53%);fill-opacity:1;stroke-width:1;stroke-linecap:butt;stroke-linejoin:miter;stroke:rgb(0%,0%,0%);stroke-opacity:1;stroke-miterlimit:10;" d="M 429 390 L 458.664062 390 L 470.664062 361.785156 L 482.664062 390 L 512.332031 390 L 488.332031 407.4375 L 496.417969 438.980469 L 470.664062 421.542969 L 444.914062 438.980469 L 457.214844 407.4375 L 429 390 "/>
<path style="fill-rule:nonzero;fill:rgb(55%,51%,53%);fill-opacity:1;stroke-width:1;stroke-linecap:butt;stroke-linejoin:miter;stroke:rgb(0%,0%,0%);stroke-opacity:1;stroke-miterlimit:10;" d="M 327.785156 110.785156 L 327.785156 153.214844 L 370.214844 153.214844 L 370.214844 110.785156 L 327.785156 110.785156 "/>
<path style="fill-rule:nonzero;fill:rgb(55%,51%,53%);fill-opacity:1;stroke-width:1;stroke-linecap:butt;stroke-linejoin:miter;stroke:rgb(0%,0%,0%);stroke-opacity:1;stroke-miterlimit:10;" d="M 85 313 L 114.664062 313 L 126.664062 284.785156 L 138.664062 313 L 168.332031 313 L 144.332031 330.4375 L 152.417969 361.980469 L 126.664062 344.542969 L 100.914062 361.980469 L 113.214844 330.4375 L 85 313 "/>
<path style="fill-rule:nonzero;fill:rgb(53%,27%,7%);fill-opacity:1;stroke-width:1;stroke-linecap:butt;stroke-linejoin:miter;stroke:rgb(0%,0%,0%);stroke-opacity:1;stroke-miterlimit:10;" d="M 1005.785156 177.785156 L 1005.785156 220.214844 L 1048.214844 220.214844 L 1048.214844 177.785156 L 1005.785156 177.785156 "/>
<path style="fill-rule:nonzero;fill:rgb(53%,27%,7%);fill-opacity:1;stroke-width:1;stroke-linecap:butt;stroke-linejoin:miter;stroke:rgb(0%,0%,0%);stroke-opacity:1;stroke-miterlimit:10;" d="M 974 299 L 1003.664062 299 L 1015.664062 270.785156 L 1027.664062 299 L 1057.332031 299 L 1033.332031 316.4375 L 1041.417969 347.980469 L 1015.664062 330.542969 L 989.914062 347.980469 L 1002.214844 316.4375 L 974 299 "/>
<path style="fill-rule:nonzero;fill:rgb(53%,27%,7%);fill-opacity:1;stroke-width:1;stroke-linecap:butt;stroke-linejoin:miter;stroke:rgb(0%,0%,0%);stroke-opacity:1;stroke-miterlimit:10;" d="M 728.785156 141.785156 L 728.785156 184.214844 L 771.214844 184.214844 L 771.214844 141.785156 L 728.785156 141.785156 "/>
<path style="fill-rule:nonzero;fill:rgb(53%,27%,7%);fill-opacity:1;stroke-width:1;stroke-linecap:butt;stroke-linejoin:miter;stroke:rgb(0%,0%,0%);stroke-opacity:1;stroke-miterlimit:10;" d="M 696.785156 318.785156 L 696.785156 361.214844 L 739.214844 361.214844 L 739.214844 318.785156 L 696.785156 318.785156 "/>
<path style="fill-rule:nonzero;fill:rgb(53%,27%,7%);fill-opacity:1;stroke-width:1;stroke-linecap:butt;stroke-linejoin:miter;stroke:rgb(0%,0%,0%);stroke-opacity:1;stroke-miterlimit:10;" d="M 962.785156 390.785156 L 962.785156 433.214844 L 1005.214844 433.214844 L 1005.214844 390.785156 L 962.785156 390.785156 "/>
</g>
</svg>
