<?xml version="1.0" encoding="UTF-8"?>
<svg xmlns="http://www.w3.org/2000/svg" xmlns:xlink="http://www.w3.org/1999/xlink" width="1179pt" height="517pt" viewBox="0 0 1179 517" version="1.1">
<g id="surface21">
<rect x="0" y="0" width="1179" height="517" style="fill:rgb(90%,90%,90%);fill-opacity:1;stroke:none;"/>
<path style="fill-rule:nonzero;fill:rgb(35%,70%,90%);fill-opacity:1;stroke-width:1;stroke-linecap:butt;stroke-linejoin:miter;stroke:rgb(0%,0%,0%);stroke-opacity:1;stroke-miterlimit:10;" d="M 145.214844 354 C 145.214844 365.714844 135.714844 375.214844 124 375.214844 C 112.285156 375.214844 102.785156 365.714844 102.785156 354 C 102.785156 342.285156 112.285156 332.785156 124 332.785156 C 135.714844 332.785156 145.214844 342.285156 145.214844 354 "/>
<path style="fill-rule:nonzero;fill:rgb(35%,70%,90%);fill-opacity:1;stroke-width:1;stroke-linecap:butt;stroke-linejoin:miter;stroke:rgb(0%,0%,0%);stroke-opacity:1;stroke-miterlimit:10;" d="M 431.214844 392 C 431.214844 403.714844 421.714844 413.214844 410 413.214844 C 398.285156 413.214844 388.785156 403.714844 388.785156 392 C 388.785156 380.285156 398.285156 370.785156 410 370.785156 C 421.714844 370.785156 431.214844 380.285156 431.214844 392 "/>
<path style="fill-rule:nonzero;fill:rgb(35%,70%,90%);fill-opacity:1;stroke-width:1;stroke-linecap:butt;stroke-linejoin:miter;stroke:rgb(0%,0%,0%);stroke-opacity:1;stroke-miterlimit:10;" d="M 133.214844 107 C 133.214844 118.714844 123.714844 128.214844 112 128.214844 C 100.285156 128.214844 90.785156 118.714844 90.785156 107 C 90.785156 95.285156 100.285156 85.785156 112 85.785156 C 123.714844 85.785156 133.214844 95.285156 133.214844 107 "/>
<path style="fill-rule:nonzero;fill:rgb(100%,51%,0%);fill-opacity:1;stroke-width:1;stroke-linecap:butt;stroke-linejoin:miter;stroke:rgb(0%,0%,0%);stroke-opacity:1;stroke-miterlimit:10;" d="M 351.214844 313 C 351.214844 324.714844 341.714844 334.214844 330 334.214844 C 318.285156 334.214844 308.785156 324.714844 308.785156 313 C 308.785156 301.285156 318.285156 291.785156 330 291.785156 C 341.714844 291.785156 351.214844 301.285156 351.214844 313 "/>
<path style="fill-rule:nonzero;fill:rgb(100%,51%,0%);fill-opacity:1;stroke-width:1;stroke-linecap:butt;stroke-linejoin:miter;stroke:rgb(0%,0%,0%);stroke-opacity:1;stroke-miterlimit:10;" d="M 837.785156 149.785156 L 837.785156 192.214844 L 880.214844 192.214844 L 880.214844 149.785156 L 837.785156 149.785156 "/>
<path style="fill-rule:nonzero;fill:rgb(100%,51%,0%);fill-opacity:1;stroke-width:1;stroke-linecap:butt;stroke-linejoin:miter;stroke:rgb(0%,0%,0%);stroke-opacity:1;stroke-miterlimit:10;" d="M 889.785156 239.785156 L 889.785156 282.214844 L 932.214844 282.214844 L 932.214844 239.785156 L 889.785156 239.785156 "/>
<path style="fill-rule:nonzero;fill:rgb(100%,51%,0%);fill-opacity:1;stroke-width:1;stroke-linecap:butt;stroke-linejoin:miter;stroke:rgb(0%,0%,0%);stroke-opacity:1;stroke-miterlimit:10;" d="M 978.785156 323.785156 L 978.785156 366.214844 L 1021.214844 366.214844 L 1021.214844 323.785156 L 978.785156 323.785156 "/>
</g>
</svg>
