<?xml version="1.0" encoding="UTF-8"?>
<svg xmlns="http://www.w3.org/2000/svg" xmlns:xlink="http://www.w3.org/1999/xlink" width="1179pt" height="517pt" viewBox="0 0 1179 517" version="1.1">
<g id="surface1341">
<rect x="0" y="0" width="1179" height="517" style="fill:rgb(90%,90%,90%);fill-opacity:1;stroke:none;"/>
<path style="fill-rule:nonzero;fill:rgb(55%,51%,53%);fill-opacity:1;stroke-width:1;stroke-linecap:butt;stroke-linejoin:miter;stroke:rgb(0%,0%,0%);stroke-opacity:1;stroke-miterlimit:10;" d="M 520 382 L 549.664062 382 L 561.664062 353.785156 L 573.664062 382 L 603.332031 382 L 579.332031 399.4375 L 587.417969 430.980469 L 561.664062 413.542969 L 535.914062 430.980469 L 548.214844 399.4375 L 520 382 "/>
<path style="fill-rule:nonzero;fill:rgb(55%,51%,53%);fill-opacity:1;stroke-width:1;stroke-linecap:butt;stroke-linejoin:miter;stroke:rgb(0%,0%,0%);stroke-opacity:1;stroke-miterlimit:10;" d="M 272 287 L 301.664062 287 L 313.664062 258.785156 L 325.664062 287 L 355.332031 287 L 331.332031 304.4375 L 339.417969 335.980469 L 313.664062 318.542969 L 287.914062 335.980469 L 300.214844 304.4375 L 272 287 "/>
<path style="fill-rule:nonzero;fill:rgb(55%,51%,53%);fill-opacity:1;stroke-width:1;stroke-linecap:butt;stroke-linejoin:miter;stroke:rgb(0%,0%,0%);stroke-opacity:1;stroke-miterlimit:10;" d="M 373 376 L 402.664062 376 L 414.664062 347.785156 L 426.664062 376 L 456.332031 376 L 432.332031 393.4375 L 440.417969 424.980469 L 414.664062 407.542969 L 388.914062 424.980469 L 401.214844 393.4375 L 373 376 "/>
<path style="fill-rule:nonzero;fill:rgb(55%,51%,53%);fill-opacity:1;stroke-width:1;stroke-linecap:butt;stroke-linejoin:miter;stroke:rgb(0%,0%,0%);stroke-opacity:1;stroke-miterlimit:10;" d="M 422 236 L 451.664062 236 L 463.664062 207.785156 L 475.664062 236 L 505.332031 236 L 481.332031 253.4375 L 489.417969 284.980469 L 463.664062 267.542969 L 437.914062 284.980469 L 450.214844 253.4375 L 422 236 "/>
<path style="fill-rule:nonzero;fill:rgb(100%,51%,0%);fill-opacity:1;stroke-width:1;stroke-linecap:butt;stroke-linejoin:miter;stroke:rgb(0%,0%,0%);stroke-opacity:1;stroke-miterlimit:10;" d="M 658.214844 115 C 658.214844 126.714844 648.714844 136.214844 637 136.214844 C 625.285156 136.214844 615.785156 126.714844 615.785156 115 C 615.785156 103.285156 625.285156 93.785156 637 93.785156 C 648.714844 93.785156 658.214844 103.285156 658.214844 115 "/>
<path style="fill-rule:nonzero;fill:rgb(100%,51%,0%);fill-opacity:1;stroke-width:1;stroke-linecap:butt;stroke-linejoin:miter;stroke:rgb(0%,0%,0%);stroke-opacity:1;stroke-miterlimit:10;" d="M 126.214844 258 C 126.214844 269.714844 116.714844 279.214844 105 279.214844 C 93.285156 279.214844 83.785156 269.714844 83.785156 258 C 83.785156 246.285156 93.285156 236.785156 105 236.785156 C 116.714844 236.785156 126.214844 246.285156 126.214844 258 "/>
<path style="fill-rule:nonzero;fill:rgb(100%,51%,0%);fill-opacity:1;stroke-width:1;stroke-linecap:butt;stroke-linejoin:miter;stroke:rgb(0%,0%,0%);stroke-opacity:1;stroke-miterlimit:10;" d="M 1006.214844 257 C 1006.214844 268.714844 996.714844 278.214844 985 278.214844 C 973.285156 278.214844 963.785156 268.714844 963.785156 257 C 963.785156 245.285156 973.285156 235.785156 985 235.785156 C 996.714844 235.785156 1006.214844 245.285156 1006.214844 257 "/>
<path style="fill-rule:nonzero;fill:rgb(100%,51%,0%);fill-opacity:1;stroke-width:1;stroke-linecap:butt;stroke-linejoin:miter;stroke:rgb(0%,0%,0%);stroke-opacity:1;stroke-miterlimit:10;" d="M 878.214844 392 C 878.214844 403.714844 868.714844 413.214844 857 413.214844 C 845.285156 413.214844 835.785156 403.714844 835.785156 392 C 835.785156 380.285156 845.285156 370.785156 857 370.785156 C 868.714844 370.785156 878.214844 380.285156 878.214844 392 "/>
<path style="fill-rule:nonzero;fill:rgb(100%,51%,0%);fill-opacity:1;stroke-width:1;stroke-linecap:butt;stroke-linejoin:miter;stroke:rgb(0%,0%,0%);stroke-opacity:1;stroke-miterlimit:10;" d="M 804.214844 117 C 804.214844 128.714844 794.714844 138.214844 783 138.214844 C 771.285156 138.214844 761.785156 128.714844 761.785156 117 C 761.785156 105.285156 771.285156 95.785156 783 95.785156 C 794.714844 95.785156 804.214844 105.285156 804.214844 117 "/>
</g>
</svg>
