<?xml version="1.0" encoding="UTF-8"?>
<svg xmlns="http://www.w3.org/2000/svg" xmlns:xlink="http://www.w3.org/1999/xlink" width="1179pt" height="517pt" viewBox="0 0 1179 517" version="1.1">
<g id="surface311">
<rect x="0" y="0" width="1179" height="517" style="fill:rgb(90%,90%,90%);fill-opacity:1;stroke:none;"/>
<path style="fill-rule:nonzero;fill:rgb(100%,51%,0%);fill-opacity:1;stroke-width:1;stroke-linecap:butt;stroke-linejoin:miter;stroke:rgb(0%,0%,0%);stroke-opacity:1;stroke-miterlimit:10;" d="M 419 296 L 448.664062 296 L 460.664062 267.785156 L 472.664062 296 L 502.332031 296 L 478.332031 313.4375 L 486.417969 344.980469 L 460.664062 327.542969 L 434.914062 344.980469 L 447.214844 313.4375 L 419 296 "/>
<path style="fill-rule:nonzero;fill:rgb(100%,51%,0%);fill-opacity:1;stroke-width:1;stroke-linecap:butt;stroke-linejoin:miter;stroke:rgb(0%,0%,0%);stroke-opacity:1;stroke-miterlimit:10;" d="M 99 307 L 128.664062 307 L 140.664062 278.785156 L 152.664062 307 L 182.332031 307 L 158.332031 324.4375 L 166.417969 355.980469 L 140.664062 338.542969 L 114.914062 355.980469 L 127.214844 324.4375 L 99 307 "/>
<path style="fill-rule:nonzero;fill:rgb(55%,51%,53%);fill-opacity:1;stroke-width:1;stroke-linecap:butt;stroke-linejoin:miter;stroke:rgb(0%,0%,0%);stroke-opacity:1;stroke-miterlimit:10;" d="M 276 131 L 305.664062 131 L 317.664062 102.785156 L 329.664062 131 L 359.332031 131 L 335.332031 148.4375 L 343.417969 179.980469 L 317.664062 162.542969 L 291.914062 179.980469 L 304.214844 148.4375 L 276 131 "/>
<path style="fill-rule:nonzero;fill:rgb(100%,51%,0%);fill-opacity:1;stroke-width:1;stroke-linecap:butt;stroke-linejoin:miter;stroke:rgb(0%,0%,0%);stroke-opacity:1;stroke-miterlimit:10;" d="M 97 400 L 126.664062 400 L 138.664062 371.785156 L 150.664062 400 L 180.332031 400 L 156.332031 417.4375 L 164.417969 448.980469 L 138.664062 431.542969 L 112.914062 448.980469 L 125.214844 417.4375 L 97 400 "/>
<path style="fill-rule:nonzero;fill:rgb(55%,51%,53%);fill-opacity:1;stroke-width:1;stroke-linecap:butt;stroke-linejoin:miter;stroke:rgb(0%,0%,0%);stroke-opacity:1;stroke-miterlimit:10;" d="M 903.785156 88.785156 L 903.785156 131.214844 L 946.214844 131.214844 L 946.214844 88.785156 L 903.785156 88.785156 "/>
<path style="fill-rule:nonzero;fill:rgb(55%,51%,53%);fill-opacity:1;stroke-width:1;stroke-linecap:butt;stroke-linejoin:miter;stroke:rgb(0%,0%,0%);stroke-opacity:1;stroke-miterlimit:10;" d="M 844.785156 327.785156 L 844.785156 370.214844 L 887.214844 370.214844 L 887.214844 327.785156 L 844.785156 327.785156 "/>
<path style="fill-rule:nonzero;fill:rgb(100%,51%,0%);fill-opacity:1;stroke-width:1;stroke-linecap:butt;stroke-linejoin:miter;stroke:rgb(0%,0%,0%);stroke-opacity:1;stroke-miterlimit:10;" d="M 817.785156 220.785156 L 817.785156 263.214844 L 860.214844 263.214844 L 860.214844 220.785156 L 817.785156 220.785156 "/>
<path style="fill-rule:nonzero;fill:rgb(55%,51%,53%);fill-opacity:1;stroke-width:1;stroke-linecap:butt;stroke-linejoin:miter;stroke:rgb(0%,0%,0%);stroke-opacity:1;stroke-miterlimit:10;" d="M 927.785156 378.785156 L 927.785156 421.214844 L 970.214844 421.214844 L 970.214844 378.785156 L 927.785156 378.785156 "/>
</g>
</svg>
