<?xml version="1.0" encoding="UTF-8"?>
<svg xmlns="http://www.w3.org/2000/svg" xmlns:xlink="http://www.w3.org/1999/xlink" width="1179pt" height="517pt" viewBox="0 0 1179 517" version="1.1">
<g id="surface976">
<rect x="0" y="0" width="1179" height="517" style="fill:rgb(90%,90%,90%);fill-opacity:1;stroke:none;"/>
<path style="fill-rule:nonzero;fill:rgb(35%,70%,90%);fill-opacity:1;stroke-width:1;stroke-linecap:butt;stroke-linejoin:miter;stroke:rgb(0%,0%,0%);stroke-opacity:1;stroke-miterlimit:10;" d="M 243.214844 197 C 243.214844 208.714844 233.714844 218.214844 222 218.214844 C 210.285156 218.214844 200.785156 208.714844 200.785156 197 C 200.785156 185.285156 210.285156 175.785156 222 175.785156 C 233.714844 175.785156 243.214844 185.285156 243.214844 197 "/>
<path style="fill-rule:nonzero;fill:rgb(67%,100%,18%);fill-opacity:1;stroke-width:1;stroke-linecap:butt;stroke-linejoin:miter;stroke:rgb(0%,0%,0%);stroke-opacity:1;stroke-miterlimit:10;" d="M 385.214844 140 C 385.214844 151.714844 375.714844 161.214844 364 161.214844 C 352.285156 161.214844 342.785156 151.714844 342.785156 140 C 342.785156 128.285156 352.285156 118.785156 364 118.785156 C 375.714844 118.785156 385.214844 128.285156 385.214844 140 "/>
<path style="fill-rule:nonzero;fill:rgb(35%,70%,90%);fill-opacity:1;stroke-width:1;stroke-linecap:butt;stroke-linejoin:miter;stroke:rgb(0%,0%,0%);stroke-opacity:1;stroke-miterlimit:10;" d="M 311.214844 427 C 311.214844 438.714844 301.714844 448.214844 290 448.214844 C 278.285156 448.214844 268.785156 438.714844 268.785156 427 C 268.785156 415.285156 278.285156 405.785156 290 405.785156 C 301.714844 405.785156 311.214844 415.285156 311.214844 427 "/>
<path style="fill-rule:nonzero;fill:rgb(35%,70%,90%);fill-opacity:1;stroke-width:1;stroke-linecap:butt;stroke-linejoin:miter;stroke:rgb(0%,0%,0%);stroke-opacity:1;stroke-miterlimit:10;" d="M 135.214844 225 C 135.214844 236.714844 125.714844 246.214844 114 246.214844 C 102.285156 246.214844 92.785156 236.714844 92.785156 225 C 92.785156 213.285156 102.285156 203.785156 114 203.785156 C 125.714844 203.785156 135.214844 213.285156 135.214844 225 "/>
<path style="fill-rule:nonzero;fill:rgb(67%,100%,18%);fill-opacity:1;stroke-width:1;stroke-linecap:butt;stroke-linejoin:miter;stroke:rgb(0%,0%,0%);stroke-opacity:1;stroke-miterlimit:10;" d="M 945 233 L 974.664062 233 L 986.664062 204.785156 L 998.664062 233 L 1028.332031 233 L 1004.332031 250.4375 L 1012.417969 281.980469 L 986.664062 264.542969 L 960.914062 281.980469 L 973.214844 250.4375 L 945 233 "/>
<path style="fill-rule:nonzero;fill:rgb(35%,70%,90%);fill-opacity:1;stroke-width:1;stroke-linecap:butt;stroke-linejoin:miter;stroke:rgb(0%,0%,0%);stroke-opacity:1;stroke-miterlimit:10;" d="M 934 102 L 963.664062 102 L 975.664062 73.785156 L 987.664062 102 L 1017.332031 102 L 993.332031 119.4375 L 1001.417969 150.980469 L 975.664062 133.542969 L 949.914062 150.980469 L 962.214844 119.4375 L 934 102 "/>
<path style="fill-rule:nonzero;fill:rgb(67%,100%,18%);fill-opacity:1;stroke-width:1;stroke-linecap:butt;stroke-linejoin:miter;stroke:rgb(0%,0%,0%);stroke-opacity:1;stroke-miterlimit:10;" d="M 787 122 L 816.664062 122 L 828.664062 93.785156 L 840.664062 122 L 870.332031 122 L 846.332031 139.4375 L 854.417969 170.980469 L 828.664062 153.542969 L 802.914062 170.980469 L 815.214844 139.4375 L 787 122 "/>
<path style="fill-rule:nonzero;fill:rgb(67%,100%,18%);fill-opacity:1;stroke-width:1;stroke-linecap:butt;stroke-linejoin:miter;stroke:rgb(0%,0%,0%);stroke-opacity:1;stroke-miterlimit:10;" d="M 781 296 L 810.664062 296 L 822.664062 267.785156 L 834.664062 296 L 864.332031 296 L 840.332031 313.4375 L 848.417969 344.980469 L 822.664062 327.542969 L 796.914062 344.980469 L 809.214844 313.4375 L 781 296 "/>
</g>
</svg>
