<?xml version="1.0" encoding="UTF-8"?>
<svg xmlns="http://www.w3.org/2000/svg" xmlns:xlink="http://www.w3.org/1999/xlink" width="1179pt" height="517pt" viewBox="0 0 1179 517" version="1.1">
<g id="surface736">
<rect x="0" y="0" width="1179" height="517" style="fill:rgb(90%,90%,90%);fill-opacity:1;stroke:none;"/>
<path style="fill-rule:nonzero;fill:rgb(53%,27%,7%);fill-opacity:1;stroke-width:1;stroke-linecap:butt;stroke-linejoin:miter;stroke:rgb(0%,0%,0%);stroke-opacity:1;stroke-miterlimit:10;" d="M 513 283 L 542.664062 283 L 554.664062 254.785156 L 566.664062 283 L 596.332031 283 L 572.332031 300.4375 L 580.417969 331.980469 L 554.664062 314.542969 L 528.914062 331.980469 L 541.214844 300.4375 L 513 283 "/>
<path style="fill-rule:nonzero;fill:rgb(53%,27%,7%);fill-opacity:1;stroke-width:1;stroke-linecap:butt;stroke-linejoin:miter;stroke:rgb(0%,0%,0%);stroke-opacity:1;stroke-miterlimit:10;" d="M 961 363 L 990.664062 363 L 1002.664062 334.785156 L 1014.664062 363 L 1044.332031 363 L 1020.332031 380.4375 L 1028.417969 411.980469 L 1002.664062 394.542969 L 976.914062 411.980469 L 989.214844 380.4375 L 961 363 "/>
<path style="fill-rule:nonzero;fill:rgb(53%,27%,7%);fill-opacity:1;stroke-width:1;stroke-linecap:butt;stroke-linejoin:miter;stroke:rgb(0%,0%,0%);stroke-opacity:1;stroke-miterlimit:10;" d="M 325 194 L 354.664062 194 L 366.664062 165.785156 L 378.664062 194 L 408.332031 194 L 384.332031 211.4375 L 392.417969 242.980469 L 366.664062 225.542969 L 340.914062 242.980469 L 353.214844 211.4375 L 325 194 "/>
<path style="fill-rule:nonzero;fill:rgb(53%,27%,7%);fill-opacity:1;stroke-width:1;stroke-linecap:butt;stroke-linejoin:miter;stroke:rgb(0%,0%,0%);stroke-opacity:1;stroke-miterlimit:10;" d="M 121 167 L 150.664062 167 L 162.664062 138.785156 L 174.664062 167 L 204.332031 167 L 180.332031 184.4375 L 188.417969 215.980469 L 162.664062 198.542969 L 136.914062 215.980469 L 149.214844 184.4375 L 121 167 "/>
<path style="fill-rule:nonzero;fill:rgb(53%,27%,7%);fill-opacity:1;stroke-width:1;stroke-linecap:butt;stroke-linejoin:miter;stroke:rgb(0%,0%,0%);stroke-opacity:1;stroke-miterlimit:10;" d="M 764 272 L 793.664062 272 L 805.664062 243.785156 L 817.664062 272 L 847.332031 272 L 823.332031 289.4375 L 831.417969 320.980469 L 805.664062 303.542969 L 779.914062 320.980469 L 792.214844 289.4375 L 764 272 "/>
<path style="fill-rule:nonzero;fill:rgb(55%,51%,53%);fill-opacity:1;stroke-width:1;stroke-linecap:butt;stroke-linejoin:miter;stroke:rgb(0%,0%,0%);stroke-opacity:1;stroke-miterlimit:10;" d="M 170 363 L 199.664062 363 L 211.664062 334.785156 L 223.664062 363 L 253.332031 363 L 229.332031 380.4375 L 237.417969 411.980469 L 211.664062 394.542969 L 185.914062 411.980469 L 198.214844 380.4375 L 170 363 "/>
<path style="fill-rule:nonzero;fill:rgb(55%,51%,53%);fill-opacity:1;stroke-width:1;stroke-linecap:butt;stroke-linejoin:miter;stroke:rgb(0%,0%,0%);stroke-opacity:1;stroke-miterlimit:10;" d="M 310 342 L 339.664062 342 L 351.664062 313.785156 L 363.664062 342 L 393.332031 342 L 369.332031 359.4375 L 377.417969 390.980469 L 351.664062 373.542969 L 325.914062 390.980469 L 338.214844 359.4375 L 310 342 "/>
<path style="fill-rule:nonzero;fill:rgb(55%,51%,53%);fill-opacity:1;stroke-width:1;stroke-linecap:butt;stroke-linejoin:miter;stroke:rgb(0%,0%,0%);stroke-opacity:1;stroke-miterlimit:10;" d="M 731 102 L 760.664062 102 L 772.664062 73.785156 L 784.664062 102 L 814.332031 102 L 790.332031 119.4375 L 798.417969 150.980469 L 772.664062 133.542969 L 746.914062 150.980469 L 759.214844 119.4375 L 731 102 "/>
</g>
</svg>
