<?xml version="1.0" encoding="UTF-8"?>
<svg xmlns="http://www.w3.org/2000/svg" xmlns:xlink="http://www.w3.org/1999/xlink" width="1179pt" height="517pt" viewBox="0 0 1179 517" version="1.1">
<g id="surface156">
<rect x="0" y="0" width="1179" height="517" style="fill:rgb(90%,90%,90%);fill-opacity:1;stroke:none;"/>
<path style="fill-rule:nonzero;fill:rgb(55%,51%,53%);fill-opacity:1;stroke-width:1;stroke-linecap:butt;stroke-linejoin:miter;stroke:rgb(0%,0%,0%);stroke-opacity:1;stroke-miterlimit:10;" d="M 323 219 L 352.664062 219 L 364.664062 190.785156 L 376.664062 219 L 406.332031 219 L 382.332031 236.4375 L 390.417969 267.980469 L 364.664062 250.542969 L 338.914062 267.980469 L 351.214844 236.4375 L 323 219 "/>
<path style="fill-rule:nonzero;fill:rgb(55%,51%,53%);fill-opacity:1;stroke-width:1;stroke-linecap:butt;stroke-linejoin:miter;stroke:rgb(0%,0%,0%);stroke-opacity:1;stroke-miterlimit:10;" d="M 864 172 L 893.664062 172 L 905.664062 143.785156 L 917.664062 172 L 947.332031 172 L 923.332031 189.4375 L 931.417969 220.980469 L 905.664062 203.542969 L 879.914062 220.980469 L 892.214844 189.4375 L 864 172 "/>
<path style="fill-rule:nonzero;fill:rgb(55%,51%,53%);fill-opacity:1;stroke-width:1;stroke-linecap:butt;stroke-linejoin:miter;stroke:rgb(0%,0%,0%);stroke-opacity:1;stroke-miterlimit:10;" d="M 567 191 L 596.664062 191 L 608.664062 162.785156 L 620.664062 191 L 650.332031 191 L 626.332031 208.4375 L 634.417969 239.980469 L 608.664062 222.542969 L 582.914062 239.980469 L 595.214844 208.4375 L 567 191 "/>
<path style="fill-rule:nonzero;fill:rgb(55%,51%,53%);fill-opacity:1;stroke-width:1;stroke-linecap:butt;stroke-linejoin:miter;stroke:rgb(0%,0%,0%);stroke-opacity:1;stroke-miterlimit:10;" d="M 852 294 L 881.664062 294 L 893.664062 265.785156 L 905.664062 294 L 935.332031 294 L 911.332031 311.4375 L 919.417969 342.980469 L 893.664062 325.542969 L 867.914062 342.980469 L 880.214844 311.4375 L 852 294 "/>
<path style="fill-rule:nonzero;fill:rgb(55%,51%,53%);fill-opacity:1;stroke-width:1;stroke-linecap:butt;stroke-linejoin:miter;stroke:rgb(0%,0%,0%);stroke-opacity:1;stroke-miterlimit:10;" d="M 149 231 L 178.664062 231 L 190.664062 202.785156 L 202.664062 231 L 232.332031 231 L 208.332031 248.4375 L 216.417969 279.980469 L 190.664062 262.542969 L 164.914062 279.980469 L 177.214844 248.4375 L 149 231 "/>
<path style="fill-rule:nonzero;fill:rgb(53%,27%,7%);fill-opacity:1;stroke-width:1;stroke-linecap:butt;stroke-linejoin:miter;stroke:rgb(0%,0%,0%);stroke-opacity:1;stroke-miterlimit:10;" d="M 459 380 L 433.019531 425 L 484.980469 425 L 459 380 "/>
<path style="fill-rule:nonzero;fill:rgb(53%,27%,7%);fill-opacity:1;stroke-width:1;stroke-linecap:butt;stroke-linejoin:miter;stroke:rgb(0%,0%,0%);stroke-opacity:1;stroke-miterlimit:10;" d="M 619 330 L 593.019531 375 L 644.980469 375 L 619 330 "/>
<path style="fill-rule:nonzero;fill:rgb(53%,27%,7%);fill-opacity:1;stroke-width:1;stroke-linecap:butt;stroke-linejoin:miter;stroke:rgb(0%,0%,0%);stroke-opacity:1;stroke-miterlimit:10;" d="M 210 323 L 184.019531 368 L 235.980469 368 L 210 323 "/>
<path style="fill-rule:nonzero;fill:rgb(53%,27%,7%);fill-opacity:1;stroke-width:1;stroke-linecap:butt;stroke-linejoin:miter;stroke:rgb(0%,0%,0%);stroke-opacity:1;stroke-miterlimit:10;" d="M 687 186 L 661.019531 231 L 712.980469 231 L 687 186 "/>
<path style="fill-rule:nonzero;fill:rgb(53%,27%,7%);fill-opacity:1;stroke-width:1;stroke-linecap:butt;stroke-linejoin:miter;stroke:rgb(0%,0%,0%);stroke-opacity:1;stroke-miterlimit:10;" d="M 1030 62 L 1004.019531 107 L 1055.980469 107 L 1030 62 "/>
</g>
</svg>
