<?xml version="1.0" encoding="UTF-8"?>
<svg xmlns="http://www.w3.org/2000/svg" xmlns:xlink="http://www.w3.org/1999/xlink" width="1179pt" height="517pt" viewBox="0 0 1179 517" version="1.1">
<g id="surface511">
<rect x="0" y="0" width="1179" height="517" style="fill:rgb(90%,90%,90%);fill-opacity:1;stroke:none;"/>
<path style="fill-rule:nonzero;fill:rgb(55%,51%,53%);fill-opacity:1;stroke-width:1;stroke-linecap:butt;stroke-linejoin:miter;stroke:rgb(0%,0%,0%);stroke-opacity:1;stroke-miterlimit:10;" d="M 81 208 L 110.664062 208 L 122.664062 179.785156 L 134.664062 208 L 164.332031 208 L 140.332031 225.4375 L 148.417969 256.980469 L 122.664062 239.542969 L 96.914062 256.980469 L 109.214844 225.4375 L 81 208 "/>
<path style="fill-rule:nonzero;fill:rgb(55%,51%,53%);fill-opacity:1;stroke-width:1;stroke-linecap:butt;stroke-linejoin:miter;stroke:rgb(0%,0%,0%);stroke-opacity:1;stroke-miterlimit:10;" d="M 427 204 L 456.664062 204 L 468.664062 175.785156 L 480.664062 204 L 510.332031 204 L 486.332031 221.4375 L 494.417969 252.980469 L 468.664062 235.542969 L 442.914062 252.980469 L 455.214844 221.4375 L 427 204 "/>
<path style="fill-rule:nonzero;fill:rgb(55%,51%,53%);fill-opacity:1;stroke-width:1;stroke-linecap:butt;stroke-linejoin:miter;stroke:rgb(0%,0%,0%);stroke-opacity:1;stroke-miterlimit:10;" d="M 918 293 L 947.664062 293 L 959.664062 264.785156 L 971.664062 293 L 1001.332031 293 L 977.332031 310.4375 L 985.417969 341.980469 L 959.664062 324.542969 L 933.914062 341.980469 L 946.214844 310.4375 L 918 293 "/>
<path style="fill-rule:nonzero;fill:rgb(55%,51%,53%);fill-opacity:1;stroke-width:1;stroke-linecap:butt;stroke-linejoin:miter;stroke:rgb(0%,0%,0%);stroke-opacity:1;stroke-miterlimit:10;" d="M 1016 210 L 1045.664062 210 L 1057.664062 181.785156 L 1069.664062 210 L 1099.332031 210 L 1075.332031 227.4375 L 1083.417969 258.980469 L 1057.664062 241.542969 L 1031.914062 258.980469 L 1044.214844 227.4375 L 1016 210 "/>
<path style="fill-rule:nonzero;fill:rgb(53%,27%,7%);fill-opacity:1;stroke-width:1;stroke-linecap:butt;stroke-linejoin:miter;stroke:rgb(0%,0%,0%);stroke-opacity:1;stroke-miterlimit:10;" d="M 764.214844 431 C 764.214844 442.714844 754.714844 452.214844 743 452.214844 C 731.285156 452.214844 721.785156 442.714844 721.785156 431 C 721.785156 419.285156 731.285156 409.785156 743 409.785156 C 754.714844 409.785156 764.214844 419.285156 764.214844 431 "/>
<path style="fill-rule:nonzero;fill:rgb(53%,27%,7%);fill-opacity:1;stroke-width:1;stroke-linecap:butt;stroke-linejoin:miter;stroke:rgb(0%,0%,0%);stroke-opacity:1;stroke-miterlimit:10;" d="M 855.214844 168 C 855.214844 179.714844 845.714844 189.214844 834 189.214844 C 822.285156 189.214844 812.785156 179.714844 812.785156 168 C 812.785156 156.285156 822.285156 146.785156 834 146.785156 C 845.714844 146.785156 855.214844 156.285156 855.214844 168 "/>
<path style="fill-rule:nonzero;fill:rgb(53%,27%,7%);fill-opacity:1;stroke-width:1;stroke-linecap:butt;stroke-linejoin:miter;stroke:rgb(0%,0%,0%);stroke-opacity:1;stroke-miterlimit:10;" d="M 584.214844 275 C 584.214844 286.714844 574.714844 296.214844 563 296.214844 C 551.285156 296.214844 541.785156 286.714844 541.785156 275 C 541.785156 263.285156 551.285156 253.785156 563 253.785156 C 574.714844 253.785156 584.214844 263.285156 584.214844 275 "/>
<path style="fill-rule:nonzero;fill:rgb(53%,27%,7%);fill-opacity:1;stroke-width:1;stroke-linecap:butt;stroke-linejoin:miter;stroke:rgb(0%,0%,0%);stroke-opacity:1;stroke-miterlimit:10;" d="M 238.214844 404 C 238.214844 415.714844 228.714844 425.214844 217 425.214844 C 205.285156 425.214844 195.785156 415.714844 195.785156 404 C 195.785156 392.285156 205.285156 382.785156 217 382.785156 C 228.714844 382.785156 238.214844 392.285156 238.214844 404 "/>
</g>
</svg>
