<?xml version="1.0" encoding="UTF-8"?>
<svg xmlns="http://www.w3.org/2000/svg" xmlns:xlink="http://www.w3.org/1999/xlink" width="1179pt" height="517pt" viewBox="0 0 1179 517" version="1.1">
<g id="surface106">
<rect x="0" y="0" width="1179" height="517" style="fill:rgb(90%,90%,90%);fill-opacity:1;stroke:none;"/>
<path style="fill-rule:nonzero;fill:rgb(100%,51%,0%);fill-opacity:1;stroke-width:1;stroke-linecap:butt;stroke-linejoin:miter;stroke:rgb(0%,0%,0%);stroke-opacity:1;stroke-miterlimit:10;" d="M 354.214844 94 C 354.214844 105.714844 344.714844 115.214844 333 115.214844 C 321.285156 115.214844 311.785156 105.714844 311.785156 94 C 311.785156 82.285156 321.285156 72.785156 333 72.785156 C 344.714844 72.785156 354.214844 82.285156 354.214844 94 "/>
<path style="fill-rule:nonzero;fill:rgb(100%,51%,0%);fill-opacity:1;stroke-width:1;stroke-linecap:butt;stroke-linejoin:miter;stroke:rgb(0%,0%,0%);stroke-opacity:1;stroke-miterlimit:10;" d="M 187 272 L 161.019531 317 L 212.980469 317 L 187 272 "/>
<path style="fill-rule:nonzero;fill:rgb(100%,51%,0%);fill-opacity:1;stroke-width:1;stroke-linecap:butt;stroke-linejoin:miter;stroke:rgb(0%,0%,0%);stroke-opacity:1;stroke-miterlimit:10;" d="M 425.214844 192 C 425.214844 203.714844 415.714844 213.214844 404 213.214844 C 392.285156 213.214844 382.785156 203.714844 382.785156 192 C 382.785156 180.285156 392.285156 170.785156 404 170.785156 C 415.714844 170.785156 425.214844 180.285156 425.214844 192 "/>
<path style="fill-rule:nonzero;fill:rgb(100%,51%,0%);fill-opacity:1;stroke-width:1;stroke-linecap:butt;stroke-linejoin:miter;stroke:rgb(0%,0%,0%);stroke-opacity:1;stroke-miterlimit:10;" d="M 144 362 L 118.019531 407 L 169.980469 407 L 144 362 "/>
<path style="fill-rule:nonzero;fill:rgb(53%,27%,7%);fill-opacity:1;stroke-width:1;stroke-linecap:butt;stroke-linejoin:miter;stroke:rgb(0%,0%,0%);stroke-opacity:1;stroke-miterlimit:10;" d="M 737 313 L 711.019531 358 L 762.980469 358 L 737 313 "/>
<path style="fill-rule:nonzero;fill:rgb(53%,27%,7%);fill-opacity:1;stroke-width:1;stroke-linecap:butt;stroke-linejoin:miter;stroke:rgb(0%,0%,0%);stroke-opacity:1;stroke-miterlimit:10;" d="M 865.214844 273 C 865.214844 284.714844 855.714844 294.214844 844 294.214844 C 832.285156 294.214844 822.785156 284.714844 822.785156 273 C 822.785156 261.285156 832.285156 251.785156 844 251.785156 C 855.714844 251.785156 865.214844 261.285156 865.214844 273 "/>
<path style="fill-rule:nonzero;fill:rgb(53%,27%,7%);fill-opacity:1;stroke-width:1;stroke-linecap:butt;stroke-linejoin:miter;stroke:rgb(0%,0%,0%);stroke-opacity:1;stroke-miterlimit:10;" d="M 907 176 L 881.019531 221 L 932.980469 221 L 907 176 "/>
</g>
</svg>
