<?xml version="1.0" encoding="UTF-8"?>
<svg xmlns="http://www.w3.org/2000/svg" xmlns:xlink="http://www.w3.org/1999/xlink" width="1179pt" height="517pt" viewBox="0 0 1179 517" version="1.1">
<g id="surface1521">
<rect x="0" y="0" width="1179" height="517" style="fill:rgb(90%,90%,90%);fill-opacity:1;stroke:none;"/>
<path style="fill-rule:nonzero;fill:rgb(55%,51%,53%);fill-opacity:1;stroke-width:1;stroke-linecap:butt;stroke-linejoin:miter;stroke:rgb(0%,0%,0%);stroke-opacity:1;stroke-miterlimit:10;" d="M 919 228 L 948.664062 228 L 960.664062 199.785156 L 972.664062 228 L 1002.332031 228 L 978.332031 245.4375 L 986.417969 276.980469 L 960.664062 259.542969 L 934.914062 276.980469 L 947.214844 245.4375 L 919 228 "/>
<path style="fill-rule:nonzero;fill:rgb(55%,51%,53%);fill-opacity:1;stroke-width:1;stroke-linecap:butt;stroke-linejoin:miter;stroke:rgb(0%,0%,0%);stroke-opacity:1;stroke-miterlimit:10;" d="M 984 364 L 1013.664062 364 L 1025.664062 335.785156 L 1037.664062 364 L 1067.332031 364 L 1043.332031 381.4375 L 1051.417969 412.980469 L 1025.664062 395.542969 L 999.914062 412.980469 L 1012.214844 381.4375 L 984 364 "/>
<path style="fill-rule:nonzero;fill:rgb(55%,51%,53%);fill-opacity:1;stroke-width:1;stroke-linecap:butt;stroke-linejoin:miter;stroke:rgb(0%,0%,0%);stroke-opacity:1;stroke-miterlimit:10;" d="M 172 333 L 201.664062 333 L 213.664062 304.785156 L 225.664062 333 L 255.332031 333 L 231.332031 350.4375 L 239.417969 381.980469 L 213.664062 364.542969 L 187.914062 381.980469 L 200.214844 350.4375 L 172 333 "/>
<path style="fill-rule:nonzero;fill:rgb(55%,51%,53%);fill-opacity:1;stroke-width:1;stroke-linecap:butt;stroke-linejoin:miter;stroke:rgb(0%,0%,0%);stroke-opacity:1;stroke-miterlimit:10;" d="M 491 113 L 520.664062 113 L 532.664062 84.785156 L 544.664062 113 L 574.332031 113 L 550.332031 130.4375 L 558.417969 161.980469 L 532.664062 144.542969 L 506.914062 161.980469 L 519.214844 130.4375 L 491 113 "/>
<path style="fill-rule:nonzero;fill:rgb(100%,51%,0%);fill-opacity:1;stroke-width:1;stroke-linecap:butt;stroke-linejoin:miter;stroke:rgb(0%,0%,0%);stroke-opacity:1;stroke-miterlimit:10;" d="M 751.214844 331 C 751.214844 342.714844 741.714844 352.214844 730 352.214844 C 718.285156 352.214844 708.785156 342.714844 708.785156 331 C 708.785156 319.285156 718.285156 309.785156 730 309.785156 C 741.714844 309.785156 751.214844 319.285156 751.214844 331 "/>
<path style="fill-rule:nonzero;fill:rgb(100%,51%,0%);fill-opacity:1;stroke-width:1;stroke-linecap:butt;stroke-linejoin:miter;stroke:rgb(0%,0%,0%);stroke-opacity:1;stroke-miterlimit:10;" d="M 178.214844 195 C 178.214844 206.714844 168.714844 216.214844 157 216.214844 C 145.285156 216.214844 135.785156 206.714844 135.785156 195 C 135.785156 183.285156 145.285156 173.785156 157 173.785156 C 168.714844 173.785156 178.214844 183.285156 178.214844 195 "/>
<path style="fill-rule:nonzero;fill:rgb(100%,51%,0%);fill-opacity:1;stroke-width:1;stroke-linecap:butt;stroke-linejoin:miter;stroke:rgb(0%,0%,0%);stroke-opacity:1;stroke-miterlimit:10;" d="M 644.214844 267 C 644.214844 278.714844 634.714844 288.214844 623 288.214844 C 611.285156 288.214844 601.785156 278.714844 601.785156 267 C 601.785156 255.285156 611.285156 245.785156 623 245.785156 C 634.714844 245.785156 644.214844 255.285156 644.214844 267 "/>
<path style="fill-rule:nonzero;fill:rgb(100%,51%,0%);fill-opacity:1;stroke-width:1;stroke-linecap:butt;stroke-linejoin:miter;stroke:rgb(0%,0%,0%);stroke-opacity:1;stroke-miterlimit:10;" d="M 445.214844 301 C 445.214844 312.714844 435.714844 322.214844 424 322.214844 C 412.285156 322.214844 402.785156 312.714844 402.785156 301 C 402.785156 289.285156 412.285156 279.785156 424 279.785156 C 435.714844 279.785156 445.214844 289.285156 445.214844 301 "/>
<path style="fill-rule:nonzero;fill:rgb(100%,51%,0%);fill-opacity:1;stroke-width:1;stroke-linecap:butt;stroke-linejoin:miter;stroke:rgb(0%,0%,0%);stroke-opacity:1;stroke-miterlimit:10;" d="M 641.214844 395 C 641.214844 406.714844 631.714844 416.214844 620 416.214844 C 608.285156 416.214844 598.785156 406.714844 598.785156 395 C 598.785156 383.285156 608.285156 373.785156 620 373.785156 C 631.714844 373.785156 641.214844 383.285156 641.214844 395 "/>
</g>
</svg>
