<?xml version="1.0" encoding="UTF-8"?>
<svg xmlns="http://www.w3.org/2000/svg" xmlns:xlink="http://www.w3.org/1999/xlink" width="1179pt" height="517pt" viewBox="0 0 1179 517" version="1.1">
<g id="surface41">
<rect x="0" y="0" width="1179" height="517" style="fill:rgb(90%,90%,90%);fill-opacity:1;stroke:none;"/>
<path style="fill-rule:nonzero;fill:rgb(35%,70%,90%);fill-opacity:1;stroke-width:1;stroke-linecap:butt;stroke-linejoin:miter;stroke:rgb(0%,0%,0%);stroke-opacity:1;stroke-miterlimit:10;" d="M 80 156 L 109.664062 156 L 121.664062 127.785156 L 133.664062 156 L 163.332031 156 L 139.332031 173.4375 L 147.417969 204.980469 L 121.664062 187.542969 L 95.914062 204.980469 L 108.214844 173.4375 L 80 156 "/>
<path style="fill-rule:nonzero;fill:rgb(35%,70%,90%);fill-opacity:1;stroke-width:1;stroke-linecap:butt;stroke-linejoin:miter;stroke:rgb(0%,0%,0%);stroke-opacity:1;stroke-miterlimit:10;" d="M 266 378 L 295.664062 378 L 307.664062 349.785156 L 319.664062 378 L 349.332031 378 L 325.332031 395.4375 L 333.417969 426.980469 L 307.664062 409.542969 L 281.914062 426.980469 L 294.214844 395.4375 L 266 378 "/>
<path style="fill-rule:nonzero;fill:rgb(35%,70%,90%);fill-opacity:1;stroke-width:1;stroke-linecap:butt;stroke-linejoin:miter;stroke:rgb(0%,0%,0%);stroke-opacity:1;stroke-miterlimit:10;" d="M 343.785156 162.785156 L 343.785156 205.214844 L 386.214844 205.214844 L 386.214844 162.785156 L 343.785156 162.785156 "/>
<path style="fill-rule:nonzero;fill:rgb(53%,27%,7%);fill-opacity:1;stroke-width:1;stroke-linecap:butt;stroke-linejoin:miter;stroke:rgb(0%,0%,0%);stroke-opacity:1;stroke-miterlimit:10;" d="M 1010.785156 405.785156 L 1010.785156 448.214844 L 1053.214844 448.214844 L 1053.214844 405.785156 L 1010.785156 405.785156 "/>
<path style="fill-rule:nonzero;fill:rgb(53%,27%,7%);fill-opacity:1;stroke-width:1;stroke-linecap:butt;stroke-linejoin:miter;stroke:rgb(0%,0%,0%);stroke-opacity:1;stroke-miterlimit:10;" d="M 850.785156 148.785156 L 850.785156 191.214844 L 893.214844 191.214844 L 893.214844 148.785156 L 850.785156 148.785156 "/>
<path style="fill-rule:nonzero;fill:rgb(53%,27%,7%);fill-opacity:1;stroke-width:1;stroke-linecap:butt;stroke-linejoin:miter;stroke:rgb(0%,0%,0%);stroke-opacity:1;stroke-miterlimit:10;" d="M 831 394 L 860.664062 394 L 872.664062 365.785156 L 884.664062 394 L 914.332031 394 L 890.332031 411.4375 L 898.417969 442.980469 L 872.664062 425.542969 L 846.914062 442.980469 L 859.214844 411.4375 L 831 394 "/>
<path style="fill-rule:nonzero;fill:rgb(53%,27%,7%);fill-opacity:1;stroke-width:1;stroke-linecap:butt;stroke-linejoin:miter;stroke:rgb(0%,0%,0%);stroke-opacity:1;stroke-miterlimit:10;" d="M 904.785156 233.785156 L 904.785156 276.214844 L 947.214844 276.214844 L 947.214844 233.785156 L 904.785156 233.785156 "/>
</g>
</svg>
