<?xml version="1.0" encoding="UTF-8"?>
<svg xmlns="http://www.w3.org/2000/svg" xmlns:xlink="http://www.w3.org/1999/xlink" width="1179pt" height="517pt" viewBox="0 0 1179 517" version="1.1">
<g id="surface301">
<rect x="0" y="0" width="1179" height="517" style="fill:rgb(90%,90%,90%);fill-opacity:1;stroke:none;"/>
<path style="fill-rule:nonzero;fill:rgb(100%,51%,0%);fill-opacity:1;stroke-width:1;stroke-linecap:butt;stroke-linejoin:miter;stroke:rgb(0%,0%,0%);stroke-opacity:1;stroke-miterlimit:10;" d="M 307 136 L 336.664062 136 L 348.664062 107.785156 L 360.664062 136 L 390.332031 136 L 366.332031 153.4375 L 374.417969 184.980469 L 348.664062 167.542969 L 322.914062 184.980469 L 335.214844 153.4375 L 307 136 "/>
<path style="fill-rule:nonzero;fill:rgb(100%,51%,0%);fill-opacity:1;stroke-width:1;stroke-linecap:butt;stroke-linejoin:miter;stroke:rgb(0%,0%,0%);stroke-opacity:1;stroke-miterlimit:10;" d="M 470 414 L 499.664062 414 L 511.664062 385.785156 L 523.664062 414 L 553.332031 414 L 529.332031 431.4375 L 537.417969 462.980469 L 511.664062 445.542969 L 485.914062 462.980469 L 498.214844 431.4375 L 470 414 "/>
<path style="fill-rule:nonzero;fill:rgb(100%,51%,0%);fill-opacity:1;stroke-width:1;stroke-linecap:butt;stroke-linejoin:miter;stroke:rgb(0%,0%,0%);stroke-opacity:1;stroke-miterlimit:10;" d="M 595 112 L 624.664062 112 L 636.664062 83.785156 L 648.664062 112 L 678.332031 112 L 654.332031 129.4375 L 662.417969 160.980469 L 636.664062 143.542969 L 610.914062 160.980469 L 623.214844 129.4375 L 595 112 "/>
<path style="fill-rule:nonzero;fill:rgb(100%,51%,0%);fill-opacity:1;stroke-width:1;stroke-linecap:butt;stroke-linejoin:miter;stroke:rgb(0%,0%,0%);stroke-opacity:1;stroke-miterlimit:10;" d="M 564 270 L 593.664062 270 L 605.664062 241.785156 L 617.664062 270 L 647.332031 270 L 623.332031 287.4375 L 631.417969 318.980469 L 605.664062 301.542969 L 579.914062 318.980469 L 592.214844 287.4375 L 564 270 "/>
<path style="fill-rule:nonzero;fill:rgb(100%,51%,0%);fill-opacity:1;stroke-width:1;stroke-linecap:butt;stroke-linejoin:miter;stroke:rgb(0%,0%,0%);stroke-opacity:1;stroke-miterlimit:10;" d="M 852 196 L 881.664062 196 L 893.664062 167.785156 L 905.664062 196 L 935.332031 196 L 911.332031 213.4375 L 919.417969 244.980469 L 893.664062 227.542969 L 867.914062 244.980469 L 880.214844 213.4375 L 852 196 "/>
<path style="fill-rule:nonzero;fill:rgb(55%,51%,53%);fill-opacity:1;stroke-width:1;stroke-linecap:butt;stroke-linejoin:miter;stroke:rgb(0%,0%,0%);stroke-opacity:1;stroke-miterlimit:10;" d="M 114.214844 111 C 114.214844 122.714844 104.714844 132.214844 93 132.214844 C 81.285156 132.214844 71.785156 122.714844 71.785156 111 C 71.785156 99.285156 81.285156 89.785156 93 89.785156 C 104.714844 89.785156 114.214844 99.285156 114.214844 111 "/>
<path style="fill-rule:nonzero;fill:rgb(55%,51%,53%);fill-opacity:1;stroke-width:1;stroke-linecap:butt;stroke-linejoin:miter;stroke:rgb(0%,0%,0%);stroke-opacity:1;stroke-miterlimit:10;" d="M 1020.214844 204 C 1020.214844 215.714844 1010.714844 225.214844 999 225.214844 C 987.285156 225.214844 977.785156 215.714844 977.785156 204 C 977.785156 192.285156 987.285156 182.785156 999 182.785156 C 1010.714844 182.785156 1020.214844 192.285156 1020.214844 204 "/>
<path style="fill-rule:nonzero;fill:rgb(55%,51%,53%);fill-opacity:1;stroke-width:1;stroke-linecap:butt;stroke-linejoin:miter;stroke:rgb(0%,0%,0%);stroke-opacity:1;stroke-miterlimit:10;" d="M 490.214844 164 C 490.214844 175.714844 480.714844 185.214844 469 185.214844 C 457.285156 185.214844 447.785156 175.714844 447.785156 164 C 447.785156 152.285156 457.285156 142.785156 469 142.785156 C 480.714844 142.785156 490.214844 152.285156 490.214844 164 "/>
<path style="fill-rule:nonzero;fill:rgb(55%,51%,53%);fill-opacity:1;stroke-width:1;stroke-linecap:butt;stroke-linejoin:miter;stroke:rgb(0%,0%,0%);stroke-opacity:1;stroke-miterlimit:10;" d="M 831.214844 82 C 831.214844 93.714844 821.714844 103.214844 810 103.214844 C 798.285156 103.214844 788.785156 93.714844 788.785156 82 C 788.785156 70.285156 798.285156 60.785156 810 60.785156 C 821.714844 60.785156 831.214844 70.285156 831.214844 82 "/>
</g>
</svg>
