<?xml version="1.0" encoding="UTF-8"?>
<svg xmlns="http://www.w3.org/2000/svg" xmlns:xlink="http://www.w3.org/1999/xlink" width="1179pt" height="517pt" viewBox="0 0 1179 517" version="1.1">
<g id="surface371">
<rect x="0" y="0" width="1179" height="517" style="fill:rgb(90%,90%,90%);fill-opacity:1;stroke:none;"/>
<path style="fill-rule:nonzero;fill:rgb(35%,70%,90%);fill-opacity:1;stroke-width:1;stroke-linecap:butt;stroke-linejoin:miter;stroke:rgb(0%,0%,0%);stroke-opacity:1;stroke-miterlimit:10;" d="M 101 92 L 130.664062 92 L 142.664062 63.785156 L 154.664062 92 L 184.332031 92 L 160.332031 109.4375 L 168.417969 140.980469 L 142.664062 123.542969 L 116.914062 140.980469 L 129.214844 109.4375 L 101 92 "/>
<path style="fill-rule:nonzero;fill:rgb(35%,70%,90%);fill-opacity:1;stroke-width:1;stroke-linecap:butt;stroke-linejoin:miter;stroke:rgb(0%,0%,0%);stroke-opacity:1;stroke-miterlimit:10;" d="M 232 179 L 261.664062 179 L 273.664062 150.785156 L 285.664062 179 L 315.332031 179 L 291.332031 196.4375 L 299.417969 227.980469 L 273.664062 210.542969 L 247.914062 227.980469 L 260.214844 196.4375 L 232 179 "/>
<path style="fill-rule:nonzero;fill:rgb(35%,70%,90%);fill-opacity:1;stroke-width:1;stroke-linecap:butt;stroke-linejoin:miter;stroke:rgb(0%,0%,0%);stroke-opacity:1;stroke-miterlimit:10;" d="M 111.785156 325.785156 L 111.785156 368.214844 L 154.214844 368.214844 L 154.214844 325.785156 L 111.785156 325.785156 "/>
<path style="fill-rule:nonzero;fill:rgb(35%,70%,90%);fill-opacity:1;stroke-width:1;stroke-linecap:butt;stroke-linejoin:miter;stroke:rgb(0%,0%,0%);stroke-opacity:1;stroke-miterlimit:10;" d="M 372.785156 392.785156 L 372.785156 435.214844 L 415.214844 435.214844 L 415.214844 392.785156 L 372.785156 392.785156 "/>
<path style="fill-rule:nonzero;fill:rgb(35%,70%,90%);fill-opacity:1;stroke-width:1;stroke-linecap:butt;stroke-linejoin:miter;stroke:rgb(0%,0%,0%);stroke-opacity:1;stroke-miterlimit:10;" d="M 340 248 L 369.664062 248 L 381.664062 219.785156 L 393.664062 248 L 423.332031 248 L 399.332031 265.4375 L 407.417969 296.980469 L 381.664062 279.542969 L 355.914062 296.980469 L 368.214844 265.4375 L 340 248 "/>
<path style="fill-rule:nonzero;fill:rgb(100%,51%,0%);fill-opacity:1;stroke-width:1;stroke-linecap:butt;stroke-linejoin:miter;stroke:rgb(0%,0%,0%);stroke-opacity:1;stroke-miterlimit:10;" d="M 793.785156 180.785156 L 793.785156 223.214844 L 836.214844 223.214844 L 836.214844 180.785156 L 793.785156 180.785156 "/>
<path style="fill-rule:nonzero;fill:rgb(100%,51%,0%);fill-opacity:1;stroke-width:1;stroke-linecap:butt;stroke-linejoin:miter;stroke:rgb(0%,0%,0%);stroke-opacity:1;stroke-miterlimit:10;" d="M 1016.785156 398.785156 L 1016.785156 441.214844 L 1059.214844 441.214844 L 1059.214844 398.785156 L 1016.785156 398.785156 "/>
<path style="fill-rule:nonzero;fill:rgb(100%,51%,0%);fill-opacity:1;stroke-width:1;stroke-linecap:butt;stroke-linejoin:miter;stroke:rgb(0%,0%,0%);stroke-opacity:1;stroke-miterlimit:10;" d="M 908 404 L 937.664062 404 L 949.664062 375.785156 L 961.664062 404 L 991.332031 404 L 967.332031 421.4375 L 975.417969 452.980469 L 949.664062 435.542969 L 923.914062 452.980469 L 936.214844 421.4375 L 908 404 "/>
</g>
</svg>
