<?xml version="1.0" encoding="UTF-8"?>
<svg xmlns="http://www.w3.org/2000/svg" xmlns:xlink="http://www.w3.org/1999/xlink" width="1179pt" height="517pt" viewBox="0 0 1179 517" version="1.1">
<g id="surface331">
<rect x="0" y="0" width="1179" height="517" style="fill:rgb(90%,90%,90%);fill-opacity:1;stroke:none;"/>
<path style="fill-rule:nonzero;fill:rgb(55%,51%,53%);fill-opacity:1;stroke-width:1;stroke-linecap:butt;stroke-linejoin:miter;stroke:rgb(0%,0%,0%);stroke-opacity:1;stroke-miterlimit:10;" d="M 183 327 L 212.664062 327 L 224.664062 298.785156 L 236.664062 327 L 266.332031 327 L 242.332031 344.4375 L 250.417969 375.980469 L 224.664062 358.542969 L 198.914062 375.980469 L 211.214844 344.4375 L 183 327 "/>
<path style="fill-rule:nonzero;fill:rgb(55%,51%,53%);fill-opacity:1;stroke-width:1;stroke-linecap:butt;stroke-linejoin:miter;stroke:rgb(0%,0%,0%);stroke-opacity:1;stroke-miterlimit:10;" d="M 303 347 L 332.664062 347 L 344.664062 318.785156 L 356.664062 347 L 386.332031 347 L 362.332031 364.4375 L 370.417969 395.980469 L 344.664062 378.542969 L 318.914062 395.980469 L 331.214844 364.4375 L 303 347 "/>
<path style="fill-rule:nonzero;fill:rgb(55%,51%,53%);fill-opacity:1;stroke-width:1;stroke-linecap:butt;stroke-linejoin:miter;stroke:rgb(0%,0%,0%);stroke-opacity:1;stroke-miterlimit:10;" d="M 761 277 L 790.664062 277 L 802.664062 248.785156 L 814.664062 277 L 844.332031 277 L 820.332031 294.4375 L 828.417969 325.980469 L 802.664062 308.542969 L 776.914062 325.980469 L 789.214844 294.4375 L 761 277 "/>
<path style="fill-rule:nonzero;fill:rgb(55%,51%,53%);fill-opacity:1;stroke-width:1;stroke-linecap:butt;stroke-linejoin:miter;stroke:rgb(0%,0%,0%);stroke-opacity:1;stroke-miterlimit:10;" d="M 414 172 L 443.664062 172 L 455.664062 143.785156 L 467.664062 172 L 497.332031 172 L 473.332031 189.4375 L 481.417969 220.980469 L 455.664062 203.542969 L 429.914062 220.980469 L 442.214844 189.4375 L 414 172 "/>
<path style="fill-rule:nonzero;fill:rgb(55%,51%,53%);fill-opacity:1;stroke-width:1;stroke-linecap:butt;stroke-linejoin:miter;stroke:rgb(0%,0%,0%);stroke-opacity:1;stroke-miterlimit:10;" d="M 518 424 L 547.664062 424 L 559.664062 395.785156 L 571.664062 424 L 601.332031 424 L 577.332031 441.4375 L 585.417969 472.980469 L 559.664062 455.542969 L 533.914062 472.980469 L 546.214844 441.4375 L 518 424 "/>
<path style="fill-rule:nonzero;fill:rgb(53%,27%,7%);fill-opacity:1;stroke-width:1;stroke-linecap:butt;stroke-linejoin:miter;stroke:rgb(0%,0%,0%);stroke-opacity:1;stroke-miterlimit:10;" d="M 663.214844 417 C 663.214844 428.714844 653.714844 438.214844 642 438.214844 C 630.285156 438.214844 620.785156 428.714844 620.785156 417 C 620.785156 405.285156 630.285156 395.785156 642 395.785156 C 653.714844 395.785156 663.214844 405.285156 663.214844 417 "/>
<path style="fill-rule:nonzero;fill:rgb(53%,27%,7%);fill-opacity:1;stroke-width:1;stroke-linecap:butt;stroke-linejoin:miter;stroke:rgb(0%,0%,0%);stroke-opacity:1;stroke-miterlimit:10;" d="M 1014.214844 133 C 1014.214844 144.714844 1004.714844 154.214844 993 154.214844 C 981.285156 154.214844 971.785156 144.714844 971.785156 133 C 971.785156 121.285156 981.285156 111.785156 993 111.785156 C 1004.714844 111.785156 1014.214844 121.285156 1014.214844 133 "/>
<path style="fill-rule:nonzero;fill:rgb(53%,27%,7%);fill-opacity:1;stroke-width:1;stroke-linecap:butt;stroke-linejoin:miter;stroke:rgb(0%,0%,0%);stroke-opacity:1;stroke-miterlimit:10;" d="M 1000.214844 276 C 1000.214844 287.714844 990.714844 297.214844 979 297.214844 C 967.285156 297.214844 957.785156 287.714844 957.785156 276 C 957.785156 264.285156 967.285156 254.785156 979 254.785156 C 990.714844 254.785156 1000.214844 264.285156 1000.214844 276 "/>
</g>
</svg>
