<?xml version="1.0" encoding="UTF-8"?>
<svg xmlns="http://www.w3.org/2000/svg" xmlns:xlink="http://www.w3.org/1999/xlink" width="1179pt" height="517pt" viewBox="0 0 1179 517" version="1.1">
<g id="surface51">
<rect x="0" y="0" width="1179" height="517" style="fill:rgb(90%,90%,90%);fill-opacity:1;stroke:none;"/>
<path style="fill-rule:nonzero;fill:rgb(35%,70%,90%);fill-opacity:1;stroke-width:1;stroke-linecap:butt;stroke-linejoin:miter;stroke:rgb(0%,0%,0%);stroke-opacity:1;stroke-miterlimit:10;" d="M 288.214844 122 C 288.214844 133.714844 278.714844 143.214844 267 143.214844 C 255.285156 143.214844 245.785156 133.714844 245.785156 122 C 245.785156 110.285156 255.285156 100.785156 267 100.785156 C 278.714844 100.785156 288.214844 110.285156 288.214844 122 "/>
<path style="fill-rule:nonzero;fill:rgb(53%,27%,7%);fill-opacity:1;stroke-width:1;stroke-linecap:butt;stroke-linejoin:miter;stroke:rgb(0%,0%,0%);stroke-opacity:1;stroke-miterlimit:10;" d="M 257.214844 309 C 257.214844 320.714844 247.714844 330.214844 236 330.214844 C 224.285156 330.214844 214.785156 320.714844 214.785156 309 C 214.785156 297.285156 224.285156 287.785156 236 287.785156 C 247.714844 287.785156 257.214844 297.285156 257.214844 309 "/>
<path style="fill-rule:nonzero;fill:rgb(35%,70%,90%);fill-opacity:1;stroke-width:1;stroke-linecap:butt;stroke-linejoin:miter;stroke:rgb(0%,0%,0%);stroke-opacity:1;stroke-miterlimit:10;" d="M 247.214844 209 C 247.214844 220.714844 237.714844 230.214844 226 230.214844 C 214.285156 230.214844 204.785156 220.714844 204.785156 209 C 204.785156 197.285156 214.285156 187.785156 226 187.785156 C 237.714844 187.785156 247.214844 197.285156 247.214844 209 "/>
<path style="fill-rule:nonzero;fill:rgb(53%,27%,7%);fill-opacity:1;stroke-width:1;stroke-linecap:butt;stroke-linejoin:miter;stroke:rgb(0%,0%,0%);stroke-opacity:1;stroke-miterlimit:10;" d="M 378.214844 383 C 378.214844 394.714844 368.714844 404.214844 357 404.214844 C 345.285156 404.214844 335.785156 394.714844 335.785156 383 C 335.785156 371.285156 345.285156 361.785156 357 361.785156 C 368.714844 361.785156 378.214844 371.285156 378.214844 383 "/>
<path style="fill-rule:nonzero;fill:rgb(35%,70%,90%);fill-opacity:1;stroke-width:1;stroke-linecap:butt;stroke-linejoin:miter;stroke:rgb(0%,0%,0%);stroke-opacity:1;stroke-miterlimit:10;" d="M 420.214844 300 C 420.214844 311.714844 410.714844 321.214844 399 321.214844 C 387.285156 321.214844 377.785156 311.714844 377.785156 300 C 377.785156 288.285156 387.285156 278.785156 399 278.785156 C 410.714844 278.785156 420.214844 288.285156 420.214844 300 "/>
<path style="fill-rule:nonzero;fill:rgb(53%,27%,7%);fill-opacity:1;stroke-width:1;stroke-linecap:butt;stroke-linejoin:miter;stroke:rgb(0%,0%,0%);stroke-opacity:1;stroke-miterlimit:10;" d="M 810.785156 345.785156 L 810.785156 388.214844 L 853.214844 388.214844 L 853.214844 345.785156 L 810.785156 345.785156 "/>
<path style="fill-rule:nonzero;fill:rgb(35%,70%,90%);fill-opacity:1;stroke-width:1;stroke-linecap:butt;stroke-linejoin:miter;stroke:rgb(0%,0%,0%);stroke-opacity:1;stroke-miterlimit:10;" d="M 673.785156 313.785156 L 673.785156 356.214844 L 716.214844 356.214844 L 716.214844 313.785156 L 673.785156 313.785156 "/>
<path style="fill-rule:nonzero;fill:rgb(53%,27%,7%);fill-opacity:1;stroke-width:1;stroke-linecap:butt;stroke-linejoin:miter;stroke:rgb(0%,0%,0%);stroke-opacity:1;stroke-miterlimit:10;" d="M 979.785156 285.785156 L 979.785156 328.214844 L 1022.214844 328.214844 L 1022.214844 285.785156 L 979.785156 285.785156 "/>
<path style="fill-rule:nonzero;fill:rgb(35%,70%,90%);fill-opacity:1;stroke-width:1;stroke-linecap:butt;stroke-linejoin:miter;stroke:rgb(0%,0%,0%);stroke-opacity:1;stroke-miterlimit:10;" d="M 930.785156 109.785156 L 930.785156 152.214844 L 973.214844 152.214844 L 973.214844 109.785156 L 930.785156 109.785156 "/>
<path style="fill-rule:nonzero;fill:rgb(53%,27%,7%);fill-opacity:1;stroke-width:1;stroke-linecap:butt;stroke-linejoin:miter;stroke:rgb(0%,0%,0%);stroke-opacity:1;stroke-miterlimit:10;" d="M 767.785156 67.785156 L 767.785156 110.214844 L 810.214844 110.214844 L 810.214844 67.785156 L 767.785156 67.785156 "/>
</g>
</svg>
