<?xml version="1.0" encoding="UTF-8"?>
<svg xmlns="http://www.w3.org/2000/svg" xmlns:xlink="http://www.w3.org/1999/xlink" width="1179pt" height="517pt" viewBox="0 0 1179 517" version="1.1">
<g id="surface1241">
<rect x="0" y="0" width="1179" height="517" style="fill:rgb(90%,90%,90%);fill-opacity:1;stroke:none;"/>
<path style="fill-rule:nonzero;fill:rgb(55%,51%,53%);fill-opacity:1;stroke-width:1;stroke-linecap:butt;stroke-linejoin:miter;stroke:rgb(0%,0%,0%);stroke-opacity:1;stroke-miterlimit:10;" d="M 688.214844 161 C 688.214844 172.714844 678.714844 182.214844 667 182.214844 C 655.285156 182.214844 645.785156 172.714844 645.785156 161 C 645.785156 149.285156 655.285156 139.785156 667 139.785156 C 678.714844 139.785156 688.214844 149.285156 688.214844 161 "/>
<path style="fill-rule:nonzero;fill:rgb(55%,51%,53%);fill-opacity:1;stroke-width:1;stroke-linecap:butt;stroke-linejoin:miter;stroke:rgb(0%,0%,0%);stroke-opacity:1;stroke-miterlimit:10;" d="M 211.214844 370 C 211.214844 381.714844 201.714844 391.214844 190 391.214844 C 178.285156 391.214844 168.785156 381.714844 168.785156 370 C 168.785156 358.285156 178.285156 348.785156 190 348.785156 C 201.714844 348.785156 211.214844 358.285156 211.214844 370 "/>
<path style="fill-rule:nonzero;fill:rgb(55%,51%,53%);fill-opacity:1;stroke-width:1;stroke-linecap:butt;stroke-linejoin:miter;stroke:rgb(0%,0%,0%);stroke-opacity:1;stroke-miterlimit:10;" d="M 202.214844 93 C 202.214844 104.714844 192.714844 114.214844 181 114.214844 C 169.285156 114.214844 159.785156 104.714844 159.785156 93 C 159.785156 81.285156 169.285156 71.785156 181 71.785156 C 192.714844 71.785156 202.214844 81.285156 202.214844 93 "/>
<path style="fill-rule:nonzero;fill:rgb(55%,51%,53%);fill-opacity:1;stroke-width:1;stroke-linecap:butt;stroke-linejoin:miter;stroke:rgb(0%,0%,0%);stroke-opacity:1;stroke-miterlimit:10;" d="M 1049.214844 270 C 1049.214844 281.714844 1039.714844 291.214844 1028 291.214844 C 1016.285156 291.214844 1006.785156 281.714844 1006.785156 270 C 1006.785156 258.285156 1016.285156 248.785156 1028 248.785156 C 1039.714844 248.785156 1049.214844 258.285156 1049.214844 270 "/>
<path style="fill-rule:nonzero;fill:rgb(35%,70%,90%);fill-opacity:1;stroke-width:1;stroke-linecap:butt;stroke-linejoin:miter;stroke:rgb(0%,0%,0%);stroke-opacity:1;stroke-miterlimit:10;" d="M 562 287 L 536.019531 332 L 587.980469 332 L 562 287 "/>
<path style="fill-rule:nonzero;fill:rgb(35%,70%,90%);fill-opacity:1;stroke-width:1;stroke-linecap:butt;stroke-linejoin:miter;stroke:rgb(0%,0%,0%);stroke-opacity:1;stroke-miterlimit:10;" d="M 477 115 L 451.019531 160 L 502.980469 160 L 477 115 "/>
<path style="fill-rule:nonzero;fill:rgb(35%,70%,90%);fill-opacity:1;stroke-width:1;stroke-linecap:butt;stroke-linejoin:miter;stroke:rgb(0%,0%,0%);stroke-opacity:1;stroke-miterlimit:10;" d="M 894 313 L 868.019531 358 L 919.980469 358 L 894 313 "/>
</g>
</svg>
