<?xml version="1.0" encoding="UTF-8"?>
<svg xmlns="http://www.w3.org/2000/svg" xmlns:xlink="http://www.w3.org/1999/xlink" width="1179pt" height="517pt" viewBox="0 0 1179 517" version="1.1">
<g id="surface711">
<rect x="0" y="0" width="1179" height="517" style="fill:rgb(90%,90%,90%);fill-opacity:1;stroke:none;"/>
<path style="fill-rule:nonzero;fill:rgb(55%,51%,53%);fill-opacity:1;stroke-width:1;stroke-linecap:butt;stroke-linejoin:miter;stroke:rgb(0%,0%,0%);stroke-opacity:1;stroke-miterlimit:10;" d="M 376.214844 120 C 376.214844 131.714844 366.714844 141.214844 355 141.214844 C 343.285156 141.214844 333.785156 131.714844 333.785156 120 C 333.785156 108.285156 343.285156 98.785156 355 98.785156 C 366.714844 98.785156 376.214844 108.285156 376.214844 120 "/>
<path style="fill-rule:nonzero;fill:rgb(55%,51%,53%);fill-opacity:1;stroke-width:1;stroke-linecap:butt;stroke-linejoin:miter;stroke:rgb(0%,0%,0%);stroke-opacity:1;stroke-miterlimit:10;" d="M 69.785156 354.785156 L 69.785156 397.214844 L 112.214844 397.214844 L 112.214844 354.785156 L 69.785156 354.785156 "/>
<path style="fill-rule:nonzero;fill:rgb(55%,51%,53%);fill-opacity:1;stroke-width:1;stroke-linecap:butt;stroke-linejoin:miter;stroke:rgb(0%,0%,0%);stroke-opacity:1;stroke-miterlimit:10;" d="M 114.214844 131 C 114.214844 142.714844 104.714844 152.214844 93 152.214844 C 81.285156 152.214844 71.785156 142.714844 71.785156 131 C 71.785156 119.285156 81.285156 109.785156 93 109.785156 C 104.714844 109.785156 114.214844 119.285156 114.214844 131 "/>
<path style="fill-rule:nonzero;fill:rgb(55%,51%,53%);fill-opacity:1;stroke-width:1;stroke-linecap:butt;stroke-linejoin:miter;stroke:rgb(0%,0%,0%);stroke-opacity:1;stroke-miterlimit:10;" d="M 306.785156 233.785156 L 306.785156 276.214844 L 349.214844 276.214844 L 349.214844 233.785156 L 306.785156 233.785156 "/>
<path style="fill-rule:nonzero;fill:rgb(55%,51%,53%);fill-opacity:1;stroke-width:1;stroke-linecap:butt;stroke-linejoin:miter;stroke:rgb(0%,0%,0%);stroke-opacity:1;stroke-miterlimit:10;" d="M 302.214844 384 C 302.214844 395.714844 292.714844 405.214844 281 405.214844 C 269.285156 405.214844 259.785156 395.714844 259.785156 384 C 259.785156 372.285156 269.285156 362.785156 281 362.785156 C 292.714844 362.785156 302.214844 372.285156 302.214844 384 "/>
<path style="fill-rule:nonzero;fill:rgb(53%,27%,7%);fill-opacity:1;stroke-width:1;stroke-linecap:butt;stroke-linejoin:miter;stroke:rgb(0%,0%,0%);stroke-opacity:1;stroke-miterlimit:10;" d="M 986.785156 204.785156 L 986.785156 247.214844 L 1029.214844 247.214844 L 1029.214844 204.785156 L 986.785156 204.785156 "/>
<path style="fill-rule:nonzero;fill:rgb(53%,27%,7%);fill-opacity:1;stroke-width:1;stroke-linecap:butt;stroke-linejoin:miter;stroke:rgb(0%,0%,0%);stroke-opacity:1;stroke-miterlimit:10;" d="M 835.214844 259 C 835.214844 270.714844 825.714844 280.214844 814 280.214844 C 802.285156 280.214844 792.785156 270.714844 792.785156 259 C 792.785156 247.285156 802.285156 237.785156 814 237.785156 C 825.714844 237.785156 835.214844 247.285156 835.214844 259 "/>
<path style="fill-rule:nonzero;fill:rgb(53%,27%,7%);fill-opacity:1;stroke-width:1;stroke-linecap:butt;stroke-linejoin:miter;stroke:rgb(0%,0%,0%);stroke-opacity:1;stroke-miterlimit:10;" d="M 758.785156 59.785156 L 758.785156 102.214844 L 801.214844 102.214844 L 801.214844 59.785156 L 758.785156 59.785156 "/>
<path style="fill-rule:nonzero;fill:rgb(53%,27%,7%);fill-opacity:1;stroke-width:1;stroke-linecap:butt;stroke-linejoin:miter;stroke:rgb(0%,0%,0%);stroke-opacity:1;stroke-miterlimit:10;" d="M 1064.214844 398 C 1064.214844 409.714844 1054.714844 419.214844 1043 419.214844 C 1031.285156 419.214844 1021.785156 409.714844 1021.785156 398 C 1021.785156 386.285156 1031.285156 376.785156 1043 376.785156 C 1054.714844 376.785156 1064.214844 386.285156 1064.214844 398 "/>
</g>
</svg>
