<?xml version="1.0" encoding="UTF-8"?>
<svg xmlns="http://www.w3.org/2000/svg" xmlns:xlink="http://www.w3.org/1999/xlink" width="1179pt" height="517pt" viewBox="0 0 1179 517" version="1.1">
<g id="surface1241">
<rect x="0" y="0" width="1179" height="517" style="fill:rgb(90%,90%,90%);fill-opacity:1;stroke:none;"/>
<path style="fill-rule:nonzero;fill:rgb(55%,51%,53%);fill-opacity:1;stroke-width:1;stroke-linecap:butt;stroke-linejoin:miter;stroke:rgb(0%,0%,0%);stroke-opacity:1;stroke-miterlimit:10;" d="M 886.214844 200 C 886.214844 211.714844 876.714844 221.214844 865 221.214844 C 853.285156 221.214844 843.785156 211.714844 843.785156 200 C 843.785156 188.285156 853.285156 178.785156 865 178.785156 C 876.714844 178.785156 886.214844 188.285156 886.214844 200 "/>
<path style="fill-rule:nonzero;fill:rgb(55%,51%,53%);fill-opacity:1;stroke-width:1;stroke-linecap:butt;stroke-linejoin:miter;stroke:rgb(0%,0%,0%);stroke-opacity:1;stroke-miterlimit:10;" d="M 704.214844 167 C 704.214844 178.714844 694.714844 188.214844 683 188.214844 C 671.285156 188.214844 661.785156 178.714844 661.785156 167 C 661.785156 155.285156 671.285156 145.785156 683 145.785156 C 694.714844 145.785156 704.214844 155.285156 704.214844 167 "/>
<path style="fill-rule:nonzero;fill:rgb(55%,51%,53%);fill-opacity:1;stroke-width:1;stroke-linecap:butt;stroke-linejoin:miter;stroke:rgb(0%,0%,0%);stroke-opacity:1;stroke-miterlimit:10;" d="M 203.214844 153 C 203.214844 164.714844 193.714844 174.214844 182 174.214844 C 170.285156 174.214844 160.785156 164.714844 160.785156 153 C 160.785156 141.285156 170.285156 131.785156 182 131.785156 C 193.714844 131.785156 203.214844 141.285156 203.214844 153 "/>
<path style="fill-rule:nonzero;fill:rgb(55%,51%,53%);fill-opacity:1;stroke-width:1;stroke-linecap:butt;stroke-linejoin:miter;stroke:rgb(0%,0%,0%);stroke-opacity:1;stroke-miterlimit:10;" d="M 831.214844 310 C 831.214844 321.714844 821.714844 331.214844 810 331.214844 C 798.285156 331.214844 788.785156 321.714844 788.785156 310 C 788.785156 298.285156 798.285156 288.785156 810 288.785156 C 821.714844 288.785156 831.214844 298.285156 831.214844 310 "/>
<path style="fill-rule:nonzero;fill:rgb(35%,70%,90%);fill-opacity:1;stroke-width:1;stroke-linecap:butt;stroke-linejoin:miter;stroke:rgb(0%,0%,0%);stroke-opacity:1;stroke-miterlimit:10;" d="M 514 213 L 488.019531 258 L 539.980469 258 L 514 213 "/>
<path style="fill-rule:nonzero;fill:rgb(35%,70%,90%);fill-opacity:1;stroke-width:1;stroke-linecap:butt;stroke-linejoin:miter;stroke:rgb(0%,0%,0%);stroke-opacity:1;stroke-miterlimit:10;" d="M 388 345 L 362.019531 390 L 413.980469 390 L 388 345 "/>
<path style="fill-rule:nonzero;fill:rgb(35%,70%,90%);fill-opacity:1;stroke-width:1;stroke-linecap:butt;stroke-linejoin:miter;stroke:rgb(0%,0%,0%);stroke-opacity:1;stroke-miterlimit:10;" d="M 997 391 L 971.019531 436 L 1022.980469 436 L 997 391 "/>
</g>
</svg>
