<?xml version="1.0" encoding="UTF-8"?>
<svg xmlns="http://www.w3.org/2000/svg" xmlns:xlink="http://www.w3.org/1999/xlink" width="1179pt" height="517pt" viewBox="0 0 1179 517" version="1.1">
<g id="surface1421">
<rect x="0" y="0" width="1179" height="517" style="fill:rgb(90%,90%,90%);fill-opacity:1;stroke:none;"/>
<path style="fill-rule:nonzero;fill:rgb(55%,51%,53%);fill-opacity:1;stroke-width:1;stroke-linecap:butt;stroke-linejoin:miter;stroke:rgb(0%,0%,0%);stroke-opacity:1;stroke-miterlimit:10;" d="M 471.214844 423 C 471.214844 434.714844 461.714844 444.214844 450 444.214844 C 438.285156 444.214844 428.785156 434.714844 428.785156 423 C 428.785156 411.285156 438.285156 401.785156 450 401.785156 C 461.714844 401.785156 471.214844 411.285156 471.214844 423 "/>
<path style="fill-rule:nonzero;fill:rgb(55%,51%,53%);fill-opacity:1;stroke-width:1;stroke-linecap:butt;stroke-linejoin:miter;stroke:rgb(0%,0%,0%);stroke-opacity:1;stroke-miterlimit:10;" d="M 349.214844 158 C 349.214844 169.714844 339.714844 179.214844 328 179.214844 C 316.285156 179.214844 306.785156 169.714844 306.785156 158 C 306.785156 146.285156 316.285156 136.785156 328 136.785156 C 339.714844 136.785156 349.214844 146.285156 349.214844 158 "/>
<path style="fill-rule:nonzero;fill:rgb(55%,51%,53%);fill-opacity:1;stroke-width:1;stroke-linecap:butt;stroke-linejoin:miter;stroke:rgb(0%,0%,0%);stroke-opacity:1;stroke-miterlimit:10;" d="M 784.214844 236 C 784.214844 247.714844 774.714844 257.214844 763 257.214844 C 751.285156 257.214844 741.785156 247.714844 741.785156 236 C 741.785156 224.285156 751.285156 214.785156 763 214.785156 C 774.714844 214.785156 784.214844 224.285156 784.214844 236 "/>
<path style="fill-rule:nonzero;fill:rgb(55%,51%,53%);fill-opacity:1;stroke-width:1;stroke-linecap:butt;stroke-linejoin:miter;stroke:rgb(0%,0%,0%);stroke-opacity:1;stroke-miterlimit:10;" d="M 629.214844 294 C 629.214844 305.714844 619.714844 315.214844 608 315.214844 C 596.285156 315.214844 586.785156 305.714844 586.785156 294 C 586.785156 282.285156 596.285156 272.785156 608 272.785156 C 619.714844 272.785156 629.214844 282.285156 629.214844 294 "/>
<path style="fill-rule:nonzero;fill:rgb(35%,70%,90%);fill-opacity:1;stroke-width:1;stroke-linecap:butt;stroke-linejoin:miter;stroke:rgb(0%,0%,0%);stroke-opacity:1;stroke-miterlimit:10;" d="M 102 258 L 76.019531 303 L 127.980469 303 L 102 258 "/>
<path style="fill-rule:nonzero;fill:rgb(35%,70%,90%);fill-opacity:1;stroke-width:1;stroke-linecap:butt;stroke-linejoin:miter;stroke:rgb(0%,0%,0%);stroke-opacity:1;stroke-miterlimit:10;" d="M 297 388 L 271.019531 433 L 322.980469 433 L 297 388 "/>
<path style="fill-rule:nonzero;fill:rgb(35%,70%,90%);fill-opacity:1;stroke-width:1;stroke-linecap:butt;stroke-linejoin:miter;stroke:rgb(0%,0%,0%);stroke-opacity:1;stroke-miterlimit:10;" d="M 848 96 L 822.019531 141 L 873.980469 141 L 848 96 "/>
</g>
</svg>
