<?xml version="1.0" encoding="UTF-8"?>
<svg xmlns="http://www.w3.org/2000/svg" xmlns:xlink="http://www.w3.org/1999/xlink" width="1179pt" height="517pt" viewBox="0 0 1179 517" version="1.1">
<g id="surface676">
<rect x="0" y="0" width="1179" height="517" style="fill:rgb(90%,90%,90%);fill-opacity:1;stroke:none;"/>
<path style="fill-rule:nonzero;fill:rgb(100%,51%,0%);fill-opacity:1;stroke-width:1;stroke-linecap:butt;stroke-linejoin:miter;stroke:rgb(0%,0%,0%);stroke-opacity:1;stroke-miterlimit:10;" d="M 198.214844 182 C 198.214844 193.714844 188.714844 203.214844 177 203.214844 C 165.285156 203.214844 155.785156 193.714844 155.785156 182 C 155.785156 170.285156 165.285156 160.785156 177 160.785156 C 188.714844 160.785156 198.214844 170.285156 198.214844 182 "/>
<path style="fill-rule:nonzero;fill:rgb(55%,51%,53%);fill-opacity:1;stroke-width:1;stroke-linecap:butt;stroke-linejoin:miter;stroke:rgb(0%,0%,0%);stroke-opacity:1;stroke-miterlimit:10;" d="M 355.214844 408 C 355.214844 419.714844 345.714844 429.214844 334 429.214844 C 322.285156 429.214844 312.785156 419.714844 312.785156 408 C 312.785156 396.285156 322.285156 386.785156 334 386.785156 C 345.714844 386.785156 355.214844 396.285156 355.214844 408 "/>
<path style="fill-rule:nonzero;fill:rgb(100%,51%,0%);fill-opacity:1;stroke-width:1;stroke-linecap:butt;stroke-linejoin:miter;stroke:rgb(0%,0%,0%);stroke-opacity:1;stroke-miterlimit:10;" d="M 225.214844 339 C 225.214844 350.714844 215.714844 360.214844 204 360.214844 C 192.285156 360.214844 182.785156 350.714844 182.785156 339 C 182.785156 327.285156 192.285156 317.785156 204 317.785156 C 215.714844 317.785156 225.214844 327.285156 225.214844 339 "/>
<path style="fill-rule:nonzero;fill:rgb(55%,51%,53%);fill-opacity:1;stroke-width:1;stroke-linecap:butt;stroke-linejoin:miter;stroke:rgb(0%,0%,0%);stroke-opacity:1;stroke-miterlimit:10;" d="M 387.214844 315 C 387.214844 326.714844 377.714844 336.214844 366 336.214844 C 354.285156 336.214844 344.785156 326.714844 344.785156 315 C 344.785156 303.285156 354.285156 293.785156 366 293.785156 C 377.714844 293.785156 387.214844 303.285156 387.214844 315 "/>
<path style="fill-rule:nonzero;fill:rgb(100%,51%,0%);fill-opacity:1;stroke-width:1;stroke-linecap:butt;stroke-linejoin:miter;stroke:rgb(0%,0%,0%);stroke-opacity:1;stroke-miterlimit:10;" d="M 449.214844 419 C 449.214844 430.714844 439.714844 440.214844 428 440.214844 C 416.285156 440.214844 406.785156 430.714844 406.785156 419 C 406.785156 407.285156 416.285156 397.785156 428 397.785156 C 439.714844 397.785156 449.214844 407.285156 449.214844 419 "/>
<path style="fill-rule:nonzero;fill:rgb(55%,51%,53%);fill-opacity:1;stroke-width:1;stroke-linecap:butt;stroke-linejoin:miter;stroke:rgb(0%,0%,0%);stroke-opacity:1;stroke-miterlimit:10;" d="M 846 109 L 820.019531 154 L 871.980469 154 L 846 109 "/>
<path style="fill-rule:nonzero;fill:rgb(100%,51%,0%);fill-opacity:1;stroke-width:1;stroke-linecap:butt;stroke-linejoin:miter;stroke:rgb(0%,0%,0%);stroke-opacity:1;stroke-miterlimit:10;" d="M 908 313 L 882.019531 358 L 933.980469 358 L 908 313 "/>
<path style="fill-rule:nonzero;fill:rgb(55%,51%,53%);fill-opacity:1;stroke-width:1;stroke-linecap:butt;stroke-linejoin:miter;stroke:rgb(0%,0%,0%);stroke-opacity:1;stroke-miterlimit:10;" d="M 719 145 L 693.019531 190 L 744.980469 190 L 719 145 "/>
</g>
</svg>
