<?xml version="1.0" encoding="UTF-8"?>
<svg xmlns="http://www.w3.org/2000/svg" xmlns:xlink="http://www.w3.org/1999/xlink" width="1179pt" height="517pt" viewBox="0 0 1179 517" version="1.1">
<g id="surface341">
<rect x="0" y="0" width="1179" height="517" style="fill:rgb(90%,90%,90%);fill-opacity:1;stroke:none;"/>
<path style="fill-rule:nonzero;fill:rgb(55%,51%,53%);fill-opacity:1;stroke-width:1;stroke-linecap:butt;stroke-linejoin:miter;stroke:rgb(0%,0%,0%);stroke-opacity:1;stroke-miterlimit:10;" d="M 304 224 L 333.664062 224 L 345.664062 195.785156 L 357.664062 224 L 387.332031 224 L 363.332031 241.4375 L 371.417969 272.980469 L 345.664062 255.542969 L 319.914062 272.980469 L 332.214844 241.4375 L 304 224 "/>
<path style="fill-rule:nonzero;fill:rgb(55%,51%,53%);fill-opacity:1;stroke-width:1;stroke-linecap:butt;stroke-linejoin:miter;stroke:rgb(0%,0%,0%);stroke-opacity:1;stroke-miterlimit:10;" d="M 286 324 L 315.664062 324 L 327.664062 295.785156 L 339.664062 324 L 369.332031 324 L 345.332031 341.4375 L 353.417969 372.980469 L 327.664062 355.542969 L 301.914062 372.980469 L 314.214844 341.4375 L 286 324 "/>
<path style="fill-rule:nonzero;fill:rgb(53%,27%,7%);fill-opacity:1;stroke-width:1;stroke-linecap:butt;stroke-linejoin:miter;stroke:rgb(0%,0%,0%);stroke-opacity:1;stroke-miterlimit:10;" d="M 137 269 L 166.664062 269 L 178.664062 240.785156 L 190.664062 269 L 220.332031 269 L 196.332031 286.4375 L 204.417969 317.980469 L 178.664062 300.542969 L 152.914062 317.980469 L 165.214844 286.4375 L 137 269 "/>
<path style="fill-rule:nonzero;fill:rgb(53%,27%,7%);fill-opacity:1;stroke-width:1;stroke-linecap:butt;stroke-linejoin:miter;stroke:rgb(0%,0%,0%);stroke-opacity:1;stroke-miterlimit:10;" d="M 915.785156 149.785156 L 915.785156 192.214844 L 958.214844 192.214844 L 958.214844 149.785156 L 915.785156 149.785156 "/>
<path style="fill-rule:nonzero;fill:rgb(53%,27%,7%);fill-opacity:1;stroke-width:1;stroke-linecap:butt;stroke-linejoin:miter;stroke:rgb(0%,0%,0%);stroke-opacity:1;stroke-miterlimit:10;" d="M 755.785156 356.785156 L 755.785156 399.214844 L 798.214844 399.214844 L 798.214844 356.785156 L 755.785156 356.785156 "/>
<path style="fill-rule:nonzero;fill:rgb(55%,51%,53%);fill-opacity:1;stroke-width:1;stroke-linecap:butt;stroke-linejoin:miter;stroke:rgb(0%,0%,0%);stroke-opacity:1;stroke-miterlimit:10;" d="M 761.785156 130.785156 L 761.785156 173.214844 L 804.214844 173.214844 L 804.214844 130.785156 L 761.785156 130.785156 "/>
<path style="fill-rule:nonzero;fill:rgb(55%,51%,53%);fill-opacity:1;stroke-width:1;stroke-linecap:butt;stroke-linejoin:miter;stroke:rgb(0%,0%,0%);stroke-opacity:1;stroke-miterlimit:10;" d="M 965.785156 378.785156 L 965.785156 421.214844 L 1008.214844 421.214844 L 1008.214844 378.785156 L 965.785156 378.785156 "/>
<path style="fill-rule:nonzero;fill:rgb(53%,27%,7%);fill-opacity:1;stroke-width:1;stroke-linecap:butt;stroke-linejoin:miter;stroke:rgb(0%,0%,0%);stroke-opacity:1;stroke-miterlimit:10;" d="M 677.785156 97.785156 L 677.785156 140.214844 L 720.214844 140.214844 L 720.214844 97.785156 L 677.785156 97.785156 "/>
</g>
</svg>
