<?xml version="1.0" encoding="UTF-8"?>
<svg xmlns="http://www.w3.org/2000/svg" xmlns:xlink="http://www.w3.org/1999/xlink" width="1179pt" height="517pt" viewBox="0 0 1179 517" version="1.1">
<g id="surface681">
<rect x="0" y="0" width="1179" height="517" style="fill:rgb(90%,90%,90%);fill-opacity:1;stroke:none;"/>
<path style="fill-rule:nonzero;fill:rgb(100%,51%,0%);fill-opacity:1;stroke-width:1;stroke-linecap:butt;stroke-linejoin:miter;stroke:rgb(0%,0%,0%);stroke-opacity:1;stroke-miterlimit:10;" d="M 416.214844 381 C 416.214844 392.714844 406.714844 402.214844 395 402.214844 C 383.285156 402.214844 373.785156 392.714844 373.785156 381 C 373.785156 369.285156 383.285156 359.785156 395 359.785156 C 406.714844 359.785156 416.214844 369.285156 416.214844 381 "/>
<path style="fill-rule:nonzero;fill:rgb(100%,51%,0%);fill-opacity:1;stroke-width:1;stroke-linecap:butt;stroke-linejoin:miter;stroke:rgb(0%,0%,0%);stroke-opacity:1;stroke-miterlimit:10;" d="M 118.785156 237.785156 L 118.785156 280.214844 L 161.214844 280.214844 L 161.214844 237.785156 L 118.785156 237.785156 "/>
<path style="fill-rule:nonzero;fill:rgb(100%,51%,0%);fill-opacity:1;stroke-width:1;stroke-linecap:butt;stroke-linejoin:miter;stroke:rgb(0%,0%,0%);stroke-opacity:1;stroke-miterlimit:10;" d="M 364.785156 215.785156 L 364.785156 258.214844 L 407.214844 258.214844 L 407.214844 215.785156 L 364.785156 215.785156 "/>
<path style="fill-rule:nonzero;fill:rgb(100%,51%,0%);fill-opacity:1;stroke-width:1;stroke-linecap:butt;stroke-linejoin:miter;stroke:rgb(0%,0%,0%);stroke-opacity:1;stroke-miterlimit:10;" d="M 121.214844 123 C 121.214844 134.714844 111.714844 144.214844 100 144.214844 C 88.285156 144.214844 78.785156 134.714844 78.785156 123 C 78.785156 111.285156 88.285156 101.785156 100 101.785156 C 111.714844 101.785156 121.214844 111.285156 121.214844 123 "/>
<path style="fill-rule:nonzero;fill:rgb(100%,51%,0%);fill-opacity:1;stroke-width:1;stroke-linecap:butt;stroke-linejoin:miter;stroke:rgb(0%,0%,0%);stroke-opacity:1;stroke-miterlimit:10;" d="M 139.214844 412 C 139.214844 423.714844 129.714844 433.214844 118 433.214844 C 106.285156 433.214844 96.785156 423.714844 96.785156 412 C 96.785156 400.285156 106.285156 390.785156 118 390.785156 C 129.714844 390.785156 139.214844 400.285156 139.214844 412 "/>
<path style="fill-rule:nonzero;fill:rgb(55%,51%,53%);fill-opacity:1;stroke-width:1;stroke-linecap:butt;stroke-linejoin:miter;stroke:rgb(0%,0%,0%);stroke-opacity:1;stroke-miterlimit:10;" d="M 890.785156 381.785156 L 890.785156 424.214844 L 933.214844 424.214844 L 933.214844 381.785156 L 890.785156 381.785156 "/>
<path style="fill-rule:nonzero;fill:rgb(55%,51%,53%);fill-opacity:1;stroke-width:1;stroke-linecap:butt;stroke-linejoin:miter;stroke:rgb(0%,0%,0%);stroke-opacity:1;stroke-miterlimit:10;" d="M 731.214844 411 C 731.214844 422.714844 721.714844 432.214844 710 432.214844 C 698.285156 432.214844 688.785156 422.714844 688.785156 411 C 688.785156 399.285156 698.285156 389.785156 710 389.785156 C 721.714844 389.785156 731.214844 399.285156 731.214844 411 "/>
<path style="fill-rule:nonzero;fill:rgb(55%,51%,53%);fill-opacity:1;stroke-width:1;stroke-linecap:butt;stroke-linejoin:miter;stroke:rgb(0%,0%,0%);stroke-opacity:1;stroke-miterlimit:10;" d="M 794.214844 178 C 794.214844 189.714844 784.714844 199.214844 773 199.214844 C 761.285156 199.214844 751.785156 189.714844 751.785156 178 C 751.785156 166.285156 761.285156 156.785156 773 156.785156 C 784.714844 156.785156 794.214844 166.285156 794.214844 178 "/>
<path style="fill-rule:nonzero;fill:rgb(55%,51%,53%);fill-opacity:1;stroke-width:1;stroke-linecap:butt;stroke-linejoin:miter;stroke:rgb(0%,0%,0%);stroke-opacity:1;stroke-miterlimit:10;" d="M 690.785156 61.785156 L 690.785156 104.214844 L 733.214844 104.214844 L 733.214844 61.785156 L 690.785156 61.785156 "/>
<path style="fill-rule:nonzero;fill:rgb(55%,51%,53%);fill-opacity:1;stroke-width:1;stroke-linecap:butt;stroke-linejoin:miter;stroke:rgb(0%,0%,0%);stroke-opacity:1;stroke-miterlimit:10;" d="M 1006.785156 115.785156 L 1006.785156 158.214844 L 1049.214844 158.214844 L 1049.214844 115.785156 L 1006.785156 115.785156 "/>
</g>
</svg>
