<?xml version="1.0" encoding="UTF-8"?>
<svg xmlns="http://www.w3.org/2000/svg" xmlns:xlink="http://www.w3.org/1999/xlink" width="1179pt" height="517pt" viewBox="0 0 1179 517" version="1.1">
<g id="surface216">
<rect x="0" y="0" width="1179" height="517" style="fill:rgb(90%,90%,90%);fill-opacity:1;stroke:none;"/>
<path style="fill-rule:nonzero;fill:rgb(53%,27%,7%);fill-opacity:1;stroke-width:1;stroke-linecap:butt;stroke-linejoin:miter;stroke:rgb(0%,0%,0%);stroke-opacity:1;stroke-miterlimit:10;" d="M 199 50 L 173.019531 95 L 224.980469 95 L 199 50 "/>
<path style="fill-rule:nonzero;fill:rgb(35%,70%,90%);fill-opacity:1;stroke-width:1;stroke-linecap:butt;stroke-linejoin:miter;stroke:rgb(0%,0%,0%);stroke-opacity:1;stroke-miterlimit:10;" d="M 301 383 L 330.664062 383 L 342.664062 354.785156 L 354.664062 383 L 384.332031 383 L 360.332031 400.4375 L 368.417969 431.980469 L 342.664062 414.542969 L 316.914062 431.980469 L 329.214844 400.4375 L 301 383 "/>
<path style="fill-rule:nonzero;fill:rgb(35%,70%,90%);fill-opacity:1;stroke-width:1;stroke-linecap:butt;stroke-linejoin:miter;stroke:rgb(0%,0%,0%);stroke-opacity:1;stroke-miterlimit:10;" d="M 129 396 L 158.664062 396 L 170.664062 367.785156 L 182.664062 396 L 212.332031 396 L 188.332031 413.4375 L 196.417969 444.980469 L 170.664062 427.542969 L 144.914062 444.980469 L 157.214844 413.4375 L 129 396 "/>
<path style="fill-rule:nonzero;fill:rgb(53%,27%,7%);fill-opacity:1;stroke-width:1;stroke-linecap:butt;stroke-linejoin:miter;stroke:rgb(0%,0%,0%);stroke-opacity:1;stroke-miterlimit:10;" d="M 338 66 L 312.019531 111 L 363.980469 111 L 338 66 "/>
<path style="fill-rule:nonzero;fill:rgb(35%,70%,90%);fill-opacity:1;stroke-width:1;stroke-linecap:butt;stroke-linejoin:miter;stroke:rgb(0%,0%,0%);stroke-opacity:1;stroke-miterlimit:10;" d="M 722 355 L 751.664062 355 L 763.664062 326.785156 L 775.664062 355 L 805.332031 355 L 781.332031 372.4375 L 789.417969 403.980469 L 763.664062 386.542969 L 737.914062 403.980469 L 750.214844 372.4375 L 722 355 "/>
<path style="fill-rule:nonzero;fill:rgb(53%,27%,7%);fill-opacity:1;stroke-width:1;stroke-linecap:butt;stroke-linejoin:miter;stroke:rgb(0%,0%,0%);stroke-opacity:1;stroke-miterlimit:10;" d="M 1025 251 L 999.019531 296 L 1050.980469 296 L 1025 251 "/>
<path style="fill-rule:nonzero;fill:rgb(53%,27%,7%);fill-opacity:1;stroke-width:1;stroke-linecap:butt;stroke-linejoin:miter;stroke:rgb(0%,0%,0%);stroke-opacity:1;stroke-miterlimit:10;" d="M 957 96 L 931.019531 141 L 982.980469 141 L 957 96 "/>
<path style="fill-rule:nonzero;fill:rgb(35%,70%,90%);fill-opacity:1;stroke-width:1;stroke-linecap:butt;stroke-linejoin:miter;stroke:rgb(0%,0%,0%);stroke-opacity:1;stroke-miterlimit:10;" d="M 785 235 L 814.664062 235 L 826.664062 206.785156 L 838.664062 235 L 868.332031 235 L 844.332031 252.4375 L 852.417969 283.980469 L 826.664062 266.542969 L 800.914062 283.980469 L 813.214844 252.4375 L 785 235 "/>
<path style="fill-rule:nonzero;fill:rgb(35%,70%,90%);fill-opacity:1;stroke-width:1;stroke-linecap:butt;stroke-linejoin:miter;stroke:rgb(0%,0%,0%);stroke-opacity:1;stroke-miterlimit:10;" d="M 997 367 L 1026.664062 367 L 1038.664062 338.785156 L 1050.664062 367 L 1080.332031 367 L 1056.332031 384.4375 L 1064.417969 415.980469 L 1038.664062 398.542969 L 1012.914062 415.980469 L 1025.214844 384.4375 L 997 367 "/>
<path style="fill-rule:nonzero;fill:rgb(35%,70%,90%);fill-opacity:1;stroke-width:1;stroke-linecap:butt;stroke-linejoin:miter;stroke:rgb(0%,0%,0%);stroke-opacity:1;stroke-miterlimit:10;" d="M 873 211 L 902.664062 211 L 914.664062 182.785156 L 926.664062 211 L 956.332031 211 L 932.332031 228.4375 L 940.417969 259.980469 L 914.664062 242.542969 L 888.914062 259.980469 L 901.214844 228.4375 L 873 211 "/>
</g>
</svg>
