<?xml version="1.0" encoding="UTF-8"?>
<svg xmlns="http://www.w3.org/2000/svg" xmlns:xlink="http://www.w3.org/1999/xlink" width="1179pt" height="517pt" viewBox="0 0 1179 517" version="1.1">
<g id="surface891">
<rect x="0" y="0" width="1179" height="517" style="fill:rgb(90%,90%,90%);fill-opacity:1;stroke:none;"/>
<path style="fill-rule:nonzero;fill:rgb(100%,0%,0%);fill-opacity:1;stroke-width:1;stroke-linecap:butt;stroke-linejoin:miter;stroke:rgb(0%,0%,0%);stroke-opacity:1;stroke-miterlimit:10;" d="M 994 359.601562 C 994 345.199219 970 345.199219 970 359.601562 C 970 374 994 376.398438 994 388.398438 C 994 376.398438 1018 374 1018 359.601562 C 1018 345.199219 994 345.199219 994 359.601562 "/>
<path style="fill-rule:nonzero;fill:rgb(100%,0%,0%);fill-opacity:1;stroke-width:1;stroke-linecap:butt;stroke-linejoin:miter;stroke:rgb(0%,0%,0%);stroke-opacity:1;stroke-miterlimit:10;" d="M 299 120.601562 C 299 106.199219 275 106.199219 275 120.601562 C 275 135 299 137.398438 299 149.398438 C 299 137.398438 323 135 323 120.601562 C 323 106.199219 299 106.199219 299 120.601562 "/>
<path style="fill-rule:nonzero;fill:rgb(100%,0%,0%);fill-opacity:1;stroke-width:1;stroke-linecap:butt;stroke-linejoin:miter;stroke:rgb(0%,0%,0%);stroke-opacity:1;stroke-miterlimit:10;" d="M 320 360.601562 C 320 346.199219 296 346.199219 296 360.601562 C 296 375 320 377.398438 320 389.398438 C 320 377.398438 344 375 344 360.601562 C 344 346.199219 320 346.199219 320 360.601562 "/>
<path style="fill-rule:nonzero;fill:rgb(100%,0%,0%);fill-opacity:1;stroke-width:1;stroke-linecap:butt;stroke-linejoin:miter;stroke:rgb(0%,0%,0%);stroke-opacity:1;stroke-miterlimit:10;" d="M 424 223.601562 C 424 209.199219 400 209.199219 400 223.601562 C 400 238 424 240.398438 424 252.398438 C 424 240.398438 448 238 448 223.601562 C 448 209.199219 424 209.199219 424 223.601562 "/>
<path style="fill-rule:nonzero;fill:rgb(0%,0%,0%);fill-opacity:1;stroke-width:1;stroke-linecap:butt;stroke-linejoin:miter;stroke:rgb(0%,0%,0%);stroke-opacity:1;stroke-miterlimit:10;" d="M 137 190 L 117 190 L 117 200 L 137 200 L 137 220 L 147 220 L 147 200 L 167 200 L 167 190 L 147 190 L 147 170 L 137 170 L 137 190 "/>
<path style="fill-rule:nonzero;fill:rgb(0%,0%,0%);fill-opacity:1;stroke-width:1;stroke-linecap:butt;stroke-linejoin:miter;stroke:rgb(0%,0%,0%);stroke-opacity:1;stroke-miterlimit:10;" d="M 974 180 L 954 180 L 954 190 L 974 190 L 974 210 L 984 210 L 984 190 L 1004 190 L 1004 180 L 984 180 L 984 160 L 974 160 L 974 180 "/>
<path style="fill-rule:nonzero;fill:rgb(0%,0%,0%);fill-opacity:1;stroke-width:1;stroke-linecap:butt;stroke-linejoin:miter;stroke:rgb(0%,0%,0%);stroke-opacity:1;stroke-miterlimit:10;" d="M 747 174 L 727 174 L 727 184 L 747 184 L 747 204 L 757 204 L 757 184 L 777 184 L 777 174 L 757 174 L 757 154 L 747 154 L 747 174 "/>
<path style="fill-rule:nonzero;fill:rgb(0%,0%,0%);fill-opacity:1;stroke-width:1;stroke-linecap:butt;stroke-linejoin:miter;stroke:rgb(0%,0%,0%);stroke-opacity:1;stroke-miterlimit:10;" d="M 600 225 L 580 225 L 580 235 L 600 235 L 600 255 L 610 255 L 610 235 L 630 235 L 630 225 L 610 225 L 610 205 L 600 205 L 600 225 "/>
</g>
</svg>
