<?xml version="1.0" encoding="UTF-8"?>
<svg xmlns="http://www.w3.org/2000/svg" xmlns:xlink="http://www.w3.org/1999/xlink" width="1179pt" height="517pt" viewBox="0 0 1179 517" version="1.1">
<g id="surface76">
<rect x="0" y="0" width="1179" height="517" style="fill:rgb(90%,90%,90%);fill-opacity:1;stroke:none;"/>
<path style="fill-rule:nonzero;fill:rgb(35%,70%,90%);fill-opacity:1;stroke-width:1;stroke-linecap:butt;stroke-linejoin:miter;stroke:rgb(0%,0%,0%);stroke-opacity:1;stroke-miterlimit:10;" d="M 200.214844 210 C 200.214844 221.714844 190.714844 231.214844 179 231.214844 C 167.285156 231.214844 157.785156 221.714844 157.785156 210 C 157.785156 198.285156 167.285156 188.785156 179 188.785156 C 190.714844 188.785156 200.214844 198.285156 200.214844 210 "/>
<path style="fill-rule:nonzero;fill:rgb(35%,70%,90%);fill-opacity:1;stroke-width:1;stroke-linecap:butt;stroke-linejoin:miter;stroke:rgb(0%,0%,0%);stroke-opacity:1;stroke-miterlimit:10;" d="M 436.214844 87 C 436.214844 98.714844 426.714844 108.214844 415 108.214844 C 403.285156 108.214844 393.785156 98.714844 393.785156 87 C 393.785156 75.285156 403.285156 65.785156 415 65.785156 C 426.714844 65.785156 436.214844 75.285156 436.214844 87 "/>
<path style="fill-rule:nonzero;fill:rgb(35%,70%,90%);fill-opacity:1;stroke-width:1;stroke-linecap:butt;stroke-linejoin:miter;stroke:rgb(0%,0%,0%);stroke-opacity:1;stroke-miterlimit:10;" d="M 140 300 L 114.019531 345 L 165.980469 345 L 140 300 "/>
<path style="fill-rule:nonzero;fill:rgb(55%,51%,53%);fill-opacity:1;stroke-width:1;stroke-linecap:butt;stroke-linejoin:miter;stroke:rgb(0%,0%,0%);stroke-opacity:1;stroke-miterlimit:10;" d="M 992 157 L 966.019531 202 L 1017.980469 202 L 992 157 "/>
<path style="fill-rule:nonzero;fill:rgb(55%,51%,53%);fill-opacity:1;stroke-width:1;stroke-linecap:butt;stroke-linejoin:miter;stroke:rgb(0%,0%,0%);stroke-opacity:1;stroke-miterlimit:10;" d="M 744 351 L 718.019531 396 L 769.980469 396 L 744 351 "/>
<path style="fill-rule:nonzero;fill:rgb(55%,51%,53%);fill-opacity:1;stroke-width:1;stroke-linecap:butt;stroke-linejoin:miter;stroke:rgb(0%,0%,0%);stroke-opacity:1;stroke-miterlimit:10;" d="M 1054.214844 276 C 1054.214844 287.714844 1044.714844 297.214844 1033 297.214844 C 1021.285156 297.214844 1011.785156 287.714844 1011.785156 276 C 1011.785156 264.285156 1021.285156 254.785156 1033 254.785156 C 1044.714844 254.785156 1054.214844 264.285156 1054.214844 276 "/>
</g>
</svg>
