<?xml version="1.0" encoding="UTF-8"?>
<svg xmlns="http://www.w3.org/2000/svg" xmlns:xlink="http://www.w3.org/1999/xlink" width="1179pt" height="517pt" viewBox="0 0 1179 517" version="1.1">
<g id="surface241">
<rect x="0" y="0" width="1179" height="517" style="fill:rgb(90%,90%,90%);fill-opacity:1;stroke:none;"/>
<path style="fill-rule:nonzero;fill:rgb(35%,70%,90%);fill-opacity:1;stroke-width:1;stroke-linecap:butt;stroke-linejoin:miter;stroke:rgb(0%,0%,0%);stroke-opacity:1;stroke-miterlimit:10;" d="M 289 364 L 318.664062 364 L 330.664062 335.785156 L 342.664062 364 L 372.332031 364 L 348.332031 381.4375 L 356.417969 412.980469 L 330.664062 395.542969 L 304.914062 412.980469 L 317.214844 381.4375 L 289 364 "/>
<path style="fill-rule:nonzero;fill:rgb(35%,70%,90%);fill-opacity:1;stroke-width:1;stroke-linecap:butt;stroke-linejoin:miter;stroke:rgb(0%,0%,0%);stroke-opacity:1;stroke-miterlimit:10;" d="M 136 163 L 165.664062 163 L 177.664062 134.785156 L 189.664062 163 L 219.332031 163 L 195.332031 180.4375 L 203.417969 211.980469 L 177.664062 194.542969 L 151.914062 211.980469 L 164.214844 180.4375 L 136 163 "/>
<path style="fill-rule:nonzero;fill:rgb(35%,70%,90%);fill-opacity:1;stroke-width:1;stroke-linecap:butt;stroke-linejoin:miter;stroke:rgb(0%,0%,0%);stroke-opacity:1;stroke-miterlimit:10;" d="M 333 276 L 362.664062 276 L 374.664062 247.785156 L 386.664062 276 L 416.332031 276 L 392.332031 293.4375 L 400.417969 324.980469 L 374.664062 307.542969 L 348.914062 324.980469 L 361.214844 293.4375 L 333 276 "/>
<path style="fill-rule:nonzero;fill:rgb(35%,70%,90%);fill-opacity:1;stroke-width:1;stroke-linecap:butt;stroke-linejoin:miter;stroke:rgb(0%,0%,0%);stroke-opacity:1;stroke-miterlimit:10;" d="M 219 216 L 248.664062 216 L 260.664062 187.785156 L 272.664062 216 L 302.332031 216 L 278.332031 233.4375 L 286.417969 264.980469 L 260.664062 247.542969 L 234.914062 264.980469 L 247.214844 233.4375 L 219 216 "/>
<path style="fill-rule:nonzero;fill:rgb(55%,51%,53%);fill-opacity:1;stroke-width:1;stroke-linecap:butt;stroke-linejoin:miter;stroke:rgb(0%,0%,0%);stroke-opacity:1;stroke-miterlimit:10;" d="M 976.214844 315 C 976.214844 326.714844 966.714844 336.214844 955 336.214844 C 943.285156 336.214844 933.785156 326.714844 933.785156 315 C 933.785156 303.285156 943.285156 293.785156 955 293.785156 C 966.714844 293.785156 976.214844 303.285156 976.214844 315 "/>
<path style="fill-rule:nonzero;fill:rgb(55%,51%,53%);fill-opacity:1;stroke-width:1;stroke-linecap:butt;stroke-linejoin:miter;stroke:rgb(0%,0%,0%);stroke-opacity:1;stroke-miterlimit:10;" d="M 1064.214844 108 C 1064.214844 119.714844 1054.714844 129.214844 1043 129.214844 C 1031.285156 129.214844 1021.785156 119.714844 1021.785156 108 C 1021.785156 96.285156 1031.285156 86.785156 1043 86.785156 C 1054.714844 86.785156 1064.214844 96.285156 1064.214844 108 "/>
<path style="fill-rule:nonzero;fill:rgb(35%,70%,90%);fill-opacity:1;stroke-width:1;stroke-linecap:butt;stroke-linejoin:miter;stroke:rgb(0%,0%,0%);stroke-opacity:1;stroke-miterlimit:10;" d="M 872 185 L 901.664062 185 L 913.664062 156.785156 L 925.664062 185 L 955.332031 185 L 931.332031 202.4375 L 939.417969 233.980469 L 913.664062 216.542969 L 887.914062 233.980469 L 900.214844 202.4375 L 872 185 "/>
<path style="fill-rule:nonzero;fill:rgb(55%,51%,53%);fill-opacity:1;stroke-width:1;stroke-linecap:butt;stroke-linejoin:miter;stroke:rgb(0%,0%,0%);stroke-opacity:1;stroke-miterlimit:10;" d="M 855.214844 97 C 855.214844 108.714844 845.714844 118.214844 834 118.214844 C 822.285156 118.214844 812.785156 108.714844 812.785156 97 C 812.785156 85.285156 822.285156 75.785156 834 75.785156 C 845.714844 75.785156 855.214844 85.285156 855.214844 97 "/>
</g>
</svg>
