<?xml version="1.0" encoding="UTF-8"?>
<svg xmlns="http://www.w3.org/2000/svg" xmlns:xlink="http://www.w3.org/1999/xlink" width="1179pt" height="517pt" viewBox="0 0 1179 517" version="1.1">
<g id="surface1071">
<rect x="0" y="0" width="1179" height="517" style="fill:rgb(90%,90%,90%);fill-opacity:1;stroke:none;"/>
<path style="fill-rule:nonzero;fill:rgb(55%,51%,53%);fill-opacity:1;stroke-width:1;stroke-linecap:butt;stroke-linejoin:miter;stroke:rgb(0%,0%,0%);stroke-opacity:1;stroke-miterlimit:10;" d="M 983 405 L 1012.664062 405 L 1024.664062 376.785156 L 1036.664062 405 L 1066.332031 405 L 1042.332031 422.4375 L 1050.417969 453.980469 L 1024.664062 436.542969 L 998.914062 453.980469 L 1011.214844 422.4375 L 983 405 "/>
<path style="fill-rule:nonzero;fill:rgb(55%,51%,53%);fill-opacity:1;stroke-width:1;stroke-linecap:butt;stroke-linejoin:miter;stroke:rgb(0%,0%,0%);stroke-opacity:1;stroke-miterlimit:10;" d="M 900 116 L 929.664062 116 L 941.664062 87.785156 L 953.664062 116 L 983.332031 116 L 959.332031 133.4375 L 967.417969 164.980469 L 941.664062 147.542969 L 915.914062 164.980469 L 928.214844 133.4375 L 900 116 "/>
<path style="fill-rule:nonzero;fill:rgb(55%,51%,53%);fill-opacity:1;stroke-width:1;stroke-linecap:butt;stroke-linejoin:miter;stroke:rgb(0%,0%,0%);stroke-opacity:1;stroke-miterlimit:10;" d="M 173 403 L 202.664062 403 L 214.664062 374.785156 L 226.664062 403 L 256.332031 403 L 232.332031 420.4375 L 240.417969 451.980469 L 214.664062 434.542969 L 188.914062 451.980469 L 201.214844 420.4375 L 173 403 "/>
<path style="fill-rule:nonzero;fill:rgb(55%,51%,53%);fill-opacity:1;stroke-width:1;stroke-linecap:butt;stroke-linejoin:miter;stroke:rgb(0%,0%,0%);stroke-opacity:1;stroke-miterlimit:10;" d="M 422 258 L 451.664062 258 L 463.664062 229.785156 L 475.664062 258 L 505.332031 258 L 481.332031 275.4375 L 489.417969 306.980469 L 463.664062 289.542969 L 437.914062 306.980469 L 450.214844 275.4375 L 422 258 "/>
<path style="fill-rule:nonzero;fill:rgb(100%,51%,0%);fill-opacity:1;stroke-width:1;stroke-linecap:butt;stroke-linejoin:miter;stroke:rgb(0%,0%,0%);stroke-opacity:1;stroke-miterlimit:10;" d="M 414.214844 85 C 414.214844 96.714844 404.714844 106.214844 393 106.214844 C 381.285156 106.214844 371.785156 96.714844 371.785156 85 C 371.785156 73.285156 381.285156 63.785156 393 63.785156 C 404.714844 63.785156 414.214844 73.285156 414.214844 85 "/>
<path style="fill-rule:nonzero;fill:rgb(100%,51%,0%);fill-opacity:1;stroke-width:1;stroke-linecap:butt;stroke-linejoin:miter;stroke:rgb(0%,0%,0%);stroke-opacity:1;stroke-miterlimit:10;" d="M 646.214844 299 C 646.214844 310.714844 636.714844 320.214844 625 320.214844 C 613.285156 320.214844 603.785156 310.714844 603.785156 299 C 603.785156 287.285156 613.285156 277.785156 625 277.785156 C 636.714844 277.785156 646.214844 287.285156 646.214844 299 "/>
<path style="fill-rule:nonzero;fill:rgb(100%,51%,0%);fill-opacity:1;stroke-width:1;stroke-linecap:butt;stroke-linejoin:miter;stroke:rgb(0%,0%,0%);stroke-opacity:1;stroke-miterlimit:10;" d="M 790.214844 320 C 790.214844 331.714844 780.714844 341.214844 769 341.214844 C 757.285156 341.214844 747.785156 331.714844 747.785156 320 C 747.785156 308.285156 757.285156 298.785156 769 298.785156 C 780.714844 298.785156 790.214844 308.285156 790.214844 320 "/>
<path style="fill-rule:nonzero;fill:rgb(100%,51%,0%);fill-opacity:1;stroke-width:1;stroke-linecap:butt;stroke-linejoin:miter;stroke:rgb(0%,0%,0%);stroke-opacity:1;stroke-miterlimit:10;" d="M 240.214844 99 C 240.214844 110.714844 230.714844 120.214844 219 120.214844 C 207.285156 120.214844 197.785156 110.714844 197.785156 99 C 197.785156 87.285156 207.285156 77.785156 219 77.785156 C 230.714844 77.785156 240.214844 87.285156 240.214844 99 "/>
<path style="fill-rule:nonzero;fill:rgb(100%,51%,0%);fill-opacity:1;stroke-width:1;stroke-linecap:butt;stroke-linejoin:miter;stroke:rgb(0%,0%,0%);stroke-opacity:1;stroke-miterlimit:10;" d="M 268.214844 220 C 268.214844 231.714844 258.714844 241.214844 247 241.214844 C 235.285156 241.214844 225.785156 231.714844 225.785156 220 C 225.785156 208.285156 235.285156 198.785156 247 198.785156 C 258.714844 198.785156 268.214844 208.285156 268.214844 220 "/>
</g>
</svg>
