<?xml version="1.0" encoding="UTF-8"?>
<svg xmlns="http://www.w3.org/2000/svg" xmlns:xlink="http://www.w3.org/1999/xlink" width="1129pt" height="517pt" viewBox="0 0 1129 517" version="1.1">
<g id="surface26">
<rect x="0" y="0" width="1129" height="517" style="fill:rgb(90%,90%,90%);fill-opacity:1;stroke:none;"/>
<path style="fill-rule:nonzero;fill:rgb(35%,70%,90%);fill-opacity:1;stroke-width:1;stroke-linecap:butt;stroke-linejoin:miter;stroke:rgb(0%,0%,0%);stroke-opacity:1;stroke-miterlimit:10;" d="M 418 103 L 392.019531 148 L 443.980469 148 L 418 103 "/>
<path style="fill-rule:nonzero;fill:rgb(35%,70%,90%);fill-opacity:1;stroke-width:1;stroke-linecap:butt;stroke-linejoin:miter;stroke:rgb(0%,0%,0%);stroke-opacity:1;stroke-miterlimit:10;" d="M 430 291 L 404.019531 336 L 455.980469 336 L 430 291 "/>
<path style="fill-rule:nonzero;fill:rgb(35%,70%,90%);fill-opacity:1;stroke-width:1;stroke-linecap:butt;stroke-linejoin:miter;stroke:rgb(0%,0%,0%);stroke-opacity:1;stroke-miterlimit:10;" d="M 269 158 L 243.019531 203 L 294.980469 203 L 269 158 "/>
<path style="fill-rule:nonzero;fill:rgb(100%,51%,0%);fill-opacity:1;stroke-width:1;stroke-linecap:butt;stroke-linejoin:miter;stroke:rgb(0%,0%,0%);stroke-opacity:1;stroke-miterlimit:10;" d="M 117.214844 215 C 117.214844 226.714844 107.714844 236.214844 96 236.214844 C 84.285156 236.214844 74.785156 226.714844 74.785156 215 C 74.785156 203.285156 84.285156 193.785156 96 193.785156 C 107.714844 193.785156 117.214844 203.285156 117.214844 215 "/>
<path style="fill-rule:nonzero;fill:rgb(100%,51%,0%);fill-opacity:1;stroke-width:1;stroke-linecap:butt;stroke-linejoin:miter;stroke:rgb(0%,0%,0%);stroke-opacity:1;stroke-miterlimit:10;" d="M 305.214844 81 C 305.214844 92.714844 295.714844 102.214844 284 102.214844 C 272.285156 102.214844 262.785156 92.714844 262.785156 81 C 262.785156 69.285156 272.285156 59.785156 284 59.785156 C 295.714844 59.785156 305.214844 69.285156 305.214844 81 "/>
<path style="fill-rule:nonzero;fill:rgb(100%,51%,0%);fill-opacity:1;stroke-width:1;stroke-linecap:butt;stroke-linejoin:miter;stroke:rgb(0%,0%,0%);stroke-opacity:1;stroke-miterlimit:10;" d="M 204.214844 40 C 204.214844 51.714844 194.714844 61.214844 183 61.214844 C 171.285156 61.214844 161.785156 51.714844 161.785156 40 C 161.785156 28.285156 171.285156 18.785156 183 18.785156 C 194.714844 18.785156 204.214844 28.285156 204.214844 40 "/>
<path style="fill-rule:nonzero;fill:rgb(35%,70%,90%);fill-opacity:1;stroke-width:1;stroke-linecap:butt;stroke-linejoin:miter;stroke:rgb(0%,0%,0%);stroke-opacity:1;stroke-miterlimit:10;" d="M 895 317 L 869.019531 362 L 920.980469 362 L 895 317 "/>
<path style="fill-rule:nonzero;fill:rgb(35%,70%,90%);fill-opacity:1;stroke-width:1;stroke-linecap:butt;stroke-linejoin:miter;stroke:rgb(0%,0%,0%);stroke-opacity:1;stroke-miterlimit:10;" d="M 663 253 L 637.019531 298 L 688.980469 298 L 663 253 "/>
<path style="fill-rule:nonzero;fill:rgb(35%,70%,90%);fill-opacity:1;stroke-width:1;stroke-linecap:butt;stroke-linejoin:miter;stroke:rgb(0%,0%,0%);stroke-opacity:1;stroke-miterlimit:10;" d="M 780 127 L 754.019531 172 L 805.980469 172 L 780 127 "/>
<path style="fill-rule:nonzero;fill:rgb(100%,51%,0%);fill-opacity:1;stroke-width:1;stroke-linecap:butt;stroke-linejoin:miter;stroke:rgb(0%,0%,0%);stroke-opacity:1;stroke-miterlimit:10;" d="M 1058.214844 180 C 1058.214844 191.714844 1048.714844 201.214844 1037 201.214844 C 1025.285156 201.214844 1015.785156 191.714844 1015.785156 180 C 1015.785156 168.285156 1025.285156 158.785156 1037 158.785156 C 1048.714844 158.785156 1058.214844 168.285156 1058.214844 180 "/>
<path style="fill-rule:nonzero;fill:rgb(100%,51%,0%);fill-opacity:1;stroke-width:1;stroke-linecap:butt;stroke-linejoin:miter;stroke:rgb(0%,0%,0%);stroke-opacity:1;stroke-miterlimit:10;" d="M 952.214844 79 C 952.214844 90.714844 942.714844 100.214844 931 100.214844 C 919.285156 100.214844 909.785156 90.714844 909.785156 79 C 909.785156 67.285156 919.285156 57.785156 931 57.785156 C 942.714844 57.785156 952.214844 67.285156 952.214844 79 "/>
<path style="fill-rule:nonzero;fill:rgb(100%,51%,0%);fill-opacity:1;stroke-width:1;stroke-linecap:butt;stroke-linejoin:miter;stroke:rgb(0%,0%,0%);stroke-opacity:1;stroke-miterlimit:10;" d="M 787.214844 310 C 787.214844 321.714844 777.714844 331.214844 766 331.214844 C 754.285156 331.214844 744.785156 321.714844 744.785156 310 C 744.785156 298.285156 754.285156 288.785156 766 288.785156 C 777.714844 288.785156 787.214844 298.285156 787.214844 310 "/>
</g>
</svg>
