<?xml version="1.0" encoding="UTF-8"?>
<svg xmlns="http://www.w3.org/2000/svg" xmlns:xlink="http://www.w3.org/1999/xlink" width="1129pt" height="517pt" viewBox="0 0 1129 517" version="1.1">
<g id="surface16">
<rect x="0" y="0" width="1129" height="517" style="fill:rgb(90%,90%,90%);fill-opacity:1;stroke:none;"/>
<path style="fill-rule:nonzero;fill:rgb(35%,70%,90%);fill-opacity:1;stroke-width:1;stroke-linecap:butt;stroke-linejoin:miter;stroke:rgb(0%,0%,0%);stroke-opacity:1;stroke-miterlimit:10;" d="M 446 111 L 420.019531 156 L 471.980469 156 L 446 111 "/>
<path style="fill-rule:nonzero;fill:rgb(35%,70%,90%);fill-opacity:1;stroke-width:1;stroke-linecap:butt;stroke-linejoin:miter;stroke:rgb(0%,0%,0%);stroke-opacity:1;stroke-miterlimit:10;" d="M 181 312 L 155.019531 357 L 206.980469 357 L 181 312 "/>
<path style="fill-rule:nonzero;fill:rgb(100%,51%,0%);fill-opacity:1;stroke-width:1;stroke-linecap:butt;stroke-linejoin:miter;stroke:rgb(0%,0%,0%);stroke-opacity:1;stroke-miterlimit:10;" d="M 404.214844 228 C 404.214844 239.714844 394.714844 249.214844 383 249.214844 C 371.285156 249.214844 361.785156 239.714844 361.785156 228 C 361.785156 216.285156 371.285156 206.785156 383 206.785156 C 394.714844 206.785156 404.214844 216.285156 404.214844 228 "/>
<path style="fill-rule:nonzero;fill:rgb(100%,51%,0%);fill-opacity:1;stroke-width:1;stroke-linecap:butt;stroke-linejoin:miter;stroke:rgb(0%,0%,0%);stroke-opacity:1;stroke-miterlimit:10;" d="M 193.214844 447 C 193.214844 458.714844 183.714844 468.214844 172 468.214844 C 160.285156 468.214844 150.785156 458.714844 150.785156 447 C 150.785156 435.285156 160.285156 425.785156 172 425.785156 C 183.714844 425.785156 193.214844 435.285156 193.214844 447 "/>
<path style="fill-rule:nonzero;fill:rgb(100%,51%,0%);fill-opacity:1;stroke-width:1;stroke-linecap:butt;stroke-linejoin:miter;stroke:rgb(0%,0%,0%);stroke-opacity:1;stroke-miterlimit:10;" d="M 258.214844 122 C 258.214844 133.714844 248.714844 143.214844 237 143.214844 C 225.285156 143.214844 215.785156 133.714844 215.785156 122 C 215.785156 110.285156 225.285156 100.785156 237 100.785156 C 248.714844 100.785156 258.214844 110.285156 258.214844 122 "/>
<path style="fill-rule:nonzero;fill:rgb(35%,70%,90%);fill-opacity:1;stroke-width:1;stroke-linecap:butt;stroke-linejoin:miter;stroke:rgb(0%,0%,0%);stroke-opacity:1;stroke-miterlimit:10;" d="M 668 199 L 642.019531 244 L 693.980469 244 L 668 199 "/>
<path style="fill-rule:nonzero;fill:rgb(35%,70%,90%);fill-opacity:1;stroke-width:1;stroke-linecap:butt;stroke-linejoin:miter;stroke:rgb(0%,0%,0%);stroke-opacity:1;stroke-miterlimit:10;" d="M 869 66 L 843.019531 111 L 894.980469 111 L 869 66 "/>
<path style="fill-rule:nonzero;fill:rgb(100%,51%,0%);fill-opacity:1;stroke-width:1;stroke-linecap:butt;stroke-linejoin:miter;stroke:rgb(0%,0%,0%);stroke-opacity:1;stroke-miterlimit:10;" d="M 901.214844 366 C 901.214844 377.714844 891.714844 387.214844 880 387.214844 C 868.285156 387.214844 858.785156 377.714844 858.785156 366 C 858.785156 354.285156 868.285156 344.785156 880 344.785156 C 891.714844 344.785156 901.214844 354.285156 901.214844 366 "/>
<path style="fill-rule:nonzero;fill:rgb(100%,51%,0%);fill-opacity:1;stroke-width:1;stroke-linecap:butt;stroke-linejoin:miter;stroke:rgb(0%,0%,0%);stroke-opacity:1;stroke-miterlimit:10;" d="M 791.214844 164 C 791.214844 175.714844 781.714844 185.214844 770 185.214844 C 758.285156 185.214844 748.785156 175.714844 748.785156 164 C 748.785156 152.285156 758.285156 142.785156 770 142.785156 C 781.714844 142.785156 791.214844 152.285156 791.214844 164 "/>
<path style="fill-rule:nonzero;fill:rgb(100%,51%,0%);fill-opacity:1;stroke-width:1;stroke-linecap:butt;stroke-linejoin:miter;stroke:rgb(0%,0%,0%);stroke-opacity:1;stroke-miterlimit:10;" d="M 1033.214844 141 C 1033.214844 152.714844 1023.714844 162.214844 1012 162.214844 C 1000.285156 162.214844 990.785156 152.714844 990.785156 141 C 990.785156 129.285156 1000.285156 119.785156 1012 119.785156 C 1023.714844 119.785156 1033.214844 129.285156 1033.214844 141 "/>
</g>
</svg>
