<?xml version="1.0" encoding="UTF-8"?>
<svg xmlns="http://www.w3.org/2000/svg" xmlns:xlink="http://www.w3.org/1999/xlink" width="1129pt" height="517pt" viewBox="0 0 1129 517" version="1.1">
<g id="surface6">
<rect x="0" y="0" width="1129" height="517" style="fill:rgb(90%,90%,90%);fill-opacity:1;stroke:none;"/>
<path style="fill-rule:nonzero;fill:rgb(35%,70%,90%);fill-opacity:1;stroke-width:1;stroke-linecap:butt;stroke-linejoin:miter;stroke:rgb(0%,0%,0%);stroke-opacity:1;stroke-miterlimit:10;" d="M 455 207 L 429.019531 252 L 480.980469 252 L 455 207 "/>
<path style="fill-rule:nonzero;fill:rgb(35%,70%,90%);fill-opacity:1;stroke-width:1;stroke-linecap:butt;stroke-linejoin:miter;stroke:rgb(0%,0%,0%);stroke-opacity:1;stroke-miterlimit:10;" d="M 262 17 L 236.019531 62 L 287.980469 62 L 262 17 "/>
<path style="fill-rule:nonzero;fill:rgb(35%,70%,90%);fill-opacity:1;stroke-width:1;stroke-linecap:butt;stroke-linejoin:miter;stroke:rgb(0%,0%,0%);stroke-opacity:1;stroke-miterlimit:10;" d="M 191 117 L 165.019531 162 L 216.980469 162 L 191 117 "/>
<path style="fill-rule:nonzero;fill:rgb(35%,70%,90%);fill-opacity:1;stroke-width:1;stroke-linecap:butt;stroke-linejoin:miter;stroke:rgb(0%,0%,0%);stroke-opacity:1;stroke-miterlimit:10;" d="M 80 215 L 54.019531 260 L 105.980469 260 L 80 215 "/>
<path style="fill-rule:nonzero;fill:rgb(35%,70%,90%);fill-opacity:1;stroke-width:1;stroke-linecap:butt;stroke-linejoin:miter;stroke:rgb(0%,0%,0%);stroke-opacity:1;stroke-miterlimit:10;" d="M 376 379 L 350.019531 424 L 401.980469 424 L 376 379 "/>
<path style="fill-rule:nonzero;fill:rgb(100%,51%,0%);fill-opacity:1;stroke-width:1;stroke-linecap:butt;stroke-linejoin:miter;stroke:rgb(0%,0%,0%);stroke-opacity:1;stroke-miterlimit:10;" d="M 302.214844 357 C 302.214844 368.714844 292.714844 378.214844 281 378.214844 C 269.285156 378.214844 259.785156 368.714844 259.785156 357 C 259.785156 345.285156 269.285156 335.785156 281 335.785156 C 292.714844 335.785156 302.214844 345.285156 302.214844 357 "/>
<path style="fill-rule:nonzero;fill:rgb(100%,51%,0%);fill-opacity:1;stroke-width:1;stroke-linecap:butt;stroke-linejoin:miter;stroke:rgb(0%,0%,0%);stroke-opacity:1;stroke-miterlimit:10;" d="M 99.214844 138 C 99.214844 149.714844 89.714844 159.214844 78 159.214844 C 66.285156 159.214844 56.785156 149.714844 56.785156 138 C 56.785156 126.285156 66.285156 116.785156 78 116.785156 C 89.714844 116.785156 99.214844 126.285156 99.214844 138 "/>
<path style="fill-rule:nonzero;fill:rgb(100%,51%,0%);fill-opacity:1;stroke-width:1;stroke-linecap:butt;stroke-linejoin:miter;stroke:rgb(0%,0%,0%);stroke-opacity:1;stroke-miterlimit:10;" d="M 295.214844 190 C 295.214844 201.714844 285.714844 211.214844 274 211.214844 C 262.285156 211.214844 252.785156 201.714844 252.785156 190 C 252.785156 178.285156 262.285156 168.785156 274 168.785156 C 285.714844 168.785156 295.214844 178.285156 295.214844 190 "/>
<path style="fill-rule:nonzero;fill:rgb(35%,70%,90%);fill-opacity:1;stroke-width:1;stroke-linecap:butt;stroke-linejoin:miter;stroke:rgb(0%,0%,0%);stroke-opacity:1;stroke-miterlimit:10;" d="M 858 124 L 832.019531 169 L 883.980469 169 L 858 124 "/>
<path style="fill-rule:nonzero;fill:rgb(35%,70%,90%);fill-opacity:1;stroke-width:1;stroke-linecap:butt;stroke-linejoin:miter;stroke:rgb(0%,0%,0%);stroke-opacity:1;stroke-miterlimit:10;" d="M 940 421 L 914.019531 466 L 965.980469 466 L 940 421 "/>
<path style="fill-rule:nonzero;fill:rgb(35%,70%,90%);fill-opacity:1;stroke-width:1;stroke-linecap:butt;stroke-linejoin:miter;stroke:rgb(0%,0%,0%);stroke-opacity:1;stroke-miterlimit:10;" d="M 1074 97 L 1048.019531 142 L 1099.980469 142 L 1074 97 "/>
<path style="fill-rule:nonzero;fill:rgb(35%,70%,90%);fill-opacity:1;stroke-width:1;stroke-linecap:butt;stroke-linejoin:miter;stroke:rgb(0%,0%,0%);stroke-opacity:1;stroke-miterlimit:10;" d="M 763 204 L 737.019531 249 L 788.980469 249 L 763 204 "/>
<path style="fill-rule:nonzero;fill:rgb(35%,70%,90%);fill-opacity:1;stroke-width:1;stroke-linecap:butt;stroke-linejoin:miter;stroke:rgb(0%,0%,0%);stroke-opacity:1;stroke-miterlimit:10;" d="M 955 311 L 929.019531 356 L 980.980469 356 L 955 311 "/>
<path style="fill-rule:nonzero;fill:rgb(100%,51%,0%);fill-opacity:1;stroke-width:1;stroke-linecap:butt;stroke-linejoin:miter;stroke:rgb(0%,0%,0%);stroke-opacity:1;stroke-miterlimit:10;" d="M 1065.214844 461 C 1065.214844 472.714844 1055.714844 482.214844 1044 482.214844 C 1032.285156 482.214844 1022.785156 472.714844 1022.785156 461 C 1022.785156 449.285156 1032.285156 439.785156 1044 439.785156 C 1055.714844 439.785156 1065.214844 449.285156 1065.214844 461 "/>
<path style="fill-rule:nonzero;fill:rgb(100%,51%,0%);fill-opacity:1;stroke-width:1;stroke-linecap:butt;stroke-linejoin:miter;stroke:rgb(0%,0%,0%);stroke-opacity:1;stroke-miterlimit:10;" d="M 884.214844 346 C 884.214844 357.714844 874.714844 367.214844 863 367.214844 C 851.285156 367.214844 841.785156 357.714844 841.785156 346 C 841.785156 334.285156 851.285156 324.785156 863 324.785156 C 874.714844 324.785156 884.214844 334.285156 884.214844 346 "/>
<path style="fill-rule:nonzero;fill:rgb(100%,51%,0%);fill-opacity:1;stroke-width:1;stroke-linecap:butt;stroke-linejoin:miter;stroke:rgb(0%,0%,0%);stroke-opacity:1;stroke-miterlimit:10;" d="M 696.214844 294 C 696.214844 305.714844 686.714844 315.214844 675 315.214844 C 663.285156 315.214844 653.785156 305.714844 653.785156 294 C 653.785156 282.285156 663.285156 272.785156 675 272.785156 C 686.714844 272.785156 696.214844 282.285156 696.214844 294 "/>
</g>
</svg>
