<?xml version="1.0" encoding="UTF-8"?>
<svg xmlns="http://www.w3.org/2000/svg" xmlns:xlink="http://www.w3.org/1999/xlink" width="1129pt" height="517pt" viewBox="0 0 1129 517" version="1.1">
<g id="surface1">
<rect x="0" y="0" width="1129" height="517" style="fill:rgb(90%,90%,90%);fill-opacity:1;stroke:none;"/>
<path style="fill-rule:nonzero;fill:rgb(35%,70%,90%);fill-opacity:1;stroke-width:1;stroke-linecap:butt;stroke-linejoin:miter;stroke:rgb(0%,0%,0%);stroke-opacity:1;stroke-miterlimit:10;" d="M 266 434 L 240.019531 479 L 291.980469 479 L 266 434 "/>
<path style="fill-rule:nonzero;fill:rgb(35%,70%,90%);fill-opacity:1;stroke-width:1;stroke-linecap:butt;stroke-linejoin:miter;stroke:rgb(0%,0%,0%);stroke-opacity:1;stroke-miterlimit:10;" d="M 93 90 L 67.019531 135 L 118.980469 135 L 93 90 "/>
<path style="fill-rule:nonzero;fill:rgb(35%,70%,90%);fill-opacity:1;stroke-width:1;stroke-linecap:butt;stroke-linejoin:miter;stroke:rgb(0%,0%,0%);stroke-opacity:1;stroke-miterlimit:10;" d="M 271 298 L 245.019531 343 L 296.980469 343 L 271 298 "/>
<path style="fill-rule:nonzero;fill:rgb(100%,51%,0%);fill-opacity:1;stroke-width:1;stroke-linecap:butt;stroke-linejoin:miter;stroke:rgb(0%,0%,0%);stroke-opacity:1;stroke-miterlimit:10;" d="M 198.214844 170 C 198.214844 181.714844 188.714844 191.214844 177 191.214844 C 165.285156 191.214844 155.785156 181.714844 155.785156 170 C 155.785156 158.285156 165.285156 148.785156 177 148.785156 C 188.714844 148.785156 198.214844 158.285156 198.214844 170 "/>
<path style="fill-rule:nonzero;fill:rgb(100%,51%,0%);fill-opacity:1;stroke-width:1;stroke-linecap:butt;stroke-linejoin:miter;stroke:rgb(0%,0%,0%);stroke-opacity:1;stroke-miterlimit:10;" d="M 487.214844 231 C 487.214844 242.714844 477.714844 252.214844 466 252.214844 C 454.285156 252.214844 444.785156 242.714844 444.785156 231 C 444.785156 219.285156 454.285156 209.785156 466 209.785156 C 477.714844 209.785156 487.214844 219.285156 487.214844 231 "/>
<path style="fill-rule:nonzero;fill:rgb(100%,51%,0%);fill-opacity:1;stroke-width:1;stroke-linecap:butt;stroke-linejoin:miter;stroke:rgb(0%,0%,0%);stroke-opacity:1;stroke-miterlimit:10;" d="M 444.214844 126 C 444.214844 137.714844 434.714844 147.214844 423 147.214844 C 411.285156 147.214844 401.785156 137.714844 401.785156 126 C 401.785156 114.285156 411.285156 104.785156 423 104.785156 C 434.714844 104.785156 444.214844 114.285156 444.214844 126 "/>
<path style="fill-rule:nonzero;fill:rgb(100%,51%,0%);fill-opacity:1;stroke-width:1;stroke-linecap:butt;stroke-linejoin:miter;stroke:rgb(0%,0%,0%);stroke-opacity:1;stroke-miterlimit:10;" d="M 420.214844 424 C 420.214844 435.714844 410.714844 445.214844 399 445.214844 C 387.285156 445.214844 377.785156 435.714844 377.785156 424 C 377.785156 412.285156 387.285156 402.785156 399 402.785156 C 410.714844 402.785156 420.214844 412.285156 420.214844 424 "/>
<path style="fill-rule:nonzero;fill:rgb(100%,51%,0%);fill-opacity:1;stroke-width:1;stroke-linecap:butt;stroke-linejoin:miter;stroke:rgb(0%,0%,0%);stroke-opacity:1;stroke-miterlimit:10;" d="M 129.214844 472 C 129.214844 483.714844 119.714844 493.214844 108 493.214844 C 96.285156 493.214844 86.785156 483.714844 86.785156 472 C 86.785156 460.285156 96.285156 450.785156 108 450.785156 C 119.714844 450.785156 129.214844 460.285156 129.214844 472 "/>
<path style="fill-rule:nonzero;fill:rgb(35%,70%,90%);fill-opacity:1;stroke-width:1;stroke-linecap:butt;stroke-linejoin:miter;stroke:rgb(0%,0%,0%);stroke-opacity:1;stroke-miterlimit:10;" d="M 1009 118 L 983.019531 163 L 1034.980469 163 L 1009 118 "/>
<path style="fill-rule:nonzero;fill:rgb(35%,70%,90%);fill-opacity:1;stroke-width:1;stroke-linecap:butt;stroke-linejoin:miter;stroke:rgb(0%,0%,0%);stroke-opacity:1;stroke-miterlimit:10;" d="M 700 14 L 674.019531 59 L 725.980469 59 L 700 14 "/>
<path style="fill-rule:nonzero;fill:rgb(35%,70%,90%);fill-opacity:1;stroke-width:1;stroke-linecap:butt;stroke-linejoin:miter;stroke:rgb(0%,0%,0%);stroke-opacity:1;stroke-miterlimit:10;" d="M 950 191 L 924.019531 236 L 975.980469 236 L 950 191 "/>
<path style="fill-rule:nonzero;fill:rgb(100%,51%,0%);fill-opacity:1;stroke-width:1;stroke-linecap:butt;stroke-linejoin:miter;stroke:rgb(0%,0%,0%);stroke-opacity:1;stroke-miterlimit:10;" d="M 912.214844 448 C 912.214844 459.714844 902.714844 469.214844 891 469.214844 C 879.285156 469.214844 869.785156 459.714844 869.785156 448 C 869.785156 436.285156 879.285156 426.785156 891 426.785156 C 902.714844 426.785156 912.214844 436.285156 912.214844 448 "/>
<path style="fill-rule:nonzero;fill:rgb(100%,51%,0%);fill-opacity:1;stroke-width:1;stroke-linecap:butt;stroke-linejoin:miter;stroke:rgb(0%,0%,0%);stroke-opacity:1;stroke-miterlimit:10;" d="M 707.214844 170 C 707.214844 181.714844 697.714844 191.214844 686 191.214844 C 674.285156 191.214844 664.785156 181.714844 664.785156 170 C 664.785156 158.285156 674.285156 148.785156 686 148.785156 C 697.714844 148.785156 707.214844 158.285156 707.214844 170 "/>
<path style="fill-rule:nonzero;fill:rgb(100%,51%,0%);fill-opacity:1;stroke-width:1;stroke-linecap:butt;stroke-linejoin:miter;stroke:rgb(0%,0%,0%);stroke-opacity:1;stroke-miterlimit:10;" d="M 1067.214844 261 C 1067.214844 272.714844 1057.714844 282.214844 1046 282.214844 C 1034.285156 282.214844 1024.785156 272.714844 1024.785156 261 C 1024.785156 249.285156 1034.285156 239.785156 1046 239.785156 C 1057.714844 239.785156 1067.214844 249.285156 1067.214844 261 "/>
<path style="fill-rule:nonzero;fill:rgb(100%,51%,0%);fill-opacity:1;stroke-width:1;stroke-linecap:butt;stroke-linejoin:miter;stroke:rgb(0%,0%,0%);stroke-opacity:1;stroke-miterlimit:10;" d="M 842.214844 303 C 842.214844 314.714844 832.714844 324.214844 821 324.214844 C 809.285156 324.214844 799.785156 314.714844 799.785156 303 C 799.785156 291.285156 809.285156 281.785156 821 281.785156 C 832.714844 281.785156 842.214844 291.285156 842.214844 303 "/>
<path style="fill-rule:nonzero;fill:rgb(100%,51%,0%);fill-opacity:1;stroke-width:1;stroke-linecap:butt;stroke-linejoin:miter;stroke:rgb(0%,0%,0%);stroke-opacity:1;stroke-miterlimit:10;" d="M 794.214844 134 C 794.214844 145.714844 784.714844 155.214844 773 155.214844 C 761.285156 155.214844 751.785156 145.714844 751.785156 134 C 751.785156 122.285156 761.285156 112.785156 773 112.785156 C 784.714844 112.785156 794.214844 122.285156 794.214844 134 "/>
</g>
</svg>
