<?xml version="1.0" encoding="UTF-8"?>
<svg xmlns="http://www.w3.org/2000/svg" xmlns:xlink="http://www.w3.org/1999/xlink" width="1129pt" height="517pt" viewBox="0 0 1129 517" version="1.1">
<g id="surface11">
<rect x="0" y="0" width="1129" height="517" style="fill:rgb(90%,90%,90%);fill-opacity:1;stroke:none;"/>
<path style="fill-rule:nonzero;fill:rgb(35%,70%,90%);fill-opacity:1;stroke-width:1;stroke-linecap:butt;stroke-linejoin:miter;stroke:rgb(0%,0%,0%);stroke-opacity:1;stroke-miterlimit:10;" d="M 431 406 L 405.019531 451 L 456.980469 451 L 431 406 "/>
<path style="fill-rule:nonzero;fill:rgb(35%,70%,90%);fill-opacity:1;stroke-width:1;stroke-linecap:butt;stroke-linejoin:miter;stroke:rgb(0%,0%,0%);stroke-opacity:1;stroke-miterlimit:10;" d="M 229 40 L 203.019531 85 L 254.980469 85 L 229 40 "/>
<path style="fill-rule:nonzero;fill:rgb(35%,70%,90%);fill-opacity:1;stroke-width:1;stroke-linecap:butt;stroke-linejoin:miter;stroke:rgb(0%,0%,0%);stroke-opacity:1;stroke-miterlimit:10;" d="M 119 109 L 93.019531 154 L 144.980469 154 L 119 109 "/>
<path style="fill-rule:nonzero;fill:rgb(35%,70%,90%);fill-opacity:1;stroke-width:1;stroke-linecap:butt;stroke-linejoin:miter;stroke:rgb(0%,0%,0%);stroke-opacity:1;stroke-miterlimit:10;" d="M 247 345 L 221.019531 390 L 272.980469 390 L 247 345 "/>
<path style="fill-rule:nonzero;fill:rgb(100%,51%,0%);fill-opacity:1;stroke-width:1;stroke-linecap:butt;stroke-linejoin:miter;stroke:rgb(0%,0%,0%);stroke-opacity:1;stroke-miterlimit:10;" d="M 465.214844 186 C 465.214844 197.714844 455.714844 207.214844 444 207.214844 C 432.285156 207.214844 422.785156 197.714844 422.785156 186 C 422.785156 174.285156 432.285156 164.785156 444 164.785156 C 455.714844 164.785156 465.214844 174.285156 465.214844 186 "/>
<path style="fill-rule:nonzero;fill:rgb(100%,51%,0%);fill-opacity:1;stroke-width:1;stroke-linecap:butt;stroke-linejoin:miter;stroke:rgb(0%,0%,0%);stroke-opacity:1;stroke-miterlimit:10;" d="M 101.214844 223 C 101.214844 234.714844 91.714844 244.214844 80 244.214844 C 68.285156 244.214844 58.785156 234.714844 58.785156 223 C 58.785156 211.285156 68.285156 201.785156 80 201.785156 C 91.714844 201.785156 101.214844 211.285156 101.214844 223 "/>
<path style="fill-rule:nonzero;fill:rgb(100%,51%,0%);fill-opacity:1;stroke-width:1;stroke-linecap:butt;stroke-linejoin:miter;stroke:rgb(0%,0%,0%);stroke-opacity:1;stroke-miterlimit:10;" d="M 211.214844 278 C 211.214844 289.714844 201.714844 299.214844 190 299.214844 C 178.285156 299.214844 168.785156 289.714844 168.785156 278 C 168.785156 266.285156 178.285156 256.785156 190 256.785156 C 201.714844 256.785156 211.214844 266.285156 211.214844 278 "/>
<path style="fill-rule:nonzero;fill:rgb(100%,51%,0%);fill-opacity:1;stroke-width:1;stroke-linecap:butt;stroke-linejoin:miter;stroke:rgb(0%,0%,0%);stroke-opacity:1;stroke-miterlimit:10;" d="M 71.214844 448 C 71.214844 459.714844 61.714844 469.214844 50 469.214844 C 38.285156 469.214844 28.785156 459.714844 28.785156 448 C 28.785156 436.285156 38.285156 426.785156 50 426.785156 C 61.714844 426.785156 71.214844 436.285156 71.214844 448 "/>
<path style="fill-rule:nonzero;fill:rgb(35%,70%,90%);fill-opacity:1;stroke-width:1;stroke-linecap:butt;stroke-linejoin:miter;stroke:rgb(0%,0%,0%);stroke-opacity:1;stroke-miterlimit:10;" d="M 749 100 L 723.019531 145 L 774.980469 145 L 749 100 "/>
<path style="fill-rule:nonzero;fill:rgb(35%,70%,90%);fill-opacity:1;stroke-width:1;stroke-linecap:butt;stroke-linejoin:miter;stroke:rgb(0%,0%,0%);stroke-opacity:1;stroke-miterlimit:10;" d="M 990 63 L 964.019531 108 L 1015.980469 108 L 990 63 "/>
<path style="fill-rule:nonzero;fill:rgb(35%,70%,90%);fill-opacity:1;stroke-width:1;stroke-linecap:butt;stroke-linejoin:miter;stroke:rgb(0%,0%,0%);stroke-opacity:1;stroke-miterlimit:10;" d="M 849 98 L 823.019531 143 L 874.980469 143 L 849 98 "/>
<path style="fill-rule:nonzero;fill:rgb(35%,70%,90%);fill-opacity:1;stroke-width:1;stroke-linecap:butt;stroke-linejoin:miter;stroke:rgb(0%,0%,0%);stroke-opacity:1;stroke-miterlimit:10;" d="M 998 201 L 972.019531 246 L 1023.980469 246 L 998 201 "/>
<path style="fill-rule:nonzero;fill:rgb(100%,51%,0%);fill-opacity:1;stroke-width:1;stroke-linecap:butt;stroke-linejoin:miter;stroke:rgb(0%,0%,0%);stroke-opacity:1;stroke-miterlimit:10;" d="M 730.214844 356 C 730.214844 367.714844 720.714844 377.214844 709 377.214844 C 697.285156 377.214844 687.785156 367.714844 687.785156 356 C 687.785156 344.285156 697.285156 334.785156 709 334.785156 C 720.714844 334.785156 730.214844 344.285156 730.214844 356 "/>
<path style="fill-rule:nonzero;fill:rgb(100%,51%,0%);fill-opacity:1;stroke-width:1;stroke-linecap:butt;stroke-linejoin:miter;stroke:rgb(0%,0%,0%);stroke-opacity:1;stroke-miterlimit:10;" d="M 929.214844 472 C 929.214844 483.714844 919.714844 493.214844 908 493.214844 C 896.285156 493.214844 886.785156 483.714844 886.785156 472 C 886.785156 460.285156 896.285156 450.785156 908 450.785156 C 919.714844 450.785156 929.214844 460.285156 929.214844 472 "/>
<path style="fill-rule:nonzero;fill:rgb(100%,51%,0%);fill-opacity:1;stroke-width:1;stroke-linecap:butt;stroke-linejoin:miter;stroke:rgb(0%,0%,0%);stroke-opacity:1;stroke-miterlimit:10;" d="M 676.214844 102 C 676.214844 113.714844 666.714844 123.214844 655 123.214844 C 643.285156 123.214844 633.785156 113.714844 633.785156 102 C 633.785156 90.285156 643.285156 80.785156 655 80.785156 C 666.714844 80.785156 676.214844 90.285156 676.214844 102 "/>
<path style="fill-rule:nonzero;fill:rgb(100%,51%,0%);fill-opacity:1;stroke-width:1;stroke-linecap:butt;stroke-linejoin:miter;stroke:rgb(0%,0%,0%);stroke-opacity:1;stroke-miterlimit:10;" d="M 815.214844 402 C 815.214844 413.714844 805.714844 423.214844 794 423.214844 C 782.285156 423.214844 772.785156 413.714844 772.785156 402 C 772.785156 390.285156 782.285156 380.785156 794 380.785156 C 805.714844 380.785156 815.214844 390.285156 815.214844 402 "/>
</g>
</svg>
