<?xml version="1.0" encoding="UTF-8"?>
<svg xmlns="http://www.w3.org/2000/svg" xmlns:xlink="http://www.w3.org/1999/xlink" width="1129pt" height="517pt" viewBox="0 0 1129 517" version="1.1">
<g id="surface21">
<rect x="0" y="0" width="1129" height="517" style="fill:rgb(90%,90%,90%);fill-opacity:1;stroke:none;"/>
<path style="fill-rule:nonzero;fill:rgb(35%,70%,90%);fill-opacity:1;stroke-width:1;stroke-linecap:butt;stroke-linejoin:miter;stroke:rgb(0%,0%,0%);stroke-opacity:1;stroke-miterlimit:10;" d="M 377 107 L 351.019531 152 L 402.980469 152 L 377 107 "/>
<path style="fill-rule:nonzero;fill:rgb(35%,70%,90%);fill-opacity:1;stroke-width:1;stroke-linecap:butt;stroke-linejoin:miter;stroke:rgb(0%,0%,0%);stroke-opacity:1;stroke-miterlimit:10;" d="M 45 230 L 19.019531 275 L 70.980469 275 L 45 230 "/>
<path style="fill-rule:nonzero;fill:rgb(35%,70%,90%);fill-opacity:1;stroke-width:1;stroke-linecap:butt;stroke-linejoin:miter;stroke:rgb(0%,0%,0%);stroke-opacity:1;stroke-miterlimit:10;" d="M 403 357 L 377.019531 402 L 428.980469 402 L 403 357 "/>
<path style="fill-rule:nonzero;fill:rgb(100%,51%,0%);fill-opacity:1;stroke-width:1;stroke-linecap:butt;stroke-linejoin:miter;stroke:rgb(0%,0%,0%);stroke-opacity:1;stroke-miterlimit:10;" d="M 202.214844 151 C 202.214844 162.714844 192.714844 172.214844 181 172.214844 C 169.285156 172.214844 159.785156 162.714844 159.785156 151 C 159.785156 139.285156 169.285156 129.785156 181 129.785156 C 192.714844 129.785156 202.214844 139.285156 202.214844 151 "/>
<path style="fill-rule:nonzero;fill:rgb(100%,51%,0%);fill-opacity:1;stroke-width:1;stroke-linecap:butt;stroke-linejoin:miter;stroke:rgb(0%,0%,0%);stroke-opacity:1;stroke-miterlimit:10;" d="M 275.214844 344 C 275.214844 355.714844 265.714844 365.214844 254 365.214844 C 242.285156 365.214844 232.785156 355.714844 232.785156 344 C 232.785156 332.285156 242.285156 322.785156 254 322.785156 C 265.714844 322.785156 275.214844 332.285156 275.214844 344 "/>
<path style="fill-rule:nonzero;fill:rgb(35%,70%,90%);fill-opacity:1;stroke-width:1;stroke-linecap:butt;stroke-linejoin:miter;stroke:rgb(0%,0%,0%);stroke-opacity:1;stroke-miterlimit:10;" d="M 689 437 L 663.019531 482 L 714.980469 482 L 689 437 "/>
<path style="fill-rule:nonzero;fill:rgb(35%,70%,90%);fill-opacity:1;stroke-width:1;stroke-linecap:butt;stroke-linejoin:miter;stroke:rgb(0%,0%,0%);stroke-opacity:1;stroke-miterlimit:10;" d="M 768 333 L 742.019531 378 L 793.980469 378 L 768 333 "/>
<path style="fill-rule:nonzero;fill:rgb(35%,70%,90%);fill-opacity:1;stroke-width:1;stroke-linecap:butt;stroke-linejoin:miter;stroke:rgb(0%,0%,0%);stroke-opacity:1;stroke-miterlimit:10;" d="M 808 102 L 782.019531 147 L 833.980469 147 L 808 102 "/>
<path style="fill-rule:nonzero;fill:rgb(100%,51%,0%);fill-opacity:1;stroke-width:1;stroke-linecap:butt;stroke-linejoin:miter;stroke:rgb(0%,0%,0%);stroke-opacity:1;stroke-miterlimit:10;" d="M 1085.214844 58 C 1085.214844 69.714844 1075.714844 79.214844 1064 79.214844 C 1052.285156 79.214844 1042.785156 69.714844 1042.785156 58 C 1042.785156 46.285156 1052.285156 36.785156 1064 36.785156 C 1075.714844 36.785156 1085.214844 46.285156 1085.214844 58 "/>
<path style="fill-rule:nonzero;fill:rgb(100%,51%,0%);fill-opacity:1;stroke-width:1;stroke-linecap:butt;stroke-linejoin:miter;stroke:rgb(0%,0%,0%);stroke-opacity:1;stroke-miterlimit:10;" d="M 1078.214844 278 C 1078.214844 289.714844 1068.714844 299.214844 1057 299.214844 C 1045.285156 299.214844 1035.785156 289.714844 1035.785156 278 C 1035.785156 266.285156 1045.285156 256.785156 1057 256.785156 C 1068.714844 256.785156 1078.214844 266.285156 1078.214844 278 "/>
</g>
</svg>
