<?xml version="1.0" encoding="UTF-8"?>
<svg xmlns="http://www.w3.org/2000/svg" xmlns:xlink="http://www.w3.org/1999/xlink" width="1129pt" height="517pt" viewBox="0 0 1129 517" version="1.1">
<g id="surface21">
<rect x="0" y="0" width="1129" height="517" style="fill:rgb(90%,90%,90%);fill-opacity:1;stroke:none;"/>
<path style="fill-rule:nonzero;fill:rgb(35%,70%,90%);fill-opacity:1;stroke-width:1;stroke-linecap:butt;stroke-linejoin:miter;stroke:rgb(0%,0%,0%);stroke-opacity:1;stroke-miterlimit:10;" d="M 203.214844 344 C 203.214844 355.714844 193.714844 365.214844 182 365.214844 C 170.285156 365.214844 160.785156 355.714844 160.785156 344 C 160.785156 332.285156 170.285156 322.785156 182 322.785156 C 193.714844 322.785156 203.214844 332.285156 203.214844 344 "/>
<path style="fill-rule:nonzero;fill:rgb(100%,51%,0%);fill-opacity:1;stroke-width:1;stroke-linecap:butt;stroke-linejoin:miter;stroke:rgb(0%,0%,0%);stroke-opacity:1;stroke-miterlimit:10;" d="M 181.214844 172 C 181.214844 183.714844 171.714844 193.214844 160 193.214844 C 148.285156 193.214844 138.785156 183.714844 138.785156 172 C 138.785156 160.285156 148.285156 150.785156 160 150.785156 C 171.714844 150.785156 181.214844 160.285156 181.214844 172 "/>
<path style="fill-rule:nonzero;fill:rgb(35%,70%,90%);fill-opacity:1;stroke-width:1;stroke-linecap:butt;stroke-linejoin:miter;stroke:rgb(0%,0%,0%);stroke-opacity:1;stroke-miterlimit:10;" d="M 279.214844 403 C 279.214844 414.714844 269.714844 424.214844 258 424.214844 C 246.285156 424.214844 236.785156 414.714844 236.785156 403 C 236.785156 391.285156 246.285156 381.785156 258 381.785156 C 269.714844 381.785156 279.214844 391.285156 279.214844 403 "/>
<path style="fill-rule:nonzero;fill:rgb(100%,51%,0%);fill-opacity:1;stroke-width:1;stroke-linecap:butt;stroke-linejoin:miter;stroke:rgb(0%,0%,0%);stroke-opacity:1;stroke-miterlimit:10;" d="M 454.214844 245 C 454.214844 256.714844 444.714844 266.214844 433 266.214844 C 421.285156 266.214844 411.785156 256.714844 411.785156 245 C 411.785156 233.285156 421.285156 223.785156 433 223.785156 C 444.714844 223.785156 454.214844 233.285156 454.214844 245 "/>
<path style="fill-rule:nonzero;fill:rgb(35%,70%,90%);fill-opacity:1;stroke-width:1;stroke-linecap:butt;stroke-linejoin:miter;stroke:rgb(0%,0%,0%);stroke-opacity:1;stroke-miterlimit:10;" d="M 317.214844 242 C 317.214844 253.714844 307.714844 263.214844 296 263.214844 C 284.285156 263.214844 274.785156 253.714844 274.785156 242 C 274.785156 230.285156 284.285156 220.785156 296 220.785156 C 307.714844 220.785156 317.214844 230.285156 317.214844 242 "/>
<path style="fill-rule:nonzero;fill:rgb(100%,51%,0%);fill-opacity:1;stroke-width:1;stroke-linecap:butt;stroke-linejoin:miter;stroke:rgb(0%,0%,0%);stroke-opacity:1;stroke-miterlimit:10;" d="M 918.785156 226.785156 L 918.785156 269.214844 L 961.214844 269.214844 L 961.214844 226.785156 L 918.785156 226.785156 "/>
<path style="fill-rule:nonzero;fill:rgb(35%,70%,90%);fill-opacity:1;stroke-width:1;stroke-linecap:butt;stroke-linejoin:miter;stroke:rgb(0%,0%,0%);stroke-opacity:1;stroke-miterlimit:10;" d="M 617.785156 350.785156 L 617.785156 393.214844 L 660.214844 393.214844 L 660.214844 350.785156 L 617.785156 350.785156 "/>
<path style="fill-rule:nonzero;fill:rgb(100%,51%,0%);fill-opacity:1;stroke-width:1;stroke-linecap:butt;stroke-linejoin:miter;stroke:rgb(0%,0%,0%);stroke-opacity:1;stroke-miterlimit:10;" d="M 800.785156 132.785156 L 800.785156 175.214844 L 843.214844 175.214844 L 843.214844 132.785156 L 800.785156 132.785156 "/>
<path style="fill-rule:nonzero;fill:rgb(35%,70%,90%);fill-opacity:1;stroke-width:1;stroke-linecap:butt;stroke-linejoin:miter;stroke:rgb(0%,0%,0%);stroke-opacity:1;stroke-miterlimit:10;" d="M 764.785156 241.785156 L 764.785156 284.214844 L 807.214844 284.214844 L 807.214844 241.785156 L 764.785156 241.785156 "/>
<path style="fill-rule:nonzero;fill:rgb(100%,51%,0%);fill-opacity:1;stroke-width:1;stroke-linecap:butt;stroke-linejoin:miter;stroke:rgb(0%,0%,0%);stroke-opacity:1;stroke-miterlimit:10;" d="M 767.785156 387.785156 L 767.785156 430.214844 L 810.214844 430.214844 L 810.214844 387.785156 L 767.785156 387.785156 "/>
<path style="fill-rule:nonzero;fill:rgb(100%,51%,0%);fill-opacity:1;stroke-width:1;stroke-linecap:butt;stroke-linejoin:miter;stroke:rgb(0%,0%,0%);stroke-opacity:1;stroke-miterlimit:10;" d="M 845.785156 289.785156 L 845.785156 332.214844 L 888.214844 332.214844 L 888.214844 289.785156 L 845.785156 289.785156 "/>
</g>
</svg>
