<?xml version="1.0" encoding="UTF-8"?>
<svg xmlns="http://www.w3.org/2000/svg" xmlns:xlink="http://www.w3.org/1999/xlink" width="1129pt" height="517pt" viewBox="0 0 1129 517" version="1.1">
<g id="surface16">
<rect x="0" y="0" width="1129" height="517" style="fill:rgb(90%,90%,90%);fill-opacity:1;stroke:none;"/>
<path style="fill-rule:nonzero;fill:rgb(35%,70%,90%);fill-opacity:1;stroke-width:1;stroke-linecap:butt;stroke-linejoin:miter;stroke:rgb(0%,0%,0%);stroke-opacity:1;stroke-miterlimit:10;" d="M 408.214844 251 C 408.214844 262.714844 398.714844 272.214844 387 272.214844 C 375.285156 272.214844 365.785156 262.714844 365.785156 251 C 365.785156 239.285156 375.285156 229.785156 387 229.785156 C 398.714844 229.785156 408.214844 239.285156 408.214844 251 "/>
<path style="fill-rule:nonzero;fill:rgb(35%,70%,90%);fill-opacity:1;stroke-width:1;stroke-linecap:butt;stroke-linejoin:miter;stroke:rgb(0%,0%,0%);stroke-opacity:1;stroke-miterlimit:10;" d="M 72 102 L 46.019531 147 L 97.980469 147 L 72 102 "/>
<path style="fill-rule:nonzero;fill:rgb(35%,70%,90%);fill-opacity:1;stroke-width:1;stroke-linecap:butt;stroke-linejoin:miter;stroke:rgb(0%,0%,0%);stroke-opacity:1;stroke-miterlimit:10;" d="M 406 320 L 380.019531 365 L 431.980469 365 L 406 320 "/>
<path style="fill-rule:nonzero;fill:rgb(35%,70%,90%);fill-opacity:1;stroke-width:1;stroke-linecap:butt;stroke-linejoin:miter;stroke:rgb(0%,0%,0%);stroke-opacity:1;stroke-miterlimit:10;" d="M 172.214844 287 C 172.214844 298.714844 162.714844 308.214844 151 308.214844 C 139.285156 308.214844 129.785156 298.714844 129.785156 287 C 129.785156 275.285156 139.285156 265.785156 151 265.785156 C 162.714844 265.785156 172.214844 275.285156 172.214844 287 "/>
<path style="fill-rule:nonzero;fill:rgb(100%,51%,0%);fill-opacity:1;stroke-width:1;stroke-linecap:butt;stroke-linejoin:miter;stroke:rgb(0%,0%,0%);stroke-opacity:1;stroke-miterlimit:10;" d="M 710 219 L 684.019531 264 L 735.980469 264 L 710 219 "/>
<path style="fill-rule:nonzero;fill:rgb(100%,51%,0%);fill-opacity:1;stroke-width:1;stroke-linecap:butt;stroke-linejoin:miter;stroke:rgb(0%,0%,0%);stroke-opacity:1;stroke-miterlimit:10;" d="M 852.214844 401 C 852.214844 412.714844 842.714844 422.214844 831 422.214844 C 819.285156 422.214844 809.785156 412.714844 809.785156 401 C 809.785156 389.285156 819.285156 379.785156 831 379.785156 C 842.714844 379.785156 852.214844 389.285156 852.214844 401 "/>
<path style="fill-rule:nonzero;fill:rgb(100%,51%,0%);fill-opacity:1;stroke-width:1;stroke-linecap:butt;stroke-linejoin:miter;stroke:rgb(0%,0%,0%);stroke-opacity:1;stroke-miterlimit:10;" d="M 1023.214844 379 C 1023.214844 390.714844 1013.714844 400.214844 1002 400.214844 C 990.285156 400.214844 980.785156 390.714844 980.785156 379 C 980.785156 367.285156 990.285156 357.785156 1002 357.785156 C 1013.714844 357.785156 1023.214844 367.285156 1023.214844 379 "/>
<path style="fill-rule:nonzero;fill:rgb(100%,51%,0%);fill-opacity:1;stroke-width:1;stroke-linecap:butt;stroke-linejoin:miter;stroke:rgb(0%,0%,0%);stroke-opacity:1;stroke-miterlimit:10;" d="M 605 22 L 579.019531 67 L 630.980469 67 L 605 22 "/>
<path style="fill-rule:nonzero;fill:rgb(100%,51%,0%);fill-opacity:1;stroke-width:1;stroke-linecap:butt;stroke-linejoin:miter;stroke:rgb(0%,0%,0%);stroke-opacity:1;stroke-miterlimit:10;" d="M 827 181 L 801.019531 226 L 852.980469 226 L 827 181 "/>
</g>
</svg>
