<?xml version="1.0" encoding="UTF-8"?>
<svg xmlns="http://www.w3.org/2000/svg" xmlns:xlink="http://www.w3.org/1999/xlink" width="1129pt" height="517pt" viewBox="0 0 1129 517" version="1.1">
<g id="surface231">
<rect x="0" y="0" width="1129" height="517" style="fill:rgb(90%,90%,90%);fill-opacity:1;stroke:none;"/>
<path style="fill-rule:nonzero;fill:rgb(35%,70%,90%);fill-opacity:1;stroke-width:1;stroke-linecap:butt;stroke-linejoin:miter;stroke:rgb(0%,0%,0%);stroke-opacity:1;stroke-miterlimit:10;" d="M 477.214844 426 C 477.214844 437.714844 467.714844 447.214844 456 447.214844 C 444.285156 447.214844 434.785156 437.714844 434.785156 426 C 434.785156 414.285156 444.285156 404.785156 456 404.785156 C 467.714844 404.785156 477.214844 414.285156 477.214844 426 "/>
<path style="fill-rule:nonzero;fill:rgb(35%,70%,90%);fill-opacity:1;stroke-width:1;stroke-linecap:butt;stroke-linejoin:miter;stroke:rgb(0%,0%,0%);stroke-opacity:1;stroke-miterlimit:10;" d="M 372.785156 307.785156 L 372.785156 350.214844 L 415.214844 350.214844 L 415.214844 307.785156 L 372.785156 307.785156 "/>
<path style="fill-rule:nonzero;fill:rgb(35%,70%,90%);fill-opacity:1;stroke-width:1;stroke-linecap:butt;stroke-linejoin:miter;stroke:rgb(0%,0%,0%);stroke-opacity:1;stroke-miterlimit:10;" d="M 176.214844 298 C 176.214844 309.714844 166.714844 319.214844 155 319.214844 C 143.285156 319.214844 133.785156 309.714844 133.785156 298 C 133.785156 286.285156 143.285156 276.785156 155 276.785156 C 166.714844 276.785156 176.214844 286.285156 176.214844 298 "/>
<path style="fill-rule:nonzero;fill:rgb(35%,70%,90%);fill-opacity:1;stroke-width:1;stroke-linecap:butt;stroke-linejoin:miter;stroke:rgb(0%,0%,0%);stroke-opacity:1;stroke-miterlimit:10;" d="M 232.785156 264.785156 L 232.785156 307.214844 L 275.214844 307.214844 L 275.214844 264.785156 L 232.785156 264.785156 "/>
<path style="fill-rule:nonzero;fill:rgb(35%,70%,90%);fill-opacity:1;stroke-width:1;stroke-linecap:butt;stroke-linejoin:miter;stroke:rgb(0%,0%,0%);stroke-opacity:1;stroke-miterlimit:10;" d="M 100.214844 96 C 100.214844 107.714844 90.714844 117.214844 79 117.214844 C 67.285156 117.214844 57.785156 107.714844 57.785156 96 C 57.785156 84.285156 67.285156 74.785156 79 74.785156 C 90.714844 74.785156 100.214844 84.285156 100.214844 96 "/>
<path style="fill-rule:nonzero;fill:rgb(35%,70%,90%);fill-opacity:1;stroke-width:1;stroke-linecap:butt;stroke-linejoin:miter;stroke:rgb(0%,0%,0%);stroke-opacity:1;stroke-miterlimit:10;" d="M 253.214844 412 C 253.214844 423.714844 243.714844 433.214844 232 433.214844 C 220.285156 433.214844 210.785156 423.714844 210.785156 412 C 210.785156 400.285156 220.285156 390.785156 232 390.785156 C 243.714844 390.785156 253.214844 400.285156 253.214844 412 "/>
<path style="fill-rule:nonzero;fill:rgb(53%,27%,7%);fill-opacity:1;stroke-width:1;stroke-linecap:butt;stroke-linejoin:miter;stroke:rgb(0%,0%,0%);stroke-opacity:1;stroke-miterlimit:10;" d="M 924.785156 259.785156 L 924.785156 302.214844 L 967.214844 302.214844 L 967.214844 259.785156 L 924.785156 259.785156 "/>
<path style="fill-rule:nonzero;fill:rgb(53%,27%,7%);fill-opacity:1;stroke-width:1;stroke-linecap:butt;stroke-linejoin:miter;stroke:rgb(0%,0%,0%);stroke-opacity:1;stroke-miterlimit:10;" d="M 658.214844 52 C 658.214844 63.714844 648.714844 73.214844 637 73.214844 C 625.285156 73.214844 615.785156 63.714844 615.785156 52 C 615.785156 40.285156 625.285156 30.785156 637 30.785156 C 648.714844 30.785156 658.214844 40.285156 658.214844 52 "/>
<path style="fill-rule:nonzero;fill:rgb(53%,27%,7%);fill-opacity:1;stroke-width:1;stroke-linecap:butt;stroke-linejoin:miter;stroke:rgb(0%,0%,0%);stroke-opacity:1;stroke-miterlimit:10;" d="M 828.785156 221.785156 L 828.785156 264.214844 L 871.214844 264.214844 L 871.214844 221.785156 L 828.785156 221.785156 "/>
<path style="fill-rule:nonzero;fill:rgb(53%,27%,7%);fill-opacity:1;stroke-width:1;stroke-linecap:butt;stroke-linejoin:miter;stroke:rgb(0%,0%,0%);stroke-opacity:1;stroke-miterlimit:10;" d="M 920.214844 55 C 920.214844 66.714844 910.714844 76.214844 899 76.214844 C 887.285156 76.214844 877.785156 66.714844 877.785156 55 C 877.785156 43.285156 887.285156 33.785156 899 33.785156 C 910.714844 33.785156 920.214844 43.285156 920.214844 55 "/>
<path style="fill-rule:nonzero;fill:rgb(53%,27%,7%);fill-opacity:1;stroke-width:1;stroke-linecap:butt;stroke-linejoin:miter;stroke:rgb(0%,0%,0%);stroke-opacity:1;stroke-miterlimit:10;" d="M 873.785156 127.785156 L 873.785156 170.214844 L 916.214844 170.214844 L 916.214844 127.785156 L 873.785156 127.785156 "/>
<path style="fill-rule:nonzero;fill:rgb(53%,27%,7%);fill-opacity:1;stroke-width:1;stroke-linecap:butt;stroke-linejoin:miter;stroke:rgb(0%,0%,0%);stroke-opacity:1;stroke-miterlimit:10;" d="M 837.785156 437.785156 L 837.785156 480.214844 L 880.214844 480.214844 L 880.214844 437.785156 L 837.785156 437.785156 "/>
<path style="fill-rule:nonzero;fill:rgb(53%,27%,7%);fill-opacity:1;stroke-width:1;stroke-linecap:butt;stroke-linejoin:miter;stroke:rgb(0%,0%,0%);stroke-opacity:1;stroke-miterlimit:10;" d="M 715.785156 357.785156 L 715.785156 400.214844 L 758.214844 400.214844 L 758.214844 357.785156 L 715.785156 357.785156 "/>
</g>
</svg>
