<?xml version="1.0" encoding="UTF-8"?>
<svg xmlns="http://www.w3.org/2000/svg" xmlns:xlink="http://www.w3.org/1999/xlink" width="1129pt" height="517pt" viewBox="0 0 1129 517" version="1.1">
<g id="surface941">
<rect x="0" y="0" width="1129" height="517" style="fill:rgb(90%,90%,90%);fill-opacity:1;stroke:none;"/>
<path style="fill-rule:nonzero;fill:rgb(53%,27%,7%);fill-opacity:1;stroke-width:1;stroke-linecap:butt;stroke-linejoin:miter;stroke:rgb(0%,0%,0%);stroke-opacity:1;stroke-miterlimit:10;" d="M 108 197.601562 C 108 183.199219 84 183.199219 84 197.601562 C 84 212 108 214.398438 108 226.398438 C 108 214.398438 132 212 132 197.601562 C 132 183.199219 108 183.199219 108 197.601562 "/>
<path style="fill-rule:nonzero;fill:rgb(53%,27%,7%);fill-opacity:1;stroke-width:1;stroke-linecap:butt;stroke-linejoin:miter;stroke:rgb(0%,0%,0%);stroke-opacity:1;stroke-miterlimit:10;" d="M 374 363.601562 C 374 349.199219 350 349.199219 350 363.601562 C 350 378 374 380.398438 374 392.398438 C 374 380.398438 398 378 398 363.601562 C 398 349.199219 374 349.199219 374 363.601562 "/>
<path style="fill-rule:nonzero;fill:rgb(53%,27%,7%);fill-opacity:1;stroke-width:1;stroke-linecap:butt;stroke-linejoin:miter;stroke:rgb(0%,0%,0%);stroke-opacity:1;stroke-miterlimit:10;" d="M 350 265.601562 C 350 251.199219 326 251.199219 326 265.601562 C 326 280 350 282.398438 350 294.398438 C 350 282.398438 374 280 374 265.601562 C 374 251.199219 350 251.199219 350 265.601562 "/>
<path style="fill-rule:nonzero;fill:rgb(53%,27%,7%);fill-opacity:1;stroke-width:1;stroke-linecap:butt;stroke-linejoin:miter;stroke:rgb(0%,0%,0%);stroke-opacity:1;stroke-miterlimit:10;" d="M 274.214844 86 C 274.214844 97.714844 264.714844 107.214844 253 107.214844 C 241.285156 107.214844 231.785156 97.714844 231.785156 86 C 231.785156 74.285156 241.285156 64.785156 253 64.785156 C 264.714844 64.785156 274.214844 74.285156 274.214844 86 "/>
<path style="fill-rule:nonzero;fill:rgb(53%,27%,7%);fill-opacity:1;stroke-width:1;stroke-linecap:butt;stroke-linejoin:miter;stroke:rgb(0%,0%,0%);stroke-opacity:1;stroke-miterlimit:10;" d="M 226 255.601562 C 226 241.199219 202 241.199219 202 255.601562 C 202 270 226 272.398438 226 284.398438 C 226 272.398438 250 270 250 255.601562 C 250 241.199219 226 241.199219 226 255.601562 "/>
<path style="fill-rule:nonzero;fill:rgb(53%,27%,7%);fill-opacity:1;stroke-width:1;stroke-linecap:butt;stroke-linejoin:miter;stroke:rgb(0%,0%,0%);stroke-opacity:1;stroke-miterlimit:10;" d="M 119 356.601562 C 119 342.199219 95 342.199219 95 356.601562 C 95 371 119 373.398438 119 385.398438 C 119 373.398438 143 371 143 356.601562 C 143 342.199219 119 342.199219 119 356.601562 "/>
<path style="fill-rule:nonzero;fill:rgb(53%,27%,7%);fill-opacity:1;stroke-width:1;stroke-linecap:butt;stroke-linejoin:miter;stroke:rgb(0%,0%,0%);stroke-opacity:1;stroke-miterlimit:10;" d="M 354 44.601562 C 354 30.199219 330 30.199219 330 44.601562 C 330 59 354 61.398438 354 73.398438 C 354 61.398438 378 59 378 44.601562 C 378 30.199219 354 30.199219 354 44.601562 "/>
<path style="fill-rule:nonzero;fill:rgb(53%,27%,7%);fill-opacity:1;stroke-width:1;stroke-linecap:butt;stroke-linejoin:miter;stroke:rgb(0%,0%,0%);stroke-opacity:1;stroke-miterlimit:10;" d="M 73 437.601562 C 73 423.199219 49 423.199219 49 437.601562 C 49 452 73 454.398438 73 466.398438 C 73 454.398438 97 452 97 437.601562 C 97 423.199219 73 423.199219 73 437.601562 "/>
<path style="fill-rule:nonzero;fill:rgb(100%,51%,0%);fill-opacity:1;stroke-width:1;stroke-linecap:butt;stroke-linejoin:miter;stroke:rgb(0%,0%,0%);stroke-opacity:1;stroke-miterlimit:10;" d="M 923.214844 109 C 923.214844 120.714844 913.714844 130.214844 902 130.214844 C 890.285156 130.214844 880.785156 120.714844 880.785156 109 C 880.785156 97.285156 890.285156 87.785156 902 87.785156 C 913.714844 87.785156 923.214844 97.285156 923.214844 109 "/>
<path style="fill-rule:nonzero;fill:rgb(100%,51%,0%);fill-opacity:1;stroke-width:1;stroke-linecap:butt;stroke-linejoin:miter;stroke:rgb(0%,0%,0%);stroke-opacity:1;stroke-miterlimit:10;" d="M 1028.214844 417 C 1028.214844 428.714844 1018.714844 438.214844 1007 438.214844 C 995.285156 438.214844 985.785156 428.714844 985.785156 417 C 985.785156 405.285156 995.285156 395.785156 1007 395.785156 C 1018.714844 395.785156 1028.214844 405.285156 1028.214844 417 "/>
<path style="fill-rule:nonzero;fill:rgb(100%,51%,0%);fill-opacity:1;stroke-width:1;stroke-linecap:butt;stroke-linejoin:miter;stroke:rgb(0%,0%,0%);stroke-opacity:1;stroke-miterlimit:10;" d="M 763.214844 51 C 763.214844 62.714844 753.714844 72.214844 742 72.214844 C 730.285156 72.214844 720.785156 62.714844 720.785156 51 C 720.785156 39.285156 730.285156 29.785156 742 29.785156 C 753.714844 29.785156 763.214844 39.285156 763.214844 51 "/>
<path style="fill-rule:nonzero;fill:rgb(100%,51%,0%);fill-opacity:1;stroke-width:1;stroke-linecap:butt;stroke-linejoin:miter;stroke:rgb(0%,0%,0%);stroke-opacity:1;stroke-miterlimit:10;" d="M 700 389.601562 C 700 375.199219 676 375.199219 676 389.601562 C 676 404 700 406.398438 700 418.398438 C 700 406.398438 724 404 724 389.601562 C 724 375.199219 700 375.199219 700 389.601562 "/>
<path style="fill-rule:nonzero;fill:rgb(100%,51%,0%);fill-opacity:1;stroke-width:1;stroke-linecap:butt;stroke-linejoin:miter;stroke:rgb(0%,0%,0%);stroke-opacity:1;stroke-miterlimit:10;" d="M 764.214844 150 C 764.214844 161.714844 754.714844 171.214844 743 171.214844 C 731.285156 171.214844 721.785156 161.714844 721.785156 150 C 721.785156 138.285156 731.285156 128.785156 743 128.785156 C 754.714844 128.785156 764.214844 138.285156 764.214844 150 "/>
<path style="fill-rule:nonzero;fill:rgb(100%,51%,0%);fill-opacity:1;stroke-width:1;stroke-linecap:butt;stroke-linejoin:miter;stroke:rgb(0%,0%,0%);stroke-opacity:1;stroke-miterlimit:10;" d="M 924.214844 221 C 924.214844 232.714844 914.714844 242.214844 903 242.214844 C 891.285156 242.214844 881.785156 232.714844 881.785156 221 C 881.785156 209.285156 891.285156 199.785156 903 199.785156 C 914.714844 199.785156 924.214844 209.285156 924.214844 221 "/>
<path style="fill-rule:nonzero;fill:rgb(100%,51%,0%);fill-opacity:1;stroke-width:1;stroke-linecap:butt;stroke-linejoin:miter;stroke:rgb(0%,0%,0%);stroke-opacity:1;stroke-miterlimit:10;" d="M 746.214844 268 C 746.214844 279.714844 736.714844 289.214844 725 289.214844 C 713.285156 289.214844 703.785156 279.714844 703.785156 268 C 703.785156 256.285156 713.285156 246.785156 725 246.785156 C 736.714844 246.785156 746.214844 256.285156 746.214844 268 "/>
<path style="fill-rule:nonzero;fill:rgb(100%,51%,0%);fill-opacity:1;stroke-width:1;stroke-linecap:butt;stroke-linejoin:miter;stroke:rgb(0%,0%,0%);stroke-opacity:1;stroke-miterlimit:10;" d="M 1005.214844 293 C 1005.214844 304.714844 995.714844 314.214844 984 314.214844 C 972.285156 314.214844 962.785156 304.714844 962.785156 293 C 962.785156 281.285156 972.285156 271.785156 984 271.785156 C 995.714844 271.785156 1005.214844 281.285156 1005.214844 293 "/>
</g>
</svg>
