<?xml version="1.0" encoding="UTF-8"?>
<svg xmlns="http://www.w3.org/2000/svg" xmlns:xlink="http://www.w3.org/1999/xlink" width="1129pt" height="517pt" viewBox="0 0 1129 517" version="1.1">
<g id="surface521">
<rect x="0" y="0" width="1129" height="517" style="fill:rgb(90%,90%,90%);fill-opacity:1;stroke:none;"/>
<path style="fill-rule:nonzero;fill:rgb(55%,51%,53%);fill-opacity:1;stroke-width:1;stroke-linecap:butt;stroke-linejoin:miter;stroke:rgb(0%,0%,0%);stroke-opacity:1;stroke-miterlimit:10;" d="M 382 439 L 411.664062 439 L 423.664062 410.785156 L 435.664062 439 L 465.332031 439 L 441.332031 456.4375 L 449.417969 487.980469 L 423.664062 470.542969 L 397.914062 487.980469 L 410.214844 456.4375 L 382 439 "/>
<path style="fill-rule:nonzero;fill:rgb(55%,51%,53%);fill-opacity:1;stroke-width:1;stroke-linecap:butt;stroke-linejoin:miter;stroke:rgb(0%,0%,0%);stroke-opacity:1;stroke-miterlimit:10;" d="M 277.785156 253.785156 L 277.785156 296.214844 L 320.214844 296.214844 L 320.214844 253.785156 L 277.785156 253.785156 "/>
<path style="fill-rule:nonzero;fill:rgb(55%,51%,53%);fill-opacity:1;stroke-width:1;stroke-linecap:butt;stroke-linejoin:miter;stroke:rgb(0%,0%,0%);stroke-opacity:1;stroke-miterlimit:10;" d="M 211.785156 133.785156 L 211.785156 176.214844 L 254.214844 176.214844 L 254.214844 133.785156 L 211.785156 133.785156 "/>
<path style="fill-rule:nonzero;fill:rgb(55%,51%,53%);fill-opacity:1;stroke-width:1;stroke-linecap:butt;stroke-linejoin:miter;stroke:rgb(0%,0%,0%);stroke-opacity:1;stroke-miterlimit:10;" d="M 183 423 L 212.664062 423 L 224.664062 394.785156 L 236.664062 423 L 266.332031 423 L 242.332031 440.4375 L 250.417969 471.980469 L 224.664062 454.542969 L 198.914062 471.980469 L 211.214844 440.4375 L 183 423 "/>
<path style="fill-rule:nonzero;fill:rgb(53%,27%,7%);fill-opacity:1;stroke-width:1;stroke-linecap:butt;stroke-linejoin:miter;stroke:rgb(0%,0%,0%);stroke-opacity:1;stroke-miterlimit:10;" d="M 727.785156 213.785156 L 727.785156 256.214844 L 770.214844 256.214844 L 770.214844 213.785156 L 727.785156 213.785156 "/>
<path style="fill-rule:nonzero;fill:rgb(53%,27%,7%);fill-opacity:1;stroke-width:1;stroke-linecap:butt;stroke-linejoin:miter;stroke:rgb(0%,0%,0%);stroke-opacity:1;stroke-miterlimit:10;" d="M 631 413 L 660.664062 413 L 672.664062 384.785156 L 684.664062 413 L 714.332031 413 L 690.332031 430.4375 L 698.417969 461.980469 L 672.664062 444.542969 L 646.914062 461.980469 L 659.214844 430.4375 L 631 413 "/>
<path style="fill-rule:nonzero;fill:rgb(53%,27%,7%);fill-opacity:1;stroke-width:1;stroke-linecap:butt;stroke-linejoin:miter;stroke:rgb(0%,0%,0%);stroke-opacity:1;stroke-miterlimit:10;" d="M 647 220 L 676.664062 220 L 688.664062 191.785156 L 700.664062 220 L 730.332031 220 L 706.332031 237.4375 L 714.417969 268.980469 L 688.664062 251.542969 L 662.914062 268.980469 L 675.214844 237.4375 L 647 220 "/>
<path style="fill-rule:nonzero;fill:rgb(53%,27%,7%);fill-opacity:1;stroke-width:1;stroke-linecap:butt;stroke-linejoin:miter;stroke:rgb(0%,0%,0%);stroke-opacity:1;stroke-miterlimit:10;" d="M 928.785156 290.785156 L 928.785156 333.214844 L 971.214844 333.214844 L 971.214844 290.785156 L 928.785156 290.785156 "/>
<path style="fill-rule:nonzero;fill:rgb(53%,27%,7%);fill-opacity:1;stroke-width:1;stroke-linecap:butt;stroke-linejoin:miter;stroke:rgb(0%,0%,0%);stroke-opacity:1;stroke-miterlimit:10;" d="M 756.785156 356.785156 L 756.785156 399.214844 L 799.214844 399.214844 L 799.214844 356.785156 L 756.785156 356.785156 "/>
<path style="fill-rule:nonzero;fill:rgb(53%,27%,7%);fill-opacity:1;stroke-width:1;stroke-linecap:butt;stroke-linejoin:miter;stroke:rgb(0%,0%,0%);stroke-opacity:1;stroke-miterlimit:10;" d="M 969.785156 133.785156 L 969.785156 176.214844 L 1012.214844 176.214844 L 1012.214844 133.785156 L 969.785156 133.785156 "/>
</g>
</svg>
