<?xml version="1.0" encoding="UTF-8"?>
<svg xmlns="http://www.w3.org/2000/svg" xmlns:xlink="http://www.w3.org/1999/xlink" width="1129pt" height="517pt" viewBox="0 0 1129 517" version="1.1">
<g id="surface181">
<rect x="0" y="0" width="1129" height="517" style="fill:rgb(90%,90%,90%);fill-opacity:1;stroke:none;"/>
<path style="fill-rule:nonzero;fill:rgb(35%,70%,90%);fill-opacity:1;stroke-width:1;stroke-linecap:butt;stroke-linejoin:miter;stroke:rgb(0%,0%,0%);stroke-opacity:1;stroke-miterlimit:10;" d="M 146 121 L 175.664062 121 L 187.664062 92.785156 L 199.664062 121 L 229.332031 121 L 205.332031 138.4375 L 213.417969 169.980469 L 187.664062 152.542969 L 161.914062 169.980469 L 174.214844 138.4375 L 146 121 "/>
<path style="fill-rule:nonzero;fill:rgb(35%,70%,90%);fill-opacity:1;stroke-width:1;stroke-linecap:butt;stroke-linejoin:miter;stroke:rgb(0%,0%,0%);stroke-opacity:1;stroke-miterlimit:10;" d="M 847 56 L 876.664062 56 L 888.664062 27.785156 L 900.664062 56 L 930.332031 56 L 906.332031 73.4375 L 914.417969 104.980469 L 888.664062 87.542969 L 862.914062 104.980469 L 875.214844 73.4375 L 847 56 "/>
<path style="fill-rule:nonzero;fill:rgb(35%,70%,90%);fill-opacity:1;stroke-width:1;stroke-linecap:butt;stroke-linejoin:miter;stroke:rgb(0%,0%,0%);stroke-opacity:1;stroke-miterlimit:10;" d="M 487 79 L 516.664062 79 L 528.664062 50.785156 L 540.664062 79 L 570.332031 79 L 546.332031 96.4375 L 554.417969 127.980469 L 528.664062 110.542969 L 502.914062 127.980469 L 515.214844 96.4375 L 487 79 "/>
<path style="fill-rule:nonzero;fill:rgb(35%,70%,90%);fill-opacity:1;stroke-width:1;stroke-linecap:butt;stroke-linejoin:miter;stroke:rgb(0%,0%,0%);stroke-opacity:1;stroke-miterlimit:10;" d="M 465 360 L 494.664062 360 L 506.664062 331.785156 L 518.664062 360 L 548.332031 360 L 524.332031 377.4375 L 532.417969 408.980469 L 506.664062 391.542969 L 480.914062 408.980469 L 493.214844 377.4375 L 465 360 "/>
<path style="fill-rule:nonzero;fill:rgb(35%,70%,90%);fill-opacity:1;stroke-width:1;stroke-linecap:butt;stroke-linejoin:miter;stroke:rgb(0%,0%,0%);stroke-opacity:1;stroke-miterlimit:10;" d="M 908 269 L 937.664062 269 L 949.664062 240.785156 L 961.664062 269 L 991.332031 269 L 967.332031 286.4375 L 975.417969 317.980469 L 949.664062 300.542969 L 923.914062 317.980469 L 936.214844 286.4375 L 908 269 "/>
<path style="fill-rule:nonzero;fill:rgb(35%,70%,90%);fill-opacity:1;stroke-width:1;stroke-linecap:butt;stroke-linejoin:miter;stroke:rgb(0%,0%,0%);stroke-opacity:1;stroke-miterlimit:10;" d="M 462 216 L 491.664062 216 L 503.664062 187.785156 L 515.664062 216 L 545.332031 216 L 521.332031 233.4375 L 529.417969 264.980469 L 503.664062 247.542969 L 477.914062 264.980469 L 490.214844 233.4375 L 462 216 "/>
<path style="fill-rule:nonzero;fill:rgb(100%,51%,0%);fill-opacity:1;stroke-width:1;stroke-linecap:butt;stroke-linejoin:miter;stroke:rgb(0%,0%,0%);stroke-opacity:1;stroke-miterlimit:10;" d="M 644.214844 410 C 644.214844 421.714844 634.714844 431.214844 623 431.214844 C 611.285156 431.214844 601.785156 421.714844 601.785156 410 C 601.785156 398.285156 611.285156 388.785156 623 388.785156 C 634.714844 388.785156 644.214844 398.285156 644.214844 410 "/>
<path style="fill-rule:nonzero;fill:rgb(100%,51%,0%);fill-opacity:1;stroke-width:1;stroke-linecap:butt;stroke-linejoin:miter;stroke:rgb(0%,0%,0%);stroke-opacity:1;stroke-miterlimit:10;" d="M 361.214844 60 C 361.214844 71.714844 351.714844 81.214844 340 81.214844 C 328.285156 81.214844 318.785156 71.714844 318.785156 60 C 318.785156 48.285156 328.285156 38.785156 340 38.785156 C 351.714844 38.785156 361.214844 48.285156 361.214844 60 "/>
<path style="fill-rule:nonzero;fill:rgb(100%,51%,0%);fill-opacity:1;stroke-width:1;stroke-linecap:butt;stroke-linejoin:miter;stroke:rgb(0%,0%,0%);stroke-opacity:1;stroke-miterlimit:10;" d="M 908.214844 170 C 908.214844 181.714844 898.714844 191.214844 887 191.214844 C 875.285156 191.214844 865.785156 181.714844 865.785156 170 C 865.785156 158.285156 875.285156 148.785156 887 148.785156 C 898.714844 148.785156 908.214844 158.285156 908.214844 170 "/>
<path style="fill-rule:nonzero;fill:rgb(100%,51%,0%);fill-opacity:1;stroke-width:1;stroke-linecap:butt;stroke-linejoin:miter;stroke:rgb(0%,0%,0%);stroke-opacity:1;stroke-miterlimit:10;" d="M 729.214844 289 C 729.214844 300.714844 719.714844 310.214844 708 310.214844 C 696.285156 310.214844 686.785156 300.714844 686.785156 289 C 686.785156 277.285156 696.285156 267.785156 708 267.785156 C 719.714844 267.785156 729.214844 277.285156 729.214844 289 "/>
<path style="fill-rule:nonzero;fill:rgb(100%,51%,0%);fill-opacity:1;stroke-width:1;stroke-linecap:butt;stroke-linejoin:miter;stroke:rgb(0%,0%,0%);stroke-opacity:1;stroke-miterlimit:10;" d="M 826.214844 388 C 826.214844 399.714844 816.714844 409.214844 805 409.214844 C 793.285156 409.214844 783.785156 399.714844 783.785156 388 C 783.785156 376.285156 793.285156 366.785156 805 366.785156 C 816.714844 366.785156 826.214844 376.285156 826.214844 388 "/>
<path style="fill-rule:nonzero;fill:rgb(100%,51%,0%);fill-opacity:1;stroke-width:1;stroke-linecap:butt;stroke-linejoin:miter;stroke:rgb(0%,0%,0%);stroke-opacity:1;stroke-miterlimit:10;" d="M 376.214844 433 C 376.214844 444.714844 366.714844 454.214844 355 454.214844 C 343.285156 454.214844 333.785156 444.714844 333.785156 433 C 333.785156 421.285156 343.285156 411.785156 355 411.785156 C 366.714844 411.785156 376.214844 421.285156 376.214844 433 "/>
<path style="fill-rule:nonzero;fill:rgb(100%,51%,0%);fill-opacity:1;stroke-width:1;stroke-linecap:butt;stroke-linejoin:miter;stroke:rgb(0%,0%,0%);stroke-opacity:1;stroke-miterlimit:10;" d="M 948.214844 379 C 948.214844 390.714844 938.714844 400.214844 927 400.214844 C 915.285156 400.214844 905.785156 390.714844 905.785156 379 C 905.785156 367.285156 915.285156 357.785156 927 357.785156 C 938.714844 357.785156 948.214844 367.285156 948.214844 379 "/>
</g>
</svg>
