<?xml version="1.0" encoding="UTF-8"?>
<svg xmlns="http://www.w3.org/2000/svg" xmlns:xlink="http://www.w3.org/1999/xlink" width="1129pt" height="517pt" viewBox="0 0 1129 517" version="1.1">
<g id="surface731">
<rect x="0" y="0" width="1129" height="517" style="fill:rgb(90%,90%,90%);fill-opacity:1;stroke:none;"/>
<path style="fill-rule:nonzero;fill:rgb(35%,70%,90%);fill-opacity:1;stroke-width:1;stroke-linecap:butt;stroke-linejoin:miter;stroke:rgb(0%,0%,0%);stroke-opacity:1;stroke-miterlimit:10;" d="M 496 333 L 525.664062 333 L 537.664062 304.785156 L 549.664062 333 L 579.332031 333 L 555.332031 350.4375 L 563.417969 381.980469 L 537.664062 364.542969 L 511.914062 381.980469 L 524.214844 350.4375 L 496 333 "/>
<path style="fill-rule:nonzero;fill:rgb(35%,70%,90%);fill-opacity:1;stroke-width:1;stroke-linecap:butt;stroke-linejoin:miter;stroke:rgb(0%,0%,0%);stroke-opacity:1;stroke-miterlimit:10;" d="M 774 273 L 803.664062 273 L 815.664062 244.785156 L 827.664062 273 L 857.332031 273 L 833.332031 290.4375 L 841.417969 321.980469 L 815.664062 304.542969 L 789.914062 321.980469 L 802.214844 290.4375 L 774 273 "/>
<path style="fill-rule:nonzero;fill:rgb(35%,70%,90%);fill-opacity:1;stroke-width:1;stroke-linecap:butt;stroke-linejoin:miter;stroke:rgb(0%,0%,0%);stroke-opacity:1;stroke-miterlimit:10;" d="M 791 180 L 820.664062 180 L 832.664062 151.785156 L 844.664062 180 L 874.332031 180 L 850.332031 197.4375 L 858.417969 228.980469 L 832.664062 211.542969 L 806.914062 228.980469 L 819.214844 197.4375 L 791 180 "/>
<path style="fill-rule:nonzero;fill:rgb(35%,70%,90%);fill-opacity:1;stroke-width:1;stroke-linecap:butt;stroke-linejoin:miter;stroke:rgb(0%,0%,0%);stroke-opacity:1;stroke-miterlimit:10;" d="M 922 421 L 951.664062 421 L 963.664062 392.785156 L 975.664062 421 L 1005.332031 421 L 981.332031 438.4375 L 989.417969 469.980469 L 963.664062 452.542969 L 937.914062 469.980469 L 950.214844 438.4375 L 922 421 "/>
<path style="fill-rule:nonzero;fill:rgb(35%,70%,90%);fill-opacity:1;stroke-width:1;stroke-linecap:butt;stroke-linejoin:miter;stroke:rgb(0%,0%,0%);stroke-opacity:1;stroke-miterlimit:10;" d="M 52 321 L 81.664062 321 L 93.664062 292.785156 L 105.664062 321 L 135.332031 321 L 111.332031 338.4375 L 119.417969 369.980469 L 93.664062 352.542969 L 67.914062 369.980469 L 80.214844 338.4375 L 52 321 "/>
<path style="fill-rule:nonzero;fill:rgb(35%,70%,90%);fill-opacity:1;stroke-width:1;stroke-linecap:butt;stroke-linejoin:miter;stroke:rgb(0%,0%,0%);stroke-opacity:1;stroke-miterlimit:10;" d="M 478 80 L 507.664062 80 L 519.664062 51.785156 L 531.664062 80 L 561.332031 80 L 537.332031 97.4375 L 545.417969 128.980469 L 519.664062 111.542969 L 493.914062 128.980469 L 506.214844 97.4375 L 478 80 "/>
<path style="fill-rule:nonzero;fill:rgb(55%,51%,53%);fill-opacity:1;stroke-width:1;stroke-linecap:butt;stroke-linejoin:miter;stroke:rgb(0%,0%,0%);stroke-opacity:1;stroke-miterlimit:10;" d="M 95.214844 207 C 95.214844 218.714844 85.714844 228.214844 74 228.214844 C 62.285156 228.214844 52.785156 218.714844 52.785156 207 C 52.785156 195.285156 62.285156 185.785156 74 185.785156 C 85.714844 185.785156 95.214844 195.285156 95.214844 207 "/>
<path style="fill-rule:nonzero;fill:rgb(55%,51%,53%);fill-opacity:1;stroke-width:1;stroke-linecap:butt;stroke-linejoin:miter;stroke:rgb(0%,0%,0%);stroke-opacity:1;stroke-miterlimit:10;" d="M 772.214844 441 C 772.214844 452.714844 762.714844 462.214844 751 462.214844 C 739.285156 462.214844 729.785156 452.714844 729.785156 441 C 729.785156 429.285156 739.285156 419.785156 751 419.785156 C 762.714844 419.785156 772.214844 429.285156 772.214844 441 "/>
<path style="fill-rule:nonzero;fill:rgb(55%,51%,53%);fill-opacity:1;stroke-width:1;stroke-linecap:butt;stroke-linejoin:miter;stroke:rgb(0%,0%,0%);stroke-opacity:1;stroke-miterlimit:10;" d="M 210.214844 147 C 210.214844 158.714844 200.714844 168.214844 189 168.214844 C 177.285156 168.214844 167.785156 158.714844 167.785156 147 C 167.785156 135.285156 177.285156 125.785156 189 125.785156 C 200.714844 125.785156 210.214844 135.285156 210.214844 147 "/>
<path style="fill-rule:nonzero;fill:rgb(55%,51%,53%);fill-opacity:1;stroke-width:1;stroke-linecap:butt;stroke-linejoin:miter;stroke:rgb(0%,0%,0%);stroke-opacity:1;stroke-miterlimit:10;" d="M 963.214844 102 C 963.214844 113.714844 953.714844 123.214844 942 123.214844 C 930.285156 123.214844 920.785156 113.714844 920.785156 102 C 920.785156 90.285156 930.285156 80.785156 942 80.785156 C 953.714844 80.785156 963.214844 90.285156 963.214844 102 "/>
<path style="fill-rule:nonzero;fill:rgb(55%,51%,53%);fill-opacity:1;stroke-width:1;stroke-linecap:butt;stroke-linejoin:miter;stroke:rgb(0%,0%,0%);stroke-opacity:1;stroke-miterlimit:10;" d="M 457.214844 262 C 457.214844 273.714844 447.714844 283.214844 436 283.214844 C 424.285156 283.214844 414.785156 273.714844 414.785156 262 C 414.785156 250.285156 424.285156 240.785156 436 240.785156 C 447.714844 240.785156 457.214844 250.285156 457.214844 262 "/>
<path style="fill-rule:nonzero;fill:rgb(55%,51%,53%);fill-opacity:1;stroke-width:1;stroke-linecap:butt;stroke-linejoin:miter;stroke:rgb(0%,0%,0%);stroke-opacity:1;stroke-miterlimit:10;" d="M 640.214844 106 C 640.214844 117.714844 630.714844 127.214844 619 127.214844 C 607.285156 127.214844 597.785156 117.714844 597.785156 106 C 597.785156 94.285156 607.285156 84.785156 619 84.785156 C 630.714844 84.785156 640.214844 94.285156 640.214844 106 "/>
<path style="fill-rule:nonzero;fill:rgb(55%,51%,53%);fill-opacity:1;stroke-width:1;stroke-linecap:butt;stroke-linejoin:miter;stroke:rgb(0%,0%,0%);stroke-opacity:1;stroke-miterlimit:10;" d="M 398.214844 56 C 398.214844 67.714844 388.714844 77.214844 377 77.214844 C 365.285156 77.214844 355.785156 67.714844 355.785156 56 C 355.785156 44.285156 365.285156 34.785156 377 34.785156 C 388.714844 34.785156 398.214844 44.285156 398.214844 56 "/>
<path style="fill-rule:nonzero;fill:rgb(55%,51%,53%);fill-opacity:1;stroke-width:1;stroke-linecap:butt;stroke-linejoin:miter;stroke:rgb(0%,0%,0%);stroke-opacity:1;stroke-miterlimit:10;" d="M 354.214844 237 C 354.214844 248.714844 344.714844 258.214844 333 258.214844 C 321.285156 258.214844 311.785156 248.714844 311.785156 237 C 311.785156 225.285156 321.285156 215.785156 333 215.785156 C 344.714844 215.785156 354.214844 225.285156 354.214844 237 "/>
</g>
</svg>
