<?xml version="1.0" encoding="UTF-8"?>
<svg xmlns="http://www.w3.org/2000/svg" xmlns:xlink="http://www.w3.org/1999/xlink" width="1129pt" height="517pt" viewBox="0 0 1129 517" version="1.1">
<g id="surface546">
<rect x="0" y="0" width="1129" height="517" style="fill:rgb(90%,90%,90%);fill-opacity:1;stroke:none;"/>
<path style="fill-rule:nonzero;fill:rgb(35%,70%,90%);fill-opacity:1;stroke-width:1;stroke-linecap:butt;stroke-linejoin:miter;stroke:rgb(0%,0%,0%);stroke-opacity:1;stroke-miterlimit:10;" d="M 749 450 L 778.664062 450 L 790.664062 421.785156 L 802.664062 450 L 832.332031 450 L 808.332031 467.4375 L 816.417969 498.980469 L 790.664062 481.542969 L 764.914062 498.980469 L 777.214844 467.4375 L 749 450 "/>
<path style="fill-rule:nonzero;fill:rgb(35%,70%,90%);fill-opacity:1;stroke-width:1;stroke-linecap:butt;stroke-linejoin:miter;stroke:rgb(0%,0%,0%);stroke-opacity:1;stroke-miterlimit:10;" d="M 833 232 L 862.664062 232 L 874.664062 203.785156 L 886.664062 232 L 916.332031 232 L 892.332031 249.4375 L 900.417969 280.980469 L 874.664062 263.542969 L 848.914062 280.980469 L 861.214844 249.4375 L 833 232 "/>
<path style="fill-rule:nonzero;fill:rgb(35%,70%,90%);fill-opacity:1;stroke-width:1;stroke-linecap:butt;stroke-linejoin:miter;stroke:rgb(0%,0%,0%);stroke-opacity:1;stroke-miterlimit:10;" d="M 145 106 L 174.664062 106 L 186.664062 77.785156 L 198.664062 106 L 228.332031 106 L 204.332031 123.4375 L 212.417969 154.980469 L 186.664062 137.542969 L 160.914062 154.980469 L 173.214844 123.4375 L 145 106 "/>
<path style="fill-rule:nonzero;fill:rgb(35%,70%,90%);fill-opacity:1;stroke-width:1;stroke-linecap:butt;stroke-linejoin:miter;stroke:rgb(0%,0%,0%);stroke-opacity:1;stroke-miterlimit:10;" d="M 339 413 L 368.664062 413 L 380.664062 384.785156 L 392.664062 413 L 422.332031 413 L 398.332031 430.4375 L 406.417969 461.980469 L 380.664062 444.542969 L 354.914062 461.980469 L 367.214844 430.4375 L 339 413 "/>
<path style="fill-rule:nonzero;fill:rgb(35%,70%,90%);fill-opacity:1;stroke-width:1;stroke-linecap:butt;stroke-linejoin:miter;stroke:rgb(0%,0%,0%);stroke-opacity:1;stroke-miterlimit:10;" d="M 968 353 L 997.664062 353 L 1009.664062 324.785156 L 1021.664062 353 L 1051.332031 353 L 1027.332031 370.4375 L 1035.417969 401.980469 L 1009.664062 384.542969 L 983.914062 401.980469 L 996.214844 370.4375 L 968 353 "/>
<path style="fill-rule:nonzero;fill:rgb(35%,70%,90%);fill-opacity:1;stroke-width:1;stroke-linecap:butt;stroke-linejoin:miter;stroke:rgb(0%,0%,0%);stroke-opacity:1;stroke-miterlimit:10;" d="M 65 315 L 94.664062 315 L 106.664062 286.785156 L 118.664062 315 L 148.332031 315 L 124.332031 332.4375 L 132.417969 363.980469 L 106.664062 346.542969 L 80.914062 363.980469 L 93.214844 332.4375 L 65 315 "/>
<path style="fill-rule:nonzero;fill:rgb(35%,70%,90%);fill-opacity:1;stroke-width:1;stroke-linecap:butt;stroke-linejoin:miter;stroke:rgb(0%,0%,0%);stroke-opacity:1;stroke-miterlimit:10;" d="M 412 209 L 441.664062 209 L 453.664062 180.785156 L 465.664062 209 L 495.332031 209 L 471.332031 226.4375 L 479.417969 257.980469 L 453.664062 240.542969 L 427.914062 257.980469 L 440.214844 226.4375 L 412 209 "/>
<path style="fill-rule:nonzero;fill:rgb(35%,70%,90%);fill-opacity:1;stroke-width:1;stroke-linecap:butt;stroke-linejoin:miter;stroke:rgb(0%,0%,0%);stroke-opacity:1;stroke-miterlimit:10;" d="M 643 174 L 672.664062 174 L 684.664062 145.785156 L 696.664062 174 L 726.332031 174 L 702.332031 191.4375 L 710.417969 222.980469 L 684.664062 205.542969 L 658.914062 222.980469 L 671.214844 191.4375 L 643 174 "/>
<path style="fill-rule:nonzero;fill:rgb(100%,51%,0%);fill-opacity:1;stroke-width:1;stroke-linecap:butt;stroke-linejoin:miter;stroke:rgb(0%,0%,0%);stroke-opacity:1;stroke-miterlimit:10;" d="M 463 324 L 437.019531 369 L 488.980469 369 L 463 324 "/>
<path style="fill-rule:nonzero;fill:rgb(100%,51%,0%);fill-opacity:1;stroke-width:1;stroke-linecap:butt;stroke-linejoin:miter;stroke:rgb(0%,0%,0%);stroke-opacity:1;stroke-miterlimit:10;" d="M 156 357 L 130.019531 402 L 181.980469 402 L 156 357 "/>
<path style="fill-rule:nonzero;fill:rgb(100%,51%,0%);fill-opacity:1;stroke-width:1;stroke-linecap:butt;stroke-linejoin:miter;stroke:rgb(0%,0%,0%);stroke-opacity:1;stroke-miterlimit:10;" d="M 743 314 L 717.019531 359 L 768.980469 359 L 743 314 "/>
<path style="fill-rule:nonzero;fill:rgb(100%,51%,0%);fill-opacity:1;stroke-width:1;stroke-linecap:butt;stroke-linejoin:miter;stroke:rgb(0%,0%,0%);stroke-opacity:1;stroke-miterlimit:10;" d="M 872 60 L 846.019531 105 L 897.980469 105 L 872 60 "/>
<path style="fill-rule:nonzero;fill:rgb(100%,51%,0%);fill-opacity:1;stroke-width:1;stroke-linecap:butt;stroke-linejoin:miter;stroke:rgb(0%,0%,0%);stroke-opacity:1;stroke-miterlimit:10;" d="M 207 166 L 181.019531 211 L 232.980469 211 L 207 166 "/>
<path style="fill-rule:nonzero;fill:rgb(100%,51%,0%);fill-opacity:1;stroke-width:1;stroke-linecap:butt;stroke-linejoin:miter;stroke:rgb(0%,0%,0%);stroke-opacity:1;stroke-miterlimit:10;" d="M 292 62 L 266.019531 107 L 317.980469 107 L 292 62 "/>
</g>
</svg>
