<?xml version="1.0" encoding="UTF-8"?>
<svg xmlns="http://www.w3.org/2000/svg" xmlns:xlink="http://www.w3.org/1999/xlink" width="1179pt" height="517pt" viewBox="0 0 1179 517" version="1.1">
<g id="surface956">
<rect x="0" y="0" width="1179" height="517" style="fill:rgb(90%,90%,90%);fill-opacity:1;stroke:none;"/>
<path style="fill-rule:nonzero;fill:rgb(55%,51%,53%);fill-opacity:1;stroke-width:1;stroke-linecap:butt;stroke-linejoin:miter;stroke:rgb(0%,0%,0%);stroke-opacity:1;stroke-miterlimit:10;" d="M 365.214844 93 C 365.214844 104.714844 355.714844 114.214844 344 114.214844 C 332.285156 114.214844 322.785156 104.714844 322.785156 93 C 322.785156 81.285156 332.285156 71.785156 344 71.785156 C 355.714844 71.785156 365.214844 81.285156 365.214844 93 "/>
<path style="fill-rule:nonzero;fill:rgb(55%,51%,53%);fill-opacity:1;stroke-width:1;stroke-linecap:butt;stroke-linejoin:miter;stroke:rgb(0%,0%,0%);stroke-opacity:1;stroke-miterlimit:10;" d="M 166.214844 351 C 166.214844 362.714844 156.714844 372.214844 145 372.214844 C 133.285156 372.214844 123.785156 362.714844 123.785156 351 C 123.785156 339.285156 133.285156 329.785156 145 329.785156 C 156.714844 329.785156 166.214844 339.285156 166.214844 351 "/>
<path style="fill-rule:nonzero;fill:rgb(55%,51%,53%);fill-opacity:1;stroke-width:1;stroke-linecap:butt;stroke-linejoin:miter;stroke:rgb(0%,0%,0%);stroke-opacity:1;stroke-miterlimit:10;" d="M 445.214844 285 C 445.214844 296.714844 435.714844 306.214844 424 306.214844 C 412.285156 306.214844 402.785156 296.714844 402.785156 285 C 402.785156 273.285156 412.285156 263.785156 424 263.785156 C 435.714844 263.785156 445.214844 273.285156 445.214844 285 "/>
<path style="fill-rule:nonzero;fill:rgb(35%,70%,90%);fill-opacity:1;stroke-width:1;stroke-linecap:butt;stroke-linejoin:miter;stroke:rgb(0%,0%,0%);stroke-opacity:1;stroke-miterlimit:10;" d="M 372 363 L 401.664062 363 L 413.664062 334.785156 L 425.664062 363 L 455.332031 363 L 431.332031 380.4375 L 439.417969 411.980469 L 413.664062 394.542969 L 387.914062 411.980469 L 400.214844 380.4375 L 372 363 "/>
<path style="fill-rule:nonzero;fill:rgb(55%,51%,53%);fill-opacity:1;stroke-width:1;stroke-linecap:butt;stroke-linejoin:miter;stroke:rgb(0%,0%,0%);stroke-opacity:1;stroke-miterlimit:10;" d="M 446.214844 175 C 446.214844 186.714844 436.714844 196.214844 425 196.214844 C 413.285156 196.214844 403.785156 186.714844 403.785156 175 C 403.785156 163.285156 413.285156 153.785156 425 153.785156 C 436.714844 153.785156 446.214844 163.285156 446.214844 175 "/>
<path style="fill-rule:nonzero;fill:rgb(35%,70%,90%);fill-opacity:1;stroke-width:1;stroke-linecap:butt;stroke-linejoin:miter;stroke:rgb(0%,0%,0%);stroke-opacity:1;stroke-miterlimit:10;" d="M 159 127 L 188.664062 127 L 200.664062 98.785156 L 212.664062 127 L 242.332031 127 L 218.332031 144.4375 L 226.417969 175.980469 L 200.664062 158.542969 L 174.914062 175.980469 L 187.214844 144.4375 L 159 127 "/>
<path style="fill-rule:nonzero;fill:rgb(55%,51%,53%);fill-opacity:1;stroke-width:1;stroke-linecap:butt;stroke-linejoin:miter;stroke:rgb(0%,0%,0%);stroke-opacity:1;stroke-miterlimit:10;" d="M 879.214844 281 C 879.214844 292.714844 869.714844 302.214844 858 302.214844 C 846.285156 302.214844 836.785156 292.714844 836.785156 281 C 836.785156 269.285156 846.285156 259.785156 858 259.785156 C 869.714844 259.785156 879.214844 269.285156 879.214844 281 "/>
<path style="fill-rule:nonzero;fill:rgb(35%,70%,90%);fill-opacity:1;stroke-width:1;stroke-linecap:butt;stroke-linejoin:miter;stroke:rgb(0%,0%,0%);stroke-opacity:1;stroke-miterlimit:10;" d="M 971 383 L 1000.664062 383 L 1012.664062 354.785156 L 1024.664062 383 L 1054.332031 383 L 1030.332031 400.4375 L 1038.417969 431.980469 L 1012.664062 414.542969 L 986.914062 431.980469 L 999.214844 400.4375 L 971 383 "/>
<path style="fill-rule:nonzero;fill:rgb(35%,70%,90%);fill-opacity:1;stroke-width:1;stroke-linecap:butt;stroke-linejoin:miter;stroke:rgb(0%,0%,0%);stroke-opacity:1;stroke-miterlimit:10;" d="M 705 142 L 734.664062 142 L 746.664062 113.785156 L 758.664062 142 L 788.332031 142 L 764.332031 159.4375 L 772.417969 190.980469 L 746.664062 173.542969 L 720.914062 190.980469 L 733.214844 159.4375 L 705 142 "/>
<path style="fill-rule:nonzero;fill:rgb(55%,51%,53%);fill-opacity:1;stroke-width:1;stroke-linecap:butt;stroke-linejoin:miter;stroke:rgb(0%,0%,0%);stroke-opacity:1;stroke-miterlimit:10;" d="M 805.214844 202 C 805.214844 213.714844 795.714844 223.214844 784 223.214844 C 772.285156 223.214844 762.785156 213.714844 762.785156 202 C 762.785156 190.285156 772.285156 180.785156 784 180.785156 C 795.714844 180.785156 805.214844 190.285156 805.214844 202 "/>
<path style="fill-rule:nonzero;fill:rgb(35%,70%,90%);fill-opacity:1;stroke-width:1;stroke-linecap:butt;stroke-linejoin:miter;stroke:rgb(0%,0%,0%);stroke-opacity:1;stroke-miterlimit:10;" d="M 894 107 L 923.664062 107 L 935.664062 78.785156 L 947.664062 107 L 977.332031 107 L 953.332031 124.4375 L 961.417969 155.980469 L 935.664062 138.542969 L 909.914062 155.980469 L 922.214844 124.4375 L 894 107 "/>
<path style="fill-rule:nonzero;fill:rgb(55%,51%,53%);fill-opacity:1;stroke-width:1;stroke-linecap:butt;stroke-linejoin:miter;stroke:rgb(0%,0%,0%);stroke-opacity:1;stroke-miterlimit:10;" d="M 882.214844 421 C 882.214844 432.714844 872.714844 442.214844 861 442.214844 C 849.285156 442.214844 839.785156 432.714844 839.785156 421 C 839.785156 409.285156 849.285156 399.785156 861 399.785156 C 872.714844 399.785156 882.214844 409.285156 882.214844 421 "/>
<path style="fill-rule:nonzero;fill:rgb(35%,70%,90%);fill-opacity:1;stroke-width:1;stroke-linecap:butt;stroke-linejoin:miter;stroke:rgb(0%,0%,0%);stroke-opacity:1;stroke-miterlimit:10;" d="M 1014 107 L 1043.664062 107 L 1055.664062 78.785156 L 1067.664062 107 L 1097.332031 107 L 1073.332031 124.4375 L 1081.417969 155.980469 L 1055.664062 138.542969 L 1029.914062 155.980469 L 1042.214844 124.4375 L 1014 107 "/>
<path style="fill-rule:nonzero;fill:rgb(35%,70%,90%);fill-opacity:1;stroke-width:1;stroke-linecap:butt;stroke-linejoin:miter;stroke:rgb(0%,0%,0%);stroke-opacity:1;stroke-miterlimit:10;" d="M 965 189 L 994.664062 189 L 1006.664062 160.785156 L 1018.664062 189 L 1048.332031 189 L 1024.332031 206.4375 L 1032.417969 237.980469 L 1006.664062 220.542969 L 980.914062 237.980469 L 993.214844 206.4375 L 965 189 "/>
</g>
</svg>
