<?xml version="1.0" encoding="UTF-8"?>
<svg xmlns="http://www.w3.org/2000/svg" xmlns:xlink="http://www.w3.org/1999/xlink" width="1129pt" height="517pt" viewBox="0 0 1129 517" version="1.1">
<g id="surface421">
<rect x="0" y="0" width="1129" height="517" style="fill:rgb(90%,90%,90%);fill-opacity:1;stroke:none;"/>
<path style="fill-rule:nonzero;fill:rgb(35%,70%,90%);fill-opacity:1;stroke-width:1;stroke-linecap:butt;stroke-linejoin:miter;stroke:rgb(0%,0%,0%);stroke-opacity:1;stroke-miterlimit:10;" d="M 767 327 L 796.664062 327 L 808.664062 298.785156 L 820.664062 327 L 850.332031 327 L 826.332031 344.4375 L 834.417969 375.980469 L 808.664062 358.542969 L 782.914062 375.980469 L 795.214844 344.4375 L 767 327 "/>
<path style="fill-rule:nonzero;fill:rgb(35%,70%,90%);fill-opacity:1;stroke-width:1;stroke-linecap:butt;stroke-linejoin:miter;stroke:rgb(0%,0%,0%);stroke-opacity:1;stroke-miterlimit:10;" d="M 932 327 L 961.664062 327 L 973.664062 298.785156 L 985.664062 327 L 1015.332031 327 L 991.332031 344.4375 L 999.417969 375.980469 L 973.664062 358.542969 L 947.914062 375.980469 L 960.214844 344.4375 L 932 327 "/>
<path style="fill-rule:nonzero;fill:rgb(35%,70%,90%);fill-opacity:1;stroke-width:1;stroke-linecap:butt;stroke-linejoin:miter;stroke:rgb(0%,0%,0%);stroke-opacity:1;stroke-miterlimit:10;" d="M 461 263 L 490.664062 263 L 502.664062 234.785156 L 514.664062 263 L 544.332031 263 L 520.332031 280.4375 L 528.417969 311.980469 L 502.664062 294.542969 L 476.914062 311.980469 L 489.214844 280.4375 L 461 263 "/>
<path style="fill-rule:nonzero;fill:rgb(35%,70%,90%);fill-opacity:1;stroke-width:1;stroke-linecap:butt;stroke-linejoin:miter;stroke:rgb(0%,0%,0%);stroke-opacity:1;stroke-miterlimit:10;" d="M 290 153 L 319.664062 153 L 331.664062 124.785156 L 343.664062 153 L 373.332031 153 L 349.332031 170.4375 L 357.417969 201.980469 L 331.664062 184.542969 L 305.914062 201.980469 L 318.214844 170.4375 L 290 153 "/>
<path style="fill-rule:nonzero;fill:rgb(35%,70%,90%);fill-opacity:1;stroke-width:1;stroke-linecap:butt;stroke-linejoin:miter;stroke:rgb(0%,0%,0%);stroke-opacity:1;stroke-miterlimit:10;" d="M 697 213 L 726.664062 213 L 738.664062 184.785156 L 750.664062 213 L 780.332031 213 L 756.332031 230.4375 L 764.417969 261.980469 L 738.664062 244.542969 L 712.914062 261.980469 L 725.214844 230.4375 L 697 213 "/>
<path style="fill-rule:nonzero;fill:rgb(35%,70%,90%);fill-opacity:1;stroke-width:1;stroke-linecap:butt;stroke-linejoin:miter;stroke:rgb(0%,0%,0%);stroke-opacity:1;stroke-miterlimit:10;" d="M 349 70 L 378.664062 70 L 390.664062 41.785156 L 402.664062 70 L 432.332031 70 L 408.332031 87.4375 L 416.417969 118.980469 L 390.664062 101.542969 L 364.914062 118.980469 L 377.214844 87.4375 L 349 70 "/>
<path style="fill-rule:nonzero;fill:rgb(55%,51%,53%);fill-opacity:1;stroke-width:1;stroke-linecap:butt;stroke-linejoin:miter;stroke:rgb(0%,0%,0%);stroke-opacity:1;stroke-miterlimit:10;" d="M 725.214844 82 C 725.214844 93.714844 715.714844 103.214844 704 103.214844 C 692.285156 103.214844 682.785156 93.714844 682.785156 82 C 682.785156 70.285156 692.285156 60.785156 704 60.785156 C 715.714844 60.785156 725.214844 70.285156 725.214844 82 "/>
<path style="fill-rule:nonzero;fill:rgb(55%,51%,53%);fill-opacity:1;stroke-width:1;stroke-linecap:butt;stroke-linejoin:miter;stroke:rgb(0%,0%,0%);stroke-opacity:1;stroke-miterlimit:10;" d="M 842.214844 233 C 842.214844 244.714844 832.714844 254.214844 821 254.214844 C 809.285156 254.214844 799.785156 244.714844 799.785156 233 C 799.785156 221.285156 809.285156 211.785156 821 211.785156 C 832.714844 211.785156 842.214844 221.285156 842.214844 233 "/>
<path style="fill-rule:nonzero;fill:rgb(55%,51%,53%);fill-opacity:1;stroke-width:1;stroke-linecap:butt;stroke-linejoin:miter;stroke:rgb(0%,0%,0%);stroke-opacity:1;stroke-miterlimit:10;" d="M 341.214844 399 C 341.214844 410.714844 331.714844 420.214844 320 420.214844 C 308.285156 420.214844 298.785156 410.714844 298.785156 399 C 298.785156 387.285156 308.285156 377.785156 320 377.785156 C 331.714844 377.785156 341.214844 387.285156 341.214844 399 "/>
<path style="fill-rule:nonzero;fill:rgb(55%,51%,53%);fill-opacity:1;stroke-width:1;stroke-linecap:butt;stroke-linejoin:miter;stroke:rgb(0%,0%,0%);stroke-opacity:1;stroke-miterlimit:10;" d="M 162.214844 451 C 162.214844 462.714844 152.714844 472.214844 141 472.214844 C 129.285156 472.214844 119.785156 462.714844 119.785156 451 C 119.785156 439.285156 129.285156 429.785156 141 429.785156 C 152.714844 429.785156 162.214844 439.285156 162.214844 451 "/>
<path style="fill-rule:nonzero;fill:rgb(55%,51%,53%);fill-opacity:1;stroke-width:1;stroke-linecap:butt;stroke-linejoin:miter;stroke:rgb(0%,0%,0%);stroke-opacity:1;stroke-miterlimit:10;" d="M 891.214844 415 C 891.214844 426.714844 881.714844 436.214844 870 436.214844 C 858.285156 436.214844 848.785156 426.714844 848.785156 415 C 848.785156 403.285156 858.285156 393.785156 870 393.785156 C 881.714844 393.785156 891.214844 403.285156 891.214844 415 "/>
<path style="fill-rule:nonzero;fill:rgb(55%,51%,53%);fill-opacity:1;stroke-width:1;stroke-linecap:butt;stroke-linejoin:miter;stroke:rgb(0%,0%,0%);stroke-opacity:1;stroke-miterlimit:10;" d="M 881.214844 127 C 881.214844 138.714844 871.714844 148.214844 860 148.214844 C 848.285156 148.214844 838.785156 138.714844 838.785156 127 C 838.785156 115.285156 848.285156 105.785156 860 105.785156 C 871.714844 105.785156 881.214844 115.285156 881.214844 127 "/>
<path style="fill-rule:nonzero;fill:rgb(55%,51%,53%);fill-opacity:1;stroke-width:1;stroke-linecap:butt;stroke-linejoin:miter;stroke:rgb(0%,0%,0%);stroke-opacity:1;stroke-miterlimit:10;" d="M 426.214844 189 C 426.214844 200.714844 416.714844 210.214844 405 210.214844 C 393.285156 210.214844 383.785156 200.714844 383.785156 189 C 383.785156 177.285156 393.285156 167.785156 405 167.785156 C 416.714844 167.785156 426.214844 177.285156 426.214844 189 "/>
</g>
</svg>
