<?xml version="1.0" encoding="UTF-8"?>
<svg xmlns="http://www.w3.org/2000/svg" xmlns:xlink="http://www.w3.org/1999/xlink" width="1179pt" height="517pt" viewBox="0 0 1179 517" version="1.1">
<g id="surface911">
<rect x="0" y="0" width="1179" height="517" style="fill:rgb(90%,90%,90%);fill-opacity:1;stroke:none;"/>
<path style="fill-rule:nonzero;fill:rgb(55%,51%,53%);fill-opacity:1;stroke-width:1;stroke-linecap:butt;stroke-linejoin:miter;stroke:rgb(0%,0%,0%);stroke-opacity:1;stroke-miterlimit:10;" d="M 327.214844 355 C 327.214844 366.714844 317.714844 376.214844 306 376.214844 C 294.285156 376.214844 284.785156 366.714844 284.785156 355 C 284.785156 343.285156 294.285156 333.785156 306 333.785156 C 317.714844 333.785156 327.214844 343.285156 327.214844 355 "/>
<path style="fill-rule:nonzero;fill:rgb(35%,70%,90%);fill-opacity:1;stroke-width:1;stroke-linecap:butt;stroke-linejoin:miter;stroke:rgb(0%,0%,0%);stroke-opacity:1;stroke-miterlimit:10;" d="M 340 121 L 369.664062 121 L 381.664062 92.785156 L 393.664062 121 L 423.332031 121 L 399.332031 138.4375 L 407.417969 169.980469 L 381.664062 152.542969 L 355.914062 169.980469 L 368.214844 138.4375 L 340 121 "/>
<path style="fill-rule:nonzero;fill:rgb(35%,70%,90%);fill-opacity:1;stroke-width:1;stroke-linecap:butt;stroke-linejoin:miter;stroke:rgb(0%,0%,0%);stroke-opacity:1;stroke-miterlimit:10;" d="M 106 321 L 135.664062 321 L 147.664062 292.785156 L 159.664062 321 L 189.332031 321 L 165.332031 338.4375 L 173.417969 369.980469 L 147.664062 352.542969 L 121.914062 369.980469 L 134.214844 338.4375 L 106 321 "/>
<path style="fill-rule:nonzero;fill:rgb(55%,51%,53%);fill-opacity:1;stroke-width:1;stroke-linecap:butt;stroke-linejoin:miter;stroke:rgb(0%,0%,0%);stroke-opacity:1;stroke-miterlimit:10;" d="M 360.214844 264 C 360.214844 275.714844 350.714844 285.214844 339 285.214844 C 327.285156 285.214844 317.785156 275.714844 317.785156 264 C 317.785156 252.285156 327.285156 242.785156 339 242.785156 C 350.714844 242.785156 360.214844 252.285156 360.214844 264 "/>
<path style="fill-rule:nonzero;fill:rgb(35%,70%,90%);fill-opacity:1;stroke-width:1;stroke-linecap:butt;stroke-linejoin:miter;stroke:rgb(0%,0%,0%);stroke-opacity:1;stroke-miterlimit:10;" d="M 103 173 L 132.664062 173 L 144.664062 144.785156 L 156.664062 173 L 186.332031 173 L 162.332031 190.4375 L 170.417969 221.980469 L 144.664062 204.542969 L 118.914062 221.980469 L 131.214844 190.4375 L 103 173 "/>
<path style="fill-rule:nonzero;fill:rgb(35%,70%,90%);fill-opacity:1;stroke-width:1;stroke-linecap:butt;stroke-linejoin:miter;stroke:rgb(0%,0%,0%);stroke-opacity:1;stroke-miterlimit:10;" d="M 183 388 L 212.664062 388 L 224.664062 359.785156 L 236.664062 388 L 266.332031 388 L 242.332031 405.4375 L 250.417969 436.980469 L 224.664062 419.542969 L 198.914062 436.980469 L 211.214844 405.4375 L 183 388 "/>
<path style="fill-rule:nonzero;fill:rgb(35%,70%,90%);fill-opacity:1;stroke-width:1;stroke-linecap:butt;stroke-linejoin:miter;stroke:rgb(0%,0%,0%);stroke-opacity:1;stroke-miterlimit:10;" d="M 798 252 L 827.664062 252 L 839.664062 223.785156 L 851.664062 252 L 881.332031 252 L 857.332031 269.4375 L 865.417969 300.980469 L 839.664062 283.542969 L 813.914062 300.980469 L 826.214844 269.4375 L 798 252 "/>
<path style="fill-rule:nonzero;fill:rgb(55%,51%,53%);fill-opacity:1;stroke-width:1;stroke-linecap:butt;stroke-linejoin:miter;stroke:rgb(0%,0%,0%);stroke-opacity:1;stroke-miterlimit:10;" d="M 983.214844 226 C 983.214844 237.714844 973.714844 247.214844 962 247.214844 C 950.285156 247.214844 940.785156 237.714844 940.785156 226 C 940.785156 214.285156 950.285156 204.785156 962 204.785156 C 973.714844 204.785156 983.214844 214.285156 983.214844 226 "/>
<path style="fill-rule:nonzero;fill:rgb(55%,51%,53%);fill-opacity:1;stroke-width:1;stroke-linecap:butt;stroke-linejoin:miter;stroke:rgb(0%,0%,0%);stroke-opacity:1;stroke-miterlimit:10;" d="M 752.214844 83 C 752.214844 94.714844 742.714844 104.214844 731 104.214844 C 719.285156 104.214844 709.785156 94.714844 709.785156 83 C 709.785156 71.285156 719.285156 61.785156 731 61.785156 C 742.714844 61.785156 752.214844 71.285156 752.214844 83 "/>
<path style="fill-rule:nonzero;fill:rgb(35%,70%,90%);fill-opacity:1;stroke-width:1;stroke-linecap:butt;stroke-linejoin:miter;stroke:rgb(0%,0%,0%);stroke-opacity:1;stroke-miterlimit:10;" d="M 1001 330 L 1030.664062 330 L 1042.664062 301.785156 L 1054.664062 330 L 1084.332031 330 L 1060.332031 347.4375 L 1068.417969 378.980469 L 1042.664062 361.542969 L 1016.914062 378.980469 L 1029.214844 347.4375 L 1001 330 "/>
<path style="fill-rule:nonzero;fill:rgb(35%,70%,90%);fill-opacity:1;stroke-width:1;stroke-linecap:butt;stroke-linejoin:miter;stroke:rgb(0%,0%,0%);stroke-opacity:1;stroke-miterlimit:10;" d="M 725 392 L 754.664062 392 L 766.664062 363.785156 L 778.664062 392 L 808.332031 392 L 784.332031 409.4375 L 792.417969 440.980469 L 766.664062 423.542969 L 740.914062 440.980469 L 753.214844 409.4375 L 725 392 "/>
<path style="fill-rule:nonzero;fill:rgb(35%,70%,90%);fill-opacity:1;stroke-width:1;stroke-linecap:butt;stroke-linejoin:miter;stroke:rgb(0%,0%,0%);stroke-opacity:1;stroke-miterlimit:10;" d="M 879 101 L 908.664062 101 L 920.664062 72.785156 L 932.664062 101 L 962.332031 101 L 938.332031 118.4375 L 946.417969 149.980469 L 920.664062 132.542969 L 894.914062 149.980469 L 907.214844 118.4375 L 879 101 "/>
<path style="fill-rule:nonzero;fill:rgb(55%,51%,53%);fill-opacity:1;stroke-width:1;stroke-linecap:butt;stroke-linejoin:miter;stroke:rgb(0%,0%,0%);stroke-opacity:1;stroke-miterlimit:10;" d="M 1034.214844 427 C 1034.214844 438.714844 1024.714844 448.214844 1013 448.214844 C 1001.285156 448.214844 991.785156 438.714844 991.785156 427 C 991.785156 415.285156 1001.285156 405.785156 1013 405.785156 C 1024.714844 405.785156 1034.214844 415.285156 1034.214844 427 "/>
<path style="fill-rule:nonzero;fill:rgb(55%,51%,53%);fill-opacity:1;stroke-width:1;stroke-linecap:butt;stroke-linejoin:miter;stroke:rgb(0%,0%,0%);stroke-opacity:1;stroke-miterlimit:10;" d="M 907.214844 301 C 907.214844 312.714844 897.714844 322.214844 886 322.214844 C 874.285156 322.214844 864.785156 312.714844 864.785156 301 C 864.785156 289.285156 874.285156 279.785156 886 279.785156 C 897.714844 279.785156 907.214844 289.285156 907.214844 301 "/>
</g>
</svg>
