<?xml version="1.0" encoding="UTF-8"?>
<svg xmlns="http://www.w3.org/2000/svg" xmlns:xlink="http://www.w3.org/1999/xlink" width="1179pt" height="517pt" viewBox="0 0 1179 517" version="1.1">
<g id="surface971">
<rect x="0" y="0" width="1179" height="517" style="fill:rgb(90%,90%,90%);fill-opacity:1;stroke:none;"/>
<path style="fill-rule:nonzero;fill:rgb(35%,70%,90%);fill-opacity:1;stroke-width:1;stroke-linecap:butt;stroke-linejoin:miter;stroke:rgb(0%,0%,0%);stroke-opacity:1;stroke-miterlimit:10;" d="M 135 341 L 164.664062 341 L 176.664062 312.785156 L 188.664062 341 L 218.332031 341 L 194.332031 358.4375 L 202.417969 389.980469 L 176.664062 372.542969 L 150.914062 389.980469 L 163.214844 358.4375 L 135 341 "/>
<path style="fill-rule:nonzero;fill:rgb(35%,70%,90%);fill-opacity:1;stroke-width:1;stroke-linecap:butt;stroke-linejoin:miter;stroke:rgb(0%,0%,0%);stroke-opacity:1;stroke-miterlimit:10;" d="M 246 220 L 275.664062 220 L 287.664062 191.785156 L 299.664062 220 L 329.332031 220 L 305.332031 237.4375 L 313.417969 268.980469 L 287.664062 251.542969 L 261.914062 268.980469 L 274.214844 237.4375 L 246 220 "/>
<path style="fill-rule:nonzero;fill:rgb(35%,70%,90%);fill-opacity:1;stroke-width:1;stroke-linecap:butt;stroke-linejoin:miter;stroke:rgb(0%,0%,0%);stroke-opacity:1;stroke-miterlimit:10;" d="M 399.214844 85 C 399.214844 96.714844 389.714844 106.214844 378 106.214844 C 366.285156 106.214844 356.785156 96.714844 356.785156 85 C 356.785156 73.285156 366.285156 63.785156 378 63.785156 C 389.714844 63.785156 399.214844 73.285156 399.214844 85 "/>
<path style="fill-rule:nonzero;fill:rgb(35%,70%,90%);fill-opacity:1;stroke-width:1;stroke-linecap:butt;stroke-linejoin:miter;stroke:rgb(0%,0%,0%);stroke-opacity:1;stroke-miterlimit:10;" d="M 269 80 L 298.664062 80 L 310.664062 51.785156 L 322.664062 80 L 352.332031 80 L 328.332031 97.4375 L 336.417969 128.980469 L 310.664062 111.542969 L 284.914062 128.980469 L 297.214844 97.4375 L 269 80 "/>
<path style="fill-rule:nonzero;fill:rgb(35%,70%,90%);fill-opacity:1;stroke-width:1;stroke-linecap:butt;stroke-linejoin:miter;stroke:rgb(0%,0%,0%);stroke-opacity:1;stroke-miterlimit:10;" d="M 405 307 L 434.664062 307 L 446.664062 278.785156 L 458.664062 307 L 488.332031 307 L 464.332031 324.4375 L 472.417969 355.980469 L 446.664062 338.542969 L 420.914062 355.980469 L 433.214844 324.4375 L 405 307 "/>
<path style="fill-rule:nonzero;fill:rgb(35%,70%,90%);fill-opacity:1;stroke-width:1;stroke-linecap:butt;stroke-linejoin:miter;stroke:rgb(0%,0%,0%);stroke-opacity:1;stroke-miterlimit:10;" d="M 290 371 L 319.664062 371 L 331.664062 342.785156 L 343.664062 371 L 373.332031 371 L 349.332031 388.4375 L 357.417969 419.980469 L 331.664062 402.542969 L 305.914062 419.980469 L 318.214844 388.4375 L 290 371 "/>
<path style="fill-rule:nonzero;fill:rgb(35%,70%,90%);fill-opacity:1;stroke-width:1;stroke-linecap:butt;stroke-linejoin:miter;stroke:rgb(0%,0%,0%);stroke-opacity:1;stroke-miterlimit:10;" d="M 1020.214844 157 C 1020.214844 168.714844 1010.714844 178.214844 999 178.214844 C 987.285156 178.214844 977.785156 168.714844 977.785156 157 C 977.785156 145.285156 987.285156 135.785156 999 135.785156 C 1010.714844 135.785156 1020.214844 145.285156 1020.214844 157 "/>
<path style="fill-rule:nonzero;fill:rgb(35%,70%,90%);fill-opacity:1;stroke-width:1;stroke-linecap:butt;stroke-linejoin:miter;stroke:rgb(0%,0%,0%);stroke-opacity:1;stroke-miterlimit:10;" d="M 936.214844 237 C 936.214844 248.714844 926.714844 258.214844 915 258.214844 C 903.285156 258.214844 893.785156 248.714844 893.785156 237 C 893.785156 225.285156 903.285156 215.785156 915 215.785156 C 926.714844 215.785156 936.214844 225.285156 936.214844 237 "/>
<path style="fill-rule:nonzero;fill:rgb(35%,70%,90%);fill-opacity:1;stroke-width:1;stroke-linecap:butt;stroke-linejoin:miter;stroke:rgb(0%,0%,0%);stroke-opacity:1;stroke-miterlimit:10;" d="M 836 181 L 865.664062 181 L 877.664062 152.785156 L 889.664062 181 L 919.332031 181 L 895.332031 198.4375 L 903.417969 229.980469 L 877.664062 212.542969 L 851.914062 229.980469 L 864.214844 198.4375 L 836 181 "/>
<path style="fill-rule:nonzero;fill:rgb(35%,70%,90%);fill-opacity:1;stroke-width:1;stroke-linecap:butt;stroke-linejoin:miter;stroke:rgb(0%,0%,0%);stroke-opacity:1;stroke-miterlimit:10;" d="M 1003.214844 422 C 1003.214844 433.714844 993.714844 443.214844 982 443.214844 C 970.285156 443.214844 960.785156 433.714844 960.785156 422 C 960.785156 410.285156 970.285156 400.785156 982 400.785156 C 993.714844 400.785156 1003.214844 410.285156 1003.214844 422 "/>
<path style="fill-rule:nonzero;fill:rgb(35%,70%,90%);fill-opacity:1;stroke-width:1;stroke-linecap:butt;stroke-linejoin:miter;stroke:rgb(0%,0%,0%);stroke-opacity:1;stroke-miterlimit:10;" d="M 846.214844 286 C 846.214844 297.714844 836.714844 307.214844 825 307.214844 C 813.285156 307.214844 803.785156 297.714844 803.785156 286 C 803.785156 274.285156 813.285156 264.785156 825 264.785156 C 836.714844 264.785156 846.214844 274.285156 846.214844 286 "/>
</g>
</svg>
