<?xml version="1.0" encoding="UTF-8"?>
<svg xmlns="http://www.w3.org/2000/svg" xmlns:xlink="http://www.w3.org/1999/xlink" width="1129pt" height="517pt" viewBox="0 0 1129 517" version="1.1">
<g id="surface151">
<rect x="0" y="0" width="1129" height="517" style="fill:rgb(90%,90%,90%);fill-opacity:1;stroke:none;"/>
<path style="fill-rule:nonzero;fill:rgb(55%,51%,53%);fill-opacity:1;stroke-width:1;stroke-linecap:butt;stroke-linejoin:miter;stroke:rgb(0%,0%,0%);stroke-opacity:1;stroke-miterlimit:10;" d="M 783 226 L 812.664062 226 L 824.664062 197.785156 L 836.664062 226 L 866.332031 226 L 842.332031 243.4375 L 850.417969 274.980469 L 824.664062 257.542969 L 798.914062 274.980469 L 811.214844 243.4375 L 783 226 "/>
<path style="fill-rule:nonzero;fill:rgb(55%,51%,53%);fill-opacity:1;stroke-width:1;stroke-linecap:butt;stroke-linejoin:miter;stroke:rgb(0%,0%,0%);stroke-opacity:1;stroke-miterlimit:10;" d="M 339 255 L 368.664062 255 L 380.664062 226.785156 L 392.664062 255 L 422.332031 255 L 398.332031 272.4375 L 406.417969 303.980469 L 380.664062 286.542969 L 354.914062 303.980469 L 367.214844 272.4375 L 339 255 "/>
<path style="fill-rule:nonzero;fill:rgb(55%,51%,53%);fill-opacity:1;stroke-width:1;stroke-linecap:butt;stroke-linejoin:miter;stroke:rgb(0%,0%,0%);stroke-opacity:1;stroke-miterlimit:10;" d="M 939 122 L 968.664062 122 L 980.664062 93.785156 L 992.664062 122 L 1022.332031 122 L 998.332031 139.4375 L 1006.417969 170.980469 L 980.664062 153.542969 L 954.914062 170.980469 L 967.214844 139.4375 L 939 122 "/>
<path style="fill-rule:nonzero;fill:rgb(55%,51%,53%);fill-opacity:1;stroke-width:1;stroke-linecap:butt;stroke-linejoin:miter;stroke:rgb(0%,0%,0%);stroke-opacity:1;stroke-miterlimit:10;" d="M 830 424 L 859.664062 424 L 871.664062 395.785156 L 883.664062 424 L 913.332031 424 L 889.332031 441.4375 L 897.417969 472.980469 L 871.664062 455.542969 L 845.914062 472.980469 L 858.214844 441.4375 L 830 424 "/>
<path style="fill-rule:nonzero;fill:rgb(55%,51%,53%);fill-opacity:1;stroke-width:1;stroke-linecap:butt;stroke-linejoin:miter;stroke:rgb(0%,0%,0%);stroke-opacity:1;stroke-miterlimit:10;" d="M 178 319 L 207.664062 319 L 219.664062 290.785156 L 231.664062 319 L 261.332031 319 L 237.332031 336.4375 L 245.417969 367.980469 L 219.664062 350.542969 L 193.914062 367.980469 L 206.214844 336.4375 L 178 319 "/>
<path style="fill-rule:nonzero;fill:rgb(55%,51%,53%);fill-opacity:1;stroke-width:1;stroke-linecap:butt;stroke-linejoin:miter;stroke:rgb(0%,0%,0%);stroke-opacity:1;stroke-miterlimit:10;" d="M 687 456 L 716.664062 456 L 728.664062 427.785156 L 740.664062 456 L 770.332031 456 L 746.332031 473.4375 L 754.417969 504.980469 L 728.664062 487.542969 L 702.914062 504.980469 L 715.214844 473.4375 L 687 456 "/>
<path style="fill-rule:nonzero;fill:rgb(55%,51%,53%);fill-opacity:1;stroke-width:1;stroke-linecap:butt;stroke-linejoin:miter;stroke:rgb(0%,0%,0%);stroke-opacity:1;stroke-miterlimit:10;" d="M 172 419 L 201.664062 419 L 213.664062 390.785156 L 225.664062 419 L 255.332031 419 L 231.332031 436.4375 L 239.417969 467.980469 L 213.664062 450.542969 L 187.914062 467.980469 L 200.214844 436.4375 L 172 419 "/>
<path style="fill-rule:nonzero;fill:rgb(55%,51%,53%);fill-opacity:1;stroke-width:1;stroke-linecap:butt;stroke-linejoin:miter;stroke:rgb(0%,0%,0%);stroke-opacity:1;stroke-miterlimit:10;" d="M 361 78 L 390.664062 78 L 402.664062 49.785156 L 414.664062 78 L 444.332031 78 L 420.332031 95.4375 L 428.417969 126.980469 L 402.664062 109.542969 L 376.914062 126.980469 L 389.214844 95.4375 L 361 78 "/>
<path style="fill-rule:nonzero;fill:rgb(53%,27%,7%);fill-opacity:1;stroke-width:1;stroke-linecap:butt;stroke-linejoin:miter;stroke:rgb(0%,0%,0%);stroke-opacity:1;stroke-miterlimit:10;" d="M 444.214844 456 C 444.214844 467.714844 434.714844 477.214844 423 477.214844 C 411.285156 477.214844 401.785156 467.714844 401.785156 456 C 401.785156 444.285156 411.285156 434.785156 423 434.785156 C 434.714844 434.785156 444.214844 444.285156 444.214844 456 "/>
<path style="fill-rule:nonzero;fill:rgb(53%,27%,7%);fill-opacity:1;stroke-width:1;stroke-linecap:butt;stroke-linejoin:miter;stroke:rgb(0%,0%,0%);stroke-opacity:1;stroke-miterlimit:10;" d="M 435.214844 341 C 435.214844 352.714844 425.714844 362.214844 414 362.214844 C 402.285156 362.214844 392.785156 352.714844 392.785156 341 C 392.785156 329.285156 402.285156 319.785156 414 319.785156 C 425.714844 319.785156 435.214844 329.285156 435.214844 341 "/>
<path style="fill-rule:nonzero;fill:rgb(53%,27%,7%);fill-opacity:1;stroke-width:1;stroke-linecap:butt;stroke-linejoin:miter;stroke:rgb(0%,0%,0%);stroke-opacity:1;stroke-miterlimit:10;" d="M 447.214844 222 C 447.214844 233.714844 437.714844 243.214844 426 243.214844 C 414.285156 243.214844 404.785156 233.714844 404.785156 222 C 404.785156 210.285156 414.285156 200.785156 426 200.785156 C 437.714844 200.785156 447.214844 210.285156 447.214844 222 "/>
<path style="fill-rule:nonzero;fill:rgb(53%,27%,7%);fill-opacity:1;stroke-width:1;stroke-linecap:butt;stroke-linejoin:miter;stroke:rgb(0%,0%,0%);stroke-opacity:1;stroke-miterlimit:10;" d="M 608.214844 145 C 608.214844 156.714844 598.714844 166.214844 587 166.214844 C 575.285156 166.214844 565.785156 156.714844 565.785156 145 C 565.785156 133.285156 575.285156 123.785156 587 123.785156 C 598.714844 123.785156 608.214844 133.285156 608.214844 145 "/>
<path style="fill-rule:nonzero;fill:rgb(53%,27%,7%);fill-opacity:1;stroke-width:1;stroke-linecap:butt;stroke-linejoin:miter;stroke:rgb(0%,0%,0%);stroke-opacity:1;stroke-miterlimit:10;" d="M 591.214844 355 C 591.214844 366.714844 581.714844 376.214844 570 376.214844 C 558.285156 376.214844 548.785156 366.714844 548.785156 355 C 548.785156 343.285156 558.285156 333.785156 570 333.785156 C 581.714844 333.785156 591.214844 343.285156 591.214844 355 "/>
<path style="fill-rule:nonzero;fill:rgb(53%,27%,7%);fill-opacity:1;stroke-width:1;stroke-linecap:butt;stroke-linejoin:miter;stroke:rgb(0%,0%,0%);stroke-opacity:1;stroke-miterlimit:10;" d="M 83.214844 329 C 83.214844 340.714844 73.714844 350.214844 62 350.214844 C 50.285156 350.214844 40.785156 340.714844 40.785156 329 C 40.785156 317.285156 50.285156 307.785156 62 307.785156 C 73.714844 307.785156 83.214844 317.285156 83.214844 329 "/>
<path style="fill-rule:nonzero;fill:rgb(53%,27%,7%);fill-opacity:1;stroke-width:1;stroke-linecap:butt;stroke-linejoin:miter;stroke:rgb(0%,0%,0%);stroke-opacity:1;stroke-miterlimit:10;" d="M 242.214844 185 C 242.214844 196.714844 232.714844 206.214844 221 206.214844 C 209.285156 206.214844 199.785156 196.714844 199.785156 185 C 199.785156 173.285156 209.285156 163.785156 221 163.785156 C 232.714844 163.785156 242.214844 173.285156 242.214844 185 "/>
<path style="fill-rule:nonzero;fill:rgb(53%,27%,7%);fill-opacity:1;stroke-width:1;stroke-linecap:butt;stroke-linejoin:miter;stroke:rgb(0%,0%,0%);stroke-opacity:1;stroke-miterlimit:10;" d="M 544.214844 451 C 544.214844 462.714844 534.714844 472.214844 523 472.214844 C 511.285156 472.214844 501.785156 462.714844 501.785156 451 C 501.785156 439.285156 511.285156 429.785156 523 429.785156 C 534.714844 429.785156 544.214844 439.285156 544.214844 451 "/>
</g>
</svg>
