<?xml version="1.0" encoding="UTF-8"?>
<svg xmlns="http://www.w3.org/2000/svg" xmlns:xlink="http://www.w3.org/1999/xlink" width="1129pt" height="517pt" viewBox="0 0 1129 517" version="1.1">
<g id="surface781">
<rect x="0" y="0" width="1129" height="517" style="fill:rgb(90%,90%,90%);fill-opacity:1;stroke:none;"/>
<path style="fill-rule:nonzero;fill:rgb(53%,27%,7%);fill-opacity:1;stroke-width:1;stroke-linecap:butt;stroke-linejoin:miter;stroke:rgb(0%,0%,0%);stroke-opacity:1;stroke-miterlimit:10;" d="M 639 442 L 668.664062 442 L 680.664062 413.785156 L 692.664062 442 L 722.332031 442 L 698.332031 459.4375 L 706.417969 490.980469 L 680.664062 473.542969 L 654.914062 490.980469 L 667.214844 459.4375 L 639 442 "/>
<path style="fill-rule:nonzero;fill:rgb(53%,27%,7%);fill-opacity:1;stroke-width:1;stroke-linecap:butt;stroke-linejoin:miter;stroke:rgb(0%,0%,0%);stroke-opacity:1;stroke-miterlimit:10;" d="M 437 187 L 466.664062 187 L 478.664062 158.785156 L 490.664062 187 L 520.332031 187 L 496.332031 204.4375 L 504.417969 235.980469 L 478.664062 218.542969 L 452.914062 235.980469 L 465.214844 204.4375 L 437 187 "/>
<path style="fill-rule:nonzero;fill:rgb(53%,27%,7%);fill-opacity:1;stroke-width:1;stroke-linecap:butt;stroke-linejoin:miter;stroke:rgb(0%,0%,0%);stroke-opacity:1;stroke-miterlimit:10;" d="M 223 325 L 252.664062 325 L 264.664062 296.785156 L 276.664062 325 L 306.332031 325 L 282.332031 342.4375 L 290.417969 373.980469 L 264.664062 356.542969 L 238.914062 373.980469 L 251.214844 342.4375 L 223 325 "/>
<path style="fill-rule:nonzero;fill:rgb(53%,27%,7%);fill-opacity:1;stroke-width:1;stroke-linecap:butt;stroke-linejoin:miter;stroke:rgb(0%,0%,0%);stroke-opacity:1;stroke-miterlimit:10;" d="M 566 353 L 595.664062 353 L 607.664062 324.785156 L 619.664062 353 L 649.332031 353 L 625.332031 370.4375 L 633.417969 401.980469 L 607.664062 384.542969 L 581.914062 401.980469 L 594.214844 370.4375 L 566 353 "/>
<path style="fill-rule:nonzero;fill:rgb(53%,27%,7%);fill-opacity:1;stroke-width:1;stroke-linecap:butt;stroke-linejoin:miter;stroke:rgb(0%,0%,0%);stroke-opacity:1;stroke-miterlimit:10;" d="M 847 388 L 876.664062 388 L 888.664062 359.785156 L 900.664062 388 L 930.332031 388 L 906.332031 405.4375 L 914.417969 436.980469 L 888.664062 419.542969 L 862.914062 436.980469 L 875.214844 405.4375 L 847 388 "/>
<path style="fill-rule:nonzero;fill:rgb(55%,51%,53%);fill-opacity:1;stroke-width:1;stroke-linecap:butt;stroke-linejoin:miter;stroke:rgb(0%,0%,0%);stroke-opacity:1;stroke-miterlimit:10;" d="M 110 154 L 139.664062 154 L 151.664062 125.785156 L 163.664062 154 L 193.332031 154 L 169.332031 171.4375 L 177.417969 202.980469 L 151.664062 185.542969 L 125.914062 202.980469 L 138.214844 171.4375 L 110 154 "/>
<path style="fill-rule:nonzero;fill:rgb(55%,51%,53%);fill-opacity:1;stroke-width:1;stroke-linecap:butt;stroke-linejoin:miter;stroke:rgb(0%,0%,0%);stroke-opacity:1;stroke-miterlimit:10;" d="M 685 242 L 714.664062 242 L 726.664062 213.785156 L 738.664062 242 L 768.332031 242 L 744.332031 259.4375 L 752.417969 290.980469 L 726.664062 273.542969 L 700.914062 290.980469 L 713.214844 259.4375 L 685 242 "/>
<path style="fill-rule:nonzero;fill:rgb(55%,51%,53%);fill-opacity:1;stroke-width:1;stroke-linecap:butt;stroke-linejoin:miter;stroke:rgb(0%,0%,0%);stroke-opacity:1;stroke-miterlimit:10;" d="M 310 184 L 339.664062 184 L 351.664062 155.785156 L 363.664062 184 L 393.332031 184 L 369.332031 201.4375 L 377.417969 232.980469 L 351.664062 215.542969 L 325.914062 232.980469 L 338.214844 201.4375 L 310 184 "/>
<path style="fill-rule:nonzero;fill:rgb(55%,51%,53%);fill-opacity:1;stroke-width:1;stroke-linecap:butt;stroke-linejoin:miter;stroke:rgb(0%,0%,0%);stroke-opacity:1;stroke-miterlimit:10;" d="M 335 78 L 364.664062 78 L 376.664062 49.785156 L 388.664062 78 L 418.332031 78 L 394.332031 95.4375 L 402.417969 126.980469 L 376.664062 109.542969 L 350.914062 126.980469 L 363.214844 95.4375 L 335 78 "/>
<path style="fill-rule:nonzero;fill:rgb(55%,51%,53%);fill-opacity:1;stroke-width:1;stroke-linecap:butt;stroke-linejoin:miter;stroke:rgb(0%,0%,0%);stroke-opacity:1;stroke-miterlimit:10;" d="M 639 152 L 668.664062 152 L 680.664062 123.785156 L 692.664062 152 L 722.332031 152 L 698.332031 169.4375 L 706.417969 200.980469 L 680.664062 183.542969 L 654.914062 200.980469 L 667.214844 169.4375 L 639 152 "/>
<path style="fill-rule:nonzero;fill:rgb(55%,51%,53%);fill-opacity:1;stroke-width:1;stroke-linecap:butt;stroke-linejoin:miter;stroke:rgb(0%,0%,0%);stroke-opacity:1;stroke-miterlimit:10;" d="M 762 181 L 791.664062 181 L 803.664062 152.785156 L 815.664062 181 L 845.332031 181 L 821.332031 198.4375 L 829.417969 229.980469 L 803.664062 212.542969 L 777.914062 229.980469 L 790.214844 198.4375 L 762 181 "/>
<path style="fill-rule:nonzero;fill:rgb(55%,51%,53%);fill-opacity:1;stroke-width:1;stroke-linecap:butt;stroke-linejoin:miter;stroke:rgb(0%,0%,0%);stroke-opacity:1;stroke-miterlimit:10;" d="M 498 461 L 527.664062 461 L 539.664062 432.785156 L 551.664062 461 L 581.332031 461 L 557.332031 478.4375 L 565.417969 509.980469 L 539.664062 492.542969 L 513.914062 509.980469 L 526.214844 478.4375 L 498 461 "/>
<path style="fill-rule:nonzero;fill:rgb(55%,51%,53%);fill-opacity:1;stroke-width:1;stroke-linecap:butt;stroke-linejoin:miter;stroke:rgb(0%,0%,0%);stroke-opacity:1;stroke-miterlimit:10;" d="M 99 448 L 128.664062 448 L 140.664062 419.785156 L 152.664062 448 L 182.332031 448 L 158.332031 465.4375 L 166.417969 496.980469 L 140.664062 479.542969 L 114.914062 496.980469 L 127.214844 465.4375 L 99 448 "/>
</g>
</svg>
