<?xml version="1.0" encoding="UTF-8"?>
<svg xmlns="http://www.w3.org/2000/svg" xmlns:xlink="http://www.w3.org/1999/xlink" width="1179pt" height="517pt" viewBox="0 0 1179 517" version="1.1">
<g id="surface486">
<rect x="0" y="0" width="1179" height="517" style="fill:rgb(90%,90%,90%);fill-opacity:1;stroke:none;"/>
<path style="fill-rule:nonzero;fill:rgb(100%,51%,0%);fill-opacity:1;stroke-width:1;stroke-linecap:butt;stroke-linejoin:miter;stroke:rgb(0%,0%,0%);stroke-opacity:1;stroke-miterlimit:10;" d="M 255 395 L 284.664062 395 L 296.664062 366.785156 L 308.664062 395 L 338.332031 395 L 314.332031 412.4375 L 322.417969 443.980469 L 296.664062 426.542969 L 270.914062 443.980469 L 283.214844 412.4375 L 255 395 "/>
<path style="fill-rule:nonzero;fill:rgb(55%,51%,53%);fill-opacity:1;stroke-width:1;stroke-linecap:butt;stroke-linejoin:miter;stroke:rgb(0%,0%,0%);stroke-opacity:1;stroke-miterlimit:10;" d="M 221 152 L 195.019531 197 L 246.980469 197 L 221 152 "/>
<path style="fill-rule:nonzero;fill:rgb(100%,51%,0%);fill-opacity:1;stroke-width:1;stroke-linecap:butt;stroke-linejoin:miter;stroke:rgb(0%,0%,0%);stroke-opacity:1;stroke-miterlimit:10;" d="M 305 260 L 334.664062 260 L 346.664062 231.785156 L 358.664062 260 L 388.332031 260 L 364.332031 277.4375 L 372.417969 308.980469 L 346.664062 291.542969 L 320.914062 308.980469 L 333.214844 277.4375 L 305 260 "/>
<path style="fill-rule:nonzero;fill:rgb(100%,51%,0%);fill-opacity:1;stroke-width:1;stroke-linecap:butt;stroke-linejoin:miter;stroke:rgb(0%,0%,0%);stroke-opacity:1;stroke-miterlimit:10;" d="M 352 384 L 381.664062 384 L 393.664062 355.785156 L 405.664062 384 L 435.332031 384 L 411.332031 401.4375 L 419.417969 432.980469 L 393.664062 415.542969 L 367.914062 432.980469 L 380.214844 401.4375 L 352 384 "/>
<path style="fill-rule:nonzero;fill:rgb(55%,51%,53%);fill-opacity:1;stroke-width:1;stroke-linecap:butt;stroke-linejoin:miter;stroke:rgb(0%,0%,0%);stroke-opacity:1;stroke-miterlimit:10;" d="M 95 118 L 69.019531 163 L 120.980469 163 L 95 118 "/>
<path style="fill-rule:nonzero;fill:rgb(100%,51%,0%);fill-opacity:1;stroke-width:1;stroke-linecap:butt;stroke-linejoin:miter;stroke:rgb(0%,0%,0%);stroke-opacity:1;stroke-miterlimit:10;" d="M 256 91 L 285.664062 91 L 297.664062 62.785156 L 309.664062 91 L 339.332031 91 L 315.332031 108.4375 L 323.417969 139.980469 L 297.664062 122.542969 L 271.914062 139.980469 L 284.214844 108.4375 L 256 91 "/>
<path style="fill-rule:nonzero;fill:rgb(55%,51%,53%);fill-opacity:1;stroke-width:1;stroke-linecap:butt;stroke-linejoin:miter;stroke:rgb(0%,0%,0%);stroke-opacity:1;stroke-miterlimit:10;" d="M 815 110 L 789.019531 155 L 840.980469 155 L 815 110 "/>
<path style="fill-rule:nonzero;fill:rgb(55%,51%,53%);fill-opacity:1;stroke-width:1;stroke-linecap:butt;stroke-linejoin:miter;stroke:rgb(0%,0%,0%);stroke-opacity:1;stroke-miterlimit:10;" d="M 849 370 L 823.019531 415 L 874.980469 415 L 849 370 "/>
<path style="fill-rule:nonzero;fill:rgb(100%,51%,0%);fill-opacity:1;stroke-width:1;stroke-linecap:butt;stroke-linejoin:miter;stroke:rgb(0%,0%,0%);stroke-opacity:1;stroke-miterlimit:10;" d="M 948 88 L 977.664062 88 L 989.664062 59.785156 L 1001.664062 88 L 1031.332031 88 L 1007.332031 105.4375 L 1015.417969 136.980469 L 989.664062 119.542969 L 963.914062 136.980469 L 976.214844 105.4375 L 948 88 "/>
<path style="fill-rule:nonzero;fill:rgb(100%,51%,0%);fill-opacity:1;stroke-width:1;stroke-linecap:butt;stroke-linejoin:miter;stroke:rgb(0%,0%,0%);stroke-opacity:1;stroke-miterlimit:10;" d="M 1027 304 L 1056.664062 304 L 1068.664062 275.785156 L 1080.664062 304 L 1110.332031 304 L 1086.332031 321.4375 L 1094.417969 352.980469 L 1068.664062 335.542969 L 1042.914062 352.980469 L 1055.214844 321.4375 L 1027 304 "/>
</g>
</svg>
