<?xml version="1.0" encoding="UTF-8"?>
<svg xmlns="http://www.w3.org/2000/svg" xmlns:xlink="http://www.w3.org/1999/xlink" width="1129pt" height="517pt" viewBox="0 0 1129 517" version="1.1">
<g id="surface211">
<rect x="0" y="0" width="1129" height="517" style="fill:rgb(90%,90%,90%);fill-opacity:1;stroke:none;"/>
<path style="fill-rule:nonzero;fill:rgb(35%,70%,90%);fill-opacity:1;stroke-width:1;stroke-linecap:butt;stroke-linejoin:miter;stroke:rgb(0%,0%,0%);stroke-opacity:1;stroke-miterlimit:10;" d="M 399 185 L 428.664062 185 L 440.664062 156.785156 L 452.664062 185 L 482.332031 185 L 458.332031 202.4375 L 466.417969 233.980469 L 440.664062 216.542969 L 414.914062 233.980469 L 427.214844 202.4375 L 399 185 "/>
<path style="fill-rule:nonzero;fill:rgb(35%,70%,90%);fill-opacity:1;stroke-width:1;stroke-linecap:butt;stroke-linejoin:miter;stroke:rgb(0%,0%,0%);stroke-opacity:1;stroke-miterlimit:10;" d="M 919 437 L 948.664062 437 L 960.664062 408.785156 L 972.664062 437 L 1002.332031 437 L 978.332031 454.4375 L 986.417969 485.980469 L 960.664062 468.542969 L 934.914062 485.980469 L 947.214844 454.4375 L 919 437 "/>
<path style="fill-rule:nonzero;fill:rgb(35%,70%,90%);fill-opacity:1;stroke-width:1;stroke-linecap:butt;stroke-linejoin:miter;stroke:rgb(0%,0%,0%);stroke-opacity:1;stroke-miterlimit:10;" d="M 819 163 L 848.664062 163 L 860.664062 134.785156 L 872.664062 163 L 902.332031 163 L 878.332031 180.4375 L 886.417969 211.980469 L 860.664062 194.542969 L 834.914062 211.980469 L 847.214844 180.4375 L 819 163 "/>
<path style="fill-rule:nonzero;fill:rgb(35%,70%,90%);fill-opacity:1;stroke-width:1;stroke-linecap:butt;stroke-linejoin:miter;stroke:rgb(0%,0%,0%);stroke-opacity:1;stroke-miterlimit:10;" d="M 372 283 L 401.664062 283 L 413.664062 254.785156 L 425.664062 283 L 455.332031 283 L 431.332031 300.4375 L 439.417969 331.980469 L 413.664062 314.542969 L 387.914062 331.980469 L 400.214844 300.4375 L 372 283 "/>
<path style="fill-rule:nonzero;fill:rgb(35%,70%,90%);fill-opacity:1;stroke-width:1;stroke-linecap:butt;stroke-linejoin:miter;stroke:rgb(0%,0%,0%);stroke-opacity:1;stroke-miterlimit:10;" d="M 396 433 L 425.664062 433 L 437.664062 404.785156 L 449.664062 433 L 479.332031 433 L 455.332031 450.4375 L 463.417969 481.980469 L 437.664062 464.542969 L 411.914062 481.980469 L 424.214844 450.4375 L 396 433 "/>
<path style="fill-rule:nonzero;fill:rgb(35%,70%,90%);fill-opacity:1;stroke-width:1;stroke-linecap:butt;stroke-linejoin:miter;stroke:rgb(0%,0%,0%);stroke-opacity:1;stroke-miterlimit:10;" d="M 531 223 L 560.664062 223 L 572.664062 194.785156 L 584.664062 223 L 614.332031 223 L 590.332031 240.4375 L 598.417969 271.980469 L 572.664062 254.542969 L 546.914062 271.980469 L 559.214844 240.4375 L 531 223 "/>
<path style="fill-rule:nonzero;fill:rgb(53%,27%,7%);fill-opacity:1;stroke-width:1;stroke-linecap:butt;stroke-linejoin:miter;stroke:rgb(0%,0%,0%);stroke-opacity:1;stroke-miterlimit:10;" d="M 182.214844 376 C 182.214844 387.714844 172.714844 397.214844 161 397.214844 C 149.285156 397.214844 139.785156 387.714844 139.785156 376 C 139.785156 364.285156 149.285156 354.785156 161 354.785156 C 172.714844 354.785156 182.214844 364.285156 182.214844 376 "/>
<path style="fill-rule:nonzero;fill:rgb(53%,27%,7%);fill-opacity:1;stroke-width:1;stroke-linecap:butt;stroke-linejoin:miter;stroke:rgb(0%,0%,0%);stroke-opacity:1;stroke-miterlimit:10;" d="M 577.214844 326 C 577.214844 337.714844 567.714844 347.214844 556 347.214844 C 544.285156 347.214844 534.785156 337.714844 534.785156 326 C 534.785156 314.285156 544.285156 304.785156 556 304.785156 C 567.714844 304.785156 577.214844 314.285156 577.214844 326 "/>
<path style="fill-rule:nonzero;fill:rgb(53%,27%,7%);fill-opacity:1;stroke-width:1;stroke-linecap:butt;stroke-linejoin:miter;stroke:rgb(0%,0%,0%);stroke-opacity:1;stroke-miterlimit:10;" d="M 656.214844 69 C 656.214844 80.714844 646.714844 90.214844 635 90.214844 C 623.285156 90.214844 613.785156 80.714844 613.785156 69 C 613.785156 57.285156 623.285156 47.785156 635 47.785156 C 646.714844 47.785156 656.214844 57.285156 656.214844 69 "/>
<path style="fill-rule:nonzero;fill:rgb(53%,27%,7%);fill-opacity:1;stroke-width:1;stroke-linecap:butt;stroke-linejoin:miter;stroke:rgb(0%,0%,0%);stroke-opacity:1;stroke-miterlimit:10;" d="M 669.214844 307 C 669.214844 318.714844 659.714844 328.214844 648 328.214844 C 636.285156 328.214844 626.785156 318.714844 626.785156 307 C 626.785156 295.285156 636.285156 285.785156 648 285.785156 C 659.714844 285.785156 669.214844 295.285156 669.214844 307 "/>
<path style="fill-rule:nonzero;fill:rgb(53%,27%,7%);fill-opacity:1;stroke-width:1;stroke-linecap:butt;stroke-linejoin:miter;stroke:rgb(0%,0%,0%);stroke-opacity:1;stroke-miterlimit:10;" d="M 965.214844 120 C 965.214844 131.714844 955.714844 141.214844 944 141.214844 C 932.285156 141.214844 922.785156 131.714844 922.785156 120 C 922.785156 108.285156 932.285156 98.785156 944 98.785156 C 955.714844 98.785156 965.214844 108.285156 965.214844 120 "/>
<path style="fill-rule:nonzero;fill:rgb(53%,27%,7%);fill-opacity:1;stroke-width:1;stroke-linecap:butt;stroke-linejoin:miter;stroke:rgb(0%,0%,0%);stroke-opacity:1;stroke-miterlimit:10;" d="M 742.214844 126 C 742.214844 137.714844 732.714844 147.214844 721 147.214844 C 709.285156 147.214844 699.785156 137.714844 699.785156 126 C 699.785156 114.285156 709.285156 104.785156 721 104.785156 C 732.714844 104.785156 742.214844 114.285156 742.214844 126 "/>
<path style="fill-rule:nonzero;fill:rgb(53%,27%,7%);fill-opacity:1;stroke-width:1;stroke-linecap:butt;stroke-linejoin:miter;stroke:rgb(0%,0%,0%);stroke-opacity:1;stroke-miterlimit:10;" d="M 172.214844 146 C 172.214844 157.714844 162.714844 167.214844 151 167.214844 C 139.285156 167.214844 129.785156 157.714844 129.785156 146 C 129.785156 134.285156 139.285156 124.785156 151 124.785156 C 162.714844 124.785156 172.214844 134.285156 172.214844 146 "/>
<path style="fill-rule:nonzero;fill:rgb(53%,27%,7%);fill-opacity:1;stroke-width:1;stroke-linecap:butt;stroke-linejoin:miter;stroke:rgb(0%,0%,0%);stroke-opacity:1;stroke-miterlimit:10;" d="M 755.214844 341 C 755.214844 352.714844 745.714844 362.214844 734 362.214844 C 722.285156 362.214844 712.785156 352.714844 712.785156 341 C 712.785156 329.285156 722.285156 319.785156 734 319.785156 C 745.714844 319.785156 755.214844 329.285156 755.214844 341 "/>
</g>
</svg>
