<?xml version="1.0" encoding="UTF-8"?>
<svg xmlns="http://www.w3.org/2000/svg" xmlns:xlink="http://www.w3.org/1999/xlink" width="1179pt" height="517pt" viewBox="0 0 1179 517" version="1.1">
<g id="surface871">
<rect x="0" y="0" width="1179" height="517" style="fill:rgb(90%,90%,90%);fill-opacity:1;stroke:none;"/>
<path style="fill-rule:nonzero;fill:rgb(55%,51%,53%);fill-opacity:1;stroke-width:1;stroke-linecap:butt;stroke-linejoin:miter;stroke:rgb(0%,0%,0%);stroke-opacity:1;stroke-miterlimit:10;" d="M 398 415 L 427.664062 415 L 439.664062 386.785156 L 451.664062 415 L 481.332031 415 L 457.332031 432.4375 L 465.417969 463.980469 L 439.664062 446.542969 L 413.914062 463.980469 L 426.214844 432.4375 L 398 415 "/>
<path style="fill-rule:nonzero;fill:rgb(55%,51%,53%);fill-opacity:1;stroke-width:1;stroke-linecap:butt;stroke-linejoin:miter;stroke:rgb(0%,0%,0%);stroke-opacity:1;stroke-miterlimit:10;" d="M 158 317 L 187.664062 317 L 199.664062 288.785156 L 211.664062 317 L 241.332031 317 L 217.332031 334.4375 L 225.417969 365.980469 L 199.664062 348.542969 L 173.914062 365.980469 L 186.214844 334.4375 L 158 317 "/>
<path style="fill-rule:nonzero;fill:rgb(55%,51%,53%);fill-opacity:1;stroke-width:1;stroke-linecap:butt;stroke-linejoin:miter;stroke:rgb(0%,0%,0%);stroke-opacity:1;stroke-miterlimit:10;" d="M 381 101 L 410.664062 101 L 422.664062 72.785156 L 434.664062 101 L 464.332031 101 L 440.332031 118.4375 L 448.417969 149.980469 L 422.664062 132.542969 L 396.914062 149.980469 L 409.214844 118.4375 L 381 101 "/>
<path style="fill-rule:nonzero;fill:rgb(53%,27%,7%);fill-opacity:1;stroke-width:1;stroke-linecap:butt;stroke-linejoin:miter;stroke:rgb(0%,0%,0%);stroke-opacity:1;stroke-miterlimit:10;" d="M 423 225 L 452.664062 225 L 464.664062 196.785156 L 476.664062 225 L 506.332031 225 L 482.332031 242.4375 L 490.417969 273.980469 L 464.664062 256.542969 L 438.914062 273.980469 L 451.214844 242.4375 L 423 225 "/>
<path style="fill-rule:nonzero;fill:rgb(53%,27%,7%);fill-opacity:1;stroke-width:1;stroke-linecap:butt;stroke-linejoin:miter;stroke:rgb(0%,0%,0%);stroke-opacity:1;stroke-miterlimit:10;" d="M 139 169 L 168.664062 169 L 180.664062 140.785156 L 192.664062 169 L 222.332031 169 L 198.332031 186.4375 L 206.417969 217.980469 L 180.664062 200.542969 L 154.914062 217.980469 L 167.214844 186.4375 L 139 169 "/>
<path style="fill-rule:nonzero;fill:rgb(53%,27%,7%);fill-opacity:1;stroke-width:1;stroke-linecap:butt;stroke-linejoin:miter;stroke:rgb(0%,0%,0%);stroke-opacity:1;stroke-miterlimit:10;" d="M 719 208 L 748.664062 208 L 760.664062 179.785156 L 772.664062 208 L 802.332031 208 L 778.332031 225.4375 L 786.417969 256.980469 L 760.664062 239.542969 L 734.914062 256.980469 L 747.214844 225.4375 L 719 208 "/>
<path style="fill-rule:nonzero;fill:rgb(53%,27%,7%);fill-opacity:1;stroke-width:1;stroke-linecap:butt;stroke-linejoin:miter;stroke:rgb(0%,0%,0%);stroke-opacity:1;stroke-miterlimit:10;" d="M 880 214 L 909.664062 214 L 921.664062 185.785156 L 933.664062 214 L 963.332031 214 L 939.332031 231.4375 L 947.417969 262.980469 L 921.664062 245.542969 L 895.914062 262.980469 L 908.214844 231.4375 L 880 214 "/>
<path style="fill-rule:nonzero;fill:rgb(55%,51%,53%);fill-opacity:1;stroke-width:1;stroke-linecap:butt;stroke-linejoin:miter;stroke:rgb(0%,0%,0%);stroke-opacity:1;stroke-miterlimit:10;" d="M 919 104 L 948.664062 104 L 960.664062 75.785156 L 972.664062 104 L 1002.332031 104 L 978.332031 121.4375 L 986.417969 152.980469 L 960.664062 135.542969 L 934.914062 152.980469 L 947.214844 121.4375 L 919 104 "/>
<path style="fill-rule:nonzero;fill:rgb(53%,27%,7%);fill-opacity:1;stroke-width:1;stroke-linecap:butt;stroke-linejoin:miter;stroke:rgb(0%,0%,0%);stroke-opacity:1;stroke-miterlimit:10;" d="M 905 379 L 934.664062 379 L 946.664062 350.785156 L 958.664062 379 L 988.332031 379 L 964.332031 396.4375 L 972.417969 427.980469 L 946.664062 410.542969 L 920.914062 427.980469 L 933.214844 396.4375 L 905 379 "/>
<path style="fill-rule:nonzero;fill:rgb(53%,27%,7%);fill-opacity:1;stroke-width:1;stroke-linecap:butt;stroke-linejoin:miter;stroke:rgb(0%,0%,0%);stroke-opacity:1;stroke-miterlimit:10;" d="M 697 329 L 726.664062 329 L 738.664062 300.785156 L 750.664062 329 L 780.332031 329 L 756.332031 346.4375 L 764.417969 377.980469 L 738.664062 360.542969 L 712.914062 377.980469 L 725.214844 346.4375 L 697 329 "/>
<path style="fill-rule:nonzero;fill:rgb(53%,27%,7%);fill-opacity:1;stroke-width:1;stroke-linecap:butt;stroke-linejoin:miter;stroke:rgb(0%,0%,0%);stroke-opacity:1;stroke-miterlimit:10;" d="M 1026 241 L 1055.664062 241 L 1067.664062 212.785156 L 1079.664062 241 L 1109.332031 241 L 1085.332031 258.4375 L 1093.417969 289.980469 L 1067.664062 272.542969 L 1041.914062 289.980469 L 1054.214844 258.4375 L 1026 241 "/>
<path style="fill-rule:nonzero;fill:rgb(55%,51%,53%);fill-opacity:1;stroke-width:1;stroke-linecap:butt;stroke-linejoin:miter;stroke:rgb(0%,0%,0%);stroke-opacity:1;stroke-miterlimit:10;" d="M 809 288 L 838.664062 288 L 850.664062 259.785156 L 862.664062 288 L 892.332031 288 L 868.332031 305.4375 L 876.417969 336.980469 L 850.664062 319.542969 L 824.914062 336.980469 L 837.214844 305.4375 L 809 288 "/>
<path style="fill-rule:nonzero;fill:rgb(55%,51%,53%);fill-opacity:1;stroke-width:1;stroke-linecap:butt;stroke-linejoin:miter;stroke:rgb(0%,0%,0%);stroke-opacity:1;stroke-miterlimit:10;" d="M 804 90 L 833.664062 90 L 845.664062 61.785156 L 857.664062 90 L 887.332031 90 L 863.332031 107.4375 L 871.417969 138.980469 L 845.664062 121.542969 L 819.914062 138.980469 L 832.214844 107.4375 L 804 90 "/>
</g>
</svg>
