<?xml version="1.0" encoding="UTF-8"?>
<svg xmlns="http://www.w3.org/2000/svg" xmlns:xlink="http://www.w3.org/1999/xlink" width="1179pt" height="517pt" viewBox="0 0 1179 517" version="1.1">
<g id="surface21">
<rect x="0" y="0" width="1179" height="517" style="fill:rgb(90%,90%,90%);fill-opacity:1;stroke:none;"/>
<path style="fill-rule:nonzero;fill:rgb(35%,70%,90%);fill-opacity:1;stroke-width:1;stroke-linecap:butt;stroke-linejoin:miter;stroke:rgb(0%,0%,0%);stroke-opacity:1;stroke-miterlimit:10;" d="M 135.214844 349 C 135.214844 360.714844 125.714844 370.214844 114 370.214844 C 102.285156 370.214844 92.785156 360.714844 92.785156 349 C 92.785156 337.285156 102.285156 327.785156 114 327.785156 C 125.714844 327.785156 135.214844 337.285156 135.214844 349 "/>
<path style="fill-rule:nonzero;fill:rgb(100%,51%,0%);fill-opacity:1;stroke-width:1;stroke-linecap:butt;stroke-linejoin:miter;stroke:rgb(0%,0%,0%);stroke-opacity:1;stroke-miterlimit:10;" d="M 294.214844 163 C 294.214844 174.714844 284.714844 184.214844 273 184.214844 C 261.285156 184.214844 251.785156 174.714844 251.785156 163 C 251.785156 151.285156 261.285156 141.785156 273 141.785156 C 284.714844 141.785156 294.214844 151.285156 294.214844 163 "/>
<path style="fill-rule:nonzero;fill:rgb(100%,51%,0%);fill-opacity:1;stroke-width:1;stroke-linecap:butt;stroke-linejoin:miter;stroke:rgb(0%,0%,0%);stroke-opacity:1;stroke-miterlimit:10;" d="M 402.214844 194 C 402.214844 205.714844 392.714844 215.214844 381 215.214844 C 369.285156 215.214844 359.785156 205.714844 359.785156 194 C 359.785156 182.285156 369.285156 172.785156 381 172.785156 C 392.714844 172.785156 402.214844 182.285156 402.214844 194 "/>
<path style="fill-rule:nonzero;fill:rgb(35%,70%,90%);fill-opacity:1;stroke-width:1;stroke-linecap:butt;stroke-linejoin:miter;stroke:rgb(0%,0%,0%);stroke-opacity:1;stroke-miterlimit:10;" d="M 138.214844 198 C 138.214844 209.714844 128.714844 219.214844 117 219.214844 C 105.285156 219.214844 95.785156 209.714844 95.785156 198 C 95.785156 186.285156 105.285156 176.785156 117 176.785156 C 128.714844 176.785156 138.214844 186.285156 138.214844 198 "/>
<path style="fill-rule:nonzero;fill:rgb(35%,70%,90%);fill-opacity:1;stroke-width:1;stroke-linecap:butt;stroke-linejoin:miter;stroke:rgb(0%,0%,0%);stroke-opacity:1;stroke-miterlimit:10;" d="M 387.214844 356 C 387.214844 367.714844 377.714844 377.214844 366 377.214844 C 354.285156 377.214844 344.785156 367.714844 344.785156 356 C 344.785156 344.285156 354.285156 334.785156 366 334.785156 C 377.714844 334.785156 387.214844 344.285156 387.214844 356 "/>
<path style="fill-rule:nonzero;fill:rgb(100%,51%,0%);fill-opacity:1;stroke-width:1;stroke-linecap:butt;stroke-linejoin:miter;stroke:rgb(0%,0%,0%);stroke-opacity:1;stroke-miterlimit:10;" d="M 708.785156 243.785156 L 708.785156 286.214844 L 751.214844 286.214844 L 751.214844 243.785156 L 708.785156 243.785156 "/>
<path style="fill-rule:nonzero;fill:rgb(35%,70%,90%);fill-opacity:1;stroke-width:1;stroke-linecap:butt;stroke-linejoin:miter;stroke:rgb(0%,0%,0%);stroke-opacity:1;stroke-miterlimit:10;" d="M 825.785156 175.785156 L 825.785156 218.214844 L 868.214844 218.214844 L 868.214844 175.785156 L 825.785156 175.785156 "/>
<path style="fill-rule:nonzero;fill:rgb(35%,70%,90%);fill-opacity:1;stroke-width:1;stroke-linecap:butt;stroke-linejoin:miter;stroke:rgb(0%,0%,0%);stroke-opacity:1;stroke-miterlimit:10;" d="M 943.785156 320.785156 L 943.785156 363.214844 L 986.214844 363.214844 L 986.214844 320.785156 L 943.785156 320.785156 "/>
<path style="fill-rule:nonzero;fill:rgb(100%,51%,0%);fill-opacity:1;stroke-width:1;stroke-linecap:butt;stroke-linejoin:miter;stroke:rgb(0%,0%,0%);stroke-opacity:1;stroke-miterlimit:10;" d="M 741.785156 81.785156 L 741.785156 124.214844 L 784.214844 124.214844 L 784.214844 81.785156 L 741.785156 81.785156 "/>
<path style="fill-rule:nonzero;fill:rgb(100%,51%,0%);fill-opacity:1;stroke-width:1;stroke-linecap:butt;stroke-linejoin:miter;stroke:rgb(0%,0%,0%);stroke-opacity:1;stroke-miterlimit:10;" d="M 903.785156 409.785156 L 903.785156 452.214844 L 946.214844 452.214844 L 946.214844 409.785156 L 903.785156 409.785156 "/>
<path style="fill-rule:nonzero;fill:rgb(100%,51%,0%);fill-opacity:1;stroke-width:1;stroke-linecap:butt;stroke-linejoin:miter;stroke:rgb(0%,0%,0%);stroke-opacity:1;stroke-miterlimit:10;" d="M 864.785156 80.785156 L 864.785156 123.214844 L 907.214844 123.214844 L 907.214844 80.785156 L 864.785156 80.785156 "/>
<path style="fill-rule:nonzero;fill:rgb(100%,51%,0%);fill-opacity:1;stroke-width:1;stroke-linecap:butt;stroke-linejoin:miter;stroke:rgb(0%,0%,0%);stroke-opacity:1;stroke-miterlimit:10;" d="M 768.785156 371.785156 L 768.785156 414.214844 L 811.214844 414.214844 L 811.214844 371.785156 L 768.785156 371.785156 "/>
<path style="fill-rule:nonzero;fill:rgb(100%,51%,0%);fill-opacity:1;stroke-width:1;stroke-linecap:butt;stroke-linejoin:miter;stroke:rgb(0%,0%,0%);stroke-opacity:1;stroke-miterlimit:10;" d="M 678.785156 373.785156 L 678.785156 416.214844 L 721.214844 416.214844 L 721.214844 373.785156 L 678.785156 373.785156 "/>
</g>
</svg>
