<?xml version="1.0" encoding="UTF-8"?>
<svg xmlns="http://www.w3.org/2000/svg" xmlns:xlink="http://www.w3.org/1999/xlink" width="1179pt" height="517pt" viewBox="0 0 1179 517" version="1.1">
<g id="surface931">
<rect x="0" y="0" width="1179" height="517" style="fill:rgb(90%,90%,90%);fill-opacity:1;stroke:none;"/>
<path style="fill-rule:nonzero;fill:rgb(55%,51%,53%);fill-opacity:1;stroke-width:1;stroke-linecap:butt;stroke-linejoin:miter;stroke:rgb(0%,0%,0%);stroke-opacity:1;stroke-miterlimit:10;" d="M 150.214844 176 C 150.214844 187.714844 140.714844 197.214844 129 197.214844 C 117.285156 197.214844 107.785156 187.714844 107.785156 176 C 107.785156 164.285156 117.285156 154.785156 129 154.785156 C 140.714844 154.785156 150.214844 164.285156 150.214844 176 "/>
<path style="fill-rule:nonzero;fill:rgb(55%,51%,53%);fill-opacity:1;stroke-width:1;stroke-linecap:butt;stroke-linejoin:miter;stroke:rgb(0%,0%,0%);stroke-opacity:1;stroke-miterlimit:10;" d="M 236.214844 339 C 236.214844 350.714844 226.714844 360.214844 215 360.214844 C 203.285156 360.214844 193.785156 350.714844 193.785156 339 C 193.785156 327.285156 203.285156 317.785156 215 317.785156 C 226.714844 317.785156 236.214844 327.285156 236.214844 339 "/>
<path style="fill-rule:nonzero;fill:rgb(67%,100%,18%);fill-opacity:1;stroke-width:1;stroke-linecap:butt;stroke-linejoin:miter;stroke:rgb(0%,0%,0%);stroke-opacity:1;stroke-miterlimit:10;" d="M 388.214844 211 C 388.214844 222.714844 378.714844 232.214844 367 232.214844 C 355.285156 232.214844 345.785156 222.714844 345.785156 211 C 345.785156 199.285156 355.285156 189.785156 367 189.785156 C 378.714844 189.785156 388.214844 199.285156 388.214844 211 "/>
<path style="fill-rule:nonzero;fill:rgb(67%,100%,18%);fill-opacity:1;stroke-width:1;stroke-linecap:butt;stroke-linejoin:miter;stroke:rgb(0%,0%,0%);stroke-opacity:1;stroke-miterlimit:10;" d="M 337.214844 312 C 337.214844 323.714844 327.714844 333.214844 316 333.214844 C 304.285156 333.214844 294.785156 323.714844 294.785156 312 C 294.785156 300.285156 304.285156 290.785156 316 290.785156 C 327.714844 290.785156 337.214844 300.285156 337.214844 312 "/>
<path style="fill-rule:nonzero;fill:rgb(55%,51%,53%);fill-opacity:1;stroke-width:1;stroke-linecap:butt;stroke-linejoin:miter;stroke:rgb(0%,0%,0%);stroke-opacity:1;stroke-miterlimit:10;" d="M 444.214844 92 C 444.214844 103.714844 434.714844 113.214844 423 113.214844 C 411.285156 113.214844 401.785156 103.714844 401.785156 92 C 401.785156 80.285156 411.285156 70.785156 423 70.785156 C 434.714844 70.785156 444.214844 80.285156 444.214844 92 "/>
<path style="fill-rule:nonzero;fill:rgb(55%,51%,53%);fill-opacity:1;stroke-width:1;stroke-linecap:butt;stroke-linejoin:miter;stroke:rgb(0%,0%,0%);stroke-opacity:1;stroke-miterlimit:10;" d="M 303.214844 409 C 303.214844 420.714844 293.714844 430.214844 282 430.214844 C 270.285156 430.214844 260.785156 420.714844 260.785156 409 C 260.785156 397.285156 270.285156 387.785156 282 387.785156 C 293.714844 387.785156 303.214844 397.285156 303.214844 409 "/>
<path style="fill-rule:nonzero;fill:rgb(55%,51%,53%);fill-opacity:1;stroke-width:1;stroke-linecap:butt;stroke-linejoin:miter;stroke:rgb(0%,0%,0%);stroke-opacity:1;stroke-miterlimit:10;" d="M 107.214844 87 C 107.214844 98.714844 97.714844 108.214844 86 108.214844 C 74.285156 108.214844 64.785156 98.714844 64.785156 87 C 64.785156 75.285156 74.285156 65.785156 86 65.785156 C 97.714844 65.785156 107.214844 75.285156 107.214844 87 "/>
<path style="fill-rule:nonzero;fill:rgb(55%,51%,53%);fill-opacity:1;stroke-width:1;stroke-linecap:butt;stroke-linejoin:miter;stroke:rgb(0%,0%,0%);stroke-opacity:1;stroke-miterlimit:10;" d="M 290.214844 117 C 290.214844 128.714844 280.714844 138.214844 269 138.214844 C 257.285156 138.214844 247.785156 128.714844 247.785156 117 C 247.785156 105.285156 257.285156 95.785156 269 95.785156 C 280.714844 95.785156 290.214844 105.285156 290.214844 117 "/>
<path style="fill-rule:nonzero;fill:rgb(67%,100%,18%);fill-opacity:1;stroke-width:1;stroke-linecap:butt;stroke-linejoin:miter;stroke:rgb(0%,0%,0%);stroke-opacity:1;stroke-miterlimit:10;" d="M 721 81 L 695.019531 126 L 746.980469 126 L 721 81 "/>
<path style="fill-rule:nonzero;fill:rgb(67%,100%,18%);fill-opacity:1;stroke-width:1;stroke-linecap:butt;stroke-linejoin:miter;stroke:rgb(0%,0%,0%);stroke-opacity:1;stroke-miterlimit:10;" d="M 893 134 L 867.019531 179 L 918.980469 179 L 893 134 "/>
<path style="fill-rule:nonzero;fill:rgb(55%,51%,53%);fill-opacity:1;stroke-width:1;stroke-linecap:butt;stroke-linejoin:miter;stroke:rgb(0%,0%,0%);stroke-opacity:1;stroke-miterlimit:10;" d="M 795 401 L 769.019531 446 L 820.980469 446 L 795 401 "/>
<path style="fill-rule:nonzero;fill:rgb(55%,51%,53%);fill-opacity:1;stroke-width:1;stroke-linecap:butt;stroke-linejoin:miter;stroke:rgb(0%,0%,0%);stroke-opacity:1;stroke-miterlimit:10;" d="M 728 242 L 702.019531 287 L 753.980469 287 L 728 242 "/>
<path style="fill-rule:nonzero;fill:rgb(67%,100%,18%);fill-opacity:1;stroke-width:1;stroke-linecap:butt;stroke-linejoin:miter;stroke:rgb(0%,0%,0%);stroke-opacity:1;stroke-miterlimit:10;" d="M 998 150 L 972.019531 195 L 1023.980469 195 L 998 150 "/>
<path style="fill-rule:nonzero;fill:rgb(67%,100%,18%);fill-opacity:1;stroke-width:1;stroke-linecap:butt;stroke-linejoin:miter;stroke:rgb(0%,0%,0%);stroke-opacity:1;stroke-miterlimit:10;" d="M 1040 399 L 1014.019531 444 L 1065.980469 444 L 1040 399 "/>
</g>
</svg>
