<?xml version="1.0" encoding="UTF-8"?>
<svg xmlns="http://www.w3.org/2000/svg" xmlns:xlink="http://www.w3.org/1999/xlink" width="1179pt" height="517pt" viewBox="0 0 1179 517" version="1.1">
<g id="surface886">
<rect x="0" y="0" width="1179" height="517" style="fill:rgb(90%,90%,90%);fill-opacity:1;stroke:none;"/>
<path style="fill-rule:nonzero;fill:rgb(55%,51%,53%);fill-opacity:1;stroke-width:1;stroke-linecap:butt;stroke-linejoin:miter;stroke:rgb(0%,0%,0%);stroke-opacity:1;stroke-miterlimit:10;" d="M 401.214844 327 C 401.214844 338.714844 391.714844 348.214844 380 348.214844 C 368.285156 348.214844 358.785156 338.714844 358.785156 327 C 358.785156 315.285156 368.285156 305.785156 380 305.785156 C 391.714844 305.785156 401.214844 315.285156 401.214844 327 "/>
<path style="fill-rule:nonzero;fill:rgb(55%,51%,53%);fill-opacity:1;stroke-width:1;stroke-linecap:butt;stroke-linejoin:miter;stroke:rgb(0%,0%,0%);stroke-opacity:1;stroke-miterlimit:10;" d="M 107.214844 150 C 107.214844 161.714844 97.714844 171.214844 86 171.214844 C 74.285156 171.214844 64.785156 161.714844 64.785156 150 C 64.785156 138.285156 74.285156 128.785156 86 128.785156 C 97.714844 128.785156 107.214844 138.285156 107.214844 150 "/>
<path style="fill-rule:nonzero;fill:rgb(67%,100%,18%);fill-opacity:1;stroke-width:1;stroke-linecap:butt;stroke-linejoin:miter;stroke:rgb(0%,0%,0%);stroke-opacity:1;stroke-miterlimit:10;" d="M 283.214844 246 C 283.214844 257.714844 273.714844 267.214844 262 267.214844 C 250.285156 267.214844 240.785156 257.714844 240.785156 246 C 240.785156 234.285156 250.285156 224.785156 262 224.785156 C 273.714844 224.785156 283.214844 234.285156 283.214844 246 "/>
<path style="fill-rule:nonzero;fill:rgb(67%,100%,18%);fill-opacity:1;stroke-width:1;stroke-linecap:butt;stroke-linejoin:miter;stroke:rgb(0%,0%,0%);stroke-opacity:1;stroke-miterlimit:10;" d="M 248.214844 141 C 248.214844 152.714844 238.714844 162.214844 227 162.214844 C 215.285156 162.214844 205.785156 152.714844 205.785156 141 C 205.785156 129.285156 215.285156 119.785156 227 119.785156 C 238.714844 119.785156 248.214844 129.285156 248.214844 141 "/>
<path style="fill-rule:nonzero;fill:rgb(55%,51%,53%);fill-opacity:1;stroke-width:1;stroke-linecap:butt;stroke-linejoin:miter;stroke:rgb(0%,0%,0%);stroke-opacity:1;stroke-miterlimit:10;" d="M 306.214844 384 C 306.214844 395.714844 296.714844 405.214844 285 405.214844 C 273.285156 405.214844 263.785156 395.714844 263.785156 384 C 263.785156 372.285156 273.285156 362.785156 285 362.785156 C 296.714844 362.785156 306.214844 372.285156 306.214844 384 "/>
<path style="fill-rule:nonzero;fill:rgb(55%,51%,53%);fill-opacity:1;stroke-width:1;stroke-linecap:butt;stroke-linejoin:miter;stroke:rgb(0%,0%,0%);stroke-opacity:1;stroke-miterlimit:10;" d="M 429.214844 228 C 429.214844 239.714844 419.714844 249.214844 408 249.214844 C 396.285156 249.214844 386.785156 239.714844 386.785156 228 C 386.785156 216.285156 396.285156 206.785156 408 206.785156 C 419.714844 206.785156 429.214844 216.285156 429.214844 228 "/>
<path style="fill-rule:nonzero;fill:rgb(55%,51%,53%);fill-opacity:1;stroke-width:1;stroke-linecap:butt;stroke-linejoin:miter;stroke:rgb(0%,0%,0%);stroke-opacity:1;stroke-miterlimit:10;" d="M 139.214844 412 C 139.214844 423.714844 129.714844 433.214844 118 433.214844 C 106.285156 433.214844 96.785156 423.714844 96.785156 412 C 96.785156 400.285156 106.285156 390.785156 118 390.785156 C 129.714844 390.785156 139.214844 400.285156 139.214844 412 "/>
<path style="fill-rule:nonzero;fill:rgb(55%,51%,53%);fill-opacity:1;stroke-width:1;stroke-linecap:butt;stroke-linejoin:miter;stroke:rgb(0%,0%,0%);stroke-opacity:1;stroke-miterlimit:10;" d="M 396.214844 102 C 396.214844 113.714844 386.714844 123.214844 375 123.214844 C 363.285156 123.214844 353.785156 113.714844 353.785156 102 C 353.785156 90.285156 363.285156 80.785156 375 80.785156 C 386.714844 80.785156 396.214844 90.285156 396.214844 102 "/>
<path style="fill-rule:nonzero;fill:rgb(67%,100%,18%);fill-opacity:1;stroke-width:1;stroke-linecap:butt;stroke-linejoin:miter;stroke:rgb(0%,0%,0%);stroke-opacity:1;stroke-miterlimit:10;" d="M 860 258 L 834.019531 303 L 885.980469 303 L 860 258 "/>
<path style="fill-rule:nonzero;fill:rgb(67%,100%,18%);fill-opacity:1;stroke-width:1;stroke-linecap:butt;stroke-linejoin:miter;stroke:rgb(0%,0%,0%);stroke-opacity:1;stroke-miterlimit:10;" d="M 857 381 L 831.019531 426 L 882.980469 426 L 857 381 "/>
<path style="fill-rule:nonzero;fill:rgb(55%,51%,53%);fill-opacity:1;stroke-width:1;stroke-linecap:butt;stroke-linejoin:miter;stroke:rgb(0%,0%,0%);stroke-opacity:1;stroke-miterlimit:10;" d="M 897 164 L 871.019531 209 L 922.980469 209 L 897 164 "/>
<path style="fill-rule:nonzero;fill:rgb(55%,51%,53%);fill-opacity:1;stroke-width:1;stroke-linecap:butt;stroke-linejoin:miter;stroke:rgb(0%,0%,0%);stroke-opacity:1;stroke-miterlimit:10;" d="M 1003 172 L 977.019531 217 L 1028.980469 217 L 1003 172 "/>
<path style="fill-rule:nonzero;fill:rgb(67%,100%,18%);fill-opacity:1;stroke-width:1;stroke-linecap:butt;stroke-linejoin:miter;stroke:rgb(0%,0%,0%);stroke-opacity:1;stroke-miterlimit:10;" d="M 1017 365 L 991.019531 410 L 1042.980469 410 L 1017 365 "/>
<path style="fill-rule:nonzero;fill:rgb(67%,100%,18%);fill-opacity:1;stroke-width:1;stroke-linecap:butt;stroke-linejoin:miter;stroke:rgb(0%,0%,0%);stroke-opacity:1;stroke-miterlimit:10;" d="M 987 66 L 961.019531 111 L 1012.980469 111 L 987 66 "/>
</g>
</svg>
