<?xml version="1.0" encoding="UTF-8"?>
<svg xmlns="http://www.w3.org/2000/svg" xmlns:xlink="http://www.w3.org/1999/xlink" width="1179pt" height="517pt" viewBox="0 0 1179 517" version="1.1">
<g id="surface491">
<rect x="0" y="0" width="1179" height="517" style="fill:rgb(90%,90%,90%);fill-opacity:1;stroke:none;"/>
<path style="fill-rule:nonzero;fill:rgb(100%,51%,0%);fill-opacity:1;stroke-width:1;stroke-linecap:butt;stroke-linejoin:miter;stroke:rgb(0%,0%,0%);stroke-opacity:1;stroke-miterlimit:10;" d="M 266 101 L 295.664062 101 L 307.664062 72.785156 L 319.664062 101 L 349.332031 101 L 325.332031 118.4375 L 333.417969 149.980469 L 307.664062 132.542969 L 281.914062 149.980469 L 294.214844 118.4375 L 266 101 "/>
<path style="fill-rule:nonzero;fill:rgb(100%,51%,0%);fill-opacity:1;stroke-width:1;stroke-linecap:butt;stroke-linejoin:miter;stroke:rgb(0%,0%,0%);stroke-opacity:1;stroke-miterlimit:10;" d="M 417 207 L 446.664062 207 L 458.664062 178.785156 L 470.664062 207 L 500.332031 207 L 476.332031 224.4375 L 484.417969 255.980469 L 458.664062 238.542969 L 432.914062 255.980469 L 445.214844 224.4375 L 417 207 "/>
<path style="fill-rule:nonzero;fill:rgb(100%,51%,0%);fill-opacity:1;stroke-width:1;stroke-linecap:butt;stroke-linejoin:miter;stroke:rgb(0%,0%,0%);stroke-opacity:1;stroke-miterlimit:10;" d="M 158.785156 408.785156 L 158.785156 451.214844 L 201.214844 451.214844 L 201.214844 408.785156 L 158.785156 408.785156 "/>
<path style="fill-rule:nonzero;fill:rgb(100%,51%,0%);fill-opacity:1;stroke-width:1;stroke-linecap:butt;stroke-linejoin:miter;stroke:rgb(0%,0%,0%);stroke-opacity:1;stroke-miterlimit:10;" d="M 337 407 L 366.664062 407 L 378.664062 378.785156 L 390.664062 407 L 420.332031 407 L 396.332031 424.4375 L 404.417969 455.980469 L 378.664062 438.542969 L 352.914062 455.980469 L 365.214844 424.4375 L 337 407 "/>
<path style="fill-rule:nonzero;fill:rgb(55%,51%,53%);fill-opacity:1;stroke-width:1;stroke-linecap:butt;stroke-linejoin:miter;stroke:rgb(0%,0%,0%);stroke-opacity:1;stroke-miterlimit:10;" d="M 786.785156 59.785156 L 786.785156 102.214844 L 829.214844 102.214844 L 829.214844 59.785156 L 786.785156 59.785156 "/>
<path style="fill-rule:nonzero;fill:rgb(55%,51%,53%);fill-opacity:1;stroke-width:1;stroke-linecap:butt;stroke-linejoin:miter;stroke:rgb(0%,0%,0%);stroke-opacity:1;stroke-miterlimit:10;" d="M 825.785156 371.785156 L 825.785156 414.214844 L 868.214844 414.214844 L 868.214844 371.785156 L 825.785156 371.785156 "/>
<path style="fill-rule:nonzero;fill:rgb(55%,51%,53%);fill-opacity:1;stroke-width:1;stroke-linecap:butt;stroke-linejoin:miter;stroke:rgb(0%,0%,0%);stroke-opacity:1;stroke-miterlimit:10;" d="M 1027 182 L 1056.664062 182 L 1068.664062 153.785156 L 1080.664062 182 L 1110.332031 182 L 1086.332031 199.4375 L 1094.417969 230.980469 L 1068.664062 213.542969 L 1042.914062 230.980469 L 1055.214844 199.4375 L 1027 182 "/>
<path style="fill-rule:nonzero;fill:rgb(55%,51%,53%);fill-opacity:1;stroke-width:1;stroke-linecap:butt;stroke-linejoin:miter;stroke:rgb(0%,0%,0%);stroke-opacity:1;stroke-miterlimit:10;" d="M 858.785156 209.785156 L 858.785156 252.214844 L 901.214844 252.214844 L 901.214844 209.785156 L 858.785156 209.785156 "/>
<path style="fill-rule:nonzero;fill:rgb(55%,51%,53%);fill-opacity:1;stroke-width:1;stroke-linecap:butt;stroke-linejoin:miter;stroke:rgb(0%,0%,0%);stroke-opacity:1;stroke-miterlimit:10;" d="M 937.785156 263.785156 L 937.785156 306.214844 L 980.214844 306.214844 L 980.214844 263.785156 L 937.785156 263.785156 "/>
<path style="fill-rule:nonzero;fill:rgb(55%,51%,53%);fill-opacity:1;stroke-width:1;stroke-linecap:butt;stroke-linejoin:miter;stroke:rgb(0%,0%,0%);stroke-opacity:1;stroke-miterlimit:10;" d="M 720.785156 126.785156 L 720.785156 169.214844 L 763.214844 169.214844 L 763.214844 126.785156 L 720.785156 126.785156 "/>
</g>
</svg>
