<?xml version="1.0" encoding="UTF-8"?>
<svg xmlns="http://www.w3.org/2000/svg" xmlns:xlink="http://www.w3.org/1999/xlink" width="1179pt" height="517pt" viewBox="0 0 1179 517" version="1.1">
<g id="surface426">
<rect x="0" y="0" width="1179" height="517" style="fill:rgb(90%,90%,90%);fill-opacity:1;stroke:none;"/>
<path style="fill-rule:nonzero;fill:rgb(35%,70%,90%);fill-opacity:1;stroke-width:1;stroke-linecap:butt;stroke-linejoin:miter;stroke:rgb(0%,0%,0%);stroke-opacity:1;stroke-miterlimit:10;" d="M 105 224 L 134.664062 224 L 146.664062 195.785156 L 158.664062 224 L 188.332031 224 L 164.332031 241.4375 L 172.417969 272.980469 L 146.664062 255.542969 L 120.914062 272.980469 L 133.214844 241.4375 L 105 224 "/>
<path style="fill-rule:nonzero;fill:rgb(35%,70%,90%);fill-opacity:1;stroke-width:1;stroke-linecap:butt;stroke-linejoin:miter;stroke:rgb(0%,0%,0%);stroke-opacity:1;stroke-miterlimit:10;" d="M 391 394 L 420.664062 394 L 432.664062 365.785156 L 444.664062 394 L 474.332031 394 L 450.332031 411.4375 L 458.417969 442.980469 L 432.664062 425.542969 L 406.914062 442.980469 L 419.214844 411.4375 L 391 394 "/>
<path style="fill-rule:nonzero;fill:rgb(35%,70%,90%);fill-opacity:1;stroke-width:1;stroke-linecap:butt;stroke-linejoin:miter;stroke:rgb(0%,0%,0%);stroke-opacity:1;stroke-miterlimit:10;" d="M 233 330 L 262.664062 330 L 274.664062 301.785156 L 286.664062 330 L 316.332031 330 L 292.332031 347.4375 L 300.417969 378.980469 L 274.664062 361.542969 L 248.914062 378.980469 L 261.214844 347.4375 L 233 330 "/>
<path style="fill-rule:nonzero;fill:rgb(55%,51%,53%);fill-opacity:1;stroke-width:1;stroke-linecap:butt;stroke-linejoin:miter;stroke:rgb(0%,0%,0%);stroke-opacity:1;stroke-miterlimit:10;" d="M 383 112 L 357.019531 157 L 408.980469 157 L 383 112 "/>
<path style="fill-rule:nonzero;fill:rgb(55%,51%,53%);fill-opacity:1;stroke-width:1;stroke-linecap:butt;stroke-linejoin:miter;stroke:rgb(0%,0%,0%);stroke-opacity:1;stroke-miterlimit:10;" d="M 718 65 L 692.019531 110 L 743.980469 110 L 718 65 "/>
<path style="fill-rule:nonzero;fill:rgb(55%,51%,53%);fill-opacity:1;stroke-width:1;stroke-linecap:butt;stroke-linejoin:miter;stroke:rgb(0%,0%,0%);stroke-opacity:1;stroke-miterlimit:10;" d="M 744 401 L 718.019531 446 L 769.980469 446 L 744 401 "/>
<path style="fill-rule:nonzero;fill:rgb(35%,70%,90%);fill-opacity:1;stroke-width:1;stroke-linecap:butt;stroke-linejoin:miter;stroke:rgb(0%,0%,0%);stroke-opacity:1;stroke-miterlimit:10;" d="M 885 148 L 914.664062 148 L 926.664062 119.785156 L 938.664062 148 L 968.332031 148 L 944.332031 165.4375 L 952.417969 196.980469 L 926.664062 179.542969 L 900.914062 196.980469 L 913.214844 165.4375 L 885 148 "/>
<path style="fill-rule:nonzero;fill:rgb(35%,70%,90%);fill-opacity:1;stroke-width:1;stroke-linecap:butt;stroke-linejoin:miter;stroke:rgb(0%,0%,0%);stroke-opacity:1;stroke-miterlimit:10;" d="M 927 408 L 956.664062 408 L 968.664062 379.785156 L 980.664062 408 L 1010.332031 408 L 986.332031 425.4375 L 994.417969 456.980469 L 968.664062 439.542969 L 942.914062 456.980469 L 955.214844 425.4375 L 927 408 "/>
<path style="fill-rule:nonzero;fill:rgb(35%,70%,90%);fill-opacity:1;stroke-width:1;stroke-linecap:butt;stroke-linejoin:miter;stroke:rgb(0%,0%,0%);stroke-opacity:1;stroke-miterlimit:10;" d="M 1021 326 L 1050.664062 326 L 1062.664062 297.785156 L 1074.664062 326 L 1104.332031 326 L 1080.332031 343.4375 L 1088.417969 374.980469 L 1062.664062 357.542969 L 1036.914062 374.980469 L 1049.214844 343.4375 L 1021 326 "/>
</g>
</svg>
