<?xml version="1.0" encoding="UTF-8"?>
<svg xmlns="http://www.w3.org/2000/svg" xmlns:xlink="http://www.w3.org/1999/xlink" width="1129pt" height="517pt" viewBox="0 0 1129 517" version="1.1">
<g id="surface961">
<rect x="0" y="0" width="1129" height="517" style="fill:rgb(90%,90%,90%);fill-opacity:1;stroke:none;"/>
<path style="fill-rule:nonzero;fill:rgb(53%,27%,7%);fill-opacity:1;stroke-width:1;stroke-linecap:butt;stroke-linejoin:miter;stroke:rgb(0%,0%,0%);stroke-opacity:1;stroke-miterlimit:10;" d="M 829 381 L 858.664062 381 L 870.664062 352.785156 L 882.664062 381 L 912.332031 381 L 888.332031 398.4375 L 896.417969 429.980469 L 870.664062 412.542969 L 844.914062 429.980469 L 857.214844 398.4375 L 829 381 "/>
<path style="fill-rule:nonzero;fill:rgb(53%,27%,7%);fill-opacity:1;stroke-width:1;stroke-linecap:butt;stroke-linejoin:miter;stroke:rgb(0%,0%,0%);stroke-opacity:1;stroke-miterlimit:10;" d="M 927 203 L 956.664062 203 L 968.664062 174.785156 L 980.664062 203 L 1010.332031 203 L 986.332031 220.4375 L 994.417969 251.980469 L 968.664062 234.542969 L 942.914062 251.980469 L 955.214844 220.4375 L 927 203 "/>
<path style="fill-rule:nonzero;fill:rgb(53%,27%,7%);fill-opacity:1;stroke-width:1;stroke-linecap:butt;stroke-linejoin:miter;stroke:rgb(0%,0%,0%);stroke-opacity:1;stroke-miterlimit:10;" d="M 702 393 L 731.664062 393 L 743.664062 364.785156 L 755.664062 393 L 785.332031 393 L 761.332031 410.4375 L 769.417969 441.980469 L 743.664062 424.542969 L 717.914062 441.980469 L 730.214844 410.4375 L 702 393 "/>
<path style="fill-rule:nonzero;fill:rgb(53%,27%,7%);fill-opacity:1;stroke-width:1;stroke-linecap:butt;stroke-linejoin:miter;stroke:rgb(0%,0%,0%);stroke-opacity:1;stroke-miterlimit:10;" d="M 550 127 L 579.664062 127 L 591.664062 98.785156 L 603.664062 127 L 633.332031 127 L 609.332031 144.4375 L 617.417969 175.980469 L 591.664062 158.542969 L 565.914062 175.980469 L 578.214844 144.4375 L 550 127 "/>
<path style="fill-rule:nonzero;fill:rgb(53%,27%,7%);fill-opacity:1;stroke-width:1;stroke-linecap:butt;stroke-linejoin:miter;stroke:rgb(0%,0%,0%);stroke-opacity:1;stroke-miterlimit:10;" d="M 464 187 L 493.664062 187 L 505.664062 158.785156 L 517.664062 187 L 547.332031 187 L 523.332031 204.4375 L 531.417969 235.980469 L 505.664062 218.542969 L 479.914062 235.980469 L 492.214844 204.4375 L 464 187 "/>
<path style="fill-rule:nonzero;fill:rgb(55%,51%,53%);fill-opacity:1;stroke-width:1;stroke-linecap:butt;stroke-linejoin:miter;stroke:rgb(0%,0%,0%);stroke-opacity:1;stroke-miterlimit:10;" d="M 340 256 L 369.664062 256 L 381.664062 227.785156 L 393.664062 256 L 423.332031 256 L 399.332031 273.4375 L 407.417969 304.980469 L 381.664062 287.542969 L 355.914062 304.980469 L 368.214844 273.4375 L 340 256 "/>
<path style="fill-rule:nonzero;fill:rgb(55%,51%,53%);fill-opacity:1;stroke-width:1;stroke-linecap:butt;stroke-linejoin:miter;stroke:rgb(0%,0%,0%);stroke-opacity:1;stroke-miterlimit:10;" d="M 573 415 L 602.664062 415 L 614.664062 386.785156 L 626.664062 415 L 656.332031 415 L 632.332031 432.4375 L 640.417969 463.980469 L 614.664062 446.542969 L 588.914062 463.980469 L 601.214844 432.4375 L 573 415 "/>
<path style="fill-rule:nonzero;fill:rgb(55%,51%,53%);fill-opacity:1;stroke-width:1;stroke-linecap:butt;stroke-linejoin:miter;stroke:rgb(0%,0%,0%);stroke-opacity:1;stroke-miterlimit:10;" d="M 724 68 L 753.664062 68 L 765.664062 39.785156 L 777.664062 68 L 807.332031 68 L 783.332031 85.4375 L 791.417969 116.980469 L 765.664062 99.542969 L 739.914062 116.980469 L 752.214844 85.4375 L 724 68 "/>
<path style="fill-rule:nonzero;fill:rgb(55%,51%,53%);fill-opacity:1;stroke-width:1;stroke-linecap:butt;stroke-linejoin:miter;stroke:rgb(0%,0%,0%);stroke-opacity:1;stroke-miterlimit:10;" d="M 742 237 L 771.664062 237 L 783.664062 208.785156 L 795.664062 237 L 825.332031 237 L 801.332031 254.4375 L 809.417969 285.980469 L 783.664062 268.542969 L 757.914062 285.980469 L 770.214844 254.4375 L 742 237 "/>
<path style="fill-rule:nonzero;fill:rgb(55%,51%,53%);fill-opacity:1;stroke-width:1;stroke-linecap:butt;stroke-linejoin:miter;stroke:rgb(0%,0%,0%);stroke-opacity:1;stroke-miterlimit:10;" d="M 178 269 L 207.664062 269 L 219.664062 240.785156 L 231.664062 269 L 261.332031 269 L 237.332031 286.4375 L 245.417969 317.980469 L 219.664062 300.542969 L 193.914062 317.980469 L 206.214844 286.4375 L 178 269 "/>
<path style="fill-rule:nonzero;fill:rgb(55%,51%,53%);fill-opacity:1;stroke-width:1;stroke-linecap:butt;stroke-linejoin:miter;stroke:rgb(0%,0%,0%);stroke-opacity:1;stroke-miterlimit:10;" d="M 386 106 L 415.664062 106 L 427.664062 77.785156 L 439.664062 106 L 469.332031 106 L 445.332031 123.4375 L 453.417969 154.980469 L 427.664062 137.542969 L 401.914062 154.980469 L 414.214844 123.4375 L 386 106 "/>
<path style="fill-rule:nonzero;fill:rgb(55%,51%,53%);fill-opacity:1;stroke-width:1;stroke-linecap:butt;stroke-linejoin:miter;stroke:rgb(0%,0%,0%);stroke-opacity:1;stroke-miterlimit:10;" d="M 377 430 L 406.664062 430 L 418.664062 401.785156 L 430.664062 430 L 460.332031 430 L 436.332031 447.4375 L 444.417969 478.980469 L 418.664062 461.542969 L 392.914062 478.980469 L 405.214844 447.4375 L 377 430 "/>
<path style="fill-rule:nonzero;fill:rgb(55%,51%,53%);fill-opacity:1;stroke-width:1;stroke-linecap:butt;stroke-linejoin:miter;stroke:rgb(0%,0%,0%);stroke-opacity:1;stroke-miterlimit:10;" d="M 926 382 L 955.664062 382 L 967.664062 353.785156 L 979.664062 382 L 1009.332031 382 L 985.332031 399.4375 L 993.417969 430.980469 L 967.664062 413.542969 L 941.914062 430.980469 L 954.214844 399.4375 L 926 382 "/>
</g>
</svg>
