<?xml version="1.0" encoding="UTF-8"?>
<svg xmlns="http://www.w3.org/2000/svg" xmlns:xlink="http://www.w3.org/1999/xlink" width="1129pt" height="517pt" viewBox="0 0 1129 517" version="1.1">
<g id="surface946">
<rect x="0" y="0" width="1129" height="517" style="fill:rgb(90%,90%,90%);fill-opacity:1;stroke:none;"/>
<path style="fill-rule:nonzero;fill:rgb(53%,27%,7%);fill-opacity:1;stroke-width:1;stroke-linecap:butt;stroke-linejoin:miter;stroke:rgb(0%,0%,0%);stroke-opacity:1;stroke-miterlimit:10;" d="M 627 439.601562 C 627 425.199219 603 425.199219 603 439.601562 C 603 454 627 456.398438 627 468.398438 C 627 456.398438 651 454 651 439.601562 C 651 425.199219 627 425.199219 627 439.601562 "/>
<path style="fill-rule:nonzero;fill:rgb(53%,27%,7%);fill-opacity:1;stroke-width:1;stroke-linecap:butt;stroke-linejoin:miter;stroke:rgb(0%,0%,0%);stroke-opacity:1;stroke-miterlimit:10;" d="M 636 83.601562 C 636 69.199219 612 69.199219 612 83.601562 C 612 98 636 100.398438 636 112.398438 C 636 100.398438 660 98 660 83.601562 C 660 69.199219 636 69.199219 636 83.601562 "/>
<path style="fill-rule:nonzero;fill:rgb(53%,27%,7%);fill-opacity:1;stroke-width:1;stroke-linecap:butt;stroke-linejoin:miter;stroke:rgb(0%,0%,0%);stroke-opacity:1;stroke-miterlimit:10;" d="M 344 259.601562 C 344 245.199219 320 245.199219 320 259.601562 C 320 274 344 276.398438 344 288.398438 C 344 276.398438 368 274 368 259.601562 C 368 245.199219 344 245.199219 344 259.601562 "/>
<path style="fill-rule:nonzero;fill:rgb(53%,27%,7%);fill-opacity:1;stroke-width:1;stroke-linecap:butt;stroke-linejoin:miter;stroke:rgb(0%,0%,0%);stroke-opacity:1;stroke-miterlimit:10;" d="M 60 60.601562 C 60 46.199219 36 46.199219 36 60.601562 C 36 75 60 77.398438 60 89.398438 C 60 77.398438 84 75 84 60.601562 C 84 46.199219 60 46.199219 60 60.601562 "/>
<path style="fill-rule:nonzero;fill:rgb(53%,27%,7%);fill-opacity:1;stroke-width:1;stroke-linecap:butt;stroke-linejoin:miter;stroke:rgb(0%,0%,0%);stroke-opacity:1;stroke-miterlimit:10;" d="M 455 359.601562 C 455 345.199219 431 345.199219 431 359.601562 C 431 374 455 376.398438 455 388.398438 C 455 376.398438 479 374 479 359.601562 C 479 345.199219 455 345.199219 455 359.601562 "/>
<path style="fill-rule:nonzero;fill:rgb(100%,51%,0%);fill-opacity:1;stroke-width:1;stroke-linecap:butt;stroke-linejoin:miter;stroke:rgb(0%,0%,0%);stroke-opacity:1;stroke-miterlimit:10;" d="M 232.214844 281 C 232.214844 292.714844 222.714844 302.214844 211 302.214844 C 199.285156 302.214844 189.785156 292.714844 189.785156 281 C 189.785156 269.285156 199.285156 259.785156 211 259.785156 C 222.714844 259.785156 232.214844 269.285156 232.214844 281 "/>
<path style="fill-rule:nonzero;fill:rgb(100%,51%,0%);fill-opacity:1;stroke-width:1;stroke-linecap:butt;stroke-linejoin:miter;stroke:rgb(0%,0%,0%);stroke-opacity:1;stroke-miterlimit:10;" d="M 909.214844 256 C 909.214844 267.714844 899.714844 277.214844 888 277.214844 C 876.285156 277.214844 866.785156 267.714844 866.785156 256 C 866.785156 244.285156 876.285156 234.785156 888 234.785156 C 899.714844 234.785156 909.214844 244.285156 909.214844 256 "/>
<path style="fill-rule:nonzero;fill:rgb(100%,51%,0%);fill-opacity:1;stroke-width:1;stroke-linecap:butt;stroke-linejoin:miter;stroke:rgb(0%,0%,0%);stroke-opacity:1;stroke-miterlimit:10;" d="M 237.214844 96 C 237.214844 107.714844 227.714844 117.214844 216 117.214844 C 204.285156 117.214844 194.785156 107.714844 194.785156 96 C 194.785156 84.285156 204.285156 74.785156 216 74.785156 C 227.714844 74.785156 237.214844 84.285156 237.214844 96 "/>
<path style="fill-rule:nonzero;fill:rgb(100%,51%,0%);fill-opacity:1;stroke-width:1;stroke-linecap:butt;stroke-linejoin:miter;stroke:rgb(0%,0%,0%);stroke-opacity:1;stroke-miterlimit:10;" d="M 545.214844 462 C 545.214844 473.714844 535.714844 483.214844 524 483.214844 C 512.285156 483.214844 502.785156 473.714844 502.785156 462 C 502.785156 450.285156 512.285156 440.785156 524 440.785156 C 535.714844 440.785156 545.214844 450.285156 545.214844 462 "/>
<path style="fill-rule:nonzero;fill:rgb(100%,51%,0%);fill-opacity:1;stroke-width:1;stroke-linecap:butt;stroke-linejoin:miter;stroke:rgb(0%,0%,0%);stroke-opacity:1;stroke-miterlimit:10;" d="M 509.214844 60 C 509.214844 71.714844 499.714844 81.214844 488 81.214844 C 476.285156 81.214844 466.785156 71.714844 466.785156 60 C 466.785156 48.285156 476.285156 38.785156 488 38.785156 C 499.714844 38.785156 509.214844 48.285156 509.214844 60 "/>
<path style="fill-rule:nonzero;fill:rgb(100%,51%,0%);fill-opacity:1;stroke-width:1;stroke-linecap:butt;stroke-linejoin:miter;stroke:rgb(0%,0%,0%);stroke-opacity:1;stroke-miterlimit:10;" d="M 180.214844 386 C 180.214844 397.714844 170.714844 407.214844 159 407.214844 C 147.285156 407.214844 137.785156 397.714844 137.785156 386 C 137.785156 374.285156 147.285156 364.785156 159 364.785156 C 170.714844 364.785156 180.214844 374.285156 180.214844 386 "/>
<path style="fill-rule:nonzero;fill:rgb(100%,51%,0%);fill-opacity:1;stroke-width:1;stroke-linecap:butt;stroke-linejoin:miter;stroke:rgb(0%,0%,0%);stroke-opacity:1;stroke-miterlimit:10;" d="M 320.214844 163 C 320.214844 174.714844 310.714844 184.214844 299 184.214844 C 287.285156 184.214844 277.785156 174.714844 277.785156 163 C 277.785156 151.285156 287.285156 141.785156 299 141.785156 C 310.714844 141.785156 320.214844 151.285156 320.214844 163 "/>
<path style="fill-rule:nonzero;fill:rgb(100%,51%,0%);fill-opacity:1;stroke-width:1;stroke-linecap:butt;stroke-linejoin:miter;stroke:rgb(0%,0%,0%);stroke-opacity:1;stroke-miterlimit:10;" d="M 800.214844 181 C 800.214844 192.714844 790.714844 202.214844 779 202.214844 C 767.285156 202.214844 757.785156 192.714844 757.785156 181 C 757.785156 169.285156 767.285156 159.785156 779 159.785156 C 790.714844 159.785156 800.214844 169.285156 800.214844 181 "/>
</g>
</svg>
