<?xml version="1.0" encoding="UTF-8"?>
<svg xmlns="http://www.w3.org/2000/svg" xmlns:xlink="http://www.w3.org/1999/xlink" width="1179pt" height="517pt" viewBox="0 0 1179 517" version="1.1">
<g id="surface186">
<rect x="0" y="0" width="1179" height="517" style="fill:rgb(90%,90%,90%);fill-opacity:1;stroke:none;"/>
<path style="fill-rule:nonzero;fill:rgb(100%,51%,0%);fill-opacity:1;stroke-width:1;stroke-linecap:butt;stroke-linejoin:miter;stroke:rgb(0%,0%,0%);stroke-opacity:1;stroke-miterlimit:10;" d="M 339 222 L 313.019531 267 L 364.980469 267 L 339 222 "/>
<path style="fill-rule:nonzero;fill:rgb(35%,70%,90%);fill-opacity:1;stroke-width:1;stroke-linecap:butt;stroke-linejoin:miter;stroke:rgb(0%,0%,0%);stroke-opacity:1;stroke-miterlimit:10;" d="M 249 284 L 278.664062 284 L 290.664062 255.785156 L 302.664062 284 L 332.332031 284 L 308.332031 301.4375 L 316.417969 332.980469 L 290.664062 315.542969 L 264.914062 332.980469 L 277.214844 301.4375 L 249 284 "/>
<path style="fill-rule:nonzero;fill:rgb(35%,70%,90%);fill-opacity:1;stroke-width:1;stroke-linecap:butt;stroke-linejoin:miter;stroke:rgb(0%,0%,0%);stroke-opacity:1;stroke-miterlimit:10;" d="M 333 90 L 362.664062 90 L 374.664062 61.785156 L 386.664062 90 L 416.332031 90 L 392.332031 107.4375 L 400.417969 138.980469 L 374.664062 121.542969 L 348.914062 138.980469 L 361.214844 107.4375 L 333 90 "/>
<path style="fill-rule:nonzero;fill:rgb(35%,70%,90%);fill-opacity:1;stroke-width:1;stroke-linecap:butt;stroke-linejoin:miter;stroke:rgb(0%,0%,0%);stroke-opacity:1;stroke-miterlimit:10;" d="M 163 402 L 192.664062 402 L 204.664062 373.785156 L 216.664062 402 L 246.332031 402 L 222.332031 419.4375 L 230.417969 450.980469 L 204.664062 433.542969 L 178.914062 450.980469 L 191.214844 419.4375 L 163 402 "/>
<path style="fill-rule:nonzero;fill:rgb(35%,70%,90%);fill-opacity:1;stroke-width:1;stroke-linecap:butt;stroke-linejoin:miter;stroke:rgb(0%,0%,0%);stroke-opacity:1;stroke-miterlimit:10;" d="M 394 417 L 423.664062 417 L 435.664062 388.785156 L 447.664062 417 L 477.332031 417 L 453.332031 434.4375 L 461.417969 465.980469 L 435.664062 448.542969 L 409.914062 465.980469 L 422.214844 434.4375 L 394 417 "/>
<path style="fill-rule:nonzero;fill:rgb(100%,51%,0%);fill-opacity:1;stroke-width:1;stroke-linecap:butt;stroke-linejoin:miter;stroke:rgb(0%,0%,0%);stroke-opacity:1;stroke-miterlimit:10;" d="M 150 201 L 124.019531 246 L 175.980469 246 L 150 201 "/>
<path style="fill-rule:nonzero;fill:rgb(35%,70%,90%);fill-opacity:1;stroke-width:1;stroke-linecap:butt;stroke-linejoin:miter;stroke:rgb(0%,0%,0%);stroke-opacity:1;stroke-miterlimit:10;" d="M 147 113 L 176.664062 113 L 188.664062 84.785156 L 200.664062 113 L 230.332031 113 L 206.332031 130.4375 L 214.417969 161.980469 L 188.664062 144.542969 L 162.914062 161.980469 L 175.214844 130.4375 L 147 113 "/>
<path style="fill-rule:nonzero;fill:rgb(100%,51%,0%);fill-opacity:1;stroke-width:1;stroke-linecap:butt;stroke-linejoin:miter;stroke:rgb(0%,0%,0%);stroke-opacity:1;stroke-miterlimit:10;" d="M 794 281 L 768.019531 326 L 819.980469 326 L 794 281 "/>
<path style="fill-rule:nonzero;fill:rgb(100%,51%,0%);fill-opacity:1;stroke-width:1;stroke-linecap:butt;stroke-linejoin:miter;stroke:rgb(0%,0%,0%);stroke-opacity:1;stroke-miterlimit:10;" d="M 846 84 L 820.019531 129 L 871.980469 129 L 846 84 "/>
<path style="fill-rule:nonzero;fill:rgb(100%,51%,0%);fill-opacity:1;stroke-width:1;stroke-linecap:butt;stroke-linejoin:miter;stroke:rgb(0%,0%,0%);stroke-opacity:1;stroke-miterlimit:10;" d="M 753 190 L 727.019531 235 L 778.980469 235 L 753 190 "/>
<path style="fill-rule:nonzero;fill:rgb(35%,70%,90%);fill-opacity:1;stroke-width:1;stroke-linecap:butt;stroke-linejoin:miter;stroke:rgb(0%,0%,0%);stroke-opacity:1;stroke-miterlimit:10;" d="M 705 120 L 734.664062 120 L 746.664062 91.785156 L 758.664062 120 L 788.332031 120 L 764.332031 137.4375 L 772.417969 168.980469 L 746.664062 151.542969 L 720.914062 168.980469 L 733.214844 137.4375 L 705 120 "/>
<path style="fill-rule:nonzero;fill:rgb(35%,70%,90%);fill-opacity:1;stroke-width:1;stroke-linecap:butt;stroke-linejoin:miter;stroke:rgb(0%,0%,0%);stroke-opacity:1;stroke-miterlimit:10;" d="M 972 325 L 1001.664062 325 L 1013.664062 296.785156 L 1025.664062 325 L 1055.332031 325 L 1031.332031 342.4375 L 1039.417969 373.980469 L 1013.664062 356.542969 L 987.914062 373.980469 L 1000.214844 342.4375 L 972 325 "/>
</g>
</svg>
