<?xml version="1.0" encoding="UTF-8"?>
<svg xmlns="http://www.w3.org/2000/svg" xmlns:xlink="http://www.w3.org/1999/xlink" width="1129pt" height="517pt" viewBox="0 0 1129 517" version="1.1">
<g id="surface261">
<rect x="0" y="0" width="1129" height="517" style="fill:rgb(90%,90%,90%);fill-opacity:1;stroke:none;"/>
<path style="fill-rule:nonzero;fill:rgb(35%,70%,90%);fill-opacity:1;stroke-width:1;stroke-linecap:butt;stroke-linejoin:miter;stroke:rgb(0%,0%,0%);stroke-opacity:1;stroke-miterlimit:10;" d="M 313.214844 403 C 313.214844 414.714844 303.714844 424.214844 292 424.214844 C 280.285156 424.214844 270.785156 414.714844 270.785156 403 C 270.785156 391.285156 280.285156 381.785156 292 381.785156 C 303.714844 381.785156 313.214844 391.285156 313.214844 403 "/>
<path style="fill-rule:nonzero;fill:rgb(35%,70%,90%);fill-opacity:1;stroke-width:1;stroke-linecap:butt;stroke-linejoin:miter;stroke:rgb(0%,0%,0%);stroke-opacity:1;stroke-miterlimit:10;" d="M 420.214844 257 C 420.214844 268.714844 410.714844 278.214844 399 278.214844 C 387.285156 278.214844 377.785156 268.714844 377.785156 257 C 377.785156 245.285156 387.285156 235.785156 399 235.785156 C 410.714844 235.785156 420.214844 245.285156 420.214844 257 "/>
<path style="fill-rule:nonzero;fill:rgb(35%,70%,90%);fill-opacity:1;stroke-width:1;stroke-linecap:butt;stroke-linejoin:miter;stroke:rgb(0%,0%,0%);stroke-opacity:1;stroke-miterlimit:10;" d="M 200.785156 210.785156 L 200.785156 253.214844 L 243.214844 253.214844 L 243.214844 210.785156 L 200.785156 210.785156 "/>
<path style="fill-rule:nonzero;fill:rgb(35%,70%,90%);fill-opacity:1;stroke-width:1;stroke-linecap:butt;stroke-linejoin:miter;stroke:rgb(0%,0%,0%);stroke-opacity:1;stroke-miterlimit:10;" d="M 267.785156 129.785156 L 267.785156 172.214844 L 310.214844 172.214844 L 310.214844 129.785156 L 267.785156 129.785156 "/>
<path style="fill-rule:nonzero;fill:rgb(35%,70%,90%);fill-opacity:1;stroke-width:1;stroke-linecap:butt;stroke-linejoin:miter;stroke:rgb(0%,0%,0%);stroke-opacity:1;stroke-miterlimit:10;" d="M 449.214844 380 C 449.214844 391.714844 439.714844 401.214844 428 401.214844 C 416.285156 401.214844 406.785156 391.714844 406.785156 380 C 406.785156 368.285156 416.285156 358.785156 428 358.785156 C 439.714844 358.785156 449.214844 368.285156 449.214844 380 "/>
<path style="fill-rule:nonzero;fill:rgb(55%,51%,53%);fill-opacity:1;stroke-width:1;stroke-linecap:butt;stroke-linejoin:miter;stroke:rgb(0%,0%,0%);stroke-opacity:1;stroke-miterlimit:10;" d="M 799.785156 254.785156 L 799.785156 297.214844 L 842.214844 297.214844 L 842.214844 254.785156 L 799.785156 254.785156 "/>
<path style="fill-rule:nonzero;fill:rgb(55%,51%,53%);fill-opacity:1;stroke-width:1;stroke-linecap:butt;stroke-linejoin:miter;stroke:rgb(0%,0%,0%);stroke-opacity:1;stroke-miterlimit:10;" d="M 873.785156 389.785156 L 873.785156 432.214844 L 916.214844 432.214844 L 916.214844 389.785156 L 873.785156 389.785156 "/>
<path style="fill-rule:nonzero;fill:rgb(55%,51%,53%);fill-opacity:1;stroke-width:1;stroke-linecap:butt;stroke-linejoin:miter;stroke:rgb(0%,0%,0%);stroke-opacity:1;stroke-miterlimit:10;" d="M 868.214844 92 C 868.214844 103.714844 858.714844 113.214844 847 113.214844 C 835.285156 113.214844 825.785156 103.714844 825.785156 92 C 825.785156 80.285156 835.285156 70.785156 847 70.785156 C 858.714844 70.785156 868.214844 80.285156 868.214844 92 "/>
<path style="fill-rule:nonzero;fill:rgb(55%,51%,53%);fill-opacity:1;stroke-width:1;stroke-linecap:butt;stroke-linejoin:miter;stroke:rgb(0%,0%,0%);stroke-opacity:1;stroke-miterlimit:10;" d="M 677.214844 298 C 677.214844 309.714844 667.714844 319.214844 656 319.214844 C 644.285156 319.214844 634.785156 309.714844 634.785156 298 C 634.785156 286.285156 644.285156 276.785156 656 276.785156 C 667.714844 276.785156 677.214844 286.285156 677.214844 298 "/>
<path style="fill-rule:nonzero;fill:rgb(55%,51%,53%);fill-opacity:1;stroke-width:1;stroke-linecap:butt;stroke-linejoin:miter;stroke:rgb(0%,0%,0%);stroke-opacity:1;stroke-miterlimit:10;" d="M 875.785156 151.785156 L 875.785156 194.214844 L 918.214844 194.214844 L 918.214844 151.785156 L 875.785156 151.785156 "/>
<path style="fill-rule:nonzero;fill:rgb(55%,51%,53%);fill-opacity:1;stroke-width:1;stroke-linecap:butt;stroke-linejoin:miter;stroke:rgb(0%,0%,0%);stroke-opacity:1;stroke-miterlimit:10;" d="M 924.785156 300.785156 L 924.785156 343.214844 L 967.214844 343.214844 L 967.214844 300.785156 L 924.785156 300.785156 "/>
<path style="fill-rule:nonzero;fill:rgb(55%,51%,53%);fill-opacity:1;stroke-width:1;stroke-linecap:butt;stroke-linejoin:miter;stroke:rgb(0%,0%,0%);stroke-opacity:1;stroke-miterlimit:10;" d="M 764.785156 375.785156 L 764.785156 418.214844 L 807.214844 418.214844 L 807.214844 375.785156 L 764.785156 375.785156 "/>
</g>
</svg>
