<?xml version="1.0" encoding="UTF-8"?>
<svg xmlns="http://www.w3.org/2000/svg" xmlns:xlink="http://www.w3.org/1999/xlink" width="1129pt" height="517pt" viewBox="0 0 1129 517" version="1.1">
<g id="surface666">
<rect x="0" y="0" width="1129" height="517" style="fill:rgb(90%,90%,90%);fill-opacity:1;stroke:none;"/>
<path style="fill-rule:nonzero;fill:rgb(100%,51%,0%);fill-opacity:1;stroke-width:1;stroke-linecap:butt;stroke-linejoin:miter;stroke:rgb(0%,0%,0%);stroke-opacity:1;stroke-miterlimit:10;" d="M 624 150 L 653.664062 150 L 665.664062 121.785156 L 677.664062 150 L 707.332031 150 L 683.332031 167.4375 L 691.417969 198.980469 L 665.664062 181.542969 L 639.914062 198.980469 L 652.214844 167.4375 L 624 150 "/>
<path style="fill-rule:nonzero;fill:rgb(100%,51%,0%);fill-opacity:1;stroke-width:1;stroke-linecap:butt;stroke-linejoin:miter;stroke:rgb(0%,0%,0%);stroke-opacity:1;stroke-miterlimit:10;" d="M 544 76 L 573.664062 76 L 585.664062 47.785156 L 597.664062 76 L 627.332031 76 L 603.332031 93.4375 L 611.417969 124.980469 L 585.664062 107.542969 L 559.914062 124.980469 L 572.214844 93.4375 L 544 76 "/>
<path style="fill-rule:nonzero;fill:rgb(100%,51%,0%);fill-opacity:1;stroke-width:1;stroke-linecap:butt;stroke-linejoin:miter;stroke:rgb(0%,0%,0%);stroke-opacity:1;stroke-miterlimit:10;" d="M 871 375 L 900.664062 375 L 912.664062 346.785156 L 924.664062 375 L 954.332031 375 L 930.332031 392.4375 L 938.417969 423.980469 L 912.664062 406.542969 L 886.914062 423.980469 L 899.214844 392.4375 L 871 375 "/>
<path style="fill-rule:nonzero;fill:rgb(100%,51%,0%);fill-opacity:1;stroke-width:1;stroke-linecap:butt;stroke-linejoin:miter;stroke:rgb(0%,0%,0%);stroke-opacity:1;stroke-miterlimit:10;" d="M 163 416 L 192.664062 416 L 204.664062 387.785156 L 216.664062 416 L 246.332031 416 L 222.332031 433.4375 L 230.417969 464.980469 L 204.664062 447.542969 L 178.914062 464.980469 L 191.214844 433.4375 L 163 416 "/>
<path style="fill-rule:nonzero;fill:rgb(100%,51%,0%);fill-opacity:1;stroke-width:1;stroke-linecap:butt;stroke-linejoin:miter;stroke:rgb(0%,0%,0%);stroke-opacity:1;stroke-miterlimit:10;" d="M 966 373 L 995.664062 373 L 1007.664062 344.785156 L 1019.664062 373 L 1049.332031 373 L 1025.332031 390.4375 L 1033.417969 421.980469 L 1007.664062 404.542969 L 981.914062 421.980469 L 994.214844 390.4375 L 966 373 "/>
<path style="fill-rule:nonzero;fill:rgb(100%,51%,0%);fill-opacity:1;stroke-width:1;stroke-linecap:butt;stroke-linejoin:miter;stroke:rgb(0%,0%,0%);stroke-opacity:1;stroke-miterlimit:10;" d="M 177 165 L 206.664062 165 L 218.664062 136.785156 L 230.664062 165 L 260.332031 165 L 236.332031 182.4375 L 244.417969 213.980469 L 218.664062 196.542969 L 192.914062 213.980469 L 205.214844 182.4375 L 177 165 "/>
<path style="fill-rule:nonzero;fill:rgb(100%,51%,0%);fill-opacity:1;stroke-width:1;stroke-linecap:butt;stroke-linejoin:miter;stroke:rgb(0%,0%,0%);stroke-opacity:1;stroke-miterlimit:10;" d="M 308 127 L 337.664062 127 L 349.664062 98.785156 L 361.664062 127 L 391.332031 127 L 367.332031 144.4375 L 375.417969 175.980469 L 349.664062 158.542969 L 323.914062 175.980469 L 336.214844 144.4375 L 308 127 "/>
<path style="fill-rule:nonzero;fill:rgb(55%,51%,53%);fill-opacity:1;stroke-width:1;stroke-linecap:butt;stroke-linejoin:miter;stroke:rgb(0%,0%,0%);stroke-opacity:1;stroke-miterlimit:10;" d="M 637 423 L 611.019531 468 L 662.980469 468 L 637 423 "/>
<path style="fill-rule:nonzero;fill:rgb(55%,51%,53%);fill-opacity:1;stroke-width:1;stroke-linecap:butt;stroke-linejoin:miter;stroke:rgb(0%,0%,0%);stroke-opacity:1;stroke-miterlimit:10;" d="M 434 103 L 408.019531 148 L 459.980469 148 L 434 103 "/>
<path style="fill-rule:nonzero;fill:rgb(55%,51%,53%);fill-opacity:1;stroke-width:1;stroke-linecap:butt;stroke-linejoin:miter;stroke:rgb(0%,0%,0%);stroke-opacity:1;stroke-miterlimit:10;" d="M 751 387 L 725.019531 432 L 776.980469 432 L 751 387 "/>
<path style="fill-rule:nonzero;fill:rgb(55%,51%,53%);fill-opacity:1;stroke-width:1;stroke-linecap:butt;stroke-linejoin:miter;stroke:rgb(0%,0%,0%);stroke-opacity:1;stroke-miterlimit:10;" d="M 923 109 L 897.019531 154 L 948.980469 154 L 923 109 "/>
<path style="fill-rule:nonzero;fill:rgb(55%,51%,53%);fill-opacity:1;stroke-width:1;stroke-linecap:butt;stroke-linejoin:miter;stroke:rgb(0%,0%,0%);stroke-opacity:1;stroke-miterlimit:10;" d="M 758 20 L 732.019531 65 L 783.980469 65 L 758 20 "/>
<path style="fill-rule:nonzero;fill:rgb(55%,51%,53%);fill-opacity:1;stroke-width:1;stroke-linecap:butt;stroke-linejoin:miter;stroke:rgb(0%,0%,0%);stroke-opacity:1;stroke-miterlimit:10;" d="M 934 428 L 908.019531 473 L 959.980469 473 L 934 428 "/>
<path style="fill-rule:nonzero;fill:rgb(55%,51%,53%);fill-opacity:1;stroke-width:1;stroke-linecap:butt;stroke-linejoin:miter;stroke:rgb(0%,0%,0%);stroke-opacity:1;stroke-miterlimit:10;" d="M 255 418 L 229.019531 463 L 280.980469 463 L 255 418 "/>
</g>
</svg>
