<?xml version="1.0" encoding="UTF-8"?>
<svg xmlns="http://www.w3.org/2000/svg" xmlns:xlink="http://www.w3.org/1999/xlink" width="1129pt" height="517pt" viewBox="0 0 1129 517" version="1.1">
<g id="surface361">
<rect x="0" y="0" width="1129" height="517" style="fill:rgb(90%,90%,90%);fill-opacity:1;stroke:none;"/>
<path style="fill-rule:nonzero;fill:rgb(35%,70%,90%);fill-opacity:1;stroke-width:1;stroke-linecap:butt;stroke-linejoin:miter;stroke:rgb(0%,0%,0%);stroke-opacity:1;stroke-miterlimit:10;" d="M 755 113 L 784.664062 113 L 796.664062 84.785156 L 808.664062 113 L 838.332031 113 L 814.332031 130.4375 L 822.417969 161.980469 L 796.664062 144.542969 L 770.914062 161.980469 L 783.214844 130.4375 L 755 113 "/>
<path style="fill-rule:nonzero;fill:rgb(35%,70%,90%);fill-opacity:1;stroke-width:1;stroke-linecap:butt;stroke-linejoin:miter;stroke:rgb(0%,0%,0%);stroke-opacity:1;stroke-miterlimit:10;" d="M 652 217 L 681.664062 217 L 693.664062 188.785156 L 705.664062 217 L 735.332031 217 L 711.332031 234.4375 L 719.417969 265.980469 L 693.664062 248.542969 L 667.914062 265.980469 L 680.214844 234.4375 L 652 217 "/>
<path style="fill-rule:nonzero;fill:rgb(35%,70%,90%);fill-opacity:1;stroke-width:1;stroke-linecap:butt;stroke-linejoin:miter;stroke:rgb(0%,0%,0%);stroke-opacity:1;stroke-miterlimit:10;" d="M 90 129 L 119.664062 129 L 131.664062 100.785156 L 143.664062 129 L 173.332031 129 L 149.332031 146.4375 L 157.417969 177.980469 L 131.664062 160.542969 L 105.914062 177.980469 L 118.214844 146.4375 L 90 129 "/>
<path style="fill-rule:nonzero;fill:rgb(35%,70%,90%);fill-opacity:1;stroke-width:1;stroke-linecap:butt;stroke-linejoin:miter;stroke:rgb(0%,0%,0%);stroke-opacity:1;stroke-miterlimit:10;" d="M 892 288 L 921.664062 288 L 933.664062 259.785156 L 945.664062 288 L 975.332031 288 L 951.332031 305.4375 L 959.417969 336.980469 L 933.664062 319.542969 L 907.914062 336.980469 L 920.214844 305.4375 L 892 288 "/>
<path style="fill-rule:nonzero;fill:rgb(35%,70%,90%);fill-opacity:1;stroke-width:1;stroke-linecap:butt;stroke-linejoin:miter;stroke:rgb(0%,0%,0%);stroke-opacity:1;stroke-miterlimit:10;" d="M 957 450 L 986.664062 450 L 998.664062 421.785156 L 1010.664062 450 L 1040.332031 450 L 1016.332031 467.4375 L 1024.417969 498.980469 L 998.664062 481.542969 L 972.914062 498.980469 L 985.214844 467.4375 L 957 450 "/>
<path style="fill-rule:nonzero;fill:rgb(35%,70%,90%);fill-opacity:1;stroke-width:1;stroke-linecap:butt;stroke-linejoin:miter;stroke:rgb(0%,0%,0%);stroke-opacity:1;stroke-miterlimit:10;" d="M 434 166 L 463.664062 166 L 475.664062 137.785156 L 487.664062 166 L 517.332031 166 L 493.332031 183.4375 L 501.417969 214.980469 L 475.664062 197.542969 L 449.914062 214.980469 L 462.214844 183.4375 L 434 166 "/>
<path style="fill-rule:nonzero;fill:rgb(35%,70%,90%);fill-opacity:1;stroke-width:1;stroke-linecap:butt;stroke-linejoin:miter;stroke:rgb(0%,0%,0%);stroke-opacity:1;stroke-miterlimit:10;" d="M 187 203 L 216.664062 203 L 228.664062 174.785156 L 240.664062 203 L 270.332031 203 L 246.332031 220.4375 L 254.417969 251.980469 L 228.664062 234.542969 L 202.914062 251.980469 L 215.214844 220.4375 L 187 203 "/>
<path style="fill-rule:nonzero;fill:rgb(35%,70%,90%);fill-opacity:1;stroke-width:1;stroke-linecap:butt;stroke-linejoin:miter;stroke:rgb(0%,0%,0%);stroke-opacity:1;stroke-miterlimit:10;" d="M 393 347 L 422.664062 347 L 434.664062 318.785156 L 446.664062 347 L 476.332031 347 L 452.332031 364.4375 L 460.417969 395.980469 L 434.664062 378.542969 L 408.914062 395.980469 L 421.214844 364.4375 L 393 347 "/>
<path style="fill-rule:nonzero;fill:rgb(100%,51%,0%);fill-opacity:1;stroke-width:1;stroke-linecap:butt;stroke-linejoin:miter;stroke:rgb(0%,0%,0%);stroke-opacity:1;stroke-miterlimit:10;" d="M 554.214844 409 C 554.214844 420.714844 544.714844 430.214844 533 430.214844 C 521.285156 430.214844 511.785156 420.714844 511.785156 409 C 511.785156 397.285156 521.285156 387.785156 533 387.785156 C 544.714844 387.785156 554.214844 397.285156 554.214844 409 "/>
<path style="fill-rule:nonzero;fill:rgb(100%,51%,0%);fill-opacity:1;stroke-width:1;stroke-linecap:butt;stroke-linejoin:miter;stroke:rgb(0%,0%,0%);stroke-opacity:1;stroke-miterlimit:10;" d="M 403.214844 450 C 403.214844 461.714844 393.714844 471.214844 382 471.214844 C 370.285156 471.214844 360.785156 461.714844 360.785156 450 C 360.785156 438.285156 370.285156 428.785156 382 428.785156 C 393.714844 428.785156 403.214844 438.285156 403.214844 450 "/>
<path style="fill-rule:nonzero;fill:rgb(100%,51%,0%);fill-opacity:1;stroke-width:1;stroke-linecap:butt;stroke-linejoin:miter;stroke:rgb(0%,0%,0%);stroke-opacity:1;stroke-miterlimit:10;" d="M 748.214844 275 C 748.214844 286.714844 738.714844 296.214844 727 296.214844 C 715.285156 296.214844 705.785156 286.714844 705.785156 275 C 705.785156 263.285156 715.285156 253.785156 727 253.785156 C 738.714844 253.785156 748.214844 263.285156 748.214844 275 "/>
<path style="fill-rule:nonzero;fill:rgb(100%,51%,0%);fill-opacity:1;stroke-width:1;stroke-linecap:butt;stroke-linejoin:miter;stroke:rgb(0%,0%,0%);stroke-opacity:1;stroke-miterlimit:10;" d="M 869.214844 111 C 869.214844 122.714844 859.714844 132.214844 848 132.214844 C 836.285156 132.214844 826.785156 122.714844 826.785156 111 C 826.785156 99.285156 836.285156 89.785156 848 89.785156 C 859.714844 89.785156 869.214844 99.285156 869.214844 111 "/>
<path style="fill-rule:nonzero;fill:rgb(100%,51%,0%);fill-opacity:1;stroke-width:1;stroke-linecap:butt;stroke-linejoin:miter;stroke:rgb(0%,0%,0%);stroke-opacity:1;stroke-miterlimit:10;" d="M 846.214844 357 C 846.214844 368.714844 836.714844 378.214844 825 378.214844 C 813.285156 378.214844 803.785156 368.714844 803.785156 357 C 803.785156 345.285156 813.285156 335.785156 825 335.785156 C 836.714844 335.785156 846.214844 345.285156 846.214844 357 "/>
<path style="fill-rule:nonzero;fill:rgb(100%,51%,0%);fill-opacity:1;stroke-width:1;stroke-linecap:butt;stroke-linejoin:miter;stroke:rgb(0%,0%,0%);stroke-opacity:1;stroke-miterlimit:10;" d="M 143.214844 416 C 143.214844 427.714844 133.714844 437.214844 122 437.214844 C 110.285156 437.214844 100.785156 427.714844 100.785156 416 C 100.785156 404.285156 110.285156 394.785156 122 394.785156 C 133.714844 394.785156 143.214844 404.285156 143.214844 416 "/>
</g>
</svg>
