<?xml version="1.0" encoding="UTF-8"?>
<svg xmlns="http://www.w3.org/2000/svg" xmlns:xlink="http://www.w3.org/1999/xlink" width="1179pt" height="517pt" viewBox="0 0 1179 517" version="1.1">
<g id="surface81">
<rect x="0" y="0" width="1179" height="517" style="fill:rgb(90%,90%,90%);fill-opacity:1;stroke:none;"/>
<path style="fill-rule:nonzero;fill:rgb(35%,70%,90%);fill-opacity:1;stroke-width:1;stroke-linecap:butt;stroke-linejoin:miter;stroke:rgb(0%,0%,0%);stroke-opacity:1;stroke-miterlimit:10;" d="M 316.214844 413 C 316.214844 424.714844 306.714844 434.214844 295 434.214844 C 283.285156 434.214844 273.785156 424.714844 273.785156 413 C 273.785156 401.285156 283.285156 391.785156 295 391.785156 C 306.714844 391.785156 316.214844 401.285156 316.214844 413 "/>
<path style="fill-rule:nonzero;fill:rgb(35%,70%,90%);fill-opacity:1;stroke-width:1;stroke-linecap:butt;stroke-linejoin:miter;stroke:rgb(0%,0%,0%);stroke-opacity:1;stroke-miterlimit:10;" d="M 144.214844 87 C 144.214844 98.714844 134.714844 108.214844 123 108.214844 C 111.285156 108.214844 101.785156 98.714844 101.785156 87 C 101.785156 75.285156 111.285156 65.785156 123 65.785156 C 134.714844 65.785156 144.214844 75.285156 144.214844 87 "/>
<path style="fill-rule:nonzero;fill:rgb(55%,51%,53%);fill-opacity:1;stroke-width:1;stroke-linecap:butt;stroke-linejoin:miter;stroke:rgb(0%,0%,0%);stroke-opacity:1;stroke-miterlimit:10;" d="M 249.214844 195 C 249.214844 206.714844 239.714844 216.214844 228 216.214844 C 216.285156 216.214844 206.785156 206.714844 206.785156 195 C 206.785156 183.285156 216.285156 173.785156 228 173.785156 C 239.714844 173.785156 249.214844 183.285156 249.214844 195 "/>
<path style="fill-rule:nonzero;fill:rgb(55%,51%,53%);fill-opacity:1;stroke-width:1;stroke-linecap:butt;stroke-linejoin:miter;stroke:rgb(0%,0%,0%);stroke-opacity:1;stroke-miterlimit:10;" d="M 328.214844 266 C 328.214844 277.714844 318.714844 287.214844 307 287.214844 C 295.285156 287.214844 285.785156 277.714844 285.785156 266 C 285.785156 254.285156 295.285156 244.785156 307 244.785156 C 318.714844 244.785156 328.214844 254.285156 328.214844 266 "/>
<path style="fill-rule:nonzero;fill:rgb(55%,51%,53%);fill-opacity:1;stroke-width:1;stroke-linecap:butt;stroke-linejoin:miter;stroke:rgb(0%,0%,0%);stroke-opacity:1;stroke-miterlimit:10;" d="M 843.785156 344.785156 L 843.785156 387.214844 L 886.214844 387.214844 L 886.214844 344.785156 L 843.785156 344.785156 "/>
<path style="fill-rule:nonzero;fill:rgb(55%,51%,53%);fill-opacity:1;stroke-width:1;stroke-linecap:butt;stroke-linejoin:miter;stroke:rgb(0%,0%,0%);stroke-opacity:1;stroke-miterlimit:10;" d="M 986.785156 333.785156 L 986.785156 376.214844 L 1029.214844 376.214844 L 1029.214844 333.785156 L 986.785156 333.785156 "/>
<path style="fill-rule:nonzero;fill:rgb(35%,70%,90%);fill-opacity:1;stroke-width:1;stroke-linecap:butt;stroke-linejoin:miter;stroke:rgb(0%,0%,0%);stroke-opacity:1;stroke-miterlimit:10;" d="M 1006.785156 168.785156 L 1006.785156 211.214844 L 1049.214844 211.214844 L 1049.214844 168.785156 L 1006.785156 168.785156 "/>
<path style="fill-rule:nonzero;fill:rgb(35%,70%,90%);fill-opacity:1;stroke-width:1;stroke-linecap:butt;stroke-linejoin:miter;stroke:rgb(0%,0%,0%);stroke-opacity:1;stroke-miterlimit:10;" d="M 685.785156 248.785156 L 685.785156 291.214844 L 728.214844 291.214844 L 728.214844 248.785156 L 685.785156 248.785156 "/>
<path style="fill-rule:nonzero;fill:rgb(55%,51%,53%);fill-opacity:1;stroke-width:1;stroke-linecap:butt;stroke-linejoin:miter;stroke:rgb(0%,0%,0%);stroke-opacity:1;stroke-miterlimit:10;" d="M 923.785156 262.785156 L 923.785156 305.214844 L 966.214844 305.214844 L 966.214844 262.785156 L 923.785156 262.785156 "/>
<path style="fill-rule:nonzero;fill:rgb(55%,51%,53%);fill-opacity:1;stroke-width:1;stroke-linecap:butt;stroke-linejoin:miter;stroke:rgb(0%,0%,0%);stroke-opacity:1;stroke-miterlimit:10;" d="M 864.785156 67.785156 L 864.785156 110.214844 L 907.214844 110.214844 L 907.214844 67.785156 L 864.785156 67.785156 "/>
<path style="fill-rule:nonzero;fill:rgb(55%,51%,53%);fill-opacity:1;stroke-width:1;stroke-linecap:butt;stroke-linejoin:miter;stroke:rgb(0%,0%,0%);stroke-opacity:1;stroke-miterlimit:10;" d="M 832.785156 205.785156 L 832.785156 248.214844 L 875.214844 248.214844 L 875.214844 205.785156 L 832.785156 205.785156 "/>
<path style="fill-rule:nonzero;fill:rgb(55%,51%,53%);fill-opacity:1;stroke-width:1;stroke-linecap:butt;stroke-linejoin:miter;stroke:rgb(0%,0%,0%);stroke-opacity:1;stroke-miterlimit:10;" d="M 729.785156 81.785156 L 729.785156 124.214844 L 772.214844 124.214844 L 772.214844 81.785156 L 729.785156 81.785156 "/>
</g>
</svg>
