<?xml version="1.0" encoding="UTF-8"?>
<svg xmlns="http://www.w3.org/2000/svg" xmlns:xlink="http://www.w3.org/1999/xlink" width="1179pt" height="517pt" viewBox="0 0 1179 517" version="1.1">
<g id="surface371">
<rect x="0" y="0" width="1179" height="517" style="fill:rgb(90%,90%,90%);fill-opacity:1;stroke:none;"/>
<path style="fill-rule:nonzero;fill:rgb(35%,70%,90%);fill-opacity:1;stroke-width:1;stroke-linecap:butt;stroke-linejoin:miter;stroke:rgb(0%,0%,0%);stroke-opacity:1;stroke-miterlimit:10;" d="M 93 112 L 122.664062 112 L 134.664062 83.785156 L 146.664062 112 L 176.332031 112 L 152.332031 129.4375 L 160.417969 160.980469 L 134.664062 143.542969 L 108.914062 160.980469 L 121.214844 129.4375 L 93 112 "/>
<path style="fill-rule:nonzero;fill:rgb(35%,70%,90%);fill-opacity:1;stroke-width:1;stroke-linecap:butt;stroke-linejoin:miter;stroke:rgb(0%,0%,0%);stroke-opacity:1;stroke-miterlimit:10;" d="M 200.785156 404.785156 L 200.785156 447.214844 L 243.214844 447.214844 L 243.214844 404.785156 L 200.785156 404.785156 "/>
<path style="fill-rule:nonzero;fill:rgb(35%,70%,90%);fill-opacity:1;stroke-width:1;stroke-linecap:butt;stroke-linejoin:miter;stroke:rgb(0%,0%,0%);stroke-opacity:1;stroke-miterlimit:10;" d="M 396.785156 119.785156 L 396.785156 162.214844 L 439.214844 162.214844 L 439.214844 119.785156 L 396.785156 119.785156 "/>
<path style="fill-rule:nonzero;fill:rgb(35%,70%,90%);fill-opacity:1;stroke-width:1;stroke-linecap:butt;stroke-linejoin:miter;stroke:rgb(0%,0%,0%);stroke-opacity:1;stroke-miterlimit:10;" d="M 85 322 L 114.664062 322 L 126.664062 293.785156 L 138.664062 322 L 168.332031 322 L 144.332031 339.4375 L 152.417969 370.980469 L 126.664062 353.542969 L 100.914062 370.980469 L 113.214844 339.4375 L 85 322 "/>
<path style="fill-rule:nonzero;fill:rgb(100%,51%,0%);fill-opacity:1;stroke-width:1;stroke-linecap:butt;stroke-linejoin:miter;stroke:rgb(0%,0%,0%);stroke-opacity:1;stroke-miterlimit:10;" d="M 690.785156 358.785156 L 690.785156 401.214844 L 733.214844 401.214844 L 733.214844 358.785156 L 690.785156 358.785156 "/>
<path style="fill-rule:nonzero;fill:rgb(100%,51%,0%);fill-opacity:1;stroke-width:1;stroke-linecap:butt;stroke-linejoin:miter;stroke:rgb(0%,0%,0%);stroke-opacity:1;stroke-miterlimit:10;" d="M 800 406 L 829.664062 406 L 841.664062 377.785156 L 853.664062 406 L 883.332031 406 L 859.332031 423.4375 L 867.417969 454.980469 L 841.664062 437.542969 L 815.914062 454.980469 L 828.214844 423.4375 L 800 406 "/>
<path style="fill-rule:nonzero;fill:rgb(100%,51%,0%);fill-opacity:1;stroke-width:1;stroke-linecap:butt;stroke-linejoin:miter;stroke:rgb(0%,0%,0%);stroke-opacity:1;stroke-miterlimit:10;" d="M 866 176 L 895.664062 176 L 907.664062 147.785156 L 919.664062 176 L 949.332031 176 L 925.332031 193.4375 L 933.417969 224.980469 L 907.664062 207.542969 L 881.914062 224.980469 L 894.214844 193.4375 L 866 176 "/>
<path style="fill-rule:nonzero;fill:rgb(100%,51%,0%);fill-opacity:1;stroke-width:1;stroke-linecap:butt;stroke-linejoin:miter;stroke:rgb(0%,0%,0%);stroke-opacity:1;stroke-miterlimit:10;" d="M 846.785156 265.785156 L 846.785156 308.214844 L 889.214844 308.214844 L 889.214844 265.785156 L 846.785156 265.785156 "/>
</g>
</svg>
