<?xml version="1.0" encoding="UTF-8"?>
<svg xmlns="http://www.w3.org/2000/svg" xmlns:xlink="http://www.w3.org/1999/xlink" width="1179pt" height="517pt" viewBox="0 0 1179 517" version="1.1">
<g id="surface781">
<rect x="0" y="0" width="1179" height="517" style="fill:rgb(90%,90%,90%);fill-opacity:1;stroke:none;"/>
<path style="fill-rule:nonzero;fill:rgb(53%,27%,7%);fill-opacity:1;stroke-width:1;stroke-linecap:butt;stroke-linejoin:miter;stroke:rgb(0%,0%,0%);stroke-opacity:1;stroke-miterlimit:10;" d="M 180 175 L 209.664062 175 L 221.664062 146.785156 L 233.664062 175 L 263.332031 175 L 239.332031 192.4375 L 247.417969 223.980469 L 221.664062 206.542969 L 195.914062 223.980469 L 208.214844 192.4375 L 180 175 "/>
<path style="fill-rule:nonzero;fill:rgb(53%,27%,7%);fill-opacity:1;stroke-width:1;stroke-linecap:butt;stroke-linejoin:miter;stroke:rgb(0%,0%,0%);stroke-opacity:1;stroke-miterlimit:10;" d="M 222 336 L 251.664062 336 L 263.664062 307.785156 L 275.664062 336 L 305.332031 336 L 281.332031 353.4375 L 289.417969 384.980469 L 263.664062 367.542969 L 237.914062 384.980469 L 250.214844 353.4375 L 222 336 "/>
<path style="fill-rule:nonzero;fill:rgb(55%,51%,53%);fill-opacity:1;stroke-width:1;stroke-linecap:butt;stroke-linejoin:miter;stroke:rgb(0%,0%,0%);stroke-opacity:1;stroke-miterlimit:10;" d="M 134 372 L 163.664062 372 L 175.664062 343.785156 L 187.664062 372 L 217.332031 372 L 193.332031 389.4375 L 201.417969 420.980469 L 175.664062 403.542969 L 149.914062 420.980469 L 162.214844 389.4375 L 134 372 "/>
<path style="fill-rule:nonzero;fill:rgb(55%,51%,53%);fill-opacity:1;stroke-width:1;stroke-linecap:butt;stroke-linejoin:miter;stroke:rgb(0%,0%,0%);stroke-opacity:1;stroke-miterlimit:10;" d="M 267 128 L 296.664062 128 L 308.664062 99.785156 L 320.664062 128 L 350.332031 128 L 326.332031 145.4375 L 334.417969 176.980469 L 308.664062 159.542969 L 282.914062 176.980469 L 295.214844 145.4375 L 267 128 "/>
<path style="fill-rule:nonzero;fill:rgb(53%,27%,7%);fill-opacity:1;stroke-width:1;stroke-linecap:butt;stroke-linejoin:miter;stroke:rgb(0%,0%,0%);stroke-opacity:1;stroke-miterlimit:10;" d="M 337 363 L 366.664062 363 L 378.664062 334.785156 L 390.664062 363 L 420.332031 363 L 396.332031 380.4375 L 404.417969 411.980469 L 378.664062 394.542969 L 352.914062 411.980469 L 365.214844 380.4375 L 337 363 "/>
<path style="fill-rule:nonzero;fill:rgb(55%,51%,53%);fill-opacity:1;stroke-width:1;stroke-linecap:butt;stroke-linejoin:miter;stroke:rgb(0%,0%,0%);stroke-opacity:1;stroke-miterlimit:10;" d="M 777 307 L 806.664062 307 L 818.664062 278.785156 L 830.664062 307 L 860.332031 307 L 836.332031 324.4375 L 844.417969 355.980469 L 818.664062 338.542969 L 792.914062 355.980469 L 805.214844 324.4375 L 777 307 "/>
<path style="fill-rule:nonzero;fill:rgb(53%,27%,7%);fill-opacity:1;stroke-width:1;stroke-linecap:butt;stroke-linejoin:miter;stroke:rgb(0%,0%,0%);stroke-opacity:1;stroke-miterlimit:10;" d="M 1010 184 L 1039.664062 184 L 1051.664062 155.785156 L 1063.664062 184 L 1093.332031 184 L 1069.332031 201.4375 L 1077.417969 232.980469 L 1051.664062 215.542969 L 1025.914062 232.980469 L 1038.214844 201.4375 L 1010 184 "/>
<path style="fill-rule:nonzero;fill:rgb(53%,27%,7%);fill-opacity:1;stroke-width:1;stroke-linecap:butt;stroke-linejoin:miter;stroke:rgb(0%,0%,0%);stroke-opacity:1;stroke-miterlimit:10;" d="M 915 333 L 944.664062 333 L 956.664062 304.785156 L 968.664062 333 L 998.332031 333 L 974.332031 350.4375 L 982.417969 381.980469 L 956.664062 364.542969 L 930.914062 381.980469 L 943.214844 350.4375 L 915 333 "/>
<path style="fill-rule:nonzero;fill:rgb(55%,51%,53%);fill-opacity:1;stroke-width:1;stroke-linecap:butt;stroke-linejoin:miter;stroke:rgb(0%,0%,0%);stroke-opacity:1;stroke-miterlimit:10;" d="M 782 400 L 811.664062 400 L 823.664062 371.785156 L 835.664062 400 L 865.332031 400 L 841.332031 417.4375 L 849.417969 448.980469 L 823.664062 431.542969 L 797.914062 448.980469 L 810.214844 417.4375 L 782 400 "/>
<path style="fill-rule:nonzero;fill:rgb(53%,27%,7%);fill-opacity:1;stroke-width:1;stroke-linecap:butt;stroke-linejoin:miter;stroke:rgb(0%,0%,0%);stroke-opacity:1;stroke-miterlimit:10;" d="M 753 124 L 782.664062 124 L 794.664062 95.785156 L 806.664062 124 L 836.332031 124 L 812.332031 141.4375 L 820.417969 172.980469 L 794.664062 155.542969 L 768.914062 172.980469 L 781.214844 141.4375 L 753 124 "/>
<path style="fill-rule:nonzero;fill:rgb(53%,27%,7%);fill-opacity:1;stroke-width:1;stroke-linecap:butt;stroke-linejoin:miter;stroke:rgb(0%,0%,0%);stroke-opacity:1;stroke-miterlimit:10;" d="M 853 84 L 882.664062 84 L 894.664062 55.785156 L 906.664062 84 L 936.332031 84 L 912.332031 101.4375 L 920.417969 132.980469 L 894.664062 115.542969 L 868.914062 132.980469 L 881.214844 101.4375 L 853 84 "/>
<path style="fill-rule:nonzero;fill:rgb(53%,27%,7%);fill-opacity:1;stroke-width:1;stroke-linecap:butt;stroke-linejoin:miter;stroke:rgb(0%,0%,0%);stroke-opacity:1;stroke-miterlimit:10;" d="M 996 379 L 1025.664062 379 L 1037.664062 350.785156 L 1049.664062 379 L 1079.332031 379 L 1055.332031 396.4375 L 1063.417969 427.980469 L 1037.664062 410.542969 L 1011.914062 427.980469 L 1024.214844 396.4375 L 996 379 "/>
<path style="fill-rule:nonzero;fill:rgb(53%,27%,7%);fill-opacity:1;stroke-width:1;stroke-linecap:butt;stroke-linejoin:miter;stroke:rgb(0%,0%,0%);stroke-opacity:1;stroke-miterlimit:10;" d="M 988 81 L 1017.664062 81 L 1029.664062 52.785156 L 1041.664062 81 L 1071.332031 81 L 1047.332031 98.4375 L 1055.417969 129.980469 L 1029.664062 112.542969 L 1003.914062 129.980469 L 1016.214844 98.4375 L 988 81 "/>
</g>
</svg>
