<?xml version="1.0" encoding="UTF-8"?>
<svg xmlns="http://www.w3.org/2000/svg" xmlns:xlink="http://www.w3.org/1999/xlink" width="1129pt" height="517pt" viewBox="0 0 1129 517" version="1.1">
<g id="surface116">
<rect x="0" y="0" width="1129" height="517" style="fill:rgb(90%,90%,90%);fill-opacity:1;stroke:none;"/>
<path style="fill-rule:nonzero;fill:rgb(100%,51%,0%);fill-opacity:1;stroke-width:1;stroke-linecap:butt;stroke-linejoin:miter;stroke:rgb(0%,0%,0%);stroke-opacity:1;stroke-miterlimit:10;" d="M 174 169 L 148.019531 214 L 199.980469 214 L 174 169 "/>
<path style="fill-rule:nonzero;fill:rgb(53%,27%,7%);fill-opacity:1;stroke-width:1;stroke-linecap:butt;stroke-linejoin:miter;stroke:rgb(0%,0%,0%);stroke-opacity:1;stroke-miterlimit:10;" d="M 403 227 L 377.019531 272 L 428.980469 272 L 403 227 "/>
<path style="fill-rule:nonzero;fill:rgb(53%,27%,7%);fill-opacity:1;stroke-width:1;stroke-linecap:butt;stroke-linejoin:miter;stroke:rgb(0%,0%,0%);stroke-opacity:1;stroke-miterlimit:10;" d="M 166 324 L 140.019531 369 L 191.980469 369 L 166 324 "/>
<path style="fill-rule:nonzero;fill:rgb(100%,51%,0%);fill-opacity:1;stroke-width:1;stroke-linecap:butt;stroke-linejoin:miter;stroke:rgb(0%,0%,0%);stroke-opacity:1;stroke-miterlimit:10;" d="M 68 315 L 42.019531 360 L 93.980469 360 L 68 315 "/>
<path style="fill-rule:nonzero;fill:rgb(100%,51%,0%);fill-opacity:1;stroke-width:1;stroke-linecap:butt;stroke-linejoin:miter;stroke:rgb(0%,0%,0%);stroke-opacity:1;stroke-miterlimit:10;" d="M 273 34 L 247.019531 79 L 298.980469 79 L 273 34 "/>
<path style="fill-rule:nonzero;fill:rgb(53%,27%,7%);fill-opacity:1;stroke-width:1;stroke-linecap:butt;stroke-linejoin:miter;stroke:rgb(0%,0%,0%);stroke-opacity:1;stroke-miterlimit:10;" d="M 758.785156 283.785156 L 758.785156 326.214844 L 801.214844 326.214844 L 801.214844 283.785156 L 758.785156 283.785156 "/>
<path style="fill-rule:nonzero;fill:rgb(100%,51%,0%);fill-opacity:1;stroke-width:1;stroke-linecap:butt;stroke-linejoin:miter;stroke:rgb(0%,0%,0%);stroke-opacity:1;stroke-miterlimit:10;" d="M 642.785156 88.785156 L 642.785156 131.214844 L 685.214844 131.214844 L 685.214844 88.785156 L 642.785156 88.785156 "/>
<path style="fill-rule:nonzero;fill:rgb(100%,51%,0%);fill-opacity:1;stroke-width:1;stroke-linecap:butt;stroke-linejoin:miter;stroke:rgb(0%,0%,0%);stroke-opacity:1;stroke-miterlimit:10;" d="M 999.785156 261.785156 L 999.785156 304.214844 L 1042.214844 304.214844 L 1042.214844 261.785156 L 999.785156 261.785156 "/>
<path style="fill-rule:nonzero;fill:rgb(53%,27%,7%);fill-opacity:1;stroke-width:1;stroke-linecap:butt;stroke-linejoin:miter;stroke:rgb(0%,0%,0%);stroke-opacity:1;stroke-miterlimit:10;" d="M 596.785156 377.785156 L 596.785156 420.214844 L 639.214844 420.214844 L 639.214844 377.785156 L 596.785156 377.785156 "/>
</g>
</svg>
