<?xml version="1.0" encoding="UTF-8"?>
<svg xmlns="http://www.w3.org/2000/svg" xmlns:xlink="http://www.w3.org/1999/xlink" width="1129pt" height="517pt" viewBox="0 0 1129 517" version="1.1">
<g id="surface696">
<rect x="0" y="0" width="1129" height="517" style="fill:rgb(90%,90%,90%);fill-opacity:1;stroke:none;"/>
<path style="fill-rule:nonzero;fill:rgb(55%,51%,53%);fill-opacity:1;stroke-width:1;stroke-linecap:butt;stroke-linejoin:miter;stroke:rgb(0%,0%,0%);stroke-opacity:1;stroke-miterlimit:10;" d="M 299 94 L 328.664062 94 L 340.664062 65.785156 L 352.664062 94 L 382.332031 94 L 358.332031 111.4375 L 366.417969 142.980469 L 340.664062 125.542969 L 314.914062 142.980469 L 327.214844 111.4375 L 299 94 "/>
<path style="fill-rule:nonzero;fill:rgb(55%,51%,53%);fill-opacity:1;stroke-width:1;stroke-linecap:butt;stroke-linejoin:miter;stroke:rgb(0%,0%,0%);stroke-opacity:1;stroke-miterlimit:10;" d="M 906 324 L 935.664062 324 L 947.664062 295.785156 L 959.664062 324 L 989.332031 324 L 965.332031 341.4375 L 973.417969 372.980469 L 947.664062 355.542969 L 921.914062 372.980469 L 934.214844 341.4375 L 906 324 "/>
<path style="fill-rule:nonzero;fill:rgb(55%,51%,53%);fill-opacity:1;stroke-width:1;stroke-linecap:butt;stroke-linejoin:miter;stroke:rgb(0%,0%,0%);stroke-opacity:1;stroke-miterlimit:10;" d="M 646 53 L 675.664062 53 L 687.664062 24.785156 L 699.664062 53 L 729.332031 53 L 705.332031 70.4375 L 713.417969 101.980469 L 687.664062 84.542969 L 661.914062 101.980469 L 674.214844 70.4375 L 646 53 "/>
<path style="fill-rule:nonzero;fill:rgb(55%,51%,53%);fill-opacity:1;stroke-width:1;stroke-linecap:butt;stroke-linejoin:miter;stroke:rgb(0%,0%,0%);stroke-opacity:1;stroke-miterlimit:10;" d="M 184 398 L 213.664062 398 L 225.664062 369.785156 L 237.664062 398 L 267.332031 398 L 243.332031 415.4375 L 251.417969 446.980469 L 225.664062 429.542969 L 199.914062 446.980469 L 212.214844 415.4375 L 184 398 "/>
<path style="fill-rule:nonzero;fill:rgb(55%,51%,53%);fill-opacity:1;stroke-width:1;stroke-linecap:butt;stroke-linejoin:miter;stroke:rgb(0%,0%,0%);stroke-opacity:1;stroke-miterlimit:10;" d="M 688 162 L 717.664062 162 L 729.664062 133.785156 L 741.664062 162 L 771.332031 162 L 747.332031 179.4375 L 755.417969 210.980469 L 729.664062 193.542969 L 703.914062 210.980469 L 716.214844 179.4375 L 688 162 "/>
<path style="fill-rule:nonzero;fill:rgb(55%,51%,53%);fill-opacity:1;stroke-width:1;stroke-linecap:butt;stroke-linejoin:miter;stroke:rgb(0%,0%,0%);stroke-opacity:1;stroke-miterlimit:10;" d="M 132 128 L 161.664062 128 L 173.664062 99.785156 L 185.664062 128 L 215.332031 128 L 191.332031 145.4375 L 199.417969 176.980469 L 173.664062 159.542969 L 147.914062 176.980469 L 160.214844 145.4375 L 132 128 "/>
<path style="fill-rule:nonzero;fill:rgb(53%,27%,7%);fill-opacity:1;stroke-width:1;stroke-linecap:butt;stroke-linejoin:miter;stroke:rgb(0%,0%,0%);stroke-opacity:1;stroke-miterlimit:10;" d="M 389 223 L 363.019531 268 L 414.980469 268 L 389 223 "/>
<path style="fill-rule:nonzero;fill:rgb(53%,27%,7%);fill-opacity:1;stroke-width:1;stroke-linecap:butt;stroke-linejoin:miter;stroke:rgb(0%,0%,0%);stroke-opacity:1;stroke-miterlimit:10;" d="M 712 362 L 686.019531 407 L 737.980469 407 L 712 362 "/>
<path style="fill-rule:nonzero;fill:rgb(53%,27%,7%);fill-opacity:1;stroke-width:1;stroke-linecap:butt;stroke-linejoin:miter;stroke:rgb(0%,0%,0%);stroke-opacity:1;stroke-miterlimit:10;" d="M 623 283 L 597.019531 328 L 648.980469 328 L 623 283 "/>
<path style="fill-rule:nonzero;fill:rgb(53%,27%,7%);fill-opacity:1;stroke-width:1;stroke-linecap:butt;stroke-linejoin:miter;stroke:rgb(0%,0%,0%);stroke-opacity:1;stroke-miterlimit:10;" d="M 413 391 L 387.019531 436 L 438.980469 436 L 413 391 "/>
</g>
</svg>
