<?xml version="1.0" encoding="UTF-8"?>
<svg xmlns="http://www.w3.org/2000/svg" xmlns:xlink="http://www.w3.org/1999/xlink" width="1179pt" height="517pt" viewBox="0 0 1179 517" version="1.1">
<g id="surface151">
<rect x="0" y="0" width="1179" height="517" style="fill:rgb(90%,90%,90%);fill-opacity:1;stroke:none;"/>
<path style="fill-rule:nonzero;fill:rgb(53%,27%,7%);fill-opacity:1;stroke-width:1;stroke-linecap:butt;stroke-linejoin:miter;stroke:rgb(0%,0%,0%);stroke-opacity:1;stroke-miterlimit:10;" d="M 441.214844 91 C 441.214844 102.714844 431.714844 112.214844 420 112.214844 C 408.285156 112.214844 398.785156 102.714844 398.785156 91 C 398.785156 79.285156 408.285156 69.785156 420 69.785156 C 431.714844 69.785156 441.214844 79.285156 441.214844 91 "/>
<path style="fill-rule:nonzero;fill:rgb(53%,27%,7%);fill-opacity:1;stroke-width:1;stroke-linecap:butt;stroke-linejoin:miter;stroke:rgb(0%,0%,0%);stroke-opacity:1;stroke-miterlimit:10;" d="M 388.214844 430 C 388.214844 441.714844 378.714844 451.214844 367 451.214844 C 355.285156 451.214844 345.785156 441.714844 345.785156 430 C 345.785156 418.285156 355.285156 408.785156 367 408.785156 C 378.714844 408.785156 388.214844 418.285156 388.214844 430 "/>
<path style="fill-rule:nonzero;fill:rgb(55%,51%,53%);fill-opacity:1;stroke-width:1;stroke-linecap:butt;stroke-linejoin:miter;stroke:rgb(0%,0%,0%);stroke-opacity:1;stroke-miterlimit:10;" d="M 84 240 L 113.664062 240 L 125.664062 211.785156 L 137.664062 240 L 167.332031 240 L 143.332031 257.4375 L 151.417969 288.980469 L 125.664062 271.542969 L 99.914062 288.980469 L 112.214844 257.4375 L 84 240 "/>
<path style="fill-rule:nonzero;fill:rgb(53%,27%,7%);fill-opacity:1;stroke-width:1;stroke-linecap:butt;stroke-linejoin:miter;stroke:rgb(0%,0%,0%);stroke-opacity:1;stroke-miterlimit:10;" d="M 366.214844 335 C 366.214844 346.714844 356.714844 356.214844 345 356.214844 C 333.285156 356.214844 323.785156 346.714844 323.785156 335 C 323.785156 323.285156 333.285156 313.785156 345 313.785156 C 356.714844 313.785156 366.214844 323.285156 366.214844 335 "/>
<path style="fill-rule:nonzero;fill:rgb(53%,27%,7%);fill-opacity:1;stroke-width:1;stroke-linecap:butt;stroke-linejoin:miter;stroke:rgb(0%,0%,0%);stroke-opacity:1;stroke-miterlimit:10;" d="M 252.214844 226 C 252.214844 237.714844 242.714844 247.214844 231 247.214844 C 219.285156 247.214844 209.785156 237.714844 209.785156 226 C 209.785156 214.285156 219.285156 204.785156 231 204.785156 C 242.714844 204.785156 252.214844 214.285156 252.214844 226 "/>
<path style="fill-rule:nonzero;fill:rgb(53%,27%,7%);fill-opacity:1;stroke-width:1;stroke-linecap:butt;stroke-linejoin:miter;stroke:rgb(0%,0%,0%);stroke-opacity:1;stroke-miterlimit:10;" d="M 116.214844 337 C 116.214844 348.714844 106.714844 358.214844 95 358.214844 C 83.285156 358.214844 73.785156 348.714844 73.785156 337 C 73.785156 325.285156 83.285156 315.785156 95 315.785156 C 106.714844 315.785156 116.214844 325.285156 116.214844 337 "/>
<path style="fill-rule:nonzero;fill:rgb(55%,51%,53%);fill-opacity:1;stroke-width:1;stroke-linecap:butt;stroke-linejoin:miter;stroke:rgb(0%,0%,0%);stroke-opacity:1;stroke-miterlimit:10;" d="M 129 150 L 158.664062 150 L 170.664062 121.785156 L 182.664062 150 L 212.332031 150 L 188.332031 167.4375 L 196.417969 198.980469 L 170.664062 181.542969 L 144.914062 198.980469 L 157.214844 167.4375 L 129 150 "/>
<path style="fill-rule:nonzero;fill:rgb(53%,27%,7%);fill-opacity:1;stroke-width:1;stroke-linecap:butt;stroke-linejoin:miter;stroke:rgb(0%,0%,0%);stroke-opacity:1;stroke-miterlimit:10;" d="M 257.214844 359 C 257.214844 370.714844 247.714844 380.214844 236 380.214844 C 224.285156 380.214844 214.785156 370.714844 214.785156 359 C 214.785156 347.285156 224.285156 337.785156 236 337.785156 C 247.714844 337.785156 257.214844 347.285156 257.214844 359 "/>
<path style="fill-rule:nonzero;fill:rgb(53%,27%,7%);fill-opacity:1;stroke-width:1;stroke-linecap:butt;stroke-linejoin:miter;stroke:rgb(0%,0%,0%);stroke-opacity:1;stroke-miterlimit:10;" d="M 1061.214844 328 C 1061.214844 339.714844 1051.714844 349.214844 1040 349.214844 C 1028.285156 349.214844 1018.785156 339.714844 1018.785156 328 C 1018.785156 316.285156 1028.285156 306.785156 1040 306.785156 C 1051.714844 306.785156 1061.214844 316.285156 1061.214844 328 "/>
<path style="fill-rule:nonzero;fill:rgb(55%,51%,53%);fill-opacity:1;stroke-width:1;stroke-linecap:butt;stroke-linejoin:miter;stroke:rgb(0%,0%,0%);stroke-opacity:1;stroke-miterlimit:10;" d="M 953 92 L 982.664062 92 L 994.664062 63.785156 L 1006.664062 92 L 1036.332031 92 L 1012.332031 109.4375 L 1020.417969 140.980469 L 994.664062 123.542969 L 968.914062 140.980469 L 981.214844 109.4375 L 953 92 "/>
<path style="fill-rule:nonzero;fill:rgb(53%,27%,7%);fill-opacity:1;stroke-width:1;stroke-linecap:butt;stroke-linejoin:miter;stroke:rgb(0%,0%,0%);stroke-opacity:1;stroke-miterlimit:10;" d="M 848.214844 204 C 848.214844 215.714844 838.714844 225.214844 827 225.214844 C 815.285156 225.214844 805.785156 215.714844 805.785156 204 C 805.785156 192.285156 815.285156 182.785156 827 182.785156 C 838.714844 182.785156 848.214844 192.285156 848.214844 204 "/>
<path style="fill-rule:nonzero;fill:rgb(55%,51%,53%);fill-opacity:1;stroke-width:1;stroke-linecap:butt;stroke-linejoin:miter;stroke:rgb(0%,0%,0%);stroke-opacity:1;stroke-miterlimit:10;" d="M 935 371 L 964.664062 371 L 976.664062 342.785156 L 988.664062 371 L 1018.332031 371 L 994.332031 388.4375 L 1002.417969 419.980469 L 976.664062 402.542969 L 950.914062 419.980469 L 963.214844 388.4375 L 935 371 "/>
<path style="fill-rule:nonzero;fill:rgb(53%,27%,7%);fill-opacity:1;stroke-width:1;stroke-linecap:butt;stroke-linejoin:miter;stroke:rgb(0%,0%,0%);stroke-opacity:1;stroke-miterlimit:10;" d="M 737.214844 365 C 737.214844 376.714844 727.714844 386.214844 716 386.214844 C 704.285156 386.214844 694.785156 376.714844 694.785156 365 C 694.785156 353.285156 704.285156 343.785156 716 343.785156 C 727.714844 343.785156 737.214844 353.285156 737.214844 365 "/>
<path style="fill-rule:nonzero;fill:rgb(53%,27%,7%);fill-opacity:1;stroke-width:1;stroke-linecap:butt;stroke-linejoin:miter;stroke:rgb(0%,0%,0%);stroke-opacity:1;stroke-miterlimit:10;" d="M 1064.214844 123 C 1064.214844 134.714844 1054.714844 144.214844 1043 144.214844 C 1031.285156 144.214844 1021.785156 134.714844 1021.785156 123 C 1021.785156 111.285156 1031.285156 101.785156 1043 101.785156 C 1054.714844 101.785156 1064.214844 111.285156 1064.214844 123 "/>
<path style="fill-rule:nonzero;fill:rgb(53%,27%,7%);fill-opacity:1;stroke-width:1;stroke-linecap:butt;stroke-linejoin:miter;stroke:rgb(0%,0%,0%);stroke-opacity:1;stroke-miterlimit:10;" d="M 825.214844 402 C 825.214844 413.714844 815.714844 423.214844 804 423.214844 C 792.285156 423.214844 782.785156 413.714844 782.785156 402 C 782.785156 390.285156 792.285156 380.785156 804 380.785156 C 815.714844 380.785156 825.214844 390.285156 825.214844 402 "/>
<path style="fill-rule:nonzero;fill:rgb(55%,51%,53%);fill-opacity:1;stroke-width:1;stroke-linecap:butt;stroke-linejoin:miter;stroke:rgb(0%,0%,0%);stroke-opacity:1;stroke-miterlimit:10;" d="M 852 91 L 881.664062 91 L 893.664062 62.785156 L 905.664062 91 L 935.332031 91 L 911.332031 108.4375 L 919.417969 139.980469 L 893.664062 122.542969 L 867.914062 139.980469 L 880.214844 108.4375 L 852 91 "/>
</g>
</svg>
