<?xml version="1.0" encoding="UTF-8"?>
<svg xmlns="http://www.w3.org/2000/svg" xmlns:xlink="http://www.w3.org/1999/xlink" width="1129pt" height="517pt" viewBox="0 0 1129 517" version="1.1">
<g id="surface751">
<rect x="0" y="0" width="1129" height="517" style="fill:rgb(90%,90%,90%);fill-opacity:1;stroke:none;"/>
<path style="fill-rule:nonzero;fill:rgb(55%,51%,53%);fill-opacity:1;stroke-width:1;stroke-linecap:butt;stroke-linejoin:miter;stroke:rgb(0%,0%,0%);stroke-opacity:1;stroke-miterlimit:10;" d="M 76.214844 229 C 76.214844 240.714844 66.714844 250.214844 55 250.214844 C 43.285156 250.214844 33.785156 240.714844 33.785156 229 C 33.785156 217.285156 43.285156 207.785156 55 207.785156 C 66.714844 207.785156 76.214844 217.285156 76.214844 229 "/>
<path style="fill-rule:nonzero;fill:rgb(55%,51%,53%);fill-opacity:1;stroke-width:1;stroke-linecap:butt;stroke-linejoin:miter;stroke:rgb(0%,0%,0%);stroke-opacity:1;stroke-miterlimit:10;" d="M 332.214844 316 C 332.214844 327.714844 322.714844 337.214844 311 337.214844 C 299.285156 337.214844 289.785156 327.714844 289.785156 316 C 289.785156 304.285156 299.285156 294.785156 311 294.785156 C 322.714844 294.785156 332.214844 304.285156 332.214844 316 "/>
<path style="fill-rule:nonzero;fill:rgb(67%,100%,18%);fill-opacity:1;stroke-width:1;stroke-linecap:butt;stroke-linejoin:miter;stroke:rgb(0%,0%,0%);stroke-opacity:1;stroke-miterlimit:10;" d="M 415.214844 125 C 415.214844 136.714844 405.714844 146.214844 394 146.214844 C 382.285156 146.214844 372.785156 136.714844 372.785156 125 C 372.785156 113.285156 382.285156 103.785156 394 103.785156 C 405.714844 103.785156 415.214844 113.285156 415.214844 125 "/>
<path style="fill-rule:nonzero;fill:rgb(67%,100%,18%);fill-opacity:1;stroke-width:1;stroke-linecap:butt;stroke-linejoin:miter;stroke:rgb(0%,0%,0%);stroke-opacity:1;stroke-miterlimit:10;" d="M 458.214844 354 C 458.214844 365.714844 448.714844 375.214844 437 375.214844 C 425.285156 375.214844 415.785156 365.714844 415.785156 354 C 415.785156 342.285156 425.285156 332.785156 437 332.785156 C 448.714844 332.785156 458.214844 342.285156 458.214844 354 "/>
<path style="fill-rule:nonzero;fill:rgb(55%,51%,53%);fill-opacity:1;stroke-width:1;stroke-linecap:butt;stroke-linejoin:miter;stroke:rgb(0%,0%,0%);stroke-opacity:1;stroke-miterlimit:10;" d="M 145.214844 318 C 145.214844 329.714844 135.714844 339.214844 124 339.214844 C 112.285156 339.214844 102.785156 329.714844 102.785156 318 C 102.785156 306.285156 112.285156 296.785156 124 296.785156 C 135.714844 296.785156 145.214844 306.285156 145.214844 318 "/>
<path style="fill-rule:nonzero;fill:rgb(55%,51%,53%);fill-opacity:1;stroke-width:1;stroke-linecap:butt;stroke-linejoin:miter;stroke:rgb(0%,0%,0%);stroke-opacity:1;stroke-miterlimit:10;" d="M 220.214844 66 C 220.214844 77.714844 210.714844 87.214844 199 87.214844 C 187.285156 87.214844 177.785156 77.714844 177.785156 66 C 177.785156 54.285156 187.285156 44.785156 199 44.785156 C 210.714844 44.785156 220.214844 54.285156 220.214844 66 "/>
<path style="fill-rule:nonzero;fill:rgb(55%,51%,53%);fill-opacity:1;stroke-width:1;stroke-linecap:butt;stroke-linejoin:miter;stroke:rgb(0%,0%,0%);stroke-opacity:1;stroke-miterlimit:10;" d="M 238.214844 313 C 238.214844 324.714844 228.714844 334.214844 217 334.214844 C 205.285156 334.214844 195.785156 324.714844 195.785156 313 C 195.785156 301.285156 205.285156 291.785156 217 291.785156 C 228.714844 291.785156 238.214844 301.285156 238.214844 313 "/>
<path style="fill-rule:nonzero;fill:rgb(55%,51%,53%);fill-opacity:1;stroke-width:1;stroke-linecap:butt;stroke-linejoin:miter;stroke:rgb(0%,0%,0%);stroke-opacity:1;stroke-miterlimit:10;" d="M 397.214844 250 C 397.214844 261.714844 387.714844 271.214844 376 271.214844 C 364.285156 271.214844 354.785156 261.714844 354.785156 250 C 354.785156 238.285156 364.285156 228.785156 376 228.785156 C 387.714844 228.785156 397.214844 238.285156 397.214844 250 "/>
<path style="fill-rule:nonzero;fill:rgb(67%,100%,18%);fill-opacity:1;stroke-width:1;stroke-linecap:butt;stroke-linejoin:miter;stroke:rgb(0%,0%,0%);stroke-opacity:1;stroke-miterlimit:10;" d="M 1007 399 L 981.019531 444 L 1032.980469 444 L 1007 399 "/>
<path style="fill-rule:nonzero;fill:rgb(67%,100%,18%);fill-opacity:1;stroke-width:1;stroke-linecap:butt;stroke-linejoin:miter;stroke:rgb(0%,0%,0%);stroke-opacity:1;stroke-miterlimit:10;" d="M 656 201 L 630.019531 246 L 681.980469 246 L 656 201 "/>
<path style="fill-rule:nonzero;fill:rgb(55%,51%,53%);fill-opacity:1;stroke-width:1;stroke-linecap:butt;stroke-linejoin:miter;stroke:rgb(0%,0%,0%);stroke-opacity:1;stroke-miterlimit:10;" d="M 806 300 L 780.019531 345 L 831.980469 345 L 806 300 "/>
<path style="fill-rule:nonzero;fill:rgb(55%,51%,53%);fill-opacity:1;stroke-width:1;stroke-linecap:butt;stroke-linejoin:miter;stroke:rgb(0%,0%,0%);stroke-opacity:1;stroke-miterlimit:10;" d="M 871 395 L 845.019531 440 L 896.980469 440 L 871 395 "/>
<path style="fill-rule:nonzero;fill:rgb(67%,100%,18%);fill-opacity:1;stroke-width:1;stroke-linecap:butt;stroke-linejoin:miter;stroke:rgb(0%,0%,0%);stroke-opacity:1;stroke-miterlimit:10;" d="M 636 48 L 610.019531 93 L 661.980469 93 L 636 48 "/>
<path style="fill-rule:nonzero;fill:rgb(67%,100%,18%);fill-opacity:1;stroke-width:1;stroke-linecap:butt;stroke-linejoin:miter;stroke:rgb(0%,0%,0%);stroke-opacity:1;stroke-miterlimit:10;" d="M 678 367 L 652.019531 412 L 703.980469 412 L 678 367 "/>
</g>
</svg>
