<?xml version="1.0" encoding="UTF-8"?>
<svg xmlns="http://www.w3.org/2000/svg" xmlns:xlink="http://www.w3.org/1999/xlink" width="1179pt" height="517pt" viewBox="0 0 1179 517" version="1.1">
<g id="surface11">
<rect x="0" y="0" width="1179" height="517" style="fill:rgb(90%,90%,90%);fill-opacity:1;stroke:none;"/>
<path style="fill-rule:nonzero;fill:rgb(35%,70%,90%);fill-opacity:1;stroke-width:1;stroke-linecap:butt;stroke-linejoin:miter;stroke:rgb(0%,0%,0%);stroke-opacity:1;stroke-miterlimit:10;" d="M 103 311 L 132.664062 311 L 144.664062 282.785156 L 156.664062 311 L 186.332031 311 L 162.332031 328.4375 L 170.417969 359.980469 L 144.664062 342.542969 L 118.914062 359.980469 L 131.214844 328.4375 L 103 311 "/>
<path style="fill-rule:nonzero;fill:rgb(35%,70%,90%);fill-opacity:1;stroke-width:1;stroke-linecap:butt;stroke-linejoin:miter;stroke:rgb(0%,0%,0%);stroke-opacity:1;stroke-miterlimit:10;" d="M 347 270 L 376.664062 270 L 388.664062 241.785156 L 400.664062 270 L 430.332031 270 L 406.332031 287.4375 L 414.417969 318.980469 L 388.664062 301.542969 L 362.914062 318.980469 L 375.214844 287.4375 L 347 270 "/>
<path style="fill-rule:nonzero;fill:rgb(35%,70%,90%);fill-opacity:1;stroke-width:1;stroke-linecap:butt;stroke-linejoin:miter;stroke:rgb(0%,0%,0%);stroke-opacity:1;stroke-miterlimit:10;" d="M 244 283 L 273.664062 283 L 285.664062 254.785156 L 297.664062 283 L 327.332031 283 L 303.332031 300.4375 L 311.417969 331.980469 L 285.664062 314.542969 L 259.914062 331.980469 L 272.214844 300.4375 L 244 283 "/>
<path style="fill-rule:nonzero;fill:rgb(35%,70%,90%);fill-opacity:1;stroke-width:1;stroke-linecap:butt;stroke-linejoin:miter;stroke:rgb(0%,0%,0%);stroke-opacity:1;stroke-miterlimit:10;" d="M 339.785156 410.785156 L 339.785156 453.214844 L 382.214844 453.214844 L 382.214844 410.785156 L 339.785156 410.785156 "/>
<path style="fill-rule:nonzero;fill:rgb(35%,70%,90%);fill-opacity:1;stroke-width:1;stroke-linecap:butt;stroke-linejoin:miter;stroke:rgb(0%,0%,0%);stroke-opacity:1;stroke-miterlimit:10;" d="M 411 194 L 440.664062 194 L 452.664062 165.785156 L 464.664062 194 L 494.332031 194 L 470.332031 211.4375 L 478.417969 242.980469 L 452.664062 225.542969 L 426.914062 242.980469 L 439.214844 211.4375 L 411 194 "/>
<path style="fill-rule:nonzero;fill:rgb(35%,70%,90%);fill-opacity:1;stroke-width:1;stroke-linecap:butt;stroke-linejoin:miter;stroke:rgb(0%,0%,0%);stroke-opacity:1;stroke-miterlimit:10;" d="M 85 126 L 114.664062 126 L 126.664062 97.785156 L 138.664062 126 L 168.332031 126 L 144.332031 143.4375 L 152.417969 174.980469 L 126.664062 157.542969 L 100.914062 174.980469 L 113.214844 143.4375 L 85 126 "/>
<path style="fill-rule:nonzero;fill:rgb(35%,70%,90%);fill-opacity:1;stroke-width:1;stroke-linecap:butt;stroke-linejoin:miter;stroke:rgb(0%,0%,0%);stroke-opacity:1;stroke-miterlimit:10;" d="M 325 153 L 354.664062 153 L 366.664062 124.785156 L 378.664062 153 L 408.332031 153 L 384.332031 170.4375 L 392.417969 201.980469 L 366.664062 184.542969 L 340.914062 201.980469 L 353.214844 170.4375 L 325 153 "/>
<path style="fill-rule:nonzero;fill:rgb(100%,51%,0%);fill-opacity:1;stroke-width:1;stroke-linecap:butt;stroke-linejoin:miter;stroke:rgb(0%,0%,0%);stroke-opacity:1;stroke-miterlimit:10;" d="M 1012.785156 71.785156 L 1012.785156 114.214844 L 1055.214844 114.214844 L 1055.214844 71.785156 L 1012.785156 71.785156 "/>
<path style="fill-rule:nonzero;fill:rgb(100%,51%,0%);fill-opacity:1;stroke-width:1;stroke-linecap:butt;stroke-linejoin:miter;stroke:rgb(0%,0%,0%);stroke-opacity:1;stroke-miterlimit:10;" d="M 689.785156 283.785156 L 689.785156 326.214844 L 732.214844 326.214844 L 732.214844 283.785156 L 689.785156 283.785156 "/>
<path style="fill-rule:nonzero;fill:rgb(100%,51%,0%);fill-opacity:1;stroke-width:1;stroke-linecap:butt;stroke-linejoin:miter;stroke:rgb(0%,0%,0%);stroke-opacity:1;stroke-miterlimit:10;" d="M 964.785156 391.785156 L 964.785156 434.214844 L 1007.214844 434.214844 L 1007.214844 391.785156 L 964.785156 391.785156 "/>
<path style="fill-rule:nonzero;fill:rgb(100%,51%,0%);fill-opacity:1;stroke-width:1;stroke-linecap:butt;stroke-linejoin:miter;stroke:rgb(0%,0%,0%);stroke-opacity:1;stroke-miterlimit:10;" d="M 894 332 L 923.664062 332 L 935.664062 303.785156 L 947.664062 332 L 977.332031 332 L 953.332031 349.4375 L 961.417969 380.980469 L 935.664062 363.542969 L 909.914062 380.980469 L 922.214844 349.4375 L 894 332 "/>
<path style="fill-rule:nonzero;fill:rgb(100%,51%,0%);fill-opacity:1;stroke-width:1;stroke-linecap:butt;stroke-linejoin:miter;stroke:rgb(0%,0%,0%);stroke-opacity:1;stroke-miterlimit:10;" d="M 882.785156 118.785156 L 882.785156 161.214844 L 925.214844 161.214844 L 925.214844 118.785156 L 882.785156 118.785156 "/>
</g>
</svg>
