<?xml version="1.0" encoding="UTF-8"?>
<svg xmlns="http://www.w3.org/2000/svg" xmlns:xlink="http://www.w3.org/1999/xlink" width="1129pt" height="517pt" viewBox="0 0 1129 517" version="1.1">
<g id="surface761">
<rect x="0" y="0" width="1129" height="517" style="fill:rgb(90%,90%,90%);fill-opacity:1;stroke:none;"/>
<path style="fill-rule:nonzero;fill:rgb(53%,27%,7%);fill-opacity:1;stroke-width:1;stroke-linecap:butt;stroke-linejoin:miter;stroke:rgb(0%,0%,0%);stroke-opacity:1;stroke-miterlimit:10;" d="M 314 280.601562 C 314 266.199219 290 266.199219 290 280.601562 C 290 295 314 297.398438 314 309.398438 C 314 297.398438 338 295 338 280.601562 C 338 266.199219 314 266.199219 314 280.601562 "/>
<path style="fill-rule:nonzero;fill:rgb(53%,27%,7%);fill-opacity:1;stroke-width:1;stroke-linecap:butt;stroke-linejoin:miter;stroke:rgb(0%,0%,0%);stroke-opacity:1;stroke-miterlimit:10;" d="M 153.214844 327 C 153.214844 338.714844 143.714844 348.214844 132 348.214844 C 120.285156 348.214844 110.785156 338.714844 110.785156 327 C 110.785156 315.285156 120.285156 305.785156 132 305.785156 C 143.714844 305.785156 153.214844 315.285156 153.214844 327 "/>
<path style="fill-rule:nonzero;fill:rgb(53%,27%,7%);fill-opacity:1;stroke-width:1;stroke-linecap:butt;stroke-linejoin:miter;stroke:rgb(0%,0%,0%);stroke-opacity:1;stroke-miterlimit:10;" d="M 199 190.601562 C 199 176.199219 175 176.199219 175 190.601562 C 175 205 199 207.398438 199 219.398438 C 199 207.398438 223 205 223 190.601562 C 223 176.199219 199 176.199219 199 190.601562 "/>
<path style="fill-rule:nonzero;fill:rgb(53%,27%,7%);fill-opacity:1;stroke-width:1;stroke-linecap:butt;stroke-linejoin:miter;stroke:rgb(0%,0%,0%);stroke-opacity:1;stroke-miterlimit:10;" d="M 202.214844 53 C 202.214844 64.714844 192.714844 74.214844 181 74.214844 C 169.285156 74.214844 159.785156 64.714844 159.785156 53 C 159.785156 41.285156 169.285156 31.785156 181 31.785156 C 192.714844 31.785156 202.214844 41.285156 202.214844 53 "/>
<path style="fill-rule:nonzero;fill:rgb(53%,27%,7%);fill-opacity:1;stroke-width:1;stroke-linecap:butt;stroke-linejoin:miter;stroke:rgb(0%,0%,0%);stroke-opacity:1;stroke-miterlimit:10;" d="M 341 173.601562 C 341 159.199219 317 159.199219 317 173.601562 C 317 188 341 190.398438 341 202.398438 C 341 190.398438 365 188 365 173.601562 C 365 159.199219 341 159.199219 341 173.601562 "/>
<path style="fill-rule:nonzero;fill:rgb(53%,27%,7%);fill-opacity:1;stroke-width:1;stroke-linecap:butt;stroke-linejoin:miter;stroke:rgb(0%,0%,0%);stroke-opacity:1;stroke-miterlimit:10;" d="M 103 193.601562 C 103 179.199219 79 179.199219 79 193.601562 C 79 208 103 210.398438 103 222.398438 C 103 210.398438 127 208 127 193.601562 C 127 179.199219 103 179.199219 103 193.601562 "/>
<path style="fill-rule:nonzero;fill:rgb(53%,27%,7%);fill-opacity:1;stroke-width:1;stroke-linecap:butt;stroke-linejoin:miter;stroke:rgb(0%,0%,0%);stroke-opacity:1;stroke-miterlimit:10;" d="M 412 54.601562 C 412 40.199219 388 40.199219 388 54.601562 C 388 69 412 71.398438 412 83.398438 C 412 71.398438 436 69 436 54.601562 C 436 40.199219 412 40.199219 412 54.601562 "/>
<path style="fill-rule:nonzero;fill:rgb(53%,27%,7%);fill-opacity:1;stroke-width:1;stroke-linecap:butt;stroke-linejoin:miter;stroke:rgb(0%,0%,0%);stroke-opacity:1;stroke-miterlimit:10;" d="M 69 398.601562 C 69 384.199219 45 384.199219 45 398.601562 C 45 413 69 415.398438 69 427.398438 C 69 415.398438 93 413 93 398.601562 C 93 384.199219 69 384.199219 69 398.601562 "/>
<path style="fill-rule:nonzero;fill:rgb(100%,51%,0%);fill-opacity:1;stroke-width:1;stroke-linecap:butt;stroke-linejoin:miter;stroke:rgb(0%,0%,0%);stroke-opacity:1;stroke-miterlimit:10;" d="M 1007.214844 195 C 1007.214844 206.714844 997.714844 216.214844 986 216.214844 C 974.285156 216.214844 964.785156 206.714844 964.785156 195 C 964.785156 183.285156 974.285156 173.785156 986 173.785156 C 997.714844 173.785156 1007.214844 183.285156 1007.214844 195 "/>
<path style="fill-rule:nonzero;fill:rgb(100%,51%,0%);fill-opacity:1;stroke-width:1;stroke-linecap:butt;stroke-linejoin:miter;stroke:rgb(0%,0%,0%);stroke-opacity:1;stroke-miterlimit:10;" d="M 835 160.601562 C 835 146.199219 811 146.199219 811 160.601562 C 811 175 835 177.398438 835 189.398438 C 835 177.398438 859 175 859 160.601562 C 859 146.199219 835 146.199219 835 160.601562 "/>
<path style="fill-rule:nonzero;fill:rgb(100%,51%,0%);fill-opacity:1;stroke-width:1;stroke-linecap:butt;stroke-linejoin:miter;stroke:rgb(0%,0%,0%);stroke-opacity:1;stroke-miterlimit:10;" d="M 715.214844 138 C 715.214844 149.714844 705.714844 159.214844 694 159.214844 C 682.285156 159.214844 672.785156 149.714844 672.785156 138 C 672.785156 126.285156 682.285156 116.785156 694 116.785156 C 705.714844 116.785156 715.214844 126.285156 715.214844 138 "/>
<path style="fill-rule:nonzero;fill:rgb(100%,51%,0%);fill-opacity:1;stroke-width:1;stroke-linecap:butt;stroke-linejoin:miter;stroke:rgb(0%,0%,0%);stroke-opacity:1;stroke-miterlimit:10;" d="M 713 225.601562 C 713 211.199219 689 211.199219 689 225.601562 C 689 240 713 242.398438 713 254.398438 C 713 242.398438 737 240 737 225.601562 C 737 211.199219 713 211.199219 713 225.601562 "/>
<path style="fill-rule:nonzero;fill:rgb(100%,51%,0%);fill-opacity:1;stroke-width:1;stroke-linecap:butt;stroke-linejoin:miter;stroke:rgb(0%,0%,0%);stroke-opacity:1;stroke-miterlimit:10;" d="M 953.214844 399 C 953.214844 410.714844 943.714844 420.214844 932 420.214844 C 920.285156 420.214844 910.785156 410.714844 910.785156 399 C 910.785156 387.285156 920.285156 377.785156 932 377.785156 C 943.714844 377.785156 953.214844 387.285156 953.214844 399 "/>
<path style="fill-rule:nonzero;fill:rgb(100%,51%,0%);fill-opacity:1;stroke-width:1;stroke-linecap:butt;stroke-linejoin:miter;stroke:rgb(0%,0%,0%);stroke-opacity:1;stroke-miterlimit:10;" d="M 633.214844 211 C 633.214844 222.714844 623.714844 232.214844 612 232.214844 C 600.285156 232.214844 590.785156 222.714844 590.785156 211 C 590.785156 199.285156 600.285156 189.785156 612 189.785156 C 623.714844 189.785156 633.214844 199.285156 633.214844 211 "/>
<path style="fill-rule:nonzero;fill:rgb(100%,51%,0%);fill-opacity:1;stroke-width:1;stroke-linecap:butt;stroke-linejoin:miter;stroke:rgb(0%,0%,0%);stroke-opacity:1;stroke-miterlimit:10;" d="M 891.214844 58 C 891.214844 69.714844 881.714844 79.214844 870 79.214844 C 858.285156 79.214844 848.785156 69.714844 848.785156 58 C 848.785156 46.285156 858.285156 36.785156 870 36.785156 C 881.714844 36.785156 891.214844 46.285156 891.214844 58 "/>
<path style="fill-rule:nonzero;fill:rgb(100%,51%,0%);fill-opacity:1;stroke-width:1;stroke-linecap:butt;stroke-linejoin:miter;stroke:rgb(0%,0%,0%);stroke-opacity:1;stroke-miterlimit:10;" d="M 801.214844 92 C 801.214844 103.714844 791.714844 113.214844 780 113.214844 C 768.285156 113.214844 758.785156 103.714844 758.785156 92 C 758.785156 80.285156 768.285156 70.785156 780 70.785156 C 791.714844 70.785156 801.214844 80.285156 801.214844 92 "/>
</g>
</svg>
