<?xml version="1.0" encoding="UTF-8"?>
<svg xmlns="http://www.w3.org/2000/svg" xmlns:xlink="http://www.w3.org/1999/xlink" width="1129pt" height="517pt" viewBox="0 0 1129 517" version="1.1">
<g id="surface786">
<rect x="0" y="0" width="1129" height="517" style="fill:rgb(90%,90%,90%);fill-opacity:1;stroke:none;"/>
<path style="fill-rule:nonzero;fill:rgb(100%,51%,0%);fill-opacity:1;stroke-width:1;stroke-linecap:butt;stroke-linejoin:miter;stroke:rgb(0%,0%,0%);stroke-opacity:1;stroke-miterlimit:10;" d="M 109.214844 344 C 109.214844 355.714844 99.714844 365.214844 88 365.214844 C 76.285156 365.214844 66.785156 355.714844 66.785156 344 C 66.785156 332.285156 76.285156 322.785156 88 322.785156 C 99.714844 322.785156 109.214844 332.285156 109.214844 344 "/>
<path style="fill-rule:nonzero;fill:rgb(100%,51%,0%);fill-opacity:1;stroke-width:1;stroke-linecap:butt;stroke-linejoin:miter;stroke:rgb(0%,0%,0%);stroke-opacity:1;stroke-miterlimit:10;" d="M 244.214844 277 C 244.214844 288.714844 234.714844 298.214844 223 298.214844 C 211.285156 298.214844 201.785156 288.714844 201.785156 277 C 201.785156 265.285156 211.285156 255.785156 223 255.785156 C 234.714844 255.785156 244.214844 265.285156 244.214844 277 "/>
<path style="fill-rule:nonzero;fill:rgb(100%,51%,0%);fill-opacity:1;stroke-width:1;stroke-linecap:butt;stroke-linejoin:miter;stroke:rgb(0%,0%,0%);stroke-opacity:1;stroke-miterlimit:10;" d="M 698.214844 257 C 698.214844 268.714844 688.714844 278.214844 677 278.214844 C 665.285156 278.214844 655.785156 268.714844 655.785156 257 C 655.785156 245.285156 665.285156 235.785156 677 235.785156 C 688.714844 235.785156 698.214844 245.285156 698.214844 257 "/>
<path style="fill-rule:nonzero;fill:rgb(100%,51%,0%);fill-opacity:1;stroke-width:1;stroke-linecap:butt;stroke-linejoin:miter;stroke:rgb(0%,0%,0%);stroke-opacity:1;stroke-miterlimit:10;" d="M 595.214844 161 C 595.214844 172.714844 585.714844 182.214844 574 182.214844 C 562.285156 182.214844 552.785156 172.714844 552.785156 161 C 552.785156 149.285156 562.285156 139.785156 574 139.785156 C 585.714844 139.785156 595.214844 149.285156 595.214844 161 "/>
<path style="fill-rule:nonzero;fill:rgb(100%,51%,0%);fill-opacity:1;stroke-width:1;stroke-linecap:butt;stroke-linejoin:miter;stroke:rgb(0%,0%,0%);stroke-opacity:1;stroke-miterlimit:10;" d="M 854.214844 64 C 854.214844 75.714844 844.714844 85.214844 833 85.214844 C 821.285156 85.214844 811.785156 75.714844 811.785156 64 C 811.785156 52.285156 821.285156 42.785156 833 42.785156 C 844.714844 42.785156 854.214844 52.285156 854.214844 64 "/>
<path style="fill-rule:nonzero;fill:rgb(35%,70%,90%);fill-opacity:1;stroke-width:1;stroke-linecap:butt;stroke-linejoin:miter;stroke:rgb(0%,0%,0%);stroke-opacity:1;stroke-miterlimit:10;" d="M 285 123 L 314.664062 123 L 326.664062 94.785156 L 338.664062 123 L 368.332031 123 L 344.332031 140.4375 L 352.417969 171.980469 L 326.664062 154.542969 L 300.914062 171.980469 L 313.214844 140.4375 L 285 123 "/>
<path style="fill-rule:nonzero;fill:rgb(35%,70%,90%);fill-opacity:1;stroke-width:1;stroke-linecap:butt;stroke-linejoin:miter;stroke:rgb(0%,0%,0%);stroke-opacity:1;stroke-miterlimit:10;" d="M 319 381 L 348.664062 381 L 360.664062 352.785156 L 372.664062 381 L 402.332031 381 L 378.332031 398.4375 L 386.417969 429.980469 L 360.664062 412.542969 L 334.914062 429.980469 L 347.214844 398.4375 L 319 381 "/>
<path style="fill-rule:nonzero;fill:rgb(35%,70%,90%);fill-opacity:1;stroke-width:1;stroke-linecap:butt;stroke-linejoin:miter;stroke:rgb(0%,0%,0%);stroke-opacity:1;stroke-miterlimit:10;" d="M 84 73 L 113.664062 73 L 125.664062 44.785156 L 137.664062 73 L 167.332031 73 L 143.332031 90.4375 L 151.417969 121.980469 L 125.664062 104.542969 L 99.914062 121.980469 L 112.214844 90.4375 L 84 73 "/>
<path style="fill-rule:nonzero;fill:rgb(35%,70%,90%);fill-opacity:1;stroke-width:1;stroke-linecap:butt;stroke-linejoin:miter;stroke:rgb(0%,0%,0%);stroke-opacity:1;stroke-miterlimit:10;" d="M 87 190 L 116.664062 190 L 128.664062 161.785156 L 140.664062 190 L 170.332031 190 L 146.332031 207.4375 L 154.417969 238.980469 L 128.664062 221.542969 L 102.914062 238.980469 L 115.214844 207.4375 L 87 190 "/>
<path style="fill-rule:nonzero;fill:rgb(35%,70%,90%);fill-opacity:1;stroke-width:1;stroke-linecap:butt;stroke-linejoin:miter;stroke:rgb(0%,0%,0%);stroke-opacity:1;stroke-miterlimit:10;" d="M 954 110 L 983.664062 110 L 995.664062 81.785156 L 1007.664062 110 L 1037.332031 110 L 1013.332031 127.4375 L 1021.417969 158.980469 L 995.664062 141.542969 L 969.914062 158.980469 L 982.214844 127.4375 L 954 110 "/>
<path style="fill-rule:nonzero;fill:rgb(35%,70%,90%);fill-opacity:1;stroke-width:1;stroke-linecap:butt;stroke-linejoin:miter;stroke:rgb(0%,0%,0%);stroke-opacity:1;stroke-miterlimit:10;" d="M 520 72 L 549.664062 72 L 561.664062 43.785156 L 573.664062 72 L 603.332031 72 L 579.332031 89.4375 L 587.417969 120.980469 L 561.664062 103.542969 L 535.914062 120.980469 L 548.214844 89.4375 L 520 72 "/>
<path style="fill-rule:nonzero;fill:rgb(35%,70%,90%);fill-opacity:1;stroke-width:1;stroke-linecap:butt;stroke-linejoin:miter;stroke:rgb(0%,0%,0%);stroke-opacity:1;stroke-miterlimit:10;" d="M 446 386 L 475.664062 386 L 487.664062 357.785156 L 499.664062 386 L 529.332031 386 L 505.332031 403.4375 L 513.417969 434.980469 L 487.664062 417.542969 L 461.914062 434.980469 L 474.214844 403.4375 L 446 386 "/>
<path style="fill-rule:nonzero;fill:rgb(35%,70%,90%);fill-opacity:1;stroke-width:1;stroke-linecap:butt;stroke-linejoin:miter;stroke:rgb(0%,0%,0%);stroke-opacity:1;stroke-miterlimit:10;" d="M 863 323 L 892.664062 323 L 904.664062 294.785156 L 916.664062 323 L 946.332031 323 L 922.332031 340.4375 L 930.417969 371.980469 L 904.664062 354.542969 L 878.914062 371.980469 L 891.214844 340.4375 L 863 323 "/>
</g>
</svg>
