<?xml version="1.0" encoding="UTF-8"?>
<svg xmlns="http://www.w3.org/2000/svg" xmlns:xlink="http://www.w3.org/1999/xlink" width="1129pt" height="517pt" viewBox="0 0 1129 517" version="1.1">
<g id="surface591">
<rect x="0" y="0" width="1129" height="517" style="fill:rgb(90%,90%,90%);fill-opacity:1;stroke:none;"/>
<path style="fill-rule:nonzero;fill:rgb(35%,70%,90%);fill-opacity:1;stroke-width:1;stroke-linecap:butt;stroke-linejoin:miter;stroke:rgb(0%,0%,0%);stroke-opacity:1;stroke-miterlimit:10;" d="M 212.214844 203 C 212.214844 214.714844 202.714844 224.214844 191 224.214844 C 179.285156 224.214844 169.785156 214.714844 169.785156 203 C 169.785156 191.285156 179.285156 181.785156 191 181.785156 C 202.714844 181.785156 212.214844 191.285156 212.214844 203 "/>
<path style="fill-rule:nonzero;fill:rgb(35%,70%,90%);fill-opacity:1;stroke-width:1;stroke-linecap:butt;stroke-linejoin:miter;stroke:rgb(0%,0%,0%);stroke-opacity:1;stroke-miterlimit:10;" d="M 386.785156 273.785156 L 386.785156 316.214844 L 429.214844 316.214844 L 429.214844 273.785156 L 386.785156 273.785156 "/>
<path style="fill-rule:nonzero;fill:rgb(35%,70%,90%);fill-opacity:1;stroke-width:1;stroke-linecap:butt;stroke-linejoin:miter;stroke:rgb(0%,0%,0%);stroke-opacity:1;stroke-miterlimit:10;" d="M 232.785156 358.785156 L 232.785156 401.214844 L 275.214844 401.214844 L 275.214844 358.785156 L 232.785156 358.785156 "/>
<path style="fill-rule:nonzero;fill:rgb(35%,70%,90%);fill-opacity:1;stroke-width:1;stroke-linecap:butt;stroke-linejoin:miter;stroke:rgb(0%,0%,0%);stroke-opacity:1;stroke-miterlimit:10;" d="M 346.214844 188 C 346.214844 199.714844 336.714844 209.214844 325 209.214844 C 313.285156 209.214844 303.785156 199.714844 303.785156 188 C 303.785156 176.285156 313.285156 166.785156 325 166.785156 C 336.714844 166.785156 346.214844 176.285156 346.214844 188 "/>
<path style="fill-rule:nonzero;fill:rgb(35%,70%,90%);fill-opacity:1;stroke-width:1;stroke-linecap:butt;stroke-linejoin:miter;stroke:rgb(0%,0%,0%);stroke-opacity:1;stroke-miterlimit:10;" d="M 460.214844 142 C 460.214844 153.714844 450.714844 163.214844 439 163.214844 C 427.285156 163.214844 417.785156 153.714844 417.785156 142 C 417.785156 130.285156 427.285156 120.785156 439 120.785156 C 450.714844 120.785156 460.214844 130.285156 460.214844 142 "/>
<path style="fill-rule:nonzero;fill:rgb(35%,70%,90%);fill-opacity:1;stroke-width:1;stroke-linecap:butt;stroke-linejoin:miter;stroke:rgb(0%,0%,0%);stroke-opacity:1;stroke-miterlimit:10;" d="M 298.214844 73 C 298.214844 84.714844 288.714844 94.214844 277 94.214844 C 265.285156 94.214844 255.785156 84.714844 255.785156 73 C 255.785156 61.285156 265.285156 51.785156 277 51.785156 C 288.714844 51.785156 298.214844 61.285156 298.214844 73 "/>
<path style="fill-rule:nonzero;fill:rgb(35%,70%,90%);fill-opacity:1;stroke-width:1;stroke-linecap:butt;stroke-linejoin:miter;stroke:rgb(0%,0%,0%);stroke-opacity:1;stroke-miterlimit:10;" d="M 91.214844 118 C 91.214844 129.714844 81.714844 139.214844 70 139.214844 C 58.285156 139.214844 48.785156 129.714844 48.785156 118 C 48.785156 106.285156 58.285156 96.785156 70 96.785156 C 81.714844 96.785156 91.214844 106.285156 91.214844 118 "/>
<path style="fill-rule:nonzero;fill:rgb(53%,27%,7%);fill-opacity:1;stroke-width:1;stroke-linecap:butt;stroke-linejoin:miter;stroke:rgb(0%,0%,0%);stroke-opacity:1;stroke-miterlimit:10;" d="M 744.785156 232.785156 L 744.785156 275.214844 L 787.214844 275.214844 L 787.214844 232.785156 L 744.785156 232.785156 "/>
<path style="fill-rule:nonzero;fill:rgb(53%,27%,7%);fill-opacity:1;stroke-width:1;stroke-linecap:butt;stroke-linejoin:miter;stroke:rgb(0%,0%,0%);stroke-opacity:1;stroke-miterlimit:10;" d="M 1009.214844 458 C 1009.214844 469.714844 999.714844 479.214844 988 479.214844 C 976.285156 479.214844 966.785156 469.714844 966.785156 458 C 966.785156 446.285156 976.285156 436.785156 988 436.785156 C 999.714844 436.785156 1009.214844 446.285156 1009.214844 458 "/>
<path style="fill-rule:nonzero;fill:rgb(53%,27%,7%);fill-opacity:1;stroke-width:1;stroke-linecap:butt;stroke-linejoin:miter;stroke:rgb(0%,0%,0%);stroke-opacity:1;stroke-miterlimit:10;" d="M 714.214844 134 C 714.214844 145.714844 704.714844 155.214844 693 155.214844 C 681.285156 155.214844 671.785156 145.714844 671.785156 134 C 671.785156 122.285156 681.285156 112.785156 693 112.785156 C 704.714844 112.785156 714.214844 122.285156 714.214844 134 "/>
<path style="fill-rule:nonzero;fill:rgb(53%,27%,7%);fill-opacity:1;stroke-width:1;stroke-linecap:butt;stroke-linejoin:miter;stroke:rgb(0%,0%,0%);stroke-opacity:1;stroke-miterlimit:10;" d="M 918.785156 235.785156 L 918.785156 278.214844 L 961.214844 278.214844 L 961.214844 235.785156 L 918.785156 235.785156 "/>
<path style="fill-rule:nonzero;fill:rgb(53%,27%,7%);fill-opacity:1;stroke-width:1;stroke-linecap:butt;stroke-linejoin:miter;stroke:rgb(0%,0%,0%);stroke-opacity:1;stroke-miterlimit:10;" d="M 1001.785156 313.785156 L 1001.785156 356.214844 L 1044.214844 356.214844 L 1044.214844 313.785156 L 1001.785156 313.785156 "/>
<path style="fill-rule:nonzero;fill:rgb(53%,27%,7%);fill-opacity:1;stroke-width:1;stroke-linecap:butt;stroke-linejoin:miter;stroke:rgb(0%,0%,0%);stroke-opacity:1;stroke-miterlimit:10;" d="M 910.785156 339.785156 L 910.785156 382.214844 L 953.214844 382.214844 L 953.214844 339.785156 L 910.785156 339.785156 "/>
<path style="fill-rule:nonzero;fill:rgb(53%,27%,7%);fill-opacity:1;stroke-width:1;stroke-linecap:butt;stroke-linejoin:miter;stroke:rgb(0%,0%,0%);stroke-opacity:1;stroke-miterlimit:10;" d="M 806.785156 383.785156 L 806.785156 426.214844 L 849.214844 426.214844 L 849.214844 383.785156 L 806.785156 383.785156 "/>
</g>
</svg>
