<?xml version="1.0" encoding="UTF-8"?>
<svg xmlns="http://www.w3.org/2000/svg" xmlns:xlink="http://www.w3.org/1999/xlink" width="1179pt" height="517pt" viewBox="0 0 1179 517" version="1.1">
<g id="surface846">
<rect x="0" y="0" width="1179" height="517" style="fill:rgb(90%,90%,90%);fill-opacity:1;stroke:none;"/>
<path style="fill-rule:nonzero;fill:rgb(0%,0%,0%);fill-opacity:1;stroke-width:1;stroke-linecap:butt;stroke-linejoin:miter;stroke:rgb(0%,0%,0%);stroke-opacity:1;stroke-miterlimit:10;" d="M 275 223 L 255 223 L 255 233 L 275 233 L 275 253 L 285 253 L 285 233 L 305 233 L 305 223 L 285 223 L 285 203 L 275 203 L 275 223 "/>
<path style="fill-rule:nonzero;fill:rgb(0%,0%,0%);fill-opacity:1;stroke-width:1;stroke-linecap:butt;stroke-linejoin:miter;stroke:rgb(0%,0%,0%);stroke-opacity:1;stroke-miterlimit:10;" d="M 411 95 L 391 95 L 391 105 L 411 105 L 411 125 L 421 125 L 421 105 L 441 105 L 441 95 L 421 95 L 421 75 L 411 75 L 411 95 "/>
<path style="fill-rule:nonzero;fill:rgb(100%,0%,0%);fill-opacity:1;stroke-width:1;stroke-linecap:butt;stroke-linejoin:miter;stroke:rgb(0%,0%,0%);stroke-opacity:1;stroke-miterlimit:10;" d="M 425 179.601562 C 425 165.199219 401 165.199219 401 179.601562 C 401 194 425 196.398438 425 208.398438 C 425 196.398438 449 194 449 179.601562 C 449 165.199219 425 165.199219 425 179.601562 "/>
<path style="fill-rule:nonzero;fill:rgb(100%,0%,0%);fill-opacity:1;stroke-width:1;stroke-linecap:butt;stroke-linejoin:miter;stroke:rgb(0%,0%,0%);stroke-opacity:1;stroke-miterlimit:10;" d="M 355 381.601562 C 355 367.199219 331 367.199219 331 381.601562 C 331 396 355 398.398438 355 410.398438 C 355 398.398438 379 396 379 381.601562 C 379 367.199219 355 367.199219 355 381.601562 "/>
<path style="fill-rule:nonzero;fill:rgb(0%,0%,0%);fill-opacity:1;stroke-width:1;stroke-linecap:butt;stroke-linejoin:miter;stroke:rgb(0%,0%,0%);stroke-opacity:1;stroke-miterlimit:10;" d="M 218 89 L 198 89 L 198 99 L 218 99 L 218 119 L 228 119 L 228 99 L 248 99 L 248 89 L 228 89 L 228 69 L 218 69 L 218 89 "/>
<path style="fill-rule:nonzero;fill:rgb(0%,0%,0%);fill-opacity:1;stroke-width:1;stroke-linecap:butt;stroke-linejoin:miter;stroke:rgb(0%,0%,0%);stroke-opacity:1;stroke-miterlimit:10;" d="M 858 79 L 838 79 L 838 89 L 858 89 L 858 109 L 868 109 L 868 89 L 888 89 L 888 79 L 868 79 L 868 59 L 858 59 L 858 79 "/>
<path style="fill-rule:nonzero;fill:rgb(0%,0%,0%);fill-opacity:1;stroke-width:1;stroke-linecap:butt;stroke-linejoin:miter;stroke:rgb(0%,0%,0%);stroke-opacity:1;stroke-miterlimit:10;" d="M 887 245 L 867 245 L 867 255 L 887 255 L 887 275 L 897 275 L 897 255 L 917 255 L 917 245 L 897 245 L 897 225 L 887 225 L 887 245 "/>
<path style="fill-rule:nonzero;fill:rgb(100%,0%,0%);fill-opacity:1;stroke-width:1;stroke-linecap:butt;stroke-linejoin:miter;stroke:rgb(0%,0%,0%);stroke-opacity:1;stroke-miterlimit:10;" d="M 1023 416.601562 C 1023 402.199219 999 402.199219 999 416.601562 C 999 431 1023 433.398438 1023 445.398438 C 1023 433.398438 1047 431 1047 416.601562 C 1047 402.199219 1023 402.199219 1023 416.601562 "/>
<path style="fill-rule:nonzero;fill:rgb(100%,0%,0%);fill-opacity:1;stroke-width:1;stroke-linecap:butt;stroke-linejoin:miter;stroke:rgb(0%,0%,0%);stroke-opacity:1;stroke-miterlimit:10;" d="M 723 75.601562 C 723 61.199219 699 61.199219 699 75.601562 C 699 90 723 92.398438 723 104.398438 C 723 92.398438 747 90 747 75.601562 C 747 61.199219 723 61.199219 723 75.601562 "/>
<path style="fill-rule:nonzero;fill:rgb(100%,0%,0%);fill-opacity:1;stroke-width:1;stroke-linecap:butt;stroke-linejoin:miter;stroke:rgb(0%,0%,0%);stroke-opacity:1;stroke-miterlimit:10;" d="M 696 362.601562 C 696 348.199219 672 348.199219 672 362.601562 C 672 377 696 379.398438 696 391.398438 C 696 379.398438 720 377 720 362.601562 C 720 348.199219 696 348.199219 696 362.601562 "/>
<path style="fill-rule:nonzero;fill:rgb(0%,0%,0%);fill-opacity:1;stroke-width:1;stroke-linecap:butt;stroke-linejoin:miter;stroke:rgb(0%,0%,0%);stroke-opacity:1;stroke-miterlimit:10;" d="M 1003 146 L 983 146 L 983 156 L 1003 156 L 1003 176 L 1013 176 L 1013 156 L 1033 156 L 1033 146 L 1013 146 L 1013 126 L 1003 126 L 1003 146 "/>
</g>
</svg>
