<?xml version="1.0" encoding="UTF-8"?>
<svg xmlns="http://www.w3.org/2000/svg" xmlns:xlink="http://www.w3.org/1999/xlink" width="1129pt" height="517pt" viewBox="0 0 1129 517" version="1.1">
<g id="surface601">
<rect x="0" y="0" width="1129" height="517" style="fill:rgb(90%,90%,90%);fill-opacity:1;stroke:none;"/>
<path style="fill-rule:nonzero;fill:rgb(35%,70%,90%);fill-opacity:1;stroke-width:1;stroke-linecap:butt;stroke-linejoin:miter;stroke:rgb(0%,0%,0%);stroke-opacity:1;stroke-miterlimit:10;" d="M 359 259 L 388.664062 259 L 400.664062 230.785156 L 412.664062 259 L 442.332031 259 L 418.332031 276.4375 L 426.417969 307.980469 L 400.664062 290.542969 L 374.914062 307.980469 L 387.214844 276.4375 L 359 259 "/>
<path style="fill-rule:nonzero;fill:rgb(35%,70%,90%);fill-opacity:1;stroke-width:1;stroke-linecap:butt;stroke-linejoin:miter;stroke:rgb(0%,0%,0%);stroke-opacity:1;stroke-miterlimit:10;" d="M 785 238 L 814.664062 238 L 826.664062 209.785156 L 838.664062 238 L 868.332031 238 L 844.332031 255.4375 L 852.417969 286.980469 L 826.664062 269.542969 L 800.914062 286.980469 L 813.214844 255.4375 L 785 238 "/>
<path style="fill-rule:nonzero;fill:rgb(35%,70%,90%);fill-opacity:1;stroke-width:1;stroke-linecap:butt;stroke-linejoin:miter;stroke:rgb(0%,0%,0%);stroke-opacity:1;stroke-miterlimit:10;" d="M 839 405 L 868.664062 405 L 880.664062 376.785156 L 892.664062 405 L 922.332031 405 L 898.332031 422.4375 L 906.417969 453.980469 L 880.664062 436.542969 L 854.914062 453.980469 L 867.214844 422.4375 L 839 405 "/>
<path style="fill-rule:nonzero;fill:rgb(35%,70%,90%);fill-opacity:1;stroke-width:1;stroke-linecap:butt;stroke-linejoin:miter;stroke:rgb(0%,0%,0%);stroke-opacity:1;stroke-miterlimit:10;" d="M 701 405 L 730.664062 405 L 742.664062 376.785156 L 754.664062 405 L 784.332031 405 L 760.332031 422.4375 L 768.417969 453.980469 L 742.664062 436.542969 L 716.914062 453.980469 L 729.214844 422.4375 L 701 405 "/>
<path style="fill-rule:nonzero;fill:rgb(35%,70%,90%);fill-opacity:1;stroke-width:1;stroke-linecap:butt;stroke-linejoin:miter;stroke:rgb(0%,0%,0%);stroke-opacity:1;stroke-miterlimit:10;" d="M 704 171 L 733.664062 171 L 745.664062 142.785156 L 757.664062 171 L 787.332031 171 L 763.332031 188.4375 L 771.417969 219.980469 L 745.664062 202.542969 L 719.914062 219.980469 L 732.214844 188.4375 L 704 171 "/>
<path style="fill-rule:nonzero;fill:rgb(55%,51%,53%);fill-opacity:1;stroke-width:1;stroke-linecap:butt;stroke-linejoin:miter;stroke:rgb(0%,0%,0%);stroke-opacity:1;stroke-miterlimit:10;" d="M 448.214844 98 C 448.214844 109.714844 438.714844 119.214844 427 119.214844 C 415.285156 119.214844 405.785156 109.714844 405.785156 98 C 405.785156 86.285156 415.285156 76.785156 427 76.785156 C 438.714844 76.785156 448.214844 86.285156 448.214844 98 "/>
<path style="fill-rule:nonzero;fill:rgb(55%,51%,53%);fill-opacity:1;stroke-width:1;stroke-linecap:butt;stroke-linejoin:miter;stroke:rgb(0%,0%,0%);stroke-opacity:1;stroke-miterlimit:10;" d="M 216.214844 53 C 216.214844 64.714844 206.714844 74.214844 195 74.214844 C 183.285156 74.214844 173.785156 64.714844 173.785156 53 C 173.785156 41.285156 183.285156 31.785156 195 31.785156 C 206.714844 31.785156 216.214844 41.285156 216.214844 53 "/>
<path style="fill-rule:nonzero;fill:rgb(55%,51%,53%);fill-opacity:1;stroke-width:1;stroke-linecap:butt;stroke-linejoin:miter;stroke:rgb(0%,0%,0%);stroke-opacity:1;stroke-miterlimit:10;" d="M 867.214844 121 C 867.214844 132.714844 857.714844 142.214844 846 142.214844 C 834.285156 142.214844 824.785156 132.714844 824.785156 121 C 824.785156 109.285156 834.285156 99.785156 846 99.785156 C 857.714844 99.785156 867.214844 109.285156 867.214844 121 "/>
<path style="fill-rule:nonzero;fill:rgb(55%,51%,53%);fill-opacity:1;stroke-width:1;stroke-linecap:butt;stroke-linejoin:miter;stroke:rgb(0%,0%,0%);stroke-opacity:1;stroke-miterlimit:10;" d="M 255.214844 364 C 255.214844 375.714844 245.714844 385.214844 234 385.214844 C 222.285156 385.214844 212.785156 375.714844 212.785156 364 C 212.785156 352.285156 222.285156 342.785156 234 342.785156 C 245.714844 342.785156 255.214844 352.285156 255.214844 364 "/>
</g>
</svg>
