<?xml version="1.0" encoding="UTF-8"?>
<svg xmlns="http://www.w3.org/2000/svg" xmlns:xlink="http://www.w3.org/1999/xlink" width="1129pt" height="517pt" viewBox="0 0 1129 517" version="1.1">
<g id="surface986">
<rect x="0" y="0" width="1129" height="517" style="fill:rgb(90%,90%,90%);fill-opacity:1;stroke:none;"/>
<path style="fill-rule:nonzero;fill:rgb(53%,27%,7%);fill-opacity:1;stroke-width:1;stroke-linecap:butt;stroke-linejoin:miter;stroke:rgb(0%,0%,0%);stroke-opacity:1;stroke-miterlimit:10;" d="M 110 304.601562 C 110 290.199219 86 290.199219 86 304.601562 C 86 319 110 321.398438 110 333.398438 C 110 321.398438 134 319 134 304.601562 C 134 290.199219 110 290.199219 110 304.601562 "/>
<path style="fill-rule:nonzero;fill:rgb(53%,27%,7%);fill-opacity:1;stroke-width:1;stroke-linecap:butt;stroke-linejoin:miter;stroke:rgb(0%,0%,0%);stroke-opacity:1;stroke-miterlimit:10;" d="M 349.214844 79 C 349.214844 90.714844 339.714844 100.214844 328 100.214844 C 316.285156 100.214844 306.785156 90.714844 306.785156 79 C 306.785156 67.285156 316.285156 57.785156 328 57.785156 C 339.714844 57.785156 349.214844 67.285156 349.214844 79 "/>
<path style="fill-rule:nonzero;fill:rgb(53%,27%,7%);fill-opacity:1;stroke-width:1;stroke-linecap:butt;stroke-linejoin:miter;stroke:rgb(0%,0%,0%);stroke-opacity:1;stroke-miterlimit:10;" d="M 230.214844 312 C 230.214844 323.714844 220.714844 333.214844 209 333.214844 C 197.285156 333.214844 187.785156 323.714844 187.785156 312 C 187.785156 300.285156 197.285156 290.785156 209 290.785156 C 220.714844 290.785156 230.214844 300.285156 230.214844 312 "/>
<path style="fill-rule:nonzero;fill:rgb(53%,27%,7%);fill-opacity:1;stroke-width:1;stroke-linecap:butt;stroke-linejoin:miter;stroke:rgb(0%,0%,0%);stroke-opacity:1;stroke-miterlimit:10;" d="M 289 413.601562 C 289 399.199219 265 399.199219 265 413.601562 C 265 428 289 430.398438 289 442.398438 C 289 430.398438 313 428 313 413.601562 C 313 399.199219 289 399.199219 289 413.601562 "/>
<path style="fill-rule:nonzero;fill:rgb(53%,27%,7%);fill-opacity:1;stroke-width:1;stroke-linecap:butt;stroke-linejoin:miter;stroke:rgb(0%,0%,0%);stroke-opacity:1;stroke-miterlimit:10;" d="M 426 143.601562 C 426 129.199219 402 129.199219 402 143.601562 C 402 158 426 160.398438 426 172.398438 C 426 160.398438 450 158 450 143.601562 C 450 129.199219 426 129.199219 426 143.601562 "/>
<path style="fill-rule:nonzero;fill:rgb(53%,27%,7%);fill-opacity:1;stroke-width:1;stroke-linecap:butt;stroke-linejoin:miter;stroke:rgb(0%,0%,0%);stroke-opacity:1;stroke-miterlimit:10;" d="M 401 293.601562 C 401 279.199219 377 279.199219 377 293.601562 C 377 308 401 310.398438 401 322.398438 C 401 310.398438 425 308 425 293.601562 C 425 279.199219 401 279.199219 401 293.601562 "/>
<path style="fill-rule:nonzero;fill:rgb(53%,27%,7%);fill-opacity:1;stroke-width:1;stroke-linecap:butt;stroke-linejoin:miter;stroke:rgb(0%,0%,0%);stroke-opacity:1;stroke-miterlimit:10;" d="M 453 396.601562 C 453 382.199219 429 382.199219 429 396.601562 C 429 411 453 413.398438 453 425.398438 C 453 413.398438 477 411 477 396.601562 C 477 382.199219 453 382.199219 453 396.601562 "/>
<path style="fill-rule:nonzero;fill:rgb(53%,27%,7%);fill-opacity:1;stroke-width:1;stroke-linecap:butt;stroke-linejoin:miter;stroke:rgb(0%,0%,0%);stroke-opacity:1;stroke-miterlimit:10;" d="M 116 194.601562 C 116 180.199219 92 180.199219 92 194.601562 C 92 209 116 211.398438 116 223.398438 C 116 211.398438 140 209 140 194.601562 C 140 180.199219 116 180.199219 116 194.601562 "/>
<path style="fill-rule:nonzero;fill:rgb(100%,51%,0%);fill-opacity:1;stroke-width:1;stroke-linecap:butt;stroke-linejoin:miter;stroke:rgb(0%,0%,0%);stroke-opacity:1;stroke-miterlimit:10;" d="M 1013.214844 356 C 1013.214844 367.714844 1003.714844 377.214844 992 377.214844 C 980.285156 377.214844 970.785156 367.714844 970.785156 356 C 970.785156 344.285156 980.285156 334.785156 992 334.785156 C 1003.714844 334.785156 1013.214844 344.285156 1013.214844 356 "/>
<path style="fill-rule:nonzero;fill:rgb(100%,51%,0%);fill-opacity:1;stroke-width:1;stroke-linecap:butt;stroke-linejoin:miter;stroke:rgb(0%,0%,0%);stroke-opacity:1;stroke-miterlimit:10;" d="M 935 209.601562 C 935 195.199219 911 195.199219 911 209.601562 C 911 224 935 226.398438 935 238.398438 C 935 226.398438 959 224 959 209.601562 C 959 195.199219 935 195.199219 935 209.601562 "/>
<path style="fill-rule:nonzero;fill:rgb(100%,51%,0%);fill-opacity:1;stroke-width:1;stroke-linecap:butt;stroke-linejoin:miter;stroke:rgb(0%,0%,0%);stroke-opacity:1;stroke-miterlimit:10;" d="M 783 55.601562 C 783 41.199219 759 41.199219 759 55.601562 C 759 70 783 72.398438 783 84.398438 C 783 72.398438 807 70 807 55.601562 C 807 41.199219 783 41.199219 783 55.601562 "/>
<path style="fill-rule:nonzero;fill:rgb(100%,51%,0%);fill-opacity:1;stroke-width:1;stroke-linecap:butt;stroke-linejoin:miter;stroke:rgb(0%,0%,0%);stroke-opacity:1;stroke-miterlimit:10;" d="M 780.214844 203 C 780.214844 214.714844 770.714844 224.214844 759 224.214844 C 747.285156 224.214844 737.785156 214.714844 737.785156 203 C 737.785156 191.285156 747.285156 181.785156 759 181.785156 C 770.714844 181.785156 780.214844 191.285156 780.214844 203 "/>
<path style="fill-rule:nonzero;fill:rgb(100%,51%,0%);fill-opacity:1;stroke-width:1;stroke-linecap:butt;stroke-linejoin:miter;stroke:rgb(0%,0%,0%);stroke-opacity:1;stroke-miterlimit:10;" d="M 644.214844 320 C 644.214844 331.714844 634.714844 341.214844 623 341.214844 C 611.285156 341.214844 601.785156 331.714844 601.785156 320 C 601.785156 308.285156 611.285156 298.785156 623 298.785156 C 634.714844 298.785156 644.214844 308.285156 644.214844 320 "/>
<path style="fill-rule:nonzero;fill:rgb(100%,51%,0%);fill-opacity:1;stroke-width:1;stroke-linecap:butt;stroke-linejoin:miter;stroke:rgb(0%,0%,0%);stroke-opacity:1;stroke-miterlimit:10;" d="M 802.214844 420 C 802.214844 431.714844 792.714844 441.214844 781 441.214844 C 769.285156 441.214844 759.785156 431.714844 759.785156 420 C 759.785156 408.285156 769.285156 398.785156 781 398.785156 C 792.714844 398.785156 802.214844 408.285156 802.214844 420 "/>
<path style="fill-rule:nonzero;fill:rgb(100%,51%,0%);fill-opacity:1;stroke-width:1;stroke-linecap:butt;stroke-linejoin:miter;stroke:rgb(0%,0%,0%);stroke-opacity:1;stroke-miterlimit:10;" d="M 906.214844 406 C 906.214844 417.714844 896.714844 427.214844 885 427.214844 C 873.285156 427.214844 863.785156 417.714844 863.785156 406 C 863.785156 394.285156 873.285156 384.785156 885 384.785156 C 896.714844 384.785156 906.214844 394.285156 906.214844 406 "/>
<path style="fill-rule:nonzero;fill:rgb(100%,51%,0%);fill-opacity:1;stroke-width:1;stroke-linecap:butt;stroke-linejoin:miter;stroke:rgb(0%,0%,0%);stroke-opacity:1;stroke-miterlimit:10;" d="M 881.214844 128 C 881.214844 139.714844 871.714844 149.214844 860 149.214844 C 848.285156 149.214844 838.785156 139.714844 838.785156 128 C 838.785156 116.285156 848.285156 106.785156 860 106.785156 C 871.714844 106.785156 881.214844 116.285156 881.214844 128 "/>
</g>
</svg>
