<?xml version="1.0" encoding="UTF-8"?>
<svg xmlns="http://www.w3.org/2000/svg" xmlns:xlink="http://www.w3.org/1999/xlink" width="1129pt" height="517pt" viewBox="0 0 1129 517" version="1.1">
<g id="surface606">
<rect x="0" y="0" width="1129" height="517" style="fill:rgb(90%,90%,90%);fill-opacity:1;stroke:none;"/>
<path style="fill-rule:nonzero;fill:rgb(35%,70%,90%);fill-opacity:1;stroke-width:1;stroke-linecap:butt;stroke-linejoin:miter;stroke:rgb(0%,0%,0%);stroke-opacity:1;stroke-miterlimit:10;" d="M 219 240 L 248.664062 240 L 260.664062 211.785156 L 272.664062 240 L 302.332031 240 L 278.332031 257.4375 L 286.417969 288.980469 L 260.664062 271.542969 L 234.914062 288.980469 L 247.214844 257.4375 L 219 240 "/>
<path style="fill-rule:nonzero;fill:rgb(35%,70%,90%);fill-opacity:1;stroke-width:1;stroke-linecap:butt;stroke-linejoin:miter;stroke:rgb(0%,0%,0%);stroke-opacity:1;stroke-miterlimit:10;" d="M 353 452 L 382.664062 452 L 394.664062 423.785156 L 406.664062 452 L 436.332031 452 L 412.332031 469.4375 L 420.417969 500.980469 L 394.664062 483.542969 L 368.914062 500.980469 L 381.214844 469.4375 L 353 452 "/>
<path style="fill-rule:nonzero;fill:rgb(35%,70%,90%);fill-opacity:1;stroke-width:1;stroke-linecap:butt;stroke-linejoin:miter;stroke:rgb(0%,0%,0%);stroke-opacity:1;stroke-miterlimit:10;" d="M 791 308 L 820.664062 308 L 832.664062 279.785156 L 844.664062 308 L 874.332031 308 L 850.332031 325.4375 L 858.417969 356.980469 L 832.664062 339.542969 L 806.914062 356.980469 L 819.214844 325.4375 L 791 308 "/>
<path style="fill-rule:nonzero;fill:rgb(35%,70%,90%);fill-opacity:1;stroke-width:1;stroke-linecap:butt;stroke-linejoin:miter;stroke:rgb(0%,0%,0%);stroke-opacity:1;stroke-miterlimit:10;" d="M 398 82 L 427.664062 82 L 439.664062 53.785156 L 451.664062 82 L 481.332031 82 L 457.332031 99.4375 L 465.417969 130.980469 L 439.664062 113.542969 L 413.914062 130.980469 L 426.214844 99.4375 L 398 82 "/>
<path style="fill-rule:nonzero;fill:rgb(55%,51%,53%);fill-opacity:1;stroke-width:1;stroke-linecap:butt;stroke-linejoin:miter;stroke:rgb(0%,0%,0%);stroke-opacity:1;stroke-miterlimit:10;" d="M 260 400 L 234.019531 445 L 285.980469 445 L 260 400 "/>
<path style="fill-rule:nonzero;fill:rgb(55%,51%,53%);fill-opacity:1;stroke-width:1;stroke-linecap:butt;stroke-linejoin:miter;stroke:rgb(0%,0%,0%);stroke-opacity:1;stroke-miterlimit:10;" d="M 746 80 L 720.019531 125 L 771.980469 125 L 746 80 "/>
<path style="fill-rule:nonzero;fill:rgb(55%,51%,53%);fill-opacity:1;stroke-width:1;stroke-linecap:butt;stroke-linejoin:miter;stroke:rgb(0%,0%,0%);stroke-opacity:1;stroke-miterlimit:10;" d="M 692 415 L 666.019531 460 L 717.980469 460 L 692 415 "/>
<path style="fill-rule:nonzero;fill:rgb(55%,51%,53%);fill-opacity:1;stroke-width:1;stroke-linecap:butt;stroke-linejoin:miter;stroke:rgb(0%,0%,0%);stroke-opacity:1;stroke-miterlimit:10;" d="M 114 94 L 88.019531 139 L 139.980469 139 L 114 94 "/>
</g>
</svg>
