<?xml version="1.0" encoding="UTF-8"?>
<svg xmlns="http://www.w3.org/2000/svg" xmlns:xlink="http://www.w3.org/1999/xlink" width="1129pt" height="517pt" viewBox="0 0 1129 517" version="1.1">
<g id="surface571">
<rect x="0" y="0" width="1129" height="517" style="fill:rgb(90%,90%,90%);fill-opacity:1;stroke:none;"/>
<path style="fill-rule:nonzero;fill:rgb(35%,70%,90%);fill-opacity:1;stroke-width:1;stroke-linecap:butt;stroke-linejoin:miter;stroke:rgb(0%,0%,0%);stroke-opacity:1;stroke-miterlimit:10;" d="M 750 63 L 779.664062 63 L 791.664062 34.785156 L 803.664062 63 L 833.332031 63 L 809.332031 80.4375 L 817.417969 111.980469 L 791.664062 94.542969 L 765.914062 111.980469 L 778.214844 80.4375 L 750 63 "/>
<path style="fill-rule:nonzero;fill:rgb(35%,70%,90%);fill-opacity:1;stroke-width:1;stroke-linecap:butt;stroke-linejoin:miter;stroke:rgb(0%,0%,0%);stroke-opacity:1;stroke-miterlimit:10;" d="M 254 62 L 283.664062 62 L 295.664062 33.785156 L 307.664062 62 L 337.332031 62 L 313.332031 79.4375 L 321.417969 110.980469 L 295.664062 93.542969 L 269.914062 110.980469 L 282.214844 79.4375 L 254 62 "/>
<path style="fill-rule:nonzero;fill:rgb(35%,70%,90%);fill-opacity:1;stroke-width:1;stroke-linecap:butt;stroke-linejoin:miter;stroke:rgb(0%,0%,0%);stroke-opacity:1;stroke-miterlimit:10;" d="M 787 375 L 816.664062 375 L 828.664062 346.785156 L 840.664062 375 L 870.332031 375 L 846.332031 392.4375 L 854.417969 423.980469 L 828.664062 406.542969 L 802.914062 423.980469 L 815.214844 392.4375 L 787 375 "/>
<path style="fill-rule:nonzero;fill:rgb(35%,70%,90%);fill-opacity:1;stroke-width:1;stroke-linecap:butt;stroke-linejoin:miter;stroke:rgb(0%,0%,0%);stroke-opacity:1;stroke-miterlimit:10;" d="M 513 246 L 542.664062 246 L 554.664062 217.785156 L 566.664062 246 L 596.332031 246 L 572.332031 263.4375 L 580.417969 294.980469 L 554.664062 277.542969 L 528.914062 294.980469 L 541.214844 263.4375 L 513 246 "/>
<path style="fill-rule:nonzero;fill:rgb(35%,70%,90%);fill-opacity:1;stroke-width:1;stroke-linecap:butt;stroke-linejoin:miter;stroke:rgb(0%,0%,0%);stroke-opacity:1;stroke-miterlimit:10;" d="M 119 410 L 148.664062 410 L 160.664062 381.785156 L 172.664062 410 L 202.332031 410 L 178.332031 427.4375 L 186.417969 458.980469 L 160.664062 441.542969 L 134.914062 458.980469 L 147.214844 427.4375 L 119 410 "/>
<path style="fill-rule:nonzero;fill:rgb(53%,27%,7%);fill-opacity:1;stroke-width:1;stroke-linecap:butt;stroke-linejoin:miter;stroke:rgb(0%,0%,0%);stroke-opacity:1;stroke-miterlimit:10;" d="M 127.214844 177 C 127.214844 188.714844 117.714844 198.214844 106 198.214844 C 94.285156 198.214844 84.785156 188.714844 84.785156 177 C 84.785156 165.285156 94.285156 155.785156 106 155.785156 C 117.714844 155.785156 127.214844 165.285156 127.214844 177 "/>
<path style="fill-rule:nonzero;fill:rgb(53%,27%,7%);fill-opacity:1;stroke-width:1;stroke-linecap:butt;stroke-linejoin:miter;stroke:rgb(0%,0%,0%);stroke-opacity:1;stroke-miterlimit:10;" d="M 134.214844 306 C 134.214844 317.714844 124.714844 327.214844 113 327.214844 C 101.285156 327.214844 91.785156 317.714844 91.785156 306 C 91.785156 294.285156 101.285156 284.785156 113 284.785156 C 124.714844 284.785156 134.214844 294.285156 134.214844 306 "/>
<path style="fill-rule:nonzero;fill:rgb(53%,27%,7%);fill-opacity:1;stroke-width:1;stroke-linecap:butt;stroke-linejoin:miter;stroke:rgb(0%,0%,0%);stroke-opacity:1;stroke-miterlimit:10;" d="M 723.214844 276 C 723.214844 287.714844 713.714844 297.214844 702 297.214844 C 690.285156 297.214844 680.785156 287.714844 680.785156 276 C 680.785156 264.285156 690.285156 254.785156 702 254.785156 C 713.714844 254.785156 723.214844 264.285156 723.214844 276 "/>
<path style="fill-rule:nonzero;fill:rgb(53%,27%,7%);fill-opacity:1;stroke-width:1;stroke-linecap:butt;stroke-linejoin:miter;stroke:rgb(0%,0%,0%);stroke-opacity:1;stroke-miterlimit:10;" d="M 383.214844 232 C 383.214844 243.714844 373.714844 253.214844 362 253.214844 C 350.285156 253.214844 340.785156 243.714844 340.785156 232 C 340.785156 220.285156 350.285156 210.785156 362 210.785156 C 373.714844 210.785156 383.214844 220.285156 383.214844 232 "/>
<path style="fill-rule:nonzero;fill:rgb(53%,27%,7%);fill-opacity:1;stroke-width:1;stroke-linecap:butt;stroke-linejoin:miter;stroke:rgb(0%,0%,0%);stroke-opacity:1;stroke-miterlimit:10;" d="M 297.214844 398 C 297.214844 409.714844 287.714844 419.214844 276 419.214844 C 264.285156 419.214844 254.785156 409.714844 254.785156 398 C 254.785156 386.285156 264.285156 376.785156 276 376.785156 C 287.714844 376.785156 297.214844 386.285156 297.214844 398 "/>
<path style="fill-rule:nonzero;fill:rgb(53%,27%,7%);fill-opacity:1;stroke-width:1;stroke-linecap:butt;stroke-linejoin:miter;stroke:rgb(0%,0%,0%);stroke-opacity:1;stroke-miterlimit:10;" d="M 985.214844 316 C 985.214844 327.714844 975.714844 337.214844 964 337.214844 C 952.285156 337.214844 942.785156 327.714844 942.785156 316 C 942.785156 304.285156 952.285156 294.785156 964 294.785156 C 975.714844 294.785156 985.214844 304.285156 985.214844 316 "/>
<path style="fill-rule:nonzero;fill:rgb(53%,27%,7%);fill-opacity:1;stroke-width:1;stroke-linecap:butt;stroke-linejoin:miter;stroke:rgb(0%,0%,0%);stroke-opacity:1;stroke-miterlimit:10;" d="M 526.214844 74 C 526.214844 85.714844 516.714844 95.214844 505 95.214844 C 493.285156 95.214844 483.785156 85.714844 483.785156 74 C 483.785156 62.285156 493.285156 52.785156 505 52.785156 C 516.714844 52.785156 526.214844 62.285156 526.214844 74 "/>
</g>
</svg>
