<?xml version="1.0" encoding="UTF-8"?>
<svg xmlns="http://www.w3.org/2000/svg" xmlns:xlink="http://www.w3.org/1999/xlink" width="1129pt" height="517pt" viewBox="0 0 1129 517" version="1.1">
<g id="surface691">
<rect x="0" y="0" width="1129" height="517" style="fill:rgb(90%,90%,90%);fill-opacity:1;stroke:none;"/>
<path style="fill-rule:nonzero;fill:rgb(55%,51%,53%);fill-opacity:1;stroke-width:1;stroke-linecap:butt;stroke-linejoin:miter;stroke:rgb(0%,0%,0%);stroke-opacity:1;stroke-miterlimit:10;" d="M 125 330 L 154.664062 330 L 166.664062 301.785156 L 178.664062 330 L 208.332031 330 L 184.332031 347.4375 L 192.417969 378.980469 L 166.664062 361.542969 L 140.914062 378.980469 L 153.214844 347.4375 L 125 330 "/>
<path style="fill-rule:nonzero;fill:rgb(55%,51%,53%);fill-opacity:1;stroke-width:1;stroke-linecap:butt;stroke-linejoin:miter;stroke:rgb(0%,0%,0%);stroke-opacity:1;stroke-miterlimit:10;" d="M 247 207 L 276.664062 207 L 288.664062 178.785156 L 300.664062 207 L 330.332031 207 L 306.332031 224.4375 L 314.417969 255.980469 L 288.664062 238.542969 L 262.914062 255.980469 L 275.214844 224.4375 L 247 207 "/>
<path style="fill-rule:nonzero;fill:rgb(55%,51%,53%);fill-opacity:1;stroke-width:1;stroke-linecap:butt;stroke-linejoin:miter;stroke:rgb(0%,0%,0%);stroke-opacity:1;stroke-miterlimit:10;" d="M 649 187 L 678.664062 187 L 690.664062 158.785156 L 702.664062 187 L 732.332031 187 L 708.332031 204.4375 L 716.417969 235.980469 L 690.664062 218.542969 L 664.914062 235.980469 L 677.214844 204.4375 L 649 187 "/>
<path style="fill-rule:nonzero;fill:rgb(55%,51%,53%);fill-opacity:1;stroke-width:1;stroke-linecap:butt;stroke-linejoin:miter;stroke:rgb(0%,0%,0%);stroke-opacity:1;stroke-miterlimit:10;" d="M 757 253 L 786.664062 253 L 798.664062 224.785156 L 810.664062 253 L 840.332031 253 L 816.332031 270.4375 L 824.417969 301.980469 L 798.664062 284.542969 L 772.914062 301.980469 L 785.214844 270.4375 L 757 253 "/>
<path style="fill-rule:nonzero;fill:rgb(55%,51%,53%);fill-opacity:1;stroke-width:1;stroke-linecap:butt;stroke-linejoin:miter;stroke:rgb(0%,0%,0%);stroke-opacity:1;stroke-miterlimit:10;" d="M 748 437 L 777.664062 437 L 789.664062 408.785156 L 801.664062 437 L 831.332031 437 L 807.332031 454.4375 L 815.417969 485.980469 L 789.664062 468.542969 L 763.914062 485.980469 L 776.214844 454.4375 L 748 437 "/>
<path style="fill-rule:nonzero;fill:rgb(55%,51%,53%);fill-opacity:1;stroke-width:1;stroke-linecap:butt;stroke-linejoin:miter;stroke:rgb(0%,0%,0%);stroke-opacity:1;stroke-miterlimit:10;" d="M 172 146 L 201.664062 146 L 213.664062 117.785156 L 225.664062 146 L 255.332031 146 L 231.332031 163.4375 L 239.417969 194.980469 L 213.664062 177.542969 L 187.914062 194.980469 L 200.214844 163.4375 L 172 146 "/>
<path style="fill-rule:nonzero;fill:rgb(55%,51%,53%);fill-opacity:1;stroke-width:1;stroke-linecap:butt;stroke-linejoin:miter;stroke:rgb(0%,0%,0%);stroke-opacity:1;stroke-miterlimit:10;" d="M 547 390 L 576.664062 390 L 588.664062 361.785156 L 600.664062 390 L 630.332031 390 L 606.332031 407.4375 L 614.417969 438.980469 L 588.664062 421.542969 L 562.914062 438.980469 L 575.214844 407.4375 L 547 390 "/>
<path style="fill-rule:nonzero;fill:rgb(53%,27%,7%);fill-opacity:1;stroke-width:1;stroke-linecap:butt;stroke-linejoin:miter;stroke:rgb(0%,0%,0%);stroke-opacity:1;stroke-miterlimit:10;" d="M 902.214844 143 C 902.214844 154.714844 892.714844 164.214844 881 164.214844 C 869.285156 164.214844 859.785156 154.714844 859.785156 143 C 859.785156 131.285156 869.285156 121.785156 881 121.785156 C 892.714844 121.785156 902.214844 131.285156 902.214844 143 "/>
<path style="fill-rule:nonzero;fill:rgb(53%,27%,7%);fill-opacity:1;stroke-width:1;stroke-linecap:butt;stroke-linejoin:miter;stroke:rgb(0%,0%,0%);stroke-opacity:1;stroke-miterlimit:10;" d="M 455.214844 73 C 455.214844 84.714844 445.714844 94.214844 434 94.214844 C 422.285156 94.214844 412.785156 84.714844 412.785156 73 C 412.785156 61.285156 422.285156 51.785156 434 51.785156 C 445.714844 51.785156 455.214844 61.285156 455.214844 73 "/>
<path style="fill-rule:nonzero;fill:rgb(53%,27%,7%);fill-opacity:1;stroke-width:1;stroke-linecap:butt;stroke-linejoin:miter;stroke:rgb(0%,0%,0%);stroke-opacity:1;stroke-miterlimit:10;" d="M 296.214844 359 C 296.214844 370.714844 286.714844 380.214844 275 380.214844 C 263.285156 380.214844 253.785156 370.714844 253.785156 359 C 253.785156 347.285156 263.285156 337.785156 275 337.785156 C 286.714844 337.785156 296.214844 347.285156 296.214844 359 "/>
<path style="fill-rule:nonzero;fill:rgb(53%,27%,7%);fill-opacity:1;stroke-width:1;stroke-linecap:butt;stroke-linejoin:miter;stroke:rgb(0%,0%,0%);stroke-opacity:1;stroke-miterlimit:10;" d="M 134.214844 234 C 134.214844 245.714844 124.714844 255.214844 113 255.214844 C 101.285156 255.214844 91.785156 245.714844 91.785156 234 C 91.785156 222.285156 101.285156 212.785156 113 212.785156 C 124.714844 212.785156 134.214844 222.285156 134.214844 234 "/>
<path style="fill-rule:nonzero;fill:rgb(53%,27%,7%);fill-opacity:1;stroke-width:1;stroke-linecap:butt;stroke-linejoin:miter;stroke:rgb(0%,0%,0%);stroke-opacity:1;stroke-miterlimit:10;" d="M 398.214844 408 C 398.214844 419.714844 388.714844 429.214844 377 429.214844 C 365.285156 429.214844 355.785156 419.714844 355.785156 408 C 355.785156 396.285156 365.285156 386.785156 377 386.785156 C 388.714844 386.785156 398.214844 396.285156 398.214844 408 "/>
<path style="fill-rule:nonzero;fill:rgb(53%,27%,7%);fill-opacity:1;stroke-width:1;stroke-linecap:butt;stroke-linejoin:miter;stroke:rgb(0%,0%,0%);stroke-opacity:1;stroke-miterlimit:10;" d="M 535.214844 270 C 535.214844 281.714844 525.714844 291.214844 514 291.214844 C 502.285156 291.214844 492.785156 281.714844 492.785156 270 C 492.785156 258.285156 502.285156 248.785156 514 248.785156 C 525.714844 248.785156 535.214844 258.285156 535.214844 270 "/>
<path style="fill-rule:nonzero;fill:rgb(53%,27%,7%);fill-opacity:1;stroke-width:1;stroke-linecap:butt;stroke-linejoin:miter;stroke:rgb(0%,0%,0%);stroke-opacity:1;stroke-miterlimit:10;" d="M 959.214844 64 C 959.214844 75.714844 949.714844 85.214844 938 85.214844 C 926.285156 85.214844 916.785156 75.714844 916.785156 64 C 916.785156 52.285156 926.285156 42.785156 938 42.785156 C 949.714844 42.785156 959.214844 52.285156 959.214844 64 "/>
<path style="fill-rule:nonzero;fill:rgb(53%,27%,7%);fill-opacity:1;stroke-width:1;stroke-linecap:butt;stroke-linejoin:miter;stroke:rgb(0%,0%,0%);stroke-opacity:1;stroke-miterlimit:10;" d="M 703.214844 308 C 703.214844 319.714844 693.714844 329.214844 682 329.214844 C 670.285156 329.214844 660.785156 319.714844 660.785156 308 C 660.785156 296.285156 670.285156 286.785156 682 286.785156 C 693.714844 286.785156 703.214844 296.285156 703.214844 308 "/>
</g>
</svg>
