<?xml version="1.0" encoding="UTF-8"?>
<svg xmlns="http://www.w3.org/2000/svg" xmlns:xlink="http://www.w3.org/1999/xlink" width="1129pt" height="517pt" viewBox="0 0 1129 517" version="1.1">
<g id="surface486">
<rect x="0" y="0" width="1129" height="517" style="fill:rgb(90%,90%,90%);fill-opacity:1;stroke:none;"/>
<path style="fill-rule:nonzero;fill:rgb(100%,51%,0%);fill-opacity:1;stroke-width:1;stroke-linecap:butt;stroke-linejoin:miter;stroke:rgb(0%,0%,0%);stroke-opacity:1;stroke-miterlimit:10;" d="M 357 440 L 386.664062 440 L 398.664062 411.785156 L 410.664062 440 L 440.332031 440 L 416.332031 457.4375 L 424.417969 488.980469 L 398.664062 471.542969 L 372.914062 488.980469 L 385.214844 457.4375 L 357 440 "/>
<path style="fill-rule:nonzero;fill:rgb(100%,51%,0%);fill-opacity:1;stroke-width:1;stroke-linecap:butt;stroke-linejoin:miter;stroke:rgb(0%,0%,0%);stroke-opacity:1;stroke-miterlimit:10;" d="M 661 448 L 690.664062 448 L 702.664062 419.785156 L 714.664062 448 L 744.332031 448 L 720.332031 465.4375 L 728.417969 496.980469 L 702.664062 479.542969 L 676.914062 496.980469 L 689.214844 465.4375 L 661 448 "/>
<path style="fill-rule:nonzero;fill:rgb(100%,51%,0%);fill-opacity:1;stroke-width:1;stroke-linecap:butt;stroke-linejoin:miter;stroke:rgb(0%,0%,0%);stroke-opacity:1;stroke-miterlimit:10;" d="M 758 437 L 787.664062 437 L 799.664062 408.785156 L 811.664062 437 L 841.332031 437 L 817.332031 454.4375 L 825.417969 485.980469 L 799.664062 468.542969 L 773.914062 485.980469 L 786.214844 454.4375 L 758 437 "/>
<path style="fill-rule:nonzero;fill:rgb(100%,51%,0%);fill-opacity:1;stroke-width:1;stroke-linecap:butt;stroke-linejoin:miter;stroke:rgb(0%,0%,0%);stroke-opacity:1;stroke-miterlimit:10;" d="M 59 241 L 88.664062 241 L 100.664062 212.785156 L 112.664062 241 L 142.332031 241 L 118.332031 258.4375 L 126.417969 289.980469 L 100.664062 272.542969 L 74.914062 289.980469 L 87.214844 258.4375 L 59 241 "/>
<path style="fill-rule:nonzero;fill:rgb(100%,51%,0%);fill-opacity:1;stroke-width:1;stroke-linecap:butt;stroke-linejoin:miter;stroke:rgb(0%,0%,0%);stroke-opacity:1;stroke-miterlimit:10;" d="M 113 160 L 142.664062 160 L 154.664062 131.785156 L 166.664062 160 L 196.332031 160 L 172.332031 177.4375 L 180.417969 208.980469 L 154.664062 191.542969 L 128.914062 208.980469 L 141.214844 177.4375 L 113 160 "/>
<path style="fill-rule:nonzero;fill:rgb(100%,51%,0%);fill-opacity:1;stroke-width:1;stroke-linecap:butt;stroke-linejoin:miter;stroke:rgb(0%,0%,0%);stroke-opacity:1;stroke-miterlimit:10;" d="M 424 230 L 453.664062 230 L 465.664062 201.785156 L 477.664062 230 L 507.332031 230 L 483.332031 247.4375 L 491.417969 278.980469 L 465.664062 261.542969 L 439.914062 278.980469 L 452.214844 247.4375 L 424 230 "/>
<path style="fill-rule:nonzero;fill:rgb(55%,51%,53%);fill-opacity:1;stroke-width:1;stroke-linecap:butt;stroke-linejoin:miter;stroke:rgb(0%,0%,0%);stroke-opacity:1;stroke-miterlimit:10;" d="M 309 93 L 283.019531 138 L 334.980469 138 L 309 93 "/>
<path style="fill-rule:nonzero;fill:rgb(55%,51%,53%);fill-opacity:1;stroke-width:1;stroke-linecap:butt;stroke-linejoin:miter;stroke:rgb(0%,0%,0%);stroke-opacity:1;stroke-miterlimit:10;" d="M 918 302 L 892.019531 347 L 943.980469 347 L 918 302 "/>
<path style="fill-rule:nonzero;fill:rgb(55%,51%,53%);fill-opacity:1;stroke-width:1;stroke-linecap:butt;stroke-linejoin:miter;stroke:rgb(0%,0%,0%);stroke-opacity:1;stroke-miterlimit:10;" d="M 226 388 L 200.019531 433 L 251.980469 433 L 226 388 "/>
<path style="fill-rule:nonzero;fill:rgb(55%,51%,53%);fill-opacity:1;stroke-width:1;stroke-linecap:butt;stroke-linejoin:miter;stroke:rgb(0%,0%,0%);stroke-opacity:1;stroke-miterlimit:10;" d="M 543 199 L 517.019531 244 L 568.980469 244 L 543 199 "/>
</g>
</svg>
