<?xml version="1.0" encoding="UTF-8"?>
<svg xmlns="http://www.w3.org/2000/svg" xmlns:xlink="http://www.w3.org/1999/xlink" width="1179pt" height="517pt" viewBox="0 0 1179 517" version="1.1">
<g id="surface401">
<rect x="0" y="0" width="1179" height="517" style="fill:rgb(90%,90%,90%);fill-opacity:1;stroke:none;"/>
<path style="fill-rule:nonzero;fill:rgb(35%,70%,90%);fill-opacity:1;stroke-width:1;stroke-linecap:butt;stroke-linejoin:miter;stroke:rgb(0%,0%,0%);stroke-opacity:1;stroke-miterlimit:10;" d="M 422 98 L 451.664062 98 L 463.664062 69.785156 L 475.664062 98 L 505.332031 98 L 481.332031 115.4375 L 489.417969 146.980469 L 463.664062 129.542969 L 437.914062 146.980469 L 450.214844 115.4375 L 422 98 "/>
<path style="fill-rule:nonzero;fill:rgb(35%,70%,90%);fill-opacity:1;stroke-width:1;stroke-linecap:butt;stroke-linejoin:miter;stroke:rgb(0%,0%,0%);stroke-opacity:1;stroke-miterlimit:10;" d="M 199.785156 395.785156 L 199.785156 438.214844 L 242.214844 438.214844 L 242.214844 395.785156 L 199.785156 395.785156 "/>
<path style="fill-rule:nonzero;fill:rgb(35%,70%,90%);fill-opacity:1;stroke-width:1;stroke-linecap:butt;stroke-linejoin:miter;stroke:rgb(0%,0%,0%);stroke-opacity:1;stroke-miterlimit:10;" d="M 91.785156 289.785156 L 91.785156 332.214844 L 134.214844 332.214844 L 134.214844 289.785156 L 91.785156 289.785156 "/>
<path style="fill-rule:nonzero;fill:rgb(35%,70%,90%);fill-opacity:1;stroke-width:1;stroke-linecap:butt;stroke-linejoin:miter;stroke:rgb(0%,0%,0%);stroke-opacity:1;stroke-miterlimit:10;" d="M 185 208 L 214.664062 208 L 226.664062 179.785156 L 238.664062 208 L 268.332031 208 L 244.332031 225.4375 L 252.417969 256.980469 L 226.664062 239.542969 L 200.914062 256.980469 L 213.214844 225.4375 L 185 208 "/>
<path style="fill-rule:nonzero;fill:rgb(35%,70%,90%);fill-opacity:1;stroke-width:1;stroke-linecap:butt;stroke-linejoin:miter;stroke:rgb(0%,0%,0%);stroke-opacity:1;stroke-miterlimit:10;" d="M 326 130 L 355.664062 130 L 367.664062 101.785156 L 379.664062 130 L 409.332031 130 L 385.332031 147.4375 L 393.417969 178.980469 L 367.664062 161.542969 L 341.914062 178.980469 L 354.214844 147.4375 L 326 130 "/>
<path style="fill-rule:nonzero;fill:rgb(35%,70%,90%);fill-opacity:1;stroke-width:1;stroke-linecap:butt;stroke-linejoin:miter;stroke:rgb(0%,0%,0%);stroke-opacity:1;stroke-miterlimit:10;" d="M 334 398 L 363.664062 398 L 375.664062 369.785156 L 387.664062 398 L 417.332031 398 L 393.332031 415.4375 L 401.417969 446.980469 L 375.664062 429.542969 L 349.914062 446.980469 L 362.214844 415.4375 L 334 398 "/>
<path style="fill-rule:nonzero;fill:rgb(35%,70%,90%);fill-opacity:1;stroke-width:1;stroke-linecap:butt;stroke-linejoin:miter;stroke:rgb(0%,0%,0%);stroke-opacity:1;stroke-miterlimit:10;" d="M 238 295 L 267.664062 295 L 279.664062 266.785156 L 291.664062 295 L 321.332031 295 L 297.332031 312.4375 L 305.417969 343.980469 L 279.664062 326.542969 L 253.914062 343.980469 L 266.214844 312.4375 L 238 295 "/>
<path style="fill-rule:nonzero;fill:rgb(53%,27%,7%);fill-opacity:1;stroke-width:1;stroke-linecap:butt;stroke-linejoin:miter;stroke:rgb(0%,0%,0%);stroke-opacity:1;stroke-miterlimit:10;" d="M 952.785156 58.785156 L 952.785156 101.214844 L 995.214844 101.214844 L 995.214844 58.785156 L 952.785156 58.785156 "/>
<path style="fill-rule:nonzero;fill:rgb(53%,27%,7%);fill-opacity:1;stroke-width:1;stroke-linecap:butt;stroke-linejoin:miter;stroke:rgb(0%,0%,0%);stroke-opacity:1;stroke-miterlimit:10;" d="M 931 217 L 960.664062 217 L 972.664062 188.785156 L 984.664062 217 L 1014.332031 217 L 990.332031 234.4375 L 998.417969 265.980469 L 972.664062 248.542969 L 946.914062 265.980469 L 959.214844 234.4375 L 931 217 "/>
<path style="fill-rule:nonzero;fill:rgb(53%,27%,7%);fill-opacity:1;stroke-width:1;stroke-linecap:butt;stroke-linejoin:miter;stroke:rgb(0%,0%,0%);stroke-opacity:1;stroke-miterlimit:10;" d="M 907 409 L 936.664062 409 L 948.664062 380.785156 L 960.664062 409 L 990.332031 409 L 966.332031 426.4375 L 974.417969 457.980469 L 948.664062 440.542969 L 922.914062 457.980469 L 935.214844 426.4375 L 907 409 "/>
<path style="fill-rule:nonzero;fill:rgb(53%,27%,7%);fill-opacity:1;stroke-width:1;stroke-linecap:butt;stroke-linejoin:miter;stroke:rgb(0%,0%,0%);stroke-opacity:1;stroke-miterlimit:10;" d="M 779.785156 230.785156 L 779.785156 273.214844 L 822.214844 273.214844 L 822.214844 230.785156 L 779.785156 230.785156 "/>
<path style="fill-rule:nonzero;fill:rgb(53%,27%,7%);fill-opacity:1;stroke-width:1;stroke-linecap:butt;stroke-linejoin:miter;stroke:rgb(0%,0%,0%);stroke-opacity:1;stroke-miterlimit:10;" d="M 1013.785156 222.785156 L 1013.785156 265.214844 L 1056.214844 265.214844 L 1056.214844 222.785156 L 1013.785156 222.785156 "/>
<path style="fill-rule:nonzero;fill:rgb(53%,27%,7%);fill-opacity:1;stroke-width:1;stroke-linecap:butt;stroke-linejoin:miter;stroke:rgb(0%,0%,0%);stroke-opacity:1;stroke-miterlimit:10;" d="M 688.785156 283.785156 L 688.785156 326.214844 L 731.214844 326.214844 L 731.214844 283.785156 L 688.785156 283.785156 "/>
</g>
</svg>
