<?xml version="1.0" encoding="UTF-8"?>
<svg xmlns="http://www.w3.org/2000/svg" xmlns:xlink="http://www.w3.org/1999/xlink" width="1129pt" height="517pt" viewBox="0 0 1129 517" version="1.1">
<g id="surface776">
<rect x="0" y="0" width="1129" height="517" style="fill:rgb(90%,90%,90%);fill-opacity:1;stroke:none;"/>
<path style="fill-rule:nonzero;fill:rgb(35%,70%,90%);fill-opacity:1;stroke-width:1;stroke-linecap:butt;stroke-linejoin:miter;stroke:rgb(0%,0%,0%);stroke-opacity:1;stroke-miterlimit:10;" d="M 921 287 L 950.664062 287 L 962.664062 258.785156 L 974.664062 287 L 1004.332031 287 L 980.332031 304.4375 L 988.417969 335.980469 L 962.664062 318.542969 L 936.914062 335.980469 L 949.214844 304.4375 L 921 287 "/>
<path style="fill-rule:nonzero;fill:rgb(35%,70%,90%);fill-opacity:1;stroke-width:1;stroke-linecap:butt;stroke-linejoin:miter;stroke:rgb(0%,0%,0%);stroke-opacity:1;stroke-miterlimit:10;" d="M 762 289 L 791.664062 289 L 803.664062 260.785156 L 815.664062 289 L 845.332031 289 L 821.332031 306.4375 L 829.417969 337.980469 L 803.664062 320.542969 L 777.914062 337.980469 L 790.214844 306.4375 L 762 289 "/>
<path style="fill-rule:nonzero;fill:rgb(35%,70%,90%);fill-opacity:1;stroke-width:1;stroke-linecap:butt;stroke-linejoin:miter;stroke:rgb(0%,0%,0%);stroke-opacity:1;stroke-miterlimit:10;" d="M 581 323 L 610.664062 323 L 622.664062 294.785156 L 634.664062 323 L 664.332031 323 L 640.332031 340.4375 L 648.417969 371.980469 L 622.664062 354.542969 L 596.914062 371.980469 L 609.214844 340.4375 L 581 323 "/>
<path style="fill-rule:nonzero;fill:rgb(35%,70%,90%);fill-opacity:1;stroke-width:1;stroke-linecap:butt;stroke-linejoin:miter;stroke:rgb(0%,0%,0%);stroke-opacity:1;stroke-miterlimit:10;" d="M 461 71 L 490.664062 71 L 502.664062 42.785156 L 514.664062 71 L 544.332031 71 L 520.332031 88.4375 L 528.417969 119.980469 L 502.664062 102.542969 L 476.914062 119.980469 L 489.214844 88.4375 L 461 71 "/>
<path style="fill-rule:nonzero;fill:rgb(35%,70%,90%);fill-opacity:1;stroke-width:1;stroke-linecap:butt;stroke-linejoin:miter;stroke:rgb(0%,0%,0%);stroke-opacity:1;stroke-miterlimit:10;" d="M 250 435 L 279.664062 435 L 291.664062 406.785156 L 303.664062 435 L 333.332031 435 L 309.332031 452.4375 L 317.417969 483.980469 L 291.664062 466.542969 L 265.914062 483.980469 L 278.214844 452.4375 L 250 435 "/>
<path style="fill-rule:nonzero;fill:rgb(35%,70%,90%);fill-opacity:1;stroke-width:1;stroke-linecap:butt;stroke-linejoin:miter;stroke:rgb(0%,0%,0%);stroke-opacity:1;stroke-miterlimit:10;" d="M 690 164 L 719.664062 164 L 731.664062 135.785156 L 743.664062 164 L 773.332031 164 L 749.332031 181.4375 L 757.417969 212.980469 L 731.664062 195.542969 L 705.914062 212.980469 L 718.214844 181.4375 L 690 164 "/>
<path style="fill-rule:nonzero;fill:rgb(55%,51%,53%);fill-opacity:1;stroke-width:1;stroke-linecap:butt;stroke-linejoin:miter;stroke:rgb(0%,0%,0%);stroke-opacity:1;stroke-miterlimit:10;" d="M 828.214844 386 C 828.214844 397.714844 818.714844 407.214844 807 407.214844 C 795.285156 407.214844 785.785156 397.714844 785.785156 386 C 785.785156 374.285156 795.285156 364.785156 807 364.785156 C 818.714844 364.785156 828.214844 374.285156 828.214844 386 "/>
<path style="fill-rule:nonzero;fill:rgb(55%,51%,53%);fill-opacity:1;stroke-width:1;stroke-linecap:butt;stroke-linejoin:miter;stroke:rgb(0%,0%,0%);stroke-opacity:1;stroke-miterlimit:10;" d="M 111.214844 76 C 111.214844 87.714844 101.714844 97.214844 90 97.214844 C 78.285156 97.214844 68.785156 87.714844 68.785156 76 C 68.785156 64.285156 78.285156 54.785156 90 54.785156 C 101.714844 54.785156 111.214844 64.285156 111.214844 76 "/>
<path style="fill-rule:nonzero;fill:rgb(55%,51%,53%);fill-opacity:1;stroke-width:1;stroke-linecap:butt;stroke-linejoin:miter;stroke:rgb(0%,0%,0%);stroke-opacity:1;stroke-miterlimit:10;" d="M 480.214844 171 C 480.214844 182.714844 470.714844 192.214844 459 192.214844 C 447.285156 192.214844 437.785156 182.714844 437.785156 171 C 437.785156 159.285156 447.285156 149.785156 459 149.785156 C 470.714844 149.785156 480.214844 159.285156 480.214844 171 "/>
<path style="fill-rule:nonzero;fill:rgb(55%,51%,53%);fill-opacity:1;stroke-width:1;stroke-linecap:butt;stroke-linejoin:miter;stroke:rgb(0%,0%,0%);stroke-opacity:1;stroke-miterlimit:10;" d="M 383.214844 201 C 383.214844 212.714844 373.714844 222.214844 362 222.214844 C 350.285156 222.214844 340.785156 212.714844 340.785156 201 C 340.785156 189.285156 350.285156 179.785156 362 179.785156 C 373.714844 179.785156 383.214844 189.285156 383.214844 201 "/>
<path style="fill-rule:nonzero;fill:rgb(55%,51%,53%);fill-opacity:1;stroke-width:1;stroke-linecap:butt;stroke-linejoin:miter;stroke:rgb(0%,0%,0%);stroke-opacity:1;stroke-miterlimit:10;" d="M 402.214844 306 C 402.214844 317.714844 392.714844 327.214844 381 327.214844 C 369.285156 327.214844 359.785156 317.714844 359.785156 306 C 359.785156 294.285156 369.285156 284.785156 381 284.785156 C 392.714844 284.785156 402.214844 294.285156 402.214844 306 "/>
<path style="fill-rule:nonzero;fill:rgb(55%,51%,53%);fill-opacity:1;stroke-width:1;stroke-linecap:butt;stroke-linejoin:miter;stroke:rgb(0%,0%,0%);stroke-opacity:1;stroke-miterlimit:10;" d="M 807.214844 181 C 807.214844 192.714844 797.714844 202.214844 786 202.214844 C 774.285156 202.214844 764.785156 192.714844 764.785156 181 C 764.785156 169.285156 774.285156 159.785156 786 159.785156 C 797.714844 159.785156 807.214844 169.285156 807.214844 181 "/>
<path style="fill-rule:nonzero;fill:rgb(55%,51%,53%);fill-opacity:1;stroke-width:1;stroke-linecap:butt;stroke-linejoin:miter;stroke:rgb(0%,0%,0%);stroke-opacity:1;stroke-miterlimit:10;" d="M 708.214844 385 C 708.214844 396.714844 698.714844 406.214844 687 406.214844 C 675.285156 406.214844 665.785156 396.714844 665.785156 385 C 665.785156 373.285156 675.285156 363.785156 687 363.785156 C 698.714844 363.785156 708.214844 373.285156 708.214844 385 "/>
<path style="fill-rule:nonzero;fill:rgb(55%,51%,53%);fill-opacity:1;stroke-width:1;stroke-linecap:butt;stroke-linejoin:miter;stroke:rgb(0%,0%,0%);stroke-opacity:1;stroke-miterlimit:10;" d="M 920.214844 77 C 920.214844 88.714844 910.714844 98.214844 899 98.214844 C 887.285156 98.214844 877.785156 88.714844 877.785156 77 C 877.785156 65.285156 887.285156 55.785156 899 55.785156 C 910.714844 55.785156 920.214844 65.285156 920.214844 77 "/>
</g>
</svg>
