<?xml version="1.0" encoding="UTF-8"?>
<svg xmlns="http://www.w3.org/2000/svg" xmlns:xlink="http://www.w3.org/1999/xlink" width="1179pt" height="517pt" viewBox="0 0 1179 517" version="1.1">
<g id="surface601">
<rect x="0" y="0" width="1179" height="517" style="fill:rgb(90%,90%,90%);fill-opacity:1;stroke:none;"/>
<path style="fill-rule:nonzero;fill:rgb(35%,70%,90%);fill-opacity:1;stroke-width:1;stroke-linecap:butt;stroke-linejoin:miter;stroke:rgb(0%,0%,0%);stroke-opacity:1;stroke-miterlimit:10;" d="M 290 266 L 319.664062 266 L 331.664062 237.785156 L 343.664062 266 L 373.332031 266 L 349.332031 283.4375 L 357.417969 314.980469 L 331.664062 297.542969 L 305.914062 314.980469 L 318.214844 283.4375 L 290 266 "/>
<path style="fill-rule:nonzero;fill:rgb(35%,70%,90%);fill-opacity:1;stroke-width:1;stroke-linecap:butt;stroke-linejoin:miter;stroke:rgb(0%,0%,0%);stroke-opacity:1;stroke-miterlimit:10;" d="M 210 374 L 239.664062 374 L 251.664062 345.785156 L 263.664062 374 L 293.332031 374 L 269.332031 391.4375 L 277.417969 422.980469 L 251.664062 405.542969 L 225.914062 422.980469 L 238.214844 391.4375 L 210 374 "/>
<path style="fill-rule:nonzero;fill:rgb(35%,70%,90%);fill-opacity:1;stroke-width:1;stroke-linecap:butt;stroke-linejoin:miter;stroke:rgb(0%,0%,0%);stroke-opacity:1;stroke-miterlimit:10;" d="M 260 171 L 289.664062 171 L 301.664062 142.785156 L 313.664062 171 L 343.332031 171 L 319.332031 188.4375 L 327.417969 219.980469 L 301.664062 202.542969 L 275.914062 219.980469 L 288.214844 188.4375 L 260 171 "/>
<path style="fill-rule:nonzero;fill:rgb(35%,70%,90%);fill-opacity:1;stroke-width:1;stroke-linecap:butt;stroke-linejoin:miter;stroke:rgb(0%,0%,0%);stroke-opacity:1;stroke-miterlimit:10;" d="M 84 222 L 113.664062 222 L 125.664062 193.785156 L 137.664062 222 L 167.332031 222 L 143.332031 239.4375 L 151.417969 270.980469 L 125.664062 253.542969 L 99.914062 270.980469 L 112.214844 239.4375 L 84 222 "/>
<path style="fill-rule:nonzero;fill:rgb(35%,70%,90%);fill-opacity:1;stroke-width:1;stroke-linecap:butt;stroke-linejoin:miter;stroke:rgb(0%,0%,0%);stroke-opacity:1;stroke-miterlimit:10;" d="M 418 141 L 447.664062 141 L 459.664062 112.785156 L 471.664062 141 L 501.332031 141 L 477.332031 158.4375 L 485.417969 189.980469 L 459.664062 172.542969 L 433.914062 189.980469 L 446.214844 158.4375 L 418 141 "/>
<path style="fill-rule:nonzero;fill:rgb(35%,70%,90%);fill-opacity:1;stroke-width:1;stroke-linecap:butt;stroke-linejoin:miter;stroke:rgb(0%,0%,0%);stroke-opacity:1;stroke-miterlimit:10;" d="M 922 238 L 951.664062 238 L 963.664062 209.785156 L 975.664062 238 L 1005.332031 238 L 981.332031 255.4375 L 989.417969 286.980469 L 963.664062 269.542969 L 937.914062 286.980469 L 950.214844 255.4375 L 922 238 "/>
<path style="fill-rule:nonzero;fill:rgb(55%,51%,53%);fill-opacity:1;stroke-width:1;stroke-linecap:butt;stroke-linejoin:miter;stroke:rgb(0%,0%,0%);stroke-opacity:1;stroke-miterlimit:10;" d="M 1057.214844 248 C 1057.214844 259.714844 1047.714844 269.214844 1036 269.214844 C 1024.285156 269.214844 1014.785156 259.714844 1014.785156 248 C 1014.785156 236.285156 1024.285156 226.785156 1036 226.785156 C 1047.714844 226.785156 1057.214844 236.285156 1057.214844 248 "/>
<path style="fill-rule:nonzero;fill:rgb(55%,51%,53%);fill-opacity:1;stroke-width:1;stroke-linecap:butt;stroke-linejoin:miter;stroke:rgb(0%,0%,0%);stroke-opacity:1;stroke-miterlimit:10;" d="M 837.214844 276 C 837.214844 287.714844 827.714844 297.214844 816 297.214844 C 804.285156 297.214844 794.785156 287.714844 794.785156 276 C 794.785156 264.285156 804.285156 254.785156 816 254.785156 C 827.714844 254.785156 837.214844 264.285156 837.214844 276 "/>
<path style="fill-rule:nonzero;fill:rgb(35%,70%,90%);fill-opacity:1;stroke-width:1;stroke-linecap:butt;stroke-linejoin:miter;stroke:rgb(0%,0%,0%);stroke-opacity:1;stroke-miterlimit:10;" d="M 860 85 L 889.664062 85 L 901.664062 56.785156 L 913.664062 85 L 943.332031 85 L 919.332031 102.4375 L 927.417969 133.980469 L 901.664062 116.542969 L 875.914062 133.980469 L 888.214844 102.4375 L 860 85 "/>
</g>
</svg>
