<?xml version="1.0" encoding="UTF-8"?>
<svg xmlns="http://www.w3.org/2000/svg" xmlns:xlink="http://www.w3.org/1999/xlink" width="1129pt" height="517pt" viewBox="0 0 1129 517" version="1.1">
<g id="surface696">
<rect x="0" y="0" width="1129" height="517" style="fill:rgb(90%,90%,90%);fill-opacity:1;stroke:none;"/>
<path style="fill-rule:nonzero;fill:rgb(55%,51%,53%);fill-opacity:1;stroke-width:1;stroke-linecap:butt;stroke-linejoin:miter;stroke:rgb(0%,0%,0%);stroke-opacity:1;stroke-miterlimit:10;" d="M 626 222 L 655.664062 222 L 667.664062 193.785156 L 679.664062 222 L 709.332031 222 L 685.332031 239.4375 L 693.417969 270.980469 L 667.664062 253.542969 L 641.914062 270.980469 L 654.214844 239.4375 L 626 222 "/>
<path style="fill-rule:nonzero;fill:rgb(55%,51%,53%);fill-opacity:1;stroke-width:1;stroke-linecap:butt;stroke-linejoin:miter;stroke:rgb(0%,0%,0%);stroke-opacity:1;stroke-miterlimit:10;" d="M 920 358 L 949.664062 358 L 961.664062 329.785156 L 973.664062 358 L 1003.332031 358 L 979.332031 375.4375 L 987.417969 406.980469 L 961.664062 389.542969 L 935.914062 406.980469 L 948.214844 375.4375 L 920 358 "/>
<path style="fill-rule:nonzero;fill:rgb(55%,51%,53%);fill-opacity:1;stroke-width:1;stroke-linecap:butt;stroke-linejoin:miter;stroke:rgb(0%,0%,0%);stroke-opacity:1;stroke-miterlimit:10;" d="M 503 165 L 532.664062 165 L 544.664062 136.785156 L 556.664062 165 L 586.332031 165 L 562.332031 182.4375 L 570.417969 213.980469 L 544.664062 196.542969 L 518.914062 213.980469 L 531.214844 182.4375 L 503 165 "/>
<path style="fill-rule:nonzero;fill:rgb(55%,51%,53%);fill-opacity:1;stroke-width:1;stroke-linecap:butt;stroke-linejoin:miter;stroke:rgb(0%,0%,0%);stroke-opacity:1;stroke-miterlimit:10;" d="M 351 273 L 380.664062 273 L 392.664062 244.785156 L 404.664062 273 L 434.332031 273 L 410.332031 290.4375 L 418.417969 321.980469 L 392.664062 304.542969 L 366.914062 321.980469 L 379.214844 290.4375 L 351 273 "/>
<path style="fill-rule:nonzero;fill:rgb(55%,51%,53%);fill-opacity:1;stroke-width:1;stroke-linecap:butt;stroke-linejoin:miter;stroke:rgb(0%,0%,0%);stroke-opacity:1;stroke-miterlimit:10;" d="M 281 189 L 310.664062 189 L 322.664062 160.785156 L 334.664062 189 L 364.332031 189 L 340.332031 206.4375 L 348.417969 237.980469 L 322.664062 220.542969 L 296.914062 237.980469 L 309.214844 206.4375 L 281 189 "/>
<path style="fill-rule:nonzero;fill:rgb(55%,51%,53%);fill-opacity:1;stroke-width:1;stroke-linecap:butt;stroke-linejoin:miter;stroke:rgb(0%,0%,0%);stroke-opacity:1;stroke-miterlimit:10;" d="M 574 105 L 603.664062 105 L 615.664062 76.785156 L 627.664062 105 L 657.332031 105 L 633.332031 122.4375 L 641.417969 153.980469 L 615.664062 136.542969 L 589.914062 153.980469 L 602.214844 122.4375 L 574 105 "/>
<path style="fill-rule:nonzero;fill:rgb(53%,27%,7%);fill-opacity:1;stroke-width:1;stroke-linecap:butt;stroke-linejoin:miter;stroke:rgb(0%,0%,0%);stroke-opacity:1;stroke-miterlimit:10;" d="M 318 29 L 292.019531 74 L 343.980469 74 L 318 29 "/>
<path style="fill-rule:nonzero;fill:rgb(53%,27%,7%);fill-opacity:1;stroke-width:1;stroke-linecap:butt;stroke-linejoin:miter;stroke:rgb(0%,0%,0%);stroke-opacity:1;stroke-miterlimit:10;" d="M 940 165 L 914.019531 210 L 965.980469 210 L 940 165 "/>
<path style="fill-rule:nonzero;fill:rgb(53%,27%,7%);fill-opacity:1;stroke-width:1;stroke-linecap:butt;stroke-linejoin:miter;stroke:rgb(0%,0%,0%);stroke-opacity:1;stroke-miterlimit:10;" d="M 932 428 L 906.019531 473 L 957.980469 473 L 932 428 "/>
<path style="fill-rule:nonzero;fill:rgb(53%,27%,7%);fill-opacity:1;stroke-width:1;stroke-linecap:butt;stroke-linejoin:miter;stroke:rgb(0%,0%,0%);stroke-opacity:1;stroke-miterlimit:10;" d="M 735 367 L 709.019531 412 L 760.980469 412 L 735 367 "/>
</g>
</svg>
