<?xml version="1.0" encoding="UTF-8"?>
<svg xmlns="http://www.w3.org/2000/svg" xmlns:xlink="http://www.w3.org/1999/xlink" width="1129pt" height="517pt" viewBox="0 0 1129 517" version="1.1">
<g id="surface776">
<rect x="0" y="0" width="1129" height="517" style="fill:rgb(90%,90%,90%);fill-opacity:1;stroke:none;"/>
<path style="fill-rule:nonzero;fill:rgb(35%,70%,90%);fill-opacity:1;stroke-width:1;stroke-linecap:butt;stroke-linejoin:miter;stroke:rgb(0%,0%,0%);stroke-opacity:1;stroke-miterlimit:10;" d="M 664 352 L 693.664062 352 L 705.664062 323.785156 L 717.664062 352 L 747.332031 352 L 723.332031 369.4375 L 731.417969 400.980469 L 705.664062 383.542969 L 679.914062 400.980469 L 692.214844 369.4375 L 664 352 "/>
<path style="fill-rule:nonzero;fill:rgb(35%,70%,90%);fill-opacity:1;stroke-width:1;stroke-linecap:butt;stroke-linejoin:miter;stroke:rgb(0%,0%,0%);stroke-opacity:1;stroke-miterlimit:10;" d="M 553 204 L 582.664062 204 L 594.664062 175.785156 L 606.664062 204 L 636.332031 204 L 612.332031 221.4375 L 620.417969 252.980469 L 594.664062 235.542969 L 568.914062 252.980469 L 581.214844 221.4375 L 553 204 "/>
<path style="fill-rule:nonzero;fill:rgb(35%,70%,90%);fill-opacity:1;stroke-width:1;stroke-linecap:butt;stroke-linejoin:miter;stroke:rgb(0%,0%,0%);stroke-opacity:1;stroke-miterlimit:10;" d="M 274 171 L 303.664062 171 L 315.664062 142.785156 L 327.664062 171 L 357.332031 171 L 333.332031 188.4375 L 341.417969 219.980469 L 315.664062 202.542969 L 289.914062 219.980469 L 302.214844 188.4375 L 274 171 "/>
<path style="fill-rule:nonzero;fill:rgb(35%,70%,90%);fill-opacity:1;stroke-width:1;stroke-linecap:butt;stroke-linejoin:miter;stroke:rgb(0%,0%,0%);stroke-opacity:1;stroke-miterlimit:10;" d="M 488 64 L 517.664062 64 L 529.664062 35.785156 L 541.664062 64 L 571.332031 64 L 547.332031 81.4375 L 555.417969 112.980469 L 529.664062 95.542969 L 503.914062 112.980469 L 516.214844 81.4375 L 488 64 "/>
<path style="fill-rule:nonzero;fill:rgb(35%,70%,90%);fill-opacity:1;stroke-width:1;stroke-linecap:butt;stroke-linejoin:miter;stroke:rgb(0%,0%,0%);stroke-opacity:1;stroke-miterlimit:10;" d="M 301 340 L 330.664062 340 L 342.664062 311.785156 L 354.664062 340 L 384.332031 340 L 360.332031 357.4375 L 368.417969 388.980469 L 342.664062 371.542969 L 316.914062 388.980469 L 329.214844 357.4375 L 301 340 "/>
<path style="fill-rule:nonzero;fill:rgb(35%,70%,90%);fill-opacity:1;stroke-width:1;stroke-linecap:butt;stroke-linejoin:miter;stroke:rgb(0%,0%,0%);stroke-opacity:1;stroke-miterlimit:10;" d="M 735 215 L 764.664062 215 L 776.664062 186.785156 L 788.664062 215 L 818.332031 215 L 794.332031 232.4375 L 802.417969 263.980469 L 776.664062 246.542969 L 750.914062 263.980469 L 763.214844 232.4375 L 735 215 "/>
<path style="fill-rule:nonzero;fill:rgb(55%,51%,53%);fill-opacity:1;stroke-width:1;stroke-linecap:butt;stroke-linejoin:miter;stroke:rgb(0%,0%,0%);stroke-opacity:1;stroke-miterlimit:10;" d="M 108.214844 73 C 108.214844 84.714844 98.714844 94.214844 87 94.214844 C 75.285156 94.214844 65.785156 84.714844 65.785156 73 C 65.785156 61.285156 75.285156 51.785156 87 51.785156 C 98.714844 51.785156 108.214844 61.285156 108.214844 73 "/>
<path style="fill-rule:nonzero;fill:rgb(55%,51%,53%);fill-opacity:1;stroke-width:1;stroke-linecap:butt;stroke-linejoin:miter;stroke:rgb(0%,0%,0%);stroke-opacity:1;stroke-miterlimit:10;" d="M 522.214844 435 C 522.214844 446.714844 512.714844 456.214844 501 456.214844 C 489.285156 456.214844 479.785156 446.714844 479.785156 435 C 479.785156 423.285156 489.285156 413.785156 501 413.785156 C 512.714844 413.785156 522.214844 423.285156 522.214844 435 "/>
<path style="fill-rule:nonzero;fill:rgb(55%,51%,53%);fill-opacity:1;stroke-width:1;stroke-linecap:butt;stroke-linejoin:miter;stroke:rgb(0%,0%,0%);stroke-opacity:1;stroke-miterlimit:10;" d="M 426.214844 359 C 426.214844 370.714844 416.714844 380.214844 405 380.214844 C 393.285156 380.214844 383.785156 370.714844 383.785156 359 C 383.785156 347.285156 393.285156 337.785156 405 337.785156 C 416.714844 337.785156 426.214844 347.285156 426.214844 359 "/>
<path style="fill-rule:nonzero;fill:rgb(55%,51%,53%);fill-opacity:1;stroke-width:1;stroke-linecap:butt;stroke-linejoin:miter;stroke:rgb(0%,0%,0%);stroke-opacity:1;stroke-miterlimit:10;" d="M 816.214844 116 C 816.214844 127.714844 806.714844 137.214844 795 137.214844 C 783.285156 137.214844 773.785156 127.714844 773.785156 116 C 773.785156 104.285156 783.285156 94.785156 795 94.785156 C 806.714844 94.785156 816.214844 104.285156 816.214844 116 "/>
<path style="fill-rule:nonzero;fill:rgb(55%,51%,53%);fill-opacity:1;stroke-width:1;stroke-linecap:butt;stroke-linejoin:miter;stroke:rgb(0%,0%,0%);stroke-opacity:1;stroke-miterlimit:10;" d="M 242.214844 54 C 242.214844 65.714844 232.714844 75.214844 221 75.214844 C 209.285156 75.214844 199.785156 65.714844 199.785156 54 C 199.785156 42.285156 209.285156 32.785156 221 32.785156 C 232.714844 32.785156 242.214844 42.285156 242.214844 54 "/>
<path style="fill-rule:nonzero;fill:rgb(55%,51%,53%);fill-opacity:1;stroke-width:1;stroke-linecap:butt;stroke-linejoin:miter;stroke:rgb(0%,0%,0%);stroke-opacity:1;stroke-miterlimit:10;" d="M 186.214844 198 C 186.214844 209.714844 176.714844 219.214844 165 219.214844 C 153.285156 219.214844 143.785156 209.714844 143.785156 198 C 143.785156 186.285156 153.285156 176.785156 165 176.785156 C 176.714844 176.785156 186.214844 186.285156 186.214844 198 "/>
<path style="fill-rule:nonzero;fill:rgb(55%,51%,53%);fill-opacity:1;stroke-width:1;stroke-linecap:butt;stroke-linejoin:miter;stroke:rgb(0%,0%,0%);stroke-opacity:1;stroke-miterlimit:10;" d="M 823.214844 381 C 823.214844 392.714844 813.714844 402.214844 802 402.214844 C 790.285156 402.214844 780.785156 392.714844 780.785156 381 C 780.785156 369.285156 790.285156 359.785156 802 359.785156 C 813.714844 359.785156 823.214844 369.285156 823.214844 381 "/>
<path style="fill-rule:nonzero;fill:rgb(55%,51%,53%);fill-opacity:1;stroke-width:1;stroke-linecap:butt;stroke-linejoin:miter;stroke:rgb(0%,0%,0%);stroke-opacity:1;stroke-miterlimit:10;" d="M 371.214844 435 C 371.214844 446.714844 361.714844 456.214844 350 456.214844 C 338.285156 456.214844 328.785156 446.714844 328.785156 435 C 328.785156 423.285156 338.285156 413.785156 350 413.785156 C 361.714844 413.785156 371.214844 423.285156 371.214844 435 "/>
</g>
</svg>
