<?xml version="1.0" encoding="UTF-8"?>
<svg xmlns="http://www.w3.org/2000/svg" xmlns:xlink="http://www.w3.org/1999/xlink" width="1179pt" height="517pt" viewBox="0 0 1179 517" version="1.1">
<g id="surface661">
<rect x="0" y="0" width="1179" height="517" style="fill:rgb(90%,90%,90%);fill-opacity:1;stroke:none;"/>
<path style="fill-rule:nonzero;fill:rgb(100%,51%,0%);fill-opacity:1;stroke-width:1;stroke-linecap:butt;stroke-linejoin:miter;stroke:rgb(0%,0%,0%);stroke-opacity:1;stroke-miterlimit:10;" d="M 155 97 L 184.664062 97 L 196.664062 68.785156 L 208.664062 97 L 238.332031 97 L 214.332031 114.4375 L 222.417969 145.980469 L 196.664062 128.542969 L 170.914062 145.980469 L 183.214844 114.4375 L 155 97 "/>
<path style="fill-rule:nonzero;fill:rgb(100%,51%,0%);fill-opacity:1;stroke-width:1;stroke-linecap:butt;stroke-linejoin:miter;stroke:rgb(0%,0%,0%);stroke-opacity:1;stroke-miterlimit:10;" d="M 359 345 L 388.664062 345 L 400.664062 316.785156 L 412.664062 345 L 442.332031 345 L 418.332031 362.4375 L 426.417969 393.980469 L 400.664062 376.542969 L 374.914062 393.980469 L 387.214844 362.4375 L 359 345 "/>
<path style="fill-rule:nonzero;fill:rgb(55%,51%,53%);fill-opacity:1;stroke-width:1;stroke-linecap:butt;stroke-linejoin:miter;stroke:rgb(0%,0%,0%);stroke-opacity:1;stroke-miterlimit:10;" d="M 185.214844 429 C 185.214844 440.714844 175.714844 450.214844 164 450.214844 C 152.285156 450.214844 142.785156 440.714844 142.785156 429 C 142.785156 417.285156 152.285156 407.785156 164 407.785156 C 175.714844 407.785156 185.214844 417.285156 185.214844 429 "/>
<path style="fill-rule:nonzero;fill:rgb(55%,51%,53%);fill-opacity:1;stroke-width:1;stroke-linecap:butt;stroke-linejoin:miter;stroke:rgb(0%,0%,0%);stroke-opacity:1;stroke-miterlimit:10;" d="M 265.214844 288 C 265.214844 299.714844 255.714844 309.214844 244 309.214844 C 232.285156 309.214844 222.785156 299.714844 222.785156 288 C 222.785156 276.285156 232.285156 266.785156 244 266.785156 C 255.714844 266.785156 265.214844 276.285156 265.214844 288 "/>
<path style="fill-rule:nonzero;fill:rgb(100%,51%,0%);fill-opacity:1;stroke-width:1;stroke-linecap:butt;stroke-linejoin:miter;stroke:rgb(0%,0%,0%);stroke-opacity:1;stroke-miterlimit:10;" d="M 330 172 L 359.664062 172 L 371.664062 143.785156 L 383.664062 172 L 413.332031 172 L 389.332031 189.4375 L 397.417969 220.980469 L 371.664062 203.542969 L 345.914062 220.980469 L 358.214844 189.4375 L 330 172 "/>
<path style="fill-rule:nonzero;fill:rgb(55%,51%,53%);fill-opacity:1;stroke-width:1;stroke-linecap:butt;stroke-linejoin:miter;stroke:rgb(0%,0%,0%);stroke-opacity:1;stroke-miterlimit:10;" d="M 118.214844 347 C 118.214844 358.714844 108.714844 368.214844 97 368.214844 C 85.285156 368.214844 75.785156 358.714844 75.785156 347 C 75.785156 335.285156 85.285156 325.785156 97 325.785156 C 108.714844 325.785156 118.214844 335.285156 118.214844 347 "/>
<path style="fill-rule:nonzero;fill:rgb(55%,51%,53%);fill-opacity:1;stroke-width:1;stroke-linecap:butt;stroke-linejoin:miter;stroke:rgb(0%,0%,0%);stroke-opacity:1;stroke-miterlimit:10;" d="M 435.214844 269 C 435.214844 280.714844 425.714844 290.214844 414 290.214844 C 402.285156 290.214844 392.785156 280.714844 392.785156 269 C 392.785156 257.285156 402.285156 247.785156 414 247.785156 C 425.714844 247.785156 435.214844 257.285156 435.214844 269 "/>
<path style="fill-rule:nonzero;fill:rgb(100%,51%,0%);fill-opacity:1;stroke-width:1;stroke-linecap:butt;stroke-linejoin:miter;stroke:rgb(0%,0%,0%);stroke-opacity:1;stroke-miterlimit:10;" d="M 809 221 L 838.664062 221 L 850.664062 192.785156 L 862.664062 221 L 892.332031 221 L 868.332031 238.4375 L 876.417969 269.980469 L 850.664062 252.542969 L 824.914062 269.980469 L 837.214844 238.4375 L 809 221 "/>
<path style="fill-rule:nonzero;fill:rgb(100%,51%,0%);fill-opacity:1;stroke-width:1;stroke-linecap:butt;stroke-linejoin:miter;stroke:rgb(0%,0%,0%);stroke-opacity:1;stroke-miterlimit:10;" d="M 1023 311 L 1052.664062 311 L 1064.664062 282.785156 L 1076.664062 311 L 1106.332031 311 L 1082.332031 328.4375 L 1090.417969 359.980469 L 1064.664062 342.542969 L 1038.914062 359.980469 L 1051.214844 328.4375 L 1023 311 "/>
<path style="fill-rule:nonzero;fill:rgb(100%,51%,0%);fill-opacity:1;stroke-width:1;stroke-linecap:butt;stroke-linejoin:miter;stroke:rgb(0%,0%,0%);stroke-opacity:1;stroke-miterlimit:10;" d="M 697 334 L 726.664062 334 L 738.664062 305.785156 L 750.664062 334 L 780.332031 334 L 756.332031 351.4375 L 764.417969 382.980469 L 738.664062 365.542969 L 712.914062 382.980469 L 725.214844 351.4375 L 697 334 "/>
<path style="fill-rule:nonzero;fill:rgb(100%,51%,0%);fill-opacity:1;stroke-width:1;stroke-linecap:butt;stroke-linejoin:miter;stroke:rgb(0%,0%,0%);stroke-opacity:1;stroke-miterlimit:10;" d="M 767 432 L 796.664062 432 L 808.664062 403.785156 L 820.664062 432 L 850.332031 432 L 826.332031 449.4375 L 834.417969 480.980469 L 808.664062 463.542969 L 782.914062 480.980469 L 795.214844 449.4375 L 767 432 "/>
</g>
</svg>
