<?xml version="1.0" encoding="UTF-8"?>
<svg xmlns="http://www.w3.org/2000/svg" xmlns:xlink="http://www.w3.org/1999/xlink" width="1129pt" height="517pt" viewBox="0 0 1129 517" version="1.1">
<g id="surface721">
<rect x="0" y="0" width="1129" height="517" style="fill:rgb(90%,90%,90%);fill-opacity:1;stroke:none;"/>
<path style="fill-rule:nonzero;fill:rgb(53%,27%,7%);fill-opacity:1;stroke-width:1;stroke-linecap:butt;stroke-linejoin:miter;stroke:rgb(0%,0%,0%);stroke-opacity:1;stroke-miterlimit:10;" d="M 692 254.601562 C 692 240.199219 668 240.199219 668 254.601562 C 668 269 692 271.398438 692 283.398438 C 692 271.398438 716 269 716 254.601562 C 716 240.199219 692 240.199219 692 254.601562 "/>
<path style="fill-rule:nonzero;fill:rgb(53%,27%,7%);fill-opacity:1;stroke-width:1;stroke-linecap:butt;stroke-linejoin:miter;stroke:rgb(0%,0%,0%);stroke-opacity:1;stroke-miterlimit:10;" d="M 457 152.601562 C 457 138.199219 433 138.199219 433 152.601562 C 433 167 457 169.398438 457 181.398438 C 457 169.398438 481 167 481 152.601562 C 481 138.199219 457 138.199219 457 152.601562 "/>
<path style="fill-rule:nonzero;fill:rgb(53%,27%,7%);fill-opacity:1;stroke-width:1;stroke-linecap:butt;stroke-linejoin:miter;stroke:rgb(0%,0%,0%);stroke-opacity:1;stroke-miterlimit:10;" d="M 75 163.601562 C 75 149.199219 51 149.199219 51 163.601562 C 51 178 75 180.398438 75 192.398438 C 75 180.398438 99 178 99 163.601562 C 99 149.199219 75 149.199219 75 163.601562 "/>
<path style="fill-rule:nonzero;fill:rgb(53%,27%,7%);fill-opacity:1;stroke-width:1;stroke-linecap:butt;stroke-linejoin:miter;stroke:rgb(0%,0%,0%);stroke-opacity:1;stroke-miterlimit:10;" d="M 800 250.601562 C 800 236.199219 776 236.199219 776 250.601562 C 776 265 800 267.398438 800 279.398438 C 800 267.398438 824 265 824 250.601562 C 824 236.199219 800 236.199219 800 250.601562 "/>
<path style="fill-rule:nonzero;fill:rgb(53%,27%,7%);fill-opacity:1;stroke-width:1;stroke-linecap:butt;stroke-linejoin:miter;stroke:rgb(0%,0%,0%);stroke-opacity:1;stroke-miterlimit:10;" d="M 404 423.601562 C 404 409.199219 380 409.199219 380 423.601562 C 380 438 404 440.398438 404 452.398438 C 404 440.398438 428 438 428 423.601562 C 428 409.199219 404 409.199219 404 423.601562 "/>
<path style="fill-rule:nonzero;fill:rgb(100%,51%,0%);fill-opacity:1;stroke-width:1;stroke-linecap:butt;stroke-linejoin:miter;stroke:rgb(0%,0%,0%);stroke-opacity:1;stroke-miterlimit:10;" d="M 872.214844 55 C 872.214844 66.714844 862.714844 76.214844 851 76.214844 C 839.285156 76.214844 829.785156 66.714844 829.785156 55 C 829.785156 43.285156 839.285156 33.785156 851 33.785156 C 862.714844 33.785156 872.214844 43.285156 872.214844 55 "/>
<path style="fill-rule:nonzero;fill:rgb(100%,51%,0%);fill-opacity:1;stroke-width:1;stroke-linecap:butt;stroke-linejoin:miter;stroke:rgb(0%,0%,0%);stroke-opacity:1;stroke-miterlimit:10;" d="M 747.214844 147 C 747.214844 158.714844 737.714844 168.214844 726 168.214844 C 714.285156 168.214844 704.785156 158.714844 704.785156 147 C 704.785156 135.285156 714.285156 125.785156 726 125.785156 C 737.714844 125.785156 747.214844 135.285156 747.214844 147 "/>
<path style="fill-rule:nonzero;fill:rgb(100%,51%,0%);fill-opacity:1;stroke-width:1;stroke-linecap:butt;stroke-linejoin:miter;stroke:rgb(0%,0%,0%);stroke-opacity:1;stroke-miterlimit:10;" d="M 450.214844 342 C 450.214844 353.714844 440.714844 363.214844 429 363.214844 C 417.285156 363.214844 407.785156 353.714844 407.785156 342 C 407.785156 330.285156 417.285156 320.785156 429 320.785156 C 440.714844 320.785156 450.214844 330.285156 450.214844 342 "/>
<path style="fill-rule:nonzero;fill:rgb(100%,51%,0%);fill-opacity:1;stroke-width:1;stroke-linecap:butt;stroke-linejoin:miter;stroke:rgb(0%,0%,0%);stroke-opacity:1;stroke-miterlimit:10;" d="M 244.214844 71 C 244.214844 82.714844 234.714844 92.214844 223 92.214844 C 211.285156 92.214844 201.785156 82.714844 201.785156 71 C 201.785156 59.285156 211.285156 49.785156 223 49.785156 C 234.714844 49.785156 244.214844 59.285156 244.214844 71 "/>
<path style="fill-rule:nonzero;fill:rgb(100%,51%,0%);fill-opacity:1;stroke-width:1;stroke-linecap:butt;stroke-linejoin:miter;stroke:rgb(0%,0%,0%);stroke-opacity:1;stroke-miterlimit:10;" d="M 205.214844 412 C 205.214844 423.714844 195.714844 433.214844 184 433.214844 C 172.285156 433.214844 162.785156 423.714844 162.785156 412 C 162.785156 400.285156 172.285156 390.785156 184 390.785156 C 195.714844 390.785156 205.214844 400.285156 205.214844 412 "/>
<path style="fill-rule:nonzero;fill:rgb(100%,51%,0%);fill-opacity:1;stroke-width:1;stroke-linecap:butt;stroke-linejoin:miter;stroke:rgb(0%,0%,0%);stroke-opacity:1;stroke-miterlimit:10;" d="M 928.214844 404 C 928.214844 415.714844 918.714844 425.214844 907 425.214844 C 895.285156 425.214844 885.785156 415.714844 885.785156 404 C 885.785156 392.285156 895.285156 382.785156 907 382.785156 C 918.714844 382.785156 928.214844 392.285156 928.214844 404 "/>
<path style="fill-rule:nonzero;fill:rgb(100%,51%,0%);fill-opacity:1;stroke-width:1;stroke-linecap:butt;stroke-linejoin:miter;stroke:rgb(0%,0%,0%);stroke-opacity:1;stroke-miterlimit:10;" d="M 920.214844 267 C 920.214844 278.714844 910.714844 288.214844 899 288.214844 C 887.285156 288.214844 877.785156 278.714844 877.785156 267 C 877.785156 255.285156 887.285156 245.785156 899 245.785156 C 910.714844 245.785156 920.214844 255.285156 920.214844 267 "/>
<path style="fill-rule:nonzero;fill:rgb(100%,51%,0%);fill-opacity:1;stroke-width:1;stroke-linecap:butt;stroke-linejoin:miter;stroke:rgb(0%,0%,0%);stroke-opacity:1;stroke-miterlimit:10;" d="M 584.214844 268 C 584.214844 279.714844 574.714844 289.214844 563 289.214844 C 551.285156 289.214844 541.785156 279.714844 541.785156 268 C 541.785156 256.285156 551.285156 246.785156 563 246.785156 C 574.714844 246.785156 584.214844 256.285156 584.214844 268 "/>
</g>
</svg>
