<?xml version="1.0" encoding="UTF-8"?>
<svg xmlns="http://www.w3.org/2000/svg" xmlns:xlink="http://www.w3.org/1999/xlink" width="1129pt" height="517pt" viewBox="0 0 1129 517" version="1.1">
<g id="surface926">
<rect x="0" y="0" width="1129" height="517" style="fill:rgb(90%,90%,90%);fill-opacity:1;stroke:none;"/>
<path style="fill-rule:nonzero;fill:rgb(35%,70%,90%);fill-opacity:1;stroke-width:1;stroke-linecap:butt;stroke-linejoin:miter;stroke:rgb(0%,0%,0%);stroke-opacity:1;stroke-miterlimit:10;" d="M 356.214844 194 C 356.214844 205.714844 346.714844 215.214844 335 215.214844 C 323.285156 215.214844 313.785156 205.714844 313.785156 194 C 313.785156 182.285156 323.285156 172.785156 335 172.785156 C 346.714844 172.785156 356.214844 182.285156 356.214844 194 "/>
<path style="fill-rule:nonzero;fill:rgb(35%,70%,90%);fill-opacity:1;stroke-width:1;stroke-linecap:butt;stroke-linejoin:miter;stroke:rgb(0%,0%,0%);stroke-opacity:1;stroke-miterlimit:10;" d="M 583.214844 413 C 583.214844 424.714844 573.714844 434.214844 562 434.214844 C 550.285156 434.214844 540.785156 424.714844 540.785156 413 C 540.785156 401.285156 550.285156 391.785156 562 391.785156 C 573.714844 391.785156 583.214844 401.285156 583.214844 413 "/>
<path style="fill-rule:nonzero;fill:rgb(35%,70%,90%);fill-opacity:1;stroke-width:1;stroke-linecap:butt;stroke-linejoin:miter;stroke:rgb(0%,0%,0%);stroke-opacity:1;stroke-miterlimit:10;" d="M 122.214844 140 C 122.214844 151.714844 112.714844 161.214844 101 161.214844 C 89.285156 161.214844 79.785156 151.714844 79.785156 140 C 79.785156 128.285156 89.285156 118.785156 101 118.785156 C 112.714844 118.785156 122.214844 128.285156 122.214844 140 "/>
<path style="fill-rule:nonzero;fill:rgb(35%,70%,90%);fill-opacity:1;stroke-width:1;stroke-linecap:butt;stroke-linejoin:miter;stroke:rgb(0%,0%,0%);stroke-opacity:1;stroke-miterlimit:10;" d="M 586.214844 243 C 586.214844 254.714844 576.714844 264.214844 565 264.214844 C 553.285156 264.214844 543.785156 254.714844 543.785156 243 C 543.785156 231.285156 553.285156 221.785156 565 221.785156 C 576.714844 221.785156 586.214844 231.285156 586.214844 243 "/>
<path style="fill-rule:nonzero;fill:rgb(35%,70%,90%);fill-opacity:1;stroke-width:1;stroke-linecap:butt;stroke-linejoin:miter;stroke:rgb(0%,0%,0%);stroke-opacity:1;stroke-miterlimit:10;" d="M 115.214844 282 C 115.214844 293.714844 105.714844 303.214844 94 303.214844 C 82.285156 303.214844 72.785156 293.714844 72.785156 282 C 72.785156 270.285156 82.285156 260.785156 94 260.785156 C 105.714844 260.785156 115.214844 270.285156 115.214844 282 "/>
<path style="fill-rule:nonzero;fill:rgb(35%,70%,90%);fill-opacity:1;stroke-width:1;stroke-linecap:butt;stroke-linejoin:miter;stroke:rgb(0%,0%,0%);stroke-opacity:1;stroke-miterlimit:10;" d="M 766.214844 87 C 766.214844 98.714844 756.714844 108.214844 745 108.214844 C 733.285156 108.214844 723.785156 98.714844 723.785156 87 C 723.785156 75.285156 733.285156 65.785156 745 65.785156 C 756.714844 65.785156 766.214844 75.285156 766.214844 87 "/>
<path style="fill-rule:nonzero;fill:rgb(35%,70%,90%);fill-opacity:1;stroke-width:1;stroke-linecap:butt;stroke-linejoin:miter;stroke:rgb(0%,0%,0%);stroke-opacity:1;stroke-miterlimit:10;" d="M 237 412 L 266.664062 412 L 278.664062 383.785156 L 290.664062 412 L 320.332031 412 L 296.332031 429.4375 L 304.417969 460.980469 L 278.664062 443.542969 L 252.914062 460.980469 L 265.214844 429.4375 L 237 412 "/>
<path style="fill-rule:nonzero;fill:rgb(35%,70%,90%);fill-opacity:1;stroke-width:1;stroke-linecap:butt;stroke-linejoin:miter;stroke:rgb(0%,0%,0%);stroke-opacity:1;stroke-miterlimit:10;" d="M 376 277 L 405.664062 277 L 417.664062 248.785156 L 429.664062 277 L 459.332031 277 L 435.332031 294.4375 L 443.417969 325.980469 L 417.664062 308.542969 L 391.914062 325.980469 L 404.214844 294.4375 L 376 277 "/>
<path style="fill-rule:nonzero;fill:rgb(35%,70%,90%);fill-opacity:1;stroke-width:1;stroke-linecap:butt;stroke-linejoin:miter;stroke:rgb(0%,0%,0%);stroke-opacity:1;stroke-miterlimit:10;" d="M 675 282 L 704.664062 282 L 716.664062 253.785156 L 728.664062 282 L 758.332031 282 L 734.332031 299.4375 L 742.417969 330.980469 L 716.664062 313.542969 L 690.914062 330.980469 L 703.214844 299.4375 L 675 282 "/>
<path style="fill-rule:nonzero;fill:rgb(35%,70%,90%);fill-opacity:1;stroke-width:1;stroke-linecap:butt;stroke-linejoin:miter;stroke:rgb(0%,0%,0%);stroke-opacity:1;stroke-miterlimit:10;" d="M 962 52 L 991.664062 52 L 1003.664062 23.785156 L 1015.664062 52 L 1045.332031 52 L 1021.332031 69.4375 L 1029.417969 100.980469 L 1003.664062 83.542969 L 977.914062 100.980469 L 990.214844 69.4375 L 962 52 "/>
<path style="fill-rule:nonzero;fill:rgb(35%,70%,90%);fill-opacity:1;stroke-width:1;stroke-linecap:butt;stroke-linejoin:miter;stroke:rgb(0%,0%,0%);stroke-opacity:1;stroke-miterlimit:10;" d="M 610 61 L 639.664062 61 L 651.664062 32.785156 L 663.664062 61 L 693.332031 61 L 669.332031 78.4375 L 677.417969 109.980469 L 651.664062 92.542969 L 625.914062 109.980469 L 638.214844 78.4375 L 610 61 "/>
</g>
</svg>
