<?xml version="1.0" encoding="UTF-8"?>
<svg xmlns="http://www.w3.org/2000/svg" xmlns:xlink="http://www.w3.org/1999/xlink" width="1129pt" height="517pt" viewBox="0 0 1129 517" version="1.1">
<g id="surface576">
<rect x="0" y="0" width="1129" height="517" style="fill:rgb(90%,90%,90%);fill-opacity:1;stroke:none;"/>
<path style="fill-rule:nonzero;fill:rgb(35%,70%,90%);fill-opacity:1;stroke-width:1;stroke-linecap:butt;stroke-linejoin:miter;stroke:rgb(0%,0%,0%);stroke-opacity:1;stroke-miterlimit:10;" d="M 932 173 L 961.664062 173 L 973.664062 144.785156 L 985.664062 173 L 1015.332031 173 L 991.332031 190.4375 L 999.417969 221.980469 L 973.664062 204.542969 L 947.914062 221.980469 L 960.214844 190.4375 L 932 173 "/>
<path style="fill-rule:nonzero;fill:rgb(35%,70%,90%);fill-opacity:1;stroke-width:1;stroke-linecap:butt;stroke-linejoin:miter;stroke:rgb(0%,0%,0%);stroke-opacity:1;stroke-miterlimit:10;" d="M 940 276 L 969.664062 276 L 981.664062 247.785156 L 993.664062 276 L 1023.332031 276 L 999.332031 293.4375 L 1007.417969 324.980469 L 981.664062 307.542969 L 955.914062 324.980469 L 968.214844 293.4375 L 940 276 "/>
<path style="fill-rule:nonzero;fill:rgb(35%,70%,90%);fill-opacity:1;stroke-width:1;stroke-linecap:butt;stroke-linejoin:miter;stroke:rgb(0%,0%,0%);stroke-opacity:1;stroke-miterlimit:10;" d="M 616 206 L 645.664062 206 L 657.664062 177.785156 L 669.664062 206 L 699.332031 206 L 675.332031 223.4375 L 683.417969 254.980469 L 657.664062 237.542969 L 631.914062 254.980469 L 644.214844 223.4375 L 616 206 "/>
<path style="fill-rule:nonzero;fill:rgb(35%,70%,90%);fill-opacity:1;stroke-width:1;stroke-linecap:butt;stroke-linejoin:miter;stroke:rgb(0%,0%,0%);stroke-opacity:1;stroke-miterlimit:10;" d="M 252 198 L 281.664062 198 L 293.664062 169.785156 L 305.664062 198 L 335.332031 198 L 311.332031 215.4375 L 319.417969 246.980469 L 293.664062 229.542969 L 267.914062 246.980469 L 280.214844 215.4375 L 252 198 "/>
<path style="fill-rule:nonzero;fill:rgb(35%,70%,90%);fill-opacity:1;stroke-width:1;stroke-linecap:butt;stroke-linejoin:miter;stroke:rgb(0%,0%,0%);stroke-opacity:1;stroke-miterlimit:10;" d="M 811 371 L 840.664062 371 L 852.664062 342.785156 L 864.664062 371 L 894.332031 371 L 870.332031 388.4375 L 878.417969 419.980469 L 852.664062 402.542969 L 826.914062 419.980469 L 839.214844 388.4375 L 811 371 "/>
<path style="fill-rule:nonzero;fill:rgb(35%,70%,90%);fill-opacity:1;stroke-width:1;stroke-linecap:butt;stroke-linejoin:miter;stroke:rgb(0%,0%,0%);stroke-opacity:1;stroke-miterlimit:10;" d="M 722 122 L 751.664062 122 L 763.664062 93.785156 L 775.664062 122 L 805.332031 122 L 781.332031 139.4375 L 789.417969 170.980469 L 763.664062 153.542969 L 737.914062 170.980469 L 750.214844 139.4375 L 722 122 "/>
<path style="fill-rule:nonzero;fill:rgb(53%,27%,7%);fill-opacity:1;stroke-width:1;stroke-linecap:butt;stroke-linejoin:miter;stroke:rgb(0%,0%,0%);stroke-opacity:1;stroke-miterlimit:10;" d="M 671 315 L 645.019531 360 L 696.980469 360 L 671 315 "/>
<path style="fill-rule:nonzero;fill:rgb(53%,27%,7%);fill-opacity:1;stroke-width:1;stroke-linecap:butt;stroke-linejoin:miter;stroke:rgb(0%,0%,0%);stroke-opacity:1;stroke-miterlimit:10;" d="M 169 70 L 143.019531 115 L 194.980469 115 L 169 70 "/>
<path style="fill-rule:nonzero;fill:rgb(53%,27%,7%);fill-opacity:1;stroke-width:1;stroke-linecap:butt;stroke-linejoin:miter;stroke:rgb(0%,0%,0%);stroke-opacity:1;stroke-miterlimit:10;" d="M 64 377 L 38.019531 422 L 89.980469 422 L 64 377 "/>
<path style="fill-rule:nonzero;fill:rgb(53%,27%,7%);fill-opacity:1;stroke-width:1;stroke-linecap:butt;stroke-linejoin:miter;stroke:rgb(0%,0%,0%);stroke-opacity:1;stroke-miterlimit:10;" d="M 581 377 L 555.019531 422 L 606.980469 422 L 581 377 "/>
</g>
</svg>
