<?xml version="1.0" encoding="UTF-8"?>
<svg xmlns="http://www.w3.org/2000/svg" xmlns:xlink="http://www.w3.org/1999/xlink" width="1129pt" height="517pt" viewBox="0 0 1129 517" version="1.1">
<g id="surface41">
<rect x="0" y="0" width="1129" height="517" style="fill:rgb(90%,90%,90%);fill-opacity:1;stroke:none;"/>
<path style="fill-rule:nonzero;fill:rgb(35%,70%,90%);fill-opacity:1;stroke-width:1;stroke-linecap:butt;stroke-linejoin:miter;stroke:rgb(0%,0%,0%);stroke-opacity:1;stroke-miterlimit:10;" d="M 84 445 L 113.664062 445 L 125.664062 416.785156 L 137.664062 445 L 167.332031 445 L 143.332031 462.4375 L 151.417969 493.980469 L 125.664062 476.542969 L 99.914062 493.980469 L 112.214844 462.4375 L 84 445 "/>
<path style="fill-rule:nonzero;fill:rgb(35%,70%,90%);fill-opacity:1;stroke-width:1;stroke-linecap:butt;stroke-linejoin:miter;stroke:rgb(0%,0%,0%);stroke-opacity:1;stroke-miterlimit:10;" d="M 142.785156 43.785156 L 142.785156 86.214844 L 185.214844 86.214844 L 185.214844 43.785156 L 142.785156 43.785156 "/>
<path style="fill-rule:nonzero;fill:rgb(35%,70%,90%);fill-opacity:1;stroke-width:1;stroke-linecap:butt;stroke-linejoin:miter;stroke:rgb(0%,0%,0%);stroke-opacity:1;stroke-miterlimit:10;" d="M 349 195 L 378.664062 195 L 390.664062 166.785156 L 402.664062 195 L 432.332031 195 L 408.332031 212.4375 L 416.417969 243.980469 L 390.664062 226.542969 L 364.914062 243.980469 L 377.214844 212.4375 L 349 195 "/>
<path style="fill-rule:nonzero;fill:rgb(35%,70%,90%);fill-opacity:1;stroke-width:1;stroke-linecap:butt;stroke-linejoin:miter;stroke:rgb(0%,0%,0%);stroke-opacity:1;stroke-miterlimit:10;" d="M 102.785156 127.785156 L 102.785156 170.214844 L 145.214844 170.214844 L 145.214844 127.785156 L 102.785156 127.785156 "/>
<path style="fill-rule:nonzero;fill:rgb(35%,70%,90%);fill-opacity:1;stroke-width:1;stroke-linecap:butt;stroke-linejoin:miter;stroke:rgb(0%,0%,0%);stroke-opacity:1;stroke-miterlimit:10;" d="M 398 421 L 427.664062 421 L 439.664062 392.785156 L 451.664062 421 L 481.332031 421 L 457.332031 438.4375 L 465.417969 469.980469 L 439.664062 452.542969 L 413.914062 469.980469 L 426.214844 438.4375 L 398 421 "/>
<path style="fill-rule:nonzero;fill:rgb(53%,27%,7%);fill-opacity:1;stroke-width:1;stroke-linecap:butt;stroke-linejoin:miter;stroke:rgb(0%,0%,0%);stroke-opacity:1;stroke-miterlimit:10;" d="M 915.785156 316.785156 L 915.785156 359.214844 L 958.214844 359.214844 L 958.214844 316.785156 L 915.785156 316.785156 "/>
<path style="fill-rule:nonzero;fill:rgb(53%,27%,7%);fill-opacity:1;stroke-width:1;stroke-linecap:butt;stroke-linejoin:miter;stroke:rgb(0%,0%,0%);stroke-opacity:1;stroke-miterlimit:10;" d="M 796 195 L 825.664062 195 L 837.664062 166.785156 L 849.664062 195 L 879.332031 195 L 855.332031 212.4375 L 863.417969 243.980469 L 837.664062 226.542969 L 811.914062 243.980469 L 824.214844 212.4375 L 796 195 "/>
<path style="fill-rule:nonzero;fill:rgb(53%,27%,7%);fill-opacity:1;stroke-width:1;stroke-linecap:butt;stroke-linejoin:miter;stroke:rgb(0%,0%,0%);stroke-opacity:1;stroke-miterlimit:10;" d="M 797.785156 349.785156 L 797.785156 392.214844 L 840.214844 392.214844 L 840.214844 349.785156 L 797.785156 349.785156 "/>
<path style="fill-rule:nonzero;fill:rgb(53%,27%,7%);fill-opacity:1;stroke-width:1;stroke-linecap:butt;stroke-linejoin:miter;stroke:rgb(0%,0%,0%);stroke-opacity:1;stroke-miterlimit:10;" d="M 836 79 L 865.664062 79 L 877.664062 50.785156 L 889.664062 79 L 919.332031 79 L 895.332031 96.4375 L 903.417969 127.980469 L 877.664062 110.542969 L 851.914062 127.980469 L 864.214844 96.4375 L 836 79 "/>
<path style="fill-rule:nonzero;fill:rgb(53%,27%,7%);fill-opacity:1;stroke-width:1;stroke-linecap:butt;stroke-linejoin:miter;stroke:rgb(0%,0%,0%);stroke-opacity:1;stroke-miterlimit:10;" d="M 687.785156 329.785156 L 687.785156 372.214844 L 730.214844 372.214844 L 730.214844 329.785156 L 687.785156 329.785156 "/>
</g>
</svg>
