<?xml version="1.0" encoding="UTF-8"?>
<svg xmlns="http://www.w3.org/2000/svg" xmlns:xlink="http://www.w3.org/1999/xlink" width="1179pt" height="517pt" viewBox="0 0 1179 517" version="1.1">
<g id="surface231">
<rect x="0" y="0" width="1179" height="517" style="fill:rgb(90%,90%,90%);fill-opacity:1;stroke:none;"/>
<path style="fill-rule:nonzero;fill:rgb(35%,70%,90%);fill-opacity:1;stroke-width:1;stroke-linecap:butt;stroke-linejoin:miter;stroke:rgb(0%,0%,0%);stroke-opacity:1;stroke-miterlimit:10;" d="M 292.214844 91 C 292.214844 102.714844 282.714844 112.214844 271 112.214844 C 259.285156 112.214844 249.785156 102.714844 249.785156 91 C 249.785156 79.285156 259.285156 69.785156 271 69.785156 C 282.714844 69.785156 292.214844 79.285156 292.214844 91 "/>
<path style="fill-rule:nonzero;fill:rgb(35%,70%,90%);fill-opacity:1;stroke-width:1;stroke-linecap:butt;stroke-linejoin:miter;stroke:rgb(0%,0%,0%);stroke-opacity:1;stroke-miterlimit:10;" d="M 379.214844 139 C 379.214844 150.714844 369.714844 160.214844 358 160.214844 C 346.285156 160.214844 336.785156 150.714844 336.785156 139 C 336.785156 127.285156 346.285156 117.785156 358 117.785156 C 369.714844 117.785156 379.214844 127.285156 379.214844 139 "/>
<path style="fill-rule:nonzero;fill:rgb(35%,70%,90%);fill-opacity:1;stroke-width:1;stroke-linecap:butt;stroke-linejoin:miter;stroke:rgb(0%,0%,0%);stroke-opacity:1;stroke-miterlimit:10;" d="M 278.785156 296.785156 L 278.785156 339.214844 L 321.214844 339.214844 L 321.214844 296.785156 L 278.785156 296.785156 "/>
<path style="fill-rule:nonzero;fill:rgb(35%,70%,90%);fill-opacity:1;stroke-width:1;stroke-linecap:butt;stroke-linejoin:miter;stroke:rgb(0%,0%,0%);stroke-opacity:1;stroke-miterlimit:10;" d="M 337.785156 218.785156 L 337.785156 261.214844 L 380.214844 261.214844 L 380.214844 218.785156 L 337.785156 218.785156 "/>
<path style="fill-rule:nonzero;fill:rgb(35%,70%,90%);fill-opacity:1;stroke-width:1;stroke-linecap:butt;stroke-linejoin:miter;stroke:rgb(0%,0%,0%);stroke-opacity:1;stroke-miterlimit:10;" d="M 150.214844 374 C 150.214844 385.714844 140.714844 395.214844 129 395.214844 C 117.285156 395.214844 107.785156 385.714844 107.785156 374 C 107.785156 362.285156 117.285156 352.785156 129 352.785156 C 140.714844 352.785156 150.214844 362.285156 150.214844 374 "/>
<path style="fill-rule:nonzero;fill:rgb(35%,70%,90%);fill-opacity:1;stroke-width:1;stroke-linecap:butt;stroke-linejoin:miter;stroke:rgb(0%,0%,0%);stroke-opacity:1;stroke-miterlimit:10;" d="M 409.214844 371 C 409.214844 382.714844 399.714844 392.214844 388 392.214844 C 376.285156 392.214844 366.785156 382.714844 366.785156 371 C 366.785156 359.285156 376.285156 349.785156 388 349.785156 C 399.714844 349.785156 409.214844 359.285156 409.214844 371 "/>
<path style="fill-rule:nonzero;fill:rgb(53%,27%,7%);fill-opacity:1;stroke-width:1;stroke-linecap:butt;stroke-linejoin:miter;stroke:rgb(0%,0%,0%);stroke-opacity:1;stroke-miterlimit:10;" d="M 673.785156 144.785156 L 673.785156 187.214844 L 716.214844 187.214844 L 716.214844 144.785156 L 673.785156 144.785156 "/>
<path style="fill-rule:nonzero;fill:rgb(53%,27%,7%);fill-opacity:1;stroke-width:1;stroke-linecap:butt;stroke-linejoin:miter;stroke:rgb(0%,0%,0%);stroke-opacity:1;stroke-miterlimit:10;" d="M 840.785156 377.785156 L 840.785156 420.214844 L 883.214844 420.214844 L 883.214844 377.785156 L 840.785156 377.785156 "/>
<path style="fill-rule:nonzero;fill:rgb(53%,27%,7%);fill-opacity:1;stroke-width:1;stroke-linecap:butt;stroke-linejoin:miter;stroke:rgb(0%,0%,0%);stroke-opacity:1;stroke-miterlimit:10;" d="M 786.214844 325 C 786.214844 336.714844 776.714844 346.214844 765 346.214844 C 753.285156 346.214844 743.785156 336.714844 743.785156 325 C 743.785156 313.285156 753.285156 303.785156 765 303.785156 C 776.714844 303.785156 786.214844 313.285156 786.214844 325 "/>
<path style="fill-rule:nonzero;fill:rgb(53%,27%,7%);fill-opacity:1;stroke-width:1;stroke-linecap:butt;stroke-linejoin:miter;stroke:rgb(0%,0%,0%);stroke-opacity:1;stroke-miterlimit:10;" d="M 886.214844 297 C 886.214844 308.714844 876.714844 318.214844 865 318.214844 C 853.285156 318.214844 843.785156 308.714844 843.785156 297 C 843.785156 285.285156 853.285156 275.785156 865 275.785156 C 876.714844 275.785156 886.214844 285.285156 886.214844 297 "/>
<path style="fill-rule:nonzero;fill:rgb(53%,27%,7%);fill-opacity:1;stroke-width:1;stroke-linecap:butt;stroke-linejoin:miter;stroke:rgb(0%,0%,0%);stroke-opacity:1;stroke-miterlimit:10;" d="M 973.785156 60.785156 L 973.785156 103.214844 L 1016.214844 103.214844 L 1016.214844 60.785156 L 973.785156 60.785156 "/>
<path style="fill-rule:nonzero;fill:rgb(53%,27%,7%);fill-opacity:1;stroke-width:1;stroke-linecap:butt;stroke-linejoin:miter;stroke:rgb(0%,0%,0%);stroke-opacity:1;stroke-miterlimit:10;" d="M 825.785156 102.785156 L 825.785156 145.214844 L 868.214844 145.214844 L 868.214844 102.785156 L 825.785156 102.785156 "/>
<path style="fill-rule:nonzero;fill:rgb(53%,27%,7%);fill-opacity:1;stroke-width:1;stroke-linecap:butt;stroke-linejoin:miter;stroke:rgb(0%,0%,0%);stroke-opacity:1;stroke-miterlimit:10;" d="M 730.785156 400.785156 L 730.785156 443.214844 L 773.214844 443.214844 L 773.214844 400.785156 L 730.785156 400.785156 "/>
</g>
</svg>
