<?xml version="1.0" encoding="UTF-8"?>
<svg xmlns="http://www.w3.org/2000/svg" xmlns:xlink="http://www.w3.org/1999/xlink" width="1129pt" height="517pt" viewBox="0 0 1129 517" version="1.1">
<g id="surface466">
<rect x="0" y="0" width="1129" height="517" style="fill:rgb(90%,90%,90%);fill-opacity:1;stroke:none;"/>
<path style="fill-rule:nonzero;fill:rgb(100%,51%,0%);fill-opacity:1;stroke-width:1;stroke-linecap:butt;stroke-linejoin:miter;stroke:rgb(0%,0%,0%);stroke-opacity:1;stroke-miterlimit:10;" d="M 443.214844 106 C 443.214844 117.714844 433.714844 127.214844 422 127.214844 C 410.285156 127.214844 400.785156 117.714844 400.785156 106 C 400.785156 94.285156 410.285156 84.785156 422 84.785156 C 433.714844 84.785156 443.214844 94.285156 443.214844 106 "/>
<path style="fill-rule:nonzero;fill:rgb(100%,51%,0%);fill-opacity:1;stroke-width:1;stroke-linecap:butt;stroke-linejoin:miter;stroke:rgb(0%,0%,0%);stroke-opacity:1;stroke-miterlimit:10;" d="M 80 414 L 54.019531 459 L 105.980469 459 L 80 414 "/>
<path style="fill-rule:nonzero;fill:rgb(100%,51%,0%);fill-opacity:1;stroke-width:1;stroke-linecap:butt;stroke-linejoin:miter;stroke:rgb(0%,0%,0%);stroke-opacity:1;stroke-miterlimit:10;" d="M 87 297 L 61.019531 342 L 112.980469 342 L 87 297 "/>
<path style="fill-rule:nonzero;fill:rgb(100%,51%,0%);fill-opacity:1;stroke-width:1;stroke-linecap:butt;stroke-linejoin:miter;stroke:rgb(0%,0%,0%);stroke-opacity:1;stroke-miterlimit:10;" d="M 286.214844 158 C 286.214844 169.714844 276.714844 179.214844 265 179.214844 C 253.285156 179.214844 243.785156 169.714844 243.785156 158 C 243.785156 146.285156 253.285156 136.785156 265 136.785156 C 276.714844 136.785156 286.214844 146.285156 286.214844 158 "/>
<path style="fill-rule:nonzero;fill:rgb(53%,27%,7%);fill-opacity:1;stroke-width:1;stroke-linecap:butt;stroke-linejoin:miter;stroke:rgb(0%,0%,0%);stroke-opacity:1;stroke-miterlimit:10;" d="M 706 295 L 680.019531 340 L 731.980469 340 L 706 295 "/>
<path style="fill-rule:nonzero;fill:rgb(53%,27%,7%);fill-opacity:1;stroke-width:1;stroke-linecap:butt;stroke-linejoin:miter;stroke:rgb(0%,0%,0%);stroke-opacity:1;stroke-miterlimit:10;" d="M 869.214844 335 C 869.214844 346.714844 859.714844 356.214844 848 356.214844 C 836.285156 356.214844 826.785156 346.714844 826.785156 335 C 826.785156 323.285156 836.285156 313.785156 848 313.785156 C 859.714844 313.785156 869.214844 323.285156 869.214844 335 "/>
<path style="fill-rule:nonzero;fill:rgb(53%,27%,7%);fill-opacity:1;stroke-width:1;stroke-linecap:butt;stroke-linejoin:miter;stroke:rgb(0%,0%,0%);stroke-opacity:1;stroke-miterlimit:10;" d="M 853.214844 112 C 853.214844 123.714844 843.714844 133.214844 832 133.214844 C 820.285156 133.214844 810.785156 123.714844 810.785156 112 C 810.785156 100.285156 820.285156 90.785156 832 90.785156 C 843.714844 90.785156 853.214844 100.285156 853.214844 112 "/>
<path style="fill-rule:nonzero;fill:rgb(53%,27%,7%);fill-opacity:1;stroke-width:1;stroke-linecap:butt;stroke-linejoin:miter;stroke:rgb(0%,0%,0%);stroke-opacity:1;stroke-miterlimit:10;" d="M 1001 323 L 975.019531 368 L 1026.980469 368 L 1001 323 "/>
</g>
</svg>
