<?xml version="1.0" encoding="UTF-8"?>
<svg xmlns="http://www.w3.org/2000/svg" xmlns:xlink="http://www.w3.org/1999/xlink" width="1129pt" height="517pt" viewBox="0 0 1129 517" version="1.1">
<g id="surface726">
<rect x="0" y="0" width="1129" height="517" style="fill:rgb(90%,90%,90%);fill-opacity:1;stroke:none;"/>
<path style="fill-rule:nonzero;fill:rgb(55%,51%,53%);fill-opacity:1;stroke-width:1;stroke-linecap:butt;stroke-linejoin:miter;stroke:rgb(0%,0%,0%);stroke-opacity:1;stroke-miterlimit:10;" d="M 112 50 L 86.019531 95 L 137.980469 95 L 112 50 "/>
<path style="fill-rule:nonzero;fill:rgb(55%,51%,53%);fill-opacity:1;stroke-width:1;stroke-linecap:butt;stroke-linejoin:miter;stroke:rgb(0%,0%,0%);stroke-opacity:1;stroke-miterlimit:10;" d="M 396 285 L 370.019531 330 L 421.980469 330 L 396 285 "/>
<path style="fill-rule:nonzero;fill:rgb(55%,51%,53%);fill-opacity:1;stroke-width:1;stroke-linecap:butt;stroke-linejoin:miter;stroke:rgb(0%,0%,0%);stroke-opacity:1;stroke-miterlimit:10;" d="M 99 206 L 73.019531 251 L 124.980469 251 L 99 206 "/>
<path style="fill-rule:nonzero;fill:rgb(55%,51%,53%);fill-opacity:1;stroke-width:1;stroke-linecap:butt;stroke-linejoin:miter;stroke:rgb(0%,0%,0%);stroke-opacity:1;stroke-miterlimit:10;" d="M 510 109 L 484.019531 154 L 535.980469 154 L 510 109 "/>
<path style="fill-rule:nonzero;fill:rgb(55%,51%,53%);fill-opacity:1;stroke-width:1;stroke-linecap:butt;stroke-linejoin:miter;stroke:rgb(0%,0%,0%);stroke-opacity:1;stroke-miterlimit:10;" d="M 229 245 L 203.019531 290 L 254.980469 290 L 229 245 "/>
<path style="fill-rule:nonzero;fill:rgb(55%,51%,53%);fill-opacity:1;stroke-width:1;stroke-linecap:butt;stroke-linejoin:miter;stroke:rgb(0%,0%,0%);stroke-opacity:1;stroke-miterlimit:10;" d="M 912 62 L 886.019531 107 L 937.980469 107 L 912 62 "/>
<path style="fill-rule:nonzero;fill:rgb(55%,51%,53%);fill-opacity:1;stroke-width:1;stroke-linecap:butt;stroke-linejoin:miter;stroke:rgb(0%,0%,0%);stroke-opacity:1;stroke-miterlimit:10;" d="M 893 275 L 867.019531 320 L 918.980469 320 L 893 275 "/>
<path style="fill-rule:nonzero;fill:rgb(55%,51%,53%);fill-opacity:1;stroke-width:1;stroke-linecap:butt;stroke-linejoin:miter;stroke:rgb(0%,0%,0%);stroke-opacity:1;stroke-miterlimit:10;" d="M 234 101 L 208.019531 146 L 259.980469 146 L 234 101 "/>
<path style="fill-rule:nonzero;fill:rgb(55%,51%,53%);fill-opacity:1;stroke-width:1;stroke-linecap:butt;stroke-linejoin:miter;stroke:rgb(0%,0%,0%);stroke-opacity:1;stroke-miterlimit:10;" d="M 758 159 L 787.664062 159 L 799.664062 130.785156 L 811.664062 159 L 841.332031 159 L 817.332031 176.4375 L 825.417969 207.980469 L 799.664062 190.542969 L 773.914062 207.980469 L 786.214844 176.4375 L 758 159 "/>
<path style="fill-rule:nonzero;fill:rgb(55%,51%,53%);fill-opacity:1;stroke-width:1;stroke-linecap:butt;stroke-linejoin:miter;stroke:rgb(0%,0%,0%);stroke-opacity:1;stroke-miterlimit:10;" d="M 717 245 L 746.664062 245 L 758.664062 216.785156 L 770.664062 245 L 800.332031 245 L 776.332031 262.4375 L 784.417969 293.980469 L 758.664062 276.542969 L 732.914062 293.980469 L 745.214844 262.4375 L 717 245 "/>
<path style="fill-rule:nonzero;fill:rgb(55%,51%,53%);fill-opacity:1;stroke-width:1;stroke-linecap:butt;stroke-linejoin:miter;stroke:rgb(0%,0%,0%);stroke-opacity:1;stroke-miterlimit:10;" d="M 928 216 L 957.664062 216 L 969.664062 187.785156 L 981.664062 216 L 1011.332031 216 L 987.332031 233.4375 L 995.417969 264.980469 L 969.664062 247.542969 L 943.914062 264.980469 L 956.214844 233.4375 L 928 216 "/>
<path style="fill-rule:nonzero;fill:rgb(55%,51%,53%);fill-opacity:1;stroke-width:1;stroke-linecap:butt;stroke-linejoin:miter;stroke:rgb(0%,0%,0%);stroke-opacity:1;stroke-miterlimit:10;" d="M 401 438 L 430.664062 438 L 442.664062 409.785156 L 454.664062 438 L 484.332031 438 L 460.332031 455.4375 L 468.417969 486.980469 L 442.664062 469.542969 L 416.914062 486.980469 L 429.214844 455.4375 L 401 438 "/>
<path style="fill-rule:nonzero;fill:rgb(55%,51%,53%);fill-opacity:1;stroke-width:1;stroke-linecap:butt;stroke-linejoin:miter;stroke:rgb(0%,0%,0%);stroke-opacity:1;stroke-miterlimit:10;" d="M 922 454 L 951.664062 454 L 963.664062 425.785156 L 975.664062 454 L 1005.332031 454 L 981.332031 471.4375 L 989.417969 502.980469 L 963.664062 485.542969 L 937.914062 502.980469 L 950.214844 471.4375 L 922 454 "/>
<path style="fill-rule:nonzero;fill:rgb(55%,51%,53%);fill-opacity:1;stroke-width:1;stroke-linecap:butt;stroke-linejoin:miter;stroke:rgb(0%,0%,0%);stroke-opacity:1;stroke-miterlimit:10;" d="M 374 91 L 403.664062 91 L 415.664062 62.785156 L 427.664062 91 L 457.332031 91 L 433.332031 108.4375 L 441.417969 139.980469 L 415.664062 122.542969 L 389.914062 139.980469 L 402.214844 108.4375 L 374 91 "/>
<path style="fill-rule:nonzero;fill:rgb(55%,51%,53%);fill-opacity:1;stroke-width:1;stroke-linecap:butt;stroke-linejoin:miter;stroke:rgb(0%,0%,0%);stroke-opacity:1;stroke-miterlimit:10;" d="M 382 213 L 411.664062 213 L 423.664062 184.785156 L 435.664062 213 L 465.332031 213 L 441.332031 230.4375 L 449.417969 261.980469 L 423.664062 244.542969 L 397.914062 261.980469 L 410.214844 230.4375 L 382 213 "/>
</g>
</svg>
