<?xml version="1.0" encoding="UTF-8"?>
<svg xmlns="http://www.w3.org/2000/svg" xmlns:xlink="http://www.w3.org/1999/xlink" width="1129pt" height="517pt" viewBox="0 0 1129 517" version="1.1">
<g id="surface766">
<rect x="0" y="0" width="1129" height="517" style="fill:rgb(90%,90%,90%);fill-opacity:1;stroke:none;"/>
<path style="fill-rule:nonzero;fill:rgb(53%,27%,7%);fill-opacity:1;stroke-width:1;stroke-linecap:butt;stroke-linejoin:miter;stroke:rgb(0%,0%,0%);stroke-opacity:1;stroke-miterlimit:10;" d="M 767 42.601562 C 767 28.199219 743 28.199219 743 42.601562 C 743 57 767 59.398438 767 71.398438 C 767 59.398438 791 57 791 42.601562 C 791 28.199219 767 28.199219 767 42.601562 "/>
<path style="fill-rule:nonzero;fill:rgb(53%,27%,7%);fill-opacity:1;stroke-width:1;stroke-linecap:butt;stroke-linejoin:miter;stroke:rgb(0%,0%,0%);stroke-opacity:1;stroke-miterlimit:10;" d="M 110 299.601562 C 110 285.199219 86 285.199219 86 299.601562 C 86 314 110 316.398438 110 328.398438 C 110 316.398438 134 314 134 299.601562 C 134 285.199219 110 285.199219 110 299.601562 "/>
<path style="fill-rule:nonzero;fill:rgb(53%,27%,7%);fill-opacity:1;stroke-width:1;stroke-linecap:butt;stroke-linejoin:miter;stroke:rgb(0%,0%,0%);stroke-opacity:1;stroke-miterlimit:10;" d="M 752 379.601562 C 752 365.199219 728 365.199219 728 379.601562 C 728 394 752 396.398438 752 408.398438 C 752 396.398438 776 394 776 379.601562 C 776 365.199219 752 365.199219 752 379.601562 "/>
<path style="fill-rule:nonzero;fill:rgb(53%,27%,7%);fill-opacity:1;stroke-width:1;stroke-linecap:butt;stroke-linejoin:miter;stroke:rgb(0%,0%,0%);stroke-opacity:1;stroke-miterlimit:10;" d="M 541 69.601562 C 541 55.199219 517 55.199219 517 69.601562 C 517 84 541 86.398438 541 98.398438 C 541 86.398438 565 84 565 69.601562 C 565 55.199219 541 55.199219 541 69.601562 "/>
<path style="fill-rule:nonzero;fill:rgb(53%,27%,7%);fill-opacity:1;stroke-width:1;stroke-linecap:butt;stroke-linejoin:miter;stroke:rgb(0%,0%,0%);stroke-opacity:1;stroke-miterlimit:10;" d="M 284 194.601562 C 284 180.199219 260 180.199219 260 194.601562 C 260 209 284 211.398438 284 223.398438 C 284 211.398438 308 209 308 194.601562 C 308 180.199219 284 180.199219 284 194.601562 "/>
<path style="fill-rule:nonzero;fill:rgb(100%,51%,0%);fill-opacity:1;stroke-width:1;stroke-linecap:butt;stroke-linejoin:miter;stroke:rgb(0%,0%,0%);stroke-opacity:1;stroke-miterlimit:10;" d="M 698.214844 453 C 698.214844 464.714844 688.714844 474.214844 677 474.214844 C 665.285156 474.214844 655.785156 464.714844 655.785156 453 C 655.785156 441.285156 665.285156 431.785156 677 431.785156 C 688.714844 431.785156 698.214844 441.285156 698.214844 453 "/>
<path style="fill-rule:nonzero;fill:rgb(100%,51%,0%);fill-opacity:1;stroke-width:1;stroke-linecap:butt;stroke-linejoin:miter;stroke:rgb(0%,0%,0%);stroke-opacity:1;stroke-miterlimit:10;" d="M 962.214844 302 C 962.214844 313.714844 952.714844 323.214844 941 323.214844 C 929.285156 323.214844 919.785156 313.714844 919.785156 302 C 919.785156 290.285156 929.285156 280.785156 941 280.785156 C 952.714844 280.785156 962.214844 290.285156 962.214844 302 "/>
<path style="fill-rule:nonzero;fill:rgb(100%,51%,0%);fill-opacity:1;stroke-width:1;stroke-linecap:butt;stroke-linejoin:miter;stroke:rgb(0%,0%,0%);stroke-opacity:1;stroke-miterlimit:10;" d="M 900.214844 118 C 900.214844 129.714844 890.714844 139.214844 879 139.214844 C 867.285156 139.214844 857.785156 129.714844 857.785156 118 C 857.785156 106.285156 867.285156 96.785156 879 96.785156 C 890.714844 96.785156 900.214844 106.285156 900.214844 118 "/>
<path style="fill-rule:nonzero;fill:rgb(100%,51%,0%);fill-opacity:1;stroke-width:1;stroke-linecap:butt;stroke-linejoin:miter;stroke:rgb(0%,0%,0%);stroke-opacity:1;stroke-miterlimit:10;" d="M 298.214844 442 C 298.214844 453.714844 288.714844 463.214844 277 463.214844 C 265.285156 463.214844 255.785156 453.714844 255.785156 442 C 255.785156 430.285156 265.285156 420.785156 277 420.785156 C 288.714844 420.785156 298.214844 430.285156 298.214844 442 "/>
<path style="fill-rule:nonzero;fill:rgb(100%,51%,0%);fill-opacity:1;stroke-width:1;stroke-linecap:butt;stroke-linejoin:miter;stroke:rgb(0%,0%,0%);stroke-opacity:1;stroke-miterlimit:10;" d="M 662.214844 367 C 662.214844 378.714844 652.714844 388.214844 641 388.214844 C 629.285156 388.214844 619.785156 378.714844 619.785156 367 C 619.785156 355.285156 629.285156 345.785156 641 345.785156 C 652.714844 345.785156 662.214844 355.285156 662.214844 367 "/>
<path style="fill-rule:nonzero;fill:rgb(100%,51%,0%);fill-opacity:1;stroke-width:1;stroke-linecap:butt;stroke-linejoin:miter;stroke:rgb(0%,0%,0%);stroke-opacity:1;stroke-miterlimit:10;" d="M 275.214844 345 C 275.214844 356.714844 265.714844 366.214844 254 366.214844 C 242.285156 366.214844 232.785156 356.714844 232.785156 345 C 232.785156 333.285156 242.285156 323.785156 254 323.785156 C 265.714844 323.785156 275.214844 333.285156 275.214844 345 "/>
<path style="fill-rule:nonzero;fill:rgb(100%,51%,0%);fill-opacity:1;stroke-width:1;stroke-linecap:butt;stroke-linejoin:miter;stroke:rgb(0%,0%,0%);stroke-opacity:1;stroke-miterlimit:10;" d="M 419.214844 178 C 419.214844 189.714844 409.714844 199.214844 398 199.214844 C 386.285156 199.214844 376.785156 189.714844 376.785156 178 C 376.785156 166.285156 386.285156 156.785156 398 156.785156 C 409.714844 156.785156 419.214844 166.285156 419.214844 178 "/>
<path style="fill-rule:nonzero;fill:rgb(100%,51%,0%);fill-opacity:1;stroke-width:1;stroke-linecap:butt;stroke-linejoin:miter;stroke:rgb(0%,0%,0%);stroke-opacity:1;stroke-miterlimit:10;" d="M 979.214844 455 C 979.214844 466.714844 969.714844 476.214844 958 476.214844 C 946.285156 476.214844 936.785156 466.714844 936.785156 455 C 936.785156 443.285156 946.285156 433.785156 958 433.785156 C 969.714844 433.785156 979.214844 443.285156 979.214844 455 "/>
</g>
</svg>
