<?xml version="1.0" encoding="UTF-8"?>
<svg xmlns="http://www.w3.org/2000/svg" xmlns:xlink="http://www.w3.org/1999/xlink" width="1129pt" height="517pt" viewBox="0 0 1129 517" version="1.1">
<g id="surface191">
<rect x="0" y="0" width="1129" height="517" style="fill:rgb(90%,90%,90%);fill-opacity:1;stroke:none;"/>
<path style="fill-rule:nonzero;fill:rgb(35%,70%,90%);fill-opacity:1;stroke-width:1;stroke-linecap:butt;stroke-linejoin:miter;stroke:rgb(0%,0%,0%);stroke-opacity:1;stroke-miterlimit:10;" d="M 324 117 L 353.664062 117 L 365.664062 88.785156 L 377.664062 117 L 407.332031 117 L 383.332031 134.4375 L 391.417969 165.980469 L 365.664062 148.542969 L 339.914062 165.980469 L 352.214844 134.4375 L 324 117 "/>
<path style="fill-rule:nonzero;fill:rgb(100%,51%,0%);fill-opacity:1;stroke-width:1;stroke-linecap:butt;stroke-linejoin:miter;stroke:rgb(0%,0%,0%);stroke-opacity:1;stroke-miterlimit:10;" d="M 172 375 L 201.664062 375 L 213.664062 346.785156 L 225.664062 375 L 255.332031 375 L 231.332031 392.4375 L 239.417969 423.980469 L 213.664062 406.542969 L 187.914062 423.980469 L 200.214844 392.4375 L 172 375 "/>
<path style="fill-rule:nonzero;fill:rgb(35%,70%,90%);fill-opacity:1;stroke-width:1;stroke-linecap:butt;stroke-linejoin:miter;stroke:rgb(0%,0%,0%);stroke-opacity:1;stroke-miterlimit:10;" d="M 138 228 L 167.664062 228 L 179.664062 199.785156 L 191.664062 228 L 221.332031 228 L 197.332031 245.4375 L 205.417969 276.980469 L 179.664062 259.542969 L 153.914062 276.980469 L 166.214844 245.4375 L 138 228 "/>
<path style="fill-rule:nonzero;fill:rgb(100%,51%,0%);fill-opacity:1;stroke-width:1;stroke-linecap:butt;stroke-linejoin:miter;stroke:rgb(0%,0%,0%);stroke-opacity:1;stroke-miterlimit:10;" d="M 73 458 L 102.664062 458 L 114.664062 429.785156 L 126.664062 458 L 156.332031 458 L 132.332031 475.4375 L 140.417969 506.980469 L 114.664062 489.542969 L 88.914062 506.980469 L 101.214844 475.4375 L 73 458 "/>
<path style="fill-rule:nonzero;fill:rgb(35%,70%,90%);fill-opacity:1;stroke-width:1;stroke-linecap:butt;stroke-linejoin:miter;stroke:rgb(0%,0%,0%);stroke-opacity:1;stroke-miterlimit:10;" d="M 413 55 L 442.664062 55 L 454.664062 26.785156 L 466.664062 55 L 496.332031 55 L 472.332031 72.4375 L 480.417969 103.980469 L 454.664062 86.542969 L 428.914062 103.980469 L 441.214844 72.4375 L 413 55 "/>
<path style="fill-rule:nonzero;fill:rgb(100%,51%,0%);fill-opacity:1;stroke-width:1;stroke-linecap:butt;stroke-linejoin:miter;stroke:rgb(0%,0%,0%);stroke-opacity:1;stroke-miterlimit:10;" d="M 860.785156 306.785156 L 860.785156 349.214844 L 903.214844 349.214844 L 903.214844 306.785156 L 860.785156 306.785156 "/>
<path style="fill-rule:nonzero;fill:rgb(35%,70%,90%);fill-opacity:1;stroke-width:1;stroke-linecap:butt;stroke-linejoin:miter;stroke:rgb(0%,0%,0%);stroke-opacity:1;stroke-miterlimit:10;" d="M 620.785156 285.785156 L 620.785156 328.214844 L 663.214844 328.214844 L 663.214844 285.785156 L 620.785156 285.785156 "/>
<path style="fill-rule:nonzero;fill:rgb(100%,51%,0%);fill-opacity:1;stroke-width:1;stroke-linecap:butt;stroke-linejoin:miter;stroke:rgb(0%,0%,0%);stroke-opacity:1;stroke-miterlimit:10;" d="M 796.785156 33.785156 L 796.785156 76.214844 L 839.214844 76.214844 L 839.214844 33.785156 L 796.785156 33.785156 "/>
<path style="fill-rule:nonzero;fill:rgb(35%,70%,90%);fill-opacity:1;stroke-width:1;stroke-linecap:butt;stroke-linejoin:miter;stroke:rgb(0%,0%,0%);stroke-opacity:1;stroke-miterlimit:10;" d="M 994.785156 286.785156 L 994.785156 329.214844 L 1037.214844 329.214844 L 1037.214844 286.785156 L 994.785156 286.785156 "/>
<path style="fill-rule:nonzero;fill:rgb(100%,51%,0%);fill-opacity:1;stroke-width:1;stroke-linecap:butt;stroke-linejoin:miter;stroke:rgb(0%,0%,0%);stroke-opacity:1;stroke-miterlimit:10;" d="M 668.785156 387.785156 L 668.785156 430.214844 L 711.214844 430.214844 L 711.214844 387.785156 L 668.785156 387.785156 "/>
<path style="fill-rule:nonzero;fill:rgb(100%,51%,0%);fill-opacity:1;stroke-width:1;stroke-linecap:butt;stroke-linejoin:miter;stroke:rgb(0%,0%,0%);stroke-opacity:1;stroke-miterlimit:10;" d="M 607.785156 37.785156 L 607.785156 80.214844 L 650.214844 80.214844 L 650.214844 37.785156 L 607.785156 37.785156 "/>
</g>
</svg>
