<?xml version="1.0" encoding="UTF-8"?>
<svg xmlns="http://www.w3.org/2000/svg" xmlns:xlink="http://www.w3.org/1999/xlink" width="1179pt" height="517pt" viewBox="0 0 1179 517" version="1.1">
<g id="surface711">
<rect x="0" y="0" width="1179" height="517" style="fill:rgb(90%,90%,90%);fill-opacity:1;stroke:none;"/>
<path style="fill-rule:nonzero;fill:rgb(55%,51%,53%);fill-opacity:1;stroke-width:1;stroke-linecap:butt;stroke-linejoin:miter;stroke:rgb(0%,0%,0%);stroke-opacity:1;stroke-miterlimit:10;" d="M 335.214844 315 C 335.214844 326.714844 325.714844 336.214844 314 336.214844 C 302.285156 336.214844 292.785156 326.714844 292.785156 315 C 292.785156 303.285156 302.285156 293.785156 314 293.785156 C 325.714844 293.785156 335.214844 303.285156 335.214844 315 "/>
<path style="fill-rule:nonzero;fill:rgb(55%,51%,53%);fill-opacity:1;stroke-width:1;stroke-linecap:butt;stroke-linejoin:miter;stroke:rgb(0%,0%,0%);stroke-opacity:1;stroke-miterlimit:10;" d="M 210.785156 178.785156 L 210.785156 221.214844 L 253.214844 221.214844 L 253.214844 178.785156 L 210.785156 178.785156 "/>
<path style="fill-rule:nonzero;fill:rgb(55%,51%,53%);fill-opacity:1;stroke-width:1;stroke-linecap:butt;stroke-linejoin:miter;stroke:rgb(0%,0%,0%);stroke-opacity:1;stroke-miterlimit:10;" d="M 356.785156 206.785156 L 356.785156 249.214844 L 399.214844 249.214844 L 399.214844 206.785156 L 356.785156 206.785156 "/>
<path style="fill-rule:nonzero;fill:rgb(55%,51%,53%);fill-opacity:1;stroke-width:1;stroke-linecap:butt;stroke-linejoin:miter;stroke:rgb(0%,0%,0%);stroke-opacity:1;stroke-miterlimit:10;" d="M 179.214844 265 C 179.214844 276.714844 169.714844 286.214844 158 286.214844 C 146.285156 286.214844 136.785156 276.714844 136.785156 265 C 136.785156 253.285156 146.285156 243.785156 158 243.785156 C 169.714844 243.785156 179.214844 253.285156 179.214844 265 "/>
<path style="fill-rule:nonzero;fill:rgb(55%,51%,53%);fill-opacity:1;stroke-width:1;stroke-linecap:butt;stroke-linejoin:miter;stroke:rgb(0%,0%,0%);stroke-opacity:1;stroke-miterlimit:10;" d="M 425.214844 90 C 425.214844 101.714844 415.714844 111.214844 404 111.214844 C 392.285156 111.214844 382.785156 101.714844 382.785156 90 C 382.785156 78.285156 392.285156 68.785156 404 68.785156 C 415.714844 68.785156 425.214844 78.285156 425.214844 90 "/>
<path style="fill-rule:nonzero;fill:rgb(53%,27%,7%);fill-opacity:1;stroke-width:1;stroke-linecap:butt;stroke-linejoin:miter;stroke:rgb(0%,0%,0%);stroke-opacity:1;stroke-miterlimit:10;" d="M 762.785156 270.785156 L 762.785156 313.214844 L 805.214844 313.214844 L 805.214844 270.785156 L 762.785156 270.785156 "/>
<path style="fill-rule:nonzero;fill:rgb(53%,27%,7%);fill-opacity:1;stroke-width:1;stroke-linecap:butt;stroke-linejoin:miter;stroke:rgb(0%,0%,0%);stroke-opacity:1;stroke-miterlimit:10;" d="M 843.214844 101 C 843.214844 112.714844 833.714844 122.214844 822 122.214844 C 810.285156 122.214844 800.785156 112.714844 800.785156 101 C 800.785156 89.285156 810.285156 79.785156 822 79.785156 C 833.714844 79.785156 843.214844 89.285156 843.214844 101 "/>
<path style="fill-rule:nonzero;fill:rgb(53%,27%,7%);fill-opacity:1;stroke-width:1;stroke-linecap:butt;stroke-linejoin:miter;stroke:rgb(0%,0%,0%);stroke-opacity:1;stroke-miterlimit:10;" d="M 967.214844 261 C 967.214844 272.714844 957.714844 282.214844 946 282.214844 C 934.285156 282.214844 924.785156 272.714844 924.785156 261 C 924.785156 249.285156 934.285156 239.785156 946 239.785156 C 957.714844 239.785156 967.214844 249.285156 967.214844 261 "/>
<path style="fill-rule:nonzero;fill:rgb(53%,27%,7%);fill-opacity:1;stroke-width:1;stroke-linecap:butt;stroke-linejoin:miter;stroke:rgb(0%,0%,0%);stroke-opacity:1;stroke-miterlimit:10;" d="M 969.785156 340.785156 L 969.785156 383.214844 L 1012.214844 383.214844 L 1012.214844 340.785156 L 969.785156 340.785156 "/>
</g>
</svg>
