<?xml version="1.0" encoding="UTF-8"?>
<svg xmlns="http://www.w3.org/2000/svg" xmlns:xlink="http://www.w3.org/1999/xlink" width="1179pt" height="517pt" viewBox="0 0 1179 517" version="1.1">
<g id="surface511">
<rect x="0" y="0" width="1179" height="517" style="fill:rgb(90%,90%,90%);fill-opacity:1;stroke:none;"/>
<path style="fill-rule:nonzero;fill:rgb(53%,27%,7%);fill-opacity:1;stroke-width:1;stroke-linecap:butt;stroke-linejoin:miter;stroke:rgb(0%,0%,0%);stroke-opacity:1;stroke-miterlimit:10;" d="M 372.214844 423 C 372.214844 434.714844 362.714844 444.214844 351 444.214844 C 339.285156 444.214844 329.785156 434.714844 329.785156 423 C 329.785156 411.285156 339.285156 401.785156 351 401.785156 C 362.714844 401.785156 372.214844 411.285156 372.214844 423 "/>
<path style="fill-rule:nonzero;fill:rgb(55%,51%,53%);fill-opacity:1;stroke-width:1;stroke-linecap:butt;stroke-linejoin:miter;stroke:rgb(0%,0%,0%);stroke-opacity:1;stroke-miterlimit:10;" d="M 85 298 L 114.664062 298 L 126.664062 269.785156 L 138.664062 298 L 168.332031 298 L 144.332031 315.4375 L 152.417969 346.980469 L 126.664062 329.542969 L 100.914062 346.980469 L 113.214844 315.4375 L 85 298 "/>
<path style="fill-rule:nonzero;fill:rgb(55%,51%,53%);fill-opacity:1;stroke-width:1;stroke-linecap:butt;stroke-linejoin:miter;stroke:rgb(0%,0%,0%);stroke-opacity:1;stroke-miterlimit:10;" d="M 234 387 L 263.664062 387 L 275.664062 358.785156 L 287.664062 387 L 317.332031 387 L 293.332031 404.4375 L 301.417969 435.980469 L 275.664062 418.542969 L 249.914062 435.980469 L 262.214844 404.4375 L 234 387 "/>
<path style="fill-rule:nonzero;fill:rgb(53%,27%,7%);fill-opacity:1;stroke-width:1;stroke-linecap:butt;stroke-linejoin:miter;stroke:rgb(0%,0%,0%);stroke-opacity:1;stroke-miterlimit:10;" d="M 163.214844 112 C 163.214844 123.714844 153.714844 133.214844 142 133.214844 C 130.285156 133.214844 120.785156 123.714844 120.785156 112 C 120.785156 100.285156 130.285156 90.785156 142 90.785156 C 153.714844 90.785156 163.214844 100.285156 163.214844 112 "/>
<path style="fill-rule:nonzero;fill:rgb(55%,51%,53%);fill-opacity:1;stroke-width:1;stroke-linecap:butt;stroke-linejoin:miter;stroke:rgb(0%,0%,0%);stroke-opacity:1;stroke-miterlimit:10;" d="M 228 154 L 257.664062 154 L 269.664062 125.785156 L 281.664062 154 L 311.332031 154 L 287.332031 171.4375 L 295.417969 202.980469 L 269.664062 185.542969 L 243.914062 202.980469 L 256.214844 171.4375 L 228 154 "/>
<path style="fill-rule:nonzero;fill:rgb(53%,27%,7%);fill-opacity:1;stroke-width:1;stroke-linecap:butt;stroke-linejoin:miter;stroke:rgb(0%,0%,0%);stroke-opacity:1;stroke-miterlimit:10;" d="M 363.214844 153 C 363.214844 164.714844 353.714844 174.214844 342 174.214844 C 330.285156 174.214844 320.785156 164.714844 320.785156 153 C 320.785156 141.285156 330.285156 131.785156 342 131.785156 C 353.714844 131.785156 363.214844 141.285156 363.214844 153 "/>
<path style="fill-rule:nonzero;fill:rgb(53%,27%,7%);fill-opacity:1;stroke-width:1;stroke-linecap:butt;stroke-linejoin:miter;stroke:rgb(0%,0%,0%);stroke-opacity:1;stroke-miterlimit:10;" d="M 874.214844 239 C 874.214844 250.714844 864.714844 260.214844 853 260.214844 C 841.285156 260.214844 831.785156 250.714844 831.785156 239 C 831.785156 227.285156 841.285156 217.785156 853 217.785156 C 864.714844 217.785156 874.214844 227.285156 874.214844 239 "/>
<path style="fill-rule:nonzero;fill:rgb(55%,51%,53%);fill-opacity:1;stroke-width:1;stroke-linecap:butt;stroke-linejoin:miter;stroke:rgb(0%,0%,0%);stroke-opacity:1;stroke-miterlimit:10;" d="M 1019 143 L 1048.664062 143 L 1060.664062 114.785156 L 1072.664062 143 L 1102.332031 143 L 1078.332031 160.4375 L 1086.417969 191.980469 L 1060.664062 174.542969 L 1034.914062 191.980469 L 1047.214844 160.4375 L 1019 143 "/>
<path style="fill-rule:nonzero;fill:rgb(53%,27%,7%);fill-opacity:1;stroke-width:1;stroke-linecap:butt;stroke-linejoin:miter;stroke:rgb(0%,0%,0%);stroke-opacity:1;stroke-miterlimit:10;" d="M 982.214844 263 C 982.214844 274.714844 972.714844 284.214844 961 284.214844 C 949.285156 284.214844 939.785156 274.714844 939.785156 263 C 939.785156 251.285156 949.285156 241.785156 961 241.785156 C 972.714844 241.785156 982.214844 251.285156 982.214844 263 "/>
<path style="fill-rule:nonzero;fill:rgb(55%,51%,53%);fill-opacity:1;stroke-width:1;stroke-linecap:butt;stroke-linejoin:miter;stroke:rgb(0%,0%,0%);stroke-opacity:1;stroke-miterlimit:10;" d="M 1010 376 L 1039.664062 376 L 1051.664062 347.785156 L 1063.664062 376 L 1093.332031 376 L 1069.332031 393.4375 L 1077.417969 424.980469 L 1051.664062 407.542969 L 1025.914062 424.980469 L 1038.214844 393.4375 L 1010 376 "/>
</g>
</svg>
