<?xml version="1.0" encoding="UTF-8"?>
<svg xmlns="http://www.w3.org/2000/svg" xmlns:xlink="http://www.w3.org/1999/xlink" width="1129pt" height="517pt" viewBox="0 0 1129 517" version="1.1">
<g id="surface861">
<rect x="0" y="0" width="1129" height="517" style="fill:rgb(90%,90%,90%);fill-opacity:1;stroke:none;"/>
<path style="fill-rule:nonzero;fill:rgb(55%,51%,53%);fill-opacity:1;stroke-width:1;stroke-linecap:butt;stroke-linejoin:miter;stroke:rgb(0%,0%,0%);stroke-opacity:1;stroke-miterlimit:10;" d="M 857 215 L 831.019531 260 L 882.980469 260 L 857 215 "/>
<path style="fill-rule:nonzero;fill:rgb(55%,51%,53%);fill-opacity:1;stroke-width:1;stroke-linecap:butt;stroke-linejoin:miter;stroke:rgb(0%,0%,0%);stroke-opacity:1;stroke-miterlimit:10;" d="M 496 244 L 470.019531 289 L 521.980469 289 L 496 244 "/>
<path style="fill-rule:nonzero;fill:rgb(55%,51%,53%);fill-opacity:1;stroke-width:1;stroke-linecap:butt;stroke-linejoin:miter;stroke:rgb(0%,0%,0%);stroke-opacity:1;stroke-miterlimit:10;" d="M 574 394 L 548.019531 439 L 599.980469 439 L 574 394 "/>
<path style="fill-rule:nonzero;fill:rgb(55%,51%,53%);fill-opacity:1;stroke-width:1;stroke-linecap:butt;stroke-linejoin:miter;stroke:rgb(0%,0%,0%);stroke-opacity:1;stroke-miterlimit:10;" d="M 647 142 L 621.019531 187 L 672.980469 187 L 647 142 "/>
<path style="fill-rule:nonzero;fill:rgb(55%,51%,53%);fill-opacity:1;stroke-width:1;stroke-linecap:butt;stroke-linejoin:miter;stroke:rgb(0%,0%,0%);stroke-opacity:1;stroke-miterlimit:10;" d="M 245 29 L 219.019531 74 L 270.980469 74 L 245 29 "/>
<path style="fill-rule:nonzero;fill:rgb(55%,51%,53%);fill-opacity:1;stroke-width:1;stroke-linecap:butt;stroke-linejoin:miter;stroke:rgb(0%,0%,0%);stroke-opacity:1;stroke-miterlimit:10;" d="M 436 362 L 410.019531 407 L 461.980469 407 L 436 362 "/>
<path style="fill-rule:nonzero;fill:rgb(55%,51%,53%);fill-opacity:1;stroke-width:1;stroke-linecap:butt;stroke-linejoin:miter;stroke:rgb(0%,0%,0%);stroke-opacity:1;stroke-miterlimit:10;" d="M 221 404 L 195.019531 449 L 246.980469 449 L 221 404 "/>
<path style="fill-rule:nonzero;fill:rgb(55%,51%,53%);fill-opacity:1;stroke-width:1;stroke-linecap:butt;stroke-linejoin:miter;stroke:rgb(0%,0%,0%);stroke-opacity:1;stroke-miterlimit:10;" d="M 867 406 L 841.019531 451 L 892.980469 451 L 867 406 "/>
<path style="fill-rule:nonzero;fill:rgb(55%,51%,53%);fill-opacity:1;stroke-width:1;stroke-linecap:butt;stroke-linejoin:miter;stroke:rgb(0%,0%,0%);stroke-opacity:1;stroke-miterlimit:10;" d="M 186 165 L 215.664062 165 L 227.664062 136.785156 L 239.664062 165 L 269.332031 165 L 245.332031 182.4375 L 253.417969 213.980469 L 227.664062 196.542969 L 201.914062 213.980469 L 214.214844 182.4375 L 186 165 "/>
<path style="fill-rule:nonzero;fill:rgb(55%,51%,53%);fill-opacity:1;stroke-width:1;stroke-linecap:butt;stroke-linejoin:miter;stroke:rgb(0%,0%,0%);stroke-opacity:1;stroke-miterlimit:10;" d="M 466 83 L 495.664062 83 L 507.664062 54.785156 L 519.664062 83 L 549.332031 83 L 525.332031 100.4375 L 533.417969 131.980469 L 507.664062 114.542969 L 481.914062 131.980469 L 494.214844 100.4375 L 466 83 "/>
<path style="fill-rule:nonzero;fill:rgb(55%,51%,53%);fill-opacity:1;stroke-width:1;stroke-linecap:butt;stroke-linejoin:miter;stroke:rgb(0%,0%,0%);stroke-opacity:1;stroke-miterlimit:10;" d="M 871 127 L 900.664062 127 L 912.664062 98.785156 L 924.664062 127 L 954.332031 127 L 930.332031 144.4375 L 938.417969 175.980469 L 912.664062 158.542969 L 886.914062 175.980469 L 899.214844 144.4375 L 871 127 "/>
<path style="fill-rule:nonzero;fill:rgb(55%,51%,53%);fill-opacity:1;stroke-width:1;stroke-linecap:butt;stroke-linejoin:miter;stroke:rgb(0%,0%,0%);stroke-opacity:1;stroke-miterlimit:10;" d="M 147 367 L 176.664062 367 L 188.664062 338.785156 L 200.664062 367 L 230.332031 367 L 206.332031 384.4375 L 214.417969 415.980469 L 188.664062 398.542969 L 162.914062 415.980469 L 175.214844 384.4375 L 147 367 "/>
<path style="fill-rule:nonzero;fill:rgb(55%,51%,53%);fill-opacity:1;stroke-width:1;stroke-linecap:butt;stroke-linejoin:miter;stroke:rgb(0%,0%,0%);stroke-opacity:1;stroke-miterlimit:10;" d="M 401 192 L 430.664062 192 L 442.664062 163.785156 L 454.664062 192 L 484.332031 192 L 460.332031 209.4375 L 468.417969 240.980469 L 442.664062 223.542969 L 416.914062 240.980469 L 429.214844 209.4375 L 401 192 "/>
<path style="fill-rule:nonzero;fill:rgb(55%,51%,53%);fill-opacity:1;stroke-width:1;stroke-linecap:butt;stroke-linejoin:miter;stroke:rgb(0%,0%,0%);stroke-opacity:1;stroke-miterlimit:10;" d="M 312 359 L 341.664062 359 L 353.664062 330.785156 L 365.664062 359 L 395.332031 359 L 371.332031 376.4375 L 379.417969 407.980469 L 353.664062 390.542969 L 327.914062 407.980469 L 340.214844 376.4375 L 312 359 "/>
<path style="fill-rule:nonzero;fill:rgb(55%,51%,53%);fill-opacity:1;stroke-width:1;stroke-linecap:butt;stroke-linejoin:miter;stroke:rgb(0%,0%,0%);stroke-opacity:1;stroke-miterlimit:10;" d="M 87 270 L 116.664062 270 L 128.664062 241.785156 L 140.664062 270 L 170.332031 270 L 146.332031 287.4375 L 154.417969 318.980469 L 128.664062 301.542969 L 102.914062 318.980469 L 115.214844 287.4375 L 87 270 "/>
</g>
</svg>
