<?xml version="1.0" encoding="UTF-8"?>
<svg xmlns="http://www.w3.org/2000/svg" xmlns:xlink="http://www.w3.org/1999/xlink" width="1129pt" height="517pt" viewBox="0 0 1129 517" version="1.1">
<g id="surface491">
<rect x="0" y="0" width="1129" height="517" style="fill:rgb(90%,90%,90%);fill-opacity:1;stroke:none;"/>
<path style="fill-rule:nonzero;fill:rgb(100%,51%,0%);fill-opacity:1;stroke-width:1;stroke-linecap:butt;stroke-linejoin:miter;stroke:rgb(0%,0%,0%);stroke-opacity:1;stroke-miterlimit:10;" d="M 106 433 L 135.664062 433 L 147.664062 404.785156 L 159.664062 433 L 189.332031 433 L 165.332031 450.4375 L 173.417969 481.980469 L 147.664062 464.542969 L 121.914062 481.980469 L 134.214844 450.4375 L 106 433 "/>
<path style="fill-rule:nonzero;fill:rgb(100%,51%,0%);fill-opacity:1;stroke-width:1;stroke-linecap:butt;stroke-linejoin:miter;stroke:rgb(0%,0%,0%);stroke-opacity:1;stroke-miterlimit:10;" d="M 297.785156 298.785156 L 297.785156 341.214844 L 340.214844 341.214844 L 340.214844 298.785156 L 297.785156 298.785156 "/>
<path style="fill-rule:nonzero;fill:rgb(100%,51%,0%);fill-opacity:1;stroke-width:1;stroke-linecap:butt;stroke-linejoin:miter;stroke:rgb(0%,0%,0%);stroke-opacity:1;stroke-miterlimit:10;" d="M 402.785156 334.785156 L 402.785156 377.214844 L 445.214844 377.214844 L 445.214844 334.785156 L 402.785156 334.785156 "/>
<path style="fill-rule:nonzero;fill:rgb(100%,51%,0%);fill-opacity:1;stroke-width:1;stroke-linecap:butt;stroke-linejoin:miter;stroke:rgb(0%,0%,0%);stroke-opacity:1;stroke-miterlimit:10;" d="M 245 104 L 274.664062 104 L 286.664062 75.785156 L 298.664062 104 L 328.332031 104 L 304.332031 121.4375 L 312.417969 152.980469 L 286.664062 135.542969 L 260.914062 152.980469 L 273.214844 121.4375 L 245 104 "/>
<path style="fill-rule:nonzero;fill:rgb(55%,51%,53%);fill-opacity:1;stroke-width:1;stroke-linecap:butt;stroke-linejoin:miter;stroke:rgb(0%,0%,0%);stroke-opacity:1;stroke-miterlimit:10;" d="M 603.785156 66.785156 L 603.785156 109.214844 L 646.214844 109.214844 L 646.214844 66.785156 L 603.785156 66.785156 "/>
<path style="fill-rule:nonzero;fill:rgb(55%,51%,53%);fill-opacity:1;stroke-width:1;stroke-linecap:butt;stroke-linejoin:miter;stroke:rgb(0%,0%,0%);stroke-opacity:1;stroke-miterlimit:10;" d="M 729 185 L 758.664062 185 L 770.664062 156.785156 L 782.664062 185 L 812.332031 185 L 788.332031 202.4375 L 796.417969 233.980469 L 770.664062 216.542969 L 744.914062 233.980469 L 757.214844 202.4375 L 729 185 "/>
<path style="fill-rule:nonzero;fill:rgb(55%,51%,53%);fill-opacity:1;stroke-width:1;stroke-linecap:butt;stroke-linejoin:miter;stroke:rgb(0%,0%,0%);stroke-opacity:1;stroke-miterlimit:10;" d="M 637 300 L 666.664062 300 L 678.664062 271.785156 L 690.664062 300 L 720.332031 300 L 696.332031 317.4375 L 704.417969 348.980469 L 678.664062 331.542969 L 652.914062 348.980469 L 665.214844 317.4375 L 637 300 "/>
<path style="fill-rule:nonzero;fill:rgb(55%,51%,53%);fill-opacity:1;stroke-width:1;stroke-linecap:butt;stroke-linejoin:miter;stroke:rgb(0%,0%,0%);stroke-opacity:1;stroke-miterlimit:10;" d="M 839.785156 135.785156 L 839.785156 178.214844 L 882.214844 178.214844 L 882.214844 135.785156 L 839.785156 135.785156 "/>
<path style="fill-rule:nonzero;fill:rgb(55%,51%,53%);fill-opacity:1;stroke-width:1;stroke-linecap:butt;stroke-linejoin:miter;stroke:rgb(0%,0%,0%);stroke-opacity:1;stroke-miterlimit:10;" d="M 947.785156 200.785156 L 947.785156 243.214844 L 990.214844 243.214844 L 990.214844 200.785156 L 947.785156 200.785156 "/>
<path style="fill-rule:nonzero;fill:rgb(55%,51%,53%);fill-opacity:1;stroke-width:1;stroke-linecap:butt;stroke-linejoin:miter;stroke:rgb(0%,0%,0%);stroke-opacity:1;stroke-miterlimit:10;" d="M 671.785156 389.785156 L 671.785156 432.214844 L 714.214844 432.214844 L 714.214844 389.785156 L 671.785156 389.785156 "/>
</g>
</svg>
