<?xml version="1.0" encoding="UTF-8"?>
<svg xmlns="http://www.w3.org/2000/svg" xmlns:xlink="http://www.w3.org/1999/xlink" width="1179pt" height="517pt" viewBox="0 0 1179 517" version="1.1">
<g id="surface771">
<rect x="0" y="0" width="1179" height="517" style="fill:rgb(90%,90%,90%);fill-opacity:1;stroke:none;"/>
<path style="fill-rule:nonzero;fill:rgb(55%,51%,53%);fill-opacity:1;stroke-width:1;stroke-linecap:butt;stroke-linejoin:miter;stroke:rgb(0%,0%,0%);stroke-opacity:1;stroke-miterlimit:10;" d="M 80 212 L 54.019531 257 L 105.980469 257 L 80 212 "/>
<path style="fill-rule:nonzero;fill:rgb(55%,51%,53%);fill-opacity:1;stroke-width:1;stroke-linecap:butt;stroke-linejoin:miter;stroke:rgb(0%,0%,0%);stroke-opacity:1;stroke-miterlimit:10;" d="M 129 318 L 158.664062 318 L 170.664062 289.785156 L 182.664062 318 L 212.332031 318 L 188.332031 335.4375 L 196.417969 366.980469 L 170.664062 349.542969 L 144.914062 366.980469 L 157.214844 335.4375 L 129 318 "/>
<path style="fill-rule:nonzero;fill:rgb(55%,51%,53%);fill-opacity:1;stroke-width:1;stroke-linecap:butt;stroke-linejoin:miter;stroke:rgb(0%,0%,0%);stroke-opacity:1;stroke-miterlimit:10;" d="M 90 144 L 119.664062 144 L 131.664062 115.785156 L 143.664062 144 L 173.332031 144 L 149.332031 161.4375 L 157.417969 192.980469 L 131.664062 175.542969 L 105.914062 192.980469 L 118.214844 161.4375 L 90 144 "/>
<path style="fill-rule:nonzero;fill:rgb(55%,51%,53%);fill-opacity:1;stroke-width:1;stroke-linecap:butt;stroke-linejoin:miter;stroke:rgb(0%,0%,0%);stroke-opacity:1;stroke-miterlimit:10;" d="M 240 310 L 269.664062 310 L 281.664062 281.785156 L 293.664062 310 L 323.332031 310 L 299.332031 327.4375 L 307.417969 358.980469 L 281.664062 341.542969 L 255.914062 358.980469 L 268.214844 327.4375 L 240 310 "/>
<path style="fill-rule:nonzero;fill:rgb(55%,51%,53%);fill-opacity:1;stroke-width:1;stroke-linecap:butt;stroke-linejoin:miter;stroke:rgb(0%,0%,0%);stroke-opacity:1;stroke-miterlimit:10;" d="M 235 189 L 209.019531 234 L 260.980469 234 L 235 189 "/>
<path style="fill-rule:nonzero;fill:rgb(55%,51%,53%);fill-opacity:1;stroke-width:1;stroke-linecap:butt;stroke-linejoin:miter;stroke:rgb(0%,0%,0%);stroke-opacity:1;stroke-miterlimit:10;" d="M 328 354 L 302.019531 399 L 353.980469 399 L 328 354 "/>
<path style="fill-rule:nonzero;fill:rgb(55%,51%,53%);fill-opacity:1;stroke-width:1;stroke-linecap:butt;stroke-linejoin:miter;stroke:rgb(0%,0%,0%);stroke-opacity:1;stroke-miterlimit:10;" d="M 402 158 L 431.664062 158 L 443.664062 129.785156 L 455.664062 158 L 485.332031 158 L 461.332031 175.4375 L 469.417969 206.980469 L 443.664062 189.542969 L 417.914062 206.980469 L 430.214844 175.4375 L 402 158 "/>
<path style="fill-rule:nonzero;fill:rgb(55%,51%,53%);fill-opacity:1;stroke-width:1;stroke-linecap:butt;stroke-linejoin:miter;stroke:rgb(0%,0%,0%);stroke-opacity:1;stroke-miterlimit:10;" d="M 424 277 L 398.019531 322 L 449.980469 322 L 424 277 "/>
<path style="fill-rule:nonzero;fill:rgb(55%,51%,53%);fill-opacity:1;stroke-width:1;stroke-linecap:butt;stroke-linejoin:miter;stroke:rgb(0%,0%,0%);stroke-opacity:1;stroke-miterlimit:10;" d="M 918 323 L 892.019531 368 L 943.980469 368 L 918 323 "/>
<path style="fill-rule:nonzero;fill:rgb(55%,51%,53%);fill-opacity:1;stroke-width:1;stroke-linecap:butt;stroke-linejoin:miter;stroke:rgb(0%,0%,0%);stroke-opacity:1;stroke-miterlimit:10;" d="M 849 110 L 878.664062 110 L 890.664062 81.785156 L 902.664062 110 L 932.332031 110 L 908.332031 127.4375 L 916.417969 158.980469 L 890.664062 141.542969 L 864.914062 158.980469 L 877.214844 127.4375 L 849 110 "/>
<path style="fill-rule:nonzero;fill:rgb(55%,51%,53%);fill-opacity:1;stroke-width:1;stroke-linecap:butt;stroke-linejoin:miter;stroke:rgb(0%,0%,0%);stroke-opacity:1;stroke-miterlimit:10;" d="M 749 299 L 778.664062 299 L 790.664062 270.785156 L 802.664062 299 L 832.332031 299 L 808.332031 316.4375 L 816.417969 347.980469 L 790.664062 330.542969 L 764.914062 347.980469 L 777.214844 316.4375 L 749 299 "/>
<path style="fill-rule:nonzero;fill:rgb(55%,51%,53%);fill-opacity:1;stroke-width:1;stroke-linecap:butt;stroke-linejoin:miter;stroke:rgb(0%,0%,0%);stroke-opacity:1;stroke-miterlimit:10;" d="M 953 227 L 982.664062 227 L 994.664062 198.785156 L 1006.664062 227 L 1036.332031 227 L 1012.332031 244.4375 L 1020.417969 275.980469 L 994.664062 258.542969 L 968.914062 275.980469 L 981.214844 244.4375 L 953 227 "/>
<path style="fill-rule:nonzero;fill:rgb(55%,51%,53%);fill-opacity:1;stroke-width:1;stroke-linecap:butt;stroke-linejoin:miter;stroke:rgb(0%,0%,0%);stroke-opacity:1;stroke-miterlimit:10;" d="M 1017 51 L 991.019531 96 L 1042.980469 96 L 1017 51 "/>
<path style="fill-rule:nonzero;fill:rgb(55%,51%,53%);fill-opacity:1;stroke-width:1;stroke-linecap:butt;stroke-linejoin:miter;stroke:rgb(0%,0%,0%);stroke-opacity:1;stroke-miterlimit:10;" d="M 735 93 L 709.019531 138 L 760.980469 138 L 735 93 "/>
<path style="fill-rule:nonzero;fill:rgb(55%,51%,53%);fill-opacity:1;stroke-width:1;stroke-linecap:butt;stroke-linejoin:miter;stroke:rgb(0%,0%,0%);stroke-opacity:1;stroke-miterlimit:10;" d="M 1023 270 L 997.019531 315 L 1048.980469 315 L 1023 270 "/>
</g>
</svg>
