<?xml version="1.0" encoding="UTF-8"?>
<svg xmlns="http://www.w3.org/2000/svg" xmlns:xlink="http://www.w3.org/1999/xlink" width="1129pt" height="517pt" viewBox="0 0 1129 517" version="1.1">
<g id="surface971">
<rect x="0" y="0" width="1129" height="517" style="fill:rgb(90%,90%,90%);fill-opacity:1;stroke:none;"/>
<path style="fill-rule:nonzero;fill:rgb(35%,70%,90%);fill-opacity:1;stroke-width:1;stroke-linecap:butt;stroke-linejoin:miter;stroke:rgb(0%,0%,0%);stroke-opacity:1;stroke-miterlimit:10;" d="M 428.214844 308 C 428.214844 319.714844 418.714844 329.214844 407 329.214844 C 395.285156 329.214844 385.785156 319.714844 385.785156 308 C 385.785156 296.285156 395.285156 286.785156 407 286.785156 C 418.714844 286.785156 428.214844 296.285156 428.214844 308 "/>
<path style="fill-rule:nonzero;fill:rgb(35%,70%,90%);fill-opacity:1;stroke-width:1;stroke-linecap:butt;stroke-linejoin:miter;stroke:rgb(0%,0%,0%);stroke-opacity:1;stroke-miterlimit:10;" d="M 749.214844 441 C 749.214844 452.714844 739.714844 462.214844 728 462.214844 C 716.285156 462.214844 706.785156 452.714844 706.785156 441 C 706.785156 429.285156 716.285156 419.785156 728 419.785156 C 739.714844 419.785156 749.214844 429.285156 749.214844 441 "/>
<path style="fill-rule:nonzero;fill:rgb(35%,70%,90%);fill-opacity:1;stroke-width:1;stroke-linecap:butt;stroke-linejoin:miter;stroke:rgb(0%,0%,0%);stroke-opacity:1;stroke-miterlimit:10;" d="M 186.214844 297 C 186.214844 308.714844 176.714844 318.214844 165 318.214844 C 153.285156 318.214844 143.785156 308.714844 143.785156 297 C 143.785156 285.285156 153.285156 275.785156 165 275.785156 C 176.714844 275.785156 186.214844 285.285156 186.214844 297 "/>
<path style="fill-rule:nonzero;fill:rgb(35%,70%,90%);fill-opacity:1;stroke-width:1;stroke-linecap:butt;stroke-linejoin:miter;stroke:rgb(0%,0%,0%);stroke-opacity:1;stroke-miterlimit:10;" d="M 686.214844 281 C 686.214844 292.714844 676.714844 302.214844 665 302.214844 C 653.285156 302.214844 643.785156 292.714844 643.785156 281 C 643.785156 269.285156 653.285156 259.785156 665 259.785156 C 676.714844 259.785156 686.214844 269.285156 686.214844 281 "/>
<path style="fill-rule:nonzero;fill:rgb(35%,70%,90%);fill-opacity:1;stroke-width:1;stroke-linecap:butt;stroke-linejoin:miter;stroke:rgb(0%,0%,0%);stroke-opacity:1;stroke-miterlimit:10;" d="M 242.214844 88 C 242.214844 99.714844 232.714844 109.214844 221 109.214844 C 209.285156 109.214844 199.785156 99.714844 199.785156 88 C 199.785156 76.285156 209.285156 66.785156 221 66.785156 C 232.714844 66.785156 242.214844 76.285156 242.214844 88 "/>
<path style="fill-rule:nonzero;fill:rgb(35%,70%,90%);fill-opacity:1;stroke-width:1;stroke-linecap:butt;stroke-linejoin:miter;stroke:rgb(0%,0%,0%);stroke-opacity:1;stroke-miterlimit:10;" d="M 776.214844 180 C 776.214844 191.714844 766.714844 201.214844 755 201.214844 C 743.285156 201.214844 733.785156 191.714844 733.785156 180 C 733.785156 168.285156 743.285156 158.785156 755 158.785156 C 766.714844 158.785156 776.214844 168.285156 776.214844 180 "/>
<path style="fill-rule:nonzero;fill:rgb(35%,70%,90%);fill-opacity:1;stroke-width:1;stroke-linecap:butt;stroke-linejoin:miter;stroke:rgb(0%,0%,0%);stroke-opacity:1;stroke-miterlimit:10;" d="M 298 370 L 327.664062 370 L 339.664062 341.785156 L 351.664062 370 L 381.332031 370 L 357.332031 387.4375 L 365.417969 418.980469 L 339.664062 401.542969 L 313.914062 418.980469 L 326.214844 387.4375 L 298 370 "/>
<path style="fill-rule:nonzero;fill:rgb(35%,70%,90%);fill-opacity:1;stroke-width:1;stroke-linecap:butt;stroke-linejoin:miter;stroke:rgb(0%,0%,0%);stroke-opacity:1;stroke-miterlimit:10;" d="M 505 262 L 534.664062 262 L 546.664062 233.785156 L 558.664062 262 L 588.332031 262 L 564.332031 279.4375 L 572.417969 310.980469 L 546.664062 293.542969 L 520.914062 310.980469 L 533.214844 279.4375 L 505 262 "/>
<path style="fill-rule:nonzero;fill:rgb(35%,70%,90%);fill-opacity:1;stroke-width:1;stroke-linecap:butt;stroke-linejoin:miter;stroke:rgb(0%,0%,0%);stroke-opacity:1;stroke-miterlimit:10;" d="M 884 379 L 913.664062 379 L 925.664062 350.785156 L 937.664062 379 L 967.332031 379 L 943.332031 396.4375 L 951.417969 427.980469 L 925.664062 410.542969 L 899.914062 427.980469 L 912.214844 396.4375 L 884 379 "/>
<path style="fill-rule:nonzero;fill:rgb(35%,70%,90%);fill-opacity:1;stroke-width:1;stroke-linecap:butt;stroke-linejoin:miter;stroke:rgb(0%,0%,0%);stroke-opacity:1;stroke-miterlimit:10;" d="M 295 224 L 324.664062 224 L 336.664062 195.785156 L 348.664062 224 L 378.332031 224 L 354.332031 241.4375 L 362.417969 272.980469 L 336.664062 255.542969 L 310.914062 272.980469 L 323.214844 241.4375 L 295 224 "/>
<path style="fill-rule:nonzero;fill:rgb(35%,70%,90%);fill-opacity:1;stroke-width:1;stroke-linecap:butt;stroke-linejoin:miter;stroke:rgb(0%,0%,0%);stroke-opacity:1;stroke-miterlimit:10;" d="M 425 195 L 454.664062 195 L 466.664062 166.785156 L 478.664062 195 L 508.332031 195 L 484.332031 212.4375 L 492.417969 243.980469 L 466.664062 226.542969 L 440.914062 243.980469 L 453.214844 212.4375 L 425 195 "/>
</g>
</svg>
