<?xml version="1.0" encoding="UTF-8"?>
<svg xmlns="http://www.w3.org/2000/svg" xmlns:xlink="http://www.w3.org/1999/xlink" width="1129pt" height="517pt" viewBox="0 0 1129 517" version="1.1">
<g id="surface371">
<rect x="0" y="0" width="1129" height="517" style="fill:rgb(90%,90%,90%);fill-opacity:1;stroke:none;"/>
<path style="fill-rule:nonzero;fill:rgb(35%,70%,90%);fill-opacity:1;stroke-width:1;stroke-linecap:butt;stroke-linejoin:miter;stroke:rgb(0%,0%,0%);stroke-opacity:1;stroke-miterlimit:10;" d="M 254 277 L 283.664062 277 L 295.664062 248.785156 L 307.664062 277 L 337.332031 277 L 313.332031 294.4375 L 321.417969 325.980469 L 295.664062 308.542969 L 269.914062 325.980469 L 282.214844 294.4375 L 254 277 "/>
<path style="fill-rule:nonzero;fill:rgb(35%,70%,90%);fill-opacity:1;stroke-width:1;stroke-linecap:butt;stroke-linejoin:miter;stroke:rgb(0%,0%,0%);stroke-opacity:1;stroke-miterlimit:10;" d="M 327.785156 82.785156 L 327.785156 125.214844 L 370.214844 125.214844 L 370.214844 82.785156 L 327.785156 82.785156 "/>
<path style="fill-rule:nonzero;fill:rgb(35%,70%,90%);fill-opacity:1;stroke-width:1;stroke-linecap:butt;stroke-linejoin:miter;stroke:rgb(0%,0%,0%);stroke-opacity:1;stroke-miterlimit:10;" d="M 311 461 L 340.664062 461 L 352.664062 432.785156 L 364.664062 461 L 394.332031 461 L 370.332031 478.4375 L 378.417969 509.980469 L 352.664062 492.542969 L 326.914062 509.980469 L 339.214844 478.4375 L 311 461 "/>
<path style="fill-rule:nonzero;fill:rgb(35%,70%,90%);fill-opacity:1;stroke-width:1;stroke-linecap:butt;stroke-linejoin:miter;stroke:rgb(0%,0%,0%);stroke-opacity:1;stroke-miterlimit:10;" d="M 334.785156 208.785156 L 334.785156 251.214844 L 377.214844 251.214844 L 377.214844 208.785156 L 334.785156 208.785156 "/>
<path style="fill-rule:nonzero;fill:rgb(100%,51%,0%);fill-opacity:1;stroke-width:1;stroke-linecap:butt;stroke-linejoin:miter;stroke:rgb(0%,0%,0%);stroke-opacity:1;stroke-miterlimit:10;" d="M 672.785156 319.785156 L 672.785156 362.214844 L 715.214844 362.214844 L 715.214844 319.785156 L 672.785156 319.785156 "/>
<path style="fill-rule:nonzero;fill:rgb(100%,51%,0%);fill-opacity:1;stroke-width:1;stroke-linecap:butt;stroke-linejoin:miter;stroke:rgb(0%,0%,0%);stroke-opacity:1;stroke-miterlimit:10;" d="M 773 398 L 802.664062 398 L 814.664062 369.785156 L 826.664062 398 L 856.332031 398 L 832.332031 415.4375 L 840.417969 446.980469 L 814.664062 429.542969 L 788.914062 446.980469 L 801.214844 415.4375 L 773 398 "/>
<path style="fill-rule:nonzero;fill:rgb(100%,51%,0%);fill-opacity:1;stroke-width:1;stroke-linecap:butt;stroke-linejoin:miter;stroke:rgb(0%,0%,0%);stroke-opacity:1;stroke-miterlimit:10;" d="M 966.785156 137.785156 L 966.785156 180.214844 L 1009.214844 180.214844 L 1009.214844 137.785156 L 966.785156 137.785156 "/>
<path style="fill-rule:nonzero;fill:rgb(100%,51%,0%);fill-opacity:1;stroke-width:1;stroke-linecap:butt;stroke-linejoin:miter;stroke:rgb(0%,0%,0%);stroke-opacity:1;stroke-miterlimit:10;" d="M 1022 350 L 1051.664062 350 L 1063.664062 321.785156 L 1075.664062 350 L 1105.332031 350 L 1081.332031 367.4375 L 1089.417969 398.980469 L 1063.664062 381.542969 L 1037.914062 398.980469 L 1050.214844 367.4375 L 1022 350 "/>
</g>
</svg>
