<?xml version="1.0" encoding="UTF-8"?>
<svg xmlns="http://www.w3.org/2000/svg" xmlns:xlink="http://www.w3.org/1999/xlink" width="1179pt" height="517pt" viewBox="0 0 1179 517" version="1.1">
<g id="surface271">
<rect x="0" y="0" width="1179" height="517" style="fill:rgb(90%,90%,90%);fill-opacity:1;stroke:none;"/>
<path style="fill-rule:nonzero;fill:rgb(53%,27%,7%);fill-opacity:1;stroke-width:1;stroke-linecap:butt;stroke-linejoin:miter;stroke:rgb(0%,0%,0%);stroke-opacity:1;stroke-miterlimit:10;" d="M 303.214844 234 C 303.214844 245.714844 293.714844 255.214844 282 255.214844 C 270.285156 255.214844 260.785156 245.714844 260.785156 234 C 260.785156 222.285156 270.285156 212.785156 282 212.785156 C 293.714844 212.785156 303.214844 222.285156 303.214844 234 "/>
<path style="fill-rule:nonzero;fill:rgb(53%,27%,7%);fill-opacity:1;stroke-width:1;stroke-linecap:butt;stroke-linejoin:miter;stroke:rgb(0%,0%,0%);stroke-opacity:1;stroke-miterlimit:10;" d="M 416.214844 388 C 416.214844 399.714844 406.714844 409.214844 395 409.214844 C 383.285156 409.214844 373.785156 399.714844 373.785156 388 C 373.785156 376.285156 383.285156 366.785156 395 366.785156 C 406.714844 366.785156 416.214844 376.285156 416.214844 388 "/>
<path style="fill-rule:nonzero;fill:rgb(100%,51%,0%);fill-opacity:1;stroke-width:1;stroke-linecap:butt;stroke-linejoin:miter;stroke:rgb(0%,0%,0%);stroke-opacity:1;stroke-miterlimit:10;" d="M 132 315 L 161.664062 315 L 173.664062 286.785156 L 185.664062 315 L 215.332031 315 L 191.332031 332.4375 L 199.417969 363.980469 L 173.664062 346.542969 L 147.914062 363.980469 L 160.214844 332.4375 L 132 315 "/>
<path style="fill-rule:nonzero;fill:rgb(53%,27%,7%);fill-opacity:1;stroke-width:1;stroke-linecap:butt;stroke-linejoin:miter;stroke:rgb(0%,0%,0%);stroke-opacity:1;stroke-miterlimit:10;" d="M 196.214844 198 C 196.214844 209.714844 186.714844 219.214844 175 219.214844 C 163.285156 219.214844 153.785156 209.714844 153.785156 198 C 153.785156 186.285156 163.285156 176.785156 175 176.785156 C 186.714844 176.785156 196.214844 186.285156 196.214844 198 "/>
<path style="fill-rule:nonzero;fill:rgb(53%,27%,7%);fill-opacity:1;stroke-width:1;stroke-linecap:butt;stroke-linejoin:miter;stroke:rgb(0%,0%,0%);stroke-opacity:1;stroke-miterlimit:10;" d="M 370.214844 106 C 370.214844 117.714844 360.714844 127.214844 349 127.214844 C 337.285156 127.214844 327.785156 117.714844 327.785156 106 C 327.785156 94.285156 337.285156 84.785156 349 84.785156 C 360.714844 84.785156 370.214844 94.285156 370.214844 106 "/>
<path style="fill-rule:nonzero;fill:rgb(100%,51%,0%);fill-opacity:1;stroke-width:1;stroke-linecap:butt;stroke-linejoin:miter;stroke:rgb(0%,0%,0%);stroke-opacity:1;stroke-miterlimit:10;" d="M 1018 305 L 1047.664062 305 L 1059.664062 276.785156 L 1071.664062 305 L 1101.332031 305 L 1077.332031 322.4375 L 1085.417969 353.980469 L 1059.664062 336.542969 L 1033.914062 353.980469 L 1046.214844 322.4375 L 1018 305 "/>
<path style="fill-rule:nonzero;fill:rgb(53%,27%,7%);fill-opacity:1;stroke-width:1;stroke-linecap:butt;stroke-linejoin:miter;stroke:rgb(0%,0%,0%);stroke-opacity:1;stroke-miterlimit:10;" d="M 782.214844 240 C 782.214844 251.714844 772.714844 261.214844 761 261.214844 C 749.285156 261.214844 739.785156 251.714844 739.785156 240 C 739.785156 228.285156 749.285156 218.785156 761 218.785156 C 772.714844 218.785156 782.214844 228.285156 782.214844 240 "/>
<path style="fill-rule:nonzero;fill:rgb(53%,27%,7%);fill-opacity:1;stroke-width:1;stroke-linecap:butt;stroke-linejoin:miter;stroke:rgb(0%,0%,0%);stroke-opacity:1;stroke-miterlimit:10;" d="M 892.214844 336 C 892.214844 347.714844 882.714844 357.214844 871 357.214844 C 859.285156 357.214844 849.785156 347.714844 849.785156 336 C 849.785156 324.285156 859.285156 314.785156 871 314.785156 C 882.714844 314.785156 892.214844 324.285156 892.214844 336 "/>
<path style="fill-rule:nonzero;fill:rgb(53%,27%,7%);fill-opacity:1;stroke-width:1;stroke-linecap:butt;stroke-linejoin:miter;stroke:rgb(0%,0%,0%);stroke-opacity:1;stroke-miterlimit:10;" d="M 721.214844 155 C 721.214844 166.714844 711.714844 176.214844 700 176.214844 C 688.285156 176.214844 678.785156 166.714844 678.785156 155 C 678.785156 143.285156 688.285156 133.785156 700 133.785156 C 711.714844 133.785156 721.214844 143.285156 721.214844 155 "/>
<path style="fill-rule:nonzero;fill:rgb(100%,51%,0%);fill-opacity:1;stroke-width:1;stroke-linecap:butt;stroke-linejoin:miter;stroke:rgb(0%,0%,0%);stroke-opacity:1;stroke-miterlimit:10;" d="M 733 375 L 762.664062 375 L 774.664062 346.785156 L 786.664062 375 L 816.332031 375 L 792.332031 392.4375 L 800.417969 423.980469 L 774.664062 406.542969 L 748.914062 423.980469 L 761.214844 392.4375 L 733 375 "/>
<path style="fill-rule:nonzero;fill:rgb(100%,51%,0%);fill-opacity:1;stroke-width:1;stroke-linecap:butt;stroke-linejoin:miter;stroke:rgb(0%,0%,0%);stroke-opacity:1;stroke-miterlimit:10;" d="M 973 413 L 1002.664062 413 L 1014.664062 384.785156 L 1026.664062 413 L 1056.332031 413 L 1032.332031 430.4375 L 1040.417969 461.980469 L 1014.664062 444.542969 L 988.914062 461.980469 L 1001.214844 430.4375 L 973 413 "/>
<path style="fill-rule:nonzero;fill:rgb(100%,51%,0%);fill-opacity:1;stroke-width:1;stroke-linecap:butt;stroke-linejoin:miter;stroke:rgb(0%,0%,0%);stroke-opacity:1;stroke-miterlimit:10;" d="M 1037 118 L 1066.664062 118 L 1078.664062 89.785156 L 1090.664062 118 L 1120.332031 118 L 1096.332031 135.4375 L 1104.417969 166.980469 L 1078.664062 149.542969 L 1052.914062 166.980469 L 1065.214844 135.4375 L 1037 118 "/>
<path style="fill-rule:nonzero;fill:rgb(53%,27%,7%);fill-opacity:1;stroke-width:1;stroke-linecap:butt;stroke-linejoin:miter;stroke:rgb(0%,0%,0%);stroke-opacity:1;stroke-miterlimit:10;" d="M 884.214844 148 C 884.214844 159.714844 874.714844 169.214844 863 169.214844 C 851.285156 169.214844 841.785156 159.714844 841.785156 148 C 841.785156 136.285156 851.285156 126.785156 863 126.785156 C 874.714844 126.785156 884.214844 136.285156 884.214844 148 "/>
</g>
</svg>
