<?xml version="1.0" encoding="UTF-8"?>
<svg xmlns="http://www.w3.org/2000/svg" xmlns:xlink="http://www.w3.org/1999/xlink" width="1129pt" height="517pt" viewBox="0 0 1129 517" version="1.1">
<g id="surface891">
<rect x="0" y="0" width="1129" height="517" style="fill:rgb(90%,90%,90%);fill-opacity:1;stroke:none;"/>
<path style="fill-rule:nonzero;fill:rgb(100%,0%,0%);fill-opacity:1;stroke-width:1;stroke-linecap:butt;stroke-linejoin:miter;stroke:rgb(0%,0%,0%);stroke-opacity:1;stroke-miterlimit:10;" d="M 138 366.601562 C 138 352.199219 114 352.199219 114 366.601562 C 114 381 138 383.398438 138 395.398438 C 138 383.398438 162 381 162 366.601562 C 162 352.199219 138 352.199219 138 366.601562 "/>
<path style="fill-rule:nonzero;fill:rgb(100%,0%,0%);fill-opacity:1;stroke-width:1;stroke-linecap:butt;stroke-linejoin:miter;stroke:rgb(0%,0%,0%);stroke-opacity:1;stroke-miterlimit:10;" d="M 52 198.601562 C 52 184.199219 28 184.199219 28 198.601562 C 28 213 52 215.398438 52 227.398438 C 52 215.398438 76 213 76 198.601562 C 76 184.199219 52 184.199219 52 198.601562 "/>
<path style="fill-rule:nonzero;fill:rgb(100%,0%,0%);fill-opacity:1;stroke-width:1;stroke-linecap:butt;stroke-linejoin:miter;stroke:rgb(0%,0%,0%);stroke-opacity:1;stroke-miterlimit:10;" d="M 434 411.601562 C 434 397.199219 410 397.199219 410 411.601562 C 410 426 434 428.398438 434 440.398438 C 434 428.398438 458 426 458 411.601562 C 458 397.199219 434 397.199219 434 411.601562 "/>
<path style="fill-rule:nonzero;fill:rgb(100%,0%,0%);fill-opacity:1;stroke-width:1;stroke-linecap:butt;stroke-linejoin:miter;stroke:rgb(0%,0%,0%);stroke-opacity:1;stroke-miterlimit:10;" d="M 344 77.601562 C 344 63.199219 320 63.199219 320 77.601562 C 320 92 344 94.398438 344 106.398438 C 344 94.398438 368 92 368 77.601562 C 368 63.199219 344 63.199219 344 77.601562 "/>
<path style="fill-rule:nonzero;fill:rgb(100%,0%,0%);fill-opacity:1;stroke-width:1;stroke-linecap:butt;stroke-linejoin:miter;stroke:rgb(0%,0%,0%);stroke-opacity:1;stroke-miterlimit:10;" d="M 739 281.601562 C 739 267.199219 715 267.199219 715 281.601562 C 715 296 739 298.398438 739 310.398438 C 739 298.398438 763 296 763 281.601562 C 763 267.199219 739 267.199219 739 281.601562 "/>
<path style="fill-rule:nonzero;fill:rgb(0%,0%,0%);fill-opacity:1;stroke-width:1;stroke-linecap:butt;stroke-linejoin:miter;stroke:rgb(0%,0%,0%);stroke-opacity:1;stroke-miterlimit:10;" d="M 530 439 L 510 439 L 510 449 L 530 449 L 530 469 L 540 469 L 540 449 L 560 449 L 560 439 L 540 439 L 540 419 L 530 419 L 530 439 "/>
<path style="fill-rule:nonzero;fill:rgb(0%,0%,0%);fill-opacity:1;stroke-width:1;stroke-linecap:butt;stroke-linejoin:miter;stroke:rgb(0%,0%,0%);stroke-opacity:1;stroke-miterlimit:10;" d="M 542 91 L 522 91 L 522 101 L 542 101 L 542 121 L 552 121 L 552 101 L 572 101 L 572 91 L 552 91 L 552 71 L 542 71 L 542 91 "/>
<path style="fill-rule:nonzero;fill:rgb(0%,0%,0%);fill-opacity:1;stroke-width:1;stroke-linecap:butt;stroke-linejoin:miter;stroke:rgb(0%,0%,0%);stroke-opacity:1;stroke-miterlimit:10;" d="M 724 66 L 704 66 L 704 76 L 724 76 L 724 96 L 734 96 L 734 76 L 754 76 L 754 66 L 734 66 L 734 46 L 724 46 L 724 66 "/>
<path style="fill-rule:nonzero;fill:rgb(0%,0%,0%);fill-opacity:1;stroke-width:1;stroke-linecap:butt;stroke-linejoin:miter;stroke:rgb(0%,0%,0%);stroke-opacity:1;stroke-miterlimit:10;" d="M 635 280 L 615 280 L 615 290 L 635 290 L 635 310 L 645 310 L 645 290 L 665 290 L 665 280 L 645 280 L 645 260 L 635 260 L 635 280 "/>
<path style="fill-rule:nonzero;fill:rgb(0%,0%,0%);fill-opacity:1;stroke-width:1;stroke-linecap:butt;stroke-linejoin:miter;stroke:rgb(0%,0%,0%);stroke-opacity:1;stroke-miterlimit:10;" d="M 347 377 L 327 377 L 327 387 L 347 387 L 347 407 L 357 407 L 357 387 L 377 387 L 377 377 L 357 377 L 357 357 L 347 357 L 347 377 "/>
<path style="fill-rule:nonzero;fill:rgb(0%,0%,0%);fill-opacity:1;stroke-width:1;stroke-linecap:butt;stroke-linejoin:miter;stroke:rgb(0%,0%,0%);stroke-opacity:1;stroke-miterlimit:10;" d="M 165 263 L 145 263 L 145 273 L 165 273 L 165 293 L 175 293 L 175 273 L 195 273 L 195 263 L 175 263 L 175 243 L 165 243 L 165 263 "/>
</g>
</svg>
