<?xml version="1.0" encoding="UTF-8"?>
<svg xmlns="http://www.w3.org/2000/svg" xmlns:xlink="http://www.w3.org/1999/xlink" width="1129pt" height="517pt" viewBox="0 0 1129 517" version="1.1">
<g id="surface601">
<rect x="0" y="0" width="1129" height="517" style="fill:rgb(90%,90%,90%);fill-opacity:1;stroke:none;"/>
<path style="fill-rule:nonzero;fill:rgb(35%,70%,90%);fill-opacity:1;stroke-width:1;stroke-linecap:butt;stroke-linejoin:miter;stroke:rgb(0%,0%,0%);stroke-opacity:1;stroke-miterlimit:10;" d="M 850 204 L 879.664062 204 L 891.664062 175.785156 L 903.664062 204 L 933.332031 204 L 909.332031 221.4375 L 917.417969 252.980469 L 891.664062 235.542969 L 865.914062 252.980469 L 878.214844 221.4375 L 850 204 "/>
<path style="fill-rule:nonzero;fill:rgb(35%,70%,90%);fill-opacity:1;stroke-width:1;stroke-linecap:butt;stroke-linejoin:miter;stroke:rgb(0%,0%,0%);stroke-opacity:1;stroke-miterlimit:10;" d="M 460 156 L 489.664062 156 L 501.664062 127.785156 L 513.664062 156 L 543.332031 156 L 519.332031 173.4375 L 527.417969 204.980469 L 501.664062 187.542969 L 475.914062 204.980469 L 488.214844 173.4375 L 460 156 "/>
<path style="fill-rule:nonzero;fill:rgb(35%,70%,90%);fill-opacity:1;stroke-width:1;stroke-linecap:butt;stroke-linejoin:miter;stroke:rgb(0%,0%,0%);stroke-opacity:1;stroke-miterlimit:10;" d="M 936 332 L 965.664062 332 L 977.664062 303.785156 L 989.664062 332 L 1019.332031 332 L 995.332031 349.4375 L 1003.417969 380.980469 L 977.664062 363.542969 L 951.914062 380.980469 L 964.214844 349.4375 L 936 332 "/>
<path style="fill-rule:nonzero;fill:rgb(35%,70%,90%);fill-opacity:1;stroke-width:1;stroke-linecap:butt;stroke-linejoin:miter;stroke:rgb(0%,0%,0%);stroke-opacity:1;stroke-miterlimit:10;" d="M 749 162 L 778.664062 162 L 790.664062 133.785156 L 802.664062 162 L 832.332031 162 L 808.332031 179.4375 L 816.417969 210.980469 L 790.664062 193.542969 L 764.914062 210.980469 L 777.214844 179.4375 L 749 162 "/>
<path style="fill-rule:nonzero;fill:rgb(35%,70%,90%);fill-opacity:1;stroke-width:1;stroke-linecap:butt;stroke-linejoin:miter;stroke:rgb(0%,0%,0%);stroke-opacity:1;stroke-miterlimit:10;" d="M 191 148 L 220.664062 148 L 232.664062 119.785156 L 244.664062 148 L 274.332031 148 L 250.332031 165.4375 L 258.417969 196.980469 L 232.664062 179.542969 L 206.914062 196.980469 L 219.214844 165.4375 L 191 148 "/>
<path style="fill-rule:nonzero;fill:rgb(55%,51%,53%);fill-opacity:1;stroke-width:1;stroke-linecap:butt;stroke-linejoin:miter;stroke:rgb(0%,0%,0%);stroke-opacity:1;stroke-miterlimit:10;" d="M 497.214844 442 C 497.214844 453.714844 487.714844 463.214844 476 463.214844 C 464.285156 463.214844 454.785156 453.714844 454.785156 442 C 454.785156 430.285156 464.285156 420.785156 476 420.785156 C 487.714844 420.785156 497.214844 430.285156 497.214844 442 "/>
<path style="fill-rule:nonzero;fill:rgb(55%,51%,53%);fill-opacity:1;stroke-width:1;stroke-linecap:butt;stroke-linejoin:miter;stroke:rgb(0%,0%,0%);stroke-opacity:1;stroke-miterlimit:10;" d="M 751.214844 438 C 751.214844 449.714844 741.714844 459.214844 730 459.214844 C 718.285156 459.214844 708.785156 449.714844 708.785156 438 C 708.785156 426.285156 718.285156 416.785156 730 416.785156 C 741.714844 416.785156 751.214844 426.285156 751.214844 438 "/>
<path style="fill-rule:nonzero;fill:rgb(55%,51%,53%);fill-opacity:1;stroke-width:1;stroke-linecap:butt;stroke-linejoin:miter;stroke:rgb(0%,0%,0%);stroke-opacity:1;stroke-miterlimit:10;" d="M 991.214844 67 C 991.214844 78.714844 981.714844 88.214844 970 88.214844 C 958.285156 88.214844 948.785156 78.714844 948.785156 67 C 948.785156 55.285156 958.285156 45.785156 970 45.785156 C 981.714844 45.785156 991.214844 55.285156 991.214844 67 "/>
<path style="fill-rule:nonzero;fill:rgb(55%,51%,53%);fill-opacity:1;stroke-width:1;stroke-linecap:butt;stroke-linejoin:miter;stroke:rgb(0%,0%,0%);stroke-opacity:1;stroke-miterlimit:10;" d="M 345.214844 339 C 345.214844 350.714844 335.714844 360.214844 324 360.214844 C 312.285156 360.214844 302.785156 350.714844 302.785156 339 C 302.785156 327.285156 312.285156 317.785156 324 317.785156 C 335.714844 317.785156 345.214844 327.285156 345.214844 339 "/>
</g>
</svg>
