<?xml version="1.0" encoding="UTF-8"?>
<svg xmlns="http://www.w3.org/2000/svg" xmlns:xlink="http://www.w3.org/1999/xlink" width="1179pt" height="517pt" viewBox="0 0 1179 517" version="1.1">
<g id="surface381">
<rect x="0" y="0" width="1179" height="517" style="fill:rgb(90%,90%,90%);fill-opacity:1;stroke:none;"/>
<path style="fill-rule:nonzero;fill:rgb(35%,70%,90%);fill-opacity:1;stroke-width:1;stroke-linecap:butt;stroke-linejoin:miter;stroke:rgb(0%,0%,0%);stroke-opacity:1;stroke-miterlimit:10;" d="M 169.214844 402 C 169.214844 413.714844 159.714844 423.214844 148 423.214844 C 136.285156 423.214844 126.785156 413.714844 126.785156 402 C 126.785156 390.285156 136.285156 380.785156 148 380.785156 C 159.714844 380.785156 169.214844 390.285156 169.214844 402 "/>
<path style="fill-rule:nonzero;fill:rgb(100%,51%,0%);fill-opacity:1;stroke-width:1;stroke-linecap:butt;stroke-linejoin:miter;stroke:rgb(0%,0%,0%);stroke-opacity:1;stroke-miterlimit:10;" d="M 443.214844 135 C 443.214844 146.714844 433.714844 156.214844 422 156.214844 C 410.285156 156.214844 400.785156 146.714844 400.785156 135 C 400.785156 123.285156 410.285156 113.785156 422 113.785156 C 433.714844 113.785156 443.214844 123.285156 443.214844 135 "/>
<path style="fill-rule:nonzero;fill:rgb(35%,70%,90%);fill-opacity:1;stroke-width:1;stroke-linecap:butt;stroke-linejoin:miter;stroke:rgb(0%,0%,0%);stroke-opacity:1;stroke-miterlimit:10;" d="M 446.214844 291 C 446.214844 302.714844 436.714844 312.214844 425 312.214844 C 413.285156 312.214844 403.785156 302.714844 403.785156 291 C 403.785156 279.285156 413.285156 269.785156 425 269.785156 C 436.714844 269.785156 446.214844 279.285156 446.214844 291 "/>
<path style="fill-rule:nonzero;fill:rgb(100%,51%,0%);fill-opacity:1;stroke-width:1;stroke-linecap:butt;stroke-linejoin:miter;stroke:rgb(0%,0%,0%);stroke-opacity:1;stroke-miterlimit:10;" d="M 126.214844 313 C 126.214844 324.714844 116.714844 334.214844 105 334.214844 C 93.285156 334.214844 83.785156 324.714844 83.785156 313 C 83.785156 301.285156 93.285156 291.785156 105 291.785156 C 116.714844 291.785156 126.214844 301.285156 126.214844 313 "/>
<path style="fill-rule:nonzero;fill:rgb(35%,70%,90%);fill-opacity:1;stroke-width:1;stroke-linecap:butt;stroke-linejoin:miter;stroke:rgb(0%,0%,0%);stroke-opacity:1;stroke-miterlimit:10;" d="M 233.214844 173 C 233.214844 184.714844 223.714844 194.214844 212 194.214844 C 200.285156 194.214844 190.785156 184.714844 190.785156 173 C 190.785156 161.285156 200.285156 151.785156 212 151.785156 C 223.714844 151.785156 233.214844 161.285156 233.214844 173 "/>
<path style="fill-rule:nonzero;fill:rgb(35%,70%,90%);fill-opacity:1;stroke-width:1;stroke-linecap:butt;stroke-linejoin:miter;stroke:rgb(0%,0%,0%);stroke-opacity:1;stroke-miterlimit:10;" d="M 341.214844 380 C 341.214844 391.714844 331.714844 401.214844 320 401.214844 C 308.285156 401.214844 298.785156 391.714844 298.785156 380 C 298.785156 368.285156 308.285156 358.785156 320 358.785156 C 331.714844 358.785156 341.214844 368.285156 341.214844 380 "/>
<path style="fill-rule:nonzero;fill:rgb(35%,70%,90%);fill-opacity:1;stroke-width:1;stroke-linecap:butt;stroke-linejoin:miter;stroke:rgb(0%,0%,0%);stroke-opacity:1;stroke-miterlimit:10;" d="M 255.214844 84 C 255.214844 95.714844 245.714844 105.214844 234 105.214844 C 222.285156 105.214844 212.785156 95.714844 212.785156 84 C 212.785156 72.285156 222.285156 62.785156 234 62.785156 C 245.714844 62.785156 255.214844 72.285156 255.214844 84 "/>
<path style="fill-rule:nonzero;fill:rgb(35%,70%,90%);fill-opacity:1;stroke-width:1;stroke-linecap:butt;stroke-linejoin:miter;stroke:rgb(0%,0%,0%);stroke-opacity:1;stroke-miterlimit:10;" d="M 260.214844 279 C 260.214844 290.714844 250.714844 300.214844 239 300.214844 C 227.285156 300.214844 217.785156 290.714844 217.785156 279 C 217.785156 267.285156 227.285156 257.785156 239 257.785156 C 250.714844 257.785156 260.214844 267.285156 260.214844 279 "/>
<path style="fill-rule:nonzero;fill:rgb(100%,51%,0%);fill-opacity:1;stroke-width:1;stroke-linecap:butt;stroke-linejoin:miter;stroke:rgb(0%,0%,0%);stroke-opacity:1;stroke-miterlimit:10;" d="M 1001.785156 336.785156 L 1001.785156 379.214844 L 1044.214844 379.214844 L 1044.214844 336.785156 L 1001.785156 336.785156 "/>
<path style="fill-rule:nonzero;fill:rgb(35%,70%,90%);fill-opacity:1;stroke-width:1;stroke-linecap:butt;stroke-linejoin:miter;stroke:rgb(0%,0%,0%);stroke-opacity:1;stroke-miterlimit:10;" d="M 842.785156 143.785156 L 842.785156 186.214844 L 885.214844 186.214844 L 885.214844 143.785156 L 842.785156 143.785156 "/>
<path style="fill-rule:nonzero;fill:rgb(100%,51%,0%);fill-opacity:1;stroke-width:1;stroke-linecap:butt;stroke-linejoin:miter;stroke:rgb(0%,0%,0%);stroke-opacity:1;stroke-miterlimit:10;" d="M 905.785156 330.785156 L 905.785156 373.214844 L 948.214844 373.214844 L 948.214844 330.785156 L 905.785156 330.785156 "/>
<path style="fill-rule:nonzero;fill:rgb(35%,70%,90%);fill-opacity:1;stroke-width:1;stroke-linecap:butt;stroke-linejoin:miter;stroke:rgb(0%,0%,0%);stroke-opacity:1;stroke-miterlimit:10;" d="M 716.785156 225.785156 L 716.785156 268.214844 L 759.214844 268.214844 L 759.214844 225.785156 L 716.785156 225.785156 "/>
</g>
</svg>
