<?xml version="1.0" encoding="UTF-8"?>
<svg xmlns="http://www.w3.org/2000/svg" xmlns:xlink="http://www.w3.org/1999/xlink" width="1129pt" height="517pt" viewBox="0 0 1129 517" version="1.1">
<g id="surface646">
<rect x="0" y="0" width="1129" height="517" style="fill:rgb(90%,90%,90%);fill-opacity:1;stroke:none;"/>
<path style="fill-rule:nonzero;fill:rgb(100%,51%,0%);fill-opacity:1;stroke-width:1;stroke-linecap:butt;stroke-linejoin:miter;stroke:rgb(0%,0%,0%);stroke-opacity:1;stroke-miterlimit:10;" d="M 364.214844 64 C 364.214844 75.714844 354.714844 85.214844 343 85.214844 C 331.285156 85.214844 321.785156 75.714844 321.785156 64 C 321.785156 52.285156 331.285156 42.785156 343 42.785156 C 354.714844 42.785156 364.214844 52.285156 364.214844 64 "/>
<path style="fill-rule:nonzero;fill:rgb(100%,51%,0%);fill-opacity:1;stroke-width:1;stroke-linecap:butt;stroke-linejoin:miter;stroke:rgb(0%,0%,0%);stroke-opacity:1;stroke-miterlimit:10;" d="M 172.214844 92 C 172.214844 103.714844 162.714844 113.214844 151 113.214844 C 139.285156 113.214844 129.785156 103.714844 129.785156 92 C 129.785156 80.285156 139.285156 70.785156 151 70.785156 C 162.714844 70.785156 172.214844 80.285156 172.214844 92 "/>
<path style="fill-rule:nonzero;fill:rgb(100%,51%,0%);fill-opacity:1;stroke-width:1;stroke-linecap:butt;stroke-linejoin:miter;stroke:rgb(0%,0%,0%);stroke-opacity:1;stroke-miterlimit:10;" d="M 71.214844 184 C 71.214844 195.714844 61.714844 205.214844 50 205.214844 C 38.285156 205.214844 28.785156 195.714844 28.785156 184 C 28.785156 172.285156 38.285156 162.785156 50 162.785156 C 61.714844 162.785156 71.214844 172.285156 71.214844 184 "/>
<path style="fill-rule:nonzero;fill:rgb(53%,27%,7%);fill-opacity:1;stroke-width:1;stroke-linecap:butt;stroke-linejoin:miter;stroke:rgb(0%,0%,0%);stroke-opacity:1;stroke-miterlimit:10;" d="M 480.214844 239 C 480.214844 250.714844 470.714844 260.214844 459 260.214844 C 447.285156 260.214844 437.785156 250.714844 437.785156 239 C 437.785156 227.285156 447.285156 217.785156 459 217.785156 C 470.714844 217.785156 480.214844 227.285156 480.214844 239 "/>
<path style="fill-rule:nonzero;fill:rgb(100%,51%,0%);fill-opacity:1;stroke-width:1;stroke-linecap:butt;stroke-linejoin:miter;stroke:rgb(0%,0%,0%);stroke-opacity:1;stroke-miterlimit:10;" d="M 351.214844 456 C 351.214844 467.714844 341.714844 477.214844 330 477.214844 C 318.285156 477.214844 308.785156 467.714844 308.785156 456 C 308.785156 444.285156 318.285156 434.785156 330 434.785156 C 341.714844 434.785156 351.214844 444.285156 351.214844 456 "/>
<path style="fill-rule:nonzero;fill:rgb(100%,51%,0%);fill-opacity:1;stroke-width:1;stroke-linecap:butt;stroke-linejoin:miter;stroke:rgb(0%,0%,0%);stroke-opacity:1;stroke-miterlimit:10;" d="M 152.214844 304 C 152.214844 315.714844 142.714844 325.214844 131 325.214844 C 119.285156 325.214844 109.785156 315.714844 109.785156 304 C 109.785156 292.285156 119.285156 282.785156 131 282.785156 C 142.714844 282.785156 152.214844 292.285156 152.214844 304 "/>
<path style="fill-rule:nonzero;fill:rgb(100%,51%,0%);fill-opacity:1;stroke-width:1;stroke-linecap:butt;stroke-linejoin:miter;stroke:rgb(0%,0%,0%);stroke-opacity:1;stroke-miterlimit:10;" d="M 375.214844 202 C 375.214844 213.714844 365.714844 223.214844 354 223.214844 C 342.285156 223.214844 332.785156 213.714844 332.785156 202 C 332.785156 190.285156 342.285156 180.785156 354 180.785156 C 365.714844 180.785156 375.214844 190.285156 375.214844 202 "/>
<path style="fill-rule:nonzero;fill:rgb(100%,51%,0%);fill-opacity:1;stroke-width:1;stroke-linecap:butt;stroke-linejoin:miter;stroke:rgb(0%,0%,0%);stroke-opacity:1;stroke-miterlimit:10;" d="M 393.214844 304 C 393.214844 315.714844 383.714844 325.214844 372 325.214844 C 360.285156 325.214844 350.785156 315.714844 350.785156 304 C 350.785156 292.285156 360.285156 282.785156 372 282.785156 C 383.714844 282.785156 393.214844 292.285156 393.214844 304 "/>
<path style="fill-rule:nonzero;fill:rgb(53%,27%,7%);fill-opacity:1;stroke-width:1;stroke-linecap:butt;stroke-linejoin:miter;stroke:rgb(0%,0%,0%);stroke-opacity:1;stroke-miterlimit:10;" d="M 918 89 L 892.019531 134 L 943.980469 134 L 918 89 "/>
<path style="fill-rule:nonzero;fill:rgb(53%,27%,7%);fill-opacity:1;stroke-width:1;stroke-linecap:butt;stroke-linejoin:miter;stroke:rgb(0%,0%,0%);stroke-opacity:1;stroke-miterlimit:10;" d="M 976 412 L 950.019531 457 L 1001.980469 457 L 976 412 "/>
<path style="fill-rule:nonzero;fill:rgb(53%,27%,7%);fill-opacity:1;stroke-width:1;stroke-linecap:butt;stroke-linejoin:miter;stroke:rgb(0%,0%,0%);stroke-opacity:1;stroke-miterlimit:10;" d="M 964 318 L 938.019531 363 L 989.980469 363 L 964 318 "/>
<path style="fill-rule:nonzero;fill:rgb(100%,51%,0%);fill-opacity:1;stroke-width:1;stroke-linecap:butt;stroke-linejoin:miter;stroke:rgb(0%,0%,0%);stroke-opacity:1;stroke-miterlimit:10;" d="M 771 241 L 745.019531 286 L 796.980469 286 L 771 241 "/>
</g>
</svg>
