<?xml version="1.0" encoding="UTF-8"?>
<svg xmlns="http://www.w3.org/2000/svg" xmlns:xlink="http://www.w3.org/1999/xlink" width="1129pt" height="517pt" viewBox="0 0 1129 517" version="1.1">
<g id="surface751">
<rect x="0" y="0" width="1129" height="517" style="fill:rgb(90%,90%,90%);fill-opacity:1;stroke:none;"/>
<path style="fill-rule:nonzero;fill:rgb(55%,51%,53%);fill-opacity:1;stroke-width:1;stroke-linecap:butt;stroke-linejoin:miter;stroke:rgb(0%,0%,0%);stroke-opacity:1;stroke-miterlimit:10;" d="M 212.214844 343 C 212.214844 354.714844 202.714844 364.214844 191 364.214844 C 179.285156 364.214844 169.785156 354.714844 169.785156 343 C 169.785156 331.285156 179.285156 321.785156 191 321.785156 C 202.714844 321.785156 212.214844 331.285156 212.214844 343 "/>
<path style="fill-rule:nonzero;fill:rgb(67%,100%,18%);fill-opacity:1;stroke-width:1;stroke-linecap:butt;stroke-linejoin:miter;stroke:rgb(0%,0%,0%);stroke-opacity:1;stroke-miterlimit:10;" d="M 124.214844 293 C 124.214844 304.714844 114.714844 314.214844 103 314.214844 C 91.285156 314.214844 81.785156 304.714844 81.785156 293 C 81.785156 281.285156 91.285156 271.785156 103 271.785156 C 114.714844 271.785156 124.214844 281.285156 124.214844 293 "/>
<path style="fill-rule:nonzero;fill:rgb(55%,51%,53%);fill-opacity:1;stroke-width:1;stroke-linecap:butt;stroke-linejoin:miter;stroke:rgb(0%,0%,0%);stroke-opacity:1;stroke-miterlimit:10;" d="M 95.214844 128 C 95.214844 139.714844 85.714844 149.214844 74 149.214844 C 62.285156 149.214844 52.785156 139.714844 52.785156 128 C 52.785156 116.285156 62.285156 106.785156 74 106.785156 C 85.714844 106.785156 95.214844 116.285156 95.214844 128 "/>
<path style="fill-rule:nonzero;fill:rgb(67%,100%,18%);fill-opacity:1;stroke-width:1;stroke-linecap:butt;stroke-linejoin:miter;stroke:rgb(0%,0%,0%);stroke-opacity:1;stroke-miterlimit:10;" d="M 328.214844 78 C 328.214844 89.714844 318.714844 99.214844 307 99.214844 C 295.285156 99.214844 285.785156 89.714844 285.785156 78 C 285.785156 66.285156 295.285156 56.785156 307 56.785156 C 318.714844 56.785156 328.214844 66.285156 328.214844 78 "/>
<path style="fill-rule:nonzero;fill:rgb(55%,51%,53%);fill-opacity:1;stroke-width:1;stroke-linecap:butt;stroke-linejoin:miter;stroke:rgb(0%,0%,0%);stroke-opacity:1;stroke-miterlimit:10;" d="M 256.214844 458 C 256.214844 469.714844 246.714844 479.214844 235 479.214844 C 223.285156 479.214844 213.785156 469.714844 213.785156 458 C 213.785156 446.285156 223.285156 436.785156 235 436.785156 C 246.714844 436.785156 256.214844 446.285156 256.214844 458 "/>
<path style="fill-rule:nonzero;fill:rgb(55%,51%,53%);fill-opacity:1;stroke-width:1;stroke-linecap:butt;stroke-linejoin:miter;stroke:rgb(0%,0%,0%);stroke-opacity:1;stroke-miterlimit:10;" d="M 336.214844 398 C 336.214844 409.714844 326.714844 419.214844 315 419.214844 C 303.285156 419.214844 293.785156 409.714844 293.785156 398 C 293.785156 386.285156 303.285156 376.785156 315 376.785156 C 326.714844 376.785156 336.214844 386.285156 336.214844 398 "/>
<path style="fill-rule:nonzero;fill:rgb(55%,51%,53%);fill-opacity:1;stroke-width:1;stroke-linecap:butt;stroke-linejoin:miter;stroke:rgb(0%,0%,0%);stroke-opacity:1;stroke-miterlimit:10;" d="M 245.214844 119 C 245.214844 130.714844 235.714844 140.214844 224 140.214844 C 212.285156 140.214844 202.785156 130.714844 202.785156 119 C 202.785156 107.285156 212.285156 97.785156 224 97.785156 C 235.714844 97.785156 245.214844 107.285156 245.214844 119 "/>
<path style="fill-rule:nonzero;fill:rgb(55%,51%,53%);fill-opacity:1;stroke-width:1;stroke-linecap:butt;stroke-linejoin:miter;stroke:rgb(0%,0%,0%);stroke-opacity:1;stroke-miterlimit:10;" d="M 416.214844 295 C 416.214844 306.714844 406.714844 316.214844 395 316.214844 C 383.285156 316.214844 373.785156 306.714844 373.785156 295 C 373.785156 283.285156 383.285156 273.785156 395 273.785156 C 406.714844 273.785156 416.214844 283.285156 416.214844 295 "/>
<path style="fill-rule:nonzero;fill:rgb(67%,100%,18%);fill-opacity:1;stroke-width:1;stroke-linecap:butt;stroke-linejoin:miter;stroke:rgb(0%,0%,0%);stroke-opacity:1;stroke-miterlimit:10;" d="M 648 49 L 622.019531 94 L 673.980469 94 L 648 49 "/>
<path style="fill-rule:nonzero;fill:rgb(55%,51%,53%);fill-opacity:1;stroke-width:1;stroke-linecap:butt;stroke-linejoin:miter;stroke:rgb(0%,0%,0%);stroke-opacity:1;stroke-miterlimit:10;" d="M 685 202 L 659.019531 247 L 710.980469 247 L 685 202 "/>
<path style="fill-rule:nonzero;fill:rgb(67%,100%,18%);fill-opacity:1;stroke-width:1;stroke-linecap:butt;stroke-linejoin:miter;stroke:rgb(0%,0%,0%);stroke-opacity:1;stroke-miterlimit:10;" d="M 1024 311 L 998.019531 356 L 1049.980469 356 L 1024 311 "/>
<path style="fill-rule:nonzero;fill:rgb(55%,51%,53%);fill-opacity:1;stroke-width:1;stroke-linecap:butt;stroke-linejoin:miter;stroke:rgb(0%,0%,0%);stroke-opacity:1;stroke-miterlimit:10;" d="M 988 154 L 962.019531 199 L 1013.980469 199 L 988 154 "/>
<path style="fill-rule:nonzero;fill:rgb(67%,100%,18%);fill-opacity:1;stroke-width:1;stroke-linecap:butt;stroke-linejoin:miter;stroke:rgb(0%,0%,0%);stroke-opacity:1;stroke-miterlimit:10;" d="M 810 184 L 784.019531 229 L 835.980469 229 L 810 184 "/>
<path style="fill-rule:nonzero;fill:rgb(67%,100%,18%);fill-opacity:1;stroke-width:1;stroke-linecap:butt;stroke-linejoin:miter;stroke:rgb(0%,0%,0%);stroke-opacity:1;stroke-miterlimit:10;" d="M 755 391 L 729.019531 436 L 780.980469 436 L 755 391 "/>
</g>
</svg>
