<?xml version="1.0" encoding="UTF-8"?>
<svg xmlns="http://www.w3.org/2000/svg" xmlns:xlink="http://www.w3.org/1999/xlink" width="1129pt" height="517pt" viewBox="0 0 1129 517" version="1.1">
<g id="surface391">
<rect x="0" y="0" width="1129" height="517" style="fill:rgb(90%,90%,90%);fill-opacity:1;stroke:none;"/>
<path style="fill-rule:nonzero;fill:rgb(35%,70%,90%);fill-opacity:1;stroke-width:1;stroke-linecap:butt;stroke-linejoin:miter;stroke:rgb(0%,0%,0%);stroke-opacity:1;stroke-miterlimit:10;" d="M 376 188 L 405.664062 188 L 417.664062 159.785156 L 429.664062 188 L 459.332031 188 L 435.332031 205.4375 L 443.417969 236.980469 L 417.664062 219.542969 L 391.914062 236.980469 L 404.214844 205.4375 L 376 188 "/>
<path style="fill-rule:nonzero;fill:rgb(35%,70%,90%);fill-opacity:1;stroke-width:1;stroke-linecap:butt;stroke-linejoin:miter;stroke:rgb(0%,0%,0%);stroke-opacity:1;stroke-miterlimit:10;" d="M 890 306 L 919.664062 306 L 931.664062 277.785156 L 943.664062 306 L 973.332031 306 L 949.332031 323.4375 L 957.417969 354.980469 L 931.664062 337.542969 L 905.914062 354.980469 L 918.214844 323.4375 L 890 306 "/>
<path style="fill-rule:nonzero;fill:rgb(35%,70%,90%);fill-opacity:1;stroke-width:1;stroke-linecap:butt;stroke-linejoin:miter;stroke:rgb(0%,0%,0%);stroke-opacity:1;stroke-miterlimit:10;" d="M 610 275 L 639.664062 275 L 651.664062 246.785156 L 663.664062 275 L 693.332031 275 L 669.332031 292.4375 L 677.417969 323.980469 L 651.664062 306.542969 L 625.914062 323.980469 L 638.214844 292.4375 L 610 275 "/>
<path style="fill-rule:nonzero;fill:rgb(35%,70%,90%);fill-opacity:1;stroke-width:1;stroke-linecap:butt;stroke-linejoin:miter;stroke:rgb(0%,0%,0%);stroke-opacity:1;stroke-miterlimit:10;" d="M 529 447 L 558.664062 447 L 570.664062 418.785156 L 582.664062 447 L 612.332031 447 L 588.332031 464.4375 L 596.417969 495.980469 L 570.664062 478.542969 L 544.914062 495.980469 L 557.214844 464.4375 L 529 447 "/>
<path style="fill-rule:nonzero;fill:rgb(35%,70%,90%);fill-opacity:1;stroke-width:1;stroke-linecap:butt;stroke-linejoin:miter;stroke:rgb(0%,0%,0%);stroke-opacity:1;stroke-miterlimit:10;" d="M 260 291 L 289.664062 291 L 301.664062 262.785156 L 313.664062 291 L 343.332031 291 L 319.332031 308.4375 L 327.417969 339.980469 L 301.664062 322.542969 L 275.914062 339.980469 L 288.214844 308.4375 L 260 291 "/>
<path style="fill-rule:nonzero;fill:rgb(35%,70%,90%);fill-opacity:1;stroke-width:1;stroke-linecap:butt;stroke-linejoin:miter;stroke:rgb(0%,0%,0%);stroke-opacity:1;stroke-miterlimit:10;" d="M 686 119 L 715.664062 119 L 727.664062 90.785156 L 739.664062 119 L 769.332031 119 L 745.332031 136.4375 L 753.417969 167.980469 L 727.664062 150.542969 L 701.914062 167.980469 L 714.214844 136.4375 L 686 119 "/>
<path style="fill-rule:nonzero;fill:rgb(35%,70%,90%);fill-opacity:1;stroke-width:1;stroke-linecap:butt;stroke-linejoin:miter;stroke:rgb(0%,0%,0%);stroke-opacity:1;stroke-miterlimit:10;" d="M 118 292 L 147.664062 292 L 159.664062 263.785156 L 171.664062 292 L 201.332031 292 L 177.332031 309.4375 L 185.417969 340.980469 L 159.664062 323.542969 L 133.914062 340.980469 L 146.214844 309.4375 L 118 292 "/>
<path style="fill-rule:nonzero;fill:rgb(53%,27%,7%);fill-opacity:1;stroke-width:1;stroke-linecap:butt;stroke-linejoin:miter;stroke:rgb(0%,0%,0%);stroke-opacity:1;stroke-miterlimit:10;" d="M 667.214844 415 C 667.214844 426.714844 657.714844 436.214844 646 436.214844 C 634.285156 436.214844 624.785156 426.714844 624.785156 415 C 624.785156 403.285156 634.285156 393.785156 646 393.785156 C 657.714844 393.785156 667.214844 403.285156 667.214844 415 "/>
<path style="fill-rule:nonzero;fill:rgb(53%,27%,7%);fill-opacity:1;stroke-width:1;stroke-linecap:butt;stroke-linejoin:miter;stroke:rgb(0%,0%,0%);stroke-opacity:1;stroke-miterlimit:10;" d="M 833.214844 174 C 833.214844 185.714844 823.714844 195.214844 812 195.214844 C 800.285156 195.214844 790.785156 185.714844 790.785156 174 C 790.785156 162.285156 800.285156 152.785156 812 152.785156 C 823.714844 152.785156 833.214844 162.285156 833.214844 174 "/>
<path style="fill-rule:nonzero;fill:rgb(53%,27%,7%);fill-opacity:1;stroke-width:1;stroke-linecap:butt;stroke-linejoin:miter;stroke:rgb(0%,0%,0%);stroke-opacity:1;stroke-miterlimit:10;" d="M 172.214844 413 C 172.214844 424.714844 162.714844 434.214844 151 434.214844 C 139.285156 434.214844 129.785156 424.714844 129.785156 413 C 129.785156 401.285156 139.285156 391.785156 151 391.785156 C 162.714844 391.785156 172.214844 401.285156 172.214844 413 "/>
<path style="fill-rule:nonzero;fill:rgb(53%,27%,7%);fill-opacity:1;stroke-width:1;stroke-linecap:butt;stroke-linejoin:miter;stroke:rgb(0%,0%,0%);stroke-opacity:1;stroke-miterlimit:10;" d="M 567.214844 62 C 567.214844 73.714844 557.714844 83.214844 546 83.214844 C 534.285156 83.214844 524.785156 73.714844 524.785156 62 C 524.785156 50.285156 534.285156 40.785156 546 40.785156 C 557.714844 40.785156 567.214844 50.285156 567.214844 62 "/>
<path style="fill-rule:nonzero;fill:rgb(53%,27%,7%);fill-opacity:1;stroke-width:1;stroke-linecap:butt;stroke-linejoin:miter;stroke:rgb(0%,0%,0%);stroke-opacity:1;stroke-miterlimit:10;" d="M 967.214844 380 C 967.214844 391.714844 957.714844 401.214844 946 401.214844 C 934.285156 401.214844 924.785156 391.714844 924.785156 380 C 924.785156 368.285156 934.285156 358.785156 946 358.785156 C 957.714844 358.785156 967.214844 368.285156 967.214844 380 "/>
<path style="fill-rule:nonzero;fill:rgb(53%,27%,7%);fill-opacity:1;stroke-width:1;stroke-linecap:butt;stroke-linejoin:miter;stroke:rgb(0%,0%,0%);stroke-opacity:1;stroke-miterlimit:10;" d="M 381.214844 318 C 381.214844 329.714844 371.714844 339.214844 360 339.214844 C 348.285156 339.214844 338.785156 329.714844 338.785156 318 C 338.785156 306.285156 348.285156 296.785156 360 296.785156 C 371.714844 296.785156 381.214844 306.285156 381.214844 318 "/>
<path style="fill-rule:nonzero;fill:rgb(53%,27%,7%);fill-opacity:1;stroke-width:1;stroke-linecap:butt;stroke-linejoin:miter;stroke:rgb(0%,0%,0%);stroke-opacity:1;stroke-miterlimit:10;" d="M 842.214844 75 C 842.214844 86.714844 832.714844 96.214844 821 96.214844 C 809.285156 96.214844 799.785156 86.714844 799.785156 75 C 799.785156 63.285156 809.285156 53.785156 821 53.785156 C 832.714844 53.785156 842.214844 63.285156 842.214844 75 "/>
<path style="fill-rule:nonzero;fill:rgb(53%,27%,7%);fill-opacity:1;stroke-width:1;stroke-linecap:butt;stroke-linejoin:miter;stroke:rgb(0%,0%,0%);stroke-opacity:1;stroke-miterlimit:10;" d="M 263.214844 195 C 263.214844 206.714844 253.714844 216.214844 242 216.214844 C 230.285156 216.214844 220.785156 206.714844 220.785156 195 C 220.785156 183.285156 230.285156 173.785156 242 173.785156 C 253.714844 173.785156 263.214844 183.285156 263.214844 195 "/>
</g>
</svg>
