<?xml version="1.0" encoding="UTF-8"?>
<svg xmlns="http://www.w3.org/2000/svg" xmlns:xlink="http://www.w3.org/1999/xlink" width="1129pt" height="517pt" viewBox="0 0 1129 517" version="1.1">
<g id="surface736">
<rect x="0" y="0" width="1129" height="517" style="fill:rgb(90%,90%,90%);fill-opacity:1;stroke:none;"/>
<path style="fill-rule:nonzero;fill:rgb(53%,27%,7%);fill-opacity:1;stroke-width:1;stroke-linecap:butt;stroke-linejoin:miter;stroke:rgb(0%,0%,0%);stroke-opacity:1;stroke-miterlimit:10;" d="M 332 53 L 361.664062 53 L 373.664062 24.785156 L 385.664062 53 L 415.332031 53 L 391.332031 70.4375 L 399.417969 101.980469 L 373.664062 84.542969 L 347.914062 101.980469 L 360.214844 70.4375 L 332 53 "/>
<path style="fill-rule:nonzero;fill:rgb(53%,27%,7%);fill-opacity:1;stroke-width:1;stroke-linecap:butt;stroke-linejoin:miter;stroke:rgb(0%,0%,0%);stroke-opacity:1;stroke-miterlimit:10;" d="M 289 159 L 318.664062 159 L 330.664062 130.785156 L 342.664062 159 L 372.332031 159 L 348.332031 176.4375 L 356.417969 207.980469 L 330.664062 190.542969 L 304.914062 207.980469 L 317.214844 176.4375 L 289 159 "/>
<path style="fill-rule:nonzero;fill:rgb(53%,27%,7%);fill-opacity:1;stroke-width:1;stroke-linecap:butt;stroke-linejoin:miter;stroke:rgb(0%,0%,0%);stroke-opacity:1;stroke-miterlimit:10;" d="M 517 449 L 546.664062 449 L 558.664062 420.785156 L 570.664062 449 L 600.332031 449 L 576.332031 466.4375 L 584.417969 497.980469 L 558.664062 480.542969 L 532.914062 497.980469 L 545.214844 466.4375 L 517 449 "/>
<path style="fill-rule:nonzero;fill:rgb(53%,27%,7%);fill-opacity:1;stroke-width:1;stroke-linecap:butt;stroke-linejoin:miter;stroke:rgb(0%,0%,0%);stroke-opacity:1;stroke-miterlimit:10;" d="M 361 220 L 390.664062 220 L 402.664062 191.785156 L 414.664062 220 L 444.332031 220 L 420.332031 237.4375 L 428.417969 268.980469 L 402.664062 251.542969 L 376.914062 268.980469 L 389.214844 237.4375 L 361 220 "/>
<path style="fill-rule:nonzero;fill:rgb(53%,27%,7%);fill-opacity:1;stroke-width:1;stroke-linecap:butt;stroke-linejoin:miter;stroke:rgb(0%,0%,0%);stroke-opacity:1;stroke-miterlimit:10;" d="M 917 446 L 946.664062 446 L 958.664062 417.785156 L 970.664062 446 L 1000.332031 446 L 976.332031 463.4375 L 984.417969 494.980469 L 958.664062 477.542969 L 932.914062 494.980469 L 945.214844 463.4375 L 917 446 "/>
<path style="fill-rule:nonzero;fill:rgb(55%,51%,53%);fill-opacity:1;stroke-width:1;stroke-linecap:butt;stroke-linejoin:miter;stroke:rgb(0%,0%,0%);stroke-opacity:1;stroke-miterlimit:10;" d="M 276 319 L 305.664062 319 L 317.664062 290.785156 L 329.664062 319 L 359.332031 319 L 335.332031 336.4375 L 343.417969 367.980469 L 317.664062 350.542969 L 291.914062 367.980469 L 304.214844 336.4375 L 276 319 "/>
<path style="fill-rule:nonzero;fill:rgb(55%,51%,53%);fill-opacity:1;stroke-width:1;stroke-linecap:butt;stroke-linejoin:miter;stroke:rgb(0%,0%,0%);stroke-opacity:1;stroke-miterlimit:10;" d="M 594 297 L 623.664062 297 L 635.664062 268.785156 L 647.664062 297 L 677.332031 297 L 653.332031 314.4375 L 661.417969 345.980469 L 635.664062 328.542969 L 609.914062 345.980469 L 622.214844 314.4375 L 594 297 "/>
<path style="fill-rule:nonzero;fill:rgb(55%,51%,53%);fill-opacity:1;stroke-width:1;stroke-linecap:butt;stroke-linejoin:miter;stroke:rgb(0%,0%,0%);stroke-opacity:1;stroke-miterlimit:10;" d="M 687 367 L 716.664062 367 L 728.664062 338.785156 L 740.664062 367 L 770.332031 367 L 746.332031 384.4375 L 754.417969 415.980469 L 728.664062 398.542969 L 702.914062 415.980469 L 715.214844 384.4375 L 687 367 "/>
<path style="fill-rule:nonzero;fill:rgb(55%,51%,53%);fill-opacity:1;stroke-width:1;stroke-linecap:butt;stroke-linejoin:miter;stroke:rgb(0%,0%,0%);stroke-opacity:1;stroke-miterlimit:10;" d="M 950 188 L 979.664062 188 L 991.664062 159.785156 L 1003.664062 188 L 1033.332031 188 L 1009.332031 205.4375 L 1017.417969 236.980469 L 991.664062 219.542969 L 965.914062 236.980469 L 978.214844 205.4375 L 950 188 "/>
<path style="fill-rule:nonzero;fill:rgb(55%,51%,53%);fill-opacity:1;stroke-width:1;stroke-linecap:butt;stroke-linejoin:miter;stroke:rgb(0%,0%,0%);stroke-opacity:1;stroke-miterlimit:10;" d="M 380 419 L 409.664062 419 L 421.664062 390.785156 L 433.664062 419 L 463.332031 419 L 439.332031 436.4375 L 447.417969 467.980469 L 421.664062 450.542969 L 395.914062 467.980469 L 408.214844 436.4375 L 380 419 "/>
<path style="fill-rule:nonzero;fill:rgb(55%,51%,53%);fill-opacity:1;stroke-width:1;stroke-linecap:butt;stroke-linejoin:miter;stroke:rgb(0%,0%,0%);stroke-opacity:1;stroke-miterlimit:10;" d="M 161 140 L 190.664062 140 L 202.664062 111.785156 L 214.664062 140 L 244.332031 140 L 220.332031 157.4375 L 228.417969 188.980469 L 202.664062 171.542969 L 176.914062 188.980469 L 189.214844 157.4375 L 161 140 "/>
<path style="fill-rule:nonzero;fill:rgb(55%,51%,53%);fill-opacity:1;stroke-width:1;stroke-linecap:butt;stroke-linejoin:miter;stroke:rgb(0%,0%,0%);stroke-opacity:1;stroke-miterlimit:10;" d="M 839 355 L 868.664062 355 L 880.664062 326.785156 L 892.664062 355 L 922.332031 355 L 898.332031 372.4375 L 906.417969 403.980469 L 880.664062 386.542969 L 854.914062 403.980469 L 867.214844 372.4375 L 839 355 "/>
<path style="fill-rule:nonzero;fill:rgb(55%,51%,53%);fill-opacity:1;stroke-width:1;stroke-linecap:butt;stroke-linejoin:miter;stroke:rgb(0%,0%,0%);stroke-opacity:1;stroke-miterlimit:10;" d="M 589 195 L 618.664062 195 L 630.664062 166.785156 L 642.664062 195 L 672.332031 195 L 648.332031 212.4375 L 656.417969 243.980469 L 630.664062 226.542969 L 604.914062 243.980469 L 617.214844 212.4375 L 589 195 "/>
</g>
</svg>
