<?xml version="1.0" encoding="UTF-8"?>
<svg xmlns="http://www.w3.org/2000/svg" xmlns:xlink="http://www.w3.org/1999/xlink" width="1129pt" height="517pt" viewBox="0 0 1129 517" version="1.1">
<g id="surface931">
<rect x="0" y="0" width="1129" height="517" style="fill:rgb(90%,90%,90%);fill-opacity:1;stroke:none;"/>
<path style="fill-rule:nonzero;fill:rgb(55%,51%,53%);fill-opacity:1;stroke-width:1;stroke-linecap:butt;stroke-linejoin:miter;stroke:rgb(0%,0%,0%);stroke-opacity:1;stroke-miterlimit:10;" d="M 265.214844 146 C 265.214844 157.714844 255.714844 167.214844 244 167.214844 C 232.285156 167.214844 222.785156 157.714844 222.785156 146 C 222.785156 134.285156 232.285156 124.785156 244 124.785156 C 255.714844 124.785156 265.214844 134.285156 265.214844 146 "/>
<path style="fill-rule:nonzero;fill:rgb(67%,100%,18%);fill-opacity:1;stroke-width:1;stroke-linecap:butt;stroke-linejoin:miter;stroke:rgb(0%,0%,0%);stroke-opacity:1;stroke-miterlimit:10;" d="M 173.214844 118 C 173.214844 129.714844 163.714844 139.214844 152 139.214844 C 140.285156 139.214844 130.785156 129.714844 130.785156 118 C 130.785156 106.285156 140.285156 96.785156 152 96.785156 C 163.714844 96.785156 173.214844 106.285156 173.214844 118 "/>
<path style="fill-rule:nonzero;fill:rgb(55%,51%,53%);fill-opacity:1;stroke-width:1;stroke-linecap:butt;stroke-linejoin:miter;stroke:rgb(0%,0%,0%);stroke-opacity:1;stroke-miterlimit:10;" d="M 423.214844 167 C 423.214844 178.714844 413.714844 188.214844 402 188.214844 C 390.285156 188.214844 380.785156 178.714844 380.785156 167 C 380.785156 155.285156 390.285156 145.785156 402 145.785156 C 413.714844 145.785156 423.214844 155.285156 423.214844 167 "/>
<path style="fill-rule:nonzero;fill:rgb(55%,51%,53%);fill-opacity:1;stroke-width:1;stroke-linecap:butt;stroke-linejoin:miter;stroke:rgb(0%,0%,0%);stroke-opacity:1;stroke-miterlimit:10;" d="M 212.214844 400 C 212.214844 411.714844 202.714844 421.214844 191 421.214844 C 179.285156 421.214844 169.785156 411.714844 169.785156 400 C 169.785156 388.285156 179.285156 378.785156 191 378.785156 C 202.714844 378.785156 212.214844 388.285156 212.214844 400 "/>
<path style="fill-rule:nonzero;fill:rgb(55%,51%,53%);fill-opacity:1;stroke-width:1;stroke-linecap:butt;stroke-linejoin:miter;stroke:rgb(0%,0%,0%);stroke-opacity:1;stroke-miterlimit:10;" d="M 183.214844 310 C 183.214844 321.714844 173.714844 331.214844 162 331.214844 C 150.285156 331.214844 140.785156 321.714844 140.785156 310 C 140.785156 298.285156 150.285156 288.785156 162 288.785156 C 173.714844 288.785156 183.214844 298.285156 183.214844 310 "/>
<path style="fill-rule:nonzero;fill:rgb(55%,51%,53%);fill-opacity:1;stroke-width:1;stroke-linecap:butt;stroke-linejoin:miter;stroke:rgb(0%,0%,0%);stroke-opacity:1;stroke-miterlimit:10;" d="M 414.214844 296 C 414.214844 307.714844 404.714844 317.214844 393 317.214844 C 381.285156 317.214844 371.785156 307.714844 371.785156 296 C 371.785156 284.285156 381.285156 274.785156 393 274.785156 C 404.714844 274.785156 414.214844 284.285156 414.214844 296 "/>
<path style="fill-rule:nonzero;fill:rgb(55%,51%,53%);fill-opacity:1;stroke-width:1;stroke-linecap:butt;stroke-linejoin:miter;stroke:rgb(0%,0%,0%);stroke-opacity:1;stroke-miterlimit:10;" d="M 313.214844 386 C 313.214844 397.714844 303.714844 407.214844 292 407.214844 C 280.285156 407.214844 270.785156 397.714844 270.785156 386 C 270.785156 374.285156 280.285156 364.785156 292 364.785156 C 303.714844 364.785156 313.214844 374.285156 313.214844 386 "/>
<path style="fill-rule:nonzero;fill:rgb(55%,51%,53%);fill-opacity:1;stroke-width:1;stroke-linecap:butt;stroke-linejoin:miter;stroke:rgb(0%,0%,0%);stroke-opacity:1;stroke-miterlimit:10;" d="M 114.214844 249 C 114.214844 260.714844 104.714844 270.214844 93 270.214844 C 81.285156 270.214844 71.785156 260.714844 71.785156 249 C 71.785156 237.285156 81.285156 227.785156 93 227.785156 C 104.714844 227.785156 114.214844 237.285156 114.214844 249 "/>
<path style="fill-rule:nonzero;fill:rgb(67%,100%,18%);fill-opacity:1;stroke-width:1;stroke-linecap:butt;stroke-linejoin:miter;stroke:rgb(0%,0%,0%);stroke-opacity:1;stroke-miterlimit:10;" d="M 695 306 L 669.019531 351 L 720.980469 351 L 695 306 "/>
<path style="fill-rule:nonzero;fill:rgb(55%,51%,53%);fill-opacity:1;stroke-width:1;stroke-linecap:butt;stroke-linejoin:miter;stroke:rgb(0%,0%,0%);stroke-opacity:1;stroke-miterlimit:10;" d="M 959 404 L 933.019531 449 L 984.980469 449 L 959 404 "/>
<path style="fill-rule:nonzero;fill:rgb(67%,100%,18%);fill-opacity:1;stroke-width:1;stroke-linecap:butt;stroke-linejoin:miter;stroke:rgb(0%,0%,0%);stroke-opacity:1;stroke-miterlimit:10;" d="M 873 190 L 847.019531 235 L 898.980469 235 L 873 190 "/>
<path style="fill-rule:nonzero;fill:rgb(67%,100%,18%);fill-opacity:1;stroke-width:1;stroke-linecap:butt;stroke-linejoin:miter;stroke:rgb(0%,0%,0%);stroke-opacity:1;stroke-miterlimit:10;" d="M 817 392 L 791.019531 437 L 842.980469 437 L 817 392 "/>
<path style="fill-rule:nonzero;fill:rgb(67%,100%,18%);fill-opacity:1;stroke-width:1;stroke-linecap:butt;stroke-linejoin:miter;stroke:rgb(0%,0%,0%);stroke-opacity:1;stroke-miterlimit:10;" d="M 641 400 L 615.019531 445 L 666.980469 445 L 641 400 "/>
<path style="fill-rule:nonzero;fill:rgb(67%,100%,18%);fill-opacity:1;stroke-width:1;stroke-linecap:butt;stroke-linejoin:miter;stroke:rgb(0%,0%,0%);stroke-opacity:1;stroke-miterlimit:10;" d="M 872 73 L 846.019531 118 L 897.980469 118 L 872 73 "/>
</g>
</svg>
