<?xml version="1.0" encoding="UTF-8"?>
<svg xmlns="http://www.w3.org/2000/svg" xmlns:xlink="http://www.w3.org/1999/xlink" width="1129pt" height="517pt" viewBox="0 0 1129 517" version="1.1">
<g id="surface496">
<rect x="0" y="0" width="1129" height="517" style="fill:rgb(90%,90%,90%);fill-opacity:1;stroke:none;"/>
<path style="fill-rule:nonzero;fill:rgb(100%,51%,0%);fill-opacity:1;stroke-width:1;stroke-linecap:butt;stroke-linejoin:miter;stroke:rgb(0%,0%,0%);stroke-opacity:1;stroke-miterlimit:10;" d="M 163.214844 111 C 163.214844 122.714844 153.714844 132.214844 142 132.214844 C 130.285156 132.214844 120.785156 122.714844 120.785156 111 C 120.785156 99.285156 130.285156 89.785156 142 89.785156 C 153.714844 89.785156 163.214844 99.285156 163.214844 111 "/>
<path style="fill-rule:nonzero;fill:rgb(100%,51%,0%);fill-opacity:1;stroke-width:1;stroke-linecap:butt;stroke-linejoin:miter;stroke:rgb(0%,0%,0%);stroke-opacity:1;stroke-miterlimit:10;" d="M 274 330 L 248.019531 375 L 299.980469 375 L 274 330 "/>
<path style="fill-rule:nonzero;fill:rgb(100%,51%,0%);fill-opacity:1;stroke-width:1;stroke-linecap:butt;stroke-linejoin:miter;stroke:rgb(0%,0%,0%);stroke-opacity:1;stroke-miterlimit:10;" d="M 217.214844 185 C 217.214844 196.714844 207.714844 206.214844 196 206.214844 C 184.285156 206.214844 174.785156 196.714844 174.785156 185 C 174.785156 173.285156 184.285156 163.785156 196 163.785156 C 207.714844 163.785156 217.214844 173.285156 217.214844 185 "/>
<path style="fill-rule:nonzero;fill:rgb(100%,51%,0%);fill-opacity:1;stroke-width:1;stroke-linecap:butt;stroke-linejoin:miter;stroke:rgb(0%,0%,0%);stroke-opacity:1;stroke-miterlimit:10;" d="M 191.214844 279 C 191.214844 290.714844 181.714844 300.214844 170 300.214844 C 158.285156 300.214844 148.785156 290.714844 148.785156 279 C 148.785156 267.285156 158.285156 257.785156 170 257.785156 C 181.714844 257.785156 191.214844 267.285156 191.214844 279 "/>
<path style="fill-rule:nonzero;fill:rgb(100%,51%,0%);fill-opacity:1;stroke-width:1;stroke-linecap:butt;stroke-linejoin:miter;stroke:rgb(0%,0%,0%);stroke-opacity:1;stroke-miterlimit:10;" d="M 370.214844 302 C 370.214844 313.714844 360.714844 323.214844 349 323.214844 C 337.285156 323.214844 327.785156 313.714844 327.785156 302 C 327.785156 290.285156 337.285156 280.785156 349 280.785156 C 360.714844 280.785156 370.214844 290.285156 370.214844 302 "/>
<path style="fill-rule:nonzero;fill:rgb(100%,51%,0%);fill-opacity:1;stroke-width:1;stroke-linecap:butt;stroke-linejoin:miter;stroke:rgb(0%,0%,0%);stroke-opacity:1;stroke-miterlimit:10;" d="M 97.214844 273 C 97.214844 284.714844 87.714844 294.214844 76 294.214844 C 64.285156 294.214844 54.785156 284.714844 54.785156 273 C 54.785156 261.285156 64.285156 251.785156 76 251.785156 C 87.714844 251.785156 97.214844 261.285156 97.214844 273 "/>
<path style="fill-rule:nonzero;fill:rgb(100%,51%,0%);fill-opacity:1;stroke-width:1;stroke-linecap:butt;stroke-linejoin:miter;stroke:rgb(0%,0%,0%);stroke-opacity:1;stroke-miterlimit:10;" d="M 456.214844 85 C 456.214844 96.714844 446.714844 106.214844 435 106.214844 C 423.285156 106.214844 413.785156 96.714844 413.785156 85 C 413.785156 73.285156 423.285156 63.785156 435 63.785156 C 446.714844 63.785156 456.214844 73.285156 456.214844 85 "/>
<path style="fill-rule:nonzero;fill:rgb(100%,51%,0%);fill-opacity:1;stroke-width:1;stroke-linecap:butt;stroke-linejoin:miter;stroke:rgb(0%,0%,0%);stroke-opacity:1;stroke-miterlimit:10;" d="M 392.214844 198 C 392.214844 209.714844 382.714844 219.214844 371 219.214844 C 359.285156 219.214844 349.785156 209.714844 349.785156 198 C 349.785156 186.285156 359.285156 176.785156 371 176.785156 C 382.714844 176.785156 392.214844 186.285156 392.214844 198 "/>
<path style="fill-rule:nonzero;fill:rgb(55%,51%,53%);fill-opacity:1;stroke-width:1;stroke-linecap:butt;stroke-linejoin:miter;stroke:rgb(0%,0%,0%);stroke-opacity:1;stroke-miterlimit:10;" d="M 871 249 L 845.019531 294 L 896.980469 294 L 871 249 "/>
<path style="fill-rule:nonzero;fill:rgb(55%,51%,53%);fill-opacity:1;stroke-width:1;stroke-linecap:butt;stroke-linejoin:miter;stroke:rgb(0%,0%,0%);stroke-opacity:1;stroke-miterlimit:10;" d="M 736.214844 456 C 736.214844 467.714844 726.714844 477.214844 715 477.214844 C 703.285156 477.214844 693.785156 467.714844 693.785156 456 C 693.785156 444.285156 703.285156 434.785156 715 434.785156 C 726.714844 434.785156 736.214844 444.285156 736.214844 456 "/>
<path style="fill-rule:nonzero;fill:rgb(55%,51%,53%);fill-opacity:1;stroke-width:1;stroke-linecap:butt;stroke-linejoin:miter;stroke:rgb(0%,0%,0%);stroke-opacity:1;stroke-miterlimit:10;" d="M 682 39 L 656.019531 84 L 707.980469 84 L 682 39 "/>
<path style="fill-rule:nonzero;fill:rgb(55%,51%,53%);fill-opacity:1;stroke-width:1;stroke-linecap:butt;stroke-linejoin:miter;stroke:rgb(0%,0%,0%);stroke-opacity:1;stroke-miterlimit:10;" d="M 699 138 L 673.019531 183 L 724.980469 183 L 699 138 "/>
<path style="fill-rule:nonzero;fill:rgb(55%,51%,53%);fill-opacity:1;stroke-width:1;stroke-linecap:butt;stroke-linejoin:miter;stroke:rgb(0%,0%,0%);stroke-opacity:1;stroke-miterlimit:10;" d="M 717 272 L 691.019531 317 L 742.980469 317 L 717 272 "/>
<path style="fill-rule:nonzero;fill:rgb(55%,51%,53%);fill-opacity:1;stroke-width:1;stroke-linecap:butt;stroke-linejoin:miter;stroke:rgb(0%,0%,0%);stroke-opacity:1;stroke-miterlimit:10;" d="M 833 42 L 807.019531 87 L 858.980469 87 L 833 42 "/>
<path style="fill-rule:nonzero;fill:rgb(55%,51%,53%);fill-opacity:1;stroke-width:1;stroke-linecap:butt;stroke-linejoin:miter;stroke:rgb(0%,0%,0%);stroke-opacity:1;stroke-miterlimit:10;" d="M 966 348 L 940.019531 393 L 991.980469 393 L 966 348 "/>
</g>
</svg>
