<?xml version="1.0" encoding="UTF-8"?>
<svg xmlns="http://www.w3.org/2000/svg" xmlns:xlink="http://www.w3.org/1999/xlink" width="1179pt" height="517pt" viewBox="0 0 1179 517" version="1.1">
<g id="surface411">
<rect x="0" y="0" width="1179" height="517" style="fill:rgb(90%,90%,90%);fill-opacity:1;stroke:none;"/>
<path style="fill-rule:nonzero;fill:rgb(35%,70%,90%);fill-opacity:1;stroke-width:1;stroke-linecap:butt;stroke-linejoin:miter;stroke:rgb(0%,0%,0%);stroke-opacity:1;stroke-miterlimit:10;" d="M 160.214844 219 C 160.214844 230.714844 150.714844 240.214844 139 240.214844 C 127.285156 240.214844 117.785156 230.714844 117.785156 219 C 117.785156 207.285156 127.285156 197.785156 139 197.785156 C 150.714844 197.785156 160.214844 207.285156 160.214844 219 "/>
<path style="fill-rule:nonzero;fill:rgb(53%,27%,7%);fill-opacity:1;stroke-width:1;stroke-linecap:butt;stroke-linejoin:miter;stroke:rgb(0%,0%,0%);stroke-opacity:1;stroke-miterlimit:10;" d="M 357.214844 94 C 357.214844 105.714844 347.714844 115.214844 336 115.214844 C 324.285156 115.214844 314.785156 105.714844 314.785156 94 C 314.785156 82.285156 324.285156 72.785156 336 72.785156 C 347.714844 72.785156 357.214844 82.285156 357.214844 94 "/>
<path style="fill-rule:nonzero;fill:rgb(35%,70%,90%);fill-opacity:1;stroke-width:1;stroke-linecap:butt;stroke-linejoin:miter;stroke:rgb(0%,0%,0%);stroke-opacity:1;stroke-miterlimit:10;" d="M 368.214844 355 C 368.214844 366.714844 358.714844 376.214844 347 376.214844 C 335.285156 376.214844 325.785156 366.714844 325.785156 355 C 325.785156 343.285156 335.285156 333.785156 347 333.785156 C 358.714844 333.785156 368.214844 343.285156 368.214844 355 "/>
<path style="fill-rule:nonzero;fill:rgb(53%,27%,7%);fill-opacity:1;stroke-width:1;stroke-linecap:butt;stroke-linejoin:miter;stroke:rgb(0%,0%,0%);stroke-opacity:1;stroke-miterlimit:10;" d="M 271.214844 212 C 271.214844 223.714844 261.714844 233.214844 250 233.214844 C 238.285156 233.214844 228.785156 223.714844 228.785156 212 C 228.785156 200.285156 238.285156 190.785156 250 190.785156 C 261.714844 190.785156 271.214844 200.285156 271.214844 212 "/>
<path style="fill-rule:nonzero;fill:rgb(35%,70%,90%);fill-opacity:1;stroke-width:1;stroke-linecap:butt;stroke-linejoin:miter;stroke:rgb(0%,0%,0%);stroke-opacity:1;stroke-miterlimit:10;" d="M 227.214844 96 C 227.214844 107.714844 217.714844 117.214844 206 117.214844 C 194.285156 117.214844 184.785156 107.714844 184.785156 96 C 184.785156 84.285156 194.285156 74.785156 206 74.785156 C 217.714844 74.785156 227.214844 84.285156 227.214844 96 "/>
<path style="fill-rule:nonzero;fill:rgb(35%,70%,90%);fill-opacity:1;stroke-width:1;stroke-linecap:butt;stroke-linejoin:miter;stroke:rgb(0%,0%,0%);stroke-opacity:1;stroke-miterlimit:10;" d="M 442.214844 215 C 442.214844 226.714844 432.714844 236.214844 421 236.214844 C 409.285156 236.214844 399.785156 226.714844 399.785156 215 C 399.785156 203.285156 409.285156 193.785156 421 193.785156 C 432.714844 193.785156 442.214844 203.285156 442.214844 215 "/>
<path style="fill-rule:nonzero;fill:rgb(53%,27%,7%);fill-opacity:1;stroke-width:1;stroke-linecap:butt;stroke-linejoin:miter;stroke:rgb(0%,0%,0%);stroke-opacity:1;stroke-miterlimit:10;" d="M 778.785156 167.785156 L 778.785156 210.214844 L 821.214844 210.214844 L 821.214844 167.785156 L 778.785156 167.785156 "/>
<path style="fill-rule:nonzero;fill:rgb(35%,70%,90%);fill-opacity:1;stroke-width:1;stroke-linecap:butt;stroke-linejoin:miter;stroke:rgb(0%,0%,0%);stroke-opacity:1;stroke-miterlimit:10;" d="M 872.785156 120.785156 L 872.785156 163.214844 L 915.214844 163.214844 L 915.214844 120.785156 L 872.785156 120.785156 "/>
<path style="fill-rule:nonzero;fill:rgb(53%,27%,7%);fill-opacity:1;stroke-width:1;stroke-linecap:butt;stroke-linejoin:miter;stroke:rgb(0%,0%,0%);stroke-opacity:1;stroke-miterlimit:10;" d="M 993.785156 83.785156 L 993.785156 126.214844 L 1036.214844 126.214844 L 1036.214844 83.785156 L 993.785156 83.785156 "/>
<path style="fill-rule:nonzero;fill:rgb(35%,70%,90%);fill-opacity:1;stroke-width:1;stroke-linecap:butt;stroke-linejoin:miter;stroke:rgb(0%,0%,0%);stroke-opacity:1;stroke-miterlimit:10;" d="M 1019.785156 335.785156 L 1019.785156 378.214844 L 1062.214844 378.214844 L 1062.214844 335.785156 L 1019.785156 335.785156 "/>
<path style="fill-rule:nonzero;fill:rgb(53%,27%,7%);fill-opacity:1;stroke-width:1;stroke-linecap:butt;stroke-linejoin:miter;stroke:rgb(0%,0%,0%);stroke-opacity:1;stroke-miterlimit:10;" d="M 925.785156 206.785156 L 925.785156 249.214844 L 968.214844 249.214844 L 968.214844 206.785156 L 925.785156 206.785156 "/>
<path style="fill-rule:nonzero;fill:rgb(53%,27%,7%);fill-opacity:1;stroke-width:1;stroke-linecap:butt;stroke-linejoin:miter;stroke:rgb(0%,0%,0%);stroke-opacity:1;stroke-miterlimit:10;" d="M 878.785156 347.785156 L 878.785156 390.214844 L 921.214844 390.214844 L 921.214844 347.785156 L 878.785156 347.785156 "/>
<path style="fill-rule:nonzero;fill:rgb(53%,27%,7%);fill-opacity:1;stroke-width:1;stroke-linecap:butt;stroke-linejoin:miter;stroke:rgb(0%,0%,0%);stroke-opacity:1;stroke-miterlimit:10;" d="M 683.785156 221.785156 L 683.785156 264.214844 L 726.214844 264.214844 L 726.214844 221.785156 L 683.785156 221.785156 "/>
<path style="fill-rule:nonzero;fill:rgb(53%,27%,7%);fill-opacity:1;stroke-width:1;stroke-linecap:butt;stroke-linejoin:miter;stroke:rgb(0%,0%,0%);stroke-opacity:1;stroke-miterlimit:10;" d="M 760.785156 311.785156 L 760.785156 354.214844 L 803.214844 354.214844 L 803.214844 311.785156 L 760.785156 311.785156 "/>
</g>
</svg>
