<?xml version="1.0" encoding="UTF-8"?>
<svg xmlns="http://www.w3.org/2000/svg" xmlns:xlink="http://www.w3.org/1999/xlink" width="1179pt" height="517pt" viewBox="0 0 1179 517" version="1.1">
<g id="surface166">
<rect x="0" y="0" width="1179" height="517" style="fill:rgb(90%,90%,90%);fill-opacity:1;stroke:none;"/>
<path style="fill-rule:nonzero;fill:rgb(55%,51%,53%);fill-opacity:1;stroke-width:1;stroke-linecap:butt;stroke-linejoin:miter;stroke:rgb(0%,0%,0%);stroke-opacity:1;stroke-miterlimit:10;" d="M 215.214844 293 C 215.214844 304.714844 205.714844 314.214844 194 314.214844 C 182.285156 314.214844 172.785156 304.714844 172.785156 293 C 172.785156 281.285156 182.285156 271.785156 194 271.785156 C 205.714844 271.785156 215.214844 281.285156 215.214844 293 "/>
<path style="fill-rule:nonzero;fill:rgb(55%,51%,53%);fill-opacity:1;stroke-width:1;stroke-linecap:butt;stroke-linejoin:miter;stroke:rgb(0%,0%,0%);stroke-opacity:1;stroke-miterlimit:10;" d="M 96 260 L 70.019531 305 L 121.980469 305 L 96 260 "/>
<path style="fill-rule:nonzero;fill:rgb(55%,51%,53%);fill-opacity:1;stroke-width:1;stroke-linecap:butt;stroke-linejoin:miter;stroke:rgb(0%,0%,0%);stroke-opacity:1;stroke-miterlimit:10;" d="M 434.214844 137 C 434.214844 148.714844 424.714844 158.214844 413 158.214844 C 401.285156 158.214844 391.785156 148.714844 391.785156 137 C 391.785156 125.285156 401.285156 115.785156 413 115.785156 C 424.714844 115.785156 434.214844 125.285156 434.214844 137 "/>
<path style="fill-rule:nonzero;fill:rgb(55%,51%,53%);fill-opacity:1;stroke-width:1;stroke-linecap:butt;stroke-linejoin:miter;stroke:rgb(0%,0%,0%);stroke-opacity:1;stroke-miterlimit:10;" d="M 251 87 L 225.019531 132 L 276.980469 132 L 251 87 "/>
<path style="fill-rule:nonzero;fill:rgb(55%,51%,53%);fill-opacity:1;stroke-width:1;stroke-linecap:butt;stroke-linejoin:miter;stroke:rgb(0%,0%,0%);stroke-opacity:1;stroke-miterlimit:10;" d="M 150.214844 402 C 150.214844 413.714844 140.714844 423.214844 129 423.214844 C 117.285156 423.214844 107.785156 413.714844 107.785156 402 C 107.785156 390.285156 117.285156 380.785156 129 380.785156 C 140.714844 380.785156 150.214844 390.285156 150.214844 402 "/>
<path style="fill-rule:nonzero;fill:rgb(55%,51%,53%);fill-opacity:1;stroke-width:1;stroke-linecap:butt;stroke-linejoin:miter;stroke:rgb(0%,0%,0%);stroke-opacity:1;stroke-miterlimit:10;" d="M 131.214844 135 C 131.214844 146.714844 121.714844 156.214844 110 156.214844 C 98.285156 156.214844 88.785156 146.714844 88.785156 135 C 88.785156 123.285156 98.285156 113.785156 110 113.785156 C 121.714844 113.785156 131.214844 123.285156 131.214844 135 "/>
<path style="fill-rule:nonzero;fill:rgb(55%,51%,53%);fill-opacity:1;stroke-width:1;stroke-linecap:butt;stroke-linejoin:miter;stroke:rgb(0%,0%,0%);stroke-opacity:1;stroke-miterlimit:10;" d="M 340.214844 201 C 340.214844 212.714844 330.714844 222.214844 319 222.214844 C 307.285156 222.214844 297.785156 212.714844 297.785156 201 C 297.785156 189.285156 307.285156 179.785156 319 179.785156 C 330.714844 179.785156 340.214844 189.285156 340.214844 201 "/>
<path style="fill-rule:nonzero;fill:rgb(53%,27%,7%);fill-opacity:1;stroke-width:1;stroke-linecap:butt;stroke-linejoin:miter;stroke:rgb(0%,0%,0%);stroke-opacity:1;stroke-miterlimit:10;" d="M 756 250 L 730.019531 295 L 781.980469 295 L 756 250 "/>
<path style="fill-rule:nonzero;fill:rgb(53%,27%,7%);fill-opacity:1;stroke-width:1;stroke-linecap:butt;stroke-linejoin:miter;stroke:rgb(0%,0%,0%);stroke-opacity:1;stroke-miterlimit:10;" d="M 791.214844 396 C 791.214844 407.714844 781.714844 417.214844 770 417.214844 C 758.285156 417.214844 748.785156 407.714844 748.785156 396 C 748.785156 384.285156 758.285156 374.785156 770 374.785156 C 781.714844 374.785156 791.214844 384.285156 791.214844 396 "/>
<path style="fill-rule:nonzero;fill:rgb(53%,27%,7%);fill-opacity:1;stroke-width:1;stroke-linecap:butt;stroke-linejoin:miter;stroke:rgb(0%,0%,0%);stroke-opacity:1;stroke-miterlimit:10;" d="M 978 368 L 952.019531 413 L 1003.980469 413 L 978 368 "/>
<path style="fill-rule:nonzero;fill:rgb(53%,27%,7%);fill-opacity:1;stroke-width:1;stroke-linecap:butt;stroke-linejoin:miter;stroke:rgb(0%,0%,0%);stroke-opacity:1;stroke-miterlimit:10;" d="M 995.214844 147 C 995.214844 158.714844 985.714844 168.214844 974 168.214844 C 962.285156 168.214844 952.785156 158.714844 952.785156 147 C 952.785156 135.285156 962.285156 125.785156 974 125.785156 C 985.714844 125.785156 995.214844 135.285156 995.214844 147 "/>
</g>
</svg>
