<?xml version="1.0" encoding="UTF-8"?>
<svg xmlns="http://www.w3.org/2000/svg" xmlns:xlink="http://www.w3.org/1999/xlink" width="1129pt" height="517pt" viewBox="0 0 1129 517" version="1.1">
<g id="surface576">
<rect x="0" y="0" width="1129" height="517" style="fill:rgb(90%,90%,90%);fill-opacity:1;stroke:none;"/>
<path style="fill-rule:nonzero;fill:rgb(35%,70%,90%);fill-opacity:1;stroke-width:1;stroke-linecap:butt;stroke-linejoin:miter;stroke:rgb(0%,0%,0%);stroke-opacity:1;stroke-miterlimit:10;" d="M 637 226 L 666.664062 226 L 678.664062 197.785156 L 690.664062 226 L 720.332031 226 L 696.332031 243.4375 L 704.417969 274.980469 L 678.664062 257.542969 L 652.914062 274.980469 L 665.214844 243.4375 L 637 226 "/>
<path style="fill-rule:nonzero;fill:rgb(35%,70%,90%);fill-opacity:1;stroke-width:1;stroke-linecap:butt;stroke-linejoin:miter;stroke:rgb(0%,0%,0%);stroke-opacity:1;stroke-miterlimit:10;" d="M 922 229 L 951.664062 229 L 963.664062 200.785156 L 975.664062 229 L 1005.332031 229 L 981.332031 246.4375 L 989.417969 277.980469 L 963.664062 260.542969 L 937.914062 277.980469 L 950.214844 246.4375 L 922 229 "/>
<path style="fill-rule:nonzero;fill:rgb(35%,70%,90%);fill-opacity:1;stroke-width:1;stroke-linecap:butt;stroke-linejoin:miter;stroke:rgb(0%,0%,0%);stroke-opacity:1;stroke-miterlimit:10;" d="M 345 318 L 374.664062 318 L 386.664062 289.785156 L 398.664062 318 L 428.332031 318 L 404.332031 335.4375 L 412.417969 366.980469 L 386.664062 349.542969 L 360.914062 366.980469 L 373.214844 335.4375 L 345 318 "/>
<path style="fill-rule:nonzero;fill:rgb(35%,70%,90%);fill-opacity:1;stroke-width:1;stroke-linecap:butt;stroke-linejoin:miter;stroke:rgb(0%,0%,0%);stroke-opacity:1;stroke-miterlimit:10;" d="M 106 395 L 135.664062 395 L 147.664062 366.785156 L 159.664062 395 L 189.332031 395 L 165.332031 412.4375 L 173.417969 443.980469 L 147.664062 426.542969 L 121.914062 443.980469 L 134.214844 412.4375 L 106 395 "/>
<path style="fill-rule:nonzero;fill:rgb(35%,70%,90%);fill-opacity:1;stroke-width:1;stroke-linecap:butt;stroke-linejoin:miter;stroke:rgb(0%,0%,0%);stroke-opacity:1;stroke-miterlimit:10;" d="M 336 184 L 365.664062 184 L 377.664062 155.785156 L 389.664062 184 L 419.332031 184 L 395.332031 201.4375 L 403.417969 232.980469 L 377.664062 215.542969 L 351.914062 232.980469 L 364.214844 201.4375 L 336 184 "/>
<path style="fill-rule:nonzero;fill:rgb(35%,70%,90%);fill-opacity:1;stroke-width:1;stroke-linecap:butt;stroke-linejoin:miter;stroke:rgb(0%,0%,0%);stroke-opacity:1;stroke-miterlimit:10;" d="M 587 127 L 616.664062 127 L 628.664062 98.785156 L 640.664062 127 L 670.332031 127 L 646.332031 144.4375 L 654.417969 175.980469 L 628.664062 158.542969 L 602.914062 175.980469 L 615.214844 144.4375 L 587 127 "/>
<path style="fill-rule:nonzero;fill:rgb(53%,27%,7%);fill-opacity:1;stroke-width:1;stroke-linecap:butt;stroke-linejoin:miter;stroke:rgb(0%,0%,0%);stroke-opacity:1;stroke-miterlimit:10;" d="M 930 426 L 904.019531 471 L 955.980469 471 L 930 426 "/>
<path style="fill-rule:nonzero;fill:rgb(53%,27%,7%);fill-opacity:1;stroke-width:1;stroke-linecap:butt;stroke-linejoin:miter;stroke:rgb(0%,0%,0%);stroke-opacity:1;stroke-miterlimit:10;" d="M 962 333 L 936.019531 378 L 987.980469 378 L 962 333 "/>
<path style="fill-rule:nonzero;fill:rgb(53%,27%,7%);fill-opacity:1;stroke-width:1;stroke-linecap:butt;stroke-linejoin:miter;stroke:rgb(0%,0%,0%);stroke-opacity:1;stroke-miterlimit:10;" d="M 812 392 L 786.019531 437 L 837.980469 437 L 812 392 "/>
<path style="fill-rule:nonzero;fill:rgb(53%,27%,7%);fill-opacity:1;stroke-width:1;stroke-linecap:butt;stroke-linejoin:miter;stroke:rgb(0%,0%,0%);stroke-opacity:1;stroke-miterlimit:10;" d="M 294 43 L 268.019531 88 L 319.980469 88 L 294 43 "/>
</g>
</svg>
