<?xml version="1.0" encoding="UTF-8"?>
<svg xmlns="http://www.w3.org/2000/svg" xmlns:xlink="http://www.w3.org/1999/xlink" width="1129pt" height="517pt" viewBox="0 0 1129 517" version="1.1">
<g id="surface786">
<rect x="0" y="0" width="1129" height="517" style="fill:rgb(90%,90%,90%);fill-opacity:1;stroke:none;"/>
<path style="fill-rule:nonzero;fill:rgb(100%,51%,0%);fill-opacity:1;stroke-width:1;stroke-linecap:butt;stroke-linejoin:miter;stroke:rgb(0%,0%,0%);stroke-opacity:1;stroke-miterlimit:10;" d="M 802.214844 126 C 802.214844 137.714844 792.714844 147.214844 781 147.214844 C 769.285156 147.214844 759.785156 137.714844 759.785156 126 C 759.785156 114.285156 769.285156 104.785156 781 104.785156 C 792.714844 104.785156 802.214844 114.285156 802.214844 126 "/>
<path style="fill-rule:nonzero;fill:rgb(100%,51%,0%);fill-opacity:1;stroke-width:1;stroke-linecap:butt;stroke-linejoin:miter;stroke:rgb(0%,0%,0%);stroke-opacity:1;stroke-miterlimit:10;" d="M 353.214844 163 C 353.214844 174.714844 343.714844 184.214844 332 184.214844 C 320.285156 184.214844 310.785156 174.714844 310.785156 163 C 310.785156 151.285156 320.285156 141.785156 332 141.785156 C 343.714844 141.785156 353.214844 151.285156 353.214844 163 "/>
<path style="fill-rule:nonzero;fill:rgb(100%,51%,0%);fill-opacity:1;stroke-width:1;stroke-linecap:butt;stroke-linejoin:miter;stroke:rgb(0%,0%,0%);stroke-opacity:1;stroke-miterlimit:10;" d="M 634.214844 183 C 634.214844 194.714844 624.714844 204.214844 613 204.214844 C 601.285156 204.214844 591.785156 194.714844 591.785156 183 C 591.785156 171.285156 601.285156 161.785156 613 161.785156 C 624.714844 161.785156 634.214844 171.285156 634.214844 183 "/>
<path style="fill-rule:nonzero;fill:rgb(100%,51%,0%);fill-opacity:1;stroke-width:1;stroke-linecap:butt;stroke-linejoin:miter;stroke:rgb(0%,0%,0%);stroke-opacity:1;stroke-miterlimit:10;" d="M 904.214844 432 C 904.214844 443.714844 894.714844 453.214844 883 453.214844 C 871.285156 453.214844 861.785156 443.714844 861.785156 432 C 861.785156 420.285156 871.285156 410.785156 883 410.785156 C 894.714844 410.785156 904.214844 420.285156 904.214844 432 "/>
<path style="fill-rule:nonzero;fill:rgb(100%,51%,0%);fill-opacity:1;stroke-width:1;stroke-linecap:butt;stroke-linejoin:miter;stroke:rgb(0%,0%,0%);stroke-opacity:1;stroke-miterlimit:10;" d="M 160.214844 51 C 160.214844 62.714844 150.714844 72.214844 139 72.214844 C 127.285156 72.214844 117.785156 62.714844 117.785156 51 C 117.785156 39.285156 127.285156 29.785156 139 29.785156 C 150.714844 29.785156 160.214844 39.285156 160.214844 51 "/>
<path style="fill-rule:nonzero;fill:rgb(35%,70%,90%);fill-opacity:1;stroke-width:1;stroke-linecap:butt;stroke-linejoin:miter;stroke:rgb(0%,0%,0%);stroke-opacity:1;stroke-miterlimit:10;" d="M 532 363 L 561.664062 363 L 573.664062 334.785156 L 585.664062 363 L 615.332031 363 L 591.332031 380.4375 L 599.417969 411.980469 L 573.664062 394.542969 L 547.914062 411.980469 L 560.214844 380.4375 L 532 363 "/>
<path style="fill-rule:nonzero;fill:rgb(35%,70%,90%);fill-opacity:1;stroke-width:1;stroke-linecap:butt;stroke-linejoin:miter;stroke:rgb(0%,0%,0%);stroke-opacity:1;stroke-miterlimit:10;" d="M 516 82 L 545.664062 82 L 557.664062 53.785156 L 569.664062 82 L 599.332031 82 L 575.332031 99.4375 L 583.417969 130.980469 L 557.664062 113.542969 L 531.914062 130.980469 L 544.214844 99.4375 L 516 82 "/>
<path style="fill-rule:nonzero;fill:rgb(35%,70%,90%);fill-opacity:1;stroke-width:1;stroke-linecap:butt;stroke-linejoin:miter;stroke:rgb(0%,0%,0%);stroke-opacity:1;stroke-miterlimit:10;" d="M 950 268 L 979.664062 268 L 991.664062 239.785156 L 1003.664062 268 L 1033.332031 268 L 1009.332031 285.4375 L 1017.417969 316.980469 L 991.664062 299.542969 L 965.914062 316.980469 L 978.214844 285.4375 L 950 268 "/>
<path style="fill-rule:nonzero;fill:rgb(35%,70%,90%);fill-opacity:1;stroke-width:1;stroke-linecap:butt;stroke-linejoin:miter;stroke:rgb(0%,0%,0%);stroke-opacity:1;stroke-miterlimit:10;" d="M 382 353 L 411.664062 353 L 423.664062 324.785156 L 435.664062 353 L 465.332031 353 L 441.332031 370.4375 L 449.417969 401.980469 L 423.664062 384.542969 L 397.914062 401.980469 L 410.214844 370.4375 L 382 353 "/>
<path style="fill-rule:nonzero;fill:rgb(35%,70%,90%);fill-opacity:1;stroke-width:1;stroke-linecap:butt;stroke-linejoin:miter;stroke:rgb(0%,0%,0%);stroke-opacity:1;stroke-miterlimit:10;" d="M 723 433 L 752.664062 433 L 764.664062 404.785156 L 776.664062 433 L 806.332031 433 L 782.332031 450.4375 L 790.417969 481.980469 L 764.664062 464.542969 L 738.914062 481.980469 L 751.214844 450.4375 L 723 433 "/>
<path style="fill-rule:nonzero;fill:rgb(35%,70%,90%);fill-opacity:1;stroke-width:1;stroke-linecap:butt;stroke-linejoin:miter;stroke:rgb(0%,0%,0%);stroke-opacity:1;stroke-miterlimit:10;" d="M 958 78 L 987.664062 78 L 999.664062 49.785156 L 1011.664062 78 L 1041.332031 78 L 1017.332031 95.4375 L 1025.417969 126.980469 L 999.664062 109.542969 L 973.914062 126.980469 L 986.214844 95.4375 L 958 78 "/>
<path style="fill-rule:nonzero;fill:rgb(35%,70%,90%);fill-opacity:1;stroke-width:1;stroke-linecap:butt;stroke-linejoin:miter;stroke:rgb(0%,0%,0%);stroke-opacity:1;stroke-miterlimit:10;" d="M 653 352 L 682.664062 352 L 694.664062 323.785156 L 706.664062 352 L 736.332031 352 L 712.332031 369.4375 L 720.417969 400.980469 L 694.664062 383.542969 L 668.914062 400.980469 L 681.214844 369.4375 L 653 352 "/>
<path style="fill-rule:nonzero;fill:rgb(35%,70%,90%);fill-opacity:1;stroke-width:1;stroke-linecap:butt;stroke-linejoin:miter;stroke:rgb(0%,0%,0%);stroke-opacity:1;stroke-miterlimit:10;" d="M 403 441 L 432.664062 441 L 444.664062 412.785156 L 456.664062 441 L 486.332031 441 L 462.332031 458.4375 L 470.417969 489.980469 L 444.664062 472.542969 L 418.914062 489.980469 L 431.214844 458.4375 L 403 441 "/>
</g>
</svg>
