<?xml version="1.0" encoding="UTF-8"?>
<svg xmlns="http://www.w3.org/2000/svg" xmlns:xlink="http://www.w3.org/1999/xlink" width="1129pt" height="517pt" viewBox="0 0 1129 517" version="1.1">
<g id="surface66">
<rect x="0" y="0" width="1129" height="517" style="fill:rgb(90%,90%,90%);fill-opacity:1;stroke:none;"/>
<path style="fill-rule:nonzero;fill:rgb(35%,70%,90%);fill-opacity:1;stroke-width:1;stroke-linecap:butt;stroke-linejoin:miter;stroke:rgb(0%,0%,0%);stroke-opacity:1;stroke-miterlimit:10;" d="M 698 301 L 727.664062 301 L 739.664062 272.785156 L 751.664062 301 L 781.332031 301 L 757.332031 318.4375 L 765.417969 349.980469 L 739.664062 332.542969 L 713.914062 349.980469 L 726.214844 318.4375 L 698 301 "/>
<path style="fill-rule:nonzero;fill:rgb(35%,70%,90%);fill-opacity:1;stroke-width:1;stroke-linecap:butt;stroke-linejoin:miter;stroke:rgb(0%,0%,0%);stroke-opacity:1;stroke-miterlimit:10;" d="M 577 65 L 606.664062 65 L 618.664062 36.785156 L 630.664062 65 L 660.332031 65 L 636.332031 82.4375 L 644.417969 113.980469 L 618.664062 96.542969 L 592.914062 113.980469 L 605.214844 82.4375 L 577 65 "/>
<path style="fill-rule:nonzero;fill:rgb(35%,70%,90%);fill-opacity:1;stroke-width:1;stroke-linecap:butt;stroke-linejoin:miter;stroke:rgb(0%,0%,0%);stroke-opacity:1;stroke-miterlimit:10;" d="M 472 76 L 501.664062 76 L 513.664062 47.785156 L 525.664062 76 L 555.332031 76 L 531.332031 93.4375 L 539.417969 124.980469 L 513.664062 107.542969 L 487.914062 124.980469 L 500.214844 93.4375 L 472 76 "/>
<path style="fill-rule:nonzero;fill:rgb(35%,70%,90%);fill-opacity:1;stroke-width:1;stroke-linecap:butt;stroke-linejoin:miter;stroke:rgb(0%,0%,0%);stroke-opacity:1;stroke-miterlimit:10;" d="M 570 335 L 599.664062 335 L 611.664062 306.785156 L 623.664062 335 L 653.332031 335 L 629.332031 352.4375 L 637.417969 383.980469 L 611.664062 366.542969 L 585.914062 383.980469 L 598.214844 352.4375 L 570 335 "/>
<path style="fill-rule:nonzero;fill:rgb(35%,70%,90%);fill-opacity:1;stroke-width:1;stroke-linecap:butt;stroke-linejoin:miter;stroke:rgb(0%,0%,0%);stroke-opacity:1;stroke-miterlimit:10;" d="M 88 146 L 117.664062 146 L 129.664062 117.785156 L 141.664062 146 L 171.332031 146 L 147.332031 163.4375 L 155.417969 194.980469 L 129.664062 177.542969 L 103.914062 194.980469 L 116.214844 163.4375 L 88 146 "/>
<path style="fill-rule:nonzero;fill:rgb(35%,70%,90%);fill-opacity:1;stroke-width:1;stroke-linecap:butt;stroke-linejoin:miter;stroke:rgb(0%,0%,0%);stroke-opacity:1;stroke-miterlimit:10;" d="M 227 238 L 256.664062 238 L 268.664062 209.785156 L 280.664062 238 L 310.332031 238 L 286.332031 255.4375 L 294.417969 286.980469 L 268.664062 269.542969 L 242.914062 286.980469 L 255.214844 255.4375 L 227 238 "/>
<path style="fill-rule:nonzero;fill:rgb(35%,70%,90%);fill-opacity:1;stroke-width:1;stroke-linecap:butt;stroke-linejoin:miter;stroke:rgb(0%,0%,0%);stroke-opacity:1;stroke-miterlimit:10;" d="M 804 111 L 833.664062 111 L 845.664062 82.785156 L 857.664062 111 L 887.332031 111 L 863.332031 128.4375 L 871.417969 159.980469 L 845.664062 142.542969 L 819.914062 159.980469 L 832.214844 128.4375 L 804 111 "/>
<path style="fill-rule:nonzero;fill:rgb(55%,51%,53%);fill-opacity:1;stroke-width:1;stroke-linecap:butt;stroke-linejoin:miter;stroke:rgb(0%,0%,0%);stroke-opacity:1;stroke-miterlimit:10;" d="M 328 419 L 302.019531 464 L 353.980469 464 L 328 419 "/>
<path style="fill-rule:nonzero;fill:rgb(55%,51%,53%);fill-opacity:1;stroke-width:1;stroke-linecap:butt;stroke-linejoin:miter;stroke:rgb(0%,0%,0%);stroke-opacity:1;stroke-miterlimit:10;" d="M 957 408 L 931.019531 453 L 982.980469 453 L 957 408 "/>
<path style="fill-rule:nonzero;fill:rgb(55%,51%,53%);fill-opacity:1;stroke-width:1;stroke-linecap:butt;stroke-linejoin:miter;stroke:rgb(0%,0%,0%);stroke-opacity:1;stroke-miterlimit:10;" d="M 650 414 L 624.019531 459 L 675.980469 459 L 650 414 "/>
<path style="fill-rule:nonzero;fill:rgb(55%,51%,53%);fill-opacity:1;stroke-width:1;stroke-linecap:butt;stroke-linejoin:miter;stroke:rgb(0%,0%,0%);stroke-opacity:1;stroke-miterlimit:10;" d="M 913 329 L 887.019531 374 L 938.980469 374 L 913 329 "/>
</g>
</svg>
