<?xml version="1.0" encoding="UTF-8"?>
<svg xmlns="http://www.w3.org/2000/svg" xmlns:xlink="http://www.w3.org/1999/xlink" width="1179pt" height="517pt" viewBox="0 0 1179 517" version="1.1">
<g id="surface696">
<rect x="0" y="0" width="1179" height="517" style="fill:rgb(90%,90%,90%);fill-opacity:1;stroke:none;"/>
<path style="fill-rule:nonzero;fill:rgb(55%,51%,53%);fill-opacity:1;stroke-width:1;stroke-linecap:butt;stroke-linejoin:miter;stroke:rgb(0%,0%,0%);stroke-opacity:1;stroke-miterlimit:10;" d="M 110 232 L 139.664062 232 L 151.664062 203.785156 L 163.664062 232 L 193.332031 232 L 169.332031 249.4375 L 177.417969 280.980469 L 151.664062 263.542969 L 125.914062 280.980469 L 138.214844 249.4375 L 110 232 "/>
<path style="fill-rule:nonzero;fill:rgb(55%,51%,53%);fill-opacity:1;stroke-width:1;stroke-linecap:butt;stroke-linejoin:miter;stroke:rgb(0%,0%,0%);stroke-opacity:1;stroke-miterlimit:10;" d="M 337 117 L 366.664062 117 L 378.664062 88.785156 L 390.664062 117 L 420.332031 117 L 396.332031 134.4375 L 404.417969 165.980469 L 378.664062 148.542969 L 352.914062 165.980469 L 365.214844 134.4375 L 337 117 "/>
<path style="fill-rule:nonzero;fill:rgb(53%,27%,7%);fill-opacity:1;stroke-width:1;stroke-linecap:butt;stroke-linejoin:miter;stroke:rgb(0%,0%,0%);stroke-opacity:1;stroke-miterlimit:10;" d="M 261 229 L 235.019531 274 L 286.980469 274 L 261 229 "/>
<path style="fill-rule:nonzero;fill:rgb(53%,27%,7%);fill-opacity:1;stroke-width:1;stroke-linecap:butt;stroke-linejoin:miter;stroke:rgb(0%,0%,0%);stroke-opacity:1;stroke-miterlimit:10;" d="M 370 362 L 344.019531 407 L 395.980469 407 L 370 362 "/>
<path style="fill-rule:nonzero;fill:rgb(55%,51%,53%);fill-opacity:1;stroke-width:1;stroke-linecap:butt;stroke-linejoin:miter;stroke:rgb(0%,0%,0%);stroke-opacity:1;stroke-miterlimit:10;" d="M 144 96 L 173.664062 96 L 185.664062 67.785156 L 197.664062 96 L 227.332031 96 L 203.332031 113.4375 L 211.417969 144.980469 L 185.664062 127.542969 L 159.914062 144.980469 L 172.214844 113.4375 L 144 96 "/>
<path style="fill-rule:nonzero;fill:rgb(53%,27%,7%);fill-opacity:1;stroke-width:1;stroke-linecap:butt;stroke-linejoin:miter;stroke:rgb(0%,0%,0%);stroke-opacity:1;stroke-miterlimit:10;" d="M 422 202 L 396.019531 247 L 447.980469 247 L 422 202 "/>
<path style="fill-rule:nonzero;fill:rgb(53%,27%,7%);fill-opacity:1;stroke-width:1;stroke-linecap:butt;stroke-linejoin:miter;stroke:rgb(0%,0%,0%);stroke-opacity:1;stroke-miterlimit:10;" d="M 1022 332 L 996.019531 377 L 1047.980469 377 L 1022 332 "/>
<path style="fill-rule:nonzero;fill:rgb(53%,27%,7%);fill-opacity:1;stroke-width:1;stroke-linecap:butt;stroke-linejoin:miter;stroke:rgb(0%,0%,0%);stroke-opacity:1;stroke-miterlimit:10;" d="M 1002 236 L 976.019531 281 L 1027.980469 281 L 1002 236 "/>
<path style="fill-rule:nonzero;fill:rgb(55%,51%,53%);fill-opacity:1;stroke-width:1;stroke-linecap:butt;stroke-linejoin:miter;stroke:rgb(0%,0%,0%);stroke-opacity:1;stroke-miterlimit:10;" d="M 788 91 L 817.664062 91 L 829.664062 62.785156 L 841.664062 91 L 871.332031 91 L 847.332031 108.4375 L 855.417969 139.980469 L 829.664062 122.542969 L 803.914062 139.980469 L 816.214844 108.4375 L 788 91 "/>
<path style="fill-rule:nonzero;fill:rgb(55%,51%,53%);fill-opacity:1;stroke-width:1;stroke-linecap:butt;stroke-linejoin:miter;stroke:rgb(0%,0%,0%);stroke-opacity:1;stroke-miterlimit:10;" d="M 755 393 L 784.664062 393 L 796.664062 364.785156 L 808.664062 393 L 838.332031 393 L 814.332031 410.4375 L 822.417969 441.980469 L 796.664062 424.542969 L 770.914062 441.980469 L 783.214844 410.4375 L 755 393 "/>
</g>
</svg>
