<?xml version="1.0" encoding="UTF-8"?>
<svg xmlns="http://www.w3.org/2000/svg" xmlns:xlink="http://www.w3.org/1999/xlink" width="1179pt" height="517pt" viewBox="0 0 1179 517" version="1.1">
<g id="surface106">
<rect x="0" y="0" width="1179" height="517" style="fill:rgb(90%,90%,90%);fill-opacity:1;stroke:none;"/>
<path style="fill-rule:nonzero;fill:rgb(100%,51%,0%);fill-opacity:1;stroke-width:1;stroke-linecap:butt;stroke-linejoin:miter;stroke:rgb(0%,0%,0%);stroke-opacity:1;stroke-miterlimit:10;" d="M 317.214844 218 C 317.214844 229.714844 307.714844 239.214844 296 239.214844 C 284.285156 239.214844 274.785156 229.714844 274.785156 218 C 274.785156 206.285156 284.285156 196.785156 296 196.785156 C 307.714844 196.785156 317.214844 206.285156 317.214844 218 "/>
<path style="fill-rule:nonzero;fill:rgb(100%,51%,0%);fill-opacity:1;stroke-width:1;stroke-linecap:butt;stroke-linejoin:miter;stroke:rgb(0%,0%,0%);stroke-opacity:1;stroke-miterlimit:10;" d="M 376 99 L 350.019531 144 L 401.980469 144 L 376 99 "/>
<path style="fill-rule:nonzero;fill:rgb(100%,51%,0%);fill-opacity:1;stroke-width:1;stroke-linecap:butt;stroke-linejoin:miter;stroke:rgb(0%,0%,0%);stroke-opacity:1;stroke-miterlimit:10;" d="M 181.214844 220 C 181.214844 231.714844 171.714844 241.214844 160 241.214844 C 148.285156 241.214844 138.785156 231.714844 138.785156 220 C 138.785156 208.285156 148.285156 198.785156 160 198.785156 C 171.714844 198.785156 181.214844 208.285156 181.214844 220 "/>
<path style="fill-rule:nonzero;fill:rgb(100%,51%,0%);fill-opacity:1;stroke-width:1;stroke-linecap:butt;stroke-linejoin:miter;stroke:rgb(0%,0%,0%);stroke-opacity:1;stroke-miterlimit:10;" d="M 110.214844 281 C 110.214844 292.714844 100.714844 302.214844 89 302.214844 C 77.285156 302.214844 67.785156 292.714844 67.785156 281 C 67.785156 269.285156 77.285156 259.785156 89 259.785156 C 100.714844 259.785156 110.214844 269.285156 110.214844 281 "/>
<path style="fill-rule:nonzero;fill:rgb(100%,51%,0%);fill-opacity:1;stroke-width:1;stroke-linecap:butt;stroke-linejoin:miter;stroke:rgb(0%,0%,0%);stroke-opacity:1;stroke-miterlimit:10;" d="M 135.214844 99 C 135.214844 110.714844 125.714844 120.214844 114 120.214844 C 102.285156 120.214844 92.785156 110.714844 92.785156 99 C 92.785156 87.285156 102.285156 77.785156 114 77.785156 C 125.714844 77.785156 135.214844 87.285156 135.214844 99 "/>
<path style="fill-rule:nonzero;fill:rgb(100%,51%,0%);fill-opacity:1;stroke-width:1;stroke-linecap:butt;stroke-linejoin:miter;stroke:rgb(0%,0%,0%);stroke-opacity:1;stroke-miterlimit:10;" d="M 424.214844 352 C 424.214844 363.714844 414.714844 373.214844 403 373.214844 C 391.285156 373.214844 381.785156 363.714844 381.785156 352 C 381.785156 340.285156 391.285156 330.785156 403 330.785156 C 414.714844 330.785156 424.214844 340.285156 424.214844 352 "/>
<path style="fill-rule:nonzero;fill:rgb(100%,51%,0%);fill-opacity:1;stroke-width:1;stroke-linecap:butt;stroke-linejoin:miter;stroke:rgb(0%,0%,0%);stroke-opacity:1;stroke-miterlimit:10;" d="M 123.214844 413 C 123.214844 424.714844 113.714844 434.214844 102 434.214844 C 90.285156 434.214844 80.785156 424.714844 80.785156 413 C 80.785156 401.285156 90.285156 391.785156 102 391.785156 C 113.714844 391.785156 123.214844 401.285156 123.214844 413 "/>
<path style="fill-rule:nonzero;fill:rgb(53%,27%,7%);fill-opacity:1;stroke-width:1;stroke-linecap:butt;stroke-linejoin:miter;stroke:rgb(0%,0%,0%);stroke-opacity:1;stroke-miterlimit:10;" d="M 987 348 L 961.019531 393 L 1012.980469 393 L 987 348 "/>
<path style="fill-rule:nonzero;fill:rgb(53%,27%,7%);fill-opacity:1;stroke-width:1;stroke-linecap:butt;stroke-linejoin:miter;stroke:rgb(0%,0%,0%);stroke-opacity:1;stroke-miterlimit:10;" d="M 905.214844 415 C 905.214844 426.714844 895.714844 436.214844 884 436.214844 C 872.285156 436.214844 862.785156 426.714844 862.785156 415 C 862.785156 403.285156 872.285156 393.785156 884 393.785156 C 895.714844 393.785156 905.214844 403.285156 905.214844 415 "/>
<path style="fill-rule:nonzero;fill:rgb(53%,27%,7%);fill-opacity:1;stroke-width:1;stroke-linecap:butt;stroke-linejoin:miter;stroke:rgb(0%,0%,0%);stroke-opacity:1;stroke-miterlimit:10;" d="M 1006 250 L 980.019531 295 L 1031.980469 295 L 1006 250 "/>
<path style="fill-rule:nonzero;fill:rgb(53%,27%,7%);fill-opacity:1;stroke-width:1;stroke-linecap:butt;stroke-linejoin:miter;stroke:rgb(0%,0%,0%);stroke-opacity:1;stroke-miterlimit:10;" d="M 761 312 L 735.019531 357 L 786.980469 357 L 761 312 "/>
<path style="fill-rule:nonzero;fill:rgb(53%,27%,7%);fill-opacity:1;stroke-width:1;stroke-linecap:butt;stroke-linejoin:miter;stroke:rgb(0%,0%,0%);stroke-opacity:1;stroke-miterlimit:10;" d="M 987 118 L 961.019531 163 L 1012.980469 163 L 987 118 "/>
<path style="fill-rule:nonzero;fill:rgb(53%,27%,7%);fill-opacity:1;stroke-width:1;stroke-linecap:butt;stroke-linejoin:miter;stroke:rgb(0%,0%,0%);stroke-opacity:1;stroke-miterlimit:10;" d="M 879 77 L 853.019531 122 L 904.980469 122 L 879 77 "/>
<path style="fill-rule:nonzero;fill:rgb(53%,27%,7%);fill-opacity:1;stroke-width:1;stroke-linecap:butt;stroke-linejoin:miter;stroke:rgb(0%,0%,0%);stroke-opacity:1;stroke-miterlimit:10;" d="M 811 144 L 785.019531 189 L 836.980469 189 L 811 144 "/>
<path style="fill-rule:nonzero;fill:rgb(53%,27%,7%);fill-opacity:1;stroke-width:1;stroke-linecap:butt;stroke-linejoin:miter;stroke:rgb(0%,0%,0%);stroke-opacity:1;stroke-miterlimit:10;" d="M 704 198 L 678.019531 243 L 729.980469 243 L 704 198 "/>
</g>
</svg>
