<?xml version="1.0" encoding="UTF-8"?>
<svg xmlns="http://www.w3.org/2000/svg" xmlns:xlink="http://www.w3.org/1999/xlink" width="1179pt" height="517pt" viewBox="0 0 1179 517" version="1.1">
<g id="surface466">
<rect x="0" y="0" width="1179" height="517" style="fill:rgb(90%,90%,90%);fill-opacity:1;stroke:none;"/>
<path style="fill-rule:nonzero;fill:rgb(100%,51%,0%);fill-opacity:1;stroke-width:1;stroke-linecap:butt;stroke-linejoin:miter;stroke:rgb(0%,0%,0%);stroke-opacity:1;stroke-miterlimit:10;" d="M 235.214844 130 C 235.214844 141.714844 225.714844 151.214844 214 151.214844 C 202.285156 151.214844 192.785156 141.714844 192.785156 130 C 192.785156 118.285156 202.285156 108.785156 214 108.785156 C 225.714844 108.785156 235.214844 118.285156 235.214844 130 "/>
<path style="fill-rule:nonzero;fill:rgb(100%,51%,0%);fill-opacity:1;stroke-width:1;stroke-linecap:butt;stroke-linejoin:miter;stroke:rgb(0%,0%,0%);stroke-opacity:1;stroke-miterlimit:10;" d="M 200 257 L 174.019531 302 L 225.980469 302 L 200 257 "/>
<path style="fill-rule:nonzero;fill:rgb(100%,51%,0%);fill-opacity:1;stroke-width:1;stroke-linecap:butt;stroke-linejoin:miter;stroke:rgb(0%,0%,0%);stroke-opacity:1;stroke-miterlimit:10;" d="M 99 265 L 73.019531 310 L 124.980469 310 L 99 265 "/>
<path style="fill-rule:nonzero;fill:rgb(100%,51%,0%);fill-opacity:1;stroke-width:1;stroke-linecap:butt;stroke-linejoin:miter;stroke:rgb(0%,0%,0%);stroke-opacity:1;stroke-miterlimit:10;" d="M 313.214844 376 C 313.214844 387.714844 303.714844 397.214844 292 397.214844 C 280.285156 397.214844 270.785156 387.714844 270.785156 376 C 270.785156 364.285156 280.285156 354.785156 292 354.785156 C 303.714844 354.785156 313.214844 364.285156 313.214844 376 "/>
<path style="fill-rule:nonzero;fill:rgb(53%,27%,7%);fill-opacity:1;stroke-width:1;stroke-linecap:butt;stroke-linejoin:miter;stroke:rgb(0%,0%,0%);stroke-opacity:1;stroke-miterlimit:10;" d="M 976 127 L 950.019531 172 L 1001.980469 172 L 976 127 "/>
<path style="fill-rule:nonzero;fill:rgb(53%,27%,7%);fill-opacity:1;stroke-width:1;stroke-linecap:butt;stroke-linejoin:miter;stroke:rgb(0%,0%,0%);stroke-opacity:1;stroke-miterlimit:10;" d="M 925.214844 221 C 925.214844 232.714844 915.714844 242.214844 904 242.214844 C 892.285156 242.214844 882.785156 232.714844 882.785156 221 C 882.785156 209.285156 892.285156 199.785156 904 199.785156 C 915.714844 199.785156 925.214844 209.285156 925.214844 221 "/>
<path style="fill-rule:nonzero;fill:rgb(53%,27%,7%);fill-opacity:1;stroke-width:1;stroke-linecap:butt;stroke-linejoin:miter;stroke:rgb(0%,0%,0%);stroke-opacity:1;stroke-miterlimit:10;" d="M 829.214844 302 C 829.214844 313.714844 819.714844 323.214844 808 323.214844 C 796.285156 323.214844 786.785156 313.714844 786.785156 302 C 786.785156 290.285156 796.285156 280.785156 808 280.785156 C 819.714844 280.785156 829.214844 290.285156 829.214844 302 "/>
<path style="fill-rule:nonzero;fill:rgb(53%,27%,7%);fill-opacity:1;stroke-width:1;stroke-linecap:butt;stroke-linejoin:miter;stroke:rgb(0%,0%,0%);stroke-opacity:1;stroke-miterlimit:10;" d="M 957 286 L 931.019531 331 L 982.980469 331 L 957 286 "/>
</g>
</svg>
