<?xml version="1.0" encoding="UTF-8"?>
<svg xmlns="http://www.w3.org/2000/svg" xmlns:xlink="http://www.w3.org/1999/xlink" width="1179pt" height="517pt" viewBox="0 0 1179 517" version="1.1">
<g id="surface606">
<rect x="0" y="0" width="1179" height="517" style="fill:rgb(90%,90%,90%);fill-opacity:1;stroke:none;"/>
<path style="fill-rule:nonzero;fill:rgb(35%,70%,90%);fill-opacity:1;stroke-width:1;stroke-linecap:butt;stroke-linejoin:miter;stroke:rgb(0%,0%,0%);stroke-opacity:1;stroke-miterlimit:10;" d="M 120 162 L 149.664062 162 L 161.664062 133.785156 L 173.664062 162 L 203.332031 162 L 179.332031 179.4375 L 187.417969 210.980469 L 161.664062 193.542969 L 135.914062 210.980469 L 148.214844 179.4375 L 120 162 "/>
<path style="fill-rule:nonzero;fill:rgb(55%,51%,53%);fill-opacity:1;stroke-width:1;stroke-linecap:butt;stroke-linejoin:miter;stroke:rgb(0%,0%,0%);stroke-opacity:1;stroke-miterlimit:10;" d="M 238 211 L 212.019531 256 L 263.980469 256 L 238 211 "/>
<path style="fill-rule:nonzero;fill:rgb(35%,70%,90%);fill-opacity:1;stroke-width:1;stroke-linecap:butt;stroke-linejoin:miter;stroke:rgb(0%,0%,0%);stroke-opacity:1;stroke-miterlimit:10;" d="M 89 300 L 118.664062 300 L 130.664062 271.785156 L 142.664062 300 L 172.332031 300 L 148.332031 317.4375 L 156.417969 348.980469 L 130.664062 331.542969 L 104.914062 348.980469 L 117.214844 317.4375 L 89 300 "/>
<path style="fill-rule:nonzero;fill:rgb(55%,51%,53%);fill-opacity:1;stroke-width:1;stroke-linecap:butt;stroke-linejoin:miter;stroke:rgb(0%,0%,0%);stroke-opacity:1;stroke-miterlimit:10;" d="M 417 161 L 391.019531 206 L 442.980469 206 L 417 161 "/>
<path style="fill-rule:nonzero;fill:rgb(35%,70%,90%);fill-opacity:1;stroke-width:1;stroke-linecap:butt;stroke-linejoin:miter;stroke:rgb(0%,0%,0%);stroke-opacity:1;stroke-miterlimit:10;" d="M 1044 196 L 1073.664062 196 L 1085.664062 167.785156 L 1097.664062 196 L 1127.332031 196 L 1103.332031 213.4375 L 1111.417969 244.980469 L 1085.664062 227.542969 L 1059.914062 244.980469 L 1072.214844 213.4375 L 1044 196 "/>
<path style="fill-rule:nonzero;fill:rgb(35%,70%,90%);fill-opacity:1;stroke-width:1;stroke-linecap:butt;stroke-linejoin:miter;stroke:rgb(0%,0%,0%);stroke-opacity:1;stroke-miterlimit:10;" d="M 791 303 L 820.664062 303 L 832.664062 274.785156 L 844.664062 303 L 874.332031 303 L 850.332031 320.4375 L 858.417969 351.980469 L 832.664062 334.542969 L 806.914062 351.980469 L 819.214844 320.4375 L 791 303 "/>
<path style="fill-rule:nonzero;fill:rgb(55%,51%,53%);fill-opacity:1;stroke-width:1;stroke-linecap:butt;stroke-linejoin:miter;stroke:rgb(0%,0%,0%);stroke-opacity:1;stroke-miterlimit:10;" d="M 828 190 L 802.019531 235 L 853.980469 235 L 828 190 "/>
<path style="fill-rule:nonzero;fill:rgb(55%,51%,53%);fill-opacity:1;stroke-width:1;stroke-linecap:butt;stroke-linejoin:miter;stroke:rgb(0%,0%,0%);stroke-opacity:1;stroke-miterlimit:10;" d="M 748 61 L 722.019531 106 L 773.980469 106 L 748 61 "/>
</g>
</svg>
