<?xml version="1.0" encoding="UTF-8"?>
<svg xmlns="http://www.w3.org/2000/svg" xmlns:xlink="http://www.w3.org/1999/xlink" width="1129pt" height="517pt" viewBox="0 0 1129 517" version="1.1">
<g id="surface846">
<rect x="0" y="0" width="1129" height="517" style="fill:rgb(90%,90%,90%);fill-opacity:1;stroke:none;"/>
<path style="fill-rule:nonzero;fill:rgb(100%,0%,0%);fill-opacity:1;stroke-width:1;stroke-linecap:butt;stroke-linejoin:miter;stroke:rgb(0%,0%,0%);stroke-opacity:1;stroke-miterlimit:10;" d="M 420 409.601562 C 420 395.199219 396 395.199219 396 409.601562 C 396 424 420 426.398438 420 438.398438 C 420 426.398438 444 424 444 409.601562 C 444 395.199219 420 395.199219 420 409.601562 "/>
<path style="fill-rule:nonzero;fill:rgb(100%,0%,0%);fill-opacity:1;stroke-width:1;stroke-linecap:butt;stroke-linejoin:miter;stroke:rgb(0%,0%,0%);stroke-opacity:1;stroke-miterlimit:10;" d="M 161 325.601562 C 161 311.199219 137 311.199219 137 325.601562 C 137 340 161 342.398438 161 354.398438 C 161 342.398438 185 340 185 325.601562 C 185 311.199219 161 311.199219 161 325.601562 "/>
<path style="fill-rule:nonzero;fill:rgb(100%,0%,0%);fill-opacity:1;stroke-width:1;stroke-linecap:butt;stroke-linejoin:miter;stroke:rgb(0%,0%,0%);stroke-opacity:1;stroke-miterlimit:10;" d="M 431 284.601562 C 431 270.199219 407 270.199219 407 284.601562 C 407 299 431 301.398438 431 313.398438 C 431 301.398438 455 299 455 284.601562 C 455 270.199219 431 270.199219 431 284.601562 "/>
<path style="fill-rule:nonzero;fill:rgb(100%,0%,0%);fill-opacity:1;stroke-width:1;stroke-linecap:butt;stroke-linejoin:miter;stroke:rgb(0%,0%,0%);stroke-opacity:1;stroke-miterlimit:10;" d="M 952 379.601562 C 952 365.199219 928 365.199219 928 379.601562 C 928 394 952 396.398438 952 408.398438 C 952 396.398438 976 394 976 379.601562 C 976 365.199219 952 365.199219 952 379.601562 "/>
<path style="fill-rule:nonzero;fill:rgb(100%,0%,0%);fill-opacity:1;stroke-width:1;stroke-linecap:butt;stroke-linejoin:miter;stroke:rgb(0%,0%,0%);stroke-opacity:1;stroke-miterlimit:10;" d="M 359 111.601562 C 359 97.199219 335 97.199219 335 111.601562 C 335 126 359 128.398438 359 140.398438 C 359 128.398438 383 126 383 111.601562 C 383 97.199219 359 97.199219 359 111.601562 "/>
<path style="fill-rule:nonzero;fill:rgb(0%,0%,0%);fill-opacity:1;stroke-width:1;stroke-linecap:butt;stroke-linejoin:miter;stroke:rgb(0%,0%,0%);stroke-opacity:1;stroke-miterlimit:10;" d="M 270 184 L 250 184 L 250 194 L 270 194 L 270 214 L 280 214 L 280 194 L 300 194 L 300 184 L 280 184 L 280 164 L 270 164 L 270 184 "/>
<path style="fill-rule:nonzero;fill:rgb(0%,0%,0%);fill-opacity:1;stroke-width:1;stroke-linecap:butt;stroke-linejoin:miter;stroke:rgb(0%,0%,0%);stroke-opacity:1;stroke-miterlimit:10;" d="M 494 202 L 474 202 L 474 212 L 494 212 L 494 232 L 504 232 L 504 212 L 524 212 L 524 202 L 504 202 L 504 182 L 494 182 L 494 202 "/>
<path style="fill-rule:nonzero;fill:rgb(0%,0%,0%);fill-opacity:1;stroke-width:1;stroke-linecap:butt;stroke-linejoin:miter;stroke:rgb(0%,0%,0%);stroke-opacity:1;stroke-miterlimit:10;" d="M 287 53 L 267 53 L 267 63 L 287 63 L 287 83 L 297 83 L 297 63 L 317 63 L 317 53 L 297 53 L 297 33 L 287 33 L 287 53 "/>
<path style="fill-rule:nonzero;fill:rgb(0%,0%,0%);fill-opacity:1;stroke-width:1;stroke-linecap:butt;stroke-linejoin:miter;stroke:rgb(0%,0%,0%);stroke-opacity:1;stroke-miterlimit:10;" d="M 182 83 L 162 83 L 162 93 L 182 93 L 182 113 L 192 113 L 192 93 L 212 93 L 212 83 L 192 83 L 192 63 L 182 63 L 182 83 "/>
<path style="fill-rule:nonzero;fill:rgb(0%,0%,0%);fill-opacity:1;stroke-width:1;stroke-linecap:butt;stroke-linejoin:miter;stroke:rgb(0%,0%,0%);stroke-opacity:1;stroke-miterlimit:10;" d="M 810 300 L 790 300 L 790 310 L 810 310 L 810 330 L 820 330 L 820 310 L 840 310 L 840 300 L 820 300 L 820 280 L 810 280 L 810 300 "/>
<path style="fill-rule:nonzero;fill:rgb(0%,0%,0%);fill-opacity:1;stroke-width:1;stroke-linecap:butt;stroke-linejoin:miter;stroke:rgb(0%,0%,0%);stroke-opacity:1;stroke-miterlimit:10;" d="M 63 456 L 43 456 L 43 466 L 63 466 L 63 486 L 73 486 L 73 466 L 93 466 L 93 456 L 73 456 L 73 436 L 63 436 L 63 456 "/>
</g>
</svg>
