<?xml version="1.0" encoding="UTF-8"?>
<svg xmlns="http://www.w3.org/2000/svg" xmlns:xlink="http://www.w3.org/1999/xlink" width="1129pt" height="517pt" viewBox="0 0 1129 517" version="1.1">
<g id="surface351">
<rect x="0" y="0" width="1129" height="517" style="fill:rgb(90%,90%,90%);fill-opacity:1;stroke:none;"/>
<path style="fill-rule:nonzero;fill:rgb(55%,51%,53%);fill-opacity:1;stroke-width:1;stroke-linecap:butt;stroke-linejoin:miter;stroke:rgb(0%,0%,0%);stroke-opacity:1;stroke-miterlimit:10;" d="M 302.214844 403 C 302.214844 414.714844 292.714844 424.214844 281 424.214844 C 269.285156 424.214844 259.785156 414.714844 259.785156 403 C 259.785156 391.285156 269.285156 381.785156 281 381.785156 C 292.714844 381.785156 302.214844 391.285156 302.214844 403 "/>
<path style="fill-rule:nonzero;fill:rgb(55%,51%,53%);fill-opacity:1;stroke-width:1;stroke-linecap:butt;stroke-linejoin:miter;stroke:rgb(0%,0%,0%);stroke-opacity:1;stroke-miterlimit:10;" d="M 133.214844 299 C 133.214844 310.714844 123.714844 320.214844 112 320.214844 C 100.285156 320.214844 90.785156 310.714844 90.785156 299 C 90.785156 287.285156 100.285156 277.785156 112 277.785156 C 123.714844 277.785156 133.214844 287.285156 133.214844 299 "/>
<path style="fill-rule:nonzero;fill:rgb(55%,51%,53%);fill-opacity:1;stroke-width:1;stroke-linecap:butt;stroke-linejoin:miter;stroke:rgb(0%,0%,0%);stroke-opacity:1;stroke-miterlimit:10;" d="M 119.785156 189.785156 L 119.785156 232.214844 L 162.214844 232.214844 L 162.214844 189.785156 L 119.785156 189.785156 "/>
<path style="fill-rule:nonzero;fill:rgb(55%,51%,53%);fill-opacity:1;stroke-width:1;stroke-linecap:butt;stroke-linejoin:miter;stroke:rgb(0%,0%,0%);stroke-opacity:1;stroke-miterlimit:10;" d="M 345.785156 333.785156 L 345.785156 376.214844 L 388.214844 376.214844 L 388.214844 333.785156 L 345.785156 333.785156 "/>
<path style="fill-rule:nonzero;fill:rgb(53%,27%,7%);fill-opacity:1;stroke-width:1;stroke-linecap:butt;stroke-linejoin:miter;stroke:rgb(0%,0%,0%);stroke-opacity:1;stroke-miterlimit:10;" d="M 605.785156 250.785156 L 605.785156 293.214844 L 648.214844 293.214844 L 648.214844 250.785156 L 605.785156 250.785156 "/>
<path style="fill-rule:nonzero;fill:rgb(53%,27%,7%);fill-opacity:1;stroke-width:1;stroke-linecap:butt;stroke-linejoin:miter;stroke:rgb(0%,0%,0%);stroke-opacity:1;stroke-miterlimit:10;" d="M 854.785156 426.785156 L 854.785156 469.214844 L 897.214844 469.214844 L 897.214844 426.785156 L 854.785156 426.785156 "/>
<path style="fill-rule:nonzero;fill:rgb(53%,27%,7%);fill-opacity:1;stroke-width:1;stroke-linecap:butt;stroke-linejoin:miter;stroke:rgb(0%,0%,0%);stroke-opacity:1;stroke-miterlimit:10;" d="M 888.214844 138 C 888.214844 149.714844 878.714844 159.214844 867 159.214844 C 855.285156 159.214844 845.785156 149.714844 845.785156 138 C 845.785156 126.285156 855.285156 116.785156 867 116.785156 C 878.714844 116.785156 888.214844 126.285156 888.214844 138 "/>
<path style="fill-rule:nonzero;fill:rgb(53%,27%,7%);fill-opacity:1;stroke-width:1;stroke-linecap:butt;stroke-linejoin:miter;stroke:rgb(0%,0%,0%);stroke-opacity:1;stroke-miterlimit:10;" d="M 1004.214844 333 C 1004.214844 344.714844 994.714844 354.214844 983 354.214844 C 971.285156 354.214844 961.785156 344.714844 961.785156 333 C 961.785156 321.285156 971.285156 311.785156 983 311.785156 C 994.714844 311.785156 1004.214844 321.285156 1004.214844 333 "/>
<path style="fill-rule:nonzero;fill:rgb(53%,27%,7%);fill-opacity:1;stroke-width:1;stroke-linecap:butt;stroke-linejoin:miter;stroke:rgb(0%,0%,0%);stroke-opacity:1;stroke-miterlimit:10;" d="M 860.785156 256.785156 L 860.785156 299.214844 L 903.214844 299.214844 L 903.214844 256.785156 L 860.785156 256.785156 "/>
<path style="fill-rule:nonzero;fill:rgb(53%,27%,7%);fill-opacity:1;stroke-width:1;stroke-linecap:butt;stroke-linejoin:miter;stroke:rgb(0%,0%,0%);stroke-opacity:1;stroke-miterlimit:10;" d="M 943.785156 198.785156 L 943.785156 241.214844 L 986.214844 241.214844 L 986.214844 198.785156 L 943.785156 198.785156 "/>
</g>
</svg>
