<?xml version="1.0" encoding="UTF-8"?>
<svg xmlns="http://www.w3.org/2000/svg" xmlns:xlink="http://www.w3.org/1999/xlink" width="1129pt" height="517pt" viewBox="0 0 1129 517" version="1.1">
<g id="surface461">
<rect x="0" y="0" width="1129" height="517" style="fill:rgb(90%,90%,90%);fill-opacity:1;stroke:none;"/>
<path style="fill-rule:nonzero;fill:rgb(100%,51%,0%);fill-opacity:1;stroke-width:1;stroke-linecap:butt;stroke-linejoin:miter;stroke:rgb(0%,0%,0%);stroke-opacity:1;stroke-miterlimit:10;" d="M 57 316 L 86.664062 316 L 98.664062 287.785156 L 110.664062 316 L 140.332031 316 L 116.332031 333.4375 L 124.417969 364.980469 L 98.664062 347.542969 L 72.914062 364.980469 L 85.214844 333.4375 L 57 316 "/>
<path style="fill-rule:nonzero;fill:rgb(100%,51%,0%);fill-opacity:1;stroke-width:1;stroke-linecap:butt;stroke-linejoin:miter;stroke:rgb(0%,0%,0%);stroke-opacity:1;stroke-miterlimit:10;" d="M 215 294 L 244.664062 294 L 256.664062 265.785156 L 268.664062 294 L 298.332031 294 L 274.332031 311.4375 L 282.417969 342.980469 L 256.664062 325.542969 L 230.914062 342.980469 L 243.214844 311.4375 L 215 294 "/>
<path style="fill-rule:nonzero;fill:rgb(100%,51%,0%);fill-opacity:1;stroke-width:1;stroke-linecap:butt;stroke-linejoin:miter;stroke:rgb(0%,0%,0%);stroke-opacity:1;stroke-miterlimit:10;" d="M 66.785156 146.785156 L 66.785156 189.214844 L 109.214844 189.214844 L 109.214844 146.785156 L 66.785156 146.785156 "/>
<path style="fill-rule:nonzero;fill:rgb(100%,51%,0%);fill-opacity:1;stroke-width:1;stroke-linecap:butt;stroke-linejoin:miter;stroke:rgb(0%,0%,0%);stroke-opacity:1;stroke-miterlimit:10;" d="M 153.785156 399.785156 L 153.785156 442.214844 L 196.214844 442.214844 L 196.214844 399.785156 L 153.785156 399.785156 "/>
<path style="fill-rule:nonzero;fill:rgb(100%,51%,0%);fill-opacity:1;stroke-width:1;stroke-linecap:butt;stroke-linejoin:miter;stroke:rgb(0%,0%,0%);stroke-opacity:1;stroke-miterlimit:10;" d="M 53 415 L 82.664062 415 L 94.664062 386.785156 L 106.664062 415 L 136.332031 415 L 112.332031 432.4375 L 120.417969 463.980469 L 94.664062 446.542969 L 68.914062 463.980469 L 81.214844 432.4375 L 53 415 "/>
<path style="fill-rule:nonzero;fill:rgb(53%,27%,7%);fill-opacity:1;stroke-width:1;stroke-linecap:butt;stroke-linejoin:miter;stroke:rgb(0%,0%,0%);stroke-opacity:1;stroke-miterlimit:10;" d="M 856.785156 223.785156 L 856.785156 266.214844 L 899.214844 266.214844 L 899.214844 223.785156 L 856.785156 223.785156 "/>
<path style="fill-rule:nonzero;fill:rgb(53%,27%,7%);fill-opacity:1;stroke-width:1;stroke-linecap:butt;stroke-linejoin:miter;stroke:rgb(0%,0%,0%);stroke-opacity:1;stroke-miterlimit:10;" d="M 735.785156 86.785156 L 735.785156 129.214844 L 778.214844 129.214844 L 778.214844 86.785156 L 735.785156 86.785156 "/>
<path style="fill-rule:nonzero;fill:rgb(53%,27%,7%);fill-opacity:1;stroke-width:1;stroke-linecap:butt;stroke-linejoin:miter;stroke:rgb(0%,0%,0%);stroke-opacity:1;stroke-miterlimit:10;" d="M 665 63 L 694.664062 63 L 706.664062 34.785156 L 718.664062 63 L 748.332031 63 L 724.332031 80.4375 L 732.417969 111.980469 L 706.664062 94.542969 L 680.914062 111.980469 L 693.214844 80.4375 L 665 63 "/>
<path style="fill-rule:nonzero;fill:rgb(53%,27%,7%);fill-opacity:1;stroke-width:1;stroke-linecap:butt;stroke-linejoin:miter;stroke:rgb(0%,0%,0%);stroke-opacity:1;stroke-miterlimit:10;" d="M 769 428 L 798.664062 428 L 810.664062 399.785156 L 822.664062 428 L 852.332031 428 L 828.332031 445.4375 L 836.417969 476.980469 L 810.664062 459.542969 L 784.914062 476.980469 L 797.214844 445.4375 L 769 428 "/>
<path style="fill-rule:nonzero;fill:rgb(53%,27%,7%);fill-opacity:1;stroke-width:1;stroke-linecap:butt;stroke-linejoin:miter;stroke:rgb(0%,0%,0%);stroke-opacity:1;stroke-miterlimit:10;" d="M 846.785156 323.785156 L 846.785156 366.214844 L 889.214844 366.214844 L 889.214844 323.785156 L 846.785156 323.785156 "/>
</g>
</svg>
