<?xml version="1.0" encoding="UTF-8"?>
<svg xmlns="http://www.w3.org/2000/svg" xmlns:xlink="http://www.w3.org/1999/xlink" width="1179pt" height="517pt" viewBox="0 0 1179 517" version="1.1">
<g id="surface121">
<rect x="0" y="0" width="1179" height="517" style="fill:rgb(90%,90%,90%);fill-opacity:1;stroke:none;"/>
<path style="fill-rule:nonzero;fill:rgb(55%,51%,53%);fill-opacity:1;stroke-width:1;stroke-linecap:butt;stroke-linejoin:miter;stroke:rgb(0%,0%,0%);stroke-opacity:1;stroke-miterlimit:10;" d="M 354.214844 132 C 354.214844 143.714844 344.714844 153.214844 333 153.214844 C 321.285156 153.214844 311.785156 143.714844 311.785156 132 C 311.785156 120.285156 321.285156 110.785156 333 110.785156 C 344.714844 110.785156 354.214844 120.285156 354.214844 132 "/>
<path style="fill-rule:nonzero;fill:rgb(100%,51%,0%);fill-opacity:1;stroke-width:1;stroke-linecap:butt;stroke-linejoin:miter;stroke:rgb(0%,0%,0%);stroke-opacity:1;stroke-miterlimit:10;" d="M 400 318 L 429.664062 318 L 441.664062 289.785156 L 453.664062 318 L 483.332031 318 L 459.332031 335.4375 L 467.417969 366.980469 L 441.664062 349.542969 L 415.914062 366.980469 L 428.214844 335.4375 L 400 318 "/>
<path style="fill-rule:nonzero;fill:rgb(100%,51%,0%);fill-opacity:1;stroke-width:1;stroke-linecap:butt;stroke-linejoin:miter;stroke:rgb(0%,0%,0%);stroke-opacity:1;stroke-miterlimit:10;" d="M 238 260 L 267.664062 260 L 279.664062 231.785156 L 291.664062 260 L 321.332031 260 L 297.332031 277.4375 L 305.417969 308.980469 L 279.664062 291.542969 L 253.914062 308.980469 L 266.214844 277.4375 L 238 260 "/>
<path style="fill-rule:nonzero;fill:rgb(100%,51%,0%);fill-opacity:1;stroke-width:1;stroke-linecap:butt;stroke-linejoin:miter;stroke:rgb(0%,0%,0%);stroke-opacity:1;stroke-miterlimit:10;" d="M 102 353 L 131.664062 353 L 143.664062 324.785156 L 155.664062 353 L 185.332031 353 L 161.332031 370.4375 L 169.417969 401.980469 L 143.664062 384.542969 L 117.914062 401.980469 L 130.214844 370.4375 L 102 353 "/>
<path style="fill-rule:nonzero;fill:rgb(100%,51%,0%);fill-opacity:1;stroke-width:1;stroke-linecap:butt;stroke-linejoin:miter;stroke:rgb(0%,0%,0%);stroke-opacity:1;stroke-miterlimit:10;" d="M 130 107 L 159.664062 107 L 171.664062 78.785156 L 183.664062 107 L 213.332031 107 L 189.332031 124.4375 L 197.417969 155.980469 L 171.664062 138.542969 L 145.914062 155.980469 L 158.214844 124.4375 L 130 107 "/>
<path style="fill-rule:nonzero;fill:rgb(55%,51%,53%);fill-opacity:1;stroke-width:1;stroke-linecap:butt;stroke-linejoin:miter;stroke:rgb(0%,0%,0%);stroke-opacity:1;stroke-miterlimit:10;" d="M 372.214844 231 C 372.214844 242.714844 362.714844 252.214844 351 252.214844 C 339.285156 252.214844 329.785156 242.714844 329.785156 231 C 329.785156 219.285156 339.285156 209.785156 351 209.785156 C 362.714844 209.785156 372.214844 219.285156 372.214844 231 "/>
<path style="fill-rule:nonzero;fill:rgb(55%,51%,53%);fill-opacity:1;stroke-width:1;stroke-linecap:butt;stroke-linejoin:miter;stroke:rgb(0%,0%,0%);stroke-opacity:1;stroke-miterlimit:10;" d="M 119.214844 259 C 119.214844 270.714844 109.714844 280.214844 98 280.214844 C 86.285156 280.214844 76.785156 270.714844 76.785156 259 C 76.785156 247.285156 86.285156 237.785156 98 237.785156 C 109.714844 237.785156 119.214844 247.285156 119.214844 259 "/>
<path style="fill-rule:nonzero;fill:rgb(55%,51%,53%);fill-opacity:1;stroke-width:1;stroke-linecap:butt;stroke-linejoin:miter;stroke:rgb(0%,0%,0%);stroke-opacity:1;stroke-miterlimit:10;" d="M 317.214844 384 C 317.214844 395.714844 307.714844 405.214844 296 405.214844 C 284.285156 405.214844 274.785156 395.714844 274.785156 384 C 274.785156 372.285156 284.285156 362.785156 296 362.785156 C 307.714844 362.785156 317.214844 372.285156 317.214844 384 "/>
<path style="fill-rule:nonzero;fill:rgb(55%,51%,53%);fill-opacity:1;stroke-width:1;stroke-linecap:butt;stroke-linejoin:miter;stroke:rgb(0%,0%,0%);stroke-opacity:1;stroke-miterlimit:10;" d="M 993.214844 313 C 993.214844 324.714844 983.714844 334.214844 972 334.214844 C 960.285156 334.214844 950.785156 324.714844 950.785156 313 C 950.785156 301.285156 960.285156 291.785156 972 291.785156 C 983.714844 291.785156 993.214844 301.285156 993.214844 313 "/>
<path style="fill-rule:nonzero;fill:rgb(100%,51%,0%);fill-opacity:1;stroke-width:1;stroke-linecap:butt;stroke-linejoin:miter;stroke:rgb(0%,0%,0%);stroke-opacity:1;stroke-miterlimit:10;" d="M 837 181 L 866.664062 181 L 878.664062 152.785156 L 890.664062 181 L 920.332031 181 L 896.332031 198.4375 L 904.417969 229.980469 L 878.664062 212.542969 L 852.914062 229.980469 L 865.214844 198.4375 L 837 181 "/>
<path style="fill-rule:nonzero;fill:rgb(100%,51%,0%);fill-opacity:1;stroke-width:1;stroke-linecap:butt;stroke-linejoin:miter;stroke:rgb(0%,0%,0%);stroke-opacity:1;stroke-miterlimit:10;" d="M 796 406 L 825.664062 406 L 837.664062 377.785156 L 849.664062 406 L 879.332031 406 L 855.332031 423.4375 L 863.417969 454.980469 L 837.664062 437.542969 L 811.914062 454.980469 L 824.214844 423.4375 L 796 406 "/>
<path style="fill-rule:nonzero;fill:rgb(100%,51%,0%);fill-opacity:1;stroke-width:1;stroke-linecap:butt;stroke-linejoin:miter;stroke:rgb(0%,0%,0%);stroke-opacity:1;stroke-miterlimit:10;" d="M 749 225 L 778.664062 225 L 790.664062 196.785156 L 802.664062 225 L 832.332031 225 L 808.332031 242.4375 L 816.417969 273.980469 L 790.664062 256.542969 L 764.914062 273.980469 L 777.214844 242.4375 L 749 225 "/>
</g>
</svg>
