<?xml version="1.0" encoding="UTF-8"?>
<svg xmlns="http://www.w3.org/2000/svg" xmlns:xlink="http://www.w3.org/1999/xlink" width="1129pt" height="517pt" viewBox="0 0 1129 517" version="1.1">
<g id="surface406">
<rect x="0" y="0" width="1129" height="517" style="fill:rgb(90%,90%,90%);fill-opacity:1;stroke:none;"/>
<path style="fill-rule:nonzero;fill:rgb(35%,70%,90%);fill-opacity:1;stroke-width:1;stroke-linecap:butt;stroke-linejoin:miter;stroke:rgb(0%,0%,0%);stroke-opacity:1;stroke-miterlimit:10;" d="M 306.214844 261 C 306.214844 272.714844 296.714844 282.214844 285 282.214844 C 273.285156 282.214844 263.785156 272.714844 263.785156 261 C 263.785156 249.285156 273.285156 239.785156 285 239.785156 C 296.714844 239.785156 306.214844 249.285156 306.214844 261 "/>
<path style="fill-rule:nonzero;fill:rgb(35%,70%,90%);fill-opacity:1;stroke-width:1;stroke-linecap:butt;stroke-linejoin:miter;stroke:rgb(0%,0%,0%);stroke-opacity:1;stroke-miterlimit:10;" d="M 106.214844 112 C 106.214844 123.714844 96.714844 133.214844 85 133.214844 C 73.285156 133.214844 63.785156 123.714844 63.785156 112 C 63.785156 100.285156 73.285156 90.785156 85 90.785156 C 96.714844 90.785156 106.214844 100.285156 106.214844 112 "/>
<path style="fill-rule:nonzero;fill:rgb(35%,70%,90%);fill-opacity:1;stroke-width:1;stroke-linecap:butt;stroke-linejoin:miter;stroke:rgb(0%,0%,0%);stroke-opacity:1;stroke-miterlimit:10;" d="M 273.214844 416 C 273.214844 427.714844 263.714844 437.214844 252 437.214844 C 240.285156 437.214844 230.785156 427.714844 230.785156 416 C 230.785156 404.285156 240.285156 394.785156 252 394.785156 C 263.714844 394.785156 273.214844 404.285156 273.214844 416 "/>
<path style="fill-rule:nonzero;fill:rgb(35%,70%,90%);fill-opacity:1;stroke-width:1;stroke-linecap:butt;stroke-linejoin:miter;stroke:rgb(0%,0%,0%);stroke-opacity:1;stroke-miterlimit:10;" d="M 462 121 L 436.019531 166 L 487.980469 166 L 462 121 "/>
<path style="fill-rule:nonzero;fill:rgb(53%,27%,7%);fill-opacity:1;stroke-width:1;stroke-linecap:butt;stroke-linejoin:miter;stroke:rgb(0%,0%,0%);stroke-opacity:1;stroke-miterlimit:10;" d="M 926 387 L 900.019531 432 L 951.980469 432 L 926 387 "/>
<path style="fill-rule:nonzero;fill:rgb(53%,27%,7%);fill-opacity:1;stroke-width:1;stroke-linecap:butt;stroke-linejoin:miter;stroke:rgb(0%,0%,0%);stroke-opacity:1;stroke-miterlimit:10;" d="M 618 404 L 592.019531 449 L 643.980469 449 L 618 404 "/>
<path style="fill-rule:nonzero;fill:rgb(53%,27%,7%);fill-opacity:1;stroke-width:1;stroke-linecap:butt;stroke-linejoin:miter;stroke:rgb(0%,0%,0%);stroke-opacity:1;stroke-miterlimit:10;" d="M 938 83 L 912.019531 128 L 963.980469 128 L 938 83 "/>
<path style="fill-rule:nonzero;fill:rgb(53%,27%,7%);fill-opacity:1;stroke-width:1;stroke-linecap:butt;stroke-linejoin:miter;stroke:rgb(0%,0%,0%);stroke-opacity:1;stroke-miterlimit:10;" d="M 800.214844 222 C 800.214844 233.714844 790.714844 243.214844 779 243.214844 C 767.285156 243.214844 757.785156 233.714844 757.785156 222 C 757.785156 210.285156 767.285156 200.785156 779 200.785156 C 790.714844 200.785156 800.214844 210.285156 800.214844 222 "/>
</g>
</svg>
