<?xml version="1.0" encoding="UTF-8"?>
<svg xmlns="http://www.w3.org/2000/svg" xmlns:xlink="http://www.w3.org/1999/xlink" width="1179pt" height="517pt" viewBox="0 0 1179 517" version="1.1">
<g id="surface981">
<rect x="0" y="0" width="1179" height="517" style="fill:rgb(90%,90%,90%);fill-opacity:1;stroke:none;"/>
<path style="fill-rule:nonzero;fill:rgb(100%,0%,0%);fill-opacity:1;stroke-width:1;stroke-linecap:butt;stroke-linejoin:miter;stroke:rgb(0%,0%,0%);stroke-opacity:1;stroke-miterlimit:10;" d="M 229 273.601562 C 229 259.199219 205 259.199219 205 273.601562 C 205 288 229 290.398438 229 302.398438 C 229 290.398438 253 288 253 273.601562 C 253 259.199219 229 259.199219 229 273.601562 "/>
<path style="fill-rule:nonzero;fill:rgb(0%,0%,0%);fill-opacity:1;stroke-width:1;stroke-linecap:butt;stroke-linejoin:miter;stroke:rgb(0%,0%,0%);stroke-opacity:1;stroke-miterlimit:10;" d="M 146 164 L 126 164 L 126 174 L 146 174 L 146 194 L 156 194 L 156 174 L 176 174 L 176 164 L 156 164 L 156 144 L 146 144 L 146 164 "/>
<path style="fill-rule:nonzero;fill:rgb(0%,0%,0%);fill-opacity:1;stroke-width:1;stroke-linecap:butt;stroke-linejoin:miter;stroke:rgb(0%,0%,0%);stroke-opacity:1;stroke-miterlimit:10;" d="M 345 334 L 325 334 L 325 344 L 345 344 L 345 364 L 355 364 L 355 344 L 375 344 L 375 334 L 355 334 L 355 314 L 345 314 L 345 334 "/>
<path style="fill-rule:nonzero;fill:rgb(0%,0%,0%);fill-opacity:1;stroke-width:1;stroke-linecap:butt;stroke-linejoin:miter;stroke:rgb(0%,0%,0%);stroke-opacity:1;stroke-miterlimit:10;" d="M 145 401 L 125 401 L 125 411 L 145 411 L 145 431 L 155 431 L 155 411 L 175 411 L 175 401 L 155 401 L 155 381 L 145 381 L 145 401 "/>
<path style="fill-rule:nonzero;fill:rgb(0%,0%,0%);fill-opacity:1;stroke-width:1;stroke-linecap:butt;stroke-linejoin:miter;stroke:rgb(0%,0%,0%);stroke-opacity:1;stroke-miterlimit:10;" d="M 401 186 L 381 186 L 381 196 L 401 196 L 401 216 L 411 216 L 411 196 L 431 196 L 431 186 L 411 186 L 411 166 L 401 166 L 401 186 "/>
<path style="fill-rule:nonzero;fill:rgb(0%,0%,0%);fill-opacity:1;stroke-width:1;stroke-linecap:butt;stroke-linejoin:miter;stroke:rgb(0%,0%,0%);stroke-opacity:1;stroke-miterlimit:10;" d="M 961 414 L 941 414 L 941 424 L 961 424 L 961 444 L 971 444 L 971 424 L 991 424 L 991 414 L 971 414 L 971 394 L 961 394 L 961 414 "/>
<path style="fill-rule:nonzero;fill:rgb(100%,0%,0%);fill-opacity:1;stroke-width:1;stroke-linecap:butt;stroke-linejoin:miter;stroke:rgb(0%,0%,0%);stroke-opacity:1;stroke-miterlimit:10;" d="M 798 111.601562 C 798 97.199219 774 97.199219 774 111.601562 C 774 126 798 128.398438 798 140.398438 C 798 128.398438 822 126 822 111.601562 C 822 97.199219 798 97.199219 798 111.601562 "/>
<path style="fill-rule:nonzero;fill:rgb(0%,0%,0%);fill-opacity:1;stroke-width:1;stroke-linecap:butt;stroke-linejoin:miter;stroke:rgb(0%,0%,0%);stroke-opacity:1;stroke-miterlimit:10;" d="M 785 363 L 765 363 L 765 373 L 785 373 L 785 393 L 795 393 L 795 373 L 815 373 L 815 363 L 795 363 L 795 343 L 785 343 L 785 363 "/>
<path style="fill-rule:nonzero;fill:rgb(0%,0%,0%);fill-opacity:1;stroke-width:1;stroke-linecap:butt;stroke-linejoin:miter;stroke:rgb(0%,0%,0%);stroke-opacity:1;stroke-miterlimit:10;" d="M 849 201 L 829 201 L 829 211 L 849 211 L 849 231 L 859 231 L 859 211 L 879 211 L 879 201 L 859 201 L 859 181 L 849 181 L 849 201 "/>
<path style="fill-rule:nonzero;fill:rgb(100%,0%,0%);fill-opacity:1;stroke-width:1;stroke-linecap:butt;stroke-linejoin:miter;stroke:rgb(0%,0%,0%);stroke-opacity:1;stroke-miterlimit:10;" d="M 937 269.601562 C 937 255.199219 913 255.199219 913 269.601562 C 913 284 937 286.398438 937 298.398438 C 937 286.398438 961 284 961 269.601562 C 961 255.199219 937 255.199219 937 269.601562 "/>
<path style="fill-rule:nonzero;fill:rgb(100%,0%,0%);fill-opacity:1;stroke-width:1;stroke-linecap:butt;stroke-linejoin:miter;stroke:rgb(0%,0%,0%);stroke-opacity:1;stroke-miterlimit:10;" d="M 1033 270.601562 C 1033 256.199219 1009 256.199219 1009 270.601562 C 1009 285 1033 287.398438 1033 299.398438 C 1033 287.398438 1057 285 1057 270.601562 C 1057 256.199219 1033 256.199219 1033 270.601562 "/>
</g>
</svg>
