<?xml version="1.0" encoding="UTF-8"?>
<svg xmlns="http://www.w3.org/2000/svg" xmlns:xlink="http://www.w3.org/1999/xlink" width="1129pt" height="517pt" viewBox="0 0 1129 517" version="1.1">
<g id="surface111">
<rect x="0" y="0" width="1129" height="517" style="fill:rgb(90%,90%,90%);fill-opacity:1;stroke:none;"/>
<path style="fill-rule:nonzero;fill:rgb(100%,51%,0%);fill-opacity:1;stroke-width:1;stroke-linecap:butt;stroke-linejoin:miter;stroke:rgb(0%,0%,0%);stroke-opacity:1;stroke-miterlimit:10;" d="M 479.214844 372 C 479.214844 383.714844 469.714844 393.214844 458 393.214844 C 446.285156 393.214844 436.785156 383.714844 436.785156 372 C 436.785156 360.285156 446.285156 350.785156 458 350.785156 C 469.714844 350.785156 479.214844 360.285156 479.214844 372 "/>
<path style="fill-rule:nonzero;fill:rgb(53%,27%,7%);fill-opacity:1;stroke-width:1;stroke-linecap:butt;stroke-linejoin:miter;stroke:rgb(0%,0%,0%);stroke-opacity:1;stroke-miterlimit:10;" d="M 110.214844 177 C 110.214844 188.714844 100.714844 198.214844 89 198.214844 C 77.285156 198.214844 67.785156 188.714844 67.785156 177 C 67.785156 165.285156 77.285156 155.785156 89 155.785156 C 100.714844 155.785156 110.214844 165.285156 110.214844 177 "/>
<path style="fill-rule:nonzero;fill:rgb(53%,27%,7%);fill-opacity:1;stroke-width:1;stroke-linecap:butt;stroke-linejoin:miter;stroke:rgb(0%,0%,0%);stroke-opacity:1;stroke-miterlimit:10;" d="M 432.214844 153 C 432.214844 164.714844 422.714844 174.214844 411 174.214844 C 399.285156 174.214844 389.785156 164.714844 389.785156 153 C 389.785156 141.285156 399.285156 131.785156 411 131.785156 C 422.714844 131.785156 432.214844 141.285156 432.214844 153 "/>
<path style="fill-rule:nonzero;fill:rgb(100%,51%,0%);fill-opacity:1;stroke-width:1;stroke-linecap:butt;stroke-linejoin:miter;stroke:rgb(0%,0%,0%);stroke-opacity:1;stroke-miterlimit:10;" d="M 141.214844 62 C 141.214844 73.714844 131.714844 83.214844 120 83.214844 C 108.285156 83.214844 98.785156 73.714844 98.785156 62 C 98.785156 50.285156 108.285156 40.785156 120 40.785156 C 131.714844 40.785156 141.214844 50.285156 141.214844 62 "/>
<path style="fill-rule:nonzero;fill:rgb(100%,51%,0%);fill-opacity:1;stroke-width:1;stroke-linecap:butt;stroke-linejoin:miter;stroke:rgb(0%,0%,0%);stroke-opacity:1;stroke-miterlimit:10;" d="M 467.214844 239 C 467.214844 250.714844 457.714844 260.214844 446 260.214844 C 434.285156 260.214844 424.785156 250.714844 424.785156 239 C 424.785156 227.285156 434.285156 217.785156 446 217.785156 C 457.714844 217.785156 467.214844 227.285156 467.214844 239 "/>
<path style="fill-rule:nonzero;fill:rgb(100%,51%,0%);fill-opacity:1;stroke-width:1;stroke-linecap:butt;stroke-linejoin:miter;stroke:rgb(0%,0%,0%);stroke-opacity:1;stroke-miterlimit:10;" d="M 301.214844 133 C 301.214844 144.714844 291.714844 154.214844 280 154.214844 C 268.285156 154.214844 258.785156 144.714844 258.785156 133 C 258.785156 121.285156 268.285156 111.785156 280 111.785156 C 291.714844 111.785156 301.214844 121.285156 301.214844 133 "/>
<path style="fill-rule:nonzero;fill:rgb(100%,51%,0%);fill-opacity:1;stroke-width:1;stroke-linecap:butt;stroke-linejoin:miter;stroke:rgb(0%,0%,0%);stroke-opacity:1;stroke-miterlimit:10;" d="M 391.214844 50 C 391.214844 61.714844 381.714844 71.214844 370 71.214844 C 358.285156 71.214844 348.785156 61.714844 348.785156 50 C 348.785156 38.285156 358.285156 28.785156 370 28.785156 C 381.714844 28.785156 391.214844 38.285156 391.214844 50 "/>
<path style="fill-rule:nonzero;fill:rgb(53%,27%,7%);fill-opacity:1;stroke-width:1;stroke-linecap:butt;stroke-linejoin:miter;stroke:rgb(0%,0%,0%);stroke-opacity:1;stroke-miterlimit:10;" d="M 674.785156 424.785156 L 674.785156 467.214844 L 717.214844 467.214844 L 717.214844 424.785156 L 674.785156 424.785156 "/>
<path style="fill-rule:nonzero;fill:rgb(100%,51%,0%);fill-opacity:1;stroke-width:1;stroke-linecap:butt;stroke-linejoin:miter;stroke:rgb(0%,0%,0%);stroke-opacity:1;stroke-miterlimit:10;" d="M 630.785156 162.785156 L 630.785156 205.214844 L 673.214844 205.214844 L 673.214844 162.785156 L 630.785156 162.785156 "/>
<path style="fill-rule:nonzero;fill:rgb(100%,51%,0%);fill-opacity:1;stroke-width:1;stroke-linecap:butt;stroke-linejoin:miter;stroke:rgb(0%,0%,0%);stroke-opacity:1;stroke-miterlimit:10;" d="M 591.785156 51.785156 L 591.785156 94.214844 L 634.214844 94.214844 L 634.214844 51.785156 L 591.785156 51.785156 "/>
<path style="fill-rule:nonzero;fill:rgb(53%,27%,7%);fill-opacity:1;stroke-width:1;stroke-linecap:butt;stroke-linejoin:miter;stroke:rgb(0%,0%,0%);stroke-opacity:1;stroke-miterlimit:10;" d="M 933.785156 217.785156 L 933.785156 260.214844 L 976.214844 260.214844 L 976.214844 217.785156 L 933.785156 217.785156 "/>
<path style="fill-rule:nonzero;fill:rgb(53%,27%,7%);fill-opacity:1;stroke-width:1;stroke-linecap:butt;stroke-linejoin:miter;stroke:rgb(0%,0%,0%);stroke-opacity:1;stroke-miterlimit:10;" d="M 746.785156 214.785156 L 746.785156 257.214844 L 789.214844 257.214844 L 789.214844 214.785156 L 746.785156 214.785156 "/>
<path style="fill-rule:nonzero;fill:rgb(53%,27%,7%);fill-opacity:1;stroke-width:1;stroke-linecap:butt;stroke-linejoin:miter;stroke:rgb(0%,0%,0%);stroke-opacity:1;stroke-miterlimit:10;" d="M 937.785156 364.785156 L 937.785156 407.214844 L 980.214844 407.214844 L 980.214844 364.785156 L 937.785156 364.785156 "/>
</g>
</svg>
