<?xml version="1.0" encoding="UTF-8"?>
<svg xmlns="http://www.w3.org/2000/svg" xmlns:xlink="http://www.w3.org/1999/xlink" width="1179pt" height="517pt" viewBox="0 0 1179 517" version="1.1">
<g id="surface786">
<rect x="0" y="0" width="1179" height="517" style="fill:rgb(90%,90%,90%);fill-opacity:1;stroke:none;"/>
<path style="fill-rule:nonzero;fill:rgb(100%,51%,0%);fill-opacity:1;stroke-width:1;stroke-linecap:butt;stroke-linejoin:miter;stroke:rgb(0%,0%,0%);stroke-opacity:1;stroke-miterlimit:10;" d="M 220.214844 152 C 220.214844 163.714844 210.714844 173.214844 199 173.214844 C 187.285156 173.214844 177.785156 163.714844 177.785156 152 C 177.785156 140.285156 187.285156 130.785156 199 130.785156 C 210.714844 130.785156 220.214844 140.285156 220.214844 152 "/>
<path style="fill-rule:nonzero;fill:rgb(100%,51%,0%);fill-opacity:1;stroke-width:1;stroke-linecap:butt;stroke-linejoin:miter;stroke:rgb(0%,0%,0%);stroke-opacity:1;stroke-miterlimit:10;" d="M 292.214844 295 C 292.214844 306.714844 282.714844 316.214844 271 316.214844 C 259.285156 316.214844 249.785156 306.714844 249.785156 295 C 249.785156 283.285156 259.285156 273.785156 271 273.785156 C 282.714844 273.785156 292.214844 283.285156 292.214844 295 "/>
<path style="fill-rule:nonzero;fill:rgb(100%,51%,0%);fill-opacity:1;stroke-width:1;stroke-linecap:butt;stroke-linejoin:miter;stroke:rgb(0%,0%,0%);stroke-opacity:1;stroke-miterlimit:10;" d="M 441.214844 153 C 441.214844 164.714844 431.714844 174.214844 420 174.214844 C 408.285156 174.214844 398.785156 164.714844 398.785156 153 C 398.785156 141.285156 408.285156 131.785156 420 131.785156 C 431.714844 131.785156 441.214844 141.285156 441.214844 153 "/>
<path style="fill-rule:nonzero;fill:rgb(35%,70%,90%);fill-opacity:1;stroke-width:1;stroke-linecap:butt;stroke-linejoin:miter;stroke:rgb(0%,0%,0%);stroke-opacity:1;stroke-miterlimit:10;" d="M 412 337 L 441.664062 337 L 453.664062 308.785156 L 465.664062 337 L 495.332031 337 L 471.332031 354.4375 L 479.417969 385.980469 L 453.664062 368.542969 L 427.914062 385.980469 L 440.214844 354.4375 L 412 337 "/>
<path style="fill-rule:nonzero;fill:rgb(35%,70%,90%);fill-opacity:1;stroke-width:1;stroke-linecap:butt;stroke-linejoin:miter;stroke:rgb(0%,0%,0%);stroke-opacity:1;stroke-miterlimit:10;" d="M 223 432 L 252.664062 432 L 264.664062 403.785156 L 276.664062 432 L 306.332031 432 L 282.332031 449.4375 L 290.417969 480.980469 L 264.664062 463.542969 L 238.914062 480.980469 L 251.214844 449.4375 L 223 432 "/>
<path style="fill-rule:nonzero;fill:rgb(35%,70%,90%);fill-opacity:1;stroke-width:1;stroke-linecap:butt;stroke-linejoin:miter;stroke:rgb(0%,0%,0%);stroke-opacity:1;stroke-miterlimit:10;" d="M 946 327 L 975.664062 327 L 987.664062 298.785156 L 999.664062 327 L 1029.332031 327 L 1005.332031 344.4375 L 1013.417969 375.980469 L 987.664062 358.542969 L 961.914062 375.980469 L 974.214844 344.4375 L 946 327 "/>
<path style="fill-rule:nonzero;fill:rgb(100%,51%,0%);fill-opacity:1;stroke-width:1;stroke-linecap:butt;stroke-linejoin:miter;stroke:rgb(0%,0%,0%);stroke-opacity:1;stroke-miterlimit:10;" d="M 832.214844 319 C 832.214844 330.714844 822.714844 340.214844 811 340.214844 C 799.285156 340.214844 789.785156 330.714844 789.785156 319 C 789.785156 307.285156 799.285156 297.785156 811 297.785156 C 822.714844 297.785156 832.214844 307.285156 832.214844 319 "/>
<path style="fill-rule:nonzero;fill:rgb(35%,70%,90%);fill-opacity:1;stroke-width:1;stroke-linecap:butt;stroke-linejoin:miter;stroke:rgb(0%,0%,0%);stroke-opacity:1;stroke-miterlimit:10;" d="M 885 181 L 914.664062 181 L 926.664062 152.785156 L 938.664062 181 L 968.332031 181 L 944.332031 198.4375 L 952.417969 229.980469 L 926.664062 212.542969 L 900.914062 229.980469 L 913.214844 198.4375 L 885 181 "/>
<path style="fill-rule:nonzero;fill:rgb(100%,51%,0%);fill-opacity:1;stroke-width:1;stroke-linecap:butt;stroke-linejoin:miter;stroke:rgb(0%,0%,0%);stroke-opacity:1;stroke-miterlimit:10;" d="M 1044.214844 378 C 1044.214844 389.714844 1034.714844 399.214844 1023 399.214844 C 1011.285156 399.214844 1001.785156 389.714844 1001.785156 378 C 1001.785156 366.285156 1011.285156 356.785156 1023 356.785156 C 1034.714844 356.785156 1044.214844 366.285156 1044.214844 378 "/>
<path style="fill-rule:nonzero;fill:rgb(35%,70%,90%);fill-opacity:1;stroke-width:1;stroke-linecap:butt;stroke-linejoin:miter;stroke:rgb(0%,0%,0%);stroke-opacity:1;stroke-miterlimit:10;" d="M 692 397 L 721.664062 397 L 733.664062 368.785156 L 745.664062 397 L 775.332031 397 L 751.332031 414.4375 L 759.417969 445.980469 L 733.664062 428.542969 L 707.914062 445.980469 L 720.214844 414.4375 L 692 397 "/>
<path style="fill-rule:nonzero;fill:rgb(100%,51%,0%);fill-opacity:1;stroke-width:1;stroke-linecap:butt;stroke-linejoin:miter;stroke:rgb(0%,0%,0%);stroke-opacity:1;stroke-miterlimit:10;" d="M 842.214844 104 C 842.214844 115.714844 832.714844 125.214844 821 125.214844 C 809.285156 125.214844 799.785156 115.714844 799.785156 104 C 799.785156 92.285156 809.285156 82.785156 821 82.785156 C 832.714844 82.785156 842.214844 92.285156 842.214844 104 "/>
<path style="fill-rule:nonzero;fill:rgb(35%,70%,90%);fill-opacity:1;stroke-width:1;stroke-linecap:butt;stroke-linejoin:miter;stroke:rgb(0%,0%,0%);stroke-opacity:1;stroke-miterlimit:10;" d="M 1004 90 L 1033.664062 90 L 1045.664062 61.785156 L 1057.664062 90 L 1087.332031 90 L 1063.332031 107.4375 L 1071.417969 138.980469 L 1045.664062 121.542969 L 1019.914062 138.980469 L 1032.214844 107.4375 L 1004 90 "/>
<path style="fill-rule:nonzero;fill:rgb(100%,51%,0%);fill-opacity:1;stroke-width:1;stroke-linecap:butt;stroke-linejoin:miter;stroke:rgb(0%,0%,0%);stroke-opacity:1;stroke-miterlimit:10;" d="M 727.214844 176 C 727.214844 187.714844 717.714844 197.214844 706 197.214844 C 694.285156 197.214844 684.785156 187.714844 684.785156 176 C 684.785156 164.285156 694.285156 154.785156 706 154.785156 C 717.714844 154.785156 727.214844 164.285156 727.214844 176 "/>
</g>
</svg>
