<?xml version="1.0" encoding="UTF-8"?>
<svg xmlns="http://www.w3.org/2000/svg" xmlns:xlink="http://www.w3.org/1999/xlink" width="1129pt" height="517pt" viewBox="0 0 1129 517" version="1.1">
<g id="surface856">
<rect x="0" y="0" width="1129" height="517" style="fill:rgb(90%,90%,90%);fill-opacity:1;stroke:none;"/>
<path style="fill-rule:nonzero;fill:rgb(53%,27%,7%);fill-opacity:1;stroke-width:1;stroke-linecap:butt;stroke-linejoin:miter;stroke:rgb(0%,0%,0%);stroke-opacity:1;stroke-miterlimit:10;" d="M 306 324.601562 C 306 310.199219 282 310.199219 282 324.601562 C 282 339 306 341.398438 306 353.398438 C 306 341.398438 330 339 330 324.601562 C 330 310.199219 306 310.199219 306 324.601562 "/>
<path style="fill-rule:nonzero;fill:rgb(53%,27%,7%);fill-opacity:1;stroke-width:1;stroke-linecap:butt;stroke-linejoin:miter;stroke:rgb(0%,0%,0%);stroke-opacity:1;stroke-miterlimit:10;" d="M 925 355.601562 C 925 341.199219 901 341.199219 901 355.601562 C 901 370 925 372.398438 925 384.398438 C 925 372.398438 949 370 949 355.601562 C 949 341.199219 925 341.199219 925 355.601562 "/>
<path style="fill-rule:nonzero;fill:rgb(53%,27%,7%);fill-opacity:1;stroke-width:1;stroke-linecap:butt;stroke-linejoin:miter;stroke:rgb(0%,0%,0%);stroke-opacity:1;stroke-miterlimit:10;" d="M 688 201.601562 C 688 187.199219 664 187.199219 664 201.601562 C 664 216 688 218.398438 688 230.398438 C 688 218.398438 712 216 712 201.601562 C 712 187.199219 688 187.199219 688 201.601562 "/>
<path style="fill-rule:nonzero;fill:rgb(53%,27%,7%);fill-opacity:1;stroke-width:1;stroke-linecap:butt;stroke-linejoin:miter;stroke:rgb(0%,0%,0%);stroke-opacity:1;stroke-miterlimit:10;" d="M 668 436.601562 C 668 422.199219 644 422.199219 644 436.601562 C 644 451 668 453.398438 668 465.398438 C 668 453.398438 692 451 692 436.601562 C 692 422.199219 668 422.199219 668 436.601562 "/>
<path style="fill-rule:nonzero;fill:rgb(53%,27%,7%);fill-opacity:1;stroke-width:1;stroke-linecap:butt;stroke-linejoin:miter;stroke:rgb(0%,0%,0%);stroke-opacity:1;stroke-miterlimit:10;" d="M 602 238.601562 C 602 224.199219 578 224.199219 578 238.601562 C 578 253 602 255.398438 602 267.398438 C 602 255.398438 626 253 626 238.601562 C 626 224.199219 602 224.199219 602 238.601562 "/>
<path style="fill-rule:nonzero;fill:rgb(100%,51%,0%);fill-opacity:1;stroke-width:1;stroke-linecap:butt;stroke-linejoin:miter;stroke:rgb(0%,0%,0%);stroke-opacity:1;stroke-miterlimit:10;" d="M 138.214844 124 C 138.214844 135.714844 128.714844 145.214844 117 145.214844 C 105.285156 145.214844 95.785156 135.714844 95.785156 124 C 95.785156 112.285156 105.285156 102.785156 117 102.785156 C 128.714844 102.785156 138.214844 112.285156 138.214844 124 "/>
<path style="fill-rule:nonzero;fill:rgb(100%,51%,0%);fill-opacity:1;stroke-width:1;stroke-linecap:butt;stroke-linejoin:miter;stroke:rgb(0%,0%,0%);stroke-opacity:1;stroke-miterlimit:10;" d="M 476.214844 427 C 476.214844 438.714844 466.714844 448.214844 455 448.214844 C 443.285156 448.214844 433.785156 438.714844 433.785156 427 C 433.785156 415.285156 443.285156 405.785156 455 405.785156 C 466.714844 405.785156 476.214844 415.285156 476.214844 427 "/>
<path style="fill-rule:nonzero;fill:rgb(100%,51%,0%);fill-opacity:1;stroke-width:1;stroke-linecap:butt;stroke-linejoin:miter;stroke:rgb(0%,0%,0%);stroke-opacity:1;stroke-miterlimit:10;" d="M 152.214844 359 C 152.214844 370.714844 142.714844 380.214844 131 380.214844 C 119.285156 380.214844 109.785156 370.714844 109.785156 359 C 109.785156 347.285156 119.285156 337.785156 131 337.785156 C 142.714844 337.785156 152.214844 347.285156 152.214844 359 "/>
<path style="fill-rule:nonzero;fill:rgb(100%,51%,0%);fill-opacity:1;stroke-width:1;stroke-linecap:butt;stroke-linejoin:miter;stroke:rgb(0%,0%,0%);stroke-opacity:1;stroke-miterlimit:10;" d="M 506.214844 249 C 506.214844 260.714844 496.714844 270.214844 485 270.214844 C 473.285156 270.214844 463.785156 260.714844 463.785156 249 C 463.785156 237.285156 473.285156 227.785156 485 227.785156 C 496.714844 227.785156 506.214844 237.285156 506.214844 249 "/>
<path style="fill-rule:nonzero;fill:rgb(100%,51%,0%);fill-opacity:1;stroke-width:1;stroke-linecap:butt;stroke-linejoin:miter;stroke:rgb(0%,0%,0%);stroke-opacity:1;stroke-miterlimit:10;" d="M 707.214844 360 C 707.214844 371.714844 697.714844 381.214844 686 381.214844 C 674.285156 381.214844 664.785156 371.714844 664.785156 360 C 664.785156 348.285156 674.285156 338.785156 686 338.785156 C 697.714844 338.785156 707.214844 348.285156 707.214844 360 "/>
<path style="fill-rule:nonzero;fill:rgb(100%,51%,0%);fill-opacity:1;stroke-width:1;stroke-linecap:butt;stroke-linejoin:miter;stroke:rgb(0%,0%,0%);stroke-opacity:1;stroke-miterlimit:10;" d="M 651.214844 92 C 651.214844 103.714844 641.714844 113.214844 630 113.214844 C 618.285156 113.214844 608.785156 103.714844 608.785156 92 C 608.785156 80.285156 618.285156 70.785156 630 70.785156 C 641.714844 70.785156 651.214844 80.285156 651.214844 92 "/>
<path style="fill-rule:nonzero;fill:rgb(100%,51%,0%);fill-opacity:1;stroke-width:1;stroke-linecap:butt;stroke-linejoin:miter;stroke:rgb(0%,0%,0%);stroke-opacity:1;stroke-miterlimit:10;" d="M 870.214844 222 C 870.214844 233.714844 860.714844 243.214844 849 243.214844 C 837.285156 243.214844 827.785156 233.714844 827.785156 222 C 827.785156 210.285156 837.285156 200.785156 849 200.785156 C 860.714844 200.785156 870.214844 210.285156 870.214844 222 "/>
<path style="fill-rule:nonzero;fill:rgb(100%,51%,0%);fill-opacity:1;stroke-width:1;stroke-linecap:butt;stroke-linejoin:miter;stroke:rgb(0%,0%,0%);stroke-opacity:1;stroke-miterlimit:10;" d="M 283.214844 69 C 283.214844 80.714844 273.714844 90.214844 262 90.214844 C 250.285156 90.214844 240.785156 80.714844 240.785156 69 C 240.785156 57.285156 250.285156 47.785156 262 47.785156 C 273.714844 47.785156 283.214844 57.285156 283.214844 69 "/>
</g>
</svg>
