<?xml version="1.0" encoding="UTF-8"?>
<svg xmlns="http://www.w3.org/2000/svg" xmlns:xlink="http://www.w3.org/1999/xlink" width="1179pt" height="517pt" viewBox="0 0 1179 517" version="1.1">
<g id="surface651">
<rect x="0" y="0" width="1179" height="517" style="fill:rgb(90%,90%,90%);fill-opacity:1;stroke:none;"/>
<path style="fill-rule:nonzero;fill:rgb(100%,51%,0%);fill-opacity:1;stroke-width:1;stroke-linecap:butt;stroke-linejoin:miter;stroke:rgb(0%,0%,0%);stroke-opacity:1;stroke-miterlimit:10;" d="M 416.214844 369 C 416.214844 380.714844 406.714844 390.214844 395 390.214844 C 383.285156 390.214844 373.785156 380.714844 373.785156 369 C 373.785156 357.285156 383.285156 347.785156 395 347.785156 C 406.714844 347.785156 416.214844 357.285156 416.214844 369 "/>
<path style="fill-rule:nonzero;fill:rgb(100%,51%,0%);fill-opacity:1;stroke-width:1;stroke-linecap:butt;stroke-linejoin:miter;stroke:rgb(0%,0%,0%);stroke-opacity:1;stroke-miterlimit:10;" d="M 123.785156 399.785156 L 123.785156 442.214844 L 166.214844 442.214844 L 166.214844 399.785156 L 123.785156 399.785156 "/>
<path style="fill-rule:nonzero;fill:rgb(100%,51%,0%);fill-opacity:1;stroke-width:1;stroke-linecap:butt;stroke-linejoin:miter;stroke:rgb(0%,0%,0%);stroke-opacity:1;stroke-miterlimit:10;" d="M 362.785156 176.785156 L 362.785156 219.214844 L 405.214844 219.214844 L 405.214844 176.785156 L 362.785156 176.785156 "/>
<path style="fill-rule:nonzero;fill:rgb(100%,51%,0%);fill-opacity:1;stroke-width:1;stroke-linecap:butt;stroke-linejoin:miter;stroke:rgb(0%,0%,0%);stroke-opacity:1;stroke-miterlimit:10;" d="M 152.214844 119 C 152.214844 130.714844 142.714844 140.214844 131 140.214844 C 119.285156 140.214844 109.785156 130.714844 109.785156 119 C 109.785156 107.285156 119.285156 97.785156 131 97.785156 C 142.714844 97.785156 152.214844 107.285156 152.214844 119 "/>
<path style="fill-rule:nonzero;fill:rgb(100%,51%,0%);fill-opacity:1;stroke-width:1;stroke-linecap:butt;stroke-linejoin:miter;stroke:rgb(0%,0%,0%);stroke-opacity:1;stroke-miterlimit:10;" d="M 269.214844 108 C 269.214844 119.714844 259.714844 129.214844 248 129.214844 C 236.285156 129.214844 226.785156 119.714844 226.785156 108 C 226.785156 96.285156 236.285156 86.785156 248 86.785156 C 259.714844 86.785156 269.214844 96.285156 269.214844 108 "/>
<path style="fill-rule:nonzero;fill:rgb(100%,51%,0%);fill-opacity:1;stroke-width:1;stroke-linecap:butt;stroke-linejoin:miter;stroke:rgb(0%,0%,0%);stroke-opacity:1;stroke-miterlimit:10;" d="M 112.214844 218 C 112.214844 229.714844 102.714844 239.214844 91 239.214844 C 79.285156 239.214844 69.785156 229.714844 69.785156 218 C 69.785156 206.285156 79.285156 196.785156 91 196.785156 C 102.714844 196.785156 112.214844 206.285156 112.214844 218 "/>
<path style="fill-rule:nonzero;fill:rgb(100%,51%,0%);fill-opacity:1;stroke-width:1;stroke-linecap:butt;stroke-linejoin:miter;stroke:rgb(0%,0%,0%);stroke-opacity:1;stroke-miterlimit:10;" d="M 447.214844 282 C 447.214844 293.714844 437.714844 303.214844 426 303.214844 C 414.285156 303.214844 404.785156 293.714844 404.785156 282 C 404.785156 270.285156 414.285156 260.785156 426 260.785156 C 437.714844 260.785156 447.214844 270.285156 447.214844 282 "/>
<path style="fill-rule:nonzero;fill:rgb(53%,27%,7%);fill-opacity:1;stroke-width:1;stroke-linecap:butt;stroke-linejoin:miter;stroke:rgb(0%,0%,0%);stroke-opacity:1;stroke-miterlimit:10;" d="M 710.785156 165.785156 L 710.785156 208.214844 L 753.214844 208.214844 L 753.214844 165.785156 L 710.785156 165.785156 "/>
<path style="fill-rule:nonzero;fill:rgb(53%,27%,7%);fill-opacity:1;stroke-width:1;stroke-linecap:butt;stroke-linejoin:miter;stroke:rgb(0%,0%,0%);stroke-opacity:1;stroke-miterlimit:10;" d="M 836.214844 290 C 836.214844 301.714844 826.714844 311.214844 815 311.214844 C 803.285156 311.214844 793.785156 301.714844 793.785156 290 C 793.785156 278.285156 803.285156 268.785156 815 268.785156 C 826.714844 268.785156 836.214844 278.285156 836.214844 290 "/>
<path style="fill-rule:nonzero;fill:rgb(53%,27%,7%);fill-opacity:1;stroke-width:1;stroke-linecap:butt;stroke-linejoin:miter;stroke:rgb(0%,0%,0%);stroke-opacity:1;stroke-miterlimit:10;" d="M 1049.214844 372 C 1049.214844 383.714844 1039.714844 393.214844 1028 393.214844 C 1016.285156 393.214844 1006.785156 383.714844 1006.785156 372 C 1006.785156 360.285156 1016.285156 350.785156 1028 350.785156 C 1039.714844 350.785156 1049.214844 360.285156 1049.214844 372 "/>
<path style="fill-rule:nonzero;fill:rgb(53%,27%,7%);fill-opacity:1;stroke-width:1;stroke-linecap:butt;stroke-linejoin:miter;stroke:rgb(0%,0%,0%);stroke-opacity:1;stroke-miterlimit:10;" d="M 930.785156 93.785156 L 930.785156 136.214844 L 973.214844 136.214844 L 973.214844 93.785156 L 930.785156 93.785156 "/>
<path style="fill-rule:nonzero;fill:rgb(53%,27%,7%);fill-opacity:1;stroke-width:1;stroke-linecap:butt;stroke-linejoin:miter;stroke:rgb(0%,0%,0%);stroke-opacity:1;stroke-miterlimit:10;" d="M 673.785156 283.785156 L 673.785156 326.214844 L 716.214844 326.214844 L 716.214844 283.785156 L 673.785156 283.785156 "/>
</g>
</svg>
