<?xml version="1.0" encoding="UTF-8"?>
<svg xmlns="http://www.w3.org/2000/svg" xmlns:xlink="http://www.w3.org/1999/xlink" width="1129pt" height="517pt" viewBox="0 0 1129 517" version="1.1">
<g id="surface546">
<rect x="0" y="0" width="1129" height="517" style="fill:rgb(90%,90%,90%);fill-opacity:1;stroke:none;"/>
<path style="fill-rule:nonzero;fill:rgb(35%,70%,90%);fill-opacity:1;stroke-width:1;stroke-linecap:butt;stroke-linejoin:miter;stroke:rgb(0%,0%,0%);stroke-opacity:1;stroke-miterlimit:10;" d="M 334 127 L 363.664062 127 L 375.664062 98.785156 L 387.664062 127 L 417.332031 127 L 393.332031 144.4375 L 401.417969 175.980469 L 375.664062 158.542969 L 349.914062 175.980469 L 362.214844 144.4375 L 334 127 "/>
<path style="fill-rule:nonzero;fill:rgb(35%,70%,90%);fill-opacity:1;stroke-width:1;stroke-linecap:butt;stroke-linejoin:miter;stroke:rgb(0%,0%,0%);stroke-opacity:1;stroke-miterlimit:10;" d="M 493 438 L 522.664062 438 L 534.664062 409.785156 L 546.664062 438 L 576.332031 438 L 552.332031 455.4375 L 560.417969 486.980469 L 534.664062 469.542969 L 508.914062 486.980469 L 521.214844 455.4375 L 493 438 "/>
<path style="fill-rule:nonzero;fill:rgb(35%,70%,90%);fill-opacity:1;stroke-width:1;stroke-linecap:butt;stroke-linejoin:miter;stroke:rgb(0%,0%,0%);stroke-opacity:1;stroke-miterlimit:10;" d="M 264 265 L 293.664062 265 L 305.664062 236.785156 L 317.664062 265 L 347.332031 265 L 323.332031 282.4375 L 331.417969 313.980469 L 305.664062 296.542969 L 279.914062 313.980469 L 292.214844 282.4375 L 264 265 "/>
<path style="fill-rule:nonzero;fill:rgb(35%,70%,90%);fill-opacity:1;stroke-width:1;stroke-linecap:butt;stroke-linejoin:miter;stroke:rgb(0%,0%,0%);stroke-opacity:1;stroke-miterlimit:10;" d="M 825 247 L 854.664062 247 L 866.664062 218.785156 L 878.664062 247 L 908.332031 247 L 884.332031 264.4375 L 892.417969 295.980469 L 866.664062 278.542969 L 840.914062 295.980469 L 853.214844 264.4375 L 825 247 "/>
<path style="fill-rule:nonzero;fill:rgb(35%,70%,90%);fill-opacity:1;stroke-width:1;stroke-linecap:butt;stroke-linejoin:miter;stroke:rgb(0%,0%,0%);stroke-opacity:1;stroke-miterlimit:10;" d="M 554 314 L 583.664062 314 L 595.664062 285.785156 L 607.664062 314 L 637.332031 314 L 613.332031 331.4375 L 621.417969 362.980469 L 595.664062 345.542969 L 569.914062 362.980469 L 582.214844 331.4375 L 554 314 "/>
<path style="fill-rule:nonzero;fill:rgb(35%,70%,90%);fill-opacity:1;stroke-width:1;stroke-linecap:butt;stroke-linejoin:miter;stroke:rgb(0%,0%,0%);stroke-opacity:1;stroke-miterlimit:10;" d="M 640 365 L 669.664062 365 L 681.664062 336.785156 L 693.664062 365 L 723.332031 365 L 699.332031 382.4375 L 707.417969 413.980469 L 681.664062 396.542969 L 655.914062 413.980469 L 668.214844 382.4375 L 640 365 "/>
<path style="fill-rule:nonzero;fill:rgb(35%,70%,90%);fill-opacity:1;stroke-width:1;stroke-linecap:butt;stroke-linejoin:miter;stroke:rgb(0%,0%,0%);stroke-opacity:1;stroke-miterlimit:10;" d="M 71 247 L 100.664062 247 L 112.664062 218.785156 L 124.664062 247 L 154.332031 247 L 130.332031 264.4375 L 138.417969 295.980469 L 112.664062 278.542969 L 86.914062 295.980469 L 99.214844 264.4375 L 71 247 "/>
<path style="fill-rule:nonzero;fill:rgb(35%,70%,90%);fill-opacity:1;stroke-width:1;stroke-linecap:butt;stroke-linejoin:miter;stroke:rgb(0%,0%,0%);stroke-opacity:1;stroke-miterlimit:10;" d="M 165 128 L 194.664062 128 L 206.664062 99.785156 L 218.664062 128 L 248.332031 128 L 224.332031 145.4375 L 232.417969 176.980469 L 206.664062 159.542969 L 180.914062 176.980469 L 193.214844 145.4375 L 165 128 "/>
<path style="fill-rule:nonzero;fill:rgb(100%,51%,0%);fill-opacity:1;stroke-width:1;stroke-linecap:butt;stroke-linejoin:miter;stroke:rgb(0%,0%,0%);stroke-opacity:1;stroke-miterlimit:10;" d="M 615 209 L 589.019531 254 L 640.980469 254 L 615 209 "/>
<path style="fill-rule:nonzero;fill:rgb(100%,51%,0%);fill-opacity:1;stroke-width:1;stroke-linecap:butt;stroke-linejoin:miter;stroke:rgb(0%,0%,0%);stroke-opacity:1;stroke-miterlimit:10;" d="M 388 337 L 362.019531 382 L 413.980469 382 L 388 337 "/>
<path style="fill-rule:nonzero;fill:rgb(100%,51%,0%);fill-opacity:1;stroke-width:1;stroke-linecap:butt;stroke-linejoin:miter;stroke:rgb(0%,0%,0%);stroke-opacity:1;stroke-miterlimit:10;" d="M 943 285 L 917.019531 330 L 968.980469 330 L 943 285 "/>
<path style="fill-rule:nonzero;fill:rgb(100%,51%,0%);fill-opacity:1;stroke-width:1;stroke-linecap:butt;stroke-linejoin:miter;stroke:rgb(0%,0%,0%);stroke-opacity:1;stroke-miterlimit:10;" d="M 55 350 L 29.019531 395 L 80.980469 395 L 55 350 "/>
<path style="fill-rule:nonzero;fill:rgb(100%,51%,0%);fill-opacity:1;stroke-width:1;stroke-linecap:butt;stroke-linejoin:miter;stroke:rgb(0%,0%,0%);stroke-opacity:1;stroke-miterlimit:10;" d="M 170 350 L 144.019531 395 L 195.980469 395 L 170 350 "/>
<path style="fill-rule:nonzero;fill:rgb(100%,51%,0%);fill-opacity:1;stroke-width:1;stroke-linecap:butt;stroke-linejoin:miter;stroke:rgb(0%,0%,0%);stroke-opacity:1;stroke-miterlimit:10;" d="M 902 83 L 876.019531 128 L 927.980469 128 L 902 83 "/>
</g>
</svg>
