<?xml version="1.0" encoding="UTF-8"?>
<svg xmlns="http://www.w3.org/2000/svg" xmlns:xlink="http://www.w3.org/1999/xlink" width="1179pt" height="517pt" viewBox="0 0 1179 517" version="1.1">
<g id="surface936">
<rect x="0" y="0" width="1179" height="517" style="fill:rgb(90%,90%,90%);fill-opacity:1;stroke:none;"/>
<path style="fill-rule:nonzero;fill:rgb(100%,0%,0%);fill-opacity:1;stroke-width:1;stroke-linecap:butt;stroke-linejoin:miter;stroke:rgb(0%,0%,0%);stroke-opacity:1;stroke-miterlimit:10;" d="M 202 123.601562 C 202 109.199219 178 109.199219 178 123.601562 C 178 138 202 140.398438 202 152.398438 C 202 140.398438 226 138 226 123.601562 C 226 109.199219 202 109.199219 202 123.601562 "/>
<path style="fill-rule:nonzero;fill:rgb(100%,0%,0%);fill-opacity:1;stroke-width:1;stroke-linecap:butt;stroke-linejoin:miter;stroke:rgb(0%,0%,0%);stroke-opacity:1;stroke-miterlimit:10;" d="M 89 346.601562 C 89 332.199219 65 332.199219 65 346.601562 C 65 361 89 363.398438 89 375.398438 C 89 363.398438 113 361 113 346.601562 C 113 332.199219 89 332.199219 89 346.601562 "/>
<path style="fill-rule:nonzero;fill:rgb(100%,0%,0%);fill-opacity:1;stroke-width:1;stroke-linecap:butt;stroke-linejoin:miter;stroke:rgb(0%,0%,0%);stroke-opacity:1;stroke-miterlimit:10;" d="M 423 329.601562 C 423 315.199219 399 315.199219 399 329.601562 C 399 344 423 346.398438 423 358.398438 C 423 346.398438 447 344 447 329.601562 C 447 315.199219 423 315.199219 423 329.601562 "/>
<path style="fill-rule:nonzero;fill:rgb(0%,0%,0%);fill-opacity:1;stroke-width:1;stroke-linecap:butt;stroke-linejoin:miter;stroke:rgb(0%,0%,0%);stroke-opacity:1;stroke-miterlimit:10;" d="M 249 279 L 229 279 L 229 289 L 249 289 L 249 309 L 259 309 L 259 289 L 279 289 L 279 279 L 259 279 L 259 259 L 249 259 L 249 279 "/>
<path style="fill-rule:nonzero;fill:rgb(0%,0%,0%);fill-opacity:1;stroke-width:1;stroke-linecap:butt;stroke-linejoin:miter;stroke:rgb(0%,0%,0%);stroke-opacity:1;stroke-miterlimit:10;" d="M 296 408 L 276 408 L 276 418 L 296 418 L 296 438 L 306 438 L 306 418 L 326 418 L 326 408 L 306 408 L 306 388 L 296 388 L 296 408 "/>
<path style="fill-rule:nonzero;fill:rgb(100%,0%,0%);fill-opacity:1;stroke-width:1;stroke-linecap:butt;stroke-linejoin:miter;stroke:rgb(0%,0%,0%);stroke-opacity:1;stroke-miterlimit:10;" d="M 828 272.601562 C 828 258.199219 804 258.199219 804 272.601562 C 804 287 828 289.398438 828 301.398438 C 828 289.398438 852 287 852 272.601562 C 852 258.199219 828 258.199219 828 272.601562 "/>
<path style="fill-rule:nonzero;fill:rgb(100%,0%,0%);fill-opacity:1;stroke-width:1;stroke-linecap:butt;stroke-linejoin:miter;stroke:rgb(0%,0%,0%);stroke-opacity:1;stroke-miterlimit:10;" d="M 719 398.601562 C 719 384.199219 695 384.199219 695 398.601562 C 695 413 719 415.398438 719 427.398438 C 719 415.398438 743 413 743 398.601562 C 743 384.199219 719 384.199219 719 398.601562 "/>
<path style="fill-rule:nonzero;fill:rgb(100%,0%,0%);fill-opacity:1;stroke-width:1;stroke-linecap:butt;stroke-linejoin:miter;stroke:rgb(0%,0%,0%);stroke-opacity:1;stroke-miterlimit:10;" d="M 977 161.601562 C 977 147.199219 953 147.199219 953 161.601562 C 953 176 977 178.398438 977 190.398438 C 977 178.398438 1001 176 1001 161.601562 C 1001 147.199219 977 147.199219 977 161.601562 "/>
<path style="fill-rule:nonzero;fill:rgb(0%,0%,0%);fill-opacity:1;stroke-width:1;stroke-linecap:butt;stroke-linejoin:miter;stroke:rgb(0%,0%,0%);stroke-opacity:1;stroke-miterlimit:10;" d="M 724 232 L 704 232 L 704 242 L 724 242 L 724 262 L 734 262 L 734 242 L 754 242 L 754 232 L 734 232 L 734 212 L 724 212 L 724 232 "/>
<path style="fill-rule:nonzero;fill:rgb(0%,0%,0%);fill-opacity:1;stroke-width:1;stroke-linecap:butt;stroke-linejoin:miter;stroke:rgb(0%,0%,0%);stroke-opacity:1;stroke-miterlimit:10;" d="M 960 399 L 940 399 L 940 409 L 960 409 L 960 429 L 970 429 L 970 409 L 990 409 L 990 399 L 970 399 L 970 379 L 960 379 L 960 399 "/>
<path style="fill-rule:nonzero;fill:rgb(0%,0%,0%);fill-opacity:1;stroke-width:1;stroke-linecap:butt;stroke-linejoin:miter;stroke:rgb(0%,0%,0%);stroke-opacity:1;stroke-miterlimit:10;" d="M 931 88 L 911 88 L 911 98 L 931 98 L 931 118 L 941 118 L 941 98 L 961 98 L 961 88 L 941 88 L 941 68 L 931 68 L 931 88 "/>
</g>
</svg>
