<?xml version="1.0" encoding="UTF-8"?>
<svg xmlns="http://www.w3.org/2000/svg" xmlns:xlink="http://www.w3.org/1999/xlink" width="1179pt" height="517pt" viewBox="0 0 1179 517" version="1.1">
<g id="surface451">
<rect x="0" y="0" width="1179" height="517" style="fill:rgb(90%,90%,90%);fill-opacity:1;stroke:none;"/>
<path style="fill-rule:nonzero;fill:rgb(53%,27%,7%);fill-opacity:1;stroke-width:1;stroke-linecap:butt;stroke-linejoin:miter;stroke:rgb(0%,0%,0%);stroke-opacity:1;stroke-miterlimit:10;" d="M 355.214844 161 C 355.214844 172.714844 345.714844 182.214844 334 182.214844 C 322.285156 182.214844 312.785156 172.714844 312.785156 161 C 312.785156 149.285156 322.285156 139.785156 334 139.785156 C 345.714844 139.785156 355.214844 149.285156 355.214844 161 "/>
<path style="fill-rule:nonzero;fill:rgb(53%,27%,7%);fill-opacity:1;stroke-width:1;stroke-linecap:butt;stroke-linejoin:miter;stroke:rgb(0%,0%,0%);stroke-opacity:1;stroke-miterlimit:10;" d="M 133.214844 397 C 133.214844 408.714844 123.714844 418.214844 112 418.214844 C 100.285156 418.214844 90.785156 408.714844 90.785156 397 C 90.785156 385.285156 100.285156 375.785156 112 375.785156 C 123.714844 375.785156 133.214844 385.285156 133.214844 397 "/>
<path style="fill-rule:nonzero;fill:rgb(53%,27%,7%);fill-opacity:1;stroke-width:1;stroke-linecap:butt;stroke-linejoin:miter;stroke:rgb(0%,0%,0%);stroke-opacity:1;stroke-miterlimit:10;" d="M 445.214844 429 C 445.214844 440.714844 435.714844 450.214844 424 450.214844 C 412.285156 450.214844 402.785156 440.714844 402.785156 429 C 402.785156 417.285156 412.285156 407.785156 424 407.785156 C 435.714844 407.785156 445.214844 417.285156 445.214844 429 "/>
<path style="fill-rule:nonzero;fill:rgb(53%,27%,7%);fill-opacity:1;stroke-width:1;stroke-linecap:butt;stroke-linejoin:miter;stroke:rgb(0%,0%,0%);stroke-opacity:1;stroke-miterlimit:10;" d="M 232.214844 173 C 232.214844 184.714844 222.714844 194.214844 211 194.214844 C 199.285156 194.214844 189.785156 184.714844 189.785156 173 C 189.785156 161.285156 199.285156 151.785156 211 151.785156 C 222.714844 151.785156 232.214844 161.285156 232.214844 173 "/>
<path style="fill-rule:nonzero;fill:rgb(100%,51%,0%);fill-opacity:1;stroke-width:1;stroke-linecap:butt;stroke-linejoin:miter;stroke:rgb(0%,0%,0%);stroke-opacity:1;stroke-miterlimit:10;" d="M 345 318 L 374.664062 318 L 386.664062 289.785156 L 398.664062 318 L 428.332031 318 L 404.332031 335.4375 L 412.417969 366.980469 L 386.664062 349.542969 L 360.914062 366.980469 L 373.214844 335.4375 L 345 318 "/>
<path style="fill-rule:nonzero;fill:rgb(53%,27%,7%);fill-opacity:1;stroke-width:1;stroke-linecap:butt;stroke-linejoin:miter;stroke:rgb(0%,0%,0%);stroke-opacity:1;stroke-miterlimit:10;" d="M 273.214844 278 C 273.214844 289.714844 263.714844 299.214844 252 299.214844 C 240.285156 299.214844 230.785156 289.714844 230.785156 278 C 230.785156 266.285156 240.285156 256.785156 252 256.785156 C 263.714844 256.785156 273.214844 266.285156 273.214844 278 "/>
<path style="fill-rule:nonzero;fill:rgb(100%,51%,0%);fill-opacity:1;stroke-width:1;stroke-linecap:butt;stroke-linejoin:miter;stroke:rgb(0%,0%,0%);stroke-opacity:1;stroke-miterlimit:10;" d="M 251 431 L 280.664062 431 L 292.664062 402.785156 L 304.664062 431 L 334.332031 431 L 310.332031 448.4375 L 318.417969 479.980469 L 292.664062 462.542969 L 266.914062 479.980469 L 279.214844 448.4375 L 251 431 "/>
<path style="fill-rule:nonzero;fill:rgb(100%,51%,0%);fill-opacity:1;stroke-width:1;stroke-linecap:butt;stroke-linejoin:miter;stroke:rgb(0%,0%,0%);stroke-opacity:1;stroke-miterlimit:10;" d="M 154 87 L 183.664062 87 L 195.664062 58.785156 L 207.664062 87 L 237.332031 87 L 213.332031 104.4375 L 221.417969 135.980469 L 195.664062 118.542969 L 169.914062 135.980469 L 182.214844 104.4375 L 154 87 "/>
<path style="fill-rule:nonzero;fill:rgb(100%,51%,0%);fill-opacity:1;stroke-width:1;stroke-linecap:butt;stroke-linejoin:miter;stroke:rgb(0%,0%,0%);stroke-opacity:1;stroke-miterlimit:10;" d="M 910 405 L 939.664062 405 L 951.664062 376.785156 L 963.664062 405 L 993.332031 405 L 969.332031 422.4375 L 977.417969 453.980469 L 951.664062 436.542969 L 925.914062 453.980469 L 938.214844 422.4375 L 910 405 "/>
<path style="fill-rule:nonzero;fill:rgb(53%,27%,7%);fill-opacity:1;stroke-width:1;stroke-linecap:butt;stroke-linejoin:miter;stroke:rgb(0%,0%,0%);stroke-opacity:1;stroke-miterlimit:10;" d="M 773.214844 96 C 773.214844 107.714844 763.714844 117.214844 752 117.214844 C 740.285156 117.214844 730.785156 107.714844 730.785156 96 C 730.785156 84.285156 740.285156 74.785156 752 74.785156 C 763.714844 74.785156 773.214844 84.285156 773.214844 96 "/>
<path style="fill-rule:nonzero;fill:rgb(100%,51%,0%);fill-opacity:1;stroke-width:1;stroke-linecap:butt;stroke-linejoin:miter;stroke:rgb(0%,0%,0%);stroke-opacity:1;stroke-miterlimit:10;" d="M 943 252 L 972.664062 252 L 984.664062 223.785156 L 996.664062 252 L 1026.332031 252 L 1002.332031 269.4375 L 1010.417969 300.980469 L 984.664062 283.542969 L 958.914062 300.980469 L 971.214844 269.4375 L 943 252 "/>
<path style="fill-rule:nonzero;fill:rgb(100%,51%,0%);fill-opacity:1;stroke-width:1;stroke-linecap:butt;stroke-linejoin:miter;stroke:rgb(0%,0%,0%);stroke-opacity:1;stroke-miterlimit:10;" d="M 768 405 L 797.664062 405 L 809.664062 376.785156 L 821.664062 405 L 851.332031 405 L 827.332031 422.4375 L 835.417969 453.980469 L 809.664062 436.542969 L 783.914062 453.980469 L 796.214844 422.4375 L 768 405 "/>
</g>
</svg>
