<?xml version="1.0" encoding="UTF-8"?>
<svg xmlns="http://www.w3.org/2000/svg" xmlns:xlink="http://www.w3.org/1999/xlink" width="1129pt" height="517pt" viewBox="0 0 1129 517" version="1.1">
<g id="surface186">
<rect x="0" y="0" width="1129" height="517" style="fill:rgb(90%,90%,90%);fill-opacity:1;stroke:none;"/>
<path style="fill-rule:nonzero;fill:rgb(35%,70%,90%);fill-opacity:1;stroke-width:1;stroke-linecap:butt;stroke-linejoin:miter;stroke:rgb(0%,0%,0%);stroke-opacity:1;stroke-miterlimit:10;" d="M 516 406 L 545.664062 406 L 557.664062 377.785156 L 569.664062 406 L 599.332031 406 L 575.332031 423.4375 L 583.417969 454.980469 L 557.664062 437.542969 L 531.914062 454.980469 L 544.214844 423.4375 L 516 406 "/>
<path style="fill-rule:nonzero;fill:rgb(35%,70%,90%);fill-opacity:1;stroke-width:1;stroke-linecap:butt;stroke-linejoin:miter;stroke:rgb(0%,0%,0%);stroke-opacity:1;stroke-miterlimit:10;" d="M 290 100 L 319.664062 100 L 331.664062 71.785156 L 343.664062 100 L 373.332031 100 L 349.332031 117.4375 L 357.417969 148.980469 L 331.664062 131.542969 L 305.914062 148.980469 L 318.214844 117.4375 L 290 100 "/>
<path style="fill-rule:nonzero;fill:rgb(35%,70%,90%);fill-opacity:1;stroke-width:1;stroke-linecap:butt;stroke-linejoin:miter;stroke:rgb(0%,0%,0%);stroke-opacity:1;stroke-miterlimit:10;" d="M 570 263 L 599.664062 263 L 611.664062 234.785156 L 623.664062 263 L 653.332031 263 L 629.332031 280.4375 L 637.417969 311.980469 L 611.664062 294.542969 L 585.914062 311.980469 L 598.214844 280.4375 L 570 263 "/>
<path style="fill-rule:nonzero;fill:rgb(35%,70%,90%);fill-opacity:1;stroke-width:1;stroke-linecap:butt;stroke-linejoin:miter;stroke:rgb(0%,0%,0%);stroke-opacity:1;stroke-miterlimit:10;" d="M 245 279 L 274.664062 279 L 286.664062 250.785156 L 298.664062 279 L 328.332031 279 L 304.332031 296.4375 L 312.417969 327.980469 L 286.664062 310.542969 L 260.914062 327.980469 L 273.214844 296.4375 L 245 279 "/>
<path style="fill-rule:nonzero;fill:rgb(35%,70%,90%);fill-opacity:1;stroke-width:1;stroke-linecap:butt;stroke-linejoin:miter;stroke:rgb(0%,0%,0%);stroke-opacity:1;stroke-miterlimit:10;" d="M 793 287 L 822.664062 287 L 834.664062 258.785156 L 846.664062 287 L 876.332031 287 L 852.332031 304.4375 L 860.417969 335.980469 L 834.664062 318.542969 L 808.914062 335.980469 L 821.214844 304.4375 L 793 287 "/>
<path style="fill-rule:nonzero;fill:rgb(35%,70%,90%);fill-opacity:1;stroke-width:1;stroke-linecap:butt;stroke-linejoin:miter;stroke:rgb(0%,0%,0%);stroke-opacity:1;stroke-miterlimit:10;" d="M 54 419 L 83.664062 419 L 95.664062 390.785156 L 107.664062 419 L 137.332031 419 L 113.332031 436.4375 L 121.417969 467.980469 L 95.664062 450.542969 L 69.914062 467.980469 L 82.214844 436.4375 L 54 419 "/>
<path style="fill-rule:nonzero;fill:rgb(35%,70%,90%);fill-opacity:1;stroke-width:1;stroke-linecap:butt;stroke-linejoin:miter;stroke:rgb(0%,0%,0%);stroke-opacity:1;stroke-miterlimit:10;" d="M 411 137 L 440.664062 137 L 452.664062 108.785156 L 464.664062 137 L 494.332031 137 L 470.332031 154.4375 L 478.417969 185.980469 L 452.664062 168.542969 L 426.914062 185.980469 L 439.214844 154.4375 L 411 137 "/>
<path style="fill-rule:nonzero;fill:rgb(100%,51%,0%);fill-opacity:1;stroke-width:1;stroke-linecap:butt;stroke-linejoin:miter;stroke:rgb(0%,0%,0%);stroke-opacity:1;stroke-miterlimit:10;" d="M 374 224 L 348.019531 269 L 399.980469 269 L 374 224 "/>
<path style="fill-rule:nonzero;fill:rgb(100%,51%,0%);fill-opacity:1;stroke-width:1;stroke-linecap:butt;stroke-linejoin:miter;stroke:rgb(0%,0%,0%);stroke-opacity:1;stroke-miterlimit:10;" d="M 768 31 L 742.019531 76 L 793.980469 76 L 768 31 "/>
<path style="fill-rule:nonzero;fill:rgb(100%,51%,0%);fill-opacity:1;stroke-width:1;stroke-linecap:butt;stroke-linejoin:miter;stroke:rgb(0%,0%,0%);stroke-opacity:1;stroke-miterlimit:10;" d="M 202 142 L 176.019531 187 L 227.980469 187 L 202 142 "/>
<path style="fill-rule:nonzero;fill:rgb(100%,51%,0%);fill-opacity:1;stroke-width:1;stroke-linecap:butt;stroke-linejoin:miter;stroke:rgb(0%,0%,0%);stroke-opacity:1;stroke-miterlimit:10;" d="M 922 67 L 896.019531 112 L 947.980469 112 L 922 67 "/>
<path style="fill-rule:nonzero;fill:rgb(100%,51%,0%);fill-opacity:1;stroke-width:1;stroke-linecap:butt;stroke-linejoin:miter;stroke:rgb(0%,0%,0%);stroke-opacity:1;stroke-miterlimit:10;" d="M 151 376 L 125.019531 421 L 176.980469 421 L 151 376 "/>
</g>
</svg>
