<?xml version="1.0" encoding="UTF-8"?>
<svg xmlns="http://www.w3.org/2000/svg" xmlns:xlink="http://www.w3.org/1999/xlink" width="1129pt" height="517pt" viewBox="0 0 1129 517" version="1.1">
<g id="surface611">
<rect x="0" y="0" width="1129" height="517" style="fill:rgb(90%,90%,90%);fill-opacity:1;stroke:none;"/>
<path style="fill-rule:nonzero;fill:rgb(35%,70%,90%);fill-opacity:1;stroke-width:1;stroke-linecap:butt;stroke-linejoin:miter;stroke:rgb(0%,0%,0%);stroke-opacity:1;stroke-miterlimit:10;" d="M 323 59 L 352.664062 59 L 364.664062 30.785156 L 376.664062 59 L 406.332031 59 L 382.332031 76.4375 L 390.417969 107.980469 L 364.664062 90.542969 L 338.914062 107.980469 L 351.214844 76.4375 L 323 59 "/>
<path style="fill-rule:nonzero;fill:rgb(35%,70%,90%);fill-opacity:1;stroke-width:1;stroke-linecap:butt;stroke-linejoin:miter;stroke:rgb(0%,0%,0%);stroke-opacity:1;stroke-miterlimit:10;" d="M 58 225 L 87.664062 225 L 99.664062 196.785156 L 111.664062 225 L 141.332031 225 L 117.332031 242.4375 L 125.417969 273.980469 L 99.664062 256.542969 L 73.914062 273.980469 L 86.214844 242.4375 L 58 225 "/>
<path style="fill-rule:nonzero;fill:rgb(55%,51%,53%);fill-opacity:1;stroke-width:1;stroke-linecap:butt;stroke-linejoin:miter;stroke:rgb(0%,0%,0%);stroke-opacity:1;stroke-miterlimit:10;" d="M 308 450 L 337.664062 450 L 349.664062 421.785156 L 361.664062 450 L 391.332031 450 L 367.332031 467.4375 L 375.417969 498.980469 L 349.664062 481.542969 L 323.914062 498.980469 L 336.214844 467.4375 L 308 450 "/>
<path style="fill-rule:nonzero;fill:rgb(55%,51%,53%);fill-opacity:1;stroke-width:1;stroke-linecap:butt;stroke-linejoin:miter;stroke:rgb(0%,0%,0%);stroke-opacity:1;stroke-miterlimit:10;" d="M 434 335 L 463.664062 335 L 475.664062 306.785156 L 487.664062 335 L 517.332031 335 L 493.332031 352.4375 L 501.417969 383.980469 L 475.664062 366.542969 L 449.914062 383.980469 L 462.214844 352.4375 L 434 335 "/>
<path style="fill-rule:nonzero;fill:rgb(35%,70%,90%);fill-opacity:1;stroke-width:1;stroke-linecap:butt;stroke-linejoin:miter;stroke:rgb(0%,0%,0%);stroke-opacity:1;stroke-miterlimit:10;" d="M 259 213 L 288.664062 213 L 300.664062 184.785156 L 312.664062 213 L 342.332031 213 L 318.332031 230.4375 L 326.417969 261.980469 L 300.664062 244.542969 L 274.914062 261.980469 L 287.214844 230.4375 L 259 213 "/>
<path style="fill-rule:nonzero;fill:rgb(55%,51%,53%);fill-opacity:1;stroke-width:1;stroke-linecap:butt;stroke-linejoin:miter;stroke:rgb(0%,0%,0%);stroke-opacity:1;stroke-miterlimit:10;" d="M 888.785156 283.785156 L 888.785156 326.214844 L 931.214844 326.214844 L 931.214844 283.785156 L 888.785156 283.785156 "/>
<path style="fill-rule:nonzero;fill:rgb(55%,51%,53%);fill-opacity:1;stroke-width:1;stroke-linecap:butt;stroke-linejoin:miter;stroke:rgb(0%,0%,0%);stroke-opacity:1;stroke-miterlimit:10;" d="M 658.785156 287.785156 L 658.785156 330.214844 L 701.214844 330.214844 L 701.214844 287.785156 L 658.785156 287.785156 "/>
<path style="fill-rule:nonzero;fill:rgb(35%,70%,90%);fill-opacity:1;stroke-width:1;stroke-linecap:butt;stroke-linejoin:miter;stroke:rgb(0%,0%,0%);stroke-opacity:1;stroke-miterlimit:10;" d="M 665.785156 56.785156 L 665.785156 99.214844 L 708.214844 99.214844 L 708.214844 56.785156 L 665.785156 56.785156 "/>
<path style="fill-rule:nonzero;fill:rgb(35%,70%,90%);fill-opacity:1;stroke-width:1;stroke-linecap:butt;stroke-linejoin:miter;stroke:rgb(0%,0%,0%);stroke-opacity:1;stroke-miterlimit:10;" d="M 644.785156 382.785156 L 644.785156 425.214844 L 687.214844 425.214844 L 687.214844 382.785156 L 644.785156 382.785156 "/>
<path style="fill-rule:nonzero;fill:rgb(55%,51%,53%);fill-opacity:1;stroke-width:1;stroke-linecap:butt;stroke-linejoin:miter;stroke:rgb(0%,0%,0%);stroke-opacity:1;stroke-miterlimit:10;" d="M 819.785156 64.785156 L 819.785156 107.214844 L 862.214844 107.214844 L 862.214844 64.785156 L 819.785156 64.785156 "/>
</g>
</svg>
