<?xml version="1.0" encoding="UTF-8"?>
<svg xmlns="http://www.w3.org/2000/svg" xmlns:xlink="http://www.w3.org/1999/xlink" width="1129pt" height="517pt" viewBox="0 0 1129 517" version="1.1">
<g id="surface221">
<rect x="0" y="0" width="1129" height="517" style="fill:rgb(90%,90%,90%);fill-opacity:1;stroke:none;"/>
<path style="fill-rule:nonzero;fill:rgb(35%,70%,90%);fill-opacity:1;stroke-width:1;stroke-linecap:butt;stroke-linejoin:miter;stroke:rgb(0%,0%,0%);stroke-opacity:1;stroke-miterlimit:10;" d="M 376 317 L 405.664062 317 L 417.664062 288.785156 L 429.664062 317 L 459.332031 317 L 435.332031 334.4375 L 443.417969 365.980469 L 417.664062 348.542969 L 391.914062 365.980469 L 404.214844 334.4375 L 376 317 "/>
<path style="fill-rule:nonzero;fill:rgb(53%,27%,7%);fill-opacity:1;stroke-width:1;stroke-linecap:butt;stroke-linejoin:miter;stroke:rgb(0%,0%,0%);stroke-opacity:1;stroke-miterlimit:10;" d="M 333 443 L 362.664062 443 L 374.664062 414.785156 L 386.664062 443 L 416.332031 443 L 392.332031 460.4375 L 400.417969 491.980469 L 374.664062 474.542969 L 348.914062 491.980469 L 361.214844 460.4375 L 333 443 "/>
<path style="fill-rule:nonzero;fill:rgb(53%,27%,7%);fill-opacity:1;stroke-width:1;stroke-linecap:butt;stroke-linejoin:miter;stroke:rgb(0%,0%,0%);stroke-opacity:1;stroke-miterlimit:10;" d="M 277 240 L 306.664062 240 L 318.664062 211.785156 L 330.664062 240 L 360.332031 240 L 336.332031 257.4375 L 344.417969 288.980469 L 318.664062 271.542969 L 292.914062 288.980469 L 305.214844 257.4375 L 277 240 "/>
<path style="fill-rule:nonzero;fill:rgb(35%,70%,90%);fill-opacity:1;stroke-width:1;stroke-linecap:butt;stroke-linejoin:miter;stroke:rgb(0%,0%,0%);stroke-opacity:1;stroke-miterlimit:10;" d="M 295 141 L 324.664062 141 L 336.664062 112.785156 L 348.664062 141 L 378.332031 141 L 354.332031 158.4375 L 362.417969 189.980469 L 336.664062 172.542969 L 310.914062 189.980469 L 323.214844 158.4375 L 295 141 "/>
<path style="fill-rule:nonzero;fill:rgb(35%,70%,90%);fill-opacity:1;stroke-width:1;stroke-linecap:butt;stroke-linejoin:miter;stroke:rgb(0%,0%,0%);stroke-opacity:1;stroke-miterlimit:10;" d="M 60 282 L 89.664062 282 L 101.664062 253.785156 L 113.664062 282 L 143.332031 282 L 119.332031 299.4375 L 127.417969 330.980469 L 101.664062 313.542969 L 75.914062 330.980469 L 88.214844 299.4375 L 60 282 "/>
<path style="fill-rule:nonzero;fill:rgb(35%,70%,90%);fill-opacity:1;stroke-width:1;stroke-linecap:butt;stroke-linejoin:miter;stroke:rgb(0%,0%,0%);stroke-opacity:1;stroke-miterlimit:10;" d="M 184 245 L 213.664062 245 L 225.664062 216.785156 L 237.664062 245 L 267.332031 245 L 243.332031 262.4375 L 251.417969 293.980469 L 225.664062 276.542969 L 199.914062 293.980469 L 212.214844 262.4375 L 184 245 "/>
<path style="fill-rule:nonzero;fill:rgb(35%,70%,90%);fill-opacity:1;stroke-width:1;stroke-linecap:butt;stroke-linejoin:miter;stroke:rgb(0%,0%,0%);stroke-opacity:1;stroke-miterlimit:10;" d="M 452 119 L 481.664062 119 L 493.664062 90.785156 L 505.664062 119 L 535.332031 119 L 511.332031 136.4375 L 519.417969 167.980469 L 493.664062 150.542969 L 467.914062 167.980469 L 480.214844 136.4375 L 452 119 "/>
<path style="fill-rule:nonzero;fill:rgb(35%,70%,90%);fill-opacity:1;stroke-width:1;stroke-linecap:butt;stroke-linejoin:miter;stroke:rgb(0%,0%,0%);stroke-opacity:1;stroke-miterlimit:10;" d="M 167 365 L 196.664062 365 L 208.664062 336.785156 L 220.664062 365 L 250.332031 365 L 226.332031 382.4375 L 234.417969 413.980469 L 208.664062 396.542969 L 182.914062 413.980469 L 195.214844 382.4375 L 167 365 "/>
<path style="fill-rule:nonzero;fill:rgb(53%,27%,7%);fill-opacity:1;stroke-width:1;stroke-linecap:butt;stroke-linejoin:miter;stroke:rgb(0%,0%,0%);stroke-opacity:1;stroke-miterlimit:10;" d="M 713.785156 191.785156 L 713.785156 234.214844 L 756.214844 234.214844 L 756.214844 191.785156 L 713.785156 191.785156 "/>
<path style="fill-rule:nonzero;fill:rgb(35%,70%,90%);fill-opacity:1;stroke-width:1;stroke-linecap:butt;stroke-linejoin:miter;stroke:rgb(0%,0%,0%);stroke-opacity:1;stroke-miterlimit:10;" d="M 647.785156 260.785156 L 647.785156 303.214844 L 690.214844 303.214844 L 690.214844 260.785156 L 647.785156 260.785156 "/>
<path style="fill-rule:nonzero;fill:rgb(35%,70%,90%);fill-opacity:1;stroke-width:1;stroke-linecap:butt;stroke-linejoin:miter;stroke:rgb(0%,0%,0%);stroke-opacity:1;stroke-miterlimit:10;" d="M 757.785156 433.785156 L 757.785156 476.214844 L 800.214844 476.214844 L 800.214844 433.785156 L 757.785156 433.785156 "/>
<path style="fill-rule:nonzero;fill:rgb(53%,27%,7%);fill-opacity:1;stroke-width:1;stroke-linecap:butt;stroke-linejoin:miter;stroke:rgb(0%,0%,0%);stroke-opacity:1;stroke-miterlimit:10;" d="M 855.785156 293.785156 L 855.785156 336.214844 L 898.214844 336.214844 L 898.214844 293.785156 L 855.785156 293.785156 "/>
<path style="fill-rule:nonzero;fill:rgb(53%,27%,7%);fill-opacity:1;stroke-width:1;stroke-linecap:butt;stroke-linejoin:miter;stroke:rgb(0%,0%,0%);stroke-opacity:1;stroke-miterlimit:10;" d="M 949.785156 292.785156 L 949.785156 335.214844 L 992.214844 335.214844 L 992.214844 292.785156 L 949.785156 292.785156 "/>
<path style="fill-rule:nonzero;fill:rgb(53%,27%,7%);fill-opacity:1;stroke-width:1;stroke-linecap:butt;stroke-linejoin:miter;stroke:rgb(0%,0%,0%);stroke-opacity:1;stroke-miterlimit:10;" d="M 978.785156 203.785156 L 978.785156 246.214844 L 1021.214844 246.214844 L 1021.214844 203.785156 L 978.785156 203.785156 "/>
</g>
</svg>
