<?xml version="1.0" encoding="UTF-8"?>
<svg xmlns="http://www.w3.org/2000/svg" xmlns:xlink="http://www.w3.org/1999/xlink" width="1179pt" height="517pt" viewBox="0 0 1179 517" version="1.1">
<g id="surface581">
<rect x="0" y="0" width="1179" height="517" style="fill:rgb(90%,90%,90%);fill-opacity:1;stroke:none;"/>
<path style="fill-rule:nonzero;fill:rgb(35%,70%,90%);fill-opacity:1;stroke-width:1;stroke-linecap:butt;stroke-linejoin:miter;stroke:rgb(0%,0%,0%);stroke-opacity:1;stroke-miterlimit:10;" d="M 416 250 L 445.664062 250 L 457.664062 221.785156 L 469.664062 250 L 499.332031 250 L 475.332031 267.4375 L 483.417969 298.980469 L 457.664062 281.542969 L 431.914062 298.980469 L 444.214844 267.4375 L 416 250 "/>
<path style="fill-rule:nonzero;fill:rgb(53%,27%,7%);fill-opacity:1;stroke-width:1;stroke-linecap:butt;stroke-linejoin:miter;stroke:rgb(0%,0%,0%);stroke-opacity:1;stroke-miterlimit:10;" d="M 418 400 L 447.664062 400 L 459.664062 371.785156 L 471.664062 400 L 501.332031 400 L 477.332031 417.4375 L 485.417969 448.980469 L 459.664062 431.542969 L 433.914062 448.980469 L 446.214844 417.4375 L 418 400 "/>
<path style="fill-rule:nonzero;fill:rgb(35%,70%,90%);fill-opacity:1;stroke-width:1;stroke-linecap:butt;stroke-linejoin:miter;stroke:rgb(0%,0%,0%);stroke-opacity:1;stroke-miterlimit:10;" d="M 104 313 L 133.664062 313 L 145.664062 284.785156 L 157.664062 313 L 187.332031 313 L 163.332031 330.4375 L 171.417969 361.980469 L 145.664062 344.542969 L 119.914062 361.980469 L 132.214844 330.4375 L 104 313 "/>
<path style="fill-rule:nonzero;fill:rgb(53%,27%,7%);fill-opacity:1;stroke-width:1;stroke-linecap:butt;stroke-linejoin:miter;stroke:rgb(0%,0%,0%);stroke-opacity:1;stroke-miterlimit:10;" d="M 315 391 L 344.664062 391 L 356.664062 362.785156 L 368.664062 391 L 398.332031 391 L 374.332031 408.4375 L 382.417969 439.980469 L 356.664062 422.542969 L 330.914062 439.980469 L 343.214844 408.4375 L 315 391 "/>
<path style="fill-rule:nonzero;fill:rgb(35%,70%,90%);fill-opacity:1;stroke-width:1;stroke-linecap:butt;stroke-linejoin:miter;stroke:rgb(0%,0%,0%);stroke-opacity:1;stroke-miterlimit:10;" d="M 269 178 L 298.664062 178 L 310.664062 149.785156 L 322.664062 178 L 352.332031 178 L 328.332031 195.4375 L 336.417969 226.980469 L 310.664062 209.542969 L 284.914062 226.980469 L 297.214844 195.4375 L 269 178 "/>
<path style="fill-rule:nonzero;fill:rgb(53%,27%,7%);fill-opacity:1;stroke-width:1;stroke-linecap:butt;stroke-linejoin:miter;stroke:rgb(0%,0%,0%);stroke-opacity:1;stroke-miterlimit:10;" d="M 844.785156 334.785156 L 844.785156 377.214844 L 887.214844 377.214844 L 887.214844 334.785156 L 844.785156 334.785156 "/>
<path style="fill-rule:nonzero;fill:rgb(35%,70%,90%);fill-opacity:1;stroke-width:1;stroke-linecap:butt;stroke-linejoin:miter;stroke:rgb(0%,0%,0%);stroke-opacity:1;stroke-miterlimit:10;" d="M 1001.785156 395.785156 L 1001.785156 438.214844 L 1044.214844 438.214844 L 1044.214844 395.785156 L 1001.785156 395.785156 "/>
<path style="fill-rule:nonzero;fill:rgb(53%,27%,7%);fill-opacity:1;stroke-width:1;stroke-linecap:butt;stroke-linejoin:miter;stroke:rgb(0%,0%,0%);stroke-opacity:1;stroke-miterlimit:10;" d="M 695.785156 105.785156 L 695.785156 148.214844 L 738.214844 148.214844 L 738.214844 105.785156 L 695.785156 105.785156 "/>
<path style="fill-rule:nonzero;fill:rgb(35%,70%,90%);fill-opacity:1;stroke-width:1;stroke-linecap:butt;stroke-linejoin:miter;stroke:rgb(0%,0%,0%);stroke-opacity:1;stroke-miterlimit:10;" d="M 966.785156 282.785156 L 966.785156 325.214844 L 1009.214844 325.214844 L 1009.214844 282.785156 L 966.785156 282.785156 "/>
</g>
</svg>
