<?xml version="1.0" encoding="UTF-8"?>
<svg xmlns="http://www.w3.org/2000/svg" xmlns:xlink="http://www.w3.org/1999/xlink" width="1129pt" height="517pt" viewBox="0 0 1129 517" version="1.1">
<g id="surface726">
<rect x="0" y="0" width="1129" height="517" style="fill:rgb(90%,90%,90%);fill-opacity:1;stroke:none;"/>
<path style="fill-rule:nonzero;fill:rgb(55%,51%,53%);fill-opacity:1;stroke-width:1;stroke-linecap:butt;stroke-linejoin:miter;stroke:rgb(0%,0%,0%);stroke-opacity:1;stroke-miterlimit:10;" d="M 782 415 L 756.019531 460 L 807.980469 460 L 782 415 "/>
<path style="fill-rule:nonzero;fill:rgb(55%,51%,53%);fill-opacity:1;stroke-width:1;stroke-linecap:butt;stroke-linejoin:miter;stroke:rgb(0%,0%,0%);stroke-opacity:1;stroke-miterlimit:10;" d="M 241 143 L 215.019531 188 L 266.980469 188 L 241 143 "/>
<path style="fill-rule:nonzero;fill:rgb(55%,51%,53%);fill-opacity:1;stroke-width:1;stroke-linecap:butt;stroke-linejoin:miter;stroke:rgb(0%,0%,0%);stroke-opacity:1;stroke-miterlimit:10;" d="M 612 194 L 586.019531 239 L 637.980469 239 L 612 194 "/>
<path style="fill-rule:nonzero;fill:rgb(55%,51%,53%);fill-opacity:1;stroke-width:1;stroke-linecap:butt;stroke-linejoin:miter;stroke:rgb(0%,0%,0%);stroke-opacity:1;stroke-miterlimit:10;" d="M 127 104 L 101.019531 149 L 152.980469 149 L 127 104 "/>
<path style="fill-rule:nonzero;fill:rgb(55%,51%,53%);fill-opacity:1;stroke-width:1;stroke-linecap:butt;stroke-linejoin:miter;stroke:rgb(0%,0%,0%);stroke-opacity:1;stroke-miterlimit:10;" d="M 368 385 L 342.019531 430 L 393.980469 430 L 368 385 "/>
<path style="fill-rule:nonzero;fill:rgb(55%,51%,53%);fill-opacity:1;stroke-width:1;stroke-linecap:butt;stroke-linejoin:miter;stroke:rgb(0%,0%,0%);stroke-opacity:1;stroke-miterlimit:10;" d="M 567 93 L 541.019531 138 L 592.980469 138 L 567 93 "/>
<path style="fill-rule:nonzero;fill:rgb(55%,51%,53%);fill-opacity:1;stroke-width:1;stroke-linecap:butt;stroke-linejoin:miter;stroke:rgb(0%,0%,0%);stroke-opacity:1;stroke-miterlimit:10;" d="M 936 307 L 910.019531 352 L 961.980469 352 L 936 307 "/>
<path style="fill-rule:nonzero;fill:rgb(55%,51%,53%);fill-opacity:1;stroke-width:1;stroke-linecap:butt;stroke-linejoin:miter;stroke:rgb(0%,0%,0%);stroke-opacity:1;stroke-miterlimit:10;" d="M 846 265 L 820.019531 310 L 871.980469 310 L 846 265 "/>
<path style="fill-rule:nonzero;fill:rgb(55%,51%,53%);fill-opacity:1;stroke-width:1;stroke-linecap:butt;stroke-linejoin:miter;stroke:rgb(0%,0%,0%);stroke-opacity:1;stroke-miterlimit:10;" d="M 906 453 L 935.664062 453 L 947.664062 424.785156 L 959.664062 453 L 989.332031 453 L 965.332031 470.4375 L 973.417969 501.980469 L 947.664062 484.542969 L 921.914062 501.980469 L 934.214844 470.4375 L 906 453 "/>
<path style="fill-rule:nonzero;fill:rgb(55%,51%,53%);fill-opacity:1;stroke-width:1;stroke-linecap:butt;stroke-linejoin:miter;stroke:rgb(0%,0%,0%);stroke-opacity:1;stroke-miterlimit:10;" d="M 570 345 L 599.664062 345 L 611.664062 316.785156 L 623.664062 345 L 653.332031 345 L 629.332031 362.4375 L 637.417969 393.980469 L 611.664062 376.542969 L 585.914062 393.980469 L 598.214844 362.4375 L 570 345 "/>
<path style="fill-rule:nonzero;fill:rgb(55%,51%,53%);fill-opacity:1;stroke-width:1;stroke-linecap:butt;stroke-linejoin:miter;stroke:rgb(0%,0%,0%);stroke-opacity:1;stroke-miterlimit:10;" d="M 154 368 L 183.664062 368 L 195.664062 339.785156 L 207.664062 368 L 237.332031 368 L 213.332031 385.4375 L 221.417969 416.980469 L 195.664062 399.542969 L 169.914062 416.980469 L 182.214844 385.4375 L 154 368 "/>
<path style="fill-rule:nonzero;fill:rgb(55%,51%,53%);fill-opacity:1;stroke-width:1;stroke-linecap:butt;stroke-linejoin:miter;stroke:rgb(0%,0%,0%);stroke-opacity:1;stroke-miterlimit:10;" d="M 273 430 L 302.664062 430 L 314.664062 401.785156 L 326.664062 430 L 356.332031 430 L 332.332031 447.4375 L 340.417969 478.980469 L 314.664062 461.542969 L 288.914062 478.980469 L 301.214844 447.4375 L 273 430 "/>
<path style="fill-rule:nonzero;fill:rgb(55%,51%,53%);fill-opacity:1;stroke-width:1;stroke-linecap:butt;stroke-linejoin:miter;stroke:rgb(0%,0%,0%);stroke-opacity:1;stroke-miterlimit:10;" d="M 107 259 L 136.664062 259 L 148.664062 230.785156 L 160.664062 259 L 190.332031 259 L 166.332031 276.4375 L 174.417969 307.980469 L 148.664062 290.542969 L 122.914062 307.980469 L 135.214844 276.4375 L 107 259 "/>
<path style="fill-rule:nonzero;fill:rgb(55%,51%,53%);fill-opacity:1;stroke-width:1;stroke-linecap:butt;stroke-linejoin:miter;stroke:rgb(0%,0%,0%);stroke-opacity:1;stroke-miterlimit:10;" d="M 78 462 L 107.664062 462 L 119.664062 433.785156 L 131.664062 462 L 161.332031 462 L 137.332031 479.4375 L 145.417969 510.980469 L 119.664062 493.542969 L 93.914062 510.980469 L 106.214844 479.4375 L 78 462 "/>
<path style="fill-rule:nonzero;fill:rgb(55%,51%,53%);fill-opacity:1;stroke-width:1;stroke-linecap:butt;stroke-linejoin:miter;stroke:rgb(0%,0%,0%);stroke-opacity:1;stroke-miterlimit:10;" d="M 749 354 L 778.664062 354 L 790.664062 325.785156 L 802.664062 354 L 832.332031 354 L 808.332031 371.4375 L 816.417969 402.980469 L 790.664062 385.542969 L 764.914062 402.980469 L 777.214844 371.4375 L 749 354 "/>
</g>
</svg>
