<?xml version="1.0" encoding="UTF-8"?>
<svg xmlns="http://www.w3.org/2000/svg" xmlns:xlink="http://www.w3.org/1999/xlink" width="1129pt" height="517pt" viewBox="0 0 1129 517" version="1.1">
<g id="surface701">
<rect x="0" y="0" width="1129" height="517" style="fill:rgb(90%,90%,90%);fill-opacity:1;stroke:none;"/>
<path style="fill-rule:nonzero;fill:rgb(55%,51%,53%);fill-opacity:1;stroke-width:1;stroke-linecap:butt;stroke-linejoin:miter;stroke:rgb(0%,0%,0%);stroke-opacity:1;stroke-miterlimit:10;" d="M 248 355 L 277.664062 355 L 289.664062 326.785156 L 301.664062 355 L 331.332031 355 L 307.332031 372.4375 L 315.417969 403.980469 L 289.664062 386.542969 L 263.914062 403.980469 L 276.214844 372.4375 L 248 355 "/>
<path style="fill-rule:nonzero;fill:rgb(53%,27%,7%);fill-opacity:1;stroke-width:1;stroke-linecap:butt;stroke-linejoin:miter;stroke:rgb(0%,0%,0%);stroke-opacity:1;stroke-miterlimit:10;" d="M 90 231 L 119.664062 231 L 131.664062 202.785156 L 143.664062 231 L 173.332031 231 L 149.332031 248.4375 L 157.417969 279.980469 L 131.664062 262.542969 L 105.914062 279.980469 L 118.214844 248.4375 L 90 231 "/>
<path style="fill-rule:nonzero;fill:rgb(55%,51%,53%);fill-opacity:1;stroke-width:1;stroke-linecap:butt;stroke-linejoin:miter;stroke:rgb(0%,0%,0%);stroke-opacity:1;stroke-miterlimit:10;" d="M 431 429 L 460.664062 429 L 472.664062 400.785156 L 484.664062 429 L 514.332031 429 L 490.332031 446.4375 L 498.417969 477.980469 L 472.664062 460.542969 L 446.914062 477.980469 L 459.214844 446.4375 L 431 429 "/>
<path style="fill-rule:nonzero;fill:rgb(53%,27%,7%);fill-opacity:1;stroke-width:1;stroke-linecap:butt;stroke-linejoin:miter;stroke:rgb(0%,0%,0%);stroke-opacity:1;stroke-miterlimit:10;" d="M 297 193 L 326.664062 193 L 338.664062 164.785156 L 350.664062 193 L 380.332031 193 L 356.332031 210.4375 L 364.417969 241.980469 L 338.664062 224.542969 L 312.914062 241.980469 L 325.214844 210.4375 L 297 193 "/>
<path style="fill-rule:nonzero;fill:rgb(55%,51%,53%);fill-opacity:1;stroke-width:1;stroke-linecap:butt;stroke-linejoin:miter;stroke:rgb(0%,0%,0%);stroke-opacity:1;stroke-miterlimit:10;" d="M 151 444 L 180.664062 444 L 192.664062 415.785156 L 204.664062 444 L 234.332031 444 L 210.332031 461.4375 L 218.417969 492.980469 L 192.664062 475.542969 L 166.914062 492.980469 L 179.214844 461.4375 L 151 444 "/>
<path style="fill-rule:nonzero;fill:rgb(53%,27%,7%);fill-opacity:1;stroke-width:1;stroke-linecap:butt;stroke-linejoin:miter;stroke:rgb(0%,0%,0%);stroke-opacity:1;stroke-miterlimit:10;" d="M 641.785156 202.785156 L 641.785156 245.214844 L 684.214844 245.214844 L 684.214844 202.785156 L 641.785156 202.785156 "/>
<path style="fill-rule:nonzero;fill:rgb(55%,51%,53%);fill-opacity:1;stroke-width:1;stroke-linecap:butt;stroke-linejoin:miter;stroke:rgb(0%,0%,0%);stroke-opacity:1;stroke-miterlimit:10;" d="M 620.785156 392.785156 L 620.785156 435.214844 L 663.214844 435.214844 L 663.214844 392.785156 L 620.785156 392.785156 "/>
<path style="fill-rule:nonzero;fill:rgb(53%,27%,7%);fill-opacity:1;stroke-width:1;stroke-linecap:butt;stroke-linejoin:miter;stroke:rgb(0%,0%,0%);stroke-opacity:1;stroke-miterlimit:10;" d="M 921.785156 270.785156 L 921.785156 313.214844 L 964.214844 313.214844 L 964.214844 270.785156 L 921.785156 270.785156 "/>
<path style="fill-rule:nonzero;fill:rgb(55%,51%,53%);fill-opacity:1;stroke-width:1;stroke-linecap:butt;stroke-linejoin:miter;stroke:rgb(0%,0%,0%);stroke-opacity:1;stroke-miterlimit:10;" d="M 837.785156 39.785156 L 837.785156 82.214844 L 880.214844 82.214844 L 880.214844 39.785156 L 837.785156 39.785156 "/>
<path style="fill-rule:nonzero;fill:rgb(53%,27%,7%);fill-opacity:1;stroke-width:1;stroke-linecap:butt;stroke-linejoin:miter;stroke:rgb(0%,0%,0%);stroke-opacity:1;stroke-miterlimit:10;" d="M 807.785156 130.785156 L 807.785156 173.214844 L 850.214844 173.214844 L 850.214844 130.785156 L 807.785156 130.785156 "/>
<path style="fill-rule:nonzero;fill:rgb(53%,27%,7%);fill-opacity:1;stroke-width:1;stroke-linecap:butt;stroke-linejoin:miter;stroke:rgb(0%,0%,0%);stroke-opacity:1;stroke-miterlimit:10;" d="M 708.785156 421.785156 L 708.785156 464.214844 L 751.214844 464.214844 L 751.214844 421.785156 L 708.785156 421.785156 "/>
<path style="fill-rule:nonzero;fill:rgb(53%,27%,7%);fill-opacity:1;stroke-width:1;stroke-linecap:butt;stroke-linejoin:miter;stroke:rgb(0%,0%,0%);stroke-opacity:1;stroke-miterlimit:10;" d="M 802.785156 373.785156 L 802.785156 416.214844 L 845.214844 416.214844 L 845.214844 373.785156 L 802.785156 373.785156 "/>
</g>
</svg>
