<?xml version="1.0" encoding="UTF-8"?>
<svg xmlns="http://www.w3.org/2000/svg" xmlns:xlink="http://www.w3.org/1999/xlink" width="1179pt" height="517pt" viewBox="0 0 1179 517" version="1.1">
<g id="surface906">
<rect x="0" y="0" width="1179" height="517" style="fill:rgb(90%,90%,90%);fill-opacity:1;stroke:none;"/>
<path style="fill-rule:nonzero;fill:rgb(55%,51%,53%);fill-opacity:1;stroke-width:1;stroke-linecap:butt;stroke-linejoin:miter;stroke:rgb(0%,0%,0%);stroke-opacity:1;stroke-miterlimit:10;" d="M 174 244 L 203.664062 244 L 215.664062 215.785156 L 227.664062 244 L 257.332031 244 L 233.332031 261.4375 L 241.417969 292.980469 L 215.664062 275.542969 L 189.914062 292.980469 L 202.214844 261.4375 L 174 244 "/>
<path style="fill-rule:nonzero;fill:rgb(55%,51%,53%);fill-opacity:1;stroke-width:1;stroke-linecap:butt;stroke-linejoin:miter;stroke:rgb(0%,0%,0%);stroke-opacity:1;stroke-miterlimit:10;" d="M 210 415 L 239.664062 415 L 251.664062 386.785156 L 263.664062 415 L 293.332031 415 L 269.332031 432.4375 L 277.417969 463.980469 L 251.664062 446.542969 L 225.914062 463.980469 L 238.214844 432.4375 L 210 415 "/>
<path style="fill-rule:nonzero;fill:rgb(55%,51%,53%);fill-opacity:1;stroke-width:1;stroke-linecap:butt;stroke-linejoin:miter;stroke:rgb(0%,0%,0%);stroke-opacity:1;stroke-miterlimit:10;" d="M 187 76 L 161.019531 121 L 212.980469 121 L 187 76 "/>
<path style="fill-rule:nonzero;fill:rgb(55%,51%,53%);fill-opacity:1;stroke-width:1;stroke-linecap:butt;stroke-linejoin:miter;stroke:rgb(0%,0%,0%);stroke-opacity:1;stroke-miterlimit:10;" d="M 272 161 L 246.019531 206 L 297.980469 206 L 272 161 "/>
<path style="fill-rule:nonzero;fill:rgb(55%,51%,53%);fill-opacity:1;stroke-width:1;stroke-linecap:butt;stroke-linejoin:miter;stroke:rgb(0%,0%,0%);stroke-opacity:1;stroke-miterlimit:10;" d="M 396 334 L 425.664062 334 L 437.664062 305.785156 L 449.664062 334 L 479.332031 334 L 455.332031 351.4375 L 463.417969 382.980469 L 437.664062 365.542969 L 411.914062 382.980469 L 424.214844 351.4375 L 396 334 "/>
<path style="fill-rule:nonzero;fill:rgb(55%,51%,53%);fill-opacity:1;stroke-width:1;stroke-linecap:butt;stroke-linejoin:miter;stroke:rgb(0%,0%,0%);stroke-opacity:1;stroke-miterlimit:10;" d="M 329 88 L 358.664062 88 L 370.664062 59.785156 L 382.664062 88 L 412.332031 88 L 388.332031 105.4375 L 396.417969 136.980469 L 370.664062 119.542969 L 344.914062 136.980469 L 357.214844 105.4375 L 329 88 "/>
<path style="fill-rule:nonzero;fill:rgb(55%,51%,53%);fill-opacity:1;stroke-width:1;stroke-linecap:butt;stroke-linejoin:miter;stroke:rgb(0%,0%,0%);stroke-opacity:1;stroke-miterlimit:10;" d="M 101 149 L 75.019531 194 L 126.980469 194 L 101 149 "/>
<path style="fill-rule:nonzero;fill:rgb(55%,51%,53%);fill-opacity:1;stroke-width:1;stroke-linecap:butt;stroke-linejoin:miter;stroke:rgb(0%,0%,0%);stroke-opacity:1;stroke-miterlimit:10;" d="M 417 431 L 446.664062 431 L 458.664062 402.785156 L 470.664062 431 L 500.332031 431 L 476.332031 448.4375 L 484.417969 479.980469 L 458.664062 462.542969 L 432.914062 479.980469 L 445.214844 448.4375 L 417 431 "/>
<path style="fill-rule:nonzero;fill:rgb(55%,51%,53%);fill-opacity:1;stroke-width:1;stroke-linecap:butt;stroke-linejoin:miter;stroke:rgb(0%,0%,0%);stroke-opacity:1;stroke-miterlimit:10;" d="M 775 247 L 749.019531 292 L 800.980469 292 L 775 247 "/>
<path style="fill-rule:nonzero;fill:rgb(55%,51%,53%);fill-opacity:1;stroke-width:1;stroke-linecap:butt;stroke-linejoin:miter;stroke:rgb(0%,0%,0%);stroke-opacity:1;stroke-miterlimit:10;" d="M 938 124 L 967.664062 124 L 979.664062 95.785156 L 991.664062 124 L 1021.332031 124 L 997.332031 141.4375 L 1005.417969 172.980469 L 979.664062 155.542969 L 953.914062 172.980469 L 966.214844 141.4375 L 938 124 "/>
<path style="fill-rule:nonzero;fill:rgb(55%,51%,53%);fill-opacity:1;stroke-width:1;stroke-linecap:butt;stroke-linejoin:miter;stroke:rgb(0%,0%,0%);stroke-opacity:1;stroke-miterlimit:10;" d="M 760 162 L 789.664062 162 L 801.664062 133.785156 L 813.664062 162 L 843.332031 162 L 819.332031 179.4375 L 827.417969 210.980469 L 801.664062 193.542969 L 775.914062 210.980469 L 788.214844 179.4375 L 760 162 "/>
<path style="fill-rule:nonzero;fill:rgb(55%,51%,53%);fill-opacity:1;stroke-width:1;stroke-linecap:butt;stroke-linejoin:miter;stroke:rgb(0%,0%,0%);stroke-opacity:1;stroke-miterlimit:10;" d="M 1019 273 L 993.019531 318 L 1044.980469 318 L 1019 273 "/>
<path style="fill-rule:nonzero;fill:rgb(55%,51%,53%);fill-opacity:1;stroke-width:1;stroke-linecap:butt;stroke-linejoin:miter;stroke:rgb(0%,0%,0%);stroke-opacity:1;stroke-miterlimit:10;" d="M 823 416 L 852.664062 416 L 864.664062 387.785156 L 876.664062 416 L 906.332031 416 L 882.332031 433.4375 L 890.417969 464.980469 L 864.664062 447.542969 L 838.914062 464.980469 L 851.214844 433.4375 L 823 416 "/>
<path style="fill-rule:nonzero;fill:rgb(55%,51%,53%);fill-opacity:1;stroke-width:1;stroke-linecap:butt;stroke-linejoin:miter;stroke:rgb(0%,0%,0%);stroke-opacity:1;stroke-miterlimit:10;" d="M 908 230 L 882.019531 275 L 933.980469 275 L 908 230 "/>
<path style="fill-rule:nonzero;fill:rgb(55%,51%,53%);fill-opacity:1;stroke-width:1;stroke-linecap:butt;stroke-linejoin:miter;stroke:rgb(0%,0%,0%);stroke-opacity:1;stroke-miterlimit:10;" d="M 812 57 L 786.019531 102 L 837.980469 102 L 812 57 "/>
</g>
</svg>
