<?xml version="1.0" encoding="UTF-8"?>
<svg xmlns="http://www.w3.org/2000/svg" xmlns:xlink="http://www.w3.org/1999/xlink" width="1179pt" height="517pt" viewBox="0 0 1179 517" version="1.1">
<g id="surface431">
<rect x="0" y="0" width="1179" height="517" style="fill:rgb(90%,90%,90%);fill-opacity:1;stroke:none;"/>
<path style="fill-rule:nonzero;fill:rgb(35%,70%,90%);fill-opacity:1;stroke-width:1;stroke-linecap:butt;stroke-linejoin:miter;stroke:rgb(0%,0%,0%);stroke-opacity:1;stroke-miterlimit:10;" d="M 310 314 L 339.664062 314 L 351.664062 285.785156 L 363.664062 314 L 393.332031 314 L 369.332031 331.4375 L 377.417969 362.980469 L 351.664062 345.542969 L 325.914062 362.980469 L 338.214844 331.4375 L 310 314 "/>
<path style="fill-rule:nonzero;fill:rgb(35%,70%,90%);fill-opacity:1;stroke-width:1;stroke-linecap:butt;stroke-linejoin:miter;stroke:rgb(0%,0%,0%);stroke-opacity:1;stroke-miterlimit:10;" d="M 176 316 L 205.664062 316 L 217.664062 287.785156 L 229.664062 316 L 259.332031 316 L 235.332031 333.4375 L 243.417969 364.980469 L 217.664062 347.542969 L 191.914062 364.980469 L 204.214844 333.4375 L 176 316 "/>
<path style="fill-rule:nonzero;fill:rgb(35%,70%,90%);fill-opacity:1;stroke-width:1;stroke-linecap:butt;stroke-linejoin:miter;stroke:rgb(0%,0%,0%);stroke-opacity:1;stroke-miterlimit:10;" d="M 403 189 L 432.664062 189 L 444.664062 160.785156 L 456.664062 189 L 486.332031 189 L 462.332031 206.4375 L 470.417969 237.980469 L 444.664062 220.542969 L 418.914062 237.980469 L 431.214844 206.4375 L 403 189 "/>
<path style="fill-rule:nonzero;fill:rgb(35%,70%,90%);fill-opacity:1;stroke-width:1;stroke-linecap:butt;stroke-linejoin:miter;stroke:rgb(0%,0%,0%);stroke-opacity:1;stroke-miterlimit:10;" d="M 139.785156 124.785156 L 139.785156 167.214844 L 182.214844 167.214844 L 182.214844 124.785156 L 139.785156 124.785156 "/>
<path style="fill-rule:nonzero;fill:rgb(55%,51%,53%);fill-opacity:1;stroke-width:1;stroke-linecap:butt;stroke-linejoin:miter;stroke:rgb(0%,0%,0%);stroke-opacity:1;stroke-miterlimit:10;" d="M 863.785156 268.785156 L 863.785156 311.214844 L 906.214844 311.214844 L 906.214844 268.785156 L 863.785156 268.785156 "/>
<path style="fill-rule:nonzero;fill:rgb(55%,51%,53%);fill-opacity:1;stroke-width:1;stroke-linecap:butt;stroke-linejoin:miter;stroke:rgb(0%,0%,0%);stroke-opacity:1;stroke-miterlimit:10;" d="M 754.785156 266.785156 L 754.785156 309.214844 L 797.214844 309.214844 L 797.214844 266.785156 L 754.785156 266.785156 "/>
<path style="fill-rule:nonzero;fill:rgb(55%,51%,53%);fill-opacity:1;stroke-width:1;stroke-linecap:butt;stroke-linejoin:miter;stroke:rgb(0%,0%,0%);stroke-opacity:1;stroke-miterlimit:10;" d="M 830.785156 393.785156 L 830.785156 436.214844 L 873.214844 436.214844 L 873.214844 393.785156 L 830.785156 393.785156 "/>
<path style="fill-rule:nonzero;fill:rgb(55%,51%,53%);fill-opacity:1;stroke-width:1;stroke-linecap:butt;stroke-linejoin:miter;stroke:rgb(0%,0%,0%);stroke-opacity:1;stroke-miterlimit:10;" d="M 953 98 L 982.664062 98 L 994.664062 69.785156 L 1006.664062 98 L 1036.332031 98 L 1012.332031 115.4375 L 1020.417969 146.980469 L 994.664062 129.542969 L 968.914062 146.980469 L 981.214844 115.4375 L 953 98 "/>
<path style="fill-rule:nonzero;fill:rgb(55%,51%,53%);fill-opacity:1;stroke-width:1;stroke-linecap:butt;stroke-linejoin:miter;stroke:rgb(0%,0%,0%);stroke-opacity:1;stroke-miterlimit:10;" d="M 710.785156 361.785156 L 710.785156 404.214844 L 753.214844 404.214844 L 753.214844 361.785156 L 710.785156 361.785156 "/>
<path style="fill-rule:nonzero;fill:rgb(55%,51%,53%);fill-opacity:1;stroke-width:1;stroke-linecap:butt;stroke-linejoin:miter;stroke:rgb(0%,0%,0%);stroke-opacity:1;stroke-miterlimit:10;" d="M 768.785156 173.785156 L 768.785156 216.214844 L 811.214844 216.214844 L 811.214844 173.785156 L 768.785156 173.785156 "/>
</g>
</svg>
