<?xml version="1.0" encoding="UTF-8"?>
<svg xmlns="http://www.w3.org/2000/svg" xmlns:xlink="http://www.w3.org/1999/xlink" width="1129pt" height="517pt" viewBox="0 0 1129 517" version="1.1">
<g id="surface621">
<rect x="0" y="0" width="1129" height="517" style="fill:rgb(90%,90%,90%);fill-opacity:1;stroke:none;"/>
<path style="fill-rule:nonzero;fill:rgb(35%,70%,90%);fill-opacity:1;stroke-width:1;stroke-linecap:butt;stroke-linejoin:miter;stroke:rgb(0%,0%,0%);stroke-opacity:1;stroke-miterlimit:10;" d="M 296.214844 357 C 296.214844 368.714844 286.714844 378.214844 275 378.214844 C 263.285156 378.214844 253.785156 368.714844 253.785156 357 C 253.785156 345.285156 263.285156 335.785156 275 335.785156 C 286.714844 335.785156 296.214844 345.285156 296.214844 357 "/>
<path style="fill-rule:nonzero;fill:rgb(35%,70%,90%);fill-opacity:1;stroke-width:1;stroke-linecap:butt;stroke-linejoin:miter;stroke:rgb(0%,0%,0%);stroke-opacity:1;stroke-miterlimit:10;" d="M 50.785156 193.785156 L 50.785156 236.214844 L 93.214844 236.214844 L 93.214844 193.785156 L 50.785156 193.785156 "/>
<path style="fill-rule:nonzero;fill:rgb(35%,70%,90%);fill-opacity:1;stroke-width:1;stroke-linecap:butt;stroke-linejoin:miter;stroke:rgb(0%,0%,0%);stroke-opacity:1;stroke-miterlimit:10;" d="M 153.785156 104.785156 L 153.785156 147.214844 L 196.214844 147.214844 L 196.214844 104.785156 L 153.785156 104.785156 "/>
<path style="fill-rule:nonzero;fill:rgb(35%,70%,90%);fill-opacity:1;stroke-width:1;stroke-linecap:butt;stroke-linejoin:miter;stroke:rgb(0%,0%,0%);stroke-opacity:1;stroke-miterlimit:10;" d="M 479.214844 403 C 479.214844 414.714844 469.714844 424.214844 458 424.214844 C 446.285156 424.214844 436.785156 414.714844 436.785156 403 C 436.785156 391.285156 446.285156 381.785156 458 381.785156 C 469.714844 381.785156 479.214844 391.285156 479.214844 403 "/>
<path style="fill-rule:nonzero;fill:rgb(35%,70%,90%);fill-opacity:1;stroke-width:1;stroke-linecap:butt;stroke-linejoin:miter;stroke:rgb(0%,0%,0%);stroke-opacity:1;stroke-miterlimit:10;" d="M 95.214844 357 C 95.214844 368.714844 85.714844 378.214844 74 378.214844 C 62.285156 378.214844 52.785156 368.714844 52.785156 357 C 52.785156 345.285156 62.285156 335.785156 74 335.785156 C 85.714844 335.785156 95.214844 345.285156 95.214844 357 "/>
<path style="fill-rule:nonzero;fill:rgb(35%,70%,90%);fill-opacity:1;stroke-width:1;stroke-linecap:butt;stroke-linejoin:miter;stroke:rgb(0%,0%,0%);stroke-opacity:1;stroke-miterlimit:10;" d="M 173.214844 434 C 173.214844 445.714844 163.714844 455.214844 152 455.214844 C 140.285156 455.214844 130.785156 445.714844 130.785156 434 C 130.785156 422.285156 140.285156 412.785156 152 412.785156 C 163.714844 412.785156 173.214844 422.285156 173.214844 434 "/>
<path style="fill-rule:nonzero;fill:rgb(35%,70%,90%);fill-opacity:1;stroke-width:1;stroke-linecap:butt;stroke-linejoin:miter;stroke:rgb(0%,0%,0%);stroke-opacity:1;stroke-miterlimit:10;" d="M 298.214844 138 C 298.214844 149.714844 288.714844 159.214844 277 159.214844 C 265.285156 159.214844 255.785156 149.714844 255.785156 138 C 255.785156 126.285156 265.285156 116.785156 277 116.785156 C 288.714844 116.785156 298.214844 126.285156 298.214844 138 "/>
<path style="fill-rule:nonzero;fill:rgb(55%,51%,53%);fill-opacity:1;stroke-width:1;stroke-linecap:butt;stroke-linejoin:miter;stroke:rgb(0%,0%,0%);stroke-opacity:1;stroke-miterlimit:10;" d="M 872.785156 317.785156 L 872.785156 360.214844 L 915.214844 360.214844 L 915.214844 317.785156 L 872.785156 317.785156 "/>
<path style="fill-rule:nonzero;fill:rgb(55%,51%,53%);fill-opacity:1;stroke-width:1;stroke-linecap:butt;stroke-linejoin:miter;stroke:rgb(0%,0%,0%);stroke-opacity:1;stroke-miterlimit:10;" d="M 650.214844 337 C 650.214844 348.714844 640.714844 358.214844 629 358.214844 C 617.285156 358.214844 607.785156 348.714844 607.785156 337 C 607.785156 325.285156 617.285156 315.785156 629 315.785156 C 640.714844 315.785156 650.214844 325.285156 650.214844 337 "/>
<path style="fill-rule:nonzero;fill:rgb(55%,51%,53%);fill-opacity:1;stroke-width:1;stroke-linecap:butt;stroke-linejoin:miter;stroke:rgb(0%,0%,0%);stroke-opacity:1;stroke-miterlimit:10;" d="M 786.214844 181 C 786.214844 192.714844 776.714844 202.214844 765 202.214844 C 753.285156 202.214844 743.785156 192.714844 743.785156 181 C 743.785156 169.285156 753.285156 159.785156 765 159.785156 C 776.714844 159.785156 786.214844 169.285156 786.214844 181 "/>
<path style="fill-rule:nonzero;fill:rgb(55%,51%,53%);fill-opacity:1;stroke-width:1;stroke-linecap:butt;stroke-linejoin:miter;stroke:rgb(0%,0%,0%);stroke-opacity:1;stroke-miterlimit:10;" d="M 880.785156 165.785156 L 880.785156 208.214844 L 923.214844 208.214844 L 923.214844 165.785156 L 880.785156 165.785156 "/>
<path style="fill-rule:nonzero;fill:rgb(55%,51%,53%);fill-opacity:1;stroke-width:1;stroke-linecap:butt;stroke-linejoin:miter;stroke:rgb(0%,0%,0%);stroke-opacity:1;stroke-miterlimit:10;" d="M 751.785156 41.785156 L 751.785156 84.214844 L 794.214844 84.214844 L 794.214844 41.785156 L 751.785156 41.785156 "/>
<path style="fill-rule:nonzero;fill:rgb(55%,51%,53%);fill-opacity:1;stroke-width:1;stroke-linecap:butt;stroke-linejoin:miter;stroke:rgb(0%,0%,0%);stroke-opacity:1;stroke-miterlimit:10;" d="M 640.785156 228.785156 L 640.785156 271.214844 L 683.214844 271.214844 L 683.214844 228.785156 L 640.785156 228.785156 "/>
</g>
</svg>
