<?xml version="1.0" encoding="UTF-8"?>
<svg xmlns="http://www.w3.org/2000/svg" xmlns:xlink="http://www.w3.org/1999/xlink" width="1179pt" height="517pt" viewBox="0 0 1179 517" version="1.1">
<g id="surface501">
<rect x="0" y="0" width="1179" height="517" style="fill:rgb(90%,90%,90%);fill-opacity:1;stroke:none;"/>
<path style="fill-rule:nonzero;fill:rgb(100%,51%,0%);fill-opacity:1;stroke-width:1;stroke-linecap:butt;stroke-linejoin:miter;stroke:rgb(0%,0%,0%);stroke-opacity:1;stroke-miterlimit:10;" d="M 329.214844 207 C 329.214844 218.714844 319.714844 228.214844 308 228.214844 C 296.285156 228.214844 286.785156 218.714844 286.785156 207 C 286.785156 195.285156 296.285156 185.785156 308 185.785156 C 319.714844 185.785156 329.214844 195.285156 329.214844 207 "/>
<path style="fill-rule:nonzero;fill:rgb(55%,51%,53%);fill-opacity:1;stroke-width:1;stroke-linecap:butt;stroke-linejoin:miter;stroke:rgb(0%,0%,0%);stroke-opacity:1;stroke-miterlimit:10;" d="M 392.214844 387 C 392.214844 398.714844 382.714844 408.214844 371 408.214844 C 359.285156 408.214844 349.785156 398.714844 349.785156 387 C 349.785156 375.285156 359.285156 365.785156 371 365.785156 C 382.714844 365.785156 392.214844 375.285156 392.214844 387 "/>
<path style="fill-rule:nonzero;fill:rgb(100%,51%,0%);fill-opacity:1;stroke-width:1;stroke-linecap:butt;stroke-linejoin:miter;stroke:rgb(0%,0%,0%);stroke-opacity:1;stroke-miterlimit:10;" d="M 234.214844 296 C 234.214844 307.714844 224.714844 317.214844 213 317.214844 C 201.285156 317.214844 191.785156 307.714844 191.785156 296 C 191.785156 284.285156 201.285156 274.785156 213 274.785156 C 224.714844 274.785156 234.214844 284.285156 234.214844 296 "/>
<path style="fill-rule:nonzero;fill:rgb(55%,51%,53%);fill-opacity:1;stroke-width:1;stroke-linecap:butt;stroke-linejoin:miter;stroke:rgb(0%,0%,0%);stroke-opacity:1;stroke-miterlimit:10;" d="M 286.214844 120 C 286.214844 131.714844 276.714844 141.214844 265 141.214844 C 253.285156 141.214844 243.785156 131.714844 243.785156 120 C 243.785156 108.285156 253.285156 98.785156 265 98.785156 C 276.714844 98.785156 286.214844 108.285156 286.214844 120 "/>
<path style="fill-rule:nonzero;fill:rgb(100%,51%,0%);fill-opacity:1;stroke-width:1;stroke-linecap:butt;stroke-linejoin:miter;stroke:rgb(0%,0%,0%);stroke-opacity:1;stroke-miterlimit:10;" d="M 135.214844 300 C 135.214844 311.714844 125.714844 321.214844 114 321.214844 C 102.285156 321.214844 92.785156 311.714844 92.785156 300 C 92.785156 288.285156 102.285156 278.785156 114 278.785156 C 125.714844 278.785156 135.214844 288.285156 135.214844 300 "/>
<path style="fill-rule:nonzero;fill:rgb(55%,51%,53%);fill-opacity:1;stroke-width:1;stroke-linecap:butt;stroke-linejoin:miter;stroke:rgb(0%,0%,0%);stroke-opacity:1;stroke-miterlimit:10;" d="M 1002.785156 163.785156 L 1002.785156 206.214844 L 1045.214844 206.214844 L 1045.214844 163.785156 L 1002.785156 163.785156 "/>
<path style="fill-rule:nonzero;fill:rgb(100%,51%,0%);fill-opacity:1;stroke-width:1;stroke-linecap:butt;stroke-linejoin:miter;stroke:rgb(0%,0%,0%);stroke-opacity:1;stroke-miterlimit:10;" d="M 894.785156 370.785156 L 894.785156 413.214844 L 937.214844 413.214844 L 937.214844 370.785156 L 894.785156 370.785156 "/>
<path style="fill-rule:nonzero;fill:rgb(55%,51%,53%);fill-opacity:1;stroke-width:1;stroke-linecap:butt;stroke-linejoin:miter;stroke:rgb(0%,0%,0%);stroke-opacity:1;stroke-miterlimit:10;" d="M 685.785156 202.785156 L 685.785156 245.214844 L 728.214844 245.214844 L 728.214844 202.785156 L 685.785156 202.785156 "/>
<path style="fill-rule:nonzero;fill:rgb(100%,51%,0%);fill-opacity:1;stroke-width:1;stroke-linecap:butt;stroke-linejoin:miter;stroke:rgb(0%,0%,0%);stroke-opacity:1;stroke-miterlimit:10;" d="M 926.785156 114.785156 L 926.785156 157.214844 L 969.214844 157.214844 L 969.214844 114.785156 L 926.785156 114.785156 "/>
</g>
</svg>
