<?xml version="1.0" encoding="UTF-8"?>
<svg xmlns="http://www.w3.org/2000/svg" xmlns:xlink="http://www.w3.org/1999/xlink" width="1179pt" height="517pt" viewBox="0 0 1179 517" version="1.1">
<g id="surface761">
<rect x="0" y="0" width="1179" height="517" style="fill:rgb(90%,90%,90%);fill-opacity:1;stroke:none;"/>
<path style="fill-rule:nonzero;fill:rgb(53%,27%,7%);fill-opacity:1;stroke-width:1;stroke-linecap:butt;stroke-linejoin:miter;stroke:rgb(0%,0%,0%);stroke-opacity:1;stroke-miterlimit:10;" d="M 420 342.601562 C 420 328.199219 396 328.199219 396 342.601562 C 396 357 420 359.398438 420 371.398438 C 420 359.398438 444 357 444 342.601562 C 444 328.199219 420 328.199219 420 342.601562 "/>
<path style="fill-rule:nonzero;fill:rgb(53%,27%,7%);fill-opacity:1;stroke-width:1;stroke-linecap:butt;stroke-linejoin:miter;stroke:rgb(0%,0%,0%);stroke-opacity:1;stroke-miterlimit:10;" d="M 389.214844 276 C 389.214844 287.714844 379.714844 297.214844 368 297.214844 C 356.285156 297.214844 346.785156 287.714844 346.785156 276 C 346.785156 264.285156 356.285156 254.785156 368 254.785156 C 379.714844 254.785156 389.214844 264.285156 389.214844 276 "/>
<path style="fill-rule:nonzero;fill:rgb(53%,27%,7%);fill-opacity:1;stroke-width:1;stroke-linecap:butt;stroke-linejoin:miter;stroke:rgb(0%,0%,0%);stroke-opacity:1;stroke-miterlimit:10;" d="M 133.214844 329 C 133.214844 340.714844 123.714844 350.214844 112 350.214844 C 100.285156 350.214844 90.785156 340.714844 90.785156 329 C 90.785156 317.285156 100.285156 307.785156 112 307.785156 C 123.714844 307.785156 133.214844 317.285156 133.214844 329 "/>
<path style="fill-rule:nonzero;fill:rgb(53%,27%,7%);fill-opacity:1;stroke-width:1;stroke-linecap:butt;stroke-linejoin:miter;stroke:rgb(0%,0%,0%);stroke-opacity:1;stroke-miterlimit:10;" d="M 250 170.601562 C 250 156.199219 226 156.199219 226 170.601562 C 226 185 250 187.398438 250 199.398438 C 250 187.398438 274 185 274 170.601562 C 274 156.199219 250 156.199219 250 170.601562 "/>
<path style="fill-rule:nonzero;fill:rgb(53%,27%,7%);fill-opacity:1;stroke-width:1;stroke-linecap:butt;stroke-linejoin:miter;stroke:rgb(0%,0%,0%);stroke-opacity:1;stroke-miterlimit:10;" d="M 132 211.601562 C 132 197.199219 108 197.199219 108 211.601562 C 108 226 132 228.398438 132 240.398438 C 132 228.398438 156 226 156 211.601562 C 156 197.199219 132 197.199219 132 211.601562 "/>
<path style="fill-rule:nonzero;fill:rgb(53%,27%,7%);fill-opacity:1;stroke-width:1;stroke-linecap:butt;stroke-linejoin:miter;stroke:rgb(0%,0%,0%);stroke-opacity:1;stroke-miterlimit:10;" d="M 145 88.601562 C 145 74.199219 121 74.199219 121 88.601562 C 121 103 145 105.398438 145 117.398438 C 145 105.398438 169 103 169 88.601562 C 169 74.199219 145 74.199219 145 88.601562 "/>
<path style="fill-rule:nonzero;fill:rgb(53%,27%,7%);fill-opacity:1;stroke-width:1;stroke-linecap:butt;stroke-linejoin:miter;stroke:rgb(0%,0%,0%);stroke-opacity:1;stroke-miterlimit:10;" d="M 243 313.601562 C 243 299.199219 219 299.199219 219 313.601562 C 219 328 243 330.398438 243 342.398438 C 243 330.398438 267 328 267 313.601562 C 267 299.199219 243 299.199219 243 313.601562 "/>
<path style="fill-rule:nonzero;fill:rgb(53%,27%,7%);fill-opacity:1;stroke-width:1;stroke-linecap:butt;stroke-linejoin:miter;stroke:rgb(0%,0%,0%);stroke-opacity:1;stroke-miterlimit:10;" d="M 369 163.601562 C 369 149.199219 345 149.199219 345 163.601562 C 345 178 369 180.398438 369 192.398438 C 369 180.398438 393 178 393 163.601562 C 393 149.199219 369 149.199219 369 163.601562 "/>
<path style="fill-rule:nonzero;fill:rgb(100%,51%,0%);fill-opacity:1;stroke-width:1;stroke-linecap:butt;stroke-linejoin:miter;stroke:rgb(0%,0%,0%);stroke-opacity:1;stroke-miterlimit:10;" d="M 905.214844 109 C 905.214844 120.714844 895.714844 130.214844 884 130.214844 C 872.285156 130.214844 862.785156 120.714844 862.785156 109 C 862.785156 97.285156 872.285156 87.785156 884 87.785156 C 895.714844 87.785156 905.214844 97.285156 905.214844 109 "/>
<path style="fill-rule:nonzero;fill:rgb(100%,51%,0%);fill-opacity:1;stroke-width:1;stroke-linecap:butt;stroke-linejoin:miter;stroke:rgb(0%,0%,0%);stroke-opacity:1;stroke-miterlimit:10;" d="M 826 223.601562 C 826 209.199219 802 209.199219 802 223.601562 C 802 238 826 240.398438 826 252.398438 C 826 240.398438 850 238 850 223.601562 C 850 209.199219 826 209.199219 826 223.601562 "/>
<path style="fill-rule:nonzero;fill:rgb(100%,51%,0%);fill-opacity:1;stroke-width:1;stroke-linecap:butt;stroke-linejoin:miter;stroke:rgb(0%,0%,0%);stroke-opacity:1;stroke-miterlimit:10;" d="M 1029 286.601562 C 1029 272.199219 1005 272.199219 1005 286.601562 C 1005 301 1029 303.398438 1029 315.398438 C 1029 303.398438 1053 301 1053 286.601562 C 1053 272.199219 1029 272.199219 1029 286.601562 "/>
<path style="fill-rule:nonzero;fill:rgb(100%,51%,0%);fill-opacity:1;stroke-width:1;stroke-linecap:butt;stroke-linejoin:miter;stroke:rgb(0%,0%,0%);stroke-opacity:1;stroke-miterlimit:10;" d="M 1052.214844 391 C 1052.214844 402.714844 1042.714844 412.214844 1031 412.214844 C 1019.285156 412.214844 1009.785156 402.714844 1009.785156 391 C 1009.785156 379.285156 1019.285156 369.785156 1031 369.785156 C 1042.714844 369.785156 1052.214844 379.285156 1052.214844 391 "/>
<path style="fill-rule:nonzero;fill:rgb(100%,51%,0%);fill-opacity:1;stroke-width:1;stroke-linecap:butt;stroke-linejoin:miter;stroke:rgb(0%,0%,0%);stroke-opacity:1;stroke-miterlimit:10;" d="M 960.214844 343 C 960.214844 354.714844 950.714844 364.214844 939 364.214844 C 927.285156 364.214844 917.785156 354.714844 917.785156 343 C 917.785156 331.285156 927.285156 321.785156 939 321.785156 C 950.714844 321.785156 960.214844 331.285156 960.214844 343 "/>
<path style="fill-rule:nonzero;fill:rgb(100%,51%,0%);fill-opacity:1;stroke-width:1;stroke-linecap:butt;stroke-linejoin:miter;stroke:rgb(0%,0%,0%);stroke-opacity:1;stroke-miterlimit:10;" d="M 774.214844 332 C 774.214844 343.714844 764.714844 353.214844 753 353.214844 C 741.285156 353.214844 731.785156 343.714844 731.785156 332 C 731.785156 320.285156 741.285156 310.785156 753 310.785156 C 764.714844 310.785156 774.214844 320.285156 774.214844 332 "/>
<path style="fill-rule:nonzero;fill:rgb(100%,51%,0%);fill-opacity:1;stroke-width:1;stroke-linecap:butt;stroke-linejoin:miter;stroke:rgb(0%,0%,0%);stroke-opacity:1;stroke-miterlimit:10;" d="M 1000.214844 129 C 1000.214844 140.714844 990.714844 150.214844 979 150.214844 C 967.285156 150.214844 957.785156 140.714844 957.785156 129 C 957.785156 117.285156 967.285156 107.785156 979 107.785156 C 990.714844 107.785156 1000.214844 117.285156 1000.214844 129 "/>
<path style="fill-rule:nonzero;fill:rgb(100%,51%,0%);fill-opacity:1;stroke-width:1;stroke-linecap:butt;stroke-linejoin:miter;stroke:rgb(0%,0%,0%);stroke-opacity:1;stroke-miterlimit:10;" d="M 862.214844 361 C 862.214844 372.714844 852.714844 382.214844 841 382.214844 C 829.285156 382.214844 819.785156 372.714844 819.785156 361 C 819.785156 349.285156 829.285156 339.785156 841 339.785156 C 852.714844 339.785156 862.214844 349.285156 862.214844 361 "/>
</g>
</svg>
