<?xml version="1.0" encoding="UTF-8"?>
<svg xmlns="http://www.w3.org/2000/svg" xmlns:xlink="http://www.w3.org/1999/xlink" width="1129pt" height="517pt" viewBox="0 0 1129 517" version="1.1">
<g id="surface641">
<rect x="0" y="0" width="1129" height="517" style="fill:rgb(90%,90%,90%);fill-opacity:1;stroke:none;"/>
<path style="fill-rule:nonzero;fill:rgb(100%,51%,0%);fill-opacity:1;stroke-width:1;stroke-linecap:butt;stroke-linejoin:miter;stroke:rgb(0%,0%,0%);stroke-opacity:1;stroke-miterlimit:10;" d="M 64 338 L 93.664062 338 L 105.664062 309.785156 L 117.664062 338 L 147.332031 338 L 123.332031 355.4375 L 131.417969 386.980469 L 105.664062 369.542969 L 79.914062 386.980469 L 92.214844 355.4375 L 64 338 "/>
<path style="fill-rule:nonzero;fill:rgb(53%,27%,7%);fill-opacity:1;stroke-width:1;stroke-linecap:butt;stroke-linejoin:miter;stroke:rgb(0%,0%,0%);stroke-opacity:1;stroke-miterlimit:10;" d="M 163 304 L 192.664062 304 L 204.664062 275.785156 L 216.664062 304 L 246.332031 304 L 222.332031 321.4375 L 230.417969 352.980469 L 204.664062 335.542969 L 178.914062 352.980469 L 191.214844 321.4375 L 163 304 "/>
<path style="fill-rule:nonzero;fill:rgb(100%,51%,0%);fill-opacity:1;stroke-width:1;stroke-linecap:butt;stroke-linejoin:miter;stroke:rgb(0%,0%,0%);stroke-opacity:1;stroke-miterlimit:10;" d="M 136 135 L 165.664062 135 L 177.664062 106.785156 L 189.664062 135 L 219.332031 135 L 195.332031 152.4375 L 203.417969 183.980469 L 177.664062 166.542969 L 151.914062 183.980469 L 164.214844 152.4375 L 136 135 "/>
<path style="fill-rule:nonzero;fill:rgb(53%,27%,7%);fill-opacity:1;stroke-width:1;stroke-linecap:butt;stroke-linejoin:miter;stroke:rgb(0%,0%,0%);stroke-opacity:1;stroke-miterlimit:10;" d="M 347 264 L 376.664062 264 L 388.664062 235.785156 L 400.664062 264 L 430.332031 264 L 406.332031 281.4375 L 414.417969 312.980469 L 388.664062 295.542969 L 362.914062 312.980469 L 375.214844 281.4375 L 347 264 "/>
<path style="fill-rule:nonzero;fill:rgb(100%,51%,0%);fill-opacity:1;stroke-width:1;stroke-linecap:butt;stroke-linejoin:miter;stroke:rgb(0%,0%,0%);stroke-opacity:1;stroke-miterlimit:10;" d="M 238 125 L 267.664062 125 L 279.664062 96.785156 L 291.664062 125 L 321.332031 125 L 297.332031 142.4375 L 305.417969 173.980469 L 279.664062 156.542969 L 253.914062 173.980469 L 266.214844 142.4375 L 238 125 "/>
<path style="fill-rule:nonzero;fill:rgb(100%,51%,0%);fill-opacity:1;stroke-width:1;stroke-linecap:butt;stroke-linejoin:miter;stroke:rgb(0%,0%,0%);stroke-opacity:1;stroke-miterlimit:10;" d="M 435 434 L 464.664062 434 L 476.664062 405.785156 L 488.664062 434 L 518.332031 434 L 494.332031 451.4375 L 502.417969 482.980469 L 476.664062 465.542969 L 450.914062 482.980469 L 463.214844 451.4375 L 435 434 "/>
<path style="fill-rule:nonzero;fill:rgb(53%,27%,7%);fill-opacity:1;stroke-width:1;stroke-linecap:butt;stroke-linejoin:miter;stroke:rgb(0%,0%,0%);stroke-opacity:1;stroke-miterlimit:10;" d="M 966.785156 77.785156 L 966.785156 120.214844 L 1009.214844 120.214844 L 1009.214844 77.785156 L 966.785156 77.785156 "/>
<path style="fill-rule:nonzero;fill:rgb(100%,51%,0%);fill-opacity:1;stroke-width:1;stroke-linecap:butt;stroke-linejoin:miter;stroke:rgb(0%,0%,0%);stroke-opacity:1;stroke-miterlimit:10;" d="M 602.785156 106.785156 L 602.785156 149.214844 L 645.214844 149.214844 L 645.214844 106.785156 L 602.785156 106.785156 "/>
<path style="fill-rule:nonzero;fill:rgb(53%,27%,7%);fill-opacity:1;stroke-width:1;stroke-linecap:butt;stroke-linejoin:miter;stroke:rgb(0%,0%,0%);stroke-opacity:1;stroke-miterlimit:10;" d="M 609.785156 310.785156 L 609.785156 353.214844 L 652.214844 353.214844 L 652.214844 310.785156 L 609.785156 310.785156 "/>
<path style="fill-rule:nonzero;fill:rgb(100%,51%,0%);fill-opacity:1;stroke-width:1;stroke-linecap:butt;stroke-linejoin:miter;stroke:rgb(0%,0%,0%);stroke-opacity:1;stroke-miterlimit:10;" d="M 799.785156 405.785156 L 799.785156 448.214844 L 842.214844 448.214844 L 842.214844 405.785156 L 799.785156 405.785156 "/>
<path style="fill-rule:nonzero;fill:rgb(53%,27%,7%);fill-opacity:1;stroke-width:1;stroke-linecap:butt;stroke-linejoin:miter;stroke:rgb(0%,0%,0%);stroke-opacity:1;stroke-miterlimit:10;" d="M 923.785156 356.785156 L 923.785156 399.214844 L 966.214844 399.214844 L 966.214844 356.785156 L 923.785156 356.785156 "/>
<path style="fill-rule:nonzero;fill:rgb(53%,27%,7%);fill-opacity:1;stroke-width:1;stroke-linecap:butt;stroke-linejoin:miter;stroke:rgb(0%,0%,0%);stroke-opacity:1;stroke-miterlimit:10;" d="M 726.785156 165.785156 L 726.785156 208.214844 L 769.214844 208.214844 L 769.214844 165.785156 L 726.785156 165.785156 "/>
<path style="fill-rule:nonzero;fill:rgb(53%,27%,7%);fill-opacity:1;stroke-width:1;stroke-linecap:butt;stroke-linejoin:miter;stroke:rgb(0%,0%,0%);stroke-opacity:1;stroke-miterlimit:10;" d="M 949.785156 199.785156 L 949.785156 242.214844 L 992.214844 242.214844 L 992.214844 199.785156 L 949.785156 199.785156 "/>
<path style="fill-rule:nonzero;fill:rgb(53%,27%,7%);fill-opacity:1;stroke-width:1;stroke-linecap:butt;stroke-linejoin:miter;stroke:rgb(0%,0%,0%);stroke-opacity:1;stroke-miterlimit:10;" d="M 845.785156 71.785156 L 845.785156 114.214844 L 888.214844 114.214844 L 888.214844 71.785156 L 845.785156 71.785156 "/>
</g>
</svg>
