<?xml version="1.0" encoding="UTF-8"?>
<svg xmlns="http://www.w3.org/2000/svg" xmlns:xlink="http://www.w3.org/1999/xlink" width="1129pt" height="517pt" viewBox="0 0 1129 517" version="1.1">
<g id="surface6">
<rect x="0" y="0" width="1129" height="517" style="fill:rgb(90%,90%,90%);fill-opacity:1;stroke:none;"/>
<path style="fill-rule:nonzero;fill:rgb(35%,70%,90%);fill-opacity:1;stroke-width:1;stroke-linecap:butt;stroke-linejoin:miter;stroke:rgb(0%,0%,0%);stroke-opacity:1;stroke-miterlimit:10;" d="M 728 247 L 757.664062 247 L 769.664062 218.785156 L 781.664062 247 L 811.332031 247 L 787.332031 264.4375 L 795.417969 295.980469 L 769.664062 278.542969 L 743.914062 295.980469 L 756.214844 264.4375 L 728 247 "/>
<path style="fill-rule:nonzero;fill:rgb(35%,70%,90%);fill-opacity:1;stroke-width:1;stroke-linecap:butt;stroke-linejoin:miter;stroke:rgb(0%,0%,0%);stroke-opacity:1;stroke-miterlimit:10;" d="M 882 343 L 911.664062 343 L 923.664062 314.785156 L 935.664062 343 L 965.332031 343 L 941.332031 360.4375 L 949.417969 391.980469 L 923.664062 374.542969 L 897.914062 391.980469 L 910.214844 360.4375 L 882 343 "/>
<path style="fill-rule:nonzero;fill:rgb(35%,70%,90%);fill-opacity:1;stroke-width:1;stroke-linecap:butt;stroke-linejoin:miter;stroke:rgb(0%,0%,0%);stroke-opacity:1;stroke-miterlimit:10;" d="M 424 125 L 453.664062 125 L 465.664062 96.785156 L 477.664062 125 L 507.332031 125 L 483.332031 142.4375 L 491.417969 173.980469 L 465.664062 156.542969 L 439.914062 173.980469 L 452.214844 142.4375 L 424 125 "/>
<path style="fill-rule:nonzero;fill:rgb(35%,70%,90%);fill-opacity:1;stroke-width:1;stroke-linecap:butt;stroke-linejoin:miter;stroke:rgb(0%,0%,0%);stroke-opacity:1;stroke-miterlimit:10;" d="M 291 83 L 320.664062 83 L 332.664062 54.785156 L 344.664062 83 L 374.332031 83 L 350.332031 100.4375 L 358.417969 131.980469 L 332.664062 114.542969 L 306.914062 131.980469 L 319.214844 100.4375 L 291 83 "/>
<path style="fill-rule:nonzero;fill:rgb(35%,70%,90%);fill-opacity:1;stroke-width:1;stroke-linecap:butt;stroke-linejoin:miter;stroke:rgb(0%,0%,0%);stroke-opacity:1;stroke-miterlimit:10;" d="M 301 314 L 330.664062 314 L 342.664062 285.785156 L 354.664062 314 L 384.332031 314 L 360.332031 331.4375 L 368.417969 362.980469 L 342.664062 345.542969 L 316.914062 362.980469 L 329.214844 331.4375 L 301 314 "/>
<path style="fill-rule:nonzero;fill:rgb(35%,70%,90%);fill-opacity:1;stroke-width:1;stroke-linecap:butt;stroke-linejoin:miter;stroke:rgb(0%,0%,0%);stroke-opacity:1;stroke-miterlimit:10;" d="M 521 390 L 550.664062 390 L 562.664062 361.785156 L 574.664062 390 L 604.332031 390 L 580.332031 407.4375 L 588.417969 438.980469 L 562.664062 421.542969 L 536.914062 438.980469 L 549.214844 407.4375 L 521 390 "/>
<path style="fill-rule:nonzero;fill:rgb(100%,51%,0%);fill-opacity:1;stroke-width:1;stroke-linecap:butt;stroke-linejoin:miter;stroke:rgb(0%,0%,0%);stroke-opacity:1;stroke-miterlimit:10;" d="M 520 237 L 494.019531 282 L 545.980469 282 L 520 237 "/>
<path style="fill-rule:nonzero;fill:rgb(100%,51%,0%);fill-opacity:1;stroke-width:1;stroke-linecap:butt;stroke-linejoin:miter;stroke:rgb(0%,0%,0%);stroke-opacity:1;stroke-miterlimit:10;" d="M 276 416 L 250.019531 461 L 301.980469 461 L 276 416 "/>
<path style="fill-rule:nonzero;fill:rgb(100%,51%,0%);fill-opacity:1;stroke-width:1;stroke-linecap:butt;stroke-linejoin:miter;stroke:rgb(0%,0%,0%);stroke-opacity:1;stroke-miterlimit:10;" d="M 503 29 L 477.019531 74 L 528.980469 74 L 503 29 "/>
<path style="fill-rule:nonzero;fill:rgb(100%,51%,0%);fill-opacity:1;stroke-width:1;stroke-linecap:butt;stroke-linejoin:miter;stroke:rgb(0%,0%,0%);stroke-opacity:1;stroke-miterlimit:10;" d="M 744 408 L 718.019531 453 L 769.980469 453 L 744 408 "/>
<path style="fill-rule:nonzero;fill:rgb(100%,51%,0%);fill-opacity:1;stroke-width:1;stroke-linecap:butt;stroke-linejoin:miter;stroke:rgb(0%,0%,0%);stroke-opacity:1;stroke-miterlimit:10;" d="M 419 362 L 393.019531 407 L 444.980469 407 L 419 362 "/>
<path style="fill-rule:nonzero;fill:rgb(100%,51%,0%);fill-opacity:1;stroke-width:1;stroke-linecap:butt;stroke-linejoin:miter;stroke:rgb(0%,0%,0%);stroke-opacity:1;stroke-miterlimit:10;" d="M 139 56 L 113.019531 101 L 164.980469 101 L 139 56 "/>
</g>
</svg>
