<?xml version="1.0" encoding="UTF-8"?>
<svg xmlns="http://www.w3.org/2000/svg" xmlns:xlink="http://www.w3.org/1999/xlink" width="1179pt" height="517pt" viewBox="0 0 1179 517" version="1.1">
<g id="surface571">
<rect x="0" y="0" width="1179" height="517" style="fill:rgb(90%,90%,90%);fill-opacity:1;stroke:none;"/>
<path style="fill-rule:nonzero;fill:rgb(53%,27%,7%);fill-opacity:1;stroke-width:1;stroke-linecap:butt;stroke-linejoin:miter;stroke:rgb(0%,0%,0%);stroke-opacity:1;stroke-miterlimit:10;" d="M 144.214844 398 C 144.214844 409.714844 134.714844 419.214844 123 419.214844 C 111.285156 419.214844 101.785156 409.714844 101.785156 398 C 101.785156 386.285156 111.285156 376.785156 123 376.785156 C 134.714844 376.785156 144.214844 386.285156 144.214844 398 "/>
<path style="fill-rule:nonzero;fill:rgb(35%,70%,90%);fill-opacity:1;stroke-width:1;stroke-linecap:butt;stroke-linejoin:miter;stroke:rgb(0%,0%,0%);stroke-opacity:1;stroke-miterlimit:10;" d="M 387 175 L 416.664062 175 L 428.664062 146.785156 L 440.664062 175 L 470.332031 175 L 446.332031 192.4375 L 454.417969 223.980469 L 428.664062 206.542969 L 402.914062 223.980469 L 415.214844 192.4375 L 387 175 "/>
<path style="fill-rule:nonzero;fill:rgb(35%,70%,90%);fill-opacity:1;stroke-width:1;stroke-linecap:butt;stroke-linejoin:miter;stroke:rgb(0%,0%,0%);stroke-opacity:1;stroke-miterlimit:10;" d="M 100 125 L 129.664062 125 L 141.664062 96.785156 L 153.664062 125 L 183.332031 125 L 159.332031 142.4375 L 167.417969 173.980469 L 141.664062 156.542969 L 115.914062 173.980469 L 128.214844 142.4375 L 100 125 "/>
<path style="fill-rule:nonzero;fill:rgb(53%,27%,7%);fill-opacity:1;stroke-width:1;stroke-linecap:butt;stroke-linejoin:miter;stroke:rgb(0%,0%,0%);stroke-opacity:1;stroke-miterlimit:10;" d="M 412.214844 347 C 412.214844 358.714844 402.714844 368.214844 391 368.214844 C 379.285156 368.214844 369.785156 358.714844 369.785156 347 C 369.785156 335.285156 379.285156 325.785156 391 325.785156 C 402.714844 325.785156 412.214844 335.285156 412.214844 347 "/>
<path style="fill-rule:nonzero;fill:rgb(35%,70%,90%);fill-opacity:1;stroke-width:1;stroke-linecap:butt;stroke-linejoin:miter;stroke:rgb(0%,0%,0%);stroke-opacity:1;stroke-miterlimit:10;" d="M 223 370 L 252.664062 370 L 264.664062 341.785156 L 276.664062 370 L 306.332031 370 L 282.332031 387.4375 L 290.417969 418.980469 L 264.664062 401.542969 L 238.914062 418.980469 L 251.214844 387.4375 L 223 370 "/>
<path style="fill-rule:nonzero;fill:rgb(35%,70%,90%);fill-opacity:1;stroke-width:1;stroke-linecap:butt;stroke-linejoin:miter;stroke:rgb(0%,0%,0%);stroke-opacity:1;stroke-miterlimit:10;" d="M 750 376 L 779.664062 376 L 791.664062 347.785156 L 803.664062 376 L 833.332031 376 L 809.332031 393.4375 L 817.417969 424.980469 L 791.664062 407.542969 L 765.914062 424.980469 L 778.214844 393.4375 L 750 376 "/>
<path style="fill-rule:nonzero;fill:rgb(35%,70%,90%);fill-opacity:1;stroke-width:1;stroke-linecap:butt;stroke-linejoin:miter;stroke:rgb(0%,0%,0%);stroke-opacity:1;stroke-miterlimit:10;" d="M 909 332 L 938.664062 332 L 950.664062 303.785156 L 962.664062 332 L 992.332031 332 L 968.332031 349.4375 L 976.417969 380.980469 L 950.664062 363.542969 L 924.914062 380.980469 L 937.214844 349.4375 L 909 332 "/>
<path style="fill-rule:nonzero;fill:rgb(53%,27%,7%);fill-opacity:1;stroke-width:1;stroke-linecap:butt;stroke-linejoin:miter;stroke:rgb(0%,0%,0%);stroke-opacity:1;stroke-miterlimit:10;" d="M 1053.214844 296 C 1053.214844 307.714844 1043.714844 317.214844 1032 317.214844 C 1020.285156 317.214844 1010.785156 307.714844 1010.785156 296 C 1010.785156 284.285156 1020.285156 274.785156 1032 274.785156 C 1043.714844 274.785156 1053.214844 284.285156 1053.214844 296 "/>
<path style="fill-rule:nonzero;fill:rgb(53%,27%,7%);fill-opacity:1;stroke-width:1;stroke-linecap:butt;stroke-linejoin:miter;stroke:rgb(0%,0%,0%);stroke-opacity:1;stroke-miterlimit:10;" d="M 980.214844 88 C 980.214844 99.714844 970.714844 109.214844 959 109.214844 C 947.285156 109.214844 937.785156 99.714844 937.785156 88 C 937.785156 76.285156 947.285156 66.785156 959 66.785156 C 970.714844 66.785156 980.214844 76.285156 980.214844 88 "/>
<path style="fill-rule:nonzero;fill:rgb(53%,27%,7%);fill-opacity:1;stroke-width:1;stroke-linecap:butt;stroke-linejoin:miter;stroke:rgb(0%,0%,0%);stroke-opacity:1;stroke-miterlimit:10;" d="M 790.214844 257 C 790.214844 268.714844 780.714844 278.214844 769 278.214844 C 757.285156 278.214844 747.785156 268.714844 747.785156 257 C 747.785156 245.285156 757.285156 235.785156 769 235.785156 C 780.714844 235.785156 790.214844 245.285156 790.214844 257 "/>
<path style="fill-rule:nonzero;fill:rgb(53%,27%,7%);fill-opacity:1;stroke-width:1;stroke-linecap:butt;stroke-linejoin:miter;stroke:rgb(0%,0%,0%);stroke-opacity:1;stroke-miterlimit:10;" d="M 836.214844 179 C 836.214844 190.714844 826.714844 200.214844 815 200.214844 C 803.285156 200.214844 793.785156 190.714844 793.785156 179 C 793.785156 167.285156 803.285156 157.785156 815 157.785156 C 826.714844 157.785156 836.214844 167.285156 836.214844 179 "/>
<path style="fill-rule:nonzero;fill:rgb(53%,27%,7%);fill-opacity:1;stroke-width:1;stroke-linecap:butt;stroke-linejoin:miter;stroke:rgb(0%,0%,0%);stroke-opacity:1;stroke-miterlimit:10;" d="M 993.214844 215 C 993.214844 226.714844 983.714844 236.214844 972 236.214844 C 960.285156 236.214844 950.785156 226.714844 950.785156 215 C 950.785156 203.285156 960.285156 193.785156 972 193.785156 C 983.714844 193.785156 993.214844 203.285156 993.214844 215 "/>
</g>
</svg>
