<?xml version="1.0" encoding="UTF-8"?>
<svg xmlns="http://www.w3.org/2000/svg" xmlns:xlink="http://www.w3.org/1999/xlink" width="1129pt" height="517pt" viewBox="0 0 1129 517" version="1.1">
<g id="surface616">
<rect x="0" y="0" width="1129" height="517" style="fill:rgb(90%,90%,90%);fill-opacity:1;stroke:none;"/>
<path style="fill-rule:nonzero;fill:rgb(35%,70%,90%);fill-opacity:1;stroke-width:1;stroke-linecap:butt;stroke-linejoin:miter;stroke:rgb(0%,0%,0%);stroke-opacity:1;stroke-miterlimit:10;" d="M 131.214844 419 C 131.214844 430.714844 121.714844 440.214844 110 440.214844 C 98.285156 440.214844 88.785156 430.714844 88.785156 419 C 88.785156 407.285156 98.285156 397.785156 110 397.785156 C 121.714844 397.785156 131.214844 407.285156 131.214844 419 "/>
<path style="fill-rule:nonzero;fill:rgb(35%,70%,90%);fill-opacity:1;stroke-width:1;stroke-linecap:butt;stroke-linejoin:miter;stroke:rgb(0%,0%,0%);stroke-opacity:1;stroke-miterlimit:10;" d="M 122.214844 191 C 122.214844 202.714844 112.714844 212.214844 101 212.214844 C 89.285156 212.214844 79.785156 202.714844 79.785156 191 C 79.785156 179.285156 89.285156 169.785156 101 169.785156 C 112.714844 169.785156 122.214844 179.285156 122.214844 191 "/>
<path style="fill-rule:nonzero;fill:rgb(55%,51%,53%);fill-opacity:1;stroke-width:1;stroke-linecap:butt;stroke-linejoin:miter;stroke:rgb(0%,0%,0%);stroke-opacity:1;stroke-miterlimit:10;" d="M 407.214844 165 C 407.214844 176.714844 397.714844 186.214844 386 186.214844 C 374.285156 186.214844 364.785156 176.714844 364.785156 165 C 364.785156 153.285156 374.285156 143.785156 386 143.785156 C 397.714844 143.785156 407.214844 153.285156 407.214844 165 "/>
<path style="fill-rule:nonzero;fill:rgb(55%,51%,53%);fill-opacity:1;stroke-width:1;stroke-linecap:butt;stroke-linejoin:miter;stroke:rgb(0%,0%,0%);stroke-opacity:1;stroke-miterlimit:10;" d="M 344.214844 400 C 344.214844 411.714844 334.714844 421.214844 323 421.214844 C 311.285156 421.214844 301.785156 411.714844 301.785156 400 C 301.785156 388.285156 311.285156 378.785156 323 378.785156 C 334.714844 378.785156 344.214844 388.285156 344.214844 400 "/>
<path style="fill-rule:nonzero;fill:rgb(55%,51%,53%);fill-opacity:1;stroke-width:1;stroke-linecap:butt;stroke-linejoin:miter;stroke:rgb(0%,0%,0%);stroke-opacity:1;stroke-miterlimit:10;" d="M 624 218 L 598.019531 263 L 649.980469 263 L 624 218 "/>
<path style="fill-rule:nonzero;fill:rgb(55%,51%,53%);fill-opacity:1;stroke-width:1;stroke-linecap:butt;stroke-linejoin:miter;stroke:rgb(0%,0%,0%);stroke-opacity:1;stroke-miterlimit:10;" d="M 809 373 L 783.019531 418 L 834.980469 418 L 809 373 "/>
<path style="fill-rule:nonzero;fill:rgb(35%,70%,90%);fill-opacity:1;stroke-width:1;stroke-linecap:butt;stroke-linejoin:miter;stroke:rgb(0%,0%,0%);stroke-opacity:1;stroke-miterlimit:10;" d="M 1008 37 L 982.019531 82 L 1033.980469 82 L 1008 37 "/>
<path style="fill-rule:nonzero;fill:rgb(35%,70%,90%);fill-opacity:1;stroke-width:1;stroke-linecap:butt;stroke-linejoin:miter;stroke:rgb(0%,0%,0%);stroke-opacity:1;stroke-miterlimit:10;" d="M 1012 214 L 986.019531 259 L 1037.980469 259 L 1012 214 "/>
</g>
</svg>
