<?xml version="1.0" encoding="UTF-8"?>
<svg xmlns="http://www.w3.org/2000/svg" xmlns:xlink="http://www.w3.org/1999/xlink" width="1179pt" height="517pt" viewBox="0 0 1179 517" version="1.1">
<g id="surface61">
<rect x="0" y="0" width="1179" height="517" style="fill:rgb(90%,90%,90%);fill-opacity:1;stroke:none;"/>
<path style="fill-rule:nonzero;fill:rgb(35%,70%,90%);fill-opacity:1;stroke-width:1;stroke-linecap:butt;stroke-linejoin:miter;stroke:rgb(0%,0%,0%);stroke-opacity:1;stroke-miterlimit:10;" d="M 247 345 L 276.664062 345 L 288.664062 316.785156 L 300.664062 345 L 330.332031 345 L 306.332031 362.4375 L 314.417969 393.980469 L 288.664062 376.542969 L 262.914062 393.980469 L 275.214844 362.4375 L 247 345 "/>
<path style="fill-rule:nonzero;fill:rgb(35%,70%,90%);fill-opacity:1;stroke-width:1;stroke-linecap:butt;stroke-linejoin:miter;stroke:rgb(0%,0%,0%);stroke-opacity:1;stroke-miterlimit:10;" d="M 394 319 L 423.664062 319 L 435.664062 290.785156 L 447.664062 319 L 477.332031 319 L 453.332031 336.4375 L 461.417969 367.980469 L 435.664062 350.542969 L 409.914062 367.980469 L 422.214844 336.4375 L 394 319 "/>
<path style="fill-rule:nonzero;fill:rgb(35%,70%,90%);fill-opacity:1;stroke-width:1;stroke-linecap:butt;stroke-linejoin:miter;stroke:rgb(0%,0%,0%);stroke-opacity:1;stroke-miterlimit:10;" d="M 301 133 L 330.664062 133 L 342.664062 104.785156 L 354.664062 133 L 384.332031 133 L 360.332031 150.4375 L 368.417969 181.980469 L 342.664062 164.542969 L 316.914062 181.980469 L 329.214844 150.4375 L 301 133 "/>
<path style="fill-rule:nonzero;fill:rgb(55%,51%,53%);fill-opacity:1;stroke-width:1;stroke-linecap:butt;stroke-linejoin:miter;stroke:rgb(0%,0%,0%);stroke-opacity:1;stroke-miterlimit:10;" d="M 429.214844 187 C 429.214844 198.714844 419.714844 208.214844 408 208.214844 C 396.285156 208.214844 386.785156 198.714844 386.785156 187 C 386.785156 175.285156 396.285156 165.785156 408 165.785156 C 419.714844 165.785156 429.214844 175.285156 429.214844 187 "/>
<path style="fill-rule:nonzero;fill:rgb(35%,70%,90%);fill-opacity:1;stroke-width:1;stroke-linecap:butt;stroke-linejoin:miter;stroke:rgb(0%,0%,0%);stroke-opacity:1;stroke-miterlimit:10;" d="M 104 293 L 133.664062 293 L 145.664062 264.785156 L 157.664062 293 L 187.332031 293 L 163.332031 310.4375 L 171.417969 341.980469 L 145.664062 324.542969 L 119.914062 341.980469 L 132.214844 310.4375 L 104 293 "/>
<path style="fill-rule:nonzero;fill:rgb(35%,70%,90%);fill-opacity:1;stroke-width:1;stroke-linecap:butt;stroke-linejoin:miter;stroke:rgb(0%,0%,0%);stroke-opacity:1;stroke-miterlimit:10;" d="M 768 322 L 797.664062 322 L 809.664062 293.785156 L 821.664062 322 L 851.332031 322 L 827.332031 339.4375 L 835.417969 370.980469 L 809.664062 353.542969 L 783.914062 370.980469 L 796.214844 339.4375 L 768 322 "/>
<path style="fill-rule:nonzero;fill:rgb(35%,70%,90%);fill-opacity:1;stroke-width:1;stroke-linecap:butt;stroke-linejoin:miter;stroke:rgb(0%,0%,0%);stroke-opacity:1;stroke-miterlimit:10;" d="M 945 423 L 974.664062 423 L 986.664062 394.785156 L 998.664062 423 L 1028.332031 423 L 1004.332031 440.4375 L 1012.417969 471.980469 L 986.664062 454.542969 L 960.914062 471.980469 L 973.214844 440.4375 L 945 423 "/>
<path style="fill-rule:nonzero;fill:rgb(35%,70%,90%);fill-opacity:1;stroke-width:1;stroke-linecap:butt;stroke-linejoin:miter;stroke:rgb(0%,0%,0%);stroke-opacity:1;stroke-miterlimit:10;" d="M 961 145 L 990.664062 145 L 1002.664062 116.785156 L 1014.664062 145 L 1044.332031 145 L 1020.332031 162.4375 L 1028.417969 193.980469 L 1002.664062 176.542969 L 976.914062 193.980469 L 989.214844 162.4375 L 961 145 "/>
<path style="fill-rule:nonzero;fill:rgb(35%,70%,90%);fill-opacity:1;stroke-width:1;stroke-linecap:butt;stroke-linejoin:miter;stroke:rgb(0%,0%,0%);stroke-opacity:1;stroke-miterlimit:10;" d="M 867 351 L 896.664062 351 L 908.664062 322.785156 L 920.664062 351 L 950.332031 351 L 926.332031 368.4375 L 934.417969 399.980469 L 908.664062 382.542969 L 882.914062 399.980469 L 895.214844 368.4375 L 867 351 "/>
<path style="fill-rule:nonzero;fill:rgb(35%,70%,90%);fill-opacity:1;stroke-width:1;stroke-linecap:butt;stroke-linejoin:miter;stroke:rgb(0%,0%,0%);stroke-opacity:1;stroke-miterlimit:10;" d="M 736 195 L 765.664062 195 L 777.664062 166.785156 L 789.664062 195 L 819.332031 195 L 795.332031 212.4375 L 803.417969 243.980469 L 777.664062 226.542969 L 751.914062 243.980469 L 764.214844 212.4375 L 736 195 "/>
</g>
</svg>
