<?xml version="1.0" encoding="UTF-8"?>
<svg xmlns="http://www.w3.org/2000/svg" xmlns:xlink="http://www.w3.org/1999/xlink" width="1179pt" height="517pt" viewBox="0 0 1179 517" version="1.1">
<g id="surface561">
<rect x="0" y="0" width="1179" height="517" style="fill:rgb(90%,90%,90%);fill-opacity:1;stroke:none;"/>
<path style="fill-rule:nonzero;fill:rgb(35%,70%,90%);fill-opacity:1;stroke-width:1;stroke-linecap:butt;stroke-linejoin:miter;stroke:rgb(0%,0%,0%);stroke-opacity:1;stroke-miterlimit:10;" d="M 143.214844 334 C 143.214844 345.714844 133.714844 355.214844 122 355.214844 C 110.285156 355.214844 100.785156 345.714844 100.785156 334 C 100.785156 322.285156 110.285156 312.785156 122 312.785156 C 133.714844 312.785156 143.214844 322.285156 143.214844 334 "/>
<path style="fill-rule:nonzero;fill:rgb(35%,70%,90%);fill-opacity:1;stroke-width:1;stroke-linecap:butt;stroke-linejoin:miter;stroke:rgb(0%,0%,0%);stroke-opacity:1;stroke-miterlimit:10;" d="M 358.785156 110.785156 L 358.785156 153.214844 L 401.214844 153.214844 L 401.214844 110.785156 L 358.785156 110.785156 "/>
<path style="fill-rule:nonzero;fill:rgb(35%,70%,90%);fill-opacity:1;stroke-width:1;stroke-linecap:butt;stroke-linejoin:miter;stroke:rgb(0%,0%,0%);stroke-opacity:1;stroke-miterlimit:10;" d="M 286.214844 203 C 286.214844 214.714844 276.714844 224.214844 265 224.214844 C 253.285156 224.214844 243.785156 214.714844 243.785156 203 C 243.785156 191.285156 253.285156 181.785156 265 181.785156 C 276.714844 181.785156 286.214844 191.285156 286.214844 203 "/>
<path style="fill-rule:nonzero;fill:rgb(35%,70%,90%);fill-opacity:1;stroke-width:1;stroke-linecap:butt;stroke-linejoin:miter;stroke:rgb(0%,0%,0%);stroke-opacity:1;stroke-miterlimit:10;" d="M 354.785156 274.785156 L 354.785156 317.214844 L 397.214844 317.214844 L 397.214844 274.785156 L 354.785156 274.785156 "/>
<path style="fill-rule:nonzero;fill:rgb(35%,70%,90%);fill-opacity:1;stroke-width:1;stroke-linecap:butt;stroke-linejoin:miter;stroke:rgb(0%,0%,0%);stroke-opacity:1;stroke-miterlimit:10;" d="M 149.214844 144 C 149.214844 155.714844 139.714844 165.214844 128 165.214844 C 116.285156 165.214844 106.785156 155.714844 106.785156 144 C 106.785156 132.285156 116.285156 122.785156 128 122.785156 C 139.714844 122.785156 149.214844 132.285156 149.214844 144 "/>
<path style="fill-rule:nonzero;fill:rgb(100%,51%,0%);fill-opacity:1;stroke-width:1;stroke-linecap:butt;stroke-linejoin:miter;stroke:rgb(0%,0%,0%);stroke-opacity:1;stroke-miterlimit:10;" d="M 767.785156 345.785156 L 767.785156 388.214844 L 810.214844 388.214844 L 810.214844 345.785156 L 767.785156 345.785156 "/>
<path style="fill-rule:nonzero;fill:rgb(100%,51%,0%);fill-opacity:1;stroke-width:1;stroke-linecap:butt;stroke-linejoin:miter;stroke:rgb(0%,0%,0%);stroke-opacity:1;stroke-miterlimit:10;" d="M 1018.214844 187 C 1018.214844 198.714844 1008.714844 208.214844 997 208.214844 C 985.285156 208.214844 975.785156 198.714844 975.785156 187 C 975.785156 175.285156 985.285156 165.785156 997 165.785156 C 1008.714844 165.785156 1018.214844 175.285156 1018.214844 187 "/>
<path style="fill-rule:nonzero;fill:rgb(100%,51%,0%);fill-opacity:1;stroke-width:1;stroke-linecap:butt;stroke-linejoin:miter;stroke:rgb(0%,0%,0%);stroke-opacity:1;stroke-miterlimit:10;" d="M 681.785156 207.785156 L 681.785156 250.214844 L 724.214844 250.214844 L 724.214844 207.785156 L 681.785156 207.785156 "/>
<path style="fill-rule:nonzero;fill:rgb(100%,51%,0%);fill-opacity:1;stroke-width:1;stroke-linecap:butt;stroke-linejoin:miter;stroke:rgb(0%,0%,0%);stroke-opacity:1;stroke-miterlimit:10;" d="M 847.214844 250 C 847.214844 261.714844 837.714844 271.214844 826 271.214844 C 814.285156 271.214844 804.785156 261.714844 804.785156 250 C 804.785156 238.285156 814.285156 228.785156 826 228.785156 C 837.714844 228.785156 847.214844 238.285156 847.214844 250 "/>
</g>
</svg>
