<?xml version="1.0" encoding="UTF-8"?>
<svg xmlns="http://www.w3.org/2000/svg" xmlns:xlink="http://www.w3.org/1999/xlink" width="1129pt" height="517pt" viewBox="0 0 1129 517" version="1.1">
<g id="surface616">
<rect x="0" y="0" width="1129" height="517" style="fill:rgb(90%,90%,90%);fill-opacity:1;stroke:none;"/>
<path style="fill-rule:nonzero;fill:rgb(35%,70%,90%);fill-opacity:1;stroke-width:1;stroke-linecap:butt;stroke-linejoin:miter;stroke:rgb(0%,0%,0%);stroke-opacity:1;stroke-miterlimit:10;" d="M 228.214844 270 C 228.214844 281.714844 218.714844 291.214844 207 291.214844 C 195.285156 291.214844 185.785156 281.714844 185.785156 270 C 185.785156 258.285156 195.285156 248.785156 207 248.785156 C 218.714844 248.785156 228.214844 258.285156 228.214844 270 "/>
<path style="fill-rule:nonzero;fill:rgb(55%,51%,53%);fill-opacity:1;stroke-width:1;stroke-linecap:butt;stroke-linejoin:miter;stroke:rgb(0%,0%,0%);stroke-opacity:1;stroke-miterlimit:10;" d="M 142.214844 349 C 142.214844 360.714844 132.714844 370.214844 121 370.214844 C 109.285156 370.214844 99.785156 360.714844 99.785156 349 C 99.785156 337.285156 109.285156 327.785156 121 327.785156 C 132.714844 327.785156 142.214844 337.285156 142.214844 349 "/>
<path style="fill-rule:nonzero;fill:rgb(35%,70%,90%);fill-opacity:1;stroke-width:1;stroke-linecap:butt;stroke-linejoin:miter;stroke:rgb(0%,0%,0%);stroke-opacity:1;stroke-miterlimit:10;" d="M 158.214844 200 C 158.214844 211.714844 148.714844 221.214844 137 221.214844 C 125.285156 221.214844 115.785156 211.714844 115.785156 200 C 115.785156 188.285156 125.285156 178.785156 137 178.785156 C 148.714844 178.785156 158.214844 188.285156 158.214844 200 "/>
<path style="fill-rule:nonzero;fill:rgb(55%,51%,53%);fill-opacity:1;stroke-width:1;stroke-linecap:butt;stroke-linejoin:miter;stroke:rgb(0%,0%,0%);stroke-opacity:1;stroke-miterlimit:10;" d="M 365.214844 449 C 365.214844 460.714844 355.714844 470.214844 344 470.214844 C 332.285156 470.214844 322.785156 460.714844 322.785156 449 C 322.785156 437.285156 332.285156 427.785156 344 427.785156 C 355.714844 427.785156 365.214844 437.285156 365.214844 449 "/>
<path style="fill-rule:nonzero;fill:rgb(55%,51%,53%);fill-opacity:1;stroke-width:1;stroke-linecap:butt;stroke-linejoin:miter;stroke:rgb(0%,0%,0%);stroke-opacity:1;stroke-miterlimit:10;" d="M 662 377 L 636.019531 422 L 687.980469 422 L 662 377 "/>
<path style="fill-rule:nonzero;fill:rgb(35%,70%,90%);fill-opacity:1;stroke-width:1;stroke-linecap:butt;stroke-linejoin:miter;stroke:rgb(0%,0%,0%);stroke-opacity:1;stroke-miterlimit:10;" d="M 848 277 L 822.019531 322 L 873.980469 322 L 848 277 "/>
<path style="fill-rule:nonzero;fill:rgb(55%,51%,53%);fill-opacity:1;stroke-width:1;stroke-linecap:butt;stroke-linejoin:miter;stroke:rgb(0%,0%,0%);stroke-opacity:1;stroke-miterlimit:10;" d="M 917 99 L 891.019531 144 L 942.980469 144 L 917 99 "/>
<path style="fill-rule:nonzero;fill:rgb(35%,70%,90%);fill-opacity:1;stroke-width:1;stroke-linecap:butt;stroke-linejoin:miter;stroke:rgb(0%,0%,0%);stroke-opacity:1;stroke-miterlimit:10;" d="M 753 213 L 727.019531 258 L 778.980469 258 L 753 213 "/>
</g>
</svg>
