<?xml version="1.0" encoding="UTF-8"?>
<svg xmlns="http://www.w3.org/2000/svg" xmlns:xlink="http://www.w3.org/1999/xlink" width="1179pt" height="517pt" viewBox="0 0 1179 517" version="1.1">
<g id="surface731">
<rect x="0" y="0" width="1179" height="517" style="fill:rgb(90%,90%,90%);fill-opacity:1;stroke:none;"/>
<path style="fill-rule:nonzero;fill:rgb(35%,70%,90%);fill-opacity:1;stroke-width:1;stroke-linecap:butt;stroke-linejoin:miter;stroke:rgb(0%,0%,0%);stroke-opacity:1;stroke-miterlimit:10;" d="M 137 202 L 166.664062 202 L 178.664062 173.785156 L 190.664062 202 L 220.332031 202 L 196.332031 219.4375 L 204.417969 250.980469 L 178.664062 233.542969 L 152.914062 250.980469 L 165.214844 219.4375 L 137 202 "/>
<path style="fill-rule:nonzero;fill:rgb(55%,51%,53%);fill-opacity:1;stroke-width:1;stroke-linecap:butt;stroke-linejoin:miter;stroke:rgb(0%,0%,0%);stroke-opacity:1;stroke-miterlimit:10;" d="M 214.214844 403 C 214.214844 414.714844 204.714844 424.214844 193 424.214844 C 181.285156 424.214844 171.785156 414.714844 171.785156 403 C 171.785156 391.285156 181.285156 381.785156 193 381.785156 C 204.714844 381.785156 214.214844 391.285156 214.214844 403 "/>
<path style="fill-rule:nonzero;fill:rgb(55%,51%,53%);fill-opacity:1;stroke-width:1;stroke-linecap:butt;stroke-linejoin:miter;stroke:rgb(0%,0%,0%);stroke-opacity:1;stroke-miterlimit:10;" d="M 236.214844 273 C 236.214844 284.714844 226.714844 294.214844 215 294.214844 C 203.285156 294.214844 193.785156 284.714844 193.785156 273 C 193.785156 261.285156 203.285156 251.785156 215 251.785156 C 226.714844 251.785156 236.214844 261.285156 236.214844 273 "/>
<path style="fill-rule:nonzero;fill:rgb(35%,70%,90%);fill-opacity:1;stroke-width:1;stroke-linecap:butt;stroke-linejoin:miter;stroke:rgb(0%,0%,0%);stroke-opacity:1;stroke-miterlimit:10;" d="M 284 118 L 313.664062 118 L 325.664062 89.785156 L 337.664062 118 L 367.332031 118 L 343.332031 135.4375 L 351.417969 166.980469 L 325.664062 149.542969 L 299.914062 166.980469 L 312.214844 135.4375 L 284 118 "/>
<path style="fill-rule:nonzero;fill:rgb(55%,51%,53%);fill-opacity:1;stroke-width:1;stroke-linecap:butt;stroke-linejoin:miter;stroke:rgb(0%,0%,0%);stroke-opacity:1;stroke-miterlimit:10;" d="M 374.214844 221 C 374.214844 232.714844 364.714844 242.214844 353 242.214844 C 341.285156 242.214844 331.785156 232.714844 331.785156 221 C 331.785156 209.285156 341.285156 199.785156 353 199.785156 C 364.714844 199.785156 374.214844 209.285156 374.214844 221 "/>
<path style="fill-rule:nonzero;fill:rgb(55%,51%,53%);fill-opacity:1;stroke-width:1;stroke-linecap:butt;stroke-linejoin:miter;stroke:rgb(0%,0%,0%);stroke-opacity:1;stroke-miterlimit:10;" d="M 153.214844 329 C 153.214844 340.714844 143.714844 350.214844 132 350.214844 C 120.285156 350.214844 110.785156 340.714844 110.785156 329 C 110.785156 317.285156 120.285156 307.785156 132 307.785156 C 143.714844 307.785156 153.214844 317.285156 153.214844 329 "/>
<path style="fill-rule:nonzero;fill:rgb(55%,51%,53%);fill-opacity:1;stroke-width:1;stroke-linecap:butt;stroke-linejoin:miter;stroke:rgb(0%,0%,0%);stroke-opacity:1;stroke-miterlimit:10;" d="M 860.214844 307 C 860.214844 318.714844 850.714844 328.214844 839 328.214844 C 827.285156 328.214844 817.785156 318.714844 817.785156 307 C 817.785156 295.285156 827.285156 285.785156 839 285.785156 C 850.714844 285.785156 860.214844 295.285156 860.214844 307 "/>
<path style="fill-rule:nonzero;fill:rgb(55%,51%,53%);fill-opacity:1;stroke-width:1;stroke-linecap:butt;stroke-linejoin:miter;stroke:rgb(0%,0%,0%);stroke-opacity:1;stroke-miterlimit:10;" d="M 1037.214844 265 C 1037.214844 276.714844 1027.714844 286.214844 1016 286.214844 C 1004.285156 286.214844 994.785156 276.714844 994.785156 265 C 994.785156 253.285156 1004.285156 243.785156 1016 243.785156 C 1027.714844 243.785156 1037.214844 253.285156 1037.214844 265 "/>
<path style="fill-rule:nonzero;fill:rgb(55%,51%,53%);fill-opacity:1;stroke-width:1;stroke-linecap:butt;stroke-linejoin:miter;stroke:rgb(0%,0%,0%);stroke-opacity:1;stroke-miterlimit:10;" d="M 943.214844 344 C 943.214844 355.714844 933.714844 365.214844 922 365.214844 C 910.285156 365.214844 900.785156 355.714844 900.785156 344 C 900.785156 332.285156 910.285156 322.785156 922 322.785156 C 933.714844 322.785156 943.214844 332.285156 943.214844 344 "/>
<path style="fill-rule:nonzero;fill:rgb(55%,51%,53%);fill-opacity:1;stroke-width:1;stroke-linecap:butt;stroke-linejoin:miter;stroke:rgb(0%,0%,0%);stroke-opacity:1;stroke-miterlimit:10;" d="M 1011.214844 131 C 1011.214844 142.714844 1001.714844 152.214844 990 152.214844 C 978.285156 152.214844 968.785156 142.714844 968.785156 131 C 968.785156 119.285156 978.285156 109.785156 990 109.785156 C 1001.714844 109.785156 1011.214844 119.285156 1011.214844 131 "/>
<path style="fill-rule:nonzero;fill:rgb(55%,51%,53%);fill-opacity:1;stroke-width:1;stroke-linecap:butt;stroke-linejoin:miter;stroke:rgb(0%,0%,0%);stroke-opacity:1;stroke-miterlimit:10;" d="M 780.214844 380 C 780.214844 391.714844 770.714844 401.214844 759 401.214844 C 747.285156 401.214844 737.785156 391.714844 737.785156 380 C 737.785156 368.285156 747.285156 358.785156 759 358.785156 C 770.714844 358.785156 780.214844 368.285156 780.214844 380 "/>
<path style="fill-rule:nonzero;fill:rgb(55%,51%,53%);fill-opacity:1;stroke-width:1;stroke-linecap:butt;stroke-linejoin:miter;stroke:rgb(0%,0%,0%);stroke-opacity:1;stroke-miterlimit:10;" d="M 1036.214844 365 C 1036.214844 376.714844 1026.714844 386.214844 1015 386.214844 C 1003.285156 386.214844 993.785156 376.714844 993.785156 365 C 993.785156 353.285156 1003.285156 343.785156 1015 343.785156 C 1026.714844 343.785156 1036.214844 353.285156 1036.214844 365 "/>
<path style="fill-rule:nonzero;fill:rgb(55%,51%,53%);fill-opacity:1;stroke-width:1;stroke-linecap:butt;stroke-linejoin:miter;stroke:rgb(0%,0%,0%);stroke-opacity:1;stroke-miterlimit:10;" d="M 743.214844 238 C 743.214844 249.714844 733.714844 259.214844 722 259.214844 C 710.285156 259.214844 700.785156 249.714844 700.785156 238 C 700.785156 226.285156 710.285156 216.785156 722 216.785156 C 733.714844 216.785156 743.214844 226.285156 743.214844 238 "/>
<path style="fill-rule:nonzero;fill:rgb(55%,51%,53%);fill-opacity:1;stroke-width:1;stroke-linecap:butt;stroke-linejoin:miter;stroke:rgb(0%,0%,0%);stroke-opacity:1;stroke-miterlimit:10;" d="M 897.214844 155 C 897.214844 166.714844 887.714844 176.214844 876 176.214844 C 864.285156 176.214844 854.785156 166.714844 854.785156 155 C 854.785156 143.285156 864.285156 133.785156 876 133.785156 C 887.714844 133.785156 897.214844 143.285156 897.214844 155 "/>
</g>
</svg>
