<?xml version="1.0" encoding="UTF-8"?>
<svg xmlns="http://www.w3.org/2000/svg" xmlns:xlink="http://www.w3.org/1999/xlink" width="1179pt" height="517pt" viewBox="0 0 1179 517" version="1.1">
<g id="surface336">
<rect x="0" y="0" width="1179" height="517" style="fill:rgb(90%,90%,90%);fill-opacity:1;stroke:none;"/>
<path style="fill-rule:nonzero;fill:rgb(55%,51%,53%);fill-opacity:1;stroke-width:1;stroke-linecap:butt;stroke-linejoin:miter;stroke:rgb(0%,0%,0%);stroke-opacity:1;stroke-miterlimit:10;" d="M 168 249 L 197.664062 249 L 209.664062 220.785156 L 221.664062 249 L 251.332031 249 L 227.332031 266.4375 L 235.417969 297.980469 L 209.664062 280.542969 L 183.914062 297.980469 L 196.214844 266.4375 L 168 249 "/>
<path style="fill-rule:nonzero;fill:rgb(53%,27%,7%);fill-opacity:1;stroke-width:1;stroke-linecap:butt;stroke-linejoin:miter;stroke:rgb(0%,0%,0%);stroke-opacity:1;stroke-miterlimit:10;" d="M 355 233 L 329.019531 278 L 380.980469 278 L 355 233 "/>
<path style="fill-rule:nonzero;fill:rgb(53%,27%,7%);fill-opacity:1;stroke-width:1;stroke-linecap:butt;stroke-linejoin:miter;stroke:rgb(0%,0%,0%);stroke-opacity:1;stroke-miterlimit:10;" d="M 407 369 L 381.019531 414 L 432.980469 414 L 407 369 "/>
<path style="fill-rule:nonzero;fill:rgb(53%,27%,7%);fill-opacity:1;stroke-width:1;stroke-linecap:butt;stroke-linejoin:miter;stroke:rgb(0%,0%,0%);stroke-opacity:1;stroke-miterlimit:10;" d="M 221 368 L 195.019531 413 L 246.980469 413 L 221 368 "/>
<path style="fill-rule:nonzero;fill:rgb(55%,51%,53%);fill-opacity:1;stroke-width:1;stroke-linecap:butt;stroke-linejoin:miter;stroke:rgb(0%,0%,0%);stroke-opacity:1;stroke-miterlimit:10;" d="M 379 132 L 408.664062 132 L 420.664062 103.785156 L 432.664062 132 L 462.332031 132 L 438.332031 149.4375 L 446.417969 180.980469 L 420.664062 163.542969 L 394.914062 180.980469 L 407.214844 149.4375 L 379 132 "/>
<path style="fill-rule:nonzero;fill:rgb(55%,51%,53%);fill-opacity:1;stroke-width:1;stroke-linecap:butt;stroke-linejoin:miter;stroke:rgb(0%,0%,0%);stroke-opacity:1;stroke-miterlimit:10;" d="M 797 133 L 826.664062 133 L 838.664062 104.785156 L 850.664062 133 L 880.332031 133 L 856.332031 150.4375 L 864.417969 181.980469 L 838.664062 164.542969 L 812.914062 181.980469 L 825.214844 150.4375 L 797 133 "/>
<path style="fill-rule:nonzero;fill:rgb(53%,27%,7%);fill-opacity:1;stroke-width:1;stroke-linecap:butt;stroke-linejoin:miter;stroke:rgb(0%,0%,0%);stroke-opacity:1;stroke-miterlimit:10;" d="M 933 145 L 907.019531 190 L 958.980469 190 L 933 145 "/>
<path style="fill-rule:nonzero;fill:rgb(53%,27%,7%);fill-opacity:1;stroke-width:1;stroke-linecap:butt;stroke-linejoin:miter;stroke:rgb(0%,0%,0%);stroke-opacity:1;stroke-miterlimit:10;" d="M 759 396 L 733.019531 441 L 784.980469 441 L 759 396 "/>
<path style="fill-rule:nonzero;fill:rgb(55%,51%,53%);fill-opacity:1;stroke-width:1;stroke-linecap:butt;stroke-linejoin:miter;stroke:rgb(0%,0%,0%);stroke-opacity:1;stroke-miterlimit:10;" d="M 927 313 L 956.664062 313 L 968.664062 284.785156 L 980.664062 313 L 1010.332031 313 L 986.332031 330.4375 L 994.417969 361.980469 L 968.664062 344.542969 L 942.914062 361.980469 L 955.214844 330.4375 L 927 313 "/>
<path style="fill-rule:nonzero;fill:rgb(55%,51%,53%);fill-opacity:1;stroke-width:1;stroke-linecap:butt;stroke-linejoin:miter;stroke:rgb(0%,0%,0%);stroke-opacity:1;stroke-miterlimit:10;" d="M 936 84 L 965.664062 84 L 977.664062 55.785156 L 989.664062 84 L 1019.332031 84 L 995.332031 101.4375 L 1003.417969 132.980469 L 977.664062 115.542969 L 951.914062 132.980469 L 964.214844 101.4375 L 936 84 "/>
<path style="fill-rule:nonzero;fill:rgb(53%,27%,7%);fill-opacity:1;stroke-width:1;stroke-linecap:butt;stroke-linejoin:miter;stroke:rgb(0%,0%,0%);stroke-opacity:1;stroke-miterlimit:10;" d="M 729 310 L 703.019531 355 L 754.980469 355 L 729 310 "/>
<path style="fill-rule:nonzero;fill:rgb(55%,51%,53%);fill-opacity:1;stroke-width:1;stroke-linecap:butt;stroke-linejoin:miter;stroke:rgb(0%,0%,0%);stroke-opacity:1;stroke-miterlimit:10;" d="M 1018 140 L 1047.664062 140 L 1059.664062 111.785156 L 1071.664062 140 L 1101.332031 140 L 1077.332031 157.4375 L 1085.417969 188.980469 L 1059.664062 171.542969 L 1033.914062 188.980469 L 1046.214844 157.4375 L 1018 140 "/>
<path style="fill-rule:nonzero;fill:rgb(53%,27%,7%);fill-opacity:1;stroke-width:1;stroke-linecap:butt;stroke-linejoin:miter;stroke:rgb(0%,0%,0%);stroke-opacity:1;stroke-miterlimit:10;" d="M 695 137 L 669.019531 182 L 720.980469 182 L 695 137 "/>
</g>
</svg>
