<?xml version="1.0" encoding="UTF-8"?>
<svg xmlns="http://www.w3.org/2000/svg" xmlns:xlink="http://www.w3.org/1999/xlink" width="1129pt" height="517pt" viewBox="0 0 1129 517" version="1.1">
<g id="surface966">
<rect x="0" y="0" width="1129" height="517" style="fill:rgb(90%,90%,90%);fill-opacity:1;stroke:none;"/>
<path style="fill-rule:nonzero;fill:rgb(100%,51%,0%);fill-opacity:1;stroke-width:1;stroke-linecap:butt;stroke-linejoin:miter;stroke:rgb(0%,0%,0%);stroke-opacity:1;stroke-miterlimit:10;" d="M 571.214844 376 C 571.214844 387.714844 561.714844 397.214844 550 397.214844 C 538.285156 397.214844 528.785156 387.714844 528.785156 376 C 528.785156 364.285156 538.285156 354.785156 550 354.785156 C 561.714844 354.785156 571.214844 364.285156 571.214844 376 "/>
<path style="fill-rule:nonzero;fill:rgb(100%,51%,0%);fill-opacity:1;stroke-width:1;stroke-linecap:butt;stroke-linejoin:miter;stroke:rgb(0%,0%,0%);stroke-opacity:1;stroke-miterlimit:10;" d="M 776.214844 437 C 776.214844 448.714844 766.714844 458.214844 755 458.214844 C 743.285156 458.214844 733.785156 448.714844 733.785156 437 C 733.785156 425.285156 743.285156 415.785156 755 415.785156 C 766.714844 415.785156 776.214844 425.285156 776.214844 437 "/>
<path style="fill-rule:nonzero;fill:rgb(100%,51%,0%);fill-opacity:1;stroke-width:1;stroke-linecap:butt;stroke-linejoin:miter;stroke:rgb(0%,0%,0%);stroke-opacity:1;stroke-miterlimit:10;" d="M 314.214844 133 C 314.214844 144.714844 304.714844 154.214844 293 154.214844 C 281.285156 154.214844 271.785156 144.714844 271.785156 133 C 271.785156 121.285156 281.285156 111.785156 293 111.785156 C 304.714844 111.785156 314.214844 121.285156 314.214844 133 "/>
<path style="fill-rule:nonzero;fill:rgb(100%,51%,0%);fill-opacity:1;stroke-width:1;stroke-linecap:butt;stroke-linejoin:miter;stroke:rgb(0%,0%,0%);stroke-opacity:1;stroke-miterlimit:10;" d="M 750.214844 51 C 750.214844 62.714844 740.714844 72.214844 729 72.214844 C 717.285156 72.214844 707.785156 62.714844 707.785156 51 C 707.785156 39.285156 717.285156 29.785156 729 29.785156 C 740.714844 29.785156 750.214844 39.285156 750.214844 51 "/>
<path style="fill-rule:nonzero;fill:rgb(100%,51%,0%);fill-opacity:1;stroke-width:1;stroke-linecap:butt;stroke-linejoin:miter;stroke:rgb(0%,0%,0%);stroke-opacity:1;stroke-miterlimit:10;" d="M 671.214844 245 C 671.214844 256.714844 661.714844 266.214844 650 266.214844 C 638.285156 266.214844 628.785156 256.714844 628.785156 245 C 628.785156 233.285156 638.285156 223.785156 650 223.785156 C 661.714844 223.785156 671.214844 233.285156 671.214844 245 "/>
<path style="fill-rule:nonzero;fill:rgb(35%,70%,90%);fill-opacity:1;stroke-width:1;stroke-linecap:butt;stroke-linejoin:miter;stroke:rgb(0%,0%,0%);stroke-opacity:1;stroke-miterlimit:10;" d="M 428 412 L 457.664062 412 L 469.664062 383.785156 L 481.664062 412 L 511.332031 412 L 487.332031 429.4375 L 495.417969 460.980469 L 469.664062 443.542969 L 443.914062 460.980469 L 456.214844 429.4375 L 428 412 "/>
<path style="fill-rule:nonzero;fill:rgb(35%,70%,90%);fill-opacity:1;stroke-width:1;stroke-linecap:butt;stroke-linejoin:miter;stroke:rgb(0%,0%,0%);stroke-opacity:1;stroke-miterlimit:10;" d="M 359 206 L 388.664062 206 L 400.664062 177.785156 L 412.664062 206 L 442.332031 206 L 418.332031 223.4375 L 426.417969 254.980469 L 400.664062 237.542969 L 374.914062 254.980469 L 387.214844 223.4375 L 359 206 "/>
<path style="fill-rule:nonzero;fill:rgb(35%,70%,90%);fill-opacity:1;stroke-width:1;stroke-linecap:butt;stroke-linejoin:miter;stroke:rgb(0%,0%,0%);stroke-opacity:1;stroke-miterlimit:10;" d="M 244 254 L 273.664062 254 L 285.664062 225.785156 L 297.664062 254 L 327.332031 254 L 303.332031 271.4375 L 311.417969 302.980469 L 285.664062 285.542969 L 259.914062 302.980469 L 272.214844 271.4375 L 244 254 "/>
<path style="fill-rule:nonzero;fill:rgb(35%,70%,90%);fill-opacity:1;stroke-width:1;stroke-linecap:butt;stroke-linejoin:miter;stroke:rgb(0%,0%,0%);stroke-opacity:1;stroke-miterlimit:10;" d="M 785 291 L 814.664062 291 L 826.664062 262.785156 L 838.664062 291 L 868.332031 291 L 844.332031 308.4375 L 852.417969 339.980469 L 826.664062 322.542969 L 800.914062 339.980469 L 813.214844 308.4375 L 785 291 "/>
<path style="fill-rule:nonzero;fill:rgb(35%,70%,90%);fill-opacity:1;stroke-width:1;stroke-linecap:butt;stroke-linejoin:miter;stroke:rgb(0%,0%,0%);stroke-opacity:1;stroke-miterlimit:10;" d="M 323 355 L 352.664062 355 L 364.664062 326.785156 L 376.664062 355 L 406.332031 355 L 382.332031 372.4375 L 390.417969 403.980469 L 364.664062 386.542969 L 338.914062 403.980469 L 351.214844 372.4375 L 323 355 "/>
<path style="fill-rule:nonzero;fill:rgb(35%,70%,90%);fill-opacity:1;stroke-width:1;stroke-linecap:butt;stroke-linejoin:miter;stroke:rgb(0%,0%,0%);stroke-opacity:1;stroke-miterlimit:10;" d="M 423 301 L 452.664062 301 L 464.664062 272.785156 L 476.664062 301 L 506.332031 301 L 482.332031 318.4375 L 490.417969 349.980469 L 464.664062 332.542969 L 438.914062 349.980469 L 451.214844 318.4375 L 423 301 "/>
<path style="fill-rule:nonzero;fill:rgb(35%,70%,90%);fill-opacity:1;stroke-width:1;stroke-linecap:butt;stroke-linejoin:miter;stroke:rgb(0%,0%,0%);stroke-opacity:1;stroke-miterlimit:10;" d="M 89 95 L 118.664062 95 L 130.664062 66.785156 L 142.664062 95 L 172.332031 95 L 148.332031 112.4375 L 156.417969 143.980469 L 130.664062 126.542969 L 104.914062 143.980469 L 117.214844 112.4375 L 89 95 "/>
<path style="fill-rule:nonzero;fill:rgb(35%,70%,90%);fill-opacity:1;stroke-width:1;stroke-linecap:butt;stroke-linejoin:miter;stroke:rgb(0%,0%,0%);stroke-opacity:1;stroke-miterlimit:10;" d="M 469 164 L 498.664062 164 L 510.664062 135.785156 L 522.664062 164 L 552.332031 164 L 528.332031 181.4375 L 536.417969 212.980469 L 510.664062 195.542969 L 484.914062 212.980469 L 497.214844 181.4375 L 469 164 "/>
</g>
</svg>
