<?xml version="1.0" encoding="UTF-8"?>
<svg xmlns="http://www.w3.org/2000/svg" xmlns:xlink="http://www.w3.org/1999/xlink" width="1129pt" height="517pt" viewBox="0 0 1129 517" version="1.1">
<g id="surface321">
<rect x="0" y="0" width="1129" height="517" style="fill:rgb(90%,90%,90%);fill-opacity:1;stroke:none;"/>
<path style="fill-rule:nonzero;fill:rgb(100%,51%,0%);fill-opacity:1;stroke-width:1;stroke-linecap:butt;stroke-linejoin:miter;stroke:rgb(0%,0%,0%);stroke-opacity:1;stroke-miterlimit:10;" d="M 440.214844 238 C 440.214844 249.714844 430.714844 259.214844 419 259.214844 C 407.285156 259.214844 397.785156 249.714844 397.785156 238 C 397.785156 226.285156 407.285156 216.785156 419 216.785156 C 430.714844 216.785156 440.214844 226.285156 440.214844 238 "/>
<path style="fill-rule:nonzero;fill:rgb(100%,51%,0%);fill-opacity:1;stroke-width:1;stroke-linecap:butt;stroke-linejoin:miter;stroke:rgb(0%,0%,0%);stroke-opacity:1;stroke-miterlimit:10;" d="M 200.785156 183.785156 L 200.785156 226.214844 L 243.214844 226.214844 L 243.214844 183.785156 L 200.785156 183.785156 "/>
<path style="fill-rule:nonzero;fill:rgb(100%,51%,0%);fill-opacity:1;stroke-width:1;stroke-linecap:butt;stroke-linejoin:miter;stroke:rgb(0%,0%,0%);stroke-opacity:1;stroke-miterlimit:10;" d="M 187.214844 56 C 187.214844 67.714844 177.714844 77.214844 166 77.214844 C 154.285156 77.214844 144.785156 67.714844 144.785156 56 C 144.785156 44.285156 154.285156 34.785156 166 34.785156 C 177.714844 34.785156 187.214844 44.285156 187.214844 56 "/>
<path style="fill-rule:nonzero;fill:rgb(100%,51%,0%);fill-opacity:1;stroke-width:1;stroke-linecap:butt;stroke-linejoin:miter;stroke:rgb(0%,0%,0%);stroke-opacity:1;stroke-miterlimit:10;" d="M 475.214844 374 C 475.214844 385.714844 465.714844 395.214844 454 395.214844 C 442.285156 395.214844 432.785156 385.714844 432.785156 374 C 432.785156 362.285156 442.285156 352.785156 454 352.785156 C 465.714844 352.785156 475.214844 362.285156 475.214844 374 "/>
<path style="fill-rule:nonzero;fill:rgb(100%,51%,0%);fill-opacity:1;stroke-width:1;stroke-linecap:butt;stroke-linejoin:miter;stroke:rgb(0%,0%,0%);stroke-opacity:1;stroke-miterlimit:10;" d="M 226.214844 451 C 226.214844 462.714844 216.714844 472.214844 205 472.214844 C 193.285156 472.214844 183.785156 462.714844 183.785156 451 C 183.785156 439.285156 193.285156 429.785156 205 429.785156 C 216.714844 429.785156 226.214844 439.285156 226.214844 451 "/>
<path style="fill-rule:nonzero;fill:rgb(100%,51%,0%);fill-opacity:1;stroke-width:1;stroke-linecap:butt;stroke-linejoin:miter;stroke:rgb(0%,0%,0%);stroke-opacity:1;stroke-miterlimit:10;" d="M 433.214844 62 C 433.214844 73.714844 423.714844 83.214844 412 83.214844 C 400.285156 83.214844 390.785156 73.714844 390.785156 62 C 390.785156 50.285156 400.285156 40.785156 412 40.785156 C 423.714844 40.785156 433.214844 50.285156 433.214844 62 "/>
<path style="fill-rule:nonzero;fill:rgb(55%,51%,53%);fill-opacity:1;stroke-width:1;stroke-linecap:butt;stroke-linejoin:miter;stroke:rgb(0%,0%,0%);stroke-opacity:1;stroke-miterlimit:10;" d="M 711.785156 381.785156 L 711.785156 424.214844 L 754.214844 424.214844 L 754.214844 381.785156 L 711.785156 381.785156 "/>
<path style="fill-rule:nonzero;fill:rgb(55%,51%,53%);fill-opacity:1;stroke-width:1;stroke-linecap:butt;stroke-linejoin:miter;stroke:rgb(0%,0%,0%);stroke-opacity:1;stroke-miterlimit:10;" d="M 943.214844 117 C 943.214844 128.714844 933.714844 138.214844 922 138.214844 C 910.285156 138.214844 900.785156 128.714844 900.785156 117 C 900.785156 105.285156 910.285156 95.785156 922 95.785156 C 933.714844 95.785156 943.214844 105.285156 943.214844 117 "/>
<path style="fill-rule:nonzero;fill:rgb(55%,51%,53%);fill-opacity:1;stroke-width:1;stroke-linecap:butt;stroke-linejoin:miter;stroke:rgb(0%,0%,0%);stroke-opacity:1;stroke-miterlimit:10;" d="M 694.785156 200.785156 L 694.785156 243.214844 L 737.214844 243.214844 L 737.214844 200.785156 L 694.785156 200.785156 "/>
<path style="fill-rule:nonzero;fill:rgb(55%,51%,53%);fill-opacity:1;stroke-width:1;stroke-linecap:butt;stroke-linejoin:miter;stroke:rgb(0%,0%,0%);stroke-opacity:1;stroke-miterlimit:10;" d="M 949.785156 221.785156 L 949.785156 264.214844 L 992.214844 264.214844 L 992.214844 221.785156 L 949.785156 221.785156 "/>
<path style="fill-rule:nonzero;fill:rgb(55%,51%,53%);fill-opacity:1;stroke-width:1;stroke-linecap:butt;stroke-linejoin:miter;stroke:rgb(0%,0%,0%);stroke-opacity:1;stroke-miterlimit:10;" d="M 834.785156 232.785156 L 834.785156 275.214844 L 877.214844 275.214844 L 877.214844 232.785156 L 834.785156 232.785156 "/>
</g>
</svg>
