<?xml version="1.0" encoding="UTF-8"?>
<svg xmlns="http://www.w3.org/2000/svg" xmlns:xlink="http://www.w3.org/1999/xlink" width="1179pt" height="517pt" viewBox="0 0 1179 517" version="1.1">
<g id="surface286">
<rect x="0" y="0" width="1179" height="517" style="fill:rgb(90%,90%,90%);fill-opacity:1;stroke:none;"/>
<path style="fill-rule:nonzero;fill:rgb(100%,51%,0%);fill-opacity:1;stroke-width:1;stroke-linecap:butt;stroke-linejoin:miter;stroke:rgb(0%,0%,0%);stroke-opacity:1;stroke-miterlimit:10;" d="M 127.214844 366 C 127.214844 377.714844 117.714844 387.214844 106 387.214844 C 94.285156 387.214844 84.785156 377.714844 84.785156 366 C 84.785156 354.285156 94.285156 344.785156 106 344.785156 C 117.714844 344.785156 127.214844 354.285156 127.214844 366 "/>
<path style="fill-rule:nonzero;fill:rgb(53%,27%,7%);fill-opacity:1;stroke-width:1;stroke-linecap:butt;stroke-linejoin:miter;stroke:rgb(0%,0%,0%);stroke-opacity:1;stroke-miterlimit:10;" d="M 373.214844 300 C 373.214844 311.714844 363.714844 321.214844 352 321.214844 C 340.285156 321.214844 330.785156 311.714844 330.785156 300 C 330.785156 288.285156 340.285156 278.785156 352 278.785156 C 363.714844 278.785156 373.214844 288.285156 373.214844 300 "/>
<path style="fill-rule:nonzero;fill:rgb(53%,27%,7%);fill-opacity:1;stroke-width:1;stroke-linecap:butt;stroke-linejoin:miter;stroke:rgb(0%,0%,0%);stroke-opacity:1;stroke-miterlimit:10;" d="M 275.214844 417 C 275.214844 428.714844 265.714844 438.214844 254 438.214844 C 242.285156 438.214844 232.785156 428.714844 232.785156 417 C 232.785156 405.285156 242.285156 395.785156 254 395.785156 C 265.714844 395.785156 275.214844 405.285156 275.214844 417 "/>
<path style="fill-rule:nonzero;fill:rgb(100%,51%,0%);fill-opacity:1;stroke-width:1;stroke-linecap:butt;stroke-linejoin:miter;stroke:rgb(0%,0%,0%);stroke-opacity:1;stroke-miterlimit:10;" d="M 111.214844 190 C 111.214844 201.714844 101.714844 211.214844 90 211.214844 C 78.285156 211.214844 68.785156 201.714844 68.785156 190 C 68.785156 178.285156 78.285156 168.785156 90 168.785156 C 101.714844 168.785156 111.214844 178.285156 111.214844 190 "/>
<path style="fill-rule:nonzero;fill:rgb(100%,51%,0%);fill-opacity:1;stroke-width:1;stroke-linecap:butt;stroke-linejoin:miter;stroke:rgb(0%,0%,0%);stroke-opacity:1;stroke-miterlimit:10;" d="M 422.214844 120 C 422.214844 131.714844 412.714844 141.214844 401 141.214844 C 389.285156 141.214844 379.785156 131.714844 379.785156 120 C 379.785156 108.285156 389.285156 98.785156 401 98.785156 C 412.714844 98.785156 422.214844 108.285156 422.214844 120 "/>
<path style="fill-rule:nonzero;fill:rgb(100%,51%,0%);fill-opacity:1;stroke-width:1;stroke-linecap:butt;stroke-linejoin:miter;stroke:rgb(0%,0%,0%);stroke-opacity:1;stroke-miterlimit:10;" d="M 334.214844 153 C 334.214844 164.714844 324.714844 174.214844 313 174.214844 C 301.285156 174.214844 291.785156 164.714844 291.785156 153 C 291.785156 141.285156 301.285156 131.785156 313 131.785156 C 324.714844 131.785156 334.214844 141.285156 334.214844 153 "/>
<path style="fill-rule:nonzero;fill:rgb(100%,51%,0%);fill-opacity:1;stroke-width:1;stroke-linecap:butt;stroke-linejoin:miter;stroke:rgb(0%,0%,0%);stroke-opacity:1;stroke-miterlimit:10;" d="M 438.214844 416 C 438.214844 427.714844 428.714844 437.214844 417 437.214844 C 405.285156 437.214844 395.785156 427.714844 395.785156 416 C 395.785156 404.285156 405.285156 394.785156 417 394.785156 C 428.714844 394.785156 438.214844 404.285156 438.214844 416 "/>
<path style="fill-rule:nonzero;fill:rgb(53%,27%,7%);fill-opacity:1;stroke-width:1;stroke-linecap:butt;stroke-linejoin:miter;stroke:rgb(0%,0%,0%);stroke-opacity:1;stroke-miterlimit:10;" d="M 730 353 L 704.019531 398 L 755.980469 398 L 730 353 "/>
<path style="fill-rule:nonzero;fill:rgb(100%,51%,0%);fill-opacity:1;stroke-width:1;stroke-linecap:butt;stroke-linejoin:miter;stroke:rgb(0%,0%,0%);stroke-opacity:1;stroke-miterlimit:10;" d="M 752 89 L 726.019531 134 L 777.980469 134 L 752 89 "/>
<path style="fill-rule:nonzero;fill:rgb(100%,51%,0%);fill-opacity:1;stroke-width:1;stroke-linecap:butt;stroke-linejoin:miter;stroke:rgb(0%,0%,0%);stroke-opacity:1;stroke-miterlimit:10;" d="M 983 164 L 957.019531 209 L 1008.980469 209 L 983 164 "/>
<path style="fill-rule:nonzero;fill:rgb(53%,27%,7%);fill-opacity:1;stroke-width:1;stroke-linecap:butt;stroke-linejoin:miter;stroke:rgb(0%,0%,0%);stroke-opacity:1;stroke-miterlimit:10;" d="M 814 182 L 788.019531 227 L 839.980469 227 L 814 182 "/>
<path style="fill-rule:nonzero;fill:rgb(53%,27%,7%);fill-opacity:1;stroke-width:1;stroke-linecap:butt;stroke-linejoin:miter;stroke:rgb(0%,0%,0%);stroke-opacity:1;stroke-miterlimit:10;" d="M 901 326 L 875.019531 371 L 926.980469 371 L 901 326 "/>
<path style="fill-rule:nonzero;fill:rgb(53%,27%,7%);fill-opacity:1;stroke-width:1;stroke-linecap:butt;stroke-linejoin:miter;stroke:rgb(0%,0%,0%);stroke-opacity:1;stroke-miterlimit:10;" d="M 1007 367 L 981.019531 412 L 1032.980469 412 L 1007 367 "/>
</g>
</svg>
