<?xml version="1.0" encoding="UTF-8"?>
<svg xmlns="http://www.w3.org/2000/svg" xmlns:xlink="http://www.w3.org/1999/xlink" width="1179pt" height="517pt" viewBox="0 0 1179 517" version="1.1">
<g id="surface136">
<rect x="0" y="0" width="1179" height="517" style="fill:rgb(90%,90%,90%);fill-opacity:1;stroke:none;"/>
<path style="fill-rule:nonzero;fill:rgb(100%,51%,0%);fill-opacity:1;stroke-width:1;stroke-linecap:butt;stroke-linejoin:miter;stroke:rgb(0%,0%,0%);stroke-opacity:1;stroke-miterlimit:10;" d="M 132.214844 269 C 132.214844 280.714844 122.714844 290.214844 111 290.214844 C 99.285156 290.214844 89.785156 280.714844 89.785156 269 C 89.785156 257.285156 99.285156 247.785156 111 247.785156 C 122.714844 247.785156 132.214844 257.285156 132.214844 269 "/>
<path style="fill-rule:nonzero;fill:rgb(100%,51%,0%);fill-opacity:1;stroke-width:1;stroke-linecap:butt;stroke-linejoin:miter;stroke:rgb(0%,0%,0%);stroke-opacity:1;stroke-miterlimit:10;" d="M 113.214844 89 C 113.214844 100.714844 103.714844 110.214844 92 110.214844 C 80.285156 110.214844 70.785156 100.714844 70.785156 89 C 70.785156 77.285156 80.285156 67.785156 92 67.785156 C 103.714844 67.785156 113.214844 77.285156 113.214844 89 "/>
<path style="fill-rule:nonzero;fill:rgb(100%,51%,0%);fill-opacity:1;stroke-width:1;stroke-linecap:butt;stroke-linejoin:miter;stroke:rgb(0%,0%,0%);stroke-opacity:1;stroke-miterlimit:10;" d="M 198 275 L 172.019531 320 L 223.980469 320 L 198 275 "/>
<path style="fill-rule:nonzero;fill:rgb(100%,51%,0%);fill-opacity:1;stroke-width:1;stroke-linecap:butt;stroke-linejoin:miter;stroke:rgb(0%,0%,0%);stroke-opacity:1;stroke-miterlimit:10;" d="M 142 402 L 116.019531 447 L 167.980469 447 L 142 402 "/>
<path style="fill-rule:nonzero;fill:rgb(100%,51%,0%);fill-opacity:1;stroke-width:1;stroke-linecap:butt;stroke-linejoin:miter;stroke:rgb(0%,0%,0%);stroke-opacity:1;stroke-miterlimit:10;" d="M 324.214844 193 C 324.214844 204.714844 314.714844 214.214844 303 214.214844 C 291.285156 214.214844 281.785156 204.714844 281.785156 193 C 281.785156 181.285156 291.285156 171.785156 303 171.785156 C 314.714844 171.785156 324.214844 181.285156 324.214844 193 "/>
<path style="fill-rule:nonzero;fill:rgb(100%,51%,0%);fill-opacity:1;stroke-width:1;stroke-linecap:butt;stroke-linejoin:miter;stroke:rgb(0%,0%,0%);stroke-opacity:1;stroke-miterlimit:10;" d="M 443.214844 330 C 443.214844 341.714844 433.714844 351.214844 422 351.214844 C 410.285156 351.214844 400.785156 341.714844 400.785156 330 C 400.785156 318.285156 410.285156 308.785156 422 308.785156 C 433.714844 308.785156 443.214844 318.285156 443.214844 330 "/>
<path style="fill-rule:nonzero;fill:rgb(55%,51%,53%);fill-opacity:1;stroke-width:1;stroke-linecap:butt;stroke-linejoin:miter;stroke:rgb(0%,0%,0%);stroke-opacity:1;stroke-miterlimit:10;" d="M 987 321 L 961.019531 366 L 1012.980469 366 L 987 321 "/>
<path style="fill-rule:nonzero;fill:rgb(55%,51%,53%);fill-opacity:1;stroke-width:1;stroke-linecap:butt;stroke-linejoin:miter;stroke:rgb(0%,0%,0%);stroke-opacity:1;stroke-miterlimit:10;" d="M 769 278 L 743.019531 323 L 794.980469 323 L 769 278 "/>
<path style="fill-rule:nonzero;fill:rgb(55%,51%,53%);fill-opacity:1;stroke-width:1;stroke-linecap:butt;stroke-linejoin:miter;stroke:rgb(0%,0%,0%);stroke-opacity:1;stroke-miterlimit:10;" d="M 770.214844 137 C 770.214844 148.714844 760.714844 158.214844 749 158.214844 C 737.285156 158.214844 727.785156 148.714844 727.785156 137 C 727.785156 125.285156 737.285156 115.785156 749 115.785156 C 760.714844 115.785156 770.214844 125.285156 770.214844 137 "/>
<path style="fill-rule:nonzero;fill:rgb(55%,51%,53%);fill-opacity:1;stroke-width:1;stroke-linecap:butt;stroke-linejoin:miter;stroke:rgb(0%,0%,0%);stroke-opacity:1;stroke-miterlimit:10;" d="M 885.214844 312 C 885.214844 323.714844 875.714844 333.214844 864 333.214844 C 852.285156 333.214844 842.785156 323.714844 842.785156 312 C 842.785156 300.285156 852.285156 290.785156 864 290.785156 C 875.714844 290.785156 885.214844 300.285156 885.214844 312 "/>
<path style="fill-rule:nonzero;fill:rgb(55%,51%,53%);fill-opacity:1;stroke-width:1;stroke-linecap:butt;stroke-linejoin:miter;stroke:rgb(0%,0%,0%);stroke-opacity:1;stroke-miterlimit:10;" d="M 712 352 L 686.019531 397 L 737.980469 397 L 712 352 "/>
<path style="fill-rule:nonzero;fill:rgb(55%,51%,53%);fill-opacity:1;stroke-width:1;stroke-linecap:butt;stroke-linejoin:miter;stroke:rgb(0%,0%,0%);stroke-opacity:1;stroke-miterlimit:10;" d="M 1000 76 L 974.019531 121 L 1025.980469 121 L 1000 76 "/>
<path style="fill-rule:nonzero;fill:rgb(55%,51%,53%);fill-opacity:1;stroke-width:1;stroke-linecap:butt;stroke-linejoin:miter;stroke:rgb(0%,0%,0%);stroke-opacity:1;stroke-miterlimit:10;" d="M 897 78 L 871.019531 123 L 922.980469 123 L 897 78 "/>
<path style="fill-rule:nonzero;fill:rgb(55%,51%,53%);fill-opacity:1;stroke-width:1;stroke-linecap:butt;stroke-linejoin:miter;stroke:rgb(0%,0%,0%);stroke-opacity:1;stroke-miterlimit:10;" d="M 1034 220 L 1008.019531 265 L 1059.980469 265 L 1034 220 "/>
</g>
</svg>
