<?xml version="1.0" encoding="UTF-8"?>
<svg xmlns="http://www.w3.org/2000/svg" xmlns:xlink="http://www.w3.org/1999/xlink" width="1129pt" height="517pt" viewBox="0 0 1129 517" version="1.1">
<g id="surface956">
<rect x="0" y="0" width="1129" height="517" style="fill:rgb(90%,90%,90%);fill-opacity:1;stroke:none;"/>
<path style="fill-rule:nonzero;fill:rgb(35%,70%,90%);fill-opacity:1;stroke-width:1;stroke-linecap:butt;stroke-linejoin:miter;stroke:rgb(0%,0%,0%);stroke-opacity:1;stroke-miterlimit:10;" d="M 675 257 L 704.664062 257 L 716.664062 228.785156 L 728.664062 257 L 758.332031 257 L 734.332031 274.4375 L 742.417969 305.980469 L 716.664062 288.542969 L 690.914062 305.980469 L 703.214844 274.4375 L 675 257 "/>
<path style="fill-rule:nonzero;fill:rgb(35%,70%,90%);fill-opacity:1;stroke-width:1;stroke-linecap:butt;stroke-linejoin:miter;stroke:rgb(0%,0%,0%);stroke-opacity:1;stroke-miterlimit:10;" d="M 286 191 L 315.664062 191 L 327.664062 162.785156 L 339.664062 191 L 369.332031 191 L 345.332031 208.4375 L 353.417969 239.980469 L 327.664062 222.542969 L 301.914062 239.980469 L 314.214844 208.4375 L 286 191 "/>
<path style="fill-rule:nonzero;fill:rgb(35%,70%,90%);fill-opacity:1;stroke-width:1;stroke-linecap:butt;stroke-linejoin:miter;stroke:rgb(0%,0%,0%);stroke-opacity:1;stroke-miterlimit:10;" d="M 485 424 L 514.664062 424 L 526.664062 395.785156 L 538.664062 424 L 568.332031 424 L 544.332031 441.4375 L 552.417969 472.980469 L 526.664062 455.542969 L 500.914062 472.980469 L 513.214844 441.4375 L 485 424 "/>
<path style="fill-rule:nonzero;fill:rgb(35%,70%,90%);fill-opacity:1;stroke-width:1;stroke-linecap:butt;stroke-linejoin:miter;stroke:rgb(0%,0%,0%);stroke-opacity:1;stroke-miterlimit:10;" d="M 672 166 L 701.664062 166 L 713.664062 137.785156 L 725.664062 166 L 755.332031 166 L 731.332031 183.4375 L 739.417969 214.980469 L 713.664062 197.542969 L 687.914062 214.980469 L 700.214844 183.4375 L 672 166 "/>
<path style="fill-rule:nonzero;fill:rgb(35%,70%,90%);fill-opacity:1;stroke-width:1;stroke-linecap:butt;stroke-linejoin:miter;stroke:rgb(0%,0%,0%);stroke-opacity:1;stroke-miterlimit:10;" d="M 889 420 L 918.664062 420 L 930.664062 391.785156 L 942.664062 420 L 972.332031 420 L 948.332031 437.4375 L 956.417969 468.980469 L 930.664062 451.542969 L 904.914062 468.980469 L 917.214844 437.4375 L 889 420 "/>
<path style="fill-rule:nonzero;fill:rgb(35%,70%,90%);fill-opacity:1;stroke-width:1;stroke-linecap:butt;stroke-linejoin:miter;stroke:rgb(0%,0%,0%);stroke-opacity:1;stroke-miterlimit:10;" d="M 947 239 L 976.664062 239 L 988.664062 210.785156 L 1000.664062 239 L 1030.332031 239 L 1006.332031 256.4375 L 1014.417969 287.980469 L 988.664062 270.542969 L 962.914062 287.980469 L 975.214844 256.4375 L 947 239 "/>
<path style="fill-rule:nonzero;fill:rgb(55%,51%,53%);fill-opacity:1;stroke-width:1;stroke-linecap:butt;stroke-linejoin:miter;stroke:rgb(0%,0%,0%);stroke-opacity:1;stroke-miterlimit:10;" d="M 110.214844 350 C 110.214844 361.714844 100.714844 371.214844 89 371.214844 C 77.285156 371.214844 67.785156 361.714844 67.785156 350 C 67.785156 338.285156 77.285156 328.785156 89 328.785156 C 100.714844 328.785156 110.214844 338.285156 110.214844 350 "/>
<path style="fill-rule:nonzero;fill:rgb(55%,51%,53%);fill-opacity:1;stroke-width:1;stroke-linecap:butt;stroke-linejoin:miter;stroke:rgb(0%,0%,0%);stroke-opacity:1;stroke-miterlimit:10;" d="M 156.214844 430 C 156.214844 441.714844 146.714844 451.214844 135 451.214844 C 123.285156 451.214844 113.785156 441.714844 113.785156 430 C 113.785156 418.285156 123.285156 408.785156 135 408.785156 C 146.714844 408.785156 156.214844 418.285156 156.214844 430 "/>
<path style="fill-rule:nonzero;fill:rgb(55%,51%,53%);fill-opacity:1;stroke-width:1;stroke-linecap:butt;stroke-linejoin:miter;stroke:rgb(0%,0%,0%);stroke-opacity:1;stroke-miterlimit:10;" d="M 419.214844 58 C 419.214844 69.714844 409.714844 79.214844 398 79.214844 C 386.285156 79.214844 376.785156 69.714844 376.785156 58 C 376.785156 46.285156 386.285156 36.785156 398 36.785156 C 409.714844 36.785156 419.214844 46.285156 419.214844 58 "/>
<path style="fill-rule:nonzero;fill:rgb(55%,51%,53%);fill-opacity:1;stroke-width:1;stroke-linecap:butt;stroke-linejoin:miter;stroke:rgb(0%,0%,0%);stroke-opacity:1;stroke-miterlimit:10;" d="M 842.214844 305 C 842.214844 316.714844 832.714844 326.214844 821 326.214844 C 809.285156 326.214844 799.785156 316.714844 799.785156 305 C 799.785156 293.285156 809.285156 283.785156 821 283.785156 C 832.714844 283.785156 842.214844 293.285156 842.214844 305 "/>
<path style="fill-rule:nonzero;fill:rgb(55%,51%,53%);fill-opacity:1;stroke-width:1;stroke-linecap:butt;stroke-linejoin:miter;stroke:rgb(0%,0%,0%);stroke-opacity:1;stroke-miterlimit:10;" d="M 575.214844 170 C 575.214844 181.714844 565.714844 191.214844 554 191.214844 C 542.285156 191.214844 532.785156 181.714844 532.785156 170 C 532.785156 158.285156 542.285156 148.785156 554 148.785156 C 565.714844 148.785156 575.214844 158.285156 575.214844 170 "/>
<path style="fill-rule:nonzero;fill:rgb(55%,51%,53%);fill-opacity:1;stroke-width:1;stroke-linecap:butt;stroke-linejoin:miter;stroke:rgb(0%,0%,0%);stroke-opacity:1;stroke-miterlimit:10;" d="M 528.214844 283 C 528.214844 294.714844 518.714844 304.214844 507 304.214844 C 495.285156 304.214844 485.785156 294.714844 485.785156 283 C 485.785156 271.285156 495.285156 261.785156 507 261.785156 C 518.714844 261.785156 528.214844 271.285156 528.214844 283 "/>
<path style="fill-rule:nonzero;fill:rgb(55%,51%,53%);fill-opacity:1;stroke-width:1;stroke-linecap:butt;stroke-linejoin:miter;stroke:rgb(0%,0%,0%);stroke-opacity:1;stroke-miterlimit:10;" d="M 820.214844 178 C 820.214844 189.714844 810.714844 199.214844 799 199.214844 C 787.285156 199.214844 777.785156 189.714844 777.785156 178 C 777.785156 166.285156 787.285156 156.785156 799 156.785156 C 810.714844 156.785156 820.214844 166.285156 820.214844 178 "/>
<path style="fill-rule:nonzero;fill:rgb(55%,51%,53%);fill-opacity:1;stroke-width:1;stroke-linecap:butt;stroke-linejoin:miter;stroke:rgb(0%,0%,0%);stroke-opacity:1;stroke-miterlimit:10;" d="M 240.214844 258 C 240.214844 269.714844 230.714844 279.214844 219 279.214844 C 207.285156 279.214844 197.785156 269.714844 197.785156 258 C 197.785156 246.285156 207.285156 236.785156 219 236.785156 C 230.714844 236.785156 240.214844 246.285156 240.214844 258 "/>
</g>
</svg>
