<?xml version="1.0" encoding="UTF-8"?>
<svg xmlns="http://www.w3.org/2000/svg" xmlns:xlink="http://www.w3.org/1999/xlink" width="1179pt" height="517pt" viewBox="0 0 1179 517" version="1.1">
<g id="surface541">
<rect x="0" y="0" width="1179" height="517" style="fill:rgb(90%,90%,90%);fill-opacity:1;stroke:none;"/>
<path style="fill-rule:nonzero;fill:rgb(100%,51%,0%);fill-opacity:1;stroke-width:1;stroke-linecap:butt;stroke-linejoin:miter;stroke:rgb(0%,0%,0%);stroke-opacity:1;stroke-miterlimit:10;" d="M 282.214844 141 C 282.214844 152.714844 272.714844 162.214844 261 162.214844 C 249.285156 162.214844 239.785156 152.714844 239.785156 141 C 239.785156 129.285156 249.285156 119.785156 261 119.785156 C 272.714844 119.785156 282.214844 129.285156 282.214844 141 "/>
<path style="fill-rule:nonzero;fill:rgb(100%,51%,0%);fill-opacity:1;stroke-width:1;stroke-linecap:butt;stroke-linejoin:miter;stroke:rgb(0%,0%,0%);stroke-opacity:1;stroke-miterlimit:10;" d="M 159.214844 202 C 159.214844 213.714844 149.714844 223.214844 138 223.214844 C 126.285156 223.214844 116.785156 213.714844 116.785156 202 C 116.785156 190.285156 126.285156 180.785156 138 180.785156 C 149.714844 180.785156 159.214844 190.285156 159.214844 202 "/>
<path style="fill-rule:nonzero;fill:rgb(100%,51%,0%);fill-opacity:1;stroke-width:1;stroke-linecap:butt;stroke-linejoin:miter;stroke:rgb(0%,0%,0%);stroke-opacity:1;stroke-miterlimit:10;" d="M 346.214844 250 C 346.214844 261.714844 336.714844 271.214844 325 271.214844 C 313.285156 271.214844 303.785156 261.714844 303.785156 250 C 303.785156 238.285156 313.285156 228.785156 325 228.785156 C 336.714844 228.785156 346.214844 238.285156 346.214844 250 "/>
<path style="fill-rule:nonzero;fill:rgb(35%,70%,90%);fill-opacity:1;stroke-width:1;stroke-linecap:butt;stroke-linejoin:miter;stroke:rgb(0%,0%,0%);stroke-opacity:1;stroke-miterlimit:10;" d="M 201 336 L 230.664062 336 L 242.664062 307.785156 L 254.664062 336 L 284.332031 336 L 260.332031 353.4375 L 268.417969 384.980469 L 242.664062 367.542969 L 216.914062 384.980469 L 229.214844 353.4375 L 201 336 "/>
<path style="fill-rule:nonzero;fill:rgb(100%,51%,0%);fill-opacity:1;stroke-width:1;stroke-linecap:butt;stroke-linejoin:miter;stroke:rgb(0%,0%,0%);stroke-opacity:1;stroke-miterlimit:10;" d="M 333.214844 405 C 333.214844 416.714844 323.714844 426.214844 312 426.214844 C 300.285156 426.214844 290.785156 416.714844 290.785156 405 C 290.785156 393.285156 300.285156 383.785156 312 383.785156 C 323.714844 383.785156 333.214844 393.285156 333.214844 405 "/>
<path style="fill-rule:nonzero;fill:rgb(35%,70%,90%);fill-opacity:1;stroke-width:1;stroke-linecap:butt;stroke-linejoin:miter;stroke:rgb(0%,0%,0%);stroke-opacity:1;stroke-miterlimit:10;" d="M 949 338 L 978.664062 338 L 990.664062 309.785156 L 1002.664062 338 L 1032.332031 338 L 1008.332031 355.4375 L 1016.417969 386.980469 L 990.664062 369.542969 L 964.914062 386.980469 L 977.214844 355.4375 L 949 338 "/>
<path style="fill-rule:nonzero;fill:rgb(100%,51%,0%);fill-opacity:1;stroke-width:1;stroke-linecap:butt;stroke-linejoin:miter;stroke:rgb(0%,0%,0%);stroke-opacity:1;stroke-miterlimit:10;" d="M 1017.214844 231 C 1017.214844 242.714844 1007.714844 252.214844 996 252.214844 C 984.285156 252.214844 974.785156 242.714844 974.785156 231 C 974.785156 219.285156 984.285156 209.785156 996 209.785156 C 1007.714844 209.785156 1017.214844 219.285156 1017.214844 231 "/>
<path style="fill-rule:nonzero;fill:rgb(100%,51%,0%);fill-opacity:1;stroke-width:1;stroke-linecap:butt;stroke-linejoin:miter;stroke:rgb(0%,0%,0%);stroke-opacity:1;stroke-miterlimit:10;" d="M 906.214844 244 C 906.214844 255.714844 896.714844 265.214844 885 265.214844 C 873.285156 265.214844 863.785156 255.714844 863.785156 244 C 863.785156 232.285156 873.285156 222.785156 885 222.785156 C 896.714844 222.785156 906.214844 232.285156 906.214844 244 "/>
<path style="fill-rule:nonzero;fill:rgb(100%,51%,0%);fill-opacity:1;stroke-width:1;stroke-linecap:butt;stroke-linejoin:miter;stroke:rgb(0%,0%,0%);stroke-opacity:1;stroke-miterlimit:10;" d="M 1045.214844 116 C 1045.214844 127.714844 1035.714844 137.214844 1024 137.214844 C 1012.285156 137.214844 1002.785156 127.714844 1002.785156 116 C 1002.785156 104.285156 1012.285156 94.785156 1024 94.785156 C 1035.714844 94.785156 1045.214844 104.285156 1045.214844 116 "/>
<path style="fill-rule:nonzero;fill:rgb(100%,51%,0%);fill-opacity:1;stroke-width:1;stroke-linecap:butt;stroke-linejoin:miter;stroke:rgb(0%,0%,0%);stroke-opacity:1;stroke-miterlimit:10;" d="M 721.214844 215 C 721.214844 226.714844 711.714844 236.214844 700 236.214844 C 688.285156 236.214844 678.785156 226.714844 678.785156 215 C 678.785156 203.285156 688.285156 193.785156 700 193.785156 C 711.714844 193.785156 721.214844 203.285156 721.214844 215 "/>
</g>
</svg>
