<?xml version="1.0" encoding="UTF-8"?>
<svg xmlns="http://www.w3.org/2000/svg" xmlns:xlink="http://www.w3.org/1999/xlink" width="1179pt" height="517pt" viewBox="0 0 1179 517" version="1.1">
<g id="surface691">
<rect x="0" y="0" width="1179" height="517" style="fill:rgb(90%,90%,90%);fill-opacity:1;stroke:none;"/>
<path style="fill-rule:nonzero;fill:rgb(55%,51%,53%);fill-opacity:1;stroke-width:1;stroke-linecap:butt;stroke-linejoin:miter;stroke:rgb(0%,0%,0%);stroke-opacity:1;stroke-miterlimit:10;" d="M 197 432 L 226.664062 432 L 238.664062 403.785156 L 250.664062 432 L 280.332031 432 L 256.332031 449.4375 L 264.417969 480.980469 L 238.664062 463.542969 L 212.914062 480.980469 L 225.214844 449.4375 L 197 432 "/>
<path style="fill-rule:nonzero;fill:rgb(53%,27%,7%);fill-opacity:1;stroke-width:1;stroke-linecap:butt;stroke-linejoin:miter;stroke:rgb(0%,0%,0%);stroke-opacity:1;stroke-miterlimit:10;" d="M 166.214844 323 C 166.214844 334.714844 156.714844 344.214844 145 344.214844 C 133.285156 344.214844 123.785156 334.714844 123.785156 323 C 123.785156 311.285156 133.285156 301.785156 145 301.785156 C 156.714844 301.785156 166.214844 311.285156 166.214844 323 "/>
<path style="fill-rule:nonzero;fill:rgb(53%,27%,7%);fill-opacity:1;stroke-width:1;stroke-linecap:butt;stroke-linejoin:miter;stroke:rgb(0%,0%,0%);stroke-opacity:1;stroke-miterlimit:10;" d="M 376.214844 115 C 376.214844 126.714844 366.714844 136.214844 355 136.214844 C 343.285156 136.214844 333.785156 126.714844 333.785156 115 C 333.785156 103.285156 343.285156 93.785156 355 93.785156 C 366.714844 93.785156 376.214844 103.285156 376.214844 115 "/>
<path style="fill-rule:nonzero;fill:rgb(55%,51%,53%);fill-opacity:1;stroke-width:1;stroke-linecap:butt;stroke-linejoin:miter;stroke:rgb(0%,0%,0%);stroke-opacity:1;stroke-miterlimit:10;" d="M 344 368 L 373.664062 368 L 385.664062 339.785156 L 397.664062 368 L 427.332031 368 L 403.332031 385.4375 L 411.417969 416.980469 L 385.664062 399.542969 L 359.914062 416.980469 L 372.214844 385.4375 L 344 368 "/>
<path style="fill-rule:nonzero;fill:rgb(55%,51%,53%);fill-opacity:1;stroke-width:1;stroke-linecap:butt;stroke-linejoin:miter;stroke:rgb(0%,0%,0%);stroke-opacity:1;stroke-miterlimit:10;" d="M 222 215 L 251.664062 215 L 263.664062 186.785156 L 275.664062 215 L 305.332031 215 L 281.332031 232.4375 L 289.417969 263.980469 L 263.664062 246.542969 L 237.914062 263.980469 L 250.214844 232.4375 L 222 215 "/>
<path style="fill-rule:nonzero;fill:rgb(55%,51%,53%);fill-opacity:1;stroke-width:1;stroke-linecap:butt;stroke-linejoin:miter;stroke:rgb(0%,0%,0%);stroke-opacity:1;stroke-miterlimit:10;" d="M 165 94 L 194.664062 94 L 206.664062 65.785156 L 218.664062 94 L 248.332031 94 L 224.332031 111.4375 L 232.417969 142.980469 L 206.664062 125.542969 L 180.914062 142.980469 L 193.214844 111.4375 L 165 94 "/>
<path style="fill-rule:nonzero;fill:rgb(53%,27%,7%);fill-opacity:1;stroke-width:1;stroke-linecap:butt;stroke-linejoin:miter;stroke:rgb(0%,0%,0%);stroke-opacity:1;stroke-miterlimit:10;" d="M 415.214844 261 C 415.214844 272.714844 405.714844 282.214844 394 282.214844 C 382.285156 282.214844 372.785156 272.714844 372.785156 261 C 372.785156 249.285156 382.285156 239.785156 394 239.785156 C 405.714844 239.785156 415.214844 249.285156 415.214844 261 "/>
<path style="fill-rule:nonzero;fill:rgb(55%,51%,53%);fill-opacity:1;stroke-width:1;stroke-linecap:butt;stroke-linejoin:miter;stroke:rgb(0%,0%,0%);stroke-opacity:1;stroke-miterlimit:10;" d="M 736 224 L 765.664062 224 L 777.664062 195.785156 L 789.664062 224 L 819.332031 224 L 795.332031 241.4375 L 803.417969 272.980469 L 777.664062 255.542969 L 751.914062 272.980469 L 764.214844 241.4375 L 736 224 "/>
<path style="fill-rule:nonzero;fill:rgb(55%,51%,53%);fill-opacity:1;stroke-width:1;stroke-linecap:butt;stroke-linejoin:miter;stroke:rgb(0%,0%,0%);stroke-opacity:1;stroke-miterlimit:10;" d="M 861 237 L 890.664062 237 L 902.664062 208.785156 L 914.664062 237 L 944.332031 237 L 920.332031 254.4375 L 928.417969 285.980469 L 902.664062 268.542969 L 876.914062 285.980469 L 889.214844 254.4375 L 861 237 "/>
<path style="fill-rule:nonzero;fill:rgb(55%,51%,53%);fill-opacity:1;stroke-width:1;stroke-linecap:butt;stroke-linejoin:miter;stroke:rgb(0%,0%,0%);stroke-opacity:1;stroke-miterlimit:10;" d="M 699 345 L 728.664062 345 L 740.664062 316.785156 L 752.664062 345 L 782.332031 345 L 758.332031 362.4375 L 766.417969 393.980469 L 740.664062 376.542969 L 714.914062 393.980469 L 727.214844 362.4375 L 699 345 "/>
<path style="fill-rule:nonzero;fill:rgb(55%,51%,53%);fill-opacity:1;stroke-width:1;stroke-linecap:butt;stroke-linejoin:miter;stroke:rgb(0%,0%,0%);stroke-opacity:1;stroke-miterlimit:10;" d="M 879 138 L 908.664062 138 L 920.664062 109.785156 L 932.664062 138 L 962.332031 138 L 938.332031 155.4375 L 946.417969 186.980469 L 920.664062 169.542969 L 894.914062 186.980469 L 907.214844 155.4375 L 879 138 "/>
<path style="fill-rule:nonzero;fill:rgb(53%,27%,7%);fill-opacity:1;stroke-width:1;stroke-linecap:butt;stroke-linejoin:miter;stroke:rgb(0%,0%,0%);stroke-opacity:1;stroke-miterlimit:10;" d="M 1037.214844 157 C 1037.214844 168.714844 1027.714844 178.214844 1016 178.214844 C 1004.285156 178.214844 994.785156 168.714844 994.785156 157 C 994.785156 145.285156 1004.285156 135.785156 1016 135.785156 C 1027.714844 135.785156 1037.214844 145.285156 1037.214844 157 "/>
<path style="fill-rule:nonzero;fill:rgb(53%,27%,7%);fill-opacity:1;stroke-width:1;stroke-linecap:butt;stroke-linejoin:miter;stroke:rgb(0%,0%,0%);stroke-opacity:1;stroke-miterlimit:10;" d="M 742.214844 126 C 742.214844 137.714844 732.714844 147.214844 721 147.214844 C 709.285156 147.214844 699.785156 137.714844 699.785156 126 C 699.785156 114.285156 709.285156 104.785156 721 104.785156 C 732.714844 104.785156 742.214844 114.285156 742.214844 126 "/>
<path style="fill-rule:nonzero;fill:rgb(55%,51%,53%);fill-opacity:1;stroke-width:1;stroke-linecap:butt;stroke-linejoin:miter;stroke:rgb(0%,0%,0%);stroke-opacity:1;stroke-miterlimit:10;" d="M 807 334 L 836.664062 334 L 848.664062 305.785156 L 860.664062 334 L 890.332031 334 L 866.332031 351.4375 L 874.417969 382.980469 L 848.664062 365.542969 L 822.914062 382.980469 L 835.214844 351.4375 L 807 334 "/>
<path style="fill-rule:nonzero;fill:rgb(55%,51%,53%);fill-opacity:1;stroke-width:1;stroke-linecap:butt;stroke-linejoin:miter;stroke:rgb(0%,0%,0%);stroke-opacity:1;stroke-miterlimit:10;" d="M 1007 305 L 1036.664062 305 L 1048.664062 276.785156 L 1060.664062 305 L 1090.332031 305 L 1066.332031 322.4375 L 1074.417969 353.980469 L 1048.664062 336.542969 L 1022.914062 353.980469 L 1035.214844 322.4375 L 1007 305 "/>
</g>
</svg>
