<?xml version="1.0" encoding="UTF-8"?>
<svg xmlns="http://www.w3.org/2000/svg" xmlns:xlink="http://www.w3.org/1999/xlink" width="1179pt" height="517pt" viewBox="0 0 1179 517" version="1.1">
<g id="surface836">
<rect x="0" y="0" width="1179" height="517" style="fill:rgb(90%,90%,90%);fill-opacity:1;stroke:none;"/>
<path style="fill-rule:nonzero;fill:rgb(35%,70%,90%);fill-opacity:1;stroke-width:1;stroke-linecap:butt;stroke-linejoin:miter;stroke:rgb(0%,0%,0%);stroke-opacity:1;stroke-miterlimit:10;" d="M 125 381 L 154.664062 381 L 166.664062 352.785156 L 178.664062 381 L 208.332031 381 L 184.332031 398.4375 L 192.417969 429.980469 L 166.664062 412.542969 L 140.914062 429.980469 L 153.214844 398.4375 L 125 381 "/>
<path style="fill-rule:nonzero;fill:rgb(35%,70%,90%);fill-opacity:1;stroke-width:1;stroke-linecap:butt;stroke-linejoin:miter;stroke:rgb(0%,0%,0%);stroke-opacity:1;stroke-miterlimit:10;" d="M 182 176 L 211.664062 176 L 223.664062 147.785156 L 235.664062 176 L 265.332031 176 L 241.332031 193.4375 L 249.417969 224.980469 L 223.664062 207.542969 L 197.914062 224.980469 L 210.214844 193.4375 L 182 176 "/>
<path style="fill-rule:nonzero;fill:rgb(35%,70%,90%);fill-opacity:1;stroke-width:1;stroke-linecap:butt;stroke-linejoin:miter;stroke:rgb(0%,0%,0%);stroke-opacity:1;stroke-miterlimit:10;" d="M 330.214844 418 C 330.214844 429.714844 320.714844 439.214844 309 439.214844 C 297.285156 439.214844 287.785156 429.714844 287.785156 418 C 287.785156 406.285156 297.285156 396.785156 309 396.785156 C 320.714844 396.785156 330.214844 406.285156 330.214844 418 "/>
<path style="fill-rule:nonzero;fill:rgb(35%,70%,90%);fill-opacity:1;stroke-width:1;stroke-linecap:butt;stroke-linejoin:miter;stroke:rgb(0%,0%,0%);stroke-opacity:1;stroke-miterlimit:10;" d="M 353 154 L 382.664062 154 L 394.664062 125.785156 L 406.664062 154 L 436.332031 154 L 412.332031 171.4375 L 420.417969 202.980469 L 394.664062 185.542969 L 368.914062 202.980469 L 381.214844 171.4375 L 353 154 "/>
<path style="fill-rule:nonzero;fill:rgb(35%,70%,90%);fill-opacity:1;stroke-width:1;stroke-linecap:butt;stroke-linejoin:miter;stroke:rgb(0%,0%,0%);stroke-opacity:1;stroke-miterlimit:10;" d="M 296 304 L 325.664062 304 L 337.664062 275.785156 L 349.664062 304 L 379.332031 304 L 355.332031 321.4375 L 363.417969 352.980469 L 337.664062 335.542969 L 311.914062 352.980469 L 324.214844 321.4375 L 296 304 "/>
<path style="fill-rule:nonzero;fill:rgb(35%,70%,90%);fill-opacity:1;stroke-width:1;stroke-linecap:butt;stroke-linejoin:miter;stroke:rgb(0%,0%,0%);stroke-opacity:1;stroke-miterlimit:10;" d="M 410.214844 285 C 410.214844 296.714844 400.714844 306.214844 389 306.214844 C 377.285156 306.214844 367.785156 296.714844 367.785156 285 C 367.785156 273.285156 377.285156 263.785156 389 263.785156 C 400.714844 263.785156 410.214844 273.285156 410.214844 285 "/>
<path style="fill-rule:nonzero;fill:rgb(35%,70%,90%);fill-opacity:1;stroke-width:1;stroke-linecap:butt;stroke-linejoin:miter;stroke:rgb(0%,0%,0%);stroke-opacity:1;stroke-miterlimit:10;" d="M 1036.214844 82 C 1036.214844 93.714844 1026.714844 103.214844 1015 103.214844 C 1003.285156 103.214844 993.785156 93.714844 993.785156 82 C 993.785156 70.285156 1003.285156 60.785156 1015 60.785156 C 1026.714844 60.785156 1036.214844 70.285156 1036.214844 82 "/>
<path style="fill-rule:nonzero;fill:rgb(35%,70%,90%);fill-opacity:1;stroke-width:1;stroke-linecap:butt;stroke-linejoin:miter;stroke:rgb(0%,0%,0%);stroke-opacity:1;stroke-miterlimit:10;" d="M 789 358 L 818.664062 358 L 830.664062 329.785156 L 842.664062 358 L 872.332031 358 L 848.332031 375.4375 L 856.417969 406.980469 L 830.664062 389.542969 L 804.914062 406.980469 L 817.214844 375.4375 L 789 358 "/>
<path style="fill-rule:nonzero;fill:rgb(35%,70%,90%);fill-opacity:1;stroke-width:1;stroke-linecap:butt;stroke-linejoin:miter;stroke:rgb(0%,0%,0%);stroke-opacity:1;stroke-miterlimit:10;" d="M 1056.214844 400 C 1056.214844 411.714844 1046.714844 421.214844 1035 421.214844 C 1023.285156 421.214844 1013.785156 411.714844 1013.785156 400 C 1013.785156 388.285156 1023.285156 378.785156 1035 378.785156 C 1046.714844 378.785156 1056.214844 388.285156 1056.214844 400 "/>
<path style="fill-rule:nonzero;fill:rgb(35%,70%,90%);fill-opacity:1;stroke-width:1;stroke-linecap:butt;stroke-linejoin:miter;stroke:rgb(0%,0%,0%);stroke-opacity:1;stroke-miterlimit:10;" d="M 885 208 L 914.664062 208 L 926.664062 179.785156 L 938.664062 208 L 968.332031 208 L 944.332031 225.4375 L 952.417969 256.980469 L 926.664062 239.542969 L 900.914062 256.980469 L 913.214844 225.4375 L 885 208 "/>
<path style="fill-rule:nonzero;fill:rgb(35%,70%,90%);fill-opacity:1;stroke-width:1;stroke-linecap:butt;stroke-linejoin:miter;stroke:rgb(0%,0%,0%);stroke-opacity:1;stroke-miterlimit:10;" d="M 945.214844 401 C 945.214844 412.714844 935.714844 422.214844 924 422.214844 C 912.285156 422.214844 902.785156 412.714844 902.785156 401 C 902.785156 389.285156 912.285156 379.785156 924 379.785156 C 935.714844 379.785156 945.214844 389.285156 945.214844 401 "/>
</g>
</svg>
