<?xml version="1.0" encoding="UTF-8"?>
<svg xmlns="http://www.w3.org/2000/svg" xmlns:xlink="http://www.w3.org/1999/xlink" width="1129pt" height="517pt" viewBox="0 0 1129 517" version="1.1">
<g id="surface291">
<rect x="0" y="0" width="1129" height="517" style="fill:rgb(90%,90%,90%);fill-opacity:1;stroke:none;"/>
<path style="fill-rule:nonzero;fill:rgb(100%,51%,0%);fill-opacity:1;stroke-width:1;stroke-linecap:butt;stroke-linejoin:miter;stroke:rgb(0%,0%,0%);stroke-opacity:1;stroke-miterlimit:10;" d="M 162.214844 330 C 162.214844 341.714844 152.714844 351.214844 141 351.214844 C 129.285156 351.214844 119.785156 341.714844 119.785156 330 C 119.785156 318.285156 129.285156 308.785156 141 308.785156 C 152.714844 308.785156 162.214844 318.285156 162.214844 330 "/>
<path style="fill-rule:nonzero;fill:rgb(100%,51%,0%);fill-opacity:1;stroke-width:1;stroke-linecap:butt;stroke-linejoin:miter;stroke:rgb(0%,0%,0%);stroke-opacity:1;stroke-miterlimit:10;" d="M 394.214844 113 C 394.214844 124.714844 384.714844 134.214844 373 134.214844 C 361.285156 134.214844 351.785156 124.714844 351.785156 113 C 351.785156 101.285156 361.285156 91.785156 373 91.785156 C 384.714844 91.785156 394.214844 101.285156 394.214844 113 "/>
<path style="fill-rule:nonzero;fill:rgb(100%,51%,0%);fill-opacity:1;stroke-width:1;stroke-linecap:butt;stroke-linejoin:miter;stroke:rgb(0%,0%,0%);stroke-opacity:1;stroke-miterlimit:10;" d="M 104.785156 83.785156 L 104.785156 126.214844 L 147.214844 126.214844 L 147.214844 83.785156 L 104.785156 83.785156 "/>
<path style="fill-rule:nonzero;fill:rgb(100%,51%,0%);fill-opacity:1;stroke-width:1;stroke-linecap:butt;stroke-linejoin:miter;stroke:rgb(0%,0%,0%);stroke-opacity:1;stroke-miterlimit:10;" d="M 220.785156 100.785156 L 220.785156 143.214844 L 263.214844 143.214844 L 263.214844 100.785156 L 220.785156 100.785156 "/>
<path style="fill-rule:nonzero;fill:rgb(100%,51%,0%);fill-opacity:1;stroke-width:1;stroke-linecap:butt;stroke-linejoin:miter;stroke:rgb(0%,0%,0%);stroke-opacity:1;stroke-miterlimit:10;" d="M 474.214844 58 C 474.214844 69.714844 464.714844 79.214844 453 79.214844 C 441.285156 79.214844 431.785156 69.714844 431.785156 58 C 431.785156 46.285156 441.285156 36.785156 453 36.785156 C 464.714844 36.785156 474.214844 46.285156 474.214844 58 "/>
<path style="fill-rule:nonzero;fill:rgb(100%,51%,0%);fill-opacity:1;stroke-width:1;stroke-linecap:butt;stroke-linejoin:miter;stroke:rgb(0%,0%,0%);stroke-opacity:1;stroke-miterlimit:10;" d="M 468.214844 359 C 468.214844 370.714844 458.714844 380.214844 447 380.214844 C 435.285156 380.214844 425.785156 370.714844 425.785156 359 C 425.785156 347.285156 435.285156 337.785156 447 337.785156 C 458.714844 337.785156 468.214844 347.285156 468.214844 359 "/>
<path style="fill-rule:nonzero;fill:rgb(100%,51%,0%);fill-opacity:1;stroke-width:1;stroke-linecap:butt;stroke-linejoin:miter;stroke:rgb(0%,0%,0%);stroke-opacity:1;stroke-miterlimit:10;" d="M 337.214844 242 C 337.214844 253.714844 327.714844 263.214844 316 263.214844 C 304.285156 263.214844 294.785156 253.714844 294.785156 242 C 294.785156 230.285156 304.285156 220.785156 316 220.785156 C 327.714844 220.785156 337.214844 230.285156 337.214844 242 "/>
<path style="fill-rule:nonzero;fill:rgb(53%,27%,7%);fill-opacity:1;stroke-width:1;stroke-linecap:butt;stroke-linejoin:miter;stroke:rgb(0%,0%,0%);stroke-opacity:1;stroke-miterlimit:10;" d="M 717.785156 91.785156 L 717.785156 134.214844 L 760.214844 134.214844 L 760.214844 91.785156 L 717.785156 91.785156 "/>
<path style="fill-rule:nonzero;fill:rgb(53%,27%,7%);fill-opacity:1;stroke-width:1;stroke-linecap:butt;stroke-linejoin:miter;stroke:rgb(0%,0%,0%);stroke-opacity:1;stroke-miterlimit:10;" d="M 867.785156 340.785156 L 867.785156 383.214844 L 910.214844 383.214844 L 910.214844 340.785156 L 867.785156 340.785156 "/>
<path style="fill-rule:nonzero;fill:rgb(53%,27%,7%);fill-opacity:1;stroke-width:1;stroke-linecap:butt;stroke-linejoin:miter;stroke:rgb(0%,0%,0%);stroke-opacity:1;stroke-miterlimit:10;" d="M 893.214844 209 C 893.214844 220.714844 883.714844 230.214844 872 230.214844 C 860.285156 230.214844 850.785156 220.714844 850.785156 209 C 850.785156 197.285156 860.285156 187.785156 872 187.785156 C 883.714844 187.785156 893.214844 197.285156 893.214844 209 "/>
<path style="fill-rule:nonzero;fill:rgb(53%,27%,7%);fill-opacity:1;stroke-width:1;stroke-linecap:butt;stroke-linejoin:miter;stroke:rgb(0%,0%,0%);stroke-opacity:1;stroke-miterlimit:10;" d="M 935.214844 101 C 935.214844 112.714844 925.714844 122.214844 914 122.214844 C 902.285156 122.214844 892.785156 112.714844 892.785156 101 C 892.785156 89.285156 902.285156 79.785156 914 79.785156 C 925.714844 79.785156 935.214844 89.285156 935.214844 101 "/>
<path style="fill-rule:nonzero;fill:rgb(53%,27%,7%);fill-opacity:1;stroke-width:1;stroke-linecap:butt;stroke-linejoin:miter;stroke:rgb(0%,0%,0%);stroke-opacity:1;stroke-miterlimit:10;" d="M 746.785156 291.785156 L 746.785156 334.214844 L 789.214844 334.214844 L 789.214844 291.785156 L 746.785156 291.785156 "/>
</g>
</svg>
