<?xml version="1.0" encoding="UTF-8"?>
<svg xmlns="http://www.w3.org/2000/svg" xmlns:xlink="http://www.w3.org/1999/xlink" width="1129pt" height="517pt" viewBox="0 0 1129 517" version="1.1">
<g id="surface586">
<rect x="0" y="0" width="1129" height="517" style="fill:rgb(90%,90%,90%);fill-opacity:1;stroke:none;"/>
<path style="fill-rule:nonzero;fill:rgb(35%,70%,90%);fill-opacity:1;stroke-width:1;stroke-linecap:butt;stroke-linejoin:miter;stroke:rgb(0%,0%,0%);stroke-opacity:1;stroke-miterlimit:10;" d="M 412.214844 255 C 412.214844 266.714844 402.714844 276.214844 391 276.214844 C 379.285156 276.214844 369.785156 266.714844 369.785156 255 C 369.785156 243.285156 379.285156 233.785156 391 233.785156 C 402.714844 233.785156 412.214844 243.285156 412.214844 255 "/>
<path style="fill-rule:nonzero;fill:rgb(35%,70%,90%);fill-opacity:1;stroke-width:1;stroke-linecap:butt;stroke-linejoin:miter;stroke:rgb(0%,0%,0%);stroke-opacity:1;stroke-miterlimit:10;" d="M 100.214844 121 C 100.214844 132.714844 90.714844 142.214844 79 142.214844 C 67.285156 142.214844 57.785156 132.714844 57.785156 121 C 57.785156 109.285156 67.285156 99.785156 79 99.785156 C 90.714844 99.785156 100.214844 109.285156 100.214844 121 "/>
<path style="fill-rule:nonzero;fill:rgb(35%,70%,90%);fill-opacity:1;stroke-width:1;stroke-linecap:butt;stroke-linejoin:miter;stroke:rgb(0%,0%,0%);stroke-opacity:1;stroke-miterlimit:10;" d="M 194.214844 84 C 194.214844 95.714844 184.714844 105.214844 173 105.214844 C 161.285156 105.214844 151.785156 95.714844 151.785156 84 C 151.785156 72.285156 161.285156 62.785156 173 62.785156 C 184.714844 62.785156 194.214844 72.285156 194.214844 84 "/>
<path style="fill-rule:nonzero;fill:rgb(53%,27%,7%);fill-opacity:1;stroke-width:1;stroke-linecap:butt;stroke-linejoin:miter;stroke:rgb(0%,0%,0%);stroke-opacity:1;stroke-miterlimit:10;" d="M 176.214844 420 C 176.214844 431.714844 166.714844 441.214844 155 441.214844 C 143.285156 441.214844 133.785156 431.714844 133.785156 420 C 133.785156 408.285156 143.285156 398.785156 155 398.785156 C 166.714844 398.785156 176.214844 408.285156 176.214844 420 "/>
<path style="fill-rule:nonzero;fill:rgb(53%,27%,7%);fill-opacity:1;stroke-width:1;stroke-linecap:butt;stroke-linejoin:miter;stroke:rgb(0%,0%,0%);stroke-opacity:1;stroke-miterlimit:10;" d="M 939 63 L 913.019531 108 L 964.980469 108 L 939 63 "/>
<path style="fill-rule:nonzero;fill:rgb(53%,27%,7%);fill-opacity:1;stroke-width:1;stroke-linecap:butt;stroke-linejoin:miter;stroke:rgb(0%,0%,0%);stroke-opacity:1;stroke-miterlimit:10;" d="M 692 267 L 666.019531 312 L 717.980469 312 L 692 267 "/>
<path style="fill-rule:nonzero;fill:rgb(53%,27%,7%);fill-opacity:1;stroke-width:1;stroke-linecap:butt;stroke-linejoin:miter;stroke:rgb(0%,0%,0%);stroke-opacity:1;stroke-miterlimit:10;" d="M 777 43 L 751.019531 88 L 802.980469 88 L 777 43 "/>
<path style="fill-rule:nonzero;fill:rgb(35%,70%,90%);fill-opacity:1;stroke-width:1;stroke-linecap:butt;stroke-linejoin:miter;stroke:rgb(0%,0%,0%);stroke-opacity:1;stroke-miterlimit:10;" d="M 616 426 L 590.019531 471 L 641.980469 471 L 616 426 "/>
</g>
</svg>
