<?xml version="1.0" encoding="UTF-8"?>
<svg xmlns="http://www.w3.org/2000/svg" xmlns:xlink="http://www.w3.org/1999/xlink" width="1129pt" height="517pt" viewBox="0 0 1129 517" version="1.1">
<g id="surface811">
<rect x="0" y="0" width="1129" height="517" style="fill:rgb(90%,90%,90%);fill-opacity:1;stroke:none;"/>
<path style="fill-rule:nonzero;fill:rgb(53%,27%,7%);fill-opacity:1;stroke-width:1;stroke-linecap:butt;stroke-linejoin:miter;stroke:rgb(0%,0%,0%);stroke-opacity:1;stroke-miterlimit:10;" d="M 356 135.601562 C 356 121.199219 332 121.199219 332 135.601562 C 332 150 356 152.398438 356 164.398438 C 356 152.398438 380 150 380 135.601562 C 380 121.199219 356 121.199219 356 135.601562 "/>
<path style="fill-rule:nonzero;fill:rgb(53%,27%,7%);fill-opacity:1;stroke-width:1;stroke-linecap:butt;stroke-linejoin:miter;stroke:rgb(0%,0%,0%);stroke-opacity:1;stroke-miterlimit:10;" d="M 334 410.601562 C 334 396.199219 310 396.199219 310 410.601562 C 310 425 334 427.398438 334 439.398438 C 334 427.398438 358 425 358 410.601562 C 358 396.199219 334 396.199219 334 410.601562 "/>
<path style="fill-rule:nonzero;fill:rgb(53%,27%,7%);fill-opacity:1;stroke-width:1;stroke-linecap:butt;stroke-linejoin:miter;stroke:rgb(0%,0%,0%);stroke-opacity:1;stroke-miterlimit:10;" d="M 780 346.601562 C 780 332.199219 756 332.199219 756 346.601562 C 756 361 780 363.398438 780 375.398438 C 780 363.398438 804 361 804 346.601562 C 804 332.199219 780 332.199219 780 346.601562 "/>
<path style="fill-rule:nonzero;fill:rgb(53%,27%,7%);fill-opacity:1;stroke-width:1;stroke-linecap:butt;stroke-linejoin:miter;stroke:rgb(0%,0%,0%);stroke-opacity:1;stroke-miterlimit:10;" d="M 574 395.601562 C 574 381.199219 550 381.199219 550 395.601562 C 550 410 574 412.398438 574 424.398438 C 574 412.398438 598 410 598 395.601562 C 598 381.199219 574 381.199219 574 395.601562 "/>
<path style="fill-rule:nonzero;fill:rgb(53%,27%,7%);fill-opacity:1;stroke-width:1;stroke-linecap:butt;stroke-linejoin:miter;stroke:rgb(0%,0%,0%);stroke-opacity:1;stroke-miterlimit:10;" d="M 299 220.601562 C 299 206.199219 275 206.199219 275 220.601562 C 275 235 299 237.398438 299 249.398438 C 299 237.398438 323 235 323 220.601562 C 323 206.199219 299 206.199219 299 220.601562 "/>
<path style="fill-rule:nonzero;fill:rgb(100%,51%,0%);fill-opacity:1;stroke-width:1;stroke-linecap:butt;stroke-linejoin:miter;stroke:rgb(0%,0%,0%);stroke-opacity:1;stroke-miterlimit:10;" d="M 572.214844 292 C 572.214844 303.714844 562.714844 313.214844 551 313.214844 C 539.285156 313.214844 529.785156 303.714844 529.785156 292 C 529.785156 280.285156 539.285156 270.785156 551 270.785156 C 562.714844 270.785156 572.214844 280.285156 572.214844 292 "/>
<path style="fill-rule:nonzero;fill:rgb(100%,51%,0%);fill-opacity:1;stroke-width:1;stroke-linecap:butt;stroke-linejoin:miter;stroke:rgb(0%,0%,0%);stroke-opacity:1;stroke-miterlimit:10;" d="M 502.214844 438 C 502.214844 449.714844 492.714844 459.214844 481 459.214844 C 469.285156 459.214844 459.785156 449.714844 459.785156 438 C 459.785156 426.285156 469.285156 416.785156 481 416.785156 C 492.714844 416.785156 502.214844 426.285156 502.214844 438 "/>
<path style="fill-rule:nonzero;fill:rgb(100%,51%,0%);fill-opacity:1;stroke-width:1;stroke-linecap:butt;stroke-linejoin:miter;stroke:rgb(0%,0%,0%);stroke-opacity:1;stroke-miterlimit:10;" d="M 468.214844 273 C 468.214844 284.714844 458.714844 294.214844 447 294.214844 C 435.285156 294.214844 425.785156 284.714844 425.785156 273 C 425.785156 261.285156 435.285156 251.785156 447 251.785156 C 458.714844 251.785156 468.214844 261.285156 468.214844 273 "/>
<path style="fill-rule:nonzero;fill:rgb(100%,51%,0%);fill-opacity:1;stroke-width:1;stroke-linecap:butt;stroke-linejoin:miter;stroke:rgb(0%,0%,0%);stroke-opacity:1;stroke-miterlimit:10;" d="M 122.214844 228 C 122.214844 239.714844 112.714844 249.214844 101 249.214844 C 89.285156 249.214844 79.785156 239.714844 79.785156 228 C 79.785156 216.285156 89.285156 206.785156 101 206.785156 C 112.714844 206.785156 122.214844 216.285156 122.214844 228 "/>
<path style="fill-rule:nonzero;fill:rgb(100%,51%,0%);fill-opacity:1;stroke-width:1;stroke-linecap:butt;stroke-linejoin:miter;stroke:rgb(0%,0%,0%);stroke-opacity:1;stroke-miterlimit:10;" d="M 787.214844 121 C 787.214844 132.714844 777.714844 142.214844 766 142.214844 C 754.285156 142.214844 744.785156 132.714844 744.785156 121 C 744.785156 109.285156 754.285156 99.785156 766 99.785156 C 777.714844 99.785156 787.214844 109.285156 787.214844 121 "/>
<path style="fill-rule:nonzero;fill:rgb(100%,51%,0%);fill-opacity:1;stroke-width:1;stroke-linecap:butt;stroke-linejoin:miter;stroke:rgb(0%,0%,0%);stroke-opacity:1;stroke-miterlimit:10;" d="M 677.214844 141 C 677.214844 152.714844 667.714844 162.214844 656 162.214844 C 644.285156 162.214844 634.785156 152.714844 634.785156 141 C 634.785156 129.285156 644.285156 119.785156 656 119.785156 C 667.714844 119.785156 677.214844 129.285156 677.214844 141 "/>
<path style="fill-rule:nonzero;fill:rgb(100%,51%,0%);fill-opacity:1;stroke-width:1;stroke-linecap:butt;stroke-linejoin:miter;stroke:rgb(0%,0%,0%);stroke-opacity:1;stroke-miterlimit:10;" d="M 730.214844 245 C 730.214844 256.714844 720.714844 266.214844 709 266.214844 C 697.285156 266.214844 687.785156 256.714844 687.785156 245 C 687.785156 233.285156 697.285156 223.785156 709 223.785156 C 720.714844 223.785156 730.214844 233.285156 730.214844 245 "/>
<path style="fill-rule:nonzero;fill:rgb(100%,51%,0%);fill-opacity:1;stroke-width:1;stroke-linecap:butt;stroke-linejoin:miter;stroke:rgb(0%,0%,0%);stroke-opacity:1;stroke-miterlimit:10;" d="M 528.214844 111 C 528.214844 122.714844 518.714844 132.214844 507 132.214844 C 495.285156 132.214844 485.785156 122.714844 485.785156 111 C 485.785156 99.285156 495.285156 89.785156 507 89.785156 C 518.714844 89.785156 528.214844 99.285156 528.214844 111 "/>
</g>
</svg>
