<?xml version="1.0" encoding="UTF-8"?>
<svg xmlns="http://www.w3.org/2000/svg" xmlns:xlink="http://www.w3.org/1999/xlink" width="1179pt" height="517pt" viewBox="0 0 1179 517" version="1.1">
<g id="surface551">
<rect x="0" y="0" width="1179" height="517" style="fill:rgb(90%,90%,90%);fill-opacity:1;stroke:none;"/>
<path style="fill-rule:nonzero;fill:rgb(35%,70%,90%);fill-opacity:1;stroke-width:1;stroke-linecap:butt;stroke-linejoin:miter;stroke:rgb(0%,0%,0%);stroke-opacity:1;stroke-miterlimit:10;" d="M 400 161 L 429.664062 161 L 441.664062 132.785156 L 453.664062 161 L 483.332031 161 L 459.332031 178.4375 L 467.417969 209.980469 L 441.664062 192.542969 L 415.914062 209.980469 L 428.214844 178.4375 L 400 161 "/>
<path style="fill-rule:nonzero;fill:rgb(35%,70%,90%);fill-opacity:1;stroke-width:1;stroke-linecap:butt;stroke-linejoin:miter;stroke:rgb(0%,0%,0%);stroke-opacity:1;stroke-miterlimit:10;" d="M 289 422 L 318.664062 422 L 330.664062 393.785156 L 342.664062 422 L 372.332031 422 L 348.332031 439.4375 L 356.417969 470.980469 L 330.664062 453.542969 L 304.914062 470.980469 L 317.214844 439.4375 L 289 422 "/>
<path style="fill-rule:nonzero;fill:rgb(100%,51%,0%);fill-opacity:1;stroke-width:1;stroke-linecap:butt;stroke-linejoin:miter;stroke:rgb(0%,0%,0%);stroke-opacity:1;stroke-miterlimit:10;" d="M 327 325 L 356.664062 325 L 368.664062 296.785156 L 380.664062 325 L 410.332031 325 L 386.332031 342.4375 L 394.417969 373.980469 L 368.664062 356.542969 L 342.914062 373.980469 L 355.214844 342.4375 L 327 325 "/>
<path style="fill-rule:nonzero;fill:rgb(100%,51%,0%);fill-opacity:1;stroke-width:1;stroke-linecap:butt;stroke-linejoin:miter;stroke:rgb(0%,0%,0%);stroke-opacity:1;stroke-miterlimit:10;" d="M 281 186 L 310.664062 186 L 322.664062 157.785156 L 334.664062 186 L 364.332031 186 L 340.332031 203.4375 L 348.417969 234.980469 L 322.664062 217.542969 L 296.914062 234.980469 L 309.214844 203.4375 L 281 186 "/>
<path style="fill-rule:nonzero;fill:rgb(35%,70%,90%);fill-opacity:1;stroke-width:1;stroke-linecap:butt;stroke-linejoin:miter;stroke:rgb(0%,0%,0%);stroke-opacity:1;stroke-miterlimit:10;" d="M 151 94 L 180.664062 94 L 192.664062 65.785156 L 204.664062 94 L 234.332031 94 L 210.332031 111.4375 L 218.417969 142.980469 L 192.664062 125.542969 L 166.914062 142.980469 L 179.214844 111.4375 L 151 94 "/>
<path style="fill-rule:nonzero;fill:rgb(35%,70%,90%);fill-opacity:1;stroke-width:1;stroke-linecap:butt;stroke-linejoin:miter;stroke:rgb(0%,0%,0%);stroke-opacity:1;stroke-miterlimit:10;" d="M 97 387 L 126.664062 387 L 138.664062 358.785156 L 150.664062 387 L 180.332031 387 L 156.332031 404.4375 L 164.417969 435.980469 L 138.664062 418.542969 L 112.914062 435.980469 L 125.214844 404.4375 L 97 387 "/>
<path style="fill-rule:nonzero;fill:rgb(35%,70%,90%);fill-opacity:1;stroke-width:1;stroke-linecap:butt;stroke-linejoin:miter;stroke:rgb(0%,0%,0%);stroke-opacity:1;stroke-miterlimit:10;" d="M 215 334 L 244.664062 334 L 256.664062 305.785156 L 268.664062 334 L 298.332031 334 L 274.332031 351.4375 L 282.417969 382.980469 L 256.664062 365.542969 L 230.914062 382.980469 L 243.214844 351.4375 L 215 334 "/>
<path style="fill-rule:nonzero;fill:rgb(100%,51%,0%);fill-opacity:1;stroke-width:1;stroke-linecap:butt;stroke-linejoin:miter;stroke:rgb(0%,0%,0%);stroke-opacity:1;stroke-miterlimit:10;" d="M 840.785156 254.785156 L 840.785156 297.214844 L 883.214844 297.214844 L 883.214844 254.785156 L 840.785156 254.785156 "/>
<path style="fill-rule:nonzero;fill:rgb(100%,51%,0%);fill-opacity:1;stroke-width:1;stroke-linecap:butt;stroke-linejoin:miter;stroke:rgb(0%,0%,0%);stroke-opacity:1;stroke-miterlimit:10;" d="M 868.785156 83.785156 L 868.785156 126.214844 L 911.214844 126.214844 L 911.214844 83.785156 L 868.785156 83.785156 "/>
<path style="fill-rule:nonzero;fill:rgb(35%,70%,90%);fill-opacity:1;stroke-width:1;stroke-linecap:butt;stroke-linejoin:miter;stroke:rgb(0%,0%,0%);stroke-opacity:1;stroke-miterlimit:10;" d="M 757.785156 179.785156 L 757.785156 222.214844 L 800.214844 222.214844 L 800.214844 179.785156 L 757.785156 179.785156 "/>
<path style="fill-rule:nonzero;fill:rgb(35%,70%,90%);fill-opacity:1;stroke-width:1;stroke-linecap:butt;stroke-linejoin:miter;stroke:rgb(0%,0%,0%);stroke-opacity:1;stroke-miterlimit:10;" d="M 889.785156 343.785156 L 889.785156 386.214844 L 932.214844 386.214844 L 932.214844 343.785156 L 889.785156 343.785156 "/>
<path style="fill-rule:nonzero;fill:rgb(100%,51%,0%);fill-opacity:1;stroke-width:1;stroke-linecap:butt;stroke-linejoin:miter;stroke:rgb(0%,0%,0%);stroke-opacity:1;stroke-miterlimit:10;" d="M 685.785156 84.785156 L 685.785156 127.214844 L 728.214844 127.214844 L 728.214844 84.785156 L 685.785156 84.785156 "/>
<path style="fill-rule:nonzero;fill:rgb(100%,51%,0%);fill-opacity:1;stroke-width:1;stroke-linecap:butt;stroke-linejoin:miter;stroke:rgb(0%,0%,0%);stroke-opacity:1;stroke-miterlimit:10;" d="M 952.785156 276.785156 L 952.785156 319.214844 L 995.214844 319.214844 L 995.214844 276.785156 L 952.785156 276.785156 "/>
</g>
</svg>
