<?xml version="1.0" encoding="UTF-8"?>
<svg xmlns="http://www.w3.org/2000/svg" xmlns:xlink="http://www.w3.org/1999/xlink" width="1129pt" height="517pt" viewBox="0 0 1129 517" version="1.1">
<g id="surface936">
<rect x="0" y="0" width="1129" height="517" style="fill:rgb(90%,90%,90%);fill-opacity:1;stroke:none;"/>
<path style="fill-rule:nonzero;fill:rgb(100%,0%,0%);fill-opacity:1;stroke-width:1;stroke-linecap:butt;stroke-linejoin:miter;stroke:rgb(0%,0%,0%);stroke-opacity:1;stroke-miterlimit:10;" d="M 754 397.601562 C 754 383.199219 730 383.199219 730 397.601562 C 730 412 754 414.398438 754 426.398438 C 754 414.398438 778 412 778 397.601562 C 778 383.199219 754 383.199219 754 397.601562 "/>
<path style="fill-rule:nonzero;fill:rgb(100%,0%,0%);fill-opacity:1;stroke-width:1;stroke-linecap:butt;stroke-linejoin:miter;stroke:rgb(0%,0%,0%);stroke-opacity:1;stroke-miterlimit:10;" d="M 640 383.601562 C 640 369.199219 616 369.199219 616 383.601562 C 616 398 640 400.398438 640 412.398438 C 640 400.398438 664 398 664 383.601562 C 664 369.199219 640 369.199219 640 383.601562 "/>
<path style="fill-rule:nonzero;fill:rgb(100%,0%,0%);fill-opacity:1;stroke-width:1;stroke-linecap:butt;stroke-linejoin:miter;stroke:rgb(0%,0%,0%);stroke-opacity:1;stroke-miterlimit:10;" d="M 328 197.601562 C 328 183.199219 304 183.199219 304 197.601562 C 304 212 328 214.398438 328 226.398438 C 328 214.398438 352 212 352 197.601562 C 352 183.199219 328 183.199219 328 197.601562 "/>
<path style="fill-rule:nonzero;fill:rgb(100%,0%,0%);fill-opacity:1;stroke-width:1;stroke-linecap:butt;stroke-linejoin:miter;stroke:rgb(0%,0%,0%);stroke-opacity:1;stroke-miterlimit:10;" d="M 351 42.601562 C 351 28.199219 327 28.199219 327 42.601562 C 327 57 351 59.398438 351 71.398438 C 351 59.398438 375 57 375 42.601562 C 375 28.199219 351 28.199219 351 42.601562 "/>
<path style="fill-rule:nonzero;fill:rgb(100%,0%,0%);fill-opacity:1;stroke-width:1;stroke-linecap:butt;stroke-linejoin:miter;stroke:rgb(0%,0%,0%);stroke-opacity:1;stroke-miterlimit:10;" d="M 483 216.601562 C 483 202.199219 459 202.199219 459 216.601562 C 459 231 483 233.398438 483 245.398438 C 483 233.398438 507 231 507 216.601562 C 507 202.199219 483 202.199219 483 216.601562 "/>
<path style="fill-rule:nonzero;fill:rgb(0%,0%,0%);fill-opacity:1;stroke-width:1;stroke-linecap:butt;stroke-linejoin:miter;stroke:rgb(0%,0%,0%);stroke-opacity:1;stroke-miterlimit:10;" d="M 706 87 L 686 87 L 686 97 L 706 97 L 706 117 L 716 117 L 716 97 L 736 97 L 736 87 L 716 87 L 716 67 L 706 67 L 706 87 "/>
<path style="fill-rule:nonzero;fill:rgb(0%,0%,0%);fill-opacity:1;stroke-width:1;stroke-linecap:butt;stroke-linejoin:miter;stroke:rgb(0%,0%,0%);stroke-opacity:1;stroke-miterlimit:10;" d="M 141 454 L 121 454 L 121 464 L 141 464 L 141 484 L 151 484 L 151 464 L 171 464 L 171 454 L 151 454 L 151 434 L 141 434 L 141 454 "/>
<path style="fill-rule:nonzero;fill:rgb(0%,0%,0%);fill-opacity:1;stroke-width:1;stroke-linecap:butt;stroke-linejoin:miter;stroke:rgb(0%,0%,0%);stroke-opacity:1;stroke-miterlimit:10;" d="M 851 244 L 831 244 L 831 254 L 851 254 L 851 274 L 861 274 L 861 254 L 881 254 L 881 244 L 861 244 L 861 224 L 851 224 L 851 244 "/>
<path style="fill-rule:nonzero;fill:rgb(0%,0%,0%);fill-opacity:1;stroke-width:1;stroke-linecap:butt;stroke-linejoin:miter;stroke:rgb(0%,0%,0%);stroke-opacity:1;stroke-miterlimit:10;" d="M 821 67 L 801 67 L 801 77 L 821 77 L 821 97 L 831 97 L 831 77 L 851 77 L 851 67 L 831 67 L 831 47 L 821 47 L 821 67 "/>
<path style="fill-rule:nonzero;fill:rgb(0%,0%,0%);fill-opacity:1;stroke-width:1;stroke-linecap:butt;stroke-linejoin:miter;stroke:rgb(0%,0%,0%);stroke-opacity:1;stroke-miterlimit:10;" d="M 409 360 L 389 360 L 389 370 L 409 370 L 409 390 L 419 390 L 419 370 L 439 370 L 439 360 L 419 360 L 419 340 L 409 340 L 409 360 "/>
<path style="fill-rule:nonzero;fill:rgb(0%,0%,0%);fill-opacity:1;stroke-width:1;stroke-linecap:butt;stroke-linejoin:miter;stroke:rgb(0%,0%,0%);stroke-opacity:1;stroke-miterlimit:10;" d="M 583 240 L 563 240 L 563 250 L 583 250 L 583 270 L 593 270 L 593 250 L 613 250 L 613 240 L 593 240 L 593 220 L 583 220 L 583 240 "/>
</g>
</svg>
