<?xml version="1.0" encoding="UTF-8"?>
<svg xmlns="http://www.w3.org/2000/svg" xmlns:xlink="http://www.w3.org/1999/xlink" width="1129pt" height="517pt" viewBox="0 0 1129 517" version="1.1">
<g id="surface881">
<rect x="0" y="0" width="1129" height="517" style="fill:rgb(90%,90%,90%);fill-opacity:1;stroke:none;"/>
<path style="fill-rule:nonzero;fill:rgb(35%,70%,90%);fill-opacity:1;stroke-width:1;stroke-linecap:butt;stroke-linejoin:miter;stroke:rgb(0%,0%,0%);stroke-opacity:1;stroke-miterlimit:10;" d="M 436.214844 278 C 436.214844 289.714844 426.714844 299.214844 415 299.214844 C 403.285156 299.214844 393.785156 289.714844 393.785156 278 C 393.785156 266.285156 403.285156 256.785156 415 256.785156 C 426.714844 256.785156 436.214844 266.285156 436.214844 278 "/>
<path style="fill-rule:nonzero;fill:rgb(35%,70%,90%);fill-opacity:1;stroke-width:1;stroke-linecap:butt;stroke-linejoin:miter;stroke:rgb(0%,0%,0%);stroke-opacity:1;stroke-miterlimit:10;" d="M 575.214844 402 C 575.214844 413.714844 565.714844 423.214844 554 423.214844 C 542.285156 423.214844 532.785156 413.714844 532.785156 402 C 532.785156 390.285156 542.285156 380.785156 554 380.785156 C 565.714844 380.785156 575.214844 390.285156 575.214844 402 "/>
<path style="fill-rule:nonzero;fill:rgb(35%,70%,90%);fill-opacity:1;stroke-width:1;stroke-linecap:butt;stroke-linejoin:miter;stroke:rgb(0%,0%,0%);stroke-opacity:1;stroke-miterlimit:10;" d="M 497.214844 452 C 497.214844 463.714844 487.714844 473.214844 476 473.214844 C 464.285156 473.214844 454.785156 463.714844 454.785156 452 C 454.785156 440.285156 464.285156 430.785156 476 430.785156 C 487.714844 430.785156 497.214844 440.285156 497.214844 452 "/>
<path style="fill-rule:nonzero;fill:rgb(35%,70%,90%);fill-opacity:1;stroke-width:1;stroke-linecap:butt;stroke-linejoin:miter;stroke:rgb(0%,0%,0%);stroke-opacity:1;stroke-miterlimit:10;" d="M 304.214844 371 C 304.214844 382.714844 294.714844 392.214844 283 392.214844 C 271.285156 392.214844 261.785156 382.714844 261.785156 371 C 261.785156 359.285156 271.285156 349.785156 283 349.785156 C 294.714844 349.785156 304.214844 359.285156 304.214844 371 "/>
<path style="fill-rule:nonzero;fill:rgb(35%,70%,90%);fill-opacity:1;stroke-width:1;stroke-linecap:butt;stroke-linejoin:miter;stroke:rgb(0%,0%,0%);stroke-opacity:1;stroke-miterlimit:10;" d="M 182.214844 434 C 182.214844 445.714844 172.714844 455.214844 161 455.214844 C 149.285156 455.214844 139.785156 445.714844 139.785156 434 C 139.785156 422.285156 149.285156 412.785156 161 412.785156 C 172.714844 412.785156 182.214844 422.285156 182.214844 434 "/>
<path style="fill-rule:nonzero;fill:rgb(35%,70%,90%);fill-opacity:1;stroke-width:1;stroke-linecap:butt;stroke-linejoin:miter;stroke:rgb(0%,0%,0%);stroke-opacity:1;stroke-miterlimit:10;" d="M 82.214844 106 C 82.214844 117.714844 72.714844 127.214844 61 127.214844 C 49.285156 127.214844 39.785156 117.714844 39.785156 106 C 39.785156 94.285156 49.285156 84.785156 61 84.785156 C 72.714844 84.785156 82.214844 94.285156 82.214844 106 "/>
<path style="fill-rule:nonzero;fill:rgb(35%,70%,90%);fill-opacity:1;stroke-width:1;stroke-linecap:butt;stroke-linejoin:miter;stroke:rgb(0%,0%,0%);stroke-opacity:1;stroke-miterlimit:10;" d="M 890 64 L 919.664062 64 L 931.664062 35.785156 L 943.664062 64 L 973.332031 64 L 949.332031 81.4375 L 957.417969 112.980469 L 931.664062 95.542969 L 905.914062 112.980469 L 918.214844 81.4375 L 890 64 "/>
<path style="fill-rule:nonzero;fill:rgb(35%,70%,90%);fill-opacity:1;stroke-width:1;stroke-linecap:butt;stroke-linejoin:miter;stroke:rgb(0%,0%,0%);stroke-opacity:1;stroke-miterlimit:10;" d="M 698 195 L 727.664062 195 L 739.664062 166.785156 L 751.664062 195 L 781.332031 195 L 757.332031 212.4375 L 765.417969 243.980469 L 739.664062 226.542969 L 713.914062 243.980469 L 726.214844 212.4375 L 698 195 "/>
<path style="fill-rule:nonzero;fill:rgb(35%,70%,90%);fill-opacity:1;stroke-width:1;stroke-linecap:butt;stroke-linejoin:miter;stroke:rgb(0%,0%,0%);stroke-opacity:1;stroke-miterlimit:10;" d="M 575 150 L 604.664062 150 L 616.664062 121.785156 L 628.664062 150 L 658.332031 150 L 634.332031 167.4375 L 642.417969 198.980469 L 616.664062 181.542969 L 590.914062 198.980469 L 603.214844 167.4375 L 575 150 "/>
<path style="fill-rule:nonzero;fill:rgb(35%,70%,90%);fill-opacity:1;stroke-width:1;stroke-linecap:butt;stroke-linejoin:miter;stroke:rgb(0%,0%,0%);stroke-opacity:1;stroke-miterlimit:10;" d="M 653 84 L 682.664062 84 L 694.664062 55.785156 L 706.664062 84 L 736.332031 84 L 712.332031 101.4375 L 720.417969 132.980469 L 694.664062 115.542969 L 668.914062 132.980469 L 681.214844 101.4375 L 653 84 "/>
<path style="fill-rule:nonzero;fill:rgb(35%,70%,90%);fill-opacity:1;stroke-width:1;stroke-linecap:butt;stroke-linejoin:miter;stroke:rgb(0%,0%,0%);stroke-opacity:1;stroke-miterlimit:10;" d="M 809 409 L 838.664062 409 L 850.664062 380.785156 L 862.664062 409 L 892.332031 409 L 868.332031 426.4375 L 876.417969 457.980469 L 850.664062 440.542969 L 824.914062 457.980469 L 837.214844 426.4375 L 809 409 "/>
</g>
</svg>
