<?xml version="1.0" encoding="UTF-8"?>
<svg xmlns="http://www.w3.org/2000/svg" xmlns:xlink="http://www.w3.org/1999/xlink" width="1179pt" height="517pt" viewBox="0 0 1179 517" version="1.1">
<g id="surface901">
<rect x="0" y="0" width="1179" height="517" style="fill:rgb(90%,90%,90%);fill-opacity:1;stroke:none;"/>
<path style="fill-rule:nonzero;fill:rgb(53%,27%,7%);fill-opacity:1;stroke-width:1;stroke-linecap:butt;stroke-linejoin:miter;stroke:rgb(0%,0%,0%);stroke-opacity:1;stroke-miterlimit:10;" d="M 241 190.601562 C 241 176.199219 217 176.199219 217 190.601562 C 217 205 241 207.398438 241 219.398438 C 241 207.398438 265 205 265 190.601562 C 265 176.199219 241 176.199219 241 190.601562 "/>
<path style="fill-rule:nonzero;fill:rgb(53%,27%,7%);fill-opacity:1;stroke-width:1;stroke-linecap:butt;stroke-linejoin:miter;stroke:rgb(0%,0%,0%);stroke-opacity:1;stroke-miterlimit:10;" d="M 377 264.601562 C 377 250.199219 353 250.199219 353 264.601562 C 353 279 377 281.398438 377 293.398438 C 377 281.398438 401 279 401 264.601562 C 401 250.199219 377 250.199219 377 264.601562 "/>
<path style="fill-rule:nonzero;fill:rgb(53%,27%,7%);fill-opacity:1;stroke-width:1;stroke-linecap:butt;stroke-linejoin:miter;stroke:rgb(0%,0%,0%);stroke-opacity:1;stroke-miterlimit:10;" d="M 389 397.601562 C 389 383.199219 365 383.199219 365 397.601562 C 365 412 389 414.398438 389 426.398438 C 389 414.398438 413 412 413 397.601562 C 413 383.199219 389 383.199219 389 397.601562 "/>
<path style="fill-rule:nonzero;fill:rgb(53%,27%,7%);fill-opacity:1;stroke-width:1;stroke-linecap:butt;stroke-linejoin:miter;stroke:rgb(0%,0%,0%);stroke-opacity:1;stroke-miterlimit:10;" d="M 179 328.601562 C 179 314.199219 155 314.199219 155 328.601562 C 155 343 179 345.398438 179 357.398438 C 179 345.398438 203 343 203 328.601562 C 203 314.199219 179 314.199219 179 328.601562 "/>
<path style="fill-rule:nonzero;fill:rgb(53%,27%,7%);fill-opacity:1;stroke-width:1;stroke-linecap:butt;stroke-linejoin:miter;stroke:rgb(0%,0%,0%);stroke-opacity:1;stroke-miterlimit:10;" d="M 430 142.601562 C 430 128.199219 406 128.199219 406 142.601562 C 406 157 430 159.398438 430 171.398438 C 430 159.398438 454 157 454 142.601562 C 454 128.199219 430 128.199219 430 142.601562 "/>
<path style="fill-rule:nonzero;fill:rgb(100%,51%,0%);fill-opacity:1;stroke-width:1;stroke-linecap:butt;stroke-linejoin:miter;stroke:rgb(0%,0%,0%);stroke-opacity:1;stroke-miterlimit:10;" d="M 780.214844 184 C 780.214844 195.714844 770.714844 205.214844 759 205.214844 C 747.285156 205.214844 737.785156 195.714844 737.785156 184 C 737.785156 172.285156 747.285156 162.785156 759 162.785156 C 770.714844 162.785156 780.214844 172.285156 780.214844 184 "/>
<path style="fill-rule:nonzero;fill:rgb(100%,51%,0%);fill-opacity:1;stroke-width:1;stroke-linecap:butt;stroke-linejoin:miter;stroke:rgb(0%,0%,0%);stroke-opacity:1;stroke-miterlimit:10;" d="M 809.214844 91 C 809.214844 102.714844 799.714844 112.214844 788 112.214844 C 776.285156 112.214844 766.785156 102.714844 766.785156 91 C 766.785156 79.285156 776.285156 69.785156 788 69.785156 C 799.714844 69.785156 809.214844 79.285156 809.214844 91 "/>
<path style="fill-rule:nonzero;fill:rgb(53%,27%,7%);fill-opacity:1;stroke-width:1;stroke-linecap:butt;stroke-linejoin:miter;stroke:rgb(0%,0%,0%);stroke-opacity:1;stroke-miterlimit:10;" d="M 725 262.601562 C 725 248.199219 701 248.199219 701 262.601562 C 701 277 725 279.398438 725 291.398438 C 725 279.398438 749 277 749 262.601562 C 749 248.199219 725 248.199219 725 262.601562 "/>
<path style="fill-rule:nonzero;fill:rgb(53%,27%,7%);fill-opacity:1;stroke-width:1;stroke-linecap:butt;stroke-linejoin:miter;stroke:rgb(0%,0%,0%);stroke-opacity:1;stroke-miterlimit:10;" d="M 1017 242.601562 C 1017 228.199219 993 228.199219 993 242.601562 C 993 257 1017 259.398438 1017 271.398438 C 1017 259.398438 1041 257 1041 242.601562 C 1041 228.199219 1017 228.199219 1017 242.601562 "/>
<path style="fill-rule:nonzero;fill:rgb(100%,51%,0%);fill-opacity:1;stroke-width:1;stroke-linecap:butt;stroke-linejoin:miter;stroke:rgb(0%,0%,0%);stroke-opacity:1;stroke-miterlimit:10;" d="M 1003.214844 111 C 1003.214844 122.714844 993.714844 132.214844 982 132.214844 C 970.285156 132.214844 960.785156 122.714844 960.785156 111 C 960.785156 99.285156 970.285156 89.785156 982 89.785156 C 993.714844 89.785156 1003.214844 99.285156 1003.214844 111 "/>
<path style="fill-rule:nonzero;fill:rgb(53%,27%,7%);fill-opacity:1;stroke-width:1;stroke-linecap:butt;stroke-linejoin:miter;stroke:rgb(0%,0%,0%);stroke-opacity:1;stroke-miterlimit:10;" d="M 984 392.601562 C 984 378.199219 960 378.199219 960 392.601562 C 960 407 984 409.398438 984 421.398438 C 984 409.398438 1008 407 1008 392.601562 C 1008 378.199219 984 378.199219 984 392.601562 "/>
<path style="fill-rule:nonzero;fill:rgb(53%,27%,7%);fill-opacity:1;stroke-width:1;stroke-linecap:butt;stroke-linejoin:miter;stroke:rgb(0%,0%,0%);stroke-opacity:1;stroke-miterlimit:10;" d="M 810 383.601562 C 810 369.199219 786 369.199219 786 383.601562 C 786 398 810 400.398438 810 412.398438 C 810 400.398438 834 398 834 383.601562 C 834 369.199219 810 369.199219 810 383.601562 "/>
<path style="fill-rule:nonzero;fill:rgb(100%,51%,0%);fill-opacity:1;stroke-width:1;stroke-linecap:butt;stroke-linejoin:miter;stroke:rgb(0%,0%,0%);stroke-opacity:1;stroke-miterlimit:10;" d="M 911.214844 228 C 911.214844 239.714844 901.714844 249.214844 890 249.214844 C 878.285156 249.214844 868.785156 239.714844 868.785156 228 C 868.785156 216.285156 878.285156 206.785156 890 206.785156 C 901.714844 206.785156 911.214844 216.285156 911.214844 228 "/>
</g>
</svg>
