<?xml version="1.0" encoding="UTF-8"?>
<svg xmlns="http://www.w3.org/2000/svg" xmlns:xlink="http://www.w3.org/1999/xlink" width="1129pt" height="517pt" viewBox="0 0 1129 517" version="1.1">
<g id="surface141">
<rect x="0" y="0" width="1129" height="517" style="fill:rgb(90%,90%,90%);fill-opacity:1;stroke:none;"/>
<path style="fill-rule:nonzero;fill:rgb(100%,51%,0%);fill-opacity:1;stroke-width:1;stroke-linecap:butt;stroke-linejoin:miter;stroke:rgb(0%,0%,0%);stroke-opacity:1;stroke-miterlimit:10;" d="M 362.214844 391 C 362.214844 402.714844 352.714844 412.214844 341 412.214844 C 329.285156 412.214844 319.785156 402.714844 319.785156 391 C 319.785156 379.285156 329.285156 369.785156 341 369.785156 C 352.714844 369.785156 362.214844 379.285156 362.214844 391 "/>
<path style="fill-rule:nonzero;fill:rgb(55%,51%,53%);fill-opacity:1;stroke-width:1;stroke-linecap:butt;stroke-linejoin:miter;stroke:rgb(0%,0%,0%);stroke-opacity:1;stroke-miterlimit:10;" d="M 149.214844 105 C 149.214844 116.714844 139.714844 126.214844 128 126.214844 C 116.285156 126.214844 106.785156 116.714844 106.785156 105 C 106.785156 93.285156 116.285156 83.785156 128 83.785156 C 139.714844 83.785156 149.214844 93.285156 149.214844 105 "/>
<path style="fill-rule:nonzero;fill:rgb(55%,51%,53%);fill-opacity:1;stroke-width:1;stroke-linecap:butt;stroke-linejoin:miter;stroke:rgb(0%,0%,0%);stroke-opacity:1;stroke-miterlimit:10;" d="M 288.214844 245 C 288.214844 256.714844 278.714844 266.214844 267 266.214844 C 255.285156 266.214844 245.785156 256.714844 245.785156 245 C 245.785156 233.285156 255.285156 223.785156 267 223.785156 C 278.714844 223.785156 288.214844 233.285156 288.214844 245 "/>
<path style="fill-rule:nonzero;fill:rgb(100%,51%,0%);fill-opacity:1;stroke-width:1;stroke-linecap:butt;stroke-linejoin:miter;stroke:rgb(0%,0%,0%);stroke-opacity:1;stroke-miterlimit:10;" d="M 79.214844 355 C 79.214844 366.714844 69.714844 376.214844 58 376.214844 C 46.285156 376.214844 36.785156 366.714844 36.785156 355 C 36.785156 343.285156 46.285156 333.785156 58 333.785156 C 69.714844 333.785156 79.214844 343.285156 79.214844 355 "/>
<path style="fill-rule:nonzero;fill:rgb(100%,51%,0%);fill-opacity:1;stroke-width:1;stroke-linecap:butt;stroke-linejoin:miter;stroke:rgb(0%,0%,0%);stroke-opacity:1;stroke-miterlimit:10;" d="M 187.214844 269 C 187.214844 280.714844 177.714844 290.214844 166 290.214844 C 154.285156 290.214844 144.785156 280.714844 144.785156 269 C 144.785156 257.285156 154.285156 247.785156 166 247.785156 C 177.714844 247.785156 187.214844 257.285156 187.214844 269 "/>
<path style="fill-rule:nonzero;fill:rgb(55%,51%,53%);fill-opacity:1;stroke-width:1;stroke-linecap:butt;stroke-linejoin:miter;stroke:rgb(0%,0%,0%);stroke-opacity:1;stroke-miterlimit:10;" d="M 963.785156 385.785156 L 963.785156 428.214844 L 1006.214844 428.214844 L 1006.214844 385.785156 L 963.785156 385.785156 "/>
<path style="fill-rule:nonzero;fill:rgb(100%,51%,0%);fill-opacity:1;stroke-width:1;stroke-linecap:butt;stroke-linejoin:miter;stroke:rgb(0%,0%,0%);stroke-opacity:1;stroke-miterlimit:10;" d="M 671.785156 58.785156 L 671.785156 101.214844 L 714.214844 101.214844 L 714.214844 58.785156 L 671.785156 58.785156 "/>
<path style="fill-rule:nonzero;fill:rgb(100%,51%,0%);fill-opacity:1;stroke-width:1;stroke-linecap:butt;stroke-linejoin:miter;stroke:rgb(0%,0%,0%);stroke-opacity:1;stroke-miterlimit:10;" d="M 878.785156 87.785156 L 878.785156 130.214844 L 921.214844 130.214844 L 921.214844 87.785156 L 878.785156 87.785156 "/>
<path style="fill-rule:nonzero;fill:rgb(55%,51%,53%);fill-opacity:1;stroke-width:1;stroke-linecap:butt;stroke-linejoin:miter;stroke:rgb(0%,0%,0%);stroke-opacity:1;stroke-miterlimit:10;" d="M 744.785156 333.785156 L 744.785156 376.214844 L 787.214844 376.214844 L 787.214844 333.785156 L 744.785156 333.785156 "/>
</g>
</svg>
