<?xml version="1.0" encoding="UTF-8"?>
<svg xmlns="http://www.w3.org/2000/svg" xmlns:xlink="http://www.w3.org/1999/xlink" width="1129pt" height="517pt" viewBox="0 0 1129 517" version="1.1">
<g id="surface706">
<rect x="0" y="0" width="1129" height="517" style="fill:rgb(90%,90%,90%);fill-opacity:1;stroke:none;"/>
<path style="fill-rule:nonzero;fill:rgb(55%,51%,53%);fill-opacity:1;stroke-width:1;stroke-linecap:butt;stroke-linejoin:miter;stroke:rgb(0%,0%,0%);stroke-opacity:1;stroke-miterlimit:10;" d="M 370.214844 390 C 370.214844 401.714844 360.714844 411.214844 349 411.214844 C 337.285156 411.214844 327.785156 401.714844 327.785156 390 C 327.785156 378.285156 337.285156 368.785156 349 368.785156 C 360.714844 368.785156 370.214844 378.285156 370.214844 390 "/>
<path style="fill-rule:nonzero;fill:rgb(53%,27%,7%);fill-opacity:1;stroke-width:1;stroke-linecap:butt;stroke-linejoin:miter;stroke:rgb(0%,0%,0%);stroke-opacity:1;stroke-miterlimit:10;" d="M 433.214844 166 C 433.214844 177.714844 423.714844 187.214844 412 187.214844 C 400.285156 187.214844 390.785156 177.714844 390.785156 166 C 390.785156 154.285156 400.285156 144.785156 412 144.785156 C 423.714844 144.785156 433.214844 154.285156 433.214844 166 "/>
<path style="fill-rule:nonzero;fill:rgb(53%,27%,7%);fill-opacity:1;stroke-width:1;stroke-linecap:butt;stroke-linejoin:miter;stroke:rgb(0%,0%,0%);stroke-opacity:1;stroke-miterlimit:10;" d="M 351.214844 273 C 351.214844 284.714844 341.714844 294.214844 330 294.214844 C 318.285156 294.214844 308.785156 284.714844 308.785156 273 C 308.785156 261.285156 318.285156 251.785156 330 251.785156 C 341.714844 251.785156 351.214844 261.285156 351.214844 273 "/>
<path style="fill-rule:nonzero;fill:rgb(55%,51%,53%);fill-opacity:1;stroke-width:1;stroke-linecap:butt;stroke-linejoin:miter;stroke:rgb(0%,0%,0%);stroke-opacity:1;stroke-miterlimit:10;" d="M 163.214844 151 C 163.214844 162.714844 153.714844 172.214844 142 172.214844 C 130.285156 172.214844 120.785156 162.714844 120.785156 151 C 120.785156 139.285156 130.285156 129.785156 142 129.785156 C 153.714844 129.785156 163.214844 139.285156 163.214844 151 "/>
<path style="fill-rule:nonzero;fill:rgb(53%,27%,7%);fill-opacity:1;stroke-width:1;stroke-linecap:butt;stroke-linejoin:miter;stroke:rgb(0%,0%,0%);stroke-opacity:1;stroke-miterlimit:10;" d="M 722 44 L 696.019531 89 L 747.980469 89 L 722 44 "/>
<path style="fill-rule:nonzero;fill:rgb(55%,51%,53%);fill-opacity:1;stroke-width:1;stroke-linecap:butt;stroke-linejoin:miter;stroke:rgb(0%,0%,0%);stroke-opacity:1;stroke-miterlimit:10;" d="M 731 137 L 705.019531 182 L 756.980469 182 L 731 137 "/>
<path style="fill-rule:nonzero;fill:rgb(55%,51%,53%);fill-opacity:1;stroke-width:1;stroke-linecap:butt;stroke-linejoin:miter;stroke:rgb(0%,0%,0%);stroke-opacity:1;stroke-miterlimit:10;" d="M 983 124 L 957.019531 169 L 1008.980469 169 L 983 124 "/>
<path style="fill-rule:nonzero;fill:rgb(53%,27%,7%);fill-opacity:1;stroke-width:1;stroke-linecap:butt;stroke-linejoin:miter;stroke:rgb(0%,0%,0%);stroke-opacity:1;stroke-miterlimit:10;" d="M 811 234 L 785.019531 279 L 836.980469 279 L 811 234 "/>
<path style="fill-rule:nonzero;fill:rgb(53%,27%,7%);fill-opacity:1;stroke-width:1;stroke-linecap:butt;stroke-linejoin:miter;stroke:rgb(0%,0%,0%);stroke-opacity:1;stroke-miterlimit:10;" d="M 623 429 L 597.019531 474 L 648.980469 474 L 623 429 "/>
</g>
</svg>
