<?xml version="1.0" encoding="UTF-8"?>
<svg xmlns="http://www.w3.org/2000/svg" xmlns:xlink="http://www.w3.org/1999/xlink" width="1129pt" height="517pt" viewBox="0 0 1129 517" version="1.1">
<g id="surface36">
<rect x="0" y="0" width="1129" height="517" style="fill:rgb(90%,90%,90%);fill-opacity:1;stroke:none;"/>
<path style="fill-rule:nonzero;fill:rgb(35%,70%,90%);fill-opacity:1;stroke-width:1;stroke-linecap:butt;stroke-linejoin:miter;stroke:rgb(0%,0%,0%);stroke-opacity:1;stroke-miterlimit:10;" d="M 385 120 L 414.664062 120 L 426.664062 91.785156 L 438.664062 120 L 468.332031 120 L 444.332031 137.4375 L 452.417969 168.980469 L 426.664062 151.542969 L 400.914062 168.980469 L 413.214844 137.4375 L 385 120 "/>
<path style="fill-rule:nonzero;fill:rgb(35%,70%,90%);fill-opacity:1;stroke-width:1;stroke-linecap:butt;stroke-linejoin:miter;stroke:rgb(0%,0%,0%);stroke-opacity:1;stroke-miterlimit:10;" d="M 771 282 L 800.664062 282 L 812.664062 253.785156 L 824.664062 282 L 854.332031 282 L 830.332031 299.4375 L 838.417969 330.980469 L 812.664062 313.542969 L 786.914062 330.980469 L 799.214844 299.4375 L 771 282 "/>
<path style="fill-rule:nonzero;fill:rgb(35%,70%,90%);fill-opacity:1;stroke-width:1;stroke-linecap:butt;stroke-linejoin:miter;stroke:rgb(0%,0%,0%);stroke-opacity:1;stroke-miterlimit:10;" d="M 829 445 L 858.664062 445 L 870.664062 416.785156 L 882.664062 445 L 912.332031 445 L 888.332031 462.4375 L 896.417969 493.980469 L 870.664062 476.542969 L 844.914062 493.980469 L 857.214844 462.4375 L 829 445 "/>
<path style="fill-rule:nonzero;fill:rgb(35%,70%,90%);fill-opacity:1;stroke-width:1;stroke-linecap:butt;stroke-linejoin:miter;stroke:rgb(0%,0%,0%);stroke-opacity:1;stroke-miterlimit:10;" d="M 163 367 L 192.664062 367 L 204.664062 338.785156 L 216.664062 367 L 246.332031 367 L 222.332031 384.4375 L 230.417969 415.980469 L 204.664062 398.542969 L 178.914062 415.980469 L 191.214844 384.4375 L 163 367 "/>
<path style="fill-rule:nonzero;fill:rgb(35%,70%,90%);fill-opacity:1;stroke-width:1;stroke-linecap:butt;stroke-linejoin:miter;stroke:rgb(0%,0%,0%);stroke-opacity:1;stroke-miterlimit:10;" d="M 874 330 L 903.664062 330 L 915.664062 301.785156 L 927.664062 330 L 957.332031 330 L 933.332031 347.4375 L 941.417969 378.980469 L 915.664062 361.542969 L 889.914062 378.980469 L 902.214844 347.4375 L 874 330 "/>
<path style="fill-rule:nonzero;fill:rgb(35%,70%,90%);fill-opacity:1;stroke-width:1;stroke-linecap:butt;stroke-linejoin:miter;stroke:rgb(0%,0%,0%);stroke-opacity:1;stroke-miterlimit:10;" d="M 736 88 L 765.664062 88 L 777.664062 59.785156 L 789.664062 88 L 819.332031 88 L 795.332031 105.4375 L 803.417969 136.980469 L 777.664062 119.542969 L 751.914062 136.980469 L 764.214844 105.4375 L 736 88 "/>
<path style="fill-rule:nonzero;fill:rgb(53%,27%,7%);fill-opacity:1;stroke-width:1;stroke-linecap:butt;stroke-linejoin:miter;stroke:rgb(0%,0%,0%);stroke-opacity:1;stroke-miterlimit:10;" d="M 400 317 L 374.019531 362 L 425.980469 362 L 400 317 "/>
<path style="fill-rule:nonzero;fill:rgb(53%,27%,7%);fill-opacity:1;stroke-width:1;stroke-linecap:butt;stroke-linejoin:miter;stroke:rgb(0%,0%,0%);stroke-opacity:1;stroke-miterlimit:10;" d="M 267 128 L 241.019531 173 L 292.980469 173 L 267 128 "/>
<path style="fill-rule:nonzero;fill:rgb(53%,27%,7%);fill-opacity:1;stroke-width:1;stroke-linecap:butt;stroke-linejoin:miter;stroke:rgb(0%,0%,0%);stroke-opacity:1;stroke-miterlimit:10;" d="M 642 91 L 616.019531 136 L 667.980469 136 L 642 91 "/>
<path style="fill-rule:nonzero;fill:rgb(53%,27%,7%);fill-opacity:1;stroke-width:1;stroke-linecap:butt;stroke-linejoin:miter;stroke:rgb(0%,0%,0%);stroke-opacity:1;stroke-miterlimit:10;" d="M 52 362 L 26.019531 407 L 77.980469 407 L 52 362 "/>
<path style="fill-rule:nonzero;fill:rgb(53%,27%,7%);fill-opacity:1;stroke-width:1;stroke-linecap:butt;stroke-linejoin:miter;stroke:rgb(0%,0%,0%);stroke-opacity:1;stroke-miterlimit:10;" d="M 703 322 L 677.019531 367 L 728.980469 367 L 703 322 "/>
<path style="fill-rule:nonzero;fill:rgb(53%,27%,7%);fill-opacity:1;stroke-width:1;stroke-linecap:butt;stroke-linejoin:miter;stroke:rgb(0%,0%,0%);stroke-opacity:1;stroke-miterlimit:10;" d="M 74 84 L 48.019531 129 L 99.980469 129 L 74 84 "/>
<path style="fill-rule:nonzero;fill:rgb(53%,27%,7%);fill-opacity:1;stroke-width:1;stroke-linecap:butt;stroke-linejoin:miter;stroke:rgb(0%,0%,0%);stroke-opacity:1;stroke-miterlimit:10;" d="M 269 268 L 243.019531 313 L 294.980469 313 L 269 268 "/>
</g>
</svg>
