<?xml version="1.0" encoding="UTF-8"?>
<svg xmlns="http://www.w3.org/2000/svg" xmlns:xlink="http://www.w3.org/1999/xlink" width="1129pt" height="517pt" viewBox="0 0 1129 517" version="1.1">
<g id="surface241">
<rect x="0" y="0" width="1129" height="517" style="fill:rgb(90%,90%,90%);fill-opacity:1;stroke:none;"/>
<path style="fill-rule:nonzero;fill:rgb(35%,70%,90%);fill-opacity:1;stroke-width:1;stroke-linecap:butt;stroke-linejoin:miter;stroke:rgb(0%,0%,0%);stroke-opacity:1;stroke-miterlimit:10;" d="M 673 174 L 702.664062 174 L 714.664062 145.785156 L 726.664062 174 L 756.332031 174 L 732.332031 191.4375 L 740.417969 222.980469 L 714.664062 205.542969 L 688.914062 222.980469 L 701.214844 191.4375 L 673 174 "/>
<path style="fill-rule:nonzero;fill:rgb(35%,70%,90%);fill-opacity:1;stroke-width:1;stroke-linecap:butt;stroke-linejoin:miter;stroke:rgb(0%,0%,0%);stroke-opacity:1;stroke-miterlimit:10;" d="M 614 101 L 643.664062 101 L 655.664062 72.785156 L 667.664062 101 L 697.332031 101 L 673.332031 118.4375 L 681.417969 149.980469 L 655.664062 132.542969 L 629.914062 149.980469 L 642.214844 118.4375 L 614 101 "/>
<path style="fill-rule:nonzero;fill:rgb(35%,70%,90%);fill-opacity:1;stroke-width:1;stroke-linecap:butt;stroke-linejoin:miter;stroke:rgb(0%,0%,0%);stroke-opacity:1;stroke-miterlimit:10;" d="M 165 203 L 194.664062 203 L 206.664062 174.785156 L 218.664062 203 L 248.332031 203 L 224.332031 220.4375 L 232.417969 251.980469 L 206.664062 234.542969 L 180.914062 251.980469 L 193.214844 220.4375 L 165 203 "/>
<path style="fill-rule:nonzero;fill:rgb(35%,70%,90%);fill-opacity:1;stroke-width:1;stroke-linecap:butt;stroke-linejoin:miter;stroke:rgb(0%,0%,0%);stroke-opacity:1;stroke-miterlimit:10;" d="M 914 366 L 943.664062 366 L 955.664062 337.785156 L 967.664062 366 L 997.332031 366 L 973.332031 383.4375 L 981.417969 414.980469 L 955.664062 397.542969 L 929.914062 414.980469 L 942.214844 383.4375 L 914 366 "/>
<path style="fill-rule:nonzero;fill:rgb(55%,51%,53%);fill-opacity:1;stroke-width:1;stroke-linecap:butt;stroke-linejoin:miter;stroke:rgb(0%,0%,0%);stroke-opacity:1;stroke-miterlimit:10;" d="M 507.214844 175 C 507.214844 186.714844 497.714844 196.214844 486 196.214844 C 474.285156 196.214844 464.785156 186.714844 464.785156 175 C 464.785156 163.285156 474.285156 153.785156 486 153.785156 C 497.714844 153.785156 507.214844 163.285156 507.214844 175 "/>
<path style="fill-rule:nonzero;fill:rgb(55%,51%,53%);fill-opacity:1;stroke-width:1;stroke-linecap:butt;stroke-linejoin:miter;stroke:rgb(0%,0%,0%);stroke-opacity:1;stroke-miterlimit:10;" d="M 427.214844 272 C 427.214844 283.714844 417.714844 293.214844 406 293.214844 C 394.285156 293.214844 384.785156 283.714844 384.785156 272 C 384.785156 260.285156 394.285156 250.785156 406 250.785156 C 417.714844 250.785156 427.214844 260.285156 427.214844 272 "/>
<path style="fill-rule:nonzero;fill:rgb(55%,51%,53%);fill-opacity:1;stroke-width:1;stroke-linecap:butt;stroke-linejoin:miter;stroke:rgb(0%,0%,0%);stroke-opacity:1;stroke-miterlimit:10;" d="M 789.214844 77 C 789.214844 88.714844 779.714844 98.214844 768 98.214844 C 756.285156 98.214844 746.785156 88.714844 746.785156 77 C 746.785156 65.285156 756.285156 55.785156 768 55.785156 C 779.714844 55.785156 789.214844 65.285156 789.214844 77 "/>
<path style="fill-rule:nonzero;fill:rgb(55%,51%,53%);fill-opacity:1;stroke-width:1;stroke-linecap:butt;stroke-linejoin:miter;stroke:rgb(0%,0%,0%);stroke-opacity:1;stroke-miterlimit:10;" d="M 384.214844 116 C 384.214844 127.714844 374.714844 137.214844 363 137.214844 C 351.285156 137.214844 341.785156 127.714844 341.785156 116 C 341.785156 104.285156 351.285156 94.785156 363 94.785156 C 374.714844 94.785156 384.214844 104.285156 384.214844 116 "/>
</g>
</svg>
