<?xml version="1.0" encoding="UTF-8"?>
<svg xmlns="http://www.w3.org/2000/svg" xmlns:xlink="http://www.w3.org/1999/xlink" width="1129pt" height="517pt" viewBox="0 0 1129 517" version="1.1">
<g id="surface921">
<rect x="0" y="0" width="1129" height="517" style="fill:rgb(90%,90%,90%);fill-opacity:1;stroke:none;"/>
<path style="fill-rule:nonzero;fill:rgb(100%,51%,0%);fill-opacity:1;stroke-width:1;stroke-linecap:butt;stroke-linejoin:miter;stroke:rgb(0%,0%,0%);stroke-opacity:1;stroke-miterlimit:10;" d="M 832.214844 362 C 832.214844 373.714844 822.714844 383.214844 811 383.214844 C 799.285156 383.214844 789.785156 373.714844 789.785156 362 C 789.785156 350.285156 799.285156 340.785156 811 340.785156 C 822.714844 340.785156 832.214844 350.285156 832.214844 362 "/>
<path style="fill-rule:nonzero;fill:rgb(100%,51%,0%);fill-opacity:1;stroke-width:1;stroke-linecap:butt;stroke-linejoin:miter;stroke:rgb(0%,0%,0%);stroke-opacity:1;stroke-miterlimit:10;" d="M 366.214844 130 C 366.214844 141.714844 356.714844 151.214844 345 151.214844 C 333.285156 151.214844 323.785156 141.714844 323.785156 130 C 323.785156 118.285156 333.285156 108.785156 345 108.785156 C 356.714844 108.785156 366.214844 118.285156 366.214844 130 "/>
<path style="fill-rule:nonzero;fill:rgb(100%,51%,0%);fill-opacity:1;stroke-width:1;stroke-linecap:butt;stroke-linejoin:miter;stroke:rgb(0%,0%,0%);stroke-opacity:1;stroke-miterlimit:10;" d="M 688.214844 198 C 688.214844 209.714844 678.714844 219.214844 667 219.214844 C 655.285156 219.214844 645.785156 209.714844 645.785156 198 C 645.785156 186.285156 655.285156 176.785156 667 176.785156 C 678.714844 176.785156 688.214844 186.285156 688.214844 198 "/>
<path style="fill-rule:nonzero;fill:rgb(100%,51%,0%);fill-opacity:1;stroke-width:1;stroke-linecap:butt;stroke-linejoin:miter;stroke:rgb(0%,0%,0%);stroke-opacity:1;stroke-miterlimit:10;" d="M 184.214844 431 C 184.214844 442.714844 174.714844 452.214844 163 452.214844 C 151.285156 452.214844 141.785156 442.714844 141.785156 431 C 141.785156 419.285156 151.285156 409.785156 163 409.785156 C 174.714844 409.785156 184.214844 419.285156 184.214844 431 "/>
<path style="fill-rule:nonzero;fill:rgb(100%,51%,0%);fill-opacity:1;stroke-width:1;stroke-linecap:butt;stroke-linejoin:miter;stroke:rgb(0%,0%,0%);stroke-opacity:1;stroke-miterlimit:10;" d="M 591.214844 450 C 591.214844 461.714844 581.714844 471.214844 570 471.214844 C 558.285156 471.214844 548.785156 461.714844 548.785156 450 C 548.785156 438.285156 558.285156 428.785156 570 428.785156 C 581.714844 428.785156 591.214844 438.285156 591.214844 450 "/>
<path style="fill-rule:nonzero;fill:rgb(35%,70%,90%);fill-opacity:1;stroke-width:1;stroke-linecap:butt;stroke-linejoin:miter;stroke:rgb(0%,0%,0%);stroke-opacity:1;stroke-miterlimit:10;" d="M 154 72 L 183.664062 72 L 195.664062 43.785156 L 207.664062 72 L 237.332031 72 L 213.332031 89.4375 L 221.417969 120.980469 L 195.664062 103.542969 L 169.914062 120.980469 L 182.214844 89.4375 L 154 72 "/>
<path style="fill-rule:nonzero;fill:rgb(35%,70%,90%);fill-opacity:1;stroke-width:1;stroke-linecap:butt;stroke-linejoin:miter;stroke:rgb(0%,0%,0%);stroke-opacity:1;stroke-miterlimit:10;" d="M 453 291 L 482.664062 291 L 494.664062 262.785156 L 506.664062 291 L 536.332031 291 L 512.332031 308.4375 L 520.417969 339.980469 L 494.664062 322.542969 L 468.914062 339.980469 L 481.214844 308.4375 L 453 291 "/>
<path style="fill-rule:nonzero;fill:rgb(35%,70%,90%);fill-opacity:1;stroke-width:1;stroke-linecap:butt;stroke-linejoin:miter;stroke:rgb(0%,0%,0%);stroke-opacity:1;stroke-miterlimit:10;" d="M 668 348 L 697.664062 348 L 709.664062 319.785156 L 721.664062 348 L 751.332031 348 L 727.332031 365.4375 L 735.417969 396.980469 L 709.664062 379.542969 L 683.914062 396.980469 L 696.214844 365.4375 L 668 348 "/>
<path style="fill-rule:nonzero;fill:rgb(35%,70%,90%);fill-opacity:1;stroke-width:1;stroke-linecap:butt;stroke-linejoin:miter;stroke:rgb(0%,0%,0%);stroke-opacity:1;stroke-miterlimit:10;" d="M 94 373 L 123.664062 373 L 135.664062 344.785156 L 147.664062 373 L 177.332031 373 L 153.332031 390.4375 L 161.417969 421.980469 L 135.664062 404.542969 L 109.914062 421.980469 L 122.214844 390.4375 L 94 373 "/>
<path style="fill-rule:nonzero;fill:rgb(35%,70%,90%);fill-opacity:1;stroke-width:1;stroke-linecap:butt;stroke-linejoin:miter;stroke:rgb(0%,0%,0%);stroke-opacity:1;stroke-miterlimit:10;" d="M 310 285 L 339.664062 285 L 351.664062 256.785156 L 363.664062 285 L 393.332031 285 L 369.332031 302.4375 L 377.417969 333.980469 L 351.664062 316.542969 L 325.914062 333.980469 L 338.214844 302.4375 L 310 285 "/>
<path style="fill-rule:nonzero;fill:rgb(35%,70%,90%);fill-opacity:1;stroke-width:1;stroke-linecap:butt;stroke-linejoin:miter;stroke:rgb(0%,0%,0%);stroke-opacity:1;stroke-miterlimit:10;" d="M 298 458 L 327.664062 458 L 339.664062 429.785156 L 351.664062 458 L 381.332031 458 L 357.332031 475.4375 L 365.417969 506.980469 L 339.664062 489.542969 L 313.914062 506.980469 L 326.214844 475.4375 L 298 458 "/>
<path style="fill-rule:nonzero;fill:rgb(35%,70%,90%);fill-opacity:1;stroke-width:1;stroke-linecap:butt;stroke-linejoin:miter;stroke:rgb(0%,0%,0%);stroke-opacity:1;stroke-miterlimit:10;" d="M 109 279 L 138.664062 279 L 150.664062 250.785156 L 162.664062 279 L 192.332031 279 L 168.332031 296.4375 L 176.417969 327.980469 L 150.664062 310.542969 L 124.914062 327.980469 L 137.214844 296.4375 L 109 279 "/>
<path style="fill-rule:nonzero;fill:rgb(35%,70%,90%);fill-opacity:1;stroke-width:1;stroke-linecap:butt;stroke-linejoin:miter;stroke:rgb(0%,0%,0%);stroke-opacity:1;stroke-miterlimit:10;" d="M 731 103 L 760.664062 103 L 772.664062 74.785156 L 784.664062 103 L 814.332031 103 L 790.332031 120.4375 L 798.417969 151.980469 L 772.664062 134.542969 L 746.914062 151.980469 L 759.214844 120.4375 L 731 103 "/>
</g>
</svg>
