<?xml version="1.0" encoding="UTF-8"?>
<svg xmlns="http://www.w3.org/2000/svg" xmlns:xlink="http://www.w3.org/1999/xlink" width="1129pt" height="517pt" viewBox="0 0 1129 517" version="1.1">
<g id="surface11">
<rect x="0" y="0" width="1129" height="517" style="fill:rgb(90%,90%,90%);fill-opacity:1;stroke:none;"/>
<path style="fill-rule:nonzero;fill:rgb(35%,70%,90%);fill-opacity:1;stroke-width:1;stroke-linecap:butt;stroke-linejoin:miter;stroke:rgb(0%,0%,0%);stroke-opacity:1;stroke-miterlimit:10;" d="M 444 323 L 473.664062 323 L 485.664062 294.785156 L 497.664062 323 L 527.332031 323 L 503.332031 340.4375 L 511.417969 371.980469 L 485.664062 354.542969 L 459.914062 371.980469 L 472.214844 340.4375 L 444 323 "/>
<path style="fill-rule:nonzero;fill:rgb(35%,70%,90%);fill-opacity:1;stroke-width:1;stroke-linecap:butt;stroke-linejoin:miter;stroke:rgb(0%,0%,0%);stroke-opacity:1;stroke-miterlimit:10;" d="M 244.785156 323.785156 L 244.785156 366.214844 L 287.214844 366.214844 L 287.214844 323.785156 L 244.785156 323.785156 "/>
<path style="fill-rule:nonzero;fill:rgb(35%,70%,90%);fill-opacity:1;stroke-width:1;stroke-linecap:butt;stroke-linejoin:miter;stroke:rgb(0%,0%,0%);stroke-opacity:1;stroke-miterlimit:10;" d="M 164.785156 177.785156 L 164.785156 220.214844 L 207.214844 220.214844 L 207.214844 177.785156 L 164.785156 177.785156 "/>
<path style="fill-rule:nonzero;fill:rgb(35%,70%,90%);fill-opacity:1;stroke-width:1;stroke-linecap:butt;stroke-linejoin:miter;stroke:rgb(0%,0%,0%);stroke-opacity:1;stroke-miterlimit:10;" d="M 442 185 L 471.664062 185 L 483.664062 156.785156 L 495.664062 185 L 525.332031 185 L 501.332031 202.4375 L 509.417969 233.980469 L 483.664062 216.542969 L 457.914062 233.980469 L 470.214844 202.4375 L 442 185 "/>
<path style="fill-rule:nonzero;fill:rgb(35%,70%,90%);fill-opacity:1;stroke-width:1;stroke-linecap:butt;stroke-linejoin:miter;stroke:rgb(0%,0%,0%);stroke-opacity:1;stroke-miterlimit:10;" d="M 352 232 L 381.664062 232 L 393.664062 203.785156 L 405.664062 232 L 435.332031 232 L 411.332031 249.4375 L 419.417969 280.980469 L 393.664062 263.542969 L 367.914062 280.980469 L 380.214844 249.4375 L 352 232 "/>
<path style="fill-rule:nonzero;fill:rgb(35%,70%,90%);fill-opacity:1;stroke-width:1;stroke-linecap:butt;stroke-linejoin:miter;stroke:rgb(0%,0%,0%);stroke-opacity:1;stroke-miterlimit:10;" d="M 58 383 L 87.664062 383 L 99.664062 354.785156 L 111.664062 383 L 141.332031 383 L 117.332031 400.4375 L 125.417969 431.980469 L 99.664062 414.542969 L 73.914062 431.980469 L 86.214844 400.4375 L 58 383 "/>
<path style="fill-rule:nonzero;fill:rgb(35%,70%,90%);fill-opacity:1;stroke-width:1;stroke-linecap:butt;stroke-linejoin:miter;stroke:rgb(0%,0%,0%);stroke-opacity:1;stroke-miterlimit:10;" d="M 141 304 L 170.664062 304 L 182.664062 275.785156 L 194.664062 304 L 224.332031 304 L 200.332031 321.4375 L 208.417969 352.980469 L 182.664062 335.542969 L 156.914062 352.980469 L 169.214844 321.4375 L 141 304 "/>
<path style="fill-rule:nonzero;fill:rgb(100%,51%,0%);fill-opacity:1;stroke-width:1;stroke-linecap:butt;stroke-linejoin:miter;stroke:rgb(0%,0%,0%);stroke-opacity:1;stroke-miterlimit:10;" d="M 794.785156 230.785156 L 794.785156 273.214844 L 837.214844 273.214844 L 837.214844 230.785156 L 794.785156 230.785156 "/>
<path style="fill-rule:nonzero;fill:rgb(100%,51%,0%);fill-opacity:1;stroke-width:1;stroke-linecap:butt;stroke-linejoin:miter;stroke:rgb(0%,0%,0%);stroke-opacity:1;stroke-miterlimit:10;" d="M 908 282 L 937.664062 282 L 949.664062 253.785156 L 961.664062 282 L 991.332031 282 L 967.332031 299.4375 L 975.417969 330.980469 L 949.664062 313.542969 L 923.914062 330.980469 L 936.214844 299.4375 L 908 282 "/>
<path style="fill-rule:nonzero;fill:rgb(100%,51%,0%);fill-opacity:1;stroke-width:1;stroke-linecap:butt;stroke-linejoin:miter;stroke:rgb(0%,0%,0%);stroke-opacity:1;stroke-miterlimit:10;" d="M 641 84 L 670.664062 84 L 682.664062 55.785156 L 694.664062 84 L 724.332031 84 L 700.332031 101.4375 L 708.417969 132.980469 L 682.664062 115.542969 L 656.914062 132.980469 L 669.214844 101.4375 L 641 84 "/>
<path style="fill-rule:nonzero;fill:rgb(100%,51%,0%);fill-opacity:1;stroke-width:1;stroke-linecap:butt;stroke-linejoin:miter;stroke:rgb(0%,0%,0%);stroke-opacity:1;stroke-miterlimit:10;" d="M 693.785156 162.785156 L 693.785156 205.214844 L 736.214844 205.214844 L 736.214844 162.785156 L 693.785156 162.785156 "/>
<path style="fill-rule:nonzero;fill:rgb(100%,51%,0%);fill-opacity:1;stroke-width:1;stroke-linecap:butt;stroke-linejoin:miter;stroke:rgb(0%,0%,0%);stroke-opacity:1;stroke-miterlimit:10;" d="M 915.785156 40.785156 L 915.785156 83.214844 L 958.214844 83.214844 L 958.214844 40.785156 L 915.785156 40.785156 "/>
</g>
</svg>
