<?xml version="1.0" encoding="UTF-8"?>
<svg xmlns="http://www.w3.org/2000/svg" xmlns:xlink="http://www.w3.org/1999/xlink" width="1179pt" height="517pt" viewBox="0 0 1179 517" version="1.1">
<g id="surface301">
<rect x="0" y="0" width="1179" height="517" style="fill:rgb(90%,90%,90%);fill-opacity:1;stroke:none;"/>
<path style="fill-rule:nonzero;fill:rgb(100%,51%,0%);fill-opacity:1;stroke-width:1;stroke-linecap:butt;stroke-linejoin:miter;stroke:rgb(0%,0%,0%);stroke-opacity:1;stroke-miterlimit:10;" d="M 119 422 L 148.664062 422 L 160.664062 393.785156 L 172.664062 422 L 202.332031 422 L 178.332031 439.4375 L 186.417969 470.980469 L 160.664062 453.542969 L 134.914062 470.980469 L 147.214844 439.4375 L 119 422 "/>
<path style="fill-rule:nonzero;fill:rgb(55%,51%,53%);fill-opacity:1;stroke-width:1;stroke-linecap:butt;stroke-linejoin:miter;stroke:rgb(0%,0%,0%);stroke-opacity:1;stroke-miterlimit:10;" d="M 138.214844 83 C 138.214844 94.714844 128.714844 104.214844 117 104.214844 C 105.285156 104.214844 95.785156 94.714844 95.785156 83 C 95.785156 71.285156 105.285156 61.785156 117 61.785156 C 128.714844 61.785156 138.214844 71.285156 138.214844 83 "/>
<path style="fill-rule:nonzero;fill:rgb(55%,51%,53%);fill-opacity:1;stroke-width:1;stroke-linecap:butt;stroke-linejoin:miter;stroke:rgb(0%,0%,0%);stroke-opacity:1;stroke-miterlimit:10;" d="M 442.214844 130 C 442.214844 141.714844 432.714844 151.214844 421 151.214844 C 409.285156 151.214844 399.785156 141.714844 399.785156 130 C 399.785156 118.285156 409.285156 108.785156 421 108.785156 C 432.714844 108.785156 442.214844 118.285156 442.214844 130 "/>
<path style="fill-rule:nonzero;fill:rgb(55%,51%,53%);fill-opacity:1;stroke-width:1;stroke-linecap:butt;stroke-linejoin:miter;stroke:rgb(0%,0%,0%);stroke-opacity:1;stroke-miterlimit:10;" d="M 243.214844 201 C 243.214844 212.714844 233.714844 222.214844 222 222.214844 C 210.285156 222.214844 200.785156 212.714844 200.785156 201 C 200.785156 189.285156 210.285156 179.785156 222 179.785156 C 233.714844 179.785156 243.214844 189.285156 243.214844 201 "/>
<path style="fill-rule:nonzero;fill:rgb(55%,51%,53%);fill-opacity:1;stroke-width:1;stroke-linecap:butt;stroke-linejoin:miter;stroke:rgb(0%,0%,0%);stroke-opacity:1;stroke-miterlimit:10;" d="M 281.214844 301 C 281.214844 312.714844 271.714844 322.214844 260 322.214844 C 248.285156 322.214844 238.785156 312.714844 238.785156 301 C 238.785156 289.285156 248.285156 279.785156 260 279.785156 C 271.714844 279.785156 281.214844 289.285156 281.214844 301 "/>
<path style="fill-rule:nonzero;fill:rgb(55%,51%,53%);fill-opacity:1;stroke-width:1;stroke-linecap:butt;stroke-linejoin:miter;stroke:rgb(0%,0%,0%);stroke-opacity:1;stroke-miterlimit:10;" d="M 762.214844 410 C 762.214844 421.714844 752.714844 431.214844 741 431.214844 C 729.285156 431.214844 719.785156 421.714844 719.785156 410 C 719.785156 398.285156 729.285156 388.785156 741 388.785156 C 752.714844 388.785156 762.214844 398.285156 762.214844 410 "/>
<path style="fill-rule:nonzero;fill:rgb(100%,51%,0%);fill-opacity:1;stroke-width:1;stroke-linecap:butt;stroke-linejoin:miter;stroke:rgb(0%,0%,0%);stroke-opacity:1;stroke-miterlimit:10;" d="M 945 82 L 974.664062 82 L 986.664062 53.785156 L 998.664062 82 L 1028.332031 82 L 1004.332031 99.4375 L 1012.417969 130.980469 L 986.664062 113.542969 L 960.914062 130.980469 L 973.214844 99.4375 L 945 82 "/>
<path style="fill-rule:nonzero;fill:rgb(100%,51%,0%);fill-opacity:1;stroke-width:1;stroke-linecap:butt;stroke-linejoin:miter;stroke:rgb(0%,0%,0%);stroke-opacity:1;stroke-miterlimit:10;" d="M 867 164 L 896.664062 164 L 908.664062 135.785156 L 920.664062 164 L 950.332031 164 L 926.332031 181.4375 L 934.417969 212.980469 L 908.664062 195.542969 L 882.914062 212.980469 L 895.214844 181.4375 L 867 164 "/>
<path style="fill-rule:nonzero;fill:rgb(100%,51%,0%);fill-opacity:1;stroke-width:1;stroke-linecap:butt;stroke-linejoin:miter;stroke:rgb(0%,0%,0%);stroke-opacity:1;stroke-miterlimit:10;" d="M 699 88 L 728.664062 88 L 740.664062 59.785156 L 752.664062 88 L 782.332031 88 L 758.332031 105.4375 L 766.417969 136.980469 L 740.664062 119.542969 L 714.914062 136.980469 L 727.214844 105.4375 L 699 88 "/>
<path style="fill-rule:nonzero;fill:rgb(55%,51%,53%);fill-opacity:1;stroke-width:1;stroke-linecap:butt;stroke-linejoin:miter;stroke:rgb(0%,0%,0%);stroke-opacity:1;stroke-miterlimit:10;" d="M 844.214844 269 C 844.214844 280.714844 834.714844 290.214844 823 290.214844 C 811.285156 290.214844 801.785156 280.714844 801.785156 269 C 801.785156 257.285156 811.285156 247.785156 823 247.785156 C 834.714844 247.785156 844.214844 257.285156 844.214844 269 "/>
</g>
</svg>
