<?xml version="1.0" encoding="UTF-8"?>
<svg xmlns="http://www.w3.org/2000/svg" xmlns:xlink="http://www.w3.org/1999/xlink" width="1179pt" height="517pt" viewBox="0 0 1179 517" version="1.1">
<g id="surface751">
<rect x="0" y="0" width="1179" height="517" style="fill:rgb(90%,90%,90%);fill-opacity:1;stroke:none;"/>
<path style="fill-rule:nonzero;fill:rgb(55%,51%,53%);fill-opacity:1;stroke-width:1;stroke-linecap:butt;stroke-linejoin:miter;stroke:rgb(0%,0%,0%);stroke-opacity:1;stroke-miterlimit:10;" d="M 441.214844 426 C 441.214844 437.714844 431.714844 447.214844 420 447.214844 C 408.285156 447.214844 398.785156 437.714844 398.785156 426 C 398.785156 414.285156 408.285156 404.785156 420 404.785156 C 431.714844 404.785156 441.214844 414.285156 441.214844 426 "/>
<path style="fill-rule:nonzero;fill:rgb(67%,100%,18%);fill-opacity:1;stroke-width:1;stroke-linecap:butt;stroke-linejoin:miter;stroke:rgb(0%,0%,0%);stroke-opacity:1;stroke-miterlimit:10;" d="M 111.214844 90 C 111.214844 101.714844 101.714844 111.214844 90 111.214844 C 78.285156 111.214844 68.785156 101.714844 68.785156 90 C 68.785156 78.285156 78.285156 68.785156 90 68.785156 C 101.714844 68.785156 111.214844 78.285156 111.214844 90 "/>
<path style="fill-rule:nonzero;fill:rgb(67%,100%,18%);fill-opacity:1;stroke-width:1;stroke-linecap:butt;stroke-linejoin:miter;stroke:rgb(0%,0%,0%);stroke-opacity:1;stroke-miterlimit:10;" d="M 244.214844 134 C 244.214844 145.714844 234.714844 155.214844 223 155.214844 C 211.285156 155.214844 201.785156 145.714844 201.785156 134 C 201.785156 122.285156 211.285156 112.785156 223 112.785156 C 234.714844 112.785156 244.214844 122.285156 244.214844 134 "/>
<path style="fill-rule:nonzero;fill:rgb(55%,51%,53%);fill-opacity:1;stroke-width:1;stroke-linecap:butt;stroke-linejoin:miter;stroke:rgb(0%,0%,0%);stroke-opacity:1;stroke-miterlimit:10;" d="M 397.214844 137 C 397.214844 148.714844 387.714844 158.214844 376 158.214844 C 364.285156 158.214844 354.785156 148.714844 354.785156 137 C 354.785156 125.285156 364.285156 115.785156 376 115.785156 C 387.714844 115.785156 397.214844 125.285156 397.214844 137 "/>
<path style="fill-rule:nonzero;fill:rgb(55%,51%,53%);fill-opacity:1;stroke-width:1;stroke-linecap:butt;stroke-linejoin:miter;stroke:rgb(0%,0%,0%);stroke-opacity:1;stroke-miterlimit:10;" d="M 328.214844 335 C 328.214844 346.714844 318.714844 356.214844 307 356.214844 C 295.285156 356.214844 285.785156 346.714844 285.785156 335 C 285.785156 323.285156 295.285156 313.785156 307 313.785156 C 318.714844 313.785156 328.214844 323.285156 328.214844 335 "/>
<path style="fill-rule:nonzero;fill:rgb(55%,51%,53%);fill-opacity:1;stroke-width:1;stroke-linecap:butt;stroke-linejoin:miter;stroke:rgb(0%,0%,0%);stroke-opacity:1;stroke-miterlimit:10;" d="M 131.214844 402 C 131.214844 413.714844 121.714844 423.214844 110 423.214844 C 98.285156 423.214844 88.785156 413.714844 88.785156 402 C 88.785156 390.285156 98.285156 380.785156 110 380.785156 C 121.714844 380.785156 131.214844 390.285156 131.214844 402 "/>
<path style="fill-rule:nonzero;fill:rgb(55%,51%,53%);fill-opacity:1;stroke-width:1;stroke-linecap:butt;stroke-linejoin:miter;stroke:rgb(0%,0%,0%);stroke-opacity:1;stroke-miterlimit:10;" d="M 234.214844 389 C 234.214844 400.714844 224.714844 410.214844 213 410.214844 C 201.285156 410.214844 191.785156 400.714844 191.785156 389 C 191.785156 377.285156 201.285156 367.785156 213 367.785156 C 224.714844 367.785156 234.214844 377.285156 234.214844 389 "/>
<path style="fill-rule:nonzero;fill:rgb(55%,51%,53%);fill-opacity:1;stroke-width:1;stroke-linecap:butt;stroke-linejoin:miter;stroke:rgb(0%,0%,0%);stroke-opacity:1;stroke-miterlimit:10;" d="M 253.214844 261 C 253.214844 272.714844 243.714844 282.214844 232 282.214844 C 220.285156 282.214844 210.785156 272.714844 210.785156 261 C 210.785156 249.285156 220.285156 239.785156 232 239.785156 C 243.714844 239.785156 253.214844 249.285156 253.214844 261 "/>
<path style="fill-rule:nonzero;fill:rgb(67%,100%,18%);fill-opacity:1;stroke-width:1;stroke-linecap:butt;stroke-linejoin:miter;stroke:rgb(0%,0%,0%);stroke-opacity:1;stroke-miterlimit:10;" d="M 1033 339 L 1007.019531 384 L 1058.980469 384 L 1033 339 "/>
<path style="fill-rule:nonzero;fill:rgb(55%,51%,53%);fill-opacity:1;stroke-width:1;stroke-linecap:butt;stroke-linejoin:miter;stroke:rgb(0%,0%,0%);stroke-opacity:1;stroke-miterlimit:10;" d="M 743 291 L 717.019531 336 L 768.980469 336 L 743 291 "/>
<path style="fill-rule:nonzero;fill:rgb(55%,51%,53%);fill-opacity:1;stroke-width:1;stroke-linecap:butt;stroke-linejoin:miter;stroke:rgb(0%,0%,0%);stroke-opacity:1;stroke-miterlimit:10;" d="M 1003 110 L 977.019531 155 L 1028.980469 155 L 1003 110 "/>
<path style="fill-rule:nonzero;fill:rgb(67%,100%,18%);fill-opacity:1;stroke-width:1;stroke-linecap:butt;stroke-linejoin:miter;stroke:rgb(0%,0%,0%);stroke-opacity:1;stroke-miterlimit:10;" d="M 968 202 L 942.019531 247 L 993.980469 247 L 968 202 "/>
<path style="fill-rule:nonzero;fill:rgb(67%,100%,18%);fill-opacity:1;stroke-width:1;stroke-linecap:butt;stroke-linejoin:miter;stroke:rgb(0%,0%,0%);stroke-opacity:1;stroke-miterlimit:10;" d="M 767 389 L 741.019531 434 L 792.980469 434 L 767 389 "/>
<path style="fill-rule:nonzero;fill:rgb(67%,100%,18%);fill-opacity:1;stroke-width:1;stroke-linecap:butt;stroke-linejoin:miter;stroke:rgb(0%,0%,0%);stroke-opacity:1;stroke-miterlimit:10;" d="M 767 149 L 741.019531 194 L 792.980469 194 L 767 149 "/>
</g>
</svg>
