<?xml version="1.0" encoding="UTF-8"?>
<svg xmlns="http://www.w3.org/2000/svg" xmlns:xlink="http://www.w3.org/1999/xlink" width="1179pt" height="517pt" viewBox="0 0 1179 517" version="1.1">
<g id="surface441">
<rect x="0" y="0" width="1179" height="517" style="fill:rgb(90%,90%,90%);fill-opacity:1;stroke:none;"/>
<path style="fill-rule:nonzero;fill:rgb(35%,70%,90%);fill-opacity:1;stroke-width:1;stroke-linecap:butt;stroke-linejoin:miter;stroke:rgb(0%,0%,0%);stroke-opacity:1;stroke-miterlimit:10;" d="M 439.214844 423 C 439.214844 434.714844 429.714844 444.214844 418 444.214844 C 406.285156 444.214844 396.785156 434.714844 396.785156 423 C 396.785156 411.285156 406.285156 401.785156 418 401.785156 C 429.714844 401.785156 439.214844 411.285156 439.214844 423 "/>
<path style="fill-rule:nonzero;fill:rgb(35%,70%,90%);fill-opacity:1;stroke-width:1;stroke-linecap:butt;stroke-linejoin:miter;stroke:rgb(0%,0%,0%);stroke-opacity:1;stroke-miterlimit:10;" d="M 200.214844 208 C 200.214844 219.714844 190.714844 229.214844 179 229.214844 C 167.285156 229.214844 157.785156 219.714844 157.785156 208 C 157.785156 196.285156 167.285156 186.785156 179 186.785156 C 190.714844 186.785156 200.214844 196.285156 200.214844 208 "/>
<path style="fill-rule:nonzero;fill:rgb(35%,70%,90%);fill-opacity:1;stroke-width:1;stroke-linecap:butt;stroke-linejoin:miter;stroke:rgb(0%,0%,0%);stroke-opacity:1;stroke-miterlimit:10;" d="M 421.214844 88 C 421.214844 99.714844 411.714844 109.214844 400 109.214844 C 388.285156 109.214844 378.785156 99.714844 378.785156 88 C 378.785156 76.285156 388.285156 66.785156 400 66.785156 C 411.714844 66.785156 421.214844 76.285156 421.214844 88 "/>
<path style="fill-rule:nonzero;fill:rgb(55%,51%,53%);fill-opacity:1;stroke-width:1;stroke-linecap:butt;stroke-linejoin:miter;stroke:rgb(0%,0%,0%);stroke-opacity:1;stroke-miterlimit:10;" d="M 123.214844 383 C 123.214844 394.714844 113.714844 404.214844 102 404.214844 C 90.285156 404.214844 80.785156 394.714844 80.785156 383 C 80.785156 371.285156 90.285156 361.785156 102 361.785156 C 113.714844 361.785156 123.214844 371.285156 123.214844 383 "/>
<path style="fill-rule:nonzero;fill:rgb(35%,70%,90%);fill-opacity:1;stroke-width:1;stroke-linecap:butt;stroke-linejoin:miter;stroke:rgb(0%,0%,0%);stroke-opacity:1;stroke-miterlimit:10;" d="M 375.214844 318 C 375.214844 329.714844 365.714844 339.214844 354 339.214844 C 342.285156 339.214844 332.785156 329.714844 332.785156 318 C 332.785156 306.285156 342.285156 296.785156 354 296.785156 C 365.714844 296.785156 375.214844 306.285156 375.214844 318 "/>
<path style="fill-rule:nonzero;fill:rgb(55%,51%,53%);fill-opacity:1;stroke-width:1;stroke-linecap:butt;stroke-linejoin:miter;stroke:rgb(0%,0%,0%);stroke-opacity:1;stroke-miterlimit:10;" d="M 913.785156 265.785156 L 913.785156 308.214844 L 956.214844 308.214844 L 956.214844 265.785156 L 913.785156 265.785156 "/>
<path style="fill-rule:nonzero;fill:rgb(55%,51%,53%);fill-opacity:1;stroke-width:1;stroke-linecap:butt;stroke-linejoin:miter;stroke:rgb(0%,0%,0%);stroke-opacity:1;stroke-miterlimit:10;" d="M 705.785156 142.785156 L 705.785156 185.214844 L 748.214844 185.214844 L 748.214844 142.785156 L 705.785156 142.785156 "/>
<path style="fill-rule:nonzero;fill:rgb(55%,51%,53%);fill-opacity:1;stroke-width:1;stroke-linecap:butt;stroke-linejoin:miter;stroke:rgb(0%,0%,0%);stroke-opacity:1;stroke-miterlimit:10;" d="M 723.785156 408.785156 L 723.785156 451.214844 L 766.214844 451.214844 L 766.214844 408.785156 L 723.785156 408.785156 "/>
<path style="fill-rule:nonzero;fill:rgb(35%,70%,90%);fill-opacity:1;stroke-width:1;stroke-linecap:butt;stroke-linejoin:miter;stroke:rgb(0%,0%,0%);stroke-opacity:1;stroke-miterlimit:10;" d="M 887.785156 156.785156 L 887.785156 199.214844 L 930.214844 199.214844 L 930.214844 156.785156 L 887.785156 156.785156 "/>
</g>
</svg>
