<?xml version="1.0" encoding="UTF-8"?>
<svg xmlns="http://www.w3.org/2000/svg" xmlns:xlink="http://www.w3.org/1999/xlink" width="1129pt" height="517pt" viewBox="0 0 1129 517" version="1.1">
<g id="surface401">
<rect x="0" y="0" width="1129" height="517" style="fill:rgb(90%,90%,90%);fill-opacity:1;stroke:none;"/>
<path style="fill-rule:nonzero;fill:rgb(35%,70%,90%);fill-opacity:1;stroke-width:1;stroke-linecap:butt;stroke-linejoin:miter;stroke:rgb(0%,0%,0%);stroke-opacity:1;stroke-miterlimit:10;" d="M 143 441 L 172.664062 441 L 184.664062 412.785156 L 196.664062 441 L 226.332031 441 L 202.332031 458.4375 L 210.417969 489.980469 L 184.664062 472.542969 L 158.914062 489.980469 L 171.214844 458.4375 L 143 441 "/>
<path style="fill-rule:nonzero;fill:rgb(35%,70%,90%);fill-opacity:1;stroke-width:1;stroke-linecap:butt;stroke-linejoin:miter;stroke:rgb(0%,0%,0%);stroke-opacity:1;stroke-miterlimit:10;" d="M 308.785156 398.785156 L 308.785156 441.214844 L 351.214844 441.214844 L 351.214844 398.785156 L 308.785156 398.785156 "/>
<path style="fill-rule:nonzero;fill:rgb(35%,70%,90%);fill-opacity:1;stroke-width:1;stroke-linecap:butt;stroke-linejoin:miter;stroke:rgb(0%,0%,0%);stroke-opacity:1;stroke-miterlimit:10;" d="M 116 262 L 145.664062 262 L 157.664062 233.785156 L 169.664062 262 L 199.332031 262 L 175.332031 279.4375 L 183.417969 310.980469 L 157.664062 293.542969 L 131.914062 310.980469 L 144.214844 279.4375 L 116 262 "/>
<path style="fill-rule:nonzero;fill:rgb(35%,70%,90%);fill-opacity:1;stroke-width:1;stroke-linecap:butt;stroke-linejoin:miter;stroke:rgb(0%,0%,0%);stroke-opacity:1;stroke-miterlimit:10;" d="M 211.785156 394.785156 L 211.785156 437.214844 L 254.214844 437.214844 L 254.214844 394.785156 L 211.785156 394.785156 "/>
<path style="fill-rule:nonzero;fill:rgb(35%,70%,90%);fill-opacity:1;stroke-width:1;stroke-linecap:butt;stroke-linejoin:miter;stroke:rgb(0%,0%,0%);stroke-opacity:1;stroke-miterlimit:10;" d="M 392 185 L 421.664062 185 L 433.664062 156.785156 L 445.664062 185 L 475.332031 185 L 451.332031 202.4375 L 459.417969 233.980469 L 433.664062 216.542969 L 407.914062 233.980469 L 420.214844 202.4375 L 392 185 "/>
<path style="fill-rule:nonzero;fill:rgb(35%,70%,90%);fill-opacity:1;stroke-width:1;stroke-linecap:butt;stroke-linejoin:miter;stroke:rgb(0%,0%,0%);stroke-opacity:1;stroke-miterlimit:10;" d="M 242 91 L 271.664062 91 L 283.664062 62.785156 L 295.664062 91 L 325.332031 91 L 301.332031 108.4375 L 309.417969 139.980469 L 283.664062 122.542969 L 257.914062 139.980469 L 270.214844 108.4375 L 242 91 "/>
<path style="fill-rule:nonzero;fill:rgb(35%,70%,90%);fill-opacity:1;stroke-width:1;stroke-linecap:butt;stroke-linejoin:miter;stroke:rgb(0%,0%,0%);stroke-opacity:1;stroke-miterlimit:10;" d="M 346 267 L 375.664062 267 L 387.664062 238.785156 L 399.664062 267 L 429.332031 267 L 405.332031 284.4375 L 413.417969 315.980469 L 387.664062 298.542969 L 361.914062 315.980469 L 374.214844 284.4375 L 346 267 "/>
<path style="fill-rule:nonzero;fill:rgb(53%,27%,7%);fill-opacity:1;stroke-width:1;stroke-linecap:butt;stroke-linejoin:miter;stroke:rgb(0%,0%,0%);stroke-opacity:1;stroke-miterlimit:10;" d="M 670.785156 373.785156 L 670.785156 416.214844 L 713.214844 416.214844 L 713.214844 373.785156 L 670.785156 373.785156 "/>
<path style="fill-rule:nonzero;fill:rgb(53%,27%,7%);fill-opacity:1;stroke-width:1;stroke-linecap:butt;stroke-linejoin:miter;stroke:rgb(0%,0%,0%);stroke-opacity:1;stroke-miterlimit:10;" d="M 653 74 L 682.664062 74 L 694.664062 45.785156 L 706.664062 74 L 736.332031 74 L 712.332031 91.4375 L 720.417969 122.980469 L 694.664062 105.542969 L 668.914062 122.980469 L 681.214844 91.4375 L 653 74 "/>
<path style="fill-rule:nonzero;fill:rgb(53%,27%,7%);fill-opacity:1;stroke-width:1;stroke-linecap:butt;stroke-linejoin:miter;stroke:rgb(0%,0%,0%);stroke-opacity:1;stroke-miterlimit:10;" d="M 846.785156 307.785156 L 846.785156 350.214844 L 889.214844 350.214844 L 889.214844 307.785156 L 846.785156 307.785156 "/>
<path style="fill-rule:nonzero;fill:rgb(53%,27%,7%);fill-opacity:1;stroke-width:1;stroke-linecap:butt;stroke-linejoin:miter;stroke:rgb(0%,0%,0%);stroke-opacity:1;stroke-miterlimit:10;" d="M 781 200 L 810.664062 200 L 822.664062 171.785156 L 834.664062 200 L 864.332031 200 L 840.332031 217.4375 L 848.417969 248.980469 L 822.664062 231.542969 L 796.914062 248.980469 L 809.214844 217.4375 L 781 200 "/>
<path style="fill-rule:nonzero;fill:rgb(53%,27%,7%);fill-opacity:1;stroke-width:1;stroke-linecap:butt;stroke-linejoin:miter;stroke:rgb(0%,0%,0%);stroke-opacity:1;stroke-miterlimit:10;" d="M 961.785156 250.785156 L 961.785156 293.214844 L 1004.214844 293.214844 L 1004.214844 250.785156 L 961.785156 250.785156 "/>
<path style="fill-rule:nonzero;fill:rgb(53%,27%,7%);fill-opacity:1;stroke-width:1;stroke-linecap:butt;stroke-linejoin:miter;stroke:rgb(0%,0%,0%);stroke-opacity:1;stroke-miterlimit:10;" d="M 607.785156 185.785156 L 607.785156 228.214844 L 650.214844 228.214844 L 650.214844 185.785156 L 607.785156 185.785156 "/>
</g>
</svg>
