<?xml version="1.0" encoding="UTF-8"?>
<svg xmlns="http://www.w3.org/2000/svg" xmlns:xlink="http://www.w3.org/1999/xlink" width="1129pt" height="517pt" viewBox="0 0 1129 517" version="1.1">
<g id="surface641">
<rect x="0" y="0" width="1129" height="517" style="fill:rgb(90%,90%,90%);fill-opacity:1;stroke:none;"/>
<path style="fill-rule:nonzero;fill:rgb(100%,51%,0%);fill-opacity:1;stroke-width:1;stroke-linecap:butt;stroke-linejoin:miter;stroke:rgb(0%,0%,0%);stroke-opacity:1;stroke-miterlimit:10;" d="M 215 178 L 244.664062 178 L 256.664062 149.785156 L 268.664062 178 L 298.332031 178 L 274.332031 195.4375 L 282.417969 226.980469 L 256.664062 209.542969 L 230.914062 226.980469 L 243.214844 195.4375 L 215 178 "/>
<path style="fill-rule:nonzero;fill:rgb(100%,51%,0%);fill-opacity:1;stroke-width:1;stroke-linecap:butt;stroke-linejoin:miter;stroke:rgb(0%,0%,0%);stroke-opacity:1;stroke-miterlimit:10;" d="M 240 399 L 269.664062 399 L 281.664062 370.785156 L 293.664062 399 L 323.332031 399 L 299.332031 416.4375 L 307.417969 447.980469 L 281.664062 430.542969 L 255.914062 447.980469 L 268.214844 416.4375 L 240 399 "/>
<path style="fill-rule:nonzero;fill:rgb(53%,27%,7%);fill-opacity:1;stroke-width:1;stroke-linecap:butt;stroke-linejoin:miter;stroke:rgb(0%,0%,0%);stroke-opacity:1;stroke-miterlimit:10;" d="M 441 396 L 470.664062 396 L 482.664062 367.785156 L 494.664062 396 L 524.332031 396 L 500.332031 413.4375 L 508.417969 444.980469 L 482.664062 427.542969 L 456.914062 444.980469 L 469.214844 413.4375 L 441 396 "/>
<path style="fill-rule:nonzero;fill:rgb(53%,27%,7%);fill-opacity:1;stroke-width:1;stroke-linecap:butt;stroke-linejoin:miter;stroke:rgb(0%,0%,0%);stroke-opacity:1;stroke-miterlimit:10;" d="M 104 428 L 133.664062 428 L 145.664062 399.785156 L 157.664062 428 L 187.332031 428 L 163.332031 445.4375 L 171.417969 476.980469 L 145.664062 459.542969 L 119.914062 476.980469 L 132.214844 445.4375 L 104 428 "/>
<path style="fill-rule:nonzero;fill:rgb(100%,51%,0%);fill-opacity:1;stroke-width:1;stroke-linecap:butt;stroke-linejoin:miter;stroke:rgb(0%,0%,0%);stroke-opacity:1;stroke-miterlimit:10;" d="M 429 182 L 458.664062 182 L 470.664062 153.785156 L 482.664062 182 L 512.332031 182 L 488.332031 199.4375 L 496.417969 230.980469 L 470.664062 213.542969 L 444.914062 230.980469 L 457.214844 199.4375 L 429 182 "/>
<path style="fill-rule:nonzero;fill:rgb(100%,51%,0%);fill-opacity:1;stroke-width:1;stroke-linecap:butt;stroke-linejoin:miter;stroke:rgb(0%,0%,0%);stroke-opacity:1;stroke-miterlimit:10;" d="M 292 95 L 321.664062 95 L 333.664062 66.785156 L 345.664062 95 L 375.332031 95 L 351.332031 112.4375 L 359.417969 143.980469 L 333.664062 126.542969 L 307.914062 143.980469 L 320.214844 112.4375 L 292 95 "/>
<path style="fill-rule:nonzero;fill:rgb(53%,27%,7%);fill-opacity:1;stroke-width:1;stroke-linecap:butt;stroke-linejoin:miter;stroke:rgb(0%,0%,0%);stroke-opacity:1;stroke-miterlimit:10;" d="M 944.785156 279.785156 L 944.785156 322.214844 L 987.214844 322.214844 L 987.214844 279.785156 L 944.785156 279.785156 "/>
<path style="fill-rule:nonzero;fill:rgb(53%,27%,7%);fill-opacity:1;stroke-width:1;stroke-linecap:butt;stroke-linejoin:miter;stroke:rgb(0%,0%,0%);stroke-opacity:1;stroke-miterlimit:10;" d="M 697.785156 203.785156 L 697.785156 246.214844 L 740.214844 246.214844 L 740.214844 203.785156 L 697.785156 203.785156 "/>
<path style="fill-rule:nonzero;fill:rgb(100%,51%,0%);fill-opacity:1;stroke-width:1;stroke-linecap:butt;stroke-linejoin:miter;stroke:rgb(0%,0%,0%);stroke-opacity:1;stroke-miterlimit:10;" d="M 928.785156 417.785156 L 928.785156 460.214844 L 971.214844 460.214844 L 971.214844 417.785156 L 928.785156 417.785156 "/>
<path style="fill-rule:nonzero;fill:rgb(100%,51%,0%);fill-opacity:1;stroke-width:1;stroke-linecap:butt;stroke-linejoin:miter;stroke:rgb(0%,0%,0%);stroke-opacity:1;stroke-miterlimit:10;" d="M 807.785156 238.785156 L 807.785156 281.214844 L 850.214844 281.214844 L 850.214844 238.785156 L 807.785156 238.785156 "/>
<path style="fill-rule:nonzero;fill:rgb(53%,27%,7%);fill-opacity:1;stroke-width:1;stroke-linecap:butt;stroke-linejoin:miter;stroke:rgb(0%,0%,0%);stroke-opacity:1;stroke-miterlimit:10;" d="M 593.785156 234.785156 L 593.785156 277.214844 L 636.214844 277.214844 L 636.214844 234.785156 L 593.785156 234.785156 "/>
<path style="fill-rule:nonzero;fill:rgb(53%,27%,7%);fill-opacity:1;stroke-width:1;stroke-linecap:butt;stroke-linejoin:miter;stroke:rgb(0%,0%,0%);stroke-opacity:1;stroke-miterlimit:10;" d="M 844.785156 30.785156 L 844.785156 73.214844 L 887.214844 73.214844 L 887.214844 30.785156 L 844.785156 30.785156 "/>
<path style="fill-rule:nonzero;fill:rgb(53%,27%,7%);fill-opacity:1;stroke-width:1;stroke-linecap:butt;stroke-linejoin:miter;stroke:rgb(0%,0%,0%);stroke-opacity:1;stroke-miterlimit:10;" d="M 969.785156 99.785156 L 969.785156 142.214844 L 1012.214844 142.214844 L 1012.214844 99.785156 L 969.785156 99.785156 "/>
<path style="fill-rule:nonzero;fill:rgb(53%,27%,7%);fill-opacity:1;stroke-width:1;stroke-linecap:butt;stroke-linejoin:miter;stroke:rgb(0%,0%,0%);stroke-opacity:1;stroke-miterlimit:10;" d="M 646.785156 400.785156 L 646.785156 443.214844 L 689.214844 443.214844 L 689.214844 400.785156 L 646.785156 400.785156 "/>
</g>
</svg>
