<?xml version="1.0" encoding="UTF-8"?>
<svg xmlns="http://www.w3.org/2000/svg" xmlns:xlink="http://www.w3.org/1999/xlink" width="1129pt" height="517pt" viewBox="0 0 1129 517" version="1.1">
<g id="surface286">
<rect x="0" y="0" width="1129" height="517" style="fill:rgb(90%,90%,90%);fill-opacity:1;stroke:none;"/>
<path style="fill-rule:nonzero;fill:rgb(100%,51%,0%);fill-opacity:1;stroke-width:1;stroke-linecap:butt;stroke-linejoin:miter;stroke:rgb(0%,0%,0%);stroke-opacity:1;stroke-miterlimit:10;" d="M 436.214844 434 C 436.214844 445.714844 426.714844 455.214844 415 455.214844 C 403.285156 455.214844 393.785156 445.714844 393.785156 434 C 393.785156 422.285156 403.285156 412.785156 415 412.785156 C 426.714844 412.785156 436.214844 422.285156 436.214844 434 "/>
<path style="fill-rule:nonzero;fill:rgb(100%,51%,0%);fill-opacity:1;stroke-width:1;stroke-linecap:butt;stroke-linejoin:miter;stroke:rgb(0%,0%,0%);stroke-opacity:1;stroke-miterlimit:10;" d="M 273.214844 97 C 273.214844 108.714844 263.714844 118.214844 252 118.214844 C 240.285156 118.214844 230.785156 108.714844 230.785156 97 C 230.785156 85.285156 240.285156 75.785156 252 75.785156 C 263.714844 75.785156 273.214844 85.285156 273.214844 97 "/>
<path style="fill-rule:nonzero;fill:rgb(53%,27%,7%);fill-opacity:1;stroke-width:1;stroke-linecap:butt;stroke-linejoin:miter;stroke:rgb(0%,0%,0%);stroke-opacity:1;stroke-miterlimit:10;" d="M 344.214844 272 C 344.214844 283.714844 334.714844 293.214844 323 293.214844 C 311.285156 293.214844 301.785156 283.714844 301.785156 272 C 301.785156 260.285156 311.285156 250.785156 323 250.785156 C 334.714844 250.785156 344.214844 260.285156 344.214844 272 "/>
<path style="fill-rule:nonzero;fill:rgb(100%,51%,0%);fill-opacity:1;stroke-width:1;stroke-linecap:butt;stroke-linejoin:miter;stroke:rgb(0%,0%,0%);stroke-opacity:1;stroke-miterlimit:10;" d="M 78.214844 208 C 78.214844 219.714844 68.714844 229.214844 57 229.214844 C 45.285156 229.214844 35.785156 219.714844 35.785156 208 C 35.785156 196.285156 45.285156 186.785156 57 186.785156 C 68.714844 186.785156 78.214844 196.285156 78.214844 208 "/>
<path style="fill-rule:nonzero;fill:rgb(100%,51%,0%);fill-opacity:1;stroke-width:1;stroke-linecap:butt;stroke-linejoin:miter;stroke:rgb(0%,0%,0%);stroke-opacity:1;stroke-miterlimit:10;" d="M 78.214844 448 C 78.214844 459.714844 68.714844 469.214844 57 469.214844 C 45.285156 469.214844 35.785156 459.714844 35.785156 448 C 35.785156 436.285156 45.285156 426.785156 57 426.785156 C 68.714844 426.785156 78.214844 436.285156 78.214844 448 "/>
<path style="fill-rule:nonzero;fill:rgb(100%,51%,0%);fill-opacity:1;stroke-width:1;stroke-linecap:butt;stroke-linejoin:miter;stroke:rgb(0%,0%,0%);stroke-opacity:1;stroke-miterlimit:10;" d="M 198.214844 265 C 198.214844 276.714844 188.714844 286.214844 177 286.214844 C 165.285156 286.214844 155.785156 276.714844 155.785156 265 C 155.785156 253.285156 165.285156 243.785156 177 243.785156 C 188.714844 243.785156 198.214844 253.285156 198.214844 265 "/>
<path style="fill-rule:nonzero;fill:rgb(100%,51%,0%);fill-opacity:1;stroke-width:1;stroke-linecap:butt;stroke-linejoin:miter;stroke:rgb(0%,0%,0%);stroke-opacity:1;stroke-miterlimit:10;" d="M 382.214844 360 C 382.214844 371.714844 372.714844 381.214844 361 381.214844 C 349.285156 381.214844 339.785156 371.714844 339.785156 360 C 339.785156 348.285156 349.285156 338.785156 361 338.785156 C 372.714844 338.785156 382.214844 348.285156 382.214844 360 "/>
<path style="fill-rule:nonzero;fill:rgb(53%,27%,7%);fill-opacity:1;stroke-width:1;stroke-linecap:butt;stroke-linejoin:miter;stroke:rgb(0%,0%,0%);stroke-opacity:1;stroke-miterlimit:10;" d="M 956 50 L 930.019531 95 L 981.980469 95 L 956 50 "/>
<path style="fill-rule:nonzero;fill:rgb(53%,27%,7%);fill-opacity:1;stroke-width:1;stroke-linecap:butt;stroke-linejoin:miter;stroke:rgb(0%,0%,0%);stroke-opacity:1;stroke-miterlimit:10;" d="M 856 371 L 830.019531 416 L 881.980469 416 L 856 371 "/>
<path style="fill-rule:nonzero;fill:rgb(100%,51%,0%);fill-opacity:1;stroke-width:1;stroke-linecap:butt;stroke-linejoin:miter;stroke:rgb(0%,0%,0%);stroke-opacity:1;stroke-miterlimit:10;" d="M 647 43 L 621.019531 88 L 672.980469 88 L 647 43 "/>
<path style="fill-rule:nonzero;fill:rgb(53%,27%,7%);fill-opacity:1;stroke-width:1;stroke-linecap:butt;stroke-linejoin:miter;stroke:rgb(0%,0%,0%);stroke-opacity:1;stroke-miterlimit:10;" d="M 615 365 L 589.019531 410 L 640.980469 410 L 615 365 "/>
<path style="fill-rule:nonzero;fill:rgb(53%,27%,7%);fill-opacity:1;stroke-width:1;stroke-linecap:butt;stroke-linejoin:miter;stroke:rgb(0%,0%,0%);stroke-opacity:1;stroke-miterlimit:10;" d="M 870 280 L 844.019531 325 L 895.980469 325 L 870 280 "/>
<path style="fill-rule:nonzero;fill:rgb(53%,27%,7%);fill-opacity:1;stroke-width:1;stroke-linecap:butt;stroke-linejoin:miter;stroke:rgb(0%,0%,0%);stroke-opacity:1;stroke-miterlimit:10;" d="M 734 301 L 708.019531 346 L 759.980469 346 L 734 301 "/>
</g>
</svg>
