<?xml version="1.0" encoding="UTF-8"?>
<svg xmlns="http://www.w3.org/2000/svg" xmlns:xlink="http://www.w3.org/1999/xlink" width="1129pt" height="517pt" viewBox="0 0 1129 517" version="1.1">
<g id="surface426">
<rect x="0" y="0" width="1129" height="517" style="fill:rgb(90%,90%,90%);fill-opacity:1;stroke:none;"/>
<path style="fill-rule:nonzero;fill:rgb(35%,70%,90%);fill-opacity:1;stroke-width:1;stroke-linecap:butt;stroke-linejoin:miter;stroke:rgb(0%,0%,0%);stroke-opacity:1;stroke-miterlimit:10;" d="M 435 111 L 464.664062 111 L 476.664062 82.785156 L 488.664062 111 L 518.332031 111 L 494.332031 128.4375 L 502.417969 159.980469 L 476.664062 142.542969 L 450.914062 159.980469 L 463.214844 128.4375 L 435 111 "/>
<path style="fill-rule:nonzero;fill:rgb(35%,70%,90%);fill-opacity:1;stroke-width:1;stroke-linecap:butt;stroke-linejoin:miter;stroke:rgb(0%,0%,0%);stroke-opacity:1;stroke-miterlimit:10;" d="M 769 212 L 798.664062 212 L 810.664062 183.785156 L 822.664062 212 L 852.332031 212 L 828.332031 229.4375 L 836.417969 260.980469 L 810.664062 243.542969 L 784.914062 260.980469 L 797.214844 229.4375 L 769 212 "/>
<path style="fill-rule:nonzero;fill:rgb(35%,70%,90%);fill-opacity:1;stroke-width:1;stroke-linecap:butt;stroke-linejoin:miter;stroke:rgb(0%,0%,0%);stroke-opacity:1;stroke-miterlimit:10;" d="M 718 61 L 747.664062 61 L 759.664062 32.785156 L 771.664062 61 L 801.332031 61 L 777.332031 78.4375 L 785.417969 109.980469 L 759.664062 92.542969 L 733.914062 109.980469 L 746.214844 78.4375 L 718 61 "/>
<path style="fill-rule:nonzero;fill:rgb(35%,70%,90%);fill-opacity:1;stroke-width:1;stroke-linecap:butt;stroke-linejoin:miter;stroke:rgb(0%,0%,0%);stroke-opacity:1;stroke-miterlimit:10;" d="M 658 411 L 687.664062 411 L 699.664062 382.785156 L 711.664062 411 L 741.332031 411 L 717.332031 428.4375 L 725.417969 459.980469 L 699.664062 442.542969 L 673.914062 459.980469 L 686.214844 428.4375 L 658 411 "/>
<path style="fill-rule:nonzero;fill:rgb(55%,51%,53%);fill-opacity:1;stroke-width:1;stroke-linecap:butt;stroke-linejoin:miter;stroke:rgb(0%,0%,0%);stroke-opacity:1;stroke-miterlimit:10;" d="M 899 114 L 873.019531 159 L 924.980469 159 L 899 114 "/>
<path style="fill-rule:nonzero;fill:rgb(55%,51%,53%);fill-opacity:1;stroke-width:1;stroke-linecap:butt;stroke-linejoin:miter;stroke:rgb(0%,0%,0%);stroke-opacity:1;stroke-miterlimit:10;" d="M 72 307 L 46.019531 352 L 97.980469 352 L 72 307 "/>
<path style="fill-rule:nonzero;fill:rgb(55%,51%,53%);fill-opacity:1;stroke-width:1;stroke-linecap:butt;stroke-linejoin:miter;stroke:rgb(0%,0%,0%);stroke-opacity:1;stroke-miterlimit:10;" d="M 479 165 L 453.019531 210 L 504.980469 210 L 479 165 "/>
<path style="fill-rule:nonzero;fill:rgb(55%,51%,53%);fill-opacity:1;stroke-width:1;stroke-linecap:butt;stroke-linejoin:miter;stroke:rgb(0%,0%,0%);stroke-opacity:1;stroke-miterlimit:10;" d="M 706 279 L 680.019531 324 L 731.980469 324 L 706 279 "/>
<path style="fill-rule:nonzero;fill:rgb(55%,51%,53%);fill-opacity:1;stroke-width:1;stroke-linecap:butt;stroke-linejoin:miter;stroke:rgb(0%,0%,0%);stroke-opacity:1;stroke-miterlimit:10;" d="M 919 207 L 893.019531 252 L 944.980469 252 L 919 207 "/>
</g>
</svg>
