<?xml version="1.0" encoding="UTF-8"?>
<svg xmlns="http://www.w3.org/2000/svg" xmlns:xlink="http://www.w3.org/1999/xlink" width="1129pt" height="517pt" viewBox="0 0 1129 517" version="1.1">
<g id="surface756">
<rect x="0" y="0" width="1129" height="517" style="fill:rgb(90%,90%,90%);fill-opacity:1;stroke:none;"/>
<path style="fill-rule:nonzero;fill:rgb(100%,0%,0%);fill-opacity:1;stroke-width:1;stroke-linecap:butt;stroke-linejoin:miter;stroke:rgb(0%,0%,0%);stroke-opacity:1;stroke-miterlimit:10;" d="M 393 257.601562 C 393 243.199219 369 243.199219 369 257.601562 C 369 272 393 274.398438 393 286.398438 C 393 274.398438 417 272 417 257.601562 C 417 243.199219 393 243.199219 393 257.601562 "/>
<path style="fill-rule:nonzero;fill:rgb(100%,0%,0%);fill-opacity:1;stroke-width:1;stroke-linecap:butt;stroke-linejoin:miter;stroke:rgb(0%,0%,0%);stroke-opacity:1;stroke-miterlimit:10;" d="M 579 53.601562 C 579 39.199219 555 39.199219 555 53.601562 C 555 68 579 70.398438 579 82.398438 C 579 70.398438 603 68 603 53.601562 C 603 39.199219 579 39.199219 579 53.601562 "/>
<path style="fill-rule:nonzero;fill:rgb(100%,0%,0%);fill-opacity:1;stroke-width:1;stroke-linecap:butt;stroke-linejoin:miter;stroke:rgb(0%,0%,0%);stroke-opacity:1;stroke-miterlimit:10;" d="M 833 135.601562 C 833 121.199219 809 121.199219 809 135.601562 C 809 150 833 152.398438 833 164.398438 C 833 152.398438 857 150 857 135.601562 C 857 121.199219 833 121.199219 833 135.601562 "/>
<path style="fill-rule:nonzero;fill:rgb(100%,0%,0%);fill-opacity:1;stroke-width:1;stroke-linecap:butt;stroke-linejoin:miter;stroke:rgb(0%,0%,0%);stroke-opacity:1;stroke-miterlimit:10;" d="M 398 430.601562 C 398 416.199219 374 416.199219 374 430.601562 C 374 445 398 447.398438 398 459.398438 C 398 447.398438 422 445 422 430.601562 C 422 416.199219 398 416.199219 398 430.601562 "/>
<path style="fill-rule:nonzero;fill:rgb(100%,0%,0%);fill-opacity:1;stroke-width:1;stroke-linecap:butt;stroke-linejoin:miter;stroke:rgb(0%,0%,0%);stroke-opacity:1;stroke-miterlimit:10;" d="M 570 354.601562 C 570 340.199219 546 340.199219 546 354.601562 C 546 369 570 371.398438 570 383.398438 C 570 371.398438 594 369 594 354.601562 C 594 340.199219 570 340.199219 570 354.601562 "/>
<path style="fill-rule:nonzero;fill:rgb(0%,0%,0%);fill-opacity:1;stroke-width:1;stroke-linecap:butt;stroke-linejoin:miter;stroke:rgb(0%,0%,0%);stroke-opacity:1;stroke-miterlimit:10;" d="M 120 66 L 100 66 L 100 76 L 120 76 L 120 96 L 130 96 L 130 76 L 150 76 L 150 66 L 130 66 L 130 46 L 120 46 L 120 66 "/>
<path style="fill-rule:nonzero;fill:rgb(0%,0%,0%);fill-opacity:1;stroke-width:1;stroke-linecap:butt;stroke-linejoin:miter;stroke:rgb(0%,0%,0%);stroke-opacity:1;stroke-miterlimit:10;" d="M 782 436 L 762 436 L 762 446 L 782 446 L 782 466 L 792 466 L 792 446 L 812 446 L 812 436 L 792 436 L 792 416 L 782 416 L 782 436 "/>
<path style="fill-rule:nonzero;fill:rgb(0%,0%,0%);fill-opacity:1;stroke-width:1;stroke-linecap:butt;stroke-linejoin:miter;stroke:rgb(0%,0%,0%);stroke-opacity:1;stroke-miterlimit:10;" d="M 213 67 L 193 67 L 193 77 L 213 77 L 213 97 L 223 97 L 223 77 L 243 77 L 243 67 L 223 67 L 223 47 L 213 47 L 213 67 "/>
<path style="fill-rule:nonzero;fill:rgb(0%,0%,0%);fill-opacity:1;stroke-width:1;stroke-linecap:butt;stroke-linejoin:miter;stroke:rgb(0%,0%,0%);stroke-opacity:1;stroke-miterlimit:10;" d="M 563 274 L 543 274 L 543 284 L 563 284 L 563 304 L 573 304 L 573 284 L 593 284 L 593 274 L 573 274 L 573 254 L 563 254 L 563 274 "/>
<path style="fill-rule:nonzero;fill:rgb(0%,0%,0%);fill-opacity:1;stroke-width:1;stroke-linecap:butt;stroke-linejoin:miter;stroke:rgb(0%,0%,0%);stroke-opacity:1;stroke-miterlimit:10;" d="M 892 357 L 872 357 L 872 367 L 892 367 L 892 387 L 902 387 L 902 367 L 922 367 L 922 357 L 902 357 L 902 337 L 892 337 L 892 357 "/>
<path style="fill-rule:nonzero;fill:rgb(0%,0%,0%);fill-opacity:1;stroke-width:1;stroke-linecap:butt;stroke-linejoin:miter;stroke:rgb(0%,0%,0%);stroke-opacity:1;stroke-miterlimit:10;" d="M 209 402 L 189 402 L 189 412 L 209 412 L 209 432 L 219 432 L 219 412 L 239 412 L 239 402 L 219 402 L 219 382 L 209 382 L 209 402 "/>
</g>
</svg>
