<?xml version="1.0" encoding="UTF-8"?>
<svg xmlns="http://www.w3.org/2000/svg" xmlns:xlink="http://www.w3.org/1999/xlink" width="1179pt" height="517pt" viewBox="0 0 1179 517" version="1.1">
<g id="surface131">
<rect x="0" y="0" width="1179" height="517" style="fill:rgb(90%,90%,90%);fill-opacity:1;stroke:none;"/>
<path style="fill-rule:nonzero;fill:rgb(100%,51%,0%);fill-opacity:1;stroke-width:1;stroke-linecap:butt;stroke-linejoin:miter;stroke:rgb(0%,0%,0%);stroke-opacity:1;stroke-miterlimit:10;" d="M 183 302 L 212.664062 302 L 224.664062 273.785156 L 236.664062 302 L 266.332031 302 L 242.332031 319.4375 L 250.417969 350.980469 L 224.664062 333.542969 L 198.914062 350.980469 L 211.214844 319.4375 L 183 302 "/>
<path style="fill-rule:nonzero;fill:rgb(100%,51%,0%);fill-opacity:1;stroke-width:1;stroke-linecap:butt;stroke-linejoin:miter;stroke:rgb(0%,0%,0%);stroke-opacity:1;stroke-miterlimit:10;" d="M 430 401 L 459.664062 401 L 471.664062 372.785156 L 483.664062 401 L 513.332031 401 L 489.332031 418.4375 L 497.417969 449.980469 L 471.664062 432.542969 L 445.914062 449.980469 L 458.214844 418.4375 L 430 401 "/>
<path style="fill-rule:nonzero;fill:rgb(100%,51%,0%);fill-opacity:1;stroke-width:1;stroke-linecap:butt;stroke-linejoin:miter;stroke:rgb(0%,0%,0%);stroke-opacity:1;stroke-miterlimit:10;" d="M 124.785156 164.785156 L 124.785156 207.214844 L 167.214844 207.214844 L 167.214844 164.785156 L 124.785156 164.785156 "/>
<path style="fill-rule:nonzero;fill:rgb(100%,51%,0%);fill-opacity:1;stroke-width:1;stroke-linecap:butt;stroke-linejoin:miter;stroke:rgb(0%,0%,0%);stroke-opacity:1;stroke-miterlimit:10;" d="M 138 90 L 167.664062 90 L 179.664062 61.785156 L 191.664062 90 L 221.332031 90 L 197.332031 107.4375 L 205.417969 138.980469 L 179.664062 121.542969 L 153.914062 138.980469 L 166.214844 107.4375 L 138 90 "/>
<path style="fill-rule:nonzero;fill:rgb(100%,51%,0%);fill-opacity:1;stroke-width:1;stroke-linecap:butt;stroke-linejoin:miter;stroke:rgb(0%,0%,0%);stroke-opacity:1;stroke-miterlimit:10;" d="M 306 312 L 335.664062 312 L 347.664062 283.785156 L 359.664062 312 L 389.332031 312 L 365.332031 329.4375 L 373.417969 360.980469 L 347.664062 343.542969 L 321.914062 360.980469 L 334.214844 329.4375 L 306 312 "/>
<path style="fill-rule:nonzero;fill:rgb(55%,51%,53%);fill-opacity:1;stroke-width:1;stroke-linecap:butt;stroke-linejoin:miter;stroke:rgb(0%,0%,0%);stroke-opacity:1;stroke-miterlimit:10;" d="M 838.785156 58.785156 L 838.785156 101.214844 L 881.214844 101.214844 L 881.214844 58.785156 L 838.785156 58.785156 "/>
<path style="fill-rule:nonzero;fill:rgb(55%,51%,53%);fill-opacity:1;stroke-width:1;stroke-linecap:butt;stroke-linejoin:miter;stroke:rgb(0%,0%,0%);stroke-opacity:1;stroke-miterlimit:10;" d="M 780.785156 315.785156 L 780.785156 358.214844 L 823.214844 358.214844 L 823.214844 315.785156 L 780.785156 315.785156 "/>
<path style="fill-rule:nonzero;fill:rgb(55%,51%,53%);fill-opacity:1;stroke-width:1;stroke-linecap:butt;stroke-linejoin:miter;stroke:rgb(0%,0%,0%);stroke-opacity:1;stroke-miterlimit:10;" d="M 1022 261 L 1051.664062 261 L 1063.664062 232.785156 L 1075.664062 261 L 1105.332031 261 L 1081.332031 278.4375 L 1089.417969 309.980469 L 1063.664062 292.542969 L 1037.914062 309.980469 L 1050.214844 278.4375 L 1022 261 "/>
<path style="fill-rule:nonzero;fill:rgb(55%,51%,53%);fill-opacity:1;stroke-width:1;stroke-linecap:butt;stroke-linejoin:miter;stroke:rgb(0%,0%,0%);stroke-opacity:1;stroke-miterlimit:10;" d="M 718.785156 163.785156 L 718.785156 206.214844 L 761.214844 206.214844 L 761.214844 163.785156 L 718.785156 163.785156 "/>
<path style="fill-rule:nonzero;fill:rgb(55%,51%,53%);fill-opacity:1;stroke-width:1;stroke-linecap:butt;stroke-linejoin:miter;stroke:rgb(0%,0%,0%);stroke-opacity:1;stroke-miterlimit:10;" d="M 1010.785156 66.785156 L 1010.785156 109.214844 L 1053.214844 109.214844 L 1053.214844 66.785156 L 1010.785156 66.785156 "/>
</g>
</svg>
