<?xml version="1.0" encoding="UTF-8"?>
<svg xmlns="http://www.w3.org/2000/svg" xmlns:xlink="http://www.w3.org/1999/xlink" width="1129pt" height="517pt" viewBox="0 0 1129 517" version="1.1">
<g id="surface561">
<rect x="0" y="0" width="1129" height="517" style="fill:rgb(90%,90%,90%);fill-opacity:1;stroke:none;"/>
<path style="fill-rule:nonzero;fill:rgb(35%,70%,90%);fill-opacity:1;stroke-width:1;stroke-linecap:butt;stroke-linejoin:miter;stroke:rgb(0%,0%,0%);stroke-opacity:1;stroke-miterlimit:10;" d="M 118.214844 102 C 118.214844 113.714844 108.714844 123.214844 97 123.214844 C 85.285156 123.214844 75.785156 113.714844 75.785156 102 C 75.785156 90.285156 85.285156 80.785156 97 80.785156 C 108.714844 80.785156 118.214844 90.285156 118.214844 102 "/>
<path style="fill-rule:nonzero;fill:rgb(35%,70%,90%);fill-opacity:1;stroke-width:1;stroke-linecap:butt;stroke-linejoin:miter;stroke:rgb(0%,0%,0%);stroke-opacity:1;stroke-miterlimit:10;" d="M 329.214844 126 C 329.214844 137.714844 319.714844 147.214844 308 147.214844 C 296.285156 147.214844 286.785156 137.714844 286.785156 126 C 286.785156 114.285156 296.285156 104.785156 308 104.785156 C 319.714844 104.785156 329.214844 114.285156 329.214844 126 "/>
<path style="fill-rule:nonzero;fill:rgb(35%,70%,90%);fill-opacity:1;stroke-width:1;stroke-linecap:butt;stroke-linejoin:miter;stroke:rgb(0%,0%,0%);stroke-opacity:1;stroke-miterlimit:10;" d="M 430.785156 83.785156 L 430.785156 126.214844 L 473.214844 126.214844 L 473.214844 83.785156 L 430.785156 83.785156 "/>
<path style="fill-rule:nonzero;fill:rgb(35%,70%,90%);fill-opacity:1;stroke-width:1;stroke-linecap:butt;stroke-linejoin:miter;stroke:rgb(0%,0%,0%);stroke-opacity:1;stroke-miterlimit:10;" d="M 348.785156 31.785156 L 348.785156 74.214844 L 391.214844 74.214844 L 391.214844 31.785156 L 348.785156 31.785156 "/>
<path style="fill-rule:nonzero;fill:rgb(35%,70%,90%);fill-opacity:1;stroke-width:1;stroke-linecap:butt;stroke-linejoin:miter;stroke:rgb(0%,0%,0%);stroke-opacity:1;stroke-miterlimit:10;" d="M 430.214844 255 C 430.214844 266.714844 420.714844 276.214844 409 276.214844 C 397.285156 276.214844 387.785156 266.714844 387.785156 255 C 387.785156 243.285156 397.285156 233.785156 409 233.785156 C 420.714844 233.785156 430.214844 243.285156 430.214844 255 "/>
<path style="fill-rule:nonzero;fill:rgb(100%,51%,0%);fill-opacity:1;stroke-width:1;stroke-linecap:butt;stroke-linejoin:miter;stroke:rgb(0%,0%,0%);stroke-opacity:1;stroke-miterlimit:10;" d="M 660.785156 48.785156 L 660.785156 91.214844 L 703.214844 91.214844 L 703.214844 48.785156 L 660.785156 48.785156 "/>
<path style="fill-rule:nonzero;fill:rgb(100%,51%,0%);fill-opacity:1;stroke-width:1;stroke-linecap:butt;stroke-linejoin:miter;stroke:rgb(0%,0%,0%);stroke-opacity:1;stroke-miterlimit:10;" d="M 793.785156 166.785156 L 793.785156 209.214844 L 836.214844 209.214844 L 836.214844 166.785156 L 793.785156 166.785156 "/>
<path style="fill-rule:nonzero;fill:rgb(100%,51%,0%);fill-opacity:1;stroke-width:1;stroke-linecap:butt;stroke-linejoin:miter;stroke:rgb(0%,0%,0%);stroke-opacity:1;stroke-miterlimit:10;" d="M 802.214844 323 C 802.214844 334.714844 792.714844 344.214844 781 344.214844 C 769.285156 344.214844 759.785156 334.714844 759.785156 323 C 759.785156 311.285156 769.285156 301.785156 781 301.785156 C 792.714844 301.785156 802.214844 311.285156 802.214844 323 "/>
<path style="fill-rule:nonzero;fill:rgb(100%,51%,0%);fill-opacity:1;stroke-width:1;stroke-linecap:butt;stroke-linejoin:miter;stroke:rgb(0%,0%,0%);stroke-opacity:1;stroke-miterlimit:10;" d="M 650.214844 457 C 650.214844 468.714844 640.714844 478.214844 629 478.214844 C 617.285156 478.214844 607.785156 468.714844 607.785156 457 C 607.785156 445.285156 617.285156 435.785156 629 435.785156 C 640.714844 435.785156 650.214844 445.285156 650.214844 457 "/>
</g>
</svg>
