<?xml version="1.0" encoding="UTF-8"?>
<svg xmlns="http://www.w3.org/2000/svg" xmlns:xlink="http://www.w3.org/1999/xlink" width="1179pt" height="517pt" viewBox="0 0 1179 517" version="1.1">
<g id="surface91">
<rect x="0" y="0" width="1179" height="517" style="fill:rgb(90%,90%,90%);fill-opacity:1;stroke:none;"/>
<path style="fill-rule:nonzero;fill:rgb(53%,27%,7%);fill-opacity:1;stroke-width:1;stroke-linecap:butt;stroke-linejoin:miter;stroke:rgb(0%,0%,0%);stroke-opacity:1;stroke-miterlimit:10;" d="M 180.214844 324 C 180.214844 335.714844 170.714844 345.214844 159 345.214844 C 147.285156 345.214844 137.785156 335.714844 137.785156 324 C 137.785156 312.285156 147.285156 302.785156 159 302.785156 C 170.714844 302.785156 180.214844 312.285156 180.214844 324 "/>
<path style="fill-rule:nonzero;fill:rgb(53%,27%,7%);fill-opacity:1;stroke-width:1;stroke-linecap:butt;stroke-linejoin:miter;stroke:rgb(0%,0%,0%);stroke-opacity:1;stroke-miterlimit:10;" d="M 266.214844 259 C 266.214844 270.714844 256.714844 280.214844 245 280.214844 C 233.285156 280.214844 223.785156 270.714844 223.785156 259 C 223.785156 247.285156 233.285156 237.785156 245 237.785156 C 256.714844 237.785156 266.214844 247.285156 266.214844 259 "/>
<path style="fill-rule:nonzero;fill:rgb(100%,51%,0%);fill-opacity:1;stroke-width:1;stroke-linecap:butt;stroke-linejoin:miter;stroke:rgb(0%,0%,0%);stroke-opacity:1;stroke-miterlimit:10;" d="M 287 100 L 316.664062 100 L 328.664062 71.785156 L 340.664062 100 L 370.332031 100 L 346.332031 117.4375 L 354.417969 148.980469 L 328.664062 131.542969 L 302.914062 148.980469 L 315.214844 117.4375 L 287 100 "/>
<path style="fill-rule:nonzero;fill:rgb(100%,51%,0%);fill-opacity:1;stroke-width:1;stroke-linecap:butt;stroke-linejoin:miter;stroke:rgb(0%,0%,0%);stroke-opacity:1;stroke-miterlimit:10;" d="M 152 217 L 181.664062 217 L 193.664062 188.785156 L 205.664062 217 L 235.332031 217 L 211.332031 234.4375 L 219.417969 265.980469 L 193.664062 248.542969 L 167.914062 265.980469 L 180.214844 234.4375 L 152 217 "/>
<path style="fill-rule:nonzero;fill:rgb(53%,27%,7%);fill-opacity:1;stroke-width:1;stroke-linecap:butt;stroke-linejoin:miter;stroke:rgb(0%,0%,0%);stroke-opacity:1;stroke-miterlimit:10;" d="M 323.214844 355 C 323.214844 366.714844 313.714844 376.214844 302 376.214844 C 290.285156 376.214844 280.785156 366.714844 280.785156 355 C 280.785156 343.285156 290.285156 333.785156 302 333.785156 C 313.714844 333.785156 323.214844 343.285156 323.214844 355 "/>
<path style="fill-rule:nonzero;fill:rgb(100%,51%,0%);fill-opacity:1;stroke-width:1;stroke-linecap:butt;stroke-linejoin:miter;stroke:rgb(0%,0%,0%);stroke-opacity:1;stroke-miterlimit:10;" d="M 865 231 L 894.664062 231 L 906.664062 202.785156 L 918.664062 231 L 948.332031 231 L 924.332031 248.4375 L 932.417969 279.980469 L 906.664062 262.542969 L 880.914062 279.980469 L 893.214844 248.4375 L 865 231 "/>
<path style="fill-rule:nonzero;fill:rgb(100%,51%,0%);fill-opacity:1;stroke-width:1;stroke-linecap:butt;stroke-linejoin:miter;stroke:rgb(0%,0%,0%);stroke-opacity:1;stroke-miterlimit:10;" d="M 967 389 L 996.664062 389 L 1008.664062 360.785156 L 1020.664062 389 L 1050.332031 389 L 1026.332031 406.4375 L 1034.417969 437.980469 L 1008.664062 420.542969 L 982.914062 437.980469 L 995.214844 406.4375 L 967 389 "/>
<path style="fill-rule:nonzero;fill:rgb(53%,27%,7%);fill-opacity:1;stroke-width:1;stroke-linecap:butt;stroke-linejoin:miter;stroke:rgb(0%,0%,0%);stroke-opacity:1;stroke-miterlimit:10;" d="M 736.214844 416 C 736.214844 427.714844 726.714844 437.214844 715 437.214844 C 703.285156 437.214844 693.785156 427.714844 693.785156 416 C 693.785156 404.285156 703.285156 394.785156 715 394.785156 C 726.714844 394.785156 736.214844 404.285156 736.214844 416 "/>
<path style="fill-rule:nonzero;fill:rgb(100%,51%,0%);fill-opacity:1;stroke-width:1;stroke-linecap:butt;stroke-linejoin:miter;stroke:rgb(0%,0%,0%);stroke-opacity:1;stroke-miterlimit:10;" d="M 770 141 L 799.664062 141 L 811.664062 112.785156 L 823.664062 141 L 853.332031 141 L 829.332031 158.4375 L 837.417969 189.980469 L 811.664062 172.542969 L 785.914062 189.980469 L 798.214844 158.4375 L 770 141 "/>
<path style="fill-rule:nonzero;fill:rgb(100%,51%,0%);fill-opacity:1;stroke-width:1;stroke-linecap:butt;stroke-linejoin:miter;stroke:rgb(0%,0%,0%);stroke-opacity:1;stroke-miterlimit:10;" d="M 935 129 L 964.664062 129 L 976.664062 100.785156 L 988.664062 129 L 1018.332031 129 L 994.332031 146.4375 L 1002.417969 177.980469 L 976.664062 160.542969 L 950.914062 177.980469 L 963.214844 146.4375 L 935 129 "/>
<path style="fill-rule:nonzero;fill:rgb(53%,27%,7%);fill-opacity:1;stroke-width:1;stroke-linecap:butt;stroke-linejoin:miter;stroke:rgb(0%,0%,0%);stroke-opacity:1;stroke-miterlimit:10;" d="M 793.214844 285 C 793.214844 296.714844 783.714844 306.214844 772 306.214844 C 760.285156 306.214844 750.785156 296.714844 750.785156 285 C 750.785156 273.285156 760.285156 263.785156 772 263.785156 C 783.714844 263.785156 793.214844 273.285156 793.214844 285 "/>
<path style="fill-rule:nonzero;fill:rgb(53%,27%,7%);fill-opacity:1;stroke-width:1;stroke-linecap:butt;stroke-linejoin:miter;stroke:rgb(0%,0%,0%);stroke-opacity:1;stroke-miterlimit:10;" d="M 890.214844 425 C 890.214844 436.714844 880.714844 446.214844 869 446.214844 C 857.285156 446.214844 847.785156 436.714844 847.785156 425 C 847.785156 413.285156 857.285156 403.785156 869 403.785156 C 880.714844 403.785156 890.214844 413.285156 890.214844 425 "/>
<path style="fill-rule:nonzero;fill:rgb(53%,27%,7%);fill-opacity:1;stroke-width:1;stroke-linecap:butt;stroke-linejoin:miter;stroke:rgb(0%,0%,0%);stroke-opacity:1;stroke-miterlimit:10;" d="M 1008.214844 261 C 1008.214844 272.714844 998.714844 282.214844 987 282.214844 C 975.285156 282.214844 965.785156 272.714844 965.785156 261 C 965.785156 249.285156 975.285156 239.785156 987 239.785156 C 998.714844 239.785156 1008.214844 249.285156 1008.214844 261 "/>
</g>
</svg>
