<?xml version="1.0" encoding="UTF-8"?>
<svg xmlns="http://www.w3.org/2000/svg" xmlns:xlink="http://www.w3.org/1999/xlink" width="1179pt" height="517pt" viewBox="0 0 1179 517" version="1.1">
<g id="surface211">
<rect x="0" y="0" width="1179" height="517" style="fill:rgb(90%,90%,90%);fill-opacity:1;stroke:none;"/>
<path style="fill-rule:nonzero;fill:rgb(53%,27%,7%);fill-opacity:1;stroke-width:1;stroke-linecap:butt;stroke-linejoin:miter;stroke:rgb(0%,0%,0%);stroke-opacity:1;stroke-miterlimit:10;" d="M 137.214844 174 C 137.214844 185.714844 127.714844 195.214844 116 195.214844 C 104.285156 195.214844 94.785156 185.714844 94.785156 174 C 94.785156 162.285156 104.285156 152.785156 116 152.785156 C 127.714844 152.785156 137.214844 162.285156 137.214844 174 "/>
<path style="fill-rule:nonzero;fill:rgb(53%,27%,7%);fill-opacity:1;stroke-width:1;stroke-linecap:butt;stroke-linejoin:miter;stroke:rgb(0%,0%,0%);stroke-opacity:1;stroke-miterlimit:10;" d="M 204.214844 383 C 204.214844 394.714844 194.714844 404.214844 183 404.214844 C 171.285156 404.214844 161.785156 394.714844 161.785156 383 C 161.785156 371.285156 171.285156 361.785156 183 361.785156 C 194.714844 361.785156 204.214844 371.285156 204.214844 383 "/>
<path style="fill-rule:nonzero;fill:rgb(53%,27%,7%);fill-opacity:1;stroke-width:1;stroke-linecap:butt;stroke-linejoin:miter;stroke:rgb(0%,0%,0%);stroke-opacity:1;stroke-miterlimit:10;" d="M 407.214844 316 C 407.214844 327.714844 397.714844 337.214844 386 337.214844 C 374.285156 337.214844 364.785156 327.714844 364.785156 316 C 364.785156 304.285156 374.285156 294.785156 386 294.785156 C 397.714844 294.785156 407.214844 304.285156 407.214844 316 "/>
<path style="fill-rule:nonzero;fill:rgb(35%,70%,90%);fill-opacity:1;stroke-width:1;stroke-linecap:butt;stroke-linejoin:miter;stroke:rgb(0%,0%,0%);stroke-opacity:1;stroke-miterlimit:10;" d="M 285 403 L 314.664062 403 L 326.664062 374.785156 L 338.664062 403 L 368.332031 403 L 344.332031 420.4375 L 352.417969 451.980469 L 326.664062 434.542969 L 300.914062 451.980469 L 313.214844 420.4375 L 285 403 "/>
<path style="fill-rule:nonzero;fill:rgb(35%,70%,90%);fill-opacity:1;stroke-width:1;stroke-linecap:butt;stroke-linejoin:miter;stroke:rgb(0%,0%,0%);stroke-opacity:1;stroke-miterlimit:10;" d="M 299 169 L 328.664062 169 L 340.664062 140.785156 L 352.664062 169 L 382.332031 169 L 358.332031 186.4375 L 366.417969 217.980469 L 340.664062 200.542969 L 314.914062 217.980469 L 327.214844 186.4375 L 299 169 "/>
<path style="fill-rule:nonzero;fill:rgb(53%,27%,7%);fill-opacity:1;stroke-width:1;stroke-linecap:butt;stroke-linejoin:miter;stroke:rgb(0%,0%,0%);stroke-opacity:1;stroke-miterlimit:10;" d="M 240.214844 91 C 240.214844 102.714844 230.714844 112.214844 219 112.214844 C 207.285156 112.214844 197.785156 102.714844 197.785156 91 C 197.785156 79.285156 207.285156 69.785156 219 69.785156 C 230.714844 69.785156 240.214844 79.285156 240.214844 91 "/>
<path style="fill-rule:nonzero;fill:rgb(53%,27%,7%);fill-opacity:1;stroke-width:1;stroke-linecap:butt;stroke-linejoin:miter;stroke:rgb(0%,0%,0%);stroke-opacity:1;stroke-miterlimit:10;" d="M 926.214844 86 C 926.214844 97.714844 916.714844 107.214844 905 107.214844 C 893.285156 107.214844 883.785156 97.714844 883.785156 86 C 883.785156 74.285156 893.285156 64.785156 905 64.785156 C 916.714844 64.785156 926.214844 74.285156 926.214844 86 "/>
<path style="fill-rule:nonzero;fill:rgb(35%,70%,90%);fill-opacity:1;stroke-width:1;stroke-linecap:butt;stroke-linejoin:miter;stroke:rgb(0%,0%,0%);stroke-opacity:1;stroke-miterlimit:10;" d="M 888 330 L 917.664062 330 L 929.664062 301.785156 L 941.664062 330 L 971.332031 330 L 947.332031 347.4375 L 955.417969 378.980469 L 929.664062 361.542969 L 903.914062 378.980469 L 916.214844 347.4375 L 888 330 "/>
<path style="fill-rule:nonzero;fill:rgb(53%,27%,7%);fill-opacity:1;stroke-width:1;stroke-linecap:butt;stroke-linejoin:miter;stroke:rgb(0%,0%,0%);stroke-opacity:1;stroke-miterlimit:10;" d="M 920.214844 231 C 920.214844 242.714844 910.714844 252.214844 899 252.214844 C 887.285156 252.214844 877.785156 242.714844 877.785156 231 C 877.785156 219.285156 887.285156 209.785156 899 209.785156 C 910.714844 209.785156 920.214844 219.285156 920.214844 231 "/>
<path style="fill-rule:nonzero;fill:rgb(53%,27%,7%);fill-opacity:1;stroke-width:1;stroke-linecap:butt;stroke-linejoin:miter;stroke:rgb(0%,0%,0%);stroke-opacity:1;stroke-miterlimit:10;" d="M 1048.214844 226 C 1048.214844 237.714844 1038.714844 247.214844 1027 247.214844 C 1015.285156 247.214844 1005.785156 237.714844 1005.785156 226 C 1005.785156 214.285156 1015.285156 204.785156 1027 204.785156 C 1038.714844 204.785156 1048.214844 214.285156 1048.214844 226 "/>
<path style="fill-rule:nonzero;fill:rgb(35%,70%,90%);fill-opacity:1;stroke-width:1;stroke-linecap:butt;stroke-linejoin:miter;stroke:rgb(0%,0%,0%);stroke-opacity:1;stroke-miterlimit:10;" d="M 805 393 L 834.664062 393 L 846.664062 364.785156 L 858.664062 393 L 888.332031 393 L 864.332031 410.4375 L 872.417969 441.980469 L 846.664062 424.542969 L 820.914062 441.980469 L 833.214844 410.4375 L 805 393 "/>
<path style="fill-rule:nonzero;fill:rgb(53%,27%,7%);fill-opacity:1;stroke-width:1;stroke-linecap:butt;stroke-linejoin:miter;stroke:rgb(0%,0%,0%);stroke-opacity:1;stroke-miterlimit:10;" d="M 759.214844 253 C 759.214844 264.714844 749.714844 274.214844 738 274.214844 C 726.285156 274.214844 716.785156 264.714844 716.785156 253 C 716.785156 241.285156 726.285156 231.785156 738 231.785156 C 749.714844 231.785156 759.214844 241.285156 759.214844 253 "/>
<path style="fill-rule:nonzero;fill:rgb(53%,27%,7%);fill-opacity:1;stroke-width:1;stroke-linecap:butt;stroke-linejoin:miter;stroke:rgb(0%,0%,0%);stroke-opacity:1;stroke-miterlimit:10;" d="M 799.214844 116 C 799.214844 127.714844 789.714844 137.214844 778 137.214844 C 766.285156 137.214844 756.785156 127.714844 756.785156 116 C 756.785156 104.285156 766.285156 94.785156 778 94.785156 C 789.714844 94.785156 799.214844 104.285156 799.214844 116 "/>
<path style="fill-rule:nonzero;fill:rgb(53%,27%,7%);fill-opacity:1;stroke-width:1;stroke-linecap:butt;stroke-linejoin:miter;stroke:rgb(0%,0%,0%);stroke-opacity:1;stroke-miterlimit:10;" d="M 1047.214844 394 C 1047.214844 405.714844 1037.714844 415.214844 1026 415.214844 C 1014.285156 415.214844 1004.785156 405.714844 1004.785156 394 C 1004.785156 382.285156 1014.285156 372.785156 1026 372.785156 C 1037.714844 372.785156 1047.214844 382.285156 1047.214844 394 "/>
</g>
</svg>
