<?xml version="1.0" encoding="UTF-8"?>
<svg xmlns="http://www.w3.org/2000/svg" xmlns:xlink="http://www.w3.org/1999/xlink" width="1129pt" height="517pt" viewBox="0 0 1129 517" version="1.1">
<g id="surface136">
<rect x="0" y="0" width="1129" height="517" style="fill:rgb(90%,90%,90%);fill-opacity:1;stroke:none;"/>
<path style="fill-rule:nonzero;fill:rgb(100%,51%,0%);fill-opacity:1;stroke-width:1;stroke-linecap:butt;stroke-linejoin:miter;stroke:rgb(0%,0%,0%);stroke-opacity:1;stroke-miterlimit:10;" d="M 368.214844 358 C 368.214844 369.714844 358.714844 379.214844 347 379.214844 C 335.285156 379.214844 325.785156 369.714844 325.785156 358 C 325.785156 346.285156 335.285156 336.785156 347 336.785156 C 358.714844 336.785156 368.214844 346.285156 368.214844 358 "/>
<path style="fill-rule:nonzero;fill:rgb(100%,51%,0%);fill-opacity:1;stroke-width:1;stroke-linecap:butt;stroke-linejoin:miter;stroke:rgb(0%,0%,0%);stroke-opacity:1;stroke-miterlimit:10;" d="M 365.214844 218 C 365.214844 229.714844 355.714844 239.214844 344 239.214844 C 332.285156 239.214844 322.785156 229.714844 322.785156 218 C 322.785156 206.285156 332.285156 196.785156 344 196.785156 C 355.714844 196.785156 365.214844 206.285156 365.214844 218 "/>
<path style="fill-rule:nonzero;fill:rgb(100%,51%,0%);fill-opacity:1;stroke-width:1;stroke-linecap:butt;stroke-linejoin:miter;stroke:rgb(0%,0%,0%);stroke-opacity:1;stroke-miterlimit:10;" d="M 173.214844 413 C 173.214844 424.714844 163.714844 434.214844 152 434.214844 C 140.285156 434.214844 130.785156 424.714844 130.785156 413 C 130.785156 401.285156 140.285156 391.785156 152 391.785156 C 163.714844 391.785156 173.214844 401.285156 173.214844 413 "/>
<path style="fill-rule:nonzero;fill:rgb(100%,51%,0%);fill-opacity:1;stroke-width:1;stroke-linecap:butt;stroke-linejoin:miter;stroke:rgb(0%,0%,0%);stroke-opacity:1;stroke-miterlimit:10;" d="M 59 391 L 33.019531 436 L 84.980469 436 L 59 391 "/>
<path style="fill-rule:nonzero;fill:rgb(100%,51%,0%);fill-opacity:1;stroke-width:1;stroke-linecap:butt;stroke-linejoin:miter;stroke:rgb(0%,0%,0%);stroke-opacity:1;stroke-miterlimit:10;" d="M 477.214844 392 C 477.214844 403.714844 467.714844 413.214844 456 413.214844 C 444.285156 413.214844 434.785156 403.714844 434.785156 392 C 434.785156 380.285156 444.285156 370.785156 456 370.785156 C 467.714844 370.785156 477.214844 380.285156 477.214844 392 "/>
<path style="fill-rule:nonzero;fill:rgb(100%,51%,0%);fill-opacity:1;stroke-width:1;stroke-linecap:butt;stroke-linejoin:miter;stroke:rgb(0%,0%,0%);stroke-opacity:1;stroke-miterlimit:10;" d="M 445.214844 142 C 445.214844 153.714844 435.714844 163.214844 424 163.214844 C 412.285156 163.214844 402.785156 153.714844 402.785156 142 C 402.785156 130.285156 412.285156 120.785156 424 120.785156 C 435.714844 120.785156 445.214844 130.285156 445.214844 142 "/>
<path style="fill-rule:nonzero;fill:rgb(55%,51%,53%);fill-opacity:1;stroke-width:1;stroke-linecap:butt;stroke-linejoin:miter;stroke:rgb(0%,0%,0%);stroke-opacity:1;stroke-miterlimit:10;" d="M 708 260 L 682.019531 305 L 733.980469 305 L 708 260 "/>
<path style="fill-rule:nonzero;fill:rgb(55%,51%,53%);fill-opacity:1;stroke-width:1;stroke-linecap:butt;stroke-linejoin:miter;stroke:rgb(0%,0%,0%);stroke-opacity:1;stroke-miterlimit:10;" d="M 905 240 L 879.019531 285 L 930.980469 285 L 905 240 "/>
<path style="fill-rule:nonzero;fill:rgb(55%,51%,53%);fill-opacity:1;stroke-width:1;stroke-linecap:butt;stroke-linejoin:miter;stroke:rgb(0%,0%,0%);stroke-opacity:1;stroke-miterlimit:10;" d="M 664 400 L 638.019531 445 L 689.980469 445 L 664 400 "/>
<path style="fill-rule:nonzero;fill:rgb(55%,51%,53%);fill-opacity:1;stroke-width:1;stroke-linecap:butt;stroke-linejoin:miter;stroke:rgb(0%,0%,0%);stroke-opacity:1;stroke-miterlimit:10;" d="M 782.214844 209 C 782.214844 220.714844 772.714844 230.214844 761 230.214844 C 749.285156 230.214844 739.785156 220.714844 739.785156 209 C 739.785156 197.285156 749.285156 187.785156 761 187.785156 C 772.714844 187.785156 782.214844 197.285156 782.214844 209 "/>
<path style="fill-rule:nonzero;fill:rgb(55%,51%,53%);fill-opacity:1;stroke-width:1;stroke-linecap:butt;stroke-linejoin:miter;stroke:rgb(0%,0%,0%);stroke-opacity:1;stroke-miterlimit:10;" d="M 852 49 L 826.019531 94 L 877.980469 94 L 852 49 "/>
<path style="fill-rule:nonzero;fill:rgb(55%,51%,53%);fill-opacity:1;stroke-width:1;stroke-linecap:butt;stroke-linejoin:miter;stroke:rgb(0%,0%,0%);stroke-opacity:1;stroke-miterlimit:10;" d="M 688 86 L 662.019531 131 L 713.980469 131 L 688 86 "/>
<path style="fill-rule:nonzero;fill:rgb(55%,51%,53%);fill-opacity:1;stroke-width:1;stroke-linecap:butt;stroke-linejoin:miter;stroke:rgb(0%,0%,0%);stroke-opacity:1;stroke-miterlimit:10;" d="M 939 118 L 913.019531 163 L 964.980469 163 L 939 118 "/>
<path style="fill-rule:nonzero;fill:rgb(55%,51%,53%);fill-opacity:1;stroke-width:1;stroke-linecap:butt;stroke-linejoin:miter;stroke:rgb(0%,0%,0%);stroke-opacity:1;stroke-miterlimit:10;" d="M 825 366 L 799.019531 411 L 850.980469 411 L 825 366 "/>
</g>
</svg>
