<?xml version="1.0" encoding="UTF-8"?>
<svg xmlns="http://www.w3.org/2000/svg" xmlns:xlink="http://www.w3.org/1999/xlink" width="1129pt" height="517pt" viewBox="0 0 1129 517" version="1.1">
<g id="surface971">
<rect x="0" y="0" width="1129" height="517" style="fill:rgb(90%,90%,90%);fill-opacity:1;stroke:none;"/>
<path style="fill-rule:nonzero;fill:rgb(35%,70%,90%);fill-opacity:1;stroke-width:1;stroke-linecap:butt;stroke-linejoin:miter;stroke:rgb(0%,0%,0%);stroke-opacity:1;stroke-miterlimit:10;" d="M 726.214844 337 C 726.214844 348.714844 716.714844 358.214844 705 358.214844 C 693.285156 358.214844 683.785156 348.714844 683.785156 337 C 683.785156 325.285156 693.285156 315.785156 705 315.785156 C 716.714844 315.785156 726.214844 325.285156 726.214844 337 "/>
<path style="fill-rule:nonzero;fill:rgb(35%,70%,90%);fill-opacity:1;stroke-width:1;stroke-linecap:butt;stroke-linejoin:miter;stroke:rgb(0%,0%,0%);stroke-opacity:1;stroke-miterlimit:10;" d="M 748.214844 121 C 748.214844 132.714844 738.714844 142.214844 727 142.214844 C 715.285156 142.214844 705.785156 132.714844 705.785156 121 C 705.785156 109.285156 715.285156 99.785156 727 99.785156 C 738.714844 99.785156 748.214844 109.285156 748.214844 121 "/>
<path style="fill-rule:nonzero;fill:rgb(35%,70%,90%);fill-opacity:1;stroke-width:1;stroke-linecap:butt;stroke-linejoin:miter;stroke:rgb(0%,0%,0%);stroke-opacity:1;stroke-miterlimit:10;" d="M 917.214844 109 C 917.214844 120.714844 907.714844 130.214844 896 130.214844 C 884.285156 130.214844 874.785156 120.714844 874.785156 109 C 874.785156 97.285156 884.285156 87.785156 896 87.785156 C 907.714844 87.785156 917.214844 97.285156 917.214844 109 "/>
<path style="fill-rule:nonzero;fill:rgb(35%,70%,90%);fill-opacity:1;stroke-width:1;stroke-linecap:butt;stroke-linejoin:miter;stroke:rgb(0%,0%,0%);stroke-opacity:1;stroke-miterlimit:10;" d="M 553.214844 242 C 553.214844 253.714844 543.714844 263.214844 532 263.214844 C 520.285156 263.214844 510.785156 253.714844 510.785156 242 C 510.785156 230.285156 520.285156 220.785156 532 220.785156 C 543.714844 220.785156 553.214844 230.285156 553.214844 242 "/>
<path style="fill-rule:nonzero;fill:rgb(35%,70%,90%);fill-opacity:1;stroke-width:1;stroke-linecap:butt;stroke-linejoin:miter;stroke:rgb(0%,0%,0%);stroke-opacity:1;stroke-miterlimit:10;" d="M 88.214844 185 C 88.214844 196.714844 78.714844 206.214844 67 206.214844 C 55.285156 206.214844 45.785156 196.714844 45.785156 185 C 45.785156 173.285156 55.285156 163.785156 67 163.785156 C 78.714844 163.785156 88.214844 173.285156 88.214844 185 "/>
<path style="fill-rule:nonzero;fill:rgb(35%,70%,90%);fill-opacity:1;stroke-width:1;stroke-linecap:butt;stroke-linejoin:miter;stroke:rgb(0%,0%,0%);stroke-opacity:1;stroke-miterlimit:10;" d="M 498.214844 153 C 498.214844 164.714844 488.714844 174.214844 477 174.214844 C 465.285156 174.214844 455.785156 164.714844 455.785156 153 C 455.785156 141.285156 465.285156 131.785156 477 131.785156 C 488.714844 131.785156 498.214844 141.285156 498.214844 153 "/>
<path style="fill-rule:nonzero;fill:rgb(35%,70%,90%);fill-opacity:1;stroke-width:1;stroke-linecap:butt;stroke-linejoin:miter;stroke:rgb(0%,0%,0%);stroke-opacity:1;stroke-miterlimit:10;" d="M 380 81 L 409.664062 81 L 421.664062 52.785156 L 433.664062 81 L 463.332031 81 L 439.332031 98.4375 L 447.417969 129.980469 L 421.664062 112.542969 L 395.914062 129.980469 L 408.214844 98.4375 L 380 81 "/>
<path style="fill-rule:nonzero;fill:rgb(35%,70%,90%);fill-opacity:1;stroke-width:1;stroke-linecap:butt;stroke-linejoin:miter;stroke:rgb(0%,0%,0%);stroke-opacity:1;stroke-miterlimit:10;" d="M 921 322 L 950.664062 322 L 962.664062 293.785156 L 974.664062 322 L 1004.332031 322 L 980.332031 339.4375 L 988.417969 370.980469 L 962.664062 353.542969 L 936.914062 370.980469 L 949.214844 339.4375 L 921 322 "/>
<path style="fill-rule:nonzero;fill:rgb(35%,70%,90%);fill-opacity:1;stroke-width:1;stroke-linecap:butt;stroke-linejoin:miter;stroke:rgb(0%,0%,0%);stroke-opacity:1;stroke-miterlimit:10;" d="M 174 118 L 203.664062 118 L 215.664062 89.785156 L 227.664062 118 L 257.332031 118 L 233.332031 135.4375 L 241.417969 166.980469 L 215.664062 149.542969 L 189.914062 166.980469 L 202.214844 135.4375 L 174 118 "/>
<path style="fill-rule:nonzero;fill:rgb(35%,70%,90%);fill-opacity:1;stroke-width:1;stroke-linecap:butt;stroke-linejoin:miter;stroke:rgb(0%,0%,0%);stroke-opacity:1;stroke-miterlimit:10;" d="M 200 338 L 229.664062 338 L 241.664062 309.785156 L 253.664062 338 L 283.332031 338 L 259.332031 355.4375 L 267.417969 386.980469 L 241.664062 369.542969 L 215.914062 386.980469 L 228.214844 355.4375 L 200 338 "/>
<path style="fill-rule:nonzero;fill:rgb(35%,70%,90%);fill-opacity:1;stroke-width:1;stroke-linecap:butt;stroke-linejoin:miter;stroke:rgb(0%,0%,0%);stroke-opacity:1;stroke-miterlimit:10;" d="M 326 315 L 355.664062 315 L 367.664062 286.785156 L 379.664062 315 L 409.332031 315 L 385.332031 332.4375 L 393.417969 363.980469 L 367.664062 346.542969 L 341.914062 363.980469 L 354.214844 332.4375 L 326 315 "/>
</g>
</svg>
