<?xml version="1.0" encoding="UTF-8"?>
<svg xmlns="http://www.w3.org/2000/svg" xmlns:xlink="http://www.w3.org/1999/xlink" width="1179pt" height="517pt" viewBox="0 0 1179 517" version="1.1">
<g id="surface6">
<rect x="0" y="0" width="1179" height="517" style="fill:rgb(90%,90%,90%);fill-opacity:1;stroke:none;"/>
<path style="fill-rule:nonzero;fill:rgb(35%,70%,90%);fill-opacity:1;stroke-width:1;stroke-linecap:butt;stroke-linejoin:miter;stroke:rgb(0%,0%,0%);stroke-opacity:1;stroke-miterlimit:10;" d="M 122 182 L 151.664062 182 L 163.664062 153.785156 L 175.664062 182 L 205.332031 182 L 181.332031 199.4375 L 189.417969 230.980469 L 163.664062 213.542969 L 137.914062 230.980469 L 150.214844 199.4375 L 122 182 "/>
<path style="fill-rule:nonzero;fill:rgb(100%,51%,0%);fill-opacity:1;stroke-width:1;stroke-linecap:butt;stroke-linejoin:miter;stroke:rgb(0%,0%,0%);stroke-opacity:1;stroke-miterlimit:10;" d="M 390 289 L 364.019531 334 L 415.980469 334 L 390 289 "/>
<path style="fill-rule:nonzero;fill:rgb(100%,51%,0%);fill-opacity:1;stroke-width:1;stroke-linecap:butt;stroke-linejoin:miter;stroke:rgb(0%,0%,0%);stroke-opacity:1;stroke-miterlimit:10;" d="M 193 401 L 167.019531 446 L 218.980469 446 L 193 401 "/>
<path style="fill-rule:nonzero;fill:rgb(100%,51%,0%);fill-opacity:1;stroke-width:1;stroke-linecap:butt;stroke-linejoin:miter;stroke:rgb(0%,0%,0%);stroke-opacity:1;stroke-miterlimit:10;" d="M 157 241 L 131.019531 286 L 182.980469 286 L 157 241 "/>
<path style="fill-rule:nonzero;fill:rgb(35%,70%,90%);fill-opacity:1;stroke-width:1;stroke-linecap:butt;stroke-linejoin:miter;stroke:rgb(0%,0%,0%);stroke-opacity:1;stroke-miterlimit:10;" d="M 215 193 L 244.664062 193 L 256.664062 164.785156 L 268.664062 193 L 298.332031 193 L 274.332031 210.4375 L 282.417969 241.980469 L 256.664062 224.542969 L 230.914062 241.980469 L 243.214844 210.4375 L 215 193 "/>
<path style="fill-rule:nonzero;fill:rgb(100%,51%,0%);fill-opacity:1;stroke-width:1;stroke-linecap:butt;stroke-linejoin:miter;stroke:rgb(0%,0%,0%);stroke-opacity:1;stroke-miterlimit:10;" d="M 161 64 L 135.019531 109 L 186.980469 109 L 161 64 "/>
<path style="fill-rule:nonzero;fill:rgb(35%,70%,90%);fill-opacity:1;stroke-width:1;stroke-linecap:butt;stroke-linejoin:miter;stroke:rgb(0%,0%,0%);stroke-opacity:1;stroke-miterlimit:10;" d="M 993 346 L 1022.664062 346 L 1034.664062 317.785156 L 1046.664062 346 L 1076.332031 346 L 1052.332031 363.4375 L 1060.417969 394.980469 L 1034.664062 377.542969 L 1008.914062 394.980469 L 1021.214844 363.4375 L 993 346 "/>
<path style="fill-rule:nonzero;fill:rgb(35%,70%,90%);fill-opacity:1;stroke-width:1;stroke-linecap:butt;stroke-linejoin:miter;stroke:rgb(0%,0%,0%);stroke-opacity:1;stroke-miterlimit:10;" d="M 728 383 L 757.664062 383 L 769.664062 354.785156 L 781.664062 383 L 811.332031 383 L 787.332031 400.4375 L 795.417969 431.980469 L 769.664062 414.542969 L 743.914062 431.980469 L 756.214844 400.4375 L 728 383 "/>
<path style="fill-rule:nonzero;fill:rgb(35%,70%,90%);fill-opacity:1;stroke-width:1;stroke-linecap:butt;stroke-linejoin:miter;stroke:rgb(0%,0%,0%);stroke-opacity:1;stroke-miterlimit:10;" d="M 708 102 L 737.664062 102 L 749.664062 73.785156 L 761.664062 102 L 791.332031 102 L 767.332031 119.4375 L 775.417969 150.980469 L 749.664062 133.542969 L 723.914062 150.980469 L 736.214844 119.4375 L 708 102 "/>
<path style="fill-rule:nonzero;fill:rgb(35%,70%,90%);fill-opacity:1;stroke-width:1;stroke-linecap:butt;stroke-linejoin:miter;stroke:rgb(0%,0%,0%);stroke-opacity:1;stroke-miterlimit:10;" d="M 846 178 L 875.664062 178 L 887.664062 149.785156 L 899.664062 178 L 929.332031 178 L 905.332031 195.4375 L 913.417969 226.980469 L 887.664062 209.542969 L 861.914062 226.980469 L 874.214844 195.4375 L 846 178 "/>
<path style="fill-rule:nonzero;fill:rgb(35%,70%,90%);fill-opacity:1;stroke-width:1;stroke-linecap:butt;stroke-linejoin:miter;stroke:rgb(0%,0%,0%);stroke-opacity:1;stroke-miterlimit:10;" d="M 976 143 L 1005.664062 143 L 1017.664062 114.785156 L 1029.664062 143 L 1059.332031 143 L 1035.332031 160.4375 L 1043.417969 191.980469 L 1017.664062 174.542969 L 991.914062 191.980469 L 1004.214844 160.4375 L 976 143 "/>
<path style="fill-rule:nonzero;fill:rgb(100%,51%,0%);fill-opacity:1;stroke-width:1;stroke-linecap:butt;stroke-linejoin:miter;stroke:rgb(0%,0%,0%);stroke-opacity:1;stroke-miterlimit:10;" d="M 814 52 L 788.019531 97 L 839.980469 97 L 814 52 "/>
</g>
</svg>
