<?xml version="1.0" encoding="UTF-8"?>
<svg xmlns="http://www.w3.org/2000/svg" xmlns:xlink="http://www.w3.org/1999/xlink" width="1129pt" height="517pt" viewBox="0 0 1129 517" version="1.1">
<g id="surface701">
<rect x="0" y="0" width="1129" height="517" style="fill:rgb(90%,90%,90%);fill-opacity:1;stroke:none;"/>
<path style="fill-rule:nonzero;fill:rgb(55%,51%,53%);fill-opacity:1;stroke-width:1;stroke-linecap:butt;stroke-linejoin:miter;stroke:rgb(0%,0%,0%);stroke-opacity:1;stroke-miterlimit:10;" d="M 93 108 L 122.664062 108 L 134.664062 79.785156 L 146.664062 108 L 176.332031 108 L 152.332031 125.4375 L 160.417969 156.980469 L 134.664062 139.542969 L 108.914062 156.980469 L 121.214844 125.4375 L 93 108 "/>
<path style="fill-rule:nonzero;fill:rgb(55%,51%,53%);fill-opacity:1;stroke-width:1;stroke-linecap:butt;stroke-linejoin:miter;stroke:rgb(0%,0%,0%);stroke-opacity:1;stroke-miterlimit:10;" d="M 178 192 L 207.664062 192 L 219.664062 163.785156 L 231.664062 192 L 261.332031 192 L 237.332031 209.4375 L 245.417969 240.980469 L 219.664062 223.542969 L 193.914062 240.980469 L 206.214844 209.4375 L 178 192 "/>
<path style="fill-rule:nonzero;fill:rgb(53%,27%,7%);fill-opacity:1;stroke-width:1;stroke-linecap:butt;stroke-linejoin:miter;stroke:rgb(0%,0%,0%);stroke-opacity:1;stroke-miterlimit:10;" d="M 271 449 L 300.664062 449 L 312.664062 420.785156 L 324.664062 449 L 354.332031 449 L 330.332031 466.4375 L 338.417969 497.980469 L 312.664062 480.542969 L 286.914062 497.980469 L 299.214844 466.4375 L 271 449 "/>
<path style="fill-rule:nonzero;fill:rgb(55%,51%,53%);fill-opacity:1;stroke-width:1;stroke-linecap:butt;stroke-linejoin:miter;stroke:rgb(0%,0%,0%);stroke-opacity:1;stroke-miterlimit:10;" d="M 134 460 L 163.664062 460 L 175.664062 431.785156 L 187.664062 460 L 217.332031 460 L 193.332031 477.4375 L 201.417969 508.980469 L 175.664062 491.542969 L 149.914062 508.980469 L 162.214844 477.4375 L 134 460 "/>
<path style="fill-rule:nonzero;fill:rgb(55%,51%,53%);fill-opacity:1;stroke-width:1;stroke-linecap:butt;stroke-linejoin:miter;stroke:rgb(0%,0%,0%);stroke-opacity:1;stroke-miterlimit:10;" d="M 435 376 L 464.664062 376 L 476.664062 347.785156 L 488.664062 376 L 518.332031 376 L 494.332031 393.4375 L 502.417969 424.980469 L 476.664062 407.542969 L 450.914062 424.980469 L 463.214844 393.4375 L 435 376 "/>
<path style="fill-rule:nonzero;fill:rgb(53%,27%,7%);fill-opacity:1;stroke-width:1;stroke-linecap:butt;stroke-linejoin:miter;stroke:rgb(0%,0%,0%);stroke-opacity:1;stroke-miterlimit:10;" d="M 920.785156 348.785156 L 920.785156 391.214844 L 963.214844 391.214844 L 963.214844 348.785156 L 920.785156 348.785156 "/>
<path style="fill-rule:nonzero;fill:rgb(53%,27%,7%);fill-opacity:1;stroke-width:1;stroke-linecap:butt;stroke-linejoin:miter;stroke:rgb(0%,0%,0%);stroke-opacity:1;stroke-miterlimit:10;" d="M 771.785156 77.785156 L 771.785156 120.214844 L 814.214844 120.214844 L 814.214844 77.785156 L 771.785156 77.785156 "/>
<path style="fill-rule:nonzero;fill:rgb(55%,51%,53%);fill-opacity:1;stroke-width:1;stroke-linecap:butt;stroke-linejoin:miter;stroke:rgb(0%,0%,0%);stroke-opacity:1;stroke-miterlimit:10;" d="M 804.785156 320.785156 L 804.785156 363.214844 L 847.214844 363.214844 L 847.214844 320.785156 L 804.785156 320.785156 "/>
<path style="fill-rule:nonzero;fill:rgb(53%,27%,7%);fill-opacity:1;stroke-width:1;stroke-linecap:butt;stroke-linejoin:miter;stroke:rgb(0%,0%,0%);stroke-opacity:1;stroke-miterlimit:10;" d="M 624.785156 177.785156 L 624.785156 220.214844 L 667.214844 220.214844 L 667.214844 177.785156 L 624.785156 177.785156 "/>
<path style="fill-rule:nonzero;fill:rgb(53%,27%,7%);fill-opacity:1;stroke-width:1;stroke-linecap:butt;stroke-linejoin:miter;stroke:rgb(0%,0%,0%);stroke-opacity:1;stroke-miterlimit:10;" d="M 590.785156 279.785156 L 590.785156 322.214844 L 633.214844 322.214844 L 633.214844 279.785156 L 590.785156 279.785156 "/>
<path style="fill-rule:nonzero;fill:rgb(53%,27%,7%);fill-opacity:1;stroke-width:1;stroke-linecap:butt;stroke-linejoin:miter;stroke:rgb(0%,0%,0%);stroke-opacity:1;stroke-miterlimit:10;" d="M 728.785156 254.785156 L 728.785156 297.214844 L 771.214844 297.214844 L 771.214844 254.785156 L 728.785156 254.785156 "/>
<path style="fill-rule:nonzero;fill:rgb(53%,27%,7%);fill-opacity:1;stroke-width:1;stroke-linecap:butt;stroke-linejoin:miter;stroke:rgb(0%,0%,0%);stroke-opacity:1;stroke-miterlimit:10;" d="M 747.785156 439.785156 L 747.785156 482.214844 L 790.214844 482.214844 L 790.214844 439.785156 L 747.785156 439.785156 "/>
</g>
</svg>
