<?xml version="1.0" encoding="UTF-8"?>
<svg xmlns="http://www.w3.org/2000/svg" xmlns:xlink="http://www.w3.org/1999/xlink" width="1129pt" height="517pt" viewBox="0 0 1129 517" version="1.1">
<g id="surface441">
<rect x="0" y="0" width="1129" height="517" style="fill:rgb(90%,90%,90%);fill-opacity:1;stroke:none;"/>
<path style="fill-rule:nonzero;fill:rgb(35%,70%,90%);fill-opacity:1;stroke-width:1;stroke-linecap:butt;stroke-linejoin:miter;stroke:rgb(0%,0%,0%);stroke-opacity:1;stroke-miterlimit:10;" d="M 346.214844 331 C 346.214844 342.714844 336.714844 352.214844 325 352.214844 C 313.285156 352.214844 303.785156 342.714844 303.785156 331 C 303.785156 319.285156 313.285156 309.785156 325 309.785156 C 336.714844 309.785156 346.214844 319.285156 346.214844 331 "/>
<path style="fill-rule:nonzero;fill:rgb(55%,51%,53%);fill-opacity:1;stroke-width:1;stroke-linecap:butt;stroke-linejoin:miter;stroke:rgb(0%,0%,0%);stroke-opacity:1;stroke-miterlimit:10;" d="M 161.214844 362 C 161.214844 373.714844 151.714844 383.214844 140 383.214844 C 128.285156 383.214844 118.785156 373.714844 118.785156 362 C 118.785156 350.285156 128.285156 340.785156 140 340.785156 C 151.714844 340.785156 161.214844 350.285156 161.214844 362 "/>
<path style="fill-rule:nonzero;fill:rgb(55%,51%,53%);fill-opacity:1;stroke-width:1;stroke-linecap:butt;stroke-linejoin:miter;stroke:rgb(0%,0%,0%);stroke-opacity:1;stroke-miterlimit:10;" d="M 470.214844 282 C 470.214844 293.714844 460.714844 303.214844 449 303.214844 C 437.285156 303.214844 427.785156 293.714844 427.785156 282 C 427.785156 270.285156 437.285156 260.785156 449 260.785156 C 460.714844 260.785156 470.214844 270.285156 470.214844 282 "/>
<path style="fill-rule:nonzero;fill:rgb(35%,70%,90%);fill-opacity:1;stroke-width:1;stroke-linecap:butt;stroke-linejoin:miter;stroke:rgb(0%,0%,0%);stroke-opacity:1;stroke-miterlimit:10;" d="M 344.214844 132 C 344.214844 143.714844 334.714844 153.214844 323 153.214844 C 311.285156 153.214844 301.785156 143.714844 301.785156 132 C 301.785156 120.285156 311.285156 110.785156 323 110.785156 C 334.714844 110.785156 344.214844 120.285156 344.214844 132 "/>
<path style="fill-rule:nonzero;fill:rgb(35%,70%,90%);fill-opacity:1;stroke-width:1;stroke-linecap:butt;stroke-linejoin:miter;stroke:rgb(0%,0%,0%);stroke-opacity:1;stroke-miterlimit:10;" d="M 368.214844 228 C 368.214844 239.714844 358.714844 249.214844 347 249.214844 C 335.285156 249.214844 325.785156 239.714844 325.785156 228 C 325.785156 216.285156 335.285156 206.785156 347 206.785156 C 358.714844 206.785156 368.214844 216.285156 368.214844 228 "/>
<path style="fill-rule:nonzero;fill:rgb(55%,51%,53%);fill-opacity:1;stroke-width:1;stroke-linecap:butt;stroke-linejoin:miter;stroke:rgb(0%,0%,0%);stroke-opacity:1;stroke-miterlimit:10;" d="M 981.785156 268.785156 L 981.785156 311.214844 L 1024.214844 311.214844 L 1024.214844 268.785156 L 981.785156 268.785156 "/>
<path style="fill-rule:nonzero;fill:rgb(35%,70%,90%);fill-opacity:1;stroke-width:1;stroke-linecap:butt;stroke-linejoin:miter;stroke:rgb(0%,0%,0%);stroke-opacity:1;stroke-miterlimit:10;" d="M 656.785156 281.785156 L 656.785156 324.214844 L 699.214844 324.214844 L 699.214844 281.785156 L 656.785156 281.785156 "/>
<path style="fill-rule:nonzero;fill:rgb(35%,70%,90%);fill-opacity:1;stroke-width:1;stroke-linecap:butt;stroke-linejoin:miter;stroke:rgb(0%,0%,0%);stroke-opacity:1;stroke-miterlimit:10;" d="M 685.785156 112.785156 L 685.785156 155.214844 L 728.214844 155.214844 L 728.214844 112.785156 L 685.785156 112.785156 "/>
<path style="fill-rule:nonzero;fill:rgb(55%,51%,53%);fill-opacity:1;stroke-width:1;stroke-linecap:butt;stroke-linejoin:miter;stroke:rgb(0%,0%,0%);stroke-opacity:1;stroke-miterlimit:10;" d="M 825.785156 262.785156 L 825.785156 305.214844 L 868.214844 305.214844 L 868.214844 262.785156 L 825.785156 262.785156 "/>
</g>
</svg>
