<?xml version="1.0" encoding="UTF-8"?>
<svg xmlns="http://www.w3.org/2000/svg" xmlns:xlink="http://www.w3.org/1999/xlink" width="1179pt" height="517pt" viewBox="0 0 1179 517" version="1.1">
<g id="surface31">
<rect x="0" y="0" width="1179" height="517" style="fill:rgb(90%,90%,90%);fill-opacity:1;stroke:none;"/>
<path style="fill-rule:nonzero;fill:rgb(53%,27%,7%);fill-opacity:1;stroke-width:1;stroke-linecap:butt;stroke-linejoin:miter;stroke:rgb(0%,0%,0%);stroke-opacity:1;stroke-miterlimit:10;" d="M 155.214844 234 C 155.214844 245.714844 145.714844 255.214844 134 255.214844 C 122.285156 255.214844 112.785156 245.714844 112.785156 234 C 112.785156 222.285156 122.285156 212.785156 134 212.785156 C 145.714844 212.785156 155.214844 222.285156 155.214844 234 "/>
<path style="fill-rule:nonzero;fill:rgb(53%,27%,7%);fill-opacity:1;stroke-width:1;stroke-linecap:butt;stroke-linejoin:miter;stroke:rgb(0%,0%,0%);stroke-opacity:1;stroke-miterlimit:10;" d="M 132.214844 361 C 132.214844 372.714844 122.714844 382.214844 111 382.214844 C 99.285156 382.214844 89.785156 372.714844 89.785156 361 C 89.785156 349.285156 99.285156 339.785156 111 339.785156 C 122.714844 339.785156 132.214844 349.285156 132.214844 361 "/>
<path style="fill-rule:nonzero;fill:rgb(53%,27%,7%);fill-opacity:1;stroke-width:1;stroke-linecap:butt;stroke-linejoin:miter;stroke:rgb(0%,0%,0%);stroke-opacity:1;stroke-miterlimit:10;" d="M 391.214844 152 C 391.214844 163.714844 381.714844 173.214844 370 173.214844 C 358.285156 173.214844 348.785156 163.714844 348.785156 152 C 348.785156 140.285156 358.285156 130.785156 370 130.785156 C 381.714844 130.785156 391.214844 140.285156 391.214844 152 "/>
<path style="fill-rule:nonzero;fill:rgb(53%,27%,7%);fill-opacity:1;stroke-width:1;stroke-linecap:butt;stroke-linejoin:miter;stroke:rgb(0%,0%,0%);stroke-opacity:1;stroke-miterlimit:10;" d="M 239.214844 196 C 239.214844 207.714844 229.714844 217.214844 218 217.214844 C 206.285156 217.214844 196.785156 207.714844 196.785156 196 C 196.785156 184.285156 206.285156 174.785156 218 174.785156 C 229.714844 174.785156 239.214844 184.285156 239.214844 196 "/>
<path style="fill-rule:nonzero;fill:rgb(53%,27%,7%);fill-opacity:1;stroke-width:1;stroke-linecap:butt;stroke-linejoin:miter;stroke:rgb(0%,0%,0%);stroke-opacity:1;stroke-miterlimit:10;" d="M 947.214844 348 C 947.214844 359.714844 937.714844 369.214844 926 369.214844 C 914.285156 369.214844 904.785156 359.714844 904.785156 348 C 904.785156 336.285156 914.285156 326.785156 926 326.785156 C 937.714844 326.785156 947.214844 336.285156 947.214844 348 "/>
<path style="fill-rule:nonzero;fill:rgb(35%,70%,90%);fill-opacity:1;stroke-width:1;stroke-linecap:butt;stroke-linejoin:miter;stroke:rgb(0%,0%,0%);stroke-opacity:1;stroke-miterlimit:10;" d="M 899 215 L 928.664062 215 L 940.664062 186.785156 L 952.664062 215 L 982.332031 215 L 958.332031 232.4375 L 966.417969 263.980469 L 940.664062 246.542969 L 914.914062 263.980469 L 927.214844 232.4375 L 899 215 "/>
<path style="fill-rule:nonzero;fill:rgb(53%,27%,7%);fill-opacity:1;stroke-width:1;stroke-linecap:butt;stroke-linejoin:miter;stroke:rgb(0%,0%,0%);stroke-opacity:1;stroke-miterlimit:10;" d="M 956.214844 84 C 956.214844 95.714844 946.714844 105.214844 935 105.214844 C 923.285156 105.214844 913.785156 95.714844 913.785156 84 C 913.785156 72.285156 923.285156 62.785156 935 62.785156 C 946.714844 62.785156 956.214844 72.285156 956.214844 84 "/>
<path style="fill-rule:nonzero;fill:rgb(53%,27%,7%);fill-opacity:1;stroke-width:1;stroke-linecap:butt;stroke-linejoin:miter;stroke:rgb(0%,0%,0%);stroke-opacity:1;stroke-miterlimit:10;" d="M 758.214844 207 C 758.214844 218.714844 748.714844 228.214844 737 228.214844 C 725.285156 228.214844 715.785156 218.714844 715.785156 207 C 715.785156 195.285156 725.285156 185.785156 737 185.785156 C 748.714844 185.785156 758.214844 195.285156 758.214844 207 "/>
<path style="fill-rule:nonzero;fill:rgb(53%,27%,7%);fill-opacity:1;stroke-width:1;stroke-linecap:butt;stroke-linejoin:miter;stroke:rgb(0%,0%,0%);stroke-opacity:1;stroke-miterlimit:10;" d="M 764.214844 318 C 764.214844 329.714844 754.714844 339.214844 743 339.214844 C 731.285156 339.214844 721.785156 329.714844 721.785156 318 C 721.785156 306.285156 731.285156 296.785156 743 296.785156 C 754.714844 296.785156 764.214844 306.285156 764.214844 318 "/>
</g>
</svg>
