<?xml version="1.0" encoding="UTF-8"?>
<svg xmlns="http://www.w3.org/2000/svg" xmlns:xlink="http://www.w3.org/1999/xlink" width="1129pt" height="517pt" viewBox="0 0 1129 517" version="1.1">
<g id="surface16">
<rect x="0" y="0" width="1129" height="517" style="fill:rgb(90%,90%,90%);fill-opacity:1;stroke:none;"/>
<path style="fill-rule:nonzero;fill:rgb(35%,70%,90%);fill-opacity:1;stroke-width:1;stroke-linecap:butt;stroke-linejoin:miter;stroke:rgb(0%,0%,0%);stroke-opacity:1;stroke-miterlimit:10;" d="M 227.214844 236 C 227.214844 247.714844 217.714844 257.214844 206 257.214844 C 194.285156 257.214844 184.785156 247.714844 184.785156 236 C 184.785156 224.285156 194.285156 214.785156 206 214.785156 C 217.714844 214.785156 227.214844 224.285156 227.214844 236 "/>
<path style="fill-rule:nonzero;fill:rgb(35%,70%,90%);fill-opacity:1;stroke-width:1;stroke-linecap:butt;stroke-linejoin:miter;stroke:rgb(0%,0%,0%);stroke-opacity:1;stroke-miterlimit:10;" d="M 52 169 L 26.019531 214 L 77.980469 214 L 52 169 "/>
<path style="fill-rule:nonzero;fill:rgb(35%,70%,90%);fill-opacity:1;stroke-width:1;stroke-linecap:butt;stroke-linejoin:miter;stroke:rgb(0%,0%,0%);stroke-opacity:1;stroke-miterlimit:10;" d="M 399 44 L 373.019531 89 L 424.980469 89 L 399 44 "/>
<path style="fill-rule:nonzero;fill:rgb(35%,70%,90%);fill-opacity:1;stroke-width:1;stroke-linecap:butt;stroke-linejoin:miter;stroke:rgb(0%,0%,0%);stroke-opacity:1;stroke-miterlimit:10;" d="M 186.214844 56 C 186.214844 67.714844 176.714844 77.214844 165 77.214844 C 153.285156 77.214844 143.785156 67.714844 143.785156 56 C 143.785156 44.285156 153.285156 34.785156 165 34.785156 C 176.714844 34.785156 186.214844 44.285156 186.214844 56 "/>
<path style="fill-rule:nonzero;fill:rgb(35%,70%,90%);fill-opacity:1;stroke-width:1;stroke-linecap:butt;stroke-linejoin:miter;stroke:rgb(0%,0%,0%);stroke-opacity:1;stroke-miterlimit:10;" d="M 472.214844 231 C 472.214844 242.714844 462.714844 252.214844 451 252.214844 C 439.285156 252.214844 429.785156 242.714844 429.785156 231 C 429.785156 219.285156 439.285156 209.785156 451 209.785156 C 462.714844 209.785156 472.214844 219.285156 472.214844 231 "/>
<path style="fill-rule:nonzero;fill:rgb(35%,70%,90%);fill-opacity:1;stroke-width:1;stroke-linecap:butt;stroke-linejoin:miter;stroke:rgb(0%,0%,0%);stroke-opacity:1;stroke-miterlimit:10;" d="M 126.214844 376 C 126.214844 387.714844 116.714844 397.214844 105 397.214844 C 93.285156 397.214844 83.785156 387.714844 83.785156 376 C 83.785156 364.285156 93.285156 354.785156 105 354.785156 C 116.714844 354.785156 126.214844 364.285156 126.214844 376 "/>
<path style="fill-rule:nonzero;fill:rgb(35%,70%,90%);fill-opacity:1;stroke-width:1;stroke-linecap:butt;stroke-linejoin:miter;stroke:rgb(0%,0%,0%);stroke-opacity:1;stroke-miterlimit:10;" d="M 382.214844 343 C 382.214844 354.714844 372.714844 364.214844 361 364.214844 C 349.285156 364.214844 339.785156 354.714844 339.785156 343 C 339.785156 331.285156 349.285156 321.785156 361 321.785156 C 372.714844 321.785156 382.214844 331.285156 382.214844 343 "/>
<path style="fill-rule:nonzero;fill:rgb(100%,51%,0%);fill-opacity:1;stroke-width:1;stroke-linecap:butt;stroke-linejoin:miter;stroke:rgb(0%,0%,0%);stroke-opacity:1;stroke-miterlimit:10;" d="M 839 248 L 813.019531 293 L 864.980469 293 L 839 248 "/>
<path style="fill-rule:nonzero;fill:rgb(100%,51%,0%);fill-opacity:1;stroke-width:1;stroke-linecap:butt;stroke-linejoin:miter;stroke:rgb(0%,0%,0%);stroke-opacity:1;stroke-miterlimit:10;" d="M 812.214844 168 C 812.214844 179.714844 802.714844 189.214844 791 189.214844 C 779.285156 189.214844 769.785156 179.714844 769.785156 168 C 769.785156 156.285156 779.285156 146.785156 791 146.785156 C 802.714844 146.785156 812.214844 156.285156 812.214844 168 "/>
<path style="fill-rule:nonzero;fill:rgb(100%,51%,0%);fill-opacity:1;stroke-width:1;stroke-linecap:butt;stroke-linejoin:miter;stroke:rgb(0%,0%,0%);stroke-opacity:1;stroke-miterlimit:10;" d="M 658.214844 204 C 658.214844 215.714844 648.714844 225.214844 637 225.214844 C 625.285156 225.214844 615.785156 215.714844 615.785156 204 C 615.785156 192.285156 625.285156 182.785156 637 182.785156 C 648.714844 182.785156 658.214844 192.285156 658.214844 204 "/>
<path style="fill-rule:nonzero;fill:rgb(100%,51%,0%);fill-opacity:1;stroke-width:1;stroke-linecap:butt;stroke-linejoin:miter;stroke:rgb(0%,0%,0%);stroke-opacity:1;stroke-miterlimit:10;" d="M 954 383 L 928.019531 428 L 979.980469 428 L 954 383 "/>
</g>
</svg>
