<?xml version="1.0" encoding="UTF-8"?>
<svg xmlns="http://www.w3.org/2000/svg" xmlns:xlink="http://www.w3.org/1999/xlink" width="1179pt" height="517pt" viewBox="0 0 1179 517" version="1.1">
<g id="surface941">
<rect x="0" y="0" width="1179" height="517" style="fill:rgb(90%,90%,90%);fill-opacity:1;stroke:none;"/>
<path style="fill-rule:nonzero;fill:rgb(53%,27%,7%);fill-opacity:1;stroke-width:1;stroke-linecap:butt;stroke-linejoin:miter;stroke:rgb(0%,0%,0%);stroke-opacity:1;stroke-miterlimit:10;" d="M 173 142.601562 C 173 128.199219 149 128.199219 149 142.601562 C 149 157 173 159.398438 173 171.398438 C 173 159.398438 197 157 197 142.601562 C 197 128.199219 173 128.199219 173 142.601562 "/>
<path style="fill-rule:nonzero;fill:rgb(53%,27%,7%);fill-opacity:1;stroke-width:1;stroke-linecap:butt;stroke-linejoin:miter;stroke:rgb(0%,0%,0%);stroke-opacity:1;stroke-miterlimit:10;" d="M 148.214844 400 C 148.214844 411.714844 138.714844 421.214844 127 421.214844 C 115.285156 421.214844 105.785156 411.714844 105.785156 400 C 105.785156 388.285156 115.285156 378.785156 127 378.785156 C 138.714844 378.785156 148.214844 388.285156 148.214844 400 "/>
<path style="fill-rule:nonzero;fill:rgb(53%,27%,7%);fill-opacity:1;stroke-width:1;stroke-linecap:butt;stroke-linejoin:miter;stroke:rgb(0%,0%,0%);stroke-opacity:1;stroke-miterlimit:10;" d="M 125.214844 254 C 125.214844 265.714844 115.714844 275.214844 104 275.214844 C 92.285156 275.214844 82.785156 265.714844 82.785156 254 C 82.785156 242.285156 92.285156 232.785156 104 232.785156 C 115.714844 232.785156 125.214844 242.285156 125.214844 254 "/>
<path style="fill-rule:nonzero;fill:rgb(53%,27%,7%);fill-opacity:1;stroke-width:1;stroke-linecap:butt;stroke-linejoin:miter;stroke:rgb(0%,0%,0%);stroke-opacity:1;stroke-miterlimit:10;" d="M 304 179.601562 C 304 165.199219 280 165.199219 280 179.601562 C 280 194 304 196.398438 304 208.398438 C 304 196.398438 328 194 328 179.601562 C 328 165.199219 304 165.199219 304 179.601562 "/>
<path style="fill-rule:nonzero;fill:rgb(53%,27%,7%);fill-opacity:1;stroke-width:1;stroke-linecap:butt;stroke-linejoin:miter;stroke:rgb(0%,0%,0%);stroke-opacity:1;stroke-miterlimit:10;" d="M 340 80.601562 C 340 66.199219 316 66.199219 316 80.601562 C 316 95 340 97.398438 340 109.398438 C 340 97.398438 364 95 364 80.601562 C 364 66.199219 340 66.199219 340 80.601562 "/>
<path style="fill-rule:nonzero;fill:rgb(53%,27%,7%);fill-opacity:1;stroke-width:1;stroke-linecap:butt;stroke-linejoin:miter;stroke:rgb(0%,0%,0%);stroke-opacity:1;stroke-miterlimit:10;" d="M 292 335.601562 C 292 321.199219 268 321.199219 268 335.601562 C 268 350 292 352.398438 292 364.398438 C 292 352.398438 316 350 316 335.601562 C 316 321.199219 292 321.199219 292 335.601562 "/>
<path style="fill-rule:nonzero;fill:rgb(53%,27%,7%);fill-opacity:1;stroke-width:1;stroke-linecap:butt;stroke-linejoin:miter;stroke:rgb(0%,0%,0%);stroke-opacity:1;stroke-miterlimit:10;" d="M 380 409.601562 C 380 395.199219 356 395.199219 356 409.601562 C 356 424 380 426.398438 380 438.398438 C 380 426.398438 404 424 404 409.601562 C 404 395.199219 380 395.199219 380 409.601562 "/>
<path style="fill-rule:nonzero;fill:rgb(53%,27%,7%);fill-opacity:1;stroke-width:1;stroke-linecap:butt;stroke-linejoin:miter;stroke:rgb(0%,0%,0%);stroke-opacity:1;stroke-miterlimit:10;" d="M 216 259.601562 C 216 245.199219 192 245.199219 192 259.601562 C 192 274 216 276.398438 216 288.398438 C 216 276.398438 240 274 240 259.601562 C 240 245.199219 216 245.199219 216 259.601562 "/>
<path style="fill-rule:nonzero;fill:rgb(100%,51%,0%);fill-opacity:1;stroke-width:1;stroke-linecap:butt;stroke-linejoin:miter;stroke:rgb(0%,0%,0%);stroke-opacity:1;stroke-miterlimit:10;" d="M 811.214844 271 C 811.214844 282.714844 801.714844 292.214844 790 292.214844 C 778.285156 292.214844 768.785156 282.714844 768.785156 271 C 768.785156 259.285156 778.285156 249.785156 790 249.785156 C 801.714844 249.785156 811.214844 259.285156 811.214844 271 "/>
<path style="fill-rule:nonzero;fill:rgb(100%,51%,0%);fill-opacity:1;stroke-width:1;stroke-linecap:butt;stroke-linejoin:miter;stroke:rgb(0%,0%,0%);stroke-opacity:1;stroke-miterlimit:10;" d="M 931 273.601562 C 931 259.199219 907 259.199219 907 273.601562 C 907 288 931 290.398438 931 302.398438 C 931 290.398438 955 288 955 273.601562 C 955 259.199219 931 259.199219 931 273.601562 "/>
<path style="fill-rule:nonzero;fill:rgb(100%,51%,0%);fill-opacity:1;stroke-width:1;stroke-linecap:butt;stroke-linejoin:miter;stroke:rgb(0%,0%,0%);stroke-opacity:1;stroke-miterlimit:10;" d="M 767 115.601562 C 767 101.199219 743 101.199219 743 115.601562 C 743 130 767 132.398438 767 144.398438 C 767 132.398438 791 130 791 115.601562 C 791 101.199219 767 101.199219 767 115.601562 "/>
<path style="fill-rule:nonzero;fill:rgb(100%,51%,0%);fill-opacity:1;stroke-width:1;stroke-linecap:butt;stroke-linejoin:miter;stroke:rgb(0%,0%,0%);stroke-opacity:1;stroke-miterlimit:10;" d="M 971.214844 111 C 971.214844 122.714844 961.714844 132.214844 950 132.214844 C 938.285156 132.214844 928.785156 122.714844 928.785156 111 C 928.785156 99.285156 938.285156 89.785156 950 89.785156 C 961.714844 89.785156 971.214844 99.285156 971.214844 111 "/>
<path style="fill-rule:nonzero;fill:rgb(100%,51%,0%);fill-opacity:1;stroke-width:1;stroke-linecap:butt;stroke-linejoin:miter;stroke:rgb(0%,0%,0%);stroke-opacity:1;stroke-miterlimit:10;" d="M 804.214844 378 C 804.214844 389.714844 794.714844 399.214844 783 399.214844 C 771.285156 399.214844 761.785156 389.714844 761.785156 378 C 761.785156 366.285156 771.285156 356.785156 783 356.785156 C 794.714844 356.785156 804.214844 366.285156 804.214844 378 "/>
<path style="fill-rule:nonzero;fill:rgb(100%,51%,0%);fill-opacity:1;stroke-width:1;stroke-linecap:butt;stroke-linejoin:miter;stroke:rgb(0%,0%,0%);stroke-opacity:1;stroke-miterlimit:10;" d="M 880.214844 88 C 880.214844 99.714844 870.714844 109.214844 859 109.214844 C 847.285156 109.214844 837.785156 99.714844 837.785156 88 C 837.785156 76.285156 847.285156 66.785156 859 66.785156 C 870.714844 66.785156 880.214844 76.285156 880.214844 88 "/>
<path style="fill-rule:nonzero;fill:rgb(100%,51%,0%);fill-opacity:1;stroke-width:1;stroke-linecap:butt;stroke-linejoin:miter;stroke:rgb(0%,0%,0%);stroke-opacity:1;stroke-miterlimit:10;" d="M 713.214844 302 C 713.214844 313.714844 703.714844 323.214844 692 323.214844 C 680.285156 323.214844 670.785156 313.714844 670.785156 302 C 670.785156 290.285156 680.285156 280.785156 692 280.785156 C 703.714844 280.785156 713.214844 290.285156 713.214844 302 "/>
<path style="fill-rule:nonzero;fill:rgb(100%,51%,0%);fill-opacity:1;stroke-width:1;stroke-linecap:butt;stroke-linejoin:miter;stroke:rgb(0%,0%,0%);stroke-opacity:1;stroke-miterlimit:10;" d="M 1002.214844 432 C 1002.214844 443.714844 992.714844 453.214844 981 453.214844 C 969.285156 453.214844 959.785156 443.714844 959.785156 432 C 959.785156 420.285156 969.285156 410.785156 981 410.785156 C 992.714844 410.785156 1002.214844 420.285156 1002.214844 432 "/>
</g>
</svg>
