<?xml version="1.0" encoding="UTF-8"?>
<svg xmlns="http://www.w3.org/2000/svg" xmlns:xlink="http://www.w3.org/1999/xlink" width="1129pt" height="517pt" viewBox="0 0 1129 517" version="1.1">
<g id="surface711">
<rect x="0" y="0" width="1129" height="517" style="fill:rgb(90%,90%,90%);fill-opacity:1;stroke:none;"/>
<path style="fill-rule:nonzero;fill:rgb(55%,51%,53%);fill-opacity:1;stroke-width:1;stroke-linecap:butt;stroke-linejoin:miter;stroke:rgb(0%,0%,0%);stroke-opacity:1;stroke-miterlimit:10;" d="M 299.214844 78 C 299.214844 89.714844 289.714844 99.214844 278 99.214844 C 266.285156 99.214844 256.785156 89.714844 256.785156 78 C 256.785156 66.285156 266.285156 56.785156 278 56.785156 C 289.714844 56.785156 299.214844 66.285156 299.214844 78 "/>
<path style="fill-rule:nonzero;fill:rgb(55%,51%,53%);fill-opacity:1;stroke-width:1;stroke-linecap:butt;stroke-linejoin:miter;stroke:rgb(0%,0%,0%);stroke-opacity:1;stroke-miterlimit:10;" d="M 181.214844 443 C 181.214844 454.714844 171.714844 464.214844 160 464.214844 C 148.285156 464.214844 138.785156 454.714844 138.785156 443 C 138.785156 431.285156 148.285156 421.785156 160 421.785156 C 171.714844 421.785156 181.214844 431.285156 181.214844 443 "/>
<path style="fill-rule:nonzero;fill:rgb(55%,51%,53%);fill-opacity:1;stroke-width:1;stroke-linecap:butt;stroke-linejoin:miter;stroke:rgb(0%,0%,0%);stroke-opacity:1;stroke-miterlimit:10;" d="M 126.785156 92.785156 L 126.785156 135.214844 L 169.214844 135.214844 L 169.214844 92.785156 L 126.785156 92.785156 "/>
<path style="fill-rule:nonzero;fill:rgb(55%,51%,53%);fill-opacity:1;stroke-width:1;stroke-linecap:butt;stroke-linejoin:miter;stroke:rgb(0%,0%,0%);stroke-opacity:1;stroke-miterlimit:10;" d="M 321.785156 120.785156 L 321.785156 163.214844 L 364.214844 163.214844 L 364.214844 120.785156 L 321.785156 120.785156 "/>
<path style="fill-rule:nonzero;fill:rgb(55%,51%,53%);fill-opacity:1;stroke-width:1;stroke-linecap:butt;stroke-linejoin:miter;stroke:rgb(0%,0%,0%);stroke-opacity:1;stroke-miterlimit:10;" d="M 288.214844 266 C 288.214844 277.714844 278.714844 287.214844 267 287.214844 C 255.285156 287.214844 245.785156 277.714844 245.785156 266 C 245.785156 254.285156 255.285156 244.785156 267 244.785156 C 278.714844 244.785156 288.214844 254.285156 288.214844 266 "/>
<path style="fill-rule:nonzero;fill:rgb(53%,27%,7%);fill-opacity:1;stroke-width:1;stroke-linecap:butt;stroke-linejoin:miter;stroke:rgb(0%,0%,0%);stroke-opacity:1;stroke-miterlimit:10;" d="M 760.785156 54.785156 L 760.785156 97.214844 L 803.214844 97.214844 L 803.214844 54.785156 L 760.785156 54.785156 "/>
<path style="fill-rule:nonzero;fill:rgb(53%,27%,7%);fill-opacity:1;stroke-width:1;stroke-linecap:butt;stroke-linejoin:miter;stroke:rgb(0%,0%,0%);stroke-opacity:1;stroke-miterlimit:10;" d="M 609.785156 48.785156 L 609.785156 91.214844 L 652.214844 91.214844 L 652.214844 48.785156 L 609.785156 48.785156 "/>
<path style="fill-rule:nonzero;fill:rgb(53%,27%,7%);fill-opacity:1;stroke-width:1;stroke-linecap:butt;stroke-linejoin:miter;stroke:rgb(0%,0%,0%);stroke-opacity:1;stroke-miterlimit:10;" d="M 800.214844 332 C 800.214844 343.714844 790.714844 353.214844 779 353.214844 C 767.285156 353.214844 757.785156 343.714844 757.785156 332 C 757.785156 320.285156 767.285156 310.785156 779 310.785156 C 790.714844 310.785156 800.214844 320.285156 800.214844 332 "/>
<path style="fill-rule:nonzero;fill:rgb(53%,27%,7%);fill-opacity:1;stroke-width:1;stroke-linecap:butt;stroke-linejoin:miter;stroke:rgb(0%,0%,0%);stroke-opacity:1;stroke-miterlimit:10;" d="M 813.214844 185 C 813.214844 196.714844 803.714844 206.214844 792 206.214844 C 780.285156 206.214844 770.785156 196.714844 770.785156 185 C 770.785156 173.285156 780.285156 163.785156 792 163.785156 C 803.714844 163.785156 813.214844 173.285156 813.214844 185 "/>
</g>
</svg>
