<?xml version="1.0" encoding="UTF-8"?>
<svg xmlns="http://www.w3.org/2000/svg" xmlns:xlink="http://www.w3.org/1999/xlink" width="1179pt" height="517pt" viewBox="0 0 1179 517" version="1.1">
<g id="surface246">
<rect x="0" y="0" width="1179" height="517" style="fill:rgb(90%,90%,90%);fill-opacity:1;stroke:none;"/>
<path style="fill-rule:nonzero;fill:rgb(35%,70%,90%);fill-opacity:1;stroke-width:1;stroke-linecap:butt;stroke-linejoin:miter;stroke:rgb(0%,0%,0%);stroke-opacity:1;stroke-miterlimit:10;" d="M 304 430 L 333.664062 430 L 345.664062 401.785156 L 357.664062 430 L 387.332031 430 L 363.332031 447.4375 L 371.417969 478.980469 L 345.664062 461.542969 L 319.914062 478.980469 L 332.214844 447.4375 L 304 430 "/>
<path style="fill-rule:nonzero;fill:rgb(35%,70%,90%);fill-opacity:1;stroke-width:1;stroke-linecap:butt;stroke-linejoin:miter;stroke:rgb(0%,0%,0%);stroke-opacity:1;stroke-miterlimit:10;" d="M 170 196 L 199.664062 196 L 211.664062 167.785156 L 223.664062 196 L 253.332031 196 L 229.332031 213.4375 L 237.417969 244.980469 L 211.664062 227.542969 L 185.914062 244.980469 L 198.214844 213.4375 L 170 196 "/>
<path style="fill-rule:nonzero;fill:rgb(55%,51%,53%);fill-opacity:1;stroke-width:1;stroke-linecap:butt;stroke-linejoin:miter;stroke:rgb(0%,0%,0%);stroke-opacity:1;stroke-miterlimit:10;" d="M 224 54 L 198.019531 99 L 249.980469 99 L 224 54 "/>
<path style="fill-rule:nonzero;fill:rgb(55%,51%,53%);fill-opacity:1;stroke-width:1;stroke-linecap:butt;stroke-linejoin:miter;stroke:rgb(0%,0%,0%);stroke-opacity:1;stroke-miterlimit:10;" d="M 272 262 L 246.019531 307 L 297.980469 307 L 272 262 "/>
<path style="fill-rule:nonzero;fill:rgb(35%,70%,90%);fill-opacity:1;stroke-width:1;stroke-linecap:butt;stroke-linejoin:miter;stroke:rgb(0%,0%,0%);stroke-opacity:1;stroke-miterlimit:10;" d="M 362 126 L 391.664062 126 L 403.664062 97.785156 L 415.664062 126 L 445.332031 126 L 421.332031 143.4375 L 429.417969 174.980469 L 403.664062 157.542969 L 377.914062 174.980469 L 390.214844 143.4375 L 362 126 "/>
<path style="fill-rule:nonzero;fill:rgb(55%,51%,53%);fill-opacity:1;stroke-width:1;stroke-linecap:butt;stroke-linejoin:miter;stroke:rgb(0%,0%,0%);stroke-opacity:1;stroke-miterlimit:10;" d="M 357 189 L 331.019531 234 L 382.980469 234 L 357 189 "/>
<path style="fill-rule:nonzero;fill:rgb(35%,70%,90%);fill-opacity:1;stroke-width:1;stroke-linecap:butt;stroke-linejoin:miter;stroke:rgb(0%,0%,0%);stroke-opacity:1;stroke-miterlimit:10;" d="M 89 263 L 118.664062 263 L 130.664062 234.785156 L 142.664062 263 L 172.332031 263 L 148.332031 280.4375 L 156.417969 311.980469 L 130.664062 294.542969 L 104.914062 311.980469 L 117.214844 280.4375 L 89 263 "/>
<path style="fill-rule:nonzero;fill:rgb(55%,51%,53%);fill-opacity:1;stroke-width:1;stroke-linecap:butt;stroke-linejoin:miter;stroke:rgb(0%,0%,0%);stroke-opacity:1;stroke-miterlimit:10;" d="M 1030 148 L 1004.019531 193 L 1055.980469 193 L 1030 148 "/>
<path style="fill-rule:nonzero;fill:rgb(35%,70%,90%);fill-opacity:1;stroke-width:1;stroke-linecap:butt;stroke-linejoin:miter;stroke:rgb(0%,0%,0%);stroke-opacity:1;stroke-miterlimit:10;" d="M 816 232 L 845.664062 232 L 857.664062 203.785156 L 869.664062 232 L 899.332031 232 L 875.332031 249.4375 L 883.417969 280.980469 L 857.664062 263.542969 L 831.914062 280.980469 L 844.214844 249.4375 L 816 232 "/>
<path style="fill-rule:nonzero;fill:rgb(55%,51%,53%);fill-opacity:1;stroke-width:1;stroke-linecap:butt;stroke-linejoin:miter;stroke:rgb(0%,0%,0%);stroke-opacity:1;stroke-miterlimit:10;" d="M 957 94 L 931.019531 139 L 982.980469 139 L 957 94 "/>
<path style="fill-rule:nonzero;fill:rgb(35%,70%,90%);fill-opacity:1;stroke-width:1;stroke-linecap:butt;stroke-linejoin:miter;stroke:rgb(0%,0%,0%);stroke-opacity:1;stroke-miterlimit:10;" d="M 859 355 L 888.664062 355 L 900.664062 326.785156 L 912.664062 355 L 942.332031 355 L 918.332031 372.4375 L 926.417969 403.980469 L 900.664062 386.542969 L 874.914062 403.980469 L 887.214844 372.4375 L 859 355 "/>
<path style="fill-rule:nonzero;fill:rgb(35%,70%,90%);fill-opacity:1;stroke-width:1;stroke-linecap:butt;stroke-linejoin:miter;stroke:rgb(0%,0%,0%);stroke-opacity:1;stroke-miterlimit:10;" d="M 731 331 L 760.664062 331 L 772.664062 302.785156 L 784.664062 331 L 814.332031 331 L 790.332031 348.4375 L 798.417969 379.980469 L 772.664062 362.542969 L 746.914062 379.980469 L 759.214844 348.4375 L 731 331 "/>
</g>
</svg>
