<?xml version="1.0" encoding="UTF-8"?>
<svg xmlns="http://www.w3.org/2000/svg" xmlns:xlink="http://www.w3.org/1999/xlink" width="1129pt" height="517pt" viewBox="0 0 1129 517" version="1.1">
<g id="surface956">
<rect x="0" y="0" width="1129" height="517" style="fill:rgb(90%,90%,90%);fill-opacity:1;stroke:none;"/>
<path style="fill-rule:nonzero;fill:rgb(35%,70%,90%);fill-opacity:1;stroke-width:1;stroke-linecap:butt;stroke-linejoin:miter;stroke:rgb(0%,0%,0%);stroke-opacity:1;stroke-miterlimit:10;" d="M 863 381 L 892.664062 381 L 904.664062 352.785156 L 916.664062 381 L 946.332031 381 L 922.332031 398.4375 L 930.417969 429.980469 L 904.664062 412.542969 L 878.914062 429.980469 L 891.214844 398.4375 L 863 381 "/>
<path style="fill-rule:nonzero;fill:rgb(35%,70%,90%);fill-opacity:1;stroke-width:1;stroke-linecap:butt;stroke-linejoin:miter;stroke:rgb(0%,0%,0%);stroke-opacity:1;stroke-miterlimit:10;" d="M 400 383 L 429.664062 383 L 441.664062 354.785156 L 453.664062 383 L 483.332031 383 L 459.332031 400.4375 L 467.417969 431.980469 L 441.664062 414.542969 L 415.914062 431.980469 L 428.214844 400.4375 L 400 383 "/>
<path style="fill-rule:nonzero;fill:rgb(35%,70%,90%);fill-opacity:1;stroke-width:1;stroke-linecap:butt;stroke-linejoin:miter;stroke:rgb(0%,0%,0%);stroke-opacity:1;stroke-miterlimit:10;" d="M 375 280 L 404.664062 280 L 416.664062 251.785156 L 428.664062 280 L 458.332031 280 L 434.332031 297.4375 L 442.417969 328.980469 L 416.664062 311.542969 L 390.914062 328.980469 L 403.214844 297.4375 L 375 280 "/>
<path style="fill-rule:nonzero;fill:rgb(35%,70%,90%);fill-opacity:1;stroke-width:1;stroke-linecap:butt;stroke-linejoin:miter;stroke:rgb(0%,0%,0%);stroke-opacity:1;stroke-miterlimit:10;" d="M 523 233 L 552.664062 233 L 564.664062 204.785156 L 576.664062 233 L 606.332031 233 L 582.332031 250.4375 L 590.417969 281.980469 L 564.664062 264.542969 L 538.914062 281.980469 L 551.214844 250.4375 L 523 233 "/>
<path style="fill-rule:nonzero;fill:rgb(35%,70%,90%);fill-opacity:1;stroke-width:1;stroke-linecap:butt;stroke-linejoin:miter;stroke:rgb(0%,0%,0%);stroke-opacity:1;stroke-miterlimit:10;" d="M 904 60 L 933.664062 60 L 945.664062 31.785156 L 957.664062 60 L 987.332031 60 L 963.332031 77.4375 L 971.417969 108.980469 L 945.664062 91.542969 L 919.914062 108.980469 L 932.214844 77.4375 L 904 60 "/>
<path style="fill-rule:nonzero;fill:rgb(35%,70%,90%);fill-opacity:1;stroke-width:1;stroke-linecap:butt;stroke-linejoin:miter;stroke:rgb(0%,0%,0%);stroke-opacity:1;stroke-miterlimit:10;" d="M 161 414 L 190.664062 414 L 202.664062 385.785156 L 214.664062 414 L 244.332031 414 L 220.332031 431.4375 L 228.417969 462.980469 L 202.664062 445.542969 L 176.914062 462.980469 L 189.214844 431.4375 L 161 414 "/>
<path style="fill-rule:nonzero;fill:rgb(55%,51%,53%);fill-opacity:1;stroke-width:1;stroke-linecap:butt;stroke-linejoin:miter;stroke:rgb(0%,0%,0%);stroke-opacity:1;stroke-miterlimit:10;" d="M 968.214844 179 C 968.214844 190.714844 958.714844 200.214844 947 200.214844 C 935.285156 200.214844 925.785156 190.714844 925.785156 179 C 925.785156 167.285156 935.285156 157.785156 947 157.785156 C 958.714844 157.785156 968.214844 167.285156 968.214844 179 "/>
<path style="fill-rule:nonzero;fill:rgb(55%,51%,53%);fill-opacity:1;stroke-width:1;stroke-linecap:butt;stroke-linejoin:miter;stroke:rgb(0%,0%,0%);stroke-opacity:1;stroke-miterlimit:10;" d="M 811.214844 235 C 811.214844 246.714844 801.714844 256.214844 790 256.214844 C 778.285156 256.214844 768.785156 246.714844 768.785156 235 C 768.785156 223.285156 778.285156 213.785156 790 213.785156 C 801.714844 213.785156 811.214844 223.285156 811.214844 235 "/>
<path style="fill-rule:nonzero;fill:rgb(55%,51%,53%);fill-opacity:1;stroke-width:1;stroke-linecap:butt;stroke-linejoin:miter;stroke:rgb(0%,0%,0%);stroke-opacity:1;stroke-miterlimit:10;" d="M 978.214844 437 C 978.214844 448.714844 968.714844 458.214844 957 458.214844 C 945.285156 458.214844 935.785156 448.714844 935.785156 437 C 935.785156 425.285156 945.285156 415.785156 957 415.785156 C 968.714844 415.785156 978.214844 425.285156 978.214844 437 "/>
<path style="fill-rule:nonzero;fill:rgb(55%,51%,53%);fill-opacity:1;stroke-width:1;stroke-linecap:butt;stroke-linejoin:miter;stroke:rgb(0%,0%,0%);stroke-opacity:1;stroke-miterlimit:10;" d="M 323.214844 221 C 323.214844 232.714844 313.714844 242.214844 302 242.214844 C 290.285156 242.214844 280.785156 232.714844 280.785156 221 C 280.785156 209.285156 290.285156 199.785156 302 199.785156 C 313.714844 199.785156 323.214844 209.285156 323.214844 221 "/>
<path style="fill-rule:nonzero;fill:rgb(55%,51%,53%);fill-opacity:1;stroke-width:1;stroke-linecap:butt;stroke-linejoin:miter;stroke:rgb(0%,0%,0%);stroke-opacity:1;stroke-miterlimit:10;" d="M 314.214844 77 C 314.214844 88.714844 304.714844 98.214844 293 98.214844 C 281.285156 98.214844 271.785156 88.714844 271.785156 77 C 271.785156 65.285156 281.285156 55.785156 293 55.785156 C 304.714844 55.785156 314.214844 65.285156 314.214844 77 "/>
<path style="fill-rule:nonzero;fill:rgb(55%,51%,53%);fill-opacity:1;stroke-width:1;stroke-linecap:butt;stroke-linejoin:miter;stroke:rgb(0%,0%,0%);stroke-opacity:1;stroke-miterlimit:10;" d="M 93.214844 89 C 93.214844 100.714844 83.714844 110.214844 72 110.214844 C 60.285156 110.214844 50.785156 100.714844 50.785156 89 C 50.785156 77.285156 60.285156 67.785156 72 67.785156 C 83.714844 67.785156 93.214844 77.285156 93.214844 89 "/>
<path style="fill-rule:nonzero;fill:rgb(55%,51%,53%);fill-opacity:1;stroke-width:1;stroke-linecap:butt;stroke-linejoin:miter;stroke:rgb(0%,0%,0%);stroke-opacity:1;stroke-miterlimit:10;" d="M 144.214844 175 C 144.214844 186.714844 134.714844 196.214844 123 196.214844 C 111.285156 196.214844 101.785156 186.714844 101.785156 175 C 101.785156 163.285156 111.285156 153.785156 123 153.785156 C 134.714844 153.785156 144.214844 163.285156 144.214844 175 "/>
<path style="fill-rule:nonzero;fill:rgb(55%,51%,53%);fill-opacity:1;stroke-width:1;stroke-linecap:butt;stroke-linejoin:miter;stroke:rgb(0%,0%,0%);stroke-opacity:1;stroke-miterlimit:10;" d="M 684.214844 213 C 684.214844 224.714844 674.714844 234.214844 663 234.214844 C 651.285156 234.214844 641.785156 224.714844 641.785156 213 C 641.785156 201.285156 651.285156 191.785156 663 191.785156 C 674.714844 191.785156 684.214844 201.285156 684.214844 213 "/>
</g>
</svg>
