<?xml version="1.0" encoding="UTF-8"?>
<svg xmlns="http://www.w3.org/2000/svg" xmlns:xlink="http://www.w3.org/1999/xlink" width="1179pt" height="517pt" viewBox="0 0 1179 517" version="1.1">
<g id="surface616">
<rect x="0" y="0" width="1179" height="517" style="fill:rgb(90%,90%,90%);fill-opacity:1;stroke:none;"/>
<path style="fill-rule:nonzero;fill:rgb(35%,70%,90%);fill-opacity:1;stroke-width:1;stroke-linecap:butt;stroke-linejoin:miter;stroke:rgb(0%,0%,0%);stroke-opacity:1;stroke-miterlimit:10;" d="M 279.214844 399 C 279.214844 410.714844 269.714844 420.214844 258 420.214844 C 246.285156 420.214844 236.785156 410.714844 236.785156 399 C 236.785156 387.285156 246.285156 377.785156 258 377.785156 C 269.714844 377.785156 279.214844 387.285156 279.214844 399 "/>
<path style="fill-rule:nonzero;fill:rgb(35%,70%,90%);fill-opacity:1;stroke-width:1;stroke-linecap:butt;stroke-linejoin:miter;stroke:rgb(0%,0%,0%);stroke-opacity:1;stroke-miterlimit:10;" d="M 212.214844 118 C 212.214844 129.714844 202.714844 139.214844 191 139.214844 C 179.285156 139.214844 169.785156 129.714844 169.785156 118 C 169.785156 106.285156 179.285156 96.785156 191 96.785156 C 202.714844 96.785156 212.214844 106.285156 212.214844 118 "/>
<path style="fill-rule:nonzero;fill:rgb(35%,70%,90%);fill-opacity:1;stroke-width:1;stroke-linecap:butt;stroke-linejoin:miter;stroke:rgb(0%,0%,0%);stroke-opacity:1;stroke-miterlimit:10;" d="M 317.214844 160 C 317.214844 171.714844 307.714844 181.214844 296 181.214844 C 284.285156 181.214844 274.785156 171.714844 274.785156 160 C 274.785156 148.285156 284.285156 138.785156 296 138.785156 C 307.714844 138.785156 317.214844 148.285156 317.214844 160 "/>
<path style="fill-rule:nonzero;fill:rgb(55%,51%,53%);fill-opacity:1;stroke-width:1;stroke-linecap:butt;stroke-linejoin:miter;stroke:rgb(0%,0%,0%);stroke-opacity:1;stroke-miterlimit:10;" d="M 123.214844 95 C 123.214844 106.714844 113.714844 116.214844 102 116.214844 C 90.285156 116.214844 80.785156 106.714844 80.785156 95 C 80.785156 83.285156 90.285156 73.785156 102 73.785156 C 113.714844 73.785156 123.214844 83.285156 123.214844 95 "/>
<path style="fill-rule:nonzero;fill:rgb(55%,51%,53%);fill-opacity:1;stroke-width:1;stroke-linecap:butt;stroke-linejoin:miter;stroke:rgb(0%,0%,0%);stroke-opacity:1;stroke-miterlimit:10;" d="M 914 290 L 888.019531 335 L 939.980469 335 L 914 290 "/>
<path style="fill-rule:nonzero;fill:rgb(55%,51%,53%);fill-opacity:1;stroke-width:1;stroke-linecap:butt;stroke-linejoin:miter;stroke:rgb(0%,0%,0%);stroke-opacity:1;stroke-miterlimit:10;" d="M 860 368 L 834.019531 413 L 885.980469 413 L 860 368 "/>
<path style="fill-rule:nonzero;fill:rgb(55%,51%,53%);fill-opacity:1;stroke-width:1;stroke-linecap:butt;stroke-linejoin:miter;stroke:rgb(0%,0%,0%);stroke-opacity:1;stroke-miterlimit:10;" d="M 770 210 L 744.019531 255 L 795.980469 255 L 770 210 "/>
<path style="fill-rule:nonzero;fill:rgb(35%,70%,90%);fill-opacity:1;stroke-width:1;stroke-linecap:butt;stroke-linejoin:miter;stroke:rgb(0%,0%,0%);stroke-opacity:1;stroke-miterlimit:10;" d="M 698 275 L 672.019531 320 L 723.980469 320 L 698 275 "/>
</g>
</svg>
