<?xml version="1.0" encoding="UTF-8"?>
<svg xmlns="http://www.w3.org/2000/svg" xmlns:xlink="http://www.w3.org/1999/xlink" width="1129pt" height="517pt" viewBox="0 0 1129 517" version="1.1">
<g id="surface731">
<rect x="0" y="0" width="1129" height="517" style="fill:rgb(90%,90%,90%);fill-opacity:1;stroke:none;"/>
<path style="fill-rule:nonzero;fill:rgb(35%,70%,90%);fill-opacity:1;stroke-width:1;stroke-linecap:butt;stroke-linejoin:miter;stroke:rgb(0%,0%,0%);stroke-opacity:1;stroke-miterlimit:10;" d="M 838 142 L 867.664062 142 L 879.664062 113.785156 L 891.664062 142 L 921.332031 142 L 897.332031 159.4375 L 905.417969 190.980469 L 879.664062 173.542969 L 853.914062 190.980469 L 866.214844 159.4375 L 838 142 "/>
<path style="fill-rule:nonzero;fill:rgb(35%,70%,90%);fill-opacity:1;stroke-width:1;stroke-linecap:butt;stroke-linejoin:miter;stroke:rgb(0%,0%,0%);stroke-opacity:1;stroke-miterlimit:10;" d="M 603 146 L 632.664062 146 L 644.664062 117.785156 L 656.664062 146 L 686.332031 146 L 662.332031 163.4375 L 670.417969 194.980469 L 644.664062 177.542969 L 618.914062 194.980469 L 631.214844 163.4375 L 603 146 "/>
<path style="fill-rule:nonzero;fill:rgb(35%,70%,90%);fill-opacity:1;stroke-width:1;stroke-linecap:butt;stroke-linejoin:miter;stroke:rgb(0%,0%,0%);stroke-opacity:1;stroke-miterlimit:10;" d="M 911 408 L 940.664062 408 L 952.664062 379.785156 L 964.664062 408 L 994.332031 408 L 970.332031 425.4375 L 978.417969 456.980469 L 952.664062 439.542969 L 926.914062 456.980469 L 939.214844 425.4375 L 911 408 "/>
<path style="fill-rule:nonzero;fill:rgb(35%,70%,90%);fill-opacity:1;stroke-width:1;stroke-linecap:butt;stroke-linejoin:miter;stroke:rgb(0%,0%,0%);stroke-opacity:1;stroke-miterlimit:10;" d="M 544 245 L 573.664062 245 L 585.664062 216.785156 L 597.664062 245 L 627.332031 245 L 603.332031 262.4375 L 611.417969 293.980469 L 585.664062 276.542969 L 559.914062 293.980469 L 572.214844 262.4375 L 544 245 "/>
<path style="fill-rule:nonzero;fill:rgb(35%,70%,90%);fill-opacity:1;stroke-width:1;stroke-linecap:butt;stroke-linejoin:miter;stroke:rgb(0%,0%,0%);stroke-opacity:1;stroke-miterlimit:10;" d="M 76 405 L 105.664062 405 L 117.664062 376.785156 L 129.664062 405 L 159.332031 405 L 135.332031 422.4375 L 143.417969 453.980469 L 117.664062 436.542969 L 91.914062 453.980469 L 104.214844 422.4375 L 76 405 "/>
<path style="fill-rule:nonzero;fill:rgb(35%,70%,90%);fill-opacity:1;stroke-width:1;stroke-linecap:butt;stroke-linejoin:miter;stroke:rgb(0%,0%,0%);stroke-opacity:1;stroke-miterlimit:10;" d="M 124 251 L 153.664062 251 L 165.664062 222.785156 L 177.664062 251 L 207.332031 251 L 183.332031 268.4375 L 191.417969 299.980469 L 165.664062 282.542969 L 139.914062 299.980469 L 152.214844 268.4375 L 124 251 "/>
<path style="fill-rule:nonzero;fill:rgb(55%,51%,53%);fill-opacity:1;stroke-width:1;stroke-linecap:butt;stroke-linejoin:miter;stroke:rgb(0%,0%,0%);stroke-opacity:1;stroke-miterlimit:10;" d="M 562.214844 406 C 562.214844 417.714844 552.714844 427.214844 541 427.214844 C 529.285156 427.214844 519.785156 417.714844 519.785156 406 C 519.785156 394.285156 529.285156 384.785156 541 384.785156 C 552.714844 384.785156 562.214844 394.285156 562.214844 406 "/>
<path style="fill-rule:nonzero;fill:rgb(55%,51%,53%);fill-opacity:1;stroke-width:1;stroke-linecap:butt;stroke-linejoin:miter;stroke:rgb(0%,0%,0%);stroke-opacity:1;stroke-miterlimit:10;" d="M 353.214844 240 C 353.214844 251.714844 343.714844 261.214844 332 261.214844 C 320.285156 261.214844 310.785156 251.714844 310.785156 240 C 310.785156 228.285156 320.285156 218.785156 332 218.785156 C 343.714844 218.785156 353.214844 228.285156 353.214844 240 "/>
<path style="fill-rule:nonzero;fill:rgb(55%,51%,53%);fill-opacity:1;stroke-width:1;stroke-linecap:butt;stroke-linejoin:miter;stroke:rgb(0%,0%,0%);stroke-opacity:1;stroke-miterlimit:10;" d="M 380.214844 373 C 380.214844 384.714844 370.714844 394.214844 359 394.214844 C 347.285156 394.214844 337.785156 384.714844 337.785156 373 C 337.785156 361.285156 347.285156 351.785156 359 351.785156 C 370.714844 351.785156 380.214844 361.285156 380.214844 373 "/>
<path style="fill-rule:nonzero;fill:rgb(55%,51%,53%);fill-opacity:1;stroke-width:1;stroke-linecap:butt;stroke-linejoin:miter;stroke:rgb(0%,0%,0%);stroke-opacity:1;stroke-miterlimit:10;" d="M 715.214844 132 C 715.214844 143.714844 705.714844 153.214844 694 153.214844 C 682.285156 153.214844 672.785156 143.714844 672.785156 132 C 672.785156 120.285156 682.285156 110.785156 694 110.785156 C 705.714844 110.785156 715.214844 120.285156 715.214844 132 "/>
<path style="fill-rule:nonzero;fill:rgb(55%,51%,53%);fill-opacity:1;stroke-width:1;stroke-linecap:butt;stroke-linejoin:miter;stroke:rgb(0%,0%,0%);stroke-opacity:1;stroke-miterlimit:10;" d="M 236.214844 359 C 236.214844 370.714844 226.714844 380.214844 215 380.214844 C 203.285156 380.214844 193.785156 370.714844 193.785156 359 C 193.785156 347.285156 203.285156 337.785156 215 337.785156 C 226.714844 337.785156 236.214844 347.285156 236.214844 359 "/>
<path style="fill-rule:nonzero;fill:rgb(55%,51%,53%);fill-opacity:1;stroke-width:1;stroke-linecap:butt;stroke-linejoin:miter;stroke:rgb(0%,0%,0%);stroke-opacity:1;stroke-miterlimit:10;" d="M 672.214844 223 C 672.214844 234.714844 662.714844 244.214844 651 244.214844 C 639.285156 244.214844 629.785156 234.714844 629.785156 223 C 629.785156 211.285156 639.285156 201.785156 651 201.785156 C 662.714844 201.785156 672.214844 211.285156 672.214844 223 "/>
<path style="fill-rule:nonzero;fill:rgb(55%,51%,53%);fill-opacity:1;stroke-width:1;stroke-linecap:butt;stroke-linejoin:miter;stroke:rgb(0%,0%,0%);stroke-opacity:1;stroke-miterlimit:10;" d="M 563.214844 66 C 563.214844 77.714844 553.714844 87.214844 542 87.214844 C 530.285156 87.214844 520.785156 77.714844 520.785156 66 C 520.785156 54.285156 530.285156 44.785156 542 44.785156 C 553.714844 44.785156 563.214844 54.285156 563.214844 66 "/>
<path style="fill-rule:nonzero;fill:rgb(55%,51%,53%);fill-opacity:1;stroke-width:1;stroke-linecap:butt;stroke-linejoin:miter;stroke:rgb(0%,0%,0%);stroke-opacity:1;stroke-miterlimit:10;" d="M 286.214844 75 C 286.214844 86.714844 276.714844 96.214844 265 96.214844 C 253.285156 96.214844 243.785156 86.714844 243.785156 75 C 243.785156 63.285156 253.285156 53.785156 265 53.785156 C 276.714844 53.785156 286.214844 63.285156 286.214844 75 "/>
</g>
</svg>
