<?xml version="1.0" encoding="UTF-8"?>
<svg xmlns="http://www.w3.org/2000/svg" xmlns:xlink="http://www.w3.org/1999/xlink" width="1129pt" height="517pt" viewBox="0 0 1129 517" version="1.1">
<g id="surface741">
<rect x="0" y="0" width="1129" height="517" style="fill:rgb(90%,90%,90%);fill-opacity:1;stroke:none;"/>
<path style="fill-rule:nonzero;fill:rgb(100%,51%,0%);fill-opacity:1;stroke-width:1;stroke-linecap:butt;stroke-linejoin:miter;stroke:rgb(0%,0%,0%);stroke-opacity:1;stroke-miterlimit:10;" d="M 157.214844 334 C 157.214844 345.714844 147.714844 355.214844 136 355.214844 C 124.285156 355.214844 114.785156 345.714844 114.785156 334 C 114.785156 322.285156 124.285156 312.785156 136 312.785156 C 147.714844 312.785156 157.214844 322.285156 157.214844 334 "/>
<path style="fill-rule:nonzero;fill:rgb(100%,51%,0%);fill-opacity:1;stroke-width:1;stroke-linecap:butt;stroke-linejoin:miter;stroke:rgb(0%,0%,0%);stroke-opacity:1;stroke-miterlimit:10;" d="M 871.214844 163 C 871.214844 174.714844 861.714844 184.214844 850 184.214844 C 838.285156 184.214844 828.785156 174.714844 828.785156 163 C 828.785156 151.285156 838.285156 141.785156 850 141.785156 C 861.714844 141.785156 871.214844 151.285156 871.214844 163 "/>
<path style="fill-rule:nonzero;fill:rgb(100%,51%,0%);fill-opacity:1;stroke-width:1;stroke-linecap:butt;stroke-linejoin:miter;stroke:rgb(0%,0%,0%);stroke-opacity:1;stroke-miterlimit:10;" d="M 479.214844 140 C 479.214844 151.714844 469.714844 161.214844 458 161.214844 C 446.285156 161.214844 436.785156 151.714844 436.785156 140 C 436.785156 128.285156 446.285156 118.785156 458 118.785156 C 469.714844 118.785156 479.214844 128.285156 479.214844 140 "/>
<path style="fill-rule:nonzero;fill:rgb(100%,51%,0%);fill-opacity:1;stroke-width:1;stroke-linecap:butt;stroke-linejoin:miter;stroke:rgb(0%,0%,0%);stroke-opacity:1;stroke-miterlimit:10;" d="M 946.214844 340 C 946.214844 351.714844 936.714844 361.214844 925 361.214844 C 913.285156 361.214844 903.785156 351.714844 903.785156 340 C 903.785156 328.285156 913.285156 318.785156 925 318.785156 C 936.714844 318.785156 946.214844 328.285156 946.214844 340 "/>
<path style="fill-rule:nonzero;fill:rgb(100%,51%,0%);fill-opacity:1;stroke-width:1;stroke-linecap:butt;stroke-linejoin:miter;stroke:rgb(0%,0%,0%);stroke-opacity:1;stroke-miterlimit:10;" d="M 685.214844 352 C 685.214844 363.714844 675.714844 373.214844 664 373.214844 C 652.285156 373.214844 642.785156 363.714844 642.785156 352 C 642.785156 340.285156 652.285156 330.785156 664 330.785156 C 675.714844 330.785156 685.214844 340.285156 685.214844 352 "/>
<path style="fill-rule:nonzero;fill:rgb(35%,70%,90%);fill-opacity:1;stroke-width:1;stroke-linecap:butt;stroke-linejoin:miter;stroke:rgb(0%,0%,0%);stroke-opacity:1;stroke-miterlimit:10;" d="M 267 369 L 296.664062 369 L 308.664062 340.785156 L 320.664062 369 L 350.332031 369 L 326.332031 386.4375 L 334.417969 417.980469 L 308.664062 400.542969 L 282.914062 417.980469 L 295.214844 386.4375 L 267 369 "/>
<path style="fill-rule:nonzero;fill:rgb(35%,70%,90%);fill-opacity:1;stroke-width:1;stroke-linecap:butt;stroke-linejoin:miter;stroke:rgb(0%,0%,0%);stroke-opacity:1;stroke-miterlimit:10;" d="M 125 220 L 154.664062 220 L 166.664062 191.785156 L 178.664062 220 L 208.332031 220 L 184.332031 237.4375 L 192.417969 268.980469 L 166.664062 251.542969 L 140.914062 268.980469 L 153.214844 237.4375 L 125 220 "/>
<path style="fill-rule:nonzero;fill:rgb(35%,70%,90%);fill-opacity:1;stroke-width:1;stroke-linecap:butt;stroke-linejoin:miter;stroke:rgb(0%,0%,0%);stroke-opacity:1;stroke-miterlimit:10;" d="M 334 218 L 363.664062 218 L 375.664062 189.785156 L 387.664062 218 L 417.332031 218 L 393.332031 235.4375 L 401.417969 266.980469 L 375.664062 249.542969 L 349.914062 266.980469 L 362.214844 235.4375 L 334 218 "/>
<path style="fill-rule:nonzero;fill:rgb(35%,70%,90%);fill-opacity:1;stroke-width:1;stroke-linecap:butt;stroke-linejoin:miter;stroke:rgb(0%,0%,0%);stroke-opacity:1;stroke-miterlimit:10;" d="M 823 366 L 852.664062 366 L 864.664062 337.785156 L 876.664062 366 L 906.332031 366 L 882.332031 383.4375 L 890.417969 414.980469 L 864.664062 397.542969 L 838.914062 414.980469 L 851.214844 383.4375 L 823 366 "/>
<path style="fill-rule:nonzero;fill:rgb(35%,70%,90%);fill-opacity:1;stroke-width:1;stroke-linecap:butt;stroke-linejoin:miter;stroke:rgb(0%,0%,0%);stroke-opacity:1;stroke-miterlimit:10;" d="M 698 70 L 727.664062 70 L 739.664062 41.785156 L 751.664062 70 L 781.332031 70 L 757.332031 87.4375 L 765.417969 118.980469 L 739.664062 101.542969 L 713.914062 118.980469 L 726.214844 87.4375 L 698 70 "/>
<path style="fill-rule:nonzero;fill:rgb(35%,70%,90%);fill-opacity:1;stroke-width:1;stroke-linecap:butt;stroke-linejoin:miter;stroke:rgb(0%,0%,0%);stroke-opacity:1;stroke-miterlimit:10;" d="M 746 263 L 775.664062 263 L 787.664062 234.785156 L 799.664062 263 L 829.332031 263 L 805.332031 280.4375 L 813.417969 311.980469 L 787.664062 294.542969 L 761.914062 311.980469 L 774.214844 280.4375 L 746 263 "/>
<path style="fill-rule:nonzero;fill:rgb(35%,70%,90%);fill-opacity:1;stroke-width:1;stroke-linecap:butt;stroke-linejoin:miter;stroke:rgb(0%,0%,0%);stroke-opacity:1;stroke-miterlimit:10;" d="M 600 181 L 629.664062 181 L 641.664062 152.785156 L 653.664062 181 L 683.332031 181 L 659.332031 198.4375 L 667.417969 229.980469 L 641.664062 212.542969 L 615.914062 229.980469 L 628.214844 198.4375 L 600 181 "/>
<path style="fill-rule:nonzero;fill:rgb(35%,70%,90%);fill-opacity:1;stroke-width:1;stroke-linecap:butt;stroke-linejoin:miter;stroke:rgb(0%,0%,0%);stroke-opacity:1;stroke-miterlimit:10;" d="M 355 399 L 384.664062 399 L 396.664062 370.785156 L 408.664062 399 L 438.332031 399 L 414.332031 416.4375 L 422.417969 447.980469 L 396.664062 430.542969 L 370.914062 447.980469 L 383.214844 416.4375 L 355 399 "/>
</g>
</svg>
