<?xml version="1.0" encoding="UTF-8"?>
<svg xmlns="http://www.w3.org/2000/svg" xmlns:xlink="http://www.w3.org/1999/xlink" width="1129pt" height="517pt" viewBox="0 0 1129 517" version="1.1">
<g id="surface766">
<rect x="0" y="0" width="1129" height="517" style="fill:rgb(90%,90%,90%);fill-opacity:1;stroke:none;"/>
<path style="fill-rule:nonzero;fill:rgb(53%,27%,7%);fill-opacity:1;stroke-width:1;stroke-linecap:butt;stroke-linejoin:miter;stroke:rgb(0%,0%,0%);stroke-opacity:1;stroke-miterlimit:10;" d="M 180 63.601562 C 180 49.199219 156 49.199219 156 63.601562 C 156 78 180 80.398438 180 92.398438 C 180 80.398438 204 78 204 63.601562 C 204 49.199219 180 49.199219 180 63.601562 "/>
<path style="fill-rule:nonzero;fill:rgb(53%,27%,7%);fill-opacity:1;stroke-width:1;stroke-linecap:butt;stroke-linejoin:miter;stroke:rgb(0%,0%,0%);stroke-opacity:1;stroke-miterlimit:10;" d="M 271 248.601562 C 271 234.199219 247 234.199219 247 248.601562 C 247 263 271 265.398438 271 277.398438 C 271 265.398438 295 263 295 248.601562 C 295 234.199219 271 234.199219 271 248.601562 "/>
<path style="fill-rule:nonzero;fill:rgb(53%,27%,7%);fill-opacity:1;stroke-width:1;stroke-linecap:butt;stroke-linejoin:miter;stroke:rgb(0%,0%,0%);stroke-opacity:1;stroke-miterlimit:10;" d="M 495 182.601562 C 495 168.199219 471 168.199219 471 182.601562 C 471 197 495 199.398438 495 211.398438 C 495 199.398438 519 197 519 182.601562 C 519 168.199219 495 168.199219 495 182.601562 "/>
<path style="fill-rule:nonzero;fill:rgb(53%,27%,7%);fill-opacity:1;stroke-width:1;stroke-linecap:butt;stroke-linejoin:miter;stroke:rgb(0%,0%,0%);stroke-opacity:1;stroke-miterlimit:10;" d="M 595 120.601562 C 595 106.199219 571 106.199219 571 120.601562 C 571 135 595 137.398438 595 149.398438 C 595 137.398438 619 135 619 120.601562 C 619 106.199219 595 106.199219 595 120.601562 "/>
<path style="fill-rule:nonzero;fill:rgb(53%,27%,7%);fill-opacity:1;stroke-width:1;stroke-linecap:butt;stroke-linejoin:miter;stroke:rgb(0%,0%,0%);stroke-opacity:1;stroke-miterlimit:10;" d="M 861 307.601562 C 861 293.199219 837 293.199219 837 307.601562 C 837 322 861 324.398438 861 336.398438 C 861 324.398438 885 322 885 307.601562 C 885 293.199219 861 293.199219 861 307.601562 "/>
<path style="fill-rule:nonzero;fill:rgb(100%,51%,0%);fill-opacity:1;stroke-width:1;stroke-linecap:butt;stroke-linejoin:miter;stroke:rgb(0%,0%,0%);stroke-opacity:1;stroke-miterlimit:10;" d="M 345.214844 382 C 345.214844 393.714844 335.714844 403.214844 324 403.214844 C 312.285156 403.214844 302.785156 393.714844 302.785156 382 C 302.785156 370.285156 312.285156 360.785156 324 360.785156 C 335.714844 360.785156 345.214844 370.285156 345.214844 382 "/>
<path style="fill-rule:nonzero;fill:rgb(100%,51%,0%);fill-opacity:1;stroke-width:1;stroke-linecap:butt;stroke-linejoin:miter;stroke:rgb(0%,0%,0%);stroke-opacity:1;stroke-miterlimit:10;" d="M 249.214844 424 C 249.214844 435.714844 239.714844 445.214844 228 445.214844 C 216.285156 445.214844 206.785156 435.714844 206.785156 424 C 206.785156 412.285156 216.285156 402.785156 228 402.785156 C 239.714844 402.785156 249.214844 412.285156 249.214844 424 "/>
<path style="fill-rule:nonzero;fill:rgb(100%,51%,0%);fill-opacity:1;stroke-width:1;stroke-linecap:butt;stroke-linejoin:miter;stroke:rgb(0%,0%,0%);stroke-opacity:1;stroke-miterlimit:10;" d="M 622.214844 379 C 622.214844 390.714844 612.714844 400.214844 601 400.214844 C 589.285156 400.214844 579.785156 390.714844 579.785156 379 C 579.785156 367.285156 589.285156 357.785156 601 357.785156 C 612.714844 357.785156 622.214844 367.285156 622.214844 379 "/>
<path style="fill-rule:nonzero;fill:rgb(100%,51%,0%);fill-opacity:1;stroke-width:1;stroke-linecap:butt;stroke-linejoin:miter;stroke:rgb(0%,0%,0%);stroke-opacity:1;stroke-miterlimit:10;" d="M 314.214844 90 C 314.214844 101.714844 304.714844 111.214844 293 111.214844 C 281.285156 111.214844 271.785156 101.714844 271.785156 90 C 271.785156 78.285156 281.285156 68.785156 293 68.785156 C 304.714844 68.785156 314.214844 78.285156 314.214844 90 "/>
<path style="fill-rule:nonzero;fill:rgb(100%,51%,0%);fill-opacity:1;stroke-width:1;stroke-linecap:butt;stroke-linejoin:miter;stroke:rgb(0%,0%,0%);stroke-opacity:1;stroke-miterlimit:10;" d="M 790.214844 223 C 790.214844 234.714844 780.714844 244.214844 769 244.214844 C 757.285156 244.214844 747.785156 234.714844 747.785156 223 C 747.785156 211.285156 757.285156 201.785156 769 201.785156 C 780.714844 201.785156 790.214844 211.285156 790.214844 223 "/>
<path style="fill-rule:nonzero;fill:rgb(100%,51%,0%);fill-opacity:1;stroke-width:1;stroke-linecap:butt;stroke-linejoin:miter;stroke:rgb(0%,0%,0%);stroke-opacity:1;stroke-miterlimit:10;" d="M 771.214844 365 C 771.214844 376.714844 761.714844 386.214844 750 386.214844 C 738.285156 386.214844 728.785156 376.714844 728.785156 365 C 728.785156 353.285156 738.285156 343.785156 750 343.785156 C 761.714844 343.785156 771.214844 353.285156 771.214844 365 "/>
<path style="fill-rule:nonzero;fill:rgb(100%,51%,0%);fill-opacity:1;stroke-width:1;stroke-linecap:butt;stroke-linejoin:miter;stroke:rgb(0%,0%,0%);stroke-opacity:1;stroke-miterlimit:10;" d="M 942.214844 399 C 942.214844 410.714844 932.714844 420.214844 921 420.214844 C 909.285156 420.214844 899.785156 410.714844 899.785156 399 C 899.785156 387.285156 909.285156 377.785156 921 377.785156 C 932.714844 377.785156 942.214844 387.285156 942.214844 399 "/>
<path style="fill-rule:nonzero;fill:rgb(100%,51%,0%);fill-opacity:1;stroke-width:1;stroke-linecap:butt;stroke-linejoin:miter;stroke:rgb(0%,0%,0%);stroke-opacity:1;stroke-miterlimit:10;" d="M 406.214844 135 C 406.214844 146.714844 396.714844 156.214844 385 156.214844 C 373.285156 156.214844 363.785156 146.714844 363.785156 135 C 363.785156 123.285156 373.285156 113.785156 385 113.785156 C 396.714844 113.785156 406.214844 123.285156 406.214844 135 "/>
</g>
</svg>
