<?xml version="1.0" encoding="UTF-8"?>
<svg xmlns="http://www.w3.org/2000/svg" xmlns:xlink="http://www.w3.org/1999/xlink" width="1129pt" height="517pt" viewBox="0 0 1129 517" version="1.1">
<g id="surface581">
<rect x="0" y="0" width="1129" height="517" style="fill:rgb(90%,90%,90%);fill-opacity:1;stroke:none;"/>
<path style="fill-rule:nonzero;fill:rgb(35%,70%,90%);fill-opacity:1;stroke-width:1;stroke-linecap:butt;stroke-linejoin:miter;stroke:rgb(0%,0%,0%);stroke-opacity:1;stroke-miterlimit:10;" d="M 72 369 L 101.664062 369 L 113.664062 340.785156 L 125.664062 369 L 155.332031 369 L 131.332031 386.4375 L 139.417969 417.980469 L 113.664062 400.542969 L 87.914062 417.980469 L 100.214844 386.4375 L 72 369 "/>
<path style="fill-rule:nonzero;fill:rgb(53%,27%,7%);fill-opacity:1;stroke-width:1;stroke-linecap:butt;stroke-linejoin:miter;stroke:rgb(0%,0%,0%);stroke-opacity:1;stroke-miterlimit:10;" d="M 286 271 L 315.664062 271 L 327.664062 242.785156 L 339.664062 271 L 369.332031 271 L 345.332031 288.4375 L 353.417969 319.980469 L 327.664062 302.542969 L 301.914062 319.980469 L 314.214844 288.4375 L 286 271 "/>
<path style="fill-rule:nonzero;fill:rgb(35%,70%,90%);fill-opacity:1;stroke-width:1;stroke-linecap:butt;stroke-linejoin:miter;stroke:rgb(0%,0%,0%);stroke-opacity:1;stroke-miterlimit:10;" d="M 240 156 L 269.664062 156 L 281.664062 127.785156 L 293.664062 156 L 323.332031 156 L 299.332031 173.4375 L 307.417969 204.980469 L 281.664062 187.542969 L 255.914062 204.980469 L 268.214844 173.4375 L 240 156 "/>
<path style="fill-rule:nonzero;fill:rgb(53%,27%,7%);fill-opacity:1;stroke-width:1;stroke-linecap:butt;stroke-linejoin:miter;stroke:rgb(0%,0%,0%);stroke-opacity:1;stroke-miterlimit:10;" d="M 96 166 L 125.664062 166 L 137.664062 137.785156 L 149.664062 166 L 179.332031 166 L 155.332031 183.4375 L 163.417969 214.980469 L 137.664062 197.542969 L 111.914062 214.980469 L 124.214844 183.4375 L 96 166 "/>
<path style="fill-rule:nonzero;fill:rgb(35%,70%,90%);fill-opacity:1;stroke-width:1;stroke-linecap:butt;stroke-linejoin:miter;stroke:rgb(0%,0%,0%);stroke-opacity:1;stroke-miterlimit:10;" d="M 239 409 L 268.664062 409 L 280.664062 380.785156 L 292.664062 409 L 322.332031 409 L 298.332031 426.4375 L 306.417969 457.980469 L 280.664062 440.542969 L 254.914062 457.980469 L 267.214844 426.4375 L 239 409 "/>
<path style="fill-rule:nonzero;fill:rgb(53%,27%,7%);fill-opacity:1;stroke-width:1;stroke-linecap:butt;stroke-linejoin:miter;stroke:rgb(0%,0%,0%);stroke-opacity:1;stroke-miterlimit:10;" d="M 985.785156 345.785156 L 985.785156 388.214844 L 1028.214844 388.214844 L 1028.214844 345.785156 L 985.785156 345.785156 "/>
<path style="fill-rule:nonzero;fill:rgb(35%,70%,90%);fill-opacity:1;stroke-width:1;stroke-linecap:butt;stroke-linejoin:miter;stroke:rgb(0%,0%,0%);stroke-opacity:1;stroke-miterlimit:10;" d="M 882.785156 40.785156 L 882.785156 83.214844 L 925.214844 83.214844 L 925.214844 40.785156 L 882.785156 40.785156 "/>
<path style="fill-rule:nonzero;fill:rgb(53%,27%,7%);fill-opacity:1;stroke-width:1;stroke-linecap:butt;stroke-linejoin:miter;stroke:rgb(0%,0%,0%);stroke-opacity:1;stroke-miterlimit:10;" d="M 942.785156 120.785156 L 942.785156 163.214844 L 985.214844 163.214844 L 985.214844 120.785156 L 942.785156 120.785156 "/>
<path style="fill-rule:nonzero;fill:rgb(35%,70%,90%);fill-opacity:1;stroke-width:1;stroke-linecap:butt;stroke-linejoin:miter;stroke:rgb(0%,0%,0%);stroke-opacity:1;stroke-miterlimit:10;" d="M 841.785156 158.785156 L 841.785156 201.214844 L 884.214844 201.214844 L 884.214844 158.785156 L 841.785156 158.785156 "/>
</g>
</svg>
