<?xml version="1.0" encoding="UTF-8"?>
<svg xmlns="http://www.w3.org/2000/svg" xmlns:xlink="http://www.w3.org/1999/xlink" width="1129pt" height="517pt" viewBox="0 0 1129 517" version="1.1">
<g id="surface721">
<rect x="0" y="0" width="1129" height="517" style="fill:rgb(90%,90%,90%);fill-opacity:1;stroke:none;"/>
<path style="fill-rule:nonzero;fill:rgb(53%,27%,7%);fill-opacity:1;stroke-width:1;stroke-linecap:butt;stroke-linejoin:miter;stroke:rgb(0%,0%,0%);stroke-opacity:1;stroke-miterlimit:10;" d="M 211 80.601562 C 211 66.199219 187 66.199219 187 80.601562 C 187 95 211 97.398438 211 109.398438 C 211 97.398438 235 95 235 80.601562 C 235 66.199219 211 66.199219 211 80.601562 "/>
<path style="fill-rule:nonzero;fill:rgb(53%,27%,7%);fill-opacity:1;stroke-width:1;stroke-linecap:butt;stroke-linejoin:miter;stroke:rgb(0%,0%,0%);stroke-opacity:1;stroke-miterlimit:10;" d="M 195 445.601562 C 195 431.199219 171 431.199219 171 445.601562 C 171 460 195 462.398438 195 474.398438 C 195 462.398438 219 460 219 445.601562 C 219 431.199219 195 431.199219 195 445.601562 "/>
<path style="fill-rule:nonzero;fill:rgb(53%,27%,7%);fill-opacity:1;stroke-width:1;stroke-linecap:butt;stroke-linejoin:miter;stroke:rgb(0%,0%,0%);stroke-opacity:1;stroke-miterlimit:10;" d="M 247 189.601562 C 247 175.199219 223 175.199219 223 189.601562 C 223 204 247 206.398438 247 218.398438 C 247 206.398438 271 204 271 189.601562 C 271 175.199219 247 175.199219 247 189.601562 "/>
<path style="fill-rule:nonzero;fill:rgb(53%,27%,7%);fill-opacity:1;stroke-width:1;stroke-linecap:butt;stroke-linejoin:miter;stroke:rgb(0%,0%,0%);stroke-opacity:1;stroke-miterlimit:10;" d="M 599 305.601562 C 599 291.199219 575 291.199219 575 305.601562 C 575 320 599 322.398438 599 334.398438 C 599 322.398438 623 320 623 305.601562 C 623 291.199219 599 291.199219 599 305.601562 "/>
<path style="fill-rule:nonzero;fill:rgb(53%,27%,7%);fill-opacity:1;stroke-width:1;stroke-linecap:butt;stroke-linejoin:miter;stroke:rgb(0%,0%,0%);stroke-opacity:1;stroke-miterlimit:10;" d="M 874 158.601562 C 874 144.199219 850 144.199219 850 158.601562 C 850 173 874 175.398438 874 187.398438 C 874 175.398438 898 173 898 158.601562 C 898 144.199219 874 144.199219 874 158.601562 "/>
<path style="fill-rule:nonzero;fill:rgb(100%,51%,0%);fill-opacity:1;stroke-width:1;stroke-linecap:butt;stroke-linejoin:miter;stroke:rgb(0%,0%,0%);stroke-opacity:1;stroke-miterlimit:10;" d="M 950.214844 348 C 950.214844 359.714844 940.714844 369.214844 929 369.214844 C 917.285156 369.214844 907.785156 359.714844 907.785156 348 C 907.785156 336.285156 917.285156 326.785156 929 326.785156 C 940.714844 326.785156 950.214844 336.285156 950.214844 348 "/>
<path style="fill-rule:nonzero;fill:rgb(100%,51%,0%);fill-opacity:1;stroke-width:1;stroke-linecap:butt;stroke-linejoin:miter;stroke:rgb(0%,0%,0%);stroke-opacity:1;stroke-miterlimit:10;" d="M 593.214844 54 C 593.214844 65.714844 583.714844 75.214844 572 75.214844 C 560.285156 75.214844 550.785156 65.714844 550.785156 54 C 550.785156 42.285156 560.285156 32.785156 572 32.785156 C 583.714844 32.785156 593.214844 42.285156 593.214844 54 "/>
<path style="fill-rule:nonzero;fill:rgb(100%,51%,0%);fill-opacity:1;stroke-width:1;stroke-linecap:butt;stroke-linejoin:miter;stroke:rgb(0%,0%,0%);stroke-opacity:1;stroke-miterlimit:10;" d="M 630.214844 220 C 630.214844 231.714844 620.714844 241.214844 609 241.214844 C 597.285156 241.214844 587.785156 231.714844 587.785156 220 C 587.785156 208.285156 597.285156 198.785156 609 198.785156 C 620.714844 198.785156 630.214844 208.285156 630.214844 220 "/>
<path style="fill-rule:nonzero;fill:rgb(100%,51%,0%);fill-opacity:1;stroke-width:1;stroke-linecap:butt;stroke-linejoin:miter;stroke:rgb(0%,0%,0%);stroke-opacity:1;stroke-miterlimit:10;" d="M 97.214844 112 C 97.214844 123.714844 87.714844 133.214844 76 133.214844 C 64.285156 133.214844 54.785156 123.714844 54.785156 112 C 54.785156 100.285156 64.285156 90.785156 76 90.785156 C 87.714844 90.785156 97.214844 100.285156 97.214844 112 "/>
<path style="fill-rule:nonzero;fill:rgb(100%,51%,0%);fill-opacity:1;stroke-width:1;stroke-linecap:butt;stroke-linejoin:miter;stroke:rgb(0%,0%,0%);stroke-opacity:1;stroke-miterlimit:10;" d="M 584.214844 405 C 584.214844 416.714844 574.714844 426.214844 563 426.214844 C 551.285156 426.214844 541.785156 416.714844 541.785156 405 C 541.785156 393.285156 551.285156 383.785156 563 383.785156 C 574.714844 383.785156 584.214844 393.285156 584.214844 405 "/>
<path style="fill-rule:nonzero;fill:rgb(100%,51%,0%);fill-opacity:1;stroke-width:1;stroke-linecap:butt;stroke-linejoin:miter;stroke:rgb(0%,0%,0%);stroke-opacity:1;stroke-miterlimit:10;" d="M 176.214844 269 C 176.214844 280.714844 166.714844 290.214844 155 290.214844 C 143.285156 290.214844 133.785156 280.714844 133.785156 269 C 133.785156 257.285156 143.285156 247.785156 155 247.785156 C 166.714844 247.785156 176.214844 257.285156 176.214844 269 "/>
<path style="fill-rule:nonzero;fill:rgb(100%,51%,0%);fill-opacity:1;stroke-width:1;stroke-linecap:butt;stroke-linejoin:miter;stroke:rgb(0%,0%,0%);stroke-opacity:1;stroke-miterlimit:10;" d="M 983.214844 206 C 983.214844 217.714844 973.714844 227.214844 962 227.214844 C 950.285156 227.214844 940.785156 217.714844 940.785156 206 C 940.785156 194.285156 950.285156 184.785156 962 184.785156 C 973.714844 184.785156 983.214844 194.285156 983.214844 206 "/>
<path style="fill-rule:nonzero;fill:rgb(100%,51%,0%);fill-opacity:1;stroke-width:1;stroke-linecap:butt;stroke-linejoin:miter;stroke:rgb(0%,0%,0%);stroke-opacity:1;stroke-miterlimit:10;" d="M 821.214844 323 C 821.214844 334.714844 811.714844 344.214844 800 344.214844 C 788.285156 344.214844 778.785156 334.714844 778.785156 323 C 778.785156 311.285156 788.285156 301.785156 800 301.785156 C 811.714844 301.785156 821.214844 311.285156 821.214844 323 "/>
</g>
</svg>
