<?xml version="1.0" encoding="UTF-8"?>
<svg xmlns="http://www.w3.org/2000/svg" xmlns:xlink="http://www.w3.org/1999/xlink" width="1129pt" height="517pt" viewBox="0 0 1129 517" version="1.1">
<g id="surface851">
<rect x="0" y="0" width="1129" height="517" style="fill:rgb(90%,90%,90%);fill-opacity:1;stroke:none;"/>
<path style="fill-rule:nonzero;fill:rgb(53%,27%,7%);fill-opacity:1;stroke-width:1;stroke-linecap:butt;stroke-linejoin:miter;stroke:rgb(0%,0%,0%);stroke-opacity:1;stroke-miterlimit:10;" d="M 270 228.601562 C 270 214.199219 246 214.199219 246 228.601562 C 246 243 270 245.398438 270 257.398438 C 270 245.398438 294 243 294 228.601562 C 294 214.199219 270 214.199219 270 228.601562 "/>
<path style="fill-rule:nonzero;fill:rgb(53%,27%,7%);fill-opacity:1;stroke-width:1;stroke-linecap:butt;stroke-linejoin:miter;stroke:rgb(0%,0%,0%);stroke-opacity:1;stroke-miterlimit:10;" d="M 104 312.601562 C 104 298.199219 80 298.199219 80 312.601562 C 80 327 104 329.398438 104 341.398438 C 104 329.398438 128 327 128 312.601562 C 128 298.199219 104 298.199219 104 312.601562 "/>
<path style="fill-rule:nonzero;fill:rgb(53%,27%,7%);fill-opacity:1;stroke-width:1;stroke-linecap:butt;stroke-linejoin:miter;stroke:rgb(0%,0%,0%);stroke-opacity:1;stroke-miterlimit:10;" d="M 184.214844 118 C 184.214844 129.714844 174.714844 139.214844 163 139.214844 C 151.285156 139.214844 141.785156 129.714844 141.785156 118 C 141.785156 106.285156 151.285156 96.785156 163 96.785156 C 174.714844 96.785156 184.214844 106.285156 184.214844 118 "/>
<path style="fill-rule:nonzero;fill:rgb(53%,27%,7%);fill-opacity:1;stroke-width:1;stroke-linecap:butt;stroke-linejoin:miter;stroke:rgb(0%,0%,0%);stroke-opacity:1;stroke-miterlimit:10;" d="M 443.214844 151 C 443.214844 162.714844 433.714844 172.214844 422 172.214844 C 410.285156 172.214844 400.785156 162.714844 400.785156 151 C 400.785156 139.285156 410.285156 129.785156 422 129.785156 C 433.714844 129.785156 443.214844 139.285156 443.214844 151 "/>
<path style="fill-rule:nonzero;fill:rgb(53%,27%,7%);fill-opacity:1;stroke-width:1;stroke-linecap:butt;stroke-linejoin:miter;stroke:rgb(0%,0%,0%);stroke-opacity:1;stroke-miterlimit:10;" d="M 58 51.601562 C 58 37.199219 34 37.199219 34 51.601562 C 34 66 58 68.398438 58 80.398438 C 58 68.398438 82 66 82 51.601562 C 82 37.199219 58 37.199219 58 51.601562 "/>
<path style="fill-rule:nonzero;fill:rgb(53%,27%,7%);fill-opacity:1;stroke-width:1;stroke-linecap:butt;stroke-linejoin:miter;stroke:rgb(0%,0%,0%);stroke-opacity:1;stroke-miterlimit:10;" d="M 213 363.601562 C 213 349.199219 189 349.199219 189 363.601562 C 189 378 213 380.398438 213 392.398438 C 213 380.398438 237 378 237 363.601562 C 237 349.199219 213 349.199219 213 363.601562 "/>
<path style="fill-rule:nonzero;fill:rgb(53%,27%,7%);fill-opacity:1;stroke-width:1;stroke-linecap:butt;stroke-linejoin:miter;stroke:rgb(0%,0%,0%);stroke-opacity:1;stroke-miterlimit:10;" d="M 390 283.601562 C 390 269.199219 366 269.199219 366 283.601562 C 366 298 390 300.398438 390 312.398438 C 390 300.398438 414 298 414 283.601562 C 414 269.199219 390 269.199219 390 283.601562 "/>
<path style="fill-rule:nonzero;fill:rgb(53%,27%,7%);fill-opacity:1;stroke-width:1;stroke-linecap:butt;stroke-linejoin:miter;stroke:rgb(0%,0%,0%);stroke-opacity:1;stroke-miterlimit:10;" d="M 341 428.601562 C 341 414.199219 317 414.199219 317 428.601562 C 317 443 341 445.398438 341 457.398438 C 341 445.398438 365 443 365 428.601562 C 365 414.199219 341 414.199219 341 428.601562 "/>
<path style="fill-rule:nonzero;fill:rgb(100%,51%,0%);fill-opacity:1;stroke-width:1;stroke-linecap:butt;stroke-linejoin:miter;stroke:rgb(0%,0%,0%);stroke-opacity:1;stroke-miterlimit:10;" d="M 833.214844 369 C 833.214844 380.714844 823.714844 390.214844 812 390.214844 C 800.285156 390.214844 790.785156 380.714844 790.785156 369 C 790.785156 357.285156 800.285156 347.785156 812 347.785156 C 823.714844 347.785156 833.214844 357.285156 833.214844 369 "/>
<path style="fill-rule:nonzero;fill:rgb(100%,51%,0%);fill-opacity:1;stroke-width:1;stroke-linecap:butt;stroke-linejoin:miter;stroke:rgb(0%,0%,0%);stroke-opacity:1;stroke-miterlimit:10;" d="M 948.214844 291 C 948.214844 302.714844 938.714844 312.214844 927 312.214844 C 915.285156 312.214844 905.785156 302.714844 905.785156 291 C 905.785156 279.285156 915.285156 269.785156 927 269.785156 C 938.714844 269.785156 948.214844 279.285156 948.214844 291 "/>
<path style="fill-rule:nonzero;fill:rgb(100%,51%,0%);fill-opacity:1;stroke-width:1;stroke-linecap:butt;stroke-linejoin:miter;stroke:rgb(0%,0%,0%);stroke-opacity:1;stroke-miterlimit:10;" d="M 831 249.601562 C 831 235.199219 807 235.199219 807 249.601562 C 807 264 831 266.398438 831 278.398438 C 831 266.398438 855 264 855 249.601562 C 855 235.199219 831 235.199219 831 249.601562 "/>
<path style="fill-rule:nonzero;fill:rgb(100%,51%,0%);fill-opacity:1;stroke-width:1;stroke-linecap:butt;stroke-linejoin:miter;stroke:rgb(0%,0%,0%);stroke-opacity:1;stroke-miterlimit:10;" d="M 882 122.601562 C 882 108.199219 858 108.199219 858 122.601562 C 858 137 882 139.398438 882 151.398438 C 882 139.398438 906 137 906 122.601562 C 906 108.199219 882 108.199219 882 122.601562 "/>
<path style="fill-rule:nonzero;fill:rgb(100%,51%,0%);fill-opacity:1;stroke-width:1;stroke-linecap:butt;stroke-linejoin:miter;stroke:rgb(0%,0%,0%);stroke-opacity:1;stroke-miterlimit:10;" d="M 1024.214844 440 C 1024.214844 451.714844 1014.714844 461.214844 1003 461.214844 C 991.285156 461.214844 981.785156 451.714844 981.785156 440 C 981.785156 428.285156 991.285156 418.785156 1003 418.785156 C 1014.714844 418.785156 1024.214844 428.285156 1024.214844 440 "/>
<path style="fill-rule:nonzero;fill:rgb(100%,51%,0%);fill-opacity:1;stroke-width:1;stroke-linecap:butt;stroke-linejoin:miter;stroke:rgb(0%,0%,0%);stroke-opacity:1;stroke-miterlimit:10;" d="M 1021.214844 148 C 1021.214844 159.714844 1011.714844 169.214844 1000 169.214844 C 988.285156 169.214844 978.785156 159.714844 978.785156 148 C 978.785156 136.285156 988.285156 126.785156 1000 126.785156 C 1011.714844 126.785156 1021.214844 136.285156 1021.214844 148 "/>
<path style="fill-rule:nonzero;fill:rgb(100%,51%,0%);fill-opacity:1;stroke-width:1;stroke-linecap:butt;stroke-linejoin:miter;stroke:rgb(0%,0%,0%);stroke-opacity:1;stroke-miterlimit:10;" d="M 769.214844 138 C 769.214844 149.714844 759.714844 159.214844 748 159.214844 C 736.285156 159.214844 726.785156 149.714844 726.785156 138 C 726.785156 126.285156 736.285156 116.785156 748 116.785156 C 759.714844 116.785156 769.214844 126.285156 769.214844 138 "/>
<path style="fill-rule:nonzero;fill:rgb(100%,51%,0%);fill-opacity:1;stroke-width:1;stroke-linecap:butt;stroke-linejoin:miter;stroke:rgb(0%,0%,0%);stroke-opacity:1;stroke-miterlimit:10;" d="M 933.214844 386 C 933.214844 397.714844 923.714844 407.214844 912 407.214844 C 900.285156 407.214844 890.785156 397.714844 890.785156 386 C 890.785156 374.285156 900.285156 364.785156 912 364.785156 C 923.714844 364.785156 933.214844 374.285156 933.214844 386 "/>
</g>
</svg>
