<?xml version="1.0" encoding="UTF-8"?>
<svg xmlns="http://www.w3.org/2000/svg" xmlns:xlink="http://www.w3.org/1999/xlink" width="1179pt" height="517pt" viewBox="0 0 1179 517" version="1.1">
<g id="surface481">
<rect x="0" y="0" width="1179" height="517" style="fill:rgb(90%,90%,90%);fill-opacity:1;stroke:none;"/>
<path style="fill-rule:nonzero;fill:rgb(55%,51%,53%);fill-opacity:1;stroke-width:1;stroke-linecap:butt;stroke-linejoin:miter;stroke:rgb(0%,0%,0%);stroke-opacity:1;stroke-miterlimit:10;" d="M 246.214844 312 C 246.214844 323.714844 236.714844 333.214844 225 333.214844 C 213.285156 333.214844 203.785156 323.714844 203.785156 312 C 203.785156 300.285156 213.285156 290.785156 225 290.785156 C 236.714844 290.785156 246.214844 300.285156 246.214844 312 "/>
<path style="fill-rule:nonzero;fill:rgb(55%,51%,53%);fill-opacity:1;stroke-width:1;stroke-linecap:butt;stroke-linejoin:miter;stroke:rgb(0%,0%,0%);stroke-opacity:1;stroke-miterlimit:10;" d="M 442.214844 303 C 442.214844 314.714844 432.714844 324.214844 421 324.214844 C 409.285156 324.214844 399.785156 314.714844 399.785156 303 C 399.785156 291.285156 409.285156 281.785156 421 281.785156 C 432.714844 281.785156 442.214844 291.285156 442.214844 303 "/>
<path style="fill-rule:nonzero;fill:rgb(55%,51%,53%);fill-opacity:1;stroke-width:1;stroke-linecap:butt;stroke-linejoin:miter;stroke:rgb(0%,0%,0%);stroke-opacity:1;stroke-miterlimit:10;" d="M 121.214844 410 C 121.214844 421.714844 111.714844 431.214844 100 431.214844 C 88.285156 431.214844 78.785156 421.714844 78.785156 410 C 78.785156 398.285156 88.285156 388.785156 100 388.785156 C 111.714844 388.785156 121.214844 398.285156 121.214844 410 "/>
<path style="fill-rule:nonzero;fill:rgb(55%,51%,53%);fill-opacity:1;stroke-width:1;stroke-linecap:butt;stroke-linejoin:miter;stroke:rgb(0%,0%,0%);stroke-opacity:1;stroke-miterlimit:10;" d="M 362.214844 193 C 362.214844 204.714844 352.714844 214.214844 341 214.214844 C 329.285156 214.214844 319.785156 204.714844 319.785156 193 C 319.785156 181.285156 329.285156 171.785156 341 171.785156 C 352.714844 171.785156 362.214844 181.285156 362.214844 193 "/>
<path style="fill-rule:nonzero;fill:rgb(55%,51%,53%);fill-opacity:1;stroke-width:1;stroke-linecap:butt;stroke-linejoin:miter;stroke:rgb(0%,0%,0%);stroke-opacity:1;stroke-miterlimit:10;" d="M 1038.214844 292 C 1038.214844 303.714844 1028.714844 313.214844 1017 313.214844 C 1005.285156 313.214844 995.785156 303.714844 995.785156 292 C 995.785156 280.285156 1005.285156 270.785156 1017 270.785156 C 1028.714844 270.785156 1038.214844 280.285156 1038.214844 292 "/>
<path style="fill-rule:nonzero;fill:rgb(100%,51%,0%);fill-opacity:1;stroke-width:1;stroke-linecap:butt;stroke-linejoin:miter;stroke:rgb(0%,0%,0%);stroke-opacity:1;stroke-miterlimit:10;" d="M 1027 422 L 1056.664062 422 L 1068.664062 393.785156 L 1080.664062 422 L 1110.332031 422 L 1086.332031 439.4375 L 1094.417969 470.980469 L 1068.664062 453.542969 L 1042.914062 470.980469 L 1055.214844 439.4375 L 1027 422 "/>
<path style="fill-rule:nonzero;fill:rgb(100%,51%,0%);fill-opacity:1;stroke-width:1;stroke-linecap:butt;stroke-linejoin:miter;stroke:rgb(0%,0%,0%);stroke-opacity:1;stroke-miterlimit:10;" d="M 802 111 L 831.664062 111 L 843.664062 82.785156 L 855.664062 111 L 885.332031 111 L 861.332031 128.4375 L 869.417969 159.980469 L 843.664062 142.542969 L 817.914062 159.980469 L 830.214844 128.4375 L 802 111 "/>
<path style="fill-rule:nonzero;fill:rgb(100%,51%,0%);fill-opacity:1;stroke-width:1;stroke-linecap:butt;stroke-linejoin:miter;stroke:rgb(0%,0%,0%);stroke-opacity:1;stroke-miterlimit:10;" d="M 778 407 L 807.664062 407 L 819.664062 378.785156 L 831.664062 407 L 861.332031 407 L 837.332031 424.4375 L 845.417969 455.980469 L 819.664062 438.542969 L 793.914062 455.980469 L 806.214844 424.4375 L 778 407 "/>
</g>
</svg>
