<?xml version="1.0" encoding="UTF-8"?>
<svg xmlns="http://www.w3.org/2000/svg" xmlns:xlink="http://www.w3.org/1999/xlink" width="1129pt" height="517pt" viewBox="0 0 1129 517" version="1.1">
<g id="surface906">
<rect x="0" y="0" width="1129" height="517" style="fill:rgb(90%,90%,90%);fill-opacity:1;stroke:none;"/>
<path style="fill-rule:nonzero;fill:rgb(55%,51%,53%);fill-opacity:1;stroke-width:1;stroke-linecap:butt;stroke-linejoin:miter;stroke:rgb(0%,0%,0%);stroke-opacity:1;stroke-miterlimit:10;" d="M 907 84 L 881.019531 129 L 932.980469 129 L 907 84 "/>
<path style="fill-rule:nonzero;fill:rgb(55%,51%,53%);fill-opacity:1;stroke-width:1;stroke-linecap:butt;stroke-linejoin:miter;stroke:rgb(0%,0%,0%);stroke-opacity:1;stroke-miterlimit:10;" d="M 892 410 L 866.019531 455 L 917.980469 455 L 892 410 "/>
<path style="fill-rule:nonzero;fill:rgb(55%,51%,53%);fill-opacity:1;stroke-width:1;stroke-linecap:butt;stroke-linejoin:miter;stroke:rgb(0%,0%,0%);stroke-opacity:1;stroke-miterlimit:10;" d="M 240 150 L 214.019531 195 L 265.980469 195 L 240 150 "/>
<path style="fill-rule:nonzero;fill:rgb(55%,51%,53%);fill-opacity:1;stroke-width:1;stroke-linecap:butt;stroke-linejoin:miter;stroke:rgb(0%,0%,0%);stroke-opacity:1;stroke-miterlimit:10;" d="M 483 183 L 457.019531 228 L 508.980469 228 L 483 183 "/>
<path style="fill-rule:nonzero;fill:rgb(55%,51%,53%);fill-opacity:1;stroke-width:1;stroke-linecap:butt;stroke-linejoin:miter;stroke:rgb(0%,0%,0%);stroke-opacity:1;stroke-miterlimit:10;" d="M 309 67 L 283.019531 112 L 334.980469 112 L 309 67 "/>
<path style="fill-rule:nonzero;fill:rgb(55%,51%,53%);fill-opacity:1;stroke-width:1;stroke-linecap:butt;stroke-linejoin:miter;stroke:rgb(0%,0%,0%);stroke-opacity:1;stroke-miterlimit:10;" d="M 598 413 L 572.019531 458 L 623.980469 458 L 598 413 "/>
<path style="fill-rule:nonzero;fill:rgb(55%,51%,53%);fill-opacity:1;stroke-width:1;stroke-linecap:butt;stroke-linejoin:miter;stroke:rgb(0%,0%,0%);stroke-opacity:1;stroke-miterlimit:10;" d="M 341 183 L 315.019531 228 L 366.980469 228 L 341 183 "/>
<path style="fill-rule:nonzero;fill:rgb(55%,51%,53%);fill-opacity:1;stroke-width:1;stroke-linecap:butt;stroke-linejoin:miter;stroke:rgb(0%,0%,0%);stroke-opacity:1;stroke-miterlimit:10;" d="M 435 30 L 409.019531 75 L 460.980469 75 L 435 30 "/>
<path style="fill-rule:nonzero;fill:rgb(55%,51%,53%);fill-opacity:1;stroke-width:1;stroke-linecap:butt;stroke-linejoin:miter;stroke:rgb(0%,0%,0%);stroke-opacity:1;stroke-miterlimit:10;" d="M 781 294 L 810.664062 294 L 822.664062 265.785156 L 834.664062 294 L 864.332031 294 L 840.332031 311.4375 L 848.417969 342.980469 L 822.664062 325.542969 L 796.914062 342.980469 L 809.214844 311.4375 L 781 294 "/>
<path style="fill-rule:nonzero;fill:rgb(55%,51%,53%);fill-opacity:1;stroke-width:1;stroke-linecap:butt;stroke-linejoin:miter;stroke:rgb(0%,0%,0%);stroke-opacity:1;stroke-miterlimit:10;" d="M 673 305 L 702.664062 305 L 714.664062 276.785156 L 726.664062 305 L 756.332031 305 L 732.332031 322.4375 L 740.417969 353.980469 L 714.664062 336.542969 L 688.914062 353.980469 L 701.214844 322.4375 L 673 305 "/>
<path style="fill-rule:nonzero;fill:rgb(55%,51%,53%);fill-opacity:1;stroke-width:1;stroke-linecap:butt;stroke-linejoin:miter;stroke:rgb(0%,0%,0%);stroke-opacity:1;stroke-miterlimit:10;" d="M 653 178 L 682.664062 178 L 694.664062 149.785156 L 706.664062 178 L 736.332031 178 L 712.332031 195.4375 L 720.417969 226.980469 L 694.664062 209.542969 L 668.914062 226.980469 L 681.214844 195.4375 L 653 178 "/>
<path style="fill-rule:nonzero;fill:rgb(55%,51%,53%);fill-opacity:1;stroke-width:1;stroke-linecap:butt;stroke-linejoin:miter;stroke:rgb(0%,0%,0%);stroke-opacity:1;stroke-miterlimit:10;" d="M 71 425 L 100.664062 425 L 112.664062 396.785156 L 124.664062 425 L 154.332031 425 L 130.332031 442.4375 L 138.417969 473.980469 L 112.664062 456.542969 L 86.914062 473.980469 L 99.214844 442.4375 L 71 425 "/>
<path style="fill-rule:nonzero;fill:rgb(55%,51%,53%);fill-opacity:1;stroke-width:1;stroke-linecap:butt;stroke-linejoin:miter;stroke:rgb(0%,0%,0%);stroke-opacity:1;stroke-miterlimit:10;" d="M 98 271 L 127.664062 271 L 139.664062 242.785156 L 151.664062 271 L 181.332031 271 L 157.332031 288.4375 L 165.417969 319.980469 L 139.664062 302.542969 L 113.914062 319.980469 L 126.214844 288.4375 L 98 271 "/>
<path style="fill-rule:nonzero;fill:rgb(55%,51%,53%);fill-opacity:1;stroke-width:1;stroke-linecap:butt;stroke-linejoin:miter;stroke:rgb(0%,0%,0%);stroke-opacity:1;stroke-miterlimit:10;" d="M 306 403 L 335.664062 403 L 347.664062 374.785156 L 359.664062 403 L 389.332031 403 L 365.332031 420.4375 L 373.417969 451.980469 L 347.664062 434.542969 L 321.914062 451.980469 L 334.214844 420.4375 L 306 403 "/>
<path style="fill-rule:nonzero;fill:rgb(55%,51%,53%);fill-opacity:1;stroke-width:1;stroke-linecap:butt;stroke-linejoin:miter;stroke:rgb(0%,0%,0%);stroke-opacity:1;stroke-miterlimit:10;" d="M 685 60 L 714.664062 60 L 726.664062 31.785156 L 738.664062 60 L 768.332031 60 L 744.332031 77.4375 L 752.417969 108.980469 L 726.664062 91.542969 L 700.914062 108.980469 L 713.214844 77.4375 L 685 60 "/>
</g>
</svg>
