<?xml version="1.0" encoding="UTF-8"?>
<svg xmlns="http://www.w3.org/2000/svg" xmlns:xlink="http://www.w3.org/1999/xlink" width="1129pt" height="517pt" viewBox="0 0 1129 517" version="1.1">
<g id="surface976">
<rect x="0" y="0" width="1129" height="517" style="fill:rgb(90%,90%,90%);fill-opacity:1;stroke:none;"/>
<path style="fill-rule:nonzero;fill:rgb(55%,51%,53%);fill-opacity:1;stroke-width:1;stroke-linecap:butt;stroke-linejoin:miter;stroke:rgb(0%,0%,0%);stroke-opacity:1;stroke-miterlimit:10;" d="M 343.214844 138 C 343.214844 149.714844 333.714844 159.214844 322 159.214844 C 310.285156 159.214844 300.785156 149.714844 300.785156 138 C 300.785156 126.285156 310.285156 116.785156 322 116.785156 C 333.714844 116.785156 343.214844 126.285156 343.214844 138 "/>
<path style="fill-rule:nonzero;fill:rgb(67%,100%,18%);fill-opacity:1;stroke-width:1;stroke-linecap:butt;stroke-linejoin:miter;stroke:rgb(0%,0%,0%);stroke-opacity:1;stroke-miterlimit:10;" d="M 87.214844 210 C 87.214844 221.714844 77.714844 231.214844 66 231.214844 C 54.285156 231.214844 44.785156 221.714844 44.785156 210 C 44.785156 198.285156 54.285156 188.785156 66 188.785156 C 77.714844 188.785156 87.214844 198.285156 87.214844 210 "/>
<path style="fill-rule:nonzero;fill:rgb(55%,51%,53%);fill-opacity:1;stroke-width:1;stroke-linecap:butt;stroke-linejoin:miter;stroke:rgb(0%,0%,0%);stroke-opacity:1;stroke-miterlimit:10;" d="M 332.214844 401 C 332.214844 412.714844 322.714844 422.214844 311 422.214844 C 299.285156 422.214844 289.785156 412.714844 289.785156 401 C 289.785156 389.285156 299.285156 379.785156 311 379.785156 C 322.714844 379.785156 332.214844 389.285156 332.214844 401 "/>
<path style="fill-rule:nonzero;fill:rgb(67%,100%,18%);fill-opacity:1;stroke-width:1;stroke-linecap:butt;stroke-linejoin:miter;stroke:rgb(0%,0%,0%);stroke-opacity:1;stroke-miterlimit:10;" d="M 152.214844 314 C 152.214844 325.714844 142.714844 335.214844 131 335.214844 C 119.285156 335.214844 109.785156 325.714844 109.785156 314 C 109.785156 302.285156 119.285156 292.785156 131 292.785156 C 142.714844 292.785156 152.214844 302.285156 152.214844 314 "/>
<path style="fill-rule:nonzero;fill:rgb(55%,51%,53%);fill-opacity:1;stroke-width:1;stroke-linecap:butt;stroke-linejoin:miter;stroke:rgb(0%,0%,0%);stroke-opacity:1;stroke-miterlimit:10;" d="M 198.214844 184 C 198.214844 195.714844 188.714844 205.214844 177 205.214844 C 165.285156 205.214844 155.785156 195.714844 155.785156 184 C 155.785156 172.285156 165.285156 162.785156 177 162.785156 C 188.714844 162.785156 198.214844 172.285156 198.214844 184 "/>
<path style="fill-rule:nonzero;fill:rgb(55%,51%,53%);fill-opacity:1;stroke-width:1;stroke-linecap:butt;stroke-linejoin:miter;stroke:rgb(0%,0%,0%);stroke-opacity:1;stroke-miterlimit:10;" d="M 431.214844 111 C 431.214844 122.714844 421.714844 132.214844 410 132.214844 C 398.285156 132.214844 388.785156 122.714844 388.785156 111 C 388.785156 99.285156 398.285156 89.785156 410 89.785156 C 421.714844 89.785156 431.214844 99.285156 431.214844 111 "/>
<path style="fill-rule:nonzero;fill:rgb(55%,51%,53%);fill-opacity:1;stroke-width:1;stroke-linecap:butt;stroke-linejoin:miter;stroke:rgb(0%,0%,0%);stroke-opacity:1;stroke-miterlimit:10;" d="M 260.214844 283 C 260.214844 294.714844 250.714844 304.214844 239 304.214844 C 227.285156 304.214844 217.785156 294.714844 217.785156 283 C 217.785156 271.285156 227.285156 261.785156 239 261.785156 C 250.714844 261.785156 260.214844 271.285156 260.214844 283 "/>
<path style="fill-rule:nonzero;fill:rgb(55%,51%,53%);fill-opacity:1;stroke-width:1;stroke-linecap:butt;stroke-linejoin:miter;stroke:rgb(0%,0%,0%);stroke-opacity:1;stroke-miterlimit:10;" d="M 474.214844 366 C 474.214844 377.714844 464.714844 387.214844 453 387.214844 C 441.285156 387.214844 431.785156 377.714844 431.785156 366 C 431.785156 354.285156 441.285156 344.785156 453 344.785156 C 464.714844 344.785156 474.214844 354.285156 474.214844 366 "/>
<path style="fill-rule:nonzero;fill:rgb(67%,100%,18%);fill-opacity:1;stroke-width:1;stroke-linecap:butt;stroke-linejoin:miter;stroke:rgb(0%,0%,0%);stroke-opacity:1;stroke-miterlimit:10;" d="M 725 158 L 699.019531 203 L 750.980469 203 L 725 158 "/>
<path style="fill-rule:nonzero;fill:rgb(55%,51%,53%);fill-opacity:1;stroke-width:1;stroke-linecap:butt;stroke-linejoin:miter;stroke:rgb(0%,0%,0%);stroke-opacity:1;stroke-miterlimit:10;" d="M 909 327 L 883.019531 372 L 934.980469 372 L 909 327 "/>
<path style="fill-rule:nonzero;fill:rgb(67%,100%,18%);fill-opacity:1;stroke-width:1;stroke-linecap:butt;stroke-linejoin:miter;stroke:rgb(0%,0%,0%);stroke-opacity:1;stroke-miterlimit:10;" d="M 1019 385 L 993.019531 430 L 1044.980469 430 L 1019 385 "/>
<path style="fill-rule:nonzero;fill:rgb(55%,51%,53%);fill-opacity:1;stroke-width:1;stroke-linecap:butt;stroke-linejoin:miter;stroke:rgb(0%,0%,0%);stroke-opacity:1;stroke-miterlimit:10;" d="M 849 242 L 823.019531 287 L 874.980469 287 L 849 242 "/>
<path style="fill-rule:nonzero;fill:rgb(67%,100%,18%);fill-opacity:1;stroke-width:1;stroke-linecap:butt;stroke-linejoin:miter;stroke:rgb(0%,0%,0%);stroke-opacity:1;stroke-miterlimit:10;" d="M 803 332 L 777.019531 377 L 828.980469 377 L 803 332 "/>
<path style="fill-rule:nonzero;fill:rgb(67%,100%,18%);fill-opacity:1;stroke-width:1;stroke-linecap:butt;stroke-linejoin:miter;stroke:rgb(0%,0%,0%);stroke-opacity:1;stroke-miterlimit:10;" d="M 906 429 L 880.019531 474 L 931.980469 474 L 906 429 "/>
</g>
</svg>
