<?xml version="1.0" encoding="UTF-8"?>
<svg xmlns="http://www.w3.org/2000/svg" xmlns:xlink="http://www.w3.org/1999/xlink" width="1129pt" height="517pt" viewBox="0 0 1129 517" version="1.1">
<g id="surface561">
<rect x="0" y="0" width="1129" height="517" style="fill:rgb(90%,90%,90%);fill-opacity:1;stroke:none;"/>
<path style="fill-rule:nonzero;fill:rgb(35%,70%,90%);fill-opacity:1;stroke-width:1;stroke-linecap:butt;stroke-linejoin:miter;stroke:rgb(0%,0%,0%);stroke-opacity:1;stroke-miterlimit:10;" d="M 324.214844 210 C 324.214844 221.714844 314.714844 231.214844 303 231.214844 C 291.285156 231.214844 281.785156 221.714844 281.785156 210 C 281.785156 198.285156 291.285156 188.785156 303 188.785156 C 314.714844 188.785156 324.214844 198.285156 324.214844 210 "/>
<path style="fill-rule:nonzero;fill:rgb(35%,70%,90%);fill-opacity:1;stroke-width:1;stroke-linecap:butt;stroke-linejoin:miter;stroke:rgb(0%,0%,0%);stroke-opacity:1;stroke-miterlimit:10;" d="M 254.214844 376 C 254.214844 387.714844 244.714844 397.214844 233 397.214844 C 221.285156 397.214844 211.785156 387.714844 211.785156 376 C 211.785156 364.285156 221.285156 354.785156 233 354.785156 C 244.714844 354.785156 254.214844 364.285156 254.214844 376 "/>
<path style="fill-rule:nonzero;fill:rgb(35%,70%,90%);fill-opacity:1;stroke-width:1;stroke-linecap:butt;stroke-linejoin:miter;stroke:rgb(0%,0%,0%);stroke-opacity:1;stroke-miterlimit:10;" d="M 70.785156 423.785156 L 70.785156 466.214844 L 113.214844 466.214844 L 113.214844 423.785156 L 70.785156 423.785156 "/>
<path style="fill-rule:nonzero;fill:rgb(35%,70%,90%);fill-opacity:1;stroke-width:1;stroke-linecap:butt;stroke-linejoin:miter;stroke:rgb(0%,0%,0%);stroke-opacity:1;stroke-miterlimit:10;" d="M 205.214844 183 C 205.214844 194.714844 195.714844 204.214844 184 204.214844 C 172.285156 204.214844 162.785156 194.714844 162.785156 183 C 162.785156 171.285156 172.285156 161.785156 184 161.785156 C 195.714844 161.785156 205.214844 171.285156 205.214844 183 "/>
<path style="fill-rule:nonzero;fill:rgb(35%,70%,90%);fill-opacity:1;stroke-width:1;stroke-linecap:butt;stroke-linejoin:miter;stroke:rgb(0%,0%,0%);stroke-opacity:1;stroke-miterlimit:10;" d="M 322.214844 435 C 322.214844 446.714844 312.714844 456.214844 301 456.214844 C 289.285156 456.214844 279.785156 446.714844 279.785156 435 C 279.785156 423.285156 289.285156 413.785156 301 413.785156 C 312.714844 413.785156 322.214844 423.285156 322.214844 435 "/>
<path style="fill-rule:nonzero;fill:rgb(100%,51%,0%);fill-opacity:1;stroke-width:1;stroke-linecap:butt;stroke-linejoin:miter;stroke:rgb(0%,0%,0%);stroke-opacity:1;stroke-miterlimit:10;" d="M 793.785156 101.785156 L 793.785156 144.214844 L 836.214844 144.214844 L 836.214844 101.785156 L 793.785156 101.785156 "/>
<path style="fill-rule:nonzero;fill:rgb(100%,51%,0%);fill-opacity:1;stroke-width:1;stroke-linecap:butt;stroke-linejoin:miter;stroke:rgb(0%,0%,0%);stroke-opacity:1;stroke-miterlimit:10;" d="M 703.785156 428.785156 L 703.785156 471.214844 L 746.214844 471.214844 L 746.214844 428.785156 L 703.785156 428.785156 "/>
<path style="fill-rule:nonzero;fill:rgb(100%,51%,0%);fill-opacity:1;stroke-width:1;stroke-linecap:butt;stroke-linejoin:miter;stroke:rgb(0%,0%,0%);stroke-opacity:1;stroke-miterlimit:10;" d="M 992.214844 62 C 992.214844 73.714844 982.714844 83.214844 971 83.214844 C 959.285156 83.214844 949.785156 73.714844 949.785156 62 C 949.785156 50.285156 959.285156 40.785156 971 40.785156 C 982.714844 40.785156 992.214844 50.285156 992.214844 62 "/>
<path style="fill-rule:nonzero;fill:rgb(100%,51%,0%);fill-opacity:1;stroke-width:1;stroke-linecap:butt;stroke-linejoin:miter;stroke:rgb(0%,0%,0%);stroke-opacity:1;stroke-miterlimit:10;" d="M 892.785156 264.785156 L 892.785156 307.214844 L 935.214844 307.214844 L 935.214844 264.785156 L 892.785156 264.785156 "/>
</g>
</svg>
