<?xml version="1.0" encoding="UTF-8"?>
<svg xmlns="http://www.w3.org/2000/svg" xmlns:xlink="http://www.w3.org/1999/xlink" width="1129pt" height="517pt" viewBox="0 0 1129 517" version="1.1">
<g id="surface816">
<rect x="0" y="0" width="1129" height="517" style="fill:rgb(90%,90%,90%);fill-opacity:1;stroke:none;"/>
<path style="fill-rule:nonzero;fill:rgb(55%,51%,53%);fill-opacity:1;stroke-width:1;stroke-linecap:butt;stroke-linejoin:miter;stroke:rgb(0%,0%,0%);stroke-opacity:1;stroke-miterlimit:10;" d="M 941 149 L 915.019531 194 L 966.980469 194 L 941 149 "/>
<path style="fill-rule:nonzero;fill:rgb(55%,51%,53%);fill-opacity:1;stroke-width:1;stroke-linecap:butt;stroke-linejoin:miter;stroke:rgb(0%,0%,0%);stroke-opacity:1;stroke-miterlimit:10;" d="M 778 155 L 752.019531 200 L 803.980469 200 L 778 155 "/>
<path style="fill-rule:nonzero;fill:rgb(55%,51%,53%);fill-opacity:1;stroke-width:1;stroke-linecap:butt;stroke-linejoin:miter;stroke:rgb(0%,0%,0%);stroke-opacity:1;stroke-miterlimit:10;" d="M 879 35 L 853.019531 80 L 904.980469 80 L 879 35 "/>
<path style="fill-rule:nonzero;fill:rgb(55%,51%,53%);fill-opacity:1;stroke-width:1;stroke-linecap:butt;stroke-linejoin:miter;stroke:rgb(0%,0%,0%);stroke-opacity:1;stroke-miterlimit:10;" d="M 526 138 L 500.019531 183 L 551.980469 183 L 526 138 "/>
<path style="fill-rule:nonzero;fill:rgb(55%,51%,53%);fill-opacity:1;stroke-width:1;stroke-linecap:butt;stroke-linejoin:miter;stroke:rgb(0%,0%,0%);stroke-opacity:1;stroke-miterlimit:10;" d="M 910 369 L 884.019531 414 L 935.980469 414 L 910 369 "/>
<path style="fill-rule:nonzero;fill:rgb(55%,51%,53%);fill-opacity:1;stroke-width:1;stroke-linecap:butt;stroke-linejoin:miter;stroke:rgb(0%,0%,0%);stroke-opacity:1;stroke-miterlimit:10;" d="M 402 382 L 376.019531 427 L 427.980469 427 L 402 382 "/>
<path style="fill-rule:nonzero;fill:rgb(55%,51%,53%);fill-opacity:1;stroke-width:1;stroke-linecap:butt;stroke-linejoin:miter;stroke:rgb(0%,0%,0%);stroke-opacity:1;stroke-miterlimit:10;" d="M 284 123 L 258.019531 168 L 309.980469 168 L 284 123 "/>
<path style="fill-rule:nonzero;fill:rgb(55%,51%,53%);fill-opacity:1;stroke-width:1;stroke-linecap:butt;stroke-linejoin:miter;stroke:rgb(0%,0%,0%);stroke-opacity:1;stroke-miterlimit:10;" d="M 596 312 L 570.019531 357 L 621.980469 357 L 596 312 "/>
<path style="fill-rule:nonzero;fill:rgb(55%,51%,53%);fill-opacity:1;stroke-width:1;stroke-linecap:butt;stroke-linejoin:miter;stroke:rgb(0%,0%,0%);stroke-opacity:1;stroke-miterlimit:10;" d="M 569 449 L 598.664062 449 L 610.664062 420.785156 L 622.664062 449 L 652.332031 449 L 628.332031 466.4375 L 636.417969 497.980469 L 610.664062 480.542969 L 584.914062 497.980469 L 597.214844 466.4375 L 569 449 "/>
<path style="fill-rule:nonzero;fill:rgb(55%,51%,53%);fill-opacity:1;stroke-width:1;stroke-linecap:butt;stroke-linejoin:miter;stroke:rgb(0%,0%,0%);stroke-opacity:1;stroke-miterlimit:10;" d="M 321 290 L 350.664062 290 L 362.664062 261.785156 L 374.664062 290 L 404.332031 290 L 380.332031 307.4375 L 388.417969 338.980469 L 362.664062 321.542969 L 336.914062 338.980469 L 349.214844 307.4375 L 321 290 "/>
<path style="fill-rule:nonzero;fill:rgb(55%,51%,53%);fill-opacity:1;stroke-width:1;stroke-linecap:butt;stroke-linejoin:miter;stroke:rgb(0%,0%,0%);stroke-opacity:1;stroke-miterlimit:10;" d="M 675 217 L 704.664062 217 L 716.664062 188.785156 L 728.664062 217 L 758.332031 217 L 734.332031 234.4375 L 742.417969 265.980469 L 716.664062 248.542969 L 690.914062 265.980469 L 703.214844 234.4375 L 675 217 "/>
<path style="fill-rule:nonzero;fill:rgb(55%,51%,53%);fill-opacity:1;stroke-width:1;stroke-linecap:butt;stroke-linejoin:miter;stroke:rgb(0%,0%,0%);stroke-opacity:1;stroke-miterlimit:10;" d="M 508 287 L 537.664062 287 L 549.664062 258.785156 L 561.664062 287 L 591.332031 287 L 567.332031 304.4375 L 575.417969 335.980469 L 549.664062 318.542969 L 523.914062 335.980469 L 536.214844 304.4375 L 508 287 "/>
<path style="fill-rule:nonzero;fill:rgb(55%,51%,53%);fill-opacity:1;stroke-width:1;stroke-linecap:butt;stroke-linejoin:miter;stroke:rgb(0%,0%,0%);stroke-opacity:1;stroke-miterlimit:10;" d="M 798 429 L 827.664062 429 L 839.664062 400.785156 L 851.664062 429 L 881.332031 429 L 857.332031 446.4375 L 865.417969 477.980469 L 839.664062 460.542969 L 813.914062 477.980469 L 826.214844 446.4375 L 798 429 "/>
<path style="fill-rule:nonzero;fill:rgb(55%,51%,53%);fill-opacity:1;stroke-width:1;stroke-linecap:butt;stroke-linejoin:miter;stroke:rgb(0%,0%,0%);stroke-opacity:1;stroke-miterlimit:10;" d="M 718 51 L 747.664062 51 L 759.664062 22.785156 L 771.664062 51 L 801.332031 51 L 777.332031 68.4375 L 785.417969 99.980469 L 759.664062 82.542969 L 733.914062 99.980469 L 746.214844 68.4375 L 718 51 "/>
<path style="fill-rule:nonzero;fill:rgb(55%,51%,53%);fill-opacity:1;stroke-width:1;stroke-linecap:butt;stroke-linejoin:miter;stroke:rgb(0%,0%,0%);stroke-opacity:1;stroke-miterlimit:10;" d="M 150 174 L 179.664062 174 L 191.664062 145.785156 L 203.664062 174 L 233.332031 174 L 209.332031 191.4375 L 217.417969 222.980469 L 191.664062 205.542969 L 165.914062 222.980469 L 178.214844 191.4375 L 150 174 "/>
</g>
</svg>
