<?xml version="1.0" encoding="UTF-8"?>
<svg xmlns="http://www.w3.org/2000/svg" xmlns:xlink="http://www.w3.org/1999/xlink" width="1129pt" height="517pt" viewBox="0 0 1129 517" version="1.1">
<g id="surface381">
<rect x="0" y="0" width="1129" height="517" style="fill:rgb(90%,90%,90%);fill-opacity:1;stroke:none;"/>
<path style="fill-rule:nonzero;fill:rgb(35%,70%,90%);fill-opacity:1;stroke-width:1;stroke-linecap:butt;stroke-linejoin:miter;stroke:rgb(0%,0%,0%);stroke-opacity:1;stroke-miterlimit:10;" d="M 448.214844 161 C 448.214844 172.714844 438.714844 182.214844 427 182.214844 C 415.285156 182.214844 405.785156 172.714844 405.785156 161 C 405.785156 149.285156 415.285156 139.785156 427 139.785156 C 438.714844 139.785156 448.214844 149.285156 448.214844 161 "/>
<path style="fill-rule:nonzero;fill:rgb(100%,51%,0%);fill-opacity:1;stroke-width:1;stroke-linecap:butt;stroke-linejoin:miter;stroke:rgb(0%,0%,0%);stroke-opacity:1;stroke-miterlimit:10;" d="M 470.214844 368 C 470.214844 379.714844 460.714844 389.214844 449 389.214844 C 437.285156 389.214844 427.785156 379.714844 427.785156 368 C 427.785156 356.285156 437.285156 346.785156 449 346.785156 C 460.714844 346.785156 470.214844 356.285156 470.214844 368 "/>
<path style="fill-rule:nonzero;fill:rgb(35%,70%,90%);fill-opacity:1;stroke-width:1;stroke-linecap:butt;stroke-linejoin:miter;stroke:rgb(0%,0%,0%);stroke-opacity:1;stroke-miterlimit:10;" d="M 305.214844 192 C 305.214844 203.714844 295.714844 213.214844 284 213.214844 C 272.285156 213.214844 262.785156 203.714844 262.785156 192 C 262.785156 180.285156 272.285156 170.785156 284 170.785156 C 295.714844 170.785156 305.214844 180.285156 305.214844 192 "/>
<path style="fill-rule:nonzero;fill:rgb(100%,51%,0%);fill-opacity:1;stroke-width:1;stroke-linecap:butt;stroke-linejoin:miter;stroke:rgb(0%,0%,0%);stroke-opacity:1;stroke-miterlimit:10;" d="M 365.214844 340 C 365.214844 351.714844 355.714844 361.214844 344 361.214844 C 332.285156 361.214844 322.785156 351.714844 322.785156 340 C 322.785156 328.285156 332.285156 318.785156 344 318.785156 C 355.714844 318.785156 365.214844 328.285156 365.214844 340 "/>
<path style="fill-rule:nonzero;fill:rgb(35%,70%,90%);fill-opacity:1;stroke-width:1;stroke-linecap:butt;stroke-linejoin:miter;stroke:rgb(0%,0%,0%);stroke-opacity:1;stroke-miterlimit:10;" d="M 400.214844 250 C 400.214844 261.714844 390.714844 271.214844 379 271.214844 C 367.285156 271.214844 357.785156 261.714844 357.785156 250 C 357.785156 238.285156 367.285156 228.785156 379 228.785156 C 390.714844 228.785156 400.214844 238.285156 400.214844 250 "/>
<path style="fill-rule:nonzero;fill:rgb(35%,70%,90%);fill-opacity:1;stroke-width:1;stroke-linecap:butt;stroke-linejoin:miter;stroke:rgb(0%,0%,0%);stroke-opacity:1;stroke-miterlimit:10;" d="M 222.214844 291 C 222.214844 302.714844 212.714844 312.214844 201 312.214844 C 189.285156 312.214844 179.785156 302.714844 179.785156 291 C 179.785156 279.285156 189.285156 269.785156 201 269.785156 C 212.714844 269.785156 222.214844 279.285156 222.214844 291 "/>
<path style="fill-rule:nonzero;fill:rgb(35%,70%,90%);fill-opacity:1;stroke-width:1;stroke-linecap:butt;stroke-linejoin:miter;stroke:rgb(0%,0%,0%);stroke-opacity:1;stroke-miterlimit:10;" d="M 170.214844 116 C 170.214844 127.714844 160.714844 137.214844 149 137.214844 C 137.285156 137.214844 127.785156 127.714844 127.785156 116 C 127.785156 104.285156 137.285156 94.785156 149 94.785156 C 160.714844 94.785156 170.214844 104.285156 170.214844 116 "/>
<path style="fill-rule:nonzero;fill:rgb(35%,70%,90%);fill-opacity:1;stroke-width:1;stroke-linecap:butt;stroke-linejoin:miter;stroke:rgb(0%,0%,0%);stroke-opacity:1;stroke-miterlimit:10;" d="M 404.214844 81 C 404.214844 92.714844 394.714844 102.214844 383 102.214844 C 371.285156 102.214844 361.785156 92.714844 361.785156 81 C 361.785156 69.285156 371.285156 59.785156 383 59.785156 C 394.714844 59.785156 404.214844 69.285156 404.214844 81 "/>
<path style="fill-rule:nonzero;fill:rgb(100%,51%,0%);fill-opacity:1;stroke-width:1;stroke-linecap:butt;stroke-linejoin:miter;stroke:rgb(0%,0%,0%);stroke-opacity:1;stroke-miterlimit:10;" d="M 856.785156 305.785156 L 856.785156 348.214844 L 899.214844 348.214844 L 899.214844 305.785156 L 856.785156 305.785156 "/>
<path style="fill-rule:nonzero;fill:rgb(35%,70%,90%);fill-opacity:1;stroke-width:1;stroke-linecap:butt;stroke-linejoin:miter;stroke:rgb(0%,0%,0%);stroke-opacity:1;stroke-miterlimit:10;" d="M 946.785156 244.785156 L 946.785156 287.214844 L 989.214844 287.214844 L 989.214844 244.785156 L 946.785156 244.785156 "/>
<path style="fill-rule:nonzero;fill:rgb(100%,51%,0%);fill-opacity:1;stroke-width:1;stroke-linecap:butt;stroke-linejoin:miter;stroke:rgb(0%,0%,0%);stroke-opacity:1;stroke-miterlimit:10;" d="M 651.785156 92.785156 L 651.785156 135.214844 L 694.214844 135.214844 L 694.214844 92.785156 L 651.785156 92.785156 "/>
<path style="fill-rule:nonzero;fill:rgb(35%,70%,90%);fill-opacity:1;stroke-width:1;stroke-linecap:butt;stroke-linejoin:miter;stroke:rgb(0%,0%,0%);stroke-opacity:1;stroke-miterlimit:10;" d="M 785.785156 439.785156 L 785.785156 482.214844 L 828.214844 482.214844 L 828.214844 439.785156 L 785.785156 439.785156 "/>
</g>
</svg>
