<?xml version="1.0" encoding="UTF-8"?>
<svg xmlns="http://www.w3.org/2000/svg" xmlns:xlink="http://www.w3.org/1999/xlink" width="1179pt" height="517pt" viewBox="0 0 1179 517" version="1.1">
<g id="surface391">
<rect x="0" y="0" width="1179" height="517" style="fill:rgb(90%,90%,90%);fill-opacity:1;stroke:none;"/>
<path style="fill-rule:nonzero;fill:rgb(35%,70%,90%);fill-opacity:1;stroke-width:1;stroke-linecap:butt;stroke-linejoin:miter;stroke:rgb(0%,0%,0%);stroke-opacity:1;stroke-miterlimit:10;" d="M 345 400 L 374.664062 400 L 386.664062 371.785156 L 398.664062 400 L 428.332031 400 L 404.332031 417.4375 L 412.417969 448.980469 L 386.664062 431.542969 L 360.914062 448.980469 L 373.214844 417.4375 L 345 400 "/>
<path style="fill-rule:nonzero;fill:rgb(35%,70%,90%);fill-opacity:1;stroke-width:1;stroke-linecap:butt;stroke-linejoin:miter;stroke:rgb(0%,0%,0%);stroke-opacity:1;stroke-miterlimit:10;" d="M 264 137 L 293.664062 137 L 305.664062 108.785156 L 317.664062 137 L 347.332031 137 L 323.332031 154.4375 L 331.417969 185.980469 L 305.664062 168.542969 L 279.914062 185.980469 L 292.214844 154.4375 L 264 137 "/>
<path style="fill-rule:nonzero;fill:rgb(53%,27%,7%);fill-opacity:1;stroke-width:1;stroke-linecap:butt;stroke-linejoin:miter;stroke:rgb(0%,0%,0%);stroke-opacity:1;stroke-miterlimit:10;" d="M 204.214844 309 C 204.214844 320.714844 194.714844 330.214844 183 330.214844 C 171.285156 330.214844 161.785156 320.714844 161.785156 309 C 161.785156 297.285156 171.285156 287.785156 183 287.785156 C 194.714844 287.785156 204.214844 297.285156 204.214844 309 "/>
<path style="fill-rule:nonzero;fill:rgb(35%,70%,90%);fill-opacity:1;stroke-width:1;stroke-linecap:butt;stroke-linejoin:miter;stroke:rgb(0%,0%,0%);stroke-opacity:1;stroke-miterlimit:10;" d="M 369 177 L 398.664062 177 L 410.664062 148.785156 L 422.664062 177 L 452.332031 177 L 428.332031 194.4375 L 436.417969 225.980469 L 410.664062 208.542969 L 384.914062 225.980469 L 397.214844 194.4375 L 369 177 "/>
<path style="fill-rule:nonzero;fill:rgb(35%,70%,90%);fill-opacity:1;stroke-width:1;stroke-linecap:butt;stroke-linejoin:miter;stroke:rgb(0%,0%,0%);stroke-opacity:1;stroke-miterlimit:10;" d="M 145 145 L 174.664062 145 L 186.664062 116.785156 L 198.664062 145 L 228.332031 145 L 204.332031 162.4375 L 212.417969 193.980469 L 186.664062 176.542969 L 160.914062 193.980469 L 173.214844 162.4375 L 145 145 "/>
<path style="fill-rule:nonzero;fill:rgb(53%,27%,7%);fill-opacity:1;stroke-width:1;stroke-linecap:butt;stroke-linejoin:miter;stroke:rgb(0%,0%,0%);stroke-opacity:1;stroke-miterlimit:10;" d="M 108.214844 264 C 108.214844 275.714844 98.714844 285.214844 87 285.214844 C 75.285156 285.214844 65.785156 275.714844 65.785156 264 C 65.785156 252.285156 75.285156 242.785156 87 242.785156 C 98.714844 242.785156 108.214844 252.285156 108.214844 264 "/>
<path style="fill-rule:nonzero;fill:rgb(53%,27%,7%);fill-opacity:1;stroke-width:1;stroke-linecap:butt;stroke-linejoin:miter;stroke:rgb(0%,0%,0%);stroke-opacity:1;stroke-miterlimit:10;" d="M 274.214844 416 C 274.214844 427.714844 264.714844 437.214844 253 437.214844 C 241.285156 437.214844 231.785156 427.714844 231.785156 416 C 231.785156 404.285156 241.285156 394.785156 253 394.785156 C 264.714844 394.785156 274.214844 404.285156 274.214844 416 "/>
<path style="fill-rule:nonzero;fill:rgb(53%,27%,7%);fill-opacity:1;stroke-width:1;stroke-linecap:butt;stroke-linejoin:miter;stroke:rgb(0%,0%,0%);stroke-opacity:1;stroke-miterlimit:10;" d="M 797.214844 153 C 797.214844 164.714844 787.714844 174.214844 776 174.214844 C 764.285156 174.214844 754.785156 164.714844 754.785156 153 C 754.785156 141.285156 764.285156 131.785156 776 131.785156 C 787.714844 131.785156 797.214844 141.285156 797.214844 153 "/>
<path style="fill-rule:nonzero;fill:rgb(53%,27%,7%);fill-opacity:1;stroke-width:1;stroke-linecap:butt;stroke-linejoin:miter;stroke:rgb(0%,0%,0%);stroke-opacity:1;stroke-miterlimit:10;" d="M 867.214844 290 C 867.214844 301.714844 857.714844 311.214844 846 311.214844 C 834.285156 311.214844 824.785156 301.714844 824.785156 290 C 824.785156 278.285156 834.285156 268.785156 846 268.785156 C 857.714844 268.785156 867.214844 278.285156 867.214844 290 "/>
<path style="fill-rule:nonzero;fill:rgb(53%,27%,7%);fill-opacity:1;stroke-width:1;stroke-linecap:butt;stroke-linejoin:miter;stroke:rgb(0%,0%,0%);stroke-opacity:1;stroke-miterlimit:10;" d="M 955.214844 104 C 955.214844 115.714844 945.714844 125.214844 934 125.214844 C 922.285156 125.214844 912.785156 115.714844 912.785156 104 C 912.785156 92.285156 922.285156 82.785156 934 82.785156 C 945.714844 82.785156 955.214844 92.285156 955.214844 104 "/>
<path style="fill-rule:nonzero;fill:rgb(53%,27%,7%);fill-opacity:1;stroke-width:1;stroke-linecap:butt;stroke-linejoin:miter;stroke:rgb(0%,0%,0%);stroke-opacity:1;stroke-miterlimit:10;" d="M 846.214844 430 C 846.214844 441.714844 836.714844 451.214844 825 451.214844 C 813.285156 451.214844 803.785156 441.714844 803.785156 430 C 803.785156 418.285156 813.285156 408.785156 825 408.785156 C 836.714844 408.785156 846.214844 418.285156 846.214844 430 "/>
<path style="fill-rule:nonzero;fill:rgb(35%,70%,90%);fill-opacity:1;stroke-width:1;stroke-linecap:butt;stroke-linejoin:miter;stroke:rgb(0%,0%,0%);stroke-opacity:1;stroke-miterlimit:10;" d="M 1037 304 L 1066.664062 304 L 1078.664062 275.785156 L 1090.664062 304 L 1120.332031 304 L 1096.332031 321.4375 L 1104.417969 352.980469 L 1078.664062 335.542969 L 1052.914062 352.980469 L 1065.214844 321.4375 L 1037 304 "/>
<path style="fill-rule:nonzero;fill:rgb(53%,27%,7%);fill-opacity:1;stroke-width:1;stroke-linecap:butt;stroke-linejoin:miter;stroke:rgb(0%,0%,0%);stroke-opacity:1;stroke-miterlimit:10;" d="M 728.214844 325 C 728.214844 336.714844 718.714844 346.214844 707 346.214844 C 695.285156 346.214844 685.785156 336.714844 685.785156 325 C 685.785156 313.285156 695.285156 303.785156 707 303.785156 C 718.714844 303.785156 728.214844 313.285156 728.214844 325 "/>
<path style="fill-rule:nonzero;fill:rgb(35%,70%,90%);fill-opacity:1;stroke-width:1;stroke-linecap:butt;stroke-linejoin:miter;stroke:rgb(0%,0%,0%);stroke-opacity:1;stroke-miterlimit:10;" d="M 923 406 L 952.664062 406 L 964.664062 377.785156 L 976.664062 406 L 1006.332031 406 L 982.332031 423.4375 L 990.417969 454.980469 L 964.664062 437.542969 L 938.914062 454.980469 L 951.214844 423.4375 L 923 406 "/>
<path style="fill-rule:nonzero;fill:rgb(53%,27%,7%);fill-opacity:1;stroke-width:1;stroke-linecap:butt;stroke-linejoin:miter;stroke:rgb(0%,0%,0%);stroke-opacity:1;stroke-miterlimit:10;" d="M 1058.214844 141 C 1058.214844 152.714844 1048.714844 162.214844 1037 162.214844 C 1025.285156 162.214844 1015.785156 152.714844 1015.785156 141 C 1015.785156 129.285156 1025.285156 119.785156 1037 119.785156 C 1048.714844 119.785156 1058.214844 129.285156 1058.214844 141 "/>
</g>
</svg>
