<?xml version="1.0" encoding="UTF-8"?>
<svg xmlns="http://www.w3.org/2000/svg" xmlns:xlink="http://www.w3.org/1999/xlink" width="1179pt" height="517pt" viewBox="0 0 1179 517" version="1.1">
<g id="surface361">
<rect x="0" y="0" width="1179" height="517" style="fill:rgb(90%,90%,90%);fill-opacity:1;stroke:none;"/>
<path style="fill-rule:nonzero;fill:rgb(100%,51%,0%);fill-opacity:1;stroke-width:1;stroke-linecap:butt;stroke-linejoin:miter;stroke:rgb(0%,0%,0%);stroke-opacity:1;stroke-miterlimit:10;" d="M 251.214844 324 C 251.214844 335.714844 241.714844 345.214844 230 345.214844 C 218.285156 345.214844 208.785156 335.714844 208.785156 324 C 208.785156 312.285156 218.285156 302.785156 230 302.785156 C 241.714844 302.785156 251.214844 312.285156 251.214844 324 "/>
<path style="fill-rule:nonzero;fill:rgb(100%,51%,0%);fill-opacity:1;stroke-width:1;stroke-linecap:butt;stroke-linejoin:miter;stroke:rgb(0%,0%,0%);stroke-opacity:1;stroke-miterlimit:10;" d="M 430.214844 182 C 430.214844 193.714844 420.714844 203.214844 409 203.214844 C 397.285156 203.214844 387.785156 193.714844 387.785156 182 C 387.785156 170.285156 397.285156 160.785156 409 160.785156 C 420.714844 160.785156 430.214844 170.285156 430.214844 182 "/>
<path style="fill-rule:nonzero;fill:rgb(100%,51%,0%);fill-opacity:1;stroke-width:1;stroke-linecap:butt;stroke-linejoin:miter;stroke:rgb(0%,0%,0%);stroke-opacity:1;stroke-miterlimit:10;" d="M 258.214844 97 C 258.214844 108.714844 248.714844 118.214844 237 118.214844 C 225.285156 118.214844 215.785156 108.714844 215.785156 97 C 215.785156 85.285156 225.285156 75.785156 237 75.785156 C 248.714844 75.785156 258.214844 85.285156 258.214844 97 "/>
<path style="fill-rule:nonzero;fill:rgb(100%,51%,0%);fill-opacity:1;stroke-width:1;stroke-linecap:butt;stroke-linejoin:miter;stroke:rgb(0%,0%,0%);stroke-opacity:1;stroke-miterlimit:10;" d="M 194.214844 168 C 194.214844 179.714844 184.714844 189.214844 173 189.214844 C 161.285156 189.214844 151.785156 179.714844 151.785156 168 C 151.785156 156.285156 161.285156 146.785156 173 146.785156 C 184.714844 146.785156 194.214844 156.285156 194.214844 168 "/>
<path style="fill-rule:nonzero;fill:rgb(35%,70%,90%);fill-opacity:1;stroke-width:1;stroke-linecap:butt;stroke-linejoin:miter;stroke:rgb(0%,0%,0%);stroke-opacity:1;stroke-miterlimit:10;" d="M 253 235 L 282.664062 235 L 294.664062 206.785156 L 306.664062 235 L 336.332031 235 L 312.332031 252.4375 L 320.417969 283.980469 L 294.664062 266.542969 L 268.914062 283.980469 L 281.214844 252.4375 L 253 235 "/>
<path style="fill-rule:nonzero;fill:rgb(35%,70%,90%);fill-opacity:1;stroke-width:1;stroke-linecap:butt;stroke-linejoin:miter;stroke:rgb(0%,0%,0%);stroke-opacity:1;stroke-miterlimit:10;" d="M 109 430 L 138.664062 430 L 150.664062 401.785156 L 162.664062 430 L 192.332031 430 L 168.332031 447.4375 L 176.417969 478.980469 L 150.664062 461.542969 L 124.914062 478.980469 L 137.214844 447.4375 L 109 430 "/>
<path style="fill-rule:nonzero;fill:rgb(35%,70%,90%);fill-opacity:1;stroke-width:1;stroke-linecap:butt;stroke-linejoin:miter;stroke:rgb(0%,0%,0%);stroke-opacity:1;stroke-miterlimit:10;" d="M 384 429 L 413.664062 429 L 425.664062 400.785156 L 437.664062 429 L 467.332031 429 L 443.332031 446.4375 L 451.417969 477.980469 L 425.664062 460.542969 L 399.914062 477.980469 L 412.214844 446.4375 L 384 429 "/>
<path style="fill-rule:nonzero;fill:rgb(35%,70%,90%);fill-opacity:1;stroke-width:1;stroke-linecap:butt;stroke-linejoin:miter;stroke:rgb(0%,0%,0%);stroke-opacity:1;stroke-miterlimit:10;" d="M 288 410 L 317.664062 410 L 329.664062 381.785156 L 341.664062 410 L 371.332031 410 L 347.332031 427.4375 L 355.417969 458.980469 L 329.664062 441.542969 L 303.914062 458.980469 L 316.214844 427.4375 L 288 410 "/>
<path style="fill-rule:nonzero;fill:rgb(35%,70%,90%);fill-opacity:1;stroke-width:1;stroke-linecap:butt;stroke-linejoin:miter;stroke:rgb(0%,0%,0%);stroke-opacity:1;stroke-miterlimit:10;" d="M 963 136 L 992.664062 136 L 1004.664062 107.785156 L 1016.664062 136 L 1046.332031 136 L 1022.332031 153.4375 L 1030.417969 184.980469 L 1004.664062 167.542969 L 978.914062 184.980469 L 991.214844 153.4375 L 963 136 "/>
<path style="fill-rule:nonzero;fill:rgb(100%,51%,0%);fill-opacity:1;stroke-width:1;stroke-linecap:butt;stroke-linejoin:miter;stroke:rgb(0%,0%,0%);stroke-opacity:1;stroke-miterlimit:10;" d="M 780.214844 148 C 780.214844 159.714844 770.714844 169.214844 759 169.214844 C 747.285156 169.214844 737.785156 159.714844 737.785156 148 C 737.785156 136.285156 747.285156 126.785156 759 126.785156 C 770.714844 126.785156 780.214844 136.285156 780.214844 148 "/>
<path style="fill-rule:nonzero;fill:rgb(100%,51%,0%);fill-opacity:1;stroke-width:1;stroke-linecap:butt;stroke-linejoin:miter;stroke:rgb(0%,0%,0%);stroke-opacity:1;stroke-miterlimit:10;" d="M 806.214844 386 C 806.214844 397.714844 796.714844 407.214844 785 407.214844 C 773.285156 407.214844 763.785156 397.714844 763.785156 386 C 763.785156 374.285156 773.285156 364.785156 785 364.785156 C 796.714844 364.785156 806.214844 374.285156 806.214844 386 "/>
<path style="fill-rule:nonzero;fill:rgb(100%,51%,0%);fill-opacity:1;stroke-width:1;stroke-linecap:butt;stroke-linejoin:miter;stroke:rgb(0%,0%,0%);stroke-opacity:1;stroke-miterlimit:10;" d="M 805.214844 287 C 805.214844 298.714844 795.714844 308.214844 784 308.214844 C 772.285156 308.214844 762.785156 298.714844 762.785156 287 C 762.785156 275.285156 772.285156 265.785156 784 265.785156 C 795.714844 265.785156 805.214844 275.285156 805.214844 287 "/>
<path style="fill-rule:nonzero;fill:rgb(100%,51%,0%);fill-opacity:1;stroke-width:1;stroke-linecap:butt;stroke-linejoin:miter;stroke:rgb(0%,0%,0%);stroke-opacity:1;stroke-miterlimit:10;" d="M 910.214844 328 C 910.214844 339.714844 900.714844 349.214844 889 349.214844 C 877.285156 349.214844 867.785156 339.714844 867.785156 328 C 867.785156 316.285156 877.285156 306.785156 889 306.785156 C 900.714844 306.785156 910.214844 316.285156 910.214844 328 "/>
<path style="fill-rule:nonzero;fill:rgb(35%,70%,90%);fill-opacity:1;stroke-width:1;stroke-linecap:butt;stroke-linejoin:miter;stroke:rgb(0%,0%,0%);stroke-opacity:1;stroke-miterlimit:10;" d="M 697 237 L 726.664062 237 L 738.664062 208.785156 L 750.664062 237 L 780.332031 237 L 756.332031 254.4375 L 764.417969 285.980469 L 738.664062 268.542969 L 712.914062 285.980469 L 725.214844 254.4375 L 697 237 "/>
</g>
</svg>
