<?xml version="1.0" encoding="UTF-8"?>
<svg xmlns="http://www.w3.org/2000/svg" xmlns:xlink="http://www.w3.org/1999/xlink" width="1129pt" height="517pt" viewBox="0 0 1129 517" version="1.1">
<g id="surface876">
<rect x="0" y="0" width="1129" height="517" style="fill:rgb(90%,90%,90%);fill-opacity:1;stroke:none;"/>
<path style="fill-rule:nonzero;fill:rgb(100%,51%,0%);fill-opacity:1;stroke-width:1;stroke-linecap:butt;stroke-linejoin:miter;stroke:rgb(0%,0%,0%);stroke-opacity:1;stroke-miterlimit:10;" d="M 361.214844 115 C 361.214844 126.714844 351.714844 136.214844 340 136.214844 C 328.285156 136.214844 318.785156 126.714844 318.785156 115 C 318.785156 103.285156 328.285156 93.785156 340 93.785156 C 351.714844 93.785156 361.214844 103.285156 361.214844 115 "/>
<path style="fill-rule:nonzero;fill:rgb(100%,51%,0%);fill-opacity:1;stroke-width:1;stroke-linecap:butt;stroke-linejoin:miter;stroke:rgb(0%,0%,0%);stroke-opacity:1;stroke-miterlimit:10;" d="M 528.214844 212 C 528.214844 223.714844 518.714844 233.214844 507 233.214844 C 495.285156 233.214844 485.785156 223.714844 485.785156 212 C 485.785156 200.285156 495.285156 190.785156 507 190.785156 C 518.714844 190.785156 528.214844 200.285156 528.214844 212 "/>
<path style="fill-rule:nonzero;fill:rgb(100%,51%,0%);fill-opacity:1;stroke-width:1;stroke-linecap:butt;stroke-linejoin:miter;stroke:rgb(0%,0%,0%);stroke-opacity:1;stroke-miterlimit:10;" d="M 84.214844 51 C 84.214844 62.714844 74.714844 72.214844 63 72.214844 C 51.285156 72.214844 41.785156 62.714844 41.785156 51 C 41.785156 39.285156 51.285156 29.785156 63 29.785156 C 74.714844 29.785156 84.214844 39.285156 84.214844 51 "/>
<path style="fill-rule:nonzero;fill:rgb(100%,51%,0%);fill-opacity:1;stroke-width:1;stroke-linecap:butt;stroke-linejoin:miter;stroke:rgb(0%,0%,0%);stroke-opacity:1;stroke-miterlimit:10;" d="M 794.214844 78 C 794.214844 89.714844 784.714844 99.214844 773 99.214844 C 761.285156 99.214844 751.785156 89.714844 751.785156 78 C 751.785156 66.285156 761.285156 56.785156 773 56.785156 C 784.714844 56.785156 794.214844 66.285156 794.214844 78 "/>
<path style="fill-rule:nonzero;fill:rgb(100%,51%,0%);fill-opacity:1;stroke-width:1;stroke-linecap:butt;stroke-linejoin:miter;stroke:rgb(0%,0%,0%);stroke-opacity:1;stroke-miterlimit:10;" d="M 614.214844 373 C 614.214844 384.714844 604.714844 394.214844 593 394.214844 C 581.285156 394.214844 571.785156 384.714844 571.785156 373 C 571.785156 361.285156 581.285156 351.785156 593 351.785156 C 604.714844 351.785156 614.214844 361.285156 614.214844 373 "/>
<path style="fill-rule:nonzero;fill:rgb(35%,70%,90%);fill-opacity:1;stroke-width:1;stroke-linecap:butt;stroke-linejoin:miter;stroke:rgb(0%,0%,0%);stroke-opacity:1;stroke-miterlimit:10;" d="M 746 295 L 775.664062 295 L 787.664062 266.785156 L 799.664062 295 L 829.332031 295 L 805.332031 312.4375 L 813.417969 343.980469 L 787.664062 326.542969 L 761.914062 343.980469 L 774.214844 312.4375 L 746 295 "/>
<path style="fill-rule:nonzero;fill:rgb(35%,70%,90%);fill-opacity:1;stroke-width:1;stroke-linecap:butt;stroke-linejoin:miter;stroke:rgb(0%,0%,0%);stroke-opacity:1;stroke-miterlimit:10;" d="M 904 193 L 933.664062 193 L 945.664062 164.785156 L 957.664062 193 L 987.332031 193 L 963.332031 210.4375 L 971.417969 241.980469 L 945.664062 224.542969 L 919.914062 241.980469 L 932.214844 210.4375 L 904 193 "/>
<path style="fill-rule:nonzero;fill:rgb(35%,70%,90%);fill-opacity:1;stroke-width:1;stroke-linecap:butt;stroke-linejoin:miter;stroke:rgb(0%,0%,0%);stroke-opacity:1;stroke-miterlimit:10;" d="M 936 325 L 965.664062 325 L 977.664062 296.785156 L 989.664062 325 L 1019.332031 325 L 995.332031 342.4375 L 1003.417969 373.980469 L 977.664062 356.542969 L 951.914062 373.980469 L 964.214844 342.4375 L 936 325 "/>
<path style="fill-rule:nonzero;fill:rgb(35%,70%,90%);fill-opacity:1;stroke-width:1;stroke-linecap:butt;stroke-linejoin:miter;stroke:rgb(0%,0%,0%);stroke-opacity:1;stroke-miterlimit:10;" d="M 431 101 L 460.664062 101 L 472.664062 72.785156 L 484.664062 101 L 514.332031 101 L 490.332031 118.4375 L 498.417969 149.980469 L 472.664062 132.542969 L 446.914062 149.980469 L 459.214844 118.4375 L 431 101 "/>
<path style="fill-rule:nonzero;fill:rgb(35%,70%,90%);fill-opacity:1;stroke-width:1;stroke-linecap:butt;stroke-linejoin:miter;stroke:rgb(0%,0%,0%);stroke-opacity:1;stroke-miterlimit:10;" d="M 640 82 L 669.664062 82 L 681.664062 53.785156 L 693.664062 82 L 723.332031 82 L 699.332031 99.4375 L 707.417969 130.980469 L 681.664062 113.542969 L 655.914062 130.980469 L 668.214844 99.4375 L 640 82 "/>
<path style="fill-rule:nonzero;fill:rgb(35%,70%,90%);fill-opacity:1;stroke-width:1;stroke-linecap:butt;stroke-linejoin:miter;stroke:rgb(0%,0%,0%);stroke-opacity:1;stroke-miterlimit:10;" d="M 596 259 L 625.664062 259 L 637.664062 230.785156 L 649.664062 259 L 679.332031 259 L 655.332031 276.4375 L 663.417969 307.980469 L 637.664062 290.542969 L 611.914062 307.980469 L 624.214844 276.4375 L 596 259 "/>
<path style="fill-rule:nonzero;fill:rgb(35%,70%,90%);fill-opacity:1;stroke-width:1;stroke-linecap:butt;stroke-linejoin:miter;stroke:rgb(0%,0%,0%);stroke-opacity:1;stroke-miterlimit:10;" d="M 183 426 L 212.664062 426 L 224.664062 397.785156 L 236.664062 426 L 266.332031 426 L 242.332031 443.4375 L 250.417969 474.980469 L 224.664062 457.542969 L 198.914062 474.980469 L 211.214844 443.4375 L 183 426 "/>
<path style="fill-rule:nonzero;fill:rgb(35%,70%,90%);fill-opacity:1;stroke-width:1;stroke-linecap:butt;stroke-linejoin:miter;stroke:rgb(0%,0%,0%);stroke-opacity:1;stroke-miterlimit:10;" d="M 128 237 L 157.664062 237 L 169.664062 208.785156 L 181.664062 237 L 211.332031 237 L 187.332031 254.4375 L 195.417969 285.980469 L 169.664062 268.542969 L 143.914062 285.980469 L 156.214844 254.4375 L 128 237 "/>
</g>
</svg>
