<?xml version="1.0" encoding="UTF-8"?>
<svg xmlns="http://www.w3.org/2000/svg" xmlns:xlink="http://www.w3.org/1999/xlink" width="1179pt" height="517pt" viewBox="0 0 1179 517" version="1.1">
<g id="surface531">
<rect x="0" y="0" width="1179" height="517" style="fill:rgb(90%,90%,90%);fill-opacity:1;stroke:none;"/>
<path style="fill-rule:nonzero;fill:rgb(55%,51%,53%);fill-opacity:1;stroke-width:1;stroke-linecap:butt;stroke-linejoin:miter;stroke:rgb(0%,0%,0%);stroke-opacity:1;stroke-miterlimit:10;" d="M 445.214844 150 C 445.214844 161.714844 435.714844 171.214844 424 171.214844 C 412.285156 171.214844 402.785156 161.714844 402.785156 150 C 402.785156 138.285156 412.285156 128.785156 424 128.785156 C 435.714844 128.785156 445.214844 138.285156 445.214844 150 "/>
<path style="fill-rule:nonzero;fill:rgb(53%,27%,7%);fill-opacity:1;stroke-width:1;stroke-linecap:butt;stroke-linejoin:miter;stroke:rgb(0%,0%,0%);stroke-opacity:1;stroke-miterlimit:10;" d="M 366.214844 307 C 366.214844 318.714844 356.714844 328.214844 345 328.214844 C 333.285156 328.214844 323.785156 318.714844 323.785156 307 C 323.785156 295.285156 333.285156 285.785156 345 285.785156 C 356.714844 285.785156 366.214844 295.285156 366.214844 307 "/>
<path style="fill-rule:nonzero;fill:rgb(53%,27%,7%);fill-opacity:1;stroke-width:1;stroke-linecap:butt;stroke-linejoin:miter;stroke:rgb(0%,0%,0%);stroke-opacity:1;stroke-miterlimit:10;" d="M 401.214844 421 C 401.214844 432.714844 391.714844 442.214844 380 442.214844 C 368.285156 442.214844 358.785156 432.714844 358.785156 421 C 358.785156 409.285156 368.285156 399.785156 380 399.785156 C 391.714844 399.785156 401.214844 409.285156 401.214844 421 "/>
<path style="fill-rule:nonzero;fill:rgb(55%,51%,53%);fill-opacity:1;stroke-width:1;stroke-linecap:butt;stroke-linejoin:miter;stroke:rgb(0%,0%,0%);stroke-opacity:1;stroke-miterlimit:10;" d="M 295.214844 153 C 295.214844 164.714844 285.714844 174.214844 274 174.214844 C 262.285156 174.214844 252.785156 164.714844 252.785156 153 C 252.785156 141.285156 262.285156 131.785156 274 131.785156 C 285.714844 131.785156 295.214844 141.285156 295.214844 153 "/>
<path style="fill-rule:nonzero;fill:rgb(55%,51%,53%);fill-opacity:1;stroke-width:1;stroke-linecap:butt;stroke-linejoin:miter;stroke:rgb(0%,0%,0%);stroke-opacity:1;stroke-miterlimit:10;" d="M 187.214844 390 C 187.214844 401.714844 177.714844 411.214844 166 411.214844 C 154.285156 411.214844 144.785156 401.714844 144.785156 390 C 144.785156 378.285156 154.285156 368.785156 166 368.785156 C 177.714844 368.785156 187.214844 378.285156 187.214844 390 "/>
<path style="fill-rule:nonzero;fill:rgb(55%,51%,53%);fill-opacity:1;stroke-width:1;stroke-linecap:butt;stroke-linejoin:miter;stroke:rgb(0%,0%,0%);stroke-opacity:1;stroke-miterlimit:10;" d="M 264.214844 252 C 264.214844 263.714844 254.714844 273.214844 243 273.214844 C 231.285156 273.214844 221.785156 263.714844 221.785156 252 C 221.785156 240.285156 231.285156 230.785156 243 230.785156 C 254.714844 230.785156 264.214844 240.285156 264.214844 252 "/>
<path style="fill-rule:nonzero;fill:rgb(55%,51%,53%);fill-opacity:1;stroke-width:1;stroke-linecap:butt;stroke-linejoin:miter;stroke:rgb(0%,0%,0%);stroke-opacity:1;stroke-miterlimit:10;" d="M 178.214844 99 C 178.214844 110.714844 168.714844 120.214844 157 120.214844 C 145.285156 120.214844 135.785156 110.714844 135.785156 99 C 135.785156 87.285156 145.285156 77.785156 157 77.785156 C 168.714844 77.785156 178.214844 87.285156 178.214844 99 "/>
<path style="fill-rule:nonzero;fill:rgb(53%,27%,7%);fill-opacity:1;stroke-width:1;stroke-linecap:butt;stroke-linejoin:miter;stroke:rgb(0%,0%,0%);stroke-opacity:1;stroke-miterlimit:10;" d="M 774.785156 238.785156 L 774.785156 281.214844 L 817.214844 281.214844 L 817.214844 238.785156 L 774.785156 238.785156 "/>
<path style="fill-rule:nonzero;fill:rgb(55%,51%,53%);fill-opacity:1;stroke-width:1;stroke-linecap:butt;stroke-linejoin:miter;stroke:rgb(0%,0%,0%);stroke-opacity:1;stroke-miterlimit:10;" d="M 914.785156 380.785156 L 914.785156 423.214844 L 957.214844 423.214844 L 957.214844 380.785156 L 914.785156 380.785156 "/>
<path style="fill-rule:nonzero;fill:rgb(55%,51%,53%);fill-opacity:1;stroke-width:1;stroke-linecap:butt;stroke-linejoin:miter;stroke:rgb(0%,0%,0%);stroke-opacity:1;stroke-miterlimit:10;" d="M 915.785156 170.785156 L 915.785156 213.214844 L 958.214844 213.214844 L 958.214844 170.785156 L 915.785156 170.785156 "/>
<path style="fill-rule:nonzero;fill:rgb(53%,27%,7%);fill-opacity:1;stroke-width:1;stroke-linecap:butt;stroke-linejoin:miter;stroke:rgb(0%,0%,0%);stroke-opacity:1;stroke-miterlimit:10;" d="M 788.785156 69.785156 L 788.785156 112.214844 L 831.214844 112.214844 L 831.214844 69.785156 L 788.785156 69.785156 "/>
<path style="fill-rule:nonzero;fill:rgb(53%,27%,7%);fill-opacity:1;stroke-width:1;stroke-linecap:butt;stroke-linejoin:miter;stroke:rgb(0%,0%,0%);stroke-opacity:1;stroke-miterlimit:10;" d="M 900.785156 76.785156 L 900.785156 119.214844 L 943.214844 119.214844 L 943.214844 76.785156 L 900.785156 76.785156 "/>
</g>
</svg>
