<?xml version="1.0" encoding="UTF-8"?>
<svg xmlns="http://www.w3.org/2000/svg" xmlns:xlink="http://www.w3.org/1999/xlink" width="1179pt" height="517pt" viewBox="0 0 1179 517" version="1.1">
<g id="surface881">
<rect x="0" y="0" width="1179" height="517" style="fill:rgb(90%,90%,90%);fill-opacity:1;stroke:none;"/>
<path style="fill-rule:nonzero;fill:rgb(35%,70%,90%);fill-opacity:1;stroke-width:1;stroke-linecap:butt;stroke-linejoin:miter;stroke:rgb(0%,0%,0%);stroke-opacity:1;stroke-miterlimit:10;" d="M 321 373 L 350.664062 373 L 362.664062 344.785156 L 374.664062 373 L 404.332031 373 L 380.332031 390.4375 L 388.417969 421.980469 L 362.664062 404.542969 L 336.914062 421.980469 L 349.214844 390.4375 L 321 373 "/>
<path style="fill-rule:nonzero;fill:rgb(35%,70%,90%);fill-opacity:1;stroke-width:1;stroke-linecap:butt;stroke-linejoin:miter;stroke:rgb(0%,0%,0%);stroke-opacity:1;stroke-miterlimit:10;" d="M 287.214844 146 C 287.214844 157.714844 277.714844 167.214844 266 167.214844 C 254.285156 167.214844 244.785156 157.714844 244.785156 146 C 244.785156 134.285156 254.285156 124.785156 266 124.785156 C 277.714844 124.785156 287.214844 134.285156 287.214844 146 "/>
<path style="fill-rule:nonzero;fill:rgb(35%,70%,90%);fill-opacity:1;stroke-width:1;stroke-linecap:butt;stroke-linejoin:miter;stroke:rgb(0%,0%,0%);stroke-opacity:1;stroke-miterlimit:10;" d="M 402 327 L 431.664062 327 L 443.664062 298.785156 L 455.664062 327 L 485.332031 327 L 461.332031 344.4375 L 469.417969 375.980469 L 443.664062 358.542969 L 417.914062 375.980469 L 430.214844 344.4375 L 402 327 "/>
<path style="fill-rule:nonzero;fill:rgb(35%,70%,90%);fill-opacity:1;stroke-width:1;stroke-linecap:butt;stroke-linejoin:miter;stroke:rgb(0%,0%,0%);stroke-opacity:1;stroke-miterlimit:10;" d="M 87 366 L 116.664062 366 L 128.664062 337.785156 L 140.664062 366 L 170.332031 366 L 146.332031 383.4375 L 154.417969 414.980469 L 128.664062 397.542969 L 102.914062 414.980469 L 115.214844 383.4375 L 87 366 "/>
<path style="fill-rule:nonzero;fill:rgb(35%,70%,90%);fill-opacity:1;stroke-width:1;stroke-linecap:butt;stroke-linejoin:miter;stroke:rgb(0%,0%,0%);stroke-opacity:1;stroke-miterlimit:10;" d="M 132 99 L 161.664062 99 L 173.664062 70.785156 L 185.664062 99 L 215.332031 99 L 191.332031 116.4375 L 199.417969 147.980469 L 173.664062 130.542969 L 147.914062 147.980469 L 160.214844 116.4375 L 132 99 "/>
<path style="fill-rule:nonzero;fill:rgb(35%,70%,90%);fill-opacity:1;stroke-width:1;stroke-linecap:butt;stroke-linejoin:miter;stroke:rgb(0%,0%,0%);stroke-opacity:1;stroke-miterlimit:10;" d="M 388.214844 212 C 388.214844 223.714844 378.714844 233.214844 367 233.214844 C 355.285156 233.214844 345.785156 223.714844 345.785156 212 C 345.785156 200.285156 355.285156 190.785156 367 190.785156 C 378.714844 190.785156 388.214844 200.285156 388.214844 212 "/>
<path style="fill-rule:nonzero;fill:rgb(35%,70%,90%);fill-opacity:1;stroke-width:1;stroke-linecap:butt;stroke-linejoin:miter;stroke:rgb(0%,0%,0%);stroke-opacity:1;stroke-miterlimit:10;" d="M 1005 88 L 1034.664062 88 L 1046.664062 59.785156 L 1058.664062 88 L 1088.332031 88 L 1064.332031 105.4375 L 1072.417969 136.980469 L 1046.664062 119.542969 L 1020.914062 136.980469 L 1033.214844 105.4375 L 1005 88 "/>
<path style="fill-rule:nonzero;fill:rgb(35%,70%,90%);fill-opacity:1;stroke-width:1;stroke-linecap:butt;stroke-linejoin:miter;stroke:rgb(0%,0%,0%);stroke-opacity:1;stroke-miterlimit:10;" d="M 804.214844 252 C 804.214844 263.714844 794.714844 273.214844 783 273.214844 C 771.285156 273.214844 761.785156 263.714844 761.785156 252 C 761.785156 240.285156 771.285156 230.785156 783 230.785156 C 794.714844 230.785156 804.214844 240.285156 804.214844 252 "/>
<path style="fill-rule:nonzero;fill:rgb(35%,70%,90%);fill-opacity:1;stroke-width:1;stroke-linecap:butt;stroke-linejoin:miter;stroke:rgb(0%,0%,0%);stroke-opacity:1;stroke-miterlimit:10;" d="M 842 136 L 871.664062 136 L 883.664062 107.785156 L 895.664062 136 L 925.332031 136 L 901.332031 153.4375 L 909.417969 184.980469 L 883.664062 167.542969 L 857.914062 184.980469 L 870.214844 153.4375 L 842 136 "/>
<path style="fill-rule:nonzero;fill:rgb(35%,70%,90%);fill-opacity:1;stroke-width:1;stroke-linecap:butt;stroke-linejoin:miter;stroke:rgb(0%,0%,0%);stroke-opacity:1;stroke-miterlimit:10;" d="M 981 319 L 1010.664062 319 L 1022.664062 290.785156 L 1034.664062 319 L 1064.332031 319 L 1040.332031 336.4375 L 1048.417969 367.980469 L 1022.664062 350.542969 L 996.914062 367.980469 L 1009.214844 336.4375 L 981 319 "/>
<path style="fill-rule:nonzero;fill:rgb(35%,70%,90%);fill-opacity:1;stroke-width:1;stroke-linecap:butt;stroke-linejoin:miter;stroke:rgb(0%,0%,0%);stroke-opacity:1;stroke-miterlimit:10;" d="M 1042 429 L 1071.664062 429 L 1083.664062 400.785156 L 1095.664062 429 L 1125.332031 429 L 1101.332031 446.4375 L 1109.417969 477.980469 L 1083.664062 460.542969 L 1057.914062 477.980469 L 1070.214844 446.4375 L 1042 429 "/>
</g>
</svg>
