<?xml version="1.0" encoding="UTF-8"?>
<svg xmlns="http://www.w3.org/2000/svg" xmlns:xlink="http://www.w3.org/1999/xlink" width="1179pt" height="517pt" viewBox="0 0 1179 517" version="1.1">
<g id="surface591">
<rect x="0" y="0" width="1179" height="517" style="fill:rgb(90%,90%,90%);fill-opacity:1;stroke:none;"/>
<path style="fill-rule:nonzero;fill:rgb(35%,70%,90%);fill-opacity:1;stroke-width:1;stroke-linecap:butt;stroke-linejoin:miter;stroke:rgb(0%,0%,0%);stroke-opacity:1;stroke-miterlimit:10;" d="M 291.214844 348 C 291.214844 359.714844 281.714844 369.214844 270 369.214844 C 258.285156 369.214844 248.785156 359.714844 248.785156 348 C 248.785156 336.285156 258.285156 326.785156 270 326.785156 C 281.714844 326.785156 291.214844 336.285156 291.214844 348 "/>
<path style="fill-rule:nonzero;fill:rgb(35%,70%,90%);fill-opacity:1;stroke-width:1;stroke-linecap:butt;stroke-linejoin:miter;stroke:rgb(0%,0%,0%);stroke-opacity:1;stroke-miterlimit:10;" d="M 126.785156 187.785156 L 126.785156 230.214844 L 169.214844 230.214844 L 169.214844 187.785156 L 126.785156 187.785156 "/>
<path style="fill-rule:nonzero;fill:rgb(35%,70%,90%);fill-opacity:1;stroke-width:1;stroke-linecap:butt;stroke-linejoin:miter;stroke:rgb(0%,0%,0%);stroke-opacity:1;stroke-miterlimit:10;" d="M 431.214844 367 C 431.214844 378.714844 421.714844 388.214844 410 388.214844 C 398.285156 388.214844 388.785156 378.714844 388.785156 367 C 388.785156 355.285156 398.285156 345.785156 410 345.785156 C 421.714844 345.785156 431.214844 355.285156 431.214844 367 "/>
<path style="fill-rule:nonzero;fill:rgb(35%,70%,90%);fill-opacity:1;stroke-width:1;stroke-linecap:butt;stroke-linejoin:miter;stroke:rgb(0%,0%,0%);stroke-opacity:1;stroke-miterlimit:10;" d="M 117.214844 103 C 117.214844 114.714844 107.714844 124.214844 96 124.214844 C 84.285156 124.214844 74.785156 114.714844 74.785156 103 C 74.785156 91.285156 84.285156 81.785156 96 81.785156 C 107.714844 81.785156 117.214844 91.285156 117.214844 103 "/>
<path style="fill-rule:nonzero;fill:rgb(35%,70%,90%);fill-opacity:1;stroke-width:1;stroke-linecap:butt;stroke-linejoin:miter;stroke:rgb(0%,0%,0%);stroke-opacity:1;stroke-miterlimit:10;" d="M 330.214844 229 C 330.214844 240.714844 320.714844 250.214844 309 250.214844 C 297.285156 250.214844 287.785156 240.714844 287.785156 229 C 287.785156 217.285156 297.285156 207.785156 309 207.785156 C 320.714844 207.785156 330.214844 217.285156 330.214844 229 "/>
<path style="fill-rule:nonzero;fill:rgb(35%,70%,90%);fill-opacity:1;stroke-width:1;stroke-linecap:butt;stroke-linejoin:miter;stroke:rgb(0%,0%,0%);stroke-opacity:1;stroke-miterlimit:10;" d="M 234.214844 119 C 234.214844 130.714844 224.714844 140.214844 213 140.214844 C 201.285156 140.214844 191.785156 130.714844 191.785156 119 C 191.785156 107.285156 201.285156 97.785156 213 97.785156 C 224.714844 97.785156 234.214844 107.285156 234.214844 119 "/>
<path style="fill-rule:nonzero;fill:rgb(35%,70%,90%);fill-opacity:1;stroke-width:1;stroke-linecap:butt;stroke-linejoin:miter;stroke:rgb(0%,0%,0%);stroke-opacity:1;stroke-miterlimit:10;" d="M 150.214844 309 C 150.214844 320.714844 140.714844 330.214844 129 330.214844 C 117.285156 330.214844 107.785156 320.714844 107.785156 309 C 107.785156 297.285156 117.285156 287.785156 129 287.785156 C 140.714844 287.785156 150.214844 297.285156 150.214844 309 "/>
<path style="fill-rule:nonzero;fill:rgb(53%,27%,7%);fill-opacity:1;stroke-width:1;stroke-linecap:butt;stroke-linejoin:miter;stroke:rgb(0%,0%,0%);stroke-opacity:1;stroke-miterlimit:10;" d="M 857.785156 237.785156 L 857.785156 280.214844 L 900.214844 280.214844 L 900.214844 237.785156 L 857.785156 237.785156 "/>
<path style="fill-rule:nonzero;fill:rgb(53%,27%,7%);fill-opacity:1;stroke-width:1;stroke-linecap:butt;stroke-linejoin:miter;stroke:rgb(0%,0%,0%);stroke-opacity:1;stroke-miterlimit:10;" d="M 962.214844 367 C 962.214844 378.714844 952.714844 388.214844 941 388.214844 C 929.285156 388.214844 919.785156 378.714844 919.785156 367 C 919.785156 355.285156 929.285156 345.785156 941 345.785156 C 952.714844 345.785156 962.214844 355.285156 962.214844 367 "/>
<path style="fill-rule:nonzero;fill:rgb(53%,27%,7%);fill-opacity:1;stroke-width:1;stroke-linecap:butt;stroke-linejoin:miter;stroke:rgb(0%,0%,0%);stroke-opacity:1;stroke-miterlimit:10;" d="M 751.785156 98.785156 L 751.785156 141.214844 L 794.214844 141.214844 L 794.214844 98.785156 L 751.785156 98.785156 "/>
<path style="fill-rule:nonzero;fill:rgb(53%,27%,7%);fill-opacity:1;stroke-width:1;stroke-linecap:butt;stroke-linejoin:miter;stroke:rgb(0%,0%,0%);stroke-opacity:1;stroke-miterlimit:10;" d="M 1015.785156 333.785156 L 1015.785156 376.214844 L 1058.214844 376.214844 L 1058.214844 333.785156 L 1015.785156 333.785156 "/>
<path style="fill-rule:nonzero;fill:rgb(53%,27%,7%);fill-opacity:1;stroke-width:1;stroke-linecap:butt;stroke-linejoin:miter;stroke:rgb(0%,0%,0%);stroke-opacity:1;stroke-miterlimit:10;" d="M 886.785156 85.785156 L 886.785156 128.214844 L 929.214844 128.214844 L 929.214844 85.785156 L 886.785156 85.785156 "/>
<path style="fill-rule:nonzero;fill:rgb(53%,27%,7%);fill-opacity:1;stroke-width:1;stroke-linecap:butt;stroke-linejoin:miter;stroke:rgb(0%,0%,0%);stroke-opacity:1;stroke-miterlimit:10;" d="M 1006.785156 131.785156 L 1006.785156 174.214844 L 1049.214844 174.214844 L 1049.214844 131.785156 L 1006.785156 131.785156 "/>
<path style="fill-rule:nonzero;fill:rgb(53%,27%,7%);fill-opacity:1;stroke-width:1;stroke-linecap:butt;stroke-linejoin:miter;stroke:rgb(0%,0%,0%);stroke-opacity:1;stroke-miterlimit:10;" d="M 799.785156 332.785156 L 799.785156 375.214844 L 842.214844 375.214844 L 842.214844 332.785156 L 799.785156 332.785156 "/>
</g>
</svg>
