<?xml version="1.0" encoding="UTF-8"?>
<svg xmlns="http://www.w3.org/2000/svg" xmlns:xlink="http://www.w3.org/1999/xlink" width="1179pt" height="517pt" viewBox="0 0 1179 517" version="1.1">
<g id="surface851">
<rect x="0" y="0" width="1179" height="517" style="fill:rgb(90%,90%,90%);fill-opacity:1;stroke:none;"/>
<path style="fill-rule:nonzero;fill:rgb(53%,27%,7%);fill-opacity:1;stroke-width:1;stroke-linecap:butt;stroke-linejoin:miter;stroke:rgb(0%,0%,0%);stroke-opacity:1;stroke-miterlimit:10;" d="M 238 96.601562 C 238 82.199219 214 82.199219 214 96.601562 C 214 111 238 113.398438 238 125.398438 C 238 113.398438 262 111 262 96.601562 C 262 82.199219 238 82.199219 238 96.601562 "/>
<path style="fill-rule:nonzero;fill:rgb(53%,27%,7%);fill-opacity:1;stroke-width:1;stroke-linecap:butt;stroke-linejoin:miter;stroke:rgb(0%,0%,0%);stroke-opacity:1;stroke-miterlimit:10;" d="M 111 74.601562 C 111 60.199219 87 60.199219 87 74.601562 C 87 89 111 91.398438 111 103.398438 C 111 91.398438 135 89 135 74.601562 C 135 60.199219 111 60.199219 111 74.601562 "/>
<path style="fill-rule:nonzero;fill:rgb(53%,27%,7%);fill-opacity:1;stroke-width:1;stroke-linecap:butt;stroke-linejoin:miter;stroke:rgb(0%,0%,0%);stroke-opacity:1;stroke-miterlimit:10;" d="M 424 233.601562 C 424 219.199219 400 219.199219 400 233.601562 C 400 248 424 250.398438 424 262.398438 C 424 250.398438 448 248 448 233.601562 C 448 219.199219 424 219.199219 424 233.601562 "/>
<path style="fill-rule:nonzero;fill:rgb(53%,27%,7%);fill-opacity:1;stroke-width:1;stroke-linecap:butt;stroke-linejoin:miter;stroke:rgb(0%,0%,0%);stroke-opacity:1;stroke-miterlimit:10;" d="M 277.214844 358 C 277.214844 369.714844 267.714844 379.214844 256 379.214844 C 244.285156 379.214844 234.785156 369.714844 234.785156 358 C 234.785156 346.285156 244.285156 336.785156 256 336.785156 C 267.714844 336.785156 277.214844 346.285156 277.214844 358 "/>
<path style="fill-rule:nonzero;fill:rgb(53%,27%,7%);fill-opacity:1;stroke-width:1;stroke-linecap:butt;stroke-linejoin:miter;stroke:rgb(0%,0%,0%);stroke-opacity:1;stroke-miterlimit:10;" d="M 342 129.601562 C 342 115.199219 318 115.199219 318 129.601562 C 318 144 342 146.398438 342 158.398438 C 342 146.398438 366 144 366 129.601562 C 366 115.199219 342 115.199219 342 129.601562 "/>
<path style="fill-rule:nonzero;fill:rgb(53%,27%,7%);fill-opacity:1;stroke-width:1;stroke-linecap:butt;stroke-linejoin:miter;stroke:rgb(0%,0%,0%);stroke-opacity:1;stroke-miterlimit:10;" d="M 297 258.601562 C 297 244.199219 273 244.199219 273 258.601562 C 273 273 297 275.398438 297 287.398438 C 297 275.398438 321 273 321 258.601562 C 321 244.199219 297 244.199219 297 258.601562 "/>
<path style="fill-rule:nonzero;fill:rgb(53%,27%,7%);fill-opacity:1;stroke-width:1;stroke-linecap:butt;stroke-linejoin:miter;stroke:rgb(0%,0%,0%);stroke-opacity:1;stroke-miterlimit:10;" d="M 101 330.601562 C 101 316.199219 77 316.199219 77 330.601562 C 77 345 101 347.398438 101 359.398438 C 101 347.398438 125 345 125 330.601562 C 125 316.199219 101 316.199219 101 330.601562 "/>
<path style="fill-rule:nonzero;fill:rgb(53%,27%,7%);fill-opacity:1;stroke-width:1;stroke-linecap:butt;stroke-linejoin:miter;stroke:rgb(0%,0%,0%);stroke-opacity:1;stroke-miterlimit:10;" d="M 124 220.601562 C 124 206.199219 100 206.199219 100 220.601562 C 100 235 124 237.398438 124 249.398438 C 124 237.398438 148 235 148 220.601562 C 148 206.199219 124 206.199219 124 220.601562 "/>
<path style="fill-rule:nonzero;fill:rgb(100%,51%,0%);fill-opacity:1;stroke-width:1;stroke-linecap:butt;stroke-linejoin:miter;stroke:rgb(0%,0%,0%);stroke-opacity:1;stroke-miterlimit:10;" d="M 1028.214844 122 C 1028.214844 133.714844 1018.714844 143.214844 1007 143.214844 C 995.285156 143.214844 985.785156 133.714844 985.785156 122 C 985.785156 110.285156 995.285156 100.785156 1007 100.785156 C 1018.714844 100.785156 1028.214844 110.285156 1028.214844 122 "/>
<path style="fill-rule:nonzero;fill:rgb(100%,51%,0%);fill-opacity:1;stroke-width:1;stroke-linecap:butt;stroke-linejoin:miter;stroke:rgb(0%,0%,0%);stroke-opacity:1;stroke-miterlimit:10;" d="M 1048.214844 276 C 1048.214844 287.714844 1038.714844 297.214844 1027 297.214844 C 1015.285156 297.214844 1005.785156 287.714844 1005.785156 276 C 1005.785156 264.285156 1015.285156 254.785156 1027 254.785156 C 1038.714844 254.785156 1048.214844 264.285156 1048.214844 276 "/>
<path style="fill-rule:nonzero;fill:rgb(100%,51%,0%);fill-opacity:1;stroke-width:1;stroke-linecap:butt;stroke-linejoin:miter;stroke:rgb(0%,0%,0%);stroke-opacity:1;stroke-miterlimit:10;" d="M 913.214844 196 C 913.214844 207.714844 903.714844 217.214844 892 217.214844 C 880.285156 217.214844 870.785156 207.714844 870.785156 196 C 870.785156 184.285156 880.285156 174.785156 892 174.785156 C 903.714844 174.785156 913.214844 184.285156 913.214844 196 "/>
<path style="fill-rule:nonzero;fill:rgb(100%,51%,0%);fill-opacity:1;stroke-width:1;stroke-linecap:butt;stroke-linejoin:miter;stroke:rgb(0%,0%,0%);stroke-opacity:1;stroke-miterlimit:10;" d="M 710 145.601562 C 710 131.199219 686 131.199219 686 145.601562 C 686 160 710 162.398438 710 174.398438 C 710 162.398438 734 160 734 145.601562 C 734 131.199219 710 131.199219 710 145.601562 "/>
<path style="fill-rule:nonzero;fill:rgb(100%,51%,0%);fill-opacity:1;stroke-width:1;stroke-linecap:butt;stroke-linejoin:miter;stroke:rgb(0%,0%,0%);stroke-opacity:1;stroke-miterlimit:10;" d="M 898.214844 328 C 898.214844 339.714844 888.714844 349.214844 877 349.214844 C 865.285156 349.214844 855.785156 339.714844 855.785156 328 C 855.785156 316.285156 865.285156 306.785156 877 306.785156 C 888.714844 306.785156 898.214844 316.285156 898.214844 328 "/>
<path style="fill-rule:nonzero;fill:rgb(100%,51%,0%);fill-opacity:1;stroke-width:1;stroke-linecap:butt;stroke-linejoin:miter;stroke:rgb(0%,0%,0%);stroke-opacity:1;stroke-miterlimit:10;" d="M 854.214844 415 C 854.214844 426.714844 844.714844 436.214844 833 436.214844 C 821.285156 436.214844 811.785156 426.714844 811.785156 415 C 811.785156 403.285156 821.285156 393.785156 833 393.785156 C 844.714844 393.785156 854.214844 403.285156 854.214844 415 "/>
<path style="fill-rule:nonzero;fill:rgb(100%,51%,0%);fill-opacity:1;stroke-width:1;stroke-linecap:butt;stroke-linejoin:miter;stroke:rgb(0%,0%,0%);stroke-opacity:1;stroke-miterlimit:10;" d="M 736.214844 354 C 736.214844 365.714844 726.714844 375.214844 715 375.214844 C 703.285156 375.214844 693.785156 365.714844 693.785156 354 C 693.785156 342.285156 703.285156 332.785156 715 332.785156 C 726.714844 332.785156 736.214844 342.285156 736.214844 354 "/>
<path style="fill-rule:nonzero;fill:rgb(100%,51%,0%);fill-opacity:1;stroke-width:1;stroke-linecap:butt;stroke-linejoin:miter;stroke:rgb(0%,0%,0%);stroke-opacity:1;stroke-miterlimit:10;" d="M 970.214844 425 C 970.214844 436.714844 960.714844 446.214844 949 446.214844 C 937.285156 446.214844 927.785156 436.714844 927.785156 425 C 927.785156 413.285156 937.285156 403.785156 949 403.785156 C 960.714844 403.785156 970.214844 413.285156 970.214844 425 "/>
</g>
</svg>
