<?xml version="1.0" encoding="UTF-8"?>
<svg xmlns="http://www.w3.org/2000/svg" xmlns:xlink="http://www.w3.org/1999/xlink" width="1179pt" height="517pt" viewBox="0 0 1179 517" version="1.1">
<g id="surface316">
<rect x="0" y="0" width="1179" height="517" style="fill:rgb(90%,90%,90%);fill-opacity:1;stroke:none;"/>
<path style="fill-rule:nonzero;fill:rgb(100%,51%,0%);fill-opacity:1;stroke-width:1;stroke-linecap:butt;stroke-linejoin:miter;stroke:rgb(0%,0%,0%);stroke-opacity:1;stroke-miterlimit:10;" d="M 119.214844 348 C 119.214844 359.714844 109.714844 369.214844 98 369.214844 C 86.285156 369.214844 76.785156 359.714844 76.785156 348 C 76.785156 336.285156 86.285156 326.785156 98 326.785156 C 109.714844 326.785156 119.214844 336.285156 119.214844 348 "/>
<path style="fill-rule:nonzero;fill:rgb(55%,51%,53%);fill-opacity:1;stroke-width:1;stroke-linecap:butt;stroke-linejoin:miter;stroke:rgb(0%,0%,0%);stroke-opacity:1;stroke-miterlimit:10;" d="M 350.214844 172 C 350.214844 183.714844 340.714844 193.214844 329 193.214844 C 317.285156 193.214844 307.785156 183.714844 307.785156 172 C 307.785156 160.285156 317.285156 150.785156 329 150.785156 C 340.714844 150.785156 350.214844 160.285156 350.214844 172 "/>
<path style="fill-rule:nonzero;fill:rgb(55%,51%,53%);fill-opacity:1;stroke-width:1;stroke-linecap:butt;stroke-linejoin:miter;stroke:rgb(0%,0%,0%);stroke-opacity:1;stroke-miterlimit:10;" d="M 418.214844 416 C 418.214844 427.714844 408.714844 437.214844 397 437.214844 C 385.285156 437.214844 375.785156 427.714844 375.785156 416 C 375.785156 404.285156 385.285156 394.785156 397 394.785156 C 408.714844 394.785156 418.214844 404.285156 418.214844 416 "/>
<path style="fill-rule:nonzero;fill:rgb(100%,51%,0%);fill-opacity:1;stroke-width:1;stroke-linecap:butt;stroke-linejoin:miter;stroke:rgb(0%,0%,0%);stroke-opacity:1;stroke-miterlimit:10;" d="M 227.214844 328 C 227.214844 339.714844 217.714844 349.214844 206 349.214844 C 194.285156 349.214844 184.785156 339.714844 184.785156 328 C 184.785156 316.285156 194.285156 306.785156 206 306.785156 C 217.714844 306.785156 227.214844 316.285156 227.214844 328 "/>
<path style="fill-rule:nonzero;fill:rgb(100%,51%,0%);fill-opacity:1;stroke-width:1;stroke-linecap:butt;stroke-linejoin:miter;stroke:rgb(0%,0%,0%);stroke-opacity:1;stroke-miterlimit:10;" d="M 441.214844 141 C 441.214844 152.714844 431.714844 162.214844 420 162.214844 C 408.285156 162.214844 398.785156 152.714844 398.785156 141 C 398.785156 129.285156 408.285156 119.785156 420 119.785156 C 431.714844 119.785156 441.214844 129.285156 441.214844 141 "/>
<path style="fill-rule:nonzero;fill:rgb(100%,51%,0%);fill-opacity:1;stroke-width:1;stroke-linecap:butt;stroke-linejoin:miter;stroke:rgb(0%,0%,0%);stroke-opacity:1;stroke-miterlimit:10;" d="M 174.214844 200 C 174.214844 211.714844 164.714844 221.214844 153 221.214844 C 141.285156 221.214844 131.785156 211.714844 131.785156 200 C 131.785156 188.285156 141.285156 178.785156 153 178.785156 C 164.714844 178.785156 174.214844 188.285156 174.214844 200 "/>
<path style="fill-rule:nonzero;fill:rgb(55%,51%,53%);fill-opacity:1;stroke-width:1;stroke-linecap:butt;stroke-linejoin:miter;stroke:rgb(0%,0%,0%);stroke-opacity:1;stroke-miterlimit:10;" d="M 1022 247 L 996.019531 292 L 1047.980469 292 L 1022 247 "/>
<path style="fill-rule:nonzero;fill:rgb(100%,51%,0%);fill-opacity:1;stroke-width:1;stroke-linecap:butt;stroke-linejoin:miter;stroke:rgb(0%,0%,0%);stroke-opacity:1;stroke-miterlimit:10;" d="M 695 263 L 669.019531 308 L 720.980469 308 L 695 263 "/>
<path style="fill-rule:nonzero;fill:rgb(100%,51%,0%);fill-opacity:1;stroke-width:1;stroke-linecap:butt;stroke-linejoin:miter;stroke:rgb(0%,0%,0%);stroke-opacity:1;stroke-miterlimit:10;" d="M 818 311 L 792.019531 356 L 843.980469 356 L 818 311 "/>
<path style="fill-rule:nonzero;fill:rgb(55%,51%,53%);fill-opacity:1;stroke-width:1;stroke-linecap:butt;stroke-linejoin:miter;stroke:rgb(0%,0%,0%);stroke-opacity:1;stroke-miterlimit:10;" d="M 778 392 L 752.019531 437 L 803.980469 437 L 778 392 "/>
<path style="fill-rule:nonzero;fill:rgb(55%,51%,53%);fill-opacity:1;stroke-width:1;stroke-linecap:butt;stroke-linejoin:miter;stroke:rgb(0%,0%,0%);stroke-opacity:1;stroke-miterlimit:10;" d="M 935 202 L 909.019531 247 L 960.980469 247 L 935 202 "/>
<path style="fill-rule:nonzero;fill:rgb(55%,51%,53%);fill-opacity:1;stroke-width:1;stroke-linecap:butt;stroke-linejoin:miter;stroke:rgb(0%,0%,0%);stroke-opacity:1;stroke-miterlimit:10;" d="M 745 95 L 719.019531 140 L 770.980469 140 L 745 95 "/>
<path style="fill-rule:nonzero;fill:rgb(55%,51%,53%);fill-opacity:1;stroke-width:1;stroke-linecap:butt;stroke-linejoin:miter;stroke:rgb(0%,0%,0%);stroke-opacity:1;stroke-miterlimit:10;" d="M 844 72 L 818.019531 117 L 869.980469 117 L 844 72 "/>
<path style="fill-rule:nonzero;fill:rgb(55%,51%,53%);fill-opacity:1;stroke-width:1;stroke-linecap:butt;stroke-linejoin:miter;stroke:rgb(0%,0%,0%);stroke-opacity:1;stroke-miterlimit:10;" d="M 890 391 L 864.019531 436 L 915.980469 436 L 890 391 "/>
</g>
</svg>
