<?xml version="1.0" encoding="UTF-8"?>
<svg xmlns="http://www.w3.org/2000/svg" xmlns:xlink="http://www.w3.org/1999/xlink" width="1129pt" height="517pt" viewBox="0 0 1129 517" version="1.1">
<g id="surface216">
<rect x="0" y="0" width="1129" height="517" style="fill:rgb(90%,90%,90%);fill-opacity:1;stroke:none;"/>
<path style="fill-rule:nonzero;fill:rgb(35%,70%,90%);fill-opacity:1;stroke-width:1;stroke-linecap:butt;stroke-linejoin:miter;stroke:rgb(0%,0%,0%);stroke-opacity:1;stroke-miterlimit:10;" d="M 96 171 L 125.664062 171 L 137.664062 142.785156 L 149.664062 171 L 179.332031 171 L 155.332031 188.4375 L 163.417969 219.980469 L 137.664062 202.542969 L 111.914062 219.980469 L 124.214844 188.4375 L 96 171 "/>
<path style="fill-rule:nonzero;fill:rgb(35%,70%,90%);fill-opacity:1;stroke-width:1;stroke-linecap:butt;stroke-linejoin:miter;stroke:rgb(0%,0%,0%);stroke-opacity:1;stroke-miterlimit:10;" d="M 393 138 L 422.664062 138 L 434.664062 109.785156 L 446.664062 138 L 476.332031 138 L 452.332031 155.4375 L 460.417969 186.980469 L 434.664062 169.542969 L 408.914062 186.980469 L 421.214844 155.4375 L 393 138 "/>
<path style="fill-rule:nonzero;fill:rgb(35%,70%,90%);fill-opacity:1;stroke-width:1;stroke-linecap:butt;stroke-linejoin:miter;stroke:rgb(0%,0%,0%);stroke-opacity:1;stroke-miterlimit:10;" d="M 638 74 L 667.664062 74 L 679.664062 45.785156 L 691.664062 74 L 721.332031 74 L 697.332031 91.4375 L 705.417969 122.980469 L 679.664062 105.542969 L 653.914062 122.980469 L 666.214844 91.4375 L 638 74 "/>
<path style="fill-rule:nonzero;fill:rgb(35%,70%,90%);fill-opacity:1;stroke-width:1;stroke-linecap:butt;stroke-linejoin:miter;stroke:rgb(0%,0%,0%);stroke-opacity:1;stroke-miterlimit:10;" d="M 573 305 L 602.664062 305 L 614.664062 276.785156 L 626.664062 305 L 656.332031 305 L 632.332031 322.4375 L 640.417969 353.980469 L 614.664062 336.542969 L 588.914062 353.980469 L 601.214844 322.4375 L 573 305 "/>
<path style="fill-rule:nonzero;fill:rgb(53%,27%,7%);fill-opacity:1;stroke-width:1;stroke-linecap:butt;stroke-linejoin:miter;stroke:rgb(0%,0%,0%);stroke-opacity:1;stroke-miterlimit:10;" d="M 734 288 L 708.019531 333 L 759.980469 333 L 734 288 "/>
<path style="fill-rule:nonzero;fill:rgb(53%,27%,7%);fill-opacity:1;stroke-width:1;stroke-linecap:butt;stroke-linejoin:miter;stroke:rgb(0%,0%,0%);stroke-opacity:1;stroke-miterlimit:10;" d="M 434 360 L 408.019531 405 L 459.980469 405 L 434 360 "/>
<path style="fill-rule:nonzero;fill:rgb(53%,27%,7%);fill-opacity:1;stroke-width:1;stroke-linecap:butt;stroke-linejoin:miter;stroke:rgb(0%,0%,0%);stroke-opacity:1;stroke-miterlimit:10;" d="M 188 127 L 162.019531 172 L 213.980469 172 L 188 127 "/>
<path style="fill-rule:nonzero;fill:rgb(53%,27%,7%);fill-opacity:1;stroke-width:1;stroke-linecap:butt;stroke-linejoin:miter;stroke:rgb(0%,0%,0%);stroke-opacity:1;stroke-miterlimit:10;" d="M 701 125 L 675.019531 170 L 726.980469 170 L 701 125 "/>
<path style="fill-rule:nonzero;fill:rgb(53%,27%,7%);fill-opacity:1;stroke-width:1;stroke-linecap:butt;stroke-linejoin:miter;stroke:rgb(0%,0%,0%);stroke-opacity:1;stroke-miterlimit:10;" d="M 931 26 L 905.019531 71 L 956.980469 71 L 931 26 "/>
<path style="fill-rule:nonzero;fill:rgb(53%,27%,7%);fill-opacity:1;stroke-width:1;stroke-linecap:butt;stroke-linejoin:miter;stroke:rgb(0%,0%,0%);stroke-opacity:1;stroke-miterlimit:10;" d="M 956 372 L 930.019531 417 L 981.980469 417 L 956 372 "/>
</g>
</svg>
