<?xml version="1.0" encoding="UTF-8"?>
<svg xmlns="http://www.w3.org/2000/svg" xmlns:xlink="http://www.w3.org/1999/xlink" width="1129pt" height="517pt" viewBox="0 0 1129 517" version="1.1">
<g id="surface671">
<rect x="0" y="0" width="1129" height="517" style="fill:rgb(90%,90%,90%);fill-opacity:1;stroke:none;"/>
<path style="fill-rule:nonzero;fill:rgb(100%,51%,0%);fill-opacity:1;stroke-width:1;stroke-linecap:butt;stroke-linejoin:miter;stroke:rgb(0%,0%,0%);stroke-opacity:1;stroke-miterlimit:10;" d="M 419 300 L 448.664062 300 L 460.664062 271.785156 L 472.664062 300 L 502.332031 300 L 478.332031 317.4375 L 486.417969 348.980469 L 460.664062 331.542969 L 434.914062 348.980469 L 447.214844 317.4375 L 419 300 "/>
<path style="fill-rule:nonzero;fill:rgb(100%,51%,0%);fill-opacity:1;stroke-width:1;stroke-linecap:butt;stroke-linejoin:miter;stroke:rgb(0%,0%,0%);stroke-opacity:1;stroke-miterlimit:10;" d="M 158 456 L 187.664062 456 L 199.664062 427.785156 L 211.664062 456 L 241.332031 456 L 217.332031 473.4375 L 225.417969 504.980469 L 199.664062 487.542969 L 173.914062 504.980469 L 186.214844 473.4375 L 158 456 "/>
<path style="fill-rule:nonzero;fill:rgb(55%,51%,53%);fill-opacity:1;stroke-width:1;stroke-linecap:butt;stroke-linejoin:miter;stroke:rgb(0%,0%,0%);stroke-opacity:1;stroke-miterlimit:10;" d="M 378 53 L 407.664062 53 L 419.664062 24.785156 L 431.664062 53 L 461.332031 53 L 437.332031 70.4375 L 445.417969 101.980469 L 419.664062 84.542969 L 393.914062 101.980469 L 406.214844 70.4375 L 378 53 "/>
<path style="fill-rule:nonzero;fill:rgb(100%,51%,0%);fill-opacity:1;stroke-width:1;stroke-linecap:butt;stroke-linejoin:miter;stroke:rgb(0%,0%,0%);stroke-opacity:1;stroke-miterlimit:10;" d="M 205 333 L 234.664062 333 L 246.664062 304.785156 L 258.664062 333 L 288.332031 333 L 264.332031 350.4375 L 272.417969 381.980469 L 246.664062 364.542969 L 220.914062 381.980469 L 233.214844 350.4375 L 205 333 "/>
<path style="fill-rule:nonzero;fill:rgb(55%,51%,53%);fill-opacity:1;stroke-width:1;stroke-linecap:butt;stroke-linejoin:miter;stroke:rgb(0%,0%,0%);stroke-opacity:1;stroke-miterlimit:10;" d="M 633.785156 59.785156 L 633.785156 102.214844 L 676.214844 102.214844 L 676.214844 59.785156 L 633.785156 59.785156 "/>
<path style="fill-rule:nonzero;fill:rgb(55%,51%,53%);fill-opacity:1;stroke-width:1;stroke-linecap:butt;stroke-linejoin:miter;stroke:rgb(0%,0%,0%);stroke-opacity:1;stroke-miterlimit:10;" d="M 758.785156 75.785156 L 758.785156 118.214844 L 801.214844 118.214844 L 801.214844 75.785156 L 758.785156 75.785156 "/>
<path style="fill-rule:nonzero;fill:rgb(100%,51%,0%);fill-opacity:1;stroke-width:1;stroke-linecap:butt;stroke-linejoin:miter;stroke:rgb(0%,0%,0%);stroke-opacity:1;stroke-miterlimit:10;" d="M 867.785156 275.785156 L 867.785156 318.214844 L 910.214844 318.214844 L 910.214844 275.785156 L 867.785156 275.785156 "/>
<path style="fill-rule:nonzero;fill:rgb(55%,51%,53%);fill-opacity:1;stroke-width:1;stroke-linecap:butt;stroke-linejoin:miter;stroke:rgb(0%,0%,0%);stroke-opacity:1;stroke-miterlimit:10;" d="M 832.785156 142.785156 L 832.785156 185.214844 L 875.214844 185.214844 L 875.214844 142.785156 L 832.785156 142.785156 "/>
<path style="fill-rule:nonzero;fill:rgb(55%,51%,53%);fill-opacity:1;stroke-width:1;stroke-linecap:butt;stroke-linejoin:miter;stroke:rgb(0%,0%,0%);stroke-opacity:1;stroke-miterlimit:10;" d="M 995.785156 259.785156 L 995.785156 302.214844 L 1038.214844 302.214844 L 1038.214844 259.785156 L 995.785156 259.785156 "/>
</g>
</svg>
