<?xml version="1.0" encoding="UTF-8"?>
<svg xmlns="http://www.w3.org/2000/svg" xmlns:xlink="http://www.w3.org/1999/xlink" width="1179pt" height="517pt" viewBox="0 0 1179 517" version="1.1">
<g id="surface896">
<rect x="0" y="0" width="1179" height="517" style="fill:rgb(90%,90%,90%);fill-opacity:1;stroke:none;"/>
<path style="fill-rule:nonzero;fill:rgb(53%,27%,7%);fill-opacity:1;stroke-width:1;stroke-linecap:butt;stroke-linejoin:miter;stroke:rgb(0%,0%,0%);stroke-opacity:1;stroke-miterlimit:10;" d="M 424 217.601562 C 424 203.199219 400 203.199219 400 217.601562 C 400 232 424 234.398438 424 246.398438 C 424 234.398438 448 232 448 217.601562 C 448 203.199219 424 203.199219 424 217.601562 "/>
<path style="fill-rule:nonzero;fill:rgb(53%,27%,7%);fill-opacity:1;stroke-width:1;stroke-linecap:butt;stroke-linejoin:miter;stroke:rgb(0%,0%,0%);stroke-opacity:1;stroke-miterlimit:10;" d="M 122.214844 207 C 122.214844 218.714844 112.714844 228.214844 101 228.214844 C 89.285156 228.214844 79.785156 218.714844 79.785156 207 C 79.785156 195.285156 89.285156 185.785156 101 185.785156 C 112.714844 185.785156 122.214844 195.285156 122.214844 207 "/>
<path style="fill-rule:nonzero;fill:rgb(53%,27%,7%);fill-opacity:1;stroke-width:1;stroke-linecap:butt;stroke-linejoin:miter;stroke:rgb(0%,0%,0%);stroke-opacity:1;stroke-miterlimit:10;" d="M 343.214844 154 C 343.214844 165.714844 333.714844 175.214844 322 175.214844 C 310.285156 175.214844 300.785156 165.714844 300.785156 154 C 300.785156 142.285156 310.285156 132.785156 322 132.785156 C 333.714844 132.785156 343.214844 142.285156 343.214844 154 "/>
<path style="fill-rule:nonzero;fill:rgb(53%,27%,7%);fill-opacity:1;stroke-width:1;stroke-linecap:butt;stroke-linejoin:miter;stroke:rgb(0%,0%,0%);stroke-opacity:1;stroke-miterlimit:10;" d="M 415 336.601562 C 415 322.199219 391 322.199219 391 336.601562 C 391 351 415 353.398438 415 365.398438 C 415 353.398438 439 351 439 336.601562 C 439 322.199219 415 322.199219 415 336.601562 "/>
<path style="fill-rule:nonzero;fill:rgb(53%,27%,7%);fill-opacity:1;stroke-width:1;stroke-linecap:butt;stroke-linejoin:miter;stroke:rgb(0%,0%,0%);stroke-opacity:1;stroke-miterlimit:10;" d="M 135 338.601562 C 135 324.199219 111 324.199219 111 338.601562 C 111 353 135 355.398438 135 367.398438 C 135 355.398438 159 353 159 338.601562 C 159 324.199219 135 324.199219 135 338.601562 "/>
<path style="fill-rule:nonzero;fill:rgb(53%,27%,7%);fill-opacity:1;stroke-width:1;stroke-linecap:butt;stroke-linejoin:miter;stroke:rgb(0%,0%,0%);stroke-opacity:1;stroke-miterlimit:10;" d="M 264 265.601562 C 264 251.199219 240 251.199219 240 265.601562 C 240 280 264 282.398438 264 294.398438 C 264 282.398438 288 280 288 265.601562 C 288 251.199219 264 251.199219 264 265.601562 "/>
<path style="fill-rule:nonzero;fill:rgb(53%,27%,7%);fill-opacity:1;stroke-width:1;stroke-linecap:butt;stroke-linejoin:miter;stroke:rgb(0%,0%,0%);stroke-opacity:1;stroke-miterlimit:10;" d="M 324 346.601562 C 324 332.199219 300 332.199219 300 346.601562 C 300 361 324 363.398438 324 375.398438 C 324 363.398438 348 361 348 346.601562 C 348 332.199219 324 332.199219 324 346.601562 "/>
<path style="fill-rule:nonzero;fill:rgb(53%,27%,7%);fill-opacity:1;stroke-width:1;stroke-linecap:butt;stroke-linejoin:miter;stroke:rgb(0%,0%,0%);stroke-opacity:1;stroke-miterlimit:10;" d="M 223 77.601562 C 223 63.199219 199 63.199219 199 77.601562 C 199 92 223 94.398438 223 106.398438 C 223 94.398438 247 92 247 77.601562 C 247 63.199219 223 63.199219 223 77.601562 "/>
<path style="fill-rule:nonzero;fill:rgb(100%,51%,0%);fill-opacity:1;stroke-width:1;stroke-linecap:butt;stroke-linejoin:miter;stroke:rgb(0%,0%,0%);stroke-opacity:1;stroke-miterlimit:10;" d="M 956.214844 153 C 956.214844 164.714844 946.714844 174.214844 935 174.214844 C 923.285156 174.214844 913.785156 164.714844 913.785156 153 C 913.785156 141.285156 923.285156 131.785156 935 131.785156 C 946.714844 131.785156 956.214844 141.285156 956.214844 153 "/>
<path style="fill-rule:nonzero;fill:rgb(100%,51%,0%);fill-opacity:1;stroke-width:1;stroke-linecap:butt;stroke-linejoin:miter;stroke:rgb(0%,0%,0%);stroke-opacity:1;stroke-miterlimit:10;" d="M 843 94.601562 C 843 80.199219 819 80.199219 819 94.601562 C 819 109 843 111.398438 843 123.398438 C 843 111.398438 867 109 867 94.601562 C 867 80.199219 843 80.199219 843 94.601562 "/>
<path style="fill-rule:nonzero;fill:rgb(100%,51%,0%);fill-opacity:1;stroke-width:1;stroke-linecap:butt;stroke-linejoin:miter;stroke:rgb(0%,0%,0%);stroke-opacity:1;stroke-miterlimit:10;" d="M 1044 372.601562 C 1044 358.199219 1020 358.199219 1020 372.601562 C 1020 387 1044 389.398438 1044 401.398438 C 1044 389.398438 1068 387 1068 372.601562 C 1068 358.199219 1044 358.199219 1044 372.601562 "/>
<path style="fill-rule:nonzero;fill:rgb(100%,51%,0%);fill-opacity:1;stroke-width:1;stroke-linecap:butt;stroke-linejoin:miter;stroke:rgb(0%,0%,0%);stroke-opacity:1;stroke-miterlimit:10;" d="M 888.214844 257 C 888.214844 268.714844 878.714844 278.214844 867 278.214844 C 855.285156 278.214844 845.785156 268.714844 845.785156 257 C 845.785156 245.285156 855.285156 235.785156 867 235.785156 C 878.714844 235.785156 888.214844 245.285156 888.214844 257 "/>
<path style="fill-rule:nonzero;fill:rgb(100%,51%,0%);fill-opacity:1;stroke-width:1;stroke-linecap:butt;stroke-linejoin:miter;stroke:rgb(0%,0%,0%);stroke-opacity:1;stroke-miterlimit:10;" d="M 899.214844 427 C 899.214844 438.714844 889.714844 448.214844 878 448.214844 C 866.285156 448.214844 856.785156 438.714844 856.785156 427 C 856.785156 415.285156 866.285156 405.785156 878 405.785156 C 889.714844 405.785156 899.214844 415.285156 899.214844 427 "/>
<path style="fill-rule:nonzero;fill:rgb(100%,51%,0%);fill-opacity:1;stroke-width:1;stroke-linecap:butt;stroke-linejoin:miter;stroke:rgb(0%,0%,0%);stroke-opacity:1;stroke-miterlimit:10;" d="M 1055.214844 87 C 1055.214844 98.714844 1045.714844 108.214844 1034 108.214844 C 1022.285156 108.214844 1012.785156 98.714844 1012.785156 87 C 1012.785156 75.285156 1022.285156 65.785156 1034 65.785156 C 1045.714844 65.785156 1055.214844 75.285156 1055.214844 87 "/>
<path style="fill-rule:nonzero;fill:rgb(100%,51%,0%);fill-opacity:1;stroke-width:1;stroke-linecap:butt;stroke-linejoin:miter;stroke:rgb(0%,0%,0%);stroke-opacity:1;stroke-miterlimit:10;" d="M 733.214844 247 C 733.214844 258.714844 723.714844 268.214844 712 268.214844 C 700.285156 268.214844 690.785156 258.714844 690.785156 247 C 690.785156 235.285156 700.285156 225.785156 712 225.785156 C 723.714844 225.785156 733.214844 235.285156 733.214844 247 "/>
<path style="fill-rule:nonzero;fill:rgb(100%,51%,0%);fill-opacity:1;stroke-width:1;stroke-linecap:butt;stroke-linejoin:miter;stroke:rgb(0%,0%,0%);stroke-opacity:1;stroke-miterlimit:10;" d="M 737.214844 139 C 737.214844 150.714844 727.714844 160.214844 716 160.214844 C 704.285156 160.214844 694.785156 150.714844 694.785156 139 C 694.785156 127.285156 704.285156 117.785156 716 117.785156 C 727.714844 117.785156 737.214844 127.285156 737.214844 139 "/>
</g>
</svg>
