<?xml version="1.0" encoding="UTF-8"?>
<svg xmlns="http://www.w3.org/2000/svg" xmlns:xlink="http://www.w3.org/1999/xlink" width="1129pt" height="517pt" viewBox="0 0 1129 517" version="1.1">
<g id="surface886">
<rect x="0" y="0" width="1129" height="517" style="fill:rgb(90%,90%,90%);fill-opacity:1;stroke:none;"/>
<path style="fill-rule:nonzero;fill:rgb(55%,51%,53%);fill-opacity:1;stroke-width:1;stroke-linecap:butt;stroke-linejoin:miter;stroke:rgb(0%,0%,0%);stroke-opacity:1;stroke-miterlimit:10;" d="M 306.214844 73 C 306.214844 84.714844 296.714844 94.214844 285 94.214844 C 273.285156 94.214844 263.785156 84.714844 263.785156 73 C 263.785156 61.285156 273.285156 51.785156 285 51.785156 C 296.714844 51.785156 306.214844 61.285156 306.214844 73 "/>
<path style="fill-rule:nonzero;fill:rgb(67%,100%,18%);fill-opacity:1;stroke-width:1;stroke-linecap:butt;stroke-linejoin:miter;stroke:rgb(0%,0%,0%);stroke-opacity:1;stroke-miterlimit:10;" d="M 452.214844 82 C 452.214844 93.714844 442.714844 103.214844 431 103.214844 C 419.285156 103.214844 409.785156 93.714844 409.785156 82 C 409.785156 70.285156 419.285156 60.785156 431 60.785156 C 442.714844 60.785156 452.214844 70.285156 452.214844 82 "/>
<path style="fill-rule:nonzero;fill:rgb(67%,100%,18%);fill-opacity:1;stroke-width:1;stroke-linecap:butt;stroke-linejoin:miter;stroke:rgb(0%,0%,0%);stroke-opacity:1;stroke-miterlimit:10;" d="M 219.214844 436 C 219.214844 447.714844 209.714844 457.214844 198 457.214844 C 186.285156 457.214844 176.785156 447.714844 176.785156 436 C 176.785156 424.285156 186.285156 414.785156 198 414.785156 C 209.714844 414.785156 219.214844 424.285156 219.214844 436 "/>
<path style="fill-rule:nonzero;fill:rgb(55%,51%,53%);fill-opacity:1;stroke-width:1;stroke-linecap:butt;stroke-linejoin:miter;stroke:rgb(0%,0%,0%);stroke-opacity:1;stroke-miterlimit:10;" d="M 156.214844 98 C 156.214844 109.714844 146.714844 119.214844 135 119.214844 C 123.285156 119.214844 113.785156 109.714844 113.785156 98 C 113.785156 86.285156 123.285156 76.785156 135 76.785156 C 146.714844 76.785156 156.214844 86.285156 156.214844 98 "/>
<path style="fill-rule:nonzero;fill:rgb(55%,51%,53%);fill-opacity:1;stroke-width:1;stroke-linecap:butt;stroke-linejoin:miter;stroke:rgb(0%,0%,0%);stroke-opacity:1;stroke-miterlimit:10;" d="M 163.214844 215 C 163.214844 226.714844 153.714844 236.214844 142 236.214844 C 130.285156 236.214844 120.785156 226.714844 120.785156 215 C 120.785156 203.285156 130.285156 193.785156 142 193.785156 C 153.714844 193.785156 163.214844 203.285156 163.214844 215 "/>
<path style="fill-rule:nonzero;fill:rgb(55%,51%,53%);fill-opacity:1;stroke-width:1;stroke-linecap:butt;stroke-linejoin:miter;stroke:rgb(0%,0%,0%);stroke-opacity:1;stroke-miterlimit:10;" d="M 81.214844 331 C 81.214844 342.714844 71.714844 352.214844 60 352.214844 C 48.285156 352.214844 38.785156 342.714844 38.785156 331 C 38.785156 319.285156 48.285156 309.785156 60 309.785156 C 71.714844 309.785156 81.214844 319.285156 81.214844 331 "/>
<path style="fill-rule:nonzero;fill:rgb(55%,51%,53%);fill-opacity:1;stroke-width:1;stroke-linecap:butt;stroke-linejoin:miter;stroke:rgb(0%,0%,0%);stroke-opacity:1;stroke-miterlimit:10;" d="M 314.214844 250 C 314.214844 261.714844 304.714844 271.214844 293 271.214844 C 281.285156 271.214844 271.785156 261.714844 271.785156 250 C 271.785156 238.285156 281.285156 228.785156 293 228.785156 C 304.714844 228.785156 314.214844 238.285156 314.214844 250 "/>
<path style="fill-rule:nonzero;fill:rgb(55%,51%,53%);fill-opacity:1;stroke-width:1;stroke-linecap:butt;stroke-linejoin:miter;stroke:rgb(0%,0%,0%);stroke-opacity:1;stroke-miterlimit:10;" d="M 457.214844 192 C 457.214844 203.714844 447.714844 213.214844 436 213.214844 C 424.285156 213.214844 414.785156 203.714844 414.785156 192 C 414.785156 180.285156 424.285156 170.785156 436 170.785156 C 447.714844 170.785156 457.214844 180.285156 457.214844 192 "/>
<path style="fill-rule:nonzero;fill:rgb(67%,100%,18%);fill-opacity:1;stroke-width:1;stroke-linecap:butt;stroke-linejoin:miter;stroke:rgb(0%,0%,0%);stroke-opacity:1;stroke-miterlimit:10;" d="M 667 358 L 641.019531 403 L 692.980469 403 L 667 358 "/>
<path style="fill-rule:nonzero;fill:rgb(55%,51%,53%);fill-opacity:1;stroke-width:1;stroke-linecap:butt;stroke-linejoin:miter;stroke:rgb(0%,0%,0%);stroke-opacity:1;stroke-miterlimit:10;" d="M 671 232 L 645.019531 277 L 696.980469 277 L 671 232 "/>
<path style="fill-rule:nonzero;fill:rgb(55%,51%,53%);fill-opacity:1;stroke-width:1;stroke-linecap:butt;stroke-linejoin:miter;stroke:rgb(0%,0%,0%);stroke-opacity:1;stroke-miterlimit:10;" d="M 775 374 L 749.019531 419 L 800.980469 419 L 775 374 "/>
<path style="fill-rule:nonzero;fill:rgb(67%,100%,18%);fill-opacity:1;stroke-width:1;stroke-linecap:butt;stroke-linejoin:miter;stroke:rgb(0%,0%,0%);stroke-opacity:1;stroke-miterlimit:10;" d="M 865 370 L 839.019531 415 L 890.980469 415 L 865 370 "/>
<path style="fill-rule:nonzero;fill:rgb(67%,100%,18%);fill-opacity:1;stroke-width:1;stroke-linecap:butt;stroke-linejoin:miter;stroke:rgb(0%,0%,0%);stroke-opacity:1;stroke-miterlimit:10;" d="M 1001 79 L 975.019531 124 L 1026.980469 124 L 1001 79 "/>
<path style="fill-rule:nonzero;fill:rgb(67%,100%,18%);fill-opacity:1;stroke-width:1;stroke-linecap:butt;stroke-linejoin:miter;stroke:rgb(0%,0%,0%);stroke-opacity:1;stroke-miterlimit:10;" d="M 771 108 L 745.019531 153 L 796.980469 153 L 771 108 "/>
</g>
</svg>
