<?xml version="1.0" encoding="UTF-8"?>
<svg xmlns="http://www.w3.org/2000/svg" xmlns:xlink="http://www.w3.org/1999/xlink" width="1179pt" height="517pt" viewBox="0 0 1179 517" version="1.1">
<g id="surface721">
<rect x="0" y="0" width="1179" height="517" style="fill:rgb(90%,90%,90%);fill-opacity:1;stroke:none;"/>
<path style="fill-rule:nonzero;fill:rgb(53%,27%,7%);fill-opacity:1;stroke-width:1;stroke-linecap:butt;stroke-linejoin:miter;stroke:rgb(0%,0%,0%);stroke-opacity:1;stroke-miterlimit:10;" d="M 307 145.601562 C 307 131.199219 283 131.199219 283 145.601562 C 283 160 307 162.398438 307 174.398438 C 307 162.398438 331 160 331 145.601562 C 331 131.199219 307 131.199219 307 145.601562 "/>
<path style="fill-rule:nonzero;fill:rgb(53%,27%,7%);fill-opacity:1;stroke-width:1;stroke-linecap:butt;stroke-linejoin:miter;stroke:rgb(0%,0%,0%);stroke-opacity:1;stroke-miterlimit:10;" d="M 239 300.601562 C 239 286.199219 215 286.199219 215 300.601562 C 215 315 239 317.398438 239 329.398438 C 239 317.398438 263 315 263 300.601562 C 263 286.199219 239 286.199219 239 300.601562 "/>
<path style="fill-rule:nonzero;fill:rgb(53%,27%,7%);fill-opacity:1;stroke-width:1;stroke-linecap:butt;stroke-linejoin:miter;stroke:rgb(0%,0%,0%);stroke-opacity:1;stroke-miterlimit:10;" d="M 166 128.601562 C 166 114.199219 142 114.199219 142 128.601562 C 142 143 166 145.398438 166 157.398438 C 166 145.398438 190 143 190 128.601562 C 190 114.199219 166 114.199219 166 128.601562 "/>
<path style="fill-rule:nonzero;fill:rgb(100%,51%,0%);fill-opacity:1;stroke-width:1;stroke-linecap:butt;stroke-linejoin:miter;stroke:rgb(0%,0%,0%);stroke-opacity:1;stroke-miterlimit:10;" d="M 452.214844 273 C 452.214844 284.714844 442.714844 294.214844 431 294.214844 C 419.285156 294.214844 409.785156 284.714844 409.785156 273 C 409.785156 261.285156 419.285156 251.785156 431 251.785156 C 442.714844 251.785156 452.214844 261.285156 452.214844 273 "/>
<path style="fill-rule:nonzero;fill:rgb(100%,51%,0%);fill-opacity:1;stroke-width:1;stroke-linecap:butt;stroke-linejoin:miter;stroke:rgb(0%,0%,0%);stroke-opacity:1;stroke-miterlimit:10;" d="M 356.214844 362 C 356.214844 373.714844 346.714844 383.214844 335 383.214844 C 323.285156 383.214844 313.785156 373.714844 313.785156 362 C 313.785156 350.285156 323.285156 340.785156 335 340.785156 C 346.714844 340.785156 356.214844 350.285156 356.214844 362 "/>
<path style="fill-rule:nonzero;fill:rgb(53%,27%,7%);fill-opacity:1;stroke-width:1;stroke-linecap:butt;stroke-linejoin:miter;stroke:rgb(0%,0%,0%);stroke-opacity:1;stroke-miterlimit:10;" d="M 844 82.601562 C 844 68.199219 820 68.199219 820 82.601562 C 820 97 844 99.398438 844 111.398438 C 844 99.398438 868 97 868 82.601562 C 868 68.199219 844 68.199219 844 82.601562 "/>
<path style="fill-rule:nonzero;fill:rgb(100%,51%,0%);fill-opacity:1;stroke-width:1;stroke-linecap:butt;stroke-linejoin:miter;stroke:rgb(0%,0%,0%);stroke-opacity:1;stroke-miterlimit:10;" d="M 783.214844 153 C 783.214844 164.714844 773.714844 174.214844 762 174.214844 C 750.285156 174.214844 740.785156 164.714844 740.785156 153 C 740.785156 141.285156 750.285156 131.785156 762 131.785156 C 773.714844 131.785156 783.214844 141.285156 783.214844 153 "/>
<path style="fill-rule:nonzero;fill:rgb(100%,51%,0%);fill-opacity:1;stroke-width:1;stroke-linecap:butt;stroke-linejoin:miter;stroke:rgb(0%,0%,0%);stroke-opacity:1;stroke-miterlimit:10;" d="M 903.214844 378 C 903.214844 389.714844 893.714844 399.214844 882 399.214844 C 870.285156 399.214844 860.785156 389.714844 860.785156 378 C 860.785156 366.285156 870.285156 356.785156 882 356.785156 C 893.714844 356.785156 903.214844 366.285156 903.214844 378 "/>
<path style="fill-rule:nonzero;fill:rgb(100%,51%,0%);fill-opacity:1;stroke-width:1;stroke-linecap:butt;stroke-linejoin:miter;stroke:rgb(0%,0%,0%);stroke-opacity:1;stroke-miterlimit:10;" d="M 1059.214844 412 C 1059.214844 423.714844 1049.714844 433.214844 1038 433.214844 C 1026.285156 433.214844 1016.785156 423.714844 1016.785156 412 C 1016.785156 400.285156 1026.285156 390.785156 1038 390.785156 C 1049.714844 390.785156 1059.214844 400.285156 1059.214844 412 "/>
<path style="fill-rule:nonzero;fill:rgb(100%,51%,0%);fill-opacity:1;stroke-width:1;stroke-linecap:butt;stroke-linejoin:miter;stroke:rgb(0%,0%,0%);stroke-opacity:1;stroke-miterlimit:10;" d="M 966.214844 221 C 966.214844 232.714844 956.714844 242.214844 945 242.214844 C 933.285156 242.214844 923.785156 232.714844 923.785156 221 C 923.785156 209.285156 933.285156 199.785156 945 199.785156 C 956.714844 199.785156 966.214844 209.285156 966.214844 221 "/>
<path style="fill-rule:nonzero;fill:rgb(53%,27%,7%);fill-opacity:1;stroke-width:1;stroke-linecap:butt;stroke-linejoin:miter;stroke:rgb(0%,0%,0%);stroke-opacity:1;stroke-miterlimit:10;" d="M 1019 78.601562 C 1019 64.199219 995 64.199219 995 78.601562 C 995 93 1019 95.398438 1019 107.398438 C 1019 95.398438 1043 93 1043 78.601562 C 1043 64.199219 1019 64.199219 1019 78.601562 "/>
<path style="fill-rule:nonzero;fill:rgb(53%,27%,7%);fill-opacity:1;stroke-width:1;stroke-linecap:butt;stroke-linejoin:miter;stroke:rgb(0%,0%,0%);stroke-opacity:1;stroke-miterlimit:10;" d="M 707 365.601562 C 707 351.199219 683 351.199219 683 365.601562 C 683 380 707 382.398438 707 394.398438 C 707 382.398438 731 380 731 365.601562 C 731 351.199219 707 351.199219 707 365.601562 "/>
<path style="fill-rule:nonzero;fill:rgb(100%,51%,0%);fill-opacity:1;stroke-width:1;stroke-linecap:butt;stroke-linejoin:miter;stroke:rgb(0%,0%,0%);stroke-opacity:1;stroke-miterlimit:10;" d="M 809.214844 323 C 809.214844 334.714844 799.714844 344.214844 788 344.214844 C 776.285156 344.214844 766.785156 334.714844 766.785156 323 C 766.785156 311.285156 776.285156 301.785156 788 301.785156 C 799.714844 301.785156 809.214844 311.285156 809.214844 323 "/>
</g>
</svg>
