<?xml version="1.0" encoding="UTF-8"?>
<svg xmlns="http://www.w3.org/2000/svg" xmlns:xlink="http://www.w3.org/1999/xlink" width="1129pt" height="517pt" viewBox="0 0 1129 517" version="1.1">
<g id="surface761">
<rect x="0" y="0" width="1129" height="517" style="fill:rgb(90%,90%,90%);fill-opacity:1;stroke:none;"/>
<path style="fill-rule:nonzero;fill:rgb(53%,27%,7%);fill-opacity:1;stroke-width:1;stroke-linecap:butt;stroke-linejoin:miter;stroke:rgb(0%,0%,0%);stroke-opacity:1;stroke-miterlimit:10;" d="M 134 58.601562 C 134 44.199219 110 44.199219 110 58.601562 C 110 73 134 75.398438 134 87.398438 C 134 75.398438 158 73 158 58.601562 C 158 44.199219 134 44.199219 134 58.601562 "/>
<path style="fill-rule:nonzero;fill:rgb(53%,27%,7%);fill-opacity:1;stroke-width:1;stroke-linecap:butt;stroke-linejoin:miter;stroke:rgb(0%,0%,0%);stroke-opacity:1;stroke-miterlimit:10;" d="M 167 298.601562 C 167 284.199219 143 284.199219 143 298.601562 C 143 313 167 315.398438 167 327.398438 C 167 315.398438 191 313 191 298.601562 C 191 284.199219 167 284.199219 167 298.601562 "/>
<path style="fill-rule:nonzero;fill:rgb(53%,27%,7%);fill-opacity:1;stroke-width:1;stroke-linecap:butt;stroke-linejoin:miter;stroke:rgb(0%,0%,0%);stroke-opacity:1;stroke-miterlimit:10;" d="M 311.214844 90 C 311.214844 101.714844 301.714844 111.214844 290 111.214844 C 278.285156 111.214844 268.785156 101.714844 268.785156 90 C 268.785156 78.285156 278.285156 68.785156 290 68.785156 C 301.714844 68.785156 311.214844 78.285156 311.214844 90 "/>
<path style="fill-rule:nonzero;fill:rgb(53%,27%,7%);fill-opacity:1;stroke-width:1;stroke-linecap:butt;stroke-linejoin:miter;stroke:rgb(0%,0%,0%);stroke-opacity:1;stroke-miterlimit:10;" d="M 298.214844 396 C 298.214844 407.714844 288.714844 417.214844 277 417.214844 C 265.285156 417.214844 255.785156 407.714844 255.785156 396 C 255.785156 384.285156 265.285156 374.785156 277 374.785156 C 288.714844 374.785156 298.214844 384.285156 298.214844 396 "/>
<path style="fill-rule:nonzero;fill:rgb(53%,27%,7%);fill-opacity:1;stroke-width:1;stroke-linecap:butt;stroke-linejoin:miter;stroke:rgb(0%,0%,0%);stroke-opacity:1;stroke-miterlimit:10;" d="M 148 183.601562 C 148 169.199219 124 169.199219 124 183.601562 C 124 198 148 200.398438 148 212.398438 C 148 200.398438 172 198 172 183.601562 C 172 169.199219 148 169.199219 148 183.601562 "/>
<path style="fill-rule:nonzero;fill:rgb(53%,27%,7%);fill-opacity:1;stroke-width:1;stroke-linecap:butt;stroke-linejoin:miter;stroke:rgb(0%,0%,0%);stroke-opacity:1;stroke-miterlimit:10;" d="M 336 304.601562 C 336 290.199219 312 290.199219 312 304.601562 C 312 319 336 321.398438 336 333.398438 C 336 321.398438 360 319 360 304.601562 C 360 290.199219 336 290.199219 336 304.601562 "/>
<path style="fill-rule:nonzero;fill:rgb(53%,27%,7%);fill-opacity:1;stroke-width:1;stroke-linecap:butt;stroke-linejoin:miter;stroke:rgb(0%,0%,0%);stroke-opacity:1;stroke-miterlimit:10;" d="M 73 380.601562 C 73 366.199219 49 366.199219 49 380.601562 C 49 395 73 397.398438 73 409.398438 C 73 397.398438 97 395 97 380.601562 C 97 366.199219 73 366.199219 73 380.601562 "/>
<path style="fill-rule:nonzero;fill:rgb(53%,27%,7%);fill-opacity:1;stroke-width:1;stroke-linecap:butt;stroke-linejoin:miter;stroke:rgb(0%,0%,0%);stroke-opacity:1;stroke-miterlimit:10;" d="M 305 178.601562 C 305 164.199219 281 164.199219 281 178.601562 C 281 193 305 195.398438 305 207.398438 C 305 195.398438 329 193 329 178.601562 C 329 164.199219 305 164.199219 305 178.601562 "/>
<path style="fill-rule:nonzero;fill:rgb(100%,51%,0%);fill-opacity:1;stroke-width:1;stroke-linecap:butt;stroke-linejoin:miter;stroke:rgb(0%,0%,0%);stroke-opacity:1;stroke-miterlimit:10;" d="M 859.214844 68 C 859.214844 79.714844 849.714844 89.214844 838 89.214844 C 826.285156 89.214844 816.785156 79.714844 816.785156 68 C 816.785156 56.285156 826.285156 46.785156 838 46.785156 C 849.714844 46.785156 859.214844 56.285156 859.214844 68 "/>
<path style="fill-rule:nonzero;fill:rgb(100%,51%,0%);fill-opacity:1;stroke-width:1;stroke-linecap:butt;stroke-linejoin:miter;stroke:rgb(0%,0%,0%);stroke-opacity:1;stroke-miterlimit:10;" d="M 699.214844 249 C 699.214844 260.714844 689.714844 270.214844 678 270.214844 C 666.285156 270.214844 656.785156 260.714844 656.785156 249 C 656.785156 237.285156 666.285156 227.785156 678 227.785156 C 689.714844 227.785156 699.214844 237.285156 699.214844 249 "/>
<path style="fill-rule:nonzero;fill:rgb(100%,51%,0%);fill-opacity:1;stroke-width:1;stroke-linecap:butt;stroke-linejoin:miter;stroke:rgb(0%,0%,0%);stroke-opacity:1;stroke-miterlimit:10;" d="M 840 383.601562 C 840 369.199219 816 369.199219 816 383.601562 C 816 398 840 400.398438 840 412.398438 C 840 400.398438 864 398 864 383.601562 C 864 369.199219 840 369.199219 840 383.601562 "/>
<path style="fill-rule:nonzero;fill:rgb(100%,51%,0%);fill-opacity:1;stroke-width:1;stroke-linecap:butt;stroke-linejoin:miter;stroke:rgb(0%,0%,0%);stroke-opacity:1;stroke-miterlimit:10;" d="M 646 403.601562 C 646 389.199219 622 389.199219 622 403.601562 C 622 418 646 420.398438 646 432.398438 C 646 420.398438 670 418 670 403.601562 C 670 389.199219 646 389.199219 646 403.601562 "/>
<path style="fill-rule:nonzero;fill:rgb(100%,51%,0%);fill-opacity:1;stroke-width:1;stroke-linecap:butt;stroke-linejoin:miter;stroke:rgb(0%,0%,0%);stroke-opacity:1;stroke-miterlimit:10;" d="M 977.214844 310 C 977.214844 321.714844 967.714844 331.214844 956 331.214844 C 944.285156 331.214844 934.785156 321.714844 934.785156 310 C 934.785156 298.285156 944.285156 288.785156 956 288.785156 C 967.714844 288.785156 977.214844 298.285156 977.214844 310 "/>
<path style="fill-rule:nonzero;fill:rgb(100%,51%,0%);fill-opacity:1;stroke-width:1;stroke-linecap:butt;stroke-linejoin:miter;stroke:rgb(0%,0%,0%);stroke-opacity:1;stroke-miterlimit:10;" d="M 972.214844 175 C 972.214844 186.714844 962.714844 196.214844 951 196.214844 C 939.285156 196.214844 929.785156 186.714844 929.785156 175 C 929.785156 163.285156 939.285156 153.785156 951 153.785156 C 962.714844 153.785156 972.214844 163.285156 972.214844 175 "/>
<path style="fill-rule:nonzero;fill:rgb(100%,51%,0%);fill-opacity:1;stroke-width:1;stroke-linecap:butt;stroke-linejoin:miter;stroke:rgb(0%,0%,0%);stroke-opacity:1;stroke-miterlimit:10;" d="M 990.214844 458 C 990.214844 469.714844 980.714844 479.214844 969 479.214844 C 957.285156 479.214844 947.785156 469.714844 947.785156 458 C 947.785156 446.285156 957.285156 436.785156 969 436.785156 C 980.714844 436.785156 990.214844 446.285156 990.214844 458 "/>
<path style="fill-rule:nonzero;fill:rgb(100%,51%,0%);fill-opacity:1;stroke-width:1;stroke-linecap:butt;stroke-linejoin:miter;stroke:rgb(0%,0%,0%);stroke-opacity:1;stroke-miterlimit:10;" d="M 789.214844 297 C 789.214844 308.714844 779.714844 318.214844 768 318.214844 C 756.285156 318.214844 746.785156 308.714844 746.785156 297 C 746.785156 285.285156 756.285156 275.785156 768 275.785156 C 779.714844 275.785156 789.214844 285.285156 789.214844 297 "/>
</g>
</svg>
