<?xml version="1.0" encoding="UTF-8"?>
<svg xmlns="http://www.w3.org/2000/svg" xmlns:xlink="http://www.w3.org/1999/xlink" width="1179pt" height="517pt" viewBox="0 0 1179 517" version="1.1">
<g id="surface681">
<rect x="0" y="0" width="1179" height="517" style="fill:rgb(90%,90%,90%);fill-opacity:1;stroke:none;"/>
<path style="fill-rule:nonzero;fill:rgb(100%,51%,0%);fill-opacity:1;stroke-width:1;stroke-linecap:butt;stroke-linejoin:miter;stroke:rgb(0%,0%,0%);stroke-opacity:1;stroke-miterlimit:10;" d="M 134.214844 110 C 134.214844 121.714844 124.714844 131.214844 113 131.214844 C 101.285156 131.214844 91.785156 121.714844 91.785156 110 C 91.785156 98.285156 101.285156 88.785156 113 88.785156 C 124.714844 88.785156 134.214844 98.285156 134.214844 110 "/>
<path style="fill-rule:nonzero;fill:rgb(100%,51%,0%);fill-opacity:1;stroke-width:1;stroke-linecap:butt;stroke-linejoin:miter;stroke:rgb(0%,0%,0%);stroke-opacity:1;stroke-miterlimit:10;" d="M 235.785156 107.785156 L 235.785156 150.214844 L 278.214844 150.214844 L 278.214844 107.785156 L 235.785156 107.785156 "/>
<path style="fill-rule:nonzero;fill:rgb(100%,51%,0%);fill-opacity:1;stroke-width:1;stroke-linecap:butt;stroke-linejoin:miter;stroke:rgb(0%,0%,0%);stroke-opacity:1;stroke-miterlimit:10;" d="M 284.785156 313.785156 L 284.785156 356.214844 L 327.214844 356.214844 L 327.214844 313.785156 L 284.785156 313.785156 "/>
<path style="fill-rule:nonzero;fill:rgb(100%,51%,0%);fill-opacity:1;stroke-width:1;stroke-linecap:butt;stroke-linejoin:miter;stroke:rgb(0%,0%,0%);stroke-opacity:1;stroke-miterlimit:10;" d="M 225.214844 406 C 225.214844 417.714844 215.714844 427.214844 204 427.214844 C 192.285156 427.214844 182.785156 417.714844 182.785156 406 C 182.785156 394.285156 192.285156 384.785156 204 384.785156 C 215.714844 384.785156 225.214844 394.285156 225.214844 406 "/>
<path style="fill-rule:nonzero;fill:rgb(100%,51%,0%);fill-opacity:1;stroke-width:1;stroke-linecap:butt;stroke-linejoin:miter;stroke:rgb(0%,0%,0%);stroke-opacity:1;stroke-miterlimit:10;" d="M 416.214844 101 C 416.214844 112.714844 406.714844 122.214844 395 122.214844 C 383.285156 122.214844 373.785156 112.714844 373.785156 101 C 373.785156 89.285156 383.285156 79.785156 395 79.785156 C 406.714844 79.785156 416.214844 89.285156 416.214844 101 "/>
<path style="fill-rule:nonzero;fill:rgb(55%,51%,53%);fill-opacity:1;stroke-width:1;stroke-linecap:butt;stroke-linejoin:miter;stroke:rgb(0%,0%,0%);stroke-opacity:1;stroke-miterlimit:10;" d="M 1018.785156 389.785156 L 1018.785156 432.214844 L 1061.214844 432.214844 L 1061.214844 389.785156 L 1018.785156 389.785156 "/>
<path style="fill-rule:nonzero;fill:rgb(55%,51%,53%);fill-opacity:1;stroke-width:1;stroke-linecap:butt;stroke-linejoin:miter;stroke:rgb(0%,0%,0%);stroke-opacity:1;stroke-miterlimit:10;" d="M 786.214844 350 C 786.214844 361.714844 776.714844 371.214844 765 371.214844 C 753.285156 371.214844 743.785156 361.714844 743.785156 350 C 743.785156 338.285156 753.285156 328.785156 765 328.785156 C 776.714844 328.785156 786.214844 338.285156 786.214844 350 "/>
<path style="fill-rule:nonzero;fill:rgb(55%,51%,53%);fill-opacity:1;stroke-width:1;stroke-linecap:butt;stroke-linejoin:miter;stroke:rgb(0%,0%,0%);stroke-opacity:1;stroke-miterlimit:10;" d="M 971.214844 341 C 971.214844 352.714844 961.714844 362.214844 950 362.214844 C 938.285156 362.214844 928.785156 352.714844 928.785156 341 C 928.785156 329.285156 938.285156 319.785156 950 319.785156 C 961.714844 319.785156 971.214844 329.285156 971.214844 341 "/>
<path style="fill-rule:nonzero;fill:rgb(55%,51%,53%);fill-opacity:1;stroke-width:1;stroke-linecap:butt;stroke-linejoin:miter;stroke:rgb(0%,0%,0%);stroke-opacity:1;stroke-miterlimit:10;" d="M 785.785156 224.785156 L 785.785156 267.214844 L 828.214844 267.214844 L 828.214844 224.785156 L 785.785156 224.785156 "/>
<path style="fill-rule:nonzero;fill:rgb(55%,51%,53%);fill-opacity:1;stroke-width:1;stroke-linecap:butt;stroke-linejoin:miter;stroke:rgb(0%,0%,0%);stroke-opacity:1;stroke-miterlimit:10;" d="M 744.785156 137.785156 L 744.785156 180.214844 L 787.214844 180.214844 L 787.214844 137.785156 L 744.785156 137.785156 "/>
<path style="fill-rule:nonzero;fill:rgb(55%,51%,53%);fill-opacity:1;stroke-width:1;stroke-linecap:butt;stroke-linejoin:miter;stroke:rgb(0%,0%,0%);stroke-opacity:1;stroke-miterlimit:10;" d="M 878.785156 140.785156 L 878.785156 183.214844 L 921.214844 183.214844 L 921.214844 140.785156 L 878.785156 140.785156 "/>
</g>
</svg>
