<?xml version="1.0" encoding="UTF-8"?>
<svg xmlns="http://www.w3.org/2000/svg" xmlns:xlink="http://www.w3.org/1999/xlink" width="1129pt" height="517pt" viewBox="0 0 1129 517" version="1.1">
<g id="surface811">
<rect x="0" y="0" width="1129" height="517" style="fill:rgb(90%,90%,90%);fill-opacity:1;stroke:none;"/>
<path style="fill-rule:nonzero;fill:rgb(53%,27%,7%);fill-opacity:1;stroke-width:1;stroke-linecap:butt;stroke-linejoin:miter;stroke:rgb(0%,0%,0%);stroke-opacity:1;stroke-miterlimit:10;" d="M 421 169.601562 C 421 155.199219 397 155.199219 397 169.601562 C 397 184 421 186.398438 421 198.398438 C 421 186.398438 445 184 445 169.601562 C 445 155.199219 421 155.199219 421 169.601562 "/>
<path style="fill-rule:nonzero;fill:rgb(53%,27%,7%);fill-opacity:1;stroke-width:1;stroke-linecap:butt;stroke-linejoin:miter;stroke:rgb(0%,0%,0%);stroke-opacity:1;stroke-miterlimit:10;" d="M 931 405.601562 C 931 391.199219 907 391.199219 907 405.601562 C 907 420 931 422.398438 931 434.398438 C 931 422.398438 955 420 955 405.601562 C 955 391.199219 931 391.199219 931 405.601562 "/>
<path style="fill-rule:nonzero;fill:rgb(53%,27%,7%);fill-opacity:1;stroke-width:1;stroke-linecap:butt;stroke-linejoin:miter;stroke:rgb(0%,0%,0%);stroke-opacity:1;stroke-miterlimit:10;" d="M 951 175.601562 C 951 161.199219 927 161.199219 927 175.601562 C 927 190 951 192.398438 951 204.398438 C 951 192.398438 975 190 975 175.601562 C 975 161.199219 951 161.199219 951 175.601562 "/>
<path style="fill-rule:nonzero;fill:rgb(53%,27%,7%);fill-opacity:1;stroke-width:1;stroke-linecap:butt;stroke-linejoin:miter;stroke:rgb(0%,0%,0%);stroke-opacity:1;stroke-miterlimit:10;" d="M 58 252.601562 C 58 238.199219 34 238.199219 34 252.601562 C 34 267 58 269.398438 58 281.398438 C 58 269.398438 82 267 82 252.601562 C 82 238.199219 58 238.199219 58 252.601562 "/>
<path style="fill-rule:nonzero;fill:rgb(53%,27%,7%);fill-opacity:1;stroke-width:1;stroke-linecap:butt;stroke-linejoin:miter;stroke:rgb(0%,0%,0%);stroke-opacity:1;stroke-miterlimit:10;" d="M 247 293.601562 C 247 279.199219 223 279.199219 223 293.601562 C 223 308 247 310.398438 247 322.398438 C 247 310.398438 271 308 271 293.601562 C 271 279.199219 247 279.199219 247 293.601562 "/>
<path style="fill-rule:nonzero;fill:rgb(100%,51%,0%);fill-opacity:1;stroke-width:1;stroke-linecap:butt;stroke-linejoin:miter;stroke:rgb(0%,0%,0%);stroke-opacity:1;stroke-miterlimit:10;" d="M 868.214844 196 C 868.214844 207.714844 858.714844 217.214844 847 217.214844 C 835.285156 217.214844 825.785156 207.714844 825.785156 196 C 825.785156 184.285156 835.285156 174.785156 847 174.785156 C 858.714844 174.785156 868.214844 184.285156 868.214844 196 "/>
<path style="fill-rule:nonzero;fill:rgb(100%,51%,0%);fill-opacity:1;stroke-width:1;stroke-linecap:butt;stroke-linejoin:miter;stroke:rgb(0%,0%,0%);stroke-opacity:1;stroke-miterlimit:10;" d="M 758.214844 299 C 758.214844 310.714844 748.714844 320.214844 737 320.214844 C 725.285156 320.214844 715.785156 310.714844 715.785156 299 C 715.785156 287.285156 725.285156 277.785156 737 277.785156 C 748.714844 277.785156 758.214844 287.285156 758.214844 299 "/>
<path style="fill-rule:nonzero;fill:rgb(100%,51%,0%);fill-opacity:1;stroke-width:1;stroke-linecap:butt;stroke-linejoin:miter;stroke:rgb(0%,0%,0%);stroke-opacity:1;stroke-miterlimit:10;" d="M 139.214844 193 C 139.214844 204.714844 129.714844 214.214844 118 214.214844 C 106.285156 214.214844 96.785156 204.714844 96.785156 193 C 96.785156 181.285156 106.285156 171.785156 118 171.785156 C 129.714844 171.785156 139.214844 181.285156 139.214844 193 "/>
<path style="fill-rule:nonzero;fill:rgb(100%,51%,0%);fill-opacity:1;stroke-width:1;stroke-linecap:butt;stroke-linejoin:miter;stroke:rgb(0%,0%,0%);stroke-opacity:1;stroke-miterlimit:10;" d="M 291.214844 67 C 291.214844 78.714844 281.714844 88.214844 270 88.214844 C 258.285156 88.214844 248.785156 78.714844 248.785156 67 C 248.785156 55.285156 258.285156 45.785156 270 45.785156 C 281.714844 45.785156 291.214844 55.285156 291.214844 67 "/>
<path style="fill-rule:nonzero;fill:rgb(100%,51%,0%);fill-opacity:1;stroke-width:1;stroke-linecap:butt;stroke-linejoin:miter;stroke:rgb(0%,0%,0%);stroke-opacity:1;stroke-miterlimit:10;" d="M 242.214844 408 C 242.214844 419.714844 232.714844 429.214844 221 429.214844 C 209.285156 429.214844 199.785156 419.714844 199.785156 408 C 199.785156 396.285156 209.285156 386.785156 221 386.785156 C 232.714844 386.785156 242.214844 396.285156 242.214844 408 "/>
<path style="fill-rule:nonzero;fill:rgb(100%,51%,0%);fill-opacity:1;stroke-width:1;stroke-linecap:butt;stroke-linejoin:miter;stroke:rgb(0%,0%,0%);stroke-opacity:1;stroke-miterlimit:10;" d="M 78.214844 418 C 78.214844 429.714844 68.714844 439.214844 57 439.214844 C 45.285156 439.214844 35.785156 429.714844 35.785156 418 C 35.785156 406.285156 45.285156 396.785156 57 396.785156 C 68.714844 396.785156 78.214844 406.285156 78.214844 418 "/>
<path style="fill-rule:nonzero;fill:rgb(100%,51%,0%);fill-opacity:1;stroke-width:1;stroke-linecap:butt;stroke-linejoin:miter;stroke:rgb(0%,0%,0%);stroke-opacity:1;stroke-miterlimit:10;" d="M 576.214844 222 C 576.214844 233.714844 566.714844 243.214844 555 243.214844 C 543.285156 243.214844 533.785156 233.714844 533.785156 222 C 533.785156 210.285156 543.285156 200.785156 555 200.785156 C 566.714844 200.785156 576.214844 210.285156 576.214844 222 "/>
<path style="fill-rule:nonzero;fill:rgb(100%,51%,0%);fill-opacity:1;stroke-width:1;stroke-linecap:butt;stroke-linejoin:miter;stroke:rgb(0%,0%,0%);stroke-opacity:1;stroke-miterlimit:10;" d="M 577.214844 58 C 577.214844 69.714844 567.714844 79.214844 556 79.214844 C 544.285156 79.214844 534.785156 69.714844 534.785156 58 C 534.785156 46.285156 544.285156 36.785156 556 36.785156 C 567.714844 36.785156 577.214844 46.285156 577.214844 58 "/>
</g>
</svg>
