<?xml version="1.0" encoding="UTF-8"?>
<svg xmlns="http://www.w3.org/2000/svg" xmlns:xlink="http://www.w3.org/1999/xlink" width="1129pt" height="517pt" viewBox="0 0 1129 517" version="1.1">
<g id="surface51">
<rect x="0" y="0" width="1129" height="517" style="fill:rgb(90%,90%,90%);fill-opacity:1;stroke:none;"/>
<path style="fill-rule:nonzero;fill:rgb(35%,70%,90%);fill-opacity:1;stroke-width:1;stroke-linecap:butt;stroke-linejoin:miter;stroke:rgb(0%,0%,0%);stroke-opacity:1;stroke-miterlimit:10;" d="M 314.214844 142 C 314.214844 153.714844 304.714844 163.214844 293 163.214844 C 281.285156 163.214844 271.785156 153.714844 271.785156 142 C 271.785156 130.285156 281.285156 120.785156 293 120.785156 C 304.714844 120.785156 314.214844 130.285156 314.214844 142 "/>
<path style="fill-rule:nonzero;fill:rgb(35%,70%,90%);fill-opacity:1;stroke-width:1;stroke-linecap:butt;stroke-linejoin:miter;stroke:rgb(0%,0%,0%);stroke-opacity:1;stroke-miterlimit:10;" d="M 410.214844 268 C 410.214844 279.714844 400.714844 289.214844 389 289.214844 C 377.285156 289.214844 367.785156 279.714844 367.785156 268 C 367.785156 256.285156 377.285156 246.785156 389 246.785156 C 400.714844 246.785156 410.214844 256.285156 410.214844 268 "/>
<path style="fill-rule:nonzero;fill:rgb(53%,27%,7%);fill-opacity:1;stroke-width:1;stroke-linecap:butt;stroke-linejoin:miter;stroke:rgb(0%,0%,0%);stroke-opacity:1;stroke-miterlimit:10;" d="M 129.214844 152 C 129.214844 163.714844 119.714844 173.214844 108 173.214844 C 96.285156 173.214844 86.785156 163.714844 86.785156 152 C 86.785156 140.285156 96.285156 130.785156 108 130.785156 C 119.714844 130.785156 129.214844 140.285156 129.214844 152 "/>
<path style="fill-rule:nonzero;fill:rgb(35%,70%,90%);fill-opacity:1;stroke-width:1;stroke-linecap:butt;stroke-linejoin:miter;stroke:rgb(0%,0%,0%);stroke-opacity:1;stroke-miterlimit:10;" d="M 168.214844 357 C 168.214844 368.714844 158.714844 378.214844 147 378.214844 C 135.285156 378.214844 125.785156 368.714844 125.785156 357 C 125.785156 345.285156 135.285156 335.785156 147 335.785156 C 158.714844 335.785156 168.214844 345.285156 168.214844 357 "/>
<path style="fill-rule:nonzero;fill:rgb(35%,70%,90%);fill-opacity:1;stroke-width:1;stroke-linecap:butt;stroke-linejoin:miter;stroke:rgb(0%,0%,0%);stroke-opacity:1;stroke-miterlimit:10;" d="M 452.214844 399 C 452.214844 410.714844 442.714844 420.214844 431 420.214844 C 419.285156 420.214844 409.785156 410.714844 409.785156 399 C 409.785156 387.285156 419.285156 377.785156 431 377.785156 C 442.714844 377.785156 452.214844 387.285156 452.214844 399 "/>
<path style="fill-rule:nonzero;fill:rgb(35%,70%,90%);fill-opacity:1;stroke-width:1;stroke-linecap:butt;stroke-linejoin:miter;stroke:rgb(0%,0%,0%);stroke-opacity:1;stroke-miterlimit:10;" d="M 407.214844 106 C 407.214844 117.714844 397.714844 127.214844 386 127.214844 C 374.285156 127.214844 364.785156 117.714844 364.785156 106 C 364.785156 94.285156 374.285156 84.785156 386 84.785156 C 397.714844 84.785156 407.214844 94.285156 407.214844 106 "/>
<path style="fill-rule:nonzero;fill:rgb(35%,70%,90%);fill-opacity:1;stroke-width:1;stroke-linecap:butt;stroke-linejoin:miter;stroke:rgb(0%,0%,0%);stroke-opacity:1;stroke-miterlimit:10;" d="M 361.214844 454 C 361.214844 465.714844 351.714844 475.214844 340 475.214844 C 328.285156 475.214844 318.785156 465.714844 318.785156 454 C 318.785156 442.285156 328.285156 432.785156 340 432.785156 C 351.714844 432.785156 361.214844 442.285156 361.214844 454 "/>
<path style="fill-rule:nonzero;fill:rgb(53%,27%,7%);fill-opacity:1;stroke-width:1;stroke-linecap:butt;stroke-linejoin:miter;stroke:rgb(0%,0%,0%);stroke-opacity:1;stroke-miterlimit:10;" d="M 765.785156 163.785156 L 765.785156 206.214844 L 808.214844 206.214844 L 808.214844 163.785156 L 765.785156 163.785156 "/>
<path style="fill-rule:nonzero;fill:rgb(53%,27%,7%);fill-opacity:1;stroke-width:1;stroke-linecap:butt;stroke-linejoin:miter;stroke:rgb(0%,0%,0%);stroke-opacity:1;stroke-miterlimit:10;" d="M 608.785156 225.785156 L 608.785156 268.214844 L 651.214844 268.214844 L 651.214844 225.785156 L 608.785156 225.785156 "/>
<path style="fill-rule:nonzero;fill:rgb(35%,70%,90%);fill-opacity:1;stroke-width:1;stroke-linecap:butt;stroke-linejoin:miter;stroke:rgb(0%,0%,0%);stroke-opacity:1;stroke-miterlimit:10;" d="M 875.785156 107.785156 L 875.785156 150.214844 L 918.214844 150.214844 L 918.214844 107.785156 L 875.785156 107.785156 "/>
<path style="fill-rule:nonzero;fill:rgb(53%,27%,7%);fill-opacity:1;stroke-width:1;stroke-linecap:butt;stroke-linejoin:miter;stroke:rgb(0%,0%,0%);stroke-opacity:1;stroke-miterlimit:10;" d="M 881.785156 243.785156 L 881.785156 286.214844 L 924.214844 286.214844 L 924.214844 243.785156 L 881.785156 243.785156 "/>
<path style="fill-rule:nonzero;fill:rgb(53%,27%,7%);fill-opacity:1;stroke-width:1;stroke-linecap:butt;stroke-linejoin:miter;stroke:rgb(0%,0%,0%);stroke-opacity:1;stroke-miterlimit:10;" d="M 665.785156 61.785156 L 665.785156 104.214844 L 708.214844 104.214844 L 708.214844 61.785156 L 665.785156 61.785156 "/>
<path style="fill-rule:nonzero;fill:rgb(53%,27%,7%);fill-opacity:1;stroke-width:1;stroke-linecap:butt;stroke-linejoin:miter;stroke:rgb(0%,0%,0%);stroke-opacity:1;stroke-miterlimit:10;" d="M 704.785156 275.785156 L 704.785156 318.214844 L 747.214844 318.214844 L 747.214844 275.785156 L 704.785156 275.785156 "/>
<path style="fill-rule:nonzero;fill:rgb(53%,27%,7%);fill-opacity:1;stroke-width:1;stroke-linecap:butt;stroke-linejoin:miter;stroke:rgb(0%,0%,0%);stroke-opacity:1;stroke-miterlimit:10;" d="M 986.785156 180.785156 L 986.785156 223.214844 L 1029.214844 223.214844 L 1029.214844 180.785156 L 986.785156 180.785156 "/>
</g>
</svg>
