<?xml version="1.0" encoding="UTF-8"?>
<svg xmlns="http://www.w3.org/2000/svg" xmlns:xlink="http://www.w3.org/1999/xlink" width="1129pt" height="517pt" viewBox="0 0 1129 517" version="1.1">
<g id="surface591">
<rect x="0" y="0" width="1129" height="517" style="fill:rgb(90%,90%,90%);fill-opacity:1;stroke:none;"/>
<path style="fill-rule:nonzero;fill:rgb(35%,70%,90%);fill-opacity:1;stroke-width:1;stroke-linecap:butt;stroke-linejoin:miter;stroke:rgb(0%,0%,0%);stroke-opacity:1;stroke-miterlimit:10;" d="M 161.214844 177 C 161.214844 188.714844 151.714844 198.214844 140 198.214844 C 128.285156 198.214844 118.785156 188.714844 118.785156 177 C 118.785156 165.285156 128.285156 155.785156 140 155.785156 C 151.714844 155.785156 161.214844 165.285156 161.214844 177 "/>
<path style="fill-rule:nonzero;fill:rgb(35%,70%,90%);fill-opacity:1;stroke-width:1;stroke-linecap:butt;stroke-linejoin:miter;stroke:rgb(0%,0%,0%);stroke-opacity:1;stroke-miterlimit:10;" d="M 363.214844 161 C 363.214844 172.714844 353.714844 182.214844 342 182.214844 C 330.285156 182.214844 320.785156 172.714844 320.785156 161 C 320.785156 149.285156 330.285156 139.785156 342 139.785156 C 353.714844 139.785156 363.214844 149.285156 363.214844 161 "/>
<path style="fill-rule:nonzero;fill:rgb(35%,70%,90%);fill-opacity:1;stroke-width:1;stroke-linecap:butt;stroke-linejoin:miter;stroke:rgb(0%,0%,0%);stroke-opacity:1;stroke-miterlimit:10;" d="M 146.785156 261.785156 L 146.785156 304.214844 L 189.214844 304.214844 L 189.214844 261.785156 L 146.785156 261.785156 "/>
<path style="fill-rule:nonzero;fill:rgb(35%,70%,90%);fill-opacity:1;stroke-width:1;stroke-linecap:butt;stroke-linejoin:miter;stroke:rgb(0%,0%,0%);stroke-opacity:1;stroke-miterlimit:10;" d="M 94.785156 374.785156 L 94.785156 417.214844 L 137.214844 417.214844 L 137.214844 374.785156 L 94.785156 374.785156 "/>
<path style="fill-rule:nonzero;fill:rgb(35%,70%,90%);fill-opacity:1;stroke-width:1;stroke-linecap:butt;stroke-linejoin:miter;stroke:rgb(0%,0%,0%);stroke-opacity:1;stroke-miterlimit:10;" d="M 367.214844 263 C 367.214844 274.714844 357.714844 284.214844 346 284.214844 C 334.285156 284.214844 324.785156 274.714844 324.785156 263 C 324.785156 251.285156 334.285156 241.785156 346 241.785156 C 357.714844 241.785156 367.214844 251.285156 367.214844 263 "/>
<path style="fill-rule:nonzero;fill:rgb(35%,70%,90%);fill-opacity:1;stroke-width:1;stroke-linecap:butt;stroke-linejoin:miter;stroke:rgb(0%,0%,0%);stroke-opacity:1;stroke-miterlimit:10;" d="M 271.214844 426 C 271.214844 437.714844 261.714844 447.214844 250 447.214844 C 238.285156 447.214844 228.785156 437.714844 228.785156 426 C 228.785156 414.285156 238.285156 404.785156 250 404.785156 C 261.714844 404.785156 271.214844 414.285156 271.214844 426 "/>
<path style="fill-rule:nonzero;fill:rgb(35%,70%,90%);fill-opacity:1;stroke-width:1;stroke-linecap:butt;stroke-linejoin:miter;stroke:rgb(0%,0%,0%);stroke-opacity:1;stroke-miterlimit:10;" d="M 108.214844 55 C 108.214844 66.714844 98.714844 76.214844 87 76.214844 C 75.285156 76.214844 65.785156 66.714844 65.785156 55 C 65.785156 43.285156 75.285156 33.785156 87 33.785156 C 98.714844 33.785156 108.214844 43.285156 108.214844 55 "/>
<path style="fill-rule:nonzero;fill:rgb(53%,27%,7%);fill-opacity:1;stroke-width:1;stroke-linecap:butt;stroke-linejoin:miter;stroke:rgb(0%,0%,0%);stroke-opacity:1;stroke-miterlimit:10;" d="M 867.785156 139.785156 L 867.785156 182.214844 L 910.214844 182.214844 L 910.214844 139.785156 L 867.785156 139.785156 "/>
<path style="fill-rule:nonzero;fill:rgb(53%,27%,7%);fill-opacity:1;stroke-width:1;stroke-linecap:butt;stroke-linejoin:miter;stroke:rgb(0%,0%,0%);stroke-opacity:1;stroke-miterlimit:10;" d="M 786.785156 49.785156 L 786.785156 92.214844 L 829.214844 92.214844 L 829.214844 49.785156 L 786.785156 49.785156 "/>
<path style="fill-rule:nonzero;fill:rgb(53%,27%,7%);fill-opacity:1;stroke-width:1;stroke-linecap:butt;stroke-linejoin:miter;stroke:rgb(0%,0%,0%);stroke-opacity:1;stroke-miterlimit:10;" d="M 999.214844 302 C 999.214844 313.714844 989.714844 323.214844 978 323.214844 C 966.285156 323.214844 956.785156 313.714844 956.785156 302 C 956.785156 290.285156 966.285156 280.785156 978 280.785156 C 989.714844 280.785156 999.214844 290.285156 999.214844 302 "/>
<path style="fill-rule:nonzero;fill:rgb(53%,27%,7%);fill-opacity:1;stroke-width:1;stroke-linecap:butt;stroke-linejoin:miter;stroke:rgb(0%,0%,0%);stroke-opacity:1;stroke-miterlimit:10;" d="M 1038.214844 399 C 1038.214844 410.714844 1028.714844 420.214844 1017 420.214844 C 1005.285156 420.214844 995.785156 410.714844 995.785156 399 C 995.785156 387.285156 1005.285156 377.785156 1017 377.785156 C 1028.714844 377.785156 1038.214844 387.285156 1038.214844 399 "/>
<path style="fill-rule:nonzero;fill:rgb(53%,27%,7%);fill-opacity:1;stroke-width:1;stroke-linecap:butt;stroke-linejoin:miter;stroke:rgb(0%,0%,0%);stroke-opacity:1;stroke-miterlimit:10;" d="M 776.785156 276.785156 L 776.785156 319.214844 L 819.214844 319.214844 L 819.214844 276.785156 L 776.785156 276.785156 "/>
<path style="fill-rule:nonzero;fill:rgb(53%,27%,7%);fill-opacity:1;stroke-width:1;stroke-linecap:butt;stroke-linejoin:miter;stroke:rgb(0%,0%,0%);stroke-opacity:1;stroke-miterlimit:10;" d="M 613.785156 428.785156 L 613.785156 471.214844 L 656.214844 471.214844 L 656.214844 428.785156 L 613.785156 428.785156 "/>
<path style="fill-rule:nonzero;fill:rgb(53%,27%,7%);fill-opacity:1;stroke-width:1;stroke-linecap:butt;stroke-linejoin:miter;stroke:rgb(0%,0%,0%);stroke-opacity:1;stroke-miterlimit:10;" d="M 616.785156 113.785156 L 616.785156 156.214844 L 659.214844 156.214844 L 659.214844 113.785156 L 616.785156 113.785156 "/>
</g>
</svg>
