<?xml version="1.0" encoding="UTF-8"?>
<svg xmlns="http://www.w3.org/2000/svg" xmlns:xlink="http://www.w3.org/1999/xlink" width="1129pt" height="517pt" viewBox="0 0 1129 517" version="1.1">
<g id="surface556">
<rect x="0" y="0" width="1129" height="517" style="fill:rgb(90%,90%,90%);fill-opacity:1;stroke:none;"/>
<path style="fill-rule:nonzero;fill:rgb(35%,70%,90%);fill-opacity:1;stroke-width:1;stroke-linecap:butt;stroke-linejoin:miter;stroke:rgb(0%,0%,0%);stroke-opacity:1;stroke-miterlimit:10;" d="M 96.214844 331 C 96.214844 342.714844 86.714844 352.214844 75 352.214844 C 63.285156 352.214844 53.785156 342.714844 53.785156 331 C 53.785156 319.285156 63.285156 309.785156 75 309.785156 C 86.714844 309.785156 96.214844 319.285156 96.214844 331 "/>
<path style="fill-rule:nonzero;fill:rgb(100%,51%,0%);fill-opacity:1;stroke-width:1;stroke-linecap:butt;stroke-linejoin:miter;stroke:rgb(0%,0%,0%);stroke-opacity:1;stroke-miterlimit:10;" d="M 289.214844 54 C 289.214844 65.714844 279.714844 75.214844 268 75.214844 C 256.285156 75.214844 246.785156 65.714844 246.785156 54 C 246.785156 42.285156 256.285156 32.785156 268 32.785156 C 279.714844 32.785156 289.214844 42.285156 289.214844 54 "/>
<path style="fill-rule:nonzero;fill:rgb(100%,51%,0%);fill-opacity:1;stroke-width:1;stroke-linecap:butt;stroke-linejoin:miter;stroke:rgb(0%,0%,0%);stroke-opacity:1;stroke-miterlimit:10;" d="M 473.214844 381 C 473.214844 392.714844 463.714844 402.214844 452 402.214844 C 440.285156 402.214844 430.785156 392.714844 430.785156 381 C 430.785156 369.285156 440.285156 359.785156 452 359.785156 C 463.714844 359.785156 473.214844 369.285156 473.214844 381 "/>
<path style="fill-rule:nonzero;fill:rgb(35%,70%,90%);fill-opacity:1;stroke-width:1;stroke-linecap:butt;stroke-linejoin:miter;stroke:rgb(0%,0%,0%);stroke-opacity:1;stroke-miterlimit:10;" d="M 301.214844 320 C 301.214844 331.714844 291.714844 341.214844 280 341.214844 C 268.285156 341.214844 258.785156 331.714844 258.785156 320 C 258.785156 308.285156 268.285156 298.785156 280 298.785156 C 291.714844 298.785156 301.214844 308.285156 301.214844 320 "/>
<path style="fill-rule:nonzero;fill:rgb(35%,70%,90%);fill-opacity:1;stroke-width:1;stroke-linecap:butt;stroke-linejoin:miter;stroke:rgb(0%,0%,0%);stroke-opacity:1;stroke-miterlimit:10;" d="M 452.214844 204 C 452.214844 215.714844 442.714844 225.214844 431 225.214844 C 419.285156 225.214844 409.785156 215.714844 409.785156 204 C 409.785156 192.285156 419.285156 182.785156 431 182.785156 C 442.714844 182.785156 452.214844 192.285156 452.214844 204 "/>
<path style="fill-rule:nonzero;fill:rgb(35%,70%,90%);fill-opacity:1;stroke-width:1;stroke-linecap:butt;stroke-linejoin:miter;stroke:rgb(0%,0%,0%);stroke-opacity:1;stroke-miterlimit:10;" d="M 277.214844 461 C 277.214844 472.714844 267.714844 482.214844 256 482.214844 C 244.285156 482.214844 234.785156 472.714844 234.785156 461 C 234.785156 449.285156 244.285156 439.785156 256 439.785156 C 267.714844 439.785156 277.214844 449.285156 277.214844 461 "/>
<path style="fill-rule:nonzero;fill:rgb(35%,70%,90%);fill-opacity:1;stroke-width:1;stroke-linecap:butt;stroke-linejoin:miter;stroke:rgb(0%,0%,0%);stroke-opacity:1;stroke-miterlimit:10;" d="M 444.214844 64 C 444.214844 75.714844 434.714844 85.214844 423 85.214844 C 411.285156 85.214844 401.785156 75.714844 401.785156 64 C 401.785156 52.285156 411.285156 42.785156 423 42.785156 C 434.714844 42.785156 444.214844 52.285156 444.214844 64 "/>
<path style="fill-rule:nonzero;fill:rgb(100%,51%,0%);fill-opacity:1;stroke-width:1;stroke-linecap:butt;stroke-linejoin:miter;stroke:rgb(0%,0%,0%);stroke-opacity:1;stroke-miterlimit:10;" d="M 769 107 L 743.019531 152 L 794.980469 152 L 769 107 "/>
<path style="fill-rule:nonzero;fill:rgb(35%,70%,90%);fill-opacity:1;stroke-width:1;stroke-linecap:butt;stroke-linejoin:miter;stroke:rgb(0%,0%,0%);stroke-opacity:1;stroke-miterlimit:10;" d="M 840 303 L 814.019531 348 L 865.980469 348 L 840 303 "/>
<path style="fill-rule:nonzero;fill:rgb(35%,70%,90%);fill-opacity:1;stroke-width:1;stroke-linecap:butt;stroke-linejoin:miter;stroke:rgb(0%,0%,0%);stroke-opacity:1;stroke-miterlimit:10;" d="M 682 431 L 656.019531 476 L 707.980469 476 L 682 431 "/>
<path style="fill-rule:nonzero;fill:rgb(100%,51%,0%);fill-opacity:1;stroke-width:1;stroke-linecap:butt;stroke-linejoin:miter;stroke:rgb(0%,0%,0%);stroke-opacity:1;stroke-miterlimit:10;" d="M 661 330 L 635.019531 375 L 686.980469 375 L 661 330 "/>
<path style="fill-rule:nonzero;fill:rgb(100%,51%,0%);fill-opacity:1;stroke-width:1;stroke-linecap:butt;stroke-linejoin:miter;stroke:rgb(0%,0%,0%);stroke-opacity:1;stroke-miterlimit:10;" d="M 749 290 L 723.019531 335 L 774.980469 335 L 749 290 "/>
</g>
</svg>
