<?xml version="1.0" encoding="UTF-8"?>
<svg xmlns="http://www.w3.org/2000/svg" xmlns:xlink="http://www.w3.org/1999/xlink" width="1129pt" height="517pt" viewBox="0 0 1129 517" version="1.1">
<g id="surface876">
<rect x="0" y="0" width="1129" height="517" style="fill:rgb(90%,90%,90%);fill-opacity:1;stroke:none;"/>
<path style="fill-rule:nonzero;fill:rgb(100%,51%,0%);fill-opacity:1;stroke-width:1;stroke-linecap:butt;stroke-linejoin:miter;stroke:rgb(0%,0%,0%);stroke-opacity:1;stroke-miterlimit:10;" d="M 303.214844 261 C 303.214844 272.714844 293.714844 282.214844 282 282.214844 C 270.285156 282.214844 260.785156 272.714844 260.785156 261 C 260.785156 249.285156 270.285156 239.785156 282 239.785156 C 293.714844 239.785156 303.214844 249.285156 303.214844 261 "/>
<path style="fill-rule:nonzero;fill:rgb(100%,51%,0%);fill-opacity:1;stroke-width:1;stroke-linecap:butt;stroke-linejoin:miter;stroke:rgb(0%,0%,0%);stroke-opacity:1;stroke-miterlimit:10;" d="M 276.214844 434 C 276.214844 445.714844 266.714844 455.214844 255 455.214844 C 243.285156 455.214844 233.785156 445.714844 233.785156 434 C 233.785156 422.285156 243.285156 412.785156 255 412.785156 C 266.714844 412.785156 276.214844 422.285156 276.214844 434 "/>
<path style="fill-rule:nonzero;fill:rgb(100%,51%,0%);fill-opacity:1;stroke-width:1;stroke-linecap:butt;stroke-linejoin:miter;stroke:rgb(0%,0%,0%);stroke-opacity:1;stroke-miterlimit:10;" d="M 879.214844 254 C 879.214844 265.714844 869.714844 275.214844 858 275.214844 C 846.285156 275.214844 836.785156 265.714844 836.785156 254 C 836.785156 242.285156 846.285156 232.785156 858 232.785156 C 869.714844 232.785156 879.214844 242.285156 879.214844 254 "/>
<path style="fill-rule:nonzero;fill:rgb(100%,51%,0%);fill-opacity:1;stroke-width:1;stroke-linecap:butt;stroke-linejoin:miter;stroke:rgb(0%,0%,0%);stroke-opacity:1;stroke-miterlimit:10;" d="M 433.214844 214 C 433.214844 225.714844 423.714844 235.214844 412 235.214844 C 400.285156 235.214844 390.785156 225.714844 390.785156 214 C 390.785156 202.285156 400.285156 192.785156 412 192.785156 C 423.714844 192.785156 433.214844 202.285156 433.214844 214 "/>
<path style="fill-rule:nonzero;fill:rgb(100%,51%,0%);fill-opacity:1;stroke-width:1;stroke-linecap:butt;stroke-linejoin:miter;stroke:rgb(0%,0%,0%);stroke-opacity:1;stroke-miterlimit:10;" d="M 146.214844 422 C 146.214844 433.714844 136.714844 443.214844 125 443.214844 C 113.285156 443.214844 103.785156 433.714844 103.785156 422 C 103.785156 410.285156 113.285156 400.785156 125 400.785156 C 136.714844 400.785156 146.214844 410.285156 146.214844 422 "/>
<path style="fill-rule:nonzero;fill:rgb(35%,70%,90%);fill-opacity:1;stroke-width:1;stroke-linecap:butt;stroke-linejoin:miter;stroke:rgb(0%,0%,0%);stroke-opacity:1;stroke-miterlimit:10;" d="M 817 99 L 846.664062 99 L 858.664062 70.785156 L 870.664062 99 L 900.332031 99 L 876.332031 116.4375 L 884.417969 147.980469 L 858.664062 130.542969 L 832.914062 147.980469 L 845.214844 116.4375 L 817 99 "/>
<path style="fill-rule:nonzero;fill:rgb(35%,70%,90%);fill-opacity:1;stroke-width:1;stroke-linecap:butt;stroke-linejoin:miter;stroke:rgb(0%,0%,0%);stroke-opacity:1;stroke-miterlimit:10;" d="M 966 275 L 995.664062 275 L 1007.664062 246.785156 L 1019.664062 275 L 1049.332031 275 L 1025.332031 292.4375 L 1033.417969 323.980469 L 1007.664062 306.542969 L 981.914062 323.980469 L 994.214844 292.4375 L 966 275 "/>
<path style="fill-rule:nonzero;fill:rgb(35%,70%,90%);fill-opacity:1;stroke-width:1;stroke-linecap:butt;stroke-linejoin:miter;stroke:rgb(0%,0%,0%);stroke-opacity:1;stroke-miterlimit:10;" d="M 194 226 L 223.664062 226 L 235.664062 197.785156 L 247.664062 226 L 277.332031 226 L 253.332031 243.4375 L 261.417969 274.980469 L 235.664062 257.542969 L 209.914062 274.980469 L 222.214844 243.4375 L 194 226 "/>
<path style="fill-rule:nonzero;fill:rgb(35%,70%,90%);fill-opacity:1;stroke-width:1;stroke-linecap:butt;stroke-linejoin:miter;stroke:rgb(0%,0%,0%);stroke-opacity:1;stroke-miterlimit:10;" d="M 927 449 L 956.664062 449 L 968.664062 420.785156 L 980.664062 449 L 1010.332031 449 L 986.332031 466.4375 L 994.417969 497.980469 L 968.664062 480.542969 L 942.914062 497.980469 L 955.214844 466.4375 L 927 449 "/>
<path style="fill-rule:nonzero;fill:rgb(35%,70%,90%);fill-opacity:1;stroke-width:1;stroke-linecap:butt;stroke-linejoin:miter;stroke:rgb(0%,0%,0%);stroke-opacity:1;stroke-miterlimit:10;" d="M 462 440 L 491.664062 440 L 503.664062 411.785156 L 515.664062 440 L 545.332031 440 L 521.332031 457.4375 L 529.417969 488.980469 L 503.664062 471.542969 L 477.914062 488.980469 L 490.214844 457.4375 L 462 440 "/>
<path style="fill-rule:nonzero;fill:rgb(35%,70%,90%);fill-opacity:1;stroke-width:1;stroke-linecap:butt;stroke-linejoin:miter;stroke:rgb(0%,0%,0%);stroke-opacity:1;stroke-miterlimit:10;" d="M 718 217 L 747.664062 217 L 759.664062 188.785156 L 771.664062 217 L 801.332031 217 L 777.332031 234.4375 L 785.417969 265.980469 L 759.664062 248.542969 L 733.914062 265.980469 L 746.214844 234.4375 L 718 217 "/>
<path style="fill-rule:nonzero;fill:rgb(35%,70%,90%);fill-opacity:1;stroke-width:1;stroke-linecap:butt;stroke-linejoin:miter;stroke:rgb(0%,0%,0%);stroke-opacity:1;stroke-miterlimit:10;" d="M 271 129 L 300.664062 129 L 312.664062 100.785156 L 324.664062 129 L 354.332031 129 L 330.332031 146.4375 L 338.417969 177.980469 L 312.664062 160.542969 L 286.914062 177.980469 L 299.214844 146.4375 L 271 129 "/>
<path style="fill-rule:nonzero;fill:rgb(35%,70%,90%);fill-opacity:1;stroke-width:1;stroke-linecap:butt;stroke-linejoin:miter;stroke:rgb(0%,0%,0%);stroke-opacity:1;stroke-miterlimit:10;" d="M 82 177 L 111.664062 177 L 123.664062 148.785156 L 135.664062 177 L 165.332031 177 L 141.332031 194.4375 L 149.417969 225.980469 L 123.664062 208.542969 L 97.914062 225.980469 L 110.214844 194.4375 L 82 177 "/>
</g>
</svg>
