<?xml version="1.0" encoding="UTF-8"?>
<svg xmlns="http://www.w3.org/2000/svg" xmlns:xlink="http://www.w3.org/1999/xlink" width="1179pt" height="517pt" viewBox="0 0 1179 517" version="1.1">
<g id="surface766">
<rect x="0" y="0" width="1179" height="517" style="fill:rgb(90%,90%,90%);fill-opacity:1;stroke:none;"/>
<path style="fill-rule:nonzero;fill:rgb(100%,51%,0%);fill-opacity:1;stroke-width:1;stroke-linecap:butt;stroke-linejoin:miter;stroke:rgb(0%,0%,0%);stroke-opacity:1;stroke-miterlimit:10;" d="M 342.214844 411 C 342.214844 422.714844 332.714844 432.214844 321 432.214844 C 309.285156 432.214844 299.785156 422.714844 299.785156 411 C 299.785156 399.285156 309.285156 389.785156 321 389.785156 C 332.714844 389.785156 342.214844 399.285156 342.214844 411 "/>
<path style="fill-rule:nonzero;fill:rgb(53%,27%,7%);fill-opacity:1;stroke-width:1;stroke-linecap:butt;stroke-linejoin:miter;stroke:rgb(0%,0%,0%);stroke-opacity:1;stroke-miterlimit:10;" d="M 200 240.601562 C 200 226.199219 176 226.199219 176 240.601562 C 176 255 200 257.398438 200 269.398438 C 200 257.398438 224 255 224 240.601562 C 224 226.199219 200 226.199219 200 240.601562 "/>
<path style="fill-rule:nonzero;fill:rgb(53%,27%,7%);fill-opacity:1;stroke-width:1;stroke-linecap:butt;stroke-linejoin:miter;stroke:rgb(0%,0%,0%);stroke-opacity:1;stroke-miterlimit:10;" d="M 386 65.601562 C 386 51.199219 362 51.199219 362 65.601562 C 362 80 386 82.398438 386 94.398438 C 386 82.398438 410 80 410 65.601562 C 410 51.199219 386 51.199219 386 65.601562 "/>
<path style="fill-rule:nonzero;fill:rgb(100%,51%,0%);fill-opacity:1;stroke-width:1;stroke-linecap:butt;stroke-linejoin:miter;stroke:rgb(0%,0%,0%);stroke-opacity:1;stroke-miterlimit:10;" d="M 270.214844 92 C 270.214844 103.714844 260.714844 113.214844 249 113.214844 C 237.285156 113.214844 227.785156 103.714844 227.785156 92 C 227.785156 80.285156 237.285156 70.785156 249 70.785156 C 260.714844 70.785156 270.214844 80.285156 270.214844 92 "/>
<path style="fill-rule:nonzero;fill:rgb(53%,27%,7%);fill-opacity:1;stroke-width:1;stroke-linecap:butt;stroke-linejoin:miter;stroke:rgb(0%,0%,0%);stroke-opacity:1;stroke-miterlimit:10;" d="M 385 321.601562 C 385 307.199219 361 307.199219 361 321.601562 C 361 336 385 338.398438 385 350.398438 C 385 338.398438 409 336 409 321.601562 C 409 307.199219 385 307.199219 385 321.601562 "/>
<path style="fill-rule:nonzero;fill:rgb(100%,51%,0%);fill-opacity:1;stroke-width:1;stroke-linecap:butt;stroke-linejoin:miter;stroke:rgb(0%,0%,0%);stroke-opacity:1;stroke-miterlimit:10;" d="M 790.214844 309 C 790.214844 320.714844 780.714844 330.214844 769 330.214844 C 757.285156 330.214844 747.785156 320.714844 747.785156 309 C 747.785156 297.285156 757.285156 287.785156 769 287.785156 C 780.714844 287.785156 790.214844 297.285156 790.214844 309 "/>
<path style="fill-rule:nonzero;fill:rgb(53%,27%,7%);fill-opacity:1;stroke-width:1;stroke-linecap:butt;stroke-linejoin:miter;stroke:rgb(0%,0%,0%);stroke-opacity:1;stroke-miterlimit:10;" d="M 981 226.601562 C 981 212.199219 957 212.199219 957 226.601562 C 957 241 981 243.398438 981 255.398438 C 981 243.398438 1005 241 1005 226.601562 C 1005 212.199219 981 212.199219 981 226.601562 "/>
<path style="fill-rule:nonzero;fill:rgb(53%,27%,7%);fill-opacity:1;stroke-width:1;stroke-linecap:butt;stroke-linejoin:miter;stroke:rgb(0%,0%,0%);stroke-opacity:1;stroke-miterlimit:10;" d="M 1030 333.601562 C 1030 319.199219 1006 319.199219 1006 333.601562 C 1006 348 1030 350.398438 1030 362.398438 C 1030 350.398438 1054 348 1054 333.601562 C 1054 319.199219 1030 319.199219 1030 333.601562 "/>
<path style="fill-rule:nonzero;fill:rgb(100%,51%,0%);fill-opacity:1;stroke-width:1;stroke-linecap:butt;stroke-linejoin:miter;stroke:rgb(0%,0%,0%);stroke-opacity:1;stroke-miterlimit:10;" d="M 840.214844 181 C 840.214844 192.714844 830.714844 202.214844 819 202.214844 C 807.285156 202.214844 797.785156 192.714844 797.785156 181 C 797.785156 169.285156 807.285156 159.785156 819 159.785156 C 830.714844 159.785156 840.214844 169.285156 840.214844 181 "/>
<path style="fill-rule:nonzero;fill:rgb(53%,27%,7%);fill-opacity:1;stroke-width:1;stroke-linecap:butt;stroke-linejoin:miter;stroke:rgb(0%,0%,0%);stroke-opacity:1;stroke-miterlimit:10;" d="M 915 389.601562 C 915 375.199219 891 375.199219 891 389.601562 C 891 404 915 406.398438 915 418.398438 C 915 406.398438 939 404 939 389.601562 C 939 375.199219 915 375.199219 915 389.601562 "/>
<path style="fill-rule:nonzero;fill:rgb(53%,27%,7%);fill-opacity:1;stroke-width:1;stroke-linecap:butt;stroke-linejoin:miter;stroke:rgb(0%,0%,0%);stroke-opacity:1;stroke-miterlimit:10;" d="M 694 117.601562 C 694 103.199219 670 103.199219 670 117.601562 C 670 132 694 134.398438 694 146.398438 C 694 134.398438 718 132 718 117.601562 C 718 103.199219 694 103.199219 694 117.601562 "/>
<path style="fill-rule:nonzero;fill:rgb(53%,27%,7%);fill-opacity:1;stroke-width:1;stroke-linecap:butt;stroke-linejoin:miter;stroke:rgb(0%,0%,0%);stroke-opacity:1;stroke-miterlimit:10;" d="M 709 403.601562 C 709 389.199219 685 389.199219 685 403.601562 C 685 418 709 420.398438 709 432.398438 C 709 420.398438 733 418 733 403.601562 C 733 389.199219 709 389.199219 709 403.601562 "/>
<path style="fill-rule:nonzero;fill:rgb(53%,27%,7%);fill-opacity:1;stroke-width:1;stroke-linecap:butt;stroke-linejoin:miter;stroke:rgb(0%,0%,0%);stroke-opacity:1;stroke-miterlimit:10;" d="M 841 70.601562 C 841 56.199219 817 56.199219 817 70.601562 C 817 85 841 87.398438 841 99.398438 C 841 87.398438 865 85 865 70.601562 C 865 56.199219 841 56.199219 841 70.601562 "/>
</g>
</svg>
