<?xml version="1.0" encoding="UTF-8"?>
<svg xmlns="http://www.w3.org/2000/svg" xmlns:xlink="http://www.w3.org/1999/xlink" width="1129pt" height="517pt" viewBox="0 0 1129 517" version="1.1">
<g id="surface31">
<rect x="0" y="0" width="1129" height="517" style="fill:rgb(90%,90%,90%);fill-opacity:1;stroke:none;"/>
<path style="fill-rule:nonzero;fill:rgb(35%,70%,90%);fill-opacity:1;stroke-width:1;stroke-linecap:butt;stroke-linejoin:miter;stroke:rgb(0%,0%,0%);stroke-opacity:1;stroke-miterlimit:10;" d="M 435 61 L 464.664062 61 L 476.664062 32.785156 L 488.664062 61 L 518.332031 61 L 494.332031 78.4375 L 502.417969 109.980469 L 476.664062 92.542969 L 450.914062 109.980469 L 463.214844 78.4375 L 435 61 "/>
<path style="fill-rule:nonzero;fill:rgb(35%,70%,90%);fill-opacity:1;stroke-width:1;stroke-linecap:butt;stroke-linejoin:miter;stroke:rgb(0%,0%,0%);stroke-opacity:1;stroke-miterlimit:10;" d="M 666 289 L 695.664062 289 L 707.664062 260.785156 L 719.664062 289 L 749.332031 289 L 725.332031 306.4375 L 733.417969 337.980469 L 707.664062 320.542969 L 681.914062 337.980469 L 694.214844 306.4375 L 666 289 "/>
<path style="fill-rule:nonzero;fill:rgb(35%,70%,90%);fill-opacity:1;stroke-width:1;stroke-linecap:butt;stroke-linejoin:miter;stroke:rgb(0%,0%,0%);stroke-opacity:1;stroke-miterlimit:10;" d="M 395 230 L 424.664062 230 L 436.664062 201.785156 L 448.664062 230 L 478.332031 230 L 454.332031 247.4375 L 462.417969 278.980469 L 436.664062 261.542969 L 410.914062 278.980469 L 423.214844 247.4375 L 395 230 "/>
<path style="fill-rule:nonzero;fill:rgb(35%,70%,90%);fill-opacity:1;stroke-width:1;stroke-linecap:butt;stroke-linejoin:miter;stroke:rgb(0%,0%,0%);stroke-opacity:1;stroke-miterlimit:10;" d="M 63 447 L 92.664062 447 L 104.664062 418.785156 L 116.664062 447 L 146.332031 447 L 122.332031 464.4375 L 130.417969 495.980469 L 104.664062 478.542969 L 78.914062 495.980469 L 91.214844 464.4375 L 63 447 "/>
<path style="fill-rule:nonzero;fill:rgb(53%,27%,7%);fill-opacity:1;stroke-width:1;stroke-linecap:butt;stroke-linejoin:miter;stroke:rgb(0%,0%,0%);stroke-opacity:1;stroke-miterlimit:10;" d="M 899.214844 58 C 899.214844 69.714844 889.714844 79.214844 878 79.214844 C 866.285156 79.214844 856.785156 69.714844 856.785156 58 C 856.785156 46.285156 866.285156 36.785156 878 36.785156 C 889.714844 36.785156 899.214844 46.285156 899.214844 58 "/>
<path style="fill-rule:nonzero;fill:rgb(53%,27%,7%);fill-opacity:1;stroke-width:1;stroke-linecap:butt;stroke-linejoin:miter;stroke:rgb(0%,0%,0%);stroke-opacity:1;stroke-miterlimit:10;" d="M 317.214844 202 C 317.214844 213.714844 307.714844 223.214844 296 223.214844 C 284.285156 223.214844 274.785156 213.714844 274.785156 202 C 274.785156 190.285156 284.285156 180.785156 296 180.785156 C 307.714844 180.785156 317.214844 190.285156 317.214844 202 "/>
<path style="fill-rule:nonzero;fill:rgb(53%,27%,7%);fill-opacity:1;stroke-width:1;stroke-linecap:butt;stroke-linejoin:miter;stroke:rgb(0%,0%,0%);stroke-opacity:1;stroke-miterlimit:10;" d="M 289.214844 440 C 289.214844 451.714844 279.714844 461.214844 268 461.214844 C 256.285156 461.214844 246.785156 451.714844 246.785156 440 C 246.785156 428.285156 256.285156 418.785156 268 418.785156 C 279.714844 418.785156 289.214844 428.285156 289.214844 440 "/>
<path style="fill-rule:nonzero;fill:rgb(53%,27%,7%);fill-opacity:1;stroke-width:1;stroke-linecap:butt;stroke-linejoin:miter;stroke:rgb(0%,0%,0%);stroke-opacity:1;stroke-miterlimit:10;" d="M 755.214844 363 C 755.214844 374.714844 745.714844 384.214844 734 384.214844 C 722.285156 384.214844 712.785156 374.714844 712.785156 363 C 712.785156 351.285156 722.285156 341.785156 734 341.785156 C 745.714844 341.785156 755.214844 351.285156 755.214844 363 "/>
<path style="fill-rule:nonzero;fill:rgb(53%,27%,7%);fill-opacity:1;stroke-width:1;stroke-linecap:butt;stroke-linejoin:miter;stroke:rgb(0%,0%,0%);stroke-opacity:1;stroke-miterlimit:10;" d="M 580.214844 345 C 580.214844 356.714844 570.714844 366.214844 559 366.214844 C 547.285156 366.214844 537.785156 356.714844 537.785156 345 C 537.785156 333.285156 547.285156 323.785156 559 323.785156 C 570.714844 323.785156 580.214844 333.285156 580.214844 345 "/>
</g>
</svg>
