<?xml version="1.0" encoding="UTF-8"?>
<svg xmlns="http://www.w3.org/2000/svg" xmlns:xlink="http://www.w3.org/1999/xlink" width="1179pt" height="517pt" viewBox="0 0 1179 517" version="1.1">
<g id="surface806">
<rect x="0" y="0" width="1179" height="517" style="fill:rgb(90%,90%,90%);fill-opacity:1;stroke:none;"/>
<path style="fill-rule:nonzero;fill:rgb(53%,27%,7%);fill-opacity:1;stroke-width:1;stroke-linecap:butt;stroke-linejoin:miter;stroke:rgb(0%,0%,0%);stroke-opacity:1;stroke-miterlimit:10;" d="M 414 258.601562 C 414 244.199219 390 244.199219 390 258.601562 C 390 273 414 275.398438 414 287.398438 C 414 275.398438 438 273 438 258.601562 C 438 244.199219 414 244.199219 414 258.601562 "/>
<path style="fill-rule:nonzero;fill:rgb(53%,27%,7%);fill-opacity:1;stroke-width:1;stroke-linecap:butt;stroke-linejoin:miter;stroke:rgb(0%,0%,0%);stroke-opacity:1;stroke-miterlimit:10;" d="M 323 154.601562 C 323 140.199219 299 140.199219 299 154.601562 C 299 169 323 171.398438 323 183.398438 C 323 171.398438 347 169 347 154.601562 C 347 140.199219 323 140.199219 323 154.601562 "/>
<path style="fill-rule:nonzero;fill:rgb(53%,27%,7%);fill-opacity:1;stroke-width:1;stroke-linecap:butt;stroke-linejoin:miter;stroke:rgb(0%,0%,0%);stroke-opacity:1;stroke-miterlimit:10;" d="M 444.214844 180 C 444.214844 191.714844 434.714844 201.214844 423 201.214844 C 411.285156 201.214844 401.785156 191.714844 401.785156 180 C 401.785156 168.285156 411.285156 158.785156 423 158.785156 C 434.714844 158.785156 444.214844 168.285156 444.214844 180 "/>
<path style="fill-rule:nonzero;fill:rgb(53%,27%,7%);fill-opacity:1;stroke-width:1;stroke-linecap:butt;stroke-linejoin:miter;stroke:rgb(0%,0%,0%);stroke-opacity:1;stroke-miterlimit:10;" d="M 185.214844 333 C 185.214844 344.714844 175.714844 354.214844 164 354.214844 C 152.285156 354.214844 142.785156 344.714844 142.785156 333 C 142.785156 321.285156 152.285156 311.785156 164 311.785156 C 175.714844 311.785156 185.214844 321.285156 185.214844 333 "/>
<path style="fill-rule:nonzero;fill:rgb(53%,27%,7%);fill-opacity:1;stroke-width:1;stroke-linecap:butt;stroke-linejoin:miter;stroke:rgb(0%,0%,0%);stroke-opacity:1;stroke-miterlimit:10;" d="M 273 253.601562 C 273 239.199219 249 239.199219 249 253.601562 C 249 268 273 270.398438 273 282.398438 C 273 270.398438 297 268 297 253.601562 C 297 239.199219 273 239.199219 273 253.601562 "/>
<path style="fill-rule:nonzero;fill:rgb(53%,27%,7%);fill-opacity:1;stroke-width:1;stroke-linecap:butt;stroke-linejoin:miter;stroke:rgb(0%,0%,0%);stroke-opacity:1;stroke-miterlimit:10;" d="M 95 111.601562 C 95 97.199219 71 97.199219 71 111.601562 C 71 126 95 128.398438 95 140.398438 C 95 128.398438 119 126 119 111.601562 C 119 97.199219 95 97.199219 95 111.601562 "/>
<path style="fill-rule:nonzero;fill:rgb(53%,27%,7%);fill-opacity:1;stroke-width:1;stroke-linecap:butt;stroke-linejoin:miter;stroke:rgb(0%,0%,0%);stroke-opacity:1;stroke-miterlimit:10;" d="M 206 189.601562 C 206 175.199219 182 175.199219 182 189.601562 C 182 204 206 206.398438 206 218.398438 C 206 206.398438 230 204 230 189.601562 C 230 175.199219 206 175.199219 206 189.601562 "/>
<path style="fill-rule:nonzero;fill:rgb(53%,27%,7%);fill-opacity:1;stroke-width:1;stroke-linecap:butt;stroke-linejoin:miter;stroke:rgb(0%,0%,0%);stroke-opacity:1;stroke-miterlimit:10;" d="M 320 411.601562 C 320 397.199219 296 397.199219 296 411.601562 C 296 426 320 428.398438 320 440.398438 C 320 428.398438 344 426 344 411.601562 C 344 397.199219 320 397.199219 320 411.601562 "/>
<path style="fill-rule:nonzero;fill:rgb(100%,51%,0%);fill-opacity:1;stroke-width:1;stroke-linecap:butt;stroke-linejoin:miter;stroke:rgb(0%,0%,0%);stroke-opacity:1;stroke-miterlimit:10;" d="M 723.214844 274 C 723.214844 285.714844 713.714844 295.214844 702 295.214844 C 690.285156 295.214844 680.785156 285.714844 680.785156 274 C 680.785156 262.285156 690.285156 252.785156 702 252.785156 C 713.714844 252.785156 723.214844 262.285156 723.214844 274 "/>
<path style="fill-rule:nonzero;fill:rgb(100%,51%,0%);fill-opacity:1;stroke-width:1;stroke-linecap:butt;stroke-linejoin:miter;stroke:rgb(0%,0%,0%);stroke-opacity:1;stroke-miterlimit:10;" d="M 911.214844 181 C 911.214844 192.714844 901.714844 202.214844 890 202.214844 C 878.285156 202.214844 868.785156 192.714844 868.785156 181 C 868.785156 169.285156 878.285156 159.785156 890 159.785156 C 901.714844 159.785156 911.214844 169.285156 911.214844 181 "/>
<path style="fill-rule:nonzero;fill:rgb(100%,51%,0%);fill-opacity:1;stroke-width:1;stroke-linecap:butt;stroke-linejoin:miter;stroke:rgb(0%,0%,0%);stroke-opacity:1;stroke-miterlimit:10;" d="M 946 350.601562 C 946 336.199219 922 336.199219 922 350.601562 C 922 365 946 367.398438 946 379.398438 C 946 367.398438 970 365 970 350.601562 C 970 336.199219 946 336.199219 946 350.601562 "/>
<path style="fill-rule:nonzero;fill:rgb(100%,51%,0%);fill-opacity:1;stroke-width:1;stroke-linecap:butt;stroke-linejoin:miter;stroke:rgb(0%,0%,0%);stroke-opacity:1;stroke-miterlimit:10;" d="M 796 234.601562 C 796 220.199219 772 220.199219 772 234.601562 C 772 249 796 251.398438 796 263.398438 C 796 251.398438 820 249 820 234.601562 C 820 220.199219 796 220.199219 796 234.601562 "/>
<path style="fill-rule:nonzero;fill:rgb(100%,51%,0%);fill-opacity:1;stroke-width:1;stroke-linecap:butt;stroke-linejoin:miter;stroke:rgb(0%,0%,0%);stroke-opacity:1;stroke-miterlimit:10;" d="M 715.214844 152 C 715.214844 163.714844 705.714844 173.214844 694 173.214844 C 682.285156 173.214844 672.785156 163.714844 672.785156 152 C 672.785156 140.285156 682.285156 130.785156 694 130.785156 C 705.714844 130.785156 715.214844 140.285156 715.214844 152 "/>
<path style="fill-rule:nonzero;fill:rgb(100%,51%,0%);fill-opacity:1;stroke-width:1;stroke-linecap:butt;stroke-linejoin:miter;stroke:rgb(0%,0%,0%);stroke-opacity:1;stroke-miterlimit:10;" d="M 820.214844 351 C 820.214844 362.714844 810.714844 372.214844 799 372.214844 C 787.285156 372.214844 777.785156 362.714844 777.785156 351 C 777.785156 339.285156 787.285156 329.785156 799 329.785156 C 810.714844 329.785156 820.214844 339.285156 820.214844 351 "/>
<path style="fill-rule:nonzero;fill:rgb(100%,51%,0%);fill-opacity:1;stroke-width:1;stroke-linecap:butt;stroke-linejoin:miter;stroke:rgb(0%,0%,0%);stroke-opacity:1;stroke-miterlimit:10;" d="M 822.214844 97 C 822.214844 108.714844 812.714844 118.214844 801 118.214844 C 789.285156 118.214844 779.785156 108.714844 779.785156 97 C 779.785156 85.285156 789.285156 75.785156 801 75.785156 C 812.714844 75.785156 822.214844 85.285156 822.214844 97 "/>
<path style="fill-rule:nonzero;fill:rgb(100%,51%,0%);fill-opacity:1;stroke-width:1;stroke-linecap:butt;stroke-linejoin:miter;stroke:rgb(0%,0%,0%);stroke-opacity:1;stroke-miterlimit:10;" d="M 1026.214844 217 C 1026.214844 228.714844 1016.714844 238.214844 1005 238.214844 C 993.285156 238.214844 983.785156 228.714844 983.785156 217 C 983.785156 205.285156 993.285156 195.785156 1005 195.785156 C 1016.714844 195.785156 1026.214844 205.285156 1026.214844 217 "/>
</g>
</svg>
