<?xml version="1.0" encoding="UTF-8"?>
<svg xmlns="http://www.w3.org/2000/svg" xmlns:xlink="http://www.w3.org/1999/xlink" width="1129pt" height="517pt" viewBox="0 0 1129 517" version="1.1">
<g id="surface816">
<rect x="0" y="0" width="1129" height="517" style="fill:rgb(90%,90%,90%);fill-opacity:1;stroke:none;"/>
<path style="fill-rule:nonzero;fill:rgb(55%,51%,53%);fill-opacity:1;stroke-width:1;stroke-linecap:butt;stroke-linejoin:miter;stroke:rgb(0%,0%,0%);stroke-opacity:1;stroke-miterlimit:10;" d="M 447 224 L 421.019531 269 L 472.980469 269 L 447 224 "/>
<path style="fill-rule:nonzero;fill:rgb(55%,51%,53%);fill-opacity:1;stroke-width:1;stroke-linecap:butt;stroke-linejoin:miter;stroke:rgb(0%,0%,0%);stroke-opacity:1;stroke-miterlimit:10;" d="M 70 333 L 44.019531 378 L 95.980469 378 L 70 333 "/>
<path style="fill-rule:nonzero;fill:rgb(55%,51%,53%);fill-opacity:1;stroke-width:1;stroke-linecap:butt;stroke-linejoin:miter;stroke:rgb(0%,0%,0%);stroke-opacity:1;stroke-miterlimit:10;" d="M 701 158 L 675.019531 203 L 726.980469 203 L 701 158 "/>
<path style="fill-rule:nonzero;fill:rgb(55%,51%,53%);fill-opacity:1;stroke-width:1;stroke-linecap:butt;stroke-linejoin:miter;stroke:rgb(0%,0%,0%);stroke-opacity:1;stroke-miterlimit:10;" d="M 931 155 L 905.019531 200 L 956.980469 200 L 931 155 "/>
<path style="fill-rule:nonzero;fill:rgb(55%,51%,53%);fill-opacity:1;stroke-width:1;stroke-linecap:butt;stroke-linejoin:miter;stroke:rgb(0%,0%,0%);stroke-opacity:1;stroke-miterlimit:10;" d="M 880 344 L 854.019531 389 L 905.980469 389 L 880 344 "/>
<path style="fill-rule:nonzero;fill:rgb(55%,51%,53%);fill-opacity:1;stroke-width:1;stroke-linecap:butt;stroke-linejoin:miter;stroke:rgb(0%,0%,0%);stroke-opacity:1;stroke-miterlimit:10;" d="M 815 234 L 789.019531 279 L 840.980469 279 L 815 234 "/>
<path style="fill-rule:nonzero;fill:rgb(55%,51%,53%);fill-opacity:1;stroke-width:1;stroke-linecap:butt;stroke-linejoin:miter;stroke:rgb(0%,0%,0%);stroke-opacity:1;stroke-miterlimit:10;" d="M 73 227 L 47.019531 272 L 98.980469 272 L 73 227 "/>
<path style="fill-rule:nonzero;fill:rgb(55%,51%,53%);fill-opacity:1;stroke-width:1;stroke-linecap:butt;stroke-linejoin:miter;stroke:rgb(0%,0%,0%);stroke-opacity:1;stroke-miterlimit:10;" d="M 332 295 L 306.019531 340 L 357.980469 340 L 332 295 "/>
<path style="fill-rule:nonzero;fill:rgb(55%,51%,53%);fill-opacity:1;stroke-width:1;stroke-linecap:butt;stroke-linejoin:miter;stroke:rgb(0%,0%,0%);stroke-opacity:1;stroke-miterlimit:10;" d="M 162 333 L 191.664062 333 L 203.664062 304.785156 L 215.664062 333 L 245.332031 333 L 221.332031 350.4375 L 229.417969 381.980469 L 203.664062 364.542969 L 177.914062 381.980469 L 190.214844 350.4375 L 162 333 "/>
<path style="fill-rule:nonzero;fill:rgb(55%,51%,53%);fill-opacity:1;stroke-width:1;stroke-linecap:butt;stroke-linejoin:miter;stroke:rgb(0%,0%,0%);stroke-opacity:1;stroke-miterlimit:10;" d="M 926 73 L 955.664062 73 L 967.664062 44.785156 L 979.664062 73 L 1009.332031 73 L 985.332031 90.4375 L 993.417969 121.980469 L 967.664062 104.542969 L 941.914062 121.980469 L 954.214844 90.4375 L 926 73 "/>
<path style="fill-rule:nonzero;fill:rgb(55%,51%,53%);fill-opacity:1;stroke-width:1;stroke-linecap:butt;stroke-linejoin:miter;stroke:rgb(0%,0%,0%);stroke-opacity:1;stroke-miterlimit:10;" d="M 517 189 L 546.664062 189 L 558.664062 160.785156 L 570.664062 189 L 600.332031 189 L 576.332031 206.4375 L 584.417969 237.980469 L 558.664062 220.542969 L 532.914062 237.980469 L 545.214844 206.4375 L 517 189 "/>
<path style="fill-rule:nonzero;fill:rgb(55%,51%,53%);fill-opacity:1;stroke-width:1;stroke-linecap:butt;stroke-linejoin:miter;stroke:rgb(0%,0%,0%);stroke-opacity:1;stroke-miterlimit:10;" d="M 676 298 L 705.664062 298 L 717.664062 269.785156 L 729.664062 298 L 759.332031 298 L 735.332031 315.4375 L 743.417969 346.980469 L 717.664062 329.542969 L 691.914062 346.980469 L 704.214844 315.4375 L 676 298 "/>
<path style="fill-rule:nonzero;fill:rgb(55%,51%,53%);fill-opacity:1;stroke-width:1;stroke-linecap:butt;stroke-linejoin:miter;stroke:rgb(0%,0%,0%);stroke-opacity:1;stroke-miterlimit:10;" d="M 265 88 L 294.664062 88 L 306.664062 59.785156 L 318.664062 88 L 348.332031 88 L 324.332031 105.4375 L 332.417969 136.980469 L 306.664062 119.542969 L 280.914062 136.980469 L 293.214844 105.4375 L 265 88 "/>
<path style="fill-rule:nonzero;fill:rgb(55%,51%,53%);fill-opacity:1;stroke-width:1;stroke-linecap:butt;stroke-linejoin:miter;stroke:rgb(0%,0%,0%);stroke-opacity:1;stroke-miterlimit:10;" d="M 179 189 L 208.664062 189 L 220.664062 160.785156 L 232.664062 189 L 262.332031 189 L 238.332031 206.4375 L 246.417969 237.980469 L 220.664062 220.542969 L 194.914062 237.980469 L 207.214844 206.4375 L 179 189 "/>
<path style="fill-rule:nonzero;fill:rgb(55%,51%,53%);fill-opacity:1;stroke-width:1;stroke-linecap:butt;stroke-linejoin:miter;stroke:rgb(0%,0%,0%);stroke-opacity:1;stroke-miterlimit:10;" d="M 585 302 L 614.664062 302 L 626.664062 273.785156 L 638.664062 302 L 668.332031 302 L 644.332031 319.4375 L 652.417969 350.980469 L 626.664062 333.542969 L 600.914062 350.980469 L 613.214844 319.4375 L 585 302 "/>
</g>
</svg>
