<?xml version="1.0" encoding="UTF-8"?>
<svg xmlns="http://www.w3.org/2000/svg" xmlns:xlink="http://www.w3.org/1999/xlink" width="1129pt" height="517pt" viewBox="0 0 1129 517" version="1.1">
<g id="surface806">
<rect x="0" y="0" width="1129" height="517" style="fill:rgb(90%,90%,90%);fill-opacity:1;stroke:none;"/>
<path style="fill-rule:nonzero;fill:rgb(53%,27%,7%);fill-opacity:1;stroke-width:1;stroke-linecap:butt;stroke-linejoin:miter;stroke:rgb(0%,0%,0%);stroke-opacity:1;stroke-miterlimit:10;" d="M 274 230.601562 C 274 216.199219 250 216.199219 250 230.601562 C 250 245 274 247.398438 274 259.398438 C 274 247.398438 298 245 298 230.601562 C 298 216.199219 274 216.199219 274 230.601562 "/>
<path style="fill-rule:nonzero;fill:rgb(53%,27%,7%);fill-opacity:1;stroke-width:1;stroke-linecap:butt;stroke-linejoin:miter;stroke:rgb(0%,0%,0%);stroke-opacity:1;stroke-miterlimit:10;" d="M 161.214844 384 C 161.214844 395.714844 151.714844 405.214844 140 405.214844 C 128.285156 405.214844 118.785156 395.714844 118.785156 384 C 118.785156 372.285156 128.285156 362.785156 140 362.785156 C 151.714844 362.785156 161.214844 372.285156 161.214844 384 "/>
<path style="fill-rule:nonzero;fill:rgb(53%,27%,7%);fill-opacity:1;stroke-width:1;stroke-linecap:butt;stroke-linejoin:miter;stroke:rgb(0%,0%,0%);stroke-opacity:1;stroke-miterlimit:10;" d="M 374 45.601562 C 374 31.199219 350 31.199219 350 45.601562 C 350 60 374 62.398438 374 74.398438 C 374 62.398438 398 60 398 45.601562 C 398 31.199219 374 31.199219 374 45.601562 "/>
<path style="fill-rule:nonzero;fill:rgb(53%,27%,7%);fill-opacity:1;stroke-width:1;stroke-linecap:butt;stroke-linejoin:miter;stroke:rgb(0%,0%,0%);stroke-opacity:1;stroke-miterlimit:10;" d="M 429 308.601562 C 429 294.199219 405 294.199219 405 308.601562 C 405 323 429 325.398438 429 337.398438 C 429 325.398438 453 323 453 308.601562 C 453 294.199219 429 294.199219 429 308.601562 "/>
<path style="fill-rule:nonzero;fill:rgb(53%,27%,7%);fill-opacity:1;stroke-width:1;stroke-linecap:butt;stroke-linejoin:miter;stroke:rgb(0%,0%,0%);stroke-opacity:1;stroke-miterlimit:10;" d="M 176 80.601562 C 176 66.199219 152 66.199219 152 80.601562 C 152 95 176 97.398438 176 109.398438 C 176 97.398438 200 95 200 80.601562 C 200 66.199219 176 66.199219 176 80.601562 "/>
<path style="fill-rule:nonzero;fill:rgb(53%,27%,7%);fill-opacity:1;stroke-width:1;stroke-linecap:butt;stroke-linejoin:miter;stroke:rgb(0%,0%,0%);stroke-opacity:1;stroke-miterlimit:10;" d="M 420 135.601562 C 420 121.199219 396 121.199219 396 135.601562 C 396 150 420 152.398438 420 164.398438 C 420 152.398438 444 150 444 135.601562 C 444 121.199219 420 121.199219 420 135.601562 "/>
<path style="fill-rule:nonzero;fill:rgb(53%,27%,7%);fill-opacity:1;stroke-width:1;stroke-linecap:butt;stroke-linejoin:miter;stroke:rgb(0%,0%,0%);stroke-opacity:1;stroke-miterlimit:10;" d="M 445 426.601562 C 445 412.199219 421 412.199219 421 426.601562 C 421 441 445 443.398438 445 455.398438 C 445 443.398438 469 441 469 426.601562 C 469 412.199219 445 412.199219 445 426.601562 "/>
<path style="fill-rule:nonzero;fill:rgb(53%,27%,7%);fill-opacity:1;stroke-width:1;stroke-linecap:butt;stroke-linejoin:miter;stroke:rgb(0%,0%,0%);stroke-opacity:1;stroke-miterlimit:10;" d="M 93 170.601562 C 93 156.199219 69 156.199219 69 170.601562 C 69 185 93 187.398438 93 199.398438 C 93 187.398438 117 185 117 170.601562 C 117 156.199219 93 156.199219 93 170.601562 "/>
<path style="fill-rule:nonzero;fill:rgb(100%,51%,0%);fill-opacity:1;stroke-width:1;stroke-linecap:butt;stroke-linejoin:miter;stroke:rgb(0%,0%,0%);stroke-opacity:1;stroke-miterlimit:10;" d="M 698.214844 89 C 698.214844 100.714844 688.714844 110.214844 677 110.214844 C 665.285156 110.214844 655.785156 100.714844 655.785156 89 C 655.785156 77.285156 665.285156 67.785156 677 67.785156 C 688.714844 67.785156 698.214844 77.285156 698.214844 89 "/>
<path style="fill-rule:nonzero;fill:rgb(100%,51%,0%);fill-opacity:1;stroke-width:1;stroke-linecap:butt;stroke-linejoin:miter;stroke:rgb(0%,0%,0%);stroke-opacity:1;stroke-miterlimit:10;" d="M 866 283.601562 C 866 269.199219 842 269.199219 842 283.601562 C 842 298 866 300.398438 866 312.398438 C 866 300.398438 890 298 890 283.601562 C 890 269.199219 866 269.199219 866 283.601562 "/>
<path style="fill-rule:nonzero;fill:rgb(100%,51%,0%);fill-opacity:1;stroke-width:1;stroke-linecap:butt;stroke-linejoin:miter;stroke:rgb(0%,0%,0%);stroke-opacity:1;stroke-miterlimit:10;" d="M 975.214844 135 C 975.214844 146.714844 965.714844 156.214844 954 156.214844 C 942.285156 156.214844 932.785156 146.714844 932.785156 135 C 932.785156 123.285156 942.285156 113.785156 954 113.785156 C 965.714844 113.785156 975.214844 123.285156 975.214844 135 "/>
<path style="fill-rule:nonzero;fill:rgb(100%,51%,0%);fill-opacity:1;stroke-width:1;stroke-linecap:butt;stroke-linejoin:miter;stroke:rgb(0%,0%,0%);stroke-opacity:1;stroke-miterlimit:10;" d="M 700.214844 456 C 700.214844 467.714844 690.714844 477.214844 679 477.214844 C 667.285156 477.214844 657.785156 467.714844 657.785156 456 C 657.785156 444.285156 667.285156 434.785156 679 434.785156 C 690.714844 434.785156 700.214844 444.285156 700.214844 456 "/>
<path style="fill-rule:nonzero;fill:rgb(100%,51%,0%);fill-opacity:1;stroke-width:1;stroke-linecap:butt;stroke-linejoin:miter;stroke:rgb(0%,0%,0%);stroke-opacity:1;stroke-miterlimit:10;" d="M 803.214844 394 C 803.214844 405.714844 793.714844 415.214844 782 415.214844 C 770.285156 415.214844 760.785156 405.714844 760.785156 394 C 760.785156 382.285156 770.285156 372.785156 782 372.785156 C 793.714844 372.785156 803.214844 382.285156 803.214844 394 "/>
<path style="fill-rule:nonzero;fill:rgb(100%,51%,0%);fill-opacity:1;stroke-width:1;stroke-linecap:butt;stroke-linejoin:miter;stroke:rgb(0%,0%,0%);stroke-opacity:1;stroke-miterlimit:10;" d="M 754.214844 314 C 754.214844 325.714844 744.714844 335.214844 733 335.214844 C 721.285156 335.214844 711.785156 325.714844 711.785156 314 C 711.785156 302.285156 721.285156 292.785156 733 292.785156 C 744.714844 292.785156 754.214844 302.285156 754.214844 314 "/>
<path style="fill-rule:nonzero;fill:rgb(100%,51%,0%);fill-opacity:1;stroke-width:1;stroke-linecap:butt;stroke-linejoin:miter;stroke:rgb(0%,0%,0%);stroke-opacity:1;stroke-miterlimit:10;" d="M 1025.214844 287 C 1025.214844 298.714844 1015.714844 308.214844 1004 308.214844 C 992.285156 308.214844 982.785156 298.714844 982.785156 287 C 982.785156 275.285156 992.285156 265.785156 1004 265.785156 C 1015.714844 265.785156 1025.214844 275.285156 1025.214844 287 "/>
<path style="fill-rule:nonzero;fill:rgb(100%,51%,0%);fill-opacity:1;stroke-width:1;stroke-linecap:butt;stroke-linejoin:miter;stroke:rgb(0%,0%,0%);stroke-opacity:1;stroke-miterlimit:10;" d="M 805.214844 132 C 805.214844 143.714844 795.714844 153.214844 784 153.214844 C 772.285156 153.214844 762.785156 143.714844 762.785156 132 C 762.785156 120.285156 772.285156 110.785156 784 110.785156 C 795.714844 110.785156 805.214844 120.285156 805.214844 132 "/>
</g>
</svg>
