<?xml version="1.0" encoding="UTF-8"?>
<svg xmlns="http://www.w3.org/2000/svg" xmlns:xlink="http://www.w3.org/1999/xlink" width="1179pt" height="517pt" viewBox="0 0 1179 517" version="1.1">
<g id="surface666">
<rect x="0" y="0" width="1179" height="517" style="fill:rgb(90%,90%,90%);fill-opacity:1;stroke:none;"/>
<path style="fill-rule:nonzero;fill:rgb(100%,51%,0%);fill-opacity:1;stroke-width:1;stroke-linecap:butt;stroke-linejoin:miter;stroke:rgb(0%,0%,0%);stroke-opacity:1;stroke-miterlimit:10;" d="M 165 159 L 194.664062 159 L 206.664062 130.785156 L 218.664062 159 L 248.332031 159 L 224.332031 176.4375 L 232.417969 207.980469 L 206.664062 190.542969 L 180.914062 207.980469 L 193.214844 176.4375 L 165 159 "/>
<path style="fill-rule:nonzero;fill:rgb(100%,51%,0%);fill-opacity:1;stroke-width:1;stroke-linecap:butt;stroke-linejoin:miter;stroke:rgb(0%,0%,0%);stroke-opacity:1;stroke-miterlimit:10;" d="M 424 212 L 453.664062 212 L 465.664062 183.785156 L 477.664062 212 L 507.332031 212 L 483.332031 229.4375 L 491.417969 260.980469 L 465.664062 243.542969 L 439.914062 260.980469 L 452.214844 229.4375 L 424 212 "/>
<path style="fill-rule:nonzero;fill:rgb(100%,51%,0%);fill-opacity:1;stroke-width:1;stroke-linecap:butt;stroke-linejoin:miter;stroke:rgb(0%,0%,0%);stroke-opacity:1;stroke-miterlimit:10;" d="M 282 139 L 311.664062 139 L 323.664062 110.785156 L 335.664062 139 L 365.332031 139 L 341.332031 156.4375 L 349.417969 187.980469 L 323.664062 170.542969 L 297.914062 187.980469 L 310.214844 156.4375 L 282 139 "/>
<path style="fill-rule:nonzero;fill:rgb(100%,51%,0%);fill-opacity:1;stroke-width:1;stroke-linecap:butt;stroke-linejoin:miter;stroke:rgb(0%,0%,0%);stroke-opacity:1;stroke-miterlimit:10;" d="M 132 258 L 161.664062 258 L 173.664062 229.785156 L 185.664062 258 L 215.332031 258 L 191.332031 275.4375 L 199.417969 306.980469 L 173.664062 289.542969 L 147.914062 306.980469 L 160.214844 275.4375 L 132 258 "/>
<path style="fill-rule:nonzero;fill:rgb(100%,51%,0%);fill-opacity:1;stroke-width:1;stroke-linecap:butt;stroke-linejoin:miter;stroke:rgb(0%,0%,0%);stroke-opacity:1;stroke-miterlimit:10;" d="M 394 361 L 423.664062 361 L 435.664062 332.785156 L 447.664062 361 L 477.332031 361 L 453.332031 378.4375 L 461.417969 409.980469 L 435.664062 392.542969 L 409.914062 409.980469 L 422.214844 378.4375 L 394 361 "/>
<path style="fill-rule:nonzero;fill:rgb(55%,51%,53%);fill-opacity:1;stroke-width:1;stroke-linecap:butt;stroke-linejoin:miter;stroke:rgb(0%,0%,0%);stroke-opacity:1;stroke-miterlimit:10;" d="M 145 326 L 119.019531 371 L 170.980469 371 L 145 326 "/>
<path style="fill-rule:nonzero;fill:rgb(100%,51%,0%);fill-opacity:1;stroke-width:1;stroke-linecap:butt;stroke-linejoin:miter;stroke:rgb(0%,0%,0%);stroke-opacity:1;stroke-miterlimit:10;" d="M 297 235 L 326.664062 235 L 338.664062 206.785156 L 350.664062 235 L 380.332031 235 L 356.332031 252.4375 L 364.417969 283.980469 L 338.664062 266.542969 L 312.914062 283.980469 L 325.214844 252.4375 L 297 235 "/>
<path style="fill-rule:nonzero;fill:rgb(100%,51%,0%);fill-opacity:1;stroke-width:1;stroke-linecap:butt;stroke-linejoin:miter;stroke:rgb(0%,0%,0%);stroke-opacity:1;stroke-miterlimit:10;" d="M 772 416 L 801.664062 416 L 813.664062 387.785156 L 825.664062 416 L 855.332031 416 L 831.332031 433.4375 L 839.417969 464.980469 L 813.664062 447.542969 L 787.914062 464.980469 L 800.214844 433.4375 L 772 416 "/>
<path style="fill-rule:nonzero;fill:rgb(100%,51%,0%);fill-opacity:1;stroke-width:1;stroke-linecap:butt;stroke-linejoin:miter;stroke:rgb(0%,0%,0%);stroke-opacity:1;stroke-miterlimit:10;" d="M 922 109 L 951.664062 109 L 963.664062 80.785156 L 975.664062 109 L 1005.332031 109 L 981.332031 126.4375 L 989.417969 157.980469 L 963.664062 140.542969 L 937.914062 157.980469 L 950.214844 126.4375 L 922 109 "/>
<path style="fill-rule:nonzero;fill:rgb(100%,51%,0%);fill-opacity:1;stroke-width:1;stroke-linecap:butt;stroke-linejoin:miter;stroke:rgb(0%,0%,0%);stroke-opacity:1;stroke-miterlimit:10;" d="M 954 200 L 983.664062 200 L 995.664062 171.785156 L 1007.664062 200 L 1037.332031 200 L 1013.332031 217.4375 L 1021.417969 248.980469 L 995.664062 231.542969 L 969.914062 248.980469 L 982.214844 217.4375 L 954 200 "/>
<path style="fill-rule:nonzero;fill:rgb(100%,51%,0%);fill-opacity:1;stroke-width:1;stroke-linecap:butt;stroke-linejoin:miter;stroke:rgb(0%,0%,0%);stroke-opacity:1;stroke-miterlimit:10;" d="M 951 391 L 980.664062 391 L 992.664062 362.785156 L 1004.664062 391 L 1034.332031 391 L 1010.332031 408.4375 L 1018.417969 439.980469 L 992.664062 422.542969 L 966.914062 439.980469 L 979.214844 408.4375 L 951 391 "/>
<path style="fill-rule:nonzero;fill:rgb(100%,51%,0%);fill-opacity:1;stroke-width:1;stroke-linecap:butt;stroke-linejoin:miter;stroke:rgb(0%,0%,0%);stroke-opacity:1;stroke-miterlimit:10;" d="M 771 89 L 800.664062 89 L 812.664062 60.785156 L 824.664062 89 L 854.332031 89 L 830.332031 106.4375 L 838.417969 137.980469 L 812.664062 120.542969 L 786.914062 137.980469 L 799.214844 106.4375 L 771 89 "/>
<path style="fill-rule:nonzero;fill:rgb(100%,51%,0%);fill-opacity:1;stroke-width:1;stroke-linecap:butt;stroke-linejoin:miter;stroke:rgb(0%,0%,0%);stroke-opacity:1;stroke-miterlimit:10;" d="M 866 339 L 895.664062 339 L 907.664062 310.785156 L 919.664062 339 L 949.332031 339 L 925.332031 356.4375 L 933.417969 387.980469 L 907.664062 370.542969 L 881.914062 387.980469 L 894.214844 356.4375 L 866 339 "/>
<path style="fill-rule:nonzero;fill:rgb(100%,51%,0%);fill-opacity:1;stroke-width:1;stroke-linecap:butt;stroke-linejoin:miter;stroke:rgb(0%,0%,0%);stroke-opacity:1;stroke-miterlimit:10;" d="M 744 233 L 773.664062 233 L 785.664062 204.785156 L 797.664062 233 L 827.332031 233 L 803.332031 250.4375 L 811.417969 281.980469 L 785.664062 264.542969 L 759.914062 281.980469 L 772.214844 250.4375 L 744 233 "/>
</g>
</svg>
