<?xml version="1.0" encoding="UTF-8"?>
<svg xmlns="http://www.w3.org/2000/svg" xmlns:xlink="http://www.w3.org/1999/xlink" width="1129pt" height="517pt" viewBox="0 0 1129 517" version="1.1">
<g id="surface126">
<rect x="0" y="0" width="1129" height="517" style="fill:rgb(90%,90%,90%);fill-opacity:1;stroke:none;"/>
<path style="fill-rule:nonzero;fill:rgb(100%,51%,0%);fill-opacity:1;stroke-width:1;stroke-linecap:butt;stroke-linejoin:miter;stroke:rgb(0%,0%,0%);stroke-opacity:1;stroke-miterlimit:10;" d="M 563 283 L 592.664062 283 L 604.664062 254.785156 L 616.664062 283 L 646.332031 283 L 622.332031 300.4375 L 630.417969 331.980469 L 604.664062 314.542969 L 578.914062 331.980469 L 591.214844 300.4375 L 563 283 "/>
<path style="fill-rule:nonzero;fill:rgb(100%,51%,0%);fill-opacity:1;stroke-width:1;stroke-linecap:butt;stroke-linejoin:miter;stroke:rgb(0%,0%,0%);stroke-opacity:1;stroke-miterlimit:10;" d="M 65 131 L 94.664062 131 L 106.664062 102.785156 L 118.664062 131 L 148.332031 131 L 124.332031 148.4375 L 132.417969 179.980469 L 106.664062 162.542969 L 80.914062 179.980469 L 93.214844 148.4375 L 65 131 "/>
<path style="fill-rule:nonzero;fill:rgb(100%,51%,0%);fill-opacity:1;stroke-width:1;stroke-linecap:butt;stroke-linejoin:miter;stroke:rgb(0%,0%,0%);stroke-opacity:1;stroke-miterlimit:10;" d="M 536 102 L 565.664062 102 L 577.664062 73.785156 L 589.664062 102 L 619.332031 102 L 595.332031 119.4375 L 603.417969 150.980469 L 577.664062 133.542969 L 551.914062 150.980469 L 564.214844 119.4375 L 536 102 "/>
<path style="fill-rule:nonzero;fill:rgb(100%,51%,0%);fill-opacity:1;stroke-width:1;stroke-linecap:butt;stroke-linejoin:miter;stroke:rgb(0%,0%,0%);stroke-opacity:1;stroke-miterlimit:10;" d="M 654 306 L 683.664062 306 L 695.664062 277.785156 L 707.664062 306 L 737.332031 306 L 713.332031 323.4375 L 721.417969 354.980469 L 695.664062 337.542969 L 669.914062 354.980469 L 682.214844 323.4375 L 654 306 "/>
<path style="fill-rule:nonzero;fill:rgb(100%,51%,0%);fill-opacity:1;stroke-width:1;stroke-linecap:butt;stroke-linejoin:miter;stroke:rgb(0%,0%,0%);stroke-opacity:1;stroke-miterlimit:10;" d="M 739 429 L 768.664062 429 L 780.664062 400.785156 L 792.664062 429 L 822.332031 429 L 798.332031 446.4375 L 806.417969 477.980469 L 780.664062 460.542969 L 754.914062 477.980469 L 767.214844 446.4375 L 739 429 "/>
<path style="fill-rule:nonzero;fill:rgb(100%,51%,0%);fill-opacity:1;stroke-width:1;stroke-linecap:butt;stroke-linejoin:miter;stroke:rgb(0%,0%,0%);stroke-opacity:1;stroke-miterlimit:10;" d="M 636 414 L 665.664062 414 L 677.664062 385.785156 L 689.664062 414 L 719.332031 414 L 695.332031 431.4375 L 703.417969 462.980469 L 677.664062 445.542969 L 651.914062 462.980469 L 664.214844 431.4375 L 636 414 "/>
<path style="fill-rule:nonzero;fill:rgb(55%,51%,53%);fill-opacity:1;stroke-width:1;stroke-linecap:butt;stroke-linejoin:miter;stroke:rgb(0%,0%,0%);stroke-opacity:1;stroke-miterlimit:10;" d="M 613 148 L 587.019531 193 L 638.980469 193 L 613 148 "/>
<path style="fill-rule:nonzero;fill:rgb(55%,51%,53%);fill-opacity:1;stroke-width:1;stroke-linecap:butt;stroke-linejoin:miter;stroke:rgb(0%,0%,0%);stroke-opacity:1;stroke-miterlimit:10;" d="M 147 37 L 121.019531 82 L 172.980469 82 L 147 37 "/>
<path style="fill-rule:nonzero;fill:rgb(55%,51%,53%);fill-opacity:1;stroke-width:1;stroke-linecap:butt;stroke-linejoin:miter;stroke:rgb(0%,0%,0%);stroke-opacity:1;stroke-miterlimit:10;" d="M 201 193 L 175.019531 238 L 226.980469 238 L 201 193 "/>
<path style="fill-rule:nonzero;fill:rgb(55%,51%,53%);fill-opacity:1;stroke-width:1;stroke-linecap:butt;stroke-linejoin:miter;stroke:rgb(0%,0%,0%);stroke-opacity:1;stroke-miterlimit:10;" d="M 268 285 L 242.019531 330 L 293.980469 330 L 268 285 "/>
<path style="fill-rule:nonzero;fill:rgb(55%,51%,53%);fill-opacity:1;stroke-width:1;stroke-linecap:butt;stroke-linejoin:miter;stroke:rgb(0%,0%,0%);stroke-opacity:1;stroke-miterlimit:10;" d="M 843 361 L 817.019531 406 L 868.980469 406 L 843 361 "/>
</g>
</svg>
