<?xml version="1.0" encoding="UTF-8"?>
<svg xmlns="http://www.w3.org/2000/svg" xmlns:xlink="http://www.w3.org/1999/xlink" width="1179pt" height="517pt" viewBox="0 0 1179 517" version="1.1">
<g id="surface181">
<rect x="0" y="0" width="1179" height="517" style="fill:rgb(90%,90%,90%);fill-opacity:1;stroke:none;"/>
<path style="fill-rule:nonzero;fill:rgb(35%,70%,90%);fill-opacity:1;stroke-width:1;stroke-linecap:butt;stroke-linejoin:miter;stroke:rgb(0%,0%,0%);stroke-opacity:1;stroke-miterlimit:10;" d="M 792 113 L 821.664062 113 L 833.664062 84.785156 L 845.664062 113 L 875.332031 113 L 851.332031 130.4375 L 859.417969 161.980469 L 833.664062 144.542969 L 807.914062 161.980469 L 820.214844 130.4375 L 792 113 "/>
<path style="fill-rule:nonzero;fill:rgb(35%,70%,90%);fill-opacity:1;stroke-width:1;stroke-linecap:butt;stroke-linejoin:miter;stroke:rgb(0%,0%,0%);stroke-opacity:1;stroke-miterlimit:10;" d="M 935 158 L 964.664062 158 L 976.664062 129.785156 L 988.664062 158 L 1018.332031 158 L 994.332031 175.4375 L 1002.417969 206.980469 L 976.664062 189.542969 L 950.914062 206.980469 L 963.214844 175.4375 L 935 158 "/>
<path style="fill-rule:nonzero;fill:rgb(35%,70%,90%);fill-opacity:1;stroke-width:1;stroke-linecap:butt;stroke-linejoin:miter;stroke:rgb(0%,0%,0%);stroke-opacity:1;stroke-miterlimit:10;" d="M 535 322 L 564.664062 322 L 576.664062 293.785156 L 588.664062 322 L 618.332031 322 L 594.332031 339.4375 L 602.417969 370.980469 L 576.664062 353.542969 L 550.914062 370.980469 L 563.214844 339.4375 L 535 322 "/>
<path style="fill-rule:nonzero;fill:rgb(35%,70%,90%);fill-opacity:1;stroke-width:1;stroke-linecap:butt;stroke-linejoin:miter;stroke:rgb(0%,0%,0%);stroke-opacity:1;stroke-miterlimit:10;" d="M 990 391 L 1019.664062 391 L 1031.664062 362.785156 L 1043.664062 391 L 1073.332031 391 L 1049.332031 408.4375 L 1057.417969 439.980469 L 1031.664062 422.542969 L 1005.914062 439.980469 L 1018.214844 408.4375 L 990 391 "/>
<path style="fill-rule:nonzero;fill:rgb(35%,70%,90%);fill-opacity:1;stroke-width:1;stroke-linecap:butt;stroke-linejoin:miter;stroke:rgb(0%,0%,0%);stroke-opacity:1;stroke-miterlimit:10;" d="M 322 371 L 351.664062 371 L 363.664062 342.785156 L 375.664062 371 L 405.332031 371 L 381.332031 388.4375 L 389.417969 419.980469 L 363.664062 402.542969 L 337.914062 419.980469 L 350.214844 388.4375 L 322 371 "/>
<path style="fill-rule:nonzero;fill:rgb(100%,51%,0%);fill-opacity:1;stroke-width:1;stroke-linecap:butt;stroke-linejoin:miter;stroke:rgb(0%,0%,0%);stroke-opacity:1;stroke-miterlimit:10;" d="M 360.214844 103 C 360.214844 114.714844 350.714844 124.214844 339 124.214844 C 327.285156 124.214844 317.785156 114.714844 317.785156 103 C 317.785156 91.285156 327.285156 81.785156 339 81.785156 C 350.714844 81.785156 360.214844 91.285156 360.214844 103 "/>
<path style="fill-rule:nonzero;fill:rgb(100%,51%,0%);fill-opacity:1;stroke-width:1;stroke-linecap:butt;stroke-linejoin:miter;stroke:rgb(0%,0%,0%);stroke-opacity:1;stroke-miterlimit:10;" d="M 721.214844 290 C 721.214844 301.714844 711.714844 311.214844 700 311.214844 C 688.285156 311.214844 678.785156 301.714844 678.785156 290 C 678.785156 278.285156 688.285156 268.785156 700 268.785156 C 711.714844 268.785156 721.214844 278.285156 721.214844 290 "/>
<path style="fill-rule:nonzero;fill:rgb(100%,51%,0%);fill-opacity:1;stroke-width:1;stroke-linecap:butt;stroke-linejoin:miter;stroke:rgb(0%,0%,0%);stroke-opacity:1;stroke-miterlimit:10;" d="M 191.214844 120 C 191.214844 131.714844 181.714844 141.214844 170 141.214844 C 158.285156 141.214844 148.785156 131.714844 148.785156 120 C 148.785156 108.285156 158.285156 98.785156 170 98.785156 C 181.714844 98.785156 191.214844 108.285156 191.214844 120 "/>
<path style="fill-rule:nonzero;fill:rgb(100%,51%,0%);fill-opacity:1;stroke-width:1;stroke-linecap:butt;stroke-linejoin:miter;stroke:rgb(0%,0%,0%);stroke-opacity:1;stroke-miterlimit:10;" d="M 889.214844 296 C 889.214844 307.714844 879.714844 317.214844 868 317.214844 C 856.285156 317.214844 846.785156 307.714844 846.785156 296 C 846.785156 284.285156 856.285156 274.785156 868 274.785156 C 879.714844 274.785156 889.214844 284.285156 889.214844 296 "/>
<path style="fill-rule:nonzero;fill:rgb(100%,51%,0%);fill-opacity:1;stroke-width:1;stroke-linecap:butt;stroke-linejoin:miter;stroke:rgb(0%,0%,0%);stroke-opacity:1;stroke-miterlimit:10;" d="M 138.214844 239 C 138.214844 250.714844 128.714844 260.214844 117 260.214844 C 105.285156 260.214844 95.785156 250.714844 95.785156 239 C 95.785156 227.285156 105.285156 217.785156 117 217.785156 C 128.714844 217.785156 138.214844 227.285156 138.214844 239 "/>
</g>
</svg>
