<?xml version="1.0" encoding="UTF-8"?>
<svg xmlns="http://www.w3.org/2000/svg" xmlns:xlink="http://www.w3.org/1999/xlink" width="1179pt" height="517pt" viewBox="0 0 1179 517" version="1.1">
<g id="surface251">
<rect x="0" y="0" width="1179" height="517" style="fill:rgb(90%,90%,90%);fill-opacity:1;stroke:none;"/>
<path style="fill-rule:nonzero;fill:rgb(35%,70%,90%);fill-opacity:1;stroke-width:1;stroke-linecap:butt;stroke-linejoin:miter;stroke:rgb(0%,0%,0%);stroke-opacity:1;stroke-miterlimit:10;" d="M 285 358 L 314.664062 358 L 326.664062 329.785156 L 338.664062 358 L 368.332031 358 L 344.332031 375.4375 L 352.417969 406.980469 L 326.664062 389.542969 L 300.914062 406.980469 L 313.214844 375.4375 L 285 358 "/>
<path style="fill-rule:nonzero;fill:rgb(35%,70%,90%);fill-opacity:1;stroke-width:1;stroke-linecap:butt;stroke-linejoin:miter;stroke:rgb(0%,0%,0%);stroke-opacity:1;stroke-miterlimit:10;" d="M 301 220 L 330.664062 220 L 342.664062 191.785156 L 354.664062 220 L 384.332031 220 L 360.332031 237.4375 L 368.417969 268.980469 L 342.664062 251.542969 L 316.914062 268.980469 L 329.214844 237.4375 L 301 220 "/>
<path style="fill-rule:nonzero;fill:rgb(55%,51%,53%);fill-opacity:1;stroke-width:1;stroke-linecap:butt;stroke-linejoin:miter;stroke:rgb(0%,0%,0%);stroke-opacity:1;stroke-miterlimit:10;" d="M 401 183 L 430.664062 183 L 442.664062 154.785156 L 454.664062 183 L 484.332031 183 L 460.332031 200.4375 L 468.417969 231.980469 L 442.664062 214.542969 L 416.914062 231.980469 L 429.214844 200.4375 L 401 183 "/>
<path style="fill-rule:nonzero;fill:rgb(35%,70%,90%);fill-opacity:1;stroke-width:1;stroke-linecap:butt;stroke-linejoin:miter;stroke:rgb(0%,0%,0%);stroke-opacity:1;stroke-miterlimit:10;" d="M 88 310 L 117.664062 310 L 129.664062 281.785156 L 141.664062 310 L 171.332031 310 L 147.332031 327.4375 L 155.417969 358.980469 L 129.664062 341.542969 L 103.914062 358.980469 L 116.214844 327.4375 L 88 310 "/>
<path style="fill-rule:nonzero;fill:rgb(55%,51%,53%);fill-opacity:1;stroke-width:1;stroke-linecap:butt;stroke-linejoin:miter;stroke:rgb(0%,0%,0%);stroke-opacity:1;stroke-miterlimit:10;" d="M 918.785156 105.785156 L 918.785156 148.214844 L 961.214844 148.214844 L 961.214844 105.785156 L 918.785156 105.785156 "/>
<path style="fill-rule:nonzero;fill:rgb(55%,51%,53%);fill-opacity:1;stroke-width:1;stroke-linecap:butt;stroke-linejoin:miter;stroke:rgb(0%,0%,0%);stroke-opacity:1;stroke-miterlimit:10;" d="M 995.785156 335.785156 L 995.785156 378.214844 L 1038.214844 378.214844 L 1038.214844 335.785156 L 995.785156 335.785156 "/>
<path style="fill-rule:nonzero;fill:rgb(35%,70%,90%);fill-opacity:1;stroke-width:1;stroke-linecap:butt;stroke-linejoin:miter;stroke:rgb(0%,0%,0%);stroke-opacity:1;stroke-miterlimit:10;" d="M 802.785156 196.785156 L 802.785156 239.214844 L 845.214844 239.214844 L 845.214844 196.785156 L 802.785156 196.785156 "/>
<path style="fill-rule:nonzero;fill:rgb(55%,51%,53%);fill-opacity:1;stroke-width:1;stroke-linecap:butt;stroke-linejoin:miter;stroke:rgb(0%,0%,0%);stroke-opacity:1;stroke-miterlimit:10;" d="M 1010.785156 111.785156 L 1010.785156 154.214844 L 1053.214844 154.214844 L 1053.214844 111.785156 L 1010.785156 111.785156 "/>
<path style="fill-rule:nonzero;fill:rgb(55%,51%,53%);fill-opacity:1;stroke-width:1;stroke-linecap:butt;stroke-linejoin:miter;stroke:rgb(0%,0%,0%);stroke-opacity:1;stroke-miterlimit:10;" d="M 804.785156 377.785156 L 804.785156 420.214844 L 847.214844 420.214844 L 847.214844 377.785156 L 804.785156 377.785156 "/>
</g>
</svg>
