<?xml version="1.0" encoding="UTF-8"?>
<svg xmlns="http://www.w3.org/2000/svg" xmlns:xlink="http://www.w3.org/1999/xlink" width="1179pt" height="517pt" viewBox="0 0 1179 517" version="1.1">
<g id="surface406">
<rect x="0" y="0" width="1179" height="517" style="fill:rgb(90%,90%,90%);fill-opacity:1;stroke:none;"/>
<path style="fill-rule:nonzero;fill:rgb(35%,70%,90%);fill-opacity:1;stroke-width:1;stroke-linecap:butt;stroke-linejoin:miter;stroke:rgb(0%,0%,0%);stroke-opacity:1;stroke-miterlimit:10;" d="M 156.214844 199 C 156.214844 210.714844 146.714844 220.214844 135 220.214844 C 123.285156 220.214844 113.785156 210.714844 113.785156 199 C 113.785156 187.285156 123.285156 177.785156 135 177.785156 C 146.714844 177.785156 156.214844 187.285156 156.214844 199 "/>
<path style="fill-rule:nonzero;fill:rgb(35%,70%,90%);fill-opacity:1;stroke-width:1;stroke-linecap:butt;stroke-linejoin:miter;stroke:rgb(0%,0%,0%);stroke-opacity:1;stroke-miterlimit:10;" d="M 118.214844 420 C 118.214844 431.714844 108.714844 441.214844 97 441.214844 C 85.285156 441.214844 75.785156 431.714844 75.785156 420 C 75.785156 408.285156 85.285156 398.785156 97 398.785156 C 108.714844 398.785156 118.214844 408.285156 118.214844 420 "/>
<path style="fill-rule:nonzero;fill:rgb(35%,70%,90%);fill-opacity:1;stroke-width:1;stroke-linecap:butt;stroke-linejoin:miter;stroke:rgb(0%,0%,0%);stroke-opacity:1;stroke-miterlimit:10;" d="M 227 92 L 201.019531 137 L 252.980469 137 L 227 92 "/>
<path style="fill-rule:nonzero;fill:rgb(53%,27%,7%);fill-opacity:1;stroke-width:1;stroke-linecap:butt;stroke-linejoin:miter;stroke:rgb(0%,0%,0%);stroke-opacity:1;stroke-miterlimit:10;" d="M 790 231 L 764.019531 276 L 815.980469 276 L 790 231 "/>
<path style="fill-rule:nonzero;fill:rgb(53%,27%,7%);fill-opacity:1;stroke-width:1;stroke-linecap:butt;stroke-linejoin:miter;stroke:rgb(0%,0%,0%);stroke-opacity:1;stroke-miterlimit:10;" d="M 714 380 L 688.019531 425 L 739.980469 425 L 714 380 "/>
<path style="fill-rule:nonzero;fill:rgb(53%,27%,7%);fill-opacity:1;stroke-width:1;stroke-linecap:butt;stroke-linejoin:miter;stroke:rgb(0%,0%,0%);stroke-opacity:1;stroke-miterlimit:10;" d="M 772.214844 173 C 772.214844 184.714844 762.714844 194.214844 751 194.214844 C 739.285156 194.214844 729.785156 184.714844 729.785156 173 C 729.785156 161.285156 739.285156 151.785156 751 151.785156 C 762.714844 151.785156 772.214844 161.285156 772.214844 173 "/>
</g>
</svg>
