<?xml version="1.0" encoding="UTF-8"?>
<svg xmlns="http://www.w3.org/2000/svg" xmlns:xlink="http://www.w3.org/1999/xlink" width="1179pt" height="517pt" viewBox="0 0 1179 517" version="1.1">
<g id="surface831">
<rect x="0" y="0" width="1179" height="517" style="fill:rgb(90%,90%,90%);fill-opacity:1;stroke:none;"/>
<path style="fill-rule:nonzero;fill:rgb(100%,51%,0%);fill-opacity:1;stroke-width:1;stroke-linecap:butt;stroke-linejoin:miter;stroke:rgb(0%,0%,0%);stroke-opacity:1;stroke-miterlimit:10;" d="M 393.214844 196 C 393.214844 207.714844 383.714844 217.214844 372 217.214844 C 360.285156 217.214844 350.785156 207.714844 350.785156 196 C 350.785156 184.285156 360.285156 174.785156 372 174.785156 C 383.714844 174.785156 393.214844 184.285156 393.214844 196 "/>
<path style="fill-rule:nonzero;fill:rgb(100%,51%,0%);fill-opacity:1;stroke-width:1;stroke-linecap:butt;stroke-linejoin:miter;stroke:rgb(0%,0%,0%);stroke-opacity:1;stroke-miterlimit:10;" d="M 713.214844 384 C 713.214844 395.714844 703.714844 405.214844 692 405.214844 C 680.285156 405.214844 670.785156 395.714844 670.785156 384 C 670.785156 372.285156 680.285156 362.785156 692 362.785156 C 703.714844 362.785156 713.214844 372.285156 713.214844 384 "/>
<path style="fill-rule:nonzero;fill:rgb(100%,51%,0%);fill-opacity:1;stroke-width:1;stroke-linecap:butt;stroke-linejoin:miter;stroke:rgb(0%,0%,0%);stroke-opacity:1;stroke-miterlimit:10;" d="M 523.214844 290 C 523.214844 301.714844 513.714844 311.214844 502 311.214844 C 490.285156 311.214844 480.785156 301.714844 480.785156 290 C 480.785156 278.285156 490.285156 268.785156 502 268.785156 C 513.714844 268.785156 523.214844 278.285156 523.214844 290 "/>
<path style="fill-rule:nonzero;fill:rgb(35%,70%,90%);fill-opacity:1;stroke-width:1;stroke-linecap:butt;stroke-linejoin:miter;stroke:rgb(0%,0%,0%);stroke-opacity:1;stroke-miterlimit:10;" d="M 109 290 L 138.664062 290 L 150.664062 261.785156 L 162.664062 290 L 192.332031 290 L 168.332031 307.4375 L 176.417969 338.980469 L 150.664062 321.542969 L 124.914062 338.980469 L 137.214844 307.4375 L 109 290 "/>
<path style="fill-rule:nonzero;fill:rgb(35%,70%,90%);fill-opacity:1;stroke-width:1;stroke-linecap:butt;stroke-linejoin:miter;stroke:rgb(0%,0%,0%);stroke-opacity:1;stroke-miterlimit:10;" d="M 940 249 L 969.664062 249 L 981.664062 220.785156 L 993.664062 249 L 1023.332031 249 L 999.332031 266.4375 L 1007.417969 297.980469 L 981.664062 280.542969 L 955.914062 297.980469 L 968.214844 266.4375 L 940 249 "/>
<path style="fill-rule:nonzero;fill:rgb(35%,70%,90%);fill-opacity:1;stroke-width:1;stroke-linecap:butt;stroke-linejoin:miter;stroke:rgb(0%,0%,0%);stroke-opacity:1;stroke-miterlimit:10;" d="M 347 315 L 376.664062 315 L 388.664062 286.785156 L 400.664062 315 L 430.332031 315 L 406.332031 332.4375 L 414.417969 363.980469 L 388.664062 346.542969 L 362.914062 363.980469 L 375.214844 332.4375 L 347 315 "/>
<path style="fill-rule:nonzero;fill:rgb(35%,70%,90%);fill-opacity:1;stroke-width:1;stroke-linecap:butt;stroke-linejoin:miter;stroke:rgb(0%,0%,0%);stroke-opacity:1;stroke-miterlimit:10;" d="M 822 424 L 851.664062 424 L 863.664062 395.785156 L 875.664062 424 L 905.332031 424 L 881.332031 441.4375 L 889.417969 472.980469 L 863.664062 455.542969 L 837.914062 472.980469 L 850.214844 441.4375 L 822 424 "/>
<path style="fill-rule:nonzero;fill:rgb(35%,70%,90%);fill-opacity:1;stroke-width:1;stroke-linecap:butt;stroke-linejoin:miter;stroke:rgb(0%,0%,0%);stroke-opacity:1;stroke-miterlimit:10;" d="M 988 394 L 1017.664062 394 L 1029.664062 365.785156 L 1041.664062 394 L 1071.332031 394 L 1047.332031 411.4375 L 1055.417969 442.980469 L 1029.664062 425.542969 L 1003.914062 442.980469 L 1016.214844 411.4375 L 988 394 "/>
</g>
</svg>
