<?xml version="1.0" encoding="UTF-8"?>
<svg xmlns="http://www.w3.org/2000/svg" xmlns:xlink="http://www.w3.org/1999/xlink" width="1179pt" height="517pt" viewBox="0 0 1179 517" version="1.1">
<g id="surface896">
<rect x="0" y="0" width="1179" height="517" style="fill:rgb(90%,90%,90%);fill-opacity:1;stroke:none;"/>
<path style="fill-rule:nonzero;fill:rgb(53%,27%,7%);fill-opacity:1;stroke-width:1;stroke-linecap:butt;stroke-linejoin:miter;stroke:rgb(0%,0%,0%);stroke-opacity:1;stroke-miterlimit:10;" d="M 90 225.601562 C 90 211.199219 66 211.199219 66 225.601562 C 66 240 90 242.398438 90 254.398438 C 90 242.398438 114 240 114 225.601562 C 114 211.199219 90 211.199219 90 225.601562 "/>
<path style="fill-rule:nonzero;fill:rgb(53%,27%,7%);fill-opacity:1;stroke-width:1;stroke-linecap:butt;stroke-linejoin:miter;stroke:rgb(0%,0%,0%);stroke-opacity:1;stroke-miterlimit:10;" d="M 258.214844 428 C 258.214844 439.714844 248.714844 449.214844 237 449.214844 C 225.285156 449.214844 215.785156 439.714844 215.785156 428 C 215.785156 416.285156 225.285156 406.785156 237 406.785156 C 248.714844 406.785156 258.214844 416.285156 258.214844 428 "/>
<path style="fill-rule:nonzero;fill:rgb(53%,27%,7%);fill-opacity:1;stroke-width:1;stroke-linecap:butt;stroke-linejoin:miter;stroke:rgb(0%,0%,0%);stroke-opacity:1;stroke-miterlimit:10;" d="M 335.214844 251 C 335.214844 262.714844 325.714844 272.214844 314 272.214844 C 302.285156 272.214844 292.785156 262.714844 292.785156 251 C 292.785156 239.285156 302.285156 229.785156 314 229.785156 C 325.714844 229.785156 335.214844 239.285156 335.214844 251 "/>
<path style="fill-rule:nonzero;fill:rgb(100%,51%,0%);fill-opacity:1;stroke-width:1;stroke-linecap:butt;stroke-linejoin:miter;stroke:rgb(0%,0%,0%);stroke-opacity:1;stroke-miterlimit:10;" d="M 981.214844 117 C 981.214844 128.714844 971.714844 138.214844 960 138.214844 C 948.285156 138.214844 938.785156 128.714844 938.785156 117 C 938.785156 105.285156 948.285156 95.785156 960 95.785156 C 971.714844 95.785156 981.214844 105.285156 981.214844 117 "/>
<path style="fill-rule:nonzero;fill:rgb(100%,51%,0%);fill-opacity:1;stroke-width:1;stroke-linecap:butt;stroke-linejoin:miter;stroke:rgb(0%,0%,0%);stroke-opacity:1;stroke-miterlimit:10;" d="M 808 255.601562 C 808 241.199219 784 241.199219 784 255.601562 C 784 270 808 272.398438 808 284.398438 C 808 272.398438 832 270 832 255.601562 C 832 241.199219 808 241.199219 808 255.601562 "/>
<path style="fill-rule:nonzero;fill:rgb(100%,51%,0%);fill-opacity:1;stroke-width:1;stroke-linecap:butt;stroke-linejoin:miter;stroke:rgb(0%,0%,0%);stroke-opacity:1;stroke-miterlimit:10;" d="M 893 295.601562 C 893 281.199219 869 281.199219 869 295.601562 C 869 310 893 312.398438 893 324.398438 C 893 312.398438 917 310 917 295.601562 C 917 281.199219 893 281.199219 893 295.601562 "/>
<path style="fill-rule:nonzero;fill:rgb(100%,51%,0%);fill-opacity:1;stroke-width:1;stroke-linecap:butt;stroke-linejoin:miter;stroke:rgb(0%,0%,0%);stroke-opacity:1;stroke-miterlimit:10;" d="M 943.214844 414 C 943.214844 425.714844 933.714844 435.214844 922 435.214844 C 910.285156 435.214844 900.785156 425.714844 900.785156 414 C 900.785156 402.285156 910.285156 392.785156 922 392.785156 C 933.714844 392.785156 943.214844 402.285156 943.214844 414 "/>
<path style="fill-rule:nonzero;fill:rgb(100%,51%,0%);fill-opacity:1;stroke-width:1;stroke-linecap:butt;stroke-linejoin:miter;stroke:rgb(0%,0%,0%);stroke-opacity:1;stroke-miterlimit:10;" d="M 1058.214844 392 C 1058.214844 403.714844 1048.714844 413.214844 1037 413.214844 C 1025.285156 413.214844 1015.785156 403.714844 1015.785156 392 C 1015.785156 380.285156 1025.285156 370.785156 1037 370.785156 C 1048.714844 370.785156 1058.214844 380.285156 1058.214844 392 "/>
</g>
</svg>
