<?xml version="1.0" encoding="UTF-8"?>
<svg xmlns="http://www.w3.org/2000/svg" xmlns:xlink="http://www.w3.org/1999/xlink" width="1179pt" height="517pt" viewBox="0 0 1179 517" version="1.1">
<g id="surface1301">
<rect x="0" y="0" width="1179" height="517" style="fill:rgb(90%,90%,90%);fill-opacity:1;stroke:none;"/>
<path style="fill-rule:nonzero;fill:rgb(53%,27%,7%);fill-opacity:1;stroke-width:1;stroke-linecap:butt;stroke-linejoin:miter;stroke:rgb(0%,0%,0%);stroke-opacity:1;stroke-miterlimit:10;" d="M 782 296 L 756.019531 341 L 807.980469 341 L 782 296 "/>
<path style="fill-rule:nonzero;fill:rgb(53%,27%,7%);fill-opacity:1;stroke-width:1;stroke-linecap:butt;stroke-linejoin:miter;stroke:rgb(0%,0%,0%);stroke-opacity:1;stroke-miterlimit:10;" d="M 341 262 L 315.019531 307 L 366.980469 307 L 341 262 "/>
<path style="fill-rule:nonzero;fill:rgb(53%,27%,7%);fill-opacity:1;stroke-width:1;stroke-linecap:butt;stroke-linejoin:miter;stroke:rgb(0%,0%,0%);stroke-opacity:1;stroke-miterlimit:10;" d="M 874 115 L 848.019531 160 L 899.980469 160 L 874 115 "/>
<path style="fill-rule:nonzero;fill:rgb(53%,27%,7%);fill-opacity:1;stroke-width:1;stroke-linecap:butt;stroke-linejoin:miter;stroke:rgb(0%,0%,0%);stroke-opacity:1;stroke-miterlimit:10;" d="M 440 160 L 414.019531 205 L 465.980469 205 L 440 160 "/>
<path style="fill-rule:nonzero;fill:rgb(35%,70%,90%);fill-opacity:1;stroke-width:1;stroke-linecap:butt;stroke-linejoin:miter;stroke:rgb(0%,0%,0%);stroke-opacity:1;stroke-miterlimit:10;" d="M 166 239 L 195.664062 239 L 207.664062 210.785156 L 219.664062 239 L 249.332031 239 L 225.332031 256.4375 L 233.417969 287.980469 L 207.664062 270.542969 L 181.914062 287.980469 L 194.214844 256.4375 L 166 239 "/>
<path style="fill-rule:nonzero;fill:rgb(35%,70%,90%);fill-opacity:1;stroke-width:1;stroke-linecap:butt;stroke-linejoin:miter;stroke:rgb(0%,0%,0%);stroke-opacity:1;stroke-miterlimit:10;" d="M 472 400 L 501.664062 400 L 513.664062 371.785156 L 525.664062 400 L 555.332031 400 L 531.332031 417.4375 L 539.417969 448.980469 L 513.664062 431.542969 L 487.914062 448.980469 L 500.214844 417.4375 L 472 400 "/>
<path style="fill-rule:nonzero;fill:rgb(35%,70%,90%);fill-opacity:1;stroke-width:1;stroke-linecap:butt;stroke-linejoin:miter;stroke:rgb(0%,0%,0%);stroke-opacity:1;stroke-miterlimit:10;" d="M 983 200 L 1012.664062 200 L 1024.664062 171.785156 L 1036.664062 200 L 1066.332031 200 L 1042.332031 217.4375 L 1050.417969 248.980469 L 1024.664062 231.542969 L 998.914062 248.980469 L 1011.214844 217.4375 L 983 200 "/>
<path style="fill-rule:nonzero;fill:rgb(35%,70%,90%);fill-opacity:1;stroke-width:1;stroke-linecap:butt;stroke-linejoin:miter;stroke:rgb(0%,0%,0%);stroke-opacity:1;stroke-miterlimit:10;" d="M 1031 326 L 1060.664062 326 L 1072.664062 297.785156 L 1084.664062 326 L 1114.332031 326 L 1090.332031 343.4375 L 1098.417969 374.980469 L 1072.664062 357.542969 L 1046.914062 374.980469 L 1059.214844 343.4375 L 1031 326 "/>
<path style="fill-rule:nonzero;fill:rgb(35%,70%,90%);fill-opacity:1;stroke-width:1;stroke-linecap:butt;stroke-linejoin:miter;stroke:rgb(0%,0%,0%);stroke-opacity:1;stroke-miterlimit:10;" d="M 280 112 L 309.664062 112 L 321.664062 83.785156 L 333.664062 112 L 363.332031 112 L 339.332031 129.4375 L 347.417969 160.980469 L 321.664062 143.542969 L 295.914062 160.980469 L 308.214844 129.4375 L 280 112 "/>
</g>
</svg>
