<?xml version="1.0" encoding="UTF-8"?>
<svg xmlns="http://www.w3.org/2000/svg" xmlns:xlink="http://www.w3.org/1999/xlink" width="1179pt" height="517pt" viewBox="0 0 1179 517" version="1.1">
<g id="surface1281">
<rect x="0" y="0" width="1179" height="517" style="fill:rgb(90%,90%,90%);fill-opacity:1;stroke:none;"/>
<path style="fill-rule:nonzero;fill:rgb(35%,70%,90%);fill-opacity:1;stroke-width:1;stroke-linecap:butt;stroke-linejoin:miter;stroke:rgb(0%,0%,0%);stroke-opacity:1;stroke-miterlimit:10;" d="M 184.214844 411 C 184.214844 422.714844 174.714844 432.214844 163 432.214844 C 151.285156 432.214844 141.785156 422.714844 141.785156 411 C 141.785156 399.285156 151.285156 389.785156 163 389.785156 C 174.714844 389.785156 184.214844 399.285156 184.214844 411 "/>
<path style="fill-rule:nonzero;fill:rgb(35%,70%,90%);fill-opacity:1;stroke-width:1;stroke-linecap:butt;stroke-linejoin:miter;stroke:rgb(0%,0%,0%);stroke-opacity:1;stroke-miterlimit:10;" d="M 203.214844 253 C 203.214844 264.714844 193.714844 274.214844 182 274.214844 C 170.285156 274.214844 160.785156 264.714844 160.785156 253 C 160.785156 241.285156 170.285156 231.785156 182 231.785156 C 193.714844 231.785156 203.214844 241.285156 203.214844 253 "/>
<path style="fill-rule:nonzero;fill:rgb(35%,70%,90%);fill-opacity:1;stroke-width:1;stroke-linecap:butt;stroke-linejoin:miter;stroke:rgb(0%,0%,0%);stroke-opacity:1;stroke-miterlimit:10;" d="M 431.214844 336 C 431.214844 347.714844 421.714844 357.214844 410 357.214844 C 398.285156 357.214844 388.785156 347.714844 388.785156 336 C 388.785156 324.285156 398.285156 314.785156 410 314.785156 C 421.714844 314.785156 431.214844 324.285156 431.214844 336 "/>
<path style="fill-rule:nonzero;fill:rgb(35%,70%,90%);fill-opacity:1;stroke-width:1;stroke-linecap:butt;stroke-linejoin:miter;stroke:rgb(0%,0%,0%);stroke-opacity:1;stroke-miterlimit:10;" d="M 817.214844 204 C 817.214844 215.714844 807.714844 225.214844 796 225.214844 C 784.285156 225.214844 774.785156 215.714844 774.785156 204 C 774.785156 192.285156 784.285156 182.785156 796 182.785156 C 807.714844 182.785156 817.214844 192.285156 817.214844 204 "/>
<path style="fill-rule:nonzero;fill:rgb(100%,51%,0%);fill-opacity:1;stroke-width:1;stroke-linecap:butt;stroke-linejoin:miter;stroke:rgb(0%,0%,0%);stroke-opacity:1;stroke-miterlimit:10;" d="M 491 157 L 465.019531 202 L 516.980469 202 L 491 157 "/>
<path style="fill-rule:nonzero;fill:rgb(100%,51%,0%);fill-opacity:1;stroke-width:1;stroke-linecap:butt;stroke-linejoin:miter;stroke:rgb(0%,0%,0%);stroke-opacity:1;stroke-miterlimit:10;" d="M 618 111 L 592.019531 156 L 643.980469 156 L 618 111 "/>
<path style="fill-rule:nonzero;fill:rgb(100%,51%,0%);fill-opacity:1;stroke-width:1;stroke-linecap:butt;stroke-linejoin:miter;stroke:rgb(0%,0%,0%);stroke-opacity:1;stroke-miterlimit:10;" d="M 132 103 L 106.019531 148 L 157.980469 148 L 132 103 "/>
<path style="fill-rule:nonzero;fill:rgb(100%,51%,0%);fill-opacity:1;stroke-width:1;stroke-linecap:butt;stroke-linejoin:miter;stroke:rgb(0%,0%,0%);stroke-opacity:1;stroke-miterlimit:10;" d="M 904 386 L 878.019531 431 L 929.980469 431 L 904 386 "/>
</g>
</svg>
