<?xml version="1.0" encoding="UTF-8"?>
<svg xmlns="http://www.w3.org/2000/svg" xmlns:xlink="http://www.w3.org/1999/xlink" width="1179pt" height="517pt" viewBox="0 0 1179 517" version="1.1">
<g id="surface826">
<rect x="0" y="0" width="1179" height="517" style="fill:rgb(90%,90%,90%);fill-opacity:1;stroke:none;"/>
<path style="fill-rule:nonzero;fill:rgb(55%,51%,53%);fill-opacity:1;stroke-width:1;stroke-linecap:butt;stroke-linejoin:miter;stroke:rgb(0%,0%,0%);stroke-opacity:1;stroke-miterlimit:10;" d="M 373 404 L 402.664062 404 L 414.664062 375.785156 L 426.664062 404 L 456.332031 404 L 432.332031 421.4375 L 440.417969 452.980469 L 414.664062 435.542969 L 388.914062 452.980469 L 401.214844 421.4375 L 373 404 "/>
<path style="fill-rule:nonzero;fill:rgb(53%,27%,7%);fill-opacity:1;stroke-width:1;stroke-linecap:butt;stroke-linejoin:miter;stroke:rgb(0%,0%,0%);stroke-opacity:1;stroke-miterlimit:10;" d="M 397 236 L 426.664062 236 L 438.664062 207.785156 L 450.664062 236 L 480.332031 236 L 456.332031 253.4375 L 464.417969 284.980469 L 438.664062 267.542969 L 412.914062 284.980469 L 425.214844 253.4375 L 397 236 "/>
<path style="fill-rule:nonzero;fill:rgb(55%,51%,53%);fill-opacity:1;stroke-width:1;stroke-linecap:butt;stroke-linejoin:miter;stroke:rgb(0%,0%,0%);stroke-opacity:1;stroke-miterlimit:10;" d="M 226 209 L 255.664062 209 L 267.664062 180.785156 L 279.664062 209 L 309.332031 209 L 285.332031 226.4375 L 293.417969 257.980469 L 267.664062 240.542969 L 241.914062 257.980469 L 254.214844 226.4375 L 226 209 "/>
<path style="fill-rule:nonzero;fill:rgb(53%,27%,7%);fill-opacity:1;stroke-width:1;stroke-linecap:butt;stroke-linejoin:miter;stroke:rgb(0%,0%,0%);stroke-opacity:1;stroke-miterlimit:10;" d="M 219 405 L 248.664062 405 L 260.664062 376.785156 L 272.664062 405 L 302.332031 405 L 278.332031 422.4375 L 286.417969 453.980469 L 260.664062 436.542969 L 234.914062 453.980469 L 247.214844 422.4375 L 219 405 "/>
<path style="fill-rule:nonzero;fill:rgb(53%,27%,7%);fill-opacity:1;stroke-width:1;stroke-linecap:butt;stroke-linejoin:miter;stroke:rgb(0%,0%,0%);stroke-opacity:1;stroke-miterlimit:10;" d="M 287 280 L 316.664062 280 L 328.664062 251.785156 L 340.664062 280 L 370.332031 280 L 346.332031 297.4375 L 354.417969 328.980469 L 328.664062 311.542969 L 302.914062 328.980469 L 315.214844 297.4375 L 287 280 "/>
<path style="fill-rule:nonzero;fill:rgb(55%,51%,53%);fill-opacity:1;stroke-width:1;stroke-linecap:butt;stroke-linejoin:miter;stroke:rgb(0%,0%,0%);stroke-opacity:1;stroke-miterlimit:10;" d="M 789 320 L 818.664062 320 L 830.664062 291.785156 L 842.664062 320 L 872.332031 320 L 848.332031 337.4375 L 856.417969 368.980469 L 830.664062 351.542969 L 804.914062 368.980469 L 817.214844 337.4375 L 789 320 "/>
<path style="fill-rule:nonzero;fill:rgb(55%,51%,53%);fill-opacity:1;stroke-width:1;stroke-linecap:butt;stroke-linejoin:miter;stroke:rgb(0%,0%,0%);stroke-opacity:1;stroke-miterlimit:10;" d="M 796 425 L 825.664062 425 L 837.664062 396.785156 L 849.664062 425 L 879.332031 425 L 855.332031 442.4375 L 863.417969 473.980469 L 837.664062 456.542969 L 811.914062 473.980469 L 824.214844 442.4375 L 796 425 "/>
<path style="fill-rule:nonzero;fill:rgb(53%,27%,7%);fill-opacity:1;stroke-width:1;stroke-linecap:butt;stroke-linejoin:miter;stroke:rgb(0%,0%,0%);stroke-opacity:1;stroke-miterlimit:10;" d="M 857 148 L 886.664062 148 L 898.664062 119.785156 L 910.664062 148 L 940.332031 148 L 916.332031 165.4375 L 924.417969 196.980469 L 898.664062 179.542969 L 872.914062 196.980469 L 885.214844 165.4375 L 857 148 "/>
<path style="fill-rule:nonzero;fill:rgb(53%,27%,7%);fill-opacity:1;stroke-width:1;stroke-linecap:butt;stroke-linejoin:miter;stroke:rgb(0%,0%,0%);stroke-opacity:1;stroke-miterlimit:10;" d="M 784 213 L 813.664062 213 L 825.664062 184.785156 L 837.664062 213 L 867.332031 213 L 843.332031 230.4375 L 851.417969 261.980469 L 825.664062 244.542969 L 799.914062 261.980469 L 812.214844 230.4375 L 784 213 "/>
<path style="fill-rule:nonzero;fill:rgb(53%,27%,7%);fill-opacity:1;stroke-width:1;stroke-linecap:butt;stroke-linejoin:miter;stroke:rgb(0%,0%,0%);stroke-opacity:1;stroke-miterlimit:10;" d="M 888 331 L 917.664062 331 L 929.664062 302.785156 L 941.664062 331 L 971.332031 331 L 947.332031 348.4375 L 955.417969 379.980469 L 929.664062 362.542969 L 903.914062 379.980469 L 916.214844 348.4375 L 888 331 "/>
<path style="fill-rule:nonzero;fill:rgb(55%,51%,53%);fill-opacity:1;stroke-width:1;stroke-linecap:butt;stroke-linejoin:miter;stroke:rgb(0%,0%,0%);stroke-opacity:1;stroke-miterlimit:10;" d="M 991 260 L 1020.664062 260 L 1032.664062 231.785156 L 1044.664062 260 L 1074.332031 260 L 1050.332031 277.4375 L 1058.417969 308.980469 L 1032.664062 291.542969 L 1006.914062 308.980469 L 1019.214844 277.4375 L 991 260 "/>
<path style="fill-rule:nonzero;fill:rgb(53%,27%,7%);fill-opacity:1;stroke-width:1;stroke-linecap:butt;stroke-linejoin:miter;stroke:rgb(0%,0%,0%);stroke-opacity:1;stroke-miterlimit:10;" d="M 756 116 L 785.664062 116 L 797.664062 87.785156 L 809.664062 116 L 839.332031 116 L 815.332031 133.4375 L 823.417969 164.980469 L 797.664062 147.542969 L 771.914062 164.980469 L 784.214844 133.4375 L 756 116 "/>
<path style="fill-rule:nonzero;fill:rgb(55%,51%,53%);fill-opacity:1;stroke-width:1;stroke-linecap:butt;stroke-linejoin:miter;stroke:rgb(0%,0%,0%);stroke-opacity:1;stroke-miterlimit:10;" d="M 1043 160 L 1072.664062 160 L 1084.664062 131.785156 L 1096.664062 160 L 1126.332031 160 L 1102.332031 177.4375 L 1110.417969 208.980469 L 1084.664062 191.542969 L 1058.914062 208.980469 L 1071.214844 177.4375 L 1043 160 "/>
</g>
</svg>
