<?xml version="1.0" encoding="UTF-8"?>
<svg xmlns="http://www.w3.org/2000/svg" xmlns:xlink="http://www.w3.org/1999/xlink" width="1179pt" height="517pt" viewBox="0 0 1179 517" version="1.1">
<g id="surface1301">
<rect x="0" y="0" width="1179" height="517" style="fill:rgb(90%,90%,90%);fill-opacity:1;stroke:none;"/>
<path style="fill-rule:nonzero;fill:rgb(53%,27%,7%);fill-opacity:1;stroke-width:1;stroke-linecap:butt;stroke-linejoin:miter;stroke:rgb(0%,0%,0%);stroke-opacity:1;stroke-miterlimit:10;" d="M 573 318 L 547.019531 363 L 598.980469 363 L 573 318 "/>
<path style="fill-rule:nonzero;fill:rgb(53%,27%,7%);fill-opacity:1;stroke-width:1;stroke-linecap:butt;stroke-linejoin:miter;stroke:rgb(0%,0%,0%);stroke-opacity:1;stroke-miterlimit:10;" d="M 1017 154 L 991.019531 199 L 1042.980469 199 L 1017 154 "/>
<path style="fill-rule:nonzero;fill:rgb(53%,27%,7%);fill-opacity:1;stroke-width:1;stroke-linecap:butt;stroke-linejoin:miter;stroke:rgb(0%,0%,0%);stroke-opacity:1;stroke-miterlimit:10;" d="M 784 399 L 758.019531 444 L 809.980469 444 L 784 399 "/>
<path style="fill-rule:nonzero;fill:rgb(53%,27%,7%);fill-opacity:1;stroke-width:1;stroke-linecap:butt;stroke-linejoin:miter;stroke:rgb(0%,0%,0%);stroke-opacity:1;stroke-miterlimit:10;" d="M 312 88 L 286.019531 133 L 337.980469 133 L 312 88 "/>
<path style="fill-rule:nonzero;fill:rgb(35%,70%,90%);fill-opacity:1;stroke-width:1;stroke-linecap:butt;stroke-linejoin:miter;stroke:rgb(0%,0%,0%);stroke-opacity:1;stroke-miterlimit:10;" d="M 360 392 L 389.664062 392 L 401.664062 363.785156 L 413.664062 392 L 443.332031 392 L 419.332031 409.4375 L 427.417969 440.980469 L 401.664062 423.542969 L 375.914062 440.980469 L 388.214844 409.4375 L 360 392 "/>
<path style="fill-rule:nonzero;fill:rgb(35%,70%,90%);fill-opacity:1;stroke-width:1;stroke-linecap:butt;stroke-linejoin:miter;stroke:rgb(0%,0%,0%);stroke-opacity:1;stroke-miterlimit:10;" d="M 681 218 L 710.664062 218 L 722.664062 189.785156 L 734.664062 218 L 764.332031 218 L 740.332031 235.4375 L 748.417969 266.980469 L 722.664062 249.542969 L 696.914062 266.980469 L 709.214844 235.4375 L 681 218 "/>
<path style="fill-rule:nonzero;fill:rgb(35%,70%,90%);fill-opacity:1;stroke-width:1;stroke-linecap:butt;stroke-linejoin:miter;stroke:rgb(0%,0%,0%);stroke-opacity:1;stroke-miterlimit:10;" d="M 859 242 L 888.664062 242 L 900.664062 213.785156 L 912.664062 242 L 942.332031 242 L 918.332031 259.4375 L 926.417969 290.980469 L 900.664062 273.542969 L 874.914062 290.980469 L 887.214844 259.4375 L 859 242 "/>
<path style="fill-rule:nonzero;fill:rgb(35%,70%,90%);fill-opacity:1;stroke-width:1;stroke-linecap:butt;stroke-linejoin:miter;stroke:rgb(0%,0%,0%);stroke-opacity:1;stroke-miterlimit:10;" d="M 533 138 L 562.664062 138 L 574.664062 109.785156 L 586.664062 138 L 616.332031 138 L 592.332031 155.4375 L 600.417969 186.980469 L 574.664062 169.542969 L 548.914062 186.980469 L 561.214844 155.4375 L 533 138 "/>
<path style="fill-rule:nonzero;fill:rgb(35%,70%,90%);fill-opacity:1;stroke-width:1;stroke-linecap:butt;stroke-linejoin:miter;stroke:rgb(0%,0%,0%);stroke-opacity:1;stroke-miterlimit:10;" d="M 125 165 L 154.664062 165 L 166.664062 136.785156 L 178.664062 165 L 208.332031 165 L 184.332031 182.4375 L 192.417969 213.980469 L 166.664062 196.542969 L 140.914062 213.980469 L 153.214844 182.4375 L 125 165 "/>
</g>
</svg>
