<?xml version="1.0" encoding="UTF-8"?>
<svg xmlns="http://www.w3.org/2000/svg" xmlns:xlink="http://www.w3.org/1999/xlink" width="1179pt" height="517pt" viewBox="0 0 1179 517" version="1.1">
<g id="surface796">
<rect x="0" y="0" width="1179" height="517" style="fill:rgb(90%,90%,90%);fill-opacity:1;stroke:none;"/>
<path style="fill-rule:nonzero;fill:rgb(55%,51%,53%);fill-opacity:1;stroke-width:1;stroke-linecap:butt;stroke-linejoin:miter;stroke:rgb(0%,0%,0%);stroke-opacity:1;stroke-miterlimit:10;" d="M 196.214844 210 C 196.214844 221.714844 186.714844 231.214844 175 231.214844 C 163.285156 231.214844 153.785156 221.714844 153.785156 210 C 153.785156 198.285156 163.285156 188.785156 175 188.785156 C 186.714844 188.785156 196.214844 198.285156 196.214844 210 "/>
<path style="fill-rule:nonzero;fill:rgb(67%,100%,18%);fill-opacity:1;stroke-width:1;stroke-linecap:butt;stroke-linejoin:miter;stroke:rgb(0%,0%,0%);stroke-opacity:1;stroke-miterlimit:10;" d="M 174.214844 375 C 174.214844 386.714844 164.714844 396.214844 153 396.214844 C 141.285156 396.214844 131.785156 386.714844 131.785156 375 C 131.785156 363.285156 141.285156 353.785156 153 353.785156 C 164.714844 353.785156 174.214844 363.285156 174.214844 375 "/>
<path style="fill-rule:nonzero;fill:rgb(67%,100%,18%);fill-opacity:1;stroke-width:1;stroke-linecap:butt;stroke-linejoin:miter;stroke:rgb(0%,0%,0%);stroke-opacity:1;stroke-miterlimit:10;" d="M 385.214844 229 C 385.214844 240.714844 375.714844 250.214844 364 250.214844 C 352.285156 250.214844 342.785156 240.714844 342.785156 229 C 342.785156 217.285156 352.285156 207.785156 364 207.785156 C 375.714844 207.785156 385.214844 217.285156 385.214844 229 "/>
<path style="fill-rule:nonzero;fill:rgb(55%,51%,53%);fill-opacity:1;stroke-width:1;stroke-linecap:butt;stroke-linejoin:miter;stroke:rgb(0%,0%,0%);stroke-opacity:1;stroke-miterlimit:10;" d="M 124.214844 120 C 124.214844 131.714844 114.714844 141.214844 103 141.214844 C 91.285156 141.214844 81.785156 131.714844 81.785156 120 C 81.785156 108.285156 91.285156 98.785156 103 98.785156 C 114.714844 98.785156 124.214844 108.285156 124.214844 120 "/>
<path style="fill-rule:nonzero;fill:rgb(67%,100%,18%);fill-opacity:1;stroke-width:1;stroke-linecap:butt;stroke-linejoin:miter;stroke:rgb(0%,0%,0%);stroke-opacity:1;stroke-miterlimit:10;" d="M 929 218 L 903.019531 263 L 954.980469 263 L 929 218 "/>
<path style="fill-rule:nonzero;fill:rgb(55%,51%,53%);fill-opacity:1;stroke-width:1;stroke-linecap:butt;stroke-linejoin:miter;stroke:rgb(0%,0%,0%);stroke-opacity:1;stroke-miterlimit:10;" d="M 768 345 L 742.019531 390 L 793.980469 390 L 768 345 "/>
<path style="fill-rule:nonzero;fill:rgb(55%,51%,53%);fill-opacity:1;stroke-width:1;stroke-linecap:butt;stroke-linejoin:miter;stroke:rgb(0%,0%,0%);stroke-opacity:1;stroke-miterlimit:10;" d="M 1012 54 L 986.019531 99 L 1037.980469 99 L 1012 54 "/>
<path style="fill-rule:nonzero;fill:rgb(67%,100%,18%);fill-opacity:1;stroke-width:1;stroke-linecap:butt;stroke-linejoin:miter;stroke:rgb(0%,0%,0%);stroke-opacity:1;stroke-miterlimit:10;" d="M 707 205 L 681.019531 250 L 732.980469 250 L 707 205 "/>
<path style="fill-rule:nonzero;fill:rgb(67%,100%,18%);fill-opacity:1;stroke-width:1;stroke-linecap:butt;stroke-linejoin:miter;stroke:rgb(0%,0%,0%);stroke-opacity:1;stroke-miterlimit:10;" d="M 723 52 L 697.019531 97 L 748.980469 97 L 723 52 "/>
</g>
</svg>
