<?xml version="1.0" encoding="UTF-8"?>
<svg xmlns="http://www.w3.org/2000/svg" xmlns:xlink="http://www.w3.org/1999/xlink" width="1179pt" height="517pt" viewBox="0 0 1179 517" version="1.1">
<g id="surface1196">
<rect x="0" y="0" width="1179" height="517" style="fill:rgb(90%,90%,90%);fill-opacity:1;stroke:none;"/>
<path style="fill-rule:nonzero;fill:rgb(55%,51%,53%);fill-opacity:1;stroke-width:1;stroke-linecap:butt;stroke-linejoin:miter;stroke:rgb(0%,0%,0%);stroke-opacity:1;stroke-miterlimit:10;" d="M 342 413.601562 C 342 399.199219 318 399.199219 318 413.601562 C 318 428 342 430.398438 342 442.398438 C 342 430.398438 366 428 366 413.601562 C 366 399.199219 342 399.199219 342 413.601562 "/>
<path style="fill-rule:nonzero;fill:rgb(55%,51%,53%);fill-opacity:1;stroke-width:1;stroke-linecap:butt;stroke-linejoin:miter;stroke:rgb(0%,0%,0%);stroke-opacity:1;stroke-miterlimit:10;" d="M 792 80.601562 C 792 66.199219 768 66.199219 768 80.601562 C 768 95 792 97.398438 792 109.398438 C 792 97.398438 816 95 816 80.601562 C 816 66.199219 792 66.199219 792 80.601562 "/>
<path style="fill-rule:nonzero;fill:rgb(55%,51%,53%);fill-opacity:1;stroke-width:1;stroke-linecap:butt;stroke-linejoin:miter;stroke:rgb(0%,0%,0%);stroke-opacity:1;stroke-miterlimit:10;" d="M 346 108.601562 C 346 94.199219 322 94.199219 322 108.601562 C 322 123 346 125.398438 346 137.398438 C 346 125.398438 370 123 370 108.601562 C 370 94.199219 346 94.199219 346 108.601562 "/>
<path style="fill-rule:nonzero;fill:rgb(55%,51%,53%);fill-opacity:1;stroke-width:1;stroke-linecap:butt;stroke-linejoin:miter;stroke:rgb(0%,0%,0%);stroke-opacity:1;stroke-miterlimit:10;" d="M 661 305.601562 C 661 291.199219 637 291.199219 637 305.601562 C 637 320 661 322.398438 661 334.398438 C 661 322.398438 685 320 685 305.601562 C 685 291.199219 661 291.199219 661 305.601562 "/>
<path style="fill-rule:nonzero;fill:rgb(53%,27%,7%);fill-opacity:1;stroke-width:1;stroke-linecap:butt;stroke-linejoin:miter;stroke:rgb(0%,0%,0%);stroke-opacity:1;stroke-miterlimit:10;" d="M 397 310 L 426.664062 310 L 438.664062 281.785156 L 450.664062 310 L 480.332031 310 L 456.332031 327.4375 L 464.417969 358.980469 L 438.664062 341.542969 L 412.914062 358.980469 L 425.214844 327.4375 L 397 310 "/>
<path style="fill-rule:nonzero;fill:rgb(53%,27%,7%);fill-opacity:1;stroke-width:1;stroke-linecap:butt;stroke-linejoin:miter;stroke:rgb(0%,0%,0%);stroke-opacity:1;stroke-miterlimit:10;" d="M 571 419 L 600.664062 419 L 612.664062 390.785156 L 624.664062 419 L 654.332031 419 L 630.332031 436.4375 L 638.417969 467.980469 L 612.664062 450.542969 L 586.914062 467.980469 L 599.214844 436.4375 L 571 419 "/>
<path style="fill-rule:nonzero;fill:rgb(53%,27%,7%);fill-opacity:1;stroke-width:1;stroke-linecap:butt;stroke-linejoin:miter;stroke:rgb(0%,0%,0%);stroke-opacity:1;stroke-miterlimit:10;" d="M 970 298 L 999.664062 298 L 1011.664062 269.785156 L 1023.664062 298 L 1053.332031 298 L 1029.332031 315.4375 L 1037.417969 346.980469 L 1011.664062 329.542969 L 985.914062 346.980469 L 998.214844 315.4375 L 970 298 "/>
<path style="fill-rule:nonzero;fill:rgb(53%,27%,7%);fill-opacity:1;stroke-width:1;stroke-linecap:butt;stroke-linejoin:miter;stroke:rgb(0%,0%,0%);stroke-opacity:1;stroke-miterlimit:10;" d="M 551 105 L 580.664062 105 L 592.664062 76.785156 L 604.664062 105 L 634.332031 105 L 610.332031 122.4375 L 618.417969 153.980469 L 592.664062 136.542969 L 566.914062 153.980469 L 579.214844 122.4375 L 551 105 "/>
</g>
</svg>
