<?xml version="1.0" encoding="UTF-8"?>
<svg xmlns="http://www.w3.org/2000/svg" xmlns:xlink="http://www.w3.org/1999/xlink" width="1179pt" height="517pt" viewBox="0 0 1179 517" version="1.1">
<g id="surface141">
<rect x="0" y="0" width="1179" height="517" style="fill:rgb(90%,90%,90%);fill-opacity:1;stroke:none;"/>
<path style="fill-rule:nonzero;fill:rgb(100%,51%,0%);fill-opacity:1;stroke-width:1;stroke-linecap:butt;stroke-linejoin:miter;stroke:rgb(0%,0%,0%);stroke-opacity:1;stroke-miterlimit:10;" d="M 232.214844 177 C 232.214844 188.714844 222.714844 198.214844 211 198.214844 C 199.285156 198.214844 189.785156 188.714844 189.785156 177 C 189.785156 165.285156 199.285156 155.785156 211 155.785156 C 222.714844 155.785156 232.214844 165.285156 232.214844 177 "/>
<path style="fill-rule:nonzero;fill:rgb(100%,51%,0%);fill-opacity:1;stroke-width:1;stroke-linecap:butt;stroke-linejoin:miter;stroke:rgb(0%,0%,0%);stroke-opacity:1;stroke-miterlimit:10;" d="M 315.214844 350 C 315.214844 361.714844 305.714844 371.214844 294 371.214844 C 282.285156 371.214844 272.785156 361.714844 272.785156 350 C 272.785156 338.285156 282.285156 328.785156 294 328.785156 C 305.714844 328.785156 315.214844 338.285156 315.214844 350 "/>
<path style="fill-rule:nonzero;fill:rgb(55%,51%,53%);fill-opacity:1;stroke-width:1;stroke-linecap:butt;stroke-linejoin:miter;stroke:rgb(0%,0%,0%);stroke-opacity:1;stroke-miterlimit:10;" d="M 434.214844 233 C 434.214844 244.714844 424.714844 254.214844 413 254.214844 C 401.285156 254.214844 391.785156 244.714844 391.785156 233 C 391.785156 221.285156 401.285156 211.785156 413 211.785156 C 424.714844 211.785156 434.214844 221.285156 434.214844 233 "/>
<path style="fill-rule:nonzero;fill:rgb(55%,51%,53%);fill-opacity:1;stroke-width:1;stroke-linecap:butt;stroke-linejoin:miter;stroke:rgb(0%,0%,0%);stroke-opacity:1;stroke-miterlimit:10;" d="M 278.214844 99 C 278.214844 110.714844 268.714844 120.214844 257 120.214844 C 245.285156 120.214844 235.785156 110.714844 235.785156 99 C 235.785156 87.285156 245.285156 77.785156 257 77.785156 C 268.714844 77.785156 278.214844 87.285156 278.214844 99 "/>
<path style="fill-rule:nonzero;fill:rgb(100%,51%,0%);fill-opacity:1;stroke-width:1;stroke-linecap:butt;stroke-linejoin:miter;stroke:rgb(0%,0%,0%);stroke-opacity:1;stroke-miterlimit:10;" d="M 443.214844 101 C 443.214844 112.714844 433.714844 122.214844 422 122.214844 C 410.285156 122.214844 400.785156 112.714844 400.785156 101 C 400.785156 89.285156 410.285156 79.785156 422 79.785156 C 433.714844 79.785156 443.214844 89.285156 443.214844 101 "/>
<path style="fill-rule:nonzero;fill:rgb(55%,51%,53%);fill-opacity:1;stroke-width:1;stroke-linecap:butt;stroke-linejoin:miter;stroke:rgb(0%,0%,0%);stroke-opacity:1;stroke-miterlimit:10;" d="M 972.785156 367.785156 L 972.785156 410.214844 L 1015.214844 410.214844 L 1015.214844 367.785156 L 972.785156 367.785156 "/>
<path style="fill-rule:nonzero;fill:rgb(55%,51%,53%);fill-opacity:1;stroke-width:1;stroke-linecap:butt;stroke-linejoin:miter;stroke:rgb(0%,0%,0%);stroke-opacity:1;stroke-miterlimit:10;" d="M 835.785156 410.785156 L 835.785156 453.214844 L 878.214844 453.214844 L 878.214844 410.785156 L 835.785156 410.785156 "/>
<path style="fill-rule:nonzero;fill:rgb(100%,51%,0%);fill-opacity:1;stroke-width:1;stroke-linecap:butt;stroke-linejoin:miter;stroke:rgb(0%,0%,0%);stroke-opacity:1;stroke-miterlimit:10;" d="M 840.785156 240.785156 L 840.785156 283.214844 L 883.214844 283.214844 L 883.214844 240.785156 L 840.785156 240.785156 "/>
</g>
</svg>
