<?xml version="1.0" encoding="UTF-8"?>
<svg xmlns="http://www.w3.org/2000/svg" xmlns:xlink="http://www.w3.org/1999/xlink" width="1179pt" height="517pt" viewBox="0 0 1179 517" version="1.1">
<g id="surface1001">
<rect x="0" y="0" width="1179" height="517" style="fill:rgb(90%,90%,90%);fill-opacity:1;stroke:none;"/>
<path style="fill-rule:nonzero;fill:rgb(35%,70%,90%);fill-opacity:1;stroke-width:1;stroke-linecap:butt;stroke-linejoin:miter;stroke:rgb(0%,0%,0%);stroke-opacity:1;stroke-miterlimit:10;" d="M 340.214844 274 C 340.214844 285.714844 330.714844 295.214844 319 295.214844 C 307.285156 295.214844 297.785156 285.714844 297.785156 274 C 297.785156 262.285156 307.285156 252.785156 319 252.785156 C 330.714844 252.785156 340.214844 262.285156 340.214844 274 "/>
<path style="fill-rule:nonzero;fill:rgb(35%,70%,90%);fill-opacity:1;stroke-width:1;stroke-linecap:butt;stroke-linejoin:miter;stroke:rgb(0%,0%,0%);stroke-opacity:1;stroke-miterlimit:10;" d="M 651.214844 230 C 651.214844 241.714844 641.714844 251.214844 630 251.214844 C 618.285156 251.214844 608.785156 241.714844 608.785156 230 C 608.785156 218.285156 618.285156 208.785156 630 208.785156 C 641.714844 208.785156 651.214844 218.285156 651.214844 230 "/>
<path style="fill-rule:nonzero;fill:rgb(35%,70%,90%);fill-opacity:1;stroke-width:1;stroke-linecap:butt;stroke-linejoin:miter;stroke:rgb(0%,0%,0%);stroke-opacity:1;stroke-miterlimit:10;" d="M 893.214844 345 C 893.214844 356.714844 883.714844 366.214844 872 366.214844 C 860.285156 366.214844 850.785156 356.714844 850.785156 345 C 850.785156 333.285156 860.285156 323.785156 872 323.785156 C 883.714844 323.785156 893.214844 333.285156 893.214844 345 "/>
<path style="fill-rule:nonzero;fill:rgb(35%,70%,90%);fill-opacity:1;stroke-width:1;stroke-linecap:butt;stroke-linejoin:miter;stroke:rgb(0%,0%,0%);stroke-opacity:1;stroke-miterlimit:10;" d="M 542.214844 357 C 542.214844 368.714844 532.714844 378.214844 521 378.214844 C 509.285156 378.214844 499.785156 368.714844 499.785156 357 C 499.785156 345.285156 509.285156 335.785156 521 335.785156 C 532.714844 335.785156 542.214844 345.285156 542.214844 357 "/>
<path style="fill-rule:nonzero;fill:rgb(55%,51%,53%);fill-opacity:1;stroke-width:1;stroke-linecap:butt;stroke-linejoin:miter;stroke:rgb(0%,0%,0%);stroke-opacity:1;stroke-miterlimit:10;" d="M 745 267 L 774.664062 267 L 786.664062 238.785156 L 798.664062 267 L 828.332031 267 L 804.332031 284.4375 L 812.417969 315.980469 L 786.664062 298.542969 L 760.914062 315.980469 L 773.214844 284.4375 L 745 267 "/>
<path style="fill-rule:nonzero;fill:rgb(55%,51%,53%);fill-opacity:1;stroke-width:1;stroke-linecap:butt;stroke-linejoin:miter;stroke:rgb(0%,0%,0%);stroke-opacity:1;stroke-miterlimit:10;" d="M 448 94 L 477.664062 94 L 489.664062 65.785156 L 501.664062 94 L 531.332031 94 L 507.332031 111.4375 L 515.417969 142.980469 L 489.664062 125.542969 L 463.914062 142.980469 L 476.214844 111.4375 L 448 94 "/>
<path style="fill-rule:nonzero;fill:rgb(55%,51%,53%);fill-opacity:1;stroke-width:1;stroke-linecap:butt;stroke-linejoin:miter;stroke:rgb(0%,0%,0%);stroke-opacity:1;stroke-miterlimit:10;" d="M 780 119 L 809.664062 119 L 821.664062 90.785156 L 833.664062 119 L 863.332031 119 L 839.332031 136.4375 L 847.417969 167.980469 L 821.664062 150.542969 L 795.914062 167.980469 L 808.214844 136.4375 L 780 119 "/>
<path style="fill-rule:nonzero;fill:rgb(55%,51%,53%);fill-opacity:1;stroke-width:1;stroke-linecap:butt;stroke-linejoin:miter;stroke:rgb(0%,0%,0%);stroke-opacity:1;stroke-miterlimit:10;" d="M 169 98 L 198.664062 98 L 210.664062 69.785156 L 222.664062 98 L 252.332031 98 L 228.332031 115.4375 L 236.417969 146.980469 L 210.664062 129.542969 L 184.914062 146.980469 L 197.214844 115.4375 L 169 98 "/>
</g>
</svg>
