<?xml version="1.0" encoding="UTF-8"?>
<svg xmlns="http://www.w3.org/2000/svg" xmlns:xlink="http://www.w3.org/1999/xlink" width="1179pt" height="517pt" viewBox="0 0 1179 517" version="1.1">
<g id="surface221">
<rect x="0" y="0" width="1179" height="517" style="fill:rgb(90%,90%,90%);fill-opacity:1;stroke:none;"/>
<path style="fill-rule:nonzero;fill:rgb(35%,70%,90%);fill-opacity:1;stroke-width:1;stroke-linecap:butt;stroke-linejoin:miter;stroke:rgb(0%,0%,0%);stroke-opacity:1;stroke-miterlimit:10;" d="M 385 317 L 414.664062 317 L 426.664062 288.785156 L 438.664062 317 L 468.332031 317 L 444.332031 334.4375 L 452.417969 365.980469 L 426.664062 348.542969 L 400.914062 365.980469 L 413.214844 334.4375 L 385 317 "/>
<path style="fill-rule:nonzero;fill:rgb(35%,70%,90%);fill-opacity:1;stroke-width:1;stroke-linecap:butt;stroke-linejoin:miter;stroke:rgb(0%,0%,0%);stroke-opacity:1;stroke-miterlimit:10;" d="M 268 171 L 297.664062 171 L 309.664062 142.785156 L 321.664062 171 L 351.332031 171 L 327.332031 188.4375 L 335.417969 219.980469 L 309.664062 202.542969 L 283.914062 219.980469 L 296.214844 188.4375 L 268 171 "/>
<path style="fill-rule:nonzero;fill:rgb(35%,70%,90%);fill-opacity:1;stroke-width:1;stroke-linecap:butt;stroke-linejoin:miter;stroke:rgb(0%,0%,0%);stroke-opacity:1;stroke-miterlimit:10;" d="M 289 267 L 318.664062 267 L 330.664062 238.785156 L 342.664062 267 L 372.332031 267 L 348.332031 284.4375 L 356.417969 315.980469 L 330.664062 298.542969 L 304.914062 315.980469 L 317.214844 284.4375 L 289 267 "/>
<path style="fill-rule:nonzero;fill:rgb(53%,27%,7%);fill-opacity:1;stroke-width:1;stroke-linecap:butt;stroke-linejoin:miter;stroke:rgb(0%,0%,0%);stroke-opacity:1;stroke-miterlimit:10;" d="M 86 285 L 115.664062 285 L 127.664062 256.785156 L 139.664062 285 L 169.332031 285 L 145.332031 302.4375 L 153.417969 333.980469 L 127.664062 316.542969 L 101.914062 333.980469 L 114.214844 302.4375 L 86 285 "/>
<path style="fill-rule:nonzero;fill:rgb(53%,27%,7%);fill-opacity:1;stroke-width:1;stroke-linecap:butt;stroke-linejoin:miter;stroke:rgb(0%,0%,0%);stroke-opacity:1;stroke-miterlimit:10;" d="M 908.785156 202.785156 L 908.785156 245.214844 L 951.214844 245.214844 L 951.214844 202.785156 L 908.785156 202.785156 "/>
<path style="fill-rule:nonzero;fill:rgb(53%,27%,7%);fill-opacity:1;stroke-width:1;stroke-linecap:butt;stroke-linejoin:miter;stroke:rgb(0%,0%,0%);stroke-opacity:1;stroke-miterlimit:10;" d="M 696.785156 272.785156 L 696.785156 315.214844 L 739.214844 315.214844 L 739.214844 272.785156 L 696.785156 272.785156 "/>
<path style="fill-rule:nonzero;fill:rgb(53%,27%,7%);fill-opacity:1;stroke-width:1;stroke-linecap:butt;stroke-linejoin:miter;stroke:rgb(0%,0%,0%);stroke-opacity:1;stroke-miterlimit:10;" d="M 924.785156 380.785156 L 924.785156 423.214844 L 967.214844 423.214844 L 967.214844 380.785156 L 924.785156 380.785156 "/>
</g>
</svg>
