<?xml version="1.0" encoding="UTF-8"?>
<svg xmlns="http://www.w3.org/2000/svg" xmlns:xlink="http://www.w3.org/1999/xlink" width="1179pt" height="517pt" viewBox="0 0 1179 517" version="1.1">
<g id="surface196">
<rect x="0" y="0" width="1179" height="517" style="fill:rgb(90%,90%,90%);fill-opacity:1;stroke:none;"/>
<path style="fill-rule:nonzero;fill:rgb(35%,70%,90%);fill-opacity:1;stroke-width:1;stroke-linecap:butt;stroke-linejoin:miter;stroke:rgb(0%,0%,0%);stroke-opacity:1;stroke-miterlimit:10;" d="M 305.214844 118 C 305.214844 129.714844 295.714844 139.214844 284 139.214844 C 272.285156 139.214844 262.785156 129.714844 262.785156 118 C 262.785156 106.285156 272.285156 96.785156 284 96.785156 C 295.714844 96.785156 305.214844 106.285156 305.214844 118 "/>
<path style="fill-rule:nonzero;fill:rgb(100%,51%,0%);fill-opacity:1;stroke-width:1;stroke-linecap:butt;stroke-linejoin:miter;stroke:rgb(0%,0%,0%);stroke-opacity:1;stroke-miterlimit:10;" d="M 145.214844 243 C 145.214844 254.714844 135.714844 264.214844 124 264.214844 C 112.285156 264.214844 102.785156 254.714844 102.785156 243 C 102.785156 231.285156 112.285156 221.785156 124 221.785156 C 135.714844 221.785156 145.214844 231.285156 145.214844 243 "/>
<path style="fill-rule:nonzero;fill:rgb(35%,70%,90%);fill-opacity:1;stroke-width:1;stroke-linecap:butt;stroke-linejoin:miter;stroke:rgb(0%,0%,0%);stroke-opacity:1;stroke-miterlimit:10;" d="M 312.214844 420 C 312.214844 431.714844 302.714844 441.214844 291 441.214844 C 279.285156 441.214844 269.785156 431.714844 269.785156 420 C 269.785156 408.285156 279.285156 398.785156 291 398.785156 C 302.714844 398.785156 312.214844 408.285156 312.214844 420 "/>
<path style="fill-rule:nonzero;fill:rgb(100%,51%,0%);fill-opacity:1;stroke-width:1;stroke-linecap:butt;stroke-linejoin:miter;stroke:rgb(0%,0%,0%);stroke-opacity:1;stroke-miterlimit:10;" d="M 104.214844 135 C 104.214844 146.714844 94.714844 156.214844 83 156.214844 C 71.285156 156.214844 61.785156 146.714844 61.785156 135 C 61.785156 123.285156 71.285156 113.785156 83 113.785156 C 94.714844 113.785156 104.214844 123.285156 104.214844 135 "/>
<path style="fill-rule:nonzero;fill:rgb(35%,70%,90%);fill-opacity:1;stroke-width:1;stroke-linecap:butt;stroke-linejoin:miter;stroke:rgb(0%,0%,0%);stroke-opacity:1;stroke-miterlimit:10;" d="M 287.214844 265 C 287.214844 276.714844 277.714844 286.214844 266 286.214844 C 254.285156 286.214844 244.785156 276.714844 244.785156 265 C 244.785156 253.285156 254.285156 243.785156 266 243.785156 C 277.714844 243.785156 287.214844 253.285156 287.214844 265 "/>
<path style="fill-rule:nonzero;fill:rgb(100%,51%,0%);fill-opacity:1;stroke-width:1;stroke-linecap:butt;stroke-linejoin:miter;stroke:rgb(0%,0%,0%);stroke-opacity:1;stroke-miterlimit:10;" d="M 929 385 L 903.019531 430 L 954.980469 430 L 929 385 "/>
<path style="fill-rule:nonzero;fill:rgb(35%,70%,90%);fill-opacity:1;stroke-width:1;stroke-linecap:butt;stroke-linejoin:miter;stroke:rgb(0%,0%,0%);stroke-opacity:1;stroke-miterlimit:10;" d="M 856 239 L 830.019531 284 L 881.980469 284 L 856 239 "/>
<path style="fill-rule:nonzero;fill:rgb(100%,51%,0%);fill-opacity:1;stroke-width:1;stroke-linecap:butt;stroke-linejoin:miter;stroke:rgb(0%,0%,0%);stroke-opacity:1;stroke-miterlimit:10;" d="M 817 119 L 791.019531 164 L 842.980469 164 L 817 119 "/>
<path style="fill-rule:nonzero;fill:rgb(35%,70%,90%);fill-opacity:1;stroke-width:1;stroke-linecap:butt;stroke-linejoin:miter;stroke:rgb(0%,0%,0%);stroke-opacity:1;stroke-miterlimit:10;" d="M 991 279 L 965.019531 324 L 1016.980469 324 L 991 279 "/>
<path style="fill-rule:nonzero;fill:rgb(100%,51%,0%);fill-opacity:1;stroke-width:1;stroke-linecap:butt;stroke-linejoin:miter;stroke:rgb(0%,0%,0%);stroke-opacity:1;stroke-miterlimit:10;" d="M 693 277 L 667.019531 322 L 718.980469 322 L 693 277 "/>
</g>
</svg>
