<?xml version="1.0" encoding="UTF-8"?>
<svg xmlns="http://www.w3.org/2000/svg" xmlns:xlink="http://www.w3.org/1999/xlink" width="1179pt" height="517pt" viewBox="0 0 1179 517" version="1.1">
<g id="surface1061">
<rect x="0" y="0" width="1179" height="517" style="fill:rgb(90%,90%,90%);fill-opacity:1;stroke:none;"/>
<path style="fill-rule:nonzero;fill:rgb(55%,51%,53%);fill-opacity:1;stroke-width:1;stroke-linecap:butt;stroke-linejoin:miter;stroke:rgb(0%,0%,0%);stroke-opacity:1;stroke-miterlimit:10;" d="M 150.214844 304 C 150.214844 315.714844 140.714844 325.214844 129 325.214844 C 117.285156 325.214844 107.785156 315.714844 107.785156 304 C 107.785156 292.285156 117.285156 282.785156 129 282.785156 C 140.714844 282.785156 150.214844 292.285156 150.214844 304 "/>
<path style="fill-rule:nonzero;fill:rgb(55%,51%,53%);fill-opacity:1;stroke-width:1;stroke-linecap:butt;stroke-linejoin:miter;stroke:rgb(0%,0%,0%);stroke-opacity:1;stroke-miterlimit:10;" d="M 755.214844 307 C 755.214844 318.714844 745.714844 328.214844 734 328.214844 C 722.285156 328.214844 712.785156 318.714844 712.785156 307 C 712.785156 295.285156 722.285156 285.785156 734 285.785156 C 745.714844 285.785156 755.214844 295.285156 755.214844 307 "/>
<path style="fill-rule:nonzero;fill:rgb(55%,51%,53%);fill-opacity:1;stroke-width:1;stroke-linecap:butt;stroke-linejoin:miter;stroke:rgb(0%,0%,0%);stroke-opacity:1;stroke-miterlimit:10;" d="M 956.214844 410 C 956.214844 421.714844 946.714844 431.214844 935 431.214844 C 923.285156 431.214844 913.785156 421.714844 913.785156 410 C 913.785156 398.285156 923.285156 388.785156 935 388.785156 C 946.714844 388.785156 956.214844 398.285156 956.214844 410 "/>
<path style="fill-rule:nonzero;fill:rgb(55%,51%,53%);fill-opacity:1;stroke-width:1;stroke-linecap:butt;stroke-linejoin:miter;stroke:rgb(0%,0%,0%);stroke-opacity:1;stroke-miterlimit:10;" d="M 141.214844 128 C 141.214844 139.714844 131.714844 149.214844 120 149.214844 C 108.285156 149.214844 98.785156 139.714844 98.785156 128 C 98.785156 116.285156 108.285156 106.785156 120 106.785156 C 131.714844 106.785156 141.214844 116.285156 141.214844 128 "/>
<path style="fill-rule:nonzero;fill:rgb(35%,70%,90%);fill-opacity:1;stroke-width:1;stroke-linecap:butt;stroke-linejoin:miter;stroke:rgb(0%,0%,0%);stroke-opacity:1;stroke-miterlimit:10;" d="M 446 329 L 420.019531 374 L 471.980469 374 L 446 329 "/>
<path style="fill-rule:nonzero;fill:rgb(35%,70%,90%);fill-opacity:1;stroke-width:1;stroke-linecap:butt;stroke-linejoin:miter;stroke:rgb(0%,0%,0%);stroke-opacity:1;stroke-miterlimit:10;" d="M 642 138 L 616.019531 183 L 667.980469 183 L 642 138 "/>
<path style="fill-rule:nonzero;fill:rgb(35%,70%,90%);fill-opacity:1;stroke-width:1;stroke-linecap:butt;stroke-linejoin:miter;stroke:rgb(0%,0%,0%);stroke-opacity:1;stroke-miterlimit:10;" d="M 320 278 L 294.019531 323 L 345.980469 323 L 320 278 "/>
</g>
</svg>
