<?xml version="1.0" encoding="UTF-8"?>
<svg xmlns="http://www.w3.org/2000/svg" xmlns:xlink="http://www.w3.org/1999/xlink" width="1179pt" height="517pt" viewBox="0 0 1179 517" version="1.1">
<g id="surface1306">
<rect x="0" y="0" width="1179" height="517" style="fill:rgb(90%,90%,90%);fill-opacity:1;stroke:none;"/>
<path style="fill-rule:nonzero;fill:rgb(35%,70%,90%);fill-opacity:1;stroke-width:1;stroke-linecap:butt;stroke-linejoin:miter;stroke:rgb(0%,0%,0%);stroke-opacity:1;stroke-miterlimit:10;" d="M 395 173.601562 C 395 159.199219 371 159.199219 371 173.601562 C 371 188 395 190.398438 395 202.398438 C 395 190.398438 419 188 419 173.601562 C 419 159.199219 395 159.199219 395 173.601562 "/>
<path style="fill-rule:nonzero;fill:rgb(35%,70%,90%);fill-opacity:1;stroke-width:1;stroke-linecap:butt;stroke-linejoin:miter;stroke:rgb(0%,0%,0%);stroke-opacity:1;stroke-miterlimit:10;" d="M 652 147.601562 C 652 133.199219 628 133.199219 628 147.601562 C 628 162 652 164.398438 652 176.398438 C 652 164.398438 676 162 676 147.601562 C 676 133.199219 652 133.199219 652 147.601562 "/>
<path style="fill-rule:nonzero;fill:rgb(35%,70%,90%);fill-opacity:1;stroke-width:1;stroke-linecap:butt;stroke-linejoin:miter;stroke:rgb(0%,0%,0%);stroke-opacity:1;stroke-miterlimit:10;" d="M 345 341.601562 C 345 327.199219 321 327.199219 321 341.601562 C 321 356 345 358.398438 345 370.398438 C 345 358.398438 369 356 369 341.601562 C 369 327.199219 345 327.199219 345 341.601562 "/>
<path style="fill-rule:nonzero;fill:rgb(35%,70%,90%);fill-opacity:1;stroke-width:1;stroke-linecap:butt;stroke-linejoin:miter;stroke:rgb(0%,0%,0%);stroke-opacity:1;stroke-miterlimit:10;" d="M 966 74.601562 C 966 60.199219 942 60.199219 942 74.601562 C 942 89 966 91.398438 966 103.398438 C 966 91.398438 990 89 990 74.601562 C 990 60.199219 966 60.199219 966 74.601562 "/>
<path style="fill-rule:nonzero;fill:rgb(35%,70%,90%);fill-opacity:1;stroke-width:1;stroke-linecap:butt;stroke-linejoin:miter;stroke:rgb(0%,0%,0%);stroke-opacity:1;stroke-miterlimit:10;" d="M 87 133.601562 C 87 119.199219 63 119.199219 63 133.601562 C 63 148 87 150.398438 87 162.398438 C 87 150.398438 111 148 111 133.601562 C 111 119.199219 87 119.199219 87 133.601562 "/>
<path style="fill-rule:nonzero;fill:rgb(53%,27%,7%);fill-opacity:1;stroke-width:1;stroke-linecap:butt;stroke-linejoin:miter;stroke:rgb(0%,0%,0%);stroke-opacity:1;stroke-miterlimit:10;" d="M 947.214844 375 C 947.214844 386.714844 937.714844 396.214844 926 396.214844 C 914.285156 396.214844 904.785156 386.714844 904.785156 375 C 904.785156 363.285156 914.285156 353.785156 926 353.785156 C 937.714844 353.785156 947.214844 363.285156 947.214844 375 "/>
<path style="fill-rule:nonzero;fill:rgb(53%,27%,7%);fill-opacity:1;stroke-width:1;stroke-linecap:butt;stroke-linejoin:miter;stroke:rgb(0%,0%,0%);stroke-opacity:1;stroke-miterlimit:10;" d="M 810.214844 213 C 810.214844 224.714844 800.714844 234.214844 789 234.214844 C 777.285156 234.214844 767.785156 224.714844 767.785156 213 C 767.785156 201.285156 777.285156 191.785156 789 191.785156 C 800.714844 191.785156 810.214844 201.285156 810.214844 213 "/>
<path style="fill-rule:nonzero;fill:rgb(53%,27%,7%);fill-opacity:1;stroke-width:1;stroke-linecap:butt;stroke-linejoin:miter;stroke:rgb(0%,0%,0%);stroke-opacity:1;stroke-miterlimit:10;" d="M 1045.214844 208 C 1045.214844 219.714844 1035.714844 229.214844 1024 229.214844 C 1012.285156 229.214844 1002.785156 219.714844 1002.785156 208 C 1002.785156 196.285156 1012.285156 186.785156 1024 186.785156 C 1035.714844 186.785156 1045.214844 196.285156 1045.214844 208 "/>
</g>
</svg>
