<?xml version="1.0" encoding="UTF-8"?>
<svg xmlns="http://www.w3.org/2000/svg" xmlns:xlink="http://www.w3.org/1999/xlink" width="1179pt" height="517pt" viewBox="0 0 1179 517" version="1.1">
<g id="surface1011">
<rect x="0" y="0" width="1179" height="517" style="fill:rgb(90%,90%,90%);fill-opacity:1;stroke:none;"/>
<path style="fill-rule:nonzero;fill:rgb(35%,70%,90%);fill-opacity:1;stroke-width:1;stroke-linecap:butt;stroke-linejoin:miter;stroke:rgb(0%,0%,0%);stroke-opacity:1;stroke-miterlimit:10;" d="M 267.214844 368 C 267.214844 379.714844 257.714844 389.214844 246 389.214844 C 234.285156 389.214844 224.785156 379.714844 224.785156 368 C 224.785156 356.285156 234.285156 346.785156 246 346.785156 C 257.714844 346.785156 267.214844 356.285156 267.214844 368 "/>
<path style="fill-rule:nonzero;fill:rgb(35%,70%,90%);fill-opacity:1;stroke-width:1;stroke-linecap:butt;stroke-linejoin:miter;stroke:rgb(0%,0%,0%);stroke-opacity:1;stroke-miterlimit:10;" d="M 984.214844 336 C 984.214844 347.714844 974.714844 357.214844 963 357.214844 C 951.285156 357.214844 941.785156 347.714844 941.785156 336 C 941.785156 324.285156 951.285156 314.785156 963 314.785156 C 974.714844 314.785156 984.214844 324.285156 984.214844 336 "/>
<path style="fill-rule:nonzero;fill:rgb(35%,70%,90%);fill-opacity:1;stroke-width:1;stroke-linecap:butt;stroke-linejoin:miter;stroke:rgb(0%,0%,0%);stroke-opacity:1;stroke-miterlimit:10;" d="M 913.214844 82 C 913.214844 93.714844 903.714844 103.214844 892 103.214844 C 880.285156 103.214844 870.785156 93.714844 870.785156 82 C 870.785156 70.285156 880.285156 60.785156 892 60.785156 C 903.714844 60.785156 913.214844 70.285156 913.214844 82 "/>
<path style="fill-rule:nonzero;fill:rgb(35%,70%,90%);fill-opacity:1;stroke-width:1;stroke-linecap:butt;stroke-linejoin:miter;stroke:rgb(0%,0%,0%);stroke-opacity:1;stroke-miterlimit:10;" d="M 468.214844 126 C 468.214844 137.714844 458.714844 147.214844 447 147.214844 C 435.285156 147.214844 425.785156 137.714844 425.785156 126 C 425.785156 114.285156 435.285156 104.785156 447 104.785156 C 458.714844 104.785156 468.214844 114.285156 468.214844 126 "/>
<path style="fill-rule:nonzero;fill:rgb(100%,51%,0%);fill-opacity:1;stroke-width:1;stroke-linecap:butt;stroke-linejoin:miter;stroke:rgb(0%,0%,0%);stroke-opacity:1;stroke-miterlimit:10;" d="M 561 336 L 535.019531 381 L 586.980469 381 L 561 336 "/>
<path style="fill-rule:nonzero;fill:rgb(100%,51%,0%);fill-opacity:1;stroke-width:1;stroke-linecap:butt;stroke-linejoin:miter;stroke:rgb(0%,0%,0%);stroke-opacity:1;stroke-miterlimit:10;" d="M 695 285 L 669.019531 330 L 720.980469 330 L 695 285 "/>
<path style="fill-rule:nonzero;fill:rgb(100%,51%,0%);fill-opacity:1;stroke-width:1;stroke-linecap:butt;stroke-linejoin:miter;stroke:rgb(0%,0%,0%);stroke-opacity:1;stroke-miterlimit:10;" d="M 807 197 L 781.019531 242 L 832.980469 242 L 807 197 "/>
<path style="fill-rule:nonzero;fill:rgb(100%,51%,0%);fill-opacity:1;stroke-width:1;stroke-linecap:butt;stroke-linejoin:miter;stroke:rgb(0%,0%,0%);stroke-opacity:1;stroke-miterlimit:10;" d="M 204 203 L 178.019531 248 L 229.980469 248 L 204 203 "/>
</g>
</svg>
