<?xml version="1.0" encoding="UTF-8"?>
<svg xmlns="http://www.w3.org/2000/svg" xmlns:xlink="http://www.w3.org/1999/xlink" width="1179pt" height="517pt" viewBox="0 0 1179 517" version="1.1">
<g id="surface1411">
<rect x="0" y="0" width="1179" height="517" style="fill:rgb(90%,90%,90%);fill-opacity:1;stroke:none;"/>
<path style="fill-rule:nonzero;fill:rgb(53%,27%,7%);fill-opacity:1;stroke-width:1;stroke-linecap:butt;stroke-linejoin:miter;stroke:rgb(0%,0%,0%);stroke-opacity:1;stroke-miterlimit:10;" d="M 995.214844 408 C 995.214844 419.714844 985.714844 429.214844 974 429.214844 C 962.285156 429.214844 952.785156 419.714844 952.785156 408 C 952.785156 396.285156 962.285156 386.785156 974 386.785156 C 985.714844 386.785156 995.214844 396.285156 995.214844 408 "/>
<path style="fill-rule:nonzero;fill:rgb(53%,27%,7%);fill-opacity:1;stroke-width:1;stroke-linecap:butt;stroke-linejoin:miter;stroke:rgb(0%,0%,0%);stroke-opacity:1;stroke-miterlimit:10;" d="M 478.214844 120 C 478.214844 131.714844 468.714844 141.214844 457 141.214844 C 445.285156 141.214844 435.785156 131.714844 435.785156 120 C 435.785156 108.285156 445.285156 98.785156 457 98.785156 C 468.714844 98.785156 478.214844 108.285156 478.214844 120 "/>
<path style="fill-rule:nonzero;fill:rgb(53%,27%,7%);fill-opacity:1;stroke-width:1;stroke-linecap:butt;stroke-linejoin:miter;stroke:rgb(0%,0%,0%);stroke-opacity:1;stroke-miterlimit:10;" d="M 353.214844 126 C 353.214844 137.714844 343.714844 147.214844 332 147.214844 C 320.285156 147.214844 310.785156 137.714844 310.785156 126 C 310.785156 114.285156 320.285156 104.785156 332 104.785156 C 343.714844 104.785156 353.214844 114.285156 353.214844 126 "/>
<path style="fill-rule:nonzero;fill:rgb(53%,27%,7%);fill-opacity:1;stroke-width:1;stroke-linecap:butt;stroke-linejoin:miter;stroke:rgb(0%,0%,0%);stroke-opacity:1;stroke-miterlimit:10;" d="M 999.214844 263 C 999.214844 274.714844 989.714844 284.214844 978 284.214844 C 966.285156 284.214844 956.785156 274.714844 956.785156 263 C 956.785156 251.285156 966.285156 241.785156 978 241.785156 C 989.714844 241.785156 999.214844 251.285156 999.214844 263 "/>
<path style="fill-rule:nonzero;fill:rgb(55%,51%,53%);fill-opacity:1;stroke-width:1;stroke-linecap:butt;stroke-linejoin:miter;stroke:rgb(0%,0%,0%);stroke-opacity:1;stroke-miterlimit:10;" d="M 296 230 L 270.019531 275 L 321.980469 275 L 296 230 "/>
<path style="fill-rule:nonzero;fill:rgb(55%,51%,53%);fill-opacity:1;stroke-width:1;stroke-linecap:butt;stroke-linejoin:miter;stroke:rgb(0%,0%,0%);stroke-opacity:1;stroke-miterlimit:10;" d="M 718 312 L 692.019531 357 L 743.980469 357 L 718 312 "/>
<path style="fill-rule:nonzero;fill:rgb(55%,51%,53%);fill-opacity:1;stroke-width:1;stroke-linecap:butt;stroke-linejoin:miter;stroke:rgb(0%,0%,0%);stroke-opacity:1;stroke-miterlimit:10;" d="M 93 210 L 67.019531 255 L 118.980469 255 L 93 210 "/>
</g>
</svg>
