<?xml version="1.0" encoding="UTF-8"?>
<svg xmlns="http://www.w3.org/2000/svg" xmlns:xlink="http://www.w3.org/1999/xlink" width="1179pt" height="517pt" viewBox="0 0 1179 517" version="1.1">
<g id="surface1196">
<rect x="0" y="0" width="1179" height="517" style="fill:rgb(90%,90%,90%);fill-opacity:1;stroke:none;"/>
<path style="fill-rule:nonzero;fill:rgb(55%,51%,53%);fill-opacity:1;stroke-width:1;stroke-linecap:butt;stroke-linejoin:miter;stroke:rgb(0%,0%,0%);stroke-opacity:1;stroke-miterlimit:10;" d="M 485 72.601562 C 485 58.199219 461 58.199219 461 72.601562 C 461 87 485 89.398438 485 101.398438 C 485 89.398438 509 87 509 72.601562 C 509 58.199219 485 58.199219 485 72.601562 "/>
<path style="fill-rule:nonzero;fill:rgb(55%,51%,53%);fill-opacity:1;stroke-width:1;stroke-linecap:butt;stroke-linejoin:miter;stroke:rgb(0%,0%,0%);stroke-opacity:1;stroke-miterlimit:10;" d="M 182 331.601562 C 182 317.199219 158 317.199219 158 331.601562 C 158 346 182 348.398438 182 360.398438 C 182 348.398438 206 346 206 331.601562 C 206 317.199219 182 317.199219 182 331.601562 "/>
<path style="fill-rule:nonzero;fill:rgb(55%,51%,53%);fill-opacity:1;stroke-width:1;stroke-linecap:butt;stroke-linejoin:miter;stroke:rgb(0%,0%,0%);stroke-opacity:1;stroke-miterlimit:10;" d="M 596 355.601562 C 596 341.199219 572 341.199219 572 355.601562 C 572 370 596 372.398438 596 384.398438 C 596 372.398438 620 370 620 355.601562 C 620 341.199219 596 341.199219 596 355.601562 "/>
<path style="fill-rule:nonzero;fill:rgb(55%,51%,53%);fill-opacity:1;stroke-width:1;stroke-linecap:butt;stroke-linejoin:miter;stroke:rgb(0%,0%,0%);stroke-opacity:1;stroke-miterlimit:10;" d="M 428 334.601562 C 428 320.199219 404 320.199219 404 334.601562 C 404 349 428 351.398438 428 363.398438 C 428 351.398438 452 349 452 334.601562 C 452 320.199219 428 320.199219 428 334.601562 "/>
<path style="fill-rule:nonzero;fill:rgb(53%,27%,7%);fill-opacity:1;stroke-width:1;stroke-linecap:butt;stroke-linejoin:miter;stroke:rgb(0%,0%,0%);stroke-opacity:1;stroke-miterlimit:10;" d="M 881 272 L 910.664062 272 L 922.664062 243.785156 L 934.664062 272 L 964.332031 272 L 940.332031 289.4375 L 948.417969 320.980469 L 922.664062 303.542969 L 896.914062 320.980469 L 909.214844 289.4375 L 881 272 "/>
<path style="fill-rule:nonzero;fill:rgb(53%,27%,7%);fill-opacity:1;stroke-width:1;stroke-linecap:butt;stroke-linejoin:miter;stroke:rgb(0%,0%,0%);stroke-opacity:1;stroke-miterlimit:10;" d="M 605 187 L 634.664062 187 L 646.664062 158.785156 L 658.664062 187 L 688.332031 187 L 664.332031 204.4375 L 672.417969 235.980469 L 646.664062 218.542969 L 620.914062 235.980469 L 633.214844 204.4375 L 605 187 "/>
<path style="fill-rule:nonzero;fill:rgb(53%,27%,7%);fill-opacity:1;stroke-width:1;stroke-linecap:butt;stroke-linejoin:miter;stroke:rgb(0%,0%,0%);stroke-opacity:1;stroke-miterlimit:10;" d="M 95 217 L 124.664062 217 L 136.664062 188.785156 L 148.664062 217 L 178.332031 217 L 154.332031 234.4375 L 162.417969 265.980469 L 136.664062 248.542969 L 110.914062 265.980469 L 123.214844 234.4375 L 95 217 "/>
<path style="fill-rule:nonzero;fill:rgb(53%,27%,7%);fill-opacity:1;stroke-width:1;stroke-linecap:butt;stroke-linejoin:miter;stroke:rgb(0%,0%,0%);stroke-opacity:1;stroke-miterlimit:10;" d="M 168 95 L 197.664062 95 L 209.664062 66.785156 L 221.664062 95 L 251.332031 95 L 227.332031 112.4375 L 235.417969 143.980469 L 209.664062 126.542969 L 183.914062 143.980469 L 196.214844 112.4375 L 168 95 "/>
</g>
</svg>
