<?xml version="1.0" encoding="UTF-8"?>
<svg xmlns="http://www.w3.org/2000/svg" xmlns:xlink="http://www.w3.org/1999/xlink" width="1179pt" height="517pt" viewBox="0 0 1179 517" version="1.1">
<g id="surface831">
<rect x="0" y="0" width="1179" height="517" style="fill:rgb(90%,90%,90%);fill-opacity:1;stroke:none;"/>
<path style="fill-rule:nonzero;fill:rgb(100%,51%,0%);fill-opacity:1;stroke-width:1;stroke-linecap:butt;stroke-linejoin:miter;stroke:rgb(0%,0%,0%);stroke-opacity:1;stroke-miterlimit:10;" d="M 553.214844 222 C 553.214844 233.714844 543.714844 243.214844 532 243.214844 C 520.285156 243.214844 510.785156 233.714844 510.785156 222 C 510.785156 210.285156 520.285156 200.785156 532 200.785156 C 543.714844 200.785156 553.214844 210.285156 553.214844 222 "/>
<path style="fill-rule:nonzero;fill:rgb(100%,51%,0%);fill-opacity:1;stroke-width:1;stroke-linecap:butt;stroke-linejoin:miter;stroke:rgb(0%,0%,0%);stroke-opacity:1;stroke-miterlimit:10;" d="M 382.214844 216 C 382.214844 227.714844 372.714844 237.214844 361 237.214844 C 349.285156 237.214844 339.785156 227.714844 339.785156 216 C 339.785156 204.285156 349.285156 194.785156 361 194.785156 C 372.714844 194.785156 382.214844 204.285156 382.214844 216 "/>
<path style="fill-rule:nonzero;fill:rgb(100%,51%,0%);fill-opacity:1;stroke-width:1;stroke-linecap:butt;stroke-linejoin:miter;stroke:rgb(0%,0%,0%);stroke-opacity:1;stroke-miterlimit:10;" d="M 204.214844 161 C 204.214844 172.714844 194.714844 182.214844 183 182.214844 C 171.285156 182.214844 161.785156 172.714844 161.785156 161 C 161.785156 149.285156 171.285156 139.785156 183 139.785156 C 194.714844 139.785156 204.214844 149.285156 204.214844 161 "/>
<path style="fill-rule:nonzero;fill:rgb(35%,70%,90%);fill-opacity:1;stroke-width:1;stroke-linecap:butt;stroke-linejoin:miter;stroke:rgb(0%,0%,0%);stroke-opacity:1;stroke-miterlimit:10;" d="M 758 293 L 787.664062 293 L 799.664062 264.785156 L 811.664062 293 L 841.332031 293 L 817.332031 310.4375 L 825.417969 341.980469 L 799.664062 324.542969 L 773.914062 341.980469 L 786.214844 310.4375 L 758 293 "/>
<path style="fill-rule:nonzero;fill:rgb(35%,70%,90%);fill-opacity:1;stroke-width:1;stroke-linecap:butt;stroke-linejoin:miter;stroke:rgb(0%,0%,0%);stroke-opacity:1;stroke-miterlimit:10;" d="M 681 113 L 710.664062 113 L 722.664062 84.785156 L 734.664062 113 L 764.332031 113 L 740.332031 130.4375 L 748.417969 161.980469 L 722.664062 144.542969 L 696.914062 161.980469 L 709.214844 130.4375 L 681 113 "/>
<path style="fill-rule:nonzero;fill:rgb(35%,70%,90%);fill-opacity:1;stroke-width:1;stroke-linecap:butt;stroke-linejoin:miter;stroke:rgb(0%,0%,0%);stroke-opacity:1;stroke-miterlimit:10;" d="M 152 399 L 181.664062 399 L 193.664062 370.785156 L 205.664062 399 L 235.332031 399 L 211.332031 416.4375 L 219.417969 447.980469 L 193.664062 430.542969 L 167.914062 447.980469 L 180.214844 416.4375 L 152 399 "/>
<path style="fill-rule:nonzero;fill:rgb(35%,70%,90%);fill-opacity:1;stroke-width:1;stroke-linecap:butt;stroke-linejoin:miter;stroke:rgb(0%,0%,0%);stroke-opacity:1;stroke-miterlimit:10;" d="M 413 376 L 442.664062 376 L 454.664062 347.785156 L 466.664062 376 L 496.332031 376 L 472.332031 393.4375 L 480.417969 424.980469 L 454.664062 407.542969 L 428.914062 424.980469 L 441.214844 393.4375 L 413 376 "/>
<path style="fill-rule:nonzero;fill:rgb(35%,70%,90%);fill-opacity:1;stroke-width:1;stroke-linecap:butt;stroke-linejoin:miter;stroke:rgb(0%,0%,0%);stroke-opacity:1;stroke-miterlimit:10;" d="M 435 93 L 464.664062 93 L 476.664062 64.785156 L 488.664062 93 L 518.332031 93 L 494.332031 110.4375 L 502.417969 141.980469 L 476.664062 124.542969 L 450.914062 141.980469 L 463.214844 110.4375 L 435 93 "/>
</g>
</svg>
