<?xml version="1.0" encoding="UTF-8"?>
<svg xmlns="http://www.w3.org/2000/svg" xmlns:xlink="http://www.w3.org/1999/xlink" width="1179pt" height="517pt" viewBox="0 0 1179 517" version="1.1">
<g id="surface1321">
<rect x="0" y="0" width="1179" height="517" style="fill:rgb(90%,90%,90%);fill-opacity:1;stroke:none;"/>
<path style="fill-rule:nonzero;fill:rgb(53%,27%,7%);fill-opacity:1;stroke-width:1;stroke-linecap:butt;stroke-linejoin:miter;stroke:rgb(0%,0%,0%);stroke-opacity:1;stroke-miterlimit:10;" d="M 514.214844 358 C 514.214844 369.714844 504.714844 379.214844 493 379.214844 C 481.285156 379.214844 471.785156 369.714844 471.785156 358 C 471.785156 346.285156 481.285156 336.785156 493 336.785156 C 504.714844 336.785156 514.214844 346.285156 514.214844 358 "/>
<path style="fill-rule:nonzero;fill:rgb(53%,27%,7%);fill-opacity:1;stroke-width:1;stroke-linecap:butt;stroke-linejoin:miter;stroke:rgb(0%,0%,0%);stroke-opacity:1;stroke-miterlimit:10;" d="M 156.214844 192 C 156.214844 203.714844 146.714844 213.214844 135 213.214844 C 123.285156 213.214844 113.785156 203.714844 113.785156 192 C 113.785156 180.285156 123.285156 170.785156 135 170.785156 C 146.714844 170.785156 156.214844 180.285156 156.214844 192 "/>
<path style="fill-rule:nonzero;fill:rgb(53%,27%,7%);fill-opacity:1;stroke-width:1;stroke-linecap:butt;stroke-linejoin:miter;stroke:rgb(0%,0%,0%);stroke-opacity:1;stroke-miterlimit:10;" d="M 700.214844 413 C 700.214844 424.714844 690.714844 434.214844 679 434.214844 C 667.285156 434.214844 657.785156 424.714844 657.785156 413 C 657.785156 401.285156 667.285156 391.785156 679 391.785156 C 690.714844 391.785156 700.214844 401.285156 700.214844 413 "/>
<path style="fill-rule:nonzero;fill:rgb(53%,27%,7%);fill-opacity:1;stroke-width:1;stroke-linecap:butt;stroke-linejoin:miter;stroke:rgb(0%,0%,0%);stroke-opacity:1;stroke-miterlimit:10;" d="M 803.214844 98 C 803.214844 109.714844 793.714844 119.214844 782 119.214844 C 770.285156 119.214844 760.785156 109.714844 760.785156 98 C 760.785156 86.285156 770.285156 76.785156 782 76.785156 C 793.714844 76.785156 803.214844 86.285156 803.214844 98 "/>
<path style="fill-rule:nonzero;fill:rgb(55%,51%,53%);fill-opacity:1;stroke-width:1;stroke-linecap:butt;stroke-linejoin:miter;stroke:rgb(0%,0%,0%);stroke-opacity:1;stroke-miterlimit:10;" d="M 375 179 L 349.019531 224 L 400.980469 224 L 375 179 "/>
<path style="fill-rule:nonzero;fill:rgb(55%,51%,53%);fill-opacity:1;stroke-width:1;stroke-linecap:butt;stroke-linejoin:miter;stroke:rgb(0%,0%,0%);stroke-opacity:1;stroke-miterlimit:10;" d="M 986 252 L 960.019531 297 L 1011.980469 297 L 986 252 "/>
<path style="fill-rule:nonzero;fill:rgb(55%,51%,53%);fill-opacity:1;stroke-width:1;stroke-linecap:butt;stroke-linejoin:miter;stroke:rgb(0%,0%,0%);stroke-opacity:1;stroke-miterlimit:10;" d="M 345 348 L 319.019531 393 L 370.980469 393 L 345 348 "/>
</g>
</svg>
