<?xml version="1.0" encoding="UTF-8"?>
<svg xmlns="http://www.w3.org/2000/svg" xmlns:xlink="http://www.w3.org/1999/xlink" width="1179pt" height="517pt" viewBox="0 0 1179 517" version="1.1">
<g id="surface61">
<rect x="0" y="0" width="1179" height="517" style="fill:rgb(90%,90%,90%);fill-opacity:1;stroke:none;"/>
<path style="fill-rule:nonzero;fill:rgb(35%,70%,90%);fill-opacity:1;stroke-width:1;stroke-linecap:butt;stroke-linejoin:miter;stroke:rgb(0%,0%,0%);stroke-opacity:1;stroke-miterlimit:10;" d="M 144 80 L 173.664062 80 L 185.664062 51.785156 L 197.664062 80 L 227.332031 80 L 203.332031 97.4375 L 211.417969 128.980469 L 185.664062 111.542969 L 159.914062 128.980469 L 172.214844 97.4375 L 144 80 "/>
<path style="fill-rule:nonzero;fill:rgb(35%,70%,90%);fill-opacity:1;stroke-width:1;stroke-linecap:butt;stroke-linejoin:miter;stroke:rgb(0%,0%,0%);stroke-opacity:1;stroke-miterlimit:10;" d="M 189 216 L 218.664062 216 L 230.664062 187.785156 L 242.664062 216 L 272.332031 216 L 248.332031 233.4375 L 256.417969 264.980469 L 230.664062 247.542969 L 204.914062 264.980469 L 217.214844 233.4375 L 189 216 "/>
<path style="fill-rule:nonzero;fill:rgb(35%,70%,90%);fill-opacity:1;stroke-width:1;stroke-linecap:butt;stroke-linejoin:miter;stroke:rgb(0%,0%,0%);stroke-opacity:1;stroke-miterlimit:10;" d="M 371 114 L 400.664062 114 L 412.664062 85.785156 L 424.664062 114 L 454.332031 114 L 430.332031 131.4375 L 438.417969 162.980469 L 412.664062 145.542969 L 386.914062 162.980469 L 399.214844 131.4375 L 371 114 "/>
<path style="fill-rule:nonzero;fill:rgb(55%,51%,53%);fill-opacity:1;stroke-width:1;stroke-linecap:butt;stroke-linejoin:miter;stroke:rgb(0%,0%,0%);stroke-opacity:1;stroke-miterlimit:10;" d="M 687.214844 128 C 687.214844 139.714844 677.714844 149.214844 666 149.214844 C 654.285156 149.214844 644.785156 139.714844 644.785156 128 C 644.785156 116.285156 654.285156 106.785156 666 106.785156 C 677.714844 106.785156 687.214844 116.285156 687.214844 128 "/>
<path style="fill-rule:nonzero;fill:rgb(55%,51%,53%);fill-opacity:1;stroke-width:1;stroke-linecap:butt;stroke-linejoin:miter;stroke:rgb(0%,0%,0%);stroke-opacity:1;stroke-miterlimit:10;" d="M 1020.214844 353 C 1020.214844 364.714844 1010.714844 374.214844 999 374.214844 C 987.285156 374.214844 977.785156 364.714844 977.785156 353 C 977.785156 341.285156 987.285156 331.785156 999 331.785156 C 1010.714844 331.785156 1020.214844 341.285156 1020.214844 353 "/>
<path style="fill-rule:nonzero;fill:rgb(55%,51%,53%);fill-opacity:1;stroke-width:1;stroke-linecap:butt;stroke-linejoin:miter;stroke:rgb(0%,0%,0%);stroke-opacity:1;stroke-miterlimit:10;" d="M 271.214844 335 C 271.214844 346.714844 261.714844 356.214844 250 356.214844 C 238.285156 356.214844 228.785156 346.714844 228.785156 335 C 228.785156 323.285156 238.285156 313.785156 250 313.785156 C 261.714844 313.785156 271.214844 323.285156 271.214844 335 "/>
</g>
</svg>
