<?xml version="1.0" encoding="UTF-8"?>
<svg xmlns="http://www.w3.org/2000/svg" xmlns:xlink="http://www.w3.org/1999/xlink" width="1179pt" height="517pt" viewBox="0 0 1179 517" version="1.1">
<g id="surface21">
<rect x="0" y="0" width="1179" height="517" style="fill:rgb(90%,90%,90%);fill-opacity:1;stroke:none;"/>
<path style="fill-rule:nonzero;fill:rgb(35%,70%,90%);fill-opacity:1;stroke-width:1;stroke-linecap:butt;stroke-linejoin:miter;stroke:rgb(0%,0%,0%);stroke-opacity:1;stroke-miterlimit:10;" d="M 192.214844 326 C 192.214844 337.714844 182.714844 347.214844 171 347.214844 C 159.285156 347.214844 149.785156 337.714844 149.785156 326 C 149.785156 314.285156 159.285156 304.785156 171 304.785156 C 182.714844 304.785156 192.214844 314.285156 192.214844 326 "/>
<path style="fill-rule:nonzero;fill:rgb(100%,51%,0%);fill-opacity:1;stroke-width:1;stroke-linecap:butt;stroke-linejoin:miter;stroke:rgb(0%,0%,0%);stroke-opacity:1;stroke-miterlimit:10;" d="M 305.214844 386 C 305.214844 397.714844 295.714844 407.214844 284 407.214844 C 272.285156 407.214844 262.785156 397.714844 262.785156 386 C 262.785156 374.285156 272.285156 364.785156 284 364.785156 C 295.714844 364.785156 305.214844 374.285156 305.214844 386 "/>
<path style="fill-rule:nonzero;fill:rgb(35%,70%,90%);fill-opacity:1;stroke-width:1;stroke-linecap:butt;stroke-linejoin:miter;stroke:rgb(0%,0%,0%);stroke-opacity:1;stroke-miterlimit:10;" d="M 321.214844 235 C 321.214844 246.714844 311.714844 256.214844 300 256.214844 C 288.285156 256.214844 278.785156 246.714844 278.785156 235 C 278.785156 223.285156 288.285156 213.785156 300 213.785156 C 311.714844 213.785156 321.214844 223.285156 321.214844 235 "/>
<path style="fill-rule:nonzero;fill:rgb(35%,70%,90%);fill-opacity:1;stroke-width:1;stroke-linecap:butt;stroke-linejoin:miter;stroke:rgb(0%,0%,0%);stroke-opacity:1;stroke-miterlimit:10;" d="M 138.214844 210 C 138.214844 221.714844 128.714844 231.214844 117 231.214844 C 105.285156 231.214844 95.785156 221.714844 95.785156 210 C 95.785156 198.285156 105.285156 188.785156 117 188.785156 C 128.714844 188.785156 138.214844 198.285156 138.214844 210 "/>
<path style="fill-rule:nonzero;fill:rgb(100%,51%,0%);fill-opacity:1;stroke-width:1;stroke-linecap:butt;stroke-linejoin:miter;stroke:rgb(0%,0%,0%);stroke-opacity:1;stroke-miterlimit:10;" d="M 948.785156 88.785156 L 948.785156 131.214844 L 991.214844 131.214844 L 991.214844 88.785156 L 948.785156 88.785156 "/>
<path style="fill-rule:nonzero;fill:rgb(35%,70%,90%);fill-opacity:1;stroke-width:1;stroke-linecap:butt;stroke-linejoin:miter;stroke:rgb(0%,0%,0%);stroke-opacity:1;stroke-miterlimit:10;" d="M 902.785156 367.785156 L 902.785156 410.214844 L 945.214844 410.214844 L 945.214844 367.785156 L 902.785156 367.785156 "/>
<path style="fill-rule:nonzero;fill:rgb(100%,51%,0%);fill-opacity:1;stroke-width:1;stroke-linecap:butt;stroke-linejoin:miter;stroke:rgb(0%,0%,0%);stroke-opacity:1;stroke-miterlimit:10;" d="M 689.785156 392.785156 L 689.785156 435.214844 L 732.214844 435.214844 L 732.214844 392.785156 L 689.785156 392.785156 "/>
</g>
</svg>
