<?xml version="1.0" encoding="UTF-8"?>
<svg xmlns="http://www.w3.org/2000/svg" xmlns:xlink="http://www.w3.org/1999/xlink" width="1179pt" height="517pt" viewBox="0 0 1179 517" version="1.1">
<g id="surface941">
<rect x="0" y="0" width="1179" height="517" style="fill:rgb(90%,90%,90%);fill-opacity:1;stroke:none;"/>
<path style="fill-rule:nonzero;fill:rgb(53%,27%,7%);fill-opacity:1;stroke-width:1;stroke-linecap:butt;stroke-linejoin:miter;stroke:rgb(0%,0%,0%);stroke-opacity:1;stroke-miterlimit:10;" d="M 293 97.601562 C 293 83.199219 269 83.199219 269 97.601562 C 269 112 293 114.398438 293 126.398438 C 293 114.398438 317 112 317 97.601562 C 317 83.199219 293 83.199219 293 97.601562 "/>
<path style="fill-rule:nonzero;fill:rgb(53%,27%,7%);fill-opacity:1;stroke-width:1;stroke-linecap:butt;stroke-linejoin:miter;stroke:rgb(0%,0%,0%);stroke-opacity:1;stroke-miterlimit:10;" d="M 101.214844 132 C 101.214844 143.714844 91.714844 153.214844 80 153.214844 C 68.285156 153.214844 58.785156 143.714844 58.785156 132 C 58.785156 120.285156 68.285156 110.785156 80 110.785156 C 91.714844 110.785156 101.214844 120.285156 101.214844 132 "/>
<path style="fill-rule:nonzero;fill:rgb(53%,27%,7%);fill-opacity:1;stroke-width:1;stroke-linecap:butt;stroke-linejoin:miter;stroke:rgb(0%,0%,0%);stroke-opacity:1;stroke-miterlimit:10;" d="M 377 222.601562 C 377 208.199219 353 208.199219 353 222.601562 C 353 237 377 239.398438 377 251.398438 C 377 239.398438 401 237 401 222.601562 C 401 208.199219 377 208.199219 377 222.601562 "/>
<path style="fill-rule:nonzero;fill:rgb(100%,51%,0%);fill-opacity:1;stroke-width:1;stroke-linecap:butt;stroke-linejoin:miter;stroke:rgb(0%,0%,0%);stroke-opacity:1;stroke-miterlimit:10;" d="M 720.214844 100 C 720.214844 111.714844 710.714844 121.214844 699 121.214844 C 687.285156 121.214844 677.785156 111.714844 677.785156 100 C 677.785156 88.285156 687.285156 78.785156 699 78.785156 C 710.714844 78.785156 720.214844 88.285156 720.214844 100 "/>
<path style="fill-rule:nonzero;fill:rgb(100%,51%,0%);fill-opacity:1;stroke-width:1;stroke-linecap:butt;stroke-linejoin:miter;stroke:rgb(0%,0%,0%);stroke-opacity:1;stroke-miterlimit:10;" d="M 954 150.601562 C 954 136.199219 930 136.199219 930 150.601562 C 930 165 954 167.398438 954 179.398438 C 954 167.398438 978 165 978 150.601562 C 978 136.199219 954 136.199219 954 150.601562 "/>
<path style="fill-rule:nonzero;fill:rgb(100%,51%,0%);fill-opacity:1;stroke-width:1;stroke-linecap:butt;stroke-linejoin:miter;stroke:rgb(0%,0%,0%);stroke-opacity:1;stroke-miterlimit:10;" d="M 819.214844 268 C 819.214844 279.714844 809.714844 289.214844 798 289.214844 C 786.285156 289.214844 776.785156 279.714844 776.785156 268 C 776.785156 256.285156 786.285156 246.785156 798 246.785156 C 809.714844 246.785156 819.214844 256.285156 819.214844 268 "/>
</g>
</svg>
