<?xml version="1.0" encoding="UTF-8"?>
<svg xmlns="http://www.w3.org/2000/svg" xmlns:xlink="http://www.w3.org/1999/xlink" width="1179pt" height="517pt" viewBox="0 0 1179 517" version="1.1">
<g id="surface1066">
<rect x="0" y="0" width="1179" height="517" style="fill:rgb(90%,90%,90%);fill-opacity:1;stroke:none;"/>
<path style="fill-rule:nonzero;fill:rgb(100%,51%,0%);fill-opacity:1;stroke-width:1;stroke-linecap:butt;stroke-linejoin:miter;stroke:rgb(0%,0%,0%);stroke-opacity:1;stroke-miterlimit:10;" d="M 781 347 L 755.019531 392 L 806.980469 392 L 781 347 "/>
<path style="fill-rule:nonzero;fill:rgb(100%,51%,0%);fill-opacity:1;stroke-width:1;stroke-linecap:butt;stroke-linejoin:miter;stroke:rgb(0%,0%,0%);stroke-opacity:1;stroke-miterlimit:10;" d="M 719 208 L 693.019531 253 L 744.980469 253 L 719 208 "/>
<path style="fill-rule:nonzero;fill:rgb(100%,51%,0%);fill-opacity:1;stroke-width:1;stroke-linecap:butt;stroke-linejoin:miter;stroke:rgb(0%,0%,0%);stroke-opacity:1;stroke-miterlimit:10;" d="M 544 323 L 518.019531 368 L 569.980469 368 L 544 323 "/>
<path style="fill-rule:nonzero;fill:rgb(53%,27%,7%);fill-opacity:1;stroke-width:1;stroke-linecap:butt;stroke-linejoin:miter;stroke:rgb(0%,0%,0%);stroke-opacity:1;stroke-miterlimit:10;" d="M 419 138.601562 C 419 124.199219 395 124.199219 395 138.601562 C 395 153 419 155.398438 419 167.398438 C 419 155.398438 443 153 443 138.601562 C 443 124.199219 419 124.199219 419 138.601562 "/>
<path style="fill-rule:nonzero;fill:rgb(53%,27%,7%);fill-opacity:1;stroke-width:1;stroke-linecap:butt;stroke-linejoin:miter;stroke:rgb(0%,0%,0%);stroke-opacity:1;stroke-miterlimit:10;" d="M 394 275.601562 C 394 261.199219 370 261.199219 370 275.601562 C 370 290 394 292.398438 394 304.398438 C 394 292.398438 418 290 418 275.601562 C 418 261.199219 394 261.199219 394 275.601562 "/>
<path style="fill-rule:nonzero;fill:rgb(53%,27%,7%);fill-opacity:1;stroke-width:1;stroke-linecap:butt;stroke-linejoin:miter;stroke:rgb(0%,0%,0%);stroke-opacity:1;stroke-miterlimit:10;" d="M 104 121.601562 C 104 107.199219 80 107.199219 80 121.601562 C 80 136 104 138.398438 104 150.398438 C 104 138.398438 128 136 128 121.601562 C 128 107.199219 104 107.199219 104 121.601562 "/>
<path style="fill-rule:nonzero;fill:rgb(53%,27%,7%);fill-opacity:1;stroke-width:1;stroke-linecap:butt;stroke-linejoin:miter;stroke:rgb(0%,0%,0%);stroke-opacity:1;stroke-miterlimit:10;" d="M 146 395.601562 C 146 381.199219 122 381.199219 122 395.601562 C 122 410 146 412.398438 146 424.398438 C 146 412.398438 170 410 170 395.601562 C 170 381.199219 146 381.199219 146 395.601562 "/>
<path style="fill-rule:nonzero;fill:rgb(53%,27%,7%);fill-opacity:1;stroke-width:1;stroke-linecap:butt;stroke-linejoin:miter;stroke:rgb(0%,0%,0%);stroke-opacity:1;stroke-miterlimit:10;" d="M 297 408.601562 C 297 394.199219 273 394.199219 273 408.601562 C 273 423 297 425.398438 297 437.398438 C 297 425.398438 321 423 321 408.601562 C 321 394.199219 297 394.199219 297 408.601562 "/>
</g>
</svg>
