<?xml version="1.0" encoding="UTF-8"?>
<svg xmlns="http://www.w3.org/2000/svg" xmlns:xlink="http://www.w3.org/1999/xlink" width="1179pt" height="517pt" viewBox="0 0 1179 517" version="1.1">
<g id="surface1071">
<rect x="0" y="0" width="1179" height="517" style="fill:rgb(90%,90%,90%);fill-opacity:1;stroke:none;"/>
<path style="fill-rule:nonzero;fill:rgb(55%,51%,53%);fill-opacity:1;stroke-width:1;stroke-linecap:butt;stroke-linejoin:miter;stroke:rgb(0%,0%,0%);stroke-opacity:1;stroke-miterlimit:10;" d="M 773 290 L 802.664062 290 L 814.664062 261.785156 L 826.664062 290 L 856.332031 290 L 832.332031 307.4375 L 840.417969 338.980469 L 814.664062 321.542969 L 788.914062 338.980469 L 801.214844 307.4375 L 773 290 "/>
<path style="fill-rule:nonzero;fill:rgb(55%,51%,53%);fill-opacity:1;stroke-width:1;stroke-linecap:butt;stroke-linejoin:miter;stroke:rgb(0%,0%,0%);stroke-opacity:1;stroke-miterlimit:10;" d="M 1018 186 L 1047.664062 186 L 1059.664062 157.785156 L 1071.664062 186 L 1101.332031 186 L 1077.332031 203.4375 L 1085.417969 234.980469 L 1059.664062 217.542969 L 1033.914062 234.980469 L 1046.214844 203.4375 L 1018 186 "/>
<path style="fill-rule:nonzero;fill:rgb(55%,51%,53%);fill-opacity:1;stroke-width:1;stroke-linecap:butt;stroke-linejoin:miter;stroke:rgb(0%,0%,0%);stroke-opacity:1;stroke-miterlimit:10;" d="M 650 374 L 679.664062 374 L 691.664062 345.785156 L 703.664062 374 L 733.332031 374 L 709.332031 391.4375 L 717.417969 422.980469 L 691.664062 405.542969 L 665.914062 422.980469 L 678.214844 391.4375 L 650 374 "/>
<path style="fill-rule:nonzero;fill:rgb(55%,51%,53%);fill-opacity:1;stroke-width:1;stroke-linecap:butt;stroke-linejoin:miter;stroke:rgb(0%,0%,0%);stroke-opacity:1;stroke-miterlimit:10;" d="M 381 334 L 410.664062 334 L 422.664062 305.785156 L 434.664062 334 L 464.332031 334 L 440.332031 351.4375 L 448.417969 382.980469 L 422.664062 365.542969 L 396.914062 382.980469 L 409.214844 351.4375 L 381 334 "/>
<path style="fill-rule:nonzero;fill:rgb(100%,51%,0%);fill-opacity:1;stroke-width:1;stroke-linecap:butt;stroke-linejoin:miter;stroke:rgb(0%,0%,0%);stroke-opacity:1;stroke-miterlimit:10;" d="M 561.214844 254 C 561.214844 265.714844 551.714844 275.214844 540 275.214844 C 528.285156 275.214844 518.785156 265.714844 518.785156 254 C 518.785156 242.285156 528.285156 232.785156 540 232.785156 C 551.714844 232.785156 561.214844 242.285156 561.214844 254 "/>
<path style="fill-rule:nonzero;fill:rgb(100%,51%,0%);fill-opacity:1;stroke-width:1;stroke-linecap:butt;stroke-linejoin:miter;stroke:rgb(0%,0%,0%);stroke-opacity:1;stroke-miterlimit:10;" d="M 198.214844 95 C 198.214844 106.714844 188.714844 116.214844 177 116.214844 C 165.285156 116.214844 155.785156 106.714844 155.785156 95 C 155.785156 83.285156 165.285156 73.785156 177 73.785156 C 188.714844 73.785156 198.214844 83.285156 198.214844 95 "/>
<path style="fill-rule:nonzero;fill:rgb(100%,51%,0%);fill-opacity:1;stroke-width:1;stroke-linecap:butt;stroke-linejoin:miter;stroke:rgb(0%,0%,0%);stroke-opacity:1;stroke-miterlimit:10;" d="M 111.214844 225 C 111.214844 236.714844 101.714844 246.214844 90 246.214844 C 78.285156 246.214844 68.785156 236.714844 68.785156 225 C 68.785156 213.285156 78.285156 203.785156 90 203.785156 C 101.714844 203.785156 111.214844 213.285156 111.214844 225 "/>
<path style="fill-rule:nonzero;fill:rgb(100%,51%,0%);fill-opacity:1;stroke-width:1;stroke-linecap:butt;stroke-linejoin:miter;stroke:rgb(0%,0%,0%);stroke-opacity:1;stroke-miterlimit:10;" d="M 521.214844 408 C 521.214844 419.714844 511.714844 429.214844 500 429.214844 C 488.285156 429.214844 478.785156 419.714844 478.785156 408 C 478.785156 396.285156 488.285156 386.785156 500 386.785156 C 511.714844 386.785156 521.214844 396.285156 521.214844 408 "/>
<path style="fill-rule:nonzero;fill:rgb(100%,51%,0%);fill-opacity:1;stroke-width:1;stroke-linecap:butt;stroke-linejoin:miter;stroke:rgb(0%,0%,0%);stroke-opacity:1;stroke-miterlimit:10;" d="M 925.214844 136 C 925.214844 147.714844 915.714844 157.214844 904 157.214844 C 892.285156 157.214844 882.785156 147.714844 882.785156 136 C 882.785156 124.285156 892.285156 114.785156 904 114.785156 C 915.714844 114.785156 925.214844 124.285156 925.214844 136 "/>
</g>
</svg>
