<?xml version="1.0" encoding="UTF-8"?>
<svg xmlns="http://www.w3.org/2000/svg" xmlns:xlink="http://www.w3.org/1999/xlink" width="1179pt" height="517pt" viewBox="0 0 1179 517" version="1.1">
<g id="surface66">
<rect x="0" y="0" width="1179" height="517" style="fill:rgb(90%,90%,90%);fill-opacity:1;stroke:none;"/>
<path style="fill-rule:nonzero;fill:rgb(35%,70%,90%);fill-opacity:1;stroke-width:1;stroke-linecap:butt;stroke-linejoin:miter;stroke:rgb(0%,0%,0%);stroke-opacity:1;stroke-miterlimit:10;" d="M 109 408 L 138.664062 408 L 150.664062 379.785156 L 162.664062 408 L 192.332031 408 L 168.332031 425.4375 L 176.417969 456.980469 L 150.664062 439.542969 L 124.914062 456.980469 L 137.214844 425.4375 L 109 408 "/>
<path style="fill-rule:nonzero;fill:rgb(35%,70%,90%);fill-opacity:1;stroke-width:1;stroke-linecap:butt;stroke-linejoin:miter;stroke:rgb(0%,0%,0%);stroke-opacity:1;stroke-miterlimit:10;" d="M 361 339 L 390.664062 339 L 402.664062 310.785156 L 414.664062 339 L 444.332031 339 L 420.332031 356.4375 L 428.417969 387.980469 L 402.664062 370.542969 L 376.914062 387.980469 L 389.214844 356.4375 L 361 339 "/>
<path style="fill-rule:nonzero;fill:rgb(35%,70%,90%);fill-opacity:1;stroke-width:1;stroke-linecap:butt;stroke-linejoin:miter;stroke:rgb(0%,0%,0%);stroke-opacity:1;stroke-miterlimit:10;" d="M 241 335 L 270.664062 335 L 282.664062 306.785156 L 294.664062 335 L 324.332031 335 L 300.332031 352.4375 L 308.417969 383.980469 L 282.664062 366.542969 L 256.914062 383.980469 L 269.214844 352.4375 L 241 335 "/>
<path style="fill-rule:nonzero;fill:rgb(35%,70%,90%);fill-opacity:1;stroke-width:1;stroke-linecap:butt;stroke-linejoin:miter;stroke:rgb(0%,0%,0%);stroke-opacity:1;stroke-miterlimit:10;" d="M 399 144 L 428.664062 144 L 440.664062 115.785156 L 452.664062 144 L 482.332031 144 L 458.332031 161.4375 L 466.417969 192.980469 L 440.664062 175.542969 L 414.914062 192.980469 L 427.214844 161.4375 L 399 144 "/>
<path style="fill-rule:nonzero;fill:rgb(55%,51%,53%);fill-opacity:1;stroke-width:1;stroke-linecap:butt;stroke-linejoin:miter;stroke:rgb(0%,0%,0%);stroke-opacity:1;stroke-miterlimit:10;" d="M 311 170 L 285.019531 215 L 336.980469 215 L 311 170 "/>
<path style="fill-rule:nonzero;fill:rgb(55%,51%,53%);fill-opacity:1;stroke-width:1;stroke-linecap:butt;stroke-linejoin:miter;stroke:rgb(0%,0%,0%);stroke-opacity:1;stroke-miterlimit:10;" d="M 141 55 L 115.019531 100 L 166.980469 100 L 141 55 "/>
<path style="fill-rule:nonzero;fill:rgb(55%,51%,53%);fill-opacity:1;stroke-width:1;stroke-linecap:butt;stroke-linejoin:miter;stroke:rgb(0%,0%,0%);stroke-opacity:1;stroke-miterlimit:10;" d="M 409 228 L 383.019531 273 L 434.980469 273 L 409 228 "/>
<path style="fill-rule:nonzero;fill:rgb(35%,70%,90%);fill-opacity:1;stroke-width:1;stroke-linecap:butt;stroke-linejoin:miter;stroke:rgb(0%,0%,0%);stroke-opacity:1;stroke-miterlimit:10;" d="M 710 401 L 739.664062 401 L 751.664062 372.785156 L 763.664062 401 L 793.332031 401 L 769.332031 418.4375 L 777.417969 449.980469 L 751.664062 432.542969 L 725.914062 449.980469 L 738.214844 418.4375 L 710 401 "/>
<path style="fill-rule:nonzero;fill:rgb(35%,70%,90%);fill-opacity:1;stroke-width:1;stroke-linecap:butt;stroke-linejoin:miter;stroke:rgb(0%,0%,0%);stroke-opacity:1;stroke-miterlimit:10;" d="M 1018 83 L 1047.664062 83 L 1059.664062 54.785156 L 1071.664062 83 L 1101.332031 83 L 1077.332031 100.4375 L 1085.417969 131.980469 L 1059.664062 114.542969 L 1033.914062 131.980469 L 1046.214844 100.4375 L 1018 83 "/>
<path style="fill-rule:nonzero;fill:rgb(55%,51%,53%);fill-opacity:1;stroke-width:1;stroke-linecap:butt;stroke-linejoin:miter;stroke:rgb(0%,0%,0%);stroke-opacity:1;stroke-miterlimit:10;" d="M 707 169 L 681.019531 214 L 732.980469 214 L 707 169 "/>
<path style="fill-rule:nonzero;fill:rgb(35%,70%,90%);fill-opacity:1;stroke-width:1;stroke-linecap:butt;stroke-linejoin:miter;stroke:rgb(0%,0%,0%);stroke-opacity:1;stroke-miterlimit:10;" d="M 918 276 L 947.664062 276 L 959.664062 247.785156 L 971.664062 276 L 1001.332031 276 L 977.332031 293.4375 L 985.417969 324.980469 L 959.664062 307.542969 L 933.914062 324.980469 L 946.214844 293.4375 L 918 276 "/>
</g>
</svg>
