<?xml version="1.0" encoding="UTF-8"?>
<svg xmlns="http://www.w3.org/2000/svg" xmlns:xlink="http://www.w3.org/1999/xlink" width="1179pt" height="517pt" viewBox="0 0 1179 517" version="1.1">
<g id="surface261">
<rect x="0" y="0" width="1179" height="517" style="fill:rgb(90%,90%,90%);fill-opacity:1;stroke:none;"/>
<path style="fill-rule:nonzero;fill:rgb(35%,70%,90%);fill-opacity:1;stroke-width:1;stroke-linecap:butt;stroke-linejoin:miter;stroke:rgb(0%,0%,0%);stroke-opacity:1;stroke-miterlimit:10;" d="M 238.214844 162 C 238.214844 173.714844 228.714844 183.214844 217 183.214844 C 205.285156 183.214844 195.785156 173.714844 195.785156 162 C 195.785156 150.285156 205.285156 140.785156 217 140.785156 C 228.714844 140.785156 238.214844 150.285156 238.214844 162 "/>
<path style="fill-rule:nonzero;fill:rgb(35%,70%,90%);fill-opacity:1;stroke-width:1;stroke-linecap:butt;stroke-linejoin:miter;stroke:rgb(0%,0%,0%);stroke-opacity:1;stroke-miterlimit:10;" d="M 383.785156 227.785156 L 383.785156 270.214844 L 426.214844 270.214844 L 426.214844 227.785156 L 383.785156 227.785156 "/>
<path style="fill-rule:nonzero;fill:rgb(35%,70%,90%);fill-opacity:1;stroke-width:1;stroke-linecap:butt;stroke-linejoin:miter;stroke:rgb(0%,0%,0%);stroke-opacity:1;stroke-miterlimit:10;" d="M 214.785156 303.785156 L 214.785156 346.214844 L 257.214844 346.214844 L 257.214844 303.785156 L 214.785156 303.785156 "/>
<path style="fill-rule:nonzero;fill:rgb(55%,51%,53%);fill-opacity:1;stroke-width:1;stroke-linecap:butt;stroke-linejoin:miter;stroke:rgb(0%,0%,0%);stroke-opacity:1;stroke-miterlimit:10;" d="M 767.785156 243.785156 L 767.785156 286.214844 L 810.214844 286.214844 L 810.214844 243.785156 L 767.785156 243.785156 "/>
<path style="fill-rule:nonzero;fill:rgb(55%,51%,53%);fill-opacity:1;stroke-width:1;stroke-linecap:butt;stroke-linejoin:miter;stroke:rgb(0%,0%,0%);stroke-opacity:1;stroke-miterlimit:10;" d="M 1003.214844 414 C 1003.214844 425.714844 993.714844 435.214844 982 435.214844 C 970.285156 435.214844 960.785156 425.714844 960.785156 414 C 960.785156 402.285156 970.285156 392.785156 982 392.785156 C 993.714844 392.785156 1003.214844 402.285156 1003.214844 414 "/>
<path style="fill-rule:nonzero;fill:rgb(55%,51%,53%);fill-opacity:1;stroke-width:1;stroke-linecap:butt;stroke-linejoin:miter;stroke:rgb(0%,0%,0%);stroke-opacity:1;stroke-miterlimit:10;" d="M 741.214844 163 C 741.214844 174.714844 731.714844 184.214844 720 184.214844 C 708.285156 184.214844 698.785156 174.714844 698.785156 163 C 698.785156 151.285156 708.285156 141.785156 720 141.785156 C 731.714844 141.785156 741.214844 151.285156 741.214844 163 "/>
</g>
</svg>
