<?xml version="1.0" encoding="UTF-8"?>
<svg xmlns="http://www.w3.org/2000/svg" xmlns:xlink="http://www.w3.org/1999/xlink" width="1179pt" height="517pt" viewBox="0 0 1179 517" version="1.1">
<g id="surface561">
<rect x="0" y="0" width="1179" height="517" style="fill:rgb(90%,90%,90%);fill-opacity:1;stroke:none;"/>
<path style="fill-rule:nonzero;fill:rgb(35%,70%,90%);fill-opacity:1;stroke-width:1;stroke-linecap:butt;stroke-linejoin:miter;stroke:rgb(0%,0%,0%);stroke-opacity:1;stroke-miterlimit:10;" d="M 343.214844 210 C 343.214844 221.714844 333.714844 231.214844 322 231.214844 C 310.285156 231.214844 300.785156 221.714844 300.785156 210 C 300.785156 198.285156 310.285156 188.785156 322 188.785156 C 333.714844 188.785156 343.214844 198.285156 343.214844 210 "/>
<path style="fill-rule:nonzero;fill:rgb(35%,70%,90%);fill-opacity:1;stroke-width:1;stroke-linecap:butt;stroke-linejoin:miter;stroke:rgb(0%,0%,0%);stroke-opacity:1;stroke-miterlimit:10;" d="M 86.785156 59.785156 L 86.785156 102.214844 L 129.214844 102.214844 L 129.214844 59.785156 L 86.785156 59.785156 "/>
<path style="fill-rule:nonzero;fill:rgb(35%,70%,90%);fill-opacity:1;stroke-width:1;stroke-linecap:butt;stroke-linejoin:miter;stroke:rgb(0%,0%,0%);stroke-opacity:1;stroke-miterlimit:10;" d="M 345.214844 337 C 345.214844 348.714844 335.714844 358.214844 324 358.214844 C 312.285156 358.214844 302.785156 348.714844 302.785156 337 C 302.785156 325.285156 312.285156 315.785156 324 315.785156 C 335.714844 315.785156 345.214844 325.285156 345.214844 337 "/>
<path style="fill-rule:nonzero;fill:rgb(35%,70%,90%);fill-opacity:1;stroke-width:1;stroke-linecap:butt;stroke-linejoin:miter;stroke:rgb(0%,0%,0%);stroke-opacity:1;stroke-miterlimit:10;" d="M 135.785156 302.785156 L 135.785156 345.214844 L 178.214844 345.214844 L 178.214844 302.785156 L 135.785156 302.785156 "/>
<path style="fill-rule:nonzero;fill:rgb(35%,70%,90%);fill-opacity:1;stroke-width:1;stroke-linecap:butt;stroke-linejoin:miter;stroke:rgb(0%,0%,0%);stroke-opacity:1;stroke-miterlimit:10;" d="M 372.214844 428 C 372.214844 439.714844 362.714844 449.214844 351 449.214844 C 339.285156 449.214844 329.785156 439.714844 329.785156 428 C 329.785156 416.285156 339.285156 406.785156 351 406.785156 C 362.714844 406.785156 372.214844 416.285156 372.214844 428 "/>
<path style="fill-rule:nonzero;fill:rgb(100%,51%,0%);fill-opacity:1;stroke-width:1;stroke-linecap:butt;stroke-linejoin:miter;stroke:rgb(0%,0%,0%);stroke-opacity:1;stroke-miterlimit:10;" d="M 678.785156 385.785156 L 678.785156 428.214844 L 721.214844 428.214844 L 721.214844 385.785156 L 678.785156 385.785156 "/>
<path style="fill-rule:nonzero;fill:rgb(100%,51%,0%);fill-opacity:1;stroke-width:1;stroke-linecap:butt;stroke-linejoin:miter;stroke:rgb(0%,0%,0%);stroke-opacity:1;stroke-miterlimit:10;" d="M 960.214844 131 C 960.214844 142.714844 950.714844 152.214844 939 152.214844 C 927.285156 152.214844 917.785156 142.714844 917.785156 131 C 917.785156 119.285156 927.285156 109.785156 939 109.785156 C 950.714844 109.785156 960.214844 119.285156 960.214844 131 "/>
<path style="fill-rule:nonzero;fill:rgb(100%,51%,0%);fill-opacity:1;stroke-width:1;stroke-linecap:butt;stroke-linejoin:miter;stroke:rgb(0%,0%,0%);stroke-opacity:1;stroke-miterlimit:10;" d="M 890.785156 318.785156 L 890.785156 361.214844 L 933.214844 361.214844 L 933.214844 318.785156 L 890.785156 318.785156 "/>
</g>
</svg>
