<?xml version="1.0" encoding="UTF-8"?>
<svg xmlns="http://www.w3.org/2000/svg" xmlns:xlink="http://www.w3.org/1999/xlink" width="1179pt" height="517pt" viewBox="0 0 1179 517" version="1.1">
<g id="surface171">
<rect x="0" y="0" width="1179" height="517" style="fill:rgb(90%,90%,90%);fill-opacity:1;stroke:none;"/>
<path style="fill-rule:nonzero;fill:rgb(55%,51%,53%);fill-opacity:1;stroke-width:1;stroke-linecap:butt;stroke-linejoin:miter;stroke:rgb(0%,0%,0%);stroke-opacity:1;stroke-miterlimit:10;" d="M 328.214844 124 C 328.214844 135.714844 318.714844 145.214844 307 145.214844 C 295.285156 145.214844 285.785156 135.714844 285.785156 124 C 285.785156 112.285156 295.285156 102.785156 307 102.785156 C 318.714844 102.785156 328.214844 112.285156 328.214844 124 "/>
<path style="fill-rule:nonzero;fill:rgb(55%,51%,53%);fill-opacity:1;stroke-width:1;stroke-linecap:butt;stroke-linejoin:miter;stroke:rgb(0%,0%,0%);stroke-opacity:1;stroke-miterlimit:10;" d="M 196.214844 90 C 196.214844 101.714844 186.714844 111.214844 175 111.214844 C 163.285156 111.214844 153.785156 101.714844 153.785156 90 C 153.785156 78.285156 163.285156 68.785156 175 68.785156 C 186.714844 68.785156 196.214844 78.285156 196.214844 90 "/>
<path style="fill-rule:nonzero;fill:rgb(53%,27%,7%);fill-opacity:1;stroke-width:1;stroke-linecap:butt;stroke-linejoin:miter;stroke:rgb(0%,0%,0%);stroke-opacity:1;stroke-miterlimit:10;" d="M 115.214844 152 C 115.214844 163.714844 105.714844 173.214844 94 173.214844 C 82.285156 173.214844 72.785156 163.714844 72.785156 152 C 72.785156 140.285156 82.285156 130.785156 94 130.785156 C 105.714844 130.785156 115.214844 140.285156 115.214844 152 "/>
<path style="fill-rule:nonzero;fill:rgb(53%,27%,7%);fill-opacity:1;stroke-width:1;stroke-linecap:butt;stroke-linejoin:miter;stroke:rgb(0%,0%,0%);stroke-opacity:1;stroke-miterlimit:10;" d="M 401.214844 320 C 401.214844 331.714844 391.714844 341.214844 380 341.214844 C 368.285156 341.214844 358.785156 331.714844 358.785156 320 C 358.785156 308.285156 368.285156 298.785156 380 298.785156 C 391.714844 298.785156 401.214844 308.285156 401.214844 320 "/>
<path style="fill-rule:nonzero;fill:rgb(55%,51%,53%);fill-opacity:1;stroke-width:1;stroke-linecap:butt;stroke-linejoin:miter;stroke:rgb(0%,0%,0%);stroke-opacity:1;stroke-miterlimit:10;" d="M 242.214844 178 C 242.214844 189.714844 232.714844 199.214844 221 199.214844 C 209.285156 199.214844 199.785156 189.714844 199.785156 178 C 199.785156 166.285156 209.285156 156.785156 221 156.785156 C 232.714844 156.785156 242.214844 166.285156 242.214844 178 "/>
<path style="fill-rule:nonzero;fill:rgb(53%,27%,7%);fill-opacity:1;stroke-width:1;stroke-linecap:butt;stroke-linejoin:miter;stroke:rgb(0%,0%,0%);stroke-opacity:1;stroke-miterlimit:10;" d="M 835.785156 328.785156 L 835.785156 371.214844 L 878.214844 371.214844 L 878.214844 328.785156 L 835.785156 328.785156 "/>
<path style="fill-rule:nonzero;fill:rgb(53%,27%,7%);fill-opacity:1;stroke-width:1;stroke-linecap:butt;stroke-linejoin:miter;stroke:rgb(0%,0%,0%);stroke-opacity:1;stroke-miterlimit:10;" d="M 855.785156 89.785156 L 855.785156 132.214844 L 898.214844 132.214844 L 898.214844 89.785156 L 855.785156 89.785156 "/>
<path style="fill-rule:nonzero;fill:rgb(55%,51%,53%);fill-opacity:1;stroke-width:1;stroke-linecap:butt;stroke-linejoin:miter;stroke:rgb(0%,0%,0%);stroke-opacity:1;stroke-miterlimit:10;" d="M 991.785156 372.785156 L 991.785156 415.214844 L 1034.214844 415.214844 L 1034.214844 372.785156 L 991.785156 372.785156 "/>
</g>
</svg>
