<?xml version="1.0" encoding="UTF-8"?>
<svg xmlns="http://www.w3.org/2000/svg" xmlns:xlink="http://www.w3.org/1999/xlink" width="1179pt" height="517pt" viewBox="0 0 1179 517" version="1.1">
<g id="surface316">
<rect x="0" y="0" width="1179" height="517" style="fill:rgb(90%,90%,90%);fill-opacity:1;stroke:none;"/>
<path style="fill-rule:nonzero;fill:rgb(100%,51%,0%);fill-opacity:1;stroke-width:1;stroke-linecap:butt;stroke-linejoin:miter;stroke:rgb(0%,0%,0%);stroke-opacity:1;stroke-miterlimit:10;" d="M 185.214844 177 C 185.214844 188.714844 175.714844 198.214844 164 198.214844 C 152.285156 198.214844 142.785156 188.714844 142.785156 177 C 142.785156 165.285156 152.285156 155.785156 164 155.785156 C 175.714844 155.785156 185.214844 165.285156 185.214844 177 "/>
<path style="fill-rule:nonzero;fill:rgb(55%,51%,53%);fill-opacity:1;stroke-width:1;stroke-linecap:butt;stroke-linejoin:miter;stroke:rgb(0%,0%,0%);stroke-opacity:1;stroke-miterlimit:10;" d="M 221.214844 80 C 221.214844 91.714844 211.714844 101.214844 200 101.214844 C 188.285156 101.214844 178.785156 91.714844 178.785156 80 C 178.785156 68.285156 188.285156 58.785156 200 58.785156 C 211.714844 58.785156 221.214844 68.285156 221.214844 80 "/>
<path style="fill-rule:nonzero;fill:rgb(100%,51%,0%);fill-opacity:1;stroke-width:1;stroke-linecap:butt;stroke-linejoin:miter;stroke:rgb(0%,0%,0%);stroke-opacity:1;stroke-miterlimit:10;" d="M 102.214844 225 C 102.214844 236.714844 92.714844 246.214844 81 246.214844 C 69.285156 246.214844 59.785156 236.714844 59.785156 225 C 59.785156 213.285156 69.285156 203.785156 81 203.785156 C 92.714844 203.785156 102.214844 213.285156 102.214844 225 "/>
<path style="fill-rule:nonzero;fill:rgb(55%,51%,53%);fill-opacity:1;stroke-width:1;stroke-linecap:butt;stroke-linejoin:miter;stroke:rgb(0%,0%,0%);stroke-opacity:1;stroke-miterlimit:10;" d="M 197.214844 400 C 197.214844 411.714844 187.714844 421.214844 176 421.214844 C 164.285156 421.214844 154.785156 411.714844 154.785156 400 C 154.785156 388.285156 164.285156 378.785156 176 378.785156 C 187.714844 378.785156 197.214844 388.285156 197.214844 400 "/>
<path style="fill-rule:nonzero;fill:rgb(55%,51%,53%);fill-opacity:1;stroke-width:1;stroke-linecap:butt;stroke-linejoin:miter;stroke:rgb(0%,0%,0%);stroke-opacity:1;stroke-miterlimit:10;" d="M 925 261 L 899.019531 306 L 950.980469 306 L 925 261 "/>
<path style="fill-rule:nonzero;fill:rgb(100%,51%,0%);fill-opacity:1;stroke-width:1;stroke-linecap:butt;stroke-linejoin:miter;stroke:rgb(0%,0%,0%);stroke-opacity:1;stroke-miterlimit:10;" d="M 1038 365 L 1012.019531 410 L 1063.980469 410 L 1038 365 "/>
<path style="fill-rule:nonzero;fill:rgb(55%,51%,53%);fill-opacity:1;stroke-width:1;stroke-linecap:butt;stroke-linejoin:miter;stroke:rgb(0%,0%,0%);stroke-opacity:1;stroke-miterlimit:10;" d="M 905 164 L 879.019531 209 L 930.980469 209 L 905 164 "/>
<path style="fill-rule:nonzero;fill:rgb(100%,51%,0%);fill-opacity:1;stroke-width:1;stroke-linecap:butt;stroke-linejoin:miter;stroke:rgb(0%,0%,0%);stroke-opacity:1;stroke-miterlimit:10;" d="M 756 161 L 730.019531 206 L 781.980469 206 L 756 161 "/>
<path style="fill-rule:nonzero;fill:rgb(55%,51%,53%);fill-opacity:1;stroke-width:1;stroke-linecap:butt;stroke-linejoin:miter;stroke:rgb(0%,0%,0%);stroke-opacity:1;stroke-miterlimit:10;" d="M 774 252 L 748.019531 297 L 799.980469 297 L 774 252 "/>
</g>
</svg>
