<?xml version="1.0" encoding="UTF-8"?>
<svg xmlns="http://www.w3.org/2000/svg" xmlns:xlink="http://www.w3.org/1999/xlink" width="1179pt" height="517pt" viewBox="0 0 1179 517" version="1.1">
<g id="surface1341">
<rect x="0" y="0" width="1179" height="517" style="fill:rgb(90%,90%,90%);fill-opacity:1;stroke:none;"/>
<path style="fill-rule:nonzero;fill:rgb(55%,51%,53%);fill-opacity:1;stroke-width:1;stroke-linecap:butt;stroke-linejoin:miter;stroke:rgb(0%,0%,0%);stroke-opacity:1;stroke-miterlimit:10;" d="M 141 389 L 170.664062 389 L 182.664062 360.785156 L 194.664062 389 L 224.332031 389 L 200.332031 406.4375 L 208.417969 437.980469 L 182.664062 420.542969 L 156.914062 437.980469 L 169.214844 406.4375 L 141 389 "/>
<path style="fill-rule:nonzero;fill:rgb(55%,51%,53%);fill-opacity:1;stroke-width:1;stroke-linecap:butt;stroke-linejoin:miter;stroke:rgb(0%,0%,0%);stroke-opacity:1;stroke-miterlimit:10;" d="M 254 174 L 283.664062 174 L 295.664062 145.785156 L 307.664062 174 L 337.332031 174 L 313.332031 191.4375 L 321.417969 222.980469 L 295.664062 205.542969 L 269.914062 222.980469 L 282.214844 191.4375 L 254 174 "/>
<path style="fill-rule:nonzero;fill:rgb(55%,51%,53%);fill-opacity:1;stroke-width:1;stroke-linecap:butt;stroke-linejoin:miter;stroke:rgb(0%,0%,0%);stroke-opacity:1;stroke-miterlimit:10;" d="M 103 254 L 132.664062 254 L 144.664062 225.785156 L 156.664062 254 L 186.332031 254 L 162.332031 271.4375 L 170.417969 302.980469 L 144.664062 285.542969 L 118.914062 302.980469 L 131.214844 271.4375 L 103 254 "/>
<path style="fill-rule:nonzero;fill:rgb(55%,51%,53%);fill-opacity:1;stroke-width:1;stroke-linecap:butt;stroke-linejoin:miter;stroke:rgb(0%,0%,0%);stroke-opacity:1;stroke-miterlimit:10;" d="M 530 113 L 559.664062 113 L 571.664062 84.785156 L 583.664062 113 L 613.332031 113 L 589.332031 130.4375 L 597.417969 161.980469 L 571.664062 144.542969 L 545.914062 161.980469 L 558.214844 130.4375 L 530 113 "/>
<path style="fill-rule:nonzero;fill:rgb(100%,51%,0%);fill-opacity:1;stroke-width:1;stroke-linecap:butt;stroke-linejoin:miter;stroke:rgb(0%,0%,0%);stroke-opacity:1;stroke-miterlimit:10;" d="M 382.214844 414 C 382.214844 425.714844 372.714844 435.214844 361 435.214844 C 349.285156 435.214844 339.785156 425.714844 339.785156 414 C 339.785156 402.285156 349.285156 392.785156 361 392.785156 C 372.714844 392.785156 382.214844 402.285156 382.214844 414 "/>
<path style="fill-rule:nonzero;fill:rgb(100%,51%,0%);fill-opacity:1;stroke-width:1;stroke-linecap:butt;stroke-linejoin:miter;stroke:rgb(0%,0%,0%);stroke-opacity:1;stroke-miterlimit:10;" d="M 1003.214844 426 C 1003.214844 437.714844 993.714844 447.214844 982 447.214844 C 970.285156 447.214844 960.785156 437.714844 960.785156 426 C 960.785156 414.285156 970.285156 404.785156 982 404.785156 C 993.714844 404.785156 1003.214844 414.285156 1003.214844 426 "/>
<path style="fill-rule:nonzero;fill:rgb(100%,51%,0%);fill-opacity:1;stroke-width:1;stroke-linecap:butt;stroke-linejoin:miter;stroke:rgb(0%,0%,0%);stroke-opacity:1;stroke-miterlimit:10;" d="M 784.214844 85 C 784.214844 96.714844 774.714844 106.214844 763 106.214844 C 751.285156 106.214844 741.785156 96.714844 741.785156 85 C 741.785156 73.285156 751.285156 63.785156 763 63.785156 C 774.714844 63.785156 784.214844 73.285156 784.214844 85 "/>
<path style="fill-rule:nonzero;fill:rgb(100%,51%,0%);fill-opacity:1;stroke-width:1;stroke-linecap:butt;stroke-linejoin:miter;stroke:rgb(0%,0%,0%);stroke-opacity:1;stroke-miterlimit:10;" d="M 731.214844 360 C 731.214844 371.714844 721.714844 381.214844 710 381.214844 C 698.285156 381.214844 688.785156 371.714844 688.785156 360 C 688.785156 348.285156 698.285156 338.785156 710 338.785156 C 721.714844 338.785156 731.214844 348.285156 731.214844 360 "/>
<path style="fill-rule:nonzero;fill:rgb(100%,51%,0%);fill-opacity:1;stroke-width:1;stroke-linecap:butt;stroke-linejoin:miter;stroke:rgb(0%,0%,0%);stroke-opacity:1;stroke-miterlimit:10;" d="M 994.214844 205 C 994.214844 216.714844 984.714844 226.214844 973 226.214844 C 961.285156 226.214844 951.785156 216.714844 951.785156 205 C 951.785156 193.285156 961.285156 183.785156 973 183.785156 C 984.714844 183.785156 994.214844 193.285156 994.214844 205 "/>
</g>
</svg>
