<?xml version="1.0" encoding="UTF-8"?>
<svg xmlns="http://www.w3.org/2000/svg" xmlns:xlink="http://www.w3.org/1999/xlink" width="1179pt" height="517pt" viewBox="0 0 1179 517" version="1.1">
<g id="surface456">
<rect x="0" y="0" width="1179" height="517" style="fill:rgb(90%,90%,90%);fill-opacity:1;stroke:none;"/>
<path style="fill-rule:nonzero;fill:rgb(100%,51%,0%);fill-opacity:1;stroke-width:1;stroke-linecap:butt;stroke-linejoin:miter;stroke:rgb(0%,0%,0%);stroke-opacity:1;stroke-miterlimit:10;" d="M 267 246 L 296.664062 246 L 308.664062 217.785156 L 320.664062 246 L 350.332031 246 L 326.332031 263.4375 L 334.417969 294.980469 L 308.664062 277.542969 L 282.914062 294.980469 L 295.214844 263.4375 L 267 246 "/>
<path style="fill-rule:nonzero;fill:rgb(100%,51%,0%);fill-opacity:1;stroke-width:1;stroke-linecap:butt;stroke-linejoin:miter;stroke:rgb(0%,0%,0%);stroke-opacity:1;stroke-miterlimit:10;" d="M 516 305 L 545.664062 305 L 557.664062 276.785156 L 569.664062 305 L 599.332031 305 L 575.332031 322.4375 L 583.417969 353.980469 L 557.664062 336.542969 L 531.914062 353.980469 L 544.214844 322.4375 L 516 305 "/>
<path style="fill-rule:nonzero;fill:rgb(100%,51%,0%);fill-opacity:1;stroke-width:1;stroke-linecap:butt;stroke-linejoin:miter;stroke:rgb(0%,0%,0%);stroke-opacity:1;stroke-miterlimit:10;" d="M 593 110 L 622.664062 110 L 634.664062 81.785156 L 646.664062 110 L 676.332031 110 L 652.332031 127.4375 L 660.417969 158.980469 L 634.664062 141.542969 L 608.914062 158.980469 L 621.214844 127.4375 L 593 110 "/>
<path style="fill-rule:nonzero;fill:rgb(100%,51%,0%);fill-opacity:1;stroke-width:1;stroke-linecap:butt;stroke-linejoin:miter;stroke:rgb(0%,0%,0%);stroke-opacity:1;stroke-miterlimit:10;" d="M 463 168 L 492.664062 168 L 504.664062 139.785156 L 516.664062 168 L 546.332031 168 L 522.332031 185.4375 L 530.417969 216.980469 L 504.664062 199.542969 L 478.914062 216.980469 L 491.214844 185.4375 L 463 168 "/>
<path style="fill-rule:nonzero;fill:rgb(53%,27%,7%);fill-opacity:1;stroke-width:1;stroke-linecap:butt;stroke-linejoin:miter;stroke:rgb(0%,0%,0%);stroke-opacity:1;stroke-miterlimit:10;" d="M 890 244 L 864.019531 289 L 915.980469 289 L 890 244 "/>
<path style="fill-rule:nonzero;fill:rgb(53%,27%,7%);fill-opacity:1;stroke-width:1;stroke-linecap:butt;stroke-linejoin:miter;stroke:rgb(0%,0%,0%);stroke-opacity:1;stroke-miterlimit:10;" d="M 844 123 L 818.019531 168 L 869.980469 168 L 844 123 "/>
<path style="fill-rule:nonzero;fill:rgb(53%,27%,7%);fill-opacity:1;stroke-width:1;stroke-linecap:butt;stroke-linejoin:miter;stroke:rgb(0%,0%,0%);stroke-opacity:1;stroke-miterlimit:10;" d="M 674 170 L 648.019531 215 L 699.980469 215 L 674 170 "/>
</g>
</svg>
