<?xml version="1.0" encoding="UTF-8"?>
<svg xmlns="http://www.w3.org/2000/svg" xmlns:xlink="http://www.w3.org/1999/xlink" width="1179pt" height="517pt" viewBox="0 0 1179 517" version="1.1">
<g id="surface651">
<rect x="0" y="0" width="1179" height="517" style="fill:rgb(90%,90%,90%);fill-opacity:1;stroke:none;"/>
<path style="fill-rule:nonzero;fill:rgb(100%,51%,0%);fill-opacity:1;stroke-width:1;stroke-linecap:butt;stroke-linejoin:miter;stroke:rgb(0%,0%,0%);stroke-opacity:1;stroke-miterlimit:10;" d="M 345.214844 108 C 345.214844 119.714844 335.714844 129.214844 324 129.214844 C 312.285156 129.214844 302.785156 119.714844 302.785156 108 C 302.785156 96.285156 312.285156 86.785156 324 86.785156 C 335.714844 86.785156 345.214844 96.285156 345.214844 108 "/>
<path style="fill-rule:nonzero;fill:rgb(100%,51%,0%);fill-opacity:1;stroke-width:1;stroke-linecap:butt;stroke-linejoin:miter;stroke:rgb(0%,0%,0%);stroke-opacity:1;stroke-miterlimit:10;" d="M 153.785156 356.785156 L 153.785156 399.214844 L 196.214844 399.214844 L 196.214844 356.785156 L 153.785156 356.785156 "/>
<path style="fill-rule:nonzero;fill:rgb(100%,51%,0%);fill-opacity:1;stroke-width:1;stroke-linecap:butt;stroke-linejoin:miter;stroke:rgb(0%,0%,0%);stroke-opacity:1;stroke-miterlimit:10;" d="M 155.214844 244 C 155.214844 255.714844 145.714844 265.214844 134 265.214844 C 122.285156 265.214844 112.785156 255.714844 112.785156 244 C 112.785156 232.285156 122.285156 222.785156 134 222.785156 C 145.714844 222.785156 155.214844 232.285156 155.214844 244 "/>
<path style="fill-rule:nonzero;fill:rgb(100%,51%,0%);fill-opacity:1;stroke-width:1;stroke-linecap:butt;stroke-linejoin:miter;stroke:rgb(0%,0%,0%);stroke-opacity:1;stroke-miterlimit:10;" d="M 247.785156 214.785156 L 247.785156 257.214844 L 290.214844 257.214844 L 290.214844 214.785156 L 247.785156 214.785156 "/>
<path style="fill-rule:nonzero;fill:rgb(53%,27%,7%);fill-opacity:1;stroke-width:1;stroke-linecap:butt;stroke-linejoin:miter;stroke:rgb(0%,0%,0%);stroke-opacity:1;stroke-miterlimit:10;" d="M 865.785156 117.785156 L 865.785156 160.214844 L 908.214844 160.214844 L 908.214844 117.785156 L 865.785156 117.785156 "/>
<path style="fill-rule:nonzero;fill:rgb(53%,27%,7%);fill-opacity:1;stroke-width:1;stroke-linecap:butt;stroke-linejoin:miter;stroke:rgb(0%,0%,0%);stroke-opacity:1;stroke-miterlimit:10;" d="M 980.214844 381 C 980.214844 392.714844 970.714844 402.214844 959 402.214844 C 947.285156 402.214844 937.785156 392.714844 937.785156 381 C 937.785156 369.285156 947.285156 359.785156 959 359.785156 C 970.714844 359.785156 980.214844 369.285156 980.214844 381 "/>
<path style="fill-rule:nonzero;fill:rgb(53%,27%,7%);fill-opacity:1;stroke-width:1;stroke-linecap:butt;stroke-linejoin:miter;stroke:rgb(0%,0%,0%);stroke-opacity:1;stroke-miterlimit:10;" d="M 1005.785156 61.785156 L 1005.785156 104.214844 L 1048.214844 104.214844 L 1048.214844 61.785156 L 1005.785156 61.785156 "/>
</g>
</svg>
