<?xml version="1.0" encoding="UTF-8"?>
<svg xmlns="http://www.w3.org/2000/svg" xmlns:xlink="http://www.w3.org/1999/xlink" width="1179pt" height="517pt" viewBox="0 0 1179 517" version="1.1">
<g id="surface546">
<rect x="0" y="0" width="1179" height="517" style="fill:rgb(90%,90%,90%);fill-opacity:1;stroke:none;"/>
<path style="fill-rule:nonzero;fill:rgb(100%,51%,0%);fill-opacity:1;stroke-width:1;stroke-linecap:butt;stroke-linejoin:miter;stroke:rgb(0%,0%,0%);stroke-opacity:1;stroke-miterlimit:10;" d="M 228 260 L 202.019531 305 L 253.980469 305 L 228 260 "/>
<path style="fill-rule:nonzero;fill:rgb(35%,70%,90%);fill-opacity:1;stroke-width:1;stroke-linecap:butt;stroke-linejoin:miter;stroke:rgb(0%,0%,0%);stroke-opacity:1;stroke-miterlimit:10;" d="M 322 126 L 351.664062 126 L 363.664062 97.785156 L 375.664062 126 L 405.332031 126 L 381.332031 143.4375 L 389.417969 174.980469 L 363.664062 157.542969 L 337.914062 174.980469 L 350.214844 143.4375 L 322 126 "/>
<path style="fill-rule:nonzero;fill:rgb(100%,51%,0%);fill-opacity:1;stroke-width:1;stroke-linecap:butt;stroke-linejoin:miter;stroke:rgb(0%,0%,0%);stroke-opacity:1;stroke-miterlimit:10;" d="M 167 67 L 141.019531 112 L 192.980469 112 L 167 67 "/>
<path style="fill-rule:nonzero;fill:rgb(100%,51%,0%);fill-opacity:1;stroke-width:1;stroke-linecap:butt;stroke-linejoin:miter;stroke:rgb(0%,0%,0%);stroke-opacity:1;stroke-miterlimit:10;" d="M 104 316 L 78.019531 361 L 129.980469 361 L 104 316 "/>
<path style="fill-rule:nonzero;fill:rgb(35%,70%,90%);fill-opacity:1;stroke-width:1;stroke-linecap:butt;stroke-linejoin:miter;stroke:rgb(0%,0%,0%);stroke-opacity:1;stroke-miterlimit:10;" d="M 348 404 L 377.664062 404 L 389.664062 375.785156 L 401.664062 404 L 431.332031 404 L 407.332031 421.4375 L 415.417969 452.980469 L 389.664062 435.542969 L 363.914062 452.980469 L 376.214844 421.4375 L 348 404 "/>
<path style="fill-rule:nonzero;fill:rgb(100%,51%,0%);fill-opacity:1;stroke-width:1;stroke-linecap:butt;stroke-linejoin:miter;stroke:rgb(0%,0%,0%);stroke-opacity:1;stroke-miterlimit:10;" d="M 241 356 L 215.019531 401 L 266.980469 401 L 241 356 "/>
<path style="fill-rule:nonzero;fill:rgb(100%,51%,0%);fill-opacity:1;stroke-width:1;stroke-linecap:butt;stroke-linejoin:miter;stroke:rgb(0%,0%,0%);stroke-opacity:1;stroke-miterlimit:10;" d="M 118 197 L 92.019531 242 L 143.980469 242 L 118 197 "/>
<path style="fill-rule:nonzero;fill:rgb(35%,70%,90%);fill-opacity:1;stroke-width:1;stroke-linecap:butt;stroke-linejoin:miter;stroke:rgb(0%,0%,0%);stroke-opacity:1;stroke-miterlimit:10;" d="M 328 238 L 357.664062 238 L 369.664062 209.785156 L 381.664062 238 L 411.332031 238 L 387.332031 255.4375 L 395.417969 286.980469 L 369.664062 269.542969 L 343.914062 286.980469 L 356.214844 255.4375 L 328 238 "/>
<path style="fill-rule:nonzero;fill:rgb(35%,70%,90%);fill-opacity:1;stroke-width:1;stroke-linecap:butt;stroke-linejoin:miter;stroke:rgb(0%,0%,0%);stroke-opacity:1;stroke-miterlimit:10;" d="M 1003 356 L 1032.664062 356 L 1044.664062 327.785156 L 1056.664062 356 L 1086.332031 356 L 1062.332031 373.4375 L 1070.417969 404.980469 L 1044.664062 387.542969 L 1018.914062 404.980469 L 1031.214844 373.4375 L 1003 356 "/>
<path style="fill-rule:nonzero;fill:rgb(35%,70%,90%);fill-opacity:1;stroke-width:1;stroke-linecap:butt;stroke-linejoin:miter;stroke:rgb(0%,0%,0%);stroke-opacity:1;stroke-miterlimit:10;" d="M 877 249 L 906.664062 249 L 918.664062 220.785156 L 930.664062 249 L 960.332031 249 L 936.332031 266.4375 L 944.417969 297.980469 L 918.664062 280.542969 L 892.914062 297.980469 L 905.214844 266.4375 L 877 249 "/>
<path style="fill-rule:nonzero;fill:rgb(35%,70%,90%);fill-opacity:1;stroke-width:1;stroke-linecap:butt;stroke-linejoin:miter;stroke:rgb(0%,0%,0%);stroke-opacity:1;stroke-miterlimit:10;" d="M 951 187 L 980.664062 187 L 992.664062 158.785156 L 1004.664062 187 L 1034.332031 187 L 1010.332031 204.4375 L 1018.417969 235.980469 L 992.664062 218.542969 L 966.914062 235.980469 L 979.214844 204.4375 L 951 187 "/>
<path style="fill-rule:nonzero;fill:rgb(100%,51%,0%);fill-opacity:1;stroke-width:1;stroke-linecap:butt;stroke-linejoin:miter;stroke:rgb(0%,0%,0%);stroke-opacity:1;stroke-miterlimit:10;" d="M 884 336 L 858.019531 381 L 909.980469 381 L 884 336 "/>
<path style="fill-rule:nonzero;fill:rgb(35%,70%,90%);fill-opacity:1;stroke-width:1;stroke-linecap:butt;stroke-linejoin:miter;stroke:rgb(0%,0%,0%);stroke-opacity:1;stroke-miterlimit:10;" d="M 699 403 L 728.664062 403 L 740.664062 374.785156 L 752.664062 403 L 782.332031 403 L 758.332031 420.4375 L 766.417969 451.980469 L 740.664062 434.542969 L 714.914062 451.980469 L 727.214844 420.4375 L 699 403 "/>
<path style="fill-rule:nonzero;fill:rgb(100%,51%,0%);fill-opacity:1;stroke-width:1;stroke-linecap:butt;stroke-linejoin:miter;stroke:rgb(0%,0%,0%);stroke-opacity:1;stroke-miterlimit:10;" d="M 806 106 L 780.019531 151 L 831.980469 151 L 806 106 "/>
</g>
</svg>
