<?xml version="1.0" encoding="UTF-8"?>
<svg xmlns="http://www.w3.org/2000/svg" xmlns:xlink="http://www.w3.org/1999/xlink" width="1179pt" height="517pt" viewBox="0 0 1179 517" version="1.1">
<g id="surface1401">
<rect x="0" y="0" width="1179" height="517" style="fill:rgb(90%,90%,90%);fill-opacity:1;stroke:none;"/>
<path style="fill-rule:nonzero;fill:rgb(100%,51%,0%);fill-opacity:1;stroke-width:1;stroke-linecap:butt;stroke-linejoin:miter;stroke:rgb(0%,0%,0%);stroke-opacity:1;stroke-miterlimit:10;" d="M 997 394 L 1026.664062 394 L 1038.664062 365.785156 L 1050.664062 394 L 1080.332031 394 L 1056.332031 411.4375 L 1064.417969 442.980469 L 1038.664062 425.542969 L 1012.914062 442.980469 L 1025.214844 411.4375 L 997 394 "/>
<path style="fill-rule:nonzero;fill:rgb(100%,51%,0%);fill-opacity:1;stroke-width:1;stroke-linecap:butt;stroke-linejoin:miter;stroke:rgb(0%,0%,0%);stroke-opacity:1;stroke-miterlimit:10;" d="M 549 95 L 578.664062 95 L 590.664062 66.785156 L 602.664062 95 L 632.332031 95 L 608.332031 112.4375 L 616.417969 143.980469 L 590.664062 126.542969 L 564.914062 143.980469 L 577.214844 112.4375 L 549 95 "/>
<path style="fill-rule:nonzero;fill:rgb(100%,51%,0%);fill-opacity:1;stroke-width:1;stroke-linecap:butt;stroke-linejoin:miter;stroke:rgb(0%,0%,0%);stroke-opacity:1;stroke-miterlimit:10;" d="M 334 373 L 363.664062 373 L 375.664062 344.785156 L 387.664062 373 L 417.332031 373 L 393.332031 390.4375 L 401.417969 421.980469 L 375.664062 404.542969 L 349.914062 421.980469 L 362.214844 390.4375 L 334 373 "/>
<path style="fill-rule:nonzero;fill:rgb(100%,51%,0%);fill-opacity:1;stroke-width:1;stroke-linecap:butt;stroke-linejoin:miter;stroke:rgb(0%,0%,0%);stroke-opacity:1;stroke-miterlimit:10;" d="M 131 114 L 160.664062 114 L 172.664062 85.785156 L 184.664062 114 L 214.332031 114 L 190.332031 131.4375 L 198.417969 162.980469 L 172.664062 145.542969 L 146.914062 162.980469 L 159.214844 131.4375 L 131 114 "/>
<path style="fill-rule:nonzero;fill:rgb(55%,51%,53%);fill-opacity:1;stroke-width:1;stroke-linecap:butt;stroke-linejoin:miter;stroke:rgb(0%,0%,0%);stroke-opacity:1;stroke-miterlimit:10;" d="M 225.214844 298 C 225.214844 309.714844 215.714844 319.214844 204 319.214844 C 192.285156 319.214844 182.785156 309.714844 182.785156 298 C 182.785156 286.285156 192.285156 276.785156 204 276.785156 C 215.714844 276.785156 225.214844 286.285156 225.214844 298 "/>
<path style="fill-rule:nonzero;fill:rgb(55%,51%,53%);fill-opacity:1;stroke-width:1;stroke-linecap:butt;stroke-linejoin:miter;stroke:rgb(0%,0%,0%);stroke-opacity:1;stroke-miterlimit:10;" d="M 896.214844 404 C 896.214844 415.714844 886.714844 425.214844 875 425.214844 C 863.285156 425.214844 853.785156 415.714844 853.785156 404 C 853.785156 392.285156 863.285156 382.785156 875 382.785156 C 886.714844 382.785156 896.214844 392.285156 896.214844 404 "/>
<path style="fill-rule:nonzero;fill:rgb(55%,51%,53%);fill-opacity:1;stroke-width:1;stroke-linecap:butt;stroke-linejoin:miter;stroke:rgb(0%,0%,0%);stroke-opacity:1;stroke-miterlimit:10;" d="M 396.214844 178 C 396.214844 189.714844 386.714844 199.214844 375 199.214844 C 363.285156 199.214844 353.785156 189.714844 353.785156 178 C 353.785156 166.285156 363.285156 156.785156 375 156.785156 C 386.714844 156.785156 396.214844 166.285156 396.214844 178 "/>
<path style="fill-rule:nonzero;fill:rgb(55%,51%,53%);fill-opacity:1;stroke-width:1;stroke-linecap:butt;stroke-linejoin:miter;stroke:rgb(0%,0%,0%);stroke-opacity:1;stroke-miterlimit:10;" d="M 578.214844 219 C 578.214844 230.714844 568.714844 240.214844 557 240.214844 C 545.285156 240.214844 535.785156 230.714844 535.785156 219 C 535.785156 207.285156 545.285156 197.785156 557 197.785156 C 568.714844 197.785156 578.214844 207.285156 578.214844 219 "/>
<path style="fill-rule:nonzero;fill:rgb(55%,51%,53%);fill-opacity:1;stroke-width:1;stroke-linecap:butt;stroke-linejoin:miter;stroke:rgb(0%,0%,0%);stroke-opacity:1;stroke-miterlimit:10;" d="M 954.214844 150 C 954.214844 161.714844 944.714844 171.214844 933 171.214844 C 921.285156 171.214844 911.785156 161.714844 911.785156 150 C 911.785156 138.285156 921.285156 128.785156 933 128.785156 C 944.714844 128.785156 954.214844 138.285156 954.214844 150 "/>
</g>
</svg>
