<?xml version="1.0" encoding="UTF-8"?>
<svg xmlns="http://www.w3.org/2000/svg" xmlns:xlink="http://www.w3.org/1999/xlink" width="1179pt" height="517pt" viewBox="0 0 1179 517" version="1.1">
<g id="surface921">
<rect x="0" y="0" width="1179" height="517" style="fill:rgb(90%,90%,90%);fill-opacity:1;stroke:none;"/>
<path style="fill-rule:nonzero;fill:rgb(100%,51%,0%);fill-opacity:1;stroke-width:1;stroke-linecap:butt;stroke-linejoin:miter;stroke:rgb(0%,0%,0%);stroke-opacity:1;stroke-miterlimit:10;" d="M 820.214844 88 C 820.214844 99.714844 810.714844 109.214844 799 109.214844 C 787.285156 109.214844 777.785156 99.714844 777.785156 88 C 777.785156 76.285156 787.285156 66.785156 799 66.785156 C 810.714844 66.785156 820.214844 76.285156 820.214844 88 "/>
<path style="fill-rule:nonzero;fill:rgb(100%,51%,0%);fill-opacity:1;stroke-width:1;stroke-linecap:butt;stroke-linejoin:miter;stroke:rgb(0%,0%,0%);stroke-opacity:1;stroke-miterlimit:10;" d="M 854.214844 274 C 854.214844 285.714844 844.714844 295.214844 833 295.214844 C 821.285156 295.214844 811.785156 285.714844 811.785156 274 C 811.785156 262.285156 821.285156 252.785156 833 252.785156 C 844.714844 252.785156 854.214844 262.285156 854.214844 274 "/>
<path style="fill-rule:nonzero;fill:rgb(100%,51%,0%);fill-opacity:1;stroke-width:1;stroke-linecap:butt;stroke-linejoin:miter;stroke:rgb(0%,0%,0%);stroke-opacity:1;stroke-miterlimit:10;" d="M 165.214844 376 C 165.214844 387.714844 155.714844 397.214844 144 397.214844 C 132.285156 397.214844 122.785156 387.714844 122.785156 376 C 122.785156 364.285156 132.285156 354.785156 144 354.785156 C 155.714844 354.785156 165.214844 364.285156 165.214844 376 "/>
<path style="fill-rule:nonzero;fill:rgb(100%,51%,0%);fill-opacity:1;stroke-width:1;stroke-linecap:butt;stroke-linejoin:miter;stroke:rgb(0%,0%,0%);stroke-opacity:1;stroke-miterlimit:10;" d="M 748.214844 210 C 748.214844 221.714844 738.714844 231.214844 727 231.214844 C 715.285156 231.214844 705.785156 221.714844 705.785156 210 C 705.785156 198.285156 715.285156 188.785156 727 188.785156 C 738.714844 188.785156 748.214844 198.285156 748.214844 210 "/>
<path style="fill-rule:nonzero;fill:rgb(100%,51%,0%);fill-opacity:1;stroke-width:1;stroke-linecap:butt;stroke-linejoin:miter;stroke:rgb(0%,0%,0%);stroke-opacity:1;stroke-miterlimit:10;" d="M 128.214844 138 C 128.214844 149.714844 118.714844 159.214844 107 159.214844 C 95.285156 159.214844 85.785156 149.714844 85.785156 138 C 85.785156 126.285156 95.285156 116.785156 107 116.785156 C 118.714844 116.785156 128.214844 126.285156 128.214844 138 "/>
<path style="fill-rule:nonzero;fill:rgb(35%,70%,90%);fill-opacity:1;stroke-width:1;stroke-linecap:butt;stroke-linejoin:miter;stroke:rgb(0%,0%,0%);stroke-opacity:1;stroke-miterlimit:10;" d="M 993 230 L 1022.664062 230 L 1034.664062 201.785156 L 1046.664062 230 L 1076.332031 230 L 1052.332031 247.4375 L 1060.417969 278.980469 L 1034.664062 261.542969 L 1008.914062 278.980469 L 1021.214844 247.4375 L 993 230 "/>
<path style="fill-rule:nonzero;fill:rgb(35%,70%,90%);fill-opacity:1;stroke-width:1;stroke-linecap:butt;stroke-linejoin:miter;stroke:rgb(0%,0%,0%);stroke-opacity:1;stroke-miterlimit:10;" d="M 420 268 L 449.664062 268 L 461.664062 239.785156 L 473.664062 268 L 503.332031 268 L 479.332031 285.4375 L 487.417969 316.980469 L 461.664062 299.542969 L 435.914062 316.980469 L 448.214844 285.4375 L 420 268 "/>
<path style="fill-rule:nonzero;fill:rgb(35%,70%,90%);fill-opacity:1;stroke-width:1;stroke-linecap:butt;stroke-linejoin:miter;stroke:rgb(0%,0%,0%);stroke-opacity:1;stroke-miterlimit:10;" d="M 273 184 L 302.664062 184 L 314.664062 155.785156 L 326.664062 184 L 356.332031 184 L 332.332031 201.4375 L 340.417969 232.980469 L 314.664062 215.542969 L 288.914062 232.980469 L 301.214844 201.4375 L 273 184 "/>
<path style="fill-rule:nonzero;fill:rgb(35%,70%,90%);fill-opacity:1;stroke-width:1;stroke-linecap:butt;stroke-linejoin:miter;stroke:rgb(0%,0%,0%);stroke-opacity:1;stroke-miterlimit:10;" d="M 570 214 L 599.664062 214 L 611.664062 185.785156 L 623.664062 214 L 653.332031 214 L 629.332031 231.4375 L 637.417969 262.980469 L 611.664062 245.542969 L 585.914062 262.980469 L 598.214844 231.4375 L 570 214 "/>
</g>
</svg>
