<?xml version="1.0" encoding="UTF-8"?>
<svg xmlns="http://www.w3.org/2000/svg" xmlns:xlink="http://www.w3.org/1999/xlink" width="1179pt" height="517pt" viewBox="0 0 1179 517" version="1.1">
<g id="surface1281">
<rect x="0" y="0" width="1179" height="517" style="fill:rgb(90%,90%,90%);fill-opacity:1;stroke:none;"/>
<path style="fill-rule:nonzero;fill:rgb(35%,70%,90%);fill-opacity:1;stroke-width:1;stroke-linecap:butt;stroke-linejoin:miter;stroke:rgb(0%,0%,0%);stroke-opacity:1;stroke-miterlimit:10;" d="M 573.214844 125 C 573.214844 136.714844 563.714844 146.214844 552 146.214844 C 540.285156 146.214844 530.785156 136.714844 530.785156 125 C 530.785156 113.285156 540.285156 103.785156 552 103.785156 C 563.714844 103.785156 573.214844 113.285156 573.214844 125 "/>
<path style="fill-rule:nonzero;fill:rgb(35%,70%,90%);fill-opacity:1;stroke-width:1;stroke-linecap:butt;stroke-linejoin:miter;stroke:rgb(0%,0%,0%);stroke-opacity:1;stroke-miterlimit:10;" d="M 871.214844 326 C 871.214844 337.714844 861.714844 347.214844 850 347.214844 C 838.285156 347.214844 828.785156 337.714844 828.785156 326 C 828.785156 314.285156 838.285156 304.785156 850 304.785156 C 861.714844 304.785156 871.214844 314.285156 871.214844 326 "/>
<path style="fill-rule:nonzero;fill:rgb(35%,70%,90%);fill-opacity:1;stroke-width:1;stroke-linecap:butt;stroke-linejoin:miter;stroke:rgb(0%,0%,0%);stroke-opacity:1;stroke-miterlimit:10;" d="M 529.214844 316 C 529.214844 327.714844 519.714844 337.214844 508 337.214844 C 496.285156 337.214844 486.785156 327.714844 486.785156 316 C 486.785156 304.285156 496.285156 294.785156 508 294.785156 C 519.714844 294.785156 529.214844 304.285156 529.214844 316 "/>
<path style="fill-rule:nonzero;fill:rgb(35%,70%,90%);fill-opacity:1;stroke-width:1;stroke-linecap:butt;stroke-linejoin:miter;stroke:rgb(0%,0%,0%);stroke-opacity:1;stroke-miterlimit:10;" d="M 106.214844 223 C 106.214844 234.714844 96.714844 244.214844 85 244.214844 C 73.285156 244.214844 63.785156 234.714844 63.785156 223 C 63.785156 211.285156 73.285156 201.785156 85 201.785156 C 96.714844 201.785156 106.214844 211.285156 106.214844 223 "/>
<path style="fill-rule:nonzero;fill:rgb(100%,51%,0%);fill-opacity:1;stroke-width:1;stroke-linecap:butt;stroke-linejoin:miter;stroke:rgb(0%,0%,0%);stroke-opacity:1;stroke-miterlimit:10;" d="M 273 381 L 247.019531 426 L 298.980469 426 L 273 381 "/>
<path style="fill-rule:nonzero;fill:rgb(100%,51%,0%);fill-opacity:1;stroke-width:1;stroke-linecap:butt;stroke-linejoin:miter;stroke:rgb(0%,0%,0%);stroke-opacity:1;stroke-miterlimit:10;" d="M 1043 285 L 1017.019531 330 L 1068.980469 330 L 1043 285 "/>
<path style="fill-rule:nonzero;fill:rgb(100%,51%,0%);fill-opacity:1;stroke-width:1;stroke-linecap:butt;stroke-linejoin:miter;stroke:rgb(0%,0%,0%);stroke-opacity:1;stroke-miterlimit:10;" d="M 1039 53 L 1013.019531 98 L 1064.980469 98 L 1039 53 "/>
<path style="fill-rule:nonzero;fill:rgb(100%,51%,0%);fill-opacity:1;stroke-width:1;stroke-linecap:butt;stroke-linejoin:miter;stroke:rgb(0%,0%,0%);stroke-opacity:1;stroke-miterlimit:10;" d="M 281 109 L 255.019531 154 L 306.980469 154 L 281 109 "/>
</g>
</svg>
