<?xml version="1.0" encoding="UTF-8"?>
<svg xmlns="http://www.w3.org/2000/svg" xmlns:xlink="http://www.w3.org/1999/xlink" width="1179pt" height="517pt" viewBox="0 0 1179 517" version="1.1">
<g id="surface1021">
<rect x="0" y="0" width="1179" height="517" style="fill:rgb(90%,90%,90%);fill-opacity:1;stroke:none;"/>
<path style="fill-rule:nonzero;fill:rgb(100%,51%,0%);fill-opacity:1;stroke-width:1;stroke-linecap:butt;stroke-linejoin:miter;stroke:rgb(0%,0%,0%);stroke-opacity:1;stroke-miterlimit:10;" d="M 980 345 L 1009.664062 345 L 1021.664062 316.785156 L 1033.664062 345 L 1063.332031 345 L 1039.332031 362.4375 L 1047.417969 393.980469 L 1021.664062 376.542969 L 995.914062 393.980469 L 1008.214844 362.4375 L 980 345 "/>
<path style="fill-rule:nonzero;fill:rgb(100%,51%,0%);fill-opacity:1;stroke-width:1;stroke-linecap:butt;stroke-linejoin:miter;stroke:rgb(0%,0%,0%);stroke-opacity:1;stroke-miterlimit:10;" d="M 663 132 L 692.664062 132 L 704.664062 103.785156 L 716.664062 132 L 746.332031 132 L 722.332031 149.4375 L 730.417969 180.980469 L 704.664062 163.542969 L 678.914062 180.980469 L 691.214844 149.4375 L 663 132 "/>
<path style="fill-rule:nonzero;fill:rgb(100%,51%,0%);fill-opacity:1;stroke-width:1;stroke-linecap:butt;stroke-linejoin:miter;stroke:rgb(0%,0%,0%);stroke-opacity:1;stroke-miterlimit:10;" d="M 494 194 L 523.664062 194 L 535.664062 165.785156 L 547.664062 194 L 577.332031 194 L 553.332031 211.4375 L 561.417969 242.980469 L 535.664062 225.542969 L 509.914062 242.980469 L 522.214844 211.4375 L 494 194 "/>
<path style="fill-rule:nonzero;fill:rgb(100%,51%,0%);fill-opacity:1;stroke-width:1;stroke-linecap:butt;stroke-linejoin:miter;stroke:rgb(0%,0%,0%);stroke-opacity:1;stroke-miterlimit:10;" d="M 351 174 L 380.664062 174 L 392.664062 145.785156 L 404.664062 174 L 434.332031 174 L 410.332031 191.4375 L 418.417969 222.980469 L 392.664062 205.542969 L 366.914062 222.980469 L 379.214844 191.4375 L 351 174 "/>
<path style="fill-rule:nonzero;fill:rgb(100%,51%,0%);fill-opacity:1;stroke-width:1;stroke-linecap:butt;stroke-linejoin:miter;stroke:rgb(0%,0%,0%);stroke-opacity:1;stroke-miterlimit:10;" d="M 858 290 L 887.664062 290 L 899.664062 261.785156 L 911.664062 290 L 941.332031 290 L 917.332031 307.4375 L 925.417969 338.980469 L 899.664062 321.542969 L 873.914062 338.980469 L 886.214844 307.4375 L 858 290 "/>
<path style="fill-rule:nonzero;fill:rgb(35%,70%,90%);fill-opacity:1;stroke-width:1;stroke-linecap:butt;stroke-linejoin:miter;stroke:rgb(0%,0%,0%);stroke-opacity:1;stroke-miterlimit:10;" d="M 87 124 L 61.019531 169 L 112.980469 169 L 87 124 "/>
<path style="fill-rule:nonzero;fill:rgb(35%,70%,90%);fill-opacity:1;stroke-width:1;stroke-linecap:butt;stroke-linejoin:miter;stroke:rgb(0%,0%,0%);stroke-opacity:1;stroke-miterlimit:10;" d="M 842 390 L 816.019531 435 L 867.980469 435 L 842 390 "/>
<path style="fill-rule:nonzero;fill:rgb(35%,70%,90%);fill-opacity:1;stroke-width:1;stroke-linecap:butt;stroke-linejoin:miter;stroke:rgb(0%,0%,0%);stroke-opacity:1;stroke-miterlimit:10;" d="M 656 293 L 630.019531 338 L 681.980469 338 L 656 293 "/>
</g>
</svg>
