<?xml version="1.0" encoding="UTF-8"?>
<svg xmlns="http://www.w3.org/2000/svg" xmlns:xlink="http://www.w3.org/1999/xlink" width="1179pt" height="517pt" viewBox="0 0 1179 517" version="1.1">
<g id="surface156">
<rect x="0" y="0" width="1179" height="517" style="fill:rgb(90%,90%,90%);fill-opacity:1;stroke:none;"/>
<path style="fill-rule:nonzero;fill:rgb(55%,51%,53%);fill-opacity:1;stroke-width:1;stroke-linecap:butt;stroke-linejoin:miter;stroke:rgb(0%,0%,0%);stroke-opacity:1;stroke-miterlimit:10;" d="M 594 395 L 623.664062 395 L 635.664062 366.785156 L 647.664062 395 L 677.332031 395 L 653.332031 412.4375 L 661.417969 443.980469 L 635.664062 426.542969 L 609.914062 443.980469 L 622.214844 412.4375 L 594 395 "/>
<path style="fill-rule:nonzero;fill:rgb(55%,51%,53%);fill-opacity:1;stroke-width:1;stroke-linecap:butt;stroke-linejoin:miter;stroke:rgb(0%,0%,0%);stroke-opacity:1;stroke-miterlimit:10;" d="M 788 96 L 817.664062 96 L 829.664062 67.785156 L 841.664062 96 L 871.332031 96 L 847.332031 113.4375 L 855.417969 144.980469 L 829.664062 127.542969 L 803.914062 144.980469 L 816.214844 113.4375 L 788 96 "/>
<path style="fill-rule:nonzero;fill:rgb(55%,51%,53%);fill-opacity:1;stroke-width:1;stroke-linecap:butt;stroke-linejoin:miter;stroke:rgb(0%,0%,0%);stroke-opacity:1;stroke-miterlimit:10;" d="M 905 153 L 934.664062 153 L 946.664062 124.785156 L 958.664062 153 L 988.332031 153 L 964.332031 170.4375 L 972.417969 201.980469 L 946.664062 184.542969 L 920.914062 201.980469 L 933.214844 170.4375 L 905 153 "/>
<path style="fill-rule:nonzero;fill:rgb(55%,51%,53%);fill-opacity:1;stroke-width:1;stroke-linecap:butt;stroke-linejoin:miter;stroke:rgb(0%,0%,0%);stroke-opacity:1;stroke-miterlimit:10;" d="M 262 175 L 291.664062 175 L 303.664062 146.785156 L 315.664062 175 L 345.332031 175 L 321.332031 192.4375 L 329.417969 223.980469 L 303.664062 206.542969 L 277.914062 223.980469 L 290.214844 192.4375 L 262 175 "/>
<path style="fill-rule:nonzero;fill:rgb(55%,51%,53%);fill-opacity:1;stroke-width:1;stroke-linecap:butt;stroke-linejoin:miter;stroke:rgb(0%,0%,0%);stroke-opacity:1;stroke-miterlimit:10;" d="M 650 117 L 679.664062 117 L 691.664062 88.785156 L 703.664062 117 L 733.332031 117 L 709.332031 134.4375 L 717.417969 165.980469 L 691.664062 148.542969 L 665.914062 165.980469 L 678.214844 134.4375 L 650 117 "/>
<path style="fill-rule:nonzero;fill:rgb(53%,27%,7%);fill-opacity:1;stroke-width:1;stroke-linecap:butt;stroke-linejoin:miter;stroke:rgb(0%,0%,0%);stroke-opacity:1;stroke-miterlimit:10;" d="M 971 378 L 945.019531 423 L 996.980469 423 L 971 378 "/>
<path style="fill-rule:nonzero;fill:rgb(53%,27%,7%);fill-opacity:1;stroke-width:1;stroke-linecap:butt;stroke-linejoin:miter;stroke:rgb(0%,0%,0%);stroke-opacity:1;stroke-miterlimit:10;" d="M 519 95 L 493.019531 140 L 544.980469 140 L 519 95 "/>
<path style="fill-rule:nonzero;fill:rgb(53%,27%,7%);fill-opacity:1;stroke-width:1;stroke-linecap:butt;stroke-linejoin:miter;stroke:rgb(0%,0%,0%);stroke-opacity:1;stroke-miterlimit:10;" d="M 434 257 L 408.019531 302 L 459.980469 302 L 434 257 "/>
<path style="fill-rule:nonzero;fill:rgb(53%,27%,7%);fill-opacity:1;stroke-width:1;stroke-linecap:butt;stroke-linejoin:miter;stroke:rgb(0%,0%,0%);stroke-opacity:1;stroke-miterlimit:10;" d="M 1021 228 L 995.019531 273 L 1046.980469 273 L 1021 228 "/>
<path style="fill-rule:nonzero;fill:rgb(53%,27%,7%);fill-opacity:1;stroke-width:1;stroke-linecap:butt;stroke-linejoin:miter;stroke:rgb(0%,0%,0%);stroke-opacity:1;stroke-miterlimit:10;" d="M 144 303 L 118.019531 348 L 169.980469 348 L 144 303 "/>
</g>
</svg>
