<?xml version="1.0" encoding="UTF-8"?>
<svg xmlns="http://www.w3.org/2000/svg" xmlns:xlink="http://www.w3.org/1999/xlink" width="1179pt" height="517pt" viewBox="0 0 1179 517" version="1.1">
<g id="surface371">
<rect x="0" y="0" width="1179" height="517" style="fill:rgb(90%,90%,90%);fill-opacity:1;stroke:none;"/>
<path style="fill-rule:nonzero;fill:rgb(35%,70%,90%);fill-opacity:1;stroke-width:1;stroke-linecap:butt;stroke-linejoin:miter;stroke:rgb(0%,0%,0%);stroke-opacity:1;stroke-miterlimit:10;" d="M 217 260 L 246.664062 260 L 258.664062 231.785156 L 270.664062 260 L 300.332031 260 L 276.332031 277.4375 L 284.417969 308.980469 L 258.664062 291.542969 L 232.914062 308.980469 L 245.214844 277.4375 L 217 260 "/>
<path style="fill-rule:nonzero;fill:rgb(35%,70%,90%);fill-opacity:1;stroke-width:1;stroke-linecap:butt;stroke-linejoin:miter;stroke:rgb(0%,0%,0%);stroke-opacity:1;stroke-miterlimit:10;" d="M 397.785156 199.785156 L 397.785156 242.214844 L 440.214844 242.214844 L 440.214844 199.785156 L 397.785156 199.785156 "/>
<path style="fill-rule:nonzero;fill:rgb(35%,70%,90%);fill-opacity:1;stroke-width:1;stroke-linecap:butt;stroke-linejoin:miter;stroke:rgb(0%,0%,0%);stroke-opacity:1;stroke-miterlimit:10;" d="M 420 407 L 449.664062 407 L 461.664062 378.785156 L 473.664062 407 L 503.332031 407 L 479.332031 424.4375 L 487.417969 455.980469 L 461.664062 438.542969 L 435.914062 455.980469 L 448.214844 424.4375 L 420 407 "/>
<path style="fill-rule:nonzero;fill:rgb(35%,70%,90%);fill-opacity:1;stroke-width:1;stroke-linecap:butt;stroke-linejoin:miter;stroke:rgb(0%,0%,0%);stroke-opacity:1;stroke-miterlimit:10;" d="M 108 148 L 137.664062 148 L 149.664062 119.785156 L 161.664062 148 L 191.332031 148 L 167.332031 165.4375 L 175.417969 196.980469 L 149.664062 179.542969 L 123.914062 196.980469 L 136.214844 165.4375 L 108 148 "/>
<path style="fill-rule:nonzero;fill:rgb(35%,70%,90%);fill-opacity:1;stroke-width:1;stroke-linecap:butt;stroke-linejoin:miter;stroke:rgb(0%,0%,0%);stroke-opacity:1;stroke-miterlimit:10;" d="M 207 396 L 236.664062 396 L 248.664062 367.785156 L 260.664062 396 L 290.332031 396 L 266.332031 413.4375 L 274.417969 444.980469 L 248.664062 427.542969 L 222.914062 444.980469 L 235.214844 413.4375 L 207 396 "/>
<path style="fill-rule:nonzero;fill:rgb(100%,51%,0%);fill-opacity:1;stroke-width:1;stroke-linecap:butt;stroke-linejoin:miter;stroke:rgb(0%,0%,0%);stroke-opacity:1;stroke-miterlimit:10;" d="M 737.785156 347.785156 L 737.785156 390.214844 L 780.214844 390.214844 L 780.214844 347.785156 L 737.785156 347.785156 "/>
<path style="fill-rule:nonzero;fill:rgb(100%,51%,0%);fill-opacity:1;stroke-width:1;stroke-linecap:butt;stroke-linejoin:miter;stroke:rgb(0%,0%,0%);stroke-opacity:1;stroke-miterlimit:10;" d="M 829 275 L 858.664062 275 L 870.664062 246.785156 L 882.664062 275 L 912.332031 275 L 888.332031 292.4375 L 896.417969 323.980469 L 870.664062 306.542969 L 844.914062 323.980469 L 857.214844 292.4375 L 829 275 "/>
<path style="fill-rule:nonzero;fill:rgb(100%,51%,0%);fill-opacity:1;stroke-width:1;stroke-linecap:butt;stroke-linejoin:miter;stroke:rgb(0%,0%,0%);stroke-opacity:1;stroke-miterlimit:10;" d="M 797.785156 133.785156 L 797.785156 176.214844 L 840.214844 176.214844 L 840.214844 133.785156 L 797.785156 133.785156 "/>
</g>
</svg>
