<?xml version="1.0" encoding="UTF-8"?>
<svg xmlns="http://www.w3.org/2000/svg" xmlns:xlink="http://www.w3.org/1999/xlink" width="1179pt" height="517pt" viewBox="0 0 1179 517" version="1.1">
<g id="surface171">
<rect x="0" y="0" width="1179" height="517" style="fill:rgb(90%,90%,90%);fill-opacity:1;stroke:none;"/>
<path style="fill-rule:nonzero;fill:rgb(55%,51%,53%);fill-opacity:1;stroke-width:1;stroke-linecap:butt;stroke-linejoin:miter;stroke:rgb(0%,0%,0%);stroke-opacity:1;stroke-miterlimit:10;" d="M 259.214844 99 C 259.214844 110.714844 249.714844 120.214844 238 120.214844 C 226.285156 120.214844 216.785156 110.714844 216.785156 99 C 216.785156 87.285156 226.285156 77.785156 238 77.785156 C 249.714844 77.785156 259.214844 87.285156 259.214844 99 "/>
<path style="fill-rule:nonzero;fill:rgb(55%,51%,53%);fill-opacity:1;stroke-width:1;stroke-linecap:butt;stroke-linejoin:miter;stroke:rgb(0%,0%,0%);stroke-opacity:1;stroke-miterlimit:10;" d="M 333.214844 348 C 333.214844 359.714844 323.714844 369.214844 312 369.214844 C 300.285156 369.214844 290.785156 359.714844 290.785156 348 C 290.785156 336.285156 300.285156 326.785156 312 326.785156 C 323.714844 326.785156 333.214844 336.285156 333.214844 348 "/>
<path style="fill-rule:nonzero;fill:rgb(53%,27%,7%);fill-opacity:1;stroke-width:1;stroke-linecap:butt;stroke-linejoin:miter;stroke:rgb(0%,0%,0%);stroke-opacity:1;stroke-miterlimit:10;" d="M 414.214844 108 C 414.214844 119.714844 404.714844 129.214844 393 129.214844 C 381.285156 129.214844 371.785156 119.714844 371.785156 108 C 371.785156 96.285156 381.285156 86.785156 393 86.785156 C 404.714844 86.785156 414.214844 96.285156 414.214844 108 "/>
<path style="fill-rule:nonzero;fill:rgb(55%,51%,53%);fill-opacity:1;stroke-width:1;stroke-linecap:butt;stroke-linejoin:miter;stroke:rgb(0%,0%,0%);stroke-opacity:1;stroke-miterlimit:10;" d="M 452.214844 391 C 452.214844 402.714844 442.714844 412.214844 431 412.214844 C 419.285156 412.214844 409.785156 402.714844 409.785156 391 C 409.785156 379.285156 419.285156 369.785156 431 369.785156 C 442.714844 369.785156 452.214844 379.285156 452.214844 391 "/>
<path style="fill-rule:nonzero;fill:rgb(55%,51%,53%);fill-opacity:1;stroke-width:1;stroke-linecap:butt;stroke-linejoin:miter;stroke:rgb(0%,0%,0%);stroke-opacity:1;stroke-miterlimit:10;" d="M 118.214844 372 C 118.214844 383.714844 108.714844 393.214844 97 393.214844 C 85.285156 393.214844 75.785156 383.714844 75.785156 372 C 75.785156 360.285156 85.285156 350.785156 97 350.785156 C 108.714844 350.785156 118.214844 360.285156 118.214844 372 "/>
<path style="fill-rule:nonzero;fill:rgb(55%,51%,53%);fill-opacity:1;stroke-width:1;stroke-linecap:butt;stroke-linejoin:miter;stroke:rgb(0%,0%,0%);stroke-opacity:1;stroke-miterlimit:10;" d="M 301.214844 242 C 301.214844 253.714844 291.714844 263.214844 280 263.214844 C 268.285156 263.214844 258.785156 253.714844 258.785156 242 C 258.785156 230.285156 268.285156 220.785156 280 220.785156 C 291.714844 220.785156 301.214844 230.285156 301.214844 242 "/>
<path style="fill-rule:nonzero;fill:rgb(55%,51%,53%);fill-opacity:1;stroke-width:1;stroke-linecap:butt;stroke-linejoin:miter;stroke:rgb(0%,0%,0%);stroke-opacity:1;stroke-miterlimit:10;" d="M 437.214844 263 C 437.214844 274.714844 427.714844 284.214844 416 284.214844 C 404.285156 284.214844 394.785156 274.714844 394.785156 263 C 394.785156 251.285156 404.285156 241.785156 416 241.785156 C 427.714844 241.785156 437.214844 251.285156 437.214844 263 "/>
<path style="fill-rule:nonzero;fill:rgb(55%,51%,53%);fill-opacity:1;stroke-width:1;stroke-linecap:butt;stroke-linejoin:miter;stroke:rgb(0%,0%,0%);stroke-opacity:1;stroke-miterlimit:10;" d="M 194.214844 264 C 194.214844 275.714844 184.714844 285.214844 173 285.214844 C 161.285156 285.214844 151.785156 275.714844 151.785156 264 C 151.785156 252.285156 161.285156 242.785156 173 242.785156 C 184.714844 242.785156 194.214844 252.285156 194.214844 264 "/>
<path style="fill-rule:nonzero;fill:rgb(53%,27%,7%);fill-opacity:1;stroke-width:1;stroke-linecap:butt;stroke-linejoin:miter;stroke:rgb(0%,0%,0%);stroke-opacity:1;stroke-miterlimit:10;" d="M 825.785156 79.785156 L 825.785156 122.214844 L 868.214844 122.214844 L 868.214844 79.785156 L 825.785156 79.785156 "/>
<path style="fill-rule:nonzero;fill:rgb(53%,27%,7%);fill-opacity:1;stroke-width:1;stroke-linecap:butt;stroke-linejoin:miter;stroke:rgb(0%,0%,0%);stroke-opacity:1;stroke-miterlimit:10;" d="M 996.785156 171.785156 L 996.785156 214.214844 L 1039.214844 214.214844 L 1039.214844 171.785156 L 996.785156 171.785156 "/>
<path style="fill-rule:nonzero;fill:rgb(55%,51%,53%);fill-opacity:1;stroke-width:1;stroke-linecap:butt;stroke-linejoin:miter;stroke:rgb(0%,0%,0%);stroke-opacity:1;stroke-miterlimit:10;" d="M 726.785156 260.785156 L 726.785156 303.214844 L 769.214844 303.214844 L 769.214844 260.785156 L 726.785156 260.785156 "/>
<path style="fill-rule:nonzero;fill:rgb(53%,27%,7%);fill-opacity:1;stroke-width:1;stroke-linecap:butt;stroke-linejoin:miter;stroke:rgb(0%,0%,0%);stroke-opacity:1;stroke-miterlimit:10;" d="M 801.785156 405.785156 L 801.785156 448.214844 L 844.214844 448.214844 L 844.214844 405.785156 L 801.785156 405.785156 "/>
<path style="fill-rule:nonzero;fill:rgb(53%,27%,7%);fill-opacity:1;stroke-width:1;stroke-linecap:butt;stroke-linejoin:miter;stroke:rgb(0%,0%,0%);stroke-opacity:1;stroke-miterlimit:10;" d="M 704.785156 107.785156 L 704.785156 150.214844 L 747.214844 150.214844 L 747.214844 107.785156 L 704.785156 107.785156 "/>
<path style="fill-rule:nonzero;fill:rgb(53%,27%,7%);fill-opacity:1;stroke-width:1;stroke-linecap:butt;stroke-linejoin:miter;stroke:rgb(0%,0%,0%);stroke-opacity:1;stroke-miterlimit:10;" d="M 699.785156 376.785156 L 699.785156 419.214844 L 742.214844 419.214844 L 742.214844 376.785156 L 699.785156 376.785156 "/>
<path style="fill-rule:nonzero;fill:rgb(53%,27%,7%);fill-opacity:1;stroke-width:1;stroke-linecap:butt;stroke-linejoin:miter;stroke:rgb(0%,0%,0%);stroke-opacity:1;stroke-miterlimit:10;" d="M 933.785156 366.785156 L 933.785156 409.214844 L 976.214844 409.214844 L 976.214844 366.785156 L 933.785156 366.785156 "/>
<path style="fill-rule:nonzero;fill:rgb(53%,27%,7%);fill-opacity:1;stroke-width:1;stroke-linecap:butt;stroke-linejoin:miter;stroke:rgb(0%,0%,0%);stroke-opacity:1;stroke-miterlimit:10;" d="M 1021.785156 292.785156 L 1021.785156 335.214844 L 1064.214844 335.214844 L 1064.214844 292.785156 L 1021.785156 292.785156 "/>
</g>
</svg>
