<?xml version="1.0" encoding="UTF-8"?>
<svg xmlns="http://www.w3.org/2000/svg" xmlns:xlink="http://www.w3.org/1999/xlink" width="1179pt" height="517pt" viewBox="0 0 1179 517" version="1.1">
<g id="surface561">
<rect x="0" y="0" width="1179" height="517" style="fill:rgb(90%,90%,90%);fill-opacity:1;stroke:none;"/>
<path style="fill-rule:nonzero;fill:rgb(35%,70%,90%);fill-opacity:1;stroke-width:1;stroke-linecap:butt;stroke-linejoin:miter;stroke:rgb(0%,0%,0%);stroke-opacity:1;stroke-miterlimit:10;" d="M 265.214844 391 C 265.214844 402.714844 255.714844 412.214844 244 412.214844 C 232.285156 412.214844 222.785156 402.714844 222.785156 391 C 222.785156 379.285156 232.285156 369.785156 244 369.785156 C 255.714844 369.785156 265.214844 379.285156 265.214844 391 "/>
<path style="fill-rule:nonzero;fill:rgb(35%,70%,90%);fill-opacity:1;stroke-width:1;stroke-linecap:butt;stroke-linejoin:miter;stroke:rgb(0%,0%,0%);stroke-opacity:1;stroke-miterlimit:10;" d="M 424.214844 307 C 424.214844 318.714844 414.714844 328.214844 403 328.214844 C 391.285156 328.214844 381.785156 318.714844 381.785156 307 C 381.785156 295.285156 391.285156 285.785156 403 285.785156 C 414.714844 285.785156 424.214844 295.285156 424.214844 307 "/>
<path style="fill-rule:nonzero;fill:rgb(35%,70%,90%);fill-opacity:1;stroke-width:1;stroke-linecap:butt;stroke-linejoin:miter;stroke:rgb(0%,0%,0%);stroke-opacity:1;stroke-miterlimit:10;" d="M 393.785156 79.785156 L 393.785156 122.214844 L 436.214844 122.214844 L 436.214844 79.785156 L 393.785156 79.785156 "/>
<path style="fill-rule:nonzero;fill:rgb(35%,70%,90%);fill-opacity:1;stroke-width:1;stroke-linecap:butt;stroke-linejoin:miter;stroke:rgb(0%,0%,0%);stroke-opacity:1;stroke-miterlimit:10;" d="M 254.785156 167.785156 L 254.785156 210.214844 L 297.214844 210.214844 L 297.214844 167.785156 L 254.785156 167.785156 "/>
<path style="fill-rule:nonzero;fill:rgb(35%,70%,90%);fill-opacity:1;stroke-width:1;stroke-linecap:butt;stroke-linejoin:miter;stroke:rgb(0%,0%,0%);stroke-opacity:1;stroke-miterlimit:10;" d="M 196.214844 81 C 196.214844 92.714844 186.714844 102.214844 175 102.214844 C 163.285156 102.214844 153.785156 92.714844 153.785156 81 C 153.785156 69.285156 163.285156 59.785156 175 59.785156 C 186.714844 59.785156 196.214844 69.285156 196.214844 81 "/>
<path style="fill-rule:nonzero;fill:rgb(100%,51%,0%);fill-opacity:1;stroke-width:1;stroke-linecap:butt;stroke-linejoin:miter;stroke:rgb(0%,0%,0%);stroke-opacity:1;stroke-miterlimit:10;" d="M 975.785156 214.785156 L 975.785156 257.214844 L 1018.214844 257.214844 L 1018.214844 214.785156 L 975.785156 214.785156 "/>
<path style="fill-rule:nonzero;fill:rgb(100%,51%,0%);fill-opacity:1;stroke-width:1;stroke-linecap:butt;stroke-linejoin:miter;stroke:rgb(0%,0%,0%);stroke-opacity:1;stroke-miterlimit:10;" d="M 924.785156 63.785156 L 924.785156 106.214844 L 967.214844 106.214844 L 967.214844 63.785156 L 924.785156 63.785156 "/>
<path style="fill-rule:nonzero;fill:rgb(100%,51%,0%);fill-opacity:1;stroke-width:1;stroke-linecap:butt;stroke-linejoin:miter;stroke:rgb(0%,0%,0%);stroke-opacity:1;stroke-miterlimit:10;" d="M 806.214844 385 C 806.214844 396.714844 796.714844 406.214844 785 406.214844 C 773.285156 406.214844 763.785156 396.714844 763.785156 385 C 763.785156 373.285156 773.285156 363.785156 785 363.785156 C 796.714844 363.785156 806.214844 373.285156 806.214844 385 "/>
</g>
</svg>
