<?xml version="1.0" encoding="UTF-8"?>
<svg xmlns="http://www.w3.org/2000/svg" xmlns:xlink="http://www.w3.org/1999/xlink" width="1179pt" height="517pt" viewBox="0 0 1179 517" version="1.1">
<g id="surface931">
<rect x="0" y="0" width="1179" height="517" style="fill:rgb(90%,90%,90%);fill-opacity:1;stroke:none;"/>
<path style="fill-rule:nonzero;fill:rgb(55%,51%,53%);fill-opacity:1;stroke-width:1;stroke-linecap:butt;stroke-linejoin:miter;stroke:rgb(0%,0%,0%);stroke-opacity:1;stroke-miterlimit:10;" d="M 280.214844 415 C 280.214844 426.714844 270.714844 436.214844 259 436.214844 C 247.285156 436.214844 237.785156 426.714844 237.785156 415 C 237.785156 403.285156 247.285156 393.785156 259 393.785156 C 270.714844 393.785156 280.214844 403.285156 280.214844 415 "/>
<path style="fill-rule:nonzero;fill:rgb(67%,100%,18%);fill-opacity:1;stroke-width:1;stroke-linecap:butt;stroke-linejoin:miter;stroke:rgb(0%,0%,0%);stroke-opacity:1;stroke-miterlimit:10;" d="M 447.214844 244 C 447.214844 255.714844 437.714844 265.214844 426 265.214844 C 414.285156 265.214844 404.785156 255.714844 404.785156 244 C 404.785156 232.285156 414.285156 222.785156 426 222.785156 C 437.714844 222.785156 447.214844 232.285156 447.214844 244 "/>
<path style="fill-rule:nonzero;fill:rgb(55%,51%,53%);fill-opacity:1;stroke-width:1;stroke-linecap:butt;stroke-linejoin:miter;stroke:rgb(0%,0%,0%);stroke-opacity:1;stroke-miterlimit:10;" d="M 101.214844 382 C 101.214844 393.714844 91.714844 403.214844 80 403.214844 C 68.285156 403.214844 58.785156 393.714844 58.785156 382 C 58.785156 370.285156 68.285156 360.785156 80 360.785156 C 91.714844 360.785156 101.214844 370.285156 101.214844 382 "/>
<path style="fill-rule:nonzero;fill:rgb(67%,100%,18%);fill-opacity:1;stroke-width:1;stroke-linecap:butt;stroke-linejoin:miter;stroke:rgb(0%,0%,0%);stroke-opacity:1;stroke-miterlimit:10;" d="M 197.214844 177 C 197.214844 188.714844 187.714844 198.214844 176 198.214844 C 164.285156 198.214844 154.785156 188.714844 154.785156 177 C 154.785156 165.285156 164.285156 155.785156 176 155.785156 C 187.714844 155.785156 197.214844 165.285156 197.214844 177 "/>
<path style="fill-rule:nonzero;fill:rgb(67%,100%,18%);fill-opacity:1;stroke-width:1;stroke-linecap:butt;stroke-linejoin:miter;stroke:rgb(0%,0%,0%);stroke-opacity:1;stroke-miterlimit:10;" d="M 797 156 L 771.019531 201 L 822.980469 201 L 797 156 "/>
<path style="fill-rule:nonzero;fill:rgb(55%,51%,53%);fill-opacity:1;stroke-width:1;stroke-linecap:butt;stroke-linejoin:miter;stroke:rgb(0%,0%,0%);stroke-opacity:1;stroke-miterlimit:10;" d="M 911 274 L 885.019531 319 L 936.980469 319 L 911 274 "/>
<path style="fill-rule:nonzero;fill:rgb(67%,100%,18%);fill-opacity:1;stroke-width:1;stroke-linecap:butt;stroke-linejoin:miter;stroke:rgb(0%,0%,0%);stroke-opacity:1;stroke-miterlimit:10;" d="M 824 350 L 798.019531 395 L 849.980469 395 L 824 350 "/>
</g>
</svg>
