<?xml version="1.0" encoding="UTF-8"?>
<svg xmlns="http://www.w3.org/2000/svg" xmlns:xlink="http://www.w3.org/1999/xlink" width="1179pt" height="517pt" viewBox="0 0 1179 517" version="1.1">
<g id="surface1266">
<rect x="0" y="0" width="1179" height="517" style="fill:rgb(90%,90%,90%);fill-opacity:1;stroke:none;"/>
<path style="fill-rule:nonzero;fill:rgb(55%,51%,53%);fill-opacity:1;stroke-width:1;stroke-linecap:butt;stroke-linejoin:miter;stroke:rgb(0%,0%,0%);stroke-opacity:1;stroke-miterlimit:10;" d="M 595 73 L 569.019531 118 L 620.980469 118 L 595 73 "/>
<path style="fill-rule:nonzero;fill:rgb(55%,51%,53%);fill-opacity:1;stroke-width:1;stroke-linecap:butt;stroke-linejoin:miter;stroke:rgb(0%,0%,0%);stroke-opacity:1;stroke-miterlimit:10;" d="M 923 192 L 897.019531 237 L 948.980469 237 L 923 192 "/>
<path style="fill-rule:nonzero;fill:rgb(55%,51%,53%);fill-opacity:1;stroke-width:1;stroke-linecap:butt;stroke-linejoin:miter;stroke:rgb(0%,0%,0%);stroke-opacity:1;stroke-miterlimit:10;" d="M 194 85 L 168.019531 130 L 219.980469 130 L 194 85 "/>
<path style="fill-rule:nonzero;fill:rgb(55%,51%,53%);fill-opacity:1;stroke-width:1;stroke-linecap:butt;stroke-linejoin:miter;stroke:rgb(0%,0%,0%);stroke-opacity:1;stroke-miterlimit:10;" d="M 275 210 L 249.019531 255 L 300.980469 255 L 275 210 "/>
<path style="fill-rule:nonzero;fill:rgb(55%,51%,53%);fill-opacity:1;stroke-width:1;stroke-linecap:butt;stroke-linejoin:miter;stroke:rgb(0%,0%,0%);stroke-opacity:1;stroke-miterlimit:10;" d="M 490 393 L 464.019531 438 L 515.980469 438 L 490 393 "/>
<path style="fill-rule:nonzero;fill:rgb(35%,70%,90%);fill-opacity:1;stroke-width:1;stroke-linecap:butt;stroke-linejoin:miter;stroke:rgb(0%,0%,0%);stroke-opacity:1;stroke-miterlimit:10;" d="M 895 91 L 924.664062 91 L 936.664062 62.785156 L 948.664062 91 L 978.332031 91 L 954.332031 108.4375 L 962.417969 139.980469 L 936.664062 122.542969 L 910.914062 139.980469 L 923.214844 108.4375 L 895 91 "/>
<path style="fill-rule:nonzero;fill:rgb(35%,70%,90%);fill-opacity:1;stroke-width:1;stroke-linecap:butt;stroke-linejoin:miter;stroke:rgb(0%,0%,0%);stroke-opacity:1;stroke-miterlimit:10;" d="M 888 414 L 917.664062 414 L 929.664062 385.785156 L 941.664062 414 L 971.332031 414 L 947.332031 431.4375 L 955.417969 462.980469 L 929.664062 445.542969 L 903.914062 462.980469 L 916.214844 431.4375 L 888 414 "/>
<path style="fill-rule:nonzero;fill:rgb(35%,70%,90%);fill-opacity:1;stroke-width:1;stroke-linecap:butt;stroke-linejoin:miter;stroke:rgb(0%,0%,0%);stroke-opacity:1;stroke-miterlimit:10;" d="M 80 218 L 109.664062 218 L 121.664062 189.785156 L 133.664062 218 L 163.332031 218 L 139.332031 235.4375 L 147.417969 266.980469 L 121.664062 249.542969 L 95.914062 266.980469 L 108.214844 235.4375 L 80 218 "/>
<path style="fill-rule:nonzero;fill:rgb(35%,70%,90%);fill-opacity:1;stroke-width:1;stroke-linecap:butt;stroke-linejoin:miter;stroke:rgb(0%,0%,0%);stroke-opacity:1;stroke-miterlimit:10;" d="M 468 253 L 497.664062 253 L 509.664062 224.785156 L 521.664062 253 L 551.332031 253 L 527.332031 270.4375 L 535.417969 301.980469 L 509.664062 284.542969 L 483.914062 301.980469 L 496.214844 270.4375 L 468 253 "/>
</g>
</svg>
