<?xml version="1.0" encoding="UTF-8"?>
<svg xmlns="http://www.w3.org/2000/svg" xmlns:xlink="http://www.w3.org/1999/xlink" width="1179pt" height="517pt" viewBox="0 0 1179 517" version="1.1">
<g id="surface1096">
<rect x="0" y="0" width="1179" height="517" style="fill:rgb(90%,90%,90%);fill-opacity:1;stroke:none;"/>
<path style="fill-rule:nonzero;fill:rgb(100%,51%,0%);fill-opacity:1;stroke-width:1;stroke-linecap:butt;stroke-linejoin:miter;stroke:rgb(0%,0%,0%);stroke-opacity:1;stroke-miterlimit:10;" d="M 408 115 L 437.664062 115 L 449.664062 86.785156 L 461.664062 115 L 491.332031 115 L 467.332031 132.4375 L 475.417969 163.980469 L 449.664062 146.542969 L 423.914062 163.980469 L 436.214844 132.4375 L 408 115 "/>
<path style="fill-rule:nonzero;fill:rgb(100%,51%,0%);fill-opacity:1;stroke-width:1;stroke-linecap:butt;stroke-linejoin:miter;stroke:rgb(0%,0%,0%);stroke-opacity:1;stroke-miterlimit:10;" d="M 318 308 L 347.664062 308 L 359.664062 279.785156 L 371.664062 308 L 401.332031 308 L 377.332031 325.4375 L 385.417969 356.980469 L 359.664062 339.542969 L 333.914062 356.980469 L 346.214844 325.4375 L 318 308 "/>
<path style="fill-rule:nonzero;fill:rgb(100%,51%,0%);fill-opacity:1;stroke-width:1;stroke-linecap:butt;stroke-linejoin:miter;stroke:rgb(0%,0%,0%);stroke-opacity:1;stroke-miterlimit:10;" d="M 772 98 L 801.664062 98 L 813.664062 69.785156 L 825.664062 98 L 855.332031 98 L 831.332031 115.4375 L 839.417969 146.980469 L 813.664062 129.542969 L 787.914062 146.980469 L 800.214844 115.4375 L 772 98 "/>
<path style="fill-rule:nonzero;fill:rgb(100%,51%,0%);fill-opacity:1;stroke-width:1;stroke-linecap:butt;stroke-linejoin:miter;stroke:rgb(0%,0%,0%);stroke-opacity:1;stroke-miterlimit:10;" d="M 972 422 L 1001.664062 422 L 1013.664062 393.785156 L 1025.664062 422 L 1055.332031 422 L 1031.332031 439.4375 L 1039.417969 470.980469 L 1013.664062 453.542969 L 987.914062 470.980469 L 1000.214844 439.4375 L 972 422 "/>
<path style="fill-rule:nonzero;fill:rgb(53%,27%,7%);fill-opacity:1;stroke-width:1;stroke-linecap:butt;stroke-linejoin:miter;stroke:rgb(0%,0%,0%);stroke-opacity:1;stroke-miterlimit:10;" d="M 980.214844 257 C 980.214844 268.714844 970.714844 278.214844 959 278.214844 C 947.285156 278.214844 937.785156 268.714844 937.785156 257 C 937.785156 245.285156 947.285156 235.785156 959 235.785156 C 970.714844 235.785156 980.214844 245.285156 980.214844 257 "/>
<path style="fill-rule:nonzero;fill:rgb(53%,27%,7%);fill-opacity:1;stroke-width:1;stroke-linecap:butt;stroke-linejoin:miter;stroke:rgb(0%,0%,0%);stroke-opacity:1;stroke-miterlimit:10;" d="M 648.214844 364 C 648.214844 375.714844 638.714844 385.214844 627 385.214844 C 615.285156 385.214844 605.785156 375.714844 605.785156 364 C 605.785156 352.285156 615.285156 342.785156 627 342.785156 C 638.714844 342.785156 648.214844 352.285156 648.214844 364 "/>
<path style="fill-rule:nonzero;fill:rgb(53%,27%,7%);fill-opacity:1;stroke-width:1;stroke-linecap:butt;stroke-linejoin:miter;stroke:rgb(0%,0%,0%);stroke-opacity:1;stroke-miterlimit:10;" d="M 765.214844 243 C 765.214844 254.714844 755.714844 264.214844 744 264.214844 C 732.285156 264.214844 722.785156 254.714844 722.785156 243 C 722.785156 231.285156 732.285156 221.785156 744 221.785156 C 755.714844 221.785156 765.214844 231.285156 765.214844 243 "/>
<path style="fill-rule:nonzero;fill:rgb(53%,27%,7%);fill-opacity:1;stroke-width:1;stroke-linecap:butt;stroke-linejoin:miter;stroke:rgb(0%,0%,0%);stroke-opacity:1;stroke-miterlimit:10;" d="M 276.214844 166 C 276.214844 177.714844 266.714844 187.214844 255 187.214844 C 243.285156 187.214844 233.785156 177.714844 233.785156 166 C 233.785156 154.285156 243.285156 144.785156 255 144.785156 C 266.714844 144.785156 276.214844 154.285156 276.214844 166 "/>
<path style="fill-rule:nonzero;fill:rgb(53%,27%,7%);fill-opacity:1;stroke-width:1;stroke-linecap:butt;stroke-linejoin:miter;stroke:rgb(0%,0%,0%);stroke-opacity:1;stroke-miterlimit:10;" d="M 649.214844 121 C 649.214844 132.714844 639.714844 142.214844 628 142.214844 C 616.285156 142.214844 606.785156 132.714844 606.785156 121 C 606.785156 109.285156 616.285156 99.785156 628 99.785156 C 639.714844 99.785156 649.214844 109.285156 649.214844 121 "/>
</g>
</svg>
