<?xml version="1.0" encoding="UTF-8"?>
<svg xmlns="http://www.w3.org/2000/svg" xmlns:xlink="http://www.w3.org/1999/xlink" width="1179pt" height="517pt" viewBox="0 0 1179 517" version="1.1">
<g id="surface431">
<rect x="0" y="0" width="1179" height="517" style="fill:rgb(90%,90%,90%);fill-opacity:1;stroke:none;"/>
<path style="fill-rule:nonzero;fill:rgb(35%,70%,90%);fill-opacity:1;stroke-width:1;stroke-linecap:butt;stroke-linejoin:miter;stroke:rgb(0%,0%,0%);stroke-opacity:1;stroke-miterlimit:10;" d="M 217 199 L 246.664062 199 L 258.664062 170.785156 L 270.664062 199 L 300.332031 199 L 276.332031 216.4375 L 284.417969 247.980469 L 258.664062 230.542969 L 232.914062 247.980469 L 245.214844 216.4375 L 217 199 "/>
<path style="fill-rule:nonzero;fill:rgb(35%,70%,90%);fill-opacity:1;stroke-width:1;stroke-linecap:butt;stroke-linejoin:miter;stroke:rgb(0%,0%,0%);stroke-opacity:1;stroke-miterlimit:10;" d="M 306.785156 358.785156 L 306.785156 401.214844 L 349.214844 401.214844 L 349.214844 358.785156 L 306.785156 358.785156 "/>
<path style="fill-rule:nonzero;fill:rgb(35%,70%,90%);fill-opacity:1;stroke-width:1;stroke-linecap:butt;stroke-linejoin:miter;stroke:rgb(0%,0%,0%);stroke-opacity:1;stroke-miterlimit:10;" d="M 419 318 L 448.664062 318 L 460.664062 289.785156 L 472.664062 318 L 502.332031 318 L 478.332031 335.4375 L 486.417969 366.980469 L 460.664062 349.542969 L 434.914062 366.980469 L 447.214844 335.4375 L 419 318 "/>
<path style="fill-rule:nonzero;fill:rgb(55%,51%,53%);fill-opacity:1;stroke-width:1;stroke-linecap:butt;stroke-linejoin:miter;stroke:rgb(0%,0%,0%);stroke-opacity:1;stroke-miterlimit:10;" d="M 697.785156 195.785156 L 697.785156 238.214844 L 740.214844 238.214844 L 740.214844 195.785156 L 697.785156 195.785156 "/>
<path style="fill-rule:nonzero;fill:rgb(55%,51%,53%);fill-opacity:1;stroke-width:1;stroke-linecap:butt;stroke-linejoin:miter;stroke:rgb(0%,0%,0%);stroke-opacity:1;stroke-miterlimit:10;" d="M 1012 178 L 1041.664062 178 L 1053.664062 149.785156 L 1065.664062 178 L 1095.332031 178 L 1071.332031 195.4375 L 1079.417969 226.980469 L 1053.664062 209.542969 L 1027.914062 226.980469 L 1040.214844 195.4375 L 1012 178 "/>
<path style="fill-rule:nonzero;fill:rgb(55%,51%,53%);fill-opacity:1;stroke-width:1;stroke-linecap:butt;stroke-linejoin:miter;stroke:rgb(0%,0%,0%);stroke-opacity:1;stroke-miterlimit:10;" d="M 930.785156 238.785156 L 930.785156 281.214844 L 973.214844 281.214844 L 973.214844 238.785156 L 930.785156 238.785156 "/>
</g>
</svg>
