<?xml version="1.0" encoding="UTF-8"?>
<svg xmlns="http://www.w3.org/2000/svg" xmlns:xlink="http://www.w3.org/1999/xlink" width="1179pt" height="517pt" viewBox="0 0 1179 517" version="1.1">
<g id="surface1081">
<rect x="0" y="0" width="1179" height="517" style="fill:rgb(90%,90%,90%);fill-opacity:1;stroke:none;"/>
<path style="fill-rule:nonzero;fill:rgb(53%,27%,7%);fill-opacity:1;stroke-width:1;stroke-linecap:butt;stroke-linejoin:miter;stroke:rgb(0%,0%,0%);stroke-opacity:1;stroke-miterlimit:10;" d="M 674.214844 236 C 674.214844 247.714844 664.714844 257.214844 653 257.214844 C 641.285156 257.214844 631.785156 247.714844 631.785156 236 C 631.785156 224.285156 641.285156 214.785156 653 214.785156 C 664.714844 214.785156 674.214844 224.285156 674.214844 236 "/>
<path style="fill-rule:nonzero;fill:rgb(53%,27%,7%);fill-opacity:1;stroke-width:1;stroke-linecap:butt;stroke-linejoin:miter;stroke:rgb(0%,0%,0%);stroke-opacity:1;stroke-miterlimit:10;" d="M 474.214844 248 C 474.214844 259.714844 464.714844 269.214844 453 269.214844 C 441.285156 269.214844 431.785156 259.714844 431.785156 248 C 431.785156 236.285156 441.285156 226.785156 453 226.785156 C 464.714844 226.785156 474.214844 236.285156 474.214844 248 "/>
<path style="fill-rule:nonzero;fill:rgb(53%,27%,7%);fill-opacity:1;stroke-width:1;stroke-linecap:butt;stroke-linejoin:miter;stroke:rgb(0%,0%,0%);stroke-opacity:1;stroke-miterlimit:10;" d="M 981.214844 274 C 981.214844 285.714844 971.714844 295.214844 960 295.214844 C 948.285156 295.214844 938.785156 285.714844 938.785156 274 C 938.785156 262.285156 948.285156 252.785156 960 252.785156 C 971.714844 252.785156 981.214844 262.285156 981.214844 274 "/>
<path style="fill-rule:nonzero;fill:rgb(53%,27%,7%);fill-opacity:1;stroke-width:1;stroke-linecap:butt;stroke-linejoin:miter;stroke:rgb(0%,0%,0%);stroke-opacity:1;stroke-miterlimit:10;" d="M 397.214844 369 C 397.214844 380.714844 387.714844 390.214844 376 390.214844 C 364.285156 390.214844 354.785156 380.714844 354.785156 369 C 354.785156 357.285156 364.285156 347.785156 376 347.785156 C 387.714844 347.785156 397.214844 357.285156 397.214844 369 "/>
<path style="fill-rule:nonzero;fill:rgb(53%,27%,7%);fill-opacity:1;stroke-width:1;stroke-linecap:butt;stroke-linejoin:miter;stroke:rgb(0%,0%,0%);stroke-opacity:1;stroke-miterlimit:10;" d="M 156.214844 305 C 156.214844 316.714844 146.714844 326.214844 135 326.214844 C 123.285156 326.214844 113.785156 316.714844 113.785156 305 C 113.785156 293.285156 123.285156 283.785156 135 283.785156 C 146.714844 283.785156 156.214844 293.285156 156.214844 305 "/>
<path style="fill-rule:nonzero;fill:rgb(100%,51%,0%);fill-opacity:1;stroke-width:1;stroke-linecap:butt;stroke-linejoin:miter;stroke:rgb(0%,0%,0%);stroke-opacity:1;stroke-miterlimit:10;" d="M 832 251 L 861.664062 251 L 873.664062 222.785156 L 885.664062 251 L 915.332031 251 L 891.332031 268.4375 L 899.417969 299.980469 L 873.664062 282.542969 L 847.914062 299.980469 L 860.214844 268.4375 L 832 251 "/>
<path style="fill-rule:nonzero;fill:rgb(100%,51%,0%);fill-opacity:1;stroke-width:1;stroke-linecap:butt;stroke-linejoin:miter;stroke:rgb(0%,0%,0%);stroke-opacity:1;stroke-miterlimit:10;" d="M 649 407 L 678.664062 407 L 690.664062 378.785156 L 702.664062 407 L 732.332031 407 L 708.332031 424.4375 L 716.417969 455.980469 L 690.664062 438.542969 L 664.914062 455.980469 L 677.214844 424.4375 L 649 407 "/>
<path style="fill-rule:nonzero;fill:rgb(100%,51%,0%);fill-opacity:1;stroke-width:1;stroke-linecap:butt;stroke-linejoin:miter;stroke:rgb(0%,0%,0%);stroke-opacity:1;stroke-miterlimit:10;" d="M 709 127 L 738.664062 127 L 750.664062 98.785156 L 762.664062 127 L 792.332031 127 L 768.332031 144.4375 L 776.417969 175.980469 L 750.664062 158.542969 L 724.914062 175.980469 L 737.214844 144.4375 L 709 127 "/>
<path style="fill-rule:nonzero;fill:rgb(100%,51%,0%);fill-opacity:1;stroke-width:1;stroke-linecap:butt;stroke-linejoin:miter;stroke:rgb(0%,0%,0%);stroke-opacity:1;stroke-miterlimit:10;" d="M 801 400 L 830.664062 400 L 842.664062 371.785156 L 854.664062 400 L 884.332031 400 L 860.332031 417.4375 L 868.417969 448.980469 L 842.664062 431.542969 L 816.914062 448.980469 L 829.214844 417.4375 L 801 400 "/>
<path style="fill-rule:nonzero;fill:rgb(100%,51%,0%);fill-opacity:1;stroke-width:1;stroke-linecap:butt;stroke-linejoin:miter;stroke:rgb(0%,0%,0%);stroke-opacity:1;stroke-miterlimit:10;" d="M 298 240 L 327.664062 240 L 339.664062 211.785156 L 351.664062 240 L 381.332031 240 L 357.332031 257.4375 L 365.417969 288.980469 L 339.664062 271.542969 L 313.914062 288.980469 L 326.214844 257.4375 L 298 240 "/>
</g>
</svg>
