<?xml version="1.0" encoding="UTF-8"?>
<svg xmlns="http://www.w3.org/2000/svg" xmlns:xlink="http://www.w3.org/1999/xlink" width="1179pt" height="517pt" viewBox="0 0 1179 517" version="1.1">
<g id="surface161">
<rect x="0" y="0" width="1179" height="517" style="fill:rgb(90%,90%,90%);fill-opacity:1;stroke:none;"/>
<path style="fill-rule:nonzero;fill:rgb(55%,51%,53%);fill-opacity:1;stroke-width:1;stroke-linecap:butt;stroke-linejoin:miter;stroke:rgb(0%,0%,0%);stroke-opacity:1;stroke-miterlimit:10;" d="M 343 372 L 372.664062 372 L 384.664062 343.785156 L 396.664062 372 L 426.332031 372 L 402.332031 389.4375 L 410.417969 420.980469 L 384.664062 403.542969 L 358.914062 420.980469 L 371.214844 389.4375 L 343 372 "/>
<path style="fill-rule:nonzero;fill:rgb(55%,51%,53%);fill-opacity:1;stroke-width:1;stroke-linecap:butt;stroke-linejoin:miter;stroke:rgb(0%,0%,0%);stroke-opacity:1;stroke-miterlimit:10;" d="M 261.785156 275.785156 L 261.785156 318.214844 L 304.214844 318.214844 L 304.214844 275.785156 L 261.785156 275.785156 "/>
<path style="fill-rule:nonzero;fill:rgb(55%,51%,53%);fill-opacity:1;stroke-width:1;stroke-linecap:butt;stroke-linejoin:miter;stroke:rgb(0%,0%,0%);stroke-opacity:1;stroke-miterlimit:10;" d="M 295.785156 156.785156 L 295.785156 199.214844 L 338.214844 199.214844 L 338.214844 156.785156 L 295.785156 156.785156 "/>
<path style="fill-rule:nonzero;fill:rgb(55%,51%,53%);fill-opacity:1;stroke-width:1;stroke-linecap:butt;stroke-linejoin:miter;stroke:rgb(0%,0%,0%);stroke-opacity:1;stroke-miterlimit:10;" d="M 214 228 L 243.664062 228 L 255.664062 199.785156 L 267.664062 228 L 297.332031 228 L 273.332031 245.4375 L 281.417969 276.980469 L 255.664062 259.542969 L 229.914062 276.980469 L 242.214844 245.4375 L 214 228 "/>
<path style="fill-rule:nonzero;fill:rgb(55%,51%,53%);fill-opacity:1;stroke-width:1;stroke-linecap:butt;stroke-linejoin:miter;stroke:rgb(0%,0%,0%);stroke-opacity:1;stroke-miterlimit:10;" d="M 166 114 L 195.664062 114 L 207.664062 85.785156 L 219.664062 114 L 249.332031 114 L 225.332031 131.4375 L 233.417969 162.980469 L 207.664062 145.542969 L 181.914062 162.980469 L 194.214844 131.4375 L 166 114 "/>
<path style="fill-rule:nonzero;fill:rgb(53%,27%,7%);fill-opacity:1;stroke-width:1;stroke-linecap:butt;stroke-linejoin:miter;stroke:rgb(0%,0%,0%);stroke-opacity:1;stroke-miterlimit:10;" d="M 989.785156 359.785156 L 989.785156 402.214844 L 1032.214844 402.214844 L 1032.214844 359.785156 L 989.785156 359.785156 "/>
<path style="fill-rule:nonzero;fill:rgb(53%,27%,7%);fill-opacity:1;stroke-width:1;stroke-linecap:butt;stroke-linejoin:miter;stroke:rgb(0%,0%,0%);stroke-opacity:1;stroke-miterlimit:10;" d="M 806 354 L 835.664062 354 L 847.664062 325.785156 L 859.664062 354 L 889.332031 354 L 865.332031 371.4375 L 873.417969 402.980469 L 847.664062 385.542969 L 821.914062 402.980469 L 834.214844 371.4375 L 806 354 "/>
<path style="fill-rule:nonzero;fill:rgb(53%,27%,7%);fill-opacity:1;stroke-width:1;stroke-linecap:butt;stroke-linejoin:miter;stroke:rgb(0%,0%,0%);stroke-opacity:1;stroke-miterlimit:10;" d="M 935 230 L 964.664062 230 L 976.664062 201.785156 L 988.664062 230 L 1018.332031 230 L 994.332031 247.4375 L 1002.417969 278.980469 L 976.664062 261.542969 L 950.914062 278.980469 L 963.214844 247.4375 L 935 230 "/>
<path style="fill-rule:nonzero;fill:rgb(53%,27%,7%);fill-opacity:1;stroke-width:1;stroke-linecap:butt;stroke-linejoin:miter;stroke:rgb(0%,0%,0%);stroke-opacity:1;stroke-miterlimit:10;" d="M 676.785156 69.785156 L 676.785156 112.214844 L 719.214844 112.214844 L 719.214844 69.785156 L 676.785156 69.785156 "/>
<path style="fill-rule:nonzero;fill:rgb(53%,27%,7%);fill-opacity:1;stroke-width:1;stroke-linecap:butt;stroke-linejoin:miter;stroke:rgb(0%,0%,0%);stroke-opacity:1;stroke-miterlimit:10;" d="M 677.785156 369.785156 L 677.785156 412.214844 L 720.214844 412.214844 L 720.214844 369.785156 L 677.785156 369.785156 "/>
</g>
</svg>
