<?xml version="1.0" encoding="UTF-8"?>
<svg xmlns="http://www.w3.org/2000/svg" xmlns:xlink="http://www.w3.org/1999/xlink" width="1179pt" height="517pt" viewBox="0 0 1179 517" version="1.1">
<g id="surface996">
<rect x="0" y="0" width="1179" height="517" style="fill:rgb(90%,90%,90%);fill-opacity:1;stroke:none;"/>
<path style="fill-rule:nonzero;fill:rgb(55%,51%,53%);fill-opacity:1;stroke-width:1;stroke-linecap:butt;stroke-linejoin:miter;stroke:rgb(0%,0%,0%);stroke-opacity:1;stroke-miterlimit:10;" d="M 286 163 L 260.019531 208 L 311.980469 208 L 286 163 "/>
<path style="fill-rule:nonzero;fill:rgb(55%,51%,53%);fill-opacity:1;stroke-width:1;stroke-linecap:butt;stroke-linejoin:miter;stroke:rgb(0%,0%,0%);stroke-opacity:1;stroke-miterlimit:10;" d="M 854 300 L 828.019531 345 L 879.980469 345 L 854 300 "/>
<path style="fill-rule:nonzero;fill:rgb(55%,51%,53%);fill-opacity:1;stroke-width:1;stroke-linecap:butt;stroke-linejoin:miter;stroke:rgb(0%,0%,0%);stroke-opacity:1;stroke-miterlimit:10;" d="M 843 119 L 817.019531 164 L 868.980469 164 L 843 119 "/>
<path style="fill-rule:nonzero;fill:rgb(55%,51%,53%);fill-opacity:1;stroke-width:1;stroke-linecap:butt;stroke-linejoin:miter;stroke:rgb(0%,0%,0%);stroke-opacity:1;stroke-miterlimit:10;" d="M 390 346 L 364.019531 391 L 415.980469 391 L 390 346 "/>
<path style="fill-rule:nonzero;fill:rgb(55%,51%,53%);fill-opacity:1;stroke-width:1;stroke-linecap:butt;stroke-linejoin:miter;stroke:rgb(0%,0%,0%);stroke-opacity:1;stroke-miterlimit:10;" d="M 141 161 L 115.019531 206 L 166.980469 206 L 141 161 "/>
<path style="fill-rule:nonzero;fill:rgb(35%,70%,90%);fill-opacity:1;stroke-width:1;stroke-linecap:butt;stroke-linejoin:miter;stroke:rgb(0%,0%,0%);stroke-opacity:1;stroke-miterlimit:10;" d="M 717 303 L 746.664062 303 L 758.664062 274.785156 L 770.664062 303 L 800.332031 303 L 776.332031 320.4375 L 784.417969 351.980469 L 758.664062 334.542969 L 732.914062 351.980469 L 745.214844 320.4375 L 717 303 "/>
<path style="fill-rule:nonzero;fill:rgb(35%,70%,90%);fill-opacity:1;stroke-width:1;stroke-linecap:butt;stroke-linejoin:miter;stroke:rgb(0%,0%,0%);stroke-opacity:1;stroke-miterlimit:10;" d="M 1006 421 L 1035.664062 421 L 1047.664062 392.785156 L 1059.664062 421 L 1089.332031 421 L 1065.332031 438.4375 L 1073.417969 469.980469 L 1047.664062 452.542969 L 1021.914062 469.980469 L 1034.214844 438.4375 L 1006 421 "/>
<path style="fill-rule:nonzero;fill:rgb(35%,70%,90%);fill-opacity:1;stroke-width:1;stroke-linecap:butt;stroke-linejoin:miter;stroke:rgb(0%,0%,0%);stroke-opacity:1;stroke-miterlimit:10;" d="M 263 366 L 292.664062 366 L 304.664062 337.785156 L 316.664062 366 L 346.332031 366 L 322.332031 383.4375 L 330.417969 414.980469 L 304.664062 397.542969 L 278.914062 414.980469 L 291.214844 383.4375 L 263 366 "/>
<path style="fill-rule:nonzero;fill:rgb(35%,70%,90%);fill-opacity:1;stroke-width:1;stroke-linecap:butt;stroke-linejoin:miter;stroke:rgb(0%,0%,0%);stroke-opacity:1;stroke-miterlimit:10;" d="M 985 266 L 1014.664062 266 L 1026.664062 237.785156 L 1038.664062 266 L 1068.332031 266 L 1044.332031 283.4375 L 1052.417969 314.980469 L 1026.664062 297.542969 L 1000.914062 314.980469 L 1013.214844 283.4375 L 985 266 "/>
</g>
</svg>
