<?xml version="1.0" encoding="UTF-8"?>
<svg xmlns="http://www.w3.org/2000/svg" xmlns:xlink="http://www.w3.org/1999/xlink" width="1179pt" height="517pt" viewBox="0 0 1179 517" version="1.1">
<g id="surface936">
<rect x="0" y="0" width="1179" height="517" style="fill:rgb(90%,90%,90%);fill-opacity:1;stroke:none;"/>
<path style="fill-rule:nonzero;fill:rgb(100%,0%,0%);fill-opacity:1;stroke-width:1;stroke-linecap:butt;stroke-linejoin:miter;stroke:rgb(0%,0%,0%);stroke-opacity:1;stroke-miterlimit:10;" d="M 537 218.601562 C 537 204.199219 513 204.199219 513 218.601562 C 513 233 537 235.398438 537 247.398438 C 537 235.398438 561 233 561 218.601562 C 561 204.199219 537 204.199219 537 218.601562 "/>
<path style="fill-rule:nonzero;fill:rgb(100%,0%,0%);fill-opacity:1;stroke-width:1;stroke-linecap:butt;stroke-linejoin:miter;stroke:rgb(0%,0%,0%);stroke-opacity:1;stroke-miterlimit:10;" d="M 762 139.601562 C 762 125.199219 738 125.199219 738 139.601562 C 738 154 762 156.398438 762 168.398438 C 762 156.398438 786 154 786 139.601562 C 786 125.199219 762 125.199219 762 139.601562 "/>
<path style="fill-rule:nonzero;fill:rgb(100%,0%,0%);fill-opacity:1;stroke-width:1;stroke-linecap:butt;stroke-linejoin:miter;stroke:rgb(0%,0%,0%);stroke-opacity:1;stroke-miterlimit:10;" d="M 871 391.601562 C 871 377.199219 847 377.199219 847 391.601562 C 847 406 871 408.398438 871 420.398438 C 871 408.398438 895 406 895 391.601562 C 895 377.199219 871 377.199219 871 391.601562 "/>
<path style="fill-rule:nonzero;fill:rgb(100%,0%,0%);fill-opacity:1;stroke-width:1;stroke-linecap:butt;stroke-linejoin:miter;stroke:rgb(0%,0%,0%);stroke-opacity:1;stroke-miterlimit:10;" d="M 500 405.601562 C 500 391.199219 476 391.199219 476 405.601562 C 476 420 500 422.398438 500 434.398438 C 500 422.398438 524 420 524 405.601562 C 524 391.199219 500 391.199219 500 405.601562 "/>
<path style="fill-rule:nonzero;fill:rgb(100%,0%,0%);fill-opacity:1;stroke-width:1;stroke-linecap:butt;stroke-linejoin:miter;stroke:rgb(0%,0%,0%);stroke-opacity:1;stroke-miterlimit:10;" d="M 455 123.601562 C 455 109.199219 431 109.199219 431 123.601562 C 431 138 455 140.398438 455 152.398438 C 455 140.398438 479 138 479 123.601562 C 479 109.199219 455 109.199219 455 123.601562 "/>
<path style="fill-rule:nonzero;fill:rgb(0%,0%,0%);fill-opacity:1;stroke-width:1;stroke-linecap:butt;stroke-linejoin:miter;stroke:rgb(0%,0%,0%);stroke-opacity:1;stroke-miterlimit:10;" d="M 639 353 L 619 353 L 619 363 L 639 363 L 639 383 L 649 383 L 649 363 L 669 363 L 669 353 L 649 353 L 649 333 L 639 333 L 639 353 "/>
<path style="fill-rule:nonzero;fill:rgb(0%,0%,0%);fill-opacity:1;stroke-width:1;stroke-linecap:butt;stroke-linejoin:miter;stroke:rgb(0%,0%,0%);stroke-opacity:1;stroke-miterlimit:10;" d="M 261 224 L 241 224 L 241 234 L 261 234 L 261 254 L 271 254 L 271 234 L 291 234 L 291 224 L 271 224 L 271 204 L 261 204 L 261 224 "/>
<path style="fill-rule:nonzero;fill:rgb(0%,0%,0%);fill-opacity:1;stroke-width:1;stroke-linecap:butt;stroke-linejoin:miter;stroke:rgb(0%,0%,0%);stroke-opacity:1;stroke-miterlimit:10;" d="M 838 266 L 818 266 L 818 276 L 838 276 L 838 296 L 848 296 L 848 276 L 868 276 L 868 266 L 848 266 L 848 246 L 838 246 L 838 266 "/>
</g>
</svg>
