<?xml version="1.0" encoding="UTF-8"?>
<svg xmlns="http://www.w3.org/2000/svg" xmlns:xlink="http://www.w3.org/1999/xlink" width="1179pt" height="517pt" viewBox="0 0 1179 517" version="1.1">
<g id="surface1326">
<rect x="0" y="0" width="1179" height="517" style="fill:rgb(90%,90%,90%);fill-opacity:1;stroke:none;"/>
<path style="fill-rule:nonzero;fill:rgb(35%,70%,90%);fill-opacity:1;stroke-width:1;stroke-linecap:butt;stroke-linejoin:miter;stroke:rgb(0%,0%,0%);stroke-opacity:1;stroke-miterlimit:10;" d="M 443 301 L 472.664062 301 L 484.664062 272.785156 L 496.664062 301 L 526.332031 301 L 502.332031 318.4375 L 510.417969 349.980469 L 484.664062 332.542969 L 458.914062 349.980469 L 471.214844 318.4375 L 443 301 "/>
<path style="fill-rule:nonzero;fill:rgb(35%,70%,90%);fill-opacity:1;stroke-width:1;stroke-linecap:butt;stroke-linejoin:miter;stroke:rgb(0%,0%,0%);stroke-opacity:1;stroke-miterlimit:10;" d="M 864 275 L 893.664062 275 L 905.664062 246.785156 L 917.664062 275 L 947.332031 275 L 923.332031 292.4375 L 931.417969 323.980469 L 905.664062 306.542969 L 879.914062 323.980469 L 892.214844 292.4375 L 864 275 "/>
<path style="fill-rule:nonzero;fill:rgb(35%,70%,90%);fill-opacity:1;stroke-width:1;stroke-linecap:butt;stroke-linejoin:miter;stroke:rgb(0%,0%,0%);stroke-opacity:1;stroke-miterlimit:10;" d="M 646 352 L 675.664062 352 L 687.664062 323.785156 L 699.664062 352 L 729.332031 352 L 705.332031 369.4375 L 713.417969 400.980469 L 687.664062 383.542969 L 661.914062 400.980469 L 674.214844 369.4375 L 646 352 "/>
<path style="fill-rule:nonzero;fill:rgb(100%,51%,0%);fill-opacity:1;stroke-width:1;stroke-linecap:butt;stroke-linejoin:miter;stroke:rgb(0%,0%,0%);stroke-opacity:1;stroke-miterlimit:10;" d="M 197 83.601562 C 197 69.199219 173 69.199219 173 83.601562 C 173 98 197 100.398438 197 112.398438 C 197 100.398438 221 98 221 83.601562 C 221 69.199219 197 69.199219 197 83.601562 "/>
<path style="fill-rule:nonzero;fill:rgb(100%,51%,0%);fill-opacity:1;stroke-width:1;stroke-linecap:butt;stroke-linejoin:miter;stroke:rgb(0%,0%,0%);stroke-opacity:1;stroke-miterlimit:10;" d="M 165 201.601562 C 165 187.199219 141 187.199219 141 201.601562 C 141 216 165 218.398438 165 230.398438 C 165 218.398438 189 216 189 201.601562 C 189 187.199219 165 187.199219 165 201.601562 "/>
<path style="fill-rule:nonzero;fill:rgb(100%,51%,0%);fill-opacity:1;stroke-width:1;stroke-linecap:butt;stroke-linejoin:miter;stroke:rgb(0%,0%,0%);stroke-opacity:1;stroke-miterlimit:10;" d="M 406 136.601562 C 406 122.199219 382 122.199219 382 136.601562 C 382 151 406 153.398438 406 165.398438 C 406 153.398438 430 151 430 136.601562 C 430 122.199219 406 122.199219 406 136.601562 "/>
<path style="fill-rule:nonzero;fill:rgb(100%,51%,0%);fill-opacity:1;stroke-width:1;stroke-linecap:butt;stroke-linejoin:miter;stroke:rgb(0%,0%,0%);stroke-opacity:1;stroke-miterlimit:10;" d="M 170 353.601562 C 170 339.199219 146 339.199219 146 353.601562 C 146 368 170 370.398438 170 382.398438 C 170 370.398438 194 368 194 353.601562 C 194 339.199219 170 339.199219 170 353.601562 "/>
<path style="fill-rule:nonzero;fill:rgb(100%,51%,0%);fill-opacity:1;stroke-width:1;stroke-linecap:butt;stroke-linejoin:miter;stroke:rgb(0%,0%,0%);stroke-opacity:1;stroke-miterlimit:10;" d="M 569 201.601562 C 569 187.199219 545 187.199219 545 201.601562 C 545 216 569 218.398438 569 230.398438 C 569 218.398438 593 216 593 201.601562 C 593 187.199219 569 187.199219 569 201.601562 "/>
</g>
</svg>
