<?xml version="1.0" encoding="UTF-8"?>
<svg xmlns="http://www.w3.org/2000/svg" xmlns:xlink="http://www.w3.org/1999/xlink" width="1179pt" height="517pt" viewBox="0 0 1179 517" version="1.1">
<g id="surface1321">
<rect x="0" y="0" width="1179" height="517" style="fill:rgb(90%,90%,90%);fill-opacity:1;stroke:none;"/>
<path style="fill-rule:nonzero;fill:rgb(53%,27%,7%);fill-opacity:1;stroke-width:1;stroke-linecap:butt;stroke-linejoin:miter;stroke:rgb(0%,0%,0%);stroke-opacity:1;stroke-miterlimit:10;" d="M 937.214844 352 C 937.214844 363.714844 927.714844 373.214844 916 373.214844 C 904.285156 373.214844 894.785156 363.714844 894.785156 352 C 894.785156 340.285156 904.285156 330.785156 916 330.785156 C 927.714844 330.785156 937.214844 340.285156 937.214844 352 "/>
<path style="fill-rule:nonzero;fill:rgb(53%,27%,7%);fill-opacity:1;stroke-width:1;stroke-linecap:butt;stroke-linejoin:miter;stroke:rgb(0%,0%,0%);stroke-opacity:1;stroke-miterlimit:10;" d="M 348.214844 121 C 348.214844 132.714844 338.714844 142.214844 327 142.214844 C 315.285156 142.214844 305.785156 132.714844 305.785156 121 C 305.785156 109.285156 315.285156 99.785156 327 99.785156 C 338.714844 99.785156 348.214844 109.285156 348.214844 121 "/>
<path style="fill-rule:nonzero;fill:rgb(53%,27%,7%);fill-opacity:1;stroke-width:1;stroke-linecap:butt;stroke-linejoin:miter;stroke:rgb(0%,0%,0%);stroke-opacity:1;stroke-miterlimit:10;" d="M 476.214844 222 C 476.214844 233.714844 466.714844 243.214844 455 243.214844 C 443.285156 243.214844 433.785156 233.714844 433.785156 222 C 433.785156 210.285156 443.285156 200.785156 455 200.785156 C 466.714844 200.785156 476.214844 210.285156 476.214844 222 "/>
<path style="fill-rule:nonzero;fill:rgb(53%,27%,7%);fill-opacity:1;stroke-width:1;stroke-linecap:butt;stroke-linejoin:miter;stroke:rgb(0%,0%,0%);stroke-opacity:1;stroke-miterlimit:10;" d="M 105.214844 221 C 105.214844 232.714844 95.714844 242.214844 84 242.214844 C 72.285156 242.214844 62.785156 232.714844 62.785156 221 C 62.785156 209.285156 72.285156 199.785156 84 199.785156 C 95.714844 199.785156 105.214844 209.285156 105.214844 221 "/>
<path style="fill-rule:nonzero;fill:rgb(55%,51%,53%);fill-opacity:1;stroke-width:1;stroke-linecap:butt;stroke-linejoin:miter;stroke:rgb(0%,0%,0%);stroke-opacity:1;stroke-miterlimit:10;" d="M 558 319 L 532.019531 364 L 583.980469 364 L 558 319 "/>
<path style="fill-rule:nonzero;fill:rgb(55%,51%,53%);fill-opacity:1;stroke-width:1;stroke-linecap:butt;stroke-linejoin:miter;stroke:rgb(0%,0%,0%);stroke-opacity:1;stroke-miterlimit:10;" d="M 380 400 L 354.019531 445 L 405.980469 445 L 380 400 "/>
<path style="fill-rule:nonzero;fill:rgb(55%,51%,53%);fill-opacity:1;stroke-width:1;stroke-linecap:butt;stroke-linejoin:miter;stroke:rgb(0%,0%,0%);stroke-opacity:1;stroke-miterlimit:10;" d="M 725 88 L 699.019531 133 L 750.980469 133 L 725 88 "/>
</g>
</svg>
