<?xml version="1.0" encoding="UTF-8"?>
<svg xmlns="http://www.w3.org/2000/svg" xmlns:xlink="http://www.w3.org/1999/xlink" width="1179pt" height="517pt" viewBox="0 0 1179 517" version="1.1">
<g id="surface1311">
<rect x="0" y="0" width="1179" height="517" style="fill:rgb(90%,90%,90%);fill-opacity:1;stroke:none;"/>
<path style="fill-rule:nonzero;fill:rgb(100%,51%,0%);fill-opacity:1;stroke-width:1;stroke-linecap:butt;stroke-linejoin:miter;stroke:rgb(0%,0%,0%);stroke-opacity:1;stroke-miterlimit:10;" d="M 221 325 L 250.664062 325 L 262.664062 296.785156 L 274.664062 325 L 304.332031 325 L 280.332031 342.4375 L 288.417969 373.980469 L 262.664062 356.542969 L 236.914062 373.980469 L 249.214844 342.4375 L 221 325 "/>
<path style="fill-rule:nonzero;fill:rgb(100%,51%,0%);fill-opacity:1;stroke-width:1;stroke-linecap:butt;stroke-linejoin:miter;stroke:rgb(0%,0%,0%);stroke-opacity:1;stroke-miterlimit:10;" d="M 799 271 L 828.664062 271 L 840.664062 242.785156 L 852.664062 271 L 882.332031 271 L 858.332031 288.4375 L 866.417969 319.980469 L 840.664062 302.542969 L 814.914062 319.980469 L 827.214844 288.4375 L 799 271 "/>
<path style="fill-rule:nonzero;fill:rgb(100%,51%,0%);fill-opacity:1;stroke-width:1;stroke-linecap:butt;stroke-linejoin:miter;stroke:rgb(0%,0%,0%);stroke-opacity:1;stroke-miterlimit:10;" d="M 656 400 L 685.664062 400 L 697.664062 371.785156 L 709.664062 400 L 739.332031 400 L 715.332031 417.4375 L 723.417969 448.980469 L 697.664062 431.542969 L 671.914062 448.980469 L 684.214844 417.4375 L 656 400 "/>
<path style="fill-rule:nonzero;fill:rgb(100%,51%,0%);fill-opacity:1;stroke-width:1;stroke-linecap:butt;stroke-linejoin:miter;stroke:rgb(0%,0%,0%);stroke-opacity:1;stroke-miterlimit:10;" d="M 1001 344 L 1030.664062 344 L 1042.664062 315.785156 L 1054.664062 344 L 1084.332031 344 L 1060.332031 361.4375 L 1068.417969 392.980469 L 1042.664062 375.542969 L 1016.914062 392.980469 L 1029.214844 361.4375 L 1001 344 "/>
<path style="fill-rule:nonzero;fill:rgb(55%,51%,53%);fill-opacity:1;stroke-width:1;stroke-linecap:butt;stroke-linejoin:miter;stroke:rgb(0%,0%,0%);stroke-opacity:1;stroke-miterlimit:10;" d="M 439.214844 410 C 439.214844 421.714844 429.714844 431.214844 418 431.214844 C 406.285156 431.214844 396.785156 421.714844 396.785156 410 C 396.785156 398.285156 406.285156 388.785156 418 388.785156 C 429.714844 388.785156 439.214844 398.285156 439.214844 410 "/>
<path style="fill-rule:nonzero;fill:rgb(55%,51%,53%);fill-opacity:1;stroke-width:1;stroke-linecap:butt;stroke-linejoin:miter;stroke:rgb(0%,0%,0%);stroke-opacity:1;stroke-miterlimit:10;" d="M 721.214844 101 C 721.214844 112.714844 711.714844 122.214844 700 122.214844 C 688.285156 122.214844 678.785156 112.714844 678.785156 101 C 678.785156 89.285156 688.285156 79.785156 700 79.785156 C 711.714844 79.785156 721.214844 89.285156 721.214844 101 "/>
<path style="fill-rule:nonzero;fill:rgb(55%,51%,53%);fill-opacity:1;stroke-width:1;stroke-linecap:butt;stroke-linejoin:miter;stroke:rgb(0%,0%,0%);stroke-opacity:1;stroke-miterlimit:10;" d="M 528.214844 317 C 528.214844 328.714844 518.714844 338.214844 507 338.214844 C 495.285156 338.214844 485.785156 328.714844 485.785156 317 C 485.785156 305.285156 495.285156 295.785156 507 295.785156 C 518.714844 295.785156 528.214844 305.285156 528.214844 317 "/>
<path style="fill-rule:nonzero;fill:rgb(55%,51%,53%);fill-opacity:1;stroke-width:1;stroke-linecap:butt;stroke-linejoin:miter;stroke:rgb(0%,0%,0%);stroke-opacity:1;stroke-miterlimit:10;" d="M 126.214844 170 C 126.214844 181.714844 116.714844 191.214844 105 191.214844 C 93.285156 191.214844 83.785156 181.714844 83.785156 170 C 83.785156 158.285156 93.285156 148.785156 105 148.785156 C 116.714844 148.785156 126.214844 158.285156 126.214844 170 "/>
<path style="fill-rule:nonzero;fill:rgb(55%,51%,53%);fill-opacity:1;stroke-width:1;stroke-linecap:butt;stroke-linejoin:miter;stroke:rgb(0%,0%,0%);stroke-opacity:1;stroke-miterlimit:10;" d="M 253.214844 168 C 253.214844 179.714844 243.714844 189.214844 232 189.214844 C 220.285156 189.214844 210.785156 179.714844 210.785156 168 C 210.785156 156.285156 220.285156 146.785156 232 146.785156 C 243.714844 146.785156 253.214844 156.285156 253.214844 168 "/>
</g>
</svg>
