<?xml version="1.0" encoding="UTF-8"?>
<svg xmlns="http://www.w3.org/2000/svg" xmlns:xlink="http://www.w3.org/1999/xlink" width="1179pt" height="517pt" viewBox="0 0 1179 517" version="1.1">
<g id="surface981">
<rect x="0" y="0" width="1179" height="517" style="fill:rgb(90%,90%,90%);fill-opacity:1;stroke:none;"/>
<path style="fill-rule:nonzero;fill:rgb(100%,0%,0%);fill-opacity:1;stroke-width:1;stroke-linecap:butt;stroke-linejoin:miter;stroke:rgb(0%,0%,0%);stroke-opacity:1;stroke-miterlimit:10;" d="M 225 171.601562 C 225 157.199219 201 157.199219 201 171.601562 C 201 186 225 188.398438 225 200.398438 C 225 188.398438 249 186 249 171.601562 C 249 157.199219 225 157.199219 225 171.601562 "/>
<path style="fill-rule:nonzero;fill:rgb(100%,0%,0%);fill-opacity:1;stroke-width:1;stroke-linecap:butt;stroke-linejoin:miter;stroke:rgb(0%,0%,0%);stroke-opacity:1;stroke-miterlimit:10;" d="M 782 305.601562 C 782 291.199219 758 291.199219 758 305.601562 C 758 320 782 322.398438 782 334.398438 C 782 322.398438 806 320 806 305.601562 C 806 291.199219 782 291.199219 782 305.601562 "/>
<path style="fill-rule:nonzero;fill:rgb(100%,0%,0%);fill-opacity:1;stroke-width:1;stroke-linecap:butt;stroke-linejoin:miter;stroke:rgb(0%,0%,0%);stroke-opacity:1;stroke-miterlimit:10;" d="M 460 416.601562 C 460 402.199219 436 402.199219 436 416.601562 C 436 431 460 433.398438 460 445.398438 C 460 433.398438 484 431 484 416.601562 C 484 402.199219 460 402.199219 460 416.601562 "/>
<path style="fill-rule:nonzero;fill:rgb(100%,0%,0%);fill-opacity:1;stroke-width:1;stroke-linecap:butt;stroke-linejoin:miter;stroke:rgb(0%,0%,0%);stroke-opacity:1;stroke-miterlimit:10;" d="M 440 233.601562 C 440 219.199219 416 219.199219 416 233.601562 C 416 248 440 250.398438 440 262.398438 C 440 250.398438 464 248 464 233.601562 C 464 219.199219 440 219.199219 440 233.601562 "/>
<path style="fill-rule:nonzero;fill:rgb(100%,0%,0%);fill-opacity:1;stroke-width:1;stroke-linecap:butt;stroke-linejoin:miter;stroke:rgb(0%,0%,0%);stroke-opacity:1;stroke-miterlimit:10;" d="M 1017 388.601562 C 1017 374.199219 993 374.199219 993 388.601562 C 993 403 1017 405.398438 1017 417.398438 C 1017 405.398438 1041 403 1041 388.601562 C 1041 374.199219 1017 374.199219 1017 388.601562 "/>
<path style="fill-rule:nonzero;fill:rgb(0%,0%,0%);fill-opacity:1;stroke-width:1;stroke-linecap:butt;stroke-linejoin:miter;stroke:rgb(0%,0%,0%);stroke-opacity:1;stroke-miterlimit:10;" d="M 935 121 L 915 121 L 915 131 L 935 131 L 935 151 L 945 151 L 945 131 L 965 131 L 965 121 L 945 121 L 945 101 L 935 101 L 935 121 "/>
<path style="fill-rule:nonzero;fill:rgb(0%,0%,0%);fill-opacity:1;stroke-width:1;stroke-linecap:butt;stroke-linejoin:miter;stroke:rgb(0%,0%,0%);stroke-opacity:1;stroke-miterlimit:10;" d="M 229 349 L 209 349 L 209 359 L 229 359 L 229 379 L 239 379 L 239 359 L 259 359 L 259 349 L 239 349 L 239 329 L 229 329 L 229 349 "/>
<path style="fill-rule:nonzero;fill:rgb(0%,0%,0%);fill-opacity:1;stroke-width:1;stroke-linecap:butt;stroke-linejoin:miter;stroke:rgb(0%,0%,0%);stroke-opacity:1;stroke-miterlimit:10;" d="M 80 278 L 60 278 L 60 288 L 80 288 L 80 308 L 90 308 L 90 288 L 110 288 L 110 278 L 90 278 L 90 258 L 80 258 L 80 278 "/>
<path style="fill-rule:nonzero;fill:rgb(0%,0%,0%);fill-opacity:1;stroke-width:1;stroke-linecap:butt;stroke-linejoin:miter;stroke:rgb(0%,0%,0%);stroke-opacity:1;stroke-miterlimit:10;" d="M 326 117 L 306 117 L 306 127 L 326 127 L 326 147 L 336 147 L 336 127 L 356 127 L 356 117 L 336 117 L 336 97 L 326 97 L 326 117 "/>
<path style="fill-rule:nonzero;fill:rgb(0%,0%,0%);fill-opacity:1;stroke-width:1;stroke-linecap:butt;stroke-linejoin:miter;stroke:rgb(0%,0%,0%);stroke-opacity:1;stroke-miterlimit:10;" d="M 787 83 L 767 83 L 767 93 L 787 93 L 787 113 L 797 113 L 797 93 L 817 93 L 817 83 L 797 83 L 797 63 L 787 63 L 787 83 "/>
</g>
</svg>
