<?xml version="1.0" encoding="UTF-8"?>
<svg xmlns="http://www.w3.org/2000/svg" xmlns:xlink="http://www.w3.org/1999/xlink" width="1179pt" height="517pt" viewBox="0 0 1179 517" version="1.1">
<g id="surface81">
<rect x="0" y="0" width="1179" height="517" style="fill:rgb(90%,90%,90%);fill-opacity:1;stroke:none;"/>
<path style="fill-rule:nonzero;fill:rgb(35%,70%,90%);fill-opacity:1;stroke-width:1;stroke-linecap:butt;stroke-linejoin:miter;stroke:rgb(0%,0%,0%);stroke-opacity:1;stroke-miterlimit:10;" d="M 309.214844 376 C 309.214844 387.714844 299.714844 397.214844 288 397.214844 C 276.285156 397.214844 266.785156 387.714844 266.785156 376 C 266.785156 364.285156 276.285156 354.785156 288 354.785156 C 299.714844 354.785156 309.214844 364.285156 309.214844 376 "/>
<path style="fill-rule:nonzero;fill:rgb(55%,51%,53%);fill-opacity:1;stroke-width:1;stroke-linecap:butt;stroke-linejoin:miter;stroke:rgb(0%,0%,0%);stroke-opacity:1;stroke-miterlimit:10;" d="M 386.214844 140 C 386.214844 151.714844 376.714844 161.214844 365 161.214844 C 353.285156 161.214844 343.785156 151.714844 343.785156 140 C 343.785156 128.285156 353.285156 118.785156 365 118.785156 C 376.714844 118.785156 386.214844 128.285156 386.214844 140 "/>
<path style="fill-rule:nonzero;fill:rgb(55%,51%,53%);fill-opacity:1;stroke-width:1;stroke-linecap:butt;stroke-linejoin:miter;stroke:rgb(0%,0%,0%);stroke-opacity:1;stroke-miterlimit:10;" d="M 220.214844 209 C 220.214844 220.714844 210.714844 230.214844 199 230.214844 C 187.285156 230.214844 177.785156 220.714844 177.785156 209 C 177.785156 197.285156 187.285156 187.785156 199 187.785156 C 210.714844 187.785156 220.214844 197.285156 220.214844 209 "/>
<path style="fill-rule:nonzero;fill:rgb(35%,70%,90%);fill-opacity:1;stroke-width:1;stroke-linecap:butt;stroke-linejoin:miter;stroke:rgb(0%,0%,0%);stroke-opacity:1;stroke-miterlimit:10;" d="M 403.214844 394 C 403.214844 405.714844 393.714844 415.214844 382 415.214844 C 370.285156 415.214844 360.785156 405.714844 360.785156 394 C 360.785156 382.285156 370.285156 372.785156 382 372.785156 C 393.714844 372.785156 403.214844 382.285156 403.214844 394 "/>
<path style="fill-rule:nonzero;fill:rgb(55%,51%,53%);fill-opacity:1;stroke-width:1;stroke-linecap:butt;stroke-linejoin:miter;stroke:rgb(0%,0%,0%);stroke-opacity:1;stroke-miterlimit:10;" d="M 732.785156 213.785156 L 732.785156 256.214844 L 775.214844 256.214844 L 775.214844 213.785156 L 732.785156 213.785156 "/>
<path style="fill-rule:nonzero;fill:rgb(35%,70%,90%);fill-opacity:1;stroke-width:1;stroke-linecap:butt;stroke-linejoin:miter;stroke:rgb(0%,0%,0%);stroke-opacity:1;stroke-miterlimit:10;" d="M 891.785156 181.785156 L 891.785156 224.214844 L 934.214844 224.214844 L 934.214844 181.785156 L 891.785156 181.785156 "/>
<path style="fill-rule:nonzero;fill:rgb(35%,70%,90%);fill-opacity:1;stroke-width:1;stroke-linecap:butt;stroke-linejoin:miter;stroke:rgb(0%,0%,0%);stroke-opacity:1;stroke-miterlimit:10;" d="M 1006.785156 66.785156 L 1006.785156 109.214844 L 1049.214844 109.214844 L 1049.214844 66.785156 L 1006.785156 66.785156 "/>
</g>
</svg>
