<?xml version="1.0" encoding="UTF-8"?>
<svg xmlns="http://www.w3.org/2000/svg" xmlns:xlink="http://www.w3.org/1999/xlink" width="1179pt" height="517pt" viewBox="0 0 1179 517" version="1.1">
<g id="surface646">
<rect x="0" y="0" width="1179" height="517" style="fill:rgb(90%,90%,90%);fill-opacity:1;stroke:none;"/>
<path style="fill-rule:nonzero;fill:rgb(100%,51%,0%);fill-opacity:1;stroke-width:1;stroke-linecap:butt;stroke-linejoin:miter;stroke:rgb(0%,0%,0%);stroke-opacity:1;stroke-miterlimit:10;" d="M 236.214844 145 C 236.214844 156.714844 226.714844 166.214844 215 166.214844 C 203.285156 166.214844 193.785156 156.714844 193.785156 145 C 193.785156 133.285156 203.285156 123.785156 215 123.785156 C 226.714844 123.785156 236.214844 133.285156 236.214844 145 "/>
<path style="fill-rule:nonzero;fill:rgb(53%,27%,7%);fill-opacity:1;stroke-width:1;stroke-linecap:butt;stroke-linejoin:miter;stroke:rgb(0%,0%,0%);stroke-opacity:1;stroke-miterlimit:10;" d="M 128.214844 278 C 128.214844 289.714844 118.714844 299.214844 107 299.214844 C 95.285156 299.214844 85.785156 289.714844 85.785156 278 C 85.785156 266.285156 95.285156 256.785156 107 256.785156 C 118.714844 256.785156 128.214844 266.285156 128.214844 278 "/>
<path style="fill-rule:nonzero;fill:rgb(100%,51%,0%);fill-opacity:1;stroke-width:1;stroke-linecap:butt;stroke-linejoin:miter;stroke:rgb(0%,0%,0%);stroke-opacity:1;stroke-miterlimit:10;" d="M 387.214844 370 C 387.214844 381.714844 377.714844 391.214844 366 391.214844 C 354.285156 391.214844 344.785156 381.714844 344.785156 370 C 344.785156 358.285156 354.285156 348.785156 366 348.785156 C 377.714844 348.785156 387.214844 358.285156 387.214844 370 "/>
<path style="fill-rule:nonzero;fill:rgb(53%,27%,7%);fill-opacity:1;stroke-width:1;stroke-linecap:butt;stroke-linejoin:miter;stroke:rgb(0%,0%,0%);stroke-opacity:1;stroke-miterlimit:10;" d="M 331.214844 136 C 331.214844 147.714844 321.714844 157.214844 310 157.214844 C 298.285156 157.214844 288.785156 147.714844 288.785156 136 C 288.785156 124.285156 298.285156 114.785156 310 114.785156 C 321.714844 114.785156 331.214844 124.285156 331.214844 136 "/>
<path style="fill-rule:nonzero;fill:rgb(53%,27%,7%);fill-opacity:1;stroke-width:1;stroke-linecap:butt;stroke-linejoin:miter;stroke:rgb(0%,0%,0%);stroke-opacity:1;stroke-miterlimit:10;" d="M 822 110 L 796.019531 155 L 847.980469 155 L 822 110 "/>
<path style="fill-rule:nonzero;fill:rgb(100%,51%,0%);fill-opacity:1;stroke-width:1;stroke-linecap:butt;stroke-linejoin:miter;stroke:rgb(0%,0%,0%);stroke-opacity:1;stroke-miterlimit:10;" d="M 693 323 L 667.019531 368 L 718.980469 368 L 693 323 "/>
<path style="fill-rule:nonzero;fill:rgb(53%,27%,7%);fill-opacity:1;stroke-width:1;stroke-linecap:butt;stroke-linejoin:miter;stroke:rgb(0%,0%,0%);stroke-opacity:1;stroke-miterlimit:10;" d="M 1025 273 L 999.019531 318 L 1050.980469 318 L 1025 273 "/>
<path style="fill-rule:nonzero;fill:rgb(100%,51%,0%);fill-opacity:1;stroke-width:1;stroke-linecap:butt;stroke-linejoin:miter;stroke:rgb(0%,0%,0%);stroke-opacity:1;stroke-miterlimit:10;" d="M 956 182 L 930.019531 227 L 981.980469 227 L 956 182 "/>
<path style="fill-rule:nonzero;fill:rgb(53%,27%,7%);fill-opacity:1;stroke-width:1;stroke-linecap:butt;stroke-linejoin:miter;stroke:rgb(0%,0%,0%);stroke-opacity:1;stroke-miterlimit:10;" d="M 955 71 L 929.019531 116 L 980.980469 116 L 955 71 "/>
</g>
</svg>
