<?xml version="1.0" encoding="UTF-8"?>
<svg xmlns="http://www.w3.org/2000/svg" xmlns:xlink="http://www.w3.org/1999/xlink" width="1179pt" height="517pt" viewBox="0 0 1179 517" version="1.1">
<g id="surface21">
<rect x="0" y="0" width="1179" height="517" style="fill:rgb(90%,90%,90%);fill-opacity:1;stroke:none;"/>
<path style="fill-rule:nonzero;fill:rgb(35%,70%,90%);fill-opacity:1;stroke-width:1;stroke-linecap:butt;stroke-linejoin:miter;stroke:rgb(0%,0%,0%);stroke-opacity:1;stroke-miterlimit:10;" d="M 420.214844 139 C 420.214844 150.714844 410.714844 160.214844 399 160.214844 C 387.285156 160.214844 377.785156 150.714844 377.785156 139 C 377.785156 127.285156 387.285156 117.785156 399 117.785156 C 410.714844 117.785156 420.214844 127.285156 420.214844 139 "/>
<path style="fill-rule:nonzero;fill:rgb(100%,51%,0%);fill-opacity:1;stroke-width:1;stroke-linecap:butt;stroke-linejoin:miter;stroke:rgb(0%,0%,0%);stroke-opacity:1;stroke-miterlimit:10;" d="M 410.214844 403 C 410.214844 414.714844 400.714844 424.214844 389 424.214844 C 377.285156 424.214844 367.785156 414.714844 367.785156 403 C 367.785156 391.285156 377.285156 381.785156 389 381.785156 C 400.714844 381.785156 410.214844 391.285156 410.214844 403 "/>
<path style="fill-rule:nonzero;fill:rgb(35%,70%,90%);fill-opacity:1;stroke-width:1;stroke-linecap:butt;stroke-linejoin:miter;stroke:rgb(0%,0%,0%);stroke-opacity:1;stroke-miterlimit:10;" d="M 189.214844 318 C 189.214844 329.714844 179.714844 339.214844 168 339.214844 C 156.285156 339.214844 146.785156 329.714844 146.785156 318 C 146.785156 306.285156 156.285156 296.785156 168 296.785156 C 179.714844 296.785156 189.214844 306.285156 189.214844 318 "/>
<path style="fill-rule:nonzero;fill:rgb(100%,51%,0%);fill-opacity:1;stroke-width:1;stroke-linecap:butt;stroke-linejoin:miter;stroke:rgb(0%,0%,0%);stroke-opacity:1;stroke-miterlimit:10;" d="M 332.214844 102 C 332.214844 113.714844 322.714844 123.214844 311 123.214844 C 299.285156 123.214844 289.785156 113.714844 289.785156 102 C 289.785156 90.285156 299.285156 80.785156 311 80.785156 C 322.714844 80.785156 332.214844 90.285156 332.214844 102 "/>
<path style="fill-rule:nonzero;fill:rgb(100%,51%,0%);fill-opacity:1;stroke-width:1;stroke-linecap:butt;stroke-linejoin:miter;stroke:rgb(0%,0%,0%);stroke-opacity:1;stroke-miterlimit:10;" d="M 895.785156 85.785156 L 895.785156 128.214844 L 938.214844 128.214844 L 938.214844 85.785156 L 895.785156 85.785156 "/>
<path style="fill-rule:nonzero;fill:rgb(35%,70%,90%);fill-opacity:1;stroke-width:1;stroke-linecap:butt;stroke-linejoin:miter;stroke:rgb(0%,0%,0%);stroke-opacity:1;stroke-miterlimit:10;" d="M 905.785156 206.785156 L 905.785156 249.214844 L 948.214844 249.214844 L 948.214844 206.785156 L 905.785156 206.785156 "/>
<path style="fill-rule:nonzero;fill:rgb(100%,51%,0%);fill-opacity:1;stroke-width:1;stroke-linecap:butt;stroke-linejoin:miter;stroke:rgb(0%,0%,0%);stroke-opacity:1;stroke-miterlimit:10;" d="M 736.785156 190.785156 L 736.785156 233.214844 L 779.214844 233.214844 L 779.214844 190.785156 L 736.785156 190.785156 "/>
</g>
</svg>
