<?xml version="1.0" encoding="UTF-8"?>
<svg xmlns="http://www.w3.org/2000/svg" xmlns:xlink="http://www.w3.org/1999/xlink" width="1179pt" height="517pt" viewBox="0 0 1179 517" version="1.1">
<g id="surface1421">
<rect x="0" y="0" width="1179" height="517" style="fill:rgb(90%,90%,90%);fill-opacity:1;stroke:none;"/>
<path style="fill-rule:nonzero;fill:rgb(55%,51%,53%);fill-opacity:1;stroke-width:1;stroke-linecap:butt;stroke-linejoin:miter;stroke:rgb(0%,0%,0%);stroke-opacity:1;stroke-miterlimit:10;" d="M 775.214844 391 C 775.214844 402.714844 765.714844 412.214844 754 412.214844 C 742.285156 412.214844 732.785156 402.714844 732.785156 391 C 732.785156 379.285156 742.285156 369.785156 754 369.785156 C 765.714844 369.785156 775.214844 379.285156 775.214844 391 "/>
<path style="fill-rule:nonzero;fill:rgb(55%,51%,53%);fill-opacity:1;stroke-width:1;stroke-linecap:butt;stroke-linejoin:miter;stroke:rgb(0%,0%,0%);stroke-opacity:1;stroke-miterlimit:10;" d="M 318.214844 270 C 318.214844 281.714844 308.714844 291.214844 297 291.214844 C 285.285156 291.214844 275.785156 281.714844 275.785156 270 C 275.785156 258.285156 285.285156 248.785156 297 248.785156 C 308.714844 248.785156 318.214844 258.285156 318.214844 270 "/>
<path style="fill-rule:nonzero;fill:rgb(55%,51%,53%);fill-opacity:1;stroke-width:1;stroke-linecap:butt;stroke-linejoin:miter;stroke:rgb(0%,0%,0%);stroke-opacity:1;stroke-miterlimit:10;" d="M 201.214844 210 C 201.214844 221.714844 191.714844 231.214844 180 231.214844 C 168.285156 231.214844 158.785156 221.714844 158.785156 210 C 158.785156 198.285156 168.285156 188.785156 180 188.785156 C 191.714844 188.785156 201.214844 198.285156 201.214844 210 "/>
<path style="fill-rule:nonzero;fill:rgb(55%,51%,53%);fill-opacity:1;stroke-width:1;stroke-linecap:butt;stroke-linejoin:miter;stroke:rgb(0%,0%,0%);stroke-opacity:1;stroke-miterlimit:10;" d="M 970.214844 269 C 970.214844 280.714844 960.714844 290.214844 949 290.214844 C 937.285156 290.214844 927.785156 280.714844 927.785156 269 C 927.785156 257.285156 937.285156 247.785156 949 247.785156 C 960.714844 247.785156 970.214844 257.285156 970.214844 269 "/>
<path style="fill-rule:nonzero;fill:rgb(35%,70%,90%);fill-opacity:1;stroke-width:1;stroke-linecap:butt;stroke-linejoin:miter;stroke:rgb(0%,0%,0%);stroke-opacity:1;stroke-miterlimit:10;" d="M 1014 347 L 988.019531 392 L 1039.980469 392 L 1014 347 "/>
<path style="fill-rule:nonzero;fill:rgb(35%,70%,90%);fill-opacity:1;stroke-width:1;stroke-linecap:butt;stroke-linejoin:miter;stroke:rgb(0%,0%,0%);stroke-opacity:1;stroke-miterlimit:10;" d="M 622 362 L 596.019531 407 L 647.980469 407 L 622 362 "/>
<path style="fill-rule:nonzero;fill:rgb(35%,70%,90%);fill-opacity:1;stroke-width:1;stroke-linecap:butt;stroke-linejoin:miter;stroke:rgb(0%,0%,0%);stroke-opacity:1;stroke-miterlimit:10;" d="M 700 171 L 674.019531 216 L 725.980469 216 L 700 171 "/>
</g>
</svg>
