<?xml version="1.0" encoding="UTF-8"?>
<svg xmlns="http://www.w3.org/2000/svg" xmlns:xlink="http://www.w3.org/1999/xlink" width="1179pt" height="517pt" viewBox="0 0 1179 517" version="1.1">
<g id="surface1261">
<rect x="0" y="0" width="1179" height="517" style="fill:rgb(90%,90%,90%);fill-opacity:1;stroke:none;"/>
<path style="fill-rule:nonzero;fill:rgb(53%,27%,7%);fill-opacity:1;stroke-width:1;stroke-linecap:butt;stroke-linejoin:miter;stroke:rgb(0%,0%,0%);stroke-opacity:1;stroke-miterlimit:10;" d="M 348.214844 228 C 348.214844 239.714844 338.714844 249.214844 327 249.214844 C 315.285156 249.214844 305.785156 239.714844 305.785156 228 C 305.785156 216.285156 315.285156 206.785156 327 206.785156 C 338.714844 206.785156 348.214844 216.285156 348.214844 228 "/>
<path style="fill-rule:nonzero;fill:rgb(53%,27%,7%);fill-opacity:1;stroke-width:1;stroke-linecap:butt;stroke-linejoin:miter;stroke:rgb(0%,0%,0%);stroke-opacity:1;stroke-miterlimit:10;" d="M 107.214844 416 C 107.214844 427.714844 97.714844 437.214844 86 437.214844 C 74.285156 437.214844 64.785156 427.714844 64.785156 416 C 64.785156 404.285156 74.285156 394.785156 86 394.785156 C 97.714844 394.785156 107.214844 404.285156 107.214844 416 "/>
<path style="fill-rule:nonzero;fill:rgb(53%,27%,7%);fill-opacity:1;stroke-width:1;stroke-linecap:butt;stroke-linejoin:miter;stroke:rgb(0%,0%,0%);stroke-opacity:1;stroke-miterlimit:10;" d="M 733.214844 381 C 733.214844 392.714844 723.714844 402.214844 712 402.214844 C 700.285156 402.214844 690.785156 392.714844 690.785156 381 C 690.785156 369.285156 700.285156 359.785156 712 359.785156 C 723.714844 359.785156 733.214844 369.285156 733.214844 381 "/>
<path style="fill-rule:nonzero;fill:rgb(53%,27%,7%);fill-opacity:1;stroke-width:1;stroke-linecap:butt;stroke-linejoin:miter;stroke:rgb(0%,0%,0%);stroke-opacity:1;stroke-miterlimit:10;" d="M 758.214844 246 C 758.214844 257.714844 748.714844 267.214844 737 267.214844 C 725.285156 267.214844 715.785156 257.714844 715.785156 246 C 715.785156 234.285156 725.285156 224.785156 737 224.785156 C 748.714844 224.785156 758.214844 234.285156 758.214844 246 "/>
<path style="fill-rule:nonzero;fill:rgb(53%,27%,7%);fill-opacity:1;stroke-width:1;stroke-linecap:butt;stroke-linejoin:miter;stroke:rgb(0%,0%,0%);stroke-opacity:1;stroke-miterlimit:10;" d="M 196.214844 260 C 196.214844 271.714844 186.714844 281.214844 175 281.214844 C 163.285156 281.214844 153.785156 271.714844 153.785156 260 C 153.785156 248.285156 163.285156 238.785156 175 238.785156 C 186.714844 238.785156 196.214844 248.285156 196.214844 260 "/>
<path style="fill-rule:nonzero;fill:rgb(100%,51%,0%);fill-opacity:1;stroke-width:1;stroke-linecap:butt;stroke-linejoin:miter;stroke:rgb(0%,0%,0%);stroke-opacity:1;stroke-miterlimit:10;" d="M 1037 299 L 1066.664062 299 L 1078.664062 270.785156 L 1090.664062 299 L 1120.332031 299 L 1096.332031 316.4375 L 1104.417969 347.980469 L 1078.664062 330.542969 L 1052.914062 347.980469 L 1065.214844 316.4375 L 1037 299 "/>
<path style="fill-rule:nonzero;fill:rgb(100%,51%,0%);fill-opacity:1;stroke-width:1;stroke-linecap:butt;stroke-linejoin:miter;stroke:rgb(0%,0%,0%);stroke-opacity:1;stroke-miterlimit:10;" d="M 295 394 L 324.664062 394 L 336.664062 365.785156 L 348.664062 394 L 378.332031 394 L 354.332031 411.4375 L 362.417969 442.980469 L 336.664062 425.542969 L 310.914062 442.980469 L 323.214844 411.4375 L 295 394 "/>
<path style="fill-rule:nonzero;fill:rgb(100%,51%,0%);fill-opacity:1;stroke-width:1;stroke-linecap:butt;stroke-linejoin:miter;stroke:rgb(0%,0%,0%);stroke-opacity:1;stroke-miterlimit:10;" d="M 593 197 L 622.664062 197 L 634.664062 168.785156 L 646.664062 197 L 676.332031 197 L 652.332031 214.4375 L 660.417969 245.980469 L 634.664062 228.542969 L 608.914062 245.980469 L 621.214844 214.4375 L 593 197 "/>
<path style="fill-rule:nonzero;fill:rgb(100%,51%,0%);fill-opacity:1;stroke-width:1;stroke-linecap:butt;stroke-linejoin:miter;stroke:rgb(0%,0%,0%);stroke-opacity:1;stroke-miterlimit:10;" d="M 481 391 L 510.664062 391 L 522.664062 362.785156 L 534.664062 391 L 564.332031 391 L 540.332031 408.4375 L 548.417969 439.980469 L 522.664062 422.542969 L 496.914062 439.980469 L 509.214844 408.4375 L 481 391 "/>
<path style="fill-rule:nonzero;fill:rgb(100%,51%,0%);fill-opacity:1;stroke-width:1;stroke-linecap:butt;stroke-linejoin:miter;stroke:rgb(0%,0%,0%);stroke-opacity:1;stroke-miterlimit:10;" d="M 1038 172 L 1067.664062 172 L 1079.664062 143.785156 L 1091.664062 172 L 1121.332031 172 L 1097.332031 189.4375 L 1105.417969 220.980469 L 1079.664062 203.542969 L 1053.914062 220.980469 L 1066.214844 189.4375 L 1038 172 "/>
</g>
</svg>
