<?xml version="1.0" encoding="UTF-8"?>
<svg xmlns="http://www.w3.org/2000/svg" xmlns:xlink="http://www.w3.org/1999/xlink" width="1179pt" height="517pt" viewBox="0 0 1179 517" version="1.1">
<g id="surface1101">
<rect x="0" y="0" width="1179" height="517" style="fill:rgb(90%,90%,90%);fill-opacity:1;stroke:none;"/>
<path style="fill-rule:nonzero;fill:rgb(35%,70%,90%);fill-opacity:1;stroke-width:1;stroke-linecap:butt;stroke-linejoin:miter;stroke:rgb(0%,0%,0%);stroke-opacity:1;stroke-miterlimit:10;" d="M 359.214844 344 C 359.214844 355.714844 349.714844 365.214844 338 365.214844 C 326.285156 365.214844 316.785156 355.714844 316.785156 344 C 316.785156 332.285156 326.285156 322.785156 338 322.785156 C 349.714844 322.785156 359.214844 332.285156 359.214844 344 "/>
<path style="fill-rule:nonzero;fill:rgb(35%,70%,90%);fill-opacity:1;stroke-width:1;stroke-linecap:butt;stroke-linejoin:miter;stroke:rgb(0%,0%,0%);stroke-opacity:1;stroke-miterlimit:10;" d="M 654.214844 274 C 654.214844 285.714844 644.714844 295.214844 633 295.214844 C 621.285156 295.214844 611.785156 285.714844 611.785156 274 C 611.785156 262.285156 621.285156 252.785156 633 252.785156 C 644.714844 252.785156 654.214844 262.285156 654.214844 274 "/>
<path style="fill-rule:nonzero;fill:rgb(35%,70%,90%);fill-opacity:1;stroke-width:1;stroke-linecap:butt;stroke-linejoin:miter;stroke:rgb(0%,0%,0%);stroke-opacity:1;stroke-miterlimit:10;" d="M 950.214844 212 C 950.214844 223.714844 940.714844 233.214844 929 233.214844 C 917.285156 233.214844 907.785156 223.714844 907.785156 212 C 907.785156 200.285156 917.285156 190.785156 929 190.785156 C 940.714844 190.785156 950.214844 200.285156 950.214844 212 "/>
<path style="fill-rule:nonzero;fill:rgb(35%,70%,90%);fill-opacity:1;stroke-width:1;stroke-linecap:butt;stroke-linejoin:miter;stroke:rgb(0%,0%,0%);stroke-opacity:1;stroke-miterlimit:10;" d="M 838.214844 415 C 838.214844 426.714844 828.714844 436.214844 817 436.214844 C 805.285156 436.214844 795.785156 426.714844 795.785156 415 C 795.785156 403.285156 805.285156 393.785156 817 393.785156 C 828.714844 393.785156 838.214844 403.285156 838.214844 415 "/>
<path style="fill-rule:nonzero;fill:rgb(100%,51%,0%);fill-opacity:1;stroke-width:1;stroke-linecap:butt;stroke-linejoin:miter;stroke:rgb(0%,0%,0%);stroke-opacity:1;stroke-miterlimit:10;" d="M 374 109 L 348.019531 154 L 399.980469 154 L 374 109 "/>
<path style="fill-rule:nonzero;fill:rgb(100%,51%,0%);fill-opacity:1;stroke-width:1;stroke-linecap:butt;stroke-linejoin:miter;stroke:rgb(0%,0%,0%);stroke-opacity:1;stroke-miterlimit:10;" d="M 243 402 L 217.019531 447 L 268.980469 447 L 243 402 "/>
<path style="fill-rule:nonzero;fill:rgb(100%,51%,0%);fill-opacity:1;stroke-width:1;stroke-linecap:butt;stroke-linejoin:miter;stroke:rgb(0%,0%,0%);stroke-opacity:1;stroke-miterlimit:10;" d="M 239 238 L 213.019531 283 L 264.980469 283 L 239 238 "/>
<path style="fill-rule:nonzero;fill:rgb(100%,51%,0%);fill-opacity:1;stroke-width:1;stroke-linecap:butt;stroke-linejoin:miter;stroke:rgb(0%,0%,0%);stroke-opacity:1;stroke-miterlimit:10;" d="M 145 68 L 119.019531 113 L 170.980469 113 L 145 68 "/>
</g>
</svg>
