<?xml version="1.0" encoding="UTF-8"?>
<svg xmlns="http://www.w3.org/2000/svg" xmlns:xlink="http://www.w3.org/1999/xlink" width="1179pt" height="517pt" viewBox="0 0 1179 517" version="1.1">
<g id="surface261">
<rect x="0" y="0" width="1179" height="517" style="fill:rgb(90%,90%,90%);fill-opacity:1;stroke:none;"/>
<path style="fill-rule:nonzero;fill:rgb(35%,70%,90%);fill-opacity:1;stroke-width:1;stroke-linecap:butt;stroke-linejoin:miter;stroke:rgb(0%,0%,0%);stroke-opacity:1;stroke-miterlimit:10;" d="M 352.214844 323 C 352.214844 334.714844 342.714844 344.214844 331 344.214844 C 319.285156 344.214844 309.785156 334.714844 309.785156 323 C 309.785156 311.285156 319.285156 301.785156 331 301.785156 C 342.714844 301.785156 352.214844 311.285156 352.214844 323 "/>
<path style="fill-rule:nonzero;fill:rgb(35%,70%,90%);fill-opacity:1;stroke-width:1;stroke-linecap:butt;stroke-linejoin:miter;stroke:rgb(0%,0%,0%);stroke-opacity:1;stroke-miterlimit:10;" d="M 321.785156 127.785156 L 321.785156 170.214844 L 364.214844 170.214844 L 364.214844 127.785156 L 321.785156 127.785156 "/>
<path style="fill-rule:nonzero;fill:rgb(35%,70%,90%);fill-opacity:1;stroke-width:1;stroke-linecap:butt;stroke-linejoin:miter;stroke:rgb(0%,0%,0%);stroke-opacity:1;stroke-miterlimit:10;" d="M 149.214844 425 C 149.214844 436.714844 139.714844 446.214844 128 446.214844 C 116.285156 446.214844 106.785156 436.714844 106.785156 425 C 106.785156 413.285156 116.285156 403.785156 128 403.785156 C 139.714844 403.785156 149.214844 413.285156 149.214844 425 "/>
<path style="fill-rule:nonzero;fill:rgb(55%,51%,53%);fill-opacity:1;stroke-width:1;stroke-linecap:butt;stroke-linejoin:miter;stroke:rgb(0%,0%,0%);stroke-opacity:1;stroke-miterlimit:10;" d="M 915.785156 263.785156 L 915.785156 306.214844 L 958.214844 306.214844 L 958.214844 263.785156 L 915.785156 263.785156 "/>
<path style="fill-rule:nonzero;fill:rgb(55%,51%,53%);fill-opacity:1;stroke-width:1;stroke-linecap:butt;stroke-linejoin:miter;stroke:rgb(0%,0%,0%);stroke-opacity:1;stroke-miterlimit:10;" d="M 792.214844 352 C 792.214844 363.714844 782.714844 373.214844 771 373.214844 C 759.285156 373.214844 749.785156 363.714844 749.785156 352 C 749.785156 340.285156 759.285156 330.785156 771 330.785156 C 782.714844 330.785156 792.214844 340.285156 792.214844 352 "/>
<path style="fill-rule:nonzero;fill:rgb(55%,51%,53%);fill-opacity:1;stroke-width:1;stroke-linecap:butt;stroke-linejoin:miter;stroke:rgb(0%,0%,0%);stroke-opacity:1;stroke-miterlimit:10;" d="M 906.785156 140.785156 L 906.785156 183.214844 L 949.214844 183.214844 L 949.214844 140.785156 L 906.785156 140.785156 "/>
</g>
</svg>
