<?xml version="1.0" encoding="UTF-8"?>
<svg xmlns="http://www.w3.org/2000/svg" xmlns:xlink="http://www.w3.org/1999/xlink" width="1179pt" height="517pt" viewBox="0 0 1179 517" version="1.1">
<g id="surface741">
<rect x="0" y="0" width="1179" height="517" style="fill:rgb(90%,90%,90%);fill-opacity:1;stroke:none;"/>
<path style="fill-rule:nonzero;fill:rgb(100%,51%,0%);fill-opacity:1;stroke-width:1;stroke-linecap:butt;stroke-linejoin:miter;stroke:rgb(0%,0%,0%);stroke-opacity:1;stroke-miterlimit:10;" d="M 144.214844 318 C 144.214844 329.714844 134.714844 339.214844 123 339.214844 C 111.285156 339.214844 101.785156 329.714844 101.785156 318 C 101.785156 306.285156 111.285156 296.785156 123 296.785156 C 134.714844 296.785156 144.214844 306.285156 144.214844 318 "/>
<path style="fill-rule:nonzero;fill:rgb(100%,51%,0%);fill-opacity:1;stroke-width:1;stroke-linecap:butt;stroke-linejoin:miter;stroke:rgb(0%,0%,0%);stroke-opacity:1;stroke-miterlimit:10;" d="M 431.214844 113 C 431.214844 124.714844 421.714844 134.214844 410 134.214844 C 398.285156 134.214844 388.785156 124.714844 388.785156 113 C 388.785156 101.285156 398.285156 91.785156 410 91.785156 C 421.714844 91.785156 431.214844 101.285156 431.214844 113 "/>
<path style="fill-rule:nonzero;fill:rgb(100%,51%,0%);fill-opacity:1;stroke-width:1;stroke-linecap:butt;stroke-linejoin:miter;stroke:rgb(0%,0%,0%);stroke-opacity:1;stroke-miterlimit:10;" d="M 480.214844 384 C 480.214844 395.714844 470.714844 405.214844 459 405.214844 C 447.285156 405.214844 437.785156 395.714844 437.785156 384 C 437.785156 372.285156 447.285156 362.785156 459 362.785156 C 470.714844 362.785156 480.214844 372.285156 480.214844 384 "/>
<path style="fill-rule:nonzero;fill:rgb(35%,70%,90%);fill-opacity:1;stroke-width:1;stroke-linecap:butt;stroke-linejoin:miter;stroke:rgb(0%,0%,0%);stroke-opacity:1;stroke-miterlimit:10;" d="M 271 183 L 300.664062 183 L 312.664062 154.785156 L 324.664062 183 L 354.332031 183 L 330.332031 200.4375 L 338.417969 231.980469 L 312.664062 214.542969 L 286.914062 231.980469 L 299.214844 200.4375 L 271 183 "/>
<path style="fill-rule:nonzero;fill:rgb(35%,70%,90%);fill-opacity:1;stroke-width:1;stroke-linecap:butt;stroke-linejoin:miter;stroke:rgb(0%,0%,0%);stroke-opacity:1;stroke-miterlimit:10;" d="M 589 429 L 618.664062 429 L 630.664062 400.785156 L 642.664062 429 L 672.332031 429 L 648.332031 446.4375 L 656.417969 477.980469 L 630.664062 460.542969 L 604.914062 477.980469 L 617.214844 446.4375 L 589 429 "/>
<path style="fill-rule:nonzero;fill:rgb(35%,70%,90%);fill-opacity:1;stroke-width:1;stroke-linecap:butt;stroke-linejoin:miter;stroke:rgb(0%,0%,0%);stroke-opacity:1;stroke-miterlimit:10;" d="M 854 361 L 883.664062 361 L 895.664062 332.785156 L 907.664062 361 L 937.332031 361 L 913.332031 378.4375 L 921.417969 409.980469 L 895.664062 392.542969 L 869.914062 409.980469 L 882.214844 378.4375 L 854 361 "/>
<path style="fill-rule:nonzero;fill:rgb(35%,70%,90%);fill-opacity:1;stroke-width:1;stroke-linecap:butt;stroke-linejoin:miter;stroke:rgb(0%,0%,0%);stroke-opacity:1;stroke-miterlimit:10;" d="M 553 265 L 582.664062 265 L 594.664062 236.785156 L 606.664062 265 L 636.332031 265 L 612.332031 282.4375 L 620.417969 313.980469 L 594.664062 296.542969 L 568.914062 313.980469 L 581.214844 282.4375 L 553 265 "/>
</g>
</svg>
