<?xml version="1.0" encoding="UTF-8"?>
<svg xmlns="http://www.w3.org/2000/svg" xmlns:xlink="http://www.w3.org/1999/xlink" width="1179pt" height="517pt" viewBox="0 0 1179 517" version="1.1">
<g id="surface46">
<rect x="0" y="0" width="1179" height="517" style="fill:rgb(90%,90%,90%);fill-opacity:1;stroke:none;"/>
<path style="fill-rule:nonzero;fill:rgb(35%,70%,90%);fill-opacity:1;stroke-width:1;stroke-linecap:butt;stroke-linejoin:miter;stroke:rgb(0%,0%,0%);stroke-opacity:1;stroke-miterlimit:10;" d="M 218.214844 92 C 218.214844 103.714844 208.714844 113.214844 197 113.214844 C 185.285156 113.214844 175.785156 103.714844 175.785156 92 C 175.785156 80.285156 185.285156 70.785156 197 70.785156 C 208.714844 70.785156 218.214844 80.285156 218.214844 92 "/>
<path style="fill-rule:nonzero;fill:rgb(35%,70%,90%);fill-opacity:1;stroke-width:1;stroke-linecap:butt;stroke-linejoin:miter;stroke:rgb(0%,0%,0%);stroke-opacity:1;stroke-miterlimit:10;" d="M 439.214844 319 C 439.214844 330.714844 429.714844 340.214844 418 340.214844 C 406.285156 340.214844 396.785156 330.714844 396.785156 319 C 396.785156 307.285156 406.285156 297.785156 418 297.785156 C 429.714844 297.785156 439.214844 307.285156 439.214844 319 "/>
<path style="fill-rule:nonzero;fill:rgb(35%,70%,90%);fill-opacity:1;stroke-width:1;stroke-linecap:butt;stroke-linejoin:miter;stroke:rgb(0%,0%,0%);stroke-opacity:1;stroke-miterlimit:10;" d="M 180 276 L 154.019531 321 L 205.980469 321 L 180 276 "/>
<path style="fill-rule:nonzero;fill:rgb(53%,27%,7%);fill-opacity:1;stroke-width:1;stroke-linecap:butt;stroke-linejoin:miter;stroke:rgb(0%,0%,0%);stroke-opacity:1;stroke-miterlimit:10;" d="M 890 197 L 864.019531 242 L 915.980469 242 L 890 197 "/>
<path style="fill-rule:nonzero;fill:rgb(53%,27%,7%);fill-opacity:1;stroke-width:1;stroke-linecap:butt;stroke-linejoin:miter;stroke:rgb(0%,0%,0%);stroke-opacity:1;stroke-miterlimit:10;" d="M 974 363 L 948.019531 408 L 999.980469 408 L 974 363 "/>
<path style="fill-rule:nonzero;fill:rgb(53%,27%,7%);fill-opacity:1;stroke-width:1;stroke-linecap:butt;stroke-linejoin:miter;stroke:rgb(0%,0%,0%);stroke-opacity:1;stroke-miterlimit:10;" d="M 961.214844 100 C 961.214844 111.714844 951.714844 121.214844 940 121.214844 C 928.285156 121.214844 918.785156 111.714844 918.785156 100 C 918.785156 88.285156 928.285156 78.785156 940 78.785156 C 951.714844 78.785156 961.214844 88.285156 961.214844 100 "/>
<path style="fill-rule:nonzero;fill:rgb(53%,27%,7%);fill-opacity:1;stroke-width:1;stroke-linecap:butt;stroke-linejoin:miter;stroke:rgb(0%,0%,0%);stroke-opacity:1;stroke-miterlimit:10;" d="M 849.214844 308 C 849.214844 319.714844 839.714844 329.214844 828 329.214844 C 816.285156 329.214844 806.785156 319.714844 806.785156 308 C 806.785156 296.285156 816.285156 286.785156 828 286.785156 C 839.714844 286.785156 849.214844 296.285156 849.214844 308 "/>
<path style="fill-rule:nonzero;fill:rgb(53%,27%,7%);fill-opacity:1;stroke-width:1;stroke-linecap:butt;stroke-linejoin:miter;stroke:rgb(0%,0%,0%);stroke-opacity:1;stroke-miterlimit:10;" d="M 698 311 L 672.019531 356 L 723.980469 356 L 698 311 "/>
</g>
</svg>
