<?xml version="1.0" encoding="UTF-8"?>
<svg xmlns="http://www.w3.org/2000/svg" xmlns:xlink="http://www.w3.org/1999/xlink" width="1179pt" height="517pt" viewBox="0 0 1179 517" version="1.1">
<g id="surface776">
<rect x="0" y="0" width="1179" height="517" style="fill:rgb(90%,90%,90%);fill-opacity:1;stroke:none;"/>
<path style="fill-rule:nonzero;fill:rgb(35%,70%,90%);fill-opacity:1;stroke-width:1;stroke-linecap:butt;stroke-linejoin:miter;stroke:rgb(0%,0%,0%);stroke-opacity:1;stroke-miterlimit:10;" d="M 440 128 L 469.664062 128 L 481.664062 99.785156 L 493.664062 128 L 523.332031 128 L 499.332031 145.4375 L 507.417969 176.980469 L 481.664062 159.542969 L 455.914062 176.980469 L 468.214844 145.4375 L 440 128 "/>
<path style="fill-rule:nonzero;fill:rgb(35%,70%,90%);fill-opacity:1;stroke-width:1;stroke-linecap:butt;stroke-linejoin:miter;stroke:rgb(0%,0%,0%);stroke-opacity:1;stroke-miterlimit:10;" d="M 82 432 L 111.664062 432 L 123.664062 403.785156 L 135.664062 432 L 165.332031 432 L 141.332031 449.4375 L 149.417969 480.980469 L 123.664062 463.542969 L 97.914062 480.980469 L 110.214844 449.4375 L 82 432 "/>
<path style="fill-rule:nonzero;fill:rgb(35%,70%,90%);fill-opacity:1;stroke-width:1;stroke-linecap:butt;stroke-linejoin:miter;stroke:rgb(0%,0%,0%);stroke-opacity:1;stroke-miterlimit:10;" d="M 641 280 L 670.664062 280 L 682.664062 251.785156 L 694.664062 280 L 724.332031 280 L 700.332031 297.4375 L 708.417969 328.980469 L 682.664062 311.542969 L 656.914062 328.980469 L 669.214844 297.4375 L 641 280 "/>
<path style="fill-rule:nonzero;fill:rgb(35%,70%,90%);fill-opacity:1;stroke-width:1;stroke-linecap:butt;stroke-linejoin:miter;stroke:rgb(0%,0%,0%);stroke-opacity:1;stroke-miterlimit:10;" d="M 854 400 L 883.664062 400 L 895.664062 371.785156 L 907.664062 400 L 937.332031 400 L 913.332031 417.4375 L 921.417969 448.980469 L 895.664062 431.542969 L 869.914062 448.980469 L 882.214844 417.4375 L 854 400 "/>
<path style="fill-rule:nonzero;fill:rgb(35%,70%,90%);fill-opacity:1;stroke-width:1;stroke-linecap:butt;stroke-linejoin:miter;stroke:rgb(0%,0%,0%);stroke-opacity:1;stroke-miterlimit:10;" d="M 149 184 L 178.664062 184 L 190.664062 155.785156 L 202.664062 184 L 232.332031 184 L 208.332031 201.4375 L 216.417969 232.980469 L 190.664062 215.542969 L 164.914062 232.980469 L 177.214844 201.4375 L 149 184 "/>
<path style="fill-rule:nonzero;fill:rgb(55%,51%,53%);fill-opacity:1;stroke-width:1;stroke-linecap:butt;stroke-linejoin:miter;stroke:rgb(0%,0%,0%);stroke-opacity:1;stroke-miterlimit:10;" d="M 279.214844 91 C 279.214844 102.714844 269.714844 112.214844 258 112.214844 C 246.285156 112.214844 236.785156 102.714844 236.785156 91 C 236.785156 79.285156 246.285156 69.785156 258 69.785156 C 269.714844 69.785156 279.214844 79.285156 279.214844 91 "/>
<path style="fill-rule:nonzero;fill:rgb(55%,51%,53%);fill-opacity:1;stroke-width:1;stroke-linecap:butt;stroke-linejoin:miter;stroke:rgb(0%,0%,0%);stroke-opacity:1;stroke-miterlimit:10;" d="M 520.214844 341 C 520.214844 352.714844 510.714844 362.214844 499 362.214844 C 487.285156 362.214844 477.785156 352.714844 477.785156 341 C 477.785156 329.285156 487.285156 319.785156 499 319.785156 C 510.714844 319.785156 520.214844 329.285156 520.214844 341 "/>
<path style="fill-rule:nonzero;fill:rgb(55%,51%,53%);fill-opacity:1;stroke-width:1;stroke-linecap:butt;stroke-linejoin:miter;stroke:rgb(0%,0%,0%);stroke-opacity:1;stroke-miterlimit:10;" d="M 380.214844 341 C 380.214844 352.714844 370.714844 362.214844 359 362.214844 C 347.285156 362.214844 337.785156 352.714844 337.785156 341 C 337.785156 329.285156 347.285156 319.785156 359 319.785156 C 370.714844 319.785156 380.214844 329.285156 380.214844 341 "/>
</g>
</svg>
