<?xml version="1.0" encoding="UTF-8"?>
<svg xmlns="http://www.w3.org/2000/svg" xmlns:xlink="http://www.w3.org/1999/xlink" width="1179pt" height="517pt" viewBox="0 0 1179 517" version="1.1">
<g id="surface1216">
<rect x="0" y="0" width="1179" height="517" style="fill:rgb(90%,90%,90%);fill-opacity:1;stroke:none;"/>
<path style="fill-rule:nonzero;fill:rgb(35%,70%,90%);fill-opacity:1;stroke-width:1;stroke-linecap:butt;stroke-linejoin:miter;stroke:rgb(0%,0%,0%);stroke-opacity:1;stroke-miterlimit:10;" d="M 284 295.601562 C 284 281.199219 260 281.199219 260 295.601562 C 260 310 284 312.398438 284 324.398438 C 284 312.398438 308 310 308 295.601562 C 308 281.199219 284 281.199219 284 295.601562 "/>
<path style="fill-rule:nonzero;fill:rgb(35%,70%,90%);fill-opacity:1;stroke-width:1;stroke-linecap:butt;stroke-linejoin:miter;stroke:rgb(0%,0%,0%);stroke-opacity:1;stroke-miterlimit:10;" d="M 700 321.601562 C 700 307.199219 676 307.199219 676 321.601562 C 676 336 700 338.398438 700 350.398438 C 700 338.398438 724 336 724 321.601562 C 724 307.199219 700 307.199219 700 321.601562 "/>
<path style="fill-rule:nonzero;fill:rgb(35%,70%,90%);fill-opacity:1;stroke-width:1;stroke-linecap:butt;stroke-linejoin:miter;stroke:rgb(0%,0%,0%);stroke-opacity:1;stroke-miterlimit:10;" d="M 552 319.601562 C 552 305.199219 528 305.199219 528 319.601562 C 528 334 552 336.398438 552 348.398438 C 552 336.398438 576 334 576 319.601562 C 576 305.199219 552 305.199219 552 319.601562 "/>
<path style="fill-rule:nonzero;fill:rgb(35%,70%,90%);fill-opacity:1;stroke-width:1;stroke-linecap:butt;stroke-linejoin:miter;stroke:rgb(0%,0%,0%);stroke-opacity:1;stroke-miterlimit:10;" d="M 224 91.601562 C 224 77.199219 200 77.199219 200 91.601562 C 200 106 224 108.398438 224 120.398438 C 224 108.398438 248 106 248 91.601562 C 248 77.199219 224 77.199219 224 91.601562 "/>
<path style="fill-rule:nonzero;fill:rgb(35%,70%,90%);fill-opacity:1;stroke-width:1;stroke-linecap:butt;stroke-linejoin:miter;stroke:rgb(0%,0%,0%);stroke-opacity:1;stroke-miterlimit:10;" d="M 402 82.601562 C 402 68.199219 378 68.199219 378 82.601562 C 378 97 402 99.398438 402 111.398438 C 402 99.398438 426 97 426 82.601562 C 426 68.199219 402 68.199219 402 82.601562 "/>
<path style="fill-rule:nonzero;fill:rgb(53%,27%,7%);fill-opacity:1;stroke-width:1;stroke-linecap:butt;stroke-linejoin:miter;stroke:rgb(0%,0%,0%);stroke-opacity:1;stroke-miterlimit:10;" d="M 107.214844 110 C 107.214844 121.714844 97.714844 131.214844 86 131.214844 C 74.285156 131.214844 64.785156 121.714844 64.785156 110 C 64.785156 98.285156 74.285156 88.785156 86 88.785156 C 97.714844 88.785156 107.214844 98.285156 107.214844 110 "/>
<path style="fill-rule:nonzero;fill:rgb(53%,27%,7%);fill-opacity:1;stroke-width:1;stroke-linecap:butt;stroke-linejoin:miter;stroke:rgb(0%,0%,0%);stroke-opacity:1;stroke-miterlimit:10;" d="M 768.214844 94 C 768.214844 105.714844 758.714844 115.214844 747 115.214844 C 735.285156 115.214844 725.785156 105.714844 725.785156 94 C 725.785156 82.285156 735.285156 72.785156 747 72.785156 C 758.714844 72.785156 768.214844 82.285156 768.214844 94 "/>
<path style="fill-rule:nonzero;fill:rgb(53%,27%,7%);fill-opacity:1;stroke-width:1;stroke-linecap:butt;stroke-linejoin:miter;stroke:rgb(0%,0%,0%);stroke-opacity:1;stroke-miterlimit:10;" d="M 820.214844 232 C 820.214844 243.714844 810.714844 253.214844 799 253.214844 C 787.285156 253.214844 777.785156 243.714844 777.785156 232 C 777.785156 220.285156 787.285156 210.785156 799 210.785156 C 810.714844 210.785156 820.214844 220.285156 820.214844 232 "/>
</g>
</svg>
