<?xml version="1.0" encoding="UTF-8"?>
<svg xmlns="http://www.w3.org/2000/svg" xmlns:xlink="http://www.w3.org/1999/xlink" width="1179pt" height="517pt" viewBox="0 0 1179 517" version="1.1">
<g id="surface936">
<rect x="0" y="0" width="1179" height="517" style="fill:rgb(90%,90%,90%);fill-opacity:1;stroke:none;"/>
<path style="fill-rule:nonzero;fill:rgb(100%,0%,0%);fill-opacity:1;stroke-width:1;stroke-linecap:butt;stroke-linejoin:miter;stroke:rgb(0%,0%,0%);stroke-opacity:1;stroke-miterlimit:10;" d="M 641 249.601562 C 641 235.199219 617 235.199219 617 249.601562 C 617 264 641 266.398438 641 278.398438 C 641 266.398438 665 264 665 249.601562 C 665 235.199219 641 235.199219 641 249.601562 "/>
<path style="fill-rule:nonzero;fill:rgb(100%,0%,0%);fill-opacity:1;stroke-width:1;stroke-linecap:butt;stroke-linejoin:miter;stroke:rgb(0%,0%,0%);stroke-opacity:1;stroke-miterlimit:10;" d="M 946 80.601562 C 946 66.199219 922 66.199219 922 80.601562 C 922 95 946 97.398438 946 109.398438 C 946 97.398438 970 95 970 80.601562 C 970 66.199219 946 66.199219 946 80.601562 "/>
<path style="fill-rule:nonzero;fill:rgb(100%,0%,0%);fill-opacity:1;stroke-width:1;stroke-linecap:butt;stroke-linejoin:miter;stroke:rgb(0%,0%,0%);stroke-opacity:1;stroke-miterlimit:10;" d="M 633 75.601562 C 633 61.199219 609 61.199219 609 75.601562 C 609 90 633 92.398438 633 104.398438 C 633 92.398438 657 90 657 75.601562 C 657 61.199219 633 61.199219 633 75.601562 "/>
<path style="fill-rule:nonzero;fill:rgb(100%,0%,0%);fill-opacity:1;stroke-width:1;stroke-linecap:butt;stroke-linejoin:miter;stroke:rgb(0%,0%,0%);stroke-opacity:1;stroke-miterlimit:10;" d="M 974 317.601562 C 974 303.199219 950 303.199219 950 317.601562 C 950 332 974 334.398438 974 346.398438 C 974 334.398438 998 332 998 317.601562 C 998 303.199219 974 303.199219 974 317.601562 "/>
<path style="fill-rule:nonzero;fill:rgb(100%,0%,0%);fill-opacity:1;stroke-width:1;stroke-linecap:butt;stroke-linejoin:miter;stroke:rgb(0%,0%,0%);stroke-opacity:1;stroke-miterlimit:10;" d="M 487 248.601562 C 487 234.199219 463 234.199219 463 248.601562 C 463 263 487 265.398438 487 277.398438 C 487 265.398438 511 263 511 248.601562 C 511 234.199219 487 234.199219 487 248.601562 "/>
<path style="fill-rule:nonzero;fill:rgb(0%,0%,0%);fill-opacity:1;stroke-width:1;stroke-linecap:butt;stroke-linejoin:miter;stroke:rgb(0%,0%,0%);stroke-opacity:1;stroke-miterlimit:10;" d="M 502 418 L 482 418 L 482 428 L 502 428 L 502 448 L 512 448 L 512 428 L 532 428 L 532 418 L 512 418 L 512 398 L 502 398 L 502 418 "/>
<path style="fill-rule:nonzero;fill:rgb(0%,0%,0%);fill-opacity:1;stroke-width:1;stroke-linecap:butt;stroke-linejoin:miter;stroke:rgb(0%,0%,0%);stroke-opacity:1;stroke-miterlimit:10;" d="M 134 105 L 114 105 L 114 115 L 134 115 L 134 135 L 144 135 L 144 115 L 164 115 L 164 105 L 144 105 L 144 85 L 134 85 L 134 105 "/>
<path style="fill-rule:nonzero;fill:rgb(0%,0%,0%);fill-opacity:1;stroke-width:1;stroke-linecap:butt;stroke-linejoin:miter;stroke:rgb(0%,0%,0%);stroke-opacity:1;stroke-miterlimit:10;" d="M 801 367 L 781 367 L 781 377 L 801 377 L 801 397 L 811 397 L 811 377 L 831 377 L 831 367 L 811 367 L 811 347 L 801 347 L 801 367 "/>
</g>
</svg>
