<?xml version="1.0" encoding="UTF-8"?>
<svg xmlns="http://www.w3.org/2000/svg" xmlns:xlink="http://www.w3.org/1999/xlink" width="1179pt" height="517pt" viewBox="0 0 1179 517" version="1.1">
<g id="surface76">
<rect x="0" y="0" width="1179" height="517" style="fill:rgb(90%,90%,90%);fill-opacity:1;stroke:none;"/>
<path style="fill-rule:nonzero;fill:rgb(35%,70%,90%);fill-opacity:1;stroke-width:1;stroke-linecap:butt;stroke-linejoin:miter;stroke:rgb(0%,0%,0%);stroke-opacity:1;stroke-miterlimit:10;" d="M 287.214844 174 C 287.214844 185.714844 277.714844 195.214844 266 195.214844 C 254.285156 195.214844 244.785156 185.714844 244.785156 174 C 244.785156 162.285156 254.285156 152.785156 266 152.785156 C 277.714844 152.785156 287.214844 162.285156 287.214844 174 "/>
<path style="fill-rule:nonzero;fill:rgb(35%,70%,90%);fill-opacity:1;stroke-width:1;stroke-linecap:butt;stroke-linejoin:miter;stroke:rgb(0%,0%,0%);stroke-opacity:1;stroke-miterlimit:10;" d="M 439.214844 427 C 439.214844 438.714844 429.714844 448.214844 418 448.214844 C 406.285156 448.214844 396.785156 438.714844 396.785156 427 C 396.785156 415.285156 406.285156 405.785156 418 405.785156 C 429.714844 405.785156 439.214844 415.285156 439.214844 427 "/>
<path style="fill-rule:nonzero;fill:rgb(35%,70%,90%);fill-opacity:1;stroke-width:1;stroke-linecap:butt;stroke-linejoin:miter;stroke:rgb(0%,0%,0%);stroke-opacity:1;stroke-miterlimit:10;" d="M 169 69 L 143.019531 114 L 194.980469 114 L 169 69 "/>
<path style="fill-rule:nonzero;fill:rgb(55%,51%,53%);fill-opacity:1;stroke-width:1;stroke-linecap:butt;stroke-linejoin:miter;stroke:rgb(0%,0%,0%);stroke-opacity:1;stroke-miterlimit:10;" d="M 1000 166 L 974.019531 211 L 1025.980469 211 L 1000 166 "/>
<path style="fill-rule:nonzero;fill:rgb(55%,51%,53%);fill-opacity:1;stroke-width:1;stroke-linecap:butt;stroke-linejoin:miter;stroke:rgb(0%,0%,0%);stroke-opacity:1;stroke-miterlimit:10;" d="M 844 212 L 818.019531 257 L 869.980469 257 L 844 212 "/>
<path style="fill-rule:nonzero;fill:rgb(55%,51%,53%);fill-opacity:1;stroke-width:1;stroke-linecap:butt;stroke-linejoin:miter;stroke:rgb(0%,0%,0%);stroke-opacity:1;stroke-miterlimit:10;" d="M 746.214844 198 C 746.214844 209.714844 736.714844 219.214844 725 219.214844 C 713.285156 219.214844 703.785156 209.714844 703.785156 198 C 703.785156 186.285156 713.285156 176.785156 725 176.785156 C 736.714844 176.785156 746.214844 186.285156 746.214844 198 "/>
</g>
</svg>
