<?xml version="1.0" encoding="UTF-8"?>
<svg xmlns="http://www.w3.org/2000/svg" xmlns:xlink="http://www.w3.org/1999/xlink" width="1179pt" height="517pt" viewBox="0 0 1179 517" version="1.1">
<g id="surface666">
<rect x="0" y="0" width="1179" height="517" style="fill:rgb(90%,90%,90%);fill-opacity:1;stroke:none;"/>
<path style="fill-rule:nonzero;fill:rgb(100%,51%,0%);fill-opacity:1;stroke-width:1;stroke-linecap:butt;stroke-linejoin:miter;stroke:rgb(0%,0%,0%);stroke-opacity:1;stroke-miterlimit:10;" d="M 468 137 L 497.664062 137 L 509.664062 108.785156 L 521.664062 137 L 551.332031 137 L 527.332031 154.4375 L 535.417969 185.980469 L 509.664062 168.542969 L 483.914062 185.980469 L 496.214844 154.4375 L 468 137 "/>
<path style="fill-rule:nonzero;fill:rgb(100%,51%,0%);fill-opacity:1;stroke-width:1;stroke-linecap:butt;stroke-linejoin:miter;stroke:rgb(0%,0%,0%);stroke-opacity:1;stroke-miterlimit:10;" d="M 219 223 L 248.664062 223 L 260.664062 194.785156 L 272.664062 223 L 302.332031 223 L 278.332031 240.4375 L 286.417969 271.980469 L 260.664062 254.542969 L 234.914062 271.980469 L 247.214844 240.4375 L 219 223 "/>
<path style="fill-rule:nonzero;fill:rgb(100%,51%,0%);fill-opacity:1;stroke-width:1;stroke-linecap:butt;stroke-linejoin:miter;stroke:rgb(0%,0%,0%);stroke-opacity:1;stroke-miterlimit:10;" d="M 1013 287 L 1042.664062 287 L 1054.664062 258.785156 L 1066.664062 287 L 1096.332031 287 L 1072.332031 304.4375 L 1080.417969 335.980469 L 1054.664062 318.542969 L 1028.914062 335.980469 L 1041.214844 304.4375 L 1013 287 "/>
<path style="fill-rule:nonzero;fill:rgb(100%,51%,0%);fill-opacity:1;stroke-width:1;stroke-linecap:butt;stroke-linejoin:miter;stroke:rgb(0%,0%,0%);stroke-opacity:1;stroke-miterlimit:10;" d="M 546 351 L 575.664062 351 L 587.664062 322.785156 L 599.664062 351 L 629.332031 351 L 605.332031 368.4375 L 613.417969 399.980469 L 587.664062 382.542969 L 561.914062 399.980469 L 574.214844 368.4375 L 546 351 "/>
<path style="fill-rule:nonzero;fill:rgb(100%,51%,0%);fill-opacity:1;stroke-width:1;stroke-linecap:butt;stroke-linejoin:miter;stroke:rgb(0%,0%,0%);stroke-opacity:1;stroke-miterlimit:10;" d="M 1006 92 L 1035.664062 92 L 1047.664062 63.785156 L 1059.664062 92 L 1089.332031 92 L 1065.332031 109.4375 L 1073.417969 140.980469 L 1047.664062 123.542969 L 1021.914062 140.980469 L 1034.214844 109.4375 L 1006 92 "/>
<path style="fill-rule:nonzero;fill:rgb(55%,51%,53%);fill-opacity:1;stroke-width:1;stroke-linecap:butt;stroke-linejoin:miter;stroke:rgb(0%,0%,0%);stroke-opacity:1;stroke-miterlimit:10;" d="M 871 304 L 845.019531 349 L 896.980469 349 L 871 304 "/>
<path style="fill-rule:nonzero;fill:rgb(55%,51%,53%);fill-opacity:1;stroke-width:1;stroke-linecap:butt;stroke-linejoin:miter;stroke:rgb(0%,0%,0%);stroke-opacity:1;stroke-miterlimit:10;" d="M 641 111 L 615.019531 156 L 666.980469 156 L 641 111 "/>
<path style="fill-rule:nonzero;fill:rgb(55%,51%,53%);fill-opacity:1;stroke-width:1;stroke-linecap:butt;stroke-linejoin:miter;stroke:rgb(0%,0%,0%);stroke-opacity:1;stroke-miterlimit:10;" d="M 674 334 L 648.019531 379 L 699.980469 379 L 674 334 "/>
</g>
</svg>
