<?xml version="1.0" encoding="UTF-8"?>
<svg xmlns="http://www.w3.org/2000/svg" xmlns:xlink="http://www.w3.org/1999/xlink" width="1179pt" height="517pt" viewBox="0 0 1179 517" version="1.1">
<g id="surface1351">
<rect x="0" y="0" width="1179" height="517" style="fill:rgb(90%,90%,90%);fill-opacity:1;stroke:none;"/>
<path style="fill-rule:nonzero;fill:rgb(53%,27%,7%);fill-opacity:1;stroke-width:1;stroke-linecap:butt;stroke-linejoin:miter;stroke:rgb(0%,0%,0%);stroke-opacity:1;stroke-miterlimit:10;" d="M 199.214844 409 C 199.214844 420.714844 189.714844 430.214844 178 430.214844 C 166.285156 430.214844 156.785156 420.714844 156.785156 409 C 156.785156 397.285156 166.285156 387.785156 178 387.785156 C 189.714844 387.785156 199.214844 397.285156 199.214844 409 "/>
<path style="fill-rule:nonzero;fill:rgb(53%,27%,7%);fill-opacity:1;stroke-width:1;stroke-linecap:butt;stroke-linejoin:miter;stroke:rgb(0%,0%,0%);stroke-opacity:1;stroke-miterlimit:10;" d="M 208.214844 85 C 208.214844 96.714844 198.714844 106.214844 187 106.214844 C 175.285156 106.214844 165.785156 96.714844 165.785156 85 C 165.785156 73.285156 175.285156 63.785156 187 63.785156 C 198.714844 63.785156 208.214844 73.285156 208.214844 85 "/>
<path style="fill-rule:nonzero;fill:rgb(53%,27%,7%);fill-opacity:1;stroke-width:1;stroke-linecap:butt;stroke-linejoin:miter;stroke:rgb(0%,0%,0%);stroke-opacity:1;stroke-miterlimit:10;" d="M 356.214844 296 C 356.214844 307.714844 346.714844 317.214844 335 317.214844 C 323.285156 317.214844 313.785156 307.714844 313.785156 296 C 313.785156 284.285156 323.285156 274.785156 335 274.785156 C 346.714844 274.785156 356.214844 284.285156 356.214844 296 "/>
<path style="fill-rule:nonzero;fill:rgb(53%,27%,7%);fill-opacity:1;stroke-width:1;stroke-linecap:butt;stroke-linejoin:miter;stroke:rgb(0%,0%,0%);stroke-opacity:1;stroke-miterlimit:10;" d="M 531.214844 354 C 531.214844 365.714844 521.714844 375.214844 510 375.214844 C 498.285156 375.214844 488.785156 365.714844 488.785156 354 C 488.785156 342.285156 498.285156 332.785156 510 332.785156 C 521.714844 332.785156 531.214844 342.285156 531.214844 354 "/>
<path style="fill-rule:nonzero;fill:rgb(53%,27%,7%);fill-opacity:1;stroke-width:1;stroke-linecap:butt;stroke-linejoin:miter;stroke:rgb(0%,0%,0%);stroke-opacity:1;stroke-miterlimit:10;" d="M 718.214844 82 C 718.214844 93.714844 708.714844 103.214844 697 103.214844 C 685.285156 103.214844 675.785156 93.714844 675.785156 82 C 675.785156 70.285156 685.285156 60.785156 697 60.785156 C 708.714844 60.785156 718.214844 70.285156 718.214844 82 "/>
<path style="fill-rule:nonzero;fill:rgb(100%,51%,0%);fill-opacity:1;stroke-width:1;stroke-linecap:butt;stroke-linejoin:miter;stroke:rgb(0%,0%,0%);stroke-opacity:1;stroke-miterlimit:10;" d="M 837 156 L 866.664062 156 L 878.664062 127.785156 L 890.664062 156 L 920.332031 156 L 896.332031 173.4375 L 904.417969 204.980469 L 878.664062 187.542969 L 852.914062 204.980469 L 865.214844 173.4375 L 837 156 "/>
<path style="fill-rule:nonzero;fill:rgb(100%,51%,0%);fill-opacity:1;stroke-width:1;stroke-linecap:butt;stroke-linejoin:miter;stroke:rgb(0%,0%,0%);stroke-opacity:1;stroke-miterlimit:10;" d="M 286 167 L 315.664062 167 L 327.664062 138.785156 L 339.664062 167 L 369.332031 167 L 345.332031 184.4375 L 353.417969 215.980469 L 327.664062 198.542969 L 301.914062 215.980469 L 314.214844 184.4375 L 286 167 "/>
<path style="fill-rule:nonzero;fill:rgb(100%,51%,0%);fill-opacity:1;stroke-width:1;stroke-linecap:butt;stroke-linejoin:miter;stroke:rgb(0%,0%,0%);stroke-opacity:1;stroke-miterlimit:10;" d="M 679 409 L 708.664062 409 L 720.664062 380.785156 L 732.664062 409 L 762.332031 409 L 738.332031 426.4375 L 746.417969 457.980469 L 720.664062 440.542969 L 694.914062 457.980469 L 707.214844 426.4375 L 679 409 "/>
<path style="fill-rule:nonzero;fill:rgb(100%,51%,0%);fill-opacity:1;stroke-width:1;stroke-linecap:butt;stroke-linejoin:miter;stroke:rgb(0%,0%,0%);stroke-opacity:1;stroke-miterlimit:10;" d="M 974 149 L 1003.664062 149 L 1015.664062 120.785156 L 1027.664062 149 L 1057.332031 149 L 1033.332031 166.4375 L 1041.417969 197.980469 L 1015.664062 180.542969 L 989.914062 197.980469 L 1002.214844 166.4375 L 974 149 "/>
<path style="fill-rule:nonzero;fill:rgb(100%,51%,0%);fill-opacity:1;stroke-width:1;stroke-linecap:butt;stroke-linejoin:miter;stroke:rgb(0%,0%,0%);stroke-opacity:1;stroke-miterlimit:10;" d="M 567 136 L 596.664062 136 L 608.664062 107.785156 L 620.664062 136 L 650.332031 136 L 626.332031 153.4375 L 634.417969 184.980469 L 608.664062 167.542969 L 582.914062 184.980469 L 595.214844 153.4375 L 567 136 "/>
</g>
</svg>
