<?xml version="1.0" encoding="UTF-8"?>
<svg xmlns="http://www.w3.org/2000/svg" xmlns:xlink="http://www.w3.org/1999/xlink" width="1179pt" height="517pt" viewBox="0 0 1179 517" version="1.1">
<g id="surface521">
<rect x="0" y="0" width="1179" height="517" style="fill:rgb(90%,90%,90%);fill-opacity:1;stroke:none;"/>
<path style="fill-rule:nonzero;fill:rgb(55%,51%,53%);fill-opacity:1;stroke-width:1;stroke-linecap:butt;stroke-linejoin:miter;stroke:rgb(0%,0%,0%);stroke-opacity:1;stroke-miterlimit:10;" d="M 411 284 L 440.664062 284 L 452.664062 255.785156 L 464.664062 284 L 494.332031 284 L 470.332031 301.4375 L 478.417969 332.980469 L 452.664062 315.542969 L 426.914062 332.980469 L 439.214844 301.4375 L 411 284 "/>
<path style="fill-rule:nonzero;fill:rgb(55%,51%,53%);fill-opacity:1;stroke-width:1;stroke-linecap:butt;stroke-linejoin:miter;stroke:rgb(0%,0%,0%);stroke-opacity:1;stroke-miterlimit:10;" d="M 203.785156 344.785156 L 203.785156 387.214844 L 246.214844 387.214844 L 246.214844 344.785156 L 203.785156 344.785156 "/>
<path style="fill-rule:nonzero;fill:rgb(55%,51%,53%);fill-opacity:1;stroke-width:1;stroke-linecap:butt;stroke-linejoin:miter;stroke:rgb(0%,0%,0%);stroke-opacity:1;stroke-miterlimit:10;" d="M 102 315 L 131.664062 315 L 143.664062 286.785156 L 155.664062 315 L 185.332031 315 L 161.332031 332.4375 L 169.417969 363.980469 L 143.664062 346.542969 L 117.914062 363.980469 L 130.214844 332.4375 L 102 315 "/>
<path style="fill-rule:nonzero;fill:rgb(53%,27%,7%);fill-opacity:1;stroke-width:1;stroke-linecap:butt;stroke-linejoin:miter;stroke:rgb(0%,0%,0%);stroke-opacity:1;stroke-miterlimit:10;" d="M 874.785156 71.785156 L 874.785156 114.214844 L 917.214844 114.214844 L 917.214844 71.785156 L 874.785156 71.785156 "/>
<path style="fill-rule:nonzero;fill:rgb(53%,27%,7%);fill-opacity:1;stroke-width:1;stroke-linecap:butt;stroke-linejoin:miter;stroke:rgb(0%,0%,0%);stroke-opacity:1;stroke-miterlimit:10;" d="M 973 159 L 1002.664062 159 L 1014.664062 130.785156 L 1026.664062 159 L 1056.332031 159 L 1032.332031 176.4375 L 1040.417969 207.980469 L 1014.664062 190.542969 L 988.914062 207.980469 L 1001.214844 176.4375 L 973 159 "/>
<path style="fill-rule:nonzero;fill:rgb(53%,27%,7%);fill-opacity:1;stroke-width:1;stroke-linecap:butt;stroke-linejoin:miter;stroke:rgb(0%,0%,0%);stroke-opacity:1;stroke-miterlimit:10;" d="M 864.785156 351.785156 L 864.785156 394.214844 L 907.214844 394.214844 L 907.214844 351.785156 L 864.785156 351.785156 "/>
<path style="fill-rule:nonzero;fill:rgb(53%,27%,7%);fill-opacity:1;stroke-width:1;stroke-linecap:butt;stroke-linejoin:miter;stroke:rgb(0%,0%,0%);stroke-opacity:1;stroke-miterlimit:10;" d="M 751.785156 291.785156 L 751.785156 334.214844 L 794.214844 334.214844 L 794.214844 291.785156 L 751.785156 291.785156 "/>
<path style="fill-rule:nonzero;fill:rgb(53%,27%,7%);fill-opacity:1;stroke-width:1;stroke-linecap:butt;stroke-linejoin:miter;stroke:rgb(0%,0%,0%);stroke-opacity:1;stroke-miterlimit:10;" d="M 684.785156 366.785156 L 684.785156 409.214844 L 727.214844 409.214844 L 727.214844 366.785156 L 684.785156 366.785156 "/>
</g>
</svg>
