<?xml version="1.0" encoding="UTF-8"?>
<svg xmlns="http://www.w3.org/2000/svg" xmlns:xlink="http://www.w3.org/1999/xlink" width="1179pt" height="517pt" viewBox="0 0 1179 517" version="1.1">
<g id="surface696">
<rect x="0" y="0" width="1179" height="517" style="fill:rgb(90%,90%,90%);fill-opacity:1;stroke:none;"/>
<path style="fill-rule:nonzero;fill:rgb(55%,51%,53%);fill-opacity:1;stroke-width:1;stroke-linecap:butt;stroke-linejoin:miter;stroke:rgb(0%,0%,0%);stroke-opacity:1;stroke-miterlimit:10;" d="M 410 318 L 439.664062 318 L 451.664062 289.785156 L 463.664062 318 L 493.332031 318 L 469.332031 335.4375 L 477.417969 366.980469 L 451.664062 349.542969 L 425.914062 366.980469 L 438.214844 335.4375 L 410 318 "/>
<path style="fill-rule:nonzero;fill:rgb(55%,51%,53%);fill-opacity:1;stroke-width:1;stroke-linecap:butt;stroke-linejoin:miter;stroke:rgb(0%,0%,0%);stroke-opacity:1;stroke-miterlimit:10;" d="M 1041 104 L 1070.664062 104 L 1082.664062 75.785156 L 1094.664062 104 L 1124.332031 104 L 1100.332031 121.4375 L 1108.417969 152.980469 L 1082.664062 135.542969 L 1056.914062 152.980469 L 1069.214844 121.4375 L 1041 104 "/>
<path style="fill-rule:nonzero;fill:rgb(55%,51%,53%);fill-opacity:1;stroke-width:1;stroke-linecap:butt;stroke-linejoin:miter;stroke:rgb(0%,0%,0%);stroke-opacity:1;stroke-miterlimit:10;" d="M 133 281 L 162.664062 281 L 174.664062 252.785156 L 186.664062 281 L 216.332031 281 L 192.332031 298.4375 L 200.417969 329.980469 L 174.664062 312.542969 L 148.914062 329.980469 L 161.214844 298.4375 L 133 281 "/>
<path style="fill-rule:nonzero;fill:rgb(55%,51%,53%);fill-opacity:1;stroke-width:1;stroke-linecap:butt;stroke-linejoin:miter;stroke:rgb(0%,0%,0%);stroke-opacity:1;stroke-miterlimit:10;" d="M 1040 351 L 1069.664062 351 L 1081.664062 322.785156 L 1093.664062 351 L 1123.332031 351 L 1099.332031 368.4375 L 1107.417969 399.980469 L 1081.664062 382.542969 L 1055.914062 399.980469 L 1068.214844 368.4375 L 1040 351 "/>
<path style="fill-rule:nonzero;fill:rgb(53%,27%,7%);fill-opacity:1;stroke-width:1;stroke-linecap:butt;stroke-linejoin:miter;stroke:rgb(0%,0%,0%);stroke-opacity:1;stroke-miterlimit:10;" d="M 538 189 L 512.019531 234 L 563.980469 234 L 538 189 "/>
<path style="fill-rule:nonzero;fill:rgb(53%,27%,7%);fill-opacity:1;stroke-width:1;stroke-linecap:butt;stroke-linejoin:miter;stroke:rgb(0%,0%,0%);stroke-opacity:1;stroke-miterlimit:10;" d="M 938 215 L 912.019531 260 L 963.980469 260 L 938 215 "/>
<path style="fill-rule:nonzero;fill:rgb(53%,27%,7%);fill-opacity:1;stroke-width:1;stroke-linecap:butt;stroke-linejoin:miter;stroke:rgb(0%,0%,0%);stroke-opacity:1;stroke-miterlimit:10;" d="M 325 198 L 299.019531 243 L 350.980469 243 L 325 198 "/>
<path style="fill-rule:nonzero;fill:rgb(53%,27%,7%);fill-opacity:1;stroke-width:1;stroke-linecap:butt;stroke-linejoin:miter;stroke:rgb(0%,0%,0%);stroke-opacity:1;stroke-miterlimit:10;" d="M 576 59 L 550.019531 104 L 601.980469 104 L 576 59 "/>
</g>
</svg>
