<?xml version="1.0" encoding="UTF-8"?>
<svg xmlns="http://www.w3.org/2000/svg" xmlns:xlink="http://www.w3.org/1999/xlink" width="1179pt" height="517pt" viewBox="0 0 1179 517" version="1.1">
<g id="surface996">
<rect x="0" y="0" width="1179" height="517" style="fill:rgb(90%,90%,90%);fill-opacity:1;stroke:none;"/>
<path style="fill-rule:nonzero;fill:rgb(55%,51%,53%);fill-opacity:1;stroke-width:1;stroke-linecap:butt;stroke-linejoin:miter;stroke:rgb(0%,0%,0%);stroke-opacity:1;stroke-miterlimit:10;" d="M 442 98 L 416.019531 143 L 467.980469 143 L 442 98 "/>
<path style="fill-rule:nonzero;fill:rgb(55%,51%,53%);fill-opacity:1;stroke-width:1;stroke-linecap:butt;stroke-linejoin:miter;stroke:rgb(0%,0%,0%);stroke-opacity:1;stroke-miterlimit:10;" d="M 267 370 L 241.019531 415 L 292.980469 415 L 267 370 "/>
<path style="fill-rule:nonzero;fill:rgb(55%,51%,53%);fill-opacity:1;stroke-width:1;stroke-linecap:butt;stroke-linejoin:miter;stroke:rgb(0%,0%,0%);stroke-opacity:1;stroke-miterlimit:10;" d="M 799 200 L 773.019531 245 L 824.980469 245 L 799 200 "/>
<path style="fill-rule:nonzero;fill:rgb(55%,51%,53%);fill-opacity:1;stroke-width:1;stroke-linecap:butt;stroke-linejoin:miter;stroke:rgb(0%,0%,0%);stroke-opacity:1;stroke-miterlimit:10;" d="M 965 86 L 939.019531 131 L 990.980469 131 L 965 86 "/>
<path style="fill-rule:nonzero;fill:rgb(55%,51%,53%);fill-opacity:1;stroke-width:1;stroke-linecap:butt;stroke-linejoin:miter;stroke:rgb(0%,0%,0%);stroke-opacity:1;stroke-miterlimit:10;" d="M 560 299 L 534.019531 344 L 585.980469 344 L 560 299 "/>
<path style="fill-rule:nonzero;fill:rgb(35%,70%,90%);fill-opacity:1;stroke-width:1;stroke-linecap:butt;stroke-linejoin:miter;stroke:rgb(0%,0%,0%);stroke-opacity:1;stroke-miterlimit:10;" d="M 219 183 L 248.664062 183 L 260.664062 154.785156 L 272.664062 183 L 302.332031 183 L 278.332031 200.4375 L 286.417969 231.980469 L 260.664062 214.542969 L 234.914062 231.980469 L 247.214844 200.4375 L 219 183 "/>
<path style="fill-rule:nonzero;fill:rgb(35%,70%,90%);fill-opacity:1;stroke-width:1;stroke-linecap:butt;stroke-linejoin:miter;stroke:rgb(0%,0%,0%);stroke-opacity:1;stroke-miterlimit:10;" d="M 360 270 L 389.664062 270 L 401.664062 241.785156 L 413.664062 270 L 443.332031 270 L 419.332031 287.4375 L 427.417969 318.980469 L 401.664062 301.542969 L 375.914062 318.980469 L 388.214844 287.4375 L 360 270 "/>
<path style="fill-rule:nonzero;fill:rgb(35%,70%,90%);fill-opacity:1;stroke-width:1;stroke-linecap:butt;stroke-linejoin:miter;stroke:rgb(0%,0%,0%);stroke-opacity:1;stroke-miterlimit:10;" d="M 959 325 L 988.664062 325 L 1000.664062 296.785156 L 1012.664062 325 L 1042.332031 325 L 1018.332031 342.4375 L 1026.417969 373.980469 L 1000.664062 356.542969 L 974.914062 373.980469 L 987.214844 342.4375 L 959 325 "/>
<path style="fill-rule:nonzero;fill:rgb(35%,70%,90%);fill-opacity:1;stroke-width:1;stroke-linecap:butt;stroke-linejoin:miter;stroke:rgb(0%,0%,0%);stroke-opacity:1;stroke-miterlimit:10;" d="M 786 389 L 815.664062 389 L 827.664062 360.785156 L 839.664062 389 L 869.332031 389 L 845.332031 406.4375 L 853.417969 437.980469 L 827.664062 420.542969 L 801.914062 437.980469 L 814.214844 406.4375 L 786 389 "/>
</g>
</svg>
