<?xml version="1.0" encoding="UTF-8"?>
<svg xmlns="http://www.w3.org/2000/svg" xmlns:xlink="http://www.w3.org/1999/xlink" width="1179pt" height="517pt" viewBox="0 0 1179 517" version="1.1">
<g id="surface766">
<rect x="0" y="0" width="1179" height="517" style="fill:rgb(90%,90%,90%);fill-opacity:1;stroke:none;"/>
<path style="fill-rule:nonzero;fill:rgb(53%,27%,7%);fill-opacity:1;stroke-width:1;stroke-linecap:butt;stroke-linejoin:miter;stroke:rgb(0%,0%,0%);stroke-opacity:1;stroke-miterlimit:10;" d="M 134 288.601562 C 134 274.199219 110 274.199219 110 288.601562 C 110 303 134 305.398438 134 317.398438 C 134 305.398438 158 303 158 288.601562 C 158 274.199219 134 274.199219 134 288.601562 "/>
<path style="fill-rule:nonzero;fill:rgb(53%,27%,7%);fill-opacity:1;stroke-width:1;stroke-linecap:butt;stroke-linejoin:miter;stroke:rgb(0%,0%,0%);stroke-opacity:1;stroke-miterlimit:10;" d="M 403 156.601562 C 403 142.199219 379 142.199219 379 156.601562 C 379 171 403 173.398438 403 185.398438 C 403 173.398438 427 171 427 156.601562 C 427 142.199219 403 142.199219 403 156.601562 "/>
<path style="fill-rule:nonzero;fill:rgb(53%,27%,7%);fill-opacity:1;stroke-width:1;stroke-linecap:butt;stroke-linejoin:miter;stroke:rgb(0%,0%,0%);stroke-opacity:1;stroke-miterlimit:10;" d="M 251 322.601562 C 251 308.199219 227 308.199219 227 322.601562 C 227 337 251 339.398438 251 351.398438 C 251 339.398438 275 337 275 322.601562 C 275 308.199219 251 308.199219 251 322.601562 "/>
<path style="fill-rule:nonzero;fill:rgb(53%,27%,7%);fill-opacity:1;stroke-width:1;stroke-linecap:butt;stroke-linejoin:miter;stroke:rgb(0%,0%,0%);stroke-opacity:1;stroke-miterlimit:10;" d="M 405 339.601562 C 405 325.199219 381 325.199219 381 339.601562 C 381 354 405 356.398438 405 368.398438 C 405 356.398438 429 354 429 339.601562 C 429 325.199219 405 325.199219 405 339.601562 "/>
<path style="fill-rule:nonzero;fill:rgb(53%,27%,7%);fill-opacity:1;stroke-width:1;stroke-linecap:butt;stroke-linejoin:miter;stroke:rgb(0%,0%,0%);stroke-opacity:1;stroke-miterlimit:10;" d="M 576 239.601562 C 576 225.199219 552 225.199219 552 239.601562 C 552 254 576 256.398438 576 268.398438 C 576 256.398438 600 254 600 239.601562 C 600 225.199219 576 225.199219 576 239.601562 "/>
<path style="fill-rule:nonzero;fill:rgb(100%,51%,0%);fill-opacity:1;stroke-width:1;stroke-linecap:butt;stroke-linejoin:miter;stroke:rgb(0%,0%,0%);stroke-opacity:1;stroke-miterlimit:10;" d="M 937.214844 371 C 937.214844 382.714844 927.714844 392.214844 916 392.214844 C 904.285156 392.214844 894.785156 382.714844 894.785156 371 C 894.785156 359.285156 904.285156 349.785156 916 349.785156 C 927.714844 349.785156 937.214844 359.285156 937.214844 371 "/>
<path style="fill-rule:nonzero;fill:rgb(100%,51%,0%);fill-opacity:1;stroke-width:1;stroke-linecap:butt;stroke-linejoin:miter;stroke:rgb(0%,0%,0%);stroke-opacity:1;stroke-miterlimit:10;" d="M 864.214844 224 C 864.214844 235.714844 854.714844 245.214844 843 245.214844 C 831.285156 245.214844 821.785156 235.714844 821.785156 224 C 821.785156 212.285156 831.285156 202.785156 843 202.785156 C 854.714844 202.785156 864.214844 212.285156 864.214844 224 "/>
<path style="fill-rule:nonzero;fill:rgb(100%,51%,0%);fill-opacity:1;stroke-width:1;stroke-linecap:butt;stroke-linejoin:miter;stroke:rgb(0%,0%,0%);stroke-opacity:1;stroke-miterlimit:10;" d="M 620.214844 101 C 620.214844 112.714844 610.714844 122.214844 599 122.214844 C 587.285156 122.214844 577.785156 112.714844 577.785156 101 C 577.785156 89.285156 587.285156 79.785156 599 79.785156 C 610.714844 79.785156 620.214844 89.285156 620.214844 101 "/>
<path style="fill-rule:nonzero;fill:rgb(100%,51%,0%);fill-opacity:1;stroke-width:1;stroke-linecap:butt;stroke-linejoin:miter;stroke:rgb(0%,0%,0%);stroke-opacity:1;stroke-miterlimit:10;" d="M 1038.214844 128 C 1038.214844 139.714844 1028.714844 149.214844 1017 149.214844 C 1005.285156 149.214844 995.785156 139.714844 995.785156 128 C 995.785156 116.285156 1005.285156 106.785156 1017 106.785156 C 1028.714844 106.785156 1038.214844 116.285156 1038.214844 128 "/>
<path style="fill-rule:nonzero;fill:rgb(100%,51%,0%);fill-opacity:1;stroke-width:1;stroke-linecap:butt;stroke-linejoin:miter;stroke:rgb(0%,0%,0%);stroke-opacity:1;stroke-miterlimit:10;" d="M 151.214844 172 C 151.214844 183.714844 141.714844 193.214844 130 193.214844 C 118.285156 193.214844 108.785156 183.714844 108.785156 172 C 108.785156 160.285156 118.285156 150.785156 130 150.785156 C 141.714844 150.785156 151.214844 160.285156 151.214844 172 "/>
</g>
</svg>
