<?xml version="1.0" encoding="UTF-8"?>
<svg xmlns="http://www.w3.org/2000/svg" xmlns:xlink="http://www.w3.org/1999/xlink" width="1179pt" height="517pt" viewBox="0 0 1179 517" version="1.1">
<g id="surface1126">
<rect x="0" y="0" width="1179" height="517" style="fill:rgb(90%,90%,90%);fill-opacity:1;stroke:none;"/>
<path style="fill-rule:nonzero;fill:rgb(35%,70%,90%);fill-opacity:1;stroke-width:1;stroke-linecap:butt;stroke-linejoin:miter;stroke:rgb(0%,0%,0%);stroke-opacity:1;stroke-miterlimit:10;" d="M 87 98.601562 C 87 84.199219 63 84.199219 63 98.601562 C 63 113 87 115.398438 87 127.398438 C 87 115.398438 111 113 111 98.601562 C 111 84.199219 87 84.199219 87 98.601562 "/>
<path style="fill-rule:nonzero;fill:rgb(35%,70%,90%);fill-opacity:1;stroke-width:1;stroke-linecap:butt;stroke-linejoin:miter;stroke:rgb(0%,0%,0%);stroke-opacity:1;stroke-miterlimit:10;" d="M 294 117.601562 C 294 103.199219 270 103.199219 270 117.601562 C 270 132 294 134.398438 294 146.398438 C 294 134.398438 318 132 318 117.601562 C 318 103.199219 294 103.199219 294 117.601562 "/>
<path style="fill-rule:nonzero;fill:rgb(35%,70%,90%);fill-opacity:1;stroke-width:1;stroke-linecap:butt;stroke-linejoin:miter;stroke:rgb(0%,0%,0%);stroke-opacity:1;stroke-miterlimit:10;" d="M 724 249.601562 C 724 235.199219 700 235.199219 700 249.601562 C 700 264 724 266.398438 724 278.398438 C 724 266.398438 748 264 748 249.601562 C 748 235.199219 724 235.199219 724 249.601562 "/>
<path style="fill-rule:nonzero;fill:rgb(35%,70%,90%);fill-opacity:1;stroke-width:1;stroke-linecap:butt;stroke-linejoin:miter;stroke:rgb(0%,0%,0%);stroke-opacity:1;stroke-miterlimit:10;" d="M 1024 331.601562 C 1024 317.199219 1000 317.199219 1000 331.601562 C 1000 346 1024 348.398438 1024 360.398438 C 1024 348.398438 1048 346 1048 331.601562 C 1048 317.199219 1024 317.199219 1024 331.601562 "/>
<path style="fill-rule:nonzero;fill:rgb(35%,70%,90%);fill-opacity:1;stroke-width:1;stroke-linecap:butt;stroke-linejoin:miter;stroke:rgb(0%,0%,0%);stroke-opacity:1;stroke-miterlimit:10;" d="M 681 68.601562 C 681 54.199219 657 54.199219 657 68.601562 C 657 83 681 85.398438 681 97.398438 C 681 85.398438 705 83 705 68.601562 C 705 54.199219 681 54.199219 681 68.601562 "/>
<path style="fill-rule:nonzero;fill:rgb(53%,27%,7%);fill-opacity:1;stroke-width:1;stroke-linecap:butt;stroke-linejoin:miter;stroke:rgb(0%,0%,0%);stroke-opacity:1;stroke-miterlimit:10;" d="M 1038.214844 95 C 1038.214844 106.714844 1028.714844 116.214844 1017 116.214844 C 1005.285156 116.214844 995.785156 106.714844 995.785156 95 C 995.785156 83.285156 1005.285156 73.785156 1017 73.785156 C 1028.714844 73.785156 1038.214844 83.285156 1038.214844 95 "/>
<path style="fill-rule:nonzero;fill:rgb(53%,27%,7%);fill-opacity:1;stroke-width:1;stroke-linecap:butt;stroke-linejoin:miter;stroke:rgb(0%,0%,0%);stroke-opacity:1;stroke-miterlimit:10;" d="M 511.214844 213 C 511.214844 224.714844 501.714844 234.214844 490 234.214844 C 478.285156 234.214844 468.785156 224.714844 468.785156 213 C 468.785156 201.285156 478.285156 191.785156 490 191.785156 C 501.714844 191.785156 511.214844 201.285156 511.214844 213 "/>
<path style="fill-rule:nonzero;fill:rgb(53%,27%,7%);fill-opacity:1;stroke-width:1;stroke-linecap:butt;stroke-linejoin:miter;stroke:rgb(0%,0%,0%);stroke-opacity:1;stroke-miterlimit:10;" d="M 867.214844 303 C 867.214844 314.714844 857.714844 324.214844 846 324.214844 C 834.285156 324.214844 824.785156 314.714844 824.785156 303 C 824.785156 291.285156 834.285156 281.785156 846 281.785156 C 857.714844 281.785156 867.214844 291.285156 867.214844 303 "/>
</g>
</svg>
