<?xml version="1.0" encoding="UTF-8"?>
<svg xmlns="http://www.w3.org/2000/svg" xmlns:xlink="http://www.w3.org/1999/xlink" width="1179pt" height="517pt" viewBox="0 0 1179 517" version="1.1">
<g id="surface846">
<rect x="0" y="0" width="1179" height="517" style="fill:rgb(90%,90%,90%);fill-opacity:1;stroke:none;"/>
<path style="fill-rule:nonzero;fill:rgb(100%,0%,0%);fill-opacity:1;stroke-width:1;stroke-linecap:butt;stroke-linejoin:miter;stroke:rgb(0%,0%,0%);stroke-opacity:1;stroke-miterlimit:10;" d="M 691 392.601562 C 691 378.199219 667 378.199219 667 392.601562 C 667 407 691 409.398438 691 421.398438 C 691 409.398438 715 407 715 392.601562 C 715 378.199219 691 378.199219 691 392.601562 "/>
<path style="fill-rule:nonzero;fill:rgb(100%,0%,0%);fill-opacity:1;stroke-width:1;stroke-linecap:butt;stroke-linejoin:miter;stroke:rgb(0%,0%,0%);stroke-opacity:1;stroke-miterlimit:10;" d="M 705 101.601562 C 705 87.199219 681 87.199219 681 101.601562 C 681 116 705 118.398438 705 130.398438 C 705 118.398438 729 116 729 101.601562 C 729 87.199219 705 87.199219 705 101.601562 "/>
<path style="fill-rule:nonzero;fill:rgb(100%,0%,0%);fill-opacity:1;stroke-width:1;stroke-linecap:butt;stroke-linejoin:miter;stroke:rgb(0%,0%,0%);stroke-opacity:1;stroke-miterlimit:10;" d="M 193 170.601562 C 193 156.199219 169 156.199219 169 170.601562 C 169 185 193 187.398438 193 199.398438 C 193 187.398438 217 185 217 170.601562 C 217 156.199219 193 156.199219 193 170.601562 "/>
<path style="fill-rule:nonzero;fill:rgb(0%,0%,0%);fill-opacity:1;stroke-width:1;stroke-linecap:butt;stroke-linejoin:miter;stroke:rgb(0%,0%,0%);stroke-opacity:1;stroke-miterlimit:10;" d="M 592 221 L 572 221 L 572 231 L 592 231 L 592 251 L 602 251 L 602 231 L 622 231 L 622 221 L 602 221 L 602 201 L 592 201 L 592 221 "/>
<path style="fill-rule:nonzero;fill:rgb(0%,0%,0%);fill-opacity:1;stroke-width:1;stroke-linecap:butt;stroke-linejoin:miter;stroke:rgb(0%,0%,0%);stroke-opacity:1;stroke-miterlimit:10;" d="M 373 300 L 353 300 L 353 310 L 373 310 L 373 330 L 383 330 L 383 310 L 403 310 L 403 300 L 383 300 L 383 280 L 373 280 L 373 300 "/>
<path style="fill-rule:nonzero;fill:rgb(0%,0%,0%);fill-opacity:1;stroke-width:1;stroke-linecap:butt;stroke-linejoin:miter;stroke:rgb(0%,0%,0%);stroke-opacity:1;stroke-miterlimit:10;" d="M 895 183 L 875 183 L 875 193 L 895 193 L 895 213 L 905 213 L 905 193 L 925 193 L 925 183 L 905 183 L 905 163 L 895 163 L 895 183 "/>
</g>
</svg>
