<?xml version="1.0" encoding="UTF-8"?>
<svg xmlns="http://www.w3.org/2000/svg" xmlns:xlink="http://www.w3.org/1999/xlink" width="1179pt" height="517pt" viewBox="0 0 1179 517" version="1.1">
<g id="surface261">
<rect x="0" y="0" width="1179" height="517" style="fill:rgb(90%,90%,90%);fill-opacity:1;stroke:none;"/>
<path style="fill-rule:nonzero;fill:rgb(35%,70%,90%);fill-opacity:1;stroke-width:1;stroke-linecap:butt;stroke-linejoin:miter;stroke:rgb(0%,0%,0%);stroke-opacity:1;stroke-miterlimit:10;" d="M 453.214844 399 C 453.214844 410.714844 443.714844 420.214844 432 420.214844 C 420.285156 420.214844 410.785156 410.714844 410.785156 399 C 410.785156 387.285156 420.285156 377.785156 432 377.785156 C 443.714844 377.785156 453.214844 387.285156 453.214844 399 "/>
<path style="fill-rule:nonzero;fill:rgb(35%,70%,90%);fill-opacity:1;stroke-width:1;stroke-linecap:butt;stroke-linejoin:miter;stroke:rgb(0%,0%,0%);stroke-opacity:1;stroke-miterlimit:10;" d="M 119.785156 262.785156 L 119.785156 305.214844 L 162.214844 305.214844 L 162.214844 262.785156 L 119.785156 262.785156 "/>
<path style="fill-rule:nonzero;fill:rgb(35%,70%,90%);fill-opacity:1;stroke-width:1;stroke-linecap:butt;stroke-linejoin:miter;stroke:rgb(0%,0%,0%);stroke-opacity:1;stroke-miterlimit:10;" d="M 398.214844 178 C 398.214844 189.714844 388.714844 199.214844 377 199.214844 C 365.285156 199.214844 355.785156 189.714844 355.785156 178 C 355.785156 166.285156 365.285156 156.785156 377 156.785156 C 388.714844 156.785156 398.214844 166.285156 398.214844 178 "/>
<path style="fill-rule:nonzero;fill:rgb(35%,70%,90%);fill-opacity:1;stroke-width:1;stroke-linecap:butt;stroke-linejoin:miter;stroke:rgb(0%,0%,0%);stroke-opacity:1;stroke-miterlimit:10;" d="M 289.785156 226.785156 L 289.785156 269.214844 L 332.214844 269.214844 L 332.214844 226.785156 L 289.785156 226.785156 "/>
<path style="fill-rule:nonzero;fill:rgb(35%,70%,90%);fill-opacity:1;stroke-width:1;stroke-linecap:butt;stroke-linejoin:miter;stroke:rgb(0%,0%,0%);stroke-opacity:1;stroke-miterlimit:10;" d="M 177.214844 148 C 177.214844 159.714844 167.714844 169.214844 156 169.214844 C 144.285156 169.214844 134.785156 159.714844 134.785156 148 C 134.785156 136.285156 144.285156 126.785156 156 126.785156 C 167.714844 126.785156 177.214844 136.285156 177.214844 148 "/>
<path style="fill-rule:nonzero;fill:rgb(55%,51%,53%);fill-opacity:1;stroke-width:1;stroke-linecap:butt;stroke-linejoin:miter;stroke:rgb(0%,0%,0%);stroke-opacity:1;stroke-miterlimit:10;" d="M 888.785156 204.785156 L 888.785156 247.214844 L 931.214844 247.214844 L 931.214844 204.785156 L 888.785156 204.785156 "/>
<path style="fill-rule:nonzero;fill:rgb(55%,51%,53%);fill-opacity:1;stroke-width:1;stroke-linecap:butt;stroke-linejoin:miter;stroke:rgb(0%,0%,0%);stroke-opacity:1;stroke-miterlimit:10;" d="M 774.214844 296 C 774.214844 307.714844 764.714844 317.214844 753 317.214844 C 741.285156 317.214844 731.785156 307.714844 731.785156 296 C 731.785156 284.285156 741.285156 274.785156 753 274.785156 C 764.714844 274.785156 774.214844 284.285156 774.214844 296 "/>
<path style="fill-rule:nonzero;fill:rgb(55%,51%,53%);fill-opacity:1;stroke-width:1;stroke-linecap:butt;stroke-linejoin:miter;stroke:rgb(0%,0%,0%);stroke-opacity:1;stroke-miterlimit:10;" d="M 1015.785156 248.785156 L 1015.785156 291.214844 L 1058.214844 291.214844 L 1058.214844 248.785156 L 1015.785156 248.785156 "/>
<path style="fill-rule:nonzero;fill:rgb(55%,51%,53%);fill-opacity:1;stroke-width:1;stroke-linecap:butt;stroke-linejoin:miter;stroke:rgb(0%,0%,0%);stroke-opacity:1;stroke-miterlimit:10;" d="M 865.214844 326 C 865.214844 337.714844 855.714844 347.214844 844 347.214844 C 832.285156 347.214844 822.785156 337.714844 822.785156 326 C 822.785156 314.285156 832.285156 304.785156 844 304.785156 C 855.714844 304.785156 865.214844 314.285156 865.214844 326 "/>
<path style="fill-rule:nonzero;fill:rgb(55%,51%,53%);fill-opacity:1;stroke-width:1;stroke-linecap:butt;stroke-linejoin:miter;stroke:rgb(0%,0%,0%);stroke-opacity:1;stroke-miterlimit:10;" d="M 985.785156 121.785156 L 985.785156 164.214844 L 1028.214844 164.214844 L 1028.214844 121.785156 L 985.785156 121.785156 "/>
<path style="fill-rule:nonzero;fill:rgb(55%,51%,53%);fill-opacity:1;stroke-width:1;stroke-linecap:butt;stroke-linejoin:miter;stroke:rgb(0%,0%,0%);stroke-opacity:1;stroke-miterlimit:10;" d="M 789.785156 103.785156 L 789.785156 146.214844 L 832.214844 146.214844 L 832.214844 103.785156 L 789.785156 103.785156 "/>
<path style="fill-rule:nonzero;fill:rgb(55%,51%,53%);fill-opacity:1;stroke-width:1;stroke-linecap:butt;stroke-linejoin:miter;stroke:rgb(0%,0%,0%);stroke-opacity:1;stroke-miterlimit:10;" d="M 954.785156 398.785156 L 954.785156 441.214844 L 997.214844 441.214844 L 997.214844 398.785156 L 954.785156 398.785156 "/>
</g>
</svg>
