<?xml version="1.0" encoding="UTF-8"?>
<svg xmlns="http://www.w3.org/2000/svg" xmlns:xlink="http://www.w3.org/1999/xlink" width="1179pt" height="517pt" viewBox="0 0 1179 517" version="1.1">
<g id="surface66">
<rect x="0" y="0" width="1179" height="517" style="fill:rgb(90%,90%,90%);fill-opacity:1;stroke:none;"/>
<path style="fill-rule:nonzero;fill:rgb(35%,70%,90%);fill-opacity:1;stroke-width:1;stroke-linecap:butt;stroke-linejoin:miter;stroke:rgb(0%,0%,0%);stroke-opacity:1;stroke-miterlimit:10;" d="M 192 120 L 221.664062 120 L 233.664062 91.785156 L 245.664062 120 L 275.332031 120 L 251.332031 137.4375 L 259.417969 168.980469 L 233.664062 151.542969 L 207.914062 168.980469 L 220.214844 137.4375 L 192 120 "/>
<path style="fill-rule:nonzero;fill:rgb(35%,70%,90%);fill-opacity:1;stroke-width:1;stroke-linecap:butt;stroke-linejoin:miter;stroke:rgb(0%,0%,0%);stroke-opacity:1;stroke-miterlimit:10;" d="M 248 363 L 277.664062 363 L 289.664062 334.785156 L 301.664062 363 L 331.332031 363 L 307.332031 380.4375 L 315.417969 411.980469 L 289.664062 394.542969 L 263.914062 411.980469 L 276.214844 380.4375 L 248 363 "/>
<path style="fill-rule:nonzero;fill:rgb(35%,70%,90%);fill-opacity:1;stroke-width:1;stroke-linecap:butt;stroke-linejoin:miter;stroke:rgb(0%,0%,0%);stroke-opacity:1;stroke-miterlimit:10;" d="M 905 186 L 934.664062 186 L 946.664062 157.785156 L 958.664062 186 L 988.332031 186 L 964.332031 203.4375 L 972.417969 234.980469 L 946.664062 217.542969 L 920.914062 234.980469 L 933.214844 203.4375 L 905 186 "/>
<path style="fill-rule:nonzero;fill:rgb(55%,51%,53%);fill-opacity:1;stroke-width:1;stroke-linecap:butt;stroke-linejoin:miter;stroke:rgb(0%,0%,0%);stroke-opacity:1;stroke-miterlimit:10;" d="M 981 296 L 955.019531 341 L 1006.980469 341 L 981 296 "/>
<path style="fill-rule:nonzero;fill:rgb(55%,51%,53%);fill-opacity:1;stroke-width:1;stroke-linecap:butt;stroke-linejoin:miter;stroke:rgb(0%,0%,0%);stroke-opacity:1;stroke-miterlimit:10;" d="M 722 212 L 696.019531 257 L 747.980469 257 L 722 212 "/>
<path style="fill-rule:nonzero;fill:rgb(55%,51%,53%);fill-opacity:1;stroke-width:1;stroke-linecap:butt;stroke-linejoin:miter;stroke:rgb(0%,0%,0%);stroke-opacity:1;stroke-miterlimit:10;" d="M 389 291 L 363.019531 336 L 414.980469 336 L 389 291 "/>
<path style="fill-rule:nonzero;fill:rgb(55%,51%,53%);fill-opacity:1;stroke-width:1;stroke-linecap:butt;stroke-linejoin:miter;stroke:rgb(0%,0%,0%);stroke-opacity:1;stroke-miterlimit:10;" d="M 656 110 L 630.019531 155 L 681.980469 155 L 656 110 "/>
</g>
</svg>
