<?xml version="1.0" encoding="UTF-8"?>
<svg xmlns="http://www.w3.org/2000/svg" xmlns:xlink="http://www.w3.org/1999/xlink" width="1179pt" height="517pt" viewBox="0 0 1179 517" version="1.1">
<g id="surface376">
<rect x="0" y="0" width="1179" height="517" style="fill:rgb(90%,90%,90%);fill-opacity:1;stroke:none;"/>
<path style="fill-rule:nonzero;fill:rgb(35%,70%,90%);fill-opacity:1;stroke-width:1;stroke-linecap:butt;stroke-linejoin:miter;stroke:rgb(0%,0%,0%);stroke-opacity:1;stroke-miterlimit:10;" d="M 193.214844 221 C 193.214844 232.714844 183.714844 242.214844 172 242.214844 C 160.285156 242.214844 150.785156 232.714844 150.785156 221 C 150.785156 209.285156 160.285156 199.785156 172 199.785156 C 183.714844 199.785156 193.214844 209.285156 193.214844 221 "/>
<path style="fill-rule:nonzero;fill:rgb(35%,70%,90%);fill-opacity:1;stroke-width:1;stroke-linecap:butt;stroke-linejoin:miter;stroke:rgb(0%,0%,0%);stroke-opacity:1;stroke-miterlimit:10;" d="M 95 397 L 69.019531 442 L 120.980469 442 L 95 397 "/>
<path style="fill-rule:nonzero;fill:rgb(35%,70%,90%);fill-opacity:1;stroke-width:1;stroke-linecap:butt;stroke-linejoin:miter;stroke:rgb(0%,0%,0%);stroke-opacity:1;stroke-miterlimit:10;" d="M 434.214844 226 C 434.214844 237.714844 424.714844 247.214844 413 247.214844 C 401.285156 247.214844 391.785156 237.714844 391.785156 226 C 391.785156 214.285156 401.285156 204.785156 413 204.785156 C 424.714844 204.785156 434.214844 214.285156 434.214844 226 "/>
<path style="fill-rule:nonzero;fill:rgb(35%,70%,90%);fill-opacity:1;stroke-width:1;stroke-linecap:butt;stroke-linejoin:miter;stroke:rgb(0%,0%,0%);stroke-opacity:1;stroke-miterlimit:10;" d="M 409.214844 114 C 409.214844 125.714844 399.714844 135.214844 388 135.214844 C 376.285156 135.214844 366.785156 125.714844 366.785156 114 C 366.785156 102.285156 376.285156 92.785156 388 92.785156 C 399.714844 92.785156 409.214844 102.285156 409.214844 114 "/>
<path style="fill-rule:nonzero;fill:rgb(35%,70%,90%);fill-opacity:1;stroke-width:1;stroke-linecap:butt;stroke-linejoin:miter;stroke:rgb(0%,0%,0%);stroke-opacity:1;stroke-miterlimit:10;" d="M 317.214844 131 C 317.214844 142.714844 307.714844 152.214844 296 152.214844 C 284.285156 152.214844 274.785156 142.714844 274.785156 131 C 274.785156 119.285156 284.285156 109.785156 296 109.785156 C 307.714844 109.785156 317.214844 119.285156 317.214844 131 "/>
<path style="fill-rule:nonzero;fill:rgb(100%,51%,0%);fill-opacity:1;stroke-width:1;stroke-linecap:butt;stroke-linejoin:miter;stroke:rgb(0%,0%,0%);stroke-opacity:1;stroke-miterlimit:10;" d="M 1038 81 L 1012.019531 126 L 1063.980469 126 L 1038 81 "/>
<path style="fill-rule:nonzero;fill:rgb(100%,51%,0%);fill-opacity:1;stroke-width:1;stroke-linecap:butt;stroke-linejoin:miter;stroke:rgb(0%,0%,0%);stroke-opacity:1;stroke-miterlimit:10;" d="M 801.214844 173 C 801.214844 184.714844 791.714844 194.214844 780 194.214844 C 768.285156 194.214844 758.785156 184.714844 758.785156 173 C 758.785156 161.285156 768.285156 151.785156 780 151.785156 C 791.714844 151.785156 801.214844 161.285156 801.214844 173 "/>
<path style="fill-rule:nonzero;fill:rgb(100%,51%,0%);fill-opacity:1;stroke-width:1;stroke-linecap:butt;stroke-linejoin:miter;stroke:rgb(0%,0%,0%);stroke-opacity:1;stroke-miterlimit:10;" d="M 941 299 L 915.019531 344 L 966.980469 344 L 941 299 "/>
<path style="fill-rule:nonzero;fill:rgb(100%,51%,0%);fill-opacity:1;stroke-width:1;stroke-linecap:butt;stroke-linejoin:miter;stroke:rgb(0%,0%,0%);stroke-opacity:1;stroke-miterlimit:10;" d="M 871 240 L 845.019531 285 L 896.980469 285 L 871 240 "/>
</g>
</svg>
