<?xml version="1.0" encoding="UTF-8"?>
<svg xmlns="http://www.w3.org/2000/svg" xmlns:xlink="http://www.w3.org/1999/xlink" width="1179pt" height="517pt" viewBox="0 0 1179 517" version="1.1">
<g id="surface986">
<rect x="0" y="0" width="1179" height="517" style="fill:rgb(90%,90%,90%);fill-opacity:1;stroke:none;"/>
<path style="fill-rule:nonzero;fill:rgb(53%,27%,7%);fill-opacity:1;stroke-width:1;stroke-linecap:butt;stroke-linejoin:miter;stroke:rgb(0%,0%,0%);stroke-opacity:1;stroke-miterlimit:10;" d="M 402 168.601562 C 402 154.199219 378 154.199219 378 168.601562 C 378 183 402 185.398438 402 197.398438 C 402 185.398438 426 183 426 168.601562 C 426 154.199219 402 154.199219 402 168.601562 "/>
<path style="fill-rule:nonzero;fill:rgb(53%,27%,7%);fill-opacity:1;stroke-width:1;stroke-linecap:butt;stroke-linejoin:miter;stroke:rgb(0%,0%,0%);stroke-opacity:1;stroke-miterlimit:10;" d="M 176.214844 421 C 176.214844 432.714844 166.714844 442.214844 155 442.214844 C 143.285156 442.214844 133.785156 432.714844 133.785156 421 C 133.785156 409.285156 143.285156 399.785156 155 399.785156 C 166.714844 399.785156 176.214844 409.285156 176.214844 421 "/>
<path style="fill-rule:nonzero;fill:rgb(53%,27%,7%);fill-opacity:1;stroke-width:1;stroke-linecap:butt;stroke-linejoin:miter;stroke:rgb(0%,0%,0%);stroke-opacity:1;stroke-miterlimit:10;" d="M 298 97.601562 C 298 83.199219 274 83.199219 274 97.601562 C 274 112 298 114.398438 298 126.398438 C 298 114.398438 322 112 322 97.601562 C 322 83.199219 298 83.199219 298 97.601562 "/>
<path style="fill-rule:nonzero;fill:rgb(53%,27%,7%);fill-opacity:1;stroke-width:1;stroke-linecap:butt;stroke-linejoin:miter;stroke:rgb(0%,0%,0%);stroke-opacity:1;stroke-miterlimit:10;" d="M 397.214844 274 C 397.214844 285.714844 387.714844 295.214844 376 295.214844 C 364.285156 295.214844 354.785156 285.714844 354.785156 274 C 354.785156 262.285156 364.285156 252.785156 376 252.785156 C 387.714844 252.785156 397.214844 262.285156 397.214844 274 "/>
<path style="fill-rule:nonzero;fill:rgb(53%,27%,7%);fill-opacity:1;stroke-width:1;stroke-linecap:butt;stroke-linejoin:miter;stroke:rgb(0%,0%,0%);stroke-opacity:1;stroke-miterlimit:10;" d="M 258 317.601562 C 258 303.199219 234 303.199219 234 317.601562 C 234 332 258 334.398438 258 346.398438 C 258 334.398438 282 332 282 317.601562 C 282 303.199219 258 303.199219 258 317.601562 "/>
<path style="fill-rule:nonzero;fill:rgb(53%,27%,7%);fill-opacity:1;stroke-width:1;stroke-linecap:butt;stroke-linejoin:miter;stroke:rgb(0%,0%,0%);stroke-opacity:1;stroke-miterlimit:10;" d="M 85 149.601562 C 85 135.199219 61 135.199219 61 149.601562 C 61 164 85 166.398438 85 178.398438 C 85 166.398438 109 164 109 149.601562 C 109 135.199219 85 135.199219 85 149.601562 "/>
<path style="fill-rule:nonzero;fill:rgb(53%,27%,7%);fill-opacity:1;stroke-width:1;stroke-linecap:butt;stroke-linejoin:miter;stroke:rgb(0%,0%,0%);stroke-opacity:1;stroke-miterlimit:10;" d="M 353 412.601562 C 353 398.199219 329 398.199219 329 412.601562 C 329 427 353 429.398438 353 441.398438 C 353 429.398438 377 427 377 412.601562 C 377 398.199219 353 398.199219 353 412.601562 "/>
<path style="fill-rule:nonzero;fill:rgb(53%,27%,7%);fill-opacity:1;stroke-width:1;stroke-linecap:butt;stroke-linejoin:miter;stroke:rgb(0%,0%,0%);stroke-opacity:1;stroke-miterlimit:10;" d="M 420 74.601562 C 420 60.199219 396 60.199219 396 74.601562 C 396 89 420 91.398438 420 103.398438 C 420 91.398438 444 89 444 74.601562 C 444 60.199219 420 60.199219 420 74.601562 "/>
<path style="fill-rule:nonzero;fill:rgb(100%,51%,0%);fill-opacity:1;stroke-width:1;stroke-linecap:butt;stroke-linejoin:miter;stroke:rgb(0%,0%,0%);stroke-opacity:1;stroke-miterlimit:10;" d="M 1047.214844 201 C 1047.214844 212.714844 1037.714844 222.214844 1026 222.214844 C 1014.285156 222.214844 1004.785156 212.714844 1004.785156 201 C 1004.785156 189.285156 1014.285156 179.785156 1026 179.785156 C 1037.714844 179.785156 1047.214844 189.285156 1047.214844 201 "/>
<path style="fill-rule:nonzero;fill:rgb(100%,51%,0%);fill-opacity:1;stroke-width:1;stroke-linecap:butt;stroke-linejoin:miter;stroke:rgb(0%,0%,0%);stroke-opacity:1;stroke-miterlimit:10;" d="M 709 145.601562 C 709 131.199219 685 131.199219 685 145.601562 C 685 160 709 162.398438 709 174.398438 C 709 162.398438 733 160 733 145.601562 C 733 131.199219 709 131.199219 709 145.601562 "/>
<path style="fill-rule:nonzero;fill:rgb(100%,51%,0%);fill-opacity:1;stroke-width:1;stroke-linecap:butt;stroke-linejoin:miter;stroke:rgb(0%,0%,0%);stroke-opacity:1;stroke-miterlimit:10;" d="M 884.214844 100 C 884.214844 111.714844 874.714844 121.214844 863 121.214844 C 851.285156 121.214844 841.785156 111.714844 841.785156 100 C 841.785156 88.285156 851.285156 78.785156 863 78.785156 C 874.714844 78.785156 884.214844 88.285156 884.214844 100 "/>
<path style="fill-rule:nonzero;fill:rgb(100%,51%,0%);fill-opacity:1;stroke-width:1;stroke-linecap:butt;stroke-linejoin:miter;stroke:rgb(0%,0%,0%);stroke-opacity:1;stroke-miterlimit:10;" d="M 717 411.601562 C 717 397.199219 693 397.199219 693 411.601562 C 693 426 717 428.398438 717 440.398438 C 717 428.398438 741 426 741 411.601562 C 741 397.199219 717 397.199219 717 411.601562 "/>
<path style="fill-rule:nonzero;fill:rgb(100%,51%,0%);fill-opacity:1;stroke-width:1;stroke-linecap:butt;stroke-linejoin:miter;stroke:rgb(0%,0%,0%);stroke-opacity:1;stroke-miterlimit:10;" d="M 907.214844 233 C 907.214844 244.714844 897.714844 254.214844 886 254.214844 C 874.285156 254.214844 864.785156 244.714844 864.785156 233 C 864.785156 221.285156 874.285156 211.785156 886 211.785156 C 897.714844 211.785156 907.214844 221.285156 907.214844 233 "/>
<path style="fill-rule:nonzero;fill:rgb(100%,51%,0%);fill-opacity:1;stroke-width:1;stroke-linecap:butt;stroke-linejoin:miter;stroke:rgb(0%,0%,0%);stroke-opacity:1;stroke-miterlimit:10;" d="M 801.214844 336 C 801.214844 347.714844 791.714844 357.214844 780 357.214844 C 768.285156 357.214844 758.785156 347.714844 758.785156 336 C 758.785156 324.285156 768.285156 314.785156 780 314.785156 C 791.714844 314.785156 801.214844 324.285156 801.214844 336 "/>
<path style="fill-rule:nonzero;fill:rgb(100%,51%,0%);fill-opacity:1;stroke-width:1;stroke-linecap:butt;stroke-linejoin:miter;stroke:rgb(0%,0%,0%);stroke-opacity:1;stroke-miterlimit:10;" d="M 1019.214844 287 C 1019.214844 298.714844 1009.714844 308.214844 998 308.214844 C 986.285156 308.214844 976.785156 298.714844 976.785156 287 C 976.785156 275.285156 986.285156 265.785156 998 265.785156 C 1009.714844 265.785156 1019.214844 275.285156 1019.214844 287 "/>
<path style="fill-rule:nonzero;fill:rgb(100%,51%,0%);fill-opacity:1;stroke-width:1;stroke-linecap:butt;stroke-linejoin:miter;stroke:rgb(0%,0%,0%);stroke-opacity:1;stroke-miterlimit:10;" d="M 945.214844 387 C 945.214844 398.714844 935.714844 408.214844 924 408.214844 C 912.285156 408.214844 902.785156 398.714844 902.785156 387 C 902.785156 375.285156 912.285156 365.785156 924 365.785156 C 935.714844 365.785156 945.214844 375.285156 945.214844 387 "/>
</g>
</svg>
