<?xml version="1.0" encoding="UTF-8"?>
<svg xmlns="http://www.w3.org/2000/svg" xmlns:xlink="http://www.w3.org/1999/xlink" width="1179pt" height="517pt" viewBox="0 0 1179 517" version="1.1">
<g id="surface321">
<rect x="0" y="0" width="1179" height="517" style="fill:rgb(90%,90%,90%);fill-opacity:1;stroke:none;"/>
<path style="fill-rule:nonzero;fill:rgb(100%,51%,0%);fill-opacity:1;stroke-width:1;stroke-linecap:butt;stroke-linejoin:miter;stroke:rgb(0%,0%,0%);stroke-opacity:1;stroke-miterlimit:10;" d="M 447.214844 331 C 447.214844 342.714844 437.714844 352.214844 426 352.214844 C 414.285156 352.214844 404.785156 342.714844 404.785156 331 C 404.785156 319.285156 414.285156 309.785156 426 309.785156 C 437.714844 309.785156 447.214844 319.285156 447.214844 331 "/>
<path style="fill-rule:nonzero;fill:rgb(100%,51%,0%);fill-opacity:1;stroke-width:1;stroke-linecap:butt;stroke-linejoin:miter;stroke:rgb(0%,0%,0%);stroke-opacity:1;stroke-miterlimit:10;" d="M 232.785156 146.785156 L 232.785156 189.214844 L 275.214844 189.214844 L 275.214844 146.785156 L 232.785156 146.785156 "/>
<path style="fill-rule:nonzero;fill:rgb(100%,51%,0%);fill-opacity:1;stroke-width:1;stroke-linecap:butt;stroke-linejoin:miter;stroke:rgb(0%,0%,0%);stroke-opacity:1;stroke-miterlimit:10;" d="M 370.214844 418 C 370.214844 429.714844 360.714844 439.214844 349 439.214844 C 337.285156 439.214844 327.785156 429.714844 327.785156 418 C 327.785156 406.285156 337.285156 396.785156 349 396.785156 C 360.714844 396.785156 370.214844 406.285156 370.214844 418 "/>
<path style="fill-rule:nonzero;fill:rgb(100%,51%,0%);fill-opacity:1;stroke-width:1;stroke-linecap:butt;stroke-linejoin:miter;stroke:rgb(0%,0%,0%);stroke-opacity:1;stroke-miterlimit:10;" d="M 150.785156 74.785156 L 150.785156 117.214844 L 193.214844 117.214844 L 193.214844 74.785156 L 150.785156 74.785156 "/>
<path style="fill-rule:nonzero;fill:rgb(100%,51%,0%);fill-opacity:1;stroke-width:1;stroke-linecap:butt;stroke-linejoin:miter;stroke:rgb(0%,0%,0%);stroke-opacity:1;stroke-miterlimit:10;" d="M 284.214844 309 C 284.214844 320.714844 274.714844 330.214844 263 330.214844 C 251.285156 330.214844 241.785156 320.714844 241.785156 309 C 241.785156 297.285156 251.285156 287.785156 263 287.785156 C 274.714844 287.785156 284.214844 297.285156 284.214844 309 "/>
<path style="fill-rule:nonzero;fill:rgb(55%,51%,53%);fill-opacity:1;stroke-width:1;stroke-linecap:butt;stroke-linejoin:miter;stroke:rgb(0%,0%,0%);stroke-opacity:1;stroke-miterlimit:10;" d="M 995.785156 257.785156 L 995.785156 300.214844 L 1038.214844 300.214844 L 1038.214844 257.785156 L 995.785156 257.785156 "/>
<path style="fill-rule:nonzero;fill:rgb(55%,51%,53%);fill-opacity:1;stroke-width:1;stroke-linecap:butt;stroke-linejoin:miter;stroke:rgb(0%,0%,0%);stroke-opacity:1;stroke-miterlimit:10;" d="M 925.214844 183 C 925.214844 194.714844 915.714844 204.214844 904 204.214844 C 892.285156 204.214844 882.785156 194.714844 882.785156 183 C 882.785156 171.285156 892.285156 161.785156 904 161.785156 C 915.714844 161.785156 925.214844 171.285156 925.214844 183 "/>
<path style="fill-rule:nonzero;fill:rgb(55%,51%,53%);fill-opacity:1;stroke-width:1;stroke-linecap:butt;stroke-linejoin:miter;stroke:rgb(0%,0%,0%);stroke-opacity:1;stroke-miterlimit:10;" d="M 962.785156 100.785156 L 962.785156 143.214844 L 1005.214844 143.214844 L 1005.214844 100.785156 L 962.785156 100.785156 "/>
<path style="fill-rule:nonzero;fill:rgb(55%,51%,53%);fill-opacity:1;stroke-width:1;stroke-linecap:butt;stroke-linejoin:miter;stroke:rgb(0%,0%,0%);stroke-opacity:1;stroke-miterlimit:10;" d="M 895.214844 418 C 895.214844 429.714844 885.714844 439.214844 874 439.214844 C 862.285156 439.214844 852.785156 429.714844 852.785156 418 C 852.785156 406.285156 862.285156 396.785156 874 396.785156 C 885.714844 396.785156 895.214844 406.285156 895.214844 418 "/>
<path style="fill-rule:nonzero;fill:rgb(55%,51%,53%);fill-opacity:1;stroke-width:1;stroke-linecap:butt;stroke-linejoin:miter;stroke:rgb(0%,0%,0%);stroke-opacity:1;stroke-miterlimit:10;" d="M 695.785156 103.785156 L 695.785156 146.214844 L 738.214844 146.214844 L 738.214844 103.785156 L 695.785156 103.785156 "/>
</g>
</svg>
