<?xml version="1.0" encoding="UTF-8"?>
<svg xmlns="http://www.w3.org/2000/svg" xmlns:xlink="http://www.w3.org/1999/xlink" width="1179pt" height="517pt" viewBox="0 0 1179 517" version="1.1">
<g id="surface1336">
<rect x="0" y="0" width="1179" height="517" style="fill:rgb(90%,90%,90%);fill-opacity:1;stroke:none;"/>
<path style="fill-rule:nonzero;fill:rgb(100%,51%,0%);fill-opacity:1;stroke-width:1;stroke-linecap:butt;stroke-linejoin:miter;stroke:rgb(0%,0%,0%);stroke-opacity:1;stroke-miterlimit:10;" d="M 894 259 L 868.019531 304 L 919.980469 304 L 894 259 "/>
<path style="fill-rule:nonzero;fill:rgb(100%,51%,0%);fill-opacity:1;stroke-width:1;stroke-linecap:butt;stroke-linejoin:miter;stroke:rgb(0%,0%,0%);stroke-opacity:1;stroke-miterlimit:10;" d="M 93 241 L 67.019531 286 L 118.980469 286 L 93 241 "/>
<path style="fill-rule:nonzero;fill:rgb(100%,51%,0%);fill-opacity:1;stroke-width:1;stroke-linecap:butt;stroke-linejoin:miter;stroke:rgb(0%,0%,0%);stroke-opacity:1;stroke-miterlimit:10;" d="M 401 305 L 375.019531 350 L 426.980469 350 L 401 305 "/>
<path style="fill-rule:nonzero;fill:rgb(53%,27%,7%);fill-opacity:1;stroke-width:1;stroke-linecap:butt;stroke-linejoin:miter;stroke:rgb(0%,0%,0%);stroke-opacity:1;stroke-miterlimit:10;" d="M 1005 181.601562 C 1005 167.199219 981 167.199219 981 181.601562 C 981 196 1005 198.398438 1005 210.398438 C 1005 198.398438 1029 196 1029 181.601562 C 1029 167.199219 1005 167.199219 1005 181.601562 "/>
<path style="fill-rule:nonzero;fill:rgb(53%,27%,7%);fill-opacity:1;stroke-width:1;stroke-linecap:butt;stroke-linejoin:miter;stroke:rgb(0%,0%,0%);stroke-opacity:1;stroke-miterlimit:10;" d="M 318 173.601562 C 318 159.199219 294 159.199219 294 173.601562 C 294 188 318 190.398438 318 202.398438 C 318 190.398438 342 188 342 173.601562 C 342 159.199219 318 159.199219 318 173.601562 "/>
<path style="fill-rule:nonzero;fill:rgb(53%,27%,7%);fill-opacity:1;stroke-width:1;stroke-linecap:butt;stroke-linejoin:miter;stroke:rgb(0%,0%,0%);stroke-opacity:1;stroke-miterlimit:10;" d="M 639 322.601562 C 639 308.199219 615 308.199219 615 322.601562 C 615 337 639 339.398438 639 351.398438 C 639 339.398438 663 337 663 322.601562 C 663 308.199219 639 308.199219 639 322.601562 "/>
<path style="fill-rule:nonzero;fill:rgb(53%,27%,7%);fill-opacity:1;stroke-width:1;stroke-linecap:butt;stroke-linejoin:miter;stroke:rgb(0%,0%,0%);stroke-opacity:1;stroke-miterlimit:10;" d="M 486 408.601562 C 486 394.199219 462 394.199219 462 408.601562 C 462 423 486 425.398438 486 437.398438 C 486 425.398438 510 423 510 408.601562 C 510 394.199219 486 394.199219 486 408.601562 "/>
<path style="fill-rule:nonzero;fill:rgb(53%,27%,7%);fill-opacity:1;stroke-width:1;stroke-linecap:butt;stroke-linejoin:miter;stroke:rgb(0%,0%,0%);stroke-opacity:1;stroke-miterlimit:10;" d="M 573 71.601562 C 573 57.199219 549 57.199219 549 71.601562 C 549 86 573 88.398438 573 100.398438 C 573 88.398438 597 86 597 71.601562 C 597 57.199219 573 57.199219 573 71.601562 "/>
</g>
</svg>
