<?xml version="1.0" encoding="UTF-8"?>
<svg xmlns="http://www.w3.org/2000/svg" xmlns:xlink="http://www.w3.org/1999/xlink" width="1179pt" height="517pt" viewBox="0 0 1179 517" version="1.1">
<g id="surface66">
<rect x="0" y="0" width="1179" height="517" style="fill:rgb(90%,90%,90%);fill-opacity:1;stroke:none;"/>
<path style="fill-rule:nonzero;fill:rgb(35%,70%,90%);fill-opacity:1;stroke-width:1;stroke-linecap:butt;stroke-linejoin:miter;stroke:rgb(0%,0%,0%);stroke-opacity:1;stroke-miterlimit:10;" d="M 489 124 L 518.664062 124 L 530.664062 95.785156 L 542.664062 124 L 572.332031 124 L 548.332031 141.4375 L 556.417969 172.980469 L 530.664062 155.542969 L 504.914062 172.980469 L 517.214844 141.4375 L 489 124 "/>
<path style="fill-rule:nonzero;fill:rgb(35%,70%,90%);fill-opacity:1;stroke-width:1;stroke-linecap:butt;stroke-linejoin:miter;stroke:rgb(0%,0%,0%);stroke-opacity:1;stroke-miterlimit:10;" d="M 669 182 L 698.664062 182 L 710.664062 153.785156 L 722.664062 182 L 752.332031 182 L 728.332031 199.4375 L 736.417969 230.980469 L 710.664062 213.542969 L 684.914062 230.980469 L 697.214844 199.4375 L 669 182 "/>
<path style="fill-rule:nonzero;fill:rgb(35%,70%,90%);fill-opacity:1;stroke-width:1;stroke-linecap:butt;stroke-linejoin:miter;stroke:rgb(0%,0%,0%);stroke-opacity:1;stroke-miterlimit:10;" d="M 506 259 L 535.664062 259 L 547.664062 230.785156 L 559.664062 259 L 589.332031 259 L 565.332031 276.4375 L 573.417969 307.980469 L 547.664062 290.542969 L 521.914062 307.980469 L 534.214844 276.4375 L 506 259 "/>
<path style="fill-rule:nonzero;fill:rgb(55%,51%,53%);fill-opacity:1;stroke-width:1;stroke-linecap:butt;stroke-linejoin:miter;stroke:rgb(0%,0%,0%);stroke-opacity:1;stroke-miterlimit:10;" d="M 271 71 L 245.019531 116 L 296.980469 116 L 271 71 "/>
<path style="fill-rule:nonzero;fill:rgb(55%,51%,53%);fill-opacity:1;stroke-width:1;stroke-linecap:butt;stroke-linejoin:miter;stroke:rgb(0%,0%,0%);stroke-opacity:1;stroke-miterlimit:10;" d="M 176 281 L 150.019531 326 L 201.980469 326 L 176 281 "/>
<path style="fill-rule:nonzero;fill:rgb(55%,51%,53%);fill-opacity:1;stroke-width:1;stroke-linecap:butt;stroke-linejoin:miter;stroke:rgb(0%,0%,0%);stroke-opacity:1;stroke-miterlimit:10;" d="M 669 302 L 643.019531 347 L 694.980469 347 L 669 302 "/>
<path style="fill-rule:nonzero;fill:rgb(55%,51%,53%);fill-opacity:1;stroke-width:1;stroke-linecap:butt;stroke-linejoin:miter;stroke:rgb(0%,0%,0%);stroke-opacity:1;stroke-miterlimit:10;" d="M 825 121 L 799.019531 166 L 850.980469 166 L 825 121 "/>
</g>
</svg>
