<?xml version="1.0" encoding="UTF-8"?>
<svg xmlns="http://www.w3.org/2000/svg" xmlns:xlink="http://www.w3.org/1999/xlink" width="1179pt" height="517pt" viewBox="0 0 1179 517" version="1.1">
<g id="surface1351">
<rect x="0" y="0" width="1179" height="517" style="fill:rgb(90%,90%,90%);fill-opacity:1;stroke:none;"/>
<path style="fill-rule:nonzero;fill:rgb(53%,27%,7%);fill-opacity:1;stroke-width:1;stroke-linecap:butt;stroke-linejoin:miter;stroke:rgb(0%,0%,0%);stroke-opacity:1;stroke-miterlimit:10;" d="M 706.214844 87 C 706.214844 98.714844 696.714844 108.214844 685 108.214844 C 673.285156 108.214844 663.785156 98.714844 663.785156 87 C 663.785156 75.285156 673.285156 65.785156 685 65.785156 C 696.714844 65.785156 706.214844 75.285156 706.214844 87 "/>
<path style="fill-rule:nonzero;fill:rgb(53%,27%,7%);fill-opacity:1;stroke-width:1;stroke-linecap:butt;stroke-linejoin:miter;stroke:rgb(0%,0%,0%);stroke-opacity:1;stroke-miterlimit:10;" d="M 561.214844 269 C 561.214844 280.714844 551.714844 290.214844 540 290.214844 C 528.285156 290.214844 518.785156 280.714844 518.785156 269 C 518.785156 257.285156 528.285156 247.785156 540 247.785156 C 551.714844 247.785156 561.214844 257.285156 561.214844 269 "/>
<path style="fill-rule:nonzero;fill:rgb(53%,27%,7%);fill-opacity:1;stroke-width:1;stroke-linecap:butt;stroke-linejoin:miter;stroke:rgb(0%,0%,0%);stroke-opacity:1;stroke-miterlimit:10;" d="M 401.214844 277 C 401.214844 288.714844 391.714844 298.214844 380 298.214844 C 368.285156 298.214844 358.785156 288.714844 358.785156 277 C 358.785156 265.285156 368.285156 255.785156 380 255.785156 C 391.714844 255.785156 401.214844 265.285156 401.214844 277 "/>
<path style="fill-rule:nonzero;fill:rgb(53%,27%,7%);fill-opacity:1;stroke-width:1;stroke-linecap:butt;stroke-linejoin:miter;stroke:rgb(0%,0%,0%);stroke-opacity:1;stroke-miterlimit:10;" d="M 731.214844 223 C 731.214844 234.714844 721.714844 244.214844 710 244.214844 C 698.285156 244.214844 688.785156 234.714844 688.785156 223 C 688.785156 211.285156 698.285156 201.785156 710 201.785156 C 721.714844 201.785156 731.214844 211.285156 731.214844 223 "/>
<path style="fill-rule:nonzero;fill:rgb(53%,27%,7%);fill-opacity:1;stroke-width:1;stroke-linecap:butt;stroke-linejoin:miter;stroke:rgb(0%,0%,0%);stroke-opacity:1;stroke-miterlimit:10;" d="M 680.214844 431 C 680.214844 442.714844 670.714844 452.214844 659 452.214844 C 647.285156 452.214844 637.785156 442.714844 637.785156 431 C 637.785156 419.285156 647.285156 409.785156 659 409.785156 C 670.714844 409.785156 680.214844 419.285156 680.214844 431 "/>
<path style="fill-rule:nonzero;fill:rgb(100%,51%,0%);fill-opacity:1;stroke-width:1;stroke-linecap:butt;stroke-linejoin:miter;stroke:rgb(0%,0%,0%);stroke-opacity:1;stroke-miterlimit:10;" d="M 261 235 L 290.664062 235 L 302.664062 206.785156 L 314.664062 235 L 344.332031 235 L 320.332031 252.4375 L 328.417969 283.980469 L 302.664062 266.542969 L 276.914062 283.980469 L 289.214844 252.4375 L 261 235 "/>
<path style="fill-rule:nonzero;fill:rgb(100%,51%,0%);fill-opacity:1;stroke-width:1;stroke-linecap:butt;stroke-linejoin:miter;stroke:rgb(0%,0%,0%);stroke-opacity:1;stroke-miterlimit:10;" d="M 895 256 L 924.664062 256 L 936.664062 227.785156 L 948.664062 256 L 978.332031 256 L 954.332031 273.4375 L 962.417969 304.980469 L 936.664062 287.542969 L 910.914062 304.980469 L 923.214844 273.4375 L 895 256 "/>
<path style="fill-rule:nonzero;fill:rgb(100%,51%,0%);fill-opacity:1;stroke-width:1;stroke-linecap:butt;stroke-linejoin:miter;stroke:rgb(0%,0%,0%);stroke-opacity:1;stroke-miterlimit:10;" d="M 1043 252 L 1072.664062 252 L 1084.664062 223.785156 L 1096.664062 252 L 1126.332031 252 L 1102.332031 269.4375 L 1110.417969 300.980469 L 1084.664062 283.542969 L 1058.914062 300.980469 L 1071.214844 269.4375 L 1043 252 "/>
<path style="fill-rule:nonzero;fill:rgb(100%,51%,0%);fill-opacity:1;stroke-width:1;stroke-linecap:butt;stroke-linejoin:miter;stroke:rgb(0%,0%,0%);stroke-opacity:1;stroke-miterlimit:10;" d="M 1014 422 L 1043.664062 422 L 1055.664062 393.785156 L 1067.664062 422 L 1097.332031 422 L 1073.332031 439.4375 L 1081.417969 470.980469 L 1055.664062 453.542969 L 1029.914062 470.980469 L 1042.214844 439.4375 L 1014 422 "/>
<path style="fill-rule:nonzero;fill:rgb(100%,51%,0%);fill-opacity:1;stroke-width:1;stroke-linecap:butt;stroke-linejoin:miter;stroke:rgb(0%,0%,0%);stroke-opacity:1;stroke-miterlimit:10;" d="M 327 91 L 356.664062 91 L 368.664062 62.785156 L 380.664062 91 L 410.332031 91 L 386.332031 108.4375 L 394.417969 139.980469 L 368.664062 122.542969 L 342.914062 139.980469 L 355.214844 108.4375 L 327 91 "/>
</g>
</svg>
