<?xml version="1.0" encoding="UTF-8"?>
<svg xmlns="http://www.w3.org/2000/svg" xmlns:xlink="http://www.w3.org/1999/xlink" width="1179pt" height="517pt" viewBox="0 0 1179 517" version="1.1">
<g id="surface561">
<rect x="0" y="0" width="1179" height="517" style="fill:rgb(90%,90%,90%);fill-opacity:1;stroke:none;"/>
<path style="fill-rule:nonzero;fill:rgb(35%,70%,90%);fill-opacity:1;stroke-width:1;stroke-linecap:butt;stroke-linejoin:miter;stroke:rgb(0%,0%,0%);stroke-opacity:1;stroke-miterlimit:10;" d="M 184.214844 261 C 184.214844 272.714844 174.714844 282.214844 163 282.214844 C 151.285156 282.214844 141.785156 272.714844 141.785156 261 C 141.785156 249.285156 151.285156 239.785156 163 239.785156 C 174.714844 239.785156 184.214844 249.285156 184.214844 261 "/>
<path style="fill-rule:nonzero;fill:rgb(35%,70%,90%);fill-opacity:1;stroke-width:1;stroke-linecap:butt;stroke-linejoin:miter;stroke:rgb(0%,0%,0%);stroke-opacity:1;stroke-miterlimit:10;" d="M 270.785156 247.785156 L 270.785156 290.214844 L 313.214844 290.214844 L 313.214844 247.785156 L 270.785156 247.785156 "/>
<path style="fill-rule:nonzero;fill:rgb(35%,70%,90%);fill-opacity:1;stroke-width:1;stroke-linecap:butt;stroke-linejoin:miter;stroke:rgb(0%,0%,0%);stroke-opacity:1;stroke-miterlimit:10;" d="M 424.214844 367 C 424.214844 378.714844 414.714844 388.214844 403 388.214844 C 391.285156 388.214844 381.785156 378.714844 381.785156 367 C 381.785156 355.285156 391.285156 345.785156 403 345.785156 C 414.714844 345.785156 424.214844 355.285156 424.214844 367 "/>
<path style="fill-rule:nonzero;fill:rgb(35%,70%,90%);fill-opacity:1;stroke-width:1;stroke-linecap:butt;stroke-linejoin:miter;stroke:rgb(0%,0%,0%);stroke-opacity:1;stroke-miterlimit:10;" d="M 362.785156 158.785156 L 362.785156 201.214844 L 405.214844 201.214844 L 405.214844 158.785156 L 362.785156 158.785156 "/>
<path style="fill-rule:nonzero;fill:rgb(35%,70%,90%);fill-opacity:1;stroke-width:1;stroke-linecap:butt;stroke-linejoin:miter;stroke:rgb(0%,0%,0%);stroke-opacity:1;stroke-miterlimit:10;" d="M 198.214844 400 C 198.214844 411.714844 188.714844 421.214844 177 421.214844 C 165.285156 421.214844 155.785156 411.714844 155.785156 400 C 155.785156 388.285156 165.285156 378.785156 177 378.785156 C 188.714844 378.785156 198.214844 388.285156 198.214844 400 "/>
<path style="fill-rule:nonzero;fill:rgb(100%,51%,0%);fill-opacity:1;stroke-width:1;stroke-linecap:butt;stroke-linejoin:miter;stroke:rgb(0%,0%,0%);stroke-opacity:1;stroke-miterlimit:10;" d="M 945.785156 303.785156 L 945.785156 346.214844 L 988.214844 346.214844 L 988.214844 303.785156 L 945.785156 303.785156 "/>
<path style="fill-rule:nonzero;fill:rgb(100%,51%,0%);fill-opacity:1;stroke-width:1;stroke-linecap:butt;stroke-linejoin:miter;stroke:rgb(0%,0%,0%);stroke-opacity:1;stroke-miterlimit:10;" d="M 833.214844 407 C 833.214844 418.714844 823.714844 428.214844 812 428.214844 C 800.285156 428.214844 790.785156 418.714844 790.785156 407 C 790.785156 395.285156 800.285156 385.785156 812 385.785156 C 823.714844 385.785156 833.214844 395.285156 833.214844 407 "/>
<path style="fill-rule:nonzero;fill:rgb(100%,51%,0%);fill-opacity:1;stroke-width:1;stroke-linecap:butt;stroke-linejoin:miter;stroke:rgb(0%,0%,0%);stroke-opacity:1;stroke-miterlimit:10;" d="M 749.785156 71.785156 L 749.785156 114.214844 L 792.214844 114.214844 L 792.214844 71.785156 L 749.785156 71.785156 "/>
</g>
</svg>
