<?xml version="1.0" encoding="UTF-8"?>
<svg xmlns="http://www.w3.org/2000/svg" xmlns:xlink="http://www.w3.org/1999/xlink" width="1179pt" height="517pt" viewBox="0 0 1179 517" version="1.1">
<g id="surface436">
<rect x="0" y="0" width="1179" height="517" style="fill:rgb(90%,90%,90%);fill-opacity:1;stroke:none;"/>
<path style="fill-rule:nonzero;fill:rgb(35%,70%,90%);fill-opacity:1;stroke-width:1;stroke-linecap:butt;stroke-linejoin:miter;stroke:rgb(0%,0%,0%);stroke-opacity:1;stroke-miterlimit:10;" d="M 416.214844 145 C 416.214844 156.714844 406.714844 166.214844 395 166.214844 C 383.285156 166.214844 373.785156 156.714844 373.785156 145 C 373.785156 133.285156 383.285156 123.785156 395 123.785156 C 406.714844 123.785156 416.214844 133.285156 416.214844 145 "/>
<path style="fill-rule:nonzero;fill:rgb(35%,70%,90%);fill-opacity:1;stroke-width:1;stroke-linecap:butt;stroke-linejoin:miter;stroke:rgb(0%,0%,0%);stroke-opacity:1;stroke-miterlimit:10;" d="M 252.214844 275 C 252.214844 286.714844 242.714844 296.214844 231 296.214844 C 219.285156 296.214844 209.785156 286.714844 209.785156 275 C 209.785156 263.285156 219.285156 253.785156 231 253.785156 C 242.714844 253.785156 252.214844 263.285156 252.214844 275 "/>
<path style="fill-rule:nonzero;fill:rgb(35%,70%,90%);fill-opacity:1;stroke-width:1;stroke-linecap:butt;stroke-linejoin:miter;stroke:rgb(0%,0%,0%);stroke-opacity:1;stroke-miterlimit:10;" d="M 410 360 L 384.019531 405 L 435.980469 405 L 410 360 "/>
<path style="fill-rule:nonzero;fill:rgb(55%,51%,53%);fill-opacity:1;stroke-width:1;stroke-linecap:butt;stroke-linejoin:miter;stroke:rgb(0%,0%,0%);stroke-opacity:1;stroke-miterlimit:10;" d="M 757 398 L 731.019531 443 L 782.980469 443 L 757 398 "/>
<path style="fill-rule:nonzero;fill:rgb(55%,51%,53%);fill-opacity:1;stroke-width:1;stroke-linecap:butt;stroke-linejoin:miter;stroke:rgb(0%,0%,0%);stroke-opacity:1;stroke-miterlimit:10;" d="M 793 231 L 767.019531 276 L 818.980469 276 L 793 231 "/>
<path style="fill-rule:nonzero;fill:rgb(55%,51%,53%);fill-opacity:1;stroke-width:1;stroke-linecap:butt;stroke-linejoin:miter;stroke:rgb(0%,0%,0%);stroke-opacity:1;stroke-miterlimit:10;" d="M 959.214844 335 C 959.214844 346.714844 949.714844 356.214844 938 356.214844 C 926.285156 356.214844 916.785156 346.714844 916.785156 335 C 916.785156 323.285156 926.285156 313.785156 938 313.785156 C 949.714844 313.785156 959.214844 323.285156 959.214844 335 "/>
<path style="fill-rule:nonzero;fill:rgb(55%,51%,53%);fill-opacity:1;stroke-width:1;stroke-linecap:butt;stroke-linejoin:miter;stroke:rgb(0%,0%,0%);stroke-opacity:1;stroke-miterlimit:10;" d="M 1044.214844 162 C 1044.214844 173.714844 1034.714844 183.214844 1023 183.214844 C 1011.285156 183.214844 1001.785156 173.714844 1001.785156 162 C 1001.785156 150.285156 1011.285156 140.785156 1023 140.785156 C 1034.714844 140.785156 1044.214844 150.285156 1044.214844 162 "/>
<path style="fill-rule:nonzero;fill:rgb(55%,51%,53%);fill-opacity:1;stroke-width:1;stroke-linecap:butt;stroke-linejoin:miter;stroke:rgb(0%,0%,0%);stroke-opacity:1;stroke-miterlimit:10;" d="M 904 397 L 878.019531 442 L 929.980469 442 L 904 397 "/>
</g>
</svg>
