<?xml version="1.0" encoding="UTF-8"?>
<svg xmlns="http://www.w3.org/2000/svg" xmlns:xlink="http://www.w3.org/1999/xlink" width="1179pt" height="517pt" viewBox="0 0 1179 517" version="1.1">
<g id="surface1266">
<rect x="0" y="0" width="1179" height="517" style="fill:rgb(90%,90%,90%);fill-opacity:1;stroke:none;"/>
<path style="fill-rule:nonzero;fill:rgb(55%,51%,53%);fill-opacity:1;stroke-width:1;stroke-linecap:butt;stroke-linejoin:miter;stroke:rgb(0%,0%,0%);stroke-opacity:1;stroke-miterlimit:10;" d="M 303 223 L 277.019531 268 L 328.980469 268 L 303 223 "/>
<path style="fill-rule:nonzero;fill:rgb(55%,51%,53%);fill-opacity:1;stroke-width:1;stroke-linecap:butt;stroke-linejoin:miter;stroke:rgb(0%,0%,0%);stroke-opacity:1;stroke-miterlimit:10;" d="M 984 75 L 958.019531 120 L 1009.980469 120 L 984 75 "/>
<path style="fill-rule:nonzero;fill:rgb(55%,51%,53%);fill-opacity:1;stroke-width:1;stroke-linecap:butt;stroke-linejoin:miter;stroke:rgb(0%,0%,0%);stroke-opacity:1;stroke-miterlimit:10;" d="M 896 355 L 870.019531 400 L 921.980469 400 L 896 355 "/>
<path style="fill-rule:nonzero;fill:rgb(55%,51%,53%);fill-opacity:1;stroke-width:1;stroke-linecap:butt;stroke-linejoin:miter;stroke:rgb(0%,0%,0%);stroke-opacity:1;stroke-miterlimit:10;" d="M 530 238 L 504.019531 283 L 555.980469 283 L 530 238 "/>
<path style="fill-rule:nonzero;fill:rgb(55%,51%,53%);fill-opacity:1;stroke-width:1;stroke-linecap:butt;stroke-linejoin:miter;stroke:rgb(0%,0%,0%);stroke-opacity:1;stroke-miterlimit:10;" d="M 407 129 L 381.019531 174 L 432.980469 174 L 407 129 "/>
<path style="fill-rule:nonzero;fill:rgb(35%,70%,90%);fill-opacity:1;stroke-width:1;stroke-linecap:butt;stroke-linejoin:miter;stroke:rgb(0%,0%,0%);stroke-opacity:1;stroke-miterlimit:10;" d="M 767 242 L 796.664062 242 L 808.664062 213.785156 L 820.664062 242 L 850.332031 242 L 826.332031 259.4375 L 834.417969 290.980469 L 808.664062 273.542969 L 782.914062 290.980469 L 795.214844 259.4375 L 767 242 "/>
<path style="fill-rule:nonzero;fill:rgb(35%,70%,90%);fill-opacity:1;stroke-width:1;stroke-linecap:butt;stroke-linejoin:miter;stroke:rgb(0%,0%,0%);stroke-opacity:1;stroke-miterlimit:10;" d="M 621 113 L 650.664062 113 L 662.664062 84.785156 L 674.664062 113 L 704.332031 113 L 680.332031 130.4375 L 688.417969 161.980469 L 662.664062 144.542969 L 636.914062 161.980469 L 649.214844 130.4375 L 621 113 "/>
<path style="fill-rule:nonzero;fill:rgb(35%,70%,90%);fill-opacity:1;stroke-width:1;stroke-linecap:butt;stroke-linejoin:miter;stroke:rgb(0%,0%,0%);stroke-opacity:1;stroke-miterlimit:10;" d="M 138 230 L 167.664062 230 L 179.664062 201.785156 L 191.664062 230 L 221.332031 230 L 197.332031 247.4375 L 205.417969 278.980469 L 179.664062 261.542969 L 153.914062 278.980469 L 166.214844 247.4375 L 138 230 "/>
<path style="fill-rule:nonzero;fill:rgb(35%,70%,90%);fill-opacity:1;stroke-width:1;stroke-linecap:butt;stroke-linejoin:miter;stroke:rgb(0%,0%,0%);stroke-opacity:1;stroke-miterlimit:10;" d="M 1011 316 L 1040.664062 316 L 1052.664062 287.785156 L 1064.664062 316 L 1094.332031 316 L 1070.332031 333.4375 L 1078.417969 364.980469 L 1052.664062 347.542969 L 1026.914062 364.980469 L 1039.214844 333.4375 L 1011 316 "/>
</g>
</svg>
