<?xml version="1.0" encoding="UTF-8"?>
<svg xmlns="http://www.w3.org/2000/svg" xmlns:xlink="http://www.w3.org/1999/xlink" width="1179pt" height="517pt" viewBox="0 0 1179 517" version="1.1">
<g id="surface751">
<rect x="0" y="0" width="1179" height="517" style="fill:rgb(90%,90%,90%);fill-opacity:1;stroke:none;"/>
<path style="fill-rule:nonzero;fill:rgb(55%,51%,53%);fill-opacity:1;stroke-width:1;stroke-linecap:butt;stroke-linejoin:miter;stroke:rgb(0%,0%,0%);stroke-opacity:1;stroke-miterlimit:10;" d="M 362.214844 186 C 362.214844 197.714844 352.714844 207.214844 341 207.214844 C 329.285156 207.214844 319.785156 197.714844 319.785156 186 C 319.785156 174.285156 329.285156 164.785156 341 164.785156 C 352.714844 164.785156 362.214844 174.285156 362.214844 186 "/>
<path style="fill-rule:nonzero;fill:rgb(67%,100%,18%);fill-opacity:1;stroke-width:1;stroke-linecap:butt;stroke-linejoin:miter;stroke:rgb(0%,0%,0%);stroke-opacity:1;stroke-miterlimit:10;" d="M 222.214844 100 C 222.214844 111.714844 212.714844 121.214844 201 121.214844 C 189.285156 121.214844 179.785156 111.714844 179.785156 100 C 179.785156 88.285156 189.285156 78.785156 201 78.785156 C 212.714844 78.785156 222.214844 88.285156 222.214844 100 "/>
<path style="fill-rule:nonzero;fill:rgb(55%,51%,53%);fill-opacity:1;stroke-width:1;stroke-linecap:butt;stroke-linejoin:miter;stroke:rgb(0%,0%,0%);stroke-opacity:1;stroke-miterlimit:10;" d="M 144.214844 153 C 144.214844 164.714844 134.714844 174.214844 123 174.214844 C 111.285156 174.214844 101.785156 164.714844 101.785156 153 C 101.785156 141.285156 111.285156 131.785156 123 131.785156 C 134.714844 131.785156 144.214844 141.285156 144.214844 153 "/>
<path style="fill-rule:nonzero;fill:rgb(67%,100%,18%);fill-opacity:1;stroke-width:1;stroke-linecap:butt;stroke-linejoin:miter;stroke:rgb(0%,0%,0%);stroke-opacity:1;stroke-miterlimit:10;" d="M 920 65 L 894.019531 110 L 945.980469 110 L 920 65 "/>
<path style="fill-rule:nonzero;fill:rgb(55%,51%,53%);fill-opacity:1;stroke-width:1;stroke-linecap:butt;stroke-linejoin:miter;stroke:rgb(0%,0%,0%);stroke-opacity:1;stroke-miterlimit:10;" d="M 899 330 L 873.019531 375 L 924.980469 375 L 899 330 "/>
<path style="fill-rule:nonzero;fill:rgb(67%,100%,18%);fill-opacity:1;stroke-width:1;stroke-linecap:butt;stroke-linejoin:miter;stroke:rgb(0%,0%,0%);stroke-opacity:1;stroke-miterlimit:10;" d="M 694 160 L 668.019531 205 L 719.980469 205 L 694 160 "/>
<path style="fill-rule:nonzero;fill:rgb(55%,51%,53%);fill-opacity:1;stroke-width:1;stroke-linecap:butt;stroke-linejoin:miter;stroke:rgb(0%,0%,0%);stroke-opacity:1;stroke-miterlimit:10;" d="M 807 106 L 781.019531 151 L 832.980469 151 L 807 106 "/>
</g>
</svg>
