<?xml version="1.0" encoding="UTF-8"?>
<svg xmlns="http://www.w3.org/2000/svg" xmlns:xlink="http://www.w3.org/1999/xlink" width="1179pt" height="517pt" viewBox="0 0 1179 517" version="1.1">
<g id="surface16">
<rect x="0" y="0" width="1179" height="517" style="fill:rgb(90%,90%,90%);fill-opacity:1;stroke:none;"/>
<path style="fill-rule:nonzero;fill:rgb(35%,70%,90%);fill-opacity:1;stroke-width:1;stroke-linecap:butt;stroke-linejoin:miter;stroke:rgb(0%,0%,0%);stroke-opacity:1;stroke-miterlimit:10;" d="M 109.214844 429 C 109.214844 440.714844 99.714844 450.214844 88 450.214844 C 76.285156 450.214844 66.785156 440.714844 66.785156 429 C 66.785156 417.285156 76.285156 407.785156 88 407.785156 C 99.714844 407.785156 109.214844 417.285156 109.214844 429 "/>
<path style="fill-rule:nonzero;fill:rgb(35%,70%,90%);fill-opacity:1;stroke-width:1;stroke-linecap:butt;stroke-linejoin:miter;stroke:rgb(0%,0%,0%);stroke-opacity:1;stroke-miterlimit:10;" d="M 294.214844 149 C 294.214844 160.714844 284.714844 170.214844 273 170.214844 C 261.285156 170.214844 251.785156 160.714844 251.785156 149 C 251.785156 137.285156 261.285156 127.785156 273 127.785156 C 284.714844 127.785156 294.214844 137.285156 294.214844 149 "/>
<path style="fill-rule:nonzero;fill:rgb(35%,70%,90%);fill-opacity:1;stroke-width:1;stroke-linecap:butt;stroke-linejoin:miter;stroke:rgb(0%,0%,0%);stroke-opacity:1;stroke-miterlimit:10;" d="M 193.214844 201 C 193.214844 212.714844 183.714844 222.214844 172 222.214844 C 160.285156 222.214844 150.785156 212.714844 150.785156 201 C 150.785156 189.285156 160.285156 179.785156 172 179.785156 C 183.714844 179.785156 193.214844 189.285156 193.214844 201 "/>
<path style="fill-rule:nonzero;fill:rgb(35%,70%,90%);fill-opacity:1;stroke-width:1;stroke-linecap:butt;stroke-linejoin:miter;stroke:rgb(0%,0%,0%);stroke-opacity:1;stroke-miterlimit:10;" d="M 353 213 L 327.019531 258 L 378.980469 258 L 353 213 "/>
<path style="fill-rule:nonzero;fill:rgb(35%,70%,90%);fill-opacity:1;stroke-width:1;stroke-linecap:butt;stroke-linejoin:miter;stroke:rgb(0%,0%,0%);stroke-opacity:1;stroke-miterlimit:10;" d="M 424.214844 128 C 424.214844 139.714844 414.714844 149.214844 403 149.214844 C 391.285156 149.214844 381.785156 139.714844 381.785156 128 C 381.785156 116.285156 391.285156 106.785156 403 106.785156 C 414.714844 106.785156 424.214844 116.285156 424.214844 128 "/>
<path style="fill-rule:nonzero;fill:rgb(100%,51%,0%);fill-opacity:1;stroke-width:1;stroke-linecap:butt;stroke-linejoin:miter;stroke:rgb(0%,0%,0%);stroke-opacity:1;stroke-miterlimit:10;" d="M 793 391 L 767.019531 436 L 818.980469 436 L 793 391 "/>
<path style="fill-rule:nonzero;fill:rgb(100%,51%,0%);fill-opacity:1;stroke-width:1;stroke-linecap:butt;stroke-linejoin:miter;stroke:rgb(0%,0%,0%);stroke-opacity:1;stroke-miterlimit:10;" d="M 895 335 L 869.019531 380 L 920.980469 380 L 895 335 "/>
<path style="fill-rule:nonzero;fill:rgb(100%,51%,0%);fill-opacity:1;stroke-width:1;stroke-linecap:butt;stroke-linejoin:miter;stroke:rgb(0%,0%,0%);stroke-opacity:1;stroke-miterlimit:10;" d="M 873 172 L 847.019531 217 L 898.980469 217 L 873 172 "/>
<path style="fill-rule:nonzero;fill:rgb(100%,51%,0%);fill-opacity:1;stroke-width:1;stroke-linecap:butt;stroke-linejoin:miter;stroke:rgb(0%,0%,0%);stroke-opacity:1;stroke-miterlimit:10;" d="M 923.214844 88 C 923.214844 99.714844 913.714844 109.214844 902 109.214844 C 890.285156 109.214844 880.785156 99.714844 880.785156 88 C 880.785156 76.285156 890.285156 66.785156 902 66.785156 C 913.714844 66.785156 923.214844 76.285156 923.214844 88 "/>
<path style="fill-rule:nonzero;fill:rgb(100%,51%,0%);fill-opacity:1;stroke-width:1;stroke-linecap:butt;stroke-linejoin:miter;stroke:rgb(0%,0%,0%);stroke-opacity:1;stroke-miterlimit:10;" d="M 772 251 L 746.019531 296 L 797.980469 296 L 772 251 "/>
</g>
</svg>
