<?xml version="1.0" encoding="UTF-8"?>
<svg xmlns="http://www.w3.org/2000/svg" xmlns:xlink="http://www.w3.org/1999/xlink" width="1179pt" height="517pt" viewBox="0 0 1179 517" version="1.1">
<g id="surface286">
<rect x="0" y="0" width="1179" height="517" style="fill:rgb(90%,90%,90%);fill-opacity:1;stroke:none;"/>
<path style="fill-rule:nonzero;fill:rgb(100%,51%,0%);fill-opacity:1;stroke-width:1;stroke-linecap:butt;stroke-linejoin:miter;stroke:rgb(0%,0%,0%);stroke-opacity:1;stroke-miterlimit:10;" d="M 389.214844 201 C 389.214844 212.714844 379.714844 222.214844 368 222.214844 C 356.285156 222.214844 346.785156 212.714844 346.785156 201 C 346.785156 189.285156 356.285156 179.785156 368 179.785156 C 379.714844 179.785156 389.214844 189.285156 389.214844 201 "/>
<path style="fill-rule:nonzero;fill:rgb(53%,27%,7%);fill-opacity:1;stroke-width:1;stroke-linecap:butt;stroke-linejoin:miter;stroke:rgb(0%,0%,0%);stroke-opacity:1;stroke-miterlimit:10;" d="M 227.214844 185 C 227.214844 196.714844 217.714844 206.214844 206 206.214844 C 194.285156 206.214844 184.785156 196.714844 184.785156 185 C 184.785156 173.285156 194.285156 163.785156 206 163.785156 C 217.714844 163.785156 227.214844 173.285156 227.214844 185 "/>
<path style="fill-rule:nonzero;fill:rgb(100%,51%,0%);fill-opacity:1;stroke-width:1;stroke-linecap:butt;stroke-linejoin:miter;stroke:rgb(0%,0%,0%);stroke-opacity:1;stroke-miterlimit:10;" d="M 167.214844 256 C 167.214844 267.714844 157.714844 277.214844 146 277.214844 C 134.285156 277.214844 124.785156 267.714844 124.785156 256 C 124.785156 244.285156 134.285156 234.785156 146 234.785156 C 157.714844 234.785156 167.214844 244.285156 167.214844 256 "/>
<path style="fill-rule:nonzero;fill:rgb(53%,27%,7%);fill-opacity:1;stroke-width:1;stroke-linecap:butt;stroke-linejoin:miter;stroke:rgb(0%,0%,0%);stroke-opacity:1;stroke-miterlimit:10;" d="M 935 145 L 909.019531 190 L 960.980469 190 L 935 145 "/>
<path style="fill-rule:nonzero;fill:rgb(100%,51%,0%);fill-opacity:1;stroke-width:1;stroke-linecap:butt;stroke-linejoin:miter;stroke:rgb(0%,0%,0%);stroke-opacity:1;stroke-miterlimit:10;" d="M 875 258 L 849.019531 303 L 900.980469 303 L 875 258 "/>
<path style="fill-rule:nonzero;fill:rgb(53%,27%,7%);fill-opacity:1;stroke-width:1;stroke-linecap:butt;stroke-linejoin:miter;stroke:rgb(0%,0%,0%);stroke-opacity:1;stroke-miterlimit:10;" d="M 950 342 L 924.019531 387 L 975.980469 387 L 950 342 "/>
<path style="fill-rule:nonzero;fill:rgb(100%,51%,0%);fill-opacity:1;stroke-width:1;stroke-linecap:butt;stroke-linejoin:miter;stroke:rgb(0%,0%,0%);stroke-opacity:1;stroke-miterlimit:10;" d="M 797 83 L 771.019531 128 L 822.980469 128 L 797 83 "/>
<path style="fill-rule:nonzero;fill:rgb(53%,27%,7%);fill-opacity:1;stroke-width:1;stroke-linecap:butt;stroke-linejoin:miter;stroke:rgb(0%,0%,0%);stroke-opacity:1;stroke-miterlimit:10;" d="M 1042 267 L 1016.019531 312 L 1067.980469 312 L 1042 267 "/>
</g>
</svg>
