<?xml version="1.0" encoding="UTF-8"?>
<svg xmlns="http://www.w3.org/2000/svg" xmlns:xlink="http://www.w3.org/1999/xlink" width="1179pt" height="517pt" viewBox="0 0 1179 517" version="1.1">
<g id="surface956">
<rect x="0" y="0" width="1179" height="517" style="fill:rgb(90%,90%,90%);fill-opacity:1;stroke:none;"/>
<path style="fill-rule:nonzero;fill:rgb(35%,70%,90%);fill-opacity:1;stroke-width:1;stroke-linecap:butt;stroke-linejoin:miter;stroke:rgb(0%,0%,0%);stroke-opacity:1;stroke-miterlimit:10;" d="M 883 278 L 912.664062 278 L 924.664062 249.785156 L 936.664062 278 L 966.332031 278 L 942.332031 295.4375 L 950.417969 326.980469 L 924.664062 309.542969 L 898.914062 326.980469 L 911.214844 295.4375 L 883 278 "/>
<path style="fill-rule:nonzero;fill:rgb(35%,70%,90%);fill-opacity:1;stroke-width:1;stroke-linecap:butt;stroke-linejoin:miter;stroke:rgb(0%,0%,0%);stroke-opacity:1;stroke-miterlimit:10;" d="M 740 134 L 769.664062 134 L 781.664062 105.785156 L 793.664062 134 L 823.332031 134 L 799.332031 151.4375 L 807.417969 182.980469 L 781.664062 165.542969 L 755.914062 182.980469 L 768.214844 151.4375 L 740 134 "/>
<path style="fill-rule:nonzero;fill:rgb(35%,70%,90%);fill-opacity:1;stroke-width:1;stroke-linecap:butt;stroke-linejoin:miter;stroke:rgb(0%,0%,0%);stroke-opacity:1;stroke-miterlimit:10;" d="M 185 189 L 214.664062 189 L 226.664062 160.785156 L 238.664062 189 L 268.332031 189 L 244.332031 206.4375 L 252.417969 237.980469 L 226.664062 220.542969 L 200.914062 237.980469 L 213.214844 206.4375 L 185 189 "/>
<path style="fill-rule:nonzero;fill:rgb(35%,70%,90%);fill-opacity:1;stroke-width:1;stroke-linecap:butt;stroke-linejoin:miter;stroke:rgb(0%,0%,0%);stroke-opacity:1;stroke-miterlimit:10;" d="M 966 137 L 995.664062 137 L 1007.664062 108.785156 L 1019.664062 137 L 1049.332031 137 L 1025.332031 154.4375 L 1033.417969 185.980469 L 1007.664062 168.542969 L 981.914062 185.980469 L 994.214844 154.4375 L 966 137 "/>
<path style="fill-rule:nonzero;fill:rgb(55%,51%,53%);fill-opacity:1;stroke-width:1;stroke-linecap:butt;stroke-linejoin:miter;stroke:rgb(0%,0%,0%);stroke-opacity:1;stroke-miterlimit:10;" d="M 628.214844 196 C 628.214844 207.714844 618.714844 217.214844 607 217.214844 C 595.285156 217.214844 585.785156 207.714844 585.785156 196 C 585.785156 184.285156 595.285156 174.785156 607 174.785156 C 618.714844 174.785156 628.214844 184.285156 628.214844 196 "/>
<path style="fill-rule:nonzero;fill:rgb(55%,51%,53%);fill-opacity:1;stroke-width:1;stroke-linecap:butt;stroke-linejoin:miter;stroke:rgb(0%,0%,0%);stroke-opacity:1;stroke-miterlimit:10;" d="M 114.214844 336 C 114.214844 347.714844 104.714844 357.214844 93 357.214844 C 81.285156 357.214844 71.785156 347.714844 71.785156 336 C 71.785156 324.285156 81.285156 314.785156 93 314.785156 C 104.714844 314.785156 114.214844 324.285156 114.214844 336 "/>
<path style="fill-rule:nonzero;fill:rgb(55%,51%,53%);fill-opacity:1;stroke-width:1;stroke-linecap:butt;stroke-linejoin:miter;stroke:rgb(0%,0%,0%);stroke-opacity:1;stroke-miterlimit:10;" d="M 500.214844 214 C 500.214844 225.714844 490.714844 235.214844 479 235.214844 C 467.285156 235.214844 457.785156 225.714844 457.785156 214 C 457.785156 202.285156 467.285156 192.785156 479 192.785156 C 490.714844 192.785156 500.214844 202.285156 500.214844 214 "/>
<path style="fill-rule:nonzero;fill:rgb(55%,51%,53%);fill-opacity:1;stroke-width:1;stroke-linecap:butt;stroke-linejoin:miter;stroke:rgb(0%,0%,0%);stroke-opacity:1;stroke-miterlimit:10;" d="M 774.214844 424 C 774.214844 435.714844 764.714844 445.214844 753 445.214844 C 741.285156 445.214844 731.785156 435.714844 731.785156 424 C 731.785156 412.285156 741.285156 402.785156 753 402.785156 C 764.714844 402.785156 774.214844 412.285156 774.214844 424 "/>
</g>
</svg>
