<?xml version="1.0" encoding="UTF-8"?>
<svg xmlns="http://www.w3.org/2000/svg" xmlns:xlink="http://www.w3.org/1999/xlink" width="1179pt" height="517pt" viewBox="0 0 1179 517" version="1.1">
<g id="surface1341">
<rect x="0" y="0" width="1179" height="517" style="fill:rgb(90%,90%,90%);fill-opacity:1;stroke:none;"/>
<path style="fill-rule:nonzero;fill:rgb(55%,51%,53%);fill-opacity:1;stroke-width:1;stroke-linecap:butt;stroke-linejoin:miter;stroke:rgb(0%,0%,0%);stroke-opacity:1;stroke-miterlimit:10;" d="M 906 350 L 935.664062 350 L 947.664062 321.785156 L 959.664062 350 L 989.332031 350 L 965.332031 367.4375 L 973.417969 398.980469 L 947.664062 381.542969 L 921.914062 398.980469 L 934.214844 367.4375 L 906 350 "/>
<path style="fill-rule:nonzero;fill:rgb(55%,51%,53%);fill-opacity:1;stroke-width:1;stroke-linecap:butt;stroke-linejoin:miter;stroke:rgb(0%,0%,0%);stroke-opacity:1;stroke-miterlimit:10;" d="M 1021 264 L 1050.664062 264 L 1062.664062 235.785156 L 1074.664062 264 L 1104.332031 264 L 1080.332031 281.4375 L 1088.417969 312.980469 L 1062.664062 295.542969 L 1036.914062 312.980469 L 1049.214844 281.4375 L 1021 264 "/>
<path style="fill-rule:nonzero;fill:rgb(55%,51%,53%);fill-opacity:1;stroke-width:1;stroke-linecap:butt;stroke-linejoin:miter;stroke:rgb(0%,0%,0%);stroke-opacity:1;stroke-miterlimit:10;" d="M 633 257 L 662.664062 257 L 674.664062 228.785156 L 686.664062 257 L 716.332031 257 L 692.332031 274.4375 L 700.417969 305.980469 L 674.664062 288.542969 L 648.914062 305.980469 L 661.214844 274.4375 L 633 257 "/>
<path style="fill-rule:nonzero;fill:rgb(55%,51%,53%);fill-opacity:1;stroke-width:1;stroke-linecap:butt;stroke-linejoin:miter;stroke:rgb(0%,0%,0%);stroke-opacity:1;stroke-miterlimit:10;" d="M 139 116 L 168.664062 116 L 180.664062 87.785156 L 192.664062 116 L 222.332031 116 L 198.332031 133.4375 L 206.417969 164.980469 L 180.664062 147.542969 L 154.914062 164.980469 L 167.214844 133.4375 L 139 116 "/>
<path style="fill-rule:nonzero;fill:rgb(100%,51%,0%);fill-opacity:1;stroke-width:1;stroke-linecap:butt;stroke-linejoin:miter;stroke:rgb(0%,0%,0%);stroke-opacity:1;stroke-miterlimit:10;" d="M 934.214844 178 C 934.214844 189.714844 924.714844 199.214844 913 199.214844 C 901.285156 199.214844 891.785156 189.714844 891.785156 178 C 891.785156 166.285156 901.285156 156.785156 913 156.785156 C 924.714844 156.785156 934.214844 166.285156 934.214844 178 "/>
<path style="fill-rule:nonzero;fill:rgb(100%,51%,0%);fill-opacity:1;stroke-width:1;stroke-linecap:butt;stroke-linejoin:miter;stroke:rgb(0%,0%,0%);stroke-opacity:1;stroke-miterlimit:10;" d="M 414.214844 162 C 414.214844 173.714844 404.714844 183.214844 393 183.214844 C 381.285156 183.214844 371.785156 173.714844 371.785156 162 C 371.785156 150.285156 381.285156 140.785156 393 140.785156 C 404.714844 140.785156 414.214844 150.285156 414.214844 162 "/>
<path style="fill-rule:nonzero;fill:rgb(100%,51%,0%);fill-opacity:1;stroke-width:1;stroke-linecap:butt;stroke-linejoin:miter;stroke:rgb(0%,0%,0%);stroke-opacity:1;stroke-miterlimit:10;" d="M 319.214844 381 C 319.214844 392.714844 309.714844 402.214844 298 402.214844 C 286.285156 402.214844 276.785156 392.714844 276.785156 381 C 276.785156 369.285156 286.285156 359.785156 298 359.785156 C 309.714844 359.785156 319.214844 369.285156 319.214844 381 "/>
<path style="fill-rule:nonzero;fill:rgb(100%,51%,0%);fill-opacity:1;stroke-width:1;stroke-linecap:butt;stroke-linejoin:miter;stroke:rgb(0%,0%,0%);stroke-opacity:1;stroke-miterlimit:10;" d="M 149.214844 297 C 149.214844 308.714844 139.714844 318.214844 128 318.214844 C 116.285156 318.214844 106.785156 308.714844 106.785156 297 C 106.785156 285.285156 116.285156 275.785156 128 275.785156 C 139.714844 275.785156 149.214844 285.285156 149.214844 297 "/>
<path style="fill-rule:nonzero;fill:rgb(100%,51%,0%);fill-opacity:1;stroke-width:1;stroke-linecap:butt;stroke-linejoin:miter;stroke:rgb(0%,0%,0%);stroke-opacity:1;stroke-miterlimit:10;" d="M 495.214844 427 C 495.214844 438.714844 485.714844 448.214844 474 448.214844 C 462.285156 448.214844 452.785156 438.714844 452.785156 427 C 452.785156 415.285156 462.285156 405.785156 474 405.785156 C 485.714844 405.785156 495.214844 415.285156 495.214844 427 "/>
</g>
</svg>
