<?xml version="1.0" encoding="UTF-8"?>
<svg xmlns="http://www.w3.org/2000/svg" xmlns:xlink="http://www.w3.org/1999/xlink" width="1179pt" height="517pt" viewBox="0 0 1179 517" version="1.1">
<g id="surface821">
<rect x="0" y="0" width="1179" height="517" style="fill:rgb(90%,90%,90%);fill-opacity:1;stroke:none;"/>
<path style="fill-rule:nonzero;fill:rgb(35%,70%,90%);fill-opacity:1;stroke-width:1;stroke-linecap:butt;stroke-linejoin:miter;stroke:rgb(0%,0%,0%);stroke-opacity:1;stroke-miterlimit:10;" d="M 704 168 L 733.664062 168 L 745.664062 139.785156 L 757.664062 168 L 787.332031 168 L 763.332031 185.4375 L 771.417969 216.980469 L 745.664062 199.542969 L 719.914062 216.980469 L 732.214844 185.4375 L 704 168 "/>
<path style="fill-rule:nonzero;fill:rgb(35%,70%,90%);fill-opacity:1;stroke-width:1;stroke-linecap:butt;stroke-linejoin:miter;stroke:rgb(0%,0%,0%);stroke-opacity:1;stroke-miterlimit:10;" d="M 124 92 L 153.664062 92 L 165.664062 63.785156 L 177.664062 92 L 207.332031 92 L 183.332031 109.4375 L 191.417969 140.980469 L 165.664062 123.542969 L 139.914062 140.980469 L 152.214844 109.4375 L 124 92 "/>
<path style="fill-rule:nonzero;fill:rgb(35%,70%,90%);fill-opacity:1;stroke-width:1;stroke-linecap:butt;stroke-linejoin:miter;stroke:rgb(0%,0%,0%);stroke-opacity:1;stroke-miterlimit:10;" d="M 239 195 L 268.664062 195 L 280.664062 166.785156 L 292.664062 195 L 322.332031 195 L 298.332031 212.4375 L 306.417969 243.980469 L 280.664062 226.542969 L 254.914062 243.980469 L 267.214844 212.4375 L 239 195 "/>
<path style="fill-rule:nonzero;fill:rgb(35%,70%,90%);fill-opacity:1;stroke-width:1;stroke-linecap:butt;stroke-linejoin:miter;stroke:rgb(0%,0%,0%);stroke-opacity:1;stroke-miterlimit:10;" d="M 963 161 L 992.664062 161 L 1004.664062 132.785156 L 1016.664062 161 L 1046.332031 161 L 1022.332031 178.4375 L 1030.417969 209.980469 L 1004.664062 192.542969 L 978.914062 209.980469 L 991.214844 178.4375 L 963 161 "/>
<path style="fill-rule:nonzero;fill:rgb(55%,51%,53%);fill-opacity:1;stroke-width:1;stroke-linecap:butt;stroke-linejoin:miter;stroke:rgb(0%,0%,0%);stroke-opacity:1;stroke-miterlimit:10;" d="M 533.214844 122 C 533.214844 133.714844 523.714844 143.214844 512 143.214844 C 500.285156 143.214844 490.785156 133.714844 490.785156 122 C 490.785156 110.285156 500.285156 100.785156 512 100.785156 C 523.714844 100.785156 533.214844 110.285156 533.214844 122 "/>
<path style="fill-rule:nonzero;fill:rgb(55%,51%,53%);fill-opacity:1;stroke-width:1;stroke-linecap:butt;stroke-linejoin:miter;stroke:rgb(0%,0%,0%);stroke-opacity:1;stroke-miterlimit:10;" d="M 786.214844 425 C 786.214844 436.714844 776.714844 446.214844 765 446.214844 C 753.285156 446.214844 743.785156 436.714844 743.785156 425 C 743.785156 413.285156 753.285156 403.785156 765 403.785156 C 776.714844 403.785156 786.214844 413.285156 786.214844 425 "/>
<path style="fill-rule:nonzero;fill:rgb(55%,51%,53%);fill-opacity:1;stroke-width:1;stroke-linecap:butt;stroke-linejoin:miter;stroke:rgb(0%,0%,0%);stroke-opacity:1;stroke-miterlimit:10;" d="M 653.214844 293 C 653.214844 304.714844 643.714844 314.214844 632 314.214844 C 620.285156 314.214844 610.785156 304.714844 610.785156 293 C 610.785156 281.285156 620.285156 271.785156 632 271.785156 C 643.714844 271.785156 653.214844 281.285156 653.214844 293 "/>
<path style="fill-rule:nonzero;fill:rgb(55%,51%,53%);fill-opacity:1;stroke-width:1;stroke-linecap:butt;stroke-linejoin:miter;stroke:rgb(0%,0%,0%);stroke-opacity:1;stroke-miterlimit:10;" d="M 426.214844 329 C 426.214844 340.714844 416.714844 350.214844 405 350.214844 C 393.285156 350.214844 383.785156 340.714844 383.785156 329 C 383.785156 317.285156 393.285156 307.785156 405 307.785156 C 416.714844 307.785156 426.214844 317.285156 426.214844 329 "/>
<path style="fill-rule:nonzero;fill:rgb(55%,51%,53%);fill-opacity:1;stroke-width:1;stroke-linecap:butt;stroke-linejoin:miter;stroke:rgb(0%,0%,0%);stroke-opacity:1;stroke-miterlimit:10;" d="M 822.214844 243 C 822.214844 254.714844 812.714844 264.214844 801 264.214844 C 789.285156 264.214844 779.785156 254.714844 779.785156 243 C 779.785156 231.285156 789.285156 221.785156 801 221.785156 C 812.714844 221.785156 822.214844 231.285156 822.214844 243 "/>
</g>
</svg>
