<?xml version="1.0" encoding="UTF-8"?>
<svg xmlns="http://www.w3.org/2000/svg" xmlns:xlink="http://www.w3.org/1999/xlink" width="1179pt" height="517pt" viewBox="0 0 1179 517" version="1.1">
<g id="surface851">
<rect x="0" y="0" width="1179" height="517" style="fill:rgb(90%,90%,90%);fill-opacity:1;stroke:none;"/>
<path style="fill-rule:nonzero;fill:rgb(53%,27%,7%);fill-opacity:1;stroke-width:1;stroke-linecap:butt;stroke-linejoin:miter;stroke:rgb(0%,0%,0%);stroke-opacity:1;stroke-miterlimit:10;" d="M 143 349.601562 C 143 335.199219 119 335.199219 119 349.601562 C 119 364 143 366.398438 143 378.398438 C 143 366.398438 167 364 167 349.601562 C 167 335.199219 143 335.199219 143 349.601562 "/>
<path style="fill-rule:nonzero;fill:rgb(53%,27%,7%);fill-opacity:1;stroke-width:1;stroke-linecap:butt;stroke-linejoin:miter;stroke:rgb(0%,0%,0%);stroke-opacity:1;stroke-miterlimit:10;" d="M 287.214844 295 C 287.214844 306.714844 277.714844 316.214844 266 316.214844 C 254.285156 316.214844 244.785156 306.714844 244.785156 295 C 244.785156 283.285156 254.285156 273.785156 266 273.785156 C 277.714844 273.785156 287.214844 283.285156 287.214844 295 "/>
<path style="fill-rule:nonzero;fill:rgb(53%,27%,7%);fill-opacity:1;stroke-width:1;stroke-linecap:butt;stroke-linejoin:miter;stroke:rgb(0%,0%,0%);stroke-opacity:1;stroke-miterlimit:10;" d="M 277 94.601562 C 277 80.199219 253 80.199219 253 94.601562 C 253 109 277 111.398438 277 123.398438 C 277 111.398438 301 109 301 94.601562 C 301 80.199219 277 80.199219 277 94.601562 "/>
<path style="fill-rule:nonzero;fill:rgb(53%,27%,7%);fill-opacity:1;stroke-width:1;stroke-linecap:butt;stroke-linejoin:miter;stroke:rgb(0%,0%,0%);stroke-opacity:1;stroke-miterlimit:10;" d="M 208.214844 161 C 208.214844 172.714844 198.714844 182.214844 187 182.214844 C 175.285156 182.214844 165.785156 172.714844 165.785156 161 C 165.785156 149.285156 175.285156 139.785156 187 139.785156 C 198.714844 139.785156 208.214844 149.285156 208.214844 161 "/>
<path style="fill-rule:nonzero;fill:rgb(100%,51%,0%);fill-opacity:1;stroke-width:1;stroke-linecap:butt;stroke-linejoin:miter;stroke:rgb(0%,0%,0%);stroke-opacity:1;stroke-miterlimit:10;" d="M 855.214844 99 C 855.214844 110.714844 845.714844 120.214844 834 120.214844 C 822.285156 120.214844 812.785156 110.714844 812.785156 99 C 812.785156 87.285156 822.285156 77.785156 834 77.785156 C 845.714844 77.785156 855.214844 87.285156 855.214844 99 "/>
<path style="fill-rule:nonzero;fill:rgb(100%,51%,0%);fill-opacity:1;stroke-width:1;stroke-linecap:butt;stroke-linejoin:miter;stroke:rgb(0%,0%,0%);stroke-opacity:1;stroke-miterlimit:10;" d="M 819 300.601562 C 819 286.199219 795 286.199219 795 300.601562 C 795 315 819 317.398438 819 329.398438 C 819 317.398438 843 315 843 300.601562 C 843 286.199219 819 286.199219 819 300.601562 "/>
<path style="fill-rule:nonzero;fill:rgb(100%,51%,0%);fill-opacity:1;stroke-width:1;stroke-linecap:butt;stroke-linejoin:miter;stroke:rgb(0%,0%,0%);stroke-opacity:1;stroke-miterlimit:10;" d="M 1059.214844 377 C 1059.214844 388.714844 1049.714844 398.214844 1038 398.214844 C 1026.285156 398.214844 1016.785156 388.714844 1016.785156 377 C 1016.785156 365.285156 1026.285156 355.785156 1038 355.785156 C 1049.714844 355.785156 1059.214844 365.285156 1059.214844 377 "/>
</g>
</svg>
