<?xml version="1.0" encoding="UTF-8"?>
<svg xmlns="http://www.w3.org/2000/svg" xmlns:xlink="http://www.w3.org/1999/xlink" width="1179pt" height="517pt" viewBox="0 0 1179 517" version="1.1">
<g id="surface291">
<rect x="0" y="0" width="1179" height="517" style="fill:rgb(90%,90%,90%);fill-opacity:1;stroke:none;"/>
<path style="fill-rule:nonzero;fill:rgb(100%,51%,0%);fill-opacity:1;stroke-width:1;stroke-linecap:butt;stroke-linejoin:miter;stroke:rgb(0%,0%,0%);stroke-opacity:1;stroke-miterlimit:10;" d="M 170.214844 165 C 170.214844 176.714844 160.714844 186.214844 149 186.214844 C 137.285156 186.214844 127.785156 176.714844 127.785156 165 C 127.785156 153.285156 137.285156 143.785156 149 143.785156 C 160.714844 143.785156 170.214844 153.285156 170.214844 165 "/>
<path style="fill-rule:nonzero;fill:rgb(100%,51%,0%);fill-opacity:1;stroke-width:1;stroke-linecap:butt;stroke-linejoin:miter;stroke:rgb(0%,0%,0%);stroke-opacity:1;stroke-miterlimit:10;" d="M 288.785156 401.785156 L 288.785156 444.214844 L 331.214844 444.214844 L 331.214844 401.785156 L 288.785156 401.785156 "/>
<path style="fill-rule:nonzero;fill:rgb(100%,51%,0%);fill-opacity:1;stroke-width:1;stroke-linecap:butt;stroke-linejoin:miter;stroke:rgb(0%,0%,0%);stroke-opacity:1;stroke-miterlimit:10;" d="M 232.785156 128.785156 L 232.785156 171.214844 L 275.214844 171.214844 L 275.214844 128.785156 L 232.785156 128.785156 "/>
<path style="fill-rule:nonzero;fill:rgb(100%,51%,0%);fill-opacity:1;stroke-width:1;stroke-linecap:butt;stroke-linejoin:miter;stroke:rgb(0%,0%,0%);stroke-opacity:1;stroke-miterlimit:10;" d="M 301.214844 336 C 301.214844 347.714844 291.714844 357.214844 280 357.214844 C 268.285156 357.214844 258.785156 347.714844 258.785156 336 C 258.785156 324.285156 268.285156 314.785156 280 314.785156 C 291.714844 314.785156 301.214844 324.285156 301.214844 336 "/>
<path style="fill-rule:nonzero;fill:rgb(100%,51%,0%);fill-opacity:1;stroke-width:1;stroke-linecap:butt;stroke-linejoin:miter;stroke:rgb(0%,0%,0%);stroke-opacity:1;stroke-miterlimit:10;" d="M 228.214844 244 C 228.214844 255.714844 218.714844 265.214844 207 265.214844 C 195.285156 265.214844 185.785156 255.714844 185.785156 244 C 185.785156 232.285156 195.285156 222.785156 207 222.785156 C 218.714844 222.785156 228.214844 232.285156 228.214844 244 "/>
<path style="fill-rule:nonzero;fill:rgb(53%,27%,7%);fill-opacity:1;stroke-width:1;stroke-linecap:butt;stroke-linejoin:miter;stroke:rgb(0%,0%,0%);stroke-opacity:1;stroke-miterlimit:10;" d="M 858.785156 322.785156 L 858.785156 365.214844 L 901.214844 365.214844 L 901.214844 322.785156 L 858.785156 322.785156 "/>
<path style="fill-rule:nonzero;fill:rgb(53%,27%,7%);fill-opacity:1;stroke-width:1;stroke-linecap:butt;stroke-linejoin:miter;stroke:rgb(0%,0%,0%);stroke-opacity:1;stroke-miterlimit:10;" d="M 956.214844 191 C 956.214844 202.714844 946.714844 212.214844 935 212.214844 C 923.285156 212.214844 913.785156 202.714844 913.785156 191 C 913.785156 179.285156 923.285156 169.785156 935 169.785156 C 946.714844 169.785156 956.214844 179.285156 956.214844 191 "/>
<path style="fill-rule:nonzero;fill:rgb(53%,27%,7%);fill-opacity:1;stroke-width:1;stroke-linecap:butt;stroke-linejoin:miter;stroke:rgb(0%,0%,0%);stroke-opacity:1;stroke-miterlimit:10;" d="M 802.214844 210 C 802.214844 221.714844 792.714844 231.214844 781 231.214844 C 769.285156 231.214844 759.785156 221.714844 759.785156 210 C 759.785156 198.285156 769.285156 188.785156 781 188.785156 C 792.714844 188.785156 802.214844 198.285156 802.214844 210 "/>
<path style="fill-rule:nonzero;fill:rgb(53%,27%,7%);fill-opacity:1;stroke-width:1;stroke-linecap:butt;stroke-linejoin:miter;stroke:rgb(0%,0%,0%);stroke-opacity:1;stroke-miterlimit:10;" d="M 674.785156 137.785156 L 674.785156 180.214844 L 717.214844 180.214844 L 717.214844 137.785156 L 674.785156 137.785156 "/>
</g>
</svg>
