<?xml version="1.0" encoding="UTF-8"?>
<svg xmlns="http://www.w3.org/2000/svg" xmlns:xlink="http://www.w3.org/1999/xlink" width="1179pt" height="517pt" viewBox="0 0 1179 517" version="1.1">
<g id="surface16">
<rect x="0" y="0" width="1179" height="517" style="fill:rgb(90%,90%,90%);fill-opacity:1;stroke:none;"/>
<path style="fill-rule:nonzero;fill:rgb(35%,70%,90%);fill-opacity:1;stroke-width:1;stroke-linecap:butt;stroke-linejoin:miter;stroke:rgb(0%,0%,0%);stroke-opacity:1;stroke-miterlimit:10;" d="M 389.214844 430 C 389.214844 441.714844 379.714844 451.214844 368 451.214844 C 356.285156 451.214844 346.785156 441.714844 346.785156 430 C 346.785156 418.285156 356.285156 408.785156 368 408.785156 C 379.714844 408.785156 389.214844 418.285156 389.214844 430 "/>
<path style="fill-rule:nonzero;fill:rgb(35%,70%,90%);fill-opacity:1;stroke-width:1;stroke-linecap:butt;stroke-linejoin:miter;stroke:rgb(0%,0%,0%);stroke-opacity:1;stroke-miterlimit:10;" d="M 345 265 L 319.019531 310 L 370.980469 310 L 345 265 "/>
<path style="fill-rule:nonzero;fill:rgb(35%,70%,90%);fill-opacity:1;stroke-width:1;stroke-linecap:butt;stroke-linejoin:miter;stroke:rgb(0%,0%,0%);stroke-opacity:1;stroke-miterlimit:10;" d="M 292.214844 126 C 292.214844 137.714844 282.714844 147.214844 271 147.214844 C 259.285156 147.214844 249.785156 137.714844 249.785156 126 C 249.785156 114.285156 259.285156 104.785156 271 104.785156 C 282.714844 104.785156 292.214844 114.285156 292.214844 126 "/>
<path style="fill-rule:nonzero;fill:rgb(35%,70%,90%);fill-opacity:1;stroke-width:1;stroke-linecap:butt;stroke-linejoin:miter;stroke:rgb(0%,0%,0%);stroke-opacity:1;stroke-miterlimit:10;" d="M 226 332 L 200.019531 377 L 251.980469 377 L 226 332 "/>
<path style="fill-rule:nonzero;fill:rgb(35%,70%,90%);fill-opacity:1;stroke-width:1;stroke-linecap:butt;stroke-linejoin:miter;stroke:rgb(0%,0%,0%);stroke-opacity:1;stroke-miterlimit:10;" d="M 178.214844 156 C 178.214844 167.714844 168.714844 177.214844 157 177.214844 C 145.285156 177.214844 135.785156 167.714844 135.785156 156 C 135.785156 144.285156 145.285156 134.785156 157 134.785156 C 168.714844 134.785156 178.214844 144.285156 178.214844 156 "/>
<path style="fill-rule:nonzero;fill:rgb(100%,51%,0%);fill-opacity:1;stroke-width:1;stroke-linecap:butt;stroke-linejoin:miter;stroke:rgb(0%,0%,0%);stroke-opacity:1;stroke-miterlimit:10;" d="M 907 225 L 881.019531 270 L 932.980469 270 L 907 225 "/>
<path style="fill-rule:nonzero;fill:rgb(100%,51%,0%);fill-opacity:1;stroke-width:1;stroke-linecap:butt;stroke-linejoin:miter;stroke:rgb(0%,0%,0%);stroke-opacity:1;stroke-miterlimit:10;" d="M 1001.214844 390 C 1001.214844 401.714844 991.714844 411.214844 980 411.214844 C 968.285156 411.214844 958.785156 401.714844 958.785156 390 C 958.785156 378.285156 968.285156 368.785156 980 368.785156 C 991.714844 368.785156 1001.214844 378.285156 1001.214844 390 "/>
<path style="fill-rule:nonzero;fill:rgb(100%,51%,0%);fill-opacity:1;stroke-width:1;stroke-linecap:butt;stroke-linejoin:miter;stroke:rgb(0%,0%,0%);stroke-opacity:1;stroke-miterlimit:10;" d="M 1024 214 L 998.019531 259 L 1049.980469 259 L 1024 214 "/>
<path style="fill-rule:nonzero;fill:rgb(100%,51%,0%);fill-opacity:1;stroke-width:1;stroke-linecap:butt;stroke-linejoin:miter;stroke:rgb(0%,0%,0%);stroke-opacity:1;stroke-miterlimit:10;" d="M 742.214844 127 C 742.214844 138.714844 732.714844 148.214844 721 148.214844 C 709.285156 148.214844 699.785156 138.714844 699.785156 127 C 699.785156 115.285156 709.285156 105.785156 721 105.785156 C 732.714844 105.785156 742.214844 115.285156 742.214844 127 "/>
<path style="fill-rule:nonzero;fill:rgb(100%,51%,0%);fill-opacity:1;stroke-width:1;stroke-linecap:butt;stroke-linejoin:miter;stroke:rgb(0%,0%,0%);stroke-opacity:1;stroke-miterlimit:10;" d="M 814 117 L 788.019531 162 L 839.980469 162 L 814 117 "/>
</g>
</svg>
