<?xml version="1.0" encoding="UTF-8"?>
<svg xmlns="http://www.w3.org/2000/svg" xmlns:xlink="http://www.w3.org/1999/xlink" width="1179pt" height="517pt" viewBox="0 0 1179 517" version="1.1">
<g id="surface131">
<rect x="0" y="0" width="1179" height="517" style="fill:rgb(90%,90%,90%);fill-opacity:1;stroke:none;"/>
<path style="fill-rule:nonzero;fill:rgb(100%,51%,0%);fill-opacity:1;stroke-width:1;stroke-linecap:butt;stroke-linejoin:miter;stroke:rgb(0%,0%,0%);stroke-opacity:1;stroke-miterlimit:10;" d="M 372 129 L 401.664062 129 L 413.664062 100.785156 L 425.664062 129 L 455.332031 129 L 431.332031 146.4375 L 439.417969 177.980469 L 413.664062 160.542969 L 387.914062 177.980469 L 400.214844 146.4375 L 372 129 "/>
<path style="fill-rule:nonzero;fill:rgb(100%,51%,0%);fill-opacity:1;stroke-width:1;stroke-linecap:butt;stroke-linejoin:miter;stroke:rgb(0%,0%,0%);stroke-opacity:1;stroke-miterlimit:10;" d="M 179 266 L 208.664062 266 L 220.664062 237.785156 L 232.664062 266 L 262.332031 266 L 238.332031 283.4375 L 246.417969 314.980469 L 220.664062 297.542969 L 194.914062 314.980469 L 207.214844 283.4375 L 179 266 "/>
<path style="fill-rule:nonzero;fill:rgb(100%,51%,0%);fill-opacity:1;stroke-width:1;stroke-linecap:butt;stroke-linejoin:miter;stroke:rgb(0%,0%,0%);stroke-opacity:1;stroke-miterlimit:10;" d="M 316.785156 376.785156 L 316.785156 419.214844 L 359.214844 419.214844 L 359.214844 376.785156 L 316.785156 376.785156 "/>
<path style="fill-rule:nonzero;fill:rgb(100%,51%,0%);fill-opacity:1;stroke-width:1;stroke-linecap:butt;stroke-linejoin:miter;stroke:rgb(0%,0%,0%);stroke-opacity:1;stroke-miterlimit:10;" d="M 329 266 L 358.664062 266 L 370.664062 237.785156 L 382.664062 266 L 412.332031 266 L 388.332031 283.4375 L 396.417969 314.980469 L 370.664062 297.542969 L 344.914062 314.980469 L 357.214844 283.4375 L 329 266 "/>
<path style="fill-rule:nonzero;fill:rgb(100%,51%,0%);fill-opacity:1;stroke-width:1;stroke-linecap:butt;stroke-linejoin:miter;stroke:rgb(0%,0%,0%);stroke-opacity:1;stroke-miterlimit:10;" d="M 100 219 L 129.664062 219 L 141.664062 190.785156 L 153.664062 219 L 183.332031 219 L 159.332031 236.4375 L 167.417969 267.980469 L 141.664062 250.542969 L 115.914062 267.980469 L 128.214844 236.4375 L 100 219 "/>
<path style="fill-rule:nonzero;fill:rgb(55%,51%,53%);fill-opacity:1;stroke-width:1;stroke-linecap:butt;stroke-linejoin:miter;stroke:rgb(0%,0%,0%);stroke-opacity:1;stroke-miterlimit:10;" d="M 795.785156 125.785156 L 795.785156 168.214844 L 838.214844 168.214844 L 838.214844 125.785156 L 795.785156 125.785156 "/>
<path style="fill-rule:nonzero;fill:rgb(55%,51%,53%);fill-opacity:1;stroke-width:1;stroke-linecap:butt;stroke-linejoin:miter;stroke:rgb(0%,0%,0%);stroke-opacity:1;stroke-miterlimit:10;" d="M 927.785156 408.785156 L 927.785156 451.214844 L 970.214844 451.214844 L 970.214844 408.785156 L 927.785156 408.785156 "/>
<path style="fill-rule:nonzero;fill:rgb(55%,51%,53%);fill-opacity:1;stroke-width:1;stroke-linecap:butt;stroke-linejoin:miter;stroke:rgb(0%,0%,0%);stroke-opacity:1;stroke-miterlimit:10;" d="M 994 123 L 1023.664062 123 L 1035.664062 94.785156 L 1047.664062 123 L 1077.332031 123 L 1053.332031 140.4375 L 1061.417969 171.980469 L 1035.664062 154.542969 L 1009.914062 171.980469 L 1022.214844 140.4375 L 994 123 "/>
</g>
</svg>
