<?xml version="1.0" encoding="UTF-8"?>
<svg xmlns="http://www.w3.org/2000/svg" xmlns:xlink="http://www.w3.org/1999/xlink" width="1179pt" height="517pt" viewBox="0 0 1179 517" version="1.1">
<g id="surface1426">
<rect x="0" y="0" width="1179" height="517" style="fill:rgb(90%,90%,90%);fill-opacity:1;stroke:none;"/>
<path style="fill-rule:nonzero;fill:rgb(100%,51%,0%);fill-opacity:1;stroke-width:1;stroke-linecap:butt;stroke-linejoin:miter;stroke:rgb(0%,0%,0%);stroke-opacity:1;stroke-miterlimit:10;" d="M 535 214 L 509.019531 259 L 560.980469 259 L 535 214 "/>
<path style="fill-rule:nonzero;fill:rgb(100%,51%,0%);fill-opacity:1;stroke-width:1;stroke-linecap:butt;stroke-linejoin:miter;stroke:rgb(0%,0%,0%);stroke-opacity:1;stroke-miterlimit:10;" d="M 107 266 L 81.019531 311 L 132.980469 311 L 107 266 "/>
<path style="fill-rule:nonzero;fill:rgb(100%,51%,0%);fill-opacity:1;stroke-width:1;stroke-linecap:butt;stroke-linejoin:miter;stroke:rgb(0%,0%,0%);stroke-opacity:1;stroke-miterlimit:10;" d="M 257 129 L 231.019531 174 L 282.980469 174 L 257 129 "/>
<path style="fill-rule:nonzero;fill:rgb(53%,27%,7%);fill-opacity:1;stroke-width:1;stroke-linecap:butt;stroke-linejoin:miter;stroke:rgb(0%,0%,0%);stroke-opacity:1;stroke-miterlimit:10;" d="M 764 69.601562 C 764 55.199219 740 55.199219 740 69.601562 C 740 84 764 86.398438 764 98.398438 C 764 86.398438 788 84 788 69.601562 C 788 55.199219 764 55.199219 764 69.601562 "/>
<path style="fill-rule:nonzero;fill:rgb(53%,27%,7%);fill-opacity:1;stroke-width:1;stroke-linecap:butt;stroke-linejoin:miter;stroke:rgb(0%,0%,0%);stroke-opacity:1;stroke-miterlimit:10;" d="M 748 330.601562 C 748 316.199219 724 316.199219 724 330.601562 C 724 345 748 347.398438 748 359.398438 C 748 347.398438 772 345 772 330.601562 C 772 316.199219 748 316.199219 748 330.601562 "/>
<path style="fill-rule:nonzero;fill:rgb(53%,27%,7%);fill-opacity:1;stroke-width:1;stroke-linecap:butt;stroke-linejoin:miter;stroke:rgb(0%,0%,0%);stroke-opacity:1;stroke-miterlimit:10;" d="M 354 338.601562 C 354 324.199219 330 324.199219 330 338.601562 C 330 353 354 355.398438 354 367.398438 C 354 355.398438 378 353 378 338.601562 C 378 324.199219 354 324.199219 354 338.601562 "/>
<path style="fill-rule:nonzero;fill:rgb(53%,27%,7%);fill-opacity:1;stroke-width:1;stroke-linecap:butt;stroke-linejoin:miter;stroke:rgb(0%,0%,0%);stroke-opacity:1;stroke-miterlimit:10;" d="M 479 376.601562 C 479 362.199219 455 362.199219 455 376.601562 C 455 391 479 393.398438 479 405.398438 C 479 393.398438 503 391 503 376.601562 C 503 362.199219 479 362.199219 479 376.601562 "/>
<path style="fill-rule:nonzero;fill:rgb(53%,27%,7%);fill-opacity:1;stroke-width:1;stroke-linecap:butt;stroke-linejoin:miter;stroke:rgb(0%,0%,0%);stroke-opacity:1;stroke-miterlimit:10;" d="M 880 102.601562 C 880 88.199219 856 88.199219 856 102.601562 C 856 117 880 119.398438 880 131.398438 C 880 119.398438 904 117 904 102.601562 C 904 88.199219 880 88.199219 880 102.601562 "/>
</g>
</svg>
