<?xml version="1.0" encoding="UTF-8"?>
<svg xmlns="http://www.w3.org/2000/svg" xmlns:xlink="http://www.w3.org/1999/xlink" width="1179pt" height="517pt" viewBox="0 0 1179 517" version="1.1">
<g id="surface366">
<rect x="0" y="0" width="1179" height="517" style="fill:rgb(90%,90%,90%);fill-opacity:1;stroke:none;"/>
<path style="fill-rule:nonzero;fill:rgb(35%,70%,90%);fill-opacity:1;stroke-width:1;stroke-linecap:butt;stroke-linejoin:miter;stroke:rgb(0%,0%,0%);stroke-opacity:1;stroke-miterlimit:10;" d="M 960 312 L 989.664062 312 L 1001.664062 283.785156 L 1013.664062 312 L 1043.332031 312 L 1019.332031 329.4375 L 1027.417969 360.980469 L 1001.664062 343.542969 L 975.914062 360.980469 L 988.214844 329.4375 L 960 312 "/>
<path style="fill-rule:nonzero;fill:rgb(35%,70%,90%);fill-opacity:1;stroke-width:1;stroke-linecap:butt;stroke-linejoin:miter;stroke:rgb(0%,0%,0%);stroke-opacity:1;stroke-miterlimit:10;" d="M 831 211 L 860.664062 211 L 872.664062 182.785156 L 884.664062 211 L 914.332031 211 L 890.332031 228.4375 L 898.417969 259.980469 L 872.664062 242.542969 L 846.914062 259.980469 L 859.214844 228.4375 L 831 211 "/>
<path style="fill-rule:nonzero;fill:rgb(35%,70%,90%);fill-opacity:1;stroke-width:1;stroke-linecap:butt;stroke-linejoin:miter;stroke:rgb(0%,0%,0%);stroke-opacity:1;stroke-miterlimit:10;" d="M 842 394 L 871.664062 394 L 883.664062 365.785156 L 895.664062 394 L 925.332031 394 L 901.332031 411.4375 L 909.417969 442.980469 L 883.664062 425.542969 L 857.914062 442.980469 L 870.214844 411.4375 L 842 394 "/>
<path style="fill-rule:nonzero;fill:rgb(35%,70%,90%);fill-opacity:1;stroke-width:1;stroke-linecap:butt;stroke-linejoin:miter;stroke:rgb(0%,0%,0%);stroke-opacity:1;stroke-miterlimit:10;" d="M 400 183 L 429.664062 183 L 441.664062 154.785156 L 453.664062 183 L 483.332031 183 L 459.332031 200.4375 L 467.417969 231.980469 L 441.664062 214.542969 L 415.914062 231.980469 L 428.214844 200.4375 L 400 183 "/>
<path style="fill-rule:nonzero;fill:rgb(35%,70%,90%);fill-opacity:1;stroke-width:1;stroke-linecap:butt;stroke-linejoin:miter;stroke:rgb(0%,0%,0%);stroke-opacity:1;stroke-miterlimit:10;" d="M 316 320 L 345.664062 320 L 357.664062 291.785156 L 369.664062 320 L 399.332031 320 L 375.332031 337.4375 L 383.417969 368.980469 L 357.664062 351.542969 L 331.914062 368.980469 L 344.214844 337.4375 L 316 320 "/>
<path style="fill-rule:nonzero;fill:rgb(100%,51%,0%);fill-opacity:1;stroke-width:1;stroke-linecap:butt;stroke-linejoin:miter;stroke:rgb(0%,0%,0%);stroke-opacity:1;stroke-miterlimit:10;" d="M 551 311 L 525.019531 356 L 576.980469 356 L 551 311 "/>
<path style="fill-rule:nonzero;fill:rgb(100%,51%,0%);fill-opacity:1;stroke-width:1;stroke-linecap:butt;stroke-linejoin:miter;stroke:rgb(0%,0%,0%);stroke-opacity:1;stroke-miterlimit:10;" d="M 692 293 L 666.019531 338 L 717.980469 338 L 692 293 "/>
<path style="fill-rule:nonzero;fill:rgb(100%,51%,0%);fill-opacity:1;stroke-width:1;stroke-linecap:butt;stroke-linejoin:miter;stroke:rgb(0%,0%,0%);stroke-opacity:1;stroke-miterlimit:10;" d="M 110 356 L 84.019531 401 L 135.980469 401 L 110 356 "/>
<path style="fill-rule:nonzero;fill:rgb(100%,51%,0%);fill-opacity:1;stroke-width:1;stroke-linecap:butt;stroke-linejoin:miter;stroke:rgb(0%,0%,0%);stroke-opacity:1;stroke-miterlimit:10;" d="M 144 153 L 118.019531 198 L 169.980469 198 L 144 153 "/>
<path style="fill-rule:nonzero;fill:rgb(100%,51%,0%);fill-opacity:1;stroke-width:1;stroke-linecap:butt;stroke-linejoin:miter;stroke:rgb(0%,0%,0%);stroke-opacity:1;stroke-miterlimit:10;" d="M 560 159 L 534.019531 204 L 585.980469 204 L 560 159 "/>
</g>
</svg>
