<?xml version="1.0" encoding="UTF-8"?>
<svg xmlns="http://www.w3.org/2000/svg" xmlns:xlink="http://www.w3.org/1999/xlink" width="1179pt" height="517pt" viewBox="0 0 1179 517" version="1.1">
<g id="surface1511">
<rect x="0" y="0" width="1179" height="517" style="fill:rgb(90%,90%,90%);fill-opacity:1;stroke:none;"/>
<path style="fill-rule:nonzero;fill:rgb(55%,51%,53%);fill-opacity:1;stroke-width:1;stroke-linecap:butt;stroke-linejoin:miter;stroke:rgb(0%,0%,0%);stroke-opacity:1;stroke-miterlimit:10;" d="M 774.214844 111 C 774.214844 122.714844 764.714844 132.214844 753 132.214844 C 741.285156 132.214844 731.785156 122.714844 731.785156 111 C 731.785156 99.285156 741.285156 89.785156 753 89.785156 C 764.714844 89.785156 774.214844 99.285156 774.214844 111 "/>
<path style="fill-rule:nonzero;fill:rgb(55%,51%,53%);fill-opacity:1;stroke-width:1;stroke-linecap:butt;stroke-linejoin:miter;stroke:rgb(0%,0%,0%);stroke-opacity:1;stroke-miterlimit:10;" d="M 278.214844 238 C 278.214844 249.714844 268.714844 259.214844 257 259.214844 C 245.285156 259.214844 235.785156 249.714844 235.785156 238 C 235.785156 226.285156 245.285156 216.785156 257 216.785156 C 268.714844 216.785156 278.214844 226.285156 278.214844 238 "/>
<path style="fill-rule:nonzero;fill:rgb(55%,51%,53%);fill-opacity:1;stroke-width:1;stroke-linecap:butt;stroke-linejoin:miter;stroke:rgb(0%,0%,0%);stroke-opacity:1;stroke-miterlimit:10;" d="M 144.214844 427 C 144.214844 438.714844 134.714844 448.214844 123 448.214844 C 111.285156 448.214844 101.785156 438.714844 101.785156 427 C 101.785156 415.285156 111.285156 405.785156 123 405.785156 C 134.714844 405.785156 144.214844 415.285156 144.214844 427 "/>
<path style="fill-rule:nonzero;fill:rgb(55%,51%,53%);fill-opacity:1;stroke-width:1;stroke-linecap:butt;stroke-linejoin:miter;stroke:rgb(0%,0%,0%);stroke-opacity:1;stroke-miterlimit:10;" d="M 961.214844 362 C 961.214844 373.714844 951.714844 383.214844 940 383.214844 C 928.285156 383.214844 918.785156 373.714844 918.785156 362 C 918.785156 350.285156 928.285156 340.785156 940 340.785156 C 951.714844 340.785156 961.214844 350.285156 961.214844 362 "/>
<path style="fill-rule:nonzero;fill:rgb(35%,70%,90%);fill-opacity:1;stroke-width:1;stroke-linecap:butt;stroke-linejoin:miter;stroke:rgb(0%,0%,0%);stroke-opacity:1;stroke-miterlimit:10;" d="M 1035 55 L 1009.019531 100 L 1060.980469 100 L 1035 55 "/>
<path style="fill-rule:nonzero;fill:rgb(35%,70%,90%);fill-opacity:1;stroke-width:1;stroke-linecap:butt;stroke-linejoin:miter;stroke:rgb(0%,0%,0%);stroke-opacity:1;stroke-miterlimit:10;" d="M 448 326 L 422.019531 371 L 473.980469 371 L 448 326 "/>
<path style="fill-rule:nonzero;fill:rgb(35%,70%,90%);fill-opacity:1;stroke-width:1;stroke-linecap:butt;stroke-linejoin:miter;stroke:rgb(0%,0%,0%);stroke-opacity:1;stroke-miterlimit:10;" d="M 992 195 L 966.019531 240 L 1017.980469 240 L 992 195 "/>
</g>
</svg>
