<?xml version="1.0" encoding="UTF-8"?>
<svg xmlns="http://www.w3.org/2000/svg" xmlns:xlink="http://www.w3.org/1999/xlink" width="1179pt" height="517pt" viewBox="0 0 1179 517" version="1.1">
<g id="surface1126">
<rect x="0" y="0" width="1179" height="517" style="fill:rgb(90%,90%,90%);fill-opacity:1;stroke:none;"/>
<path style="fill-rule:nonzero;fill:rgb(35%,70%,90%);fill-opacity:1;stroke-width:1;stroke-linecap:butt;stroke-linejoin:miter;stroke:rgb(0%,0%,0%);stroke-opacity:1;stroke-miterlimit:10;" d="M 888 313.601562 C 888 299.199219 864 299.199219 864 313.601562 C 864 328 888 330.398438 888 342.398438 C 888 330.398438 912 328 912 313.601562 C 912 299.199219 888 299.199219 888 313.601562 "/>
<path style="fill-rule:nonzero;fill:rgb(35%,70%,90%);fill-opacity:1;stroke-width:1;stroke-linecap:butt;stroke-linejoin:miter;stroke:rgb(0%,0%,0%);stroke-opacity:1;stroke-miterlimit:10;" d="M 357 254.601562 C 357 240.199219 333 240.199219 333 254.601562 C 333 269 357 271.398438 357 283.398438 C 357 271.398438 381 269 381 254.601562 C 381 240.199219 357 240.199219 357 254.601562 "/>
<path style="fill-rule:nonzero;fill:rgb(35%,70%,90%);fill-opacity:1;stroke-width:1;stroke-linecap:butt;stroke-linejoin:miter;stroke:rgb(0%,0%,0%);stroke-opacity:1;stroke-miterlimit:10;" d="M 453 73.601562 C 453 59.199219 429 59.199219 429 73.601562 C 429 88 453 90.398438 453 102.398438 C 453 90.398438 477 88 477 73.601562 C 477 59.199219 453 59.199219 453 73.601562 "/>
<path style="fill-rule:nonzero;fill:rgb(35%,70%,90%);fill-opacity:1;stroke-width:1;stroke-linecap:butt;stroke-linejoin:miter;stroke:rgb(0%,0%,0%);stroke-opacity:1;stroke-miterlimit:10;" d="M 256 362.601562 C 256 348.199219 232 348.199219 232 362.601562 C 232 377 256 379.398438 256 391.398438 C 256 379.398438 280 377 280 362.601562 C 280 348.199219 256 348.199219 256 362.601562 "/>
<path style="fill-rule:nonzero;fill:rgb(35%,70%,90%);fill-opacity:1;stroke-width:1;stroke-linecap:butt;stroke-linejoin:miter;stroke:rgb(0%,0%,0%);stroke-opacity:1;stroke-miterlimit:10;" d="M 497 202.601562 C 497 188.199219 473 188.199219 473 202.601562 C 473 217 497 219.398438 497 231.398438 C 497 219.398438 521 217 521 202.601562 C 521 188.199219 497 188.199219 497 202.601562 "/>
<path style="fill-rule:nonzero;fill:rgb(53%,27%,7%);fill-opacity:1;stroke-width:1;stroke-linecap:butt;stroke-linejoin:miter;stroke:rgb(0%,0%,0%);stroke-opacity:1;stroke-miterlimit:10;" d="M 923.214844 133 C 923.214844 144.714844 913.714844 154.214844 902 154.214844 C 890.285156 154.214844 880.785156 144.714844 880.785156 133 C 880.785156 121.285156 890.285156 111.785156 902 111.785156 C 913.714844 111.785156 923.214844 121.285156 923.214844 133 "/>
<path style="fill-rule:nonzero;fill:rgb(53%,27%,7%);fill-opacity:1;stroke-width:1;stroke-linecap:butt;stroke-linejoin:miter;stroke:rgb(0%,0%,0%);stroke-opacity:1;stroke-miterlimit:10;" d="M 796.214844 424 C 796.214844 435.714844 786.714844 445.214844 775 445.214844 C 763.285156 445.214844 753.785156 435.714844 753.785156 424 C 753.785156 412.285156 763.285156 402.785156 775 402.785156 C 786.714844 402.785156 796.214844 412.285156 796.214844 424 "/>
<path style="fill-rule:nonzero;fill:rgb(53%,27%,7%);fill-opacity:1;stroke-width:1;stroke-linecap:butt;stroke-linejoin:miter;stroke:rgb(0%,0%,0%);stroke-opacity:1;stroke-miterlimit:10;" d="M 804.214844 235 C 804.214844 246.714844 794.714844 256.214844 783 256.214844 C 771.285156 256.214844 761.785156 246.714844 761.785156 235 C 761.785156 223.285156 771.285156 213.785156 783 213.785156 C 794.714844 213.785156 804.214844 223.285156 804.214844 235 "/>
</g>
</svg>
