<?xml version="1.0" encoding="UTF-8"?>
<svg xmlns="http://www.w3.org/2000/svg" xmlns:xlink="http://www.w3.org/1999/xlink" width="1179pt" height="517pt" viewBox="0 0 1179 517" version="1.1">
<g id="surface1251">
<rect x="0" y="0" width="1179" height="517" style="fill:rgb(90%,90%,90%);fill-opacity:1;stroke:none;"/>
<path style="fill-rule:nonzero;fill:rgb(55%,51%,53%);fill-opacity:1;stroke-width:1;stroke-linecap:butt;stroke-linejoin:miter;stroke:rgb(0%,0%,0%);stroke-opacity:1;stroke-miterlimit:10;" d="M 388 326 L 417.664062 326 L 429.664062 297.785156 L 441.664062 326 L 471.332031 326 L 447.332031 343.4375 L 455.417969 374.980469 L 429.664062 357.542969 L 403.914062 374.980469 L 416.214844 343.4375 L 388 326 "/>
<path style="fill-rule:nonzero;fill:rgb(55%,51%,53%);fill-opacity:1;stroke-width:1;stroke-linecap:butt;stroke-linejoin:miter;stroke:rgb(0%,0%,0%);stroke-opacity:1;stroke-miterlimit:10;" d="M 615 106 L 644.664062 106 L 656.664062 77.785156 L 668.664062 106 L 698.332031 106 L 674.332031 123.4375 L 682.417969 154.980469 L 656.664062 137.542969 L 630.914062 154.980469 L 643.214844 123.4375 L 615 106 "/>
<path style="fill-rule:nonzero;fill:rgb(55%,51%,53%);fill-opacity:1;stroke-width:1;stroke-linecap:butt;stroke-linejoin:miter;stroke:rgb(0%,0%,0%);stroke-opacity:1;stroke-miterlimit:10;" d="M 688 255 L 717.664062 255 L 729.664062 226.785156 L 741.664062 255 L 771.332031 255 L 747.332031 272.4375 L 755.417969 303.980469 L 729.664062 286.542969 L 703.914062 303.980469 L 716.214844 272.4375 L 688 255 "/>
<path style="fill-rule:nonzero;fill:rgb(55%,51%,53%);fill-opacity:1;stroke-width:1;stroke-linecap:butt;stroke-linejoin:miter;stroke:rgb(0%,0%,0%);stroke-opacity:1;stroke-miterlimit:10;" d="M 274 152 L 303.664062 152 L 315.664062 123.785156 L 327.664062 152 L 357.332031 152 L 333.332031 169.4375 L 341.417969 200.980469 L 315.664062 183.542969 L 289.914062 200.980469 L 302.214844 169.4375 L 274 152 "/>
<path style="fill-rule:nonzero;fill:rgb(100%,51%,0%);fill-opacity:1;stroke-width:1;stroke-linecap:butt;stroke-linejoin:miter;stroke:rgb(0%,0%,0%);stroke-opacity:1;stroke-miterlimit:10;" d="M 828.214844 101 C 828.214844 112.714844 818.714844 122.214844 807 122.214844 C 795.285156 122.214844 785.785156 112.714844 785.785156 101 C 785.785156 89.285156 795.285156 79.785156 807 79.785156 C 818.714844 79.785156 828.214844 89.285156 828.214844 101 "/>
<path style="fill-rule:nonzero;fill:rgb(100%,51%,0%);fill-opacity:1;stroke-width:1;stroke-linecap:butt;stroke-linejoin:miter;stroke:rgb(0%,0%,0%);stroke-opacity:1;stroke-miterlimit:10;" d="M 1039.214844 319 C 1039.214844 330.714844 1029.714844 340.214844 1018 340.214844 C 1006.285156 340.214844 996.785156 330.714844 996.785156 319 C 996.785156 307.285156 1006.285156 297.785156 1018 297.785156 C 1029.714844 297.785156 1039.214844 307.285156 1039.214844 319 "/>
<path style="fill-rule:nonzero;fill:rgb(100%,51%,0%);fill-opacity:1;stroke-width:1;stroke-linecap:butt;stroke-linejoin:miter;stroke:rgb(0%,0%,0%);stroke-opacity:1;stroke-miterlimit:10;" d="M 167.214844 325 C 167.214844 336.714844 157.714844 346.214844 146 346.214844 C 134.285156 346.214844 124.785156 336.714844 124.785156 325 C 124.785156 313.285156 134.285156 303.785156 146 303.785156 C 157.714844 303.785156 167.214844 313.285156 167.214844 325 "/>
<path style="fill-rule:nonzero;fill:rgb(100%,51%,0%);fill-opacity:1;stroke-width:1;stroke-linecap:butt;stroke-linejoin:miter;stroke:rgb(0%,0%,0%);stroke-opacity:1;stroke-miterlimit:10;" d="M 737.214844 403 C 737.214844 414.714844 727.714844 424.214844 716 424.214844 C 704.285156 424.214844 694.785156 414.714844 694.785156 403 C 694.785156 391.285156 704.285156 381.785156 716 381.785156 C 727.714844 381.785156 737.214844 391.285156 737.214844 403 "/>
<path style="fill-rule:nonzero;fill:rgb(100%,51%,0%);fill-opacity:1;stroke-width:1;stroke-linecap:butt;stroke-linejoin:miter;stroke:rgb(0%,0%,0%);stroke-opacity:1;stroke-miterlimit:10;" d="M 536.214844 270 C 536.214844 281.714844 526.714844 291.214844 515 291.214844 C 503.285156 291.214844 493.785156 281.714844 493.785156 270 C 493.785156 258.285156 503.285156 248.785156 515 248.785156 C 526.714844 248.785156 536.214844 258.285156 536.214844 270 "/>
</g>
</svg>
