<?xml version="1.0" encoding="UTF-8"?>
<svg xmlns="http://www.w3.org/2000/svg" xmlns:xlink="http://www.w3.org/1999/xlink" width="1179pt" height="517pt" viewBox="0 0 1179 517" version="1.1">
<g id="surface1501">
<rect x="0" y="0" width="1179" height="517" style="fill:rgb(90%,90%,90%);fill-opacity:1;stroke:none;"/>
<path style="fill-rule:nonzero;fill:rgb(53%,27%,7%);fill-opacity:1;stroke-width:1;stroke-linecap:butt;stroke-linejoin:miter;stroke:rgb(0%,0%,0%);stroke-opacity:1;stroke-miterlimit:10;" d="M 497.214844 351 C 497.214844 362.714844 487.714844 372.214844 476 372.214844 C 464.285156 372.214844 454.785156 362.714844 454.785156 351 C 454.785156 339.285156 464.285156 329.785156 476 329.785156 C 487.714844 329.785156 497.214844 339.285156 497.214844 351 "/>
<path style="fill-rule:nonzero;fill:rgb(53%,27%,7%);fill-opacity:1;stroke-width:1;stroke-linecap:butt;stroke-linejoin:miter;stroke:rgb(0%,0%,0%);stroke-opacity:1;stroke-miterlimit:10;" d="M 1004.214844 333 C 1004.214844 344.714844 994.714844 354.214844 983 354.214844 C 971.285156 354.214844 961.785156 344.714844 961.785156 333 C 961.785156 321.285156 971.285156 311.785156 983 311.785156 C 994.714844 311.785156 1004.214844 321.285156 1004.214844 333 "/>
<path style="fill-rule:nonzero;fill:rgb(53%,27%,7%);fill-opacity:1;stroke-width:1;stroke-linecap:butt;stroke-linejoin:miter;stroke:rgb(0%,0%,0%);stroke-opacity:1;stroke-miterlimit:10;" d="M 830.214844 413 C 830.214844 424.714844 820.714844 434.214844 809 434.214844 C 797.285156 434.214844 787.785156 424.714844 787.785156 413 C 787.785156 401.285156 797.285156 391.785156 809 391.785156 C 820.714844 391.785156 830.214844 401.285156 830.214844 413 "/>
<path style="fill-rule:nonzero;fill:rgb(53%,27%,7%);fill-opacity:1;stroke-width:1;stroke-linecap:butt;stroke-linejoin:miter;stroke:rgb(0%,0%,0%);stroke-opacity:1;stroke-miterlimit:10;" d="M 337.214844 375 C 337.214844 386.714844 327.714844 396.214844 316 396.214844 C 304.285156 396.214844 294.785156 386.714844 294.785156 375 C 294.785156 363.285156 304.285156 353.785156 316 353.785156 C 327.714844 353.785156 337.214844 363.285156 337.214844 375 "/>
<path style="fill-rule:nonzero;fill:rgb(55%,51%,53%);fill-opacity:1;stroke-width:1;stroke-linecap:butt;stroke-linejoin:miter;stroke:rgb(0%,0%,0%);stroke-opacity:1;stroke-miterlimit:10;" d="M 82 359 L 56.019531 404 L 107.980469 404 L 82 359 "/>
<path style="fill-rule:nonzero;fill:rgb(55%,51%,53%);fill-opacity:1;stroke-width:1;stroke-linecap:butt;stroke-linejoin:miter;stroke:rgb(0%,0%,0%);stroke-opacity:1;stroke-miterlimit:10;" d="M 94 128 L 68.019531 173 L 119.980469 173 L 94 128 "/>
<path style="fill-rule:nonzero;fill:rgb(55%,51%,53%);fill-opacity:1;stroke-width:1;stroke-linecap:butt;stroke-linejoin:miter;stroke:rgb(0%,0%,0%);stroke-opacity:1;stroke-miterlimit:10;" d="M 626 137 L 600.019531 182 L 651.980469 182 L 626 137 "/>
</g>
</svg>
