<?xml version="1.0" encoding="UTF-8"?>
<svg xmlns="http://www.w3.org/2000/svg" xmlns:xlink="http://www.w3.org/1999/xlink" width="1179pt" height="517pt" viewBox="0 0 1179 517" version="1.1">
<g id="surface106">
<rect x="0" y="0" width="1179" height="517" style="fill:rgb(90%,90%,90%);fill-opacity:1;stroke:none;"/>
<path style="fill-rule:nonzero;fill:rgb(100%,51%,0%);fill-opacity:1;stroke-width:1;stroke-linecap:butt;stroke-linejoin:miter;stroke:rgb(0%,0%,0%);stroke-opacity:1;stroke-miterlimit:10;" d="M 182.214844 313 C 182.214844 324.714844 172.714844 334.214844 161 334.214844 C 149.285156 334.214844 139.785156 324.714844 139.785156 313 C 139.785156 301.285156 149.285156 291.785156 161 291.785156 C 172.714844 291.785156 182.214844 301.285156 182.214844 313 "/>
<path style="fill-rule:nonzero;fill:rgb(100%,51%,0%);fill-opacity:1;stroke-width:1;stroke-linecap:butt;stroke-linejoin:miter;stroke:rgb(0%,0%,0%);stroke-opacity:1;stroke-miterlimit:10;" d="M 402 306 L 376.019531 351 L 427.980469 351 L 402 306 "/>
<path style="fill-rule:nonzero;fill:rgb(100%,51%,0%);fill-opacity:1;stroke-width:1;stroke-linecap:butt;stroke-linejoin:miter;stroke:rgb(0%,0%,0%);stroke-opacity:1;stroke-miterlimit:10;" d="M 280.214844 404 C 280.214844 415.714844 270.714844 425.214844 259 425.214844 C 247.285156 425.214844 237.785156 415.714844 237.785156 404 C 237.785156 392.285156 247.285156 382.785156 259 382.785156 C 270.714844 382.785156 280.214844 392.285156 280.214844 404 "/>
<path style="fill-rule:nonzero;fill:rgb(100%,51%,0%);fill-opacity:1;stroke-width:1;stroke-linecap:butt;stroke-linejoin:miter;stroke:rgb(0%,0%,0%);stroke-opacity:1;stroke-miterlimit:10;" d="M 288 86 L 262.019531 131 L 313.980469 131 L 288 86 "/>
<path style="fill-rule:nonzero;fill:rgb(53%,27%,7%);fill-opacity:1;stroke-width:1;stroke-linecap:butt;stroke-linejoin:miter;stroke:rgb(0%,0%,0%);stroke-opacity:1;stroke-miterlimit:10;" d="M 870 276 L 844.019531 321 L 895.980469 321 L 870 276 "/>
<path style="fill-rule:nonzero;fill:rgb(53%,27%,7%);fill-opacity:1;stroke-width:1;stroke-linecap:butt;stroke-linejoin:miter;stroke:rgb(0%,0%,0%);stroke-opacity:1;stroke-miterlimit:10;" d="M 846.214844 109 C 846.214844 120.714844 836.714844 130.214844 825 130.214844 C 813.285156 130.214844 803.785156 120.714844 803.785156 109 C 803.785156 97.285156 813.285156 87.785156 825 87.785156 C 836.714844 87.785156 846.214844 97.285156 846.214844 109 "/>
<path style="fill-rule:nonzero;fill:rgb(53%,27%,7%);fill-opacity:1;stroke-width:1;stroke-linecap:butt;stroke-linejoin:miter;stroke:rgb(0%,0%,0%);stroke-opacity:1;stroke-miterlimit:10;" d="M 925 368 L 899.019531 413 L 950.980469 413 L 925 368 "/>
</g>
</svg>
