<?xml version="1.0" encoding="UTF-8"?>
<svg xmlns="http://www.w3.org/2000/svg" xmlns:xlink="http://www.w3.org/1999/xlink" width="1179pt" height="517pt" viewBox="0 0 1179 517" version="1.1">
<g id="surface741">
<rect x="0" y="0" width="1179" height="517" style="fill:rgb(90%,90%,90%);fill-opacity:1;stroke:none;"/>
<path style="fill-rule:nonzero;fill:rgb(100%,51%,0%);fill-opacity:1;stroke-width:1;stroke-linecap:butt;stroke-linejoin:miter;stroke:rgb(0%,0%,0%);stroke-opacity:1;stroke-miterlimit:10;" d="M 722.214844 416 C 722.214844 427.714844 712.714844 437.214844 701 437.214844 C 689.285156 437.214844 679.785156 427.714844 679.785156 416 C 679.785156 404.285156 689.285156 394.785156 701 394.785156 C 712.714844 394.785156 722.214844 404.285156 722.214844 416 "/>
<path style="fill-rule:nonzero;fill:rgb(100%,51%,0%);fill-opacity:1;stroke-width:1;stroke-linecap:butt;stroke-linejoin:miter;stroke:rgb(0%,0%,0%);stroke-opacity:1;stroke-miterlimit:10;" d="M 117.214844 371 C 117.214844 382.714844 107.714844 392.214844 96 392.214844 C 84.285156 392.214844 74.785156 382.714844 74.785156 371 C 74.785156 359.285156 84.285156 349.785156 96 349.785156 C 107.714844 349.785156 117.214844 359.285156 117.214844 371 "/>
<path style="fill-rule:nonzero;fill:rgb(100%,51%,0%);fill-opacity:1;stroke-width:1;stroke-linecap:butt;stroke-linejoin:miter;stroke:rgb(0%,0%,0%);stroke-opacity:1;stroke-miterlimit:10;" d="M 445.214844 284 C 445.214844 295.714844 435.714844 305.214844 424 305.214844 C 412.285156 305.214844 402.785156 295.714844 402.785156 284 C 402.785156 272.285156 412.285156 262.785156 424 262.785156 C 435.714844 262.785156 445.214844 272.285156 445.214844 284 "/>
<path style="fill-rule:nonzero;fill:rgb(35%,70%,90%);fill-opacity:1;stroke-width:1;stroke-linecap:butt;stroke-linejoin:miter;stroke:rgb(0%,0%,0%);stroke-opacity:1;stroke-miterlimit:10;" d="M 661 152 L 690.664062 152 L 702.664062 123.785156 L 714.664062 152 L 744.332031 152 L 720.332031 169.4375 L 728.417969 200.980469 L 702.664062 183.542969 L 676.914062 200.980469 L 689.214844 169.4375 L 661 152 "/>
<path style="fill-rule:nonzero;fill:rgb(35%,70%,90%);fill-opacity:1;stroke-width:1;stroke-linecap:butt;stroke-linejoin:miter;stroke:rgb(0%,0%,0%);stroke-opacity:1;stroke-miterlimit:10;" d="M 848 80 L 877.664062 80 L 889.664062 51.785156 L 901.664062 80 L 931.332031 80 L 907.332031 97.4375 L 915.417969 128.980469 L 889.664062 111.542969 L 863.914062 128.980469 L 876.214844 97.4375 L 848 80 "/>
<path style="fill-rule:nonzero;fill:rgb(35%,70%,90%);fill-opacity:1;stroke-width:1;stroke-linecap:butt;stroke-linejoin:miter;stroke:rgb(0%,0%,0%);stroke-opacity:1;stroke-miterlimit:10;" d="M 845 359 L 874.664062 359 L 886.664062 330.785156 L 898.664062 359 L 928.332031 359 L 904.332031 376.4375 L 912.417969 407.980469 L 886.664062 390.542969 L 860.914062 407.980469 L 873.214844 376.4375 L 845 359 "/>
<path style="fill-rule:nonzero;fill:rgb(35%,70%,90%);fill-opacity:1;stroke-width:1;stroke-linecap:butt;stroke-linejoin:miter;stroke:rgb(0%,0%,0%);stroke-opacity:1;stroke-miterlimit:10;" d="M 119 159 L 148.664062 159 L 160.664062 130.785156 L 172.664062 159 L 202.332031 159 L 178.332031 176.4375 L 186.417969 207.980469 L 160.664062 190.542969 L 134.914062 207.980469 L 147.214844 176.4375 L 119 159 "/>
</g>
</svg>
