<?xml version="1.0" encoding="UTF-8"?>
<svg xmlns="http://www.w3.org/2000/svg" xmlns:xlink="http://www.w3.org/1999/xlink" width="1179pt" height="517pt" viewBox="0 0 1179 517" version="1.1">
<g id="surface671">
<rect x="0" y="0" width="1179" height="517" style="fill:rgb(90%,90%,90%);fill-opacity:1;stroke:none;"/>
<path style="fill-rule:nonzero;fill:rgb(100%,51%,0%);fill-opacity:1;stroke-width:1;stroke-linecap:butt;stroke-linejoin:miter;stroke:rgb(0%,0%,0%);stroke-opacity:1;stroke-miterlimit:10;" d="M 175 297 L 204.664062 297 L 216.664062 268.785156 L 228.664062 297 L 258.332031 297 L 234.332031 314.4375 L 242.417969 345.980469 L 216.664062 328.542969 L 190.914062 345.980469 L 203.214844 314.4375 L 175 297 "/>
<path style="fill-rule:nonzero;fill:rgb(55%,51%,53%);fill-opacity:1;stroke-width:1;stroke-linecap:butt;stroke-linejoin:miter;stroke:rgb(0%,0%,0%);stroke-opacity:1;stroke-miterlimit:10;" d="M 204 383 L 233.664062 383 L 245.664062 354.785156 L 257.664062 383 L 287.332031 383 L 263.332031 400.4375 L 271.417969 431.980469 L 245.664062 414.542969 L 219.914062 431.980469 L 232.214844 400.4375 L 204 383 "/>
<path style="fill-rule:nonzero;fill:rgb(100%,51%,0%);fill-opacity:1;stroke-width:1;stroke-linecap:butt;stroke-linejoin:miter;stroke:rgb(0%,0%,0%);stroke-opacity:1;stroke-miterlimit:10;" d="M 205 147 L 234.664062 147 L 246.664062 118.785156 L 258.664062 147 L 288.332031 147 L 264.332031 164.4375 L 272.417969 195.980469 L 246.664062 178.542969 L 220.914062 195.980469 L 233.214844 164.4375 L 205 147 "/>
<path style="fill-rule:nonzero;fill:rgb(55%,51%,53%);fill-opacity:1;stroke-width:1;stroke-linecap:butt;stroke-linejoin:miter;stroke:rgb(0%,0%,0%);stroke-opacity:1;stroke-miterlimit:10;" d="M 719.785156 345.785156 L 719.785156 388.214844 L 762.214844 388.214844 L 762.214844 345.785156 L 719.785156 345.785156 "/>
<path style="fill-rule:nonzero;fill:rgb(100%,51%,0%);fill-opacity:1;stroke-width:1;stroke-linecap:butt;stroke-linejoin:miter;stroke:rgb(0%,0%,0%);stroke-opacity:1;stroke-miterlimit:10;" d="M 924.785156 206.785156 L 924.785156 249.214844 L 967.214844 249.214844 L 967.214844 206.785156 L 924.785156 206.785156 "/>
<path style="fill-rule:nonzero;fill:rgb(55%,51%,53%);fill-opacity:1;stroke-width:1;stroke-linecap:butt;stroke-linejoin:miter;stroke:rgb(0%,0%,0%);stroke-opacity:1;stroke-miterlimit:10;" d="M 1007.785156 370.785156 L 1007.785156 413.214844 L 1050.214844 413.214844 L 1050.214844 370.785156 L 1007.785156 370.785156 "/>
</g>
</svg>
