<?xml version="1.0" encoding="UTF-8"?>
<svg xmlns="http://www.w3.org/2000/svg" xmlns:xlink="http://www.w3.org/1999/xlink" width="1179pt" height="517pt" viewBox="0 0 1179 517" version="1.1">
<g id="surface1086">
<rect x="0" y="0" width="1179" height="517" style="fill:rgb(90%,90%,90%);fill-opacity:1;stroke:none;"/>
<path style="fill-rule:nonzero;fill:rgb(55%,51%,53%);fill-opacity:1;stroke-width:1;stroke-linecap:butt;stroke-linejoin:miter;stroke:rgb(0%,0%,0%);stroke-opacity:1;stroke-miterlimit:10;" d="M 591 123 L 565.019531 168 L 616.980469 168 L 591 123 "/>
<path style="fill-rule:nonzero;fill:rgb(55%,51%,53%);fill-opacity:1;stroke-width:1;stroke-linecap:butt;stroke-linejoin:miter;stroke:rgb(0%,0%,0%);stroke-opacity:1;stroke-miterlimit:10;" d="M 851 84 L 825.019531 129 L 876.980469 129 L 851 84 "/>
<path style="fill-rule:nonzero;fill:rgb(55%,51%,53%);fill-opacity:1;stroke-width:1;stroke-linecap:butt;stroke-linejoin:miter;stroke:rgb(0%,0%,0%);stroke-opacity:1;stroke-miterlimit:10;" d="M 408 304 L 382.019531 349 L 433.980469 349 L 408 304 "/>
<path style="fill-rule:nonzero;fill:rgb(55%,51%,53%);fill-opacity:1;stroke-width:1;stroke-linecap:butt;stroke-linejoin:miter;stroke:rgb(0%,0%,0%);stroke-opacity:1;stroke-miterlimit:10;" d="M 825 364 L 799.019531 409 L 850.980469 409 L 825 364 "/>
<path style="fill-rule:nonzero;fill:rgb(55%,51%,53%);fill-opacity:1;stroke-width:1;stroke-linecap:butt;stroke-linejoin:miter;stroke:rgb(0%,0%,0%);stroke-opacity:1;stroke-miterlimit:10;" d="M 253 169 L 227.019531 214 L 278.980469 214 L 253 169 "/>
<path style="fill-rule:nonzero;fill:rgb(35%,70%,90%);fill-opacity:1;stroke-width:1;stroke-linecap:butt;stroke-linejoin:miter;stroke:rgb(0%,0%,0%);stroke-opacity:1;stroke-miterlimit:10;" d="M 690 337 L 719.664062 337 L 731.664062 308.785156 L 743.664062 337 L 773.332031 337 L 749.332031 354.4375 L 757.417969 385.980469 L 731.664062 368.542969 L 705.914062 385.980469 L 718.214844 354.4375 L 690 337 "/>
<path style="fill-rule:nonzero;fill:rgb(35%,70%,90%);fill-opacity:1;stroke-width:1;stroke-linecap:butt;stroke-linejoin:miter;stroke:rgb(0%,0%,0%);stroke-opacity:1;stroke-miterlimit:10;" d="M 238 393 L 267.664062 393 L 279.664062 364.785156 L 291.664062 393 L 321.332031 393 L 297.332031 410.4375 L 305.417969 441.980469 L 279.664062 424.542969 L 253.914062 441.980469 L 266.214844 410.4375 L 238 393 "/>
<path style="fill-rule:nonzero;fill:rgb(35%,70%,90%);fill-opacity:1;stroke-width:1;stroke-linecap:butt;stroke-linejoin:miter;stroke:rgb(0%,0%,0%);stroke-opacity:1;stroke-miterlimit:10;" d="M 528 402 L 557.664062 402 L 569.664062 373.785156 L 581.664062 402 L 611.332031 402 L 587.332031 419.4375 L 595.417969 450.980469 L 569.664062 433.542969 L 543.914062 450.980469 L 556.214844 419.4375 L 528 402 "/>
<path style="fill-rule:nonzero;fill:rgb(35%,70%,90%);fill-opacity:1;stroke-width:1;stroke-linecap:butt;stroke-linejoin:miter;stroke:rgb(0%,0%,0%);stroke-opacity:1;stroke-miterlimit:10;" d="M 85 166 L 114.664062 166 L 126.664062 137.785156 L 138.664062 166 L 168.332031 166 L 144.332031 183.4375 L 152.417969 214.980469 L 126.664062 197.542969 L 100.914062 214.980469 L 113.214844 183.4375 L 85 166 "/>
</g>
</svg>
