<?xml version="1.0" encoding="UTF-8"?>
<svg xmlns="http://www.w3.org/2000/svg" xmlns:xlink="http://www.w3.org/1999/xlink" width="1179pt" height="517pt" viewBox="0 0 1179 517" version="1.1">
<g id="surface461">
<rect x="0" y="0" width="1179" height="517" style="fill:rgb(90%,90%,90%);fill-opacity:1;stroke:none;"/>
<path style="fill-rule:nonzero;fill:rgb(100%,51%,0%);fill-opacity:1;stroke-width:1;stroke-linecap:butt;stroke-linejoin:miter;stroke:rgb(0%,0%,0%);stroke-opacity:1;stroke-miterlimit:10;" d="M 376 95 L 405.664062 95 L 417.664062 66.785156 L 429.664062 95 L 459.332031 95 L 435.332031 112.4375 L 443.417969 143.980469 L 417.664062 126.542969 L 391.914062 143.980469 L 404.214844 112.4375 L 376 95 "/>
<path style="fill-rule:nonzero;fill:rgb(100%,51%,0%);fill-opacity:1;stroke-width:1;stroke-linecap:butt;stroke-linejoin:miter;stroke:rgb(0%,0%,0%);stroke-opacity:1;stroke-miterlimit:10;" d="M 247.785156 85.785156 L 247.785156 128.214844 L 290.214844 128.214844 L 290.214844 85.785156 L 247.785156 85.785156 "/>
<path style="fill-rule:nonzero;fill:rgb(100%,51%,0%);fill-opacity:1;stroke-width:1;stroke-linecap:butt;stroke-linejoin:miter;stroke:rgb(0%,0%,0%);stroke-opacity:1;stroke-miterlimit:10;" d="M 224 224 L 253.664062 224 L 265.664062 195.785156 L 277.664062 224 L 307.332031 224 L 283.332031 241.4375 L 291.417969 272.980469 L 265.664062 255.542969 L 239.914062 272.980469 L 252.214844 241.4375 L 224 224 "/>
<path style="fill-rule:nonzero;fill:rgb(100%,51%,0%);fill-opacity:1;stroke-width:1;stroke-linecap:butt;stroke-linejoin:miter;stroke:rgb(0%,0%,0%);stroke-opacity:1;stroke-miterlimit:10;" d="M 405 332 L 434.664062 332 L 446.664062 303.785156 L 458.664062 332 L 488.332031 332 L 464.332031 349.4375 L 472.417969 380.980469 L 446.664062 363.542969 L 420.914062 380.980469 L 433.214844 349.4375 L 405 332 "/>
<path style="fill-rule:nonzero;fill:rgb(53%,27%,7%);fill-opacity:1;stroke-width:1;stroke-linecap:butt;stroke-linejoin:miter;stroke:rgb(0%,0%,0%);stroke-opacity:1;stroke-miterlimit:10;" d="M 701.785156 233.785156 L 701.785156 276.214844 L 744.214844 276.214844 L 744.214844 233.785156 L 701.785156 233.785156 "/>
<path style="fill-rule:nonzero;fill:rgb(53%,27%,7%);fill-opacity:1;stroke-width:1;stroke-linecap:butt;stroke-linejoin:miter;stroke:rgb(0%,0%,0%);stroke-opacity:1;stroke-miterlimit:10;" d="M 1009 266 L 1038.664062 266 L 1050.664062 237.785156 L 1062.664062 266 L 1092.332031 266 L 1068.332031 283.4375 L 1076.417969 314.980469 L 1050.664062 297.542969 L 1024.914062 314.980469 L 1037.214844 283.4375 L 1009 266 "/>
<path style="fill-rule:nonzero;fill:rgb(53%,27%,7%);fill-opacity:1;stroke-width:1;stroke-linecap:butt;stroke-linejoin:miter;stroke:rgb(0%,0%,0%);stroke-opacity:1;stroke-miterlimit:10;" d="M 881.785156 182.785156 L 881.785156 225.214844 L 924.214844 225.214844 L 924.214844 182.785156 L 881.785156 182.785156 "/>
<path style="fill-rule:nonzero;fill:rgb(53%,27%,7%);fill-opacity:1;stroke-width:1;stroke-linecap:butt;stroke-linejoin:miter;stroke:rgb(0%,0%,0%);stroke-opacity:1;stroke-miterlimit:10;" d="M 826.785156 358.785156 L 826.785156 401.214844 L 869.214844 401.214844 L 869.214844 358.785156 L 826.785156 358.785156 "/>
</g>
</svg>
