<?xml version="1.0" encoding="UTF-8"?>
<svg xmlns="http://www.w3.org/2000/svg" xmlns:xlink="http://www.w3.org/1999/xlink" width="1179pt" height="517pt" viewBox="0 0 1179 517" version="1.1">
<g id="surface1491">
<rect x="0" y="0" width="1179" height="517" style="fill:rgb(90%,90%,90%);fill-opacity:1;stroke:none;"/>
<path style="fill-rule:nonzero;fill:rgb(100%,51%,0%);fill-opacity:1;stroke-width:1;stroke-linecap:butt;stroke-linejoin:miter;stroke:rgb(0%,0%,0%);stroke-opacity:1;stroke-miterlimit:10;" d="M 682 321 L 711.664062 321 L 723.664062 292.785156 L 735.664062 321 L 765.332031 321 L 741.332031 338.4375 L 749.417969 369.980469 L 723.664062 352.542969 L 697.914062 369.980469 L 710.214844 338.4375 L 682 321 "/>
<path style="fill-rule:nonzero;fill:rgb(100%,51%,0%);fill-opacity:1;stroke-width:1;stroke-linecap:butt;stroke-linejoin:miter;stroke:rgb(0%,0%,0%);stroke-opacity:1;stroke-miterlimit:10;" d="M 762 183 L 791.664062 183 L 803.664062 154.785156 L 815.664062 183 L 845.332031 183 L 821.332031 200.4375 L 829.417969 231.980469 L 803.664062 214.542969 L 777.914062 231.980469 L 790.214844 200.4375 L 762 183 "/>
<path style="fill-rule:nonzero;fill:rgb(100%,51%,0%);fill-opacity:1;stroke-width:1;stroke-linecap:butt;stroke-linejoin:miter;stroke:rgb(0%,0%,0%);stroke-opacity:1;stroke-miterlimit:10;" d="M 546 357 L 575.664062 357 L 587.664062 328.785156 L 599.664062 357 L 629.332031 357 L 605.332031 374.4375 L 613.417969 405.980469 L 587.664062 388.542969 L 561.914062 405.980469 L 574.214844 374.4375 L 546 357 "/>
<path style="fill-rule:nonzero;fill:rgb(100%,51%,0%);fill-opacity:1;stroke-width:1;stroke-linecap:butt;stroke-linejoin:miter;stroke:rgb(0%,0%,0%);stroke-opacity:1;stroke-miterlimit:10;" d="M 307 215 L 336.664062 215 L 348.664062 186.785156 L 360.664062 215 L 390.332031 215 L 366.332031 232.4375 L 374.417969 263.980469 L 348.664062 246.542969 L 322.914062 263.980469 L 335.214844 232.4375 L 307 215 "/>
<path style="fill-rule:nonzero;fill:rgb(55%,51%,53%);fill-opacity:1;stroke-width:1;stroke-linecap:butt;stroke-linejoin:miter;stroke:rgb(0%,0%,0%);stroke-opacity:1;stroke-miterlimit:10;" d="M 943.214844 326 C 943.214844 337.714844 933.714844 347.214844 922 347.214844 C 910.285156 347.214844 900.785156 337.714844 900.785156 326 C 900.785156 314.285156 910.285156 304.785156 922 304.785156 C 933.714844 304.785156 943.214844 314.285156 943.214844 326 "/>
<path style="fill-rule:nonzero;fill:rgb(55%,51%,53%);fill-opacity:1;stroke-width:1;stroke-linecap:butt;stroke-linejoin:miter;stroke:rgb(0%,0%,0%);stroke-opacity:1;stroke-miterlimit:10;" d="M 226.214844 312 C 226.214844 323.714844 216.714844 333.214844 205 333.214844 C 193.285156 333.214844 183.785156 323.714844 183.785156 312 C 183.785156 300.285156 193.285156 290.785156 205 290.785156 C 216.714844 290.785156 226.214844 300.285156 226.214844 312 "/>
<path style="fill-rule:nonzero;fill:rgb(55%,51%,53%);fill-opacity:1;stroke-width:1;stroke-linecap:butt;stroke-linejoin:miter;stroke:rgb(0%,0%,0%);stroke-opacity:1;stroke-miterlimit:10;" d="M 458.214844 275 C 458.214844 286.714844 448.714844 296.214844 437 296.214844 C 425.285156 296.214844 415.785156 286.714844 415.785156 275 C 415.785156 263.285156 425.285156 253.785156 437 253.785156 C 448.714844 253.785156 458.214844 263.285156 458.214844 275 "/>
<path style="fill-rule:nonzero;fill:rgb(55%,51%,53%);fill-opacity:1;stroke-width:1;stroke-linecap:butt;stroke-linejoin:miter;stroke:rgb(0%,0%,0%);stroke-opacity:1;stroke-miterlimit:10;" d="M 114.214844 426 C 114.214844 437.714844 104.714844 447.214844 93 447.214844 C 81.285156 447.214844 71.785156 437.714844 71.785156 426 C 71.785156 414.285156 81.285156 404.785156 93 404.785156 C 104.714844 404.785156 114.214844 414.285156 114.214844 426 "/>
<path style="fill-rule:nonzero;fill:rgb(55%,51%,53%);fill-opacity:1;stroke-width:1;stroke-linecap:butt;stroke-linejoin:miter;stroke:rgb(0%,0%,0%);stroke-opacity:1;stroke-miterlimit:10;" d="M 392.214844 428 C 392.214844 439.714844 382.714844 449.214844 371 449.214844 C 359.285156 449.214844 349.785156 439.714844 349.785156 428 C 349.785156 416.285156 359.285156 406.785156 371 406.785156 C 382.714844 406.785156 392.214844 416.285156 392.214844 428 "/>
</g>
</svg>
