<?xml version="1.0" encoding="UTF-8"?>
<svg xmlns="http://www.w3.org/2000/svg" xmlns:xlink="http://www.w3.org/1999/xlink" width="1179pt" height="517pt" viewBox="0 0 1179 517" version="1.1">
<g id="surface971">
<rect x="0" y="0" width="1179" height="517" style="fill:rgb(90%,90%,90%);fill-opacity:1;stroke:none;"/>
<path style="fill-rule:nonzero;fill:rgb(100%,51%,0%);fill-opacity:1;stroke-width:1;stroke-linecap:butt;stroke-linejoin:miter;stroke:rgb(0%,0%,0%);stroke-opacity:1;stroke-miterlimit:10;" d="M 455.214844 170 C 455.214844 181.714844 445.714844 191.214844 434 191.214844 C 422.285156 191.214844 412.785156 181.714844 412.785156 170 C 412.785156 158.285156 422.285156 148.785156 434 148.785156 C 445.714844 148.785156 455.214844 158.285156 455.214844 170 "/>
<path style="fill-rule:nonzero;fill:rgb(100%,51%,0%);fill-opacity:1;stroke-width:1;stroke-linecap:butt;stroke-linejoin:miter;stroke:rgb(0%,0%,0%);stroke-opacity:1;stroke-miterlimit:10;" d="M 740.214844 181 C 740.214844 192.714844 730.714844 202.214844 719 202.214844 C 707.285156 202.214844 697.785156 192.714844 697.785156 181 C 697.785156 169.285156 707.285156 159.785156 719 159.785156 C 730.714844 159.785156 740.214844 169.285156 740.214844 181 "/>
<path style="fill-rule:nonzero;fill:rgb(100%,51%,0%);fill-opacity:1;stroke-width:1;stroke-linecap:butt;stroke-linejoin:miter;stroke:rgb(0%,0%,0%);stroke-opacity:1;stroke-miterlimit:10;" d="M 841.214844 115 C 841.214844 126.714844 831.714844 136.214844 820 136.214844 C 808.285156 136.214844 798.785156 126.714844 798.785156 115 C 798.785156 103.285156 808.285156 93.785156 820 93.785156 C 831.714844 93.785156 841.214844 103.285156 841.214844 115 "/>
<path style="fill-rule:nonzero;fill:rgb(100%,51%,0%);fill-opacity:1;stroke-width:1;stroke-linecap:butt;stroke-linejoin:miter;stroke:rgb(0%,0%,0%);stroke-opacity:1;stroke-miterlimit:10;" d="M 989.214844 348 C 989.214844 359.714844 979.714844 369.214844 968 369.214844 C 956.285156 369.214844 946.785156 359.714844 946.785156 348 C 946.785156 336.285156 956.285156 326.785156 968 326.785156 C 979.714844 326.785156 989.214844 336.285156 989.214844 348 "/>
<path style="fill-rule:nonzero;fill:rgb(35%,70%,90%);fill-opacity:1;stroke-width:1;stroke-linecap:butt;stroke-linejoin:miter;stroke:rgb(0%,0%,0%);stroke-opacity:1;stroke-miterlimit:10;" d="M 819 403 L 848.664062 403 L 860.664062 374.785156 L 872.664062 403 L 902.332031 403 L 878.332031 420.4375 L 886.417969 451.980469 L 860.664062 434.542969 L 834.914062 451.980469 L 847.214844 420.4375 L 819 403 "/>
<path style="fill-rule:nonzero;fill:rgb(35%,70%,90%);fill-opacity:1;stroke-width:1;stroke-linecap:butt;stroke-linejoin:miter;stroke:rgb(0%,0%,0%);stroke-opacity:1;stroke-miterlimit:10;" d="M 219 268 L 248.664062 268 L 260.664062 239.785156 L 272.664062 268 L 302.332031 268 L 278.332031 285.4375 L 286.417969 316.980469 L 260.664062 299.542969 L 234.914062 316.980469 L 247.214844 285.4375 L 219 268 "/>
<path style="fill-rule:nonzero;fill:rgb(35%,70%,90%);fill-opacity:1;stroke-width:1;stroke-linecap:butt;stroke-linejoin:miter;stroke:rgb(0%,0%,0%);stroke-opacity:1;stroke-miterlimit:10;" d="M 1009 115 L 1038.664062 115 L 1050.664062 86.785156 L 1062.664062 115 L 1092.332031 115 L 1068.332031 132.4375 L 1076.417969 163.980469 L 1050.664062 146.542969 L 1024.914062 163.980469 L 1037.214844 132.4375 L 1009 115 "/>
</g>
</svg>
