<?xml version="1.0" encoding="UTF-8"?>
<svg xmlns="http://www.w3.org/2000/svg" xmlns:xlink="http://www.w3.org/1999/xlink" width="1179pt" height="517pt" viewBox="0 0 1179 517" version="1.1">
<g id="surface1221">
<rect x="0" y="0" width="1179" height="517" style="fill:rgb(90%,90%,90%);fill-opacity:1;stroke:none;"/>
<path style="fill-rule:nonzero;fill:rgb(100%,51%,0%);fill-opacity:1;stroke-width:1;stroke-linecap:butt;stroke-linejoin:miter;stroke:rgb(0%,0%,0%);stroke-opacity:1;stroke-miterlimit:10;" d="M 660 276 L 689.664062 276 L 701.664062 247.785156 L 713.664062 276 L 743.332031 276 L 719.332031 293.4375 L 727.417969 324.980469 L 701.664062 307.542969 L 675.914062 324.980469 L 688.214844 293.4375 L 660 276 "/>
<path style="fill-rule:nonzero;fill:rgb(100%,51%,0%);fill-opacity:1;stroke-width:1;stroke-linecap:butt;stroke-linejoin:miter;stroke:rgb(0%,0%,0%);stroke-opacity:1;stroke-miterlimit:10;" d="M 529 143 L 558.664062 143 L 570.664062 114.785156 L 582.664062 143 L 612.332031 143 L 588.332031 160.4375 L 596.417969 191.980469 L 570.664062 174.542969 L 544.914062 191.980469 L 557.214844 160.4375 L 529 143 "/>
<path style="fill-rule:nonzero;fill:rgb(100%,51%,0%);fill-opacity:1;stroke-width:1;stroke-linecap:butt;stroke-linejoin:miter;stroke:rgb(0%,0%,0%);stroke-opacity:1;stroke-miterlimit:10;" d="M 140 156 L 169.664062 156 L 181.664062 127.785156 L 193.664062 156 L 223.332031 156 L 199.332031 173.4375 L 207.417969 204.980469 L 181.664062 187.542969 L 155.914062 204.980469 L 168.214844 173.4375 L 140 156 "/>
<path style="fill-rule:nonzero;fill:rgb(100%,51%,0%);fill-opacity:1;stroke-width:1;stroke-linecap:butt;stroke-linejoin:miter;stroke:rgb(0%,0%,0%);stroke-opacity:1;stroke-miterlimit:10;" d="M 652 110 L 681.664062 110 L 693.664062 81.785156 L 705.664062 110 L 735.332031 110 L 711.332031 127.4375 L 719.417969 158.980469 L 693.664062 141.542969 L 667.914062 158.980469 L 680.214844 127.4375 L 652 110 "/>
<path style="fill-rule:nonzero;fill:rgb(55%,51%,53%);fill-opacity:1;stroke-width:1;stroke-linecap:butt;stroke-linejoin:miter;stroke:rgb(0%,0%,0%);stroke-opacity:1;stroke-miterlimit:10;" d="M 878.214844 150 C 878.214844 161.714844 868.714844 171.214844 857 171.214844 C 845.285156 171.214844 835.785156 161.714844 835.785156 150 C 835.785156 138.285156 845.285156 128.785156 857 128.785156 C 868.714844 128.785156 878.214844 138.285156 878.214844 150 "/>
<path style="fill-rule:nonzero;fill:rgb(55%,51%,53%);fill-opacity:1;stroke-width:1;stroke-linecap:butt;stroke-linejoin:miter;stroke:rgb(0%,0%,0%);stroke-opacity:1;stroke-miterlimit:10;" d="M 954.214844 310 C 954.214844 321.714844 944.714844 331.214844 933 331.214844 C 921.285156 331.214844 911.785156 321.714844 911.785156 310 C 911.785156 298.285156 921.285156 288.785156 933 288.785156 C 944.714844 288.785156 954.214844 298.285156 954.214844 310 "/>
<path style="fill-rule:nonzero;fill:rgb(55%,51%,53%);fill-opacity:1;stroke-width:1;stroke-linecap:butt;stroke-linejoin:miter;stroke:rgb(0%,0%,0%);stroke-opacity:1;stroke-miterlimit:10;" d="M 640.214844 398 C 640.214844 409.714844 630.714844 419.214844 619 419.214844 C 607.285156 419.214844 597.785156 409.714844 597.785156 398 C 597.785156 386.285156 607.285156 376.785156 619 376.785156 C 630.714844 376.785156 640.214844 386.285156 640.214844 398 "/>
<path style="fill-rule:nonzero;fill:rgb(55%,51%,53%);fill-opacity:1;stroke-width:1;stroke-linecap:butt;stroke-linejoin:miter;stroke:rgb(0%,0%,0%);stroke-opacity:1;stroke-miterlimit:10;" d="M 518.214844 340 C 518.214844 351.714844 508.714844 361.214844 497 361.214844 C 485.285156 361.214844 475.785156 351.714844 475.785156 340 C 475.785156 328.285156 485.285156 318.785156 497 318.785156 C 508.714844 318.785156 518.214844 328.285156 518.214844 340 "/>
<path style="fill-rule:nonzero;fill:rgb(55%,51%,53%);fill-opacity:1;stroke-width:1;stroke-linecap:butt;stroke-linejoin:miter;stroke:rgb(0%,0%,0%);stroke-opacity:1;stroke-miterlimit:10;" d="M 305.214844 262 C 305.214844 273.714844 295.714844 283.214844 284 283.214844 C 272.285156 283.214844 262.785156 273.714844 262.785156 262 C 262.785156 250.285156 272.285156 240.785156 284 240.785156 C 295.714844 240.785156 305.214844 250.285156 305.214844 262 "/>
</g>
</svg>
