<?xml version="1.0" encoding="UTF-8"?>
<svg xmlns="http://www.w3.org/2000/svg" xmlns:xlink="http://www.w3.org/1999/xlink" width="1179pt" height="517pt" viewBox="0 0 1179 517" version="1.1">
<g id="surface511">
<rect x="0" y="0" width="1179" height="517" style="fill:rgb(90%,90%,90%);fill-opacity:1;stroke:none;"/>
<path style="fill-rule:nonzero;fill:rgb(55%,51%,53%);fill-opacity:1;stroke-width:1;stroke-linecap:butt;stroke-linejoin:miter;stroke:rgb(0%,0%,0%);stroke-opacity:1;stroke-miterlimit:10;" d="M 479 270 L 508.664062 270 L 520.664062 241.785156 L 532.664062 270 L 562.332031 270 L 538.332031 287.4375 L 546.417969 318.980469 L 520.664062 301.542969 L 494.914062 318.980469 L 507.214844 287.4375 L 479 270 "/>
<path style="fill-rule:nonzero;fill:rgb(55%,51%,53%);fill-opacity:1;stroke-width:1;stroke-linecap:butt;stroke-linejoin:miter;stroke:rgb(0%,0%,0%);stroke-opacity:1;stroke-miterlimit:10;" d="M 858 349 L 887.664062 349 L 899.664062 320.785156 L 911.664062 349 L 941.332031 349 L 917.332031 366.4375 L 925.417969 397.980469 L 899.664062 380.542969 L 873.914062 397.980469 L 886.214844 366.4375 L 858 349 "/>
<path style="fill-rule:nonzero;fill:rgb(55%,51%,53%);fill-opacity:1;stroke-width:1;stroke-linecap:butt;stroke-linejoin:miter;stroke:rgb(0%,0%,0%);stroke-opacity:1;stroke-miterlimit:10;" d="M 193 181 L 222.664062 181 L 234.664062 152.785156 L 246.664062 181 L 276.332031 181 L 252.332031 198.4375 L 260.417969 229.980469 L 234.664062 212.542969 L 208.914062 229.980469 L 221.214844 198.4375 L 193 181 "/>
<path style="fill-rule:nonzero;fill:rgb(55%,51%,53%);fill-opacity:1;stroke-width:1;stroke-linecap:butt;stroke-linejoin:miter;stroke:rgb(0%,0%,0%);stroke-opacity:1;stroke-miterlimit:10;" d="M 624 259 L 653.664062 259 L 665.664062 230.785156 L 677.664062 259 L 707.332031 259 L 683.332031 276.4375 L 691.417969 307.980469 L 665.664062 290.542969 L 639.914062 307.980469 L 652.214844 276.4375 L 624 259 "/>
<path style="fill-rule:nonzero;fill:rgb(53%,27%,7%);fill-opacity:1;stroke-width:1;stroke-linecap:butt;stroke-linejoin:miter;stroke:rgb(0%,0%,0%);stroke-opacity:1;stroke-miterlimit:10;" d="M 1029.214844 132 C 1029.214844 143.714844 1019.714844 153.214844 1008 153.214844 C 996.285156 153.214844 986.785156 143.714844 986.785156 132 C 986.785156 120.285156 996.285156 110.785156 1008 110.785156 C 1019.714844 110.785156 1029.214844 120.285156 1029.214844 132 "/>
<path style="fill-rule:nonzero;fill:rgb(53%,27%,7%);fill-opacity:1;stroke-width:1;stroke-linecap:butt;stroke-linejoin:miter;stroke:rgb(0%,0%,0%);stroke-opacity:1;stroke-miterlimit:10;" d="M 794.214844 157 C 794.214844 168.714844 784.714844 178.214844 773 178.214844 C 761.285156 178.214844 751.785156 168.714844 751.785156 157 C 751.785156 145.285156 761.285156 135.785156 773 135.785156 C 784.714844 135.785156 794.214844 145.285156 794.214844 157 "/>
<path style="fill-rule:nonzero;fill:rgb(53%,27%,7%);fill-opacity:1;stroke-width:1;stroke-linecap:butt;stroke-linejoin:miter;stroke:rgb(0%,0%,0%);stroke-opacity:1;stroke-miterlimit:10;" d="M 147.214844 307 C 147.214844 318.714844 137.714844 328.214844 126 328.214844 C 114.285156 328.214844 104.785156 318.714844 104.785156 307 C 104.785156 295.285156 114.285156 285.785156 126 285.785156 C 137.714844 285.785156 147.214844 295.285156 147.214844 307 "/>
<path style="fill-rule:nonzero;fill:rgb(53%,27%,7%);fill-opacity:1;stroke-width:1;stroke-linecap:butt;stroke-linejoin:miter;stroke:rgb(0%,0%,0%);stroke-opacity:1;stroke-miterlimit:10;" d="M 609.214844 425 C 609.214844 436.714844 599.714844 446.214844 588 446.214844 C 576.285156 446.214844 566.785156 436.714844 566.785156 425 C 566.785156 413.285156 576.285156 403.785156 588 403.785156 C 599.714844 403.785156 609.214844 413.285156 609.214844 425 "/>
</g>
</svg>
