<?xml version="1.0" encoding="UTF-8"?>
<svg xmlns="http://www.w3.org/2000/svg" xmlns:xlink="http://www.w3.org/1999/xlink" width="1179pt" height="517pt" viewBox="0 0 1179 517" version="1.1">
<g id="surface1481">
<rect x="0" y="0" width="1179" height="517" style="fill:rgb(90%,90%,90%);fill-opacity:1;stroke:none;"/>
<path style="fill-rule:nonzero;fill:rgb(53%,27%,7%);fill-opacity:1;stroke-width:1;stroke-linecap:butt;stroke-linejoin:miter;stroke:rgb(0%,0%,0%);stroke-opacity:1;stroke-miterlimit:10;" d="M 586 60 L 560.019531 105 L 611.980469 105 L 586 60 "/>
<path style="fill-rule:nonzero;fill:rgb(53%,27%,7%);fill-opacity:1;stroke-width:1;stroke-linecap:butt;stroke-linejoin:miter;stroke:rgb(0%,0%,0%);stroke-opacity:1;stroke-miterlimit:10;" d="M 333 115 L 307.019531 160 L 358.980469 160 L 333 115 "/>
<path style="fill-rule:nonzero;fill:rgb(53%,27%,7%);fill-opacity:1;stroke-width:1;stroke-linecap:butt;stroke-linejoin:miter;stroke:rgb(0%,0%,0%);stroke-opacity:1;stroke-miterlimit:10;" d="M 828 199 L 802.019531 244 L 853.980469 244 L 828 199 "/>
<path style="fill-rule:nonzero;fill:rgb(53%,27%,7%);fill-opacity:1;stroke-width:1;stroke-linecap:butt;stroke-linejoin:miter;stroke:rgb(0%,0%,0%);stroke-opacity:1;stroke-miterlimit:10;" d="M 516 303 L 490.019531 348 L 541.980469 348 L 516 303 "/>
<path style="fill-rule:nonzero;fill:rgb(35%,70%,90%);fill-opacity:1;stroke-width:1;stroke-linecap:butt;stroke-linejoin:miter;stroke:rgb(0%,0%,0%);stroke-opacity:1;stroke-miterlimit:10;" d="M 660 283 L 689.664062 283 L 701.664062 254.785156 L 713.664062 283 L 743.332031 283 L 719.332031 300.4375 L 727.417969 331.980469 L 701.664062 314.542969 L 675.914062 331.980469 L 688.214844 300.4375 L 660 283 "/>
<path style="fill-rule:nonzero;fill:rgb(35%,70%,90%);fill-opacity:1;stroke-width:1;stroke-linecap:butt;stroke-linejoin:miter;stroke:rgb(0%,0%,0%);stroke-opacity:1;stroke-miterlimit:10;" d="M 930 405 L 959.664062 405 L 971.664062 376.785156 L 983.664062 405 L 1013.332031 405 L 989.332031 422.4375 L 997.417969 453.980469 L 971.664062 436.542969 L 945.914062 453.980469 L 958.214844 422.4375 L 930 405 "/>
<path style="fill-rule:nonzero;fill:rgb(35%,70%,90%);fill-opacity:1;stroke-width:1;stroke-linecap:butt;stroke-linejoin:miter;stroke:rgb(0%,0%,0%);stroke-opacity:1;stroke-miterlimit:10;" d="M 295 285 L 324.664062 285 L 336.664062 256.785156 L 348.664062 285 L 378.332031 285 L 354.332031 302.4375 L 362.417969 333.980469 L 336.664062 316.542969 L 310.914062 333.980469 L 323.214844 302.4375 L 295 285 "/>
<path style="fill-rule:nonzero;fill:rgb(35%,70%,90%);fill-opacity:1;stroke-width:1;stroke-linecap:butt;stroke-linejoin:miter;stroke:rgb(0%,0%,0%);stroke-opacity:1;stroke-miterlimit:10;" d="M 852 89 L 881.664062 89 L 893.664062 60.785156 L 905.664062 89 L 935.332031 89 L 911.332031 106.4375 L 919.417969 137.980469 L 893.664062 120.542969 L 867.914062 137.980469 L 880.214844 106.4375 L 852 89 "/>
<path style="fill-rule:nonzero;fill:rgb(35%,70%,90%);fill-opacity:1;stroke-width:1;stroke-linecap:butt;stroke-linejoin:miter;stroke:rgb(0%,0%,0%);stroke-opacity:1;stroke-miterlimit:10;" d="M 131 203 L 160.664062 203 L 172.664062 174.785156 L 184.664062 203 L 214.332031 203 L 190.332031 220.4375 L 198.417969 251.980469 L 172.664062 234.542969 L 146.914062 251.980469 L 159.214844 220.4375 L 131 203 "/>
</g>
</svg>
