<?xml version="1.0" encoding="UTF-8"?>
<svg xmlns="http://www.w3.org/2000/svg" xmlns:xlink="http://www.w3.org/1999/xlink" width="1179pt" height="517pt" viewBox="0 0 1179 517" version="1.1">
<g id="surface916">
<rect x="0" y="0" width="1179" height="517" style="fill:rgb(90%,90%,90%);fill-opacity:1;stroke:none;"/>
<path style="fill-rule:nonzero;fill:rgb(53%,27%,7%);fill-opacity:1;stroke-width:1;stroke-linecap:butt;stroke-linejoin:miter;stroke:rgb(0%,0%,0%);stroke-opacity:1;stroke-miterlimit:10;" d="M 833 136 L 862.664062 136 L 874.664062 107.785156 L 886.664062 136 L 916.332031 136 L 892.332031 153.4375 L 900.417969 184.980469 L 874.664062 167.542969 L 848.914062 184.980469 L 861.214844 153.4375 L 833 136 "/>
<path style="fill-rule:nonzero;fill:rgb(53%,27%,7%);fill-opacity:1;stroke-width:1;stroke-linecap:butt;stroke-linejoin:miter;stroke:rgb(0%,0%,0%);stroke-opacity:1;stroke-miterlimit:10;" d="M 660 275 L 689.664062 275 L 701.664062 246.785156 L 713.664062 275 L 743.332031 275 L 719.332031 292.4375 L 727.417969 323.980469 L 701.664062 306.542969 L 675.914062 323.980469 L 688.214844 292.4375 L 660 275 "/>
<path style="fill-rule:nonzero;fill:rgb(53%,27%,7%);fill-opacity:1;stroke-width:1;stroke-linecap:butt;stroke-linejoin:miter;stroke:rgb(0%,0%,0%);stroke-opacity:1;stroke-miterlimit:10;" d="M 561 137 L 590.664062 137 L 602.664062 108.785156 L 614.664062 137 L 644.332031 137 L 620.332031 154.4375 L 628.417969 185.980469 L 602.664062 168.542969 L 576.914062 185.980469 L 589.214844 154.4375 L 561 137 "/>
<path style="fill-rule:nonzero;fill:rgb(55%,51%,53%);fill-opacity:1;stroke-width:1;stroke-linecap:butt;stroke-linejoin:miter;stroke:rgb(0%,0%,0%);stroke-opacity:1;stroke-miterlimit:10;" d="M 189 90 L 218.664062 90 L 230.664062 61.785156 L 242.664062 90 L 272.332031 90 L 248.332031 107.4375 L 256.417969 138.980469 L 230.664062 121.542969 L 204.914062 138.980469 L 217.214844 107.4375 L 189 90 "/>
<path style="fill-rule:nonzero;fill:rgb(55%,51%,53%);fill-opacity:1;stroke-width:1;stroke-linecap:butt;stroke-linejoin:miter;stroke:rgb(0%,0%,0%);stroke-opacity:1;stroke-miterlimit:10;" d="M 979 398 L 1008.664062 398 L 1020.664062 369.785156 L 1032.664062 398 L 1062.332031 398 L 1038.332031 415.4375 L 1046.417969 446.980469 L 1020.664062 429.542969 L 994.914062 446.980469 L 1007.214844 415.4375 L 979 398 "/>
<path style="fill-rule:nonzero;fill:rgb(55%,51%,53%);fill-opacity:1;stroke-width:1;stroke-linecap:butt;stroke-linejoin:miter;stroke:rgb(0%,0%,0%);stroke-opacity:1;stroke-miterlimit:10;" d="M 812 329 L 841.664062 329 L 853.664062 300.785156 L 865.664062 329 L 895.332031 329 L 871.332031 346.4375 L 879.417969 377.980469 L 853.664062 360.542969 L 827.914062 377.980469 L 840.214844 346.4375 L 812 329 "/>
<path style="fill-rule:nonzero;fill:rgb(55%,51%,53%);fill-opacity:1;stroke-width:1;stroke-linecap:butt;stroke-linejoin:miter;stroke:rgb(0%,0%,0%);stroke-opacity:1;stroke-miterlimit:10;" d="M 320 232 L 349.664062 232 L 361.664062 203.785156 L 373.664062 232 L 403.332031 232 L 379.332031 249.4375 L 387.417969 280.980469 L 361.664062 263.542969 L 335.914062 280.980469 L 348.214844 249.4375 L 320 232 "/>
</g>
</svg>
