<?xml version="1.0" encoding="UTF-8"?>
<svg xmlns="http://www.w3.org/2000/svg" xmlns:xlink="http://www.w3.org/1999/xlink" width="1179pt" height="517pt" viewBox="0 0 1179 517" version="1.1">
<g id="surface1086">
<rect x="0" y="0" width="1179" height="517" style="fill:rgb(90%,90%,90%);fill-opacity:1;stroke:none;"/>
<path style="fill-rule:nonzero;fill:rgb(55%,51%,53%);fill-opacity:1;stroke-width:1;stroke-linecap:butt;stroke-linejoin:miter;stroke:rgb(0%,0%,0%);stroke-opacity:1;stroke-miterlimit:10;" d="M 985 390 L 959.019531 435 L 1010.980469 435 L 985 390 "/>
<path style="fill-rule:nonzero;fill:rgb(55%,51%,53%);fill-opacity:1;stroke-width:1;stroke-linecap:butt;stroke-linejoin:miter;stroke:rgb(0%,0%,0%);stroke-opacity:1;stroke-miterlimit:10;" d="M 353 195 L 327.019531 240 L 378.980469 240 L 353 195 "/>
<path style="fill-rule:nonzero;fill:rgb(55%,51%,53%);fill-opacity:1;stroke-width:1;stroke-linecap:butt;stroke-linejoin:miter;stroke:rgb(0%,0%,0%);stroke-opacity:1;stroke-miterlimit:10;" d="M 869 314 L 843.019531 359 L 894.980469 359 L 869 314 "/>
<path style="fill-rule:nonzero;fill:rgb(55%,51%,53%);fill-opacity:1;stroke-width:1;stroke-linecap:butt;stroke-linejoin:miter;stroke:rgb(0%,0%,0%);stroke-opacity:1;stroke-miterlimit:10;" d="M 820 136 L 794.019531 181 L 845.980469 181 L 820 136 "/>
<path style="fill-rule:nonzero;fill:rgb(55%,51%,53%);fill-opacity:1;stroke-width:1;stroke-linecap:butt;stroke-linejoin:miter;stroke:rgb(0%,0%,0%);stroke-opacity:1;stroke-miterlimit:10;" d="M 689 248 L 663.019531 293 L 714.980469 293 L 689 248 "/>
<path style="fill-rule:nonzero;fill:rgb(35%,70%,90%);fill-opacity:1;stroke-width:1;stroke-linecap:butt;stroke-linejoin:miter;stroke:rgb(0%,0%,0%);stroke-opacity:1;stroke-miterlimit:10;" d="M 149 165 L 178.664062 165 L 190.664062 136.785156 L 202.664062 165 L 232.332031 165 L 208.332031 182.4375 L 216.417969 213.980469 L 190.664062 196.542969 L 164.914062 213.980469 L 177.214844 182.4375 L 149 165 "/>
<path style="fill-rule:nonzero;fill:rgb(35%,70%,90%);fill-opacity:1;stroke-width:1;stroke-linecap:butt;stroke-linejoin:miter;stroke:rgb(0%,0%,0%);stroke-opacity:1;stroke-miterlimit:10;" d="M 957 238 L 986.664062 238 L 998.664062 209.785156 L 1010.664062 238 L 1040.332031 238 L 1016.332031 255.4375 L 1024.417969 286.980469 L 998.664062 269.542969 L 972.914062 286.980469 L 985.214844 255.4375 L 957 238 "/>
<path style="fill-rule:nonzero;fill:rgb(35%,70%,90%);fill-opacity:1;stroke-width:1;stroke-linecap:butt;stroke-linejoin:miter;stroke:rgb(0%,0%,0%);stroke-opacity:1;stroke-miterlimit:10;" d="M 245 424 L 274.664062 424 L 286.664062 395.785156 L 298.664062 424 L 328.332031 424 L 304.332031 441.4375 L 312.417969 472.980469 L 286.664062 455.542969 L 260.914062 472.980469 L 273.214844 441.4375 L 245 424 "/>
<path style="fill-rule:nonzero;fill:rgb(35%,70%,90%);fill-opacity:1;stroke-width:1;stroke-linecap:butt;stroke-linejoin:miter;stroke:rgb(0%,0%,0%);stroke-opacity:1;stroke-miterlimit:10;" d="M 970 92 L 999.664062 92 L 1011.664062 63.785156 L 1023.664062 92 L 1053.332031 92 L 1029.332031 109.4375 L 1037.417969 140.980469 L 1011.664062 123.542969 L 985.914062 140.980469 L 998.214844 109.4375 L 970 92 "/>
</g>
</svg>
