<?xml version="1.0" encoding="UTF-8"?>
<svg xmlns="http://www.w3.org/2000/svg" xmlns:xlink="http://www.w3.org/1999/xlink" width="1179pt" height="517pt" viewBox="0 0 1179 517" version="1.1">
<g id="surface811">
<rect x="0" y="0" width="1179" height="517" style="fill:rgb(90%,90%,90%);fill-opacity:1;stroke:none;"/>
<path style="fill-rule:nonzero;fill:rgb(53%,27%,7%);fill-opacity:1;stroke-width:1;stroke-linecap:butt;stroke-linejoin:miter;stroke:rgb(0%,0%,0%);stroke-opacity:1;stroke-miterlimit:10;" d="M 340 180.601562 C 340 166.199219 316 166.199219 316 180.601562 C 316 195 340 197.398438 340 209.398438 C 340 197.398438 364 195 364 180.601562 C 364 166.199219 340 166.199219 340 180.601562 "/>
<path style="fill-rule:nonzero;fill:rgb(53%,27%,7%);fill-opacity:1;stroke-width:1;stroke-linecap:butt;stroke-linejoin:miter;stroke:rgb(0%,0%,0%);stroke-opacity:1;stroke-miterlimit:10;" d="M 1029 93.601562 C 1029 79.199219 1005 79.199219 1005 93.601562 C 1005 108 1029 110.398438 1029 122.398438 C 1029 110.398438 1053 108 1053 93.601562 C 1053 79.199219 1029 79.199219 1029 93.601562 "/>
<path style="fill-rule:nonzero;fill:rgb(53%,27%,7%);fill-opacity:1;stroke-width:1;stroke-linecap:butt;stroke-linejoin:miter;stroke:rgb(0%,0%,0%);stroke-opacity:1;stroke-miterlimit:10;" d="M 847 94.601562 C 847 80.199219 823 80.199219 823 94.601562 C 823 109 847 111.398438 847 123.398438 C 847 111.398438 871 109 871 94.601562 C 871 80.199219 847 80.199219 847 94.601562 "/>
<path style="fill-rule:nonzero;fill:rgb(53%,27%,7%);fill-opacity:1;stroke-width:1;stroke-linecap:butt;stroke-linejoin:miter;stroke:rgb(0%,0%,0%);stroke-opacity:1;stroke-miterlimit:10;" d="M 398 376.601562 C 398 362.199219 374 362.199219 374 376.601562 C 374 391 398 393.398438 398 405.398438 C 398 393.398438 422 391 422 376.601562 C 422 362.199219 398 362.199219 398 376.601562 "/>
<path style="fill-rule:nonzero;fill:rgb(53%,27%,7%);fill-opacity:1;stroke-width:1;stroke-linecap:butt;stroke-linejoin:miter;stroke:rgb(0%,0%,0%);stroke-opacity:1;stroke-miterlimit:10;" d="M 740 363.601562 C 740 349.199219 716 349.199219 716 363.601562 C 716 378 740 380.398438 740 392.398438 C 740 380.398438 764 378 764 363.601562 C 764 349.199219 740 349.199219 740 363.601562 "/>
<path style="fill-rule:nonzero;fill:rgb(100%,51%,0%);fill-opacity:1;stroke-width:1;stroke-linecap:butt;stroke-linejoin:miter;stroke:rgb(0%,0%,0%);stroke-opacity:1;stroke-miterlimit:10;" d="M 186.214844 387 C 186.214844 398.714844 176.714844 408.214844 165 408.214844 C 153.285156 408.214844 143.785156 398.714844 143.785156 387 C 143.785156 375.285156 153.285156 365.785156 165 365.785156 C 176.714844 365.785156 186.214844 375.285156 186.214844 387 "/>
<path style="fill-rule:nonzero;fill:rgb(100%,51%,0%);fill-opacity:1;stroke-width:1;stroke-linecap:butt;stroke-linejoin:miter;stroke:rgb(0%,0%,0%);stroke-opacity:1;stroke-miterlimit:10;" d="M 798.214844 242 C 798.214844 253.714844 788.714844 263.214844 777 263.214844 C 765.285156 263.214844 755.785156 253.714844 755.785156 242 C 755.785156 230.285156 765.285156 220.785156 777 220.785156 C 788.714844 220.785156 798.214844 230.285156 798.214844 242 "/>
<path style="fill-rule:nonzero;fill:rgb(100%,51%,0%);fill-opacity:1;stroke-width:1;stroke-linecap:butt;stroke-linejoin:miter;stroke:rgb(0%,0%,0%);stroke-opacity:1;stroke-miterlimit:10;" d="M 638.214844 380 C 638.214844 391.714844 628.714844 401.214844 617 401.214844 C 605.285156 401.214844 595.785156 391.714844 595.785156 380 C 595.785156 368.285156 605.285156 358.785156 617 358.785156 C 628.714844 358.785156 638.214844 368.285156 638.214844 380 "/>
</g>
</svg>
