<?xml version="1.0" encoding="UTF-8"?>
<svg xmlns="http://www.w3.org/2000/svg" xmlns:xlink="http://www.w3.org/1999/xlink" width="1179pt" height="517pt" viewBox="0 0 1179 517" version="1.1">
<g id="surface76">
<rect x="0" y="0" width="1179" height="517" style="fill:rgb(90%,90%,90%);fill-opacity:1;stroke:none;"/>
<path style="fill-rule:nonzero;fill:rgb(35%,70%,90%);fill-opacity:1;stroke-width:1;stroke-linecap:butt;stroke-linejoin:miter;stroke:rgb(0%,0%,0%);stroke-opacity:1;stroke-miterlimit:10;" d="M 416.214844 123 C 416.214844 134.714844 406.714844 144.214844 395 144.214844 C 383.285156 144.214844 373.785156 134.714844 373.785156 123 C 373.785156 111.285156 383.285156 101.785156 395 101.785156 C 406.714844 101.785156 416.214844 111.285156 416.214844 123 "/>
<path style="fill-rule:nonzero;fill:rgb(35%,70%,90%);fill-opacity:1;stroke-width:1;stroke-linecap:butt;stroke-linejoin:miter;stroke:rgb(0%,0%,0%);stroke-opacity:1;stroke-miterlimit:10;" d="M 323.214844 99 C 323.214844 110.714844 313.714844 120.214844 302 120.214844 C 290.285156 120.214844 280.785156 110.714844 280.785156 99 C 280.785156 87.285156 290.285156 77.785156 302 77.785156 C 313.714844 77.785156 323.214844 87.285156 323.214844 99 "/>
<path style="fill-rule:nonzero;fill:rgb(35%,70%,90%);fill-opacity:1;stroke-width:1;stroke-linecap:butt;stroke-linejoin:miter;stroke:rgb(0%,0%,0%);stroke-opacity:1;stroke-miterlimit:10;" d="M 426.214844 272 C 426.214844 283.714844 416.714844 293.214844 405 293.214844 C 393.285156 293.214844 383.785156 283.714844 383.785156 272 C 383.785156 260.285156 393.285156 250.785156 405 250.785156 C 416.714844 250.785156 426.214844 260.285156 426.214844 272 "/>
<path style="fill-rule:nonzero;fill:rgb(55%,51%,53%);fill-opacity:1;stroke-width:1;stroke-linecap:butt;stroke-linejoin:miter;stroke:rgb(0%,0%,0%);stroke-opacity:1;stroke-miterlimit:10;" d="M 961 315 L 935.019531 360 L 986.980469 360 L 961 315 "/>
<path style="fill-rule:nonzero;fill:rgb(55%,51%,53%);fill-opacity:1;stroke-width:1;stroke-linecap:butt;stroke-linejoin:miter;stroke:rgb(0%,0%,0%);stroke-opacity:1;stroke-miterlimit:10;" d="M 726 83 L 700.019531 128 L 751.980469 128 L 726 83 "/>
<path style="fill-rule:nonzero;fill:rgb(55%,51%,53%);fill-opacity:1;stroke-width:1;stroke-linecap:butt;stroke-linejoin:miter;stroke:rgb(0%,0%,0%);stroke-opacity:1;stroke-miterlimit:10;" d="M 711 200 L 685.019531 245 L 736.980469 245 L 711 200 "/>
</g>
</svg>
