<?xml version="1.0" encoding="UTF-8"?>
<svg xmlns="http://www.w3.org/2000/svg" xmlns:xlink="http://www.w3.org/1999/xlink" width="1179pt" height="517pt" viewBox="0 0 1179 517" version="1.1">
<g id="surface1336">
<rect x="0" y="0" width="1179" height="517" style="fill:rgb(90%,90%,90%);fill-opacity:1;stroke:none;"/>
<path style="fill-rule:nonzero;fill:rgb(100%,51%,0%);fill-opacity:1;stroke-width:1;stroke-linecap:butt;stroke-linejoin:miter;stroke:rgb(0%,0%,0%);stroke-opacity:1;stroke-miterlimit:10;" d="M 564 285 L 538.019531 330 L 589.980469 330 L 564 285 "/>
<path style="fill-rule:nonzero;fill:rgb(100%,51%,0%);fill-opacity:1;stroke-width:1;stroke-linecap:butt;stroke-linejoin:miter;stroke:rgb(0%,0%,0%);stroke-opacity:1;stroke-miterlimit:10;" d="M 567 55 L 541.019531 100 L 592.980469 100 L 567 55 "/>
<path style="fill-rule:nonzero;fill:rgb(100%,51%,0%);fill-opacity:1;stroke-width:1;stroke-linecap:butt;stroke-linejoin:miter;stroke:rgb(0%,0%,0%);stroke-opacity:1;stroke-miterlimit:10;" d="M 362 63 L 336.019531 108 L 387.980469 108 L 362 63 "/>
<path style="fill-rule:nonzero;fill:rgb(53%,27%,7%);fill-opacity:1;stroke-width:1;stroke-linecap:butt;stroke-linejoin:miter;stroke:rgb(0%,0%,0%);stroke-opacity:1;stroke-miterlimit:10;" d="M 457 405.601562 C 457 391.199219 433 391.199219 433 405.601562 C 433 420 457 422.398438 457 434.398438 C 457 422.398438 481 420 481 405.601562 C 481 391.199219 457 391.199219 457 405.601562 "/>
<path style="fill-rule:nonzero;fill:rgb(53%,27%,7%);fill-opacity:1;stroke-width:1;stroke-linecap:butt;stroke-linejoin:miter;stroke:rgb(0%,0%,0%);stroke-opacity:1;stroke-miterlimit:10;" d="M 454 228.601562 C 454 214.199219 430 214.199219 430 228.601562 C 430 243 454 245.398438 454 257.398438 C 454 245.398438 478 243 478 228.601562 C 478 214.199219 454 214.199219 454 228.601562 "/>
<path style="fill-rule:nonzero;fill:rgb(53%,27%,7%);fill-opacity:1;stroke-width:1;stroke-linecap:butt;stroke-linejoin:miter;stroke:rgb(0%,0%,0%);stroke-opacity:1;stroke-miterlimit:10;" d="M 860 411.601562 C 860 397.199219 836 397.199219 836 411.601562 C 836 426 860 428.398438 860 440.398438 C 860 428.398438 884 426 884 411.601562 C 884 397.199219 860 397.199219 860 411.601562 "/>
<path style="fill-rule:nonzero;fill:rgb(53%,27%,7%);fill-opacity:1;stroke-width:1;stroke-linecap:butt;stroke-linejoin:miter;stroke:rgb(0%,0%,0%);stroke-opacity:1;stroke-miterlimit:10;" d="M 757 247.601562 C 757 233.199219 733 233.199219 733 247.601562 C 733 262 757 264.398438 757 276.398438 C 757 264.398438 781 262 781 247.601562 C 781 233.199219 757 233.199219 757 247.601562 "/>
<path style="fill-rule:nonzero;fill:rgb(53%,27%,7%);fill-opacity:1;stroke-width:1;stroke-linecap:butt;stroke-linejoin:miter;stroke:rgb(0%,0%,0%);stroke-opacity:1;stroke-miterlimit:10;" d="M 169 187.601562 C 169 173.199219 145 173.199219 145 187.601562 C 145 202 169 204.398438 169 216.398438 C 169 204.398438 193 202 193 187.601562 C 193 173.199219 169 173.199219 169 187.601562 "/>
</g>
</svg>
