<?xml version="1.0" encoding="UTF-8"?>
<svg xmlns="http://www.w3.org/2000/svg" xmlns:xlink="http://www.w3.org/1999/xlink" width="1179pt" height="517pt" viewBox="0 0 1179 517" version="1.1">
<g id="surface866">
<rect x="0" y="0" width="1179" height="517" style="fill:rgb(90%,90%,90%);fill-opacity:1;stroke:none;"/>
<path style="fill-rule:nonzero;fill:rgb(35%,70%,90%);fill-opacity:1;stroke-width:1;stroke-linecap:butt;stroke-linejoin:miter;stroke:rgb(0%,0%,0%);stroke-opacity:1;stroke-miterlimit:10;" d="M 877 205 L 906.664062 205 L 918.664062 176.785156 L 930.664062 205 L 960.332031 205 L 936.332031 222.4375 L 944.417969 253.980469 L 918.664062 236.542969 L 892.914062 253.980469 L 905.214844 222.4375 L 877 205 "/>
<path style="fill-rule:nonzero;fill:rgb(35%,70%,90%);fill-opacity:1;stroke-width:1;stroke-linecap:butt;stroke-linejoin:miter;stroke:rgb(0%,0%,0%);stroke-opacity:1;stroke-miterlimit:10;" d="M 85 283 L 114.664062 283 L 126.664062 254.785156 L 138.664062 283 L 168.332031 283 L 144.332031 300.4375 L 152.417969 331.980469 L 126.664062 314.542969 L 100.914062 331.980469 L 113.214844 300.4375 L 85 283 "/>
<path style="fill-rule:nonzero;fill:rgb(35%,70%,90%);fill-opacity:1;stroke-width:1;stroke-linecap:butt;stroke-linejoin:miter;stroke:rgb(0%,0%,0%);stroke-opacity:1;stroke-miterlimit:10;" d="M 507 301 L 536.664062 301 L 548.664062 272.785156 L 560.664062 301 L 590.332031 301 L 566.332031 318.4375 L 574.417969 349.980469 L 548.664062 332.542969 L 522.914062 349.980469 L 535.214844 318.4375 L 507 301 "/>
<path style="fill-rule:nonzero;fill:rgb(55%,51%,53%);fill-opacity:1;stroke-width:1;stroke-linecap:butt;stroke-linejoin:miter;stroke:rgb(0%,0%,0%);stroke-opacity:1;stroke-miterlimit:10;" d="M 387.214844 391 C 387.214844 402.714844 377.714844 412.214844 366 412.214844 C 354.285156 412.214844 344.785156 402.714844 344.785156 391 C 344.785156 379.285156 354.285156 369.785156 366 369.785156 C 377.714844 369.785156 387.214844 379.285156 387.214844 391 "/>
<path style="fill-rule:nonzero;fill:rgb(55%,51%,53%);fill-opacity:1;stroke-width:1;stroke-linecap:butt;stroke-linejoin:miter;stroke:rgb(0%,0%,0%);stroke-opacity:1;stroke-miterlimit:10;" d="M 668.214844 123 C 668.214844 134.714844 658.714844 144.214844 647 144.214844 C 635.285156 144.214844 625.785156 134.714844 625.785156 123 C 625.785156 111.285156 635.285156 101.785156 647 101.785156 C 658.714844 101.785156 668.214844 111.285156 668.214844 123 "/>
<path style="fill-rule:nonzero;fill:rgb(55%,51%,53%);fill-opacity:1;stroke-width:1;stroke-linecap:butt;stroke-linejoin:miter;stroke:rgb(0%,0%,0%);stroke-opacity:1;stroke-miterlimit:10;" d="M 906.214844 372 C 906.214844 383.714844 896.714844 393.214844 885 393.214844 C 873.285156 393.214844 863.785156 383.714844 863.785156 372 C 863.785156 360.285156 873.285156 350.785156 885 350.785156 C 896.714844 350.785156 906.214844 360.285156 906.214844 372 "/>
<path style="fill-rule:nonzero;fill:rgb(55%,51%,53%);fill-opacity:1;stroke-width:1;stroke-linecap:butt;stroke-linejoin:miter;stroke:rgb(0%,0%,0%);stroke-opacity:1;stroke-miterlimit:10;" d="M 413.214844 150 C 413.214844 161.714844 403.714844 171.214844 392 171.214844 C 380.285156 171.214844 370.785156 161.714844 370.785156 150 C 370.785156 138.285156 380.285156 128.785156 392 128.785156 C 403.714844 128.785156 413.214844 138.285156 413.214844 150 "/>
</g>
</svg>
