<?xml version="1.0" encoding="UTF-8"?>
<svg xmlns="http://www.w3.org/2000/svg" xmlns:xlink="http://www.w3.org/1999/xlink" width="1179pt" height="517pt" viewBox="0 0 1179 517" version="1.1">
<g id="surface951">
<rect x="0" y="0" width="1179" height="517" style="fill:rgb(90%,90%,90%);fill-opacity:1;stroke:none;"/>
<path style="fill-rule:nonzero;fill:rgb(53%,27%,7%);fill-opacity:1;stroke-width:1;stroke-linecap:butt;stroke-linejoin:miter;stroke:rgb(0%,0%,0%);stroke-opacity:1;stroke-miterlimit:10;" d="M 725 342.601562 C 725 328.199219 701 328.199219 701 342.601562 C 701 357 725 359.398438 725 371.398438 C 725 359.398438 749 357 749 342.601562 C 749 328.199219 725 328.199219 725 342.601562 "/>
<path style="fill-rule:nonzero;fill:rgb(53%,27%,7%);fill-opacity:1;stroke-width:1;stroke-linecap:butt;stroke-linejoin:miter;stroke:rgb(0%,0%,0%);stroke-opacity:1;stroke-miterlimit:10;" d="M 457 400.601562 C 457 386.199219 433 386.199219 433 400.601562 C 433 415 457 417.398438 457 429.398438 C 457 417.398438 481 415 481 400.601562 C 481 386.199219 457 386.199219 457 400.601562 "/>
<path style="fill-rule:nonzero;fill:rgb(53%,27%,7%);fill-opacity:1;stroke-width:1;stroke-linecap:butt;stroke-linejoin:miter;stroke:rgb(0%,0%,0%);stroke-opacity:1;stroke-miterlimit:10;" d="M 594 411.601562 C 594 397.199219 570 397.199219 570 411.601562 C 570 426 594 428.398438 594 440.398438 C 594 428.398438 618 426 618 411.601562 C 618 397.199219 594 397.199219 594 411.601562 "/>
<path style="fill-rule:nonzero;fill:rgb(100%,51%,0%);fill-opacity:1;stroke-width:1;stroke-linecap:butt;stroke-linejoin:miter;stroke:rgb(0%,0%,0%);stroke-opacity:1;stroke-miterlimit:10;" d="M 1065.214844 409 C 1065.214844 420.714844 1055.714844 430.214844 1044 430.214844 C 1032.285156 430.214844 1022.785156 420.714844 1022.785156 409 C 1022.785156 397.285156 1032.285156 387.785156 1044 387.785156 C 1055.714844 387.785156 1065.214844 397.285156 1065.214844 409 "/>
<path style="fill-rule:nonzero;fill:rgb(100%,51%,0%);fill-opacity:1;stroke-width:1;stroke-linecap:butt;stroke-linejoin:miter;stroke:rgb(0%,0%,0%);stroke-opacity:1;stroke-miterlimit:10;" d="M 241.214844 350 C 241.214844 361.714844 231.714844 371.214844 220 371.214844 C 208.285156 371.214844 198.785156 361.714844 198.785156 350 C 198.785156 338.285156 208.285156 328.785156 220 328.785156 C 231.714844 328.785156 241.214844 338.285156 241.214844 350 "/>
<path style="fill-rule:nonzero;fill:rgb(100%,51%,0%);fill-opacity:1;stroke-width:1;stroke-linecap:butt;stroke-linejoin:miter;stroke:rgb(0%,0%,0%);stroke-opacity:1;stroke-miterlimit:10;" d="M 908.214844 122 C 908.214844 133.714844 898.714844 143.214844 887 143.214844 C 875.285156 143.214844 865.785156 133.714844 865.785156 122 C 865.785156 110.285156 875.285156 100.785156 887 100.785156 C 898.714844 100.785156 908.214844 110.285156 908.214844 122 "/>
<path style="fill-rule:nonzero;fill:rgb(100%,51%,0%);fill-opacity:1;stroke-width:1;stroke-linecap:butt;stroke-linejoin:miter;stroke:rgb(0%,0%,0%);stroke-opacity:1;stroke-miterlimit:10;" d="M 380.214844 276 C 380.214844 287.714844 370.714844 297.214844 359 297.214844 C 347.285156 297.214844 337.785156 287.714844 337.785156 276 C 337.785156 264.285156 347.285156 254.785156 359 254.785156 C 370.714844 254.785156 380.214844 264.285156 380.214844 276 "/>
<path style="fill-rule:nonzero;fill:rgb(100%,51%,0%);fill-opacity:1;stroke-width:1;stroke-linecap:butt;stroke-linejoin:miter;stroke:rgb(0%,0%,0%);stroke-opacity:1;stroke-miterlimit:10;" d="M 269.214844 192 C 269.214844 203.714844 259.714844 213.214844 248 213.214844 C 236.285156 213.214844 226.785156 203.714844 226.785156 192 C 226.785156 180.285156 236.285156 170.785156 248 170.785156 C 259.714844 170.785156 269.214844 180.285156 269.214844 192 "/>
</g>
</svg>
