<?xml version="1.0" encoding="UTF-8"?>
<svg xmlns="http://www.w3.org/2000/svg" xmlns:xlink="http://www.w3.org/1999/xlink" width="1179pt" height="517pt" viewBox="0 0 1179 517" version="1.1">
<g id="surface841">
<rect x="0" y="0" width="1179" height="517" style="fill:rgb(90%,90%,90%);fill-opacity:1;stroke:none;"/>
<path style="fill-rule:nonzero;fill:rgb(55%,51%,53%);fill-opacity:1;stroke-width:1;stroke-linecap:butt;stroke-linejoin:miter;stroke:rgb(0%,0%,0%);stroke-opacity:1;stroke-miterlimit:10;" d="M 209.214844 317 C 209.214844 328.714844 199.714844 338.214844 188 338.214844 C 176.285156 338.214844 166.785156 328.714844 166.785156 317 C 166.785156 305.285156 176.285156 295.785156 188 295.785156 C 199.714844 295.785156 209.214844 305.285156 209.214844 317 "/>
<path style="fill-rule:nonzero;fill:rgb(67%,100%,18%);fill-opacity:1;stroke-width:1;stroke-linecap:butt;stroke-linejoin:miter;stroke:rgb(0%,0%,0%);stroke-opacity:1;stroke-miterlimit:10;" d="M 370.214844 167 C 370.214844 178.714844 360.714844 188.214844 349 188.214844 C 337.285156 188.214844 327.785156 178.714844 327.785156 167 C 327.785156 155.285156 337.285156 145.785156 349 145.785156 C 360.714844 145.785156 370.214844 155.285156 370.214844 167 "/>
<path style="fill-rule:nonzero;fill:rgb(55%,51%,53%);fill-opacity:1;stroke-width:1;stroke-linecap:butt;stroke-linejoin:miter;stroke:rgb(0%,0%,0%);stroke-opacity:1;stroke-miterlimit:10;" d="M 306.214844 389 C 306.214844 400.714844 296.714844 410.214844 285 410.214844 C 273.285156 410.214844 263.785156 400.714844 263.785156 389 C 263.785156 377.285156 273.285156 367.785156 285 367.785156 C 296.714844 367.785156 306.214844 377.285156 306.214844 389 "/>
<path style="fill-rule:nonzero;fill:rgb(55%,51%,53%);fill-opacity:1;stroke-width:1;stroke-linecap:butt;stroke-linejoin:miter;stroke:rgb(0%,0%,0%);stroke-opacity:1;stroke-miterlimit:10;" d="M 420.214844 84 C 420.214844 95.714844 410.714844 105.214844 399 105.214844 C 387.285156 105.214844 377.785156 95.714844 377.785156 84 C 377.785156 72.285156 387.285156 62.785156 399 62.785156 C 410.714844 62.785156 420.214844 72.285156 420.214844 84 "/>
<path style="fill-rule:nonzero;fill:rgb(55%,51%,53%);fill-opacity:1;stroke-width:1;stroke-linecap:butt;stroke-linejoin:miter;stroke:rgb(0%,0%,0%);stroke-opacity:1;stroke-miterlimit:10;" d="M 106.214844 154 C 106.214844 165.714844 96.714844 175.214844 85 175.214844 C 73.285156 175.214844 63.785156 165.714844 63.785156 154 C 63.785156 142.285156 73.285156 132.785156 85 132.785156 C 96.714844 132.785156 106.214844 142.285156 106.214844 154 "/>
<path style="fill-rule:nonzero;fill:rgb(67%,100%,18%);fill-opacity:1;stroke-width:1;stroke-linecap:butt;stroke-linejoin:miter;stroke:rgb(0%,0%,0%);stroke-opacity:1;stroke-miterlimit:10;" d="M 917 361 L 891.019531 406 L 942.980469 406 L 917 361 "/>
<path style="fill-rule:nonzero;fill:rgb(55%,51%,53%);fill-opacity:1;stroke-width:1;stroke-linecap:butt;stroke-linejoin:miter;stroke:rgb(0%,0%,0%);stroke-opacity:1;stroke-miterlimit:10;" d="M 987 128 L 961.019531 173 L 1012.980469 173 L 987 128 "/>
<path style="fill-rule:nonzero;fill:rgb(67%,100%,18%);fill-opacity:1;stroke-width:1;stroke-linecap:butt;stroke-linejoin:miter;stroke:rgb(0%,0%,0%);stroke-opacity:1;stroke-miterlimit:10;" d="M 764 343 L 738.019531 388 L 789.980469 388 L 764 343 "/>
</g>
</svg>
