<?xml version="1.0" encoding="UTF-8"?>
<svg xmlns="http://www.w3.org/2000/svg" xmlns:xlink="http://www.w3.org/1999/xlink" width="1179pt" height="517pt" viewBox="0 0 1179 517" version="1.1">
<g id="surface1446">
<rect x="0" y="0" width="1179" height="517" style="fill:rgb(90%,90%,90%);fill-opacity:1;stroke:none;"/>
<path style="fill-rule:nonzero;fill:rgb(55%,51%,53%);fill-opacity:1;stroke-width:1;stroke-linecap:butt;stroke-linejoin:miter;stroke:rgb(0%,0%,0%);stroke-opacity:1;stroke-miterlimit:10;" d="M 181 388 L 155.019531 433 L 206.980469 433 L 181 388 "/>
<path style="fill-rule:nonzero;fill:rgb(55%,51%,53%);fill-opacity:1;stroke-width:1;stroke-linecap:butt;stroke-linejoin:miter;stroke:rgb(0%,0%,0%);stroke-opacity:1;stroke-miterlimit:10;" d="M 886 235 L 860.019531 280 L 911.980469 280 L 886 235 "/>
<path style="fill-rule:nonzero;fill:rgb(55%,51%,53%);fill-opacity:1;stroke-width:1;stroke-linecap:butt;stroke-linejoin:miter;stroke:rgb(0%,0%,0%);stroke-opacity:1;stroke-miterlimit:10;" d="M 650 62 L 624.019531 107 L 675.980469 107 L 650 62 "/>
<path style="fill-rule:nonzero;fill:rgb(55%,51%,53%);fill-opacity:1;stroke-width:1;stroke-linecap:butt;stroke-linejoin:miter;stroke:rgb(0%,0%,0%);stroke-opacity:1;stroke-miterlimit:10;" d="M 467 215 L 441.019531 260 L 492.980469 260 L 467 215 "/>
<path style="fill-rule:nonzero;fill:rgb(55%,51%,53%);fill-opacity:1;stroke-width:1;stroke-linecap:butt;stroke-linejoin:miter;stroke:rgb(0%,0%,0%);stroke-opacity:1;stroke-miterlimit:10;" d="M 850 384 L 824.019531 429 L 875.980469 429 L 850 384 "/>
<path style="fill-rule:nonzero;fill:rgb(35%,70%,90%);fill-opacity:1;stroke-width:1;stroke-linecap:butt;stroke-linejoin:miter;stroke:rgb(0%,0%,0%);stroke-opacity:1;stroke-miterlimit:10;" d="M 145 167 L 174.664062 167 L 186.664062 138.785156 L 198.664062 167 L 228.332031 167 L 204.332031 184.4375 L 212.417969 215.980469 L 186.664062 198.542969 L 160.914062 215.980469 L 173.214844 184.4375 L 145 167 "/>
<path style="fill-rule:nonzero;fill:rgb(35%,70%,90%);fill-opacity:1;stroke-width:1;stroke-linecap:butt;stroke-linejoin:miter;stroke:rgb(0%,0%,0%);stroke-opacity:1;stroke-miterlimit:10;" d="M 929 80 L 958.664062 80 L 970.664062 51.785156 L 982.664062 80 L 1012.332031 80 L 988.332031 97.4375 L 996.417969 128.980469 L 970.664062 111.542969 L 944.914062 128.980469 L 957.214844 97.4375 L 929 80 "/>
<path style="fill-rule:nonzero;fill:rgb(35%,70%,90%);fill-opacity:1;stroke-width:1;stroke-linecap:butt;stroke-linejoin:miter;stroke:rgb(0%,0%,0%);stroke-opacity:1;stroke-miterlimit:10;" d="M 293 246 L 322.664062 246 L 334.664062 217.785156 L 346.664062 246 L 376.332031 246 L 352.332031 263.4375 L 360.417969 294.980469 L 334.664062 277.542969 L 308.914062 294.980469 L 321.214844 263.4375 L 293 246 "/>
<path style="fill-rule:nonzero;fill:rgb(35%,70%,90%);fill-opacity:1;stroke-width:1;stroke-linecap:butt;stroke-linejoin:miter;stroke:rgb(0%,0%,0%);stroke-opacity:1;stroke-miterlimit:10;" d="M 805 123 L 834.664062 123 L 846.664062 94.785156 L 858.664062 123 L 888.332031 123 L 864.332031 140.4375 L 872.417969 171.980469 L 846.664062 154.542969 L 820.914062 171.980469 L 833.214844 140.4375 L 805 123 "/>
</g>
</svg>
