<?xml version="1.0" encoding="UTF-8"?>
<svg xmlns="http://www.w3.org/2000/svg" xmlns:xlink="http://www.w3.org/1999/xlink" width="1179pt" height="517pt" viewBox="0 0 1179 517" version="1.1">
<g id="surface591">
<rect x="0" y="0" width="1179" height="517" style="fill:rgb(90%,90%,90%);fill-opacity:1;stroke:none;"/>
<path style="fill-rule:nonzero;fill:rgb(35%,70%,90%);fill-opacity:1;stroke-width:1;stroke-linecap:butt;stroke-linejoin:miter;stroke:rgb(0%,0%,0%);stroke-opacity:1;stroke-miterlimit:10;" d="M 171.214844 288 C 171.214844 299.714844 161.714844 309.214844 150 309.214844 C 138.285156 309.214844 128.785156 299.714844 128.785156 288 C 128.785156 276.285156 138.285156 266.785156 150 266.785156 C 161.714844 266.785156 171.214844 276.285156 171.214844 288 "/>
<path style="fill-rule:nonzero;fill:rgb(35%,70%,90%);fill-opacity:1;stroke-width:1;stroke-linecap:butt;stroke-linejoin:miter;stroke:rgb(0%,0%,0%);stroke-opacity:1;stroke-miterlimit:10;" d="M 315.214844 264 C 315.214844 275.714844 305.714844 285.214844 294 285.214844 C 282.285156 285.214844 272.785156 275.714844 272.785156 264 C 272.785156 252.285156 282.285156 242.785156 294 242.785156 C 305.714844 242.785156 315.214844 252.285156 315.214844 264 "/>
<path style="fill-rule:nonzero;fill:rgb(35%,70%,90%);fill-opacity:1;stroke-width:1;stroke-linecap:butt;stroke-linejoin:miter;stroke:rgb(0%,0%,0%);stroke-opacity:1;stroke-miterlimit:10;" d="M 150.214844 431 C 150.214844 442.714844 140.714844 452.214844 129 452.214844 C 117.285156 452.214844 107.785156 442.714844 107.785156 431 C 107.785156 419.285156 117.285156 409.785156 129 409.785156 C 140.714844 409.785156 150.214844 419.285156 150.214844 431 "/>
<path style="fill-rule:nonzero;fill:rgb(53%,27%,7%);fill-opacity:1;stroke-width:1;stroke-linecap:butt;stroke-linejoin:miter;stroke:rgb(0%,0%,0%);stroke-opacity:1;stroke-miterlimit:10;" d="M 727.785156 363.785156 L 727.785156 406.214844 L 770.214844 406.214844 L 770.214844 363.785156 L 727.785156 363.785156 "/>
<path style="fill-rule:nonzero;fill:rgb(53%,27%,7%);fill-opacity:1;stroke-width:1;stroke-linecap:butt;stroke-linejoin:miter;stroke:rgb(0%,0%,0%);stroke-opacity:1;stroke-miterlimit:10;" d="M 823.785156 175.785156 L 823.785156 218.214844 L 866.214844 218.214844 L 866.214844 175.785156 L 823.785156 175.785156 "/>
<path style="fill-rule:nonzero;fill:rgb(53%,27%,7%);fill-opacity:1;stroke-width:1;stroke-linecap:butt;stroke-linejoin:miter;stroke:rgb(0%,0%,0%);stroke-opacity:1;stroke-miterlimit:10;" d="M 921.785156 265.785156 L 921.785156 308.214844 L 964.214844 308.214844 L 964.214844 265.785156 L 921.785156 265.785156 "/>
</g>
</svg>
