<?xml version="1.0" encoding="UTF-8"?>
<svg xmlns="http://www.w3.org/2000/svg" xmlns:xlink="http://www.w3.org/1999/xlink" width="1179pt" height="517pt" viewBox="0 0 1179 517" version="1.1">
<g id="surface1156">
<rect x="0" y="0" width="1179" height="517" style="fill:rgb(90%,90%,90%);fill-opacity:1;stroke:none;"/>
<path style="fill-rule:nonzero;fill:rgb(100%,51%,0%);fill-opacity:1;stroke-width:1;stroke-linecap:butt;stroke-linejoin:miter;stroke:rgb(0%,0%,0%);stroke-opacity:1;stroke-miterlimit:10;" d="M 899 345 L 873.019531 390 L 924.980469 390 L 899 345 "/>
<path style="fill-rule:nonzero;fill:rgb(100%,51%,0%);fill-opacity:1;stroke-width:1;stroke-linecap:butt;stroke-linejoin:miter;stroke:rgb(0%,0%,0%);stroke-opacity:1;stroke-miterlimit:10;" d="M 751 200 L 725.019531 245 L 776.980469 245 L 751 200 "/>
<path style="fill-rule:nonzero;fill:rgb(100%,51%,0%);fill-opacity:1;stroke-width:1;stroke-linecap:butt;stroke-linejoin:miter;stroke:rgb(0%,0%,0%);stroke-opacity:1;stroke-miterlimit:10;" d="M 587 130 L 561.019531 175 L 612.980469 175 L 587 130 "/>
<path style="fill-rule:nonzero;fill:rgb(53%,27%,7%);fill-opacity:1;stroke-width:1;stroke-linecap:butt;stroke-linejoin:miter;stroke:rgb(0%,0%,0%);stroke-opacity:1;stroke-miterlimit:10;" d="M 947 163.601562 C 947 149.199219 923 149.199219 923 163.601562 C 923 178 947 180.398438 947 192.398438 C 947 180.398438 971 178 971 163.601562 C 971 149.199219 947 149.199219 947 163.601562 "/>
<path style="fill-rule:nonzero;fill:rgb(53%,27%,7%);fill-opacity:1;stroke-width:1;stroke-linecap:butt;stroke-linejoin:miter;stroke:rgb(0%,0%,0%);stroke-opacity:1;stroke-miterlimit:10;" d="M 366 282.601562 C 366 268.199219 342 268.199219 342 282.601562 C 342 297 366 299.398438 366 311.398438 C 366 299.398438 390 297 390 282.601562 C 390 268.199219 366 268.199219 366 282.601562 "/>
<path style="fill-rule:nonzero;fill:rgb(53%,27%,7%);fill-opacity:1;stroke-width:1;stroke-linecap:butt;stroke-linejoin:miter;stroke:rgb(0%,0%,0%);stroke-opacity:1;stroke-miterlimit:10;" d="M 767 74.601562 C 767 60.199219 743 60.199219 743 74.601562 C 743 89 767 91.398438 767 103.398438 C 767 91.398438 791 89 791 74.601562 C 791 60.199219 767 60.199219 767 74.601562 "/>
<path style="fill-rule:nonzero;fill:rgb(53%,27%,7%);fill-opacity:1;stroke-width:1;stroke-linecap:butt;stroke-linejoin:miter;stroke:rgb(0%,0%,0%);stroke-opacity:1;stroke-miterlimit:10;" d="M 180 293.601562 C 180 279.199219 156 279.199219 156 293.601562 C 156 308 180 310.398438 180 322.398438 C 180 310.398438 204 308 204 293.601562 C 204 279.199219 180 279.199219 180 293.601562 "/>
<path style="fill-rule:nonzero;fill:rgb(53%,27%,7%);fill-opacity:1;stroke-width:1;stroke-linecap:butt;stroke-linejoin:miter;stroke:rgb(0%,0%,0%);stroke-opacity:1;stroke-miterlimit:10;" d="M 741 341.601562 C 741 327.199219 717 327.199219 717 341.601562 C 717 356 741 358.398438 741 370.398438 C 741 358.398438 765 356 765 341.601562 C 765 327.199219 741 327.199219 741 341.601562 "/>
</g>
</svg>
