<?xml version="1.0" encoding="UTF-8"?>
<svg xmlns="http://www.w3.org/2000/svg" xmlns:xlink="http://www.w3.org/1999/xlink" width="1179pt" height="517pt" viewBox="0 0 1179 517" version="1.1">
<g id="surface136">
<rect x="0" y="0" width="1179" height="517" style="fill:rgb(90%,90%,90%);fill-opacity:1;stroke:none;"/>
<path style="fill-rule:nonzero;fill:rgb(100%,51%,0%);fill-opacity:1;stroke-width:1;stroke-linecap:butt;stroke-linejoin:miter;stroke:rgb(0%,0%,0%);stroke-opacity:1;stroke-miterlimit:10;" d="M 230.214844 333 C 230.214844 344.714844 220.714844 354.214844 209 354.214844 C 197.285156 354.214844 187.785156 344.714844 187.785156 333 C 187.785156 321.285156 197.285156 311.785156 209 311.785156 C 220.714844 311.785156 230.214844 321.285156 230.214844 333 "/>
<path style="fill-rule:nonzero;fill:rgb(100%,51%,0%);fill-opacity:1;stroke-width:1;stroke-linecap:butt;stroke-linejoin:miter;stroke:rgb(0%,0%,0%);stroke-opacity:1;stroke-miterlimit:10;" d="M 451.214844 291 C 451.214844 302.714844 441.714844 312.214844 430 312.214844 C 418.285156 312.214844 408.785156 302.714844 408.785156 291 C 408.785156 279.285156 418.285156 269.785156 430 269.785156 C 441.714844 269.785156 451.214844 279.285156 451.214844 291 "/>
<path style="fill-rule:nonzero;fill:rgb(100%,51%,0%);fill-opacity:1;stroke-width:1;stroke-linecap:butt;stroke-linejoin:miter;stroke:rgb(0%,0%,0%);stroke-opacity:1;stroke-miterlimit:10;" d="M 183 119 L 157.019531 164 L 208.980469 164 L 183 119 "/>
<path style="fill-rule:nonzero;fill:rgb(55%,51%,53%);fill-opacity:1;stroke-width:1;stroke-linecap:butt;stroke-linejoin:miter;stroke:rgb(0%,0%,0%);stroke-opacity:1;stroke-miterlimit:10;" d="M 986 172 L 960.019531 217 L 1011.980469 217 L 986 172 "/>
<path style="fill-rule:nonzero;fill:rgb(55%,51%,53%);fill-opacity:1;stroke-width:1;stroke-linecap:butt;stroke-linejoin:miter;stroke:rgb(0%,0%,0%);stroke-opacity:1;stroke-miterlimit:10;" d="M 706 394 L 680.019531 439 L 731.980469 439 L 706 394 "/>
<path style="fill-rule:nonzero;fill:rgb(55%,51%,53%);fill-opacity:1;stroke-width:1;stroke-linecap:butt;stroke-linejoin:miter;stroke:rgb(0%,0%,0%);stroke-opacity:1;stroke-miterlimit:10;" d="M 772.214844 133 C 772.214844 144.714844 762.714844 154.214844 751 154.214844 C 739.285156 154.214844 729.785156 144.714844 729.785156 133 C 729.785156 121.285156 739.285156 111.785156 751 111.785156 C 762.714844 111.785156 772.214844 121.285156 772.214844 133 "/>
</g>
</svg>
