<?xml version="1.0" encoding="UTF-8"?>
<svg xmlns="http://www.w3.org/2000/svg" xmlns:xlink="http://www.w3.org/1999/xlink" width="1179pt" height="517pt" viewBox="0 0 1179 517" version="1.1">
<g id="surface1456">
<rect x="0" y="0" width="1179" height="517" style="fill:rgb(90%,90%,90%);fill-opacity:1;stroke:none;"/>
<path style="fill-rule:nonzero;fill:rgb(100%,51%,0%);fill-opacity:1;stroke-width:1;stroke-linecap:butt;stroke-linejoin:miter;stroke:rgb(0%,0%,0%);stroke-opacity:1;stroke-miterlimit:10;" d="M 325 372 L 354.664062 372 L 366.664062 343.785156 L 378.664062 372 L 408.332031 372 L 384.332031 389.4375 L 392.417969 420.980469 L 366.664062 403.542969 L 340.914062 420.980469 L 353.214844 389.4375 L 325 372 "/>
<path style="fill-rule:nonzero;fill:rgb(100%,51%,0%);fill-opacity:1;stroke-width:1;stroke-linecap:butt;stroke-linejoin:miter;stroke:rgb(0%,0%,0%);stroke-opacity:1;stroke-miterlimit:10;" d="M 955 350 L 984.664062 350 L 996.664062 321.785156 L 1008.664062 350 L 1038.332031 350 L 1014.332031 367.4375 L 1022.417969 398.980469 L 996.664062 381.542969 L 970.914062 398.980469 L 983.214844 367.4375 L 955 350 "/>
<path style="fill-rule:nonzero;fill:rgb(100%,51%,0%);fill-opacity:1;stroke-width:1;stroke-linecap:butt;stroke-linejoin:miter;stroke:rgb(0%,0%,0%);stroke-opacity:1;stroke-miterlimit:10;" d="M 434 233 L 463.664062 233 L 475.664062 204.785156 L 487.664062 233 L 517.332031 233 L 493.332031 250.4375 L 501.417969 281.980469 L 475.664062 264.542969 L 449.914062 281.980469 L 462.214844 250.4375 L 434 233 "/>
<path style="fill-rule:nonzero;fill:rgb(100%,51%,0%);fill-opacity:1;stroke-width:1;stroke-linecap:butt;stroke-linejoin:miter;stroke:rgb(0%,0%,0%);stroke-opacity:1;stroke-miterlimit:10;" d="M 574 250 L 603.664062 250 L 615.664062 221.785156 L 627.664062 250 L 657.332031 250 L 633.332031 267.4375 L 641.417969 298.980469 L 615.664062 281.542969 L 589.914062 298.980469 L 602.214844 267.4375 L 574 250 "/>
<path style="fill-rule:nonzero;fill:rgb(53%,27%,7%);fill-opacity:1;stroke-width:1;stroke-linecap:butt;stroke-linejoin:miter;stroke:rgb(0%,0%,0%);stroke-opacity:1;stroke-miterlimit:10;" d="M 899.214844 136 C 899.214844 147.714844 889.714844 157.214844 878 157.214844 C 866.285156 157.214844 856.785156 147.714844 856.785156 136 C 856.785156 124.285156 866.285156 114.785156 878 114.785156 C 889.714844 114.785156 899.214844 124.285156 899.214844 136 "/>
<path style="fill-rule:nonzero;fill:rgb(53%,27%,7%);fill-opacity:1;stroke-width:1;stroke-linecap:butt;stroke-linejoin:miter;stroke:rgb(0%,0%,0%);stroke-opacity:1;stroke-miterlimit:10;" d="M 220.214844 402 C 220.214844 413.714844 210.714844 423.214844 199 423.214844 C 187.285156 423.214844 177.785156 413.714844 177.785156 402 C 177.785156 390.285156 187.285156 380.785156 199 380.785156 C 210.714844 380.785156 220.214844 390.285156 220.214844 402 "/>
<path style="fill-rule:nonzero;fill:rgb(53%,27%,7%);fill-opacity:1;stroke-width:1;stroke-linecap:butt;stroke-linejoin:miter;stroke:rgb(0%,0%,0%);stroke-opacity:1;stroke-miterlimit:10;" d="M 108.214844 169 C 108.214844 180.714844 98.714844 190.214844 87 190.214844 C 75.285156 190.214844 65.785156 180.714844 65.785156 169 C 65.785156 157.285156 75.285156 147.785156 87 147.785156 C 98.714844 147.785156 108.214844 157.285156 108.214844 169 "/>
<path style="fill-rule:nonzero;fill:rgb(53%,27%,7%);fill-opacity:1;stroke-width:1;stroke-linecap:butt;stroke-linejoin:miter;stroke:rgb(0%,0%,0%);stroke-opacity:1;stroke-miterlimit:10;" d="M 1022.214844 81 C 1022.214844 92.714844 1012.714844 102.214844 1001 102.214844 C 989.285156 102.214844 979.785156 92.714844 979.785156 81 C 979.785156 69.285156 989.285156 59.785156 1001 59.785156 C 1012.714844 59.785156 1022.214844 69.285156 1022.214844 81 "/>
<path style="fill-rule:nonzero;fill:rgb(53%,27%,7%);fill-opacity:1;stroke-width:1;stroke-linecap:butt;stroke-linejoin:miter;stroke:rgb(0%,0%,0%);stroke-opacity:1;stroke-miterlimit:10;" d="M 720.214844 224 C 720.214844 235.714844 710.714844 245.214844 699 245.214844 C 687.285156 245.214844 677.785156 235.714844 677.785156 224 C 677.785156 212.285156 687.285156 202.785156 699 202.785156 C 710.714844 202.785156 720.214844 212.285156 720.214844 224 "/>
</g>
</svg>
