<?xml version="1.0" encoding="UTF-8"?>
<svg xmlns="http://www.w3.org/2000/svg" xmlns:xlink="http://www.w3.org/1999/xlink" width="1179pt" height="517pt" viewBox="0 0 1179 517" version="1.1">
<g id="surface1426">
<rect x="0" y="0" width="1179" height="517" style="fill:rgb(90%,90%,90%);fill-opacity:1;stroke:none;"/>
<path style="fill-rule:nonzero;fill:rgb(100%,51%,0%);fill-opacity:1;stroke-width:1;stroke-linecap:butt;stroke-linejoin:miter;stroke:rgb(0%,0%,0%);stroke-opacity:1;stroke-miterlimit:10;" d="M 839 66 L 813.019531 111 L 864.980469 111 L 839 66 "/>
<path style="fill-rule:nonzero;fill:rgb(100%,51%,0%);fill-opacity:1;stroke-width:1;stroke-linecap:butt;stroke-linejoin:miter;stroke:rgb(0%,0%,0%);stroke-opacity:1;stroke-miterlimit:10;" d="M 681 295 L 655.019531 340 L 706.980469 340 L 681 295 "/>
<path style="fill-rule:nonzero;fill:rgb(100%,51%,0%);fill-opacity:1;stroke-width:1;stroke-linecap:butt;stroke-linejoin:miter;stroke:rgb(0%,0%,0%);stroke-opacity:1;stroke-miterlimit:10;" d="M 889 341 L 863.019531 386 L 914.980469 386 L 889 341 "/>
<path style="fill-rule:nonzero;fill:rgb(53%,27%,7%);fill-opacity:1;stroke-width:1;stroke-linecap:butt;stroke-linejoin:miter;stroke:rgb(0%,0%,0%);stroke-opacity:1;stroke-miterlimit:10;" d="M 316 103.601562 C 316 89.199219 292 89.199219 292 103.601562 C 292 118 316 120.398438 316 132.398438 C 316 120.398438 340 118 340 103.601562 C 340 89.199219 316 89.199219 316 103.601562 "/>
<path style="fill-rule:nonzero;fill:rgb(53%,27%,7%);fill-opacity:1;stroke-width:1;stroke-linecap:butt;stroke-linejoin:miter;stroke:rgb(0%,0%,0%);stroke-opacity:1;stroke-miterlimit:10;" d="M 1042 98.601562 C 1042 84.199219 1018 84.199219 1018 98.601562 C 1018 113 1042 115.398438 1042 127.398438 C 1042 115.398438 1066 113 1066 98.601562 C 1066 84.199219 1042 84.199219 1042 98.601562 "/>
<path style="fill-rule:nonzero;fill:rgb(53%,27%,7%);fill-opacity:1;stroke-width:1;stroke-linecap:butt;stroke-linejoin:miter;stroke:rgb(0%,0%,0%);stroke-opacity:1;stroke-miterlimit:10;" d="M 454 137.601562 C 454 123.199219 430 123.199219 430 137.601562 C 430 152 454 154.398438 454 166.398438 C 454 154.398438 478 152 478 137.601562 C 478 123.199219 454 123.199219 454 137.601562 "/>
<path style="fill-rule:nonzero;fill:rgb(53%,27%,7%);fill-opacity:1;stroke-width:1;stroke-linecap:butt;stroke-linejoin:miter;stroke:rgb(0%,0%,0%);stroke-opacity:1;stroke-miterlimit:10;" d="M 543 395.601562 C 543 381.199219 519 381.199219 519 395.601562 C 519 410 543 412.398438 543 424.398438 C 543 412.398438 567 410 567 395.601562 C 567 381.199219 543 381.199219 543 395.601562 "/>
<path style="fill-rule:nonzero;fill:rgb(53%,27%,7%);fill-opacity:1;stroke-width:1;stroke-linecap:butt;stroke-linejoin:miter;stroke:rgb(0%,0%,0%);stroke-opacity:1;stroke-miterlimit:10;" d="M 297 285.601562 C 297 271.199219 273 271.199219 273 285.601562 C 273 300 297 302.398438 297 314.398438 C 297 302.398438 321 300 321 285.601562 C 321 271.199219 297 271.199219 297 285.601562 "/>
</g>
</svg>
