<?xml version="1.0" encoding="UTF-8"?>
<svg xmlns="http://www.w3.org/2000/svg" xmlns:xlink="http://www.w3.org/1999/xlink" width="1179pt" height="517pt" viewBox="0 0 1179 517" version="1.1">
<g id="surface226">
<rect x="0" y="0" width="1179" height="517" style="fill:rgb(90%,90%,90%);fill-opacity:1;stroke:none;"/>
<path style="fill-rule:nonzero;fill:rgb(35%,70%,90%);fill-opacity:1;stroke-width:1;stroke-linecap:butt;stroke-linejoin:miter;stroke:rgb(0%,0%,0%);stroke-opacity:1;stroke-miterlimit:10;" d="M 215.214844 181 C 215.214844 192.714844 205.714844 202.214844 194 202.214844 C 182.285156 202.214844 172.785156 192.714844 172.785156 181 C 172.785156 169.285156 182.285156 159.785156 194 159.785156 C 205.714844 159.785156 215.214844 169.285156 215.214844 181 "/>
<path style="fill-rule:nonzero;fill:rgb(35%,70%,90%);fill-opacity:1;stroke-width:1;stroke-linecap:butt;stroke-linejoin:miter;stroke:rgb(0%,0%,0%);stroke-opacity:1;stroke-miterlimit:10;" d="M 209.214844 402 C 209.214844 413.714844 199.714844 423.214844 188 423.214844 C 176.285156 423.214844 166.785156 413.714844 166.785156 402 C 166.785156 390.285156 176.285156 380.785156 188 380.785156 C 199.714844 380.785156 209.214844 390.285156 209.214844 402 "/>
<path style="fill-rule:nonzero;fill:rgb(53%,27%,7%);fill-opacity:1;stroke-width:1;stroke-linecap:butt;stroke-linejoin:miter;stroke:rgb(0%,0%,0%);stroke-opacity:1;stroke-miterlimit:10;" d="M 342.214844 381 C 342.214844 392.714844 332.714844 402.214844 321 402.214844 C 309.285156 402.214844 299.785156 392.714844 299.785156 381 C 299.785156 369.285156 309.285156 359.785156 321 359.785156 C 332.714844 359.785156 342.214844 369.285156 342.214844 381 "/>
<path style="fill-rule:nonzero;fill:rgb(53%,27%,7%);fill-opacity:1;stroke-width:1;stroke-linecap:butt;stroke-linejoin:miter;stroke:rgb(0%,0%,0%);stroke-opacity:1;stroke-miterlimit:10;" d="M 994 146 L 968.019531 191 L 1019.980469 191 L 994 146 "/>
<path style="fill-rule:nonzero;fill:rgb(53%,27%,7%);fill-opacity:1;stroke-width:1;stroke-linecap:butt;stroke-linejoin:miter;stroke:rgb(0%,0%,0%);stroke-opacity:1;stroke-miterlimit:10;" d="M 997 368 L 971.019531 413 L 1022.980469 413 L 997 368 "/>
<path style="fill-rule:nonzero;fill:rgb(35%,70%,90%);fill-opacity:1;stroke-width:1;stroke-linecap:butt;stroke-linejoin:miter;stroke:rgb(0%,0%,0%);stroke-opacity:1;stroke-miterlimit:10;" d="M 844 250 L 818.019531 295 L 869.980469 295 L 844 250 "/>
</g>
</svg>
