<?xml version="1.0" encoding="UTF-8"?>
<svg xmlns="http://www.w3.org/2000/svg" xmlns:xlink="http://www.w3.org/1999/xlink" width="1179pt" height="517pt" viewBox="0 0 1179 517" version="1.1">
<g id="surface191">
<rect x="0" y="0" width="1179" height="517" style="fill:rgb(90%,90%,90%);fill-opacity:1;stroke:none;"/>
<path style="fill-rule:nonzero;fill:rgb(35%,70%,90%);fill-opacity:1;stroke-width:1;stroke-linecap:butt;stroke-linejoin:miter;stroke:rgb(0%,0%,0%);stroke-opacity:1;stroke-miterlimit:10;" d="M 179 130 L 208.664062 130 L 220.664062 101.785156 L 232.664062 130 L 262.332031 130 L 238.332031 147.4375 L 246.417969 178.980469 L 220.664062 161.542969 L 194.914062 178.980469 L 207.214844 147.4375 L 179 130 "/>
<path style="fill-rule:nonzero;fill:rgb(35%,70%,90%);fill-opacity:1;stroke-width:1;stroke-linecap:butt;stroke-linejoin:miter;stroke:rgb(0%,0%,0%);stroke-opacity:1;stroke-miterlimit:10;" d="M 233 312 L 262.664062 312 L 274.664062 283.785156 L 286.664062 312 L 316.332031 312 L 292.332031 329.4375 L 300.417969 360.980469 L 274.664062 343.542969 L 248.914062 360.980469 L 261.214844 329.4375 L 233 312 "/>
<path style="fill-rule:nonzero;fill:rgb(35%,70%,90%);fill-opacity:1;stroke-width:1;stroke-linecap:butt;stroke-linejoin:miter;stroke:rgb(0%,0%,0%);stroke-opacity:1;stroke-miterlimit:10;" d="M 294 125 L 323.664062 125 L 335.664062 96.785156 L 347.664062 125 L 377.332031 125 L 353.332031 142.4375 L 361.417969 173.980469 L 335.664062 156.542969 L 309.914062 173.980469 L 322.214844 142.4375 L 294 125 "/>
<path style="fill-rule:nonzero;fill:rgb(100%,51%,0%);fill-opacity:1;stroke-width:1;stroke-linecap:butt;stroke-linejoin:miter;stroke:rgb(0%,0%,0%);stroke-opacity:1;stroke-miterlimit:10;" d="M 379 218 L 408.664062 218 L 420.664062 189.785156 L 432.664062 218 L 462.332031 218 L 438.332031 235.4375 L 446.417969 266.980469 L 420.664062 249.542969 L 394.914062 266.980469 L 407.214844 235.4375 L 379 218 "/>
<path style="fill-rule:nonzero;fill:rgb(100%,51%,0%);fill-opacity:1;stroke-width:1;stroke-linecap:butt;stroke-linejoin:miter;stroke:rgb(0%,0%,0%);stroke-opacity:1;stroke-miterlimit:10;" d="M 788.785156 166.785156 L 788.785156 209.214844 L 831.214844 209.214844 L 831.214844 166.785156 L 788.785156 166.785156 "/>
<path style="fill-rule:nonzero;fill:rgb(100%,51%,0%);fill-opacity:1;stroke-width:1;stroke-linecap:butt;stroke-linejoin:miter;stroke:rgb(0%,0%,0%);stroke-opacity:1;stroke-miterlimit:10;" d="M 867.785156 334.785156 L 867.785156 377.214844 L 910.214844 377.214844 L 910.214844 334.785156 L 867.785156 334.785156 "/>
<path style="fill-rule:nonzero;fill:rgb(100%,51%,0%);fill-opacity:1;stroke-width:1;stroke-linecap:butt;stroke-linejoin:miter;stroke:rgb(0%,0%,0%);stroke-opacity:1;stroke-miterlimit:10;" d="M 682.785156 192.785156 L 682.785156 235.214844 L 725.214844 235.214844 L 725.214844 192.785156 L 682.785156 192.785156 "/>
<path style="fill-rule:nonzero;fill:rgb(35%,70%,90%);fill-opacity:1;stroke-width:1;stroke-linecap:butt;stroke-linejoin:miter;stroke:rgb(0%,0%,0%);stroke-opacity:1;stroke-miterlimit:10;" d="M 872.785156 225.785156 L 872.785156 268.214844 L 915.214844 268.214844 L 915.214844 225.785156 L 872.785156 225.785156 "/>
<path style="fill-rule:nonzero;fill:rgb(100%,51%,0%);fill-opacity:1;stroke-width:1;stroke-linecap:butt;stroke-linejoin:miter;stroke:rgb(0%,0%,0%);stroke-opacity:1;stroke-miterlimit:10;" d="M 790.785156 383.785156 L 790.785156 426.214844 L 833.214844 426.214844 L 833.214844 383.785156 L 790.785156 383.785156 "/>
</g>
</svg>
