<?xml version="1.0" encoding="UTF-8"?>
<svg xmlns="http://www.w3.org/2000/svg" xmlns:xlink="http://www.w3.org/1999/xlink" width="1179pt" height="517pt" viewBox="0 0 1179 517" version="1.1">
<g id="surface901">
<rect x="0" y="0" width="1179" height="517" style="fill:rgb(90%,90%,90%);fill-opacity:1;stroke:none;"/>
<path style="fill-rule:nonzero;fill:rgb(53%,27%,7%);fill-opacity:1;stroke-width:1;stroke-linecap:butt;stroke-linejoin:miter;stroke:rgb(0%,0%,0%);stroke-opacity:1;stroke-miterlimit:10;" d="M 429 251.601562 C 429 237.199219 405 237.199219 405 251.601562 C 405 266 429 268.398438 429 280.398438 C 429 268.398438 453 266 453 251.601562 C 453 237.199219 429 237.199219 429 251.601562 "/>
<path style="fill-rule:nonzero;fill:rgb(53%,27%,7%);fill-opacity:1;stroke-width:1;stroke-linecap:butt;stroke-linejoin:miter;stroke:rgb(0%,0%,0%);stroke-opacity:1;stroke-miterlimit:10;" d="M 993 275.601562 C 993 261.199219 969 261.199219 969 275.601562 C 969 290 993 292.398438 993 304.398438 C 993 292.398438 1017 290 1017 275.601562 C 1017 261.199219 993 261.199219 993 275.601562 "/>
<path style="fill-rule:nonzero;fill:rgb(53%,27%,7%);fill-opacity:1;stroke-width:1;stroke-linecap:butt;stroke-linejoin:miter;stroke:rgb(0%,0%,0%);stroke-opacity:1;stroke-miterlimit:10;" d="M 993 111.601562 C 993 97.199219 969 97.199219 969 111.601562 C 969 126 993 128.398438 993 140.398438 C 993 128.398438 1017 126 1017 111.601562 C 1017 97.199219 993 97.199219 993 111.601562 "/>
<path style="fill-rule:nonzero;fill:rgb(53%,27%,7%);fill-opacity:1;stroke-width:1;stroke-linecap:butt;stroke-linejoin:miter;stroke:rgb(0%,0%,0%);stroke-opacity:1;stroke-miterlimit:10;" d="M 225 273.601562 C 225 259.199219 201 259.199219 201 273.601562 C 201 288 225 290.398438 225 302.398438 C 225 290.398438 249 288 249 273.601562 C 249 259.199219 225 259.199219 225 273.601562 "/>
<path style="fill-rule:nonzero;fill:rgb(53%,27%,7%);fill-opacity:1;stroke-width:1;stroke-linecap:butt;stroke-linejoin:miter;stroke:rgb(0%,0%,0%);stroke-opacity:1;stroke-miterlimit:10;" d="M 802 108.601562 C 802 94.199219 778 94.199219 778 108.601562 C 778 123 802 125.398438 802 137.398438 C 802 125.398438 826 123 826 108.601562 C 826 94.199219 802 94.199219 802 108.601562 "/>
<path style="fill-rule:nonzero;fill:rgb(100%,51%,0%);fill-opacity:1;stroke-width:1;stroke-linecap:butt;stroke-linejoin:miter;stroke:rgb(0%,0%,0%);stroke-opacity:1;stroke-miterlimit:10;" d="M 486.214844 424 C 486.214844 435.714844 476.714844 445.214844 465 445.214844 C 453.285156 445.214844 443.785156 435.714844 443.785156 424 C 443.785156 412.285156 453.285156 402.785156 465 402.785156 C 476.714844 402.785156 486.214844 412.285156 486.214844 424 "/>
<path style="fill-rule:nonzero;fill:rgb(100%,51%,0%);fill-opacity:1;stroke-width:1;stroke-linecap:butt;stroke-linejoin:miter;stroke:rgb(0%,0%,0%);stroke-opacity:1;stroke-miterlimit:10;" d="M 490.214844 109 C 490.214844 120.714844 480.714844 130.214844 469 130.214844 C 457.285156 130.214844 447.785156 120.714844 447.785156 109 C 447.785156 97.285156 457.285156 87.785156 469 87.785156 C 480.714844 87.785156 490.214844 97.285156 490.214844 109 "/>
<path style="fill-rule:nonzero;fill:rgb(100%,51%,0%);fill-opacity:1;stroke-width:1;stroke-linecap:butt;stroke-linejoin:miter;stroke:rgb(0%,0%,0%);stroke-opacity:1;stroke-miterlimit:10;" d="M 694.214844 209 C 694.214844 220.714844 684.714844 230.214844 673 230.214844 C 661.285156 230.214844 651.785156 220.714844 651.785156 209 C 651.785156 197.285156 661.285156 187.785156 673 187.785156 C 684.714844 187.785156 694.214844 197.285156 694.214844 209 "/>
</g>
</svg>
