<?xml version="1.0" encoding="UTF-8"?>
<svg xmlns="http://www.w3.org/2000/svg" xmlns:xlink="http://www.w3.org/1999/xlink" width="1179pt" height="517pt" viewBox="0 0 1179 517" version="1.1">
<g id="surface1091">
<rect x="0" y="0" width="1179" height="517" style="fill:rgb(90%,90%,90%);fill-opacity:1;stroke:none;"/>
<path style="fill-rule:nonzero;fill:rgb(35%,70%,90%);fill-opacity:1;stroke-width:1;stroke-linecap:butt;stroke-linejoin:miter;stroke:rgb(0%,0%,0%);stroke-opacity:1;stroke-miterlimit:10;" d="M 181.214844 147 C 181.214844 158.714844 171.714844 168.214844 160 168.214844 C 148.285156 168.214844 138.785156 158.714844 138.785156 147 C 138.785156 135.285156 148.285156 125.785156 160 125.785156 C 171.714844 125.785156 181.214844 135.285156 181.214844 147 "/>
<path style="fill-rule:nonzero;fill:rgb(35%,70%,90%);fill-opacity:1;stroke-width:1;stroke-linecap:butt;stroke-linejoin:miter;stroke:rgb(0%,0%,0%);stroke-opacity:1;stroke-miterlimit:10;" d="M 479.214844 148 C 479.214844 159.714844 469.714844 169.214844 458 169.214844 C 446.285156 169.214844 436.785156 159.714844 436.785156 148 C 436.785156 136.285156 446.285156 126.785156 458 126.785156 C 469.714844 126.785156 479.214844 136.285156 479.214844 148 "/>
<path style="fill-rule:nonzero;fill:rgb(35%,70%,90%);fill-opacity:1;stroke-width:1;stroke-linecap:butt;stroke-linejoin:miter;stroke:rgb(0%,0%,0%);stroke-opacity:1;stroke-miterlimit:10;" d="M 779.214844 214 C 779.214844 225.714844 769.714844 235.214844 758 235.214844 C 746.285156 235.214844 736.785156 225.714844 736.785156 214 C 736.785156 202.285156 746.285156 192.785156 758 192.785156 C 769.714844 192.785156 779.214844 202.285156 779.214844 214 "/>
<path style="fill-rule:nonzero;fill:rgb(35%,70%,90%);fill-opacity:1;stroke-width:1;stroke-linecap:butt;stroke-linejoin:miter;stroke:rgb(0%,0%,0%);stroke-opacity:1;stroke-miterlimit:10;" d="M 291.214844 301 C 291.214844 312.714844 281.714844 322.214844 270 322.214844 C 258.285156 322.214844 248.785156 312.714844 248.785156 301 C 248.785156 289.285156 258.285156 279.785156 270 279.785156 C 281.714844 279.785156 291.214844 289.285156 291.214844 301 "/>
<path style="fill-rule:nonzero;fill:rgb(55%,51%,53%);fill-opacity:1;stroke-width:1;stroke-linecap:butt;stroke-linejoin:miter;stroke:rgb(0%,0%,0%);stroke-opacity:1;stroke-miterlimit:10;" d="M 146 351 L 175.664062 351 L 187.664062 322.785156 L 199.664062 351 L 229.332031 351 L 205.332031 368.4375 L 213.417969 399.980469 L 187.664062 382.542969 L 161.914062 399.980469 L 174.214844 368.4375 L 146 351 "/>
<path style="fill-rule:nonzero;fill:rgb(55%,51%,53%);fill-opacity:1;stroke-width:1;stroke-linecap:butt;stroke-linejoin:miter;stroke:rgb(0%,0%,0%);stroke-opacity:1;stroke-miterlimit:10;" d="M 405 315 L 434.664062 315 L 446.664062 286.785156 L 458.664062 315 L 488.332031 315 L 464.332031 332.4375 L 472.417969 363.980469 L 446.664062 346.542969 L 420.914062 363.980469 L 433.214844 332.4375 L 405 315 "/>
<path style="fill-rule:nonzero;fill:rgb(55%,51%,53%);fill-opacity:1;stroke-width:1;stroke-linecap:butt;stroke-linejoin:miter;stroke:rgb(0%,0%,0%);stroke-opacity:1;stroke-miterlimit:10;" d="M 1021 227 L 1050.664062 227 L 1062.664062 198.785156 L 1074.664062 227 L 1104.332031 227 L 1080.332031 244.4375 L 1088.417969 275.980469 L 1062.664062 258.542969 L 1036.914062 275.980469 L 1049.214844 244.4375 L 1021 227 "/>
<path style="fill-rule:nonzero;fill:rgb(55%,51%,53%);fill-opacity:1;stroke-width:1;stroke-linecap:butt;stroke-linejoin:miter;stroke:rgb(0%,0%,0%);stroke-opacity:1;stroke-miterlimit:10;" d="M 947 120 L 976.664062 120 L 988.664062 91.785156 L 1000.664062 120 L 1030.332031 120 L 1006.332031 137.4375 L 1014.417969 168.980469 L 988.664062 151.542969 L 962.914062 168.980469 L 975.214844 137.4375 L 947 120 "/>
</g>
</svg>
