<?xml version="1.0" encoding="UTF-8"?>
<svg xmlns="http://www.w3.org/2000/svg" xmlns:xlink="http://www.w3.org/1999/xlink" width="1179pt" height="517pt" viewBox="0 0 1179 517" version="1.1">
<g id="surface891">
<rect x="0" y="0" width="1179" height="517" style="fill:rgb(90%,90%,90%);fill-opacity:1;stroke:none;"/>
<path style="fill-rule:nonzero;fill:rgb(100%,0%,0%);fill-opacity:1;stroke-width:1;stroke-linecap:butt;stroke-linejoin:miter;stroke:rgb(0%,0%,0%);stroke-opacity:1;stroke-miterlimit:10;" d="M 260 361.601562 C 260 347.199219 236 347.199219 236 361.601562 C 236 376 260 378.398438 260 390.398438 C 260 378.398438 284 376 284 361.601562 C 284 347.199219 260 347.199219 260 361.601562 "/>
<path style="fill-rule:nonzero;fill:rgb(100%,0%,0%);fill-opacity:1;stroke-width:1;stroke-linecap:butt;stroke-linejoin:miter;stroke:rgb(0%,0%,0%);stroke-opacity:1;stroke-miterlimit:10;" d="M 907 356.601562 C 907 342.199219 883 342.199219 883 356.601562 C 883 371 907 373.398438 907 385.398438 C 907 373.398438 931 371 931 356.601562 C 931 342.199219 907 342.199219 907 356.601562 "/>
<path style="fill-rule:nonzero;fill:rgb(100%,0%,0%);fill-opacity:1;stroke-width:1;stroke-linecap:butt;stroke-linejoin:miter;stroke:rgb(0%,0%,0%);stroke-opacity:1;stroke-miterlimit:10;" d="M 476 282.601562 C 476 268.199219 452 268.199219 452 282.601562 C 452 297 476 299.398438 476 311.398438 C 476 299.398438 500 297 500 282.601562 C 500 268.199219 476 268.199219 476 282.601562 "/>
<path style="fill-rule:nonzero;fill:rgb(100%,0%,0%);fill-opacity:1;stroke-width:1;stroke-linecap:butt;stroke-linejoin:miter;stroke:rgb(0%,0%,0%);stroke-opacity:1;stroke-miterlimit:10;" d="M 749 317.601562 C 749 303.199219 725 303.199219 725 317.601562 C 725 332 749 334.398438 749 346.398438 C 749 334.398438 773 332 773 317.601562 C 773 303.199219 749 303.199219 749 317.601562 "/>
<path style="fill-rule:nonzero;fill:rgb(0%,0%,0%);fill-opacity:1;stroke-width:1;stroke-linecap:butt;stroke-linejoin:miter;stroke:rgb(0%,0%,0%);stroke-opacity:1;stroke-miterlimit:10;" d="M 109 110 L 89 110 L 89 120 L 109 120 L 109 140 L 119 140 L 119 120 L 139 120 L 139 110 L 119 110 L 119 90 L 109 90 L 109 110 "/>
<path style="fill-rule:nonzero;fill:rgb(0%,0%,0%);fill-opacity:1;stroke-width:1;stroke-linecap:butt;stroke-linejoin:miter;stroke:rgb(0%,0%,0%);stroke-opacity:1;stroke-miterlimit:10;" d="M 823 180 L 803 180 L 803 190 L 823 190 L 823 210 L 833 210 L 833 190 L 853 190 L 853 180 L 833 180 L 833 160 L 823 160 L 823 180 "/>
<path style="fill-rule:nonzero;fill:rgb(0%,0%,0%);fill-opacity:1;stroke-width:1;stroke-linecap:butt;stroke-linejoin:miter;stroke:rgb(0%,0%,0%);stroke-opacity:1;stroke-miterlimit:10;" d="M 988 148 L 968 148 L 968 158 L 988 158 L 988 178 L 998 178 L 998 158 L 1018 158 L 1018 148 L 998 148 L 998 128 L 988 128 L 988 148 "/>
<path style="fill-rule:nonzero;fill:rgb(0%,0%,0%);fill-opacity:1;stroke-width:1;stroke-linecap:butt;stroke-linejoin:miter;stroke:rgb(0%,0%,0%);stroke-opacity:1;stroke-miterlimit:10;" d="M 479 420 L 459 420 L 459 430 L 479 430 L 479 450 L 489 450 L 489 430 L 509 430 L 509 420 L 489 420 L 489 400 L 479 400 L 479 420 "/>
</g>
</svg>
