<?xml version="1.0" encoding="UTF-8"?>
<svg xmlns="http://www.w3.org/2000/svg" xmlns:xlink="http://www.w3.org/1999/xlink" width="1179pt" height="517pt" viewBox="0 0 1179 517" version="1.1">
<g id="surface1106">
<rect x="0" y="0" width="1179" height="517" style="fill:rgb(90%,90%,90%);fill-opacity:1;stroke:none;"/>
<path style="fill-rule:nonzero;fill:rgb(55%,51%,53%);fill-opacity:1;stroke-width:1;stroke-linecap:butt;stroke-linejoin:miter;stroke:rgb(0%,0%,0%);stroke-opacity:1;stroke-miterlimit:10;" d="M 619 390.601562 C 619 376.199219 595 376.199219 595 390.601562 C 595 405 619 407.398438 619 419.398438 C 619 407.398438 643 405 643 390.601562 C 643 376.199219 619 376.199219 619 390.601562 "/>
<path style="fill-rule:nonzero;fill:rgb(55%,51%,53%);fill-opacity:1;stroke-width:1;stroke-linecap:butt;stroke-linejoin:miter;stroke:rgb(0%,0%,0%);stroke-opacity:1;stroke-miterlimit:10;" d="M 266 118.601562 C 266 104.199219 242 104.199219 242 118.601562 C 242 133 266 135.398438 266 147.398438 C 266 135.398438 290 133 290 118.601562 C 290 104.199219 266 104.199219 266 118.601562 "/>
<path style="fill-rule:nonzero;fill:rgb(55%,51%,53%);fill-opacity:1;stroke-width:1;stroke-linecap:butt;stroke-linejoin:miter;stroke:rgb(0%,0%,0%);stroke-opacity:1;stroke-miterlimit:10;" d="M 970 66.601562 C 970 52.199219 946 52.199219 946 66.601562 C 946 81 970 83.398438 970 95.398438 C 970 83.398438 994 81 994 66.601562 C 994 52.199219 970 52.199219 970 66.601562 "/>
<path style="fill-rule:nonzero;fill:rgb(55%,51%,53%);fill-opacity:1;stroke-width:1;stroke-linecap:butt;stroke-linejoin:miter;stroke:rgb(0%,0%,0%);stroke-opacity:1;stroke-miterlimit:10;" d="M 98 153.601562 C 98 139.199219 74 139.199219 74 153.601562 C 74 168 98 170.398438 98 182.398438 C 98 170.398438 122 168 122 153.601562 C 122 139.199219 98 139.199219 98 153.601562 "/>
<path style="fill-rule:nonzero;fill:rgb(53%,27%,7%);fill-opacity:1;stroke-width:1;stroke-linecap:butt;stroke-linejoin:miter;stroke:rgb(0%,0%,0%);stroke-opacity:1;stroke-miterlimit:10;" d="M 652 120 L 681.664062 120 L 693.664062 91.785156 L 705.664062 120 L 735.332031 120 L 711.332031 137.4375 L 719.417969 168.980469 L 693.664062 151.542969 L 667.914062 168.980469 L 680.214844 137.4375 L 652 120 "/>
<path style="fill-rule:nonzero;fill:rgb(53%,27%,7%);fill-opacity:1;stroke-width:1;stroke-linecap:butt;stroke-linejoin:miter;stroke:rgb(0%,0%,0%);stroke-opacity:1;stroke-miterlimit:10;" d="M 717 295 L 746.664062 295 L 758.664062 266.785156 L 770.664062 295 L 800.332031 295 L 776.332031 312.4375 L 784.417969 343.980469 L 758.664062 326.542969 L 732.914062 343.980469 L 745.214844 312.4375 L 717 295 "/>
<path style="fill-rule:nonzero;fill:rgb(53%,27%,7%);fill-opacity:1;stroke-width:1;stroke-linecap:butt;stroke-linejoin:miter;stroke:rgb(0%,0%,0%);stroke-opacity:1;stroke-miterlimit:10;" d="M 884 171 L 913.664062 171 L 925.664062 142.785156 L 937.664062 171 L 967.332031 171 L 943.332031 188.4375 L 951.417969 219.980469 L 925.664062 202.542969 L 899.914062 219.980469 L 912.214844 188.4375 L 884 171 "/>
<path style="fill-rule:nonzero;fill:rgb(53%,27%,7%);fill-opacity:1;stroke-width:1;stroke-linecap:butt;stroke-linejoin:miter;stroke:rgb(0%,0%,0%);stroke-opacity:1;stroke-miterlimit:10;" d="M 357 403 L 386.664062 403 L 398.664062 374.785156 L 410.664062 403 L 440.332031 403 L 416.332031 420.4375 L 424.417969 451.980469 L 398.664062 434.542969 L 372.914062 451.980469 L 385.214844 420.4375 L 357 403 "/>
</g>
</svg>
