<?xml version="1.0" encoding="UTF-8"?>
<svg xmlns="http://www.w3.org/2000/svg" xmlns:xlink="http://www.w3.org/1999/xlink" width="1179pt" height="517pt" viewBox="0 0 1179 517" version="1.1">
<g id="surface286">
<rect x="0" y="0" width="1179" height="517" style="fill:rgb(90%,90%,90%);fill-opacity:1;stroke:none;"/>
<path style="fill-rule:nonzero;fill:rgb(100%,51%,0%);fill-opacity:1;stroke-width:1;stroke-linecap:butt;stroke-linejoin:miter;stroke:rgb(0%,0%,0%);stroke-opacity:1;stroke-miterlimit:10;" d="M 142.214844 218 C 142.214844 229.714844 132.714844 239.214844 121 239.214844 C 109.285156 239.214844 99.785156 229.714844 99.785156 218 C 99.785156 206.285156 109.285156 196.785156 121 196.785156 C 132.714844 196.785156 142.214844 206.285156 142.214844 218 "/>
<path style="fill-rule:nonzero;fill:rgb(53%,27%,7%);fill-opacity:1;stroke-width:1;stroke-linecap:butt;stroke-linejoin:miter;stroke:rgb(0%,0%,0%);stroke-opacity:1;stroke-miterlimit:10;" d="M 317.214844 352 C 317.214844 363.714844 307.714844 373.214844 296 373.214844 C 284.285156 373.214844 274.785156 363.714844 274.785156 352 C 274.785156 340.285156 284.285156 330.785156 296 330.785156 C 307.714844 330.785156 317.214844 340.285156 317.214844 352 "/>
<path style="fill-rule:nonzero;fill:rgb(53%,27%,7%);fill-opacity:1;stroke-width:1;stroke-linecap:butt;stroke-linejoin:miter;stroke:rgb(0%,0%,0%);stroke-opacity:1;stroke-miterlimit:10;" d="M 179.214844 345 C 179.214844 356.714844 169.714844 366.214844 158 366.214844 C 146.285156 366.214844 136.785156 356.714844 136.785156 345 C 136.785156 333.285156 146.285156 323.785156 158 323.785156 C 169.714844 323.785156 179.214844 333.285156 179.214844 345 "/>
<path style="fill-rule:nonzero;fill:rgb(53%,27%,7%);fill-opacity:1;stroke-width:1;stroke-linecap:butt;stroke-linejoin:miter;stroke:rgb(0%,0%,0%);stroke-opacity:1;stroke-miterlimit:10;" d="M 874 306 L 848.019531 351 L 899.980469 351 L 874 306 "/>
<path style="fill-rule:nonzero;fill:rgb(100%,51%,0%);fill-opacity:1;stroke-width:1;stroke-linecap:butt;stroke-linejoin:miter;stroke:rgb(0%,0%,0%);stroke-opacity:1;stroke-miterlimit:10;" d="M 992 230 L 966.019531 275 L 1017.980469 275 L 992 230 "/>
<path style="fill-rule:nonzero;fill:rgb(100%,51%,0%);fill-opacity:1;stroke-width:1;stroke-linecap:butt;stroke-linejoin:miter;stroke:rgb(0%,0%,0%);stroke-opacity:1;stroke-miterlimit:10;" d="M 949 128 L 923.019531 173 L 974.980469 173 L 949 128 "/>
<path style="fill-rule:nonzero;fill:rgb(53%,27%,7%);fill-opacity:1;stroke-width:1;stroke-linecap:butt;stroke-linejoin:miter;stroke:rgb(0%,0%,0%);stroke-opacity:1;stroke-miterlimit:10;" d="M 740 202 L 714.019531 247 L 765.980469 247 L 740 202 "/>
<path style="fill-rule:nonzero;fill:rgb(53%,27%,7%);fill-opacity:1;stroke-width:1;stroke-linecap:butt;stroke-linejoin:miter;stroke:rgb(0%,0%,0%);stroke-opacity:1;stroke-miterlimit:10;" d="M 838 104 L 812.019531 149 L 863.980469 149 L 838 104 "/>
</g>
</svg>
