<?xml version="1.0" encoding="UTF-8"?>
<svg xmlns="http://www.w3.org/2000/svg" xmlns:xlink="http://www.w3.org/1999/xlink" width="1179pt" height="517pt" viewBox="0 0 1179 517" version="1.1">
<g id="surface496">
<rect x="0" y="0" width="1179" height="517" style="fill:rgb(90%,90%,90%);fill-opacity:1;stroke:none;"/>
<path style="fill-rule:nonzero;fill:rgb(100%,51%,0%);fill-opacity:1;stroke-width:1;stroke-linecap:butt;stroke-linejoin:miter;stroke:rgb(0%,0%,0%);stroke-opacity:1;stroke-miterlimit:10;" d="M 159.214844 264 C 159.214844 275.714844 149.714844 285.214844 138 285.214844 C 126.285156 285.214844 116.785156 275.714844 116.785156 264 C 116.785156 252.285156 126.285156 242.785156 138 242.785156 C 149.714844 242.785156 159.214844 252.285156 159.214844 264 "/>
<path style="fill-rule:nonzero;fill:rgb(100%,51%,0%);fill-opacity:1;stroke-width:1;stroke-linecap:butt;stroke-linejoin:miter;stroke:rgb(0%,0%,0%);stroke-opacity:1;stroke-miterlimit:10;" d="M 406 310 L 380.019531 355 L 431.980469 355 L 406 310 "/>
<path style="fill-rule:nonzero;fill:rgb(100%,51%,0%);fill-opacity:1;stroke-width:1;stroke-linecap:butt;stroke-linejoin:miter;stroke:rgb(0%,0%,0%);stroke-opacity:1;stroke-miterlimit:10;" d="M 223.214844 358 C 223.214844 369.714844 213.714844 379.214844 202 379.214844 C 190.285156 379.214844 180.785156 369.714844 180.785156 358 C 180.785156 346.285156 190.285156 336.785156 202 336.785156 C 213.714844 336.785156 223.214844 346.285156 223.214844 358 "/>
<path style="fill-rule:nonzero;fill:rgb(100%,51%,0%);fill-opacity:1;stroke-width:1;stroke-linecap:butt;stroke-linejoin:miter;stroke:rgb(0%,0%,0%);stroke-opacity:1;stroke-miterlimit:10;" d="M 267.214844 115 C 267.214844 126.714844 257.714844 136.214844 246 136.214844 C 234.285156 136.214844 224.785156 126.714844 224.785156 115 C 224.785156 103.285156 234.285156 93.785156 246 93.785156 C 257.714844 93.785156 267.214844 103.285156 267.214844 115 "/>
<path style="fill-rule:nonzero;fill:rgb(100%,51%,0%);fill-opacity:1;stroke-width:1;stroke-linecap:butt;stroke-linejoin:miter;stroke:rgb(0%,0%,0%);stroke-opacity:1;stroke-miterlimit:10;" d="M 413.214844 174 C 413.214844 185.714844 403.714844 195.214844 392 195.214844 C 380.285156 195.214844 370.785156 185.714844 370.785156 174 C 370.785156 162.285156 380.285156 152.785156 392 152.785156 C 403.714844 152.785156 413.214844 162.285156 413.214844 174 "/>
<path style="fill-rule:nonzero;fill:rgb(55%,51%,53%);fill-opacity:1;stroke-width:1;stroke-linecap:butt;stroke-linejoin:miter;stroke:rgb(0%,0%,0%);stroke-opacity:1;stroke-miterlimit:10;" d="M 736 394 L 710.019531 439 L 761.980469 439 L 736 394 "/>
<path style="fill-rule:nonzero;fill:rgb(55%,51%,53%);fill-opacity:1;stroke-width:1;stroke-linecap:butt;stroke-linejoin:miter;stroke:rgb(0%,0%,0%);stroke-opacity:1;stroke-miterlimit:10;" d="M 735.214844 137 C 735.214844 148.714844 725.714844 158.214844 714 158.214844 C 702.285156 158.214844 692.785156 148.714844 692.785156 137 C 692.785156 125.285156 702.285156 115.785156 714 115.785156 C 725.714844 115.785156 735.214844 125.285156 735.214844 137 "/>
<path style="fill-rule:nonzero;fill:rgb(55%,51%,53%);fill-opacity:1;stroke-width:1;stroke-linecap:butt;stroke-linejoin:miter;stroke:rgb(0%,0%,0%);stroke-opacity:1;stroke-miterlimit:10;" d="M 1040 307 L 1014.019531 352 L 1065.980469 352 L 1040 307 "/>
<path style="fill-rule:nonzero;fill:rgb(55%,51%,53%);fill-opacity:1;stroke-width:1;stroke-linecap:butt;stroke-linejoin:miter;stroke:rgb(0%,0%,0%);stroke-opacity:1;stroke-miterlimit:10;" d="M 879 347 L 853.019531 392 L 904.980469 392 L 879 347 "/>
</g>
</svg>
