<?xml version="1.0" encoding="UTF-8"?>
<svg xmlns="http://www.w3.org/2000/svg" xmlns:xlink="http://www.w3.org/1999/xlink" width="1179pt" height="517pt" viewBox="0 0 1179 517" version="1.1">
<g id="surface1211">
<rect x="0" y="0" width="1179" height="517" style="fill:rgb(90%,90%,90%);fill-opacity:1;stroke:none;"/>
<path style="fill-rule:nonzero;fill:rgb(53%,27%,7%);fill-opacity:1;stroke-width:1;stroke-linecap:butt;stroke-linejoin:miter;stroke:rgb(0%,0%,0%);stroke-opacity:1;stroke-miterlimit:10;" d="M 620 245 L 594.019531 290 L 645.980469 290 L 620 245 "/>
<path style="fill-rule:nonzero;fill:rgb(53%,27%,7%);fill-opacity:1;stroke-width:1;stroke-linecap:butt;stroke-linejoin:miter;stroke:rgb(0%,0%,0%);stroke-opacity:1;stroke-miterlimit:10;" d="M 820 249 L 794.019531 294 L 845.980469 294 L 820 249 "/>
<path style="fill-rule:nonzero;fill:rgb(53%,27%,7%);fill-opacity:1;stroke-width:1;stroke-linecap:butt;stroke-linejoin:miter;stroke:rgb(0%,0%,0%);stroke-opacity:1;stroke-miterlimit:10;" d="M 334 106 L 308.019531 151 L 359.980469 151 L 334 106 "/>
<path style="fill-rule:nonzero;fill:rgb(53%,27%,7%);fill-opacity:1;stroke-width:1;stroke-linecap:butt;stroke-linejoin:miter;stroke:rgb(0%,0%,0%);stroke-opacity:1;stroke-miterlimit:10;" d="M 828 379 L 802.019531 424 L 853.980469 424 L 828 379 "/>
<path style="fill-rule:nonzero;fill:rgb(35%,70%,90%);fill-opacity:1;stroke-width:1;stroke-linecap:butt;stroke-linejoin:miter;stroke:rgb(0%,0%,0%);stroke-opacity:1;stroke-miterlimit:10;" d="M 1023 211 L 1052.664062 211 L 1064.664062 182.785156 L 1076.664062 211 L 1106.332031 211 L 1082.332031 228.4375 L 1090.417969 259.980469 L 1064.664062 242.542969 L 1038.914062 259.980469 L 1051.214844 228.4375 L 1023 211 "/>
<path style="fill-rule:nonzero;fill:rgb(35%,70%,90%);fill-opacity:1;stroke-width:1;stroke-linecap:butt;stroke-linejoin:miter;stroke:rgb(0%,0%,0%);stroke-opacity:1;stroke-miterlimit:10;" d="M 144 347 L 173.664062 347 L 185.664062 318.785156 L 197.664062 347 L 227.332031 347 L 203.332031 364.4375 L 211.417969 395.980469 L 185.664062 378.542969 L 159.914062 395.980469 L 172.214844 364.4375 L 144 347 "/>
<path style="fill-rule:nonzero;fill:rgb(35%,70%,90%);fill-opacity:1;stroke-width:1;stroke-linecap:butt;stroke-linejoin:miter;stroke:rgb(0%,0%,0%);stroke-opacity:1;stroke-miterlimit:10;" d="M 944 358 L 973.664062 358 L 985.664062 329.785156 L 997.664062 358 L 1027.332031 358 L 1003.332031 375.4375 L 1011.417969 406.980469 L 985.664062 389.542969 L 959.914062 406.980469 L 972.214844 375.4375 L 944 358 "/>
<path style="fill-rule:nonzero;fill:rgb(35%,70%,90%);fill-opacity:1;stroke-width:1;stroke-linecap:butt;stroke-linejoin:miter;stroke:rgb(0%,0%,0%);stroke-opacity:1;stroke-miterlimit:10;" d="M 711 182 L 740.664062 182 L 752.664062 153.785156 L 764.664062 182 L 794.332031 182 L 770.332031 199.4375 L 778.417969 230.980469 L 752.664062 213.542969 L 726.914062 230.980469 L 739.214844 199.4375 L 711 182 "/>
<path style="fill-rule:nonzero;fill:rgb(35%,70%,90%);fill-opacity:1;stroke-width:1;stroke-linecap:butt;stroke-linejoin:miter;stroke:rgb(0%,0%,0%);stroke-opacity:1;stroke-miterlimit:10;" d="M 157 164 L 186.664062 164 L 198.664062 135.785156 L 210.664062 164 L 240.332031 164 L 216.332031 181.4375 L 224.417969 212.980469 L 198.664062 195.542969 L 172.914062 212.980469 L 185.214844 181.4375 L 157 164 "/>
</g>
</svg>
