<?xml version="1.0" encoding="UTF-8"?>
<svg xmlns="http://www.w3.org/2000/svg" xmlns:xlink="http://www.w3.org/1999/xlink" width="1179pt" height="517pt" viewBox="0 0 1179 517" version="1.1">
<g id="surface1216">
<rect x="0" y="0" width="1179" height="517" style="fill:rgb(90%,90%,90%);fill-opacity:1;stroke:none;"/>
<path style="fill-rule:nonzero;fill:rgb(35%,70%,90%);fill-opacity:1;stroke-width:1;stroke-linecap:butt;stroke-linejoin:miter;stroke:rgb(0%,0%,0%);stroke-opacity:1;stroke-miterlimit:10;" d="M 900 90.601562 C 900 76.199219 876 76.199219 876 90.601562 C 876 105 900 107.398438 900 119.398438 C 900 107.398438 924 105 924 90.601562 C 924 76.199219 900 76.199219 900 90.601562 "/>
<path style="fill-rule:nonzero;fill:rgb(35%,70%,90%);fill-opacity:1;stroke-width:1;stroke-linecap:butt;stroke-linejoin:miter;stroke:rgb(0%,0%,0%);stroke-opacity:1;stroke-miterlimit:10;" d="M 539 411.601562 C 539 397.199219 515 397.199219 515 411.601562 C 515 426 539 428.398438 539 440.398438 C 539 428.398438 563 426 563 411.601562 C 563 397.199219 539 397.199219 539 411.601562 "/>
<path style="fill-rule:nonzero;fill:rgb(35%,70%,90%);fill-opacity:1;stroke-width:1;stroke-linecap:butt;stroke-linejoin:miter;stroke:rgb(0%,0%,0%);stroke-opacity:1;stroke-miterlimit:10;" d="M 307 145.601562 C 307 131.199219 283 131.199219 283 145.601562 C 283 160 307 162.398438 307 174.398438 C 307 162.398438 331 160 331 145.601562 C 331 131.199219 307 131.199219 307 145.601562 "/>
<path style="fill-rule:nonzero;fill:rgb(35%,70%,90%);fill-opacity:1;stroke-width:1;stroke-linecap:butt;stroke-linejoin:miter;stroke:rgb(0%,0%,0%);stroke-opacity:1;stroke-miterlimit:10;" d="M 720 394.601562 C 720 380.199219 696 380.199219 696 394.601562 C 696 409 720 411.398438 720 423.398438 C 720 411.398438 744 409 744 394.601562 C 744 380.199219 720 380.199219 720 394.601562 "/>
<path style="fill-rule:nonzero;fill:rgb(35%,70%,90%);fill-opacity:1;stroke-width:1;stroke-linecap:butt;stroke-linejoin:miter;stroke:rgb(0%,0%,0%);stroke-opacity:1;stroke-miterlimit:10;" d="M 925 226.601562 C 925 212.199219 901 212.199219 901 226.601562 C 901 241 925 243.398438 925 255.398438 C 925 243.398438 949 241 949 226.601562 C 949 212.199219 925 212.199219 925 226.601562 "/>
<path style="fill-rule:nonzero;fill:rgb(53%,27%,7%);fill-opacity:1;stroke-width:1;stroke-linecap:butt;stroke-linejoin:miter;stroke:rgb(0%,0%,0%);stroke-opacity:1;stroke-miterlimit:10;" d="M 584.214844 167 C 584.214844 178.714844 574.714844 188.214844 563 188.214844 C 551.285156 188.214844 541.785156 178.714844 541.785156 167 C 541.785156 155.285156 551.285156 145.785156 563 145.785156 C 574.714844 145.785156 584.214844 155.285156 584.214844 167 "/>
<path style="fill-rule:nonzero;fill:rgb(53%,27%,7%);fill-opacity:1;stroke-width:1;stroke-linecap:butt;stroke-linejoin:miter;stroke:rgb(0%,0%,0%);stroke-opacity:1;stroke-miterlimit:10;" d="M 290.214844 338 C 290.214844 349.714844 280.714844 359.214844 269 359.214844 C 257.285156 359.214844 247.785156 349.714844 247.785156 338 C 247.785156 326.285156 257.285156 316.785156 269 316.785156 C 280.714844 316.785156 290.214844 326.285156 290.214844 338 "/>
<path style="fill-rule:nonzero;fill:rgb(53%,27%,7%);fill-opacity:1;stroke-width:1;stroke-linecap:butt;stroke-linejoin:miter;stroke:rgb(0%,0%,0%);stroke-opacity:1;stroke-miterlimit:10;" d="M 452.214844 96 C 452.214844 107.714844 442.714844 117.214844 431 117.214844 C 419.285156 117.214844 409.785156 107.714844 409.785156 96 C 409.785156 84.285156 419.285156 74.785156 431 74.785156 C 442.714844 74.785156 452.214844 84.285156 452.214844 96 "/>
</g>
</svg>
