<?xml version="1.0" encoding="UTF-8"?>
<svg xmlns="http://www.w3.org/2000/svg" xmlns:xlink="http://www.w3.org/1999/xlink" width="1179pt" height="517pt" viewBox="0 0 1179 517" version="1.1">
<g id="surface856">
<rect x="0" y="0" width="1179" height="517" style="fill:rgb(90%,90%,90%);fill-opacity:1;stroke:none;"/>
<path style="fill-rule:nonzero;fill:rgb(53%,27%,7%);fill-opacity:1;stroke-width:1;stroke-linecap:butt;stroke-linejoin:miter;stroke:rgb(0%,0%,0%);stroke-opacity:1;stroke-miterlimit:10;" d="M 358 213.601562 C 358 199.199219 334 199.199219 334 213.601562 C 334 228 358 230.398438 358 242.398438 C 358 230.398438 382 228 382 213.601562 C 382 199.199219 358 199.199219 358 213.601562 "/>
<path style="fill-rule:nonzero;fill:rgb(53%,27%,7%);fill-opacity:1;stroke-width:1;stroke-linecap:butt;stroke-linejoin:miter;stroke:rgb(0%,0%,0%);stroke-opacity:1;stroke-miterlimit:10;" d="M 818 76.601562 C 818 62.199219 794 62.199219 794 76.601562 C 794 91 818 93.398438 818 105.398438 C 818 93.398438 842 91 842 76.601562 C 842 62.199219 818 62.199219 818 76.601562 "/>
<path style="fill-rule:nonzero;fill:rgb(53%,27%,7%);fill-opacity:1;stroke-width:1;stroke-linecap:butt;stroke-linejoin:miter;stroke:rgb(0%,0%,0%);stroke-opacity:1;stroke-miterlimit:10;" d="M 972 135.601562 C 972 121.199219 948 121.199219 948 135.601562 C 948 150 972 152.398438 972 164.398438 C 972 152.398438 996 150 996 135.601562 C 996 121.199219 972 121.199219 972 135.601562 "/>
<path style="fill-rule:nonzero;fill:rgb(53%,27%,7%);fill-opacity:1;stroke-width:1;stroke-linecap:butt;stroke-linejoin:miter;stroke:rgb(0%,0%,0%);stroke-opacity:1;stroke-miterlimit:10;" d="M 231 264.601562 C 231 250.199219 207 250.199219 207 264.601562 C 207 279 231 281.398438 231 293.398438 C 231 281.398438 255 279 255 264.601562 C 255 250.199219 231 250.199219 231 264.601562 "/>
<path style="fill-rule:nonzero;fill:rgb(53%,27%,7%);fill-opacity:1;stroke-width:1;stroke-linecap:butt;stroke-linejoin:miter;stroke:rgb(0%,0%,0%);stroke-opacity:1;stroke-miterlimit:10;" d="M 279 95.601562 C 279 81.199219 255 81.199219 255 95.601562 C 255 110 279 112.398438 279 124.398438 C 279 112.398438 303 110 303 95.601562 C 303 81.199219 279 81.199219 279 95.601562 "/>
<path style="fill-rule:nonzero;fill:rgb(100%,51%,0%);fill-opacity:1;stroke-width:1;stroke-linecap:butt;stroke-linejoin:miter;stroke:rgb(0%,0%,0%);stroke-opacity:1;stroke-miterlimit:10;" d="M 846.214844 359 C 846.214844 370.714844 836.714844 380.214844 825 380.214844 C 813.285156 380.214844 803.785156 370.714844 803.785156 359 C 803.785156 347.285156 813.285156 337.785156 825 337.785156 C 836.714844 337.785156 846.214844 347.285156 846.214844 359 "/>
<path style="fill-rule:nonzero;fill:rgb(100%,51%,0%);fill-opacity:1;stroke-width:1;stroke-linecap:butt;stroke-linejoin:miter;stroke:rgb(0%,0%,0%);stroke-opacity:1;stroke-miterlimit:10;" d="M 554.214844 104 C 554.214844 115.714844 544.714844 125.214844 533 125.214844 C 521.285156 125.214844 511.785156 115.714844 511.785156 104 C 511.785156 92.285156 521.285156 82.785156 533 82.785156 C 544.714844 82.785156 554.214844 92.285156 554.214844 104 "/>
<path style="fill-rule:nonzero;fill:rgb(100%,51%,0%);fill-opacity:1;stroke-width:1;stroke-linecap:butt;stroke-linejoin:miter;stroke:rgb(0%,0%,0%);stroke-opacity:1;stroke-miterlimit:10;" d="M 569.214844 325 C 569.214844 336.714844 559.714844 346.214844 548 346.214844 C 536.285156 346.214844 526.785156 336.714844 526.785156 325 C 526.785156 313.285156 536.285156 303.785156 548 303.785156 C 559.714844 303.785156 569.214844 313.285156 569.214844 325 "/>
<path style="fill-rule:nonzero;fill:rgb(100%,51%,0%);fill-opacity:1;stroke-width:1;stroke-linecap:butt;stroke-linejoin:miter;stroke:rgb(0%,0%,0%);stroke-opacity:1;stroke-miterlimit:10;" d="M 1018.214844 390 C 1018.214844 401.714844 1008.714844 411.214844 997 411.214844 C 985.285156 411.214844 975.785156 401.714844 975.785156 390 C 975.785156 378.285156 985.285156 368.785156 997 368.785156 C 1008.714844 368.785156 1018.214844 378.285156 1018.214844 390 "/>
<path style="fill-rule:nonzero;fill:rgb(100%,51%,0%);fill-opacity:1;stroke-width:1;stroke-linecap:butt;stroke-linejoin:miter;stroke:rgb(0%,0%,0%);stroke-opacity:1;stroke-miterlimit:10;" d="M 145.214844 124 C 145.214844 135.714844 135.714844 145.214844 124 145.214844 C 112.285156 145.214844 102.785156 135.714844 102.785156 124 C 102.785156 112.285156 112.285156 102.785156 124 102.785156 C 135.714844 102.785156 145.214844 112.285156 145.214844 124 "/>
</g>
</svg>
