<?xml version="1.0" encoding="UTF-8"?>
<svg xmlns="http://www.w3.org/2000/svg" xmlns:xlink="http://www.w3.org/1999/xlink" width="1179pt" height="517pt" viewBox="0 0 1179 517" version="1.1">
<g id="surface481">
<rect x="0" y="0" width="1179" height="517" style="fill:rgb(90%,90%,90%);fill-opacity:1;stroke:none;"/>
<path style="fill-rule:nonzero;fill:rgb(100%,51%,0%);fill-opacity:1;stroke-width:1;stroke-linecap:butt;stroke-linejoin:miter;stroke:rgb(0%,0%,0%);stroke-opacity:1;stroke-miterlimit:10;" d="M 655 318 L 684.664062 318 L 696.664062 289.785156 L 708.664062 318 L 738.332031 318 L 714.332031 335.4375 L 722.417969 366.980469 L 696.664062 349.542969 L 670.914062 366.980469 L 683.214844 335.4375 L 655 318 "/>
<path style="fill-rule:nonzero;fill:rgb(100%,51%,0%);fill-opacity:1;stroke-width:1;stroke-linecap:butt;stroke-linejoin:miter;stroke:rgb(0%,0%,0%);stroke-opacity:1;stroke-miterlimit:10;" d="M 472 210 L 501.664062 210 L 513.664062 181.785156 L 525.664062 210 L 555.332031 210 L 531.332031 227.4375 L 539.417969 258.980469 L 513.664062 241.542969 L 487.914062 258.980469 L 500.214844 227.4375 L 472 210 "/>
<path style="fill-rule:nonzero;fill:rgb(100%,51%,0%);fill-opacity:1;stroke-width:1;stroke-linecap:butt;stroke-linejoin:miter;stroke:rgb(0%,0%,0%);stroke-opacity:1;stroke-miterlimit:10;" d="M 829 184 L 858.664062 184 L 870.664062 155.785156 L 882.664062 184 L 912.332031 184 L 888.332031 201.4375 L 896.417969 232.980469 L 870.664062 215.542969 L 844.914062 232.980469 L 857.214844 201.4375 L 829 184 "/>
<path style="fill-rule:nonzero;fill:rgb(100%,51%,0%);fill-opacity:1;stroke-width:1;stroke-linecap:butt;stroke-linejoin:miter;stroke:rgb(0%,0%,0%);stroke-opacity:1;stroke-miterlimit:10;" d="M 156 271 L 185.664062 271 L 197.664062 242.785156 L 209.664062 271 L 239.332031 271 L 215.332031 288.4375 L 223.417969 319.980469 L 197.664062 302.542969 L 171.914062 319.980469 L 184.214844 288.4375 L 156 271 "/>
<path style="fill-rule:nonzero;fill:rgb(55%,51%,53%);fill-opacity:1;stroke-width:1;stroke-linecap:butt;stroke-linejoin:miter;stroke:rgb(0%,0%,0%);stroke-opacity:1;stroke-miterlimit:10;" d="M 646.214844 154 C 646.214844 165.714844 636.714844 175.214844 625 175.214844 C 613.285156 175.214844 603.785156 165.714844 603.785156 154 C 603.785156 142.285156 613.285156 132.785156 625 132.785156 C 636.714844 132.785156 646.214844 142.285156 646.214844 154 "/>
<path style="fill-rule:nonzero;fill:rgb(55%,51%,53%);fill-opacity:1;stroke-width:1;stroke-linecap:butt;stroke-linejoin:miter;stroke:rgb(0%,0%,0%);stroke-opacity:1;stroke-miterlimit:10;" d="M 948.214844 266 C 948.214844 277.714844 938.714844 287.214844 927 287.214844 C 915.285156 287.214844 905.785156 277.714844 905.785156 266 C 905.785156 254.285156 915.285156 244.785156 927 244.785156 C 938.714844 244.785156 948.214844 254.285156 948.214844 266 "/>
<path style="fill-rule:nonzero;fill:rgb(55%,51%,53%);fill-opacity:1;stroke-width:1;stroke-linecap:butt;stroke-linejoin:miter;stroke:rgb(0%,0%,0%);stroke-opacity:1;stroke-miterlimit:10;" d="M 313.214844 87 C 313.214844 98.714844 303.714844 108.214844 292 108.214844 C 280.285156 108.214844 270.785156 98.714844 270.785156 87 C 270.785156 75.285156 280.285156 65.785156 292 65.785156 C 303.714844 65.785156 313.214844 75.285156 313.214844 87 "/>
</g>
</svg>
