<?xml version="1.0" encoding="UTF-8"?>
<svg xmlns="http://www.w3.org/2000/svg" xmlns:xlink="http://www.w3.org/1999/xlink" width="1179pt" height="517pt" viewBox="0 0 1179 517" version="1.1">
<g id="surface336">
<rect x="0" y="0" width="1179" height="517" style="fill:rgb(90%,90%,90%);fill-opacity:1;stroke:none;"/>
<path style="fill-rule:nonzero;fill:rgb(55%,51%,53%);fill-opacity:1;stroke-width:1;stroke-linecap:butt;stroke-linejoin:miter;stroke:rgb(0%,0%,0%);stroke-opacity:1;stroke-miterlimit:10;" d="M 742 363 L 771.664062 363 L 783.664062 334.785156 L 795.664062 363 L 825.332031 363 L 801.332031 380.4375 L 809.417969 411.980469 L 783.664062 394.542969 L 757.914062 411.980469 L 770.214844 380.4375 L 742 363 "/>
<path style="fill-rule:nonzero;fill:rgb(55%,51%,53%);fill-opacity:1;stroke-width:1;stroke-linecap:butt;stroke-linejoin:miter;stroke:rgb(0%,0%,0%);stroke-opacity:1;stroke-miterlimit:10;" d="M 644 251 L 673.664062 251 L 685.664062 222.785156 L 697.664062 251 L 727.332031 251 L 703.332031 268.4375 L 711.417969 299.980469 L 685.664062 282.542969 L 659.914062 299.980469 L 672.214844 268.4375 L 644 251 "/>
<path style="fill-rule:nonzero;fill:rgb(55%,51%,53%);fill-opacity:1;stroke-width:1;stroke-linecap:butt;stroke-linejoin:miter;stroke:rgb(0%,0%,0%);stroke-opacity:1;stroke-miterlimit:10;" d="M 122 175 L 151.664062 175 L 163.664062 146.785156 L 175.664062 175 L 205.332031 175 L 181.332031 192.4375 L 189.417969 223.980469 L 163.664062 206.542969 L 137.914062 223.980469 L 150.214844 192.4375 L 122 175 "/>
<path style="fill-rule:nonzero;fill:rgb(55%,51%,53%);fill-opacity:1;stroke-width:1;stroke-linecap:butt;stroke-linejoin:miter;stroke:rgb(0%,0%,0%);stroke-opacity:1;stroke-miterlimit:10;" d="M 277 373 L 306.664062 373 L 318.664062 344.785156 L 330.664062 373 L 360.332031 373 L 336.332031 390.4375 L 344.417969 421.980469 L 318.664062 404.542969 L 292.914062 421.980469 L 305.214844 390.4375 L 277 373 "/>
<path style="fill-rule:nonzero;fill:rgb(53%,27%,7%);fill-opacity:1;stroke-width:1;stroke-linecap:butt;stroke-linejoin:miter;stroke:rgb(0%,0%,0%);stroke-opacity:1;stroke-miterlimit:10;" d="M 1009 236 L 983.019531 281 L 1034.980469 281 L 1009 236 "/>
<path style="fill-rule:nonzero;fill:rgb(53%,27%,7%);fill-opacity:1;stroke-width:1;stroke-linecap:butt;stroke-linejoin:miter;stroke:rgb(0%,0%,0%);stroke-opacity:1;stroke-miterlimit:10;" d="M 800 166 L 774.019531 211 L 825.980469 211 L 800 166 "/>
<path style="fill-rule:nonzero;fill:rgb(53%,27%,7%);fill-opacity:1;stroke-width:1;stroke-linecap:butt;stroke-linejoin:miter;stroke:rgb(0%,0%,0%);stroke-opacity:1;stroke-miterlimit:10;" d="M 106 373 L 80.019531 418 L 131.980469 418 L 106 373 "/>
<path style="fill-rule:nonzero;fill:rgb(53%,27%,7%);fill-opacity:1;stroke-width:1;stroke-linecap:butt;stroke-linejoin:miter;stroke:rgb(0%,0%,0%);stroke-opacity:1;stroke-miterlimit:10;" d="M 432 112 L 406.019531 157 L 457.980469 157 L 432 112 "/>
</g>
</svg>
