<?xml version="1.0" encoding="UTF-8"?>
<svg xmlns="http://www.w3.org/2000/svg" xmlns:xlink="http://www.w3.org/1999/xlink" width="1179pt" height="517pt" viewBox="0 0 1179 517" version="1.1">
<g id="surface381">
<rect x="0" y="0" width="1179" height="517" style="fill:rgb(90%,90%,90%);fill-opacity:1;stroke:none;"/>
<path style="fill-rule:nonzero;fill:rgb(35%,70%,90%);fill-opacity:1;stroke-width:1;stroke-linecap:butt;stroke-linejoin:miter;stroke:rgb(0%,0%,0%);stroke-opacity:1;stroke-miterlimit:10;" d="M 288.214844 361 C 288.214844 372.714844 278.714844 382.214844 267 382.214844 C 255.285156 382.214844 245.785156 372.714844 245.785156 361 C 245.785156 349.285156 255.285156 339.785156 267 339.785156 C 278.714844 339.785156 288.214844 349.285156 288.214844 361 "/>
<path style="fill-rule:nonzero;fill:rgb(35%,70%,90%);fill-opacity:1;stroke-width:1;stroke-linecap:butt;stroke-linejoin:miter;stroke:rgb(0%,0%,0%);stroke-opacity:1;stroke-miterlimit:10;" d="M 296.214844 125 C 296.214844 136.714844 286.714844 146.214844 275 146.214844 C 263.285156 146.214844 253.785156 136.714844 253.785156 125 C 253.785156 113.285156 263.285156 103.785156 275 103.785156 C 286.714844 103.785156 296.214844 113.285156 296.214844 125 "/>
<path style="fill-rule:nonzero;fill:rgb(35%,70%,90%);fill-opacity:1;stroke-width:1;stroke-linecap:butt;stroke-linejoin:miter;stroke:rgb(0%,0%,0%);stroke-opacity:1;stroke-miterlimit:10;" d="M 124.214844 417 C 124.214844 428.714844 114.714844 438.214844 103 438.214844 C 91.285156 438.214844 81.785156 428.714844 81.785156 417 C 81.785156 405.285156 91.285156 395.785156 103 395.785156 C 114.714844 395.785156 124.214844 405.285156 124.214844 417 "/>
<path style="fill-rule:nonzero;fill:rgb(100%,51%,0%);fill-opacity:1;stroke-width:1;stroke-linecap:butt;stroke-linejoin:miter;stroke:rgb(0%,0%,0%);stroke-opacity:1;stroke-miterlimit:10;" d="M 106.214844 247 C 106.214844 258.714844 96.714844 268.214844 85 268.214844 C 73.285156 268.214844 63.785156 258.714844 63.785156 247 C 63.785156 235.285156 73.285156 225.785156 85 225.785156 C 96.714844 225.785156 106.214844 235.285156 106.214844 247 "/>
<path style="fill-rule:nonzero;fill:rgb(35%,70%,90%);fill-opacity:1;stroke-width:1;stroke-linecap:butt;stroke-linejoin:miter;stroke:rgb(0%,0%,0%);stroke-opacity:1;stroke-miterlimit:10;" d="M 394.214844 96 C 394.214844 107.714844 384.714844 117.214844 373 117.214844 C 361.285156 117.214844 351.785156 107.714844 351.785156 96 C 351.785156 84.285156 361.285156 74.785156 373 74.785156 C 384.714844 74.785156 394.214844 84.285156 394.214844 96 "/>
<path style="fill-rule:nonzero;fill:rgb(100%,51%,0%);fill-opacity:1;stroke-width:1;stroke-linecap:butt;stroke-linejoin:miter;stroke:rgb(0%,0%,0%);stroke-opacity:1;stroke-miterlimit:10;" d="M 956.785156 65.785156 L 956.785156 108.214844 L 999.214844 108.214844 L 999.214844 65.785156 L 956.785156 65.785156 "/>
<path style="fill-rule:nonzero;fill:rgb(100%,51%,0%);fill-opacity:1;stroke-width:1;stroke-linecap:butt;stroke-linejoin:miter;stroke:rgb(0%,0%,0%);stroke-opacity:1;stroke-miterlimit:10;" d="M 776.785156 296.785156 L 776.785156 339.214844 L 819.214844 339.214844 L 819.214844 296.785156 L 776.785156 296.785156 "/>
<path style="fill-rule:nonzero;fill:rgb(100%,51%,0%);fill-opacity:1;stroke-width:1;stroke-linecap:butt;stroke-linejoin:miter;stroke:rgb(0%,0%,0%);stroke-opacity:1;stroke-miterlimit:10;" d="M 828.785156 128.785156 L 828.785156 171.214844 L 871.214844 171.214844 L 871.214844 128.785156 L 828.785156 128.785156 "/>
<path style="fill-rule:nonzero;fill:rgb(35%,70%,90%);fill-opacity:1;stroke-width:1;stroke-linecap:butt;stroke-linejoin:miter;stroke:rgb(0%,0%,0%);stroke-opacity:1;stroke-miterlimit:10;" d="M 1011.785156 262.785156 L 1011.785156 305.214844 L 1054.214844 305.214844 L 1054.214844 262.785156 L 1011.785156 262.785156 "/>
</g>
</svg>
