<?xml version="1.0" encoding="UTF-8"?>
<svg xmlns="http://www.w3.org/2000/svg" xmlns:xlink="http://www.w3.org/1999/xlink" width="1179pt" height="517pt" viewBox="0 0 1179 517" version="1.1">
<g id="surface1346">
<rect x="0" y="0" width="1179" height="517" style="fill:rgb(90%,90%,90%);fill-opacity:1;stroke:none;"/>
<path style="fill-rule:nonzero;fill:rgb(53%,27%,7%);fill-opacity:1;stroke-width:1;stroke-linecap:butt;stroke-linejoin:miter;stroke:rgb(0%,0%,0%);stroke-opacity:1;stroke-miterlimit:10;" d="M 425 96.601562 C 425 82.199219 401 82.199219 401 96.601562 C 401 111 425 113.398438 425 125.398438 C 425 113.398438 449 111 449 96.601562 C 449 82.199219 425 82.199219 425 96.601562 "/>
<path style="fill-rule:nonzero;fill:rgb(53%,27%,7%);fill-opacity:1;stroke-width:1;stroke-linecap:butt;stroke-linejoin:miter;stroke:rgb(0%,0%,0%);stroke-opacity:1;stroke-miterlimit:10;" d="M 152 380.601562 C 152 366.199219 128 366.199219 128 380.601562 C 128 395 152 397.398438 152 409.398438 C 152 397.398438 176 395 176 380.601562 C 176 366.199219 152 366.199219 152 380.601562 "/>
<path style="fill-rule:nonzero;fill:rgb(53%,27%,7%);fill-opacity:1;stroke-width:1;stroke-linecap:butt;stroke-linejoin:miter;stroke:rgb(0%,0%,0%);stroke-opacity:1;stroke-miterlimit:10;" d="M 808 215.601562 C 808 201.199219 784 201.199219 784 215.601562 C 784 230 808 232.398438 808 244.398438 C 808 232.398438 832 230 832 215.601562 C 832 201.199219 808 201.199219 808 215.601562 "/>
<path style="fill-rule:nonzero;fill:rgb(53%,27%,7%);fill-opacity:1;stroke-width:1;stroke-linecap:butt;stroke-linejoin:miter;stroke:rgb(0%,0%,0%);stroke-opacity:1;stroke-miterlimit:10;" d="M 527 387.601562 C 527 373.199219 503 373.199219 503 387.601562 C 503 402 527 404.398438 527 416.398438 C 527 404.398438 551 402 551 387.601562 C 551 373.199219 527 373.199219 527 387.601562 "/>
<path style="fill-rule:nonzero;fill:rgb(53%,27%,7%);fill-opacity:1;stroke-width:1;stroke-linecap:butt;stroke-linejoin:miter;stroke:rgb(0%,0%,0%);stroke-opacity:1;stroke-miterlimit:10;" d="M 839 340.601562 C 839 326.199219 815 326.199219 815 340.601562 C 815 355 839 357.398438 839 369.398438 C 839 357.398438 863 355 863 340.601562 C 863 326.199219 839 326.199219 839 340.601562 "/>
<path style="fill-rule:nonzero;fill:rgb(35%,70%,90%);fill-opacity:1;stroke-width:1;stroke-linecap:butt;stroke-linejoin:miter;stroke:rgb(0%,0%,0%);stroke-opacity:1;stroke-miterlimit:10;" d="M 954 179 L 928.019531 224 L 979.980469 224 L 954 179 "/>
<path style="fill-rule:nonzero;fill:rgb(35%,70%,90%);fill-opacity:1;stroke-width:1;stroke-linecap:butt;stroke-linejoin:miter;stroke:rgb(0%,0%,0%);stroke-opacity:1;stroke-miterlimit:10;" d="M 760 90 L 734.019531 135 L 785.980469 135 L 760 90 "/>
<path style="fill-rule:nonzero;fill:rgb(35%,70%,90%);fill-opacity:1;stroke-width:1;stroke-linecap:butt;stroke-linejoin:miter;stroke:rgb(0%,0%,0%);stroke-opacity:1;stroke-miterlimit:10;" d="M 176 181 L 150.019531 226 L 201.980469 226 L 176 181 "/>
<path style="fill-rule:nonzero;fill:rgb(35%,70%,90%);fill-opacity:1;stroke-width:1;stroke-linecap:butt;stroke-linejoin:miter;stroke:rgb(0%,0%,0%);stroke-opacity:1;stroke-miterlimit:10;" d="M 681 331 L 655.019531 376 L 706.980469 376 L 681 331 "/>
<path style="fill-rule:nonzero;fill:rgb(35%,70%,90%);fill-opacity:1;stroke-width:1;stroke-linecap:butt;stroke-linejoin:miter;stroke:rgb(0%,0%,0%);stroke-opacity:1;stroke-miterlimit:10;" d="M 1007 67 L 981.019531 112 L 1032.980469 112 L 1007 67 "/>
</g>
</svg>
