<?xml version="1.0" encoding="UTF-8"?>
<svg xmlns="http://www.w3.org/2000/svg" xmlns:xlink="http://www.w3.org/1999/xlink" width="1179pt" height="517pt" viewBox="0 0 1179 517" version="1.1">
<g id="surface401">
<rect x="0" y="0" width="1179" height="517" style="fill:rgb(90%,90%,90%);fill-opacity:1;stroke:none;"/>
<path style="fill-rule:nonzero;fill:rgb(35%,70%,90%);fill-opacity:1;stroke-width:1;stroke-linecap:butt;stroke-linejoin:miter;stroke:rgb(0%,0%,0%);stroke-opacity:1;stroke-miterlimit:10;" d="M 138 120 L 167.664062 120 L 179.664062 91.785156 L 191.664062 120 L 221.332031 120 L 197.332031 137.4375 L 205.417969 168.980469 L 179.664062 151.542969 L 153.914062 168.980469 L 166.214844 137.4375 L 138 120 "/>
<path style="fill-rule:nonzero;fill:rgb(35%,70%,90%);fill-opacity:1;stroke-width:1;stroke-linecap:butt;stroke-linejoin:miter;stroke:rgb(0%,0%,0%);stroke-opacity:1;stroke-miterlimit:10;" d="M 184.785156 248.785156 L 184.785156 291.214844 L 227.214844 291.214844 L 227.214844 248.785156 L 184.785156 248.785156 "/>
<path style="fill-rule:nonzero;fill:rgb(35%,70%,90%);fill-opacity:1;stroke-width:1;stroke-linecap:butt;stroke-linejoin:miter;stroke:rgb(0%,0%,0%);stroke-opacity:1;stroke-miterlimit:10;" d="M 252.785156 392.785156 L 252.785156 435.214844 L 295.214844 435.214844 L 295.214844 392.785156 L 252.785156 392.785156 "/>
<path style="fill-rule:nonzero;fill:rgb(35%,70%,90%);fill-opacity:1;stroke-width:1;stroke-linecap:butt;stroke-linejoin:miter;stroke:rgb(0%,0%,0%);stroke-opacity:1;stroke-miterlimit:10;" d="M 327 144 L 356.664062 144 L 368.664062 115.785156 L 380.664062 144 L 410.332031 144 L 386.332031 161.4375 L 394.417969 192.980469 L 368.664062 175.542969 L 342.914062 192.980469 L 355.214844 161.4375 L 327 144 "/>
<path style="fill-rule:nonzero;fill:rgb(35%,70%,90%);fill-opacity:1;stroke-width:1;stroke-linecap:butt;stroke-linejoin:miter;stroke:rgb(0%,0%,0%);stroke-opacity:1;stroke-miterlimit:10;" d="M 396 321 L 425.664062 321 L 437.664062 292.785156 L 449.664062 321 L 479.332031 321 L 455.332031 338.4375 L 463.417969 369.980469 L 437.664062 352.542969 L 411.914062 369.980469 L 424.214844 338.4375 L 396 321 "/>
<path style="fill-rule:nonzero;fill:rgb(53%,27%,7%);fill-opacity:1;stroke-width:1;stroke-linecap:butt;stroke-linejoin:miter;stroke:rgb(0%,0%,0%);stroke-opacity:1;stroke-miterlimit:10;" d="M 828.785156 212.785156 L 828.785156 255.214844 L 871.214844 255.214844 L 871.214844 212.785156 L 828.785156 212.785156 "/>
<path style="fill-rule:nonzero;fill:rgb(53%,27%,7%);fill-opacity:1;stroke-width:1;stroke-linecap:butt;stroke-linejoin:miter;stroke:rgb(0%,0%,0%);stroke-opacity:1;stroke-miterlimit:10;" d="M 968 337 L 997.664062 337 L 1009.664062 308.785156 L 1021.664062 337 L 1051.332031 337 L 1027.332031 354.4375 L 1035.417969 385.980469 L 1009.664062 368.542969 L 983.914062 385.980469 L 996.214844 354.4375 L 968 337 "/>
<path style="fill-rule:nonzero;fill:rgb(53%,27%,7%);fill-opacity:1;stroke-width:1;stroke-linecap:butt;stroke-linejoin:miter;stroke:rgb(0%,0%,0%);stroke-opacity:1;stroke-miterlimit:10;" d="M 782 370 L 811.664062 370 L 823.664062 341.785156 L 835.664062 370 L 865.332031 370 L 841.332031 387.4375 L 849.417969 418.980469 L 823.664062 401.542969 L 797.914062 418.980469 L 810.214844 387.4375 L 782 370 "/>
<path style="fill-rule:nonzero;fill:rgb(53%,27%,7%);fill-opacity:1;stroke-width:1;stroke-linecap:butt;stroke-linejoin:miter;stroke:rgb(0%,0%,0%);stroke-opacity:1;stroke-miterlimit:10;" d="M 820.785156 92.785156 L 820.785156 135.214844 L 863.214844 135.214844 L 863.214844 92.785156 L 820.785156 92.785156 "/>
</g>
</svg>
