<?xml version="1.0" encoding="UTF-8"?>
<svg xmlns="http://www.w3.org/2000/svg" xmlns:xlink="http://www.w3.org/1999/xlink" width="1179pt" height="517pt" viewBox="0 0 1179 517" version="1.1">
<g id="surface926">
<rect x="0" y="0" width="1179" height="517" style="fill:rgb(90%,90%,90%);fill-opacity:1;stroke:none;"/>
<path style="fill-rule:nonzero;fill:rgb(35%,70%,90%);fill-opacity:1;stroke-width:1;stroke-linecap:butt;stroke-linejoin:miter;stroke:rgb(0%,0%,0%);stroke-opacity:1;stroke-miterlimit:10;" d="M 551.214844 413 C 551.214844 424.714844 541.714844 434.214844 530 434.214844 C 518.285156 434.214844 508.785156 424.714844 508.785156 413 C 508.785156 401.285156 518.285156 391.785156 530 391.785156 C 541.714844 391.785156 551.214844 401.285156 551.214844 413 "/>
<path style="fill-rule:nonzero;fill:rgb(35%,70%,90%);fill-opacity:1;stroke-width:1;stroke-linecap:butt;stroke-linejoin:miter;stroke:rgb(0%,0%,0%);stroke-opacity:1;stroke-miterlimit:10;" d="M 394.214844 198 C 394.214844 209.714844 384.714844 219.214844 373 219.214844 C 361.285156 219.214844 351.785156 209.714844 351.785156 198 C 351.785156 186.285156 361.285156 176.785156 373 176.785156 C 384.714844 176.785156 394.214844 186.285156 394.214844 198 "/>
<path style="fill-rule:nonzero;fill:rgb(35%,70%,90%);fill-opacity:1;stroke-width:1;stroke-linecap:butt;stroke-linejoin:miter;stroke:rgb(0%,0%,0%);stroke-opacity:1;stroke-miterlimit:10;" d="M 731.214844 245 C 731.214844 256.714844 721.714844 266.214844 710 266.214844 C 698.285156 266.214844 688.785156 256.714844 688.785156 245 C 688.785156 233.285156 698.285156 223.785156 710 223.785156 C 721.714844 223.785156 731.214844 233.285156 731.214844 245 "/>
<path style="fill-rule:nonzero;fill:rgb(67%,100%,18%);fill-opacity:1;stroke-width:1;stroke-linecap:butt;stroke-linejoin:miter;stroke:rgb(0%,0%,0%);stroke-opacity:1;stroke-miterlimit:10;" d="M 676 416 L 705.664062 416 L 717.664062 387.785156 L 729.664062 416 L 759.332031 416 L 735.332031 433.4375 L 743.417969 464.980469 L 717.664062 447.542969 L 691.914062 464.980469 L 704.214844 433.4375 L 676 416 "/>
<path style="fill-rule:nonzero;fill:rgb(67%,100%,18%);fill-opacity:1;stroke-width:1;stroke-linecap:butt;stroke-linejoin:miter;stroke:rgb(0%,0%,0%);stroke-opacity:1;stroke-miterlimit:10;" d="M 641 146 L 670.664062 146 L 682.664062 117.785156 L 694.664062 146 L 724.332031 146 L 700.332031 163.4375 L 708.417969 194.980469 L 682.664062 177.542969 L 656.914062 194.980469 L 669.214844 163.4375 L 641 146 "/>
<path style="fill-rule:nonzero;fill:rgb(67%,100%,18%);fill-opacity:1;stroke-width:1;stroke-linecap:butt;stroke-linejoin:miter;stroke:rgb(0%,0%,0%);stroke-opacity:1;stroke-miterlimit:10;" d="M 473 278 L 502.664062 278 L 514.664062 249.785156 L 526.664062 278 L 556.332031 278 L 532.332031 295.4375 L 540.417969 326.980469 L 514.664062 309.542969 L 488.914062 326.980469 L 501.214844 295.4375 L 473 278 "/>
</g>
</svg>
