<?xml version="1.0" encoding="UTF-8"?>
<svg xmlns="http://www.w3.org/2000/svg" xmlns:xlink="http://www.w3.org/1999/xlink" width="1179pt" height="517pt" viewBox="0 0 1179 517" version="1.1">
<g id="surface1381">
<rect x="0" y="0" width="1179" height="517" style="fill:rgb(90%,90%,90%);fill-opacity:1;stroke:none;"/>
<path style="fill-rule:nonzero;fill:rgb(100%,51%,0%);fill-opacity:1;stroke-width:1;stroke-linecap:butt;stroke-linejoin:miter;stroke:rgb(0%,0%,0%);stroke-opacity:1;stroke-miterlimit:10;" d="M 678 340 L 707.664062 340 L 719.664062 311.785156 L 731.664062 340 L 761.332031 340 L 737.332031 357.4375 L 745.417969 388.980469 L 719.664062 371.542969 L 693.914062 388.980469 L 706.214844 357.4375 L 678 340 "/>
<path style="fill-rule:nonzero;fill:rgb(100%,51%,0%);fill-opacity:1;stroke-width:1;stroke-linecap:butt;stroke-linejoin:miter;stroke:rgb(0%,0%,0%);stroke-opacity:1;stroke-miterlimit:10;" d="M 836 130 L 865.664062 130 L 877.664062 101.785156 L 889.664062 130 L 919.332031 130 L 895.332031 147.4375 L 903.417969 178.980469 L 877.664062 161.542969 L 851.914062 178.980469 L 864.214844 147.4375 L 836 130 "/>
<path style="fill-rule:nonzero;fill:rgb(100%,51%,0%);fill-opacity:1;stroke-width:1;stroke-linecap:butt;stroke-linejoin:miter;stroke:rgb(0%,0%,0%);stroke-opacity:1;stroke-miterlimit:10;" d="M 499 348 L 528.664062 348 L 540.664062 319.785156 L 552.664062 348 L 582.332031 348 L 558.332031 365.4375 L 566.417969 396.980469 L 540.664062 379.542969 L 514.914062 396.980469 L 527.214844 365.4375 L 499 348 "/>
<path style="fill-rule:nonzero;fill:rgb(100%,51%,0%);fill-opacity:1;stroke-width:1;stroke-linecap:butt;stroke-linejoin:miter;stroke:rgb(0%,0%,0%);stroke-opacity:1;stroke-miterlimit:10;" d="M 733 213 L 762.664062 213 L 774.664062 184.785156 L 786.664062 213 L 816.332031 213 L 792.332031 230.4375 L 800.417969 261.980469 L 774.664062 244.542969 L 748.914062 261.980469 L 761.214844 230.4375 L 733 213 "/>
<path style="fill-rule:nonzero;fill:rgb(100%,51%,0%);fill-opacity:1;stroke-width:1;stroke-linecap:butt;stroke-linejoin:miter;stroke:rgb(0%,0%,0%);stroke-opacity:1;stroke-miterlimit:10;" d="M 177 234 L 206.664062 234 L 218.664062 205.785156 L 230.664062 234 L 260.332031 234 L 236.332031 251.4375 L 244.417969 282.980469 L 218.664062 265.542969 L 192.914062 282.980469 L 205.214844 251.4375 L 177 234 "/>
<path style="fill-rule:nonzero;fill:rgb(35%,70%,90%);fill-opacity:1;stroke-width:1;stroke-linecap:butt;stroke-linejoin:miter;stroke:rgb(0%,0%,0%);stroke-opacity:1;stroke-miterlimit:10;" d="M 897 314 L 871.019531 359 L 922.980469 359 L 897 314 "/>
<path style="fill-rule:nonzero;fill:rgb(35%,70%,90%);fill-opacity:1;stroke-width:1;stroke-linecap:butt;stroke-linejoin:miter;stroke:rgb(0%,0%,0%);stroke-opacity:1;stroke-miterlimit:10;" d="M 313 379 L 287.019531 424 L 338.980469 424 L 313 379 "/>
<path style="fill-rule:nonzero;fill:rgb(35%,70%,90%);fill-opacity:1;stroke-width:1;stroke-linecap:butt;stroke-linejoin:miter;stroke:rgb(0%,0%,0%);stroke-opacity:1;stroke-miterlimit:10;" d="M 300 92 L 274.019531 137 L 325.980469 137 L 300 92 "/>
</g>
</svg>
