<?xml version="1.0" encoding="UTF-8"?>
<svg xmlns="http://www.w3.org/2000/svg" xmlns:xlink="http://www.w3.org/1999/xlink" width="1179pt" height="517pt" viewBox="0 0 1179 517" version="1.1">
<g id="surface976">
<rect x="0" y="0" width="1179" height="517" style="fill:rgb(90%,90%,90%);fill-opacity:1;stroke:none;"/>
<path style="fill-rule:nonzero;fill:rgb(55%,51%,53%);fill-opacity:1;stroke-width:1;stroke-linecap:butt;stroke-linejoin:miter;stroke:rgb(0%,0%,0%);stroke-opacity:1;stroke-miterlimit:10;" d="M 365.214844 315 C 365.214844 326.714844 355.714844 336.214844 344 336.214844 C 332.285156 336.214844 322.785156 326.714844 322.785156 315 C 322.785156 303.285156 332.285156 293.785156 344 293.785156 C 355.714844 293.785156 365.214844 303.285156 365.214844 315 "/>
<path style="fill-rule:nonzero;fill:rgb(67%,100%,18%);fill-opacity:1;stroke-width:1;stroke-linecap:butt;stroke-linejoin:miter;stroke:rgb(0%,0%,0%);stroke-opacity:1;stroke-miterlimit:10;" d="M 290.214844 244 C 290.214844 255.714844 280.714844 265.214844 269 265.214844 C 257.285156 265.214844 247.785156 255.714844 247.785156 244 C 247.785156 232.285156 257.285156 222.785156 269 222.785156 C 280.714844 222.785156 290.214844 232.285156 290.214844 244 "/>
<path style="fill-rule:nonzero;fill:rgb(55%,51%,53%);fill-opacity:1;stroke-width:1;stroke-linecap:butt;stroke-linejoin:miter;stroke:rgb(0%,0%,0%);stroke-opacity:1;stroke-miterlimit:10;" d="M 381.214844 131 C 381.214844 142.714844 371.714844 152.214844 360 152.214844 C 348.285156 152.214844 338.785156 142.714844 338.785156 131 C 338.785156 119.285156 348.285156 109.785156 360 109.785156 C 371.714844 109.785156 381.214844 119.285156 381.214844 131 "/>
<path style="fill-rule:nonzero;fill:rgb(55%,51%,53%);fill-opacity:1;stroke-width:1;stroke-linecap:butt;stroke-linejoin:miter;stroke:rgb(0%,0%,0%);stroke-opacity:1;stroke-miterlimit:10;" d="M 410.214844 235 C 410.214844 246.714844 400.714844 256.214844 389 256.214844 C 377.285156 256.214844 367.785156 246.714844 367.785156 235 C 367.785156 223.285156 377.285156 213.785156 389 213.785156 C 400.714844 213.785156 410.214844 223.285156 410.214844 235 "/>
<path style="fill-rule:nonzero;fill:rgb(67%,100%,18%);fill-opacity:1;stroke-width:1;stroke-linecap:butt;stroke-linejoin:miter;stroke:rgb(0%,0%,0%);stroke-opacity:1;stroke-miterlimit:10;" d="M 977 246 L 951.019531 291 L 1002.980469 291 L 977 246 "/>
<path style="fill-rule:nonzero;fill:rgb(55%,51%,53%);fill-opacity:1;stroke-width:1;stroke-linecap:butt;stroke-linejoin:miter;stroke:rgb(0%,0%,0%);stroke-opacity:1;stroke-miterlimit:10;" d="M 829 292 L 803.019531 337 L 854.980469 337 L 829 292 "/>
<path style="fill-rule:nonzero;fill:rgb(67%,100%,18%);fill-opacity:1;stroke-width:1;stroke-linecap:butt;stroke-linejoin:miter;stroke:rgb(0%,0%,0%);stroke-opacity:1;stroke-miterlimit:10;" d="M 859 52 L 833.019531 97 L 884.980469 97 L 859 52 "/>
<path style="fill-rule:nonzero;fill:rgb(67%,100%,18%);fill-opacity:1;stroke-width:1;stroke-linecap:butt;stroke-linejoin:miter;stroke:rgb(0%,0%,0%);stroke-opacity:1;stroke-miterlimit:10;" d="M 934 123 L 908.019531 168 L 959.980469 168 L 934 123 "/>
</g>
</svg>
