<?xml version="1.0" encoding="UTF-8"?>
<svg xmlns="http://www.w3.org/2000/svg" xmlns:xlink="http://www.w3.org/1999/xlink" width="1179pt" height="517pt" viewBox="0 0 1179 517" version="1.1">
<g id="surface341">
<rect x="0" y="0" width="1179" height="517" style="fill:rgb(90%,90%,90%);fill-opacity:1;stroke:none;"/>
<path style="fill-rule:nonzero;fill:rgb(55%,51%,53%);fill-opacity:1;stroke-width:1;stroke-linecap:butt;stroke-linejoin:miter;stroke:rgb(0%,0%,0%);stroke-opacity:1;stroke-miterlimit:10;" d="M 425 92 L 454.664062 92 L 466.664062 63.785156 L 478.664062 92 L 508.332031 92 L 484.332031 109.4375 L 492.417969 140.980469 L 466.664062 123.542969 L 440.914062 140.980469 L 453.214844 109.4375 L 425 92 "/>
<path style="fill-rule:nonzero;fill:rgb(55%,51%,53%);fill-opacity:1;stroke-width:1;stroke-linecap:butt;stroke-linejoin:miter;stroke:rgb(0%,0%,0%);stroke-opacity:1;stroke-miterlimit:10;" d="M 154 426 L 183.664062 426 L 195.664062 397.785156 L 207.664062 426 L 237.332031 426 L 213.332031 443.4375 L 221.417969 474.980469 L 195.664062 457.542969 L 169.914062 474.980469 L 182.214844 443.4375 L 154 426 "/>
<path style="fill-rule:nonzero;fill:rgb(53%,27%,7%);fill-opacity:1;stroke-width:1;stroke-linecap:butt;stroke-linejoin:miter;stroke:rgb(0%,0%,0%);stroke-opacity:1;stroke-miterlimit:10;" d="M 229 122 L 258.664062 122 L 270.664062 93.785156 L 282.664062 122 L 312.332031 122 L 288.332031 139.4375 L 296.417969 170.980469 L 270.664062 153.542969 L 244.914062 170.980469 L 257.214844 139.4375 L 229 122 "/>
<path style="fill-rule:nonzero;fill:rgb(53%,27%,7%);fill-opacity:1;stroke-width:1;stroke-linecap:butt;stroke-linejoin:miter;stroke:rgb(0%,0%,0%);stroke-opacity:1;stroke-miterlimit:10;" d="M 1007.785156 68.785156 L 1007.785156 111.214844 L 1050.214844 111.214844 L 1050.214844 68.785156 L 1007.785156 68.785156 "/>
<path style="fill-rule:nonzero;fill:rgb(53%,27%,7%);fill-opacity:1;stroke-width:1;stroke-linecap:butt;stroke-linejoin:miter;stroke:rgb(0%,0%,0%);stroke-opacity:1;stroke-miterlimit:10;" d="M 792.785156 166.785156 L 792.785156 209.214844 L 835.214844 209.214844 L 835.214844 166.785156 L 792.785156 166.785156 "/>
<path style="fill-rule:nonzero;fill:rgb(55%,51%,53%);fill-opacity:1;stroke-width:1;stroke-linecap:butt;stroke-linejoin:miter;stroke:rgb(0%,0%,0%);stroke-opacity:1;stroke-miterlimit:10;" d="M 878.785156 251.785156 L 878.785156 294.214844 L 921.214844 294.214844 L 921.214844 251.785156 L 878.785156 251.785156 "/>
<path style="fill-rule:nonzero;fill:rgb(55%,51%,53%);fill-opacity:1;stroke-width:1;stroke-linecap:butt;stroke-linejoin:miter;stroke:rgb(0%,0%,0%);stroke-opacity:1;stroke-miterlimit:10;" d="M 780.785156 273.785156 L 780.785156 316.214844 L 823.214844 316.214844 L 823.214844 273.785156 L 780.785156 273.785156 "/>
<path style="fill-rule:nonzero;fill:rgb(53%,27%,7%);fill-opacity:1;stroke-width:1;stroke-linecap:butt;stroke-linejoin:miter;stroke:rgb(0%,0%,0%);stroke-opacity:1;stroke-miterlimit:10;" d="M 732.785156 87.785156 L 732.785156 130.214844 L 775.214844 130.214844 L 775.214844 87.785156 L 732.785156 87.785156 "/>
</g>
</svg>
