<?xml version="1.0" encoding="UTF-8"?>
<svg xmlns="http://www.w3.org/2000/svg" xmlns:xlink="http://www.w3.org/1999/xlink" width="1179pt" height="517pt" viewBox="0 0 1179 517" version="1.1">
<g id="surface756">
<rect x="0" y="0" width="1179" height="517" style="fill:rgb(90%,90%,90%);fill-opacity:1;stroke:none;"/>
<path style="fill-rule:nonzero;fill:rgb(0%,0%,0%);fill-opacity:1;stroke-width:1;stroke-linecap:butt;stroke-linejoin:miter;stroke:rgb(0%,0%,0%);stroke-opacity:1;stroke-miterlimit:10;" d="M 75 77 L 55 77 L 55 87 L 75 87 L 75 107 L 85 107 L 85 87 L 105 87 L 105 77 L 85 77 L 85 57 L 75 57 L 75 77 "/>
<path style="fill-rule:nonzero;fill:rgb(100%,0%,0%);fill-opacity:1;stroke-width:1;stroke-linecap:butt;stroke-linejoin:miter;stroke:rgb(0%,0%,0%);stroke-opacity:1;stroke-miterlimit:10;" d="M 322 295.601562 C 322 281.199219 298 281.199219 298 295.601562 C 298 310 322 312.398438 322 324.398438 C 322 312.398438 346 310 346 295.601562 C 346 281.199219 322 281.199219 322 295.601562 "/>
<path style="fill-rule:nonzero;fill:rgb(0%,0%,0%);fill-opacity:1;stroke-width:1;stroke-linecap:butt;stroke-linejoin:miter;stroke:rgb(0%,0%,0%);stroke-opacity:1;stroke-miterlimit:10;" d="M 367 192 L 347 192 L 347 202 L 367 202 L 367 222 L 377 222 L 377 202 L 397 202 L 397 192 L 377 192 L 377 172 L 367 172 L 367 192 "/>
<path style="fill-rule:nonzero;fill:rgb(100%,0%,0%);fill-opacity:1;stroke-width:1;stroke-linecap:butt;stroke-linejoin:miter;stroke:rgb(0%,0%,0%);stroke-opacity:1;stroke-miterlimit:10;" d="M 117 309.601562 C 117 295.199219 93 295.199219 93 309.601562 C 93 324 117 326.398438 117 338.398438 C 117 326.398438 141 324 141 309.601562 C 141 295.199219 117 295.199219 117 309.601562 "/>
<path style="fill-rule:nonzero;fill:rgb(100%,0%,0%);fill-opacity:1;stroke-width:1;stroke-linecap:butt;stroke-linejoin:miter;stroke:rgb(0%,0%,0%);stroke-opacity:1;stroke-miterlimit:10;" d="M 419 337.601562 C 419 323.199219 395 323.199219 395 337.601562 C 395 352 419 354.398438 419 366.398438 C 419 354.398438 443 352 443 337.601562 C 443 323.199219 419 323.199219 419 337.601562 "/>
<path style="fill-rule:nonzero;fill:rgb(0%,0%,0%);fill-opacity:1;stroke-width:1;stroke-linecap:butt;stroke-linejoin:miter;stroke:rgb(0%,0%,0%);stroke-opacity:1;stroke-miterlimit:10;" d="M 911 403 L 891 403 L 891 413 L 911 413 L 911 433 L 921 433 L 921 413 L 941 413 L 941 403 L 921 403 L 921 383 L 911 383 L 911 403 "/>
<path style="fill-rule:nonzero;fill:rgb(0%,0%,0%);fill-opacity:1;stroke-width:1;stroke-linecap:butt;stroke-linejoin:miter;stroke:rgb(0%,0%,0%);stroke-opacity:1;stroke-miterlimit:10;" d="M 778 114 L 758 114 L 758 124 L 778 124 L 778 144 L 788 144 L 788 124 L 808 124 L 808 114 L 788 114 L 788 94 L 778 94 L 778 114 "/>
<path style="fill-rule:nonzero;fill:rgb(0%,0%,0%);fill-opacity:1;stroke-width:1;stroke-linecap:butt;stroke-linejoin:miter;stroke:rgb(0%,0%,0%);stroke-opacity:1;stroke-miterlimit:10;" d="M 1019 313 L 999 313 L 999 323 L 1019 323 L 1019 343 L 1029 343 L 1029 323 L 1049 323 L 1049 313 L 1029 313 L 1029 293 L 1019 293 L 1019 313 "/>
<path style="fill-rule:nonzero;fill:rgb(100%,0%,0%);fill-opacity:1;stroke-width:1;stroke-linecap:butt;stroke-linejoin:miter;stroke:rgb(0%,0%,0%);stroke-opacity:1;stroke-miterlimit:10;" d="M 1013 116.601562 C 1013 102.199219 989 102.199219 989 116.601562 C 989 131 1013 133.398438 1013 145.398438 C 1013 133.398438 1037 131 1037 116.601562 C 1037 102.199219 1013 102.199219 1013 116.601562 "/>
<path style="fill-rule:nonzero;fill:rgb(0%,0%,0%);fill-opacity:1;stroke-width:1;stroke-linecap:butt;stroke-linejoin:miter;stroke:rgb(0%,0%,0%);stroke-opacity:1;stroke-miterlimit:10;" d="M 815 353 L 795 353 L 795 363 L 815 363 L 815 383 L 825 383 L 825 363 L 845 363 L 845 353 L 825 353 L 825 333 L 815 333 L 815 353 "/>
<path style="fill-rule:nonzero;fill:rgb(0%,0%,0%);fill-opacity:1;stroke-width:1;stroke-linecap:butt;stroke-linejoin:miter;stroke:rgb(0%,0%,0%);stroke-opacity:1;stroke-miterlimit:10;" d="M 792 206 L 772 206 L 772 216 L 792 216 L 792 236 L 802 236 L 802 216 L 822 216 L 822 206 L 802 206 L 802 186 L 792 186 L 792 206 "/>
</g>
</svg>
