<?xml version="1.0" encoding="UTF-8"?>
<svg xmlns="http://www.w3.org/2000/svg" xmlns:xlink="http://www.w3.org/1999/xlink" width="1179pt" height="517pt" viewBox="0 0 1179 517" version="1.1">
<g id="surface426">
<rect x="0" y="0" width="1179" height="517" style="fill:rgb(90%,90%,90%);fill-opacity:1;stroke:none;"/>
<path style="fill-rule:nonzero;fill:rgb(35%,70%,90%);fill-opacity:1;stroke-width:1;stroke-linecap:butt;stroke-linejoin:miter;stroke:rgb(0%,0%,0%);stroke-opacity:1;stroke-miterlimit:10;" d="M 460 337 L 489.664062 337 L 501.664062 308.785156 L 513.664062 337 L 543.332031 337 L 519.332031 354.4375 L 527.417969 385.980469 L 501.664062 368.542969 L 475.914062 385.980469 L 488.214844 354.4375 L 460 337 "/>
<path style="fill-rule:nonzero;fill:rgb(35%,70%,90%);fill-opacity:1;stroke-width:1;stroke-linecap:butt;stroke-linejoin:miter;stroke:rgb(0%,0%,0%);stroke-opacity:1;stroke-miterlimit:10;" d="M 339 418 L 368.664062 418 L 380.664062 389.785156 L 392.664062 418 L 422.332031 418 L 398.332031 435.4375 L 406.417969 466.980469 L 380.664062 449.542969 L 354.914062 466.980469 L 367.214844 435.4375 L 339 418 "/>
<path style="fill-rule:nonzero;fill:rgb(35%,70%,90%);fill-opacity:1;stroke-width:1;stroke-linecap:butt;stroke-linejoin:miter;stroke:rgb(0%,0%,0%);stroke-opacity:1;stroke-miterlimit:10;" d="M 132 432 L 161.664062 432 L 173.664062 403.785156 L 185.664062 432 L 215.332031 432 L 191.332031 449.4375 L 199.417969 480.980469 L 173.664062 463.542969 L 147.914062 480.980469 L 160.214844 449.4375 L 132 432 "/>
<path style="fill-rule:nonzero;fill:rgb(35%,70%,90%);fill-opacity:1;stroke-width:1;stroke-linecap:butt;stroke-linejoin:miter;stroke:rgb(0%,0%,0%);stroke-opacity:1;stroke-miterlimit:10;" d="M 1000 239 L 1029.664062 239 L 1041.664062 210.785156 L 1053.664062 239 L 1083.332031 239 L 1059.332031 256.4375 L 1067.417969 287.980469 L 1041.664062 270.542969 L 1015.914062 287.980469 L 1028.214844 256.4375 L 1000 239 "/>
<path style="fill-rule:nonzero;fill:rgb(55%,51%,53%);fill-opacity:1;stroke-width:1;stroke-linecap:butt;stroke-linejoin:miter;stroke:rgb(0%,0%,0%);stroke-opacity:1;stroke-miterlimit:10;" d="M 714 95 L 688.019531 140 L 739.980469 140 L 714 95 "/>
<path style="fill-rule:nonzero;fill:rgb(55%,51%,53%);fill-opacity:1;stroke-width:1;stroke-linecap:butt;stroke-linejoin:miter;stroke:rgb(0%,0%,0%);stroke-opacity:1;stroke-miterlimit:10;" d="M 212 169 L 186.019531 214 L 237.980469 214 L 212 169 "/>
<path style="fill-rule:nonzero;fill:rgb(55%,51%,53%);fill-opacity:1;stroke-width:1;stroke-linecap:butt;stroke-linejoin:miter;stroke:rgb(0%,0%,0%);stroke-opacity:1;stroke-miterlimit:10;" d="M 97 50 L 71.019531 95 L 122.980469 95 L 97 50 "/>
<path style="fill-rule:nonzero;fill:rgb(55%,51%,53%);fill-opacity:1;stroke-width:1;stroke-linecap:butt;stroke-linejoin:miter;stroke:rgb(0%,0%,0%);stroke-opacity:1;stroke-miterlimit:10;" d="M 769 391 L 743.019531 436 L 794.980469 436 L 769 391 "/>
<path style="fill-rule:nonzero;fill:rgb(55%,51%,53%);fill-opacity:1;stroke-width:1;stroke-linecap:butt;stroke-linejoin:miter;stroke:rgb(0%,0%,0%);stroke-opacity:1;stroke-miterlimit:10;" d="M 725 257 L 699.019531 302 L 750.980469 302 L 725 257 "/>
</g>
</svg>
