<?xml version="1.0" encoding="UTF-8"?>
<svg xmlns="http://www.w3.org/2000/svg" xmlns:xlink="http://www.w3.org/1999/xlink" width="1179pt" height="517pt" viewBox="0 0 1179 517" version="1.1">
<g id="surface411">
<rect x="0" y="0" width="1179" height="517" style="fill:rgb(90%,90%,90%);fill-opacity:1;stroke:none;"/>
<path style="fill-rule:nonzero;fill:rgb(35%,70%,90%);fill-opacity:1;stroke-width:1;stroke-linecap:butt;stroke-linejoin:miter;stroke:rgb(0%,0%,0%);stroke-opacity:1;stroke-miterlimit:10;" d="M 300.214844 177 C 300.214844 188.714844 290.714844 198.214844 279 198.214844 C 267.285156 198.214844 257.785156 188.714844 257.785156 177 C 257.785156 165.285156 267.285156 155.785156 279 155.785156 C 290.714844 155.785156 300.214844 165.285156 300.214844 177 "/>
<path style="fill-rule:nonzero;fill:rgb(35%,70%,90%);fill-opacity:1;stroke-width:1;stroke-linecap:butt;stroke-linejoin:miter;stroke:rgb(0%,0%,0%);stroke-opacity:1;stroke-miterlimit:10;" d="M 227.214844 387 C 227.214844 398.714844 217.714844 408.214844 206 408.214844 C 194.285156 408.214844 184.785156 398.714844 184.785156 387 C 184.785156 375.285156 194.285156 365.785156 206 365.785156 C 217.714844 365.785156 227.214844 375.285156 227.214844 387 "/>
<path style="fill-rule:nonzero;fill:rgb(53%,27%,7%);fill-opacity:1;stroke-width:1;stroke-linecap:butt;stroke-linejoin:miter;stroke:rgb(0%,0%,0%);stroke-opacity:1;stroke-miterlimit:10;" d="M 345.214844 315 C 345.214844 326.714844 335.714844 336.214844 324 336.214844 C 312.285156 336.214844 302.785156 326.714844 302.785156 315 C 302.785156 303.285156 312.285156 293.785156 324 293.785156 C 335.714844 293.785156 345.214844 303.285156 345.214844 315 "/>
<path style="fill-rule:nonzero;fill:rgb(53%,27%,7%);fill-opacity:1;stroke-width:1;stroke-linecap:butt;stroke-linejoin:miter;stroke:rgb(0%,0%,0%);stroke-opacity:1;stroke-miterlimit:10;" d="M 224.214844 272 C 224.214844 283.714844 214.714844 293.214844 203 293.214844 C 191.285156 293.214844 181.785156 283.714844 181.785156 272 C 181.785156 260.285156 191.285156 250.785156 203 250.785156 C 214.714844 250.785156 224.214844 260.285156 224.214844 272 "/>
<path style="fill-rule:nonzero;fill:rgb(53%,27%,7%);fill-opacity:1;stroke-width:1;stroke-linecap:butt;stroke-linejoin:miter;stroke:rgb(0%,0%,0%);stroke-opacity:1;stroke-miterlimit:10;" d="M 980.785156 247.785156 L 980.785156 290.214844 L 1023.214844 290.214844 L 1023.214844 247.785156 L 980.785156 247.785156 "/>
<path style="fill-rule:nonzero;fill:rgb(53%,27%,7%);fill-opacity:1;stroke-width:1;stroke-linecap:butt;stroke-linejoin:miter;stroke:rgb(0%,0%,0%);stroke-opacity:1;stroke-miterlimit:10;" d="M 751.785156 310.785156 L 751.785156 353.214844 L 794.214844 353.214844 L 794.214844 310.785156 L 751.785156 310.785156 "/>
<path style="fill-rule:nonzero;fill:rgb(35%,70%,90%);fill-opacity:1;stroke-width:1;stroke-linecap:butt;stroke-linejoin:miter;stroke:rgb(0%,0%,0%);stroke-opacity:1;stroke-miterlimit:10;" d="M 959.785156 116.785156 L 959.785156 159.214844 L 1002.214844 159.214844 L 1002.214844 116.785156 L 959.785156 116.785156 "/>
<path style="fill-rule:nonzero;fill:rgb(35%,70%,90%);fill-opacity:1;stroke-width:1;stroke-linecap:butt;stroke-linejoin:miter;stroke:rgb(0%,0%,0%);stroke-opacity:1;stroke-miterlimit:10;" d="M 678.785156 234.785156 L 678.785156 277.214844 L 721.214844 277.214844 L 721.214844 234.785156 L 678.785156 234.785156 "/>
<path style="fill-rule:nonzero;fill:rgb(53%,27%,7%);fill-opacity:1;stroke-width:1;stroke-linecap:butt;stroke-linejoin:miter;stroke:rgb(0%,0%,0%);stroke-opacity:1;stroke-miterlimit:10;" d="M 859.785156 334.785156 L 859.785156 377.214844 L 902.214844 377.214844 L 902.214844 334.785156 L 859.785156 334.785156 "/>
</g>
</svg>
