<?xml version="1.0" encoding="UTF-8"?>
<svg xmlns="http://www.w3.org/2000/svg" xmlns:xlink="http://www.w3.org/1999/xlink" width="1179pt" height="517pt" viewBox="0 0 1179 517" version="1.1">
<g id="surface1471">
<rect x="0" y="0" width="1179" height="517" style="fill:rgb(90%,90%,90%);fill-opacity:1;stroke:none;"/>
<path style="fill-rule:nonzero;fill:rgb(100%,51%,0%);fill-opacity:1;stroke-width:1;stroke-linecap:butt;stroke-linejoin:miter;stroke:rgb(0%,0%,0%);stroke-opacity:1;stroke-miterlimit:10;" d="M 452 343 L 481.664062 343 L 493.664062 314.785156 L 505.664062 343 L 535.332031 343 L 511.332031 360.4375 L 519.417969 391.980469 L 493.664062 374.542969 L 467.914062 391.980469 L 480.214844 360.4375 L 452 343 "/>
<path style="fill-rule:nonzero;fill:rgb(100%,51%,0%);fill-opacity:1;stroke-width:1;stroke-linecap:butt;stroke-linejoin:miter;stroke:rgb(0%,0%,0%);stroke-opacity:1;stroke-miterlimit:10;" d="M 616 90 L 645.664062 90 L 657.664062 61.785156 L 669.664062 90 L 699.332031 90 L 675.332031 107.4375 L 683.417969 138.980469 L 657.664062 121.542969 L 631.914062 138.980469 L 644.214844 107.4375 L 616 90 "/>
<path style="fill-rule:nonzero;fill:rgb(100%,51%,0%);fill-opacity:1;stroke-width:1;stroke-linecap:butt;stroke-linejoin:miter;stroke:rgb(0%,0%,0%);stroke-opacity:1;stroke-miterlimit:10;" d="M 245 374 L 274.664062 374 L 286.664062 345.785156 L 298.664062 374 L 328.332031 374 L 304.332031 391.4375 L 312.417969 422.980469 L 286.664062 405.542969 L 260.914062 422.980469 L 273.214844 391.4375 L 245 374 "/>
<path style="fill-rule:nonzero;fill:rgb(100%,51%,0%);fill-opacity:1;stroke-width:1;stroke-linecap:butt;stroke-linejoin:miter;stroke:rgb(0%,0%,0%);stroke-opacity:1;stroke-miterlimit:10;" d="M 334 277 L 363.664062 277 L 375.664062 248.785156 L 387.664062 277 L 417.332031 277 L 393.332031 294.4375 L 401.417969 325.980469 L 375.664062 308.542969 L 349.914062 325.980469 L 362.214844 294.4375 L 334 277 "/>
<path style="fill-rule:nonzero;fill:rgb(100%,51%,0%);fill-opacity:1;stroke-width:1;stroke-linecap:butt;stroke-linejoin:miter;stroke:rgb(0%,0%,0%);stroke-opacity:1;stroke-miterlimit:10;" d="M 114 355 L 143.664062 355 L 155.664062 326.785156 L 167.664062 355 L 197.332031 355 L 173.332031 372.4375 L 181.417969 403.980469 L 155.664062 386.542969 L 129.914062 403.980469 L 142.214844 372.4375 L 114 355 "/>
<path style="fill-rule:nonzero;fill:rgb(35%,70%,90%);fill-opacity:1;stroke-width:1;stroke-linecap:butt;stroke-linejoin:miter;stroke:rgb(0%,0%,0%);stroke-opacity:1;stroke-miterlimit:10;" d="M 996 351 L 970.019531 396 L 1021.980469 396 L 996 351 "/>
<path style="fill-rule:nonzero;fill:rgb(35%,70%,90%);fill-opacity:1;stroke-width:1;stroke-linecap:butt;stroke-linejoin:miter;stroke:rgb(0%,0%,0%);stroke-opacity:1;stroke-miterlimit:10;" d="M 395 50 L 369.019531 95 L 420.980469 95 L 395 50 "/>
<path style="fill-rule:nonzero;fill:rgb(35%,70%,90%);fill-opacity:1;stroke-width:1;stroke-linecap:butt;stroke-linejoin:miter;stroke:rgb(0%,0%,0%);stroke-opacity:1;stroke-miterlimit:10;" d="M 459 180 L 433.019531 225 L 484.980469 225 L 459 180 "/>
</g>
</svg>
