<?xml version="1.0" encoding="UTF-8"?>
<svg xmlns="http://www.w3.org/2000/svg" xmlns:xlink="http://www.w3.org/1999/xlink" width="1179pt" height="517pt" viewBox="0 0 1179 517" version="1.1">
<g id="surface1216">
<rect x="0" y="0" width="1179" height="517" style="fill:rgb(90%,90%,90%);fill-opacity:1;stroke:none;"/>
<path style="fill-rule:nonzero;fill:rgb(35%,70%,90%);fill-opacity:1;stroke-width:1;stroke-linecap:butt;stroke-linejoin:miter;stroke:rgb(0%,0%,0%);stroke-opacity:1;stroke-miterlimit:10;" d="M 780 331.601562 C 780 317.199219 756 317.199219 756 331.601562 C 756 346 780 348.398438 780 360.398438 C 780 348.398438 804 346 804 331.601562 C 804 317.199219 780 317.199219 780 331.601562 "/>
<path style="fill-rule:nonzero;fill:rgb(35%,70%,90%);fill-opacity:1;stroke-width:1;stroke-linecap:butt;stroke-linejoin:miter;stroke:rgb(0%,0%,0%);stroke-opacity:1;stroke-miterlimit:10;" d="M 807 77.601562 C 807 63.199219 783 63.199219 783 77.601562 C 783 92 807 94.398438 807 106.398438 C 807 94.398438 831 92 831 77.601562 C 831 63.199219 807 63.199219 807 77.601562 "/>
<path style="fill-rule:nonzero;fill:rgb(35%,70%,90%);fill-opacity:1;stroke-width:1;stroke-linecap:butt;stroke-linejoin:miter;stroke:rgb(0%,0%,0%);stroke-opacity:1;stroke-miterlimit:10;" d="M 186 99.601562 C 186 85.199219 162 85.199219 162 99.601562 C 162 114 186 116.398438 186 128.398438 C 186 116.398438 210 114 210 99.601562 C 210 85.199219 186 85.199219 186 99.601562 "/>
<path style="fill-rule:nonzero;fill:rgb(35%,70%,90%);fill-opacity:1;stroke-width:1;stroke-linecap:butt;stroke-linejoin:miter;stroke:rgb(0%,0%,0%);stroke-opacity:1;stroke-miterlimit:10;" d="M 234 237.601562 C 234 223.199219 210 223.199219 210 237.601562 C 210 252 234 254.398438 234 266.398438 C 234 254.398438 258 252 258 237.601562 C 258 223.199219 234 223.199219 234 237.601562 "/>
<path style="fill-rule:nonzero;fill:rgb(35%,70%,90%);fill-opacity:1;stroke-width:1;stroke-linecap:butt;stroke-linejoin:miter;stroke:rgb(0%,0%,0%);stroke-opacity:1;stroke-miterlimit:10;" d="M 419 223.601562 C 419 209.199219 395 209.199219 395 223.601562 C 395 238 419 240.398438 419 252.398438 C 419 240.398438 443 238 443 223.601562 C 443 209.199219 419 209.199219 419 223.601562 "/>
<path style="fill-rule:nonzero;fill:rgb(53%,27%,7%);fill-opacity:1;stroke-width:1;stroke-linecap:butt;stroke-linejoin:miter;stroke:rgb(0%,0%,0%);stroke-opacity:1;stroke-miterlimit:10;" d="M 664.214844 236 C 664.214844 247.714844 654.714844 257.214844 643 257.214844 C 631.285156 257.214844 621.785156 247.714844 621.785156 236 C 621.785156 224.285156 631.285156 214.785156 643 214.785156 C 654.714844 214.785156 664.214844 224.285156 664.214844 236 "/>
<path style="fill-rule:nonzero;fill:rgb(53%,27%,7%);fill-opacity:1;stroke-width:1;stroke-linecap:butt;stroke-linejoin:miter;stroke:rgb(0%,0%,0%);stroke-opacity:1;stroke-miterlimit:10;" d="M 967.214844 87 C 967.214844 98.714844 957.714844 108.214844 946 108.214844 C 934.285156 108.214844 924.785156 98.714844 924.785156 87 C 924.785156 75.285156 934.285156 65.785156 946 65.785156 C 957.714844 65.785156 967.214844 75.285156 967.214844 87 "/>
<path style="fill-rule:nonzero;fill:rgb(53%,27%,7%);fill-opacity:1;stroke-width:1;stroke-linecap:butt;stroke-linejoin:miter;stroke:rgb(0%,0%,0%);stroke-opacity:1;stroke-miterlimit:10;" d="M 953.214844 247 C 953.214844 258.714844 943.714844 268.214844 932 268.214844 C 920.285156 268.214844 910.785156 258.714844 910.785156 247 C 910.785156 235.285156 920.285156 225.785156 932 225.785156 C 943.714844 225.785156 953.214844 235.285156 953.214844 247 "/>
</g>
</svg>
