<?xml version="1.0" encoding="UTF-8"?>
<svg xmlns="http://www.w3.org/2000/svg" xmlns:xlink="http://www.w3.org/1999/xlink" width="1179pt" height="517pt" viewBox="0 0 1179 517" version="1.1">
<g id="surface991">
<rect x="0" y="0" width="1179" height="517" style="fill:rgb(90%,90%,90%);fill-opacity:1;stroke:none;"/>
<path style="fill-rule:nonzero;fill:rgb(53%,27%,7%);fill-opacity:1;stroke-width:1;stroke-linecap:butt;stroke-linejoin:miter;stroke:rgb(0%,0%,0%);stroke-opacity:1;stroke-miterlimit:10;" d="M 375.214844 244 C 375.214844 255.714844 365.714844 265.214844 354 265.214844 C 342.285156 265.214844 332.785156 255.714844 332.785156 244 C 332.785156 232.285156 342.285156 222.785156 354 222.785156 C 365.714844 222.785156 375.214844 232.285156 375.214844 244 "/>
<path style="fill-rule:nonzero;fill:rgb(53%,27%,7%);fill-opacity:1;stroke-width:1;stroke-linecap:butt;stroke-linejoin:miter;stroke:rgb(0%,0%,0%);stroke-opacity:1;stroke-miterlimit:10;" d="M 924.214844 276 C 924.214844 287.714844 914.714844 297.214844 903 297.214844 C 891.285156 297.214844 881.785156 287.714844 881.785156 276 C 881.785156 264.285156 891.285156 254.785156 903 254.785156 C 914.714844 254.785156 924.214844 264.285156 924.214844 276 "/>
<path style="fill-rule:nonzero;fill:rgb(53%,27%,7%);fill-opacity:1;stroke-width:1;stroke-linecap:butt;stroke-linejoin:miter;stroke:rgb(0%,0%,0%);stroke-opacity:1;stroke-miterlimit:10;" d="M 907.214844 126 C 907.214844 137.714844 897.714844 147.214844 886 147.214844 C 874.285156 147.214844 864.785156 137.714844 864.785156 126 C 864.785156 114.285156 874.285156 104.785156 886 104.785156 C 897.714844 104.785156 907.214844 114.285156 907.214844 126 "/>
<path style="fill-rule:nonzero;fill:rgb(53%,27%,7%);fill-opacity:1;stroke-width:1;stroke-linecap:butt;stroke-linejoin:miter;stroke:rgb(0%,0%,0%);stroke-opacity:1;stroke-miterlimit:10;" d="M 797.214844 366 C 797.214844 377.714844 787.714844 387.214844 776 387.214844 C 764.285156 387.214844 754.785156 377.714844 754.785156 366 C 754.785156 354.285156 764.285156 344.785156 776 344.785156 C 787.714844 344.785156 797.214844 354.285156 797.214844 366 "/>
<path style="fill-rule:nonzero;fill:rgb(53%,27%,7%);fill-opacity:1;stroke-width:1;stroke-linecap:butt;stroke-linejoin:miter;stroke:rgb(0%,0%,0%);stroke-opacity:1;stroke-miterlimit:10;" d="M 1054.214844 259 C 1054.214844 270.714844 1044.714844 280.214844 1033 280.214844 C 1021.285156 280.214844 1011.785156 270.714844 1011.785156 259 C 1011.785156 247.285156 1021.285156 237.785156 1033 237.785156 C 1044.714844 237.785156 1054.214844 247.285156 1054.214844 259 "/>
<path style="fill-rule:nonzero;fill:rgb(100%,51%,0%);fill-opacity:1;stroke-width:1;stroke-linecap:butt;stroke-linejoin:miter;stroke:rgb(0%,0%,0%);stroke-opacity:1;stroke-miterlimit:10;" d="M 671 96 L 700.664062 96 L 712.664062 67.785156 L 724.664062 96 L 754.332031 96 L 730.332031 113.4375 L 738.417969 144.980469 L 712.664062 127.542969 L 686.914062 144.980469 L 699.214844 113.4375 L 671 96 "/>
<path style="fill-rule:nonzero;fill:rgb(100%,51%,0%);fill-opacity:1;stroke-width:1;stroke-linecap:butt;stroke-linejoin:miter;stroke:rgb(0%,0%,0%);stroke-opacity:1;stroke-miterlimit:10;" d="M 702 270 L 731.664062 270 L 743.664062 241.785156 L 755.664062 270 L 785.332031 270 L 761.332031 287.4375 L 769.417969 318.980469 L 743.664062 301.542969 L 717.914062 318.980469 L 730.214844 287.4375 L 702 270 "/>
<path style="fill-rule:nonzero;fill:rgb(100%,51%,0%);fill-opacity:1;stroke-width:1;stroke-linecap:butt;stroke-linejoin:miter;stroke:rgb(0%,0%,0%);stroke-opacity:1;stroke-miterlimit:10;" d="M 266 406 L 295.664062 406 L 307.664062 377.785156 L 319.664062 406 L 349.332031 406 L 325.332031 423.4375 L 333.417969 454.980469 L 307.664062 437.542969 L 281.914062 454.980469 L 294.214844 423.4375 L 266 406 "/>
<path style="fill-rule:nonzero;fill:rgb(100%,51%,0%);fill-opacity:1;stroke-width:1;stroke-linecap:butt;stroke-linejoin:miter;stroke:rgb(0%,0%,0%);stroke-opacity:1;stroke-miterlimit:10;" d="M 566 416 L 595.664062 416 L 607.664062 387.785156 L 619.664062 416 L 649.332031 416 L 625.332031 433.4375 L 633.417969 464.980469 L 607.664062 447.542969 L 581.914062 464.980469 L 594.214844 433.4375 L 566 416 "/>
<path style="fill-rule:nonzero;fill:rgb(100%,51%,0%);fill-opacity:1;stroke-width:1;stroke-linecap:butt;stroke-linejoin:miter;stroke:rgb(0%,0%,0%);stroke-opacity:1;stroke-miterlimit:10;" d="M 415 387 L 444.664062 387 L 456.664062 358.785156 L 468.664062 387 L 498.332031 387 L 474.332031 404.4375 L 482.417969 435.980469 L 456.664062 418.542969 L 430.914062 435.980469 L 443.214844 404.4375 L 415 387 "/>
</g>
</svg>
