<?xml version="1.0" encoding="UTF-8"?>
<svg xmlns="http://www.w3.org/2000/svg" xmlns:xlink="http://www.w3.org/1999/xlink" width="1179pt" height="517pt" viewBox="0 0 1179 517" version="1.1">
<g id="surface1271">
<rect x="0" y="0" width="1179" height="517" style="fill:rgb(90%,90%,90%);fill-opacity:1;stroke:none;"/>
<path style="fill-rule:nonzero;fill:rgb(35%,70%,90%);fill-opacity:1;stroke-width:1;stroke-linecap:butt;stroke-linejoin:miter;stroke:rgb(0%,0%,0%);stroke-opacity:1;stroke-miterlimit:10;" d="M 150.214844 91 C 150.214844 102.714844 140.714844 112.214844 129 112.214844 C 117.285156 112.214844 107.785156 102.714844 107.785156 91 C 107.785156 79.285156 117.285156 69.785156 129 69.785156 C 140.714844 69.785156 150.214844 79.285156 150.214844 91 "/>
<path style="fill-rule:nonzero;fill:rgb(35%,70%,90%);fill-opacity:1;stroke-width:1;stroke-linecap:butt;stroke-linejoin:miter;stroke:rgb(0%,0%,0%);stroke-opacity:1;stroke-miterlimit:10;" d="M 917.214844 384 C 917.214844 395.714844 907.714844 405.214844 896 405.214844 C 884.285156 405.214844 874.785156 395.714844 874.785156 384 C 874.785156 372.285156 884.285156 362.785156 896 362.785156 C 907.714844 362.785156 917.214844 372.285156 917.214844 384 "/>
<path style="fill-rule:nonzero;fill:rgb(35%,70%,90%);fill-opacity:1;stroke-width:1;stroke-linecap:butt;stroke-linejoin:miter;stroke:rgb(0%,0%,0%);stroke-opacity:1;stroke-miterlimit:10;" d="M 939.214844 171 C 939.214844 182.714844 929.714844 192.214844 918 192.214844 C 906.285156 192.214844 896.785156 182.714844 896.785156 171 C 896.785156 159.285156 906.285156 149.785156 918 149.785156 C 929.714844 149.785156 939.214844 159.285156 939.214844 171 "/>
<path style="fill-rule:nonzero;fill:rgb(35%,70%,90%);fill-opacity:1;stroke-width:1;stroke-linecap:butt;stroke-linejoin:miter;stroke:rgb(0%,0%,0%);stroke-opacity:1;stroke-miterlimit:10;" d="M 525.214844 191 C 525.214844 202.714844 515.714844 212.214844 504 212.214844 C 492.285156 212.214844 482.785156 202.714844 482.785156 191 C 482.785156 179.285156 492.285156 169.785156 504 169.785156 C 515.714844 169.785156 525.214844 179.285156 525.214844 191 "/>
<path style="fill-rule:nonzero;fill:rgb(55%,51%,53%);fill-opacity:1;stroke-width:1;stroke-linecap:butt;stroke-linejoin:miter;stroke:rgb(0%,0%,0%);stroke-opacity:1;stroke-miterlimit:10;" d="M 274 127 L 303.664062 127 L 315.664062 98.785156 L 327.664062 127 L 357.332031 127 L 333.332031 144.4375 L 341.417969 175.980469 L 315.664062 158.542969 L 289.914062 175.980469 L 302.214844 144.4375 L 274 127 "/>
<path style="fill-rule:nonzero;fill:rgb(55%,51%,53%);fill-opacity:1;stroke-width:1;stroke-linecap:butt;stroke-linejoin:miter;stroke:rgb(0%,0%,0%);stroke-opacity:1;stroke-miterlimit:10;" d="M 1025 286 L 1054.664062 286 L 1066.664062 257.785156 L 1078.664062 286 L 1108.332031 286 L 1084.332031 303.4375 L 1092.417969 334.980469 L 1066.664062 317.542969 L 1040.914062 334.980469 L 1053.214844 303.4375 L 1025 286 "/>
<path style="fill-rule:nonzero;fill:rgb(55%,51%,53%);fill-opacity:1;stroke-width:1;stroke-linecap:butt;stroke-linejoin:miter;stroke:rgb(0%,0%,0%);stroke-opacity:1;stroke-miterlimit:10;" d="M 396 335 L 425.664062 335 L 437.664062 306.785156 L 449.664062 335 L 479.332031 335 L 455.332031 352.4375 L 463.417969 383.980469 L 437.664062 366.542969 L 411.914062 383.980469 L 424.214844 352.4375 L 396 335 "/>
<path style="fill-rule:nonzero;fill:rgb(55%,51%,53%);fill-opacity:1;stroke-width:1;stroke-linecap:butt;stroke-linejoin:miter;stroke:rgb(0%,0%,0%);stroke-opacity:1;stroke-miterlimit:10;" d="M 525 336 L 554.664062 336 L 566.664062 307.785156 L 578.664062 336 L 608.332031 336 L 584.332031 353.4375 L 592.417969 384.980469 L 566.664062 367.542969 L 540.914062 384.980469 L 553.214844 353.4375 L 525 336 "/>
</g>
</svg>
