<?xml version="1.0" encoding="UTF-8"?>
<svg xmlns="http://www.w3.org/2000/svg" xmlns:xlink="http://www.w3.org/1999/xlink" width="1179pt" height="517pt" viewBox="0 0 1179 517" version="1.1">
<g id="surface1206">
<rect x="0" y="0" width="1179" height="517" style="fill:rgb(90%,90%,90%);fill-opacity:1;stroke:none;"/>
<path style="fill-rule:nonzero;fill:rgb(55%,51%,53%);fill-opacity:1;stroke-width:1;stroke-linecap:butt;stroke-linejoin:miter;stroke:rgb(0%,0%,0%);stroke-opacity:1;stroke-miterlimit:10;" d="M 628.214844 127 C 628.214844 138.714844 618.714844 148.214844 607 148.214844 C 595.285156 148.214844 585.785156 138.714844 585.785156 127 C 585.785156 115.285156 595.285156 105.785156 607 105.785156 C 618.714844 105.785156 628.214844 115.285156 628.214844 127 "/>
<path style="fill-rule:nonzero;fill:rgb(55%,51%,53%);fill-opacity:1;stroke-width:1;stroke-linecap:butt;stroke-linejoin:miter;stroke:rgb(0%,0%,0%);stroke-opacity:1;stroke-miterlimit:10;" d="M 295.214844 85 C 295.214844 96.714844 285.714844 106.214844 274 106.214844 C 262.285156 106.214844 252.785156 96.714844 252.785156 85 C 252.785156 73.285156 262.285156 63.785156 274 63.785156 C 285.714844 63.785156 295.214844 73.285156 295.214844 85 "/>
<path style="fill-rule:nonzero;fill:rgb(55%,51%,53%);fill-opacity:1;stroke-width:1;stroke-linecap:butt;stroke-linejoin:miter;stroke:rgb(0%,0%,0%);stroke-opacity:1;stroke-miterlimit:10;" d="M 171.214844 219 C 171.214844 230.714844 161.714844 240.214844 150 240.214844 C 138.285156 240.214844 128.785156 230.714844 128.785156 219 C 128.785156 207.285156 138.285156 197.785156 150 197.785156 C 161.714844 197.785156 171.214844 207.285156 171.214844 219 "/>
<path style="fill-rule:nonzero;fill:rgb(100%,51%,0%);fill-opacity:1;stroke-width:1;stroke-linecap:butt;stroke-linejoin:miter;stroke:rgb(0%,0%,0%);stroke-opacity:1;stroke-miterlimit:10;" d="M 422 371.601562 C 422 357.199219 398 357.199219 398 371.601562 C 398 386 422 388.398438 422 400.398438 C 422 388.398438 446 386 446 371.601562 C 446 357.199219 422 357.199219 422 371.601562 "/>
<path style="fill-rule:nonzero;fill:rgb(100%,51%,0%);fill-opacity:1;stroke-width:1;stroke-linecap:butt;stroke-linejoin:miter;stroke:rgb(0%,0%,0%);stroke-opacity:1;stroke-miterlimit:10;" d="M 712 247.601562 C 712 233.199219 688 233.199219 688 247.601562 C 688 262 712 264.398438 712 276.398438 C 712 264.398438 736 262 736 247.601562 C 736 233.199219 712 233.199219 712 247.601562 "/>
<path style="fill-rule:nonzero;fill:rgb(100%,51%,0%);fill-opacity:1;stroke-width:1;stroke-linecap:butt;stroke-linejoin:miter;stroke:rgb(0%,0%,0%);stroke-opacity:1;stroke-miterlimit:10;" d="M 871 230.601562 C 871 216.199219 847 216.199219 847 230.601562 C 847 245 871 247.398438 871 259.398438 C 871 247.398438 895 245 895 230.601562 C 895 216.199219 871 216.199219 871 230.601562 "/>
<path style="fill-rule:nonzero;fill:rgb(100%,51%,0%);fill-opacity:1;stroke-width:1;stroke-linecap:butt;stroke-linejoin:miter;stroke:rgb(0%,0%,0%);stroke-opacity:1;stroke-miterlimit:10;" d="M 1008 377.601562 C 1008 363.199219 984 363.199219 984 377.601562 C 984 392 1008 394.398438 1008 406.398438 C 1008 394.398438 1032 392 1032 377.601562 C 1032 363.199219 1008 363.199219 1008 377.601562 "/>
</g>
</svg>
