<?xml version="1.0" encoding="UTF-8"?>
<svg xmlns="http://www.w3.org/2000/svg" xmlns:xlink="http://www.w3.org/1999/xlink" width="1179pt" height="517pt" viewBox="0 0 1179 517" version="1.1">
<g id="surface1266">
<rect x="0" y="0" width="1179" height="517" style="fill:rgb(90%,90%,90%);fill-opacity:1;stroke:none;"/>
<path style="fill-rule:nonzero;fill:rgb(55%,51%,53%);fill-opacity:1;stroke-width:1;stroke-linecap:butt;stroke-linejoin:miter;stroke:rgb(0%,0%,0%);stroke-opacity:1;stroke-miterlimit:10;" d="M 891 58 L 865.019531 103 L 916.980469 103 L 891 58 "/>
<path style="fill-rule:nonzero;fill:rgb(55%,51%,53%);fill-opacity:1;stroke-width:1;stroke-linecap:butt;stroke-linejoin:miter;stroke:rgb(0%,0%,0%);stroke-opacity:1;stroke-miterlimit:10;" d="M 812 255 L 786.019531 300 L 837.980469 300 L 812 255 "/>
<path style="fill-rule:nonzero;fill:rgb(55%,51%,53%);fill-opacity:1;stroke-width:1;stroke-linecap:butt;stroke-linejoin:miter;stroke:rgb(0%,0%,0%);stroke-opacity:1;stroke-miterlimit:10;" d="M 278 363 L 252.019531 408 L 303.980469 408 L 278 363 "/>
<path style="fill-rule:nonzero;fill:rgb(55%,51%,53%);fill-opacity:1;stroke-width:1;stroke-linecap:butt;stroke-linejoin:miter;stroke:rgb(0%,0%,0%);stroke-opacity:1;stroke-miterlimit:10;" d="M 134 179 L 108.019531 224 L 159.980469 224 L 134 179 "/>
<path style="fill-rule:nonzero;fill:rgb(55%,51%,53%);fill-opacity:1;stroke-width:1;stroke-linecap:butt;stroke-linejoin:miter;stroke:rgb(0%,0%,0%);stroke-opacity:1;stroke-miterlimit:10;" d="M 660 345 L 634.019531 390 L 685.980469 390 L 660 345 "/>
<path style="fill-rule:nonzero;fill:rgb(35%,70%,90%);fill-opacity:1;stroke-width:1;stroke-linecap:butt;stroke-linejoin:miter;stroke:rgb(0%,0%,0%);stroke-opacity:1;stroke-miterlimit:10;" d="M 519 367 L 548.664062 367 L 560.664062 338.785156 L 572.664062 367 L 602.332031 367 L 578.332031 384.4375 L 586.417969 415.980469 L 560.664062 398.542969 L 534.914062 415.980469 L 547.214844 384.4375 L 519 367 "/>
<path style="fill-rule:nonzero;fill:rgb(35%,70%,90%);fill-opacity:1;stroke-width:1;stroke-linecap:butt;stroke-linejoin:miter;stroke:rgb(0%,0%,0%);stroke-opacity:1;stroke-miterlimit:10;" d="M 607 195 L 636.664062 195 L 648.664062 166.785156 L 660.664062 195 L 690.332031 195 L 666.332031 212.4375 L 674.417969 243.980469 L 648.664062 226.542969 L 622.914062 243.980469 L 635.214844 212.4375 L 607 195 "/>
<path style="fill-rule:nonzero;fill:rgb(35%,70%,90%);fill-opacity:1;stroke-width:1;stroke-linecap:butt;stroke-linejoin:miter;stroke:rgb(0%,0%,0%);stroke-opacity:1;stroke-miterlimit:10;" d="M 366 163 L 395.664062 163 L 407.664062 134.785156 L 419.664062 163 L 449.332031 163 L 425.332031 180.4375 L 433.417969 211.980469 L 407.664062 194.542969 L 381.914062 211.980469 L 394.214844 180.4375 L 366 163 "/>
<path style="fill-rule:nonzero;fill:rgb(35%,70%,90%);fill-opacity:1;stroke-width:1;stroke-linecap:butt;stroke-linejoin:miter;stroke:rgb(0%,0%,0%);stroke-opacity:1;stroke-miterlimit:10;" d="M 977 378 L 1006.664062 378 L 1018.664062 349.785156 L 1030.664062 378 L 1060.332031 378 L 1036.332031 395.4375 L 1044.417969 426.980469 L 1018.664062 409.542969 L 992.914062 426.980469 L 1005.214844 395.4375 L 977 378 "/>
</g>
</svg>
