<?xml version="1.0" encoding="UTF-8"?>
<svg xmlns="http://www.w3.org/2000/svg" xmlns:xlink="http://www.w3.org/1999/xlink" width="1179pt" height="517pt" viewBox="0 0 1179 517" version="1.1">
<g id="surface821">
<rect x="0" y="0" width="1179" height="517" style="fill:rgb(90%,90%,90%);fill-opacity:1;stroke:none;"/>
<path style="fill-rule:nonzero;fill:rgb(55%,51%,53%);fill-opacity:1;stroke-width:1;stroke-linecap:butt;stroke-linejoin:miter;stroke:rgb(0%,0%,0%);stroke-opacity:1;stroke-miterlimit:10;" d="M 139.214844 303 C 139.214844 314.714844 129.714844 324.214844 118 324.214844 C 106.285156 324.214844 96.785156 314.714844 96.785156 303 C 96.785156 291.285156 106.285156 281.785156 118 281.785156 C 129.714844 281.785156 139.214844 291.285156 139.214844 303 "/>
<path style="fill-rule:nonzero;fill:rgb(55%,51%,53%);fill-opacity:1;stroke-width:1;stroke-linecap:butt;stroke-linejoin:miter;stroke:rgb(0%,0%,0%);stroke-opacity:1;stroke-miterlimit:10;" d="M 239.214844 381 C 239.214844 392.714844 229.714844 402.214844 218 402.214844 C 206.285156 402.214844 196.785156 392.714844 196.785156 381 C 196.785156 369.285156 206.285156 359.785156 218 359.785156 C 229.714844 359.785156 239.214844 369.285156 239.214844 381 "/>
<path style="fill-rule:nonzero;fill:rgb(35%,70%,90%);fill-opacity:1;stroke-width:1;stroke-linecap:butt;stroke-linejoin:miter;stroke:rgb(0%,0%,0%);stroke-opacity:1;stroke-miterlimit:10;" d="M 364 81 L 393.664062 81 L 405.664062 52.785156 L 417.664062 81 L 447.332031 81 L 423.332031 98.4375 L 431.417969 129.980469 L 405.664062 112.542969 L 379.914062 129.980469 L 392.214844 98.4375 L 364 81 "/>
<path style="fill-rule:nonzero;fill:rgb(55%,51%,53%);fill-opacity:1;stroke-width:1;stroke-linecap:butt;stroke-linejoin:miter;stroke:rgb(0%,0%,0%);stroke-opacity:1;stroke-miterlimit:10;" d="M 440.214844 244 C 440.214844 255.714844 430.714844 265.214844 419 265.214844 C 407.285156 265.214844 397.785156 255.714844 397.785156 244 C 397.785156 232.285156 407.285156 222.785156 419 222.785156 C 430.714844 222.785156 440.214844 232.285156 440.214844 244 "/>
<path style="fill-rule:nonzero;fill:rgb(35%,70%,90%);fill-opacity:1;stroke-width:1;stroke-linecap:butt;stroke-linejoin:miter;stroke:rgb(0%,0%,0%);stroke-opacity:1;stroke-miterlimit:10;" d="M 174 178 L 203.664062 178 L 215.664062 149.785156 L 227.664062 178 L 257.332031 178 L 233.332031 195.4375 L 241.417969 226.980469 L 215.664062 209.542969 L 189.914062 226.980469 L 202.214844 195.4375 L 174 178 "/>
<path style="fill-rule:nonzero;fill:rgb(55%,51%,53%);fill-opacity:1;stroke-width:1;stroke-linecap:butt;stroke-linejoin:miter;stroke:rgb(0%,0%,0%);stroke-opacity:1;stroke-miterlimit:10;" d="M 148.214844 429 C 148.214844 440.714844 138.714844 450.214844 127 450.214844 C 115.285156 450.214844 105.785156 440.714844 105.785156 429 C 105.785156 417.285156 115.285156 407.785156 127 407.785156 C 138.714844 407.785156 148.214844 417.285156 148.214844 429 "/>
<path style="fill-rule:nonzero;fill:rgb(35%,70%,90%);fill-opacity:1;stroke-width:1;stroke-linecap:butt;stroke-linejoin:miter;stroke:rgb(0%,0%,0%);stroke-opacity:1;stroke-miterlimit:10;" d="M 750 402 L 779.664062 402 L 791.664062 373.785156 L 803.664062 402 L 833.332031 402 L 809.332031 419.4375 L 817.417969 450.980469 L 791.664062 433.542969 L 765.914062 450.980469 L 778.214844 419.4375 L 750 402 "/>
<path style="fill-rule:nonzero;fill:rgb(55%,51%,53%);fill-opacity:1;stroke-width:1;stroke-linecap:butt;stroke-linejoin:miter;stroke:rgb(0%,0%,0%);stroke-opacity:1;stroke-miterlimit:10;" d="M 818.214844 292 C 818.214844 303.714844 808.714844 313.214844 797 313.214844 C 785.285156 313.214844 775.785156 303.714844 775.785156 292 C 775.785156 280.285156 785.285156 270.785156 797 270.785156 C 808.714844 270.785156 818.214844 280.285156 818.214844 292 "/>
<path style="fill-rule:nonzero;fill:rgb(55%,51%,53%);fill-opacity:1;stroke-width:1;stroke-linecap:butt;stroke-linejoin:miter;stroke:rgb(0%,0%,0%);stroke-opacity:1;stroke-miterlimit:10;" d="M 912.214844 224 C 912.214844 235.714844 902.714844 245.214844 891 245.214844 C 879.285156 245.214844 869.785156 235.714844 869.785156 224 C 869.785156 212.285156 879.285156 202.785156 891 202.785156 C 902.714844 202.785156 912.214844 212.285156 912.214844 224 "/>
<path style="fill-rule:nonzero;fill:rgb(35%,70%,90%);fill-opacity:1;stroke-width:1;stroke-linecap:butt;stroke-linejoin:miter;stroke:rgb(0%,0%,0%);stroke-opacity:1;stroke-miterlimit:10;" d="M 995 418 L 1024.664062 418 L 1036.664062 389.785156 L 1048.664062 418 L 1078.332031 418 L 1054.332031 435.4375 L 1062.417969 466.980469 L 1036.664062 449.542969 L 1010.914062 466.980469 L 1023.214844 435.4375 L 995 418 "/>
<path style="fill-rule:nonzero;fill:rgb(55%,51%,53%);fill-opacity:1;stroke-width:1;stroke-linecap:butt;stroke-linejoin:miter;stroke:rgb(0%,0%,0%);stroke-opacity:1;stroke-miterlimit:10;" d="M 1002.214844 242 C 1002.214844 253.714844 992.714844 263.214844 981 263.214844 C 969.285156 263.214844 959.785156 253.714844 959.785156 242 C 959.785156 230.285156 969.285156 220.785156 981 220.785156 C 992.714844 220.785156 1002.214844 230.285156 1002.214844 242 "/>
<path style="fill-rule:nonzero;fill:rgb(35%,70%,90%);fill-opacity:1;stroke-width:1;stroke-linecap:butt;stroke-linejoin:miter;stroke:rgb(0%,0%,0%);stroke-opacity:1;stroke-miterlimit:10;" d="M 1032 114 L 1061.664062 114 L 1073.664062 85.785156 L 1085.664062 114 L 1115.332031 114 L 1091.332031 131.4375 L 1099.417969 162.980469 L 1073.664062 145.542969 L 1047.914062 162.980469 L 1060.214844 131.4375 L 1032 114 "/>
<path style="fill-rule:nonzero;fill:rgb(35%,70%,90%);fill-opacity:1;stroke-width:1;stroke-linecap:butt;stroke-linejoin:miter;stroke:rgb(0%,0%,0%);stroke-opacity:1;stroke-miterlimit:10;" d="M 843 129 L 872.664062 129 L 884.664062 100.785156 L 896.664062 129 L 926.332031 129 L 902.332031 146.4375 L 910.417969 177.980469 L 884.664062 160.542969 L 858.914062 177.980469 L 871.214844 146.4375 L 843 129 "/>
<path style="fill-rule:nonzero;fill:rgb(35%,70%,90%);fill-opacity:1;stroke-width:1;stroke-linecap:butt;stroke-linejoin:miter;stroke:rgb(0%,0%,0%);stroke-opacity:1;stroke-miterlimit:10;" d="M 742 110 L 771.664062 110 L 783.664062 81.785156 L 795.664062 110 L 825.332031 110 L 801.332031 127.4375 L 809.417969 158.980469 L 783.664062 141.542969 L 757.914062 158.980469 L 770.214844 127.4375 L 742 110 "/>
</g>
</svg>
