<?xml version="1.0" encoding="UTF-8"?>
<svg xmlns="http://www.w3.org/2000/svg" xmlns:xlink="http://www.w3.org/1999/xlink" width="1179pt" height="517pt" viewBox="0 0 1179 517" version="1.1">
<g id="surface651">
<rect x="0" y="0" width="1179" height="517" style="fill:rgb(90%,90%,90%);fill-opacity:1;stroke:none;"/>
<path style="fill-rule:nonzero;fill:rgb(100%,51%,0%);fill-opacity:1;stroke-width:1;stroke-linecap:butt;stroke-linejoin:miter;stroke:rgb(0%,0%,0%);stroke-opacity:1;stroke-miterlimit:10;" d="M 313.214844 398 C 313.214844 409.714844 303.714844 419.214844 292 419.214844 C 280.285156 419.214844 270.785156 409.714844 270.785156 398 C 270.785156 386.285156 280.285156 376.785156 292 376.785156 C 303.714844 376.785156 313.214844 386.285156 313.214844 398 "/>
<path style="fill-rule:nonzero;fill:rgb(100%,51%,0%);fill-opacity:1;stroke-width:1;stroke-linecap:butt;stroke-linejoin:miter;stroke:rgb(0%,0%,0%);stroke-opacity:1;stroke-miterlimit:10;" d="M 243.785156 268.785156 L 243.785156 311.214844 L 286.214844 311.214844 L 286.214844 268.785156 L 243.785156 268.785156 "/>
<path style="fill-rule:nonzero;fill:rgb(100%,51%,0%);fill-opacity:1;stroke-width:1;stroke-linecap:butt;stroke-linejoin:miter;stroke:rgb(0%,0%,0%);stroke-opacity:1;stroke-miterlimit:10;" d="M 136.214844 316 C 136.214844 327.714844 126.714844 337.214844 115 337.214844 C 103.285156 337.214844 93.785156 327.714844 93.785156 316 C 93.785156 304.285156 103.285156 294.785156 115 294.785156 C 126.714844 294.785156 136.214844 304.285156 136.214844 316 "/>
<path style="fill-rule:nonzero;fill:rgb(100%,51%,0%);fill-opacity:1;stroke-width:1;stroke-linecap:butt;stroke-linejoin:miter;stroke:rgb(0%,0%,0%);stroke-opacity:1;stroke-miterlimit:10;" d="M 318.785156 121.785156 L 318.785156 164.214844 L 361.214844 164.214844 L 361.214844 121.785156 L 318.785156 121.785156 "/>
<path style="fill-rule:nonzero;fill:rgb(53%,27%,7%);fill-opacity:1;stroke-width:1;stroke-linecap:butt;stroke-linejoin:miter;stroke:rgb(0%,0%,0%);stroke-opacity:1;stroke-miterlimit:10;" d="M 1007.785156 140.785156 L 1007.785156 183.214844 L 1050.214844 183.214844 L 1050.214844 140.785156 L 1007.785156 140.785156 "/>
<path style="fill-rule:nonzero;fill:rgb(53%,27%,7%);fill-opacity:1;stroke-width:1;stroke-linecap:butt;stroke-linejoin:miter;stroke:rgb(0%,0%,0%);stroke-opacity:1;stroke-miterlimit:10;" d="M 946.214844 365 C 946.214844 376.714844 936.714844 386.214844 925 386.214844 C 913.285156 386.214844 903.785156 376.714844 903.785156 365 C 903.785156 353.285156 913.285156 343.785156 925 343.785156 C 936.714844 343.785156 946.214844 353.285156 946.214844 365 "/>
<path style="fill-rule:nonzero;fill:rgb(53%,27%,7%);fill-opacity:1;stroke-width:1;stroke-linecap:butt;stroke-linejoin:miter;stroke:rgb(0%,0%,0%);stroke-opacity:1;stroke-miterlimit:10;" d="M 921.785156 242.785156 L 921.785156 285.214844 L 964.214844 285.214844 L 964.214844 242.785156 L 921.785156 242.785156 "/>
</g>
</svg>
