<?xml version="1.0" encoding="UTF-8"?>
<svg xmlns="http://www.w3.org/2000/svg" xmlns:xlink="http://www.w3.org/1999/xlink" width="1179pt" height="517pt" viewBox="0 0 1179 517" version="1.1">
<g id="surface491">
<rect x="0" y="0" width="1179" height="517" style="fill:rgb(90%,90%,90%);fill-opacity:1;stroke:none;"/>
<path style="fill-rule:nonzero;fill:rgb(100%,51%,0%);fill-opacity:1;stroke-width:1;stroke-linecap:butt;stroke-linejoin:miter;stroke:rgb(0%,0%,0%);stroke-opacity:1;stroke-miterlimit:10;" d="M 180 142 L 209.664062 142 L 221.664062 113.785156 L 233.664062 142 L 263.332031 142 L 239.332031 159.4375 L 247.417969 190.980469 L 221.664062 173.542969 L 195.914062 190.980469 L 208.214844 159.4375 L 180 142 "/>
<path style="fill-rule:nonzero;fill:rgb(100%,51%,0%);fill-opacity:1;stroke-width:1;stroke-linecap:butt;stroke-linejoin:miter;stroke:rgb(0%,0%,0%);stroke-opacity:1;stroke-miterlimit:10;" d="M 405.785156 213.785156 L 405.785156 256.214844 L 448.214844 256.214844 L 448.214844 213.785156 L 405.785156 213.785156 "/>
<path style="fill-rule:nonzero;fill:rgb(100%,51%,0%);fill-opacity:1;stroke-width:1;stroke-linecap:butt;stroke-linejoin:miter;stroke:rgb(0%,0%,0%);stroke-opacity:1;stroke-miterlimit:10;" d="M 346 178 L 375.664062 178 L 387.664062 149.785156 L 399.664062 178 L 429.332031 178 L 405.332031 195.4375 L 413.417969 226.980469 L 387.664062 209.542969 L 361.914062 226.980469 L 374.214844 195.4375 L 346 178 "/>
<path style="fill-rule:nonzero;fill:rgb(100%,51%,0%);fill-opacity:1;stroke-width:1;stroke-linecap:butt;stroke-linejoin:miter;stroke:rgb(0%,0%,0%);stroke-opacity:1;stroke-miterlimit:10;" d="M 265.785156 302.785156 L 265.785156 345.214844 L 308.214844 345.214844 L 308.214844 302.785156 L 265.785156 302.785156 "/>
<path style="fill-rule:nonzero;fill:rgb(100%,51%,0%);fill-opacity:1;stroke-width:1;stroke-linecap:butt;stroke-linejoin:miter;stroke:rgb(0%,0%,0%);stroke-opacity:1;stroke-miterlimit:10;" d="M 314 90 L 343.664062 90 L 355.664062 61.785156 L 367.664062 90 L 397.332031 90 L 373.332031 107.4375 L 381.417969 138.980469 L 355.664062 121.542969 L 329.914062 138.980469 L 342.214844 107.4375 L 314 90 "/>
<path style="fill-rule:nonzero;fill:rgb(55%,51%,53%);fill-opacity:1;stroke-width:1;stroke-linecap:butt;stroke-linejoin:miter;stroke:rgb(0%,0%,0%);stroke-opacity:1;stroke-miterlimit:10;" d="M 758.785156 234.785156 L 758.785156 277.214844 L 801.214844 277.214844 L 801.214844 234.785156 L 758.785156 234.785156 "/>
<path style="fill-rule:nonzero;fill:rgb(55%,51%,53%);fill-opacity:1;stroke-width:1;stroke-linecap:butt;stroke-linejoin:miter;stroke:rgb(0%,0%,0%);stroke-opacity:1;stroke-miterlimit:10;" d="M 1037 382 L 1066.664062 382 L 1078.664062 353.785156 L 1090.664062 382 L 1120.332031 382 L 1096.332031 399.4375 L 1104.417969 430.980469 L 1078.664062 413.542969 L 1052.914062 430.980469 L 1065.214844 399.4375 L 1037 382 "/>
<path style="fill-rule:nonzero;fill:rgb(55%,51%,53%);fill-opacity:1;stroke-width:1;stroke-linecap:butt;stroke-linejoin:miter;stroke:rgb(0%,0%,0%);stroke-opacity:1;stroke-miterlimit:10;" d="M 930.785156 212.785156 L 930.785156 255.214844 L 973.214844 255.214844 L 973.214844 212.785156 L 930.785156 212.785156 "/>
<path style="fill-rule:nonzero;fill:rgb(55%,51%,53%);fill-opacity:1;stroke-width:1;stroke-linecap:butt;stroke-linejoin:miter;stroke:rgb(0%,0%,0%);stroke-opacity:1;stroke-miterlimit:10;" d="M 772 414 L 801.664062 414 L 813.664062 385.785156 L 825.664062 414 L 855.332031 414 L 831.332031 431.4375 L 839.417969 462.980469 L 813.664062 445.542969 L 787.914062 462.980469 L 800.214844 431.4375 L 772 414 "/>
<path style="fill-rule:nonzero;fill:rgb(55%,51%,53%);fill-opacity:1;stroke-width:1;stroke-linecap:butt;stroke-linejoin:miter;stroke:rgb(0%,0%,0%);stroke-opacity:1;stroke-miterlimit:10;" d="M 892.785156 127.785156 L 892.785156 170.214844 L 935.214844 170.214844 L 935.214844 127.785156 L 892.785156 127.785156 "/>
</g>
</svg>
