<?xml version="1.0" encoding="UTF-8"?>
<svg xmlns="http://www.w3.org/2000/svg" xmlns:xlink="http://www.w3.org/1999/xlink" width="1179pt" height="517pt" viewBox="0 0 1179 517" version="1.1">
<g id="surface1296">
<rect x="0" y="0" width="1179" height="517" style="fill:rgb(90%,90%,90%);fill-opacity:1;stroke:none;"/>
<path style="fill-rule:nonzero;fill:rgb(55%,51%,53%);fill-opacity:1;stroke-width:1;stroke-linecap:butt;stroke-linejoin:miter;stroke:rgb(0%,0%,0%);stroke-opacity:1;stroke-miterlimit:10;" d="M 294.214844 143 C 294.214844 154.714844 284.714844 164.214844 273 164.214844 C 261.285156 164.214844 251.785156 154.714844 251.785156 143 C 251.785156 131.285156 261.285156 121.785156 273 121.785156 C 284.714844 121.785156 294.214844 131.285156 294.214844 143 "/>
<path style="fill-rule:nonzero;fill:rgb(55%,51%,53%);fill-opacity:1;stroke-width:1;stroke-linecap:butt;stroke-linejoin:miter;stroke:rgb(0%,0%,0%);stroke-opacity:1;stroke-miterlimit:10;" d="M 411.214844 266 C 411.214844 277.714844 401.714844 287.214844 390 287.214844 C 378.285156 287.214844 368.785156 277.714844 368.785156 266 C 368.785156 254.285156 378.285156 244.785156 390 244.785156 C 401.714844 244.785156 411.214844 254.285156 411.214844 266 "/>
<path style="fill-rule:nonzero;fill:rgb(55%,51%,53%);fill-opacity:1;stroke-width:1;stroke-linecap:butt;stroke-linejoin:miter;stroke:rgb(0%,0%,0%);stroke-opacity:1;stroke-miterlimit:10;" d="M 948.214844 318 C 948.214844 329.714844 938.714844 339.214844 927 339.214844 C 915.285156 339.214844 905.785156 329.714844 905.785156 318 C 905.785156 306.285156 915.285156 296.785156 927 296.785156 C 938.714844 296.785156 948.214844 306.285156 948.214844 318 "/>
<path style="fill-rule:nonzero;fill:rgb(100%,51%,0%);fill-opacity:1;stroke-width:1;stroke-linecap:butt;stroke-linejoin:miter;stroke:rgb(0%,0%,0%);stroke-opacity:1;stroke-miterlimit:10;" d="M 636 280.601562 C 636 266.199219 612 266.199219 612 280.601562 C 612 295 636 297.398438 636 309.398438 C 636 297.398438 660 295 660 280.601562 C 660 266.199219 636 266.199219 636 280.601562 "/>
<path style="fill-rule:nonzero;fill:rgb(100%,51%,0%);fill-opacity:1;stroke-width:1;stroke-linecap:butt;stroke-linejoin:miter;stroke:rgb(0%,0%,0%);stroke-opacity:1;stroke-miterlimit:10;" d="M 116 226.601562 C 116 212.199219 92 212.199219 92 226.601562 C 92 241 116 243.398438 116 255.398438 C 116 243.398438 140 241 140 226.601562 C 140 212.199219 116 212.199219 116 226.601562 "/>
<path style="fill-rule:nonzero;fill:rgb(100%,51%,0%);fill-opacity:1;stroke-width:1;stroke-linecap:butt;stroke-linejoin:miter;stroke:rgb(0%,0%,0%);stroke-opacity:1;stroke-miterlimit:10;" d="M 842 109.601562 C 842 95.199219 818 95.199219 818 109.601562 C 818 124 842 126.398438 842 138.398438 C 842 126.398438 866 124 866 109.601562 C 866 95.199219 842 95.199219 842 109.601562 "/>
<path style="fill-rule:nonzero;fill:rgb(100%,51%,0%);fill-opacity:1;stroke-width:1;stroke-linecap:butt;stroke-linejoin:miter;stroke:rgb(0%,0%,0%);stroke-opacity:1;stroke-miterlimit:10;" d="M 417 83.601562 C 417 69.199219 393 69.199219 393 83.601562 C 393 98 417 100.398438 417 112.398438 C 417 100.398438 441 98 441 83.601562 C 441 69.199219 417 69.199219 417 83.601562 "/>
</g>
</svg>
