<?xml version="1.0" encoding="UTF-8"?>
<svg xmlns="http://www.w3.org/2000/svg" xmlns:xlink="http://www.w3.org/1999/xlink" width="1179pt" height="517pt" viewBox="0 0 1179 517" version="1.1">
<g id="surface161">
<rect x="0" y="0" width="1179" height="517" style="fill:rgb(90%,90%,90%);fill-opacity:1;stroke:none;"/>
<path style="fill-rule:nonzero;fill:rgb(55%,51%,53%);fill-opacity:1;stroke-width:1;stroke-linecap:butt;stroke-linejoin:miter;stroke:rgb(0%,0%,0%);stroke-opacity:1;stroke-miterlimit:10;" d="M 127 256 L 156.664062 256 L 168.664062 227.785156 L 180.664062 256 L 210.332031 256 L 186.332031 273.4375 L 194.417969 304.980469 L 168.664062 287.542969 L 142.914062 304.980469 L 155.214844 273.4375 L 127 256 "/>
<path style="fill-rule:nonzero;fill:rgb(55%,51%,53%);fill-opacity:1;stroke-width:1;stroke-linecap:butt;stroke-linejoin:miter;stroke:rgb(0%,0%,0%);stroke-opacity:1;stroke-miterlimit:10;" d="M 414 312 L 443.664062 312 L 455.664062 283.785156 L 467.664062 312 L 497.332031 312 L 473.332031 329.4375 L 481.417969 360.980469 L 455.664062 343.542969 L 429.914062 360.980469 L 442.214844 329.4375 L 414 312 "/>
<path style="fill-rule:nonzero;fill:rgb(55%,51%,53%);fill-opacity:1;stroke-width:1;stroke-linecap:butt;stroke-linejoin:miter;stroke:rgb(0%,0%,0%);stroke-opacity:1;stroke-miterlimit:10;" d="M 217.785156 311.785156 L 217.785156 354.214844 L 260.214844 354.214844 L 260.214844 311.785156 L 217.785156 311.785156 "/>
<path style="fill-rule:nonzero;fill:rgb(55%,51%,53%);fill-opacity:1;stroke-width:1;stroke-linecap:butt;stroke-linejoin:miter;stroke:rgb(0%,0%,0%);stroke-opacity:1;stroke-miterlimit:10;" d="M 286 417 L 315.664062 417 L 327.664062 388.785156 L 339.664062 417 L 369.332031 417 L 345.332031 434.4375 L 353.417969 465.980469 L 327.664062 448.542969 L 301.914062 465.980469 L 314.214844 434.4375 L 286 417 "/>
<path style="fill-rule:nonzero;fill:rgb(55%,51%,53%);fill-opacity:1;stroke-width:1;stroke-linecap:butt;stroke-linejoin:miter;stroke:rgb(0%,0%,0%);stroke-opacity:1;stroke-miterlimit:10;" d="M 272 141 L 301.664062 141 L 313.664062 112.785156 L 325.664062 141 L 355.332031 141 L 331.332031 158.4375 L 339.417969 189.980469 L 313.664062 172.542969 L 287.914062 189.980469 L 300.214844 158.4375 L 272 141 "/>
<path style="fill-rule:nonzero;fill:rgb(53%,27%,7%);fill-opacity:1;stroke-width:1;stroke-linecap:butt;stroke-linejoin:miter;stroke:rgb(0%,0%,0%);stroke-opacity:1;stroke-miterlimit:10;" d="M 797.785156 188.785156 L 797.785156 231.214844 L 840.214844 231.214844 L 840.214844 188.785156 L 797.785156 188.785156 "/>
<path style="fill-rule:nonzero;fill:rgb(53%,27%,7%);fill-opacity:1;stroke-width:1;stroke-linecap:butt;stroke-linejoin:miter;stroke:rgb(0%,0%,0%);stroke-opacity:1;stroke-miterlimit:10;" d="M 954.785156 330.785156 L 954.785156 373.214844 L 997.214844 373.214844 L 997.214844 330.785156 L 954.785156 330.785156 "/>
<path style="fill-rule:nonzero;fill:rgb(53%,27%,7%);fill-opacity:1;stroke-width:1;stroke-linecap:butt;stroke-linejoin:miter;stroke:rgb(0%,0%,0%);stroke-opacity:1;stroke-miterlimit:10;" d="M 997 235 L 1026.664062 235 L 1038.664062 206.785156 L 1050.664062 235 L 1080.332031 235 L 1056.332031 252.4375 L 1064.417969 283.980469 L 1038.664062 266.542969 L 1012.914062 283.980469 L 1025.214844 252.4375 L 997 235 "/>
<path style="fill-rule:nonzero;fill:rgb(53%,27%,7%);fill-opacity:1;stroke-width:1;stroke-linecap:butt;stroke-linejoin:miter;stroke:rgb(0%,0%,0%);stroke-opacity:1;stroke-miterlimit:10;" d="M 962.785156 101.785156 L 962.785156 144.214844 L 1005.214844 144.214844 L 1005.214844 101.785156 L 962.785156 101.785156 "/>
<path style="fill-rule:nonzero;fill:rgb(53%,27%,7%);fill-opacity:1;stroke-width:1;stroke-linecap:butt;stroke-linejoin:miter;stroke:rgb(0%,0%,0%);stroke-opacity:1;stroke-miterlimit:10;" d="M 853.785156 376.785156 L 853.785156 419.214844 L 896.214844 419.214844 L 896.214844 376.785156 L 853.785156 376.785156 "/>
</g>
</svg>
