<?xml version="1.0" encoding="UTF-8"?>
<svg xmlns="http://www.w3.org/2000/svg" xmlns:xlink="http://www.w3.org/1999/xlink" width="1179pt" height="517pt" viewBox="0 0 1179 517" version="1.1">
<g id="surface421">
<rect x="0" y="0" width="1179" height="517" style="fill:rgb(90%,90%,90%);fill-opacity:1;stroke:none;"/>
<path style="fill-rule:nonzero;fill:rgb(35%,70%,90%);fill-opacity:1;stroke-width:1;stroke-linecap:butt;stroke-linejoin:miter;stroke:rgb(0%,0%,0%);stroke-opacity:1;stroke-miterlimit:10;" d="M 669 396 L 698.664062 396 L 710.664062 367.785156 L 722.664062 396 L 752.332031 396 L 728.332031 413.4375 L 736.417969 444.980469 L 710.664062 427.542969 L 684.914062 444.980469 L 697.214844 413.4375 L 669 396 "/>
<path style="fill-rule:nonzero;fill:rgb(35%,70%,90%);fill-opacity:1;stroke-width:1;stroke-linecap:butt;stroke-linejoin:miter;stroke:rgb(0%,0%,0%);stroke-opacity:1;stroke-miterlimit:10;" d="M 864 370 L 893.664062 370 L 905.664062 341.785156 L 917.664062 370 L 947.332031 370 L 923.332031 387.4375 L 931.417969 418.980469 L 905.664062 401.542969 L 879.914062 418.980469 L 892.214844 387.4375 L 864 370 "/>
<path style="fill-rule:nonzero;fill:rgb(35%,70%,90%);fill-opacity:1;stroke-width:1;stroke-linecap:butt;stroke-linejoin:miter;stroke:rgb(0%,0%,0%);stroke-opacity:1;stroke-miterlimit:10;" d="M 865 86 L 894.664062 86 L 906.664062 57.785156 L 918.664062 86 L 948.332031 86 L 924.332031 103.4375 L 932.417969 134.980469 L 906.664062 117.542969 L 880.914062 134.980469 L 893.214844 103.4375 L 865 86 "/>
<path style="fill-rule:nonzero;fill:rgb(35%,70%,90%);fill-opacity:1;stroke-width:1;stroke-linecap:butt;stroke-linejoin:miter;stroke:rgb(0%,0%,0%);stroke-opacity:1;stroke-miterlimit:10;" d="M 943 277 L 972.664062 277 L 984.664062 248.785156 L 996.664062 277 L 1026.332031 277 L 1002.332031 294.4375 L 1010.417969 325.980469 L 984.664062 308.542969 L 958.914062 325.980469 L 971.214844 294.4375 L 943 277 "/>
<path style="fill-rule:nonzero;fill:rgb(35%,70%,90%);fill-opacity:1;stroke-width:1;stroke-linecap:butt;stroke-linejoin:miter;stroke:rgb(0%,0%,0%);stroke-opacity:1;stroke-miterlimit:10;" d="M 340 272 L 369.664062 272 L 381.664062 243.785156 L 393.664062 272 L 423.332031 272 L 399.332031 289.4375 L 407.417969 320.980469 L 381.664062 303.542969 L 355.914062 320.980469 L 368.214844 289.4375 L 340 272 "/>
<path style="fill-rule:nonzero;fill:rgb(55%,51%,53%);fill-opacity:1;stroke-width:1;stroke-linecap:butt;stroke-linejoin:miter;stroke:rgb(0%,0%,0%);stroke-opacity:1;stroke-miterlimit:10;" d="M 576.214844 355 C 576.214844 366.714844 566.714844 376.214844 555 376.214844 C 543.285156 376.214844 533.785156 366.714844 533.785156 355 C 533.785156 343.285156 543.285156 333.785156 555 333.785156 C 566.714844 333.785156 576.214844 343.285156 576.214844 355 "/>
<path style="fill-rule:nonzero;fill:rgb(55%,51%,53%);fill-opacity:1;stroke-width:1;stroke-linecap:butt;stroke-linejoin:miter;stroke:rgb(0%,0%,0%);stroke-opacity:1;stroke-miterlimit:10;" d="M 213.214844 298 C 213.214844 309.714844 203.714844 319.214844 192 319.214844 C 180.285156 319.214844 170.785156 309.714844 170.785156 298 C 170.785156 286.285156 180.285156 276.785156 192 276.785156 C 203.714844 276.785156 213.214844 286.285156 213.214844 298 "/>
<path style="fill-rule:nonzero;fill:rgb(55%,51%,53%);fill-opacity:1;stroke-width:1;stroke-linecap:butt;stroke-linejoin:miter;stroke:rgb(0%,0%,0%);stroke-opacity:1;stroke-miterlimit:10;" d="M 736.214844 183 C 736.214844 194.714844 726.714844 204.214844 715 204.214844 C 703.285156 204.214844 693.785156 194.714844 693.785156 183 C 693.785156 171.285156 703.285156 161.785156 715 161.785156 C 726.714844 161.785156 736.214844 171.285156 736.214844 183 "/>
<path style="fill-rule:nonzero;fill:rgb(55%,51%,53%);fill-opacity:1;stroke-width:1;stroke-linecap:butt;stroke-linejoin:miter;stroke:rgb(0%,0%,0%);stroke-opacity:1;stroke-miterlimit:10;" d="M 145.214844 130 C 145.214844 141.714844 135.714844 151.214844 124 151.214844 C 112.285156 151.214844 102.785156 141.714844 102.785156 130 C 102.785156 118.285156 112.285156 108.785156 124 108.785156 C 135.714844 108.785156 145.214844 118.285156 145.214844 130 "/>
<path style="fill-rule:nonzero;fill:rgb(55%,51%,53%);fill-opacity:1;stroke-width:1;stroke-linecap:butt;stroke-linejoin:miter;stroke:rgb(0%,0%,0%);stroke-opacity:1;stroke-miterlimit:10;" d="M 318.214844 111 C 318.214844 122.714844 308.714844 132.214844 297 132.214844 C 285.285156 132.214844 275.785156 122.714844 275.785156 111 C 275.785156 99.285156 285.285156 89.785156 297 89.785156 C 308.714844 89.785156 318.214844 99.285156 318.214844 111 "/>
</g>
</svg>
