<?xml version="1.0" encoding="UTF-8"?>
<svg xmlns="http://www.w3.org/2000/svg" xmlns:xlink="http://www.w3.org/1999/xlink" width="1179pt" height="517pt" viewBox="0 0 1179 517" version="1.1">
<g id="surface156">
<rect x="0" y="0" width="1179" height="517" style="fill:rgb(90%,90%,90%);fill-opacity:1;stroke:none;"/>
<path style="fill-rule:nonzero;fill:rgb(55%,51%,53%);fill-opacity:1;stroke-width:1;stroke-linecap:butt;stroke-linejoin:miter;stroke:rgb(0%,0%,0%);stroke-opacity:1;stroke-miterlimit:10;" d="M 615 93 L 644.664062 93 L 656.664062 64.785156 L 668.664062 93 L 698.332031 93 L 674.332031 110.4375 L 682.417969 141.980469 L 656.664062 124.542969 L 630.914062 141.980469 L 643.214844 110.4375 L 615 93 "/>
<path style="fill-rule:nonzero;fill:rgb(55%,51%,53%);fill-opacity:1;stroke-width:1;stroke-linecap:butt;stroke-linejoin:miter;stroke:rgb(0%,0%,0%);stroke-opacity:1;stroke-miterlimit:10;" d="M 977 98 L 1006.664062 98 L 1018.664062 69.785156 L 1030.664062 98 L 1060.332031 98 L 1036.332031 115.4375 L 1044.417969 146.980469 L 1018.664062 129.542969 L 992.914062 146.980469 L 1005.214844 115.4375 L 977 98 "/>
<path style="fill-rule:nonzero;fill:rgb(55%,51%,53%);fill-opacity:1;stroke-width:1;stroke-linecap:butt;stroke-linejoin:miter;stroke:rgb(0%,0%,0%);stroke-opacity:1;stroke-miterlimit:10;" d="M 852 133 L 881.664062 133 L 893.664062 104.785156 L 905.664062 133 L 935.332031 133 L 911.332031 150.4375 L 919.417969 181.980469 L 893.664062 164.542969 L 867.914062 181.980469 L 880.214844 150.4375 L 852 133 "/>
<path style="fill-rule:nonzero;fill:rgb(55%,51%,53%);fill-opacity:1;stroke-width:1;stroke-linecap:butt;stroke-linejoin:miter;stroke:rgb(0%,0%,0%);stroke-opacity:1;stroke-miterlimit:10;" d="M 917 356 L 946.664062 356 L 958.664062 327.785156 L 970.664062 356 L 1000.332031 356 L 976.332031 373.4375 L 984.417969 404.980469 L 958.664062 387.542969 L 932.914062 404.980469 L 945.214844 373.4375 L 917 356 "/>
<path style="fill-rule:nonzero;fill:rgb(55%,51%,53%);fill-opacity:1;stroke-width:1;stroke-linecap:butt;stroke-linejoin:miter;stroke:rgb(0%,0%,0%);stroke-opacity:1;stroke-miterlimit:10;" d="M 392 86 L 421.664062 86 L 433.664062 57.785156 L 445.664062 86 L 475.332031 86 L 451.332031 103.4375 L 459.417969 134.980469 L 433.664062 117.542969 L 407.914062 134.980469 L 420.214844 103.4375 L 392 86 "/>
<path style="fill-rule:nonzero;fill:rgb(53%,27%,7%);fill-opacity:1;stroke-width:1;stroke-linecap:butt;stroke-linejoin:miter;stroke:rgb(0%,0%,0%);stroke-opacity:1;stroke-miterlimit:10;" d="M 683 163 L 657.019531 208 L 708.980469 208 L 683 163 "/>
<path style="fill-rule:nonzero;fill:rgb(53%,27%,7%);fill-opacity:1;stroke-width:1;stroke-linecap:butt;stroke-linejoin:miter;stroke:rgb(0%,0%,0%);stroke-opacity:1;stroke-miterlimit:10;" d="M 262 353 L 236.019531 398 L 287.980469 398 L 262 353 "/>
<path style="fill-rule:nonzero;fill:rgb(53%,27%,7%);fill-opacity:1;stroke-width:1;stroke-linecap:butt;stroke-linejoin:miter;stroke:rgb(0%,0%,0%);stroke-opacity:1;stroke-miterlimit:10;" d="M 546 393 L 520.019531 438 L 571.980469 438 L 546 393 "/>
<path style="fill-rule:nonzero;fill:rgb(53%,27%,7%);fill-opacity:1;stroke-width:1;stroke-linecap:butt;stroke-linejoin:miter;stroke:rgb(0%,0%,0%);stroke-opacity:1;stroke-miterlimit:10;" d="M 190 191 L 164.019531 236 L 215.980469 236 L 190 191 "/>
<path style="fill-rule:nonzero;fill:rgb(53%,27%,7%);fill-opacity:1;stroke-width:1;stroke-linecap:butt;stroke-linejoin:miter;stroke:rgb(0%,0%,0%);stroke-opacity:1;stroke-miterlimit:10;" d="M 524 257 L 498.019531 302 L 549.980469 302 L 524 257 "/>
</g>
</svg>
