<?xml version="1.0" encoding="UTF-8"?>
<svg xmlns="http://www.w3.org/2000/svg" xmlns:xlink="http://www.w3.org/1999/xlink" width="1179pt" height="517pt" viewBox="0 0 1179 517" version="1.1">
<g id="surface276">
<rect x="0" y="0" width="1179" height="517" style="fill:rgb(90%,90%,90%);fill-opacity:1;stroke:none;"/>
<path style="fill-rule:nonzero;fill:rgb(100%,51%,0%);fill-opacity:1;stroke-width:1;stroke-linecap:butt;stroke-linejoin:miter;stroke:rgb(0%,0%,0%);stroke-opacity:1;stroke-miterlimit:10;" d="M 394 209 L 423.664062 209 L 435.664062 180.785156 L 447.664062 209 L 477.332031 209 L 453.332031 226.4375 L 461.417969 257.980469 L 435.664062 240.542969 L 409.914062 257.980469 L 422.214844 226.4375 L 394 209 "/>
<path style="fill-rule:nonzero;fill:rgb(100%,51%,0%);fill-opacity:1;stroke-width:1;stroke-linecap:butt;stroke-linejoin:miter;stroke:rgb(0%,0%,0%);stroke-opacity:1;stroke-miterlimit:10;" d="M 307 387 L 336.664062 387 L 348.664062 358.785156 L 360.664062 387 L 390.332031 387 L 366.332031 404.4375 L 374.417969 435.980469 L 348.664062 418.542969 L 322.914062 435.980469 L 335.214844 404.4375 L 307 387 "/>
<path style="fill-rule:nonzero;fill:rgb(100%,51%,0%);fill-opacity:1;stroke-width:1;stroke-linecap:butt;stroke-linejoin:miter;stroke:rgb(0%,0%,0%);stroke-opacity:1;stroke-miterlimit:10;" d="M 996 201 L 1025.664062 201 L 1037.664062 172.785156 L 1049.664062 201 L 1079.332031 201 L 1055.332031 218.4375 L 1063.417969 249.980469 L 1037.664062 232.542969 L 1011.914062 249.980469 L 1024.214844 218.4375 L 996 201 "/>
<path style="fill-rule:nonzero;fill:rgb(100%,51%,0%);fill-opacity:1;stroke-width:1;stroke-linecap:butt;stroke-linejoin:miter;stroke:rgb(0%,0%,0%);stroke-opacity:1;stroke-miterlimit:10;" d="M 983 367 L 1012.664062 367 L 1024.664062 338.785156 L 1036.664062 367 L 1066.332031 367 L 1042.332031 384.4375 L 1050.417969 415.980469 L 1024.664062 398.542969 L 998.914062 415.980469 L 1011.214844 384.4375 L 983 367 "/>
<path style="fill-rule:nonzero;fill:rgb(53%,27%,7%);fill-opacity:1;stroke-width:1;stroke-linecap:butt;stroke-linejoin:miter;stroke:rgb(0%,0%,0%);stroke-opacity:1;stroke-miterlimit:10;" d="M 801 67 L 775.019531 112 L 826.980469 112 L 801 67 "/>
<path style="fill-rule:nonzero;fill:rgb(53%,27%,7%);fill-opacity:1;stroke-width:1;stroke-linecap:butt;stroke-linejoin:miter;stroke:rgb(0%,0%,0%);stroke-opacity:1;stroke-miterlimit:10;" d="M 148 304 L 122.019531 349 L 173.980469 349 L 148 304 "/>
<path style="fill-rule:nonzero;fill:rgb(53%,27%,7%);fill-opacity:1;stroke-width:1;stroke-linecap:butt;stroke-linejoin:miter;stroke:rgb(0%,0%,0%);stroke-opacity:1;stroke-miterlimit:10;" d="M 650 343 L 624.019531 388 L 675.980469 388 L 650 343 "/>
<path style="fill-rule:nonzero;fill:rgb(53%,27%,7%);fill-opacity:1;stroke-width:1;stroke-linecap:butt;stroke-linejoin:miter;stroke:rgb(0%,0%,0%);stroke-opacity:1;stroke-miterlimit:10;" d="M 508 297 L 482.019531 342 L 533.980469 342 L 508 297 "/>
</g>
</svg>
