<?xml version="1.0" encoding="UTF-8"?>
<svg xmlns="http://www.w3.org/2000/svg" xmlns:xlink="http://www.w3.org/1999/xlink" width="1179pt" height="517pt" viewBox="0 0 1179 517" version="1.1">
<g id="surface276">
<rect x="0" y="0" width="1179" height="517" style="fill:rgb(90%,90%,90%);fill-opacity:1;stroke:none;"/>
<path style="fill-rule:nonzero;fill:rgb(100%,51%,0%);fill-opacity:1;stroke-width:1;stroke-linecap:butt;stroke-linejoin:miter;stroke:rgb(0%,0%,0%);stroke-opacity:1;stroke-miterlimit:10;" d="M 418 428 L 447.664062 428 L 459.664062 399.785156 L 471.664062 428 L 501.332031 428 L 477.332031 445.4375 L 485.417969 476.980469 L 459.664062 459.542969 L 433.914062 476.980469 L 446.214844 445.4375 L 418 428 "/>
<path style="fill-rule:nonzero;fill:rgb(100%,51%,0%);fill-opacity:1;stroke-width:1;stroke-linecap:butt;stroke-linejoin:miter;stroke:rgb(0%,0%,0%);stroke-opacity:1;stroke-miterlimit:10;" d="M 112 321 L 141.664062 321 L 153.664062 292.785156 L 165.664062 321 L 195.332031 321 L 171.332031 338.4375 L 179.417969 369.980469 L 153.664062 352.542969 L 127.914062 369.980469 L 140.214844 338.4375 L 112 321 "/>
<path style="fill-rule:nonzero;fill:rgb(100%,51%,0%);fill-opacity:1;stroke-width:1;stroke-linecap:butt;stroke-linejoin:miter;stroke:rgb(0%,0%,0%);stroke-opacity:1;stroke-miterlimit:10;" d="M 987 387 L 1016.664062 387 L 1028.664062 358.785156 L 1040.664062 387 L 1070.332031 387 L 1046.332031 404.4375 L 1054.417969 435.980469 L 1028.664062 418.542969 L 1002.914062 435.980469 L 1015.214844 404.4375 L 987 387 "/>
<path style="fill-rule:nonzero;fill:rgb(100%,51%,0%);fill-opacity:1;stroke-width:1;stroke-linecap:butt;stroke-linejoin:miter;stroke:rgb(0%,0%,0%);stroke-opacity:1;stroke-miterlimit:10;" d="M 284 315 L 313.664062 315 L 325.664062 286.785156 L 337.664062 315 L 367.332031 315 L 343.332031 332.4375 L 351.417969 363.980469 L 325.664062 346.542969 L 299.914062 363.980469 L 312.214844 332.4375 L 284 315 "/>
<path style="fill-rule:nonzero;fill:rgb(53%,27%,7%);fill-opacity:1;stroke-width:1;stroke-linecap:butt;stroke-linejoin:miter;stroke:rgb(0%,0%,0%);stroke-opacity:1;stroke-miterlimit:10;" d="M 800 394 L 774.019531 439 L 825.980469 439 L 800 394 "/>
<path style="fill-rule:nonzero;fill:rgb(53%,27%,7%);fill-opacity:1;stroke-width:1;stroke-linecap:butt;stroke-linejoin:miter;stroke:rgb(0%,0%,0%);stroke-opacity:1;stroke-miterlimit:10;" d="M 924 178 L 898.019531 223 L 949.980469 223 L 924 178 "/>
<path style="fill-rule:nonzero;fill:rgb(53%,27%,7%);fill-opacity:1;stroke-width:1;stroke-linecap:butt;stroke-linejoin:miter;stroke:rgb(0%,0%,0%);stroke-opacity:1;stroke-miterlimit:10;" d="M 440 59 L 414.019531 104 L 465.980469 104 L 440 59 "/>
<path style="fill-rule:nonzero;fill:rgb(53%,27%,7%);fill-opacity:1;stroke-width:1;stroke-linecap:butt;stroke-linejoin:miter;stroke:rgb(0%,0%,0%);stroke-opacity:1;stroke-miterlimit:10;" d="M 198 63 L 172.019531 108 L 223.980469 108 L 198 63 "/>
</g>
</svg>
