<?xml version="1.0" encoding="UTF-8"?>
<svg xmlns="http://www.w3.org/2000/svg" xmlns:xlink="http://www.w3.org/1999/xlink" width="1179pt" height="517pt" viewBox="0 0 1179 517" version="1.1">
<g id="surface991">
<rect x="0" y="0" width="1179" height="517" style="fill:rgb(90%,90%,90%);fill-opacity:1;stroke:none;"/>
<path style="fill-rule:nonzero;fill:rgb(53%,27%,7%);fill-opacity:1;stroke-width:1;stroke-linecap:butt;stroke-linejoin:miter;stroke:rgb(0%,0%,0%);stroke-opacity:1;stroke-miterlimit:10;" d="M 262.214844 265 C 262.214844 276.714844 252.714844 286.214844 241 286.214844 C 229.285156 286.214844 219.785156 276.714844 219.785156 265 C 219.785156 253.285156 229.285156 243.785156 241 243.785156 C 252.714844 243.785156 262.214844 253.285156 262.214844 265 "/>
<path style="fill-rule:nonzero;fill:rgb(53%,27%,7%);fill-opacity:1;stroke-width:1;stroke-linecap:butt;stroke-linejoin:miter;stroke:rgb(0%,0%,0%);stroke-opacity:1;stroke-miterlimit:10;" d="M 855.214844 384 C 855.214844 395.714844 845.714844 405.214844 834 405.214844 C 822.285156 405.214844 812.785156 395.714844 812.785156 384 C 812.785156 372.285156 822.285156 362.785156 834 362.785156 C 845.714844 362.785156 855.214844 372.285156 855.214844 384 "/>
<path style="fill-rule:nonzero;fill:rgb(53%,27%,7%);fill-opacity:1;stroke-width:1;stroke-linecap:butt;stroke-linejoin:miter;stroke:rgb(0%,0%,0%);stroke-opacity:1;stroke-miterlimit:10;" d="M 748.214844 238 C 748.214844 249.714844 738.714844 259.214844 727 259.214844 C 715.285156 259.214844 705.785156 249.714844 705.785156 238 C 705.785156 226.285156 715.285156 216.785156 727 216.785156 C 738.714844 216.785156 748.214844 226.285156 748.214844 238 "/>
<path style="fill-rule:nonzero;fill:rgb(53%,27%,7%);fill-opacity:1;stroke-width:1;stroke-linecap:butt;stroke-linejoin:miter;stroke:rgb(0%,0%,0%);stroke-opacity:1;stroke-miterlimit:10;" d="M 113.214844 125 C 113.214844 136.714844 103.714844 146.214844 92 146.214844 C 80.285156 146.214844 70.785156 136.714844 70.785156 125 C 70.785156 113.285156 80.285156 103.785156 92 103.785156 C 103.714844 103.785156 113.214844 113.285156 113.214844 125 "/>
<path style="fill-rule:nonzero;fill:rgb(53%,27%,7%);fill-opacity:1;stroke-width:1;stroke-linecap:butt;stroke-linejoin:miter;stroke:rgb(0%,0%,0%);stroke-opacity:1;stroke-miterlimit:10;" d="M 988.214844 383 C 988.214844 394.714844 978.714844 404.214844 967 404.214844 C 955.285156 404.214844 945.785156 394.714844 945.785156 383 C 945.785156 371.285156 955.285156 361.785156 967 361.785156 C 978.714844 361.785156 988.214844 371.285156 988.214844 383 "/>
<path style="fill-rule:nonzero;fill:rgb(100%,51%,0%);fill-opacity:1;stroke-width:1;stroke-linecap:butt;stroke-linejoin:miter;stroke:rgb(0%,0%,0%);stroke-opacity:1;stroke-miterlimit:10;" d="M 81 399 L 110.664062 399 L 122.664062 370.785156 L 134.664062 399 L 164.332031 399 L 140.332031 416.4375 L 148.417969 447.980469 L 122.664062 430.542969 L 96.914062 447.980469 L 109.214844 416.4375 L 81 399 "/>
<path style="fill-rule:nonzero;fill:rgb(100%,51%,0%);fill-opacity:1;stroke-width:1;stroke-linecap:butt;stroke-linejoin:miter;stroke:rgb(0%,0%,0%);stroke-opacity:1;stroke-miterlimit:10;" d="M 334 157 L 363.664062 157 L 375.664062 128.785156 L 387.664062 157 L 417.332031 157 L 393.332031 174.4375 L 401.417969 205.980469 L 375.664062 188.542969 L 349.914062 205.980469 L 362.214844 174.4375 L 334 157 "/>
<path style="fill-rule:nonzero;fill:rgb(100%,51%,0%);fill-opacity:1;stroke-width:1;stroke-linecap:butt;stroke-linejoin:miter;stroke:rgb(0%,0%,0%);stroke-opacity:1;stroke-miterlimit:10;" d="M 408 252 L 437.664062 252 L 449.664062 223.785156 L 461.664062 252 L 491.332031 252 L 467.332031 269.4375 L 475.417969 300.980469 L 449.664062 283.542969 L 423.914062 300.980469 L 436.214844 269.4375 L 408 252 "/>
<path style="fill-rule:nonzero;fill:rgb(100%,51%,0%);fill-opacity:1;stroke-width:1;stroke-linecap:butt;stroke-linejoin:miter;stroke:rgb(0%,0%,0%);stroke-opacity:1;stroke-miterlimit:10;" d="M 994 134 L 1023.664062 134 L 1035.664062 105.785156 L 1047.664062 134 L 1077.332031 134 L 1053.332031 151.4375 L 1061.417969 182.980469 L 1035.664062 165.542969 L 1009.914062 182.980469 L 1022.214844 151.4375 L 994 134 "/>
<path style="fill-rule:nonzero;fill:rgb(100%,51%,0%);fill-opacity:1;stroke-width:1;stroke-linecap:butt;stroke-linejoin:miter;stroke:rgb(0%,0%,0%);stroke-opacity:1;stroke-miterlimit:10;" d="M 572 331 L 601.664062 331 L 613.664062 302.785156 L 625.664062 331 L 655.332031 331 L 631.332031 348.4375 L 639.417969 379.980469 L 613.664062 362.542969 L 587.914062 379.980469 L 600.214844 348.4375 L 572 331 "/>
</g>
</svg>
