<?xml version="1.0" encoding="UTF-8"?>
<svg xmlns="http://www.w3.org/2000/svg" xmlns:xlink="http://www.w3.org/1999/xlink" width="1179pt" height="517pt" viewBox="0 0 1179 517" version="1.1">
<g id="surface401">
<rect x="0" y="0" width="1179" height="517" style="fill:rgb(90%,90%,90%);fill-opacity:1;stroke:none;"/>
<path style="fill-rule:nonzero;fill:rgb(35%,70%,90%);fill-opacity:1;stroke-width:1;stroke-linecap:butt;stroke-linejoin:miter;stroke:rgb(0%,0%,0%);stroke-opacity:1;stroke-miterlimit:10;" d="M 111 115 L 140.664062 115 L 152.664062 86.785156 L 164.664062 115 L 194.332031 115 L 170.332031 132.4375 L 178.417969 163.980469 L 152.664062 146.542969 L 126.914062 163.980469 L 139.214844 132.4375 L 111 115 "/>
<path style="fill-rule:nonzero;fill:rgb(35%,70%,90%);fill-opacity:1;stroke-width:1;stroke-linecap:butt;stroke-linejoin:miter;stroke:rgb(0%,0%,0%);stroke-opacity:1;stroke-miterlimit:10;" d="M 214.785156 250.785156 L 214.785156 293.214844 L 257.214844 293.214844 L 257.214844 250.785156 L 214.785156 250.785156 "/>
<path style="fill-rule:nonzero;fill:rgb(35%,70%,90%);fill-opacity:1;stroke-width:1;stroke-linecap:butt;stroke-linejoin:miter;stroke:rgb(0%,0%,0%);stroke-opacity:1;stroke-miterlimit:10;" d="M 188 168 L 217.664062 168 L 229.664062 139.785156 L 241.664062 168 L 271.332031 168 L 247.332031 185.4375 L 255.417969 216.980469 L 229.664062 199.542969 L 203.914062 216.980469 L 216.214844 185.4375 L 188 168 "/>
<path style="fill-rule:nonzero;fill:rgb(35%,70%,90%);fill-opacity:1;stroke-width:1;stroke-linecap:butt;stroke-linejoin:miter;stroke:rgb(0%,0%,0%);stroke-opacity:1;stroke-miterlimit:10;" d="M 193 409 L 222.664062 409 L 234.664062 380.785156 L 246.664062 409 L 276.332031 409 L 252.332031 426.4375 L 260.417969 457.980469 L 234.664062 440.542969 L 208.914062 457.980469 L 221.214844 426.4375 L 193 409 "/>
<path style="fill-rule:nonzero;fill:rgb(35%,70%,90%);fill-opacity:1;stroke-width:1;stroke-linecap:butt;stroke-linejoin:miter;stroke:rgb(0%,0%,0%);stroke-opacity:1;stroke-miterlimit:10;" d="M 339 371 L 368.664062 371 L 380.664062 342.785156 L 392.664062 371 L 422.332031 371 L 398.332031 388.4375 L 406.417969 419.980469 L 380.664062 402.542969 L 354.914062 419.980469 L 367.214844 388.4375 L 339 371 "/>
<path style="fill-rule:nonzero;fill:rgb(53%,27%,7%);fill-opacity:1;stroke-width:1;stroke-linecap:butt;stroke-linejoin:miter;stroke:rgb(0%,0%,0%);stroke-opacity:1;stroke-miterlimit:10;" d="M 937.785156 227.785156 L 937.785156 270.214844 L 980.214844 270.214844 L 980.214844 227.785156 L 937.785156 227.785156 "/>
<path style="fill-rule:nonzero;fill:rgb(53%,27%,7%);fill-opacity:1;stroke-width:1;stroke-linecap:butt;stroke-linejoin:miter;stroke:rgb(0%,0%,0%);stroke-opacity:1;stroke-miterlimit:10;" d="M 1002 382 L 1031.664062 382 L 1043.664062 353.785156 L 1055.664062 382 L 1085.332031 382 L 1061.332031 399.4375 L 1069.417969 430.980469 L 1043.664062 413.542969 L 1017.914062 430.980469 L 1030.214844 399.4375 L 1002 382 "/>
<path style="fill-rule:nonzero;fill:rgb(53%,27%,7%);fill-opacity:1;stroke-width:1;stroke-linecap:butt;stroke-linejoin:miter;stroke:rgb(0%,0%,0%);stroke-opacity:1;stroke-miterlimit:10;" d="M 835.785156 155.785156 L 835.785156 198.214844 L 878.214844 198.214844 L 878.214844 155.785156 L 835.785156 155.785156 "/>
<path style="fill-rule:nonzero;fill:rgb(53%,27%,7%);fill-opacity:1;stroke-width:1;stroke-linecap:butt;stroke-linejoin:miter;stroke:rgb(0%,0%,0%);stroke-opacity:1;stroke-miterlimit:10;" d="M 775.785156 285.785156 L 775.785156 328.214844 L 818.214844 328.214844 L 818.214844 285.785156 L 775.785156 285.785156 "/>
</g>
</svg>
