<?xml version="1.0" encoding="UTF-8"?>
<svg xmlns="http://www.w3.org/2000/svg" xmlns:xlink="http://www.w3.org/1999/xlink" width="1179pt" height="517pt" viewBox="0 0 1179 517" version="1.1">
<g id="surface786">
<rect x="0" y="0" width="1179" height="517" style="fill:rgb(90%,90%,90%);fill-opacity:1;stroke:none;"/>
<path style="fill-rule:nonzero;fill:rgb(100%,51%,0%);fill-opacity:1;stroke-width:1;stroke-linecap:butt;stroke-linejoin:miter;stroke:rgb(0%,0%,0%);stroke-opacity:1;stroke-miterlimit:10;" d="M 156.214844 299 C 156.214844 310.714844 146.714844 320.214844 135 320.214844 C 123.285156 320.214844 113.785156 310.714844 113.785156 299 C 113.785156 287.285156 123.285156 277.785156 135 277.785156 C 146.714844 277.785156 156.214844 287.285156 156.214844 299 "/>
<path style="fill-rule:nonzero;fill:rgb(100%,51%,0%);fill-opacity:1;stroke-width:1;stroke-linecap:butt;stroke-linejoin:miter;stroke:rgb(0%,0%,0%);stroke-opacity:1;stroke-miterlimit:10;" d="M 1039.214844 178 C 1039.214844 189.714844 1029.714844 199.214844 1018 199.214844 C 1006.285156 199.214844 996.785156 189.714844 996.785156 178 C 996.785156 166.285156 1006.285156 156.785156 1018 156.785156 C 1029.714844 156.785156 1039.214844 166.285156 1039.214844 178 "/>
<path style="fill-rule:nonzero;fill:rgb(100%,51%,0%);fill-opacity:1;stroke-width:1;stroke-linecap:butt;stroke-linejoin:miter;stroke:rgb(0%,0%,0%);stroke-opacity:1;stroke-miterlimit:10;" d="M 524.214844 287 C 524.214844 298.714844 514.714844 308.214844 503 308.214844 C 491.285156 308.214844 481.785156 298.714844 481.785156 287 C 481.785156 275.285156 491.285156 265.785156 503 265.785156 C 514.714844 265.785156 524.214844 275.285156 524.214844 287 "/>
<path style="fill-rule:nonzero;fill:rgb(35%,70%,90%);fill-opacity:1;stroke-width:1;stroke-linecap:butt;stroke-linejoin:miter;stroke:rgb(0%,0%,0%);stroke-opacity:1;stroke-miterlimit:10;" d="M 385 185 L 414.664062 185 L 426.664062 156.785156 L 438.664062 185 L 468.332031 185 L 444.332031 202.4375 L 452.417969 233.980469 L 426.664062 216.542969 L 400.914062 233.980469 L 413.214844 202.4375 L 385 185 "/>
<path style="fill-rule:nonzero;fill:rgb(35%,70%,90%);fill-opacity:1;stroke-width:1;stroke-linecap:butt;stroke-linejoin:miter;stroke:rgb(0%,0%,0%);stroke-opacity:1;stroke-miterlimit:10;" d="M 690 342 L 719.664062 342 L 731.664062 313.785156 L 743.664062 342 L 773.332031 342 L 749.332031 359.4375 L 757.417969 390.980469 L 731.664062 373.542969 L 705.914062 390.980469 L 718.214844 359.4375 L 690 342 "/>
<path style="fill-rule:nonzero;fill:rgb(35%,70%,90%);fill-opacity:1;stroke-width:1;stroke-linecap:butt;stroke-linejoin:miter;stroke:rgb(0%,0%,0%);stroke-opacity:1;stroke-miterlimit:10;" d="M 856 188 L 885.664062 188 L 897.664062 159.785156 L 909.664062 188 L 939.332031 188 L 915.332031 205.4375 L 923.417969 236.980469 L 897.664062 219.542969 L 871.914062 236.980469 L 884.214844 205.4375 L 856 188 "/>
<path style="fill-rule:nonzero;fill:rgb(35%,70%,90%);fill-opacity:1;stroke-width:1;stroke-linecap:butt;stroke-linejoin:miter;stroke:rgb(0%,0%,0%);stroke-opacity:1;stroke-miterlimit:10;" d="M 551 131 L 580.664062 131 L 592.664062 102.785156 L 604.664062 131 L 634.332031 131 L 610.332031 148.4375 L 618.417969 179.980469 L 592.664062 162.542969 L 566.914062 179.980469 L 579.214844 148.4375 L 551 131 "/>
</g>
</svg>
