<?xml version="1.0" encoding="UTF-8"?>
<svg xmlns="http://www.w3.org/2000/svg" xmlns:xlink="http://www.w3.org/1999/xlink" width="1179pt" height="517pt" viewBox="0 0 1179 517" version="1.1">
<g id="surface71">
<rect x="0" y="0" width="1179" height="517" style="fill:rgb(90%,90%,90%);fill-opacity:1;stroke:none;"/>
<path style="fill-rule:nonzero;fill:rgb(35%,70%,90%);fill-opacity:1;stroke-width:1;stroke-linecap:butt;stroke-linejoin:miter;stroke:rgb(0%,0%,0%);stroke-opacity:1;stroke-miterlimit:10;" d="M 205 312 L 234.664062 312 L 246.664062 283.785156 L 258.664062 312 L 288.332031 312 L 264.332031 329.4375 L 272.417969 360.980469 L 246.664062 343.542969 L 220.914062 360.980469 L 233.214844 329.4375 L 205 312 "/>
<path style="fill-rule:nonzero;fill:rgb(35%,70%,90%);fill-opacity:1;stroke-width:1;stroke-linecap:butt;stroke-linejoin:miter;stroke:rgb(0%,0%,0%);stroke-opacity:1;stroke-miterlimit:10;" d="M 101 369 L 130.664062 369 L 142.664062 340.785156 L 154.664062 369 L 184.332031 369 L 160.332031 386.4375 L 168.417969 417.980469 L 142.664062 400.542969 L 116.914062 417.980469 L 129.214844 386.4375 L 101 369 "/>
<path style="fill-rule:nonzero;fill:rgb(35%,70%,90%);fill-opacity:1;stroke-width:1;stroke-linecap:butt;stroke-linejoin:miter;stroke:rgb(0%,0%,0%);stroke-opacity:1;stroke-miterlimit:10;" d="M 380.785156 93.785156 L 380.785156 136.214844 L 423.214844 136.214844 L 423.214844 93.785156 L 380.785156 93.785156 "/>
<path style="fill-rule:nonzero;fill:rgb(35%,70%,90%);fill-opacity:1;stroke-width:1;stroke-linecap:butt;stroke-linejoin:miter;stroke:rgb(0%,0%,0%);stroke-opacity:1;stroke-miterlimit:10;" d="M 213.785156 174.785156 L 213.785156 217.214844 L 256.214844 217.214844 L 256.214844 174.785156 L 213.785156 174.785156 "/>
<path style="fill-rule:nonzero;fill:rgb(35%,70%,90%);fill-opacity:1;stroke-width:1;stroke-linecap:butt;stroke-linejoin:miter;stroke:rgb(0%,0%,0%);stroke-opacity:1;stroke-miterlimit:10;" d="M 219 82 L 248.664062 82 L 260.664062 53.785156 L 272.664062 82 L 302.332031 82 L 278.332031 99.4375 L 286.417969 130.980469 L 260.664062 113.542969 L 234.914062 130.980469 L 247.214844 99.4375 L 219 82 "/>
<path style="fill-rule:nonzero;fill:rgb(55%,51%,53%);fill-opacity:1;stroke-width:1;stroke-linecap:butt;stroke-linejoin:miter;stroke:rgb(0%,0%,0%);stroke-opacity:1;stroke-miterlimit:10;" d="M 823.785156 347.785156 L 823.785156 390.214844 L 866.214844 390.214844 L 866.214844 347.785156 L 823.785156 347.785156 "/>
<path style="fill-rule:nonzero;fill:rgb(55%,51%,53%);fill-opacity:1;stroke-width:1;stroke-linecap:butt;stroke-linejoin:miter;stroke:rgb(0%,0%,0%);stroke-opacity:1;stroke-miterlimit:10;" d="M 1007.785156 102.785156 L 1007.785156 145.214844 L 1050.214844 145.214844 L 1050.214844 102.785156 L 1007.785156 102.785156 "/>
<path style="fill-rule:nonzero;fill:rgb(55%,51%,53%);fill-opacity:1;stroke-width:1;stroke-linecap:butt;stroke-linejoin:miter;stroke:rgb(0%,0%,0%);stroke-opacity:1;stroke-miterlimit:10;" d="M 692 173 L 721.664062 173 L 733.664062 144.785156 L 745.664062 173 L 775.332031 173 L 751.332031 190.4375 L 759.417969 221.980469 L 733.664062 204.542969 L 707.914062 221.980469 L 720.214844 190.4375 L 692 173 "/>
<path style="fill-rule:nonzero;fill:rgb(55%,51%,53%);fill-opacity:1;stroke-width:1;stroke-linecap:butt;stroke-linejoin:miter;stroke:rgb(0%,0%,0%);stroke-opacity:1;stroke-miterlimit:10;" d="M 743 260 L 772.664062 260 L 784.664062 231.785156 L 796.664062 260 L 826.332031 260 L 802.332031 277.4375 L 810.417969 308.980469 L 784.664062 291.542969 L 758.914062 308.980469 L 771.214844 277.4375 L 743 260 "/>
<path style="fill-rule:nonzero;fill:rgb(55%,51%,53%);fill-opacity:1;stroke-width:1;stroke-linecap:butt;stroke-linejoin:miter;stroke:rgb(0%,0%,0%);stroke-opacity:1;stroke-miterlimit:10;" d="M 789.785156 105.785156 L 789.785156 148.214844 L 832.214844 148.214844 L 832.214844 105.785156 L 789.785156 105.785156 "/>
</g>
</svg>
