<?xml version="1.0" encoding="UTF-8"?>
<svg xmlns="http://www.w3.org/2000/svg" xmlns:xlink="http://www.w3.org/1999/xlink" width="1179pt" height="517pt" viewBox="0 0 1179 517" version="1.1">
<g id="surface1041">
<rect x="0" y="0" width="1179" height="517" style="fill:rgb(90%,90%,90%);fill-opacity:1;stroke:none;"/>
<path style="fill-rule:nonzero;fill:rgb(100%,51%,0%);fill-opacity:1;stroke-width:1;stroke-linecap:butt;stroke-linejoin:miter;stroke:rgb(0%,0%,0%);stroke-opacity:1;stroke-miterlimit:10;" d="M 114 103 L 143.664062 103 L 155.664062 74.785156 L 167.664062 103 L 197.332031 103 L 173.332031 120.4375 L 181.417969 151.980469 L 155.664062 134.542969 L 129.914062 151.980469 L 142.214844 120.4375 L 114 103 "/>
<path style="fill-rule:nonzero;fill:rgb(100%,51%,0%);fill-opacity:1;stroke-width:1;stroke-linecap:butt;stroke-linejoin:miter;stroke:rgb(0%,0%,0%);stroke-opacity:1;stroke-miterlimit:10;" d="M 570 82 L 599.664062 82 L 611.664062 53.785156 L 623.664062 82 L 653.332031 82 L 629.332031 99.4375 L 637.417969 130.980469 L 611.664062 113.542969 L 585.914062 130.980469 L 598.214844 99.4375 L 570 82 "/>
<path style="fill-rule:nonzero;fill:rgb(100%,51%,0%);fill-opacity:1;stroke-width:1;stroke-linecap:butt;stroke-linejoin:miter;stroke:rgb(0%,0%,0%);stroke-opacity:1;stroke-miterlimit:10;" d="M 501 312 L 530.664062 312 L 542.664062 283.785156 L 554.664062 312 L 584.332031 312 L 560.332031 329.4375 L 568.417969 360.980469 L 542.664062 343.542969 L 516.914062 360.980469 L 529.214844 329.4375 L 501 312 "/>
<path style="fill-rule:nonzero;fill:rgb(100%,51%,0%);fill-opacity:1;stroke-width:1;stroke-linecap:butt;stroke-linejoin:miter;stroke:rgb(0%,0%,0%);stroke-opacity:1;stroke-miterlimit:10;" d="M 1011 96 L 1040.664062 96 L 1052.664062 67.785156 L 1064.664062 96 L 1094.332031 96 L 1070.332031 113.4375 L 1078.417969 144.980469 L 1052.664062 127.542969 L 1026.914062 144.980469 L 1039.214844 113.4375 L 1011 96 "/>
<path style="fill-rule:nonzero;fill:rgb(55%,51%,53%);fill-opacity:1;stroke-width:1;stroke-linecap:butt;stroke-linejoin:miter;stroke:rgb(0%,0%,0%);stroke-opacity:1;stroke-miterlimit:10;" d="M 731.214844 329 C 731.214844 340.714844 721.714844 350.214844 710 350.214844 C 698.285156 350.214844 688.785156 340.714844 688.785156 329 C 688.785156 317.285156 698.285156 307.785156 710 307.785156 C 721.714844 307.785156 731.214844 317.285156 731.214844 329 "/>
<path style="fill-rule:nonzero;fill:rgb(55%,51%,53%);fill-opacity:1;stroke-width:1;stroke-linecap:butt;stroke-linejoin:miter;stroke:rgb(0%,0%,0%);stroke-opacity:1;stroke-miterlimit:10;" d="M 777.214844 113 C 777.214844 124.714844 767.714844 134.214844 756 134.214844 C 744.285156 134.214844 734.785156 124.714844 734.785156 113 C 734.785156 101.285156 744.285156 91.785156 756 91.785156 C 767.714844 91.785156 777.214844 101.285156 777.214844 113 "/>
<path style="fill-rule:nonzero;fill:rgb(55%,51%,53%);fill-opacity:1;stroke-width:1;stroke-linecap:butt;stroke-linejoin:miter;stroke:rgb(0%,0%,0%);stroke-opacity:1;stroke-miterlimit:10;" d="M 920.214844 266 C 920.214844 277.714844 910.714844 287.214844 899 287.214844 C 887.285156 287.214844 877.785156 277.714844 877.785156 266 C 877.785156 254.285156 887.285156 244.785156 899 244.785156 C 910.714844 244.785156 920.214844 254.285156 920.214844 266 "/>
<path style="fill-rule:nonzero;fill:rgb(55%,51%,53%);fill-opacity:1;stroke-width:1;stroke-linecap:butt;stroke-linejoin:miter;stroke:rgb(0%,0%,0%);stroke-opacity:1;stroke-miterlimit:10;" d="M 475.214844 148 C 475.214844 159.714844 465.714844 169.214844 454 169.214844 C 442.285156 169.214844 432.785156 159.714844 432.785156 148 C 432.785156 136.285156 442.285156 126.785156 454 126.785156 C 465.714844 126.785156 475.214844 136.285156 475.214844 148 "/>
<path style="fill-rule:nonzero;fill:rgb(55%,51%,53%);fill-opacity:1;stroke-width:1;stroke-linecap:butt;stroke-linejoin:miter;stroke:rgb(0%,0%,0%);stroke-opacity:1;stroke-miterlimit:10;" d="M 128.214844 411 C 128.214844 422.714844 118.714844 432.214844 107 432.214844 C 95.285156 432.214844 85.785156 422.714844 85.785156 411 C 85.785156 399.285156 95.285156 389.785156 107 389.785156 C 118.714844 389.785156 128.214844 399.285156 128.214844 411 "/>
</g>
</svg>
