<?xml version="1.0" encoding="UTF-8"?>
<svg xmlns="http://www.w3.org/2000/svg" xmlns:xlink="http://www.w3.org/1999/xlink" width="1179pt" height="517pt" viewBox="0 0 1179 517" version="1.1">
<g id="surface96">
<rect x="0" y="0" width="1179" height="517" style="fill:rgb(90%,90%,90%);fill-opacity:1;stroke:none;"/>
<path style="fill-rule:nonzero;fill:rgb(100%,51%,0%);fill-opacity:1;stroke-width:1;stroke-linecap:butt;stroke-linejoin:miter;stroke:rgb(0%,0%,0%);stroke-opacity:1;stroke-miterlimit:10;" d="M 433 132 L 462.664062 132 L 474.664062 103.785156 L 486.664062 132 L 516.332031 132 L 492.332031 149.4375 L 500.417969 180.980469 L 474.664062 163.542969 L 448.914062 180.980469 L 461.214844 149.4375 L 433 132 "/>
<path style="fill-rule:nonzero;fill:rgb(100%,51%,0%);fill-opacity:1;stroke-width:1;stroke-linecap:butt;stroke-linejoin:miter;stroke:rgb(0%,0%,0%);stroke-opacity:1;stroke-miterlimit:10;" d="M 407 302 L 436.664062 302 L 448.664062 273.785156 L 460.664062 302 L 490.332031 302 L 466.332031 319.4375 L 474.417969 350.980469 L 448.664062 333.542969 L 422.914062 350.980469 L 435.214844 319.4375 L 407 302 "/>
<path style="fill-rule:nonzero;fill:rgb(100%,51%,0%);fill-opacity:1;stroke-width:1;stroke-linecap:butt;stroke-linejoin:miter;stroke:rgb(0%,0%,0%);stroke-opacity:1;stroke-miterlimit:10;" d="M 208 235 L 237.664062 235 L 249.664062 206.785156 L 261.664062 235 L 291.332031 235 L 267.332031 252.4375 L 275.417969 283.980469 L 249.664062 266.542969 L 223.914062 283.980469 L 236.214844 252.4375 L 208 235 "/>
<path style="fill-rule:nonzero;fill:rgb(100%,51%,0%);fill-opacity:1;stroke-width:1;stroke-linecap:butt;stroke-linejoin:miter;stroke:rgb(0%,0%,0%);stroke-opacity:1;stroke-miterlimit:10;" d="M 909 185 L 938.664062 185 L 950.664062 156.785156 L 962.664062 185 L 992.332031 185 L 968.332031 202.4375 L 976.417969 233.980469 L 950.664062 216.542969 L 924.914062 233.980469 L 937.214844 202.4375 L 909 185 "/>
<path style="fill-rule:nonzero;fill:rgb(53%,27%,7%);fill-opacity:1;stroke-width:1;stroke-linecap:butt;stroke-linejoin:miter;stroke:rgb(0%,0%,0%);stroke-opacity:1;stroke-miterlimit:10;" d="M 163 347 L 137.019531 392 L 188.980469 392 L 163 347 "/>
<path style="fill-rule:nonzero;fill:rgb(53%,27%,7%);fill-opacity:1;stroke-width:1;stroke-linecap:butt;stroke-linejoin:miter;stroke:rgb(0%,0%,0%);stroke-opacity:1;stroke-miterlimit:10;" d="M 81 70 L 55.019531 115 L 106.980469 115 L 81 70 "/>
<path style="fill-rule:nonzero;fill:rgb(53%,27%,7%);fill-opacity:1;stroke-width:1;stroke-linecap:butt;stroke-linejoin:miter;stroke:rgb(0%,0%,0%);stroke-opacity:1;stroke-miterlimit:10;" d="M 650 127 L 624.019531 172 L 675.980469 172 L 650 127 "/>
<path style="fill-rule:nonzero;fill:rgb(53%,27%,7%);fill-opacity:1;stroke-width:1;stroke-linecap:butt;stroke-linejoin:miter;stroke:rgb(0%,0%,0%);stroke-opacity:1;stroke-miterlimit:10;" d="M 347 384 L 321.019531 429 L 372.980469 429 L 347 384 "/>
</g>
</svg>
