<?xml version="1.0" encoding="UTF-8"?>
<svg xmlns="http://www.w3.org/2000/svg" xmlns:xlink="http://www.w3.org/1999/xlink" width="1179pt" height="517pt" viewBox="0 0 1179 517" version="1.1">
<g id="surface151">
<rect x="0" y="0" width="1179" height="517" style="fill:rgb(90%,90%,90%);fill-opacity:1;stroke:none;"/>
<path style="fill-rule:nonzero;fill:rgb(55%,51%,53%);fill-opacity:1;stroke-width:1;stroke-linecap:butt;stroke-linejoin:miter;stroke:rgb(0%,0%,0%);stroke-opacity:1;stroke-miterlimit:10;" d="M 796 145 L 825.664062 145 L 837.664062 116.785156 L 849.664062 145 L 879.332031 145 L 855.332031 162.4375 L 863.417969 193.980469 L 837.664062 176.542969 L 811.914062 193.980469 L 824.214844 162.4375 L 796 145 "/>
<path style="fill-rule:nonzero;fill:rgb(55%,51%,53%);fill-opacity:1;stroke-width:1;stroke-linecap:butt;stroke-linejoin:miter;stroke:rgb(0%,0%,0%);stroke-opacity:1;stroke-miterlimit:10;" d="M 90 216 L 119.664062 216 L 131.664062 187.785156 L 143.664062 216 L 173.332031 216 L 149.332031 233.4375 L 157.417969 264.980469 L 131.664062 247.542969 L 105.914062 264.980469 L 118.214844 233.4375 L 90 216 "/>
<path style="fill-rule:nonzero;fill:rgb(55%,51%,53%);fill-opacity:1;stroke-width:1;stroke-linecap:butt;stroke-linejoin:miter;stroke:rgb(0%,0%,0%);stroke-opacity:1;stroke-miterlimit:10;" d="M 459 221 L 488.664062 221 L 500.664062 192.785156 L 512.664062 221 L 542.332031 221 L 518.332031 238.4375 L 526.417969 269.980469 L 500.664062 252.542969 L 474.914062 269.980469 L 487.214844 238.4375 L 459 221 "/>
<path style="fill-rule:nonzero;fill:rgb(55%,51%,53%);fill-opacity:1;stroke-width:1;stroke-linecap:butt;stroke-linejoin:miter;stroke:rgb(0%,0%,0%);stroke-opacity:1;stroke-miterlimit:10;" d="M 350 285 L 379.664062 285 L 391.664062 256.785156 L 403.664062 285 L 433.332031 285 L 409.332031 302.4375 L 417.417969 333.980469 L 391.664062 316.542969 L 365.914062 333.980469 L 378.214844 302.4375 L 350 285 "/>
<path style="fill-rule:nonzero;fill:rgb(53%,27%,7%);fill-opacity:1;stroke-width:1;stroke-linecap:butt;stroke-linejoin:miter;stroke:rgb(0%,0%,0%);stroke-opacity:1;stroke-miterlimit:10;" d="M 1018.214844 156 C 1018.214844 167.714844 1008.714844 177.214844 997 177.214844 C 985.285156 177.214844 975.785156 167.714844 975.785156 156 C 975.785156 144.285156 985.285156 134.785156 997 134.785156 C 1008.714844 134.785156 1018.214844 144.285156 1018.214844 156 "/>
<path style="fill-rule:nonzero;fill:rgb(53%,27%,7%);fill-opacity:1;stroke-width:1;stroke-linecap:butt;stroke-linejoin:miter;stroke:rgb(0%,0%,0%);stroke-opacity:1;stroke-miterlimit:10;" d="M 711.214844 389 C 711.214844 400.714844 701.714844 410.214844 690 410.214844 C 678.285156 410.214844 668.785156 400.714844 668.785156 389 C 668.785156 377.285156 678.285156 367.785156 690 367.785156 C 701.714844 367.785156 711.214844 377.285156 711.214844 389 "/>
<path style="fill-rule:nonzero;fill:rgb(53%,27%,7%);fill-opacity:1;stroke-width:1;stroke-linecap:butt;stroke-linejoin:miter;stroke:rgb(0%,0%,0%);stroke-opacity:1;stroke-miterlimit:10;" d="M 108.214844 95 C 108.214844 106.714844 98.714844 116.214844 87 116.214844 C 75.285156 116.214844 65.785156 106.714844 65.785156 95 C 65.785156 83.285156 75.285156 73.785156 87 73.785156 C 98.714844 73.785156 108.214844 83.285156 108.214844 95 "/>
<path style="fill-rule:nonzero;fill:rgb(53%,27%,7%);fill-opacity:1;stroke-width:1;stroke-linecap:butt;stroke-linejoin:miter;stroke:rgb(0%,0%,0%);stroke-opacity:1;stroke-miterlimit:10;" d="M 285.214844 161 C 285.214844 172.714844 275.714844 182.214844 264 182.214844 C 252.285156 182.214844 242.785156 172.714844 242.785156 161 C 242.785156 149.285156 252.285156 139.785156 264 139.785156 C 275.714844 139.785156 285.214844 149.285156 285.214844 161 "/>
<path style="fill-rule:nonzero;fill:rgb(53%,27%,7%);fill-opacity:1;stroke-width:1;stroke-linecap:butt;stroke-linejoin:miter;stroke:rgb(0%,0%,0%);stroke-opacity:1;stroke-miterlimit:10;" d="M 686.214844 261 C 686.214844 272.714844 676.714844 282.214844 665 282.214844 C 653.285156 282.214844 643.785156 272.714844 643.785156 261 C 643.785156 249.285156 653.285156 239.785156 665 239.785156 C 676.714844 239.785156 686.214844 249.285156 686.214844 261 "/>
</g>
</svg>
