<?xml version="1.0" encoding="UTF-8"?>
<svg xmlns="http://www.w3.org/2000/svg" xmlns:xlink="http://www.w3.org/1999/xlink" width="1179pt" height="517pt" viewBox="0 0 1179 517" version="1.1">
<g id="surface971">
<rect x="0" y="0" width="1179" height="517" style="fill:rgb(90%,90%,90%);fill-opacity:1;stroke:none;"/>
<path style="fill-rule:nonzero;fill:rgb(100%,51%,0%);fill-opacity:1;stroke-width:1;stroke-linecap:butt;stroke-linejoin:miter;stroke:rgb(0%,0%,0%);stroke-opacity:1;stroke-miterlimit:10;" d="M 636.214844 278 C 636.214844 289.714844 626.714844 299.214844 615 299.214844 C 603.285156 299.214844 593.785156 289.714844 593.785156 278 C 593.785156 266.285156 603.285156 256.785156 615 256.785156 C 626.714844 256.785156 636.214844 266.285156 636.214844 278 "/>
<path style="fill-rule:nonzero;fill:rgb(100%,51%,0%);fill-opacity:1;stroke-width:1;stroke-linecap:butt;stroke-linejoin:miter;stroke:rgb(0%,0%,0%);stroke-opacity:1;stroke-miterlimit:10;" d="M 972.214844 352 C 972.214844 363.714844 962.714844 373.214844 951 373.214844 C 939.285156 373.214844 929.785156 363.714844 929.785156 352 C 929.785156 340.285156 939.285156 330.785156 951 330.785156 C 962.714844 330.785156 972.214844 340.285156 972.214844 352 "/>
<path style="fill-rule:nonzero;fill:rgb(100%,51%,0%);fill-opacity:1;stroke-width:1;stroke-linecap:butt;stroke-linejoin:miter;stroke:rgb(0%,0%,0%);stroke-opacity:1;stroke-miterlimit:10;" d="M 277.214844 87 C 277.214844 98.714844 267.714844 108.214844 256 108.214844 C 244.285156 108.214844 234.785156 98.714844 234.785156 87 C 234.785156 75.285156 244.285156 65.785156 256 65.785156 C 267.714844 65.785156 277.214844 75.285156 277.214844 87 "/>
<path style="fill-rule:nonzero;fill:rgb(100%,51%,0%);fill-opacity:1;stroke-width:1;stroke-linecap:butt;stroke-linejoin:miter;stroke:rgb(0%,0%,0%);stroke-opacity:1;stroke-miterlimit:10;" d="M 315.214844 368 C 315.214844 379.714844 305.714844 389.214844 294 389.214844 C 282.285156 389.214844 272.785156 379.714844 272.785156 368 C 272.785156 356.285156 282.285156 346.785156 294 346.785156 C 305.714844 346.785156 315.214844 356.285156 315.214844 368 "/>
<path style="fill-rule:nonzero;fill:rgb(35%,70%,90%);fill-opacity:1;stroke-width:1;stroke-linecap:butt;stroke-linejoin:miter;stroke:rgb(0%,0%,0%);stroke-opacity:1;stroke-miterlimit:10;" d="M 421 353 L 450.664062 353 L 462.664062 324.785156 L 474.664062 353 L 504.332031 353 L 480.332031 370.4375 L 488.417969 401.980469 L 462.664062 384.542969 L 436.914062 401.980469 L 449.214844 370.4375 L 421 353 "/>
<path style="fill-rule:nonzero;fill:rgb(35%,70%,90%);fill-opacity:1;stroke-width:1;stroke-linecap:butt;stroke-linejoin:miter;stroke:rgb(0%,0%,0%);stroke-opacity:1;stroke-miterlimit:10;" d="M 762 172 L 791.664062 172 L 803.664062 143.785156 L 815.664062 172 L 845.332031 172 L 821.332031 189.4375 L 829.417969 220.980469 L 803.664062 203.542969 L 777.914062 220.980469 L 790.214844 189.4375 L 762 172 "/>
<path style="fill-rule:nonzero;fill:rgb(35%,70%,90%);fill-opacity:1;stroke-width:1;stroke-linecap:butt;stroke-linejoin:miter;stroke:rgb(0%,0%,0%);stroke-opacity:1;stroke-miterlimit:10;" d="M 140 424 L 169.664062 424 L 181.664062 395.785156 L 193.664062 424 L 223.332031 424 L 199.332031 441.4375 L 207.417969 472.980469 L 181.664062 455.542969 L 155.914062 472.980469 L 168.214844 441.4375 L 140 424 "/>
</g>
</svg>
