<?xml version="1.0" encoding="UTF-8"?>
<svg xmlns="http://www.w3.org/2000/svg" xmlns:xlink="http://www.w3.org/1999/xlink" width="1179pt" height="517pt" viewBox="0 0 1179 517" version="1.1">
<g id="surface816">
<rect x="0" y="0" width="1179" height="517" style="fill:rgb(90%,90%,90%);fill-opacity:1;stroke:none;"/>
<path style="fill-rule:nonzero;fill:rgb(55%,51%,53%);fill-opacity:1;stroke-width:1;stroke-linecap:butt;stroke-linejoin:miter;stroke:rgb(0%,0%,0%);stroke-opacity:1;stroke-miterlimit:10;" d="M 234 54 L 208.019531 99 L 259.980469 99 L 234 54 "/>
<path style="fill-rule:nonzero;fill:rgb(55%,51%,53%);fill-opacity:1;stroke-width:1;stroke-linecap:butt;stroke-linejoin:miter;stroke:rgb(0%,0%,0%);stroke-opacity:1;stroke-miterlimit:10;" d="M 971 348 L 945.019531 393 L 996.980469 393 L 971 348 "/>
<path style="fill-rule:nonzero;fill:rgb(55%,51%,53%);fill-opacity:1;stroke-width:1;stroke-linecap:butt;stroke-linejoin:miter;stroke:rgb(0%,0%,0%);stroke-opacity:1;stroke-miterlimit:10;" d="M 236 284 L 210.019531 329 L 261.980469 329 L 236 284 "/>
<path style="fill-rule:nonzero;fill:rgb(55%,51%,53%);fill-opacity:1;stroke-width:1;stroke-linecap:butt;stroke-linejoin:miter;stroke:rgb(0%,0%,0%);stroke-opacity:1;stroke-miterlimit:10;" d="M 720 308 L 694.019531 353 L 745.980469 353 L 720 308 "/>
<path style="fill-rule:nonzero;fill:rgb(55%,51%,53%);fill-opacity:1;stroke-width:1;stroke-linecap:butt;stroke-linejoin:miter;stroke:rgb(0%,0%,0%);stroke-opacity:1;stroke-miterlimit:10;" d="M 378 370 L 352.019531 415 L 403.980469 415 L 378 370 "/>
<path style="fill-rule:nonzero;fill:rgb(55%,51%,53%);fill-opacity:1;stroke-width:1;stroke-linecap:butt;stroke-linejoin:miter;stroke:rgb(0%,0%,0%);stroke-opacity:1;stroke-miterlimit:10;" d="M 924 226 L 953.664062 226 L 965.664062 197.785156 L 977.664062 226 L 1007.332031 226 L 983.332031 243.4375 L 991.417969 274.980469 L 965.664062 257.542969 L 939.914062 274.980469 L 952.214844 243.4375 L 924 226 "/>
<path style="fill-rule:nonzero;fill:rgb(55%,51%,53%);fill-opacity:1;stroke-width:1;stroke-linecap:butt;stroke-linejoin:miter;stroke:rgb(0%,0%,0%);stroke-opacity:1;stroke-miterlimit:10;" d="M 474 187 L 503.664062 187 L 515.664062 158.785156 L 527.664062 187 L 557.332031 187 L 533.332031 204.4375 L 541.417969 235.980469 L 515.664062 218.542969 L 489.914062 235.980469 L 502.214844 204.4375 L 474 187 "/>
<path style="fill-rule:nonzero;fill:rgb(55%,51%,53%);fill-opacity:1;stroke-width:1;stroke-linecap:butt;stroke-linejoin:miter;stroke:rgb(0%,0%,0%);stroke-opacity:1;stroke-miterlimit:10;" d="M 414 80 L 443.664062 80 L 455.664062 51.785156 L 467.664062 80 L 497.332031 80 L 473.332031 97.4375 L 481.417969 128.980469 L 455.664062 111.542969 L 429.914062 128.980469 L 442.214844 97.4375 L 414 80 "/>
<path style="fill-rule:nonzero;fill:rgb(55%,51%,53%);fill-opacity:1;stroke-width:1;stroke-linecap:butt;stroke-linejoin:miter;stroke:rgb(0%,0%,0%);stroke-opacity:1;stroke-miterlimit:10;" d="M 101 183 L 130.664062 183 L 142.664062 154.785156 L 154.664062 183 L 184.332031 183 L 160.332031 200.4375 L 168.417969 231.980469 L 142.664062 214.542969 L 116.914062 231.980469 L 129.214844 200.4375 L 101 183 "/>
</g>
</svg>
