<?xml version="1.0" encoding="UTF-8"?>
<svg xmlns="http://www.w3.org/2000/svg" xmlns:xlink="http://www.w3.org/1999/xlink" width="1179pt" height="517pt" viewBox="0 0 1179 517" version="1.1">
<g id="surface941">
<rect x="0" y="0" width="1179" height="517" style="fill:rgb(90%,90%,90%);fill-opacity:1;stroke:none;"/>
<path style="fill-rule:nonzero;fill:rgb(53%,27%,7%);fill-opacity:1;stroke-width:1;stroke-linecap:butt;stroke-linejoin:miter;stroke:rgb(0%,0%,0%);stroke-opacity:1;stroke-miterlimit:10;" d="M 361 255.601562 C 361 241.199219 337 241.199219 337 255.601562 C 337 270 361 272.398438 361 284.398438 C 361 272.398438 385 270 385 255.601562 C 385 241.199219 361 241.199219 361 255.601562 "/>
<path style="fill-rule:nonzero;fill:rgb(53%,27%,7%);fill-opacity:1;stroke-width:1;stroke-linecap:butt;stroke-linejoin:miter;stroke:rgb(0%,0%,0%);stroke-opacity:1;stroke-miterlimit:10;" d="M 133 230.601562 C 133 216.199219 109 216.199219 109 230.601562 C 109 245 133 247.398438 133 259.398438 C 133 247.398438 157 245 157 230.601562 C 157 216.199219 133 216.199219 133 230.601562 "/>
<path style="fill-rule:nonzero;fill:rgb(53%,27%,7%);fill-opacity:1;stroke-width:1;stroke-linecap:butt;stroke-linejoin:miter;stroke:rgb(0%,0%,0%);stroke-opacity:1;stroke-miterlimit:10;" d="M 255.214844 314 C 255.214844 325.714844 245.714844 335.214844 234 335.214844 C 222.285156 335.214844 212.785156 325.714844 212.785156 314 C 212.785156 302.285156 222.285156 292.785156 234 292.785156 C 245.714844 292.785156 255.214844 302.285156 255.214844 314 "/>
<path style="fill-rule:nonzero;fill:rgb(100%,51%,0%);fill-opacity:1;stroke-width:1;stroke-linecap:butt;stroke-linejoin:miter;stroke:rgb(0%,0%,0%);stroke-opacity:1;stroke-miterlimit:10;" d="M 977.214844 218 C 977.214844 229.714844 967.714844 239.214844 956 239.214844 C 944.285156 239.214844 934.785156 229.714844 934.785156 218 C 934.785156 206.285156 944.285156 196.785156 956 196.785156 C 967.714844 196.785156 977.214844 206.285156 977.214844 218 "/>
<path style="fill-rule:nonzero;fill:rgb(100%,51%,0%);fill-opacity:1;stroke-width:1;stroke-linecap:butt;stroke-linejoin:miter;stroke:rgb(0%,0%,0%);stroke-opacity:1;stroke-miterlimit:10;" d="M 1051.214844 95 C 1051.214844 106.714844 1041.714844 116.214844 1030 116.214844 C 1018.285156 116.214844 1008.785156 106.714844 1008.785156 95 C 1008.785156 83.285156 1018.285156 73.785156 1030 73.785156 C 1041.714844 73.785156 1051.214844 83.285156 1051.214844 95 "/>
<path style="fill-rule:nonzero;fill:rgb(100%,51%,0%);fill-opacity:1;stroke-width:1;stroke-linecap:butt;stroke-linejoin:miter;stroke:rgb(0%,0%,0%);stroke-opacity:1;stroke-miterlimit:10;" d="M 712 107.601562 C 712 93.199219 688 93.199219 688 107.601562 C 688 122 712 124.398438 712 136.398438 C 712 124.398438 736 122 736 107.601562 C 736 93.199219 712 93.199219 712 107.601562 "/>
</g>
</svg>
