<?xml version="1.0" encoding="UTF-8"?>
<svg xmlns="http://www.w3.org/2000/svg" xmlns:xlink="http://www.w3.org/1999/xlink" width="1179pt" height="517pt" viewBox="0 0 1179 517" version="1.1">
<g id="surface396">
<rect x="0" y="0" width="1179" height="517" style="fill:rgb(90%,90%,90%);fill-opacity:1;stroke:none;"/>
<path style="fill-rule:nonzero;fill:rgb(35%,70%,90%);fill-opacity:1;stroke-width:1;stroke-linecap:butt;stroke-linejoin:miter;stroke:rgb(0%,0%,0%);stroke-opacity:1;stroke-miterlimit:10;" d="M 637 135 L 666.664062 135 L 678.664062 106.785156 L 690.664062 135 L 720.332031 135 L 696.332031 152.4375 L 704.417969 183.980469 L 678.664062 166.542969 L 652.914062 183.980469 L 665.214844 152.4375 L 637 135 "/>
<path style="fill-rule:nonzero;fill:rgb(35%,70%,90%);fill-opacity:1;stroke-width:1;stroke-linecap:butt;stroke-linejoin:miter;stroke:rgb(0%,0%,0%);stroke-opacity:1;stroke-miterlimit:10;" d="M 288 104 L 317.664062 104 L 329.664062 75.785156 L 341.664062 104 L 371.332031 104 L 347.332031 121.4375 L 355.417969 152.980469 L 329.664062 135.542969 L 303.914062 152.980469 L 316.214844 121.4375 L 288 104 "/>
<path style="fill-rule:nonzero;fill:rgb(35%,70%,90%);fill-opacity:1;stroke-width:1;stroke-linecap:butt;stroke-linejoin:miter;stroke:rgb(0%,0%,0%);stroke-opacity:1;stroke-miterlimit:10;" d="M 901 159 L 930.664062 159 L 942.664062 130.785156 L 954.664062 159 L 984.332031 159 L 960.332031 176.4375 L 968.417969 207.980469 L 942.664062 190.542969 L 916.914062 207.980469 L 929.214844 176.4375 L 901 159 "/>
<path style="fill-rule:nonzero;fill:rgb(35%,70%,90%);fill-opacity:1;stroke-width:1;stroke-linecap:butt;stroke-linejoin:miter;stroke:rgb(0%,0%,0%);stroke-opacity:1;stroke-miterlimit:10;" d="M 1009 344 L 1038.664062 344 L 1050.664062 315.785156 L 1062.664062 344 L 1092.332031 344 L 1068.332031 361.4375 L 1076.417969 392.980469 L 1050.664062 375.542969 L 1024.914062 392.980469 L 1037.214844 361.4375 L 1009 344 "/>
<path style="fill-rule:nonzero;fill:rgb(53%,27%,7%);fill-opacity:1;stroke-width:1;stroke-linecap:butt;stroke-linejoin:miter;stroke:rgb(0%,0%,0%);stroke-opacity:1;stroke-miterlimit:10;" d="M 335 275 L 309.019531 320 L 360.980469 320 L 335 275 "/>
<path style="fill-rule:nonzero;fill:rgb(53%,27%,7%);fill-opacity:1;stroke-width:1;stroke-linecap:butt;stroke-linejoin:miter;stroke:rgb(0%,0%,0%);stroke-opacity:1;stroke-miterlimit:10;" d="M 129 115 L 103.019531 160 L 154.980469 160 L 129 115 "/>
<path style="fill-rule:nonzero;fill:rgb(53%,27%,7%);fill-opacity:1;stroke-width:1;stroke-linecap:butt;stroke-linejoin:miter;stroke:rgb(0%,0%,0%);stroke-opacity:1;stroke-miterlimit:10;" d="M 558 230 L 532.019531 275 L 583.980469 275 L 558 230 "/>
<path style="fill-rule:nonzero;fill:rgb(53%,27%,7%);fill-opacity:1;stroke-width:1;stroke-linecap:butt;stroke-linejoin:miter;stroke:rgb(0%,0%,0%);stroke-opacity:1;stroke-miterlimit:10;" d="M 180 394 L 154.019531 439 L 205.980469 439 L 180 394 "/>
</g>
</svg>
