<?xml version="1.0" encoding="UTF-8"?>
<svg xmlns="http://www.w3.org/2000/svg" xmlns:xlink="http://www.w3.org/1999/xlink" width="1179pt" height="517pt" viewBox="0 0 1179 517" version="1.1">
<g id="surface361">
<rect x="0" y="0" width="1179" height="517" style="fill:rgb(90%,90%,90%);fill-opacity:1;stroke:none;"/>
<path style="fill-rule:nonzero;fill:rgb(35%,70%,90%);fill-opacity:1;stroke-width:1;stroke-linecap:butt;stroke-linejoin:miter;stroke:rgb(0%,0%,0%);stroke-opacity:1;stroke-miterlimit:10;" d="M 975 268 L 1004.664062 268 L 1016.664062 239.785156 L 1028.664062 268 L 1058.332031 268 L 1034.332031 285.4375 L 1042.417969 316.980469 L 1016.664062 299.542969 L 990.914062 316.980469 L 1003.214844 285.4375 L 975 268 "/>
<path style="fill-rule:nonzero;fill:rgb(35%,70%,90%);fill-opacity:1;stroke-width:1;stroke-linecap:butt;stroke-linejoin:miter;stroke:rgb(0%,0%,0%);stroke-opacity:1;stroke-miterlimit:10;" d="M 536 405 L 565.664062 405 L 577.664062 376.785156 L 589.664062 405 L 619.332031 405 L 595.332031 422.4375 L 603.417969 453.980469 L 577.664062 436.542969 L 551.914062 453.980469 L 564.214844 422.4375 L 536 405 "/>
<path style="fill-rule:nonzero;fill:rgb(35%,70%,90%);fill-opacity:1;stroke-width:1;stroke-linecap:butt;stroke-linejoin:miter;stroke:rgb(0%,0%,0%);stroke-opacity:1;stroke-miterlimit:10;" d="M 415 259 L 444.664062 259 L 456.664062 230.785156 L 468.664062 259 L 498.332031 259 L 474.332031 276.4375 L 482.417969 307.980469 L 456.664062 290.542969 L 430.914062 307.980469 L 443.214844 276.4375 L 415 259 "/>
<path style="fill-rule:nonzero;fill:rgb(35%,70%,90%);fill-opacity:1;stroke-width:1;stroke-linecap:butt;stroke-linejoin:miter;stroke:rgb(0%,0%,0%);stroke-opacity:1;stroke-miterlimit:10;" d="M 757 218 L 786.664062 218 L 798.664062 189.785156 L 810.664062 218 L 840.332031 218 L 816.332031 235.4375 L 824.417969 266.980469 L 798.664062 249.542969 L 772.914062 266.980469 L 785.214844 235.4375 L 757 218 "/>
<path style="fill-rule:nonzero;fill:rgb(100%,51%,0%);fill-opacity:1;stroke-width:1;stroke-linecap:butt;stroke-linejoin:miter;stroke:rgb(0%,0%,0%);stroke-opacity:1;stroke-miterlimit:10;" d="M 750.214844 412 C 750.214844 423.714844 740.714844 433.214844 729 433.214844 C 717.285156 433.214844 707.785156 423.714844 707.785156 412 C 707.785156 400.285156 717.285156 390.785156 729 390.785156 C 740.714844 390.785156 750.214844 400.285156 750.214844 412 "/>
<path style="fill-rule:nonzero;fill:rgb(100%,51%,0%);fill-opacity:1;stroke-width:1;stroke-linecap:butt;stroke-linejoin:miter;stroke:rgb(0%,0%,0%);stroke-opacity:1;stroke-miterlimit:10;" d="M 594.214844 140 C 594.214844 151.714844 584.714844 161.214844 573 161.214844 C 561.285156 161.214844 551.785156 151.714844 551.785156 140 C 551.785156 128.285156 561.285156 118.785156 573 118.785156 C 584.714844 118.785156 594.214844 128.285156 594.214844 140 "/>
<path style="fill-rule:nonzero;fill:rgb(100%,51%,0%);fill-opacity:1;stroke-width:1;stroke-linecap:butt;stroke-linejoin:miter;stroke:rgb(0%,0%,0%);stroke-opacity:1;stroke-miterlimit:10;" d="M 875.214844 400 C 875.214844 411.714844 865.714844 421.214844 854 421.214844 C 842.285156 421.214844 832.785156 411.714844 832.785156 400 C 832.785156 388.285156 842.285156 378.785156 854 378.785156 C 865.714844 378.785156 875.214844 388.285156 875.214844 400 "/>
</g>
</svg>
