<?xml version="1.0" encoding="UTF-8"?>
<svg xmlns="http://www.w3.org/2000/svg" xmlns:xlink="http://www.w3.org/1999/xlink" width="1179pt" height="517pt" viewBox="0 0 1179 517" version="1.1">
<g id="surface966">
<rect x="0" y="0" width="1179" height="517" style="fill:rgb(90%,90%,90%);fill-opacity:1;stroke:none;"/>
<path style="fill-rule:nonzero;fill:rgb(53%,27%,7%);fill-opacity:1;stroke-width:1;stroke-linecap:butt;stroke-linejoin:miter;stroke:rgb(0%,0%,0%);stroke-opacity:1;stroke-miterlimit:10;" d="M 1029 305 L 1058.664062 305 L 1070.664062 276.785156 L 1082.664062 305 L 1112.332031 305 L 1088.332031 322.4375 L 1096.417969 353.980469 L 1070.664062 336.542969 L 1044.914062 353.980469 L 1057.214844 322.4375 L 1029 305 "/>
<path style="fill-rule:nonzero;fill:rgb(53%,27%,7%);fill-opacity:1;stroke-width:1;stroke-linecap:butt;stroke-linejoin:miter;stroke:rgb(0%,0%,0%);stroke-opacity:1;stroke-miterlimit:10;" d="M 457 118 L 486.664062 118 L 498.664062 89.785156 L 510.664062 118 L 540.332031 118 L 516.332031 135.4375 L 524.417969 166.980469 L 498.664062 149.542969 L 472.914062 166.980469 L 485.214844 135.4375 L 457 118 "/>
<path style="fill-rule:nonzero;fill:rgb(53%,27%,7%);fill-opacity:1;stroke-width:1;stroke-linecap:butt;stroke-linejoin:miter;stroke:rgb(0%,0%,0%);stroke-opacity:1;stroke-miterlimit:10;" d="M 481 381 L 510.664062 381 L 522.664062 352.785156 L 534.664062 381 L 564.332031 381 L 540.332031 398.4375 L 548.417969 429.980469 L 522.664062 412.542969 L 496.914062 429.980469 L 509.214844 398.4375 L 481 381 "/>
<path style="fill-rule:nonzero;fill:rgb(53%,27%,7%);fill-opacity:1;stroke-width:1;stroke-linecap:butt;stroke-linejoin:miter;stroke:rgb(0%,0%,0%);stroke-opacity:1;stroke-miterlimit:10;" d="M 768 277 L 797.664062 277 L 809.664062 248.785156 L 821.664062 277 L 851.332031 277 L 827.332031 294.4375 L 835.417969 325.980469 L 809.664062 308.542969 L 783.914062 325.980469 L 796.214844 294.4375 L 768 277 "/>
<path style="fill-rule:nonzero;fill:rgb(55%,51%,53%);fill-opacity:1;stroke-width:1;stroke-linecap:butt;stroke-linejoin:miter;stroke:rgb(0%,0%,0%);stroke-opacity:1;stroke-miterlimit:10;" d="M 902 190 L 931.664062 190 L 943.664062 161.785156 L 955.664062 190 L 985.332031 190 L 961.332031 207.4375 L 969.417969 238.980469 L 943.664062 221.542969 L 917.914062 238.980469 L 930.214844 207.4375 L 902 190 "/>
<path style="fill-rule:nonzero;fill:rgb(55%,51%,53%);fill-opacity:1;stroke-width:1;stroke-linecap:butt;stroke-linejoin:miter;stroke:rgb(0%,0%,0%);stroke-opacity:1;stroke-miterlimit:10;" d="M 181 115 L 210.664062 115 L 222.664062 86.785156 L 234.664062 115 L 264.332031 115 L 240.332031 132.4375 L 248.417969 163.980469 L 222.664062 146.542969 L 196.914062 163.980469 L 209.214844 132.4375 L 181 115 "/>
<path style="fill-rule:nonzero;fill:rgb(55%,51%,53%);fill-opacity:1;stroke-width:1;stroke-linecap:butt;stroke-linejoin:miter;stroke:rgb(0%,0%,0%);stroke-opacity:1;stroke-miterlimit:10;" d="M 210 265 L 239.664062 265 L 251.664062 236.785156 L 263.664062 265 L 293.332031 265 L 269.332031 282.4375 L 277.417969 313.980469 L 251.664062 296.542969 L 225.914062 313.980469 L 238.214844 282.4375 L 210 265 "/>
<path style="fill-rule:nonzero;fill:rgb(55%,51%,53%);fill-opacity:1;stroke-width:1;stroke-linecap:butt;stroke-linejoin:miter;stroke:rgb(0%,0%,0%);stroke-opacity:1;stroke-miterlimit:10;" d="M 279 432 L 308.664062 432 L 320.664062 403.785156 L 332.664062 432 L 362.332031 432 L 338.332031 449.4375 L 346.417969 480.980469 L 320.664062 463.542969 L 294.914062 480.980469 L 307.214844 449.4375 L 279 432 "/>
</g>
</svg>
