<?xml version="1.0" encoding="UTF-8"?>
<svg xmlns="http://www.w3.org/2000/svg" xmlns:xlink="http://www.w3.org/1999/xlink" width="1179pt" height="517pt" viewBox="0 0 1179 517" version="1.1">
<g id="surface191">
<rect x="0" y="0" width="1179" height="517" style="fill:rgb(90%,90%,90%);fill-opacity:1;stroke:none;"/>
<path style="fill-rule:nonzero;fill:rgb(35%,70%,90%);fill-opacity:1;stroke-width:1;stroke-linecap:butt;stroke-linejoin:miter;stroke:rgb(0%,0%,0%);stroke-opacity:1;stroke-miterlimit:10;" d="M 82 366 L 111.664062 366 L 123.664062 337.785156 L 135.664062 366 L 165.332031 366 L 141.332031 383.4375 L 149.417969 414.980469 L 123.664062 397.542969 L 97.914062 414.980469 L 110.214844 383.4375 L 82 366 "/>
<path style="fill-rule:nonzero;fill:rgb(35%,70%,90%);fill-opacity:1;stroke-width:1;stroke-linecap:butt;stroke-linejoin:miter;stroke:rgb(0%,0%,0%);stroke-opacity:1;stroke-miterlimit:10;" d="M 409 382 L 438.664062 382 L 450.664062 353.785156 L 462.664062 382 L 492.332031 382 L 468.332031 399.4375 L 476.417969 430.980469 L 450.664062 413.542969 L 424.914062 430.980469 L 437.214844 399.4375 L 409 382 "/>
<path style="fill-rule:nonzero;fill:rgb(35%,70%,90%);fill-opacity:1;stroke-width:1;stroke-linecap:butt;stroke-linejoin:miter;stroke:rgb(0%,0%,0%);stroke-opacity:1;stroke-miterlimit:10;" d="M 169 136 L 198.664062 136 L 210.664062 107.785156 L 222.664062 136 L 252.332031 136 L 228.332031 153.4375 L 236.417969 184.980469 L 210.664062 167.542969 L 184.914062 184.980469 L 197.214844 153.4375 L 169 136 "/>
<path style="fill-rule:nonzero;fill:rgb(100%,51%,0%);fill-opacity:1;stroke-width:1;stroke-linecap:butt;stroke-linejoin:miter;stroke:rgb(0%,0%,0%);stroke-opacity:1;stroke-miterlimit:10;" d="M 215 345 L 244.664062 345 L 256.664062 316.785156 L 268.664062 345 L 298.332031 345 L 274.332031 362.4375 L 282.417969 393.980469 L 256.664062 376.542969 L 230.914062 393.980469 L 243.214844 362.4375 L 215 345 "/>
<path style="fill-rule:nonzero;fill:rgb(100%,51%,0%);fill-opacity:1;stroke-width:1;stroke-linecap:butt;stroke-linejoin:miter;stroke:rgb(0%,0%,0%);stroke-opacity:1;stroke-miterlimit:10;" d="M 934.785156 405.785156 L 934.785156 448.214844 L 977.214844 448.214844 L 977.214844 405.785156 L 934.785156 405.785156 "/>
<path style="fill-rule:nonzero;fill:rgb(100%,51%,0%);fill-opacity:1;stroke-width:1;stroke-linecap:butt;stroke-linejoin:miter;stroke:rgb(0%,0%,0%);stroke-opacity:1;stroke-miterlimit:10;" d="M 789.785156 272.785156 L 789.785156 315.214844 L 832.214844 315.214844 L 832.214844 272.785156 L 789.785156 272.785156 "/>
<path style="fill-rule:nonzero;fill:rgb(100%,51%,0%);fill-opacity:1;stroke-width:1;stroke-linecap:butt;stroke-linejoin:miter;stroke:rgb(0%,0%,0%);stroke-opacity:1;stroke-miterlimit:10;" d="M 731.785156 148.785156 L 731.785156 191.214844 L 774.214844 191.214844 L 774.214844 148.785156 L 731.785156 148.785156 "/>
<path style="fill-rule:nonzero;fill:rgb(35%,70%,90%);fill-opacity:1;stroke-width:1;stroke-linecap:butt;stroke-linejoin:miter;stroke:rgb(0%,0%,0%);stroke-opacity:1;stroke-miterlimit:10;" d="M 805.785156 396.785156 L 805.785156 439.214844 L 848.214844 439.214844 L 848.214844 396.785156 L 805.785156 396.785156 "/>
<path style="fill-rule:nonzero;fill:rgb(100%,51%,0%);fill-opacity:1;stroke-width:1;stroke-linecap:butt;stroke-linejoin:miter;stroke:rgb(0%,0%,0%);stroke-opacity:1;stroke-miterlimit:10;" d="M 948.785156 281.785156 L 948.785156 324.214844 L 991.214844 324.214844 L 991.214844 281.785156 L 948.785156 281.785156 "/>
</g>
</svg>
