<?xml version="1.0" encoding="UTF-8"?>
<svg xmlns="http://www.w3.org/2000/svg" xmlns:xlink="http://www.w3.org/1999/xlink" width="1179pt" height="517pt" viewBox="0 0 1179 517" version="1.1">
<g id="surface166">
<rect x="0" y="0" width="1179" height="517" style="fill:rgb(90%,90%,90%);fill-opacity:1;stroke:none;"/>
<path style="fill-rule:nonzero;fill:rgb(55%,51%,53%);fill-opacity:1;stroke-width:1;stroke-linecap:butt;stroke-linejoin:miter;stroke:rgb(0%,0%,0%);stroke-opacity:1;stroke-miterlimit:10;" d="M 386.214844 397 C 386.214844 408.714844 376.714844 418.214844 365 418.214844 C 353.285156 418.214844 343.785156 408.714844 343.785156 397 C 343.785156 385.285156 353.285156 375.785156 365 375.785156 C 376.714844 375.785156 386.214844 385.285156 386.214844 397 "/>
<path style="fill-rule:nonzero;fill:rgb(55%,51%,53%);fill-opacity:1;stroke-width:1;stroke-linecap:butt;stroke-linejoin:miter;stroke:rgb(0%,0%,0%);stroke-opacity:1;stroke-miterlimit:10;" d="M 221.214844 232 C 221.214844 243.714844 211.714844 253.214844 200 253.214844 C 188.285156 253.214844 178.785156 243.714844 178.785156 232 C 178.785156 220.285156 188.285156 210.785156 200 210.785156 C 211.714844 210.785156 221.214844 220.285156 221.214844 232 "/>
<path style="fill-rule:nonzero;fill:rgb(55%,51%,53%);fill-opacity:1;stroke-width:1;stroke-linecap:butt;stroke-linejoin:miter;stroke:rgb(0%,0%,0%);stroke-opacity:1;stroke-miterlimit:10;" d="M 193 391 L 167.019531 436 L 218.980469 436 L 193 391 "/>
<path style="fill-rule:nonzero;fill:rgb(55%,51%,53%);fill-opacity:1;stroke-width:1;stroke-linecap:butt;stroke-linejoin:miter;stroke:rgb(0%,0%,0%);stroke-opacity:1;stroke-miterlimit:10;" d="M 405 211 L 379.019531 256 L 430.980469 256 L 405 211 "/>
<path style="fill-rule:nonzero;fill:rgb(53%,27%,7%);fill-opacity:1;stroke-width:1;stroke-linecap:butt;stroke-linejoin:miter;stroke:rgb(0%,0%,0%);stroke-opacity:1;stroke-miterlimit:10;" d="M 724 257 L 698.019531 302 L 749.980469 302 L 724 257 "/>
<path style="fill-rule:nonzero;fill:rgb(53%,27%,7%);fill-opacity:1;stroke-width:1;stroke-linecap:butt;stroke-linejoin:miter;stroke:rgb(0%,0%,0%);stroke-opacity:1;stroke-miterlimit:10;" d="M 871 312 L 845.019531 357 L 896.980469 357 L 871 312 "/>
<path style="fill-rule:nonzero;fill:rgb(53%,27%,7%);fill-opacity:1;stroke-width:1;stroke-linecap:butt;stroke-linejoin:miter;stroke:rgb(0%,0%,0%);stroke-opacity:1;stroke-miterlimit:10;" d="M 929.214844 103 C 929.214844 114.714844 919.714844 124.214844 908 124.214844 C 896.285156 124.214844 886.785156 114.714844 886.785156 103 C 886.785156 91.285156 896.285156 81.785156 908 81.785156 C 919.714844 81.785156 929.214844 91.285156 929.214844 103 "/>
<path style="fill-rule:nonzero;fill:rgb(53%,27%,7%);fill-opacity:1;stroke-width:1;stroke-linecap:butt;stroke-linejoin:miter;stroke:rgb(0%,0%,0%);stroke-opacity:1;stroke-miterlimit:10;" d="M 758.214844 430 C 758.214844 441.714844 748.714844 451.214844 737 451.214844 C 725.285156 451.214844 715.785156 441.714844 715.785156 430 C 715.785156 418.285156 725.285156 408.785156 737 408.785156 C 748.714844 408.785156 758.214844 418.285156 758.214844 430 "/>
</g>
</svg>
