<?xml version="1.0" encoding="UTF-8"?>
<svg xmlns="http://www.w3.org/2000/svg" xmlns:xlink="http://www.w3.org/1999/xlink" width="1179pt" height="517pt" viewBox="0 0 1179 517" version="1.1">
<g id="surface1471">
<rect x="0" y="0" width="1179" height="517" style="fill:rgb(90%,90%,90%);fill-opacity:1;stroke:none;"/>
<path style="fill-rule:nonzero;fill:rgb(100%,51%,0%);fill-opacity:1;stroke-width:1;stroke-linecap:butt;stroke-linejoin:miter;stroke:rgb(0%,0%,0%);stroke-opacity:1;stroke-miterlimit:10;" d="M 987 421 L 1016.664062 421 L 1028.664062 392.785156 L 1040.664062 421 L 1070.332031 421 L 1046.332031 438.4375 L 1054.417969 469.980469 L 1028.664062 452.542969 L 1002.914062 469.980469 L 1015.214844 438.4375 L 987 421 "/>
<path style="fill-rule:nonzero;fill:rgb(100%,51%,0%);fill-opacity:1;stroke-width:1;stroke-linecap:butt;stroke-linejoin:miter;stroke:rgb(0%,0%,0%);stroke-opacity:1;stroke-miterlimit:10;" d="M 653 231 L 682.664062 231 L 694.664062 202.785156 L 706.664062 231 L 736.332031 231 L 712.332031 248.4375 L 720.417969 279.980469 L 694.664062 262.542969 L 668.914062 279.980469 L 681.214844 248.4375 L 653 231 "/>
<path style="fill-rule:nonzero;fill:rgb(100%,51%,0%);fill-opacity:1;stroke-width:1;stroke-linecap:butt;stroke-linejoin:miter;stroke:rgb(0%,0%,0%);stroke-opacity:1;stroke-miterlimit:10;" d="M 276 407 L 305.664062 407 L 317.664062 378.785156 L 329.664062 407 L 359.332031 407 L 335.332031 424.4375 L 343.417969 455.980469 L 317.664062 438.542969 L 291.914062 455.980469 L 304.214844 424.4375 L 276 407 "/>
<path style="fill-rule:nonzero;fill:rgb(100%,51%,0%);fill-opacity:1;stroke-width:1;stroke-linecap:butt;stroke-linejoin:miter;stroke:rgb(0%,0%,0%);stroke-opacity:1;stroke-miterlimit:10;" d="M 218 257 L 247.664062 257 L 259.664062 228.785156 L 271.664062 257 L 301.332031 257 L 277.332031 274.4375 L 285.417969 305.980469 L 259.664062 288.542969 L 233.914062 305.980469 L 246.214844 274.4375 L 218 257 "/>
<path style="fill-rule:nonzero;fill:rgb(100%,51%,0%);fill-opacity:1;stroke-width:1;stroke-linecap:butt;stroke-linejoin:miter;stroke:rgb(0%,0%,0%);stroke-opacity:1;stroke-miterlimit:10;" d="M 87 370 L 116.664062 370 L 128.664062 341.785156 L 140.664062 370 L 170.332031 370 L 146.332031 387.4375 L 154.417969 418.980469 L 128.664062 401.542969 L 102.914062 418.980469 L 115.214844 387.4375 L 87 370 "/>
<path style="fill-rule:nonzero;fill:rgb(35%,70%,90%);fill-opacity:1;stroke-width:1;stroke-linecap:butt;stroke-linejoin:miter;stroke:rgb(0%,0%,0%);stroke-opacity:1;stroke-miterlimit:10;" d="M 782 164 L 756.019531 209 L 807.980469 209 L 782 164 "/>
<path style="fill-rule:nonzero;fill:rgb(35%,70%,90%);fill-opacity:1;stroke-width:1;stroke-linecap:butt;stroke-linejoin:miter;stroke:rgb(0%,0%,0%);stroke-opacity:1;stroke-miterlimit:10;" d="M 829 376 L 803.019531 421 L 854.980469 421 L 829 376 "/>
<path style="fill-rule:nonzero;fill:rgb(35%,70%,90%);fill-opacity:1;stroke-width:1;stroke-linecap:butt;stroke-linejoin:miter;stroke:rgb(0%,0%,0%);stroke-opacity:1;stroke-miterlimit:10;" d="M 683 360 L 657.019531 405 L 708.980469 405 L 683 360 "/>
</g>
</svg>
