<?xml version="1.0" encoding="UTF-8"?>
<svg xmlns="http://www.w3.org/2000/svg" xmlns:xlink="http://www.w3.org/1999/xlink" width="1179pt" height="517pt" viewBox="0 0 1179 517" version="1.1">
<g id="surface606">
<rect x="0" y="0" width="1179" height="517" style="fill:rgb(90%,90%,90%);fill-opacity:1;stroke:none;"/>
<path style="fill-rule:nonzero;fill:rgb(35%,70%,90%);fill-opacity:1;stroke-width:1;stroke-linecap:butt;stroke-linejoin:miter;stroke:rgb(0%,0%,0%);stroke-opacity:1;stroke-miterlimit:10;" d="M 580 286 L 609.664062 286 L 621.664062 257.785156 L 633.664062 286 L 663.332031 286 L 639.332031 303.4375 L 647.417969 334.980469 L 621.664062 317.542969 L 595.914062 334.980469 L 608.214844 303.4375 L 580 286 "/>
<path style="fill-rule:nonzero;fill:rgb(35%,70%,90%);fill-opacity:1;stroke-width:1;stroke-linecap:butt;stroke-linejoin:miter;stroke:rgb(0%,0%,0%);stroke-opacity:1;stroke-miterlimit:10;" d="M 1044 422 L 1073.664062 422 L 1085.664062 393.785156 L 1097.664062 422 L 1127.332031 422 L 1103.332031 439.4375 L 1111.417969 470.980469 L 1085.664062 453.542969 L 1059.914062 470.980469 L 1072.214844 439.4375 L 1044 422 "/>
<path style="fill-rule:nonzero;fill:rgb(35%,70%,90%);fill-opacity:1;stroke-width:1;stroke-linecap:butt;stroke-linejoin:miter;stroke:rgb(0%,0%,0%);stroke-opacity:1;stroke-miterlimit:10;" d="M 464 124 L 493.664062 124 L 505.664062 95.785156 L 517.664062 124 L 547.332031 124 L 523.332031 141.4375 L 531.417969 172.980469 L 505.664062 155.542969 L 479.914062 172.980469 L 492.214844 141.4375 L 464 124 "/>
<path style="fill-rule:nonzero;fill:rgb(35%,70%,90%);fill-opacity:1;stroke-width:1;stroke-linecap:butt;stroke-linejoin:miter;stroke:rgb(0%,0%,0%);stroke-opacity:1;stroke-miterlimit:10;" d="M 937 260 L 966.664062 260 L 978.664062 231.785156 L 990.664062 260 L 1020.332031 260 L 996.332031 277.4375 L 1004.417969 308.980469 L 978.664062 291.542969 L 952.914062 308.980469 L 965.214844 277.4375 L 937 260 "/>
<path style="fill-rule:nonzero;fill:rgb(35%,70%,90%);fill-opacity:1;stroke-width:1;stroke-linecap:butt;stroke-linejoin:miter;stroke:rgb(0%,0%,0%);stroke-opacity:1;stroke-miterlimit:10;" d="M 1044 137 L 1073.664062 137 L 1085.664062 108.785156 L 1097.664062 137 L 1127.332031 137 L 1103.332031 154.4375 L 1111.417969 185.980469 L 1085.664062 168.542969 L 1059.914062 185.980469 L 1072.214844 154.4375 L 1044 137 "/>
<path style="fill-rule:nonzero;fill:rgb(55%,51%,53%);fill-opacity:1;stroke-width:1;stroke-linecap:butt;stroke-linejoin:miter;stroke:rgb(0%,0%,0%);stroke-opacity:1;stroke-miterlimit:10;" d="M 835 119 L 809.019531 164 L 860.980469 164 L 835 119 "/>
<path style="fill-rule:nonzero;fill:rgb(55%,51%,53%);fill-opacity:1;stroke-width:1;stroke-linecap:butt;stroke-linejoin:miter;stroke:rgb(0%,0%,0%);stroke-opacity:1;stroke-miterlimit:10;" d="M 205 54 L 179.019531 99 L 230.980469 99 L 205 54 "/>
<path style="fill-rule:nonzero;fill:rgb(55%,51%,53%);fill-opacity:1;stroke-width:1;stroke-linecap:butt;stroke-linejoin:miter;stroke:rgb(0%,0%,0%);stroke-opacity:1;stroke-miterlimit:10;" d="M 588 54 L 562.019531 99 L 613.980469 99 L 588 54 "/>
<path style="fill-rule:nonzero;fill:rgb(55%,51%,53%);fill-opacity:1;stroke-width:1;stroke-linecap:butt;stroke-linejoin:miter;stroke:rgb(0%,0%,0%);stroke-opacity:1;stroke-miterlimit:10;" d="M 118 184 L 92.019531 229 L 143.980469 229 L 118 184 "/>
<path style="fill-rule:nonzero;fill:rgb(55%,51%,53%);fill-opacity:1;stroke-width:1;stroke-linecap:butt;stroke-linejoin:miter;stroke:rgb(0%,0%,0%);stroke-opacity:1;stroke-miterlimit:10;" d="M 368 202 L 342.019531 247 L 393.980469 247 L 368 202 "/>
</g>
</svg>
