<?xml version="1.0" encoding="UTF-8"?>
<svg xmlns="http://www.w3.org/2000/svg" xmlns:xlink="http://www.w3.org/1999/xlink" width="1179pt" height="517pt" viewBox="0 0 1179 517" version="1.1">
<g id="surface836">
<rect x="0" y="0" width="1179" height="517" style="fill:rgb(90%,90%,90%);fill-opacity:1;stroke:none;"/>
<path style="fill-rule:nonzero;fill:rgb(35%,70%,90%);fill-opacity:1;stroke-width:1;stroke-linecap:butt;stroke-linejoin:miter;stroke:rgb(0%,0%,0%);stroke-opacity:1;stroke-miterlimit:10;" d="M 1004.214844 217 C 1004.214844 228.714844 994.714844 238.214844 983 238.214844 C 971.285156 238.214844 961.785156 228.714844 961.785156 217 C 961.785156 205.285156 971.285156 195.785156 983 195.785156 C 994.714844 195.785156 1004.214844 205.285156 1004.214844 217 "/>
<path style="fill-rule:nonzero;fill:rgb(35%,70%,90%);fill-opacity:1;stroke-width:1;stroke-linecap:butt;stroke-linejoin:miter;stroke:rgb(0%,0%,0%);stroke-opacity:1;stroke-miterlimit:10;" d="M 443.214844 189 C 443.214844 200.714844 433.714844 210.214844 422 210.214844 C 410.285156 210.214844 400.785156 200.714844 400.785156 189 C 400.785156 177.285156 410.285156 167.785156 422 167.785156 C 433.714844 167.785156 443.214844 177.285156 443.214844 189 "/>
<path style="fill-rule:nonzero;fill:rgb(35%,70%,90%);fill-opacity:1;stroke-width:1;stroke-linecap:butt;stroke-linejoin:miter;stroke:rgb(0%,0%,0%);stroke-opacity:1;stroke-miterlimit:10;" d="M 300.214844 175 C 300.214844 186.714844 290.714844 196.214844 279 196.214844 C 267.285156 196.214844 257.785156 186.714844 257.785156 175 C 257.785156 163.285156 267.285156 153.785156 279 153.785156 C 290.714844 153.785156 300.214844 163.285156 300.214844 175 "/>
<path style="fill-rule:nonzero;fill:rgb(35%,70%,90%);fill-opacity:1;stroke-width:1;stroke-linecap:butt;stroke-linejoin:miter;stroke:rgb(0%,0%,0%);stroke-opacity:1;stroke-miterlimit:10;" d="M 374.214844 392 C 374.214844 403.714844 364.714844 413.214844 353 413.214844 C 341.285156 413.214844 331.785156 403.714844 331.785156 392 C 331.785156 380.285156 341.285156 370.785156 353 370.785156 C 364.714844 370.785156 374.214844 380.285156 374.214844 392 "/>
<path style="fill-rule:nonzero;fill:rgb(35%,70%,90%);fill-opacity:1;stroke-width:1;stroke-linecap:butt;stroke-linejoin:miter;stroke:rgb(0%,0%,0%);stroke-opacity:1;stroke-miterlimit:10;" d="M 676.214844 305 C 676.214844 316.714844 666.714844 326.214844 655 326.214844 C 643.285156 326.214844 633.785156 316.714844 633.785156 305 C 633.785156 293.285156 643.285156 283.785156 655 283.785156 C 666.714844 283.785156 676.214844 293.285156 676.214844 305 "/>
<path style="fill-rule:nonzero;fill:rgb(67%,100%,18%);fill-opacity:1;stroke-width:1;stroke-linecap:butt;stroke-linejoin:miter;stroke:rgb(0%,0%,0%);stroke-opacity:1;stroke-miterlimit:10;" d="M 1036 431 L 1065.664062 431 L 1077.664062 402.785156 L 1089.664062 431 L 1119.332031 431 L 1095.332031 448.4375 L 1103.417969 479.980469 L 1077.664062 462.542969 L 1051.914062 479.980469 L 1064.214844 448.4375 L 1036 431 "/>
<path style="fill-rule:nonzero;fill:rgb(67%,100%,18%);fill-opacity:1;stroke-width:1;stroke-linecap:butt;stroke-linejoin:miter;stroke:rgb(0%,0%,0%);stroke-opacity:1;stroke-miterlimit:10;" d="M 804 397 L 833.664062 397 L 845.664062 368.785156 L 857.664062 397 L 887.332031 397 L 863.332031 414.4375 L 871.417969 445.980469 L 845.664062 428.542969 L 819.914062 445.980469 L 832.214844 414.4375 L 804 397 "/>
<path style="fill-rule:nonzero;fill:rgb(67%,100%,18%);fill-opacity:1;stroke-width:1;stroke-linecap:butt;stroke-linejoin:miter;stroke:rgb(0%,0%,0%);stroke-opacity:1;stroke-miterlimit:10;" d="M 219 295 L 248.664062 295 L 260.664062 266.785156 L 272.664062 295 L 302.332031 295 L 278.332031 312.4375 L 286.417969 343.980469 L 260.664062 326.542969 L 234.914062 343.980469 L 247.214844 312.4375 L 219 295 "/>
</g>
</svg>
