<?xml version="1.0" encoding="UTF-8"?>
<svg xmlns="http://www.w3.org/2000/svg" xmlns:xlink="http://www.w3.org/1999/xlink" width="1179pt" height="517pt" viewBox="0 0 1179 517" version="1.1">
<g id="surface1116">
<rect x="0" y="0" width="1179" height="517" style="fill:rgb(90%,90%,90%);fill-opacity:1;stroke:none;"/>
<path style="fill-rule:nonzero;fill:rgb(55%,51%,53%);fill-opacity:1;stroke-width:1;stroke-linecap:butt;stroke-linejoin:miter;stroke:rgb(0%,0%,0%);stroke-opacity:1;stroke-miterlimit:10;" d="M 640.214844 87 C 640.214844 98.714844 630.714844 108.214844 619 108.214844 C 607.285156 108.214844 597.785156 98.714844 597.785156 87 C 597.785156 75.285156 607.285156 65.785156 619 65.785156 C 630.714844 65.785156 640.214844 75.285156 640.214844 87 "/>
<path style="fill-rule:nonzero;fill:rgb(55%,51%,53%);fill-opacity:1;stroke-width:1;stroke-linecap:butt;stroke-linejoin:miter;stroke:rgb(0%,0%,0%);stroke-opacity:1;stroke-miterlimit:10;" d="M 980.214844 167 C 980.214844 178.714844 970.714844 188.214844 959 188.214844 C 947.285156 188.214844 937.785156 178.714844 937.785156 167 C 937.785156 155.285156 947.285156 145.785156 959 145.785156 C 970.714844 145.785156 980.214844 155.285156 980.214844 167 "/>
<path style="fill-rule:nonzero;fill:rgb(55%,51%,53%);fill-opacity:1;stroke-width:1;stroke-linecap:butt;stroke-linejoin:miter;stroke:rgb(0%,0%,0%);stroke-opacity:1;stroke-miterlimit:10;" d="M 332.214844 264 C 332.214844 275.714844 322.714844 285.214844 311 285.214844 C 299.285156 285.214844 289.785156 275.714844 289.785156 264 C 289.785156 252.285156 299.285156 242.785156 311 242.785156 C 322.714844 242.785156 332.214844 252.285156 332.214844 264 "/>
<path style="fill-rule:nonzero;fill:rgb(100%,51%,0%);fill-opacity:1;stroke-width:1;stroke-linecap:butt;stroke-linejoin:miter;stroke:rgb(0%,0%,0%);stroke-opacity:1;stroke-miterlimit:10;" d="M 800 216.601562 C 800 202.199219 776 202.199219 776 216.601562 C 776 231 800 233.398438 800 245.398438 C 800 233.398438 824 231 824 216.601562 C 824 202.199219 800 202.199219 800 216.601562 "/>
<path style="fill-rule:nonzero;fill:rgb(100%,51%,0%);fill-opacity:1;stroke-width:1;stroke-linecap:butt;stroke-linejoin:miter;stroke:rgb(0%,0%,0%);stroke-opacity:1;stroke-miterlimit:10;" d="M 942 403.601562 C 942 389.199219 918 389.199219 918 403.601562 C 918 418 942 420.398438 942 432.398438 C 942 420.398438 966 418 966 403.601562 C 966 389.199219 942 389.199219 942 403.601562 "/>
<path style="fill-rule:nonzero;fill:rgb(100%,51%,0%);fill-opacity:1;stroke-width:1;stroke-linecap:butt;stroke-linejoin:miter;stroke:rgb(0%,0%,0%);stroke-opacity:1;stroke-miterlimit:10;" d="M 252 90.601562 C 252 76.199219 228 76.199219 228 90.601562 C 228 105 252 107.398438 252 119.398438 C 252 107.398438 276 105 276 90.601562 C 276 76.199219 252 76.199219 252 90.601562 "/>
<path style="fill-rule:nonzero;fill:rgb(100%,51%,0%);fill-opacity:1;stroke-width:1;stroke-linecap:butt;stroke-linejoin:miter;stroke:rgb(0%,0%,0%);stroke-opacity:1;stroke-miterlimit:10;" d="M 642 271.601562 C 642 257.199219 618 257.199219 618 271.601562 C 618 286 642 288.398438 642 300.398438 C 642 288.398438 666 286 666 271.601562 C 666 257.199219 642 257.199219 642 271.601562 "/>
</g>
</svg>
