<?xml version="1.0" encoding="UTF-8"?>
<svg xmlns="http://www.w3.org/2000/svg" xmlns:xlink="http://www.w3.org/1999/xlink" width="1179pt" height="517pt" viewBox="0 0 1179 517" version="1.1">
<g id="surface801">
<rect x="0" y="0" width="1179" height="517" style="fill:rgb(90%,90%,90%);fill-opacity:1;stroke:none;"/>
<path style="fill-rule:nonzero;fill:rgb(100%,0%,0%);fill-opacity:1;stroke-width:1;stroke-linecap:butt;stroke-linejoin:miter;stroke:rgb(0%,0%,0%);stroke-opacity:1;stroke-miterlimit:10;" d="M 373 416.601562 C 373 402.199219 349 402.199219 349 416.601562 C 349 431 373 433.398438 373 445.398438 C 373 433.398438 397 431 397 416.601562 C 397 402.199219 373 402.199219 373 416.601562 "/>
<path style="fill-rule:nonzero;fill:rgb(100%,0%,0%);fill-opacity:1;stroke-width:1;stroke-linecap:butt;stroke-linejoin:miter;stroke:rgb(0%,0%,0%);stroke-opacity:1;stroke-miterlimit:10;" d="M 943 398.601562 C 943 384.199219 919 384.199219 919 398.601562 C 919 413 943 415.398438 943 427.398438 C 943 415.398438 967 413 967 398.601562 C 967 384.199219 943 384.199219 943 398.601562 "/>
<path style="fill-rule:nonzero;fill:rgb(100%,0%,0%);fill-opacity:1;stroke-width:1;stroke-linecap:butt;stroke-linejoin:miter;stroke:rgb(0%,0%,0%);stroke-opacity:1;stroke-miterlimit:10;" d="M 932 221.601562 C 932 207.199219 908 207.199219 908 221.601562 C 908 236 932 238.398438 932 250.398438 C 932 238.398438 956 236 956 221.601562 C 956 207.199219 932 207.199219 932 221.601562 "/>
<path style="fill-rule:nonzero;fill:rgb(100%,0%,0%);fill-opacity:1;stroke-width:1;stroke-linecap:butt;stroke-linejoin:miter;stroke:rgb(0%,0%,0%);stroke-opacity:1;stroke-miterlimit:10;" d="M 627 330.601562 C 627 316.199219 603 316.199219 603 330.601562 C 603 345 627 347.398438 627 359.398438 C 627 347.398438 651 345 651 330.601562 C 651 316.199219 627 316.199219 627 330.601562 "/>
<path style="fill-rule:nonzero;fill:rgb(0%,0%,0%);fill-opacity:1;stroke-width:1;stroke-linecap:butt;stroke-linejoin:miter;stroke:rgb(0%,0%,0%);stroke-opacity:1;stroke-miterlimit:10;" d="M 217 186 L 197 186 L 197 196 L 217 196 L 217 216 L 227 216 L 227 196 L 247 196 L 247 186 L 227 186 L 227 166 L 217 166 L 217 186 "/>
<path style="fill-rule:nonzero;fill:rgb(0%,0%,0%);fill-opacity:1;stroke-width:1;stroke-linecap:butt;stroke-linejoin:miter;stroke:rgb(0%,0%,0%);stroke-opacity:1;stroke-miterlimit:10;" d="M 344 154 L 324 154 L 324 164 L 344 164 L 344 184 L 354 184 L 354 164 L 374 164 L 374 154 L 354 154 L 354 134 L 344 134 L 344 154 "/>
<path style="fill-rule:nonzero;fill:rgb(0%,0%,0%);fill-opacity:1;stroke-width:1;stroke-linecap:butt;stroke-linejoin:miter;stroke:rgb(0%,0%,0%);stroke-opacity:1;stroke-miterlimit:10;" d="M 523 133 L 503 133 L 503 143 L 523 143 L 523 163 L 533 163 L 533 143 L 553 143 L 553 133 L 533 133 L 533 113 L 523 113 L 523 133 "/>
</g>
</svg>
