<?xml version="1.0" encoding="UTF-8"?>
<svg xmlns="http://www.w3.org/2000/svg" xmlns:xlink="http://www.w3.org/1999/xlink" width="1179pt" height="517pt" viewBox="0 0 1179 517" version="1.1">
<g id="surface1386">
<rect x="0" y="0" width="1179" height="517" style="fill:rgb(90%,90%,90%);fill-opacity:1;stroke:none;"/>
<path style="fill-rule:nonzero;fill:rgb(55%,51%,53%);fill-opacity:1;stroke-width:1;stroke-linecap:butt;stroke-linejoin:miter;stroke:rgb(0%,0%,0%);stroke-opacity:1;stroke-miterlimit:10;" d="M 405.214844 380 C 405.214844 391.714844 395.714844 401.214844 384 401.214844 C 372.285156 401.214844 362.785156 391.714844 362.785156 380 C 362.785156 368.285156 372.285156 358.785156 384 358.785156 C 395.714844 358.785156 405.214844 368.285156 405.214844 380 "/>
<path style="fill-rule:nonzero;fill:rgb(55%,51%,53%);fill-opacity:1;stroke-width:1;stroke-linecap:butt;stroke-linejoin:miter;stroke:rgb(0%,0%,0%);stroke-opacity:1;stroke-miterlimit:10;" d="M 814.214844 365 C 814.214844 376.714844 804.714844 386.214844 793 386.214844 C 781.285156 386.214844 771.785156 376.714844 771.785156 365 C 771.785156 353.285156 781.285156 343.785156 793 343.785156 C 804.714844 343.785156 814.214844 353.285156 814.214844 365 "/>
<path style="fill-rule:nonzero;fill:rgb(55%,51%,53%);fill-opacity:1;stroke-width:1;stroke-linecap:butt;stroke-linejoin:miter;stroke:rgb(0%,0%,0%);stroke-opacity:1;stroke-miterlimit:10;" d="M 803.214844 141 C 803.214844 152.714844 793.714844 162.214844 782 162.214844 C 770.285156 162.214844 760.785156 152.714844 760.785156 141 C 760.785156 129.285156 770.285156 119.785156 782 119.785156 C 793.714844 119.785156 803.214844 129.285156 803.214844 141 "/>
<path style="fill-rule:nonzero;fill:rgb(100%,51%,0%);fill-opacity:1;stroke-width:1;stroke-linecap:butt;stroke-linejoin:miter;stroke:rgb(0%,0%,0%);stroke-opacity:1;stroke-miterlimit:10;" d="M 470 156.601562 C 470 142.199219 446 142.199219 446 156.601562 C 446 171 470 173.398438 470 185.398438 C 470 173.398438 494 171 494 156.601562 C 494 142.199219 470 142.199219 470 156.601562 "/>
<path style="fill-rule:nonzero;fill:rgb(100%,51%,0%);fill-opacity:1;stroke-width:1;stroke-linecap:butt;stroke-linejoin:miter;stroke:rgb(0%,0%,0%);stroke-opacity:1;stroke-miterlimit:10;" d="M 217 80.601562 C 217 66.199219 193 66.199219 193 80.601562 C 193 95 217 97.398438 217 109.398438 C 217 97.398438 241 95 241 80.601562 C 241 66.199219 217 66.199219 217 80.601562 "/>
<path style="fill-rule:nonzero;fill:rgb(100%,51%,0%);fill-opacity:1;stroke-width:1;stroke-linecap:butt;stroke-linejoin:miter;stroke:rgb(0%,0%,0%);stroke-opacity:1;stroke-miterlimit:10;" d="M 626 404.601562 C 626 390.199219 602 390.199219 602 404.601562 C 602 419 626 421.398438 626 433.398438 C 626 421.398438 650 419 650 404.601562 C 650 390.199219 626 390.199219 626 404.601562 "/>
<path style="fill-rule:nonzero;fill:rgb(100%,51%,0%);fill-opacity:1;stroke-width:1;stroke-linecap:butt;stroke-linejoin:miter;stroke:rgb(0%,0%,0%);stroke-opacity:1;stroke-miterlimit:10;" d="M 1036 154.601562 C 1036 140.199219 1012 140.199219 1012 154.601562 C 1012 169 1036 171.398438 1036 183.398438 C 1036 171.398438 1060 169 1060 154.601562 C 1060 140.199219 1036 140.199219 1036 154.601562 "/>
</g>
</svg>
