<?xml version="1.0" encoding="UTF-8"?>
<svg xmlns="http://www.w3.org/2000/svg" xmlns:xlink="http://www.w3.org/1999/xlink" width="1179pt" height="517pt" viewBox="0 0 1179 517" version="1.1">
<g id="surface1331">
<rect x="0" y="0" width="1179" height="517" style="fill:rgb(90%,90%,90%);fill-opacity:1;stroke:none;"/>
<path style="fill-rule:nonzero;fill:rgb(55%,51%,53%);fill-opacity:1;stroke-width:1;stroke-linecap:butt;stroke-linejoin:miter;stroke:rgb(0%,0%,0%);stroke-opacity:1;stroke-miterlimit:10;" d="M 825.214844 292 C 825.214844 303.714844 815.714844 313.214844 804 313.214844 C 792.285156 313.214844 782.785156 303.714844 782.785156 292 C 782.785156 280.285156 792.285156 270.785156 804 270.785156 C 815.714844 270.785156 825.214844 280.285156 825.214844 292 "/>
<path style="fill-rule:nonzero;fill:rgb(55%,51%,53%);fill-opacity:1;stroke-width:1;stroke-linecap:butt;stroke-linejoin:miter;stroke:rgb(0%,0%,0%);stroke-opacity:1;stroke-miterlimit:10;" d="M 198.214844 414 C 198.214844 425.714844 188.714844 435.214844 177 435.214844 C 165.285156 435.214844 155.785156 425.714844 155.785156 414 C 155.785156 402.285156 165.285156 392.785156 177 392.785156 C 188.714844 392.785156 198.214844 402.285156 198.214844 414 "/>
<path style="fill-rule:nonzero;fill:rgb(55%,51%,53%);fill-opacity:1;stroke-width:1;stroke-linecap:butt;stroke-linejoin:miter;stroke:rgb(0%,0%,0%);stroke-opacity:1;stroke-miterlimit:10;" d="M 880.214844 154 C 880.214844 165.714844 870.714844 175.214844 859 175.214844 C 847.285156 175.214844 837.785156 165.714844 837.785156 154 C 837.785156 142.285156 847.285156 132.785156 859 132.785156 C 870.714844 132.785156 880.214844 142.285156 880.214844 154 "/>
<path style="fill-rule:nonzero;fill:rgb(55%,51%,53%);fill-opacity:1;stroke-width:1;stroke-linecap:butt;stroke-linejoin:miter;stroke:rgb(0%,0%,0%);stroke-opacity:1;stroke-miterlimit:10;" d="M 525.214844 304 C 525.214844 315.714844 515.714844 325.214844 504 325.214844 C 492.285156 325.214844 482.785156 315.714844 482.785156 304 C 482.785156 292.285156 492.285156 282.785156 504 282.785156 C 515.714844 282.785156 525.214844 292.285156 525.214844 304 "/>
<path style="fill-rule:nonzero;fill:rgb(35%,70%,90%);fill-opacity:1;stroke-width:1;stroke-linecap:butt;stroke-linejoin:miter;stroke:rgb(0%,0%,0%);stroke-opacity:1;stroke-miterlimit:10;" d="M 667 206 L 641.019531 251 L 692.980469 251 L 667 206 "/>
<path style="fill-rule:nonzero;fill:rgb(35%,70%,90%);fill-opacity:1;stroke-width:1;stroke-linecap:butt;stroke-linejoin:miter;stroke:rgb(0%,0%,0%);stroke-opacity:1;stroke-miterlimit:10;" d="M 468 60 L 442.019531 105 L 493.980469 105 L 468 60 "/>
<path style="fill-rule:nonzero;fill:rgb(35%,70%,90%);fill-opacity:1;stroke-width:1;stroke-linecap:butt;stroke-linejoin:miter;stroke:rgb(0%,0%,0%);stroke-opacity:1;stroke-miterlimit:10;" d="M 83 118 L 57.019531 163 L 108.980469 163 L 83 118 "/>
</g>
</svg>
