<?xml version="1.0" encoding="UTF-8"?>
<svg xmlns="http://www.w3.org/2000/svg" xmlns:xlink="http://www.w3.org/1999/xlink" width="1179pt" height="517pt" viewBox="0 0 1179 517" version="1.1">
<g id="surface531">
<rect x="0" y="0" width="1179" height="517" style="fill:rgb(90%,90%,90%);fill-opacity:1;stroke:none;"/>
<path style="fill-rule:nonzero;fill:rgb(55%,51%,53%);fill-opacity:1;stroke-width:1;stroke-linecap:butt;stroke-linejoin:miter;stroke:rgb(0%,0%,0%);stroke-opacity:1;stroke-miterlimit:10;" d="M 204.214844 347 C 204.214844 358.714844 194.714844 368.214844 183 368.214844 C 171.285156 368.214844 161.785156 358.714844 161.785156 347 C 161.785156 335.285156 171.285156 325.785156 183 325.785156 C 194.714844 325.785156 204.214844 335.285156 204.214844 347 "/>
<path style="fill-rule:nonzero;fill:rgb(55%,51%,53%);fill-opacity:1;stroke-width:1;stroke-linecap:butt;stroke-linejoin:miter;stroke:rgb(0%,0%,0%);stroke-opacity:1;stroke-miterlimit:10;" d="M 426.214844 116 C 426.214844 127.714844 416.714844 137.214844 405 137.214844 C 393.285156 137.214844 383.785156 127.714844 383.785156 116 C 383.785156 104.285156 393.285156 94.785156 405 94.785156 C 416.714844 94.785156 426.214844 104.285156 426.214844 116 "/>
<path style="fill-rule:nonzero;fill:rgb(53%,27%,7%);fill-opacity:1;stroke-width:1;stroke-linecap:butt;stroke-linejoin:miter;stroke:rgb(0%,0%,0%);stroke-opacity:1;stroke-miterlimit:10;" d="M 423.214844 212 C 423.214844 223.714844 413.714844 233.214844 402 233.214844 C 390.285156 233.214844 380.785156 223.714844 380.785156 212 C 380.785156 200.285156 390.285156 190.785156 402 190.785156 C 413.714844 190.785156 423.214844 200.285156 423.214844 212 "/>
<path style="fill-rule:nonzero;fill:rgb(53%,27%,7%);fill-opacity:1;stroke-width:1;stroke-linecap:butt;stroke-linejoin:miter;stroke:rgb(0%,0%,0%);stroke-opacity:1;stroke-miterlimit:10;" d="M 941.785156 274.785156 L 941.785156 317.214844 L 984.214844 317.214844 L 984.214844 274.785156 L 941.785156 274.785156 "/>
<path style="fill-rule:nonzero;fill:rgb(53%,27%,7%);fill-opacity:1;stroke-width:1;stroke-linecap:butt;stroke-linejoin:miter;stroke:rgb(0%,0%,0%);stroke-opacity:1;stroke-miterlimit:10;" d="M 862.785156 119.785156 L 862.785156 162.214844 L 905.214844 162.214844 L 905.214844 119.785156 L 862.785156 119.785156 "/>
<path style="fill-rule:nonzero;fill:rgb(55%,51%,53%);fill-opacity:1;stroke-width:1;stroke-linecap:butt;stroke-linejoin:miter;stroke:rgb(0%,0%,0%);stroke-opacity:1;stroke-miterlimit:10;" d="M 734.785156 383.785156 L 734.785156 426.214844 L 777.214844 426.214844 L 777.214844 383.785156 L 734.785156 383.785156 "/>
<path style="fill-rule:nonzero;fill:rgb(55%,51%,53%);fill-opacity:1;stroke-width:1;stroke-linecap:butt;stroke-linejoin:miter;stroke:rgb(0%,0%,0%);stroke-opacity:1;stroke-miterlimit:10;" d="M 692.785156 203.785156 L 692.785156 246.214844 L 735.214844 246.214844 L 735.214844 203.785156 L 692.785156 203.785156 "/>
</g>
</svg>
