<?xml version="1.0" encoding="UTF-8"?>
<svg xmlns="http://www.w3.org/2000/svg" xmlns:xlink="http://www.w3.org/1999/xlink" width="1179pt" height="517pt" viewBox="0 0 1179 517" version="1.1">
<g id="surface311">
<rect x="0" y="0" width="1179" height="517" style="fill:rgb(90%,90%,90%);fill-opacity:1;stroke:none;"/>
<path style="fill-rule:nonzero;fill:rgb(100%,51%,0%);fill-opacity:1;stroke-width:1;stroke-linecap:butt;stroke-linejoin:miter;stroke:rgb(0%,0%,0%);stroke-opacity:1;stroke-miterlimit:10;" d="M 193 353 L 222.664062 353 L 234.664062 324.785156 L 246.664062 353 L 276.332031 353 L 252.332031 370.4375 L 260.417969 401.980469 L 234.664062 384.542969 L 208.914062 401.980469 L 221.214844 370.4375 L 193 353 "/>
<path style="fill-rule:nonzero;fill:rgb(100%,51%,0%);fill-opacity:1;stroke-width:1;stroke-linecap:butt;stroke-linejoin:miter;stroke:rgb(0%,0%,0%);stroke-opacity:1;stroke-miterlimit:10;" d="M 367 247 L 396.664062 247 L 408.664062 218.785156 L 420.664062 247 L 450.332031 247 L 426.332031 264.4375 L 434.417969 295.980469 L 408.664062 278.542969 L 382.914062 295.980469 L 395.214844 264.4375 L 367 247 "/>
<path style="fill-rule:nonzero;fill:rgb(55%,51%,53%);fill-opacity:1;stroke-width:1;stroke-linecap:butt;stroke-linejoin:miter;stroke:rgb(0%,0%,0%);stroke-opacity:1;stroke-miterlimit:10;" d="M 147 151 L 176.664062 151 L 188.664062 122.785156 L 200.664062 151 L 230.332031 151 L 206.332031 168.4375 L 214.417969 199.980469 L 188.664062 182.542969 L 162.914062 199.980469 L 175.214844 168.4375 L 147 151 "/>
<path style="fill-rule:nonzero;fill:rgb(55%,51%,53%);fill-opacity:1;stroke-width:1;stroke-linecap:butt;stroke-linejoin:miter;stroke:rgb(0%,0%,0%);stroke-opacity:1;stroke-miterlimit:10;" d="M 341 358 L 370.664062 358 L 382.664062 329.785156 L 394.664062 358 L 424.332031 358 L 400.332031 375.4375 L 408.417969 406.980469 L 382.664062 389.542969 L 356.914062 406.980469 L 369.214844 375.4375 L 341 358 "/>
<path style="fill-rule:nonzero;fill:rgb(100%,51%,0%);fill-opacity:1;stroke-width:1;stroke-linecap:butt;stroke-linejoin:miter;stroke:rgb(0%,0%,0%);stroke-opacity:1;stroke-miterlimit:10;" d="M 109 299 L 138.664062 299 L 150.664062 270.785156 L 162.664062 299 L 192.332031 299 L 168.332031 316.4375 L 176.417969 347.980469 L 150.664062 330.542969 L 124.914062 347.980469 L 137.214844 316.4375 L 109 299 "/>
<path style="fill-rule:nonzero;fill:rgb(55%,51%,53%);fill-opacity:1;stroke-width:1;stroke-linecap:butt;stroke-linejoin:miter;stroke:rgb(0%,0%,0%);stroke-opacity:1;stroke-miterlimit:10;" d="M 997.785156 244.785156 L 997.785156 287.214844 L 1040.214844 287.214844 L 1040.214844 244.785156 L 997.785156 244.785156 "/>
<path style="fill-rule:nonzero;fill:rgb(55%,51%,53%);fill-opacity:1;stroke-width:1;stroke-linecap:butt;stroke-linejoin:miter;stroke:rgb(0%,0%,0%);stroke-opacity:1;stroke-miterlimit:10;" d="M 731.785156 327.785156 L 731.785156 370.214844 L 774.214844 370.214844 L 774.214844 327.785156 L 731.785156 327.785156 "/>
<path style="fill-rule:nonzero;fill:rgb(100%,51%,0%);fill-opacity:1;stroke-width:1;stroke-linecap:butt;stroke-linejoin:miter;stroke:rgb(0%,0%,0%);stroke-opacity:1;stroke-miterlimit:10;" d="M 856.785156 222.785156 L 856.785156 265.214844 L 899.214844 265.214844 L 899.214844 222.785156 L 856.785156 222.785156 "/>
<path style="fill-rule:nonzero;fill:rgb(100%,51%,0%);fill-opacity:1;stroke-width:1;stroke-linecap:butt;stroke-linejoin:miter;stroke:rgb(0%,0%,0%);stroke-opacity:1;stroke-miterlimit:10;" d="M 977.785156 338.785156 L 977.785156 381.214844 L 1020.214844 381.214844 L 1020.214844 338.785156 L 977.785156 338.785156 "/>
<path style="fill-rule:nonzero;fill:rgb(55%,51%,53%);fill-opacity:1;stroke-width:1;stroke-linecap:butt;stroke-linejoin:miter;stroke:rgb(0%,0%,0%);stroke-opacity:1;stroke-miterlimit:10;" d="M 845.785156 321.785156 L 845.785156 364.214844 L 888.214844 364.214844 L 888.214844 321.785156 L 845.785156 321.785156 "/>
<path style="fill-rule:nonzero;fill:rgb(55%,51%,53%);fill-opacity:1;stroke-width:1;stroke-linecap:butt;stroke-linejoin:miter;stroke:rgb(0%,0%,0%);stroke-opacity:1;stroke-miterlimit:10;" d="M 757.785156 84.785156 L 757.785156 127.214844 L 800.214844 127.214844 L 800.214844 84.785156 L 757.785156 84.785156 "/>
<path style="fill-rule:nonzero;fill:rgb(55%,51%,53%);fill-opacity:1;stroke-width:1;stroke-linecap:butt;stroke-linejoin:miter;stroke:rgb(0%,0%,0%);stroke-opacity:1;stroke-miterlimit:10;" d="M 1011.785156 131.785156 L 1011.785156 174.214844 L 1054.214844 174.214844 L 1054.214844 131.785156 L 1011.785156 131.785156 "/>
<path style="fill-rule:nonzero;fill:rgb(55%,51%,53%);fill-opacity:1;stroke-width:1;stroke-linecap:butt;stroke-linejoin:miter;stroke:rgb(0%,0%,0%);stroke-opacity:1;stroke-miterlimit:10;" d="M 845.785156 60.785156 L 845.785156 103.214844 L 888.214844 103.214844 L 888.214844 60.785156 L 845.785156 60.785156 "/>
</g>
</svg>
