<?xml version="1.0" encoding="UTF-8"?>
<svg xmlns="http://www.w3.org/2000/svg" xmlns:xlink="http://www.w3.org/1999/xlink" width="1179pt" height="517pt" viewBox="0 0 1179 517" version="1.1">
<g id="surface746">
<rect x="0" y="0" width="1179" height="517" style="fill:rgb(90%,90%,90%);fill-opacity:1;stroke:none;"/>
<path style="fill-rule:nonzero;fill:rgb(35%,70%,90%);fill-opacity:1;stroke-width:1;stroke-linecap:butt;stroke-linejoin:miter;stroke:rgb(0%,0%,0%);stroke-opacity:1;stroke-miterlimit:10;" d="M 240.214844 395 C 240.214844 406.714844 230.714844 416.214844 219 416.214844 C 207.285156 416.214844 197.785156 406.714844 197.785156 395 C 197.785156 383.285156 207.285156 373.785156 219 373.785156 C 230.714844 373.785156 240.214844 383.285156 240.214844 395 "/>
<path style="fill-rule:nonzero;fill:rgb(35%,70%,90%);fill-opacity:1;stroke-width:1;stroke-linecap:butt;stroke-linejoin:miter;stroke:rgb(0%,0%,0%);stroke-opacity:1;stroke-miterlimit:10;" d="M 801.214844 407 C 801.214844 418.714844 791.714844 428.214844 780 428.214844 C 768.285156 428.214844 758.785156 418.714844 758.785156 407 C 758.785156 395.285156 768.285156 385.785156 780 385.785156 C 791.714844 385.785156 801.214844 395.285156 801.214844 407 "/>
<path style="fill-rule:nonzero;fill:rgb(35%,70%,90%);fill-opacity:1;stroke-width:1;stroke-linecap:butt;stroke-linejoin:miter;stroke:rgb(0%,0%,0%);stroke-opacity:1;stroke-miterlimit:10;" d="M 740.214844 238 C 740.214844 249.714844 730.714844 259.214844 719 259.214844 C 707.285156 259.214844 697.785156 249.714844 697.785156 238 C 697.785156 226.285156 707.285156 216.785156 719 216.785156 C 730.714844 216.785156 740.214844 226.285156 740.214844 238 "/>
<path style="fill-rule:nonzero;fill:rgb(35%,70%,90%);fill-opacity:1;stroke-width:1;stroke-linecap:butt;stroke-linejoin:miter;stroke:rgb(0%,0%,0%);stroke-opacity:1;stroke-miterlimit:10;" d="M 986.214844 253 C 986.214844 264.714844 976.714844 274.214844 965 274.214844 C 953.285156 274.214844 943.785156 264.714844 943.785156 253 C 943.785156 241.285156 953.285156 231.785156 965 231.785156 C 976.714844 231.785156 986.214844 241.285156 986.214844 253 "/>
<path style="fill-rule:nonzero;fill:rgb(67%,100%,18%);fill-opacity:1;stroke-width:1;stroke-linecap:butt;stroke-linejoin:miter;stroke:rgb(0%,0%,0%);stroke-opacity:1;stroke-miterlimit:10;" d="M 523 184 L 552.664062 184 L 564.664062 155.785156 L 576.664062 184 L 606.332031 184 L 582.332031 201.4375 L 590.417969 232.980469 L 564.664062 215.542969 L 538.914062 232.980469 L 551.214844 201.4375 L 523 184 "/>
<path style="fill-rule:nonzero;fill:rgb(67%,100%,18%);fill-opacity:1;stroke-width:1;stroke-linecap:butt;stroke-linejoin:miter;stroke:rgb(0%,0%,0%);stroke-opacity:1;stroke-miterlimit:10;" d="M 531 349 L 560.664062 349 L 572.664062 320.785156 L 584.664062 349 L 614.332031 349 L 590.332031 366.4375 L 598.417969 397.980469 L 572.664062 380.542969 L 546.914062 397.980469 L 559.214844 366.4375 L 531 349 "/>
<path style="fill-rule:nonzero;fill:rgb(67%,100%,18%);fill-opacity:1;stroke-width:1;stroke-linecap:butt;stroke-linejoin:miter;stroke:rgb(0%,0%,0%);stroke-opacity:1;stroke-miterlimit:10;" d="M 205 196 L 234.664062 196 L 246.664062 167.785156 L 258.664062 196 L 288.332031 196 L 264.332031 213.4375 L 272.417969 244.980469 L 246.664062 227.542969 L 220.914062 244.980469 L 233.214844 213.4375 L 205 196 "/>
<path style="fill-rule:nonzero;fill:rgb(67%,100%,18%);fill-opacity:1;stroke-width:1;stroke-linecap:butt;stroke-linejoin:miter;stroke:rgb(0%,0%,0%);stroke-opacity:1;stroke-miterlimit:10;" d="M 829 143 L 858.664062 143 L 870.664062 114.785156 L 882.664062 143 L 912.332031 143 L 888.332031 160.4375 L 896.417969 191.980469 L 870.664062 174.542969 L 844.914062 191.980469 L 857.214844 160.4375 L 829 143 "/>
<path style="fill-rule:nonzero;fill:rgb(67%,100%,18%);fill-opacity:1;stroke-width:1;stroke-linecap:butt;stroke-linejoin:miter;stroke:rgb(0%,0%,0%);stroke-opacity:1;stroke-miterlimit:10;" d="M 315 136 L 344.664062 136 L 356.664062 107.785156 L 368.664062 136 L 398.332031 136 L 374.332031 153.4375 L 382.417969 184.980469 L 356.664062 167.542969 L 330.914062 184.980469 L 343.214844 153.4375 L 315 136 "/>
</g>
</svg>
