<?xml version="1.0" encoding="UTF-8"?>
<svg xmlns="http://www.w3.org/2000/svg" xmlns:xlink="http://www.w3.org/1999/xlink" width="1179pt" height="517pt" viewBox="0 0 1179 517" version="1.1">
<g id="surface1026">
<rect x="0" y="0" width="1179" height="517" style="fill:rgb(90%,90%,90%);fill-opacity:1;stroke:none;"/>
<path style="fill-rule:nonzero;fill:rgb(55%,51%,53%);fill-opacity:1;stroke-width:1;stroke-linecap:butt;stroke-linejoin:miter;stroke:rgb(0%,0%,0%);stroke-opacity:1;stroke-miterlimit:10;" d="M 1022.214844 412 C 1022.214844 423.714844 1012.714844 433.214844 1001 433.214844 C 989.285156 433.214844 979.785156 423.714844 979.785156 412 C 979.785156 400.285156 989.285156 390.785156 1001 390.785156 C 1012.714844 390.785156 1022.214844 400.285156 1022.214844 412 "/>
<path style="fill-rule:nonzero;fill:rgb(55%,51%,53%);fill-opacity:1;stroke-width:1;stroke-linecap:butt;stroke-linejoin:miter;stroke:rgb(0%,0%,0%);stroke-opacity:1;stroke-miterlimit:10;" d="M 223.214844 122 C 223.214844 133.714844 213.714844 143.214844 202 143.214844 C 190.285156 143.214844 180.785156 133.714844 180.785156 122 C 180.785156 110.285156 190.285156 100.785156 202 100.785156 C 213.714844 100.785156 223.214844 110.285156 223.214844 122 "/>
<path style="fill-rule:nonzero;fill:rgb(55%,51%,53%);fill-opacity:1;stroke-width:1;stroke-linecap:butt;stroke-linejoin:miter;stroke:rgb(0%,0%,0%);stroke-opacity:1;stroke-miterlimit:10;" d="M 522.214844 260 C 522.214844 271.714844 512.714844 281.214844 501 281.214844 C 489.285156 281.214844 479.785156 271.714844 479.785156 260 C 479.785156 248.285156 489.285156 238.785156 501 238.785156 C 512.714844 238.785156 522.214844 248.285156 522.214844 260 "/>
<path style="fill-rule:nonzero;fill:rgb(100%,51%,0%);fill-opacity:1;stroke-width:1;stroke-linecap:butt;stroke-linejoin:miter;stroke:rgb(0%,0%,0%);stroke-opacity:1;stroke-miterlimit:10;" d="M 182 389.601562 C 182 375.199219 158 375.199219 158 389.601562 C 158 404 182 406.398438 182 418.398438 C 182 406.398438 206 404 206 389.601562 C 206 375.199219 182 375.199219 182 389.601562 "/>
<path style="fill-rule:nonzero;fill:rgb(100%,51%,0%);fill-opacity:1;stroke-width:1;stroke-linecap:butt;stroke-linejoin:miter;stroke:rgb(0%,0%,0%);stroke-opacity:1;stroke-miterlimit:10;" d="M 941 78.601562 C 941 64.199219 917 64.199219 917 78.601562 C 917 93 941 95.398438 941 107.398438 C 941 95.398438 965 93 965 78.601562 C 965 64.199219 941 64.199219 941 78.601562 "/>
<path style="fill-rule:nonzero;fill:rgb(100%,51%,0%);fill-opacity:1;stroke-width:1;stroke-linecap:butt;stroke-linejoin:miter;stroke:rgb(0%,0%,0%);stroke-opacity:1;stroke-miterlimit:10;" d="M 613 341.601562 C 613 327.199219 589 327.199219 589 341.601562 C 589 356 613 358.398438 613 370.398438 C 613 358.398438 637 356 637 341.601562 C 637 327.199219 613 327.199219 613 341.601562 "/>
<path style="fill-rule:nonzero;fill:rgb(100%,51%,0%);fill-opacity:1;stroke-width:1;stroke-linecap:butt;stroke-linejoin:miter;stroke:rgb(0%,0%,0%);stroke-opacity:1;stroke-miterlimit:10;" d="M 179 230.601562 C 179 216.199219 155 216.199219 155 230.601562 C 155 245 179 247.398438 179 259.398438 C 179 247.398438 203 245 203 230.601562 C 203 216.199219 179 216.199219 179 230.601562 "/>
</g>
</svg>
