<?xml version="1.0" encoding="UTF-8"?>
<svg xmlns="http://www.w3.org/2000/svg" xmlns:xlink="http://www.w3.org/1999/xlink" width="1179pt" height="517pt" viewBox="0 0 1179 517" version="1.1">
<g id="surface541">
<rect x="0" y="0" width="1179" height="517" style="fill:rgb(90%,90%,90%);fill-opacity:1;stroke:none;"/>
<path style="fill-rule:nonzero;fill:rgb(35%,70%,90%);fill-opacity:1;stroke-width:1;stroke-linecap:butt;stroke-linejoin:miter;stroke:rgb(0%,0%,0%);stroke-opacity:1;stroke-miterlimit:10;" d="M 834 396 L 863.664062 396 L 875.664062 367.785156 L 887.664062 396 L 917.332031 396 L 893.332031 413.4375 L 901.417969 444.980469 L 875.664062 427.542969 L 849.914062 444.980469 L 862.214844 413.4375 L 834 396 "/>
<path style="fill-rule:nonzero;fill:rgb(35%,70%,90%);fill-opacity:1;stroke-width:1;stroke-linecap:butt;stroke-linejoin:miter;stroke:rgb(0%,0%,0%);stroke-opacity:1;stroke-miterlimit:10;" d="M 705 228 L 734.664062 228 L 746.664062 199.785156 L 758.664062 228 L 788.332031 228 L 764.332031 245.4375 L 772.417969 276.980469 L 746.664062 259.542969 L 720.914062 276.980469 L 733.214844 245.4375 L 705 228 "/>
<path style="fill-rule:nonzero;fill:rgb(35%,70%,90%);fill-opacity:1;stroke-width:1;stroke-linecap:butt;stroke-linejoin:miter;stroke:rgb(0%,0%,0%);stroke-opacity:1;stroke-miterlimit:10;" d="M 959 331 L 988.664062 331 L 1000.664062 302.785156 L 1012.664062 331 L 1042.332031 331 L 1018.332031 348.4375 L 1026.417969 379.980469 L 1000.664062 362.542969 L 974.914062 379.980469 L 987.214844 348.4375 L 959 331 "/>
<path style="fill-rule:nonzero;fill:rgb(100%,51%,0%);fill-opacity:1;stroke-width:1;stroke-linecap:butt;stroke-linejoin:miter;stroke:rgb(0%,0%,0%);stroke-opacity:1;stroke-miterlimit:10;" d="M 194.214844 254 C 194.214844 265.714844 184.714844 275.214844 173 275.214844 C 161.285156 275.214844 151.785156 265.714844 151.785156 254 C 151.785156 242.285156 161.285156 232.785156 173 232.785156 C 184.714844 232.785156 194.214844 242.285156 194.214844 254 "/>
<path style="fill-rule:nonzero;fill:rgb(100%,51%,0%);fill-opacity:1;stroke-width:1;stroke-linecap:butt;stroke-linejoin:miter;stroke:rgb(0%,0%,0%);stroke-opacity:1;stroke-miterlimit:10;" d="M 575.214844 93 C 575.214844 104.714844 565.714844 114.214844 554 114.214844 C 542.285156 114.214844 532.785156 104.714844 532.785156 93 C 532.785156 81.285156 542.285156 71.785156 554 71.785156 C 565.714844 71.785156 575.214844 81.285156 575.214844 93 "/>
<path style="fill-rule:nonzero;fill:rgb(100%,51%,0%);fill-opacity:1;stroke-width:1;stroke-linecap:butt;stroke-linejoin:miter;stroke:rgb(0%,0%,0%);stroke-opacity:1;stroke-miterlimit:10;" d="M 499.214844 317 C 499.214844 328.714844 489.714844 338.214844 478 338.214844 C 466.285156 338.214844 456.785156 328.714844 456.785156 317 C 456.785156 305.285156 466.285156 295.785156 478 295.785156 C 489.714844 295.785156 499.214844 305.285156 499.214844 317 "/>
</g>
</svg>
