<?xml version="1.0" encoding="UTF-8"?>
<svg xmlns="http://www.w3.org/2000/svg" xmlns:xlink="http://www.w3.org/1999/xlink" width="1179pt" height="517pt" viewBox="0 0 1179 517" version="1.1">
<g id="surface191">
<rect x="0" y="0" width="1179" height="517" style="fill:rgb(90%,90%,90%);fill-opacity:1;stroke:none;"/>
<path style="fill-rule:nonzero;fill:rgb(35%,70%,90%);fill-opacity:1;stroke-width:1;stroke-linecap:butt;stroke-linejoin:miter;stroke:rgb(0%,0%,0%);stroke-opacity:1;stroke-miterlimit:10;" d="M 319 154 L 348.664062 154 L 360.664062 125.785156 L 372.664062 154 L 402.332031 154 L 378.332031 171.4375 L 386.417969 202.980469 L 360.664062 185.542969 L 334.914062 202.980469 L 347.214844 171.4375 L 319 154 "/>
<path style="fill-rule:nonzero;fill:rgb(100%,51%,0%);fill-opacity:1;stroke-width:1;stroke-linecap:butt;stroke-linejoin:miter;stroke:rgb(0%,0%,0%);stroke-opacity:1;stroke-miterlimit:10;" d="M 417 249 L 446.664062 249 L 458.664062 220.785156 L 470.664062 249 L 500.332031 249 L 476.332031 266.4375 L 484.417969 297.980469 L 458.664062 280.542969 L 432.914062 297.980469 L 445.214844 266.4375 L 417 249 "/>
<path style="fill-rule:nonzero;fill:rgb(35%,70%,90%);fill-opacity:1;stroke-width:1;stroke-linecap:butt;stroke-linejoin:miter;stroke:rgb(0%,0%,0%);stroke-opacity:1;stroke-miterlimit:10;" d="M 242 352 L 271.664062 352 L 283.664062 323.785156 L 295.664062 352 L 325.332031 352 L 301.332031 369.4375 L 309.417969 400.980469 L 283.664062 383.542969 L 257.914062 400.980469 L 270.214844 369.4375 L 242 352 "/>
<path style="fill-rule:nonzero;fill:rgb(35%,70%,90%);fill-opacity:1;stroke-width:1;stroke-linecap:butt;stroke-linejoin:miter;stroke:rgb(0%,0%,0%);stroke-opacity:1;stroke-miterlimit:10;" d="M 149 249 L 178.664062 249 L 190.664062 220.785156 L 202.664062 249 L 232.332031 249 L 208.332031 266.4375 L 216.417969 297.980469 L 190.664062 280.542969 L 164.914062 297.980469 L 177.214844 266.4375 L 149 249 "/>
<path style="fill-rule:nonzero;fill:rgb(100%,51%,0%);fill-opacity:1;stroke-width:1;stroke-linecap:butt;stroke-linejoin:miter;stroke:rgb(0%,0%,0%);stroke-opacity:1;stroke-miterlimit:10;" d="M 678.785156 253.785156 L 678.785156 296.214844 L 721.214844 296.214844 L 721.214844 253.785156 L 678.785156 253.785156 "/>
<path style="fill-rule:nonzero;fill:rgb(35%,70%,90%);fill-opacity:1;stroke-width:1;stroke-linecap:butt;stroke-linejoin:miter;stroke:rgb(0%,0%,0%);stroke-opacity:1;stroke-miterlimit:10;" d="M 1003.785156 262.785156 L 1003.785156 305.214844 L 1046.214844 305.214844 L 1046.214844 262.785156 L 1003.785156 262.785156 "/>
<path style="fill-rule:nonzero;fill:rgb(100%,51%,0%);fill-opacity:1;stroke-width:1;stroke-linecap:butt;stroke-linejoin:miter;stroke:rgb(0%,0%,0%);stroke-opacity:1;stroke-miterlimit:10;" d="M 795.785156 270.785156 L 795.785156 313.214844 L 838.214844 313.214844 L 838.214844 270.785156 L 795.785156 270.785156 "/>
<path style="fill-rule:nonzero;fill:rgb(100%,51%,0%);fill-opacity:1;stroke-width:1;stroke-linecap:butt;stroke-linejoin:miter;stroke:rgb(0%,0%,0%);stroke-opacity:1;stroke-miterlimit:10;" d="M 685.785156 100.785156 L 685.785156 143.214844 L 728.214844 143.214844 L 728.214844 100.785156 L 685.785156 100.785156 "/>
<path style="fill-rule:nonzero;fill:rgb(100%,51%,0%);fill-opacity:1;stroke-width:1;stroke-linecap:butt;stroke-linejoin:miter;stroke:rgb(0%,0%,0%);stroke-opacity:1;stroke-miterlimit:10;" d="M 885.785156 275.785156 L 885.785156 318.214844 L 928.214844 318.214844 L 928.214844 275.785156 L 885.785156 275.785156 "/>
</g>
</svg>
