<?xml version="1.0" encoding="UTF-8"?>
<svg xmlns="http://www.w3.org/2000/svg" xmlns:xlink="http://www.w3.org/1999/xlink" width="1179pt" height="517pt" viewBox="0 0 1179 517" version="1.1">
<g id="surface761">
<rect x="0" y="0" width="1179" height="517" style="fill:rgb(90%,90%,90%);fill-opacity:1;stroke:none;"/>
<path style="fill-rule:nonzero;fill:rgb(53%,27%,7%);fill-opacity:1;stroke-width:1;stroke-linecap:butt;stroke-linejoin:miter;stroke:rgb(0%,0%,0%);stroke-opacity:1;stroke-miterlimit:10;" d="M 328 195.601562 C 328 181.199219 304 181.199219 304 195.601562 C 304 210 328 212.398438 328 224.398438 C 328 212.398438 352 210 352 195.601562 C 352 181.199219 328 181.199219 328 195.601562 "/>
<path style="fill-rule:nonzero;fill:rgb(53%,27%,7%);fill-opacity:1;stroke-width:1;stroke-linecap:butt;stroke-linejoin:miter;stroke:rgb(0%,0%,0%);stroke-opacity:1;stroke-miterlimit:10;" d="M 358.214844 429 C 358.214844 440.714844 348.714844 450.214844 337 450.214844 C 325.285156 450.214844 315.785156 440.714844 315.785156 429 C 315.785156 417.285156 325.285156 407.785156 337 407.785156 C 348.714844 407.785156 358.214844 417.285156 358.214844 429 "/>
<path style="fill-rule:nonzero;fill:rgb(53%,27%,7%);fill-opacity:1;stroke-width:1;stroke-linecap:butt;stroke-linejoin:miter;stroke:rgb(0%,0%,0%);stroke-opacity:1;stroke-miterlimit:10;" d="M 249.214844 267 C 249.214844 278.714844 239.714844 288.214844 228 288.214844 C 216.285156 288.214844 206.785156 278.714844 206.785156 267 C 206.785156 255.285156 216.285156 245.785156 228 245.785156 C 239.714844 245.785156 249.214844 255.285156 249.214844 267 "/>
<path style="fill-rule:nonzero;fill:rgb(53%,27%,7%);fill-opacity:1;stroke-width:1;stroke-linecap:butt;stroke-linejoin:miter;stroke:rgb(0%,0%,0%);stroke-opacity:1;stroke-miterlimit:10;" d="M 265 98.601562 C 265 84.199219 241 84.199219 241 98.601562 C 241 113 265 115.398438 265 127.398438 C 265 115.398438 289 113 289 98.601562 C 289 84.199219 265 84.199219 265 98.601562 "/>
<path style="fill-rule:nonzero;fill:rgb(53%,27%,7%);fill-opacity:1;stroke-width:1;stroke-linecap:butt;stroke-linejoin:miter;stroke:rgb(0%,0%,0%);stroke-opacity:1;stroke-miterlimit:10;" d="M 419 163.601562 C 419 149.199219 395 149.199219 395 163.601562 C 395 178 419 180.398438 419 192.398438 C 419 180.398438 443 178 443 163.601562 C 443 149.199219 419 149.199219 419 163.601562 "/>
<path style="fill-rule:nonzero;fill:rgb(100%,51%,0%);fill-opacity:1;stroke-width:1;stroke-linecap:butt;stroke-linejoin:miter;stroke:rgb(0%,0%,0%);stroke-opacity:1;stroke-miterlimit:10;" d="M 911.214844 291 C 911.214844 302.714844 901.714844 312.214844 890 312.214844 C 878.285156 312.214844 868.785156 302.714844 868.785156 291 C 868.785156 279.285156 878.285156 269.785156 890 269.785156 C 901.714844 269.785156 911.214844 279.285156 911.214844 291 "/>
<path style="fill-rule:nonzero;fill:rgb(100%,51%,0%);fill-opacity:1;stroke-width:1;stroke-linecap:butt;stroke-linejoin:miter;stroke:rgb(0%,0%,0%);stroke-opacity:1;stroke-miterlimit:10;" d="M 1036 351.601562 C 1036 337.199219 1012 337.199219 1012 351.601562 C 1012 366 1036 368.398438 1036 380.398438 C 1036 368.398438 1060 366 1060 351.601562 C 1060 337.199219 1036 337.199219 1036 351.601562 "/>
<path style="fill-rule:nonzero;fill:rgb(100%,51%,0%);fill-opacity:1;stroke-width:1;stroke-linecap:butt;stroke-linejoin:miter;stroke:rgb(0%,0%,0%);stroke-opacity:1;stroke-miterlimit:10;" d="M 750 87.601562 C 750 73.199219 726 73.199219 726 87.601562 C 726 102 750 104.398438 750 116.398438 C 750 104.398438 774 102 774 87.601562 C 774 73.199219 750 73.199219 750 87.601562 "/>
<path style="fill-rule:nonzero;fill:rgb(100%,51%,0%);fill-opacity:1;stroke-width:1;stroke-linecap:butt;stroke-linejoin:miter;stroke:rgb(0%,0%,0%);stroke-opacity:1;stroke-miterlimit:10;" d="M 1063.214844 172 C 1063.214844 183.714844 1053.714844 193.214844 1042 193.214844 C 1030.285156 193.214844 1020.785156 183.714844 1020.785156 172 C 1020.785156 160.285156 1030.285156 150.785156 1042 150.785156 C 1053.714844 150.785156 1063.214844 160.285156 1063.214844 172 "/>
</g>
</svg>
