<?xml version="1.0" encoding="UTF-8"?>
<svg xmlns="http://www.w3.org/2000/svg" xmlns:xlink="http://www.w3.org/1999/xlink" width="1179pt" height="517pt" viewBox="0 0 1179 517" version="1.1">
<g id="surface1516">
<rect x="0" y="0" width="1179" height="517" style="fill:rgb(90%,90%,90%);fill-opacity:1;stroke:none;"/>
<path style="fill-rule:nonzero;fill:rgb(100%,51%,0%);fill-opacity:1;stroke-width:1;stroke-linecap:butt;stroke-linejoin:miter;stroke:rgb(0%,0%,0%);stroke-opacity:1;stroke-miterlimit:10;" d="M 404 368 L 378.019531 413 L 429.980469 413 L 404 368 "/>
<path style="fill-rule:nonzero;fill:rgb(100%,51%,0%);fill-opacity:1;stroke-width:1;stroke-linecap:butt;stroke-linejoin:miter;stroke:rgb(0%,0%,0%);stroke-opacity:1;stroke-miterlimit:10;" d="M 744 381 L 718.019531 426 L 769.980469 426 L 744 381 "/>
<path style="fill-rule:nonzero;fill:rgb(100%,51%,0%);fill-opacity:1;stroke-width:1;stroke-linecap:butt;stroke-linejoin:miter;stroke:rgb(0%,0%,0%);stroke-opacity:1;stroke-miterlimit:10;" d="M 1002 97 L 976.019531 142 L 1027.980469 142 L 1002 97 "/>
<path style="fill-rule:nonzero;fill:rgb(53%,27%,7%);fill-opacity:1;stroke-width:1;stroke-linecap:butt;stroke-linejoin:miter;stroke:rgb(0%,0%,0%);stroke-opacity:1;stroke-miterlimit:10;" d="M 821 100.601562 C 821 86.199219 797 86.199219 797 100.601562 C 797 115 821 117.398438 821 129.398438 C 821 117.398438 845 115 845 100.601562 C 845 86.199219 821 86.199219 821 100.601562 "/>
<path style="fill-rule:nonzero;fill:rgb(53%,27%,7%);fill-opacity:1;stroke-width:1;stroke-linecap:butt;stroke-linejoin:miter;stroke:rgb(0%,0%,0%);stroke-opacity:1;stroke-miterlimit:10;" d="M 824 303.601562 C 824 289.199219 800 289.199219 800 303.601562 C 800 318 824 320.398438 824 332.398438 C 824 320.398438 848 318 848 303.601562 C 848 289.199219 824 289.199219 824 303.601562 "/>
<path style="fill-rule:nonzero;fill:rgb(53%,27%,7%);fill-opacity:1;stroke-width:1;stroke-linecap:butt;stroke-linejoin:miter;stroke:rgb(0%,0%,0%);stroke-opacity:1;stroke-miterlimit:10;" d="M 668 192.601562 C 668 178.199219 644 178.199219 644 192.601562 C 644 207 668 209.398438 668 221.398438 C 668 209.398438 692 207 692 192.601562 C 692 178.199219 668 178.199219 668 192.601562 "/>
<path style="fill-rule:nonzero;fill:rgb(53%,27%,7%);fill-opacity:1;stroke-width:1;stroke-linecap:butt;stroke-linejoin:miter;stroke:rgb(0%,0%,0%);stroke-opacity:1;stroke-miterlimit:10;" d="M 585 102.601562 C 585 88.199219 561 88.199219 561 102.601562 C 561 117 585 119.398438 585 131.398438 C 585 119.398438 609 117 609 102.601562 C 609 88.199219 585 88.199219 585 102.601562 "/>
<path style="fill-rule:nonzero;fill:rgb(53%,27%,7%);fill-opacity:1;stroke-width:1;stroke-linecap:butt;stroke-linejoin:miter;stroke:rgb(0%,0%,0%);stroke-opacity:1;stroke-miterlimit:10;" d="M 213 343.601562 C 213 329.199219 189 329.199219 189 343.601562 C 189 358 213 360.398438 213 372.398438 C 213 360.398438 237 358 237 343.601562 C 237 329.199219 213 329.199219 213 343.601562 "/>
</g>
</svg>
