<?xml version="1.0" encoding="UTF-8"?>
<svg xmlns="http://www.w3.org/2000/svg" xmlns:xlink="http://www.w3.org/1999/xlink" width="1179pt" height="517pt" viewBox="0 0 1179 517" version="1.1">
<g id="surface136">
<rect x="0" y="0" width="1179" height="517" style="fill:rgb(90%,90%,90%);fill-opacity:1;stroke:none;"/>
<path style="fill-rule:nonzero;fill:rgb(100%,51%,0%);fill-opacity:1;stroke-width:1;stroke-linecap:butt;stroke-linejoin:miter;stroke:rgb(0%,0%,0%);stroke-opacity:1;stroke-miterlimit:10;" d="M 220.214844 179 C 220.214844 190.714844 210.714844 200.214844 199 200.214844 C 187.285156 200.214844 177.785156 190.714844 177.785156 179 C 177.785156 167.285156 187.285156 157.785156 199 157.785156 C 210.714844 157.785156 220.214844 167.285156 220.214844 179 "/>
<path style="fill-rule:nonzero;fill:rgb(100%,51%,0%);fill-opacity:1;stroke-width:1;stroke-linecap:butt;stroke-linejoin:miter;stroke:rgb(0%,0%,0%);stroke-opacity:1;stroke-miterlimit:10;" d="M 274 89 L 248.019531 134 L 299.980469 134 L 274 89 "/>
<path style="fill-rule:nonzero;fill:rgb(100%,51%,0%);fill-opacity:1;stroke-width:1;stroke-linecap:butt;stroke-linejoin:miter;stroke:rgb(0%,0%,0%);stroke-opacity:1;stroke-miterlimit:10;" d="M 390.214844 259 C 390.214844 270.714844 380.714844 280.214844 369 280.214844 C 357.285156 280.214844 347.785156 270.714844 347.785156 259 C 347.785156 247.285156 357.285156 237.785156 369 237.785156 C 380.714844 237.785156 390.214844 247.285156 390.214844 259 "/>
<path style="fill-rule:nonzero;fill:rgb(55%,51%,53%);fill-opacity:1;stroke-width:1;stroke-linecap:butt;stroke-linejoin:miter;stroke:rgb(0%,0%,0%);stroke-opacity:1;stroke-miterlimit:10;" d="M 937 215 L 911.019531 260 L 962.980469 260 L 937 215 "/>
<path style="fill-rule:nonzero;fill:rgb(55%,51%,53%);fill-opacity:1;stroke-width:1;stroke-linecap:butt;stroke-linejoin:miter;stroke:rgb(0%,0%,0%);stroke-opacity:1;stroke-miterlimit:10;" d="M 716.214844 389 C 716.214844 400.714844 706.714844 410.214844 695 410.214844 C 683.285156 410.214844 673.785156 400.714844 673.785156 389 C 673.785156 377.285156 683.285156 367.785156 695 367.785156 C 706.714844 367.785156 716.214844 377.285156 716.214844 389 "/>
<path style="fill-rule:nonzero;fill:rgb(55%,51%,53%);fill-opacity:1;stroke-width:1;stroke-linecap:butt;stroke-linejoin:miter;stroke:rgb(0%,0%,0%);stroke-opacity:1;stroke-miterlimit:10;" d="M 744 91 L 718.019531 136 L 769.980469 136 L 744 91 "/>
</g>
</svg>
