<?xml version="1.0" encoding="UTF-8"?>
<svg xmlns="http://www.w3.org/2000/svg" xmlns:xlink="http://www.w3.org/1999/xlink" width="1179pt" height="517pt" viewBox="0 0 1179 517" version="1.1">
<g id="surface1486">
<rect x="0" y="0" width="1179" height="517" style="fill:rgb(90%,90%,90%);fill-opacity:1;stroke:none;"/>
<path style="fill-rule:nonzero;fill:rgb(35%,70%,90%);fill-opacity:1;stroke-width:1;stroke-linecap:butt;stroke-linejoin:miter;stroke:rgb(0%,0%,0%);stroke-opacity:1;stroke-miterlimit:10;" d="M 784 209.601562 C 784 195.199219 760 195.199219 760 209.601562 C 760 224 784 226.398438 784 238.398438 C 784 226.398438 808 224 808 209.601562 C 808 195.199219 784 195.199219 784 209.601562 "/>
<path style="fill-rule:nonzero;fill:rgb(35%,70%,90%);fill-opacity:1;stroke-width:1;stroke-linecap:butt;stroke-linejoin:miter;stroke:rgb(0%,0%,0%);stroke-opacity:1;stroke-miterlimit:10;" d="M 133 353.601562 C 133 339.199219 109 339.199219 109 353.601562 C 109 368 133 370.398438 133 382.398438 C 133 370.398438 157 368 157 353.601562 C 157 339.199219 133 339.199219 133 353.601562 "/>
<path style="fill-rule:nonzero;fill:rgb(35%,70%,90%);fill-opacity:1;stroke-width:1;stroke-linecap:butt;stroke-linejoin:miter;stroke:rgb(0%,0%,0%);stroke-opacity:1;stroke-miterlimit:10;" d="M 190 78.601562 C 190 64.199219 166 64.199219 166 78.601562 C 166 93 190 95.398438 190 107.398438 C 190 95.398438 214 93 214 78.601562 C 214 64.199219 190 64.199219 190 78.601562 "/>
<path style="fill-rule:nonzero;fill:rgb(35%,70%,90%);fill-opacity:1;stroke-width:1;stroke-linecap:butt;stroke-linejoin:miter;stroke:rgb(0%,0%,0%);stroke-opacity:1;stroke-miterlimit:10;" d="M 312 296.601562 C 312 282.199219 288 282.199219 288 296.601562 C 288 311 312 313.398438 312 325.398438 C 312 313.398438 336 311 336 296.601562 C 336 282.199219 312 282.199219 312 296.601562 "/>
<path style="fill-rule:nonzero;fill:rgb(35%,70%,90%);fill-opacity:1;stroke-width:1;stroke-linecap:butt;stroke-linejoin:miter;stroke:rgb(0%,0%,0%);stroke-opacity:1;stroke-miterlimit:10;" d="M 328 170.601562 C 328 156.199219 304 156.199219 304 170.601562 C 304 185 328 187.398438 328 199.398438 C 328 187.398438 352 185 352 170.601562 C 352 156.199219 328 156.199219 328 170.601562 "/>
<path style="fill-rule:nonzero;fill:rgb(53%,27%,7%);fill-opacity:1;stroke-width:1;stroke-linecap:butt;stroke-linejoin:miter;stroke:rgb(0%,0%,0%);stroke-opacity:1;stroke-miterlimit:10;" d="M 531.214844 282 C 531.214844 293.714844 521.714844 303.214844 510 303.214844 C 498.285156 303.214844 488.785156 293.714844 488.785156 282 C 488.785156 270.285156 498.285156 260.785156 510 260.785156 C 521.714844 260.785156 531.214844 270.285156 531.214844 282 "/>
<path style="fill-rule:nonzero;fill:rgb(53%,27%,7%);fill-opacity:1;stroke-width:1;stroke-linecap:butt;stroke-linejoin:miter;stroke:rgb(0%,0%,0%);stroke-opacity:1;stroke-miterlimit:10;" d="M 989.214844 421 C 989.214844 432.714844 979.714844 442.214844 968 442.214844 C 956.285156 442.214844 946.785156 432.714844 946.785156 421 C 946.785156 409.285156 956.285156 399.785156 968 399.785156 C 979.714844 399.785156 989.214844 409.285156 989.214844 421 "/>
<path style="fill-rule:nonzero;fill:rgb(53%,27%,7%);fill-opacity:1;stroke-width:1;stroke-linecap:butt;stroke-linejoin:miter;stroke:rgb(0%,0%,0%);stroke-opacity:1;stroke-miterlimit:10;" d="M 469.214844 102 C 469.214844 113.714844 459.714844 123.214844 448 123.214844 C 436.285156 123.214844 426.785156 113.714844 426.785156 102 C 426.785156 90.285156 436.285156 80.785156 448 80.785156 C 459.714844 80.785156 469.214844 90.285156 469.214844 102 "/>
</g>
</svg>
