<?xml version="1.0" encoding="UTF-8"?>
<svg xmlns="http://www.w3.org/2000/svg" xmlns:xlink="http://www.w3.org/1999/xlink" width="1179pt" height="517pt" viewBox="0 0 1179 517" version="1.1">
<g id="surface781">
<rect x="0" y="0" width="1179" height="517" style="fill:rgb(90%,90%,90%);fill-opacity:1;stroke:none;"/>
<path style="fill-rule:nonzero;fill:rgb(53%,27%,7%);fill-opacity:1;stroke-width:1;stroke-linecap:butt;stroke-linejoin:miter;stroke:rgb(0%,0%,0%);stroke-opacity:1;stroke-miterlimit:10;" d="M 584 394 L 613.664062 394 L 625.664062 365.785156 L 637.664062 394 L 667.332031 394 L 643.332031 411.4375 L 651.417969 442.980469 L 625.664062 425.542969 L 599.914062 442.980469 L 612.214844 411.4375 L 584 394 "/>
<path style="fill-rule:nonzero;fill:rgb(53%,27%,7%);fill-opacity:1;stroke-width:1;stroke-linecap:butt;stroke-linejoin:miter;stroke:rgb(0%,0%,0%);stroke-opacity:1;stroke-miterlimit:10;" d="M 604 246 L 633.664062 246 L 645.664062 217.785156 L 657.664062 246 L 687.332031 246 L 663.332031 263.4375 L 671.417969 294.980469 L 645.664062 277.542969 L 619.914062 294.980469 L 632.214844 263.4375 L 604 246 "/>
<path style="fill-rule:nonzero;fill:rgb(53%,27%,7%);fill-opacity:1;stroke-width:1;stroke-linecap:butt;stroke-linejoin:miter;stroke:rgb(0%,0%,0%);stroke-opacity:1;stroke-miterlimit:10;" d="M 732 302 L 761.664062 302 L 773.664062 273.785156 L 785.664062 302 L 815.332031 302 L 791.332031 319.4375 L 799.417969 350.980469 L 773.664062 333.542969 L 747.914062 350.980469 L 760.214844 319.4375 L 732 302 "/>
<path style="fill-rule:nonzero;fill:rgb(55%,51%,53%);fill-opacity:1;stroke-width:1;stroke-linecap:butt;stroke-linejoin:miter;stroke:rgb(0%,0%,0%);stroke-opacity:1;stroke-miterlimit:10;" d="M 212 331 L 241.664062 331 L 253.664062 302.785156 L 265.664062 331 L 295.332031 331 L 271.332031 348.4375 L 279.417969 379.980469 L 253.664062 362.542969 L 227.914062 379.980469 L 240.214844 348.4375 L 212 331 "/>
<path style="fill-rule:nonzero;fill:rgb(55%,51%,53%);fill-opacity:1;stroke-width:1;stroke-linecap:butt;stroke-linejoin:miter;stroke:rgb(0%,0%,0%);stroke-opacity:1;stroke-miterlimit:10;" d="M 303 179 L 332.664062 179 L 344.664062 150.785156 L 356.664062 179 L 386.332031 179 L 362.332031 196.4375 L 370.417969 227.980469 L 344.664062 210.542969 L 318.914062 227.980469 L 331.214844 196.4375 L 303 179 "/>
<path style="fill-rule:nonzero;fill:rgb(55%,51%,53%);fill-opacity:1;stroke-width:1;stroke-linecap:butt;stroke-linejoin:miter;stroke:rgb(0%,0%,0%);stroke-opacity:1;stroke-miterlimit:10;" d="M 136 85 L 165.664062 85 L 177.664062 56.785156 L 189.664062 85 L 219.332031 85 L 195.332031 102.4375 L 203.417969 133.980469 L 177.664062 116.542969 L 151.914062 133.980469 L 164.214844 102.4375 L 136 85 "/>
<path style="fill-rule:nonzero;fill:rgb(55%,51%,53%);fill-opacity:1;stroke-width:1;stroke-linecap:butt;stroke-linejoin:miter;stroke:rgb(0%,0%,0%);stroke-opacity:1;stroke-miterlimit:10;" d="M 944 332 L 973.664062 332 L 985.664062 303.785156 L 997.664062 332 L 1027.332031 332 L 1003.332031 349.4375 L 1011.417969 380.980469 L 985.664062 363.542969 L 959.914062 380.980469 L 972.214844 349.4375 L 944 332 "/>
<path style="fill-rule:nonzero;fill:rgb(55%,51%,53%);fill-opacity:1;stroke-width:1;stroke-linecap:butt;stroke-linejoin:miter;stroke:rgb(0%,0%,0%);stroke-opacity:1;stroke-miterlimit:10;" d="M 434 185 L 463.664062 185 L 475.664062 156.785156 L 487.664062 185 L 517.332031 185 L 493.332031 202.4375 L 501.417969 233.980469 L 475.664062 216.542969 L 449.914062 233.980469 L 462.214844 202.4375 L 434 185 "/>
</g>
</svg>
