<?xml version="1.0" encoding="UTF-8"?>
<svg xmlns="http://www.w3.org/2000/svg" xmlns:xlink="http://www.w3.org/1999/xlink" width="1179pt" height="517pt" viewBox="0 0 1179 517" version="1.1">
<g id="surface211">
<rect x="0" y="0" width="1179" height="517" style="fill:rgb(90%,90%,90%);fill-opacity:1;stroke:none;"/>
<path style="fill-rule:nonzero;fill:rgb(35%,70%,90%);fill-opacity:1;stroke-width:1;stroke-linecap:butt;stroke-linejoin:miter;stroke:rgb(0%,0%,0%);stroke-opacity:1;stroke-miterlimit:10;" d="M 171 138 L 200.664062 138 L 212.664062 109.785156 L 224.664062 138 L 254.332031 138 L 230.332031 155.4375 L 238.417969 186.980469 L 212.664062 169.542969 L 186.914062 186.980469 L 199.214844 155.4375 L 171 138 "/>
<path style="fill-rule:nonzero;fill:rgb(35%,70%,90%);fill-opacity:1;stroke-width:1;stroke-linecap:butt;stroke-linejoin:miter;stroke:rgb(0%,0%,0%);stroke-opacity:1;stroke-miterlimit:10;" d="M 592 240 L 621.664062 240 L 633.664062 211.785156 L 645.664062 240 L 675.332031 240 L 651.332031 257.4375 L 659.417969 288.980469 L 633.664062 271.542969 L 607.914062 288.980469 L 620.214844 257.4375 L 592 240 "/>
<path style="fill-rule:nonzero;fill:rgb(35%,70%,90%);fill-opacity:1;stroke-width:1;stroke-linecap:butt;stroke-linejoin:miter;stroke:rgb(0%,0%,0%);stroke-opacity:1;stroke-miterlimit:10;" d="M 242 320 L 271.664062 320 L 283.664062 291.785156 L 295.664062 320 L 325.332031 320 L 301.332031 337.4375 L 309.417969 368.980469 L 283.664062 351.542969 L 257.914062 368.980469 L 270.214844 337.4375 L 242 320 "/>
<path style="fill-rule:nonzero;fill:rgb(53%,27%,7%);fill-opacity:1;stroke-width:1;stroke-linecap:butt;stroke-linejoin:miter;stroke:rgb(0%,0%,0%);stroke-opacity:1;stroke-miterlimit:10;" d="M 401.214844 382 C 401.214844 393.714844 391.714844 403.214844 380 403.214844 C 368.285156 403.214844 358.785156 393.714844 358.785156 382 C 358.785156 370.285156 368.285156 360.785156 380 360.785156 C 391.714844 360.785156 401.214844 370.285156 401.214844 382 "/>
<path style="fill-rule:nonzero;fill:rgb(53%,27%,7%);fill-opacity:1;stroke-width:1;stroke-linecap:butt;stroke-linejoin:miter;stroke:rgb(0%,0%,0%);stroke-opacity:1;stroke-miterlimit:10;" d="M 747.214844 204 C 747.214844 215.714844 737.714844 225.214844 726 225.214844 C 714.285156 225.214844 704.785156 215.714844 704.785156 204 C 704.785156 192.285156 714.285156 182.785156 726 182.785156 C 737.714844 182.785156 747.214844 192.285156 747.214844 204 "/>
<path style="fill-rule:nonzero;fill:rgb(53%,27%,7%);fill-opacity:1;stroke-width:1;stroke-linecap:butt;stroke-linejoin:miter;stroke:rgb(0%,0%,0%);stroke-opacity:1;stroke-miterlimit:10;" d="M 446.214844 213 C 446.214844 224.714844 436.714844 234.214844 425 234.214844 C 413.285156 234.214844 403.785156 224.714844 403.785156 213 C 403.785156 201.285156 413.285156 191.785156 425 191.785156 C 436.714844 191.785156 446.214844 201.285156 446.214844 213 "/>
</g>
</svg>
