<?xml version="1.0" encoding="UTF-8"?>
<svg xmlns="http://www.w3.org/2000/svg" xmlns:xlink="http://www.w3.org/1999/xlink" width="1179pt" height="517pt" viewBox="0 0 1179 517" version="1.1">
<g id="surface1296">
<rect x="0" y="0" width="1179" height="517" style="fill:rgb(90%,90%,90%);fill-opacity:1;stroke:none;"/>
<path style="fill-rule:nonzero;fill:rgb(55%,51%,53%);fill-opacity:1;stroke-width:1;stroke-linecap:butt;stroke-linejoin:miter;stroke:rgb(0%,0%,0%);stroke-opacity:1;stroke-miterlimit:10;" d="M 1001.214844 394 C 1001.214844 405.714844 991.714844 415.214844 980 415.214844 C 968.285156 415.214844 958.785156 405.714844 958.785156 394 C 958.785156 382.285156 968.285156 372.785156 980 372.785156 C 991.714844 372.785156 1001.214844 382.285156 1001.214844 394 "/>
<path style="fill-rule:nonzero;fill:rgb(55%,51%,53%);fill-opacity:1;stroke-width:1;stroke-linecap:butt;stroke-linejoin:miter;stroke:rgb(0%,0%,0%);stroke-opacity:1;stroke-miterlimit:10;" d="M 995.214844 129 C 995.214844 140.714844 985.714844 150.214844 974 150.214844 C 962.285156 150.214844 952.785156 140.714844 952.785156 129 C 952.785156 117.285156 962.285156 107.785156 974 107.785156 C 985.714844 107.785156 995.214844 117.285156 995.214844 129 "/>
<path style="fill-rule:nonzero;fill:rgb(55%,51%,53%);fill-opacity:1;stroke-width:1;stroke-linecap:butt;stroke-linejoin:miter;stroke:rgb(0%,0%,0%);stroke-opacity:1;stroke-miterlimit:10;" d="M 239.214844 288 C 239.214844 299.714844 229.714844 309.214844 218 309.214844 C 206.285156 309.214844 196.785156 299.714844 196.785156 288 C 196.785156 276.285156 206.285156 266.785156 218 266.785156 C 229.714844 266.785156 239.214844 276.285156 239.214844 288 "/>
<path style="fill-rule:nonzero;fill:rgb(100%,51%,0%);fill-opacity:1;stroke-width:1;stroke-linecap:butt;stroke-linejoin:miter;stroke:rgb(0%,0%,0%);stroke-opacity:1;stroke-miterlimit:10;" d="M 307 413.601562 C 307 399.199219 283 399.199219 283 413.601562 C 283 428 307 430.398438 307 442.398438 C 307 430.398438 331 428 331 413.601562 C 331 399.199219 307 399.199219 307 413.601562 "/>
<path style="fill-rule:nonzero;fill:rgb(100%,51%,0%);fill-opacity:1;stroke-width:1;stroke-linecap:butt;stroke-linejoin:miter;stroke:rgb(0%,0%,0%);stroke-opacity:1;stroke-miterlimit:10;" d="M 359 206.601562 C 359 192.199219 335 192.199219 335 206.601562 C 335 221 359 223.398438 359 235.398438 C 359 223.398438 383 221 383 206.601562 C 383 192.199219 359 192.199219 359 206.601562 "/>
<path style="fill-rule:nonzero;fill:rgb(100%,51%,0%);fill-opacity:1;stroke-width:1;stroke-linecap:butt;stroke-linejoin:miter;stroke:rgb(0%,0%,0%);stroke-opacity:1;stroke-miterlimit:10;" d="M 845 180.601562 C 845 166.199219 821 166.199219 821 180.601562 C 821 195 845 197.398438 845 209.398438 C 845 197.398438 869 195 869 180.601562 C 869 166.199219 845 166.199219 845 180.601562 "/>
<path style="fill-rule:nonzero;fill:rgb(100%,51%,0%);fill-opacity:1;stroke-width:1;stroke-linecap:butt;stroke-linejoin:miter;stroke:rgb(0%,0%,0%);stroke-opacity:1;stroke-miterlimit:10;" d="M 723 226.601562 C 723 212.199219 699 212.199219 699 226.601562 C 699 241 723 243.398438 723 255.398438 C 723 243.398438 747 241 747 226.601562 C 747 212.199219 723 212.199219 723 226.601562 "/>
</g>
</svg>
