<?xml version="1.0" encoding="UTF-8"?>
<svg xmlns="http://www.w3.org/2000/svg" xmlns:xlink="http://www.w3.org/1999/xlink" width="1179pt" height="517pt" viewBox="0 0 1179 517" version="1.1">
<g id="surface1156">
<rect x="0" y="0" width="1179" height="517" style="fill:rgb(90%,90%,90%);fill-opacity:1;stroke:none;"/>
<path style="fill-rule:nonzero;fill:rgb(100%,51%,0%);fill-opacity:1;stroke-width:1;stroke-linecap:butt;stroke-linejoin:miter;stroke:rgb(0%,0%,0%);stroke-opacity:1;stroke-miterlimit:10;" d="M 904 148 L 878.019531 193 L 929.980469 193 L 904 148 "/>
<path style="fill-rule:nonzero;fill:rgb(100%,51%,0%);fill-opacity:1;stroke-width:1;stroke-linecap:butt;stroke-linejoin:miter;stroke:rgb(0%,0%,0%);stroke-opacity:1;stroke-miterlimit:10;" d="M 92 101 L 66.019531 146 L 117.980469 146 L 92 101 "/>
<path style="fill-rule:nonzero;fill:rgb(100%,51%,0%);fill-opacity:1;stroke-width:1;stroke-linecap:butt;stroke-linejoin:miter;stroke:rgb(0%,0%,0%);stroke-opacity:1;stroke-miterlimit:10;" d="M 100 266 L 74.019531 311 L 125.980469 311 L 100 266 "/>
<path style="fill-rule:nonzero;fill:rgb(53%,27%,7%);fill-opacity:1;stroke-width:1;stroke-linecap:butt;stroke-linejoin:miter;stroke:rgb(0%,0%,0%);stroke-opacity:1;stroke-miterlimit:10;" d="M 1031 107.601562 C 1031 93.199219 1007 93.199219 1007 107.601562 C 1007 122 1031 124.398438 1031 136.398438 C 1031 124.398438 1055 122 1055 107.601562 C 1055 93.199219 1031 93.199219 1031 107.601562 "/>
<path style="fill-rule:nonzero;fill:rgb(53%,27%,7%);fill-opacity:1;stroke-width:1;stroke-linecap:butt;stroke-linejoin:miter;stroke:rgb(0%,0%,0%);stroke-opacity:1;stroke-miterlimit:10;" d="M 480 139.601562 C 480 125.199219 456 125.199219 456 139.601562 C 456 154 480 156.398438 480 168.398438 C 480 156.398438 504 154 504 139.601562 C 504 125.199219 480 125.199219 480 139.601562 "/>
<path style="fill-rule:nonzero;fill:rgb(53%,27%,7%);fill-opacity:1;stroke-width:1;stroke-linecap:butt;stroke-linejoin:miter;stroke:rgb(0%,0%,0%);stroke-opacity:1;stroke-miterlimit:10;" d="M 599 327.601562 C 599 313.199219 575 313.199219 575 327.601562 C 575 342 599 344.398438 599 356.398438 C 599 344.398438 623 342 623 327.601562 C 623 313.199219 599 313.199219 599 327.601562 "/>
<path style="fill-rule:nonzero;fill:rgb(53%,27%,7%);fill-opacity:1;stroke-width:1;stroke-linecap:butt;stroke-linejoin:miter;stroke:rgb(0%,0%,0%);stroke-opacity:1;stroke-miterlimit:10;" d="M 234 397.601562 C 234 383.199219 210 383.199219 210 397.601562 C 210 412 234 414.398438 234 426.398438 C 234 414.398438 258 412 258 397.601562 C 258 383.199219 234 383.199219 234 397.601562 "/>
<path style="fill-rule:nonzero;fill:rgb(53%,27%,7%);fill-opacity:1;stroke-width:1;stroke-linecap:butt;stroke-linejoin:miter;stroke:rgb(0%,0%,0%);stroke-opacity:1;stroke-miterlimit:10;" d="M 960 372.601562 C 960 358.199219 936 358.199219 936 372.601562 C 936 387 960 389.398438 960 401.398438 C 960 389.398438 984 387 984 372.601562 C 984 358.199219 960 358.199219 960 372.601562 "/>
</g>
</svg>
