<?xml version="1.0" encoding="UTF-8"?>
<svg xmlns="http://www.w3.org/2000/svg" xmlns:xlink="http://www.w3.org/1999/xlink" width="1179pt" height="517pt" viewBox="0 0 1179 517" version="1.1">
<g id="surface1511">
<rect x="0" y="0" width="1179" height="517" style="fill:rgb(90%,90%,90%);fill-opacity:1;stroke:none;"/>
<path style="fill-rule:nonzero;fill:rgb(55%,51%,53%);fill-opacity:1;stroke-width:1;stroke-linecap:butt;stroke-linejoin:miter;stroke:rgb(0%,0%,0%);stroke-opacity:1;stroke-miterlimit:10;" d="M 813.214844 186 C 813.214844 197.714844 803.714844 207.214844 792 207.214844 C 780.285156 207.214844 770.785156 197.714844 770.785156 186 C 770.785156 174.285156 780.285156 164.785156 792 164.785156 C 803.714844 164.785156 813.214844 174.285156 813.214844 186 "/>
<path style="fill-rule:nonzero;fill:rgb(55%,51%,53%);fill-opacity:1;stroke-width:1;stroke-linecap:butt;stroke-linejoin:miter;stroke:rgb(0%,0%,0%);stroke-opacity:1;stroke-miterlimit:10;" d="M 341.214844 85 C 341.214844 96.714844 331.714844 106.214844 320 106.214844 C 308.285156 106.214844 298.785156 96.714844 298.785156 85 C 298.785156 73.285156 308.285156 63.785156 320 63.785156 C 331.714844 63.785156 341.214844 73.285156 341.214844 85 "/>
<path style="fill-rule:nonzero;fill:rgb(55%,51%,53%);fill-opacity:1;stroke-width:1;stroke-linecap:butt;stroke-linejoin:miter;stroke:rgb(0%,0%,0%);stroke-opacity:1;stroke-miterlimit:10;" d="M 322.214844 296 C 322.214844 307.714844 312.714844 317.214844 301 317.214844 C 289.285156 317.214844 279.785156 307.714844 279.785156 296 C 279.785156 284.285156 289.285156 274.785156 301 274.785156 C 312.714844 274.785156 322.214844 284.285156 322.214844 296 "/>
<path style="fill-rule:nonzero;fill:rgb(55%,51%,53%);fill-opacity:1;stroke-width:1;stroke-linecap:butt;stroke-linejoin:miter;stroke:rgb(0%,0%,0%);stroke-opacity:1;stroke-miterlimit:10;" d="M 718.214844 94 C 718.214844 105.714844 708.714844 115.214844 697 115.214844 C 685.285156 115.214844 675.785156 105.714844 675.785156 94 C 675.785156 82.285156 685.285156 72.785156 697 72.785156 C 708.714844 72.785156 718.214844 82.285156 718.214844 94 "/>
<path style="fill-rule:nonzero;fill:rgb(35%,70%,90%);fill-opacity:1;stroke-width:1;stroke-linecap:butt;stroke-linejoin:miter;stroke:rgb(0%,0%,0%);stroke-opacity:1;stroke-miterlimit:10;" d="M 415 147 L 389.019531 192 L 440.980469 192 L 415 147 "/>
<path style="fill-rule:nonzero;fill:rgb(35%,70%,90%);fill-opacity:1;stroke-width:1;stroke-linecap:butt;stroke-linejoin:miter;stroke:rgb(0%,0%,0%);stroke-opacity:1;stroke-miterlimit:10;" d="M 251 387 L 225.019531 432 L 276.980469 432 L 251 387 "/>
<path style="fill-rule:nonzero;fill:rgb(35%,70%,90%);fill-opacity:1;stroke-width:1;stroke-linecap:butt;stroke-linejoin:miter;stroke:rgb(0%,0%,0%);stroke-opacity:1;stroke-miterlimit:10;" d="M 208 126 L 182.019531 171 L 233.980469 171 L 208 126 "/>
</g>
</svg>
