<?xml version="1.0" encoding="UTF-8"?>
<svg xmlns="http://www.w3.org/2000/svg" xmlns:xlink="http://www.w3.org/1999/xlink" width="1179pt" height="517pt" viewBox="0 0 1179 517" version="1.1">
<g id="surface641">
<rect x="0" y="0" width="1179" height="517" style="fill:rgb(90%,90%,90%);fill-opacity:1;stroke:none;"/>
<path style="fill-rule:nonzero;fill:rgb(100%,51%,0%);fill-opacity:1;stroke-width:1;stroke-linecap:butt;stroke-linejoin:miter;stroke:rgb(0%,0%,0%);stroke-opacity:1;stroke-miterlimit:10;" d="M 219 298 L 248.664062 298 L 260.664062 269.785156 L 272.664062 298 L 302.332031 298 L 278.332031 315.4375 L 286.417969 346.980469 L 260.664062 329.542969 L 234.914062 346.980469 L 247.214844 315.4375 L 219 298 "/>
<path style="fill-rule:nonzero;fill:rgb(100%,51%,0%);fill-opacity:1;stroke-width:1;stroke-linecap:butt;stroke-linejoin:miter;stroke:rgb(0%,0%,0%);stroke-opacity:1;stroke-miterlimit:10;" d="M 223 402 L 252.664062 402 L 264.664062 373.785156 L 276.664062 402 L 306.332031 402 L 282.332031 419.4375 L 290.417969 450.980469 L 264.664062 433.542969 L 238.914062 450.980469 L 251.214844 419.4375 L 223 402 "/>
<path style="fill-rule:nonzero;fill:rgb(100%,51%,0%);fill-opacity:1;stroke-width:1;stroke-linecap:butt;stroke-linejoin:miter;stroke:rgb(0%,0%,0%);stroke-opacity:1;stroke-miterlimit:10;" d="M 367 253 L 396.664062 253 L 408.664062 224.785156 L 420.664062 253 L 450.332031 253 L 426.332031 270.4375 L 434.417969 301.980469 L 408.664062 284.542969 L 382.914062 301.980469 L 395.214844 270.4375 L 367 253 "/>
<path style="fill-rule:nonzero;fill:rgb(53%,27%,7%);fill-opacity:1;stroke-width:1;stroke-linecap:butt;stroke-linejoin:miter;stroke:rgb(0%,0%,0%);stroke-opacity:1;stroke-miterlimit:10;" d="M 911.785156 81.785156 L 911.785156 124.214844 L 954.214844 124.214844 L 954.214844 81.785156 L 911.785156 81.785156 "/>
<path style="fill-rule:nonzero;fill:rgb(53%,27%,7%);fill-opacity:1;stroke-width:1;stroke-linecap:butt;stroke-linejoin:miter;stroke:rgb(0%,0%,0%);stroke-opacity:1;stroke-miterlimit:10;" d="M 969.785156 333.785156 L 969.785156 376.214844 L 1012.214844 376.214844 L 1012.214844 333.785156 L 969.785156 333.785156 "/>
<path style="fill-rule:nonzero;fill:rgb(53%,27%,7%);fill-opacity:1;stroke-width:1;stroke-linecap:butt;stroke-linejoin:miter;stroke:rgb(0%,0%,0%);stroke-opacity:1;stroke-miterlimit:10;" d="M 709.785156 375.785156 L 709.785156 418.214844 L 752.214844 418.214844 L 752.214844 375.785156 L 709.785156 375.785156 "/>
<path style="fill-rule:nonzero;fill:rgb(100%,51%,0%);fill-opacity:1;stroke-width:1;stroke-linecap:butt;stroke-linejoin:miter;stroke:rgb(0%,0%,0%);stroke-opacity:1;stroke-miterlimit:10;" d="M 1001.785156 106.785156 L 1001.785156 149.214844 L 1044.214844 149.214844 L 1044.214844 106.785156 L 1001.785156 106.785156 "/>
<path style="fill-rule:nonzero;fill:rgb(53%,27%,7%);fill-opacity:1;stroke-width:1;stroke-linecap:butt;stroke-linejoin:miter;stroke:rgb(0%,0%,0%);stroke-opacity:1;stroke-miterlimit:10;" d="M 717.785156 168.785156 L 717.785156 211.214844 L 760.214844 211.214844 L 760.214844 168.785156 L 717.785156 168.785156 "/>
</g>
</svg>
