<?xml version="1.0" encoding="UTF-8"?>
<svg xmlns="http://www.w3.org/2000/svg" xmlns:xlink="http://www.w3.org/1999/xlink" width="1179pt" height="517pt" viewBox="0 0 1179 517" version="1.1">
<g id="surface1386">
<rect x="0" y="0" width="1179" height="517" style="fill:rgb(90%,90%,90%);fill-opacity:1;stroke:none;"/>
<path style="fill-rule:nonzero;fill:rgb(55%,51%,53%);fill-opacity:1;stroke-width:1;stroke-linecap:butt;stroke-linejoin:miter;stroke:rgb(0%,0%,0%);stroke-opacity:1;stroke-miterlimit:10;" d="M 366.214844 393 C 366.214844 404.714844 356.714844 414.214844 345 414.214844 C 333.285156 414.214844 323.785156 404.714844 323.785156 393 C 323.785156 381.285156 333.285156 371.785156 345 371.785156 C 356.714844 371.785156 366.214844 381.285156 366.214844 393 "/>
<path style="fill-rule:nonzero;fill:rgb(55%,51%,53%);fill-opacity:1;stroke-width:1;stroke-linecap:butt;stroke-linejoin:miter;stroke:rgb(0%,0%,0%);stroke-opacity:1;stroke-miterlimit:10;" d="M 598.214844 207 C 598.214844 218.714844 588.714844 228.214844 577 228.214844 C 565.285156 228.214844 555.785156 218.714844 555.785156 207 C 555.785156 195.285156 565.285156 185.785156 577 185.785156 C 588.714844 185.785156 598.214844 195.285156 598.214844 207 "/>
<path style="fill-rule:nonzero;fill:rgb(55%,51%,53%);fill-opacity:1;stroke-width:1;stroke-linecap:butt;stroke-linejoin:miter;stroke:rgb(0%,0%,0%);stroke-opacity:1;stroke-miterlimit:10;" d="M 889.214844 398 C 889.214844 409.714844 879.714844 419.214844 868 419.214844 C 856.285156 419.214844 846.785156 409.714844 846.785156 398 C 846.785156 386.285156 856.285156 376.785156 868 376.785156 C 879.714844 376.785156 889.214844 386.285156 889.214844 398 "/>
<path style="fill-rule:nonzero;fill:rgb(100%,51%,0%);fill-opacity:1;stroke-width:1;stroke-linecap:butt;stroke-linejoin:miter;stroke:rgb(0%,0%,0%);stroke-opacity:1;stroke-miterlimit:10;" d="M 820 228.601562 C 820 214.199219 796 214.199219 796 228.601562 C 796 243 820 245.398438 820 257.398438 C 820 245.398438 844 243 844 228.601562 C 844 214.199219 820 214.199219 820 228.601562 "/>
<path style="fill-rule:nonzero;fill:rgb(100%,51%,0%);fill-opacity:1;stroke-width:1;stroke-linecap:butt;stroke-linejoin:miter;stroke:rgb(0%,0%,0%);stroke-opacity:1;stroke-miterlimit:10;" d="M 576 342.601562 C 576 328.199219 552 328.199219 552 342.601562 C 552 357 576 359.398438 576 371.398438 C 576 359.398438 600 357 600 342.601562 C 600 328.199219 576 328.199219 576 342.601562 "/>
<path style="fill-rule:nonzero;fill:rgb(100%,51%,0%);fill-opacity:1;stroke-width:1;stroke-linecap:butt;stroke-linejoin:miter;stroke:rgb(0%,0%,0%);stroke-opacity:1;stroke-miterlimit:10;" d="M 302 138.601562 C 302 124.199219 278 124.199219 278 138.601562 C 278 153 302 155.398438 302 167.398438 C 302 155.398438 326 153 326 138.601562 C 326 124.199219 302 124.199219 302 138.601562 "/>
<path style="fill-rule:nonzero;fill:rgb(100%,51%,0%);fill-opacity:1;stroke-width:1;stroke-linecap:butt;stroke-linejoin:miter;stroke:rgb(0%,0%,0%);stroke-opacity:1;stroke-miterlimit:10;" d="M 721 383.601562 C 721 369.199219 697 369.199219 697 383.601562 C 697 398 721 400.398438 721 412.398438 C 721 400.398438 745 398 745 383.601562 C 745 369.199219 721 369.199219 721 383.601562 "/>
</g>
</svg>
