<?xml version="1.0" encoding="UTF-8"?>
<svg xmlns="http://www.w3.org/2000/svg" xmlns:xlink="http://www.w3.org/1999/xlink" width="1179pt" height="517pt" viewBox="0 0 1179 517" version="1.1">
<g id="surface96">
<rect x="0" y="0" width="1179" height="517" style="fill:rgb(90%,90%,90%);fill-opacity:1;stroke:none;"/>
<path style="fill-rule:nonzero;fill:rgb(100%,51%,0%);fill-opacity:1;stroke-width:1;stroke-linecap:butt;stroke-linejoin:miter;stroke:rgb(0%,0%,0%);stroke-opacity:1;stroke-miterlimit:10;" d="M 207 140 L 236.664062 140 L 248.664062 111.785156 L 260.664062 140 L 290.332031 140 L 266.332031 157.4375 L 274.417969 188.980469 L 248.664062 171.542969 L 222.914062 188.980469 L 235.214844 157.4375 L 207 140 "/>
<path style="fill-rule:nonzero;fill:rgb(100%,51%,0%);fill-opacity:1;stroke-width:1;stroke-linecap:butt;stroke-linejoin:miter;stroke:rgb(0%,0%,0%);stroke-opacity:1;stroke-miterlimit:10;" d="M 971 349 L 1000.664062 349 L 1012.664062 320.785156 L 1024.664062 349 L 1054.332031 349 L 1030.332031 366.4375 L 1038.417969 397.980469 L 1012.664062 380.542969 L 986.914062 397.980469 L 999.214844 366.4375 L 971 349 "/>
<path style="fill-rule:nonzero;fill:rgb(100%,51%,0%);fill-opacity:1;stroke-width:1;stroke-linecap:butt;stroke-linejoin:miter;stroke:rgb(0%,0%,0%);stroke-opacity:1;stroke-miterlimit:10;" d="M 609 269 L 638.664062 269 L 650.664062 240.785156 L 662.664062 269 L 692.332031 269 L 668.332031 286.4375 L 676.417969 317.980469 L 650.664062 300.542969 L 624.914062 317.980469 L 637.214844 286.4375 L 609 269 "/>
<path style="fill-rule:nonzero;fill:rgb(100%,51%,0%);fill-opacity:1;stroke-width:1;stroke-linecap:butt;stroke-linejoin:miter;stroke:rgb(0%,0%,0%);stroke-opacity:1;stroke-miterlimit:10;" d="M 596 108 L 625.664062 108 L 637.664062 79.785156 L 649.664062 108 L 679.332031 108 L 655.332031 125.4375 L 663.417969 156.980469 L 637.664062 139.542969 L 611.914062 156.980469 L 624.214844 125.4375 L 596 108 "/>
<path style="fill-rule:nonzero;fill:rgb(53%,27%,7%);fill-opacity:1;stroke-width:1;stroke-linecap:butt;stroke-linejoin:miter;stroke:rgb(0%,0%,0%);stroke-opacity:1;stroke-miterlimit:10;" d="M 84 356 L 58.019531 401 L 109.980469 401 L 84 356 "/>
<path style="fill-rule:nonzero;fill:rgb(53%,27%,7%);fill-opacity:1;stroke-width:1;stroke-linecap:butt;stroke-linejoin:miter;stroke:rgb(0%,0%,0%);stroke-opacity:1;stroke-miterlimit:10;" d="M 86 220 L 60.019531 265 L 111.980469 265 L 86 220 "/>
<path style="fill-rule:nonzero;fill:rgb(53%,27%,7%);fill-opacity:1;stroke-width:1;stroke-linecap:butt;stroke-linejoin:miter;stroke:rgb(0%,0%,0%);stroke-opacity:1;stroke-miterlimit:10;" d="M 406 116 L 380.019531 161 L 431.980469 161 L 406 116 "/>
<path style="fill-rule:nonzero;fill:rgb(53%,27%,7%);fill-opacity:1;stroke-width:1;stroke-linecap:butt;stroke-linejoin:miter;stroke:rgb(0%,0%,0%);stroke-opacity:1;stroke-miterlimit:10;" d="M 850 82 L 824.019531 127 L 875.980469 127 L 850 82 "/>
</g>
</svg>
