<?xml version="1.0" encoding="UTF-8"?>
<svg xmlns="http://www.w3.org/2000/svg" xmlns:xlink="http://www.w3.org/1999/xlink" width="1179pt" height="517pt" viewBox="0 0 1179 517" version="1.1">
<g id="surface231">
<rect x="0" y="0" width="1179" height="517" style="fill:rgb(90%,90%,90%);fill-opacity:1;stroke:none;"/>
<path style="fill-rule:nonzero;fill:rgb(35%,70%,90%);fill-opacity:1;stroke-width:1;stroke-linecap:butt;stroke-linejoin:miter;stroke:rgb(0%,0%,0%);stroke-opacity:1;stroke-miterlimit:10;" d="M 409.214844 183 C 409.214844 194.714844 399.714844 204.214844 388 204.214844 C 376.285156 204.214844 366.785156 194.714844 366.785156 183 C 366.785156 171.285156 376.285156 161.785156 388 161.785156 C 399.714844 161.785156 409.214844 171.285156 409.214844 183 "/>
<path style="fill-rule:nonzero;fill:rgb(35%,70%,90%);fill-opacity:1;stroke-width:1;stroke-linecap:butt;stroke-linejoin:miter;stroke:rgb(0%,0%,0%);stroke-opacity:1;stroke-miterlimit:10;" d="M 114.785156 192.785156 L 114.785156 235.214844 L 157.214844 235.214844 L 157.214844 192.785156 L 114.785156 192.785156 "/>
<path style="fill-rule:nonzero;fill:rgb(35%,70%,90%);fill-opacity:1;stroke-width:1;stroke-linecap:butt;stroke-linejoin:miter;stroke:rgb(0%,0%,0%);stroke-opacity:1;stroke-miterlimit:10;" d="M 267.785156 311.785156 L 267.785156 354.214844 L 310.214844 354.214844 L 310.214844 311.785156 L 267.785156 311.785156 "/>
<path style="fill-rule:nonzero;fill:rgb(35%,70%,90%);fill-opacity:1;stroke-width:1;stroke-linecap:butt;stroke-linejoin:miter;stroke:rgb(0%,0%,0%);stroke-opacity:1;stroke-miterlimit:10;" d="M 308.214844 123 C 308.214844 134.714844 298.714844 144.214844 287 144.214844 C 275.285156 144.214844 265.785156 134.714844 265.785156 123 C 265.785156 111.285156 275.285156 101.785156 287 101.785156 C 298.714844 101.785156 308.214844 111.285156 308.214844 123 "/>
<path style="fill-rule:nonzero;fill:rgb(53%,27%,7%);fill-opacity:1;stroke-width:1;stroke-linecap:butt;stroke-linejoin:miter;stroke:rgb(0%,0%,0%);stroke-opacity:1;stroke-miterlimit:10;" d="M 792.785156 305.785156 L 792.785156 348.214844 L 835.214844 348.214844 L 835.214844 305.785156 L 792.785156 305.785156 "/>
<path style="fill-rule:nonzero;fill:rgb(53%,27%,7%);fill-opacity:1;stroke-width:1;stroke-linecap:butt;stroke-linejoin:miter;stroke:rgb(0%,0%,0%);stroke-opacity:1;stroke-miterlimit:10;" d="M 862.214844 147 C 862.214844 158.714844 852.714844 168.214844 841 168.214844 C 829.285156 168.214844 819.785156 158.714844 819.785156 147 C 819.785156 135.285156 829.285156 125.785156 841 125.785156 C 852.714844 125.785156 862.214844 135.285156 862.214844 147 "/>
<path style="fill-rule:nonzero;fill:rgb(53%,27%,7%);fill-opacity:1;stroke-width:1;stroke-linecap:butt;stroke-linejoin:miter;stroke:rgb(0%,0%,0%);stroke-opacity:1;stroke-miterlimit:10;" d="M 931.214844 399 C 931.214844 410.714844 921.714844 420.214844 910 420.214844 C 898.285156 420.214844 888.785156 410.714844 888.785156 399 C 888.785156 387.285156 898.285156 377.785156 910 377.785156 C 921.714844 377.785156 931.214844 387.285156 931.214844 399 "/>
<path style="fill-rule:nonzero;fill:rgb(53%,27%,7%);fill-opacity:1;stroke-width:1;stroke-linecap:butt;stroke-linejoin:miter;stroke:rgb(0%,0%,0%);stroke-opacity:1;stroke-miterlimit:10;" d="M 998.785156 330.785156 L 998.785156 373.214844 L 1041.214844 373.214844 L 1041.214844 330.785156 L 998.785156 330.785156 "/>
</g>
</svg>
