<?xml version="1.0" encoding="UTF-8"?>
<svg xmlns="http://www.w3.org/2000/svg" xmlns:xlink="http://www.w3.org/1999/xlink" width="1179pt" height="517pt" viewBox="0 0 1179 517" version="1.1">
<g id="surface1036">
<rect x="0" y="0" width="1179" height="517" style="fill:rgb(90%,90%,90%);fill-opacity:1;stroke:none;"/>
<path style="fill-rule:nonzero;fill:rgb(35%,70%,90%);fill-opacity:1;stroke-width:1;stroke-linecap:butt;stroke-linejoin:miter;stroke:rgb(0%,0%,0%);stroke-opacity:1;stroke-miterlimit:10;" d="M 382 317.601562 C 382 303.199219 358 303.199219 358 317.601562 C 358 332 382 334.398438 382 346.398438 C 382 334.398438 406 332 406 317.601562 C 406 303.199219 382 303.199219 382 317.601562 "/>
<path style="fill-rule:nonzero;fill:rgb(35%,70%,90%);fill-opacity:1;stroke-width:1;stroke-linecap:butt;stroke-linejoin:miter;stroke:rgb(0%,0%,0%);stroke-opacity:1;stroke-miterlimit:10;" d="M 262 88.601562 C 262 74.199219 238 74.199219 238 88.601562 C 238 103 262 105.398438 262 117.398438 C 262 105.398438 286 103 286 88.601562 C 286 74.199219 262 74.199219 262 88.601562 "/>
<path style="fill-rule:nonzero;fill:rgb(35%,70%,90%);fill-opacity:1;stroke-width:1;stroke-linecap:butt;stroke-linejoin:miter;stroke:rgb(0%,0%,0%);stroke-opacity:1;stroke-miterlimit:10;" d="M 507 401.601562 C 507 387.199219 483 387.199219 483 401.601562 C 483 416 507 418.398438 507 430.398438 C 507 418.398438 531 416 531 401.601562 C 531 387.199219 507 387.199219 507 401.601562 "/>
<path style="fill-rule:nonzero;fill:rgb(35%,70%,90%);fill-opacity:1;stroke-width:1;stroke-linecap:butt;stroke-linejoin:miter;stroke:rgb(0%,0%,0%);stroke-opacity:1;stroke-miterlimit:10;" d="M 228 402.601562 C 228 388.199219 204 388.199219 204 402.601562 C 204 417 228 419.398438 228 431.398438 C 228 419.398438 252 417 252 402.601562 C 252 388.199219 228 388.199219 228 402.601562 "/>
<path style="fill-rule:nonzero;fill:rgb(35%,70%,90%);fill-opacity:1;stroke-width:1;stroke-linecap:butt;stroke-linejoin:miter;stroke:rgb(0%,0%,0%);stroke-opacity:1;stroke-miterlimit:10;" d="M 705 398.601562 C 705 384.199219 681 384.199219 681 398.601562 C 681 413 705 415.398438 705 427.398438 C 705 415.398438 729 413 729 398.601562 C 729 384.199219 705 384.199219 705 398.601562 "/>
<path style="fill-rule:nonzero;fill:rgb(53%,27%,7%);fill-opacity:1;stroke-width:1;stroke-linecap:butt;stroke-linejoin:miter;stroke:rgb(0%,0%,0%);stroke-opacity:1;stroke-miterlimit:10;" d="M 486.214844 122 C 486.214844 133.714844 476.714844 143.214844 465 143.214844 C 453.285156 143.214844 443.785156 133.714844 443.785156 122 C 443.785156 110.285156 453.285156 100.785156 465 100.785156 C 476.714844 100.785156 486.214844 110.285156 486.214844 122 "/>
<path style="fill-rule:nonzero;fill:rgb(53%,27%,7%);fill-opacity:1;stroke-width:1;stroke-linecap:butt;stroke-linejoin:miter;stroke:rgb(0%,0%,0%);stroke-opacity:1;stroke-miterlimit:10;" d="M 982.214844 86 C 982.214844 97.714844 972.714844 107.214844 961 107.214844 C 949.285156 107.214844 939.785156 97.714844 939.785156 86 C 939.785156 74.285156 949.285156 64.785156 961 64.785156 C 972.714844 64.785156 982.214844 74.285156 982.214844 86 "/>
<path style="fill-rule:nonzero;fill:rgb(53%,27%,7%);fill-opacity:1;stroke-width:1;stroke-linecap:butt;stroke-linejoin:miter;stroke:rgb(0%,0%,0%);stroke-opacity:1;stroke-miterlimit:10;" d="M 232.214844 229 C 232.214844 240.714844 222.714844 250.214844 211 250.214844 C 199.285156 250.214844 189.785156 240.714844 189.785156 229 C 189.785156 217.285156 199.285156 207.785156 211 207.785156 C 222.714844 207.785156 232.214844 217.285156 232.214844 229 "/>
</g>
</svg>
