<?xml version="1.0" encoding="UTF-8"?>
<svg xmlns="http://www.w3.org/2000/svg" xmlns:xlink="http://www.w3.org/1999/xlink" width="1179pt" height="517pt" viewBox="0 0 1179 517" version="1.1">
<g id="surface1271">
<rect x="0" y="0" width="1179" height="517" style="fill:rgb(90%,90%,90%);fill-opacity:1;stroke:none;"/>
<path style="fill-rule:nonzero;fill:rgb(35%,70%,90%);fill-opacity:1;stroke-width:1;stroke-linecap:butt;stroke-linejoin:miter;stroke:rgb(0%,0%,0%);stroke-opacity:1;stroke-miterlimit:10;" d="M 564.214844 98 C 564.214844 109.714844 554.714844 119.214844 543 119.214844 C 531.285156 119.214844 521.785156 109.714844 521.785156 98 C 521.785156 86.285156 531.285156 76.785156 543 76.785156 C 554.714844 76.785156 564.214844 86.285156 564.214844 98 "/>
<path style="fill-rule:nonzero;fill:rgb(35%,70%,90%);fill-opacity:1;stroke-width:1;stroke-linecap:butt;stroke-linejoin:miter;stroke:rgb(0%,0%,0%);stroke-opacity:1;stroke-miterlimit:10;" d="M 927.214844 337 C 927.214844 348.714844 917.714844 358.214844 906 358.214844 C 894.285156 358.214844 884.785156 348.714844 884.785156 337 C 884.785156 325.285156 894.285156 315.785156 906 315.785156 C 917.714844 315.785156 927.214844 325.285156 927.214844 337 "/>
<path style="fill-rule:nonzero;fill:rgb(35%,70%,90%);fill-opacity:1;stroke-width:1;stroke-linecap:butt;stroke-linejoin:miter;stroke:rgb(0%,0%,0%);stroke-opacity:1;stroke-miterlimit:10;" d="M 443.214844 239 C 443.214844 250.714844 433.714844 260.214844 422 260.214844 C 410.285156 260.214844 400.785156 250.714844 400.785156 239 C 400.785156 227.285156 410.285156 217.785156 422 217.785156 C 433.714844 217.785156 443.214844 227.285156 443.214844 239 "/>
<path style="fill-rule:nonzero;fill:rgb(35%,70%,90%);fill-opacity:1;stroke-width:1;stroke-linecap:butt;stroke-linejoin:miter;stroke:rgb(0%,0%,0%);stroke-opacity:1;stroke-miterlimit:10;" d="M 763.214844 347 C 763.214844 358.714844 753.714844 368.214844 742 368.214844 C 730.285156 368.214844 720.785156 358.714844 720.785156 347 C 720.785156 335.285156 730.285156 325.785156 742 325.785156 C 753.714844 325.785156 763.214844 335.285156 763.214844 347 "/>
<path style="fill-rule:nonzero;fill:rgb(55%,51%,53%);fill-opacity:1;stroke-width:1;stroke-linecap:butt;stroke-linejoin:miter;stroke:rgb(0%,0%,0%);stroke-opacity:1;stroke-miterlimit:10;" d="M 991 183 L 1020.664062 183 L 1032.664062 154.785156 L 1044.664062 183 L 1074.332031 183 L 1050.332031 200.4375 L 1058.417969 231.980469 L 1032.664062 214.542969 L 1006.914062 231.980469 L 1019.214844 200.4375 L 991 183 "/>
<path style="fill-rule:nonzero;fill:rgb(55%,51%,53%);fill-opacity:1;stroke-width:1;stroke-linecap:butt;stroke-linejoin:miter;stroke:rgb(0%,0%,0%);stroke-opacity:1;stroke-miterlimit:10;" d="M 231 279 L 260.664062 279 L 272.664062 250.785156 L 284.664062 279 L 314.332031 279 L 290.332031 296.4375 L 298.417969 327.980469 L 272.664062 310.542969 L 246.914062 327.980469 L 259.214844 296.4375 L 231 279 "/>
<path style="fill-rule:nonzero;fill:rgb(55%,51%,53%);fill-opacity:1;stroke-width:1;stroke-linecap:butt;stroke-linejoin:miter;stroke:rgb(0%,0%,0%);stroke-opacity:1;stroke-miterlimit:10;" d="M 534 328 L 563.664062 328 L 575.664062 299.785156 L 587.664062 328 L 617.332031 328 L 593.332031 345.4375 L 601.417969 376.980469 L 575.664062 359.542969 L 549.914062 376.980469 L 562.214844 345.4375 L 534 328 "/>
<path style="fill-rule:nonzero;fill:rgb(55%,51%,53%);fill-opacity:1;stroke-width:1;stroke-linecap:butt;stroke-linejoin:miter;stroke:rgb(0%,0%,0%);stroke-opacity:1;stroke-miterlimit:10;" d="M 83 141 L 112.664062 141 L 124.664062 112.785156 L 136.664062 141 L 166.332031 141 L 142.332031 158.4375 L 150.417969 189.980469 L 124.664062 172.542969 L 98.914062 189.980469 L 111.214844 158.4375 L 83 141 "/>
</g>
</svg>
