<?xml version="1.0" encoding="UTF-8"?>
<svg xmlns="http://www.w3.org/2000/svg" xmlns:xlink="http://www.w3.org/1999/xlink" width="1179pt" height="517pt" viewBox="0 0 1179 517" version="1.1">
<g id="surface961">
<rect x="0" y="0" width="1179" height="517" style="fill:rgb(90%,90%,90%);fill-opacity:1;stroke:none;"/>
<path style="fill-rule:nonzero;fill:rgb(53%,27%,7%);fill-opacity:1;stroke-width:1;stroke-linecap:butt;stroke-linejoin:miter;stroke:rgb(0%,0%,0%);stroke-opacity:1;stroke-miterlimit:10;" d="M 722 390 L 751.664062 390 L 763.664062 361.785156 L 775.664062 390 L 805.332031 390 L 781.332031 407.4375 L 789.417969 438.980469 L 763.664062 421.542969 L 737.914062 438.980469 L 750.214844 407.4375 L 722 390 "/>
<path style="fill-rule:nonzero;fill:rgb(53%,27%,7%);fill-opacity:1;stroke-width:1;stroke-linecap:butt;stroke-linejoin:miter;stroke:rgb(0%,0%,0%);stroke-opacity:1;stroke-miterlimit:10;" d="M 892 318 L 921.664062 318 L 933.664062 289.785156 L 945.664062 318 L 975.332031 318 L 951.332031 335.4375 L 959.417969 366.980469 L 933.664062 349.542969 L 907.914062 366.980469 L 920.214844 335.4375 L 892 318 "/>
<path style="fill-rule:nonzero;fill:rgb(53%,27%,7%);fill-opacity:1;stroke-width:1;stroke-linecap:butt;stroke-linejoin:miter;stroke:rgb(0%,0%,0%);stroke-opacity:1;stroke-miterlimit:10;" d="M 834 173 L 863.664062 173 L 875.664062 144.785156 L 887.664062 173 L 917.332031 173 L 893.332031 190.4375 L 901.417969 221.980469 L 875.664062 204.542969 L 849.914062 221.980469 L 862.214844 190.4375 L 834 173 "/>
<path style="fill-rule:nonzero;fill:rgb(53%,27%,7%);fill-opacity:1;stroke-width:1;stroke-linecap:butt;stroke-linejoin:miter;stroke:rgb(0%,0%,0%);stroke-opacity:1;stroke-miterlimit:10;" d="M 323 167 L 352.664062 167 L 364.664062 138.785156 L 376.664062 167 L 406.332031 167 L 382.332031 184.4375 L 390.417969 215.980469 L 364.664062 198.542969 L 338.914062 215.980469 L 351.214844 184.4375 L 323 167 "/>
<path style="fill-rule:nonzero;fill:rgb(53%,27%,7%);fill-opacity:1;stroke-width:1;stroke-linecap:butt;stroke-linejoin:miter;stroke:rgb(0%,0%,0%);stroke-opacity:1;stroke-miterlimit:10;" d="M 688 150 L 717.664062 150 L 729.664062 121.785156 L 741.664062 150 L 771.332031 150 L 747.332031 167.4375 L 755.417969 198.980469 L 729.664062 181.542969 L 703.914062 198.980469 L 716.214844 167.4375 L 688 150 "/>
<path style="fill-rule:nonzero;fill:rgb(55%,51%,53%);fill-opacity:1;stroke-width:1;stroke-linecap:butt;stroke-linejoin:miter;stroke:rgb(0%,0%,0%);stroke-opacity:1;stroke-miterlimit:10;" d="M 481 311 L 510.664062 311 L 522.664062 282.785156 L 534.664062 311 L 564.332031 311 L 540.332031 328.4375 L 548.417969 359.980469 L 522.664062 342.542969 L 496.914062 359.980469 L 509.214844 328.4375 L 481 311 "/>
<path style="fill-rule:nonzero;fill:rgb(55%,51%,53%);fill-opacity:1;stroke-width:1;stroke-linecap:butt;stroke-linejoin:miter;stroke:rgb(0%,0%,0%);stroke-opacity:1;stroke-miterlimit:10;" d="M 480 85 L 509.664062 85 L 521.664062 56.785156 L 533.664062 85 L 563.332031 85 L 539.332031 102.4375 L 547.417969 133.980469 L 521.664062 116.542969 L 495.914062 133.980469 L 508.214844 102.4375 L 480 85 "/>
<path style="fill-rule:nonzero;fill:rgb(55%,51%,53%);fill-opacity:1;stroke-width:1;stroke-linecap:butt;stroke-linejoin:miter;stroke:rgb(0%,0%,0%);stroke-opacity:1;stroke-miterlimit:10;" d="M 263 319 L 292.664062 319 L 304.664062 290.785156 L 316.664062 319 L 346.332031 319 L 322.332031 336.4375 L 330.417969 367.980469 L 304.664062 350.542969 L 278.914062 367.980469 L 291.214844 336.4375 L 263 319 "/>
<path style="fill-rule:nonzero;fill:rgb(55%,51%,53%);fill-opacity:1;stroke-width:1;stroke-linecap:butt;stroke-linejoin:miter;stroke:rgb(0%,0%,0%);stroke-opacity:1;stroke-miterlimit:10;" d="M 404 404 L 433.664062 404 L 445.664062 375.785156 L 457.664062 404 L 487.332031 404 L 463.332031 421.4375 L 471.417969 452.980469 L 445.664062 435.542969 L 419.914062 452.980469 L 432.214844 421.4375 L 404 404 "/>
</g>
</svg>
