<?xml version="1.0" encoding="UTF-8"?>
<svg xmlns="http://www.w3.org/2000/svg" xmlns:xlink="http://www.w3.org/1999/xlink" width="1179pt" height="517pt" viewBox="0 0 1179 517" version="1.1">
<g id="surface376">
<rect x="0" y="0" width="1179" height="517" style="fill:rgb(90%,90%,90%);fill-opacity:1;stroke:none;"/>
<path style="fill-rule:nonzero;fill:rgb(35%,70%,90%);fill-opacity:1;stroke-width:1;stroke-linecap:butt;stroke-linejoin:miter;stroke:rgb(0%,0%,0%);stroke-opacity:1;stroke-miterlimit:10;" d="M 124.214844 258 C 124.214844 269.714844 114.714844 279.214844 103 279.214844 C 91.285156 279.214844 81.785156 269.714844 81.785156 258 C 81.785156 246.285156 91.285156 236.785156 103 236.785156 C 114.714844 236.785156 124.214844 246.285156 124.214844 258 "/>
<path style="fill-rule:nonzero;fill:rgb(35%,70%,90%);fill-opacity:1;stroke-width:1;stroke-linecap:butt;stroke-linejoin:miter;stroke:rgb(0%,0%,0%);stroke-opacity:1;stroke-miterlimit:10;" d="M 356 222 L 330.019531 267 L 381.980469 267 L 356 222 "/>
<path style="fill-rule:nonzero;fill:rgb(35%,70%,90%);fill-opacity:1;stroke-width:1;stroke-linecap:butt;stroke-linejoin:miter;stroke:rgb(0%,0%,0%);stroke-opacity:1;stroke-miterlimit:10;" d="M 193 267 L 167.019531 312 L 218.980469 312 L 193 267 "/>
<path style="fill-rule:nonzero;fill:rgb(35%,70%,90%);fill-opacity:1;stroke-width:1;stroke-linecap:butt;stroke-linejoin:miter;stroke:rgb(0%,0%,0%);stroke-opacity:1;stroke-miterlimit:10;" d="M 413.214844 432 C 413.214844 443.714844 403.714844 453.214844 392 453.214844 C 380.285156 453.214844 370.785156 443.714844 370.785156 432 C 370.785156 420.285156 380.285156 410.785156 392 410.785156 C 403.714844 410.785156 413.214844 420.285156 413.214844 432 "/>
<path style="fill-rule:nonzero;fill:rgb(35%,70%,90%);fill-opacity:1;stroke-width:1;stroke-linecap:butt;stroke-linejoin:miter;stroke:rgb(0%,0%,0%);stroke-opacity:1;stroke-miterlimit:10;" d="M 141.214844 432 C 141.214844 443.714844 131.714844 453.214844 120 453.214844 C 108.285156 453.214844 98.785156 443.714844 98.785156 432 C 98.785156 420.285156 108.285156 410.785156 120 410.785156 C 131.714844 410.785156 141.214844 420.285156 141.214844 432 "/>
<path style="fill-rule:nonzero;fill:rgb(35%,70%,90%);fill-opacity:1;stroke-width:1;stroke-linecap:butt;stroke-linejoin:miter;stroke:rgb(0%,0%,0%);stroke-opacity:1;stroke-miterlimit:10;" d="M 106.214844 123 C 106.214844 134.714844 96.714844 144.214844 85 144.214844 C 73.285156 144.214844 63.785156 134.714844 63.785156 123 C 63.785156 111.285156 73.285156 101.785156 85 101.785156 C 96.714844 101.785156 106.214844 111.285156 106.214844 123 "/>
<path style="fill-rule:nonzero;fill:rgb(100%,51%,0%);fill-opacity:1;stroke-width:1;stroke-linecap:butt;stroke-linejoin:miter;stroke:rgb(0%,0%,0%);stroke-opacity:1;stroke-miterlimit:10;" d="M 759 144 L 733.019531 189 L 784.980469 189 L 759 144 "/>
<path style="fill-rule:nonzero;fill:rgb(100%,51%,0%);fill-opacity:1;stroke-width:1;stroke-linecap:butt;stroke-linejoin:miter;stroke:rgb(0%,0%,0%);stroke-opacity:1;stroke-miterlimit:10;" d="M 831.214844 264 C 831.214844 275.714844 821.714844 285.214844 810 285.214844 C 798.285156 285.214844 788.785156 275.714844 788.785156 264 C 788.785156 252.285156 798.285156 242.785156 810 242.785156 C 821.714844 242.785156 831.214844 252.285156 831.214844 264 "/>
<path style="fill-rule:nonzero;fill:rgb(100%,51%,0%);fill-opacity:1;stroke-width:1;stroke-linecap:butt;stroke-linejoin:miter;stroke:rgb(0%,0%,0%);stroke-opacity:1;stroke-miterlimit:10;" d="M 1058.214844 416 C 1058.214844 427.714844 1048.714844 437.214844 1037 437.214844 C 1025.285156 437.214844 1015.785156 427.714844 1015.785156 416 C 1015.785156 404.285156 1025.285156 394.785156 1037 394.785156 C 1048.714844 394.785156 1058.214844 404.285156 1058.214844 416 "/>
<path style="fill-rule:nonzero;fill:rgb(100%,51%,0%);fill-opacity:1;stroke-width:1;stroke-linecap:butt;stroke-linejoin:miter;stroke:rgb(0%,0%,0%);stroke-opacity:1;stroke-miterlimit:10;" d="M 939 214 L 913.019531 259 L 964.980469 259 L 939 214 "/>
</g>
</svg>
