<?xml version="1.0" encoding="UTF-8"?>
<svg xmlns="http://www.w3.org/2000/svg" xmlns:xlink="http://www.w3.org/1999/xlink" width="1179pt" height="517pt" viewBox="0 0 1179 517" version="1.1">
<g id="surface641">
<rect x="0" y="0" width="1179" height="517" style="fill:rgb(90%,90%,90%);fill-opacity:1;stroke:none;"/>
<path style="fill-rule:nonzero;fill:rgb(100%,51%,0%);fill-opacity:1;stroke-width:1;stroke-linecap:butt;stroke-linejoin:miter;stroke:rgb(0%,0%,0%);stroke-opacity:1;stroke-miterlimit:10;" d="M 341 180 L 370.664062 180 L 382.664062 151.785156 L 394.664062 180 L 424.332031 180 L 400.332031 197.4375 L 408.417969 228.980469 L 382.664062 211.542969 L 356.914062 228.980469 L 369.214844 197.4375 L 341 180 "/>
<path style="fill-rule:nonzero;fill:rgb(100%,51%,0%);fill-opacity:1;stroke-width:1;stroke-linecap:butt;stroke-linejoin:miter;stroke:rgb(0%,0%,0%);stroke-opacity:1;stroke-miterlimit:10;" d="M 109 295 L 138.664062 295 L 150.664062 266.785156 L 162.664062 295 L 192.332031 295 L 168.332031 312.4375 L 176.417969 343.980469 L 150.664062 326.542969 L 124.914062 343.980469 L 137.214844 312.4375 L 109 295 "/>
<path style="fill-rule:nonzero;fill:rgb(53%,27%,7%);fill-opacity:1;stroke-width:1;stroke-linecap:butt;stroke-linejoin:miter;stroke:rgb(0%,0%,0%);stroke-opacity:1;stroke-miterlimit:10;" d="M 124 101 L 153.664062 101 L 165.664062 72.785156 L 177.664062 101 L 207.332031 101 L 183.332031 118.4375 L 191.417969 149.980469 L 165.664062 132.542969 L 139.914062 149.980469 L 152.214844 118.4375 L 124 101 "/>
<path style="fill-rule:nonzero;fill:rgb(53%,27%,7%);fill-opacity:1;stroke-width:1;stroke-linecap:butt;stroke-linejoin:miter;stroke:rgb(0%,0%,0%);stroke-opacity:1;stroke-miterlimit:10;" d="M 819.785156 211.785156 L 819.785156 254.214844 L 862.214844 254.214844 L 862.214844 211.785156 L 819.785156 211.785156 "/>
<path style="fill-rule:nonzero;fill:rgb(53%,27%,7%);fill-opacity:1;stroke-width:1;stroke-linecap:butt;stroke-linejoin:miter;stroke:rgb(0%,0%,0%);stroke-opacity:1;stroke-miterlimit:10;" d="M 993.785156 236.785156 L 993.785156 279.214844 L 1036.214844 279.214844 L 1036.214844 236.785156 L 993.785156 236.785156 "/>
<path style="fill-rule:nonzero;fill:rgb(100%,51%,0%);fill-opacity:1;stroke-width:1;stroke-linecap:butt;stroke-linejoin:miter;stroke:rgb(0%,0%,0%);stroke-opacity:1;stroke-miterlimit:10;" d="M 930.785156 81.785156 L 930.785156 124.214844 L 973.214844 124.214844 L 973.214844 81.785156 L 930.785156 81.785156 "/>
<path style="fill-rule:nonzero;fill:rgb(100%,51%,0%);fill-opacity:1;stroke-width:1;stroke-linecap:butt;stroke-linejoin:miter;stroke:rgb(0%,0%,0%);stroke-opacity:1;stroke-miterlimit:10;" d="M 794.785156 354.785156 L 794.785156 397.214844 L 837.214844 397.214844 L 837.214844 354.785156 L 794.785156 354.785156 "/>
<path style="fill-rule:nonzero;fill:rgb(53%,27%,7%);fill-opacity:1;stroke-width:1;stroke-linecap:butt;stroke-linejoin:miter;stroke:rgb(0%,0%,0%);stroke-opacity:1;stroke-miterlimit:10;" d="M 914.785156 393.785156 L 914.785156 436.214844 L 957.214844 436.214844 L 957.214844 393.785156 L 914.785156 393.785156 "/>
</g>
</svg>
