<?xml version="1.0" encoding="UTF-8"?>
<svg xmlns="http://www.w3.org/2000/svg" xmlns:xlink="http://www.w3.org/1999/xlink" width="1179pt" height="517pt" viewBox="0 0 1179 517" version="1.1">
<g id="surface666">
<rect x="0" y="0" width="1179" height="517" style="fill:rgb(90%,90%,90%);fill-opacity:1;stroke:none;"/>
<path style="fill-rule:nonzero;fill:rgb(100%,51%,0%);fill-opacity:1;stroke-width:1;stroke-linecap:butt;stroke-linejoin:miter;stroke:rgb(0%,0%,0%);stroke-opacity:1;stroke-miterlimit:10;" d="M 540 263 L 569.664062 263 L 581.664062 234.785156 L 593.664062 263 L 623.332031 263 L 599.332031 280.4375 L 607.417969 311.980469 L 581.664062 294.542969 L 555.914062 311.980469 L 568.214844 280.4375 L 540 263 "/>
<path style="fill-rule:nonzero;fill:rgb(100%,51%,0%);fill-opacity:1;stroke-width:1;stroke-linecap:butt;stroke-linejoin:miter;stroke:rgb(0%,0%,0%);stroke-opacity:1;stroke-miterlimit:10;" d="M 1009 255 L 1038.664062 255 L 1050.664062 226.785156 L 1062.664062 255 L 1092.332031 255 L 1068.332031 272.4375 L 1076.417969 303.980469 L 1050.664062 286.542969 L 1024.914062 303.980469 L 1037.214844 272.4375 L 1009 255 "/>
<path style="fill-rule:nonzero;fill:rgb(100%,51%,0%);fill-opacity:1;stroke-width:1;stroke-linecap:butt;stroke-linejoin:miter;stroke:rgb(0%,0%,0%);stroke-opacity:1;stroke-miterlimit:10;" d="M 768 177 L 797.664062 177 L 809.664062 148.785156 L 821.664062 177 L 851.332031 177 L 827.332031 194.4375 L 835.417969 225.980469 L 809.664062 208.542969 L 783.914062 225.980469 L 796.214844 194.4375 L 768 177 "/>
<path style="fill-rule:nonzero;fill:rgb(100%,51%,0%);fill-opacity:1;stroke-width:1;stroke-linecap:butt;stroke-linejoin:miter;stroke:rgb(0%,0%,0%);stroke-opacity:1;stroke-miterlimit:10;" d="M 185 375 L 214.664062 375 L 226.664062 346.785156 L 238.664062 375 L 268.332031 375 L 244.332031 392.4375 L 252.417969 423.980469 L 226.664062 406.542969 L 200.914062 423.980469 L 213.214844 392.4375 L 185 375 "/>
<path style="fill-rule:nonzero;fill:rgb(100%,51%,0%);fill-opacity:1;stroke-width:1;stroke-linecap:butt;stroke-linejoin:miter;stroke:rgb(0%,0%,0%);stroke-opacity:1;stroke-miterlimit:10;" d="M 889 142 L 918.664062 142 L 930.664062 113.785156 L 942.664062 142 L 972.332031 142 L 948.332031 159.4375 L 956.417969 190.980469 L 930.664062 173.542969 L 904.914062 190.980469 L 917.214844 159.4375 L 889 142 "/>
<path style="fill-rule:nonzero;fill:rgb(55%,51%,53%);fill-opacity:1;stroke-width:1;stroke-linecap:butt;stroke-linejoin:miter;stroke:rgb(0%,0%,0%);stroke-opacity:1;stroke-miterlimit:10;" d="M 564 397 L 538.019531 442 L 589.980469 442 L 564 397 "/>
<path style="fill-rule:nonzero;fill:rgb(55%,51%,53%);fill-opacity:1;stroke-width:1;stroke-linecap:butt;stroke-linejoin:miter;stroke:rgb(0%,0%,0%);stroke-opacity:1;stroke-miterlimit:10;" d="M 174 99 L 148.019531 144 L 199.980469 144 L 174 99 "/>
<path style="fill-rule:nonzero;fill:rgb(55%,51%,53%);fill-opacity:1;stroke-width:1;stroke-linecap:butt;stroke-linejoin:miter;stroke:rgb(0%,0%,0%);stroke-opacity:1;stroke-miterlimit:10;" d="M 279 230 L 253.019531 275 L 304.980469 275 L 279 230 "/>
</g>
</svg>
