<?xml version="1.0" encoding="UTF-8"?>
<svg xmlns="http://www.w3.org/2000/svg" xmlns:xlink="http://www.w3.org/1999/xlink" width="1179pt" height="517pt" viewBox="0 0 1179 517" version="1.1">
<g id="surface1296">
<rect x="0" y="0" width="1179" height="517" style="fill:rgb(90%,90%,90%);fill-opacity:1;stroke:none;"/>
<path style="fill-rule:nonzero;fill:rgb(55%,51%,53%);fill-opacity:1;stroke-width:1;stroke-linecap:butt;stroke-linejoin:miter;stroke:rgb(0%,0%,0%);stroke-opacity:1;stroke-miterlimit:10;" d="M 977.214844 98 C 977.214844 109.714844 967.714844 119.214844 956 119.214844 C 944.285156 119.214844 934.785156 109.714844 934.785156 98 C 934.785156 86.285156 944.285156 76.785156 956 76.785156 C 967.714844 76.785156 977.214844 86.285156 977.214844 98 "/>
<path style="fill-rule:nonzero;fill:rgb(55%,51%,53%);fill-opacity:1;stroke-width:1;stroke-linecap:butt;stroke-linejoin:miter;stroke:rgb(0%,0%,0%);stroke-opacity:1;stroke-miterlimit:10;" d="M 194.214844 219 C 194.214844 230.714844 184.714844 240.214844 173 240.214844 C 161.285156 240.214844 151.785156 230.714844 151.785156 219 C 151.785156 207.285156 161.285156 197.785156 173 197.785156 C 184.714844 197.785156 194.214844 207.285156 194.214844 219 "/>
<path style="fill-rule:nonzero;fill:rgb(55%,51%,53%);fill-opacity:1;stroke-width:1;stroke-linecap:butt;stroke-linejoin:miter;stroke:rgb(0%,0%,0%);stroke-opacity:1;stroke-miterlimit:10;" d="M 592.214844 143 C 592.214844 154.714844 582.714844 164.214844 571 164.214844 C 559.285156 164.214844 549.785156 154.714844 549.785156 143 C 549.785156 131.285156 559.285156 121.785156 571 121.785156 C 582.714844 121.785156 592.214844 131.285156 592.214844 143 "/>
<path style="fill-rule:nonzero;fill:rgb(100%,51%,0%);fill-opacity:1;stroke-width:1;stroke-linecap:butt;stroke-linejoin:miter;stroke:rgb(0%,0%,0%);stroke-opacity:1;stroke-miterlimit:10;" d="M 951 296.601562 C 951 282.199219 927 282.199219 927 296.601562 C 927 311 951 313.398438 951 325.398438 C 951 313.398438 975 311 975 296.601562 C 975 282.199219 951 282.199219 951 296.601562 "/>
<path style="fill-rule:nonzero;fill:rgb(100%,51%,0%);fill-opacity:1;stroke-width:1;stroke-linecap:butt;stroke-linejoin:miter;stroke:rgb(0%,0%,0%);stroke-opacity:1;stroke-miterlimit:10;" d="M 776 168.601562 C 776 154.199219 752 154.199219 752 168.601562 C 752 183 776 185.398438 776 197.398438 C 776 185.398438 800 183 800 168.601562 C 800 154.199219 776 154.199219 776 168.601562 "/>
<path style="fill-rule:nonzero;fill:rgb(100%,51%,0%);fill-opacity:1;stroke-width:1;stroke-linecap:butt;stroke-linejoin:miter;stroke:rgb(0%,0%,0%);stroke-opacity:1;stroke-miterlimit:10;" d="M 473 250.601562 C 473 236.199219 449 236.199219 449 250.601562 C 449 265 473 267.398438 473 279.398438 C 473 267.398438 497 265 497 250.601562 C 497 236.199219 473 236.199219 473 250.601562 "/>
<path style="fill-rule:nonzero;fill:rgb(100%,51%,0%);fill-opacity:1;stroke-width:1;stroke-linecap:butt;stroke-linejoin:miter;stroke:rgb(0%,0%,0%);stroke-opacity:1;stroke-miterlimit:10;" d="M 430 379.601562 C 430 365.199219 406 365.199219 406 379.601562 C 406 394 430 396.398438 430 408.398438 C 430 396.398438 454 394 454 379.601562 C 454 365.199219 430 365.199219 430 379.601562 "/>
</g>
</svg>
