<?xml version="1.0" encoding="UTF-8"?>
<svg xmlns="http://www.w3.org/2000/svg" xmlns:xlink="http://www.w3.org/1999/xlink" width="1179pt" height="517pt" viewBox="0 0 1179 517" version="1.1">
<g id="surface961">
<rect x="0" y="0" width="1179" height="517" style="fill:rgb(90%,90%,90%);fill-opacity:1;stroke:none;"/>
<path style="fill-rule:nonzero;fill:rgb(35%,70%,90%);fill-opacity:1;stroke-width:1;stroke-linecap:butt;stroke-linejoin:miter;stroke:rgb(0%,0%,0%);stroke-opacity:1;stroke-miterlimit:10;" d="M 879 224 L 908.664062 224 L 920.664062 195.785156 L 932.664062 224 L 962.332031 224 L 938.332031 241.4375 L 946.417969 272.980469 L 920.664062 255.542969 L 894.914062 272.980469 L 907.214844 241.4375 L 879 224 "/>
<path style="fill-rule:nonzero;fill:rgb(35%,70%,90%);fill-opacity:1;stroke-width:1;stroke-linecap:butt;stroke-linejoin:miter;stroke:rgb(0%,0%,0%);stroke-opacity:1;stroke-miterlimit:10;" d="M 653 263 L 682.664062 263 L 694.664062 234.785156 L 706.664062 263 L 736.332031 263 L 712.332031 280.4375 L 720.417969 311.980469 L 694.664062 294.542969 L 668.914062 311.980469 L 681.214844 280.4375 L 653 263 "/>
<path style="fill-rule:nonzero;fill:rgb(35%,70%,90%);fill-opacity:1;stroke-width:1;stroke-linecap:butt;stroke-linejoin:miter;stroke:rgb(0%,0%,0%);stroke-opacity:1;stroke-miterlimit:10;" d="M 423 159 L 452.664062 159 L 464.664062 130.785156 L 476.664062 159 L 506.332031 159 L 482.332031 176.4375 L 490.417969 207.980469 L 464.664062 190.542969 L 438.914062 207.980469 L 451.214844 176.4375 L 423 159 "/>
<path style="fill-rule:nonzero;fill:rgb(35%,70%,90%);fill-opacity:1;stroke-width:1;stroke-linecap:butt;stroke-linejoin:miter;stroke:rgb(0%,0%,0%);stroke-opacity:1;stroke-miterlimit:10;" d="M 886 401 L 915.664062 401 L 927.664062 372.785156 L 939.664062 401 L 969.332031 401 L 945.332031 418.4375 L 953.417969 449.980469 L 927.664062 432.542969 L 901.914062 449.980469 L 914.214844 418.4375 L 886 401 "/>
<path style="fill-rule:nonzero;fill:rgb(35%,70%,90%);fill-opacity:1;stroke-width:1;stroke-linecap:butt;stroke-linejoin:miter;stroke:rgb(0%,0%,0%);stroke-opacity:1;stroke-miterlimit:10;" d="M 291 125 L 320.664062 125 L 332.664062 96.785156 L 344.664062 125 L 374.332031 125 L 350.332031 142.4375 L 358.417969 173.980469 L 332.664062 156.542969 L 306.914062 173.980469 L 319.214844 142.4375 L 291 125 "/>
<path style="fill-rule:nonzero;fill:rgb(55%,51%,53%);fill-opacity:1;stroke-width:1;stroke-linecap:butt;stroke-linejoin:miter;stroke:rgb(0%,0%,0%);stroke-opacity:1;stroke-miterlimit:10;" d="M 714.214844 381 C 714.214844 392.714844 704.714844 402.214844 693 402.214844 C 681.285156 402.214844 671.785156 392.714844 671.785156 381 C 671.785156 369.285156 681.285156 359.785156 693 359.785156 C 704.714844 359.785156 714.214844 369.285156 714.214844 381 "/>
<path style="fill-rule:nonzero;fill:rgb(55%,51%,53%);fill-opacity:1;stroke-width:1;stroke-linecap:butt;stroke-linejoin:miter;stroke:rgb(0%,0%,0%);stroke-opacity:1;stroke-miterlimit:10;" d="M 1060.214844 402 C 1060.214844 413.714844 1050.714844 423.214844 1039 423.214844 C 1027.285156 423.214844 1017.785156 413.714844 1017.785156 402 C 1017.785156 390.285156 1027.285156 380.785156 1039 380.785156 C 1050.714844 380.785156 1060.214844 390.285156 1060.214844 402 "/>
<path style="fill-rule:nonzero;fill:rgb(55%,51%,53%);fill-opacity:1;stroke-width:1;stroke-linecap:butt;stroke-linejoin:miter;stroke:rgb(0%,0%,0%);stroke-opacity:1;stroke-miterlimit:10;" d="M 118.214844 175 C 118.214844 186.714844 108.714844 196.214844 97 196.214844 C 85.285156 196.214844 75.785156 186.714844 75.785156 175 C 75.785156 163.285156 85.285156 153.785156 97 153.785156 C 108.714844 153.785156 118.214844 163.285156 118.214844 175 "/>
<path style="fill-rule:nonzero;fill:rgb(55%,51%,53%);fill-opacity:1;stroke-width:1;stroke-linecap:butt;stroke-linejoin:miter;stroke:rgb(0%,0%,0%);stroke-opacity:1;stroke-miterlimit:10;" d="M 541.214844 315 C 541.214844 326.714844 531.714844 336.214844 520 336.214844 C 508.285156 336.214844 498.785156 326.714844 498.785156 315 C 498.785156 303.285156 508.285156 293.785156 520 293.785156 C 531.714844 293.785156 541.214844 303.285156 541.214844 315 "/>
</g>
</svg>
