<?xml version="1.0" encoding="UTF-8"?>
<svg xmlns="http://www.w3.org/2000/svg" xmlns:xlink="http://www.w3.org/1999/xlink" width="1179pt" height="517pt" viewBox="0 0 1179 517" version="1.1">
<g id="surface36">
<rect x="0" y="0" width="1179" height="517" style="fill:rgb(90%,90%,90%);fill-opacity:1;stroke:none;"/>
<path style="fill-rule:nonzero;fill:rgb(35%,70%,90%);fill-opacity:1;stroke-width:1;stroke-linecap:butt;stroke-linejoin:miter;stroke:rgb(0%,0%,0%);stroke-opacity:1;stroke-miterlimit:10;" d="M 107 236 L 136.664062 236 L 148.664062 207.785156 L 160.664062 236 L 190.332031 236 L 166.332031 253.4375 L 174.417969 284.980469 L 148.664062 267.542969 L 122.914062 284.980469 L 135.214844 253.4375 L 107 236 "/>
<path style="fill-rule:nonzero;fill:rgb(35%,70%,90%);fill-opacity:1;stroke-width:1;stroke-linecap:butt;stroke-linejoin:miter;stroke:rgb(0%,0%,0%);stroke-opacity:1;stroke-miterlimit:10;" d="M 571 257 L 600.664062 257 L 612.664062 228.785156 L 624.664062 257 L 654.332031 257 L 630.332031 274.4375 L 638.417969 305.980469 L 612.664062 288.542969 L 586.914062 305.980469 L 599.214844 274.4375 L 571 257 "/>
<path style="fill-rule:nonzero;fill:rgb(35%,70%,90%);fill-opacity:1;stroke-width:1;stroke-linecap:butt;stroke-linejoin:miter;stroke:rgb(0%,0%,0%);stroke-opacity:1;stroke-miterlimit:10;" d="M 275 186 L 304.664062 186 L 316.664062 157.785156 L 328.664062 186 L 358.332031 186 L 334.332031 203.4375 L 342.417969 234.980469 L 316.664062 217.542969 L 290.914062 234.980469 L 303.214844 203.4375 L 275 186 "/>
<path style="fill-rule:nonzero;fill:rgb(35%,70%,90%);fill-opacity:1;stroke-width:1;stroke-linecap:butt;stroke-linejoin:miter;stroke:rgb(0%,0%,0%);stroke-opacity:1;stroke-miterlimit:10;" d="M 380 80 L 409.664062 80 L 421.664062 51.785156 L 433.664062 80 L 463.332031 80 L 439.332031 97.4375 L 447.417969 128.980469 L 421.664062 111.542969 L 395.914062 128.980469 L 408.214844 97.4375 L 380 80 "/>
<path style="fill-rule:nonzero;fill:rgb(53%,27%,7%);fill-opacity:1;stroke-width:1;stroke-linecap:butt;stroke-linejoin:miter;stroke:rgb(0%,0%,0%);stroke-opacity:1;stroke-miterlimit:10;" d="M 245 299 L 219.019531 344 L 270.980469 344 L 245 299 "/>
<path style="fill-rule:nonzero;fill:rgb(53%,27%,7%);fill-opacity:1;stroke-width:1;stroke-linecap:butt;stroke-linejoin:miter;stroke:rgb(0%,0%,0%);stroke-opacity:1;stroke-miterlimit:10;" d="M 902 102 L 876.019531 147 L 927.980469 147 L 902 102 "/>
<path style="fill-rule:nonzero;fill:rgb(53%,27%,7%);fill-opacity:1;stroke-width:1;stroke-linecap:butt;stroke-linejoin:miter;stroke:rgb(0%,0%,0%);stroke-opacity:1;stroke-miterlimit:10;" d="M 627 380 L 601.019531 425 L 652.980469 425 L 627 380 "/>
<path style="fill-rule:nonzero;fill:rgb(53%,27%,7%);fill-opacity:1;stroke-width:1;stroke-linecap:butt;stroke-linejoin:miter;stroke:rgb(0%,0%,0%);stroke-opacity:1;stroke-miterlimit:10;" d="M 738 236 L 712.019531 281 L 763.980469 281 L 738 236 "/>
<path style="fill-rule:nonzero;fill:rgb(53%,27%,7%);fill-opacity:1;stroke-width:1;stroke-linecap:butt;stroke-linejoin:miter;stroke:rgb(0%,0%,0%);stroke-opacity:1;stroke-miterlimit:10;" d="M 99 347 L 73.019531 392 L 124.980469 392 L 99 347 "/>
</g>
</svg>
