<?xml version="1.0" encoding="UTF-8"?>
<svg xmlns="http://www.w3.org/2000/svg" xmlns:xlink="http://www.w3.org/1999/xlink" width="1179pt" height="517pt" viewBox="0 0 1179 517" version="1.1">
<g id="surface331">
<rect x="0" y="0" width="1179" height="517" style="fill:rgb(90%,90%,90%);fill-opacity:1;stroke:none;"/>
<path style="fill-rule:nonzero;fill:rgb(55%,51%,53%);fill-opacity:1;stroke-width:1;stroke-linecap:butt;stroke-linejoin:miter;stroke:rgb(0%,0%,0%);stroke-opacity:1;stroke-miterlimit:10;" d="M 250 128 L 279.664062 128 L 291.664062 99.785156 L 303.664062 128 L 333.332031 128 L 309.332031 145.4375 L 317.417969 176.980469 L 291.664062 159.542969 L 265.914062 176.980469 L 278.214844 145.4375 L 250 128 "/>
<path style="fill-rule:nonzero;fill:rgb(55%,51%,53%);fill-opacity:1;stroke-width:1;stroke-linecap:butt;stroke-linejoin:miter;stroke:rgb(0%,0%,0%);stroke-opacity:1;stroke-miterlimit:10;" d="M 400 110 L 429.664062 110 L 441.664062 81.785156 L 453.664062 110 L 483.332031 110 L 459.332031 127.4375 L 467.417969 158.980469 L 441.664062 141.542969 L 415.914062 158.980469 L 428.214844 127.4375 L 400 110 "/>
<path style="fill-rule:nonzero;fill:rgb(55%,51%,53%);fill-opacity:1;stroke-width:1;stroke-linecap:butt;stroke-linejoin:miter;stroke:rgb(0%,0%,0%);stroke-opacity:1;stroke-miterlimit:10;" d="M 587 286 L 616.664062 286 L 628.664062 257.785156 L 640.664062 286 L 670.332031 286 L 646.332031 303.4375 L 654.417969 334.980469 L 628.664062 317.542969 L 602.914062 334.980469 L 615.214844 303.4375 L 587 286 "/>
<path style="fill-rule:nonzero;fill:rgb(55%,51%,53%);fill-opacity:1;stroke-width:1;stroke-linecap:butt;stroke-linejoin:miter;stroke:rgb(0%,0%,0%);stroke-opacity:1;stroke-miterlimit:10;" d="M 532 393 L 561.664062 393 L 573.664062 364.785156 L 585.664062 393 L 615.332031 393 L 591.332031 410.4375 L 599.417969 441.980469 L 573.664062 424.542969 L 547.914062 441.980469 L 560.214844 410.4375 L 532 393 "/>
<path style="fill-rule:nonzero;fill:rgb(55%,51%,53%);fill-opacity:1;stroke-width:1;stroke-linecap:butt;stroke-linejoin:miter;stroke:rgb(0%,0%,0%);stroke-opacity:1;stroke-miterlimit:10;" d="M 795 296 L 824.664062 296 L 836.664062 267.785156 L 848.664062 296 L 878.332031 296 L 854.332031 313.4375 L 862.417969 344.980469 L 836.664062 327.542969 L 810.914062 344.980469 L 823.214844 313.4375 L 795 296 "/>
<path style="fill-rule:nonzero;fill:rgb(53%,27%,7%);fill-opacity:1;stroke-width:1;stroke-linecap:butt;stroke-linejoin:miter;stroke:rgb(0%,0%,0%);stroke-opacity:1;stroke-miterlimit:10;" d="M 912.214844 177 C 912.214844 188.714844 902.714844 198.214844 891 198.214844 C 879.285156 198.214844 869.785156 188.714844 869.785156 177 C 869.785156 165.285156 879.285156 155.785156 891 155.785156 C 902.714844 155.785156 912.214844 165.285156 912.214844 177 "/>
<path style="fill-rule:nonzero;fill:rgb(53%,27%,7%);fill-opacity:1;stroke-width:1;stroke-linecap:butt;stroke-linejoin:miter;stroke:rgb(0%,0%,0%);stroke-opacity:1;stroke-miterlimit:10;" d="M 334.214844 347 C 334.214844 358.714844 324.714844 368.214844 313 368.214844 C 301.285156 368.214844 291.785156 358.714844 291.785156 347 C 291.785156 335.285156 301.285156 325.785156 313 325.785156 C 324.714844 325.785156 334.214844 335.285156 334.214844 347 "/>
<path style="fill-rule:nonzero;fill:rgb(53%,27%,7%);fill-opacity:1;stroke-width:1;stroke-linecap:butt;stroke-linejoin:miter;stroke:rgb(0%,0%,0%);stroke-opacity:1;stroke-miterlimit:10;" d="M 745.214844 153 C 745.214844 164.714844 735.714844 174.214844 724 174.214844 C 712.285156 174.214844 702.785156 164.714844 702.785156 153 C 702.785156 141.285156 712.285156 131.785156 724 131.785156 C 735.714844 131.785156 745.214844 141.285156 745.214844 153 "/>
</g>
</svg>
