<?xml version="1.0" encoding="UTF-8"?>
<svg xmlns="http://www.w3.org/2000/svg" xmlns:xlink="http://www.w3.org/1999/xlink" width="1179pt" height="517pt" viewBox="0 0 1179 517" version="1.1">
<g id="surface226">
<rect x="0" y="0" width="1179" height="517" style="fill:rgb(90%,90%,90%);fill-opacity:1;stroke:none;"/>
<path style="fill-rule:nonzero;fill:rgb(35%,70%,90%);fill-opacity:1;stroke-width:1;stroke-linecap:butt;stroke-linejoin:miter;stroke:rgb(0%,0%,0%);stroke-opacity:1;stroke-miterlimit:10;" d="M 121.214844 304 C 121.214844 315.714844 111.714844 325.214844 100 325.214844 C 88.285156 325.214844 78.785156 315.714844 78.785156 304 C 78.785156 292.285156 88.285156 282.785156 100 282.785156 C 111.714844 282.785156 121.214844 292.285156 121.214844 304 "/>
<path style="fill-rule:nonzero;fill:rgb(35%,70%,90%);fill-opacity:1;stroke-width:1;stroke-linecap:butt;stroke-linejoin:miter;stroke:rgb(0%,0%,0%);stroke-opacity:1;stroke-miterlimit:10;" d="M 377.214844 403 C 377.214844 414.714844 367.714844 424.214844 356 424.214844 C 344.285156 424.214844 334.785156 414.714844 334.785156 403 C 334.785156 391.285156 344.285156 381.785156 356 381.785156 C 367.714844 381.785156 377.214844 391.285156 377.214844 403 "/>
<path style="fill-rule:nonzero;fill:rgb(53%,27%,7%);fill-opacity:1;stroke-width:1;stroke-linecap:butt;stroke-linejoin:miter;stroke:rgb(0%,0%,0%);stroke-opacity:1;stroke-miterlimit:10;" d="M 367.214844 228 C 367.214844 239.714844 357.714844 249.214844 346 249.214844 C 334.285156 249.214844 324.785156 239.714844 324.785156 228 C 324.785156 216.285156 334.285156 206.785156 346 206.785156 C 357.714844 206.785156 367.214844 216.285156 367.214844 228 "/>
<path style="fill-rule:nonzero;fill:rgb(53%,27%,7%);fill-opacity:1;stroke-width:1;stroke-linecap:butt;stroke-linejoin:miter;stroke:rgb(0%,0%,0%);stroke-opacity:1;stroke-miterlimit:10;" d="M 258.214844 322 C 258.214844 333.714844 248.714844 343.214844 237 343.214844 C 225.285156 343.214844 215.785156 333.714844 215.785156 322 C 215.785156 310.285156 225.285156 300.785156 237 300.785156 C 248.714844 300.785156 258.214844 310.285156 258.214844 322 "/>
<path style="fill-rule:nonzero;fill:rgb(35%,70%,90%);fill-opacity:1;stroke-width:1;stroke-linecap:butt;stroke-linejoin:miter;stroke:rgb(0%,0%,0%);stroke-opacity:1;stroke-miterlimit:10;" d="M 262.214844 429 C 262.214844 440.714844 252.714844 450.214844 241 450.214844 C 229.285156 450.214844 219.785156 440.714844 219.785156 429 C 219.785156 417.285156 229.285156 407.785156 241 407.785156 C 252.714844 407.785156 262.214844 417.285156 262.214844 429 "/>
<path style="fill-rule:nonzero;fill:rgb(35%,70%,90%);fill-opacity:1;stroke-width:1;stroke-linecap:butt;stroke-linejoin:miter;stroke:rgb(0%,0%,0%);stroke-opacity:1;stroke-miterlimit:10;" d="M 181.214844 128 C 181.214844 139.714844 171.714844 149.214844 160 149.214844 C 148.285156 149.214844 138.785156 139.714844 138.785156 128 C 138.785156 116.285156 148.285156 106.785156 160 106.785156 C 171.714844 106.785156 181.214844 116.285156 181.214844 128 "/>
<path style="fill-rule:nonzero;fill:rgb(53%,27%,7%);fill-opacity:1;stroke-width:1;stroke-linecap:butt;stroke-linejoin:miter;stroke:rgb(0%,0%,0%);stroke-opacity:1;stroke-miterlimit:10;" d="M 713 199 L 687.019531 244 L 738.980469 244 L 713 199 "/>
<path style="fill-rule:nonzero;fill:rgb(53%,27%,7%);fill-opacity:1;stroke-width:1;stroke-linecap:butt;stroke-linejoin:miter;stroke:rgb(0%,0%,0%);stroke-opacity:1;stroke-miterlimit:10;" d="M 783 67 L 757.019531 112 L 808.980469 112 L 783 67 "/>
<path style="fill-rule:nonzero;fill:rgb(35%,70%,90%);fill-opacity:1;stroke-width:1;stroke-linecap:butt;stroke-linejoin:miter;stroke:rgb(0%,0%,0%);stroke-opacity:1;stroke-miterlimit:10;" d="M 825 320 L 799.019531 365 L 850.980469 365 L 825 320 "/>
<path style="fill-rule:nonzero;fill:rgb(35%,70%,90%);fill-opacity:1;stroke-width:1;stroke-linecap:butt;stroke-linejoin:miter;stroke:rgb(0%,0%,0%);stroke-opacity:1;stroke-miterlimit:10;" d="M 920 132 L 894.019531 177 L 945.980469 177 L 920 132 "/>
<path style="fill-rule:nonzero;fill:rgb(53%,27%,7%);fill-opacity:1;stroke-width:1;stroke-linecap:butt;stroke-linejoin:miter;stroke:rgb(0%,0%,0%);stroke-opacity:1;stroke-miterlimit:10;" d="M 845 208 L 819.019531 253 L 870.980469 253 L 845 208 "/>
</g>
</svg>
