<?xml version="1.0" encoding="UTF-8"?>
<svg xmlns="http://www.w3.org/2000/svg" xmlns:xlink="http://www.w3.org/1999/xlink" width="1179pt" height="517pt" viewBox="0 0 1179 517" version="1.1">
<g id="surface646">
<rect x="0" y="0" width="1179" height="517" style="fill:rgb(90%,90%,90%);fill-opacity:1;stroke:none;"/>
<path style="fill-rule:nonzero;fill:rgb(100%,51%,0%);fill-opacity:1;stroke-width:1;stroke-linecap:butt;stroke-linejoin:miter;stroke:rgb(0%,0%,0%);stroke-opacity:1;stroke-miterlimit:10;" d="M 183.214844 324 C 183.214844 335.714844 173.714844 345.214844 162 345.214844 C 150.285156 345.214844 140.785156 335.714844 140.785156 324 C 140.785156 312.285156 150.285156 302.785156 162 302.785156 C 173.714844 302.785156 183.214844 312.285156 183.214844 324 "/>
<path style="fill-rule:nonzero;fill:rgb(100%,51%,0%);fill-opacity:1;stroke-width:1;stroke-linecap:butt;stroke-linejoin:miter;stroke:rgb(0%,0%,0%);stroke-opacity:1;stroke-miterlimit:10;" d="M 174.214844 165 C 174.214844 176.714844 164.714844 186.214844 153 186.214844 C 141.285156 186.214844 131.785156 176.714844 131.785156 165 C 131.785156 153.285156 141.285156 143.785156 153 143.785156 C 164.714844 143.785156 174.214844 153.285156 174.214844 165 "/>
<path style="fill-rule:nonzero;fill:rgb(100%,51%,0%);fill-opacity:1;stroke-width:1;stroke-linecap:butt;stroke-linejoin:miter;stroke:rgb(0%,0%,0%);stroke-opacity:1;stroke-miterlimit:10;" d="M 449.214844 367 C 449.214844 378.714844 439.714844 388.214844 428 388.214844 C 416.285156 388.214844 406.785156 378.714844 406.785156 367 C 406.785156 355.285156 416.285156 345.785156 428 345.785156 C 439.714844 345.785156 449.214844 355.285156 449.214844 367 "/>
<path style="fill-rule:nonzero;fill:rgb(53%,27%,7%);fill-opacity:1;stroke-width:1;stroke-linecap:butt;stroke-linejoin:miter;stroke:rgb(0%,0%,0%);stroke-opacity:1;stroke-miterlimit:10;" d="M 447.214844 112 C 447.214844 123.714844 437.714844 133.214844 426 133.214844 C 414.285156 133.214844 404.785156 123.714844 404.785156 112 C 404.785156 100.285156 414.285156 90.785156 426 90.785156 C 437.714844 90.785156 447.214844 100.285156 447.214844 112 "/>
<path style="fill-rule:nonzero;fill:rgb(53%,27%,7%);fill-opacity:1;stroke-width:1;stroke-linecap:butt;stroke-linejoin:miter;stroke:rgb(0%,0%,0%);stroke-opacity:1;stroke-miterlimit:10;" d="M 743 284 L 717.019531 329 L 768.980469 329 L 743 284 "/>
<path style="fill-rule:nonzero;fill:rgb(53%,27%,7%);fill-opacity:1;stroke-width:1;stroke-linecap:butt;stroke-linejoin:miter;stroke:rgb(0%,0%,0%);stroke-opacity:1;stroke-miterlimit:10;" d="M 1013 212 L 987.019531 257 L 1038.980469 257 L 1013 212 "/>
<path style="fill-rule:nonzero;fill:rgb(53%,27%,7%);fill-opacity:1;stroke-width:1;stroke-linecap:butt;stroke-linejoin:miter;stroke:rgb(0%,0%,0%);stroke-opacity:1;stroke-miterlimit:10;" d="M 701 50 L 675.019531 95 L 726.980469 95 L 701 50 "/>
<path style="fill-rule:nonzero;fill:rgb(100%,51%,0%);fill-opacity:1;stroke-width:1;stroke-linecap:butt;stroke-linejoin:miter;stroke:rgb(0%,0%,0%);stroke-opacity:1;stroke-miterlimit:10;" d="M 938 318 L 912.019531 363 L 963.980469 363 L 938 318 "/>
<path style="fill-rule:nonzero;fill:rgb(53%,27%,7%);fill-opacity:1;stroke-width:1;stroke-linecap:butt;stroke-linejoin:miter;stroke:rgb(0%,0%,0%);stroke-opacity:1;stroke-miterlimit:10;" d="M 1027 113 L 1001.019531 158 L 1052.980469 158 L 1027 113 "/>
</g>
</svg>
