<?xml version="1.0" encoding="UTF-8"?>
<svg xmlns="http://www.w3.org/2000/svg" xmlns:xlink="http://www.w3.org/1999/xlink" width="1179pt" height="517pt" viewBox="0 0 1179 517" version="1.1">
<g id="surface201">
<rect x="0" y="0" width="1179" height="517" style="fill:rgb(90%,90%,90%);fill-opacity:1;stroke:none;"/>
<path style="fill-rule:nonzero;fill:rgb(35%,70%,90%);fill-opacity:1;stroke-width:1;stroke-linecap:butt;stroke-linejoin:miter;stroke:rgb(0%,0%,0%);stroke-opacity:1;stroke-miterlimit:10;" d="M 412.214844 330 C 412.214844 341.714844 402.714844 351.214844 391 351.214844 C 379.285156 351.214844 369.785156 341.714844 369.785156 330 C 369.785156 318.285156 379.285156 308.785156 391 308.785156 C 402.714844 308.785156 412.214844 318.285156 412.214844 330 "/>
<path style="fill-rule:nonzero;fill:rgb(35%,70%,90%);fill-opacity:1;stroke-width:1;stroke-linecap:butt;stroke-linejoin:miter;stroke:rgb(0%,0%,0%);stroke-opacity:1;stroke-miterlimit:10;" d="M 180.214844 283 C 180.214844 294.714844 170.714844 304.214844 159 304.214844 C 147.285156 304.214844 137.785156 294.714844 137.785156 283 C 137.785156 271.285156 147.285156 261.785156 159 261.785156 C 170.714844 261.785156 180.214844 271.285156 180.214844 283 "/>
<path style="fill-rule:nonzero;fill:rgb(35%,70%,90%);fill-opacity:1;stroke-width:1;stroke-linecap:butt;stroke-linejoin:miter;stroke:rgb(0%,0%,0%);stroke-opacity:1;stroke-miterlimit:10;" d="M 360.785156 131.785156 L 360.785156 174.214844 L 403.214844 174.214844 L 403.214844 131.785156 L 360.785156 131.785156 "/>
<path style="fill-rule:nonzero;fill:rgb(35%,70%,90%);fill-opacity:1;stroke-width:1;stroke-linecap:butt;stroke-linejoin:miter;stroke:rgb(0%,0%,0%);stroke-opacity:1;stroke-miterlimit:10;" d="M 260.785156 386.785156 L 260.785156 429.214844 L 303.214844 429.214844 L 303.214844 386.785156 L 260.785156 386.785156 "/>
<path style="fill-rule:nonzero;fill:rgb(100%,51%,0%);fill-opacity:1;stroke-width:1;stroke-linecap:butt;stroke-linejoin:miter;stroke:rgb(0%,0%,0%);stroke-opacity:1;stroke-miterlimit:10;" d="M 785.785156 72.785156 L 785.785156 115.214844 L 828.214844 115.214844 L 828.214844 72.785156 L 785.785156 72.785156 "/>
<path style="fill-rule:nonzero;fill:rgb(100%,51%,0%);fill-opacity:1;stroke-width:1;stroke-linecap:butt;stroke-linejoin:miter;stroke:rgb(0%,0%,0%);stroke-opacity:1;stroke-miterlimit:10;" d="M 676.785156 86.785156 L 676.785156 129.214844 L 719.214844 129.214844 L 719.214844 86.785156 L 676.785156 86.785156 "/>
<path style="fill-rule:nonzero;fill:rgb(100%,51%,0%);fill-opacity:1;stroke-width:1;stroke-linecap:butt;stroke-linejoin:miter;stroke:rgb(0%,0%,0%);stroke-opacity:1;stroke-miterlimit:10;" d="M 973.214844 336 C 973.214844 347.714844 963.714844 357.214844 952 357.214844 C 940.285156 357.214844 930.785156 347.714844 930.785156 336 C 930.785156 324.285156 940.285156 314.785156 952 314.785156 C 963.714844 314.785156 973.214844 324.285156 973.214844 336 "/>
</g>
</svg>
