<?xml version="1.0" encoding="UTF-8"?>
<svg xmlns="http://www.w3.org/2000/svg" xmlns:xlink="http://www.w3.org/1999/xlink" width="1179pt" height="517pt" viewBox="0 0 1179 517" version="1.1">
<g id="surface1051">
<rect x="0" y="0" width="1179" height="517" style="fill:rgb(90%,90%,90%);fill-opacity:1;stroke:none;"/>
<path style="fill-rule:nonzero;fill:rgb(53%,27%,7%);fill-opacity:1;stroke-width:1;stroke-linecap:butt;stroke-linejoin:miter;stroke:rgb(0%,0%,0%);stroke-opacity:1;stroke-miterlimit:10;" d="M 603.214844 400 C 603.214844 411.714844 593.714844 421.214844 582 421.214844 C 570.285156 421.214844 560.785156 411.714844 560.785156 400 C 560.785156 388.285156 570.285156 378.785156 582 378.785156 C 593.714844 378.785156 603.214844 388.285156 603.214844 400 "/>
<path style="fill-rule:nonzero;fill:rgb(53%,27%,7%);fill-opacity:1;stroke-width:1;stroke-linecap:butt;stroke-linejoin:miter;stroke:rgb(0%,0%,0%);stroke-opacity:1;stroke-miterlimit:10;" d="M 273.214844 98 C 273.214844 109.714844 263.714844 119.214844 252 119.214844 C 240.285156 119.214844 230.785156 109.714844 230.785156 98 C 230.785156 86.285156 240.285156 76.785156 252 76.785156 C 263.714844 76.785156 273.214844 86.285156 273.214844 98 "/>
<path style="fill-rule:nonzero;fill:rgb(53%,27%,7%);fill-opacity:1;stroke-width:1;stroke-linecap:butt;stroke-linejoin:miter;stroke:rgb(0%,0%,0%);stroke-opacity:1;stroke-miterlimit:10;" d="M 207.214844 428 C 207.214844 439.714844 197.714844 449.214844 186 449.214844 C 174.285156 449.214844 164.785156 439.714844 164.785156 428 C 164.785156 416.285156 174.285156 406.785156 186 406.785156 C 197.714844 406.785156 207.214844 416.285156 207.214844 428 "/>
<path style="fill-rule:nonzero;fill:rgb(53%,27%,7%);fill-opacity:1;stroke-width:1;stroke-linecap:butt;stroke-linejoin:miter;stroke:rgb(0%,0%,0%);stroke-opacity:1;stroke-miterlimit:10;" d="M 781.214844 321 C 781.214844 332.714844 771.714844 342.214844 760 342.214844 C 748.285156 342.214844 738.785156 332.714844 738.785156 321 C 738.785156 309.285156 748.285156 299.785156 760 299.785156 C 771.714844 299.785156 781.214844 309.285156 781.214844 321 "/>
<path style="fill-rule:nonzero;fill:rgb(55%,51%,53%);fill-opacity:1;stroke-width:1;stroke-linecap:butt;stroke-linejoin:miter;stroke:rgb(0%,0%,0%);stroke-opacity:1;stroke-miterlimit:10;" d="M 488 51 L 462.019531 96 L 513.980469 96 L 488 51 "/>
<path style="fill-rule:nonzero;fill:rgb(55%,51%,53%);fill-opacity:1;stroke-width:1;stroke-linecap:butt;stroke-linejoin:miter;stroke:rgb(0%,0%,0%);stroke-opacity:1;stroke-miterlimit:10;" d="M 703 67 L 677.019531 112 L 728.980469 112 L 703 67 "/>
<path style="fill-rule:nonzero;fill:rgb(55%,51%,53%);fill-opacity:1;stroke-width:1;stroke-linecap:butt;stroke-linejoin:miter;stroke:rgb(0%,0%,0%);stroke-opacity:1;stroke-miterlimit:10;" d="M 374 95 L 348.019531 140 L 399.980469 140 L 374 95 "/>
</g>
</svg>
