<?xml version="1.0" encoding="UTF-8"?>
<svg xmlns="http://www.w3.org/2000/svg" xmlns:xlink="http://www.w3.org/1999/xlink" width="1179pt" height="517pt" viewBox="0 0 1179 517" version="1.1">
<g id="surface671">
<rect x="0" y="0" width="1179" height="517" style="fill:rgb(90%,90%,90%);fill-opacity:1;stroke:none;"/>
<path style="fill-rule:nonzero;fill:rgb(100%,51%,0%);fill-opacity:1;stroke-width:1;stroke-linecap:butt;stroke-linejoin:miter;stroke:rgb(0%,0%,0%);stroke-opacity:1;stroke-miterlimit:10;" d="M 270 302 L 299.664062 302 L 311.664062 273.785156 L 323.664062 302 L 353.332031 302 L 329.332031 319.4375 L 337.417969 350.980469 L 311.664062 333.542969 L 285.914062 350.980469 L 298.214844 319.4375 L 270 302 "/>
<path style="fill-rule:nonzero;fill:rgb(100%,51%,0%);fill-opacity:1;stroke-width:1;stroke-linecap:butt;stroke-linejoin:miter;stroke:rgb(0%,0%,0%);stroke-opacity:1;stroke-miterlimit:10;" d="M 146 199 L 175.664062 199 L 187.664062 170.785156 L 199.664062 199 L 229.332031 199 L 205.332031 216.4375 L 213.417969 247.980469 L 187.664062 230.542969 L 161.914062 247.980469 L 174.214844 216.4375 L 146 199 "/>
<path style="fill-rule:nonzero;fill:rgb(100%,51%,0%);fill-opacity:1;stroke-width:1;stroke-linecap:butt;stroke-linejoin:miter;stroke:rgb(0%,0%,0%);stroke-opacity:1;stroke-miterlimit:10;" d="M 236 431 L 265.664062 431 L 277.664062 402.785156 L 289.664062 431 L 319.332031 431 L 295.332031 448.4375 L 303.417969 479.980469 L 277.664062 462.542969 L 251.914062 479.980469 L 264.214844 448.4375 L 236 431 "/>
<path style="fill-rule:nonzero;fill:rgb(55%,51%,53%);fill-opacity:1;stroke-width:1;stroke-linecap:butt;stroke-linejoin:miter;stroke:rgb(0%,0%,0%);stroke-opacity:1;stroke-miterlimit:10;" d="M 855.785156 193.785156 L 855.785156 236.214844 L 898.214844 236.214844 L 898.214844 193.785156 L 855.785156 193.785156 "/>
<path style="fill-rule:nonzero;fill:rgb(55%,51%,53%);fill-opacity:1;stroke-width:1;stroke-linecap:butt;stroke-linejoin:miter;stroke:rgb(0%,0%,0%);stroke-opacity:1;stroke-miterlimit:10;" d="M 819.785156 374.785156 L 819.785156 417.214844 L 862.214844 417.214844 L 862.214844 374.785156 L 819.785156 374.785156 "/>
<path style="fill-rule:nonzero;fill:rgb(55%,51%,53%);fill-opacity:1;stroke-width:1;stroke-linecap:butt;stroke-linejoin:miter;stroke:rgb(0%,0%,0%);stroke-opacity:1;stroke-miterlimit:10;" d="M 747.785156 152.785156 L 747.785156 195.214844 L 790.214844 195.214844 L 790.214844 152.785156 L 747.785156 152.785156 "/>
</g>
</svg>
