<?xml version="1.0" encoding="UTF-8"?>
<svg xmlns="http://www.w3.org/2000/svg" xmlns:xlink="http://www.w3.org/1999/xlink" width="1179pt" height="517pt" viewBox="0 0 1179 517" version="1.1">
<g id="surface1276">
<rect x="0" y="0" width="1179" height="517" style="fill:rgb(90%,90%,90%);fill-opacity:1;stroke:none;"/>
<path style="fill-rule:nonzero;fill:rgb(100%,51%,0%);fill-opacity:1;stroke-width:1;stroke-linecap:butt;stroke-linejoin:miter;stroke:rgb(0%,0%,0%);stroke-opacity:1;stroke-miterlimit:10;" d="M 693 372 L 722.664062 372 L 734.664062 343.785156 L 746.664062 372 L 776.332031 372 L 752.332031 389.4375 L 760.417969 420.980469 L 734.664062 403.542969 L 708.914062 420.980469 L 721.214844 389.4375 L 693 372 "/>
<path style="fill-rule:nonzero;fill:rgb(100%,51%,0%);fill-opacity:1;stroke-width:1;stroke-linecap:butt;stroke-linejoin:miter;stroke:rgb(0%,0%,0%);stroke-opacity:1;stroke-miterlimit:10;" d="M 921 181 L 950.664062 181 L 962.664062 152.785156 L 974.664062 181 L 1004.332031 181 L 980.332031 198.4375 L 988.417969 229.980469 L 962.664062 212.542969 L 936.914062 229.980469 L 949.214844 198.4375 L 921 181 "/>
<path style="fill-rule:nonzero;fill:rgb(100%,51%,0%);fill-opacity:1;stroke-width:1;stroke-linecap:butt;stroke-linejoin:miter;stroke:rgb(0%,0%,0%);stroke-opacity:1;stroke-miterlimit:10;" d="M 261 177 L 290.664062 177 L 302.664062 148.785156 L 314.664062 177 L 344.332031 177 L 320.332031 194.4375 L 328.417969 225.980469 L 302.664062 208.542969 L 276.914062 225.980469 L 289.214844 194.4375 L 261 177 "/>
<path style="fill-rule:nonzero;fill:rgb(100%,51%,0%);fill-opacity:1;stroke-width:1;stroke-linecap:butt;stroke-linejoin:miter;stroke:rgb(0%,0%,0%);stroke-opacity:1;stroke-miterlimit:10;" d="M 839 411 L 868.664062 411 L 880.664062 382.785156 L 892.664062 411 L 922.332031 411 L 898.332031 428.4375 L 906.417969 459.980469 L 880.664062 442.542969 L 854.914062 459.980469 L 867.214844 428.4375 L 839 411 "/>
<path style="fill-rule:nonzero;fill:rgb(53%,27%,7%);fill-opacity:1;stroke-width:1;stroke-linecap:butt;stroke-linejoin:miter;stroke:rgb(0%,0%,0%);stroke-opacity:1;stroke-miterlimit:10;" d="M 277.214844 382 C 277.214844 393.714844 267.714844 403.214844 256 403.214844 C 244.285156 403.214844 234.785156 393.714844 234.785156 382 C 234.785156 370.285156 244.285156 360.785156 256 360.785156 C 267.714844 360.785156 277.214844 370.285156 277.214844 382 "/>
<path style="fill-rule:nonzero;fill:rgb(53%,27%,7%);fill-opacity:1;stroke-width:1;stroke-linecap:butt;stroke-linejoin:miter;stroke:rgb(0%,0%,0%);stroke-opacity:1;stroke-miterlimit:10;" d="M 770.214844 237 C 770.214844 248.714844 760.714844 258.214844 749 258.214844 C 737.285156 258.214844 727.785156 248.714844 727.785156 237 C 727.785156 225.285156 737.285156 215.785156 749 215.785156 C 760.714844 215.785156 770.214844 225.285156 770.214844 237 "/>
<path style="fill-rule:nonzero;fill:rgb(53%,27%,7%);fill-opacity:1;stroke-width:1;stroke-linecap:butt;stroke-linejoin:miter;stroke:rgb(0%,0%,0%);stroke-opacity:1;stroke-miterlimit:10;" d="M 600.214844 161 C 600.214844 172.714844 590.714844 182.214844 579 182.214844 C 567.285156 182.214844 557.785156 172.714844 557.785156 161 C 557.785156 149.285156 567.285156 139.785156 579 139.785156 C 590.714844 139.785156 600.214844 149.285156 600.214844 161 "/>
<path style="fill-rule:nonzero;fill:rgb(53%,27%,7%);fill-opacity:1;stroke-width:1;stroke-linecap:butt;stroke-linejoin:miter;stroke:rgb(0%,0%,0%);stroke-opacity:1;stroke-miterlimit:10;" d="M 401.214844 123 C 401.214844 134.714844 391.714844 144.214844 380 144.214844 C 368.285156 144.214844 358.785156 134.714844 358.785156 123 C 358.785156 111.285156 368.285156 101.785156 380 101.785156 C 391.714844 101.785156 401.214844 111.285156 401.214844 123 "/>
<path style="fill-rule:nonzero;fill:rgb(53%,27%,7%);fill-opacity:1;stroke-width:1;stroke-linecap:butt;stroke-linejoin:miter;stroke:rgb(0%,0%,0%);stroke-opacity:1;stroke-miterlimit:10;" d="M 989.214844 347 C 989.214844 358.714844 979.714844 368.214844 968 368.214844 C 956.285156 368.214844 946.785156 358.714844 946.785156 347 C 946.785156 335.285156 956.285156 325.785156 968 325.785156 C 979.714844 325.785156 989.214844 335.285156 989.214844 347 "/>
</g>
</svg>
