<?xml version="1.0" encoding="UTF-8"?>
<svg xmlns="http://www.w3.org/2000/svg" xmlns:xlink="http://www.w3.org/1999/xlink" width="1179pt" height="517pt" viewBox="0 0 1179 517" version="1.1">
<g id="surface181">
<rect x="0" y="0" width="1179" height="517" style="fill:rgb(90%,90%,90%);fill-opacity:1;stroke:none;"/>
<path style="fill-rule:nonzero;fill:rgb(35%,70%,90%);fill-opacity:1;stroke-width:1;stroke-linecap:butt;stroke-linejoin:miter;stroke:rgb(0%,0%,0%);stroke-opacity:1;stroke-miterlimit:10;" d="M 448 113 L 477.664062 113 L 489.664062 84.785156 L 501.664062 113 L 531.332031 113 L 507.332031 130.4375 L 515.417969 161.980469 L 489.664062 144.542969 L 463.914062 161.980469 L 476.214844 130.4375 L 448 113 "/>
<path style="fill-rule:nonzero;fill:rgb(35%,70%,90%);fill-opacity:1;stroke-width:1;stroke-linecap:butt;stroke-linejoin:miter;stroke:rgb(0%,0%,0%);stroke-opacity:1;stroke-miterlimit:10;" d="M 1018 138 L 1047.664062 138 L 1059.664062 109.785156 L 1071.664062 138 L 1101.332031 138 L 1077.332031 155.4375 L 1085.417969 186.980469 L 1059.664062 169.542969 L 1033.914062 186.980469 L 1046.214844 155.4375 L 1018 138 "/>
<path style="fill-rule:nonzero;fill:rgb(35%,70%,90%);fill-opacity:1;stroke-width:1;stroke-linecap:butt;stroke-linejoin:miter;stroke:rgb(0%,0%,0%);stroke-opacity:1;stroke-miterlimit:10;" d="M 267 359 L 296.664062 359 L 308.664062 330.785156 L 320.664062 359 L 350.332031 359 L 326.332031 376.4375 L 334.417969 407.980469 L 308.664062 390.542969 L 282.914062 407.980469 L 295.214844 376.4375 L 267 359 "/>
<path style="fill-rule:nonzero;fill:rgb(35%,70%,90%);fill-opacity:1;stroke-width:1;stroke-linecap:butt;stroke-linejoin:miter;stroke:rgb(0%,0%,0%);stroke-opacity:1;stroke-miterlimit:10;" d="M 781 212 L 810.664062 212 L 822.664062 183.785156 L 834.664062 212 L 864.332031 212 L 840.332031 229.4375 L 848.417969 260.980469 L 822.664062 243.542969 L 796.914062 260.980469 L 809.214844 229.4375 L 781 212 "/>
<path style="fill-rule:nonzero;fill:rgb(35%,70%,90%);fill-opacity:1;stroke-width:1;stroke-linecap:butt;stroke-linejoin:miter;stroke:rgb(0%,0%,0%);stroke-opacity:1;stroke-miterlimit:10;" d="M 1006 339 L 1035.664062 339 L 1047.664062 310.785156 L 1059.664062 339 L 1089.332031 339 L 1065.332031 356.4375 L 1073.417969 387.980469 L 1047.664062 370.542969 L 1021.914062 387.980469 L 1034.214844 356.4375 L 1006 339 "/>
<path style="fill-rule:nonzero;fill:rgb(100%,51%,0%);fill-opacity:1;stroke-width:1;stroke-linecap:butt;stroke-linejoin:miter;stroke:rgb(0%,0%,0%);stroke-opacity:1;stroke-miterlimit:10;" d="M 628.214844 367 C 628.214844 378.714844 618.714844 388.214844 607 388.214844 C 595.285156 388.214844 585.785156 378.714844 585.785156 367 C 585.785156 355.285156 595.285156 345.785156 607 345.785156 C 618.714844 345.785156 628.214844 355.285156 628.214844 367 "/>
<path style="fill-rule:nonzero;fill:rgb(100%,51%,0%);fill-opacity:1;stroke-width:1;stroke-linecap:butt;stroke-linejoin:miter;stroke:rgb(0%,0%,0%);stroke-opacity:1;stroke-miterlimit:10;" d="M 297.214844 219 C 297.214844 230.714844 287.714844 240.214844 276 240.214844 C 264.285156 240.214844 254.785156 230.714844 254.785156 219 C 254.785156 207.285156 264.285156 197.785156 276 197.785156 C 287.714844 197.785156 297.214844 207.285156 297.214844 219 "/>
<path style="fill-rule:nonzero;fill:rgb(100%,51%,0%);fill-opacity:1;stroke-width:1;stroke-linecap:butt;stroke-linejoin:miter;stroke:rgb(0%,0%,0%);stroke-opacity:1;stroke-miterlimit:10;" d="M 121.214844 422 C 121.214844 433.714844 111.714844 443.214844 100 443.214844 C 88.285156 443.214844 78.785156 433.714844 78.785156 422 C 78.785156 410.285156 88.285156 400.785156 100 400.785156 C 111.714844 400.785156 121.214844 410.285156 121.214844 422 "/>
<path style="fill-rule:nonzero;fill:rgb(100%,51%,0%);fill-opacity:1;stroke-width:1;stroke-linecap:butt;stroke-linejoin:miter;stroke:rgb(0%,0%,0%);stroke-opacity:1;stroke-miterlimit:10;" d="M 621.214844 186 C 621.214844 197.714844 611.714844 207.214844 600 207.214844 C 588.285156 207.214844 578.785156 197.714844 578.785156 186 C 578.785156 174.285156 588.285156 164.785156 600 164.785156 C 611.714844 164.785156 621.214844 174.285156 621.214844 186 "/>
<path style="fill-rule:nonzero;fill:rgb(100%,51%,0%);fill-opacity:1;stroke-width:1;stroke-linecap:butt;stroke-linejoin:miter;stroke:rgb(0%,0%,0%);stroke-opacity:1;stroke-miterlimit:10;" d="M 133.214844 261 C 133.214844 272.714844 123.714844 282.214844 112 282.214844 C 100.285156 282.214844 90.785156 272.714844 90.785156 261 C 90.785156 249.285156 100.285156 239.785156 112 239.785156 C 123.714844 239.785156 133.214844 249.285156 133.214844 261 "/>
</g>
</svg>
