<?xml version="1.0" encoding="UTF-8"?>
<svg xmlns="http://www.w3.org/2000/svg" xmlns:xlink="http://www.w3.org/1999/xlink" width="1179pt" height="517pt" viewBox="0 0 1179 517" version="1.1">
<g id="surface521">
<rect x="0" y="0" width="1179" height="517" style="fill:rgb(90%,90%,90%);fill-opacity:1;stroke:none;"/>
<path style="fill-rule:nonzero;fill:rgb(55%,51%,53%);fill-opacity:1;stroke-width:1;stroke-linecap:butt;stroke-linejoin:miter;stroke:rgb(0%,0%,0%);stroke-opacity:1;stroke-miterlimit:10;" d="M 224 110 L 253.664062 110 L 265.664062 81.785156 L 277.664062 110 L 307.332031 110 L 283.332031 127.4375 L 291.417969 158.980469 L 265.664062 141.542969 L 239.914062 158.980469 L 252.214844 127.4375 L 224 110 "/>
<path style="fill-rule:nonzero;fill:rgb(55%,51%,53%);fill-opacity:1;stroke-width:1;stroke-linecap:butt;stroke-linejoin:miter;stroke:rgb(0%,0%,0%);stroke-opacity:1;stroke-miterlimit:10;" d="M 305.785156 180.785156 L 305.785156 223.214844 L 348.214844 223.214844 L 348.214844 180.785156 L 305.785156 180.785156 "/>
<path style="fill-rule:nonzero;fill:rgb(55%,51%,53%);fill-opacity:1;stroke-width:1;stroke-linecap:butt;stroke-linejoin:miter;stroke:rgb(0%,0%,0%);stroke-opacity:1;stroke-miterlimit:10;" d="M 355.785156 336.785156 L 355.785156 379.214844 L 398.214844 379.214844 L 398.214844 336.785156 L 355.785156 336.785156 "/>
<path style="fill-rule:nonzero;fill:rgb(55%,51%,53%);fill-opacity:1;stroke-width:1;stroke-linecap:butt;stroke-linejoin:miter;stroke:rgb(0%,0%,0%);stroke-opacity:1;stroke-miterlimit:10;" d="M 99 143 L 128.664062 143 L 140.664062 114.785156 L 152.664062 143 L 182.332031 143 L 158.332031 160.4375 L 166.417969 191.980469 L 140.664062 174.542969 L 114.914062 191.980469 L 127.214844 160.4375 L 99 143 "/>
<path style="fill-rule:nonzero;fill:rgb(53%,27%,7%);fill-opacity:1;stroke-width:1;stroke-linecap:butt;stroke-linejoin:miter;stroke:rgb(0%,0%,0%);stroke-opacity:1;stroke-miterlimit:10;" d="M 731.785156 119.785156 L 731.785156 162.214844 L 774.214844 162.214844 L 774.214844 119.785156 L 731.785156 119.785156 "/>
<path style="fill-rule:nonzero;fill:rgb(53%,27%,7%);fill-opacity:1;stroke-width:1;stroke-linecap:butt;stroke-linejoin:miter;stroke:rgb(0%,0%,0%);stroke-opacity:1;stroke-miterlimit:10;" d="M 705 223 L 734.664062 223 L 746.664062 194.785156 L 758.664062 223 L 788.332031 223 L 764.332031 240.4375 L 772.417969 271.980469 L 746.664062 254.542969 L 720.914062 271.980469 L 733.214844 240.4375 L 705 223 "/>
<path style="fill-rule:nonzero;fill:rgb(53%,27%,7%);fill-opacity:1;stroke-width:1;stroke-linecap:butt;stroke-linejoin:miter;stroke:rgb(0%,0%,0%);stroke-opacity:1;stroke-miterlimit:10;" d="M 860 146 L 889.664062 146 L 901.664062 117.785156 L 913.664062 146 L 943.332031 146 L 919.332031 163.4375 L 927.417969 194.980469 L 901.664062 177.542969 L 875.914062 194.980469 L 888.214844 163.4375 L 860 146 "/>
<path style="fill-rule:nonzero;fill:rgb(53%,27%,7%);fill-opacity:1;stroke-width:1;stroke-linecap:butt;stroke-linejoin:miter;stroke:rgb(0%,0%,0%);stroke-opacity:1;stroke-miterlimit:10;" d="M 783.785156 396.785156 L 783.785156 439.214844 L 826.214844 439.214844 L 826.214844 396.785156 L 783.785156 396.785156 "/>
<path style="fill-rule:nonzero;fill:rgb(53%,27%,7%);fill-opacity:1;stroke-width:1;stroke-linecap:butt;stroke-linejoin:miter;stroke:rgb(0%,0%,0%);stroke-opacity:1;stroke-miterlimit:10;" d="M 980.785156 277.785156 L 980.785156 320.214844 L 1023.214844 320.214844 L 1023.214844 277.785156 L 980.785156 277.785156 "/>
<path style="fill-rule:nonzero;fill:rgb(53%,27%,7%);fill-opacity:1;stroke-width:1;stroke-linecap:butt;stroke-linejoin:miter;stroke:rgb(0%,0%,0%);stroke-opacity:1;stroke-miterlimit:10;" d="M 964.785156 379.785156 L 964.785156 422.214844 L 1007.214844 422.214844 L 1007.214844 379.785156 L 964.785156 379.785156 "/>
</g>
</svg>
