<?xml version="1.0" encoding="UTF-8"?>
<svg xmlns="http://www.w3.org/2000/svg" xmlns:xlink="http://www.w3.org/1999/xlink" width="1179pt" height="517pt" viewBox="0 0 1179 517" version="1.1">
<g id="surface181">
<rect x="0" y="0" width="1179" height="517" style="fill:rgb(90%,90%,90%);fill-opacity:1;stroke:none;"/>
<path style="fill-rule:nonzero;fill:rgb(35%,70%,90%);fill-opacity:1;stroke-width:1;stroke-linecap:butt;stroke-linejoin:miter;stroke:rgb(0%,0%,0%);stroke-opacity:1;stroke-miterlimit:10;" d="M 200 177 L 229.664062 177 L 241.664062 148.785156 L 253.664062 177 L 283.332031 177 L 259.332031 194.4375 L 267.417969 225.980469 L 241.664062 208.542969 L 215.914062 225.980469 L 228.214844 194.4375 L 200 177 "/>
<path style="fill-rule:nonzero;fill:rgb(35%,70%,90%);fill-opacity:1;stroke-width:1;stroke-linecap:butt;stroke-linejoin:miter;stroke:rgb(0%,0%,0%);stroke-opacity:1;stroke-miterlimit:10;" d="M 389 350 L 418.664062 350 L 430.664062 321.785156 L 442.664062 350 L 472.332031 350 L 448.332031 367.4375 L 456.417969 398.980469 L 430.664062 381.542969 L 404.914062 398.980469 L 417.214844 367.4375 L 389 350 "/>
<path style="fill-rule:nonzero;fill:rgb(35%,70%,90%);fill-opacity:1;stroke-width:1;stroke-linecap:butt;stroke-linejoin:miter;stroke:rgb(0%,0%,0%);stroke-opacity:1;stroke-miterlimit:10;" d="M 729 276 L 758.664062 276 L 770.664062 247.785156 L 782.664062 276 L 812.332031 276 L 788.332031 293.4375 L 796.417969 324.980469 L 770.664062 307.542969 L 744.914062 324.980469 L 757.214844 293.4375 L 729 276 "/>
<path style="fill-rule:nonzero;fill:rgb(35%,70%,90%);fill-opacity:1;stroke-width:1;stroke-linecap:butt;stroke-linejoin:miter;stroke:rgb(0%,0%,0%);stroke-opacity:1;stroke-miterlimit:10;" d="M 904 320 L 933.664062 320 L 945.664062 291.785156 L 957.664062 320 L 987.332031 320 L 963.332031 337.4375 L 971.417969 368.980469 L 945.664062 351.542969 L 919.914062 368.980469 L 932.214844 337.4375 L 904 320 "/>
<path style="fill-rule:nonzero;fill:rgb(35%,70%,90%);fill-opacity:1;stroke-width:1;stroke-linecap:butt;stroke-linejoin:miter;stroke:rgb(0%,0%,0%);stroke-opacity:1;stroke-miterlimit:10;" d="M 519 219 L 548.664062 219 L 560.664062 190.785156 L 572.664062 219 L 602.332031 219 L 578.332031 236.4375 L 586.417969 267.980469 L 560.664062 250.542969 L 534.914062 267.980469 L 547.214844 236.4375 L 519 219 "/>
<path style="fill-rule:nonzero;fill:rgb(100%,51%,0%);fill-opacity:1;stroke-width:1;stroke-linecap:butt;stroke-linejoin:miter;stroke:rgb(0%,0%,0%);stroke-opacity:1;stroke-miterlimit:10;" d="M 195.214844 340 C 195.214844 351.714844 185.714844 361.214844 174 361.214844 C 162.285156 361.214844 152.785156 351.714844 152.785156 340 C 152.785156 328.285156 162.285156 318.785156 174 318.785156 C 185.714844 318.785156 195.214844 328.285156 195.214844 340 "/>
<path style="fill-rule:nonzero;fill:rgb(100%,51%,0%);fill-opacity:1;stroke-width:1;stroke-linecap:butt;stroke-linejoin:miter;stroke:rgb(0%,0%,0%);stroke-opacity:1;stroke-miterlimit:10;" d="M 953.214844 198 C 953.214844 209.714844 943.714844 219.214844 932 219.214844 C 920.285156 219.214844 910.785156 209.714844 910.785156 198 C 910.785156 186.285156 920.285156 176.785156 932 176.785156 C 943.714844 176.785156 953.214844 186.285156 953.214844 198 "/>
<path style="fill-rule:nonzero;fill:rgb(100%,51%,0%);fill-opacity:1;stroke-width:1;stroke-linecap:butt;stroke-linejoin:miter;stroke:rgb(0%,0%,0%);stroke-opacity:1;stroke-miterlimit:10;" d="M 1047.214844 105 C 1047.214844 116.714844 1037.714844 126.214844 1026 126.214844 C 1014.285156 126.214844 1004.785156 116.714844 1004.785156 105 C 1004.785156 93.285156 1014.285156 83.785156 1026 83.785156 C 1037.714844 83.785156 1047.214844 93.285156 1047.214844 105 "/>
<path style="fill-rule:nonzero;fill:rgb(100%,51%,0%);fill-opacity:1;stroke-width:1;stroke-linecap:butt;stroke-linejoin:miter;stroke:rgb(0%,0%,0%);stroke-opacity:1;stroke-miterlimit:10;" d="M 512.214844 424 C 512.214844 435.714844 502.714844 445.214844 491 445.214844 C 479.285156 445.214844 469.785156 435.714844 469.785156 424 C 469.785156 412.285156 479.285156 402.785156 491 402.785156 C 502.714844 402.785156 512.214844 412.285156 512.214844 424 "/>
<path style="fill-rule:nonzero;fill:rgb(100%,51%,0%);fill-opacity:1;stroke-width:1;stroke-linecap:butt;stroke-linejoin:miter;stroke:rgb(0%,0%,0%);stroke-opacity:1;stroke-miterlimit:10;" d="M 736.214844 120 C 736.214844 131.714844 726.714844 141.214844 715 141.214844 C 703.285156 141.214844 693.785156 131.714844 693.785156 120 C 693.785156 108.285156 703.285156 98.785156 715 98.785156 C 726.714844 98.785156 736.214844 108.285156 736.214844 120 "/>
</g>
</svg>
