<?xml version="1.0" encoding="UTF-8"?>
<svg xmlns="http://www.w3.org/2000/svg" xmlns:xlink="http://www.w3.org/1999/xlink" width="1179pt" height="517pt" viewBox="0 0 1179 517" version="1.1">
<g id="surface141">
<rect x="0" y="0" width="1179" height="517" style="fill:rgb(90%,90%,90%);fill-opacity:1;stroke:none;"/>
<path style="fill-rule:nonzero;fill:rgb(100%,51%,0%);fill-opacity:1;stroke-width:1;stroke-linecap:butt;stroke-linejoin:miter;stroke:rgb(0%,0%,0%);stroke-opacity:1;stroke-miterlimit:10;" d="M 348.214844 430 C 348.214844 441.714844 338.714844 451.214844 327 451.214844 C 315.285156 451.214844 305.785156 441.714844 305.785156 430 C 305.785156 418.285156 315.285156 408.785156 327 408.785156 C 338.714844 408.785156 348.214844 418.285156 348.214844 430 "/>
<path style="fill-rule:nonzero;fill:rgb(55%,51%,53%);fill-opacity:1;stroke-width:1;stroke-linecap:butt;stroke-linejoin:miter;stroke:rgb(0%,0%,0%);stroke-opacity:1;stroke-miterlimit:10;" d="M 379.214844 95 C 379.214844 106.714844 369.714844 116.214844 358 116.214844 C 346.285156 116.214844 336.785156 106.714844 336.785156 95 C 336.785156 83.285156 346.285156 73.785156 358 73.785156 C 369.714844 73.785156 379.214844 83.285156 379.214844 95 "/>
<path style="fill-rule:nonzero;fill:rgb(55%,51%,53%);fill-opacity:1;stroke-width:1;stroke-linecap:butt;stroke-linejoin:miter;stroke:rgb(0%,0%,0%);stroke-opacity:1;stroke-miterlimit:10;" d="M 416.214844 371 C 416.214844 382.714844 406.714844 392.214844 395 392.214844 C 383.285156 392.214844 373.785156 382.714844 373.785156 371 C 373.785156 359.285156 383.285156 349.785156 395 349.785156 C 406.714844 349.785156 416.214844 359.285156 416.214844 371 "/>
<path style="fill-rule:nonzero;fill:rgb(100%,51%,0%);fill-opacity:1;stroke-width:1;stroke-linecap:butt;stroke-linejoin:miter;stroke:rgb(0%,0%,0%);stroke-opacity:1;stroke-miterlimit:10;" d="M 407.214844 238 C 407.214844 249.714844 397.714844 259.214844 386 259.214844 C 374.285156 259.214844 364.785156 249.714844 364.785156 238 C 364.785156 226.285156 374.285156 216.785156 386 216.785156 C 397.714844 216.785156 407.214844 226.285156 407.214844 238 "/>
<path style="fill-rule:nonzero;fill:rgb(100%,51%,0%);fill-opacity:1;stroke-width:1;stroke-linecap:butt;stroke-linejoin:miter;stroke:rgb(0%,0%,0%);stroke-opacity:1;stroke-miterlimit:10;" d="M 292.214844 330 C 292.214844 341.714844 282.714844 351.214844 271 351.214844 C 259.285156 351.214844 249.785156 341.714844 249.785156 330 C 249.785156 318.285156 259.285156 308.785156 271 308.785156 C 282.714844 308.785156 292.214844 318.285156 292.214844 330 "/>
<path style="fill-rule:nonzero;fill:rgb(55%,51%,53%);fill-opacity:1;stroke-width:1;stroke-linecap:butt;stroke-linejoin:miter;stroke:rgb(0%,0%,0%);stroke-opacity:1;stroke-miterlimit:10;" d="M 871.785156 240.785156 L 871.785156 283.214844 L 914.214844 283.214844 L 914.214844 240.785156 L 871.785156 240.785156 "/>
<path style="fill-rule:nonzero;fill:rgb(100%,51%,0%);fill-opacity:1;stroke-width:1;stroke-linecap:butt;stroke-linejoin:miter;stroke:rgb(0%,0%,0%);stroke-opacity:1;stroke-miterlimit:10;" d="M 733.785156 285.785156 L 733.785156 328.214844 L 776.214844 328.214844 L 776.214844 285.785156 L 733.785156 285.785156 "/>
<path style="fill-rule:nonzero;fill:rgb(100%,51%,0%);fill-opacity:1;stroke-width:1;stroke-linecap:butt;stroke-linejoin:miter;stroke:rgb(0%,0%,0%);stroke-opacity:1;stroke-miterlimit:10;" d="M 691.785156 399.785156 L 691.785156 442.214844 L 734.214844 442.214844 L 734.214844 399.785156 L 691.785156 399.785156 "/>
</g>
</svg>
