<?xml version="1.0" encoding="UTF-8"?>
<svg xmlns="http://www.w3.org/2000/svg" xmlns:xlink="http://www.w3.org/1999/xlink" width="1179pt" height="517pt" viewBox="0 0 1179 517" version="1.1">
<g id="surface611">
<rect x="0" y="0" width="1179" height="517" style="fill:rgb(90%,90%,90%);fill-opacity:1;stroke:none;"/>
<path style="fill-rule:nonzero;fill:rgb(35%,70%,90%);fill-opacity:1;stroke-width:1;stroke-linecap:butt;stroke-linejoin:miter;stroke:rgb(0%,0%,0%);stroke-opacity:1;stroke-miterlimit:10;" d="M 328 332 L 357.664062 332 L 369.664062 303.785156 L 381.664062 332 L 411.332031 332 L 387.332031 349.4375 L 395.417969 380.980469 L 369.664062 363.542969 L 343.914062 380.980469 L 356.214844 349.4375 L 328 332 "/>
<path style="fill-rule:nonzero;fill:rgb(35%,70%,90%);fill-opacity:1;stroke-width:1;stroke-linecap:butt;stroke-linejoin:miter;stroke:rgb(0%,0%,0%);stroke-opacity:1;stroke-miterlimit:10;" d="M 202 210 L 231.664062 210 L 243.664062 181.785156 L 255.664062 210 L 285.332031 210 L 261.332031 227.4375 L 269.417969 258.980469 L 243.664062 241.542969 L 217.914062 258.980469 L 230.214844 227.4375 L 202 210 "/>
<path style="fill-rule:nonzero;fill:rgb(55%,51%,53%);fill-opacity:1;stroke-width:1;stroke-linecap:butt;stroke-linejoin:miter;stroke:rgb(0%,0%,0%);stroke-opacity:1;stroke-miterlimit:10;" d="M 399 274 L 428.664062 274 L 440.664062 245.785156 L 452.664062 274 L 482.332031 274 L 458.332031 291.4375 L 466.417969 322.980469 L 440.664062 305.542969 L 414.914062 322.980469 L 427.214844 291.4375 L 399 274 "/>
<path style="fill-rule:nonzero;fill:rgb(55%,51%,53%);fill-opacity:1;stroke-width:1;stroke-linecap:butt;stroke-linejoin:miter;stroke:rgb(0%,0%,0%);stroke-opacity:1;stroke-miterlimit:10;" d="M 225 344 L 254.664062 344 L 266.664062 315.785156 L 278.664062 344 L 308.332031 344 L 284.332031 361.4375 L 292.417969 392.980469 L 266.664062 375.542969 L 240.914062 392.980469 L 253.214844 361.4375 L 225 344 "/>
<path style="fill-rule:nonzero;fill:rgb(35%,70%,90%);fill-opacity:1;stroke-width:1;stroke-linecap:butt;stroke-linejoin:miter;stroke:rgb(0%,0%,0%);stroke-opacity:1;stroke-miterlimit:10;" d="M 308 153 L 337.664062 153 L 349.664062 124.785156 L 361.664062 153 L 391.332031 153 L 367.332031 170.4375 L 375.417969 201.980469 L 349.664062 184.542969 L 323.914062 201.980469 L 336.214844 170.4375 L 308 153 "/>
<path style="fill-rule:nonzero;fill:rgb(55%,51%,53%);fill-opacity:1;stroke-width:1;stroke-linecap:butt;stroke-linejoin:miter;stroke:rgb(0%,0%,0%);stroke-opacity:1;stroke-miterlimit:10;" d="M 703.785156 354.785156 L 703.785156 397.214844 L 746.214844 397.214844 L 746.214844 354.785156 L 703.785156 354.785156 "/>
<path style="fill-rule:nonzero;fill:rgb(55%,51%,53%);fill-opacity:1;stroke-width:1;stroke-linecap:butt;stroke-linejoin:miter;stroke:rgb(0%,0%,0%);stroke-opacity:1;stroke-miterlimit:10;" d="M 844.785156 316.785156 L 844.785156 359.214844 L 887.214844 359.214844 L 887.214844 316.785156 L 844.785156 316.785156 "/>
<path style="fill-rule:nonzero;fill:rgb(35%,70%,90%);fill-opacity:1;stroke-width:1;stroke-linecap:butt;stroke-linejoin:miter;stroke:rgb(0%,0%,0%);stroke-opacity:1;stroke-miterlimit:10;" d="M 816.785156 109.785156 L 816.785156 152.214844 L 859.214844 152.214844 L 859.214844 109.785156 L 816.785156 109.785156 "/>
<path style="fill-rule:nonzero;fill:rgb(35%,70%,90%);fill-opacity:1;stroke-width:1;stroke-linecap:butt;stroke-linejoin:miter;stroke:rgb(0%,0%,0%);stroke-opacity:1;stroke-miterlimit:10;" d="M 1013.785156 277.785156 L 1013.785156 320.214844 L 1056.214844 320.214844 L 1056.214844 277.785156 L 1013.785156 277.785156 "/>
<path style="fill-rule:nonzero;fill:rgb(55%,51%,53%);fill-opacity:1;stroke-width:1;stroke-linecap:butt;stroke-linejoin:miter;stroke:rgb(0%,0%,0%);stroke-opacity:1;stroke-miterlimit:10;" d="M 1000.785156 165.785156 L 1000.785156 208.214844 L 1043.214844 208.214844 L 1043.214844 165.785156 L 1000.785156 165.785156 "/>
</g>
</svg>
