<?xml version="1.0" encoding="UTF-8"?>
<svg xmlns="http://www.w3.org/2000/svg" xmlns:xlink="http://www.w3.org/1999/xlink" width="1179pt" height="517pt" viewBox="0 0 1179 517" version="1.1">
<g id="surface1061">
<rect x="0" y="0" width="1179" height="517" style="fill:rgb(90%,90%,90%);fill-opacity:1;stroke:none;"/>
<path style="fill-rule:nonzero;fill:rgb(55%,51%,53%);fill-opacity:1;stroke-width:1;stroke-linecap:butt;stroke-linejoin:miter;stroke:rgb(0%,0%,0%);stroke-opacity:1;stroke-miterlimit:10;" d="M 810.214844 213 C 810.214844 224.714844 800.714844 234.214844 789 234.214844 C 777.285156 234.214844 767.785156 224.714844 767.785156 213 C 767.785156 201.285156 777.285156 191.785156 789 191.785156 C 800.714844 191.785156 810.214844 201.285156 810.214844 213 "/>
<path style="fill-rule:nonzero;fill:rgb(55%,51%,53%);fill-opacity:1;stroke-width:1;stroke-linecap:butt;stroke-linejoin:miter;stroke:rgb(0%,0%,0%);stroke-opacity:1;stroke-miterlimit:10;" d="M 475.214844 364 C 475.214844 375.714844 465.714844 385.214844 454 385.214844 C 442.285156 385.214844 432.785156 375.714844 432.785156 364 C 432.785156 352.285156 442.285156 342.785156 454 342.785156 C 465.714844 342.785156 475.214844 352.285156 475.214844 364 "/>
<path style="fill-rule:nonzero;fill:rgb(55%,51%,53%);fill-opacity:1;stroke-width:1;stroke-linecap:butt;stroke-linejoin:miter;stroke:rgb(0%,0%,0%);stroke-opacity:1;stroke-miterlimit:10;" d="M 411.214844 138 C 411.214844 149.714844 401.714844 159.214844 390 159.214844 C 378.285156 159.214844 368.785156 149.714844 368.785156 138 C 368.785156 126.285156 378.285156 116.785156 390 116.785156 C 401.714844 116.785156 411.214844 126.285156 411.214844 138 "/>
<path style="fill-rule:nonzero;fill:rgb(55%,51%,53%);fill-opacity:1;stroke-width:1;stroke-linecap:butt;stroke-linejoin:miter;stroke:rgb(0%,0%,0%);stroke-opacity:1;stroke-miterlimit:10;" d="M 963.214844 374 C 963.214844 385.714844 953.714844 395.214844 942 395.214844 C 930.285156 395.214844 920.785156 385.714844 920.785156 374 C 920.785156 362.285156 930.285156 352.785156 942 352.785156 C 953.714844 352.785156 963.214844 362.285156 963.214844 374 "/>
<path style="fill-rule:nonzero;fill:rgb(35%,70%,90%);fill-opacity:1;stroke-width:1;stroke-linecap:butt;stroke-linejoin:miter;stroke:rgb(0%,0%,0%);stroke-opacity:1;stroke-miterlimit:10;" d="M 548 233 L 522.019531 278 L 573.980469 278 L 548 233 "/>
<path style="fill-rule:nonzero;fill:rgb(35%,70%,90%);fill-opacity:1;stroke-width:1;stroke-linecap:butt;stroke-linejoin:miter;stroke:rgb(0%,0%,0%);stroke-opacity:1;stroke-miterlimit:10;" d="M 641 107 L 615.019531 152 L 666.980469 152 L 641 107 "/>
<path style="fill-rule:nonzero;fill:rgb(35%,70%,90%);fill-opacity:1;stroke-width:1;stroke-linecap:butt;stroke-linejoin:miter;stroke:rgb(0%,0%,0%);stroke-opacity:1;stroke-miterlimit:10;" d="M 300 326 L 274.019531 371 L 325.980469 371 L 300 326 "/>
</g>
</svg>
