<?xml version="1.0" encoding="UTF-8"?>
<svg xmlns="http://www.w3.org/2000/svg" xmlns:xlink="http://www.w3.org/1999/xlink" width="1179pt" height="517pt" viewBox="0 0 1179 517" version="1.1">
<g id="surface211">
<rect x="0" y="0" width="1179" height="517" style="fill:rgb(90%,90%,90%);fill-opacity:1;stroke:none;"/>
<path style="fill-rule:nonzero;fill:rgb(35%,70%,90%);fill-opacity:1;stroke-width:1;stroke-linecap:butt;stroke-linejoin:miter;stroke:rgb(0%,0%,0%);stroke-opacity:1;stroke-miterlimit:10;" d="M 254 175 L 283.664062 175 L 295.664062 146.785156 L 307.664062 175 L 337.332031 175 L 313.332031 192.4375 L 321.417969 223.980469 L 295.664062 206.542969 L 269.914062 223.980469 L 282.214844 192.4375 L 254 175 "/>
<path style="fill-rule:nonzero;fill:rgb(35%,70%,90%);fill-opacity:1;stroke-width:1;stroke-linecap:butt;stroke-linejoin:miter;stroke:rgb(0%,0%,0%);stroke-opacity:1;stroke-miterlimit:10;" d="M 176 308 L 205.664062 308 L 217.664062 279.785156 L 229.664062 308 L 259.332031 308 L 235.332031 325.4375 L 243.417969 356.980469 L 217.664062 339.542969 L 191.914062 356.980469 L 204.214844 325.4375 L 176 308 "/>
<path style="fill-rule:nonzero;fill:rgb(35%,70%,90%);fill-opacity:1;stroke-width:1;stroke-linecap:butt;stroke-linejoin:miter;stroke:rgb(0%,0%,0%);stroke-opacity:1;stroke-miterlimit:10;" d="M 1011 300 L 1040.664062 300 L 1052.664062 271.785156 L 1064.664062 300 L 1094.332031 300 L 1070.332031 317.4375 L 1078.417969 348.980469 L 1052.664062 331.542969 L 1026.914062 348.980469 L 1039.214844 317.4375 L 1011 300 "/>
<path style="fill-rule:nonzero;fill:rgb(53%,27%,7%);fill-opacity:1;stroke-width:1;stroke-linecap:butt;stroke-linejoin:miter;stroke:rgb(0%,0%,0%);stroke-opacity:1;stroke-miterlimit:10;" d="M 698.214844 255 C 698.214844 266.714844 688.714844 276.214844 677 276.214844 C 665.285156 276.214844 655.785156 266.714844 655.785156 255 C 655.785156 243.285156 665.285156 233.785156 677 233.785156 C 688.714844 233.785156 698.214844 243.285156 698.214844 255 "/>
<path style="fill-rule:nonzero;fill:rgb(53%,27%,7%);fill-opacity:1;stroke-width:1;stroke-linecap:butt;stroke-linejoin:miter;stroke:rgb(0%,0%,0%);stroke-opacity:1;stroke-miterlimit:10;" d="M 835.214844 219 C 835.214844 230.714844 825.714844 240.214844 814 240.214844 C 802.285156 240.214844 792.785156 230.714844 792.785156 219 C 792.785156 207.285156 802.285156 197.785156 814 197.785156 C 825.714844 197.785156 835.214844 207.285156 835.214844 219 "/>
<path style="fill-rule:nonzero;fill:rgb(53%,27%,7%);fill-opacity:1;stroke-width:1;stroke-linecap:butt;stroke-linejoin:miter;stroke:rgb(0%,0%,0%);stroke-opacity:1;stroke-miterlimit:10;" d="M 367.214844 355 C 367.214844 366.714844 357.714844 376.214844 346 376.214844 C 334.285156 376.214844 324.785156 366.714844 324.785156 355 C 324.785156 343.285156 334.285156 333.785156 346 333.785156 C 357.714844 333.785156 367.214844 343.285156 367.214844 355 "/>
</g>
</svg>
