<?xml version="1.0" encoding="UTF-8"?>
<svg xmlns="http://www.w3.org/2000/svg" xmlns:xlink="http://www.w3.org/1999/xlink" width="1179pt" height="517pt" viewBox="0 0 1179 517" version="1.1">
<g id="surface711">
<rect x="0" y="0" width="1179" height="517" style="fill:rgb(90%,90%,90%);fill-opacity:1;stroke:none;"/>
<path style="fill-rule:nonzero;fill:rgb(55%,51%,53%);fill-opacity:1;stroke-width:1;stroke-linecap:butt;stroke-linejoin:miter;stroke:rgb(0%,0%,0%);stroke-opacity:1;stroke-miterlimit:10;" d="M 442.214844 82 C 442.214844 93.714844 432.714844 103.214844 421 103.214844 C 409.285156 103.214844 399.785156 93.714844 399.785156 82 C 399.785156 70.285156 409.285156 60.785156 421 60.785156 C 432.714844 60.785156 442.214844 70.285156 442.214844 82 "/>
<path style="fill-rule:nonzero;fill:rgb(55%,51%,53%);fill-opacity:1;stroke-width:1;stroke-linecap:butt;stroke-linejoin:miter;stroke:rgb(0%,0%,0%);stroke-opacity:1;stroke-miterlimit:10;" d="M 276.214844 330 C 276.214844 341.714844 266.714844 351.214844 255 351.214844 C 243.285156 351.214844 233.785156 341.714844 233.785156 330 C 233.785156 318.285156 243.285156 308.785156 255 308.785156 C 266.714844 308.785156 276.214844 318.285156 276.214844 330 "/>
<path style="fill-rule:nonzero;fill:rgb(55%,51%,53%);fill-opacity:1;stroke-width:1;stroke-linecap:butt;stroke-linejoin:miter;stroke:rgb(0%,0%,0%);stroke-opacity:1;stroke-miterlimit:10;" d="M 338.785156 204.785156 L 338.785156 247.214844 L 381.214844 247.214844 L 381.214844 204.785156 L 338.785156 204.785156 "/>
<path style="fill-rule:nonzero;fill:rgb(55%,51%,53%);fill-opacity:1;stroke-width:1;stroke-linecap:butt;stroke-linejoin:miter;stroke:rgb(0%,0%,0%);stroke-opacity:1;stroke-miterlimit:10;" d="M 96.785156 369.785156 L 96.785156 412.214844 L 139.214844 412.214844 L 139.214844 369.785156 L 96.785156 369.785156 "/>
<path style="fill-rule:nonzero;fill:rgb(55%,51%,53%);fill-opacity:1;stroke-width:1;stroke-linecap:butt;stroke-linejoin:miter;stroke:rgb(0%,0%,0%);stroke-opacity:1;stroke-miterlimit:10;" d="M 177.214844 241 C 177.214844 252.714844 167.714844 262.214844 156 262.214844 C 144.285156 262.214844 134.785156 252.714844 134.785156 241 C 134.785156 229.285156 144.285156 219.785156 156 219.785156 C 167.714844 219.785156 177.214844 229.285156 177.214844 241 "/>
<path style="fill-rule:nonzero;fill:rgb(53%,27%,7%);fill-opacity:1;stroke-width:1;stroke-linecap:butt;stroke-linejoin:miter;stroke:rgb(0%,0%,0%);stroke-opacity:1;stroke-miterlimit:10;" d="M 854.785156 237.785156 L 854.785156 280.214844 L 897.214844 280.214844 L 897.214844 237.785156 L 854.785156 237.785156 "/>
<path style="fill-rule:nonzero;fill:rgb(53%,27%,7%);fill-opacity:1;stroke-width:1;stroke-linecap:butt;stroke-linejoin:miter;stroke:rgb(0%,0%,0%);stroke-opacity:1;stroke-miterlimit:10;" d="M 686.785156 290.785156 L 686.785156 333.214844 L 729.214844 333.214844 L 729.214844 290.785156 L 686.785156 290.785156 "/>
<path style="fill-rule:nonzero;fill:rgb(53%,27%,7%);fill-opacity:1;stroke-width:1;stroke-linecap:butt;stroke-linejoin:miter;stroke:rgb(0%,0%,0%);stroke-opacity:1;stroke-miterlimit:10;" d="M 965.214844 332 C 965.214844 343.714844 955.714844 353.214844 944 353.214844 C 932.285156 353.214844 922.785156 343.714844 922.785156 332 C 922.785156 320.285156 932.285156 310.785156 944 310.785156 C 955.714844 310.785156 965.214844 320.285156 965.214844 332 "/>
<path style="fill-rule:nonzero;fill:rgb(53%,27%,7%);fill-opacity:1;stroke-width:1;stroke-linecap:butt;stroke-linejoin:miter;stroke:rgb(0%,0%,0%);stroke-opacity:1;stroke-miterlimit:10;" d="M 1039.214844 196 C 1039.214844 207.714844 1029.714844 217.214844 1018 217.214844 C 1006.285156 217.214844 996.785156 207.714844 996.785156 196 C 996.785156 184.285156 1006.285156 174.785156 1018 174.785156 C 1029.714844 174.785156 1039.214844 184.285156 1039.214844 196 "/>
</g>
</svg>
