<?xml version="1.0" encoding="UTF-8"?>
<svg xmlns="http://www.w3.org/2000/svg" xmlns:xlink="http://www.w3.org/1999/xlink" width="1179pt" height="517pt" viewBox="0 0 1179 517" version="1.1">
<g id="surface956">
<rect x="0" y="0" width="1179" height="517" style="fill:rgb(90%,90%,90%);fill-opacity:1;stroke:none;"/>
<path style="fill-rule:nonzero;fill:rgb(55%,51%,53%);fill-opacity:1;stroke-width:1;stroke-linecap:butt;stroke-linejoin:miter;stroke:rgb(0%,0%,0%);stroke-opacity:1;stroke-miterlimit:10;" d="M 165 258 L 139.019531 303 L 190.980469 303 L 165 258 "/>
<path style="fill-rule:nonzero;fill:rgb(55%,51%,53%);fill-opacity:1;stroke-width:1;stroke-linecap:butt;stroke-linejoin:miter;stroke:rgb(0%,0%,0%);stroke-opacity:1;stroke-miterlimit:10;" d="M 930 349 L 904.019531 394 L 955.980469 394 L 930 349 "/>
<path style="fill-rule:nonzero;fill:rgb(55%,51%,53%);fill-opacity:1;stroke-width:1;stroke-linecap:butt;stroke-linejoin:miter;stroke:rgb(0%,0%,0%);stroke-opacity:1;stroke-miterlimit:10;" d="M 486 103 L 460.019531 148 L 511.980469 148 L 486 103 "/>
<path style="fill-rule:nonzero;fill:rgb(55%,51%,53%);fill-opacity:1;stroke-width:1;stroke-linecap:butt;stroke-linejoin:miter;stroke:rgb(0%,0%,0%);stroke-opacity:1;stroke-miterlimit:10;" d="M 721 89 L 695.019531 134 L 746.980469 134 L 721 89 "/>
<path style="fill-rule:nonzero;fill:rgb(100%,51%,0%);fill-opacity:1;stroke-width:1;stroke-linecap:butt;stroke-linejoin:miter;stroke:rgb(0%,0%,0%);stroke-opacity:1;stroke-miterlimit:10;" d="M 617 202 L 646.664062 202 L 658.664062 173.785156 L 670.664062 202 L 700.332031 202 L 676.332031 219.4375 L 684.417969 250.980469 L 658.664062 233.542969 L 632.914062 250.980469 L 645.214844 219.4375 L 617 202 "/>
<path style="fill-rule:nonzero;fill:rgb(100%,51%,0%);fill-opacity:1;stroke-width:1;stroke-linecap:butt;stroke-linejoin:miter;stroke:rgb(0%,0%,0%);stroke-opacity:1;stroke-miterlimit:10;" d="M 935 91 L 964.664062 91 L 976.664062 62.785156 L 988.664062 91 L 1018.332031 91 L 994.332031 108.4375 L 1002.417969 139.980469 L 976.664062 122.542969 L 950.914062 139.980469 L 963.214844 108.4375 L 935 91 "/>
<path style="fill-rule:nonzero;fill:rgb(100%,51%,0%);fill-opacity:1;stroke-width:1;stroke-linecap:butt;stroke-linejoin:miter;stroke:rgb(0%,0%,0%);stroke-opacity:1;stroke-miterlimit:10;" d="M 731 309 L 760.664062 309 L 772.664062 280.785156 L 784.664062 309 L 814.332031 309 L 790.332031 326.4375 L 798.417969 357.980469 L 772.664062 340.542969 L 746.914062 357.980469 L 759.214844 326.4375 L 731 309 "/>
<path style="fill-rule:nonzero;fill:rgb(100%,51%,0%);fill-opacity:1;stroke-width:1;stroke-linecap:butt;stroke-linejoin:miter;stroke:rgb(0%,0%,0%);stroke-opacity:1;stroke-miterlimit:10;" d="M 219 102 L 248.664062 102 L 260.664062 73.785156 L 272.664062 102 L 302.332031 102 L 278.332031 119.4375 L 286.417969 150.980469 L 260.664062 133.542969 L 234.914062 150.980469 L 247.214844 119.4375 L 219 102 "/>
</g>
</svg>
