<?xml version="1.0" encoding="UTF-8"?>
<svg xmlns="http://www.w3.org/2000/svg" xmlns:xlink="http://www.w3.org/1999/xlink" width="1179pt" height="517pt" viewBox="0 0 1179 517" version="1.1">
<g id="surface916">
<rect x="0" y="0" width="1179" height="517" style="fill:rgb(90%,90%,90%);fill-opacity:1;stroke:none;"/>
<path style="fill-rule:nonzero;fill:rgb(53%,27%,7%);fill-opacity:1;stroke-width:1;stroke-linecap:butt;stroke-linejoin:miter;stroke:rgb(0%,0%,0%);stroke-opacity:1;stroke-miterlimit:10;" d="M 786 263 L 815.664062 263 L 827.664062 234.785156 L 839.664062 263 L 869.332031 263 L 845.332031 280.4375 L 853.417969 311.980469 L 827.664062 294.542969 L 801.914062 311.980469 L 814.214844 280.4375 L 786 263 "/>
<path style="fill-rule:nonzero;fill:rgb(53%,27%,7%);fill-opacity:1;stroke-width:1;stroke-linecap:butt;stroke-linejoin:miter;stroke:rgb(0%,0%,0%);stroke-opacity:1;stroke-miterlimit:10;" d="M 362 216 L 391.664062 216 L 403.664062 187.785156 L 415.664062 216 L 445.332031 216 L 421.332031 233.4375 L 429.417969 264.980469 L 403.664062 247.542969 L 377.914062 264.980469 L 390.214844 233.4375 L 362 216 "/>
<path style="fill-rule:nonzero;fill:rgb(53%,27%,7%);fill-opacity:1;stroke-width:1;stroke-linecap:butt;stroke-linejoin:miter;stroke:rgb(0%,0%,0%);stroke-opacity:1;stroke-miterlimit:10;" d="M 120 338 L 149.664062 338 L 161.664062 309.785156 L 173.664062 338 L 203.332031 338 L 179.332031 355.4375 L 187.417969 386.980469 L 161.664062 369.542969 L 135.914062 386.980469 L 148.214844 355.4375 L 120 338 "/>
<path style="fill-rule:nonzero;fill:rgb(55%,51%,53%);fill-opacity:1;stroke-width:1;stroke-linecap:butt;stroke-linejoin:miter;stroke:rgb(0%,0%,0%);stroke-opacity:1;stroke-miterlimit:10;" d="M 735 111 L 764.664062 111 L 776.664062 82.785156 L 788.664062 111 L 818.332031 111 L 794.332031 128.4375 L 802.417969 159.980469 L 776.664062 142.542969 L 750.914062 159.980469 L 763.214844 128.4375 L 735 111 "/>
<path style="fill-rule:nonzero;fill:rgb(55%,51%,53%);fill-opacity:1;stroke-width:1;stroke-linecap:butt;stroke-linejoin:miter;stroke:rgb(0%,0%,0%);stroke-opacity:1;stroke-miterlimit:10;" d="M 626 400 L 655.664062 400 L 667.664062 371.785156 L 679.664062 400 L 709.332031 400 L 685.332031 417.4375 L 693.417969 448.980469 L 667.664062 431.542969 L 641.914062 448.980469 L 654.214844 417.4375 L 626 400 "/>
<path style="fill-rule:nonzero;fill:rgb(55%,51%,53%);fill-opacity:1;stroke-width:1;stroke-linecap:butt;stroke-linejoin:miter;stroke:rgb(0%,0%,0%);stroke-opacity:1;stroke-miterlimit:10;" d="M 911 209 L 940.664062 209 L 952.664062 180.785156 L 964.664062 209 L 994.332031 209 L 970.332031 226.4375 L 978.417969 257.980469 L 952.664062 240.542969 L 926.914062 257.980469 L 939.214844 226.4375 L 911 209 "/>
<path style="fill-rule:nonzero;fill:rgb(55%,51%,53%);fill-opacity:1;stroke-width:1;stroke-linecap:butt;stroke-linejoin:miter;stroke:rgb(0%,0%,0%);stroke-opacity:1;stroke-miterlimit:10;" d="M 312 353 L 341.664062 353 L 353.664062 324.785156 L 365.664062 353 L 395.332031 353 L 371.332031 370.4375 L 379.417969 401.980469 L 353.664062 384.542969 L 327.914062 401.980469 L 340.214844 370.4375 L 312 353 "/>
</g>
</svg>
