<?xml version="1.0" encoding="UTF-8"?>
<svg xmlns="http://www.w3.org/2000/svg" xmlns:xlink="http://www.w3.org/1999/xlink" width="1179pt" height="517pt" viewBox="0 0 1179 517" version="1.1">
<g id="surface746">
<rect x="0" y="0" width="1179" height="517" style="fill:rgb(90%,90%,90%);fill-opacity:1;stroke:none;"/>
<path style="fill-rule:nonzero;fill:rgb(35%,70%,90%);fill-opacity:1;stroke-width:1;stroke-linecap:butt;stroke-linejoin:miter;stroke:rgb(0%,0%,0%);stroke-opacity:1;stroke-miterlimit:10;" d="M 786.214844 206 C 786.214844 217.714844 776.714844 227.214844 765 227.214844 C 753.285156 227.214844 743.785156 217.714844 743.785156 206 C 743.785156 194.285156 753.285156 184.785156 765 184.785156 C 776.714844 184.785156 786.214844 194.285156 786.214844 206 "/>
<path style="fill-rule:nonzero;fill:rgb(35%,70%,90%);fill-opacity:1;stroke-width:1;stroke-linecap:butt;stroke-linejoin:miter;stroke:rgb(0%,0%,0%);stroke-opacity:1;stroke-miterlimit:10;" d="M 963.214844 91 C 963.214844 102.714844 953.714844 112.214844 942 112.214844 C 930.285156 112.214844 920.785156 102.714844 920.785156 91 C 920.785156 79.285156 930.285156 69.785156 942 69.785156 C 953.714844 69.785156 963.214844 79.285156 963.214844 91 "/>
<path style="fill-rule:nonzero;fill:rgb(35%,70%,90%);fill-opacity:1;stroke-width:1;stroke-linecap:butt;stroke-linejoin:miter;stroke:rgb(0%,0%,0%);stroke-opacity:1;stroke-miterlimit:10;" d="M 851.214844 429 C 851.214844 440.714844 841.714844 450.214844 830 450.214844 C 818.285156 450.214844 808.785156 440.714844 808.785156 429 C 808.785156 417.285156 818.285156 407.785156 830 407.785156 C 841.714844 407.785156 851.214844 417.285156 851.214844 429 "/>
<path style="fill-rule:nonzero;fill:rgb(35%,70%,90%);fill-opacity:1;stroke-width:1;stroke-linecap:butt;stroke-linejoin:miter;stroke:rgb(0%,0%,0%);stroke-opacity:1;stroke-miterlimit:10;" d="M 277.214844 260 C 277.214844 271.714844 267.714844 281.214844 256 281.214844 C 244.285156 281.214844 234.785156 271.714844 234.785156 260 C 234.785156 248.285156 244.285156 238.785156 256 238.785156 C 267.714844 238.785156 277.214844 248.285156 277.214844 260 "/>
<path style="fill-rule:nonzero;fill:rgb(35%,70%,90%);fill-opacity:1;stroke-width:1;stroke-linecap:butt;stroke-linejoin:miter;stroke:rgb(0%,0%,0%);stroke-opacity:1;stroke-miterlimit:10;" d="M 413 309 L 442.664062 309 L 454.664062 280.785156 L 466.664062 309 L 496.332031 309 L 472.332031 326.4375 L 480.417969 357.980469 L 454.664062 340.542969 L 428.914062 357.980469 L 441.214844 326.4375 L 413 309 "/>
<path style="fill-rule:nonzero;fill:rgb(35%,70%,90%);fill-opacity:1;stroke-width:1;stroke-linecap:butt;stroke-linejoin:miter;stroke:rgb(0%,0%,0%);stroke-opacity:1;stroke-miterlimit:10;" d="M 88 220 L 117.664062 220 L 129.664062 191.785156 L 141.664062 220 L 171.332031 220 L 147.332031 237.4375 L 155.417969 268.980469 L 129.664062 251.542969 L 103.914062 268.980469 L 116.214844 237.4375 L 88 220 "/>
<path style="fill-rule:nonzero;fill:rgb(35%,70%,90%);fill-opacity:1;stroke-width:1;stroke-linecap:butt;stroke-linejoin:miter;stroke:rgb(0%,0%,0%);stroke-opacity:1;stroke-miterlimit:10;" d="M 1016 365 L 1045.664062 365 L 1057.664062 336.785156 L 1069.664062 365 L 1099.332031 365 L 1075.332031 382.4375 L 1083.417969 413.980469 L 1057.664062 396.542969 L 1031.914062 413.980469 L 1044.214844 382.4375 L 1016 365 "/>
<path style="fill-rule:nonzero;fill:rgb(35%,70%,90%);fill-opacity:1;stroke-width:1;stroke-linecap:butt;stroke-linejoin:miter;stroke:rgb(0%,0%,0%);stroke-opacity:1;stroke-miterlimit:10;" d="M 620 332 L 649.664062 332 L 661.664062 303.785156 L 673.664062 332 L 703.332031 332 L 679.332031 349.4375 L 687.417969 380.980469 L 661.664062 363.542969 L 635.914062 380.980469 L 648.214844 349.4375 L 620 332 "/>
<path style="fill-rule:nonzero;fill:rgb(35%,70%,90%);fill-opacity:1;stroke-width:1;stroke-linecap:butt;stroke-linejoin:miter;stroke:rgb(0%,0%,0%);stroke-opacity:1;stroke-miterlimit:10;" d="M 235 427 L 264.664062 427 L 276.664062 398.785156 L 288.664062 427 L 318.332031 427 L 294.332031 444.4375 L 302.417969 475.980469 L 276.664062 458.542969 L 250.914062 475.980469 L 263.214844 444.4375 L 235 427 "/>
</g>
</svg>
