<?xml version="1.0" encoding="UTF-8"?>
<svg xmlns="http://www.w3.org/2000/svg" xmlns:xlink="http://www.w3.org/1999/xlink" width="1179pt" height="517pt" viewBox="0 0 1179 517" version="1.1">
<g id="surface316">
<rect x="0" y="0" width="1179" height="517" style="fill:rgb(90%,90%,90%);fill-opacity:1;stroke:none;"/>
<path style="fill-rule:nonzero;fill:rgb(100%,51%,0%);fill-opacity:1;stroke-width:1;stroke-linecap:butt;stroke-linejoin:miter;stroke:rgb(0%,0%,0%);stroke-opacity:1;stroke-miterlimit:10;" d="M 427.214844 397 C 427.214844 408.714844 417.714844 418.214844 406 418.214844 C 394.285156 418.214844 384.785156 408.714844 384.785156 397 C 384.785156 385.285156 394.285156 375.785156 406 375.785156 C 417.714844 375.785156 427.214844 385.285156 427.214844 397 "/>
<path style="fill-rule:nonzero;fill:rgb(100%,51%,0%);fill-opacity:1;stroke-width:1;stroke-linecap:butt;stroke-linejoin:miter;stroke:rgb(0%,0%,0%);stroke-opacity:1;stroke-miterlimit:10;" d="M 231.214844 391 C 231.214844 402.714844 221.714844 412.214844 210 412.214844 C 198.285156 412.214844 188.785156 402.714844 188.785156 391 C 188.785156 379.285156 198.285156 369.785156 210 369.785156 C 221.714844 369.785156 231.214844 379.285156 231.214844 391 "/>
<path style="fill-rule:nonzero;fill:rgb(100%,51%,0%);fill-opacity:1;stroke-width:1;stroke-linecap:butt;stroke-linejoin:miter;stroke:rgb(0%,0%,0%);stroke-opacity:1;stroke-miterlimit:10;" d="M 264.214844 162 C 264.214844 173.714844 254.714844 183.214844 243 183.214844 C 231.285156 183.214844 221.785156 173.714844 221.785156 162 C 221.785156 150.285156 231.285156 140.785156 243 140.785156 C 254.714844 140.785156 264.214844 150.285156 264.214844 162 "/>
<path style="fill-rule:nonzero;fill:rgb(55%,51%,53%);fill-opacity:1;stroke-width:1;stroke-linecap:butt;stroke-linejoin:miter;stroke:rgb(0%,0%,0%);stroke-opacity:1;stroke-miterlimit:10;" d="M 365.214844 249 C 365.214844 260.714844 355.714844 270.214844 344 270.214844 C 332.285156 270.214844 322.785156 260.714844 322.785156 249 C 322.785156 237.285156 332.285156 227.785156 344 227.785156 C 355.714844 227.785156 365.214844 237.285156 365.214844 249 "/>
<path style="fill-rule:nonzero;fill:rgb(55%,51%,53%);fill-opacity:1;stroke-width:1;stroke-linecap:butt;stroke-linejoin:miter;stroke:rgb(0%,0%,0%);stroke-opacity:1;stroke-miterlimit:10;" d="M 831 343 L 805.019531 388 L 856.980469 388 L 831 343 "/>
<path style="fill-rule:nonzero;fill:rgb(55%,51%,53%);fill-opacity:1;stroke-width:1;stroke-linecap:butt;stroke-linejoin:miter;stroke:rgb(0%,0%,0%);stroke-opacity:1;stroke-miterlimit:10;" d="M 962 161 L 936.019531 206 L 987.980469 206 L 962 161 "/>
<path style="fill-rule:nonzero;fill:rgb(55%,51%,53%);fill-opacity:1;stroke-width:1;stroke-linecap:butt;stroke-linejoin:miter;stroke:rgb(0%,0%,0%);stroke-opacity:1;stroke-miterlimit:10;" d="M 721 329 L 695.019531 374 L 746.980469 374 L 721 329 "/>
<path style="fill-rule:nonzero;fill:rgb(100%,51%,0%);fill-opacity:1;stroke-width:1;stroke-linecap:butt;stroke-linejoin:miter;stroke:rgb(0%,0%,0%);stroke-opacity:1;stroke-miterlimit:10;" d="M 862 132 L 836.019531 177 L 887.980469 177 L 862 132 "/>
<path style="fill-rule:nonzero;fill:rgb(55%,51%,53%);fill-opacity:1;stroke-width:1;stroke-linecap:butt;stroke-linejoin:miter;stroke:rgb(0%,0%,0%);stroke-opacity:1;stroke-miterlimit:10;" d="M 1036 365 L 1010.019531 410 L 1061.980469 410 L 1036 365 "/>
</g>
</svg>
