<?xml version="1.0" encoding="UTF-8"?>
<svg xmlns="http://www.w3.org/2000/svg" xmlns:xlink="http://www.w3.org/1999/xlink" width="1179pt" height="517pt" viewBox="0 0 1179 517" version="1.1">
<g id="surface636">
<rect x="0" y="0" width="1179" height="517" style="fill:rgb(90%,90%,90%);fill-opacity:1;stroke:none;"/>
<path style="fill-rule:nonzero;fill:rgb(100%,51%,0%);fill-opacity:1;stroke-width:1;stroke-linecap:butt;stroke-linejoin:miter;stroke:rgb(0%,0%,0%);stroke-opacity:1;stroke-miterlimit:10;" d="M 286 81 L 315.664062 81 L 327.664062 52.785156 L 339.664062 81 L 369.332031 81 L 345.332031 98.4375 L 353.417969 129.980469 L 327.664062 112.542969 L 301.914062 129.980469 L 314.214844 98.4375 L 286 81 "/>
<path style="fill-rule:nonzero;fill:rgb(100%,51%,0%);fill-opacity:1;stroke-width:1;stroke-linecap:butt;stroke-linejoin:miter;stroke:rgb(0%,0%,0%);stroke-opacity:1;stroke-miterlimit:10;" d="M 131 158 L 160.664062 158 L 172.664062 129.785156 L 184.664062 158 L 214.332031 158 L 190.332031 175.4375 L 198.417969 206.980469 L 172.664062 189.542969 L 146.914062 206.980469 L 159.214844 175.4375 L 131 158 "/>
<path style="fill-rule:nonzero;fill:rgb(100%,51%,0%);fill-opacity:1;stroke-width:1;stroke-linecap:butt;stroke-linejoin:miter;stroke:rgb(0%,0%,0%);stroke-opacity:1;stroke-miterlimit:10;" d="M 875 175 L 904.664062 175 L 916.664062 146.785156 L 928.664062 175 L 958.332031 175 L 934.332031 192.4375 L 942.417969 223.980469 L 916.664062 206.542969 L 890.914062 223.980469 L 903.214844 192.4375 L 875 175 "/>
<path style="fill-rule:nonzero;fill:rgb(100%,51%,0%);fill-opacity:1;stroke-width:1;stroke-linecap:butt;stroke-linejoin:miter;stroke:rgb(0%,0%,0%);stroke-opacity:1;stroke-miterlimit:10;" d="M 1022 149 L 1051.664062 149 L 1063.664062 120.785156 L 1075.664062 149 L 1105.332031 149 L 1081.332031 166.4375 L 1089.417969 197.980469 L 1063.664062 180.542969 L 1037.914062 197.980469 L 1050.214844 166.4375 L 1022 149 "/>
<path style="fill-rule:nonzero;fill:rgb(53%,27%,7%);fill-opacity:1;stroke-width:1;stroke-linecap:butt;stroke-linejoin:miter;stroke:rgb(0%,0%,0%);stroke-opacity:1;stroke-miterlimit:10;" d="M 734 285 L 708.019531 330 L 759.980469 330 L 734 285 "/>
<path style="fill-rule:nonzero;fill:rgb(53%,27%,7%);fill-opacity:1;stroke-width:1;stroke-linecap:butt;stroke-linejoin:miter;stroke:rgb(0%,0%,0%);stroke-opacity:1;stroke-miterlimit:10;" d="M 317 378 L 291.019531 423 L 342.980469 423 L 317 378 "/>
<path style="fill-rule:nonzero;fill:rgb(53%,27%,7%);fill-opacity:1;stroke-width:1;stroke-linecap:butt;stroke-linejoin:miter;stroke:rgb(0%,0%,0%);stroke-opacity:1;stroke-miterlimit:10;" d="M 953 338 L 927.019531 383 L 978.980469 383 L 953 338 "/>
<path style="fill-rule:nonzero;fill:rgb(53%,27%,7%);fill-opacity:1;stroke-width:1;stroke-linecap:butt;stroke-linejoin:miter;stroke:rgb(0%,0%,0%);stroke-opacity:1;stroke-miterlimit:10;" d="M 554 99 L 528.019531 144 L 579.980469 144 L 554 99 "/>
</g>
</svg>
