<?xml version="1.0" encoding="UTF-8"?>
<svg xmlns="http://www.w3.org/2000/svg" xmlns:xlink="http://www.w3.org/1999/xlink" width="1179pt" height="517pt" viewBox="0 0 1179 517" version="1.1">
<g id="surface951">
<rect x="0" y="0" width="1179" height="517" style="fill:rgb(90%,90%,90%);fill-opacity:1;stroke:none;"/>
<path style="fill-rule:nonzero;fill:rgb(55%,51%,53%);fill-opacity:1;stroke-width:1;stroke-linecap:butt;stroke-linejoin:miter;stroke:rgb(0%,0%,0%);stroke-opacity:1;stroke-miterlimit:10;" d="M 101 121 L 75.019531 166 L 126.980469 166 L 101 121 "/>
<path style="fill-rule:nonzero;fill:rgb(55%,51%,53%);fill-opacity:1;stroke-width:1;stroke-linecap:butt;stroke-linejoin:miter;stroke:rgb(0%,0%,0%);stroke-opacity:1;stroke-miterlimit:10;" d="M 252 212 L 226.019531 257 L 277.980469 257 L 252 212 "/>
<path style="fill-rule:nonzero;fill:rgb(55%,51%,53%);fill-opacity:1;stroke-width:1;stroke-linecap:butt;stroke-linejoin:miter;stroke:rgb(0%,0%,0%);stroke-opacity:1;stroke-miterlimit:10;" d="M 861 299 L 835.019531 344 L 886.980469 344 L 861 299 "/>
<path style="fill-rule:nonzero;fill:rgb(55%,51%,53%);fill-opacity:1;stroke-width:1;stroke-linecap:butt;stroke-linejoin:miter;stroke:rgb(0%,0%,0%);stroke-opacity:1;stroke-miterlimit:10;" d="M 278 381 L 307.664062 381 L 319.664062 352.785156 L 331.664062 381 L 361.332031 381 L 337.332031 398.4375 L 345.417969 429.980469 L 319.664062 412.542969 L 293.914062 429.980469 L 306.214844 398.4375 L 278 381 "/>
<path style="fill-rule:nonzero;fill:rgb(55%,51%,53%);fill-opacity:1;stroke-width:1;stroke-linecap:butt;stroke-linejoin:miter;stroke:rgb(0%,0%,0%);stroke-opacity:1;stroke-miterlimit:10;" d="M 1023 118 L 1052.664062 118 L 1064.664062 89.785156 L 1076.664062 118 L 1106.332031 118 L 1082.332031 135.4375 L 1090.417969 166.980469 L 1064.664062 149.542969 L 1038.914062 166.980469 L 1051.214844 135.4375 L 1023 118 "/>
<path style="fill-rule:nonzero;fill:rgb(55%,51%,53%);fill-opacity:1;stroke-width:1;stroke-linecap:butt;stroke-linejoin:miter;stroke:rgb(0%,0%,0%);stroke-opacity:1;stroke-miterlimit:10;" d="M 827 148 L 856.664062 148 L 868.664062 119.785156 L 880.664062 148 L 910.332031 148 L 886.332031 165.4375 L 894.417969 196.980469 L 868.664062 179.542969 L 842.914062 196.980469 L 855.214844 165.4375 L 827 148 "/>
<path style="fill-rule:nonzero;fill:rgb(55%,51%,53%);fill-opacity:1;stroke-width:1;stroke-linecap:butt;stroke-linejoin:miter;stroke:rgb(0%,0%,0%);stroke-opacity:1;stroke-miterlimit:10;" d="M 632 378 L 661.664062 378 L 673.664062 349.785156 L 685.664062 378 L 715.332031 378 L 691.332031 395.4375 L 699.417969 426.980469 L 673.664062 409.542969 L 647.914062 426.980469 L 660.214844 395.4375 L 632 378 "/>
<path style="fill-rule:nonzero;fill:rgb(55%,51%,53%);fill-opacity:1;stroke-width:1;stroke-linecap:butt;stroke-linejoin:miter;stroke:rgb(0%,0%,0%);stroke-opacity:1;stroke-miterlimit:10;" d="M 443 386 L 472.664062 386 L 484.664062 357.785156 L 496.664062 386 L 526.332031 386 L 502.332031 403.4375 L 510.417969 434.980469 L 484.664062 417.542969 L 458.914062 434.980469 L 471.214844 403.4375 L 443 386 "/>
</g>
</svg>
