<?xml version="1.0" encoding="UTF-8"?>
<svg xmlns="http://www.w3.org/2000/svg" xmlns:xlink="http://www.w3.org/1999/xlink" width="1179pt" height="517pt" viewBox="0 0 1179 517" version="1.1">
<g id="surface276">
<rect x="0" y="0" width="1179" height="517" style="fill:rgb(90%,90%,90%);fill-opacity:1;stroke:none;"/>
<path style="fill-rule:nonzero;fill:rgb(100%,51%,0%);fill-opacity:1;stroke-width:1;stroke-linecap:butt;stroke-linejoin:miter;stroke:rgb(0%,0%,0%);stroke-opacity:1;stroke-miterlimit:10;" d="M 255 346 L 284.664062 346 L 296.664062 317.785156 L 308.664062 346 L 338.332031 346 L 314.332031 363.4375 L 322.417969 394.980469 L 296.664062 377.542969 L 270.914062 394.980469 L 283.214844 363.4375 L 255 346 "/>
<path style="fill-rule:nonzero;fill:rgb(100%,51%,0%);fill-opacity:1;stroke-width:1;stroke-linecap:butt;stroke-linejoin:miter;stroke:rgb(0%,0%,0%);stroke-opacity:1;stroke-miterlimit:10;" d="M 1024 233 L 1053.664062 233 L 1065.664062 204.785156 L 1077.664062 233 L 1107.332031 233 L 1083.332031 250.4375 L 1091.417969 281.980469 L 1065.664062 264.542969 L 1039.914062 281.980469 L 1052.214844 250.4375 L 1024 233 "/>
<path style="fill-rule:nonzero;fill:rgb(100%,51%,0%);fill-opacity:1;stroke-width:1;stroke-linecap:butt;stroke-linejoin:miter;stroke:rgb(0%,0%,0%);stroke-opacity:1;stroke-miterlimit:10;" d="M 542 146 L 571.664062 146 L 583.664062 117.785156 L 595.664062 146 L 625.332031 146 L 601.332031 163.4375 L 609.417969 194.980469 L 583.664062 177.542969 L 557.914062 194.980469 L 570.214844 163.4375 L 542 146 "/>
<path style="fill-rule:nonzero;fill:rgb(100%,51%,0%);fill-opacity:1;stroke-width:1;stroke-linecap:butt;stroke-linejoin:miter;stroke:rgb(0%,0%,0%);stroke-opacity:1;stroke-miterlimit:10;" d="M 659 235 L 688.664062 235 L 700.664062 206.785156 L 712.664062 235 L 742.332031 235 L 718.332031 252.4375 L 726.417969 283.980469 L 700.664062 266.542969 L 674.914062 283.980469 L 687.214844 252.4375 L 659 235 "/>
<path style="fill-rule:nonzero;fill:rgb(53%,27%,7%);fill-opacity:1;stroke-width:1;stroke-linecap:butt;stroke-linejoin:miter;stroke:rgb(0%,0%,0%);stroke-opacity:1;stroke-miterlimit:10;" d="M 886 398 L 860.019531 443 L 911.980469 443 L 886 398 "/>
<path style="fill-rule:nonzero;fill:rgb(53%,27%,7%);fill-opacity:1;stroke-width:1;stroke-linecap:butt;stroke-linejoin:miter;stroke:rgb(0%,0%,0%);stroke-opacity:1;stroke-miterlimit:10;" d="M 491 369 L 465.019531 414 L 516.980469 414 L 491 369 "/>
<path style="fill-rule:nonzero;fill:rgb(53%,27%,7%);fill-opacity:1;stroke-width:1;stroke-linecap:butt;stroke-linejoin:miter;stroke:rgb(0%,0%,0%);stroke-opacity:1;stroke-miterlimit:10;" d="M 774 276 L 748.019531 321 L 799.980469 321 L 774 276 "/>
<path style="fill-rule:nonzero;fill:rgb(53%,27%,7%);fill-opacity:1;stroke-width:1;stroke-linecap:butt;stroke-linejoin:miter;stroke:rgb(0%,0%,0%);stroke-opacity:1;stroke-miterlimit:10;" d="M 192 128 L 166.019531 173 L 217.980469 173 L 192 128 "/>
</g>
</svg>
