<?xml version="1.0" encoding="UTF-8"?>
<svg xmlns="http://www.w3.org/2000/svg" xmlns:xlink="http://www.w3.org/1999/xlink" width="1179pt" height="517pt" viewBox="0 0 1179 517" version="1.1">
<g id="surface576">
<rect x="0" y="0" width="1179" height="517" style="fill:rgb(90%,90%,90%);fill-opacity:1;stroke:none;"/>
<path style="fill-rule:nonzero;fill:rgb(35%,70%,90%);fill-opacity:1;stroke-width:1;stroke-linecap:butt;stroke-linejoin:miter;stroke:rgb(0%,0%,0%);stroke-opacity:1;stroke-miterlimit:10;" d="M 442 343 L 471.664062 343 L 483.664062 314.785156 L 495.664062 343 L 525.332031 343 L 501.332031 360.4375 L 509.417969 391.980469 L 483.664062 374.542969 L 457.914062 391.980469 L 470.214844 360.4375 L 442 343 "/>
<path style="fill-rule:nonzero;fill:rgb(35%,70%,90%);fill-opacity:1;stroke-width:1;stroke-linecap:butt;stroke-linejoin:miter;stroke:rgb(0%,0%,0%);stroke-opacity:1;stroke-miterlimit:10;" d="M 496 196 L 525.664062 196 L 537.664062 167.785156 L 549.664062 196 L 579.332031 196 L 555.332031 213.4375 L 563.417969 244.980469 L 537.664062 227.542969 L 511.914062 244.980469 L 524.214844 213.4375 L 496 196 "/>
<path style="fill-rule:nonzero;fill:rgb(35%,70%,90%);fill-opacity:1;stroke-width:1;stroke-linecap:butt;stroke-linejoin:miter;stroke:rgb(0%,0%,0%);stroke-opacity:1;stroke-miterlimit:10;" d="M 688 269 L 717.664062 269 L 729.664062 240.785156 L 741.664062 269 L 771.332031 269 L 747.332031 286.4375 L 755.417969 317.980469 L 729.664062 300.542969 L 703.914062 317.980469 L 716.214844 286.4375 L 688 269 "/>
<path style="fill-rule:nonzero;fill:rgb(35%,70%,90%);fill-opacity:1;stroke-width:1;stroke-linecap:butt;stroke-linejoin:miter;stroke:rgb(0%,0%,0%);stroke-opacity:1;stroke-miterlimit:10;" d="M 1041 227 L 1070.664062 227 L 1082.664062 198.785156 L 1094.664062 227 L 1124.332031 227 L 1100.332031 244.4375 L 1108.417969 275.980469 L 1082.664062 258.542969 L 1056.914062 275.980469 L 1069.214844 244.4375 L 1041 227 "/>
<path style="fill-rule:nonzero;fill:rgb(53%,27%,7%);fill-opacity:1;stroke-width:1;stroke-linecap:butt;stroke-linejoin:miter;stroke:rgb(0%,0%,0%);stroke-opacity:1;stroke-miterlimit:10;" d="M 768 398 L 742.019531 443 L 793.980469 443 L 768 398 "/>
<path style="fill-rule:nonzero;fill:rgb(53%,27%,7%);fill-opacity:1;stroke-width:1;stroke-linecap:butt;stroke-linejoin:miter;stroke:rgb(0%,0%,0%);stroke-opacity:1;stroke-miterlimit:10;" d="M 94 53 L 68.019531 98 L 119.980469 98 L 94 53 "/>
<path style="fill-rule:nonzero;fill:rgb(53%,27%,7%);fill-opacity:1;stroke-width:1;stroke-linecap:butt;stroke-linejoin:miter;stroke:rgb(0%,0%,0%);stroke-opacity:1;stroke-miterlimit:10;" d="M 905 360 L 879.019531 405 L 930.980469 405 L 905 360 "/>
<path style="fill-rule:nonzero;fill:rgb(53%,27%,7%);fill-opacity:1;stroke-width:1;stroke-linecap:butt;stroke-linejoin:miter;stroke:rgb(0%,0%,0%);stroke-opacity:1;stroke-miterlimit:10;" d="M 277 376 L 251.019531 421 L 302.980469 421 L 277 376 "/>
<path style="fill-rule:nonzero;fill:rgb(53%,27%,7%);fill-opacity:1;stroke-width:1;stroke-linecap:butt;stroke-linejoin:miter;stroke:rgb(0%,0%,0%);stroke-opacity:1;stroke-miterlimit:10;" d="M 373 114 L 347.019531 159 L 398.980469 159 L 373 114 "/>
</g>
</svg>
