<?xml version="1.0" encoding="UTF-8"?>
<svg xmlns="http://www.w3.org/2000/svg" xmlns:xlink="http://www.w3.org/1999/xlink" width="1179pt" height="517pt" viewBox="0 0 1179 517" version="1.1">
<g id="surface1006">
<rect x="0" y="0" width="1179" height="517" style="fill:rgb(90%,90%,90%);fill-opacity:1;stroke:none;"/>
<path style="fill-rule:nonzero;fill:rgb(100%,51%,0%);fill-opacity:1;stroke-width:1;stroke-linecap:butt;stroke-linejoin:miter;stroke:rgb(0%,0%,0%);stroke-opacity:1;stroke-miterlimit:10;" d="M 732 176 L 761.664062 176 L 773.664062 147.785156 L 785.664062 176 L 815.332031 176 L 791.332031 193.4375 L 799.417969 224.980469 L 773.664062 207.542969 L 747.914062 224.980469 L 760.214844 193.4375 L 732 176 "/>
<path style="fill-rule:nonzero;fill:rgb(100%,51%,0%);fill-opacity:1;stroke-width:1;stroke-linecap:butt;stroke-linejoin:miter;stroke:rgb(0%,0%,0%);stroke-opacity:1;stroke-miterlimit:10;" d="M 353 266 L 382.664062 266 L 394.664062 237.785156 L 406.664062 266 L 436.332031 266 L 412.332031 283.4375 L 420.417969 314.980469 L 394.664062 297.542969 L 368.914062 314.980469 L 381.214844 283.4375 L 353 266 "/>
<path style="fill-rule:nonzero;fill:rgb(100%,51%,0%);fill-opacity:1;stroke-width:1;stroke-linecap:butt;stroke-linejoin:miter;stroke:rgb(0%,0%,0%);stroke-opacity:1;stroke-miterlimit:10;" d="M 630 422 L 659.664062 422 L 671.664062 393.785156 L 683.664062 422 L 713.332031 422 L 689.332031 439.4375 L 697.417969 470.980469 L 671.664062 453.542969 L 645.914062 470.980469 L 658.214844 439.4375 L 630 422 "/>
<path style="fill-rule:nonzero;fill:rgb(100%,51%,0%);fill-opacity:1;stroke-width:1;stroke-linecap:butt;stroke-linejoin:miter;stroke:rgb(0%,0%,0%);stroke-opacity:1;stroke-miterlimit:10;" d="M 625 105 L 654.664062 105 L 666.664062 76.785156 L 678.664062 105 L 708.332031 105 L 684.332031 122.4375 L 692.417969 153.980469 L 666.664062 136.542969 L 640.914062 153.980469 L 653.214844 122.4375 L 625 105 "/>
<path style="fill-rule:nonzero;fill:rgb(53%,27%,7%);fill-opacity:1;stroke-width:1;stroke-linecap:butt;stroke-linejoin:miter;stroke:rgb(0%,0%,0%);stroke-opacity:1;stroke-miterlimit:10;" d="M 199.214844 282 C 199.214844 293.714844 189.714844 303.214844 178 303.214844 C 166.285156 303.214844 156.785156 293.714844 156.785156 282 C 156.785156 270.285156 166.285156 260.785156 178 260.785156 C 189.714844 260.785156 199.214844 270.285156 199.214844 282 "/>
<path style="fill-rule:nonzero;fill:rgb(53%,27%,7%);fill-opacity:1;stroke-width:1;stroke-linecap:butt;stroke-linejoin:miter;stroke:rgb(0%,0%,0%);stroke-opacity:1;stroke-miterlimit:10;" d="M 932.214844 272 C 932.214844 283.714844 922.714844 293.214844 911 293.214844 C 899.285156 293.214844 889.785156 283.714844 889.785156 272 C 889.785156 260.285156 899.285156 250.785156 911 250.785156 C 922.714844 250.785156 932.214844 260.285156 932.214844 272 "/>
<path style="fill-rule:nonzero;fill:rgb(53%,27%,7%);fill-opacity:1;stroke-width:1;stroke-linecap:butt;stroke-linejoin:miter;stroke:rgb(0%,0%,0%);stroke-opacity:1;stroke-miterlimit:10;" d="M 197.214844 416 C 197.214844 427.714844 187.714844 437.214844 176 437.214844 C 164.285156 437.214844 154.785156 427.714844 154.785156 416 C 154.785156 404.285156 164.285156 394.785156 176 394.785156 C 187.714844 394.785156 197.214844 404.285156 197.214844 416 "/>
<path style="fill-rule:nonzero;fill:rgb(53%,27%,7%);fill-opacity:1;stroke-width:1;stroke-linecap:butt;stroke-linejoin:miter;stroke:rgb(0%,0%,0%);stroke-opacity:1;stroke-miterlimit:10;" d="M 948.214844 97 C 948.214844 108.714844 938.714844 118.214844 927 118.214844 C 915.285156 118.214844 905.785156 108.714844 905.785156 97 C 905.785156 85.285156 915.285156 75.785156 927 75.785156 C 938.714844 75.785156 948.214844 85.285156 948.214844 97 "/>
<path style="fill-rule:nonzero;fill:rgb(53%,27%,7%);fill-opacity:1;stroke-width:1;stroke-linecap:butt;stroke-linejoin:miter;stroke:rgb(0%,0%,0%);stroke-opacity:1;stroke-miterlimit:10;" d="M 568.214844 292 C 568.214844 303.714844 558.714844 313.214844 547 313.214844 C 535.285156 313.214844 525.785156 303.714844 525.785156 292 C 525.785156 280.285156 535.285156 270.785156 547 270.785156 C 558.714844 270.785156 568.214844 280.285156 568.214844 292 "/>
</g>
</svg>
