<?xml version="1.0" encoding="UTF-8"?>
<svg xmlns="http://www.w3.org/2000/svg" xmlns:xlink="http://www.w3.org/1999/xlink" width="1179pt" height="517pt" viewBox="0 0 1179 517" version="1.1">
<g id="surface631">
<rect x="0" y="0" width="1179" height="517" style="fill:rgb(90%,90%,90%);fill-opacity:1;stroke:none;"/>
<path style="fill-rule:nonzero;fill:rgb(100%,51%,0%);fill-opacity:1;stroke-width:1;stroke-linecap:butt;stroke-linejoin:miter;stroke:rgb(0%,0%,0%);stroke-opacity:1;stroke-miterlimit:10;" d="M 372 220 L 401.664062 220 L 413.664062 191.785156 L 425.664062 220 L 455.332031 220 L 431.332031 237.4375 L 439.417969 268.980469 L 413.664062 251.542969 L 387.914062 268.980469 L 400.214844 237.4375 L 372 220 "/>
<path style="fill-rule:nonzero;fill:rgb(100%,51%,0%);fill-opacity:1;stroke-width:1;stroke-linecap:butt;stroke-linejoin:miter;stroke:rgb(0%,0%,0%);stroke-opacity:1;stroke-miterlimit:10;" d="M 985 337 L 1014.664062 337 L 1026.664062 308.785156 L 1038.664062 337 L 1068.332031 337 L 1044.332031 354.4375 L 1052.417969 385.980469 L 1026.664062 368.542969 L 1000.914062 385.980469 L 1013.214844 354.4375 L 985 337 "/>
<path style="fill-rule:nonzero;fill:rgb(100%,51%,0%);fill-opacity:1;stroke-width:1;stroke-linecap:butt;stroke-linejoin:miter;stroke:rgb(0%,0%,0%);stroke-opacity:1;stroke-miterlimit:10;" d="M 270 345 L 299.664062 345 L 311.664062 316.785156 L 323.664062 345 L 353.332031 345 L 329.332031 362.4375 L 337.417969 393.980469 L 311.664062 376.542969 L 285.914062 393.980469 L 298.214844 362.4375 L 270 345 "/>
<path style="fill-rule:nonzero;fill:rgb(100%,51%,0%);fill-opacity:1;stroke-width:1;stroke-linecap:butt;stroke-linejoin:miter;stroke:rgb(0%,0%,0%);stroke-opacity:1;stroke-miterlimit:10;" d="M 570 293 L 599.664062 293 L 611.664062 264.785156 L 623.664062 293 L 653.332031 293 L 629.332031 310.4375 L 637.417969 341.980469 L 611.664062 324.542969 L 585.914062 341.980469 L 598.214844 310.4375 L 570 293 "/>
<path style="fill-rule:nonzero;fill:rgb(100%,51%,0%);fill-opacity:1;stroke-width:1;stroke-linecap:butt;stroke-linejoin:miter;stroke:rgb(0%,0%,0%);stroke-opacity:1;stroke-miterlimit:10;" d="M 640 98 L 669.664062 98 L 681.664062 69.785156 L 693.664062 98 L 723.332031 98 L 699.332031 115.4375 L 707.417969 146.980469 L 681.664062 129.542969 L 655.914062 146.980469 L 668.214844 115.4375 L 640 98 "/>
<path style="fill-rule:nonzero;fill:rgb(53%,27%,7%);fill-opacity:1;stroke-width:1;stroke-linecap:butt;stroke-linejoin:miter;stroke:rgb(0%,0%,0%);stroke-opacity:1;stroke-miterlimit:10;" d="M 838.214844 387 C 838.214844 398.714844 828.714844 408.214844 817 408.214844 C 805.285156 408.214844 795.785156 398.714844 795.785156 387 C 795.785156 375.285156 805.285156 365.785156 817 365.785156 C 828.714844 365.785156 838.214844 375.285156 838.214844 387 "/>
<path style="fill-rule:nonzero;fill:rgb(53%,27%,7%);fill-opacity:1;stroke-width:1;stroke-linecap:butt;stroke-linejoin:miter;stroke:rgb(0%,0%,0%);stroke-opacity:1;stroke-miterlimit:10;" d="M 155.214844 356 C 155.214844 367.714844 145.714844 377.214844 134 377.214844 C 122.285156 377.214844 112.785156 367.714844 112.785156 356 C 112.785156 344.285156 122.285156 334.785156 134 334.785156 C 145.714844 334.785156 155.214844 344.285156 155.214844 356 "/>
<path style="fill-rule:nonzero;fill:rgb(53%,27%,7%);fill-opacity:1;stroke-width:1;stroke-linecap:butt;stroke-linejoin:miter;stroke:rgb(0%,0%,0%);stroke-opacity:1;stroke-miterlimit:10;" d="M 645.214844 404 C 645.214844 415.714844 635.714844 425.214844 624 425.214844 C 612.285156 425.214844 602.785156 415.714844 602.785156 404 C 602.785156 392.285156 612.285156 382.785156 624 382.785156 C 635.714844 382.785156 645.214844 392.285156 645.214844 404 "/>
<path style="fill-rule:nonzero;fill:rgb(53%,27%,7%);fill-opacity:1;stroke-width:1;stroke-linecap:butt;stroke-linejoin:miter;stroke:rgb(0%,0%,0%);stroke-opacity:1;stroke-miterlimit:10;" d="M 776.214844 173 C 776.214844 184.714844 766.714844 194.214844 755 194.214844 C 743.285156 194.214844 733.785156 184.714844 733.785156 173 C 733.785156 161.285156 743.285156 151.785156 755 151.785156 C 766.714844 151.785156 776.214844 161.285156 776.214844 173 "/>
<path style="fill-rule:nonzero;fill:rgb(53%,27%,7%);fill-opacity:1;stroke-width:1;stroke-linecap:butt;stroke-linejoin:miter;stroke:rgb(0%,0%,0%);stroke-opacity:1;stroke-miterlimit:10;" d="M 507.214844 166 C 507.214844 177.714844 497.714844 187.214844 486 187.214844 C 474.285156 187.214844 464.785156 177.714844 464.785156 166 C 464.785156 154.285156 474.285156 144.785156 486 144.785156 C 497.714844 144.785156 507.214844 154.285156 507.214844 166 "/>
</g>
</svg>
