<?xml version="1.0" encoding="UTF-8"?>
<svg xmlns="http://www.w3.org/2000/svg" xmlns:xlink="http://www.w3.org/1999/xlink" width="1179pt" height="517pt" viewBox="0 0 1179 517" version="1.1">
<g id="surface1176">
<rect x="0" y="0" width="1179" height="517" style="fill:rgb(90%,90%,90%);fill-opacity:1;stroke:none;"/>
<path style="fill-rule:nonzero;fill:rgb(55%,51%,53%);fill-opacity:1;stroke-width:1;stroke-linecap:butt;stroke-linejoin:miter;stroke:rgb(0%,0%,0%);stroke-opacity:1;stroke-miterlimit:10;" d="M 581 221 L 555.019531 266 L 606.980469 266 L 581 221 "/>
<path style="fill-rule:nonzero;fill:rgb(55%,51%,53%);fill-opacity:1;stroke-width:1;stroke-linecap:butt;stroke-linejoin:miter;stroke:rgb(0%,0%,0%);stroke-opacity:1;stroke-miterlimit:10;" d="M 833 96 L 807.019531 141 L 858.980469 141 L 833 96 "/>
<path style="fill-rule:nonzero;fill:rgb(55%,51%,53%);fill-opacity:1;stroke-width:1;stroke-linecap:butt;stroke-linejoin:miter;stroke:rgb(0%,0%,0%);stroke-opacity:1;stroke-miterlimit:10;" d="M 105 61 L 79.019531 106 L 130.980469 106 L 105 61 "/>
<path style="fill-rule:nonzero;fill:rgb(55%,51%,53%);fill-opacity:1;stroke-width:1;stroke-linecap:butt;stroke-linejoin:miter;stroke:rgb(0%,0%,0%);stroke-opacity:1;stroke-miterlimit:10;" d="M 669 310 L 643.019531 355 L 694.980469 355 L 669 310 "/>
<path style="fill-rule:nonzero;fill:rgb(55%,51%,53%);fill-opacity:1;stroke-width:1;stroke-linecap:butt;stroke-linejoin:miter;stroke:rgb(0%,0%,0%);stroke-opacity:1;stroke-miterlimit:10;" d="M 941 351 L 915.019531 396 L 966.980469 396 L 941 351 "/>
<path style="fill-rule:nonzero;fill:rgb(35%,70%,90%);fill-opacity:1;stroke-width:1;stroke-linecap:butt;stroke-linejoin:miter;stroke:rgb(0%,0%,0%);stroke-opacity:1;stroke-miterlimit:10;" d="M 302 286 L 331.664062 286 L 343.664062 257.785156 L 355.664062 286 L 385.332031 286 L 361.332031 303.4375 L 369.417969 334.980469 L 343.664062 317.542969 L 317.914062 334.980469 L 330.214844 303.4375 L 302 286 "/>
<path style="fill-rule:nonzero;fill:rgb(35%,70%,90%);fill-opacity:1;stroke-width:1;stroke-linecap:butt;stroke-linejoin:miter;stroke:rgb(0%,0%,0%);stroke-opacity:1;stroke-miterlimit:10;" d="M 317 127 L 346.664062 127 L 358.664062 98.785156 L 370.664062 127 L 400.332031 127 L 376.332031 144.4375 L 384.417969 175.980469 L 358.664062 158.542969 L 332.914062 175.980469 L 345.214844 144.4375 L 317 127 "/>
<path style="fill-rule:nonzero;fill:rgb(35%,70%,90%);fill-opacity:1;stroke-width:1;stroke-linecap:butt;stroke-linejoin:miter;stroke:rgb(0%,0%,0%);stroke-opacity:1;stroke-miterlimit:10;" d="M 955 259 L 984.664062 259 L 996.664062 230.785156 L 1008.664062 259 L 1038.332031 259 L 1014.332031 276.4375 L 1022.417969 307.980469 L 996.664062 290.542969 L 970.914062 307.980469 L 983.214844 276.4375 L 955 259 "/>
<path style="fill-rule:nonzero;fill:rgb(35%,70%,90%);fill-opacity:1;stroke-width:1;stroke-linecap:butt;stroke-linejoin:miter;stroke:rgb(0%,0%,0%);stroke-opacity:1;stroke-miterlimit:10;" d="M 785 420 L 814.664062 420 L 826.664062 391.785156 L 838.664062 420 L 868.332031 420 L 844.332031 437.4375 L 852.417969 468.980469 L 826.664062 451.542969 L 800.914062 468.980469 L 813.214844 437.4375 L 785 420 "/>
</g>
</svg>
