<?xml version="1.0" encoding="UTF-8"?>
<svg xmlns="http://www.w3.org/2000/svg" xmlns:xlink="http://www.w3.org/1999/xlink" width="1179pt" height="517pt" viewBox="0 0 1179 517" version="1.1">
<g id="surface426">
<rect x="0" y="0" width="1179" height="517" style="fill:rgb(90%,90%,90%);fill-opacity:1;stroke:none;"/>
<path style="fill-rule:nonzero;fill:rgb(35%,70%,90%);fill-opacity:1;stroke-width:1;stroke-linecap:butt;stroke-linejoin:miter;stroke:rgb(0%,0%,0%);stroke-opacity:1;stroke-miterlimit:10;" d="M 375 314 L 404.664062 314 L 416.664062 285.785156 L 428.664062 314 L 458.332031 314 L 434.332031 331.4375 L 442.417969 362.980469 L 416.664062 345.542969 L 390.914062 362.980469 L 403.214844 331.4375 L 375 314 "/>
<path style="fill-rule:nonzero;fill:rgb(35%,70%,90%);fill-opacity:1;stroke-width:1;stroke-linecap:butt;stroke-linejoin:miter;stroke:rgb(0%,0%,0%);stroke-opacity:1;stroke-miterlimit:10;" d="M 753 85 L 782.664062 85 L 794.664062 56.785156 L 806.664062 85 L 836.332031 85 L 812.332031 102.4375 L 820.417969 133.980469 L 794.664062 116.542969 L 768.914062 133.980469 L 781.214844 102.4375 L 753 85 "/>
<path style="fill-rule:nonzero;fill:rgb(35%,70%,90%);fill-opacity:1;stroke-width:1;stroke-linecap:butt;stroke-linejoin:miter;stroke:rgb(0%,0%,0%);stroke-opacity:1;stroke-miterlimit:10;" d="M 89 360 L 118.664062 360 L 130.664062 331.785156 L 142.664062 360 L 172.332031 360 L 148.332031 377.4375 L 156.417969 408.980469 L 130.664062 391.542969 L 104.914062 408.980469 L 117.214844 377.4375 L 89 360 "/>
<path style="fill-rule:nonzero;fill:rgb(35%,70%,90%);fill-opacity:1;stroke-width:1;stroke-linecap:butt;stroke-linejoin:miter;stroke:rgb(0%,0%,0%);stroke-opacity:1;stroke-miterlimit:10;" d="M 654 187 L 683.664062 187 L 695.664062 158.785156 L 707.664062 187 L 737.332031 187 L 713.332031 204.4375 L 721.417969 235.980469 L 695.664062 218.542969 L 669.914062 235.980469 L 682.214844 204.4375 L 654 187 "/>
<path style="fill-rule:nonzero;fill:rgb(55%,51%,53%);fill-opacity:1;stroke-width:1;stroke-linecap:butt;stroke-linejoin:miter;stroke:rgb(0%,0%,0%);stroke-opacity:1;stroke-miterlimit:10;" d="M 683 383 L 657.019531 428 L 708.980469 428 L 683 383 "/>
<path style="fill-rule:nonzero;fill:rgb(55%,51%,53%);fill-opacity:1;stroke-width:1;stroke-linecap:butt;stroke-linejoin:miter;stroke:rgb(0%,0%,0%);stroke-opacity:1;stroke-miterlimit:10;" d="M 91 59 L 65.019531 104 L 116.980469 104 L 91 59 "/>
<path style="fill-rule:nonzero;fill:rgb(55%,51%,53%);fill-opacity:1;stroke-width:1;stroke-linecap:butt;stroke-linejoin:miter;stroke:rgb(0%,0%,0%);stroke-opacity:1;stroke-miterlimit:10;" d="M 945 159 L 919.019531 204 L 970.980469 204 L 945 159 "/>
<path style="fill-rule:nonzero;fill:rgb(55%,51%,53%);fill-opacity:1;stroke-width:1;stroke-linecap:butt;stroke-linejoin:miter;stroke:rgb(0%,0%,0%);stroke-opacity:1;stroke-miterlimit:10;" d="M 924 285 L 898.019531 330 L 949.980469 330 L 924 285 "/>
<path style="fill-rule:nonzero;fill:rgb(55%,51%,53%);fill-opacity:1;stroke-width:1;stroke-linecap:butt;stroke-linejoin:miter;stroke:rgb(0%,0%,0%);stroke-opacity:1;stroke-miterlimit:10;" d="M 379 54 L 353.019531 99 L 404.980469 99 L 379 54 "/>
</g>
</svg>
