<?xml version="1.0" encoding="UTF-8"?>
<svg xmlns="http://www.w3.org/2000/svg" xmlns:xlink="http://www.w3.org/1999/xlink" width="1179pt" height="517pt" viewBox="0 0 1179 517" version="1.1">
<g id="surface301">
<rect x="0" y="0" width="1179" height="517" style="fill:rgb(90%,90%,90%);fill-opacity:1;stroke:none;"/>
<path style="fill-rule:nonzero;fill:rgb(100%,51%,0%);fill-opacity:1;stroke-width:1;stroke-linecap:butt;stroke-linejoin:miter;stroke:rgb(0%,0%,0%);stroke-opacity:1;stroke-miterlimit:10;" d="M 702 212 L 731.664062 212 L 743.664062 183.785156 L 755.664062 212 L 785.332031 212 L 761.332031 229.4375 L 769.417969 260.980469 L 743.664062 243.542969 L 717.914062 260.980469 L 730.214844 229.4375 L 702 212 "/>
<path style="fill-rule:nonzero;fill:rgb(100%,51%,0%);fill-opacity:1;stroke-width:1;stroke-linecap:butt;stroke-linejoin:miter;stroke:rgb(0%,0%,0%);stroke-opacity:1;stroke-miterlimit:10;" d="M 979 204 L 1008.664062 204 L 1020.664062 175.785156 L 1032.664062 204 L 1062.332031 204 L 1038.332031 221.4375 L 1046.417969 252.980469 L 1020.664062 235.542969 L 994.914062 252.980469 L 1007.214844 221.4375 L 979 204 "/>
<path style="fill-rule:nonzero;fill:rgb(100%,51%,0%);fill-opacity:1;stroke-width:1;stroke-linecap:butt;stroke-linejoin:miter;stroke:rgb(0%,0%,0%);stroke-opacity:1;stroke-miterlimit:10;" d="M 553 372 L 582.664062 372 L 594.664062 343.785156 L 606.664062 372 L 636.332031 372 L 612.332031 389.4375 L 620.417969 420.980469 L 594.664062 403.542969 L 568.914062 420.980469 L 581.214844 389.4375 L 553 372 "/>
<path style="fill-rule:nonzero;fill:rgb(100%,51%,0%);fill-opacity:1;stroke-width:1;stroke-linecap:butt;stroke-linejoin:miter;stroke:rgb(0%,0%,0%);stroke-opacity:1;stroke-miterlimit:10;" d="M 727 330 L 756.664062 330 L 768.664062 301.785156 L 780.664062 330 L 810.332031 330 L 786.332031 347.4375 L 794.417969 378.980469 L 768.664062 361.542969 L 742.914062 378.980469 L 755.214844 347.4375 L 727 330 "/>
<path style="fill-rule:nonzero;fill:rgb(100%,51%,0%);fill-opacity:1;stroke-width:1;stroke-linecap:butt;stroke-linejoin:miter;stroke:rgb(0%,0%,0%);stroke-opacity:1;stroke-miterlimit:10;" d="M 842 373 L 871.664062 373 L 883.664062 344.785156 L 895.664062 373 L 925.332031 373 L 901.332031 390.4375 L 909.417969 421.980469 L 883.664062 404.542969 L 857.914062 421.980469 L 870.214844 390.4375 L 842 373 "/>
<path style="fill-rule:nonzero;fill:rgb(55%,51%,53%);fill-opacity:1;stroke-width:1;stroke-linecap:butt;stroke-linejoin:miter;stroke:rgb(0%,0%,0%);stroke-opacity:1;stroke-miterlimit:10;" d="M 986.214844 341 C 986.214844 352.714844 976.714844 362.214844 965 362.214844 C 953.285156 362.214844 943.785156 352.714844 943.785156 341 C 943.785156 329.285156 953.285156 319.785156 965 319.785156 C 976.714844 319.785156 986.214844 329.285156 986.214844 341 "/>
<path style="fill-rule:nonzero;fill:rgb(55%,51%,53%);fill-opacity:1;stroke-width:1;stroke-linecap:butt;stroke-linejoin:miter;stroke:rgb(0%,0%,0%);stroke-opacity:1;stroke-miterlimit:10;" d="M 272.214844 413 C 272.214844 424.714844 262.714844 434.214844 251 434.214844 C 239.285156 434.214844 229.785156 424.714844 229.785156 413 C 229.785156 401.285156 239.285156 391.785156 251 391.785156 C 262.714844 391.785156 272.214844 401.285156 272.214844 413 "/>
<path style="fill-rule:nonzero;fill:rgb(55%,51%,53%);fill-opacity:1;stroke-width:1;stroke-linecap:butt;stroke-linejoin:miter;stroke:rgb(0%,0%,0%);stroke-opacity:1;stroke-miterlimit:10;" d="M 847.214844 95 C 847.214844 106.714844 837.714844 116.214844 826 116.214844 C 814.285156 116.214844 804.785156 106.714844 804.785156 95 C 804.785156 83.285156 814.285156 73.785156 826 73.785156 C 837.714844 73.785156 847.214844 83.285156 847.214844 95 "/>
<path style="fill-rule:nonzero;fill:rgb(55%,51%,53%);fill-opacity:1;stroke-width:1;stroke-linecap:butt;stroke-linejoin:miter;stroke:rgb(0%,0%,0%);stroke-opacity:1;stroke-miterlimit:10;" d="M 252.214844 87 C 252.214844 98.714844 242.714844 108.214844 231 108.214844 C 219.285156 108.214844 209.785156 98.714844 209.785156 87 C 209.785156 75.285156 219.285156 65.785156 231 65.785156 C 242.714844 65.785156 252.214844 75.285156 252.214844 87 "/>
</g>
</svg>
