<?xml version="1.0" encoding="UTF-8"?>
<svg xmlns="http://www.w3.org/2000/svg" xmlns:xlink="http://www.w3.org/1999/xlink" width="1179pt" height="517pt" viewBox="0 0 1179 517" version="1.1">
<g id="surface1026">
<rect x="0" y="0" width="1179" height="517" style="fill:rgb(90%,90%,90%);fill-opacity:1;stroke:none;"/>
<path style="fill-rule:nonzero;fill:rgb(55%,51%,53%);fill-opacity:1;stroke-width:1;stroke-linecap:butt;stroke-linejoin:miter;stroke:rgb(0%,0%,0%);stroke-opacity:1;stroke-miterlimit:10;" d="M 259.214844 228 C 259.214844 239.714844 249.714844 249.214844 238 249.214844 C 226.285156 249.214844 216.785156 239.714844 216.785156 228 C 216.785156 216.285156 226.285156 206.785156 238 206.785156 C 249.714844 206.785156 259.214844 216.285156 259.214844 228 "/>
<path style="fill-rule:nonzero;fill:rgb(55%,51%,53%);fill-opacity:1;stroke-width:1;stroke-linecap:butt;stroke-linejoin:miter;stroke:rgb(0%,0%,0%);stroke-opacity:1;stroke-miterlimit:10;" d="M 464.214844 271 C 464.214844 282.714844 454.714844 292.214844 443 292.214844 C 431.285156 292.214844 421.785156 282.714844 421.785156 271 C 421.785156 259.285156 431.285156 249.785156 443 249.785156 C 454.714844 249.785156 464.214844 259.285156 464.214844 271 "/>
<path style="fill-rule:nonzero;fill:rgb(55%,51%,53%);fill-opacity:1;stroke-width:1;stroke-linecap:butt;stroke-linejoin:miter;stroke:rgb(0%,0%,0%);stroke-opacity:1;stroke-miterlimit:10;" d="M 373.214844 352 C 373.214844 363.714844 363.714844 373.214844 352 373.214844 C 340.285156 373.214844 330.785156 363.714844 330.785156 352 C 330.785156 340.285156 340.285156 330.785156 352 330.785156 C 363.714844 330.785156 373.214844 340.285156 373.214844 352 "/>
<path style="fill-rule:nonzero;fill:rgb(100%,51%,0%);fill-opacity:1;stroke-width:1;stroke-linecap:butt;stroke-linejoin:miter;stroke:rgb(0%,0%,0%);stroke-opacity:1;stroke-miterlimit:10;" d="M 937 189.601562 C 937 175.199219 913 175.199219 913 189.601562 C 913 204 937 206.398438 937 218.398438 C 937 206.398438 961 204 961 189.601562 C 961 175.199219 937 175.199219 937 189.601562 "/>
<path style="fill-rule:nonzero;fill:rgb(100%,51%,0%);fill-opacity:1;stroke-width:1;stroke-linecap:butt;stroke-linejoin:miter;stroke:rgb(0%,0%,0%);stroke-opacity:1;stroke-miterlimit:10;" d="M 622 113.601562 C 622 99.199219 598 99.199219 598 113.601562 C 598 128 622 130.398438 622 142.398438 C 622 130.398438 646 128 646 113.601562 C 646 99.199219 622 99.199219 622 113.601562 "/>
<path style="fill-rule:nonzero;fill:rgb(100%,51%,0%);fill-opacity:1;stroke-width:1;stroke-linecap:butt;stroke-linejoin:miter;stroke:rgb(0%,0%,0%);stroke-opacity:1;stroke-miterlimit:10;" d="M 217 386.601562 C 217 372.199219 193 372.199219 193 386.601562 C 193 401 217 403.398438 217 415.398438 C 217 403.398438 241 401 241 386.601562 C 241 372.199219 217 372.199219 217 386.601562 "/>
<path style="fill-rule:nonzero;fill:rgb(100%,51%,0%);fill-opacity:1;stroke-width:1;stroke-linecap:butt;stroke-linejoin:miter;stroke:rgb(0%,0%,0%);stroke-opacity:1;stroke-miterlimit:10;" d="M 95 229.601562 C 95 215.199219 71 215.199219 71 229.601562 C 71 244 95 246.398438 95 258.398438 C 95 246.398438 119 244 119 229.601562 C 119 215.199219 95 215.199219 95 229.601562 "/>
</g>
</svg>
