<?xml version="1.0" encoding="UTF-8"?>
<svg xmlns="http://www.w3.org/2000/svg" xmlns:xlink="http://www.w3.org/1999/xlink" width="1179pt" height="517pt" viewBox="0 0 1179 517" version="1.1">
<g id="surface551">
<rect x="0" y="0" width="1179" height="517" style="fill:rgb(90%,90%,90%);fill-opacity:1;stroke:none;"/>
<path style="fill-rule:nonzero;fill:rgb(35%,70%,90%);fill-opacity:1;stroke-width:1;stroke-linecap:butt;stroke-linejoin:miter;stroke:rgb(0%,0%,0%);stroke-opacity:1;stroke-miterlimit:10;" d="M 261 261 L 290.664062 261 L 302.664062 232.785156 L 314.664062 261 L 344.332031 261 L 320.332031 278.4375 L 328.417969 309.980469 L 302.664062 292.542969 L 276.914062 309.980469 L 289.214844 278.4375 L 261 261 "/>
<path style="fill-rule:nonzero;fill:rgb(35%,70%,90%);fill-opacity:1;stroke-width:1;stroke-linecap:butt;stroke-linejoin:miter;stroke:rgb(0%,0%,0%);stroke-opacity:1;stroke-miterlimit:10;" d="M 233 423 L 262.664062 423 L 274.664062 394.785156 L 286.664062 423 L 316.332031 423 L 292.332031 440.4375 L 300.417969 471.980469 L 274.664062 454.542969 L 248.914062 471.980469 L 261.214844 440.4375 L 233 423 "/>
<path style="fill-rule:nonzero;fill:rgb(100%,51%,0%);fill-opacity:1;stroke-width:1;stroke-linecap:butt;stroke-linejoin:miter;stroke:rgb(0%,0%,0%);stroke-opacity:1;stroke-miterlimit:10;" d="M 326 126 L 355.664062 126 L 367.664062 97.785156 L 379.664062 126 L 409.332031 126 L 385.332031 143.4375 L 393.417969 174.980469 L 367.664062 157.542969 L 341.914062 174.980469 L 354.214844 143.4375 L 326 126 "/>
<path style="fill-rule:nonzero;fill:rgb(100%,51%,0%);fill-opacity:1;stroke-width:1;stroke-linecap:butt;stroke-linejoin:miter;stroke:rgb(0%,0%,0%);stroke-opacity:1;stroke-miterlimit:10;" d="M 401 319 L 430.664062 319 L 442.664062 290.785156 L 454.664062 319 L 484.332031 319 L 460.332031 336.4375 L 468.417969 367.980469 L 442.664062 350.542969 L 416.914062 367.980469 L 429.214844 336.4375 L 401 319 "/>
<path style="fill-rule:nonzero;fill:rgb(100%,51%,0%);fill-opacity:1;stroke-width:1;stroke-linecap:butt;stroke-linejoin:miter;stroke:rgb(0%,0%,0%);stroke-opacity:1;stroke-miterlimit:10;" d="M 908.785156 169.785156 L 908.785156 212.214844 L 951.214844 212.214844 L 951.214844 169.785156 L 908.785156 169.785156 "/>
<path style="fill-rule:nonzero;fill:rgb(100%,51%,0%);fill-opacity:1;stroke-width:1;stroke-linecap:butt;stroke-linejoin:miter;stroke:rgb(0%,0%,0%);stroke-opacity:1;stroke-miterlimit:10;" d="M 693.785156 203.785156 L 693.785156 246.214844 L 736.214844 246.214844 L 736.214844 203.785156 L 693.785156 203.785156 "/>
<path style="fill-rule:nonzero;fill:rgb(35%,70%,90%);fill-opacity:1;stroke-width:1;stroke-linecap:butt;stroke-linejoin:miter;stroke:rgb(0%,0%,0%);stroke-opacity:1;stroke-miterlimit:10;" d="M 987.785156 123.785156 L 987.785156 166.214844 L 1030.214844 166.214844 L 1030.214844 123.785156 L 987.785156 123.785156 "/>
<path style="fill-rule:nonzero;fill:rgb(35%,70%,90%);fill-opacity:1;stroke-width:1;stroke-linecap:butt;stroke-linejoin:miter;stroke:rgb(0%,0%,0%);stroke-opacity:1;stroke-miterlimit:10;" d="M 870.785156 284.785156 L 870.785156 327.214844 L 913.214844 327.214844 L 913.214844 284.785156 L 870.785156 284.785156 "/>
</g>
</svg>
