<?xml version="1.0" encoding="UTF-8"?>
<svg xmlns="http://www.w3.org/2000/svg" xmlns:xlink="http://www.w3.org/1999/xlink" width="1179pt" height="517pt" viewBox="0 0 1179 517" version="1.1">
<g id="surface761">
<rect x="0" y="0" width="1179" height="517" style="fill:rgb(90%,90%,90%);fill-opacity:1;stroke:none;"/>
<path style="fill-rule:nonzero;fill:rgb(53%,27%,7%);fill-opacity:1;stroke-width:1;stroke-linecap:butt;stroke-linejoin:miter;stroke:rgb(0%,0%,0%);stroke-opacity:1;stroke-miterlimit:10;" d="M 282 306.601562 C 282 292.199219 258 292.199219 258 306.601562 C 258 321 282 323.398438 282 335.398438 C 282 323.398438 306 321 306 306.601562 C 306 292.199219 282 292.199219 282 306.601562 "/>
<path style="fill-rule:nonzero;fill:rgb(53%,27%,7%);fill-opacity:1;stroke-width:1;stroke-linecap:butt;stroke-linejoin:miter;stroke:rgb(0%,0%,0%);stroke-opacity:1;stroke-miterlimit:10;" d="M 363 212.601562 C 363 198.199219 339 198.199219 339 212.601562 C 339 227 363 229.398438 363 241.398438 C 363 229.398438 387 227 387 212.601562 C 387 198.199219 363 198.199219 363 212.601562 "/>
<path style="fill-rule:nonzero;fill:rgb(53%,27%,7%);fill-opacity:1;stroke-width:1;stroke-linecap:butt;stroke-linejoin:miter;stroke:rgb(0%,0%,0%);stroke-opacity:1;stroke-miterlimit:10;" d="M 206.214844 384 C 206.214844 395.714844 196.714844 405.214844 185 405.214844 C 173.285156 405.214844 163.785156 395.714844 163.785156 384 C 163.785156 372.285156 173.285156 362.785156 185 362.785156 C 196.714844 362.785156 206.214844 372.285156 206.214844 384 "/>
<path style="fill-rule:nonzero;fill:rgb(53%,27%,7%);fill-opacity:1;stroke-width:1;stroke-linecap:butt;stroke-linejoin:miter;stroke:rgb(0%,0%,0%);stroke-opacity:1;stroke-miterlimit:10;" d="M 101.214844 155 C 101.214844 166.714844 91.714844 176.214844 80 176.214844 C 68.285156 176.214844 58.785156 166.714844 58.785156 155 C 58.785156 143.285156 68.285156 133.785156 80 133.785156 C 91.714844 133.785156 101.214844 143.285156 101.214844 155 "/>
<path style="fill-rule:nonzero;fill:rgb(53%,27%,7%);fill-opacity:1;stroke-width:1;stroke-linecap:butt;stroke-linejoin:miter;stroke:rgb(0%,0%,0%);stroke-opacity:1;stroke-miterlimit:10;" d="M 206 223.601562 C 206 209.199219 182 209.199219 182 223.601562 C 182 238 206 240.398438 206 252.398438 C 206 240.398438 230 238 230 223.601562 C 230 209.199219 206 209.199219 206 223.601562 "/>
<path style="fill-rule:nonzero;fill:rgb(100%,51%,0%);fill-opacity:1;stroke-width:1;stroke-linecap:butt;stroke-linejoin:miter;stroke:rgb(0%,0%,0%);stroke-opacity:1;stroke-miterlimit:10;" d="M 854.214844 238 C 854.214844 249.714844 844.714844 259.214844 833 259.214844 C 821.285156 259.214844 811.785156 249.714844 811.785156 238 C 811.785156 226.285156 821.285156 216.785156 833 216.785156 C 844.714844 216.785156 854.214844 226.285156 854.214844 238 "/>
<path style="fill-rule:nonzero;fill:rgb(100%,51%,0%);fill-opacity:1;stroke-width:1;stroke-linecap:butt;stroke-linejoin:miter;stroke:rgb(0%,0%,0%);stroke-opacity:1;stroke-miterlimit:10;" d="M 1054.214844 225 C 1054.214844 236.714844 1044.714844 246.214844 1033 246.214844 C 1021.285156 246.214844 1011.785156 236.714844 1011.785156 225 C 1011.785156 213.285156 1021.285156 203.785156 1033 203.785156 C 1044.714844 203.785156 1054.214844 213.285156 1054.214844 225 "/>
<path style="fill-rule:nonzero;fill:rgb(100%,51%,0%);fill-opacity:1;stroke-width:1;stroke-linecap:butt;stroke-linejoin:miter;stroke:rgb(0%,0%,0%);stroke-opacity:1;stroke-miterlimit:10;" d="M 901 403.601562 C 901 389.199219 877 389.199219 877 403.601562 C 877 418 901 420.398438 901 432.398438 C 901 420.398438 925 418 925 403.601562 C 925 389.199219 901 389.199219 901 403.601562 "/>
<path style="fill-rule:nonzero;fill:rgb(100%,51%,0%);fill-opacity:1;stroke-width:1;stroke-linecap:butt;stroke-linejoin:miter;stroke:rgb(0%,0%,0%);stroke-opacity:1;stroke-miterlimit:10;" d="M 906 88.601562 C 906 74.199219 882 74.199219 882 88.601562 C 882 103 906 105.398438 906 117.398438 C 906 105.398438 930 103 930 88.601562 C 930 74.199219 906 74.199219 906 88.601562 "/>
</g>
</svg>
