<?xml version="1.0" encoding="UTF-8"?>
<svg xmlns="http://www.w3.org/2000/svg" xmlns:xlink="http://www.w3.org/1999/xlink" width="1179pt" height="517pt" viewBox="0 0 1179 517" version="1.1">
<g id="surface796">
<rect x="0" y="0" width="1179" height="517" style="fill:rgb(90%,90%,90%);fill-opacity:1;stroke:none;"/>
<path style="fill-rule:nonzero;fill:rgb(55%,51%,53%);fill-opacity:1;stroke-width:1;stroke-linecap:butt;stroke-linejoin:miter;stroke:rgb(0%,0%,0%);stroke-opacity:1;stroke-miterlimit:10;" d="M 398.214844 332 C 398.214844 343.714844 388.714844 353.214844 377 353.214844 C 365.285156 353.214844 355.785156 343.714844 355.785156 332 C 355.785156 320.285156 365.285156 310.785156 377 310.785156 C 388.714844 310.785156 398.214844 320.285156 398.214844 332 "/>
<path style="fill-rule:nonzero;fill:rgb(67%,100%,18%);fill-opacity:1;stroke-width:1;stroke-linecap:butt;stroke-linejoin:miter;stroke:rgb(0%,0%,0%);stroke-opacity:1;stroke-miterlimit:10;" d="M 202.214844 210 C 202.214844 221.714844 192.714844 231.214844 181 231.214844 C 169.285156 231.214844 159.785156 221.714844 159.785156 210 C 159.785156 198.285156 169.285156 188.785156 181 188.785156 C 192.714844 188.785156 202.214844 198.285156 202.214844 210 "/>
<path style="fill-rule:nonzero;fill:rgb(55%,51%,53%);fill-opacity:1;stroke-width:1;stroke-linecap:butt;stroke-linejoin:miter;stroke:rgb(0%,0%,0%);stroke-opacity:1;stroke-miterlimit:10;" d="M 121.214844 266 C 121.214844 277.714844 111.714844 287.214844 100 287.214844 C 88.285156 287.214844 78.785156 277.714844 78.785156 266 C 78.785156 254.285156 88.285156 244.785156 100 244.785156 C 111.714844 244.785156 121.214844 254.285156 121.214844 266 "/>
<path style="fill-rule:nonzero;fill:rgb(67%,100%,18%);fill-opacity:1;stroke-width:1;stroke-linecap:butt;stroke-linejoin:miter;stroke:rgb(0%,0%,0%);stroke-opacity:1;stroke-miterlimit:10;" d="M 342.214844 206 C 342.214844 217.714844 332.714844 227.214844 321 227.214844 C 309.285156 227.214844 299.785156 217.714844 299.785156 206 C 299.785156 194.285156 309.285156 184.785156 321 184.785156 C 332.714844 184.785156 342.214844 194.285156 342.214844 206 "/>
<path style="fill-rule:nonzero;fill:rgb(55%,51%,53%);fill-opacity:1;stroke-width:1;stroke-linecap:butt;stroke-linejoin:miter;stroke:rgb(0%,0%,0%);stroke-opacity:1;stroke-miterlimit:10;" d="M 102.214844 382 C 102.214844 393.714844 92.714844 403.214844 81 403.214844 C 69.285156 403.214844 59.785156 393.714844 59.785156 382 C 59.785156 370.285156 69.285156 360.785156 81 360.785156 C 92.714844 360.785156 102.214844 370.285156 102.214844 382 "/>
<path style="fill-rule:nonzero;fill:rgb(55%,51%,53%);fill-opacity:1;stroke-width:1;stroke-linecap:butt;stroke-linejoin:miter;stroke:rgb(0%,0%,0%);stroke-opacity:1;stroke-miterlimit:10;" d="M 303.214844 389 C 303.214844 400.714844 293.714844 410.214844 282 410.214844 C 270.285156 410.214844 260.785156 400.714844 260.785156 389 C 260.785156 377.285156 270.285156 367.785156 282 367.785156 C 293.714844 367.785156 303.214844 377.285156 303.214844 389 "/>
<path style="fill-rule:nonzero;fill:rgb(55%,51%,53%);fill-opacity:1;stroke-width:1;stroke-linecap:butt;stroke-linejoin:miter;stroke:rgb(0%,0%,0%);stroke-opacity:1;stroke-miterlimit:10;" d="M 240.214844 321 C 240.214844 332.714844 230.714844 342.214844 219 342.214844 C 207.285156 342.214844 197.785156 332.714844 197.785156 321 C 197.785156 309.285156 207.285156 299.785156 219 299.785156 C 230.714844 299.785156 240.214844 309.285156 240.214844 321 "/>
<path style="fill-rule:nonzero;fill:rgb(55%,51%,53%);fill-opacity:1;stroke-width:1;stroke-linecap:butt;stroke-linejoin:miter;stroke:rgb(0%,0%,0%);stroke-opacity:1;stroke-miterlimit:10;" d="M 112.214844 95 C 112.214844 106.714844 102.714844 116.214844 91 116.214844 C 79.285156 116.214844 69.785156 106.714844 69.785156 95 C 69.785156 83.285156 79.285156 73.785156 91 73.785156 C 102.714844 73.785156 112.214844 83.285156 112.214844 95 "/>
<path style="fill-rule:nonzero;fill:rgb(67%,100%,18%);fill-opacity:1;stroke-width:1;stroke-linecap:butt;stroke-linejoin:miter;stroke:rgb(0%,0%,0%);stroke-opacity:1;stroke-miterlimit:10;" d="M 882 85 L 856.019531 130 L 907.980469 130 L 882 85 "/>
<path style="fill-rule:nonzero;fill:rgb(55%,51%,53%);fill-opacity:1;stroke-width:1;stroke-linecap:butt;stroke-linejoin:miter;stroke:rgb(0%,0%,0%);stroke-opacity:1;stroke-miterlimit:10;" d="M 1043 243 L 1017.019531 288 L 1068.980469 288 L 1043 243 "/>
<path style="fill-rule:nonzero;fill:rgb(67%,100%,18%);fill-opacity:1;stroke-width:1;stroke-linecap:butt;stroke-linejoin:miter;stroke:rgb(0%,0%,0%);stroke-opacity:1;stroke-miterlimit:10;" d="M 713 66 L 687.019531 111 L 738.980469 111 L 713 66 "/>
<path style="fill-rule:nonzero;fill:rgb(55%,51%,53%);fill-opacity:1;stroke-width:1;stroke-linecap:butt;stroke-linejoin:miter;stroke:rgb(0%,0%,0%);stroke-opacity:1;stroke-miterlimit:10;" d="M 795 283 L 769.019531 328 L 820.980469 328 L 795 283 "/>
<path style="fill-rule:nonzero;fill:rgb(67%,100%,18%);fill-opacity:1;stroke-width:1;stroke-linecap:butt;stroke-linejoin:miter;stroke:rgb(0%,0%,0%);stroke-opacity:1;stroke-miterlimit:10;" d="M 1034 101 L 1008.019531 146 L 1059.980469 146 L 1034 101 "/>
<path style="fill-rule:nonzero;fill:rgb(67%,100%,18%);fill-opacity:1;stroke-width:1;stroke-linecap:butt;stroke-linejoin:miter;stroke:rgb(0%,0%,0%);stroke-opacity:1;stroke-miterlimit:10;" d="M 918 281 L 892.019531 326 L 943.980469 326 L 918 281 "/>
</g>
</svg>
