<?xml version="1.0" encoding="UTF-8"?>
<svg xmlns="http://www.w3.org/2000/svg" xmlns:xlink="http://www.w3.org/1999/xlink" width="1179pt" height="517pt" viewBox="0 0 1179 517" version="1.1">
<g id="surface1506">
<rect x="0" y="0" width="1179" height="517" style="fill:rgb(90%,90%,90%);fill-opacity:1;stroke:none;"/>
<path style="fill-rule:nonzero;fill:rgb(35%,70%,90%);fill-opacity:1;stroke-width:1;stroke-linecap:butt;stroke-linejoin:miter;stroke:rgb(0%,0%,0%);stroke-opacity:1;stroke-miterlimit:10;" d="M 907 264 L 936.664062 264 L 948.664062 235.785156 L 960.664062 264 L 990.332031 264 L 966.332031 281.4375 L 974.417969 312.980469 L 948.664062 295.542969 L 922.914062 312.980469 L 935.214844 281.4375 L 907 264 "/>
<path style="fill-rule:nonzero;fill:rgb(35%,70%,90%);fill-opacity:1;stroke-width:1;stroke-linecap:butt;stroke-linejoin:miter;stroke:rgb(0%,0%,0%);stroke-opacity:1;stroke-miterlimit:10;" d="M 714 254 L 743.664062 254 L 755.664062 225.785156 L 767.664062 254 L 797.332031 254 L 773.332031 271.4375 L 781.417969 302.980469 L 755.664062 285.542969 L 729.914062 302.980469 L 742.214844 271.4375 L 714 254 "/>
<path style="fill-rule:nonzero;fill:rgb(35%,70%,90%);fill-opacity:1;stroke-width:1;stroke-linecap:butt;stroke-linejoin:miter;stroke:rgb(0%,0%,0%);stroke-opacity:1;stroke-miterlimit:10;" d="M 551 225 L 580.664062 225 L 592.664062 196.785156 L 604.664062 225 L 634.332031 225 L 610.332031 242.4375 L 618.417969 273.980469 L 592.664062 256.542969 L 566.914062 273.980469 L 579.214844 242.4375 L 551 225 "/>
<path style="fill-rule:nonzero;fill:rgb(100%,51%,0%);fill-opacity:1;stroke-width:1;stroke-linecap:butt;stroke-linejoin:miter;stroke:rgb(0%,0%,0%);stroke-opacity:1;stroke-miterlimit:10;" d="M 906 73.601562 C 906 59.199219 882 59.199219 882 73.601562 C 882 88 906 90.398438 906 102.398438 C 906 90.398438 930 88 930 73.601562 C 930 59.199219 906 59.199219 906 73.601562 "/>
<path style="fill-rule:nonzero;fill:rgb(100%,51%,0%);fill-opacity:1;stroke-width:1;stroke-linecap:butt;stroke-linejoin:miter;stroke:rgb(0%,0%,0%);stroke-opacity:1;stroke-miterlimit:10;" d="M 145 336.601562 C 145 322.199219 121 322.199219 121 336.601562 C 121 351 145 353.398438 145 365.398438 C 145 353.398438 169 351 169 336.601562 C 169 322.199219 145 322.199219 145 336.601562 "/>
<path style="fill-rule:nonzero;fill:rgb(100%,51%,0%);fill-opacity:1;stroke-width:1;stroke-linecap:butt;stroke-linejoin:miter;stroke:rgb(0%,0%,0%);stroke-opacity:1;stroke-miterlimit:10;" d="M 1021 358.601562 C 1021 344.199219 997 344.199219 997 358.601562 C 997 373 1021 375.398438 1021 387.398438 C 1021 375.398438 1045 373 1045 358.601562 C 1045 344.199219 1021 344.199219 1021 358.601562 "/>
<path style="fill-rule:nonzero;fill:rgb(100%,51%,0%);fill-opacity:1;stroke-width:1;stroke-linecap:butt;stroke-linejoin:miter;stroke:rgb(0%,0%,0%);stroke-opacity:1;stroke-miterlimit:10;" d="M 427 411.601562 C 427 397.199219 403 397.199219 403 411.601562 C 403 426 427 428.398438 427 440.398438 C 427 428.398438 451 426 451 411.601562 C 451 397.199219 427 397.199219 427 411.601562 "/>
<path style="fill-rule:nonzero;fill:rgb(100%,51%,0%);fill-opacity:1;stroke-width:1;stroke-linecap:butt;stroke-linejoin:miter;stroke:rgb(0%,0%,0%);stroke-opacity:1;stroke-miterlimit:10;" d="M 904 389.601562 C 904 375.199219 880 375.199219 880 389.601562 C 880 404 904 406.398438 904 418.398438 C 904 406.398438 928 404 928 389.601562 C 928 375.199219 904 375.199219 904 389.601562 "/>
</g>
</svg>
