<?xml version="1.0" encoding="UTF-8"?>
<svg xmlns="http://www.w3.org/2000/svg" xmlns:xlink="http://www.w3.org/1999/xlink" width="1179pt" height="517pt" viewBox="0 0 1179 517" version="1.1">
<g id="surface486">
<rect x="0" y="0" width="1179" height="517" style="fill:rgb(90%,90%,90%);fill-opacity:1;stroke:none;"/>
<path style="fill-rule:nonzero;fill:rgb(100%,51%,0%);fill-opacity:1;stroke-width:1;stroke-linecap:butt;stroke-linejoin:miter;stroke:rgb(0%,0%,0%);stroke-opacity:1;stroke-miterlimit:10;" d="M 830 360 L 859.664062 360 L 871.664062 331.785156 L 883.664062 360 L 913.332031 360 L 889.332031 377.4375 L 897.417969 408.980469 L 871.664062 391.542969 L 845.914062 408.980469 L 858.214844 377.4375 L 830 360 "/>
<path style="fill-rule:nonzero;fill:rgb(100%,51%,0%);fill-opacity:1;stroke-width:1;stroke-linecap:butt;stroke-linejoin:miter;stroke:rgb(0%,0%,0%);stroke-opacity:1;stroke-miterlimit:10;" d="M 203 119 L 232.664062 119 L 244.664062 90.785156 L 256.664062 119 L 286.332031 119 L 262.332031 136.4375 L 270.417969 167.980469 L 244.664062 150.542969 L 218.914062 167.980469 L 231.214844 136.4375 L 203 119 "/>
<path style="fill-rule:nonzero;fill:rgb(100%,51%,0%);fill-opacity:1;stroke-width:1;stroke-linecap:butt;stroke-linejoin:miter;stroke:rgb(0%,0%,0%);stroke-opacity:1;stroke-miterlimit:10;" d="M 662 164 L 691.664062 164 L 703.664062 135.785156 L 715.664062 164 L 745.332031 164 L 721.332031 181.4375 L 729.417969 212.980469 L 703.664062 195.542969 L 677.914062 212.980469 L 690.214844 181.4375 L 662 164 "/>
<path style="fill-rule:nonzero;fill:rgb(100%,51%,0%);fill-opacity:1;stroke-width:1;stroke-linecap:butt;stroke-linejoin:miter;stroke:rgb(0%,0%,0%);stroke-opacity:1;stroke-miterlimit:10;" d="M 816 135 L 845.664062 135 L 857.664062 106.785156 L 869.664062 135 L 899.332031 135 L 875.332031 152.4375 L 883.417969 183.980469 L 857.664062 166.542969 L 831.914062 183.980469 L 844.214844 152.4375 L 816 135 "/>
<path style="fill-rule:nonzero;fill:rgb(55%,51%,53%);fill-opacity:1;stroke-width:1;stroke-linecap:butt;stroke-linejoin:miter;stroke:rgb(0%,0%,0%);stroke-opacity:1;stroke-miterlimit:10;" d="M 429 90 L 403.019531 135 L 454.980469 135 L 429 90 "/>
<path style="fill-rule:nonzero;fill:rgb(55%,51%,53%);fill-opacity:1;stroke-width:1;stroke-linecap:butt;stroke-linejoin:miter;stroke:rgb(0%,0%,0%);stroke-opacity:1;stroke-miterlimit:10;" d="M 574 352 L 548.019531 397 L 599.980469 397 L 574 352 "/>
<path style="fill-rule:nonzero;fill:rgb(55%,51%,53%);fill-opacity:1;stroke-width:1;stroke-linecap:butt;stroke-linejoin:miter;stroke:rgb(0%,0%,0%);stroke-opacity:1;stroke-miterlimit:10;" d="M 132 259 L 106.019531 304 L 157.980469 304 L 132 259 "/>
</g>
</svg>
