<?xml version="1.0" encoding="UTF-8"?>
<svg xmlns="http://www.w3.org/2000/svg" xmlns:xlink="http://www.w3.org/1999/xlink" width="1179pt" height="517pt" viewBox="0 0 1179 517" version="1.1">
<g id="surface1191">
<rect x="0" y="0" width="1179" height="517" style="fill:rgb(90%,90%,90%);fill-opacity:1;stroke:none;"/>
<path style="fill-rule:nonzero;fill:rgb(35%,70%,90%);fill-opacity:1;stroke-width:1;stroke-linecap:butt;stroke-linejoin:miter;stroke:rgb(0%,0%,0%);stroke-opacity:1;stroke-miterlimit:10;" d="M 135.214844 358 C 135.214844 369.714844 125.714844 379.214844 114 379.214844 C 102.285156 379.214844 92.785156 369.714844 92.785156 358 C 92.785156 346.285156 102.285156 336.785156 114 336.785156 C 125.714844 336.785156 135.214844 346.285156 135.214844 358 "/>
<path style="fill-rule:nonzero;fill:rgb(35%,70%,90%);fill-opacity:1;stroke-width:1;stroke-linecap:butt;stroke-linejoin:miter;stroke:rgb(0%,0%,0%);stroke-opacity:1;stroke-miterlimit:10;" d="M 976.214844 142 C 976.214844 153.714844 966.714844 163.214844 955 163.214844 C 943.285156 163.214844 933.785156 153.714844 933.785156 142 C 933.785156 130.285156 943.285156 120.785156 955 120.785156 C 966.714844 120.785156 976.214844 130.285156 976.214844 142 "/>
<path style="fill-rule:nonzero;fill:rgb(35%,70%,90%);fill-opacity:1;stroke-width:1;stroke-linecap:butt;stroke-linejoin:miter;stroke:rgb(0%,0%,0%);stroke-opacity:1;stroke-miterlimit:10;" d="M 164.214844 150 C 164.214844 161.714844 154.714844 171.214844 143 171.214844 C 131.285156 171.214844 121.785156 161.714844 121.785156 150 C 121.785156 138.285156 131.285156 128.785156 143 128.785156 C 154.714844 128.785156 164.214844 138.285156 164.214844 150 "/>
<path style="fill-rule:nonzero;fill:rgb(35%,70%,90%);fill-opacity:1;stroke-width:1;stroke-linecap:butt;stroke-linejoin:miter;stroke:rgb(0%,0%,0%);stroke-opacity:1;stroke-miterlimit:10;" d="M 271.214844 94 C 271.214844 105.714844 261.714844 115.214844 250 115.214844 C 238.285156 115.214844 228.785156 105.714844 228.785156 94 C 228.785156 82.285156 238.285156 72.785156 250 72.785156 C 261.714844 72.785156 271.214844 82.285156 271.214844 94 "/>
<path style="fill-rule:nonzero;fill:rgb(100%,51%,0%);fill-opacity:1;stroke-width:1;stroke-linecap:butt;stroke-linejoin:miter;stroke:rgb(0%,0%,0%);stroke-opacity:1;stroke-miterlimit:10;" d="M 453 83 L 427.019531 128 L 478.980469 128 L 453 83 "/>
<path style="fill-rule:nonzero;fill:rgb(100%,51%,0%);fill-opacity:1;stroke-width:1;stroke-linecap:butt;stroke-linejoin:miter;stroke:rgb(0%,0%,0%);stroke-opacity:1;stroke-miterlimit:10;" d="M 574 175 L 548.019531 220 L 599.980469 220 L 574 175 "/>
<path style="fill-rule:nonzero;fill:rgb(100%,51%,0%);fill-opacity:1;stroke-width:1;stroke-linecap:butt;stroke-linejoin:miter;stroke:rgb(0%,0%,0%);stroke-opacity:1;stroke-miterlimit:10;" d="M 991 348 L 965.019531 393 L 1016.980469 393 L 991 348 "/>
<path style="fill-rule:nonzero;fill:rgb(100%,51%,0%);fill-opacity:1;stroke-width:1;stroke-linecap:butt;stroke-linejoin:miter;stroke:rgb(0%,0%,0%);stroke-opacity:1;stroke-miterlimit:10;" d="M 515 306 L 489.019531 351 L 540.980469 351 L 515 306 "/>
</g>
</svg>
