<?xml version="1.0" encoding="UTF-8"?>
<svg xmlns="http://www.w3.org/2000/svg" xmlns:xlink="http://www.w3.org/1999/xlink" width="1179pt" height="517pt" viewBox="0 0 1179 517" version="1.1">
<g id="surface51">
<rect x="0" y="0" width="1179" height="517" style="fill:rgb(90%,90%,90%);fill-opacity:1;stroke:none;"/>
<path style="fill-rule:nonzero;fill:rgb(35%,70%,90%);fill-opacity:1;stroke-width:1;stroke-linecap:butt;stroke-linejoin:miter;stroke:rgb(0%,0%,0%);stroke-opacity:1;stroke-miterlimit:10;" d="M 368.214844 192 C 368.214844 203.714844 358.714844 213.214844 347 213.214844 C 335.285156 213.214844 325.785156 203.714844 325.785156 192 C 325.785156 180.285156 335.285156 170.785156 347 170.785156 C 358.714844 170.785156 368.214844 180.285156 368.214844 192 "/>
<path style="fill-rule:nonzero;fill:rgb(53%,27%,7%);fill-opacity:1;stroke-width:1;stroke-linecap:butt;stroke-linejoin:miter;stroke:rgb(0%,0%,0%);stroke-opacity:1;stroke-miterlimit:10;" d="M 219.214844 348 C 219.214844 359.714844 209.714844 369.214844 198 369.214844 C 186.285156 369.214844 176.785156 359.714844 176.785156 348 C 176.785156 336.285156 186.285156 326.785156 198 326.785156 C 209.714844 326.785156 219.214844 336.285156 219.214844 348 "/>
<path style="fill-rule:nonzero;fill:rgb(53%,27%,7%);fill-opacity:1;stroke-width:1;stroke-linecap:butt;stroke-linejoin:miter;stroke:rgb(0%,0%,0%);stroke-opacity:1;stroke-miterlimit:10;" d="M 350.214844 302 C 350.214844 313.714844 340.714844 323.214844 329 323.214844 C 317.285156 323.214844 307.785156 313.714844 307.785156 302 C 307.785156 290.285156 317.285156 280.785156 329 280.785156 C 340.714844 280.785156 350.214844 290.285156 350.214844 302 "/>
<path style="fill-rule:nonzero;fill:rgb(35%,70%,90%);fill-opacity:1;stroke-width:1;stroke-linecap:butt;stroke-linejoin:miter;stroke:rgb(0%,0%,0%);stroke-opacity:1;stroke-miterlimit:10;" d="M 135.214844 155 C 135.214844 166.714844 125.714844 176.214844 114 176.214844 C 102.285156 176.214844 92.785156 166.714844 92.785156 155 C 92.785156 143.285156 102.285156 133.785156 114 133.785156 C 125.714844 133.785156 135.214844 143.285156 135.214844 155 "/>
<path style="fill-rule:nonzero;fill:rgb(35%,70%,90%);fill-opacity:1;stroke-width:1;stroke-linecap:butt;stroke-linejoin:miter;stroke:rgb(0%,0%,0%);stroke-opacity:1;stroke-miterlimit:10;" d="M 214.214844 203 C 214.214844 214.714844 204.714844 224.214844 193 224.214844 C 181.285156 224.214844 171.785156 214.714844 171.785156 203 C 171.785156 191.285156 181.285156 181.785156 193 181.785156 C 204.714844 181.785156 214.214844 191.285156 214.214844 203 "/>
<path style="fill-rule:nonzero;fill:rgb(53%,27%,7%);fill-opacity:1;stroke-width:1;stroke-linecap:butt;stroke-linejoin:miter;stroke:rgb(0%,0%,0%);stroke-opacity:1;stroke-miterlimit:10;" d="M 909.785156 94.785156 L 909.785156 137.214844 L 952.214844 137.214844 L 952.214844 94.785156 L 909.785156 94.785156 "/>
<path style="fill-rule:nonzero;fill:rgb(35%,70%,90%);fill-opacity:1;stroke-width:1;stroke-linecap:butt;stroke-linejoin:miter;stroke:rgb(0%,0%,0%);stroke-opacity:1;stroke-miterlimit:10;" d="M 748.785156 264.785156 L 748.785156 307.214844 L 791.214844 307.214844 L 791.214844 264.785156 L 748.785156 264.785156 "/>
<path style="fill-rule:nonzero;fill:rgb(35%,70%,90%);fill-opacity:1;stroke-width:1;stroke-linecap:butt;stroke-linejoin:miter;stroke:rgb(0%,0%,0%);stroke-opacity:1;stroke-miterlimit:10;" d="M 1010.785156 184.785156 L 1010.785156 227.214844 L 1053.214844 227.214844 L 1053.214844 184.785156 L 1010.785156 184.785156 "/>
<path style="fill-rule:nonzero;fill:rgb(53%,27%,7%);fill-opacity:1;stroke-width:1;stroke-linecap:butt;stroke-linejoin:miter;stroke:rgb(0%,0%,0%);stroke-opacity:1;stroke-miterlimit:10;" d="M 822.785156 409.785156 L 822.785156 452.214844 L 865.214844 452.214844 L 865.214844 409.785156 L 822.785156 409.785156 "/>
<path style="fill-rule:nonzero;fill:rgb(53%,27%,7%);fill-opacity:1;stroke-width:1;stroke-linecap:butt;stroke-linejoin:miter;stroke:rgb(0%,0%,0%);stroke-opacity:1;stroke-miterlimit:10;" d="M 959.785156 264.785156 L 959.785156 307.214844 L 1002.214844 307.214844 L 1002.214844 264.785156 L 959.785156 264.785156 "/>
</g>
</svg>
