<?xml version="1.0" encoding="UTF-8"?>
<svg xmlns="http://www.w3.org/2000/svg" xmlns:xlink="http://www.w3.org/1999/xlink" width="1179pt" height="517pt" viewBox="0 0 1179 517" version="1.1">
<g id="surface871">
<rect x="0" y="0" width="1179" height="517" style="fill:rgb(90%,90%,90%);fill-opacity:1;stroke:none;"/>
<path style="fill-rule:nonzero;fill:rgb(53%,27%,7%);fill-opacity:1;stroke-width:1;stroke-linecap:butt;stroke-linejoin:miter;stroke:rgb(0%,0%,0%);stroke-opacity:1;stroke-miterlimit:10;" d="M 784 339 L 813.664062 339 L 825.664062 310.785156 L 837.664062 339 L 867.332031 339 L 843.332031 356.4375 L 851.417969 387.980469 L 825.664062 370.542969 L 799.914062 387.980469 L 812.214844 356.4375 L 784 339 "/>
<path style="fill-rule:nonzero;fill:rgb(53%,27%,7%);fill-opacity:1;stroke-width:1;stroke-linecap:butt;stroke-linejoin:miter;stroke:rgb(0%,0%,0%);stroke-opacity:1;stroke-miterlimit:10;" d="M 376 375 L 405.664062 375 L 417.664062 346.785156 L 429.664062 375 L 459.332031 375 L 435.332031 392.4375 L 443.417969 423.980469 L 417.664062 406.542969 L 391.914062 423.980469 L 404.214844 392.4375 L 376 375 "/>
<path style="fill-rule:nonzero;fill:rgb(53%,27%,7%);fill-opacity:1;stroke-width:1;stroke-linecap:butt;stroke-linejoin:miter;stroke:rgb(0%,0%,0%);stroke-opacity:1;stroke-miterlimit:10;" d="M 210 276 L 239.664062 276 L 251.664062 247.785156 L 263.664062 276 L 293.332031 276 L 269.332031 293.4375 L 277.417969 324.980469 L 251.664062 307.542969 L 225.914062 324.980469 L 238.214844 293.4375 L 210 276 "/>
<path style="fill-rule:nonzero;fill:rgb(53%,27%,7%);fill-opacity:1;stroke-width:1;stroke-linecap:butt;stroke-linejoin:miter;stroke:rgb(0%,0%,0%);stroke-opacity:1;stroke-miterlimit:10;" d="M 928 157 L 957.664062 157 L 969.664062 128.785156 L 981.664062 157 L 1011.332031 157 L 987.332031 174.4375 L 995.417969 205.980469 L 969.664062 188.542969 L 943.914062 205.980469 L 956.214844 174.4375 L 928 157 "/>
<path style="fill-rule:nonzero;fill:rgb(53%,27%,7%);fill-opacity:1;stroke-width:1;stroke-linecap:butt;stroke-linejoin:miter;stroke:rgb(0%,0%,0%);stroke-opacity:1;stroke-miterlimit:10;" d="M 793 109 L 822.664062 109 L 834.664062 80.785156 L 846.664062 109 L 876.332031 109 L 852.332031 126.4375 L 860.417969 157.980469 L 834.664062 140.542969 L 808.914062 157.980469 L 821.214844 126.4375 L 793 109 "/>
<path style="fill-rule:nonzero;fill:rgb(55%,51%,53%);fill-opacity:1;stroke-width:1;stroke-linecap:butt;stroke-linejoin:miter;stroke:rgb(0%,0%,0%);stroke-opacity:1;stroke-miterlimit:10;" d="M 1010 378 L 1039.664062 378 L 1051.664062 349.785156 L 1063.664062 378 L 1093.332031 378 L 1069.332031 395.4375 L 1077.417969 426.980469 L 1051.664062 409.542969 L 1025.914062 426.980469 L 1038.214844 395.4375 L 1010 378 "/>
<path style="fill-rule:nonzero;fill:rgb(55%,51%,53%);fill-opacity:1;stroke-width:1;stroke-linecap:butt;stroke-linejoin:miter;stroke:rgb(0%,0%,0%);stroke-opacity:1;stroke-miterlimit:10;" d="M 302 197 L 331.664062 197 L 343.664062 168.785156 L 355.664062 197 L 385.332031 197 L 361.332031 214.4375 L 369.417969 245.980469 L 343.664062 228.542969 L 317.914062 245.980469 L 330.214844 214.4375 L 302 197 "/>
<path style="fill-rule:nonzero;fill:rgb(55%,51%,53%);fill-opacity:1;stroke-width:1;stroke-linecap:butt;stroke-linejoin:miter;stroke:rgb(0%,0%,0%);stroke-opacity:1;stroke-miterlimit:10;" d="M 569 203 L 598.664062 203 L 610.664062 174.785156 L 622.664062 203 L 652.332031 203 L 628.332031 220.4375 L 636.417969 251.980469 L 610.664062 234.542969 L 584.914062 251.980469 L 597.214844 220.4375 L 569 203 "/>
</g>
</svg>
