<?xml version="1.0" encoding="UTF-8"?>
<svg xmlns="http://www.w3.org/2000/svg" xmlns:xlink="http://www.w3.org/1999/xlink" width="1179pt" height="517pt" viewBox="0 0 1179 517" version="1.1">
<g id="surface1411">
<rect x="0" y="0" width="1179" height="517" style="fill:rgb(90%,90%,90%);fill-opacity:1;stroke:none;"/>
<path style="fill-rule:nonzero;fill:rgb(53%,27%,7%);fill-opacity:1;stroke-width:1;stroke-linecap:butt;stroke-linejoin:miter;stroke:rgb(0%,0%,0%);stroke-opacity:1;stroke-miterlimit:10;" d="M 1024.214844 365 C 1024.214844 376.714844 1014.714844 386.214844 1003 386.214844 C 991.285156 386.214844 981.785156 376.714844 981.785156 365 C 981.785156 353.285156 991.285156 343.785156 1003 343.785156 C 1014.714844 343.785156 1024.214844 353.285156 1024.214844 365 "/>
<path style="fill-rule:nonzero;fill:rgb(53%,27%,7%);fill-opacity:1;stroke-width:1;stroke-linecap:butt;stroke-linejoin:miter;stroke:rgb(0%,0%,0%);stroke-opacity:1;stroke-miterlimit:10;" d="M 749.214844 396 C 749.214844 407.714844 739.714844 417.214844 728 417.214844 C 716.285156 417.214844 706.785156 407.714844 706.785156 396 C 706.785156 384.285156 716.285156 374.785156 728 374.785156 C 739.714844 374.785156 749.214844 384.285156 749.214844 396 "/>
<path style="fill-rule:nonzero;fill:rgb(53%,27%,7%);fill-opacity:1;stroke-width:1;stroke-linecap:butt;stroke-linejoin:miter;stroke:rgb(0%,0%,0%);stroke-opacity:1;stroke-miterlimit:10;" d="M 564.214844 199 C 564.214844 210.714844 554.714844 220.214844 543 220.214844 C 531.285156 220.214844 521.785156 210.714844 521.785156 199 C 521.785156 187.285156 531.285156 177.785156 543 177.785156 C 554.714844 177.785156 564.214844 187.285156 564.214844 199 "/>
<path style="fill-rule:nonzero;fill:rgb(53%,27%,7%);fill-opacity:1;stroke-width:1;stroke-linecap:butt;stroke-linejoin:miter;stroke:rgb(0%,0%,0%);stroke-opacity:1;stroke-miterlimit:10;" d="M 138.214844 415 C 138.214844 426.714844 128.714844 436.214844 117 436.214844 C 105.285156 436.214844 95.785156 426.714844 95.785156 415 C 95.785156 403.285156 105.285156 393.785156 117 393.785156 C 128.714844 393.785156 138.214844 403.285156 138.214844 415 "/>
<path style="fill-rule:nonzero;fill:rgb(55%,51%,53%);fill-opacity:1;stroke-width:1;stroke-linecap:butt;stroke-linejoin:miter;stroke:rgb(0%,0%,0%);stroke-opacity:1;stroke-miterlimit:10;" d="M 801 126 L 775.019531 171 L 826.980469 171 L 801 126 "/>
<path style="fill-rule:nonzero;fill:rgb(55%,51%,53%);fill-opacity:1;stroke-width:1;stroke-linecap:butt;stroke-linejoin:miter;stroke:rgb(0%,0%,0%);stroke-opacity:1;stroke-miterlimit:10;" d="M 387 391 L 361.019531 436 L 412.980469 436 L 387 391 "/>
<path style="fill-rule:nonzero;fill:rgb(55%,51%,53%);fill-opacity:1;stroke-width:1;stroke-linecap:butt;stroke-linejoin:miter;stroke:rgb(0%,0%,0%);stroke-opacity:1;stroke-miterlimit:10;" d="M 972 92 L 946.019531 137 L 997.980469 137 L 972 92 "/>
</g>
</svg>
