<?xml version="1.0" encoding="UTF-8"?>
<svg xmlns="http://www.w3.org/2000/svg" xmlns:xlink="http://www.w3.org/1999/xlink" width="1179pt" height="517pt" viewBox="0 0 1179 517" version="1.1">
<g id="surface201">
<rect x="0" y="0" width="1179" height="517" style="fill:rgb(90%,90%,90%);fill-opacity:1;stroke:none;"/>
<path style="fill-rule:nonzero;fill:rgb(35%,70%,90%);fill-opacity:1;stroke-width:1;stroke-linecap:butt;stroke-linejoin:miter;stroke:rgb(0%,0%,0%);stroke-opacity:1;stroke-miterlimit:10;" d="M 221.214844 274 C 221.214844 285.714844 211.714844 295.214844 200 295.214844 C 188.285156 295.214844 178.785156 285.714844 178.785156 274 C 178.785156 262.285156 188.285156 252.785156 200 252.785156 C 211.714844 252.785156 221.214844 262.285156 221.214844 274 "/>
<path style="fill-rule:nonzero;fill:rgb(35%,70%,90%);fill-opacity:1;stroke-width:1;stroke-linecap:butt;stroke-linejoin:miter;stroke:rgb(0%,0%,0%);stroke-opacity:1;stroke-miterlimit:10;" d="M 397.785156 138.785156 L 397.785156 181.214844 L 440.214844 181.214844 L 440.214844 138.785156 L 397.785156 138.785156 "/>
<path style="fill-rule:nonzero;fill:rgb(35%,70%,90%);fill-opacity:1;stroke-width:1;stroke-linecap:butt;stroke-linejoin:miter;stroke:rgb(0%,0%,0%);stroke-opacity:1;stroke-miterlimit:10;" d="M 307.214844 370 C 307.214844 381.714844 297.714844 391.214844 286 391.214844 C 274.285156 391.214844 264.785156 381.714844 264.785156 370 C 264.785156 358.285156 274.285156 348.785156 286 348.785156 C 297.714844 348.785156 307.214844 358.285156 307.214844 370 "/>
<path style="fill-rule:nonzero;fill:rgb(35%,70%,90%);fill-opacity:1;stroke-width:1;stroke-linecap:butt;stroke-linejoin:miter;stroke:rgb(0%,0%,0%);stroke-opacity:1;stroke-miterlimit:10;" d="M 138.214844 204 C 138.214844 215.714844 128.714844 225.214844 117 225.214844 C 105.285156 225.214844 95.785156 215.714844 95.785156 204 C 95.785156 192.285156 105.285156 182.785156 117 182.785156 C 128.714844 182.785156 138.214844 192.285156 138.214844 204 "/>
<path style="fill-rule:nonzero;fill:rgb(100%,51%,0%);fill-opacity:1;stroke-width:1;stroke-linecap:butt;stroke-linejoin:miter;stroke:rgb(0%,0%,0%);stroke-opacity:1;stroke-miterlimit:10;" d="M 747.785156 61.785156 L 747.785156 104.214844 L 790.214844 104.214844 L 790.214844 61.785156 L 747.785156 61.785156 "/>
<path style="fill-rule:nonzero;fill:rgb(100%,51%,0%);fill-opacity:1;stroke-width:1;stroke-linecap:butt;stroke-linejoin:miter;stroke:rgb(0%,0%,0%);stroke-opacity:1;stroke-miterlimit:10;" d="M 1049.214844 112 C 1049.214844 123.714844 1039.714844 133.214844 1028 133.214844 C 1016.285156 133.214844 1006.785156 123.714844 1006.785156 112 C 1006.785156 100.285156 1016.285156 90.785156 1028 90.785156 C 1039.714844 90.785156 1049.214844 100.285156 1049.214844 112 "/>
<path style="fill-rule:nonzero;fill:rgb(100%,51%,0%);fill-opacity:1;stroke-width:1;stroke-linecap:butt;stroke-linejoin:miter;stroke:rgb(0%,0%,0%);stroke-opacity:1;stroke-miterlimit:10;" d="M 831.785156 138.785156 L 831.785156 181.214844 L 874.214844 181.214844 L 874.214844 138.785156 L 831.785156 138.785156 "/>
</g>
</svg>
