<?xml version="1.0" encoding="UTF-8"?>
<svg xmlns="http://www.w3.org/2000/svg" xmlns:xlink="http://www.w3.org/1999/xlink" width="1179pt" height="517pt" viewBox="0 0 1179 517" version="1.1">
<g id="surface751">
<rect x="0" y="0" width="1179" height="517" style="fill:rgb(90%,90%,90%);fill-opacity:1;stroke:none;"/>
<path style="fill-rule:nonzero;fill:rgb(55%,51%,53%);fill-opacity:1;stroke-width:1;stroke-linecap:butt;stroke-linejoin:miter;stroke:rgb(0%,0%,0%);stroke-opacity:1;stroke-miterlimit:10;" d="M 111.214844 361 C 111.214844 372.714844 101.714844 382.214844 90 382.214844 C 78.285156 382.214844 68.785156 372.714844 68.785156 361 C 68.785156 349.285156 78.285156 339.785156 90 339.785156 C 101.714844 339.785156 111.214844 349.285156 111.214844 361 "/>
<path style="fill-rule:nonzero;fill:rgb(55%,51%,53%);fill-opacity:1;stroke-width:1;stroke-linecap:butt;stroke-linejoin:miter;stroke:rgb(0%,0%,0%);stroke-opacity:1;stroke-miterlimit:10;" d="M 271.214844 423 C 271.214844 434.714844 261.714844 444.214844 250 444.214844 C 238.285156 444.214844 228.785156 434.714844 228.785156 423 C 228.785156 411.285156 238.285156 401.785156 250 401.785156 C 261.714844 401.785156 271.214844 411.285156 271.214844 423 "/>
<path style="fill-rule:nonzero;fill:rgb(67%,100%,18%);fill-opacity:1;stroke-width:1;stroke-linecap:butt;stroke-linejoin:miter;stroke:rgb(0%,0%,0%);stroke-opacity:1;stroke-miterlimit:10;" d="M 214.214844 338 C 214.214844 349.714844 204.714844 359.214844 193 359.214844 C 181.285156 359.214844 171.785156 349.714844 171.785156 338 C 171.785156 326.285156 181.285156 316.785156 193 316.785156 C 204.714844 316.785156 214.214844 326.285156 214.214844 338 "/>
<path style="fill-rule:nonzero;fill:rgb(67%,100%,18%);fill-opacity:1;stroke-width:1;stroke-linecap:butt;stroke-linejoin:miter;stroke:rgb(0%,0%,0%);stroke-opacity:1;stroke-miterlimit:10;" d="M 759 358 L 733.019531 403 L 784.980469 403 L 759 358 "/>
<path style="fill-rule:nonzero;fill:rgb(67%,100%,18%);fill-opacity:1;stroke-width:1;stroke-linecap:butt;stroke-linejoin:miter;stroke:rgb(0%,0%,0%);stroke-opacity:1;stroke-miterlimit:10;" d="M 816 149 L 790.019531 194 L 841.980469 194 L 816 149 "/>
<path style="fill-rule:nonzero;fill:rgb(55%,51%,53%);fill-opacity:1;stroke-width:1;stroke-linecap:butt;stroke-linejoin:miter;stroke:rgb(0%,0%,0%);stroke-opacity:1;stroke-miterlimit:10;" d="M 987 244 L 961.019531 289 L 1012.980469 289 L 987 244 "/>
<path style="fill-rule:nonzero;fill:rgb(55%,51%,53%);fill-opacity:1;stroke-width:1;stroke-linecap:butt;stroke-linejoin:miter;stroke:rgb(0%,0%,0%);stroke-opacity:1;stroke-miterlimit:10;" d="M 879 84 L 853.019531 129 L 904.980469 129 L 879 84 "/>
</g>
</svg>
