<?xml version="1.0" encoding="UTF-8"?>
<svg xmlns="http://www.w3.org/2000/svg" xmlns:xlink="http://www.w3.org/1999/xlink" width="1179pt" height="517pt" viewBox="0 0 1179 517" version="1.1">
<g id="surface471">
<rect x="0" y="0" width="1179" height="517" style="fill:rgb(90%,90%,90%);fill-opacity:1;stroke:none;"/>
<path style="fill-rule:nonzero;fill:rgb(100%,51%,0%);fill-opacity:1;stroke-width:1;stroke-linecap:butt;stroke-linejoin:miter;stroke:rgb(0%,0%,0%);stroke-opacity:1;stroke-miterlimit:10;" d="M 263.214844 200 C 263.214844 211.714844 253.714844 221.214844 242 221.214844 C 230.285156 221.214844 220.785156 211.714844 220.785156 200 C 220.785156 188.285156 230.285156 178.785156 242 178.785156 C 253.714844 178.785156 263.214844 188.285156 263.214844 200 "/>
<path style="fill-rule:nonzero;fill:rgb(100%,51%,0%);fill-opacity:1;stroke-width:1;stroke-linecap:butt;stroke-linejoin:miter;stroke:rgb(0%,0%,0%);stroke-opacity:1;stroke-miterlimit:10;" d="M 303.214844 99 C 303.214844 110.714844 293.714844 120.214844 282 120.214844 C 270.285156 120.214844 260.785156 110.714844 260.785156 99 C 260.785156 87.285156 270.285156 77.785156 282 77.785156 C 293.714844 77.785156 303.214844 87.285156 303.214844 99 "/>
<path style="fill-rule:nonzero;fill:rgb(100%,51%,0%);fill-opacity:1;stroke-width:1;stroke-linecap:butt;stroke-linejoin:miter;stroke:rgb(0%,0%,0%);stroke-opacity:1;stroke-miterlimit:10;" d="M 315.214844 290 C 315.214844 301.714844 305.714844 311.214844 294 311.214844 C 282.285156 311.214844 272.785156 301.714844 272.785156 290 C 272.785156 278.285156 282.285156 268.785156 294 268.785156 C 305.714844 268.785156 315.214844 278.285156 315.214844 290 "/>
<path style="fill-rule:nonzero;fill:rgb(53%,27%,7%);fill-opacity:1;stroke-width:1;stroke-linecap:butt;stroke-linejoin:miter;stroke:rgb(0%,0%,0%);stroke-opacity:1;stroke-miterlimit:10;" d="M 219.214844 327 C 219.214844 338.714844 209.714844 348.214844 198 348.214844 C 186.285156 348.214844 176.785156 338.714844 176.785156 327 C 176.785156 315.285156 186.285156 305.785156 198 305.785156 C 209.714844 305.785156 219.214844 315.285156 219.214844 327 "/>
<path style="fill-rule:nonzero;fill:rgb(100%,51%,0%);fill-opacity:1;stroke-width:1;stroke-linecap:butt;stroke-linejoin:miter;stroke:rgb(0%,0%,0%);stroke-opacity:1;stroke-miterlimit:10;" d="M 406.214844 87 C 406.214844 98.714844 396.714844 108.214844 385 108.214844 C 373.285156 108.214844 363.785156 98.714844 363.785156 87 C 363.785156 75.285156 373.285156 65.785156 385 65.785156 C 396.714844 65.785156 406.214844 75.285156 406.214844 87 "/>
<path style="fill-rule:nonzero;fill:rgb(53%,27%,7%);fill-opacity:1;stroke-width:1;stroke-linecap:butt;stroke-linejoin:miter;stroke:rgb(0%,0%,0%);stroke-opacity:1;stroke-miterlimit:10;" d="M 713.785156 271.785156 L 713.785156 314.214844 L 756.214844 314.214844 L 756.214844 271.785156 L 713.785156 271.785156 "/>
<path style="fill-rule:nonzero;fill:rgb(53%,27%,7%);fill-opacity:1;stroke-width:1;stroke-linecap:butt;stroke-linejoin:miter;stroke:rgb(0%,0%,0%);stroke-opacity:1;stroke-miterlimit:10;" d="M 1012.785156 316.785156 L 1012.785156 359.214844 L 1055.214844 359.214844 L 1055.214844 316.785156 L 1012.785156 316.785156 "/>
<path style="fill-rule:nonzero;fill:rgb(53%,27%,7%);fill-opacity:1;stroke-width:1;stroke-linecap:butt;stroke-linejoin:miter;stroke:rgb(0%,0%,0%);stroke-opacity:1;stroke-miterlimit:10;" d="M 851.785156 203.785156 L 851.785156 246.214844 L 894.214844 246.214844 L 894.214844 203.785156 L 851.785156 203.785156 "/>
<path style="fill-rule:nonzero;fill:rgb(100%,51%,0%);fill-opacity:1;stroke-width:1;stroke-linecap:butt;stroke-linejoin:miter;stroke:rgb(0%,0%,0%);stroke-opacity:1;stroke-miterlimit:10;" d="M 997.785156 173.785156 L 997.785156 216.214844 L 1040.214844 216.214844 L 1040.214844 173.785156 L 997.785156 173.785156 "/>
</g>
</svg>
