<?xml version="1.0" encoding="UTF-8"?>
<svg xmlns="http://www.w3.org/2000/svg" xmlns:xlink="http://www.w3.org/1999/xlink" width="1179pt" height="517pt" viewBox="0 0 1179 517" version="1.1">
<g id="surface376">
<rect x="0" y="0" width="1179" height="517" style="fill:rgb(90%,90%,90%);fill-opacity:1;stroke:none;"/>
<path style="fill-rule:nonzero;fill:rgb(35%,70%,90%);fill-opacity:1;stroke-width:1;stroke-linecap:butt;stroke-linejoin:miter;stroke:rgb(0%,0%,0%);stroke-opacity:1;stroke-miterlimit:10;" d="M 337.214844 97 C 337.214844 108.714844 327.714844 118.214844 316 118.214844 C 304.285156 118.214844 294.785156 108.714844 294.785156 97 C 294.785156 85.285156 304.285156 75.785156 316 75.785156 C 327.714844 75.785156 337.214844 85.285156 337.214844 97 "/>
<path style="fill-rule:nonzero;fill:rgb(35%,70%,90%);fill-opacity:1;stroke-width:1;stroke-linecap:butt;stroke-linejoin:miter;stroke:rgb(0%,0%,0%);stroke-opacity:1;stroke-miterlimit:10;" d="M 130.214844 295 C 130.214844 306.714844 120.714844 316.214844 109 316.214844 C 97.285156 316.214844 87.785156 306.714844 87.785156 295 C 87.785156 283.285156 97.285156 273.785156 109 273.785156 C 120.714844 273.785156 130.214844 283.285156 130.214844 295 "/>
<path style="fill-rule:nonzero;fill:rgb(35%,70%,90%);fill-opacity:1;stroke-width:1;stroke-linecap:butt;stroke-linejoin:miter;stroke:rgb(0%,0%,0%);stroke-opacity:1;stroke-miterlimit:10;" d="M 136 116 L 110.019531 161 L 161.980469 161 L 136 116 "/>
<path style="fill-rule:nonzero;fill:rgb(35%,70%,90%);fill-opacity:1;stroke-width:1;stroke-linecap:butt;stroke-linejoin:miter;stroke:rgb(0%,0%,0%);stroke-opacity:1;stroke-miterlimit:10;" d="M 234 387 L 208.019531 432 L 259.980469 432 L 234 387 "/>
<path style="fill-rule:nonzero;fill:rgb(35%,70%,90%);fill-opacity:1;stroke-width:1;stroke-linecap:butt;stroke-linejoin:miter;stroke:rgb(0%,0%,0%);stroke-opacity:1;stroke-miterlimit:10;" d="M 436.214844 295 C 436.214844 306.714844 426.714844 316.214844 415 316.214844 C 403.285156 316.214844 393.785156 306.714844 393.785156 295 C 393.785156 283.285156 403.285156 273.785156 415 273.785156 C 426.714844 273.785156 436.214844 283.285156 436.214844 295 "/>
<path style="fill-rule:nonzero;fill:rgb(100%,51%,0%);fill-opacity:1;stroke-width:1;stroke-linecap:butt;stroke-linejoin:miter;stroke:rgb(0%,0%,0%);stroke-opacity:1;stroke-miterlimit:10;" d="M 976 149 L 950.019531 194 L 1001.980469 194 L 976 149 "/>
<path style="fill-rule:nonzero;fill:rgb(100%,51%,0%);fill-opacity:1;stroke-width:1;stroke-linecap:butt;stroke-linejoin:miter;stroke:rgb(0%,0%,0%);stroke-opacity:1;stroke-miterlimit:10;" d="M 885 135 L 859.019531 180 L 910.980469 180 L 885 135 "/>
<path style="fill-rule:nonzero;fill:rgb(100%,51%,0%);fill-opacity:1;stroke-width:1;stroke-linecap:butt;stroke-linejoin:miter;stroke:rgb(0%,0%,0%);stroke-opacity:1;stroke-miterlimit:10;" d="M 793.214844 243 C 793.214844 254.714844 783.714844 264.214844 772 264.214844 C 760.285156 264.214844 750.785156 254.714844 750.785156 243 C 750.785156 231.285156 760.285156 221.785156 772 221.785156 C 783.714844 221.785156 793.214844 231.285156 793.214844 243 "/>
<path style="fill-rule:nonzero;fill:rgb(100%,51%,0%);fill-opacity:1;stroke-width:1;stroke-linecap:butt;stroke-linejoin:miter;stroke:rgb(0%,0%,0%);stroke-opacity:1;stroke-miterlimit:10;" d="M 952.214844 270 C 952.214844 281.714844 942.714844 291.214844 931 291.214844 C 919.285156 291.214844 909.785156 281.714844 909.785156 270 C 909.785156 258.285156 919.285156 248.785156 931 248.785156 C 942.714844 248.785156 952.214844 258.285156 952.214844 270 "/>
</g>
</svg>
