<?xml version="1.0" encoding="UTF-8"?>
<svg xmlns="http://www.w3.org/2000/svg" xmlns:xlink="http://www.w3.org/1999/xlink" width="1179pt" height="517pt" viewBox="0 0 1179 517" version="1.1">
<g id="surface1276">
<rect x="0" y="0" width="1179" height="517" style="fill:rgb(90%,90%,90%);fill-opacity:1;stroke:none;"/>
<path style="fill-rule:nonzero;fill:rgb(100%,51%,0%);fill-opacity:1;stroke-width:1;stroke-linecap:butt;stroke-linejoin:miter;stroke:rgb(0%,0%,0%);stroke-opacity:1;stroke-miterlimit:10;" d="M 985 166 L 1014.664062 166 L 1026.664062 137.785156 L 1038.664062 166 L 1068.332031 166 L 1044.332031 183.4375 L 1052.417969 214.980469 L 1026.664062 197.542969 L 1000.914062 214.980469 L 1013.214844 183.4375 L 985 166 "/>
<path style="fill-rule:nonzero;fill:rgb(100%,51%,0%);fill-opacity:1;stroke-width:1;stroke-linecap:butt;stroke-linejoin:miter;stroke:rgb(0%,0%,0%);stroke-opacity:1;stroke-miterlimit:10;" d="M 372 89 L 401.664062 89 L 413.664062 60.785156 L 425.664062 89 L 455.332031 89 L 431.332031 106.4375 L 439.417969 137.980469 L 413.664062 120.542969 L 387.914062 137.980469 L 400.214844 106.4375 L 372 89 "/>
<path style="fill-rule:nonzero;fill:rgb(100%,51%,0%);fill-opacity:1;stroke-width:1;stroke-linecap:butt;stroke-linejoin:miter;stroke:rgb(0%,0%,0%);stroke-opacity:1;stroke-miterlimit:10;" d="M 815 238 L 844.664062 238 L 856.664062 209.785156 L 868.664062 238 L 898.332031 238 L 874.332031 255.4375 L 882.417969 286.980469 L 856.664062 269.542969 L 830.914062 286.980469 L 843.214844 255.4375 L 815 238 "/>
<path style="fill-rule:nonzero;fill:rgb(100%,51%,0%);fill-opacity:1;stroke-width:1;stroke-linecap:butt;stroke-linejoin:miter;stroke:rgb(0%,0%,0%);stroke-opacity:1;stroke-miterlimit:10;" d="M 594 409 L 623.664062 409 L 635.664062 380.785156 L 647.664062 409 L 677.332031 409 L 653.332031 426.4375 L 661.417969 457.980469 L 635.664062 440.542969 L 609.914062 457.980469 L 622.214844 426.4375 L 594 409 "/>
<path style="fill-rule:nonzero;fill:rgb(53%,27%,7%);fill-opacity:1;stroke-width:1;stroke-linecap:butt;stroke-linejoin:miter;stroke:rgb(0%,0%,0%);stroke-opacity:1;stroke-miterlimit:10;" d="M 750.214844 373 C 750.214844 384.714844 740.714844 394.214844 729 394.214844 C 717.285156 394.214844 707.785156 384.714844 707.785156 373 C 707.785156 361.285156 717.285156 351.785156 729 351.785156 C 740.714844 351.785156 750.214844 361.285156 750.214844 373 "/>
<path style="fill-rule:nonzero;fill:rgb(53%,27%,7%);fill-opacity:1;stroke-width:1;stroke-linecap:butt;stroke-linejoin:miter;stroke:rgb(0%,0%,0%);stroke-opacity:1;stroke-miterlimit:10;" d="M 447.214844 301 C 447.214844 312.714844 437.714844 322.214844 426 322.214844 C 414.285156 322.214844 404.785156 312.714844 404.785156 301 C 404.785156 289.285156 414.285156 279.785156 426 279.785156 C 437.714844 279.785156 447.214844 289.285156 447.214844 301 "/>
<path style="fill-rule:nonzero;fill:rgb(53%,27%,7%);fill-opacity:1;stroke-width:1;stroke-linecap:butt;stroke-linejoin:miter;stroke:rgb(0%,0%,0%);stroke-opacity:1;stroke-miterlimit:10;" d="M 341.214844 211 C 341.214844 222.714844 331.714844 232.214844 320 232.214844 C 308.285156 232.214844 298.785156 222.714844 298.785156 211 C 298.785156 199.285156 308.285156 189.785156 320 189.785156 C 331.714844 189.785156 341.214844 199.285156 341.214844 211 "/>
<path style="fill-rule:nonzero;fill:rgb(53%,27%,7%);fill-opacity:1;stroke-width:1;stroke-linecap:butt;stroke-linejoin:miter;stroke:rgb(0%,0%,0%);stroke-opacity:1;stroke-miterlimit:10;" d="M 560.214844 189 C 560.214844 200.714844 550.714844 210.214844 539 210.214844 C 527.285156 210.214844 517.785156 200.714844 517.785156 189 C 517.785156 177.285156 527.285156 167.785156 539 167.785156 C 550.714844 167.785156 560.214844 177.285156 560.214844 189 "/>
<path style="fill-rule:nonzero;fill:rgb(53%,27%,7%);fill-opacity:1;stroke-width:1;stroke-linecap:butt;stroke-linejoin:miter;stroke:rgb(0%,0%,0%);stroke-opacity:1;stroke-miterlimit:10;" d="M 990.214844 287 C 990.214844 298.714844 980.714844 308.214844 969 308.214844 C 957.285156 308.214844 947.785156 298.714844 947.785156 287 C 947.785156 275.285156 957.285156 265.785156 969 265.785156 C 980.714844 265.785156 990.214844 275.285156 990.214844 287 "/>
</g>
</svg>
