<?xml version="1.0" encoding="UTF-8"?>
<svg xmlns="http://www.w3.org/2000/svg" xmlns:xlink="http://www.w3.org/1999/xlink" width="1179pt" height="517pt" viewBox="0 0 1179 517" version="1.1">
<g id="surface41">
<rect x="0" y="0" width="1179" height="517" style="fill:rgb(90%,90%,90%);fill-opacity:1;stroke:none;"/>
<path style="fill-rule:nonzero;fill:rgb(35%,70%,90%);fill-opacity:1;stroke-width:1;stroke-linecap:butt;stroke-linejoin:miter;stroke:rgb(0%,0%,0%);stroke-opacity:1;stroke-miterlimit:10;" d="M 183 421 L 212.664062 421 L 224.664062 392.785156 L 236.664062 421 L 266.332031 421 L 242.332031 438.4375 L 250.417969 469.980469 L 224.664062 452.542969 L 198.914062 469.980469 L 211.214844 438.4375 L 183 421 "/>
<path style="fill-rule:nonzero;fill:rgb(35%,70%,90%);fill-opacity:1;stroke-width:1;stroke-linecap:butt;stroke-linejoin:miter;stroke:rgb(0%,0%,0%);stroke-opacity:1;stroke-miterlimit:10;" d="M 161.785156 189.785156 L 161.785156 232.214844 L 204.214844 232.214844 L 204.214844 189.785156 L 161.785156 189.785156 "/>
<path style="fill-rule:nonzero;fill:rgb(35%,70%,90%);fill-opacity:1;stroke-width:1;stroke-linecap:butt;stroke-linejoin:miter;stroke:rgb(0%,0%,0%);stroke-opacity:1;stroke-miterlimit:10;" d="M 108 309 L 137.664062 309 L 149.664062 280.785156 L 161.664062 309 L 191.332031 309 L 167.332031 326.4375 L 175.417969 357.980469 L 149.664062 340.542969 L 123.914062 357.980469 L 136.214844 326.4375 L 108 309 "/>
<path style="fill-rule:nonzero;fill:rgb(53%,27%,7%);fill-opacity:1;stroke-width:1;stroke-linecap:butt;stroke-linejoin:miter;stroke:rgb(0%,0%,0%);stroke-opacity:1;stroke-miterlimit:10;" d="M 683.785156 85.785156 L 683.785156 128.214844 L 726.214844 128.214844 L 726.214844 85.785156 L 683.785156 85.785156 "/>
<path style="fill-rule:nonzero;fill:rgb(53%,27%,7%);fill-opacity:1;stroke-width:1;stroke-linecap:butt;stroke-linejoin:miter;stroke:rgb(0%,0%,0%);stroke-opacity:1;stroke-miterlimit:10;" d="M 827 295 L 856.664062 295 L 868.664062 266.785156 L 880.664062 295 L 910.332031 295 L 886.332031 312.4375 L 894.417969 343.980469 L 868.664062 326.542969 L 842.914062 343.980469 L 855.214844 312.4375 L 827 295 "/>
<path style="fill-rule:nonzero;fill:rgb(53%,27%,7%);fill-opacity:1;stroke-width:1;stroke-linecap:butt;stroke-linejoin:miter;stroke:rgb(0%,0%,0%);stroke-opacity:1;stroke-miterlimit:10;" d="M 923.785156 115.785156 L 923.785156 158.214844 L 966.214844 158.214844 L 966.214844 115.785156 L 923.785156 115.785156 "/>
<path style="fill-rule:nonzero;fill:rgb(53%,27%,7%);fill-opacity:1;stroke-width:1;stroke-linecap:butt;stroke-linejoin:miter;stroke:rgb(0%,0%,0%);stroke-opacity:1;stroke-miterlimit:10;" d="M 844 144 L 873.664062 144 L 885.664062 115.785156 L 897.664062 144 L 927.332031 144 L 903.332031 161.4375 L 911.417969 192.980469 L 885.664062 175.542969 L 859.914062 192.980469 L 872.214844 161.4375 L 844 144 "/>
</g>
</svg>
