<?xml version="1.0" encoding="UTF-8"?>
<svg xmlns="http://www.w3.org/2000/svg" xmlns:xlink="http://www.w3.org/1999/xlink" width="1179pt" height="517pt" viewBox="0 0 1179 517" version="1.1">
<g id="surface616">
<rect x="0" y="0" width="1179" height="517" style="fill:rgb(90%,90%,90%);fill-opacity:1;stroke:none;"/>
<path style="fill-rule:nonzero;fill:rgb(35%,70%,90%);fill-opacity:1;stroke-width:1;stroke-linecap:butt;stroke-linejoin:miter;stroke:rgb(0%,0%,0%);stroke-opacity:1;stroke-miterlimit:10;" d="M 178.214844 131 C 178.214844 142.714844 168.714844 152.214844 157 152.214844 C 145.285156 152.214844 135.785156 142.714844 135.785156 131 C 135.785156 119.285156 145.285156 109.785156 157 109.785156 C 168.714844 109.785156 178.214844 119.285156 178.214844 131 "/>
<path style="fill-rule:nonzero;fill:rgb(35%,70%,90%);fill-opacity:1;stroke-width:1;stroke-linecap:butt;stroke-linejoin:miter;stroke:rgb(0%,0%,0%);stroke-opacity:1;stroke-miterlimit:10;" d="M 263.214844 196 C 263.214844 207.714844 253.714844 217.214844 242 217.214844 C 230.285156 217.214844 220.785156 207.714844 220.785156 196 C 220.785156 184.285156 230.285156 174.785156 242 174.785156 C 253.714844 174.785156 263.214844 184.285156 263.214844 196 "/>
<path style="fill-rule:nonzero;fill:rgb(55%,51%,53%);fill-opacity:1;stroke-width:1;stroke-linecap:butt;stroke-linejoin:miter;stroke:rgb(0%,0%,0%);stroke-opacity:1;stroke-miterlimit:10;" d="M 212.214844 325 C 212.214844 336.714844 202.714844 346.214844 191 346.214844 C 179.285156 346.214844 169.785156 336.714844 169.785156 325 C 169.785156 313.285156 179.285156 303.785156 191 303.785156 C 202.714844 303.785156 212.214844 313.285156 212.214844 325 "/>
<path style="fill-rule:nonzero;fill:rgb(55%,51%,53%);fill-opacity:1;stroke-width:1;stroke-linecap:butt;stroke-linejoin:miter;stroke:rgb(0%,0%,0%);stroke-opacity:1;stroke-miterlimit:10;" d="M 995 309 L 969.019531 354 L 1020.980469 354 L 995 309 "/>
<path style="fill-rule:nonzero;fill:rgb(55%,51%,53%);fill-opacity:1;stroke-width:1;stroke-linecap:butt;stroke-linejoin:miter;stroke:rgb(0%,0%,0%);stroke-opacity:1;stroke-miterlimit:10;" d="M 870 296 L 844.019531 341 L 895.980469 341 L 870 296 "/>
<path style="fill-rule:nonzero;fill:rgb(35%,70%,90%);fill-opacity:1;stroke-width:1;stroke-linecap:butt;stroke-linejoin:miter;stroke:rgb(0%,0%,0%);stroke-opacity:1;stroke-miterlimit:10;" d="M 890 115 L 864.019531 160 L 915.980469 160 L 890 115 "/>
<path style="fill-rule:nonzero;fill:rgb(35%,70%,90%);fill-opacity:1;stroke-width:1;stroke-linecap:butt;stroke-linejoin:miter;stroke:rgb(0%,0%,0%);stroke-opacity:1;stroke-miterlimit:10;" d="M 709 151 L 683.019531 196 L 734.980469 196 L 709 151 "/>
</g>
</svg>
