<?xml version="1.0" encoding="UTF-8"?>
<svg xmlns="http://www.w3.org/2000/svg" xmlns:xlink="http://www.w3.org/1999/xlink" width="1179pt" height="517pt" viewBox="0 0 1179 517" version="1.1">
<g id="surface1161">
<rect x="0" y="0" width="1179" height="517" style="fill:rgb(90%,90%,90%);fill-opacity:1;stroke:none;"/>
<path style="fill-rule:nonzero;fill:rgb(55%,51%,53%);fill-opacity:1;stroke-width:1;stroke-linecap:butt;stroke-linejoin:miter;stroke:rgb(0%,0%,0%);stroke-opacity:1;stroke-miterlimit:10;" d="M 198 214 L 227.664062 214 L 239.664062 185.785156 L 251.664062 214 L 281.332031 214 L 257.332031 231.4375 L 265.417969 262.980469 L 239.664062 245.542969 L 213.914062 262.980469 L 226.214844 231.4375 L 198 214 "/>
<path style="fill-rule:nonzero;fill:rgb(55%,51%,53%);fill-opacity:1;stroke-width:1;stroke-linecap:butt;stroke-linejoin:miter;stroke:rgb(0%,0%,0%);stroke-opacity:1;stroke-miterlimit:10;" d="M 91 325 L 120.664062 325 L 132.664062 296.785156 L 144.664062 325 L 174.332031 325 L 150.332031 342.4375 L 158.417969 373.980469 L 132.664062 356.542969 L 106.914062 373.980469 L 119.214844 342.4375 L 91 325 "/>
<path style="fill-rule:nonzero;fill:rgb(55%,51%,53%);fill-opacity:1;stroke-width:1;stroke-linecap:butt;stroke-linejoin:miter;stroke:rgb(0%,0%,0%);stroke-opacity:1;stroke-miterlimit:10;" d="M 335 375 L 364.664062 375 L 376.664062 346.785156 L 388.664062 375 L 418.332031 375 L 394.332031 392.4375 L 402.417969 423.980469 L 376.664062 406.542969 L 350.914062 423.980469 L 363.214844 392.4375 L 335 375 "/>
<path style="fill-rule:nonzero;fill:rgb(55%,51%,53%);fill-opacity:1;stroke-width:1;stroke-linecap:butt;stroke-linejoin:miter;stroke:rgb(0%,0%,0%);stroke-opacity:1;stroke-miterlimit:10;" d="M 897 207 L 926.664062 207 L 938.664062 178.785156 L 950.664062 207 L 980.332031 207 L 956.332031 224.4375 L 964.417969 255.980469 L 938.664062 238.542969 L 912.914062 255.980469 L 925.214844 224.4375 L 897 207 "/>
<path style="fill-rule:nonzero;fill:rgb(100%,51%,0%);fill-opacity:1;stroke-width:1;stroke-linecap:butt;stroke-linejoin:miter;stroke:rgb(0%,0%,0%);stroke-opacity:1;stroke-miterlimit:10;" d="M 486.214844 148 C 486.214844 159.714844 476.714844 169.214844 465 169.214844 C 453.285156 169.214844 443.785156 159.714844 443.785156 148 C 443.785156 136.285156 453.285156 126.785156 465 126.785156 C 476.714844 126.785156 486.214844 136.285156 486.214844 148 "/>
<path style="fill-rule:nonzero;fill:rgb(100%,51%,0%);fill-opacity:1;stroke-width:1;stroke-linecap:butt;stroke-linejoin:miter;stroke:rgb(0%,0%,0%);stroke-opacity:1;stroke-miterlimit:10;" d="M 310.214844 111 C 310.214844 122.714844 300.714844 132.214844 289 132.214844 C 277.285156 132.214844 267.785156 122.714844 267.785156 111 C 267.785156 99.285156 277.285156 89.785156 289 89.785156 C 300.714844 89.785156 310.214844 99.285156 310.214844 111 "/>
<path style="fill-rule:nonzero;fill:rgb(100%,51%,0%);fill-opacity:1;stroke-width:1;stroke-linecap:butt;stroke-linejoin:miter;stroke:rgb(0%,0%,0%);stroke-opacity:1;stroke-miterlimit:10;" d="M 544.214844 332 C 544.214844 343.714844 534.714844 353.214844 523 353.214844 C 511.285156 353.214844 501.785156 343.714844 501.785156 332 C 501.785156 320.285156 511.285156 310.785156 523 310.785156 C 534.714844 310.785156 544.214844 320.285156 544.214844 332 "/>
<path style="fill-rule:nonzero;fill:rgb(100%,51%,0%);fill-opacity:1;stroke-width:1;stroke-linecap:butt;stroke-linejoin:miter;stroke:rgb(0%,0%,0%);stroke-opacity:1;stroke-miterlimit:10;" d="M 216.214844 418 C 216.214844 429.714844 206.714844 439.214844 195 439.214844 C 183.285156 439.214844 173.785156 429.714844 173.785156 418 C 173.785156 406.285156 183.285156 396.785156 195 396.785156 C 206.714844 396.785156 216.214844 406.285156 216.214844 418 "/>
<path style="fill-rule:nonzero;fill:rgb(100%,51%,0%);fill-opacity:1;stroke-width:1;stroke-linecap:butt;stroke-linejoin:miter;stroke:rgb(0%,0%,0%);stroke-opacity:1;stroke-miterlimit:10;" d="M 683.214844 246 C 683.214844 257.714844 673.714844 267.214844 662 267.214844 C 650.285156 267.214844 640.785156 257.714844 640.785156 246 C 640.785156 234.285156 650.285156 224.785156 662 224.785156 C 673.714844 224.785156 683.214844 234.285156 683.214844 246 "/>
</g>
</svg>
