<?xml version="1.0" encoding="UTF-8"?>
<svg xmlns="http://www.w3.org/2000/svg" xmlns:xlink="http://www.w3.org/1999/xlink" width="1179pt" height="517pt" viewBox="0 0 1179 517" version="1.1">
<g id="surface876">
<rect x="0" y="0" width="1179" height="517" style="fill:rgb(90%,90%,90%);fill-opacity:1;stroke:none;"/>
<path style="fill-rule:nonzero;fill:rgb(100%,51%,0%);fill-opacity:1;stroke-width:1;stroke-linecap:butt;stroke-linejoin:miter;stroke:rgb(0%,0%,0%);stroke-opacity:1;stroke-miterlimit:10;" d="M 159.214844 80 C 159.214844 91.714844 149.714844 101.214844 138 101.214844 C 126.285156 101.214844 116.785156 91.714844 116.785156 80 C 116.785156 68.285156 126.285156 58.785156 138 58.785156 C 149.714844 58.785156 159.214844 68.285156 159.214844 80 "/>
<path style="fill-rule:nonzero;fill:rgb(100%,51%,0%);fill-opacity:1;stroke-width:1;stroke-linecap:butt;stroke-linejoin:miter;stroke:rgb(0%,0%,0%);stroke-opacity:1;stroke-miterlimit:10;" d="M 270.214844 280 C 270.214844 291.714844 260.714844 301.214844 249 301.214844 C 237.285156 301.214844 227.785156 291.714844 227.785156 280 C 227.785156 268.285156 237.285156 258.785156 249 258.785156 C 260.714844 258.785156 270.214844 268.285156 270.214844 280 "/>
<path style="fill-rule:nonzero;fill:rgb(100%,51%,0%);fill-opacity:1;stroke-width:1;stroke-linecap:butt;stroke-linejoin:miter;stroke:rgb(0%,0%,0%);stroke-opacity:1;stroke-miterlimit:10;" d="M 969.214844 421 C 969.214844 432.714844 959.714844 442.214844 948 442.214844 C 936.285156 442.214844 926.785156 432.714844 926.785156 421 C 926.785156 409.285156 936.285156 399.785156 948 399.785156 C 959.714844 399.785156 969.214844 409.285156 969.214844 421 "/>
<path style="fill-rule:nonzero;fill:rgb(35%,70%,90%);fill-opacity:1;stroke-width:1;stroke-linecap:butt;stroke-linejoin:miter;stroke:rgb(0%,0%,0%);stroke-opacity:1;stroke-miterlimit:10;" d="M 97 420 L 126.664062 420 L 138.664062 391.785156 L 150.664062 420 L 180.332031 420 L 156.332031 437.4375 L 164.417969 468.980469 L 138.664062 451.542969 L 112.914062 468.980469 L 125.214844 437.4375 L 97 420 "/>
<path style="fill-rule:nonzero;fill:rgb(35%,70%,90%);fill-opacity:1;stroke-width:1;stroke-linecap:butt;stroke-linejoin:miter;stroke:rgb(0%,0%,0%);stroke-opacity:1;stroke-miterlimit:10;" d="M 257 407 L 286.664062 407 L 298.664062 378.785156 L 310.664062 407 L 340.332031 407 L 316.332031 424.4375 L 324.417969 455.980469 L 298.664062 438.542969 L 272.914062 455.980469 L 285.214844 424.4375 L 257 407 "/>
<path style="fill-rule:nonzero;fill:rgb(35%,70%,90%);fill-opacity:1;stroke-width:1;stroke-linecap:butt;stroke-linejoin:miter;stroke:rgb(0%,0%,0%);stroke-opacity:1;stroke-miterlimit:10;" d="M 606 355 L 635.664062 355 L 647.664062 326.785156 L 659.664062 355 L 689.332031 355 L 665.332031 372.4375 L 673.417969 403.980469 L 647.664062 386.542969 L 621.914062 403.980469 L 634.214844 372.4375 L 606 355 "/>
<path style="fill-rule:nonzero;fill:rgb(35%,70%,90%);fill-opacity:1;stroke-width:1;stroke-linecap:butt;stroke-linejoin:miter;stroke:rgb(0%,0%,0%);stroke-opacity:1;stroke-miterlimit:10;" d="M 589 223 L 618.664062 223 L 630.664062 194.785156 L 642.664062 223 L 672.332031 223 L 648.332031 240.4375 L 656.417969 271.980469 L 630.664062 254.542969 L 604.914062 271.980469 L 617.214844 240.4375 L 589 223 "/>
</g>
</svg>
