<?xml version="1.0" encoding="UTF-8"?>
<svg xmlns="http://www.w3.org/2000/svg" xmlns:xlink="http://www.w3.org/1999/xlink" width="1179pt" height="517pt" viewBox="0 0 1179 517" version="1.1">
<g id="surface706">
<rect x="0" y="0" width="1179" height="517" style="fill:rgb(90%,90%,90%);fill-opacity:1;stroke:none;"/>
<path style="fill-rule:nonzero;fill:rgb(55%,51%,53%);fill-opacity:1;stroke-width:1;stroke-linecap:butt;stroke-linejoin:miter;stroke:rgb(0%,0%,0%);stroke-opacity:1;stroke-miterlimit:10;" d="M 422.214844 256 C 422.214844 267.714844 412.714844 277.214844 401 277.214844 C 389.285156 277.214844 379.785156 267.714844 379.785156 256 C 379.785156 244.285156 389.285156 234.785156 401 234.785156 C 412.714844 234.785156 422.214844 244.285156 422.214844 256 "/>
<path style="fill-rule:nonzero;fill:rgb(55%,51%,53%);fill-opacity:1;stroke-width:1;stroke-linecap:butt;stroke-linejoin:miter;stroke:rgb(0%,0%,0%);stroke-opacity:1;stroke-miterlimit:10;" d="M 149.214844 134 C 149.214844 145.714844 139.714844 155.214844 128 155.214844 C 116.285156 155.214844 106.785156 145.714844 106.785156 134 C 106.785156 122.285156 116.285156 112.785156 128 112.785156 C 139.714844 112.785156 149.214844 122.285156 149.214844 134 "/>
<path style="fill-rule:nonzero;fill:rgb(53%,27%,7%);fill-opacity:1;stroke-width:1;stroke-linecap:butt;stroke-linejoin:miter;stroke:rgb(0%,0%,0%);stroke-opacity:1;stroke-miterlimit:10;" d="M 268.214844 85 C 268.214844 96.714844 258.714844 106.214844 247 106.214844 C 235.285156 106.214844 225.785156 96.714844 225.785156 85 C 225.785156 73.285156 235.285156 63.785156 247 63.785156 C 258.714844 63.785156 268.214844 73.285156 268.214844 85 "/>
<path style="fill-rule:nonzero;fill:rgb(55%,51%,53%);fill-opacity:1;stroke-width:1;stroke-linecap:butt;stroke-linejoin:miter;stroke:rgb(0%,0%,0%);stroke-opacity:1;stroke-miterlimit:10;" d="M 132.214844 265 C 132.214844 276.714844 122.714844 286.214844 111 286.214844 C 99.285156 286.214844 89.785156 276.714844 89.785156 265 C 89.785156 253.285156 99.285156 243.785156 111 243.785156 C 122.714844 243.785156 132.214844 253.285156 132.214844 265 "/>
<path style="fill-rule:nonzero;fill:rgb(53%,27%,7%);fill-opacity:1;stroke-width:1;stroke-linecap:butt;stroke-linejoin:miter;stroke:rgb(0%,0%,0%);stroke-opacity:1;stroke-miterlimit:10;" d="M 997 316 L 971.019531 361 L 1022.980469 361 L 997 316 "/>
<path style="fill-rule:nonzero;fill:rgb(53%,27%,7%);fill-opacity:1;stroke-width:1;stroke-linecap:butt;stroke-linejoin:miter;stroke:rgb(0%,0%,0%);stroke-opacity:1;stroke-miterlimit:10;" d="M 725 251 L 699.019531 296 L 750.980469 296 L 725 251 "/>
<path style="fill-rule:nonzero;fill:rgb(55%,51%,53%);fill-opacity:1;stroke-width:1;stroke-linecap:butt;stroke-linejoin:miter;stroke:rgb(0%,0%,0%);stroke-opacity:1;stroke-miterlimit:10;" d="M 789 149 L 763.019531 194 L 814.980469 194 L 789 149 "/>
<path style="fill-rule:nonzero;fill:rgb(53%,27%,7%);fill-opacity:1;stroke-width:1;stroke-linecap:butt;stroke-linejoin:miter;stroke:rgb(0%,0%,0%);stroke-opacity:1;stroke-miterlimit:10;" d="M 951 220 L 925.019531 265 L 976.980469 265 L 951 220 "/>
<path style="fill-rule:nonzero;fill:rgb(53%,27%,7%);fill-opacity:1;stroke-width:1;stroke-linecap:butt;stroke-linejoin:miter;stroke:rgb(0%,0%,0%);stroke-opacity:1;stroke-miterlimit:10;" d="M 741 351 L 715.019531 396 L 766.980469 396 L 741 351 "/>
</g>
</svg>
