<?xml version="1.0" encoding="UTF-8"?>
<svg xmlns="http://www.w3.org/2000/svg" xmlns:xlink="http://www.w3.org/1999/xlink" width="1179pt" height="517pt" viewBox="0 0 1179 517" version="1.1">
<g id="surface211">
<rect x="0" y="0" width="1179" height="517" style="fill:rgb(90%,90%,90%);fill-opacity:1;stroke:none;"/>
<path style="fill-rule:nonzero;fill:rgb(35%,70%,90%);fill-opacity:1;stroke-width:1;stroke-linecap:butt;stroke-linejoin:miter;stroke:rgb(0%,0%,0%);stroke-opacity:1;stroke-miterlimit:10;" d="M 747 82 L 776.664062 82 L 788.664062 53.785156 L 800.664062 82 L 830.332031 82 L 806.332031 99.4375 L 814.417969 130.980469 L 788.664062 113.542969 L 762.914062 130.980469 L 775.214844 99.4375 L 747 82 "/>
<path style="fill-rule:nonzero;fill:rgb(35%,70%,90%);fill-opacity:1;stroke-width:1;stroke-linecap:butt;stroke-linejoin:miter;stroke:rgb(0%,0%,0%);stroke-opacity:1;stroke-miterlimit:10;" d="M 351 130 L 380.664062 130 L 392.664062 101.785156 L 404.664062 130 L 434.332031 130 L 410.332031 147.4375 L 418.417969 178.980469 L 392.664062 161.542969 L 366.914062 178.980469 L 379.214844 147.4375 L 351 130 "/>
<path style="fill-rule:nonzero;fill:rgb(35%,70%,90%);fill-opacity:1;stroke-width:1;stroke-linecap:butt;stroke-linejoin:miter;stroke:rgb(0%,0%,0%);stroke-opacity:1;stroke-miterlimit:10;" d="M 617 279 L 646.664062 279 L 658.664062 250.785156 L 670.664062 279 L 700.332031 279 L 676.332031 296.4375 L 684.417969 327.980469 L 658.664062 310.542969 L 632.914062 327.980469 L 645.214844 296.4375 L 617 279 "/>
<path style="fill-rule:nonzero;fill:rgb(53%,27%,7%);fill-opacity:1;stroke-width:1;stroke-linecap:butt;stroke-linejoin:miter;stroke:rgb(0%,0%,0%);stroke-opacity:1;stroke-miterlimit:10;" d="M 912.214844 396 C 912.214844 407.714844 902.714844 417.214844 891 417.214844 C 879.285156 417.214844 869.785156 407.714844 869.785156 396 C 869.785156 384.285156 879.285156 374.785156 891 374.785156 C 902.714844 374.785156 912.214844 384.285156 912.214844 396 "/>
<path style="fill-rule:nonzero;fill:rgb(53%,27%,7%);fill-opacity:1;stroke-width:1;stroke-linecap:butt;stroke-linejoin:miter;stroke:rgb(0%,0%,0%);stroke-opacity:1;stroke-miterlimit:10;" d="M 416.214844 358 C 416.214844 369.714844 406.714844 379.214844 395 379.214844 C 383.285156 379.214844 373.785156 369.714844 373.785156 358 C 373.785156 346.285156 383.285156 336.785156 395 336.785156 C 406.714844 336.785156 416.214844 346.285156 416.214844 358 "/>
<path style="fill-rule:nonzero;fill:rgb(53%,27%,7%);fill-opacity:1;stroke-width:1;stroke-linecap:butt;stroke-linejoin:miter;stroke:rgb(0%,0%,0%);stroke-opacity:1;stroke-miterlimit:10;" d="M 1036.214844 426 C 1036.214844 437.714844 1026.714844 447.214844 1015 447.214844 C 1003.285156 447.214844 993.785156 437.714844 993.785156 426 C 993.785156 414.285156 1003.285156 404.785156 1015 404.785156 C 1026.714844 404.785156 1036.214844 414.285156 1036.214844 426 "/>
</g>
</svg>
