<?xml version="1.0" encoding="UTF-8"?>
<svg xmlns="http://www.w3.org/2000/svg" xmlns:xlink="http://www.w3.org/1999/xlink" width="1179pt" height="517pt" viewBox="0 0 1179 517" version="1.1">
<g id="surface1231">
<rect x="0" y="0" width="1179" height="517" style="fill:rgb(90%,90%,90%);fill-opacity:1;stroke:none;"/>
<path style="fill-rule:nonzero;fill:rgb(53%,27%,7%);fill-opacity:1;stroke-width:1;stroke-linecap:butt;stroke-linejoin:miter;stroke:rgb(0%,0%,0%);stroke-opacity:1;stroke-miterlimit:10;" d="M 658.214844 416 C 658.214844 427.714844 648.714844 437.214844 637 437.214844 C 625.285156 437.214844 615.785156 427.714844 615.785156 416 C 615.785156 404.285156 625.285156 394.785156 637 394.785156 C 648.714844 394.785156 658.214844 404.285156 658.214844 416 "/>
<path style="fill-rule:nonzero;fill:rgb(53%,27%,7%);fill-opacity:1;stroke-width:1;stroke-linecap:butt;stroke-linejoin:miter;stroke:rgb(0%,0%,0%);stroke-opacity:1;stroke-miterlimit:10;" d="M 310.214844 224 C 310.214844 235.714844 300.714844 245.214844 289 245.214844 C 277.285156 245.214844 267.785156 235.714844 267.785156 224 C 267.785156 212.285156 277.285156 202.785156 289 202.785156 C 300.714844 202.785156 310.214844 212.285156 310.214844 224 "/>
<path style="fill-rule:nonzero;fill:rgb(53%,27%,7%);fill-opacity:1;stroke-width:1;stroke-linecap:butt;stroke-linejoin:miter;stroke:rgb(0%,0%,0%);stroke-opacity:1;stroke-miterlimit:10;" d="M 503.214844 359 C 503.214844 370.714844 493.714844 380.214844 482 380.214844 C 470.285156 380.214844 460.785156 370.714844 460.785156 359 C 460.785156 347.285156 470.285156 337.785156 482 337.785156 C 493.714844 337.785156 503.214844 347.285156 503.214844 359 "/>
<path style="fill-rule:nonzero;fill:rgb(53%,27%,7%);fill-opacity:1;stroke-width:1;stroke-linecap:butt;stroke-linejoin:miter;stroke:rgb(0%,0%,0%);stroke-opacity:1;stroke-miterlimit:10;" d="M 756.214844 211 C 756.214844 222.714844 746.714844 232.214844 735 232.214844 C 723.285156 232.214844 713.785156 222.714844 713.785156 211 C 713.785156 199.285156 723.285156 189.785156 735 189.785156 C 746.714844 189.785156 756.214844 199.285156 756.214844 211 "/>
<path style="fill-rule:nonzero;fill:rgb(55%,51%,53%);fill-opacity:1;stroke-width:1;stroke-linecap:butt;stroke-linejoin:miter;stroke:rgb(0%,0%,0%);stroke-opacity:1;stroke-miterlimit:10;" d="M 479 208 L 453.019531 253 L 504.980469 253 L 479 208 "/>
<path style="fill-rule:nonzero;fill:rgb(55%,51%,53%);fill-opacity:1;stroke-width:1;stroke-linecap:butt;stroke-linejoin:miter;stroke:rgb(0%,0%,0%);stroke-opacity:1;stroke-miterlimit:10;" d="M 144 388 L 118.019531 433 L 169.980469 433 L 144 388 "/>
<path style="fill-rule:nonzero;fill:rgb(55%,51%,53%);fill-opacity:1;stroke-width:1;stroke-linecap:butt;stroke-linejoin:miter;stroke:rgb(0%,0%,0%);stroke-opacity:1;stroke-miterlimit:10;" d="M 896 97 L 870.019531 142 L 921.980469 142 L 896 97 "/>
</g>
</svg>
