<?xml version="1.0" encoding="UTF-8"?>
<svg xmlns="http://www.w3.org/2000/svg" xmlns:xlink="http://www.w3.org/1999/xlink" width="1179pt" height="517pt" viewBox="0 0 1179 517" version="1.1">
<g id="surface161">
<rect x="0" y="0" width="1179" height="517" style="fill:rgb(90%,90%,90%);fill-opacity:1;stroke:none;"/>
<path style="fill-rule:nonzero;fill:rgb(55%,51%,53%);fill-opacity:1;stroke-width:1;stroke-linecap:butt;stroke-linejoin:miter;stroke:rgb(0%,0%,0%);stroke-opacity:1;stroke-miterlimit:10;" d="M 119 114 L 148.664062 114 L 160.664062 85.785156 L 172.664062 114 L 202.332031 114 L 178.332031 131.4375 L 186.417969 162.980469 L 160.664062 145.542969 L 134.914062 162.980469 L 147.214844 131.4375 L 119 114 "/>
<path style="fill-rule:nonzero;fill:rgb(55%,51%,53%);fill-opacity:1;stroke-width:1;stroke-linecap:butt;stroke-linejoin:miter;stroke:rgb(0%,0%,0%);stroke-opacity:1;stroke-miterlimit:10;" d="M 260.785156 338.785156 L 260.785156 381.214844 L 303.214844 381.214844 L 303.214844 338.785156 L 260.785156 338.785156 "/>
<path style="fill-rule:nonzero;fill:rgb(55%,51%,53%);fill-opacity:1;stroke-width:1;stroke-linecap:butt;stroke-linejoin:miter;stroke:rgb(0%,0%,0%);stroke-opacity:1;stroke-miterlimit:10;" d="M 367 202 L 396.664062 202 L 408.664062 173.785156 L 420.664062 202 L 450.332031 202 L 426.332031 219.4375 L 434.417969 250.980469 L 408.664062 233.542969 L 382.914062 250.980469 L 395.214844 219.4375 L 367 202 "/>
<path style="fill-rule:nonzero;fill:rgb(55%,51%,53%);fill-opacity:1;stroke-width:1;stroke-linecap:butt;stroke-linejoin:miter;stroke:rgb(0%,0%,0%);stroke-opacity:1;stroke-miterlimit:10;" d="M 233.785156 199.785156 L 233.785156 242.214844 L 276.214844 242.214844 L 276.214844 199.785156 L 233.785156 199.785156 "/>
<path style="fill-rule:nonzero;fill:rgb(55%,51%,53%);fill-opacity:1;stroke-width:1;stroke-linecap:butt;stroke-linejoin:miter;stroke:rgb(0%,0%,0%);stroke-opacity:1;stroke-miterlimit:10;" d="M 132 322 L 161.664062 322 L 173.664062 293.785156 L 185.664062 322 L 215.332031 322 L 191.332031 339.4375 L 199.417969 370.980469 L 173.664062 353.542969 L 147.914062 370.980469 L 160.214844 339.4375 L 132 322 "/>
<path style="fill-rule:nonzero;fill:rgb(53%,27%,7%);fill-opacity:1;stroke-width:1;stroke-linecap:butt;stroke-linejoin:miter;stroke:rgb(0%,0%,0%);stroke-opacity:1;stroke-miterlimit:10;" d="M 932.785156 353.785156 L 932.785156 396.214844 L 975.214844 396.214844 L 975.214844 353.785156 L 932.785156 353.785156 "/>
<path style="fill-rule:nonzero;fill:rgb(53%,27%,7%);fill-opacity:1;stroke-width:1;stroke-linecap:butt;stroke-linejoin:miter;stroke:rgb(0%,0%,0%);stroke-opacity:1;stroke-miterlimit:10;" d="M 798 138 L 827.664062 138 L 839.664062 109.785156 L 851.664062 138 L 881.332031 138 L 857.332031 155.4375 L 865.417969 186.980469 L 839.664062 169.542969 L 813.914062 186.980469 L 826.214844 155.4375 L 798 138 "/>
<path style="fill-rule:nonzero;fill:rgb(53%,27%,7%);fill-opacity:1;stroke-width:1;stroke-linecap:butt;stroke-linejoin:miter;stroke:rgb(0%,0%,0%);stroke-opacity:1;stroke-miterlimit:10;" d="M 933.785156 154.785156 L 933.785156 197.214844 L 976.214844 197.214844 L 976.214844 154.785156 L 933.785156 154.785156 "/>
<path style="fill-rule:nonzero;fill:rgb(53%,27%,7%);fill-opacity:1;stroke-width:1;stroke-linecap:butt;stroke-linejoin:miter;stroke:rgb(0%,0%,0%);stroke-opacity:1;stroke-miterlimit:10;" d="M 698 98 L 727.664062 98 L 739.664062 69.785156 L 751.664062 98 L 781.332031 98 L 757.332031 115.4375 L 765.417969 146.980469 L 739.664062 129.542969 L 713.914062 146.980469 L 726.214844 115.4375 L 698 98 "/>
<path style="fill-rule:nonzero;fill:rgb(53%,27%,7%);fill-opacity:1;stroke-width:1;stroke-linecap:butt;stroke-linejoin:miter;stroke:rgb(0%,0%,0%);stroke-opacity:1;stroke-miterlimit:10;" d="M 720.785156 395.785156 L 720.785156 438.214844 L 763.214844 438.214844 L 763.214844 395.785156 L 720.785156 395.785156 "/>
</g>
</svg>
