<?xml version="1.0" encoding="UTF-8"?>
<svg xmlns="http://www.w3.org/2000/svg" xmlns:xlink="http://www.w3.org/1999/xlink" width="1179pt" height="517pt" viewBox="0 0 1179 517" version="1.1">
<g id="surface956">
<rect x="0" y="0" width="1179" height="517" style="fill:rgb(90%,90%,90%);fill-opacity:1;stroke:none;"/>
<path style="fill-rule:nonzero;fill:rgb(55%,51%,53%);fill-opacity:1;stroke-width:1;stroke-linecap:butt;stroke-linejoin:miter;stroke:rgb(0%,0%,0%);stroke-opacity:1;stroke-miterlimit:10;" d="M 958 74 L 932.019531 119 L 983.980469 119 L 958 74 "/>
<path style="fill-rule:nonzero;fill:rgb(55%,51%,53%);fill-opacity:1;stroke-width:1;stroke-linecap:butt;stroke-linejoin:miter;stroke:rgb(0%,0%,0%);stroke-opacity:1;stroke-miterlimit:10;" d="M 648 158 L 622.019531 203 L 673.980469 203 L 648 158 "/>
<path style="fill-rule:nonzero;fill:rgb(55%,51%,53%);fill-opacity:1;stroke-width:1;stroke-linecap:butt;stroke-linejoin:miter;stroke:rgb(0%,0%,0%);stroke-opacity:1;stroke-miterlimit:10;" d="M 464 134 L 438.019531 179 L 489.980469 179 L 464 134 "/>
<path style="fill-rule:nonzero;fill:rgb(55%,51%,53%);fill-opacity:1;stroke-width:1;stroke-linecap:butt;stroke-linejoin:miter;stroke:rgb(0%,0%,0%);stroke-opacity:1;stroke-miterlimit:10;" d="M 795 75 L 769.019531 120 L 820.980469 120 L 795 75 "/>
<path style="fill-rule:nonzero;fill:rgb(100%,51%,0%);fill-opacity:1;stroke-width:1;stroke-linecap:butt;stroke-linejoin:miter;stroke:rgb(0%,0%,0%);stroke-opacity:1;stroke-miterlimit:10;" d="M 821 224 L 850.664062 224 L 862.664062 195.785156 L 874.664062 224 L 904.332031 224 L 880.332031 241.4375 L 888.417969 272.980469 L 862.664062 255.542969 L 836.914062 272.980469 L 849.214844 241.4375 L 821 224 "/>
<path style="fill-rule:nonzero;fill:rgb(100%,51%,0%);fill-opacity:1;stroke-width:1;stroke-linecap:butt;stroke-linejoin:miter;stroke:rgb(0%,0%,0%);stroke-opacity:1;stroke-miterlimit:10;" d="M 929 351 L 958.664062 351 L 970.664062 322.785156 L 982.664062 351 L 1012.332031 351 L 988.332031 368.4375 L 996.417969 399.980469 L 970.664062 382.542969 L 944.914062 399.980469 L 957.214844 368.4375 L 929 351 "/>
<path style="fill-rule:nonzero;fill:rgb(100%,51%,0%);fill-opacity:1;stroke-width:1;stroke-linecap:butt;stroke-linejoin:miter;stroke:rgb(0%,0%,0%);stroke-opacity:1;stroke-miterlimit:10;" d="M 441 382 L 470.664062 382 L 482.664062 353.785156 L 494.664062 382 L 524.332031 382 L 500.332031 399.4375 L 508.417969 430.980469 L 482.664062 413.542969 L 456.914062 430.980469 L 469.214844 399.4375 L 441 382 "/>
<path style="fill-rule:nonzero;fill:rgb(100%,51%,0%);fill-opacity:1;stroke-width:1;stroke-linecap:butt;stroke-linejoin:miter;stroke:rgb(0%,0%,0%);stroke-opacity:1;stroke-miterlimit:10;" d="M 271 106 L 300.664062 106 L 312.664062 77.785156 L 324.664062 106 L 354.332031 106 L 330.332031 123.4375 L 338.417969 154.980469 L 312.664062 137.542969 L 286.914062 154.980469 L 299.214844 123.4375 L 271 106 "/>
</g>
</svg>
