<?xml version="1.0" encoding="UTF-8"?>
<svg xmlns="http://www.w3.org/2000/svg" xmlns:xlink="http://www.w3.org/1999/xlink" width="1179pt" height="517pt" viewBox="0 0 1179 517" version="1.1">
<g id="surface1391">
<rect x="0" y="0" width="1179" height="517" style="fill:rgb(90%,90%,90%);fill-opacity:1;stroke:none;"/>
<path style="fill-rule:nonzero;fill:rgb(53%,27%,7%);fill-opacity:1;stroke-width:1;stroke-linecap:butt;stroke-linejoin:miter;stroke:rgb(0%,0%,0%);stroke-opacity:1;stroke-miterlimit:10;" d="M 804 315 L 778.019531 360 L 829.980469 360 L 804 315 "/>
<path style="fill-rule:nonzero;fill:rgb(53%,27%,7%);fill-opacity:1;stroke-width:1;stroke-linecap:butt;stroke-linejoin:miter;stroke:rgb(0%,0%,0%);stroke-opacity:1;stroke-miterlimit:10;" d="M 554 368 L 528.019531 413 L 579.980469 413 L 554 368 "/>
<path style="fill-rule:nonzero;fill:rgb(53%,27%,7%);fill-opacity:1;stroke-width:1;stroke-linecap:butt;stroke-linejoin:miter;stroke:rgb(0%,0%,0%);stroke-opacity:1;stroke-miterlimit:10;" d="M 935 280 L 909.019531 325 L 960.980469 325 L 935 280 "/>
<path style="fill-rule:nonzero;fill:rgb(53%,27%,7%);fill-opacity:1;stroke-width:1;stroke-linecap:butt;stroke-linejoin:miter;stroke:rgb(0%,0%,0%);stroke-opacity:1;stroke-miterlimit:10;" d="M 307 331 L 281.019531 376 L 332.980469 376 L 307 331 "/>
<path style="fill-rule:nonzero;fill:rgb(35%,70%,90%);fill-opacity:1;stroke-width:1;stroke-linecap:butt;stroke-linejoin:miter;stroke:rgb(0%,0%,0%);stroke-opacity:1;stroke-miterlimit:10;" d="M 332 201 L 361.664062 201 L 373.664062 172.785156 L 385.664062 201 L 415.332031 201 L 391.332031 218.4375 L 399.417969 249.980469 L 373.664062 232.542969 L 347.914062 249.980469 L 360.214844 218.4375 L 332 201 "/>
<path style="fill-rule:nonzero;fill:rgb(35%,70%,90%);fill-opacity:1;stroke-width:1;stroke-linecap:butt;stroke-linejoin:miter;stroke:rgb(0%,0%,0%);stroke-opacity:1;stroke-miterlimit:10;" d="M 168 400 L 197.664062 400 L 209.664062 371.785156 L 221.664062 400 L 251.332031 400 L 227.332031 417.4375 L 235.417969 448.980469 L 209.664062 431.542969 L 183.914062 448.980469 L 196.214844 417.4375 L 168 400 "/>
<path style="fill-rule:nonzero;fill:rgb(35%,70%,90%);fill-opacity:1;stroke-width:1;stroke-linecap:butt;stroke-linejoin:miter;stroke:rgb(0%,0%,0%);stroke-opacity:1;stroke-miterlimit:10;" d="M 727 242 L 756.664062 242 L 768.664062 213.785156 L 780.664062 242 L 810.332031 242 L 786.332031 259.4375 L 794.417969 290.980469 L 768.664062 273.542969 L 742.914062 290.980469 L 755.214844 259.4375 L 727 242 "/>
<path style="fill-rule:nonzero;fill:rgb(35%,70%,90%);fill-opacity:1;stroke-width:1;stroke-linecap:butt;stroke-linejoin:miter;stroke:rgb(0%,0%,0%);stroke-opacity:1;stroke-miterlimit:10;" d="M 985 97 L 1014.664062 97 L 1026.664062 68.785156 L 1038.664062 97 L 1068.332031 97 L 1044.332031 114.4375 L 1052.417969 145.980469 L 1026.664062 128.542969 L 1000.914062 145.980469 L 1013.214844 114.4375 L 985 97 "/>
<path style="fill-rule:nonzero;fill:rgb(35%,70%,90%);fill-opacity:1;stroke-width:1;stroke-linecap:butt;stroke-linejoin:miter;stroke:rgb(0%,0%,0%);stroke-opacity:1;stroke-miterlimit:10;" d="M 223 85 L 252.664062 85 L 264.664062 56.785156 L 276.664062 85 L 306.332031 85 L 282.332031 102.4375 L 290.417969 133.980469 L 264.664062 116.542969 L 238.914062 133.980469 L 251.214844 102.4375 L 223 85 "/>
</g>
</svg>
