<?xml version="1.0" encoding="UTF-8"?>
<svg xmlns="http://www.w3.org/2000/svg" xmlns:xlink="http://www.w3.org/1999/xlink" width="1179pt" height="517pt" viewBox="0 0 1179 517" version="1.1">
<g id="surface876">
<rect x="0" y="0" width="1179" height="517" style="fill:rgb(90%,90%,90%);fill-opacity:1;stroke:none;"/>
<path style="fill-rule:nonzero;fill:rgb(35%,70%,90%);fill-opacity:1;stroke-width:1;stroke-linecap:butt;stroke-linejoin:miter;stroke:rgb(0%,0%,0%);stroke-opacity:1;stroke-miterlimit:10;" d="M 366 431 L 395.664062 431 L 407.664062 402.785156 L 419.664062 431 L 449.332031 431 L 425.332031 448.4375 L 433.417969 479.980469 L 407.664062 462.542969 L 381.914062 479.980469 L 394.214844 448.4375 L 366 431 "/>
<path style="fill-rule:nonzero;fill:rgb(100%,51%,0%);fill-opacity:1;stroke-width:1;stroke-linecap:butt;stroke-linejoin:miter;stroke:rgb(0%,0%,0%);stroke-opacity:1;stroke-miterlimit:10;" d="M 167.214844 285 C 167.214844 296.714844 157.714844 306.214844 146 306.214844 C 134.285156 306.214844 124.785156 296.714844 124.785156 285 C 124.785156 273.285156 134.285156 263.785156 146 263.785156 C 157.714844 263.785156 167.214844 273.285156 167.214844 285 "/>
<path style="fill-rule:nonzero;fill:rgb(100%,51%,0%);fill-opacity:1;stroke-width:1;stroke-linecap:butt;stroke-linejoin:miter;stroke:rgb(0%,0%,0%);stroke-opacity:1;stroke-miterlimit:10;" d="M 289.214844 366 C 289.214844 377.714844 279.714844 387.214844 268 387.214844 C 256.285156 387.214844 246.785156 377.714844 246.785156 366 C 246.785156 354.285156 256.285156 344.785156 268 344.785156 C 279.714844 344.785156 289.214844 354.285156 289.214844 366 "/>
<path style="fill-rule:nonzero;fill:rgb(100%,51%,0%);fill-opacity:1;stroke-width:1;stroke-linecap:butt;stroke-linejoin:miter;stroke:rgb(0%,0%,0%);stroke-opacity:1;stroke-miterlimit:10;" d="M 126.214844 145 C 126.214844 156.714844 116.714844 166.214844 105 166.214844 C 93.285156 166.214844 83.785156 156.714844 83.785156 145 C 83.785156 133.285156 93.285156 123.785156 105 123.785156 C 116.714844 123.785156 126.214844 133.285156 126.214844 145 "/>
<path style="fill-rule:nonzero;fill:rgb(100%,51%,0%);fill-opacity:1;stroke-width:1;stroke-linecap:butt;stroke-linejoin:miter;stroke:rgb(0%,0%,0%);stroke-opacity:1;stroke-miterlimit:10;" d="M 453.214844 306 C 453.214844 317.714844 443.714844 327.214844 432 327.214844 C 420.285156 327.214844 410.785156 317.714844 410.785156 306 C 410.785156 294.285156 420.285156 284.785156 432 284.785156 C 443.714844 284.785156 453.214844 294.285156 453.214844 306 "/>
<path style="fill-rule:nonzero;fill:rgb(35%,70%,90%);fill-opacity:1;stroke-width:1;stroke-linecap:butt;stroke-linejoin:miter;stroke:rgb(0%,0%,0%);stroke-opacity:1;stroke-miterlimit:10;" d="M 927 331 L 956.664062 331 L 968.664062 302.785156 L 980.664062 331 L 1010.332031 331 L 986.332031 348.4375 L 994.417969 379.980469 L 968.664062 362.542969 L 942.914062 379.980469 L 955.214844 348.4375 L 927 331 "/>
<path style="fill-rule:nonzero;fill:rgb(35%,70%,90%);fill-opacity:1;stroke-width:1;stroke-linecap:butt;stroke-linejoin:miter;stroke:rgb(0%,0%,0%);stroke-opacity:1;stroke-miterlimit:10;" d="M 759 337 L 788.664062 337 L 800.664062 308.785156 L 812.664062 337 L 842.332031 337 L 818.332031 354.4375 L 826.417969 385.980469 L 800.664062 368.542969 L 774.914062 385.980469 L 787.214844 354.4375 L 759 337 "/>
<path style="fill-rule:nonzero;fill:rgb(35%,70%,90%);fill-opacity:1;stroke-width:1;stroke-linecap:butt;stroke-linejoin:miter;stroke:rgb(0%,0%,0%);stroke-opacity:1;stroke-miterlimit:10;" d="M 986 426 L 1015.664062 426 L 1027.664062 397.785156 L 1039.664062 426 L 1069.332031 426 L 1045.332031 443.4375 L 1053.417969 474.980469 L 1027.664062 457.542969 L 1001.914062 474.980469 L 1014.214844 443.4375 L 986 426 "/>
<path style="fill-rule:nonzero;fill:rgb(100%,51%,0%);fill-opacity:1;stroke-width:1;stroke-linecap:butt;stroke-linejoin:miter;stroke:rgb(0%,0%,0%);stroke-opacity:1;stroke-miterlimit:10;" d="M 859.214844 389 C 859.214844 400.714844 849.714844 410.214844 838 410.214844 C 826.285156 410.214844 816.785156 400.714844 816.785156 389 C 816.785156 377.285156 826.285156 367.785156 838 367.785156 C 849.714844 367.785156 859.214844 377.285156 859.214844 389 "/>
<path style="fill-rule:nonzero;fill:rgb(35%,70%,90%);fill-opacity:1;stroke-width:1;stroke-linecap:butt;stroke-linejoin:miter;stroke:rgb(0%,0%,0%);stroke-opacity:1;stroke-miterlimit:10;" d="M 889 118 L 918.664062 118 L 930.664062 89.785156 L 942.664062 118 L 972.332031 118 L 948.332031 135.4375 L 956.417969 166.980469 L 930.664062 149.542969 L 904.914062 166.980469 L 917.214844 135.4375 L 889 118 "/>
<path style="fill-rule:nonzero;fill:rgb(100%,51%,0%);fill-opacity:1;stroke-width:1;stroke-linecap:butt;stroke-linejoin:miter;stroke:rgb(0%,0%,0%);stroke-opacity:1;stroke-miterlimit:10;" d="M 1052.214844 193 C 1052.214844 204.714844 1042.714844 214.214844 1031 214.214844 C 1019.285156 214.214844 1009.785156 204.714844 1009.785156 193 C 1009.785156 181.285156 1019.285156 171.785156 1031 171.785156 C 1042.714844 171.785156 1052.214844 181.285156 1052.214844 193 "/>
<path style="fill-rule:nonzero;fill:rgb(35%,70%,90%);fill-opacity:1;stroke-width:1;stroke-linecap:butt;stroke-linejoin:miter;stroke:rgb(0%,0%,0%);stroke-opacity:1;stroke-miterlimit:10;" d="M 846 251 L 875.664062 251 L 887.664062 222.785156 L 899.664062 251 L 929.332031 251 L 905.332031 268.4375 L 913.417969 299.980469 L 887.664062 282.542969 L 861.914062 299.980469 L 874.214844 268.4375 L 846 251 "/>
<path style="fill-rule:nonzero;fill:rgb(100%,51%,0%);fill-opacity:1;stroke-width:1;stroke-linecap:butt;stroke-linejoin:miter;stroke:rgb(0%,0%,0%);stroke-opacity:1;stroke-miterlimit:10;" d="M 729.214844 153 C 729.214844 164.714844 719.714844 174.214844 708 174.214844 C 696.285156 174.214844 686.785156 164.714844 686.785156 153 C 686.785156 141.285156 696.285156 131.785156 708 131.785156 C 719.714844 131.785156 729.214844 141.285156 729.214844 153 "/>
</g>
</svg>
