<?xml version="1.0" encoding="UTF-8"?>
<svg xmlns="http://www.w3.org/2000/svg" xmlns:xlink="http://www.w3.org/1999/xlink" width="1179pt" height="517pt" viewBox="0 0 1179 517" version="1.1">
<g id="surface1371">
<rect x="0" y="0" width="1179" height="517" style="fill:rgb(90%,90%,90%);fill-opacity:1;stroke:none;"/>
<path style="fill-rule:nonzero;fill:rgb(35%,70%,90%);fill-opacity:1;stroke-width:1;stroke-linecap:butt;stroke-linejoin:miter;stroke:rgb(0%,0%,0%);stroke-opacity:1;stroke-miterlimit:10;" d="M 476.214844 194 C 476.214844 205.714844 466.714844 215.214844 455 215.214844 C 443.285156 215.214844 433.785156 205.714844 433.785156 194 C 433.785156 182.285156 443.285156 172.785156 455 172.785156 C 466.714844 172.785156 476.214844 182.285156 476.214844 194 "/>
<path style="fill-rule:nonzero;fill:rgb(35%,70%,90%);fill-opacity:1;stroke-width:1;stroke-linecap:butt;stroke-linejoin:miter;stroke:rgb(0%,0%,0%);stroke-opacity:1;stroke-miterlimit:10;" d="M 334.214844 240 C 334.214844 251.714844 324.714844 261.214844 313 261.214844 C 301.285156 261.214844 291.785156 251.714844 291.785156 240 C 291.785156 228.285156 301.285156 218.785156 313 218.785156 C 324.714844 218.785156 334.214844 228.285156 334.214844 240 "/>
<path style="fill-rule:nonzero;fill:rgb(35%,70%,90%);fill-opacity:1;stroke-width:1;stroke-linecap:butt;stroke-linejoin:miter;stroke:rgb(0%,0%,0%);stroke-opacity:1;stroke-miterlimit:10;" d="M 288.214844 118 C 288.214844 129.714844 278.714844 139.214844 267 139.214844 C 255.285156 139.214844 245.785156 129.714844 245.785156 118 C 245.785156 106.285156 255.285156 96.785156 267 96.785156 C 278.714844 96.785156 288.214844 106.285156 288.214844 118 "/>
<path style="fill-rule:nonzero;fill:rgb(35%,70%,90%);fill-opacity:1;stroke-width:1;stroke-linecap:butt;stroke-linejoin:miter;stroke:rgb(0%,0%,0%);stroke-opacity:1;stroke-miterlimit:10;" d="M 972.214844 409 C 972.214844 420.714844 962.714844 430.214844 951 430.214844 C 939.285156 430.214844 929.785156 420.714844 929.785156 409 C 929.785156 397.285156 939.285156 387.785156 951 387.785156 C 962.714844 387.785156 972.214844 397.285156 972.214844 409 "/>
<path style="fill-rule:nonzero;fill:rgb(100%,51%,0%);fill-opacity:1;stroke-width:1;stroke-linecap:butt;stroke-linejoin:miter;stroke:rgb(0%,0%,0%);stroke-opacity:1;stroke-miterlimit:10;" d="M 627 88 L 601.019531 133 L 652.980469 133 L 627 88 "/>
<path style="fill-rule:nonzero;fill:rgb(100%,51%,0%);fill-opacity:1;stroke-width:1;stroke-linecap:butt;stroke-linejoin:miter;stroke:rgb(0%,0%,0%);stroke-opacity:1;stroke-miterlimit:10;" d="M 763 106 L 737.019531 151 L 788.980469 151 L 763 106 "/>
<path style="fill-rule:nonzero;fill:rgb(100%,51%,0%);fill-opacity:1;stroke-width:1;stroke-linecap:butt;stroke-linejoin:miter;stroke:rgb(0%,0%,0%);stroke-opacity:1;stroke-miterlimit:10;" d="M 183 324 L 157.019531 369 L 208.980469 369 L 183 324 "/>
<path style="fill-rule:nonzero;fill:rgb(100%,51%,0%);fill-opacity:1;stroke-width:1;stroke-linecap:butt;stroke-linejoin:miter;stroke:rgb(0%,0%,0%);stroke-opacity:1;stroke-miterlimit:10;" d="M 793 395 L 767.019531 440 L 818.980469 440 L 793 395 "/>
</g>
</svg>
