<?xml version="1.0" encoding="UTF-8"?>
<svg xmlns="http://www.w3.org/2000/svg" xmlns:xlink="http://www.w3.org/1999/xlink" width="1179pt" height="517pt" viewBox="0 0 1179 517" version="1.1">
<g id="surface671">
<rect x="0" y="0" width="1179" height="517" style="fill:rgb(90%,90%,90%);fill-opacity:1;stroke:none;"/>
<path style="fill-rule:nonzero;fill:rgb(100%,51%,0%);fill-opacity:1;stroke-width:1;stroke-linecap:butt;stroke-linejoin:miter;stroke:rgb(0%,0%,0%);stroke-opacity:1;stroke-miterlimit:10;" d="M 431 216 L 460.664062 216 L 472.664062 187.785156 L 484.664062 216 L 514.332031 216 L 490.332031 233.4375 L 498.417969 264.980469 L 472.664062 247.542969 L 446.914062 264.980469 L 459.214844 233.4375 L 431 216 "/>
<path style="fill-rule:nonzero;fill:rgb(55%,51%,53%);fill-opacity:1;stroke-width:1;stroke-linecap:butt;stroke-linejoin:miter;stroke:rgb(0%,0%,0%);stroke-opacity:1;stroke-miterlimit:10;" d="M 204 367 L 233.664062 367 L 245.664062 338.785156 L 257.664062 367 L 287.332031 367 L 263.332031 384.4375 L 271.417969 415.980469 L 245.664062 398.542969 L 219.914062 415.980469 L 232.214844 384.4375 L 204 367 "/>
<path style="fill-rule:nonzero;fill:rgb(55%,51%,53%);fill-opacity:1;stroke-width:1;stroke-linecap:butt;stroke-linejoin:miter;stroke:rgb(0%,0%,0%);stroke-opacity:1;stroke-miterlimit:10;" d="M 120 404 L 149.664062 404 L 161.664062 375.785156 L 173.664062 404 L 203.332031 404 L 179.332031 421.4375 L 187.417969 452.980469 L 161.664062 435.542969 L 135.914062 452.980469 L 148.214844 421.4375 L 120 404 "/>
<path style="fill-rule:nonzero;fill:rgb(55%,51%,53%);fill-opacity:1;stroke-width:1;stroke-linecap:butt;stroke-linejoin:miter;stroke:rgb(0%,0%,0%);stroke-opacity:1;stroke-miterlimit:10;" d="M 690.785156 137.785156 L 690.785156 180.214844 L 733.214844 180.214844 L 733.214844 137.785156 L 690.785156 137.785156 "/>
<path style="fill-rule:nonzero;fill:rgb(100%,51%,0%);fill-opacity:1;stroke-width:1;stroke-linecap:butt;stroke-linejoin:miter;stroke:rgb(0%,0%,0%);stroke-opacity:1;stroke-miterlimit:10;" d="M 903.785156 389.785156 L 903.785156 432.214844 L 946.214844 432.214844 L 946.214844 389.785156 L 903.785156 389.785156 "/>
<path style="fill-rule:nonzero;fill:rgb(100%,51%,0%);fill-opacity:1;stroke-width:1;stroke-linecap:butt;stroke-linejoin:miter;stroke:rgb(0%,0%,0%);stroke-opacity:1;stroke-miterlimit:10;" d="M 843.785156 199.785156 L 843.785156 242.214844 L 886.214844 242.214844 L 886.214844 199.785156 L 843.785156 199.785156 "/>
</g>
</svg>
