<?xml version="1.0" encoding="UTF-8"?>
<svg xmlns="http://www.w3.org/2000/svg" xmlns:xlink="http://www.w3.org/1999/xlink" width="1179pt" height="517pt" viewBox="0 0 1179 517" version="1.1">
<g id="surface1191">
<rect x="0" y="0" width="1179" height="517" style="fill:rgb(90%,90%,90%);fill-opacity:1;stroke:none;"/>
<path style="fill-rule:nonzero;fill:rgb(35%,70%,90%);fill-opacity:1;stroke-width:1;stroke-linecap:butt;stroke-linejoin:miter;stroke:rgb(0%,0%,0%);stroke-opacity:1;stroke-miterlimit:10;" d="M 651.214844 245 C 651.214844 256.714844 641.714844 266.214844 630 266.214844 C 618.285156 266.214844 608.785156 256.714844 608.785156 245 C 608.785156 233.285156 618.285156 223.785156 630 223.785156 C 641.714844 223.785156 651.214844 233.285156 651.214844 245 "/>
<path style="fill-rule:nonzero;fill:rgb(35%,70%,90%);fill-opacity:1;stroke-width:1;stroke-linecap:butt;stroke-linejoin:miter;stroke:rgb(0%,0%,0%);stroke-opacity:1;stroke-miterlimit:10;" d="M 168.214844 413 C 168.214844 424.714844 158.714844 434.214844 147 434.214844 C 135.285156 434.214844 125.785156 424.714844 125.785156 413 C 125.785156 401.285156 135.285156 391.785156 147 391.785156 C 158.714844 391.785156 168.214844 401.285156 168.214844 413 "/>
<path style="fill-rule:nonzero;fill:rgb(35%,70%,90%);fill-opacity:1;stroke-width:1;stroke-linecap:butt;stroke-linejoin:miter;stroke:rgb(0%,0%,0%);stroke-opacity:1;stroke-miterlimit:10;" d="M 655.214844 431 C 655.214844 442.714844 645.714844 452.214844 634 452.214844 C 622.285156 452.214844 612.785156 442.714844 612.785156 431 C 612.785156 419.285156 622.285156 409.785156 634 409.785156 C 645.714844 409.785156 655.214844 419.285156 655.214844 431 "/>
<path style="fill-rule:nonzero;fill:rgb(35%,70%,90%);fill-opacity:1;stroke-width:1;stroke-linecap:butt;stroke-linejoin:miter;stroke:rgb(0%,0%,0%);stroke-opacity:1;stroke-miterlimit:10;" d="M 451.214844 395 C 451.214844 406.714844 441.714844 416.214844 430 416.214844 C 418.285156 416.214844 408.785156 406.714844 408.785156 395 C 408.785156 383.285156 418.285156 373.785156 430 373.785156 C 441.714844 373.785156 451.214844 383.285156 451.214844 395 "/>
<path style="fill-rule:nonzero;fill:rgb(100%,51%,0%);fill-opacity:1;stroke-width:1;stroke-linecap:butt;stroke-linejoin:miter;stroke:rgb(0%,0%,0%);stroke-opacity:1;stroke-miterlimit:10;" d="M 894 197 L 868.019531 242 L 919.980469 242 L 894 197 "/>
<path style="fill-rule:nonzero;fill:rgb(100%,51%,0%);fill-opacity:1;stroke-width:1;stroke-linecap:butt;stroke-linejoin:miter;stroke:rgb(0%,0%,0%);stroke-opacity:1;stroke-miterlimit:10;" d="M 519 53 L 493.019531 98 L 544.980469 98 L 519 53 "/>
<path style="fill-rule:nonzero;fill:rgb(100%,51%,0%);fill-opacity:1;stroke-width:1;stroke-linecap:butt;stroke-linejoin:miter;stroke:rgb(0%,0%,0%);stroke-opacity:1;stroke-miterlimit:10;" d="M 172 193 L 146.019531 238 L 197.980469 238 L 172 193 "/>
<path style="fill-rule:nonzero;fill:rgb(100%,51%,0%);fill-opacity:1;stroke-width:1;stroke-linecap:butt;stroke-linejoin:miter;stroke:rgb(0%,0%,0%);stroke-opacity:1;stroke-miterlimit:10;" d="M 407 145 L 381.019531 190 L 432.980469 190 L 407 145 "/>
</g>
</svg>
