<?xml version="1.0" encoding="UTF-8"?>
<svg xmlns="http://www.w3.org/2000/svg" xmlns:xlink="http://www.w3.org/1999/xlink" width="1179pt" height="517pt" viewBox="0 0 1179 517" version="1.1">
<g id="surface436">
<rect x="0" y="0" width="1179" height="517" style="fill:rgb(90%,90%,90%);fill-opacity:1;stroke:none;"/>
<path style="fill-rule:nonzero;fill:rgb(35%,70%,90%);fill-opacity:1;stroke-width:1;stroke-linecap:butt;stroke-linejoin:miter;stroke:rgb(0%,0%,0%);stroke-opacity:1;stroke-miterlimit:10;" d="M 400.214844 137 C 400.214844 148.714844 390.714844 158.214844 379 158.214844 C 367.285156 158.214844 357.785156 148.714844 357.785156 137 C 357.785156 125.285156 367.285156 115.785156 379 115.785156 C 390.714844 115.785156 400.214844 125.285156 400.214844 137 "/>
<path style="fill-rule:nonzero;fill:rgb(35%,70%,90%);fill-opacity:1;stroke-width:1;stroke-linecap:butt;stroke-linejoin:miter;stroke:rgb(0%,0%,0%);stroke-opacity:1;stroke-miterlimit:10;" d="M 344.214844 225 C 344.214844 236.714844 334.714844 246.214844 323 246.214844 C 311.285156 246.214844 301.785156 236.714844 301.785156 225 C 301.785156 213.285156 311.285156 203.785156 323 203.785156 C 334.714844 203.785156 344.214844 213.285156 344.214844 225 "/>
<path style="fill-rule:nonzero;fill:rgb(35%,70%,90%);fill-opacity:1;stroke-width:1;stroke-linecap:butt;stroke-linejoin:miter;stroke:rgb(0%,0%,0%);stroke-opacity:1;stroke-miterlimit:10;" d="M 273 114 L 247.019531 159 L 298.980469 159 L 273 114 "/>
<path style="fill-rule:nonzero;fill:rgb(55%,51%,53%);fill-opacity:1;stroke-width:1;stroke-linecap:butt;stroke-linejoin:miter;stroke:rgb(0%,0%,0%);stroke-opacity:1;stroke-miterlimit:10;" d="M 963 84 L 937.019531 129 L 988.980469 129 L 963 84 "/>
<path style="fill-rule:nonzero;fill:rgb(55%,51%,53%);fill-opacity:1;stroke-width:1;stroke-linecap:butt;stroke-linejoin:miter;stroke:rgb(0%,0%,0%);stroke-opacity:1;stroke-miterlimit:10;" d="M 835 302 L 809.019531 347 L 860.980469 347 L 835 302 "/>
<path style="fill-rule:nonzero;fill:rgb(55%,51%,53%);fill-opacity:1;stroke-width:1;stroke-linecap:butt;stroke-linejoin:miter;stroke:rgb(0%,0%,0%);stroke-opacity:1;stroke-miterlimit:10;" d="M 743.214844 422 C 743.214844 433.714844 733.714844 443.214844 722 443.214844 C 710.285156 443.214844 700.785156 433.714844 700.785156 422 C 700.785156 410.285156 710.285156 400.785156 722 400.785156 C 733.714844 400.785156 743.214844 410.285156 743.214844 422 "/>
<path style="fill-rule:nonzero;fill:rgb(55%,51%,53%);fill-opacity:1;stroke-width:1;stroke-linecap:butt;stroke-linejoin:miter;stroke:rgb(0%,0%,0%);stroke-opacity:1;stroke-miterlimit:10;" d="M 720.214844 95 C 720.214844 106.714844 710.714844 116.214844 699 116.214844 C 687.285156 116.214844 677.785156 106.714844 677.785156 95 C 677.785156 83.285156 687.285156 73.785156 699 73.785156 C 710.714844 73.785156 720.214844 83.285156 720.214844 95 "/>
<path style="fill-rule:nonzero;fill:rgb(55%,51%,53%);fill-opacity:1;stroke-width:1;stroke-linecap:butt;stroke-linejoin:miter;stroke:rgb(0%,0%,0%);stroke-opacity:1;stroke-miterlimit:10;" d="M 952 352 L 926.019531 397 L 977.980469 397 L 952 352 "/>
</g>
</svg>
