<?xml version="1.0" encoding="UTF-8"?>
<svg xmlns="http://www.w3.org/2000/svg" xmlns:xlink="http://www.w3.org/1999/xlink" width="1179pt" height="517pt" viewBox="0 0 1179 517" version="1.1">
<g id="surface256">
<rect x="0" y="0" width="1179" height="517" style="fill:rgb(90%,90%,90%);fill-opacity:1;stroke:none;"/>
<path style="fill-rule:nonzero;fill:rgb(35%,70%,90%);fill-opacity:1;stroke-width:1;stroke-linecap:butt;stroke-linejoin:miter;stroke:rgb(0%,0%,0%);stroke-opacity:1;stroke-miterlimit:10;" d="M 420.214844 296 C 420.214844 307.714844 410.714844 317.214844 399 317.214844 C 387.285156 317.214844 377.785156 307.714844 377.785156 296 C 377.785156 284.285156 387.285156 274.785156 399 274.785156 C 410.714844 274.785156 420.214844 284.285156 420.214844 296 "/>
<path style="fill-rule:nonzero;fill:rgb(35%,70%,90%);fill-opacity:1;stroke-width:1;stroke-linecap:butt;stroke-linejoin:miter;stroke:rgb(0%,0%,0%);stroke-opacity:1;stroke-miterlimit:10;" d="M 375.214844 130 C 375.214844 141.714844 365.714844 151.214844 354 151.214844 C 342.285156 151.214844 332.785156 141.714844 332.785156 130 C 332.785156 118.285156 342.285156 108.785156 354 108.785156 C 365.714844 108.785156 375.214844 118.285156 375.214844 130 "/>
<path style="fill-rule:nonzero;fill:rgb(55%,51%,53%);fill-opacity:1;stroke-width:1;stroke-linecap:butt;stroke-linejoin:miter;stroke:rgb(0%,0%,0%);stroke-opacity:1;stroke-miterlimit:10;" d="M 267.214844 331 C 267.214844 342.714844 257.714844 352.214844 246 352.214844 C 234.285156 352.214844 224.785156 342.714844 224.785156 331 C 224.785156 319.285156 234.285156 309.785156 246 309.785156 C 257.714844 309.785156 267.214844 319.285156 267.214844 331 "/>
<path style="fill-rule:nonzero;fill:rgb(35%,70%,90%);fill-opacity:1;stroke-width:1;stroke-linecap:butt;stroke-linejoin:miter;stroke:rgb(0%,0%,0%);stroke-opacity:1;stroke-miterlimit:10;" d="M 240.214844 215 C 240.214844 226.714844 230.714844 236.214844 219 236.214844 C 207.285156 236.214844 197.785156 226.714844 197.785156 215 C 197.785156 203.285156 207.285156 193.785156 219 193.785156 C 230.714844 193.785156 240.214844 203.285156 240.214844 215 "/>
<path style="fill-rule:nonzero;fill:rgb(55%,51%,53%);fill-opacity:1;stroke-width:1;stroke-linecap:butt;stroke-linejoin:miter;stroke:rgb(0%,0%,0%);stroke-opacity:1;stroke-miterlimit:10;" d="M 859 94 L 833.019531 139 L 884.980469 139 L 859 94 "/>
<path style="fill-rule:nonzero;fill:rgb(55%,51%,53%);fill-opacity:1;stroke-width:1;stroke-linecap:butt;stroke-linejoin:miter;stroke:rgb(0%,0%,0%);stroke-opacity:1;stroke-miterlimit:10;" d="M 998 183 L 972.019531 228 L 1023.980469 228 L 998 183 "/>
<path style="fill-rule:nonzero;fill:rgb(35%,70%,90%);fill-opacity:1;stroke-width:1;stroke-linecap:butt;stroke-linejoin:miter;stroke:rgb(0%,0%,0%);stroke-opacity:1;stroke-miterlimit:10;" d="M 956 58 L 930.019531 103 L 981.980469 103 L 956 58 "/>
<path style="fill-rule:nonzero;fill:rgb(55%,51%,53%);fill-opacity:1;stroke-width:1;stroke-linecap:butt;stroke-linejoin:miter;stroke:rgb(0%,0%,0%);stroke-opacity:1;stroke-miterlimit:10;" d="M 711 205 L 685.019531 250 L 736.980469 250 L 711 205 "/>
<path style="fill-rule:nonzero;fill:rgb(55%,51%,53%);fill-opacity:1;stroke-width:1;stroke-linecap:butt;stroke-linejoin:miter;stroke:rgb(0%,0%,0%);stroke-opacity:1;stroke-miterlimit:10;" d="M 879 373 L 853.019531 418 L 904.980469 418 L 879 373 "/>
</g>
</svg>
