<?xml version="1.0" encoding="UTF-8"?>
<svg xmlns="http://www.w3.org/2000/svg" xmlns:xlink="http://www.w3.org/1999/xlink" width="1179pt" height="517pt" viewBox="0 0 1179 517" version="1.1">
<g id="surface1221">
<rect x="0" y="0" width="1179" height="517" style="fill:rgb(90%,90%,90%);fill-opacity:1;stroke:none;"/>
<path style="fill-rule:nonzero;fill:rgb(100%,51%,0%);fill-opacity:1;stroke-width:1;stroke-linecap:butt;stroke-linejoin:miter;stroke:rgb(0%,0%,0%);stroke-opacity:1;stroke-miterlimit:10;" d="M 836 355 L 865.664062 355 L 877.664062 326.785156 L 889.664062 355 L 919.332031 355 L 895.332031 372.4375 L 903.417969 403.980469 L 877.664062 386.542969 L 851.914062 403.980469 L 864.214844 372.4375 L 836 355 "/>
<path style="fill-rule:nonzero;fill:rgb(100%,51%,0%);fill-opacity:1;stroke-width:1;stroke-linecap:butt;stroke-linejoin:miter;stroke:rgb(0%,0%,0%);stroke-opacity:1;stroke-miterlimit:10;" d="M 736 227 L 765.664062 227 L 777.664062 198.785156 L 789.664062 227 L 819.332031 227 L 795.332031 244.4375 L 803.417969 275.980469 L 777.664062 258.542969 L 751.914062 275.980469 L 764.214844 244.4375 L 736 227 "/>
<path style="fill-rule:nonzero;fill:rgb(100%,51%,0%);fill-opacity:1;stroke-width:1;stroke-linecap:butt;stroke-linejoin:miter;stroke:rgb(0%,0%,0%);stroke-opacity:1;stroke-miterlimit:10;" d="M 137 139 L 166.664062 139 L 178.664062 110.785156 L 190.664062 139 L 220.332031 139 L 196.332031 156.4375 L 204.417969 187.980469 L 178.664062 170.542969 L 152.914062 187.980469 L 165.214844 156.4375 L 137 139 "/>
<path style="fill-rule:nonzero;fill:rgb(100%,51%,0%);fill-opacity:1;stroke-width:1;stroke-linecap:butt;stroke-linejoin:miter;stroke:rgb(0%,0%,0%);stroke-opacity:1;stroke-miterlimit:10;" d="M 573 199 L 602.664062 199 L 614.664062 170.785156 L 626.664062 199 L 656.332031 199 L 632.332031 216.4375 L 640.417969 247.980469 L 614.664062 230.542969 L 588.914062 247.980469 L 601.214844 216.4375 L 573 199 "/>
<path style="fill-rule:nonzero;fill:rgb(55%,51%,53%);fill-opacity:1;stroke-width:1;stroke-linecap:butt;stroke-linejoin:miter;stroke:rgb(0%,0%,0%);stroke-opacity:1;stroke-miterlimit:10;" d="M 259.214844 401 C 259.214844 412.714844 249.714844 422.214844 238 422.214844 C 226.285156 422.214844 216.785156 412.714844 216.785156 401 C 216.785156 389.285156 226.285156 379.785156 238 379.785156 C 249.714844 379.785156 259.214844 389.285156 259.214844 401 "/>
<path style="fill-rule:nonzero;fill:rgb(55%,51%,53%);fill-opacity:1;stroke-width:1;stroke-linecap:butt;stroke-linejoin:miter;stroke:rgb(0%,0%,0%);stroke-opacity:1;stroke-miterlimit:10;" d="M 475.214844 281 C 475.214844 292.714844 465.714844 302.214844 454 302.214844 C 442.285156 302.214844 432.785156 292.714844 432.785156 281 C 432.785156 269.285156 442.285156 259.785156 454 259.785156 C 465.714844 259.785156 475.214844 269.285156 475.214844 281 "/>
<path style="fill-rule:nonzero;fill:rgb(55%,51%,53%);fill-opacity:1;stroke-width:1;stroke-linecap:butt;stroke-linejoin:miter;stroke:rgb(0%,0%,0%);stroke-opacity:1;stroke-miterlimit:10;" d="M 414.214844 101 C 414.214844 112.714844 404.714844 122.214844 393 122.214844 C 381.285156 122.214844 371.785156 112.714844 371.785156 101 C 371.785156 89.285156 381.285156 79.785156 393 79.785156 C 404.714844 79.785156 414.214844 89.285156 414.214844 101 "/>
<path style="fill-rule:nonzero;fill:rgb(55%,51%,53%);fill-opacity:1;stroke-width:1;stroke-linecap:butt;stroke-linejoin:miter;stroke:rgb(0%,0%,0%);stroke-opacity:1;stroke-miterlimit:10;" d="M 651.214844 320 C 651.214844 331.714844 641.714844 341.214844 630 341.214844 C 618.285156 341.214844 608.785156 331.714844 608.785156 320 C 608.785156 308.285156 618.285156 298.785156 630 298.785156 C 641.714844 298.785156 651.214844 308.285156 651.214844 320 "/>
<path style="fill-rule:nonzero;fill:rgb(55%,51%,53%);fill-opacity:1;stroke-width:1;stroke-linecap:butt;stroke-linejoin:miter;stroke:rgb(0%,0%,0%);stroke-opacity:1;stroke-miterlimit:10;" d="M 975.214844 194 C 975.214844 205.714844 965.714844 215.214844 954 215.214844 C 942.285156 215.214844 932.785156 205.714844 932.785156 194 C 932.785156 182.285156 942.285156 172.785156 954 172.785156 C 965.714844 172.785156 975.214844 182.285156 975.214844 194 "/>
</g>
</svg>
