<?xml version="1.0" encoding="UTF-8"?>
<svg xmlns="http://www.w3.org/2000/svg" xmlns:xlink="http://www.w3.org/1999/xlink" width="1179pt" height="517pt" viewBox="0 0 1179 517" version="1.1">
<g id="surface886">
<rect x="0" y="0" width="1179" height="517" style="fill:rgb(90%,90%,90%);fill-opacity:1;stroke:none;"/>
<path style="fill-rule:nonzero;fill:rgb(55%,51%,53%);fill-opacity:1;stroke-width:1;stroke-linecap:butt;stroke-linejoin:miter;stroke:rgb(0%,0%,0%);stroke-opacity:1;stroke-miterlimit:10;" d="M 113.214844 383 C 113.214844 394.714844 103.714844 404.214844 92 404.214844 C 80.285156 404.214844 70.785156 394.714844 70.785156 383 C 70.785156 371.285156 80.285156 361.785156 92 361.785156 C 103.714844 361.785156 113.214844 371.285156 113.214844 383 "/>
<path style="fill-rule:nonzero;fill:rgb(55%,51%,53%);fill-opacity:1;stroke-width:1;stroke-linecap:butt;stroke-linejoin:miter;stroke:rgb(0%,0%,0%);stroke-opacity:1;stroke-miterlimit:10;" d="M 196.214844 299 C 196.214844 310.714844 186.714844 320.214844 175 320.214844 C 163.285156 320.214844 153.785156 310.714844 153.785156 299 C 153.785156 287.285156 163.285156 277.785156 175 277.785156 C 186.714844 277.785156 196.214844 287.285156 196.214844 299 "/>
<path style="fill-rule:nonzero;fill:rgb(67%,100%,18%);fill-opacity:1;stroke-width:1;stroke-linecap:butt;stroke-linejoin:miter;stroke:rgb(0%,0%,0%);stroke-opacity:1;stroke-miterlimit:10;" d="M 239.214844 140 C 239.214844 151.714844 229.714844 161.214844 218 161.214844 C 206.285156 161.214844 196.785156 151.714844 196.785156 140 C 196.785156 128.285156 206.285156 118.785156 218 118.785156 C 229.714844 118.785156 239.214844 128.285156 239.214844 140 "/>
<path style="fill-rule:nonzero;fill:rgb(67%,100%,18%);fill-opacity:1;stroke-width:1;stroke-linecap:butt;stroke-linejoin:miter;stroke:rgb(0%,0%,0%);stroke-opacity:1;stroke-miterlimit:10;" d="M 444.214844 99 C 444.214844 110.714844 434.714844 120.214844 423 120.214844 C 411.285156 120.214844 401.785156 110.714844 401.785156 99 C 401.785156 87.285156 411.285156 77.785156 423 77.785156 C 434.714844 77.785156 444.214844 87.285156 444.214844 99 "/>
<path style="fill-rule:nonzero;fill:rgb(55%,51%,53%);fill-opacity:1;stroke-width:1;stroke-linecap:butt;stroke-linejoin:miter;stroke:rgb(0%,0%,0%);stroke-opacity:1;stroke-miterlimit:10;" d="M 379.214844 197 C 379.214844 208.714844 369.714844 218.214844 358 218.214844 C 346.285156 218.214844 336.785156 208.714844 336.785156 197 C 336.785156 185.285156 346.285156 175.785156 358 175.785156 C 369.714844 175.785156 379.214844 185.285156 379.214844 197 "/>
<path style="fill-rule:nonzero;fill:rgb(67%,100%,18%);fill-opacity:1;stroke-width:1;stroke-linecap:butt;stroke-linejoin:miter;stroke:rgb(0%,0%,0%);stroke-opacity:1;stroke-miterlimit:10;" d="M 998 264 L 972.019531 309 L 1023.980469 309 L 998 264 "/>
<path style="fill-rule:nonzero;fill:rgb(67%,100%,18%);fill-opacity:1;stroke-width:1;stroke-linecap:butt;stroke-linejoin:miter;stroke:rgb(0%,0%,0%);stroke-opacity:1;stroke-miterlimit:10;" d="M 857 279 L 831.019531 324 L 882.980469 324 L 857 279 "/>
<path style="fill-rule:nonzero;fill:rgb(55%,51%,53%);fill-opacity:1;stroke-width:1;stroke-linecap:butt;stroke-linejoin:miter;stroke:rgb(0%,0%,0%);stroke-opacity:1;stroke-miterlimit:10;" d="M 889 170 L 863.019531 215 L 914.980469 215 L 889 170 "/>
<path style="fill-rule:nonzero;fill:rgb(55%,51%,53%);fill-opacity:1;stroke-width:1;stroke-linecap:butt;stroke-linejoin:miter;stroke:rgb(0%,0%,0%);stroke-opacity:1;stroke-miterlimit:10;" d="M 977 392 L 951.019531 437 L 1002.980469 437 L 977 392 "/>
</g>
</svg>
