<?xml version="1.0" encoding="UTF-8"?>
<svg xmlns="http://www.w3.org/2000/svg" xmlns:xlink="http://www.w3.org/1999/xlink" width="1179pt" height="517pt" viewBox="0 0 1179 517" version="1.1">
<g id="surface1451">
<rect x="0" y="0" width="1179" height="517" style="fill:rgb(90%,90%,90%);fill-opacity:1;stroke:none;"/>
<path style="fill-rule:nonzero;fill:rgb(35%,70%,90%);fill-opacity:1;stroke-width:1;stroke-linecap:butt;stroke-linejoin:miter;stroke:rgb(0%,0%,0%);stroke-opacity:1;stroke-miterlimit:10;" d="M 776.214844 289 C 776.214844 300.714844 766.714844 310.214844 755 310.214844 C 743.285156 310.214844 733.785156 300.714844 733.785156 289 C 733.785156 277.285156 743.285156 267.785156 755 267.785156 C 766.714844 267.785156 776.214844 277.285156 776.214844 289 "/>
<path style="fill-rule:nonzero;fill:rgb(35%,70%,90%);fill-opacity:1;stroke-width:1;stroke-linecap:butt;stroke-linejoin:miter;stroke:rgb(0%,0%,0%);stroke-opacity:1;stroke-miterlimit:10;" d="M 235.214844 142 C 235.214844 153.714844 225.714844 163.214844 214 163.214844 C 202.285156 163.214844 192.785156 153.714844 192.785156 142 C 192.785156 130.285156 202.285156 120.785156 214 120.785156 C 225.714844 120.785156 235.214844 130.285156 235.214844 142 "/>
<path style="fill-rule:nonzero;fill:rgb(35%,70%,90%);fill-opacity:1;stroke-width:1;stroke-linecap:butt;stroke-linejoin:miter;stroke:rgb(0%,0%,0%);stroke-opacity:1;stroke-miterlimit:10;" d="M 359.214844 141 C 359.214844 152.714844 349.714844 162.214844 338 162.214844 C 326.285156 162.214844 316.785156 152.714844 316.785156 141 C 316.785156 129.285156 326.285156 119.785156 338 119.785156 C 349.714844 119.785156 359.214844 129.285156 359.214844 141 "/>
<path style="fill-rule:nonzero;fill:rgb(35%,70%,90%);fill-opacity:1;stroke-width:1;stroke-linecap:butt;stroke-linejoin:miter;stroke:rgb(0%,0%,0%);stroke-opacity:1;stroke-miterlimit:10;" d="M 481.214844 199 C 481.214844 210.714844 471.714844 220.214844 460 220.214844 C 448.285156 220.214844 438.785156 210.714844 438.785156 199 C 438.785156 187.285156 448.285156 177.785156 460 177.785156 C 471.714844 177.785156 481.214844 187.285156 481.214844 199 "/>
<path style="fill-rule:nonzero;fill:rgb(55%,51%,53%);fill-opacity:1;stroke-width:1;stroke-linecap:butt;stroke-linejoin:miter;stroke:rgb(0%,0%,0%);stroke-opacity:1;stroke-miterlimit:10;" d="M 343 292 L 372.664062 292 L 384.664062 263.785156 L 396.664062 292 L 426.332031 292 L 402.332031 309.4375 L 410.417969 340.980469 L 384.664062 323.542969 L 358.914062 340.980469 L 371.214844 309.4375 L 343 292 "/>
<path style="fill-rule:nonzero;fill:rgb(55%,51%,53%);fill-opacity:1;stroke-width:1;stroke-linecap:butt;stroke-linejoin:miter;stroke:rgb(0%,0%,0%);stroke-opacity:1;stroke-miterlimit:10;" d="M 595 84 L 624.664062 84 L 636.664062 55.785156 L 648.664062 84 L 678.332031 84 L 654.332031 101.4375 L 662.417969 132.980469 L 636.664062 115.542969 L 610.914062 132.980469 L 623.214844 101.4375 L 595 84 "/>
<path style="fill-rule:nonzero;fill:rgb(55%,51%,53%);fill-opacity:1;stroke-width:1;stroke-linecap:butt;stroke-linejoin:miter;stroke:rgb(0%,0%,0%);stroke-opacity:1;stroke-miterlimit:10;" d="M 339 426 L 368.664062 426 L 380.664062 397.785156 L 392.664062 426 L 422.332031 426 L 398.332031 443.4375 L 406.417969 474.980469 L 380.664062 457.542969 L 354.914062 474.980469 L 367.214844 443.4375 L 339 426 "/>
<path style="fill-rule:nonzero;fill:rgb(55%,51%,53%);fill-opacity:1;stroke-width:1;stroke-linecap:butt;stroke-linejoin:miter;stroke:rgb(0%,0%,0%);stroke-opacity:1;stroke-miterlimit:10;" d="M 473 432 L 502.664062 432 L 514.664062 403.785156 L 526.664062 432 L 556.332031 432 L 532.332031 449.4375 L 540.417969 480.980469 L 514.664062 463.542969 L 488.914062 480.980469 L 501.214844 449.4375 L 473 432 "/>
</g>
</svg>
