<?xml version="1.0" encoding="UTF-8"?>
<svg xmlns="http://www.w3.org/2000/svg" xmlns:xlink="http://www.w3.org/1999/xlink" width="1179pt" height="517pt" viewBox="0 0 1179 517" version="1.1">
<g id="surface241">
<rect x="0" y="0" width="1179" height="517" style="fill:rgb(90%,90%,90%);fill-opacity:1;stroke:none;"/>
<path style="fill-rule:nonzero;fill:rgb(35%,70%,90%);fill-opacity:1;stroke-width:1;stroke-linecap:butt;stroke-linejoin:miter;stroke:rgb(0%,0%,0%);stroke-opacity:1;stroke-miterlimit:10;" d="M 1042 247 L 1071.664062 247 L 1083.664062 218.785156 L 1095.664062 247 L 1125.332031 247 L 1101.332031 264.4375 L 1109.417969 295.980469 L 1083.664062 278.542969 L 1057.914062 295.980469 L 1070.214844 264.4375 L 1042 247 "/>
<path style="fill-rule:nonzero;fill:rgb(35%,70%,90%);fill-opacity:1;stroke-width:1;stroke-linecap:butt;stroke-linejoin:miter;stroke:rgb(0%,0%,0%);stroke-opacity:1;stroke-miterlimit:10;" d="M 193 169 L 222.664062 169 L 234.664062 140.785156 L 246.664062 169 L 276.332031 169 L 252.332031 186.4375 L 260.417969 217.980469 L 234.664062 200.542969 L 208.914062 217.980469 L 221.214844 186.4375 L 193 169 "/>
<path style="fill-rule:nonzero;fill:rgb(35%,70%,90%);fill-opacity:1;stroke-width:1;stroke-linecap:butt;stroke-linejoin:miter;stroke:rgb(0%,0%,0%);stroke-opacity:1;stroke-miterlimit:10;" d="M 323 230 L 352.664062 230 L 364.664062 201.785156 L 376.664062 230 L 406.332031 230 L 382.332031 247.4375 L 390.417969 278.980469 L 364.664062 261.542969 L 338.914062 278.980469 L 351.214844 247.4375 L 323 230 "/>
<path style="fill-rule:nonzero;fill:rgb(55%,51%,53%);fill-opacity:1;stroke-width:1;stroke-linecap:butt;stroke-linejoin:miter;stroke:rgb(0%,0%,0%);stroke-opacity:1;stroke-miterlimit:10;" d="M 926.214844 347 C 926.214844 358.714844 916.714844 368.214844 905 368.214844 C 893.285156 368.214844 883.785156 358.714844 883.785156 347 C 883.785156 335.285156 893.285156 325.785156 905 325.785156 C 916.714844 325.785156 926.214844 335.285156 926.214844 347 "/>
<path style="fill-rule:nonzero;fill:rgb(55%,51%,53%);fill-opacity:1;stroke-width:1;stroke-linecap:butt;stroke-linejoin:miter;stroke:rgb(0%,0%,0%);stroke-opacity:1;stroke-miterlimit:10;" d="M 352.214844 93 C 352.214844 104.714844 342.714844 114.214844 331 114.214844 C 319.285156 114.214844 309.785156 104.714844 309.785156 93 C 309.785156 81.285156 319.285156 71.785156 331 71.785156 C 342.714844 71.785156 352.214844 81.285156 352.214844 93 "/>
<path style="fill-rule:nonzero;fill:rgb(55%,51%,53%);fill-opacity:1;stroke-width:1;stroke-linecap:butt;stroke-linejoin:miter;stroke:rgb(0%,0%,0%);stroke-opacity:1;stroke-miterlimit:10;" d="M 284.214844 394 C 284.214844 405.714844 274.714844 415.214844 263 415.214844 C 251.285156 415.214844 241.785156 405.714844 241.785156 394 C 241.785156 382.285156 251.285156 372.785156 263 372.785156 C 274.714844 372.785156 284.214844 382.285156 284.214844 394 "/>
<path style="fill-rule:nonzero;fill:rgb(55%,51%,53%);fill-opacity:1;stroke-width:1;stroke-linecap:butt;stroke-linejoin:miter;stroke:rgb(0%,0%,0%);stroke-opacity:1;stroke-miterlimit:10;" d="M 444.214844 402 C 444.214844 413.714844 434.714844 423.214844 423 423.214844 C 411.285156 423.214844 401.785156 413.714844 401.785156 402 C 401.785156 390.285156 411.285156 380.785156 423 380.785156 C 434.714844 380.785156 444.214844 390.285156 444.214844 402 "/>
<path style="fill-rule:nonzero;fill:rgb(55%,51%,53%);fill-opacity:1;stroke-width:1;stroke-linecap:butt;stroke-linejoin:miter;stroke:rgb(0%,0%,0%);stroke-opacity:1;stroke-miterlimit:10;" d="M 486.214844 246 C 486.214844 257.714844 476.714844 267.214844 465 267.214844 C 453.285156 267.214844 443.785156 257.714844 443.785156 246 C 443.785156 234.285156 453.285156 224.785156 465 224.785156 C 476.714844 224.785156 486.214844 234.285156 486.214844 246 "/>
</g>
</svg>
