<?xml version="1.0" encoding="UTF-8"?>
<svg xmlns="http://www.w3.org/2000/svg" xmlns:xlink="http://www.w3.org/1999/xlink" width="1179pt" height="517pt" viewBox="0 0 1179 517" version="1.1">
<g id="surface121">
<rect x="0" y="0" width="1179" height="517" style="fill:rgb(90%,90%,90%);fill-opacity:1;stroke:none;"/>
<path style="fill-rule:nonzero;fill:rgb(100%,51%,0%);fill-opacity:1;stroke-width:1;stroke-linecap:butt;stroke-linejoin:miter;stroke:rgb(0%,0%,0%);stroke-opacity:1;stroke-miterlimit:10;" d="M 498 367 L 527.664062 367 L 539.664062 338.785156 L 551.664062 367 L 581.332031 367 L 557.332031 384.4375 L 565.417969 415.980469 L 539.664062 398.542969 L 513.914062 415.980469 L 526.214844 384.4375 L 498 367 "/>
<path style="fill-rule:nonzero;fill:rgb(100%,51%,0%);fill-opacity:1;stroke-width:1;stroke-linecap:butt;stroke-linejoin:miter;stroke:rgb(0%,0%,0%);stroke-opacity:1;stroke-miterlimit:10;" d="M 203 110 L 232.664062 110 L 244.664062 81.785156 L 256.664062 110 L 286.332031 110 L 262.332031 127.4375 L 270.417969 158.980469 L 244.664062 141.542969 L 218.914062 158.980469 L 231.214844 127.4375 L 203 110 "/>
<path style="fill-rule:nonzero;fill:rgb(100%,51%,0%);fill-opacity:1;stroke-width:1;stroke-linecap:butt;stroke-linejoin:miter;stroke:rgb(0%,0%,0%);stroke-opacity:1;stroke-miterlimit:10;" d="M 767 428 L 796.664062 428 L 808.664062 399.785156 L 820.664062 428 L 850.332031 428 L 826.332031 445.4375 L 834.417969 476.980469 L 808.664062 459.542969 L 782.914062 476.980469 L 795.214844 445.4375 L 767 428 "/>
<path style="fill-rule:nonzero;fill:rgb(100%,51%,0%);fill-opacity:1;stroke-width:1;stroke-linecap:butt;stroke-linejoin:miter;stroke:rgb(0%,0%,0%);stroke-opacity:1;stroke-miterlimit:10;" d="M 173 300 L 202.664062 300 L 214.664062 271.785156 L 226.664062 300 L 256.332031 300 L 232.332031 317.4375 L 240.417969 348.980469 L 214.664062 331.542969 L 188.914062 348.980469 L 201.214844 317.4375 L 173 300 "/>
<path style="fill-rule:nonzero;fill:rgb(55%,51%,53%);fill-opacity:1;stroke-width:1;stroke-linecap:butt;stroke-linejoin:miter;stroke:rgb(0%,0%,0%);stroke-opacity:1;stroke-miterlimit:10;" d="M 691.214844 286 C 691.214844 297.714844 681.714844 307.214844 670 307.214844 C 658.285156 307.214844 648.785156 297.714844 648.785156 286 C 648.785156 274.285156 658.285156 264.785156 670 264.785156 C 681.714844 264.785156 691.214844 274.285156 691.214844 286 "/>
<path style="fill-rule:nonzero;fill:rgb(55%,51%,53%);fill-opacity:1;stroke-width:1;stroke-linecap:butt;stroke-linejoin:miter;stroke:rgb(0%,0%,0%);stroke-opacity:1;stroke-miterlimit:10;" d="M 911.214844 251 C 911.214844 262.714844 901.714844 272.214844 890 272.214844 C 878.285156 272.214844 868.785156 262.714844 868.785156 251 C 868.785156 239.285156 878.285156 229.785156 890 229.785156 C 901.714844 229.785156 911.214844 239.285156 911.214844 251 "/>
<path style="fill-rule:nonzero;fill:rgb(55%,51%,53%);fill-opacity:1;stroke-width:1;stroke-linecap:butt;stroke-linejoin:miter;stroke:rgb(0%,0%,0%);stroke-opacity:1;stroke-miterlimit:10;" d="M 124.214844 182 C 124.214844 193.714844 114.714844 203.214844 103 203.214844 C 91.285156 203.214844 81.785156 193.714844 81.785156 182 C 81.785156 170.285156 91.285156 160.785156 103 160.785156 C 114.714844 160.785156 124.214844 170.285156 124.214844 182 "/>
<path style="fill-rule:nonzero;fill:rgb(55%,51%,53%);fill-opacity:1;stroke-width:1;stroke-linecap:butt;stroke-linejoin:miter;stroke:rgb(0%,0%,0%);stroke-opacity:1;stroke-miterlimit:10;" d="M 455.214844 126 C 455.214844 137.714844 445.714844 147.214844 434 147.214844 C 422.285156 147.214844 412.785156 137.714844 412.785156 126 C 412.785156 114.285156 422.285156 104.785156 434 104.785156 C 445.714844 104.785156 455.214844 114.285156 455.214844 126 "/>
<path style="fill-rule:nonzero;fill:rgb(55%,51%,53%);fill-opacity:1;stroke-width:1;stroke-linecap:butt;stroke-linejoin:miter;stroke:rgb(0%,0%,0%);stroke-opacity:1;stroke-miterlimit:10;" d="M 390.214844 328 C 390.214844 339.714844 380.714844 349.214844 369 349.214844 C 357.285156 349.214844 347.785156 339.714844 347.785156 328 C 347.785156 316.285156 357.285156 306.785156 369 306.785156 C 380.714844 306.785156 390.214844 316.285156 390.214844 328 "/>
</g>
</svg>
