<?xml version="1.0" encoding="UTF-8"?>
<svg xmlns="http://www.w3.org/2000/svg" xmlns:xlink="http://www.w3.org/1999/xlink" width="1179pt" height="517pt" viewBox="0 0 1179 517" version="1.1">
<g id="surface496">
<rect x="0" y="0" width="1179" height="517" style="fill:rgb(90%,90%,90%);fill-opacity:1;stroke:none;"/>
<path style="fill-rule:nonzero;fill:rgb(100%,51%,0%);fill-opacity:1;stroke-width:1;stroke-linecap:butt;stroke-linejoin:miter;stroke:rgb(0%,0%,0%);stroke-opacity:1;stroke-miterlimit:10;" d="M 364.214844 136 C 364.214844 147.714844 354.714844 157.214844 343 157.214844 C 331.285156 157.214844 321.785156 147.714844 321.785156 136 C 321.785156 124.285156 331.285156 114.785156 343 114.785156 C 354.714844 114.785156 364.214844 124.285156 364.214844 136 "/>
<path style="fill-rule:nonzero;fill:rgb(100%,51%,0%);fill-opacity:1;stroke-width:1;stroke-linecap:butt;stroke-linejoin:miter;stroke:rgb(0%,0%,0%);stroke-opacity:1;stroke-miterlimit:10;" d="M 190.214844 294 C 190.214844 305.714844 180.714844 315.214844 169 315.214844 C 157.285156 315.214844 147.785156 305.714844 147.785156 294 C 147.785156 282.285156 157.285156 272.785156 169 272.785156 C 180.714844 272.785156 190.214844 282.285156 190.214844 294 "/>
<path style="fill-rule:nonzero;fill:rgb(100%,51%,0%);fill-opacity:1;stroke-width:1;stroke-linecap:butt;stroke-linejoin:miter;stroke:rgb(0%,0%,0%);stroke-opacity:1;stroke-miterlimit:10;" d="M 228 66 L 202.019531 111 L 253.980469 111 L 228 66 "/>
<path style="fill-rule:nonzero;fill:rgb(100%,51%,0%);fill-opacity:1;stroke-width:1;stroke-linecap:butt;stroke-linejoin:miter;stroke:rgb(0%,0%,0%);stroke-opacity:1;stroke-miterlimit:10;" d="M 337.214844 295 C 337.214844 306.714844 327.714844 316.214844 316 316.214844 C 304.285156 316.214844 294.785156 306.714844 294.785156 295 C 294.785156 283.285156 304.285156 273.785156 316 273.785156 C 327.714844 273.785156 337.214844 283.285156 337.214844 295 "/>
<path style="fill-rule:nonzero;fill:rgb(100%,51%,0%);fill-opacity:1;stroke-width:1;stroke-linecap:butt;stroke-linejoin:miter;stroke:rgb(0%,0%,0%);stroke-opacity:1;stroke-miterlimit:10;" d="M 133.214844 170 C 133.214844 181.714844 123.714844 191.214844 112 191.214844 C 100.285156 191.214844 90.785156 181.714844 90.785156 170 C 90.785156 158.285156 100.285156 148.785156 112 148.785156 C 123.714844 148.785156 133.214844 158.285156 133.214844 170 "/>
<path style="fill-rule:nonzero;fill:rgb(55%,51%,53%);fill-opacity:1;stroke-width:1;stroke-linecap:butt;stroke-linejoin:miter;stroke:rgb(0%,0%,0%);stroke-opacity:1;stroke-miterlimit:10;" d="M 911 338 L 885.019531 383 L 936.980469 383 L 911 338 "/>
<path style="fill-rule:nonzero;fill:rgb(55%,51%,53%);fill-opacity:1;stroke-width:1;stroke-linecap:butt;stroke-linejoin:miter;stroke:rgb(0%,0%,0%);stroke-opacity:1;stroke-miterlimit:10;" d="M 695 244 L 669.019531 289 L 720.980469 289 L 695 244 "/>
<path style="fill-rule:nonzero;fill:rgb(55%,51%,53%);fill-opacity:1;stroke-width:1;stroke-linecap:butt;stroke-linejoin:miter;stroke:rgb(0%,0%,0%);stroke-opacity:1;stroke-miterlimit:10;" d="M 1056.214844 310 C 1056.214844 321.714844 1046.714844 331.214844 1035 331.214844 C 1023.285156 331.214844 1013.785156 321.714844 1013.785156 310 C 1013.785156 298.285156 1023.285156 288.785156 1035 288.785156 C 1046.714844 288.785156 1056.214844 298.285156 1056.214844 310 "/>
<path style="fill-rule:nonzero;fill:rgb(55%,51%,53%);fill-opacity:1;stroke-width:1;stroke-linecap:butt;stroke-linejoin:miter;stroke:rgb(0%,0%,0%);stroke-opacity:1;stroke-miterlimit:10;" d="M 869 152 L 843.019531 197 L 894.980469 197 L 869 152 "/>
</g>
</svg>
