<?xml version="1.0" encoding="UTF-8"?>
<svg xmlns="http://www.w3.org/2000/svg" xmlns:xlink="http://www.w3.org/1999/xlink" width="1179pt" height="517pt" viewBox="0 0 1179 517" version="1.1">
<g id="surface221">
<rect x="0" y="0" width="1179" height="517" style="fill:rgb(90%,90%,90%);fill-opacity:1;stroke:none;"/>
<path style="fill-rule:nonzero;fill:rgb(35%,70%,90%);fill-opacity:1;stroke-width:1;stroke-linecap:butt;stroke-linejoin:miter;stroke:rgb(0%,0%,0%);stroke-opacity:1;stroke-miterlimit:10;" d="M 363 298 L 392.664062 298 L 404.664062 269.785156 L 416.664062 298 L 446.332031 298 L 422.332031 315.4375 L 430.417969 346.980469 L 404.664062 329.542969 L 378.914062 346.980469 L 391.214844 315.4375 L 363 298 "/>
<path style="fill-rule:nonzero;fill:rgb(35%,70%,90%);fill-opacity:1;stroke-width:1;stroke-linecap:butt;stroke-linejoin:miter;stroke:rgb(0%,0%,0%);stroke-opacity:1;stroke-miterlimit:10;" d="M 249 196 L 278.664062 196 L 290.664062 167.785156 L 302.664062 196 L 332.332031 196 L 308.332031 213.4375 L 316.417969 244.980469 L 290.664062 227.542969 L 264.914062 244.980469 L 277.214844 213.4375 L 249 196 "/>
<path style="fill-rule:nonzero;fill:rgb(53%,27%,7%);fill-opacity:1;stroke-width:1;stroke-linecap:butt;stroke-linejoin:miter;stroke:rgb(0%,0%,0%);stroke-opacity:1;stroke-miterlimit:10;" d="M 209 372 L 238.664062 372 L 250.664062 343.785156 L 262.664062 372 L 292.332031 372 L 268.332031 389.4375 L 276.417969 420.980469 L 250.664062 403.542969 L 224.914062 420.980469 L 237.214844 389.4375 L 209 372 "/>
<path style="fill-rule:nonzero;fill:rgb(53%,27%,7%);fill-opacity:1;stroke-width:1;stroke-linecap:butt;stroke-linejoin:miter;stroke:rgb(0%,0%,0%);stroke-opacity:1;stroke-miterlimit:10;" d="M 393 427 L 422.664062 427 L 434.664062 398.785156 L 446.664062 427 L 476.332031 427 L 452.332031 444.4375 L 460.417969 475.980469 L 434.664062 458.542969 L 408.914062 475.980469 L 421.214844 444.4375 L 393 427 "/>
<path style="fill-rule:nonzero;fill:rgb(53%,27%,7%);fill-opacity:1;stroke-width:1;stroke-linecap:butt;stroke-linejoin:miter;stroke:rgb(0%,0%,0%);stroke-opacity:1;stroke-miterlimit:10;" d="M 747.785156 184.785156 L 747.785156 227.214844 L 790.214844 227.214844 L 790.214844 184.785156 L 747.785156 184.785156 "/>
<path style="fill-rule:nonzero;fill:rgb(53%,27%,7%);fill-opacity:1;stroke-width:1;stroke-linecap:butt;stroke-linejoin:miter;stroke:rgb(0%,0%,0%);stroke-opacity:1;stroke-miterlimit:10;" d="M 978.785156 182.785156 L 978.785156 225.214844 L 1021.214844 225.214844 L 1021.214844 182.785156 L 978.785156 182.785156 "/>
<path style="fill-rule:nonzero;fill:rgb(35%,70%,90%);fill-opacity:1;stroke-width:1;stroke-linecap:butt;stroke-linejoin:miter;stroke:rgb(0%,0%,0%);stroke-opacity:1;stroke-miterlimit:10;" d="M 804.785156 100.785156 L 804.785156 143.214844 L 847.214844 143.214844 L 847.214844 100.785156 L 804.785156 100.785156 "/>
</g>
</svg>
