<?xml version="1.0" encoding="UTF-8"?>
<svg xmlns="http://www.w3.org/2000/svg" xmlns:xlink="http://www.w3.org/1999/xlink" width="1179pt" height="517pt" viewBox="0 0 1179 517" version="1.1">
<g id="surface1401">
<rect x="0" y="0" width="1179" height="517" style="fill:rgb(90%,90%,90%);fill-opacity:1;stroke:none;"/>
<path style="fill-rule:nonzero;fill:rgb(100%,51%,0%);fill-opacity:1;stroke-width:1;stroke-linecap:butt;stroke-linejoin:miter;stroke:rgb(0%,0%,0%);stroke-opacity:1;stroke-miterlimit:10;" d="M 469 288 L 498.664062 288 L 510.664062 259.785156 L 522.664062 288 L 552.332031 288 L 528.332031 305.4375 L 536.417969 336.980469 L 510.664062 319.542969 L 484.914062 336.980469 L 497.214844 305.4375 L 469 288 "/>
<path style="fill-rule:nonzero;fill:rgb(100%,51%,0%);fill-opacity:1;stroke-width:1;stroke-linecap:butt;stroke-linejoin:miter;stroke:rgb(0%,0%,0%);stroke-opacity:1;stroke-miterlimit:10;" d="M 191 186 L 220.664062 186 L 232.664062 157.785156 L 244.664062 186 L 274.332031 186 L 250.332031 203.4375 L 258.417969 234.980469 L 232.664062 217.542969 L 206.914062 234.980469 L 219.214844 203.4375 L 191 186 "/>
<path style="fill-rule:nonzero;fill:rgb(100%,51%,0%);fill-opacity:1;stroke-width:1;stroke-linecap:butt;stroke-linejoin:miter;stroke:rgb(0%,0%,0%);stroke-opacity:1;stroke-miterlimit:10;" d="M 551 398 L 580.664062 398 L 592.664062 369.785156 L 604.664062 398 L 634.332031 398 L 610.332031 415.4375 L 618.417969 446.980469 L 592.664062 429.542969 L 566.914062 446.980469 L 579.214844 415.4375 L 551 398 "/>
<path style="fill-rule:nonzero;fill:rgb(100%,51%,0%);fill-opacity:1;stroke-width:1;stroke-linecap:butt;stroke-linejoin:miter;stroke:rgb(0%,0%,0%);stroke-opacity:1;stroke-miterlimit:10;" d="M 325 116 L 354.664062 116 L 366.664062 87.785156 L 378.664062 116 L 408.332031 116 L 384.332031 133.4375 L 392.417969 164.980469 L 366.664062 147.542969 L 340.914062 164.980469 L 353.214844 133.4375 L 325 116 "/>
<path style="fill-rule:nonzero;fill:rgb(55%,51%,53%);fill-opacity:1;stroke-width:1;stroke-linecap:butt;stroke-linejoin:miter;stroke:rgb(0%,0%,0%);stroke-opacity:1;stroke-miterlimit:10;" d="M 608.214844 122 C 608.214844 133.714844 598.714844 143.214844 587 143.214844 C 575.285156 143.214844 565.785156 133.714844 565.785156 122 C 565.785156 110.285156 575.285156 100.785156 587 100.785156 C 598.714844 100.785156 608.214844 110.285156 608.214844 122 "/>
<path style="fill-rule:nonzero;fill:rgb(55%,51%,53%);fill-opacity:1;stroke-width:1;stroke-linecap:butt;stroke-linejoin:miter;stroke:rgb(0%,0%,0%);stroke-opacity:1;stroke-miterlimit:10;" d="M 214.214844 407 C 214.214844 418.714844 204.714844 428.214844 193 428.214844 C 181.285156 428.214844 171.785156 418.714844 171.785156 407 C 171.785156 395.285156 181.285156 385.785156 193 385.785156 C 204.714844 385.785156 214.214844 395.285156 214.214844 407 "/>
<path style="fill-rule:nonzero;fill:rgb(55%,51%,53%);fill-opacity:1;stroke-width:1;stroke-linecap:butt;stroke-linejoin:miter;stroke:rgb(0%,0%,0%);stroke-opacity:1;stroke-miterlimit:10;" d="M 283.214844 304 C 283.214844 315.714844 273.714844 325.214844 262 325.214844 C 250.285156 325.214844 240.785156 315.714844 240.785156 304 C 240.785156 292.285156 250.285156 282.785156 262 282.785156 C 273.714844 282.785156 283.214844 292.285156 283.214844 304 "/>
<path style="fill-rule:nonzero;fill:rgb(55%,51%,53%);fill-opacity:1;stroke-width:1;stroke-linecap:butt;stroke-linejoin:miter;stroke:rgb(0%,0%,0%);stroke-opacity:1;stroke-miterlimit:10;" d="M 827.214844 284 C 827.214844 295.714844 817.714844 305.214844 806 305.214844 C 794.285156 305.214844 784.785156 295.714844 784.785156 284 C 784.785156 272.285156 794.285156 262.785156 806 262.785156 C 817.714844 262.785156 827.214844 272.285156 827.214844 284 "/>
<path style="fill-rule:nonzero;fill:rgb(55%,51%,53%);fill-opacity:1;stroke-width:1;stroke-linecap:butt;stroke-linejoin:miter;stroke:rgb(0%,0%,0%);stroke-opacity:1;stroke-miterlimit:10;" d="M 997.214844 360 C 997.214844 371.714844 987.714844 381.214844 976 381.214844 C 964.285156 381.214844 954.785156 371.714844 954.785156 360 C 954.785156 348.285156 964.285156 338.785156 976 338.785156 C 987.714844 338.785156 997.214844 348.285156 997.214844 360 "/>
</g>
</svg>
