<?xml version="1.0" encoding="UTF-8"?>
<svg xmlns="http://www.w3.org/2000/svg" xmlns:xlink="http://www.w3.org/1999/xlink" width="1179pt" height="517pt" viewBox="0 0 1179 517" version="1.1">
<g id="surface541">
<rect x="0" y="0" width="1179" height="517" style="fill:rgb(90%,90%,90%);fill-opacity:1;stroke:none;"/>
<path style="fill-rule:nonzero;fill:rgb(35%,70%,90%);fill-opacity:1;stroke-width:1;stroke-linecap:butt;stroke-linejoin:miter;stroke:rgb(0%,0%,0%);stroke-opacity:1;stroke-miterlimit:10;" d="M 759 155 L 788.664062 155 L 800.664062 126.785156 L 812.664062 155 L 842.332031 155 L 818.332031 172.4375 L 826.417969 203.980469 L 800.664062 186.542969 L 774.914062 203.980469 L 787.214844 172.4375 L 759 155 "/>
<path style="fill-rule:nonzero;fill:rgb(35%,70%,90%);fill-opacity:1;stroke-width:1;stroke-linecap:butt;stroke-linejoin:miter;stroke:rgb(0%,0%,0%);stroke-opacity:1;stroke-miterlimit:10;" d="M 901 268 L 930.664062 268 L 942.664062 239.785156 L 954.664062 268 L 984.332031 268 L 960.332031 285.4375 L 968.417969 316.980469 L 942.664062 299.542969 L 916.914062 316.980469 L 929.214844 285.4375 L 901 268 "/>
<path style="fill-rule:nonzero;fill:rgb(35%,70%,90%);fill-opacity:1;stroke-width:1;stroke-linecap:butt;stroke-linejoin:miter;stroke:rgb(0%,0%,0%);stroke-opacity:1;stroke-miterlimit:10;" d="M 487 90 L 516.664062 90 L 528.664062 61.785156 L 540.664062 90 L 570.332031 90 L 546.332031 107.4375 L 554.417969 138.980469 L 528.664062 121.542969 L 502.914062 138.980469 L 515.214844 107.4375 L 487 90 "/>
<path style="fill-rule:nonzero;fill:rgb(100%,51%,0%);fill-opacity:1;stroke-width:1;stroke-linecap:butt;stroke-linejoin:miter;stroke:rgb(0%,0%,0%);stroke-opacity:1;stroke-miterlimit:10;" d="M 168.214844 388 C 168.214844 399.714844 158.714844 409.214844 147 409.214844 C 135.285156 409.214844 125.785156 399.714844 125.785156 388 C 125.785156 376.285156 135.285156 366.785156 147 366.785156 C 158.714844 366.785156 168.214844 376.285156 168.214844 388 "/>
<path style="fill-rule:nonzero;fill:rgb(100%,51%,0%);fill-opacity:1;stroke-width:1;stroke-linecap:butt;stroke-linejoin:miter;stroke:rgb(0%,0%,0%);stroke-opacity:1;stroke-miterlimit:10;" d="M 240.214844 119 C 240.214844 130.714844 230.714844 140.214844 219 140.214844 C 207.285156 140.214844 197.785156 130.714844 197.785156 119 C 197.785156 107.285156 207.285156 97.785156 219 97.785156 C 230.714844 97.785156 240.214844 107.285156 240.214844 119 "/>
<path style="fill-rule:nonzero;fill:rgb(100%,51%,0%);fill-opacity:1;stroke-width:1;stroke-linecap:butt;stroke-linejoin:miter;stroke:rgb(0%,0%,0%);stroke-opacity:1;stroke-miterlimit:10;" d="M 797.214844 425 C 797.214844 436.714844 787.714844 446.214844 776 446.214844 C 764.285156 446.214844 754.785156 436.714844 754.785156 425 C 754.785156 413.285156 764.285156 403.785156 776 403.785156 C 787.714844 403.785156 797.214844 413.285156 797.214844 425 "/>
</g>
</svg>
