<?xml version="1.0" encoding="UTF-8"?>
<svg xmlns="http://www.w3.org/2000/svg" xmlns:xlink="http://www.w3.org/1999/xlink" width="1179pt" height="517pt" viewBox="0 0 1179 517" version="1.1">
<g id="surface441">
<rect x="0" y="0" width="1179" height="517" style="fill:rgb(90%,90%,90%);fill-opacity:1;stroke:none;"/>
<path style="fill-rule:nonzero;fill:rgb(35%,70%,90%);fill-opacity:1;stroke-width:1;stroke-linecap:butt;stroke-linejoin:miter;stroke:rgb(0%,0%,0%);stroke-opacity:1;stroke-miterlimit:10;" d="M 376.214844 119 C 376.214844 130.714844 366.714844 140.214844 355 140.214844 C 343.285156 140.214844 333.785156 130.714844 333.785156 119 C 333.785156 107.285156 343.285156 97.785156 355 97.785156 C 366.714844 97.785156 376.214844 107.285156 376.214844 119 "/>
<path style="fill-rule:nonzero;fill:rgb(55%,51%,53%);fill-opacity:1;stroke-width:1;stroke-linecap:butt;stroke-linejoin:miter;stroke:rgb(0%,0%,0%);stroke-opacity:1;stroke-miterlimit:10;" d="M 333.214844 338 C 333.214844 349.714844 323.714844 359.214844 312 359.214844 C 300.285156 359.214844 290.785156 349.714844 290.785156 338 C 290.785156 326.285156 300.285156 316.785156 312 316.785156 C 323.714844 316.785156 333.214844 326.285156 333.214844 338 "/>
<path style="fill-rule:nonzero;fill:rgb(35%,70%,90%);fill-opacity:1;stroke-width:1;stroke-linecap:butt;stroke-linejoin:miter;stroke:rgb(0%,0%,0%);stroke-opacity:1;stroke-miterlimit:10;" d="M 174.214844 287 C 174.214844 298.714844 164.714844 308.214844 153 308.214844 C 141.285156 308.214844 131.785156 298.714844 131.785156 287 C 131.785156 275.285156 141.285156 265.785156 153 265.785156 C 164.714844 265.785156 174.214844 275.285156 174.214844 287 "/>
<path style="fill-rule:nonzero;fill:rgb(35%,70%,90%);fill-opacity:1;stroke-width:1;stroke-linecap:butt;stroke-linejoin:miter;stroke:rgb(0%,0%,0%);stroke-opacity:1;stroke-miterlimit:10;" d="M 306.214844 246 C 306.214844 257.714844 296.714844 267.214844 285 267.214844 C 273.285156 267.214844 263.785156 257.714844 263.785156 246 C 263.785156 234.285156 273.285156 224.785156 285 224.785156 C 296.714844 224.785156 306.214844 234.285156 306.214844 246 "/>
<path style="fill-rule:nonzero;fill:rgb(55%,51%,53%);fill-opacity:1;stroke-width:1;stroke-linecap:butt;stroke-linejoin:miter;stroke:rgb(0%,0%,0%);stroke-opacity:1;stroke-miterlimit:10;" d="M 779.785156 403.785156 L 779.785156 446.214844 L 822.214844 446.214844 L 822.214844 403.785156 L 779.785156 403.785156 "/>
<path style="fill-rule:nonzero;fill:rgb(35%,70%,90%);fill-opacity:1;stroke-width:1;stroke-linecap:butt;stroke-linejoin:miter;stroke:rgb(0%,0%,0%);stroke-opacity:1;stroke-miterlimit:10;" d="M 862.785156 237.785156 L 862.785156 280.214844 L 905.214844 280.214844 L 905.214844 237.785156 L 862.785156 237.785156 "/>
<path style="fill-rule:nonzero;fill:rgb(55%,51%,53%);fill-opacity:1;stroke-width:1;stroke-linecap:butt;stroke-linejoin:miter;stroke:rgb(0%,0%,0%);stroke-opacity:1;stroke-miterlimit:10;" d="M 783.785156 145.785156 L 783.785156 188.214844 L 826.214844 188.214844 L 826.214844 145.785156 L 783.785156 145.785156 "/>
</g>
</svg>
