<?xml version="1.0" encoding="UTF-8"?>
<svg xmlns="http://www.w3.org/2000/svg" xmlns:xlink="http://www.w3.org/1999/xlink" width="1179pt" height="517pt" viewBox="0 0 1179 517" version="1.1">
<g id="surface831">
<rect x="0" y="0" width="1179" height="517" style="fill:rgb(90%,90%,90%);fill-opacity:1;stroke:none;"/>
<path style="fill-rule:nonzero;fill:rgb(100%,51%,0%);fill-opacity:1;stroke-width:1;stroke-linecap:butt;stroke-linejoin:miter;stroke:rgb(0%,0%,0%);stroke-opacity:1;stroke-miterlimit:10;" d="M 930.214844 280 C 930.214844 291.714844 920.714844 301.214844 909 301.214844 C 897.285156 301.214844 887.785156 291.714844 887.785156 280 C 887.785156 268.285156 897.285156 258.785156 909 258.785156 C 920.714844 258.785156 930.214844 268.285156 930.214844 280 "/>
<path style="fill-rule:nonzero;fill:rgb(100%,51%,0%);fill-opacity:1;stroke-width:1;stroke-linecap:butt;stroke-linejoin:miter;stroke:rgb(0%,0%,0%);stroke-opacity:1;stroke-miterlimit:10;" d="M 387.214844 407 C 387.214844 418.714844 377.714844 428.214844 366 428.214844 C 354.285156 428.214844 344.785156 418.714844 344.785156 407 C 344.785156 395.285156 354.285156 385.785156 366 385.785156 C 377.714844 385.785156 387.214844 395.285156 387.214844 407 "/>
<path style="fill-rule:nonzero;fill:rgb(100%,51%,0%);fill-opacity:1;stroke-width:1;stroke-linecap:butt;stroke-linejoin:miter;stroke:rgb(0%,0%,0%);stroke-opacity:1;stroke-miterlimit:10;" d="M 760.214844 427 C 760.214844 438.714844 750.714844 448.214844 739 448.214844 C 727.285156 448.214844 717.785156 438.714844 717.785156 427 C 717.785156 415.285156 727.285156 405.785156 739 405.785156 C 750.714844 405.785156 760.214844 415.285156 760.214844 427 "/>
<path style="fill-rule:nonzero;fill:rgb(35%,70%,90%);fill-opacity:1;stroke-width:1;stroke-linecap:butt;stroke-linejoin:miter;stroke:rgb(0%,0%,0%);stroke-opacity:1;stroke-miterlimit:10;" d="M 206 287 L 235.664062 287 L 247.664062 258.785156 L 259.664062 287 L 289.332031 287 L 265.332031 304.4375 L 273.417969 335.980469 L 247.664062 318.542969 L 221.914062 335.980469 L 234.214844 304.4375 L 206 287 "/>
<path style="fill-rule:nonzero;fill:rgb(35%,70%,90%);fill-opacity:1;stroke-width:1;stroke-linecap:butt;stroke-linejoin:miter;stroke:rgb(0%,0%,0%);stroke-opacity:1;stroke-miterlimit:10;" d="M 446 184 L 475.664062 184 L 487.664062 155.785156 L 499.664062 184 L 529.332031 184 L 505.332031 201.4375 L 513.417969 232.980469 L 487.664062 215.542969 L 461.914062 232.980469 L 474.214844 201.4375 L 446 184 "/>
<path style="fill-rule:nonzero;fill:rgb(35%,70%,90%);fill-opacity:1;stroke-width:1;stroke-linecap:butt;stroke-linejoin:miter;stroke:rgb(0%,0%,0%);stroke-opacity:1;stroke-miterlimit:10;" d="M 603 284 L 632.664062 284 L 644.664062 255.785156 L 656.664062 284 L 686.332031 284 L 662.332031 301.4375 L 670.417969 332.980469 L 644.664062 315.542969 L 618.914062 332.980469 L 631.214844 301.4375 L 603 284 "/>
<path style="fill-rule:nonzero;fill:rgb(35%,70%,90%);fill-opacity:1;stroke-width:1;stroke-linecap:butt;stroke-linejoin:miter;stroke:rgb(0%,0%,0%);stroke-opacity:1;stroke-miterlimit:10;" d="M 90 255 L 119.664062 255 L 131.664062 226.785156 L 143.664062 255 L 173.332031 255 L 149.332031 272.4375 L 157.417969 303.980469 L 131.664062 286.542969 L 105.914062 303.980469 L 118.214844 272.4375 L 90 255 "/>
<path style="fill-rule:nonzero;fill:rgb(35%,70%,90%);fill-opacity:1;stroke-width:1;stroke-linecap:butt;stroke-linejoin:miter;stroke:rgb(0%,0%,0%);stroke-opacity:1;stroke-miterlimit:10;" d="M 97 388 L 126.664062 388 L 138.664062 359.785156 L 150.664062 388 L 180.332031 388 L 156.332031 405.4375 L 164.417969 436.980469 L 138.664062 419.542969 L 112.914062 436.980469 L 125.214844 405.4375 L 97 388 "/>
</g>
</svg>
