<?xml version="1.0" encoding="UTF-8"?>
<svg xmlns="http://www.w3.org/2000/svg" xmlns:xlink="http://www.w3.org/1999/xlink" width="1179pt" height="517pt" viewBox="0 0 1179 517" version="1.1">
<g id="surface821">
<rect x="0" y="0" width="1179" height="517" style="fill:rgb(90%,90%,90%);fill-opacity:1;stroke:none;"/>
<path style="fill-rule:nonzero;fill:rgb(35%,70%,90%);fill-opacity:1;stroke-width:1;stroke-linecap:butt;stroke-linejoin:miter;stroke:rgb(0%,0%,0%);stroke-opacity:1;stroke-miterlimit:10;" d="M 599 184 L 628.664062 184 L 640.664062 155.785156 L 652.664062 184 L 682.332031 184 L 658.332031 201.4375 L 666.417969 232.980469 L 640.664062 215.542969 L 614.914062 232.980469 L 627.214844 201.4375 L 599 184 "/>
<path style="fill-rule:nonzero;fill:rgb(35%,70%,90%);fill-opacity:1;stroke-width:1;stroke-linecap:butt;stroke-linejoin:miter;stroke:rgb(0%,0%,0%);stroke-opacity:1;stroke-miterlimit:10;" d="M 317 395 L 346.664062 395 L 358.664062 366.785156 L 370.664062 395 L 400.332031 395 L 376.332031 412.4375 L 384.417969 443.980469 L 358.664062 426.542969 L 332.914062 443.980469 L 345.214844 412.4375 L 317 395 "/>
<path style="fill-rule:nonzero;fill:rgb(35%,70%,90%);fill-opacity:1;stroke-width:1;stroke-linecap:butt;stroke-linejoin:miter;stroke:rgb(0%,0%,0%);stroke-opacity:1;stroke-miterlimit:10;" d="M 453 304 L 482.664062 304 L 494.664062 275.785156 L 506.664062 304 L 536.332031 304 L 512.332031 321.4375 L 520.417969 352.980469 L 494.664062 335.542969 L 468.914062 352.980469 L 481.214844 321.4375 L 453 304 "/>
<path style="fill-rule:nonzero;fill:rgb(35%,70%,90%);fill-opacity:1;stroke-width:1;stroke-linecap:butt;stroke-linejoin:miter;stroke:rgb(0%,0%,0%);stroke-opacity:1;stroke-miterlimit:10;" d="M 809 299 L 838.664062 299 L 850.664062 270.785156 L 862.664062 299 L 892.332031 299 L 868.332031 316.4375 L 876.417969 347.980469 L 850.664062 330.542969 L 824.914062 347.980469 L 837.214844 316.4375 L 809 299 "/>
<path style="fill-rule:nonzero;fill:rgb(55%,51%,53%);fill-opacity:1;stroke-width:1;stroke-linecap:butt;stroke-linejoin:miter;stroke:rgb(0%,0%,0%);stroke-opacity:1;stroke-miterlimit:10;" d="M 1029.214844 386 C 1029.214844 397.714844 1019.714844 407.214844 1008 407.214844 C 996.285156 407.214844 986.785156 397.714844 986.785156 386 C 986.785156 374.285156 996.285156 364.785156 1008 364.785156 C 1019.714844 364.785156 1029.214844 374.285156 1029.214844 386 "/>
<path style="fill-rule:nonzero;fill:rgb(55%,51%,53%);fill-opacity:1;stroke-width:1;stroke-linecap:butt;stroke-linejoin:miter;stroke:rgb(0%,0%,0%);stroke-opacity:1;stroke-miterlimit:10;" d="M 220.214844 146 C 220.214844 157.714844 210.714844 167.214844 199 167.214844 C 187.285156 167.214844 177.785156 157.714844 177.785156 146 C 177.785156 134.285156 187.285156 124.785156 199 124.785156 C 210.714844 124.785156 220.214844 134.285156 220.214844 146 "/>
<path style="fill-rule:nonzero;fill:rgb(55%,51%,53%);fill-opacity:1;stroke-width:1;stroke-linecap:butt;stroke-linejoin:miter;stroke:rgb(0%,0%,0%);stroke-opacity:1;stroke-miterlimit:10;" d="M 860.214844 81 C 860.214844 92.714844 850.714844 102.214844 839 102.214844 C 827.285156 102.214844 817.785156 92.714844 817.785156 81 C 817.785156 69.285156 827.285156 59.785156 839 59.785156 C 850.714844 59.785156 860.214844 69.285156 860.214844 81 "/>
<path style="fill-rule:nonzero;fill:rgb(55%,51%,53%);fill-opacity:1;stroke-width:1;stroke-linecap:butt;stroke-linejoin:miter;stroke:rgb(0%,0%,0%);stroke-opacity:1;stroke-miterlimit:10;" d="M 420.214844 142 C 420.214844 153.714844 410.714844 163.214844 399 163.214844 C 387.285156 163.214844 377.785156 153.714844 377.785156 142 C 377.785156 130.285156 387.285156 120.785156 399 120.785156 C 410.714844 120.785156 420.214844 130.285156 420.214844 142 "/>
<path style="fill-rule:nonzero;fill:rgb(55%,51%,53%);fill-opacity:1;stroke-width:1;stroke-linecap:butt;stroke-linejoin:miter;stroke:rgb(0%,0%,0%);stroke-opacity:1;stroke-miterlimit:10;" d="M 318.214844 247 C 318.214844 258.714844 308.714844 268.214844 297 268.214844 C 285.285156 268.214844 275.785156 258.714844 275.785156 247 C 275.785156 235.285156 285.285156 225.785156 297 225.785156 C 308.714844 225.785156 318.214844 235.285156 318.214844 247 "/>
</g>
</svg>
