<?xml version="1.0" encoding="UTF-8"?>
<svg xmlns="http://www.w3.org/2000/svg" xmlns:xlink="http://www.w3.org/1999/xlink" width="1179pt" height="517pt" viewBox="0 0 1179 517" version="1.1">
<g id="surface791">
<rect x="0" y="0" width="1179" height="517" style="fill:rgb(90%,90%,90%);fill-opacity:1;stroke:none;"/>
<path style="fill-rule:nonzero;fill:rgb(35%,70%,90%);fill-opacity:1;stroke-width:1;stroke-linecap:butt;stroke-linejoin:miter;stroke:rgb(0%,0%,0%);stroke-opacity:1;stroke-miterlimit:10;" d="M 695.214844 430 C 695.214844 441.714844 685.714844 451.214844 674 451.214844 C 662.285156 451.214844 652.785156 441.714844 652.785156 430 C 652.785156 418.285156 662.285156 408.785156 674 408.785156 C 685.714844 408.785156 695.214844 418.285156 695.214844 430 "/>
<path style="fill-rule:nonzero;fill:rgb(35%,70%,90%);fill-opacity:1;stroke-width:1;stroke-linecap:butt;stroke-linejoin:miter;stroke:rgb(0%,0%,0%);stroke-opacity:1;stroke-miterlimit:10;" d="M 567.214844 288 C 567.214844 299.714844 557.714844 309.214844 546 309.214844 C 534.285156 309.214844 524.785156 299.714844 524.785156 288 C 524.785156 276.285156 534.285156 266.785156 546 266.785156 C 557.714844 266.785156 567.214844 276.285156 567.214844 288 "/>
<path style="fill-rule:nonzero;fill:rgb(35%,70%,90%);fill-opacity:1;stroke-width:1;stroke-linecap:butt;stroke-linejoin:miter;stroke:rgb(0%,0%,0%);stroke-opacity:1;stroke-miterlimit:10;" d="M 220.214844 90 C 220.214844 101.714844 210.714844 111.214844 199 111.214844 C 187.285156 111.214844 177.785156 101.714844 177.785156 90 C 177.785156 78.285156 187.285156 68.785156 199 68.785156 C 210.714844 68.785156 220.214844 78.285156 220.214844 90 "/>
<path style="fill-rule:nonzero;fill:rgb(35%,70%,90%);fill-opacity:1;stroke-width:1;stroke-linecap:butt;stroke-linejoin:miter;stroke:rgb(0%,0%,0%);stroke-opacity:1;stroke-miterlimit:10;" d="M 720.214844 113 C 720.214844 124.714844 710.714844 134.214844 699 134.214844 C 687.285156 134.214844 677.785156 124.714844 677.785156 113 C 677.785156 101.285156 687.285156 91.785156 699 91.785156 C 710.714844 91.785156 720.214844 101.285156 720.214844 113 "/>
<path style="fill-rule:nonzero;fill:rgb(35%,70%,90%);fill-opacity:1;stroke-width:1;stroke-linecap:butt;stroke-linejoin:miter;stroke:rgb(0%,0%,0%);stroke-opacity:1;stroke-miterlimit:10;" d="M 1051.214844 381 C 1051.214844 392.714844 1041.714844 402.214844 1030 402.214844 C 1018.285156 402.214844 1008.785156 392.714844 1008.785156 381 C 1008.785156 369.285156 1018.285156 359.785156 1030 359.785156 C 1041.714844 359.785156 1051.214844 369.285156 1051.214844 381 "/>
<path style="fill-rule:nonzero;fill:rgb(67%,100%,18%);fill-opacity:1;stroke-width:1;stroke-linecap:butt;stroke-linejoin:miter;stroke:rgb(0%,0%,0%);stroke-opacity:1;stroke-miterlimit:10;" d="M 767 241 L 796.664062 241 L 808.664062 212.785156 L 820.664062 241 L 850.332031 241 L 826.332031 258.4375 L 834.417969 289.980469 L 808.664062 272.542969 L 782.914062 289.980469 L 795.214844 258.4375 L 767 241 "/>
<path style="fill-rule:nonzero;fill:rgb(67%,100%,18%);fill-opacity:1;stroke-width:1;stroke-linecap:butt;stroke-linejoin:miter;stroke:rgb(0%,0%,0%);stroke-opacity:1;stroke-miterlimit:10;" d="M 542 153 L 571.664062 153 L 583.664062 124.785156 L 595.664062 153 L 625.332031 153 L 601.332031 170.4375 L 609.417969 201.980469 L 583.664062 184.542969 L 557.914062 201.980469 L 570.214844 170.4375 L 542 153 "/>
<path style="fill-rule:nonzero;fill:rgb(67%,100%,18%);fill-opacity:1;stroke-width:1;stroke-linecap:butt;stroke-linejoin:miter;stroke:rgb(0%,0%,0%);stroke-opacity:1;stroke-miterlimit:10;" d="M 278 390 L 307.664062 390 L 319.664062 361.785156 L 331.664062 390 L 361.332031 390 L 337.332031 407.4375 L 345.417969 438.980469 L 319.664062 421.542969 L 293.914062 438.980469 L 306.214844 407.4375 L 278 390 "/>
</g>
</svg>
