<?xml version="1.0" encoding="UTF-8"?>
<svg xmlns="http://www.w3.org/2000/svg" xmlns:xlink="http://www.w3.org/1999/xlink" width="1179pt" height="517pt" viewBox="0 0 1179 517" version="1.1">
<g id="surface36">
<rect x="0" y="0" width="1179" height="517" style="fill:rgb(90%,90%,90%);fill-opacity:1;stroke:none;"/>
<path style="fill-rule:nonzero;fill:rgb(35%,70%,90%);fill-opacity:1;stroke-width:1;stroke-linecap:butt;stroke-linejoin:miter;stroke:rgb(0%,0%,0%);stroke-opacity:1;stroke-miterlimit:10;" d="M 889 345 L 918.664062 345 L 930.664062 316.785156 L 942.664062 345 L 972.332031 345 L 948.332031 362.4375 L 956.417969 393.980469 L 930.664062 376.542969 L 904.914062 393.980469 L 917.214844 362.4375 L 889 345 "/>
<path style="fill-rule:nonzero;fill:rgb(35%,70%,90%);fill-opacity:1;stroke-width:1;stroke-linecap:butt;stroke-linejoin:miter;stroke:rgb(0%,0%,0%);stroke-opacity:1;stroke-miterlimit:10;" d="M 302 104 L 331.664062 104 L 343.664062 75.785156 L 355.664062 104 L 385.332031 104 L 361.332031 121.4375 L 369.417969 152.980469 L 343.664062 135.542969 L 317.914062 152.980469 L 330.214844 121.4375 L 302 104 "/>
<path style="fill-rule:nonzero;fill:rgb(35%,70%,90%);fill-opacity:1;stroke-width:1;stroke-linecap:butt;stroke-linejoin:miter;stroke:rgb(0%,0%,0%);stroke-opacity:1;stroke-miterlimit:10;" d="M 812 196 L 841.664062 196 L 853.664062 167.785156 L 865.664062 196 L 895.332031 196 L 871.332031 213.4375 L 879.417969 244.980469 L 853.664062 227.542969 L 827.914062 244.980469 L 840.214844 213.4375 L 812 196 "/>
<path style="fill-rule:nonzero;fill:rgb(35%,70%,90%);fill-opacity:1;stroke-width:1;stroke-linecap:butt;stroke-linejoin:miter;stroke:rgb(0%,0%,0%);stroke-opacity:1;stroke-miterlimit:10;" d="M 324 260 L 353.664062 260 L 365.664062 231.785156 L 377.664062 260 L 407.332031 260 L 383.332031 277.4375 L 391.417969 308.980469 L 365.664062 291.542969 L 339.914062 308.980469 L 352.214844 277.4375 L 324 260 "/>
<path style="fill-rule:nonzero;fill:rgb(53%,27%,7%);fill-opacity:1;stroke-width:1;stroke-linecap:butt;stroke-linejoin:miter;stroke:rgb(0%,0%,0%);stroke-opacity:1;stroke-miterlimit:10;" d="M 432 161 L 406.019531 206 L 457.980469 206 L 432 161 "/>
<path style="fill-rule:nonzero;fill:rgb(53%,27%,7%);fill-opacity:1;stroke-width:1;stroke-linecap:butt;stroke-linejoin:miter;stroke:rgb(0%,0%,0%);stroke-opacity:1;stroke-miterlimit:10;" d="M 979 233 L 953.019531 278 L 1004.980469 278 L 979 233 "/>
<path style="fill-rule:nonzero;fill:rgb(53%,27%,7%);fill-opacity:1;stroke-width:1;stroke-linecap:butt;stroke-linejoin:miter;stroke:rgb(0%,0%,0%);stroke-opacity:1;stroke-miterlimit:10;" d="M 188 319 L 162.019531 364 L 213.980469 364 L 188 319 "/>
<path style="fill-rule:nonzero;fill:rgb(53%,27%,7%);fill-opacity:1;stroke-width:1;stroke-linecap:butt;stroke-linejoin:miter;stroke:rgb(0%,0%,0%);stroke-opacity:1;stroke-miterlimit:10;" d="M 212 177 L 186.019531 222 L 237.980469 222 L 212 177 "/>
<path style="fill-rule:nonzero;fill:rgb(53%,27%,7%);fill-opacity:1;stroke-width:1;stroke-linecap:butt;stroke-linejoin:miter;stroke:rgb(0%,0%,0%);stroke-opacity:1;stroke-miterlimit:10;" d="M 507 392 L 481.019531 437 L 532.980469 437 L 507 392 "/>
</g>
</svg>
