<?xml version="1.0" encoding="UTF-8"?>
<svg xmlns="http://www.w3.org/2000/svg" xmlns:xlink="http://www.w3.org/1999/xlink" width="1179pt" height="517pt" viewBox="0 0 1179 517" version="1.1">
<g id="surface1096">
<rect x="0" y="0" width="1179" height="517" style="fill:rgb(90%,90%,90%);fill-opacity:1;stroke:none;"/>
<path style="fill-rule:nonzero;fill:rgb(100%,51%,0%);fill-opacity:1;stroke-width:1;stroke-linecap:butt;stroke-linejoin:miter;stroke:rgb(0%,0%,0%);stroke-opacity:1;stroke-miterlimit:10;" d="M 391 420 L 420.664062 420 L 432.664062 391.785156 L 444.664062 420 L 474.332031 420 L 450.332031 437.4375 L 458.417969 468.980469 L 432.664062 451.542969 L 406.914062 468.980469 L 419.214844 437.4375 L 391 420 "/>
<path style="fill-rule:nonzero;fill:rgb(100%,51%,0%);fill-opacity:1;stroke-width:1;stroke-linecap:butt;stroke-linejoin:miter;stroke:rgb(0%,0%,0%);stroke-opacity:1;stroke-miterlimit:10;" d="M 481 189 L 510.664062 189 L 522.664062 160.785156 L 534.664062 189 L 564.332031 189 L 540.332031 206.4375 L 548.417969 237.980469 L 522.664062 220.542969 L 496.914062 237.980469 L 509.214844 206.4375 L 481 189 "/>
<path style="fill-rule:nonzero;fill:rgb(100%,51%,0%);fill-opacity:1;stroke-width:1;stroke-linecap:butt;stroke-linejoin:miter;stroke:rgb(0%,0%,0%);stroke-opacity:1;stroke-miterlimit:10;" d="M 314 320 L 343.664062 320 L 355.664062 291.785156 L 367.664062 320 L 397.332031 320 L 373.332031 337.4375 L 381.417969 368.980469 L 355.664062 351.542969 L 329.914062 368.980469 L 342.214844 337.4375 L 314 320 "/>
<path style="fill-rule:nonzero;fill:rgb(100%,51%,0%);fill-opacity:1;stroke-width:1;stroke-linecap:butt;stroke-linejoin:miter;stroke:rgb(0%,0%,0%);stroke-opacity:1;stroke-miterlimit:10;" d="M 750 109 L 779.664062 109 L 791.664062 80.785156 L 803.664062 109 L 833.332031 109 L 809.332031 126.4375 L 817.417969 157.980469 L 791.664062 140.542969 L 765.914062 157.980469 L 778.214844 126.4375 L 750 109 "/>
<path style="fill-rule:nonzero;fill:rgb(53%,27%,7%);fill-opacity:1;stroke-width:1;stroke-linecap:butt;stroke-linejoin:miter;stroke:rgb(0%,0%,0%);stroke-opacity:1;stroke-miterlimit:10;" d="M 964.214844 104 C 964.214844 115.714844 954.714844 125.214844 943 125.214844 C 931.285156 125.214844 921.785156 115.714844 921.785156 104 C 921.785156 92.285156 931.285156 82.785156 943 82.785156 C 954.714844 82.785156 964.214844 92.285156 964.214844 104 "/>
<path style="fill-rule:nonzero;fill:rgb(53%,27%,7%);fill-opacity:1;stroke-width:1;stroke-linecap:butt;stroke-linejoin:miter;stroke:rgb(0%,0%,0%);stroke-opacity:1;stroke-miterlimit:10;" d="M 1054.214844 374 C 1054.214844 385.714844 1044.714844 395.214844 1033 395.214844 C 1021.285156 395.214844 1011.785156 385.714844 1011.785156 374 C 1011.785156 362.285156 1021.285156 352.785156 1033 352.785156 C 1044.714844 352.785156 1054.214844 362.285156 1054.214844 374 "/>
<path style="fill-rule:nonzero;fill:rgb(53%,27%,7%);fill-opacity:1;stroke-width:1;stroke-linecap:butt;stroke-linejoin:miter;stroke:rgb(0%,0%,0%);stroke-opacity:1;stroke-miterlimit:10;" d="M 203.214844 224 C 203.214844 235.714844 193.714844 245.214844 182 245.214844 C 170.285156 245.214844 160.785156 235.714844 160.785156 224 C 160.785156 212.285156 170.285156 202.785156 182 202.785156 C 193.714844 202.785156 203.214844 212.285156 203.214844 224 "/>
<path style="fill-rule:nonzero;fill:rgb(53%,27%,7%);fill-opacity:1;stroke-width:1;stroke-linecap:butt;stroke-linejoin:miter;stroke:rgb(0%,0%,0%);stroke-opacity:1;stroke-miterlimit:10;" d="M 811.214844 337 C 811.214844 348.714844 801.714844 358.214844 790 358.214844 C 778.285156 358.214844 768.785156 348.714844 768.785156 337 C 768.785156 325.285156 778.285156 315.785156 790 315.785156 C 801.714844 315.785156 811.214844 325.285156 811.214844 337 "/>
<path style="fill-rule:nonzero;fill:rgb(53%,27%,7%);fill-opacity:1;stroke-width:1;stroke-linecap:butt;stroke-linejoin:miter;stroke:rgb(0%,0%,0%);stroke-opacity:1;stroke-miterlimit:10;" d="M 370.214844 185 C 370.214844 196.714844 360.714844 206.214844 349 206.214844 C 337.285156 206.214844 327.785156 196.714844 327.785156 185 C 327.785156 173.285156 337.285156 163.785156 349 163.785156 C 360.714844 163.785156 370.214844 173.285156 370.214844 185 "/>
</g>
</svg>
