<?xml version="1.0" encoding="UTF-8"?>
<svg xmlns="http://www.w3.org/2000/svg" xmlns:xlink="http://www.w3.org/1999/xlink" width="1179pt" height="517pt" viewBox="0 0 1179 517" version="1.1">
<g id="surface1446">
<rect x="0" y="0" width="1179" height="517" style="fill:rgb(90%,90%,90%);fill-opacity:1;stroke:none;"/>
<path style="fill-rule:nonzero;fill:rgb(55%,51%,53%);fill-opacity:1;stroke-width:1;stroke-linecap:butt;stroke-linejoin:miter;stroke:rgb(0%,0%,0%);stroke-opacity:1;stroke-miterlimit:10;" d="M 889 121 L 863.019531 166 L 914.980469 166 L 889 121 "/>
<path style="fill-rule:nonzero;fill:rgb(55%,51%,53%);fill-opacity:1;stroke-width:1;stroke-linecap:butt;stroke-linejoin:miter;stroke:rgb(0%,0%,0%);stroke-opacity:1;stroke-miterlimit:10;" d="M 416 119 L 390.019531 164 L 441.980469 164 L 416 119 "/>
<path style="fill-rule:nonzero;fill:rgb(55%,51%,53%);fill-opacity:1;stroke-width:1;stroke-linecap:butt;stroke-linejoin:miter;stroke:rgb(0%,0%,0%);stroke-opacity:1;stroke-miterlimit:10;" d="M 487 401 L 461.019531 446 L 512.980469 446 L 487 401 "/>
<path style="fill-rule:nonzero;fill:rgb(55%,51%,53%);fill-opacity:1;stroke-width:1;stroke-linecap:butt;stroke-linejoin:miter;stroke:rgb(0%,0%,0%);stroke-opacity:1;stroke-miterlimit:10;" d="M 736 371 L 710.019531 416 L 761.980469 416 L 736 371 "/>
<path style="fill-rule:nonzero;fill:rgb(55%,51%,53%);fill-opacity:1;stroke-width:1;stroke-linecap:butt;stroke-linejoin:miter;stroke:rgb(0%,0%,0%);stroke-opacity:1;stroke-miterlimit:10;" d="M 712 183 L 686.019531 228 L 737.980469 228 L 712 183 "/>
<path style="fill-rule:nonzero;fill:rgb(35%,70%,90%);fill-opacity:1;stroke-width:1;stroke-linecap:butt;stroke-linejoin:miter;stroke:rgb(0%,0%,0%);stroke-opacity:1;stroke-miterlimit:10;" d="M 213 124 L 242.664062 124 L 254.664062 95.785156 L 266.664062 124 L 296.332031 124 L 272.332031 141.4375 L 280.417969 172.980469 L 254.664062 155.542969 L 228.914062 172.980469 L 241.214844 141.4375 L 213 124 "/>
<path style="fill-rule:nonzero;fill:rgb(35%,70%,90%);fill-opacity:1;stroke-width:1;stroke-linecap:butt;stroke-linejoin:miter;stroke:rgb(0%,0%,0%);stroke-opacity:1;stroke-miterlimit:10;" d="M 602 311 L 631.664062 311 L 643.664062 282.785156 L 655.664062 311 L 685.332031 311 L 661.332031 328.4375 L 669.417969 359.980469 L 643.664062 342.542969 L 617.914062 359.980469 L 630.214844 328.4375 L 602 311 "/>
<path style="fill-rule:nonzero;fill:rgb(35%,70%,90%);fill-opacity:1;stroke-width:1;stroke-linecap:butt;stroke-linejoin:miter;stroke:rgb(0%,0%,0%);stroke-opacity:1;stroke-miterlimit:10;" d="M 264 323 L 293.664062 323 L 305.664062 294.785156 L 317.664062 323 L 347.332031 323 L 323.332031 340.4375 L 331.417969 371.980469 L 305.664062 354.542969 L 279.914062 371.980469 L 292.214844 340.4375 L 264 323 "/>
<path style="fill-rule:nonzero;fill:rgb(35%,70%,90%);fill-opacity:1;stroke-width:1;stroke-linecap:butt;stroke-linejoin:miter;stroke:rgb(0%,0%,0%);stroke-opacity:1;stroke-miterlimit:10;" d="M 1033 346 L 1062.664062 346 L 1074.664062 317.785156 L 1086.664062 346 L 1116.332031 346 L 1092.332031 363.4375 L 1100.417969 394.980469 L 1074.664062 377.542969 L 1048.914062 394.980469 L 1061.214844 363.4375 L 1033 346 "/>
</g>
</svg>
