<?xml version="1.0" encoding="UTF-8"?>
<svg xmlns="http://www.w3.org/2000/svg" xmlns:xlink="http://www.w3.org/1999/xlink" width="1179pt" height="517pt" viewBox="0 0 1179 517" version="1.1">
<g id="surface621">
<rect x="0" y="0" width="1179" height="517" style="fill:rgb(90%,90%,90%);fill-opacity:1;stroke:none;"/>
<path style="fill-rule:nonzero;fill:rgb(35%,70%,90%);fill-opacity:1;stroke-width:1;stroke-linecap:butt;stroke-linejoin:miter;stroke:rgb(0%,0%,0%);stroke-opacity:1;stroke-miterlimit:10;" d="M 244.214844 309 C 244.214844 320.714844 234.714844 330.214844 223 330.214844 C 211.285156 330.214844 201.785156 320.714844 201.785156 309 C 201.785156 297.285156 211.285156 287.785156 223 287.785156 C 234.714844 287.785156 244.214844 297.285156 244.214844 309 "/>
<path style="fill-rule:nonzero;fill:rgb(35%,70%,90%);fill-opacity:1;stroke-width:1;stroke-linecap:butt;stroke-linejoin:miter;stroke:rgb(0%,0%,0%);stroke-opacity:1;stroke-miterlimit:10;" d="M 269.785156 163.785156 L 269.785156 206.214844 L 312.214844 206.214844 L 312.214844 163.785156 L 269.785156 163.785156 "/>
<path style="fill-rule:nonzero;fill:rgb(35%,70%,90%);fill-opacity:1;stroke-width:1;stroke-linecap:butt;stroke-linejoin:miter;stroke:rgb(0%,0%,0%);stroke-opacity:1;stroke-miterlimit:10;" d="M 167.214844 161 C 167.214844 172.714844 157.714844 182.214844 146 182.214844 C 134.285156 182.214844 124.785156 172.714844 124.785156 161 C 124.785156 149.285156 134.285156 139.785156 146 139.785156 C 157.714844 139.785156 167.214844 149.285156 167.214844 161 "/>
<path style="fill-rule:nonzero;fill:rgb(35%,70%,90%);fill-opacity:1;stroke-width:1;stroke-linecap:butt;stroke-linejoin:miter;stroke:rgb(0%,0%,0%);stroke-opacity:1;stroke-miterlimit:10;" d="M 107.214844 328 C 107.214844 339.714844 97.714844 349.214844 86 349.214844 C 74.285156 349.214844 64.785156 339.714844 64.785156 328 C 64.785156 316.285156 74.285156 306.785156 86 306.785156 C 97.714844 306.785156 107.214844 316.285156 107.214844 328 "/>
<path style="fill-rule:nonzero;fill:rgb(35%,70%,90%);fill-opacity:1;stroke-width:1;stroke-linecap:butt;stroke-linejoin:miter;stroke:rgb(0%,0%,0%);stroke-opacity:1;stroke-miterlimit:10;" d="M 140.214844 420 C 140.214844 431.714844 130.714844 441.214844 119 441.214844 C 107.285156 441.214844 97.785156 431.714844 97.785156 420 C 97.785156 408.285156 107.285156 398.785156 119 398.785156 C 130.714844 398.785156 140.214844 408.285156 140.214844 420 "/>
<path style="fill-rule:nonzero;fill:rgb(35%,70%,90%);fill-opacity:1;stroke-width:1;stroke-linecap:butt;stroke-linejoin:miter;stroke:rgb(0%,0%,0%);stroke-opacity:1;stroke-miterlimit:10;" d="M 383.214844 310 C 383.214844 321.714844 373.714844 331.214844 362 331.214844 C 350.285156 331.214844 340.785156 321.714844 340.785156 310 C 340.785156 298.285156 350.285156 288.785156 362 288.785156 C 373.714844 288.785156 383.214844 298.285156 383.214844 310 "/>
<path style="fill-rule:nonzero;fill:rgb(35%,70%,90%);fill-opacity:1;stroke-width:1;stroke-linecap:butt;stroke-linejoin:miter;stroke:rgb(0%,0%,0%);stroke-opacity:1;stroke-miterlimit:10;" d="M 241.214844 401 C 241.214844 412.714844 231.714844 422.214844 220 422.214844 C 208.285156 422.214844 198.785156 412.714844 198.785156 401 C 198.785156 389.285156 208.285156 379.785156 220 379.785156 C 231.714844 379.785156 241.214844 389.285156 241.214844 401 "/>
<path style="fill-rule:nonzero;fill:rgb(55%,51%,53%);fill-opacity:1;stroke-width:1;stroke-linecap:butt;stroke-linejoin:miter;stroke:rgb(0%,0%,0%);stroke-opacity:1;stroke-miterlimit:10;" d="M 769.785156 264.785156 L 769.785156 307.214844 L 812.214844 307.214844 L 812.214844 264.785156 L 769.785156 264.785156 "/>
<path style="fill-rule:nonzero;fill:rgb(55%,51%,53%);fill-opacity:1;stroke-width:1;stroke-linecap:butt;stroke-linejoin:miter;stroke:rgb(0%,0%,0%);stroke-opacity:1;stroke-miterlimit:10;" d="M 727.214844 194 C 727.214844 205.714844 717.714844 215.214844 706 215.214844 C 694.285156 215.214844 684.785156 205.714844 684.785156 194 C 684.785156 182.285156 694.285156 172.785156 706 172.785156 C 717.714844 172.785156 727.214844 182.285156 727.214844 194 "/>
<path style="fill-rule:nonzero;fill:rgb(55%,51%,53%);fill-opacity:1;stroke-width:1;stroke-linecap:butt;stroke-linejoin:miter;stroke:rgb(0%,0%,0%);stroke-opacity:1;stroke-miterlimit:10;" d="M 897.785156 306.785156 L 897.785156 349.214844 L 940.214844 349.214844 L 940.214844 306.785156 L 897.785156 306.785156 "/>
<path style="fill-rule:nonzero;fill:rgb(55%,51%,53%);fill-opacity:1;stroke-width:1;stroke-linecap:butt;stroke-linejoin:miter;stroke:rgb(0%,0%,0%);stroke-opacity:1;stroke-miterlimit:10;" d="M 672.785156 316.785156 L 672.785156 359.214844 L 715.214844 359.214844 L 715.214844 316.785156 L 672.785156 316.785156 "/>
<path style="fill-rule:nonzero;fill:rgb(55%,51%,53%);fill-opacity:1;stroke-width:1;stroke-linecap:butt;stroke-linejoin:miter;stroke:rgb(0%,0%,0%);stroke-opacity:1;stroke-miterlimit:10;" d="M 881.785156 217.785156 L 881.785156 260.214844 L 924.214844 260.214844 L 924.214844 217.785156 L 881.785156 217.785156 "/>
<path style="fill-rule:nonzero;fill:rgb(55%,51%,53%);fill-opacity:1;stroke-width:1;stroke-linecap:butt;stroke-linejoin:miter;stroke:rgb(0%,0%,0%);stroke-opacity:1;stroke-miterlimit:10;" d="M 1009.785156 268.785156 L 1009.785156 311.214844 L 1052.214844 311.214844 L 1052.214844 268.785156 L 1009.785156 268.785156 "/>
</g>
</svg>
