<?xml version="1.0" encoding="UTF-8"?>
<svg xmlns="http://www.w3.org/2000/svg" xmlns:xlink="http://www.w3.org/1999/xlink" width="1179pt" height="517pt" viewBox="0 0 1179 517" version="1.1">
<g id="surface1146">
<rect x="0" y="0" width="1179" height="517" style="fill:rgb(90%,90%,90%);fill-opacity:1;stroke:none;"/>
<path style="fill-rule:nonzero;fill:rgb(35%,70%,90%);fill-opacity:1;stroke-width:1;stroke-linecap:butt;stroke-linejoin:miter;stroke:rgb(0%,0%,0%);stroke-opacity:1;stroke-miterlimit:10;" d="M 976 372 L 1005.664062 372 L 1017.664062 343.785156 L 1029.664062 372 L 1059.332031 372 L 1035.332031 389.4375 L 1043.417969 420.980469 L 1017.664062 403.542969 L 991.914062 420.980469 L 1004.214844 389.4375 L 976 372 "/>
<path style="fill-rule:nonzero;fill:rgb(35%,70%,90%);fill-opacity:1;stroke-width:1;stroke-linecap:butt;stroke-linejoin:miter;stroke:rgb(0%,0%,0%);stroke-opacity:1;stroke-miterlimit:10;" d="M 950 174 L 979.664062 174 L 991.664062 145.785156 L 1003.664062 174 L 1033.332031 174 L 1009.332031 191.4375 L 1017.417969 222.980469 L 991.664062 205.542969 L 965.914062 222.980469 L 978.214844 191.4375 L 950 174 "/>
<path style="fill-rule:nonzero;fill:rgb(35%,70%,90%);fill-opacity:1;stroke-width:1;stroke-linecap:butt;stroke-linejoin:miter;stroke:rgb(0%,0%,0%);stroke-opacity:1;stroke-miterlimit:10;" d="M 727 161 L 756.664062 161 L 768.664062 132.785156 L 780.664062 161 L 810.332031 161 L 786.332031 178.4375 L 794.417969 209.980469 L 768.664062 192.542969 L 742.914062 209.980469 L 755.214844 178.4375 L 727 161 "/>
<path style="fill-rule:nonzero;fill:rgb(100%,51%,0%);fill-opacity:1;stroke-width:1;stroke-linecap:butt;stroke-linejoin:miter;stroke:rgb(0%,0%,0%);stroke-opacity:1;stroke-miterlimit:10;" d="M 618 228.601562 C 618 214.199219 594 214.199219 594 228.601562 C 594 243 618 245.398438 618 257.398438 C 618 245.398438 642 243 642 228.601562 C 642 214.199219 618 214.199219 618 228.601562 "/>
<path style="fill-rule:nonzero;fill:rgb(100%,51%,0%);fill-opacity:1;stroke-width:1;stroke-linecap:butt;stroke-linejoin:miter;stroke:rgb(0%,0%,0%);stroke-opacity:1;stroke-miterlimit:10;" d="M 291 366.601562 C 291 352.199219 267 352.199219 267 366.601562 C 267 381 291 383.398438 291 395.398438 C 291 383.398438 315 381 315 366.601562 C 315 352.199219 291 352.199219 291 366.601562 "/>
<path style="fill-rule:nonzero;fill:rgb(100%,51%,0%);fill-opacity:1;stroke-width:1;stroke-linecap:butt;stroke-linejoin:miter;stroke:rgb(0%,0%,0%);stroke-opacity:1;stroke-miterlimit:10;" d="M 91 307.601562 C 91 293.199219 67 293.199219 67 307.601562 C 67 322 91 324.398438 91 336.398438 C 91 324.398438 115 322 115 307.601562 C 115 293.199219 91 293.199219 91 307.601562 "/>
<path style="fill-rule:nonzero;fill:rgb(100%,51%,0%);fill-opacity:1;stroke-width:1;stroke-linecap:butt;stroke-linejoin:miter;stroke:rgb(0%,0%,0%);stroke-opacity:1;stroke-miterlimit:10;" d="M 698 325.601562 C 698 311.199219 674 311.199219 674 325.601562 C 674 340 698 342.398438 698 354.398438 C 698 342.398438 722 340 722 325.601562 C 722 311.199219 698 311.199219 698 325.601562 "/>
<path style="fill-rule:nonzero;fill:rgb(100%,51%,0%);fill-opacity:1;stroke-width:1;stroke-linecap:butt;stroke-linejoin:miter;stroke:rgb(0%,0%,0%);stroke-opacity:1;stroke-miterlimit:10;" d="M 176 211.601562 C 176 197.199219 152 197.199219 152 211.601562 C 152 226 176 228.398438 176 240.398438 C 176 228.398438 200 226 200 211.601562 C 200 197.199219 176 197.199219 176 211.601562 "/>
</g>
</svg>
