<?xml version="1.0" encoding="UTF-8"?>
<svg xmlns="http://www.w3.org/2000/svg" xmlns:xlink="http://www.w3.org/1999/xlink" width="1179pt" height="517pt" viewBox="0 0 1179 517" version="1.1">
<g id="surface1476">
<rect x="0" y="0" width="1179" height="517" style="fill:rgb(90%,90%,90%);fill-opacity:1;stroke:none;"/>
<path style="fill-rule:nonzero;fill:rgb(55%,51%,53%);fill-opacity:1;stroke-width:1;stroke-linecap:butt;stroke-linejoin:miter;stroke:rgb(0%,0%,0%);stroke-opacity:1;stroke-miterlimit:10;" d="M 412.214844 408 C 412.214844 419.714844 402.714844 429.214844 391 429.214844 C 379.285156 429.214844 369.785156 419.714844 369.785156 408 C 369.785156 396.285156 379.285156 386.785156 391 386.785156 C 402.714844 386.785156 412.214844 396.285156 412.214844 408 "/>
<path style="fill-rule:nonzero;fill:rgb(55%,51%,53%);fill-opacity:1;stroke-width:1;stroke-linecap:butt;stroke-linejoin:miter;stroke:rgb(0%,0%,0%);stroke-opacity:1;stroke-miterlimit:10;" d="M 804.214844 113 C 804.214844 124.714844 794.714844 134.214844 783 134.214844 C 771.285156 134.214844 761.785156 124.714844 761.785156 113 C 761.785156 101.285156 771.285156 91.785156 783 91.785156 C 794.714844 91.785156 804.214844 101.285156 804.214844 113 "/>
<path style="fill-rule:nonzero;fill:rgb(55%,51%,53%);fill-opacity:1;stroke-width:1;stroke-linecap:butt;stroke-linejoin:miter;stroke:rgb(0%,0%,0%);stroke-opacity:1;stroke-miterlimit:10;" d="M 1047.214844 224 C 1047.214844 235.714844 1037.714844 245.214844 1026 245.214844 C 1014.285156 245.214844 1004.785156 235.714844 1004.785156 224 C 1004.785156 212.285156 1014.285156 202.785156 1026 202.785156 C 1037.714844 202.785156 1047.214844 212.285156 1047.214844 224 "/>
<path style="fill-rule:nonzero;fill:rgb(100%,51%,0%);fill-opacity:1;stroke-width:1;stroke-linecap:butt;stroke-linejoin:miter;stroke:rgb(0%,0%,0%);stroke-opacity:1;stroke-miterlimit:10;" d="M 499 271.601562 C 499 257.199219 475 257.199219 475 271.601562 C 475 286 499 288.398438 499 300.398438 C 499 288.398438 523 286 523 271.601562 C 523 257.199219 499 257.199219 499 271.601562 "/>
<path style="fill-rule:nonzero;fill:rgb(100%,51%,0%);fill-opacity:1;stroke-width:1;stroke-linecap:butt;stroke-linejoin:miter;stroke:rgb(0%,0%,0%);stroke-opacity:1;stroke-miterlimit:10;" d="M 226 88.601562 C 226 74.199219 202 74.199219 202 88.601562 C 202 103 226 105.398438 226 117.398438 C 226 105.398438 250 103 250 88.601562 C 250 74.199219 226 74.199219 226 88.601562 "/>
<path style="fill-rule:nonzero;fill:rgb(100%,51%,0%);fill-opacity:1;stroke-width:1;stroke-linecap:butt;stroke-linejoin:miter;stroke:rgb(0%,0%,0%);stroke-opacity:1;stroke-miterlimit:10;" d="M 142 182.601562 C 142 168.199219 118 168.199219 118 182.601562 C 118 197 142 199.398438 142 211.398438 C 142 199.398438 166 197 166 182.601562 C 166 168.199219 142 168.199219 142 182.601562 "/>
<path style="fill-rule:nonzero;fill:rgb(100%,51%,0%);fill-opacity:1;stroke-width:1;stroke-linecap:butt;stroke-linejoin:miter;stroke:rgb(0%,0%,0%);stroke-opacity:1;stroke-miterlimit:10;" d="M 1028 402.601562 C 1028 388.199219 1004 388.199219 1004 402.601562 C 1004 417 1028 419.398438 1028 431.398438 C 1028 419.398438 1052 417 1052 402.601562 C 1052 388.199219 1028 388.199219 1028 402.601562 "/>
</g>
</svg>
