<?xml version="1.0" encoding="UTF-8"?>
<svg xmlns="http://www.w3.org/2000/svg" xmlns:xlink="http://www.w3.org/1999/xlink" width="1179pt" height="517pt" viewBox="0 0 1179 517" version="1.1">
<g id="surface1376">
<rect x="0" y="0" width="1179" height="517" style="fill:rgb(90%,90%,90%);fill-opacity:1;stroke:none;"/>
<path style="fill-rule:nonzero;fill:rgb(55%,51%,53%);fill-opacity:1;stroke-width:1;stroke-linecap:butt;stroke-linejoin:miter;stroke:rgb(0%,0%,0%);stroke-opacity:1;stroke-miterlimit:10;" d="M 403 353.601562 C 403 339.199219 379 339.199219 379 353.601562 C 379 368 403 370.398438 403 382.398438 C 403 370.398438 427 368 427 353.601562 C 427 339.199219 403 339.199219 403 353.601562 "/>
<path style="fill-rule:nonzero;fill:rgb(55%,51%,53%);fill-opacity:1;stroke-width:1;stroke-linecap:butt;stroke-linejoin:miter;stroke:rgb(0%,0%,0%);stroke-opacity:1;stroke-miterlimit:10;" d="M 782 265.601562 C 782 251.199219 758 251.199219 758 265.601562 C 758 280 782 282.398438 782 294.398438 C 782 282.398438 806 280 806 265.601562 C 806 251.199219 782 251.199219 782 265.601562 "/>
<path style="fill-rule:nonzero;fill:rgb(55%,51%,53%);fill-opacity:1;stroke-width:1;stroke-linecap:butt;stroke-linejoin:miter;stroke:rgb(0%,0%,0%);stroke-opacity:1;stroke-miterlimit:10;" d="M 957 82.601562 C 957 68.199219 933 68.199219 933 82.601562 C 933 97 957 99.398438 957 111.398438 C 957 99.398438 981 97 981 82.601562 C 981 68.199219 957 68.199219 957 82.601562 "/>
<path style="fill-rule:nonzero;fill:rgb(55%,51%,53%);fill-opacity:1;stroke-width:1;stroke-linecap:butt;stroke-linejoin:miter;stroke:rgb(0%,0%,0%);stroke-opacity:1;stroke-miterlimit:10;" d="M 307 81.601562 C 307 67.199219 283 67.199219 283 81.601562 C 283 96 307 98.398438 307 110.398438 C 307 98.398438 331 96 331 81.601562 C 331 67.199219 307 67.199219 307 81.601562 "/>
<path style="fill-rule:nonzero;fill:rgb(53%,27%,7%);fill-opacity:1;stroke-width:1;stroke-linecap:butt;stroke-linejoin:miter;stroke:rgb(0%,0%,0%);stroke-opacity:1;stroke-miterlimit:10;" d="M 747 405 L 776.664062 405 L 788.664062 376.785156 L 800.664062 405 L 830.332031 405 L 806.332031 422.4375 L 814.417969 453.980469 L 788.664062 436.542969 L 762.914062 453.980469 L 775.214844 422.4375 L 747 405 "/>
<path style="fill-rule:nonzero;fill:rgb(53%,27%,7%);fill-opacity:1;stroke-width:1;stroke-linecap:butt;stroke-linejoin:miter;stroke:rgb(0%,0%,0%);stroke-opacity:1;stroke-miterlimit:10;" d="M 667 171 L 696.664062 171 L 708.664062 142.785156 L 720.664062 171 L 750.332031 171 L 726.332031 188.4375 L 734.417969 219.980469 L 708.664062 202.542969 L 682.914062 219.980469 L 695.214844 188.4375 L 667 171 "/>
<path style="fill-rule:nonzero;fill:rgb(53%,27%,7%);fill-opacity:1;stroke-width:1;stroke-linecap:butt;stroke-linejoin:miter;stroke:rgb(0%,0%,0%);stroke-opacity:1;stroke-miterlimit:10;" d="M 925 361 L 954.664062 361 L 966.664062 332.785156 L 978.664062 361 L 1008.332031 361 L 984.332031 378.4375 L 992.417969 409.980469 L 966.664062 392.542969 L 940.914062 409.980469 L 953.214844 378.4375 L 925 361 "/>
<path style="fill-rule:nonzero;fill:rgb(53%,27%,7%);fill-opacity:1;stroke-width:1;stroke-linecap:butt;stroke-linejoin:miter;stroke:rgb(0%,0%,0%);stroke-opacity:1;stroke-miterlimit:10;" d="M 119 140 L 148.664062 140 L 160.664062 111.785156 L 172.664062 140 L 202.332031 140 L 178.332031 157.4375 L 186.417969 188.980469 L 160.664062 171.542969 L 134.914062 188.980469 L 147.214844 157.4375 L 119 140 "/>
</g>
</svg>
