<?xml version="1.0" encoding="UTF-8"?>
<svg xmlns="http://www.w3.org/2000/svg" xmlns:xlink="http://www.w3.org/1999/xlink" width="1179pt" height="517pt" viewBox="0 0 1179 517" version="1.1">
<g id="surface1461">
<rect x="0" y="0" width="1179" height="517" style="fill:rgb(90%,90%,90%);fill-opacity:1;stroke:none;"/>
<path style="fill-rule:nonzero;fill:rgb(35%,70%,90%);fill-opacity:1;stroke-width:1;stroke-linecap:butt;stroke-linejoin:miter;stroke:rgb(0%,0%,0%);stroke-opacity:1;stroke-miterlimit:10;" d="M 121.214844 149 C 121.214844 160.714844 111.714844 170.214844 100 170.214844 C 88.285156 170.214844 78.785156 160.714844 78.785156 149 C 78.785156 137.285156 88.285156 127.785156 100 127.785156 C 111.714844 127.785156 121.214844 137.285156 121.214844 149 "/>
<path style="fill-rule:nonzero;fill:rgb(35%,70%,90%);fill-opacity:1;stroke-width:1;stroke-linecap:butt;stroke-linejoin:miter;stroke:rgb(0%,0%,0%);stroke-opacity:1;stroke-miterlimit:10;" d="M 384.214844 121 C 384.214844 132.714844 374.714844 142.214844 363 142.214844 C 351.285156 142.214844 341.785156 132.714844 341.785156 121 C 341.785156 109.285156 351.285156 99.785156 363 99.785156 C 374.714844 99.785156 384.214844 109.285156 384.214844 121 "/>
<path style="fill-rule:nonzero;fill:rgb(35%,70%,90%);fill-opacity:1;stroke-width:1;stroke-linecap:butt;stroke-linejoin:miter;stroke:rgb(0%,0%,0%);stroke-opacity:1;stroke-miterlimit:10;" d="M 828.214844 354 C 828.214844 365.714844 818.714844 375.214844 807 375.214844 C 795.285156 375.214844 785.785156 365.714844 785.785156 354 C 785.785156 342.285156 795.285156 332.785156 807 332.785156 C 818.714844 332.785156 828.214844 342.285156 828.214844 354 "/>
<path style="fill-rule:nonzero;fill:rgb(35%,70%,90%);fill-opacity:1;stroke-width:1;stroke-linecap:butt;stroke-linejoin:miter;stroke:rgb(0%,0%,0%);stroke-opacity:1;stroke-miterlimit:10;" d="M 355.214844 280 C 355.214844 291.714844 345.714844 301.214844 334 301.214844 C 322.285156 301.214844 312.785156 291.714844 312.785156 280 C 312.785156 268.285156 322.285156 258.785156 334 258.785156 C 345.714844 258.785156 355.214844 268.285156 355.214844 280 "/>
<path style="fill-rule:nonzero;fill:rgb(100%,51%,0%);fill-opacity:1;stroke-width:1;stroke-linecap:butt;stroke-linejoin:miter;stroke:rgb(0%,0%,0%);stroke-opacity:1;stroke-miterlimit:10;" d="M 116 265 L 90.019531 310 L 141.980469 310 L 116 265 "/>
<path style="fill-rule:nonzero;fill:rgb(100%,51%,0%);fill-opacity:1;stroke-width:1;stroke-linecap:butt;stroke-linejoin:miter;stroke:rgb(0%,0%,0%);stroke-opacity:1;stroke-miterlimit:10;" d="M 244 133 L 218.019531 178 L 269.980469 178 L 244 133 "/>
<path style="fill-rule:nonzero;fill:rgb(100%,51%,0%);fill-opacity:1;stroke-width:1;stroke-linecap:butt;stroke-linejoin:miter;stroke:rgb(0%,0%,0%);stroke-opacity:1;stroke-miterlimit:10;" d="M 519 99 L 493.019531 144 L 544.980469 144 L 519 99 "/>
<path style="fill-rule:nonzero;fill:rgb(100%,51%,0%);fill-opacity:1;stroke-width:1;stroke-linecap:butt;stroke-linejoin:miter;stroke:rgb(0%,0%,0%);stroke-opacity:1;stroke-miterlimit:10;" d="M 799 65 L 773.019531 110 L 824.980469 110 L 799 65 "/>
</g>
</svg>
