<?xml version="1.0" encoding="UTF-8"?>
<svg xmlns="http://www.w3.org/2000/svg" xmlns:xlink="http://www.w3.org/1999/xlink" width="1179pt" height="517pt" viewBox="0 0 1179 517" version="1.1">
<g id="surface31">
<rect x="0" y="0" width="1179" height="517" style="fill:rgb(90%,90%,90%);fill-opacity:1;stroke:none;"/>
<path style="fill-rule:nonzero;fill:rgb(35%,70%,90%);fill-opacity:1;stroke-width:1;stroke-linecap:butt;stroke-linejoin:miter;stroke:rgb(0%,0%,0%);stroke-opacity:1;stroke-miterlimit:10;" d="M 183 365 L 212.664062 365 L 224.664062 336.785156 L 236.664062 365 L 266.332031 365 L 242.332031 382.4375 L 250.417969 413.980469 L 224.664062 396.542969 L 198.914062 413.980469 L 211.214844 382.4375 L 183 365 "/>
<path style="fill-rule:nonzero;fill:rgb(35%,70%,90%);fill-opacity:1;stroke-width:1;stroke-linecap:butt;stroke-linejoin:miter;stroke:rgb(0%,0%,0%);stroke-opacity:1;stroke-miterlimit:10;" d="M 788 117 L 817.664062 117 L 829.664062 88.785156 L 841.664062 117 L 871.332031 117 L 847.332031 134.4375 L 855.417969 165.980469 L 829.664062 148.542969 L 803.914062 165.980469 L 816.214844 134.4375 L 788 117 "/>
<path style="fill-rule:nonzero;fill:rgb(35%,70%,90%);fill-opacity:1;stroke-width:1;stroke-linecap:butt;stroke-linejoin:miter;stroke:rgb(0%,0%,0%);stroke-opacity:1;stroke-miterlimit:10;" d="M 985 183 L 1014.664062 183 L 1026.664062 154.785156 L 1038.664062 183 L 1068.332031 183 L 1044.332031 200.4375 L 1052.417969 231.980469 L 1026.664062 214.542969 L 1000.914062 231.980469 L 1013.214844 200.4375 L 985 183 "/>
<path style="fill-rule:nonzero;fill:rgb(35%,70%,90%);fill-opacity:1;stroke-width:1;stroke-linecap:butt;stroke-linejoin:miter;stroke:rgb(0%,0%,0%);stroke-opacity:1;stroke-miterlimit:10;" d="M 476 97 L 505.664062 97 L 517.664062 68.785156 L 529.664062 97 L 559.332031 97 L 535.332031 114.4375 L 543.417969 145.980469 L 517.664062 128.542969 L 491.914062 145.980469 L 504.214844 114.4375 L 476 97 "/>
<path style="fill-rule:nonzero;fill:rgb(35%,70%,90%);fill-opacity:1;stroke-width:1;stroke-linecap:butt;stroke-linejoin:miter;stroke:rgb(0%,0%,0%);stroke-opacity:1;stroke-miterlimit:10;" d="M 165 244 L 194.664062 244 L 206.664062 215.785156 L 218.664062 244 L 248.332031 244 L 224.332031 261.4375 L 232.417969 292.980469 L 206.664062 275.542969 L 180.914062 292.980469 L 193.214844 261.4375 L 165 244 "/>
<path style="fill-rule:nonzero;fill:rgb(53%,27%,7%);fill-opacity:1;stroke-width:1;stroke-linecap:butt;stroke-linejoin:miter;stroke:rgb(0%,0%,0%);stroke-opacity:1;stroke-miterlimit:10;" d="M 484.214844 373 C 484.214844 384.714844 474.714844 394.214844 463 394.214844 C 451.285156 394.214844 441.785156 384.714844 441.785156 373 C 441.785156 361.285156 451.285156 351.785156 463 351.785156 C 474.714844 351.785156 484.214844 361.285156 484.214844 373 "/>
<path style="fill-rule:nonzero;fill:rgb(53%,27%,7%);fill-opacity:1;stroke-width:1;stroke-linecap:butt;stroke-linejoin:miter;stroke:rgb(0%,0%,0%);stroke-opacity:1;stroke-miterlimit:10;" d="M 627.214844 263 C 627.214844 274.714844 617.714844 284.214844 606 284.214844 C 594.285156 284.214844 584.785156 274.714844 584.785156 263 C 584.785156 251.285156 594.285156 241.785156 606 241.785156 C 617.714844 241.785156 627.214844 251.285156 627.214844 263 "/>
<path style="fill-rule:nonzero;fill:rgb(53%,27%,7%);fill-opacity:1;stroke-width:1;stroke-linecap:butt;stroke-linejoin:miter;stroke:rgb(0%,0%,0%);stroke-opacity:1;stroke-miterlimit:10;" d="M 372.214844 428 C 372.214844 439.714844 362.714844 449.214844 351 449.214844 C 339.285156 449.214844 329.785156 439.714844 329.785156 428 C 329.785156 416.285156 339.285156 406.785156 351 406.785156 C 362.714844 406.785156 372.214844 416.285156 372.214844 428 "/>
<path style="fill-rule:nonzero;fill:rgb(53%,27%,7%);fill-opacity:1;stroke-width:1;stroke-linecap:butt;stroke-linejoin:miter;stroke:rgb(0%,0%,0%);stroke-opacity:1;stroke-miterlimit:10;" d="M 909.214844 275 C 909.214844 286.714844 899.714844 296.214844 888 296.214844 C 876.285156 296.214844 866.785156 286.714844 866.785156 275 C 866.785156 263.285156 876.285156 253.785156 888 253.785156 C 899.714844 253.785156 909.214844 263.285156 909.214844 275 "/>
</g>
</svg>
