<?xml version="1.0" encoding="UTF-8"?>
<svg xmlns="http://www.w3.org/2000/svg" xmlns:xlink="http://www.w3.org/1999/xlink" width="1179pt" height="517pt" viewBox="0 0 1179 517" version="1.1">
<g id="surface366">
<rect x="0" y="0" width="1179" height="517" style="fill:rgb(90%,90%,90%);fill-opacity:1;stroke:none;"/>
<path style="fill-rule:nonzero;fill:rgb(35%,70%,90%);fill-opacity:1;stroke-width:1;stroke-linecap:butt;stroke-linejoin:miter;stroke:rgb(0%,0%,0%);stroke-opacity:1;stroke-miterlimit:10;" d="M 208 204 L 237.664062 204 L 249.664062 175.785156 L 261.664062 204 L 291.332031 204 L 267.332031 221.4375 L 275.417969 252.980469 L 249.664062 235.542969 L 223.914062 252.980469 L 236.214844 221.4375 L 208 204 "/>
<path style="fill-rule:nonzero;fill:rgb(35%,70%,90%);fill-opacity:1;stroke-width:1;stroke-linecap:butt;stroke-linejoin:miter;stroke:rgb(0%,0%,0%);stroke-opacity:1;stroke-miterlimit:10;" d="M 606 332 L 635.664062 332 L 647.664062 303.785156 L 659.664062 332 L 689.332031 332 L 665.332031 349.4375 L 673.417969 380.980469 L 647.664062 363.542969 L 621.914062 380.980469 L 634.214844 349.4375 L 606 332 "/>
<path style="fill-rule:nonzero;fill:rgb(35%,70%,90%);fill-opacity:1;stroke-width:1;stroke-linecap:butt;stroke-linejoin:miter;stroke:rgb(0%,0%,0%);stroke-opacity:1;stroke-miterlimit:10;" d="M 904 141 L 933.664062 141 L 945.664062 112.785156 L 957.664062 141 L 987.332031 141 L 963.332031 158.4375 L 971.417969 189.980469 L 945.664062 172.542969 L 919.914062 189.980469 L 932.214844 158.4375 L 904 141 "/>
<path style="fill-rule:nonzero;fill:rgb(35%,70%,90%);fill-opacity:1;stroke-width:1;stroke-linecap:butt;stroke-linejoin:miter;stroke:rgb(0%,0%,0%);stroke-opacity:1;stroke-miterlimit:10;" d="M 419 172 L 448.664062 172 L 460.664062 143.785156 L 472.664062 172 L 502.332031 172 L 478.332031 189.4375 L 486.417969 220.980469 L 460.664062 203.542969 L 434.914062 220.980469 L 447.214844 189.4375 L 419 172 "/>
<path style="fill-rule:nonzero;fill:rgb(35%,70%,90%);fill-opacity:1;stroke-width:1;stroke-linecap:butt;stroke-linejoin:miter;stroke:rgb(0%,0%,0%);stroke-opacity:1;stroke-miterlimit:10;" d="M 155 404 L 184.664062 404 L 196.664062 375.785156 L 208.664062 404 L 238.332031 404 L 214.332031 421.4375 L 222.417969 452.980469 L 196.664062 435.542969 L 170.914062 452.980469 L 183.214844 421.4375 L 155 404 "/>
<path style="fill-rule:nonzero;fill:rgb(100%,51%,0%);fill-opacity:1;stroke-width:1;stroke-linecap:butt;stroke-linejoin:miter;stroke:rgb(0%,0%,0%);stroke-opacity:1;stroke-miterlimit:10;" d="M 274 288 L 248.019531 333 L 299.980469 333 L 274 288 "/>
<path style="fill-rule:nonzero;fill:rgb(100%,51%,0%);fill-opacity:1;stroke-width:1;stroke-linecap:butt;stroke-linejoin:miter;stroke:rgb(0%,0%,0%);stroke-opacity:1;stroke-miterlimit:10;" d="M 85 151 L 59.019531 196 L 110.980469 196 L 85 151 "/>
<path style="fill-rule:nonzero;fill:rgb(100%,51%,0%);fill-opacity:1;stroke-width:1;stroke-linecap:butt;stroke-linejoin:miter;stroke:rgb(0%,0%,0%);stroke-opacity:1;stroke-miterlimit:10;" d="M 367 391 L 341.019531 436 L 392.980469 436 L 367 391 "/>
<path style="fill-rule:nonzero;fill:rgb(100%,51%,0%);fill-opacity:1;stroke-width:1;stroke-linecap:butt;stroke-linejoin:miter;stroke:rgb(0%,0%,0%);stroke-opacity:1;stroke-miterlimit:10;" d="M 591 156 L 565.019531 201 L 616.980469 201 L 591 156 "/>
<path style="fill-rule:nonzero;fill:rgb(100%,51%,0%);fill-opacity:1;stroke-width:1;stroke-linecap:butt;stroke-linejoin:miter;stroke:rgb(0%,0%,0%);stroke-opacity:1;stroke-miterlimit:10;" d="M 786 289 L 760.019531 334 L 811.980469 334 L 786 289 "/>
</g>
</svg>
