<?xml version="1.0" encoding="UTF-8"?>
<svg xmlns="http://www.w3.org/2000/svg" xmlns:xlink="http://www.w3.org/1999/xlink" width="1179pt" height="517pt" viewBox="0 0 1179 517" version="1.1">
<g id="surface696">
<rect x="0" y="0" width="1179" height="517" style="fill:rgb(90%,90%,90%);fill-opacity:1;stroke:none;"/>
<path style="fill-rule:nonzero;fill:rgb(55%,51%,53%);fill-opacity:1;stroke-width:1;stroke-linecap:butt;stroke-linejoin:miter;stroke:rgb(0%,0%,0%);stroke-opacity:1;stroke-miterlimit:10;" d="M 143 82 L 172.664062 82 L 184.664062 53.785156 L 196.664062 82 L 226.332031 82 L 202.332031 99.4375 L 210.417969 130.980469 L 184.664062 113.542969 L 158.914062 130.980469 L 171.214844 99.4375 L 143 82 "/>
<path style="fill-rule:nonzero;fill:rgb(55%,51%,53%);fill-opacity:1;stroke-width:1;stroke-linecap:butt;stroke-linejoin:miter;stroke:rgb(0%,0%,0%);stroke-opacity:1;stroke-miterlimit:10;" d="M 1029 177 L 1058.664062 177 L 1070.664062 148.785156 L 1082.664062 177 L 1112.332031 177 L 1088.332031 194.4375 L 1096.417969 225.980469 L 1070.664062 208.542969 L 1044.914062 225.980469 L 1057.214844 194.4375 L 1029 177 "/>
<path style="fill-rule:nonzero;fill:rgb(55%,51%,53%);fill-opacity:1;stroke-width:1;stroke-linecap:butt;stroke-linejoin:miter;stroke:rgb(0%,0%,0%);stroke-opacity:1;stroke-miterlimit:10;" d="M 618 375 L 647.664062 375 L 659.664062 346.785156 L 671.664062 375 L 701.332031 375 L 677.332031 392.4375 L 685.417969 423.980469 L 659.664062 406.542969 L 633.914062 423.980469 L 646.214844 392.4375 L 618 375 "/>
<path style="fill-rule:nonzero;fill:rgb(55%,51%,53%);fill-opacity:1;stroke-width:1;stroke-linecap:butt;stroke-linejoin:miter;stroke:rgb(0%,0%,0%);stroke-opacity:1;stroke-miterlimit:10;" d="M 269 109 L 298.664062 109 L 310.664062 80.785156 L 322.664062 109 L 352.332031 109 L 328.332031 126.4375 L 336.417969 157.980469 L 310.664062 140.542969 L 284.914062 157.980469 L 297.214844 126.4375 L 269 109 "/>
<path style="fill-rule:nonzero;fill:rgb(53%,27%,7%);fill-opacity:1;stroke-width:1;stroke-linecap:butt;stroke-linejoin:miter;stroke:rgb(0%,0%,0%);stroke-opacity:1;stroke-miterlimit:10;" d="M 411 87 L 385.019531 132 L 436.980469 132 L 411 87 "/>
<path style="fill-rule:nonzero;fill:rgb(53%,27%,7%);fill-opacity:1;stroke-width:1;stroke-linecap:butt;stroke-linejoin:miter;stroke:rgb(0%,0%,0%);stroke-opacity:1;stroke-miterlimit:10;" d="M 272 393 L 246.019531 438 L 297.980469 438 L 272 393 "/>
<path style="fill-rule:nonzero;fill:rgb(53%,27%,7%);fill-opacity:1;stroke-width:1;stroke-linecap:butt;stroke-linejoin:miter;stroke:rgb(0%,0%,0%);stroke-opacity:1;stroke-miterlimit:10;" d="M 644 68 L 618.019531 113 L 669.980469 113 L 644 68 "/>
<path style="fill-rule:nonzero;fill:rgb(53%,27%,7%);fill-opacity:1;stroke-width:1;stroke-linecap:butt;stroke-linejoin:miter;stroke:rgb(0%,0%,0%);stroke-opacity:1;stroke-miterlimit:10;" d="M 314 245 L 288.019531 290 L 339.980469 290 L 314 245 "/>
</g>
</svg>
