<?xml version="1.0" encoding="UTF-8"?>
<svg xmlns="http://www.w3.org/2000/svg" xmlns:xlink="http://www.w3.org/1999/xlink" width="1179pt" height="517pt" viewBox="0 0 1179 517" version="1.1">
<g id="surface371">
<rect x="0" y="0" width="1179" height="517" style="fill:rgb(90%,90%,90%);fill-opacity:1;stroke:none;"/>
<path style="fill-rule:nonzero;fill:rgb(35%,70%,90%);fill-opacity:1;stroke-width:1;stroke-linecap:butt;stroke-linejoin:miter;stroke:rgb(0%,0%,0%);stroke-opacity:1;stroke-miterlimit:10;" d="M 324 143 L 353.664062 143 L 365.664062 114.785156 L 377.664062 143 L 407.332031 143 L 383.332031 160.4375 L 391.417969 191.980469 L 365.664062 174.542969 L 339.914062 191.980469 L 352.214844 160.4375 L 324 143 "/>
<path style="fill-rule:nonzero;fill:rgb(35%,70%,90%);fill-opacity:1;stroke-width:1;stroke-linecap:butt;stroke-linejoin:miter;stroke:rgb(0%,0%,0%);stroke-opacity:1;stroke-miterlimit:10;" d="M 398.785156 101.785156 L 398.785156 144.214844 L 441.214844 144.214844 L 441.214844 101.785156 L 398.785156 101.785156 "/>
<path style="fill-rule:nonzero;fill:rgb(35%,70%,90%);fill-opacity:1;stroke-width:1;stroke-linecap:butt;stroke-linejoin:miter;stroke:rgb(0%,0%,0%);stroke-opacity:1;stroke-miterlimit:10;" d="M 216 139 L 245.664062 139 L 257.664062 110.785156 L 269.664062 139 L 299.332031 139 L 275.332031 156.4375 L 283.417969 187.980469 L 257.664062 170.542969 L 231.914062 187.980469 L 244.214844 156.4375 L 216 139 "/>
<path style="fill-rule:nonzero;fill:rgb(35%,70%,90%);fill-opacity:1;stroke-width:1;stroke-linecap:butt;stroke-linejoin:miter;stroke:rgb(0%,0%,0%);stroke-opacity:1;stroke-miterlimit:10;" d="M 349 359 L 378.664062 359 L 390.664062 330.785156 L 402.664062 359 L 432.332031 359 L 408.332031 376.4375 L 416.417969 407.980469 L 390.664062 390.542969 L 364.914062 407.980469 L 377.214844 376.4375 L 349 359 "/>
<path style="fill-rule:nonzero;fill:rgb(35%,70%,90%);fill-opacity:1;stroke-width:1;stroke-linecap:butt;stroke-linejoin:miter;stroke:rgb(0%,0%,0%);stroke-opacity:1;stroke-miterlimit:10;" d="M 97 428 L 126.664062 428 L 138.664062 399.785156 L 150.664062 428 L 180.332031 428 L 156.332031 445.4375 L 164.417969 476.980469 L 138.664062 459.542969 L 112.914062 476.980469 L 125.214844 445.4375 L 97 428 "/>
<path style="fill-rule:nonzero;fill:rgb(100%,51%,0%);fill-opacity:1;stroke-width:1;stroke-linecap:butt;stroke-linejoin:miter;stroke:rgb(0%,0%,0%);stroke-opacity:1;stroke-miterlimit:10;" d="M 671.785156 325.785156 L 671.785156 368.214844 L 714.214844 368.214844 L 714.214844 325.785156 L 671.785156 325.785156 "/>
<path style="fill-rule:nonzero;fill:rgb(100%,51%,0%);fill-opacity:1;stroke-width:1;stroke-linecap:butt;stroke-linejoin:miter;stroke:rgb(0%,0%,0%);stroke-opacity:1;stroke-miterlimit:10;" d="M 842 129 L 871.664062 129 L 883.664062 100.785156 L 895.664062 129 L 925.332031 129 L 901.332031 146.4375 L 909.417969 177.980469 L 883.664062 160.542969 L 857.914062 177.980469 L 870.214844 146.4375 L 842 129 "/>
<path style="fill-rule:nonzero;fill:rgb(100%,51%,0%);fill-opacity:1;stroke-width:1;stroke-linecap:butt;stroke-linejoin:miter;stroke:rgb(0%,0%,0%);stroke-opacity:1;stroke-miterlimit:10;" d="M 694.785156 153.785156 L 694.785156 196.214844 L 737.214844 196.214844 L 737.214844 153.785156 L 694.785156 153.785156 "/>
</g>
</svg>
