<?xml version="1.0" encoding="UTF-8"?>
<svg xmlns="http://www.w3.org/2000/svg" xmlns:xlink="http://www.w3.org/1999/xlink" width="1179pt" height="517pt" viewBox="0 0 1179 517" version="1.1">
<g id="surface616">
<rect x="0" y="0" width="1179" height="517" style="fill:rgb(90%,90%,90%);fill-opacity:1;stroke:none;"/>
<path style="fill-rule:nonzero;fill:rgb(35%,70%,90%);fill-opacity:1;stroke-width:1;stroke-linecap:butt;stroke-linejoin:miter;stroke:rgb(0%,0%,0%);stroke-opacity:1;stroke-miterlimit:10;" d="M 389.214844 392 C 389.214844 403.714844 379.714844 413.214844 368 413.214844 C 356.285156 413.214844 346.785156 403.714844 346.785156 392 C 346.785156 380.285156 356.285156 370.785156 368 370.785156 C 379.714844 370.785156 389.214844 380.285156 389.214844 392 "/>
<path style="fill-rule:nonzero;fill:rgb(35%,70%,90%);fill-opacity:1;stroke-width:1;stroke-linecap:butt;stroke-linejoin:miter;stroke:rgb(0%,0%,0%);stroke-opacity:1;stroke-miterlimit:10;" d="M 229.214844 93 C 229.214844 104.714844 219.714844 114.214844 208 114.214844 C 196.285156 114.214844 186.785156 104.714844 186.785156 93 C 186.785156 81.285156 196.285156 71.785156 208 71.785156 C 219.714844 71.785156 229.214844 81.285156 229.214844 93 "/>
<path style="fill-rule:nonzero;fill:rgb(35%,70%,90%);fill-opacity:1;stroke-width:1;stroke-linecap:butt;stroke-linejoin:miter;stroke:rgb(0%,0%,0%);stroke-opacity:1;stroke-miterlimit:10;" d="M 185.214844 252 C 185.214844 263.714844 175.714844 273.214844 164 273.214844 C 152.285156 273.214844 142.785156 263.714844 142.785156 252 C 142.785156 240.285156 152.285156 230.785156 164 230.785156 C 175.714844 230.785156 185.214844 240.285156 185.214844 252 "/>
<path style="fill-rule:nonzero;fill:rgb(55%,51%,53%);fill-opacity:1;stroke-width:1;stroke-linecap:butt;stroke-linejoin:miter;stroke:rgb(0%,0%,0%);stroke-opacity:1;stroke-miterlimit:10;" d="M 981 145 L 955.019531 190 L 1006.980469 190 L 981 145 "/>
<path style="fill-rule:nonzero;fill:rgb(55%,51%,53%);fill-opacity:1;stroke-width:1;stroke-linecap:butt;stroke-linejoin:miter;stroke:rgb(0%,0%,0%);stroke-opacity:1;stroke-miterlimit:10;" d="M 1009 243 L 983.019531 288 L 1034.980469 288 L 1009 243 "/>
<path style="fill-rule:nonzero;fill:rgb(55%,51%,53%);fill-opacity:1;stroke-width:1;stroke-linecap:butt;stroke-linejoin:miter;stroke:rgb(0%,0%,0%);stroke-opacity:1;stroke-miterlimit:10;" d="M 886 394 L 860.019531 439 L 911.980469 439 L 886 394 "/>
<path style="fill-rule:nonzero;fill:rgb(35%,70%,90%);fill-opacity:1;stroke-width:1;stroke-linecap:butt;stroke-linejoin:miter;stroke:rgb(0%,0%,0%);stroke-opacity:1;stroke-miterlimit:10;" d="M 885 170 L 859.019531 215 L 910.980469 215 L 885 170 "/>
</g>
</svg>
