<?xml version="1.0" encoding="UTF-8"?>
<svg xmlns="http://www.w3.org/2000/svg" xmlns:xlink="http://www.w3.org/1999/xlink" width="1179pt" height="517pt" viewBox="0 0 1179 517" version="1.1">
<g id="surface1481">
<rect x="0" y="0" width="1179" height="517" style="fill:rgb(90%,90%,90%);fill-opacity:1;stroke:none;"/>
<path style="fill-rule:nonzero;fill:rgb(53%,27%,7%);fill-opacity:1;stroke-width:1;stroke-linecap:butt;stroke-linejoin:miter;stroke:rgb(0%,0%,0%);stroke-opacity:1;stroke-miterlimit:10;" d="M 538 180 L 512.019531 225 L 563.980469 225 L 538 180 "/>
<path style="fill-rule:nonzero;fill:rgb(53%,27%,7%);fill-opacity:1;stroke-width:1;stroke-linecap:butt;stroke-linejoin:miter;stroke:rgb(0%,0%,0%);stroke-opacity:1;stroke-miterlimit:10;" d="M 559 347 L 533.019531 392 L 584.980469 392 L 559 347 "/>
<path style="fill-rule:nonzero;fill:rgb(53%,27%,7%);fill-opacity:1;stroke-width:1;stroke-linecap:butt;stroke-linejoin:miter;stroke:rgb(0%,0%,0%);stroke-opacity:1;stroke-miterlimit:10;" d="M 247 110 L 221.019531 155 L 272.980469 155 L 247 110 "/>
<path style="fill-rule:nonzero;fill:rgb(53%,27%,7%);fill-opacity:1;stroke-width:1;stroke-linecap:butt;stroke-linejoin:miter;stroke:rgb(0%,0%,0%);stroke-opacity:1;stroke-miterlimit:10;" d="M 716 312 L 690.019531 357 L 741.980469 357 L 716 312 "/>
<path style="fill-rule:nonzero;fill:rgb(35%,70%,90%);fill-opacity:1;stroke-width:1;stroke-linecap:butt;stroke-linejoin:miter;stroke:rgb(0%,0%,0%);stroke-opacity:1;stroke-miterlimit:10;" d="M 838 413 L 867.664062 413 L 879.664062 384.785156 L 891.664062 413 L 921.332031 413 L 897.332031 430.4375 L 905.417969 461.980469 L 879.664062 444.542969 L 853.914062 461.980469 L 866.214844 430.4375 L 838 413 "/>
<path style="fill-rule:nonzero;fill:rgb(35%,70%,90%);fill-opacity:1;stroke-width:1;stroke-linecap:butt;stroke-linejoin:miter;stroke:rgb(0%,0%,0%);stroke-opacity:1;stroke-miterlimit:10;" d="M 969 276 L 998.664062 276 L 1010.664062 247.785156 L 1022.664062 276 L 1052.332031 276 L 1028.332031 293.4375 L 1036.417969 324.980469 L 1010.664062 307.542969 L 984.914062 324.980469 L 997.214844 293.4375 L 969 276 "/>
<path style="fill-rule:nonzero;fill:rgb(35%,70%,90%);fill-opacity:1;stroke-width:1;stroke-linecap:butt;stroke-linejoin:miter;stroke:rgb(0%,0%,0%);stroke-opacity:1;stroke-miterlimit:10;" d="M 294 365 L 323.664062 365 L 335.664062 336.785156 L 347.664062 365 L 377.332031 365 L 353.332031 382.4375 L 361.417969 413.980469 L 335.664062 396.542969 L 309.914062 413.980469 L 322.214844 382.4375 L 294 365 "/>
<path style="fill-rule:nonzero;fill:rgb(35%,70%,90%);fill-opacity:1;stroke-width:1;stroke-linecap:butt;stroke-linejoin:miter;stroke:rgb(0%,0%,0%);stroke-opacity:1;stroke-miterlimit:10;" d="M 744 192 L 773.664062 192 L 785.664062 163.785156 L 797.664062 192 L 827.332031 192 L 803.332031 209.4375 L 811.417969 240.980469 L 785.664062 223.542969 L 759.914062 240.980469 L 772.214844 209.4375 L 744 192 "/>
<path style="fill-rule:nonzero;fill:rgb(35%,70%,90%);fill-opacity:1;stroke-width:1;stroke-linecap:butt;stroke-linejoin:miter;stroke:rgb(0%,0%,0%);stroke-opacity:1;stroke-miterlimit:10;" d="M 933 119 L 962.664062 119 L 974.664062 90.785156 L 986.664062 119 L 1016.332031 119 L 992.332031 136.4375 L 1000.417969 167.980469 L 974.664062 150.542969 L 948.914062 167.980469 L 961.214844 136.4375 L 933 119 "/>
</g>
</svg>
