<?xml version="1.0" encoding="UTF-8"?>
<svg xmlns="http://www.w3.org/2000/svg" xmlns:xlink="http://www.w3.org/1999/xlink" width="1179pt" height="517pt" viewBox="0 0 1179 517" version="1.1">
<g id="surface321">
<rect x="0" y="0" width="1179" height="517" style="fill:rgb(90%,90%,90%);fill-opacity:1;stroke:none;"/>
<path style="fill-rule:nonzero;fill:rgb(100%,51%,0%);fill-opacity:1;stroke-width:1;stroke-linecap:butt;stroke-linejoin:miter;stroke:rgb(0%,0%,0%);stroke-opacity:1;stroke-miterlimit:10;" d="M 157.214844 306 C 157.214844 317.714844 147.714844 327.214844 136 327.214844 C 124.285156 327.214844 114.785156 317.714844 114.785156 306 C 114.785156 294.285156 124.285156 284.785156 136 284.785156 C 147.714844 284.785156 157.214844 294.285156 157.214844 306 "/>
<path style="fill-rule:nonzero;fill:rgb(100%,51%,0%);fill-opacity:1;stroke-width:1;stroke-linecap:butt;stroke-linejoin:miter;stroke:rgb(0%,0%,0%);stroke-opacity:1;stroke-miterlimit:10;" d="M 383.214844 329 C 383.214844 340.714844 373.714844 350.214844 362 350.214844 C 350.285156 350.214844 340.785156 340.714844 340.785156 329 C 340.785156 317.285156 350.285156 307.785156 362 307.785156 C 373.714844 307.785156 383.214844 317.285156 383.214844 329 "/>
<path style="fill-rule:nonzero;fill:rgb(100%,51%,0%);fill-opacity:1;stroke-width:1;stroke-linecap:butt;stroke-linejoin:miter;stroke:rgb(0%,0%,0%);stroke-opacity:1;stroke-miterlimit:10;" d="M 190.785156 387.785156 L 190.785156 430.214844 L 233.214844 430.214844 L 233.214844 387.785156 L 190.785156 387.785156 "/>
<path style="fill-rule:nonzero;fill:rgb(100%,51%,0%);fill-opacity:1;stroke-width:1;stroke-linecap:butt;stroke-linejoin:miter;stroke:rgb(0%,0%,0%);stroke-opacity:1;stroke-miterlimit:10;" d="M 384.214844 127 C 384.214844 138.714844 374.714844 148.214844 363 148.214844 C 351.285156 148.214844 341.785156 138.714844 341.785156 127 C 341.785156 115.285156 351.285156 105.785156 363 105.785156 C 374.714844 105.785156 384.214844 115.285156 384.214844 127 "/>
<path style="fill-rule:nonzero;fill:rgb(100%,51%,0%);fill-opacity:1;stroke-width:1;stroke-linecap:butt;stroke-linejoin:miter;stroke:rgb(0%,0%,0%);stroke-opacity:1;stroke-miterlimit:10;" d="M 136.214844 93 C 136.214844 104.714844 126.714844 114.214844 115 114.214844 C 103.285156 114.214844 93.785156 104.714844 93.785156 93 C 93.785156 81.285156 103.285156 71.785156 115 71.785156 C 126.714844 71.785156 136.214844 81.285156 136.214844 93 "/>
<path style="fill-rule:nonzero;fill:rgb(55%,51%,53%);fill-opacity:1;stroke-width:1;stroke-linecap:butt;stroke-linejoin:miter;stroke:rgb(0%,0%,0%);stroke-opacity:1;stroke-miterlimit:10;" d="M 783.785156 209.785156 L 783.785156 252.214844 L 826.214844 252.214844 L 826.214844 209.785156 L 783.785156 209.785156 "/>
<path style="fill-rule:nonzero;fill:rgb(55%,51%,53%);fill-opacity:1;stroke-width:1;stroke-linecap:butt;stroke-linejoin:miter;stroke:rgb(0%,0%,0%);stroke-opacity:1;stroke-miterlimit:10;" d="M 760.785156 381.785156 L 760.785156 424.214844 L 803.214844 424.214844 L 803.214844 381.785156 L 760.785156 381.785156 "/>
<path style="fill-rule:nonzero;fill:rgb(55%,51%,53%);fill-opacity:1;stroke-width:1;stroke-linecap:butt;stroke-linejoin:miter;stroke:rgb(0%,0%,0%);stroke-opacity:1;stroke-miterlimit:10;" d="M 750.214844 139 C 750.214844 150.714844 740.714844 160.214844 729 160.214844 C 717.285156 160.214844 707.785156 150.714844 707.785156 139 C 707.785156 127.285156 717.285156 117.785156 729 117.785156 C 740.714844 117.785156 750.214844 127.285156 750.214844 139 "/>
<path style="fill-rule:nonzero;fill:rgb(55%,51%,53%);fill-opacity:1;stroke-width:1;stroke-linecap:butt;stroke-linejoin:miter;stroke:rgb(0%,0%,0%);stroke-opacity:1;stroke-miterlimit:10;" d="M 986.785156 123.785156 L 986.785156 166.214844 L 1029.214844 166.214844 L 1029.214844 123.785156 L 986.785156 123.785156 "/>
<path style="fill-rule:nonzero;fill:rgb(55%,51%,53%);fill-opacity:1;stroke-width:1;stroke-linecap:butt;stroke-linejoin:miter;stroke:rgb(0%,0%,0%);stroke-opacity:1;stroke-miterlimit:10;" d="M 892.785156 99.785156 L 892.785156 142.214844 L 935.214844 142.214844 L 935.214844 99.785156 L 892.785156 99.785156 "/>
</g>
</svg>
