<?xml version="1.0" encoding="UTF-8"?>
<svg xmlns="http://www.w3.org/2000/svg" xmlns:xlink="http://www.w3.org/1999/xlink" width="1179pt" height="517pt" viewBox="0 0 1179 517" version="1.1">
<g id="surface226">
<rect x="0" y="0" width="1179" height="517" style="fill:rgb(90%,90%,90%);fill-opacity:1;stroke:none;"/>
<path style="fill-rule:nonzero;fill:rgb(35%,70%,90%);fill-opacity:1;stroke-width:1;stroke-linecap:butt;stroke-linejoin:miter;stroke:rgb(0%,0%,0%);stroke-opacity:1;stroke-miterlimit:10;" d="M 146.214844 253 C 146.214844 264.714844 136.714844 274.214844 125 274.214844 C 113.285156 274.214844 103.785156 264.714844 103.785156 253 C 103.785156 241.285156 113.285156 231.785156 125 231.785156 C 136.714844 231.785156 146.214844 241.285156 146.214844 253 "/>
<path style="fill-rule:nonzero;fill:rgb(53%,27%,7%);fill-opacity:1;stroke-width:1;stroke-linecap:butt;stroke-linejoin:miter;stroke:rgb(0%,0%,0%);stroke-opacity:1;stroke-miterlimit:10;" d="M 327.214844 122 C 327.214844 133.714844 317.714844 143.214844 306 143.214844 C 294.285156 143.214844 284.785156 133.714844 284.785156 122 C 284.785156 110.285156 294.285156 100.785156 306 100.785156 C 317.714844 100.785156 327.214844 110.285156 327.214844 122 "/>
<path style="fill-rule:nonzero;fill:rgb(35%,70%,90%);fill-opacity:1;stroke-width:1;stroke-linecap:butt;stroke-linejoin:miter;stroke:rgb(0%,0%,0%);stroke-opacity:1;stroke-miterlimit:10;" d="M 239.214844 85 C 239.214844 96.714844 229.714844 106.214844 218 106.214844 C 206.285156 106.214844 196.785156 96.714844 196.785156 85 C 196.785156 73.285156 206.285156 63.785156 218 63.785156 C 229.714844 63.785156 239.214844 73.285156 239.214844 85 "/>
<path style="fill-rule:nonzero;fill:rgb(53%,27%,7%);fill-opacity:1;stroke-width:1;stroke-linecap:butt;stroke-linejoin:miter;stroke:rgb(0%,0%,0%);stroke-opacity:1;stroke-miterlimit:10;" d="M 958 249 L 932.019531 294 L 983.980469 294 L 958 249 "/>
<path style="fill-rule:nonzero;fill:rgb(35%,70%,90%);fill-opacity:1;stroke-width:1;stroke-linecap:butt;stroke-linejoin:miter;stroke:rgb(0%,0%,0%);stroke-opacity:1;stroke-miterlimit:10;" d="M 725 273 L 699.019531 318 L 750.980469 318 L 725 273 "/>
<path style="fill-rule:nonzero;fill:rgb(53%,27%,7%);fill-opacity:1;stroke-width:1;stroke-linecap:butt;stroke-linejoin:miter;stroke:rgb(0%,0%,0%);stroke-opacity:1;stroke-miterlimit:10;" d="M 759 367 L 733.019531 412 L 784.980469 412 L 759 367 "/>
</g>
</svg>
