<?xml version="1.0" encoding="UTF-8"?>
<svg xmlns="http://www.w3.org/2000/svg" xmlns:xlink="http://www.w3.org/1999/xlink" width="1179pt" height="517pt" viewBox="0 0 1179 517" version="1.1">
<g id="surface881">
<rect x="0" y="0" width="1179" height="517" style="fill:rgb(90%,90%,90%);fill-opacity:1;stroke:none;"/>
<path style="fill-rule:nonzero;fill:rgb(35%,70%,90%);fill-opacity:1;stroke-width:1;stroke-linecap:butt;stroke-linejoin:miter;stroke:rgb(0%,0%,0%);stroke-opacity:1;stroke-miterlimit:10;" d="M 1064.214844 364 C 1064.214844 375.714844 1054.714844 385.214844 1043 385.214844 C 1031.285156 385.214844 1021.785156 375.714844 1021.785156 364 C 1021.785156 352.285156 1031.285156 342.785156 1043 342.785156 C 1054.714844 342.785156 1064.214844 352.285156 1064.214844 364 "/>
<path style="fill-rule:nonzero;fill:rgb(35%,70%,90%);fill-opacity:1;stroke-width:1;stroke-linecap:butt;stroke-linejoin:miter;stroke:rgb(0%,0%,0%);stroke-opacity:1;stroke-miterlimit:10;" d="M 706.214844 251 C 706.214844 262.714844 696.714844 272.214844 685 272.214844 C 673.285156 272.214844 663.785156 262.714844 663.785156 251 C 663.785156 239.285156 673.285156 229.785156 685 229.785156 C 696.714844 229.785156 706.214844 239.285156 706.214844 251 "/>
<path style="fill-rule:nonzero;fill:rgb(35%,70%,90%);fill-opacity:1;stroke-width:1;stroke-linecap:butt;stroke-linejoin:miter;stroke:rgb(0%,0%,0%);stroke-opacity:1;stroke-miterlimit:10;" d="M 381.214844 348 C 381.214844 359.714844 371.714844 369.214844 360 369.214844 C 348.285156 369.214844 338.785156 359.714844 338.785156 348 C 338.785156 336.285156 348.285156 326.785156 360 326.785156 C 371.714844 326.785156 381.214844 336.285156 381.214844 348 "/>
<path style="fill-rule:nonzero;fill:rgb(67%,100%,18%);fill-opacity:1;stroke-width:1;stroke-linecap:butt;stroke-linejoin:miter;stroke:rgb(0%,0%,0%);stroke-opacity:1;stroke-miterlimit:10;" d="M 817 334 L 846.664062 334 L 858.664062 305.785156 L 870.664062 334 L 900.332031 334 L 876.332031 351.4375 L 884.417969 382.980469 L 858.664062 365.542969 L 832.914062 382.980469 L 845.214844 351.4375 L 817 334 "/>
<path style="fill-rule:nonzero;fill:rgb(67%,100%,18%);fill-opacity:1;stroke-width:1;stroke-linecap:butt;stroke-linejoin:miter;stroke:rgb(0%,0%,0%);stroke-opacity:1;stroke-miterlimit:10;" d="M 394 86 L 423.664062 86 L 435.664062 57.785156 L 447.664062 86 L 477.332031 86 L 453.332031 103.4375 L 461.417969 134.980469 L 435.664062 117.542969 L 409.914062 134.980469 L 422.214844 103.4375 L 394 86 "/>
<path style="fill-rule:nonzero;fill:rgb(67%,100%,18%);fill-opacity:1;stroke-width:1;stroke-linecap:butt;stroke-linejoin:miter;stroke:rgb(0%,0%,0%);stroke-opacity:1;stroke-miterlimit:10;" d="M 101 297 L 130.664062 297 L 142.664062 268.785156 L 154.664062 297 L 184.332031 297 L 160.332031 314.4375 L 168.417969 345.980469 L 142.664062 328.542969 L 116.914062 345.980469 L 129.214844 314.4375 L 101 297 "/>
<path style="fill-rule:nonzero;fill:rgb(67%,100%,18%);fill-opacity:1;stroke-width:1;stroke-linecap:butt;stroke-linejoin:miter;stroke:rgb(0%,0%,0%);stroke-opacity:1;stroke-miterlimit:10;" d="M 629 128 L 658.664062 128 L 670.664062 99.785156 L 682.664062 128 L 712.332031 128 L 688.332031 145.4375 L 696.417969 176.980469 L 670.664062 159.542969 L 644.914062 176.980469 L 657.214844 145.4375 L 629 128 "/>
</g>
</svg>
