<?xml version="1.0" encoding="UTF-8"?>
<svg xmlns="http://www.w3.org/2000/svg" xmlns:xlink="http://www.w3.org/1999/xlink" width="1179pt" height="517pt" viewBox="0 0 1179 517" version="1.1">
<g id="surface1366">
<rect x="0" y="0" width="1179" height="517" style="fill:rgb(90%,90%,90%);fill-opacity:1;stroke:none;"/>
<path style="fill-rule:nonzero;fill:rgb(100%,51%,0%);fill-opacity:1;stroke-width:1;stroke-linecap:butt;stroke-linejoin:miter;stroke:rgb(0%,0%,0%);stroke-opacity:1;stroke-miterlimit:10;" d="M 496 112 L 525.664062 112 L 537.664062 83.785156 L 549.664062 112 L 579.332031 112 L 555.332031 129.4375 L 563.417969 160.980469 L 537.664062 143.542969 L 511.914062 160.980469 L 524.214844 129.4375 L 496 112 "/>
<path style="fill-rule:nonzero;fill:rgb(100%,51%,0%);fill-opacity:1;stroke-width:1;stroke-linecap:butt;stroke-linejoin:miter;stroke:rgb(0%,0%,0%);stroke-opacity:1;stroke-miterlimit:10;" d="M 686 254 L 715.664062 254 L 727.664062 225.785156 L 739.664062 254 L 769.332031 254 L 745.332031 271.4375 L 753.417969 302.980469 L 727.664062 285.542969 L 701.914062 302.980469 L 714.214844 271.4375 L 686 254 "/>
<path style="fill-rule:nonzero;fill:rgb(100%,51%,0%);fill-opacity:1;stroke-width:1;stroke-linecap:butt;stroke-linejoin:miter;stroke:rgb(0%,0%,0%);stroke-opacity:1;stroke-miterlimit:10;" d="M 782 128 L 811.664062 128 L 823.664062 99.785156 L 835.664062 128 L 865.332031 128 L 841.332031 145.4375 L 849.417969 176.980469 L 823.664062 159.542969 L 797.914062 176.980469 L 810.214844 145.4375 L 782 128 "/>
<path style="fill-rule:nonzero;fill:rgb(100%,51%,0%);fill-opacity:1;stroke-width:1;stroke-linecap:butt;stroke-linejoin:miter;stroke:rgb(0%,0%,0%);stroke-opacity:1;stroke-miterlimit:10;" d="M 612 384 L 641.664062 384 L 653.664062 355.785156 L 665.664062 384 L 695.332031 384 L 671.332031 401.4375 L 679.417969 432.980469 L 653.664062 415.542969 L 627.914062 432.980469 L 640.214844 401.4375 L 612 384 "/>
<path style="fill-rule:nonzero;fill:rgb(53%,27%,7%);fill-opacity:1;stroke-width:1;stroke-linecap:butt;stroke-linejoin:miter;stroke:rgb(0%,0%,0%);stroke-opacity:1;stroke-miterlimit:10;" d="M 996.214844 334 C 996.214844 345.714844 986.714844 355.214844 975 355.214844 C 963.285156 355.214844 953.785156 345.714844 953.785156 334 C 953.785156 322.285156 963.285156 312.785156 975 312.785156 C 986.714844 312.785156 996.214844 322.285156 996.214844 334 "/>
<path style="fill-rule:nonzero;fill:rgb(53%,27%,7%);fill-opacity:1;stroke-width:1;stroke-linecap:butt;stroke-linejoin:miter;stroke:rgb(0%,0%,0%);stroke-opacity:1;stroke-miterlimit:10;" d="M 287.214844 391 C 287.214844 402.714844 277.714844 412.214844 266 412.214844 C 254.285156 412.214844 244.785156 402.714844 244.785156 391 C 244.785156 379.285156 254.285156 369.785156 266 369.785156 C 277.714844 369.785156 287.214844 379.285156 287.214844 391 "/>
<path style="fill-rule:nonzero;fill:rgb(53%,27%,7%);fill-opacity:1;stroke-width:1;stroke-linecap:butt;stroke-linejoin:miter;stroke:rgb(0%,0%,0%);stroke-opacity:1;stroke-miterlimit:10;" d="M 143.214844 138 C 143.214844 149.714844 133.714844 159.214844 122 159.214844 C 110.285156 159.214844 100.785156 149.714844 100.785156 138 C 100.785156 126.285156 110.285156 116.785156 122 116.785156 C 133.714844 116.785156 143.214844 126.285156 143.214844 138 "/>
<path style="fill-rule:nonzero;fill:rgb(53%,27%,7%);fill-opacity:1;stroke-width:1;stroke-linecap:butt;stroke-linejoin:miter;stroke:rgb(0%,0%,0%);stroke-opacity:1;stroke-miterlimit:10;" d="M 408.214844 203 C 408.214844 214.714844 398.714844 224.214844 387 224.214844 C 375.285156 224.214844 365.785156 214.714844 365.785156 203 C 365.785156 191.285156 375.285156 181.785156 387 181.785156 C 398.714844 181.785156 408.214844 191.285156 408.214844 203 "/>
<path style="fill-rule:nonzero;fill:rgb(53%,27%,7%);fill-opacity:1;stroke-width:1;stroke-linecap:butt;stroke-linejoin:miter;stroke:rgb(0%,0%,0%);stroke-opacity:1;stroke-miterlimit:10;" d="M 200.214844 306 C 200.214844 317.714844 190.714844 327.214844 179 327.214844 C 167.285156 327.214844 157.785156 317.714844 157.785156 306 C 157.785156 294.285156 167.285156 284.785156 179 284.785156 C 190.714844 284.785156 200.214844 294.285156 200.214844 306 "/>
</g>
</svg>
