<?xml version="1.0" encoding="UTF-8"?>
<svg xmlns="http://www.w3.org/2000/svg" xmlns:xlink="http://www.w3.org/1999/xlink" width="1179pt" height="517pt" viewBox="0 0 1179 517" version="1.1">
<g id="surface601">
<rect x="0" y="0" width="1179" height="517" style="fill:rgb(90%,90%,90%);fill-opacity:1;stroke:none;"/>
<path style="fill-rule:nonzero;fill:rgb(35%,70%,90%);fill-opacity:1;stroke-width:1;stroke-linecap:butt;stroke-linejoin:miter;stroke:rgb(0%,0%,0%);stroke-opacity:1;stroke-miterlimit:10;" d="M 171 259 L 200.664062 259 L 212.664062 230.785156 L 224.664062 259 L 254.332031 259 L 230.332031 276.4375 L 238.417969 307.980469 L 212.664062 290.542969 L 186.914062 307.980469 L 199.214844 276.4375 L 171 259 "/>
<path style="fill-rule:nonzero;fill:rgb(35%,70%,90%);fill-opacity:1;stroke-width:1;stroke-linecap:butt;stroke-linejoin:miter;stroke:rgb(0%,0%,0%);stroke-opacity:1;stroke-miterlimit:10;" d="M 340 352 L 369.664062 352 L 381.664062 323.785156 L 393.664062 352 L 423.332031 352 L 399.332031 369.4375 L 407.417969 400.980469 L 381.664062 383.542969 L 355.914062 400.980469 L 368.214844 369.4375 L 340 352 "/>
<path style="fill-rule:nonzero;fill:rgb(35%,70%,90%);fill-opacity:1;stroke-width:1;stroke-linecap:butt;stroke-linejoin:miter;stroke:rgb(0%,0%,0%);stroke-opacity:1;stroke-miterlimit:10;" d="M 715 389 L 744.664062 389 L 756.664062 360.785156 L 768.664062 389 L 798.332031 389 L 774.332031 406.4375 L 782.417969 437.980469 L 756.664062 420.542969 L 730.914062 437.980469 L 743.214844 406.4375 L 715 389 "/>
<path style="fill-rule:nonzero;fill:rgb(35%,70%,90%);fill-opacity:1;stroke-width:1;stroke-linecap:butt;stroke-linejoin:miter;stroke:rgb(0%,0%,0%);stroke-opacity:1;stroke-miterlimit:10;" d="M 880 99 L 909.664062 99 L 921.664062 70.785156 L 933.664062 99 L 963.332031 99 L 939.332031 116.4375 L 947.417969 147.980469 L 921.664062 130.542969 L 895.914062 147.980469 L 908.214844 116.4375 L 880 99 "/>
<path style="fill-rule:nonzero;fill:rgb(55%,51%,53%);fill-opacity:1;stroke-width:1;stroke-linecap:butt;stroke-linejoin:miter;stroke:rgb(0%,0%,0%);stroke-opacity:1;stroke-miterlimit:10;" d="M 103.214844 360 C 103.214844 371.714844 93.714844 381.214844 82 381.214844 C 70.285156 381.214844 60.785156 371.714844 60.785156 360 C 60.785156 348.285156 70.285156 338.785156 82 338.785156 C 93.714844 338.785156 103.214844 348.285156 103.214844 360 "/>
<path style="fill-rule:nonzero;fill:rgb(55%,51%,53%);fill-opacity:1;stroke-width:1;stroke-linecap:butt;stroke-linejoin:miter;stroke:rgb(0%,0%,0%);stroke-opacity:1;stroke-miterlimit:10;" d="M 589.214844 398 C 589.214844 409.714844 579.714844 419.214844 568 419.214844 C 556.285156 419.214844 546.785156 409.714844 546.785156 398 C 546.785156 386.285156 556.285156 376.785156 568 376.785156 C 579.714844 376.785156 589.214844 386.285156 589.214844 398 "/>
<path style="fill-rule:nonzero;fill:rgb(55%,51%,53%);fill-opacity:1;stroke-width:1;stroke-linecap:butt;stroke-linejoin:miter;stroke:rgb(0%,0%,0%);stroke-opacity:1;stroke-miterlimit:10;" d="M 629.214844 188 C 629.214844 199.714844 619.714844 209.214844 608 209.214844 C 596.285156 209.214844 586.785156 199.714844 586.785156 188 C 586.785156 176.285156 596.285156 166.785156 608 166.785156 C 619.714844 166.785156 629.214844 176.285156 629.214844 188 "/>
</g>
</svg>
