<?xml version="1.0" encoding="UTF-8"?>
<svg xmlns="http://www.w3.org/2000/svg" xmlns:xlink="http://www.w3.org/1999/xlink" width="1179pt" height="517pt" viewBox="0 0 1179 517" version="1.1">
<g id="surface1426">
<rect x="0" y="0" width="1179" height="517" style="fill:rgb(90%,90%,90%);fill-opacity:1;stroke:none;"/>
<path style="fill-rule:nonzero;fill:rgb(100%,51%,0%);fill-opacity:1;stroke-width:1;stroke-linecap:butt;stroke-linejoin:miter;stroke:rgb(0%,0%,0%);stroke-opacity:1;stroke-miterlimit:10;" d="M 255 177 L 229.019531 222 L 280.980469 222 L 255 177 "/>
<path style="fill-rule:nonzero;fill:rgb(100%,51%,0%);fill-opacity:1;stroke-width:1;stroke-linecap:butt;stroke-linejoin:miter;stroke:rgb(0%,0%,0%);stroke-opacity:1;stroke-miterlimit:10;" d="M 148 66 L 122.019531 111 L 173.980469 111 L 148 66 "/>
<path style="fill-rule:nonzero;fill:rgb(100%,51%,0%);fill-opacity:1;stroke-width:1;stroke-linecap:butt;stroke-linejoin:miter;stroke:rgb(0%,0%,0%);stroke-opacity:1;stroke-miterlimit:10;" d="M 592 343 L 566.019531 388 L 617.980469 388 L 592 343 "/>
<path style="fill-rule:nonzero;fill:rgb(53%,27%,7%);fill-opacity:1;stroke-width:1;stroke-linecap:butt;stroke-linejoin:miter;stroke:rgb(0%,0%,0%);stroke-opacity:1;stroke-miterlimit:10;" d="M 913 112.601562 C 913 98.199219 889 98.199219 889 112.601562 C 889 127 913 129.398438 913 141.398438 C 913 129.398438 937 127 937 112.601562 C 937 98.199219 913 98.199219 913 112.601562 "/>
<path style="fill-rule:nonzero;fill:rgb(53%,27%,7%);fill-opacity:1;stroke-width:1;stroke-linecap:butt;stroke-linejoin:miter;stroke:rgb(0%,0%,0%);stroke-opacity:1;stroke-miterlimit:10;" d="M 110 229.601562 C 110 215.199219 86 215.199219 86 229.601562 C 86 244 110 246.398438 110 258.398438 C 110 246.398438 134 244 134 229.601562 C 134 215.199219 110 215.199219 110 229.601562 "/>
<path style="fill-rule:nonzero;fill:rgb(53%,27%,7%);fill-opacity:1;stroke-width:1;stroke-linecap:butt;stroke-linejoin:miter;stroke:rgb(0%,0%,0%);stroke-opacity:1;stroke-miterlimit:10;" d="M 523 151.601562 C 523 137.199219 499 137.199219 499 151.601562 C 499 166 523 168.398438 523 180.398438 C 523 168.398438 547 166 547 151.601562 C 547 137.199219 523 137.199219 523 151.601562 "/>
<path style="fill-rule:nonzero;fill:rgb(53%,27%,7%);fill-opacity:1;stroke-width:1;stroke-linecap:butt;stroke-linejoin:miter;stroke:rgb(0%,0%,0%);stroke-opacity:1;stroke-miterlimit:10;" d="M 208 330.601562 C 208 316.199219 184 316.199219 184 330.601562 C 184 345 208 347.398438 208 359.398438 C 208 347.398438 232 345 232 330.601562 C 232 316.199219 208 316.199219 208 330.601562 "/>
<path style="fill-rule:nonzero;fill:rgb(53%,27%,7%);fill-opacity:1;stroke-width:1;stroke-linecap:butt;stroke-linejoin:miter;stroke:rgb(0%,0%,0%);stroke-opacity:1;stroke-miterlimit:10;" d="M 331 348.601562 C 331 334.199219 307 334.199219 307 348.601562 C 307 363 331 365.398438 331 377.398438 C 331 365.398438 355 363 355 348.601562 C 355 334.199219 331 334.199219 331 348.601562 "/>
</g>
</svg>
