<?xml version="1.0" encoding="UTF-8"?>
<svg xmlns="http://www.w3.org/2000/svg" xmlns:xlink="http://www.w3.org/1999/xlink" width="1179pt" height="517pt" viewBox="0 0 1179 517" version="1.1">
<g id="surface1461">
<rect x="0" y="0" width="1179" height="517" style="fill:rgb(90%,90%,90%);fill-opacity:1;stroke:none;"/>
<path style="fill-rule:nonzero;fill:rgb(35%,70%,90%);fill-opacity:1;stroke-width:1;stroke-linecap:butt;stroke-linejoin:miter;stroke:rgb(0%,0%,0%);stroke-opacity:1;stroke-miterlimit:10;" d="M 265.214844 422 C 265.214844 433.714844 255.714844 443.214844 244 443.214844 C 232.285156 443.214844 222.785156 433.714844 222.785156 422 C 222.785156 410.285156 232.285156 400.785156 244 400.785156 C 255.714844 400.785156 265.214844 410.285156 265.214844 422 "/>
<path style="fill-rule:nonzero;fill:rgb(35%,70%,90%);fill-opacity:1;stroke-width:1;stroke-linecap:butt;stroke-linejoin:miter;stroke:rgb(0%,0%,0%);stroke-opacity:1;stroke-miterlimit:10;" d="M 860.214844 215 C 860.214844 226.714844 850.714844 236.214844 839 236.214844 C 827.285156 236.214844 817.785156 226.714844 817.785156 215 C 817.785156 203.285156 827.285156 193.785156 839 193.785156 C 850.714844 193.785156 860.214844 203.285156 860.214844 215 "/>
<path style="fill-rule:nonzero;fill:rgb(35%,70%,90%);fill-opacity:1;stroke-width:1;stroke-linecap:butt;stroke-linejoin:miter;stroke:rgb(0%,0%,0%);stroke-opacity:1;stroke-miterlimit:10;" d="M 727.214844 330 C 727.214844 341.714844 717.714844 351.214844 706 351.214844 C 694.285156 351.214844 684.785156 341.714844 684.785156 330 C 684.785156 318.285156 694.285156 308.785156 706 308.785156 C 717.714844 308.785156 727.214844 318.285156 727.214844 330 "/>
<path style="fill-rule:nonzero;fill:rgb(35%,70%,90%);fill-opacity:1;stroke-width:1;stroke-linecap:butt;stroke-linejoin:miter;stroke:rgb(0%,0%,0%);stroke-opacity:1;stroke-miterlimit:10;" d="M 469.214844 177 C 469.214844 188.714844 459.714844 198.214844 448 198.214844 C 436.285156 198.214844 426.785156 188.714844 426.785156 177 C 426.785156 165.285156 436.285156 155.785156 448 155.785156 C 459.714844 155.785156 469.214844 165.285156 469.214844 177 "/>
<path style="fill-rule:nonzero;fill:rgb(100%,51%,0%);fill-opacity:1;stroke-width:1;stroke-linecap:butt;stroke-linejoin:miter;stroke:rgb(0%,0%,0%);stroke-opacity:1;stroke-miterlimit:10;" d="M 1040 213 L 1014.019531 258 L 1065.980469 258 L 1040 213 "/>
<path style="fill-rule:nonzero;fill:rgb(100%,51%,0%);fill-opacity:1;stroke-width:1;stroke-linecap:butt;stroke-linejoin:miter;stroke:rgb(0%,0%,0%);stroke-opacity:1;stroke-miterlimit:10;" d="M 214 119 L 188.019531 164 L 239.980469 164 L 214 119 "/>
<path style="fill-rule:nonzero;fill:rgb(100%,51%,0%);fill-opacity:1;stroke-width:1;stroke-linecap:butt;stroke-linejoin:miter;stroke:rgb(0%,0%,0%);stroke-opacity:1;stroke-miterlimit:10;" d="M 637 120 L 611.019531 165 L 662.980469 165 L 637 120 "/>
<path style="fill-rule:nonzero;fill:rgb(100%,51%,0%);fill-opacity:1;stroke-width:1;stroke-linecap:butt;stroke-linejoin:miter;stroke:rgb(0%,0%,0%);stroke-opacity:1;stroke-miterlimit:10;" d="M 878 65 L 852.019531 110 L 903.980469 110 L 878 65 "/>
</g>
</svg>
