<?xml version="1.0" encoding="UTF-8"?>
<svg xmlns="http://www.w3.org/2000/svg" xmlns:xlink="http://www.w3.org/1999/xlink" width="1179pt" height="517pt" viewBox="0 0 1179 517" version="1.1">
<g id="surface971">
<rect x="0" y="0" width="1179" height="517" style="fill:rgb(90%,90%,90%);fill-opacity:1;stroke:none;"/>
<path style="fill-rule:nonzero;fill:rgb(35%,70%,90%);fill-opacity:1;stroke-width:1;stroke-linecap:butt;stroke-linejoin:miter;stroke:rgb(0%,0%,0%);stroke-opacity:1;stroke-miterlimit:10;" d="M 343.214844 161 C 343.214844 172.714844 333.714844 182.214844 322 182.214844 C 310.285156 182.214844 300.785156 172.714844 300.785156 161 C 300.785156 149.285156 310.285156 139.785156 322 139.785156 C 333.714844 139.785156 343.214844 149.285156 343.214844 161 "/>
<path style="fill-rule:nonzero;fill:rgb(35%,70%,90%);fill-opacity:1;stroke-width:1;stroke-linecap:butt;stroke-linejoin:miter;stroke:rgb(0%,0%,0%);stroke-opacity:1;stroke-miterlimit:10;" d="M 183.214844 211 C 183.214844 222.714844 173.714844 232.214844 162 232.214844 C 150.285156 232.214844 140.785156 222.714844 140.785156 211 C 140.785156 199.285156 150.285156 189.785156 162 189.785156 C 173.714844 189.785156 183.214844 199.285156 183.214844 211 "/>
<path style="fill-rule:nonzero;fill:rgb(35%,70%,90%);fill-opacity:1;stroke-width:1;stroke-linecap:butt;stroke-linejoin:miter;stroke:rgb(0%,0%,0%);stroke-opacity:1;stroke-miterlimit:10;" d="M 351.214844 396 C 351.214844 407.714844 341.714844 417.214844 330 417.214844 C 318.285156 417.214844 308.785156 407.714844 308.785156 396 C 308.785156 384.285156 318.285156 374.785156 330 374.785156 C 341.714844 374.785156 351.214844 384.285156 351.214844 396 "/>
<path style="fill-rule:nonzero;fill:rgb(35%,70%,90%);fill-opacity:1;stroke-width:1;stroke-linecap:butt;stroke-linejoin:miter;stroke:rgb(0%,0%,0%);stroke-opacity:1;stroke-miterlimit:10;" d="M 468.214844 106 C 468.214844 117.714844 458.714844 127.214844 447 127.214844 C 435.285156 127.214844 425.785156 117.714844 425.785156 106 C 425.785156 94.285156 435.285156 84.785156 447 84.785156 C 458.714844 84.785156 468.214844 94.285156 468.214844 106 "/>
<path style="fill-rule:nonzero;fill:rgb(35%,70%,90%);fill-opacity:1;stroke-width:1;stroke-linecap:butt;stroke-linejoin:miter;stroke:rgb(0%,0%,0%);stroke-opacity:1;stroke-miterlimit:10;" d="M 513 235 L 542.664062 235 L 554.664062 206.785156 L 566.664062 235 L 596.332031 235 L 572.332031 252.4375 L 580.417969 283.980469 L 554.664062 266.542969 L 528.914062 283.980469 L 541.214844 252.4375 L 513 235 "/>
<path style="fill-rule:nonzero;fill:rgb(35%,70%,90%);fill-opacity:1;stroke-width:1;stroke-linecap:butt;stroke-linejoin:miter;stroke:rgb(0%,0%,0%);stroke-opacity:1;stroke-miterlimit:10;" d="M 460 407 L 489.664062 407 L 501.664062 378.785156 L 513.664062 407 L 543.332031 407 L 519.332031 424.4375 L 527.417969 455.980469 L 501.664062 438.542969 L 475.914062 455.980469 L 488.214844 424.4375 L 460 407 "/>
<path style="fill-rule:nonzero;fill:rgb(35%,70%,90%);fill-opacity:1;stroke-width:1;stroke-linecap:butt;stroke-linejoin:miter;stroke:rgb(0%,0%,0%);stroke-opacity:1;stroke-miterlimit:10;" d="M 985 191 L 1014.664062 191 L 1026.664062 162.785156 L 1038.664062 191 L 1068.332031 191 L 1044.332031 208.4375 L 1052.417969 239.980469 L 1026.664062 222.542969 L 1000.914062 239.980469 L 1013.214844 208.4375 L 985 191 "/>
</g>
</svg>
