<?xml version="1.0" encoding="UTF-8"?>
<svg xmlns="http://www.w3.org/2000/svg" xmlns:xlink="http://www.w3.org/1999/xlink" width="1179pt" height="517pt" viewBox="0 0 1179 517" version="1.1">
<g id="surface1">
<rect x="0" y="0" width="1179" height="517" style="fill:rgb(90%,90%,90%);fill-opacity:1;stroke:none;"/>
<path style="fill-rule:nonzero;fill:rgb(35%,70%,90%);fill-opacity:1;stroke-width:1;stroke-linecap:butt;stroke-linejoin:miter;stroke:rgb(0%,0%,0%);stroke-opacity:1;stroke-miterlimit:10;" d="M 131 123 L 160.664062 123 L 172.664062 94.785156 L 184.664062 123 L 214.332031 123 L 190.332031 140.4375 L 198.417969 171.980469 L 172.664062 154.542969 L 146.914062 171.980469 L 159.214844 140.4375 L 131 123 "/>
<path style="fill-rule:nonzero;fill:rgb(35%,70%,90%);fill-opacity:1;stroke-width:1;stroke-linecap:butt;stroke-linejoin:miter;stroke:rgb(0%,0%,0%);stroke-opacity:1;stroke-miterlimit:10;" d="M 514 217 L 543.664062 217 L 555.664062 188.785156 L 567.664062 217 L 597.332031 217 L 573.332031 234.4375 L 581.417969 265.980469 L 555.664062 248.542969 L 529.914062 265.980469 L 542.214844 234.4375 L 514 217 "/>
<path style="fill-rule:nonzero;fill:rgb(35%,70%,90%);fill-opacity:1;stroke-width:1;stroke-linecap:butt;stroke-linejoin:miter;stroke:rgb(0%,0%,0%);stroke-opacity:1;stroke-miterlimit:10;" d="M 971 305 L 1000.664062 305 L 1012.664062 276.785156 L 1024.664062 305 L 1054.332031 305 L 1030.332031 322.4375 L 1038.417969 353.980469 L 1012.664062 336.542969 L 986.914062 353.980469 L 999.214844 322.4375 L 971 305 "/>
<path style="fill-rule:nonzero;fill:rgb(35%,70%,90%);fill-opacity:1;stroke-width:1;stroke-linecap:butt;stroke-linejoin:miter;stroke:rgb(0%,0%,0%);stroke-opacity:1;stroke-miterlimit:10;" d="M 256 237 L 285.664062 237 L 297.664062 208.785156 L 309.664062 237 L 339.332031 237 L 315.332031 254.4375 L 323.417969 285.980469 L 297.664062 268.542969 L 271.914062 285.980469 L 284.214844 254.4375 L 256 237 "/>
<path style="fill-rule:nonzero;fill:rgb(100%,51%,0%);fill-opacity:1;stroke-width:1;stroke-linecap:butt;stroke-linejoin:miter;stroke:rgb(0%,0%,0%);stroke-opacity:1;stroke-miterlimit:10;" d="M 747.214844 118 C 747.214844 129.714844 737.714844 139.214844 726 139.214844 C 714.285156 139.214844 704.785156 129.714844 704.785156 118 C 704.785156 106.285156 714.285156 96.785156 726 96.785156 C 737.714844 96.785156 747.214844 106.285156 747.214844 118 "/>
<path style="fill-rule:nonzero;fill:rgb(100%,51%,0%);fill-opacity:1;stroke-width:1;stroke-linecap:butt;stroke-linejoin:miter;stroke:rgb(0%,0%,0%);stroke-opacity:1;stroke-miterlimit:10;" d="M 502.214844 405 C 502.214844 416.714844 492.714844 426.214844 481 426.214844 C 469.285156 426.214844 459.785156 416.714844 459.785156 405 C 459.785156 393.285156 469.285156 383.785156 481 383.785156 C 492.714844 383.785156 502.214844 393.285156 502.214844 405 "/>
<path style="fill-rule:nonzero;fill:rgb(100%,51%,0%);fill-opacity:1;stroke-width:1;stroke-linecap:butt;stroke-linejoin:miter;stroke:rgb(0%,0%,0%);stroke-opacity:1;stroke-miterlimit:10;" d="M 385.214844 124 C 385.214844 135.714844 375.714844 145.214844 364 145.214844 C 352.285156 145.214844 342.785156 135.714844 342.785156 124 C 342.785156 112.285156 352.285156 102.785156 364 102.785156 C 375.714844 102.785156 385.214844 112.285156 385.214844 124 "/>
</g>
</svg>
