<?xml version="1.0" encoding="UTF-8"?>
<svg xmlns="http://www.w3.org/2000/svg" xmlns:xlink="http://www.w3.org/1999/xlink" width="1179pt" height="517pt" viewBox="0 0 1179 517" version="1.1">
<g id="surface406">
<rect x="0" y="0" width="1179" height="517" style="fill:rgb(90%,90%,90%);fill-opacity:1;stroke:none;"/>
<path style="fill-rule:nonzero;fill:rgb(35%,70%,90%);fill-opacity:1;stroke-width:1;stroke-linecap:butt;stroke-linejoin:miter;stroke:rgb(0%,0%,0%);stroke-opacity:1;stroke-miterlimit:10;" d="M 241.214844 133 C 241.214844 144.714844 231.714844 154.214844 220 154.214844 C 208.285156 154.214844 198.785156 144.714844 198.785156 133 C 198.785156 121.285156 208.285156 111.785156 220 111.785156 C 231.714844 111.785156 241.214844 121.285156 241.214844 133 "/>
<path style="fill-rule:nonzero;fill:rgb(35%,70%,90%);fill-opacity:1;stroke-width:1;stroke-linecap:butt;stroke-linejoin:miter;stroke:rgb(0%,0%,0%);stroke-opacity:1;stroke-miterlimit:10;" d="M 339 212 L 313.019531 257 L 364.980469 257 L 339 212 "/>
<path style="fill-rule:nonzero;fill:rgb(35%,70%,90%);fill-opacity:1;stroke-width:1;stroke-linecap:butt;stroke-linejoin:miter;stroke:rgb(0%,0%,0%);stroke-opacity:1;stroke-miterlimit:10;" d="M 162 269 L 136.019531 314 L 187.980469 314 L 162 269 "/>
<path style="fill-rule:nonzero;fill:rgb(53%,27%,7%);fill-opacity:1;stroke-width:1;stroke-linecap:butt;stroke-linejoin:miter;stroke:rgb(0%,0%,0%);stroke-opacity:1;stroke-miterlimit:10;" d="M 859 123 L 833.019531 168 L 884.980469 168 L 859 123 "/>
<path style="fill-rule:nonzero;fill:rgb(53%,27%,7%);fill-opacity:1;stroke-width:1;stroke-linecap:butt;stroke-linejoin:miter;stroke:rgb(0%,0%,0%);stroke-opacity:1;stroke-miterlimit:10;" d="M 859.214844 278 C 859.214844 289.714844 849.714844 299.214844 838 299.214844 C 826.285156 299.214844 816.785156 289.714844 816.785156 278 C 816.785156 266.285156 826.285156 256.785156 838 256.785156 C 849.714844 256.785156 859.214844 266.285156 859.214844 278 "/>
<path style="fill-rule:nonzero;fill:rgb(53%,27%,7%);fill-opacity:1;stroke-width:1;stroke-linecap:butt;stroke-linejoin:miter;stroke:rgb(0%,0%,0%);stroke-opacity:1;stroke-miterlimit:10;" d="M 1060.214844 147 C 1060.214844 158.714844 1050.714844 168.214844 1039 168.214844 C 1027.285156 168.214844 1017.785156 158.714844 1017.785156 147 C 1017.785156 135.285156 1027.285156 125.785156 1039 125.785156 C 1050.714844 125.785156 1060.214844 135.285156 1060.214844 147 "/>
</g>
</svg>
