<?xml version="1.0" encoding="UTF-8"?>
<svg xmlns="http://www.w3.org/2000/svg" xmlns:xlink="http://www.w3.org/1999/xlink" width="1179pt" height="517pt" viewBox="0 0 1179 517" version="1.1">
<g id="surface1261">
<rect x="0" y="0" width="1179" height="517" style="fill:rgb(90%,90%,90%);fill-opacity:1;stroke:none;"/>
<path style="fill-rule:nonzero;fill:rgb(53%,27%,7%);fill-opacity:1;stroke-width:1;stroke-linecap:butt;stroke-linejoin:miter;stroke:rgb(0%,0%,0%);stroke-opacity:1;stroke-miterlimit:10;" d="M 235.214844 422 C 235.214844 433.714844 225.714844 443.214844 214 443.214844 C 202.285156 443.214844 192.785156 433.714844 192.785156 422 C 192.785156 410.285156 202.285156 400.785156 214 400.785156 C 225.714844 400.785156 235.214844 410.285156 235.214844 422 "/>
<path style="fill-rule:nonzero;fill:rgb(53%,27%,7%);fill-opacity:1;stroke-width:1;stroke-linecap:butt;stroke-linejoin:miter;stroke:rgb(0%,0%,0%);stroke-opacity:1;stroke-miterlimit:10;" d="M 362.214844 141 C 362.214844 152.714844 352.714844 162.214844 341 162.214844 C 329.285156 162.214844 319.785156 152.714844 319.785156 141 C 319.785156 129.285156 329.285156 119.785156 341 119.785156 C 352.714844 119.785156 362.214844 129.285156 362.214844 141 "/>
<path style="fill-rule:nonzero;fill:rgb(53%,27%,7%);fill-opacity:1;stroke-width:1;stroke-linecap:butt;stroke-linejoin:miter;stroke:rgb(0%,0%,0%);stroke-opacity:1;stroke-miterlimit:10;" d="M 1038.214844 427 C 1038.214844 438.714844 1028.714844 448.214844 1017 448.214844 C 1005.285156 448.214844 995.785156 438.714844 995.785156 427 C 995.785156 415.285156 1005.285156 405.785156 1017 405.785156 C 1028.714844 405.785156 1038.214844 415.285156 1038.214844 427 "/>
<path style="fill-rule:nonzero;fill:rgb(53%,27%,7%);fill-opacity:1;stroke-width:1;stroke-linecap:butt;stroke-linejoin:miter;stroke:rgb(0%,0%,0%);stroke-opacity:1;stroke-miterlimit:10;" d="M 1042.214844 147 C 1042.214844 158.714844 1032.714844 168.214844 1021 168.214844 C 1009.285156 168.214844 999.785156 158.714844 999.785156 147 C 999.785156 135.285156 1009.285156 125.785156 1021 125.785156 C 1032.714844 125.785156 1042.214844 135.285156 1042.214844 147 "/>
<path style="fill-rule:nonzero;fill:rgb(53%,27%,7%);fill-opacity:1;stroke-width:1;stroke-linecap:butt;stroke-linejoin:miter;stroke:rgb(0%,0%,0%);stroke-opacity:1;stroke-miterlimit:10;" d="M 111.214844 347 C 111.214844 358.714844 101.714844 368.214844 90 368.214844 C 78.285156 368.214844 68.785156 358.714844 68.785156 347 C 68.785156 335.285156 78.285156 325.785156 90 325.785156 C 101.714844 325.785156 111.214844 335.285156 111.214844 347 "/>
<path style="fill-rule:nonzero;fill:rgb(100%,51%,0%);fill-opacity:1;stroke-width:1;stroke-linecap:butt;stroke-linejoin:miter;stroke:rgb(0%,0%,0%);stroke-opacity:1;stroke-miterlimit:10;" d="M 196 226 L 225.664062 226 L 237.664062 197.785156 L 249.664062 226 L 279.332031 226 L 255.332031 243.4375 L 263.417969 274.980469 L 237.664062 257.542969 L 211.914062 274.980469 L 224.214844 243.4375 L 196 226 "/>
<path style="fill-rule:nonzero;fill:rgb(100%,51%,0%);fill-opacity:1;stroke-width:1;stroke-linecap:butt;stroke-linejoin:miter;stroke:rgb(0%,0%,0%);stroke-opacity:1;stroke-miterlimit:10;" d="M 852 292 L 881.664062 292 L 893.664062 263.785156 L 905.664062 292 L 935.332031 292 L 911.332031 309.4375 L 919.417969 340.980469 L 893.664062 323.542969 L 867.914062 340.980469 L 880.214844 309.4375 L 852 292 "/>
<path style="fill-rule:nonzero;fill:rgb(100%,51%,0%);fill-opacity:1;stroke-width:1;stroke-linecap:butt;stroke-linejoin:miter;stroke:rgb(0%,0%,0%);stroke-opacity:1;stroke-miterlimit:10;" d="M 760 413 L 789.664062 413 L 801.664062 384.785156 L 813.664062 413 L 843.332031 413 L 819.332031 430.4375 L 827.417969 461.980469 L 801.664062 444.542969 L 775.914062 461.980469 L 788.214844 430.4375 L 760 413 "/>
<path style="fill-rule:nonzero;fill:rgb(100%,51%,0%);fill-opacity:1;stroke-width:1;stroke-linecap:butt;stroke-linejoin:miter;stroke:rgb(0%,0%,0%);stroke-opacity:1;stroke-miterlimit:10;" d="M 439 422 L 468.664062 422 L 480.664062 393.785156 L 492.664062 422 L 522.332031 422 L 498.332031 439.4375 L 506.417969 470.980469 L 480.664062 453.542969 L 454.914062 470.980469 L 467.214844 439.4375 L 439 422 "/>
<path style="fill-rule:nonzero;fill:rgb(100%,51%,0%);fill-opacity:1;stroke-width:1;stroke-linecap:butt;stroke-linejoin:miter;stroke:rgb(0%,0%,0%);stroke-opacity:1;stroke-miterlimit:10;" d="M 550 83 L 579.664062 83 L 591.664062 54.785156 L 603.664062 83 L 633.332031 83 L 609.332031 100.4375 L 617.417969 131.980469 L 591.664062 114.542969 L 565.914062 131.980469 L 578.214844 100.4375 L 550 83 "/>
</g>
</svg>
