<?xml version="1.0" encoding="UTF-8"?>
<svg xmlns="http://www.w3.org/2000/svg" xmlns:xlink="http://www.w3.org/1999/xlink" width="1179pt" height="517pt" viewBox="0 0 1179 517" version="1.1">
<g id="surface1116">
<rect x="0" y="0" width="1179" height="517" style="fill:rgb(90%,90%,90%);fill-opacity:1;stroke:none;"/>
<path style="fill-rule:nonzero;fill:rgb(55%,51%,53%);fill-opacity:1;stroke-width:1;stroke-linecap:butt;stroke-linejoin:miter;stroke:rgb(0%,0%,0%);stroke-opacity:1;stroke-miterlimit:10;" d="M 101.214844 95 C 101.214844 106.714844 91.714844 116.214844 80 116.214844 C 68.285156 116.214844 58.785156 106.714844 58.785156 95 C 58.785156 83.285156 68.285156 73.785156 80 73.785156 C 91.714844 73.785156 101.214844 83.285156 101.214844 95 "/>
<path style="fill-rule:nonzero;fill:rgb(55%,51%,53%);fill-opacity:1;stroke-width:1;stroke-linecap:butt;stroke-linejoin:miter;stroke:rgb(0%,0%,0%);stroke-opacity:1;stroke-miterlimit:10;" d="M 761.214844 282 C 761.214844 293.714844 751.714844 303.214844 740 303.214844 C 728.285156 303.214844 718.785156 293.714844 718.785156 282 C 718.785156 270.285156 728.285156 260.785156 740 260.785156 C 751.714844 260.785156 761.214844 270.285156 761.214844 282 "/>
<path style="fill-rule:nonzero;fill:rgb(55%,51%,53%);fill-opacity:1;stroke-width:1;stroke-linecap:butt;stroke-linejoin:miter;stroke:rgb(0%,0%,0%);stroke-opacity:1;stroke-miterlimit:10;" d="M 302.214844 138 C 302.214844 149.714844 292.714844 159.214844 281 159.214844 C 269.285156 159.214844 259.785156 149.714844 259.785156 138 C 259.785156 126.285156 269.285156 116.785156 281 116.785156 C 292.714844 116.785156 302.214844 126.285156 302.214844 138 "/>
<path style="fill-rule:nonzero;fill:rgb(100%,51%,0%);fill-opacity:1;stroke-width:1;stroke-linecap:butt;stroke-linejoin:miter;stroke:rgb(0%,0%,0%);stroke-opacity:1;stroke-miterlimit:10;" d="M 967 342.601562 C 967 328.199219 943 328.199219 943 342.601562 C 943 357 967 359.398438 967 371.398438 C 967 359.398438 991 357 991 342.601562 C 991 328.199219 967 328.199219 967 342.601562 "/>
<path style="fill-rule:nonzero;fill:rgb(100%,51%,0%);fill-opacity:1;stroke-width:1;stroke-linecap:butt;stroke-linejoin:miter;stroke:rgb(0%,0%,0%);stroke-opacity:1;stroke-miterlimit:10;" d="M 423 292.601562 C 423 278.199219 399 278.199219 399 292.601562 C 399 307 423 309.398438 423 321.398438 C 423 309.398438 447 307 447 292.601562 C 447 278.199219 423 278.199219 423 292.601562 "/>
<path style="fill-rule:nonzero;fill:rgb(100%,51%,0%);fill-opacity:1;stroke-width:1;stroke-linecap:butt;stroke-linejoin:miter;stroke:rgb(0%,0%,0%);stroke-opacity:1;stroke-miterlimit:10;" d="M 933 181.601562 C 933 167.199219 909 167.199219 909 181.601562 C 909 196 933 198.398438 933 210.398438 C 933 198.398438 957 196 957 181.601562 C 957 167.199219 933 167.199219 933 181.601562 "/>
<path style="fill-rule:nonzero;fill:rgb(100%,51%,0%);fill-opacity:1;stroke-width:1;stroke-linecap:butt;stroke-linejoin:miter;stroke:rgb(0%,0%,0%);stroke-opacity:1;stroke-miterlimit:10;" d="M 762 406.601562 C 762 392.199219 738 392.199219 738 406.601562 C 738 421 762 423.398438 762 435.398438 C 762 423.398438 786 421 786 406.601562 C 786 392.199219 762 392.199219 762 406.601562 "/>
</g>
</svg>
