<?xml version="1.0" encoding="UTF-8"?>
<svg xmlns="http://www.w3.org/2000/svg" xmlns:xlink="http://www.w3.org/1999/xlink" width="1179pt" height="517pt" viewBox="0 0 1179 517" version="1.1">
<g id="surface391">
<rect x="0" y="0" width="1179" height="517" style="fill:rgb(90%,90%,90%);fill-opacity:1;stroke:none;"/>
<path style="fill-rule:nonzero;fill:rgb(35%,70%,90%);fill-opacity:1;stroke-width:1;stroke-linecap:butt;stroke-linejoin:miter;stroke:rgb(0%,0%,0%);stroke-opacity:1;stroke-miterlimit:10;" d="M 862 370 L 891.664062 370 L 903.664062 341.785156 L 915.664062 370 L 945.332031 370 L 921.332031 387.4375 L 929.417969 418.980469 L 903.664062 401.542969 L 877.914062 418.980469 L 890.214844 387.4375 L 862 370 "/>
<path style="fill-rule:nonzero;fill:rgb(35%,70%,90%);fill-opacity:1;stroke-width:1;stroke-linecap:butt;stroke-linejoin:miter;stroke:rgb(0%,0%,0%);stroke-opacity:1;stroke-miterlimit:10;" d="M 992 297 L 1021.664062 297 L 1033.664062 268.785156 L 1045.664062 297 L 1075.332031 297 L 1051.332031 314.4375 L 1059.417969 345.980469 L 1033.664062 328.542969 L 1007.914062 345.980469 L 1020.214844 314.4375 L 992 297 "/>
<path style="fill-rule:nonzero;fill:rgb(35%,70%,90%);fill-opacity:1;stroke-width:1;stroke-linecap:butt;stroke-linejoin:miter;stroke:rgb(0%,0%,0%);stroke-opacity:1;stroke-miterlimit:10;" d="M 999 140 L 1028.664062 140 L 1040.664062 111.785156 L 1052.664062 140 L 1082.332031 140 L 1058.332031 157.4375 L 1066.417969 188.980469 L 1040.664062 171.542969 L 1014.914062 188.980469 L 1027.214844 157.4375 L 999 140 "/>
<path style="fill-rule:nonzero;fill:rgb(35%,70%,90%);fill-opacity:1;stroke-width:1;stroke-linecap:butt;stroke-linejoin:miter;stroke:rgb(0%,0%,0%);stroke-opacity:1;stroke-miterlimit:10;" d="M 666 243 L 695.664062 243 L 707.664062 214.785156 L 719.664062 243 L 749.332031 243 L 725.332031 260.4375 L 733.417969 291.980469 L 707.664062 274.542969 L 681.914062 291.980469 L 694.214844 260.4375 L 666 243 "/>
<path style="fill-rule:nonzero;fill:rgb(53%,27%,7%);fill-opacity:1;stroke-width:1;stroke-linecap:butt;stroke-linejoin:miter;stroke:rgb(0%,0%,0%);stroke-opacity:1;stroke-miterlimit:10;" d="M 585.214844 167 C 585.214844 178.714844 575.714844 188.214844 564 188.214844 C 552.285156 188.214844 542.785156 178.714844 542.785156 167 C 542.785156 155.285156 552.285156 145.785156 564 145.785156 C 575.714844 145.785156 585.214844 155.285156 585.214844 167 "/>
<path style="fill-rule:nonzero;fill:rgb(53%,27%,7%);fill-opacity:1;stroke-width:1;stroke-linecap:butt;stroke-linejoin:miter;stroke:rgb(0%,0%,0%);stroke-opacity:1;stroke-miterlimit:10;" d="M 304.214844 116 C 304.214844 127.714844 294.714844 137.214844 283 137.214844 C 271.285156 137.214844 261.785156 127.714844 261.785156 116 C 261.785156 104.285156 271.285156 94.785156 283 94.785156 C 294.714844 94.785156 304.214844 104.285156 304.214844 116 "/>
<path style="fill-rule:nonzero;fill:rgb(53%,27%,7%);fill-opacity:1;stroke-width:1;stroke-linecap:butt;stroke-linejoin:miter;stroke:rgb(0%,0%,0%);stroke-opacity:1;stroke-miterlimit:10;" d="M 717.214844 371 C 717.214844 382.714844 707.714844 392.214844 696 392.214844 C 684.285156 392.214844 674.785156 382.714844 674.785156 371 C 674.785156 359.285156 684.285156 349.785156 696 349.785156 C 707.714844 349.785156 717.214844 359.285156 717.214844 371 "/>
<path style="fill-rule:nonzero;fill:rgb(53%,27%,7%);fill-opacity:1;stroke-width:1;stroke-linecap:butt;stroke-linejoin:miter;stroke:rgb(0%,0%,0%);stroke-opacity:1;stroke-miterlimit:10;" d="M 686.214844 92 C 686.214844 103.714844 676.714844 113.214844 665 113.214844 C 653.285156 113.214844 643.785156 103.714844 643.785156 92 C 643.785156 80.285156 653.285156 70.785156 665 70.785156 C 676.714844 70.785156 686.214844 80.285156 686.214844 92 "/>
</g>
</svg>
