<?xml version="1.0" encoding="UTF-8"?>
<svg xmlns="http://www.w3.org/2000/svg" xmlns:xlink="http://www.w3.org/1999/xlink" width="1179pt" height="517pt" viewBox="0 0 1179 517" version="1.1">
<g id="surface1486">
<rect x="0" y="0" width="1179" height="517" style="fill:rgb(90%,90%,90%);fill-opacity:1;stroke:none;"/>
<path style="fill-rule:nonzero;fill:rgb(35%,70%,90%);fill-opacity:1;stroke-width:1;stroke-linecap:butt;stroke-linejoin:miter;stroke:rgb(0%,0%,0%);stroke-opacity:1;stroke-miterlimit:10;" d="M 408 351.601562 C 408 337.199219 384 337.199219 384 351.601562 C 384 366 408 368.398438 408 380.398438 C 408 368.398438 432 366 432 351.601562 C 432 337.199219 408 337.199219 408 351.601562 "/>
<path style="fill-rule:nonzero;fill:rgb(35%,70%,90%);fill-opacity:1;stroke-width:1;stroke-linecap:butt;stroke-linejoin:miter;stroke:rgb(0%,0%,0%);stroke-opacity:1;stroke-miterlimit:10;" d="M 795 208.601562 C 795 194.199219 771 194.199219 771 208.601562 C 771 223 795 225.398438 795 237.398438 C 795 225.398438 819 223 819 208.601562 C 819 194.199219 795 194.199219 795 208.601562 "/>
<path style="fill-rule:nonzero;fill:rgb(35%,70%,90%);fill-opacity:1;stroke-width:1;stroke-linecap:butt;stroke-linejoin:miter;stroke:rgb(0%,0%,0%);stroke-opacity:1;stroke-miterlimit:10;" d="M 704 350.601562 C 704 336.199219 680 336.199219 680 350.601562 C 680 365 704 367.398438 704 379.398438 C 704 367.398438 728 365 728 350.601562 C 728 336.199219 704 336.199219 704 350.601562 "/>
<path style="fill-rule:nonzero;fill:rgb(35%,70%,90%);fill-opacity:1;stroke-width:1;stroke-linecap:butt;stroke-linejoin:miter;stroke:rgb(0%,0%,0%);stroke-opacity:1;stroke-miterlimit:10;" d="M 253 235.601562 C 253 221.199219 229 221.199219 229 235.601562 C 229 250 253 252.398438 253 264.398438 C 253 252.398438 277 250 277 235.601562 C 277 221.199219 253 221.199219 253 235.601562 "/>
<path style="fill-rule:nonzero;fill:rgb(35%,70%,90%);fill-opacity:1;stroke-width:1;stroke-linecap:butt;stroke-linejoin:miter;stroke:rgb(0%,0%,0%);stroke-opacity:1;stroke-miterlimit:10;" d="M 395 192.601562 C 395 178.199219 371 178.199219 371 192.601562 C 371 207 395 209.398438 395 221.398438 C 395 209.398438 419 207 419 192.601562 C 419 178.199219 395 178.199219 395 192.601562 "/>
<path style="fill-rule:nonzero;fill:rgb(53%,27%,7%);fill-opacity:1;stroke-width:1;stroke-linecap:butt;stroke-linejoin:miter;stroke:rgb(0%,0%,0%);stroke-opacity:1;stroke-miterlimit:10;" d="M 1000.214844 424 C 1000.214844 435.714844 990.714844 445.214844 979 445.214844 C 967.285156 445.214844 957.785156 435.714844 957.785156 424 C 957.785156 412.285156 967.285156 402.785156 979 402.785156 C 990.714844 402.785156 1000.214844 412.285156 1000.214844 424 "/>
<path style="fill-rule:nonzero;fill:rgb(53%,27%,7%);fill-opacity:1;stroke-width:1;stroke-linecap:butt;stroke-linejoin:miter;stroke:rgb(0%,0%,0%);stroke-opacity:1;stroke-miterlimit:10;" d="M 714.214844 117 C 714.214844 128.714844 704.714844 138.214844 693 138.214844 C 681.285156 138.214844 671.785156 128.714844 671.785156 117 C 671.785156 105.285156 681.285156 95.785156 693 95.785156 C 704.714844 95.785156 714.214844 105.285156 714.214844 117 "/>
<path style="fill-rule:nonzero;fill:rgb(53%,27%,7%);fill-opacity:1;stroke-width:1;stroke-linecap:butt;stroke-linejoin:miter;stroke:rgb(0%,0%,0%);stroke-opacity:1;stroke-miterlimit:10;" d="M 652.214844 242 C 652.214844 253.714844 642.714844 263.214844 631 263.214844 C 619.285156 263.214844 609.785156 253.714844 609.785156 242 C 609.785156 230.285156 619.285156 220.785156 631 220.785156 C 642.714844 220.785156 652.214844 230.285156 652.214844 242 "/>
</g>
</svg>
