<?xml version="1.0" encoding="UTF-8"?>
<svg xmlns="http://www.w3.org/2000/svg" xmlns:xlink="http://www.w3.org/1999/xlink" width="1179pt" height="517pt" viewBox="0 0 1179 517" version="1.1">
<g id="surface1236">
<rect x="0" y="0" width="1179" height="517" style="fill:rgb(90%,90%,90%);fill-opacity:1;stroke:none;"/>
<path style="fill-rule:nonzero;fill:rgb(35%,70%,90%);fill-opacity:1;stroke-width:1;stroke-linecap:butt;stroke-linejoin:miter;stroke:rgb(0%,0%,0%);stroke-opacity:1;stroke-miterlimit:10;" d="M 327 105 L 356.664062 105 L 368.664062 76.785156 L 380.664062 105 L 410.332031 105 L 386.332031 122.4375 L 394.417969 153.980469 L 368.664062 136.542969 L 342.914062 153.980469 L 355.214844 122.4375 L 327 105 "/>
<path style="fill-rule:nonzero;fill:rgb(35%,70%,90%);fill-opacity:1;stroke-width:1;stroke-linecap:butt;stroke-linejoin:miter;stroke:rgb(0%,0%,0%);stroke-opacity:1;stroke-miterlimit:10;" d="M 463 149 L 492.664062 149 L 504.664062 120.785156 L 516.664062 149 L 546.332031 149 L 522.332031 166.4375 L 530.417969 197.980469 L 504.664062 180.542969 L 478.914062 197.980469 L 491.214844 166.4375 L 463 149 "/>
<path style="fill-rule:nonzero;fill:rgb(35%,70%,90%);fill-opacity:1;stroke-width:1;stroke-linecap:butt;stroke-linejoin:miter;stroke:rgb(0%,0%,0%);stroke-opacity:1;stroke-miterlimit:10;" d="M 573 282 L 602.664062 282 L 614.664062 253.785156 L 626.664062 282 L 656.332031 282 L 632.332031 299.4375 L 640.417969 330.980469 L 614.664062 313.542969 L 588.914062 330.980469 L 601.214844 299.4375 L 573 282 "/>
<path style="fill-rule:nonzero;fill:rgb(100%,51%,0%);fill-opacity:1;stroke-width:1;stroke-linecap:butt;stroke-linejoin:miter;stroke:rgb(0%,0%,0%);stroke-opacity:1;stroke-miterlimit:10;" d="M 100 236.601562 C 100 222.199219 76 222.199219 76 236.601562 C 76 251 100 253.398438 100 265.398438 C 100 253.398438 124 251 124 236.601562 C 124 222.199219 100 222.199219 100 236.601562 "/>
<path style="fill-rule:nonzero;fill:rgb(100%,51%,0%);fill-opacity:1;stroke-width:1;stroke-linecap:butt;stroke-linejoin:miter;stroke:rgb(0%,0%,0%);stroke-opacity:1;stroke-miterlimit:10;" d="M 619 80.601562 C 619 66.199219 595 66.199219 595 80.601562 C 595 95 619 97.398438 619 109.398438 C 619 97.398438 643 95 643 80.601562 C 643 66.199219 619 66.199219 619 80.601562 "/>
<path style="fill-rule:nonzero;fill:rgb(100%,51%,0%);fill-opacity:1;stroke-width:1;stroke-linecap:butt;stroke-linejoin:miter;stroke:rgb(0%,0%,0%);stroke-opacity:1;stroke-miterlimit:10;" d="M 321 401.601562 C 321 387.199219 297 387.199219 297 401.601562 C 297 416 321 418.398438 321 430.398438 C 321 418.398438 345 416 345 401.601562 C 345 387.199219 321 387.199219 321 401.601562 "/>
<path style="fill-rule:nonzero;fill:rgb(100%,51%,0%);fill-opacity:1;stroke-width:1;stroke-linecap:butt;stroke-linejoin:miter;stroke:rgb(0%,0%,0%);stroke-opacity:1;stroke-miterlimit:10;" d="M 956 224.601562 C 956 210.199219 932 210.199219 932 224.601562 C 932 239 956 241.398438 956 253.398438 C 956 241.398438 980 239 980 224.601562 C 980 210.199219 956 210.199219 956 224.601562 "/>
<path style="fill-rule:nonzero;fill:rgb(100%,51%,0%);fill-opacity:1;stroke-width:1;stroke-linecap:butt;stroke-linejoin:miter;stroke:rgb(0%,0%,0%);stroke-opacity:1;stroke-miterlimit:10;" d="M 752 134.601562 C 752 120.199219 728 120.199219 728 134.601562 C 728 149 752 151.398438 752 163.398438 C 752 151.398438 776 149 776 134.601562 C 776 120.199219 752 120.199219 752 134.601562 "/>
</g>
</svg>
