<?xml version="1.0" encoding="UTF-8"?>
<svg xmlns="http://www.w3.org/2000/svg" xmlns:xlink="http://www.w3.org/1999/xlink" width="1179pt" height="517pt" viewBox="0 0 1179 517" version="1.1">
<g id="surface71">
<rect x="0" y="0" width="1179" height="517" style="fill:rgb(90%,90%,90%);fill-opacity:1;stroke:none;"/>
<path style="fill-rule:nonzero;fill:rgb(35%,70%,90%);fill-opacity:1;stroke-width:1;stroke-linecap:butt;stroke-linejoin:miter;stroke:rgb(0%,0%,0%);stroke-opacity:1;stroke-miterlimit:10;" d="M 356 407 L 385.664062 407 L 397.664062 378.785156 L 409.664062 407 L 439.332031 407 L 415.332031 424.4375 L 423.417969 455.980469 L 397.664062 438.542969 L 371.914062 455.980469 L 384.214844 424.4375 L 356 407 "/>
<path style="fill-rule:nonzero;fill:rgb(35%,70%,90%);fill-opacity:1;stroke-width:1;stroke-linecap:butt;stroke-linejoin:miter;stroke:rgb(0%,0%,0%);stroke-opacity:1;stroke-miterlimit:10;" d="M 99.785156 116.785156 L 99.785156 159.214844 L 142.214844 159.214844 L 142.214844 116.785156 L 99.785156 116.785156 "/>
<path style="fill-rule:nonzero;fill:rgb(35%,70%,90%);fill-opacity:1;stroke-width:1;stroke-linecap:butt;stroke-linejoin:miter;stroke:rgb(0%,0%,0%);stroke-opacity:1;stroke-miterlimit:10;" d="M 162.785156 227.785156 L 162.785156 270.214844 L 205.214844 270.214844 L 205.214844 227.785156 L 162.785156 227.785156 "/>
<path style="fill-rule:nonzero;fill:rgb(35%,70%,90%);fill-opacity:1;stroke-width:1;stroke-linecap:butt;stroke-linejoin:miter;stroke:rgb(0%,0%,0%);stroke-opacity:1;stroke-miterlimit:10;" d="M 406 90 L 435.664062 90 L 447.664062 61.785156 L 459.664062 90 L 489.332031 90 L 465.332031 107.4375 L 473.417969 138.980469 L 447.664062 121.542969 L 421.914062 138.980469 L 434.214844 107.4375 L 406 90 "/>
<path style="fill-rule:nonzero;fill:rgb(35%,70%,90%);fill-opacity:1;stroke-width:1;stroke-linecap:butt;stroke-linejoin:miter;stroke:rgb(0%,0%,0%);stroke-opacity:1;stroke-miterlimit:10;" d="M 430 207 L 459.664062 207 L 471.664062 178.785156 L 483.664062 207 L 513.332031 207 L 489.332031 224.4375 L 497.417969 255.980469 L 471.664062 238.542969 L 445.914062 255.980469 L 458.214844 224.4375 L 430 207 "/>
<path style="fill-rule:nonzero;fill:rgb(55%,51%,53%);fill-opacity:1;stroke-width:1;stroke-linecap:butt;stroke-linejoin:miter;stroke:rgb(0%,0%,0%);stroke-opacity:1;stroke-miterlimit:10;" d="M 895.785156 245.785156 L 895.785156 288.214844 L 938.214844 288.214844 L 938.214844 245.785156 L 895.785156 245.785156 "/>
<path style="fill-rule:nonzero;fill:rgb(55%,51%,53%);fill-opacity:1;stroke-width:1;stroke-linecap:butt;stroke-linejoin:miter;stroke:rgb(0%,0%,0%);stroke-opacity:1;stroke-miterlimit:10;" d="M 1022 143 L 1051.664062 143 L 1063.664062 114.785156 L 1075.664062 143 L 1105.332031 143 L 1081.332031 160.4375 L 1089.417969 191.980469 L 1063.664062 174.542969 L 1037.914062 191.980469 L 1050.214844 160.4375 L 1022 143 "/>
<path style="fill-rule:nonzero;fill:rgb(55%,51%,53%);fill-opacity:1;stroke-width:1;stroke-linecap:butt;stroke-linejoin:miter;stroke:rgb(0%,0%,0%);stroke-opacity:1;stroke-miterlimit:10;" d="M 760 242 L 789.664062 242 L 801.664062 213.785156 L 813.664062 242 L 843.332031 242 L 819.332031 259.4375 L 827.417969 290.980469 L 801.664062 273.542969 L 775.914062 290.980469 L 788.214844 259.4375 L 760 242 "/>
<path style="fill-rule:nonzero;fill:rgb(55%,51%,53%);fill-opacity:1;stroke-width:1;stroke-linecap:butt;stroke-linejoin:miter;stroke:rgb(0%,0%,0%);stroke-opacity:1;stroke-miterlimit:10;" d="M 891.785156 121.785156 L 891.785156 164.214844 L 934.214844 164.214844 L 934.214844 121.785156 L 891.785156 121.785156 "/>
<path style="fill-rule:nonzero;fill:rgb(55%,51%,53%);fill-opacity:1;stroke-width:1;stroke-linecap:butt;stroke-linejoin:miter;stroke:rgb(0%,0%,0%);stroke-opacity:1;stroke-miterlimit:10;" d="M 799.785156 392.785156 L 799.785156 435.214844 L 842.214844 435.214844 L 842.214844 392.785156 L 799.785156 392.785156 "/>
</g>
</svg>
