<?xml version="1.0" encoding="UTF-8"?>
<svg xmlns="http://www.w3.org/2000/svg" xmlns:xlink="http://www.w3.org/1999/xlink" width="1179pt" height="517pt" viewBox="0 0 1179 517" version="1.1">
<g id="surface1481">
<rect x="0" y="0" width="1179" height="517" style="fill:rgb(90%,90%,90%);fill-opacity:1;stroke:none;"/>
<path style="fill-rule:nonzero;fill:rgb(53%,27%,7%);fill-opacity:1;stroke-width:1;stroke-linecap:butt;stroke-linejoin:miter;stroke:rgb(0%,0%,0%);stroke-opacity:1;stroke-miterlimit:10;" d="M 123 375 L 97.019531 420 L 148.980469 420 L 123 375 "/>
<path style="fill-rule:nonzero;fill:rgb(53%,27%,7%);fill-opacity:1;stroke-width:1;stroke-linecap:butt;stroke-linejoin:miter;stroke:rgb(0%,0%,0%);stroke-opacity:1;stroke-miterlimit:10;" d="M 980 74 L 954.019531 119 L 1005.980469 119 L 980 74 "/>
<path style="fill-rule:nonzero;fill:rgb(53%,27%,7%);fill-opacity:1;stroke-width:1;stroke-linecap:butt;stroke-linejoin:miter;stroke:rgb(0%,0%,0%);stroke-opacity:1;stroke-miterlimit:10;" d="M 413 179 L 387.019531 224 L 438.980469 224 L 413 179 "/>
<path style="fill-rule:nonzero;fill:rgb(53%,27%,7%);fill-opacity:1;stroke-width:1;stroke-linecap:butt;stroke-linejoin:miter;stroke:rgb(0%,0%,0%);stroke-opacity:1;stroke-miterlimit:10;" d="M 877 155 L 851.019531 200 L 902.980469 200 L 877 155 "/>
<path style="fill-rule:nonzero;fill:rgb(35%,70%,90%);fill-opacity:1;stroke-width:1;stroke-linecap:butt;stroke-linejoin:miter;stroke:rgb(0%,0%,0%);stroke-opacity:1;stroke-miterlimit:10;" d="M 389 383 L 418.664062 383 L 430.664062 354.785156 L 442.664062 383 L 472.332031 383 L 448.332031 400.4375 L 456.417969 431.980469 L 430.664062 414.542969 L 404.914062 431.980469 L 417.214844 400.4375 L 389 383 "/>
<path style="fill-rule:nonzero;fill:rgb(35%,70%,90%);fill-opacity:1;stroke-width:1;stroke-linecap:butt;stroke-linejoin:miter;stroke:rgb(0%,0%,0%);stroke-opacity:1;stroke-miterlimit:10;" d="M 603 100 L 632.664062 100 L 644.664062 71.785156 L 656.664062 100 L 686.332031 100 L 662.332031 117.4375 L 670.417969 148.980469 L 644.664062 131.542969 L 618.914062 148.980469 L 631.214844 117.4375 L 603 100 "/>
<path style="fill-rule:nonzero;fill:rgb(35%,70%,90%);fill-opacity:1;stroke-width:1;stroke-linecap:butt;stroke-linejoin:miter;stroke:rgb(0%,0%,0%);stroke-opacity:1;stroke-miterlimit:10;" d="M 734 250 L 763.664062 250 L 775.664062 221.785156 L 787.664062 250 L 817.332031 250 L 793.332031 267.4375 L 801.417969 298.980469 L 775.664062 281.542969 L 749.914062 298.980469 L 762.214844 267.4375 L 734 250 "/>
<path style="fill-rule:nonzero;fill:rgb(35%,70%,90%);fill-opacity:1;stroke-width:1;stroke-linecap:butt;stroke-linejoin:miter;stroke:rgb(0%,0%,0%);stroke-opacity:1;stroke-miterlimit:10;" d="M 293 153 L 322.664062 153 L 334.664062 124.785156 L 346.664062 153 L 376.332031 153 L 352.332031 170.4375 L 360.417969 201.980469 L 334.664062 184.542969 L 308.914062 201.980469 L 321.214844 170.4375 L 293 153 "/>
<path style="fill-rule:nonzero;fill:rgb(35%,70%,90%);fill-opacity:1;stroke-width:1;stroke-linecap:butt;stroke-linejoin:miter;stroke:rgb(0%,0%,0%);stroke-opacity:1;stroke-miterlimit:10;" d="M 845 404 L 874.664062 404 L 886.664062 375.785156 L 898.664062 404 L 928.332031 404 L 904.332031 421.4375 L 912.417969 452.980469 L 886.664062 435.542969 L 860.914062 452.980469 L 873.214844 421.4375 L 845 404 "/>
</g>
</svg>
