<?xml version="1.0" encoding="UTF-8"?>
<svg xmlns="http://www.w3.org/2000/svg" xmlns:xlink="http://www.w3.org/1999/xlink" width="1179pt" height="517pt" viewBox="0 0 1179 517" version="1.1">
<g id="surface321">
<rect x="0" y="0" width="1179" height="517" style="fill:rgb(90%,90%,90%);fill-opacity:1;stroke:none;"/>
<path style="fill-rule:nonzero;fill:rgb(100%,51%,0%);fill-opacity:1;stroke-width:1;stroke-linecap:butt;stroke-linejoin:miter;stroke:rgb(0%,0%,0%);stroke-opacity:1;stroke-miterlimit:10;" d="M 116.214844 198 C 116.214844 209.714844 106.714844 219.214844 95 219.214844 C 83.285156 219.214844 73.785156 209.714844 73.785156 198 C 73.785156 186.285156 83.285156 176.785156 95 176.785156 C 106.714844 176.785156 116.214844 186.285156 116.214844 198 "/>
<path style="fill-rule:nonzero;fill:rgb(100%,51%,0%);fill-opacity:1;stroke-width:1;stroke-linecap:butt;stroke-linejoin:miter;stroke:rgb(0%,0%,0%);stroke-opacity:1;stroke-miterlimit:10;" d="M 205.785156 338.785156 L 205.785156 381.214844 L 248.214844 381.214844 L 248.214844 338.785156 L 205.785156 338.785156 "/>
<path style="fill-rule:nonzero;fill:rgb(100%,51%,0%);fill-opacity:1;stroke-width:1;stroke-linecap:butt;stroke-linejoin:miter;stroke:rgb(0%,0%,0%);stroke-opacity:1;stroke-miterlimit:10;" d="M 425.214844 135 C 425.214844 146.714844 415.714844 156.214844 404 156.214844 C 392.285156 156.214844 382.785156 146.714844 382.785156 135 C 382.785156 123.285156 392.285156 113.785156 404 113.785156 C 415.714844 113.785156 425.214844 123.285156 425.214844 135 "/>
<path style="fill-rule:nonzero;fill:rgb(100%,51%,0%);fill-opacity:1;stroke-width:1;stroke-linecap:butt;stroke-linejoin:miter;stroke:rgb(0%,0%,0%);stroke-opacity:1;stroke-miterlimit:10;" d="M 138.214844 428 C 138.214844 439.714844 128.714844 449.214844 117 449.214844 C 105.285156 449.214844 95.785156 439.714844 95.785156 428 C 95.785156 416.285156 105.285156 406.785156 117 406.785156 C 128.714844 406.785156 138.214844 416.285156 138.214844 428 "/>
<path style="fill-rule:nonzero;fill:rgb(100%,51%,0%);fill-opacity:1;stroke-width:1;stroke-linecap:butt;stroke-linejoin:miter;stroke:rgb(0%,0%,0%);stroke-opacity:1;stroke-miterlimit:10;" d="M 228.214844 126 C 228.214844 137.714844 218.714844 147.214844 207 147.214844 C 195.285156 147.214844 185.785156 137.714844 185.785156 126 C 185.785156 114.285156 195.285156 104.785156 207 104.785156 C 218.714844 104.785156 228.214844 114.285156 228.214844 126 "/>
<path style="fill-rule:nonzero;fill:rgb(55%,51%,53%);fill-opacity:1;stroke-width:1;stroke-linecap:butt;stroke-linejoin:miter;stroke:rgb(0%,0%,0%);stroke-opacity:1;stroke-miterlimit:10;" d="M 758.785156 139.785156 L 758.785156 182.214844 L 801.214844 182.214844 L 801.214844 139.785156 L 758.785156 139.785156 "/>
<path style="fill-rule:nonzero;fill:rgb(55%,51%,53%);fill-opacity:1;stroke-width:1;stroke-linecap:butt;stroke-linejoin:miter;stroke:rgb(0%,0%,0%);stroke-opacity:1;stroke-miterlimit:10;" d="M 1009.214844 348 C 1009.214844 359.714844 999.714844 369.214844 988 369.214844 C 976.285156 369.214844 966.785156 359.714844 966.785156 348 C 966.785156 336.285156 976.285156 326.785156 988 326.785156 C 999.714844 326.785156 1009.214844 336.285156 1009.214844 348 "/>
<path style="fill-rule:nonzero;fill:rgb(55%,51%,53%);fill-opacity:1;stroke-width:1;stroke-linecap:butt;stroke-linejoin:miter;stroke:rgb(0%,0%,0%);stroke-opacity:1;stroke-miterlimit:10;" d="M 957.785156 84.785156 L 957.785156 127.214844 L 1000.214844 127.214844 L 1000.214844 84.785156 L 957.785156 84.785156 "/>
<path style="fill-rule:nonzero;fill:rgb(55%,51%,53%);fill-opacity:1;stroke-width:1;stroke-linecap:butt;stroke-linejoin:miter;stroke:rgb(0%,0%,0%);stroke-opacity:1;stroke-miterlimit:10;" d="M 837.785156 260.785156 L 837.785156 303.214844 L 880.214844 303.214844 L 880.214844 260.785156 L 837.785156 260.785156 "/>
<path style="fill-rule:nonzero;fill:rgb(55%,51%,53%);fill-opacity:1;stroke-width:1;stroke-linecap:butt;stroke-linejoin:miter;stroke:rgb(0%,0%,0%);stroke-opacity:1;stroke-miterlimit:10;" d="M 739.785156 337.785156 L 739.785156 380.214844 L 782.214844 380.214844 L 782.214844 337.785156 L 739.785156 337.785156 "/>
</g>
</svg>
