<?xml version="1.0" encoding="UTF-8"?>
<svg xmlns="http://www.w3.org/2000/svg" xmlns:xlink="http://www.w3.org/1999/xlink" width="1179pt" height="517pt" viewBox="0 0 1179 517" version="1.1">
<g id="surface1">
<rect x="0" y="0" width="1179" height="517" style="fill:rgb(90%,90%,90%);fill-opacity:1;stroke:none;"/>
<path style="fill-rule:nonzero;fill:rgb(35%,70%,90%);fill-opacity:1;stroke-width:1;stroke-linecap:butt;stroke-linejoin:miter;stroke:rgb(0%,0%,0%);stroke-opacity:1;stroke-miterlimit:10;" d="M 117 332 L 146.664062 332 L 158.664062 303.785156 L 170.664062 332 L 200.332031 332 L 176.332031 349.4375 L 184.417969 380.980469 L 158.664062 363.542969 L 132.914062 380.980469 L 145.214844 349.4375 L 117 332 "/>
<path style="fill-rule:nonzero;fill:rgb(35%,70%,90%);fill-opacity:1;stroke-width:1;stroke-linecap:butt;stroke-linejoin:miter;stroke:rgb(0%,0%,0%);stroke-opacity:1;stroke-miterlimit:10;" d="M 467 143 L 496.664062 143 L 508.664062 114.785156 L 520.664062 143 L 550.332031 143 L 526.332031 160.4375 L 534.417969 191.980469 L 508.664062 174.542969 L 482.914062 191.980469 L 495.214844 160.4375 L 467 143 "/>
<path style="fill-rule:nonzero;fill:rgb(35%,70%,90%);fill-opacity:1;stroke-width:1;stroke-linecap:butt;stroke-linejoin:miter;stroke:rgb(0%,0%,0%);stroke-opacity:1;stroke-miterlimit:10;" d="M 513 348 L 542.664062 348 L 554.664062 319.785156 L 566.664062 348 L 596.332031 348 L 572.332031 365.4375 L 580.417969 396.980469 L 554.664062 379.542969 L 528.914062 396.980469 L 541.214844 365.4375 L 513 348 "/>
<path style="fill-rule:nonzero;fill:rgb(35%,70%,90%);fill-opacity:1;stroke-width:1;stroke-linecap:butt;stroke-linejoin:miter;stroke:rgb(0%,0%,0%);stroke-opacity:1;stroke-miterlimit:10;" d="M 893 191 L 922.664062 191 L 934.664062 162.785156 L 946.664062 191 L 976.332031 191 L 952.332031 208.4375 L 960.417969 239.980469 L 934.664062 222.542969 L 908.914062 239.980469 L 921.214844 208.4375 L 893 191 "/>
<path style="fill-rule:nonzero;fill:rgb(100%,51%,0%);fill-opacity:1;stroke-width:1;stroke-linecap:butt;stroke-linejoin:miter;stroke:rgb(0%,0%,0%);stroke-opacity:1;stroke-miterlimit:10;" d="M 1065.214844 317 C 1065.214844 328.714844 1055.714844 338.214844 1044 338.214844 C 1032.285156 338.214844 1022.785156 328.714844 1022.785156 317 C 1022.785156 305.285156 1032.285156 295.785156 1044 295.785156 C 1055.714844 295.785156 1065.214844 305.285156 1065.214844 317 "/>
<path style="fill-rule:nonzero;fill:rgb(100%,51%,0%);fill-opacity:1;stroke-width:1;stroke-linecap:butt;stroke-linejoin:miter;stroke:rgb(0%,0%,0%);stroke-opacity:1;stroke-miterlimit:10;" d="M 740.214844 201 C 740.214844 212.714844 730.714844 222.214844 719 222.214844 C 707.285156 222.214844 697.785156 212.714844 697.785156 201 C 697.785156 189.285156 707.285156 179.785156 719 179.785156 C 730.714844 179.785156 740.214844 189.285156 740.214844 201 "/>
<path style="fill-rule:nonzero;fill:rgb(100%,51%,0%);fill-opacity:1;stroke-width:1;stroke-linecap:butt;stroke-linejoin:miter;stroke:rgb(0%,0%,0%);stroke-opacity:1;stroke-miterlimit:10;" d="M 798.214844 389 C 798.214844 400.714844 788.714844 410.214844 777 410.214844 C 765.285156 410.214844 755.785156 400.714844 755.785156 389 C 755.785156 377.285156 765.285156 367.785156 777 367.785156 C 788.714844 367.785156 798.214844 377.285156 798.214844 389 "/>
</g>
</svg>
