<?xml version="1.0" encoding="UTF-8"?>
<svg xmlns="http://www.w3.org/2000/svg" xmlns:xlink="http://www.w3.org/1999/xlink" width="1179pt" height="517pt" viewBox="0 0 1179 517" version="1.1">
<g id="surface1126">
<rect x="0" y="0" width="1179" height="517" style="fill:rgb(90%,90%,90%);fill-opacity:1;stroke:none;"/>
<path style="fill-rule:nonzero;fill:rgb(35%,70%,90%);fill-opacity:1;stroke-width:1;stroke-linecap:butt;stroke-linejoin:miter;stroke:rgb(0%,0%,0%);stroke-opacity:1;stroke-miterlimit:10;" d="M 555 384.601562 C 555 370.199219 531 370.199219 531 384.601562 C 531 399 555 401.398438 555 413.398438 C 555 401.398438 579 399 579 384.601562 C 579 370.199219 555 370.199219 555 384.601562 "/>
<path style="fill-rule:nonzero;fill:rgb(35%,70%,90%);fill-opacity:1;stroke-width:1;stroke-linecap:butt;stroke-linejoin:miter;stroke:rgb(0%,0%,0%);stroke-opacity:1;stroke-miterlimit:10;" d="M 922 162.601562 C 922 148.199219 898 148.199219 898 162.601562 C 898 177 922 179.398438 922 191.398438 C 922 179.398438 946 177 946 162.601562 C 946 148.199219 922 148.199219 922 162.601562 "/>
<path style="fill-rule:nonzero;fill:rgb(35%,70%,90%);fill-opacity:1;stroke-width:1;stroke-linecap:butt;stroke-linejoin:miter;stroke:rgb(0%,0%,0%);stroke-opacity:1;stroke-miterlimit:10;" d="M 162 399.601562 C 162 385.199219 138 385.199219 138 399.601562 C 138 414 162 416.398438 162 428.398438 C 162 416.398438 186 414 186 399.601562 C 186 385.199219 162 385.199219 162 399.601562 "/>
<path style="fill-rule:nonzero;fill:rgb(35%,70%,90%);fill-opacity:1;stroke-width:1;stroke-linecap:butt;stroke-linejoin:miter;stroke:rgb(0%,0%,0%);stroke-opacity:1;stroke-miterlimit:10;" d="M 568 107.601562 C 568 93.199219 544 93.199219 544 107.601562 C 544 122 568 124.398438 568 136.398438 C 568 124.398438 592 122 592 107.601562 C 592 93.199219 568 93.199219 568 107.601562 "/>
<path style="fill-rule:nonzero;fill:rgb(35%,70%,90%);fill-opacity:1;stroke-width:1;stroke-linecap:butt;stroke-linejoin:miter;stroke:rgb(0%,0%,0%);stroke-opacity:1;stroke-miterlimit:10;" d="M 756 130.601562 C 756 116.199219 732 116.199219 732 130.601562 C 732 145 756 147.398438 756 159.398438 C 756 147.398438 780 145 780 130.601562 C 780 116.199219 756 116.199219 756 130.601562 "/>
<path style="fill-rule:nonzero;fill:rgb(53%,27%,7%);fill-opacity:1;stroke-width:1;stroke-linecap:butt;stroke-linejoin:miter;stroke:rgb(0%,0%,0%);stroke-opacity:1;stroke-miterlimit:10;" d="M 354.214844 355 C 354.214844 366.714844 344.714844 376.214844 333 376.214844 C 321.285156 376.214844 311.785156 366.714844 311.785156 355 C 311.785156 343.285156 321.285156 333.785156 333 333.785156 C 344.714844 333.785156 354.214844 343.285156 354.214844 355 "/>
<path style="fill-rule:nonzero;fill:rgb(53%,27%,7%);fill-opacity:1;stroke-width:1;stroke-linecap:butt;stroke-linejoin:miter;stroke:rgb(0%,0%,0%);stroke-opacity:1;stroke-miterlimit:10;" d="M 912.214844 333 C 912.214844 344.714844 902.714844 354.214844 891 354.214844 C 879.285156 354.214844 869.785156 344.714844 869.785156 333 C 869.785156 321.285156 879.285156 311.785156 891 311.785156 C 902.714844 311.785156 912.214844 321.285156 912.214844 333 "/>
<path style="fill-rule:nonzero;fill:rgb(53%,27%,7%);fill-opacity:1;stroke-width:1;stroke-linecap:butt;stroke-linejoin:miter;stroke:rgb(0%,0%,0%);stroke-opacity:1;stroke-miterlimit:10;" d="M 177.214844 139 C 177.214844 150.714844 167.714844 160.214844 156 160.214844 C 144.285156 160.214844 134.785156 150.714844 134.785156 139 C 134.785156 127.285156 144.285156 117.785156 156 117.785156 C 167.714844 117.785156 177.214844 127.285156 177.214844 139 "/>
</g>
</svg>
