<?xml version="1.0" encoding="UTF-8"?>
<svg xmlns="http://www.w3.org/2000/svg" xmlns:xlink="http://www.w3.org/1999/xlink" width="1179pt" height="517pt" viewBox="0 0 1179 517" version="1.1">
<g id="surface161">
<rect x="0" y="0" width="1179" height="517" style="fill:rgb(90%,90%,90%);fill-opacity:1;stroke:none;"/>
<path style="fill-rule:nonzero;fill:rgb(55%,51%,53%);fill-opacity:1;stroke-width:1;stroke-linecap:butt;stroke-linejoin:miter;stroke:rgb(0%,0%,0%);stroke-opacity:1;stroke-miterlimit:10;" d="M 133 414 L 162.664062 414 L 174.664062 385.785156 L 186.664062 414 L 216.332031 414 L 192.332031 431.4375 L 200.417969 462.980469 L 174.664062 445.542969 L 148.914062 462.980469 L 161.214844 431.4375 L 133 414 "/>
<path style="fill-rule:nonzero;fill:rgb(55%,51%,53%);fill-opacity:1;stroke-width:1;stroke-linecap:butt;stroke-linejoin:miter;stroke:rgb(0%,0%,0%);stroke-opacity:1;stroke-miterlimit:10;" d="M 370.785156 82.785156 L 370.785156 125.214844 L 413.214844 125.214844 L 413.214844 82.785156 L 370.785156 82.785156 "/>
<path style="fill-rule:nonzero;fill:rgb(55%,51%,53%);fill-opacity:1;stroke-width:1;stroke-linecap:butt;stroke-linejoin:miter;stroke:rgb(0%,0%,0%);stroke-opacity:1;stroke-miterlimit:10;" d="M 345.785156 217.785156 L 345.785156 260.214844 L 388.214844 260.214844 L 388.214844 217.785156 L 345.785156 217.785156 "/>
<path style="fill-rule:nonzero;fill:rgb(55%,51%,53%);fill-opacity:1;stroke-width:1;stroke-linecap:butt;stroke-linejoin:miter;stroke:rgb(0%,0%,0%);stroke-opacity:1;stroke-miterlimit:10;" d="M 284 158 L 313.664062 158 L 325.664062 129.785156 L 337.664062 158 L 367.332031 158 L 343.332031 175.4375 L 351.417969 206.980469 L 325.664062 189.542969 L 299.914062 206.980469 L 312.214844 175.4375 L 284 158 "/>
<path style="fill-rule:nonzero;fill:rgb(55%,51%,53%);fill-opacity:1;stroke-width:1;stroke-linecap:butt;stroke-linejoin:miter;stroke:rgb(0%,0%,0%);stroke-opacity:1;stroke-miterlimit:10;" d="M 141 158 L 170.664062 158 L 182.664062 129.785156 L 194.664062 158 L 224.332031 158 L 200.332031 175.4375 L 208.417969 206.980469 L 182.664062 189.542969 L 156.914062 206.980469 L 169.214844 175.4375 L 141 158 "/>
<path style="fill-rule:nonzero;fill:rgb(55%,51%,53%);fill-opacity:1;stroke-width:1;stroke-linecap:butt;stroke-linejoin:miter;stroke:rgb(0%,0%,0%);stroke-opacity:1;stroke-miterlimit:10;" d="M 394 404 L 423.664062 404 L 435.664062 375.785156 L 447.664062 404 L 477.332031 404 L 453.332031 421.4375 L 461.417969 452.980469 L 435.664062 435.542969 L 409.914062 452.980469 L 422.214844 421.4375 L 394 404 "/>
<path style="fill-rule:nonzero;fill:rgb(55%,51%,53%);fill-opacity:1;stroke-width:1;stroke-linecap:butt;stroke-linejoin:miter;stroke:rgb(0%,0%,0%);stroke-opacity:1;stroke-miterlimit:10;" d="M 180 262 L 209.664062 262 L 221.664062 233.785156 L 233.664062 262 L 263.332031 262 L 239.332031 279.4375 L 247.417969 310.980469 L 221.664062 293.542969 L 195.914062 310.980469 L 208.214844 279.4375 L 180 262 "/>
<path style="fill-rule:nonzero;fill:rgb(55%,51%,53%);fill-opacity:1;stroke-width:1;stroke-linecap:butt;stroke-linejoin:miter;stroke:rgb(0%,0%,0%);stroke-opacity:1;stroke-miterlimit:10;" d="M 98 323 L 127.664062 323 L 139.664062 294.785156 L 151.664062 323 L 181.332031 323 L 157.332031 340.4375 L 165.417969 371.980469 L 139.664062 354.542969 L 113.914062 371.980469 L 126.214844 340.4375 L 98 323 "/>
<path style="fill-rule:nonzero;fill:rgb(53%,27%,7%);fill-opacity:1;stroke-width:1;stroke-linecap:butt;stroke-linejoin:miter;stroke:rgb(0%,0%,0%);stroke-opacity:1;stroke-miterlimit:10;" d="M 978.785156 163.785156 L 978.785156 206.214844 L 1021.214844 206.214844 L 1021.214844 163.785156 L 978.785156 163.785156 "/>
<path style="fill-rule:nonzero;fill:rgb(53%,27%,7%);fill-opacity:1;stroke-width:1;stroke-linecap:butt;stroke-linejoin:miter;stroke:rgb(0%,0%,0%);stroke-opacity:1;stroke-miterlimit:10;" d="M 926 332 L 955.664062 332 L 967.664062 303.785156 L 979.664062 332 L 1009.332031 332 L 985.332031 349.4375 L 993.417969 380.980469 L 967.664062 363.542969 L 941.914062 380.980469 L 954.214844 349.4375 L 926 332 "/>
<path style="fill-rule:nonzero;fill:rgb(53%,27%,7%);fill-opacity:1;stroke-width:1;stroke-linecap:butt;stroke-linejoin:miter;stroke:rgb(0%,0%,0%);stroke-opacity:1;stroke-miterlimit:10;" d="M 730 384 L 759.664062 384 L 771.664062 355.785156 L 783.664062 384 L 813.332031 384 L 789.332031 401.4375 L 797.417969 432.980469 L 771.664062 415.542969 L 745.914062 432.980469 L 758.214844 401.4375 L 730 384 "/>
<path style="fill-rule:nonzero;fill:rgb(53%,27%,7%);fill-opacity:1;stroke-width:1;stroke-linecap:butt;stroke-linejoin:miter;stroke:rgb(0%,0%,0%);stroke-opacity:1;stroke-miterlimit:10;" d="M 805.785156 184.785156 L 805.785156 227.214844 L 848.214844 227.214844 L 848.214844 184.785156 L 805.785156 184.785156 "/>
</g>
</svg>
