<?xml version="1.0" encoding="UTF-8"?>
<svg xmlns="http://www.w3.org/2000/svg" xmlns:xlink="http://www.w3.org/1999/xlink" width="1179pt" height="517pt" viewBox="0 0 1179 517" version="1.1">
<g id="surface271">
<rect x="0" y="0" width="1179" height="517" style="fill:rgb(90%,90%,90%);fill-opacity:1;stroke:none;"/>
<path style="fill-rule:nonzero;fill:rgb(100%,51%,0%);fill-opacity:1;stroke-width:1;stroke-linecap:butt;stroke-linejoin:miter;stroke:rgb(0%,0%,0%);stroke-opacity:1;stroke-miterlimit:10;" d="M 573 90 L 602.664062 90 L 614.664062 61.785156 L 626.664062 90 L 656.332031 90 L 632.332031 107.4375 L 640.417969 138.980469 L 614.664062 121.542969 L 588.914062 138.980469 L 601.214844 107.4375 L 573 90 "/>
<path style="fill-rule:nonzero;fill:rgb(100%,51%,0%);fill-opacity:1;stroke-width:1;stroke-linecap:butt;stroke-linejoin:miter;stroke:rgb(0%,0%,0%);stroke-opacity:1;stroke-miterlimit:10;" d="M 437 301 L 466.664062 301 L 478.664062 272.785156 L 490.664062 301 L 520.332031 301 L 496.332031 318.4375 L 504.417969 349.980469 L 478.664062 332.542969 L 452.914062 349.980469 L 465.214844 318.4375 L 437 301 "/>
<path style="fill-rule:nonzero;fill:rgb(100%,51%,0%);fill-opacity:1;stroke-width:1;stroke-linecap:butt;stroke-linejoin:miter;stroke:rgb(0%,0%,0%);stroke-opacity:1;stroke-miterlimit:10;" d="M 965 162 L 994.664062 162 L 1006.664062 133.785156 L 1018.664062 162 L 1048.332031 162 L 1024.332031 179.4375 L 1032.417969 210.980469 L 1006.664062 193.542969 L 980.914062 210.980469 L 993.214844 179.4375 L 965 162 "/>
<path style="fill-rule:nonzero;fill:rgb(53%,27%,7%);fill-opacity:1;stroke-width:1;stroke-linecap:butt;stroke-linejoin:miter;stroke:rgb(0%,0%,0%);stroke-opacity:1;stroke-miterlimit:10;" d="M 705.214844 377 C 705.214844 388.714844 695.714844 398.214844 684 398.214844 C 672.285156 398.214844 662.785156 388.714844 662.785156 377 C 662.785156 365.285156 672.285156 355.785156 684 355.785156 C 695.714844 355.785156 705.214844 365.285156 705.214844 377 "/>
<path style="fill-rule:nonzero;fill:rgb(53%,27%,7%);fill-opacity:1;stroke-width:1;stroke-linecap:butt;stroke-linejoin:miter;stroke:rgb(0%,0%,0%);stroke-opacity:1;stroke-miterlimit:10;" d="M 601.214844 286 C 601.214844 297.714844 591.714844 307.214844 580 307.214844 C 568.285156 307.214844 558.785156 297.714844 558.785156 286 C 558.785156 274.285156 568.285156 264.785156 580 264.785156 C 591.714844 264.785156 601.214844 274.285156 601.214844 286 "/>
<path style="fill-rule:nonzero;fill:rgb(53%,27%,7%);fill-opacity:1;stroke-width:1;stroke-linecap:butt;stroke-linejoin:miter;stroke:rgb(0%,0%,0%);stroke-opacity:1;stroke-miterlimit:10;" d="M 710.214844 130 C 710.214844 141.714844 700.714844 151.214844 689 151.214844 C 677.285156 151.214844 667.785156 141.714844 667.785156 130 C 667.785156 118.285156 677.285156 108.785156 689 108.785156 C 700.714844 108.785156 710.214844 118.285156 710.214844 130 "/>
<path style="fill-rule:nonzero;fill:rgb(53%,27%,7%);fill-opacity:1;stroke-width:1;stroke-linecap:butt;stroke-linejoin:miter;stroke:rgb(0%,0%,0%);stroke-opacity:1;stroke-miterlimit:10;" d="M 514.214844 194 C 514.214844 205.714844 504.714844 215.214844 493 215.214844 C 481.285156 215.214844 471.785156 205.714844 471.785156 194 C 471.785156 182.285156 481.285156 172.785156 493 172.785156 C 504.714844 172.785156 514.214844 182.285156 514.214844 194 "/>
<path style="fill-rule:nonzero;fill:rgb(53%,27%,7%);fill-opacity:1;stroke-width:1;stroke-linecap:butt;stroke-linejoin:miter;stroke:rgb(0%,0%,0%);stroke-opacity:1;stroke-miterlimit:10;" d="M 175.214844 410 C 175.214844 421.714844 165.714844 431.214844 154 431.214844 C 142.285156 431.214844 132.785156 421.714844 132.785156 410 C 132.785156 398.285156 142.285156 388.785156 154 388.785156 C 165.714844 388.785156 175.214844 398.285156 175.214844 410 "/>
</g>
</svg>
