<?xml version="1.0" encoding="UTF-8"?>
<svg xmlns="http://www.w3.org/2000/svg" xmlns:xlink="http://www.w3.org/1999/xlink" width="1179pt" height="517pt" viewBox="0 0 1179 517" version="1.1">
<g id="surface1376">
<rect x="0" y="0" width="1179" height="517" style="fill:rgb(90%,90%,90%);fill-opacity:1;stroke:none;"/>
<path style="fill-rule:nonzero;fill:rgb(55%,51%,53%);fill-opacity:1;stroke-width:1;stroke-linecap:butt;stroke-linejoin:miter;stroke:rgb(0%,0%,0%);stroke-opacity:1;stroke-miterlimit:10;" d="M 559 149.601562 C 559 135.199219 535 135.199219 535 149.601562 C 535 164 559 166.398438 559 178.398438 C 559 166.398438 583 164 583 149.601562 C 583 135.199219 559 135.199219 559 149.601562 "/>
<path style="fill-rule:nonzero;fill:rgb(55%,51%,53%);fill-opacity:1;stroke-width:1;stroke-linecap:butt;stroke-linejoin:miter;stroke:rgb(0%,0%,0%);stroke-opacity:1;stroke-miterlimit:10;" d="M 683 299.601562 C 683 285.199219 659 285.199219 659 299.601562 C 659 314 683 316.398438 683 328.398438 C 683 316.398438 707 314 707 299.601562 C 707 285.199219 683 285.199219 683 299.601562 "/>
<path style="fill-rule:nonzero;fill:rgb(55%,51%,53%);fill-opacity:1;stroke-width:1;stroke-linecap:butt;stroke-linejoin:miter;stroke:rgb(0%,0%,0%);stroke-opacity:1;stroke-miterlimit:10;" d="M 1031 249.601562 C 1031 235.199219 1007 235.199219 1007 249.601562 C 1007 264 1031 266.398438 1031 278.398438 C 1031 266.398438 1055 264 1055 249.601562 C 1055 235.199219 1031 235.199219 1031 249.601562 "/>
<path style="fill-rule:nonzero;fill:rgb(55%,51%,53%);fill-opacity:1;stroke-width:1;stroke-linecap:butt;stroke-linejoin:miter;stroke:rgb(0%,0%,0%);stroke-opacity:1;stroke-miterlimit:10;" d="M 766 139.601562 C 766 125.199219 742 125.199219 742 139.601562 C 742 154 766 156.398438 766 168.398438 C 766 156.398438 790 154 790 139.601562 C 790 125.199219 766 125.199219 766 139.601562 "/>
<path style="fill-rule:nonzero;fill:rgb(53%,27%,7%);fill-opacity:1;stroke-width:1;stroke-linecap:butt;stroke-linejoin:miter;stroke:rgb(0%,0%,0%);stroke-opacity:1;stroke-miterlimit:10;" d="M 879 226 L 908.664062 226 L 920.664062 197.785156 L 932.664062 226 L 962.332031 226 L 938.332031 243.4375 L 946.417969 274.980469 L 920.664062 257.542969 L 894.914062 274.980469 L 907.214844 243.4375 L 879 226 "/>
<path style="fill-rule:nonzero;fill:rgb(53%,27%,7%);fill-opacity:1;stroke-width:1;stroke-linecap:butt;stroke-linejoin:miter;stroke:rgb(0%,0%,0%);stroke-opacity:1;stroke-miterlimit:10;" d="M 163 249 L 192.664062 249 L 204.664062 220.785156 L 216.664062 249 L 246.332031 249 L 222.332031 266.4375 L 230.417969 297.980469 L 204.664062 280.542969 L 178.914062 297.980469 L 191.214844 266.4375 L 163 249 "/>
<path style="fill-rule:nonzero;fill:rgb(53%,27%,7%);fill-opacity:1;stroke-width:1;stroke-linecap:butt;stroke-linejoin:miter;stroke:rgb(0%,0%,0%);stroke-opacity:1;stroke-miterlimit:10;" d="M 364 413 L 393.664062 413 L 405.664062 384.785156 L 417.664062 413 L 447.332031 413 L 423.332031 430.4375 L 431.417969 461.980469 L 405.664062 444.542969 L 379.914062 461.980469 L 392.214844 430.4375 L 364 413 "/>
<path style="fill-rule:nonzero;fill:rgb(53%,27%,7%);fill-opacity:1;stroke-width:1;stroke-linecap:butt;stroke-linejoin:miter;stroke:rgb(0%,0%,0%);stroke-opacity:1;stroke-miterlimit:10;" d="M 953 118 L 982.664062 118 L 994.664062 89.785156 L 1006.664062 118 L 1036.332031 118 L 1012.332031 135.4375 L 1020.417969 166.980469 L 994.664062 149.542969 L 968.914062 166.980469 L 981.214844 135.4375 L 953 118 "/>
</g>
</svg>
