<?xml version="1.0" encoding="UTF-8"?>
<svg xmlns="http://www.w3.org/2000/svg" xmlns:xlink="http://www.w3.org/1999/xlink" width="1179pt" height="517pt" viewBox="0 0 1179 517" version="1.1">
<g id="surface786">
<rect x="0" y="0" width="1179" height="517" style="fill:rgb(90%,90%,90%);fill-opacity:1;stroke:none;"/>
<path style="fill-rule:nonzero;fill:rgb(100%,51%,0%);fill-opacity:1;stroke-width:1;stroke-linecap:butt;stroke-linejoin:miter;stroke:rgb(0%,0%,0%);stroke-opacity:1;stroke-miterlimit:10;" d="M 641.214844 122 C 641.214844 133.714844 631.714844 143.214844 620 143.214844 C 608.285156 143.214844 598.785156 133.714844 598.785156 122 C 598.785156 110.285156 608.285156 100.785156 620 100.785156 C 631.714844 100.785156 641.214844 110.285156 641.214844 122 "/>
<path style="fill-rule:nonzero;fill:rgb(100%,51%,0%);fill-opacity:1;stroke-width:1;stroke-linecap:butt;stroke-linejoin:miter;stroke:rgb(0%,0%,0%);stroke-opacity:1;stroke-miterlimit:10;" d="M 473.214844 81 C 473.214844 92.714844 463.714844 102.214844 452 102.214844 C 440.285156 102.214844 430.785156 92.714844 430.785156 81 C 430.785156 69.285156 440.285156 59.785156 452 59.785156 C 463.714844 59.785156 473.214844 69.285156 473.214844 81 "/>
<path style="fill-rule:nonzero;fill:rgb(100%,51%,0%);fill-opacity:1;stroke-width:1;stroke-linecap:butt;stroke-linejoin:miter;stroke:rgb(0%,0%,0%);stroke-opacity:1;stroke-miterlimit:10;" d="M 831.214844 247 C 831.214844 258.714844 821.714844 268.214844 810 268.214844 C 798.285156 268.214844 788.785156 258.714844 788.785156 247 C 788.785156 235.285156 798.285156 225.785156 810 225.785156 C 821.714844 225.785156 831.214844 235.285156 831.214844 247 "/>
<path style="fill-rule:nonzero;fill:rgb(35%,70%,90%);fill-opacity:1;stroke-width:1;stroke-linecap:butt;stroke-linejoin:miter;stroke:rgb(0%,0%,0%);stroke-opacity:1;stroke-miterlimit:10;" d="M 175 298 L 204.664062 298 L 216.664062 269.785156 L 228.664062 298 L 258.332031 298 L 234.332031 315.4375 L 242.417969 346.980469 L 216.664062 329.542969 L 190.914062 346.980469 L 203.214844 315.4375 L 175 298 "/>
<path style="fill-rule:nonzero;fill:rgb(35%,70%,90%);fill-opacity:1;stroke-width:1;stroke-linecap:butt;stroke-linejoin:miter;stroke:rgb(0%,0%,0%);stroke-opacity:1;stroke-miterlimit:10;" d="M 397 310 L 426.664062 310 L 438.664062 281.785156 L 450.664062 310 L 480.332031 310 L 456.332031 327.4375 L 464.417969 358.980469 L 438.664062 341.542969 L 412.914062 358.980469 L 425.214844 327.4375 L 397 310 "/>
<path style="fill-rule:nonzero;fill:rgb(35%,70%,90%);fill-opacity:1;stroke-width:1;stroke-linecap:butt;stroke-linejoin:miter;stroke:rgb(0%,0%,0%);stroke-opacity:1;stroke-miterlimit:10;" d="M 652 383 L 681.664062 383 L 693.664062 354.785156 L 705.664062 383 L 735.332031 383 L 711.332031 400.4375 L 719.417969 431.980469 L 693.664062 414.542969 L 667.914062 431.980469 L 680.214844 400.4375 L 652 383 "/>
<path style="fill-rule:nonzero;fill:rgb(35%,70%,90%);fill-opacity:1;stroke-width:1;stroke-linecap:butt;stroke-linejoin:miter;stroke:rgb(0%,0%,0%);stroke-opacity:1;stroke-miterlimit:10;" d="M 963 249 L 992.664062 249 L 1004.664062 220.785156 L 1016.664062 249 L 1046.332031 249 L 1022.332031 266.4375 L 1030.417969 297.980469 L 1004.664062 280.542969 L 978.914062 297.980469 L 991.214844 266.4375 L 963 249 "/>
</g>
</svg>
