<?xml version="1.0" encoding="UTF-8"?>
<svg xmlns="http://www.w3.org/2000/svg" xmlns:xlink="http://www.w3.org/1999/xlink" width="1179pt" height="517pt" viewBox="0 0 1179 517" version="1.1">
<g id="surface1286">
<rect x="0" y="0" width="1179" height="517" style="fill:rgb(90%,90%,90%);fill-opacity:1;stroke:none;"/>
<path style="fill-rule:nonzero;fill:rgb(55%,51%,53%);fill-opacity:1;stroke-width:1;stroke-linecap:butt;stroke-linejoin:miter;stroke:rgb(0%,0%,0%);stroke-opacity:1;stroke-miterlimit:10;" d="M 610 85.601562 C 610 71.199219 586 71.199219 586 85.601562 C 586 100 610 102.398438 610 114.398438 C 610 102.398438 634 100 634 85.601562 C 634 71.199219 610 71.199219 610 85.601562 "/>
<path style="fill-rule:nonzero;fill:rgb(55%,51%,53%);fill-opacity:1;stroke-width:1;stroke-linecap:butt;stroke-linejoin:miter;stroke:rgb(0%,0%,0%);stroke-opacity:1;stroke-miterlimit:10;" d="M 308 85.601562 C 308 71.199219 284 71.199219 284 85.601562 C 284 100 308 102.398438 308 114.398438 C 308 102.398438 332 100 332 85.601562 C 332 71.199219 308 71.199219 308 85.601562 "/>
<path style="fill-rule:nonzero;fill:rgb(55%,51%,53%);fill-opacity:1;stroke-width:1;stroke-linecap:butt;stroke-linejoin:miter;stroke:rgb(0%,0%,0%);stroke-opacity:1;stroke-miterlimit:10;" d="M 758 161.601562 C 758 147.199219 734 147.199219 734 161.601562 C 734 176 758 178.398438 758 190.398438 C 758 178.398438 782 176 782 161.601562 C 782 147.199219 758 147.199219 758 161.601562 "/>
<path style="fill-rule:nonzero;fill:rgb(55%,51%,53%);fill-opacity:1;stroke-width:1;stroke-linecap:butt;stroke-linejoin:miter;stroke:rgb(0%,0%,0%);stroke-opacity:1;stroke-miterlimit:10;" d="M 652 269.601562 C 652 255.199219 628 255.199219 628 269.601562 C 628 284 652 286.398438 652 298.398438 C 652 286.398438 676 284 676 269.601562 C 676 255.199219 652 255.199219 652 269.601562 "/>
<path style="fill-rule:nonzero;fill:rgb(53%,27%,7%);fill-opacity:1;stroke-width:1;stroke-linecap:butt;stroke-linejoin:miter;stroke:rgb(0%,0%,0%);stroke-opacity:1;stroke-miterlimit:10;" d="M 980 101 L 1009.664062 101 L 1021.664062 72.785156 L 1033.664062 101 L 1063.332031 101 L 1039.332031 118.4375 L 1047.417969 149.980469 L 1021.664062 132.542969 L 995.914062 149.980469 L 1008.214844 118.4375 L 980 101 "/>
<path style="fill-rule:nonzero;fill:rgb(53%,27%,7%);fill-opacity:1;stroke-width:1;stroke-linecap:butt;stroke-linejoin:miter;stroke:rgb(0%,0%,0%);stroke-opacity:1;stroke-miterlimit:10;" d="M 811 372 L 840.664062 372 L 852.664062 343.785156 L 864.664062 372 L 894.332031 372 L 870.332031 389.4375 L 878.417969 420.980469 L 852.664062 403.542969 L 826.914062 420.980469 L 839.214844 389.4375 L 811 372 "/>
<path style="fill-rule:nonzero;fill:rgb(53%,27%,7%);fill-opacity:1;stroke-width:1;stroke-linecap:butt;stroke-linejoin:miter;stroke:rgb(0%,0%,0%);stroke-opacity:1;stroke-miterlimit:10;" d="M 305 232 L 334.664062 232 L 346.664062 203.785156 L 358.664062 232 L 388.332031 232 L 364.332031 249.4375 L 372.417969 280.980469 L 346.664062 263.542969 L 320.914062 280.980469 L 333.214844 249.4375 L 305 232 "/>
<path style="fill-rule:nonzero;fill:rgb(53%,27%,7%);fill-opacity:1;stroke-width:1;stroke-linecap:butt;stroke-linejoin:miter;stroke:rgb(0%,0%,0%);stroke-opacity:1;stroke-miterlimit:10;" d="M 474 175 L 503.664062 175 L 515.664062 146.785156 L 527.664062 175 L 557.332031 175 L 533.332031 192.4375 L 541.417969 223.980469 L 515.664062 206.542969 L 489.914062 223.980469 L 502.214844 192.4375 L 474 175 "/>
</g>
</svg>
