<?xml version="1.0" encoding="UTF-8"?>
<svg xmlns="http://www.w3.org/2000/svg" xmlns:xlink="http://www.w3.org/1999/xlink" width="1179pt" height="517pt" viewBox="0 0 1179 517" version="1.1">
<g id="surface1416">
<rect x="0" y="0" width="1179" height="517" style="fill:rgb(90%,90%,90%);fill-opacity:1;stroke:none;"/>
<path style="fill-rule:nonzero;fill:rgb(35%,70%,90%);fill-opacity:1;stroke-width:1;stroke-linecap:butt;stroke-linejoin:miter;stroke:rgb(0%,0%,0%);stroke-opacity:1;stroke-miterlimit:10;" d="M 998 406 L 1027.664062 406 L 1039.664062 377.785156 L 1051.664062 406 L 1081.332031 406 L 1057.332031 423.4375 L 1065.417969 454.980469 L 1039.664062 437.542969 L 1013.914062 454.980469 L 1026.214844 423.4375 L 998 406 "/>
<path style="fill-rule:nonzero;fill:rgb(35%,70%,90%);fill-opacity:1;stroke-width:1;stroke-linecap:butt;stroke-linejoin:miter;stroke:rgb(0%,0%,0%);stroke-opacity:1;stroke-miterlimit:10;" d="M 582 207 L 611.664062 207 L 623.664062 178.785156 L 635.664062 207 L 665.332031 207 L 641.332031 224.4375 L 649.417969 255.980469 L 623.664062 238.542969 L 597.914062 255.980469 L 610.214844 224.4375 L 582 207 "/>
<path style="fill-rule:nonzero;fill:rgb(35%,70%,90%);fill-opacity:1;stroke-width:1;stroke-linecap:butt;stroke-linejoin:miter;stroke:rgb(0%,0%,0%);stroke-opacity:1;stroke-miterlimit:10;" d="M 862 106 L 891.664062 106 L 903.664062 77.785156 L 915.664062 106 L 945.332031 106 L 921.332031 123.4375 L 929.417969 154.980469 L 903.664062 137.542969 L 877.914062 154.980469 L 890.214844 123.4375 L 862 106 "/>
<path style="fill-rule:nonzero;fill:rgb(100%,51%,0%);fill-opacity:1;stroke-width:1;stroke-linecap:butt;stroke-linejoin:miter;stroke:rgb(0%,0%,0%);stroke-opacity:1;stroke-miterlimit:10;" d="M 241 362.601562 C 241 348.199219 217 348.199219 217 362.601562 C 217 377 241 379.398438 241 391.398438 C 241 379.398438 265 377 265 362.601562 C 265 348.199219 241 348.199219 241 362.601562 "/>
<path style="fill-rule:nonzero;fill:rgb(100%,51%,0%);fill-opacity:1;stroke-width:1;stroke-linecap:butt;stroke-linejoin:miter;stroke:rgb(0%,0%,0%);stroke-opacity:1;stroke-miterlimit:10;" d="M 766 198.601562 C 766 184.199219 742 184.199219 742 198.601562 C 742 213 766 215.398438 766 227.398438 C 766 215.398438 790 213 790 198.601562 C 790 184.199219 766 184.199219 766 198.601562 "/>
<path style="fill-rule:nonzero;fill:rgb(100%,51%,0%);fill-opacity:1;stroke-width:1;stroke-linecap:butt;stroke-linejoin:miter;stroke:rgb(0%,0%,0%);stroke-opacity:1;stroke-miterlimit:10;" d="M 121 299.601562 C 121 285.199219 97 285.199219 97 299.601562 C 97 314 121 316.398438 121 328.398438 C 121 316.398438 145 314 145 299.601562 C 145 285.199219 121 285.199219 121 299.601562 "/>
<path style="fill-rule:nonzero;fill:rgb(100%,51%,0%);fill-opacity:1;stroke-width:1;stroke-linecap:butt;stroke-linejoin:miter;stroke:rgb(0%,0%,0%);stroke-opacity:1;stroke-miterlimit:10;" d="M 412 264.601562 C 412 250.199219 388 250.199219 388 264.601562 C 388 279 412 281.398438 412 293.398438 C 412 281.398438 436 279 436 264.601562 C 436 250.199219 412 250.199219 412 264.601562 "/>
<path style="fill-rule:nonzero;fill:rgb(100%,51%,0%);fill-opacity:1;stroke-width:1;stroke-linecap:butt;stroke-linejoin:miter;stroke:rgb(0%,0%,0%);stroke-opacity:1;stroke-miterlimit:10;" d="M 1034 227.601562 C 1034 213.199219 1010 213.199219 1010 227.601562 C 1010 242 1034 244.398438 1034 256.398438 C 1034 244.398438 1058 242 1058 227.601562 C 1058 213.199219 1034 213.199219 1034 227.601562 "/>
</g>
</svg>
