<?xml version="1.0" encoding="UTF-8"?>
<svg xmlns="http://www.w3.org/2000/svg" xmlns:xlink="http://www.w3.org/1999/xlink" width="1179pt" height="517pt" viewBox="0 0 1179 517" version="1.1">
<g id="surface1291">
<rect x="0" y="0" width="1179" height="517" style="fill:rgb(90%,90%,90%);fill-opacity:1;stroke:none;"/>
<path style="fill-rule:nonzero;fill:rgb(100%,51%,0%);fill-opacity:1;stroke-width:1;stroke-linecap:butt;stroke-linejoin:miter;stroke:rgb(0%,0%,0%);stroke-opacity:1;stroke-miterlimit:10;" d="M 400 189 L 429.664062 189 L 441.664062 160.785156 L 453.664062 189 L 483.332031 189 L 459.332031 206.4375 L 467.417969 237.980469 L 441.664062 220.542969 L 415.914062 237.980469 L 428.214844 206.4375 L 400 189 "/>
<path style="fill-rule:nonzero;fill:rgb(100%,51%,0%);fill-opacity:1;stroke-width:1;stroke-linecap:butt;stroke-linejoin:miter;stroke:rgb(0%,0%,0%);stroke-opacity:1;stroke-miterlimit:10;" d="M 225 192 L 254.664062 192 L 266.664062 163.785156 L 278.664062 192 L 308.332031 192 L 284.332031 209.4375 L 292.417969 240.980469 L 266.664062 223.542969 L 240.914062 240.980469 L 253.214844 209.4375 L 225 192 "/>
<path style="fill-rule:nonzero;fill:rgb(100%,51%,0%);fill-opacity:1;stroke-width:1;stroke-linecap:butt;stroke-linejoin:miter;stroke:rgb(0%,0%,0%);stroke-opacity:1;stroke-miterlimit:10;" d="M 317 392 L 346.664062 392 L 358.664062 363.785156 L 370.664062 392 L 400.332031 392 L 376.332031 409.4375 L 384.417969 440.980469 L 358.664062 423.542969 L 332.914062 440.980469 L 345.214844 409.4375 L 317 392 "/>
<path style="fill-rule:nonzero;fill:rgb(100%,51%,0%);fill-opacity:1;stroke-width:1;stroke-linecap:butt;stroke-linejoin:miter;stroke:rgb(0%,0%,0%);stroke-opacity:1;stroke-miterlimit:10;" d="M 772 154 L 801.664062 154 L 813.664062 125.785156 L 825.664062 154 L 855.332031 154 L 831.332031 171.4375 L 839.417969 202.980469 L 813.664062 185.542969 L 787.914062 202.980469 L 800.214844 171.4375 L 772 154 "/>
<path style="fill-rule:nonzero;fill:rgb(100%,51%,0%);fill-opacity:1;stroke-width:1;stroke-linecap:butt;stroke-linejoin:miter;stroke:rgb(0%,0%,0%);stroke-opacity:1;stroke-miterlimit:10;" d="M 89 198 L 118.664062 198 L 130.664062 169.785156 L 142.664062 198 L 172.332031 198 L 148.332031 215.4375 L 156.417969 246.980469 L 130.664062 229.542969 L 104.914062 246.980469 L 117.214844 215.4375 L 89 198 "/>
<path style="fill-rule:nonzero;fill:rgb(35%,70%,90%);fill-opacity:1;stroke-width:1;stroke-linecap:butt;stroke-linejoin:miter;stroke:rgb(0%,0%,0%);stroke-opacity:1;stroke-miterlimit:10;" d="M 897 339 L 871.019531 384 L 922.980469 384 L 897 339 "/>
<path style="fill-rule:nonzero;fill:rgb(35%,70%,90%);fill-opacity:1;stroke-width:1;stroke-linecap:butt;stroke-linejoin:miter;stroke:rgb(0%,0%,0%);stroke-opacity:1;stroke-miterlimit:10;" d="M 953 56 L 927.019531 101 L 978.980469 101 L 953 56 "/>
<path style="fill-rule:nonzero;fill:rgb(35%,70%,90%);fill-opacity:1;stroke-width:1;stroke-linecap:butt;stroke-linejoin:miter;stroke:rgb(0%,0%,0%);stroke-opacity:1;stroke-miterlimit:10;" d="M 782 302 L 756.019531 347 L 807.980469 347 L 782 302 "/>
</g>
</svg>
