<?xml version="1.0" encoding="UTF-8"?>
<svg xmlns="http://www.w3.org/2000/svg" xmlns:xlink="http://www.w3.org/1999/xlink" width="1179pt" height="517pt" viewBox="0 0 1179 517" version="1.1">
<g id="surface281">
<rect x="0" y="0" width="1179" height="517" style="fill:rgb(90%,90%,90%);fill-opacity:1;stroke:none;"/>
<path style="fill-rule:nonzero;fill:rgb(100%,51%,0%);fill-opacity:1;stroke-width:1;stroke-linecap:butt;stroke-linejoin:miter;stroke:rgb(0%,0%,0%);stroke-opacity:1;stroke-miterlimit:10;" d="M 233 172 L 262.664062 172 L 274.664062 143.785156 L 286.664062 172 L 316.332031 172 L 292.332031 189.4375 L 300.417969 220.980469 L 274.664062 203.542969 L 248.914062 220.980469 L 261.214844 189.4375 L 233 172 "/>
<path style="fill-rule:nonzero;fill:rgb(53%,27%,7%);fill-opacity:1;stroke-width:1;stroke-linecap:butt;stroke-linejoin:miter;stroke:rgb(0%,0%,0%);stroke-opacity:1;stroke-miterlimit:10;" d="M 165 248 L 194.664062 248 L 206.664062 219.785156 L 218.664062 248 L 248.332031 248 L 224.332031 265.4375 L 232.417969 296.980469 L 206.664062 279.542969 L 180.914062 296.980469 L 193.214844 265.4375 L 165 248 "/>
<path style="fill-rule:nonzero;fill:rgb(100%,51%,0%);fill-opacity:1;stroke-width:1;stroke-linecap:butt;stroke-linejoin:miter;stroke:rgb(0%,0%,0%);stroke-opacity:1;stroke-miterlimit:10;" d="M 87 97 L 116.664062 97 L 128.664062 68.785156 L 140.664062 97 L 170.332031 97 L 146.332031 114.4375 L 154.417969 145.980469 L 128.664062 128.542969 L 102.914062 145.980469 L 115.214844 114.4375 L 87 97 "/>
<path style="fill-rule:nonzero;fill:rgb(53%,27%,7%);fill-opacity:1;stroke-width:1;stroke-linecap:butt;stroke-linejoin:miter;stroke:rgb(0%,0%,0%);stroke-opacity:1;stroke-miterlimit:10;" d="M 409 274 L 438.664062 274 L 450.664062 245.785156 L 462.664062 274 L 492.332031 274 L 468.332031 291.4375 L 476.417969 322.980469 L 450.664062 305.542969 L 424.914062 322.980469 L 437.214844 291.4375 L 409 274 "/>
<path style="fill-rule:nonzero;fill:rgb(100%,51%,0%);fill-opacity:1;stroke-width:1;stroke-linecap:butt;stroke-linejoin:miter;stroke:rgb(0%,0%,0%);stroke-opacity:1;stroke-miterlimit:10;" d="M 206 372 L 235.664062 372 L 247.664062 343.785156 L 259.664062 372 L 289.332031 372 L 265.332031 389.4375 L 273.417969 420.980469 L 247.664062 403.542969 L 221.914062 420.980469 L 234.214844 389.4375 L 206 372 "/>
<path style="fill-rule:nonzero;fill:rgb(100%,51%,0%);fill-opacity:1;stroke-width:1;stroke-linecap:butt;stroke-linejoin:miter;stroke:rgb(0%,0%,0%);stroke-opacity:1;stroke-miterlimit:10;" d="M 94 371 L 123.664062 371 L 135.664062 342.785156 L 147.664062 371 L 177.332031 371 L 153.332031 388.4375 L 161.417969 419.980469 L 135.664062 402.542969 L 109.914062 419.980469 L 122.214844 388.4375 L 94 371 "/>
<path style="fill-rule:nonzero;fill:rgb(100%,51%,0%);fill-opacity:1;stroke-width:1;stroke-linecap:butt;stroke-linejoin:miter;stroke:rgb(0%,0%,0%);stroke-opacity:1;stroke-miterlimit:10;" d="M 428 85 L 457.664062 85 L 469.664062 56.785156 L 481.664062 85 L 511.332031 85 L 487.332031 102.4375 L 495.417969 133.980469 L 469.664062 116.542969 L 443.914062 133.980469 L 456.214844 102.4375 L 428 85 "/>
<path style="fill-rule:nonzero;fill:rgb(100%,51%,0%);fill-opacity:1;stroke-width:1;stroke-linecap:butt;stroke-linejoin:miter;stroke:rgb(0%,0%,0%);stroke-opacity:1;stroke-miterlimit:10;" d="M 377 181 L 406.664062 181 L 418.664062 152.785156 L 430.664062 181 L 460.332031 181 L 436.332031 198.4375 L 444.417969 229.980469 L 418.664062 212.542969 L 392.914062 229.980469 L 405.214844 198.4375 L 377 181 "/>
<path style="fill-rule:nonzero;fill:rgb(53%,27%,7%);fill-opacity:1;stroke-width:1;stroke-linecap:butt;stroke-linejoin:miter;stroke:rgb(0%,0%,0%);stroke-opacity:1;stroke-miterlimit:10;" d="M 897.785156 385.785156 L 897.785156 428.214844 L 940.214844 428.214844 L 940.214844 385.785156 L 897.785156 385.785156 "/>
<path style="fill-rule:nonzero;fill:rgb(100%,51%,0%);fill-opacity:1;stroke-width:1;stroke-linecap:butt;stroke-linejoin:miter;stroke:rgb(0%,0%,0%);stroke-opacity:1;stroke-miterlimit:10;" d="M 983.785156 137.785156 L 983.785156 180.214844 L 1026.214844 180.214844 L 1026.214844 137.785156 L 983.785156 137.785156 "/>
<path style="fill-rule:nonzero;fill:rgb(53%,27%,7%);fill-opacity:1;stroke-width:1;stroke-linecap:butt;stroke-linejoin:miter;stroke:rgb(0%,0%,0%);stroke-opacity:1;stroke-miterlimit:10;" d="M 678.785156 365.785156 L 678.785156 408.214844 L 721.214844 408.214844 L 721.214844 365.785156 L 678.785156 365.785156 "/>
<path style="fill-rule:nonzero;fill:rgb(100%,51%,0%);fill-opacity:1;stroke-width:1;stroke-linecap:butt;stroke-linejoin:miter;stroke:rgb(0%,0%,0%);stroke-opacity:1;stroke-miterlimit:10;" d="M 786.785156 186.785156 L 786.785156 229.214844 L 829.214844 229.214844 L 829.214844 186.785156 L 786.785156 186.785156 "/>
<path style="fill-rule:nonzero;fill:rgb(53%,27%,7%);fill-opacity:1;stroke-width:1;stroke-linecap:butt;stroke-linejoin:miter;stroke:rgb(0%,0%,0%);stroke-opacity:1;stroke-miterlimit:10;" d="M 675.785156 158.785156 L 675.785156 201.214844 L 718.214844 201.214844 L 718.214844 158.785156 L 675.785156 158.785156 "/>
<path style="fill-rule:nonzero;fill:rgb(53%,27%,7%);fill-opacity:1;stroke-width:1;stroke-linecap:butt;stroke-linejoin:miter;stroke:rgb(0%,0%,0%);stroke-opacity:1;stroke-miterlimit:10;" d="M 904.785156 228.785156 L 904.785156 271.214844 L 947.214844 271.214844 L 947.214844 228.785156 L 904.785156 228.785156 "/>
<path style="fill-rule:nonzero;fill:rgb(53%,27%,7%);fill-opacity:1;stroke-width:1;stroke-linecap:butt;stroke-linejoin:miter;stroke:rgb(0%,0%,0%);stroke-opacity:1;stroke-miterlimit:10;" d="M 795.785156 340.785156 L 795.785156 383.214844 L 838.214844 383.214844 L 838.214844 340.785156 L 795.785156 340.785156 "/>
</g>
</svg>
