<?xml version="1.0" encoding="UTF-8"?>
<svg xmlns="http://www.w3.org/2000/svg" xmlns:xlink="http://www.w3.org/1999/xlink" width="1179pt" height="517pt" viewBox="0 0 1179 517" version="1.1">
<g id="surface721">
<rect x="0" y="0" width="1179" height="517" style="fill:rgb(90%,90%,90%);fill-opacity:1;stroke:none;"/>
<path style="fill-rule:nonzero;fill:rgb(53%,27%,7%);fill-opacity:1;stroke-width:1;stroke-linecap:butt;stroke-linejoin:miter;stroke:rgb(0%,0%,0%);stroke-opacity:1;stroke-miterlimit:10;" d="M 197 67.601562 C 197 53.199219 173 53.199219 173 67.601562 C 173 82 197 84.398438 197 96.398438 C 197 84.398438 221 82 221 67.601562 C 221 53.199219 197 53.199219 197 67.601562 "/>
<path style="fill-rule:nonzero;fill:rgb(53%,27%,7%);fill-opacity:1;stroke-width:1;stroke-linecap:butt;stroke-linejoin:miter;stroke:rgb(0%,0%,0%);stroke-opacity:1;stroke-miterlimit:10;" d="M 1007 163.601562 C 1007 149.199219 983 149.199219 983 163.601562 C 983 178 1007 180.398438 1007 192.398438 C 1007 180.398438 1031 178 1031 163.601562 C 1031 149.199219 1007 149.199219 1007 163.601562 "/>
<path style="fill-rule:nonzero;fill:rgb(53%,27%,7%);fill-opacity:1;stroke-width:1;stroke-linecap:butt;stroke-linejoin:miter;stroke:rgb(0%,0%,0%);stroke-opacity:1;stroke-miterlimit:10;" d="M 307 166.601562 C 307 152.199219 283 152.199219 283 166.601562 C 283 181 307 183.398438 307 195.398438 C 307 183.398438 331 181 331 166.601562 C 331 152.199219 307 152.199219 307 166.601562 "/>
<path style="fill-rule:nonzero;fill:rgb(53%,27%,7%);fill-opacity:1;stroke-width:1;stroke-linecap:butt;stroke-linejoin:miter;stroke:rgb(0%,0%,0%);stroke-opacity:1;stroke-miterlimit:10;" d="M 537 377.601562 C 537 363.199219 513 363.199219 513 377.601562 C 513 392 537 394.398438 537 406.398438 C 537 394.398438 561 392 561 377.601562 C 561 363.199219 537 363.199219 537 377.601562 "/>
<path style="fill-rule:nonzero;fill:rgb(53%,27%,7%);fill-opacity:1;stroke-width:1;stroke-linecap:butt;stroke-linejoin:miter;stroke:rgb(0%,0%,0%);stroke-opacity:1;stroke-miterlimit:10;" d="M 842 368.601562 C 842 354.199219 818 354.199219 818 368.601562 C 818 383 842 385.398438 842 397.398438 C 842 385.398438 866 383 866 368.601562 C 866 354.199219 842 354.199219 842 368.601562 "/>
<path style="fill-rule:nonzero;fill:rgb(100%,51%,0%);fill-opacity:1;stroke-width:1;stroke-linecap:butt;stroke-linejoin:miter;stroke:rgb(0%,0%,0%);stroke-opacity:1;stroke-miterlimit:10;" d="M 691.214844 283 C 691.214844 294.714844 681.714844 304.214844 670 304.214844 C 658.285156 304.214844 648.785156 294.714844 648.785156 283 C 648.785156 271.285156 658.285156 261.785156 670 261.785156 C 681.714844 261.785156 691.214844 271.285156 691.214844 283 "/>
<path style="fill-rule:nonzero;fill:rgb(100%,51%,0%);fill-opacity:1;stroke-width:1;stroke-linecap:butt;stroke-linejoin:miter;stroke:rgb(0%,0%,0%);stroke-opacity:1;stroke-miterlimit:10;" d="M 470.214844 305 C 470.214844 316.714844 460.714844 326.214844 449 326.214844 C 437.285156 326.214844 427.785156 316.714844 427.785156 305 C 427.785156 293.285156 437.285156 283.785156 449 283.785156 C 460.714844 283.785156 470.214844 293.285156 470.214844 305 "/>
<path style="fill-rule:nonzero;fill:rgb(100%,51%,0%);fill-opacity:1;stroke-width:1;stroke-linecap:butt;stroke-linejoin:miter;stroke:rgb(0%,0%,0%);stroke-opacity:1;stroke-miterlimit:10;" d="M 938.214844 93 C 938.214844 104.714844 928.714844 114.214844 917 114.214844 C 905.285156 114.214844 895.785156 104.714844 895.785156 93 C 895.785156 81.285156 905.285156 71.785156 917 71.785156 C 928.714844 71.785156 938.214844 81.285156 938.214844 93 "/>
<path style="fill-rule:nonzero;fill:rgb(100%,51%,0%);fill-opacity:1;stroke-width:1;stroke-linecap:butt;stroke-linejoin:miter;stroke:rgb(0%,0%,0%);stroke-opacity:1;stroke-miterlimit:10;" d="M 612.214844 177 C 612.214844 188.714844 602.714844 198.214844 591 198.214844 C 579.285156 198.214844 569.785156 188.714844 569.785156 177 C 569.785156 165.285156 579.285156 155.785156 591 155.785156 C 602.714844 155.785156 612.214844 165.285156 612.214844 177 "/>
<path style="fill-rule:nonzero;fill:rgb(100%,51%,0%);fill-opacity:1;stroke-width:1;stroke-linecap:butt;stroke-linejoin:miter;stroke:rgb(0%,0%,0%);stroke-opacity:1;stroke-miterlimit:10;" d="M 145.214844 356 C 145.214844 367.714844 135.714844 377.214844 124 377.214844 C 112.285156 377.214844 102.785156 367.714844 102.785156 356 C 102.785156 344.285156 112.285156 334.785156 124 334.785156 C 135.714844 334.785156 145.214844 344.285156 145.214844 356 "/>
</g>
</svg>
