<?xml version="1.0" encoding="UTF-8"?>
<svg xmlns="http://www.w3.org/2000/svg" xmlns:xlink="http://www.w3.org/1999/xlink" width="1179pt" height="517pt" viewBox="0 0 1179 517" version="1.1">
<g id="surface366">
<rect x="0" y="0" width="1179" height="517" style="fill:rgb(90%,90%,90%);fill-opacity:1;stroke:none;"/>
<path style="fill-rule:nonzero;fill:rgb(35%,70%,90%);fill-opacity:1;stroke-width:1;stroke-linecap:butt;stroke-linejoin:miter;stroke:rgb(0%,0%,0%);stroke-opacity:1;stroke-miterlimit:10;" d="M 706 402 L 735.664062 402 L 747.664062 373.785156 L 759.664062 402 L 789.332031 402 L 765.332031 419.4375 L 773.417969 450.980469 L 747.664062 433.542969 L 721.914062 450.980469 L 734.214844 419.4375 L 706 402 "/>
<path style="fill-rule:nonzero;fill:rgb(35%,70%,90%);fill-opacity:1;stroke-width:1;stroke-linecap:butt;stroke-linejoin:miter;stroke:rgb(0%,0%,0%);stroke-opacity:1;stroke-miterlimit:10;" d="M 1032 154 L 1061.664062 154 L 1073.664062 125.785156 L 1085.664062 154 L 1115.332031 154 L 1091.332031 171.4375 L 1099.417969 202.980469 L 1073.664062 185.542969 L 1047.914062 202.980469 L 1060.214844 171.4375 L 1032 154 "/>
<path style="fill-rule:nonzero;fill:rgb(35%,70%,90%);fill-opacity:1;stroke-width:1;stroke-linecap:butt;stroke-linejoin:miter;stroke:rgb(0%,0%,0%);stroke-opacity:1;stroke-miterlimit:10;" d="M 614 216 L 643.664062 216 L 655.664062 187.785156 L 667.664062 216 L 697.332031 216 L 673.332031 233.4375 L 681.417969 264.980469 L 655.664062 247.542969 L 629.914062 264.980469 L 642.214844 233.4375 L 614 216 "/>
<path style="fill-rule:nonzero;fill:rgb(35%,70%,90%);fill-opacity:1;stroke-width:1;stroke-linecap:butt;stroke-linejoin:miter;stroke:rgb(0%,0%,0%);stroke-opacity:1;stroke-miterlimit:10;" d="M 356 421 L 385.664062 421 L 397.664062 392.785156 L 409.664062 421 L 439.332031 421 L 415.332031 438.4375 L 423.417969 469.980469 L 397.664062 452.542969 L 371.914062 469.980469 L 384.214844 438.4375 L 356 421 "/>
<path style="fill-rule:nonzero;fill:rgb(35%,70%,90%);fill-opacity:1;stroke-width:1;stroke-linecap:butt;stroke-linejoin:miter;stroke:rgb(0%,0%,0%);stroke-opacity:1;stroke-miterlimit:10;" d="M 848 160 L 877.664062 160 L 889.664062 131.785156 L 901.664062 160 L 931.332031 160 L 907.332031 177.4375 L 915.417969 208.980469 L 889.664062 191.542969 L 863.914062 208.980469 L 876.214844 177.4375 L 848 160 "/>
<path style="fill-rule:nonzero;fill:rgb(100%,51%,0%);fill-opacity:1;stroke-width:1;stroke-linecap:butt;stroke-linejoin:miter;stroke:rgb(0%,0%,0%);stroke-opacity:1;stroke-miterlimit:10;" d="M 249 248 L 223.019531 293 L 274.980469 293 L 249 248 "/>
<path style="fill-rule:nonzero;fill:rgb(100%,51%,0%);fill-opacity:1;stroke-width:1;stroke-linecap:butt;stroke-linejoin:miter;stroke:rgb(0%,0%,0%);stroke-opacity:1;stroke-miterlimit:10;" d="M 466 269 L 440.019531 314 L 491.980469 314 L 466 269 "/>
<path style="fill-rule:nonzero;fill:rgb(100%,51%,0%);fill-opacity:1;stroke-width:1;stroke-linecap:butt;stroke-linejoin:miter;stroke:rgb(0%,0%,0%);stroke-opacity:1;stroke-miterlimit:10;" d="M 500 397 L 474.019531 442 L 525.980469 442 L 500 397 "/>
<path style="fill-rule:nonzero;fill:rgb(100%,51%,0%);fill-opacity:1;stroke-width:1;stroke-linecap:butt;stroke-linejoin:miter;stroke:rgb(0%,0%,0%);stroke-opacity:1;stroke-miterlimit:10;" d="M 417 152 L 391.019531 197 L 442.980469 197 L 417 152 "/>
<path style="fill-rule:nonzero;fill:rgb(100%,51%,0%);fill-opacity:1;stroke-width:1;stroke-linecap:butt;stroke-linejoin:miter;stroke:rgb(0%,0%,0%);stroke-opacity:1;stroke-miterlimit:10;" d="M 895 251 L 869.019531 296 L 920.980469 296 L 895 251 "/>
</g>
</svg>
