<?xml version="1.0" encoding="UTF-8"?>
<svg xmlns="http://www.w3.org/2000/svg" xmlns:xlink="http://www.w3.org/1999/xlink" width="1179pt" height="517pt" viewBox="0 0 1179 517" version="1.1">
<g id="surface736">
<rect x="0" y="0" width="1179" height="517" style="fill:rgb(90%,90%,90%);fill-opacity:1;stroke:none;"/>
<path style="fill-rule:nonzero;fill:rgb(53%,27%,7%);fill-opacity:1;stroke-width:1;stroke-linecap:butt;stroke-linejoin:miter;stroke:rgb(0%,0%,0%);stroke-opacity:1;stroke-miterlimit:10;" d="M 511 351 L 540.664062 351 L 552.664062 322.785156 L 564.664062 351 L 594.332031 351 L 570.332031 368.4375 L 578.417969 399.980469 L 552.664062 382.542969 L 526.914062 399.980469 L 539.214844 368.4375 L 511 351 "/>
<path style="fill-rule:nonzero;fill:rgb(53%,27%,7%);fill-opacity:1;stroke-width:1;stroke-linecap:butt;stroke-linejoin:miter;stroke:rgb(0%,0%,0%);stroke-opacity:1;stroke-miterlimit:10;" d="M 324 253 L 353.664062 253 L 365.664062 224.785156 L 377.664062 253 L 407.332031 253 L 383.332031 270.4375 L 391.417969 301.980469 L 365.664062 284.542969 L 339.914062 301.980469 L 352.214844 270.4375 L 324 253 "/>
<path style="fill-rule:nonzero;fill:rgb(53%,27%,7%);fill-opacity:1;stroke-width:1;stroke-linecap:butt;stroke-linejoin:miter;stroke:rgb(0%,0%,0%);stroke-opacity:1;stroke-miterlimit:10;" d="M 971 255 L 1000.664062 255 L 1012.664062 226.785156 L 1024.664062 255 L 1054.332031 255 L 1030.332031 272.4375 L 1038.417969 303.980469 L 1012.664062 286.542969 L 986.914062 303.980469 L 999.214844 272.4375 L 971 255 "/>
<path style="fill-rule:nonzero;fill:rgb(53%,27%,7%);fill-opacity:1;stroke-width:1;stroke-linecap:butt;stroke-linejoin:miter;stroke:rgb(0%,0%,0%);stroke-opacity:1;stroke-miterlimit:10;" d="M 1008 402 L 1037.664062 402 L 1049.664062 373.785156 L 1061.664062 402 L 1091.332031 402 L 1067.332031 419.4375 L 1075.417969 450.980469 L 1049.664062 433.542969 L 1023.914062 450.980469 L 1036.214844 419.4375 L 1008 402 "/>
<path style="fill-rule:nonzero;fill:rgb(53%,27%,7%);fill-opacity:1;stroke-width:1;stroke-linecap:butt;stroke-linejoin:miter;stroke:rgb(0%,0%,0%);stroke-opacity:1;stroke-miterlimit:10;" d="M 689 376 L 718.664062 376 L 730.664062 347.785156 L 742.664062 376 L 772.332031 376 L 748.332031 393.4375 L 756.417969 424.980469 L 730.664062 407.542969 L 704.914062 424.980469 L 717.214844 393.4375 L 689 376 "/>
<path style="fill-rule:nonzero;fill:rgb(55%,51%,53%);fill-opacity:1;stroke-width:1;stroke-linecap:butt;stroke-linejoin:miter;stroke:rgb(0%,0%,0%);stroke-opacity:1;stroke-miterlimit:10;" d="M 588 218 L 617.664062 218 L 629.664062 189.785156 L 641.664062 218 L 671.332031 218 L 647.332031 235.4375 L 655.417969 266.980469 L 629.664062 249.542969 L 603.914062 266.980469 L 616.214844 235.4375 L 588 218 "/>
<path style="fill-rule:nonzero;fill:rgb(55%,51%,53%);fill-opacity:1;stroke-width:1;stroke-linecap:butt;stroke-linejoin:miter;stroke:rgb(0%,0%,0%);stroke-opacity:1;stroke-miterlimit:10;" d="M 745 100 L 774.664062 100 L 786.664062 71.785156 L 798.664062 100 L 828.332031 100 L 804.332031 117.4375 L 812.417969 148.980469 L 786.664062 131.542969 L 760.914062 148.980469 L 773.214844 117.4375 L 745 100 "/>
<path style="fill-rule:nonzero;fill:rgb(55%,51%,53%);fill-opacity:1;stroke-width:1;stroke-linecap:butt;stroke-linejoin:miter;stroke:rgb(0%,0%,0%);stroke-opacity:1;stroke-miterlimit:10;" d="M 466 228 L 495.664062 228 L 507.664062 199.785156 L 519.664062 228 L 549.332031 228 L 525.332031 245.4375 L 533.417969 276.980469 L 507.664062 259.542969 L 481.914062 276.980469 L 494.214844 245.4375 L 466 228 "/>
</g>
</svg>
