<?xml version="1.0" encoding="UTF-8"?>
<svg xmlns="http://www.w3.org/2000/svg" xmlns:xlink="http://www.w3.org/1999/xlink" width="1179pt" height="517pt" viewBox="0 0 1179 517" version="1.1">
<g id="surface811">
<rect x="0" y="0" width="1179" height="517" style="fill:rgb(90%,90%,90%);fill-opacity:1;stroke:none;"/>
<path style="fill-rule:nonzero;fill:rgb(100%,51%,0%);fill-opacity:1;stroke-width:1;stroke-linecap:butt;stroke-linejoin:miter;stroke:rgb(0%,0%,0%);stroke-opacity:1;stroke-miterlimit:10;" d="M 111.214844 128 C 111.214844 139.714844 101.714844 149.214844 90 149.214844 C 78.285156 149.214844 68.785156 139.714844 68.785156 128 C 68.785156 116.285156 78.285156 106.785156 90 106.785156 C 101.714844 106.785156 111.214844 116.285156 111.214844 128 "/>
<path style="fill-rule:nonzero;fill:rgb(53%,27%,7%);fill-opacity:1;stroke-width:1;stroke-linecap:butt;stroke-linejoin:miter;stroke:rgb(0%,0%,0%);stroke-opacity:1;stroke-miterlimit:10;" d="M 244 202.601562 C 244 188.199219 220 188.199219 220 202.601562 C 220 217 244 219.398438 244 231.398438 C 244 219.398438 268 217 268 202.601562 C 268 188.199219 244 188.199219 244 202.601562 "/>
<path style="fill-rule:nonzero;fill:rgb(100%,51%,0%);fill-opacity:1;stroke-width:1;stroke-linecap:butt;stroke-linejoin:miter;stroke:rgb(0%,0%,0%);stroke-opacity:1;stroke-miterlimit:10;" d="M 166.214844 219 C 166.214844 230.714844 156.714844 240.214844 145 240.214844 C 133.285156 240.214844 123.785156 230.714844 123.785156 219 C 123.785156 207.285156 133.285156 197.785156 145 197.785156 C 156.714844 197.785156 166.214844 207.285156 166.214844 219 "/>
<path style="fill-rule:nonzero;fill:rgb(53%,27%,7%);fill-opacity:1;stroke-width:1;stroke-linecap:butt;stroke-linejoin:miter;stroke:rgb(0%,0%,0%);stroke-opacity:1;stroke-miterlimit:10;" d="M 392 89.601562 C 392 75.199219 368 75.199219 368 89.601562 C 368 104 392 106.398438 392 118.398438 C 392 106.398438 416 104 416 89.601562 C 416 75.199219 392 75.199219 392 89.601562 "/>
<path style="fill-rule:nonzero;fill:rgb(53%,27%,7%);fill-opacity:1;stroke-width:1;stroke-linecap:butt;stroke-linejoin:miter;stroke:rgb(0%,0%,0%);stroke-opacity:1;stroke-miterlimit:10;" d="M 257 111.601562 C 257 97.199219 233 97.199219 233 111.601562 C 233 126 257 128.398438 257 140.398438 C 257 128.398438 281 126 281 111.601562 C 281 97.199219 257 97.199219 257 111.601562 "/>
<path style="fill-rule:nonzero;fill:rgb(100%,51%,0%);fill-opacity:1;stroke-width:1;stroke-linecap:butt;stroke-linejoin:miter;stroke:rgb(0%,0%,0%);stroke-opacity:1;stroke-miterlimit:10;" d="M 1065.214844 80 C 1065.214844 91.714844 1055.714844 101.214844 1044 101.214844 C 1032.285156 101.214844 1022.785156 91.714844 1022.785156 80 C 1022.785156 68.285156 1032.285156 58.785156 1044 58.785156 C 1055.714844 58.785156 1065.214844 68.285156 1065.214844 80 "/>
<path style="fill-rule:nonzero;fill:rgb(53%,27%,7%);fill-opacity:1;stroke-width:1;stroke-linecap:butt;stroke-linejoin:miter;stroke:rgb(0%,0%,0%);stroke-opacity:1;stroke-miterlimit:10;" d="M 779 124.601562 C 779 110.199219 755 110.199219 755 124.601562 C 755 139 779 141.398438 779 153.398438 C 779 141.398438 803 139 803 124.601562 C 803 110.199219 779 110.199219 779 124.601562 "/>
<path style="fill-rule:nonzero;fill:rgb(100%,51%,0%);fill-opacity:1;stroke-width:1;stroke-linecap:butt;stroke-linejoin:miter;stroke:rgb(0%,0%,0%);stroke-opacity:1;stroke-miterlimit:10;" d="M 760.214844 371 C 760.214844 382.714844 750.714844 392.214844 739 392.214844 C 727.285156 392.214844 717.785156 382.714844 717.785156 371 C 717.785156 359.285156 727.285156 349.785156 739 349.785156 C 750.714844 349.785156 760.214844 359.285156 760.214844 371 "/>
<path style="fill-rule:nonzero;fill:rgb(53%,27%,7%);fill-opacity:1;stroke-width:1;stroke-linecap:butt;stroke-linejoin:miter;stroke:rgb(0%,0%,0%);stroke-opacity:1;stroke-miterlimit:10;" d="M 846 281.601562 C 846 267.199219 822 267.199219 822 281.601562 C 822 296 846 298.398438 846 310.398438 C 846 298.398438 870 296 870 281.601562 C 870 267.199219 846 267.199219 846 281.601562 "/>
<path style="fill-rule:nonzero;fill:rgb(100%,51%,0%);fill-opacity:1;stroke-width:1;stroke-linecap:butt;stroke-linejoin:miter;stroke:rgb(0%,0%,0%);stroke-opacity:1;stroke-miterlimit:10;" d="M 729.214844 277 C 729.214844 288.714844 719.714844 298.214844 708 298.214844 C 696.285156 298.214844 686.785156 288.714844 686.785156 277 C 686.785156 265.285156 696.285156 255.785156 708 255.785156 C 719.714844 255.785156 729.214844 265.285156 729.214844 277 "/>
<path style="fill-rule:nonzero;fill:rgb(100%,51%,0%);fill-opacity:1;stroke-width:1;stroke-linecap:butt;stroke-linejoin:miter;stroke:rgb(0%,0%,0%);stroke-opacity:1;stroke-miterlimit:10;" d="M 1049.214844 324 C 1049.214844 335.714844 1039.714844 345.214844 1028 345.214844 C 1016.285156 345.214844 1006.785156 335.714844 1006.785156 324 C 1006.785156 312.285156 1016.285156 302.785156 1028 302.785156 C 1039.714844 302.785156 1049.214844 312.285156 1049.214844 324 "/>
<path style="fill-rule:nonzero;fill:rgb(53%,27%,7%);fill-opacity:1;stroke-width:1;stroke-linecap:butt;stroke-linejoin:miter;stroke:rgb(0%,0%,0%);stroke-opacity:1;stroke-miterlimit:10;" d="M 939 369.601562 C 939 355.199219 915 355.199219 915 369.601562 C 915 384 939 386.398438 939 398.398438 C 939 386.398438 963 384 963 369.601562 C 963 355.199219 939 355.199219 939 369.601562 "/>
<path style="fill-rule:nonzero;fill:rgb(100%,51%,0%);fill-opacity:1;stroke-width:1;stroke-linecap:butt;stroke-linejoin:miter;stroke:rgb(0%,0%,0%);stroke-opacity:1;stroke-miterlimit:10;" d="M 903.214844 120 C 903.214844 131.714844 893.714844 141.214844 882 141.214844 C 870.285156 141.214844 860.785156 131.714844 860.785156 120 C 860.785156 108.285156 870.285156 98.785156 882 98.785156 C 893.714844 98.785156 903.214844 108.285156 903.214844 120 "/>
</g>
</svg>
