<?xml version="1.0" encoding="UTF-8"?>
<svg xmlns="http://www.w3.org/2000/svg" xmlns:xlink="http://www.w3.org/1999/xlink" width="1179pt" height="517pt" viewBox="0 0 1179 517" version="1.1">
<g id="surface466">
<rect x="0" y="0" width="1179" height="517" style="fill:rgb(90%,90%,90%);fill-opacity:1;stroke:none;"/>
<path style="fill-rule:nonzero;fill:rgb(100%,51%,0%);fill-opacity:1;stroke-width:1;stroke-linecap:butt;stroke-linejoin:miter;stroke:rgb(0%,0%,0%);stroke-opacity:1;stroke-miterlimit:10;" d="M 329.214844 86 C 329.214844 97.714844 319.714844 107.214844 308 107.214844 C 296.285156 107.214844 286.785156 97.714844 286.785156 86 C 286.785156 74.285156 296.285156 64.785156 308 64.785156 C 319.714844 64.785156 329.214844 74.285156 329.214844 86 "/>
<path style="fill-rule:nonzero;fill:rgb(100%,51%,0%);fill-opacity:1;stroke-width:1;stroke-linecap:butt;stroke-linejoin:miter;stroke:rgb(0%,0%,0%);stroke-opacity:1;stroke-miterlimit:10;" d="M 376.214844 263 C 376.214844 274.714844 366.714844 284.214844 355 284.214844 C 343.285156 284.214844 333.785156 274.714844 333.785156 263 C 333.785156 251.285156 343.285156 241.785156 355 241.785156 C 366.714844 241.785156 376.214844 251.285156 376.214844 263 "/>
<path style="fill-rule:nonzero;fill:rgb(100%,51%,0%);fill-opacity:1;stroke-width:1;stroke-linecap:butt;stroke-linejoin:miter;stroke:rgb(0%,0%,0%);stroke-opacity:1;stroke-miterlimit:10;" d="M 231 226 L 205.019531 271 L 256.980469 271 L 231 226 "/>
<path style="fill-rule:nonzero;fill:rgb(100%,51%,0%);fill-opacity:1;stroke-width:1;stroke-linecap:butt;stroke-linejoin:miter;stroke:rgb(0%,0%,0%);stroke-opacity:1;stroke-miterlimit:10;" d="M 341 384 L 315.019531 429 L 366.980469 429 L 341 384 "/>
<path style="fill-rule:nonzero;fill:rgb(100%,51%,0%);fill-opacity:1;stroke-width:1;stroke-linecap:butt;stroke-linejoin:miter;stroke:rgb(0%,0%,0%);stroke-opacity:1;stroke-miterlimit:10;" d="M 439.214844 341 C 439.214844 352.714844 429.714844 362.214844 418 362.214844 C 406.285156 362.214844 396.785156 352.714844 396.785156 341 C 396.785156 329.285156 406.285156 319.785156 418 319.785156 C 429.714844 319.785156 439.214844 329.285156 439.214844 341 "/>
<path style="fill-rule:nonzero;fill:rgb(53%,27%,7%);fill-opacity:1;stroke-width:1;stroke-linecap:butt;stroke-linejoin:miter;stroke:rgb(0%,0%,0%);stroke-opacity:1;stroke-miterlimit:10;" d="M 725 375 L 699.019531 420 L 750.980469 420 L 725 375 "/>
<path style="fill-rule:nonzero;fill:rgb(53%,27%,7%);fill-opacity:1;stroke-width:1;stroke-linecap:butt;stroke-linejoin:miter;stroke:rgb(0%,0%,0%);stroke-opacity:1;stroke-miterlimit:10;" d="M 1041 378 L 1015.019531 423 L 1066.980469 423 L 1041 378 "/>
<path style="fill-rule:nonzero;fill:rgb(53%,27%,7%);fill-opacity:1;stroke-width:1;stroke-linecap:butt;stroke-linejoin:miter;stroke:rgb(0%,0%,0%);stroke-opacity:1;stroke-miterlimit:10;" d="M 850.214844 428 C 850.214844 439.714844 840.714844 449.214844 829 449.214844 C 817.285156 449.214844 807.785156 439.714844 807.785156 428 C 807.785156 416.285156 817.285156 406.785156 829 406.785156 C 840.714844 406.785156 850.214844 416.285156 850.214844 428 "/>
<path style="fill-rule:nonzero;fill:rgb(53%,27%,7%);fill-opacity:1;stroke-width:1;stroke-linecap:butt;stroke-linejoin:miter;stroke:rgb(0%,0%,0%);stroke-opacity:1;stroke-miterlimit:10;" d="M 914.214844 126 C 914.214844 137.714844 904.714844 147.214844 893 147.214844 C 881.285156 147.214844 871.785156 137.714844 871.785156 126 C 871.785156 114.285156 881.285156 104.785156 893 104.785156 C 904.714844 104.785156 914.214844 114.285156 914.214844 126 "/>
<path style="fill-rule:nonzero;fill:rgb(53%,27%,7%);fill-opacity:1;stroke-width:1;stroke-linecap:butt;stroke-linejoin:miter;stroke:rgb(0%,0%,0%);stroke-opacity:1;stroke-miterlimit:10;" d="M 966 317 L 940.019531 362 L 991.980469 362 L 966 317 "/>
</g>
</svg>
