<?xml version="1.0" encoding="UTF-8"?>
<svg xmlns="http://www.w3.org/2000/svg" xmlns:xlink="http://www.w3.org/1999/xlink" width="1179pt" height="517pt" viewBox="0 0 1179 517" version="1.1">
<g id="surface1421">
<rect x="0" y="0" width="1179" height="517" style="fill:rgb(90%,90%,90%);fill-opacity:1;stroke:none;"/>
<path style="fill-rule:nonzero;fill:rgb(55%,51%,53%);fill-opacity:1;stroke-width:1;stroke-linecap:butt;stroke-linejoin:miter;stroke:rgb(0%,0%,0%);stroke-opacity:1;stroke-miterlimit:10;" d="M 392.214844 257 C 392.214844 268.714844 382.714844 278.214844 371 278.214844 C 359.285156 278.214844 349.785156 268.714844 349.785156 257 C 349.785156 245.285156 359.285156 235.785156 371 235.785156 C 382.714844 235.785156 392.214844 245.285156 392.214844 257 "/>
<path style="fill-rule:nonzero;fill:rgb(55%,51%,53%);fill-opacity:1;stroke-width:1;stroke-linecap:butt;stroke-linejoin:miter;stroke:rgb(0%,0%,0%);stroke-opacity:1;stroke-miterlimit:10;" d="M 729.214844 280 C 729.214844 291.714844 719.714844 301.214844 708 301.214844 C 696.285156 301.214844 686.785156 291.714844 686.785156 280 C 686.785156 268.285156 696.285156 258.785156 708 258.785156 C 719.714844 258.785156 729.214844 268.285156 729.214844 280 "/>
<path style="fill-rule:nonzero;fill:rgb(55%,51%,53%);fill-opacity:1;stroke-width:1;stroke-linecap:butt;stroke-linejoin:miter;stroke:rgb(0%,0%,0%);stroke-opacity:1;stroke-miterlimit:10;" d="M 221.214844 198 C 221.214844 209.714844 211.714844 219.214844 200 219.214844 C 188.285156 219.214844 178.785156 209.714844 178.785156 198 C 178.785156 186.285156 188.285156 176.785156 200 176.785156 C 211.714844 176.785156 221.214844 186.285156 221.214844 198 "/>
<path style="fill-rule:nonzero;fill:rgb(55%,51%,53%);fill-opacity:1;stroke-width:1;stroke-linecap:butt;stroke-linejoin:miter;stroke:rgb(0%,0%,0%);stroke-opacity:1;stroke-miterlimit:10;" d="M 661.214844 399 C 661.214844 410.714844 651.714844 420.214844 640 420.214844 C 628.285156 420.214844 618.785156 410.714844 618.785156 399 C 618.785156 387.285156 628.285156 377.785156 640 377.785156 C 651.714844 377.785156 661.214844 387.285156 661.214844 399 "/>
<path style="fill-rule:nonzero;fill:rgb(35%,70%,90%);fill-opacity:1;stroke-width:1;stroke-linecap:butt;stroke-linejoin:miter;stroke:rgb(0%,0%,0%);stroke-opacity:1;stroke-miterlimit:10;" d="M 367 104 L 341.019531 149 L 392.980469 149 L 367 104 "/>
<path style="fill-rule:nonzero;fill:rgb(35%,70%,90%);fill-opacity:1;stroke-width:1;stroke-linecap:butt;stroke-linejoin:miter;stroke:rgb(0%,0%,0%);stroke-opacity:1;stroke-miterlimit:10;" d="M 933 308 L 907.019531 353 L 958.980469 353 L 933 308 "/>
<path style="fill-rule:nonzero;fill:rgb(35%,70%,90%);fill-opacity:1;stroke-width:1;stroke-linecap:butt;stroke-linejoin:miter;stroke:rgb(0%,0%,0%);stroke-opacity:1;stroke-miterlimit:10;" d="M 1029 147 L 1003.019531 192 L 1054.980469 192 L 1029 147 "/>
</g>
</svg>
