<?xml version="1.0" encoding="UTF-8"?>
<svg xmlns="http://www.w3.org/2000/svg" xmlns:xlink="http://www.w3.org/1999/xlink" width="1179pt" height="517pt" viewBox="0 0 1179 517" version="1.1">
<g id="surface871">
<rect x="0" y="0" width="1179" height="517" style="fill:rgb(90%,90%,90%);fill-opacity:1;stroke:none;"/>
<path style="fill-rule:nonzero;fill:rgb(53%,27%,7%);fill-opacity:1;stroke-width:1;stroke-linecap:butt;stroke-linejoin:miter;stroke:rgb(0%,0%,0%);stroke-opacity:1;stroke-miterlimit:10;" d="M 514 240 L 543.664062 240 L 555.664062 211.785156 L 567.664062 240 L 597.332031 240 L 573.332031 257.4375 L 581.417969 288.980469 L 555.664062 271.542969 L 529.914062 288.980469 L 542.214844 257.4375 L 514 240 "/>
<path style="fill-rule:nonzero;fill:rgb(53%,27%,7%);fill-opacity:1;stroke-width:1;stroke-linecap:butt;stroke-linejoin:miter;stroke:rgb(0%,0%,0%);stroke-opacity:1;stroke-miterlimit:10;" d="M 306 225 L 335.664062 225 L 347.664062 196.785156 L 359.664062 225 L 389.332031 225 L 365.332031 242.4375 L 373.417969 273.980469 L 347.664062 256.542969 L 321.914062 273.980469 L 334.214844 242.4375 L 306 225 "/>
<path style="fill-rule:nonzero;fill:rgb(53%,27%,7%);fill-opacity:1;stroke-width:1;stroke-linecap:butt;stroke-linejoin:miter;stroke:rgb(0%,0%,0%);stroke-opacity:1;stroke-miterlimit:10;" d="M 235 112 L 264.664062 112 L 276.664062 83.785156 L 288.664062 112 L 318.332031 112 L 294.332031 129.4375 L 302.417969 160.980469 L 276.664062 143.542969 L 250.914062 160.980469 L 263.214844 129.4375 L 235 112 "/>
<path style="fill-rule:nonzero;fill:rgb(53%,27%,7%);fill-opacity:1;stroke-width:1;stroke-linecap:butt;stroke-linejoin:miter;stroke:rgb(0%,0%,0%);stroke-opacity:1;stroke-miterlimit:10;" d="M 107 350 L 136.664062 350 L 148.664062 321.785156 L 160.664062 350 L 190.332031 350 L 166.332031 367.4375 L 174.417969 398.980469 L 148.664062 381.542969 L 122.914062 398.980469 L 135.214844 367.4375 L 107 350 "/>
<path style="fill-rule:nonzero;fill:rgb(53%,27%,7%);fill-opacity:1;stroke-width:1;stroke-linecap:butt;stroke-linejoin:miter;stroke:rgb(0%,0%,0%);stroke-opacity:1;stroke-miterlimit:10;" d="M 709 185 L 738.664062 185 L 750.664062 156.785156 L 762.664062 185 L 792.332031 185 L 768.332031 202.4375 L 776.417969 233.980469 L 750.664062 216.542969 L 724.914062 233.980469 L 737.214844 202.4375 L 709 185 "/>
<path style="fill-rule:nonzero;fill:rgb(55%,51%,53%);fill-opacity:1;stroke-width:1;stroke-linecap:butt;stroke-linejoin:miter;stroke:rgb(0%,0%,0%);stroke-opacity:1;stroke-miterlimit:10;" d="M 896 426 L 925.664062 426 L 937.664062 397.785156 L 949.664062 426 L 979.332031 426 L 955.332031 443.4375 L 963.417969 474.980469 L 937.664062 457.542969 L 911.914062 474.980469 L 924.214844 443.4375 L 896 426 "/>
<path style="fill-rule:nonzero;fill:rgb(55%,51%,53%);fill-opacity:1;stroke-width:1;stroke-linecap:butt;stroke-linejoin:miter;stroke:rgb(0%,0%,0%);stroke-opacity:1;stroke-miterlimit:10;" d="M 343 382 L 372.664062 382 L 384.664062 353.785156 L 396.664062 382 L 426.332031 382 L 402.332031 399.4375 L 410.417969 430.980469 L 384.664062 413.542969 L 358.914062 430.980469 L 371.214844 399.4375 L 343 382 "/>
<path style="fill-rule:nonzero;fill:rgb(55%,51%,53%);fill-opacity:1;stroke-width:1;stroke-linecap:butt;stroke-linejoin:miter;stroke:rgb(0%,0%,0%);stroke-opacity:1;stroke-miterlimit:10;" d="M 609 389 L 638.664062 389 L 650.664062 360.785156 L 662.664062 389 L 692.332031 389 L 668.332031 406.4375 L 676.417969 437.980469 L 650.664062 420.542969 L 624.914062 437.980469 L 637.214844 406.4375 L 609 389 "/>
</g>
</svg>
