<?xml version="1.0" encoding="UTF-8"?>
<svg xmlns="http://www.w3.org/2000/svg" xmlns:xlink="http://www.w3.org/1999/xlink" width="1179pt" height="517pt" viewBox="0 0 1179 517" version="1.1">
<g id="surface731">
<rect x="0" y="0" width="1179" height="517" style="fill:rgb(90%,90%,90%);fill-opacity:1;stroke:none;"/>
<path style="fill-rule:nonzero;fill:rgb(35%,70%,90%);fill-opacity:1;stroke-width:1;stroke-linecap:butt;stroke-linejoin:miter;stroke:rgb(0%,0%,0%);stroke-opacity:1;stroke-miterlimit:10;" d="M 181 205 L 210.664062 205 L 222.664062 176.785156 L 234.664062 205 L 264.332031 205 L 240.332031 222.4375 L 248.417969 253.980469 L 222.664062 236.542969 L 196.914062 253.980469 L 209.214844 222.4375 L 181 205 "/>
<path style="fill-rule:nonzero;fill:rgb(35%,70%,90%);fill-opacity:1;stroke-width:1;stroke-linecap:butt;stroke-linejoin:miter;stroke:rgb(0%,0%,0%);stroke-opacity:1;stroke-miterlimit:10;" d="M 746 323 L 775.664062 323 L 787.664062 294.785156 L 799.664062 323 L 829.332031 323 L 805.332031 340.4375 L 813.417969 371.980469 L 787.664062 354.542969 L 761.914062 371.980469 L 774.214844 340.4375 L 746 323 "/>
<path style="fill-rule:nonzero;fill:rgb(35%,70%,90%);fill-opacity:1;stroke-width:1;stroke-linecap:butt;stroke-linejoin:miter;stroke:rgb(0%,0%,0%);stroke-opacity:1;stroke-miterlimit:10;" d="M 678 200 L 707.664062 200 L 719.664062 171.785156 L 731.664062 200 L 761.332031 200 L 737.332031 217.4375 L 745.417969 248.980469 L 719.664062 231.542969 L 693.914062 248.980469 L 706.214844 217.4375 L 678 200 "/>
<path style="fill-rule:nonzero;fill:rgb(35%,70%,90%);fill-opacity:1;stroke-width:1;stroke-linecap:butt;stroke-linejoin:miter;stroke:rgb(0%,0%,0%);stroke-opacity:1;stroke-miterlimit:10;" d="M 249 410 L 278.664062 410 L 290.664062 381.785156 L 302.664062 410 L 332.332031 410 L 308.332031 427.4375 L 316.417969 458.980469 L 290.664062 441.542969 L 264.914062 458.980469 L 277.214844 427.4375 L 249 410 "/>
<path style="fill-rule:nonzero;fill:rgb(55%,51%,53%);fill-opacity:1;stroke-width:1;stroke-linecap:butt;stroke-linejoin:miter;stroke:rgb(0%,0%,0%);stroke-opacity:1;stroke-miterlimit:10;" d="M 989.214844 258 C 989.214844 269.714844 979.714844 279.214844 968 279.214844 C 956.285156 279.214844 946.785156 269.714844 946.785156 258 C 946.785156 246.285156 956.285156 236.785156 968 236.785156 C 979.714844 236.785156 989.214844 246.285156 989.214844 258 "/>
<path style="fill-rule:nonzero;fill:rgb(55%,51%,53%);fill-opacity:1;stroke-width:1;stroke-linecap:butt;stroke-linejoin:miter;stroke:rgb(0%,0%,0%);stroke-opacity:1;stroke-miterlimit:10;" d="M 545.214844 203 C 545.214844 214.714844 535.714844 224.214844 524 224.214844 C 512.285156 224.214844 502.785156 214.714844 502.785156 203 C 502.785156 191.285156 512.285156 181.785156 524 181.785156 C 535.714844 181.785156 545.214844 191.285156 545.214844 203 "/>
<path style="fill-rule:nonzero;fill:rgb(55%,51%,53%);fill-opacity:1;stroke-width:1;stroke-linecap:butt;stroke-linejoin:miter;stroke:rgb(0%,0%,0%);stroke-opacity:1;stroke-miterlimit:10;" d="M 156.214844 337 C 156.214844 348.714844 146.714844 358.214844 135 358.214844 C 123.285156 358.214844 113.785156 348.714844 113.785156 337 C 113.785156 325.285156 123.285156 315.785156 135 315.785156 C 146.714844 315.785156 156.214844 325.285156 156.214844 337 "/>
<path style="fill-rule:nonzero;fill:rgb(55%,51%,53%);fill-opacity:1;stroke-width:1;stroke-linecap:butt;stroke-linejoin:miter;stroke:rgb(0%,0%,0%);stroke-opacity:1;stroke-miterlimit:10;" d="M 939.214844 392 C 939.214844 403.714844 929.714844 413.214844 918 413.214844 C 906.285156 413.214844 896.785156 403.714844 896.785156 392 C 896.785156 380.285156 906.285156 370.785156 918 370.785156 C 929.714844 370.785156 939.214844 380.285156 939.214844 392 "/>
</g>
</svg>
