<?xml version="1.0" encoding="UTF-8"?>
<svg xmlns="http://www.w3.org/2000/svg" xmlns:xlink="http://www.w3.org/1999/xlink" width="1179pt" height="517pt" viewBox="0 0 1179 517" version="1.1">
<g id="surface826">
<rect x="0" y="0" width="1179" height="517" style="fill:rgb(90%,90%,90%);fill-opacity:1;stroke:none;"/>
<path style="fill-rule:nonzero;fill:rgb(53%,27%,7%);fill-opacity:1;stroke-width:1;stroke-linecap:butt;stroke-linejoin:miter;stroke:rgb(0%,0%,0%);stroke-opacity:1;stroke-miterlimit:10;" d="M 597 318 L 626.664062 318 L 638.664062 289.785156 L 650.664062 318 L 680.332031 318 L 656.332031 335.4375 L 664.417969 366.980469 L 638.664062 349.542969 L 612.914062 366.980469 L 625.214844 335.4375 L 597 318 "/>
<path style="fill-rule:nonzero;fill:rgb(53%,27%,7%);fill-opacity:1;stroke-width:1;stroke-linecap:butt;stroke-linejoin:miter;stroke:rgb(0%,0%,0%);stroke-opacity:1;stroke-miterlimit:10;" d="M 355 187 L 384.664062 187 L 396.664062 158.785156 L 408.664062 187 L 438.332031 187 L 414.332031 204.4375 L 422.417969 235.980469 L 396.664062 218.542969 L 370.914062 235.980469 L 383.214844 204.4375 L 355 187 "/>
<path style="fill-rule:nonzero;fill:rgb(53%,27%,7%);fill-opacity:1;stroke-width:1;stroke-linecap:butt;stroke-linejoin:miter;stroke:rgb(0%,0%,0%);stroke-opacity:1;stroke-miterlimit:10;" d="M 89 258 L 118.664062 258 L 130.664062 229.785156 L 142.664062 258 L 172.332031 258 L 148.332031 275.4375 L 156.417969 306.980469 L 130.664062 289.542969 L 104.914062 306.980469 L 117.214844 275.4375 L 89 258 "/>
<path style="fill-rule:nonzero;fill:rgb(53%,27%,7%);fill-opacity:1;stroke-width:1;stroke-linecap:butt;stroke-linejoin:miter;stroke:rgb(0%,0%,0%);stroke-opacity:1;stroke-miterlimit:10;" d="M 155 103 L 184.664062 103 L 196.664062 74.785156 L 208.664062 103 L 238.332031 103 L 214.332031 120.4375 L 222.417969 151.980469 L 196.664062 134.542969 L 170.914062 151.980469 L 183.214844 120.4375 L 155 103 "/>
<path style="fill-rule:nonzero;fill:rgb(53%,27%,7%);fill-opacity:1;stroke-width:1;stroke-linecap:butt;stroke-linejoin:miter;stroke:rgb(0%,0%,0%);stroke-opacity:1;stroke-miterlimit:10;" d="M 870 377 L 899.664062 377 L 911.664062 348.785156 L 923.664062 377 L 953.332031 377 L 929.332031 394.4375 L 937.417969 425.980469 L 911.664062 408.542969 L 885.914062 425.980469 L 898.214844 394.4375 L 870 377 "/>
<path style="fill-rule:nonzero;fill:rgb(55%,51%,53%);fill-opacity:1;stroke-width:1;stroke-linecap:butt;stroke-linejoin:miter;stroke:rgb(0%,0%,0%);stroke-opacity:1;stroke-miterlimit:10;" d="M 547 110 L 576.664062 110 L 588.664062 81.785156 L 600.664062 110 L 630.332031 110 L 606.332031 127.4375 L 614.417969 158.980469 L 588.664062 141.542969 L 562.914062 158.980469 L 575.214844 127.4375 L 547 110 "/>
<path style="fill-rule:nonzero;fill:rgb(55%,51%,53%);fill-opacity:1;stroke-width:1;stroke-linecap:butt;stroke-linejoin:miter;stroke:rgb(0%,0%,0%);stroke-opacity:1;stroke-miterlimit:10;" d="M 740 196 L 769.664062 196 L 781.664062 167.785156 L 793.664062 196 L 823.332031 196 L 799.332031 213.4375 L 807.417969 244.980469 L 781.664062 227.542969 L 755.914062 244.980469 L 768.214844 213.4375 L 740 196 "/>
<path style="fill-rule:nonzero;fill:rgb(55%,51%,53%);fill-opacity:1;stroke-width:1;stroke-linecap:butt;stroke-linejoin:miter;stroke:rgb(0%,0%,0%);stroke-opacity:1;stroke-miterlimit:10;" d="M 928 157 L 957.664062 157 L 969.664062 128.785156 L 981.664062 157 L 1011.332031 157 L 987.332031 174.4375 L 995.417969 205.980469 L 969.664062 188.542969 L 943.914062 205.980469 L 956.214844 174.4375 L 928 157 "/>
</g>
</svg>
