<?xml version="1.0" encoding="UTF-8"?>
<svg xmlns="http://www.w3.org/2000/svg" xmlns:xlink="http://www.w3.org/1999/xlink" width="1179pt" height="517pt" viewBox="0 0 1179 517" version="1.1">
<g id="surface436">
<rect x="0" y="0" width="1179" height="517" style="fill:rgb(90%,90%,90%);fill-opacity:1;stroke:none;"/>
<path style="fill-rule:nonzero;fill:rgb(35%,70%,90%);fill-opacity:1;stroke-width:1;stroke-linecap:butt;stroke-linejoin:miter;stroke:rgb(0%,0%,0%);stroke-opacity:1;stroke-miterlimit:10;" d="M 301.214844 267 C 301.214844 278.714844 291.714844 288.214844 280 288.214844 C 268.285156 288.214844 258.785156 278.714844 258.785156 267 C 258.785156 255.285156 268.285156 245.785156 280 245.785156 C 291.714844 245.785156 301.214844 255.285156 301.214844 267 "/>
<path style="fill-rule:nonzero;fill:rgb(35%,70%,90%);fill-opacity:1;stroke-width:1;stroke-linecap:butt;stroke-linejoin:miter;stroke:rgb(0%,0%,0%);stroke-opacity:1;stroke-miterlimit:10;" d="M 220.214844 380 C 220.214844 391.714844 210.714844 401.214844 199 401.214844 C 187.285156 401.214844 177.785156 391.714844 177.785156 380 C 177.785156 368.285156 187.285156 358.785156 199 358.785156 C 210.714844 358.785156 220.214844 368.285156 220.214844 380 "/>
<path style="fill-rule:nonzero;fill:rgb(35%,70%,90%);fill-opacity:1;stroke-width:1;stroke-linecap:butt;stroke-linejoin:miter;stroke:rgb(0%,0%,0%);stroke-opacity:1;stroke-miterlimit:10;" d="M 374.214844 134 C 374.214844 145.714844 364.714844 155.214844 353 155.214844 C 341.285156 155.214844 331.785156 145.714844 331.785156 134 C 331.785156 122.285156 341.285156 112.785156 353 112.785156 C 364.714844 112.785156 374.214844 122.285156 374.214844 134 "/>
<path style="fill-rule:nonzero;fill:rgb(35%,70%,90%);fill-opacity:1;stroke-width:1;stroke-linecap:butt;stroke-linejoin:miter;stroke:rgb(0%,0%,0%);stroke-opacity:1;stroke-miterlimit:10;" d="M 378 370 L 352.019531 415 L 403.980469 415 L 378 370 "/>
<path style="fill-rule:nonzero;fill:rgb(35%,70%,90%);fill-opacity:1;stroke-width:1;stroke-linecap:butt;stroke-linejoin:miter;stroke:rgb(0%,0%,0%);stroke-opacity:1;stroke-miterlimit:10;" d="M 105.214844 115 C 105.214844 126.714844 95.714844 136.214844 84 136.214844 C 72.285156 136.214844 62.785156 126.714844 62.785156 115 C 62.785156 103.285156 72.285156 93.785156 84 93.785156 C 95.714844 93.785156 105.214844 103.285156 105.214844 115 "/>
<path style="fill-rule:nonzero;fill:rgb(35%,70%,90%);fill-opacity:1;stroke-width:1;stroke-linecap:butt;stroke-linejoin:miter;stroke:rgb(0%,0%,0%);stroke-opacity:1;stroke-miterlimit:10;" d="M 426.214844 300 C 426.214844 311.714844 416.714844 321.214844 405 321.214844 C 393.285156 321.214844 383.785156 311.714844 383.785156 300 C 383.785156 288.285156 393.285156 278.785156 405 278.785156 C 416.714844 278.785156 426.214844 288.285156 426.214844 300 "/>
<path style="fill-rule:nonzero;fill:rgb(55%,51%,53%);fill-opacity:1;stroke-width:1;stroke-linecap:butt;stroke-linejoin:miter;stroke:rgb(0%,0%,0%);stroke-opacity:1;stroke-miterlimit:10;" d="M 753 315 L 727.019531 360 L 778.980469 360 L 753 315 "/>
<path style="fill-rule:nonzero;fill:rgb(55%,51%,53%);fill-opacity:1;stroke-width:1;stroke-linecap:butt;stroke-linejoin:miter;stroke:rgb(0%,0%,0%);stroke-opacity:1;stroke-miterlimit:10;" d="M 935 290 L 909.019531 335 L 960.980469 335 L 935 290 "/>
<path style="fill-rule:nonzero;fill:rgb(55%,51%,53%);fill-opacity:1;stroke-width:1;stroke-linecap:butt;stroke-linejoin:miter;stroke:rgb(0%,0%,0%);stroke-opacity:1;stroke-miterlimit:10;" d="M 956 77 L 930.019531 122 L 981.980469 122 L 956 77 "/>
<path style="fill-rule:nonzero;fill:rgb(55%,51%,53%);fill-opacity:1;stroke-width:1;stroke-linecap:butt;stroke-linejoin:miter;stroke:rgb(0%,0%,0%);stroke-opacity:1;stroke-miterlimit:10;" d="M 880.214844 86 C 880.214844 97.714844 870.714844 107.214844 859 107.214844 C 847.285156 107.214844 837.785156 97.714844 837.785156 86 C 837.785156 74.285156 847.285156 64.785156 859 64.785156 C 870.714844 64.785156 880.214844 74.285156 880.214844 86 "/>
</g>
</svg>
