<?xml version="1.0" encoding="UTF-8"?>
<svg xmlns="http://www.w3.org/2000/svg" xmlns:xlink="http://www.w3.org/1999/xlink" width="1179pt" height="517pt" viewBox="0 0 1179 517" version="1.1">
<g id="surface1356">
<rect x="0" y="0" width="1179" height="517" style="fill:rgb(90%,90%,90%);fill-opacity:1;stroke:none;"/>
<path style="fill-rule:nonzero;fill:rgb(55%,51%,53%);fill-opacity:1;stroke-width:1;stroke-linecap:butt;stroke-linejoin:miter;stroke:rgb(0%,0%,0%);stroke-opacity:1;stroke-miterlimit:10;" d="M 937 108 L 911.019531 153 L 962.980469 153 L 937 108 "/>
<path style="fill-rule:nonzero;fill:rgb(55%,51%,53%);fill-opacity:1;stroke-width:1;stroke-linecap:butt;stroke-linejoin:miter;stroke:rgb(0%,0%,0%);stroke-opacity:1;stroke-miterlimit:10;" d="M 255 342 L 229.019531 387 L 280.980469 387 L 255 342 "/>
<path style="fill-rule:nonzero;fill:rgb(55%,51%,53%);fill-opacity:1;stroke-width:1;stroke-linecap:butt;stroke-linejoin:miter;stroke:rgb(0%,0%,0%);stroke-opacity:1;stroke-miterlimit:10;" d="M 769 122 L 743.019531 167 L 794.980469 167 L 769 122 "/>
<path style="fill-rule:nonzero;fill:rgb(55%,51%,53%);fill-opacity:1;stroke-width:1;stroke-linecap:butt;stroke-linejoin:miter;stroke:rgb(0%,0%,0%);stroke-opacity:1;stroke-miterlimit:10;" d="M 1025 306 L 999.019531 351 L 1050.980469 351 L 1025 306 "/>
<path style="fill-rule:nonzero;fill:rgb(55%,51%,53%);fill-opacity:1;stroke-width:1;stroke-linecap:butt;stroke-linejoin:miter;stroke:rgb(0%,0%,0%);stroke-opacity:1;stroke-miterlimit:10;" d="M 891 361 L 865.019531 406 L 916.980469 406 L 891 361 "/>
<path style="fill-rule:nonzero;fill:rgb(35%,70%,90%);fill-opacity:1;stroke-width:1;stroke-linecap:butt;stroke-linejoin:miter;stroke:rgb(0%,0%,0%);stroke-opacity:1;stroke-miterlimit:10;" d="M 406 170 L 435.664062 170 L 447.664062 141.785156 L 459.664062 170 L 489.332031 170 L 465.332031 187.4375 L 473.417969 218.980469 L 447.664062 201.542969 L 421.914062 218.980469 L 434.214844 187.4375 L 406 170 "/>
<path style="fill-rule:nonzero;fill:rgb(35%,70%,90%);fill-opacity:1;stroke-width:1;stroke-linecap:butt;stroke-linejoin:miter;stroke:rgb(0%,0%,0%);stroke-opacity:1;stroke-miterlimit:10;" d="M 283 87 L 312.664062 87 L 324.664062 58.785156 L 336.664062 87 L 366.332031 87 L 342.332031 104.4375 L 350.417969 135.980469 L 324.664062 118.542969 L 298.914062 135.980469 L 311.214844 104.4375 L 283 87 "/>
<path style="fill-rule:nonzero;fill:rgb(35%,70%,90%);fill-opacity:1;stroke-width:1;stroke-linecap:butt;stroke-linejoin:miter;stroke:rgb(0%,0%,0%);stroke-opacity:1;stroke-miterlimit:10;" d="M 773 293 L 802.664062 293 L 814.664062 264.785156 L 826.664062 293 L 856.332031 293 L 832.332031 310.4375 L 840.417969 341.980469 L 814.664062 324.542969 L 788.914062 341.980469 L 801.214844 310.4375 L 773 293 "/>
<path style="fill-rule:nonzero;fill:rgb(35%,70%,90%);fill-opacity:1;stroke-width:1;stroke-linecap:butt;stroke-linejoin:miter;stroke:rgb(0%,0%,0%);stroke-opacity:1;stroke-miterlimit:10;" d="M 156 276 L 185.664062 276 L 197.664062 247.785156 L 209.664062 276 L 239.332031 276 L 215.332031 293.4375 L 223.417969 324.980469 L 197.664062 307.542969 L 171.914062 324.980469 L 184.214844 293.4375 L 156 276 "/>
</g>
</svg>
