<?xml version="1.0" encoding="UTF-8"?>
<svg xmlns="http://www.w3.org/2000/svg" xmlns:xlink="http://www.w3.org/1999/xlink" width="1179pt" height="517pt" viewBox="0 0 1179 517" version="1.1">
<g id="surface1441">
<rect x="0" y="0" width="1179" height="517" style="fill:rgb(90%,90%,90%);fill-opacity:1;stroke:none;"/>
<path style="fill-rule:nonzero;fill:rgb(53%,27%,7%);fill-opacity:1;stroke-width:1;stroke-linecap:butt;stroke-linejoin:miter;stroke:rgb(0%,0%,0%);stroke-opacity:1;stroke-miterlimit:10;" d="M 790.214844 232 C 790.214844 243.714844 780.714844 253.214844 769 253.214844 C 757.285156 253.214844 747.785156 243.714844 747.785156 232 C 747.785156 220.285156 757.285156 210.785156 769 210.785156 C 780.714844 210.785156 790.214844 220.285156 790.214844 232 "/>
<path style="fill-rule:nonzero;fill:rgb(53%,27%,7%);fill-opacity:1;stroke-width:1;stroke-linecap:butt;stroke-linejoin:miter;stroke:rgb(0%,0%,0%);stroke-opacity:1;stroke-miterlimit:10;" d="M 211.214844 172 C 211.214844 183.714844 201.714844 193.214844 190 193.214844 C 178.285156 193.214844 168.785156 183.714844 168.785156 172 C 168.785156 160.285156 178.285156 150.785156 190 150.785156 C 201.714844 150.785156 211.214844 160.285156 211.214844 172 "/>
<path style="fill-rule:nonzero;fill:rgb(53%,27%,7%);fill-opacity:1;stroke-width:1;stroke-linecap:butt;stroke-linejoin:miter;stroke:rgb(0%,0%,0%);stroke-opacity:1;stroke-miterlimit:10;" d="M 827.214844 427 C 827.214844 438.714844 817.714844 448.214844 806 448.214844 C 794.285156 448.214844 784.785156 438.714844 784.785156 427 C 784.785156 415.285156 794.285156 405.785156 806 405.785156 C 817.714844 405.785156 827.214844 415.285156 827.214844 427 "/>
<path style="fill-rule:nonzero;fill:rgb(53%,27%,7%);fill-opacity:1;stroke-width:1;stroke-linecap:butt;stroke-linejoin:miter;stroke:rgb(0%,0%,0%);stroke-opacity:1;stroke-miterlimit:10;" d="M 318.214844 402 C 318.214844 413.714844 308.714844 423.214844 297 423.214844 C 285.285156 423.214844 275.785156 413.714844 275.785156 402 C 275.785156 390.285156 285.285156 380.785156 297 380.785156 C 308.714844 380.785156 318.214844 390.285156 318.214844 402 "/>
<path style="fill-rule:nonzero;fill:rgb(53%,27%,7%);fill-opacity:1;stroke-width:1;stroke-linecap:butt;stroke-linejoin:miter;stroke:rgb(0%,0%,0%);stroke-opacity:1;stroke-miterlimit:10;" d="M 309.214844 256 C 309.214844 267.714844 299.714844 277.214844 288 277.214844 C 276.285156 277.214844 266.785156 267.714844 266.785156 256 C 266.785156 244.285156 276.285156 234.785156 288 234.785156 C 299.714844 234.785156 309.214844 244.285156 309.214844 256 "/>
<path style="fill-rule:nonzero;fill:rgb(100%,51%,0%);fill-opacity:1;stroke-width:1;stroke-linecap:butt;stroke-linejoin:miter;stroke:rgb(0%,0%,0%);stroke-opacity:1;stroke-miterlimit:10;" d="M 926 368 L 955.664062 368 L 967.664062 339.785156 L 979.664062 368 L 1009.332031 368 L 985.332031 385.4375 L 993.417969 416.980469 L 967.664062 399.542969 L 941.914062 416.980469 L 954.214844 385.4375 L 926 368 "/>
<path style="fill-rule:nonzero;fill:rgb(100%,51%,0%);fill-opacity:1;stroke-width:1;stroke-linecap:butt;stroke-linejoin:miter;stroke:rgb(0%,0%,0%);stroke-opacity:1;stroke-miterlimit:10;" d="M 415 376 L 444.664062 376 L 456.664062 347.785156 L 468.664062 376 L 498.332031 376 L 474.332031 393.4375 L 482.417969 424.980469 L 456.664062 407.542969 L 430.914062 424.980469 L 443.214844 393.4375 L 415 376 "/>
<path style="fill-rule:nonzero;fill:rgb(100%,51%,0%);fill-opacity:1;stroke-width:1;stroke-linecap:butt;stroke-linejoin:miter;stroke:rgb(0%,0%,0%);stroke-opacity:1;stroke-miterlimit:10;" d="M 536 264 L 565.664062 264 L 577.664062 235.785156 L 589.664062 264 L 619.332031 264 L 595.332031 281.4375 L 603.417969 312.980469 L 577.664062 295.542969 L 551.914062 312.980469 L 564.214844 281.4375 L 536 264 "/>
<path style="fill-rule:nonzero;fill:rgb(100%,51%,0%);fill-opacity:1;stroke-width:1;stroke-linecap:butt;stroke-linejoin:miter;stroke:rgb(0%,0%,0%);stroke-opacity:1;stroke-miterlimit:10;" d="M 673 313 L 702.664062 313 L 714.664062 284.785156 L 726.664062 313 L 756.332031 313 L 732.332031 330.4375 L 740.417969 361.980469 L 714.664062 344.542969 L 688.914062 361.980469 L 701.214844 330.4375 L 673 313 "/>
<path style="fill-rule:nonzero;fill:rgb(100%,51%,0%);fill-opacity:1;stroke-width:1;stroke-linecap:butt;stroke-linejoin:miter;stroke:rgb(0%,0%,0%);stroke-opacity:1;stroke-miterlimit:10;" d="M 641 429 L 670.664062 429 L 682.664062 400.785156 L 694.664062 429 L 724.332031 429 L 700.332031 446.4375 L 708.417969 477.980469 L 682.664062 460.542969 L 656.914062 477.980469 L 669.214844 446.4375 L 641 429 "/>
</g>
</svg>
