<?xml version="1.0" encoding="UTF-8"?>
<svg xmlns="http://www.w3.org/2000/svg" xmlns:xlink="http://www.w3.org/1999/xlink" width="1179pt" height="517pt" viewBox="0 0 1179 517" version="1.1">
<g id="surface1376">
<rect x="0" y="0" width="1179" height="517" style="fill:rgb(90%,90%,90%);fill-opacity:1;stroke:none;"/>
<path style="fill-rule:nonzero;fill:rgb(55%,51%,53%);fill-opacity:1;stroke-width:1;stroke-linecap:butt;stroke-linejoin:miter;stroke:rgb(0%,0%,0%);stroke-opacity:1;stroke-miterlimit:10;" d="M 600 72.601562 C 600 58.199219 576 58.199219 576 72.601562 C 576 87 600 89.398438 600 101.398438 C 600 89.398438 624 87 624 72.601562 C 624 58.199219 600 58.199219 600 72.601562 "/>
<path style="fill-rule:nonzero;fill:rgb(55%,51%,53%);fill-opacity:1;stroke-width:1;stroke-linecap:butt;stroke-linejoin:miter;stroke:rgb(0%,0%,0%);stroke-opacity:1;stroke-miterlimit:10;" d="M 900 332.601562 C 900 318.199219 876 318.199219 876 332.601562 C 876 347 900 349.398438 900 361.398438 C 900 349.398438 924 347 924 332.601562 C 924 318.199219 900 318.199219 900 332.601562 "/>
<path style="fill-rule:nonzero;fill:rgb(55%,51%,53%);fill-opacity:1;stroke-width:1;stroke-linecap:butt;stroke-linejoin:miter;stroke:rgb(0%,0%,0%);stroke-opacity:1;stroke-miterlimit:10;" d="M 570 391.601562 C 570 377.199219 546 377.199219 546 391.601562 C 546 406 570 408.398438 570 420.398438 C 570 408.398438 594 406 594 391.601562 C 594 377.199219 570 377.199219 570 391.601562 "/>
<path style="fill-rule:nonzero;fill:rgb(55%,51%,53%);fill-opacity:1;stroke-width:1;stroke-linecap:butt;stroke-linejoin:miter;stroke:rgb(0%,0%,0%);stroke-opacity:1;stroke-miterlimit:10;" d="M 491 155.601562 C 491 141.199219 467 141.199219 467 155.601562 C 467 170 491 172.398438 491 184.398438 C 491 172.398438 515 170 515 155.601562 C 515 141.199219 491 141.199219 491 155.601562 "/>
<path style="fill-rule:nonzero;fill:rgb(53%,27%,7%);fill-opacity:1;stroke-width:1;stroke-linecap:butt;stroke-linejoin:miter;stroke:rgb(0%,0%,0%);stroke-opacity:1;stroke-miterlimit:10;" d="M 897 140 L 926.664062 140 L 938.664062 111.785156 L 950.664062 140 L 980.332031 140 L 956.332031 157.4375 L 964.417969 188.980469 L 938.664062 171.542969 L 912.914062 188.980469 L 925.214844 157.4375 L 897 140 "/>
<path style="fill-rule:nonzero;fill:rgb(53%,27%,7%);fill-opacity:1;stroke-width:1;stroke-linecap:butt;stroke-linejoin:miter;stroke:rgb(0%,0%,0%);stroke-opacity:1;stroke-miterlimit:10;" d="M 721 223 L 750.664062 223 L 762.664062 194.785156 L 774.664062 223 L 804.332031 223 L 780.332031 240.4375 L 788.417969 271.980469 L 762.664062 254.542969 L 736.914062 271.980469 L 749.214844 240.4375 L 721 223 "/>
<path style="fill-rule:nonzero;fill:rgb(53%,27%,7%);fill-opacity:1;stroke-width:1;stroke-linecap:butt;stroke-linejoin:miter;stroke:rgb(0%,0%,0%);stroke-opacity:1;stroke-miterlimit:10;" d="M 1036 139 L 1065.664062 139 L 1077.664062 110.785156 L 1089.664062 139 L 1119.332031 139 L 1095.332031 156.4375 L 1103.417969 187.980469 L 1077.664062 170.542969 L 1051.914062 187.980469 L 1064.214844 156.4375 L 1036 139 "/>
<path style="fill-rule:nonzero;fill:rgb(53%,27%,7%);fill-opacity:1;stroke-width:1;stroke-linecap:butt;stroke-linejoin:miter;stroke:rgb(0%,0%,0%);stroke-opacity:1;stroke-miterlimit:10;" d="M 1023 372 L 1052.664062 372 L 1064.664062 343.785156 L 1076.664062 372 L 1106.332031 372 L 1082.332031 389.4375 L 1090.417969 420.980469 L 1064.664062 403.542969 L 1038.914062 420.980469 L 1051.214844 389.4375 L 1023 372 "/>
</g>
</svg>
