<?xml version="1.0" encoding="UTF-8"?>
<svg xmlns="http://www.w3.org/2000/svg" xmlns:xlink="http://www.w3.org/1999/xlink" width="1179pt" height="517pt" viewBox="0 0 1179 517" version="1.1">
<g id="surface171">
<rect x="0" y="0" width="1179" height="517" style="fill:rgb(90%,90%,90%);fill-opacity:1;stroke:none;"/>
<path style="fill-rule:nonzero;fill:rgb(55%,51%,53%);fill-opacity:1;stroke-width:1;stroke-linecap:butt;stroke-linejoin:miter;stroke:rgb(0%,0%,0%);stroke-opacity:1;stroke-miterlimit:10;" d="M 206.214844 332 C 206.214844 343.714844 196.714844 353.214844 185 353.214844 C 173.285156 353.214844 163.785156 343.714844 163.785156 332 C 163.785156 320.285156 173.285156 310.785156 185 310.785156 C 196.714844 310.785156 206.214844 320.285156 206.214844 332 "/>
<path style="fill-rule:nonzero;fill:rgb(53%,27%,7%);fill-opacity:1;stroke-width:1;stroke-linecap:butt;stroke-linejoin:miter;stroke:rgb(0%,0%,0%);stroke-opacity:1;stroke-miterlimit:10;" d="M 104.214844 97 C 104.214844 108.714844 94.714844 118.214844 83 118.214844 C 71.285156 118.214844 61.785156 108.714844 61.785156 97 C 61.785156 85.285156 71.285156 75.785156 83 75.785156 C 94.714844 75.785156 104.214844 85.285156 104.214844 97 "/>
<path style="fill-rule:nonzero;fill:rgb(55%,51%,53%);fill-opacity:1;stroke-width:1;stroke-linecap:butt;stroke-linejoin:miter;stroke:rgb(0%,0%,0%);stroke-opacity:1;stroke-miterlimit:10;" d="M 352.214844 302 C 352.214844 313.714844 342.714844 323.214844 331 323.214844 C 319.285156 323.214844 309.785156 313.714844 309.785156 302 C 309.785156 290.285156 319.285156 280.785156 331 280.785156 C 342.714844 280.785156 352.214844 290.285156 352.214844 302 "/>
<path style="fill-rule:nonzero;fill:rgb(53%,27%,7%);fill-opacity:1;stroke-width:1;stroke-linecap:butt;stroke-linejoin:miter;stroke:rgb(0%,0%,0%);stroke-opacity:1;stroke-miterlimit:10;" d="M 362.214844 187 C 362.214844 198.714844 352.714844 208.214844 341 208.214844 C 329.285156 208.214844 319.785156 198.714844 319.785156 187 C 319.785156 175.285156 329.285156 165.785156 341 165.785156 C 352.714844 165.785156 362.214844 175.285156 362.214844 187 "/>
<path style="fill-rule:nonzero;fill:rgb(55%,51%,53%);fill-opacity:1;stroke-width:1;stroke-linecap:butt;stroke-linejoin:miter;stroke:rgb(0%,0%,0%);stroke-opacity:1;stroke-miterlimit:10;" d="M 118.214844 251 C 118.214844 262.714844 108.714844 272.214844 97 272.214844 C 85.285156 272.214844 75.785156 262.714844 75.785156 251 C 75.785156 239.285156 85.285156 229.785156 97 229.785156 C 108.714844 229.785156 118.214844 239.285156 118.214844 251 "/>
<path style="fill-rule:nonzero;fill:rgb(53%,27%,7%);fill-opacity:1;stroke-width:1;stroke-linecap:butt;stroke-linejoin:miter;stroke:rgb(0%,0%,0%);stroke-opacity:1;stroke-miterlimit:10;" d="M 888.785156 110.785156 L 888.785156 153.214844 L 931.214844 153.214844 L 931.214844 110.785156 L 888.785156 110.785156 "/>
<path style="fill-rule:nonzero;fill:rgb(55%,51%,53%);fill-opacity:1;stroke-width:1;stroke-linecap:butt;stroke-linejoin:miter;stroke:rgb(0%,0%,0%);stroke-opacity:1;stroke-miterlimit:10;" d="M 1009.785156 405.785156 L 1009.785156 448.214844 L 1052.214844 448.214844 L 1052.214844 405.785156 L 1009.785156 405.785156 "/>
<path style="fill-rule:nonzero;fill:rgb(53%,27%,7%);fill-opacity:1;stroke-width:1;stroke-linecap:butt;stroke-linejoin:miter;stroke:rgb(0%,0%,0%);stroke-opacity:1;stroke-miterlimit:10;" d="M 782.785156 282.785156 L 782.785156 325.214844 L 825.214844 325.214844 L 825.214844 282.785156 L 782.785156 282.785156 "/>
</g>
</svg>
