<?xml version="1.0" encoding="UTF-8"?>
<svg xmlns="http://www.w3.org/2000/svg" xmlns:xlink="http://www.w3.org/1999/xlink" width="1179pt" height="517pt" viewBox="0 0 1179 517" version="1.1">
<g id="surface196">
<rect x="0" y="0" width="1179" height="517" style="fill:rgb(90%,90%,90%);fill-opacity:1;stroke:none;"/>
<path style="fill-rule:nonzero;fill:rgb(35%,70%,90%);fill-opacity:1;stroke-width:1;stroke-linecap:butt;stroke-linejoin:miter;stroke:rgb(0%,0%,0%);stroke-opacity:1;stroke-miterlimit:10;" d="M 423.214844 295 C 423.214844 306.714844 413.714844 316.214844 402 316.214844 C 390.285156 316.214844 380.785156 306.714844 380.785156 295 C 380.785156 283.285156 390.285156 273.785156 402 273.785156 C 413.714844 273.785156 423.214844 283.285156 423.214844 295 "/>
<path style="fill-rule:nonzero;fill:rgb(35%,70%,90%);fill-opacity:1;stroke-width:1;stroke-linecap:butt;stroke-linejoin:miter;stroke:rgb(0%,0%,0%);stroke-opacity:1;stroke-miterlimit:10;" d="M 399.214844 206 C 399.214844 217.714844 389.714844 227.214844 378 227.214844 C 366.285156 227.214844 356.785156 217.714844 356.785156 206 C 356.785156 194.285156 366.285156 184.785156 378 184.785156 C 389.714844 184.785156 399.214844 194.285156 399.214844 206 "/>
<path style="fill-rule:nonzero;fill:rgb(100%,51%,0%);fill-opacity:1;stroke-width:1;stroke-linecap:butt;stroke-linejoin:miter;stroke:rgb(0%,0%,0%);stroke-opacity:1;stroke-miterlimit:10;" d="M 201.214844 275 C 201.214844 286.714844 191.714844 296.214844 180 296.214844 C 168.285156 296.214844 158.785156 286.714844 158.785156 275 C 158.785156 263.285156 168.285156 253.785156 180 253.785156 C 191.714844 253.785156 201.214844 263.285156 201.214844 275 "/>
<path style="fill-rule:nonzero;fill:rgb(100%,51%,0%);fill-opacity:1;stroke-width:1;stroke-linecap:butt;stroke-linejoin:miter;stroke:rgb(0%,0%,0%);stroke-opacity:1;stroke-miterlimit:10;" d="M 268.214844 366 C 268.214844 377.714844 258.714844 387.214844 247 387.214844 C 235.285156 387.214844 225.785156 377.714844 225.785156 366 C 225.785156 354.285156 235.285156 344.785156 247 344.785156 C 258.714844 344.785156 268.214844 354.285156 268.214844 366 "/>
<path style="fill-rule:nonzero;fill:rgb(35%,70%,90%);fill-opacity:1;stroke-width:1;stroke-linecap:butt;stroke-linejoin:miter;stroke:rgb(0%,0%,0%);stroke-opacity:1;stroke-miterlimit:10;" d="M 407.214844 109 C 407.214844 120.714844 397.714844 130.214844 386 130.214844 C 374.285156 130.214844 364.785156 120.714844 364.785156 109 C 364.785156 97.285156 374.285156 87.785156 386 87.785156 C 397.714844 87.785156 407.214844 97.285156 407.214844 109 "/>
<path style="fill-rule:nonzero;fill:rgb(100%,51%,0%);fill-opacity:1;stroke-width:1;stroke-linecap:butt;stroke-linejoin:miter;stroke:rgb(0%,0%,0%);stroke-opacity:1;stroke-miterlimit:10;" d="M 980 259 L 954.019531 304 L 1005.980469 304 L 980 259 "/>
<path style="fill-rule:nonzero;fill:rgb(100%,51%,0%);fill-opacity:1;stroke-width:1;stroke-linecap:butt;stroke-linejoin:miter;stroke:rgb(0%,0%,0%);stroke-opacity:1;stroke-miterlimit:10;" d="M 935 56 L 909.019531 101 L 960.980469 101 L 935 56 "/>
<path style="fill-rule:nonzero;fill:rgb(35%,70%,90%);fill-opacity:1;stroke-width:1;stroke-linecap:butt;stroke-linejoin:miter;stroke:rgb(0%,0%,0%);stroke-opacity:1;stroke-miterlimit:10;" d="M 744 377 L 718.019531 422 L 769.980469 422 L 744 377 "/>
<path style="fill-rule:nonzero;fill:rgb(35%,70%,90%);fill-opacity:1;stroke-width:1;stroke-linecap:butt;stroke-linejoin:miter;stroke:rgb(0%,0%,0%);stroke-opacity:1;stroke-miterlimit:10;" d="M 962 152 L 936.019531 197 L 987.980469 197 L 962 152 "/>
<path style="fill-rule:nonzero;fill:rgb(100%,51%,0%);fill-opacity:1;stroke-width:1;stroke-linecap:butt;stroke-linejoin:miter;stroke:rgb(0%,0%,0%);stroke-opacity:1;stroke-miterlimit:10;" d="M 844 207 L 818.019531 252 L 869.980469 252 L 844 207 "/>
</g>
</svg>
