<?xml version="1.0" encoding="UTF-8"?>
<svg xmlns="http://www.w3.org/2000/svg" xmlns:xlink="http://www.w3.org/1999/xlink" width="1179pt" height="517pt" viewBox="0 0 1179 517" version="1.1">
<g id="surface1081">
<rect x="0" y="0" width="1179" height="517" style="fill:rgb(90%,90%,90%);fill-opacity:1;stroke:none;"/>
<path style="fill-rule:nonzero;fill:rgb(53%,27%,7%);fill-opacity:1;stroke-width:1;stroke-linecap:butt;stroke-linejoin:miter;stroke:rgb(0%,0%,0%);stroke-opacity:1;stroke-miterlimit:10;" d="M 923.214844 94 C 923.214844 105.714844 913.714844 115.214844 902 115.214844 C 890.285156 115.214844 880.785156 105.714844 880.785156 94 C 880.785156 82.285156 890.285156 72.785156 902 72.785156 C 913.714844 72.785156 923.214844 82.285156 923.214844 94 "/>
<path style="fill-rule:nonzero;fill:rgb(53%,27%,7%);fill-opacity:1;stroke-width:1;stroke-linecap:butt;stroke-linejoin:miter;stroke:rgb(0%,0%,0%);stroke-opacity:1;stroke-miterlimit:10;" d="M 360.214844 322 C 360.214844 333.714844 350.714844 343.214844 339 343.214844 C 327.285156 343.214844 317.785156 333.714844 317.785156 322 C 317.785156 310.285156 327.285156 300.785156 339 300.785156 C 350.714844 300.785156 360.214844 310.285156 360.214844 322 "/>
<path style="fill-rule:nonzero;fill:rgb(53%,27%,7%);fill-opacity:1;stroke-width:1;stroke-linecap:butt;stroke-linejoin:miter;stroke:rgb(0%,0%,0%);stroke-opacity:1;stroke-miterlimit:10;" d="M 227.214844 241 C 227.214844 252.714844 217.714844 262.214844 206 262.214844 C 194.285156 262.214844 184.785156 252.714844 184.785156 241 C 184.785156 229.285156 194.285156 219.785156 206 219.785156 C 217.714844 219.785156 227.214844 229.285156 227.214844 241 "/>
<path style="fill-rule:nonzero;fill:rgb(53%,27%,7%);fill-opacity:1;stroke-width:1;stroke-linecap:butt;stroke-linejoin:miter;stroke:rgb(0%,0%,0%);stroke-opacity:1;stroke-miterlimit:10;" d="M 642.214844 148 C 642.214844 159.714844 632.714844 169.214844 621 169.214844 C 609.285156 169.214844 599.785156 159.714844 599.785156 148 C 599.785156 136.285156 609.285156 126.785156 621 126.785156 C 632.714844 126.785156 642.214844 136.285156 642.214844 148 "/>
<path style="fill-rule:nonzero;fill:rgb(53%,27%,7%);fill-opacity:1;stroke-width:1;stroke-linecap:butt;stroke-linejoin:miter;stroke:rgb(0%,0%,0%);stroke-opacity:1;stroke-miterlimit:10;" d="M 578.214844 310 C 578.214844 321.714844 568.714844 331.214844 557 331.214844 C 545.285156 331.214844 535.785156 321.714844 535.785156 310 C 535.785156 298.285156 545.285156 288.785156 557 288.785156 C 568.714844 288.785156 578.214844 298.285156 578.214844 310 "/>
<path style="fill-rule:nonzero;fill:rgb(100%,51%,0%);fill-opacity:1;stroke-width:1;stroke-linecap:butt;stroke-linejoin:miter;stroke:rgb(0%,0%,0%);stroke-opacity:1;stroke-miterlimit:10;" d="M 851 378 L 880.664062 378 L 892.664062 349.785156 L 904.664062 378 L 934.332031 378 L 910.332031 395.4375 L 918.417969 426.980469 L 892.664062 409.542969 L 866.914062 426.980469 L 879.214844 395.4375 L 851 378 "/>
<path style="fill-rule:nonzero;fill:rgb(100%,51%,0%);fill-opacity:1;stroke-width:1;stroke-linecap:butt;stroke-linejoin:miter;stroke:rgb(0%,0%,0%);stroke-opacity:1;stroke-miterlimit:10;" d="M 745 201 L 774.664062 201 L 786.664062 172.785156 L 798.664062 201 L 828.332031 201 L 804.332031 218.4375 L 812.417969 249.980469 L 786.664062 232.542969 L 760.914062 249.980469 L 773.214844 218.4375 L 745 201 "/>
<path style="fill-rule:nonzero;fill:rgb(100%,51%,0%);fill-opacity:1;stroke-width:1;stroke-linecap:butt;stroke-linejoin:miter;stroke:rgb(0%,0%,0%);stroke-opacity:1;stroke-miterlimit:10;" d="M 955 224 L 984.664062 224 L 996.664062 195.785156 L 1008.664062 224 L 1038.332031 224 L 1014.332031 241.4375 L 1022.417969 272.980469 L 996.664062 255.542969 L 970.914062 272.980469 L 983.214844 241.4375 L 955 224 "/>
<path style="fill-rule:nonzero;fill:rgb(100%,51%,0%);fill-opacity:1;stroke-width:1;stroke-linecap:butt;stroke-linejoin:miter;stroke:rgb(0%,0%,0%);stroke-opacity:1;stroke-miterlimit:10;" d="M 119 145 L 148.664062 145 L 160.664062 116.785156 L 172.664062 145 L 202.332031 145 L 178.332031 162.4375 L 186.417969 193.980469 L 160.664062 176.542969 L 134.914062 193.980469 L 147.214844 162.4375 L 119 145 "/>
<path style="fill-rule:nonzero;fill:rgb(100%,51%,0%);fill-opacity:1;stroke-width:1;stroke-linecap:butt;stroke-linejoin:miter;stroke:rgb(0%,0%,0%);stroke-opacity:1;stroke-miterlimit:10;" d="M 730 386 L 759.664062 386 L 771.664062 357.785156 L 783.664062 386 L 813.332031 386 L 789.332031 403.4375 L 797.417969 434.980469 L 771.664062 417.542969 L 745.914062 434.980469 L 758.214844 403.4375 L 730 386 "/>
</g>
</svg>
