<?xml version="1.0" encoding="UTF-8"?>
<svg xmlns="http://www.w3.org/2000/svg" xmlns:xlink="http://www.w3.org/1999/xlink" width="1179pt" height="517pt" viewBox="0 0 1179 517" version="1.1">
<g id="surface1206">
<rect x="0" y="0" width="1179" height="517" style="fill:rgb(90%,90%,90%);fill-opacity:1;stroke:none;"/>
<path style="fill-rule:nonzero;fill:rgb(55%,51%,53%);fill-opacity:1;stroke-width:1;stroke-linecap:butt;stroke-linejoin:miter;stroke:rgb(0%,0%,0%);stroke-opacity:1;stroke-miterlimit:10;" d="M 401.214844 202 C 401.214844 213.714844 391.714844 223.214844 380 223.214844 C 368.285156 223.214844 358.785156 213.714844 358.785156 202 C 358.785156 190.285156 368.285156 180.785156 380 180.785156 C 391.714844 180.785156 401.214844 190.285156 401.214844 202 "/>
<path style="fill-rule:nonzero;fill:rgb(55%,51%,53%);fill-opacity:1;stroke-width:1;stroke-linecap:butt;stroke-linejoin:miter;stroke:rgb(0%,0%,0%);stroke-opacity:1;stroke-miterlimit:10;" d="M 973.214844 273 C 973.214844 284.714844 963.714844 294.214844 952 294.214844 C 940.285156 294.214844 930.785156 284.714844 930.785156 273 C 930.785156 261.285156 940.285156 251.785156 952 251.785156 C 963.714844 251.785156 973.214844 261.285156 973.214844 273 "/>
<path style="fill-rule:nonzero;fill:rgb(55%,51%,53%);fill-opacity:1;stroke-width:1;stroke-linecap:butt;stroke-linejoin:miter;stroke:rgb(0%,0%,0%);stroke-opacity:1;stroke-miterlimit:10;" d="M 892.214844 111 C 892.214844 122.714844 882.714844 132.214844 871 132.214844 C 859.285156 132.214844 849.785156 122.714844 849.785156 111 C 849.785156 99.285156 859.285156 89.785156 871 89.785156 C 882.714844 89.785156 892.214844 99.285156 892.214844 111 "/>
<path style="fill-rule:nonzero;fill:rgb(100%,51%,0%);fill-opacity:1;stroke-width:1;stroke-linecap:butt;stroke-linejoin:miter;stroke:rgb(0%,0%,0%);stroke-opacity:1;stroke-miterlimit:10;" d="M 186 227.601562 C 186 213.199219 162 213.199219 162 227.601562 C 162 242 186 244.398438 186 256.398438 C 186 244.398438 210 242 210 227.601562 C 210 213.199219 186 213.199219 186 227.601562 "/>
<path style="fill-rule:nonzero;fill:rgb(100%,51%,0%);fill-opacity:1;stroke-width:1;stroke-linecap:butt;stroke-linejoin:miter;stroke:rgb(0%,0%,0%);stroke-opacity:1;stroke-miterlimit:10;" d="M 651 254.601562 C 651 240.199219 627 240.199219 627 254.601562 C 627 269 651 271.398438 651 283.398438 C 651 271.398438 675 269 675 254.601562 C 675 240.199219 651 240.199219 651 254.601562 "/>
<path style="fill-rule:nonzero;fill:rgb(100%,51%,0%);fill-opacity:1;stroke-width:1;stroke-linecap:butt;stroke-linejoin:miter;stroke:rgb(0%,0%,0%);stroke-opacity:1;stroke-miterlimit:10;" d="M 884 409.601562 C 884 395.199219 860 395.199219 860 409.601562 C 860 424 884 426.398438 884 438.398438 C 884 426.398438 908 424 908 409.601562 C 908 395.199219 884 395.199219 884 409.601562 "/>
<path style="fill-rule:nonzero;fill:rgb(100%,51%,0%);fill-opacity:1;stroke-width:1;stroke-linecap:butt;stroke-linejoin:miter;stroke:rgb(0%,0%,0%);stroke-opacity:1;stroke-miterlimit:10;" d="M 600 115.601562 C 600 101.199219 576 101.199219 576 115.601562 C 576 130 600 132.398438 600 144.398438 C 600 132.398438 624 130 624 115.601562 C 624 101.199219 600 101.199219 600 115.601562 "/>
</g>
</svg>
