<?xml version="1.0" encoding="UTF-8"?>
<svg xmlns="http://www.w3.org/2000/svg" xmlns:xlink="http://www.w3.org/1999/xlink" width="1179pt" height="517pt" viewBox="0 0 1179 517" version="1.1">
<g id="surface1381">
<rect x="0" y="0" width="1179" height="517" style="fill:rgb(90%,90%,90%);fill-opacity:1;stroke:none;"/>
<path style="fill-rule:nonzero;fill:rgb(100%,51%,0%);fill-opacity:1;stroke-width:1;stroke-linecap:butt;stroke-linejoin:miter;stroke:rgb(0%,0%,0%);stroke-opacity:1;stroke-miterlimit:10;" d="M 764 154 L 793.664062 154 L 805.664062 125.785156 L 817.664062 154 L 847.332031 154 L 823.332031 171.4375 L 831.417969 202.980469 L 805.664062 185.542969 L 779.914062 202.980469 L 792.214844 171.4375 L 764 154 "/>
<path style="fill-rule:nonzero;fill:rgb(100%,51%,0%);fill-opacity:1;stroke-width:1;stroke-linecap:butt;stroke-linejoin:miter;stroke:rgb(0%,0%,0%);stroke-opacity:1;stroke-miterlimit:10;" d="M 534 379 L 563.664062 379 L 575.664062 350.785156 L 587.664062 379 L 617.332031 379 L 593.332031 396.4375 L 601.417969 427.980469 L 575.664062 410.542969 L 549.914062 427.980469 L 562.214844 396.4375 L 534 379 "/>
<path style="fill-rule:nonzero;fill:rgb(100%,51%,0%);fill-opacity:1;stroke-width:1;stroke-linecap:butt;stroke-linejoin:miter;stroke:rgb(0%,0%,0%);stroke-opacity:1;stroke-miterlimit:10;" d="M 942 160 L 971.664062 160 L 983.664062 131.785156 L 995.664062 160 L 1025.332031 160 L 1001.332031 177.4375 L 1009.417969 208.980469 L 983.664062 191.542969 L 957.914062 208.980469 L 970.214844 177.4375 L 942 160 "/>
<path style="fill-rule:nonzero;fill:rgb(100%,51%,0%);fill-opacity:1;stroke-width:1;stroke-linecap:butt;stroke-linejoin:miter;stroke:rgb(0%,0%,0%);stroke-opacity:1;stroke-miterlimit:10;" d="M 259 167 L 288.664062 167 L 300.664062 138.785156 L 312.664062 167 L 342.332031 167 L 318.332031 184.4375 L 326.417969 215.980469 L 300.664062 198.542969 L 274.914062 215.980469 L 287.214844 184.4375 L 259 167 "/>
<path style="fill-rule:nonzero;fill:rgb(100%,51%,0%);fill-opacity:1;stroke-width:1;stroke-linecap:butt;stroke-linejoin:miter;stroke:rgb(0%,0%,0%);stroke-opacity:1;stroke-miterlimit:10;" d="M 904 402 L 933.664062 402 L 945.664062 373.785156 L 957.664062 402 L 987.332031 402 L 963.332031 419.4375 L 971.417969 450.980469 L 945.664062 433.542969 L 919.914062 450.980469 L 932.214844 419.4375 L 904 402 "/>
<path style="fill-rule:nonzero;fill:rgb(35%,70%,90%);fill-opacity:1;stroke-width:1;stroke-linecap:butt;stroke-linejoin:miter;stroke:rgb(0%,0%,0%);stroke-opacity:1;stroke-miterlimit:10;" d="M 622 69 L 596.019531 114 L 647.980469 114 L 622 69 "/>
<path style="fill-rule:nonzero;fill:rgb(35%,70%,90%);fill-opacity:1;stroke-width:1;stroke-linecap:butt;stroke-linejoin:miter;stroke:rgb(0%,0%,0%);stroke-opacity:1;stroke-miterlimit:10;" d="M 127 357 L 101.019531 402 L 152.980469 402 L 127 357 "/>
<path style="fill-rule:nonzero;fill:rgb(35%,70%,90%);fill-opacity:1;stroke-width:1;stroke-linecap:butt;stroke-linejoin:miter;stroke:rgb(0%,0%,0%);stroke-opacity:1;stroke-miterlimit:10;" d="M 487 93 L 461.019531 138 L 512.980469 138 L 487 93 "/>
</g>
</svg>
