<?xml version="1.0" encoding="UTF-8"?>
<svg xmlns="http://www.w3.org/2000/svg" xmlns:xlink="http://www.w3.org/1999/xlink" width="1179pt" height="517pt" viewBox="0 0 1179 517" version="1.1">
<g id="surface1461">
<rect x="0" y="0" width="1179" height="517" style="fill:rgb(90%,90%,90%);fill-opacity:1;stroke:none;"/>
<path style="fill-rule:nonzero;fill:rgb(35%,70%,90%);fill-opacity:1;stroke-width:1;stroke-linecap:butt;stroke-linejoin:miter;stroke:rgb(0%,0%,0%);stroke-opacity:1;stroke-miterlimit:10;" d="M 1052.214844 405 C 1052.214844 416.714844 1042.714844 426.214844 1031 426.214844 C 1019.285156 426.214844 1009.785156 416.714844 1009.785156 405 C 1009.785156 393.285156 1019.285156 383.785156 1031 383.785156 C 1042.714844 383.785156 1052.214844 393.285156 1052.214844 405 "/>
<path style="fill-rule:nonzero;fill:rgb(35%,70%,90%);fill-opacity:1;stroke-width:1;stroke-linecap:butt;stroke-linejoin:miter;stroke:rgb(0%,0%,0%);stroke-opacity:1;stroke-miterlimit:10;" d="M 806.214844 403 C 806.214844 414.714844 796.714844 424.214844 785 424.214844 C 773.285156 424.214844 763.785156 414.714844 763.785156 403 C 763.785156 391.285156 773.285156 381.785156 785 381.785156 C 796.714844 381.785156 806.214844 391.285156 806.214844 403 "/>
<path style="fill-rule:nonzero;fill:rgb(35%,70%,90%);fill-opacity:1;stroke-width:1;stroke-linecap:butt;stroke-linejoin:miter;stroke:rgb(0%,0%,0%);stroke-opacity:1;stroke-miterlimit:10;" d="M 818.214844 143 C 818.214844 154.714844 808.714844 164.214844 797 164.214844 C 785.285156 164.214844 775.785156 154.714844 775.785156 143 C 775.785156 131.285156 785.285156 121.785156 797 121.785156 C 808.714844 121.785156 818.214844 131.285156 818.214844 143 "/>
<path style="fill-rule:nonzero;fill:rgb(35%,70%,90%);fill-opacity:1;stroke-width:1;stroke-linecap:butt;stroke-linejoin:miter;stroke:rgb(0%,0%,0%);stroke-opacity:1;stroke-miterlimit:10;" d="M 261.214844 116 C 261.214844 127.714844 251.714844 137.214844 240 137.214844 C 228.285156 137.214844 218.785156 127.714844 218.785156 116 C 218.785156 104.285156 228.285156 94.785156 240 94.785156 C 251.714844 94.785156 261.214844 104.285156 261.214844 116 "/>
<path style="fill-rule:nonzero;fill:rgb(100%,51%,0%);fill-opacity:1;stroke-width:1;stroke-linecap:butt;stroke-linejoin:miter;stroke:rgb(0%,0%,0%);stroke-opacity:1;stroke-miterlimit:10;" d="M 460 179 L 434.019531 224 L 485.980469 224 L 460 179 "/>
<path style="fill-rule:nonzero;fill:rgb(100%,51%,0%);fill-opacity:1;stroke-width:1;stroke-linecap:butt;stroke-linejoin:miter;stroke:rgb(0%,0%,0%);stroke-opacity:1;stroke-miterlimit:10;" d="M 943 173 L 917.019531 218 L 968.980469 218 L 943 173 "/>
<path style="fill-rule:nonzero;fill:rgb(100%,51%,0%);fill-opacity:1;stroke-width:1;stroke-linecap:butt;stroke-linejoin:miter;stroke:rgb(0%,0%,0%);stroke-opacity:1;stroke-miterlimit:10;" d="M 138 382 L 112.019531 427 L 163.980469 427 L 138 382 "/>
<path style="fill-rule:nonzero;fill:rgb(100%,51%,0%);fill-opacity:1;stroke-width:1;stroke-linecap:butt;stroke-linejoin:miter;stroke:rgb(0%,0%,0%);stroke-opacity:1;stroke-miterlimit:10;" d="M 435 336 L 409.019531 381 L 460.980469 381 L 435 336 "/>
</g>
</svg>
