<?xml version="1.0" encoding="UTF-8"?>
<svg xmlns="http://www.w3.org/2000/svg" xmlns:xlink="http://www.w3.org/1999/xlink" width="1179pt" height="517pt" viewBox="0 0 1179 517" version="1.1">
<g id="surface91">
<rect x="0" y="0" width="1179" height="517" style="fill:rgb(90%,90%,90%);fill-opacity:1;stroke:none;"/>
<path style="fill-rule:nonzero;fill:rgb(100%,51%,0%);fill-opacity:1;stroke-width:1;stroke-linecap:butt;stroke-linejoin:miter;stroke:rgb(0%,0%,0%);stroke-opacity:1;stroke-miterlimit:10;" d="M 950 349 L 979.664062 349 L 991.664062 320.785156 L 1003.664062 349 L 1033.332031 349 L 1009.332031 366.4375 L 1017.417969 397.980469 L 991.664062 380.542969 L 965.914062 397.980469 L 978.214844 366.4375 L 950 349 "/>
<path style="fill-rule:nonzero;fill:rgb(100%,51%,0%);fill-opacity:1;stroke-width:1;stroke-linecap:butt;stroke-linejoin:miter;stroke:rgb(0%,0%,0%);stroke-opacity:1;stroke-miterlimit:10;" d="M 407 280 L 436.664062 280 L 448.664062 251.785156 L 460.664062 280 L 490.332031 280 L 466.332031 297.4375 L 474.417969 328.980469 L 448.664062 311.542969 L 422.914062 328.980469 L 435.214844 297.4375 L 407 280 "/>
<path style="fill-rule:nonzero;fill:rgb(100%,51%,0%);fill-opacity:1;stroke-width:1;stroke-linecap:butt;stroke-linejoin:miter;stroke:rgb(0%,0%,0%);stroke-opacity:1;stroke-miterlimit:10;" d="M 423 112 L 452.664062 112 L 464.664062 83.785156 L 476.664062 112 L 506.332031 112 L 482.332031 129.4375 L 490.417969 160.980469 L 464.664062 143.542969 L 438.914062 160.980469 L 451.214844 129.4375 L 423 112 "/>
<path style="fill-rule:nonzero;fill:rgb(100%,51%,0%);fill-opacity:1;stroke-width:1;stroke-linecap:butt;stroke-linejoin:miter;stroke:rgb(0%,0%,0%);stroke-opacity:1;stroke-miterlimit:10;" d="M 570 301 L 599.664062 301 L 611.664062 272.785156 L 623.664062 301 L 653.332031 301 L 629.332031 318.4375 L 637.417969 349.980469 L 611.664062 332.542969 L 585.914062 349.980469 L 598.214844 318.4375 L 570 301 "/>
<path style="fill-rule:nonzero;fill:rgb(100%,51%,0%);fill-opacity:1;stroke-width:1;stroke-linecap:butt;stroke-linejoin:miter;stroke:rgb(0%,0%,0%);stroke-opacity:1;stroke-miterlimit:10;" d="M 361 403 L 390.664062 403 L 402.664062 374.785156 L 414.664062 403 L 444.332031 403 L 420.332031 420.4375 L 428.417969 451.980469 L 402.664062 434.542969 L 376.914062 451.980469 L 389.214844 420.4375 L 361 403 "/>
<path style="fill-rule:nonzero;fill:rgb(53%,27%,7%);fill-opacity:1;stroke-width:1;stroke-linecap:butt;stroke-linejoin:miter;stroke:rgb(0%,0%,0%);stroke-opacity:1;stroke-miterlimit:10;" d="M 799.214844 170 C 799.214844 181.714844 789.714844 191.214844 778 191.214844 C 766.285156 191.214844 756.785156 181.714844 756.785156 170 C 756.785156 158.285156 766.285156 148.785156 778 148.785156 C 789.714844 148.785156 799.214844 158.285156 799.214844 170 "/>
<path style="fill-rule:nonzero;fill:rgb(53%,27%,7%);fill-opacity:1;stroke-width:1;stroke-linecap:butt;stroke-linejoin:miter;stroke:rgb(0%,0%,0%);stroke-opacity:1;stroke-miterlimit:10;" d="M 775.214844 321 C 775.214844 332.714844 765.714844 342.214844 754 342.214844 C 742.285156 342.214844 732.785156 332.714844 732.785156 321 C 732.785156 309.285156 742.285156 299.785156 754 299.785156 C 765.714844 299.785156 775.214844 309.285156 775.214844 321 "/>
<path style="fill-rule:nonzero;fill:rgb(53%,27%,7%);fill-opacity:1;stroke-width:1;stroke-linecap:butt;stroke-linejoin:miter;stroke:rgb(0%,0%,0%);stroke-opacity:1;stroke-miterlimit:10;" d="M 224.214844 146 C 224.214844 157.714844 214.714844 167.214844 203 167.214844 C 191.285156 167.214844 181.785156 157.714844 181.785156 146 C 181.785156 134.285156 191.285156 124.785156 203 124.785156 C 214.714844 124.785156 224.214844 134.285156 224.214844 146 "/>
<path style="fill-rule:nonzero;fill:rgb(53%,27%,7%);fill-opacity:1;stroke-width:1;stroke-linecap:butt;stroke-linejoin:miter;stroke:rgb(0%,0%,0%);stroke-opacity:1;stroke-miterlimit:10;" d="M 925.214844 158 C 925.214844 169.714844 915.714844 179.214844 904 179.214844 C 892.285156 179.214844 882.785156 169.714844 882.785156 158 C 882.785156 146.285156 892.285156 136.785156 904 136.785156 C 915.714844 136.785156 925.214844 146.285156 925.214844 158 "/>
<path style="fill-rule:nonzero;fill:rgb(53%,27%,7%);fill-opacity:1;stroke-width:1;stroke-linecap:butt;stroke-linejoin:miter;stroke:rgb(0%,0%,0%);stroke-opacity:1;stroke-miterlimit:10;" d="M 1056.214844 264 C 1056.214844 275.714844 1046.714844 285.214844 1035 285.214844 C 1023.285156 285.214844 1013.785156 275.714844 1013.785156 264 C 1013.785156 252.285156 1023.285156 242.785156 1035 242.785156 C 1046.714844 242.785156 1056.214844 252.285156 1056.214844 264 "/>
</g>
</svg>
