<?xml version="1.0" encoding="UTF-8"?>
<svg xmlns="http://www.w3.org/2000/svg" xmlns:xlink="http://www.w3.org/1999/xlink" width="1179pt" height="517pt" viewBox="0 0 1179 517" version="1.1">
<g id="surface531">
<rect x="0" y="0" width="1179" height="517" style="fill:rgb(90%,90%,90%);fill-opacity:1;stroke:none;"/>
<path style="fill-rule:nonzero;fill:rgb(55%,51%,53%);fill-opacity:1;stroke-width:1;stroke-linecap:butt;stroke-linejoin:miter;stroke:rgb(0%,0%,0%);stroke-opacity:1;stroke-miterlimit:10;" d="M 371.214844 427 C 371.214844 438.714844 361.714844 448.214844 350 448.214844 C 338.285156 448.214844 328.785156 438.714844 328.785156 427 C 328.785156 415.285156 338.285156 405.785156 350 405.785156 C 361.714844 405.785156 371.214844 415.285156 371.214844 427 "/>
<path style="fill-rule:nonzero;fill:rgb(55%,51%,53%);fill-opacity:1;stroke-width:1;stroke-linecap:butt;stroke-linejoin:miter;stroke:rgb(0%,0%,0%);stroke-opacity:1;stroke-miterlimit:10;" d="M 383.214844 180 C 383.214844 191.714844 373.714844 201.214844 362 201.214844 C 350.285156 201.214844 340.785156 191.714844 340.785156 180 C 340.785156 168.285156 350.285156 158.785156 362 158.785156 C 373.714844 158.785156 383.214844 168.285156 383.214844 180 "/>
<path style="fill-rule:nonzero;fill:rgb(53%,27%,7%);fill-opacity:1;stroke-width:1;stroke-linecap:butt;stroke-linejoin:miter;stroke:rgb(0%,0%,0%);stroke-opacity:1;stroke-miterlimit:10;" d="M 163.214844 121 C 163.214844 132.714844 153.714844 142.214844 142 142.214844 C 130.285156 142.214844 120.785156 132.714844 120.785156 121 C 120.785156 109.285156 130.285156 99.785156 142 99.785156 C 153.714844 99.785156 163.214844 109.285156 163.214844 121 "/>
<path style="fill-rule:nonzero;fill:rgb(53%,27%,7%);fill-opacity:1;stroke-width:1;stroke-linecap:butt;stroke-linejoin:miter;stroke:rgb(0%,0%,0%);stroke-opacity:1;stroke-miterlimit:10;" d="M 682.785156 344.785156 L 682.785156 387.214844 L 725.214844 387.214844 L 725.214844 344.785156 L 682.785156 344.785156 "/>
<path style="fill-rule:nonzero;fill:rgb(53%,27%,7%);fill-opacity:1;stroke-width:1;stroke-linecap:butt;stroke-linejoin:miter;stroke:rgb(0%,0%,0%);stroke-opacity:1;stroke-miterlimit:10;" d="M 826.785156 276.785156 L 826.785156 319.214844 L 869.214844 319.214844 L 869.214844 276.785156 L 826.785156 276.785156 "/>
<path style="fill-rule:nonzero;fill:rgb(55%,51%,53%);fill-opacity:1;stroke-width:1;stroke-linecap:butt;stroke-linejoin:miter;stroke:rgb(0%,0%,0%);stroke-opacity:1;stroke-miterlimit:10;" d="M 863.785156 125.785156 L 863.785156 168.214844 L 906.214844 168.214844 L 906.214844 125.785156 L 863.785156 125.785156 "/>
<path style="fill-rule:nonzero;fill:rgb(55%,51%,53%);fill-opacity:1;stroke-width:1;stroke-linecap:butt;stroke-linejoin:miter;stroke:rgb(0%,0%,0%);stroke-opacity:1;stroke-miterlimit:10;" d="M 971.785156 164.785156 L 971.785156 207.214844 L 1014.214844 207.214844 L 1014.214844 164.785156 L 971.785156 164.785156 "/>
</g>
</svg>
