<?xml version="1.0" encoding="UTF-8"?>
<svg xmlns="http://www.w3.org/2000/svg" xmlns:xlink="http://www.w3.org/1999/xlink" width="1179pt" height="517pt" viewBox="0 0 1179 517" version="1.1">
<g id="surface1066">
<rect x="0" y="0" width="1179" height="517" style="fill:rgb(90%,90%,90%);fill-opacity:1;stroke:none;"/>
<path style="fill-rule:nonzero;fill:rgb(100%,51%,0%);fill-opacity:1;stroke-width:1;stroke-linecap:butt;stroke-linejoin:miter;stroke:rgb(0%,0%,0%);stroke-opacity:1;stroke-miterlimit:10;" d="M 479 351 L 453.019531 396 L 504.980469 396 L 479 351 "/>
<path style="fill-rule:nonzero;fill:rgb(100%,51%,0%);fill-opacity:1;stroke-width:1;stroke-linecap:butt;stroke-linejoin:miter;stroke:rgb(0%,0%,0%);stroke-opacity:1;stroke-miterlimit:10;" d="M 982 216 L 956.019531 261 L 1007.980469 261 L 982 216 "/>
<path style="fill-rule:nonzero;fill:rgb(100%,51%,0%);fill-opacity:1;stroke-width:1;stroke-linecap:butt;stroke-linejoin:miter;stroke:rgb(0%,0%,0%);stroke-opacity:1;stroke-miterlimit:10;" d="M 99 383 L 73.019531 428 L 124.980469 428 L 99 383 "/>
<path style="fill-rule:nonzero;fill:rgb(53%,27%,7%);fill-opacity:1;stroke-width:1;stroke-linecap:butt;stroke-linejoin:miter;stroke:rgb(0%,0%,0%);stroke-opacity:1;stroke-miterlimit:10;" d="M 646 173.601562 C 646 159.199219 622 159.199219 622 173.601562 C 622 188 646 190.398438 646 202.398438 C 646 190.398438 670 188 670 173.601562 C 670 159.199219 646 159.199219 646 173.601562 "/>
<path style="fill-rule:nonzero;fill:rgb(53%,27%,7%);fill-opacity:1;stroke-width:1;stroke-linecap:butt;stroke-linejoin:miter;stroke:rgb(0%,0%,0%);stroke-opacity:1;stroke-miterlimit:10;" d="M 817 163.601562 C 817 149.199219 793 149.199219 793 163.601562 C 793 178 817 180.398438 817 192.398438 C 817 180.398438 841 178 841 163.601562 C 841 149.199219 817 149.199219 817 163.601562 "/>
<path style="fill-rule:nonzero;fill:rgb(53%,27%,7%);fill-opacity:1;stroke-width:1;stroke-linecap:butt;stroke-linejoin:miter;stroke:rgb(0%,0%,0%);stroke-opacity:1;stroke-miterlimit:10;" d="M 263 230.601562 C 263 216.199219 239 216.199219 239 230.601562 C 239 245 263 247.398438 263 259.398438 C 263 247.398438 287 245 287 230.601562 C 287 216.199219 263 216.199219 263 230.601562 "/>
<path style="fill-rule:nonzero;fill:rgb(53%,27%,7%);fill-opacity:1;stroke-width:1;stroke-linecap:butt;stroke-linejoin:miter;stroke:rgb(0%,0%,0%);stroke-opacity:1;stroke-miterlimit:10;" d="M 714 405.601562 C 714 391.199219 690 391.199219 690 405.601562 C 690 420 714 422.398438 714 434.398438 C 714 422.398438 738 420 738 405.601562 C 738 391.199219 714 391.199219 714 405.601562 "/>
<path style="fill-rule:nonzero;fill:rgb(53%,27%,7%);fill-opacity:1;stroke-width:1;stroke-linecap:butt;stroke-linejoin:miter;stroke:rgb(0%,0%,0%);stroke-opacity:1;stroke-miterlimit:10;" d="M 887 414.601562 C 887 400.199219 863 400.199219 863 414.601562 C 863 429 887 431.398438 887 443.398438 C 887 431.398438 911 429 911 414.601562 C 911 400.199219 887 400.199219 887 414.601562 "/>
</g>
</svg>
