<?xml version="1.0" encoding="UTF-8"?>
<svg xmlns="http://www.w3.org/2000/svg" xmlns:xlink="http://www.w3.org/1999/xlink" width="1179pt" height="517pt" viewBox="0 0 1179 517" version="1.1">
<g id="surface806">
<rect x="0" y="0" width="1179" height="517" style="fill:rgb(90%,90%,90%);fill-opacity:1;stroke:none;"/>
<path style="fill-rule:nonzero;fill:rgb(53%,27%,7%);fill-opacity:1;stroke-width:1;stroke-linecap:butt;stroke-linejoin:miter;stroke:rgb(0%,0%,0%);stroke-opacity:1;stroke-miterlimit:10;" d="M 163 403.601562 C 163 389.199219 139 389.199219 139 403.601562 C 139 418 163 420.398438 163 432.398438 C 163 420.398438 187 418 187 403.601562 C 187 389.199219 163 389.199219 163 403.601562 "/>
<path style="fill-rule:nonzero;fill:rgb(53%,27%,7%);fill-opacity:1;stroke-width:1;stroke-linecap:butt;stroke-linejoin:miter;stroke:rgb(0%,0%,0%);stroke-opacity:1;stroke-miterlimit:10;" d="M 199.214844 232 C 199.214844 243.714844 189.714844 253.214844 178 253.214844 C 166.285156 253.214844 156.785156 243.714844 156.785156 232 C 156.785156 220.285156 166.285156 210.785156 178 210.785156 C 189.714844 210.785156 199.214844 220.285156 199.214844 232 "/>
<path style="fill-rule:nonzero;fill:rgb(53%,27%,7%);fill-opacity:1;stroke-width:1;stroke-linecap:butt;stroke-linejoin:miter;stroke:rgb(0%,0%,0%);stroke-opacity:1;stroke-miterlimit:10;" d="M 115 106.601562 C 115 92.199219 91 92.199219 91 106.601562 C 91 121 115 123.398438 115 135.398438 C 115 123.398438 139 121 139 106.601562 C 139 92.199219 115 92.199219 115 106.601562 "/>
<path style="fill-rule:nonzero;fill:rgb(53%,27%,7%);fill-opacity:1;stroke-width:1;stroke-linecap:butt;stroke-linejoin:miter;stroke:rgb(0%,0%,0%);stroke-opacity:1;stroke-miterlimit:10;" d="M 264 329.601562 C 264 315.199219 240 315.199219 240 329.601562 C 240 344 264 346.398438 264 358.398438 C 264 346.398438 288 344 288 329.601562 C 288 315.199219 264 315.199219 264 329.601562 "/>
<path style="fill-rule:nonzero;fill:rgb(100%,51%,0%);fill-opacity:1;stroke-width:1;stroke-linecap:butt;stroke-linejoin:miter;stroke:rgb(0%,0%,0%);stroke-opacity:1;stroke-miterlimit:10;" d="M 971.214844 286 C 971.214844 297.714844 961.714844 307.214844 950 307.214844 C 938.285156 307.214844 928.785156 297.714844 928.785156 286 C 928.785156 274.285156 938.285156 264.785156 950 264.785156 C 961.714844 264.785156 971.214844 274.285156 971.214844 286 "/>
<path style="fill-rule:nonzero;fill:rgb(100%,51%,0%);fill-opacity:1;stroke-width:1;stroke-linecap:butt;stroke-linejoin:miter;stroke:rgb(0%,0%,0%);stroke-opacity:1;stroke-miterlimit:10;" d="M 834 208.601562 C 834 194.199219 810 194.199219 810 208.601562 C 810 223 834 225.398438 834 237.398438 C 834 225.398438 858 223 858 208.601562 C 858 194.199219 834 194.199219 834 208.601562 "/>
<path style="fill-rule:nonzero;fill:rgb(100%,51%,0%);fill-opacity:1;stroke-width:1;stroke-linecap:butt;stroke-linejoin:miter;stroke:rgb(0%,0%,0%);stroke-opacity:1;stroke-miterlimit:10;" d="M 765.214844 140 C 765.214844 151.714844 755.714844 161.214844 744 161.214844 C 732.285156 161.214844 722.785156 151.714844 722.785156 140 C 722.785156 128.285156 732.285156 118.785156 744 118.785156 C 755.714844 118.785156 765.214844 128.285156 765.214844 140 "/>
</g>
</svg>
