<?xml version="1.0" encoding="UTF-8"?>
<svg xmlns="http://www.w3.org/2000/svg" xmlns:xlink="http://www.w3.org/1999/xlink" width="1179pt" height="517pt" viewBox="0 0 1179 517" version="1.1">
<g id="surface396">
<rect x="0" y="0" width="1179" height="517" style="fill:rgb(90%,90%,90%);fill-opacity:1;stroke:none;"/>
<path style="fill-rule:nonzero;fill:rgb(35%,70%,90%);fill-opacity:1;stroke-width:1;stroke-linecap:butt;stroke-linejoin:miter;stroke:rgb(0%,0%,0%);stroke-opacity:1;stroke-miterlimit:10;" d="M 671 131 L 700.664062 131 L 712.664062 102.785156 L 724.664062 131 L 754.332031 131 L 730.332031 148.4375 L 738.417969 179.980469 L 712.664062 162.542969 L 686.914062 179.980469 L 699.214844 148.4375 L 671 131 "/>
<path style="fill-rule:nonzero;fill:rgb(35%,70%,90%);fill-opacity:1;stroke-width:1;stroke-linecap:butt;stroke-linejoin:miter;stroke:rgb(0%,0%,0%);stroke-opacity:1;stroke-miterlimit:10;" d="M 876 133 L 905.664062 133 L 917.664062 104.785156 L 929.664062 133 L 959.332031 133 L 935.332031 150.4375 L 943.417969 181.980469 L 917.664062 164.542969 L 891.914062 181.980469 L 904.214844 150.4375 L 876 133 "/>
<path style="fill-rule:nonzero;fill:rgb(35%,70%,90%);fill-opacity:1;stroke-width:1;stroke-linecap:butt;stroke-linejoin:miter;stroke:rgb(0%,0%,0%);stroke-opacity:1;stroke-miterlimit:10;" d="M 377 344 L 406.664062 344 L 418.664062 315.785156 L 430.664062 344 L 460.332031 344 L 436.332031 361.4375 L 444.417969 392.980469 L 418.664062 375.542969 L 392.914062 392.980469 L 405.214844 361.4375 L 377 344 "/>
<path style="fill-rule:nonzero;fill:rgb(35%,70%,90%);fill-opacity:1;stroke-width:1;stroke-linecap:butt;stroke-linejoin:miter;stroke:rgb(0%,0%,0%);stroke-opacity:1;stroke-miterlimit:10;" d="M 870 364 L 899.664062 364 L 911.664062 335.785156 L 923.664062 364 L 953.332031 364 L 929.332031 381.4375 L 937.417969 412.980469 L 911.664062 395.542969 L 885.914062 412.980469 L 898.214844 381.4375 L 870 364 "/>
<path style="fill-rule:nonzero;fill:rgb(53%,27%,7%);fill-opacity:1;stroke-width:1;stroke-linecap:butt;stroke-linejoin:miter;stroke:rgb(0%,0%,0%);stroke-opacity:1;stroke-miterlimit:10;" d="M 663 249 L 637.019531 294 L 688.980469 294 L 663 249 "/>
<path style="fill-rule:nonzero;fill:rgb(53%,27%,7%);fill-opacity:1;stroke-width:1;stroke-linecap:butt;stroke-linejoin:miter;stroke:rgb(0%,0%,0%);stroke-opacity:1;stroke-miterlimit:10;" d="M 83 209 L 57.019531 254 L 108.980469 254 L 83 209 "/>
<path style="fill-rule:nonzero;fill:rgb(53%,27%,7%);fill-opacity:1;stroke-width:1;stroke-linecap:butt;stroke-linejoin:miter;stroke:rgb(0%,0%,0%);stroke-opacity:1;stroke-miterlimit:10;" d="M 419 155 L 393.019531 200 L 444.980469 200 L 419 155 "/>
<path style="fill-rule:nonzero;fill:rgb(53%,27%,7%);fill-opacity:1;stroke-width:1;stroke-linecap:butt;stroke-linejoin:miter;stroke:rgb(0%,0%,0%);stroke-opacity:1;stroke-miterlimit:10;" d="M 248 60 L 222.019531 105 L 273.980469 105 L 248 60 "/>
</g>
</svg>
