<?xml version="1.0" encoding="UTF-8"?>
<svg xmlns="http://www.w3.org/2000/svg" xmlns:xlink="http://www.w3.org/1999/xlink" width="1179pt" height="517pt" viewBox="0 0 1179 517" version="1.1">
<g id="surface1156">
<rect x="0" y="0" width="1179" height="517" style="fill:rgb(90%,90%,90%);fill-opacity:1;stroke:none;"/>
<path style="fill-rule:nonzero;fill:rgb(100%,51%,0%);fill-opacity:1;stroke-width:1;stroke-linecap:butt;stroke-linejoin:miter;stroke:rgb(0%,0%,0%);stroke-opacity:1;stroke-miterlimit:10;" d="M 474 136 L 448.019531 181 L 499.980469 181 L 474 136 "/>
<path style="fill-rule:nonzero;fill:rgb(100%,51%,0%);fill-opacity:1;stroke-width:1;stroke-linecap:butt;stroke-linejoin:miter;stroke:rgb(0%,0%,0%);stroke-opacity:1;stroke-miterlimit:10;" d="M 709 105 L 683.019531 150 L 734.980469 150 L 709 105 "/>
<path style="fill-rule:nonzero;fill:rgb(100%,51%,0%);fill-opacity:1;stroke-width:1;stroke-linecap:butt;stroke-linejoin:miter;stroke:rgb(0%,0%,0%);stroke-opacity:1;stroke-miterlimit:10;" d="M 465 301 L 439.019531 346 L 490.980469 346 L 465 301 "/>
<path style="fill-rule:nonzero;fill:rgb(53%,27%,7%);fill-opacity:1;stroke-width:1;stroke-linecap:butt;stroke-linejoin:miter;stroke:rgb(0%,0%,0%);stroke-opacity:1;stroke-miterlimit:10;" d="M 762 239.601562 C 762 225.199219 738 225.199219 738 239.601562 C 738 254 762 256.398438 762 268.398438 C 762 256.398438 786 254 786 239.601562 C 786 225.199219 762 225.199219 762 239.601562 "/>
<path style="fill-rule:nonzero;fill:rgb(53%,27%,7%);fill-opacity:1;stroke-width:1;stroke-linecap:butt;stroke-linejoin:miter;stroke:rgb(0%,0%,0%);stroke-opacity:1;stroke-miterlimit:10;" d="M 307 107.601562 C 307 93.199219 283 93.199219 283 107.601562 C 283 122 307 124.398438 307 136.398438 C 307 124.398438 331 122 331 107.601562 C 331 93.199219 307 93.199219 307 107.601562 "/>
<path style="fill-rule:nonzero;fill:rgb(53%,27%,7%);fill-opacity:1;stroke-width:1;stroke-linecap:butt;stroke-linejoin:miter;stroke:rgb(0%,0%,0%);stroke-opacity:1;stroke-miterlimit:10;" d="M 843 119.601562 C 843 105.199219 819 105.199219 819 119.601562 C 819 134 843 136.398438 843 148.398438 C 843 136.398438 867 134 867 119.601562 C 867 105.199219 843 105.199219 843 119.601562 "/>
<path style="fill-rule:nonzero;fill:rgb(53%,27%,7%);fill-opacity:1;stroke-width:1;stroke-linecap:butt;stroke-linejoin:miter;stroke:rgb(0%,0%,0%);stroke-opacity:1;stroke-miterlimit:10;" d="M 196 321.601562 C 196 307.199219 172 307.199219 172 321.601562 C 172 336 196 338.398438 196 350.398438 C 196 338.398438 220 336 220 321.601562 C 220 307.199219 196 307.199219 196 321.601562 "/>
<path style="fill-rule:nonzero;fill:rgb(53%,27%,7%);fill-opacity:1;stroke-width:1;stroke-linecap:butt;stroke-linejoin:miter;stroke:rgb(0%,0%,0%);stroke-opacity:1;stroke-miterlimit:10;" d="M 998 317.601562 C 998 303.199219 974 303.199219 974 317.601562 C 974 332 998 334.398438 998 346.398438 C 998 334.398438 1022 332 1022 317.601562 C 1022 303.199219 998 303.199219 998 317.601562 "/>
</g>
</svg>
