<?xml version="1.0" encoding="UTF-8"?>
<svg xmlns="http://www.w3.org/2000/svg" xmlns:xlink="http://www.w3.org/1999/xlink" width="1179pt" height="517pt" viewBox="0 0 1179 517" version="1.1">
<g id="surface1276">
<rect x="0" y="0" width="1179" height="517" style="fill:rgb(90%,90%,90%);fill-opacity:1;stroke:none;"/>
<path style="fill-rule:nonzero;fill:rgb(100%,51%,0%);fill-opacity:1;stroke-width:1;stroke-linecap:butt;stroke-linejoin:miter;stroke:rgb(0%,0%,0%);stroke-opacity:1;stroke-miterlimit:10;" d="M 664 257 L 693.664062 257 L 705.664062 228.785156 L 717.664062 257 L 747.332031 257 L 723.332031 274.4375 L 731.417969 305.980469 L 705.664062 288.542969 L 679.914062 305.980469 L 692.214844 274.4375 L 664 257 "/>
<path style="fill-rule:nonzero;fill:rgb(100%,51%,0%);fill-opacity:1;stroke-width:1;stroke-linecap:butt;stroke-linejoin:miter;stroke:rgb(0%,0%,0%);stroke-opacity:1;stroke-miterlimit:10;" d="M 284 177 L 313.664062 177 L 325.664062 148.785156 L 337.664062 177 L 367.332031 177 L 343.332031 194.4375 L 351.417969 225.980469 L 325.664062 208.542969 L 299.914062 225.980469 L 312.214844 194.4375 L 284 177 "/>
<path style="fill-rule:nonzero;fill:rgb(100%,51%,0%);fill-opacity:1;stroke-width:1;stroke-linecap:butt;stroke-linejoin:miter;stroke:rgb(0%,0%,0%);stroke-opacity:1;stroke-miterlimit:10;" d="M 796 224 L 825.664062 224 L 837.664062 195.785156 L 849.664062 224 L 879.332031 224 L 855.332031 241.4375 L 863.417969 272.980469 L 837.664062 255.542969 L 811.914062 272.980469 L 824.214844 241.4375 L 796 224 "/>
<path style="fill-rule:nonzero;fill:rgb(100%,51%,0%);fill-opacity:1;stroke-width:1;stroke-linecap:butt;stroke-linejoin:miter;stroke:rgb(0%,0%,0%);stroke-opacity:1;stroke-miterlimit:10;" d="M 491 156 L 520.664062 156 L 532.664062 127.785156 L 544.664062 156 L 574.332031 156 L 550.332031 173.4375 L 558.417969 204.980469 L 532.664062 187.542969 L 506.914062 204.980469 L 519.214844 173.4375 L 491 156 "/>
<path style="fill-rule:nonzero;fill:rgb(53%,27%,7%);fill-opacity:1;stroke-width:1;stroke-linecap:butt;stroke-linejoin:miter;stroke:rgb(0%,0%,0%);stroke-opacity:1;stroke-miterlimit:10;" d="M 466.214844 317 C 466.214844 328.714844 456.714844 338.214844 445 338.214844 C 433.285156 338.214844 423.785156 328.714844 423.785156 317 C 423.785156 305.285156 433.285156 295.785156 445 295.785156 C 456.714844 295.785156 466.214844 305.285156 466.214844 317 "/>
<path style="fill-rule:nonzero;fill:rgb(53%,27%,7%);fill-opacity:1;stroke-width:1;stroke-linecap:butt;stroke-linejoin:miter;stroke:rgb(0%,0%,0%);stroke-opacity:1;stroke-miterlimit:10;" d="M 354.214844 376 C 354.214844 387.714844 344.714844 397.214844 333 397.214844 C 321.285156 397.214844 311.785156 387.714844 311.785156 376 C 311.785156 364.285156 321.285156 354.785156 333 354.785156 C 344.714844 354.785156 354.214844 364.285156 354.214844 376 "/>
<path style="fill-rule:nonzero;fill:rgb(53%,27%,7%);fill-opacity:1;stroke-width:1;stroke-linecap:butt;stroke-linejoin:miter;stroke:rgb(0%,0%,0%);stroke-opacity:1;stroke-miterlimit:10;" d="M 638.214844 426 C 638.214844 437.714844 628.714844 447.214844 617 447.214844 C 605.285156 447.214844 595.785156 437.714844 595.785156 426 C 595.785156 414.285156 605.285156 404.785156 617 404.785156 C 628.714844 404.785156 638.214844 414.285156 638.214844 426 "/>
<path style="fill-rule:nonzero;fill:rgb(53%,27%,7%);fill-opacity:1;stroke-width:1;stroke-linecap:butt;stroke-linejoin:miter;stroke:rgb(0%,0%,0%);stroke-opacity:1;stroke-miterlimit:10;" d="M 984.214844 369 C 984.214844 380.714844 974.714844 390.214844 963 390.214844 C 951.285156 390.214844 941.785156 380.714844 941.785156 369 C 941.785156 357.285156 951.285156 347.785156 963 347.785156 C 974.714844 347.785156 984.214844 357.285156 984.214844 369 "/>
<path style="fill-rule:nonzero;fill:rgb(53%,27%,7%);fill-opacity:1;stroke-width:1;stroke-linecap:butt;stroke-linejoin:miter;stroke:rgb(0%,0%,0%);stroke-opacity:1;stroke-miterlimit:10;" d="M 800.214844 91 C 800.214844 102.714844 790.714844 112.214844 779 112.214844 C 767.285156 112.214844 757.785156 102.714844 757.785156 91 C 757.785156 79.285156 767.285156 69.785156 779 69.785156 C 790.714844 69.785156 800.214844 79.285156 800.214844 91 "/>
</g>
</svg>
