<?xml version="1.0" encoding="UTF-8"?>
<svg xmlns="http://www.w3.org/2000/svg" xmlns:xlink="http://www.w3.org/1999/xlink" width="1179pt" height="517pt" viewBox="0 0 1179 517" version="1.1">
<g id="surface701">
<rect x="0" y="0" width="1179" height="517" style="fill:rgb(90%,90%,90%);fill-opacity:1;stroke:none;"/>
<path style="fill-rule:nonzero;fill:rgb(55%,51%,53%);fill-opacity:1;stroke-width:1;stroke-linecap:butt;stroke-linejoin:miter;stroke:rgb(0%,0%,0%);stroke-opacity:1;stroke-miterlimit:10;" d="M 173 340 L 202.664062 340 L 214.664062 311.785156 L 226.664062 340 L 256.332031 340 L 232.332031 357.4375 L 240.417969 388.980469 L 214.664062 371.542969 L 188.914062 388.980469 L 201.214844 357.4375 L 173 340 "/>
<path style="fill-rule:nonzero;fill:rgb(53%,27%,7%);fill-opacity:1;stroke-width:1;stroke-linecap:butt;stroke-linejoin:miter;stroke:rgb(0%,0%,0%);stroke-opacity:1;stroke-miterlimit:10;" d="M 353 274 L 382.664062 274 L 394.664062 245.785156 L 406.664062 274 L 436.332031 274 L 412.332031 291.4375 L 420.417969 322.980469 L 394.664062 305.542969 L 368.914062 322.980469 L 381.214844 291.4375 L 353 274 "/>
<path style="fill-rule:nonzero;fill:rgb(55%,51%,53%);fill-opacity:1;stroke-width:1;stroke-linecap:butt;stroke-linejoin:miter;stroke:rgb(0%,0%,0%);stroke-opacity:1;stroke-miterlimit:10;" d="M 166 163 L 195.664062 163 L 207.664062 134.785156 L 219.664062 163 L 249.332031 163 L 225.332031 180.4375 L 233.417969 211.980469 L 207.664062 194.542969 L 181.914062 211.980469 L 194.214844 180.4375 L 166 163 "/>
<path style="fill-rule:nonzero;fill:rgb(55%,51%,53%);fill-opacity:1;stroke-width:1;stroke-linecap:butt;stroke-linejoin:miter;stroke:rgb(0%,0%,0%);stroke-opacity:1;stroke-miterlimit:10;" d="M 299 381 L 328.664062 381 L 340.664062 352.785156 L 352.664062 381 L 382.332031 381 L 358.332031 398.4375 L 366.417969 429.980469 L 340.664062 412.542969 L 314.914062 429.980469 L 327.214844 398.4375 L 299 381 "/>
<path style="fill-rule:nonzero;fill:rgb(53%,27%,7%);fill-opacity:1;stroke-width:1;stroke-linecap:butt;stroke-linejoin:miter;stroke:rgb(0%,0%,0%);stroke-opacity:1;stroke-miterlimit:10;" d="M 800.785156 303.785156 L 800.785156 346.214844 L 843.214844 346.214844 L 843.214844 303.785156 L 800.785156 303.785156 "/>
<path style="fill-rule:nonzero;fill:rgb(55%,51%,53%);fill-opacity:1;stroke-width:1;stroke-linecap:butt;stroke-linejoin:miter;stroke:rgb(0%,0%,0%);stroke-opacity:1;stroke-miterlimit:10;" d="M 893.785156 244.785156 L 893.785156 287.214844 L 936.214844 287.214844 L 936.214844 244.785156 L 893.785156 244.785156 "/>
<path style="fill-rule:nonzero;fill:rgb(53%,27%,7%);fill-opacity:1;stroke-width:1;stroke-linecap:butt;stroke-linejoin:miter;stroke:rgb(0%,0%,0%);stroke-opacity:1;stroke-miterlimit:10;" d="M 937.785156 379.785156 L 937.785156 422.214844 L 980.214844 422.214844 L 980.214844 379.785156 L 937.785156 379.785156 "/>
</g>
</svg>
