<?xml version="1.0" encoding="UTF-8"?>
<svg xmlns="http://www.w3.org/2000/svg" xmlns:xlink="http://www.w3.org/1999/xlink" width="1179pt" height="517pt" viewBox="0 0 1179 517" version="1.1">
<g id="surface1326">
<rect x="0" y="0" width="1179" height="517" style="fill:rgb(90%,90%,90%);fill-opacity:1;stroke:none;"/>
<path style="fill-rule:nonzero;fill:rgb(35%,70%,90%);fill-opacity:1;stroke-width:1;stroke-linecap:butt;stroke-linejoin:miter;stroke:rgb(0%,0%,0%);stroke-opacity:1;stroke-miterlimit:10;" d="M 447 150 L 476.664062 150 L 488.664062 121.785156 L 500.664062 150 L 530.332031 150 L 506.332031 167.4375 L 514.417969 198.980469 L 488.664062 181.542969 L 462.914062 198.980469 L 475.214844 167.4375 L 447 150 "/>
<path style="fill-rule:nonzero;fill:rgb(35%,70%,90%);fill-opacity:1;stroke-width:1;stroke-linecap:butt;stroke-linejoin:miter;stroke:rgb(0%,0%,0%);stroke-opacity:1;stroke-miterlimit:10;" d="M 118 395 L 147.664062 395 L 159.664062 366.785156 L 171.664062 395 L 201.332031 395 L 177.332031 412.4375 L 185.417969 443.980469 L 159.664062 426.542969 L 133.914062 443.980469 L 146.214844 412.4375 L 118 395 "/>
<path style="fill-rule:nonzero;fill:rgb(35%,70%,90%);fill-opacity:1;stroke-width:1;stroke-linecap:butt;stroke-linejoin:miter;stroke:rgb(0%,0%,0%);stroke-opacity:1;stroke-miterlimit:10;" d="M 629 382 L 658.664062 382 L 670.664062 353.785156 L 682.664062 382 L 712.332031 382 L 688.332031 399.4375 L 696.417969 430.980469 L 670.664062 413.542969 L 644.914062 430.980469 L 657.214844 399.4375 L 629 382 "/>
<path style="fill-rule:nonzero;fill:rgb(100%,51%,0%);fill-opacity:1;stroke-width:1;stroke-linecap:butt;stroke-linejoin:miter;stroke:rgb(0%,0%,0%);stroke-opacity:1;stroke-miterlimit:10;" d="M 737 195.601562 C 737 181.199219 713 181.199219 713 195.601562 C 713 210 737 212.398438 737 224.398438 C 737 212.398438 761 210 761 195.601562 C 761 181.199219 737 181.199219 737 195.601562 "/>
<path style="fill-rule:nonzero;fill:rgb(100%,51%,0%);fill-opacity:1;stroke-width:1;stroke-linecap:butt;stroke-linejoin:miter;stroke:rgb(0%,0%,0%);stroke-opacity:1;stroke-miterlimit:10;" d="M 340 255.601562 C 340 241.199219 316 241.199219 316 255.601562 C 316 270 340 272.398438 340 284.398438 C 340 272.398438 364 270 364 255.601562 C 364 241.199219 340 241.199219 340 255.601562 "/>
<path style="fill-rule:nonzero;fill:rgb(100%,51%,0%);fill-opacity:1;stroke-width:1;stroke-linecap:butt;stroke-linejoin:miter;stroke:rgb(0%,0%,0%);stroke-opacity:1;stroke-miterlimit:10;" d="M 528 272.601562 C 528 258.199219 504 258.199219 504 272.601562 C 504 287 528 289.398438 528 301.398438 C 528 289.398438 552 287 552 272.601562 C 552 258.199219 528 258.199219 528 272.601562 "/>
<path style="fill-rule:nonzero;fill:rgb(100%,51%,0%);fill-opacity:1;stroke-width:1;stroke-linecap:butt;stroke-linejoin:miter;stroke:rgb(0%,0%,0%);stroke-opacity:1;stroke-miterlimit:10;" d="M 180 192.601562 C 180 178.199219 156 178.199219 156 192.601562 C 156 207 180 209.398438 180 221.398438 C 180 209.398438 204 207 204 192.601562 C 204 178.199219 180 178.199219 180 192.601562 "/>
<path style="fill-rule:nonzero;fill:rgb(100%,51%,0%);fill-opacity:1;stroke-width:1;stroke-linecap:butt;stroke-linejoin:miter;stroke:rgb(0%,0%,0%);stroke-opacity:1;stroke-miterlimit:10;" d="M 947 380.601562 C 947 366.199219 923 366.199219 923 380.601562 C 923 395 947 397.398438 947 409.398438 C 947 397.398438 971 395 971 380.601562 C 971 366.199219 947 366.199219 947 380.601562 "/>
</g>
</svg>
