<?xml version="1.0" encoding="UTF-8"?>
<svg xmlns="http://www.w3.org/2000/svg" xmlns:xlink="http://www.w3.org/1999/xlink" width="1179pt" height="517pt" viewBox="0 0 1179 517" version="1.1">
<g id="surface156">
<rect x="0" y="0" width="1179" height="517" style="fill:rgb(90%,90%,90%);fill-opacity:1;stroke:none;"/>
<path style="fill-rule:nonzero;fill:rgb(55%,51%,53%);fill-opacity:1;stroke-width:1;stroke-linecap:butt;stroke-linejoin:miter;stroke:rgb(0%,0%,0%);stroke-opacity:1;stroke-miterlimit:10;" d="M 162 97 L 191.664062 97 L 203.664062 68.785156 L 215.664062 97 L 245.332031 97 L 221.332031 114.4375 L 229.417969 145.980469 L 203.664062 128.542969 L 177.914062 145.980469 L 190.214844 114.4375 L 162 97 "/>
<path style="fill-rule:nonzero;fill:rgb(53%,27%,7%);fill-opacity:1;stroke-width:1;stroke-linecap:butt;stroke-linejoin:miter;stroke:rgb(0%,0%,0%);stroke-opacity:1;stroke-miterlimit:10;" d="M 279 328 L 253.019531 373 L 304.980469 373 L 279 328 "/>
<path style="fill-rule:nonzero;fill:rgb(55%,51%,53%);fill-opacity:1;stroke-width:1;stroke-linecap:butt;stroke-linejoin:miter;stroke:rgb(0%,0%,0%);stroke-opacity:1;stroke-miterlimit:10;" d="M 224 173 L 253.664062 173 L 265.664062 144.785156 L 277.664062 173 L 307.332031 173 L 283.332031 190.4375 L 291.417969 221.980469 L 265.664062 204.542969 L 239.914062 221.980469 L 252.214844 190.4375 L 224 173 "/>
<path style="fill-rule:nonzero;fill:rgb(55%,51%,53%);fill-opacity:1;stroke-width:1;stroke-linecap:butt;stroke-linejoin:miter;stroke:rgb(0%,0%,0%);stroke-opacity:1;stroke-miterlimit:10;" d="M 319 262 L 348.664062 262 L 360.664062 233.785156 L 372.664062 262 L 402.332031 262 L 378.332031 279.4375 L 386.417969 310.980469 L 360.664062 293.542969 L 334.914062 310.980469 L 347.214844 279.4375 L 319 262 "/>
<path style="fill-rule:nonzero;fill:rgb(55%,51%,53%);fill-opacity:1;stroke-width:1;stroke-linecap:butt;stroke-linejoin:miter;stroke:rgb(0%,0%,0%);stroke-opacity:1;stroke-miterlimit:10;" d="M 188 343 L 217.664062 343 L 229.664062 314.785156 L 241.664062 343 L 271.332031 343 L 247.332031 360.4375 L 255.417969 391.980469 L 229.664062 374.542969 L 203.914062 391.980469 L 216.214844 360.4375 L 188 343 "/>
<path style="fill-rule:nonzero;fill:rgb(53%,27%,7%);fill-opacity:1;stroke-width:1;stroke-linecap:butt;stroke-linejoin:miter;stroke:rgb(0%,0%,0%);stroke-opacity:1;stroke-miterlimit:10;" d="M 426 275 L 400.019531 320 L 451.980469 320 L 426 275 "/>
<path style="fill-rule:nonzero;fill:rgb(53%,27%,7%);fill-opacity:1;stroke-width:1;stroke-linecap:butt;stroke-linejoin:miter;stroke:rgb(0%,0%,0%);stroke-opacity:1;stroke-miterlimit:10;" d="M 97 274 L 71.019531 319 L 122.980469 319 L 97 274 "/>
<path style="fill-rule:nonzero;fill:rgb(55%,51%,53%);fill-opacity:1;stroke-width:1;stroke-linecap:butt;stroke-linejoin:miter;stroke:rgb(0%,0%,0%);stroke-opacity:1;stroke-miterlimit:10;" d="M 971 331 L 1000.664062 331 L 1012.664062 302.785156 L 1024.664062 331 L 1054.332031 331 L 1030.332031 348.4375 L 1038.417969 379.980469 L 1012.664062 362.542969 L 986.914062 379.980469 L 999.214844 348.4375 L 971 331 "/>
<path style="fill-rule:nonzero;fill:rgb(55%,51%,53%);fill-opacity:1;stroke-width:1;stroke-linecap:butt;stroke-linejoin:miter;stroke:rgb(0%,0%,0%);stroke-opacity:1;stroke-miterlimit:10;" d="M 766 328 L 795.664062 328 L 807.664062 299.785156 L 819.664062 328 L 849.332031 328 L 825.332031 345.4375 L 833.417969 376.980469 L 807.664062 359.542969 L 781.914062 376.980469 L 794.214844 345.4375 L 766 328 "/>
<path style="fill-rule:nonzero;fill:rgb(55%,51%,53%);fill-opacity:1;stroke-width:1;stroke-linecap:butt;stroke-linejoin:miter;stroke:rgb(0%,0%,0%);stroke-opacity:1;stroke-miterlimit:10;" d="M 997 148 L 1026.664062 148 L 1038.664062 119.785156 L 1050.664062 148 L 1080.332031 148 L 1056.332031 165.4375 L 1064.417969 196.980469 L 1038.664062 179.542969 L 1012.914062 196.980469 L 1025.214844 165.4375 L 997 148 "/>
<path style="fill-rule:nonzero;fill:rgb(53%,27%,7%);fill-opacity:1;stroke-width:1;stroke-linecap:butt;stroke-linejoin:miter;stroke:rgb(0%,0%,0%);stroke-opacity:1;stroke-miterlimit:10;" d="M 736 165 L 710.019531 210 L 761.980469 210 L 736 165 "/>
<path style="fill-rule:nonzero;fill:rgb(53%,27%,7%);fill-opacity:1;stroke-width:1;stroke-linecap:butt;stroke-linejoin:miter;stroke:rgb(0%,0%,0%);stroke-opacity:1;stroke-miterlimit:10;" d="M 864 319 L 838.019531 364 L 889.980469 364 L 864 319 "/>
<path style="fill-rule:nonzero;fill:rgb(53%,27%,7%);fill-opacity:1;stroke-width:1;stroke-linecap:butt;stroke-linejoin:miter;stroke:rgb(0%,0%,0%);stroke-opacity:1;stroke-miterlimit:10;" d="M 904 122 L 878.019531 167 L 929.980469 167 L 904 122 "/>
<path style="fill-rule:nonzero;fill:rgb(55%,51%,53%);fill-opacity:1;stroke-width:1;stroke-linecap:butt;stroke-linejoin:miter;stroke:rgb(0%,0%,0%);stroke-opacity:1;stroke-miterlimit:10;" d="M 747 96 L 776.664062 96 L 788.664062 67.785156 L 800.664062 96 L 830.332031 96 L 806.332031 113.4375 L 814.417969 144.980469 L 788.664062 127.542969 L 762.914062 144.980469 L 775.214844 113.4375 L 747 96 "/>
<path style="fill-rule:nonzero;fill:rgb(55%,51%,53%);fill-opacity:1;stroke-width:1;stroke-linecap:butt;stroke-linejoin:miter;stroke:rgb(0%,0%,0%);stroke-opacity:1;stroke-miterlimit:10;" d="M 866 253 L 895.664062 253 L 907.664062 224.785156 L 919.664062 253 L 949.332031 253 L 925.332031 270.4375 L 933.417969 301.980469 L 907.664062 284.542969 L 881.914062 301.980469 L 894.214844 270.4375 L 866 253 "/>
</g>
</svg>
