<?xml version="1.0" encoding="UTF-8"?>
<svg xmlns="http://www.w3.org/2000/svg" xmlns:xlink="http://www.w3.org/1999/xlink" width="1179pt" height="517pt" viewBox="0 0 1179 517" version="1.1">
<g id="surface941">
<rect x="0" y="0" width="1179" height="517" style="fill:rgb(90%,90%,90%);fill-opacity:1;stroke:none;"/>
<path style="fill-rule:nonzero;fill:rgb(53%,27%,7%);fill-opacity:1;stroke-width:1;stroke-linecap:butt;stroke-linejoin:miter;stroke:rgb(0%,0%,0%);stroke-opacity:1;stroke-miterlimit:10;" d="M 387 86.601562 C 387 72.199219 363 72.199219 363 86.601562 C 363 101 387 103.398438 387 115.398438 C 387 103.398438 411 101 411 86.601562 C 411 72.199219 387 72.199219 387 86.601562 "/>
<path style="fill-rule:nonzero;fill:rgb(53%,27%,7%);fill-opacity:1;stroke-width:1;stroke-linecap:butt;stroke-linejoin:miter;stroke:rgb(0%,0%,0%);stroke-opacity:1;stroke-miterlimit:10;" d="M 154 168.601562 C 154 154.199219 130 154.199219 130 168.601562 C 130 183 154 185.398438 154 197.398438 C 154 185.398438 178 183 178 168.601562 C 178 154.199219 154 154.199219 154 168.601562 "/>
<path style="fill-rule:nonzero;fill:rgb(53%,27%,7%);fill-opacity:1;stroke-width:1;stroke-linecap:butt;stroke-linejoin:miter;stroke:rgb(0%,0%,0%);stroke-opacity:1;stroke-miterlimit:10;" d="M 382.214844 406 C 382.214844 417.714844 372.714844 427.214844 361 427.214844 C 349.285156 427.214844 339.785156 417.714844 339.785156 406 C 339.785156 394.285156 349.285156 384.785156 361 384.785156 C 372.714844 384.785156 382.214844 394.285156 382.214844 406 "/>
<path style="fill-rule:nonzero;fill:rgb(100%,51%,0%);fill-opacity:1;stroke-width:1;stroke-linecap:butt;stroke-linejoin:miter;stroke:rgb(0%,0%,0%);stroke-opacity:1;stroke-miterlimit:10;" d="M 981.214844 241 C 981.214844 252.714844 971.714844 262.214844 960 262.214844 C 948.285156 262.214844 938.785156 252.714844 938.785156 241 C 938.785156 229.285156 948.285156 219.785156 960 219.785156 C 971.714844 219.785156 981.214844 229.285156 981.214844 241 "/>
<path style="fill-rule:nonzero;fill:rgb(100%,51%,0%);fill-opacity:1;stroke-width:1;stroke-linecap:butt;stroke-linejoin:miter;stroke:rgb(0%,0%,0%);stroke-opacity:1;stroke-miterlimit:10;" d="M 979.214844 332 C 979.214844 343.714844 969.714844 353.214844 958 353.214844 C 946.285156 353.214844 936.785156 343.714844 936.785156 332 C 936.785156 320.285156 946.285156 310.785156 958 310.785156 C 969.714844 310.785156 979.214844 320.285156 979.214844 332 "/>
<path style="fill-rule:nonzero;fill:rgb(100%,51%,0%);fill-opacity:1;stroke-width:1;stroke-linecap:butt;stroke-linejoin:miter;stroke:rgb(0%,0%,0%);stroke-opacity:1;stroke-miterlimit:10;" d="M 849 130.601562 C 849 116.199219 825 116.199219 825 130.601562 C 825 145 849 147.398438 849 159.398438 C 849 147.398438 873 145 873 130.601562 C 873 116.199219 849 116.199219 849 130.601562 "/>
</g>
</svg>
