<?xml version="1.0" encoding="UTF-8"?>
<svg xmlns="http://www.w3.org/2000/svg" xmlns:xlink="http://www.w3.org/1999/xlink" width="1179pt" height="517pt" viewBox="0 0 1179 517" version="1.1">
<g id="surface986">
<rect x="0" y="0" width="1179" height="517" style="fill:rgb(90%,90%,90%);fill-opacity:1;stroke:none;"/>
<path style="fill-rule:nonzero;fill:rgb(53%,27%,7%);fill-opacity:1;stroke-width:1;stroke-linecap:butt;stroke-linejoin:miter;stroke:rgb(0%,0%,0%);stroke-opacity:1;stroke-miterlimit:10;" d="M 166 264.601562 C 166 250.199219 142 250.199219 142 264.601562 C 142 279 166 281.398438 166 293.398438 C 166 281.398438 190 279 190 264.601562 C 190 250.199219 166 250.199219 166 264.601562 "/>
<path style="fill-rule:nonzero;fill:rgb(53%,27%,7%);fill-opacity:1;stroke-width:1;stroke-linecap:butt;stroke-linejoin:miter;stroke:rgb(0%,0%,0%);stroke-opacity:1;stroke-miterlimit:10;" d="M 144.214844 170 C 144.214844 181.714844 134.714844 191.214844 123 191.214844 C 111.285156 191.214844 101.785156 181.714844 101.785156 170 C 101.785156 158.285156 111.285156 148.785156 123 148.785156 C 134.714844 148.785156 144.214844 158.285156 144.214844 170 "/>
<path style="fill-rule:nonzero;fill:rgb(53%,27%,7%);fill-opacity:1;stroke-width:1;stroke-linecap:butt;stroke-linejoin:miter;stroke:rgb(0%,0%,0%);stroke-opacity:1;stroke-miterlimit:10;" d="M 131 359.601562 C 131 345.199219 107 345.199219 107 359.601562 C 107 374 131 376.398438 131 388.398438 C 131 376.398438 155 374 155 359.601562 C 155 345.199219 131 345.199219 131 359.601562 "/>
<path style="fill-rule:nonzero;fill:rgb(53%,27%,7%);fill-opacity:1;stroke-width:1;stroke-linecap:butt;stroke-linejoin:miter;stroke:rgb(0%,0%,0%);stroke-opacity:1;stroke-miterlimit:10;" d="M 416.214844 125 C 416.214844 136.714844 406.714844 146.214844 395 146.214844 C 383.285156 146.214844 373.785156 136.714844 373.785156 125 C 373.785156 113.285156 383.285156 103.785156 395 103.785156 C 406.714844 103.785156 416.214844 113.285156 416.214844 125 "/>
<path style="fill-rule:nonzero;fill:rgb(100%,51%,0%);fill-opacity:1;stroke-width:1;stroke-linecap:butt;stroke-linejoin:miter;stroke:rgb(0%,0%,0%);stroke-opacity:1;stroke-miterlimit:10;" d="M 957.214844 353 C 957.214844 364.714844 947.714844 374.214844 936 374.214844 C 924.285156 374.214844 914.785156 364.714844 914.785156 353 C 914.785156 341.285156 924.285156 331.785156 936 331.785156 C 947.714844 331.785156 957.214844 341.285156 957.214844 353 "/>
<path style="fill-rule:nonzero;fill:rgb(100%,51%,0%);fill-opacity:1;stroke-width:1;stroke-linecap:butt;stroke-linejoin:miter;stroke:rgb(0%,0%,0%);stroke-opacity:1;stroke-miterlimit:10;" d="M 873 159.601562 C 873 145.199219 849 145.199219 849 159.601562 C 849 174 873 176.398438 873 188.398438 C 873 176.398438 897 174 897 159.601562 C 897 145.199219 873 145.199219 873 159.601562 "/>
<path style="fill-rule:nonzero;fill:rgb(100%,51%,0%);fill-opacity:1;stroke-width:1;stroke-linecap:butt;stroke-linejoin:miter;stroke:rgb(0%,0%,0%);stroke-opacity:1;stroke-miterlimit:10;" d="M 774.214844 293 C 774.214844 304.714844 764.714844 314.214844 753 314.214844 C 741.285156 314.214844 731.785156 304.714844 731.785156 293 C 731.785156 281.285156 741.285156 271.785156 753 271.785156 C 764.714844 271.785156 774.214844 281.285156 774.214844 293 "/>
<path style="fill-rule:nonzero;fill:rgb(100%,51%,0%);fill-opacity:1;stroke-width:1;stroke-linecap:butt;stroke-linejoin:miter;stroke:rgb(0%,0%,0%);stroke-opacity:1;stroke-miterlimit:10;" d="M 1028 89.601562 C 1028 75.199219 1004 75.199219 1004 89.601562 C 1004 104 1028 106.398438 1028 118.398438 C 1028 106.398438 1052 104 1052 89.601562 C 1052 75.199219 1028 75.199219 1028 89.601562 "/>
</g>
</svg>
