<?xml version="1.0" encoding="UTF-8"?>
<svg xmlns="http://www.w3.org/2000/svg" xmlns:xlink="http://www.w3.org/1999/xlink" width="1179pt" height="517pt" viewBox="0 0 1179 517" version="1.1">
<g id="surface986">
<rect x="0" y="0" width="1179" height="517" style="fill:rgb(90%,90%,90%);fill-opacity:1;stroke:none;"/>
<path style="fill-rule:nonzero;fill:rgb(53%,27%,7%);fill-opacity:1;stroke-width:1;stroke-linecap:butt;stroke-linejoin:miter;stroke:rgb(0%,0%,0%);stroke-opacity:1;stroke-miterlimit:10;" d="M 89 218.601562 C 89 204.199219 65 204.199219 65 218.601562 C 65 233 89 235.398438 89 247.398438 C 89 235.398438 113 233 113 218.601562 C 113 204.199219 89 204.199219 89 218.601562 "/>
<path style="fill-rule:nonzero;fill:rgb(53%,27%,7%);fill-opacity:1;stroke-width:1;stroke-linecap:butt;stroke-linejoin:miter;stroke:rgb(0%,0%,0%);stroke-opacity:1;stroke-miterlimit:10;" d="M 212 71.601562 C 212 57.199219 188 57.199219 188 71.601562 C 188 86 212 88.398438 212 100.398438 C 212 88.398438 236 86 236 71.601562 C 236 57.199219 212 57.199219 212 71.601562 "/>
<path style="fill-rule:nonzero;fill:rgb(53%,27%,7%);fill-opacity:1;stroke-width:1;stroke-linecap:butt;stroke-linejoin:miter;stroke:rgb(0%,0%,0%);stroke-opacity:1;stroke-miterlimit:10;" d="M 307 163.601562 C 307 149.199219 283 149.199219 283 163.601562 C 283 178 307 180.398438 307 192.398438 C 307 180.398438 331 178 331 163.601562 C 331 149.199219 307 149.199219 307 163.601562 "/>
<path style="fill-rule:nonzero;fill:rgb(53%,27%,7%);fill-opacity:1;stroke-width:1;stroke-linecap:butt;stroke-linejoin:miter;stroke:rgb(0%,0%,0%);stroke-opacity:1;stroke-miterlimit:10;" d="M 389.214844 353 C 389.214844 364.714844 379.714844 374.214844 368 374.214844 C 356.285156 374.214844 346.785156 364.714844 346.785156 353 C 346.785156 341.285156 356.285156 331.785156 368 331.785156 C 379.714844 331.785156 389.214844 341.285156 389.214844 353 "/>
<path style="fill-rule:nonzero;fill:rgb(100%,51%,0%);fill-opacity:1;stroke-width:1;stroke-linecap:butt;stroke-linejoin:miter;stroke:rgb(0%,0%,0%);stroke-opacity:1;stroke-miterlimit:10;" d="M 1024.214844 189 C 1024.214844 200.714844 1014.714844 210.214844 1003 210.214844 C 991.285156 210.214844 981.785156 200.714844 981.785156 189 C 981.785156 177.285156 991.285156 167.785156 1003 167.785156 C 1014.714844 167.785156 1024.214844 177.285156 1024.214844 189 "/>
<path style="fill-rule:nonzero;fill:rgb(100%,51%,0%);fill-opacity:1;stroke-width:1;stroke-linecap:butt;stroke-linejoin:miter;stroke:rgb(0%,0%,0%);stroke-opacity:1;stroke-miterlimit:10;" d="M 877.214844 274 C 877.214844 285.714844 867.714844 295.214844 856 295.214844 C 844.285156 295.214844 834.785156 285.714844 834.785156 274 C 834.785156 262.285156 844.285156 252.785156 856 252.785156 C 867.714844 252.785156 877.214844 262.285156 877.214844 274 "/>
<path style="fill-rule:nonzero;fill:rgb(100%,51%,0%);fill-opacity:1;stroke-width:1;stroke-linecap:butt;stroke-linejoin:miter;stroke:rgb(0%,0%,0%);stroke-opacity:1;stroke-miterlimit:10;" d="M 982.214844 385 C 982.214844 396.714844 972.714844 406.214844 961 406.214844 C 949.285156 406.214844 939.785156 396.714844 939.785156 385 C 939.785156 373.285156 949.285156 363.785156 961 363.785156 C 972.714844 363.785156 982.214844 373.285156 982.214844 385 "/>
<path style="fill-rule:nonzero;fill:rgb(100%,51%,0%);fill-opacity:1;stroke-width:1;stroke-linecap:butt;stroke-linejoin:miter;stroke:rgb(0%,0%,0%);stroke-opacity:1;stroke-miterlimit:10;" d="M 802 114.601562 C 802 100.199219 778 100.199219 778 114.601562 C 778 129 802 131.398438 802 143.398438 C 802 131.398438 826 129 826 114.601562 C 826 100.199219 802 100.199219 802 114.601562 "/>
</g>
</svg>
