<?xml version="1.0" encoding="UTF-8"?>
<svg xmlns="http://www.w3.org/2000/svg" xmlns:xlink="http://www.w3.org/1999/xlink" width="1179pt" height="517pt" viewBox="0 0 1179 517" version="1.1">
<g id="surface101">
<rect x="0" y="0" width="1179" height="517" style="fill:rgb(90%,90%,90%);fill-opacity:1;stroke:none;"/>
<path style="fill-rule:nonzero;fill:rgb(100%,51%,0%);fill-opacity:1;stroke-width:1;stroke-linecap:butt;stroke-linejoin:miter;stroke:rgb(0%,0%,0%);stroke-opacity:1;stroke-miterlimit:10;" d="M 242 152 L 271.664062 152 L 283.664062 123.785156 L 295.664062 152 L 325.332031 152 L 301.332031 169.4375 L 309.417969 200.980469 L 283.664062 183.542969 L 257.914062 200.980469 L 270.214844 169.4375 L 242 152 "/>
<path style="fill-rule:nonzero;fill:rgb(100%,51%,0%);fill-opacity:1;stroke-width:1;stroke-linecap:butt;stroke-linejoin:miter;stroke:rgb(0%,0%,0%);stroke-opacity:1;stroke-miterlimit:10;" d="M 118 342 L 147.664062 342 L 159.664062 313.785156 L 171.664062 342 L 201.332031 342 L 177.332031 359.4375 L 185.417969 390.980469 L 159.664062 373.542969 L 133.914062 390.980469 L 146.214844 359.4375 L 118 342 "/>
<path style="fill-rule:nonzero;fill:rgb(100%,51%,0%);fill-opacity:1;stroke-width:1;stroke-linecap:butt;stroke-linejoin:miter;stroke:rgb(0%,0%,0%);stroke-opacity:1;stroke-miterlimit:10;" d="M 311.785156 153.785156 L 311.785156 196.214844 L 354.214844 196.214844 L 354.214844 153.785156 L 311.785156 153.785156 "/>
<path style="fill-rule:nonzero;fill:rgb(53%,27%,7%);fill-opacity:1;stroke-width:1;stroke-linecap:butt;stroke-linejoin:miter;stroke:rgb(0%,0%,0%);stroke-opacity:1;stroke-miterlimit:10;" d="M 685.785156 131.785156 L 685.785156 174.214844 L 728.214844 174.214844 L 728.214844 131.785156 L 685.785156 131.785156 "/>
<path style="fill-rule:nonzero;fill:rgb(53%,27%,7%);fill-opacity:1;stroke-width:1;stroke-linecap:butt;stroke-linejoin:miter;stroke:rgb(0%,0%,0%);stroke-opacity:1;stroke-miterlimit:10;" d="M 670.785156 247.785156 L 670.785156 290.214844 L 713.214844 290.214844 L 713.214844 247.785156 L 670.785156 247.785156 "/>
<path style="fill-rule:nonzero;fill:rgb(53%,27%,7%);fill-opacity:1;stroke-width:1;stroke-linecap:butt;stroke-linejoin:miter;stroke:rgb(0%,0%,0%);stroke-opacity:1;stroke-miterlimit:10;" d="M 798 131 L 827.664062 131 L 839.664062 102.785156 L 851.664062 131 L 881.332031 131 L 857.332031 148.4375 L 865.417969 179.980469 L 839.664062 162.542969 L 813.914062 179.980469 L 826.214844 148.4375 L 798 131 "/>
<path style="fill-rule:nonzero;fill:rgb(53%,27%,7%);fill-opacity:1;stroke-width:1;stroke-linecap:butt;stroke-linejoin:miter;stroke:rgb(0%,0%,0%);stroke-opacity:1;stroke-miterlimit:10;" d="M 1021.785156 178.785156 L 1021.785156 221.214844 L 1064.214844 221.214844 L 1064.214844 178.785156 L 1021.785156 178.785156 "/>
<path style="fill-rule:nonzero;fill:rgb(53%,27%,7%);fill-opacity:1;stroke-width:1;stroke-linecap:butt;stroke-linejoin:miter;stroke:rgb(0%,0%,0%);stroke-opacity:1;stroke-miterlimit:10;" d="M 871.785156 256.785156 L 871.785156 299.214844 L 914.214844 299.214844 L 914.214844 256.785156 L 871.785156 256.785156 "/>
</g>
</svg>
