<?xml version="1.0" encoding="UTF-8"?>
<svg xmlns="http://www.w3.org/2000/svg" xmlns:xlink="http://www.w3.org/1999/xlink" width="1179pt" height="517pt" viewBox="0 0 1179 517" version="1.1">
<g id="surface111">
<rect x="0" y="0" width="1179" height="517" style="fill:rgb(90%,90%,90%);fill-opacity:1;stroke:none;"/>
<path style="fill-rule:nonzero;fill:rgb(100%,51%,0%);fill-opacity:1;stroke-width:1;stroke-linecap:butt;stroke-linejoin:miter;stroke:rgb(0%,0%,0%);stroke-opacity:1;stroke-miterlimit:10;" d="M 149.214844 204 C 149.214844 215.714844 139.714844 225.214844 128 225.214844 C 116.285156 225.214844 106.785156 215.714844 106.785156 204 C 106.785156 192.285156 116.285156 182.785156 128 182.785156 C 139.714844 182.785156 149.214844 192.285156 149.214844 204 "/>
<path style="fill-rule:nonzero;fill:rgb(100%,51%,0%);fill-opacity:1;stroke-width:1;stroke-linecap:butt;stroke-linejoin:miter;stroke:rgb(0%,0%,0%);stroke-opacity:1;stroke-miterlimit:10;" d="M 237.214844 162 C 237.214844 173.714844 227.714844 183.214844 216 183.214844 C 204.285156 183.214844 194.785156 173.714844 194.785156 162 C 194.785156 150.285156 204.285156 140.785156 216 140.785156 C 227.714844 140.785156 237.214844 150.285156 237.214844 162 "/>
<path style="fill-rule:nonzero;fill:rgb(53%,27%,7%);fill-opacity:1;stroke-width:1;stroke-linecap:butt;stroke-linejoin:miter;stroke:rgb(0%,0%,0%);stroke-opacity:1;stroke-miterlimit:10;" d="M 307.214844 309 C 307.214844 320.714844 297.714844 330.214844 286 330.214844 C 274.285156 330.214844 264.785156 320.714844 264.785156 309 C 264.785156 297.285156 274.285156 287.785156 286 287.785156 C 297.714844 287.785156 307.214844 297.285156 307.214844 309 "/>
<path style="fill-rule:nonzero;fill:rgb(100%,51%,0%);fill-opacity:1;stroke-width:1;stroke-linecap:butt;stroke-linejoin:miter;stroke:rgb(0%,0%,0%);stroke-opacity:1;stroke-miterlimit:10;" d="M 109.214844 354 C 109.214844 365.714844 99.714844 375.214844 88 375.214844 C 76.285156 375.214844 66.785156 365.714844 66.785156 354 C 66.785156 342.285156 76.285156 332.785156 88 332.785156 C 99.714844 332.785156 109.214844 342.285156 109.214844 354 "/>
<path style="fill-rule:nonzero;fill:rgb(53%,27%,7%);fill-opacity:1;stroke-width:1;stroke-linecap:butt;stroke-linejoin:miter;stroke:rgb(0%,0%,0%);stroke-opacity:1;stroke-miterlimit:10;" d="M 767.785156 378.785156 L 767.785156 421.214844 L 810.214844 421.214844 L 810.214844 378.785156 L 767.785156 378.785156 "/>
<path style="fill-rule:nonzero;fill:rgb(53%,27%,7%);fill-opacity:1;stroke-width:1;stroke-linecap:butt;stroke-linejoin:miter;stroke:rgb(0%,0%,0%);stroke-opacity:1;stroke-miterlimit:10;" d="M 695.785156 238.785156 L 695.785156 281.214844 L 738.214844 281.214844 L 738.214844 238.785156 L 695.785156 238.785156 "/>
<path style="fill-rule:nonzero;fill:rgb(100%,51%,0%);fill-opacity:1;stroke-width:1;stroke-linecap:butt;stroke-linejoin:miter;stroke:rgb(0%,0%,0%);stroke-opacity:1;stroke-miterlimit:10;" d="M 882.785156 363.785156 L 882.785156 406.214844 L 925.214844 406.214844 L 925.214844 363.785156 L 882.785156 363.785156 "/>
<path style="fill-rule:nonzero;fill:rgb(53%,27%,7%);fill-opacity:1;stroke-width:1;stroke-linecap:butt;stroke-linejoin:miter;stroke:rgb(0%,0%,0%);stroke-opacity:1;stroke-miterlimit:10;" d="M 731.785156 150.785156 L 731.785156 193.214844 L 774.214844 193.214844 L 774.214844 150.785156 L 731.785156 150.785156 "/>
</g>
</svg>
