<?xml version="1.0" encoding="UTF-8"?>
<svg xmlns="http://www.w3.org/2000/svg" xmlns:xlink="http://www.w3.org/1999/xlink" width="1179pt" height="517pt" viewBox="0 0 1179 517" version="1.1">
<g id="surface606">
<rect x="0" y="0" width="1179" height="517" style="fill:rgb(90%,90%,90%);fill-opacity:1;stroke:none;"/>
<path style="fill-rule:nonzero;fill:rgb(35%,70%,90%);fill-opacity:1;stroke-width:1;stroke-linecap:butt;stroke-linejoin:miter;stroke:rgb(0%,0%,0%);stroke-opacity:1;stroke-miterlimit:10;" d="M 160 149 L 189.664062 149 L 201.664062 120.785156 L 213.664062 149 L 243.332031 149 L 219.332031 166.4375 L 227.417969 197.980469 L 201.664062 180.542969 L 175.914062 197.980469 L 188.214844 166.4375 L 160 149 "/>
<path style="fill-rule:nonzero;fill:rgb(35%,70%,90%);fill-opacity:1;stroke-width:1;stroke-linecap:butt;stroke-linejoin:miter;stroke:rgb(0%,0%,0%);stroke-opacity:1;stroke-miterlimit:10;" d="M 486 341 L 515.664062 341 L 527.664062 312.785156 L 539.664062 341 L 569.332031 341 L 545.332031 358.4375 L 553.417969 389.980469 L 527.664062 372.542969 L 501.914062 389.980469 L 514.214844 358.4375 L 486 341 "/>
<path style="fill-rule:nonzero;fill:rgb(35%,70%,90%);fill-opacity:1;stroke-width:1;stroke-linecap:butt;stroke-linejoin:miter;stroke:rgb(0%,0%,0%);stroke-opacity:1;stroke-miterlimit:10;" d="M 841 339 L 870.664062 339 L 882.664062 310.785156 L 894.664062 339 L 924.332031 339 L 900.332031 356.4375 L 908.417969 387.980469 L 882.664062 370.542969 L 856.914062 387.980469 L 869.214844 356.4375 L 841 339 "/>
<path style="fill-rule:nonzero;fill:rgb(35%,70%,90%);fill-opacity:1;stroke-width:1;stroke-linecap:butt;stroke-linejoin:miter;stroke:rgb(0%,0%,0%);stroke-opacity:1;stroke-miterlimit:10;" d="M 676 406 L 705.664062 406 L 717.664062 377.785156 L 729.664062 406 L 759.332031 406 L 735.332031 423.4375 L 743.417969 454.980469 L 717.664062 437.542969 L 691.914062 454.980469 L 704.214844 423.4375 L 676 406 "/>
<path style="fill-rule:nonzero;fill:rgb(35%,70%,90%);fill-opacity:1;stroke-width:1;stroke-linecap:butt;stroke-linejoin:miter;stroke:rgb(0%,0%,0%);stroke-opacity:1;stroke-miterlimit:10;" d="M 994 382 L 1023.664062 382 L 1035.664062 353.785156 L 1047.664062 382 L 1077.332031 382 L 1053.332031 399.4375 L 1061.417969 430.980469 L 1035.664062 413.542969 L 1009.914062 430.980469 L 1022.214844 399.4375 L 994 382 "/>
<path style="fill-rule:nonzero;fill:rgb(55%,51%,53%);fill-opacity:1;stroke-width:1;stroke-linecap:butt;stroke-linejoin:miter;stroke:rgb(0%,0%,0%);stroke-opacity:1;stroke-miterlimit:10;" d="M 582 225 L 556.019531 270 L 607.980469 270 L 582 225 "/>
<path style="fill-rule:nonzero;fill:rgb(55%,51%,53%);fill-opacity:1;stroke-width:1;stroke-linecap:butt;stroke-linejoin:miter;stroke:rgb(0%,0%,0%);stroke-opacity:1;stroke-miterlimit:10;" d="M 422 63 L 396.019531 108 L 447.980469 108 L 422 63 "/>
<path style="fill-rule:nonzero;fill:rgb(55%,51%,53%);fill-opacity:1;stroke-width:1;stroke-linecap:butt;stroke-linejoin:miter;stroke:rgb(0%,0%,0%);stroke-opacity:1;stroke-miterlimit:10;" d="M 812 61 L 786.019531 106 L 837.980469 106 L 812 61 "/>
<path style="fill-rule:nonzero;fill:rgb(55%,51%,53%);fill-opacity:1;stroke-width:1;stroke-linecap:butt;stroke-linejoin:miter;stroke:rgb(0%,0%,0%);stroke-opacity:1;stroke-miterlimit:10;" d="M 101 298 L 75.019531 343 L 126.980469 343 L 101 298 "/>
<path style="fill-rule:nonzero;fill:rgb(55%,51%,53%);fill-opacity:1;stroke-width:1;stroke-linecap:butt;stroke-linejoin:miter;stroke:rgb(0%,0%,0%);stroke-opacity:1;stroke-miterlimit:10;" d="M 619 66 L 593.019531 111 L 644.980469 111 L 619 66 "/>
</g>
</svg>
