<?xml version="1.0" encoding="UTF-8"?>
<svg xmlns="http://www.w3.org/2000/svg" xmlns:xlink="http://www.w3.org/1999/xlink" width="1179pt" height="517pt" viewBox="0 0 1179 517" version="1.1">
<g id="surface1291">
<rect x="0" y="0" width="1179" height="517" style="fill:rgb(90%,90%,90%);fill-opacity:1;stroke:none;"/>
<path style="fill-rule:nonzero;fill:rgb(100%,51%,0%);fill-opacity:1;stroke-width:1;stroke-linecap:butt;stroke-linejoin:miter;stroke:rgb(0%,0%,0%);stroke-opacity:1;stroke-miterlimit:10;" d="M 947 170 L 976.664062 170 L 988.664062 141.785156 L 1000.664062 170 L 1030.332031 170 L 1006.332031 187.4375 L 1014.417969 218.980469 L 988.664062 201.542969 L 962.914062 218.980469 L 975.214844 187.4375 L 947 170 "/>
<path style="fill-rule:nonzero;fill:rgb(100%,51%,0%);fill-opacity:1;stroke-width:1;stroke-linecap:butt;stroke-linejoin:miter;stroke:rgb(0%,0%,0%);stroke-opacity:1;stroke-miterlimit:10;" d="M 903 337 L 932.664062 337 L 944.664062 308.785156 L 956.664062 337 L 986.332031 337 L 962.332031 354.4375 L 970.417969 385.980469 L 944.664062 368.542969 L 918.914062 385.980469 L 931.214844 354.4375 L 903 337 "/>
<path style="fill-rule:nonzero;fill:rgb(100%,51%,0%);fill-opacity:1;stroke-width:1;stroke-linecap:butt;stroke-linejoin:miter;stroke:rgb(0%,0%,0%);stroke-opacity:1;stroke-miterlimit:10;" d="M 499 245 L 528.664062 245 L 540.664062 216.785156 L 552.664062 245 L 582.332031 245 L 558.332031 262.4375 L 566.417969 293.980469 L 540.664062 276.542969 L 514.914062 293.980469 L 527.214844 262.4375 L 499 245 "/>
<path style="fill-rule:nonzero;fill:rgb(100%,51%,0%);fill-opacity:1;stroke-width:1;stroke-linecap:butt;stroke-linejoin:miter;stroke:rgb(0%,0%,0%);stroke-opacity:1;stroke-miterlimit:10;" d="M 88 89 L 117.664062 89 L 129.664062 60.785156 L 141.664062 89 L 171.332031 89 L 147.332031 106.4375 L 155.417969 137.980469 L 129.664062 120.542969 L 103.914062 137.980469 L 116.214844 106.4375 L 88 89 "/>
<path style="fill-rule:nonzero;fill:rgb(100%,51%,0%);fill-opacity:1;stroke-width:1;stroke-linecap:butt;stroke-linejoin:miter;stroke:rgb(0%,0%,0%);stroke-opacity:1;stroke-miterlimit:10;" d="M 695 391 L 724.664062 391 L 736.664062 362.785156 L 748.664062 391 L 778.332031 391 L 754.332031 408.4375 L 762.417969 439.980469 L 736.664062 422.542969 L 710.914062 439.980469 L 723.214844 408.4375 L 695 391 "/>
<path style="fill-rule:nonzero;fill:rgb(35%,70%,90%);fill-opacity:1;stroke-width:1;stroke-linecap:butt;stroke-linejoin:miter;stroke:rgb(0%,0%,0%);stroke-opacity:1;stroke-miterlimit:10;" d="M 602 116 L 576.019531 161 L 627.980469 161 L 602 116 "/>
<path style="fill-rule:nonzero;fill:rgb(35%,70%,90%);fill-opacity:1;stroke-width:1;stroke-linecap:butt;stroke-linejoin:miter;stroke:rgb(0%,0%,0%);stroke-opacity:1;stroke-miterlimit:10;" d="M 220 331 L 194.019531 376 L 245.980469 376 L 220 331 "/>
<path style="fill-rule:nonzero;fill:rgb(35%,70%,90%);fill-opacity:1;stroke-width:1;stroke-linecap:butt;stroke-linejoin:miter;stroke:rgb(0%,0%,0%);stroke-opacity:1;stroke-miterlimit:10;" d="M 721 51 L 695.019531 96 L 746.980469 96 L 721 51 "/>
</g>
</svg>
