<?xml version="1.0" encoding="UTF-8"?>
<svg xmlns="http://www.w3.org/2000/svg" xmlns:xlink="http://www.w3.org/1999/xlink" width="1179pt" height="517pt" viewBox="0 0 1179 517" version="1.1">
<g id="surface1251">
<rect x="0" y="0" width="1179" height="517" style="fill:rgb(90%,90%,90%);fill-opacity:1;stroke:none;"/>
<path style="fill-rule:nonzero;fill:rgb(55%,51%,53%);fill-opacity:1;stroke-width:1;stroke-linecap:butt;stroke-linejoin:miter;stroke:rgb(0%,0%,0%);stroke-opacity:1;stroke-miterlimit:10;" d="M 914 302 L 943.664062 302 L 955.664062 273.785156 L 967.664062 302 L 997.332031 302 L 973.332031 319.4375 L 981.417969 350.980469 L 955.664062 333.542969 L 929.914062 350.980469 L 942.214844 319.4375 L 914 302 "/>
<path style="fill-rule:nonzero;fill:rgb(55%,51%,53%);fill-opacity:1;stroke-width:1;stroke-linecap:butt;stroke-linejoin:miter;stroke:rgb(0%,0%,0%);stroke-opacity:1;stroke-miterlimit:10;" d="M 574 263 L 603.664062 263 L 615.664062 234.785156 L 627.664062 263 L 657.332031 263 L 633.332031 280.4375 L 641.417969 311.980469 L 615.664062 294.542969 L 589.914062 311.980469 L 602.214844 280.4375 L 574 263 "/>
<path style="fill-rule:nonzero;fill:rgb(55%,51%,53%);fill-opacity:1;stroke-width:1;stroke-linecap:butt;stroke-linejoin:miter;stroke:rgb(0%,0%,0%);stroke-opacity:1;stroke-miterlimit:10;" d="M 390 310 L 419.664062 310 L 431.664062 281.785156 L 443.664062 310 L 473.332031 310 L 449.332031 327.4375 L 457.417969 358.980469 L 431.664062 341.542969 L 405.914062 358.980469 L 418.214844 327.4375 L 390 310 "/>
<path style="fill-rule:nonzero;fill:rgb(55%,51%,53%);fill-opacity:1;stroke-width:1;stroke-linecap:butt;stroke-linejoin:miter;stroke:rgb(0%,0%,0%);stroke-opacity:1;stroke-miterlimit:10;" d="M 710 125 L 739.664062 125 L 751.664062 96.785156 L 763.664062 125 L 793.332031 125 L 769.332031 142.4375 L 777.417969 173.980469 L 751.664062 156.542969 L 725.914062 173.980469 L 738.214844 142.4375 L 710 125 "/>
<path style="fill-rule:nonzero;fill:rgb(100%,51%,0%);fill-opacity:1;stroke-width:1;stroke-linecap:butt;stroke-linejoin:miter;stroke:rgb(0%,0%,0%);stroke-opacity:1;stroke-miterlimit:10;" d="M 445.214844 128 C 445.214844 139.714844 435.714844 149.214844 424 149.214844 C 412.285156 149.214844 402.785156 139.714844 402.785156 128 C 402.785156 116.285156 412.285156 106.785156 424 106.785156 C 435.714844 106.785156 445.214844 116.285156 445.214844 128 "/>
<path style="fill-rule:nonzero;fill:rgb(100%,51%,0%);fill-opacity:1;stroke-width:1;stroke-linecap:butt;stroke-linejoin:miter;stroke:rgb(0%,0%,0%);stroke-opacity:1;stroke-miterlimit:10;" d="M 1056.214844 157 C 1056.214844 168.714844 1046.714844 178.214844 1035 178.214844 C 1023.285156 178.214844 1013.785156 168.714844 1013.785156 157 C 1013.785156 145.285156 1023.285156 135.785156 1035 135.785156 C 1046.714844 135.785156 1056.214844 145.285156 1056.214844 157 "/>
<path style="fill-rule:nonzero;fill:rgb(100%,51%,0%);fill-opacity:1;stroke-width:1;stroke-linecap:butt;stroke-linejoin:miter;stroke:rgb(0%,0%,0%);stroke-opacity:1;stroke-miterlimit:10;" d="M 1035.214844 398 C 1035.214844 409.714844 1025.714844 419.214844 1014 419.214844 C 1002.285156 419.214844 992.785156 409.714844 992.785156 398 C 992.785156 386.285156 1002.285156 376.785156 1014 376.785156 C 1025.714844 376.785156 1035.214844 386.285156 1035.214844 398 "/>
<path style="fill-rule:nonzero;fill:rgb(100%,51%,0%);fill-opacity:1;stroke-width:1;stroke-linecap:butt;stroke-linejoin:miter;stroke:rgb(0%,0%,0%);stroke-opacity:1;stroke-miterlimit:10;" d="M 163.214844 106 C 163.214844 117.714844 153.714844 127.214844 142 127.214844 C 130.285156 127.214844 120.785156 117.714844 120.785156 106 C 120.785156 94.285156 130.285156 84.785156 142 84.785156 C 153.714844 84.785156 163.214844 94.285156 163.214844 106 "/>
<path style="fill-rule:nonzero;fill:rgb(100%,51%,0%);fill-opacity:1;stroke-width:1;stroke-linecap:butt;stroke-linejoin:miter;stroke:rgb(0%,0%,0%);stroke-opacity:1;stroke-miterlimit:10;" d="M 113.214844 341 C 113.214844 352.714844 103.714844 362.214844 92 362.214844 C 80.285156 362.214844 70.785156 352.714844 70.785156 341 C 70.785156 329.285156 80.285156 319.785156 92 319.785156 C 103.714844 319.785156 113.214844 329.285156 113.214844 341 "/>
</g>
</svg>
