<?xml version="1.0" encoding="UTF-8"?>
<svg xmlns="http://www.w3.org/2000/svg" xmlns:xlink="http://www.w3.org/1999/xlink" width="1179pt" height="517pt" viewBox="0 0 1179 517" version="1.1">
<g id="surface1101">
<rect x="0" y="0" width="1179" height="517" style="fill:rgb(90%,90%,90%);fill-opacity:1;stroke:none;"/>
<path style="fill-rule:nonzero;fill:rgb(35%,70%,90%);fill-opacity:1;stroke-width:1;stroke-linecap:butt;stroke-linejoin:miter;stroke:rgb(0%,0%,0%);stroke-opacity:1;stroke-miterlimit:10;" d="M 814.214844 412 C 814.214844 423.714844 804.714844 433.214844 793 433.214844 C 781.285156 433.214844 771.785156 423.714844 771.785156 412 C 771.785156 400.285156 781.285156 390.785156 793 390.785156 C 804.714844 390.785156 814.214844 400.285156 814.214844 412 "/>
<path style="fill-rule:nonzero;fill:rgb(35%,70%,90%);fill-opacity:1;stroke-width:1;stroke-linecap:butt;stroke-linejoin:miter;stroke:rgb(0%,0%,0%);stroke-opacity:1;stroke-miterlimit:10;" d="M 266.214844 414 C 266.214844 425.714844 256.714844 435.214844 245 435.214844 C 233.285156 435.214844 223.785156 425.714844 223.785156 414 C 223.785156 402.285156 233.285156 392.785156 245 392.785156 C 256.714844 392.785156 266.214844 402.285156 266.214844 414 "/>
<path style="fill-rule:nonzero;fill:rgb(35%,70%,90%);fill-opacity:1;stroke-width:1;stroke-linecap:butt;stroke-linejoin:miter;stroke:rgb(0%,0%,0%);stroke-opacity:1;stroke-miterlimit:10;" d="M 826.214844 234 C 826.214844 245.714844 816.714844 255.214844 805 255.214844 C 793.285156 255.214844 783.785156 245.714844 783.785156 234 C 783.785156 222.285156 793.285156 212.785156 805 212.785156 C 816.714844 212.785156 826.214844 222.285156 826.214844 234 "/>
<path style="fill-rule:nonzero;fill:rgb(35%,70%,90%);fill-opacity:1;stroke-width:1;stroke-linecap:butt;stroke-linejoin:miter;stroke:rgb(0%,0%,0%);stroke-opacity:1;stroke-miterlimit:10;" d="M 188.214844 153 C 188.214844 164.714844 178.714844 174.214844 167 174.214844 C 155.285156 174.214844 145.785156 164.714844 145.785156 153 C 145.785156 141.285156 155.285156 131.785156 167 131.785156 C 178.714844 131.785156 188.214844 141.285156 188.214844 153 "/>
<path style="fill-rule:nonzero;fill:rgb(100%,51%,0%);fill-opacity:1;stroke-width:1;stroke-linecap:butt;stroke-linejoin:miter;stroke:rgb(0%,0%,0%);stroke-opacity:1;stroke-miterlimit:10;" d="M 1010 328 L 984.019531 373 L 1035.980469 373 L 1010 328 "/>
<path style="fill-rule:nonzero;fill:rgb(100%,51%,0%);fill-opacity:1;stroke-width:1;stroke-linecap:butt;stroke-linejoin:miter;stroke:rgb(0%,0%,0%);stroke-opacity:1;stroke-miterlimit:10;" d="M 588 244 L 562.019531 289 L 613.980469 289 L 588 244 "/>
<path style="fill-rule:nonzero;fill:rgb(100%,51%,0%);fill-opacity:1;stroke-width:1;stroke-linecap:butt;stroke-linejoin:miter;stroke:rgb(0%,0%,0%);stroke-opacity:1;stroke-miterlimit:10;" d="M 685 126 L 659.019531 171 L 710.980469 171 L 685 126 "/>
<path style="fill-rule:nonzero;fill:rgb(100%,51%,0%);fill-opacity:1;stroke-width:1;stroke-linecap:butt;stroke-linejoin:miter;stroke:rgb(0%,0%,0%);stroke-opacity:1;stroke-miterlimit:10;" d="M 432 358 L 406.019531 403 L 457.980469 403 L 432 358 "/>
</g>
</svg>
