<?xml version="1.0" encoding="UTF-8"?>
<svg xmlns="http://www.w3.org/2000/svg" xmlns:xlink="http://www.w3.org/1999/xlink" width="1179pt" height="517pt" viewBox="0 0 1179 517" version="1.1">
<g id="surface906">
<rect x="0" y="0" width="1179" height="517" style="fill:rgb(90%,90%,90%);fill-opacity:1;stroke:none;"/>
<path style="fill-rule:nonzero;fill:rgb(55%,51%,53%);fill-opacity:1;stroke-width:1;stroke-linecap:butt;stroke-linejoin:miter;stroke:rgb(0%,0%,0%);stroke-opacity:1;stroke-miterlimit:10;" d="M 647 243 L 621.019531 288 L 672.980469 288 L 647 243 "/>
<path style="fill-rule:nonzero;fill:rgb(55%,51%,53%);fill-opacity:1;stroke-width:1;stroke-linecap:butt;stroke-linejoin:miter;stroke:rgb(0%,0%,0%);stroke-opacity:1;stroke-miterlimit:10;" d="M 507 323 L 481.019531 368 L 532.980469 368 L 507 323 "/>
<path style="fill-rule:nonzero;fill:rgb(55%,51%,53%);fill-opacity:1;stroke-width:1;stroke-linecap:butt;stroke-linejoin:miter;stroke:rgb(0%,0%,0%);stroke-opacity:1;stroke-miterlimit:10;" d="M 253 169 L 227.019531 214 L 278.980469 214 L 253 169 "/>
<path style="fill-rule:nonzero;fill:rgb(55%,51%,53%);fill-opacity:1;stroke-width:1;stroke-linecap:butt;stroke-linejoin:miter;stroke:rgb(0%,0%,0%);stroke-opacity:1;stroke-miterlimit:10;" d="M 1016 397 L 990.019531 442 L 1041.980469 442 L 1016 397 "/>
<path style="fill-rule:nonzero;fill:rgb(55%,51%,53%);fill-opacity:1;stroke-width:1;stroke-linecap:butt;stroke-linejoin:miter;stroke:rgb(0%,0%,0%);stroke-opacity:1;stroke-miterlimit:10;" d="M 448 105 L 422.019531 150 L 473.980469 150 L 448 105 "/>
<path style="fill-rule:nonzero;fill:rgb(100%,51%,0%);fill-opacity:1;stroke-width:1;stroke-linecap:butt;stroke-linejoin:miter;stroke:rgb(0%,0%,0%);stroke-opacity:1;stroke-miterlimit:10;" d="M 389 254 L 418.664062 254 L 430.664062 225.785156 L 442.664062 254 L 472.332031 254 L 448.332031 271.4375 L 456.417969 302.980469 L 430.664062 285.542969 L 404.914062 302.980469 L 417.214844 271.4375 L 389 254 "/>
<path style="fill-rule:nonzero;fill:rgb(100%,51%,0%);fill-opacity:1;stroke-width:1;stroke-linecap:butt;stroke-linejoin:miter;stroke:rgb(0%,0%,0%);stroke-opacity:1;stroke-miterlimit:10;" d="M 751 373 L 780.664062 373 L 792.664062 344.785156 L 804.664062 373 L 834.332031 373 L 810.332031 390.4375 L 818.417969 421.980469 L 792.664062 404.542969 L 766.914062 421.980469 L 779.214844 390.4375 L 751 373 "/>
<path style="fill-rule:nonzero;fill:rgb(100%,51%,0%);fill-opacity:1;stroke-width:1;stroke-linecap:butt;stroke-linejoin:miter;stroke:rgb(0%,0%,0%);stroke-opacity:1;stroke-miterlimit:10;" d="M 134 267 L 163.664062 267 L 175.664062 238.785156 L 187.664062 267 L 217.332031 267 L 193.332031 284.4375 L 201.417969 315.980469 L 175.664062 298.542969 L 149.914062 315.980469 L 162.214844 284.4375 L 134 267 "/>
</g>
</svg>
