<?xml version="1.0" encoding="UTF-8"?>
<svg xmlns="http://www.w3.org/2000/svg" xmlns:xlink="http://www.w3.org/1999/xlink" width="1179pt" height="517pt" viewBox="0 0 1179 517" version="1.1">
<g id="surface981">
<rect x="0" y="0" width="1179" height="517" style="fill:rgb(90%,90%,90%);fill-opacity:1;stroke:none;"/>
<path style="fill-rule:nonzero;fill:rgb(100%,0%,0%);fill-opacity:1;stroke-width:1;stroke-linecap:butt;stroke-linejoin:miter;stroke:rgb(0%,0%,0%);stroke-opacity:1;stroke-miterlimit:10;" d="M 280 414.601562 C 280 400.199219 256 400.199219 256 414.601562 C 256 429 280 431.398438 280 443.398438 C 280 431.398438 304 429 304 414.601562 C 304 400.199219 280 400.199219 280 414.601562 "/>
<path style="fill-rule:nonzero;fill:rgb(100%,0%,0%);fill-opacity:1;stroke-width:1;stroke-linecap:butt;stroke-linejoin:miter;stroke:rgb(0%,0%,0%);stroke-opacity:1;stroke-miterlimit:10;" d="M 135 212.601562 C 135 198.199219 111 198.199219 111 212.601562 C 111 227 135 229.398438 135 241.398438 C 135 229.398438 159 227 159 212.601562 C 159 198.199219 135 198.199219 135 212.601562 "/>
<path style="fill-rule:nonzero;fill:rgb(100%,0%,0%);fill-opacity:1;stroke-width:1;stroke-linecap:butt;stroke-linejoin:miter;stroke:rgb(0%,0%,0%);stroke-opacity:1;stroke-miterlimit:10;" d="M 877 169.601562 C 877 155.199219 853 155.199219 853 169.601562 C 853 184 877 186.398438 877 198.398438 C 877 186.398438 901 184 901 169.601562 C 901 155.199219 877 155.199219 877 169.601562 "/>
<path style="fill-rule:nonzero;fill:rgb(100%,0%,0%);fill-opacity:1;stroke-width:1;stroke-linecap:butt;stroke-linejoin:miter;stroke:rgb(0%,0%,0%);stroke-opacity:1;stroke-miterlimit:10;" d="M 505 231.601562 C 505 217.199219 481 217.199219 481 231.601562 C 481 246 505 248.398438 505 260.398438 C 505 248.398438 529 246 529 231.601562 C 529 217.199219 505 217.199219 505 231.601562 "/>
<path style="fill-rule:nonzero;fill:rgb(100%,0%,0%);fill-opacity:1;stroke-width:1;stroke-linecap:butt;stroke-linejoin:miter;stroke:rgb(0%,0%,0%);stroke-opacity:1;stroke-miterlimit:10;" d="M 358 74.601562 C 358 60.199219 334 60.199219 334 74.601562 C 334 89 358 91.398438 358 103.398438 C 358 91.398438 382 89 382 74.601562 C 382 60.199219 358 60.199219 358 74.601562 "/>
<path style="fill-rule:nonzero;fill:rgb(0%,0%,0%);fill-opacity:1;stroke-width:1;stroke-linecap:butt;stroke-linejoin:miter;stroke:rgb(0%,0%,0%);stroke-opacity:1;stroke-miterlimit:10;" d="M 790 331 L 770 331 L 770 341 L 790 341 L 790 361 L 800 361 L 800 341 L 820 341 L 820 331 L 800 331 L 800 311 L 790 311 L 790 331 "/>
<path style="fill-rule:nonzero;fill:rgb(0%,0%,0%);fill-opacity:1;stroke-width:1;stroke-linecap:butt;stroke-linejoin:miter;stroke:rgb(0%,0%,0%);stroke-opacity:1;stroke-miterlimit:10;" d="M 467 408 L 447 408 L 447 418 L 467 418 L 467 438 L 477 438 L 477 418 L 497 418 L 497 408 L 477 408 L 477 388 L 467 388 L 467 408 "/>
<path style="fill-rule:nonzero;fill:rgb(0%,0%,0%);fill-opacity:1;stroke-width:1;stroke-linecap:butt;stroke-linejoin:miter;stroke:rgb(0%,0%,0%);stroke-opacity:1;stroke-miterlimit:10;" d="M 555 105 L 535 105 L 535 115 L 555 115 L 555 135 L 565 135 L 565 115 L 585 115 L 585 105 L 565 105 L 565 85 L 555 85 L 555 105 "/>
<path style="fill-rule:nonzero;fill:rgb(0%,0%,0%);fill-opacity:1;stroke-width:1;stroke-linecap:butt;stroke-linejoin:miter;stroke:rgb(0%,0%,0%);stroke-opacity:1;stroke-miterlimit:10;" d="M 334 296 L 314 296 L 314 306 L 334 306 L 334 326 L 344 326 L 344 306 L 364 306 L 364 296 L 344 296 L 344 276 L 334 276 L 334 296 "/>
<path style="fill-rule:nonzero;fill:rgb(0%,0%,0%);fill-opacity:1;stroke-width:1;stroke-linecap:butt;stroke-linejoin:miter;stroke:rgb(0%,0%,0%);stroke-opacity:1;stroke-miterlimit:10;" d="M 630 362 L 610 362 L 610 372 L 630 372 L 630 392 L 640 392 L 640 372 L 660 372 L 660 362 L 640 362 L 640 342 L 630 342 L 630 362 "/>
</g>
</svg>
