<?xml version="1.0" encoding="UTF-8"?>
<svg xmlns="http://www.w3.org/2000/svg" xmlns:xlink="http://www.w3.org/1999/xlink" width="1179pt" height="517pt" viewBox="0 0 1179 517" version="1.1">
<g id="surface1141">
<rect x="0" y="0" width="1179" height="517" style="fill:rgb(90%,90%,90%);fill-opacity:1;stroke:none;"/>
<path style="fill-rule:nonzero;fill:rgb(53%,27%,7%);fill-opacity:1;stroke-width:1;stroke-linecap:butt;stroke-linejoin:miter;stroke:rgb(0%,0%,0%);stroke-opacity:1;stroke-miterlimit:10;" d="M 246.214844 90 C 246.214844 101.714844 236.714844 111.214844 225 111.214844 C 213.285156 111.214844 203.785156 101.714844 203.785156 90 C 203.785156 78.285156 213.285156 68.785156 225 68.785156 C 236.714844 68.785156 246.214844 78.285156 246.214844 90 "/>
<path style="fill-rule:nonzero;fill:rgb(53%,27%,7%);fill-opacity:1;stroke-width:1;stroke-linecap:butt;stroke-linejoin:miter;stroke:rgb(0%,0%,0%);stroke-opacity:1;stroke-miterlimit:10;" d="M 440.214844 248 C 440.214844 259.714844 430.714844 269.214844 419 269.214844 C 407.285156 269.214844 397.785156 259.714844 397.785156 248 C 397.785156 236.285156 407.285156 226.785156 419 226.785156 C 430.714844 226.785156 440.214844 236.285156 440.214844 248 "/>
<path style="fill-rule:nonzero;fill:rgb(53%,27%,7%);fill-opacity:1;stroke-width:1;stroke-linecap:butt;stroke-linejoin:miter;stroke:rgb(0%,0%,0%);stroke-opacity:1;stroke-miterlimit:10;" d="M 662.214844 283 C 662.214844 294.714844 652.714844 304.214844 641 304.214844 C 629.285156 304.214844 619.785156 294.714844 619.785156 283 C 619.785156 271.285156 629.285156 261.785156 641 261.785156 C 652.714844 261.785156 662.214844 271.285156 662.214844 283 "/>
<path style="fill-rule:nonzero;fill:rgb(53%,27%,7%);fill-opacity:1;stroke-width:1;stroke-linecap:butt;stroke-linejoin:miter;stroke:rgb(0%,0%,0%);stroke-opacity:1;stroke-miterlimit:10;" d="M 219.214844 321 C 219.214844 332.714844 209.714844 342.214844 198 342.214844 C 186.285156 342.214844 176.785156 332.714844 176.785156 321 C 176.785156 309.285156 186.285156 299.785156 198 299.785156 C 209.714844 299.785156 219.214844 309.285156 219.214844 321 "/>
<path style="fill-rule:nonzero;fill:rgb(55%,51%,53%);fill-opacity:1;stroke-width:1;stroke-linecap:butt;stroke-linejoin:miter;stroke:rgb(0%,0%,0%);stroke-opacity:1;stroke-miterlimit:10;" d="M 286 191 L 260.019531 236 L 311.980469 236 L 286 191 "/>
<path style="fill-rule:nonzero;fill:rgb(55%,51%,53%);fill-opacity:1;stroke-width:1;stroke-linecap:butt;stroke-linejoin:miter;stroke:rgb(0%,0%,0%);stroke-opacity:1;stroke-miterlimit:10;" d="M 979 391 L 953.019531 436 L 1004.980469 436 L 979 391 "/>
<path style="fill-rule:nonzero;fill:rgb(55%,51%,53%);fill-opacity:1;stroke-width:1;stroke-linecap:butt;stroke-linejoin:miter;stroke:rgb(0%,0%,0%);stroke-opacity:1;stroke-miterlimit:10;" d="M 555 145 L 529.019531 190 L 580.980469 190 L 555 145 "/>
</g>
</svg>
