<?xml version="1.0" encoding="UTF-8"?>
<svg xmlns="http://www.w3.org/2000/svg" xmlns:xlink="http://www.w3.org/1999/xlink" width="1179pt" height="517pt" viewBox="0 0 1179 517" version="1.1">
<g id="surface341">
<rect x="0" y="0" width="1179" height="517" style="fill:rgb(90%,90%,90%);fill-opacity:1;stroke:none;"/>
<path style="fill-rule:nonzero;fill:rgb(55%,51%,53%);fill-opacity:1;stroke-width:1;stroke-linecap:butt;stroke-linejoin:miter;stroke:rgb(0%,0%,0%);stroke-opacity:1;stroke-miterlimit:10;" d="M 295 190 L 324.664062 190 L 336.664062 161.785156 L 348.664062 190 L 378.332031 190 L 354.332031 207.4375 L 362.417969 238.980469 L 336.664062 221.542969 L 310.914062 238.980469 L 323.214844 207.4375 L 295 190 "/>
<path style="fill-rule:nonzero;fill:rgb(55%,51%,53%);fill-opacity:1;stroke-width:1;stroke-linecap:butt;stroke-linejoin:miter;stroke:rgb(0%,0%,0%);stroke-opacity:1;stroke-miterlimit:10;" d="M 179 311 L 208.664062 311 L 220.664062 282.785156 L 232.664062 311 L 262.332031 311 L 238.332031 328.4375 L 246.417969 359.980469 L 220.664062 342.542969 L 194.914062 359.980469 L 207.214844 328.4375 L 179 311 "/>
<path style="fill-rule:nonzero;fill:rgb(53%,27%,7%);fill-opacity:1;stroke-width:1;stroke-linecap:butt;stroke-linejoin:miter;stroke:rgb(0%,0%,0%);stroke-opacity:1;stroke-miterlimit:10;" d="M 304 322 L 333.664062 322 L 345.664062 293.785156 L 357.664062 322 L 387.332031 322 L 363.332031 339.4375 L 371.417969 370.980469 L 345.664062 353.542969 L 319.914062 370.980469 L 332.214844 339.4375 L 304 322 "/>
<path style="fill-rule:nonzero;fill:rgb(53%,27%,7%);fill-opacity:1;stroke-width:1;stroke-linecap:butt;stroke-linejoin:miter;stroke:rgb(0%,0%,0%);stroke-opacity:1;stroke-miterlimit:10;" d="M 104 184 L 133.664062 184 L 145.664062 155.785156 L 157.664062 184 L 187.332031 184 L 163.332031 201.4375 L 171.417969 232.980469 L 145.664062 215.542969 L 119.914062 232.980469 L 132.214844 201.4375 L 104 184 "/>
<path style="fill-rule:nonzero;fill:rgb(55%,51%,53%);fill-opacity:1;stroke-width:1;stroke-linecap:butt;stroke-linejoin:miter;stroke:rgb(0%,0%,0%);stroke-opacity:1;stroke-miterlimit:10;" d="M 142 86 L 171.664062 86 L 183.664062 57.785156 L 195.664062 86 L 225.332031 86 L 201.332031 103.4375 L 209.417969 134.980469 L 183.664062 117.542969 L 157.914062 134.980469 L 170.214844 103.4375 L 142 86 "/>
<path style="fill-rule:nonzero;fill:rgb(55%,51%,53%);fill-opacity:1;stroke-width:1;stroke-linecap:butt;stroke-linejoin:miter;stroke:rgb(0%,0%,0%);stroke-opacity:1;stroke-miterlimit:10;" d="M 404 389 L 433.664062 389 L 445.664062 360.785156 L 457.664062 389 L 487.332031 389 L 463.332031 406.4375 L 471.417969 437.980469 L 445.664062 420.542969 L 419.914062 437.980469 L 432.214844 406.4375 L 404 389 "/>
<path style="fill-rule:nonzero;fill:rgb(55%,51%,53%);fill-opacity:1;stroke-width:1;stroke-linecap:butt;stroke-linejoin:miter;stroke:rgb(0%,0%,0%);stroke-opacity:1;stroke-miterlimit:10;" d="M 127 403 L 156.664062 403 L 168.664062 374.785156 L 180.664062 403 L 210.332031 403 L 186.332031 420.4375 L 194.417969 451.980469 L 168.664062 434.542969 L 142.914062 451.980469 L 155.214844 420.4375 L 127 403 "/>
<path style="fill-rule:nonzero;fill:rgb(55%,51%,53%);fill-opacity:1;stroke-width:1;stroke-linecap:butt;stroke-linejoin:miter;stroke:rgb(0%,0%,0%);stroke-opacity:1;stroke-miterlimit:10;" d="M 196 184 L 225.664062 184 L 237.664062 155.785156 L 249.664062 184 L 279.332031 184 L 255.332031 201.4375 L 263.417969 232.980469 L 237.664062 215.542969 L 211.914062 232.980469 L 224.214844 201.4375 L 196 184 "/>
<path style="fill-rule:nonzero;fill:rgb(53%,27%,7%);fill-opacity:1;stroke-width:1;stroke-linecap:butt;stroke-linejoin:miter;stroke:rgb(0%,0%,0%);stroke-opacity:1;stroke-miterlimit:10;" d="M 778.785156 343.785156 L 778.785156 386.214844 L 821.214844 386.214844 L 821.214844 343.785156 L 778.785156 343.785156 "/>
<path style="fill-rule:nonzero;fill:rgb(53%,27%,7%);fill-opacity:1;stroke-width:1;stroke-linecap:butt;stroke-linejoin:miter;stroke:rgb(0%,0%,0%);stroke-opacity:1;stroke-miterlimit:10;" d="M 695.785156 222.785156 L 695.785156 265.214844 L 738.214844 265.214844 L 738.214844 222.785156 L 695.785156 222.785156 "/>
<path style="fill-rule:nonzero;fill:rgb(55%,51%,53%);fill-opacity:1;stroke-width:1;stroke-linecap:butt;stroke-linejoin:miter;stroke:rgb(0%,0%,0%);stroke-opacity:1;stroke-miterlimit:10;" d="M 857.785156 399.785156 L 857.785156 442.214844 L 900.214844 442.214844 L 900.214844 399.785156 L 857.785156 399.785156 "/>
<path style="fill-rule:nonzero;fill:rgb(55%,51%,53%);fill-opacity:1;stroke-width:1;stroke-linecap:butt;stroke-linejoin:miter;stroke:rgb(0%,0%,0%);stroke-opacity:1;stroke-miterlimit:10;" d="M 875.785156 80.785156 L 875.785156 123.214844 L 918.214844 123.214844 L 918.214844 80.785156 L 875.785156 80.785156 "/>
<path style="fill-rule:nonzero;fill:rgb(53%,27%,7%);fill-opacity:1;stroke-width:1;stroke-linecap:butt;stroke-linejoin:miter;stroke:rgb(0%,0%,0%);stroke-opacity:1;stroke-miterlimit:10;" d="M 1006.785156 78.785156 L 1006.785156 121.214844 L 1049.214844 121.214844 L 1049.214844 78.785156 L 1006.785156 78.785156 "/>
</g>
</svg>
