<?xml version="1.0" encoding="UTF-8"?>
<svg xmlns="http://www.w3.org/2000/svg" xmlns:xlink="http://www.w3.org/1999/xlink" width="1179pt" height="517pt" viewBox="0 0 1179 517" version="1.1">
<g id="surface221">
<rect x="0" y="0" width="1179" height="517" style="fill:rgb(90%,90%,90%);fill-opacity:1;stroke:none;"/>
<path style="fill-rule:nonzero;fill:rgb(35%,70%,90%);fill-opacity:1;stroke-width:1;stroke-linecap:butt;stroke-linejoin:miter;stroke:rgb(0%,0%,0%);stroke-opacity:1;stroke-miterlimit:10;" d="M 91 312 L 120.664062 312 L 132.664062 283.785156 L 144.664062 312 L 174.332031 312 L 150.332031 329.4375 L 158.417969 360.980469 L 132.664062 343.542969 L 106.914062 360.980469 L 119.214844 329.4375 L 91 312 "/>
<path style="fill-rule:nonzero;fill:rgb(53%,27%,7%);fill-opacity:1;stroke-width:1;stroke-linecap:butt;stroke-linejoin:miter;stroke:rgb(0%,0%,0%);stroke-opacity:1;stroke-miterlimit:10;" d="M 337 286 L 366.664062 286 L 378.664062 257.785156 L 390.664062 286 L 420.332031 286 L 396.332031 303.4375 L 404.417969 334.980469 L 378.664062 317.542969 L 352.914062 334.980469 L 365.214844 303.4375 L 337 286 "/>
<path style="fill-rule:nonzero;fill:rgb(35%,70%,90%);fill-opacity:1;stroke-width:1;stroke-linecap:butt;stroke-linejoin:miter;stroke:rgb(0%,0%,0%);stroke-opacity:1;stroke-miterlimit:10;" d="M 159 429 L 188.664062 429 L 200.664062 400.785156 L 212.664062 429 L 242.332031 429 L 218.332031 446.4375 L 226.417969 477.980469 L 200.664062 460.542969 L 174.914062 477.980469 L 187.214844 446.4375 L 159 429 "/>
<path style="fill-rule:nonzero;fill:rgb(53%,27%,7%);fill-opacity:1;stroke-width:1;stroke-linecap:butt;stroke-linejoin:miter;stroke:rgb(0%,0%,0%);stroke-opacity:1;stroke-miterlimit:10;" d="M 137 103 L 166.664062 103 L 178.664062 74.785156 L 190.664062 103 L 220.332031 103 L 196.332031 120.4375 L 204.417969 151.980469 L 178.664062 134.542969 L 152.914062 151.980469 L 165.214844 120.4375 L 137 103 "/>
<path style="fill-rule:nonzero;fill:rgb(53%,27%,7%);fill-opacity:1;stroke-width:1;stroke-linecap:butt;stroke-linejoin:miter;stroke:rgb(0%,0%,0%);stroke-opacity:1;stroke-miterlimit:10;" d="M 746.785156 264.785156 L 746.785156 307.214844 L 789.214844 307.214844 L 789.214844 264.785156 L 746.785156 264.785156 "/>
<path style="fill-rule:nonzero;fill:rgb(35%,70%,90%);fill-opacity:1;stroke-width:1;stroke-linecap:butt;stroke-linejoin:miter;stroke:rgb(0%,0%,0%);stroke-opacity:1;stroke-miterlimit:10;" d="M 960.785156 166.785156 L 960.785156 209.214844 L 1003.214844 209.214844 L 1003.214844 166.785156 L 960.785156 166.785156 "/>
<path style="fill-rule:nonzero;fill:rgb(53%,27%,7%);fill-opacity:1;stroke-width:1;stroke-linecap:butt;stroke-linejoin:miter;stroke:rgb(0%,0%,0%);stroke-opacity:1;stroke-miterlimit:10;" d="M 824.785156 122.785156 L 824.785156 165.214844 L 867.214844 165.214844 L 867.214844 122.785156 L 824.785156 122.785156 "/>
</g>
</svg>
