<?xml version="1.0" encoding="UTF-8"?>
<svg xmlns="http://www.w3.org/2000/svg" xmlns:xlink="http://www.w3.org/1999/xlink" width="1179pt" height="517pt" viewBox="0 0 1179 517" version="1.1">
<g id="surface1116">
<rect x="0" y="0" width="1179" height="517" style="fill:rgb(90%,90%,90%);fill-opacity:1;stroke:none;"/>
<path style="fill-rule:nonzero;fill:rgb(55%,51%,53%);fill-opacity:1;stroke-width:1;stroke-linecap:butt;stroke-linejoin:miter;stroke:rgb(0%,0%,0%);stroke-opacity:1;stroke-miterlimit:10;" d="M 285.214844 431 C 285.214844 442.714844 275.714844 452.214844 264 452.214844 C 252.285156 452.214844 242.785156 442.714844 242.785156 431 C 242.785156 419.285156 252.285156 409.785156 264 409.785156 C 275.714844 409.785156 285.214844 419.285156 285.214844 431 "/>
<path style="fill-rule:nonzero;fill:rgb(55%,51%,53%);fill-opacity:1;stroke-width:1;stroke-linecap:butt;stroke-linejoin:miter;stroke:rgb(0%,0%,0%);stroke-opacity:1;stroke-miterlimit:10;" d="M 265.214844 310 C 265.214844 321.714844 255.714844 331.214844 244 331.214844 C 232.285156 331.214844 222.785156 321.714844 222.785156 310 C 222.785156 298.285156 232.285156 288.785156 244 288.785156 C 255.714844 288.785156 265.214844 298.285156 265.214844 310 "/>
<path style="fill-rule:nonzero;fill:rgb(55%,51%,53%);fill-opacity:1;stroke-width:1;stroke-linecap:butt;stroke-linejoin:miter;stroke:rgb(0%,0%,0%);stroke-opacity:1;stroke-miterlimit:10;" d="M 697.214844 369 C 697.214844 380.714844 687.714844 390.214844 676 390.214844 C 664.285156 390.214844 654.785156 380.714844 654.785156 369 C 654.785156 357.285156 664.285156 347.785156 676 347.785156 C 687.714844 347.785156 697.214844 357.285156 697.214844 369 "/>
<path style="fill-rule:nonzero;fill:rgb(100%,51%,0%);fill-opacity:1;stroke-width:1;stroke-linecap:butt;stroke-linejoin:miter;stroke:rgb(0%,0%,0%);stroke-opacity:1;stroke-miterlimit:10;" d="M 386 94.601562 C 386 80.199219 362 80.199219 362 94.601562 C 362 109 386 111.398438 386 123.398438 C 386 111.398438 410 109 410 94.601562 C 410 80.199219 386 80.199219 386 94.601562 "/>
<path style="fill-rule:nonzero;fill:rgb(100%,51%,0%);fill-opacity:1;stroke-width:1;stroke-linecap:butt;stroke-linejoin:miter;stroke:rgb(0%,0%,0%);stroke-opacity:1;stroke-miterlimit:10;" d="M 481 353.601562 C 481 339.199219 457 339.199219 457 353.601562 C 457 368 481 370.398438 481 382.398438 C 481 370.398438 505 368 505 353.601562 C 505 339.199219 481 339.199219 481 353.601562 "/>
<path style="fill-rule:nonzero;fill:rgb(100%,51%,0%);fill-opacity:1;stroke-width:1;stroke-linecap:butt;stroke-linejoin:miter;stroke:rgb(0%,0%,0%);stroke-opacity:1;stroke-miterlimit:10;" d="M 828 148.601562 C 828 134.199219 804 134.199219 804 148.601562 C 804 163 828 165.398438 828 177.398438 C 828 165.398438 852 163 852 148.601562 C 852 134.199219 828 134.199219 828 148.601562 "/>
<path style="fill-rule:nonzero;fill:rgb(100%,51%,0%);fill-opacity:1;stroke-width:1;stroke-linecap:butt;stroke-linejoin:miter;stroke:rgb(0%,0%,0%);stroke-opacity:1;stroke-miterlimit:10;" d="M 595 82.601562 C 595 68.199219 571 68.199219 571 82.601562 C 571 97 595 99.398438 595 111.398438 C 595 99.398438 619 97 619 82.601562 C 619 68.199219 595 68.199219 595 82.601562 "/>
</g>
</svg>
