<?xml version="1.0" encoding="UTF-8"?>
<svg xmlns="http://www.w3.org/2000/svg" xmlns:xlink="http://www.w3.org/1999/xlink" width="1179pt" height="517pt" viewBox="0 0 1179 517" version="1.1">
<g id="surface726">
<rect x="0" y="0" width="1179" height="517" style="fill:rgb(90%,90%,90%);fill-opacity:1;stroke:none;"/>
<path style="fill-rule:nonzero;fill:rgb(55%,51%,53%);fill-opacity:1;stroke-width:1;stroke-linecap:butt;stroke-linejoin:miter;stroke:rgb(0%,0%,0%);stroke-opacity:1;stroke-miterlimit:10;" d="M 856 101 L 830.019531 146 L 881.980469 146 L 856 101 "/>
<path style="fill-rule:nonzero;fill:rgb(55%,51%,53%);fill-opacity:1;stroke-width:1;stroke-linecap:butt;stroke-linejoin:miter;stroke:rgb(0%,0%,0%);stroke-opacity:1;stroke-miterlimit:10;" d="M 522 303 L 496.019531 348 L 547.980469 348 L 522 303 "/>
<path style="fill-rule:nonzero;fill:rgb(55%,51%,53%);fill-opacity:1;stroke-width:1;stroke-linecap:butt;stroke-linejoin:miter;stroke:rgb(0%,0%,0%);stroke-opacity:1;stroke-miterlimit:10;" d="M 242 190 L 216.019531 235 L 267.980469 235 L 242 190 "/>
<path style="fill-rule:nonzero;fill:rgb(100%,51%,0%);fill-opacity:1;stroke-width:1;stroke-linecap:butt;stroke-linejoin:miter;stroke:rgb(0%,0%,0%);stroke-opacity:1;stroke-miterlimit:10;" d="M 651 379 L 680.664062 379 L 692.664062 350.785156 L 704.664062 379 L 734.332031 379 L 710.332031 396.4375 L 718.417969 427.980469 L 692.664062 410.542969 L 666.914062 427.980469 L 679.214844 396.4375 L 651 379 "/>
<path style="fill-rule:nonzero;fill:rgb(100%,51%,0%);fill-opacity:1;stroke-width:1;stroke-linecap:butt;stroke-linejoin:miter;stroke:rgb(0%,0%,0%);stroke-opacity:1;stroke-miterlimit:10;" d="M 971 248 L 1000.664062 248 L 1012.664062 219.785156 L 1024.664062 248 L 1054.332031 248 L 1030.332031 265.4375 L 1038.417969 296.980469 L 1012.664062 279.542969 L 986.914062 296.980469 L 999.214844 265.4375 L 971 248 "/>
<path style="fill-rule:nonzero;fill:rgb(100%,51%,0%);fill-opacity:1;stroke-width:1;stroke-linecap:butt;stroke-linejoin:miter;stroke:rgb(0%,0%,0%);stroke-opacity:1;stroke-miterlimit:10;" d="M 891 406 L 920.664062 406 L 932.664062 377.785156 L 944.664062 406 L 974.332031 406 L 950.332031 423.4375 L 958.417969 454.980469 L 932.664062 437.542969 L 906.914062 454.980469 L 919.214844 423.4375 L 891 406 "/>
<path style="fill-rule:nonzero;fill:rgb(100%,51%,0%);fill-opacity:1;stroke-width:1;stroke-linecap:butt;stroke-linejoin:miter;stroke:rgb(0%,0%,0%);stroke-opacity:1;stroke-miterlimit:10;" d="M 545 193 L 574.664062 193 L 586.664062 164.785156 L 598.664062 193 L 628.332031 193 L 604.332031 210.4375 L 612.417969 241.980469 L 586.664062 224.542969 L 560.914062 241.980469 L 573.214844 210.4375 L 545 193 "/>
<path style="fill-rule:nonzero;fill:rgb(100%,51%,0%);fill-opacity:1;stroke-width:1;stroke-linecap:butt;stroke-linejoin:miter;stroke:rgb(0%,0%,0%);stroke-opacity:1;stroke-miterlimit:10;" d="M 441 110 L 470.664062 110 L 482.664062 81.785156 L 494.664062 110 L 524.332031 110 L 500.332031 127.4375 L 508.417969 158.980469 L 482.664062 141.542969 L 456.914062 158.980469 L 469.214844 127.4375 L 441 110 "/>
</g>
</svg>
