<?xml version="1.0" encoding="UTF-8"?>
<svg xmlns="http://www.w3.org/2000/svg" xmlns:xlink="http://www.w3.org/1999/xlink" width="1179pt" height="517pt" viewBox="0 0 1179 517" version="1.1">
<g id="surface511">
<rect x="0" y="0" width="1179" height="517" style="fill:rgb(90%,90%,90%);fill-opacity:1;stroke:none;"/>
<path style="fill-rule:nonzero;fill:rgb(55%,51%,53%);fill-opacity:1;stroke-width:1;stroke-linecap:butt;stroke-linejoin:miter;stroke:rgb(0%,0%,0%);stroke-opacity:1;stroke-miterlimit:10;" d="M 1012 284 L 1041.664062 284 L 1053.664062 255.785156 L 1065.664062 284 L 1095.332031 284 L 1071.332031 301.4375 L 1079.417969 332.980469 L 1053.664062 315.542969 L 1027.914062 332.980469 L 1040.214844 301.4375 L 1012 284 "/>
<path style="fill-rule:nonzero;fill:rgb(55%,51%,53%);fill-opacity:1;stroke-width:1;stroke-linecap:butt;stroke-linejoin:miter;stroke:rgb(0%,0%,0%);stroke-opacity:1;stroke-miterlimit:10;" d="M 904 410 L 933.664062 410 L 945.664062 381.785156 L 957.664062 410 L 987.332031 410 L 963.332031 427.4375 L 971.417969 458.980469 L 945.664062 441.542969 L 919.914062 458.980469 L 932.214844 427.4375 L 904 410 "/>
<path style="fill-rule:nonzero;fill:rgb(55%,51%,53%);fill-opacity:1;stroke-width:1;stroke-linecap:butt;stroke-linejoin:miter;stroke:rgb(0%,0%,0%);stroke-opacity:1;stroke-miterlimit:10;" d="M 1027 411 L 1056.664062 411 L 1068.664062 382.785156 L 1080.664062 411 L 1110.332031 411 L 1086.332031 428.4375 L 1094.417969 459.980469 L 1068.664062 442.542969 L 1042.914062 459.980469 L 1055.214844 428.4375 L 1027 411 "/>
<path style="fill-rule:nonzero;fill:rgb(55%,51%,53%);fill-opacity:1;stroke-width:1;stroke-linecap:butt;stroke-linejoin:miter;stroke:rgb(0%,0%,0%);stroke-opacity:1;stroke-miterlimit:10;" d="M 377 160 L 406.664062 160 L 418.664062 131.785156 L 430.664062 160 L 460.332031 160 L 436.332031 177.4375 L 444.417969 208.980469 L 418.664062 191.542969 L 392.914062 208.980469 L 405.214844 177.4375 L 377 160 "/>
<path style="fill-rule:nonzero;fill:rgb(53%,27%,7%);fill-opacity:1;stroke-width:1;stroke-linecap:butt;stroke-linejoin:miter;stroke:rgb(0%,0%,0%);stroke-opacity:1;stroke-miterlimit:10;" d="M 234.214844 167 C 234.214844 178.714844 224.714844 188.214844 213 188.214844 C 201.285156 188.214844 191.785156 178.714844 191.785156 167 C 191.785156 155.285156 201.285156 145.785156 213 145.785156 C 224.714844 145.785156 234.214844 155.285156 234.214844 167 "/>
<path style="fill-rule:nonzero;fill:rgb(53%,27%,7%);fill-opacity:1;stroke-width:1;stroke-linecap:butt;stroke-linejoin:miter;stroke:rgb(0%,0%,0%);stroke-opacity:1;stroke-miterlimit:10;" d="M 637.214844 432 C 637.214844 443.714844 627.714844 453.214844 616 453.214844 C 604.285156 453.214844 594.785156 443.714844 594.785156 432 C 594.785156 420.285156 604.285156 410.785156 616 410.785156 C 627.714844 410.785156 637.214844 420.285156 637.214844 432 "/>
<path style="fill-rule:nonzero;fill:rgb(53%,27%,7%);fill-opacity:1;stroke-width:1;stroke-linecap:butt;stroke-linejoin:miter;stroke:rgb(0%,0%,0%);stroke-opacity:1;stroke-miterlimit:10;" d="M 516.214844 385 C 516.214844 396.714844 506.714844 406.214844 495 406.214844 C 483.285156 406.214844 473.785156 396.714844 473.785156 385 C 473.785156 373.285156 483.285156 363.785156 495 363.785156 C 506.714844 363.785156 516.214844 373.285156 516.214844 385 "/>
<path style="fill-rule:nonzero;fill:rgb(53%,27%,7%);fill-opacity:1;stroke-width:1;stroke-linecap:butt;stroke-linejoin:miter;stroke:rgb(0%,0%,0%);stroke-opacity:1;stroke-miterlimit:10;" d="M 738.214844 316 C 738.214844 327.714844 728.714844 337.214844 717 337.214844 C 705.285156 337.214844 695.785156 327.714844 695.785156 316 C 695.785156 304.285156 705.285156 294.785156 717 294.785156 C 728.714844 294.785156 738.214844 304.285156 738.214844 316 "/>
</g>
</svg>
