<?xml version="1.0" encoding="UTF-8"?>
<svg xmlns="http://www.w3.org/2000/svg" xmlns:xlink="http://www.w3.org/1999/xlink" width="1179pt" height="517pt" viewBox="0 0 1179 517" version="1.1">
<g id="surface946">
<rect x="0" y="0" width="1179" height="517" style="fill:rgb(90%,90%,90%);fill-opacity:1;stroke:none;"/>
<path style="fill-rule:nonzero;fill:rgb(53%,27%,7%);fill-opacity:1;stroke-width:1;stroke-linecap:butt;stroke-linejoin:miter;stroke:rgb(0%,0%,0%);stroke-opacity:1;stroke-miterlimit:10;" d="M 171 270.601562 C 171 256.199219 147 256.199219 147 270.601562 C 147 285 171 287.398438 171 299.398438 C 171 287.398438 195 285 195 270.601562 C 195 256.199219 171 256.199219 171 270.601562 "/>
<path style="fill-rule:nonzero;fill:rgb(53%,27%,7%);fill-opacity:1;stroke-width:1;stroke-linecap:butt;stroke-linejoin:miter;stroke:rgb(0%,0%,0%);stroke-opacity:1;stroke-miterlimit:10;" d="M 353 246.601562 C 353 232.199219 329 232.199219 329 246.601562 C 329 261 353 263.398438 353 275.398438 C 353 263.398438 377 261 377 246.601562 C 377 232.199219 353 232.199219 353 246.601562 "/>
<path style="fill-rule:nonzero;fill:rgb(53%,27%,7%);fill-opacity:1;stroke-width:1;stroke-linecap:butt;stroke-linejoin:miter;stroke:rgb(0%,0%,0%);stroke-opacity:1;stroke-miterlimit:10;" d="M 505 137.601562 C 505 123.199219 481 123.199219 481 137.601562 C 481 152 505 154.398438 505 166.398438 C 505 154.398438 529 152 529 137.601562 C 529 123.199219 505 123.199219 505 137.601562 "/>
<path style="fill-rule:nonzero;fill:rgb(53%,27%,7%);fill-opacity:1;stroke-width:1;stroke-linecap:butt;stroke-linejoin:miter;stroke:rgb(0%,0%,0%);stroke-opacity:1;stroke-miterlimit:10;" d="M 450 403.601562 C 450 389.199219 426 389.199219 426 403.601562 C 426 418 450 420.398438 450 432.398438 C 450 420.398438 474 418 474 403.601562 C 474 389.199219 450 389.199219 450 403.601562 "/>
<path style="fill-rule:nonzero;fill:rgb(53%,27%,7%);fill-opacity:1;stroke-width:1;stroke-linecap:butt;stroke-linejoin:miter;stroke:rgb(0%,0%,0%);stroke-opacity:1;stroke-miterlimit:10;" d="M 893 365.601562 C 893 351.199219 869 351.199219 869 365.601562 C 869 380 893 382.398438 893 394.398438 C 893 382.398438 917 380 917 365.601562 C 917 351.199219 893 351.199219 893 365.601562 "/>
<path style="fill-rule:nonzero;fill:rgb(100%,51%,0%);fill-opacity:1;stroke-width:1;stroke-linecap:butt;stroke-linejoin:miter;stroke:rgb(0%,0%,0%);stroke-opacity:1;stroke-miterlimit:10;" d="M 854.214844 186 C 854.214844 197.714844 844.714844 207.214844 833 207.214844 C 821.285156 207.214844 811.785156 197.714844 811.785156 186 C 811.785156 174.285156 821.285156 164.785156 833 164.785156 C 844.714844 164.785156 854.214844 174.285156 854.214844 186 "/>
<path style="fill-rule:nonzero;fill:rgb(100%,51%,0%);fill-opacity:1;stroke-width:1;stroke-linecap:butt;stroke-linejoin:miter;stroke:rgb(0%,0%,0%);stroke-opacity:1;stroke-miterlimit:10;" d="M 207.214844 427 C 207.214844 438.714844 197.714844 448.214844 186 448.214844 C 174.285156 448.214844 164.785156 438.714844 164.785156 427 C 164.785156 415.285156 174.285156 405.785156 186 405.785156 C 197.714844 405.785156 207.214844 415.285156 207.214844 427 "/>
<path style="fill-rule:nonzero;fill:rgb(100%,51%,0%);fill-opacity:1;stroke-width:1;stroke-linecap:butt;stroke-linejoin:miter;stroke:rgb(0%,0%,0%);stroke-opacity:1;stroke-miterlimit:10;" d="M 1030.214844 238 C 1030.214844 249.714844 1020.714844 259.214844 1009 259.214844 C 997.285156 259.214844 987.785156 249.714844 987.785156 238 C 987.785156 226.285156 997.285156 216.785156 1009 216.785156 C 1020.714844 216.785156 1030.214844 226.285156 1030.214844 238 "/>
<path style="fill-rule:nonzero;fill:rgb(100%,51%,0%);fill-opacity:1;stroke-width:1;stroke-linecap:butt;stroke-linejoin:miter;stroke:rgb(0%,0%,0%);stroke-opacity:1;stroke-miterlimit:10;" d="M 1024.214844 106 C 1024.214844 117.714844 1014.714844 127.214844 1003 127.214844 C 991.285156 127.214844 981.785156 117.714844 981.785156 106 C 981.785156 94.285156 991.285156 84.785156 1003 84.785156 C 1014.714844 84.785156 1024.214844 94.285156 1024.214844 106 "/>
</g>
</svg>
