<?xml version="1.0" encoding="UTF-8"?>
<svg xmlns="http://www.w3.org/2000/svg" xmlns:xlink="http://www.w3.org/1999/xlink" width="1179pt" height="517pt" viewBox="0 0 1179 517" version="1.1">
<g id="surface471">
<rect x="0" y="0" width="1179" height="517" style="fill:rgb(90%,90%,90%);fill-opacity:1;stroke:none;"/>
<path style="fill-rule:nonzero;fill:rgb(100%,51%,0%);fill-opacity:1;stroke-width:1;stroke-linecap:butt;stroke-linejoin:miter;stroke:rgb(0%,0%,0%);stroke-opacity:1;stroke-miterlimit:10;" d="M 116.214844 109 C 116.214844 120.714844 106.714844 130.214844 95 130.214844 C 83.285156 130.214844 73.785156 120.714844 73.785156 109 C 73.785156 97.285156 83.285156 87.785156 95 87.785156 C 106.714844 87.785156 116.214844 97.285156 116.214844 109 "/>
<path style="fill-rule:nonzero;fill:rgb(53%,27%,7%);fill-opacity:1;stroke-width:1;stroke-linecap:butt;stroke-linejoin:miter;stroke:rgb(0%,0%,0%);stroke-opacity:1;stroke-miterlimit:10;" d="M 270.214844 332 C 270.214844 343.714844 260.714844 353.214844 249 353.214844 C 237.285156 353.214844 227.785156 343.714844 227.785156 332 C 227.785156 320.285156 237.285156 310.785156 249 310.785156 C 260.714844 310.785156 270.214844 320.285156 270.214844 332 "/>
<path style="fill-rule:nonzero;fill:rgb(100%,51%,0%);fill-opacity:1;stroke-width:1;stroke-linecap:butt;stroke-linejoin:miter;stroke:rgb(0%,0%,0%);stroke-opacity:1;stroke-miterlimit:10;" d="M 295.214844 240 C 295.214844 251.714844 285.714844 261.214844 274 261.214844 C 262.285156 261.214844 252.785156 251.714844 252.785156 240 C 252.785156 228.285156 262.285156 218.785156 274 218.785156 C 285.714844 218.785156 295.214844 228.285156 295.214844 240 "/>
<path style="fill-rule:nonzero;fill:rgb(53%,27%,7%);fill-opacity:1;stroke-width:1;stroke-linecap:butt;stroke-linejoin:miter;stroke:rgb(0%,0%,0%);stroke-opacity:1;stroke-miterlimit:10;" d="M 336.214844 395 C 336.214844 406.714844 326.714844 416.214844 315 416.214844 C 303.285156 416.214844 293.785156 406.714844 293.785156 395 C 293.785156 383.285156 303.285156 373.785156 315 373.785156 C 326.714844 373.785156 336.214844 383.285156 336.214844 395 "/>
<path style="fill-rule:nonzero;fill:rgb(100%,51%,0%);fill-opacity:1;stroke-width:1;stroke-linecap:butt;stroke-linejoin:miter;stroke:rgb(0%,0%,0%);stroke-opacity:1;stroke-miterlimit:10;" d="M 216.214844 178 C 216.214844 189.714844 206.714844 199.214844 195 199.214844 C 183.285156 199.214844 173.785156 189.714844 173.785156 178 C 173.785156 166.285156 183.285156 156.785156 195 156.785156 C 206.714844 156.785156 216.214844 166.285156 216.214844 178 "/>
<path style="fill-rule:nonzero;fill:rgb(53%,27%,7%);fill-opacity:1;stroke-width:1;stroke-linecap:butt;stroke-linejoin:miter;stroke:rgb(0%,0%,0%);stroke-opacity:1;stroke-miterlimit:10;" d="M 686.785156 116.785156 L 686.785156 159.214844 L 729.214844 159.214844 L 729.214844 116.785156 L 686.785156 116.785156 "/>
<path style="fill-rule:nonzero;fill:rgb(100%,51%,0%);fill-opacity:1;stroke-width:1;stroke-linecap:butt;stroke-linejoin:miter;stroke:rgb(0%,0%,0%);stroke-opacity:1;stroke-miterlimit:10;" d="M 798.785156 104.785156 L 798.785156 147.214844 L 841.214844 147.214844 L 841.214844 104.785156 L 798.785156 104.785156 "/>
<path style="fill-rule:nonzero;fill:rgb(53%,27%,7%);fill-opacity:1;stroke-width:1;stroke-linecap:butt;stroke-linejoin:miter;stroke:rgb(0%,0%,0%);stroke-opacity:1;stroke-miterlimit:10;" d="M 955.785156 86.785156 L 955.785156 129.214844 L 998.214844 129.214844 L 998.214844 86.785156 L 955.785156 86.785156 "/>
<path style="fill-rule:nonzero;fill:rgb(100%,51%,0%);fill-opacity:1;stroke-width:1;stroke-linecap:butt;stroke-linejoin:miter;stroke:rgb(0%,0%,0%);stroke-opacity:1;stroke-miterlimit:10;" d="M 718.785156 268.785156 L 718.785156 311.214844 L 761.214844 311.214844 L 761.214844 268.785156 L 718.785156 268.785156 "/>
</g>
</svg>
