<?xml version="1.0" encoding="UTF-8"?>
<svg xmlns="http://www.w3.org/2000/svg" xmlns:xlink="http://www.w3.org/1999/xlink" width="1179pt" height="517pt" viewBox="0 0 1179 517" version="1.1">
<g id="surface1386">
<rect x="0" y="0" width="1179" height="517" style="fill:rgb(90%,90%,90%);fill-opacity:1;stroke:none;"/>
<path style="fill-rule:nonzero;fill:rgb(55%,51%,53%);fill-opacity:1;stroke-width:1;stroke-linecap:butt;stroke-linejoin:miter;stroke:rgb(0%,0%,0%);stroke-opacity:1;stroke-miterlimit:10;" d="M 407.214844 81 C 407.214844 92.714844 397.714844 102.214844 386 102.214844 C 374.285156 102.214844 364.785156 92.714844 364.785156 81 C 364.785156 69.285156 374.285156 59.785156 386 59.785156 C 397.714844 59.785156 407.214844 69.285156 407.214844 81 "/>
<path style="fill-rule:nonzero;fill:rgb(55%,51%,53%);fill-opacity:1;stroke-width:1;stroke-linecap:butt;stroke-linejoin:miter;stroke:rgb(0%,0%,0%);stroke-opacity:1;stroke-miterlimit:10;" d="M 536.214844 164 C 536.214844 175.714844 526.714844 185.214844 515 185.214844 C 503.285156 185.214844 493.785156 175.714844 493.785156 164 C 493.785156 152.285156 503.285156 142.785156 515 142.785156 C 526.714844 142.785156 536.214844 152.285156 536.214844 164 "/>
<path style="fill-rule:nonzero;fill:rgb(55%,51%,53%);fill-opacity:1;stroke-width:1;stroke-linecap:butt;stroke-linejoin:miter;stroke:rgb(0%,0%,0%);stroke-opacity:1;stroke-miterlimit:10;" d="M 746.214844 431 C 746.214844 442.714844 736.714844 452.214844 725 452.214844 C 713.285156 452.214844 703.785156 442.714844 703.785156 431 C 703.785156 419.285156 713.285156 409.785156 725 409.785156 C 736.714844 409.785156 746.214844 419.285156 746.214844 431 "/>
<path style="fill-rule:nonzero;fill:rgb(100%,51%,0%);fill-opacity:1;stroke-width:1;stroke-linecap:butt;stroke-linejoin:miter;stroke:rgb(0%,0%,0%);stroke-opacity:1;stroke-miterlimit:10;" d="M 109 323.601562 C 109 309.199219 85 309.199219 85 323.601562 C 85 338 109 340.398438 109 352.398438 C 109 340.398438 133 338 133 323.601562 C 133 309.199219 109 309.199219 109 323.601562 "/>
<path style="fill-rule:nonzero;fill:rgb(100%,51%,0%);fill-opacity:1;stroke-width:1;stroke-linecap:butt;stroke-linejoin:miter;stroke:rgb(0%,0%,0%);stroke-opacity:1;stroke-miterlimit:10;" d="M 801 259.601562 C 801 245.199219 777 245.199219 777 259.601562 C 777 274 801 276.398438 801 288.398438 C 801 276.398438 825 274 825 259.601562 C 825 245.199219 801 245.199219 801 259.601562 "/>
<path style="fill-rule:nonzero;fill:rgb(100%,51%,0%);fill-opacity:1;stroke-width:1;stroke-linecap:butt;stroke-linejoin:miter;stroke:rgb(0%,0%,0%);stroke-opacity:1;stroke-miterlimit:10;" d="M 999 69.601562 C 999 55.199219 975 55.199219 975 69.601562 C 975 84 999 86.398438 999 98.398438 C 999 86.398438 1023 84 1023 69.601562 C 1023 55.199219 999 55.199219 999 69.601562 "/>
<path style="fill-rule:nonzero;fill:rgb(100%,51%,0%);fill-opacity:1;stroke-width:1;stroke-linecap:butt;stroke-linejoin:miter;stroke:rgb(0%,0%,0%);stroke-opacity:1;stroke-miterlimit:10;" d="M 349 382.601562 C 349 368.199219 325 368.199219 325 382.601562 C 325 397 349 399.398438 349 411.398438 C 349 399.398438 373 397 373 382.601562 C 373 368.199219 349 368.199219 349 382.601562 "/>
</g>
</svg>
