<?xml version="1.0" encoding="UTF-8"?>
<svg xmlns="http://www.w3.org/2000/svg" xmlns:xlink="http://www.w3.org/1999/xlink" width="1179pt" height="517pt" viewBox="0 0 1179 517" version="1.1">
<g id="surface231">
<rect x="0" y="0" width="1179" height="517" style="fill:rgb(90%,90%,90%);fill-opacity:1;stroke:none;"/>
<path style="fill-rule:nonzero;fill:rgb(35%,70%,90%);fill-opacity:1;stroke-width:1;stroke-linecap:butt;stroke-linejoin:miter;stroke:rgb(0%,0%,0%);stroke-opacity:1;stroke-miterlimit:10;" d="M 158.214844 294 C 158.214844 305.714844 148.714844 315.214844 137 315.214844 C 125.285156 315.214844 115.785156 305.714844 115.785156 294 C 115.785156 282.285156 125.285156 272.785156 137 272.785156 C 148.714844 272.785156 158.214844 282.285156 158.214844 294 "/>
<path style="fill-rule:nonzero;fill:rgb(35%,70%,90%);fill-opacity:1;stroke-width:1;stroke-linecap:butt;stroke-linejoin:miter;stroke:rgb(0%,0%,0%);stroke-opacity:1;stroke-miterlimit:10;" d="M 105.214844 99 C 105.214844 110.714844 95.714844 120.214844 84 120.214844 C 72.285156 120.214844 62.785156 110.714844 62.785156 99 C 62.785156 87.285156 72.285156 77.785156 84 77.785156 C 95.714844 77.785156 105.214844 87.285156 105.214844 99 "/>
<path style="fill-rule:nonzero;fill:rgb(35%,70%,90%);fill-opacity:1;stroke-width:1;stroke-linecap:butt;stroke-linejoin:miter;stroke:rgb(0%,0%,0%);stroke-opacity:1;stroke-miterlimit:10;" d="M 384.214844 401 C 384.214844 412.714844 374.714844 422.214844 363 422.214844 C 351.285156 422.214844 341.785156 412.714844 341.785156 401 C 341.785156 389.285156 351.285156 379.785156 363 379.785156 C 374.714844 379.785156 384.214844 389.285156 384.214844 401 "/>
<path style="fill-rule:nonzero;fill:rgb(35%,70%,90%);fill-opacity:1;stroke-width:1;stroke-linecap:butt;stroke-linejoin:miter;stroke:rgb(0%,0%,0%);stroke-opacity:1;stroke-miterlimit:10;" d="M 231.785156 199.785156 L 231.785156 242.214844 L 274.214844 242.214844 L 274.214844 199.785156 L 231.785156 199.785156 "/>
<path style="fill-rule:nonzero;fill:rgb(53%,27%,7%);fill-opacity:1;stroke-width:1;stroke-linecap:butt;stroke-linejoin:miter;stroke:rgb(0%,0%,0%);stroke-opacity:1;stroke-miterlimit:10;" d="M 786.785156 366.785156 L 786.785156 409.214844 L 829.214844 409.214844 L 829.214844 366.785156 L 786.785156 366.785156 "/>
<path style="fill-rule:nonzero;fill:rgb(53%,27%,7%);fill-opacity:1;stroke-width:1;stroke-linecap:butt;stroke-linejoin:miter;stroke:rgb(0%,0%,0%);stroke-opacity:1;stroke-miterlimit:10;" d="M 996.785156 338.785156 L 996.785156 381.214844 L 1039.214844 381.214844 L 1039.214844 338.785156 L 996.785156 338.785156 "/>
<path style="fill-rule:nonzero;fill:rgb(53%,27%,7%);fill-opacity:1;stroke-width:1;stroke-linecap:butt;stroke-linejoin:miter;stroke:rgb(0%,0%,0%);stroke-opacity:1;stroke-miterlimit:10;" d="M 872.785156 208.785156 L 872.785156 251.214844 L 915.214844 251.214844 L 915.214844 208.785156 L 872.785156 208.785156 "/>
<path style="fill-rule:nonzero;fill:rgb(53%,27%,7%);fill-opacity:1;stroke-width:1;stroke-linecap:butt;stroke-linejoin:miter;stroke:rgb(0%,0%,0%);stroke-opacity:1;stroke-miterlimit:10;" d="M 1020.214844 154 C 1020.214844 165.714844 1010.714844 175.214844 999 175.214844 C 987.285156 175.214844 977.785156 165.714844 977.785156 154 C 977.785156 142.285156 987.285156 132.785156 999 132.785156 C 1010.714844 132.785156 1020.214844 142.285156 1020.214844 154 "/>
</g>
</svg>
