<?xml version="1.0" encoding="UTF-8"?>
<svg xmlns="http://www.w3.org/2000/svg" xmlns:xlink="http://www.w3.org/1999/xlink" width="1179pt" height="517pt" viewBox="0 0 1179 517" version="1.1">
<g id="surface336">
<rect x="0" y="0" width="1179" height="517" style="fill:rgb(90%,90%,90%);fill-opacity:1;stroke:none;"/>
<path style="fill-rule:nonzero;fill:rgb(55%,51%,53%);fill-opacity:1;stroke-width:1;stroke-linecap:butt;stroke-linejoin:miter;stroke:rgb(0%,0%,0%);stroke-opacity:1;stroke-miterlimit:10;" d="M 363 424 L 392.664062 424 L 404.664062 395.785156 L 416.664062 424 L 446.332031 424 L 422.332031 441.4375 L 430.417969 472.980469 L 404.664062 455.542969 L 378.914062 472.980469 L 391.214844 441.4375 L 363 424 "/>
<path style="fill-rule:nonzero;fill:rgb(55%,51%,53%);fill-opacity:1;stroke-width:1;stroke-linecap:butt;stroke-linejoin:miter;stroke:rgb(0%,0%,0%);stroke-opacity:1;stroke-miterlimit:10;" d="M 841 369 L 870.664062 369 L 882.664062 340.785156 L 894.664062 369 L 924.332031 369 L 900.332031 386.4375 L 908.417969 417.980469 L 882.664062 400.542969 L 856.914062 417.980469 L 869.214844 386.4375 L 841 369 "/>
<path style="fill-rule:nonzero;fill:rgb(55%,51%,53%);fill-opacity:1;stroke-width:1;stroke-linecap:butt;stroke-linejoin:miter;stroke:rgb(0%,0%,0%);stroke-opacity:1;stroke-miterlimit:10;" d="M 1040 354 L 1069.664062 354 L 1081.664062 325.785156 L 1093.664062 354 L 1123.332031 354 L 1099.332031 371.4375 L 1107.417969 402.980469 L 1081.664062 385.542969 L 1055.914062 402.980469 L 1068.214844 371.4375 L 1040 354 "/>
<path style="fill-rule:nonzero;fill:rgb(55%,51%,53%);fill-opacity:1;stroke-width:1;stroke-linecap:butt;stroke-linejoin:miter;stroke:rgb(0%,0%,0%);stroke-opacity:1;stroke-miterlimit:10;" d="M 824 172 L 853.664062 172 L 865.664062 143.785156 L 877.664062 172 L 907.332031 172 L 883.332031 189.4375 L 891.417969 220.980469 L 865.664062 203.542969 L 839.914062 220.980469 L 852.214844 189.4375 L 824 172 "/>
<path style="fill-rule:nonzero;fill:rgb(53%,27%,7%);fill-opacity:1;stroke-width:1;stroke-linecap:butt;stroke-linejoin:miter;stroke:rgb(0%,0%,0%);stroke-opacity:1;stroke-miterlimit:10;" d="M 1001 151 L 975.019531 196 L 1026.980469 196 L 1001 151 "/>
<path style="fill-rule:nonzero;fill:rgb(53%,27%,7%);fill-opacity:1;stroke-width:1;stroke-linecap:butt;stroke-linejoin:miter;stroke:rgb(0%,0%,0%);stroke-opacity:1;stroke-miterlimit:10;" d="M 471 84 L 445.019531 129 L 496.980469 129 L 471 84 "/>
<path style="fill-rule:nonzero;fill:rgb(53%,27%,7%);fill-opacity:1;stroke-width:1;stroke-linecap:butt;stroke-linejoin:miter;stroke:rgb(0%,0%,0%);stroke-opacity:1;stroke-miterlimit:10;" d="M 161 217 L 135.019531 262 L 186.980469 262 L 161 217 "/>
<path style="fill-rule:nonzero;fill:rgb(53%,27%,7%);fill-opacity:1;stroke-width:1;stroke-linecap:butt;stroke-linejoin:miter;stroke:rgb(0%,0%,0%);stroke-opacity:1;stroke-miterlimit:10;" d="M 627 250 L 601.019531 295 L 652.980469 295 L 627 250 "/>
</g>
</svg>
