<?xml version="1.0" encoding="UTF-8"?>
<svg xmlns="http://www.w3.org/2000/svg" xmlns:xlink="http://www.w3.org/1999/xlink" width="1179pt" height="517pt" viewBox="0 0 1179 517" version="1.1">
<g id="surface1081">
<rect x="0" y="0" width="1179" height="517" style="fill:rgb(90%,90%,90%);fill-opacity:1;stroke:none;"/>
<path style="fill-rule:nonzero;fill:rgb(53%,27%,7%);fill-opacity:1;stroke-width:1;stroke-linecap:butt;stroke-linejoin:miter;stroke:rgb(0%,0%,0%);stroke-opacity:1;stroke-miterlimit:10;" d="M 788.214844 208 C 788.214844 219.714844 778.714844 229.214844 767 229.214844 C 755.285156 229.214844 745.785156 219.714844 745.785156 208 C 745.785156 196.285156 755.285156 186.785156 767 186.785156 C 778.714844 186.785156 788.214844 196.285156 788.214844 208 "/>
<path style="fill-rule:nonzero;fill:rgb(53%,27%,7%);fill-opacity:1;stroke-width:1;stroke-linecap:butt;stroke-linejoin:miter;stroke:rgb(0%,0%,0%);stroke-opacity:1;stroke-miterlimit:10;" d="M 307.214844 119 C 307.214844 130.714844 297.714844 140.214844 286 140.214844 C 274.285156 140.214844 264.785156 130.714844 264.785156 119 C 264.785156 107.285156 274.285156 97.785156 286 97.785156 C 297.714844 97.785156 307.214844 107.285156 307.214844 119 "/>
<path style="fill-rule:nonzero;fill:rgb(53%,27%,7%);fill-opacity:1;stroke-width:1;stroke-linecap:butt;stroke-linejoin:miter;stroke:rgb(0%,0%,0%);stroke-opacity:1;stroke-miterlimit:10;" d="M 912.214844 428 C 912.214844 439.714844 902.714844 449.214844 891 449.214844 C 879.285156 449.214844 869.785156 439.714844 869.785156 428 C 869.785156 416.285156 879.285156 406.785156 891 406.785156 C 902.714844 406.785156 912.214844 416.285156 912.214844 428 "/>
<path style="fill-rule:nonzero;fill:rgb(53%,27%,7%);fill-opacity:1;stroke-width:1;stroke-linecap:butt;stroke-linejoin:miter;stroke:rgb(0%,0%,0%);stroke-opacity:1;stroke-miterlimit:10;" d="M 275.214844 364 C 275.214844 375.714844 265.714844 385.214844 254 385.214844 C 242.285156 385.214844 232.785156 375.714844 232.785156 364 C 232.785156 352.285156 242.285156 342.785156 254 342.785156 C 265.714844 342.785156 275.214844 352.285156 275.214844 364 "/>
<path style="fill-rule:nonzero;fill:rgb(53%,27%,7%);fill-opacity:1;stroke-width:1;stroke-linecap:butt;stroke-linejoin:miter;stroke:rgb(0%,0%,0%);stroke-opacity:1;stroke-miterlimit:10;" d="M 603.214844 204 C 603.214844 215.714844 593.714844 225.214844 582 225.214844 C 570.285156 225.214844 560.785156 215.714844 560.785156 204 C 560.785156 192.285156 570.285156 182.785156 582 182.785156 C 593.714844 182.785156 603.214844 192.285156 603.214844 204 "/>
<path style="fill-rule:nonzero;fill:rgb(100%,51%,0%);fill-opacity:1;stroke-width:1;stroke-linecap:butt;stroke-linejoin:miter;stroke:rgb(0%,0%,0%);stroke-opacity:1;stroke-miterlimit:10;" d="M 970 249 L 999.664062 249 L 1011.664062 220.785156 L 1023.664062 249 L 1053.332031 249 L 1029.332031 266.4375 L 1037.417969 297.980469 L 1011.664062 280.542969 L 985.914062 297.980469 L 998.214844 266.4375 L 970 249 "/>
<path style="fill-rule:nonzero;fill:rgb(100%,51%,0%);fill-opacity:1;stroke-width:1;stroke-linecap:butt;stroke-linejoin:miter;stroke:rgb(0%,0%,0%);stroke-opacity:1;stroke-miterlimit:10;" d="M 394 377 L 423.664062 377 L 435.664062 348.785156 L 447.664062 377 L 477.332031 377 L 453.332031 394.4375 L 461.417969 425.980469 L 435.664062 408.542969 L 409.914062 425.980469 L 422.214844 394.4375 L 394 377 "/>
<path style="fill-rule:nonzero;fill:rgb(100%,51%,0%);fill-opacity:1;stroke-width:1;stroke-linecap:butt;stroke-linejoin:miter;stroke:rgb(0%,0%,0%);stroke-opacity:1;stroke-miterlimit:10;" d="M 446 149 L 475.664062 149 L 487.664062 120.785156 L 499.664062 149 L 529.332031 149 L 505.332031 166.4375 L 513.417969 197.980469 L 487.664062 180.542969 L 461.914062 197.980469 L 474.214844 166.4375 L 446 149 "/>
<path style="fill-rule:nonzero;fill:rgb(100%,51%,0%);fill-opacity:1;stroke-width:1;stroke-linecap:butt;stroke-linejoin:miter;stroke:rgb(0%,0%,0%);stroke-opacity:1;stroke-miterlimit:10;" d="M 563 340 L 592.664062 340 L 604.664062 311.785156 L 616.664062 340 L 646.332031 340 L 622.332031 357.4375 L 630.417969 388.980469 L 604.664062 371.542969 L 578.914062 388.980469 L 591.214844 357.4375 L 563 340 "/>
<path style="fill-rule:nonzero;fill:rgb(100%,51%,0%);fill-opacity:1;stroke-width:1;stroke-linecap:butt;stroke-linejoin:miter;stroke:rgb(0%,0%,0%);stroke-opacity:1;stroke-miterlimit:10;" d="M 175 234 L 204.664062 234 L 216.664062 205.785156 L 228.664062 234 L 258.332031 234 L 234.332031 251.4375 L 242.417969 282.980469 L 216.664062 265.542969 L 190.914062 282.980469 L 203.214844 251.4375 L 175 234 "/>
</g>
</svg>
