<?xml version="1.0" encoding="UTF-8"?>
<svg xmlns="http://www.w3.org/2000/svg" xmlns:xlink="http://www.w3.org/1999/xlink" width="1179pt" height="517pt" viewBox="0 0 1179 517" version="1.1">
<g id="surface966">
<rect x="0" y="0" width="1179" height="517" style="fill:rgb(90%,90%,90%);fill-opacity:1;stroke:none;"/>
<path style="fill-rule:nonzero;fill:rgb(53%,27%,7%);fill-opacity:1;stroke-width:1;stroke-linecap:butt;stroke-linejoin:miter;stroke:rgb(0%,0%,0%);stroke-opacity:1;stroke-miterlimit:10;" d="M 550 233 L 579.664062 233 L 591.664062 204.785156 L 603.664062 233 L 633.332031 233 L 609.332031 250.4375 L 617.417969 281.980469 L 591.664062 264.542969 L 565.914062 281.980469 L 578.214844 250.4375 L 550 233 "/>
<path style="fill-rule:nonzero;fill:rgb(53%,27%,7%);fill-opacity:1;stroke-width:1;stroke-linecap:butt;stroke-linejoin:miter;stroke:rgb(0%,0%,0%);stroke-opacity:1;stroke-miterlimit:10;" d="M 312 362 L 341.664062 362 L 353.664062 333.785156 L 365.664062 362 L 395.332031 362 L 371.332031 379.4375 L 379.417969 410.980469 L 353.664062 393.542969 L 327.914062 410.980469 L 340.214844 379.4375 L 312 362 "/>
<path style="fill-rule:nonzero;fill:rgb(53%,27%,7%);fill-opacity:1;stroke-width:1;stroke-linecap:butt;stroke-linejoin:miter;stroke:rgb(0%,0%,0%);stroke-opacity:1;stroke-miterlimit:10;" d="M 250 229 L 279.664062 229 L 291.664062 200.785156 L 303.664062 229 L 333.332031 229 L 309.332031 246.4375 L 317.417969 277.980469 L 291.664062 260.542969 L 265.914062 277.980469 L 278.214844 246.4375 L 250 229 "/>
<path style="fill-rule:nonzero;fill:rgb(53%,27%,7%);fill-opacity:1;stroke-width:1;stroke-linecap:butt;stroke-linejoin:miter;stroke:rgb(0%,0%,0%);stroke-opacity:1;stroke-miterlimit:10;" d="M 1014 253 L 1043.664062 253 L 1055.664062 224.785156 L 1067.664062 253 L 1097.332031 253 L 1073.332031 270.4375 L 1081.417969 301.980469 L 1055.664062 284.542969 L 1029.914062 301.980469 L 1042.214844 270.4375 L 1014 253 "/>
<path style="fill-rule:nonzero;fill:rgb(55%,51%,53%);fill-opacity:1;stroke-width:1;stroke-linecap:butt;stroke-linejoin:miter;stroke:rgb(0%,0%,0%);stroke-opacity:1;stroke-miterlimit:10;" d="M 779 263 L 808.664062 263 L 820.664062 234.785156 L 832.664062 263 L 862.332031 263 L 838.332031 280.4375 L 846.417969 311.980469 L 820.664062 294.542969 L 794.914062 311.980469 L 807.214844 280.4375 L 779 263 "/>
<path style="fill-rule:nonzero;fill:rgb(55%,51%,53%);fill-opacity:1;stroke-width:1;stroke-linecap:butt;stroke-linejoin:miter;stroke:rgb(0%,0%,0%);stroke-opacity:1;stroke-miterlimit:10;" d="M 609 364 L 638.664062 364 L 650.664062 335.785156 L 662.664062 364 L 692.332031 364 L 668.332031 381.4375 L 676.417969 412.980469 L 650.664062 395.542969 L 624.914062 412.980469 L 637.214844 381.4375 L 609 364 "/>
<path style="fill-rule:nonzero;fill:rgb(55%,51%,53%);fill-opacity:1;stroke-width:1;stroke-linecap:butt;stroke-linejoin:miter;stroke:rgb(0%,0%,0%);stroke-opacity:1;stroke-miterlimit:10;" d="M 894 108 L 923.664062 108 L 935.664062 79.785156 L 947.664062 108 L 977.332031 108 L 953.332031 125.4375 L 961.417969 156.980469 L 935.664062 139.542969 L 909.914062 156.980469 L 922.214844 125.4375 L 894 108 "/>
<path style="fill-rule:nonzero;fill:rgb(55%,51%,53%);fill-opacity:1;stroke-width:1;stroke-linecap:butt;stroke-linejoin:miter;stroke:rgb(0%,0%,0%);stroke-opacity:1;stroke-miterlimit:10;" d="M 356 148 L 385.664062 148 L 397.664062 119.785156 L 409.664062 148 L 439.332031 148 L 415.332031 165.4375 L 423.417969 196.980469 L 397.664062 179.542969 L 371.914062 196.980469 L 384.214844 165.4375 L 356 148 "/>
</g>
</svg>
