<?xml version="1.0" encoding="UTF-8"?>
<svg xmlns="http://www.w3.org/2000/svg" xmlns:xlink="http://www.w3.org/1999/xlink" width="1179pt" height="517pt" viewBox="0 0 1179 517" version="1.1">
<g id="surface1361">
<rect x="0" y="0" width="1179" height="517" style="fill:rgb(90%,90%,90%);fill-opacity:1;stroke:none;"/>
<path style="fill-rule:nonzero;fill:rgb(35%,70%,90%);fill-opacity:1;stroke-width:1;stroke-linecap:butt;stroke-linejoin:miter;stroke:rgb(0%,0%,0%);stroke-opacity:1;stroke-miterlimit:10;" d="M 471.214844 384 C 471.214844 395.714844 461.714844 405.214844 450 405.214844 C 438.285156 405.214844 428.785156 395.714844 428.785156 384 C 428.785156 372.285156 438.285156 362.785156 450 362.785156 C 461.714844 362.785156 471.214844 372.285156 471.214844 384 "/>
<path style="fill-rule:nonzero;fill:rgb(35%,70%,90%);fill-opacity:1;stroke-width:1;stroke-linecap:butt;stroke-linejoin:miter;stroke:rgb(0%,0%,0%);stroke-opacity:1;stroke-miterlimit:10;" d="M 758.214844 184 C 758.214844 195.714844 748.714844 205.214844 737 205.214844 C 725.285156 205.214844 715.785156 195.714844 715.785156 184 C 715.785156 172.285156 725.285156 162.785156 737 162.785156 C 748.714844 162.785156 758.214844 172.285156 758.214844 184 "/>
<path style="fill-rule:nonzero;fill:rgb(35%,70%,90%);fill-opacity:1;stroke-width:1;stroke-linecap:butt;stroke-linejoin:miter;stroke:rgb(0%,0%,0%);stroke-opacity:1;stroke-miterlimit:10;" d="M 345.214844 102 C 345.214844 113.714844 335.714844 123.214844 324 123.214844 C 312.285156 123.214844 302.785156 113.714844 302.785156 102 C 302.785156 90.285156 312.285156 80.785156 324 80.785156 C 335.714844 80.785156 345.214844 90.285156 345.214844 102 "/>
<path style="fill-rule:nonzero;fill:rgb(35%,70%,90%);fill-opacity:1;stroke-width:1;stroke-linecap:butt;stroke-linejoin:miter;stroke:rgb(0%,0%,0%);stroke-opacity:1;stroke-miterlimit:10;" d="M 685.214844 84 C 685.214844 95.714844 675.714844 105.214844 664 105.214844 C 652.285156 105.214844 642.785156 95.714844 642.785156 84 C 642.785156 72.285156 652.285156 62.785156 664 62.785156 C 675.714844 62.785156 685.214844 72.285156 685.214844 84 "/>
<path style="fill-rule:nonzero;fill:rgb(55%,51%,53%);fill-opacity:1;stroke-width:1;stroke-linecap:butt;stroke-linejoin:miter;stroke:rgb(0%,0%,0%);stroke-opacity:1;stroke-miterlimit:10;" d="M 495 125 L 524.664062 125 L 536.664062 96.785156 L 548.664062 125 L 578.332031 125 L 554.332031 142.4375 L 562.417969 173.980469 L 536.664062 156.542969 L 510.914062 173.980469 L 523.214844 142.4375 L 495 125 "/>
<path style="fill-rule:nonzero;fill:rgb(55%,51%,53%);fill-opacity:1;stroke-width:1;stroke-linecap:butt;stroke-linejoin:miter;stroke:rgb(0%,0%,0%);stroke-opacity:1;stroke-miterlimit:10;" d="M 856 416 L 885.664062 416 L 897.664062 387.785156 L 909.664062 416 L 939.332031 416 L 915.332031 433.4375 L 923.417969 464.980469 L 897.664062 447.542969 L 871.914062 464.980469 L 884.214844 433.4375 L 856 416 "/>
<path style="fill-rule:nonzero;fill:rgb(55%,51%,53%);fill-opacity:1;stroke-width:1;stroke-linecap:butt;stroke-linejoin:miter;stroke:rgb(0%,0%,0%);stroke-opacity:1;stroke-miterlimit:10;" d="M 1029 367 L 1058.664062 367 L 1070.664062 338.785156 L 1082.664062 367 L 1112.332031 367 L 1088.332031 384.4375 L 1096.417969 415.980469 L 1070.664062 398.542969 L 1044.914062 415.980469 L 1057.214844 384.4375 L 1029 367 "/>
<path style="fill-rule:nonzero;fill:rgb(55%,51%,53%);fill-opacity:1;stroke-width:1;stroke-linecap:butt;stroke-linejoin:miter;stroke:rgb(0%,0%,0%);stroke-opacity:1;stroke-miterlimit:10;" d="M 921 257 L 950.664062 257 L 962.664062 228.785156 L 974.664062 257 L 1004.332031 257 L 980.332031 274.4375 L 988.417969 305.980469 L 962.664062 288.542969 L 936.914062 305.980469 L 949.214844 274.4375 L 921 257 "/>
</g>
</svg>
