<?xml version="1.0" encoding="UTF-8"?>
<svg xmlns="http://www.w3.org/2000/svg" xmlns:xlink="http://www.w3.org/1999/xlink" width="1179pt" height="517pt" viewBox="0 0 1179 517" version="1.1">
<g id="surface41">
<rect x="0" y="0" width="1179" height="517" style="fill:rgb(90%,90%,90%);fill-opacity:1;stroke:none;"/>
<path style="fill-rule:nonzero;fill:rgb(35%,70%,90%);fill-opacity:1;stroke-width:1;stroke-linecap:butt;stroke-linejoin:miter;stroke:rgb(0%,0%,0%);stroke-opacity:1;stroke-miterlimit:10;" d="M 88 287 L 117.664062 287 L 129.664062 258.785156 L 141.664062 287 L 171.332031 287 L 147.332031 304.4375 L 155.417969 335.980469 L 129.664062 318.542969 L 103.914062 335.980469 L 116.214844 304.4375 L 88 287 "/>
<path style="fill-rule:nonzero;fill:rgb(35%,70%,90%);fill-opacity:1;stroke-width:1;stroke-linecap:butt;stroke-linejoin:miter;stroke:rgb(0%,0%,0%);stroke-opacity:1;stroke-miterlimit:10;" d="M 380.785156 322.785156 L 380.785156 365.214844 L 423.214844 365.214844 L 423.214844 322.785156 L 380.785156 322.785156 "/>
<path style="fill-rule:nonzero;fill:rgb(35%,70%,90%);fill-opacity:1;stroke-width:1;stroke-linecap:butt;stroke-linejoin:miter;stroke:rgb(0%,0%,0%);stroke-opacity:1;stroke-miterlimit:10;" d="M 297 429 L 326.664062 429 L 338.664062 400.785156 L 350.664062 429 L 380.332031 429 L 356.332031 446.4375 L 364.417969 477.980469 L 338.664062 460.542969 L 312.914062 477.980469 L 325.214844 446.4375 L 297 429 "/>
<path style="fill-rule:nonzero;fill:rgb(35%,70%,90%);fill-opacity:1;stroke-width:1;stroke-linecap:butt;stroke-linejoin:miter;stroke:rgb(0%,0%,0%);stroke-opacity:1;stroke-miterlimit:10;" d="M 304.785156 167.785156 L 304.785156 210.214844 L 347.214844 210.214844 L 347.214844 167.785156 L 304.785156 167.785156 "/>
<path style="fill-rule:nonzero;fill:rgb(35%,70%,90%);fill-opacity:1;stroke-width:1;stroke-linecap:butt;stroke-linejoin:miter;stroke:rgb(0%,0%,0%);stroke-opacity:1;stroke-miterlimit:10;" d="M 255 133 L 284.664062 133 L 296.664062 104.785156 L 308.664062 133 L 338.332031 133 L 314.332031 150.4375 L 322.417969 181.980469 L 296.664062 164.542969 L 270.914062 181.980469 L 283.214844 150.4375 L 255 133 "/>
<path style="fill-rule:nonzero;fill:rgb(53%,27%,7%);fill-opacity:1;stroke-width:1;stroke-linecap:butt;stroke-linejoin:miter;stroke:rgb(0%,0%,0%);stroke-opacity:1;stroke-miterlimit:10;" d="M 834.785156 177.785156 L 834.785156 220.214844 L 877.214844 220.214844 L 877.214844 177.785156 L 834.785156 177.785156 "/>
<path style="fill-rule:nonzero;fill:rgb(53%,27%,7%);fill-opacity:1;stroke-width:1;stroke-linecap:butt;stroke-linejoin:miter;stroke:rgb(0%,0%,0%);stroke-opacity:1;stroke-miterlimit:10;" d="M 736 257 L 765.664062 257 L 777.664062 228.785156 L 789.664062 257 L 819.332031 257 L 795.332031 274.4375 L 803.417969 305.980469 L 777.664062 288.542969 L 751.914062 305.980469 L 764.214844 274.4375 L 736 257 "/>
<path style="fill-rule:nonzero;fill:rgb(53%,27%,7%);fill-opacity:1;stroke-width:1;stroke-linecap:butt;stroke-linejoin:miter;stroke:rgb(0%,0%,0%);stroke-opacity:1;stroke-miterlimit:10;" d="M 1000.785156 245.785156 L 1000.785156 288.214844 L 1043.214844 288.214844 L 1043.214844 245.785156 L 1000.785156 245.785156 "/>
<path style="fill-rule:nonzero;fill:rgb(53%,27%,7%);fill-opacity:1;stroke-width:1;stroke-linecap:butt;stroke-linejoin:miter;stroke:rgb(0%,0%,0%);stroke-opacity:1;stroke-miterlimit:10;" d="M 714 112 L 743.664062 112 L 755.664062 83.785156 L 767.664062 112 L 797.332031 112 L 773.332031 129.4375 L 781.417969 160.980469 L 755.664062 143.542969 L 729.914062 160.980469 L 742.214844 129.4375 L 714 112 "/>
<path style="fill-rule:nonzero;fill:rgb(53%,27%,7%);fill-opacity:1;stroke-width:1;stroke-linecap:butt;stroke-linejoin:miter;stroke:rgb(0%,0%,0%);stroke-opacity:1;stroke-miterlimit:10;" d="M 741.785156 360.785156 L 741.785156 403.214844 L 784.214844 403.214844 L 784.214844 360.785156 L 741.785156 360.785156 "/>
</g>
</svg>
