<?xml version="1.0" encoding="UTF-8"?>
<svg xmlns="http://www.w3.org/2000/svg" xmlns:xlink="http://www.w3.org/1999/xlink" width="1179pt" height="517pt" viewBox="0 0 1179 517" version="1.1">
<g id="surface466">
<rect x="0" y="0" width="1179" height="517" style="fill:rgb(90%,90%,90%);fill-opacity:1;stroke:none;"/>
<path style="fill-rule:nonzero;fill:rgb(100%,51%,0%);fill-opacity:1;stroke-width:1;stroke-linecap:butt;stroke-linejoin:miter;stroke:rgb(0%,0%,0%);stroke-opacity:1;stroke-miterlimit:10;" d="M 158.214844 295 C 158.214844 306.714844 148.714844 316.214844 137 316.214844 C 125.285156 316.214844 115.785156 306.714844 115.785156 295 C 115.785156 283.285156 125.285156 273.785156 137 273.785156 C 148.714844 273.785156 158.214844 283.285156 158.214844 295 "/>
<path style="fill-rule:nonzero;fill:rgb(100%,51%,0%);fill-opacity:1;stroke-width:1;stroke-linecap:butt;stroke-linejoin:miter;stroke:rgb(0%,0%,0%);stroke-opacity:1;stroke-miterlimit:10;" d="M 336 105 L 310.019531 150 L 361.980469 150 L 336 105 "/>
<path style="fill-rule:nonzero;fill:rgb(100%,51%,0%);fill-opacity:1;stroke-width:1;stroke-linecap:butt;stroke-linejoin:miter;stroke:rgb(0%,0%,0%);stroke-opacity:1;stroke-miterlimit:10;" d="M 117 87 L 91.019531 132 L 142.980469 132 L 117 87 "/>
<path style="fill-rule:nonzero;fill:rgb(100%,51%,0%);fill-opacity:1;stroke-width:1;stroke-linecap:butt;stroke-linejoin:miter;stroke:rgb(0%,0%,0%);stroke-opacity:1;stroke-miterlimit:10;" d="M 416.214844 356 C 416.214844 367.714844 406.714844 377.214844 395 377.214844 C 383.285156 377.214844 373.785156 367.714844 373.785156 356 C 373.785156 344.285156 383.285156 334.785156 395 334.785156 C 406.714844 334.785156 416.214844 344.285156 416.214844 356 "/>
<path style="fill-rule:nonzero;fill:rgb(100%,51%,0%);fill-opacity:1;stroke-width:1;stroke-linecap:butt;stroke-linejoin:miter;stroke:rgb(0%,0%,0%);stroke-opacity:1;stroke-miterlimit:10;" d="M 325.214844 286 C 325.214844 297.714844 315.714844 307.214844 304 307.214844 C 292.285156 307.214844 282.785156 297.714844 282.785156 286 C 282.785156 274.285156 292.285156 264.785156 304 264.785156 C 315.714844 264.785156 325.214844 274.285156 325.214844 286 "/>
<path style="fill-rule:nonzero;fill:rgb(53%,27%,7%);fill-opacity:1;stroke-width:1;stroke-linecap:butt;stroke-linejoin:miter;stroke:rgb(0%,0%,0%);stroke-opacity:1;stroke-miterlimit:10;" d="M 709 222 L 683.019531 267 L 734.980469 267 L 709 222 "/>
<path style="fill-rule:nonzero;fill:rgb(53%,27%,7%);fill-opacity:1;stroke-width:1;stroke-linecap:butt;stroke-linejoin:miter;stroke:rgb(0%,0%,0%);stroke-opacity:1;stroke-miterlimit:10;" d="M 831.214844 390 C 831.214844 401.714844 821.714844 411.214844 810 411.214844 C 798.285156 411.214844 788.785156 401.714844 788.785156 390 C 788.785156 378.285156 798.285156 368.785156 810 368.785156 C 821.714844 368.785156 831.214844 378.285156 831.214844 390 "/>
<path style="fill-rule:nonzero;fill:rgb(53%,27%,7%);fill-opacity:1;stroke-width:1;stroke-linecap:butt;stroke-linejoin:miter;stroke:rgb(0%,0%,0%);stroke-opacity:1;stroke-miterlimit:10;" d="M 1039.214844 224 C 1039.214844 235.714844 1029.714844 245.214844 1018 245.214844 C 1006.285156 245.214844 996.785156 235.714844 996.785156 224 C 996.785156 212.285156 1006.285156 202.785156 1018 202.785156 C 1029.714844 202.785156 1039.214844 212.285156 1039.214844 224 "/>
<path style="fill-rule:nonzero;fill:rgb(53%,27%,7%);fill-opacity:1;stroke-width:1;stroke-linecap:butt;stroke-linejoin:miter;stroke:rgb(0%,0%,0%);stroke-opacity:1;stroke-miterlimit:10;" d="M 835 239 L 809.019531 284 L 860.980469 284 L 835 239 "/>
<path style="fill-rule:nonzero;fill:rgb(53%,27%,7%);fill-opacity:1;stroke-width:1;stroke-linecap:butt;stroke-linejoin:miter;stroke:rgb(0%,0%,0%);stroke-opacity:1;stroke-miterlimit:10;" d="M 923 94 L 897.019531 139 L 948.980469 139 L 923 94 "/>
</g>
</svg>
