<?xml version="1.0" encoding="UTF-8"?>
<svg xmlns="http://www.w3.org/2000/svg" xmlns:xlink="http://www.w3.org/1999/xlink" width="1179pt" height="517pt" viewBox="0 0 1179 517" version="1.1">
<g id="surface1451">
<rect x="0" y="0" width="1179" height="517" style="fill:rgb(90%,90%,90%);fill-opacity:1;stroke:none;"/>
<path style="fill-rule:nonzero;fill:rgb(35%,70%,90%);fill-opacity:1;stroke-width:1;stroke-linecap:butt;stroke-linejoin:miter;stroke:rgb(0%,0%,0%);stroke-opacity:1;stroke-miterlimit:10;" d="M 1059.214844 275 C 1059.214844 286.714844 1049.714844 296.214844 1038 296.214844 C 1026.285156 296.214844 1016.785156 286.714844 1016.785156 275 C 1016.785156 263.285156 1026.285156 253.785156 1038 253.785156 C 1049.714844 253.785156 1059.214844 263.285156 1059.214844 275 "/>
<path style="fill-rule:nonzero;fill:rgb(35%,70%,90%);fill-opacity:1;stroke-width:1;stroke-linecap:butt;stroke-linejoin:miter;stroke:rgb(0%,0%,0%);stroke-opacity:1;stroke-miterlimit:10;" d="M 580.214844 290 C 580.214844 301.714844 570.714844 311.214844 559 311.214844 C 547.285156 311.214844 537.785156 301.714844 537.785156 290 C 537.785156 278.285156 547.285156 268.785156 559 268.785156 C 570.714844 268.785156 580.214844 278.285156 580.214844 290 "/>
<path style="fill-rule:nonzero;fill:rgb(35%,70%,90%);fill-opacity:1;stroke-width:1;stroke-linecap:butt;stroke-linejoin:miter;stroke:rgb(0%,0%,0%);stroke-opacity:1;stroke-miterlimit:10;" d="M 522.214844 139 C 522.214844 150.714844 512.714844 160.214844 501 160.214844 C 489.285156 160.214844 479.785156 150.714844 479.785156 139 C 479.785156 127.285156 489.285156 117.785156 501 117.785156 C 512.714844 117.785156 522.214844 127.285156 522.214844 139 "/>
<path style="fill-rule:nonzero;fill:rgb(35%,70%,90%);fill-opacity:1;stroke-width:1;stroke-linecap:butt;stroke-linejoin:miter;stroke:rgb(0%,0%,0%);stroke-opacity:1;stroke-miterlimit:10;" d="M 268.214844 301 C 268.214844 312.714844 258.714844 322.214844 247 322.214844 C 235.285156 322.214844 225.785156 312.714844 225.785156 301 C 225.785156 289.285156 235.285156 279.785156 247 279.785156 C 258.714844 279.785156 268.214844 289.285156 268.214844 301 "/>
<path style="fill-rule:nonzero;fill:rgb(55%,51%,53%);fill-opacity:1;stroke-width:1;stroke-linecap:butt;stroke-linejoin:miter;stroke:rgb(0%,0%,0%);stroke-opacity:1;stroke-miterlimit:10;" d="M 911 289 L 940.664062 289 L 952.664062 260.785156 L 964.664062 289 L 994.332031 289 L 970.332031 306.4375 L 978.417969 337.980469 L 952.664062 320.542969 L 926.914062 337.980469 L 939.214844 306.4375 L 911 289 "/>
<path style="fill-rule:nonzero;fill:rgb(55%,51%,53%);fill-opacity:1;stroke-width:1;stroke-linecap:butt;stroke-linejoin:miter;stroke:rgb(0%,0%,0%);stroke-opacity:1;stroke-miterlimit:10;" d="M 660 409 L 689.664062 409 L 701.664062 380.785156 L 713.664062 409 L 743.332031 409 L 719.332031 426.4375 L 727.417969 457.980469 L 701.664062 440.542969 L 675.914062 457.980469 L 688.214844 426.4375 L 660 409 "/>
<path style="fill-rule:nonzero;fill:rgb(55%,51%,53%);fill-opacity:1;stroke-width:1;stroke-linecap:butt;stroke-linejoin:miter;stroke:rgb(0%,0%,0%);stroke-opacity:1;stroke-miterlimit:10;" d="M 797 203 L 826.664062 203 L 838.664062 174.785156 L 850.664062 203 L 880.332031 203 L 856.332031 220.4375 L 864.417969 251.980469 L 838.664062 234.542969 L 812.914062 251.980469 L 825.214844 220.4375 L 797 203 "/>
<path style="fill-rule:nonzero;fill:rgb(55%,51%,53%);fill-opacity:1;stroke-width:1;stroke-linecap:butt;stroke-linejoin:miter;stroke:rgb(0%,0%,0%);stroke-opacity:1;stroke-miterlimit:10;" d="M 248 179 L 277.664062 179 L 289.664062 150.785156 L 301.664062 179 L 331.332031 179 L 307.332031 196.4375 L 315.417969 227.980469 L 289.664062 210.542969 L 263.914062 227.980469 L 276.214844 196.4375 L 248 179 "/>
</g>
</svg>
