<?xml version="1.0" encoding="UTF-8"?>
<svg xmlns="http://www.w3.org/2000/svg" xmlns:xlink="http://www.w3.org/1999/xlink" width="1179pt" height="517pt" viewBox="0 0 1179 517" version="1.1">
<g id="surface1016">
<rect x="0" y="0" width="1179" height="517" style="fill:rgb(90%,90%,90%);fill-opacity:1;stroke:none;"/>
<path style="fill-rule:nonzero;fill:rgb(55%,51%,53%);fill-opacity:1;stroke-width:1;stroke-linecap:butt;stroke-linejoin:miter;stroke:rgb(0%,0%,0%);stroke-opacity:1;stroke-miterlimit:10;" d="M 801 394.601562 C 801 380.199219 777 380.199219 777 394.601562 C 777 409 801 411.398438 801 423.398438 C 801 411.398438 825 409 825 394.601562 C 825 380.199219 801 380.199219 801 394.601562 "/>
<path style="fill-rule:nonzero;fill:rgb(55%,51%,53%);fill-opacity:1;stroke-width:1;stroke-linecap:butt;stroke-linejoin:miter;stroke:rgb(0%,0%,0%);stroke-opacity:1;stroke-miterlimit:10;" d="M 101 382.601562 C 101 368.199219 77 368.199219 77 382.601562 C 77 397 101 399.398438 101 411.398438 C 101 399.398438 125 397 125 382.601562 C 125 368.199219 101 368.199219 101 382.601562 "/>
<path style="fill-rule:nonzero;fill:rgb(55%,51%,53%);fill-opacity:1;stroke-width:1;stroke-linecap:butt;stroke-linejoin:miter;stroke:rgb(0%,0%,0%);stroke-opacity:1;stroke-miterlimit:10;" d="M 262 363.601562 C 262 349.199219 238 349.199219 238 363.601562 C 238 378 262 380.398438 262 392.398438 C 262 380.398438 286 378 286 363.601562 C 286 349.199219 262 349.199219 262 363.601562 "/>
<path style="fill-rule:nonzero;fill:rgb(55%,51%,53%);fill-opacity:1;stroke-width:1;stroke-linecap:butt;stroke-linejoin:miter;stroke:rgb(0%,0%,0%);stroke-opacity:1;stroke-miterlimit:10;" d="M 830 253.601562 C 830 239.199219 806 239.199219 806 253.601562 C 806 268 830 270.398438 830 282.398438 C 830 270.398438 854 268 854 253.601562 C 854 239.199219 830 239.199219 830 253.601562 "/>
<path style="fill-rule:nonzero;fill:rgb(53%,27%,7%);fill-opacity:1;stroke-width:1;stroke-linecap:butt;stroke-linejoin:miter;stroke:rgb(0%,0%,0%);stroke-opacity:1;stroke-miterlimit:10;" d="M 799 112 L 828.664062 112 L 840.664062 83.785156 L 852.664062 112 L 882.332031 112 L 858.332031 129.4375 L 866.417969 160.980469 L 840.664062 143.542969 L 814.914062 160.980469 L 827.214844 129.4375 L 799 112 "/>
<path style="fill-rule:nonzero;fill:rgb(53%,27%,7%);fill-opacity:1;stroke-width:1;stroke-linecap:butt;stroke-linejoin:miter;stroke:rgb(0%,0%,0%);stroke-opacity:1;stroke-miterlimit:10;" d="M 452 111 L 481.664062 111 L 493.664062 82.785156 L 505.664062 111 L 535.332031 111 L 511.332031 128.4375 L 519.417969 159.980469 L 493.664062 142.542969 L 467.914062 159.980469 L 480.214844 128.4375 L 452 111 "/>
<path style="fill-rule:nonzero;fill:rgb(53%,27%,7%);fill-opacity:1;stroke-width:1;stroke-linecap:butt;stroke-linejoin:miter;stroke:rgb(0%,0%,0%);stroke-opacity:1;stroke-miterlimit:10;" d="M 932 188 L 961.664062 188 L 973.664062 159.785156 L 985.664062 188 L 1015.332031 188 L 991.332031 205.4375 L 999.417969 236.980469 L 973.664062 219.542969 L 947.914062 236.980469 L 960.214844 205.4375 L 932 188 "/>
<path style="fill-rule:nonzero;fill:rgb(53%,27%,7%);fill-opacity:1;stroke-width:1;stroke-linecap:butt;stroke-linejoin:miter;stroke:rgb(0%,0%,0%);stroke-opacity:1;stroke-miterlimit:10;" d="M 623 215 L 652.664062 215 L 664.664062 186.785156 L 676.664062 215 L 706.332031 215 L 682.332031 232.4375 L 690.417969 263.980469 L 664.664062 246.542969 L 638.914062 263.980469 L 651.214844 232.4375 L 623 215 "/>
</g>
</svg>
