<?xml version="1.0" encoding="UTF-8"?>
<svg xmlns="http://www.w3.org/2000/svg" xmlns:xlink="http://www.w3.org/1999/xlink" width="1179pt" height="517pt" viewBox="0 0 1179 517" version="1.1">
<g id="surface461">
<rect x="0" y="0" width="1179" height="517" style="fill:rgb(90%,90%,90%);fill-opacity:1;stroke:none;"/>
<path style="fill-rule:nonzero;fill:rgb(100%,51%,0%);fill-opacity:1;stroke-width:1;stroke-linecap:butt;stroke-linejoin:miter;stroke:rgb(0%,0%,0%);stroke-opacity:1;stroke-miterlimit:10;" d="M 94 321 L 123.664062 321 L 135.664062 292.785156 L 147.664062 321 L 177.332031 321 L 153.332031 338.4375 L 161.417969 369.980469 L 135.664062 352.542969 L 109.914062 369.980469 L 122.214844 338.4375 L 94 321 "/>
<path style="fill-rule:nonzero;fill:rgb(100%,51%,0%);fill-opacity:1;stroke-width:1;stroke-linecap:butt;stroke-linejoin:miter;stroke:rgb(0%,0%,0%);stroke-opacity:1;stroke-miterlimit:10;" d="M 97.785156 210.785156 L 97.785156 253.214844 L 140.214844 253.214844 L 140.214844 210.785156 L 97.785156 210.785156 "/>
<path style="fill-rule:nonzero;fill:rgb(100%,51%,0%);fill-opacity:1;stroke-width:1;stroke-linecap:butt;stroke-linejoin:miter;stroke:rgb(0%,0%,0%);stroke-opacity:1;stroke-miterlimit:10;" d="M 415 139 L 444.664062 139 L 456.664062 110.785156 L 468.664062 139 L 498.332031 139 L 474.332031 156.4375 L 482.417969 187.980469 L 456.664062 170.542969 L 430.914062 187.980469 L 443.214844 156.4375 L 415 139 "/>
<path style="fill-rule:nonzero;fill:rgb(100%,51%,0%);fill-opacity:1;stroke-width:1;stroke-linecap:butt;stroke-linejoin:miter;stroke:rgb(0%,0%,0%);stroke-opacity:1;stroke-miterlimit:10;" d="M 180.785156 279.785156 L 180.785156 322.214844 L 223.214844 322.214844 L 223.214844 279.785156 L 180.785156 279.785156 "/>
<path style="fill-rule:nonzero;fill:rgb(53%,27%,7%);fill-opacity:1;stroke-width:1;stroke-linecap:butt;stroke-linejoin:miter;stroke:rgb(0%,0%,0%);stroke-opacity:1;stroke-miterlimit:10;" d="M 890.785156 273.785156 L 890.785156 316.214844 L 933.214844 316.214844 L 933.214844 273.785156 L 890.785156 273.785156 "/>
<path style="fill-rule:nonzero;fill:rgb(53%,27%,7%);fill-opacity:1;stroke-width:1;stroke-linecap:butt;stroke-linejoin:miter;stroke:rgb(0%,0%,0%);stroke-opacity:1;stroke-miterlimit:10;" d="M 730 424 L 759.664062 424 L 771.664062 395.785156 L 783.664062 424 L 813.332031 424 L 789.332031 441.4375 L 797.417969 472.980469 L 771.664062 455.542969 L 745.914062 472.980469 L 758.214844 441.4375 L 730 424 "/>
<path style="fill-rule:nonzero;fill:rgb(53%,27%,7%);fill-opacity:1;stroke-width:1;stroke-linecap:butt;stroke-linejoin:miter;stroke:rgb(0%,0%,0%);stroke-opacity:1;stroke-miterlimit:10;" d="M 854.785156 101.785156 L 854.785156 144.214844 L 897.214844 144.214844 L 897.214844 101.785156 L 854.785156 101.785156 "/>
<path style="fill-rule:nonzero;fill:rgb(53%,27%,7%);fill-opacity:1;stroke-width:1;stroke-linecap:butt;stroke-linejoin:miter;stroke:rgb(0%,0%,0%);stroke-opacity:1;stroke-miterlimit:10;" d="M 981 382 L 1010.664062 382 L 1022.664062 353.785156 L 1034.664062 382 L 1064.332031 382 L 1040.332031 399.4375 L 1048.417969 430.980469 L 1022.664062 413.542969 L 996.914062 430.980469 L 1009.214844 399.4375 L 981 382 "/>
</g>
</svg>
