<?xml version="1.0" encoding="UTF-8"?>
<svg xmlns="http://www.w3.org/2000/svg" xmlns:xlink="http://www.w3.org/1999/xlink" width="1179pt" height="517pt" viewBox="0 0 1179 517" version="1.1">
<g id="surface1466">
<rect x="0" y="0" width="1179" height="517" style="fill:rgb(90%,90%,90%);fill-opacity:1;stroke:none;"/>
<path style="fill-rule:nonzero;fill:rgb(55%,51%,53%);fill-opacity:1;stroke-width:1;stroke-linecap:butt;stroke-linejoin:miter;stroke:rgb(0%,0%,0%);stroke-opacity:1;stroke-miterlimit:10;" d="M 147 266.601562 C 147 252.199219 123 252.199219 123 266.601562 C 123 281 147 283.398438 147 295.398438 C 147 283.398438 171 281 171 266.601562 C 171 252.199219 147 252.199219 147 266.601562 "/>
<path style="fill-rule:nonzero;fill:rgb(55%,51%,53%);fill-opacity:1;stroke-width:1;stroke-linecap:butt;stroke-linejoin:miter;stroke:rgb(0%,0%,0%);stroke-opacity:1;stroke-miterlimit:10;" d="M 426 365.601562 C 426 351.199219 402 351.199219 402 365.601562 C 402 380 426 382.398438 426 394.398438 C 426 382.398438 450 380 450 365.601562 C 450 351.199219 426 351.199219 426 365.601562 "/>
<path style="fill-rule:nonzero;fill:rgb(55%,51%,53%);fill-opacity:1;stroke-width:1;stroke-linecap:butt;stroke-linejoin:miter;stroke:rgb(0%,0%,0%);stroke-opacity:1;stroke-miterlimit:10;" d="M 685 352.601562 C 685 338.199219 661 338.199219 661 352.601562 C 661 367 685 369.398438 685 381.398438 C 685 369.398438 709 367 709 352.601562 C 709 338.199219 685 338.199219 685 352.601562 "/>
<path style="fill-rule:nonzero;fill:rgb(55%,51%,53%);fill-opacity:1;stroke-width:1;stroke-linecap:butt;stroke-linejoin:miter;stroke:rgb(0%,0%,0%);stroke-opacity:1;stroke-miterlimit:10;" d="M 332 258.601562 C 332 244.199219 308 244.199219 308 258.601562 C 308 273 332 275.398438 332 287.398438 C 332 275.398438 356 273 356 258.601562 C 356 244.199219 332 244.199219 332 258.601562 "/>
<path style="fill-rule:nonzero;fill:rgb(53%,27%,7%);fill-opacity:1;stroke-width:1;stroke-linecap:butt;stroke-linejoin:miter;stroke:rgb(0%,0%,0%);stroke-opacity:1;stroke-miterlimit:10;" d="M 972 89 L 1001.664062 89 L 1013.664062 60.785156 L 1025.664062 89 L 1055.332031 89 L 1031.332031 106.4375 L 1039.417969 137.980469 L 1013.664062 120.542969 L 987.914062 137.980469 L 1000.214844 106.4375 L 972 89 "/>
<path style="fill-rule:nonzero;fill:rgb(53%,27%,7%);fill-opacity:1;stroke-width:1;stroke-linecap:butt;stroke-linejoin:miter;stroke:rgb(0%,0%,0%);stroke-opacity:1;stroke-miterlimit:10;" d="M 535 120 L 564.664062 120 L 576.664062 91.785156 L 588.664062 120 L 618.332031 120 L 594.332031 137.4375 L 602.417969 168.980469 L 576.664062 151.542969 L 550.914062 168.980469 L 563.214844 137.4375 L 535 120 "/>
<path style="fill-rule:nonzero;fill:rgb(53%,27%,7%);fill-opacity:1;stroke-width:1;stroke-linecap:butt;stroke-linejoin:miter;stroke:rgb(0%,0%,0%);stroke-opacity:1;stroke-miterlimit:10;" d="M 961 259 L 990.664062 259 L 1002.664062 230.785156 L 1014.664062 259 L 1044.332031 259 L 1020.332031 276.4375 L 1028.417969 307.980469 L 1002.664062 290.542969 L 976.914062 307.980469 L 989.214844 276.4375 L 961 259 "/>
<path style="fill-rule:nonzero;fill:rgb(53%,27%,7%);fill-opacity:1;stroke-width:1;stroke-linecap:butt;stroke-linejoin:miter;stroke:rgb(0%,0%,0%);stroke-opacity:1;stroke-miterlimit:10;" d="M 699 134 L 728.664062 134 L 740.664062 105.785156 L 752.664062 134 L 782.332031 134 L 758.332031 151.4375 L 766.417969 182.980469 L 740.664062 165.542969 L 714.914062 182.980469 L 727.214844 151.4375 L 699 134 "/>
</g>
</svg>
