<?xml version="1.0" encoding="UTF-8"?>
<svg xmlns="http://www.w3.org/2000/svg" xmlns:xlink="http://www.w3.org/1999/xlink" width="1179pt" height="517pt" viewBox="0 0 1179 517" version="1.1">
<g id="surface421">
<rect x="0" y="0" width="1179" height="517" style="fill:rgb(90%,90%,90%);fill-opacity:1;stroke:none;"/>
<path style="fill-rule:nonzero;fill:rgb(35%,70%,90%);fill-opacity:1;stroke-width:1;stroke-linecap:butt;stroke-linejoin:miter;stroke:rgb(0%,0%,0%);stroke-opacity:1;stroke-miterlimit:10;" d="M 351 120 L 380.664062 120 L 392.664062 91.785156 L 404.664062 120 L 434.332031 120 L 410.332031 137.4375 L 418.417969 168.980469 L 392.664062 151.542969 L 366.914062 168.980469 L 379.214844 137.4375 L 351 120 "/>
<path style="fill-rule:nonzero;fill:rgb(35%,70%,90%);fill-opacity:1;stroke-width:1;stroke-linecap:butt;stroke-linejoin:miter;stroke:rgb(0%,0%,0%);stroke-opacity:1;stroke-miterlimit:10;" d="M 627 197 L 656.664062 197 L 668.664062 168.785156 L 680.664062 197 L 710.332031 197 L 686.332031 214.4375 L 694.417969 245.980469 L 668.664062 228.542969 L 642.914062 245.980469 L 655.214844 214.4375 L 627 197 "/>
<path style="fill-rule:nonzero;fill:rgb(35%,70%,90%);fill-opacity:1;stroke-width:1;stroke-linecap:butt;stroke-linejoin:miter;stroke:rgb(0%,0%,0%);stroke-opacity:1;stroke-miterlimit:10;" d="M 165 153 L 194.664062 153 L 206.664062 124.785156 L 218.664062 153 L 248.332031 153 L 224.332031 170.4375 L 232.417969 201.980469 L 206.664062 184.542969 L 180.914062 201.980469 L 193.214844 170.4375 L 165 153 "/>
<path style="fill-rule:nonzero;fill:rgb(35%,70%,90%);fill-opacity:1;stroke-width:1;stroke-linecap:butt;stroke-linejoin:miter;stroke:rgb(0%,0%,0%);stroke-opacity:1;stroke-miterlimit:10;" d="M 913 343 L 942.664062 343 L 954.664062 314.785156 L 966.664062 343 L 996.332031 343 L 972.332031 360.4375 L 980.417969 391.980469 L 954.664062 374.542969 L 928.914062 391.980469 L 941.214844 360.4375 L 913 343 "/>
<path style="fill-rule:nonzero;fill:rgb(35%,70%,90%);fill-opacity:1;stroke-width:1;stroke-linecap:butt;stroke-linejoin:miter;stroke:rgb(0%,0%,0%);stroke-opacity:1;stroke-miterlimit:10;" d="M 711 388 L 740.664062 388 L 752.664062 359.785156 L 764.664062 388 L 794.332031 388 L 770.332031 405.4375 L 778.417969 436.980469 L 752.664062 419.542969 L 726.914062 436.980469 L 739.214844 405.4375 L 711 388 "/>
<path style="fill-rule:nonzero;fill:rgb(55%,51%,53%);fill-opacity:1;stroke-width:1;stroke-linecap:butt;stroke-linejoin:miter;stroke:rgb(0%,0%,0%);stroke-opacity:1;stroke-miterlimit:10;" d="M 532.214844 369 C 532.214844 380.714844 522.714844 390.214844 511 390.214844 C 499.285156 390.214844 489.785156 380.714844 489.785156 369 C 489.785156 357.285156 499.285156 347.785156 511 347.785156 C 522.714844 347.785156 532.214844 357.285156 532.214844 369 "/>
<path style="fill-rule:nonzero;fill:rgb(55%,51%,53%);fill-opacity:1;stroke-width:1;stroke-linecap:butt;stroke-linejoin:miter;stroke:rgb(0%,0%,0%);stroke-opacity:1;stroke-miterlimit:10;" d="M 316.214844 400 C 316.214844 411.714844 306.714844 421.214844 295 421.214844 C 283.285156 421.214844 273.785156 411.714844 273.785156 400 C 273.785156 388.285156 283.285156 378.785156 295 378.785156 C 306.714844 378.785156 316.214844 388.285156 316.214844 400 "/>
<path style="fill-rule:nonzero;fill:rgb(55%,51%,53%);fill-opacity:1;stroke-width:1;stroke-linecap:butt;stroke-linejoin:miter;stroke:rgb(0%,0%,0%);stroke-opacity:1;stroke-miterlimit:10;" d="M 1053.214844 170 C 1053.214844 181.714844 1043.714844 191.214844 1032 191.214844 C 1020.285156 191.214844 1010.785156 181.714844 1010.785156 170 C 1010.785156 158.285156 1020.285156 148.785156 1032 148.785156 C 1043.714844 148.785156 1053.214844 158.285156 1053.214844 170 "/>
<path style="fill-rule:nonzero;fill:rgb(55%,51%,53%);fill-opacity:1;stroke-width:1;stroke-linecap:butt;stroke-linejoin:miter;stroke:rgb(0%,0%,0%);stroke-opacity:1;stroke-miterlimit:10;" d="M 1062.214844 334 C 1062.214844 345.714844 1052.714844 355.214844 1041 355.214844 C 1029.285156 355.214844 1019.785156 345.714844 1019.785156 334 C 1019.785156 322.285156 1029.285156 312.785156 1041 312.785156 C 1052.714844 312.785156 1062.214844 322.285156 1062.214844 334 "/>
<path style="fill-rule:nonzero;fill:rgb(55%,51%,53%);fill-opacity:1;stroke-width:1;stroke-linecap:butt;stroke-linejoin:miter;stroke:rgb(0%,0%,0%);stroke-opacity:1;stroke-miterlimit:10;" d="M 917.214844 220 C 917.214844 231.714844 907.714844 241.214844 896 241.214844 C 884.285156 241.214844 874.785156 231.714844 874.785156 220 C 874.785156 208.285156 884.285156 198.785156 896 198.785156 C 907.714844 198.785156 917.214844 208.285156 917.214844 220 "/>
</g>
</svg>
