<?xml version="1.0" encoding="UTF-8"?>
<svg xmlns="http://www.w3.org/2000/svg" xmlns:xlink="http://www.w3.org/1999/xlink" width="1179pt" height="517pt" viewBox="0 0 1179 517" version="1.1">
<g id="surface986">
<rect x="0" y="0" width="1179" height="517" style="fill:rgb(90%,90%,90%);fill-opacity:1;stroke:none;"/>
<path style="fill-rule:nonzero;fill:rgb(53%,27%,7%);fill-opacity:1;stroke-width:1;stroke-linecap:butt;stroke-linejoin:miter;stroke:rgb(0%,0%,0%);stroke-opacity:1;stroke-miterlimit:10;" d="M 400 289.601562 C 400 275.199219 376 275.199219 376 289.601562 C 376 304 400 306.398438 400 318.398438 C 400 306.398438 424 304 424 289.601562 C 424 275.199219 400 275.199219 400 289.601562 "/>
<path style="fill-rule:nonzero;fill:rgb(53%,27%,7%);fill-opacity:1;stroke-width:1;stroke-linecap:butt;stroke-linejoin:miter;stroke:rgb(0%,0%,0%);stroke-opacity:1;stroke-miterlimit:10;" d="M 152 301.601562 C 152 287.199219 128 287.199219 128 301.601562 C 128 316 152 318.398438 152 330.398438 C 152 318.398438 176 316 176 301.601562 C 176 287.199219 152 287.199219 152 301.601562 "/>
<path style="fill-rule:nonzero;fill:rgb(53%,27%,7%);fill-opacity:1;stroke-width:1;stroke-linecap:butt;stroke-linejoin:miter;stroke:rgb(0%,0%,0%);stroke-opacity:1;stroke-miterlimit:10;" d="M 172.214844 189 C 172.214844 200.714844 162.714844 210.214844 151 210.214844 C 139.285156 210.214844 129.785156 200.714844 129.785156 189 C 129.785156 177.285156 139.285156 167.785156 151 167.785156 C 162.714844 167.785156 172.214844 177.285156 172.214844 189 "/>
<path style="fill-rule:nonzero;fill:rgb(53%,27%,7%);fill-opacity:1;stroke-width:1;stroke-linecap:butt;stroke-linejoin:miter;stroke:rgb(0%,0%,0%);stroke-opacity:1;stroke-miterlimit:10;" d="M 262.214844 200 C 262.214844 211.714844 252.714844 221.214844 241 221.214844 C 229.285156 221.214844 219.785156 211.714844 219.785156 200 C 219.785156 188.285156 229.285156 178.785156 241 178.785156 C 252.714844 178.785156 262.214844 188.285156 262.214844 200 "/>
<path style="fill-rule:nonzero;fill:rgb(100%,51%,0%);fill-opacity:1;stroke-width:1;stroke-linecap:butt;stroke-linejoin:miter;stroke:rgb(0%,0%,0%);stroke-opacity:1;stroke-miterlimit:10;" d="M 986.214844 154 C 986.214844 165.714844 976.714844 175.214844 965 175.214844 C 953.285156 175.214844 943.785156 165.714844 943.785156 154 C 943.785156 142.285156 953.285156 132.785156 965 132.785156 C 976.714844 132.785156 986.214844 142.285156 986.214844 154 "/>
<path style="fill-rule:nonzero;fill:rgb(100%,51%,0%);fill-opacity:1;stroke-width:1;stroke-linecap:butt;stroke-linejoin:miter;stroke:rgb(0%,0%,0%);stroke-opacity:1;stroke-miterlimit:10;" d="M 860.214844 99 C 860.214844 110.714844 850.714844 120.214844 839 120.214844 C 827.285156 120.214844 817.785156 110.714844 817.785156 99 C 817.785156 87.285156 827.285156 77.785156 839 77.785156 C 850.714844 77.785156 860.214844 87.285156 860.214844 99 "/>
<path style="fill-rule:nonzero;fill:rgb(100%,51%,0%);fill-opacity:1;stroke-width:1;stroke-linecap:butt;stroke-linejoin:miter;stroke:rgb(0%,0%,0%);stroke-opacity:1;stroke-miterlimit:10;" d="M 700 275.601562 C 700 261.199219 676 261.199219 676 275.601562 C 676 290 700 292.398438 700 304.398438 C 700 292.398438 724 290 724 275.601562 C 724 261.199219 700 261.199219 700 275.601562 "/>
<path style="fill-rule:nonzero;fill:rgb(100%,51%,0%);fill-opacity:1;stroke-width:1;stroke-linecap:butt;stroke-linejoin:miter;stroke:rgb(0%,0%,0%);stroke-opacity:1;stroke-miterlimit:10;" d="M 887 347.601562 C 887 333.199219 863 333.199219 863 347.601562 C 863 362 887 364.398438 887 376.398438 C 887 364.398438 911 362 911 347.601562 C 911 333.199219 887 333.199219 887 347.601562 "/>
</g>
</svg>
