<?xml version="1.0" encoding="UTF-8"?>
<svg xmlns="http://www.w3.org/2000/svg" xmlns:xlink="http://www.w3.org/1999/xlink" width="1179pt" height="517pt" viewBox="0 0 1179 517" version="1.1">
<g id="surface101">
<rect x="0" y="0" width="1179" height="517" style="fill:rgb(90%,90%,90%);fill-opacity:1;stroke:none;"/>
<path style="fill-rule:nonzero;fill:rgb(100%,51%,0%);fill-opacity:1;stroke-width:1;stroke-linecap:butt;stroke-linejoin:miter;stroke:rgb(0%,0%,0%);stroke-opacity:1;stroke-miterlimit:10;" d="M 86 379 L 115.664062 379 L 127.664062 350.785156 L 139.664062 379 L 169.332031 379 L 145.332031 396.4375 L 153.417969 427.980469 L 127.664062 410.542969 L 101.914062 427.980469 L 114.214844 396.4375 L 86 379 "/>
<path style="fill-rule:nonzero;fill:rgb(100%,51%,0%);fill-opacity:1;stroke-width:1;stroke-linecap:butt;stroke-linejoin:miter;stroke:rgb(0%,0%,0%);stroke-opacity:1;stroke-miterlimit:10;" d="M 285.785156 204.785156 L 285.785156 247.214844 L 328.214844 247.214844 L 328.214844 204.785156 L 285.785156 204.785156 "/>
<path style="fill-rule:nonzero;fill:rgb(100%,51%,0%);fill-opacity:1;stroke-width:1;stroke-linecap:butt;stroke-linejoin:miter;stroke:rgb(0%,0%,0%);stroke-opacity:1;stroke-miterlimit:10;" d="M 297 378 L 326.664062 378 L 338.664062 349.785156 L 350.664062 378 L 380.332031 378 L 356.332031 395.4375 L 364.417969 426.980469 L 338.664062 409.542969 L 312.914062 426.980469 L 325.214844 395.4375 L 297 378 "/>
<path style="fill-rule:nonzero;fill:rgb(53%,27%,7%);fill-opacity:1;stroke-width:1;stroke-linecap:butt;stroke-linejoin:miter;stroke:rgb(0%,0%,0%);stroke-opacity:1;stroke-miterlimit:10;" d="M 775.785156 194.785156 L 775.785156 237.214844 L 818.214844 237.214844 L 818.214844 194.785156 L 775.785156 194.785156 "/>
<path style="fill-rule:nonzero;fill:rgb(53%,27%,7%);fill-opacity:1;stroke-width:1;stroke-linecap:butt;stroke-linejoin:miter;stroke:rgb(0%,0%,0%);stroke-opacity:1;stroke-miterlimit:10;" d="M 919 126 L 948.664062 126 L 960.664062 97.785156 L 972.664062 126 L 1002.332031 126 L 978.332031 143.4375 L 986.417969 174.980469 L 960.664062 157.542969 L 934.914062 174.980469 L 947.214844 143.4375 L 919 126 "/>
<path style="fill-rule:nonzero;fill:rgb(53%,27%,7%);fill-opacity:1;stroke-width:1;stroke-linecap:butt;stroke-linejoin:miter;stroke:rgb(0%,0%,0%);stroke-opacity:1;stroke-miterlimit:10;" d="M 757.785156 91.785156 L 757.785156 134.214844 L 800.214844 134.214844 L 800.214844 91.785156 L 757.785156 91.785156 "/>
<path style="fill-rule:nonzero;fill:rgb(53%,27%,7%);fill-opacity:1;stroke-width:1;stroke-linecap:butt;stroke-linejoin:miter;stroke:rgb(0%,0%,0%);stroke-opacity:1;stroke-miterlimit:10;" d="M 912 432 L 941.664062 432 L 953.664062 403.785156 L 965.664062 432 L 995.332031 432 L 971.332031 449.4375 L 979.417969 480.980469 L 953.664062 463.542969 L 927.914062 480.980469 L 940.214844 449.4375 L 912 432 "/>
<path style="fill-rule:nonzero;fill:rgb(53%,27%,7%);fill-opacity:1;stroke-width:1;stroke-linecap:butt;stroke-linejoin:miter;stroke:rgb(0%,0%,0%);stroke-opacity:1;stroke-miterlimit:10;" d="M 934.785156 210.785156 L 934.785156 253.214844 L 977.214844 253.214844 L 977.214844 210.785156 L 934.785156 210.785156 "/>
</g>
</svg>
