<?xml version="1.0" encoding="UTF-8"?>
<svg xmlns="http://www.w3.org/2000/svg" xmlns:xlink="http://www.w3.org/1999/xlink" width="1179pt" height="517pt" viewBox="0 0 1179 517" version="1.1">
<g id="surface81">
<rect x="0" y="0" width="1179" height="517" style="fill:rgb(90%,90%,90%);fill-opacity:1;stroke:none;"/>
<path style="fill-rule:nonzero;fill:rgb(35%,70%,90%);fill-opacity:1;stroke-width:1;stroke-linecap:butt;stroke-linejoin:miter;stroke:rgb(0%,0%,0%);stroke-opacity:1;stroke-miterlimit:10;" d="M 362.214844 218 C 362.214844 229.714844 352.714844 239.214844 341 239.214844 C 329.285156 239.214844 319.785156 229.714844 319.785156 218 C 319.785156 206.285156 329.285156 196.785156 341 196.785156 C 352.714844 196.785156 362.214844 206.285156 362.214844 218 "/>
<path style="fill-rule:nonzero;fill:rgb(55%,51%,53%);fill-opacity:1;stroke-width:1;stroke-linecap:butt;stroke-linejoin:miter;stroke:rgb(0%,0%,0%);stroke-opacity:1;stroke-miterlimit:10;" d="M 116.214844 407 C 116.214844 418.714844 106.714844 428.214844 95 428.214844 C 83.285156 428.214844 73.785156 418.714844 73.785156 407 C 73.785156 395.285156 83.285156 385.785156 95 385.785156 C 106.714844 385.785156 116.214844 395.285156 116.214844 407 "/>
<path style="fill-rule:nonzero;fill:rgb(55%,51%,53%);fill-opacity:1;stroke-width:1;stroke-linecap:butt;stroke-linejoin:miter;stroke:rgb(0%,0%,0%);stroke-opacity:1;stroke-miterlimit:10;" d="M 187.214844 174 C 187.214844 185.714844 177.714844 195.214844 166 195.214844 C 154.285156 195.214844 144.785156 185.714844 144.785156 174 C 144.785156 162.285156 154.285156 152.785156 166 152.785156 C 177.714844 152.785156 187.214844 162.285156 187.214844 174 "/>
<path style="fill-rule:nonzero;fill:rgb(35%,70%,90%);fill-opacity:1;stroke-width:1;stroke-linecap:butt;stroke-linejoin:miter;stroke:rgb(0%,0%,0%);stroke-opacity:1;stroke-miterlimit:10;" d="M 451.214844 134 C 451.214844 145.714844 441.714844 155.214844 430 155.214844 C 418.285156 155.214844 408.785156 145.714844 408.785156 134 C 408.785156 122.285156 418.285156 112.785156 430 112.785156 C 441.714844 112.785156 451.214844 122.285156 451.214844 134 "/>
<path style="fill-rule:nonzero;fill:rgb(55%,51%,53%);fill-opacity:1;stroke-width:1;stroke-linecap:butt;stroke-linejoin:miter;stroke:rgb(0%,0%,0%);stroke-opacity:1;stroke-miterlimit:10;" d="M 906.785156 303.785156 L 906.785156 346.214844 L 949.214844 346.214844 L 949.214844 303.785156 L 906.785156 303.785156 "/>
<path style="fill-rule:nonzero;fill:rgb(35%,70%,90%);fill-opacity:1;stroke-width:1;stroke-linecap:butt;stroke-linejoin:miter;stroke:rgb(0%,0%,0%);stroke-opacity:1;stroke-miterlimit:10;" d="M 758.785156 408.785156 L 758.785156 451.214844 L 801.214844 451.214844 L 801.214844 408.785156 L 758.785156 408.785156 "/>
<path style="fill-rule:nonzero;fill:rgb(35%,70%,90%);fill-opacity:1;stroke-width:1;stroke-linecap:butt;stroke-linejoin:miter;stroke:rgb(0%,0%,0%);stroke-opacity:1;stroke-miterlimit:10;" d="M 844.785156 376.785156 L 844.785156 419.214844 L 887.214844 419.214844 L 887.214844 376.785156 L 844.785156 376.785156 "/>
</g>
</svg>
