<?xml version="1.0" encoding="UTF-8"?>
<svg xmlns="http://www.w3.org/2000/svg" xmlns:xlink="http://www.w3.org/1999/xlink" width="1179pt" height="517pt" viewBox="0 0 1179 517" version="1.1">
<g id="surface571">
<rect x="0" y="0" width="1179" height="517" style="fill:rgb(90%,90%,90%);fill-opacity:1;stroke:none;"/>
<path style="fill-rule:nonzero;fill:rgb(35%,70%,90%);fill-opacity:1;stroke-width:1;stroke-linecap:butt;stroke-linejoin:miter;stroke:rgb(0%,0%,0%);stroke-opacity:1;stroke-miterlimit:10;" d="M 326 250 L 355.664062 250 L 367.664062 221.785156 L 379.664062 250 L 409.332031 250 L 385.332031 267.4375 L 393.417969 298.980469 L 367.664062 281.542969 L 341.914062 298.980469 L 354.214844 267.4375 L 326 250 "/>
<path style="fill-rule:nonzero;fill:rgb(35%,70%,90%);fill-opacity:1;stroke-width:1;stroke-linecap:butt;stroke-linejoin:miter;stroke:rgb(0%,0%,0%);stroke-opacity:1;stroke-miterlimit:10;" d="M 250 364 L 279.664062 364 L 291.664062 335.785156 L 303.664062 364 L 333.332031 364 L 309.332031 381.4375 L 317.417969 412.980469 L 291.664062 395.542969 L 265.914062 412.980469 L 278.214844 381.4375 L 250 364 "/>
<path style="fill-rule:nonzero;fill:rgb(35%,70%,90%);fill-opacity:1;stroke-width:1;stroke-linecap:butt;stroke-linejoin:miter;stroke:rgb(0%,0%,0%);stroke-opacity:1;stroke-miterlimit:10;" d="M 1028 89 L 1057.664062 89 L 1069.664062 60.785156 L 1081.664062 89 L 1111.332031 89 L 1087.332031 106.4375 L 1095.417969 137.980469 L 1069.664062 120.542969 L 1043.914062 137.980469 L 1056.214844 106.4375 L 1028 89 "/>
<path style="fill-rule:nonzero;fill:rgb(35%,70%,90%);fill-opacity:1;stroke-width:1;stroke-linecap:butt;stroke-linejoin:miter;stroke:rgb(0%,0%,0%);stroke-opacity:1;stroke-miterlimit:10;" d="M 237 169 L 266.664062 169 L 278.664062 140.785156 L 290.664062 169 L 320.332031 169 L 296.332031 186.4375 L 304.417969 217.980469 L 278.664062 200.542969 L 252.914062 217.980469 L 265.214844 186.4375 L 237 169 "/>
<path style="fill-rule:nonzero;fill:rgb(35%,70%,90%);fill-opacity:1;stroke-width:1;stroke-linecap:butt;stroke-linejoin:miter;stroke:rgb(0%,0%,0%);stroke-opacity:1;stroke-miterlimit:10;" d="M 749 340 L 778.664062 340 L 790.664062 311.785156 L 802.664062 340 L 832.332031 340 L 808.332031 357.4375 L 816.417969 388.980469 L 790.664062 371.542969 L 764.914062 388.980469 L 777.214844 357.4375 L 749 340 "/>
<path style="fill-rule:nonzero;fill:rgb(53%,27%,7%);fill-opacity:1;stroke-width:1;stroke-linecap:butt;stroke-linejoin:miter;stroke:rgb(0%,0%,0%);stroke-opacity:1;stroke-miterlimit:10;" d="M 1008.214844 425 C 1008.214844 436.714844 998.714844 446.214844 987 446.214844 C 975.285156 446.214844 965.785156 436.714844 965.785156 425 C 965.785156 413.285156 975.285156 403.785156 987 403.785156 C 998.714844 403.785156 1008.214844 413.285156 1008.214844 425 "/>
<path style="fill-rule:nonzero;fill:rgb(53%,27%,7%);fill-opacity:1;stroke-width:1;stroke-linecap:butt;stroke-linejoin:miter;stroke:rgb(0%,0%,0%);stroke-opacity:1;stroke-miterlimit:10;" d="M 440.214844 383 C 440.214844 394.714844 430.714844 404.214844 419 404.214844 C 407.285156 404.214844 397.785156 394.714844 397.785156 383 C 397.785156 371.285156 407.285156 361.785156 419 361.785156 C 430.714844 361.785156 440.214844 371.285156 440.214844 383 "/>
<path style="fill-rule:nonzero;fill:rgb(53%,27%,7%);fill-opacity:1;stroke-width:1;stroke-linecap:butt;stroke-linejoin:miter;stroke:rgb(0%,0%,0%);stroke-opacity:1;stroke-miterlimit:10;" d="M 1010.214844 273 C 1010.214844 284.714844 1000.714844 294.214844 989 294.214844 C 977.285156 294.214844 967.785156 284.714844 967.785156 273 C 967.785156 261.285156 977.285156 251.785156 989 251.785156 C 1000.714844 251.785156 1010.214844 261.285156 1010.214844 273 "/>
</g>
</svg>
