<?xml version="1.0" encoding="UTF-8"?>
<svg xmlns="http://www.w3.org/2000/svg" xmlns:xlink="http://www.w3.org/1999/xlink" width="1179pt" height="517pt" viewBox="0 0 1179 517" version="1.1">
<g id="surface291">
<rect x="0" y="0" width="1179" height="517" style="fill:rgb(90%,90%,90%);fill-opacity:1;stroke:none;"/>
<path style="fill-rule:nonzero;fill:rgb(100%,51%,0%);fill-opacity:1;stroke-width:1;stroke-linecap:butt;stroke-linejoin:miter;stroke:rgb(0%,0%,0%);stroke-opacity:1;stroke-miterlimit:10;" d="M 374.214844 399 C 374.214844 410.714844 364.714844 420.214844 353 420.214844 C 341.285156 420.214844 331.785156 410.714844 331.785156 399 C 331.785156 387.285156 341.285156 377.785156 353 377.785156 C 364.714844 377.785156 374.214844 387.285156 374.214844 399 "/>
<path style="fill-rule:nonzero;fill:rgb(100%,51%,0%);fill-opacity:1;stroke-width:1;stroke-linecap:butt;stroke-linejoin:miter;stroke:rgb(0%,0%,0%);stroke-opacity:1;stroke-miterlimit:10;" d="M 333.785156 78.785156 L 333.785156 121.214844 L 376.214844 121.214844 L 376.214844 78.785156 L 333.785156 78.785156 "/>
<path style="fill-rule:nonzero;fill:rgb(100%,51%,0%);fill-opacity:1;stroke-width:1;stroke-linecap:butt;stroke-linejoin:miter;stroke:rgb(0%,0%,0%);stroke-opacity:1;stroke-miterlimit:10;" d="M 162.785156 407.785156 L 162.785156 450.214844 L 205.214844 450.214844 L 205.214844 407.785156 L 162.785156 407.785156 "/>
<path style="fill-rule:nonzero;fill:rgb(100%,51%,0%);fill-opacity:1;stroke-width:1;stroke-linecap:butt;stroke-linejoin:miter;stroke:rgb(0%,0%,0%);stroke-opacity:1;stroke-miterlimit:10;" d="M 255.214844 323 C 255.214844 334.714844 245.714844 344.214844 234 344.214844 C 222.285156 344.214844 212.785156 334.714844 212.785156 323 C 212.785156 311.285156 222.285156 301.785156 234 301.785156 C 245.714844 301.785156 255.214844 311.285156 255.214844 323 "/>
<path style="fill-rule:nonzero;fill:rgb(100%,51%,0%);fill-opacity:1;stroke-width:1;stroke-linecap:butt;stroke-linejoin:miter;stroke:rgb(0%,0%,0%);stroke-opacity:1;stroke-miterlimit:10;" d="M 297.214844 217 C 297.214844 228.714844 287.714844 238.214844 276 238.214844 C 264.285156 238.214844 254.785156 228.714844 254.785156 217 C 254.785156 205.285156 264.285156 195.785156 276 195.785156 C 287.714844 195.785156 297.214844 205.285156 297.214844 217 "/>
<path style="fill-rule:nonzero;fill:rgb(53%,27%,7%);fill-opacity:1;stroke-width:1;stroke-linecap:butt;stroke-linejoin:miter;stroke:rgb(0%,0%,0%);stroke-opacity:1;stroke-miterlimit:10;" d="M 765.785156 319.785156 L 765.785156 362.214844 L 808.214844 362.214844 L 808.214844 319.785156 L 765.785156 319.785156 "/>
<path style="fill-rule:nonzero;fill:rgb(53%,27%,7%);fill-opacity:1;stroke-width:1;stroke-linecap:butt;stroke-linejoin:miter;stroke:rgb(0%,0%,0%);stroke-opacity:1;stroke-miterlimit:10;" d="M 989.214844 274 C 989.214844 285.714844 979.714844 295.214844 968 295.214844 C 956.285156 295.214844 946.785156 285.714844 946.785156 274 C 946.785156 262.285156 956.285156 252.785156 968 252.785156 C 979.714844 252.785156 989.214844 262.285156 989.214844 274 "/>
<path style="fill-rule:nonzero;fill:rgb(53%,27%,7%);fill-opacity:1;stroke-width:1;stroke-linecap:butt;stroke-linejoin:miter;stroke:rgb(0%,0%,0%);stroke-opacity:1;stroke-miterlimit:10;" d="M 836.214844 171 C 836.214844 182.714844 826.714844 192.214844 815 192.214844 C 803.285156 192.214844 793.785156 182.714844 793.785156 171 C 793.785156 159.285156 803.285156 149.785156 815 149.785156 C 826.714844 149.785156 836.214844 159.285156 836.214844 171 "/>
<path style="fill-rule:nonzero;fill:rgb(53%,27%,7%);fill-opacity:1;stroke-width:1;stroke-linecap:butt;stroke-linejoin:miter;stroke:rgb(0%,0%,0%);stroke-opacity:1;stroke-miterlimit:10;" d="M 916.785156 401.785156 L 916.785156 444.214844 L 959.214844 444.214844 L 959.214844 401.785156 L 916.785156 401.785156 "/>
</g>
</svg>
