<?xml version="1.0" encoding="UTF-8"?>
<svg xmlns="http://www.w3.org/2000/svg" xmlns:xlink="http://www.w3.org/1999/xlink" width="1179pt" height="517pt" viewBox="0 0 1179 517" version="1.1">
<g id="surface866">
<rect x="0" y="0" width="1179" height="517" style="fill:rgb(90%,90%,90%);fill-opacity:1;stroke:none;"/>
<path style="fill-rule:nonzero;fill:rgb(35%,70%,90%);fill-opacity:1;stroke-width:1;stroke-linecap:butt;stroke-linejoin:miter;stroke:rgb(0%,0%,0%);stroke-opacity:1;stroke-miterlimit:10;" d="M 572 334 L 601.664062 334 L 613.664062 305.785156 L 625.664062 334 L 655.332031 334 L 631.332031 351.4375 L 639.417969 382.980469 L 613.664062 365.542969 L 587.914062 382.980469 L 600.214844 351.4375 L 572 334 "/>
<path style="fill-rule:nonzero;fill:rgb(35%,70%,90%);fill-opacity:1;stroke-width:1;stroke-linecap:butt;stroke-linejoin:miter;stroke:rgb(0%,0%,0%);stroke-opacity:1;stroke-miterlimit:10;" d="M 827 113 L 856.664062 113 L 868.664062 84.785156 L 880.664062 113 L 910.332031 113 L 886.332031 130.4375 L 894.417969 161.980469 L 868.664062 144.542969 L 842.914062 161.980469 L 855.214844 130.4375 L 827 113 "/>
<path style="fill-rule:nonzero;fill:rgb(35%,70%,90%);fill-opacity:1;stroke-width:1;stroke-linecap:butt;stroke-linejoin:miter;stroke:rgb(0%,0%,0%);stroke-opacity:1;stroke-miterlimit:10;" d="M 953 98 L 982.664062 98 L 994.664062 69.785156 L 1006.664062 98 L 1036.332031 98 L 1012.332031 115.4375 L 1020.417969 146.980469 L 994.664062 129.542969 L 968.914062 146.980469 L 981.214844 115.4375 L 953 98 "/>
<path style="fill-rule:nonzero;fill:rgb(55%,51%,53%);fill-opacity:1;stroke-width:1;stroke-linecap:butt;stroke-linejoin:miter;stroke:rgb(0%,0%,0%);stroke-opacity:1;stroke-miterlimit:10;" d="M 712.214844 432 C 712.214844 443.714844 702.714844 453.214844 691 453.214844 C 679.285156 453.214844 669.785156 443.714844 669.785156 432 C 669.785156 420.285156 679.285156 410.785156 691 410.785156 C 702.714844 410.785156 712.214844 420.285156 712.214844 432 "/>
<path style="fill-rule:nonzero;fill:rgb(55%,51%,53%);fill-opacity:1;stroke-width:1;stroke-linecap:butt;stroke-linejoin:miter;stroke:rgb(0%,0%,0%);stroke-opacity:1;stroke-miterlimit:10;" d="M 563.214844 204 C 563.214844 215.714844 553.714844 225.214844 542 225.214844 C 530.285156 225.214844 520.785156 215.714844 520.785156 204 C 520.785156 192.285156 530.285156 182.785156 542 182.785156 C 553.714844 182.785156 563.214844 192.285156 563.214844 204 "/>
<path style="fill-rule:nonzero;fill:rgb(55%,51%,53%);fill-opacity:1;stroke-width:1;stroke-linecap:butt;stroke-linejoin:miter;stroke:rgb(0%,0%,0%);stroke-opacity:1;stroke-miterlimit:10;" d="M 1059.214844 427 C 1059.214844 438.714844 1049.714844 448.214844 1038 448.214844 C 1026.285156 448.214844 1016.785156 438.714844 1016.785156 427 C 1016.785156 415.285156 1026.285156 405.785156 1038 405.785156 C 1049.714844 405.785156 1059.214844 415.285156 1059.214844 427 "/>
<path style="fill-rule:nonzero;fill:rgb(55%,51%,53%);fill-opacity:1;stroke-width:1;stroke-linecap:butt;stroke-linejoin:miter;stroke:rgb(0%,0%,0%);stroke-opacity:1;stroke-miterlimit:10;" d="M 643.214844 97 C 643.214844 108.714844 633.714844 118.214844 622 118.214844 C 610.285156 118.214844 600.785156 108.714844 600.785156 97 C 600.785156 85.285156 610.285156 75.785156 622 75.785156 C 633.714844 75.785156 643.214844 85.285156 643.214844 97 "/>
</g>
</svg>
