<?xml version="1.0" encoding="UTF-8"?>
<svg xmlns="http://www.w3.org/2000/svg" xmlns:xlink="http://www.w3.org/1999/xlink" width="1179pt" height="517pt" viewBox="0 0 1179 517" version="1.1">
<g id="surface706">
<rect x="0" y="0" width="1179" height="517" style="fill:rgb(90%,90%,90%);fill-opacity:1;stroke:none;"/>
<path style="fill-rule:nonzero;fill:rgb(55%,51%,53%);fill-opacity:1;stroke-width:1;stroke-linecap:butt;stroke-linejoin:miter;stroke:rgb(0%,0%,0%);stroke-opacity:1;stroke-miterlimit:10;" d="M 311.214844 88 C 311.214844 99.714844 301.714844 109.214844 290 109.214844 C 278.285156 109.214844 268.785156 99.714844 268.785156 88 C 268.785156 76.285156 278.285156 66.785156 290 66.785156 C 301.714844 66.785156 311.214844 76.285156 311.214844 88 "/>
<path style="fill-rule:nonzero;fill:rgb(53%,27%,7%);fill-opacity:1;stroke-width:1;stroke-linecap:butt;stroke-linejoin:miter;stroke:rgb(0%,0%,0%);stroke-opacity:1;stroke-miterlimit:10;" d="M 367.214844 298 C 367.214844 309.714844 357.714844 319.214844 346 319.214844 C 334.285156 319.214844 324.785156 309.714844 324.785156 298 C 324.785156 286.285156 334.285156 276.785156 346 276.785156 C 357.714844 276.785156 367.214844 286.285156 367.214844 298 "/>
<path style="fill-rule:nonzero;fill:rgb(55%,51%,53%);fill-opacity:1;stroke-width:1;stroke-linecap:butt;stroke-linejoin:miter;stroke:rgb(0%,0%,0%);stroke-opacity:1;stroke-miterlimit:10;" d="M 138.214844 365 C 138.214844 376.714844 128.714844 386.214844 117 386.214844 C 105.285156 386.214844 95.785156 376.714844 95.785156 365 C 95.785156 353.285156 105.285156 343.785156 117 343.785156 C 128.714844 343.785156 138.214844 353.285156 138.214844 365 "/>
<path style="fill-rule:nonzero;fill:rgb(53%,27%,7%);fill-opacity:1;stroke-width:1;stroke-linecap:butt;stroke-linejoin:miter;stroke:rgb(0%,0%,0%);stroke-opacity:1;stroke-miterlimit:10;" d="M 975 105 L 949.019531 150 L 1000.980469 150 L 975 105 "/>
<path style="fill-rule:nonzero;fill:rgb(55%,51%,53%);fill-opacity:1;stroke-width:1;stroke-linecap:butt;stroke-linejoin:miter;stroke:rgb(0%,0%,0%);stroke-opacity:1;stroke-miterlimit:10;" d="M 730 295 L 704.019531 340 L 755.980469 340 L 730 295 "/>
<path style="fill-rule:nonzero;fill:rgb(53%,27%,7%);fill-opacity:1;stroke-width:1;stroke-linecap:butt;stroke-linejoin:miter;stroke:rgb(0%,0%,0%);stroke-opacity:1;stroke-miterlimit:10;" d="M 730 82 L 704.019531 127 L 755.980469 127 L 730 82 "/>
<path style="fill-rule:nonzero;fill:rgb(55%,51%,53%);fill-opacity:1;stroke-width:1;stroke-linecap:butt;stroke-linejoin:miter;stroke:rgb(0%,0%,0%);stroke-opacity:1;stroke-miterlimit:10;" d="M 1024 331 L 998.019531 376 L 1049.980469 376 L 1024 331 "/>
<path style="fill-rule:nonzero;fill:rgb(53%,27%,7%);fill-opacity:1;stroke-width:1;stroke-linecap:butt;stroke-linejoin:miter;stroke:rgb(0%,0%,0%);stroke-opacity:1;stroke-miterlimit:10;" d="M 836 227 L 810.019531 272 L 861.980469 272 L 836 227 "/>
</g>
</svg>
