<?xml version="1.0" encoding="UTF-8"?>
<svg xmlns="http://www.w3.org/2000/svg" xmlns:xlink="http://www.w3.org/1999/xlink" width="1179pt" height="517pt" viewBox="0 0 1179 517" version="1.1">
<g id="surface6">
<rect x="0" y="0" width="1179" height="517" style="fill:rgb(90%,90%,90%);fill-opacity:1;stroke:none;"/>
<path style="fill-rule:nonzero;fill:rgb(35%,70%,90%);fill-opacity:1;stroke-width:1;stroke-linecap:butt;stroke-linejoin:miter;stroke:rgb(0%,0%,0%);stroke-opacity:1;stroke-miterlimit:10;" d="M 435 398 L 464.664062 398 L 476.664062 369.785156 L 488.664062 398 L 518.332031 398 L 494.332031 415.4375 L 502.417969 446.980469 L 476.664062 429.542969 L 450.914062 446.980469 L 463.214844 415.4375 L 435 398 "/>
<path style="fill-rule:nonzero;fill:rgb(35%,70%,90%);fill-opacity:1;stroke-width:1;stroke-linecap:butt;stroke-linejoin:miter;stroke:rgb(0%,0%,0%);stroke-opacity:1;stroke-miterlimit:10;" d="M 605 263 L 634.664062 263 L 646.664062 234.785156 L 658.664062 263 L 688.332031 263 L 664.332031 280.4375 L 672.417969 311.980469 L 646.664062 294.542969 L 620.914062 311.980469 L 633.214844 280.4375 L 605 263 "/>
<path style="fill-rule:nonzero;fill:rgb(35%,70%,90%);fill-opacity:1;stroke-width:1;stroke-linecap:butt;stroke-linejoin:miter;stroke:rgb(0%,0%,0%);stroke-opacity:1;stroke-miterlimit:10;" d="M 285 153 L 314.664062 153 L 326.664062 124.785156 L 338.664062 153 L 368.332031 153 L 344.332031 170.4375 L 352.417969 201.980469 L 326.664062 184.542969 L 300.914062 201.980469 L 313.214844 170.4375 L 285 153 "/>
<path style="fill-rule:nonzero;fill:rgb(35%,70%,90%);fill-opacity:1;stroke-width:1;stroke-linecap:butt;stroke-linejoin:miter;stroke:rgb(0%,0%,0%);stroke-opacity:1;stroke-miterlimit:10;" d="M 870 167 L 899.664062 167 L 911.664062 138.785156 L 923.664062 167 L 953.332031 167 L 929.332031 184.4375 L 937.417969 215.980469 L 911.664062 198.542969 L 885.914062 215.980469 L 898.214844 184.4375 L 870 167 "/>
<path style="fill-rule:nonzero;fill:rgb(35%,70%,90%);fill-opacity:1;stroke-width:1;stroke-linecap:butt;stroke-linejoin:miter;stroke:rgb(0%,0%,0%);stroke-opacity:1;stroke-miterlimit:10;" d="M 194 322 L 223.664062 322 L 235.664062 293.785156 L 247.664062 322 L 277.332031 322 L 253.332031 339.4375 L 261.417969 370.980469 L 235.664062 353.542969 L 209.914062 370.980469 L 222.214844 339.4375 L 194 322 "/>
<path style="fill-rule:nonzero;fill:rgb(100%,51%,0%);fill-opacity:1;stroke-width:1;stroke-linecap:butt;stroke-linejoin:miter;stroke:rgb(0%,0%,0%);stroke-opacity:1;stroke-miterlimit:10;" d="M 1003 232 L 977.019531 277 L 1028.980469 277 L 1003 232 "/>
<path style="fill-rule:nonzero;fill:rgb(100%,51%,0%);fill-opacity:1;stroke-width:1;stroke-linecap:butt;stroke-linejoin:miter;stroke:rgb(0%,0%,0%);stroke-opacity:1;stroke-miterlimit:10;" d="M 413 229 L 387.019531 274 L 438.980469 274 L 413 229 "/>
<path style="fill-rule:nonzero;fill:rgb(100%,51%,0%);fill-opacity:1;stroke-width:1;stroke-linecap:butt;stroke-linejoin:miter;stroke:rgb(0%,0%,0%);stroke-opacity:1;stroke-miterlimit:10;" d="M 968 356 L 942.019531 401 L 993.980469 401 L 968 356 "/>
<path style="fill-rule:nonzero;fill:rgb(100%,51%,0%);fill-opacity:1;stroke-width:1;stroke-linecap:butt;stroke-linejoin:miter;stroke:rgb(0%,0%,0%);stroke-opacity:1;stroke-miterlimit:10;" d="M 764 284 L 738.019531 329 L 789.980469 329 L 764 284 "/>
<path style="fill-rule:nonzero;fill:rgb(100%,51%,0%);fill-opacity:1;stroke-width:1;stroke-linecap:butt;stroke-linejoin:miter;stroke:rgb(0%,0%,0%);stroke-opacity:1;stroke-miterlimit:10;" d="M 615 369 L 589.019531 414 L 640.980469 414 L 615 369 "/>
</g>
</svg>
