<?xml version="1.0" encoding="UTF-8"?>
<svg xmlns="http://www.w3.org/2000/svg" xmlns:xlink="http://www.w3.org/1999/xlink" width="1179pt" height="517pt" viewBox="0 0 1179 517" version="1.1">
<g id="surface731">
<rect x="0" y="0" width="1179" height="517" style="fill:rgb(90%,90%,90%);fill-opacity:1;stroke:none;"/>
<path style="fill-rule:nonzero;fill:rgb(35%,70%,90%);fill-opacity:1;stroke-width:1;stroke-linecap:butt;stroke-linejoin:miter;stroke:rgb(0%,0%,0%);stroke-opacity:1;stroke-miterlimit:10;" d="M 347 353 L 376.664062 353 L 388.664062 324.785156 L 400.664062 353 L 430.332031 353 L 406.332031 370.4375 L 414.417969 401.980469 L 388.664062 384.542969 L 362.914062 401.980469 L 375.214844 370.4375 L 347 353 "/>
<path style="fill-rule:nonzero;fill:rgb(35%,70%,90%);fill-opacity:1;stroke-width:1;stroke-linecap:butt;stroke-linejoin:miter;stroke:rgb(0%,0%,0%);stroke-opacity:1;stroke-miterlimit:10;" d="M 880 337 L 909.664062 337 L 921.664062 308.785156 L 933.664062 337 L 963.332031 337 L 939.332031 354.4375 L 947.417969 385.980469 L 921.664062 368.542969 L 895.914062 385.980469 L 908.214844 354.4375 L 880 337 "/>
<path style="fill-rule:nonzero;fill:rgb(35%,70%,90%);fill-opacity:1;stroke-width:1;stroke-linecap:butt;stroke-linejoin:miter;stroke:rgb(0%,0%,0%);stroke-opacity:1;stroke-miterlimit:10;" d="M 235 424 L 264.664062 424 L 276.664062 395.785156 L 288.664062 424 L 318.332031 424 L 294.332031 441.4375 L 302.417969 472.980469 L 276.664062 455.542969 L 250.914062 472.980469 L 263.214844 441.4375 L 235 424 "/>
<path style="fill-rule:nonzero;fill:rgb(35%,70%,90%);fill-opacity:1;stroke-width:1;stroke-linecap:butt;stroke-linejoin:miter;stroke:rgb(0%,0%,0%);stroke-opacity:1;stroke-miterlimit:10;" d="M 512 262 L 541.664062 262 L 553.664062 233.785156 L 565.664062 262 L 595.332031 262 L 571.332031 279.4375 L 579.417969 310.980469 L 553.664062 293.542969 L 527.914062 310.980469 L 540.214844 279.4375 L 512 262 "/>
<path style="fill-rule:nonzero;fill:rgb(55%,51%,53%);fill-opacity:1;stroke-width:1;stroke-linecap:butt;stroke-linejoin:miter;stroke:rgb(0%,0%,0%);stroke-opacity:1;stroke-miterlimit:10;" d="M 567.214844 129 C 567.214844 140.714844 557.714844 150.214844 546 150.214844 C 534.285156 150.214844 524.785156 140.714844 524.785156 129 C 524.785156 117.285156 534.285156 107.785156 546 107.785156 C 557.714844 107.785156 567.214844 117.285156 567.214844 129 "/>
<path style="fill-rule:nonzero;fill:rgb(55%,51%,53%);fill-opacity:1;stroke-width:1;stroke-linecap:butt;stroke-linejoin:miter;stroke:rgb(0%,0%,0%);stroke-opacity:1;stroke-miterlimit:10;" d="M 599.214844 403 C 599.214844 414.714844 589.714844 424.214844 578 424.214844 C 566.285156 424.214844 556.785156 414.714844 556.785156 403 C 556.785156 391.285156 566.285156 381.785156 578 381.785156 C 589.714844 381.785156 599.214844 391.285156 599.214844 403 "/>
<path style="fill-rule:nonzero;fill:rgb(55%,51%,53%);fill-opacity:1;stroke-width:1;stroke-linecap:butt;stroke-linejoin:miter;stroke:rgb(0%,0%,0%);stroke-opacity:1;stroke-miterlimit:10;" d="M 1015.214844 163 C 1015.214844 174.714844 1005.714844 184.214844 994 184.214844 C 982.285156 184.214844 972.785156 174.714844 972.785156 163 C 972.785156 151.285156 982.285156 141.785156 994 141.785156 C 1005.714844 141.785156 1015.214844 151.285156 1015.214844 163 "/>
<path style="fill-rule:nonzero;fill:rgb(55%,51%,53%);fill-opacity:1;stroke-width:1;stroke-linecap:butt;stroke-linejoin:miter;stroke:rgb(0%,0%,0%);stroke-opacity:1;stroke-miterlimit:10;" d="M 701.214844 109 C 701.214844 120.714844 691.714844 130.214844 680 130.214844 C 668.285156 130.214844 658.785156 120.714844 658.785156 109 C 658.785156 97.285156 668.285156 87.785156 680 87.785156 C 691.714844 87.785156 701.214844 97.285156 701.214844 109 "/>
</g>
</svg>
