<?xml version="1.0" encoding="UTF-8"?>
<svg xmlns="http://www.w3.org/2000/svg" xmlns:xlink="http://www.w3.org/1999/xlink" width="1179pt" height="517pt" viewBox="0 0 1179 517" version="1.1">
<g id="surface121">
<rect x="0" y="0" width="1179" height="517" style="fill:rgb(90%,90%,90%);fill-opacity:1;stroke:none;"/>
<path style="fill-rule:nonzero;fill:rgb(100%,51%,0%);fill-opacity:1;stroke-width:1;stroke-linecap:butt;stroke-linejoin:miter;stroke:rgb(0%,0%,0%);stroke-opacity:1;stroke-miterlimit:10;" d="M 126 143 L 155.664062 143 L 167.664062 114.785156 L 179.664062 143 L 209.332031 143 L 185.332031 160.4375 L 193.417969 191.980469 L 167.664062 174.542969 L 141.914062 191.980469 L 154.214844 160.4375 L 126 143 "/>
<path style="fill-rule:nonzero;fill:rgb(100%,51%,0%);fill-opacity:1;stroke-width:1;stroke-linecap:butt;stroke-linejoin:miter;stroke:rgb(0%,0%,0%);stroke-opacity:1;stroke-miterlimit:10;" d="M 282 392 L 311.664062 392 L 323.664062 363.785156 L 335.664062 392 L 365.332031 392 L 341.332031 409.4375 L 349.417969 440.980469 L 323.664062 423.542969 L 297.914062 440.980469 L 310.214844 409.4375 L 282 392 "/>
<path style="fill-rule:nonzero;fill:rgb(100%,51%,0%);fill-opacity:1;stroke-width:1;stroke-linecap:butt;stroke-linejoin:miter;stroke:rgb(0%,0%,0%);stroke-opacity:1;stroke-miterlimit:10;" d="M 785 251 L 814.664062 251 L 826.664062 222.785156 L 838.664062 251 L 868.332031 251 L 844.332031 268.4375 L 852.417969 299.980469 L 826.664062 282.542969 L 800.914062 299.980469 L 813.214844 268.4375 L 785 251 "/>
<path style="fill-rule:nonzero;fill:rgb(100%,51%,0%);fill-opacity:1;stroke-width:1;stroke-linecap:butt;stroke-linejoin:miter;stroke:rgb(0%,0%,0%);stroke-opacity:1;stroke-miterlimit:10;" d="M 869 378 L 898.664062 378 L 910.664062 349.785156 L 922.664062 378 L 952.332031 378 L 928.332031 395.4375 L 936.417969 426.980469 L 910.664062 409.542969 L 884.914062 426.980469 L 897.214844 395.4375 L 869 378 "/>
<path style="fill-rule:nonzero;fill:rgb(55%,51%,53%);fill-opacity:1;stroke-width:1;stroke-linecap:butt;stroke-linejoin:miter;stroke:rgb(0%,0%,0%);stroke-opacity:1;stroke-miterlimit:10;" d="M 297.214844 245 C 297.214844 256.714844 287.714844 266.214844 276 266.214844 C 264.285156 266.214844 254.785156 256.714844 254.785156 245 C 254.785156 233.285156 264.285156 223.785156 276 223.785156 C 287.714844 223.785156 297.214844 233.285156 297.214844 245 "/>
<path style="fill-rule:nonzero;fill:rgb(55%,51%,53%);fill-opacity:1;stroke-width:1;stroke-linecap:butt;stroke-linejoin:miter;stroke:rgb(0%,0%,0%);stroke-opacity:1;stroke-miterlimit:10;" d="M 587.214844 183 C 587.214844 194.714844 577.714844 204.214844 566 204.214844 C 554.285156 204.214844 544.785156 194.714844 544.785156 183 C 544.785156 171.285156 554.285156 161.785156 566 161.785156 C 577.714844 161.785156 587.214844 171.285156 587.214844 183 "/>
<path style="fill-rule:nonzero;fill:rgb(55%,51%,53%);fill-opacity:1;stroke-width:1;stroke-linecap:butt;stroke-linejoin:miter;stroke:rgb(0%,0%,0%);stroke-opacity:1;stroke-miterlimit:10;" d="M 968.214844 88 C 968.214844 99.714844 958.714844 109.214844 947 109.214844 C 935.285156 109.214844 925.785156 99.714844 925.785156 88 C 925.785156 76.285156 935.285156 66.785156 947 66.785156 C 958.714844 66.785156 968.214844 76.285156 968.214844 88 "/>
<path style="fill-rule:nonzero;fill:rgb(55%,51%,53%);fill-opacity:1;stroke-width:1;stroke-linecap:butt;stroke-linejoin:miter;stroke:rgb(0%,0%,0%);stroke-opacity:1;stroke-miterlimit:10;" d="M 160.214844 406 C 160.214844 417.714844 150.714844 427.214844 139 427.214844 C 127.285156 427.214844 117.785156 417.714844 117.785156 406 C 117.785156 394.285156 127.285156 384.785156 139 384.785156 C 150.714844 384.785156 160.214844 394.285156 160.214844 406 "/>
<path style="fill-rule:nonzero;fill:rgb(55%,51%,53%);fill-opacity:1;stroke-width:1;stroke-linecap:butt;stroke-linejoin:miter;stroke:rgb(0%,0%,0%);stroke-opacity:1;stroke-miterlimit:10;" d="M 660.214844 398 C 660.214844 409.714844 650.714844 419.214844 639 419.214844 C 627.285156 419.214844 617.785156 409.714844 617.785156 398 C 617.785156 386.285156 627.285156 376.785156 639 376.785156 C 650.714844 376.785156 660.214844 386.285156 660.214844 398 "/>
</g>
</svg>
