<?xml version="1.0" encoding="UTF-8"?>
<svg xmlns="http://www.w3.org/2000/svg" xmlns:xlink="http://www.w3.org/1999/xlink" width="1179pt" height="517pt" viewBox="0 0 1179 517" version="1.1">
<g id="surface1236">
<rect x="0" y="0" width="1179" height="517" style="fill:rgb(90%,90%,90%);fill-opacity:1;stroke:none;"/>
<path style="fill-rule:nonzero;fill:rgb(35%,70%,90%);fill-opacity:1;stroke-width:1;stroke-linecap:butt;stroke-linejoin:miter;stroke:rgb(0%,0%,0%);stroke-opacity:1;stroke-miterlimit:10;" d="M 1027 380 L 1056.664062 380 L 1068.664062 351.785156 L 1080.664062 380 L 1110.332031 380 L 1086.332031 397.4375 L 1094.417969 428.980469 L 1068.664062 411.542969 L 1042.914062 428.980469 L 1055.214844 397.4375 L 1027 380 "/>
<path style="fill-rule:nonzero;fill:rgb(35%,70%,90%);fill-opacity:1;stroke-width:1;stroke-linecap:butt;stroke-linejoin:miter;stroke:rgb(0%,0%,0%);stroke-opacity:1;stroke-miterlimit:10;" d="M 1007 157 L 1036.664062 157 L 1048.664062 128.785156 L 1060.664062 157 L 1090.332031 157 L 1066.332031 174.4375 L 1074.417969 205.980469 L 1048.664062 188.542969 L 1022.914062 205.980469 L 1035.214844 174.4375 L 1007 157 "/>
<path style="fill-rule:nonzero;fill:rgb(35%,70%,90%);fill-opacity:1;stroke-width:1;stroke-linecap:butt;stroke-linejoin:miter;stroke:rgb(0%,0%,0%);stroke-opacity:1;stroke-miterlimit:10;" d="M 427 176 L 456.664062 176 L 468.664062 147.785156 L 480.664062 176 L 510.332031 176 L 486.332031 193.4375 L 494.417969 224.980469 L 468.664062 207.542969 L 442.914062 224.980469 L 455.214844 193.4375 L 427 176 "/>
<path style="fill-rule:nonzero;fill:rgb(100%,51%,0%);fill-opacity:1;stroke-width:1;stroke-linecap:butt;stroke-linejoin:miter;stroke:rgb(0%,0%,0%);stroke-opacity:1;stroke-miterlimit:10;" d="M 608 356.601562 C 608 342.199219 584 342.199219 584 356.601562 C 584 371 608 373.398438 608 385.398438 C 608 373.398438 632 371 632 356.601562 C 632 342.199219 608 342.199219 608 356.601562 "/>
<path style="fill-rule:nonzero;fill:rgb(100%,51%,0%);fill-opacity:1;stroke-width:1;stroke-linecap:butt;stroke-linejoin:miter;stroke:rgb(0%,0%,0%);stroke-opacity:1;stroke-miterlimit:10;" d="M 190 125.601562 C 190 111.199219 166 111.199219 166 125.601562 C 166 140 190 142.398438 190 154.398438 C 190 142.398438 214 140 214 125.601562 C 214 111.199219 190 111.199219 190 125.601562 "/>
<path style="fill-rule:nonzero;fill:rgb(100%,51%,0%);fill-opacity:1;stroke-width:1;stroke-linecap:butt;stroke-linejoin:miter;stroke:rgb(0%,0%,0%);stroke-opacity:1;stroke-miterlimit:10;" d="M 608 90.601562 C 608 76.199219 584 76.199219 584 90.601562 C 584 105 608 107.398438 608 119.398438 C 608 107.398438 632 105 632 90.601562 C 632 76.199219 608 76.199219 608 90.601562 "/>
<path style="fill-rule:nonzero;fill:rgb(100%,51%,0%);fill-opacity:1;stroke-width:1;stroke-linecap:butt;stroke-linejoin:miter;stroke:rgb(0%,0%,0%);stroke-opacity:1;stroke-miterlimit:10;" d="M 794 349.601562 C 794 335.199219 770 335.199219 770 349.601562 C 770 364 794 366.398438 794 378.398438 C 794 366.398438 818 364 818 349.601562 C 818 335.199219 794 335.199219 794 349.601562 "/>
<path style="fill-rule:nonzero;fill:rgb(100%,51%,0%);fill-opacity:1;stroke-width:1;stroke-linecap:butt;stroke-linejoin:miter;stroke:rgb(0%,0%,0%);stroke-opacity:1;stroke-miterlimit:10;" d="M 239 379.601562 C 239 365.199219 215 365.199219 215 379.601562 C 215 394 239 396.398438 239 408.398438 C 239 396.398438 263 394 263 379.601562 C 263 365.199219 239 365.199219 239 379.601562 "/>
</g>
</svg>
