<?xml version="1.0" encoding="UTF-8"?>
<svg xmlns="http://www.w3.org/2000/svg" xmlns:xlink="http://www.w3.org/1999/xlink" width="1179pt" height="517pt" viewBox="0 0 1179 517" version="1.1">
<g id="surface1031">
<rect x="0" y="0" width="1179" height="517" style="fill:rgb(90%,90%,90%);fill-opacity:1;stroke:none;"/>
<path style="fill-rule:nonzero;fill:rgb(53%,27%,7%);fill-opacity:1;stroke-width:1;stroke-linecap:butt;stroke-linejoin:miter;stroke:rgb(0%,0%,0%);stroke-opacity:1;stroke-miterlimit:10;" d="M 862 248 L 836.019531 293 L 887.980469 293 L 862 248 "/>
<path style="fill-rule:nonzero;fill:rgb(53%,27%,7%);fill-opacity:1;stroke-width:1;stroke-linecap:butt;stroke-linejoin:miter;stroke:rgb(0%,0%,0%);stroke-opacity:1;stroke-miterlimit:10;" d="M 364 261 L 338.019531 306 L 389.980469 306 L 364 261 "/>
<path style="fill-rule:nonzero;fill:rgb(53%,27%,7%);fill-opacity:1;stroke-width:1;stroke-linecap:butt;stroke-linejoin:miter;stroke:rgb(0%,0%,0%);stroke-opacity:1;stroke-miterlimit:10;" d="M 494 286 L 468.019531 331 L 519.980469 331 L 494 286 "/>
<path style="fill-rule:nonzero;fill:rgb(53%,27%,7%);fill-opacity:1;stroke-width:1;stroke-linecap:butt;stroke-linejoin:miter;stroke:rgb(0%,0%,0%);stroke-opacity:1;stroke-miterlimit:10;" d="M 712 97 L 686.019531 142 L 737.980469 142 L 712 97 "/>
<path style="fill-rule:nonzero;fill:rgb(35%,70%,90%);fill-opacity:1;stroke-width:1;stroke-linecap:butt;stroke-linejoin:miter;stroke:rgb(0%,0%,0%);stroke-opacity:1;stroke-miterlimit:10;" d="M 198 424 L 227.664062 424 L 239.664062 395.785156 L 251.664062 424 L 281.332031 424 L 257.332031 441.4375 L 265.417969 472.980469 L 239.664062 455.542969 L 213.914062 472.980469 L 226.214844 441.4375 L 198 424 "/>
<path style="fill-rule:nonzero;fill:rgb(35%,70%,90%);fill-opacity:1;stroke-width:1;stroke-linecap:butt;stroke-linejoin:miter;stroke:rgb(0%,0%,0%);stroke-opacity:1;stroke-miterlimit:10;" d="M 157 269 L 186.664062 269 L 198.664062 240.785156 L 210.664062 269 L 240.332031 269 L 216.332031 286.4375 L 224.417969 317.980469 L 198.664062 300.542969 L 172.914062 317.980469 L 185.214844 286.4375 L 157 269 "/>
<path style="fill-rule:nonzero;fill:rgb(35%,70%,90%);fill-opacity:1;stroke-width:1;stroke-linecap:butt;stroke-linejoin:miter;stroke:rgb(0%,0%,0%);stroke-opacity:1;stroke-miterlimit:10;" d="M 387 167 L 416.664062 167 L 428.664062 138.785156 L 440.664062 167 L 470.332031 167 L 446.332031 184.4375 L 454.417969 215.980469 L 428.664062 198.542969 L 402.914062 215.980469 L 415.214844 184.4375 L 387 167 "/>
<path style="fill-rule:nonzero;fill:rgb(35%,70%,90%);fill-opacity:1;stroke-width:1;stroke-linecap:butt;stroke-linejoin:miter;stroke:rgb(0%,0%,0%);stroke-opacity:1;stroke-miterlimit:10;" d="M 955 389 L 984.664062 389 L 996.664062 360.785156 L 1008.664062 389 L 1038.332031 389 L 1014.332031 406.4375 L 1022.417969 437.980469 L 996.664062 420.542969 L 970.914062 437.980469 L 983.214844 406.4375 L 955 389 "/>
<path style="fill-rule:nonzero;fill:rgb(35%,70%,90%);fill-opacity:1;stroke-width:1;stroke-linecap:butt;stroke-linejoin:miter;stroke:rgb(0%,0%,0%);stroke-opacity:1;stroke-miterlimit:10;" d="M 992 192 L 1021.664062 192 L 1033.664062 163.785156 L 1045.664062 192 L 1075.332031 192 L 1051.332031 209.4375 L 1059.417969 240.980469 L 1033.664062 223.542969 L 1007.914062 240.980469 L 1020.214844 209.4375 L 992 192 "/>
</g>
</svg>
