<?xml version="1.0" encoding="UTF-8"?>
<svg xmlns="http://www.w3.org/2000/svg" xmlns:xlink="http://www.w3.org/1999/xlink" width="1179pt" height="517pt" viewBox="0 0 1179 517" version="1.1">
<g id="surface1381">
<rect x="0" y="0" width="1179" height="517" style="fill:rgb(90%,90%,90%);fill-opacity:1;stroke:none;"/>
<path style="fill-rule:nonzero;fill:rgb(100%,51%,0%);fill-opacity:1;stroke-width:1;stroke-linecap:butt;stroke-linejoin:miter;stroke:rgb(0%,0%,0%);stroke-opacity:1;stroke-miterlimit:10;" d="M 367 89 L 396.664062 89 L 408.664062 60.785156 L 420.664062 89 L 450.332031 89 L 426.332031 106.4375 L 434.417969 137.980469 L 408.664062 120.542969 L 382.914062 137.980469 L 395.214844 106.4375 L 367 89 "/>
<path style="fill-rule:nonzero;fill:rgb(100%,51%,0%);fill-opacity:1;stroke-width:1;stroke-linecap:butt;stroke-linejoin:miter;stroke:rgb(0%,0%,0%);stroke-opacity:1;stroke-miterlimit:10;" d="M 361 299 L 390.664062 299 L 402.664062 270.785156 L 414.664062 299 L 444.332031 299 L 420.332031 316.4375 L 428.417969 347.980469 L 402.664062 330.542969 L 376.914062 347.980469 L 389.214844 316.4375 L 361 299 "/>
<path style="fill-rule:nonzero;fill:rgb(100%,51%,0%);fill-opacity:1;stroke-width:1;stroke-linecap:butt;stroke-linejoin:miter;stroke:rgb(0%,0%,0%);stroke-opacity:1;stroke-miterlimit:10;" d="M 965 212 L 994.664062 212 L 1006.664062 183.785156 L 1018.664062 212 L 1048.332031 212 L 1024.332031 229.4375 L 1032.417969 260.980469 L 1006.664062 243.542969 L 980.914062 260.980469 L 993.214844 229.4375 L 965 212 "/>
<path style="fill-rule:nonzero;fill:rgb(100%,51%,0%);fill-opacity:1;stroke-width:1;stroke-linecap:butt;stroke-linejoin:miter;stroke:rgb(0%,0%,0%);stroke-opacity:1;stroke-miterlimit:10;" d="M 654 374 L 683.664062 374 L 695.664062 345.785156 L 707.664062 374 L 737.332031 374 L 713.332031 391.4375 L 721.417969 422.980469 L 695.664062 405.542969 L 669.914062 422.980469 L 682.214844 391.4375 L 654 374 "/>
<path style="fill-rule:nonzero;fill:rgb(100%,51%,0%);fill-opacity:1;stroke-width:1;stroke-linecap:butt;stroke-linejoin:miter;stroke:rgb(0%,0%,0%);stroke-opacity:1;stroke-miterlimit:10;" d="M 774 138 L 803.664062 138 L 815.664062 109.785156 L 827.664062 138 L 857.332031 138 L 833.332031 155.4375 L 841.417969 186.980469 L 815.664062 169.542969 L 789.914062 186.980469 L 802.214844 155.4375 L 774 138 "/>
<path style="fill-rule:nonzero;fill:rgb(35%,70%,90%);fill-opacity:1;stroke-width:1;stroke-linecap:butt;stroke-linejoin:miter;stroke:rgb(0%,0%,0%);stroke-opacity:1;stroke-miterlimit:10;" d="M 615 93 L 589.019531 138 L 640.980469 138 L 615 93 "/>
<path style="fill-rule:nonzero;fill:rgb(35%,70%,90%);fill-opacity:1;stroke-width:1;stroke-linecap:butt;stroke-linejoin:miter;stroke:rgb(0%,0%,0%);stroke-opacity:1;stroke-miterlimit:10;" d="M 808 387 L 782.019531 432 L 833.980469 432 L 808 387 "/>
<path style="fill-rule:nonzero;fill:rgb(35%,70%,90%);fill-opacity:1;stroke-width:1;stroke-linecap:butt;stroke-linejoin:miter;stroke:rgb(0%,0%,0%);stroke-opacity:1;stroke-miterlimit:10;" d="M 527 307 L 501.019531 352 L 552.980469 352 L 527 307 "/>
</g>
</svg>
