<?xml version="1.0" encoding="UTF-8"?>
<svg xmlns="http://www.w3.org/2000/svg" xmlns:xlink="http://www.w3.org/1999/xlink" width="1179pt" height="517pt" viewBox="0 0 1179 517" version="1.1">
<g id="surface91">
<rect x="0" y="0" width="1179" height="517" style="fill:rgb(90%,90%,90%);fill-opacity:1;stroke:none;"/>
<path style="fill-rule:nonzero;fill:rgb(100%,51%,0%);fill-opacity:1;stroke-width:1;stroke-linecap:butt;stroke-linejoin:miter;stroke:rgb(0%,0%,0%);stroke-opacity:1;stroke-miterlimit:10;" d="M 750 256 L 779.664062 256 L 791.664062 227.785156 L 803.664062 256 L 833.332031 256 L 809.332031 273.4375 L 817.417969 304.980469 L 791.664062 287.542969 L 765.914062 304.980469 L 778.214844 273.4375 L 750 256 "/>
<path style="fill-rule:nonzero;fill:rgb(100%,51%,0%);fill-opacity:1;stroke-width:1;stroke-linecap:butt;stroke-linejoin:miter;stroke:rgb(0%,0%,0%);stroke-opacity:1;stroke-miterlimit:10;" d="M 782 134 L 811.664062 134 L 823.664062 105.785156 L 835.664062 134 L 865.332031 134 L 841.332031 151.4375 L 849.417969 182.980469 L 823.664062 165.542969 L 797.914062 182.980469 L 810.214844 151.4375 L 782 134 "/>
<path style="fill-rule:nonzero;fill:rgb(100%,51%,0%);fill-opacity:1;stroke-width:1;stroke-linecap:butt;stroke-linejoin:miter;stroke:rgb(0%,0%,0%);stroke-opacity:1;stroke-miterlimit:10;" d="M 877 407 L 906.664062 407 L 918.664062 378.785156 L 930.664062 407 L 960.332031 407 L 936.332031 424.4375 L 944.417969 455.980469 L 918.664062 438.542969 L 892.914062 455.980469 L 905.214844 424.4375 L 877 407 "/>
<path style="fill-rule:nonzero;fill:rgb(100%,51%,0%);fill-opacity:1;stroke-width:1;stroke-linecap:butt;stroke-linejoin:miter;stroke:rgb(0%,0%,0%);stroke-opacity:1;stroke-miterlimit:10;" d="M 316 364 L 345.664062 364 L 357.664062 335.785156 L 369.664062 364 L 399.332031 364 L 375.332031 381.4375 L 383.417969 412.980469 L 357.664062 395.542969 L 331.914062 412.980469 L 344.214844 381.4375 L 316 364 "/>
<path style="fill-rule:nonzero;fill:rgb(100%,51%,0%);fill-opacity:1;stroke-width:1;stroke-linecap:butt;stroke-linejoin:miter;stroke:rgb(0%,0%,0%);stroke-opacity:1;stroke-miterlimit:10;" d="M 928 275 L 957.664062 275 L 969.664062 246.785156 L 981.664062 275 L 1011.332031 275 L 987.332031 292.4375 L 995.417969 323.980469 L 969.664062 306.542969 L 943.914062 323.980469 L 956.214844 292.4375 L 928 275 "/>
<path style="fill-rule:nonzero;fill:rgb(53%,27%,7%);fill-opacity:1;stroke-width:1;stroke-linecap:butt;stroke-linejoin:miter;stroke:rgb(0%,0%,0%);stroke-opacity:1;stroke-miterlimit:10;" d="M 279.214844 231 C 279.214844 242.714844 269.714844 252.214844 258 252.214844 C 246.285156 252.214844 236.785156 242.714844 236.785156 231 C 236.785156 219.285156 246.285156 209.785156 258 209.785156 C 269.714844 209.785156 279.214844 219.285156 279.214844 231 "/>
<path style="fill-rule:nonzero;fill:rgb(53%,27%,7%);fill-opacity:1;stroke-width:1;stroke-linecap:butt;stroke-linejoin:miter;stroke:rgb(0%,0%,0%);stroke-opacity:1;stroke-miterlimit:10;" d="M 103.214844 315 C 103.214844 326.714844 93.714844 336.214844 82 336.214844 C 70.285156 336.214844 60.785156 326.714844 60.785156 315 C 60.785156 303.285156 70.285156 293.785156 82 293.785156 C 93.714844 293.785156 103.214844 303.285156 103.214844 315 "/>
<path style="fill-rule:nonzero;fill:rgb(53%,27%,7%);fill-opacity:1;stroke-width:1;stroke-linecap:butt;stroke-linejoin:miter;stroke:rgb(0%,0%,0%);stroke-opacity:1;stroke-miterlimit:10;" d="M 453.214844 178 C 453.214844 189.714844 443.714844 199.214844 432 199.214844 C 420.285156 199.214844 410.785156 189.714844 410.785156 178 C 410.785156 166.285156 420.285156 156.785156 432 156.785156 C 443.714844 156.785156 453.214844 166.285156 453.214844 178 "/>
<path style="fill-rule:nonzero;fill:rgb(53%,27%,7%);fill-opacity:1;stroke-width:1;stroke-linecap:butt;stroke-linejoin:miter;stroke:rgb(0%,0%,0%);stroke-opacity:1;stroke-miterlimit:10;" d="M 615.214844 273 C 615.214844 284.714844 605.714844 294.214844 594 294.214844 C 582.285156 294.214844 572.785156 284.714844 572.785156 273 C 572.785156 261.285156 582.285156 251.785156 594 251.785156 C 605.714844 251.785156 615.214844 261.285156 615.214844 273 "/>
<path style="fill-rule:nonzero;fill:rgb(53%,27%,7%);fill-opacity:1;stroke-width:1;stroke-linecap:butt;stroke-linejoin:miter;stroke:rgb(0%,0%,0%);stroke-opacity:1;stroke-miterlimit:10;" d="M 1042.214844 398 C 1042.214844 409.714844 1032.714844 419.214844 1021 419.214844 C 1009.285156 419.214844 999.785156 409.714844 999.785156 398 C 999.785156 386.285156 1009.285156 376.785156 1021 376.785156 C 1032.714844 376.785156 1042.214844 386.285156 1042.214844 398 "/>
</g>
</svg>
