<?xml version="1.0" encoding="UTF-8"?>
<svg xmlns="http://www.w3.org/2000/svg" xmlns:xlink="http://www.w3.org/1999/xlink" width="1179pt" height="517pt" viewBox="0 0 1179 517" version="1.1">
<g id="surface1286">
<rect x="0" y="0" width="1179" height="517" style="fill:rgb(90%,90%,90%);fill-opacity:1;stroke:none;"/>
<path style="fill-rule:nonzero;fill:rgb(55%,51%,53%);fill-opacity:1;stroke-width:1;stroke-linecap:butt;stroke-linejoin:miter;stroke:rgb(0%,0%,0%);stroke-opacity:1;stroke-miterlimit:10;" d="M 721 105.601562 C 721 91.199219 697 91.199219 697 105.601562 C 697 120 721 122.398438 721 134.398438 C 721 122.398438 745 120 745 105.601562 C 745 91.199219 721 91.199219 721 105.601562 "/>
<path style="fill-rule:nonzero;fill:rgb(55%,51%,53%);fill-opacity:1;stroke-width:1;stroke-linecap:butt;stroke-linejoin:miter;stroke:rgb(0%,0%,0%);stroke-opacity:1;stroke-miterlimit:10;" d="M 810 234.601562 C 810 220.199219 786 220.199219 786 234.601562 C 786 249 810 251.398438 810 263.398438 C 810 251.398438 834 249 834 234.601562 C 834 220.199219 810 220.199219 810 234.601562 "/>
<path style="fill-rule:nonzero;fill:rgb(55%,51%,53%);fill-opacity:1;stroke-width:1;stroke-linecap:butt;stroke-linejoin:miter;stroke:rgb(0%,0%,0%);stroke-opacity:1;stroke-miterlimit:10;" d="M 109 184.601562 C 109 170.199219 85 170.199219 85 184.601562 C 85 199 109 201.398438 109 213.398438 C 109 201.398438 133 199 133 184.601562 C 133 170.199219 109 170.199219 109 184.601562 "/>
<path style="fill-rule:nonzero;fill:rgb(55%,51%,53%);fill-opacity:1;stroke-width:1;stroke-linecap:butt;stroke-linejoin:miter;stroke:rgb(0%,0%,0%);stroke-opacity:1;stroke-miterlimit:10;" d="M 291 247.601562 C 291 233.199219 267 233.199219 267 247.601562 C 267 262 291 264.398438 291 276.398438 C 291 264.398438 315 262 315 247.601562 C 315 233.199219 291 233.199219 291 247.601562 "/>
<path style="fill-rule:nonzero;fill:rgb(53%,27%,7%);fill-opacity:1;stroke-width:1;stroke-linecap:butt;stroke-linejoin:miter;stroke:rgb(0%,0%,0%);stroke-opacity:1;stroke-miterlimit:10;" d="M 747 357 L 776.664062 357 L 788.664062 328.785156 L 800.664062 357 L 830.332031 357 L 806.332031 374.4375 L 814.417969 405.980469 L 788.664062 388.542969 L 762.914062 405.980469 L 775.214844 374.4375 L 747 357 "/>
<path style="fill-rule:nonzero;fill:rgb(53%,27%,7%);fill-opacity:1;stroke-width:1;stroke-linecap:butt;stroke-linejoin:miter;stroke:rgb(0%,0%,0%);stroke-opacity:1;stroke-miterlimit:10;" d="M 898 339 L 927.664062 339 L 939.664062 310.785156 L 951.664062 339 L 981.332031 339 L 957.332031 356.4375 L 965.417969 387.980469 L 939.664062 370.542969 L 913.914062 387.980469 L 926.214844 356.4375 L 898 339 "/>
<path style="fill-rule:nonzero;fill:rgb(53%,27%,7%);fill-opacity:1;stroke-width:1;stroke-linecap:butt;stroke-linejoin:miter;stroke:rgb(0%,0%,0%);stroke-opacity:1;stroke-miterlimit:10;" d="M 116 340 L 145.664062 340 L 157.664062 311.785156 L 169.664062 340 L 199.332031 340 L 175.332031 357.4375 L 183.417969 388.980469 L 157.664062 371.542969 L 131.914062 388.980469 L 144.214844 357.4375 L 116 340 "/>
<path style="fill-rule:nonzero;fill:rgb(53%,27%,7%);fill-opacity:1;stroke-width:1;stroke-linecap:butt;stroke-linejoin:miter;stroke:rgb(0%,0%,0%);stroke-opacity:1;stroke-miterlimit:10;" d="M 260 89 L 289.664062 89 L 301.664062 60.785156 L 313.664062 89 L 343.332031 89 L 319.332031 106.4375 L 327.417969 137.980469 L 301.664062 120.542969 L 275.914062 137.980469 L 288.214844 106.4375 L 260 89 "/>
</g>
</svg>
