<?xml version="1.0" encoding="UTF-8"?>
<svg xmlns="http://www.w3.org/2000/svg" xmlns:xlink="http://www.w3.org/1999/xlink" width="1179pt" height="517pt" viewBox="0 0 1179 517" version="1.1">
<g id="surface681">
<rect x="0" y="0" width="1179" height="517" style="fill:rgb(90%,90%,90%);fill-opacity:1;stroke:none;"/>
<path style="fill-rule:nonzero;fill:rgb(100%,51%,0%);fill-opacity:1;stroke-width:1;stroke-linecap:butt;stroke-linejoin:miter;stroke:rgb(0%,0%,0%);stroke-opacity:1;stroke-miterlimit:10;" d="M 155.214844 348 C 155.214844 359.714844 145.714844 369.214844 134 369.214844 C 122.285156 369.214844 112.785156 359.714844 112.785156 348 C 112.785156 336.285156 122.285156 326.785156 134 326.785156 C 145.714844 326.785156 155.214844 336.285156 155.214844 348 "/>
<path style="fill-rule:nonzero;fill:rgb(100%,51%,0%);fill-opacity:1;stroke-width:1;stroke-linecap:butt;stroke-linejoin:miter;stroke:rgb(0%,0%,0%);stroke-opacity:1;stroke-miterlimit:10;" d="M 384.214844 153 C 384.214844 164.714844 374.714844 174.214844 363 174.214844 C 351.285156 174.214844 341.785156 164.714844 341.785156 153 C 341.785156 141.285156 351.285156 131.785156 363 131.785156 C 374.714844 131.785156 384.214844 141.285156 384.214844 153 "/>
<path style="fill-rule:nonzero;fill:rgb(100%,51%,0%);fill-opacity:1;stroke-width:1;stroke-linecap:butt;stroke-linejoin:miter;stroke:rgb(0%,0%,0%);stroke-opacity:1;stroke-miterlimit:10;" d="M 303.785156 379.785156 L 303.785156 422.214844 L 346.214844 422.214844 L 346.214844 379.785156 L 303.785156 379.785156 "/>
<path style="fill-rule:nonzero;fill:rgb(100%,51%,0%);fill-opacity:1;stroke-width:1;stroke-linecap:butt;stroke-linejoin:miter;stroke:rgb(0%,0%,0%);stroke-opacity:1;stroke-miterlimit:10;" d="M 262.214844 314 C 262.214844 325.714844 252.714844 335.214844 241 335.214844 C 229.285156 335.214844 219.785156 325.714844 219.785156 314 C 219.785156 302.285156 229.285156 292.785156 241 292.785156 C 252.714844 292.785156 262.214844 302.285156 262.214844 314 "/>
<path style="fill-rule:nonzero;fill:rgb(100%,51%,0%);fill-opacity:1;stroke-width:1;stroke-linecap:butt;stroke-linejoin:miter;stroke:rgb(0%,0%,0%);stroke-opacity:1;stroke-miterlimit:10;" d="M 132.214844 156 C 132.214844 167.714844 122.714844 177.214844 111 177.214844 C 99.285156 177.214844 89.785156 167.714844 89.785156 156 C 89.785156 144.285156 99.285156 134.785156 111 134.785156 C 122.714844 134.785156 132.214844 144.285156 132.214844 156 "/>
<path style="fill-rule:nonzero;fill:rgb(55%,51%,53%);fill-opacity:1;stroke-width:1;stroke-linecap:butt;stroke-linejoin:miter;stroke:rgb(0%,0%,0%);stroke-opacity:1;stroke-miterlimit:10;" d="M 686.785156 306.785156 L 686.785156 349.214844 L 729.214844 349.214844 L 729.214844 306.785156 L 686.785156 306.785156 "/>
<path style="fill-rule:nonzero;fill:rgb(55%,51%,53%);fill-opacity:1;stroke-width:1;stroke-linecap:butt;stroke-linejoin:miter;stroke:rgb(0%,0%,0%);stroke-opacity:1;stroke-miterlimit:10;" d="M 958.785156 348.785156 L 958.785156 391.214844 L 1001.214844 391.214844 L 1001.214844 348.785156 L 958.785156 348.785156 "/>
<path style="fill-rule:nonzero;fill:rgb(55%,51%,53%);fill-opacity:1;stroke-width:1;stroke-linecap:butt;stroke-linejoin:miter;stroke:rgb(0%,0%,0%);stroke-opacity:1;stroke-miterlimit:10;" d="M 978.214844 191 C 978.214844 202.714844 968.714844 212.214844 957 212.214844 C 945.285156 212.214844 935.785156 202.714844 935.785156 191 C 935.785156 179.285156 945.285156 169.785156 957 169.785156 C 968.714844 169.785156 978.214844 179.285156 978.214844 191 "/>
<path style="fill-rule:nonzero;fill:rgb(55%,51%,53%);fill-opacity:1;stroke-width:1;stroke-linecap:butt;stroke-linejoin:miter;stroke:rgb(0%,0%,0%);stroke-opacity:1;stroke-miterlimit:10;" d="M 842.785156 168.785156 L 842.785156 211.214844 L 885.214844 211.214844 L 885.214844 168.785156 L 842.785156 168.785156 "/>
<path style="fill-rule:nonzero;fill:rgb(55%,51%,53%);fill-opacity:1;stroke-width:1;stroke-linecap:butt;stroke-linejoin:miter;stroke:rgb(0%,0%,0%);stroke-opacity:1;stroke-miterlimit:10;" d="M 699.785156 407.785156 L 699.785156 450.214844 L 742.214844 450.214844 L 742.214844 407.785156 L 699.785156 407.785156 "/>
</g>
</svg>
