<?xml version="1.0" encoding="UTF-8"?>
<svg xmlns="http://www.w3.org/2000/svg" xmlns:xlink="http://www.w3.org/1999/xlink" width="1179pt" height="517pt" viewBox="0 0 1179 517" version="1.1">
<g id="surface281">
<rect x="0" y="0" width="1179" height="517" style="fill:rgb(90%,90%,90%);fill-opacity:1;stroke:none;"/>
<path style="fill-rule:nonzero;fill:rgb(100%,51%,0%);fill-opacity:1;stroke-width:1;stroke-linecap:butt;stroke-linejoin:miter;stroke:rgb(0%,0%,0%);stroke-opacity:1;stroke-miterlimit:10;" d="M 141 385 L 170.664062 385 L 182.664062 356.785156 L 194.664062 385 L 224.332031 385 L 200.332031 402.4375 L 208.417969 433.980469 L 182.664062 416.542969 L 156.914062 433.980469 L 169.214844 402.4375 L 141 385 "/>
<path style="fill-rule:nonzero;fill:rgb(100%,51%,0%);fill-opacity:1;stroke-width:1;stroke-linecap:butt;stroke-linejoin:miter;stroke:rgb(0%,0%,0%);stroke-opacity:1;stroke-miterlimit:10;" d="M 316 186 L 345.664062 186 L 357.664062 157.785156 L 369.664062 186 L 399.332031 186 L 375.332031 203.4375 L 383.417969 234.980469 L 357.664062 217.542969 L 331.914062 234.980469 L 344.214844 203.4375 L 316 186 "/>
<path style="fill-rule:nonzero;fill:rgb(53%,27%,7%);fill-opacity:1;stroke-width:1;stroke-linecap:butt;stroke-linejoin:miter;stroke:rgb(0%,0%,0%);stroke-opacity:1;stroke-miterlimit:10;" d="M 409 293 L 438.664062 293 L 450.664062 264.785156 L 462.664062 293 L 492.332031 293 L 468.332031 310.4375 L 476.417969 341.980469 L 450.664062 324.542969 L 424.914062 341.980469 L 437.214844 310.4375 L 409 293 "/>
<path style="fill-rule:nonzero;fill:rgb(53%,27%,7%);fill-opacity:1;stroke-width:1;stroke-linecap:butt;stroke-linejoin:miter;stroke:rgb(0%,0%,0%);stroke-opacity:1;stroke-miterlimit:10;" d="M 425 386 L 454.664062 386 L 466.664062 357.785156 L 478.664062 386 L 508.332031 386 L 484.332031 403.4375 L 492.417969 434.980469 L 466.664062 417.542969 L 440.914062 434.980469 L 453.214844 403.4375 L 425 386 "/>
<path style="fill-rule:nonzero;fill:rgb(100%,51%,0%);fill-opacity:1;stroke-width:1;stroke-linecap:butt;stroke-linejoin:miter;stroke:rgb(0%,0%,0%);stroke-opacity:1;stroke-miterlimit:10;" d="M 145 261 L 174.664062 261 L 186.664062 232.785156 L 198.664062 261 L 228.332031 261 L 204.332031 278.4375 L 212.417969 309.980469 L 186.664062 292.542969 L 160.914062 309.980469 L 173.214844 278.4375 L 145 261 "/>
<path style="fill-rule:nonzero;fill:rgb(53%,27%,7%);fill-opacity:1;stroke-width:1;stroke-linecap:butt;stroke-linejoin:miter;stroke:rgb(0%,0%,0%);stroke-opacity:1;stroke-miterlimit:10;" d="M 824.785156 149.785156 L 824.785156 192.214844 L 867.214844 192.214844 L 867.214844 149.785156 L 824.785156 149.785156 "/>
<path style="fill-rule:nonzero;fill:rgb(53%,27%,7%);fill-opacity:1;stroke-width:1;stroke-linecap:butt;stroke-linejoin:miter;stroke:rgb(0%,0%,0%);stroke-opacity:1;stroke-miterlimit:10;" d="M 844.785156 307.785156 L 844.785156 350.214844 L 887.214844 350.214844 L 887.214844 307.785156 L 844.785156 307.785156 "/>
<path style="fill-rule:nonzero;fill:rgb(100%,51%,0%);fill-opacity:1;stroke-width:1;stroke-linecap:butt;stroke-linejoin:miter;stroke:rgb(0%,0%,0%);stroke-opacity:1;stroke-miterlimit:10;" d="M 769.785156 236.785156 L 769.785156 279.214844 L 812.214844 279.214844 L 812.214844 236.785156 L 769.785156 236.785156 "/>
</g>
</svg>
