<?xml version="1.0" encoding="UTF-8"?>
<svg xmlns="http://www.w3.org/2000/svg" xmlns:xlink="http://www.w3.org/1999/xlink" width="1179pt" height="517pt" viewBox="0 0 1179 517" version="1.1">
<g id="surface661">
<rect x="0" y="0" width="1179" height="517" style="fill:rgb(90%,90%,90%);fill-opacity:1;stroke:none;"/>
<path style="fill-rule:nonzero;fill:rgb(100%,51%,0%);fill-opacity:1;stroke-width:1;stroke-linecap:butt;stroke-linejoin:miter;stroke:rgb(0%,0%,0%);stroke-opacity:1;stroke-miterlimit:10;" d="M 818 206 L 847.664062 206 L 859.664062 177.785156 L 871.664062 206 L 901.332031 206 L 877.332031 223.4375 L 885.417969 254.980469 L 859.664062 237.542969 L 833.914062 254.980469 L 846.214844 223.4375 L 818 206 "/>
<path style="fill-rule:nonzero;fill:rgb(100%,51%,0%);fill-opacity:1;stroke-width:1;stroke-linecap:butt;stroke-linejoin:miter;stroke:rgb(0%,0%,0%);stroke-opacity:1;stroke-miterlimit:10;" d="M 646 165 L 675.664062 165 L 687.664062 136.785156 L 699.664062 165 L 729.332031 165 L 705.332031 182.4375 L 713.417969 213.980469 L 687.664062 196.542969 L 661.914062 213.980469 L 674.214844 182.4375 L 646 165 "/>
<path style="fill-rule:nonzero;fill:rgb(100%,51%,0%);fill-opacity:1;stroke-width:1;stroke-linecap:butt;stroke-linejoin:miter;stroke:rgb(0%,0%,0%);stroke-opacity:1;stroke-miterlimit:10;" d="M 968 372 L 997.664062 372 L 1009.664062 343.785156 L 1021.664062 372 L 1051.332031 372 L 1027.332031 389.4375 L 1035.417969 420.980469 L 1009.664062 403.542969 L 983.914062 420.980469 L 996.214844 389.4375 L 968 372 "/>
<path style="fill-rule:nonzero;fill:rgb(100%,51%,0%);fill-opacity:1;stroke-width:1;stroke-linecap:butt;stroke-linejoin:miter;stroke:rgb(0%,0%,0%);stroke-opacity:1;stroke-miterlimit:10;" d="M 123 104 L 152.664062 104 L 164.664062 75.785156 L 176.664062 104 L 206.332031 104 L 182.332031 121.4375 L 190.417969 152.980469 L 164.664062 135.542969 L 138.914062 152.980469 L 151.214844 121.4375 L 123 104 "/>
<path style="fill-rule:nonzero;fill:rgb(55%,51%,53%);fill-opacity:1;stroke-width:1;stroke-linecap:butt;stroke-linejoin:miter;stroke:rgb(0%,0%,0%);stroke-opacity:1;stroke-miterlimit:10;" d="M 570.214844 271 C 570.214844 282.714844 560.714844 292.214844 549 292.214844 C 537.285156 292.214844 527.785156 282.714844 527.785156 271 C 527.785156 259.285156 537.285156 249.785156 549 249.785156 C 560.714844 249.785156 570.214844 259.285156 570.214844 271 "/>
<path style="fill-rule:nonzero;fill:rgb(55%,51%,53%);fill-opacity:1;stroke-width:1;stroke-linecap:butt;stroke-linejoin:miter;stroke:rgb(0%,0%,0%);stroke-opacity:1;stroke-miterlimit:10;" d="M 469.214844 410 C 469.214844 421.714844 459.714844 431.214844 448 431.214844 C 436.285156 431.214844 426.785156 421.714844 426.785156 410 C 426.785156 398.285156 436.285156 388.785156 448 388.785156 C 459.714844 388.785156 469.214844 398.285156 469.214844 410 "/>
<path style="fill-rule:nonzero;fill:rgb(55%,51%,53%);fill-opacity:1;stroke-width:1;stroke-linecap:butt;stroke-linejoin:miter;stroke:rgb(0%,0%,0%);stroke-opacity:1;stroke-miterlimit:10;" d="M 103.214844 383 C 103.214844 394.714844 93.714844 404.214844 82 404.214844 C 70.285156 404.214844 60.785156 394.714844 60.785156 383 C 60.785156 371.285156 70.285156 361.785156 82 361.785156 C 93.714844 361.785156 103.214844 371.285156 103.214844 383 "/>
<path style="fill-rule:nonzero;fill:rgb(55%,51%,53%);fill-opacity:1;stroke-width:1;stroke-linecap:butt;stroke-linejoin:miter;stroke:rgb(0%,0%,0%);stroke-opacity:1;stroke-miterlimit:10;" d="M 627.214844 412 C 627.214844 423.714844 617.714844 433.214844 606 433.214844 C 594.285156 433.214844 584.785156 423.714844 584.785156 412 C 584.785156 400.285156 594.285156 390.785156 606 390.785156 C 617.714844 390.785156 627.214844 400.285156 627.214844 412 "/>
<path style="fill-rule:nonzero;fill:rgb(55%,51%,53%);fill-opacity:1;stroke-width:1;stroke-linecap:butt;stroke-linejoin:miter;stroke:rgb(0%,0%,0%);stroke-opacity:1;stroke-miterlimit:10;" d="M 401.214844 221 C 401.214844 232.714844 391.714844 242.214844 380 242.214844 C 368.285156 242.214844 358.785156 232.714844 358.785156 221 C 358.785156 209.285156 368.285156 199.785156 380 199.785156 C 391.714844 199.785156 401.214844 209.285156 401.214844 221 "/>
</g>
</svg>
