<?xml version="1.0" encoding="UTF-8"?>
<svg xmlns="http://www.w3.org/2000/svg" xmlns:xlink="http://www.w3.org/1999/xlink" width="1179pt" height="517pt" viewBox="0 0 1179 517" version="1.1">
<g id="surface551">
<rect x="0" y="0" width="1179" height="517" style="fill:rgb(90%,90%,90%);fill-opacity:1;stroke:none;"/>
<path style="fill-rule:nonzero;fill:rgb(35%,70%,90%);fill-opacity:1;stroke-width:1;stroke-linecap:butt;stroke-linejoin:miter;stroke:rgb(0%,0%,0%);stroke-opacity:1;stroke-miterlimit:10;" d="M 143 401 L 172.664062 401 L 184.664062 372.785156 L 196.664062 401 L 226.332031 401 L 202.332031 418.4375 L 210.417969 449.980469 L 184.664062 432.542969 L 158.914062 449.980469 L 171.214844 418.4375 L 143 401 "/>
<path style="fill-rule:nonzero;fill:rgb(100%,51%,0%);fill-opacity:1;stroke-width:1;stroke-linecap:butt;stroke-linejoin:miter;stroke:rgb(0%,0%,0%);stroke-opacity:1;stroke-miterlimit:10;" d="M 391 131 L 420.664062 131 L 432.664062 102.785156 L 444.664062 131 L 474.332031 131 L 450.332031 148.4375 L 458.417969 179.980469 L 432.664062 162.542969 L 406.914062 179.980469 L 419.214844 148.4375 L 391 131 "/>
<path style="fill-rule:nonzero;fill:rgb(35%,70%,90%);fill-opacity:1;stroke-width:1;stroke-linecap:butt;stroke-linejoin:miter;stroke:rgb(0%,0%,0%);stroke-opacity:1;stroke-miterlimit:10;" d="M 269 352 L 298.664062 352 L 310.664062 323.785156 L 322.664062 352 L 352.332031 352 L 328.332031 369.4375 L 336.417969 400.980469 L 310.664062 383.542969 L 284.914062 400.980469 L 297.214844 369.4375 L 269 352 "/>
<path style="fill-rule:nonzero;fill:rgb(100%,51%,0%);fill-opacity:1;stroke-width:1;stroke-linecap:butt;stroke-linejoin:miter;stroke:rgb(0%,0%,0%);stroke-opacity:1;stroke-miterlimit:10;" d="M 380 404 L 409.664062 404 L 421.664062 375.785156 L 433.664062 404 L 463.332031 404 L 439.332031 421.4375 L 447.417969 452.980469 L 421.664062 435.542969 L 395.914062 452.980469 L 408.214844 421.4375 L 380 404 "/>
<path style="fill-rule:nonzero;fill:rgb(100%,51%,0%);fill-opacity:1;stroke-width:1;stroke-linecap:butt;stroke-linejoin:miter;stroke:rgb(0%,0%,0%);stroke-opacity:1;stroke-miterlimit:10;" d="M 981.785156 150.785156 L 981.785156 193.214844 L 1024.214844 193.214844 L 1024.214844 150.785156 L 981.785156 150.785156 "/>
<path style="fill-rule:nonzero;fill:rgb(35%,70%,90%);fill-opacity:1;stroke-width:1;stroke-linecap:butt;stroke-linejoin:miter;stroke:rgb(0%,0%,0%);stroke-opacity:1;stroke-miterlimit:10;" d="M 714.785156 143.785156 L 714.785156 186.214844 L 757.214844 186.214844 L 757.214844 143.785156 L 714.785156 143.785156 "/>
<path style="fill-rule:nonzero;fill:rgb(100%,51%,0%);fill-opacity:1;stroke-width:1;stroke-linecap:butt;stroke-linejoin:miter;stroke:rgb(0%,0%,0%);stroke-opacity:1;stroke-miterlimit:10;" d="M 960.785156 332.785156 L 960.785156 375.214844 L 1003.214844 375.214844 L 1003.214844 332.785156 L 960.785156 332.785156 "/>
<path style="fill-rule:nonzero;fill:rgb(35%,70%,90%);fill-opacity:1;stroke-width:1;stroke-linecap:butt;stroke-linejoin:miter;stroke:rgb(0%,0%,0%);stroke-opacity:1;stroke-miterlimit:10;" d="M 728.785156 279.785156 L 728.785156 322.214844 L 771.214844 322.214844 L 771.214844 279.785156 L 728.785156 279.785156 "/>
</g>
</svg>
