<?xml version="1.0" encoding="UTF-8"?>
<svg xmlns="http://www.w3.org/2000/svg" xmlns:xlink="http://www.w3.org/1999/xlink" width="1179pt" height="517pt" viewBox="0 0 1179 517" version="1.1">
<g id="surface151">
<rect x="0" y="0" width="1179" height="517" style="fill:rgb(90%,90%,90%);fill-opacity:1;stroke:none;"/>
<path style="fill-rule:nonzero;fill:rgb(55%,51%,53%);fill-opacity:1;stroke-width:1;stroke-linecap:butt;stroke-linejoin:miter;stroke:rgb(0%,0%,0%);stroke-opacity:1;stroke-miterlimit:10;" d="M 526 151 L 555.664062 151 L 567.664062 122.785156 L 579.664062 151 L 609.332031 151 L 585.332031 168.4375 L 593.417969 199.980469 L 567.664062 182.542969 L 541.914062 199.980469 L 554.214844 168.4375 L 526 151 "/>
<path style="fill-rule:nonzero;fill:rgb(55%,51%,53%);fill-opacity:1;stroke-width:1;stroke-linecap:butt;stroke-linejoin:miter;stroke:rgb(0%,0%,0%);stroke-opacity:1;stroke-miterlimit:10;" d="M 134 294 L 163.664062 294 L 175.664062 265.785156 L 187.664062 294 L 217.332031 294 L 193.332031 311.4375 L 201.417969 342.980469 L 175.664062 325.542969 L 149.914062 342.980469 L 162.214844 311.4375 L 134 294 "/>
<path style="fill-rule:nonzero;fill:rgb(55%,51%,53%);fill-opacity:1;stroke-width:1;stroke-linecap:butt;stroke-linejoin:miter;stroke:rgb(0%,0%,0%);stroke-opacity:1;stroke-miterlimit:10;" d="M 579 259 L 608.664062 259 L 620.664062 230.785156 L 632.664062 259 L 662.332031 259 L 638.332031 276.4375 L 646.417969 307.980469 L 620.664062 290.542969 L 594.914062 307.980469 L 607.214844 276.4375 L 579 259 "/>
<path style="fill-rule:nonzero;fill:rgb(55%,51%,53%);fill-opacity:1;stroke-width:1;stroke-linecap:butt;stroke-linejoin:miter;stroke:rgb(0%,0%,0%);stroke-opacity:1;stroke-miterlimit:10;" d="M 118 121 L 147.664062 121 L 159.664062 92.785156 L 171.664062 121 L 201.332031 121 L 177.332031 138.4375 L 185.417969 169.980469 L 159.664062 152.542969 L 133.914062 169.980469 L 146.214844 138.4375 L 118 121 "/>
<path style="fill-rule:nonzero;fill:rgb(53%,27%,7%);fill-opacity:1;stroke-width:1;stroke-linecap:butt;stroke-linejoin:miter;stroke:rgb(0%,0%,0%);stroke-opacity:1;stroke-miterlimit:10;" d="M 326.214844 267 C 326.214844 278.714844 316.714844 288.214844 305 288.214844 C 293.285156 288.214844 283.785156 278.714844 283.785156 267 C 283.785156 255.285156 293.285156 245.785156 305 245.785156 C 316.714844 245.785156 326.214844 255.285156 326.214844 267 "/>
<path style="fill-rule:nonzero;fill:rgb(53%,27%,7%);fill-opacity:1;stroke-width:1;stroke-linecap:butt;stroke-linejoin:miter;stroke:rgb(0%,0%,0%);stroke-opacity:1;stroke-miterlimit:10;" d="M 489.214844 396 C 489.214844 407.714844 479.714844 417.214844 468 417.214844 C 456.285156 417.214844 446.785156 407.714844 446.785156 396 C 446.785156 384.285156 456.285156 374.785156 468 374.785156 C 479.714844 374.785156 489.214844 384.285156 489.214844 396 "/>
<path style="fill-rule:nonzero;fill:rgb(53%,27%,7%);fill-opacity:1;stroke-width:1;stroke-linecap:butt;stroke-linejoin:miter;stroke:rgb(0%,0%,0%);stroke-opacity:1;stroke-miterlimit:10;" d="M 1033.214844 303 C 1033.214844 314.714844 1023.714844 324.214844 1012 324.214844 C 1000.285156 324.214844 990.785156 314.714844 990.785156 303 C 990.785156 291.285156 1000.285156 281.785156 1012 281.785156 C 1023.714844 281.785156 1033.214844 291.285156 1033.214844 303 "/>
<path style="fill-rule:nonzero;fill:rgb(53%,27%,7%);fill-opacity:1;stroke-width:1;stroke-linecap:butt;stroke-linejoin:miter;stroke:rgb(0%,0%,0%);stroke-opacity:1;stroke-miterlimit:10;" d="M 868.214844 292 C 868.214844 303.714844 858.714844 313.214844 847 313.214844 C 835.285156 313.214844 825.785156 303.714844 825.785156 292 C 825.785156 280.285156 835.285156 270.785156 847 270.785156 C 858.714844 270.785156 868.214844 280.285156 868.214844 292 "/>
<path style="fill-rule:nonzero;fill:rgb(53%,27%,7%);fill-opacity:1;stroke-width:1;stroke-linecap:butt;stroke-linejoin:miter;stroke:rgb(0%,0%,0%);stroke-opacity:1;stroke-miterlimit:10;" d="M 1043.214844 93 C 1043.214844 104.714844 1033.714844 114.214844 1022 114.214844 C 1010.285156 114.214844 1000.785156 104.714844 1000.785156 93 C 1000.785156 81.285156 1010.285156 71.785156 1022 71.785156 C 1033.714844 71.785156 1043.214844 81.285156 1043.214844 93 "/>
</g>
</svg>
