<?xml version="1.0" encoding="UTF-8"?>
<svg xmlns="http://www.w3.org/2000/svg" xmlns:xlink="http://www.w3.org/1999/xlink" width="1179pt" height="517pt" viewBox="0 0 1179 517" version="1.1">
<g id="surface411">
<rect x="0" y="0" width="1179" height="517" style="fill:rgb(90%,90%,90%);fill-opacity:1;stroke:none;"/>
<path style="fill-rule:nonzero;fill:rgb(35%,70%,90%);fill-opacity:1;stroke-width:1;stroke-linecap:butt;stroke-linejoin:miter;stroke:rgb(0%,0%,0%);stroke-opacity:1;stroke-miterlimit:10;" d="M 146.214844 337 C 146.214844 348.714844 136.714844 358.214844 125 358.214844 C 113.285156 358.214844 103.785156 348.714844 103.785156 337 C 103.785156 325.285156 113.285156 315.785156 125 315.785156 C 136.714844 315.785156 146.214844 325.285156 146.214844 337 "/>
<path style="fill-rule:nonzero;fill:rgb(35%,70%,90%);fill-opacity:1;stroke-width:1;stroke-linecap:butt;stroke-linejoin:miter;stroke:rgb(0%,0%,0%);stroke-opacity:1;stroke-miterlimit:10;" d="M 308.214844 342 C 308.214844 353.714844 298.714844 363.214844 287 363.214844 C 275.285156 363.214844 265.785156 353.714844 265.785156 342 C 265.785156 330.285156 275.285156 320.785156 287 320.785156 C 298.714844 320.785156 308.214844 330.285156 308.214844 342 "/>
<path style="fill-rule:nonzero;fill:rgb(35%,70%,90%);fill-opacity:1;stroke-width:1;stroke-linecap:butt;stroke-linejoin:miter;stroke:rgb(0%,0%,0%);stroke-opacity:1;stroke-miterlimit:10;" d="M 425.214844 163 C 425.214844 174.714844 415.714844 184.214844 404 184.214844 C 392.285156 184.214844 382.785156 174.714844 382.785156 163 C 382.785156 151.285156 392.285156 141.785156 404 141.785156 C 415.714844 141.785156 425.214844 151.285156 425.214844 163 "/>
<path style="fill-rule:nonzero;fill:rgb(53%,27%,7%);fill-opacity:1;stroke-width:1;stroke-linecap:butt;stroke-linejoin:miter;stroke:rgb(0%,0%,0%);stroke-opacity:1;stroke-miterlimit:10;" d="M 295.214844 119 C 295.214844 130.714844 285.714844 140.214844 274 140.214844 C 262.285156 140.214844 252.785156 130.714844 252.785156 119 C 252.785156 107.285156 262.285156 97.785156 274 97.785156 C 285.714844 97.785156 295.214844 107.285156 295.214844 119 "/>
<path style="fill-rule:nonzero;fill:rgb(53%,27%,7%);fill-opacity:1;stroke-width:1;stroke-linecap:butt;stroke-linejoin:miter;stroke:rgb(0%,0%,0%);stroke-opacity:1;stroke-miterlimit:10;" d="M 947.785156 188.785156 L 947.785156 231.214844 L 990.214844 231.214844 L 990.214844 188.785156 L 947.785156 188.785156 "/>
<path style="fill-rule:nonzero;fill:rgb(53%,27%,7%);fill-opacity:1;stroke-width:1;stroke-linecap:butt;stroke-linejoin:miter;stroke:rgb(0%,0%,0%);stroke-opacity:1;stroke-miterlimit:10;" d="M 959.785156 85.785156 L 959.785156 128.214844 L 1002.214844 128.214844 L 1002.214844 85.785156 L 959.785156 85.785156 "/>
<path style="fill-rule:nonzero;fill:rgb(53%,27%,7%);fill-opacity:1;stroke-width:1;stroke-linecap:butt;stroke-linejoin:miter;stroke:rgb(0%,0%,0%);stroke-opacity:1;stroke-miterlimit:10;" d="M 974.785156 304.785156 L 974.785156 347.214844 L 1017.214844 347.214844 L 1017.214844 304.785156 L 974.785156 304.785156 "/>
<path style="fill-rule:nonzero;fill:rgb(35%,70%,90%);fill-opacity:1;stroke-width:1;stroke-linecap:butt;stroke-linejoin:miter;stroke:rgb(0%,0%,0%);stroke-opacity:1;stroke-miterlimit:10;" d="M 761.785156 88.785156 L 761.785156 131.214844 L 804.214844 131.214844 L 804.214844 88.785156 L 761.785156 88.785156 "/>
<path style="fill-rule:nonzero;fill:rgb(53%,27%,7%);fill-opacity:1;stroke-width:1;stroke-linecap:butt;stroke-linejoin:miter;stroke:rgb(0%,0%,0%);stroke-opacity:1;stroke-miterlimit:10;" d="M 818.785156 282.785156 L 818.785156 325.214844 L 861.214844 325.214844 L 861.214844 282.785156 L 818.785156 282.785156 "/>
</g>
</svg>
