<?xml version="1.0" encoding="UTF-8"?>
<svg xmlns="http://www.w3.org/2000/svg" xmlns:xlink="http://www.w3.org/1999/xlink" width="1179pt" height="517pt" viewBox="0 0 1179 517" version="1.1">
<g id="surface141">
<rect x="0" y="0" width="1179" height="517" style="fill:rgb(90%,90%,90%);fill-opacity:1;stroke:none;"/>
<path style="fill-rule:nonzero;fill:rgb(100%,51%,0%);fill-opacity:1;stroke-width:1;stroke-linecap:butt;stroke-linejoin:miter;stroke:rgb(0%,0%,0%);stroke-opacity:1;stroke-miterlimit:10;" d="M 202.214844 361 C 202.214844 372.714844 192.714844 382.214844 181 382.214844 C 169.285156 382.214844 159.785156 372.714844 159.785156 361 C 159.785156 349.285156 169.285156 339.785156 181 339.785156 C 192.714844 339.785156 202.214844 349.285156 202.214844 361 "/>
<path style="fill-rule:nonzero;fill:rgb(55%,51%,53%);fill-opacity:1;stroke-width:1;stroke-linecap:butt;stroke-linejoin:miter;stroke:rgb(0%,0%,0%);stroke-opacity:1;stroke-miterlimit:10;" d="M 216.214844 193 C 216.214844 204.714844 206.714844 214.214844 195 214.214844 C 183.285156 214.214844 173.785156 204.714844 173.785156 193 C 173.785156 181.285156 183.285156 171.785156 195 171.785156 C 206.714844 171.785156 216.214844 181.285156 216.214844 193 "/>
<path style="fill-rule:nonzero;fill:rgb(100%,51%,0%);fill-opacity:1;stroke-width:1;stroke-linecap:butt;stroke-linejoin:miter;stroke:rgb(0%,0%,0%);stroke-opacity:1;stroke-miterlimit:10;" d="M 128.214844 173 C 128.214844 184.714844 118.714844 194.214844 107 194.214844 C 95.285156 194.214844 85.785156 184.714844 85.785156 173 C 85.785156 161.285156 95.285156 151.785156 107 151.785156 C 118.714844 151.785156 128.214844 161.285156 128.214844 173 "/>
<path style="fill-rule:nonzero;fill:rgb(55%,51%,53%);fill-opacity:1;stroke-width:1;stroke-linecap:butt;stroke-linejoin:miter;stroke:rgb(0%,0%,0%);stroke-opacity:1;stroke-miterlimit:10;" d="M 439.214844 130 C 439.214844 141.714844 429.714844 151.214844 418 151.214844 C 406.285156 151.214844 396.785156 141.714844 396.785156 130 C 396.785156 118.285156 406.285156 108.785156 418 108.785156 C 429.714844 108.785156 439.214844 118.285156 439.214844 130 "/>
<path style="fill-rule:nonzero;fill:rgb(100%,51%,0%);fill-opacity:1;stroke-width:1;stroke-linecap:butt;stroke-linejoin:miter;stroke:rgb(0%,0%,0%);stroke-opacity:1;stroke-miterlimit:10;" d="M 431.214844 382 C 431.214844 393.714844 421.714844 403.214844 410 403.214844 C 398.285156 403.214844 388.785156 393.714844 388.785156 382 C 388.785156 370.285156 398.285156 360.785156 410 360.785156 C 421.714844 360.785156 431.214844 370.285156 431.214844 382 "/>
<path style="fill-rule:nonzero;fill:rgb(55%,51%,53%);fill-opacity:1;stroke-width:1;stroke-linecap:butt;stroke-linejoin:miter;stroke:rgb(0%,0%,0%);stroke-opacity:1;stroke-miterlimit:10;" d="M 866.785156 338.785156 L 866.785156 381.214844 L 909.214844 381.214844 L 909.214844 338.785156 L 866.785156 338.785156 "/>
<path style="fill-rule:nonzero;fill:rgb(100%,51%,0%);fill-opacity:1;stroke-width:1;stroke-linecap:butt;stroke-linejoin:miter;stroke:rgb(0%,0%,0%);stroke-opacity:1;stroke-miterlimit:10;" d="M 933.785156 106.785156 L 933.785156 149.214844 L 976.214844 149.214844 L 976.214844 106.785156 L 933.785156 106.785156 "/>
<path style="fill-rule:nonzero;fill:rgb(55%,51%,53%);fill-opacity:1;stroke-width:1;stroke-linecap:butt;stroke-linejoin:miter;stroke:rgb(0%,0%,0%);stroke-opacity:1;stroke-miterlimit:10;" d="M 713.785156 347.785156 L 713.785156 390.214844 L 756.214844 390.214844 L 756.214844 347.785156 L 713.785156 347.785156 "/>
<path style="fill-rule:nonzero;fill:rgb(100%,51%,0%);fill-opacity:1;stroke-width:1;stroke-linecap:butt;stroke-linejoin:miter;stroke:rgb(0%,0%,0%);stroke-opacity:1;stroke-miterlimit:10;" d="M 800.785156 173.785156 L 800.785156 216.214844 L 843.214844 216.214844 L 843.214844 173.785156 L 800.785156 173.785156 "/>
</g>
</svg>
