<?xml version="1.0" encoding="UTF-8"?>
<svg xmlns="http://www.w3.org/2000/svg" xmlns:xlink="http://www.w3.org/1999/xlink" width="1179pt" height="517pt" viewBox="0 0 1179 517" version="1.1">
<g id="surface1186">
<rect x="0" y="0" width="1179" height="517" style="fill:rgb(90%,90%,90%);fill-opacity:1;stroke:none;"/>
<path style="fill-rule:nonzero;fill:rgb(100%,51%,0%);fill-opacity:1;stroke-width:1;stroke-linecap:butt;stroke-linejoin:miter;stroke:rgb(0%,0%,0%);stroke-opacity:1;stroke-miterlimit:10;" d="M 836 134 L 865.664062 134 L 877.664062 105.785156 L 889.664062 134 L 919.332031 134 L 895.332031 151.4375 L 903.417969 182.980469 L 877.664062 165.542969 L 851.914062 182.980469 L 864.214844 151.4375 L 836 134 "/>
<path style="fill-rule:nonzero;fill:rgb(100%,51%,0%);fill-opacity:1;stroke-width:1;stroke-linecap:butt;stroke-linejoin:miter;stroke:rgb(0%,0%,0%);stroke-opacity:1;stroke-miterlimit:10;" d="M 367 249 L 396.664062 249 L 408.664062 220.785156 L 420.664062 249 L 450.332031 249 L 426.332031 266.4375 L 434.417969 297.980469 L 408.664062 280.542969 L 382.914062 297.980469 L 395.214844 266.4375 L 367 249 "/>
<path style="fill-rule:nonzero;fill:rgb(100%,51%,0%);fill-opacity:1;stroke-width:1;stroke-linecap:butt;stroke-linejoin:miter;stroke:rgb(0%,0%,0%);stroke-opacity:1;stroke-miterlimit:10;" d="M 134 416 L 163.664062 416 L 175.664062 387.785156 L 187.664062 416 L 217.332031 416 L 193.332031 433.4375 L 201.417969 464.980469 L 175.664062 447.542969 L 149.914062 464.980469 L 162.214844 433.4375 L 134 416 "/>
<path style="fill-rule:nonzero;fill:rgb(100%,51%,0%);fill-opacity:1;stroke-width:1;stroke-linecap:butt;stroke-linejoin:miter;stroke:rgb(0%,0%,0%);stroke-opacity:1;stroke-miterlimit:10;" d="M 237 207 L 266.664062 207 L 278.664062 178.785156 L 290.664062 207 L 320.332031 207 L 296.332031 224.4375 L 304.417969 255.980469 L 278.664062 238.542969 L 252.914062 255.980469 L 265.214844 224.4375 L 237 207 "/>
<path style="fill-rule:nonzero;fill:rgb(53%,27%,7%);fill-opacity:1;stroke-width:1;stroke-linecap:butt;stroke-linejoin:miter;stroke:rgb(0%,0%,0%);stroke-opacity:1;stroke-miterlimit:10;" d="M 135.214844 222 C 135.214844 233.714844 125.714844 243.214844 114 243.214844 C 102.285156 243.214844 92.785156 233.714844 92.785156 222 C 92.785156 210.285156 102.285156 200.785156 114 200.785156 C 125.714844 200.785156 135.214844 210.285156 135.214844 222 "/>
<path style="fill-rule:nonzero;fill:rgb(53%,27%,7%);fill-opacity:1;stroke-width:1;stroke-linecap:butt;stroke-linejoin:miter;stroke:rgb(0%,0%,0%);stroke-opacity:1;stroke-miterlimit:10;" d="M 826.214844 412 C 826.214844 423.714844 816.714844 433.214844 805 433.214844 C 793.285156 433.214844 783.785156 423.714844 783.785156 412 C 783.785156 400.285156 793.285156 390.785156 805 390.785156 C 816.714844 390.785156 826.214844 400.285156 826.214844 412 "/>
<path style="fill-rule:nonzero;fill:rgb(53%,27%,7%);fill-opacity:1;stroke-width:1;stroke-linecap:butt;stroke-linejoin:miter;stroke:rgb(0%,0%,0%);stroke-opacity:1;stroke-miterlimit:10;" d="M 633.214844 403 C 633.214844 414.714844 623.714844 424.214844 612 424.214844 C 600.285156 424.214844 590.785156 414.714844 590.785156 403 C 590.785156 391.285156 600.285156 381.785156 612 381.785156 C 623.714844 381.785156 633.214844 391.285156 633.214844 403 "/>
<path style="fill-rule:nonzero;fill:rgb(53%,27%,7%);fill-opacity:1;stroke-width:1;stroke-linecap:butt;stroke-linejoin:miter;stroke:rgb(0%,0%,0%);stroke-opacity:1;stroke-miterlimit:10;" d="M 606.214844 215 C 606.214844 226.714844 596.714844 236.214844 585 236.214844 C 573.285156 236.214844 563.785156 226.714844 563.785156 215 C 563.785156 203.285156 573.285156 193.785156 585 193.785156 C 596.714844 193.785156 606.214844 203.285156 606.214844 215 "/>
<path style="fill-rule:nonzero;fill:rgb(53%,27%,7%);fill-opacity:1;stroke-width:1;stroke-linecap:butt;stroke-linejoin:miter;stroke:rgb(0%,0%,0%);stroke-opacity:1;stroke-miterlimit:10;" d="M 459.214844 138 C 459.214844 149.714844 449.714844 159.214844 438 159.214844 C 426.285156 159.214844 416.785156 149.714844 416.785156 138 C 416.785156 126.285156 426.285156 116.785156 438 116.785156 C 449.714844 116.785156 459.214844 126.285156 459.214844 138 "/>
</g>
</svg>
