<?xml version="1.0" encoding="UTF-8"?>
<svg xmlns="http://www.w3.org/2000/svg" xmlns:xlink="http://www.w3.org/1999/xlink" width="1179pt" height="517pt" viewBox="0 0 1179 517" version="1.1">
<g id="surface816">
<rect x="0" y="0" width="1179" height="517" style="fill:rgb(90%,90%,90%);fill-opacity:1;stroke:none;"/>
<path style="fill-rule:nonzero;fill:rgb(55%,51%,53%);fill-opacity:1;stroke-width:1;stroke-linecap:butt;stroke-linejoin:miter;stroke:rgb(0%,0%,0%);stroke-opacity:1;stroke-miterlimit:10;" d="M 873 175 L 847.019531 220 L 898.980469 220 L 873 175 "/>
<path style="fill-rule:nonzero;fill:rgb(55%,51%,53%);fill-opacity:1;stroke-width:1;stroke-linecap:butt;stroke-linejoin:miter;stroke:rgb(0%,0%,0%);stroke-opacity:1;stroke-miterlimit:10;" d="M 304 158 L 278.019531 203 L 329.980469 203 L 304 158 "/>
<path style="fill-rule:nonzero;fill:rgb(55%,51%,53%);fill-opacity:1;stroke-width:1;stroke-linecap:butt;stroke-linejoin:miter;stroke:rgb(0%,0%,0%);stroke-opacity:1;stroke-miterlimit:10;" d="M 573 137 L 547.019531 182 L 598.980469 182 L 573 137 "/>
<path style="fill-rule:nonzero;fill:rgb(55%,51%,53%);fill-opacity:1;stroke-width:1;stroke-linecap:butt;stroke-linejoin:miter;stroke:rgb(0%,0%,0%);stroke-opacity:1;stroke-miterlimit:10;" d="M 370 268 L 344.019531 313 L 395.980469 313 L 370 268 "/>
<path style="fill-rule:nonzero;fill:rgb(55%,51%,53%);fill-opacity:1;stroke-width:1;stroke-linecap:butt;stroke-linejoin:miter;stroke:rgb(0%,0%,0%);stroke-opacity:1;stroke-miterlimit:10;" d="M 718 229 L 692.019531 274 L 743.980469 274 L 718 229 "/>
<path style="fill-rule:nonzero;fill:rgb(100%,51%,0%);fill-opacity:1;stroke-width:1;stroke-linecap:butt;stroke-linejoin:miter;stroke:rgb(0%,0%,0%);stroke-opacity:1;stroke-miterlimit:10;" d="M 805 416 L 834.664062 416 L 846.664062 387.785156 L 858.664062 416 L 888.332031 416 L 864.332031 433.4375 L 872.417969 464.980469 L 846.664062 447.542969 L 820.914062 464.980469 L 833.214844 433.4375 L 805 416 "/>
<path style="fill-rule:nonzero;fill:rgb(100%,51%,0%);fill-opacity:1;stroke-width:1;stroke-linecap:butt;stroke-linejoin:miter;stroke:rgb(0%,0%,0%);stroke-opacity:1;stroke-miterlimit:10;" d="M 265 388 L 294.664062 388 L 306.664062 359.785156 L 318.664062 388 L 348.332031 388 L 324.332031 405.4375 L 332.417969 436.980469 L 306.664062 419.542969 L 280.914062 436.980469 L 293.214844 405.4375 L 265 388 "/>
<path style="fill-rule:nonzero;fill:rgb(100%,51%,0%);fill-opacity:1;stroke-width:1;stroke-linecap:butt;stroke-linejoin:miter;stroke:rgb(0%,0%,0%);stroke-opacity:1;stroke-miterlimit:10;" d="M 423 112 L 452.664062 112 L 464.664062 83.785156 L 476.664062 112 L 506.332031 112 L 482.332031 129.4375 L 490.417969 160.980469 L 464.664062 143.542969 L 438.914062 160.980469 L 451.214844 129.4375 L 423 112 "/>
<path style="fill-rule:nonzero;fill:rgb(100%,51%,0%);fill-opacity:1;stroke-width:1;stroke-linecap:butt;stroke-linejoin:miter;stroke:rgb(0%,0%,0%);stroke-opacity:1;stroke-miterlimit:10;" d="M 1009 135 L 1038.664062 135 L 1050.664062 106.785156 L 1062.664062 135 L 1092.332031 135 L 1068.332031 152.4375 L 1076.417969 183.980469 L 1050.664062 166.542969 L 1024.914062 183.980469 L 1037.214844 152.4375 L 1009 135 "/>
</g>
</svg>
