<?xml version="1.0" encoding="UTF-8"?>
<svg xmlns="http://www.w3.org/2000/svg" xmlns:xlink="http://www.w3.org/1999/xlink" width="1129pt" height="517pt" viewBox="0 0 1129 517" version="1.1">
<g id="surface31">
<rect x="0" y="0" width="1129" height="517" style="fill:rgb(90%,90%,90%);fill-opacity:1;stroke:none;"/>
<path style="fill-rule:nonzero;fill:rgb(35%,70%,90%);fill-opacity:1;stroke-width:1;stroke-linecap:butt;stroke-linejoin:miter;stroke:rgb(0%,0%,0%);stroke-opacity:1;stroke-miterlimit:10;" d="M 937 195 L 966.664062 195 L 978.664062 166.785156 L 990.664062 195 L 1020.332031 195 L 996.332031 212.4375 L 1004.417969 243.980469 L 978.664062 226.542969 L 952.914062 243.980469 L 965.214844 212.4375 L 937 195 "/>
<path style="fill-rule:nonzero;fill:rgb(35%,70%,90%);fill-opacity:1;stroke-width:1;stroke-linecap:butt;stroke-linejoin:miter;stroke:rgb(0%,0%,0%);stroke-opacity:1;stroke-miterlimit:10;" d="M 229 446 L 258.664062 446 L 270.664062 417.785156 L 282.664062 446 L 312.332031 446 L 288.332031 463.4375 L 296.417969 494.980469 L 270.664062 477.542969 L 244.914062 494.980469 L 257.214844 463.4375 L 229 446 "/>
<path style="fill-rule:nonzero;fill:rgb(35%,70%,90%);fill-opacity:1;stroke-width:1;stroke-linecap:butt;stroke-linejoin:miter;stroke:rgb(0%,0%,0%);stroke-opacity:1;stroke-miterlimit:10;" d="M 380 315 L 409.664062 315 L 421.664062 286.785156 L 433.664062 315 L 463.332031 315 L 439.332031 332.4375 L 447.417969 363.980469 L 421.664062 346.542969 L 395.914062 363.980469 L 408.214844 332.4375 L 380 315 "/>
<path style="fill-rule:nonzero;fill:rgb(35%,70%,90%);fill-opacity:1;stroke-width:1;stroke-linecap:butt;stroke-linejoin:miter;stroke:rgb(0%,0%,0%);stroke-opacity:1;stroke-miterlimit:10;" d="M 296 50 L 325.664062 50 L 337.664062 21.785156 L 349.664062 50 L 379.332031 50 L 355.332031 67.4375 L 363.417969 98.980469 L 337.664062 81.542969 L 311.914062 98.980469 L 324.214844 67.4375 L 296 50 "/>
<path style="fill-rule:nonzero;fill:rgb(35%,70%,90%);fill-opacity:1;stroke-width:1;stroke-linecap:butt;stroke-linejoin:miter;stroke:rgb(0%,0%,0%);stroke-opacity:1;stroke-miterlimit:10;" d="M 450 394 L 479.664062 394 L 491.664062 365.785156 L 503.664062 394 L 533.332031 394 L 509.332031 411.4375 L 517.417969 442.980469 L 491.664062 425.542969 L 465.914062 442.980469 L 478.214844 411.4375 L 450 394 "/>
<path style="fill-rule:nonzero;fill:rgb(100%,51%,0%);fill-opacity:1;stroke-width:1;stroke-linecap:butt;stroke-linejoin:miter;stroke:rgb(0%,0%,0%);stroke-opacity:1;stroke-miterlimit:10;" d="M 452.214844 204 C 452.214844 215.714844 442.714844 225.214844 431 225.214844 C 419.285156 225.214844 409.785156 215.714844 409.785156 204 C 409.785156 192.285156 419.285156 182.785156 431 182.785156 C 442.714844 182.785156 452.214844 192.285156 452.214844 204 "/>
<path style="fill-rule:nonzero;fill:rgb(100%,51%,0%);fill-opacity:1;stroke-width:1;stroke-linecap:butt;stroke-linejoin:miter;stroke:rgb(0%,0%,0%);stroke-opacity:1;stroke-miterlimit:10;" d="M 778.214844 118 C 778.214844 129.714844 768.714844 139.214844 757 139.214844 C 745.285156 139.214844 735.785156 129.714844 735.785156 118 C 735.785156 106.285156 745.285156 96.785156 757 96.785156 C 768.714844 96.785156 778.214844 106.285156 778.214844 118 "/>
<path style="fill-rule:nonzero;fill:rgb(100%,51%,0%);fill-opacity:1;stroke-width:1;stroke-linecap:butt;stroke-linejoin:miter;stroke:rgb(0%,0%,0%);stroke-opacity:1;stroke-miterlimit:10;" d="M 935.214844 345 C 935.214844 356.714844 925.714844 366.214844 914 366.214844 C 902.285156 366.214844 892.785156 356.714844 892.785156 345 C 892.785156 333.285156 902.285156 323.785156 914 323.785156 C 925.714844 323.785156 935.214844 333.285156 935.214844 345 "/>
<path style="fill-rule:nonzero;fill:rgb(100%,51%,0%);fill-opacity:1;stroke-width:1;stroke-linecap:butt;stroke-linejoin:miter;stroke:rgb(0%,0%,0%);stroke-opacity:1;stroke-miterlimit:10;" d="M 131.214844 95 C 131.214844 106.714844 121.714844 116.214844 110 116.214844 C 98.285156 116.214844 88.785156 106.714844 88.785156 95 C 88.785156 83.285156 98.285156 73.785156 110 73.785156 C 121.714844 73.785156 131.214844 83.285156 131.214844 95 "/>
<path style="fill-rule:nonzero;fill:rgb(100%,51%,0%);fill-opacity:1;stroke-width:1;stroke-linecap:butt;stroke-linejoin:miter;stroke:rgb(0%,0%,0%);stroke-opacity:1;stroke-miterlimit:10;" d="M 942.214844 455 C 942.214844 466.714844 932.714844 476.214844 921 476.214844 C 909.285156 476.214844 899.785156 466.714844 899.785156 455 C 899.785156 443.285156 909.285156 433.785156 921 433.785156 C 932.714844 433.785156 942.214844 443.285156 942.214844 455 "/>
<path style="fill-rule:nonzero;fill:rgb(100%,51%,0%);fill-opacity:1;stroke-width:1;stroke-linecap:butt;stroke-linejoin:miter;stroke:rgb(0%,0%,0%);stroke-opacity:1;stroke-miterlimit:10;" d="M 689.214844 137 C 689.214844 148.714844 679.714844 158.214844 668 158.214844 C 656.285156 158.214844 646.785156 148.714844 646.785156 137 C 646.785156 125.285156 656.285156 115.785156 668 115.785156 C 679.714844 115.785156 689.214844 125.285156 689.214844 137 "/>
</g>
</svg>
