<?xml version="1.0" encoding="UTF-8"?>
<svg xmlns="http://www.w3.org/2000/svg" xmlns:xlink="http://www.w3.org/1999/xlink" width="1129pt" height="517pt" viewBox="0 0 1129 517" version="1.1">
<g id="surface6">
<rect x="0" y="0" width="1129" height="517" style="fill:rgb(90%,90%,90%);fill-opacity:1;stroke:none;"/>
<path style="fill-rule:nonzero;fill:rgb(35%,70%,90%);fill-opacity:1;stroke-width:1;stroke-linecap:butt;stroke-linejoin:miter;stroke:rgb(0%,0%,0%);stroke-opacity:1;stroke-miterlimit:10;" d="M 889 35.601562 C 889 21.199219 865 21.199219 865 35.601562 C 865 50 889 52.398438 889 64.398438 C 889 52.398438 913 50 913 35.601562 C 913 21.199219 889 21.199219 889 35.601562 "/>
<path style="fill-rule:nonzero;fill:rgb(35%,70%,90%);fill-opacity:1;stroke-width:1;stroke-linecap:butt;stroke-linejoin:miter;stroke:rgb(0%,0%,0%);stroke-opacity:1;stroke-miterlimit:10;" d="M 745 410.601562 C 745 396.199219 721 396.199219 721 410.601562 C 721 425 745 427.398438 745 439.398438 C 745 427.398438 769 425 769 410.601562 C 769 396.199219 745 396.199219 745 410.601562 "/>
<path style="fill-rule:nonzero;fill:rgb(35%,70%,90%);fill-opacity:1;stroke-width:1;stroke-linecap:butt;stroke-linejoin:miter;stroke:rgb(0%,0%,0%);stroke-opacity:1;stroke-miterlimit:10;" d="M 496 208.601562 C 496 194.199219 472 194.199219 472 208.601562 C 472 223 496 225.398438 496 237.398438 C 496 225.398438 520 223 520 208.601562 C 520 194.199219 496 194.199219 496 208.601562 "/>
<path style="fill-rule:nonzero;fill:rgb(35%,70%,90%);fill-opacity:1;stroke-width:1;stroke-linecap:butt;stroke-linejoin:miter;stroke:rgb(0%,0%,0%);stroke-opacity:1;stroke-miterlimit:10;" d="M 198 50.601562 C 198 36.199219 174 36.199219 174 50.601562 C 174 65 198 67.398438 198 79.398438 C 198 67.398438 222 65 222 50.601562 C 222 36.199219 198 36.199219 198 50.601562 "/>
<path style="fill-rule:nonzero;fill:rgb(35%,70%,90%);fill-opacity:1;stroke-width:1;stroke-linecap:butt;stroke-linejoin:miter;stroke:rgb(0%,0%,0%);stroke-opacity:1;stroke-miterlimit:10;" d="M 973 439.601562 C 973 425.199219 949 425.199219 949 439.601562 C 949 454 973 456.398438 973 468.398438 C 973 456.398438 997 454 997 439.601562 C 997 425.199219 973 425.199219 973 439.601562 "/>
<path style="fill-rule:nonzero;fill:rgb(35%,70%,90%);fill-opacity:1;stroke-width:1;stroke-linecap:butt;stroke-linejoin:miter;stroke:rgb(0%,0%,0%);stroke-opacity:1;stroke-miterlimit:10;" d="M 141 134.601562 C 141 120.199219 117 120.199219 117 134.601562 C 117 149 141 151.398438 141 163.398438 C 141 151.398438 165 149 165 134.601562 C 165 120.199219 141 120.199219 141 134.601562 "/>
<path style="fill-rule:nonzero;fill:rgb(35%,70%,90%);fill-opacity:1;stroke-width:1;stroke-linecap:butt;stroke-linejoin:miter;stroke:rgb(0%,0%,0%);stroke-opacity:1;stroke-miterlimit:10;" d="M 644 74.601562 C 644 60.199219 620 60.199219 620 74.601562 C 620 89 644 91.398438 644 103.398438 C 644 91.398438 668 89 668 74.601562 C 668 60.199219 644 60.199219 644 74.601562 "/>
<path style="fill-rule:nonzero;fill:rgb(35%,70%,90%);fill-opacity:1;stroke-width:1;stroke-linecap:butt;stroke-linejoin:miter;stroke:rgb(0%,0%,0%);stroke-opacity:1;stroke-miterlimit:10;" d="M 940 340.601562 C 940 326.199219 916 326.199219 916 340.601562 C 916 355 940 357.398438 940 369.398438 C 940 357.398438 964 355 964 340.601562 C 964 326.199219 940 326.199219 940 340.601562 "/>
<path style="fill-rule:nonzero;fill:rgb(100%,51%,0%);fill-opacity:1;stroke-width:1;stroke-linecap:butt;stroke-linejoin:miter;stroke:rgb(0%,0%,0%);stroke-opacity:1;stroke-miterlimit:10;" d="M 61 88 L 41 88 L 41 98 L 61 98 L 61 118 L 71 118 L 71 98 L 91 98 L 91 88 L 71 88 L 71 68 L 61 68 L 61 88 "/>
<path style="fill-rule:nonzero;fill:rgb(100%,51%,0%);fill-opacity:1;stroke-width:1;stroke-linecap:butt;stroke-linejoin:miter;stroke:rgb(0%,0%,0%);stroke-opacity:1;stroke-miterlimit:10;" d="M 253 186 L 233 186 L 233 196 L 253 196 L 253 216 L 263 216 L 263 196 L 283 196 L 283 186 L 263 186 L 263 166 L 253 166 L 253 186 "/>
<path style="fill-rule:nonzero;fill:rgb(100%,51%,0%);fill-opacity:1;stroke-width:1;stroke-linecap:butt;stroke-linejoin:miter;stroke:rgb(0%,0%,0%);stroke-opacity:1;stroke-miterlimit:10;" d="M 854 202 L 834 202 L 834 212 L 854 212 L 854 232 L 864 232 L 864 212 L 884 212 L 884 202 L 864 202 L 864 182 L 854 182 L 854 202 "/>
<path style="fill-rule:nonzero;fill:rgb(100%,51%,0%);fill-opacity:1;stroke-width:1;stroke-linecap:butt;stroke-linejoin:miter;stroke:rgb(0%,0%,0%);stroke-opacity:1;stroke-miterlimit:10;" d="M 347 76 L 327 76 L 327 86 L 347 86 L 347 106 L 357 106 L 357 86 L 377 86 L 377 76 L 357 76 L 357 56 L 347 56 L 347 76 "/>
<path style="fill-rule:nonzero;fill:rgb(100%,51%,0%);fill-opacity:1;stroke-width:1;stroke-linecap:butt;stroke-linejoin:miter;stroke:rgb(0%,0%,0%);stroke-opacity:1;stroke-miterlimit:10;" d="M 617 199 L 597 199 L 597 209 L 617 209 L 617 229 L 627 229 L 627 209 L 647 209 L 647 199 L 627 199 L 627 179 L 617 179 L 617 199 "/>
<path style="fill-rule:nonzero;fill:rgb(100%,51%,0%);fill-opacity:1;stroke-width:1;stroke-linecap:butt;stroke-linejoin:miter;stroke:rgb(0%,0%,0%);stroke-opacity:1;stroke-miterlimit:10;" d="M 421 402 L 401 402 L 401 412 L 421 412 L 421 432 L 431 432 L 431 412 L 451 412 L 451 402 L 431 402 L 431 382 L 421 382 L 421 402 "/>
</g>
</svg>
