<?xml version="1.0" encoding="UTF-8"?>
<svg xmlns="http://www.w3.org/2000/svg" xmlns:xlink="http://www.w3.org/1999/xlink" width="1129pt" height="517pt" viewBox="0 0 1129 517" version="1.1">
<g id="surface511">
<rect x="0" y="0" width="1129" height="517" style="fill:rgb(90%,90%,90%);fill-opacity:1;stroke:none;"/>
<path style="fill-rule:nonzero;fill:rgb(55%,51%,53%);fill-opacity:1;stroke-width:1;stroke-linecap:butt;stroke-linejoin:miter;stroke:rgb(0%,0%,0%);stroke-opacity:1;stroke-miterlimit:10;" d="M 293 84 L 322.664062 84 L 334.664062 55.785156 L 346.664062 84 L 376.332031 84 L 352.332031 101.4375 L 360.417969 132.980469 L 334.664062 115.542969 L 308.914062 132.980469 L 321.214844 101.4375 L 293 84 "/>
<path style="fill-rule:nonzero;fill:rgb(55%,51%,53%);fill-opacity:1;stroke-width:1;stroke-linecap:butt;stroke-linejoin:miter;stroke:rgb(0%,0%,0%);stroke-opacity:1;stroke-miterlimit:10;" d="M 948 359 L 977.664062 359 L 989.664062 330.785156 L 1001.664062 359 L 1031.332031 359 L 1007.332031 376.4375 L 1015.417969 407.980469 L 989.664062 390.542969 L 963.914062 407.980469 L 976.214844 376.4375 L 948 359 "/>
<path style="fill-rule:nonzero;fill:rgb(55%,51%,53%);fill-opacity:1;stroke-width:1;stroke-linecap:butt;stroke-linejoin:miter;stroke:rgb(0%,0%,0%);stroke-opacity:1;stroke-miterlimit:10;" d="M 172 159 L 201.664062 159 L 213.664062 130.785156 L 225.664062 159 L 255.332031 159 L 231.332031 176.4375 L 239.417969 207.980469 L 213.664062 190.542969 L 187.914062 207.980469 L 200.214844 176.4375 L 172 159 "/>
<path style="fill-rule:nonzero;fill:rgb(55%,51%,53%);fill-opacity:1;stroke-width:1;stroke-linecap:butt;stroke-linejoin:miter;stroke:rgb(0%,0%,0%);stroke-opacity:1;stroke-miterlimit:10;" d="M 797 102 L 826.664062 102 L 838.664062 73.785156 L 850.664062 102 L 880.332031 102 L 856.332031 119.4375 L 864.417969 150.980469 L 838.664062 133.542969 L 812.914062 150.980469 L 825.214844 119.4375 L 797 102 "/>
<path style="fill-rule:nonzero;fill:rgb(55%,51%,53%);fill-opacity:1;stroke-width:1;stroke-linecap:butt;stroke-linejoin:miter;stroke:rgb(0%,0%,0%);stroke-opacity:1;stroke-miterlimit:10;" d="M 886 56 L 915.664062 56 L 927.664062 27.785156 L 939.664062 56 L 969.332031 56 L 945.332031 73.4375 L 953.417969 104.980469 L 927.664062 87.542969 L 901.914062 104.980469 L 914.214844 73.4375 L 886 56 "/>
<path style="fill-rule:nonzero;fill:rgb(55%,51%,53%);fill-opacity:1;stroke-width:1;stroke-linecap:butt;stroke-linejoin:miter;stroke:rgb(0%,0%,0%);stroke-opacity:1;stroke-miterlimit:10;" d="M 668 287 L 697.664062 287 L 709.664062 258.785156 L 721.664062 287 L 751.332031 287 L 727.332031 304.4375 L 735.417969 335.980469 L 709.664062 318.542969 L 683.914062 335.980469 L 696.214844 304.4375 L 668 287 "/>
<path style="fill-rule:nonzero;fill:rgb(53%,27%,7%);fill-opacity:1;stroke-width:1;stroke-linecap:butt;stroke-linejoin:miter;stroke:rgb(0%,0%,0%);stroke-opacity:1;stroke-miterlimit:10;" d="M 297.214844 221 C 297.214844 232.714844 287.714844 242.214844 276 242.214844 C 264.285156 242.214844 254.785156 232.714844 254.785156 221 C 254.785156 209.285156 264.285156 199.785156 276 199.785156 C 287.714844 199.785156 297.214844 209.285156 297.214844 221 "/>
<path style="fill-rule:nonzero;fill:rgb(53%,27%,7%);fill-opacity:1;stroke-width:1;stroke-linecap:butt;stroke-linejoin:miter;stroke:rgb(0%,0%,0%);stroke-opacity:1;stroke-miterlimit:10;" d="M 669.214844 196 C 669.214844 207.714844 659.714844 217.214844 648 217.214844 C 636.285156 217.214844 626.785156 207.714844 626.785156 196 C 626.785156 184.285156 636.285156 174.785156 648 174.785156 C 659.714844 174.785156 669.214844 184.285156 669.214844 196 "/>
<path style="fill-rule:nonzero;fill:rgb(53%,27%,7%);fill-opacity:1;stroke-width:1;stroke-linecap:butt;stroke-linejoin:miter;stroke:rgb(0%,0%,0%);stroke-opacity:1;stroke-miterlimit:10;" d="M 481.214844 368 C 481.214844 379.714844 471.714844 389.214844 460 389.214844 C 448.285156 389.214844 438.785156 379.714844 438.785156 368 C 438.785156 356.285156 448.285156 346.785156 460 346.785156 C 471.714844 346.785156 481.214844 356.285156 481.214844 368 "/>
<path style="fill-rule:nonzero;fill:rgb(53%,27%,7%);fill-opacity:1;stroke-width:1;stroke-linecap:butt;stroke-linejoin:miter;stroke:rgb(0%,0%,0%);stroke-opacity:1;stroke-miterlimit:10;" d="M 313.214844 362 C 313.214844 373.714844 303.714844 383.214844 292 383.214844 C 280.285156 383.214844 270.785156 373.714844 270.785156 362 C 270.785156 350.285156 280.285156 340.785156 292 340.785156 C 303.714844 340.785156 313.214844 350.285156 313.214844 362 "/>
</g>
</svg>
