<?xml version="1.0" encoding="UTF-8"?>
<svg xmlns="http://www.w3.org/2000/svg" xmlns:xlink="http://www.w3.org/1999/xlink" width="1129pt" height="517pt" viewBox="0 0 1129 517" version="1.1">
<g id="surface756">
<rect x="0" y="0" width="1129" height="517" style="fill:rgb(90%,90%,90%);fill-opacity:1;stroke:none;"/>
<path style="fill-rule:nonzero;fill:rgb(100%,0%,0%);fill-opacity:1;stroke-width:1;stroke-linecap:butt;stroke-linejoin:miter;stroke:rgb(0%,0%,0%);stroke-opacity:1;stroke-miterlimit:10;" d="M 299 119.601562 C 299 105.199219 275 105.199219 275 119.601562 C 275 134 299 136.398438 299 148.398438 C 299 136.398438 323 134 323 119.601562 C 323 105.199219 299 105.199219 299 119.601562 "/>
<path style="fill-rule:nonzero;fill:rgb(100%,0%,0%);fill-opacity:1;stroke-width:1;stroke-linecap:butt;stroke-linejoin:miter;stroke:rgb(0%,0%,0%);stroke-opacity:1;stroke-miterlimit:10;" d="M 425 405.601562 C 425 391.199219 401 391.199219 401 405.601562 C 401 420 425 422.398438 425 434.398438 C 425 422.398438 449 420 449 405.601562 C 449 391.199219 425 391.199219 425 405.601562 "/>
<path style="fill-rule:nonzero;fill:rgb(100%,0%,0%);fill-opacity:1;stroke-width:1;stroke-linecap:butt;stroke-linejoin:miter;stroke:rgb(0%,0%,0%);stroke-opacity:1;stroke-miterlimit:10;" d="M 318 360.601562 C 318 346.199219 294 346.199219 294 360.601562 C 294 375 318 377.398438 318 389.398438 C 318 377.398438 342 375 342 360.601562 C 342 346.199219 318 346.199219 318 360.601562 "/>
<path style="fill-rule:nonzero;fill:rgb(100%,0%,0%);fill-opacity:1;stroke-width:1;stroke-linecap:butt;stroke-linejoin:miter;stroke:rgb(0%,0%,0%);stroke-opacity:1;stroke-miterlimit:10;" d="M 658 118.601562 C 658 104.199219 634 104.199219 634 118.601562 C 634 133 658 135.398438 658 147.398438 C 658 135.398438 682 133 682 118.601562 C 682 104.199219 658 104.199219 658 118.601562 "/>
<path style="fill-rule:nonzero;fill:rgb(100%,0%,0%);fill-opacity:1;stroke-width:1;stroke-linecap:butt;stroke-linejoin:miter;stroke:rgb(0%,0%,0%);stroke-opacity:1;stroke-miterlimit:10;" d="M 901 127.601562 C 901 113.199219 877 113.199219 877 127.601562 C 877 142 901 144.398438 901 156.398438 C 901 144.398438 925 142 925 127.601562 C 925 113.199219 901 113.199219 901 127.601562 "/>
<path style="fill-rule:nonzero;fill:rgb(0%,0%,0%);fill-opacity:1;stroke-width:1;stroke-linecap:butt;stroke-linejoin:miter;stroke:rgb(0%,0%,0%);stroke-opacity:1;stroke-miterlimit:10;" d="M 743 335 L 723 335 L 723 345 L 743 345 L 743 365 L 753 365 L 753 345 L 773 345 L 773 335 L 753 335 L 753 315 L 743 315 L 743 335 "/>
<path style="fill-rule:nonzero;fill:rgb(0%,0%,0%);fill-opacity:1;stroke-width:1;stroke-linecap:butt;stroke-linejoin:miter;stroke:rgb(0%,0%,0%);stroke-opacity:1;stroke-miterlimit:10;" d="M 720 222 L 700 222 L 700 232 L 720 232 L 720 252 L 730 252 L 730 232 L 750 232 L 750 222 L 730 222 L 730 202 L 720 202 L 720 222 "/>
<path style="fill-rule:nonzero;fill:rgb(0%,0%,0%);fill-opacity:1;stroke-width:1;stroke-linecap:butt;stroke-linejoin:miter;stroke:rgb(0%,0%,0%);stroke-opacity:1;stroke-miterlimit:10;" d="M 881 341 L 861 341 L 861 351 L 881 351 L 881 371 L 891 371 L 891 351 L 911 351 L 911 341 L 891 341 L 891 321 L 881 321 L 881 341 "/>
<path style="fill-rule:nonzero;fill:rgb(0%,0%,0%);fill-opacity:1;stroke-width:1;stroke-linecap:butt;stroke-linejoin:miter;stroke:rgb(0%,0%,0%);stroke-opacity:1;stroke-miterlimit:10;" d="M 91 178 L 71 178 L 71 188 L 91 188 L 91 208 L 101 208 L 101 188 L 121 188 L 121 178 L 101 178 L 101 158 L 91 158 L 91 178 "/>
<path style="fill-rule:nonzero;fill:rgb(0%,0%,0%);fill-opacity:1;stroke-width:1;stroke-linecap:butt;stroke-linejoin:miter;stroke:rgb(0%,0%,0%);stroke-opacity:1;stroke-miterlimit:10;" d="M 183 133 L 163 133 L 163 143 L 183 143 L 183 163 L 193 163 L 193 143 L 213 143 L 213 133 L 193 133 L 193 113 L 183 113 L 183 133 "/>
<path style="fill-rule:nonzero;fill:rgb(0%,0%,0%);fill-opacity:1;stroke-width:1;stroke-linecap:butt;stroke-linejoin:miter;stroke:rgb(0%,0%,0%);stroke-opacity:1;stroke-miterlimit:10;" d="M 118 295 L 98 295 L 98 305 L 118 305 L 118 325 L 128 325 L 128 305 L 148 305 L 148 295 L 128 295 L 128 275 L 118 275 L 118 295 "/>
</g>
</svg>
