<?xml version="1.0" encoding="UTF-8"?>
<svg xmlns="http://www.w3.org/2000/svg" xmlns:xlink="http://www.w3.org/1999/xlink" width="1179pt" height="517pt" viewBox="0 0 1179 517" version="1.1">
<g id="surface111">
<rect x="0" y="0" width="1179" height="517" style="fill:rgb(90%,90%,90%);fill-opacity:1;stroke:none;"/>
<path style="fill-rule:nonzero;fill:rgb(100%,51%,0%);fill-opacity:1;stroke-width:1;stroke-linecap:butt;stroke-linejoin:miter;stroke:rgb(0%,0%,0%);stroke-opacity:1;stroke-miterlimit:10;" d="M 144.214844 216 C 144.214844 227.714844 134.714844 237.214844 123 237.214844 C 111.285156 237.214844 101.785156 227.714844 101.785156 216 C 101.785156 204.285156 111.285156 194.785156 123 194.785156 C 134.714844 194.785156 144.214844 204.285156 144.214844 216 "/>
<path style="fill-rule:nonzero;fill:rgb(53%,27%,7%);fill-opacity:1;stroke-width:1;stroke-linecap:butt;stroke-linejoin:miter;stroke:rgb(0%,0%,0%);stroke-opacity:1;stroke-miterlimit:10;" d="M 154.214844 375 C 154.214844 386.714844 144.714844 396.214844 133 396.214844 C 121.285156 396.214844 111.785156 386.714844 111.785156 375 C 111.785156 363.285156 121.285156 353.785156 133 353.785156 C 144.714844 353.785156 154.214844 363.285156 154.214844 375 "/>
<path style="fill-rule:nonzero;fill:rgb(100%,51%,0%);fill-opacity:1;stroke-width:1;stroke-linecap:butt;stroke-linejoin:miter;stroke:rgb(0%,0%,0%);stroke-opacity:1;stroke-miterlimit:10;" d="M 144.214844 110 C 144.214844 121.714844 134.714844 131.214844 123 131.214844 C 111.285156 131.214844 101.785156 121.714844 101.785156 110 C 101.785156 98.285156 111.285156 88.785156 123 88.785156 C 134.714844 88.785156 144.214844 98.285156 144.214844 110 "/>
<path style="fill-rule:nonzero;fill:rgb(53%,27%,7%);fill-opacity:1;stroke-width:1;stroke-linecap:butt;stroke-linejoin:miter;stroke:rgb(0%,0%,0%);stroke-opacity:1;stroke-miterlimit:10;" d="M 393.214844 165 C 393.214844 176.714844 383.714844 186.214844 372 186.214844 C 360.285156 186.214844 350.785156 176.714844 350.785156 165 C 350.785156 153.285156 360.285156 143.785156 372 143.785156 C 383.714844 143.785156 393.214844 153.285156 393.214844 165 "/>
<path style="fill-rule:nonzero;fill:rgb(100%,51%,0%);fill-opacity:1;stroke-width:1;stroke-linecap:butt;stroke-linejoin:miter;stroke:rgb(0%,0%,0%);stroke-opacity:1;stroke-miterlimit:10;" d="M 223.214844 276 C 223.214844 287.714844 213.714844 297.214844 202 297.214844 C 190.285156 297.214844 180.785156 287.714844 180.785156 276 C 180.785156 264.285156 190.285156 254.785156 202 254.785156 C 213.714844 254.785156 223.214844 264.285156 223.214844 276 "/>
<path style="fill-rule:nonzero;fill:rgb(100%,51%,0%);fill-opacity:1;stroke-width:1;stroke-linecap:butt;stroke-linejoin:miter;stroke:rgb(0%,0%,0%);stroke-opacity:1;stroke-miterlimit:10;" d="M 252.214844 141 C 252.214844 152.714844 242.714844 162.214844 231 162.214844 C 219.285156 162.214844 209.785156 152.714844 209.785156 141 C 209.785156 129.285156 219.285156 119.785156 231 119.785156 C 242.714844 119.785156 252.214844 129.285156 252.214844 141 "/>
<path style="fill-rule:nonzero;fill:rgb(100%,51%,0%);fill-opacity:1;stroke-width:1;stroke-linecap:butt;stroke-linejoin:miter;stroke:rgb(0%,0%,0%);stroke-opacity:1;stroke-miterlimit:10;" d="M 368.214844 276 C 368.214844 287.714844 358.714844 297.214844 347 297.214844 C 335.285156 297.214844 325.785156 287.714844 325.785156 276 C 325.785156 264.285156 335.285156 254.785156 347 254.785156 C 358.714844 254.785156 368.214844 264.285156 368.214844 276 "/>
<path style="fill-rule:nonzero;fill:rgb(53%,27%,7%);fill-opacity:1;stroke-width:1;stroke-linecap:butt;stroke-linejoin:miter;stroke:rgb(0%,0%,0%);stroke-opacity:1;stroke-miterlimit:10;" d="M 802.785156 158.785156 L 802.785156 201.214844 L 845.214844 201.214844 L 845.214844 158.785156 L 802.785156 158.785156 "/>
<path style="fill-rule:nonzero;fill:rgb(100%,51%,0%);fill-opacity:1;stroke-width:1;stroke-linecap:butt;stroke-linejoin:miter;stroke:rgb(0%,0%,0%);stroke-opacity:1;stroke-miterlimit:10;" d="M 711.785156 354.785156 L 711.785156 397.214844 L 754.214844 397.214844 L 754.214844 354.785156 L 711.785156 354.785156 "/>
<path style="fill-rule:nonzero;fill:rgb(53%,27%,7%);fill-opacity:1;stroke-width:1;stroke-linecap:butt;stroke-linejoin:miter;stroke:rgb(0%,0%,0%);stroke-opacity:1;stroke-miterlimit:10;" d="M 707.785156 177.785156 L 707.785156 220.214844 L 750.214844 220.214844 L 750.214844 177.785156 L 707.785156 177.785156 "/>
<path style="fill-rule:nonzero;fill:rgb(100%,51%,0%);fill-opacity:1;stroke-width:1;stroke-linecap:butt;stroke-linejoin:miter;stroke:rgb(0%,0%,0%);stroke-opacity:1;stroke-miterlimit:10;" d="M 913.785156 216.785156 L 913.785156 259.214844 L 956.214844 259.214844 L 956.214844 216.785156 L 913.785156 216.785156 "/>
<path style="fill-rule:nonzero;fill:rgb(53%,27%,7%);fill-opacity:1;stroke-width:1;stroke-linecap:butt;stroke-linejoin:miter;stroke:rgb(0%,0%,0%);stroke-opacity:1;stroke-miterlimit:10;" d="M 1002.785156 301.785156 L 1002.785156 344.214844 L 1045.214844 344.214844 L 1045.214844 301.785156 L 1002.785156 301.785156 "/>
<path style="fill-rule:nonzero;fill:rgb(53%,27%,7%);fill-opacity:1;stroke-width:1;stroke-linecap:butt;stroke-linejoin:miter;stroke:rgb(0%,0%,0%);stroke-opacity:1;stroke-miterlimit:10;" d="M 829.785156 283.785156 L 829.785156 326.214844 L 872.214844 326.214844 L 872.214844 283.785156 L 829.785156 283.785156 "/>
</g>
</svg>
