<?xml version="1.0" encoding="UTF-8"?>
<svg xmlns="http://www.w3.org/2000/svg" xmlns:xlink="http://www.w3.org/1999/xlink" width="1129pt" height="517pt" viewBox="0 0 1129 517" version="1.1">
<g id="surface671">
<rect x="0" y="0" width="1129" height="517" style="fill:rgb(90%,90%,90%);fill-opacity:1;stroke:none;"/>
<path style="fill-rule:nonzero;fill:rgb(100%,51%,0%);fill-opacity:1;stroke-width:1;stroke-linecap:butt;stroke-linejoin:miter;stroke:rgb(0%,0%,0%);stroke-opacity:1;stroke-miterlimit:10;" d="M 418 205 L 447.664062 205 L 459.664062 176.785156 L 471.664062 205 L 501.332031 205 L 477.332031 222.4375 L 485.417969 253.980469 L 459.664062 236.542969 L 433.914062 253.980469 L 446.214844 222.4375 L 418 205 "/>
<path style="fill-rule:nonzero;fill:rgb(100%,51%,0%);fill-opacity:1;stroke-width:1;stroke-linecap:butt;stroke-linejoin:miter;stroke:rgb(0%,0%,0%);stroke-opacity:1;stroke-miterlimit:10;" d="M 74 359 L 103.664062 359 L 115.664062 330.785156 L 127.664062 359 L 157.332031 359 L 133.332031 376.4375 L 141.417969 407.980469 L 115.664062 390.542969 L 89.914062 407.980469 L 102.214844 376.4375 L 74 359 "/>
<path style="fill-rule:nonzero;fill:rgb(100%,51%,0%);fill-opacity:1;stroke-width:1;stroke-linecap:butt;stroke-linejoin:miter;stroke:rgb(0%,0%,0%);stroke-opacity:1;stroke-miterlimit:10;" d="M 201 201 L 230.664062 201 L 242.664062 172.785156 L 254.664062 201 L 284.332031 201 L 260.332031 218.4375 L 268.417969 249.980469 L 242.664062 232.542969 L 216.914062 249.980469 L 229.214844 218.4375 L 201 201 "/>
<path style="fill-rule:nonzero;fill:rgb(55%,51%,53%);fill-opacity:1;stroke-width:1;stroke-linecap:butt;stroke-linejoin:miter;stroke:rgb(0%,0%,0%);stroke-opacity:1;stroke-miterlimit:10;" d="M 318 174 L 347.664062 174 L 359.664062 145.785156 L 371.664062 174 L 401.332031 174 L 377.332031 191.4375 L 385.417969 222.980469 L 359.664062 205.542969 L 333.914062 222.980469 L 346.214844 191.4375 L 318 174 "/>
<path style="fill-rule:nonzero;fill:rgb(55%,51%,53%);fill-opacity:1;stroke-width:1;stroke-linecap:butt;stroke-linejoin:miter;stroke:rgb(0%,0%,0%);stroke-opacity:1;stroke-miterlimit:10;" d="M 637.785156 251.785156 L 637.785156 294.214844 L 680.214844 294.214844 L 680.214844 251.785156 L 637.785156 251.785156 "/>
<path style="fill-rule:nonzero;fill:rgb(55%,51%,53%);fill-opacity:1;stroke-width:1;stroke-linecap:butt;stroke-linejoin:miter;stroke:rgb(0%,0%,0%);stroke-opacity:1;stroke-miterlimit:10;" d="M 921.785156 74.785156 L 921.785156 117.214844 L 964.214844 117.214844 L 964.214844 74.785156 L 921.785156 74.785156 "/>
<path style="fill-rule:nonzero;fill:rgb(55%,51%,53%);fill-opacity:1;stroke-width:1;stroke-linecap:butt;stroke-linejoin:miter;stroke:rgb(0%,0%,0%);stroke-opacity:1;stroke-miterlimit:10;" d="M 875.785156 301.785156 L 875.785156 344.214844 L 918.214844 344.214844 L 918.214844 301.785156 L 875.785156 301.785156 "/>
<path style="fill-rule:nonzero;fill:rgb(100%,51%,0%);fill-opacity:1;stroke-width:1;stroke-linecap:butt;stroke-linejoin:miter;stroke:rgb(0%,0%,0%);stroke-opacity:1;stroke-miterlimit:10;" d="M 759.785156 224.785156 L 759.785156 267.214844 L 802.214844 267.214844 L 802.214844 224.785156 L 759.785156 224.785156 "/>
<path style="fill-rule:nonzero;fill:rgb(55%,51%,53%);fill-opacity:1;stroke-width:1;stroke-linecap:butt;stroke-linejoin:miter;stroke:rgb(0%,0%,0%);stroke-opacity:1;stroke-miterlimit:10;" d="M 706.785156 136.785156 L 706.785156 179.214844 L 749.214844 179.214844 L 749.214844 136.785156 L 706.785156 136.785156 "/>
</g>
</svg>
