<?xml version="1.0" encoding="UTF-8"?>
<svg xmlns="http://www.w3.org/2000/svg" xmlns:xlink="http://www.w3.org/1999/xlink" width="1129pt" height="517pt" viewBox="0 0 1129 517" version="1.1">
<g id="surface201">
<rect x="0" y="0" width="1129" height="517" style="fill:rgb(90%,90%,90%);fill-opacity:1;stroke:none;"/>
<path style="fill-rule:nonzero;fill:rgb(35%,70%,90%);fill-opacity:1;stroke-width:1;stroke-linecap:butt;stroke-linejoin:miter;stroke:rgb(0%,0%,0%);stroke-opacity:1;stroke-miterlimit:10;" d="M 71.214844 455 C 71.214844 466.714844 61.714844 476.214844 50 476.214844 C 38.285156 476.214844 28.785156 466.714844 28.785156 455 C 28.785156 443.285156 38.285156 433.785156 50 433.785156 C 61.714844 433.785156 71.214844 443.285156 71.214844 455 "/>
<path style="fill-rule:nonzero;fill:rgb(35%,70%,90%);fill-opacity:1;stroke-width:1;stroke-linecap:butt;stroke-linejoin:miter;stroke:rgb(0%,0%,0%);stroke-opacity:1;stroke-miterlimit:10;" d="M 241.785156 377.785156 L 241.785156 420.214844 L 284.214844 420.214844 L 284.214844 377.785156 L 241.785156 377.785156 "/>
<path style="fill-rule:nonzero;fill:rgb(35%,70%,90%);fill-opacity:1;stroke-width:1;stroke-linecap:butt;stroke-linejoin:miter;stroke:rgb(0%,0%,0%);stroke-opacity:1;stroke-miterlimit:10;" d="M 122.214844 146 C 122.214844 157.714844 112.714844 167.214844 101 167.214844 C 89.285156 167.214844 79.785156 157.714844 79.785156 146 C 79.785156 134.285156 89.285156 124.785156 101 124.785156 C 112.714844 124.785156 122.214844 134.285156 122.214844 146 "/>
<path style="fill-rule:nonzero;fill:rgb(35%,70%,90%);fill-opacity:1;stroke-width:1;stroke-linecap:butt;stroke-linejoin:miter;stroke:rgb(0%,0%,0%);stroke-opacity:1;stroke-miterlimit:10;" d="M 55.785156 287.785156 L 55.785156 330.214844 L 98.214844 330.214844 L 98.214844 287.785156 L 55.785156 287.785156 "/>
<path style="fill-rule:nonzero;fill:rgb(35%,70%,90%);fill-opacity:1;stroke-width:1;stroke-linecap:butt;stroke-linejoin:miter;stroke:rgb(0%,0%,0%);stroke-opacity:1;stroke-miterlimit:10;" d="M 321.214844 281 C 321.214844 292.714844 311.714844 302.214844 300 302.214844 C 288.285156 302.214844 278.785156 292.714844 278.785156 281 C 278.785156 269.285156 288.285156 259.785156 300 259.785156 C 311.714844 259.785156 321.214844 269.285156 321.214844 281 "/>
<path style="fill-rule:nonzero;fill:rgb(35%,70%,90%);fill-opacity:1;stroke-width:1;stroke-linecap:butt;stroke-linejoin:miter;stroke:rgb(0%,0%,0%);stroke-opacity:1;stroke-miterlimit:10;" d="M 416.214844 258 C 416.214844 269.714844 406.714844 279.214844 395 279.214844 C 383.285156 279.214844 373.785156 269.714844 373.785156 258 C 373.785156 246.285156 383.285156 236.785156 395 236.785156 C 406.714844 236.785156 416.214844 246.285156 416.214844 258 "/>
<path style="fill-rule:nonzero;fill:rgb(35%,70%,90%);fill-opacity:1;stroke-width:1;stroke-linecap:butt;stroke-linejoin:miter;stroke:rgb(0%,0%,0%);stroke-opacity:1;stroke-miterlimit:10;" d="M 379.214844 108 C 379.214844 119.714844 369.714844 129.214844 358 129.214844 C 346.285156 129.214844 336.785156 119.714844 336.785156 108 C 336.785156 96.285156 346.285156 86.785156 358 86.785156 C 369.714844 86.785156 379.214844 96.285156 379.214844 108 "/>
<path style="fill-rule:nonzero;fill:rgb(35%,70%,90%);fill-opacity:1;stroke-width:1;stroke-linecap:butt;stroke-linejoin:miter;stroke:rgb(0%,0%,0%);stroke-opacity:1;stroke-miterlimit:10;" d="M 444.214844 431 C 444.214844 442.714844 434.714844 452.214844 423 452.214844 C 411.285156 452.214844 401.785156 442.714844 401.785156 431 C 401.785156 419.285156 411.285156 409.785156 423 409.785156 C 434.714844 409.785156 444.214844 419.285156 444.214844 431 "/>
<path style="fill-rule:nonzero;fill:rgb(100%,51%,0%);fill-opacity:1;stroke-width:1;stroke-linecap:butt;stroke-linejoin:miter;stroke:rgb(0%,0%,0%);stroke-opacity:1;stroke-miterlimit:10;" d="M 675.785156 209.785156 L 675.785156 252.214844 L 718.214844 252.214844 L 718.214844 209.785156 L 675.785156 209.785156 "/>
<path style="fill-rule:nonzero;fill:rgb(100%,51%,0%);fill-opacity:1;stroke-width:1;stroke-linecap:butt;stroke-linejoin:miter;stroke:rgb(0%,0%,0%);stroke-opacity:1;stroke-miterlimit:10;" d="M 828.214844 365 C 828.214844 376.714844 818.714844 386.214844 807 386.214844 C 795.285156 386.214844 785.785156 376.714844 785.785156 365 C 785.785156 353.285156 795.285156 343.785156 807 343.785156 C 818.714844 343.785156 828.214844 353.285156 828.214844 365 "/>
<path style="fill-rule:nonzero;fill:rgb(100%,51%,0%);fill-opacity:1;stroke-width:1;stroke-linecap:butt;stroke-linejoin:miter;stroke:rgb(0%,0%,0%);stroke-opacity:1;stroke-miterlimit:10;" d="M 833.785156 251.785156 L 833.785156 294.214844 L 876.214844 294.214844 L 876.214844 251.785156 L 833.785156 251.785156 "/>
<path style="fill-rule:nonzero;fill:rgb(100%,51%,0%);fill-opacity:1;stroke-width:1;stroke-linecap:butt;stroke-linejoin:miter;stroke:rgb(0%,0%,0%);stroke-opacity:1;stroke-miterlimit:10;" d="M 1035.214844 264 C 1035.214844 275.714844 1025.714844 285.214844 1014 285.214844 C 1002.285156 285.214844 992.785156 275.714844 992.785156 264 C 992.785156 252.285156 1002.285156 242.785156 1014 242.785156 C 1025.714844 242.785156 1035.214844 252.285156 1035.214844 264 "/>
<path style="fill-rule:nonzero;fill:rgb(100%,51%,0%);fill-opacity:1;stroke-width:1;stroke-linecap:butt;stroke-linejoin:miter;stroke:rgb(0%,0%,0%);stroke-opacity:1;stroke-miterlimit:10;" d="M 845.785156 132.785156 L 845.785156 175.214844 L 888.214844 175.214844 L 888.214844 132.785156 L 845.785156 132.785156 "/>
<path style="fill-rule:nonzero;fill:rgb(100%,51%,0%);fill-opacity:1;stroke-width:1;stroke-linecap:butt;stroke-linejoin:miter;stroke:rgb(0%,0%,0%);stroke-opacity:1;stroke-miterlimit:10;" d="M 620.785156 388.785156 L 620.785156 431.214844 L 663.214844 431.214844 L 663.214844 388.785156 L 620.785156 388.785156 "/>
<path style="fill-rule:nonzero;fill:rgb(100%,51%,0%);fill-opacity:1;stroke-width:1;stroke-linecap:butt;stroke-linejoin:miter;stroke:rgb(0%,0%,0%);stroke-opacity:1;stroke-miterlimit:10;" d="M 736.785156 135.785156 L 736.785156 178.214844 L 779.214844 178.214844 L 779.214844 135.785156 L 736.785156 135.785156 "/>
</g>
</svg>
