<?xml version="1.0" encoding="UTF-8"?>
<svg xmlns="http://www.w3.org/2000/svg" xmlns:xlink="http://www.w3.org/1999/xlink" width="1129pt" height="517pt" viewBox="0 0 1129 517" version="1.1">
<g id="surface821">
<rect x="0" y="0" width="1129" height="517" style="fill:rgb(90%,90%,90%);fill-opacity:1;stroke:none;"/>
<path style="fill-rule:nonzero;fill:rgb(35%,70%,90%);fill-opacity:1;stroke-width:1;stroke-linecap:butt;stroke-linejoin:miter;stroke:rgb(0%,0%,0%);stroke-opacity:1;stroke-miterlimit:10;" d="M 170 434 L 199.664062 434 L 211.664062 405.785156 L 223.664062 434 L 253.332031 434 L 229.332031 451.4375 L 237.417969 482.980469 L 211.664062 465.542969 L 185.914062 482.980469 L 198.214844 451.4375 L 170 434 "/>
<path style="fill-rule:nonzero;fill:rgb(35%,70%,90%);fill-opacity:1;stroke-width:1;stroke-linecap:butt;stroke-linejoin:miter;stroke:rgb(0%,0%,0%);stroke-opacity:1;stroke-miterlimit:10;" d="M 332 387 L 361.664062 387 L 373.664062 358.785156 L 385.664062 387 L 415.332031 387 L 391.332031 404.4375 L 399.417969 435.980469 L 373.664062 418.542969 L 347.914062 435.980469 L 360.214844 404.4375 L 332 387 "/>
<path style="fill-rule:nonzero;fill:rgb(35%,70%,90%);fill-opacity:1;stroke-width:1;stroke-linecap:butt;stroke-linejoin:miter;stroke:rgb(0%,0%,0%);stroke-opacity:1;stroke-miterlimit:10;" d="M 601 257 L 630.664062 257 L 642.664062 228.785156 L 654.664062 257 L 684.332031 257 L 660.332031 274.4375 L 668.417969 305.980469 L 642.664062 288.542969 L 616.914062 305.980469 L 629.214844 274.4375 L 601 257 "/>
<path style="fill-rule:nonzero;fill:rgb(35%,70%,90%);fill-opacity:1;stroke-width:1;stroke-linecap:butt;stroke-linejoin:miter;stroke:rgb(0%,0%,0%);stroke-opacity:1;stroke-miterlimit:10;" d="M 140 53 L 169.664062 53 L 181.664062 24.785156 L 193.664062 53 L 223.332031 53 L 199.332031 70.4375 L 207.417969 101.980469 L 181.664062 84.542969 L 155.914062 101.980469 L 168.214844 70.4375 L 140 53 "/>
<path style="fill-rule:nonzero;fill:rgb(35%,70%,90%);fill-opacity:1;stroke-width:1;stroke-linecap:butt;stroke-linejoin:miter;stroke:rgb(0%,0%,0%);stroke-opacity:1;stroke-miterlimit:10;" d="M 491 304 L 520.664062 304 L 532.664062 275.785156 L 544.664062 304 L 574.332031 304 L 550.332031 321.4375 L 558.417969 352.980469 L 532.664062 335.542969 L 506.914062 352.980469 L 519.214844 321.4375 L 491 304 "/>
<path style="fill-rule:nonzero;fill:rgb(35%,70%,90%);fill-opacity:1;stroke-width:1;stroke-linecap:butt;stroke-linejoin:miter;stroke:rgb(0%,0%,0%);stroke-opacity:1;stroke-miterlimit:10;" d="M 861 371 L 890.664062 371 L 902.664062 342.785156 L 914.664062 371 L 944.332031 371 L 920.332031 388.4375 L 928.417969 419.980469 L 902.664062 402.542969 L 876.914062 419.980469 L 889.214844 388.4375 L 861 371 "/>
<path style="fill-rule:nonzero;fill:rgb(55%,51%,53%);fill-opacity:1;stroke-width:1;stroke-linecap:butt;stroke-linejoin:miter;stroke:rgb(0%,0%,0%);stroke-opacity:1;stroke-miterlimit:10;" d="M 217.214844 277 C 217.214844 288.714844 207.714844 298.214844 196 298.214844 C 184.285156 298.214844 174.785156 288.714844 174.785156 277 C 174.785156 265.285156 184.285156 255.785156 196 255.785156 C 207.714844 255.785156 217.214844 265.285156 217.214844 277 "/>
<path style="fill-rule:nonzero;fill:rgb(55%,51%,53%);fill-opacity:1;stroke-width:1;stroke-linecap:butt;stroke-linejoin:miter;stroke:rgb(0%,0%,0%);stroke-opacity:1;stroke-miterlimit:10;" d="M 867.214844 236 C 867.214844 247.714844 857.714844 257.214844 846 257.214844 C 834.285156 257.214844 824.785156 247.714844 824.785156 236 C 824.785156 224.285156 834.285156 214.785156 846 214.785156 C 857.714844 214.785156 867.214844 224.285156 867.214844 236 "/>
<path style="fill-rule:nonzero;fill:rgb(55%,51%,53%);fill-opacity:1;stroke-width:1;stroke-linecap:butt;stroke-linejoin:miter;stroke:rgb(0%,0%,0%);stroke-opacity:1;stroke-miterlimit:10;" d="M 989.214844 146 C 989.214844 157.714844 979.714844 167.214844 968 167.214844 C 956.285156 167.214844 946.785156 157.714844 946.785156 146 C 946.785156 134.285156 956.285156 124.785156 968 124.785156 C 979.714844 124.785156 989.214844 134.285156 989.214844 146 "/>
<path style="fill-rule:nonzero;fill:rgb(55%,51%,53%);fill-opacity:1;stroke-width:1;stroke-linecap:butt;stroke-linejoin:miter;stroke:rgb(0%,0%,0%);stroke-opacity:1;stroke-miterlimit:10;" d="M 527.214844 164 C 527.214844 175.714844 517.714844 185.214844 506 185.214844 C 494.285156 185.214844 484.785156 175.714844 484.785156 164 C 484.785156 152.285156 494.285156 142.785156 506 142.785156 C 517.714844 142.785156 527.214844 152.285156 527.214844 164 "/>
<path style="fill-rule:nonzero;fill:rgb(55%,51%,53%);fill-opacity:1;stroke-width:1;stroke-linecap:butt;stroke-linejoin:miter;stroke:rgb(0%,0%,0%);stroke-opacity:1;stroke-miterlimit:10;" d="M 82.214844 222 C 82.214844 233.714844 72.714844 243.214844 61 243.214844 C 49.285156 243.214844 39.785156 233.714844 39.785156 222 C 39.785156 210.285156 49.285156 200.785156 61 200.785156 C 72.714844 200.785156 82.214844 210.285156 82.214844 222 "/>
<path style="fill-rule:nonzero;fill:rgb(55%,51%,53%);fill-opacity:1;stroke-width:1;stroke-linecap:butt;stroke-linejoin:miter;stroke:rgb(0%,0%,0%);stroke-opacity:1;stroke-miterlimit:10;" d="M 683.214844 340 C 683.214844 351.714844 673.714844 361.214844 662 361.214844 C 650.285156 361.214844 640.785156 351.714844 640.785156 340 C 640.785156 328.285156 650.285156 318.785156 662 318.785156 C 673.714844 318.785156 683.214844 328.285156 683.214844 340 "/>
<path style="fill-rule:nonzero;fill:rgb(55%,51%,53%);fill-opacity:1;stroke-width:1;stroke-linecap:butt;stroke-linejoin:miter;stroke:rgb(0%,0%,0%);stroke-opacity:1;stroke-miterlimit:10;" d="M 779.214844 54 C 779.214844 65.714844 769.714844 75.214844 758 75.214844 C 746.285156 75.214844 736.785156 65.714844 736.785156 54 C 736.785156 42.285156 746.285156 32.785156 758 32.785156 C 769.714844 32.785156 779.214844 42.285156 779.214844 54 "/>
<path style="fill-rule:nonzero;fill:rgb(55%,51%,53%);fill-opacity:1;stroke-width:1;stroke-linecap:butt;stroke-linejoin:miter;stroke:rgb(0%,0%,0%);stroke-opacity:1;stroke-miterlimit:10;" d="M 621.214844 412 C 621.214844 423.714844 611.714844 433.214844 600 433.214844 C 588.285156 433.214844 578.785156 423.714844 578.785156 412 C 578.785156 400.285156 588.285156 390.785156 600 390.785156 C 611.714844 390.785156 621.214844 400.285156 621.214844 412 "/>
</g>
</svg>
