<?xml version="1.0" encoding="UTF-8"?>
<svg xmlns="http://www.w3.org/2000/svg" xmlns:xlink="http://www.w3.org/1999/xlink" width="1129pt" height="517pt" viewBox="0 0 1129 517" version="1.1">
<g id="surface636">
<rect x="0" y="0" width="1129" height="517" style="fill:rgb(90%,90%,90%);fill-opacity:1;stroke:none;"/>
<path style="fill-rule:nonzero;fill:rgb(100%,51%,0%);fill-opacity:1;stroke-width:1;stroke-linecap:butt;stroke-linejoin:miter;stroke:rgb(0%,0%,0%);stroke-opacity:1;stroke-miterlimit:10;" d="M 746 272 L 775.664062 272 L 787.664062 243.785156 L 799.664062 272 L 829.332031 272 L 805.332031 289.4375 L 813.417969 320.980469 L 787.664062 303.542969 L 761.914062 320.980469 L 774.214844 289.4375 L 746 272 "/>
<path style="fill-rule:nonzero;fill:rgb(100%,51%,0%);fill-opacity:1;stroke-width:1;stroke-linecap:butt;stroke-linejoin:miter;stroke:rgb(0%,0%,0%);stroke-opacity:1;stroke-miterlimit:10;" d="M 229 178 L 258.664062 178 L 270.664062 149.785156 L 282.664062 178 L 312.332031 178 L 288.332031 195.4375 L 296.417969 226.980469 L 270.664062 209.542969 L 244.914062 226.980469 L 257.214844 195.4375 L 229 178 "/>
<path style="fill-rule:nonzero;fill:rgb(100%,51%,0%);fill-opacity:1;stroke-width:1;stroke-linecap:butt;stroke-linejoin:miter;stroke:rgb(0%,0%,0%);stroke-opacity:1;stroke-miterlimit:10;" d="M 404 165 L 433.664062 165 L 445.664062 136.785156 L 457.664062 165 L 487.332031 165 L 463.332031 182.4375 L 471.417969 213.980469 L 445.664062 196.542969 L 419.914062 213.980469 L 432.214844 182.4375 L 404 165 "/>
<path style="fill-rule:nonzero;fill:rgb(100%,51%,0%);fill-opacity:1;stroke-width:1;stroke-linecap:butt;stroke-linejoin:miter;stroke:rgb(0%,0%,0%);stroke-opacity:1;stroke-miterlimit:10;" d="M 469 289 L 498.664062 289 L 510.664062 260.785156 L 522.664062 289 L 552.332031 289 L 528.332031 306.4375 L 536.417969 337.980469 L 510.664062 320.542969 L 484.914062 337.980469 L 497.214844 306.4375 L 469 289 "/>
<path style="fill-rule:nonzero;fill:rgb(100%,51%,0%);fill-opacity:1;stroke-width:1;stroke-linecap:butt;stroke-linejoin:miter;stroke:rgb(0%,0%,0%);stroke-opacity:1;stroke-miterlimit:10;" d="M 571 426 L 600.664062 426 L 612.664062 397.785156 L 624.664062 426 L 654.332031 426 L 630.332031 443.4375 L 638.417969 474.980469 L 612.664062 457.542969 L 586.914062 474.980469 L 599.214844 443.4375 L 571 426 "/>
<path style="fill-rule:nonzero;fill:rgb(100%,51%,0%);fill-opacity:1;stroke-width:1;stroke-linecap:butt;stroke-linejoin:miter;stroke:rgb(0%,0%,0%);stroke-opacity:1;stroke-miterlimit:10;" d="M 936 328 L 965.664062 328 L 977.664062 299.785156 L 989.664062 328 L 1019.332031 328 L 995.332031 345.4375 L 1003.417969 376.980469 L 977.664062 359.542969 L 951.914062 376.980469 L 964.214844 345.4375 L 936 328 "/>
<path style="fill-rule:nonzero;fill:rgb(53%,27%,7%);fill-opacity:1;stroke-width:1;stroke-linecap:butt;stroke-linejoin:miter;stroke:rgb(0%,0%,0%);stroke-opacity:1;stroke-miterlimit:10;" d="M 948 420 L 922.019531 465 L 973.980469 465 L 948 420 "/>
<path style="fill-rule:nonzero;fill:rgb(53%,27%,7%);fill-opacity:1;stroke-width:1;stroke-linecap:butt;stroke-linejoin:miter;stroke:rgb(0%,0%,0%);stroke-opacity:1;stroke-miterlimit:10;" d="M 784 61 L 758.019531 106 L 809.980469 106 L 784 61 "/>
<path style="fill-rule:nonzero;fill:rgb(53%,27%,7%);fill-opacity:1;stroke-width:1;stroke-linecap:butt;stroke-linejoin:miter;stroke:rgb(0%,0%,0%);stroke-opacity:1;stroke-miterlimit:10;" d="M 587 214 L 561.019531 259 L 612.980469 259 L 587 214 "/>
<path style="fill-rule:nonzero;fill:rgb(53%,27%,7%);fill-opacity:1;stroke-width:1;stroke-linecap:butt;stroke-linejoin:miter;stroke:rgb(0%,0%,0%);stroke-opacity:1;stroke-miterlimit:10;" d="M 245 310 L 219.019531 355 L 270.980469 355 L 245 310 "/>
<path style="fill-rule:nonzero;fill:rgb(53%,27%,7%);fill-opacity:1;stroke-width:1;stroke-linecap:butt;stroke-linejoin:miter;stroke:rgb(0%,0%,0%);stroke-opacity:1;stroke-miterlimit:10;" d="M 931 52 L 905.019531 97 L 956.980469 97 L 931 52 "/>
<path style="fill-rule:nonzero;fill:rgb(53%,27%,7%);fill-opacity:1;stroke-width:1;stroke-linecap:butt;stroke-linejoin:miter;stroke:rgb(0%,0%,0%);stroke-opacity:1;stroke-miterlimit:10;" d="M 646 331 L 620.019531 376 L 671.980469 376 L 646 331 "/>
<path style="fill-rule:nonzero;fill:rgb(53%,27%,7%);fill-opacity:1;stroke-width:1;stroke-linecap:butt;stroke-linejoin:miter;stroke:rgb(0%,0%,0%);stroke-opacity:1;stroke-miterlimit:10;" d="M 723 401 L 697.019531 446 L 748.980469 446 L 723 401 "/>
<path style="fill-rule:nonzero;fill:rgb(53%,27%,7%);fill-opacity:1;stroke-width:1;stroke-linecap:butt;stroke-linejoin:miter;stroke:rgb(0%,0%,0%);stroke-opacity:1;stroke-miterlimit:10;" d="M 853 214 L 827.019531 259 L 878.980469 259 L 853 214 "/>
</g>
</svg>
