<?xml version="1.0" encoding="UTF-8"?>
<svg xmlns="http://www.w3.org/2000/svg" xmlns:xlink="http://www.w3.org/1999/xlink" width="1129pt" height="517pt" viewBox="0 0 1129 517" version="1.1">
<g id="surface986">
<rect x="0" y="0" width="1129" height="517" style="fill:rgb(90%,90%,90%);fill-opacity:1;stroke:none;"/>
<path style="fill-rule:nonzero;fill:rgb(53%,27%,7%);fill-opacity:1;stroke-width:1;stroke-linecap:butt;stroke-linejoin:miter;stroke:rgb(0%,0%,0%);stroke-opacity:1;stroke-miterlimit:10;" d="M 105 154.601562 C 105 140.199219 81 140.199219 81 154.601562 C 81 169 105 171.398438 105 183.398438 C 105 171.398438 129 169 129 154.601562 C 129 140.199219 105 140.199219 105 154.601562 "/>
<path style="fill-rule:nonzero;fill:rgb(53%,27%,7%);fill-opacity:1;stroke-width:1;stroke-linecap:butt;stroke-linejoin:miter;stroke:rgb(0%,0%,0%);stroke-opacity:1;stroke-miterlimit:10;" d="M 391.214844 243 C 391.214844 254.714844 381.714844 264.214844 370 264.214844 C 358.285156 264.214844 348.785156 254.714844 348.785156 243 C 348.785156 231.285156 358.285156 221.785156 370 221.785156 C 381.714844 221.785156 391.214844 231.285156 391.214844 243 "/>
<path style="fill-rule:nonzero;fill:rgb(53%,27%,7%);fill-opacity:1;stroke-width:1;stroke-linecap:butt;stroke-linejoin:miter;stroke:rgb(0%,0%,0%);stroke-opacity:1;stroke-miterlimit:10;" d="M 394 44.601562 C 394 30.199219 370 30.199219 370 44.601562 C 370 59 394 61.398438 394 73.398438 C 394 61.398438 418 59 418 44.601562 C 418 30.199219 394 30.199219 394 44.601562 "/>
<path style="fill-rule:nonzero;fill:rgb(53%,27%,7%);fill-opacity:1;stroke-width:1;stroke-linecap:butt;stroke-linejoin:miter;stroke:rgb(0%,0%,0%);stroke-opacity:1;stroke-miterlimit:10;" d="M 229.214844 453 C 229.214844 464.714844 219.714844 474.214844 208 474.214844 C 196.285156 474.214844 186.785156 464.714844 186.785156 453 C 186.785156 441.285156 196.285156 431.785156 208 431.785156 C 219.714844 431.785156 229.214844 441.285156 229.214844 453 "/>
<path style="fill-rule:nonzero;fill:rgb(53%,27%,7%);fill-opacity:1;stroke-width:1;stroke-linecap:butt;stroke-linejoin:miter;stroke:rgb(0%,0%,0%);stroke-opacity:1;stroke-miterlimit:10;" d="M 291 279.601562 C 291 265.199219 267 265.199219 267 279.601562 C 267 294 291 296.398438 291 308.398438 C 291 296.398438 315 294 315 279.601562 C 315 265.199219 291 265.199219 291 279.601562 "/>
<path style="fill-rule:nonzero;fill:rgb(53%,27%,7%);fill-opacity:1;stroke-width:1;stroke-linecap:butt;stroke-linejoin:miter;stroke:rgb(0%,0%,0%);stroke-opacity:1;stroke-miterlimit:10;" d="M 180 223.601562 C 180 209.199219 156 209.199219 156 223.601562 C 156 238 180 240.398438 180 252.398438 C 180 240.398438 204 238 204 223.601562 C 204 209.199219 180 209.199219 180 223.601562 "/>
<path style="fill-rule:nonzero;fill:rgb(53%,27%,7%);fill-opacity:1;stroke-width:1;stroke-linecap:butt;stroke-linejoin:miter;stroke:rgb(0%,0%,0%);stroke-opacity:1;stroke-miterlimit:10;" d="M 440 404.601562 C 440 390.199219 416 390.199219 416 404.601562 C 416 419 440 421.398438 440 433.398438 C 440 421.398438 464 419 464 404.601562 C 464 390.199219 440 390.199219 440 404.601562 "/>
<path style="fill-rule:nonzero;fill:rgb(53%,27%,7%);fill-opacity:1;stroke-width:1;stroke-linecap:butt;stroke-linejoin:miter;stroke:rgb(0%,0%,0%);stroke-opacity:1;stroke-miterlimit:10;" d="M 236 119.601562 C 236 105.199219 212 105.199219 212 119.601562 C 212 134 236 136.398438 236 148.398438 C 236 136.398438 260 134 260 119.601562 C 260 105.199219 236 105.199219 236 119.601562 "/>
<path style="fill-rule:nonzero;fill:rgb(100%,51%,0%);fill-opacity:1;stroke-width:1;stroke-linecap:butt;stroke-linejoin:miter;stroke:rgb(0%,0%,0%);stroke-opacity:1;stroke-miterlimit:10;" d="M 964.214844 269 C 964.214844 280.714844 954.714844 290.214844 943 290.214844 C 931.285156 290.214844 921.785156 280.714844 921.785156 269 C 921.785156 257.285156 931.285156 247.785156 943 247.785156 C 954.714844 247.785156 964.214844 257.285156 964.214844 269 "/>
<path style="fill-rule:nonzero;fill:rgb(100%,51%,0%);fill-opacity:1;stroke-width:1;stroke-linecap:butt;stroke-linejoin:miter;stroke:rgb(0%,0%,0%);stroke-opacity:1;stroke-miterlimit:10;" d="M 669 280.601562 C 669 266.199219 645 266.199219 645 280.601562 C 645 295 669 297.398438 669 309.398438 C 669 297.398438 693 295 693 280.601562 C 693 266.199219 669 266.199219 669 280.601562 "/>
<path style="fill-rule:nonzero;fill:rgb(100%,51%,0%);fill-opacity:1;stroke-width:1;stroke-linecap:butt;stroke-linejoin:miter;stroke:rgb(0%,0%,0%);stroke-opacity:1;stroke-miterlimit:10;" d="M 824.214844 135 C 824.214844 146.714844 814.714844 156.214844 803 156.214844 C 791.285156 156.214844 781.785156 146.714844 781.785156 135 C 781.785156 123.285156 791.285156 113.785156 803 113.785156 C 814.714844 113.785156 824.214844 123.285156 824.214844 135 "/>
<path style="fill-rule:nonzero;fill:rgb(100%,51%,0%);fill-opacity:1;stroke-width:1;stroke-linecap:butt;stroke-linejoin:miter;stroke:rgb(0%,0%,0%);stroke-opacity:1;stroke-miterlimit:10;" d="M 735 384.601562 C 735 370.199219 711 370.199219 711 384.601562 C 711 399 735 401.398438 735 413.398438 C 735 401.398438 759 399 759 384.601562 C 759 370.199219 735 370.199219 735 384.601562 "/>
<path style="fill-rule:nonzero;fill:rgb(100%,51%,0%);fill-opacity:1;stroke-width:1;stroke-linecap:butt;stroke-linejoin:miter;stroke:rgb(0%,0%,0%);stroke-opacity:1;stroke-miterlimit:10;" d="M 982.214844 148 C 982.214844 159.714844 972.714844 169.214844 961 169.214844 C 949.285156 169.214844 939.785156 159.714844 939.785156 148 C 939.785156 136.285156 949.285156 126.785156 961 126.785156 C 972.714844 126.785156 982.214844 136.285156 982.214844 148 "/>
<path style="fill-rule:nonzero;fill:rgb(100%,51%,0%);fill-opacity:1;stroke-width:1;stroke-linecap:butt;stroke-linejoin:miter;stroke:rgb(0%,0%,0%);stroke-opacity:1;stroke-miterlimit:10;" d="M 742.214844 206 C 742.214844 217.714844 732.714844 227.214844 721 227.214844 C 709.285156 227.214844 699.785156 217.714844 699.785156 206 C 699.785156 194.285156 709.285156 184.785156 721 184.785156 C 732.714844 184.785156 742.214844 194.285156 742.214844 206 "/>
<path style="fill-rule:nonzero;fill:rgb(100%,51%,0%);fill-opacity:1;stroke-width:1;stroke-linecap:butt;stroke-linejoin:miter;stroke:rgb(0%,0%,0%);stroke-opacity:1;stroke-miterlimit:10;" d="M 753.214844 56 C 753.214844 67.714844 743.714844 77.214844 732 77.214844 C 720.285156 77.214844 710.785156 67.714844 710.785156 56 C 710.785156 44.285156 720.285156 34.785156 732 34.785156 C 743.714844 34.785156 753.214844 44.285156 753.214844 56 "/>
<path style="fill-rule:nonzero;fill:rgb(100%,51%,0%);fill-opacity:1;stroke-width:1;stroke-linecap:butt;stroke-linejoin:miter;stroke:rgb(0%,0%,0%);stroke-opacity:1;stroke-miterlimit:10;" d="M 900.214844 421 C 900.214844 432.714844 890.714844 442.214844 879 442.214844 C 867.285156 442.214844 857.785156 432.714844 857.785156 421 C 857.785156 409.285156 867.285156 399.785156 879 399.785156 C 890.714844 399.785156 900.214844 409.285156 900.214844 421 "/>
</g>
</svg>
