<?xml version="1.0" encoding="UTF-8"?>
<svg xmlns="http://www.w3.org/2000/svg" xmlns:xlink="http://www.w3.org/1999/xlink" width="1129pt" height="517pt" viewBox="0 0 1129 517" version="1.1">
<g id="surface571">
<rect x="0" y="0" width="1129" height="517" style="fill:rgb(90%,90%,90%);fill-opacity:1;stroke:none;"/>
<path style="fill-rule:nonzero;fill:rgb(35%,70%,90%);fill-opacity:1;stroke-width:1;stroke-linecap:butt;stroke-linejoin:miter;stroke:rgb(0%,0%,0%);stroke-opacity:1;stroke-miterlimit:10;" d="M 401 108 L 430.664062 108 L 442.664062 79.785156 L 454.664062 108 L 484.332031 108 L 460.332031 125.4375 L 468.417969 156.980469 L 442.664062 139.542969 L 416.914062 156.980469 L 429.214844 125.4375 L 401 108 "/>
<path style="fill-rule:nonzero;fill:rgb(35%,70%,90%);fill-opacity:1;stroke-width:1;stroke-linecap:butt;stroke-linejoin:miter;stroke:rgb(0%,0%,0%);stroke-opacity:1;stroke-miterlimit:10;" d="M 395 256 L 424.664062 256 L 436.664062 227.785156 L 448.664062 256 L 478.332031 256 L 454.332031 273.4375 L 462.417969 304.980469 L 436.664062 287.542969 L 410.914062 304.980469 L 423.214844 273.4375 L 395 256 "/>
<path style="fill-rule:nonzero;fill:rgb(35%,70%,90%);fill-opacity:1;stroke-width:1;stroke-linecap:butt;stroke-linejoin:miter;stroke:rgb(0%,0%,0%);stroke-opacity:1;stroke-miterlimit:10;" d="M 300 287 L 329.664062 287 L 341.664062 258.785156 L 353.664062 287 L 383.332031 287 L 359.332031 304.4375 L 367.417969 335.980469 L 341.664062 318.542969 L 315.914062 335.980469 L 328.214844 304.4375 L 300 287 "/>
<path style="fill-rule:nonzero;fill:rgb(35%,70%,90%);fill-opacity:1;stroke-width:1;stroke-linecap:butt;stroke-linejoin:miter;stroke:rgb(0%,0%,0%);stroke-opacity:1;stroke-miterlimit:10;" d="M 203 333 L 232.664062 333 L 244.664062 304.785156 L 256.664062 333 L 286.332031 333 L 262.332031 350.4375 L 270.417969 381.980469 L 244.664062 364.542969 L 218.914062 381.980469 L 231.214844 350.4375 L 203 333 "/>
<path style="fill-rule:nonzero;fill:rgb(35%,70%,90%);fill-opacity:1;stroke-width:1;stroke-linecap:butt;stroke-linejoin:miter;stroke:rgb(0%,0%,0%);stroke-opacity:1;stroke-miterlimit:10;" d="M 816 170 L 845.664062 170 L 857.664062 141.785156 L 869.664062 170 L 899.332031 170 L 875.332031 187.4375 L 883.417969 218.980469 L 857.664062 201.542969 L 831.914062 218.980469 L 844.214844 187.4375 L 816 170 "/>
<path style="fill-rule:nonzero;fill:rgb(53%,27%,7%);fill-opacity:1;stroke-width:1;stroke-linecap:butt;stroke-linejoin:miter;stroke:rgb(0%,0%,0%);stroke-opacity:1;stroke-miterlimit:10;" d="M 158.214844 208 C 158.214844 219.714844 148.714844 229.214844 137 229.214844 C 125.285156 229.214844 115.785156 219.714844 115.785156 208 C 115.785156 196.285156 125.285156 186.785156 137 186.785156 C 148.714844 186.785156 158.214844 196.285156 158.214844 208 "/>
<path style="fill-rule:nonzero;fill:rgb(53%,27%,7%);fill-opacity:1;stroke-width:1;stroke-linecap:butt;stroke-linejoin:miter;stroke:rgb(0%,0%,0%);stroke-opacity:1;stroke-miterlimit:10;" d="M 691.214844 308 C 691.214844 319.714844 681.714844 329.214844 670 329.214844 C 658.285156 329.214844 648.785156 319.714844 648.785156 308 C 648.785156 296.285156 658.285156 286.785156 670 286.785156 C 681.714844 286.785156 691.214844 296.285156 691.214844 308 "/>
<path style="fill-rule:nonzero;fill:rgb(53%,27%,7%);fill-opacity:1;stroke-width:1;stroke-linecap:butt;stroke-linejoin:miter;stroke:rgb(0%,0%,0%);stroke-opacity:1;stroke-miterlimit:10;" d="M 558.214844 272 C 558.214844 283.714844 548.714844 293.214844 537 293.214844 C 525.285156 293.214844 515.785156 283.714844 515.785156 272 C 515.785156 260.285156 525.285156 250.785156 537 250.785156 C 548.714844 250.785156 558.214844 260.285156 558.214844 272 "/>
<path style="fill-rule:nonzero;fill:rgb(53%,27%,7%);fill-opacity:1;stroke-width:1;stroke-linecap:butt;stroke-linejoin:miter;stroke:rgb(0%,0%,0%);stroke-opacity:1;stroke-miterlimit:10;" d="M 762.214844 392 C 762.214844 403.714844 752.714844 413.214844 741 413.214844 C 729.285156 413.214844 719.785156 403.714844 719.785156 392 C 719.785156 380.285156 729.285156 370.785156 741 370.785156 C 752.714844 370.785156 762.214844 380.285156 762.214844 392 "/>
<path style="fill-rule:nonzero;fill:rgb(53%,27%,7%);fill-opacity:1;stroke-width:1;stroke-linecap:butt;stroke-linejoin:miter;stroke:rgb(0%,0%,0%);stroke-opacity:1;stroke-miterlimit:10;" d="M 944.214844 202 C 944.214844 213.714844 934.714844 223.214844 923 223.214844 C 911.285156 223.214844 901.785156 213.714844 901.785156 202 C 901.785156 190.285156 911.285156 180.785156 923 180.785156 C 934.714844 180.785156 944.214844 190.285156 944.214844 202 "/>
<path style="fill-rule:nonzero;fill:rgb(53%,27%,7%);fill-opacity:1;stroke-width:1;stroke-linecap:butt;stroke-linejoin:miter;stroke:rgb(0%,0%,0%);stroke-opacity:1;stroke-miterlimit:10;" d="M 908.214844 62 C 908.214844 73.714844 898.714844 83.214844 887 83.214844 C 875.285156 83.214844 865.785156 73.714844 865.785156 62 C 865.785156 50.285156 875.285156 40.785156 887 40.785156 C 898.714844 40.785156 908.214844 50.285156 908.214844 62 "/>
<path style="fill-rule:nonzero;fill:rgb(53%,27%,7%);fill-opacity:1;stroke-width:1;stroke-linecap:butt;stroke-linejoin:miter;stroke:rgb(0%,0%,0%);stroke-opacity:1;stroke-miterlimit:10;" d="M 879.214844 452 C 879.214844 463.714844 869.714844 473.214844 858 473.214844 C 846.285156 473.214844 836.785156 463.714844 836.785156 452 C 836.785156 440.285156 846.285156 430.785156 858 430.785156 C 869.714844 430.785156 879.214844 440.285156 879.214844 452 "/>
</g>
</svg>
