<?xml version="1.0" encoding="UTF-8"?>
<svg xmlns="http://www.w3.org/2000/svg" xmlns:xlink="http://www.w3.org/1999/xlink" width="1129pt" height="517pt" viewBox="0 0 1129 517" version="1.1">
<g id="surface281">
<rect x="0" y="0" width="1129" height="517" style="fill:rgb(90%,90%,90%);fill-opacity:1;stroke:none;"/>
<path style="fill-rule:nonzero;fill:rgb(100%,51%,0%);fill-opacity:1;stroke-width:1;stroke-linecap:butt;stroke-linejoin:miter;stroke:rgb(0%,0%,0%);stroke-opacity:1;stroke-miterlimit:10;" d="M 158 144 L 187.664062 144 L 199.664062 115.785156 L 211.664062 144 L 241.332031 144 L 217.332031 161.4375 L 225.417969 192.980469 L 199.664062 175.542969 L 173.914062 192.980469 L 186.214844 161.4375 L 158 144 "/>
<path style="fill-rule:nonzero;fill:rgb(100%,51%,0%);fill-opacity:1;stroke-width:1;stroke-linecap:butt;stroke-linejoin:miter;stroke:rgb(0%,0%,0%);stroke-opacity:1;stroke-miterlimit:10;" d="M 194 257 L 223.664062 257 L 235.664062 228.785156 L 247.664062 257 L 277.332031 257 L 253.332031 274.4375 L 261.417969 305.980469 L 235.664062 288.542969 L 209.914062 305.980469 L 222.214844 274.4375 L 194 257 "/>
<path style="fill-rule:nonzero;fill:rgb(100%,51%,0%);fill-opacity:1;stroke-width:1;stroke-linecap:butt;stroke-linejoin:miter;stroke:rgb(0%,0%,0%);stroke-opacity:1;stroke-miterlimit:10;" d="M 276 415 L 305.664062 415 L 317.664062 386.785156 L 329.664062 415 L 359.332031 415 L 335.332031 432.4375 L 343.417969 463.980469 L 317.664062 446.542969 L 291.914062 463.980469 L 304.214844 432.4375 L 276 415 "/>
<path style="fill-rule:nonzero;fill:rgb(53%,27%,7%);fill-opacity:1;stroke-width:1;stroke-linecap:butt;stroke-linejoin:miter;stroke:rgb(0%,0%,0%);stroke-opacity:1;stroke-miterlimit:10;" d="M 324 103 L 353.664062 103 L 365.664062 74.785156 L 377.664062 103 L 407.332031 103 L 383.332031 120.4375 L 391.417969 151.980469 L 365.664062 134.542969 L 339.914062 151.980469 L 352.214844 120.4375 L 324 103 "/>
<path style="fill-rule:nonzero;fill:rgb(100%,51%,0%);fill-opacity:1;stroke-width:1;stroke-linecap:butt;stroke-linejoin:miter;stroke:rgb(0%,0%,0%);stroke-opacity:1;stroke-miterlimit:10;" d="M 325 290 L 354.664062 290 L 366.664062 261.785156 L 378.664062 290 L 408.332031 290 L 384.332031 307.4375 L 392.417969 338.980469 L 366.664062 321.542969 L 340.914062 338.980469 L 353.214844 307.4375 L 325 290 "/>
<path style="fill-rule:nonzero;fill:rgb(100%,51%,0%);fill-opacity:1;stroke-width:1;stroke-linecap:butt;stroke-linejoin:miter;stroke:rgb(0%,0%,0%);stroke-opacity:1;stroke-miterlimit:10;" d="M 438 282 L 467.664062 282 L 479.664062 253.785156 L 491.664062 282 L 521.332031 282 L 497.332031 299.4375 L 505.417969 330.980469 L 479.664062 313.542969 L 453.914062 330.980469 L 466.214844 299.4375 L 438 282 "/>
<path style="fill-rule:nonzero;fill:rgb(100%,51%,0%);fill-opacity:1;stroke-width:1;stroke-linecap:butt;stroke-linejoin:miter;stroke:rgb(0%,0%,0%);stroke-opacity:1;stroke-miterlimit:10;" d="M 274 184 L 303.664062 184 L 315.664062 155.785156 L 327.664062 184 L 357.332031 184 L 333.332031 201.4375 L 341.417969 232.980469 L 315.664062 215.542969 L 289.914062 232.980469 L 302.214844 201.4375 L 274 184 "/>
<path style="fill-rule:nonzero;fill:rgb(100%,51%,0%);fill-opacity:1;stroke-width:1;stroke-linecap:butt;stroke-linejoin:miter;stroke:rgb(0%,0%,0%);stroke-opacity:1;stroke-miterlimit:10;" d="M 226 59 L 255.664062 59 L 267.664062 30.785156 L 279.664062 59 L 309.332031 59 L 285.332031 76.4375 L 293.417969 107.980469 L 267.664062 90.542969 L 241.914062 107.980469 L 254.214844 76.4375 L 226 59 "/>
<path style="fill-rule:nonzero;fill:rgb(53%,27%,7%);fill-opacity:1;stroke-width:1;stroke-linecap:butt;stroke-linejoin:miter;stroke:rgb(0%,0%,0%);stroke-opacity:1;stroke-miterlimit:10;" d="M 704.785156 263.785156 L 704.785156 306.214844 L 747.214844 306.214844 L 747.214844 263.785156 L 704.785156 263.785156 "/>
<path style="fill-rule:nonzero;fill:rgb(53%,27%,7%);fill-opacity:1;stroke-width:1;stroke-linecap:butt;stroke-linejoin:miter;stroke:rgb(0%,0%,0%);stroke-opacity:1;stroke-miterlimit:10;" d="M 659.785156 91.785156 L 659.785156 134.214844 L 702.214844 134.214844 L 702.214844 91.785156 L 659.785156 91.785156 "/>
<path style="fill-rule:nonzero;fill:rgb(53%,27%,7%);fill-opacity:1;stroke-width:1;stroke-linecap:butt;stroke-linejoin:miter;stroke:rgb(0%,0%,0%);stroke-opacity:1;stroke-miterlimit:10;" d="M 872.785156 329.785156 L 872.785156 372.214844 L 915.214844 372.214844 L 915.214844 329.785156 L 872.785156 329.785156 "/>
<path style="fill-rule:nonzero;fill:rgb(100%,51%,0%);fill-opacity:1;stroke-width:1;stroke-linecap:butt;stroke-linejoin:miter;stroke:rgb(0%,0%,0%);stroke-opacity:1;stroke-miterlimit:10;" d="M 906.785156 195.785156 L 906.785156 238.214844 L 949.214844 238.214844 L 949.214844 195.785156 L 906.785156 195.785156 "/>
<path style="fill-rule:nonzero;fill:rgb(53%,27%,7%);fill-opacity:1;stroke-width:1;stroke-linecap:butt;stroke-linejoin:miter;stroke:rgb(0%,0%,0%);stroke-opacity:1;stroke-miterlimit:10;" d="M 684.785156 413.785156 L 684.785156 456.214844 L 727.214844 456.214844 L 727.214844 413.785156 L 684.785156 413.785156 "/>
<path style="fill-rule:nonzero;fill:rgb(53%,27%,7%);fill-opacity:1;stroke-width:1;stroke-linecap:butt;stroke-linejoin:miter;stroke:rgb(0%,0%,0%);stroke-opacity:1;stroke-miterlimit:10;" d="M 609.785156 343.785156 L 609.785156 386.214844 L 652.214844 386.214844 L 652.214844 343.785156 L 609.785156 343.785156 "/>
<path style="fill-rule:nonzero;fill:rgb(53%,27%,7%);fill-opacity:1;stroke-width:1;stroke-linecap:butt;stroke-linejoin:miter;stroke:rgb(0%,0%,0%);stroke-opacity:1;stroke-miterlimit:10;" d="M 957.785156 424.785156 L 957.785156 467.214844 L 1000.214844 467.214844 L 1000.214844 424.785156 L 957.785156 424.785156 "/>
</g>
</svg>
