<?xml version="1.0" encoding="UTF-8"?>
<svg xmlns="http://www.w3.org/2000/svg" xmlns:xlink="http://www.w3.org/1999/xlink" width="1129pt" height="517pt" viewBox="0 0 1129 517" version="1.1">
<g id="surface346">
<rect x="0" y="0" width="1129" height="517" style="fill:rgb(90%,90%,90%);fill-opacity:1;stroke:none;"/>
<path style="fill-rule:nonzero;fill:rgb(55%,51%,53%);fill-opacity:1;stroke-width:1;stroke-linecap:butt;stroke-linejoin:miter;stroke:rgb(0%,0%,0%);stroke-opacity:1;stroke-miterlimit:10;" d="M 465.214844 289 C 465.214844 300.714844 455.714844 310.214844 444 310.214844 C 432.285156 310.214844 422.785156 300.714844 422.785156 289 C 422.785156 277.285156 432.285156 267.785156 444 267.785156 C 455.714844 267.785156 465.214844 277.285156 465.214844 289 "/>
<path style="fill-rule:nonzero;fill:rgb(53%,27%,7%);fill-opacity:1;stroke-width:1;stroke-linecap:butt;stroke-linejoin:miter;stroke:rgb(0%,0%,0%);stroke-opacity:1;stroke-miterlimit:10;" d="M 430.214844 142 C 430.214844 153.714844 420.714844 163.214844 409 163.214844 C 397.285156 163.214844 387.785156 153.714844 387.785156 142 C 387.785156 130.285156 397.285156 120.785156 409 120.785156 C 420.714844 120.785156 430.214844 130.285156 430.214844 142 "/>
<path style="fill-rule:nonzero;fill:rgb(55%,51%,53%);fill-opacity:1;stroke-width:1;stroke-linecap:butt;stroke-linejoin:miter;stroke:rgb(0%,0%,0%);stroke-opacity:1;stroke-miterlimit:10;" d="M 176.214844 308 C 176.214844 319.714844 166.714844 329.214844 155 329.214844 C 143.285156 329.214844 133.785156 319.714844 133.785156 308 C 133.785156 296.285156 143.285156 286.785156 155 286.785156 C 166.714844 286.785156 176.214844 296.285156 176.214844 308 "/>
<path style="fill-rule:nonzero;fill:rgb(53%,27%,7%);fill-opacity:1;stroke-width:1;stroke-linecap:butt;stroke-linejoin:miter;stroke:rgb(0%,0%,0%);stroke-opacity:1;stroke-miterlimit:10;" d="M 318.214844 273 C 318.214844 284.714844 308.714844 294.214844 297 294.214844 C 285.285156 294.214844 275.785156 284.714844 275.785156 273 C 275.785156 261.285156 285.285156 251.785156 297 251.785156 C 308.714844 251.785156 318.214844 261.285156 318.214844 273 "/>
<path style="fill-rule:nonzero;fill:rgb(55%,51%,53%);fill-opacity:1;stroke-width:1;stroke-linecap:butt;stroke-linejoin:miter;stroke:rgb(0%,0%,0%);stroke-opacity:1;stroke-miterlimit:10;" d="M 307.214844 382 C 307.214844 393.714844 297.714844 403.214844 286 403.214844 C 274.285156 403.214844 264.785156 393.714844 264.785156 382 C 264.785156 370.285156 274.285156 360.785156 286 360.785156 C 297.714844 360.785156 307.214844 370.285156 307.214844 382 "/>
<path style="fill-rule:nonzero;fill:rgb(55%,51%,53%);fill-opacity:1;stroke-width:1;stroke-linecap:butt;stroke-linejoin:miter;stroke:rgb(0%,0%,0%);stroke-opacity:1;stroke-miterlimit:10;" d="M 458.214844 413 C 458.214844 424.714844 448.714844 434.214844 437 434.214844 C 425.285156 434.214844 415.785156 424.714844 415.785156 413 C 415.785156 401.285156 425.285156 391.785156 437 391.785156 C 448.714844 391.785156 458.214844 401.285156 458.214844 413 "/>
<path style="fill-rule:nonzero;fill:rgb(55%,51%,53%);fill-opacity:1;stroke-width:1;stroke-linecap:butt;stroke-linejoin:miter;stroke:rgb(0%,0%,0%);stroke-opacity:1;stroke-miterlimit:10;" d="M 107.214844 50 C 107.214844 61.714844 97.714844 71.214844 86 71.214844 C 74.285156 71.214844 64.785156 61.714844 64.785156 50 C 64.785156 38.285156 74.285156 28.785156 86 28.785156 C 97.714844 28.785156 107.214844 38.285156 107.214844 50 "/>
<path style="fill-rule:nonzero;fill:rgb(55%,51%,53%);fill-opacity:1;stroke-width:1;stroke-linecap:butt;stroke-linejoin:miter;stroke:rgb(0%,0%,0%);stroke-opacity:1;stroke-miterlimit:10;" d="M 178.214844 127 C 178.214844 138.714844 168.714844 148.214844 157 148.214844 C 145.285156 148.214844 135.785156 138.714844 135.785156 127 C 135.785156 115.285156 145.285156 105.785156 157 105.785156 C 168.714844 105.785156 178.214844 115.285156 178.214844 127 "/>
<path style="fill-rule:nonzero;fill:rgb(53%,27%,7%);fill-opacity:1;stroke-width:1;stroke-linecap:butt;stroke-linejoin:miter;stroke:rgb(0%,0%,0%);stroke-opacity:1;stroke-miterlimit:10;" d="M 1015 149 L 989.019531 194 L 1040.980469 194 L 1015 149 "/>
<path style="fill-rule:nonzero;fill:rgb(55%,51%,53%);fill-opacity:1;stroke-width:1;stroke-linecap:butt;stroke-linejoin:miter;stroke:rgb(0%,0%,0%);stroke-opacity:1;stroke-miterlimit:10;" d="M 614 313 L 588.019531 358 L 639.980469 358 L 614 313 "/>
<path style="fill-rule:nonzero;fill:rgb(53%,27%,7%);fill-opacity:1;stroke-width:1;stroke-linecap:butt;stroke-linejoin:miter;stroke:rgb(0%,0%,0%);stroke-opacity:1;stroke-miterlimit:10;" d="M 802 224 L 776.019531 269 L 827.980469 269 L 802 224 "/>
<path style="fill-rule:nonzero;fill:rgb(55%,51%,53%);fill-opacity:1;stroke-width:1;stroke-linecap:butt;stroke-linejoin:miter;stroke:rgb(0%,0%,0%);stroke-opacity:1;stroke-miterlimit:10;" d="M 674 390 L 648.019531 435 L 699.980469 435 L 674 390 "/>
</g>
</svg>
