<?xml version="1.0" encoding="UTF-8"?>
<svg xmlns="http://www.w3.org/2000/svg" xmlns:xlink="http://www.w3.org/1999/xlink" width="1129pt" height="517pt" viewBox="0 0 1129 517" version="1.1">
<g id="surface161">
<rect x="0" y="0" width="1129" height="517" style="fill:rgb(90%,90%,90%);fill-opacity:1;stroke:none;"/>
<path style="fill-rule:nonzero;fill:rgb(55%,51%,53%);fill-opacity:1;stroke-width:1;stroke-linecap:butt;stroke-linejoin:miter;stroke:rgb(0%,0%,0%);stroke-opacity:1;stroke-miterlimit:10;" d="M 52 449 L 81.664062 449 L 93.664062 420.785156 L 105.664062 449 L 135.332031 449 L 111.332031 466.4375 L 119.417969 497.980469 L 93.664062 480.542969 L 67.914062 497.980469 L 80.214844 466.4375 L 52 449 "/>
<path style="fill-rule:nonzero;fill:rgb(55%,51%,53%);fill-opacity:1;stroke-width:1;stroke-linecap:butt;stroke-linejoin:miter;stroke:rgb(0%,0%,0%);stroke-opacity:1;stroke-miterlimit:10;" d="M 224 209 L 253.664062 209 L 265.664062 180.785156 L 277.664062 209 L 307.332031 209 L 283.332031 226.4375 L 291.417969 257.980469 L 265.664062 240.542969 L 239.914062 257.980469 L 252.214844 226.4375 L 224 209 "/>
<path style="fill-rule:nonzero;fill:rgb(55%,51%,53%);fill-opacity:1;stroke-width:1;stroke-linecap:butt;stroke-linejoin:miter;stroke:rgb(0%,0%,0%);stroke-opacity:1;stroke-miterlimit:10;" d="M 69 158 L 98.664062 158 L 110.664062 129.785156 L 122.664062 158 L 152.332031 158 L 128.332031 175.4375 L 136.417969 206.980469 L 110.664062 189.542969 L 84.914062 206.980469 L 97.214844 175.4375 L 69 158 "/>
<path style="fill-rule:nonzero;fill:rgb(55%,51%,53%);fill-opacity:1;stroke-width:1;stroke-linecap:butt;stroke-linejoin:miter;stroke:rgb(0%,0%,0%);stroke-opacity:1;stroke-miterlimit:10;" d="M 236.785156 324.785156 L 236.785156 367.214844 L 279.214844 367.214844 L 279.214844 324.785156 L 236.785156 324.785156 "/>
<path style="fill-rule:nonzero;fill:rgb(55%,51%,53%);fill-opacity:1;stroke-width:1;stroke-linecap:butt;stroke-linejoin:miter;stroke:rgb(0%,0%,0%);stroke-opacity:1;stroke-miterlimit:10;" d="M 301 141 L 330.664062 141 L 342.664062 112.785156 L 354.664062 141 L 384.332031 141 L 360.332031 158.4375 L 368.417969 189.980469 L 342.664062 172.542969 L 316.914062 189.980469 L 329.214844 158.4375 L 301 141 "/>
<path style="fill-rule:nonzero;fill:rgb(55%,51%,53%);fill-opacity:1;stroke-width:1;stroke-linecap:butt;stroke-linejoin:miter;stroke:rgb(0%,0%,0%);stroke-opacity:1;stroke-miterlimit:10;" d="M 419 241 L 448.664062 241 L 460.664062 212.785156 L 472.664062 241 L 502.332031 241 L 478.332031 258.4375 L 486.417969 289.980469 L 460.664062 272.542969 L 434.914062 289.980469 L 447.214844 258.4375 L 419 241 "/>
<path style="fill-rule:nonzero;fill:rgb(55%,51%,53%);fill-opacity:1;stroke-width:1;stroke-linecap:butt;stroke-linejoin:miter;stroke:rgb(0%,0%,0%);stroke-opacity:1;stroke-miterlimit:10;" d="M 431 368 L 460.664062 368 L 472.664062 339.785156 L 484.664062 368 L 514.332031 368 L 490.332031 385.4375 L 498.417969 416.980469 L 472.664062 399.542969 L 446.914062 416.980469 L 459.214844 385.4375 L 431 368 "/>
<path style="fill-rule:nonzero;fill:rgb(55%,51%,53%);fill-opacity:1;stroke-width:1;stroke-linecap:butt;stroke-linejoin:miter;stroke:rgb(0%,0%,0%);stroke-opacity:1;stroke-miterlimit:10;" d="M 168 107 L 197.664062 107 L 209.664062 78.785156 L 221.664062 107 L 251.332031 107 L 227.332031 124.4375 L 235.417969 155.980469 L 209.664062 138.542969 L 183.914062 155.980469 L 196.214844 124.4375 L 168 107 "/>
<path style="fill-rule:nonzero;fill:rgb(53%,27%,7%);fill-opacity:1;stroke-width:1;stroke-linecap:butt;stroke-linejoin:miter;stroke:rgb(0%,0%,0%);stroke-opacity:1;stroke-miterlimit:10;" d="M 941.785156 41.785156 L 941.785156 84.214844 L 984.214844 84.214844 L 984.214844 41.785156 L 941.785156 41.785156 "/>
<path style="fill-rule:nonzero;fill:rgb(53%,27%,7%);fill-opacity:1;stroke-width:1;stroke-linecap:butt;stroke-linejoin:miter;stroke:rgb(0%,0%,0%);stroke-opacity:1;stroke-miterlimit:10;" d="M 861.785156 260.785156 L 861.785156 303.214844 L 904.214844 303.214844 L 904.214844 260.785156 L 861.785156 260.785156 "/>
<path style="fill-rule:nonzero;fill:rgb(53%,27%,7%);fill-opacity:1;stroke-width:1;stroke-linecap:butt;stroke-linejoin:miter;stroke:rgb(0%,0%,0%);stroke-opacity:1;stroke-miterlimit:10;" d="M 625.785156 193.785156 L 625.785156 236.214844 L 668.214844 236.214844 L 668.214844 193.785156 L 625.785156 193.785156 "/>
<path style="fill-rule:nonzero;fill:rgb(53%,27%,7%);fill-opacity:1;stroke-width:1;stroke-linecap:butt;stroke-linejoin:miter;stroke:rgb(0%,0%,0%);stroke-opacity:1;stroke-miterlimit:10;" d="M 667 304 L 696.664062 304 L 708.664062 275.785156 L 720.664062 304 L 750.332031 304 L 726.332031 321.4375 L 734.417969 352.980469 L 708.664062 335.542969 L 682.914062 352.980469 L 695.214844 321.4375 L 667 304 "/>
</g>
</svg>
