<?xml version="1.0" encoding="UTF-8"?>
<svg xmlns="http://www.w3.org/2000/svg" xmlns:xlink="http://www.w3.org/1999/xlink" width="1129pt" height="517pt" viewBox="0 0 1129 517" version="1.1">
<g id="surface886">
<rect x="0" y="0" width="1129" height="517" style="fill:rgb(90%,90%,90%);fill-opacity:1;stroke:none;"/>
<path style="fill-rule:nonzero;fill:rgb(55%,51%,53%);fill-opacity:1;stroke-width:1;stroke-linecap:butt;stroke-linejoin:miter;stroke:rgb(0%,0%,0%);stroke-opacity:1;stroke-miterlimit:10;" d="M 140.214844 72 C 140.214844 83.714844 130.714844 93.214844 119 93.214844 C 107.285156 93.214844 97.785156 83.714844 97.785156 72 C 97.785156 60.285156 107.285156 50.785156 119 50.785156 C 130.714844 50.785156 140.214844 60.285156 140.214844 72 "/>
<path style="fill-rule:nonzero;fill:rgb(55%,51%,53%);fill-opacity:1;stroke-width:1;stroke-linecap:butt;stroke-linejoin:miter;stroke:rgb(0%,0%,0%);stroke-opacity:1;stroke-miterlimit:10;" d="M 383.214844 67 C 383.214844 78.714844 373.714844 88.214844 362 88.214844 C 350.285156 88.214844 340.785156 78.714844 340.785156 67 C 340.785156 55.285156 350.285156 45.785156 362 45.785156 C 373.714844 45.785156 383.214844 55.285156 383.214844 67 "/>
<path style="fill-rule:nonzero;fill:rgb(67%,100%,18%);fill-opacity:1;stroke-width:1;stroke-linecap:butt;stroke-linejoin:miter;stroke:rgb(0%,0%,0%);stroke-opacity:1;stroke-miterlimit:10;" d="M 442.214844 184 C 442.214844 195.714844 432.714844 205.214844 421 205.214844 C 409.285156 205.214844 399.785156 195.714844 399.785156 184 C 399.785156 172.285156 409.285156 162.785156 421 162.785156 C 432.714844 162.785156 442.214844 172.285156 442.214844 184 "/>
<path style="fill-rule:nonzero;fill:rgb(55%,51%,53%);fill-opacity:1;stroke-width:1;stroke-linecap:butt;stroke-linejoin:miter;stroke:rgb(0%,0%,0%);stroke-opacity:1;stroke-miterlimit:10;" d="M 103.214844 380 C 103.214844 391.714844 93.714844 401.214844 82 401.214844 C 70.285156 401.214844 60.785156 391.714844 60.785156 380 C 60.785156 368.285156 70.285156 358.785156 82 358.785156 C 93.714844 358.785156 103.214844 368.285156 103.214844 380 "/>
<path style="fill-rule:nonzero;fill:rgb(55%,51%,53%);fill-opacity:1;stroke-width:1;stroke-linecap:butt;stroke-linejoin:miter;stroke:rgb(0%,0%,0%);stroke-opacity:1;stroke-miterlimit:10;" d="M 183.214844 307 C 183.214844 318.714844 173.714844 328.214844 162 328.214844 C 150.285156 328.214844 140.785156 318.714844 140.785156 307 C 140.785156 295.285156 150.285156 285.785156 162 285.785156 C 173.714844 285.785156 183.214844 295.285156 183.214844 307 "/>
<path style="fill-rule:nonzero;fill:rgb(55%,51%,53%);fill-opacity:1;stroke-width:1;stroke-linecap:butt;stroke-linejoin:miter;stroke:rgb(0%,0%,0%);stroke-opacity:1;stroke-miterlimit:10;" d="M 483.214844 349 C 483.214844 360.714844 473.714844 370.214844 462 370.214844 C 450.285156 370.214844 440.785156 360.714844 440.785156 349 C 440.785156 337.285156 450.285156 327.785156 462 327.785156 C 473.714844 327.785156 483.214844 337.285156 483.214844 349 "/>
<path style="fill-rule:nonzero;fill:rgb(55%,51%,53%);fill-opacity:1;stroke-width:1;stroke-linecap:butt;stroke-linejoin:miter;stroke:rgb(0%,0%,0%);stroke-opacity:1;stroke-miterlimit:10;" d="M 192.214844 190 C 192.214844 201.714844 182.714844 211.214844 171 211.214844 C 159.285156 211.214844 149.785156 201.714844 149.785156 190 C 149.785156 178.285156 159.285156 168.785156 171 168.785156 C 182.714844 168.785156 192.214844 178.285156 192.214844 190 "/>
<path style="fill-rule:nonzero;fill:rgb(55%,51%,53%);fill-opacity:1;stroke-width:1;stroke-linecap:butt;stroke-linejoin:miter;stroke:rgb(0%,0%,0%);stroke-opacity:1;stroke-miterlimit:10;" d="M 387.214844 297 C 387.214844 308.714844 377.714844 318.214844 366 318.214844 C 354.285156 318.214844 344.785156 308.714844 344.785156 297 C 344.785156 285.285156 354.285156 275.785156 366 275.785156 C 377.714844 275.785156 387.214844 285.285156 387.214844 297 "/>
<path style="fill-rule:nonzero;fill:rgb(67%,100%,18%);fill-opacity:1;stroke-width:1;stroke-linecap:butt;stroke-linejoin:miter;stroke:rgb(0%,0%,0%);stroke-opacity:1;stroke-miterlimit:10;" d="M 964 287 L 938.019531 332 L 989.980469 332 L 964 287 "/>
<path style="fill-rule:nonzero;fill:rgb(67%,100%,18%);fill-opacity:1;stroke-width:1;stroke-linecap:butt;stroke-linejoin:miter;stroke:rgb(0%,0%,0%);stroke-opacity:1;stroke-miterlimit:10;" d="M 729 129 L 703.019531 174 L 754.980469 174 L 729 129 "/>
<path style="fill-rule:nonzero;fill:rgb(55%,51%,53%);fill-opacity:1;stroke-width:1;stroke-linecap:butt;stroke-linejoin:miter;stroke:rgb(0%,0%,0%);stroke-opacity:1;stroke-miterlimit:10;" d="M 995 58 L 969.019531 103 L 1020.980469 103 L 995 58 "/>
<path style="fill-rule:nonzero;fill:rgb(67%,100%,18%);fill-opacity:1;stroke-width:1;stroke-linecap:butt;stroke-linejoin:miter;stroke:rgb(0%,0%,0%);stroke-opacity:1;stroke-miterlimit:10;" d="M 646 312 L 620.019531 357 L 671.980469 357 L 646 312 "/>
<path style="fill-rule:nonzero;fill:rgb(67%,100%,18%);fill-opacity:1;stroke-width:1;stroke-linecap:butt;stroke-linejoin:miter;stroke:rgb(0%,0%,0%);stroke-opacity:1;stroke-miterlimit:10;" d="M 820 325 L 794.019531 370 L 845.980469 370 L 820 325 "/>
<path style="fill-rule:nonzero;fill:rgb(67%,100%,18%);fill-opacity:1;stroke-width:1;stroke-linecap:butt;stroke-linejoin:miter;stroke:rgb(0%,0%,0%);stroke-opacity:1;stroke-miterlimit:10;" d="M 874 176 L 848.019531 221 L 899.980469 221 L 874 176 "/>
</g>
</svg>
