<?xml version="1.0" encoding="UTF-8"?>
<svg xmlns="http://www.w3.org/2000/svg" xmlns:xlink="http://www.w3.org/1999/xlink" width="1129pt" height="517pt" viewBox="0 0 1129 517" version="1.1">
<g id="surface306">
<rect x="0" y="0" width="1129" height="517" style="fill:rgb(90%,90%,90%);fill-opacity:1;stroke:none;"/>
<path style="fill-rule:nonzero;fill:rgb(100%,51%,0%);fill-opacity:1;stroke-width:1;stroke-linecap:butt;stroke-linejoin:miter;stroke:rgb(0%,0%,0%);stroke-opacity:1;stroke-miterlimit:10;" d="M 800 105 L 829.664062 105 L 841.664062 76.785156 L 853.664062 105 L 883.332031 105 L 859.332031 122.4375 L 867.417969 153.980469 L 841.664062 136.542969 L 815.914062 153.980469 L 828.214844 122.4375 L 800 105 "/>
<path style="fill-rule:nonzero;fill:rgb(100%,51%,0%);fill-opacity:1;stroke-width:1;stroke-linecap:butt;stroke-linejoin:miter;stroke:rgb(0%,0%,0%);stroke-opacity:1;stroke-miterlimit:10;" d="M 945 267 L 974.664062 267 L 986.664062 238.785156 L 998.664062 267 L 1028.332031 267 L 1004.332031 284.4375 L 1012.417969 315.980469 L 986.664062 298.542969 L 960.914062 315.980469 L 973.214844 284.4375 L 945 267 "/>
<path style="fill-rule:nonzero;fill:rgb(100%,51%,0%);fill-opacity:1;stroke-width:1;stroke-linecap:butt;stroke-linejoin:miter;stroke:rgb(0%,0%,0%);stroke-opacity:1;stroke-miterlimit:10;" d="M 365 339 L 394.664062 339 L 406.664062 310.785156 L 418.664062 339 L 448.332031 339 L 424.332031 356.4375 L 432.417969 387.980469 L 406.664062 370.542969 L 380.914062 387.980469 L 393.214844 356.4375 L 365 339 "/>
<path style="fill-rule:nonzero;fill:rgb(100%,51%,0%);fill-opacity:1;stroke-width:1;stroke-linecap:butt;stroke-linejoin:miter;stroke:rgb(0%,0%,0%);stroke-opacity:1;stroke-miterlimit:10;" d="M 746 206 L 775.664062 206 L 787.664062 177.785156 L 799.664062 206 L 829.332031 206 L 805.332031 223.4375 L 813.417969 254.980469 L 787.664062 237.542969 L 761.914062 254.980469 L 774.214844 223.4375 L 746 206 "/>
<path style="fill-rule:nonzero;fill:rgb(55%,51%,53%);fill-opacity:1;stroke-width:1;stroke-linecap:butt;stroke-linejoin:miter;stroke:rgb(0%,0%,0%);stroke-opacity:1;stroke-miterlimit:10;" d="M 201 105 L 175.019531 150 L 226.980469 150 L 201 105 "/>
<path style="fill-rule:nonzero;fill:rgb(55%,51%,53%);fill-opacity:1;stroke-width:1;stroke-linecap:butt;stroke-linejoin:miter;stroke:rgb(0%,0%,0%);stroke-opacity:1;stroke-miterlimit:10;" d="M 664 252 L 638.019531 297 L 689.980469 297 L 664 252 "/>
<path style="fill-rule:nonzero;fill:rgb(55%,51%,53%);fill-opacity:1;stroke-width:1;stroke-linecap:butt;stroke-linejoin:miter;stroke:rgb(0%,0%,0%);stroke-opacity:1;stroke-miterlimit:10;" d="M 557 226 L 531.019531 271 L 582.980469 271 L 557 226 "/>
<path style="fill-rule:nonzero;fill:rgb(55%,51%,53%);fill-opacity:1;stroke-width:1;stroke-linecap:butt;stroke-linejoin:miter;stroke:rgb(0%,0%,0%);stroke-opacity:1;stroke-miterlimit:10;" d="M 257 352 L 231.019531 397 L 282.980469 397 L 257 352 "/>
</g>
</svg>
