<?xml version="1.0" encoding="UTF-8"?>
<svg xmlns="http://www.w3.org/2000/svg" xmlns:xlink="http://www.w3.org/1999/xlink" width="1129pt" height="517pt" viewBox="0 0 1129 517" version="1.1">
<g id="surface636">
<rect x="0" y="0" width="1129" height="517" style="fill:rgb(90%,90%,90%);fill-opacity:1;stroke:none;"/>
<path style="fill-rule:nonzero;fill:rgb(100%,51%,0%);fill-opacity:1;stroke-width:1;stroke-linecap:butt;stroke-linejoin:miter;stroke:rgb(0%,0%,0%);stroke-opacity:1;stroke-miterlimit:10;" d="M 886 300 L 915.664062 300 L 927.664062 271.785156 L 939.664062 300 L 969.332031 300 L 945.332031 317.4375 L 953.417969 348.980469 L 927.664062 331.542969 L 901.914062 348.980469 L 914.214844 317.4375 L 886 300 "/>
<path style="fill-rule:nonzero;fill:rgb(100%,51%,0%);fill-opacity:1;stroke-width:1;stroke-linecap:butt;stroke-linejoin:miter;stroke:rgb(0%,0%,0%);stroke-opacity:1;stroke-miterlimit:10;" d="M 972 394 L 1001.664062 394 L 1013.664062 365.785156 L 1025.664062 394 L 1055.332031 394 L 1031.332031 411.4375 L 1039.417969 442.980469 L 1013.664062 425.542969 L 987.914062 442.980469 L 1000.214844 411.4375 L 972 394 "/>
<path style="fill-rule:nonzero;fill:rgb(100%,51%,0%);fill-opacity:1;stroke-width:1;stroke-linecap:butt;stroke-linejoin:miter;stroke:rgb(0%,0%,0%);stroke-opacity:1;stroke-miterlimit:10;" d="M 296 174 L 325.664062 174 L 337.664062 145.785156 L 349.664062 174 L 379.332031 174 L 355.332031 191.4375 L 363.417969 222.980469 L 337.664062 205.542969 L 311.914062 222.980469 L 324.214844 191.4375 L 296 174 "/>
<path style="fill-rule:nonzero;fill:rgb(100%,51%,0%);fill-opacity:1;stroke-width:1;stroke-linecap:butt;stroke-linejoin:miter;stroke:rgb(0%,0%,0%);stroke-opacity:1;stroke-miterlimit:10;" d="M 494 75 L 523.664062 75 L 535.664062 46.785156 L 547.664062 75 L 577.332031 75 L 553.332031 92.4375 L 561.417969 123.980469 L 535.664062 106.542969 L 509.914062 123.980469 L 522.214844 92.4375 L 494 75 "/>
<path style="fill-rule:nonzero;fill:rgb(100%,51%,0%);fill-opacity:1;stroke-width:1;stroke-linecap:butt;stroke-linejoin:miter;stroke:rgb(0%,0%,0%);stroke-opacity:1;stroke-miterlimit:10;" d="M 507 243 L 536.664062 243 L 548.664062 214.785156 L 560.664062 243 L 590.332031 243 L 566.332031 260.4375 L 574.417969 291.980469 L 548.664062 274.542969 L 522.914062 291.980469 L 535.214844 260.4375 L 507 243 "/>
<path style="fill-rule:nonzero;fill:rgb(100%,51%,0%);fill-opacity:1;stroke-width:1;stroke-linecap:butt;stroke-linejoin:miter;stroke:rgb(0%,0%,0%);stroke-opacity:1;stroke-miterlimit:10;" d="M 148 274 L 177.664062 274 L 189.664062 245.785156 L 201.664062 274 L 231.332031 274 L 207.332031 291.4375 L 215.417969 322.980469 L 189.664062 305.542969 L 163.914062 322.980469 L 176.214844 291.4375 L 148 274 "/>
<path style="fill-rule:nonzero;fill:rgb(53%,27%,7%);fill-opacity:1;stroke-width:1;stroke-linecap:butt;stroke-linejoin:miter;stroke:rgb(0%,0%,0%);stroke-opacity:1;stroke-miterlimit:10;" d="M 255 423 L 229.019531 468 L 280.980469 468 L 255 423 "/>
<path style="fill-rule:nonzero;fill:rgb(53%,27%,7%);fill-opacity:1;stroke-width:1;stroke-linecap:butt;stroke-linejoin:miter;stroke:rgb(0%,0%,0%);stroke-opacity:1;stroke-miterlimit:10;" d="M 497 304 L 471.019531 349 L 522.980469 349 L 497 304 "/>
<path style="fill-rule:nonzero;fill:rgb(53%,27%,7%);fill-opacity:1;stroke-width:1;stroke-linecap:butt;stroke-linejoin:miter;stroke:rgb(0%,0%,0%);stroke-opacity:1;stroke-miterlimit:10;" d="M 85 41 L 59.019531 86 L 110.980469 86 L 85 41 "/>
<path style="fill-rule:nonzero;fill:rgb(53%,27%,7%);fill-opacity:1;stroke-width:1;stroke-linecap:butt;stroke-linejoin:miter;stroke:rgb(0%,0%,0%);stroke-opacity:1;stroke-miterlimit:10;" d="M 302 236 L 276.019531 281 L 327.980469 281 L 302 236 "/>
<path style="fill-rule:nonzero;fill:rgb(53%,27%,7%);fill-opacity:1;stroke-width:1;stroke-linecap:butt;stroke-linejoin:miter;stroke:rgb(0%,0%,0%);stroke-opacity:1;stroke-miterlimit:10;" d="M 649 115 L 623.019531 160 L 674.980469 160 L 649 115 "/>
<path style="fill-rule:nonzero;fill:rgb(53%,27%,7%);fill-opacity:1;stroke-width:1;stroke-linecap:butt;stroke-linejoin:miter;stroke:rgb(0%,0%,0%);stroke-opacity:1;stroke-miterlimit:10;" d="M 90 432 L 64.019531 477 L 115.980469 477 L 90 432 "/>
<path style="fill-rule:nonzero;fill:rgb(53%,27%,7%);fill-opacity:1;stroke-width:1;stroke-linecap:butt;stroke-linejoin:miter;stroke:rgb(0%,0%,0%);stroke-opacity:1;stroke-miterlimit:10;" d="M 605 392 L 579.019531 437 L 630.980469 437 L 605 392 "/>
<path style="fill-rule:nonzero;fill:rgb(53%,27%,7%);fill-opacity:1;stroke-width:1;stroke-linecap:butt;stroke-linejoin:miter;stroke:rgb(0%,0%,0%);stroke-opacity:1;stroke-miterlimit:10;" d="M 653 209 L 627.019531 254 L 678.980469 254 L 653 209 "/>
</g>
</svg>
