<?xml version="1.0" encoding="UTF-8"?>
<svg xmlns="http://www.w3.org/2000/svg" xmlns:xlink="http://www.w3.org/1999/xlink" width="1179pt" height="517pt" viewBox="0 0 1179 517" version="1.1">
<g id="surface291">
<rect x="0" y="0" width="1179" height="517" style="fill:rgb(90%,90%,90%);fill-opacity:1;stroke:none;"/>
<path style="fill-rule:nonzero;fill:rgb(100%,51%,0%);fill-opacity:1;stroke-width:1;stroke-linecap:butt;stroke-linejoin:miter;stroke:rgb(0%,0%,0%);stroke-opacity:1;stroke-miterlimit:10;" d="M 385.214844 369 C 385.214844 380.714844 375.714844 390.214844 364 390.214844 C 352.285156 390.214844 342.785156 380.714844 342.785156 369 C 342.785156 357.285156 352.285156 347.785156 364 347.785156 C 375.714844 347.785156 385.214844 357.285156 385.214844 369 "/>
<path style="fill-rule:nonzero;fill:rgb(100%,51%,0%);fill-opacity:1;stroke-width:1;stroke-linecap:butt;stroke-linejoin:miter;stroke:rgb(0%,0%,0%);stroke-opacity:1;stroke-miterlimit:10;" d="M 283.785156 170.785156 L 283.785156 213.214844 L 326.214844 213.214844 L 326.214844 170.785156 L 283.785156 170.785156 "/>
<path style="fill-rule:nonzero;fill:rgb(100%,51%,0%);fill-opacity:1;stroke-width:1;stroke-linecap:butt;stroke-linejoin:miter;stroke:rgb(0%,0%,0%);stroke-opacity:1;stroke-miterlimit:10;" d="M 131.785156 405.785156 L 131.785156 448.214844 L 174.214844 448.214844 L 174.214844 405.785156 L 131.785156 405.785156 "/>
<path style="fill-rule:nonzero;fill:rgb(100%,51%,0%);fill-opacity:1;stroke-width:1;stroke-linecap:butt;stroke-linejoin:miter;stroke:rgb(0%,0%,0%);stroke-opacity:1;stroke-miterlimit:10;" d="M 182.214844 270 C 182.214844 281.714844 172.714844 291.214844 161 291.214844 C 149.285156 291.214844 139.785156 281.714844 139.785156 270 C 139.785156 258.285156 149.285156 248.785156 161 248.785156 C 172.714844 248.785156 182.214844 258.285156 182.214844 270 "/>
<path style="fill-rule:nonzero;fill:rgb(100%,51%,0%);fill-opacity:1;stroke-width:1;stroke-linecap:butt;stroke-linejoin:miter;stroke:rgb(0%,0%,0%);stroke-opacity:1;stroke-miterlimit:10;" d="M 285.214844 332 C 285.214844 343.714844 275.714844 353.214844 264 353.214844 C 252.285156 353.214844 242.785156 343.714844 242.785156 332 C 242.785156 320.285156 252.285156 310.785156 264 310.785156 C 275.714844 310.785156 285.214844 320.285156 285.214844 332 "/>
<path style="fill-rule:nonzero;fill:rgb(100%,51%,0%);fill-opacity:1;stroke-width:1;stroke-linecap:butt;stroke-linejoin:miter;stroke:rgb(0%,0%,0%);stroke-opacity:1;stroke-miterlimit:10;" d="M 253.214844 80 C 253.214844 91.714844 243.714844 101.214844 232 101.214844 C 220.285156 101.214844 210.785156 91.714844 210.785156 80 C 210.785156 68.285156 220.285156 58.785156 232 58.785156 C 243.714844 58.785156 253.214844 68.285156 253.214844 80 "/>
<path style="fill-rule:nonzero;fill:rgb(100%,51%,0%);fill-opacity:1;stroke-width:1;stroke-linecap:butt;stroke-linejoin:miter;stroke:rgb(0%,0%,0%);stroke-opacity:1;stroke-miterlimit:10;" d="M 418.214844 172 C 418.214844 183.714844 408.714844 193.214844 397 193.214844 C 385.285156 193.214844 375.785156 183.714844 375.785156 172 C 375.785156 160.285156 385.285156 150.785156 397 150.785156 C 408.714844 150.785156 418.214844 160.285156 418.214844 172 "/>
<path style="fill-rule:nonzero;fill:rgb(53%,27%,7%);fill-opacity:1;stroke-width:1;stroke-linecap:butt;stroke-linejoin:miter;stroke:rgb(0%,0%,0%);stroke-opacity:1;stroke-miterlimit:10;" d="M 726.785156 218.785156 L 726.785156 261.214844 L 769.214844 261.214844 L 769.214844 218.785156 L 726.785156 218.785156 "/>
<path style="fill-rule:nonzero;fill:rgb(53%,27%,7%);fill-opacity:1;stroke-width:1;stroke-linecap:butt;stroke-linejoin:miter;stroke:rgb(0%,0%,0%);stroke-opacity:1;stroke-miterlimit:10;" d="M 1043.214844 153 C 1043.214844 164.714844 1033.714844 174.214844 1022 174.214844 C 1010.285156 174.214844 1000.785156 164.714844 1000.785156 153 C 1000.785156 141.285156 1010.285156 131.785156 1022 131.785156 C 1033.714844 131.785156 1043.214844 141.285156 1043.214844 153 "/>
<path style="fill-rule:nonzero;fill:rgb(53%,27%,7%);fill-opacity:1;stroke-width:1;stroke-linecap:butt;stroke-linejoin:miter;stroke:rgb(0%,0%,0%);stroke-opacity:1;stroke-miterlimit:10;" d="M 768.214844 93 C 768.214844 104.714844 758.714844 114.214844 747 114.214844 C 735.285156 114.214844 725.785156 104.714844 725.785156 93 C 725.785156 81.285156 735.285156 71.785156 747 71.785156 C 758.714844 71.785156 768.214844 81.285156 768.214844 93 "/>
<path style="fill-rule:nonzero;fill:rgb(53%,27%,7%);fill-opacity:1;stroke-width:1;stroke-linecap:butt;stroke-linejoin:miter;stroke:rgb(0%,0%,0%);stroke-opacity:1;stroke-miterlimit:10;" d="M 908.785156 189.785156 L 908.785156 232.214844 L 951.214844 232.214844 L 951.214844 189.785156 L 908.785156 189.785156 "/>
<path style="fill-rule:nonzero;fill:rgb(53%,27%,7%);fill-opacity:1;stroke-width:1;stroke-linecap:butt;stroke-linejoin:miter;stroke:rgb(0%,0%,0%);stroke-opacity:1;stroke-miterlimit:10;" d="M 964.785156 362.785156 L 964.785156 405.214844 L 1007.214844 405.214844 L 1007.214844 362.785156 L 964.785156 362.785156 "/>
</g>
</svg>
