<?xml version="1.0" encoding="UTF-8"?>
<svg xmlns="http://www.w3.org/2000/svg" xmlns:xlink="http://www.w3.org/1999/xlink" width="1129pt" height="517pt" viewBox="0 0 1129 517" version="1.1">
<g id="surface836">
<rect x="0" y="0" width="1129" height="517" style="fill:rgb(90%,90%,90%);fill-opacity:1;stroke:none;"/>
<path style="fill-rule:nonzero;fill:rgb(35%,70%,90%);fill-opacity:1;stroke-width:1;stroke-linecap:butt;stroke-linejoin:miter;stroke:rgb(0%,0%,0%);stroke-opacity:1;stroke-miterlimit:10;" d="M 889.214844 87 C 889.214844 98.714844 879.714844 108.214844 868 108.214844 C 856.285156 108.214844 846.785156 98.714844 846.785156 87 C 846.785156 75.285156 856.285156 65.785156 868 65.785156 C 879.714844 65.785156 889.214844 75.285156 889.214844 87 "/>
<path style="fill-rule:nonzero;fill:rgb(35%,70%,90%);fill-opacity:1;stroke-width:1;stroke-linecap:butt;stroke-linejoin:miter;stroke:rgb(0%,0%,0%);stroke-opacity:1;stroke-miterlimit:10;" d="M 793.214844 213 C 793.214844 224.714844 783.714844 234.214844 772 234.214844 C 760.285156 234.214844 750.785156 224.714844 750.785156 213 C 750.785156 201.285156 760.285156 191.785156 772 191.785156 C 783.714844 191.785156 793.214844 201.285156 793.214844 213 "/>
<path style="fill-rule:nonzero;fill:rgb(35%,70%,90%);fill-opacity:1;stroke-width:1;stroke-linecap:butt;stroke-linejoin:miter;stroke:rgb(0%,0%,0%);stroke-opacity:1;stroke-miterlimit:10;" d="M 403.214844 225 C 403.214844 236.714844 393.714844 246.214844 382 246.214844 C 370.285156 246.214844 360.785156 236.714844 360.785156 225 C 360.785156 213.285156 370.285156 203.785156 382 203.785156 C 393.714844 203.785156 403.214844 213.285156 403.214844 225 "/>
<path style="fill-rule:nonzero;fill:rgb(35%,70%,90%);fill-opacity:1;stroke-width:1;stroke-linecap:butt;stroke-linejoin:miter;stroke:rgb(0%,0%,0%);stroke-opacity:1;stroke-miterlimit:10;" d="M 159.214844 409 C 159.214844 420.714844 149.714844 430.214844 138 430.214844 C 126.285156 430.214844 116.785156 420.714844 116.785156 409 C 116.785156 397.285156 126.285156 387.785156 138 387.785156 C 149.714844 387.785156 159.214844 397.285156 159.214844 409 "/>
<path style="fill-rule:nonzero;fill:rgb(35%,70%,90%);fill-opacity:1;stroke-width:1;stroke-linecap:butt;stroke-linejoin:miter;stroke:rgb(0%,0%,0%);stroke-opacity:1;stroke-miterlimit:10;" d="M 627.214844 403 C 627.214844 414.714844 617.714844 424.214844 606 424.214844 C 594.285156 424.214844 584.785156 414.714844 584.785156 403 C 584.785156 391.285156 594.285156 381.785156 606 381.785156 C 617.714844 381.785156 627.214844 391.285156 627.214844 403 "/>
<path style="fill-rule:nonzero;fill:rgb(35%,70%,90%);fill-opacity:1;stroke-width:1;stroke-linecap:butt;stroke-linejoin:miter;stroke:rgb(0%,0%,0%);stroke-opacity:1;stroke-miterlimit:10;" d="M 912.214844 393 C 912.214844 404.714844 902.714844 414.214844 891 414.214844 C 879.285156 414.214844 869.785156 404.714844 869.785156 393 C 869.785156 381.285156 879.285156 371.785156 891 371.785156 C 902.714844 371.785156 912.214844 381.285156 912.214844 393 "/>
<path style="fill-rule:nonzero;fill:rgb(35%,70%,90%);fill-opacity:1;stroke-width:1;stroke-linecap:butt;stroke-linejoin:miter;stroke:rgb(0%,0%,0%);stroke-opacity:1;stroke-miterlimit:10;" d="M 140 270 L 169.664062 270 L 181.664062 241.785156 L 193.664062 270 L 223.332031 270 L 199.332031 287.4375 L 207.417969 318.980469 L 181.664062 301.542969 L 155.914062 318.980469 L 168.214844 287.4375 L 140 270 "/>
<path style="fill-rule:nonzero;fill:rgb(35%,70%,90%);fill-opacity:1;stroke-width:1;stroke-linecap:butt;stroke-linejoin:miter;stroke:rgb(0%,0%,0%);stroke-opacity:1;stroke-miterlimit:10;" d="M 412 419 L 441.664062 419 L 453.664062 390.785156 L 465.664062 419 L 495.332031 419 L 471.332031 436.4375 L 479.417969 467.980469 L 453.664062 450.542969 L 427.914062 467.980469 L 440.214844 436.4375 L 412 419 "/>
<path style="fill-rule:nonzero;fill:rgb(35%,70%,90%);fill-opacity:1;stroke-width:1;stroke-linecap:butt;stroke-linejoin:miter;stroke:rgb(0%,0%,0%);stroke-opacity:1;stroke-miterlimit:10;" d="M 335 129 L 364.664062 129 L 376.664062 100.785156 L 388.664062 129 L 418.332031 129 L 394.332031 146.4375 L 402.417969 177.980469 L 376.664062 160.542969 L 350.914062 177.980469 L 363.214844 146.4375 L 335 129 "/>
<path style="fill-rule:nonzero;fill:rgb(35%,70%,90%);fill-opacity:1;stroke-width:1;stroke-linecap:butt;stroke-linejoin:miter;stroke:rgb(0%,0%,0%);stroke-opacity:1;stroke-miterlimit:10;" d="M 220 94 L 249.664062 94 L 261.664062 65.785156 L 273.664062 94 L 303.332031 94 L 279.332031 111.4375 L 287.417969 142.980469 L 261.664062 125.542969 L 235.914062 142.980469 L 248.214844 111.4375 L 220 94 "/>
<path style="fill-rule:nonzero;fill:rgb(35%,70%,90%);fill-opacity:1;stroke-width:1;stroke-linecap:butt;stroke-linejoin:miter;stroke:rgb(0%,0%,0%);stroke-opacity:1;stroke-miterlimit:10;" d="M 570 176 L 599.664062 176 L 611.664062 147.785156 L 623.664062 176 L 653.332031 176 L 629.332031 193.4375 L 637.417969 224.980469 L 611.664062 207.542969 L 585.914062 224.980469 L 598.214844 193.4375 L 570 176 "/>
</g>
</svg>
