<?xml version="1.0" encoding="UTF-8"?>
<svg xmlns="http://www.w3.org/2000/svg" xmlns:xlink="http://www.w3.org/1999/xlink" width="1129pt" height="517pt" viewBox="0 0 1129 517" version="1.1">
<g id="surface101">
<rect x="0" y="0" width="1129" height="517" style="fill:rgb(90%,90%,90%);fill-opacity:1;stroke:none;"/>
<path style="fill-rule:nonzero;fill:rgb(100%,51%,0%);fill-opacity:1;stroke-width:1;stroke-linecap:butt;stroke-linejoin:miter;stroke:rgb(0%,0%,0%);stroke-opacity:1;stroke-miterlimit:10;" d="M 108 82 L 137.664062 82 L 149.664062 53.785156 L 161.664062 82 L 191.332031 82 L 167.332031 99.4375 L 175.417969 130.980469 L 149.664062 113.542969 L 123.914062 130.980469 L 136.214844 99.4375 L 108 82 "/>
<path style="fill-rule:nonzero;fill:rgb(100%,51%,0%);fill-opacity:1;stroke-width:1;stroke-linecap:butt;stroke-linejoin:miter;stroke:rgb(0%,0%,0%);stroke-opacity:1;stroke-miterlimit:10;" d="M 309.785156 226.785156 L 309.785156 269.214844 L 352.214844 269.214844 L 352.214844 226.785156 L 309.785156 226.785156 "/>
<path style="fill-rule:nonzero;fill:rgb(100%,51%,0%);fill-opacity:1;stroke-width:1;stroke-linecap:butt;stroke-linejoin:miter;stroke:rgb(0%,0%,0%);stroke-opacity:1;stroke-miterlimit:10;" d="M 223 428 L 252.664062 428 L 264.664062 399.785156 L 276.664062 428 L 306.332031 428 L 282.332031 445.4375 L 290.417969 476.980469 L 264.664062 459.542969 L 238.914062 476.980469 L 251.214844 445.4375 L 223 428 "/>
<path style="fill-rule:nonzero;fill:rgb(100%,51%,0%);fill-opacity:1;stroke-width:1;stroke-linecap:butt;stroke-linejoin:miter;stroke:rgb(0%,0%,0%);stroke-opacity:1;stroke-miterlimit:10;" d="M 439.785156 140.785156 L 439.785156 183.214844 L 482.214844 183.214844 L 482.214844 140.785156 L 439.785156 140.785156 "/>
<path style="fill-rule:nonzero;fill:rgb(100%,51%,0%);fill-opacity:1;stroke-width:1;stroke-linecap:butt;stroke-linejoin:miter;stroke:rgb(0%,0%,0%);stroke-opacity:1;stroke-miterlimit:10;" d="M 299 60 L 328.664062 60 L 340.664062 31.785156 L 352.664062 60 L 382.332031 60 L 358.332031 77.4375 L 366.417969 108.980469 L 340.664062 91.542969 L 314.914062 108.980469 L 327.214844 77.4375 L 299 60 "/>
<path style="fill-rule:nonzero;fill:rgb(100%,51%,0%);fill-opacity:1;stroke-width:1;stroke-linecap:butt;stroke-linejoin:miter;stroke:rgb(0%,0%,0%);stroke-opacity:1;stroke-miterlimit:10;" d="M 53 449 L 82.664062 449 L 94.664062 420.785156 L 106.664062 449 L 136.332031 449 L 112.332031 466.4375 L 120.417969 497.980469 L 94.664062 480.542969 L 68.914062 497.980469 L 81.214844 466.4375 L 53 449 "/>
<path style="fill-rule:nonzero;fill:rgb(53%,27%,7%);fill-opacity:1;stroke-width:1;stroke-linecap:butt;stroke-linejoin:miter;stroke:rgb(0%,0%,0%);stroke-opacity:1;stroke-miterlimit:10;" d="M 645.785156 225.785156 L 645.785156 268.214844 L 688.214844 268.214844 L 688.214844 225.785156 L 645.785156 225.785156 "/>
<path style="fill-rule:nonzero;fill:rgb(53%,27%,7%);fill-opacity:1;stroke-width:1;stroke-linecap:butt;stroke-linejoin:miter;stroke:rgb(0%,0%,0%);stroke-opacity:1;stroke-miterlimit:10;" d="M 986 359 L 1015.664062 359 L 1027.664062 330.785156 L 1039.664062 359 L 1069.332031 359 L 1045.332031 376.4375 L 1053.417969 407.980469 L 1027.664062 390.542969 L 1001.914062 407.980469 L 1014.214844 376.4375 L 986 359 "/>
<path style="fill-rule:nonzero;fill:rgb(53%,27%,7%);fill-opacity:1;stroke-width:1;stroke-linecap:butt;stroke-linejoin:miter;stroke:rgb(0%,0%,0%);stroke-opacity:1;stroke-miterlimit:10;" d="M 750.785156 189.785156 L 750.785156 232.214844 L 793.214844 232.214844 L 793.214844 189.785156 L 750.785156 189.785156 "/>
<path style="fill-rule:nonzero;fill:rgb(53%,27%,7%);fill-opacity:1;stroke-width:1;stroke-linecap:butt;stroke-linejoin:miter;stroke:rgb(0%,0%,0%);stroke-opacity:1;stroke-miterlimit:10;" d="M 837 97 L 866.664062 97 L 878.664062 68.785156 L 890.664062 97 L 920.332031 97 L 896.332031 114.4375 L 904.417969 145.980469 L 878.664062 128.542969 L 852.914062 145.980469 L 865.214844 114.4375 L 837 97 "/>
</g>
</svg>
