<?xml version="1.0" encoding="UTF-8"?>
<svg xmlns="http://www.w3.org/2000/svg" xmlns:xlink="http://www.w3.org/1999/xlink" width="1129pt" height="517pt" viewBox="0 0 1129 517" version="1.1">
<g id="surface666">
<rect x="0" y="0" width="1129" height="517" style="fill:rgb(90%,90%,90%);fill-opacity:1;stroke:none;"/>
<path style="fill-rule:nonzero;fill:rgb(100%,51%,0%);fill-opacity:1;stroke-width:1;stroke-linecap:butt;stroke-linejoin:miter;stroke:rgb(0%,0%,0%);stroke-opacity:1;stroke-miterlimit:10;" d="M 291 104 L 320.664062 104 L 332.664062 75.785156 L 344.664062 104 L 374.332031 104 L 350.332031 121.4375 L 358.417969 152.980469 L 332.664062 135.542969 L 306.914062 152.980469 L 319.214844 121.4375 L 291 104 "/>
<path style="fill-rule:nonzero;fill:rgb(100%,51%,0%);fill-opacity:1;stroke-width:1;stroke-linecap:butt;stroke-linejoin:miter;stroke:rgb(0%,0%,0%);stroke-opacity:1;stroke-miterlimit:10;" d="M 179 236 L 208.664062 236 L 220.664062 207.785156 L 232.664062 236 L 262.332031 236 L 238.332031 253.4375 L 246.417969 284.980469 L 220.664062 267.542969 L 194.914062 284.980469 L 207.214844 253.4375 L 179 236 "/>
<path style="fill-rule:nonzero;fill:rgb(100%,51%,0%);fill-opacity:1;stroke-width:1;stroke-linecap:butt;stroke-linejoin:miter;stroke:rgb(0%,0%,0%);stroke-opacity:1;stroke-miterlimit:10;" d="M 380 86 L 409.664062 86 L 421.664062 57.785156 L 433.664062 86 L 463.332031 86 L 439.332031 103.4375 L 447.417969 134.980469 L 421.664062 117.542969 L 395.914062 134.980469 L 408.214844 103.4375 L 380 86 "/>
<path style="fill-rule:nonzero;fill:rgb(100%,51%,0%);fill-opacity:1;stroke-width:1;stroke-linecap:butt;stroke-linejoin:miter;stroke:rgb(0%,0%,0%);stroke-opacity:1;stroke-miterlimit:10;" d="M 402 383 L 431.664062 383 L 443.664062 354.785156 L 455.664062 383 L 485.332031 383 L 461.332031 400.4375 L 469.417969 431.980469 L 443.664062 414.542969 L 417.914062 431.980469 L 430.214844 400.4375 L 402 383 "/>
<path style="fill-rule:nonzero;fill:rgb(100%,51%,0%);fill-opacity:1;stroke-width:1;stroke-linecap:butt;stroke-linejoin:miter;stroke:rgb(0%,0%,0%);stroke-opacity:1;stroke-miterlimit:10;" d="M 633 69 L 662.664062 69 L 674.664062 40.785156 L 686.664062 69 L 716.332031 69 L 692.332031 86.4375 L 700.417969 117.980469 L 674.664062 100.542969 L 648.914062 117.980469 L 661.214844 86.4375 L 633 69 "/>
<path style="fill-rule:nonzero;fill:rgb(100%,51%,0%);fill-opacity:1;stroke-width:1;stroke-linecap:butt;stroke-linejoin:miter;stroke:rgb(0%,0%,0%);stroke-opacity:1;stroke-miterlimit:10;" d="M 823 378 L 852.664062 378 L 864.664062 349.785156 L 876.664062 378 L 906.332031 378 L 882.332031 395.4375 L 890.417969 426.980469 L 864.664062 409.542969 L 838.914062 426.980469 L 851.214844 395.4375 L 823 378 "/>
<path style="fill-rule:nonzero;fill:rgb(100%,51%,0%);fill-opacity:1;stroke-width:1;stroke-linecap:butt;stroke-linejoin:miter;stroke:rgb(0%,0%,0%);stroke-opacity:1;stroke-miterlimit:10;" d="M 520 79 L 549.664062 79 L 561.664062 50.785156 L 573.664062 79 L 603.332031 79 L 579.332031 96.4375 L 587.417969 127.980469 L 561.664062 110.542969 L 535.914062 127.980469 L 548.214844 96.4375 L 520 79 "/>
<path style="fill-rule:nonzero;fill:rgb(55%,51%,53%);fill-opacity:1;stroke-width:1;stroke-linecap:butt;stroke-linejoin:miter;stroke:rgb(0%,0%,0%);stroke-opacity:1;stroke-miterlimit:10;" d="M 205 426 L 179.019531 471 L 230.980469 471 L 205 426 "/>
<path style="fill-rule:nonzero;fill:rgb(55%,51%,53%);fill-opacity:1;stroke-width:1;stroke-linecap:butt;stroke-linejoin:miter;stroke:rgb(0%,0%,0%);stroke-opacity:1;stroke-miterlimit:10;" d="M 751 110 L 725.019531 155 L 776.980469 155 L 751 110 "/>
<path style="fill-rule:nonzero;fill:rgb(55%,51%,53%);fill-opacity:1;stroke-width:1;stroke-linecap:butt;stroke-linejoin:miter;stroke:rgb(0%,0%,0%);stroke-opacity:1;stroke-miterlimit:10;" d="M 528 214 L 502.019531 259 L 553.980469 259 L 528 214 "/>
<path style="fill-rule:nonzero;fill:rgb(55%,51%,53%);fill-opacity:1;stroke-width:1;stroke-linecap:butt;stroke-linejoin:miter;stroke:rgb(0%,0%,0%);stroke-opacity:1;stroke-miterlimit:10;" d="M 752 287 L 726.019531 332 L 777.980469 332 L 752 287 "/>
<path style="fill-rule:nonzero;fill:rgb(55%,51%,53%);fill-opacity:1;stroke-width:1;stroke-linecap:butt;stroke-linejoin:miter;stroke:rgb(0%,0%,0%);stroke-opacity:1;stroke-miterlimit:10;" d="M 958 213 L 932.019531 258 L 983.980469 258 L 958 213 "/>
<path style="fill-rule:nonzero;fill:rgb(55%,51%,53%);fill-opacity:1;stroke-width:1;stroke-linecap:butt;stroke-linejoin:miter;stroke:rgb(0%,0%,0%);stroke-opacity:1;stroke-miterlimit:10;" d="M 183 336 L 157.019531 381 L 208.980469 381 L 183 336 "/>
<path style="fill-rule:nonzero;fill:rgb(55%,51%,53%);fill-opacity:1;stroke-width:1;stroke-linecap:butt;stroke-linejoin:miter;stroke:rgb(0%,0%,0%);stroke-opacity:1;stroke-miterlimit:10;" d="M 856 139 L 830.019531 184 L 881.980469 184 L 856 139 "/>
</g>
</svg>
