<?xml version="1.0" encoding="UTF-8"?>
<svg xmlns="http://www.w3.org/2000/svg" xmlns:xlink="http://www.w3.org/1999/xlink" width="1179pt" height="517pt" viewBox="0 0 1179 517" version="1.1">
<g id="surface36">
<rect x="0" y="0" width="1179" height="517" style="fill:rgb(90%,90%,90%);fill-opacity:1;stroke:none;"/>
<path style="fill-rule:nonzero;fill:rgb(35%,70%,90%);fill-opacity:1;stroke-width:1;stroke-linecap:butt;stroke-linejoin:miter;stroke:rgb(0%,0%,0%);stroke-opacity:1;stroke-miterlimit:10;" d="M 365 333 L 394.664062 333 L 406.664062 304.785156 L 418.664062 333 L 448.332031 333 L 424.332031 350.4375 L 432.417969 381.980469 L 406.664062 364.542969 L 380.914062 381.980469 L 393.214844 350.4375 L 365 333 "/>
<path style="fill-rule:nonzero;fill:rgb(35%,70%,90%);fill-opacity:1;stroke-width:1;stroke-linecap:butt;stroke-linejoin:miter;stroke:rgb(0%,0%,0%);stroke-opacity:1;stroke-miterlimit:10;" d="M 147 273 L 176.664062 273 L 188.664062 244.785156 L 200.664062 273 L 230.332031 273 L 206.332031 290.4375 L 214.417969 321.980469 L 188.664062 304.542969 L 162.914062 321.980469 L 175.214844 290.4375 L 147 273 "/>
<path style="fill-rule:nonzero;fill:rgb(35%,70%,90%);fill-opacity:1;stroke-width:1;stroke-linecap:butt;stroke-linejoin:miter;stroke:rgb(0%,0%,0%);stroke-opacity:1;stroke-miterlimit:10;" d="M 216 186 L 245.664062 186 L 257.664062 157.785156 L 269.664062 186 L 299.332031 186 L 275.332031 203.4375 L 283.417969 234.980469 L 257.664062 217.542969 L 231.914062 234.980469 L 244.214844 203.4375 L 216 186 "/>
<path style="fill-rule:nonzero;fill:rgb(53%,27%,7%);fill-opacity:1;stroke-width:1;stroke-linecap:butt;stroke-linejoin:miter;stroke:rgb(0%,0%,0%);stroke-opacity:1;stroke-miterlimit:10;" d="M 220 298 L 194.019531 343 L 245.980469 343 L 220 298 "/>
<path style="fill-rule:nonzero;fill:rgb(35%,70%,90%);fill-opacity:1;stroke-width:1;stroke-linecap:butt;stroke-linejoin:miter;stroke:rgb(0%,0%,0%);stroke-opacity:1;stroke-miterlimit:10;" d="M 420 187 L 449.664062 187 L 461.664062 158.785156 L 473.664062 187 L 503.332031 187 L 479.332031 204.4375 L 487.417969 235.980469 L 461.664062 218.542969 L 435.914062 235.980469 L 448.214844 204.4375 L 420 187 "/>
<path style="fill-rule:nonzero;fill:rgb(35%,70%,90%);fill-opacity:1;stroke-width:1;stroke-linecap:butt;stroke-linejoin:miter;stroke:rgb(0%,0%,0%);stroke-opacity:1;stroke-miterlimit:10;" d="M 80 176 L 109.664062 176 L 121.664062 147.785156 L 133.664062 176 L 163.332031 176 L 139.332031 193.4375 L 147.417969 224.980469 L 121.664062 207.542969 L 95.914062 224.980469 L 108.214844 193.4375 L 80 176 "/>
<path style="fill-rule:nonzero;fill:rgb(35%,70%,90%);fill-opacity:1;stroke-width:1;stroke-linecap:butt;stroke-linejoin:miter;stroke:rgb(0%,0%,0%);stroke-opacity:1;stroke-miterlimit:10;" d="M 989 215 L 1018.664062 215 L 1030.664062 186.785156 L 1042.664062 215 L 1072.332031 215 L 1048.332031 232.4375 L 1056.417969 263.980469 L 1030.664062 246.542969 L 1004.914062 263.980469 L 1017.214844 232.4375 L 989 215 "/>
<path style="fill-rule:nonzero;fill:rgb(35%,70%,90%);fill-opacity:1;stroke-width:1;stroke-linecap:butt;stroke-linejoin:miter;stroke:rgb(0%,0%,0%);stroke-opacity:1;stroke-miterlimit:10;" d="M 709 340 L 738.664062 340 L 750.664062 311.785156 L 762.664062 340 L 792.332031 340 L 768.332031 357.4375 L 776.417969 388.980469 L 750.664062 371.542969 L 724.914062 388.980469 L 737.214844 357.4375 L 709 340 "/>
<path style="fill-rule:nonzero;fill:rgb(53%,27%,7%);fill-opacity:1;stroke-width:1;stroke-linecap:butt;stroke-linejoin:miter;stroke:rgb(0%,0%,0%);stroke-opacity:1;stroke-miterlimit:10;" d="M 890 344 L 864.019531 389 L 915.980469 389 L 890 344 "/>
<path style="fill-rule:nonzero;fill:rgb(35%,70%,90%);fill-opacity:1;stroke-width:1;stroke-linecap:butt;stroke-linejoin:miter;stroke:rgb(0%,0%,0%);stroke-opacity:1;stroke-miterlimit:10;" d="M 884 198 L 913.664062 198 L 925.664062 169.785156 L 937.664062 198 L 967.332031 198 L 943.332031 215.4375 L 951.417969 246.980469 L 925.664062 229.542969 L 899.914062 246.980469 L 912.214844 215.4375 L 884 198 "/>
<path style="fill-rule:nonzero;fill:rgb(35%,70%,90%);fill-opacity:1;stroke-width:1;stroke-linecap:butt;stroke-linejoin:miter;stroke:rgb(0%,0%,0%);stroke-opacity:1;stroke-miterlimit:10;" d="M 789 295 L 818.664062 295 L 830.664062 266.785156 L 842.664062 295 L 872.332031 295 L 848.332031 312.4375 L 856.417969 343.980469 L 830.664062 326.542969 L 804.914062 343.980469 L 817.214844 312.4375 L 789 295 "/>
<path style="fill-rule:nonzero;fill:rgb(53%,27%,7%);fill-opacity:1;stroke-width:1;stroke-linecap:butt;stroke-linejoin:miter;stroke:rgb(0%,0%,0%);stroke-opacity:1;stroke-miterlimit:10;" d="M 802 60 L 776.019531 105 L 827.980469 105 L 802 60 "/>
<path style="fill-rule:nonzero;fill:rgb(35%,70%,90%);fill-opacity:1;stroke-width:1;stroke-linecap:butt;stroke-linejoin:miter;stroke:rgb(0%,0%,0%);stroke-opacity:1;stroke-miterlimit:10;" d="M 1006 422 L 1035.664062 422 L 1047.664062 393.785156 L 1059.664062 422 L 1089.332031 422 L 1065.332031 439.4375 L 1073.417969 470.980469 L 1047.664062 453.542969 L 1021.914062 470.980469 L 1034.214844 439.4375 L 1006 422 "/>
</g>
</svg>
