<?xml version="1.0" encoding="UTF-8"?>
<svg xmlns="http://www.w3.org/2000/svg" xmlns:xlink="http://www.w3.org/1999/xlink" width="1129pt" height="517pt" viewBox="0 0 1129 517" version="1.1">
<g id="surface871">
<rect x="0" y="0" width="1129" height="517" style="fill:rgb(90%,90%,90%);fill-opacity:1;stroke:none;"/>
<path style="fill-rule:nonzero;fill:rgb(53%,27%,7%);fill-opacity:1;stroke-width:1;stroke-linecap:butt;stroke-linejoin:miter;stroke:rgb(0%,0%,0%);stroke-opacity:1;stroke-miterlimit:10;" d="M 334 324 L 363.664062 324 L 375.664062 295.785156 L 387.664062 324 L 417.332031 324 L 393.332031 341.4375 L 401.417969 372.980469 L 375.664062 355.542969 L 349.914062 372.980469 L 362.214844 341.4375 L 334 324 "/>
<path style="fill-rule:nonzero;fill:rgb(53%,27%,7%);fill-opacity:1;stroke-width:1;stroke-linecap:butt;stroke-linejoin:miter;stroke:rgb(0%,0%,0%);stroke-opacity:1;stroke-miterlimit:10;" d="M 218 221 L 247.664062 221 L 259.664062 192.785156 L 271.664062 221 L 301.332031 221 L 277.332031 238.4375 L 285.417969 269.980469 L 259.664062 252.542969 L 233.914062 269.980469 L 246.214844 238.4375 L 218 221 "/>
<path style="fill-rule:nonzero;fill:rgb(53%,27%,7%);fill-opacity:1;stroke-width:1;stroke-linecap:butt;stroke-linejoin:miter;stroke:rgb(0%,0%,0%);stroke-opacity:1;stroke-miterlimit:10;" d="M 360 433 L 389.664062 433 L 401.664062 404.785156 L 413.664062 433 L 443.332031 433 L 419.332031 450.4375 L 427.417969 481.980469 L 401.664062 464.542969 L 375.914062 481.980469 L 388.214844 450.4375 L 360 433 "/>
<path style="fill-rule:nonzero;fill:rgb(53%,27%,7%);fill-opacity:1;stroke-width:1;stroke-linecap:butt;stroke-linejoin:miter;stroke:rgb(0%,0%,0%);stroke-opacity:1;stroke-miterlimit:10;" d="M 678 334 L 707.664062 334 L 719.664062 305.785156 L 731.664062 334 L 761.332031 334 L 737.332031 351.4375 L 745.417969 382.980469 L 719.664062 365.542969 L 693.914062 382.980469 L 706.214844 351.4375 L 678 334 "/>
<path style="fill-rule:nonzero;fill:rgb(53%,27%,7%);fill-opacity:1;stroke-width:1;stroke-linecap:butt;stroke-linejoin:miter;stroke:rgb(0%,0%,0%);stroke-opacity:1;stroke-miterlimit:10;" d="M 488 379 L 517.664062 379 L 529.664062 350.785156 L 541.664062 379 L 571.332031 379 L 547.332031 396.4375 L 555.417969 427.980469 L 529.664062 410.542969 L 503.914062 427.980469 L 516.214844 396.4375 L 488 379 "/>
<path style="fill-rule:nonzero;fill:rgb(55%,51%,53%);fill-opacity:1;stroke-width:1;stroke-linecap:butt;stroke-linejoin:miter;stroke:rgb(0%,0%,0%);stroke-opacity:1;stroke-miterlimit:10;" d="M 642 179 L 671.664062 179 L 683.664062 150.785156 L 695.664062 179 L 725.332031 179 L 701.332031 196.4375 L 709.417969 227.980469 L 683.664062 210.542969 L 657.914062 227.980469 L 670.214844 196.4375 L 642 179 "/>
<path style="fill-rule:nonzero;fill:rgb(55%,51%,53%);fill-opacity:1;stroke-width:1;stroke-linecap:butt;stroke-linejoin:miter;stroke:rgb(0%,0%,0%);stroke-opacity:1;stroke-miterlimit:10;" d="M 156 349 L 185.664062 349 L 197.664062 320.785156 L 209.664062 349 L 239.332031 349 L 215.332031 366.4375 L 223.417969 397.980469 L 197.664062 380.542969 L 171.914062 397.980469 L 184.214844 366.4375 L 156 349 "/>
<path style="fill-rule:nonzero;fill:rgb(55%,51%,53%);fill-opacity:1;stroke-width:1;stroke-linecap:butt;stroke-linejoin:miter;stroke:rgb(0%,0%,0%);stroke-opacity:1;stroke-miterlimit:10;" d="M 956 143 L 985.664062 143 L 997.664062 114.785156 L 1009.664062 143 L 1039.332031 143 L 1015.332031 160.4375 L 1023.417969 191.980469 L 997.664062 174.542969 L 971.914062 191.980469 L 984.214844 160.4375 L 956 143 "/>
<path style="fill-rule:nonzero;fill:rgb(55%,51%,53%);fill-opacity:1;stroke-width:1;stroke-linecap:butt;stroke-linejoin:miter;stroke:rgb(0%,0%,0%);stroke-opacity:1;stroke-miterlimit:10;" d="M 57 146 L 86.664062 146 L 98.664062 117.785156 L 110.664062 146 L 140.332031 146 L 116.332031 163.4375 L 124.417969 194.980469 L 98.664062 177.542969 L 72.914062 194.980469 L 85.214844 163.4375 L 57 146 "/>
<path style="fill-rule:nonzero;fill:rgb(55%,51%,53%);fill-opacity:1;stroke-width:1;stroke-linecap:butt;stroke-linejoin:miter;stroke:rgb(0%,0%,0%);stroke-opacity:1;stroke-miterlimit:10;" d="M 267 427 L 296.664062 427 L 308.664062 398.785156 L 320.664062 427 L 350.332031 427 L 326.332031 444.4375 L 334.417969 475.980469 L 308.664062 458.542969 L 282.914062 475.980469 L 295.214844 444.4375 L 267 427 "/>
<path style="fill-rule:nonzero;fill:rgb(55%,51%,53%);fill-opacity:1;stroke-width:1;stroke-linecap:butt;stroke-linejoin:miter;stroke:rgb(0%,0%,0%);stroke-opacity:1;stroke-miterlimit:10;" d="M 828 257 L 857.664062 257 L 869.664062 228.785156 L 881.664062 257 L 911.332031 257 L 887.332031 274.4375 L 895.417969 305.980469 L 869.664062 288.542969 L 843.914062 305.980469 L 856.214844 274.4375 L 828 257 "/>
<path style="fill-rule:nonzero;fill:rgb(55%,51%,53%);fill-opacity:1;stroke-width:1;stroke-linecap:butt;stroke-linejoin:miter;stroke:rgb(0%,0%,0%);stroke-opacity:1;stroke-miterlimit:10;" d="M 519 263 L 548.664062 263 L 560.664062 234.785156 L 572.664062 263 L 602.332031 263 L 578.332031 280.4375 L 586.417969 311.980469 L 560.664062 294.542969 L 534.914062 311.980469 L 547.214844 280.4375 L 519 263 "/>
<path style="fill-rule:nonzero;fill:rgb(55%,51%,53%);fill-opacity:1;stroke-width:1;stroke-linecap:butt;stroke-linejoin:miter;stroke:rgb(0%,0%,0%);stroke-opacity:1;stroke-miterlimit:10;" d="M 240 62 L 269.664062 62 L 281.664062 33.785156 L 293.664062 62 L 323.332031 62 L 299.332031 79.4375 L 307.417969 110.980469 L 281.664062 93.542969 L 255.914062 110.980469 L 268.214844 79.4375 L 240 62 "/>
</g>
</svg>
