<?xml version="1.0" encoding="UTF-8"?>
<svg xmlns="http://www.w3.org/2000/svg" xmlns:xlink="http://www.w3.org/1999/xlink" width="1129pt" height="517pt" viewBox="0 0 1129 517" version="1.1">
<g id="surface916">
<rect x="0" y="0" width="1129" height="517" style="fill:rgb(90%,90%,90%);fill-opacity:1;stroke:none;"/>
<path style="fill-rule:nonzero;fill:rgb(53%,27%,7%);fill-opacity:1;stroke-width:1;stroke-linecap:butt;stroke-linejoin:miter;stroke:rgb(0%,0%,0%);stroke-opacity:1;stroke-miterlimit:10;" d="M 632 140 L 661.664062 140 L 673.664062 111.785156 L 685.664062 140 L 715.332031 140 L 691.332031 157.4375 L 699.417969 188.980469 L 673.664062 171.542969 L 647.914062 188.980469 L 660.214844 157.4375 L 632 140 "/>
<path style="fill-rule:nonzero;fill:rgb(53%,27%,7%);fill-opacity:1;stroke-width:1;stroke-linecap:butt;stroke-linejoin:miter;stroke:rgb(0%,0%,0%);stroke-opacity:1;stroke-miterlimit:10;" d="M 818 226 L 847.664062 226 L 859.664062 197.785156 L 871.664062 226 L 901.332031 226 L 877.332031 243.4375 L 885.417969 274.980469 L 859.664062 257.542969 L 833.914062 274.980469 L 846.214844 243.4375 L 818 226 "/>
<path style="fill-rule:nonzero;fill:rgb(53%,27%,7%);fill-opacity:1;stroke-width:1;stroke-linecap:butt;stroke-linejoin:miter;stroke:rgb(0%,0%,0%);stroke-opacity:1;stroke-miterlimit:10;" d="M 506 66 L 535.664062 66 L 547.664062 37.785156 L 559.664062 66 L 589.332031 66 L 565.332031 83.4375 L 573.417969 114.980469 L 547.664062 97.542969 L 521.914062 114.980469 L 534.214844 83.4375 L 506 66 "/>
<path style="fill-rule:nonzero;fill:rgb(53%,27%,7%);fill-opacity:1;stroke-width:1;stroke-linecap:butt;stroke-linejoin:miter;stroke:rgb(0%,0%,0%);stroke-opacity:1;stroke-miterlimit:10;" d="M 972 280 L 1001.664062 280 L 1013.664062 251.785156 L 1025.664062 280 L 1055.332031 280 L 1031.332031 297.4375 L 1039.417969 328.980469 L 1013.664062 311.542969 L 987.914062 328.980469 L 1000.214844 297.4375 L 972 280 "/>
<path style="fill-rule:nonzero;fill:rgb(53%,27%,7%);fill-opacity:1;stroke-width:1;stroke-linecap:butt;stroke-linejoin:miter;stroke:rgb(0%,0%,0%);stroke-opacity:1;stroke-miterlimit:10;" d="M 508 211 L 537.664062 211 L 549.664062 182.785156 L 561.664062 211 L 591.332031 211 L 567.332031 228.4375 L 575.417969 259.980469 L 549.664062 242.542969 L 523.914062 259.980469 L 536.214844 228.4375 L 508 211 "/>
<path style="fill-rule:nonzero;fill:rgb(55%,51%,53%);fill-opacity:1;stroke-width:1;stroke-linecap:butt;stroke-linejoin:miter;stroke:rgb(0%,0%,0%);stroke-opacity:1;stroke-miterlimit:10;" d="M 151 122 L 180.664062 122 L 192.664062 93.785156 L 204.664062 122 L 234.332031 122 L 210.332031 139.4375 L 218.417969 170.980469 L 192.664062 153.542969 L 166.914062 170.980469 L 179.214844 139.4375 L 151 122 "/>
<path style="fill-rule:nonzero;fill:rgb(55%,51%,53%);fill-opacity:1;stroke-width:1;stroke-linecap:butt;stroke-linejoin:miter;stroke:rgb(0%,0%,0%);stroke-opacity:1;stroke-miterlimit:10;" d="M 106 424 L 135.664062 424 L 147.664062 395.785156 L 159.664062 424 L 189.332031 424 L 165.332031 441.4375 L 173.417969 472.980469 L 147.664062 455.542969 L 121.914062 472.980469 L 134.214844 441.4375 L 106 424 "/>
<path style="fill-rule:nonzero;fill:rgb(55%,51%,53%);fill-opacity:1;stroke-width:1;stroke-linecap:butt;stroke-linejoin:miter;stroke:rgb(0%,0%,0%);stroke-opacity:1;stroke-miterlimit:10;" d="M 625 287 L 654.664062 287 L 666.664062 258.785156 L 678.664062 287 L 708.332031 287 L 684.332031 304.4375 L 692.417969 335.980469 L 666.664062 318.542969 L 640.914062 335.980469 L 653.214844 304.4375 L 625 287 "/>
<path style="fill-rule:nonzero;fill:rgb(55%,51%,53%);fill-opacity:1;stroke-width:1;stroke-linecap:butt;stroke-linejoin:miter;stroke:rgb(0%,0%,0%);stroke-opacity:1;stroke-miterlimit:10;" d="M 383 117 L 412.664062 117 L 424.664062 88.785156 L 436.664062 117 L 466.332031 117 L 442.332031 134.4375 L 450.417969 165.980469 L 424.664062 148.542969 L 398.914062 165.980469 L 411.214844 134.4375 L 383 117 "/>
<path style="fill-rule:nonzero;fill:rgb(55%,51%,53%);fill-opacity:1;stroke-width:1;stroke-linecap:butt;stroke-linejoin:miter;stroke:rgb(0%,0%,0%);stroke-opacity:1;stroke-miterlimit:10;" d="M 474 400 L 503.664062 400 L 515.664062 371.785156 L 527.664062 400 L 557.332031 400 L 533.332031 417.4375 L 541.417969 448.980469 L 515.664062 431.542969 L 489.914062 448.980469 L 502.214844 417.4375 L 474 400 "/>
<path style="fill-rule:nonzero;fill:rgb(55%,51%,53%);fill-opacity:1;stroke-width:1;stroke-linecap:butt;stroke-linejoin:miter;stroke:rgb(0%,0%,0%);stroke-opacity:1;stroke-miterlimit:10;" d="M 830 451 L 859.664062 451 L 871.664062 422.785156 L 883.664062 451 L 913.332031 451 L 889.332031 468.4375 L 897.417969 499.980469 L 871.664062 482.542969 L 845.914062 499.980469 L 858.214844 468.4375 L 830 451 "/>
<path style="fill-rule:nonzero;fill:rgb(55%,51%,53%);fill-opacity:1;stroke-width:1;stroke-linecap:butt;stroke-linejoin:miter;stroke:rgb(0%,0%,0%);stroke-opacity:1;stroke-miterlimit:10;" d="M 676 410 L 705.664062 410 L 717.664062 381.785156 L 729.664062 410 L 759.332031 410 L 735.332031 427.4375 L 743.417969 458.980469 L 717.664062 441.542969 L 691.914062 458.980469 L 704.214844 427.4375 L 676 410 "/>
<path style="fill-rule:nonzero;fill:rgb(55%,51%,53%);fill-opacity:1;stroke-width:1;stroke-linecap:butt;stroke-linejoin:miter;stroke:rgb(0%,0%,0%);stroke-opacity:1;stroke-miterlimit:10;" d="M 747 284 L 776.664062 284 L 788.664062 255.785156 L 800.664062 284 L 830.332031 284 L 806.332031 301.4375 L 814.417969 332.980469 L 788.664062 315.542969 L 762.914062 332.980469 L 775.214844 301.4375 L 747 284 "/>
</g>
</svg>
