<?xml version="1.0" encoding="UTF-8"?>
<svg xmlns="http://www.w3.org/2000/svg" xmlns:xlink="http://www.w3.org/1999/xlink" width="1129pt" height="517pt" viewBox="0 0 1129 517" version="1.1">
<g id="surface166">
<rect x="0" y="0" width="1129" height="517" style="fill:rgb(90%,90%,90%);fill-opacity:1;stroke:none;"/>
<path style="fill-rule:nonzero;fill:rgb(55%,51%,53%);fill-opacity:1;stroke-width:1;stroke-linecap:butt;stroke-linejoin:miter;stroke:rgb(0%,0%,0%);stroke-opacity:1;stroke-miterlimit:10;" d="M 317.214844 257 C 317.214844 268.714844 307.714844 278.214844 296 278.214844 C 284.285156 278.214844 274.785156 268.714844 274.785156 257 C 274.785156 245.285156 284.285156 235.785156 296 235.785156 C 307.714844 235.785156 317.214844 245.285156 317.214844 257 "/>
<path style="fill-rule:nonzero;fill:rgb(55%,51%,53%);fill-opacity:1;stroke-width:1;stroke-linecap:butt;stroke-linejoin:miter;stroke:rgb(0%,0%,0%);stroke-opacity:1;stroke-miterlimit:10;" d="M 192.214844 280 C 192.214844 291.714844 182.714844 301.214844 171 301.214844 C 159.285156 301.214844 149.785156 291.714844 149.785156 280 C 149.785156 268.285156 159.285156 258.785156 171 258.785156 C 182.714844 258.785156 192.214844 268.285156 192.214844 280 "/>
<path style="fill-rule:nonzero;fill:rgb(55%,51%,53%);fill-opacity:1;stroke-width:1;stroke-linecap:butt;stroke-linejoin:miter;stroke:rgb(0%,0%,0%);stroke-opacity:1;stroke-miterlimit:10;" d="M 406 283 L 380.019531 328 L 431.980469 328 L 406 283 "/>
<path style="fill-rule:nonzero;fill:rgb(55%,51%,53%);fill-opacity:1;stroke-width:1;stroke-linecap:butt;stroke-linejoin:miter;stroke:rgb(0%,0%,0%);stroke-opacity:1;stroke-miterlimit:10;" d="M 182.214844 85 C 182.214844 96.714844 172.714844 106.214844 161 106.214844 C 149.285156 106.214844 139.785156 96.714844 139.785156 85 C 139.785156 73.285156 149.285156 63.785156 161 63.785156 C 172.714844 63.785156 182.214844 73.285156 182.214844 85 "/>
<path style="fill-rule:nonzero;fill:rgb(55%,51%,53%);fill-opacity:1;stroke-width:1;stroke-linecap:butt;stroke-linejoin:miter;stroke:rgb(0%,0%,0%);stroke-opacity:1;stroke-miterlimit:10;" d="M 149.214844 362 C 149.214844 373.714844 139.714844 383.214844 128 383.214844 C 116.285156 383.214844 106.785156 373.714844 106.785156 362 C 106.785156 350.285156 116.285156 340.785156 128 340.785156 C 139.714844 340.785156 149.214844 350.285156 149.214844 362 "/>
<path style="fill-rule:nonzero;fill:rgb(55%,51%,53%);fill-opacity:1;stroke-width:1;stroke-linecap:butt;stroke-linejoin:miter;stroke:rgb(0%,0%,0%);stroke-opacity:1;stroke-miterlimit:10;" d="M 85.214844 444 C 85.214844 455.714844 75.714844 465.214844 64 465.214844 C 52.285156 465.214844 42.785156 455.714844 42.785156 444 C 42.785156 432.285156 52.285156 422.785156 64 422.785156 C 75.714844 422.785156 85.214844 432.285156 85.214844 444 "/>
<path style="fill-rule:nonzero;fill:rgb(55%,51%,53%);fill-opacity:1;stroke-width:1;stroke-linecap:butt;stroke-linejoin:miter;stroke:rgb(0%,0%,0%);stroke-opacity:1;stroke-miterlimit:10;" d="M 105.214844 204 C 105.214844 215.714844 95.714844 225.214844 84 225.214844 C 72.285156 225.214844 62.785156 215.714844 62.785156 204 C 62.785156 192.285156 72.285156 182.785156 84 182.785156 C 95.714844 182.785156 105.214844 192.285156 105.214844 204 "/>
<path style="fill-rule:nonzero;fill:rgb(53%,27%,7%);fill-opacity:1;stroke-width:1;stroke-linecap:butt;stroke-linejoin:miter;stroke:rgb(0%,0%,0%);stroke-opacity:1;stroke-miterlimit:10;" d="M 735 86 L 709.019531 131 L 760.980469 131 L 735 86 "/>
<path style="fill-rule:nonzero;fill:rgb(53%,27%,7%);fill-opacity:1;stroke-width:1;stroke-linecap:butt;stroke-linejoin:miter;stroke:rgb(0%,0%,0%);stroke-opacity:1;stroke-miterlimit:10;" d="M 998 191 L 972.019531 236 L 1023.980469 236 L 998 191 "/>
<path style="fill-rule:nonzero;fill:rgb(53%,27%,7%);fill-opacity:1;stroke-width:1;stroke-linecap:butt;stroke-linejoin:miter;stroke:rgb(0%,0%,0%);stroke-opacity:1;stroke-miterlimit:10;" d="M 964.214844 339 C 964.214844 350.714844 954.714844 360.214844 943 360.214844 C 931.285156 360.214844 921.785156 350.714844 921.785156 339 C 921.785156 327.285156 931.285156 317.785156 943 317.785156 C 954.714844 317.785156 964.214844 327.285156 964.214844 339 "/>
<path style="fill-rule:nonzero;fill:rgb(53%,27%,7%);fill-opacity:1;stroke-width:1;stroke-linecap:butt;stroke-linejoin:miter;stroke:rgb(0%,0%,0%);stroke-opacity:1;stroke-miterlimit:10;" d="M 854 59 L 828.019531 104 L 879.980469 104 L 854 59 "/>
</g>
</svg>
