<?xml version="1.0" encoding="UTF-8"?>
<svg xmlns="http://www.w3.org/2000/svg" xmlns:xlink="http://www.w3.org/1999/xlink" width="1129pt" height="517pt" viewBox="0 0 1129 517" version="1.1">
<g id="surface871">
<rect x="0" y="0" width="1129" height="517" style="fill:rgb(90%,90%,90%);fill-opacity:1;stroke:none;"/>
<path style="fill-rule:nonzero;fill:rgb(53%,27%,7%);fill-opacity:1;stroke-width:1;stroke-linecap:butt;stroke-linejoin:miter;stroke:rgb(0%,0%,0%);stroke-opacity:1;stroke-miterlimit:10;" d="M 288 455 L 317.664062 455 L 329.664062 426.785156 L 341.664062 455 L 371.332031 455 L 347.332031 472.4375 L 355.417969 503.980469 L 329.664062 486.542969 L 303.914062 503.980469 L 316.214844 472.4375 L 288 455 "/>
<path style="fill-rule:nonzero;fill:rgb(53%,27%,7%);fill-opacity:1;stroke-width:1;stroke-linecap:butt;stroke-linejoin:miter;stroke:rgb(0%,0%,0%);stroke-opacity:1;stroke-miterlimit:10;" d="M 551 58 L 580.664062 58 L 592.664062 29.785156 L 604.664062 58 L 634.332031 58 L 610.332031 75.4375 L 618.417969 106.980469 L 592.664062 89.542969 L 566.914062 106.980469 L 579.214844 75.4375 L 551 58 "/>
<path style="fill-rule:nonzero;fill:rgb(53%,27%,7%);fill-opacity:1;stroke-width:1;stroke-linecap:butt;stroke-linejoin:miter;stroke:rgb(0%,0%,0%);stroke-opacity:1;stroke-miterlimit:10;" d="M 83 318 L 112.664062 318 L 124.664062 289.785156 L 136.664062 318 L 166.332031 318 L 142.332031 335.4375 L 150.417969 366.980469 L 124.664062 349.542969 L 98.914062 366.980469 L 111.214844 335.4375 L 83 318 "/>
<path style="fill-rule:nonzero;fill:rgb(53%,27%,7%);fill-opacity:1;stroke-width:1;stroke-linecap:butt;stroke-linejoin:miter;stroke:rgb(0%,0%,0%);stroke-opacity:1;stroke-miterlimit:10;" d="M 65 149 L 94.664062 149 L 106.664062 120.785156 L 118.664062 149 L 148.332031 149 L 124.332031 166.4375 L 132.417969 197.980469 L 106.664062 180.542969 L 80.914062 197.980469 L 93.214844 166.4375 L 65 149 "/>
<path style="fill-rule:nonzero;fill:rgb(53%,27%,7%);fill-opacity:1;stroke-width:1;stroke-linecap:butt;stroke-linejoin:miter;stroke:rgb(0%,0%,0%);stroke-opacity:1;stroke-miterlimit:10;" d="M 507 334 L 536.664062 334 L 548.664062 305.785156 L 560.664062 334 L 590.332031 334 L 566.332031 351.4375 L 574.417969 382.980469 L 548.664062 365.542969 L 522.914062 382.980469 L 535.214844 351.4375 L 507 334 "/>
<path style="fill-rule:nonzero;fill:rgb(55%,51%,53%);fill-opacity:1;stroke-width:1;stroke-linecap:butt;stroke-linejoin:miter;stroke:rgb(0%,0%,0%);stroke-opacity:1;stroke-miterlimit:10;" d="M 362 92 L 391.664062 92 L 403.664062 63.785156 L 415.664062 92 L 445.332031 92 L 421.332031 109.4375 L 429.417969 140.980469 L 403.664062 123.542969 L 377.914062 140.980469 L 390.214844 109.4375 L 362 92 "/>
<path style="fill-rule:nonzero;fill:rgb(55%,51%,53%);fill-opacity:1;stroke-width:1;stroke-linecap:butt;stroke-linejoin:miter;stroke:rgb(0%,0%,0%);stroke-opacity:1;stroke-miterlimit:10;" d="M 841 106 L 870.664062 106 L 882.664062 77.785156 L 894.664062 106 L 924.332031 106 L 900.332031 123.4375 L 908.417969 154.980469 L 882.664062 137.542969 L 856.914062 154.980469 L 869.214844 123.4375 L 841 106 "/>
<path style="fill-rule:nonzero;fill:rgb(55%,51%,53%);fill-opacity:1;stroke-width:1;stroke-linecap:butt;stroke-linejoin:miter;stroke:rgb(0%,0%,0%);stroke-opacity:1;stroke-miterlimit:10;" d="M 226 214 L 255.664062 214 L 267.664062 185.785156 L 279.664062 214 L 309.332031 214 L 285.332031 231.4375 L 293.417969 262.980469 L 267.664062 245.542969 L 241.914062 262.980469 L 254.214844 231.4375 L 226 214 "/>
<path style="fill-rule:nonzero;fill:rgb(55%,51%,53%);fill-opacity:1;stroke-width:1;stroke-linecap:butt;stroke-linejoin:miter;stroke:rgb(0%,0%,0%);stroke-opacity:1;stroke-miterlimit:10;" d="M 601 306 L 630.664062 306 L 642.664062 277.785156 L 654.664062 306 L 684.332031 306 L 660.332031 323.4375 L 668.417969 354.980469 L 642.664062 337.542969 L 616.914062 354.980469 L 629.214844 323.4375 L 601 306 "/>
<path style="fill-rule:nonzero;fill:rgb(55%,51%,53%);fill-opacity:1;stroke-width:1;stroke-linecap:butt;stroke-linejoin:miter;stroke:rgb(0%,0%,0%);stroke-opacity:1;stroke-miterlimit:10;" d="M 564 214 L 593.664062 214 L 605.664062 185.785156 L 617.664062 214 L 647.332031 214 L 623.332031 231.4375 L 631.417969 262.980469 L 605.664062 245.542969 L 579.914062 262.980469 L 592.214844 231.4375 L 564 214 "/>
<path style="fill-rule:nonzero;fill:rgb(55%,51%,53%);fill-opacity:1;stroke-width:1;stroke-linecap:butt;stroke-linejoin:miter;stroke:rgb(0%,0%,0%);stroke-opacity:1;stroke-miterlimit:10;" d="M 391 227 L 420.664062 227 L 432.664062 198.785156 L 444.664062 227 L 474.332031 227 L 450.332031 244.4375 L 458.417969 275.980469 L 432.664062 258.542969 L 406.914062 275.980469 L 419.214844 244.4375 L 391 227 "/>
<path style="fill-rule:nonzero;fill:rgb(55%,51%,53%);fill-opacity:1;stroke-width:1;stroke-linecap:butt;stroke-linejoin:miter;stroke:rgb(0%,0%,0%);stroke-opacity:1;stroke-miterlimit:10;" d="M 132 444 L 161.664062 444 L 173.664062 415.785156 L 185.664062 444 L 215.332031 444 L 191.332031 461.4375 L 199.417969 492.980469 L 173.664062 475.542969 L 147.914062 492.980469 L 160.214844 461.4375 L 132 444 "/>
<path style="fill-rule:nonzero;fill:rgb(55%,51%,53%);fill-opacity:1;stroke-width:1;stroke-linecap:butt;stroke-linejoin:miter;stroke:rgb(0%,0%,0%);stroke-opacity:1;stroke-miterlimit:10;" d="M 146 74 L 175.664062 74 L 187.664062 45.785156 L 199.664062 74 L 229.332031 74 L 205.332031 91.4375 L 213.417969 122.980469 L 187.664062 105.542969 L 161.914062 122.980469 L 174.214844 91.4375 L 146 74 "/>
</g>
</svg>
