<?xml version="1.0" encoding="UTF-8"?>
<svg xmlns="http://www.w3.org/2000/svg" xmlns:xlink="http://www.w3.org/1999/xlink" width="1179pt" height="517pt" viewBox="0 0 1179 517" version="1.1">
<g id="surface96">
<rect x="0" y="0" width="1179" height="517" style="fill:rgb(90%,90%,90%);fill-opacity:1;stroke:none;"/>
<path style="fill-rule:nonzero;fill:rgb(100%,51%,0%);fill-opacity:1;stroke-width:1;stroke-linecap:butt;stroke-linejoin:miter;stroke:rgb(0%,0%,0%);stroke-opacity:1;stroke-miterlimit:10;" d="M 267 326 L 296.664062 326 L 308.664062 297.785156 L 320.664062 326 L 350.332031 326 L 326.332031 343.4375 L 334.417969 374.980469 L 308.664062 357.542969 L 282.914062 374.980469 L 295.214844 343.4375 L 267 326 "/>
<path style="fill-rule:nonzero;fill:rgb(53%,27%,7%);fill-opacity:1;stroke-width:1;stroke-linecap:butt;stroke-linejoin:miter;stroke:rgb(0%,0%,0%);stroke-opacity:1;stroke-miterlimit:10;" d="M 286 131 L 260.019531 176 L 311.980469 176 L 286 131 "/>
<path style="fill-rule:nonzero;fill:rgb(100%,51%,0%);fill-opacity:1;stroke-width:1;stroke-linecap:butt;stroke-linejoin:miter;stroke:rgb(0%,0%,0%);stroke-opacity:1;stroke-miterlimit:10;" d="M 375 82 L 404.664062 82 L 416.664062 53.785156 L 428.664062 82 L 458.332031 82 L 434.332031 99.4375 L 442.417969 130.980469 L 416.664062 113.542969 L 390.914062 130.980469 L 403.214844 99.4375 L 375 82 "/>
<path style="fill-rule:nonzero;fill:rgb(100%,51%,0%);fill-opacity:1;stroke-width:1;stroke-linecap:butt;stroke-linejoin:miter;stroke:rgb(0%,0%,0%);stroke-opacity:1;stroke-miterlimit:10;" d="M 174 149 L 203.664062 149 L 215.664062 120.785156 L 227.664062 149 L 257.332031 149 L 233.332031 166.4375 L 241.417969 197.980469 L 215.664062 180.542969 L 189.914062 197.980469 L 202.214844 166.4375 L 174 149 "/>
<path style="fill-rule:nonzero;fill:rgb(100%,51%,0%);fill-opacity:1;stroke-width:1;stroke-linecap:butt;stroke-linejoin:miter;stroke:rgb(0%,0%,0%);stroke-opacity:1;stroke-miterlimit:10;" d="M 192 376 L 221.664062 376 L 233.664062 347.785156 L 245.664062 376 L 275.332031 376 L 251.332031 393.4375 L 259.417969 424.980469 L 233.664062 407.542969 L 207.914062 424.980469 L 220.214844 393.4375 L 192 376 "/>
<path style="fill-rule:nonzero;fill:rgb(100%,51%,0%);fill-opacity:1;stroke-width:1;stroke-linecap:butt;stroke-linejoin:miter;stroke:rgb(0%,0%,0%);stroke-opacity:1;stroke-miterlimit:10;" d="M 431 355 L 460.664062 355 L 472.664062 326.785156 L 484.664062 355 L 514.332031 355 L 490.332031 372.4375 L 498.417969 403.980469 L 472.664062 386.542969 L 446.914062 403.980469 L 459.214844 372.4375 L 431 355 "/>
<path style="fill-rule:nonzero;fill:rgb(100%,51%,0%);fill-opacity:1;stroke-width:1;stroke-linecap:butt;stroke-linejoin:miter;stroke:rgb(0%,0%,0%);stroke-opacity:1;stroke-miterlimit:10;" d="M 912 144 L 941.664062 144 L 953.664062 115.785156 L 965.664062 144 L 995.332031 144 L 971.332031 161.4375 L 979.417969 192.980469 L 953.664062 175.542969 L 927.914062 192.980469 L 940.214844 161.4375 L 912 144 "/>
<path style="fill-rule:nonzero;fill:rgb(100%,51%,0%);fill-opacity:1;stroke-width:1;stroke-linecap:butt;stroke-linejoin:miter;stroke:rgb(0%,0%,0%);stroke-opacity:1;stroke-miterlimit:10;" d="M 783 85 L 812.664062 85 L 824.664062 56.785156 L 836.664062 85 L 866.332031 85 L 842.332031 102.4375 L 850.417969 133.980469 L 824.664062 116.542969 L 798.914062 133.980469 L 811.214844 102.4375 L 783 85 "/>
<path style="fill-rule:nonzero;fill:rgb(100%,51%,0%);fill-opacity:1;stroke-width:1;stroke-linecap:butt;stroke-linejoin:miter;stroke:rgb(0%,0%,0%);stroke-opacity:1;stroke-miterlimit:10;" d="M 771 314 L 800.664062 314 L 812.664062 285.785156 L 824.664062 314 L 854.332031 314 L 830.332031 331.4375 L 838.417969 362.980469 L 812.664062 345.542969 L 786.914062 362.980469 L 799.214844 331.4375 L 771 314 "/>
<path style="fill-rule:nonzero;fill:rgb(100%,51%,0%);fill-opacity:1;stroke-width:1;stroke-linecap:butt;stroke-linejoin:miter;stroke:rgb(0%,0%,0%);stroke-opacity:1;stroke-miterlimit:10;" d="M 1013 370 L 1042.664062 370 L 1054.664062 341.785156 L 1066.664062 370 L 1096.332031 370 L 1072.332031 387.4375 L 1080.417969 418.980469 L 1054.664062 401.542969 L 1028.914062 418.980469 L 1041.214844 387.4375 L 1013 370 "/>
<path style="fill-rule:nonzero;fill:rgb(100%,51%,0%);fill-opacity:1;stroke-width:1;stroke-linecap:butt;stroke-linejoin:miter;stroke:rgb(0%,0%,0%);stroke-opacity:1;stroke-miterlimit:10;" d="M 923 296 L 952.664062 296 L 964.664062 267.785156 L 976.664062 296 L 1006.332031 296 L 982.332031 313.4375 L 990.417969 344.980469 L 964.664062 327.542969 L 938.914062 344.980469 L 951.214844 313.4375 L 923 296 "/>
<path style="fill-rule:nonzero;fill:rgb(53%,27%,7%);fill-opacity:1;stroke-width:1;stroke-linecap:butt;stroke-linejoin:miter;stroke:rgb(0%,0%,0%);stroke-opacity:1;stroke-miterlimit:10;" d="M 1029 222 L 1003.019531 267 L 1054.980469 267 L 1029 222 "/>
<path style="fill-rule:nonzero;fill:rgb(100%,51%,0%);fill-opacity:1;stroke-width:1;stroke-linecap:butt;stroke-linejoin:miter;stroke:rgb(0%,0%,0%);stroke-opacity:1;stroke-miterlimit:10;" d="M 881 382 L 910.664062 382 L 922.664062 353.785156 L 934.664062 382 L 964.332031 382 L 940.332031 399.4375 L 948.417969 430.980469 L 922.664062 413.542969 L 896.914062 430.980469 L 909.214844 399.4375 L 881 382 "/>
<path style="fill-rule:nonzero;fill:rgb(53%,27%,7%);fill-opacity:1;stroke-width:1;stroke-linecap:butt;stroke-linejoin:miter;stroke:rgb(0%,0%,0%);stroke-opacity:1;stroke-miterlimit:10;" d="M 1014 56 L 988.019531 101 L 1039.980469 101 L 1014 56 "/>
</g>
</svg>
