<?xml version="1.0" encoding="UTF-8"?>
<svg xmlns="http://www.w3.org/2000/svg" xmlns:xlink="http://www.w3.org/1999/xlink" width="1129pt" height="517pt" viewBox="0 0 1129 517" version="1.1">
<g id="surface676">
<rect x="0" y="0" width="1129" height="517" style="fill:rgb(90%,90%,90%);fill-opacity:1;stroke:none;"/>
<path style="fill-rule:nonzero;fill:rgb(100%,51%,0%);fill-opacity:1;stroke-width:1;stroke-linecap:butt;stroke-linejoin:miter;stroke:rgb(0%,0%,0%);stroke-opacity:1;stroke-miterlimit:10;" d="M 174.214844 197 C 174.214844 208.714844 164.714844 218.214844 153 218.214844 C 141.285156 218.214844 131.785156 208.714844 131.785156 197 C 131.785156 185.285156 141.285156 175.785156 153 175.785156 C 164.714844 175.785156 174.214844 185.285156 174.214844 197 "/>
<path style="fill-rule:nonzero;fill:rgb(55%,51%,53%);fill-opacity:1;stroke-width:1;stroke-linecap:butt;stroke-linejoin:miter;stroke:rgb(0%,0%,0%);stroke-opacity:1;stroke-miterlimit:10;" d="M 380.214844 295 C 380.214844 306.714844 370.714844 316.214844 359 316.214844 C 347.285156 316.214844 337.785156 306.714844 337.785156 295 C 337.785156 283.285156 347.285156 273.785156 359 273.785156 C 370.714844 273.785156 380.214844 283.285156 380.214844 295 "/>
<path style="fill-rule:nonzero;fill:rgb(100%,51%,0%);fill-opacity:1;stroke-width:1;stroke-linecap:butt;stroke-linejoin:miter;stroke:rgb(0%,0%,0%);stroke-opacity:1;stroke-miterlimit:10;" d="M 401.214844 422 C 401.214844 433.714844 391.714844 443.214844 380 443.214844 C 368.285156 443.214844 358.785156 433.714844 358.785156 422 C 358.785156 410.285156 368.285156 400.785156 380 400.785156 C 391.714844 400.785156 401.214844 410.285156 401.214844 422 "/>
<path style="fill-rule:nonzero;fill:rgb(55%,51%,53%);fill-opacity:1;stroke-width:1;stroke-linecap:butt;stroke-linejoin:miter;stroke:rgb(0%,0%,0%);stroke-opacity:1;stroke-miterlimit:10;" d="M 141.214844 319 C 141.214844 330.714844 131.714844 340.214844 120 340.214844 C 108.285156 340.214844 98.785156 330.714844 98.785156 319 C 98.785156 307.285156 108.285156 297.785156 120 297.785156 C 131.714844 297.785156 141.214844 307.285156 141.214844 319 "/>
<path style="fill-rule:nonzero;fill:rgb(100%,51%,0%);fill-opacity:1;stroke-width:1;stroke-linecap:butt;stroke-linejoin:miter;stroke:rgb(0%,0%,0%);stroke-opacity:1;stroke-miterlimit:10;" d="M 259.214844 52 C 259.214844 63.714844 249.714844 73.214844 238 73.214844 C 226.285156 73.214844 216.785156 63.714844 216.785156 52 C 216.785156 40.285156 226.285156 30.785156 238 30.785156 C 249.714844 30.785156 259.214844 40.285156 259.214844 52 "/>
<path style="fill-rule:nonzero;fill:rgb(100%,51%,0%);fill-opacity:1;stroke-width:1;stroke-linecap:butt;stroke-linejoin:miter;stroke:rgb(0%,0%,0%);stroke-opacity:1;stroke-miterlimit:10;" d="M 224.214844 446 C 224.214844 457.714844 214.714844 467.214844 203 467.214844 C 191.285156 467.214844 181.785156 457.714844 181.785156 446 C 181.785156 434.285156 191.285156 424.785156 203 424.785156 C 214.714844 424.785156 224.214844 434.285156 224.214844 446 "/>
<path style="fill-rule:nonzero;fill:rgb(100%,51%,0%);fill-opacity:1;stroke-width:1;stroke-linecap:butt;stroke-linejoin:miter;stroke:rgb(0%,0%,0%);stroke-opacity:1;stroke-miterlimit:10;" d="M 140.214844 113 C 140.214844 124.714844 130.714844 134.214844 119 134.214844 C 107.285156 134.214844 97.785156 124.714844 97.785156 113 C 97.785156 101.285156 107.285156 91.785156 119 91.785156 C 130.714844 91.785156 140.214844 101.285156 140.214844 113 "/>
<path style="fill-rule:nonzero;fill:rgb(100%,51%,0%);fill-opacity:1;stroke-width:1;stroke-linecap:butt;stroke-linejoin:miter;stroke:rgb(0%,0%,0%);stroke-opacity:1;stroke-miterlimit:10;" d="M 475.214844 294 C 475.214844 305.714844 465.714844 315.214844 454 315.214844 C 442.285156 315.214844 432.785156 305.714844 432.785156 294 C 432.785156 282.285156 442.285156 272.785156 454 272.785156 C 465.714844 272.785156 475.214844 282.285156 475.214844 294 "/>
<path style="fill-rule:nonzero;fill:rgb(55%,51%,53%);fill-opacity:1;stroke-width:1;stroke-linecap:butt;stroke-linejoin:miter;stroke:rgb(0%,0%,0%);stroke-opacity:1;stroke-miterlimit:10;" d="M 640 288 L 614.019531 333 L 665.980469 333 L 640 288 "/>
<path style="fill-rule:nonzero;fill:rgb(100%,51%,0%);fill-opacity:1;stroke-width:1;stroke-linecap:butt;stroke-linejoin:miter;stroke:rgb(0%,0%,0%);stroke-opacity:1;stroke-miterlimit:10;" d="M 771 342 L 745.019531 387 L 796.980469 387 L 771 342 "/>
<path style="fill-rule:nonzero;fill:rgb(55%,51%,53%);fill-opacity:1;stroke-width:1;stroke-linecap:butt;stroke-linejoin:miter;stroke:rgb(0%,0%,0%);stroke-opacity:1;stroke-miterlimit:10;" d="M 840 132 L 814.019531 177 L 865.980469 177 L 840 132 "/>
<path style="fill-rule:nonzero;fill:rgb(100%,51%,0%);fill-opacity:1;stroke-width:1;stroke-linecap:butt;stroke-linejoin:miter;stroke:rgb(0%,0%,0%);stroke-opacity:1;stroke-miterlimit:10;" d="M 994 323 L 968.019531 368 L 1019.980469 368 L 994 323 "/>
<path style="fill-rule:nonzero;fill:rgb(55%,51%,53%);fill-opacity:1;stroke-width:1;stroke-linecap:butt;stroke-linejoin:miter;stroke:rgb(0%,0%,0%);stroke-opacity:1;stroke-miterlimit:10;" d="M 683 379 L 657.019531 424 L 708.980469 424 L 683 379 "/>
<path style="fill-rule:nonzero;fill:rgb(55%,51%,53%);fill-opacity:1;stroke-width:1;stroke-linecap:butt;stroke-linejoin:miter;stroke:rgb(0%,0%,0%);stroke-opacity:1;stroke-miterlimit:10;" d="M 649 49 L 623.019531 94 L 674.980469 94 L 649 49 "/>
<path style="fill-rule:nonzero;fill:rgb(55%,51%,53%);fill-opacity:1;stroke-width:1;stroke-linecap:butt;stroke-linejoin:miter;stroke:rgb(0%,0%,0%);stroke-opacity:1;stroke-miterlimit:10;" d="M 1010 121 L 984.019531 166 L 1035.980469 166 L 1010 121 "/>
</g>
</svg>
