<?xml version="1.0" encoding="UTF-8"?>
<svg xmlns="http://www.w3.org/2000/svg" xmlns:xlink="http://www.w3.org/1999/xlink" width="1129pt" height="517pt" viewBox="0 0 1129 517" version="1.1">
<g id="surface311">
<rect x="0" y="0" width="1129" height="517" style="fill:rgb(90%,90%,90%);fill-opacity:1;stroke:none;"/>
<path style="fill-rule:nonzero;fill:rgb(100%,51%,0%);fill-opacity:1;stroke-width:1;stroke-linecap:butt;stroke-linejoin:miter;stroke:rgb(0%,0%,0%);stroke-opacity:1;stroke-miterlimit:10;" d="M 251 266 L 280.664062 266 L 292.664062 237.785156 L 304.664062 266 L 334.332031 266 L 310.332031 283.4375 L 318.417969 314.980469 L 292.664062 297.542969 L 266.914062 314.980469 L 279.214844 283.4375 L 251 266 "/>
<path style="fill-rule:nonzero;fill:rgb(55%,51%,53%);fill-opacity:1;stroke-width:1;stroke-linecap:butt;stroke-linejoin:miter;stroke:rgb(0%,0%,0%);stroke-opacity:1;stroke-miterlimit:10;" d="M 260 163 L 289.664062 163 L 301.664062 134.785156 L 313.664062 163 L 343.332031 163 L 319.332031 180.4375 L 327.417969 211.980469 L 301.664062 194.542969 L 275.914062 211.980469 L 288.214844 180.4375 L 260 163 "/>
<path style="fill-rule:nonzero;fill:rgb(55%,51%,53%);fill-opacity:1;stroke-width:1;stroke-linecap:butt;stroke-linejoin:miter;stroke:rgb(0%,0%,0%);stroke-opacity:1;stroke-miterlimit:10;" d="M 109 225 L 138.664062 225 L 150.664062 196.785156 L 162.664062 225 L 192.332031 225 L 168.332031 242.4375 L 176.417969 273.980469 L 150.664062 256.542969 L 124.914062 273.980469 L 137.214844 242.4375 L 109 225 "/>
<path style="fill-rule:nonzero;fill:rgb(100%,51%,0%);fill-opacity:1;stroke-width:1;stroke-linecap:butt;stroke-linejoin:miter;stroke:rgb(0%,0%,0%);stroke-opacity:1;stroke-miterlimit:10;" d="M 216 409 L 245.664062 409 L 257.664062 380.785156 L 269.664062 409 L 299.332031 409 L 275.332031 426.4375 L 283.417969 457.980469 L 257.664062 440.542969 L 231.914062 457.980469 L 244.214844 426.4375 L 216 409 "/>
<path style="fill-rule:nonzero;fill:rgb(100%,51%,0%);fill-opacity:1;stroke-width:1;stroke-linecap:butt;stroke-linejoin:miter;stroke:rgb(0%,0%,0%);stroke-opacity:1;stroke-miterlimit:10;" d="M 119 61 L 148.664062 61 L 160.664062 32.785156 L 172.664062 61 L 202.332031 61 L 178.332031 78.4375 L 186.417969 109.980469 L 160.664062 92.542969 L 134.914062 109.980469 L 147.214844 78.4375 L 119 61 "/>
<path style="fill-rule:nonzero;fill:rgb(55%,51%,53%);fill-opacity:1;stroke-width:1;stroke-linecap:butt;stroke-linejoin:miter;stroke:rgb(0%,0%,0%);stroke-opacity:1;stroke-miterlimit:10;" d="M 792.785156 148.785156 L 792.785156 191.214844 L 835.214844 191.214844 L 835.214844 148.785156 L 792.785156 148.785156 "/>
<path style="fill-rule:nonzero;fill:rgb(100%,51%,0%);fill-opacity:1;stroke-width:1;stroke-linecap:butt;stroke-linejoin:miter;stroke:rgb(0%,0%,0%);stroke-opacity:1;stroke-miterlimit:10;" d="M 997.785156 171.785156 L 997.785156 214.214844 L 1040.214844 214.214844 L 1040.214844 171.785156 L 997.785156 171.785156 "/>
<path style="fill-rule:nonzero;fill:rgb(100%,51%,0%);fill-opacity:1;stroke-width:1;stroke-linecap:butt;stroke-linejoin:miter;stroke:rgb(0%,0%,0%);stroke-opacity:1;stroke-miterlimit:10;" d="M 738.785156 399.785156 L 738.785156 442.214844 L 781.214844 442.214844 L 781.214844 399.785156 L 738.785156 399.785156 "/>
<path style="fill-rule:nonzero;fill:rgb(55%,51%,53%);fill-opacity:1;stroke-width:1;stroke-linecap:butt;stroke-linejoin:miter;stroke:rgb(0%,0%,0%);stroke-opacity:1;stroke-miterlimit:10;" d="M 612.785156 229.785156 L 612.785156 272.214844 L 655.214844 272.214844 L 655.214844 229.785156 L 612.785156 229.785156 "/>
<path style="fill-rule:nonzero;fill:rgb(55%,51%,53%);fill-opacity:1;stroke-width:1;stroke-linecap:butt;stroke-linejoin:miter;stroke:rgb(0%,0%,0%);stroke-opacity:1;stroke-miterlimit:10;" d="M 708.785156 54.785156 L 708.785156 97.214844 L 751.214844 97.214844 L 751.214844 54.785156 L 708.785156 54.785156 "/>
<path style="fill-rule:nonzero;fill:rgb(55%,51%,53%);fill-opacity:1;stroke-width:1;stroke-linecap:butt;stroke-linejoin:miter;stroke:rgb(0%,0%,0%);stroke-opacity:1;stroke-miterlimit:10;" d="M 883.785156 58.785156 L 883.785156 101.214844 L 926.214844 101.214844 L 926.214844 58.785156 L 883.785156 58.785156 "/>
<path style="fill-rule:nonzero;fill:rgb(55%,51%,53%);fill-opacity:1;stroke-width:1;stroke-linecap:butt;stroke-linejoin:miter;stroke:rgb(0%,0%,0%);stroke-opacity:1;stroke-miterlimit:10;" d="M 993.785156 56.785156 L 993.785156 99.214844 L 1036.214844 99.214844 L 1036.214844 56.785156 L 993.785156 56.785156 "/>
<path style="fill-rule:nonzero;fill:rgb(55%,51%,53%);fill-opacity:1;stroke-width:1;stroke-linecap:butt;stroke-linejoin:miter;stroke:rgb(0%,0%,0%);stroke-opacity:1;stroke-miterlimit:10;" d="M 937.785156 327.785156 L 937.785156 370.214844 L 980.214844 370.214844 L 980.214844 327.785156 L 937.785156 327.785156 "/>
</g>
</svg>
