<?xml version="1.0" encoding="UTF-8"?>
<svg xmlns="http://www.w3.org/2000/svg" xmlns:xlink="http://www.w3.org/1999/xlink" width="1129pt" height="517pt" viewBox="0 0 1129 517" version="1.1">
<g id="surface806">
<rect x="0" y="0" width="1129" height="517" style="fill:rgb(90%,90%,90%);fill-opacity:1;stroke:none;"/>
<path style="fill-rule:nonzero;fill:rgb(53%,27%,7%);fill-opacity:1;stroke-width:1;stroke-linecap:butt;stroke-linejoin:miter;stroke:rgb(0%,0%,0%);stroke-opacity:1;stroke-miterlimit:10;" d="M 130 68.601562 C 130 54.199219 106 54.199219 106 68.601562 C 106 83 130 85.398438 130 97.398438 C 130 85.398438 154 83 154 68.601562 C 154 54.199219 130 54.199219 130 68.601562 "/>
<path style="fill-rule:nonzero;fill:rgb(53%,27%,7%);fill-opacity:1;stroke-width:1;stroke-linecap:butt;stroke-linejoin:miter;stroke:rgb(0%,0%,0%);stroke-opacity:1;stroke-miterlimit:10;" d="M 107.214844 165 C 107.214844 176.714844 97.714844 186.214844 86 186.214844 C 74.285156 186.214844 64.785156 176.714844 64.785156 165 C 64.785156 153.285156 74.285156 143.785156 86 143.785156 C 97.714844 143.785156 107.214844 153.285156 107.214844 165 "/>
<path style="fill-rule:nonzero;fill:rgb(53%,27%,7%);fill-opacity:1;stroke-width:1;stroke-linecap:butt;stroke-linejoin:miter;stroke:rgb(0%,0%,0%);stroke-opacity:1;stroke-miterlimit:10;" d="M 441.214844 91 C 441.214844 102.714844 431.714844 112.214844 420 112.214844 C 408.285156 112.214844 398.785156 102.714844 398.785156 91 C 398.785156 79.285156 408.285156 69.785156 420 69.785156 C 431.714844 69.785156 441.214844 79.285156 441.214844 91 "/>
<path style="fill-rule:nonzero;fill:rgb(53%,27%,7%);fill-opacity:1;stroke-width:1;stroke-linecap:butt;stroke-linejoin:miter;stroke:rgb(0%,0%,0%);stroke-opacity:1;stroke-miterlimit:10;" d="M 218 89.601562 C 218 75.199219 194 75.199219 194 89.601562 C 194 104 218 106.398438 218 118.398438 C 218 106.398438 242 104 242 89.601562 C 242 75.199219 218 75.199219 218 89.601562 "/>
<path style="fill-rule:nonzero;fill:rgb(53%,27%,7%);fill-opacity:1;stroke-width:1;stroke-linecap:butt;stroke-linejoin:miter;stroke:rgb(0%,0%,0%);stroke-opacity:1;stroke-miterlimit:10;" d="M 388 306.601562 C 388 292.199219 364 292.199219 364 306.601562 C 364 321 388 323.398438 388 335.398438 C 388 323.398438 412 321 412 306.601562 C 412 292.199219 388 292.199219 388 306.601562 "/>
<path style="fill-rule:nonzero;fill:rgb(53%,27%,7%);fill-opacity:1;stroke-width:1;stroke-linecap:butt;stroke-linejoin:miter;stroke:rgb(0%,0%,0%);stroke-opacity:1;stroke-miterlimit:10;" d="M 316 41.601562 C 316 27.199219 292 27.199219 292 41.601562 C 292 56 316 58.398438 316 70.398438 C 316 58.398438 340 56 340 41.601562 C 340 27.199219 316 27.199219 316 41.601562 "/>
<path style="fill-rule:nonzero;fill:rgb(53%,27%,7%);fill-opacity:1;stroke-width:1;stroke-linecap:butt;stroke-linejoin:miter;stroke:rgb(0%,0%,0%);stroke-opacity:1;stroke-miterlimit:10;" d="M 219 334.601562 C 219 320.199219 195 320.199219 195 334.601562 C 195 349 219 351.398438 219 363.398438 C 219 351.398438 243 349 243 334.601562 C 243 320.199219 219 320.199219 219 334.601562 "/>
<path style="fill-rule:nonzero;fill:rgb(53%,27%,7%);fill-opacity:1;stroke-width:1;stroke-linecap:butt;stroke-linejoin:miter;stroke:rgb(0%,0%,0%);stroke-opacity:1;stroke-miterlimit:10;" d="M 256 445.601562 C 256 431.199219 232 431.199219 232 445.601562 C 232 460 256 462.398438 256 474.398438 C 256 462.398438 280 460 280 445.601562 C 280 431.199219 256 431.199219 256 445.601562 "/>
<path style="fill-rule:nonzero;fill:rgb(100%,51%,0%);fill-opacity:1;stroke-width:1;stroke-linecap:butt;stroke-linejoin:miter;stroke:rgb(0%,0%,0%);stroke-opacity:1;stroke-miterlimit:10;" d="M 913.214844 290 C 913.214844 301.714844 903.714844 311.214844 892 311.214844 C 880.285156 311.214844 870.785156 301.714844 870.785156 290 C 870.785156 278.285156 880.285156 268.785156 892 268.785156 C 903.714844 268.785156 913.214844 278.285156 913.214844 290 "/>
<path style="fill-rule:nonzero;fill:rgb(100%,51%,0%);fill-opacity:1;stroke-width:1;stroke-linecap:butt;stroke-linejoin:miter;stroke:rgb(0%,0%,0%);stroke-opacity:1;stroke-miterlimit:10;" d="M 812 189.601562 C 812 175.199219 788 175.199219 788 189.601562 C 788 204 812 206.398438 812 218.398438 C 812 206.398438 836 204 836 189.601562 C 836 175.199219 812 175.199219 812 189.601562 "/>
<path style="fill-rule:nonzero;fill:rgb(100%,51%,0%);fill-opacity:1;stroke-width:1;stroke-linecap:butt;stroke-linejoin:miter;stroke:rgb(0%,0%,0%);stroke-opacity:1;stroke-miterlimit:10;" d="M 721 298.601562 C 721 284.199219 697 284.199219 697 298.601562 C 697 313 721 315.398438 721 327.398438 C 721 315.398438 745 313 745 298.601562 C 745 284.199219 721 284.199219 721 298.601562 "/>
<path style="fill-rule:nonzero;fill:rgb(100%,51%,0%);fill-opacity:1;stroke-width:1;stroke-linecap:butt;stroke-linejoin:miter;stroke:rgb(0%,0%,0%);stroke-opacity:1;stroke-miterlimit:10;" d="M 1034.214844 224 C 1034.214844 235.714844 1024.714844 245.214844 1013 245.214844 C 1001.285156 245.214844 991.785156 235.714844 991.785156 224 C 991.785156 212.285156 1001.285156 202.785156 1013 202.785156 C 1024.714844 202.785156 1034.214844 212.285156 1034.214844 224 "/>
<path style="fill-rule:nonzero;fill:rgb(100%,51%,0%);fill-opacity:1;stroke-width:1;stroke-linecap:butt;stroke-linejoin:miter;stroke:rgb(0%,0%,0%);stroke-opacity:1;stroke-miterlimit:10;" d="M 722.214844 446 C 722.214844 457.714844 712.714844 467.214844 701 467.214844 C 689.285156 467.214844 679.785156 457.714844 679.785156 446 C 679.785156 434.285156 689.285156 424.785156 701 424.785156 C 712.714844 424.785156 722.214844 434.285156 722.214844 446 "/>
<path style="fill-rule:nonzero;fill:rgb(100%,51%,0%);fill-opacity:1;stroke-width:1;stroke-linecap:butt;stroke-linejoin:miter;stroke:rgb(0%,0%,0%);stroke-opacity:1;stroke-miterlimit:10;" d="M 822.214844 427 C 822.214844 438.714844 812.714844 448.214844 801 448.214844 C 789.285156 448.214844 779.785156 438.714844 779.785156 427 C 779.785156 415.285156 789.285156 405.785156 801 405.785156 C 812.714844 405.785156 822.214844 415.285156 822.214844 427 "/>
<path style="fill-rule:nonzero;fill:rgb(100%,51%,0%);fill-opacity:1;stroke-width:1;stroke-linecap:butt;stroke-linejoin:miter;stroke:rgb(0%,0%,0%);stroke-opacity:1;stroke-miterlimit:10;" d="M 934.214844 415 C 934.214844 426.714844 924.714844 436.214844 913 436.214844 C 901.285156 436.214844 891.785156 426.714844 891.785156 415 C 891.785156 403.285156 901.285156 393.785156 913 393.785156 C 924.714844 393.785156 934.214844 403.285156 934.214844 415 "/>
<path style="fill-rule:nonzero;fill:rgb(100%,51%,0%);fill-opacity:1;stroke-width:1;stroke-linecap:butt;stroke-linejoin:miter;stroke:rgb(0%,0%,0%);stroke-opacity:1;stroke-miterlimit:10;" d="M 802.214844 72 C 802.214844 83.714844 792.714844 93.214844 781 93.214844 C 769.285156 93.214844 759.785156 83.714844 759.785156 72 C 759.785156 60.285156 769.285156 50.785156 781 50.785156 C 792.714844 50.785156 802.214844 60.285156 802.214844 72 "/>
</g>
</svg>
