<?xml version="1.0" encoding="UTF-8"?>
<svg xmlns="http://www.w3.org/2000/svg" xmlns:xlink="http://www.w3.org/1999/xlink" width="1129pt" height="517pt" viewBox="0 0 1129 517" version="1.1">
<g id="surface436">
<rect x="0" y="0" width="1129" height="517" style="fill:rgb(90%,90%,90%);fill-opacity:1;stroke:none;"/>
<path style="fill-rule:nonzero;fill:rgb(35%,70%,90%);fill-opacity:1;stroke-width:1;stroke-linecap:butt;stroke-linejoin:miter;stroke:rgb(0%,0%,0%);stroke-opacity:1;stroke-miterlimit:10;" d="M 444.214844 415 C 444.214844 426.714844 434.714844 436.214844 423 436.214844 C 411.285156 436.214844 401.785156 426.714844 401.785156 415 C 401.785156 403.285156 411.285156 393.785156 423 393.785156 C 434.714844 393.785156 444.214844 403.285156 444.214844 415 "/>
<path style="fill-rule:nonzero;fill:rgb(35%,70%,90%);fill-opacity:1;stroke-width:1;stroke-linecap:butt;stroke-linejoin:miter;stroke:rgb(0%,0%,0%);stroke-opacity:1;stroke-miterlimit:10;" d="M 285.214844 101 C 285.214844 112.714844 275.714844 122.214844 264 122.214844 C 252.285156 122.214844 242.785156 112.714844 242.785156 101 C 242.785156 89.285156 252.285156 79.785156 264 79.785156 C 275.714844 79.785156 285.214844 89.285156 285.214844 101 "/>
<path style="fill-rule:nonzero;fill:rgb(35%,70%,90%);fill-opacity:1;stroke-width:1;stroke-linecap:butt;stroke-linejoin:miter;stroke:rgb(0%,0%,0%);stroke-opacity:1;stroke-miterlimit:10;" d="M 223.214844 215 C 223.214844 226.714844 213.714844 236.214844 202 236.214844 C 190.285156 236.214844 180.785156 226.714844 180.785156 215 C 180.785156 203.285156 190.285156 193.785156 202 193.785156 C 213.714844 193.785156 223.214844 203.285156 223.214844 215 "/>
<path style="fill-rule:nonzero;fill:rgb(35%,70%,90%);fill-opacity:1;stroke-width:1;stroke-linecap:butt;stroke-linejoin:miter;stroke:rgb(0%,0%,0%);stroke-opacity:1;stroke-miterlimit:10;" d="M 436 96 L 410.019531 141 L 461.980469 141 L 436 96 "/>
<path style="fill-rule:nonzero;fill:rgb(35%,70%,90%);fill-opacity:1;stroke-width:1;stroke-linecap:butt;stroke-linejoin:miter;stroke:rgb(0%,0%,0%);stroke-opacity:1;stroke-miterlimit:10;" d="M 376.214844 227 C 376.214844 238.714844 366.714844 248.214844 355 248.214844 C 343.285156 248.214844 333.785156 238.714844 333.785156 227 C 333.785156 215.285156 343.285156 205.785156 355 205.785156 C 366.714844 205.785156 376.214844 215.285156 376.214844 227 "/>
<path style="fill-rule:nonzero;fill:rgb(35%,70%,90%);fill-opacity:1;stroke-width:1;stroke-linecap:butt;stroke-linejoin:miter;stroke:rgb(0%,0%,0%);stroke-opacity:1;stroke-miterlimit:10;" d="M 79.214844 95 C 79.214844 106.714844 69.714844 116.214844 58 116.214844 C 46.285156 116.214844 36.785156 106.714844 36.785156 95 C 36.785156 83.285156 46.285156 73.785156 58 73.785156 C 69.714844 73.785156 79.214844 83.285156 79.214844 95 "/>
<path style="fill-rule:nonzero;fill:rgb(55%,51%,53%);fill-opacity:1;stroke-width:1;stroke-linecap:butt;stroke-linejoin:miter;stroke:rgb(0%,0%,0%);stroke-opacity:1;stroke-miterlimit:10;" d="M 942 69 L 916.019531 114 L 967.980469 114 L 942 69 "/>
<path style="fill-rule:nonzero;fill:rgb(55%,51%,53%);fill-opacity:1;stroke-width:1;stroke-linecap:butt;stroke-linejoin:miter;stroke:rgb(0%,0%,0%);stroke-opacity:1;stroke-miterlimit:10;" d="M 671 298 L 645.019531 343 L 696.980469 343 L 671 298 "/>
<path style="fill-rule:nonzero;fill:rgb(55%,51%,53%);fill-opacity:1;stroke-width:1;stroke-linecap:butt;stroke-linejoin:miter;stroke:rgb(0%,0%,0%);stroke-opacity:1;stroke-miterlimit:10;" d="M 833 258 L 807.019531 303 L 858.980469 303 L 833 258 "/>
<path style="fill-rule:nonzero;fill:rgb(55%,51%,53%);fill-opacity:1;stroke-width:1;stroke-linecap:butt;stroke-linejoin:miter;stroke:rgb(0%,0%,0%);stroke-opacity:1;stroke-miterlimit:10;" d="M 835.214844 423 C 835.214844 434.714844 825.714844 444.214844 814 444.214844 C 802.285156 444.214844 792.785156 434.714844 792.785156 423 C 792.785156 411.285156 802.285156 401.785156 814 401.785156 C 825.714844 401.785156 835.214844 411.285156 835.214844 423 "/>
</g>
</svg>
