<?xml version="1.0" encoding="UTF-8"?>
<svg xmlns="http://www.w3.org/2000/svg" xmlns:xlink="http://www.w3.org/1999/xlink" width="1179pt" height="517pt" viewBox="0 0 1179 517" version="1.1">
<g id="surface526">
<rect x="0" y="0" width="1179" height="517" style="fill:rgb(90%,90%,90%);fill-opacity:1;stroke:none;"/>
<path style="fill-rule:nonzero;fill:rgb(55%,51%,53%);fill-opacity:1;stroke-width:1;stroke-linecap:butt;stroke-linejoin:miter;stroke:rgb(0%,0%,0%);stroke-opacity:1;stroke-miterlimit:10;" d="M 367.214844 421 C 367.214844 432.714844 357.714844 442.214844 346 442.214844 C 334.285156 442.214844 324.785156 432.714844 324.785156 421 C 324.785156 409.285156 334.285156 399.785156 346 399.785156 C 357.714844 399.785156 367.214844 409.285156 367.214844 421 "/>
<path style="fill-rule:nonzero;fill:rgb(55%,51%,53%);fill-opacity:1;stroke-width:1;stroke-linecap:butt;stroke-linejoin:miter;stroke:rgb(0%,0%,0%);stroke-opacity:1;stroke-miterlimit:10;" d="M 193.214844 125 C 193.214844 136.714844 183.714844 146.214844 172 146.214844 C 160.285156 146.214844 150.785156 136.714844 150.785156 125 C 150.785156 113.285156 160.285156 103.785156 172 103.785156 C 183.714844 103.785156 193.214844 113.285156 193.214844 125 "/>
<path style="fill-rule:nonzero;fill:rgb(55%,51%,53%);fill-opacity:1;stroke-width:1;stroke-linecap:butt;stroke-linejoin:miter;stroke:rgb(0%,0%,0%);stroke-opacity:1;stroke-miterlimit:10;" d="M 266 291 L 240.019531 336 L 291.980469 336 L 266 291 "/>
<path style="fill-rule:nonzero;fill:rgb(55%,51%,53%);fill-opacity:1;stroke-width:1;stroke-linecap:butt;stroke-linejoin:miter;stroke:rgb(0%,0%,0%);stroke-opacity:1;stroke-miterlimit:10;" d="M 330 225 L 304.019531 270 L 355.980469 270 L 330 225 "/>
<path style="fill-rule:nonzero;fill:rgb(55%,51%,53%);fill-opacity:1;stroke-width:1;stroke-linecap:butt;stroke-linejoin:miter;stroke:rgb(0%,0%,0%);stroke-opacity:1;stroke-miterlimit:10;" d="M 437.214844 180 C 437.214844 191.714844 427.714844 201.214844 416 201.214844 C 404.285156 201.214844 394.785156 191.714844 394.785156 180 C 394.785156 168.285156 404.285156 158.785156 416 158.785156 C 427.714844 158.785156 437.214844 168.285156 437.214844 180 "/>
<path style="fill-rule:nonzero;fill:rgb(53%,27%,7%);fill-opacity:1;stroke-width:1;stroke-linecap:butt;stroke-linejoin:miter;stroke:rgb(0%,0%,0%);stroke-opacity:1;stroke-miterlimit:10;" d="M 832 182 L 806.019531 227 L 857.980469 227 L 832 182 "/>
<path style="fill-rule:nonzero;fill:rgb(53%,27%,7%);fill-opacity:1;stroke-width:1;stroke-linecap:butt;stroke-linejoin:miter;stroke:rgb(0%,0%,0%);stroke-opacity:1;stroke-miterlimit:10;" d="M 848 319 L 822.019531 364 L 873.980469 364 L 848 319 "/>
<path style="fill-rule:nonzero;fill:rgb(53%,27%,7%);fill-opacity:1;stroke-width:1;stroke-linecap:butt;stroke-linejoin:miter;stroke:rgb(0%,0%,0%);stroke-opacity:1;stroke-miterlimit:10;" d="M 1063.214844 313 C 1063.214844 324.714844 1053.714844 334.214844 1042 334.214844 C 1030.285156 334.214844 1020.785156 324.714844 1020.785156 313 C 1020.785156 301.285156 1030.285156 291.785156 1042 291.785156 C 1053.714844 291.785156 1063.214844 301.285156 1063.214844 313 "/>
<path style="fill-rule:nonzero;fill:rgb(53%,27%,7%);fill-opacity:1;stroke-width:1;stroke-linecap:butt;stroke-linejoin:miter;stroke:rgb(0%,0%,0%);stroke-opacity:1;stroke-miterlimit:10;" d="M 976.214844 132 C 976.214844 143.714844 966.714844 153.214844 955 153.214844 C 943.285156 153.214844 933.785156 143.714844 933.785156 132 C 933.785156 120.285156 943.285156 110.785156 955 110.785156 C 966.714844 110.785156 976.214844 120.285156 976.214844 132 "/>
<path style="fill-rule:nonzero;fill:rgb(53%,27%,7%);fill-opacity:1;stroke-width:1;stroke-linecap:butt;stroke-linejoin:miter;stroke:rgb(0%,0%,0%);stroke-opacity:1;stroke-miterlimit:10;" d="M 946 223 L 920.019531 268 L 971.980469 268 L 946 223 "/>
<path style="fill-rule:nonzero;fill:rgb(53%,27%,7%);fill-opacity:1;stroke-width:1;stroke-linecap:butt;stroke-linejoin:miter;stroke:rgb(0%,0%,0%);stroke-opacity:1;stroke-miterlimit:10;" d="M 896 398 L 870.019531 443 L 921.980469 443 L 896 398 "/>
<path style="fill-rule:nonzero;fill:rgb(53%,27%,7%);fill-opacity:1;stroke-width:1;stroke-linecap:butt;stroke-linejoin:miter;stroke:rgb(0%,0%,0%);stroke-opacity:1;stroke-miterlimit:10;" d="M 995 363 L 969.019531 408 L 1020.980469 408 L 995 363 "/>
</g>
</svg>
