<?xml version="1.0" encoding="UTF-8"?>
<svg xmlns="http://www.w3.org/2000/svg" xmlns:xlink="http://www.w3.org/1999/xlink" width="1129pt" height="517pt" viewBox="0 0 1129 517" version="1.1">
<g id="surface541">
<rect x="0" y="0" width="1129" height="517" style="fill:rgb(90%,90%,90%);fill-opacity:1;stroke:none;"/>
<path style="fill-rule:nonzero;fill:rgb(35%,70%,90%);fill-opacity:1;stroke-width:1;stroke-linecap:butt;stroke-linejoin:miter;stroke:rgb(0%,0%,0%);stroke-opacity:1;stroke-miterlimit:10;" d="M 896 348 L 925.664062 348 L 937.664062 319.785156 L 949.664062 348 L 979.332031 348 L 955.332031 365.4375 L 963.417969 396.980469 L 937.664062 379.542969 L 911.914062 396.980469 L 924.214844 365.4375 L 896 348 "/>
<path style="fill-rule:nonzero;fill:rgb(35%,70%,90%);fill-opacity:1;stroke-width:1;stroke-linecap:butt;stroke-linejoin:miter;stroke:rgb(0%,0%,0%);stroke-opacity:1;stroke-miterlimit:10;" d="M 737 253 L 766.664062 253 L 778.664062 224.785156 L 790.664062 253 L 820.332031 253 L 796.332031 270.4375 L 804.417969 301.980469 L 778.664062 284.542969 L 752.914062 301.980469 L 765.214844 270.4375 L 737 253 "/>
<path style="fill-rule:nonzero;fill:rgb(35%,70%,90%);fill-opacity:1;stroke-width:1;stroke-linecap:butt;stroke-linejoin:miter;stroke:rgb(0%,0%,0%);stroke-opacity:1;stroke-miterlimit:10;" d="M 150 109 L 179.664062 109 L 191.664062 80.785156 L 203.664062 109 L 233.332031 109 L 209.332031 126.4375 L 217.417969 157.980469 L 191.664062 140.542969 L 165.914062 157.980469 L 178.214844 126.4375 L 150 109 "/>
<path style="fill-rule:nonzero;fill:rgb(35%,70%,90%);fill-opacity:1;stroke-width:1;stroke-linecap:butt;stroke-linejoin:miter;stroke:rgb(0%,0%,0%);stroke-opacity:1;stroke-miterlimit:10;" d="M 88 208 L 117.664062 208 L 129.664062 179.785156 L 141.664062 208 L 171.332031 208 L 147.332031 225.4375 L 155.417969 256.980469 L 129.664062 239.542969 L 103.914062 256.980469 L 116.214844 225.4375 L 88 208 "/>
<path style="fill-rule:nonzero;fill:rgb(35%,70%,90%);fill-opacity:1;stroke-width:1;stroke-linecap:butt;stroke-linejoin:miter;stroke:rgb(0%,0%,0%);stroke-opacity:1;stroke-miterlimit:10;" d="M 324 118 L 353.664062 118 L 365.664062 89.785156 L 377.664062 118 L 407.332031 118 L 383.332031 135.4375 L 391.417969 166.980469 L 365.664062 149.542969 L 339.914062 166.980469 L 352.214844 135.4375 L 324 118 "/>
<path style="fill-rule:nonzero;fill:rgb(100%,51%,0%);fill-opacity:1;stroke-width:1;stroke-linecap:butt;stroke-linejoin:miter;stroke:rgb(0%,0%,0%);stroke-opacity:1;stroke-miterlimit:10;" d="M 589.214844 183 C 589.214844 194.714844 579.714844 204.214844 568 204.214844 C 556.285156 204.214844 546.785156 194.714844 546.785156 183 C 546.785156 171.285156 556.285156 161.785156 568 161.785156 C 579.714844 161.785156 589.214844 171.285156 589.214844 183 "/>
<path style="fill-rule:nonzero;fill:rgb(100%,51%,0%);fill-opacity:1;stroke-width:1;stroke-linecap:butt;stroke-linejoin:miter;stroke:rgb(0%,0%,0%);stroke-opacity:1;stroke-miterlimit:10;" d="M 890.214844 154 C 890.214844 165.714844 880.714844 175.214844 869 175.214844 C 857.285156 175.214844 847.785156 165.714844 847.785156 154 C 847.785156 142.285156 857.285156 132.785156 869 132.785156 C 880.714844 132.785156 890.214844 142.285156 890.214844 154 "/>
<path style="fill-rule:nonzero;fill:rgb(100%,51%,0%);fill-opacity:1;stroke-width:1;stroke-linecap:butt;stroke-linejoin:miter;stroke:rgb(0%,0%,0%);stroke-opacity:1;stroke-miterlimit:10;" d="M 149.214844 306 C 149.214844 317.714844 139.714844 327.214844 128 327.214844 C 116.285156 327.214844 106.785156 317.714844 106.785156 306 C 106.785156 294.285156 116.285156 284.785156 128 284.785156 C 139.714844 284.785156 149.214844 294.285156 149.214844 306 "/>
<path style="fill-rule:nonzero;fill:rgb(100%,51%,0%);fill-opacity:1;stroke-width:1;stroke-linecap:butt;stroke-linejoin:miter;stroke:rgb(0%,0%,0%);stroke-opacity:1;stroke-miterlimit:10;" d="M 344.214844 416 C 344.214844 427.714844 334.714844 437.214844 323 437.214844 C 311.285156 437.214844 301.785156 427.714844 301.785156 416 C 301.785156 404.285156 311.285156 394.785156 323 394.785156 C 334.714844 394.785156 344.214844 404.285156 344.214844 416 "/>
<path style="fill-rule:nonzero;fill:rgb(100%,51%,0%);fill-opacity:1;stroke-width:1;stroke-linecap:butt;stroke-linejoin:miter;stroke:rgb(0%,0%,0%);stroke-opacity:1;stroke-miterlimit:10;" d="M 452.214844 359 C 452.214844 370.714844 442.714844 380.214844 431 380.214844 C 419.285156 380.214844 409.785156 370.714844 409.785156 359 C 409.785156 347.285156 419.285156 337.785156 431 337.785156 C 442.714844 337.785156 452.214844 347.285156 452.214844 359 "/>
</g>
</svg>
