<?xml version="1.0" encoding="UTF-8"?>
<svg xmlns="http://www.w3.org/2000/svg" xmlns:xlink="http://www.w3.org/1999/xlink" width="1129pt" height="517pt" viewBox="0 0 1129 517" version="1.1">
<g id="surface771">
<rect x="0" y="0" width="1129" height="517" style="fill:rgb(90%,90%,90%);fill-opacity:1;stroke:none;"/>
<path style="fill-rule:nonzero;fill:rgb(55%,51%,53%);fill-opacity:1;stroke-width:1;stroke-linecap:butt;stroke-linejoin:miter;stroke:rgb(0%,0%,0%);stroke-opacity:1;stroke-miterlimit:10;" d="M 447 247 L 421.019531 292 L 472.980469 292 L 447 247 "/>
<path style="fill-rule:nonzero;fill:rgb(55%,51%,53%);fill-opacity:1;stroke-width:1;stroke-linecap:butt;stroke-linejoin:miter;stroke:rgb(0%,0%,0%);stroke-opacity:1;stroke-miterlimit:10;" d="M 479 417 L 453.019531 462 L 504.980469 462 L 479 417 "/>
<path style="fill-rule:nonzero;fill:rgb(55%,51%,53%);fill-opacity:1;stroke-width:1;stroke-linecap:butt;stroke-linejoin:miter;stroke:rgb(0%,0%,0%);stroke-opacity:1;stroke-miterlimit:10;" d="M 764 71 L 738.019531 116 L 789.980469 116 L 764 71 "/>
<path style="fill-rule:nonzero;fill:rgb(55%,51%,53%);fill-opacity:1;stroke-width:1;stroke-linecap:butt;stroke-linejoin:miter;stroke:rgb(0%,0%,0%);stroke-opacity:1;stroke-miterlimit:10;" d="M 376 109 L 350.019531 154 L 401.980469 154 L 376 109 "/>
<path style="fill-rule:nonzero;fill:rgb(55%,51%,53%);fill-opacity:1;stroke-width:1;stroke-linecap:butt;stroke-linejoin:miter;stroke:rgb(0%,0%,0%);stroke-opacity:1;stroke-miterlimit:10;" d="M 615 314 L 589.019531 359 L 640.980469 359 L 615 314 "/>
<path style="fill-rule:nonzero;fill:rgb(55%,51%,53%);fill-opacity:1;stroke-width:1;stroke-linecap:butt;stroke-linejoin:miter;stroke:rgb(0%,0%,0%);stroke-opacity:1;stroke-miterlimit:10;" d="M 540 157 L 514.019531 202 L 565.980469 202 L 540 157 "/>
<path style="fill-rule:nonzero;fill:rgb(55%,51%,53%);fill-opacity:1;stroke-width:1;stroke-linecap:butt;stroke-linejoin:miter;stroke:rgb(0%,0%,0%);stroke-opacity:1;stroke-miterlimit:10;" d="M 169 41 L 143.019531 86 L 194.980469 86 L 169 41 "/>
<path style="fill-rule:nonzero;fill:rgb(55%,51%,53%);fill-opacity:1;stroke-width:1;stroke-linecap:butt;stroke-linejoin:miter;stroke:rgb(0%,0%,0%);stroke-opacity:1;stroke-miterlimit:10;" d="M 312 340 L 286.019531 385 L 337.980469 385 L 312 340 "/>
<path style="fill-rule:nonzero;fill:rgb(55%,51%,53%);fill-opacity:1;stroke-width:1;stroke-linecap:butt;stroke-linejoin:miter;stroke:rgb(0%,0%,0%);stroke-opacity:1;stroke-miterlimit:10;" d="M 161 375 L 190.664062 375 L 202.664062 346.785156 L 214.664062 375 L 244.332031 375 L 220.332031 392.4375 L 228.417969 423.980469 L 202.664062 406.542969 L 176.914062 423.980469 L 189.214844 392.4375 L 161 375 "/>
<path style="fill-rule:nonzero;fill:rgb(55%,51%,53%);fill-opacity:1;stroke-width:1;stroke-linecap:butt;stroke-linejoin:miter;stroke:rgb(0%,0%,0%);stroke-opacity:1;stroke-miterlimit:10;" d="M 737 220 L 766.664062 220 L 778.664062 191.785156 L 790.664062 220 L 820.332031 220 L 796.332031 237.4375 L 804.417969 268.980469 L 778.664062 251.542969 L 752.914062 268.980469 L 765.214844 237.4375 L 737 220 "/>
<path style="fill-rule:nonzero;fill:rgb(55%,51%,53%);fill-opacity:1;stroke-width:1;stroke-linecap:butt;stroke-linejoin:miter;stroke:rgb(0%,0%,0%);stroke-opacity:1;stroke-miterlimit:10;" d="M 658 135 L 687.664062 135 L 699.664062 106.785156 L 711.664062 135 L 741.332031 135 L 717.332031 152.4375 L 725.417969 183.980469 L 699.664062 166.542969 L 673.914062 183.980469 L 686.214844 152.4375 L 658 135 "/>
<path style="fill-rule:nonzero;fill:rgb(55%,51%,53%);fill-opacity:1;stroke-width:1;stroke-linecap:butt;stroke-linejoin:miter;stroke:rgb(0%,0%,0%);stroke-opacity:1;stroke-miterlimit:10;" d="M 712 391 L 741.664062 391 L 753.664062 362.785156 L 765.664062 391 L 795.332031 391 L 771.332031 408.4375 L 779.417969 439.980469 L 753.664062 422.542969 L 727.914062 439.980469 L 740.214844 408.4375 L 712 391 "/>
<path style="fill-rule:nonzero;fill:rgb(55%,51%,53%);fill-opacity:1;stroke-width:1;stroke-linecap:butt;stroke-linejoin:miter;stroke:rgb(0%,0%,0%);stroke-opacity:1;stroke-miterlimit:10;" d="M 616 242 L 645.664062 242 L 657.664062 213.785156 L 669.664062 242 L 699.332031 242 L 675.332031 259.4375 L 683.417969 290.980469 L 657.664062 273.542969 L 631.914062 290.980469 L 644.214844 259.4375 L 616 242 "/>
<path style="fill-rule:nonzero;fill:rgb(55%,51%,53%);fill-opacity:1;stroke-width:1;stroke-linecap:butt;stroke-linejoin:miter;stroke:rgb(0%,0%,0%);stroke-opacity:1;stroke-miterlimit:10;" d="M 84 207 L 113.664062 207 L 125.664062 178.785156 L 137.664062 207 L 167.332031 207 L 143.332031 224.4375 L 151.417969 255.980469 L 125.664062 238.542969 L 99.914062 255.980469 L 112.214844 224.4375 L 84 207 "/>
<path style="fill-rule:nonzero;fill:rgb(55%,51%,53%);fill-opacity:1;stroke-width:1;stroke-linecap:butt;stroke-linejoin:miter;stroke:rgb(0%,0%,0%);stroke-opacity:1;stroke-miterlimit:10;" d="M 941 128 L 970.664062 128 L 982.664062 99.785156 L 994.664062 128 L 1024.332031 128 L 1000.332031 145.4375 L 1008.417969 176.980469 L 982.664062 159.542969 L 956.914062 176.980469 L 969.214844 145.4375 L 941 128 "/>
</g>
</svg>
