<?xml version="1.0" encoding="UTF-8"?>
<svg xmlns="http://www.w3.org/2000/svg" xmlns:xlink="http://www.w3.org/1999/xlink" width="1179pt" height="517pt" viewBox="0 0 1179 517" version="1.1">
<g id="surface921">
<rect x="0" y="0" width="1179" height="517" style="fill:rgb(90%,90%,90%);fill-opacity:1;stroke:none;"/>
<path style="fill-rule:nonzero;fill:rgb(100%,51%,0%);fill-opacity:1;stroke-width:1;stroke-linecap:butt;stroke-linejoin:miter;stroke:rgb(0%,0%,0%);stroke-opacity:1;stroke-miterlimit:10;" d="M 220.214844 424 C 220.214844 435.714844 210.714844 445.214844 199 445.214844 C 187.285156 445.214844 177.785156 435.714844 177.785156 424 C 177.785156 412.285156 187.285156 402.785156 199 402.785156 C 210.714844 402.785156 220.214844 412.285156 220.214844 424 "/>
<path style="fill-rule:nonzero;fill:rgb(35%,70%,90%);fill-opacity:1;stroke-width:1;stroke-linecap:butt;stroke-linejoin:miter;stroke:rgb(0%,0%,0%);stroke-opacity:1;stroke-miterlimit:10;" d="M 133 156 L 162.664062 156 L 174.664062 127.785156 L 186.664062 156 L 216.332031 156 L 192.332031 173.4375 L 200.417969 204.980469 L 174.664062 187.542969 L 148.914062 204.980469 L 161.214844 173.4375 L 133 156 "/>
<path style="fill-rule:nonzero;fill:rgb(100%,51%,0%);fill-opacity:1;stroke-width:1;stroke-linecap:butt;stroke-linejoin:miter;stroke:rgb(0%,0%,0%);stroke-opacity:1;stroke-miterlimit:10;" d="M 351.214844 111 C 351.214844 122.714844 341.714844 132.214844 330 132.214844 C 318.285156 132.214844 308.785156 122.714844 308.785156 111 C 308.785156 99.285156 318.285156 89.785156 330 89.785156 C 341.714844 89.785156 351.214844 99.285156 351.214844 111 "/>
<path style="fill-rule:nonzero;fill:rgb(100%,51%,0%);fill-opacity:1;stroke-width:1;stroke-linecap:butt;stroke-linejoin:miter;stroke:rgb(0%,0%,0%);stroke-opacity:1;stroke-miterlimit:10;" d="M 177.214844 260 C 177.214844 271.714844 167.714844 281.214844 156 281.214844 C 144.285156 281.214844 134.785156 271.714844 134.785156 260 C 134.785156 248.285156 144.285156 238.785156 156 238.785156 C 167.714844 238.785156 177.214844 248.285156 177.214844 260 "/>
<path style="fill-rule:nonzero;fill:rgb(35%,70%,90%);fill-opacity:1;stroke-width:1;stroke-linecap:butt;stroke-linejoin:miter;stroke:rgb(0%,0%,0%);stroke-opacity:1;stroke-miterlimit:10;" d="M 272 258 L 301.664062 258 L 313.664062 229.785156 L 325.664062 258 L 355.332031 258 L 331.332031 275.4375 L 339.417969 306.980469 L 313.664062 289.542969 L 287.914062 306.980469 L 300.214844 275.4375 L 272 258 "/>
<path style="fill-rule:nonzero;fill:rgb(35%,70%,90%);fill-opacity:1;stroke-width:1;stroke-linecap:butt;stroke-linejoin:miter;stroke:rgb(0%,0%,0%);stroke-opacity:1;stroke-miterlimit:10;" d="M 836 287 L 865.664062 287 L 877.664062 258.785156 L 889.664062 287 L 919.332031 287 L 895.332031 304.4375 L 903.417969 335.980469 L 877.664062 318.542969 L 851.914062 335.980469 L 864.214844 304.4375 L 836 287 "/>
<path style="fill-rule:nonzero;fill:rgb(100%,51%,0%);fill-opacity:1;stroke-width:1;stroke-linecap:butt;stroke-linejoin:miter;stroke:rgb(0%,0%,0%);stroke-opacity:1;stroke-miterlimit:10;" d="M 745.214844 354 C 745.214844 365.714844 735.714844 375.214844 724 375.214844 C 712.285156 375.214844 702.785156 365.714844 702.785156 354 C 702.785156 342.285156 712.285156 332.785156 724 332.785156 C 735.714844 332.785156 745.214844 342.285156 745.214844 354 "/>
<path style="fill-rule:nonzero;fill:rgb(100%,51%,0%);fill-opacity:1;stroke-width:1;stroke-linecap:butt;stroke-linejoin:miter;stroke:rgb(0%,0%,0%);stroke-opacity:1;stroke-miterlimit:10;" d="M 752.214844 190 C 752.214844 201.714844 742.714844 211.214844 731 211.214844 C 719.285156 211.214844 709.785156 201.714844 709.785156 190 C 709.785156 178.285156 719.285156 168.785156 731 168.785156 C 742.714844 168.785156 752.214844 178.285156 752.214844 190 "/>
<path style="fill-rule:nonzero;fill:rgb(100%,51%,0%);fill-opacity:1;stroke-width:1;stroke-linecap:butt;stroke-linejoin:miter;stroke:rgb(0%,0%,0%);stroke-opacity:1;stroke-miterlimit:10;" d="M 1043.214844 249 C 1043.214844 260.714844 1033.714844 270.214844 1022 270.214844 C 1010.285156 270.214844 1000.785156 260.714844 1000.785156 249 C 1000.785156 237.285156 1010.285156 227.785156 1022 227.785156 C 1033.714844 227.785156 1043.214844 237.285156 1043.214844 249 "/>
<path style="fill-rule:nonzero;fill:rgb(35%,70%,90%);fill-opacity:1;stroke-width:1;stroke-linecap:butt;stroke-linejoin:miter;stroke:rgb(0%,0%,0%);stroke-opacity:1;stroke-miterlimit:10;" d="M 995 109 L 1024.664062 109 L 1036.664062 80.785156 L 1048.664062 109 L 1078.332031 109 L 1054.332031 126.4375 L 1062.417969 157.980469 L 1036.664062 140.542969 L 1010.914062 157.980469 L 1023.214844 126.4375 L 995 109 "/>
<path style="fill-rule:nonzero;fill:rgb(100%,51%,0%);fill-opacity:1;stroke-width:1;stroke-linecap:butt;stroke-linejoin:miter;stroke:rgb(0%,0%,0%);stroke-opacity:1;stroke-miterlimit:10;" d="M 874.214844 150 C 874.214844 161.714844 864.714844 171.214844 853 171.214844 C 841.285156 171.214844 831.785156 161.714844 831.785156 150 C 831.785156 138.285156 841.285156 128.785156 853 128.785156 C 864.714844 128.785156 874.214844 138.285156 874.214844 150 "/>
<path style="fill-rule:nonzero;fill:rgb(100%,51%,0%);fill-opacity:1;stroke-width:1;stroke-linecap:butt;stroke-linejoin:miter;stroke:rgb(0%,0%,0%);stroke-opacity:1;stroke-miterlimit:10;" d="M 904.214844 416 C 904.214844 427.714844 894.714844 437.214844 883 437.214844 C 871.285156 437.214844 861.785156 427.714844 861.785156 416 C 861.785156 404.285156 871.285156 394.785156 883 394.785156 C 894.714844 394.785156 904.214844 404.285156 904.214844 416 "/>
<path style="fill-rule:nonzero;fill:rgb(35%,70%,90%);fill-opacity:1;stroke-width:1;stroke-linecap:butt;stroke-linejoin:miter;stroke:rgb(0%,0%,0%);stroke-opacity:1;stroke-miterlimit:10;" d="M 1005 418 L 1034.664062 418 L 1046.664062 389.785156 L 1058.664062 418 L 1088.332031 418 L 1064.332031 435.4375 L 1072.417969 466.980469 L 1046.664062 449.542969 L 1020.914062 466.980469 L 1033.214844 435.4375 L 1005 418 "/>
</g>
</svg>
