<?xml version="1.0" encoding="UTF-8"?>
<svg xmlns="http://www.w3.org/2000/svg" xmlns:xlink="http://www.w3.org/1999/xlink" width="1179pt" height="517pt" viewBox="0 0 1179 517" version="1.1">
<g id="surface51">
<rect x="0" y="0" width="1179" height="517" style="fill:rgb(90%,90%,90%);fill-opacity:1;stroke:none;"/>
<path style="fill-rule:nonzero;fill:rgb(35%,70%,90%);fill-opacity:1;stroke-width:1;stroke-linecap:butt;stroke-linejoin:miter;stroke:rgb(0%,0%,0%);stroke-opacity:1;stroke-miterlimit:10;" d="M 272.214844 297 C 272.214844 308.714844 262.714844 318.214844 251 318.214844 C 239.285156 318.214844 229.785156 308.714844 229.785156 297 C 229.785156 285.285156 239.285156 275.785156 251 275.785156 C 262.714844 275.785156 272.214844 285.285156 272.214844 297 "/>
<path style="fill-rule:nonzero;fill:rgb(53%,27%,7%);fill-opacity:1;stroke-width:1;stroke-linecap:butt;stroke-linejoin:miter;stroke:rgb(0%,0%,0%);stroke-opacity:1;stroke-miterlimit:10;" d="M 385.214844 385 C 385.214844 396.714844 375.714844 406.214844 364 406.214844 C 352.285156 406.214844 342.785156 396.714844 342.785156 385 C 342.785156 373.285156 352.285156 363.785156 364 363.785156 C 375.714844 363.785156 385.214844 373.285156 385.214844 385 "/>
<path style="fill-rule:nonzero;fill:rgb(35%,70%,90%);fill-opacity:1;stroke-width:1;stroke-linecap:butt;stroke-linejoin:miter;stroke:rgb(0%,0%,0%);stroke-opacity:1;stroke-miterlimit:10;" d="M 305.214844 212 C 305.214844 223.714844 295.714844 233.214844 284 233.214844 C 272.285156 233.214844 262.785156 223.714844 262.785156 212 C 262.785156 200.285156 272.285156 190.785156 284 190.785156 C 295.714844 190.785156 305.214844 200.285156 305.214844 212 "/>
<path style="fill-rule:nonzero;fill:rgb(53%,27%,7%);fill-opacity:1;stroke-width:1;stroke-linecap:butt;stroke-linejoin:miter;stroke:rgb(0%,0%,0%);stroke-opacity:1;stroke-miterlimit:10;" d="M 433.214844 235 C 433.214844 246.714844 423.714844 256.214844 412 256.214844 C 400.285156 256.214844 390.785156 246.714844 390.785156 235 C 390.785156 223.285156 400.285156 213.785156 412 213.785156 C 423.714844 213.785156 433.214844 223.285156 433.214844 235 "/>
<path style="fill-rule:nonzero;fill:rgb(35%,70%,90%);fill-opacity:1;stroke-width:1;stroke-linecap:butt;stroke-linejoin:miter;stroke:rgb(0%,0%,0%);stroke-opacity:1;stroke-miterlimit:10;" d="M 311.214844 107 C 311.214844 118.714844 301.714844 128.214844 290 128.214844 C 278.285156 128.214844 268.785156 118.714844 268.785156 107 C 268.785156 95.285156 278.285156 85.785156 290 85.785156 C 301.714844 85.785156 311.214844 95.285156 311.214844 107 "/>
<path style="fill-rule:nonzero;fill:rgb(35%,70%,90%);fill-opacity:1;stroke-width:1;stroke-linecap:butt;stroke-linejoin:miter;stroke:rgb(0%,0%,0%);stroke-opacity:1;stroke-miterlimit:10;" d="M 240.214844 402 C 240.214844 413.714844 230.714844 423.214844 219 423.214844 C 207.285156 423.214844 197.785156 413.714844 197.785156 402 C 197.785156 390.285156 207.285156 380.785156 219 380.785156 C 230.714844 380.785156 240.214844 390.285156 240.214844 402 "/>
<path style="fill-rule:nonzero;fill:rgb(35%,70%,90%);fill-opacity:1;stroke-width:1;stroke-linecap:butt;stroke-linejoin:miter;stroke:rgb(0%,0%,0%);stroke-opacity:1;stroke-miterlimit:10;" d="M 202.214844 107 C 202.214844 118.714844 192.714844 128.214844 181 128.214844 C 169.285156 128.214844 159.785156 118.714844 159.785156 107 C 159.785156 95.285156 169.285156 85.785156 181 85.785156 C 192.714844 85.785156 202.214844 95.285156 202.214844 107 "/>
<path style="fill-rule:nonzero;fill:rgb(53%,27%,7%);fill-opacity:1;stroke-width:1;stroke-linecap:butt;stroke-linejoin:miter;stroke:rgb(0%,0%,0%);stroke-opacity:1;stroke-miterlimit:10;" d="M 809.785156 327.785156 L 809.785156 370.214844 L 852.214844 370.214844 L 852.214844 327.785156 L 809.785156 327.785156 "/>
<path style="fill-rule:nonzero;fill:rgb(35%,70%,90%);fill-opacity:1;stroke-width:1;stroke-linecap:butt;stroke-linejoin:miter;stroke:rgb(0%,0%,0%);stroke-opacity:1;stroke-miterlimit:10;" d="M 844.785156 141.785156 L 844.785156 184.214844 L 887.214844 184.214844 L 887.214844 141.785156 L 844.785156 141.785156 "/>
<path style="fill-rule:nonzero;fill:rgb(53%,27%,7%);fill-opacity:1;stroke-width:1;stroke-linecap:butt;stroke-linejoin:miter;stroke:rgb(0%,0%,0%);stroke-opacity:1;stroke-miterlimit:10;" d="M 683.785156 222.785156 L 683.785156 265.214844 L 726.214844 265.214844 L 726.214844 222.785156 L 683.785156 222.785156 "/>
<path style="fill-rule:nonzero;fill:rgb(35%,70%,90%);fill-opacity:1;stroke-width:1;stroke-linecap:butt;stroke-linejoin:miter;stroke:rgb(0%,0%,0%);stroke-opacity:1;stroke-miterlimit:10;" d="M 905.785156 400.785156 L 905.785156 443.214844 L 948.214844 443.214844 L 948.214844 400.785156 L 905.785156 400.785156 "/>
<path style="fill-rule:nonzero;fill:rgb(53%,27%,7%);fill-opacity:1;stroke-width:1;stroke-linecap:butt;stroke-linejoin:miter;stroke:rgb(0%,0%,0%);stroke-opacity:1;stroke-miterlimit:10;" d="M 973.785156 269.785156 L 973.785156 312.214844 L 1016.214844 312.214844 L 1016.214844 269.785156 L 973.785156 269.785156 "/>
<path style="fill-rule:nonzero;fill:rgb(53%,27%,7%);fill-opacity:1;stroke-width:1;stroke-linecap:butt;stroke-linejoin:miter;stroke:rgb(0%,0%,0%);stroke-opacity:1;stroke-miterlimit:10;" d="M 727.785156 106.785156 L 727.785156 149.214844 L 770.214844 149.214844 L 770.214844 106.785156 L 727.785156 106.785156 "/>
<path style="fill-rule:nonzero;fill:rgb(53%,27%,7%);fill-opacity:1;stroke-width:1;stroke-linecap:butt;stroke-linejoin:miter;stroke:rgb(0%,0%,0%);stroke-opacity:1;stroke-miterlimit:10;" d="M 675.785156 351.785156 L 675.785156 394.214844 L 718.214844 394.214844 L 718.214844 351.785156 L 675.785156 351.785156 "/>
</g>
</svg>
