<?xml version="1.0" encoding="UTF-8"?>
<svg xmlns="http://www.w3.org/2000/svg" xmlns:xlink="http://www.w3.org/1999/xlink" width="1129pt" height="517pt" viewBox="0 0 1129 517" version="1.1">
<g id="surface881">
<rect x="0" y="0" width="1129" height="517" style="fill:rgb(90%,90%,90%);fill-opacity:1;stroke:none;"/>
<path style="fill-rule:nonzero;fill:rgb(35%,70%,90%);fill-opacity:1;stroke-width:1;stroke-linecap:butt;stroke-linejoin:miter;stroke:rgb(0%,0%,0%);stroke-opacity:1;stroke-miterlimit:10;" d="M 956.214844 191 C 956.214844 202.714844 946.714844 212.214844 935 212.214844 C 923.285156 212.214844 913.785156 202.714844 913.785156 191 C 913.785156 179.285156 923.285156 169.785156 935 169.785156 C 946.714844 169.785156 956.214844 179.285156 956.214844 191 "/>
<path style="fill-rule:nonzero;fill:rgb(35%,70%,90%);fill-opacity:1;stroke-width:1;stroke-linecap:butt;stroke-linejoin:miter;stroke:rgb(0%,0%,0%);stroke-opacity:1;stroke-miterlimit:10;" d="M 689.214844 114 C 689.214844 125.714844 679.714844 135.214844 668 135.214844 C 656.285156 135.214844 646.785156 125.714844 646.785156 114 C 646.785156 102.285156 656.285156 92.785156 668 92.785156 C 679.714844 92.785156 689.214844 102.285156 689.214844 114 "/>
<path style="fill-rule:nonzero;fill:rgb(35%,70%,90%);fill-opacity:1;stroke-width:1;stroke-linecap:butt;stroke-linejoin:miter;stroke:rgb(0%,0%,0%);stroke-opacity:1;stroke-miterlimit:10;" d="M 181.214844 140 C 181.214844 151.714844 171.714844 161.214844 160 161.214844 C 148.285156 161.214844 138.785156 151.714844 138.785156 140 C 138.785156 128.285156 148.285156 118.785156 160 118.785156 C 171.714844 118.785156 181.214844 128.285156 181.214844 140 "/>
<path style="fill-rule:nonzero;fill:rgb(35%,70%,90%);fill-opacity:1;stroke-width:1;stroke-linecap:butt;stroke-linejoin:miter;stroke:rgb(0%,0%,0%);stroke-opacity:1;stroke-miterlimit:10;" d="M 478.214844 198 C 478.214844 209.714844 468.714844 219.214844 457 219.214844 C 445.285156 219.214844 435.785156 209.714844 435.785156 198 C 435.785156 186.285156 445.285156 176.785156 457 176.785156 C 468.714844 176.785156 478.214844 186.285156 478.214844 198 "/>
<path style="fill-rule:nonzero;fill:rgb(35%,70%,90%);fill-opacity:1;stroke-width:1;stroke-linecap:butt;stroke-linejoin:miter;stroke:rgb(0%,0%,0%);stroke-opacity:1;stroke-miterlimit:10;" d="M 479.214844 376 C 479.214844 387.714844 469.714844 397.214844 458 397.214844 C 446.285156 397.214844 436.785156 387.714844 436.785156 376 C 436.785156 364.285156 446.285156 354.785156 458 354.785156 C 469.714844 354.785156 479.214844 364.285156 479.214844 376 "/>
<path style="fill-rule:nonzero;fill:rgb(35%,70%,90%);fill-opacity:1;stroke-width:1;stroke-linecap:butt;stroke-linejoin:miter;stroke:rgb(0%,0%,0%);stroke-opacity:1;stroke-miterlimit:10;" d="M 884.214844 97 C 884.214844 108.714844 874.714844 118.214844 863 118.214844 C 851.285156 118.214844 841.785156 108.714844 841.785156 97 C 841.785156 85.285156 851.285156 75.785156 863 75.785156 C 874.714844 75.785156 884.214844 85.285156 884.214844 97 "/>
<path style="fill-rule:nonzero;fill:rgb(35%,70%,90%);fill-opacity:1;stroke-width:1;stroke-linecap:butt;stroke-linejoin:miter;stroke:rgb(0%,0%,0%);stroke-opacity:1;stroke-miterlimit:10;" d="M 256 389 L 285.664062 389 L 297.664062 360.785156 L 309.664062 389 L 339.332031 389 L 315.332031 406.4375 L 323.417969 437.980469 L 297.664062 420.542969 L 271.914062 437.980469 L 284.214844 406.4375 L 256 389 "/>
<path style="fill-rule:nonzero;fill:rgb(35%,70%,90%);fill-opacity:1;stroke-width:1;stroke-linecap:butt;stroke-linejoin:miter;stroke:rgb(0%,0%,0%);stroke-opacity:1;stroke-miterlimit:10;" d="M 668 286 L 697.664062 286 L 709.664062 257.785156 L 721.664062 286 L 751.332031 286 L 727.332031 303.4375 L 735.417969 334.980469 L 709.664062 317.542969 L 683.914062 334.980469 L 696.214844 303.4375 L 668 286 "/>
<path style="fill-rule:nonzero;fill:rgb(35%,70%,90%);fill-opacity:1;stroke-width:1;stroke-linecap:butt;stroke-linejoin:miter;stroke:rgb(0%,0%,0%);stroke-opacity:1;stroke-miterlimit:10;" d="M 69 310 L 98.664062 310 L 110.664062 281.785156 L 122.664062 310 L 152.332031 310 L 128.332031 327.4375 L 136.417969 358.980469 L 110.664062 341.542969 L 84.914062 358.980469 L 97.214844 327.4375 L 69 310 "/>
<path style="fill-rule:nonzero;fill:rgb(35%,70%,90%);fill-opacity:1;stroke-width:1;stroke-linecap:butt;stroke-linejoin:miter;stroke:rgb(0%,0%,0%);stroke-opacity:1;stroke-miterlimit:10;" d="M 164 242 L 193.664062 242 L 205.664062 213.785156 L 217.664062 242 L 247.332031 242 L 223.332031 259.4375 L 231.417969 290.980469 L 205.664062 273.542969 L 179.914062 290.980469 L 192.214844 259.4375 L 164 242 "/>
<path style="fill-rule:nonzero;fill:rgb(35%,70%,90%);fill-opacity:1;stroke-width:1;stroke-linecap:butt;stroke-linejoin:miter;stroke:rgb(0%,0%,0%);stroke-opacity:1;stroke-miterlimit:10;" d="M 69 139 L 98.664062 139 L 110.664062 110.785156 L 122.664062 139 L 152.332031 139 L 128.332031 156.4375 L 136.417969 187.980469 L 110.664062 170.542969 L 84.914062 187.980469 L 97.214844 156.4375 L 69 139 "/>
</g>
</svg>
