<?xml version="1.0" encoding="UTF-8"?>
<svg xmlns="http://www.w3.org/2000/svg" xmlns:xlink="http://www.w3.org/1999/xlink" width="1129pt" height="517pt" viewBox="0 0 1129 517" version="1.1">
<g id="surface606">
<rect x="0" y="0" width="1129" height="517" style="fill:rgb(90%,90%,90%);fill-opacity:1;stroke:none;"/>
<path style="fill-rule:nonzero;fill:rgb(35%,70%,90%);fill-opacity:1;stroke-width:1;stroke-linecap:butt;stroke-linejoin:miter;stroke:rgb(0%,0%,0%);stroke-opacity:1;stroke-miterlimit:10;" d="M 658 253 L 687.664062 253 L 699.664062 224.785156 L 711.664062 253 L 741.332031 253 L 717.332031 270.4375 L 725.417969 301.980469 L 699.664062 284.542969 L 673.914062 301.980469 L 686.214844 270.4375 L 658 253 "/>
<path style="fill-rule:nonzero;fill:rgb(35%,70%,90%);fill-opacity:1;stroke-width:1;stroke-linecap:butt;stroke-linejoin:miter;stroke:rgb(0%,0%,0%);stroke-opacity:1;stroke-miterlimit:10;" d="M 300 62 L 329.664062 62 L 341.664062 33.785156 L 353.664062 62 L 383.332031 62 L 359.332031 79.4375 L 367.417969 110.980469 L 341.664062 93.542969 L 315.914062 110.980469 L 328.214844 79.4375 L 300 62 "/>
<path style="fill-rule:nonzero;fill:rgb(35%,70%,90%);fill-opacity:1;stroke-width:1;stroke-linecap:butt;stroke-linejoin:miter;stroke:rgb(0%,0%,0%);stroke-opacity:1;stroke-miterlimit:10;" d="M 934 142 L 963.664062 142 L 975.664062 113.785156 L 987.664062 142 L 1017.332031 142 L 993.332031 159.4375 L 1001.417969 190.980469 L 975.664062 173.542969 L 949.914062 190.980469 L 962.214844 159.4375 L 934 142 "/>
<path style="fill-rule:nonzero;fill:rgb(35%,70%,90%);fill-opacity:1;stroke-width:1;stroke-linecap:butt;stroke-linejoin:miter;stroke:rgb(0%,0%,0%);stroke-opacity:1;stroke-miterlimit:10;" d="M 266 180 L 295.664062 180 L 307.664062 151.785156 L 319.664062 180 L 349.332031 180 L 325.332031 197.4375 L 333.417969 228.980469 L 307.664062 211.542969 L 281.914062 228.980469 L 294.214844 197.4375 L 266 180 "/>
<path style="fill-rule:nonzero;fill:rgb(55%,51%,53%);fill-opacity:1;stroke-width:1;stroke-linecap:butt;stroke-linejoin:miter;stroke:rgb(0%,0%,0%);stroke-opacity:1;stroke-miterlimit:10;" d="M 252 364 L 226.019531 409 L 277.980469 409 L 252 364 "/>
<path style="fill-rule:nonzero;fill:rgb(55%,51%,53%);fill-opacity:1;stroke-width:1;stroke-linecap:butt;stroke-linejoin:miter;stroke:rgb(0%,0%,0%);stroke-opacity:1;stroke-miterlimit:10;" d="M 830 313 L 804.019531 358 L 855.980469 358 L 830 313 "/>
<path style="fill-rule:nonzero;fill:rgb(55%,51%,53%);fill-opacity:1;stroke-width:1;stroke-linecap:butt;stroke-linejoin:miter;stroke:rgb(0%,0%,0%);stroke-opacity:1;stroke-miterlimit:10;" d="M 810 135 L 784.019531 180 L 835.980469 180 L 810 135 "/>
<path style="fill-rule:nonzero;fill:rgb(55%,51%,53%);fill-opacity:1;stroke-width:1;stroke-linecap:butt;stroke-linejoin:miter;stroke:rgb(0%,0%,0%);stroke-opacity:1;stroke-miterlimit:10;" d="M 260 270 L 234.019531 315 L 285.980469 315 L 260 270 "/>
</g>
</svg>
