<?xml version="1.0" encoding="UTF-8"?>
<svg xmlns="http://www.w3.org/2000/svg" xmlns:xlink="http://www.w3.org/1999/xlink" width="1129pt" height="517pt" viewBox="0 0 1129 517" version="1.1">
<g id="surface76">
<rect x="0" y="0" width="1129" height="517" style="fill:rgb(90%,90%,90%);fill-opacity:1;stroke:none;"/>
<path style="fill-rule:nonzero;fill:rgb(35%,70%,90%);fill-opacity:1;stroke-width:1;stroke-linecap:butt;stroke-linejoin:miter;stroke:rgb(0%,0%,0%);stroke-opacity:1;stroke-miterlimit:10;" d="M 104.214844 263 C 104.214844 274.714844 94.714844 284.214844 83 284.214844 C 71.285156 284.214844 61.785156 274.714844 61.785156 263 C 61.785156 251.285156 71.285156 241.785156 83 241.785156 C 94.714844 241.785156 104.214844 251.285156 104.214844 263 "/>
<path style="fill-rule:nonzero;fill:rgb(35%,70%,90%);fill-opacity:1;stroke-width:1;stroke-linecap:butt;stroke-linejoin:miter;stroke:rgb(0%,0%,0%);stroke-opacity:1;stroke-miterlimit:10;" d="M 269 378 L 243.019531 423 L 294.980469 423 L 269 378 "/>
<path style="fill-rule:nonzero;fill:rgb(35%,70%,90%);fill-opacity:1;stroke-width:1;stroke-linecap:butt;stroke-linejoin:miter;stroke:rgb(0%,0%,0%);stroke-opacity:1;stroke-miterlimit:10;" d="M 451.214844 128 C 451.214844 139.714844 441.714844 149.214844 430 149.214844 C 418.285156 149.214844 408.785156 139.714844 408.785156 128 C 408.785156 116.285156 418.285156 106.785156 430 106.785156 C 441.714844 106.785156 451.214844 116.285156 451.214844 128 "/>
<path style="fill-rule:nonzero;fill:rgb(35%,70%,90%);fill-opacity:1;stroke-width:1;stroke-linecap:butt;stroke-linejoin:miter;stroke:rgb(0%,0%,0%);stroke-opacity:1;stroke-miterlimit:10;" d="M 201 234 L 175.019531 279 L 226.980469 279 L 201 234 "/>
<path style="fill-rule:nonzero;fill:rgb(35%,70%,90%);fill-opacity:1;stroke-width:1;stroke-linecap:butt;stroke-linejoin:miter;stroke:rgb(0%,0%,0%);stroke-opacity:1;stroke-miterlimit:10;" d="M 86.214844 428 C 86.214844 439.714844 76.714844 449.214844 65 449.214844 C 53.285156 449.214844 43.785156 439.714844 43.785156 428 C 43.785156 416.285156 53.285156 406.785156 65 406.785156 C 76.714844 406.785156 86.214844 416.285156 86.214844 428 "/>
<path style="fill-rule:nonzero;fill:rgb(35%,70%,90%);fill-opacity:1;stroke-width:1;stroke-linecap:butt;stroke-linejoin:miter;stroke:rgb(0%,0%,0%);stroke-opacity:1;stroke-miterlimit:10;" d="M 117.214844 108 C 117.214844 119.714844 107.714844 129.214844 96 129.214844 C 84.285156 129.214844 74.785156 119.714844 74.785156 108 C 74.785156 96.285156 84.285156 86.785156 96 86.785156 C 107.714844 86.785156 117.214844 96.285156 117.214844 108 "/>
<path style="fill-rule:nonzero;fill:rgb(35%,70%,90%);fill-opacity:1;stroke-width:1;stroke-linecap:butt;stroke-linejoin:miter;stroke:rgb(0%,0%,0%);stroke-opacity:1;stroke-miterlimit:10;" d="M 407.214844 304 C 407.214844 315.714844 397.714844 325.214844 386 325.214844 C 374.285156 325.214844 364.785156 315.714844 364.785156 304 C 364.785156 292.285156 374.285156 282.785156 386 282.785156 C 397.714844 282.785156 407.214844 292.285156 407.214844 304 "/>
<path style="fill-rule:nonzero;fill:rgb(35%,70%,90%);fill-opacity:1;stroke-width:1;stroke-linecap:butt;stroke-linejoin:miter;stroke:rgb(0%,0%,0%);stroke-opacity:1;stroke-miterlimit:10;" d="M 178.214844 351 C 178.214844 362.714844 168.714844 372.214844 157 372.214844 C 145.285156 372.214844 135.785156 362.714844 135.785156 351 C 135.785156 339.285156 145.285156 329.785156 157 329.785156 C 168.714844 329.785156 178.214844 339.285156 178.214844 351 "/>
<path style="fill-rule:nonzero;fill:rgb(55%,51%,53%);fill-opacity:1;stroke-width:1;stroke-linecap:butt;stroke-linejoin:miter;stroke:rgb(0%,0%,0%);stroke-opacity:1;stroke-miterlimit:10;" d="M 661 190 L 635.019531 235 L 686.980469 235 L 661 190 "/>
<path style="fill-rule:nonzero;fill:rgb(55%,51%,53%);fill-opacity:1;stroke-width:1;stroke-linecap:butt;stroke-linejoin:miter;stroke:rgb(0%,0%,0%);stroke-opacity:1;stroke-miterlimit:10;" d="M 794.214844 323 C 794.214844 334.714844 784.714844 344.214844 773 344.214844 C 761.285156 344.214844 751.785156 334.714844 751.785156 323 C 751.785156 311.285156 761.285156 301.785156 773 301.785156 C 784.714844 301.785156 794.214844 311.285156 794.214844 323 "/>
<path style="fill-rule:nonzero;fill:rgb(55%,51%,53%);fill-opacity:1;stroke-width:1;stroke-linecap:butt;stroke-linejoin:miter;stroke:rgb(0%,0%,0%);stroke-opacity:1;stroke-miterlimit:10;" d="M 922 37 L 896.019531 82 L 947.980469 82 L 922 37 "/>
<path style="fill-rule:nonzero;fill:rgb(55%,51%,53%);fill-opacity:1;stroke-width:1;stroke-linecap:butt;stroke-linejoin:miter;stroke:rgb(0%,0%,0%);stroke-opacity:1;stroke-miterlimit:10;" d="M 1020.214844 138 C 1020.214844 149.714844 1010.714844 159.214844 999 159.214844 C 987.285156 159.214844 977.785156 149.714844 977.785156 138 C 977.785156 126.285156 987.285156 116.785156 999 116.785156 C 1010.714844 116.785156 1020.214844 126.285156 1020.214844 138 "/>
<path style="fill-rule:nonzero;fill:rgb(55%,51%,53%);fill-opacity:1;stroke-width:1;stroke-linecap:butt;stroke-linejoin:miter;stroke:rgb(0%,0%,0%);stroke-opacity:1;stroke-miterlimit:10;" d="M 792 22 L 766.019531 67 L 817.980469 67 L 792 22 "/>
<path style="fill-rule:nonzero;fill:rgb(55%,51%,53%);fill-opacity:1;stroke-width:1;stroke-linecap:butt;stroke-linejoin:miter;stroke:rgb(0%,0%,0%);stroke-opacity:1;stroke-miterlimit:10;" d="M 640 31 L 614.019531 76 L 665.980469 76 L 640 31 "/>
<path style="fill-rule:nonzero;fill:rgb(55%,51%,53%);fill-opacity:1;stroke-width:1;stroke-linecap:butt;stroke-linejoin:miter;stroke:rgb(0%,0%,0%);stroke-opacity:1;stroke-miterlimit:10;" d="M 743 426 L 717.019531 471 L 768.980469 471 L 743 426 "/>
<path style="fill-rule:nonzero;fill:rgb(55%,51%,53%);fill-opacity:1;stroke-width:1;stroke-linecap:butt;stroke-linejoin:miter;stroke:rgb(0%,0%,0%);stroke-opacity:1;stroke-miterlimit:10;" d="M 855 243 L 829.019531 288 L 880.980469 288 L 855 243 "/>
</g>
</svg>
