<?xml version="1.0" encoding="UTF-8"?>
<svg xmlns="http://www.w3.org/2000/svg" xmlns:xlink="http://www.w3.org/1999/xlink" width="1129pt" height="517pt" viewBox="0 0 1129 517" version="1.1">
<g id="surface156">
<rect x="0" y="0" width="1129" height="517" style="fill:rgb(90%,90%,90%);fill-opacity:1;stroke:none;"/>
<path style="fill-rule:nonzero;fill:rgb(55%,51%,53%);fill-opacity:1;stroke-width:1;stroke-linecap:butt;stroke-linejoin:miter;stroke:rgb(0%,0%,0%);stroke-opacity:1;stroke-miterlimit:10;" d="M 585 437 L 614.664062 437 L 626.664062 408.785156 L 638.664062 437 L 668.332031 437 L 644.332031 454.4375 L 652.417969 485.980469 L 626.664062 468.542969 L 600.914062 485.980469 L 613.214844 454.4375 L 585 437 "/>
<path style="fill-rule:nonzero;fill:rgb(55%,51%,53%);fill-opacity:1;stroke-width:1;stroke-linecap:butt;stroke-linejoin:miter;stroke:rgb(0%,0%,0%);stroke-opacity:1;stroke-miterlimit:10;" d="M 522 62 L 551.664062 62 L 563.664062 33.785156 L 575.664062 62 L 605.332031 62 L 581.332031 79.4375 L 589.417969 110.980469 L 563.664062 93.542969 L 537.914062 110.980469 L 550.214844 79.4375 L 522 62 "/>
<path style="fill-rule:nonzero;fill:rgb(55%,51%,53%);fill-opacity:1;stroke-width:1;stroke-linecap:butt;stroke-linejoin:miter;stroke:rgb(0%,0%,0%);stroke-opacity:1;stroke-miterlimit:10;" d="M 318 427 L 347.664062 427 L 359.664062 398.785156 L 371.664062 427 L 401.332031 427 L 377.332031 444.4375 L 385.417969 475.980469 L 359.664062 458.542969 L 333.914062 475.980469 L 346.214844 444.4375 L 318 427 "/>
<path style="fill-rule:nonzero;fill:rgb(55%,51%,53%);fill-opacity:1;stroke-width:1;stroke-linecap:butt;stroke-linejoin:miter;stroke:rgb(0%,0%,0%);stroke-opacity:1;stroke-miterlimit:10;" d="M 78 363 L 107.664062 363 L 119.664062 334.785156 L 131.664062 363 L 161.332031 363 L 137.332031 380.4375 L 145.417969 411.980469 L 119.664062 394.542969 L 93.914062 411.980469 L 106.214844 380.4375 L 78 363 "/>
<path style="fill-rule:nonzero;fill:rgb(55%,51%,53%);fill-opacity:1;stroke-width:1;stroke-linecap:butt;stroke-linejoin:miter;stroke:rgb(0%,0%,0%);stroke-opacity:1;stroke-miterlimit:10;" d="M 753 443 L 782.664062 443 L 794.664062 414.785156 L 806.664062 443 L 836.332031 443 L 812.332031 460.4375 L 820.417969 491.980469 L 794.664062 474.542969 L 768.914062 491.980469 L 781.214844 460.4375 L 753 443 "/>
<path style="fill-rule:nonzero;fill:rgb(55%,51%,53%);fill-opacity:1;stroke-width:1;stroke-linecap:butt;stroke-linejoin:miter;stroke:rgb(0%,0%,0%);stroke-opacity:1;stroke-miterlimit:10;" d="M 826 339 L 855.664062 339 L 867.664062 310.785156 L 879.664062 339 L 909.332031 339 L 885.332031 356.4375 L 893.417969 387.980469 L 867.664062 370.542969 L 841.914062 387.980469 L 854.214844 356.4375 L 826 339 "/>
<path style="fill-rule:nonzero;fill:rgb(55%,51%,53%);fill-opacity:1;stroke-width:1;stroke-linecap:butt;stroke-linejoin:miter;stroke:rgb(0%,0%,0%);stroke-opacity:1;stroke-miterlimit:10;" d="M 387 54 L 416.664062 54 L 428.664062 25.785156 L 440.664062 54 L 470.332031 54 L 446.332031 71.4375 L 454.417969 102.980469 L 428.664062 85.542969 L 402.914062 102.980469 L 415.214844 71.4375 L 387 54 "/>
<path style="fill-rule:nonzero;fill:rgb(53%,27%,7%);fill-opacity:1;stroke-width:1;stroke-linecap:butt;stroke-linejoin:miter;stroke:rgb(0%,0%,0%);stroke-opacity:1;stroke-miterlimit:10;" d="M 295 307 L 269.019531 352 L 320.980469 352 L 295 307 "/>
<path style="fill-rule:nonzero;fill:rgb(53%,27%,7%);fill-opacity:1;stroke-width:1;stroke-linecap:butt;stroke-linejoin:miter;stroke:rgb(0%,0%,0%);stroke-opacity:1;stroke-miterlimit:10;" d="M 491 355 L 465.019531 400 L 516.980469 400 L 491 355 "/>
<path style="fill-rule:nonzero;fill:rgb(53%,27%,7%);fill-opacity:1;stroke-width:1;stroke-linecap:butt;stroke-linejoin:miter;stroke:rgb(0%,0%,0%);stroke-opacity:1;stroke-miterlimit:10;" d="M 837 179 L 811.019531 224 L 862.980469 224 L 837 179 "/>
<path style="fill-rule:nonzero;fill:rgb(53%,27%,7%);fill-opacity:1;stroke-width:1;stroke-linecap:butt;stroke-linejoin:miter;stroke:rgb(0%,0%,0%);stroke-opacity:1;stroke-miterlimit:10;" d="M 420 250 L 394.019531 295 L 445.980469 295 L 420 250 "/>
<path style="fill-rule:nonzero;fill:rgb(53%,27%,7%);fill-opacity:1;stroke-width:1;stroke-linecap:butt;stroke-linejoin:miter;stroke:rgb(0%,0%,0%);stroke-opacity:1;stroke-miterlimit:10;" d="M 812 32 L 786.019531 77 L 837.980469 77 L 812 32 "/>
<path style="fill-rule:nonzero;fill:rgb(53%,27%,7%);fill-opacity:1;stroke-width:1;stroke-linecap:butt;stroke-linejoin:miter;stroke:rgb(0%,0%,0%);stroke-opacity:1;stroke-miterlimit:10;" d="M 741 94 L 715.019531 139 L 766.980469 139 L 741 94 "/>
<path style="fill-rule:nonzero;fill:rgb(53%,27%,7%);fill-opacity:1;stroke-width:1;stroke-linecap:butt;stroke-linejoin:miter;stroke:rgb(0%,0%,0%);stroke-opacity:1;stroke-miterlimit:10;" d="M 141 28 L 115.019531 73 L 166.980469 73 L 141 28 "/>
<path style="fill-rule:nonzero;fill:rgb(53%,27%,7%);fill-opacity:1;stroke-width:1;stroke-linecap:butt;stroke-linejoin:miter;stroke:rgb(0%,0%,0%);stroke-opacity:1;stroke-miterlimit:10;" d="M 168 279 L 142.019531 324 L 193.980469 324 L 168 279 "/>
</g>
</svg>
