<?xml version="1.0" encoding="UTF-8"?>
<svg xmlns="http://www.w3.org/2000/svg" xmlns:xlink="http://www.w3.org/1999/xlink" width="1129pt" height="517pt" viewBox="0 0 1129 517" version="1.1">
<g id="surface121">
<rect x="0" y="0" width="1129" height="517" style="fill:rgb(90%,90%,90%);fill-opacity:1;stroke:none;"/>
<path style="fill-rule:nonzero;fill:rgb(100%,51%,0%);fill-opacity:1;stroke-width:1;stroke-linecap:butt;stroke-linejoin:miter;stroke:rgb(0%,0%,0%);stroke-opacity:1;stroke-miterlimit:10;" d="M 190 338 L 219.664062 338 L 231.664062 309.785156 L 243.664062 338 L 273.332031 338 L 249.332031 355.4375 L 257.417969 386.980469 L 231.664062 369.542969 L 205.914062 386.980469 L 218.214844 355.4375 L 190 338 "/>
<path style="fill-rule:nonzero;fill:rgb(100%,51%,0%);fill-opacity:1;stroke-width:1;stroke-linecap:butt;stroke-linejoin:miter;stroke:rgb(0%,0%,0%);stroke-opacity:1;stroke-miterlimit:10;" d="M 402 313 L 431.664062 313 L 443.664062 284.785156 L 455.664062 313 L 485.332031 313 L 461.332031 330.4375 L 469.417969 361.980469 L 443.664062 344.542969 L 417.914062 361.980469 L 430.214844 330.4375 L 402 313 "/>
<path style="fill-rule:nonzero;fill:rgb(100%,51%,0%);fill-opacity:1;stroke-width:1;stroke-linecap:butt;stroke-linejoin:miter;stroke:rgb(0%,0%,0%);stroke-opacity:1;stroke-miterlimit:10;" d="M 896 102 L 925.664062 102 L 937.664062 73.785156 L 949.664062 102 L 979.332031 102 L 955.332031 119.4375 L 963.417969 150.980469 L 937.664062 133.542969 L 911.914062 150.980469 L 924.214844 119.4375 L 896 102 "/>
<path style="fill-rule:nonzero;fill:rgb(100%,51%,0%);fill-opacity:1;stroke-width:1;stroke-linecap:butt;stroke-linejoin:miter;stroke:rgb(0%,0%,0%);stroke-opacity:1;stroke-miterlimit:10;" d="M 723 60 L 752.664062 60 L 764.664062 31.785156 L 776.664062 60 L 806.332031 60 L 782.332031 77.4375 L 790.417969 108.980469 L 764.664062 91.542969 L 738.914062 108.980469 L 751.214844 77.4375 L 723 60 "/>
<path style="fill-rule:nonzero;fill:rgb(100%,51%,0%);fill-opacity:1;stroke-width:1;stroke-linecap:butt;stroke-linejoin:miter;stroke:rgb(0%,0%,0%);stroke-opacity:1;stroke-miterlimit:10;" d="M 353 117 L 382.664062 117 L 394.664062 88.785156 L 406.664062 117 L 436.332031 117 L 412.332031 134.4375 L 420.417969 165.980469 L 394.664062 148.542969 L 368.914062 165.980469 L 381.214844 134.4375 L 353 117 "/>
<path style="fill-rule:nonzero;fill:rgb(100%,51%,0%);fill-opacity:1;stroke-width:1;stroke-linecap:butt;stroke-linejoin:miter;stroke:rgb(0%,0%,0%);stroke-opacity:1;stroke-miterlimit:10;" d="M 589 74 L 618.664062 74 L 630.664062 45.785156 L 642.664062 74 L 672.332031 74 L 648.332031 91.4375 L 656.417969 122.980469 L 630.664062 105.542969 L 604.914062 122.980469 L 617.214844 91.4375 L 589 74 "/>
<path style="fill-rule:nonzero;fill:rgb(100%,51%,0%);fill-opacity:1;stroke-width:1;stroke-linecap:butt;stroke-linejoin:miter;stroke:rgb(0%,0%,0%);stroke-opacity:1;stroke-miterlimit:10;" d="M 528 318 L 557.664062 318 L 569.664062 289.785156 L 581.664062 318 L 611.332031 318 L 587.332031 335.4375 L 595.417969 366.980469 L 569.664062 349.542969 L 543.914062 366.980469 L 556.214844 335.4375 L 528 318 "/>
<path style="fill-rule:nonzero;fill:rgb(100%,51%,0%);fill-opacity:1;stroke-width:1;stroke-linecap:butt;stroke-linejoin:miter;stroke:rgb(0%,0%,0%);stroke-opacity:1;stroke-miterlimit:10;" d="M 857 288 L 886.664062 288 L 898.664062 259.785156 L 910.664062 288 L 940.332031 288 L 916.332031 305.4375 L 924.417969 336.980469 L 898.664062 319.542969 L 872.914062 336.980469 L 885.214844 305.4375 L 857 288 "/>
<path style="fill-rule:nonzero;fill:rgb(55%,51%,53%);fill-opacity:1;stroke-width:1;stroke-linecap:butt;stroke-linejoin:miter;stroke:rgb(0%,0%,0%);stroke-opacity:1;stroke-miterlimit:10;" d="M 975.214844 225 C 975.214844 236.714844 965.714844 246.214844 954 246.214844 C 942.285156 246.214844 932.785156 236.714844 932.785156 225 C 932.785156 213.285156 942.285156 203.785156 954 203.785156 C 965.714844 203.785156 975.214844 213.285156 975.214844 225 "/>
<path style="fill-rule:nonzero;fill:rgb(55%,51%,53%);fill-opacity:1;stroke-width:1;stroke-linecap:butt;stroke-linejoin:miter;stroke:rgb(0%,0%,0%);stroke-opacity:1;stroke-miterlimit:10;" d="M 219.214844 185 C 219.214844 196.714844 209.714844 206.214844 198 206.214844 C 186.285156 206.214844 176.785156 196.714844 176.785156 185 C 176.785156 173.285156 186.285156 163.785156 198 163.785156 C 209.714844 163.785156 219.214844 173.285156 219.214844 185 "/>
<path style="fill-rule:nonzero;fill:rgb(55%,51%,53%);fill-opacity:1;stroke-width:1;stroke-linecap:butt;stroke-linejoin:miter;stroke:rgb(0%,0%,0%);stroke-opacity:1;stroke-miterlimit:10;" d="M 495.214844 85 C 495.214844 96.714844 485.714844 106.214844 474 106.214844 C 462.285156 106.214844 452.785156 96.714844 452.785156 85 C 452.785156 73.285156 462.285156 63.785156 474 63.785156 C 485.714844 63.785156 495.214844 73.285156 495.214844 85 "/>
<path style="fill-rule:nonzero;fill:rgb(55%,51%,53%);fill-opacity:1;stroke-width:1;stroke-linecap:butt;stroke-linejoin:miter;stroke:rgb(0%,0%,0%);stroke-opacity:1;stroke-miterlimit:10;" d="M 386.214844 213 C 386.214844 224.714844 376.714844 234.214844 365 234.214844 C 353.285156 234.214844 343.785156 224.714844 343.785156 213 C 343.785156 201.285156 353.285156 191.785156 365 191.785156 C 376.714844 191.785156 386.214844 201.285156 386.214844 213 "/>
</g>
</svg>
