<?xml version="1.0" encoding="UTF-8"?>
<svg xmlns="http://www.w3.org/2000/svg" xmlns:xlink="http://www.w3.org/1999/xlink" width="1129pt" height="517pt" viewBox="0 0 1129 517" version="1.1">
<g id="surface741">
<rect x="0" y="0" width="1129" height="517" style="fill:rgb(90%,90%,90%);fill-opacity:1;stroke:none;"/>
<path style="fill-rule:nonzero;fill:rgb(100%,51%,0%);fill-opacity:1;stroke-width:1;stroke-linecap:butt;stroke-linejoin:miter;stroke:rgb(0%,0%,0%);stroke-opacity:1;stroke-miterlimit:10;" d="M 253.214844 135 C 253.214844 146.714844 243.714844 156.214844 232 156.214844 C 220.285156 156.214844 210.785156 146.714844 210.785156 135 C 210.785156 123.285156 220.285156 113.785156 232 113.785156 C 243.714844 113.785156 253.214844 123.285156 253.214844 135 "/>
<path style="fill-rule:nonzero;fill:rgb(100%,51%,0%);fill-opacity:1;stroke-width:1;stroke-linecap:butt;stroke-linejoin:miter;stroke:rgb(0%,0%,0%);stroke-opacity:1;stroke-miterlimit:10;" d="M 169.214844 238 C 169.214844 249.714844 159.714844 259.214844 148 259.214844 C 136.285156 259.214844 126.785156 249.714844 126.785156 238 C 126.785156 226.285156 136.285156 216.785156 148 216.785156 C 159.714844 216.785156 169.214844 226.285156 169.214844 238 "/>
<path style="fill-rule:nonzero;fill:rgb(100%,51%,0%);fill-opacity:1;stroke-width:1;stroke-linecap:butt;stroke-linejoin:miter;stroke:rgb(0%,0%,0%);stroke-opacity:1;stroke-miterlimit:10;" d="M 835.214844 254 C 835.214844 265.714844 825.714844 275.214844 814 275.214844 C 802.285156 275.214844 792.785156 265.714844 792.785156 254 C 792.785156 242.285156 802.285156 232.785156 814 232.785156 C 825.714844 232.785156 835.214844 242.285156 835.214844 254 "/>
<path style="fill-rule:nonzero;fill:rgb(100%,51%,0%);fill-opacity:1;stroke-width:1;stroke-linecap:butt;stroke-linejoin:miter;stroke:rgb(0%,0%,0%);stroke-opacity:1;stroke-miterlimit:10;" d="M 679.214844 190 C 679.214844 201.714844 669.714844 211.214844 658 211.214844 C 646.285156 211.214844 636.785156 201.714844 636.785156 190 C 636.785156 178.285156 646.285156 168.785156 658 168.785156 C 669.714844 168.785156 679.214844 178.285156 679.214844 190 "/>
<path style="fill-rule:nonzero;fill:rgb(100%,51%,0%);fill-opacity:1;stroke-width:1;stroke-linecap:butt;stroke-linejoin:miter;stroke:rgb(0%,0%,0%);stroke-opacity:1;stroke-miterlimit:10;" d="M 349.214844 399 C 349.214844 410.714844 339.714844 420.214844 328 420.214844 C 316.285156 420.214844 306.785156 410.714844 306.785156 399 C 306.785156 387.285156 316.285156 377.785156 328 377.785156 C 339.714844 377.785156 349.214844 387.285156 349.214844 399 "/>
<path style="fill-rule:nonzero;fill:rgb(35%,70%,90%);fill-opacity:1;stroke-width:1;stroke-linecap:butt;stroke-linejoin:miter;stroke:rgb(0%,0%,0%);stroke-opacity:1;stroke-miterlimit:10;" d="M 83 53 L 112.664062 53 L 124.664062 24.785156 L 136.664062 53 L 166.332031 53 L 142.332031 70.4375 L 150.417969 101.980469 L 124.664062 84.542969 L 98.914062 101.980469 L 111.214844 70.4375 L 83 53 "/>
<path style="fill-rule:nonzero;fill:rgb(35%,70%,90%);fill-opacity:1;stroke-width:1;stroke-linecap:butt;stroke-linejoin:miter;stroke:rgb(0%,0%,0%);stroke-opacity:1;stroke-miterlimit:10;" d="M 932 307 L 961.664062 307 L 973.664062 278.785156 L 985.664062 307 L 1015.332031 307 L 991.332031 324.4375 L 999.417969 355.980469 L 973.664062 338.542969 L 947.914062 355.980469 L 960.214844 324.4375 L 932 307 "/>
<path style="fill-rule:nonzero;fill:rgb(35%,70%,90%);fill-opacity:1;stroke-width:1;stroke-linecap:butt;stroke-linejoin:miter;stroke:rgb(0%,0%,0%);stroke-opacity:1;stroke-miterlimit:10;" d="M 526 422 L 555.664062 422 L 567.664062 393.785156 L 579.664062 422 L 609.332031 422 L 585.332031 439.4375 L 593.417969 470.980469 L 567.664062 453.542969 L 541.914062 470.980469 L 554.214844 439.4375 L 526 422 "/>
<path style="fill-rule:nonzero;fill:rgb(35%,70%,90%);fill-opacity:1;stroke-width:1;stroke-linecap:butt;stroke-linejoin:miter;stroke:rgb(0%,0%,0%);stroke-opacity:1;stroke-miterlimit:10;" d="M 374 121 L 403.664062 121 L 415.664062 92.785156 L 427.664062 121 L 457.332031 121 L 433.332031 138.4375 L 441.417969 169.980469 L 415.664062 152.542969 L 389.914062 169.980469 L 402.214844 138.4375 L 374 121 "/>
<path style="fill-rule:nonzero;fill:rgb(35%,70%,90%);fill-opacity:1;stroke-width:1;stroke-linecap:butt;stroke-linejoin:miter;stroke:rgb(0%,0%,0%);stroke-opacity:1;stroke-miterlimit:10;" d="M 942 117 L 971.664062 117 L 983.664062 88.785156 L 995.664062 117 L 1025.332031 117 L 1001.332031 134.4375 L 1009.417969 165.980469 L 983.664062 148.542969 L 957.914062 165.980469 L 970.214844 134.4375 L 942 117 "/>
<path style="fill-rule:nonzero;fill:rgb(35%,70%,90%);fill-opacity:1;stroke-width:1;stroke-linecap:butt;stroke-linejoin:miter;stroke:rgb(0%,0%,0%);stroke-opacity:1;stroke-miterlimit:10;" d="M 420 399 L 449.664062 399 L 461.664062 370.785156 L 473.664062 399 L 503.332031 399 L 479.332031 416.4375 L 487.417969 447.980469 L 461.664062 430.542969 L 435.914062 447.980469 L 448.214844 416.4375 L 420 399 "/>
<path style="fill-rule:nonzero;fill:rgb(35%,70%,90%);fill-opacity:1;stroke-width:1;stroke-linecap:butt;stroke-linejoin:miter;stroke:rgb(0%,0%,0%);stroke-opacity:1;stroke-miterlimit:10;" d="M 89 416 L 118.664062 416 L 130.664062 387.785156 L 142.664062 416 L 172.332031 416 L 148.332031 433.4375 L 156.417969 464.980469 L 130.664062 447.542969 L 104.914062 464.980469 L 117.214844 433.4375 L 89 416 "/>
<path style="fill-rule:nonzero;fill:rgb(35%,70%,90%);fill-opacity:1;stroke-width:1;stroke-linecap:butt;stroke-linejoin:miter;stroke:rgb(0%,0%,0%);stroke-opacity:1;stroke-miterlimit:10;" d="M 841 131 L 870.664062 131 L 882.664062 102.785156 L 894.664062 131 L 924.332031 131 L 900.332031 148.4375 L 908.417969 179.980469 L 882.664062 162.542969 L 856.914062 179.980469 L 869.214844 148.4375 L 841 131 "/>
</g>
</svg>
