<?xml version="1.0" encoding="UTF-8"?>
<svg xmlns="http://www.w3.org/2000/svg" xmlns:xlink="http://www.w3.org/1999/xlink" width="1129pt" height="517pt" viewBox="0 0 1129 517" version="1.1">
<g id="surface936">
<rect x="0" y="0" width="1129" height="517" style="fill:rgb(90%,90%,90%);fill-opacity:1;stroke:none;"/>
<path style="fill-rule:nonzero;fill:rgb(100%,0%,0%);fill-opacity:1;stroke-width:1;stroke-linecap:butt;stroke-linejoin:miter;stroke:rgb(0%,0%,0%);stroke-opacity:1;stroke-miterlimit:10;" d="M 623 225.601562 C 623 211.199219 599 211.199219 599 225.601562 C 599 240 623 242.398438 623 254.398438 C 623 242.398438 647 240 647 225.601562 C 647 211.199219 623 211.199219 623 225.601562 "/>
<path style="fill-rule:nonzero;fill:rgb(100%,0%,0%);fill-opacity:1;stroke-width:1;stroke-linecap:butt;stroke-linejoin:miter;stroke:rgb(0%,0%,0%);stroke-opacity:1;stroke-miterlimit:10;" d="M 267 431.601562 C 267 417.199219 243 417.199219 243 431.601562 C 243 446 267 448.398438 267 460.398438 C 267 448.398438 291 446 291 431.601562 C 291 417.199219 267 417.199219 267 431.601562 "/>
<path style="fill-rule:nonzero;fill:rgb(100%,0%,0%);fill-opacity:1;stroke-width:1;stroke-linecap:butt;stroke-linejoin:miter;stroke:rgb(0%,0%,0%);stroke-opacity:1;stroke-miterlimit:10;" d="M 945 168.601562 C 945 154.199219 921 154.199219 921 168.601562 C 921 183 945 185.398438 945 197.398438 C 945 185.398438 969 183 969 168.601562 C 969 154.199219 945 154.199219 945 168.601562 "/>
<path style="fill-rule:nonzero;fill:rgb(100%,0%,0%);fill-opacity:1;stroke-width:1;stroke-linecap:butt;stroke-linejoin:miter;stroke:rgb(0%,0%,0%);stroke-opacity:1;stroke-miterlimit:10;" d="M 437 272.601562 C 437 258.199219 413 258.199219 413 272.601562 C 413 287 437 289.398438 437 301.398438 C 437 289.398438 461 287 461 272.601562 C 461 258.199219 437 258.199219 437 272.601562 "/>
<path style="fill-rule:nonzero;fill:rgb(100%,0%,0%);fill-opacity:1;stroke-width:1;stroke-linecap:butt;stroke-linejoin:miter;stroke:rgb(0%,0%,0%);stroke-opacity:1;stroke-miterlimit:10;" d="M 787 159.601562 C 787 145.199219 763 145.199219 763 159.601562 C 763 174 787 176.398438 787 188.398438 C 787 176.398438 811 174 811 159.601562 C 811 145.199219 787 145.199219 787 159.601562 "/>
<path style="fill-rule:nonzero;fill:rgb(0%,0%,0%);fill-opacity:1;stroke-width:1;stroke-linecap:butt;stroke-linejoin:miter;stroke:rgb(0%,0%,0%);stroke-opacity:1;stroke-miterlimit:10;" d="M 838 393 L 818 393 L 818 403 L 838 403 L 838 423 L 848 423 L 848 403 L 868 403 L 868 393 L 848 393 L 848 373 L 838 373 L 838 393 "/>
<path style="fill-rule:nonzero;fill:rgb(0%,0%,0%);fill-opacity:1;stroke-width:1;stroke-linecap:butt;stroke-linejoin:miter;stroke:rgb(0%,0%,0%);stroke-opacity:1;stroke-miterlimit:10;" d="M 70 388 L 50 388 L 50 398 L 70 398 L 70 418 L 80 418 L 80 398 L 100 398 L 100 388 L 80 388 L 80 368 L 70 368 L 70 388 "/>
<path style="fill-rule:nonzero;fill:rgb(0%,0%,0%);fill-opacity:1;stroke-width:1;stroke-linecap:butt;stroke-linejoin:miter;stroke:rgb(0%,0%,0%);stroke-opacity:1;stroke-miterlimit:10;" d="M 341 346 L 321 346 L 321 356 L 341 356 L 341 376 L 351 376 L 351 356 L 371 356 L 371 346 L 351 346 L 351 326 L 341 326 L 341 346 "/>
<path style="fill-rule:nonzero;fill:rgb(0%,0%,0%);fill-opacity:1;stroke-width:1;stroke-linecap:butt;stroke-linejoin:miter;stroke:rgb(0%,0%,0%);stroke-opacity:1;stroke-miterlimit:10;" d="M 852 72 L 832 72 L 832 82 L 852 82 L 852 102 L 862 102 L 862 82 L 882 82 L 882 72 L 862 72 L 862 52 L 852 52 L 852 72 "/>
<path style="fill-rule:nonzero;fill:rgb(0%,0%,0%);fill-opacity:1;stroke-width:1;stroke-linecap:butt;stroke-linejoin:miter;stroke:rgb(0%,0%,0%);stroke-opacity:1;stroke-miterlimit:10;" d="M 497 174 L 477 174 L 477 184 L 497 184 L 497 204 L 507 204 L 507 184 L 527 184 L 527 174 L 507 174 L 507 154 L 497 154 L 497 174 "/>
<path style="fill-rule:nonzero;fill:rgb(0%,0%,0%);fill-opacity:1;stroke-width:1;stroke-linecap:butt;stroke-linejoin:miter;stroke:rgb(0%,0%,0%);stroke-opacity:1;stroke-miterlimit:10;" d="M 58 117 L 38 117 L 38 127 L 58 127 L 58 147 L 68 147 L 68 127 L 88 127 L 88 117 L 68 117 L 68 97 L 58 97 L 58 117 "/>
</g>
</svg>
