<?xml version="1.0" encoding="UTF-8"?>
<svg xmlns="http://www.w3.org/2000/svg" xmlns:xlink="http://www.w3.org/1999/xlink" width="1129pt" height="517pt" viewBox="0 0 1129 517" version="1.1">
<g id="surface706">
<rect x="0" y="0" width="1129" height="517" style="fill:rgb(90%,90%,90%);fill-opacity:1;stroke:none;"/>
<path style="fill-rule:nonzero;fill:rgb(55%,51%,53%);fill-opacity:1;stroke-width:1;stroke-linecap:butt;stroke-linejoin:miter;stroke:rgb(0%,0%,0%);stroke-opacity:1;stroke-miterlimit:10;" d="M 76.214844 251 C 76.214844 262.714844 66.714844 272.214844 55 272.214844 C 43.285156 272.214844 33.785156 262.714844 33.785156 251 C 33.785156 239.285156 43.285156 229.785156 55 229.785156 C 66.714844 229.785156 76.214844 239.285156 76.214844 251 "/>
<path style="fill-rule:nonzero;fill:rgb(55%,51%,53%);fill-opacity:1;stroke-width:1;stroke-linecap:butt;stroke-linejoin:miter;stroke:rgb(0%,0%,0%);stroke-opacity:1;stroke-miterlimit:10;" d="M 272.214844 459 C 272.214844 470.714844 262.714844 480.214844 251 480.214844 C 239.285156 480.214844 229.785156 470.714844 229.785156 459 C 229.785156 447.285156 239.285156 437.785156 251 437.785156 C 262.714844 437.785156 272.214844 447.285156 272.214844 459 "/>
<path style="fill-rule:nonzero;fill:rgb(53%,27%,7%);fill-opacity:1;stroke-width:1;stroke-linecap:butt;stroke-linejoin:miter;stroke:rgb(0%,0%,0%);stroke-opacity:1;stroke-miterlimit:10;" d="M 396.214844 355 C 396.214844 366.714844 386.714844 376.214844 375 376.214844 C 363.285156 376.214844 353.785156 366.714844 353.785156 355 C 353.785156 343.285156 363.285156 333.785156 375 333.785156 C 386.714844 333.785156 396.214844 343.285156 396.214844 355 "/>
<path style="fill-rule:nonzero;fill:rgb(53%,27%,7%);fill-opacity:1;stroke-width:1;stroke-linecap:butt;stroke-linejoin:miter;stroke:rgb(0%,0%,0%);stroke-opacity:1;stroke-miterlimit:10;" d="M 450.214844 99 C 450.214844 110.714844 440.714844 120.214844 429 120.214844 C 417.285156 120.214844 407.785156 110.714844 407.785156 99 C 407.785156 87.285156 417.285156 77.785156 429 77.785156 C 440.714844 77.785156 450.214844 87.285156 450.214844 99 "/>
<path style="fill-rule:nonzero;fill:rgb(53%,27%,7%);fill-opacity:1;stroke-width:1;stroke-linecap:butt;stroke-linejoin:miter;stroke:rgb(0%,0%,0%);stroke-opacity:1;stroke-miterlimit:10;" d="M 895 138 L 869.019531 183 L 920.980469 183 L 895 138 "/>
<path style="fill-rule:nonzero;fill:rgb(53%,27%,7%);fill-opacity:1;stroke-width:1;stroke-linecap:butt;stroke-linejoin:miter;stroke:rgb(0%,0%,0%);stroke-opacity:1;stroke-miterlimit:10;" d="M 711 182 L 685.019531 227 L 736.980469 227 L 711 182 "/>
<path style="fill-rule:nonzero;fill:rgb(55%,51%,53%);fill-opacity:1;stroke-width:1;stroke-linecap:butt;stroke-linejoin:miter;stroke:rgb(0%,0%,0%);stroke-opacity:1;stroke-miterlimit:10;" d="M 982 72 L 956.019531 117 L 1007.980469 117 L 982 72 "/>
<path style="fill-rule:nonzero;fill:rgb(55%,51%,53%);fill-opacity:1;stroke-width:1;stroke-linecap:butt;stroke-linejoin:miter;stroke:rgb(0%,0%,0%);stroke-opacity:1;stroke-miterlimit:10;" d="M 848 363 L 822.019531 408 L 873.980469 408 L 848 363 "/>
<path style="fill-rule:nonzero;fill:rgb(53%,27%,7%);fill-opacity:1;stroke-width:1;stroke-linecap:butt;stroke-linejoin:miter;stroke:rgb(0%,0%,0%);stroke-opacity:1;stroke-miterlimit:10;" d="M 790 262 L 764.019531 307 L 815.980469 307 L 790 262 "/>
</g>
</svg>
