<?xml version="1.0" encoding="UTF-8"?>
<svg xmlns="http://www.w3.org/2000/svg" xmlns:xlink="http://www.w3.org/1999/xlink" width="1129pt" height="517pt" viewBox="0 0 1129 517" version="1.1">
<g id="surface791">
<rect x="0" y="0" width="1129" height="517" style="fill:rgb(90%,90%,90%);fill-opacity:1;stroke:none;"/>
<path style="fill-rule:nonzero;fill:rgb(35%,70%,90%);fill-opacity:1;stroke-width:1;stroke-linecap:butt;stroke-linejoin:miter;stroke:rgb(0%,0%,0%);stroke-opacity:1;stroke-miterlimit:10;" d="M 858.214844 361 C 858.214844 372.714844 848.714844 382.214844 837 382.214844 C 825.285156 382.214844 815.785156 372.714844 815.785156 361 C 815.785156 349.285156 825.285156 339.785156 837 339.785156 C 848.714844 339.785156 858.214844 349.285156 858.214844 361 "/>
<path style="fill-rule:nonzero;fill:rgb(35%,70%,90%);fill-opacity:1;stroke-width:1;stroke-linecap:butt;stroke-linejoin:miter;stroke:rgb(0%,0%,0%);stroke-opacity:1;stroke-miterlimit:10;" d="M 81.214844 93 C 81.214844 104.714844 71.714844 114.214844 60 114.214844 C 48.285156 114.214844 38.785156 104.714844 38.785156 93 C 38.785156 81.285156 48.285156 71.785156 60 71.785156 C 71.714844 71.785156 81.214844 81.285156 81.214844 93 "/>
<path style="fill-rule:nonzero;fill:rgb(35%,70%,90%);fill-opacity:1;stroke-width:1;stroke-linecap:butt;stroke-linejoin:miter;stroke:rgb(0%,0%,0%);stroke-opacity:1;stroke-miterlimit:10;" d="M 301.214844 240 C 301.214844 251.714844 291.714844 261.214844 280 261.214844 C 268.285156 261.214844 258.785156 251.714844 258.785156 240 C 258.785156 228.285156 268.285156 218.785156 280 218.785156 C 291.714844 218.785156 301.214844 228.285156 301.214844 240 "/>
<path style="fill-rule:nonzero;fill:rgb(35%,70%,90%);fill-opacity:1;stroke-width:1;stroke-linecap:butt;stroke-linejoin:miter;stroke:rgb(0%,0%,0%);stroke-opacity:1;stroke-miterlimit:10;" d="M 980.214844 156 C 980.214844 167.714844 970.714844 177.214844 959 177.214844 C 947.285156 177.214844 937.785156 167.714844 937.785156 156 C 937.785156 144.285156 947.285156 134.785156 959 134.785156 C 970.714844 134.785156 980.214844 144.285156 980.214844 156 "/>
<path style="fill-rule:nonzero;fill:rgb(35%,70%,90%);fill-opacity:1;stroke-width:1;stroke-linecap:butt;stroke-linejoin:miter;stroke:rgb(0%,0%,0%);stroke-opacity:1;stroke-miterlimit:10;" d="M 561.214844 151 C 561.214844 162.714844 551.714844 172.214844 540 172.214844 C 528.285156 172.214844 518.785156 162.714844 518.785156 151 C 518.785156 139.285156 528.285156 129.785156 540 129.785156 C 551.714844 129.785156 561.214844 139.285156 561.214844 151 "/>
<path style="fill-rule:nonzero;fill:rgb(35%,70%,90%);fill-opacity:1;stroke-width:1;stroke-linecap:butt;stroke-linejoin:miter;stroke:rgb(0%,0%,0%);stroke-opacity:1;stroke-miterlimit:10;" d="M 606.214844 447 C 606.214844 458.714844 596.714844 468.214844 585 468.214844 C 573.285156 468.214844 563.785156 458.714844 563.785156 447 C 563.785156 435.285156 573.285156 425.785156 585 425.785156 C 596.714844 425.785156 606.214844 435.285156 606.214844 447 "/>
<path style="fill-rule:nonzero;fill:rgb(35%,70%,90%);fill-opacity:1;stroke-width:1;stroke-linecap:butt;stroke-linejoin:miter;stroke:rgb(0%,0%,0%);stroke-opacity:1;stroke-miterlimit:10;" d="M 473 215 L 502.664062 215 L 514.664062 186.785156 L 526.664062 215 L 556.332031 215 L 532.332031 232.4375 L 540.417969 263.980469 L 514.664062 246.542969 L 488.914062 263.980469 L 501.214844 232.4375 L 473 215 "/>
<path style="fill-rule:nonzero;fill:rgb(35%,70%,90%);fill-opacity:1;stroke-width:1;stroke-linecap:butt;stroke-linejoin:miter;stroke:rgb(0%,0%,0%);stroke-opacity:1;stroke-miterlimit:10;" d="M 153 379 L 182.664062 379 L 194.664062 350.785156 L 206.664062 379 L 236.332031 379 L 212.332031 396.4375 L 220.417969 427.980469 L 194.664062 410.542969 L 168.914062 427.980469 L 181.214844 396.4375 L 153 379 "/>
<path style="fill-rule:nonzero;fill:rgb(35%,70%,90%);fill-opacity:1;stroke-width:1;stroke-linecap:butt;stroke-linejoin:miter;stroke:rgb(0%,0%,0%);stroke-opacity:1;stroke-miterlimit:10;" d="M 639 108 L 668.664062 108 L 680.664062 79.785156 L 692.664062 108 L 722.332031 108 L 698.332031 125.4375 L 706.417969 156.980469 L 680.664062 139.542969 L 654.914062 156.980469 L 667.214844 125.4375 L 639 108 "/>
<path style="fill-rule:nonzero;fill:rgb(35%,70%,90%);fill-opacity:1;stroke-width:1;stroke-linecap:butt;stroke-linejoin:miter;stroke:rgb(0%,0%,0%);stroke-opacity:1;stroke-miterlimit:10;" d="M 628 282 L 657.664062 282 L 669.664062 253.785156 L 681.664062 282 L 711.332031 282 L 687.332031 299.4375 L 695.417969 330.980469 L 669.664062 313.542969 L 643.914062 330.980469 L 656.214844 299.4375 L 628 282 "/>
<path style="fill-rule:nonzero;fill:rgb(35%,70%,90%);fill-opacity:1;stroke-width:1;stroke-linecap:butt;stroke-linejoin:miter;stroke:rgb(0%,0%,0%);stroke-opacity:1;stroke-miterlimit:10;" d="M 844 87 L 873.664062 87 L 885.664062 58.785156 L 897.664062 87 L 927.332031 87 L 903.332031 104.4375 L 911.417969 135.980469 L 885.664062 118.542969 L 859.914062 135.980469 L 872.214844 104.4375 L 844 87 "/>
</g>
</svg>
