<?xml version="1.0" encoding="UTF-8"?>
<svg xmlns="http://www.w3.org/2000/svg" xmlns:xlink="http://www.w3.org/1999/xlink" width="1129pt" height="517pt" viewBox="0 0 1129 517" version="1.1">
<g id="surface251">
<rect x="0" y="0" width="1129" height="517" style="fill:rgb(90%,90%,90%);fill-opacity:1;stroke:none;"/>
<path style="fill-rule:nonzero;fill:rgb(35%,70%,90%);fill-opacity:1;stroke-width:1;stroke-linecap:butt;stroke-linejoin:miter;stroke:rgb(0%,0%,0%);stroke-opacity:1;stroke-miterlimit:10;" d="M 79 326 L 108.664062 326 L 120.664062 297.785156 L 132.664062 326 L 162.332031 326 L 138.332031 343.4375 L 146.417969 374.980469 L 120.664062 357.542969 L 94.914062 374.980469 L 107.214844 343.4375 L 79 326 "/>
<path style="fill-rule:nonzero;fill:rgb(55%,51%,53%);fill-opacity:1;stroke-width:1;stroke-linecap:butt;stroke-linejoin:miter;stroke:rgb(0%,0%,0%);stroke-opacity:1;stroke-miterlimit:10;" d="M 417 274 L 446.664062 274 L 458.664062 245.785156 L 470.664062 274 L 500.332031 274 L 476.332031 291.4375 L 484.417969 322.980469 L 458.664062 305.542969 L 432.914062 322.980469 L 445.214844 291.4375 L 417 274 "/>
<path style="fill-rule:nonzero;fill:rgb(35%,70%,90%);fill-opacity:1;stroke-width:1;stroke-linecap:butt;stroke-linejoin:miter;stroke:rgb(0%,0%,0%);stroke-opacity:1;stroke-miterlimit:10;" d="M 301 87 L 330.664062 87 L 342.664062 58.785156 L 354.664062 87 L 384.332031 87 L 360.332031 104.4375 L 368.417969 135.980469 L 342.664062 118.542969 L 316.914062 135.980469 L 329.214844 104.4375 L 301 87 "/>
<path style="fill-rule:nonzero;fill:rgb(55%,51%,53%);fill-opacity:1;stroke-width:1;stroke-linecap:butt;stroke-linejoin:miter;stroke:rgb(0%,0%,0%);stroke-opacity:1;stroke-miterlimit:10;" d="M 205 345 L 234.664062 345 L 246.664062 316.785156 L 258.664062 345 L 288.332031 345 L 264.332031 362.4375 L 272.417969 393.980469 L 246.664062 376.542969 L 220.914062 393.980469 L 233.214844 362.4375 L 205 345 "/>
<path style="fill-rule:nonzero;fill:rgb(35%,70%,90%);fill-opacity:1;stroke-width:1;stroke-linecap:butt;stroke-linejoin:miter;stroke:rgb(0%,0%,0%);stroke-opacity:1;stroke-miterlimit:10;" d="M 108 111 L 137.664062 111 L 149.664062 82.785156 L 161.664062 111 L 191.332031 111 L 167.332031 128.4375 L 175.417969 159.980469 L 149.664062 142.542969 L 123.914062 159.980469 L 136.214844 128.4375 L 108 111 "/>
<path style="fill-rule:nonzero;fill:rgb(55%,51%,53%);fill-opacity:1;stroke-width:1;stroke-linecap:butt;stroke-linejoin:miter;stroke:rgb(0%,0%,0%);stroke-opacity:1;stroke-miterlimit:10;" d="M 635.785156 275.785156 L 635.785156 318.214844 L 678.214844 318.214844 L 678.214844 275.785156 L 635.785156 275.785156 "/>
<path style="fill-rule:nonzero;fill:rgb(35%,70%,90%);fill-opacity:1;stroke-width:1;stroke-linecap:butt;stroke-linejoin:miter;stroke:rgb(0%,0%,0%);stroke-opacity:1;stroke-miterlimit:10;" d="M 702.785156 403.785156 L 702.785156 446.214844 L 745.214844 446.214844 L 745.214844 403.785156 L 702.785156 403.785156 "/>
<path style="fill-rule:nonzero;fill:rgb(55%,51%,53%);fill-opacity:1;stroke-width:1;stroke-linecap:butt;stroke-linejoin:miter;stroke:rgb(0%,0%,0%);stroke-opacity:1;stroke-miterlimit:10;" d="M 670.785156 35.785156 L 670.785156 78.214844 L 713.214844 78.214844 L 713.214844 35.785156 L 670.785156 35.785156 "/>
<path style="fill-rule:nonzero;fill:rgb(35%,70%,90%);fill-opacity:1;stroke-width:1;stroke-linecap:butt;stroke-linejoin:miter;stroke:rgb(0%,0%,0%);stroke-opacity:1;stroke-miterlimit:10;" d="M 879.785156 43.785156 L 879.785156 86.214844 L 922.214844 86.214844 L 922.214844 43.785156 L 879.785156 43.785156 "/>
<path style="fill-rule:nonzero;fill:rgb(55%,51%,53%);fill-opacity:1;stroke-width:1;stroke-linecap:butt;stroke-linejoin:miter;stroke:rgb(0%,0%,0%);stroke-opacity:1;stroke-miterlimit:10;" d="M 819.785156 129.785156 L 819.785156 172.214844 L 862.214844 172.214844 L 862.214844 129.785156 L 819.785156 129.785156 "/>
<path style="fill-rule:nonzero;fill:rgb(55%,51%,53%);fill-opacity:1;stroke-width:1;stroke-linecap:butt;stroke-linejoin:miter;stroke:rgb(0%,0%,0%);stroke-opacity:1;stroke-miterlimit:10;" d="M 858.785156 312.785156 L 858.785156 355.214844 L 901.214844 355.214844 L 901.214844 312.785156 L 858.785156 312.785156 "/>
<path style="fill-rule:nonzero;fill:rgb(55%,51%,53%);fill-opacity:1;stroke-width:1;stroke-linecap:butt;stroke-linejoin:miter;stroke:rgb(0%,0%,0%);stroke-opacity:1;stroke-miterlimit:10;" d="M 938.785156 381.785156 L 938.785156 424.214844 L 981.214844 424.214844 L 981.214844 381.785156 L 938.785156 381.785156 "/>
<path style="fill-rule:nonzero;fill:rgb(55%,51%,53%);fill-opacity:1;stroke-width:1;stroke-linecap:butt;stroke-linejoin:miter;stroke:rgb(0%,0%,0%);stroke-opacity:1;stroke-miterlimit:10;" d="M 939.785156 119.785156 L 939.785156 162.214844 L 982.214844 162.214844 L 982.214844 119.785156 L 939.785156 119.785156 "/>
</g>
</svg>
