<?xml version="1.0" encoding="UTF-8"?>
<svg xmlns="http://www.w3.org/2000/svg" xmlns:xlink="http://www.w3.org/1999/xlink" width="1129pt" height="517pt" viewBox="0 0 1129 517" version="1.1">
<g id="surface226">
<rect x="0" y="0" width="1129" height="517" style="fill:rgb(90%,90%,90%);fill-opacity:1;stroke:none;"/>
<path style="fill-rule:nonzero;fill:rgb(35%,70%,90%);fill-opacity:1;stroke-width:1;stroke-linecap:butt;stroke-linejoin:miter;stroke:rgb(0%,0%,0%);stroke-opacity:1;stroke-miterlimit:10;" d="M 236.214844 159 C 236.214844 170.714844 226.714844 180.214844 215 180.214844 C 203.285156 180.214844 193.785156 170.714844 193.785156 159 C 193.785156 147.285156 203.285156 137.785156 215 137.785156 C 226.714844 137.785156 236.214844 147.285156 236.214844 159 "/>
<path style="fill-rule:nonzero;fill:rgb(53%,27%,7%);fill-opacity:1;stroke-width:1;stroke-linecap:butt;stroke-linejoin:miter;stroke:rgb(0%,0%,0%);stroke-opacity:1;stroke-miterlimit:10;" d="M 299.214844 281 C 299.214844 292.714844 289.714844 302.214844 278 302.214844 C 266.285156 302.214844 256.785156 292.714844 256.785156 281 C 256.785156 269.285156 266.285156 259.785156 278 259.785156 C 289.714844 259.785156 299.214844 269.285156 299.214844 281 "/>
<path style="fill-rule:nonzero;fill:rgb(53%,27%,7%);fill-opacity:1;stroke-width:1;stroke-linecap:butt;stroke-linejoin:miter;stroke:rgb(0%,0%,0%);stroke-opacity:1;stroke-miterlimit:10;" d="M 81.214844 117 C 81.214844 128.714844 71.714844 138.214844 60 138.214844 C 48.285156 138.214844 38.785156 128.714844 38.785156 117 C 38.785156 105.285156 48.285156 95.785156 60 95.785156 C 71.714844 95.785156 81.214844 105.285156 81.214844 117 "/>
<path style="fill-rule:nonzero;fill:rgb(35%,70%,90%);fill-opacity:1;stroke-width:1;stroke-linecap:butt;stroke-linejoin:miter;stroke:rgb(0%,0%,0%);stroke-opacity:1;stroke-miterlimit:10;" d="M 469.214844 409 C 469.214844 420.714844 459.714844 430.214844 448 430.214844 C 436.285156 430.214844 426.785156 420.714844 426.785156 409 C 426.785156 397.285156 436.285156 387.785156 448 387.785156 C 459.714844 387.785156 469.214844 397.285156 469.214844 409 "/>
<path style="fill-rule:nonzero;fill:rgb(35%,70%,90%);fill-opacity:1;stroke-width:1;stroke-linecap:butt;stroke-linejoin:miter;stroke:rgb(0%,0%,0%);stroke-opacity:1;stroke-miterlimit:10;" d="M 311.214844 452 C 311.214844 463.714844 301.714844 473.214844 290 473.214844 C 278.285156 473.214844 268.785156 463.714844 268.785156 452 C 268.785156 440.285156 278.285156 430.785156 290 430.785156 C 301.714844 430.785156 311.214844 440.285156 311.214844 452 "/>
<path style="fill-rule:nonzero;fill:rgb(35%,70%,90%);fill-opacity:1;stroke-width:1;stroke-linecap:butt;stroke-linejoin:miter;stroke:rgb(0%,0%,0%);stroke-opacity:1;stroke-miterlimit:10;" d="M 448.214844 236 C 448.214844 247.714844 438.714844 257.214844 427 257.214844 C 415.285156 257.214844 405.785156 247.714844 405.785156 236 C 405.785156 224.285156 415.285156 214.785156 427 214.785156 C 438.714844 214.785156 448.214844 224.285156 448.214844 236 "/>
<path style="fill-rule:nonzero;fill:rgb(53%,27%,7%);fill-opacity:1;stroke-width:1;stroke-linecap:butt;stroke-linejoin:miter;stroke:rgb(0%,0%,0%);stroke-opacity:1;stroke-miterlimit:10;" d="M 704 75 L 678.019531 120 L 729.980469 120 L 704 75 "/>
<path style="fill-rule:nonzero;fill:rgb(35%,70%,90%);fill-opacity:1;stroke-width:1;stroke-linecap:butt;stroke-linejoin:miter;stroke:rgb(0%,0%,0%);stroke-opacity:1;stroke-miterlimit:10;" d="M 728 235 L 702.019531 280 L 753.980469 280 L 728 235 "/>
<path style="fill-rule:nonzero;fill:rgb(35%,70%,90%);fill-opacity:1;stroke-width:1;stroke-linecap:butt;stroke-linejoin:miter;stroke:rgb(0%,0%,0%);stroke-opacity:1;stroke-miterlimit:10;" d="M 645 325 L 619.019531 370 L 670.980469 370 L 645 325 "/>
<path style="fill-rule:nonzero;fill:rgb(53%,27%,7%);fill-opacity:1;stroke-width:1;stroke-linecap:butt;stroke-linejoin:miter;stroke:rgb(0%,0%,0%);stroke-opacity:1;stroke-miterlimit:10;" d="M 910 120 L 884.019531 165 L 935.980469 165 L 910 120 "/>
<path style="fill-rule:nonzero;fill:rgb(53%,27%,7%);fill-opacity:1;stroke-width:1;stroke-linecap:butt;stroke-linejoin:miter;stroke:rgb(0%,0%,0%);stroke-opacity:1;stroke-miterlimit:10;" d="M 616 28 L 590.019531 73 L 641.980469 73 L 616 28 "/>
</g>
</svg>
