<?xml version="1.0" encoding="UTF-8"?>
<svg xmlns="http://www.w3.org/2000/svg" xmlns:xlink="http://www.w3.org/1999/xlink" width="1129pt" height="517pt" viewBox="0 0 1129 517" version="1.1">
<g id="surface531">
<rect x="0" y="0" width="1129" height="517" style="fill:rgb(90%,90%,90%);fill-opacity:1;stroke:none;"/>
<path style="fill-rule:nonzero;fill:rgb(55%,51%,53%);fill-opacity:1;stroke-width:1;stroke-linecap:butt;stroke-linejoin:miter;stroke:rgb(0%,0%,0%);stroke-opacity:1;stroke-miterlimit:10;" d="M 304.214844 422 C 304.214844 433.714844 294.714844 443.214844 283 443.214844 C 271.285156 443.214844 261.785156 433.714844 261.785156 422 C 261.785156 410.285156 271.285156 400.785156 283 400.785156 C 294.714844 400.785156 304.214844 410.285156 304.214844 422 "/>
<path style="fill-rule:nonzero;fill:rgb(53%,27%,7%);fill-opacity:1;stroke-width:1;stroke-linecap:butt;stroke-linejoin:miter;stroke:rgb(0%,0%,0%);stroke-opacity:1;stroke-miterlimit:10;" d="M 465.214844 285 C 465.214844 296.714844 455.714844 306.214844 444 306.214844 C 432.285156 306.214844 422.785156 296.714844 422.785156 285 C 422.785156 273.285156 432.285156 263.785156 444 263.785156 C 455.714844 263.785156 465.214844 273.285156 465.214844 285 "/>
<path style="fill-rule:nonzero;fill:rgb(55%,51%,53%);fill-opacity:1;stroke-width:1;stroke-linecap:butt;stroke-linejoin:miter;stroke:rgb(0%,0%,0%);stroke-opacity:1;stroke-miterlimit:10;" d="M 161.214844 194 C 161.214844 205.714844 151.714844 215.214844 140 215.214844 C 128.285156 215.214844 118.785156 205.714844 118.785156 194 C 118.785156 182.285156 128.285156 172.785156 140 172.785156 C 151.714844 172.785156 161.214844 182.285156 161.214844 194 "/>
<path style="fill-rule:nonzero;fill:rgb(53%,27%,7%);fill-opacity:1;stroke-width:1;stroke-linecap:butt;stroke-linejoin:miter;stroke:rgb(0%,0%,0%);stroke-opacity:1;stroke-miterlimit:10;" d="M 456.214844 83 C 456.214844 94.714844 446.714844 104.214844 435 104.214844 C 423.285156 104.214844 413.785156 94.714844 413.785156 83 C 413.785156 71.285156 423.285156 61.785156 435 61.785156 C 446.714844 61.785156 456.214844 71.285156 456.214844 83 "/>
<path style="fill-rule:nonzero;fill:rgb(55%,51%,53%);fill-opacity:1;stroke-width:1;stroke-linecap:butt;stroke-linejoin:miter;stroke:rgb(0%,0%,0%);stroke-opacity:1;stroke-miterlimit:10;" d="M 376.214844 260 C 376.214844 271.714844 366.714844 281.214844 355 281.214844 C 343.285156 281.214844 333.785156 271.714844 333.785156 260 C 333.785156 248.285156 343.285156 238.785156 355 238.785156 C 366.714844 238.785156 376.214844 248.285156 376.214844 260 "/>
<path style="fill-rule:nonzero;fill:rgb(55%,51%,53%);fill-opacity:1;stroke-width:1;stroke-linecap:butt;stroke-linejoin:miter;stroke:rgb(0%,0%,0%);stroke-opacity:1;stroke-miterlimit:10;" d="M 128.214844 427 C 128.214844 438.714844 118.714844 448.214844 107 448.214844 C 95.285156 448.214844 85.785156 438.714844 85.785156 427 C 85.785156 415.285156 95.285156 405.785156 107 405.785156 C 118.714844 405.785156 128.214844 415.285156 128.214844 427 "/>
<path style="fill-rule:nonzero;fill:rgb(55%,51%,53%);fill-opacity:1;stroke-width:1;stroke-linecap:butt;stroke-linejoin:miter;stroke:rgb(0%,0%,0%);stroke-opacity:1;stroke-miterlimit:10;" d="M 267.214844 241 C 267.214844 252.714844 257.714844 262.214844 246 262.214844 C 234.285156 262.214844 224.785156 252.714844 224.785156 241 C 224.785156 229.285156 234.285156 219.785156 246 219.785156 C 257.714844 219.785156 267.214844 229.285156 267.214844 241 "/>
<path style="fill-rule:nonzero;fill:rgb(53%,27%,7%);fill-opacity:1;stroke-width:1;stroke-linecap:butt;stroke-linejoin:miter;stroke:rgb(0%,0%,0%);stroke-opacity:1;stroke-miterlimit:10;" d="M 794.785156 393.785156 L 794.785156 436.214844 L 837.214844 436.214844 L 837.214844 393.785156 L 794.785156 393.785156 "/>
<path style="fill-rule:nonzero;fill:rgb(55%,51%,53%);fill-opacity:1;stroke-width:1;stroke-linecap:butt;stroke-linejoin:miter;stroke:rgb(0%,0%,0%);stroke-opacity:1;stroke-miterlimit:10;" d="M 993.785156 334.785156 L 993.785156 377.214844 L 1036.214844 377.214844 L 1036.214844 334.785156 L 993.785156 334.785156 "/>
<path style="fill-rule:nonzero;fill:rgb(53%,27%,7%);fill-opacity:1;stroke-width:1;stroke-linecap:butt;stroke-linejoin:miter;stroke:rgb(0%,0%,0%);stroke-opacity:1;stroke-miterlimit:10;" d="M 662.785156 170.785156 L 662.785156 213.214844 L 705.214844 213.214844 L 705.214844 170.785156 L 662.785156 170.785156 "/>
<path style="fill-rule:nonzero;fill:rgb(55%,51%,53%);fill-opacity:1;stroke-width:1;stroke-linecap:butt;stroke-linejoin:miter;stroke:rgb(0%,0%,0%);stroke-opacity:1;stroke-miterlimit:10;" d="M 969.785156 89.785156 L 969.785156 132.214844 L 1012.214844 132.214844 L 1012.214844 89.785156 L 969.785156 89.785156 "/>
<path style="fill-rule:nonzero;fill:rgb(53%,27%,7%);fill-opacity:1;stroke-width:1;stroke-linecap:butt;stroke-linejoin:miter;stroke:rgb(0%,0%,0%);stroke-opacity:1;stroke-miterlimit:10;" d="M 807.785156 138.785156 L 807.785156 181.214844 L 850.214844 181.214844 L 850.214844 138.785156 L 807.785156 138.785156 "/>
</g>
</svg>
