<?xml version="1.0" encoding="UTF-8"?>
<svg xmlns="http://www.w3.org/2000/svg" xmlns:xlink="http://www.w3.org/1999/xlink" width="1179pt" height="517pt" viewBox="0 0 1179 517" version="1.1">
<g id="surface461">
<rect x="0" y="0" width="1179" height="517" style="fill:rgb(90%,90%,90%);fill-opacity:1;stroke:none;"/>
<path style="fill-rule:nonzero;fill:rgb(100%,51%,0%);fill-opacity:1;stroke-width:1;stroke-linecap:butt;stroke-linejoin:miter;stroke:rgb(0%,0%,0%);stroke-opacity:1;stroke-miterlimit:10;" d="M 193 378 L 222.664062 378 L 234.664062 349.785156 L 246.664062 378 L 276.332031 378 L 252.332031 395.4375 L 260.417969 426.980469 L 234.664062 409.542969 L 208.914062 426.980469 L 221.214844 395.4375 L 193 378 "/>
<path style="fill-rule:nonzero;fill:rgb(100%,51%,0%);fill-opacity:1;stroke-width:1;stroke-linecap:butt;stroke-linejoin:miter;stroke:rgb(0%,0%,0%);stroke-opacity:1;stroke-miterlimit:10;" d="M 299 194 L 328.664062 194 L 340.664062 165.785156 L 352.664062 194 L 382.332031 194 L 358.332031 211.4375 L 366.417969 242.980469 L 340.664062 225.542969 L 314.914062 242.980469 L 327.214844 211.4375 L 299 194 "/>
<path style="fill-rule:nonzero;fill:rgb(100%,51%,0%);fill-opacity:1;stroke-width:1;stroke-linecap:butt;stroke-linejoin:miter;stroke:rgb(0%,0%,0%);stroke-opacity:1;stroke-miterlimit:10;" d="M 174 161 L 203.664062 161 L 215.664062 132.785156 L 227.664062 161 L 257.332031 161 L 233.332031 178.4375 L 241.417969 209.980469 L 215.664062 192.542969 L 189.914062 209.980469 L 202.214844 178.4375 L 174 161 "/>
<path style="fill-rule:nonzero;fill:rgb(100%,51%,0%);fill-opacity:1;stroke-width:1;stroke-linecap:butt;stroke-linejoin:miter;stroke:rgb(0%,0%,0%);stroke-opacity:1;stroke-miterlimit:10;" d="M 402.785156 219.785156 L 402.785156 262.214844 L 445.214844 262.214844 L 445.214844 219.785156 L 402.785156 219.785156 "/>
<path style="fill-rule:nonzero;fill:rgb(100%,51%,0%);fill-opacity:1;stroke-width:1;stroke-linecap:butt;stroke-linejoin:miter;stroke:rgb(0%,0%,0%);stroke-opacity:1;stroke-miterlimit:10;" d="M 363 432 L 392.664062 432 L 404.664062 403.785156 L 416.664062 432 L 446.332031 432 L 422.332031 449.4375 L 430.417969 480.980469 L 404.664062 463.542969 L 378.914062 480.980469 L 391.214844 449.4375 L 363 432 "/>
<path style="fill-rule:nonzero;fill:rgb(53%,27%,7%);fill-opacity:1;stroke-width:1;stroke-linecap:butt;stroke-linejoin:miter;stroke:rgb(0%,0%,0%);stroke-opacity:1;stroke-miterlimit:10;" d="M 759.785156 66.785156 L 759.785156 109.214844 L 802.214844 109.214844 L 802.214844 66.785156 L 759.785156 66.785156 "/>
<path style="fill-rule:nonzero;fill:rgb(53%,27%,7%);fill-opacity:1;stroke-width:1;stroke-linecap:butt;stroke-linejoin:miter;stroke:rgb(0%,0%,0%);stroke-opacity:1;stroke-miterlimit:10;" d="M 863.785156 155.785156 L 863.785156 198.214844 L 906.214844 198.214844 L 906.214844 155.785156 L 863.785156 155.785156 "/>
<path style="fill-rule:nonzero;fill:rgb(53%,27%,7%);fill-opacity:1;stroke-width:1;stroke-linecap:butt;stroke-linejoin:miter;stroke:rgb(0%,0%,0%);stroke-opacity:1;stroke-miterlimit:10;" d="M 671.785156 207.785156 L 671.785156 250.214844 L 714.214844 250.214844 L 714.214844 207.785156 L 671.785156 207.785156 "/>
<path style="fill-rule:nonzero;fill:rgb(53%,27%,7%);fill-opacity:1;stroke-width:1;stroke-linecap:butt;stroke-linejoin:miter;stroke:rgb(0%,0%,0%);stroke-opacity:1;stroke-miterlimit:10;" d="M 781 273 L 810.664062 273 L 822.664062 244.785156 L 834.664062 273 L 864.332031 273 L 840.332031 290.4375 L 848.417969 321.980469 L 822.664062 304.542969 L 796.914062 321.980469 L 809.214844 290.4375 L 781 273 "/>
<path style="fill-rule:nonzero;fill:rgb(53%,27%,7%);fill-opacity:1;stroke-width:1;stroke-linecap:butt;stroke-linejoin:miter;stroke:rgb(0%,0%,0%);stroke-opacity:1;stroke-miterlimit:10;" d="M 758.785156 392.785156 L 758.785156 435.214844 L 801.214844 435.214844 L 801.214844 392.785156 L 758.785156 392.785156 "/>
</g>
</svg>
