<?xml version="1.0" encoding="UTF-8"?>
<svg xmlns="http://www.w3.org/2000/svg" xmlns:xlink="http://www.w3.org/1999/xlink" width="1129pt" height="517pt" viewBox="0 0 1129 517" version="1.1">
<g id="surface396">
<rect x="0" y="0" width="1129" height="517" style="fill:rgb(90%,90%,90%);fill-opacity:1;stroke:none;"/>
<path style="fill-rule:nonzero;fill:rgb(35%,70%,90%);fill-opacity:1;stroke-width:1;stroke-linecap:butt;stroke-linejoin:miter;stroke:rgb(0%,0%,0%);stroke-opacity:1;stroke-miterlimit:10;" d="M 736 166 L 765.664062 166 L 777.664062 137.785156 L 789.664062 166 L 819.332031 166 L 795.332031 183.4375 L 803.417969 214.980469 L 777.664062 197.542969 L 751.914062 214.980469 L 764.214844 183.4375 L 736 166 "/>
<path style="fill-rule:nonzero;fill:rgb(35%,70%,90%);fill-opacity:1;stroke-width:1;stroke-linecap:butt;stroke-linejoin:miter;stroke:rgb(0%,0%,0%);stroke-opacity:1;stroke-miterlimit:10;" d="M 609 286 L 638.664062 286 L 650.664062 257.785156 L 662.664062 286 L 692.332031 286 L 668.332031 303.4375 L 676.417969 334.980469 L 650.664062 317.542969 L 624.914062 334.980469 L 637.214844 303.4375 L 609 286 "/>
<path style="fill-rule:nonzero;fill:rgb(35%,70%,90%);fill-opacity:1;stroke-width:1;stroke-linecap:butt;stroke-linejoin:miter;stroke:rgb(0%,0%,0%);stroke-opacity:1;stroke-miterlimit:10;" d="M 492 346 L 521.664062 346 L 533.664062 317.785156 L 545.664062 346 L 575.332031 346 L 551.332031 363.4375 L 559.417969 394.980469 L 533.664062 377.542969 L 507.914062 394.980469 L 520.214844 363.4375 L 492 346 "/>
<path style="fill-rule:nonzero;fill:rgb(35%,70%,90%);fill-opacity:1;stroke-width:1;stroke-linecap:butt;stroke-linejoin:miter;stroke:rgb(0%,0%,0%);stroke-opacity:1;stroke-miterlimit:10;" d="M 64 213 L 93.664062 213 L 105.664062 184.785156 L 117.664062 213 L 147.332031 213 L 123.332031 230.4375 L 131.417969 261.980469 L 105.664062 244.542969 L 79.914062 261.980469 L 92.214844 230.4375 L 64 213 "/>
<path style="fill-rule:nonzero;fill:rgb(35%,70%,90%);fill-opacity:1;stroke-width:1;stroke-linecap:butt;stroke-linejoin:miter;stroke:rgb(0%,0%,0%);stroke-opacity:1;stroke-miterlimit:10;" d="M 285 288 L 314.664062 288 L 326.664062 259.785156 L 338.664062 288 L 368.332031 288 L 344.332031 305.4375 L 352.417969 336.980469 L 326.664062 319.542969 L 300.914062 336.980469 L 313.214844 305.4375 L 285 288 "/>
<path style="fill-rule:nonzero;fill:rgb(35%,70%,90%);fill-opacity:1;stroke-width:1;stroke-linecap:butt;stroke-linejoin:miter;stroke:rgb(0%,0%,0%);stroke-opacity:1;stroke-miterlimit:10;" d="M 593 123 L 622.664062 123 L 634.664062 94.785156 L 646.664062 123 L 676.332031 123 L 652.332031 140.4375 L 660.417969 171.980469 L 634.664062 154.542969 L 608.914062 171.980469 L 621.214844 140.4375 L 593 123 "/>
<path style="fill-rule:nonzero;fill:rgb(35%,70%,90%);fill-opacity:1;stroke-width:1;stroke-linecap:butt;stroke-linejoin:miter;stroke:rgb(0%,0%,0%);stroke-opacity:1;stroke-miterlimit:10;" d="M 258 64 L 287.664062 64 L 299.664062 35.785156 L 311.664062 64 L 341.332031 64 L 317.332031 81.4375 L 325.417969 112.980469 L 299.664062 95.542969 L 273.914062 112.980469 L 286.214844 81.4375 L 258 64 "/>
<path style="fill-rule:nonzero;fill:rgb(53%,27%,7%);fill-opacity:1;stroke-width:1;stroke-linecap:butt;stroke-linejoin:miter;stroke:rgb(0%,0%,0%);stroke-opacity:1;stroke-miterlimit:10;" d="M 902 55 L 876.019531 100 L 927.980469 100 L 902 55 "/>
<path style="fill-rule:nonzero;fill:rgb(53%,27%,7%);fill-opacity:1;stroke-width:1;stroke-linecap:butt;stroke-linejoin:miter;stroke:rgb(0%,0%,0%);stroke-opacity:1;stroke-miterlimit:10;" d="M 157 49 L 131.019531 94 L 182.980469 94 L 157 49 "/>
<path style="fill-rule:nonzero;fill:rgb(53%,27%,7%);fill-opacity:1;stroke-width:1;stroke-linecap:butt;stroke-linejoin:miter;stroke:rgb(0%,0%,0%);stroke-opacity:1;stroke-miterlimit:10;" d="M 228 159 L 202.019531 204 L 253.980469 204 L 228 159 "/>
<path style="fill-rule:nonzero;fill:rgb(53%,27%,7%);fill-opacity:1;stroke-width:1;stroke-linecap:butt;stroke-linejoin:miter;stroke:rgb(0%,0%,0%);stroke-opacity:1;stroke-miterlimit:10;" d="M 411 409 L 385.019531 454 L 436.980469 454 L 411 409 "/>
<path style="fill-rule:nonzero;fill:rgb(53%,27%,7%);fill-opacity:1;stroke-width:1;stroke-linecap:butt;stroke-linejoin:miter;stroke:rgb(0%,0%,0%);stroke-opacity:1;stroke-miterlimit:10;" d="M 763 322 L 737.019531 367 L 788.980469 367 L 763 322 "/>
<path style="fill-rule:nonzero;fill:rgb(53%,27%,7%);fill-opacity:1;stroke-width:1;stroke-linecap:butt;stroke-linejoin:miter;stroke:rgb(0%,0%,0%);stroke-opacity:1;stroke-miterlimit:10;" d="M 215 346 L 189.019531 391 L 240.980469 391 L 215 346 "/>
<path style="fill-rule:nonzero;fill:rgb(53%,27%,7%);fill-opacity:1;stroke-width:1;stroke-linecap:butt;stroke-linejoin:miter;stroke:rgb(0%,0%,0%);stroke-opacity:1;stroke-miterlimit:10;" d="M 693 395 L 667.019531 440 L 718.980469 440 L 693 395 "/>
</g>
</svg>
