<?xml version="1.0" encoding="UTF-8"?>
<svg xmlns="http://www.w3.org/2000/svg" xmlns:xlink="http://www.w3.org/1999/xlink" width="1129pt" height="517pt" viewBox="0 0 1129 517" version="1.1">
<g id="surface976">
<rect x="0" y="0" width="1129" height="517" style="fill:rgb(90%,90%,90%);fill-opacity:1;stroke:none;"/>
<path style="fill-rule:nonzero;fill:rgb(55%,51%,53%);fill-opacity:1;stroke-width:1;stroke-linecap:butt;stroke-linejoin:miter;stroke:rgb(0%,0%,0%);stroke-opacity:1;stroke-miterlimit:10;" d="M 432.214844 109 C 432.214844 120.714844 422.714844 130.214844 411 130.214844 C 399.285156 130.214844 389.785156 120.714844 389.785156 109 C 389.785156 97.285156 399.285156 87.785156 411 87.785156 C 422.714844 87.785156 432.214844 97.285156 432.214844 109 "/>
<path style="fill-rule:nonzero;fill:rgb(67%,100%,18%);fill-opacity:1;stroke-width:1;stroke-linecap:butt;stroke-linejoin:miter;stroke:rgb(0%,0%,0%);stroke-opacity:1;stroke-miterlimit:10;" d="M 428.214844 338 C 428.214844 349.714844 418.714844 359.214844 407 359.214844 C 395.285156 359.214844 385.785156 349.714844 385.785156 338 C 385.785156 326.285156 395.285156 316.785156 407 316.785156 C 418.714844 316.785156 428.214844 326.285156 428.214844 338 "/>
<path style="fill-rule:nonzero;fill:rgb(55%,51%,53%);fill-opacity:1;stroke-width:1;stroke-linecap:butt;stroke-linejoin:miter;stroke:rgb(0%,0%,0%);stroke-opacity:1;stroke-miterlimit:10;" d="M 175.214844 446 C 175.214844 457.714844 165.714844 467.214844 154 467.214844 C 142.285156 467.214844 132.785156 457.714844 132.785156 446 C 132.785156 434.285156 142.285156 424.785156 154 424.785156 C 165.714844 424.785156 175.214844 434.285156 175.214844 446 "/>
<path style="fill-rule:nonzero;fill:rgb(55%,51%,53%);fill-opacity:1;stroke-width:1;stroke-linecap:butt;stroke-linejoin:miter;stroke:rgb(0%,0%,0%);stroke-opacity:1;stroke-miterlimit:10;" d="M 157.214844 340 C 157.214844 351.714844 147.714844 361.214844 136 361.214844 C 124.285156 361.214844 114.785156 351.714844 114.785156 340 C 114.785156 328.285156 124.285156 318.785156 136 318.785156 C 147.714844 318.785156 157.214844 328.285156 157.214844 340 "/>
<path style="fill-rule:nonzero;fill:rgb(55%,51%,53%);fill-opacity:1;stroke-width:1;stroke-linecap:butt;stroke-linejoin:miter;stroke:rgb(0%,0%,0%);stroke-opacity:1;stroke-miterlimit:10;" d="M 84.214844 131 C 84.214844 142.714844 74.714844 152.214844 63 152.214844 C 51.285156 152.214844 41.785156 142.714844 41.785156 131 C 41.785156 119.285156 51.285156 109.785156 63 109.785156 C 74.714844 109.785156 84.214844 119.285156 84.214844 131 "/>
<path style="fill-rule:nonzero;fill:rgb(55%,51%,53%);fill-opacity:1;stroke-width:1;stroke-linecap:butt;stroke-linejoin:miter;stroke:rgb(0%,0%,0%);stroke-opacity:1;stroke-miterlimit:10;" d="M 287.214844 375 C 287.214844 386.714844 277.714844 396.214844 266 396.214844 C 254.285156 396.214844 244.785156 386.714844 244.785156 375 C 244.785156 363.285156 254.285156 353.785156 266 353.785156 C 277.714844 353.785156 287.214844 363.285156 287.214844 375 "/>
<path style="fill-rule:nonzero;fill:rgb(55%,51%,53%);fill-opacity:1;stroke-width:1;stroke-linecap:butt;stroke-linejoin:miter;stroke:rgb(0%,0%,0%);stroke-opacity:1;stroke-miterlimit:10;" d="M 201.214844 100 C 201.214844 111.714844 191.714844 121.214844 180 121.214844 C 168.285156 121.214844 158.785156 111.714844 158.785156 100 C 158.785156 88.285156 168.285156 78.785156 180 78.785156 C 191.714844 78.785156 201.214844 88.285156 201.214844 100 "/>
<path style="fill-rule:nonzero;fill:rgb(55%,51%,53%);fill-opacity:1;stroke-width:1;stroke-linecap:butt;stroke-linejoin:miter;stroke:rgb(0%,0%,0%);stroke-opacity:1;stroke-miterlimit:10;" d="M 439.214844 203 C 439.214844 214.714844 429.714844 224.214844 418 224.214844 C 406.285156 224.214844 396.785156 214.714844 396.785156 203 C 396.785156 191.285156 406.285156 181.785156 418 181.785156 C 429.714844 181.785156 439.214844 191.285156 439.214844 203 "/>
<path style="fill-rule:nonzero;fill:rgb(67%,100%,18%);fill-opacity:1;stroke-width:1;stroke-linecap:butt;stroke-linejoin:miter;stroke:rgb(0%,0%,0%);stroke-opacity:1;stroke-miterlimit:10;" d="M 777 374 L 751.019531 419 L 802.980469 419 L 777 374 "/>
<path style="fill-rule:nonzero;fill:rgb(55%,51%,53%);fill-opacity:1;stroke-width:1;stroke-linecap:butt;stroke-linejoin:miter;stroke:rgb(0%,0%,0%);stroke-opacity:1;stroke-miterlimit:10;" d="M 1017 161 L 991.019531 206 L 1042.980469 206 L 1017 161 "/>
<path style="fill-rule:nonzero;fill:rgb(67%,100%,18%);fill-opacity:1;stroke-width:1;stroke-linecap:butt;stroke-linejoin:miter;stroke:rgb(0%,0%,0%);stroke-opacity:1;stroke-miterlimit:10;" d="M 776 144 L 750.019531 189 L 801.980469 189 L 776 144 "/>
<path style="fill-rule:nonzero;fill:rgb(67%,100%,18%);fill-opacity:1;stroke-width:1;stroke-linecap:butt;stroke-linejoin:miter;stroke:rgb(0%,0%,0%);stroke-opacity:1;stroke-miterlimit:10;" d="M 897 425 L 871.019531 470 L 922.980469 470 L 897 425 "/>
<path style="fill-rule:nonzero;fill:rgb(67%,100%,18%);fill-opacity:1;stroke-width:1;stroke-linecap:butt;stroke-linejoin:miter;stroke:rgb(0%,0%,0%);stroke-opacity:1;stroke-miterlimit:10;" d="M 901 56 L 875.019531 101 L 926.980469 101 L 901 56 "/>
<path style="fill-rule:nonzero;fill:rgb(67%,100%,18%);fill-opacity:1;stroke-width:1;stroke-linecap:butt;stroke-linejoin:miter;stroke:rgb(0%,0%,0%);stroke-opacity:1;stroke-miterlimit:10;" d="M 667 32 L 641.019531 77 L 692.980469 77 L 667 32 "/>
</g>
</svg>
