<?xml version="1.0" encoding="UTF-8"?>
<svg xmlns="http://www.w3.org/2000/svg" xmlns:xlink="http://www.w3.org/1999/xlink" width="1129pt" height="517pt" viewBox="0 0 1129 517" version="1.1">
<g id="surface856">
<rect x="0" y="0" width="1129" height="517" style="fill:rgb(90%,90%,90%);fill-opacity:1;stroke:none;"/>
<path style="fill-rule:nonzero;fill:rgb(53%,27%,7%);fill-opacity:1;stroke-width:1;stroke-linecap:butt;stroke-linejoin:miter;stroke:rgb(0%,0%,0%);stroke-opacity:1;stroke-miterlimit:10;" d="M 369 246.601562 C 369 232.199219 345 232.199219 345 246.601562 C 345 261 369 263.398438 369 275.398438 C 369 263.398438 393 261 393 246.601562 C 393 232.199219 369 232.199219 369 246.601562 "/>
<path style="fill-rule:nonzero;fill:rgb(53%,27%,7%);fill-opacity:1;stroke-width:1;stroke-linecap:butt;stroke-linejoin:miter;stroke:rgb(0%,0%,0%);stroke-opacity:1;stroke-miterlimit:10;" d="M 974 435.601562 C 974 421.199219 950 421.199219 950 435.601562 C 950 450 974 452.398438 974 464.398438 C 974 452.398438 998 450 998 435.601562 C 998 421.199219 974 421.199219 974 435.601562 "/>
<path style="fill-rule:nonzero;fill:rgb(53%,27%,7%);fill-opacity:1;stroke-width:1;stroke-linecap:butt;stroke-linejoin:miter;stroke:rgb(0%,0%,0%);stroke-opacity:1;stroke-miterlimit:10;" d="M 389 334.601562 C 389 320.199219 365 320.199219 365 334.601562 C 365 349 389 351.398438 389 363.398438 C 389 351.398438 413 349 413 334.601562 C 413 320.199219 389 320.199219 389 334.601562 "/>
<path style="fill-rule:nonzero;fill:rgb(53%,27%,7%);fill-opacity:1;stroke-width:1;stroke-linecap:butt;stroke-linejoin:miter;stroke:rgb(0%,0%,0%);stroke-opacity:1;stroke-miterlimit:10;" d="M 676 319.601562 C 676 305.199219 652 305.199219 652 319.601562 C 652 334 676 336.398438 676 348.398438 C 676 336.398438 700 334 700 319.601562 C 700 305.199219 676 305.199219 676 319.601562 "/>
<path style="fill-rule:nonzero;fill:rgb(53%,27%,7%);fill-opacity:1;stroke-width:1;stroke-linecap:butt;stroke-linejoin:miter;stroke:rgb(0%,0%,0%);stroke-opacity:1;stroke-miterlimit:10;" d="M 307 443.601562 C 307 429.199219 283 429.199219 283 443.601562 C 283 458 307 460.398438 307 472.398438 C 307 460.398438 331 458 331 443.601562 C 331 429.199219 307 429.199219 307 443.601562 "/>
<path style="fill-rule:nonzero;fill:rgb(100%,51%,0%);fill-opacity:1;stroke-width:1;stroke-linecap:butt;stroke-linejoin:miter;stroke:rgb(0%,0%,0%);stroke-opacity:1;stroke-miterlimit:10;" d="M 291.214844 235 C 291.214844 246.714844 281.714844 256.214844 270 256.214844 C 258.285156 256.214844 248.785156 246.714844 248.785156 235 C 248.785156 223.285156 258.285156 213.785156 270 213.785156 C 281.714844 213.785156 291.214844 223.285156 291.214844 235 "/>
<path style="fill-rule:nonzero;fill:rgb(100%,51%,0%);fill-opacity:1;stroke-width:1;stroke-linecap:butt;stroke-linejoin:miter;stroke:rgb(0%,0%,0%);stroke-opacity:1;stroke-miterlimit:10;" d="M 334.214844 116 C 334.214844 127.714844 324.714844 137.214844 313 137.214844 C 301.285156 137.214844 291.785156 127.714844 291.785156 116 C 291.785156 104.285156 301.285156 94.785156 313 94.785156 C 324.714844 94.785156 334.214844 104.285156 334.214844 116 "/>
<path style="fill-rule:nonzero;fill:rgb(100%,51%,0%);fill-opacity:1;stroke-width:1;stroke-linecap:butt;stroke-linejoin:miter;stroke:rgb(0%,0%,0%);stroke-opacity:1;stroke-miterlimit:10;" d="M 958.214844 196 C 958.214844 207.714844 948.714844 217.214844 937 217.214844 C 925.285156 217.214844 915.785156 207.714844 915.785156 196 C 915.785156 184.285156 925.285156 174.785156 937 174.785156 C 948.714844 174.785156 958.214844 184.285156 958.214844 196 "/>
<path style="fill-rule:nonzero;fill:rgb(100%,51%,0%);fill-opacity:1;stroke-width:1;stroke-linecap:butt;stroke-linejoin:miter;stroke:rgb(0%,0%,0%);stroke-opacity:1;stroke-miterlimit:10;" d="M 481.214844 87 C 481.214844 98.714844 471.714844 108.214844 460 108.214844 C 448.285156 108.214844 438.785156 98.714844 438.785156 87 C 438.785156 75.285156 448.285156 65.785156 460 65.785156 C 471.714844 65.785156 481.214844 75.285156 481.214844 87 "/>
<path style="fill-rule:nonzero;fill:rgb(100%,51%,0%);fill-opacity:1;stroke-width:1;stroke-linecap:butt;stroke-linejoin:miter;stroke:rgb(0%,0%,0%);stroke-opacity:1;stroke-miterlimit:10;" d="M 208.214844 456 C 208.214844 467.714844 198.714844 477.214844 187 477.214844 C 175.285156 477.214844 165.785156 467.714844 165.785156 456 C 165.785156 444.285156 175.285156 434.785156 187 434.785156 C 198.714844 434.785156 208.214844 444.285156 208.214844 456 "/>
<path style="fill-rule:nonzero;fill:rgb(100%,51%,0%);fill-opacity:1;stroke-width:1;stroke-linecap:butt;stroke-linejoin:miter;stroke:rgb(0%,0%,0%);stroke-opacity:1;stroke-miterlimit:10;" d="M 651.214844 99 C 651.214844 110.714844 641.714844 120.214844 630 120.214844 C 618.285156 120.214844 608.785156 110.714844 608.785156 99 C 608.785156 87.285156 618.285156 77.785156 630 77.785156 C 641.714844 77.785156 651.214844 87.285156 651.214844 99 "/>
<path style="fill-rule:nonzero;fill:rgb(100%,51%,0%);fill-opacity:1;stroke-width:1;stroke-linecap:butt;stroke-linejoin:miter;stroke:rgb(0%,0%,0%);stroke-opacity:1;stroke-miterlimit:10;" d="M 102.214844 201 C 102.214844 212.714844 92.714844 222.214844 81 222.214844 C 69.285156 222.214844 59.785156 212.714844 59.785156 201 C 59.785156 189.285156 69.285156 179.785156 81 179.785156 C 92.714844 179.785156 102.214844 189.285156 102.214844 201 "/>
<path style="fill-rule:nonzero;fill:rgb(100%,51%,0%);fill-opacity:1;stroke-width:1;stroke-linecap:butt;stroke-linejoin:miter;stroke:rgb(0%,0%,0%);stroke-opacity:1;stroke-miterlimit:10;" d="M 846.214844 201 C 846.214844 212.714844 836.714844 222.214844 825 222.214844 C 813.285156 222.214844 803.785156 212.714844 803.785156 201 C 803.785156 189.285156 813.285156 179.785156 825 179.785156 C 836.714844 179.785156 846.214844 189.285156 846.214844 201 "/>
</g>
</svg>
