<?xml version="1.0" encoding="UTF-8"?>
<svg xmlns="http://www.w3.org/2000/svg" xmlns:xlink="http://www.w3.org/1999/xlink" width="1129pt" height="517pt" viewBox="0 0 1129 517" version="1.1">
<g id="surface556">
<rect x="0" y="0" width="1129" height="517" style="fill:rgb(90%,90%,90%);fill-opacity:1;stroke:none;"/>
<path style="fill-rule:nonzero;fill:rgb(35%,70%,90%);fill-opacity:1;stroke-width:1;stroke-linecap:butt;stroke-linejoin:miter;stroke:rgb(0%,0%,0%);stroke-opacity:1;stroke-miterlimit:10;" d="M 316.214844 137 C 316.214844 148.714844 306.714844 158.214844 295 158.214844 C 283.285156 158.214844 273.785156 148.714844 273.785156 137 C 273.785156 125.285156 283.285156 115.785156 295 115.785156 C 306.714844 115.785156 316.214844 125.285156 316.214844 137 "/>
<path style="fill-rule:nonzero;fill:rgb(100%,51%,0%);fill-opacity:1;stroke-width:1;stroke-linecap:butt;stroke-linejoin:miter;stroke:rgb(0%,0%,0%);stroke-opacity:1;stroke-miterlimit:10;" d="M 127.214844 73 C 127.214844 84.714844 117.714844 94.214844 106 94.214844 C 94.285156 94.214844 84.785156 84.714844 84.785156 73 C 84.785156 61.285156 94.285156 51.785156 106 51.785156 C 117.714844 51.785156 127.214844 61.285156 127.214844 73 "/>
<path style="fill-rule:nonzero;fill:rgb(100%,51%,0%);fill-opacity:1;stroke-width:1;stroke-linecap:butt;stroke-linejoin:miter;stroke:rgb(0%,0%,0%);stroke-opacity:1;stroke-miterlimit:10;" d="M 475.214844 330 C 475.214844 341.714844 465.714844 351.214844 454 351.214844 C 442.285156 351.214844 432.785156 341.714844 432.785156 330 C 432.785156 318.285156 442.285156 308.785156 454 308.785156 C 465.714844 308.785156 475.214844 318.285156 475.214844 330 "/>
<path style="fill-rule:nonzero;fill:rgb(35%,70%,90%);fill-opacity:1;stroke-width:1;stroke-linecap:butt;stroke-linejoin:miter;stroke:rgb(0%,0%,0%);stroke-opacity:1;stroke-miterlimit:10;" d="M 245.214844 217 C 245.214844 228.714844 235.714844 238.214844 224 238.214844 C 212.285156 238.214844 202.785156 228.714844 202.785156 217 C 202.785156 205.285156 212.285156 195.785156 224 195.785156 C 235.714844 195.785156 245.214844 205.285156 245.214844 217 "/>
<path style="fill-rule:nonzero;fill:rgb(35%,70%,90%);fill-opacity:1;stroke-width:1;stroke-linecap:butt;stroke-linejoin:miter;stroke:rgb(0%,0%,0%);stroke-opacity:1;stroke-miterlimit:10;" d="M 412.214844 86 C 412.214844 97.714844 402.714844 107.214844 391 107.214844 C 379.285156 107.214844 369.785156 97.714844 369.785156 86 C 369.785156 74.285156 379.285156 64.785156 391 64.785156 C 402.714844 64.785156 412.214844 74.285156 412.214844 86 "/>
<path style="fill-rule:nonzero;fill:rgb(35%,70%,90%);fill-opacity:1;stroke-width:1;stroke-linecap:butt;stroke-linejoin:miter;stroke:rgb(0%,0%,0%);stroke-opacity:1;stroke-miterlimit:10;" d="M 476.214844 176 C 476.214844 187.714844 466.714844 197.214844 455 197.214844 C 443.285156 197.214844 433.785156 187.714844 433.785156 176 C 433.785156 164.285156 443.285156 154.785156 455 154.785156 C 466.714844 154.785156 476.214844 164.285156 476.214844 176 "/>
<path style="fill-rule:nonzero;fill:rgb(35%,70%,90%);fill-opacity:1;stroke-width:1;stroke-linecap:butt;stroke-linejoin:miter;stroke:rgb(0%,0%,0%);stroke-opacity:1;stroke-miterlimit:10;" d="M 105.214844 242 C 105.214844 253.714844 95.714844 263.214844 84 263.214844 C 72.285156 263.214844 62.785156 253.714844 62.785156 242 C 62.785156 230.285156 72.285156 220.785156 84 220.785156 C 95.714844 220.785156 105.214844 230.285156 105.214844 242 "/>
<path style="fill-rule:nonzero;fill:rgb(100%,51%,0%);fill-opacity:1;stroke-width:1;stroke-linecap:butt;stroke-linejoin:miter;stroke:rgb(0%,0%,0%);stroke-opacity:1;stroke-miterlimit:10;" d="M 923 38 L 897.019531 83 L 948.980469 83 L 923 38 "/>
<path style="fill-rule:nonzero;fill:rgb(35%,70%,90%);fill-opacity:1;stroke-width:1;stroke-linecap:butt;stroke-linejoin:miter;stroke:rgb(0%,0%,0%);stroke-opacity:1;stroke-miterlimit:10;" d="M 630 363 L 604.019531 408 L 655.980469 408 L 630 363 "/>
<path style="fill-rule:nonzero;fill:rgb(35%,70%,90%);fill-opacity:1;stroke-width:1;stroke-linecap:butt;stroke-linejoin:miter;stroke:rgb(0%,0%,0%);stroke-opacity:1;stroke-miterlimit:10;" d="M 719 290 L 693.019531 335 L 744.980469 335 L 719 290 "/>
<path style="fill-rule:nonzero;fill:rgb(100%,51%,0%);fill-opacity:1;stroke-width:1;stroke-linecap:butt;stroke-linejoin:miter;stroke:rgb(0%,0%,0%);stroke-opacity:1;stroke-miterlimit:10;" d="M 800 240 L 774.019531 285 L 825.980469 285 L 800 240 "/>
<path style="fill-rule:nonzero;fill:rgb(100%,51%,0%);fill-opacity:1;stroke-width:1;stroke-linecap:butt;stroke-linejoin:miter;stroke:rgb(0%,0%,0%);stroke-opacity:1;stroke-miterlimit:10;" d="M 1018 284 L 992.019531 329 L 1043.980469 329 L 1018 284 "/>
</g>
</svg>
