<?xml version="1.0" encoding="UTF-8"?>
<svg xmlns="http://www.w3.org/2000/svg" xmlns:xlink="http://www.w3.org/1999/xlink" width="1129pt" height="517pt" viewBox="0 0 1129 517" version="1.1">
<g id="surface581">
<rect x="0" y="0" width="1129" height="517" style="fill:rgb(90%,90%,90%);fill-opacity:1;stroke:none;"/>
<path style="fill-rule:nonzero;fill:rgb(35%,70%,90%);fill-opacity:1;stroke-width:1;stroke-linecap:butt;stroke-linejoin:miter;stroke:rgb(0%,0%,0%);stroke-opacity:1;stroke-miterlimit:10;" d="M 310 217 L 339.664062 217 L 351.664062 188.785156 L 363.664062 217 L 393.332031 217 L 369.332031 234.4375 L 377.417969 265.980469 L 351.664062 248.542969 L 325.914062 265.980469 L 338.214844 234.4375 L 310 217 "/>
<path style="fill-rule:nonzero;fill:rgb(35%,70%,90%);fill-opacity:1;stroke-width:1;stroke-linecap:butt;stroke-linejoin:miter;stroke:rgb(0%,0%,0%);stroke-opacity:1;stroke-miterlimit:10;" d="M 83 373 L 112.664062 373 L 124.664062 344.785156 L 136.664062 373 L 166.332031 373 L 142.332031 390.4375 L 150.417969 421.980469 L 124.664062 404.542969 L 98.914062 421.980469 L 111.214844 390.4375 L 83 373 "/>
<path style="fill-rule:nonzero;fill:rgb(53%,27%,7%);fill-opacity:1;stroke-width:1;stroke-linecap:butt;stroke-linejoin:miter;stroke:rgb(0%,0%,0%);stroke-opacity:1;stroke-miterlimit:10;" d="M 194 180 L 223.664062 180 L 235.664062 151.785156 L 247.664062 180 L 277.332031 180 L 253.332031 197.4375 L 261.417969 228.980469 L 235.664062 211.542969 L 209.914062 228.980469 L 222.214844 197.4375 L 194 180 "/>
<path style="fill-rule:nonzero;fill:rgb(53%,27%,7%);fill-opacity:1;stroke-width:1;stroke-linecap:butt;stroke-linejoin:miter;stroke:rgb(0%,0%,0%);stroke-opacity:1;stroke-miterlimit:10;" d="M 261 61 L 290.664062 61 L 302.664062 32.785156 L 314.664062 61 L 344.332031 61 L 320.332031 78.4375 L 328.417969 109.980469 L 302.664062 92.542969 L 276.914062 109.980469 L 289.214844 78.4375 L 261 61 "/>
<path style="fill-rule:nonzero;fill:rgb(35%,70%,90%);fill-opacity:1;stroke-width:1;stroke-linecap:butt;stroke-linejoin:miter;stroke:rgb(0%,0%,0%);stroke-opacity:1;stroke-miterlimit:10;" d="M 217 381 L 246.664062 381 L 258.664062 352.785156 L 270.664062 381 L 300.332031 381 L 276.332031 398.4375 L 284.417969 429.980469 L 258.664062 412.542969 L 232.914062 429.980469 L 245.214844 398.4375 L 217 381 "/>
<path style="fill-rule:nonzero;fill:rgb(53%,27%,7%);fill-opacity:1;stroke-width:1;stroke-linecap:butt;stroke-linejoin:miter;stroke:rgb(0%,0%,0%);stroke-opacity:1;stroke-miterlimit:10;" d="M 704.785156 327.785156 L 704.785156 370.214844 L 747.214844 370.214844 L 747.214844 327.785156 L 704.785156 327.785156 "/>
<path style="fill-rule:nonzero;fill:rgb(53%,27%,7%);fill-opacity:1;stroke-width:1;stroke-linecap:butt;stroke-linejoin:miter;stroke:rgb(0%,0%,0%);stroke-opacity:1;stroke-miterlimit:10;" d="M 795.785156 331.785156 L 795.785156 374.214844 L 838.214844 374.214844 L 838.214844 331.785156 L 795.785156 331.785156 "/>
<path style="fill-rule:nonzero;fill:rgb(35%,70%,90%);fill-opacity:1;stroke-width:1;stroke-linecap:butt;stroke-linejoin:miter;stroke:rgb(0%,0%,0%);stroke-opacity:1;stroke-miterlimit:10;" d="M 858.785156 104.785156 L 858.785156 147.214844 L 901.214844 147.214844 L 901.214844 104.785156 L 858.785156 104.785156 "/>
<path style="fill-rule:nonzero;fill:rgb(35%,70%,90%);fill-opacity:1;stroke-width:1;stroke-linecap:butt;stroke-linejoin:miter;stroke:rgb(0%,0%,0%);stroke-opacity:1;stroke-miterlimit:10;" d="M 618.785156 435.785156 L 618.785156 478.214844 L 661.214844 478.214844 L 661.214844 435.785156 L 618.785156 435.785156 "/>
</g>
</svg>
