<?xml version="1.0" encoding="UTF-8"?>
<svg xmlns="http://www.w3.org/2000/svg" xmlns:xlink="http://www.w3.org/1999/xlink" width="1129pt" height="517pt" viewBox="0 0 1129 517" version="1.1">
<g id="surface946">
<rect x="0" y="0" width="1129" height="517" style="fill:rgb(90%,90%,90%);fill-opacity:1;stroke:none;"/>
<path style="fill-rule:nonzero;fill:rgb(53%,27%,7%);fill-opacity:1;stroke-width:1;stroke-linecap:butt;stroke-linejoin:miter;stroke:rgb(0%,0%,0%);stroke-opacity:1;stroke-miterlimit:10;" d="M 714 420.601562 C 714 406.199219 690 406.199219 690 420.601562 C 690 435 714 437.398438 714 449.398438 C 714 437.398438 738 435 738 420.601562 C 738 406.199219 714 406.199219 714 420.601562 "/>
<path style="fill-rule:nonzero;fill:rgb(53%,27%,7%);fill-opacity:1;stroke-width:1;stroke-linecap:butt;stroke-linejoin:miter;stroke:rgb(0%,0%,0%);stroke-opacity:1;stroke-miterlimit:10;" d="M 817 297.601562 C 817 283.199219 793 283.199219 793 297.601562 C 793 312 817 314.398438 817 326.398438 C 817 314.398438 841 312 841 297.601562 C 841 283.199219 817 283.199219 817 297.601562 "/>
<path style="fill-rule:nonzero;fill:rgb(53%,27%,7%);fill-opacity:1;stroke-width:1;stroke-linecap:butt;stroke-linejoin:miter;stroke:rgb(0%,0%,0%);stroke-opacity:1;stroke-miterlimit:10;" d="M 751 110.601562 C 751 96.199219 727 96.199219 727 110.601562 C 727 125 751 127.398438 751 139.398438 C 751 127.398438 775 125 775 110.601562 C 775 96.199219 751 96.199219 751 110.601562 "/>
<path style="fill-rule:nonzero;fill:rgb(53%,27%,7%);fill-opacity:1;stroke-width:1;stroke-linecap:butt;stroke-linejoin:miter;stroke:rgb(0%,0%,0%);stroke-opacity:1;stroke-miterlimit:10;" d="M 630 76.601562 C 630 62.199219 606 62.199219 606 76.601562 C 606 91 630 93.398438 630 105.398438 C 630 93.398438 654 91 654 76.601562 C 654 62.199219 630 62.199219 630 76.601562 "/>
<path style="fill-rule:nonzero;fill:rgb(53%,27%,7%);fill-opacity:1;stroke-width:1;stroke-linecap:butt;stroke-linejoin:miter;stroke:rgb(0%,0%,0%);stroke-opacity:1;stroke-miterlimit:10;" d="M 547 164.601562 C 547 150.199219 523 150.199219 523 164.601562 C 523 179 547 181.398438 547 193.398438 C 547 181.398438 571 179 571 164.601562 C 571 150.199219 547 150.199219 547 164.601562 "/>
<path style="fill-rule:nonzero;fill:rgb(100%,51%,0%);fill-opacity:1;stroke-width:1;stroke-linecap:butt;stroke-linejoin:miter;stroke:rgb(0%,0%,0%);stroke-opacity:1;stroke-miterlimit:10;" d="M 681.214844 253 C 681.214844 264.714844 671.714844 274.214844 660 274.214844 C 648.285156 274.214844 638.785156 264.714844 638.785156 253 C 638.785156 241.285156 648.285156 231.785156 660 231.785156 C 671.714844 231.785156 681.214844 241.285156 681.214844 253 "/>
<path style="fill-rule:nonzero;fill:rgb(100%,51%,0%);fill-opacity:1;stroke-width:1;stroke-linecap:butt;stroke-linejoin:miter;stroke:rgb(0%,0%,0%);stroke-opacity:1;stroke-miterlimit:10;" d="M 929.214844 362 C 929.214844 373.714844 919.714844 383.214844 908 383.214844 C 896.285156 383.214844 886.785156 373.714844 886.785156 362 C 886.785156 350.285156 896.285156 340.785156 908 340.785156 C 919.714844 340.785156 929.214844 350.285156 929.214844 362 "/>
<path style="fill-rule:nonzero;fill:rgb(100%,51%,0%);fill-opacity:1;stroke-width:1;stroke-linecap:butt;stroke-linejoin:miter;stroke:rgb(0%,0%,0%);stroke-opacity:1;stroke-miterlimit:10;" d="M 413.214844 302 C 413.214844 313.714844 403.714844 323.214844 392 323.214844 C 380.285156 323.214844 370.785156 313.714844 370.785156 302 C 370.785156 290.285156 380.285156 280.785156 392 280.785156 C 403.714844 280.785156 413.214844 290.285156 413.214844 302 "/>
<path style="fill-rule:nonzero;fill:rgb(100%,51%,0%);fill-opacity:1;stroke-width:1;stroke-linecap:butt;stroke-linejoin:miter;stroke:rgb(0%,0%,0%);stroke-opacity:1;stroke-miterlimit:10;" d="M 932.214844 247 C 932.214844 258.714844 922.714844 268.214844 911 268.214844 C 899.285156 268.214844 889.785156 258.714844 889.785156 247 C 889.785156 235.285156 899.285156 225.785156 911 225.785156 C 922.714844 225.785156 932.214844 235.285156 932.214844 247 "/>
<path style="fill-rule:nonzero;fill:rgb(100%,51%,0%);fill-opacity:1;stroke-width:1;stroke-linecap:butt;stroke-linejoin:miter;stroke:rgb(0%,0%,0%);stroke-opacity:1;stroke-miterlimit:10;" d="M 250.214844 280 C 250.214844 291.714844 240.714844 301.214844 229 301.214844 C 217.285156 301.214844 207.785156 291.714844 207.785156 280 C 207.785156 268.285156 217.285156 258.785156 229 258.785156 C 240.714844 258.785156 250.214844 268.285156 250.214844 280 "/>
<path style="fill-rule:nonzero;fill:rgb(100%,51%,0%);fill-opacity:1;stroke-width:1;stroke-linecap:butt;stroke-linejoin:miter;stroke:rgb(0%,0%,0%);stroke-opacity:1;stroke-miterlimit:10;" d="M 175.214844 376 C 175.214844 387.714844 165.714844 397.214844 154 397.214844 C 142.285156 397.214844 132.785156 387.714844 132.785156 376 C 132.785156 364.285156 142.285156 354.785156 154 354.785156 C 165.714844 354.785156 175.214844 364.285156 175.214844 376 "/>
<path style="fill-rule:nonzero;fill:rgb(100%,51%,0%);fill-opacity:1;stroke-width:1;stroke-linecap:butt;stroke-linejoin:miter;stroke:rgb(0%,0%,0%);stroke-opacity:1;stroke-miterlimit:10;" d="M 196.214844 87 C 196.214844 98.714844 186.714844 108.214844 175 108.214844 C 163.285156 108.214844 153.785156 98.714844 153.785156 87 C 153.785156 75.285156 163.285156 65.785156 175 65.785156 C 186.714844 65.785156 196.214844 75.285156 196.214844 87 "/>
<path style="fill-rule:nonzero;fill:rgb(100%,51%,0%);fill-opacity:1;stroke-width:1;stroke-linecap:butt;stroke-linejoin:miter;stroke:rgb(0%,0%,0%);stroke-opacity:1;stroke-miterlimit:10;" d="M 339.214844 180 C 339.214844 191.714844 329.714844 201.214844 318 201.214844 C 306.285156 201.214844 296.785156 191.714844 296.785156 180 C 296.785156 168.285156 306.285156 158.785156 318 158.785156 C 329.714844 158.785156 339.214844 168.285156 339.214844 180 "/>
</g>
</svg>
