<?xml version="1.0" encoding="UTF-8"?>
<svg xmlns="http://www.w3.org/2000/svg" xmlns:xlink="http://www.w3.org/1999/xlink" width="1179pt" height="517pt" viewBox="0 0 1179 517" version="1.1">
<g id="surface421">
<rect x="0" y="0" width="1179" height="517" style="fill:rgb(90%,90%,90%);fill-opacity:1;stroke:none;"/>
<path style="fill-rule:nonzero;fill:rgb(35%,70%,90%);fill-opacity:1;stroke-width:1;stroke-linecap:butt;stroke-linejoin:miter;stroke:rgb(0%,0%,0%);stroke-opacity:1;stroke-miterlimit:10;" d="M 423 88 L 452.664062 88 L 464.664062 59.785156 L 476.664062 88 L 506.332031 88 L 482.332031 105.4375 L 490.417969 136.980469 L 464.664062 119.542969 L 438.914062 136.980469 L 451.214844 105.4375 L 423 88 "/>
<path style="fill-rule:nonzero;fill:rgb(55%,51%,53%);fill-opacity:1;stroke-width:1;stroke-linecap:butt;stroke-linejoin:miter;stroke:rgb(0%,0%,0%);stroke-opacity:1;stroke-miterlimit:10;" d="M 366.214844 419 C 366.214844 430.714844 356.714844 440.214844 345 440.214844 C 333.285156 440.214844 323.785156 430.714844 323.785156 419 C 323.785156 407.285156 333.285156 397.785156 345 397.785156 C 356.714844 397.785156 366.214844 407.285156 366.214844 419 "/>
<path style="fill-rule:nonzero;fill:rgb(35%,70%,90%);fill-opacity:1;stroke-width:1;stroke-linecap:butt;stroke-linejoin:miter;stroke:rgb(0%,0%,0%);stroke-opacity:1;stroke-miterlimit:10;" d="M 226 357 L 255.664062 357 L 267.664062 328.785156 L 279.664062 357 L 309.332031 357 L 285.332031 374.4375 L 293.417969 405.980469 L 267.664062 388.542969 L 241.914062 405.980469 L 254.214844 374.4375 L 226 357 "/>
<path style="fill-rule:nonzero;fill:rgb(55%,51%,53%);fill-opacity:1;stroke-width:1;stroke-linecap:butt;stroke-linejoin:miter;stroke:rgb(0%,0%,0%);stroke-opacity:1;stroke-miterlimit:10;" d="M 282.214844 157 C 282.214844 168.714844 272.714844 178.214844 261 178.214844 C 249.285156 178.214844 239.785156 168.714844 239.785156 157 C 239.785156 145.285156 249.285156 135.785156 261 135.785156 C 272.714844 135.785156 282.214844 145.285156 282.214844 157 "/>
<path style="fill-rule:nonzero;fill:rgb(35%,70%,90%);fill-opacity:1;stroke-width:1;stroke-linecap:butt;stroke-linejoin:miter;stroke:rgb(0%,0%,0%);stroke-opacity:1;stroke-miterlimit:10;" d="M 157 270 L 186.664062 270 L 198.664062 241.785156 L 210.664062 270 L 240.332031 270 L 216.332031 287.4375 L 224.417969 318.980469 L 198.664062 301.542969 L 172.914062 318.980469 L 185.214844 287.4375 L 157 270 "/>
<path style="fill-rule:nonzero;fill:rgb(35%,70%,90%);fill-opacity:1;stroke-width:1;stroke-linecap:butt;stroke-linejoin:miter;stroke:rgb(0%,0%,0%);stroke-opacity:1;stroke-miterlimit:10;" d="M 80 108 L 109.664062 108 L 121.664062 79.785156 L 133.664062 108 L 163.332031 108 L 139.332031 125.4375 L 147.417969 156.980469 L 121.664062 139.542969 L 95.914062 156.980469 L 108.214844 125.4375 L 80 108 "/>
<path style="fill-rule:nonzero;fill:rgb(55%,51%,53%);fill-opacity:1;stroke-width:1;stroke-linecap:butt;stroke-linejoin:miter;stroke:rgb(0%,0%,0%);stroke-opacity:1;stroke-miterlimit:10;" d="M 781.214844 127 C 781.214844 138.714844 771.714844 148.214844 760 148.214844 C 748.285156 148.214844 738.785156 138.714844 738.785156 127 C 738.785156 115.285156 748.285156 105.785156 760 105.785156 C 771.714844 105.785156 781.214844 115.285156 781.214844 127 "/>
<path style="fill-rule:nonzero;fill:rgb(55%,51%,53%);fill-opacity:1;stroke-width:1;stroke-linecap:butt;stroke-linejoin:miter;stroke:rgb(0%,0%,0%);stroke-opacity:1;stroke-miterlimit:10;" d="M 721.214844 359 C 721.214844 370.714844 711.714844 380.214844 700 380.214844 C 688.285156 380.214844 678.785156 370.714844 678.785156 359 C 678.785156 347.285156 688.285156 337.785156 700 337.785156 C 711.714844 337.785156 721.214844 347.285156 721.214844 359 "/>
<path style="fill-rule:nonzero;fill:rgb(35%,70%,90%);fill-opacity:1;stroke-width:1;stroke-linecap:butt;stroke-linejoin:miter;stroke:rgb(0%,0%,0%);stroke-opacity:1;stroke-miterlimit:10;" d="M 924 84 L 953.664062 84 L 965.664062 55.785156 L 977.664062 84 L 1007.332031 84 L 983.332031 101.4375 L 991.417969 132.980469 L 965.664062 115.542969 L 939.914062 132.980469 L 952.214844 101.4375 L 924 84 "/>
<path style="fill-rule:nonzero;fill:rgb(55%,51%,53%);fill-opacity:1;stroke-width:1;stroke-linecap:butt;stroke-linejoin:miter;stroke:rgb(0%,0%,0%);stroke-opacity:1;stroke-miterlimit:10;" d="M 942.214844 271 C 942.214844 282.714844 932.714844 292.214844 921 292.214844 C 909.285156 292.214844 899.785156 282.714844 899.785156 271 C 899.785156 259.285156 909.285156 249.785156 921 249.785156 C 932.714844 249.785156 942.214844 259.285156 942.214844 271 "/>
<path style="fill-rule:nonzero;fill:rgb(35%,70%,90%);fill-opacity:1;stroke-width:1;stroke-linecap:butt;stroke-linejoin:miter;stroke:rgb(0%,0%,0%);stroke-opacity:1;stroke-miterlimit:10;" d="M 799 395 L 828.664062 395 L 840.664062 366.785156 L 852.664062 395 L 882.332031 395 L 858.332031 412.4375 L 866.417969 443.980469 L 840.664062 426.542969 L 814.914062 443.980469 L 827.214844 412.4375 L 799 395 "/>
<path style="fill-rule:nonzero;fill:rgb(55%,51%,53%);fill-opacity:1;stroke-width:1;stroke-linecap:butt;stroke-linejoin:miter;stroke:rgb(0%,0%,0%);stroke-opacity:1;stroke-miterlimit:10;" d="M 714.214844 244 C 714.214844 255.714844 704.714844 265.214844 693 265.214844 C 681.285156 265.214844 671.785156 255.714844 671.785156 244 C 671.785156 232.285156 681.285156 222.785156 693 222.785156 C 704.714844 222.785156 714.214844 232.285156 714.214844 244 "/>
<path style="fill-rule:nonzero;fill:rgb(55%,51%,53%);fill-opacity:1;stroke-width:1;stroke-linecap:butt;stroke-linejoin:miter;stroke:rgb(0%,0%,0%);stroke-opacity:1;stroke-miterlimit:10;" d="M 1061.214844 86 C 1061.214844 97.714844 1051.714844 107.214844 1040 107.214844 C 1028.285156 107.214844 1018.785156 97.714844 1018.785156 86 C 1018.785156 74.285156 1028.285156 64.785156 1040 64.785156 C 1051.714844 64.785156 1061.214844 74.285156 1061.214844 86 "/>
</g>
</svg>
