<?xml version="1.0" encoding="UTF-8"?>
<svg xmlns="http://www.w3.org/2000/svg" xmlns:xlink="http://www.w3.org/1999/xlink" width="1129pt" height="517pt" viewBox="0 0 1129 517" version="1.1">
<g id="surface661">
<rect x="0" y="0" width="1129" height="517" style="fill:rgb(90%,90%,90%);fill-opacity:1;stroke:none;"/>
<path style="fill-rule:nonzero;fill:rgb(100%,51%,0%);fill-opacity:1;stroke-width:1;stroke-linecap:butt;stroke-linejoin:miter;stroke:rgb(0%,0%,0%);stroke-opacity:1;stroke-miterlimit:10;" d="M 102 396 L 131.664062 396 L 143.664062 367.785156 L 155.664062 396 L 185.332031 396 L 161.332031 413.4375 L 169.417969 444.980469 L 143.664062 427.542969 L 117.914062 444.980469 L 130.214844 413.4375 L 102 396 "/>
<path style="fill-rule:nonzero;fill:rgb(100%,51%,0%);fill-opacity:1;stroke-width:1;stroke-linecap:butt;stroke-linejoin:miter;stroke:rgb(0%,0%,0%);stroke-opacity:1;stroke-miterlimit:10;" d="M 433 201 L 462.664062 201 L 474.664062 172.785156 L 486.664062 201 L 516.332031 201 L 492.332031 218.4375 L 500.417969 249.980469 L 474.664062 232.542969 L 448.914062 249.980469 L 461.214844 218.4375 L 433 201 "/>
<path style="fill-rule:nonzero;fill:rgb(100%,51%,0%);fill-opacity:1;stroke-width:1;stroke-linecap:butt;stroke-linejoin:miter;stroke:rgb(0%,0%,0%);stroke-opacity:1;stroke-miterlimit:10;" d="M 236 194 L 265.664062 194 L 277.664062 165.785156 L 289.664062 194 L 319.332031 194 L 295.332031 211.4375 L 303.417969 242.980469 L 277.664062 225.542969 L 251.914062 242.980469 L 264.214844 211.4375 L 236 194 "/>
<path style="fill-rule:nonzero;fill:rgb(100%,51%,0%);fill-opacity:1;stroke-width:1;stroke-linecap:butt;stroke-linejoin:miter;stroke:rgb(0%,0%,0%);stroke-opacity:1;stroke-miterlimit:10;" d="M 683 83 L 712.664062 83 L 724.664062 54.785156 L 736.664062 83 L 766.332031 83 L 742.332031 100.4375 L 750.417969 131.980469 L 724.664062 114.542969 L 698.914062 131.980469 L 711.214844 100.4375 L 683 83 "/>
<path style="fill-rule:nonzero;fill:rgb(100%,51%,0%);fill-opacity:1;stroke-width:1;stroke-linecap:butt;stroke-linejoin:miter;stroke:rgb(0%,0%,0%);stroke-opacity:1;stroke-miterlimit:10;" d="M 804 231 L 833.664062 231 L 845.664062 202.785156 L 857.664062 231 L 887.332031 231 L 863.332031 248.4375 L 871.417969 279.980469 L 845.664062 262.542969 L 819.914062 279.980469 L 832.214844 248.4375 L 804 231 "/>
<path style="fill-rule:nonzero;fill:rgb(100%,51%,0%);fill-opacity:1;stroke-width:1;stroke-linecap:butt;stroke-linejoin:miter;stroke:rgb(0%,0%,0%);stroke-opacity:1;stroke-miterlimit:10;" d="M 634 382 L 663.664062 382 L 675.664062 353.785156 L 687.664062 382 L 717.332031 382 L 693.332031 399.4375 L 701.417969 430.980469 L 675.664062 413.542969 L 649.914062 430.980469 L 662.214844 399.4375 L 634 382 "/>
<path style="fill-rule:nonzero;fill:rgb(100%,51%,0%);fill-opacity:1;stroke-width:1;stroke-linecap:butt;stroke-linejoin:miter;stroke:rgb(0%,0%,0%);stroke-opacity:1;stroke-miterlimit:10;" d="M 285 299 L 314.664062 299 L 326.664062 270.785156 L 338.664062 299 L 368.332031 299 L 344.332031 316.4375 L 352.417969 347.980469 L 326.664062 330.542969 L 300.914062 347.980469 L 313.214844 316.4375 L 285 299 "/>
<path style="fill-rule:nonzero;fill:rgb(55%,51%,53%);fill-opacity:1;stroke-width:1;stroke-linecap:butt;stroke-linejoin:miter;stroke:rgb(0%,0%,0%);stroke-opacity:1;stroke-miterlimit:10;" d="M 920.214844 243 C 920.214844 254.714844 910.714844 264.214844 899 264.214844 C 887.285156 264.214844 877.785156 254.714844 877.785156 243 C 877.785156 231.285156 887.285156 221.785156 899 221.785156 C 910.714844 221.785156 920.214844 231.285156 920.214844 243 "/>
<path style="fill-rule:nonzero;fill:rgb(55%,51%,53%);fill-opacity:1;stroke-width:1;stroke-linecap:butt;stroke-linejoin:miter;stroke:rgb(0%,0%,0%);stroke-opacity:1;stroke-miterlimit:10;" d="M 325.214844 124 C 325.214844 135.714844 315.714844 145.214844 304 145.214844 C 292.285156 145.214844 282.785156 135.714844 282.785156 124 C 282.785156 112.285156 292.285156 102.785156 304 102.785156 C 315.714844 102.785156 325.214844 112.285156 325.214844 124 "/>
<path style="fill-rule:nonzero;fill:rgb(55%,51%,53%);fill-opacity:1;stroke-width:1;stroke-linecap:butt;stroke-linejoin:miter;stroke:rgb(0%,0%,0%);stroke-opacity:1;stroke-miterlimit:10;" d="M 219.214844 447 C 219.214844 458.714844 209.714844 468.214844 198 468.214844 C 186.285156 468.214844 176.785156 458.714844 176.785156 447 C 176.785156 435.285156 186.285156 425.785156 198 425.785156 C 209.714844 425.785156 219.214844 435.285156 219.214844 447 "/>
<path style="fill-rule:nonzero;fill:rgb(55%,51%,53%);fill-opacity:1;stroke-width:1;stroke-linecap:butt;stroke-linejoin:miter;stroke:rgb(0%,0%,0%);stroke-opacity:1;stroke-miterlimit:10;" d="M 725.214844 225 C 725.214844 236.714844 715.714844 246.214844 704 246.214844 C 692.285156 246.214844 682.785156 236.714844 682.785156 225 C 682.785156 213.285156 692.285156 203.785156 704 203.785156 C 715.714844 203.785156 725.214844 213.285156 725.214844 225 "/>
</g>
</svg>
