<?xml version="1.0" encoding="UTF-8"?>
<svg xmlns="http://www.w3.org/2000/svg" xmlns:xlink="http://www.w3.org/1999/xlink" width="1129pt" height="517pt" viewBox="0 0 1129 517" version="1.1">
<g id="surface691">
<rect x="0" y="0" width="1129" height="517" style="fill:rgb(90%,90%,90%);fill-opacity:1;stroke:none;"/>
<path style="fill-rule:nonzero;fill:rgb(55%,51%,53%);fill-opacity:1;stroke-width:1;stroke-linecap:butt;stroke-linejoin:miter;stroke:rgb(0%,0%,0%);stroke-opacity:1;stroke-miterlimit:10;" d="M 352 69 L 381.664062 69 L 393.664062 40.785156 L 405.664062 69 L 435.332031 69 L 411.332031 86.4375 L 419.417969 117.980469 L 393.664062 100.542969 L 367.914062 117.980469 L 380.214844 86.4375 L 352 69 "/>
<path style="fill-rule:nonzero;fill:rgb(55%,51%,53%);fill-opacity:1;stroke-width:1;stroke-linecap:butt;stroke-linejoin:miter;stroke:rgb(0%,0%,0%);stroke-opacity:1;stroke-miterlimit:10;" d="M 844 190 L 873.664062 190 L 885.664062 161.785156 L 897.664062 190 L 927.332031 190 L 903.332031 207.4375 L 911.417969 238.980469 L 885.664062 221.542969 L 859.914062 238.980469 L 872.214844 207.4375 L 844 190 "/>
<path style="fill-rule:nonzero;fill:rgb(55%,51%,53%);fill-opacity:1;stroke-width:1;stroke-linecap:butt;stroke-linejoin:miter;stroke:rgb(0%,0%,0%);stroke-opacity:1;stroke-miterlimit:10;" d="M 151 350 L 180.664062 350 L 192.664062 321.785156 L 204.664062 350 L 234.332031 350 L 210.332031 367.4375 L 218.417969 398.980469 L 192.664062 381.542969 L 166.914062 398.980469 L 179.214844 367.4375 L 151 350 "/>
<path style="fill-rule:nonzero;fill:rgb(55%,51%,53%);fill-opacity:1;stroke-width:1;stroke-linecap:butt;stroke-linejoin:miter;stroke:rgb(0%,0%,0%);stroke-opacity:1;stroke-miterlimit:10;" d="M 257 391 L 286.664062 391 L 298.664062 362.785156 L 310.664062 391 L 340.332031 391 L 316.332031 408.4375 L 324.417969 439.980469 L 298.664062 422.542969 L 272.914062 439.980469 L 285.214844 408.4375 L 257 391 "/>
<path style="fill-rule:nonzero;fill:rgb(55%,51%,53%);fill-opacity:1;stroke-width:1;stroke-linecap:butt;stroke-linejoin:miter;stroke:rgb(0%,0%,0%);stroke-opacity:1;stroke-miterlimit:10;" d="M 307 206 L 336.664062 206 L 348.664062 177.785156 L 360.664062 206 L 390.332031 206 L 366.332031 223.4375 L 374.417969 254.980469 L 348.664062 237.542969 L 322.914062 254.980469 L 335.214844 223.4375 L 307 206 "/>
<path style="fill-rule:nonzero;fill:rgb(55%,51%,53%);fill-opacity:1;stroke-width:1;stroke-linecap:butt;stroke-linejoin:miter;stroke:rgb(0%,0%,0%);stroke-opacity:1;stroke-miterlimit:10;" d="M 687 405 L 716.664062 405 L 728.664062 376.785156 L 740.664062 405 L 770.332031 405 L 746.332031 422.4375 L 754.417969 453.980469 L 728.664062 436.542969 L 702.914062 453.980469 L 715.214844 422.4375 L 687 405 "/>
<path style="fill-rule:nonzero;fill:rgb(55%,51%,53%);fill-opacity:1;stroke-width:1;stroke-linecap:butt;stroke-linejoin:miter;stroke:rgb(0%,0%,0%);stroke-opacity:1;stroke-miterlimit:10;" d="M 685 77 L 714.664062 77 L 726.664062 48.785156 L 738.664062 77 L 768.332031 77 L 744.332031 94.4375 L 752.417969 125.980469 L 726.664062 108.542969 L 700.914062 125.980469 L 713.214844 94.4375 L 685 77 "/>
<path style="fill-rule:nonzero;fill:rgb(53%,27%,7%);fill-opacity:1;stroke-width:1;stroke-linecap:butt;stroke-linejoin:miter;stroke:rgb(0%,0%,0%);stroke-opacity:1;stroke-miterlimit:10;" d="M 716.214844 239 C 716.214844 250.714844 706.714844 260.214844 695 260.214844 C 683.285156 260.214844 673.785156 250.714844 673.785156 239 C 673.785156 227.285156 683.285156 217.785156 695 217.785156 C 706.714844 217.785156 716.214844 227.285156 716.214844 239 "/>
<path style="fill-rule:nonzero;fill:rgb(53%,27%,7%);fill-opacity:1;stroke-width:1;stroke-linecap:butt;stroke-linejoin:miter;stroke:rgb(0%,0%,0%);stroke-opacity:1;stroke-miterlimit:10;" d="M 196.214844 91 C 196.214844 102.714844 186.714844 112.214844 175 112.214844 C 163.285156 112.214844 153.785156 102.714844 153.785156 91 C 153.785156 79.285156 163.285156 69.785156 175 69.785156 C 186.714844 69.785156 196.214844 79.285156 196.214844 91 "/>
<path style="fill-rule:nonzero;fill:rgb(53%,27%,7%);fill-opacity:1;stroke-width:1;stroke-linecap:butt;stroke-linejoin:miter;stroke:rgb(0%,0%,0%);stroke-opacity:1;stroke-miterlimit:10;" d="M 387.214844 437 C 387.214844 448.714844 377.714844 458.214844 366 458.214844 C 354.285156 458.214844 344.785156 448.714844 344.785156 437 C 344.785156 425.285156 354.285156 415.785156 366 415.785156 C 377.714844 415.785156 387.214844 425.285156 387.214844 437 "/>
<path style="fill-rule:nonzero;fill:rgb(53%,27%,7%);fill-opacity:1;stroke-width:1;stroke-linecap:butt;stroke-linejoin:miter;stroke:rgb(0%,0%,0%);stroke-opacity:1;stroke-miterlimit:10;" d="M 91.214844 230 C 91.214844 241.714844 81.714844 251.214844 70 251.214844 C 58.285156 251.214844 48.785156 241.714844 48.785156 230 C 48.785156 218.285156 58.285156 208.785156 70 208.785156 C 81.714844 208.785156 91.214844 218.285156 91.214844 230 "/>
<path style="fill-rule:nonzero;fill:rgb(53%,27%,7%);fill-opacity:1;stroke-width:1;stroke-linecap:butt;stroke-linejoin:miter;stroke:rgb(0%,0%,0%);stroke-opacity:1;stroke-miterlimit:10;" d="M 634.214844 309 C 634.214844 320.714844 624.714844 330.214844 613 330.214844 C 601.285156 330.214844 591.785156 320.714844 591.785156 309 C 591.785156 297.285156 601.285156 287.785156 613 287.785156 C 624.714844 287.785156 634.214844 297.285156 634.214844 309 "/>
<path style="fill-rule:nonzero;fill:rgb(53%,27%,7%);fill-opacity:1;stroke-width:1;stroke-linecap:butt;stroke-linejoin:miter;stroke:rgb(0%,0%,0%);stroke-opacity:1;stroke-miterlimit:10;" d="M 554.214844 59 C 554.214844 70.714844 544.714844 80.214844 533 80.214844 C 521.285156 80.214844 511.785156 70.714844 511.785156 59 C 511.785156 47.285156 521.285156 37.785156 533 37.785156 C 544.714844 37.785156 554.214844 47.285156 554.214844 59 "/>
<path style="fill-rule:nonzero;fill:rgb(53%,27%,7%);fill-opacity:1;stroke-width:1;stroke-linecap:butt;stroke-linejoin:miter;stroke:rgb(0%,0%,0%);stroke-opacity:1;stroke-miterlimit:10;" d="M 168.214844 450 C 168.214844 461.714844 158.714844 471.214844 147 471.214844 C 135.285156 471.214844 125.785156 461.714844 125.785156 450 C 125.785156 438.285156 135.285156 428.785156 147 428.785156 C 158.714844 428.785156 168.214844 438.285156 168.214844 450 "/>
<path style="fill-rule:nonzero;fill:rgb(53%,27%,7%);fill-opacity:1;stroke-width:1;stroke-linecap:butt;stroke-linejoin:miter;stroke:rgb(0%,0%,0%);stroke-opacity:1;stroke-miterlimit:10;" d="M 957.214844 331 C 957.214844 342.714844 947.714844 352.214844 936 352.214844 C 924.285156 352.214844 914.785156 342.714844 914.785156 331 C 914.785156 319.285156 924.285156 309.785156 936 309.785156 C 947.714844 309.785156 957.214844 319.285156 957.214844 331 "/>
</g>
</svg>
