<?xml version="1.0" encoding="UTF-8"?>
<svg xmlns="http://www.w3.org/2000/svg" xmlns:xlink="http://www.w3.org/1999/xlink" width="1129pt" height="517pt" viewBox="0 0 1129 517" version="1.1">
<g id="surface631">
<rect x="0" y="0" width="1129" height="517" style="fill:rgb(90%,90%,90%);fill-opacity:1;stroke:none;"/>
<path style="fill-rule:nonzero;fill:rgb(100%,51%,0%);fill-opacity:1;stroke-width:1;stroke-linecap:butt;stroke-linejoin:miter;stroke:rgb(0%,0%,0%);stroke-opacity:1;stroke-miterlimit:10;" d="M 449 175 L 478.664062 175 L 490.664062 146.785156 L 502.664062 175 L 532.332031 175 L 508.332031 192.4375 L 516.417969 223.980469 L 490.664062 206.542969 L 464.914062 223.980469 L 477.214844 192.4375 L 449 175 "/>
<path style="fill-rule:nonzero;fill:rgb(100%,51%,0%);fill-opacity:1;stroke-width:1;stroke-linecap:butt;stroke-linejoin:miter;stroke:rgb(0%,0%,0%);stroke-opacity:1;stroke-miterlimit:10;" d="M 108 361 L 137.664062 361 L 149.664062 332.785156 L 161.664062 361 L 191.332031 361 L 167.332031 378.4375 L 175.417969 409.980469 L 149.664062 392.542969 L 123.914062 409.980469 L 136.214844 378.4375 L 108 361 "/>
<path style="fill-rule:nonzero;fill:rgb(100%,51%,0%);fill-opacity:1;stroke-width:1;stroke-linecap:butt;stroke-linejoin:miter;stroke:rgb(0%,0%,0%);stroke-opacity:1;stroke-miterlimit:10;" d="M 591 347 L 620.664062 347 L 632.664062 318.785156 L 644.664062 347 L 674.332031 347 L 650.332031 364.4375 L 658.417969 395.980469 L 632.664062 378.542969 L 606.914062 395.980469 L 619.214844 364.4375 L 591 347 "/>
<path style="fill-rule:nonzero;fill:rgb(100%,51%,0%);fill-opacity:1;stroke-width:1;stroke-linecap:butt;stroke-linejoin:miter;stroke:rgb(0%,0%,0%);stroke-opacity:1;stroke-miterlimit:10;" d="M 55 88 L 84.664062 88 L 96.664062 59.785156 L 108.664062 88 L 138.332031 88 L 114.332031 105.4375 L 122.417969 136.980469 L 96.664062 119.542969 L 70.914062 136.980469 L 83.214844 105.4375 L 55 88 "/>
<path style="fill-rule:nonzero;fill:rgb(100%,51%,0%);fill-opacity:1;stroke-width:1;stroke-linecap:butt;stroke-linejoin:miter;stroke:rgb(0%,0%,0%);stroke-opacity:1;stroke-miterlimit:10;" d="M 866 454 L 895.664062 454 L 907.664062 425.785156 L 919.664062 454 L 949.332031 454 L 925.332031 471.4375 L 933.417969 502.980469 L 907.664062 485.542969 L 881.914062 502.980469 L 894.214844 471.4375 L 866 454 "/>
<path style="fill-rule:nonzero;fill:rgb(100%,51%,0%);fill-opacity:1;stroke-width:1;stroke-linecap:butt;stroke-linejoin:miter;stroke:rgb(0%,0%,0%);stroke-opacity:1;stroke-miterlimit:10;" d="M 614 460 L 643.664062 460 L 655.664062 431.785156 L 667.664062 460 L 697.332031 460 L 673.332031 477.4375 L 681.417969 508.980469 L 655.664062 491.542969 L 629.914062 508.980469 L 642.214844 477.4375 L 614 460 "/>
<path style="fill-rule:nonzero;fill:rgb(53%,27%,7%);fill-opacity:1;stroke-width:1;stroke-linecap:butt;stroke-linejoin:miter;stroke:rgb(0%,0%,0%);stroke-opacity:1;stroke-miterlimit:10;" d="M 741.214844 316 C 741.214844 327.714844 731.714844 337.214844 720 337.214844 C 708.285156 337.214844 698.785156 327.714844 698.785156 316 C 698.785156 304.285156 708.285156 294.785156 720 294.785156 C 731.714844 294.785156 741.214844 304.285156 741.214844 316 "/>
<path style="fill-rule:nonzero;fill:rgb(53%,27%,7%);fill-opacity:1;stroke-width:1;stroke-linecap:butt;stroke-linejoin:miter;stroke:rgb(0%,0%,0%);stroke-opacity:1;stroke-miterlimit:10;" d="M 534.214844 272 C 534.214844 283.714844 524.714844 293.214844 513 293.214844 C 501.285156 293.214844 491.785156 283.714844 491.785156 272 C 491.785156 260.285156 501.285156 250.785156 513 250.785156 C 524.714844 250.785156 534.214844 260.285156 534.214844 272 "/>
<path style="fill-rule:nonzero;fill:rgb(53%,27%,7%);fill-opacity:1;stroke-width:1;stroke-linecap:butt;stroke-linejoin:miter;stroke:rgb(0%,0%,0%);stroke-opacity:1;stroke-miterlimit:10;" d="M 319.214844 267 C 319.214844 278.714844 309.714844 288.214844 298 288.214844 C 286.285156 288.214844 276.785156 278.714844 276.785156 267 C 276.785156 255.285156 286.285156 245.785156 298 245.785156 C 309.714844 245.785156 319.214844 255.285156 319.214844 267 "/>
<path style="fill-rule:nonzero;fill:rgb(53%,27%,7%);fill-opacity:1;stroke-width:1;stroke-linecap:butt;stroke-linejoin:miter;stroke:rgb(0%,0%,0%);stroke-opacity:1;stroke-miterlimit:10;" d="M 149.214844 257 C 149.214844 268.714844 139.714844 278.214844 128 278.214844 C 116.285156 278.214844 106.785156 268.714844 106.785156 257 C 106.785156 245.285156 116.285156 235.785156 128 235.785156 C 139.714844 235.785156 149.214844 245.285156 149.214844 257 "/>
</g>
</svg>
