<?xml version="1.0" encoding="UTF-8"?>
<svg xmlns="http://www.w3.org/2000/svg" xmlns:xlink="http://www.w3.org/1999/xlink" width="1129pt" height="517pt" viewBox="0 0 1129 517" version="1.1">
<g id="surface341">
<rect x="0" y="0" width="1129" height="517" style="fill:rgb(90%,90%,90%);fill-opacity:1;stroke:none;"/>
<path style="fill-rule:nonzero;fill:rgb(55%,51%,53%);fill-opacity:1;stroke-width:1;stroke-linecap:butt;stroke-linejoin:miter;stroke:rgb(0%,0%,0%);stroke-opacity:1;stroke-miterlimit:10;" d="M 80 318 L 109.664062 318 L 121.664062 289.785156 L 133.664062 318 L 163.332031 318 L 139.332031 335.4375 L 147.417969 366.980469 L 121.664062 349.542969 L 95.914062 366.980469 L 108.214844 335.4375 L 80 318 "/>
<path style="fill-rule:nonzero;fill:rgb(53%,27%,7%);fill-opacity:1;stroke-width:1;stroke-linecap:butt;stroke-linejoin:miter;stroke:rgb(0%,0%,0%);stroke-opacity:1;stroke-miterlimit:10;" d="M 135 72 L 164.664062 72 L 176.664062 43.785156 L 188.664062 72 L 218.332031 72 L 194.332031 89.4375 L 202.417969 120.980469 L 176.664062 103.542969 L 150.914062 120.980469 L 163.214844 89.4375 L 135 72 "/>
<path style="fill-rule:nonzero;fill:rgb(55%,51%,53%);fill-opacity:1;stroke-width:1;stroke-linecap:butt;stroke-linejoin:miter;stroke:rgb(0%,0%,0%);stroke-opacity:1;stroke-miterlimit:10;" d="M 236 212 L 265.664062 212 L 277.664062 183.785156 L 289.664062 212 L 319.332031 212 L 295.332031 229.4375 L 303.417969 260.980469 L 277.664062 243.542969 L 251.914062 260.980469 L 264.214844 229.4375 L 236 212 "/>
<path style="fill-rule:nonzero;fill:rgb(55%,51%,53%);fill-opacity:1;stroke-width:1;stroke-linecap:butt;stroke-linejoin:miter;stroke:rgb(0%,0%,0%);stroke-opacity:1;stroke-miterlimit:10;" d="M 391 170 L 420.664062 170 L 432.664062 141.785156 L 444.664062 170 L 474.332031 170 L 450.332031 187.4375 L 458.417969 218.980469 L 432.664062 201.542969 L 406.914062 218.980469 L 419.214844 187.4375 L 391 170 "/>
<path style="fill-rule:nonzero;fill:rgb(55%,51%,53%);fill-opacity:1;stroke-width:1;stroke-linecap:butt;stroke-linejoin:miter;stroke:rgb(0%,0%,0%);stroke-opacity:1;stroke-miterlimit:10;" d="M 368 283 L 397.664062 283 L 409.664062 254.785156 L 421.664062 283 L 451.332031 283 L 427.332031 300.4375 L 435.417969 331.980469 L 409.664062 314.542969 L 383.914062 331.980469 L 396.214844 300.4375 L 368 283 "/>
<path style="fill-rule:nonzero;fill:rgb(55%,51%,53%);fill-opacity:1;stroke-width:1;stroke-linecap:butt;stroke-linejoin:miter;stroke:rgb(0%,0%,0%);stroke-opacity:1;stroke-miterlimit:10;" d="M 300 51 L 329.664062 51 L 341.664062 22.785156 L 353.664062 51 L 383.332031 51 L 359.332031 68.4375 L 367.417969 99.980469 L 341.664062 82.542969 L 315.914062 99.980469 L 328.214844 68.4375 L 300 51 "/>
<path style="fill-rule:nonzero;fill:rgb(55%,51%,53%);fill-opacity:1;stroke-width:1;stroke-linecap:butt;stroke-linejoin:miter;stroke:rgb(0%,0%,0%);stroke-opacity:1;stroke-miterlimit:10;" d="M 215 388 L 244.664062 388 L 256.664062 359.785156 L 268.664062 388 L 298.332031 388 L 274.332031 405.4375 L 282.417969 436.980469 L 256.664062 419.542969 L 230.914062 436.980469 L 243.214844 405.4375 L 215 388 "/>
<path style="fill-rule:nonzero;fill:rgb(55%,51%,53%);fill-opacity:1;stroke-width:1;stroke-linecap:butt;stroke-linejoin:miter;stroke:rgb(0%,0%,0%);stroke-opacity:1;stroke-miterlimit:10;" d="M 98 454 L 127.664062 454 L 139.664062 425.785156 L 151.664062 454 L 181.332031 454 L 157.332031 471.4375 L 165.417969 502.980469 L 139.664062 485.542969 L 113.914062 502.980469 L 126.214844 471.4375 L 98 454 "/>
<path style="fill-rule:nonzero;fill:rgb(53%,27%,7%);fill-opacity:1;stroke-width:1;stroke-linecap:butt;stroke-linejoin:miter;stroke:rgb(0%,0%,0%);stroke-opacity:1;stroke-miterlimit:10;" d="M 964.785156 370.785156 L 964.785156 413.214844 L 1007.214844 413.214844 L 1007.214844 370.785156 L 964.785156 370.785156 "/>
<path style="fill-rule:nonzero;fill:rgb(55%,51%,53%);fill-opacity:1;stroke-width:1;stroke-linecap:butt;stroke-linejoin:miter;stroke:rgb(0%,0%,0%);stroke-opacity:1;stroke-miterlimit:10;" d="M 934.785156 124.785156 L 934.785156 167.214844 L 977.214844 167.214844 L 977.214844 124.785156 L 934.785156 124.785156 "/>
<path style="fill-rule:nonzero;fill:rgb(53%,27%,7%);fill-opacity:1;stroke-width:1;stroke-linecap:butt;stroke-linejoin:miter;stroke:rgb(0%,0%,0%);stroke-opacity:1;stroke-miterlimit:10;" d="M 803.785156 353.785156 L 803.785156 396.214844 L 846.214844 396.214844 L 846.214844 353.785156 L 803.785156 353.785156 "/>
<path style="fill-rule:nonzero;fill:rgb(53%,27%,7%);fill-opacity:1;stroke-width:1;stroke-linecap:butt;stroke-linejoin:miter;stroke:rgb(0%,0%,0%);stroke-opacity:1;stroke-miterlimit:10;" d="M 629.785156 126.785156 L 629.785156 169.214844 L 672.214844 169.214844 L 672.214844 126.785156 L 629.785156 126.785156 "/>
<path style="fill-rule:nonzero;fill:rgb(53%,27%,7%);fill-opacity:1;stroke-width:1;stroke-linecap:butt;stroke-linejoin:miter;stroke:rgb(0%,0%,0%);stroke-opacity:1;stroke-miterlimit:10;" d="M 879.785156 278.785156 L 879.785156 321.214844 L 922.214844 321.214844 L 922.214844 278.785156 L 879.785156 278.785156 "/>
</g>
</svg>
