<?xml version="1.0" encoding="UTF-8"?>
<svg xmlns="http://www.w3.org/2000/svg" xmlns:xlink="http://www.w3.org/1999/xlink" width="1129pt" height="517pt" viewBox="0 0 1129 517" version="1.1">
<g id="surface586">
<rect x="0" y="0" width="1129" height="517" style="fill:rgb(90%,90%,90%);fill-opacity:1;stroke:none;"/>
<path style="fill-rule:nonzero;fill:rgb(35%,70%,90%);fill-opacity:1;stroke-width:1;stroke-linecap:butt;stroke-linejoin:miter;stroke:rgb(0%,0%,0%);stroke-opacity:1;stroke-miterlimit:10;" d="M 375.214844 418 C 375.214844 429.714844 365.714844 439.214844 354 439.214844 C 342.285156 439.214844 332.785156 429.714844 332.785156 418 C 332.785156 406.285156 342.285156 396.785156 354 396.785156 C 365.714844 396.785156 375.214844 406.285156 375.214844 418 "/>
<path style="fill-rule:nonzero;fill:rgb(53%,27%,7%);fill-opacity:1;stroke-width:1;stroke-linecap:butt;stroke-linejoin:miter;stroke:rgb(0%,0%,0%);stroke-opacity:1;stroke-miterlimit:10;" d="M 138.214844 153 C 138.214844 164.714844 128.714844 174.214844 117 174.214844 C 105.285156 174.214844 95.785156 164.714844 95.785156 153 C 95.785156 141.285156 105.285156 131.785156 117 131.785156 C 128.714844 131.785156 138.214844 141.285156 138.214844 153 "/>
<path style="fill-rule:nonzero;fill:rgb(35%,70%,90%);fill-opacity:1;stroke-width:1;stroke-linecap:butt;stroke-linejoin:miter;stroke:rgb(0%,0%,0%);stroke-opacity:1;stroke-miterlimit:10;" d="M 473.214844 161 C 473.214844 172.714844 463.714844 182.214844 452 182.214844 C 440.285156 182.214844 430.785156 172.714844 430.785156 161 C 430.785156 149.285156 440.285156 139.785156 452 139.785156 C 463.714844 139.785156 473.214844 149.285156 473.214844 161 "/>
<path style="fill-rule:nonzero;fill:rgb(53%,27%,7%);fill-opacity:1;stroke-width:1;stroke-linecap:butt;stroke-linejoin:miter;stroke:rgb(0%,0%,0%);stroke-opacity:1;stroke-miterlimit:10;" d="M 203.214844 421 C 203.214844 432.714844 193.714844 442.214844 182 442.214844 C 170.285156 442.214844 160.785156 432.714844 160.785156 421 C 160.785156 409.285156 170.285156 399.785156 182 399.785156 C 193.714844 399.785156 203.214844 409.285156 203.214844 421 "/>
<path style="fill-rule:nonzero;fill:rgb(53%,27%,7%);fill-opacity:1;stroke-width:1;stroke-linecap:butt;stroke-linejoin:miter;stroke:rgb(0%,0%,0%);stroke-opacity:1;stroke-miterlimit:10;" d="M 763 180 L 737.019531 225 L 788.980469 225 L 763 180 "/>
<path style="fill-rule:nonzero;fill:rgb(35%,70%,90%);fill-opacity:1;stroke-width:1;stroke-linecap:butt;stroke-linejoin:miter;stroke:rgb(0%,0%,0%);stroke-opacity:1;stroke-miterlimit:10;" d="M 682 261 L 656.019531 306 L 707.980469 306 L 682 261 "/>
<path style="fill-rule:nonzero;fill:rgb(53%,27%,7%);fill-opacity:1;stroke-width:1;stroke-linecap:butt;stroke-linejoin:miter;stroke:rgb(0%,0%,0%);stroke-opacity:1;stroke-miterlimit:10;" d="M 656 104 L 630.019531 149 L 681.980469 149 L 656 104 "/>
<path style="fill-rule:nonzero;fill:rgb(35%,70%,90%);fill-opacity:1;stroke-width:1;stroke-linecap:butt;stroke-linejoin:miter;stroke:rgb(0%,0%,0%);stroke-opacity:1;stroke-miterlimit:10;" d="M 1010 51 L 984.019531 96 L 1035.980469 96 L 1010 51 "/>
</g>
</svg>
