<?xml version="1.0" encoding="UTF-8"?>
<svg xmlns="http://www.w3.org/2000/svg" xmlns:xlink="http://www.w3.org/1999/xlink" width="1129pt" height="517pt" viewBox="0 0 1129 517" version="1.1">
<g id="surface896">
<rect x="0" y="0" width="1129" height="517" style="fill:rgb(90%,90%,90%);fill-opacity:1;stroke:none;"/>
<path style="fill-rule:nonzero;fill:rgb(53%,27%,7%);fill-opacity:1;stroke-width:1;stroke-linecap:butt;stroke-linejoin:miter;stroke:rgb(0%,0%,0%);stroke-opacity:1;stroke-miterlimit:10;" d="M 267 430.601562 C 267 416.199219 243 416.199219 243 430.601562 C 243 445 267 447.398438 267 459.398438 C 267 447.398438 291 445 291 430.601562 C 291 416.199219 267 416.199219 267 430.601562 "/>
<path style="fill-rule:nonzero;fill:rgb(53%,27%,7%);fill-opacity:1;stroke-width:1;stroke-linecap:butt;stroke-linejoin:miter;stroke:rgb(0%,0%,0%);stroke-opacity:1;stroke-miterlimit:10;" d="M 325.214844 301 C 325.214844 312.714844 315.714844 322.214844 304 322.214844 C 292.285156 322.214844 282.785156 312.714844 282.785156 301 C 282.785156 289.285156 292.285156 279.785156 304 279.785156 C 315.714844 279.785156 325.214844 289.285156 325.214844 301 "/>
<path style="fill-rule:nonzero;fill:rgb(53%,27%,7%);fill-opacity:1;stroke-width:1;stroke-linecap:butt;stroke-linejoin:miter;stroke:rgb(0%,0%,0%);stroke-opacity:1;stroke-miterlimit:10;" d="M 155 66.601562 C 155 52.199219 131 52.199219 131 66.601562 C 131 81 155 83.398438 155 95.398438 C 155 83.398438 179 81 179 66.601562 C 179 52.199219 155 52.199219 155 66.601562 "/>
<path style="fill-rule:nonzero;fill:rgb(53%,27%,7%);fill-opacity:1;stroke-width:1;stroke-linecap:butt;stroke-linejoin:miter;stroke:rgb(0%,0%,0%);stroke-opacity:1;stroke-miterlimit:10;" d="M 475.214844 342 C 475.214844 353.714844 465.714844 363.214844 454 363.214844 C 442.285156 363.214844 432.785156 353.714844 432.785156 342 C 432.785156 330.285156 442.285156 320.785156 454 320.785156 C 465.714844 320.785156 475.214844 330.285156 475.214844 342 "/>
<path style="fill-rule:nonzero;fill:rgb(53%,27%,7%);fill-opacity:1;stroke-width:1;stroke-linecap:butt;stroke-linejoin:miter;stroke:rgb(0%,0%,0%);stroke-opacity:1;stroke-miterlimit:10;" d="M 314 76.601562 C 314 62.199219 290 62.199219 290 76.601562 C 290 91 314 93.398438 314 105.398438 C 314 93.398438 338 91 338 76.601562 C 338 62.199219 314 62.199219 314 76.601562 "/>
<path style="fill-rule:nonzero;fill:rgb(53%,27%,7%);fill-opacity:1;stroke-width:1;stroke-linecap:butt;stroke-linejoin:miter;stroke:rgb(0%,0%,0%);stroke-opacity:1;stroke-miterlimit:10;" d="M 181 395.601562 C 181 381.199219 157 381.199219 157 395.601562 C 157 410 181 412.398438 181 424.398438 C 181 412.398438 205 410 205 395.601562 C 205 381.199219 181 381.199219 181 395.601562 "/>
<path style="fill-rule:nonzero;fill:rgb(53%,27%,7%);fill-opacity:1;stroke-width:1;stroke-linecap:butt;stroke-linejoin:miter;stroke:rgb(0%,0%,0%);stroke-opacity:1;stroke-miterlimit:10;" d="M 367 441.601562 C 367 427.199219 343 427.199219 343 441.601562 C 343 456 367 458.398438 367 470.398438 C 367 458.398438 391 456 391 441.601562 C 391 427.199219 367 427.199219 367 441.601562 "/>
<path style="fill-rule:nonzero;fill:rgb(53%,27%,7%);fill-opacity:1;stroke-width:1;stroke-linecap:butt;stroke-linejoin:miter;stroke:rgb(0%,0%,0%);stroke-opacity:1;stroke-miterlimit:10;" d="M 214 232.601562 C 214 218.199219 190 218.199219 190 232.601562 C 190 247 214 249.398438 214 261.398438 C 214 249.398438 238 247 238 232.601562 C 238 218.199219 214 218.199219 214 232.601562 "/>
<path style="fill-rule:nonzero;fill:rgb(100%,51%,0%);fill-opacity:1;stroke-width:1;stroke-linecap:butt;stroke-linejoin:miter;stroke:rgb(0%,0%,0%);stroke-opacity:1;stroke-miterlimit:10;" d="M 985.214844 356 C 985.214844 367.714844 975.714844 377.214844 964 377.214844 C 952.285156 377.214844 942.785156 367.714844 942.785156 356 C 942.785156 344.285156 952.285156 334.785156 964 334.785156 C 975.714844 334.785156 985.214844 344.285156 985.214844 356 "/>
<path style="fill-rule:nonzero;fill:rgb(100%,51%,0%);fill-opacity:1;stroke-width:1;stroke-linecap:butt;stroke-linejoin:miter;stroke:rgb(0%,0%,0%);stroke-opacity:1;stroke-miterlimit:10;" d="M 729 333.601562 C 729 319.199219 705 319.199219 705 333.601562 C 705 348 729 350.398438 729 362.398438 C 729 350.398438 753 348 753 333.601562 C 753 319.199219 729 319.199219 729 333.601562 "/>
<path style="fill-rule:nonzero;fill:rgb(100%,51%,0%);fill-opacity:1;stroke-width:1;stroke-linecap:butt;stroke-linejoin:miter;stroke:rgb(0%,0%,0%);stroke-opacity:1;stroke-miterlimit:10;" d="M 908.214844 202 C 908.214844 213.714844 898.714844 223.214844 887 223.214844 C 875.285156 223.214844 865.785156 213.714844 865.785156 202 C 865.785156 190.285156 875.285156 180.785156 887 180.785156 C 898.714844 180.785156 908.214844 190.285156 908.214844 202 "/>
<path style="fill-rule:nonzero;fill:rgb(100%,51%,0%);fill-opacity:1;stroke-width:1;stroke-linecap:butt;stroke-linejoin:miter;stroke:rgb(0%,0%,0%);stroke-opacity:1;stroke-miterlimit:10;" d="M 1024 48.601562 C 1024 34.199219 1000 34.199219 1000 48.601562 C 1000 63 1024 65.398438 1024 77.398438 C 1024 65.398438 1048 63 1048 48.601562 C 1048 34.199219 1024 34.199219 1024 48.601562 "/>
<path style="fill-rule:nonzero;fill:rgb(100%,51%,0%);fill-opacity:1;stroke-width:1;stroke-linecap:butt;stroke-linejoin:miter;stroke:rgb(0%,0%,0%);stroke-opacity:1;stroke-miterlimit:10;" d="M 741.214844 131 C 741.214844 142.714844 731.714844 152.214844 720 152.214844 C 708.285156 152.214844 698.785156 142.714844 698.785156 131 C 698.785156 119.285156 708.285156 109.785156 720 109.785156 C 731.714844 109.785156 741.214844 119.285156 741.214844 131 "/>
<path style="fill-rule:nonzero;fill:rgb(100%,51%,0%);fill-opacity:1;stroke-width:1;stroke-linecap:butt;stroke-linejoin:miter;stroke:rgb(0%,0%,0%);stroke-opacity:1;stroke-miterlimit:10;" d="M 846.214844 372 C 846.214844 383.714844 836.714844 393.214844 825 393.214844 C 813.285156 393.214844 803.785156 383.714844 803.785156 372 C 803.785156 360.285156 813.285156 350.785156 825 350.785156 C 836.714844 350.785156 846.214844 360.285156 846.214844 372 "/>
<path style="fill-rule:nonzero;fill:rgb(100%,51%,0%);fill-opacity:1;stroke-width:1;stroke-linecap:butt;stroke-linejoin:miter;stroke:rgb(0%,0%,0%);stroke-opacity:1;stroke-miterlimit:10;" d="M 925.214844 113 C 925.214844 124.714844 915.714844 134.214844 904 134.214844 C 892.285156 134.214844 882.785156 124.714844 882.785156 113 C 882.785156 101.285156 892.285156 91.785156 904 91.785156 C 915.714844 91.785156 925.214844 101.285156 925.214844 113 "/>
<path style="fill-rule:nonzero;fill:rgb(100%,51%,0%);fill-opacity:1;stroke-width:1;stroke-linecap:butt;stroke-linejoin:miter;stroke:rgb(0%,0%,0%);stroke-opacity:1;stroke-miterlimit:10;" d="M 638.214844 354 C 638.214844 365.714844 628.714844 375.214844 617 375.214844 C 605.285156 375.214844 595.785156 365.714844 595.785156 354 C 595.785156 342.285156 605.285156 332.785156 617 332.785156 C 628.714844 332.785156 638.214844 342.285156 638.214844 354 "/>
</g>
</svg>
