<?xml version="1.0" encoding="UTF-8"?>
<svg xmlns="http://www.w3.org/2000/svg" xmlns:xlink="http://www.w3.org/1999/xlink" width="1129pt" height="517pt" viewBox="0 0 1129 517" version="1.1">
<g id="surface926">
<rect x="0" y="0" width="1129" height="517" style="fill:rgb(90%,90%,90%);fill-opacity:1;stroke:none;"/>
<path style="fill-rule:nonzero;fill:rgb(35%,70%,90%);fill-opacity:1;stroke-width:1;stroke-linecap:butt;stroke-linejoin:miter;stroke:rgb(0%,0%,0%);stroke-opacity:1;stroke-miterlimit:10;" d="M 586.214844 94 C 586.214844 105.714844 576.714844 115.214844 565 115.214844 C 553.285156 115.214844 543.785156 105.714844 543.785156 94 C 543.785156 82.285156 553.285156 72.785156 565 72.785156 C 576.714844 72.785156 586.214844 82.285156 586.214844 94 "/>
<path style="fill-rule:nonzero;fill:rgb(35%,70%,90%);fill-opacity:1;stroke-width:1;stroke-linecap:butt;stroke-linejoin:miter;stroke:rgb(0%,0%,0%);stroke-opacity:1;stroke-miterlimit:10;" d="M 772.214844 97 C 772.214844 108.714844 762.714844 118.214844 751 118.214844 C 739.285156 118.214844 729.785156 108.714844 729.785156 97 C 729.785156 85.285156 739.285156 75.785156 751 75.785156 C 762.714844 75.785156 772.214844 85.285156 772.214844 97 "/>
<path style="fill-rule:nonzero;fill:rgb(35%,70%,90%);fill-opacity:1;stroke-width:1;stroke-linecap:butt;stroke-linejoin:miter;stroke:rgb(0%,0%,0%);stroke-opacity:1;stroke-miterlimit:10;" d="M 131.214844 283 C 131.214844 294.714844 121.714844 304.214844 110 304.214844 C 98.285156 304.214844 88.785156 294.714844 88.785156 283 C 88.785156 271.285156 98.285156 261.785156 110 261.785156 C 121.714844 261.785156 131.214844 271.285156 131.214844 283 "/>
<path style="fill-rule:nonzero;fill:rgb(35%,70%,90%);fill-opacity:1;stroke-width:1;stroke-linecap:butt;stroke-linejoin:miter;stroke:rgb(0%,0%,0%);stroke-opacity:1;stroke-miterlimit:10;" d="M 847.214844 340 C 847.214844 351.714844 837.714844 361.214844 826 361.214844 C 814.285156 361.214844 804.785156 351.714844 804.785156 340 C 804.785156 328.285156 814.285156 318.785156 826 318.785156 C 837.714844 318.785156 847.214844 328.285156 847.214844 340 "/>
<path style="fill-rule:nonzero;fill:rgb(35%,70%,90%);fill-opacity:1;stroke-width:1;stroke-linecap:butt;stroke-linejoin:miter;stroke:rgb(0%,0%,0%);stroke-opacity:1;stroke-miterlimit:10;" d="M 237.214844 81 C 237.214844 92.714844 227.714844 102.214844 216 102.214844 C 204.285156 102.214844 194.785156 92.714844 194.785156 81 C 194.785156 69.285156 204.285156 59.785156 216 59.785156 C 227.714844 59.785156 237.214844 69.285156 237.214844 81 "/>
<path style="fill-rule:nonzero;fill:rgb(35%,70%,90%);fill-opacity:1;stroke-width:1;stroke-linecap:butt;stroke-linejoin:miter;stroke:rgb(0%,0%,0%);stroke-opacity:1;stroke-miterlimit:10;" d="M 754.214844 378 C 754.214844 389.714844 744.714844 399.214844 733 399.214844 C 721.285156 399.214844 711.785156 389.714844 711.785156 378 C 711.785156 366.285156 721.285156 356.785156 733 356.785156 C 744.714844 356.785156 754.214844 366.285156 754.214844 378 "/>
<path style="fill-rule:nonzero;fill:rgb(35%,70%,90%);fill-opacity:1;stroke-width:1;stroke-linecap:butt;stroke-linejoin:miter;stroke:rgb(0%,0%,0%);stroke-opacity:1;stroke-miterlimit:10;" d="M 895 253 L 924.664062 253 L 936.664062 224.785156 L 948.664062 253 L 978.332031 253 L 954.332031 270.4375 L 962.417969 301.980469 L 936.664062 284.542969 L 910.914062 301.980469 L 923.214844 270.4375 L 895 253 "/>
<path style="fill-rule:nonzero;fill:rgb(35%,70%,90%);fill-opacity:1;stroke-width:1;stroke-linecap:butt;stroke-linejoin:miter;stroke:rgb(0%,0%,0%);stroke-opacity:1;stroke-miterlimit:10;" d="M 359 82 L 388.664062 82 L 400.664062 53.785156 L 412.664062 82 L 442.332031 82 L 418.332031 99.4375 L 426.417969 130.980469 L 400.664062 113.542969 L 374.914062 130.980469 L 387.214844 99.4375 L 359 82 "/>
<path style="fill-rule:nonzero;fill:rgb(35%,70%,90%);fill-opacity:1;stroke-width:1;stroke-linecap:butt;stroke-linejoin:miter;stroke:rgb(0%,0%,0%);stroke-opacity:1;stroke-miterlimit:10;" d="M 256 261 L 285.664062 261 L 297.664062 232.785156 L 309.664062 261 L 339.332031 261 L 315.332031 278.4375 L 323.417969 309.980469 L 297.664062 292.542969 L 271.914062 309.980469 L 284.214844 278.4375 L 256 261 "/>
<path style="fill-rule:nonzero;fill:rgb(35%,70%,90%);fill-opacity:1;stroke-width:1;stroke-linecap:butt;stroke-linejoin:miter;stroke:rgb(0%,0%,0%);stroke-opacity:1;stroke-miterlimit:10;" d="M 543 313 L 572.664062 313 L 584.664062 284.785156 L 596.664062 313 L 626.332031 313 L 602.332031 330.4375 L 610.417969 361.980469 L 584.664062 344.542969 L 558.914062 361.980469 L 571.214844 330.4375 L 543 313 "/>
<path style="fill-rule:nonzero;fill:rgb(35%,70%,90%);fill-opacity:1;stroke-width:1;stroke-linecap:butt;stroke-linejoin:miter;stroke:rgb(0%,0%,0%);stroke-opacity:1;stroke-miterlimit:10;" d="M 155 195 L 184.664062 195 L 196.664062 166.785156 L 208.664062 195 L 238.332031 195 L 214.332031 212.4375 L 222.417969 243.980469 L 196.664062 226.542969 L 170.914062 243.980469 L 183.214844 212.4375 L 155 195 "/>
</g>
</svg>
