<?xml version="1.0" encoding="UTF-8"?>
<svg xmlns="http://www.w3.org/2000/svg" xmlns:xlink="http://www.w3.org/1999/xlink" width="1129pt" height="517pt" viewBox="0 0 1129 517" version="1.1">
<g id="surface841">
<rect x="0" y="0" width="1129" height="517" style="fill:rgb(90%,90%,90%);fill-opacity:1;stroke:none;"/>
<path style="fill-rule:nonzero;fill:rgb(55%,51%,53%);fill-opacity:1;stroke-width:1;stroke-linecap:butt;stroke-linejoin:miter;stroke:rgb(0%,0%,0%);stroke-opacity:1;stroke-miterlimit:10;" d="M 311.214844 265 C 311.214844 276.714844 301.714844 286.214844 290 286.214844 C 278.285156 286.214844 268.785156 276.714844 268.785156 265 C 268.785156 253.285156 278.285156 243.785156 290 243.785156 C 301.714844 243.785156 311.214844 253.285156 311.214844 265 "/>
<path style="fill-rule:nonzero;fill:rgb(67%,100%,18%);fill-opacity:1;stroke-width:1;stroke-linecap:butt;stroke-linejoin:miter;stroke:rgb(0%,0%,0%);stroke-opacity:1;stroke-miterlimit:10;" d="M 314.214844 456 C 314.214844 467.714844 304.714844 477.214844 293 477.214844 C 281.285156 477.214844 271.785156 467.714844 271.785156 456 C 271.785156 444.285156 281.285156 434.785156 293 434.785156 C 304.714844 434.785156 314.214844 444.285156 314.214844 456 "/>
<path style="fill-rule:nonzero;fill:rgb(67%,100%,18%);fill-opacity:1;stroke-width:1;stroke-linecap:butt;stroke-linejoin:miter;stroke:rgb(0%,0%,0%);stroke-opacity:1;stroke-miterlimit:10;" d="M 331.214844 148 C 331.214844 159.714844 321.714844 169.214844 310 169.214844 C 298.285156 169.214844 288.785156 159.714844 288.785156 148 C 288.785156 136.285156 298.285156 126.785156 310 126.785156 C 321.714844 126.785156 331.214844 136.285156 331.214844 148 "/>
<path style="fill-rule:nonzero;fill:rgb(55%,51%,53%);fill-opacity:1;stroke-width:1;stroke-linecap:butt;stroke-linejoin:miter;stroke:rgb(0%,0%,0%);stroke-opacity:1;stroke-miterlimit:10;" d="M 149.214844 423 C 149.214844 434.714844 139.714844 444.214844 128 444.214844 C 116.285156 444.214844 106.785156 434.714844 106.785156 423 C 106.785156 411.285156 116.285156 401.785156 128 401.785156 C 139.714844 401.785156 149.214844 411.285156 149.214844 423 "/>
<path style="fill-rule:nonzero;fill:rgb(55%,51%,53%);fill-opacity:1;stroke-width:1;stroke-linecap:butt;stroke-linejoin:miter;stroke:rgb(0%,0%,0%);stroke-opacity:1;stroke-miterlimit:10;" d="M 75.214844 236 C 75.214844 247.714844 65.714844 257.214844 54 257.214844 C 42.285156 257.214844 32.785156 247.714844 32.785156 236 C 32.785156 224.285156 42.285156 214.785156 54 214.785156 C 65.714844 214.785156 75.214844 224.285156 75.214844 236 "/>
<path style="fill-rule:nonzero;fill:rgb(55%,51%,53%);fill-opacity:1;stroke-width:1;stroke-linecap:butt;stroke-linejoin:miter;stroke:rgb(0%,0%,0%);stroke-opacity:1;stroke-miterlimit:10;" d="M 428.214844 404 C 428.214844 415.714844 418.714844 425.214844 407 425.214844 C 395.285156 425.214844 385.785156 415.714844 385.785156 404 C 385.785156 392.285156 395.285156 382.785156 407 382.785156 C 418.714844 382.785156 428.214844 392.285156 428.214844 404 "/>
<path style="fill-rule:nonzero;fill:rgb(55%,51%,53%);fill-opacity:1;stroke-width:1;stroke-linecap:butt;stroke-linejoin:miter;stroke:rgb(0%,0%,0%);stroke-opacity:1;stroke-miterlimit:10;" d="M 437.214844 280 C 437.214844 291.714844 427.714844 301.214844 416 301.214844 C 404.285156 301.214844 394.785156 291.714844 394.785156 280 C 394.785156 268.285156 404.285156 258.785156 416 258.785156 C 427.714844 258.785156 437.214844 268.285156 437.214844 280 "/>
<path style="fill-rule:nonzero;fill:rgb(55%,51%,53%);fill-opacity:1;stroke-width:1;stroke-linecap:butt;stroke-linejoin:miter;stroke:rgb(0%,0%,0%);stroke-opacity:1;stroke-miterlimit:10;" d="M 232.214844 156 C 232.214844 167.714844 222.714844 177.214844 211 177.214844 C 199.285156 177.214844 189.785156 167.714844 189.785156 156 C 189.785156 144.285156 199.285156 134.785156 211 134.785156 C 222.714844 134.785156 232.214844 144.285156 232.214844 156 "/>
<path style="fill-rule:nonzero;fill:rgb(67%,100%,18%);fill-opacity:1;stroke-width:1;stroke-linecap:butt;stroke-linejoin:miter;stroke:rgb(0%,0%,0%);stroke-opacity:1;stroke-miterlimit:10;" d="M 780 395 L 754.019531 440 L 805.980469 440 L 780 395 "/>
<path style="fill-rule:nonzero;fill:rgb(55%,51%,53%);fill-opacity:1;stroke-width:1;stroke-linecap:butt;stroke-linejoin:miter;stroke:rgb(0%,0%,0%);stroke-opacity:1;stroke-miterlimit:10;" d="M 794 188 L 768.019531 233 L 819.980469 233 L 794 188 "/>
<path style="fill-rule:nonzero;fill:rgb(55%,51%,53%);fill-opacity:1;stroke-width:1;stroke-linecap:butt;stroke-linejoin:miter;stroke:rgb(0%,0%,0%);stroke-opacity:1;stroke-miterlimit:10;" d="M 875 90 L 849.019531 135 L 900.980469 135 L 875 90 "/>
<path style="fill-rule:nonzero;fill:rgb(67%,100%,18%);fill-opacity:1;stroke-width:1;stroke-linecap:butt;stroke-linejoin:miter;stroke:rgb(0%,0%,0%);stroke-opacity:1;stroke-miterlimit:10;" d="M 1015 170 L 989.019531 215 L 1040.980469 215 L 1015 170 "/>
<path style="fill-rule:nonzero;fill:rgb(67%,100%,18%);fill-opacity:1;stroke-width:1;stroke-linecap:butt;stroke-linejoin:miter;stroke:rgb(0%,0%,0%);stroke-opacity:1;stroke-miterlimit:10;" d="M 917 335 L 891.019531 380 L 942.980469 380 L 917 335 "/>
<path style="fill-rule:nonzero;fill:rgb(67%,100%,18%);fill-opacity:1;stroke-width:1;stroke-linecap:butt;stroke-linejoin:miter;stroke:rgb(0%,0%,0%);stroke-opacity:1;stroke-miterlimit:10;" d="M 646 159 L 620.019531 204 L 671.980469 204 L 646 159 "/>
</g>
</svg>
