<?xml version="1.0" encoding="UTF-8"?>
<svg xmlns="http://www.w3.org/2000/svg" xmlns:xlink="http://www.w3.org/1999/xlink" width="1129pt" height="517pt" viewBox="0 0 1129 517" version="1.1">
<g id="surface846">
<rect x="0" y="0" width="1129" height="517" style="fill:rgb(90%,90%,90%);fill-opacity:1;stroke:none;"/>
<path style="fill-rule:nonzero;fill:rgb(100%,0%,0%);fill-opacity:1;stroke-width:1;stroke-linecap:butt;stroke-linejoin:miter;stroke:rgb(0%,0%,0%);stroke-opacity:1;stroke-miterlimit:10;" d="M 932 75.601562 C 932 61.199219 908 61.199219 908 75.601562 C 908 90 932 92.398438 932 104.398438 C 932 92.398438 956 90 956 75.601562 C 956 61.199219 932 61.199219 932 75.601562 "/>
<path style="fill-rule:nonzero;fill:rgb(100%,0%,0%);fill-opacity:1;stroke-width:1;stroke-linecap:butt;stroke-linejoin:miter;stroke:rgb(0%,0%,0%);stroke-opacity:1;stroke-miterlimit:10;" d="M 269 263.601562 C 269 249.199219 245 249.199219 245 263.601562 C 245 278 269 280.398438 269 292.398438 C 269 280.398438 293 278 293 263.601562 C 293 249.199219 269 249.199219 269 263.601562 "/>
<path style="fill-rule:nonzero;fill:rgb(100%,0%,0%);fill-opacity:1;stroke-width:1;stroke-linecap:butt;stroke-linejoin:miter;stroke:rgb(0%,0%,0%);stroke-opacity:1;stroke-miterlimit:10;" d="M 289 352.601562 C 289 338.199219 265 338.199219 265 352.601562 C 265 367 289 369.398438 289 381.398438 C 289 369.398438 313 367 313 352.601562 C 313 338.199219 289 338.199219 289 352.601562 "/>
<path style="fill-rule:nonzero;fill:rgb(100%,0%,0%);fill-opacity:1;stroke-width:1;stroke-linecap:butt;stroke-linejoin:miter;stroke:rgb(0%,0%,0%);stroke-opacity:1;stroke-miterlimit:10;" d="M 157 176.601562 C 157 162.199219 133 162.199219 133 176.601562 C 133 191 157 193.398438 157 205.398438 C 157 193.398438 181 191 181 176.601562 C 181 162.199219 157 162.199219 157 176.601562 "/>
<path style="fill-rule:nonzero;fill:rgb(100%,0%,0%);fill-opacity:1;stroke-width:1;stroke-linecap:butt;stroke-linejoin:miter;stroke:rgb(0%,0%,0%);stroke-opacity:1;stroke-miterlimit:10;" d="M 91 357.601562 C 91 343.199219 67 343.199219 67 357.601562 C 67 372 91 374.398438 91 386.398438 C 91 374.398438 115 372 115 357.601562 C 115 343.199219 91 343.199219 91 357.601562 "/>
<path style="fill-rule:nonzero;fill:rgb(0%,0%,0%);fill-opacity:1;stroke-width:1;stroke-linecap:butt;stroke-linejoin:miter;stroke:rgb(0%,0%,0%);stroke-opacity:1;stroke-miterlimit:10;" d="M 812 279 L 792 279 L 792 289 L 812 289 L 812 309 L 822 309 L 822 289 L 842 289 L 842 279 L 822 279 L 822 259 L 812 259 L 812 279 "/>
<path style="fill-rule:nonzero;fill:rgb(0%,0%,0%);fill-opacity:1;stroke-width:1;stroke-linecap:butt;stroke-linejoin:miter;stroke:rgb(0%,0%,0%);stroke-opacity:1;stroke-miterlimit:10;" d="M 606 328 L 586 328 L 586 338 L 606 338 L 606 358 L 616 358 L 616 338 L 636 338 L 636 328 L 616 328 L 616 308 L 606 308 L 606 328 "/>
<path style="fill-rule:nonzero;fill:rgb(0%,0%,0%);fill-opacity:1;stroke-width:1;stroke-linecap:butt;stroke-linejoin:miter;stroke:rgb(0%,0%,0%);stroke-opacity:1;stroke-miterlimit:10;" d="M 564 145 L 544 145 L 544 155 L 564 155 L 564 175 L 574 175 L 574 155 L 594 155 L 594 145 L 574 145 L 574 125 L 564 125 L 564 145 "/>
<path style="fill-rule:nonzero;fill:rgb(0%,0%,0%);fill-opacity:1;stroke-width:1;stroke-linecap:butt;stroke-linejoin:miter;stroke:rgb(0%,0%,0%);stroke-opacity:1;stroke-miterlimit:10;" d="M 925 395 L 905 395 L 905 405 L 925 405 L 925 425 L 935 425 L 935 405 L 955 405 L 955 395 L 935 395 L 935 375 L 925 375 L 925 395 "/>
<path style="fill-rule:nonzero;fill:rgb(0%,0%,0%);fill-opacity:1;stroke-width:1;stroke-linecap:butt;stroke-linejoin:miter;stroke:rgb(0%,0%,0%);stroke-opacity:1;stroke-miterlimit:10;" d="M 355 125 L 335 125 L 335 135 L 355 135 L 355 155 L 365 155 L 365 135 L 385 135 L 385 125 L 365 125 L 365 105 L 355 105 L 355 125 "/>
<path style="fill-rule:nonzero;fill:rgb(0%,0%,0%);fill-opacity:1;stroke-width:1;stroke-linecap:butt;stroke-linejoin:miter;stroke:rgb(0%,0%,0%);stroke-opacity:1;stroke-miterlimit:10;" d="M 210 425 L 190 425 L 190 435 L 210 435 L 210 455 L 220 455 L 220 435 L 240 435 L 240 425 L 220 425 L 220 405 L 210 405 L 210 425 "/>
</g>
</svg>
