<?xml version="1.0" encoding="UTF-8"?>
<svg xmlns="http://www.w3.org/2000/svg" xmlns:xlink="http://www.w3.org/1999/xlink" width="1129pt" height="517pt" viewBox="0 0 1129 517" version="1.1">
<g id="surface711">
<rect x="0" y="0" width="1129" height="517" style="fill:rgb(90%,90%,90%);fill-opacity:1;stroke:none;"/>
<path style="fill-rule:nonzero;fill:rgb(55%,51%,53%);fill-opacity:1;stroke-width:1;stroke-linecap:butt;stroke-linejoin:miter;stroke:rgb(0%,0%,0%);stroke-opacity:1;stroke-miterlimit:10;" d="M 287.214844 178 C 287.214844 189.714844 277.714844 199.214844 266 199.214844 C 254.285156 199.214844 244.785156 189.714844 244.785156 178 C 244.785156 166.285156 254.285156 156.785156 266 156.785156 C 277.714844 156.785156 287.214844 166.285156 287.214844 178 "/>
<path style="fill-rule:nonzero;fill:rgb(55%,51%,53%);fill-opacity:1;stroke-width:1;stroke-linecap:butt;stroke-linejoin:miter;stroke:rgb(0%,0%,0%);stroke-opacity:1;stroke-miterlimit:10;" d="M 159.214844 333 C 159.214844 344.714844 149.714844 354.214844 138 354.214844 C 126.285156 354.214844 116.785156 344.714844 116.785156 333 C 116.785156 321.285156 126.285156 311.785156 138 311.785156 C 149.714844 311.785156 159.214844 321.285156 159.214844 333 "/>
<path style="fill-rule:nonzero;fill:rgb(55%,51%,53%);fill-opacity:1;stroke-width:1;stroke-linecap:butt;stroke-linejoin:miter;stroke:rgb(0%,0%,0%);stroke-opacity:1;stroke-miterlimit:10;" d="M 342.785156 169.785156 L 342.785156 212.214844 L 385.214844 212.214844 L 385.214844 169.785156 L 342.785156 169.785156 "/>
<path style="fill-rule:nonzero;fill:rgb(55%,51%,53%);fill-opacity:1;stroke-width:1;stroke-linecap:butt;stroke-linejoin:miter;stroke:rgb(0%,0%,0%);stroke-opacity:1;stroke-miterlimit:10;" d="M 99.214844 72 C 99.214844 83.714844 89.714844 93.214844 78 93.214844 C 66.285156 93.214844 56.785156 83.714844 56.785156 72 C 56.785156 60.285156 66.285156 50.785156 78 50.785156 C 89.714844 50.785156 99.214844 60.285156 99.214844 72 "/>
<path style="fill-rule:nonzero;fill:rgb(55%,51%,53%);fill-opacity:1;stroke-width:1;stroke-linecap:butt;stroke-linejoin:miter;stroke:rgb(0%,0%,0%);stroke-opacity:1;stroke-miterlimit:10;" d="M 316.214844 333 C 316.214844 344.714844 306.714844 354.214844 295 354.214844 C 283.285156 354.214844 273.785156 344.714844 273.785156 333 C 273.785156 321.285156 283.285156 311.785156 295 311.785156 C 306.714844 311.785156 316.214844 321.285156 316.214844 333 "/>
<path style="fill-rule:nonzero;fill:rgb(53%,27%,7%);fill-opacity:1;stroke-width:1;stroke-linecap:butt;stroke-linejoin:miter;stroke:rgb(0%,0%,0%);stroke-opacity:1;stroke-miterlimit:10;" d="M 606.785156 437.785156 L 606.785156 480.214844 L 649.214844 480.214844 L 649.214844 437.785156 L 606.785156 437.785156 "/>
<path style="fill-rule:nonzero;fill:rgb(53%,27%,7%);fill-opacity:1;stroke-width:1;stroke-linecap:butt;stroke-linejoin:miter;stroke:rgb(0%,0%,0%);stroke-opacity:1;stroke-miterlimit:10;" d="M 735.785156 268.785156 L 735.785156 311.214844 L 778.214844 311.214844 L 778.214844 268.785156 L 735.785156 268.785156 "/>
<path style="fill-rule:nonzero;fill:rgb(53%,27%,7%);fill-opacity:1;stroke-width:1;stroke-linecap:butt;stroke-linejoin:miter;stroke:rgb(0%,0%,0%);stroke-opacity:1;stroke-miterlimit:10;" d="M 688.214844 316 C 688.214844 327.714844 678.714844 337.214844 667 337.214844 C 655.285156 337.214844 645.785156 327.714844 645.785156 316 C 645.785156 304.285156 655.285156 294.785156 667 294.785156 C 678.714844 294.785156 688.214844 304.285156 688.214844 316 "/>
<path style="fill-rule:nonzero;fill:rgb(53%,27%,7%);fill-opacity:1;stroke-width:1;stroke-linecap:butt;stroke-linejoin:miter;stroke:rgb(0%,0%,0%);stroke-opacity:1;stroke-miterlimit:10;" d="M 594.785156 133.785156 L 594.785156 176.214844 L 637.214844 176.214844 L 637.214844 133.785156 L 594.785156 133.785156 "/>
</g>
</svg>
