<?xml version="1.0" encoding="UTF-8"?>
<svg xmlns="http://www.w3.org/2000/svg" xmlns:xlink="http://www.w3.org/1999/xlink" width="1129pt" height="517pt" viewBox="0 0 1129 517" version="1.1">
<g id="surface911">
<rect x="0" y="0" width="1129" height="517" style="fill:rgb(90%,90%,90%);fill-opacity:1;stroke:none;"/>
<path style="fill-rule:nonzero;fill:rgb(35%,70%,90%);fill-opacity:1;stroke-width:1;stroke-linecap:butt;stroke-linejoin:miter;stroke:rgb(0%,0%,0%);stroke-opacity:1;stroke-miterlimit:10;" d="M 196 450 L 225.664062 450 L 237.664062 421.785156 L 249.664062 450 L 279.332031 450 L 255.332031 467.4375 L 263.417969 498.980469 L 237.664062 481.542969 L 211.914062 498.980469 L 224.214844 467.4375 L 196 450 "/>
<path style="fill-rule:nonzero;fill:rgb(35%,70%,90%);fill-opacity:1;stroke-width:1;stroke-linecap:butt;stroke-linejoin:miter;stroke:rgb(0%,0%,0%);stroke-opacity:1;stroke-miterlimit:10;" d="M 761 415 L 790.664062 415 L 802.664062 386.785156 L 814.664062 415 L 844.332031 415 L 820.332031 432.4375 L 828.417969 463.980469 L 802.664062 446.542969 L 776.914062 463.980469 L 789.214844 432.4375 L 761 415 "/>
<path style="fill-rule:nonzero;fill:rgb(35%,70%,90%);fill-opacity:1;stroke-width:1;stroke-linecap:butt;stroke-linejoin:miter;stroke:rgb(0%,0%,0%);stroke-opacity:1;stroke-miterlimit:10;" d="M 890 349 L 919.664062 349 L 931.664062 320.785156 L 943.664062 349 L 973.332031 349 L 949.332031 366.4375 L 957.417969 397.980469 L 931.664062 380.542969 L 905.914062 397.980469 L 918.214844 366.4375 L 890 349 "/>
<path style="fill-rule:nonzero;fill:rgb(35%,70%,90%);fill-opacity:1;stroke-width:1;stroke-linecap:butt;stroke-linejoin:miter;stroke:rgb(0%,0%,0%);stroke-opacity:1;stroke-miterlimit:10;" d="M 249 349 L 278.664062 349 L 290.664062 320.785156 L 302.664062 349 L 332.332031 349 L 308.332031 366.4375 L 316.417969 397.980469 L 290.664062 380.542969 L 264.914062 397.980469 L 277.214844 366.4375 L 249 349 "/>
<path style="fill-rule:nonzero;fill:rgb(35%,70%,90%);fill-opacity:1;stroke-width:1;stroke-linecap:butt;stroke-linejoin:miter;stroke:rgb(0%,0%,0%);stroke-opacity:1;stroke-miterlimit:10;" d="M 479 346 L 508.664062 346 L 520.664062 317.785156 L 532.664062 346 L 562.332031 346 L 538.332031 363.4375 L 546.417969 394.980469 L 520.664062 377.542969 L 494.914062 394.980469 L 507.214844 363.4375 L 479 346 "/>
<path style="fill-rule:nonzero;fill:rgb(35%,70%,90%);fill-opacity:1;stroke-width:1;stroke-linecap:butt;stroke-linejoin:miter;stroke:rgb(0%,0%,0%);stroke-opacity:1;stroke-miterlimit:10;" d="M 504 77 L 533.664062 77 L 545.664062 48.785156 L 557.664062 77 L 587.332031 77 L 563.332031 94.4375 L 571.417969 125.980469 L 545.664062 108.542969 L 519.914062 125.980469 L 532.214844 94.4375 L 504 77 "/>
<path style="fill-rule:nonzero;fill:rgb(55%,51%,53%);fill-opacity:1;stroke-width:1;stroke-linecap:butt;stroke-linejoin:miter;stroke:rgb(0%,0%,0%);stroke-opacity:1;stroke-miterlimit:10;" d="M 784.214844 217 C 784.214844 228.714844 774.714844 238.214844 763 238.214844 C 751.285156 238.214844 741.785156 228.714844 741.785156 217 C 741.785156 205.285156 751.285156 195.785156 763 195.785156 C 774.714844 195.785156 784.214844 205.285156 784.214844 217 "/>
<path style="fill-rule:nonzero;fill:rgb(55%,51%,53%);fill-opacity:1;stroke-width:1;stroke-linecap:butt;stroke-linejoin:miter;stroke:rgb(0%,0%,0%);stroke-opacity:1;stroke-miterlimit:10;" d="M 281.214844 228 C 281.214844 239.714844 271.714844 249.214844 260 249.214844 C 248.285156 249.214844 238.785156 239.714844 238.785156 228 C 238.785156 216.285156 248.285156 206.785156 260 206.785156 C 271.714844 206.785156 281.214844 216.285156 281.214844 228 "/>
<path style="fill-rule:nonzero;fill:rgb(55%,51%,53%);fill-opacity:1;stroke-width:1;stroke-linecap:butt;stroke-linejoin:miter;stroke:rgb(0%,0%,0%);stroke-opacity:1;stroke-miterlimit:10;" d="M 909.214844 202 C 909.214844 213.714844 899.714844 223.214844 888 223.214844 C 876.285156 223.214844 866.785156 213.714844 866.785156 202 C 866.785156 190.285156 876.285156 180.785156 888 180.785156 C 899.714844 180.785156 909.214844 190.285156 909.214844 202 "/>
<path style="fill-rule:nonzero;fill:rgb(55%,51%,53%);fill-opacity:1;stroke-width:1;stroke-linecap:butt;stroke-linejoin:miter;stroke:rgb(0%,0%,0%);stroke-opacity:1;stroke-miterlimit:10;" d="M 157.214844 125 C 157.214844 136.714844 147.714844 146.214844 136 146.214844 C 124.285156 146.214844 114.785156 136.714844 114.785156 125 C 114.785156 113.285156 124.285156 103.785156 136 103.785156 C 147.714844 103.785156 157.214844 113.285156 157.214844 125 "/>
<path style="fill-rule:nonzero;fill:rgb(55%,51%,53%);fill-opacity:1;stroke-width:1;stroke-linecap:butt;stroke-linejoin:miter;stroke:rgb(0%,0%,0%);stroke-opacity:1;stroke-miterlimit:10;" d="M 299.214844 112 C 299.214844 123.714844 289.714844 133.214844 278 133.214844 C 266.285156 133.214844 256.785156 123.714844 256.785156 112 C 256.785156 100.285156 266.285156 90.785156 278 90.785156 C 289.714844 90.785156 299.214844 100.285156 299.214844 112 "/>
<path style="fill-rule:nonzero;fill:rgb(55%,51%,53%);fill-opacity:1;stroke-width:1;stroke-linecap:butt;stroke-linejoin:miter;stroke:rgb(0%,0%,0%);stroke-opacity:1;stroke-miterlimit:10;" d="M 929.214844 113 C 929.214844 124.714844 919.714844 134.214844 908 134.214844 C 896.285156 134.214844 886.785156 124.714844 886.785156 113 C 886.785156 101.285156 896.285156 91.785156 908 91.785156 C 919.714844 91.785156 929.214844 101.285156 929.214844 113 "/>
<path style="fill-rule:nonzero;fill:rgb(55%,51%,53%);fill-opacity:1;stroke-width:1;stroke-linecap:butt;stroke-linejoin:miter;stroke:rgb(0%,0%,0%);stroke-opacity:1;stroke-miterlimit:10;" d="M 521.214844 455 C 521.214844 466.714844 511.714844 476.214844 500 476.214844 C 488.285156 476.214844 478.785156 466.714844 478.785156 455 C 478.785156 443.285156 488.285156 433.785156 500 433.785156 C 511.714844 433.785156 521.214844 443.285156 521.214844 455 "/>
<path style="fill-rule:nonzero;fill:rgb(55%,51%,53%);fill-opacity:1;stroke-width:1;stroke-linecap:butt;stroke-linejoin:miter;stroke:rgb(0%,0%,0%);stroke-opacity:1;stroke-miterlimit:10;" d="M 751.214844 123 C 751.214844 134.714844 741.714844 144.214844 730 144.214844 C 718.285156 144.214844 708.785156 134.714844 708.785156 123 C 708.785156 111.285156 718.285156 101.785156 730 101.785156 C 741.714844 101.785156 751.214844 111.285156 751.214844 123 "/>
</g>
</svg>
