<?xml version="1.0" encoding="UTF-8"?>
<svg xmlns="http://www.w3.org/2000/svg" xmlns:xlink="http://www.w3.org/1999/xlink" width="1129pt" height="517pt" viewBox="0 0 1129 517" version="1.1">
<g id="surface246">
<rect x="0" y="0" width="1129" height="517" style="fill:rgb(90%,90%,90%);fill-opacity:1;stroke:none;"/>
<path style="fill-rule:nonzero;fill:rgb(35%,70%,90%);fill-opacity:1;stroke-width:1;stroke-linecap:butt;stroke-linejoin:miter;stroke:rgb(0%,0%,0%);stroke-opacity:1;stroke-miterlimit:10;" d="M 723 266 L 752.664062 266 L 764.664062 237.785156 L 776.664062 266 L 806.332031 266 L 782.332031 283.4375 L 790.417969 314.980469 L 764.664062 297.542969 L 738.914062 314.980469 L 751.214844 283.4375 L 723 266 "/>
<path style="fill-rule:nonzero;fill:rgb(35%,70%,90%);fill-opacity:1;stroke-width:1;stroke-linecap:butt;stroke-linejoin:miter;stroke:rgb(0%,0%,0%);stroke-opacity:1;stroke-miterlimit:10;" d="M 347 374 L 376.664062 374 L 388.664062 345.785156 L 400.664062 374 L 430.332031 374 L 406.332031 391.4375 L 414.417969 422.980469 L 388.664062 405.542969 L 362.914062 422.980469 L 375.214844 391.4375 L 347 374 "/>
<path style="fill-rule:nonzero;fill:rgb(35%,70%,90%);fill-opacity:1;stroke-width:1;stroke-linecap:butt;stroke-linejoin:miter;stroke:rgb(0%,0%,0%);stroke-opacity:1;stroke-miterlimit:10;" d="M 626 230 L 655.664062 230 L 667.664062 201.785156 L 679.664062 230 L 709.332031 230 L 685.332031 247.4375 L 693.417969 278.980469 L 667.664062 261.542969 L 641.914062 278.980469 L 654.214844 247.4375 L 626 230 "/>
<path style="fill-rule:nonzero;fill:rgb(35%,70%,90%);fill-opacity:1;stroke-width:1;stroke-linecap:butt;stroke-linejoin:miter;stroke:rgb(0%,0%,0%);stroke-opacity:1;stroke-miterlimit:10;" d="M 932 454 L 961.664062 454 L 973.664062 425.785156 L 985.664062 454 L 1015.332031 454 L 991.332031 471.4375 L 999.417969 502.980469 L 973.664062 485.542969 L 947.914062 502.980469 L 960.214844 471.4375 L 932 454 "/>
<path style="fill-rule:nonzero;fill:rgb(35%,70%,90%);fill-opacity:1;stroke-width:1;stroke-linecap:butt;stroke-linejoin:miter;stroke:rgb(0%,0%,0%);stroke-opacity:1;stroke-miterlimit:10;" d="M 173 366 L 202.664062 366 L 214.664062 337.785156 L 226.664062 366 L 256.332031 366 L 232.332031 383.4375 L 240.417969 414.980469 L 214.664062 397.542969 L 188.914062 414.980469 L 201.214844 383.4375 L 173 366 "/>
<path style="fill-rule:nonzero;fill:rgb(35%,70%,90%);fill-opacity:1;stroke-width:1;stroke-linecap:butt;stroke-linejoin:miter;stroke:rgb(0%,0%,0%);stroke-opacity:1;stroke-miterlimit:10;" d="M 586 341 L 615.664062 341 L 627.664062 312.785156 L 639.664062 341 L 669.332031 341 L 645.332031 358.4375 L 653.417969 389.980469 L 627.664062 372.542969 L 601.914062 389.980469 L 614.214844 358.4375 L 586 341 "/>
<path style="fill-rule:nonzero;fill:rgb(35%,70%,90%);fill-opacity:1;stroke-width:1;stroke-linecap:butt;stroke-linejoin:miter;stroke:rgb(0%,0%,0%);stroke-opacity:1;stroke-miterlimit:10;" d="M 76 395 L 105.664062 395 L 117.664062 366.785156 L 129.664062 395 L 159.332031 395 L 135.332031 412.4375 L 143.417969 443.980469 L 117.664062 426.542969 L 91.914062 443.980469 L 104.214844 412.4375 L 76 395 "/>
<path style="fill-rule:nonzero;fill:rgb(55%,51%,53%);fill-opacity:1;stroke-width:1;stroke-linecap:butt;stroke-linejoin:miter;stroke:rgb(0%,0%,0%);stroke-opacity:1;stroke-miterlimit:10;" d="M 918 261 L 892.019531 306 L 943.980469 306 L 918 261 "/>
<path style="fill-rule:nonzero;fill:rgb(55%,51%,53%);fill-opacity:1;stroke-width:1;stroke-linecap:butt;stroke-linejoin:miter;stroke:rgb(0%,0%,0%);stroke-opacity:1;stroke-miterlimit:10;" d="M 115 264 L 89.019531 309 L 140.980469 309 L 115 264 "/>
<path style="fill-rule:nonzero;fill:rgb(55%,51%,53%);fill-opacity:1;stroke-width:1;stroke-linecap:butt;stroke-linejoin:miter;stroke:rgb(0%,0%,0%);stroke-opacity:1;stroke-miterlimit:10;" d="M 662 362 L 636.019531 407 L 687.980469 407 L 662 362 "/>
<path style="fill-rule:nonzero;fill:rgb(55%,51%,53%);fill-opacity:1;stroke-width:1;stroke-linecap:butt;stroke-linejoin:miter;stroke:rgb(0%,0%,0%);stroke-opacity:1;stroke-miterlimit:10;" d="M 245 132 L 219.019531 177 L 270.980469 177 L 245 132 "/>
<path style="fill-rule:nonzero;fill:rgb(55%,51%,53%);fill-opacity:1;stroke-width:1;stroke-linecap:butt;stroke-linejoin:miter;stroke:rgb(0%,0%,0%);stroke-opacity:1;stroke-miterlimit:10;" d="M 491 273 L 465.019531 318 L 516.980469 318 L 491 273 "/>
</g>
</svg>
