<?xml version="1.0" encoding="UTF-8"?>
<svg xmlns="http://www.w3.org/2000/svg" xmlns:xlink="http://www.w3.org/1999/xlink" width="1179pt" height="517pt" viewBox="0 0 1179 517" version="1.1">
<g id="surface406">
<rect x="0" y="0" width="1179" height="517" style="fill:rgb(90%,90%,90%);fill-opacity:1;stroke:none;"/>
<path style="fill-rule:nonzero;fill:rgb(35%,70%,90%);fill-opacity:1;stroke-width:1;stroke-linecap:butt;stroke-linejoin:miter;stroke:rgb(0%,0%,0%);stroke-opacity:1;stroke-miterlimit:10;" d="M 206.214844 247 C 206.214844 258.714844 196.714844 268.214844 185 268.214844 C 173.285156 268.214844 163.785156 258.714844 163.785156 247 C 163.785156 235.285156 173.285156 225.785156 185 225.785156 C 196.714844 225.785156 206.214844 235.285156 206.214844 247 "/>
<path style="fill-rule:nonzero;fill:rgb(35%,70%,90%);fill-opacity:1;stroke-width:1;stroke-linecap:butt;stroke-linejoin:miter;stroke:rgb(0%,0%,0%);stroke-opacity:1;stroke-miterlimit:10;" d="M 244 111 L 218.019531 156 L 269.980469 156 L 244 111 "/>
<path style="fill-rule:nonzero;fill:rgb(35%,70%,90%);fill-opacity:1;stroke-width:1;stroke-linecap:butt;stroke-linejoin:miter;stroke:rgb(0%,0%,0%);stroke-opacity:1;stroke-miterlimit:10;" d="M 433.214844 268 C 433.214844 279.714844 423.714844 289.214844 412 289.214844 C 400.285156 289.214844 390.785156 279.714844 390.785156 268 C 390.785156 256.285156 400.285156 246.785156 412 246.785156 C 423.714844 246.785156 433.214844 256.285156 433.214844 268 "/>
<path style="fill-rule:nonzero;fill:rgb(35%,70%,90%);fill-opacity:1;stroke-width:1;stroke-linecap:butt;stroke-linejoin:miter;stroke:rgb(0%,0%,0%);stroke-opacity:1;stroke-miterlimit:10;" d="M 392 133 L 366.019531 178 L 417.980469 178 L 392 133 "/>
<path style="fill-rule:nonzero;fill:rgb(53%,27%,7%);fill-opacity:1;stroke-width:1;stroke-linecap:butt;stroke-linejoin:miter;stroke:rgb(0%,0%,0%);stroke-opacity:1;stroke-miterlimit:10;" d="M 870 292 L 844.019531 337 L 895.980469 337 L 870 292 "/>
<path style="fill-rule:nonzero;fill:rgb(53%,27%,7%);fill-opacity:1;stroke-width:1;stroke-linecap:butt;stroke-linejoin:miter;stroke:rgb(0%,0%,0%);stroke-opacity:1;stroke-miterlimit:10;" d="M 774.214844 382 C 774.214844 393.714844 764.714844 403.214844 753 403.214844 C 741.285156 403.214844 731.785156 393.714844 731.785156 382 C 731.785156 370.285156 741.285156 360.785156 753 360.785156 C 764.714844 360.785156 774.214844 370.285156 774.214844 382 "/>
<path style="fill-rule:nonzero;fill:rgb(53%,27%,7%);fill-opacity:1;stroke-width:1;stroke-linecap:butt;stroke-linejoin:miter;stroke:rgb(0%,0%,0%);stroke-opacity:1;stroke-miterlimit:10;" d="M 933 161 L 907.019531 206 L 958.980469 206 L 933 161 "/>
<path style="fill-rule:nonzero;fill:rgb(53%,27%,7%);fill-opacity:1;stroke-width:1;stroke-linecap:butt;stroke-linejoin:miter;stroke:rgb(0%,0%,0%);stroke-opacity:1;stroke-miterlimit:10;" d="M 723.214844 183 C 723.214844 194.714844 713.714844 204.214844 702 204.214844 C 690.285156 204.214844 680.785156 194.714844 680.785156 183 C 680.785156 171.285156 690.285156 161.785156 702 161.785156 C 713.714844 161.785156 723.214844 171.285156 723.214844 183 "/>
</g>
</svg>
