<?xml version="1.0" encoding="UTF-8"?>
<svg xmlns="http://www.w3.org/2000/svg" xmlns:xlink="http://www.w3.org/1999/xlink" width="1129pt" height="517pt" viewBox="0 0 1129 517" version="1.1">
<g id="surface676">
<rect x="0" y="0" width="1129" height="517" style="fill:rgb(90%,90%,90%);fill-opacity:1;stroke:none;"/>
<path style="fill-rule:nonzero;fill:rgb(100%,51%,0%);fill-opacity:1;stroke-width:1;stroke-linecap:butt;stroke-linejoin:miter;stroke:rgb(0%,0%,0%);stroke-opacity:1;stroke-miterlimit:10;" d="M 150.214844 244 C 150.214844 255.714844 140.714844 265.214844 129 265.214844 C 117.285156 265.214844 107.785156 255.714844 107.785156 244 C 107.785156 232.285156 117.285156 222.785156 129 222.785156 C 140.714844 222.785156 150.214844 232.285156 150.214844 244 "/>
<path style="fill-rule:nonzero;fill:rgb(100%,51%,0%);fill-opacity:1;stroke-width:1;stroke-linecap:butt;stroke-linejoin:miter;stroke:rgb(0%,0%,0%);stroke-opacity:1;stroke-miterlimit:10;" d="M 248.214844 338 C 248.214844 349.714844 238.714844 359.214844 227 359.214844 C 215.285156 359.214844 205.785156 349.714844 205.785156 338 C 205.785156 326.285156 215.285156 316.785156 227 316.785156 C 238.714844 316.785156 248.214844 326.285156 248.214844 338 "/>
<path style="fill-rule:nonzero;fill:rgb(100%,51%,0%);fill-opacity:1;stroke-width:1;stroke-linecap:butt;stroke-linejoin:miter;stroke:rgb(0%,0%,0%);stroke-opacity:1;stroke-miterlimit:10;" d="M 341.214844 53 C 341.214844 64.714844 331.714844 74.214844 320 74.214844 C 308.285156 74.214844 298.785156 64.714844 298.785156 53 C 298.785156 41.285156 308.285156 31.785156 320 31.785156 C 331.714844 31.785156 341.214844 41.285156 341.214844 53 "/>
<path style="fill-rule:nonzero;fill:rgb(55%,51%,53%);fill-opacity:1;stroke-width:1;stroke-linecap:butt;stroke-linejoin:miter;stroke:rgb(0%,0%,0%);stroke-opacity:1;stroke-miterlimit:10;" d="M 266.214844 214 C 266.214844 225.714844 256.714844 235.214844 245 235.214844 C 233.285156 235.214844 223.785156 225.714844 223.785156 214 C 223.785156 202.285156 233.285156 192.785156 245 192.785156 C 256.714844 192.785156 266.214844 202.285156 266.214844 214 "/>
<path style="fill-rule:nonzero;fill:rgb(100%,51%,0%);fill-opacity:1;stroke-width:1;stroke-linecap:butt;stroke-linejoin:miter;stroke:rgb(0%,0%,0%);stroke-opacity:1;stroke-miterlimit:10;" d="M 209.214844 452 C 209.214844 463.714844 199.714844 473.214844 188 473.214844 C 176.285156 473.214844 166.785156 463.714844 166.785156 452 C 166.785156 440.285156 176.285156 430.785156 188 430.785156 C 199.714844 430.785156 209.214844 440.285156 209.214844 452 "/>
<path style="fill-rule:nonzero;fill:rgb(100%,51%,0%);fill-opacity:1;stroke-width:1;stroke-linecap:butt;stroke-linejoin:miter;stroke:rgb(0%,0%,0%);stroke-opacity:1;stroke-miterlimit:10;" d="M 434.214844 253 C 434.214844 264.714844 424.714844 274.214844 413 274.214844 C 401.285156 274.214844 391.785156 264.714844 391.785156 253 C 391.785156 241.285156 401.285156 231.785156 413 231.785156 C 424.714844 231.785156 434.214844 241.285156 434.214844 253 "/>
<path style="fill-rule:nonzero;fill:rgb(100%,51%,0%);fill-opacity:1;stroke-width:1;stroke-linecap:butt;stroke-linejoin:miter;stroke:rgb(0%,0%,0%);stroke-opacity:1;stroke-miterlimit:10;" d="M 85.214844 136 C 85.214844 147.714844 75.714844 157.214844 64 157.214844 C 52.285156 157.214844 42.785156 147.714844 42.785156 136 C 42.785156 124.285156 52.285156 114.785156 64 114.785156 C 75.714844 114.785156 85.214844 124.285156 85.214844 136 "/>
<path style="fill-rule:nonzero;fill:rgb(100%,51%,0%);fill-opacity:1;stroke-width:1;stroke-linecap:butt;stroke-linejoin:miter;stroke:rgb(0%,0%,0%);stroke-opacity:1;stroke-miterlimit:10;" d="M 475.214844 360 C 475.214844 371.714844 465.714844 381.214844 454 381.214844 C 442.285156 381.214844 432.785156 371.714844 432.785156 360 C 432.785156 348.285156 442.285156 338.785156 454 338.785156 C 465.714844 338.785156 475.214844 348.285156 475.214844 360 "/>
<path style="fill-rule:nonzero;fill:rgb(55%,51%,53%);fill-opacity:1;stroke-width:1;stroke-linecap:butt;stroke-linejoin:miter;stroke:rgb(0%,0%,0%);stroke-opacity:1;stroke-miterlimit:10;" d="M 673 67 L 647.019531 112 L 698.980469 112 L 673 67 "/>
<path style="fill-rule:nonzero;fill:rgb(55%,51%,53%);fill-opacity:1;stroke-width:1;stroke-linecap:butt;stroke-linejoin:miter;stroke:rgb(0%,0%,0%);stroke-opacity:1;stroke-miterlimit:10;" d="M 960 426 L 934.019531 471 L 985.980469 471 L 960 426 "/>
<path style="fill-rule:nonzero;fill:rgb(55%,51%,53%);fill-opacity:1;stroke-width:1;stroke-linecap:butt;stroke-linejoin:miter;stroke:rgb(0%,0%,0%);stroke-opacity:1;stroke-miterlimit:10;" d="M 997 115 L 971.019531 160 L 1022.980469 160 L 997 115 "/>
<path style="fill-rule:nonzero;fill:rgb(100%,51%,0%);fill-opacity:1;stroke-width:1;stroke-linecap:butt;stroke-linejoin:miter;stroke:rgb(0%,0%,0%);stroke-opacity:1;stroke-miterlimit:10;" d="M 756 387 L 730.019531 432 L 781.980469 432 L 756 387 "/>
<path style="fill-rule:nonzero;fill:rgb(55%,51%,53%);fill-opacity:1;stroke-width:1;stroke-linecap:butt;stroke-linejoin:miter;stroke:rgb(0%,0%,0%);stroke-opacity:1;stroke-miterlimit:10;" d="M 761 180 L 735.019531 225 L 786.980469 225 L 761 180 "/>
<path style="fill-rule:nonzero;fill:rgb(55%,51%,53%);fill-opacity:1;stroke-width:1;stroke-linecap:butt;stroke-linejoin:miter;stroke:rgb(0%,0%,0%);stroke-opacity:1;stroke-miterlimit:10;" d="M 768 89 L 742.019531 134 L 793.980469 134 L 768 89 "/>
<path style="fill-rule:nonzero;fill:rgb(55%,51%,53%);fill-opacity:1;stroke-width:1;stroke-linecap:butt;stroke-linejoin:miter;stroke:rgb(0%,0%,0%);stroke-opacity:1;stroke-miterlimit:10;" d="M 667 171 L 641.019531 216 L 692.980469 216 L 667 171 "/>
</g>
</svg>
