<?xml version="1.0" encoding="UTF-8"?>
<svg xmlns="http://www.w3.org/2000/svg" xmlns:xlink="http://www.w3.org/1999/xlink" width="1129pt" height="517pt" viewBox="0 0 1129 517" version="1.1">
<g id="surface451">
<rect x="0" y="0" width="1129" height="517" style="fill:rgb(90%,90%,90%);fill-opacity:1;stroke:none;"/>
<path style="fill-rule:nonzero;fill:rgb(100%,51%,0%);fill-opacity:1;stroke-width:1;stroke-linecap:butt;stroke-linejoin:miter;stroke:rgb(0%,0%,0%);stroke-opacity:1;stroke-miterlimit:10;" d="M 738 53 L 767.664062 53 L 779.664062 24.785156 L 791.664062 53 L 821.332031 53 L 797.332031 70.4375 L 805.417969 101.980469 L 779.664062 84.542969 L 753.914062 101.980469 L 766.214844 70.4375 L 738 53 "/>
<path style="fill-rule:nonzero;fill:rgb(100%,51%,0%);fill-opacity:1;stroke-width:1;stroke-linecap:butt;stroke-linejoin:miter;stroke:rgb(0%,0%,0%);stroke-opacity:1;stroke-miterlimit:10;" d="M 385 345 L 414.664062 345 L 426.664062 316.785156 L 438.664062 345 L 468.332031 345 L 444.332031 362.4375 L 452.417969 393.980469 L 426.664062 376.542969 L 400.914062 393.980469 L 413.214844 362.4375 L 385 345 "/>
<path style="fill-rule:nonzero;fill:rgb(100%,51%,0%);fill-opacity:1;stroke-width:1;stroke-linecap:butt;stroke-linejoin:miter;stroke:rgb(0%,0%,0%);stroke-opacity:1;stroke-miterlimit:10;" d="M 833 417 L 862.664062 417 L 874.664062 388.785156 L 886.664062 417 L 916.332031 417 L 892.332031 434.4375 L 900.417969 465.980469 L 874.664062 448.542969 L 848.914062 465.980469 L 861.214844 434.4375 L 833 417 "/>
<path style="fill-rule:nonzero;fill:rgb(100%,51%,0%);fill-opacity:1;stroke-width:1;stroke-linecap:butt;stroke-linejoin:miter;stroke:rgb(0%,0%,0%);stroke-opacity:1;stroke-miterlimit:10;" d="M 730 424 L 759.664062 424 L 771.664062 395.785156 L 783.664062 424 L 813.332031 424 L 789.332031 441.4375 L 797.417969 472.980469 L 771.664062 455.542969 L 745.914062 472.980469 L 758.214844 441.4375 L 730 424 "/>
<path style="fill-rule:nonzero;fill:rgb(100%,51%,0%);fill-opacity:1;stroke-width:1;stroke-linecap:butt;stroke-linejoin:miter;stroke:rgb(0%,0%,0%);stroke-opacity:1;stroke-miterlimit:10;" d="M 932 140 L 961.664062 140 L 973.664062 111.785156 L 985.664062 140 L 1015.332031 140 L 991.332031 157.4375 L 999.417969 188.980469 L 973.664062 171.542969 L 947.914062 188.980469 L 960.214844 157.4375 L 932 140 "/>
<path style="fill-rule:nonzero;fill:rgb(100%,51%,0%);fill-opacity:1;stroke-width:1;stroke-linecap:butt;stroke-linejoin:miter;stroke:rgb(0%,0%,0%);stroke-opacity:1;stroke-miterlimit:10;" d="M 747 208 L 776.664062 208 L 788.664062 179.785156 L 800.664062 208 L 830.332031 208 L 806.332031 225.4375 L 814.417969 256.980469 L 788.664062 239.542969 L 762.914062 256.980469 L 775.214844 225.4375 L 747 208 "/>
<path style="fill-rule:nonzero;fill:rgb(100%,51%,0%);fill-opacity:1;stroke-width:1;stroke-linecap:butt;stroke-linejoin:miter;stroke:rgb(0%,0%,0%);stroke-opacity:1;stroke-miterlimit:10;" d="M 163 254 L 192.664062 254 L 204.664062 225.785156 L 216.664062 254 L 246.332031 254 L 222.332031 271.4375 L 230.417969 302.980469 L 204.664062 285.542969 L 178.914062 302.980469 L 191.214844 271.4375 L 163 254 "/>
<path style="fill-rule:nonzero;fill:rgb(100%,51%,0%);fill-opacity:1;stroke-width:1;stroke-linecap:butt;stroke-linejoin:miter;stroke:rgb(0%,0%,0%);stroke-opacity:1;stroke-miterlimit:10;" d="M 562 397 L 591.664062 397 L 603.664062 368.785156 L 615.664062 397 L 645.332031 397 L 621.332031 414.4375 L 629.417969 445.980469 L 603.664062 428.542969 L 577.914062 445.980469 L 590.214844 414.4375 L 562 397 "/>
<path style="fill-rule:nonzero;fill:rgb(53%,27%,7%);fill-opacity:1;stroke-width:1;stroke-linecap:butt;stroke-linejoin:miter;stroke:rgb(0%,0%,0%);stroke-opacity:1;stroke-miterlimit:10;" d="M 86.214844 180 C 86.214844 191.714844 76.714844 201.214844 65 201.214844 C 53.285156 201.214844 43.785156 191.714844 43.785156 180 C 43.785156 168.285156 53.285156 158.785156 65 158.785156 C 76.714844 158.785156 86.214844 168.285156 86.214844 180 "/>
<path style="fill-rule:nonzero;fill:rgb(53%,27%,7%);fill-opacity:1;stroke-width:1;stroke-linecap:butt;stroke-linejoin:miter;stroke:rgb(0%,0%,0%);stroke-opacity:1;stroke-miterlimit:10;" d="M 708.214844 288 C 708.214844 299.714844 698.714844 309.214844 687 309.214844 C 675.285156 309.214844 665.785156 299.714844 665.785156 288 C 665.785156 276.285156 675.285156 266.785156 687 266.785156 C 698.714844 266.785156 708.214844 276.285156 708.214844 288 "/>
<path style="fill-rule:nonzero;fill:rgb(53%,27%,7%);fill-opacity:1;stroke-width:1;stroke-linecap:butt;stroke-linejoin:miter;stroke:rgb(0%,0%,0%);stroke-opacity:1;stroke-miterlimit:10;" d="M 325.214844 170 C 325.214844 181.714844 315.714844 191.214844 304 191.214844 C 292.285156 191.214844 282.785156 181.714844 282.785156 170 C 282.785156 158.285156 292.285156 148.785156 304 148.785156 C 315.714844 148.785156 325.214844 158.285156 325.214844 170 "/>
<path style="fill-rule:nonzero;fill:rgb(53%,27%,7%);fill-opacity:1;stroke-width:1;stroke-linecap:butt;stroke-linejoin:miter;stroke:rgb(0%,0%,0%);stroke-opacity:1;stroke-miterlimit:10;" d="M 848.214844 114 C 848.214844 125.714844 838.714844 135.214844 827 135.214844 C 815.285156 135.214844 805.785156 125.714844 805.785156 114 C 805.785156 102.285156 815.285156 92.785156 827 92.785156 C 838.714844 92.785156 848.214844 102.285156 848.214844 114 "/>
</g>
</svg>
