<?xml version="1.0" encoding="UTF-8"?>
<svg xmlns="http://www.w3.org/2000/svg" xmlns:xlink="http://www.w3.org/1999/xlink" width="1179pt" height="517pt" viewBox="0 0 1179 517" version="1.1">
<g id="surface891">
<rect x="0" y="0" width="1179" height="517" style="fill:rgb(90%,90%,90%);fill-opacity:1;stroke:none;"/>
<path style="fill-rule:nonzero;fill:rgb(100%,0%,0%);fill-opacity:1;stroke-width:1;stroke-linecap:butt;stroke-linejoin:miter;stroke:rgb(0%,0%,0%);stroke-opacity:1;stroke-miterlimit:10;" d="M 188 292.601562 C 188 278.199219 164 278.199219 164 292.601562 C 164 307 188 309.398438 188 321.398438 C 188 309.398438 212 307 212 292.601562 C 212 278.199219 188 278.199219 188 292.601562 "/>
<path style="fill-rule:nonzero;fill:rgb(100%,0%,0%);fill-opacity:1;stroke-width:1;stroke-linecap:butt;stroke-linejoin:miter;stroke:rgb(0%,0%,0%);stroke-opacity:1;stroke-miterlimit:10;" d="M 88 136.601562 C 88 122.199219 64 122.199219 64 136.601562 C 64 151 88 153.398438 88 165.398438 C 88 153.398438 112 151 112 136.601562 C 112 122.199219 88 122.199219 88 136.601562 "/>
<path style="fill-rule:nonzero;fill:rgb(100%,0%,0%);fill-opacity:1;stroke-width:1;stroke-linecap:butt;stroke-linejoin:miter;stroke:rgb(0%,0%,0%);stroke-opacity:1;stroke-miterlimit:10;" d="M 151 205.601562 C 151 191.199219 127 191.199219 127 205.601562 C 127 220 151 222.398438 151 234.398438 C 151 222.398438 175 220 175 205.601562 C 175 191.199219 151 191.199219 151 205.601562 "/>
<path style="fill-rule:nonzero;fill:rgb(100%,0%,0%);fill-opacity:1;stroke-width:1;stroke-linecap:butt;stroke-linejoin:miter;stroke:rgb(0%,0%,0%);stroke-opacity:1;stroke-miterlimit:10;" d="M 225 417.601562 C 225 403.199219 201 403.199219 201 417.601562 C 201 432 225 434.398438 225 446.398438 C 225 434.398438 249 432 249 417.601562 C 249 403.199219 225 403.199219 225 417.601562 "/>
<path style="fill-rule:nonzero;fill:rgb(100%,0%,0%);fill-opacity:1;stroke-width:1;stroke-linecap:butt;stroke-linejoin:miter;stroke:rgb(0%,0%,0%);stroke-opacity:1;stroke-miterlimit:10;" d="M 91 338.601562 C 91 324.199219 67 324.199219 67 338.601562 C 67 353 91 355.398438 91 367.398438 C 91 355.398438 115 353 115 338.601562 C 115 324.199219 91 324.199219 91 338.601562 "/>
<path style="fill-rule:nonzero;fill:rgb(100%,0%,0%);fill-opacity:1;stroke-width:1;stroke-linecap:butt;stroke-linejoin:miter;stroke:rgb(0%,0%,0%);stroke-opacity:1;stroke-miterlimit:10;" d="M 998 133.601562 C 998 119.199219 974 119.199219 974 133.601562 C 974 148 998 150.398438 998 162.398438 C 998 150.398438 1022 148 1022 133.601562 C 1022 119.199219 998 119.199219 998 133.601562 "/>
<path style="fill-rule:nonzero;fill:rgb(100%,0%,0%);fill-opacity:1;stroke-width:1;stroke-linecap:butt;stroke-linejoin:miter;stroke:rgb(0%,0%,0%);stroke-opacity:1;stroke-miterlimit:10;" d="M 718 392.601562 C 718 378.199219 694 378.199219 694 392.601562 C 694 407 718 409.398438 718 421.398438 C 718 409.398438 742 407 742 392.601562 C 742 378.199219 718 378.199219 718 392.601562 "/>
<path style="fill-rule:nonzero;fill:rgb(100%,0%,0%);fill-opacity:1;stroke-width:1;stroke-linecap:butt;stroke-linejoin:miter;stroke:rgb(0%,0%,0%);stroke-opacity:1;stroke-miterlimit:10;" d="M 817 325.601562 C 817 311.199219 793 311.199219 793 325.601562 C 793 340 817 342.398438 817 354.398438 C 817 342.398438 841 340 841 325.601562 C 841 311.199219 817 311.199219 817 325.601562 "/>
<path style="fill-rule:nonzero;fill:rgb(100%,0%,0%);fill-opacity:1;stroke-width:1;stroke-linecap:butt;stroke-linejoin:miter;stroke:rgb(0%,0%,0%);stroke-opacity:1;stroke-miterlimit:10;" d="M 829 84.601562 C 829 70.199219 805 70.199219 805 84.601562 C 805 99 829 101.398438 829 113.398438 C 829 101.398438 853 99 853 84.601562 C 853 70.199219 829 70.199219 829 84.601562 "/>
<path style="fill-rule:nonzero;fill:rgb(100%,0%,0%);fill-opacity:1;stroke-width:1;stroke-linecap:butt;stroke-linejoin:miter;stroke:rgb(0%,0%,0%);stroke-opacity:1;stroke-miterlimit:10;" d="M 1001 414.601562 C 1001 400.199219 977 400.199219 977 414.601562 C 977 429 1001 431.398438 1001 443.398438 C 1001 431.398438 1025 429 1025 414.601562 C 1025 400.199219 1001 400.199219 1001 414.601562 "/>
<path style="fill-rule:nonzero;fill:rgb(0%,0%,0%);fill-opacity:1;stroke-width:1;stroke-linecap:butt;stroke-linejoin:miter;stroke:rgb(0%,0%,0%);stroke-opacity:1;stroke-miterlimit:10;" d="M 722 243 L 702 243 L 702 253 L 722 253 L 722 273 L 732 273 L 732 253 L 752 253 L 752 243 L 732 243 L 732 223 L 722 223 L 722 243 "/>
</g>
</svg>
