<?xml version="1.0" encoding="UTF-8"?>
<svg xmlns="http://www.w3.org/2000/svg" xmlns:xlink="http://www.w3.org/1999/xlink" width="1129pt" height="517pt" viewBox="0 0 1129 517" version="1.1">
<g id="surface681">
<rect x="0" y="0" width="1129" height="517" style="fill:rgb(90%,90%,90%);fill-opacity:1;stroke:none;"/>
<path style="fill-rule:nonzero;fill:rgb(100%,51%,0%);fill-opacity:1;stroke-width:1;stroke-linecap:butt;stroke-linejoin:miter;stroke:rgb(0%,0%,0%);stroke-opacity:1;stroke-miterlimit:10;" d="M 94.214844 258 C 94.214844 269.714844 84.714844 279.214844 73 279.214844 C 61.285156 279.214844 51.785156 269.714844 51.785156 258 C 51.785156 246.285156 61.285156 236.785156 73 236.785156 C 84.714844 236.785156 94.214844 246.285156 94.214844 258 "/>
<path style="fill-rule:nonzero;fill:rgb(100%,51%,0%);fill-opacity:1;stroke-width:1;stroke-linecap:butt;stroke-linejoin:miter;stroke:rgb(0%,0%,0%);stroke-opacity:1;stroke-miterlimit:10;" d="M 482.214844 132 C 482.214844 143.714844 472.714844 153.214844 461 153.214844 C 449.285156 153.214844 439.785156 143.714844 439.785156 132 C 439.785156 120.285156 449.285156 110.785156 461 110.785156 C 472.714844 110.785156 482.214844 120.285156 482.214844 132 "/>
<path style="fill-rule:nonzero;fill:rgb(100%,51%,0%);fill-opacity:1;stroke-width:1;stroke-linecap:butt;stroke-linejoin:miter;stroke:rgb(0%,0%,0%);stroke-opacity:1;stroke-miterlimit:10;" d="M 258.785156 392.785156 L 258.785156 435.214844 L 301.214844 435.214844 L 301.214844 392.785156 L 258.785156 392.785156 "/>
<path style="fill-rule:nonzero;fill:rgb(100%,51%,0%);fill-opacity:1;stroke-width:1;stroke-linecap:butt;stroke-linejoin:miter;stroke:rgb(0%,0%,0%);stroke-opacity:1;stroke-miterlimit:10;" d="M 156.785156 132.785156 L 156.785156 175.214844 L 199.214844 175.214844 L 199.214844 132.785156 L 156.785156 132.785156 "/>
<path style="fill-rule:nonzero;fill:rgb(100%,51%,0%);fill-opacity:1;stroke-width:1;stroke-linecap:butt;stroke-linejoin:miter;stroke:rgb(0%,0%,0%);stroke-opacity:1;stroke-miterlimit:10;" d="M 416.214844 355 C 416.214844 366.714844 406.714844 376.214844 395 376.214844 C 383.285156 376.214844 373.785156 366.714844 373.785156 355 C 373.785156 343.285156 383.285156 333.785156 395 333.785156 C 406.714844 333.785156 416.214844 343.285156 416.214844 355 "/>
<path style="fill-rule:nonzero;fill:rgb(55%,51%,53%);fill-opacity:1;stroke-width:1;stroke-linecap:butt;stroke-linejoin:miter;stroke:rgb(0%,0%,0%);stroke-opacity:1;stroke-miterlimit:10;" d="M 927.785156 428.785156 L 927.785156 471.214844 L 970.214844 471.214844 L 970.214844 428.785156 L 927.785156 428.785156 "/>
<path style="fill-rule:nonzero;fill:rgb(55%,51%,53%);fill-opacity:1;stroke-width:1;stroke-linecap:butt;stroke-linejoin:miter;stroke:rgb(0%,0%,0%);stroke-opacity:1;stroke-miterlimit:10;" d="M 692.785156 395.785156 L 692.785156 438.214844 L 735.214844 438.214844 L 735.214844 395.785156 L 692.785156 395.785156 "/>
<path style="fill-rule:nonzero;fill:rgb(55%,51%,53%);fill-opacity:1;stroke-width:1;stroke-linecap:butt;stroke-linejoin:miter;stroke:rgb(0%,0%,0%);stroke-opacity:1;stroke-miterlimit:10;" d="M 933.214844 220 C 933.214844 231.714844 923.714844 241.214844 912 241.214844 C 900.285156 241.214844 890.785156 231.714844 890.785156 220 C 890.785156 208.285156 900.285156 198.785156 912 198.785156 C 923.714844 198.785156 933.214844 208.285156 933.214844 220 "/>
<path style="fill-rule:nonzero;fill:rgb(55%,51%,53%);fill-opacity:1;stroke-width:1;stroke-linecap:butt;stroke-linejoin:miter;stroke:rgb(0%,0%,0%);stroke-opacity:1;stroke-miterlimit:10;" d="M 793.214844 208 C 793.214844 219.714844 783.714844 229.214844 772 229.214844 C 760.285156 229.214844 750.785156 219.714844 750.785156 208 C 750.785156 196.285156 760.285156 186.785156 772 186.785156 C 783.714844 186.785156 793.214844 196.285156 793.214844 208 "/>
<path style="fill-rule:nonzero;fill:rgb(55%,51%,53%);fill-opacity:1;stroke-width:1;stroke-linecap:butt;stroke-linejoin:miter;stroke:rgb(0%,0%,0%);stroke-opacity:1;stroke-miterlimit:10;" d="M 594.785156 136.785156 L 594.785156 179.214844 L 637.214844 179.214844 L 637.214844 136.785156 L 594.785156 136.785156 "/>
<path style="fill-rule:nonzero;fill:rgb(55%,51%,53%);fill-opacity:1;stroke-width:1;stroke-linecap:butt;stroke-linejoin:miter;stroke:rgb(0%,0%,0%);stroke-opacity:1;stroke-miterlimit:10;" d="M 956.785156 319.785156 L 956.785156 362.214844 L 999.214844 362.214844 L 999.214844 319.785156 L 956.785156 319.785156 "/>
</g>
</svg>
