<?xml version="1.0" encoding="UTF-8"?>
<svg xmlns="http://www.w3.org/2000/svg" xmlns:xlink="http://www.w3.org/1999/xlink" width="1129pt" height="517pt" viewBox="0 0 1129 517" version="1.1">
<g id="surface301">
<rect x="0" y="0" width="1129" height="517" style="fill:rgb(90%,90%,90%);fill-opacity:1;stroke:none;"/>
<path style="fill-rule:nonzero;fill:rgb(100%,51%,0%);fill-opacity:1;stroke-width:1;stroke-linecap:butt;stroke-linejoin:miter;stroke:rgb(0%,0%,0%);stroke-opacity:1;stroke-miterlimit:10;" d="M 652 350 L 681.664062 350 L 693.664062 321.785156 L 705.664062 350 L 735.332031 350 L 711.332031 367.4375 L 719.417969 398.980469 L 693.664062 381.542969 L 667.914062 398.980469 L 680.214844 367.4375 L 652 350 "/>
<path style="fill-rule:nonzero;fill:rgb(100%,51%,0%);fill-opacity:1;stroke-width:1;stroke-linecap:butt;stroke-linejoin:miter;stroke:rgb(0%,0%,0%);stroke-opacity:1;stroke-miterlimit:10;" d="M 747 309 L 776.664062 309 L 788.664062 280.785156 L 800.664062 309 L 830.332031 309 L 806.332031 326.4375 L 814.417969 357.980469 L 788.664062 340.542969 L 762.914062 357.980469 L 775.214844 326.4375 L 747 309 "/>
<path style="fill-rule:nonzero;fill:rgb(100%,51%,0%);fill-opacity:1;stroke-width:1;stroke-linecap:butt;stroke-linejoin:miter;stroke:rgb(0%,0%,0%);stroke-opacity:1;stroke-miterlimit:10;" d="M 508 192 L 537.664062 192 L 549.664062 163.785156 L 561.664062 192 L 591.332031 192 L 567.332031 209.4375 L 575.417969 240.980469 L 549.664062 223.542969 L 523.914062 240.980469 L 536.214844 209.4375 L 508 192 "/>
<path style="fill-rule:nonzero;fill:rgb(100%,51%,0%);fill-opacity:1;stroke-width:1;stroke-linecap:butt;stroke-linejoin:miter;stroke:rgb(0%,0%,0%);stroke-opacity:1;stroke-miterlimit:10;" d="M 186 459 L 215.664062 459 L 227.664062 430.785156 L 239.664062 459 L 269.332031 459 L 245.332031 476.4375 L 253.417969 507.980469 L 227.664062 490.542969 L 201.914062 507.980469 L 214.214844 476.4375 L 186 459 "/>
<path style="fill-rule:nonzero;fill:rgb(100%,51%,0%);fill-opacity:1;stroke-width:1;stroke-linecap:butt;stroke-linejoin:miter;stroke:rgb(0%,0%,0%);stroke-opacity:1;stroke-miterlimit:10;" d="M 549 313 L 578.664062 313 L 590.664062 284.785156 L 602.664062 313 L 632.332031 313 L 608.332031 330.4375 L 616.417969 361.980469 L 590.664062 344.542969 L 564.914062 361.980469 L 577.214844 330.4375 L 549 313 "/>
<path style="fill-rule:nonzero;fill:rgb(55%,51%,53%);fill-opacity:1;stroke-width:1;stroke-linecap:butt;stroke-linejoin:miter;stroke:rgb(0%,0%,0%);stroke-opacity:1;stroke-miterlimit:10;" d="M 947.214844 148 C 947.214844 159.714844 937.714844 169.214844 926 169.214844 C 914.285156 169.214844 904.785156 159.714844 904.785156 148 C 904.785156 136.285156 914.285156 126.785156 926 126.785156 C 937.714844 126.785156 947.214844 136.285156 947.214844 148 "/>
<path style="fill-rule:nonzero;fill:rgb(55%,51%,53%);fill-opacity:1;stroke-width:1;stroke-linecap:butt;stroke-linejoin:miter;stroke:rgb(0%,0%,0%);stroke-opacity:1;stroke-miterlimit:10;" d="M 430.214844 437 C 430.214844 448.714844 420.714844 458.214844 409 458.214844 C 397.285156 458.214844 387.785156 448.714844 387.785156 437 C 387.785156 425.285156 397.285156 415.785156 409 415.785156 C 420.714844 415.785156 430.214844 425.285156 430.214844 437 "/>
<path style="fill-rule:nonzero;fill:rgb(55%,51%,53%);fill-opacity:1;stroke-width:1;stroke-linecap:butt;stroke-linejoin:miter;stroke:rgb(0%,0%,0%);stroke-opacity:1;stroke-miterlimit:10;" d="M 102.214844 373 C 102.214844 384.714844 92.714844 394.214844 81 394.214844 C 69.285156 394.214844 59.785156 384.714844 59.785156 373 C 59.785156 361.285156 69.285156 351.785156 81 351.785156 C 92.714844 351.785156 102.214844 361.285156 102.214844 373 "/>
<path style="fill-rule:nonzero;fill:rgb(55%,51%,53%);fill-opacity:1;stroke-width:1;stroke-linecap:butt;stroke-linejoin:miter;stroke:rgb(0%,0%,0%);stroke-opacity:1;stroke-miterlimit:10;" d="M 382.214844 330 C 382.214844 341.714844 372.714844 351.214844 361 351.214844 C 349.285156 351.214844 339.785156 341.714844 339.785156 330 C 339.785156 318.285156 349.285156 308.785156 361 308.785156 C 372.714844 308.785156 382.214844 318.285156 382.214844 330 "/>
<path style="fill-rule:nonzero;fill:rgb(55%,51%,53%);fill-opacity:1;stroke-width:1;stroke-linecap:butt;stroke-linejoin:miter;stroke:rgb(0%,0%,0%);stroke-opacity:1;stroke-miterlimit:10;" d="M 899.214844 398 C 899.214844 409.714844 889.714844 419.214844 878 419.214844 C 866.285156 419.214844 856.785156 409.714844 856.785156 398 C 856.785156 386.285156 866.285156 376.785156 878 376.785156 C 889.714844 376.785156 899.214844 386.285156 899.214844 398 "/>
</g>
</svg>
