<?xml version="1.0" encoding="UTF-8"?>
<svg xmlns="http://www.w3.org/2000/svg" xmlns:xlink="http://www.w3.org/1999/xlink" width="1129pt" height="517pt" viewBox="0 0 1129 517" version="1.1">
<g id="surface651">
<rect x="0" y="0" width="1129" height="517" style="fill:rgb(90%,90%,90%);fill-opacity:1;stroke:none;"/>
<path style="fill-rule:nonzero;fill:rgb(100%,51%,0%);fill-opacity:1;stroke-width:1;stroke-linecap:butt;stroke-linejoin:miter;stroke:rgb(0%,0%,0%);stroke-opacity:1;stroke-miterlimit:10;" d="M 319.214844 381 C 319.214844 392.714844 309.714844 402.214844 298 402.214844 C 286.285156 402.214844 276.785156 392.714844 276.785156 381 C 276.785156 369.285156 286.285156 359.785156 298 359.785156 C 309.714844 359.785156 319.214844 369.285156 319.214844 381 "/>
<path style="fill-rule:nonzero;fill:rgb(100%,51%,0%);fill-opacity:1;stroke-width:1;stroke-linecap:butt;stroke-linejoin:miter;stroke:rgb(0%,0%,0%);stroke-opacity:1;stroke-miterlimit:10;" d="M 226.214844 333 C 226.214844 344.714844 216.714844 354.214844 205 354.214844 C 193.285156 354.214844 183.785156 344.714844 183.785156 333 C 183.785156 321.285156 193.285156 311.785156 205 311.785156 C 216.714844 311.785156 226.214844 321.285156 226.214844 333 "/>
<path style="fill-rule:nonzero;fill:rgb(100%,51%,0%);fill-opacity:1;stroke-width:1;stroke-linecap:butt;stroke-linejoin:miter;stroke:rgb(0%,0%,0%);stroke-opacity:1;stroke-miterlimit:10;" d="M 112.214844 148 C 112.214844 159.714844 102.714844 169.214844 91 169.214844 C 79.285156 169.214844 69.785156 159.714844 69.785156 148 C 69.785156 136.285156 79.285156 126.785156 91 126.785156 C 102.714844 126.785156 112.214844 136.285156 112.214844 148 "/>
<path style="fill-rule:nonzero;fill:rgb(100%,51%,0%);fill-opacity:1;stroke-width:1;stroke-linecap:butt;stroke-linejoin:miter;stroke:rgb(0%,0%,0%);stroke-opacity:1;stroke-miterlimit:10;" d="M 258.785156 255.785156 L 258.785156 298.214844 L 301.214844 298.214844 L 301.214844 255.785156 L 258.785156 255.785156 "/>
<path style="fill-rule:nonzero;fill:rgb(100%,51%,0%);fill-opacity:1;stroke-width:1;stroke-linecap:butt;stroke-linejoin:miter;stroke:rgb(0%,0%,0%);stroke-opacity:1;stroke-miterlimit:10;" d="M 437.214844 348 C 437.214844 359.714844 427.714844 369.214844 416 369.214844 C 404.285156 369.214844 394.785156 359.714844 394.785156 348 C 394.785156 336.285156 404.285156 326.785156 416 326.785156 C 427.714844 326.785156 437.214844 336.285156 437.214844 348 "/>
<path style="fill-rule:nonzero;fill:rgb(100%,51%,0%);fill-opacity:1;stroke-width:1;stroke-linecap:butt;stroke-linejoin:miter;stroke:rgb(0%,0%,0%);stroke-opacity:1;stroke-miterlimit:10;" d="M 294.214844 93 C 294.214844 104.714844 284.714844 114.214844 273 114.214844 C 261.285156 114.214844 251.785156 104.714844 251.785156 93 C 251.785156 81.285156 261.285156 71.785156 273 71.785156 C 284.714844 71.785156 294.214844 81.285156 294.214844 93 "/>
<path style="fill-rule:nonzero;fill:rgb(100%,51%,0%);fill-opacity:1;stroke-width:1;stroke-linecap:butt;stroke-linejoin:miter;stroke:rgb(0%,0%,0%);stroke-opacity:1;stroke-miterlimit:10;" d="M 375.214844 189 C 375.214844 200.714844 365.714844 210.214844 354 210.214844 C 342.285156 210.214844 332.785156 200.714844 332.785156 189 C 332.785156 177.285156 342.285156 167.785156 354 167.785156 C 365.714844 167.785156 375.214844 177.285156 375.214844 189 "/>
<path style="fill-rule:nonzero;fill:rgb(53%,27%,7%);fill-opacity:1;stroke-width:1;stroke-linecap:butt;stroke-linejoin:miter;stroke:rgb(0%,0%,0%);stroke-opacity:1;stroke-miterlimit:10;" d="M 744.785156 342.785156 L 744.785156 385.214844 L 787.214844 385.214844 L 787.214844 342.785156 L 744.785156 342.785156 "/>
<path style="fill-rule:nonzero;fill:rgb(53%,27%,7%);fill-opacity:1;stroke-width:1;stroke-linecap:butt;stroke-linejoin:miter;stroke:rgb(0%,0%,0%);stroke-opacity:1;stroke-miterlimit:10;" d="M 773.785156 196.785156 L 773.785156 239.214844 L 816.214844 239.214844 L 816.214844 196.785156 L 773.785156 196.785156 "/>
<path style="fill-rule:nonzero;fill:rgb(53%,27%,7%);fill-opacity:1;stroke-width:1;stroke-linecap:butt;stroke-linejoin:miter;stroke:rgb(0%,0%,0%);stroke-opacity:1;stroke-miterlimit:10;" d="M 967.785156 329.785156 L 967.785156 372.214844 L 1010.214844 372.214844 L 1010.214844 329.785156 L 967.785156 329.785156 "/>
<path style="fill-rule:nonzero;fill:rgb(53%,27%,7%);fill-opacity:1;stroke-width:1;stroke-linecap:butt;stroke-linejoin:miter;stroke:rgb(0%,0%,0%);stroke-opacity:1;stroke-miterlimit:10;" d="M 914.214844 397 C 914.214844 408.714844 904.714844 418.214844 893 418.214844 C 881.285156 418.214844 871.785156 408.714844 871.785156 397 C 871.785156 385.285156 881.285156 375.785156 893 375.785156 C 904.714844 375.785156 914.214844 385.285156 914.214844 397 "/>
<path style="fill-rule:nonzero;fill:rgb(53%,27%,7%);fill-opacity:1;stroke-width:1;stroke-linecap:butt;stroke-linejoin:miter;stroke:rgb(0%,0%,0%);stroke-opacity:1;stroke-miterlimit:10;" d="M 944.785156 52.785156 L 944.785156 95.214844 L 987.214844 95.214844 L 987.214844 52.785156 L 944.785156 52.785156 "/>
</g>
</svg>
