<?xml version="1.0" encoding="UTF-8"?>
<svg xmlns="http://www.w3.org/2000/svg" xmlns:xlink="http://www.w3.org/1999/xlink" width="1129pt" height="517pt" viewBox="0 0 1129 517" version="1.1">
<g id="surface911">
<rect x="0" y="0" width="1129" height="517" style="fill:rgb(90%,90%,90%);fill-opacity:1;stroke:none;"/>
<path style="fill-rule:nonzero;fill:rgb(35%,70%,90%);fill-opacity:1;stroke-width:1;stroke-linecap:butt;stroke-linejoin:miter;stroke:rgb(0%,0%,0%);stroke-opacity:1;stroke-miterlimit:10;" d="M 79 234 L 108.664062 234 L 120.664062 205.785156 L 132.664062 234 L 162.332031 234 L 138.332031 251.4375 L 146.417969 282.980469 L 120.664062 265.542969 L 94.914062 282.980469 L 107.214844 251.4375 L 79 234 "/>
<path style="fill-rule:nonzero;fill:rgb(35%,70%,90%);fill-opacity:1;stroke-width:1;stroke-linecap:butt;stroke-linejoin:miter;stroke:rgb(0%,0%,0%);stroke-opacity:1;stroke-miterlimit:10;" d="M 304 180 L 333.664062 180 L 345.664062 151.785156 L 357.664062 180 L 387.332031 180 L 363.332031 197.4375 L 371.417969 228.980469 L 345.664062 211.542969 L 319.914062 228.980469 L 332.214844 197.4375 L 304 180 "/>
<path style="fill-rule:nonzero;fill:rgb(35%,70%,90%);fill-opacity:1;stroke-width:1;stroke-linecap:butt;stroke-linejoin:miter;stroke:rgb(0%,0%,0%);stroke-opacity:1;stroke-miterlimit:10;" d="M 315 387 L 344.664062 387 L 356.664062 358.785156 L 368.664062 387 L 398.332031 387 L 374.332031 404.4375 L 382.417969 435.980469 L 356.664062 418.542969 L 330.914062 435.980469 L 343.214844 404.4375 L 315 387 "/>
<path style="fill-rule:nonzero;fill:rgb(35%,70%,90%);fill-opacity:1;stroke-width:1;stroke-linecap:butt;stroke-linejoin:miter;stroke:rgb(0%,0%,0%);stroke-opacity:1;stroke-miterlimit:10;" d="M 398 308 L 427.664062 308 L 439.664062 279.785156 L 451.664062 308 L 481.332031 308 L 457.332031 325.4375 L 465.417969 356.980469 L 439.664062 339.542969 L 413.914062 356.980469 L 426.214844 325.4375 L 398 308 "/>
<path style="fill-rule:nonzero;fill:rgb(35%,70%,90%);fill-opacity:1;stroke-width:1;stroke-linecap:butt;stroke-linejoin:miter;stroke:rgb(0%,0%,0%);stroke-opacity:1;stroke-miterlimit:10;" d="M 706 442 L 735.664062 442 L 747.664062 413.785156 L 759.664062 442 L 789.332031 442 L 765.332031 459.4375 L 773.417969 490.980469 L 747.664062 473.542969 L 721.914062 490.980469 L 734.214844 459.4375 L 706 442 "/>
<path style="fill-rule:nonzero;fill:rgb(35%,70%,90%);fill-opacity:1;stroke-width:1;stroke-linecap:butt;stroke-linejoin:miter;stroke:rgb(0%,0%,0%);stroke-opacity:1;stroke-miterlimit:10;" d="M 498 144 L 527.664062 144 L 539.664062 115.785156 L 551.664062 144 L 581.332031 144 L 557.332031 161.4375 L 565.417969 192.980469 L 539.664062 175.542969 L 513.914062 192.980469 L 526.214844 161.4375 L 498 144 "/>
<path style="fill-rule:nonzero;fill:rgb(55%,51%,53%);fill-opacity:1;stroke-width:1;stroke-linecap:butt;stroke-linejoin:miter;stroke:rgb(0%,0%,0%);stroke-opacity:1;stroke-miterlimit:10;" d="M 923.214844 398 C 923.214844 409.714844 913.714844 419.214844 902 419.214844 C 890.285156 419.214844 880.785156 409.714844 880.785156 398 C 880.785156 386.285156 890.285156 376.785156 902 376.785156 C 913.714844 376.785156 923.214844 386.285156 923.214844 398 "/>
<path style="fill-rule:nonzero;fill:rgb(55%,51%,53%);fill-opacity:1;stroke-width:1;stroke-linecap:butt;stroke-linejoin:miter;stroke:rgb(0%,0%,0%);stroke-opacity:1;stroke-miterlimit:10;" d="M 239.214844 423 C 239.214844 434.714844 229.714844 444.214844 218 444.214844 C 206.285156 444.214844 196.785156 434.714844 196.785156 423 C 196.785156 411.285156 206.285156 401.785156 218 401.785156 C 229.714844 401.785156 239.214844 411.285156 239.214844 423 "/>
<path style="fill-rule:nonzero;fill:rgb(55%,51%,53%);fill-opacity:1;stroke-width:1;stroke-linecap:butt;stroke-linejoin:miter;stroke:rgb(0%,0%,0%);stroke-opacity:1;stroke-miterlimit:10;" d="M 529.214844 436 C 529.214844 447.714844 519.714844 457.214844 508 457.214844 C 496.285156 457.214844 486.785156 447.714844 486.785156 436 C 486.785156 424.285156 496.285156 414.785156 508 414.785156 C 519.714844 414.785156 529.214844 424.285156 529.214844 436 "/>
<path style="fill-rule:nonzero;fill:rgb(55%,51%,53%);fill-opacity:1;stroke-width:1;stroke-linecap:butt;stroke-linejoin:miter;stroke:rgb(0%,0%,0%);stroke-opacity:1;stroke-miterlimit:10;" d="M 705.214844 146 C 705.214844 157.714844 695.714844 167.214844 684 167.214844 C 672.285156 167.214844 662.785156 157.714844 662.785156 146 C 662.785156 134.285156 672.285156 124.785156 684 124.785156 C 695.714844 124.785156 705.214844 134.285156 705.214844 146 "/>
<path style="fill-rule:nonzero;fill:rgb(55%,51%,53%);fill-opacity:1;stroke-width:1;stroke-linecap:butt;stroke-linejoin:miter;stroke:rgb(0%,0%,0%);stroke-opacity:1;stroke-miterlimit:10;" d="M 849.214844 226 C 849.214844 237.714844 839.714844 247.214844 828 247.214844 C 816.285156 247.214844 806.785156 237.714844 806.785156 226 C 806.785156 214.285156 816.285156 204.785156 828 204.785156 C 839.714844 204.785156 849.214844 214.285156 849.214844 226 "/>
<path style="fill-rule:nonzero;fill:rgb(55%,51%,53%);fill-opacity:1;stroke-width:1;stroke-linecap:butt;stroke-linejoin:miter;stroke:rgb(0%,0%,0%);stroke-opacity:1;stroke-miterlimit:10;" d="M 430.214844 63 C 430.214844 74.714844 420.714844 84.214844 409 84.214844 C 397.285156 84.214844 387.785156 74.714844 387.785156 63 C 387.785156 51.285156 397.285156 41.785156 409 41.785156 C 420.714844 41.785156 430.214844 51.285156 430.214844 63 "/>
<path style="fill-rule:nonzero;fill:rgb(55%,51%,53%);fill-opacity:1;stroke-width:1;stroke-linecap:butt;stroke-linejoin:miter;stroke:rgb(0%,0%,0%);stroke-opacity:1;stroke-miterlimit:10;" d="M 103.214844 419 C 103.214844 430.714844 93.714844 440.214844 82 440.214844 C 70.285156 440.214844 60.785156 430.714844 60.785156 419 C 60.785156 407.285156 70.285156 397.785156 82 397.785156 C 93.714844 397.785156 103.214844 407.285156 103.214844 419 "/>
<path style="fill-rule:nonzero;fill:rgb(55%,51%,53%);fill-opacity:1;stroke-width:1;stroke-linecap:butt;stroke-linejoin:miter;stroke:rgb(0%,0%,0%);stroke-opacity:1;stroke-miterlimit:10;" d="M 148.214844 151 C 148.214844 162.714844 138.714844 172.214844 127 172.214844 C 115.285156 172.214844 105.785156 162.714844 105.785156 151 C 105.785156 139.285156 115.285156 129.785156 127 129.785156 C 138.714844 129.785156 148.214844 139.285156 148.214844 151 "/>
</g>
</svg>
