<?xml version="1.0" encoding="UTF-8"?>
<svg xmlns="http://www.w3.org/2000/svg" xmlns:xlink="http://www.w3.org/1999/xlink" width="1129pt" height="517pt" viewBox="0 0 1129 517" version="1.1">
<g id="surface106">
<rect x="0" y="0" width="1129" height="517" style="fill:rgb(90%,90%,90%);fill-opacity:1;stroke:none;"/>
<path style="fill-rule:nonzero;fill:rgb(100%,51%,0%);fill-opacity:1;stroke-width:1;stroke-linecap:butt;stroke-linejoin:miter;stroke:rgb(0%,0%,0%);stroke-opacity:1;stroke-miterlimit:10;" d="M 396.214844 254 C 396.214844 265.714844 386.714844 275.214844 375 275.214844 C 363.285156 275.214844 353.785156 265.714844 353.785156 254 C 353.785156 242.285156 363.285156 232.785156 375 232.785156 C 386.714844 232.785156 396.214844 242.285156 396.214844 254 "/>
<path style="fill-rule:nonzero;fill:rgb(100%,51%,0%);fill-opacity:1;stroke-width:1;stroke-linecap:butt;stroke-linejoin:miter;stroke:rgb(0%,0%,0%);stroke-opacity:1;stroke-miterlimit:10;" d="M 441.214844 334 C 441.214844 345.714844 431.714844 355.214844 420 355.214844 C 408.285156 355.214844 398.785156 345.714844 398.785156 334 C 398.785156 322.285156 408.285156 312.785156 420 312.785156 C 431.714844 312.785156 441.214844 322.285156 441.214844 334 "/>
<path style="fill-rule:nonzero;fill:rgb(100%,51%,0%);fill-opacity:1;stroke-width:1;stroke-linecap:butt;stroke-linejoin:miter;stroke:rgb(0%,0%,0%);stroke-opacity:1;stroke-miterlimit:10;" d="M 287 321 L 261.019531 366 L 312.980469 366 L 287 321 "/>
<path style="fill-rule:nonzero;fill:rgb(100%,51%,0%);fill-opacity:1;stroke-width:1;stroke-linecap:butt;stroke-linejoin:miter;stroke:rgb(0%,0%,0%);stroke-opacity:1;stroke-miterlimit:10;" d="M 212.214844 210 C 212.214844 221.714844 202.714844 231.214844 191 231.214844 C 179.285156 231.214844 169.785156 221.714844 169.785156 210 C 169.785156 198.285156 179.285156 188.785156 191 188.785156 C 202.714844 188.785156 212.214844 198.285156 212.214844 210 "/>
<path style="fill-rule:nonzero;fill:rgb(100%,51%,0%);fill-opacity:1;stroke-width:1;stroke-linecap:butt;stroke-linejoin:miter;stroke:rgb(0%,0%,0%);stroke-opacity:1;stroke-miterlimit:10;" d="M 215.214844 112 C 215.214844 123.714844 205.714844 133.214844 194 133.214844 C 182.285156 133.214844 172.785156 123.714844 172.785156 112 C 172.785156 100.285156 182.285156 90.785156 194 90.785156 C 205.714844 90.785156 215.214844 100.285156 215.214844 112 "/>
<path style="fill-rule:nonzero;fill:rgb(100%,51%,0%);fill-opacity:1;stroke-width:1;stroke-linecap:butt;stroke-linejoin:miter;stroke:rgb(0%,0%,0%);stroke-opacity:1;stroke-miterlimit:10;" d="M 227.214844 394 C 227.214844 405.714844 217.714844 415.214844 206 415.214844 C 194.285156 415.214844 184.785156 405.714844 184.785156 394 C 184.785156 382.285156 194.285156 372.785156 206 372.785156 C 217.714844 372.785156 227.214844 382.285156 227.214844 394 "/>
<path style="fill-rule:nonzero;fill:rgb(100%,51%,0%);fill-opacity:1;stroke-width:1;stroke-linecap:butt;stroke-linejoin:miter;stroke:rgb(0%,0%,0%);stroke-opacity:1;stroke-miterlimit:10;" d="M 78.214844 165 C 78.214844 176.714844 68.714844 186.214844 57 186.214844 C 45.285156 186.214844 35.785156 176.714844 35.785156 165 C 35.785156 153.285156 45.285156 143.785156 57 143.785156 C 68.714844 143.785156 78.214844 153.285156 78.214844 165 "/>
<path style="fill-rule:nonzero;fill:rgb(53%,27%,7%);fill-opacity:1;stroke-width:1;stroke-linecap:butt;stroke-linejoin:miter;stroke:rgb(0%,0%,0%);stroke-opacity:1;stroke-miterlimit:10;" d="M 924 164 L 898.019531 209 L 949.980469 209 L 924 164 "/>
<path style="fill-rule:nonzero;fill:rgb(53%,27%,7%);fill-opacity:1;stroke-width:1;stroke-linecap:butt;stroke-linejoin:miter;stroke:rgb(0%,0%,0%);stroke-opacity:1;stroke-miterlimit:10;" d="M 754 187 L 728.019531 232 L 779.980469 232 L 754 187 "/>
<path style="fill-rule:nonzero;fill:rgb(53%,27%,7%);fill-opacity:1;stroke-width:1;stroke-linecap:butt;stroke-linejoin:miter;stroke:rgb(0%,0%,0%);stroke-opacity:1;stroke-miterlimit:10;" d="M 683.214844 288 C 683.214844 299.714844 673.714844 309.214844 662 309.214844 C 650.285156 309.214844 640.785156 299.714844 640.785156 288 C 640.785156 276.285156 650.285156 266.785156 662 266.785156 C 673.714844 266.785156 683.214844 276.285156 683.214844 288 "/>
<path style="fill-rule:nonzero;fill:rgb(53%,27%,7%);fill-opacity:1;stroke-width:1;stroke-linecap:butt;stroke-linejoin:miter;stroke:rgb(0%,0%,0%);stroke-opacity:1;stroke-miterlimit:10;" d="M 661 366 L 635.019531 411 L 686.980469 411 L 661 366 "/>
<path style="fill-rule:nonzero;fill:rgb(53%,27%,7%);fill-opacity:1;stroke-width:1;stroke-linecap:butt;stroke-linejoin:miter;stroke:rgb(0%,0%,0%);stroke-opacity:1;stroke-miterlimit:10;" d="M 678 117 L 652.019531 162 L 703.980469 162 L 678 117 "/>
<path style="fill-rule:nonzero;fill:rgb(53%,27%,7%);fill-opacity:1;stroke-width:1;stroke-linecap:butt;stroke-linejoin:miter;stroke:rgb(0%,0%,0%);stroke-opacity:1;stroke-miterlimit:10;" d="M 1019 228 L 993.019531 273 L 1044.980469 273 L 1019 228 "/>
<path style="fill-rule:nonzero;fill:rgb(53%,27%,7%);fill-opacity:1;stroke-width:1;stroke-linecap:butt;stroke-linejoin:miter;stroke:rgb(0%,0%,0%);stroke-opacity:1;stroke-miterlimit:10;" d="M 824 65 L 798.019531 110 L 849.980469 110 L 824 65 "/>
<path style="fill-rule:nonzero;fill:rgb(53%,27%,7%);fill-opacity:1;stroke-width:1;stroke-linecap:butt;stroke-linejoin:miter;stroke:rgb(0%,0%,0%);stroke-opacity:1;stroke-miterlimit:10;" d="M 767 372 L 741.019531 417 L 792.980469 417 L 767 372 "/>
</g>
</svg>
