<?xml version="1.0" encoding="UTF-8"?>
<svg xmlns="http://www.w3.org/2000/svg" xmlns:xlink="http://www.w3.org/1999/xlink" width="1129pt" height="517pt" viewBox="0 0 1129 517" version="1.1">
<g id="surface801">
<rect x="0" y="0" width="1129" height="517" style="fill:rgb(90%,90%,90%);fill-opacity:1;stroke:none;"/>
<path style="fill-rule:nonzero;fill:rgb(100%,0%,0%);fill-opacity:1;stroke-width:1;stroke-linecap:butt;stroke-linejoin:miter;stroke:rgb(0%,0%,0%);stroke-opacity:1;stroke-miterlimit:10;" d="M 381 299.601562 C 381 285.199219 357 285.199219 357 299.601562 C 357 314 381 316.398438 381 328.398438 C 381 316.398438 405 314 405 299.601562 C 405 285.199219 381 285.199219 381 299.601562 "/>
<path style="fill-rule:nonzero;fill:rgb(100%,0%,0%);fill-opacity:1;stroke-width:1;stroke-linecap:butt;stroke-linejoin:miter;stroke:rgb(0%,0%,0%);stroke-opacity:1;stroke-miterlimit:10;" d="M 901 294.601562 C 901 280.199219 877 280.199219 877 294.601562 C 877 309 901 311.398438 901 323.398438 C 901 311.398438 925 309 925 294.601562 C 925 280.199219 901 280.199219 901 294.601562 "/>
<path style="fill-rule:nonzero;fill:rgb(100%,0%,0%);fill-opacity:1;stroke-width:1;stroke-linecap:butt;stroke-linejoin:miter;stroke:rgb(0%,0%,0%);stroke-opacity:1;stroke-miterlimit:10;" d="M 557 376.601562 C 557 362.199219 533 362.199219 533 376.601562 C 533 391 557 393.398438 557 405.398438 C 557 393.398438 581 391 581 376.601562 C 581 362.199219 557 362.199219 557 376.601562 "/>
<path style="fill-rule:nonzero;fill:rgb(100%,0%,0%);fill-opacity:1;stroke-width:1;stroke-linecap:butt;stroke-linejoin:miter;stroke:rgb(0%,0%,0%);stroke-opacity:1;stroke-miterlimit:10;" d="M 59 178.601562 C 59 164.199219 35 164.199219 35 178.601562 C 35 193 59 195.398438 59 207.398438 C 59 195.398438 83 193 83 178.601562 C 83 164.199219 59 164.199219 59 178.601562 "/>
<path style="fill-rule:nonzero;fill:rgb(100%,0%,0%);fill-opacity:1;stroke-width:1;stroke-linecap:butt;stroke-linejoin:miter;stroke:rgb(0%,0%,0%);stroke-opacity:1;stroke-miterlimit:10;" d="M 208 289.601562 C 208 275.199219 184 275.199219 184 289.601562 C 184 304 208 306.398438 208 318.398438 C 208 306.398438 232 304 232 289.601562 C 232 275.199219 208 275.199219 208 289.601562 "/>
<path style="fill-rule:nonzero;fill:rgb(0%,0%,0%);fill-opacity:1;stroke-width:1;stroke-linecap:butt;stroke-linejoin:miter;stroke:rgb(0%,0%,0%);stroke-opacity:1;stroke-miterlimit:10;" d="M 866 113 L 846 113 L 846 123 L 866 123 L 866 143 L 876 143 L 876 123 L 896 123 L 896 113 L 876 113 L 876 93 L 866 93 L 866 113 "/>
<path style="fill-rule:nonzero;fill:rgb(0%,0%,0%);fill-opacity:1;stroke-width:1;stroke-linecap:butt;stroke-linejoin:miter;stroke:rgb(0%,0%,0%);stroke-opacity:1;stroke-miterlimit:10;" d="M 376 89 L 356 89 L 356 99 L 376 99 L 376 119 L 386 119 L 386 99 L 406 99 L 406 89 L 386 89 L 386 69 L 376 69 L 376 89 "/>
<path style="fill-rule:nonzero;fill:rgb(0%,0%,0%);fill-opacity:1;stroke-width:1;stroke-linecap:butt;stroke-linejoin:miter;stroke:rgb(0%,0%,0%);stroke-opacity:1;stroke-miterlimit:10;" d="M 948 204 L 928 204 L 928 214 L 948 214 L 948 234 L 958 234 L 958 214 L 978 214 L 978 204 L 958 204 L 958 184 L 948 184 L 948 204 "/>
<path style="fill-rule:nonzero;fill:rgb(0%,0%,0%);fill-opacity:1;stroke-width:1;stroke-linecap:butt;stroke-linejoin:miter;stroke:rgb(0%,0%,0%);stroke-opacity:1;stroke-miterlimit:10;" d="M 515 153 L 495 153 L 495 163 L 515 163 L 515 183 L 525 183 L 525 163 L 545 163 L 545 153 L 525 153 L 525 133 L 515 133 L 515 153 "/>
<path style="fill-rule:nonzero;fill:rgb(0%,0%,0%);fill-opacity:1;stroke-width:1;stroke-linecap:butt;stroke-linejoin:miter;stroke:rgb(0%,0%,0%);stroke-opacity:1;stroke-miterlimit:10;" d="M 75 385 L 55 385 L 55 395 L 75 395 L 75 415 L 85 415 L 85 395 L 105 395 L 105 385 L 85 385 L 85 365 L 75 365 L 75 385 "/>
<path style="fill-rule:nonzero;fill:rgb(0%,0%,0%);fill-opacity:1;stroke-width:1;stroke-linecap:butt;stroke-linejoin:miter;stroke:rgb(0%,0%,0%);stroke-opacity:1;stroke-miterlimit:10;" d="M 543 243 L 523 243 L 523 253 L 543 253 L 543 273 L 553 273 L 553 253 L 573 253 L 573 243 L 553 243 L 553 223 L 543 223 L 543 243 "/>
</g>
</svg>
