<?xml version="1.0" encoding="UTF-8"?>
<svg xmlns="http://www.w3.org/2000/svg" xmlns:xlink="http://www.w3.org/1999/xlink" width="1129pt" height="517pt" viewBox="0 0 1129 517" version="1.1">
<g id="surface961">
<rect x="0" y="0" width="1129" height="517" style="fill:rgb(90%,90%,90%);fill-opacity:1;stroke:none;"/>
<path style="fill-rule:nonzero;fill:rgb(53%,27%,7%);fill-opacity:1;stroke-width:1;stroke-linecap:butt;stroke-linejoin:miter;stroke:rgb(0%,0%,0%);stroke-opacity:1;stroke-miterlimit:10;" d="M 921 203 L 950.664062 203 L 962.664062 174.785156 L 974.664062 203 L 1004.332031 203 L 980.332031 220.4375 L 988.417969 251.980469 L 962.664062 234.542969 L 936.914062 251.980469 L 949.214844 220.4375 L 921 203 "/>
<path style="fill-rule:nonzero;fill:rgb(53%,27%,7%);fill-opacity:1;stroke-width:1;stroke-linecap:butt;stroke-linejoin:miter;stroke:rgb(0%,0%,0%);stroke-opacity:1;stroke-miterlimit:10;" d="M 196 166 L 225.664062 166 L 237.664062 137.785156 L 249.664062 166 L 279.332031 166 L 255.332031 183.4375 L 263.417969 214.980469 L 237.664062 197.542969 L 211.914062 214.980469 L 224.214844 183.4375 L 196 166 "/>
<path style="fill-rule:nonzero;fill:rgb(53%,27%,7%);fill-opacity:1;stroke-width:1;stroke-linecap:butt;stroke-linejoin:miter;stroke:rgb(0%,0%,0%);stroke-opacity:1;stroke-miterlimit:10;" d="M 560 57 L 589.664062 57 L 601.664062 28.785156 L 613.664062 57 L 643.332031 57 L 619.332031 74.4375 L 627.417969 105.980469 L 601.664062 88.542969 L 575.914062 105.980469 L 588.214844 74.4375 L 560 57 "/>
<path style="fill-rule:nonzero;fill:rgb(53%,27%,7%);fill-opacity:1;stroke-width:1;stroke-linecap:butt;stroke-linejoin:miter;stroke:rgb(0%,0%,0%);stroke-opacity:1;stroke-miterlimit:10;" d="M 194 416 L 223.664062 416 L 235.664062 387.785156 L 247.664062 416 L 277.332031 416 L 253.332031 433.4375 L 261.417969 464.980469 L 235.664062 447.542969 L 209.914062 464.980469 L 222.214844 433.4375 L 194 416 "/>
<path style="fill-rule:nonzero;fill:rgb(53%,27%,7%);fill-opacity:1;stroke-width:1;stroke-linecap:butt;stroke-linejoin:miter;stroke:rgb(0%,0%,0%);stroke-opacity:1;stroke-miterlimit:10;" d="M 566 208 L 595.664062 208 L 607.664062 179.785156 L 619.664062 208 L 649.332031 208 L 625.332031 225.4375 L 633.417969 256.980469 L 607.664062 239.542969 L 581.914062 256.980469 L 594.214844 225.4375 L 566 208 "/>
<path style="fill-rule:nonzero;fill:rgb(55%,51%,53%);fill-opacity:1;stroke-width:1;stroke-linecap:butt;stroke-linejoin:miter;stroke:rgb(0%,0%,0%);stroke-opacity:1;stroke-miterlimit:10;" d="M 321 251 L 350.664062 251 L 362.664062 222.785156 L 374.664062 251 L 404.332031 251 L 380.332031 268.4375 L 388.417969 299.980469 L 362.664062 282.542969 L 336.914062 299.980469 L 349.214844 268.4375 L 321 251 "/>
<path style="fill-rule:nonzero;fill:rgb(55%,51%,53%);fill-opacity:1;stroke-width:1;stroke-linecap:butt;stroke-linejoin:miter;stroke:rgb(0%,0%,0%);stroke-opacity:1;stroke-miterlimit:10;" d="M 663 128 L 692.664062 128 L 704.664062 99.785156 L 716.664062 128 L 746.332031 128 L 722.332031 145.4375 L 730.417969 176.980469 L 704.664062 159.542969 L 678.914062 176.980469 L 691.214844 145.4375 L 663 128 "/>
<path style="fill-rule:nonzero;fill:rgb(55%,51%,53%);fill-opacity:1;stroke-width:1;stroke-linecap:butt;stroke-linejoin:miter;stroke:rgb(0%,0%,0%);stroke-opacity:1;stroke-miterlimit:10;" d="M 780 120 L 809.664062 120 L 821.664062 91.785156 L 833.664062 120 L 863.332031 120 L 839.332031 137.4375 L 847.417969 168.980469 L 821.664062 151.542969 L 795.914062 168.980469 L 808.214844 137.4375 L 780 120 "/>
<path style="fill-rule:nonzero;fill:rgb(55%,51%,53%);fill-opacity:1;stroke-width:1;stroke-linecap:butt;stroke-linejoin:miter;stroke:rgb(0%,0%,0%);stroke-opacity:1;stroke-miterlimit:10;" d="M 329 90 L 358.664062 90 L 370.664062 61.785156 L 382.664062 90 L 412.332031 90 L 388.332031 107.4375 L 396.417969 138.980469 L 370.664062 121.542969 L 344.914062 138.980469 L 357.214844 107.4375 L 329 90 "/>
<path style="fill-rule:nonzero;fill:rgb(55%,51%,53%);fill-opacity:1;stroke-width:1;stroke-linecap:butt;stroke-linejoin:miter;stroke:rgb(0%,0%,0%);stroke-opacity:1;stroke-miterlimit:10;" d="M 626 327 L 655.664062 327 L 667.664062 298.785156 L 679.664062 327 L 709.332031 327 L 685.332031 344.4375 L 693.417969 375.980469 L 667.664062 358.542969 L 641.914062 375.980469 L 654.214844 344.4375 L 626 327 "/>
<path style="fill-rule:nonzero;fill:rgb(55%,51%,53%);fill-opacity:1;stroke-width:1;stroke-linecap:butt;stroke-linejoin:miter;stroke:rgb(0%,0%,0%);stroke-opacity:1;stroke-miterlimit:10;" d="M 329 425 L 358.664062 425 L 370.664062 396.785156 L 382.664062 425 L 412.332031 425 L 388.332031 442.4375 L 396.417969 473.980469 L 370.664062 456.542969 L 344.914062 473.980469 L 357.214844 442.4375 L 329 425 "/>
<path style="fill-rule:nonzero;fill:rgb(55%,51%,53%);fill-opacity:1;stroke-width:1;stroke-linecap:butt;stroke-linejoin:miter;stroke:rgb(0%,0%,0%);stroke-opacity:1;stroke-miterlimit:10;" d="M 922 78 L 951.664062 78 L 963.664062 49.785156 L 975.664062 78 L 1005.332031 78 L 981.332031 95.4375 L 989.417969 126.980469 L 963.664062 109.542969 L 937.914062 126.980469 L 950.214844 95.4375 L 922 78 "/>
<path style="fill-rule:nonzero;fill:rgb(55%,51%,53%);fill-opacity:1;stroke-width:1;stroke-linecap:butt;stroke-linejoin:miter;stroke:rgb(0%,0%,0%);stroke-opacity:1;stroke-miterlimit:10;" d="M 86 368 L 115.664062 368 L 127.664062 339.785156 L 139.664062 368 L 169.332031 368 L 145.332031 385.4375 L 153.417969 416.980469 L 127.664062 399.542969 L 101.914062 416.980469 L 114.214844 385.4375 L 86 368 "/>
</g>
</svg>
