<?xml version="1.0" encoding="UTF-8"?>
<svg xmlns="http://www.w3.org/2000/svg" xmlns:xlink="http://www.w3.org/1999/xlink" width="1129pt" height="517pt" viewBox="0 0 1129 517" version="1.1">
<g id="surface481">
<rect x="0" y="0" width="1129" height="517" style="fill:rgb(90%,90%,90%);fill-opacity:1;stroke:none;"/>
<path style="fill-rule:nonzero;fill:rgb(100%,51%,0%);fill-opacity:1;stroke-width:1;stroke-linecap:butt;stroke-linejoin:miter;stroke:rgb(0%,0%,0%);stroke-opacity:1;stroke-miterlimit:10;" d="M 797 345 L 826.664062 345 L 838.664062 316.785156 L 850.664062 345 L 880.332031 345 L 856.332031 362.4375 L 864.417969 393.980469 L 838.664062 376.542969 L 812.914062 393.980469 L 825.214844 362.4375 L 797 345 "/>
<path style="fill-rule:nonzero;fill:rgb(100%,51%,0%);fill-opacity:1;stroke-width:1;stroke-linecap:butt;stroke-linejoin:miter;stroke:rgb(0%,0%,0%);stroke-opacity:1;stroke-miterlimit:10;" d="M 350 94 L 379.664062 94 L 391.664062 65.785156 L 403.664062 94 L 433.332031 94 L 409.332031 111.4375 L 417.417969 142.980469 L 391.664062 125.542969 L 365.914062 142.980469 L 378.214844 111.4375 L 350 94 "/>
<path style="fill-rule:nonzero;fill:rgb(100%,51%,0%);fill-opacity:1;stroke-width:1;stroke-linecap:butt;stroke-linejoin:miter;stroke:rgb(0%,0%,0%);stroke-opacity:1;stroke-miterlimit:10;" d="M 598 106 L 627.664062 106 L 639.664062 77.785156 L 651.664062 106 L 681.332031 106 L 657.332031 123.4375 L 665.417969 154.980469 L 639.664062 137.542969 L 613.914062 154.980469 L 626.214844 123.4375 L 598 106 "/>
<path style="fill-rule:nonzero;fill:rgb(100%,51%,0%);fill-opacity:1;stroke-width:1;stroke-linecap:butt;stroke-linejoin:miter;stroke:rgb(0%,0%,0%);stroke-opacity:1;stroke-miterlimit:10;" d="M 231 393 L 260.664062 393 L 272.664062 364.785156 L 284.664062 393 L 314.332031 393 L 290.332031 410.4375 L 298.417969 441.980469 L 272.664062 424.542969 L 246.914062 441.980469 L 259.214844 410.4375 L 231 393 "/>
<path style="fill-rule:nonzero;fill:rgb(55%,51%,53%);fill-opacity:1;stroke-width:1;stroke-linecap:butt;stroke-linejoin:miter;stroke:rgb(0%,0%,0%);stroke-opacity:1;stroke-miterlimit:10;" d="M 384.214844 439 C 384.214844 450.714844 374.714844 460.214844 363 460.214844 C 351.285156 460.214844 341.785156 450.714844 341.785156 439 C 341.785156 427.285156 351.285156 417.785156 363 417.785156 C 374.714844 417.785156 384.214844 427.285156 384.214844 439 "/>
<path style="fill-rule:nonzero;fill:rgb(55%,51%,53%);fill-opacity:1;stroke-width:1;stroke-linecap:butt;stroke-linejoin:miter;stroke:rgb(0%,0%,0%);stroke-opacity:1;stroke-miterlimit:10;" d="M 541.214844 245 C 541.214844 256.714844 531.714844 266.214844 520 266.214844 C 508.285156 266.214844 498.785156 256.714844 498.785156 245 C 498.785156 233.285156 508.285156 223.785156 520 223.785156 C 531.714844 223.785156 541.214844 233.285156 541.214844 245 "/>
<path style="fill-rule:nonzero;fill:rgb(55%,51%,53%);fill-opacity:1;stroke-width:1;stroke-linecap:butt;stroke-linejoin:miter;stroke:rgb(0%,0%,0%);stroke-opacity:1;stroke-miterlimit:10;" d="M 392.214844 330 C 392.214844 341.714844 382.714844 351.214844 371 351.214844 C 359.285156 351.214844 349.785156 341.714844 349.785156 330 C 349.785156 318.285156 359.285156 308.785156 371 308.785156 C 382.714844 308.785156 392.214844 318.285156 392.214844 330 "/>
<path style="fill-rule:nonzero;fill:rgb(55%,51%,53%);fill-opacity:1;stroke-width:1;stroke-linecap:butt;stroke-linejoin:miter;stroke:rgb(0%,0%,0%);stroke-opacity:1;stroke-miterlimit:10;" d="M 598.214844 451 C 598.214844 462.714844 588.714844 472.214844 577 472.214844 C 565.285156 472.214844 555.785156 462.714844 555.785156 451 C 555.785156 439.285156 565.285156 429.785156 577 429.785156 C 588.714844 429.785156 598.214844 439.285156 598.214844 451 "/>
</g>
</svg>
