<?xml version="1.0" encoding="UTF-8"?>
<svg xmlns="http://www.w3.org/2000/svg" xmlns:xlink="http://www.w3.org/1999/xlink" width="1129pt" height="517pt" viewBox="0 0 1129 517" version="1.1">
<g id="surface791">
<rect x="0" y="0" width="1129" height="517" style="fill:rgb(90%,90%,90%);fill-opacity:1;stroke:none;"/>
<path style="fill-rule:nonzero;fill:rgb(35%,70%,90%);fill-opacity:1;stroke-width:1;stroke-linecap:butt;stroke-linejoin:miter;stroke:rgb(0%,0%,0%);stroke-opacity:1;stroke-miterlimit:10;" d="M 958.214844 453 C 958.214844 464.714844 948.714844 474.214844 937 474.214844 C 925.285156 474.214844 915.785156 464.714844 915.785156 453 C 915.785156 441.285156 925.285156 431.785156 937 431.785156 C 948.714844 431.785156 958.214844 441.285156 958.214844 453 "/>
<path style="fill-rule:nonzero;fill:rgb(35%,70%,90%);fill-opacity:1;stroke-width:1;stroke-linecap:butt;stroke-linejoin:miter;stroke:rgb(0%,0%,0%);stroke-opacity:1;stroke-miterlimit:10;" d="M 630.214844 83 C 630.214844 94.714844 620.714844 104.214844 609 104.214844 C 597.285156 104.214844 587.785156 94.714844 587.785156 83 C 587.785156 71.285156 597.285156 61.785156 609 61.785156 C 620.714844 61.785156 630.214844 71.285156 630.214844 83 "/>
<path style="fill-rule:nonzero;fill:rgb(35%,70%,90%);fill-opacity:1;stroke-width:1;stroke-linecap:butt;stroke-linejoin:miter;stroke:rgb(0%,0%,0%);stroke-opacity:1;stroke-miterlimit:10;" d="M 502.214844 85 C 502.214844 96.714844 492.714844 106.214844 481 106.214844 C 469.285156 106.214844 459.785156 96.714844 459.785156 85 C 459.785156 73.285156 469.285156 63.785156 481 63.785156 C 492.714844 63.785156 502.214844 73.285156 502.214844 85 "/>
<path style="fill-rule:nonzero;fill:rgb(35%,70%,90%);fill-opacity:1;stroke-width:1;stroke-linecap:butt;stroke-linejoin:miter;stroke:rgb(0%,0%,0%);stroke-opacity:1;stroke-miterlimit:10;" d="M 798.214844 412 C 798.214844 423.714844 788.714844 433.214844 777 433.214844 C 765.285156 433.214844 755.785156 423.714844 755.785156 412 C 755.785156 400.285156 765.285156 390.785156 777 390.785156 C 788.714844 390.785156 798.214844 400.285156 798.214844 412 "/>
<path style="fill-rule:nonzero;fill:rgb(35%,70%,90%);fill-opacity:1;stroke-width:1;stroke-linecap:butt;stroke-linejoin:miter;stroke:rgb(0%,0%,0%);stroke-opacity:1;stroke-miterlimit:10;" d="M 101.214844 131 C 101.214844 142.714844 91.714844 152.214844 80 152.214844 C 68.285156 152.214844 58.785156 142.714844 58.785156 131 C 58.785156 119.285156 68.285156 109.785156 80 109.785156 C 91.714844 109.785156 101.214844 119.285156 101.214844 131 "/>
<path style="fill-rule:nonzero;fill:rgb(35%,70%,90%);fill-opacity:1;stroke-width:1;stroke-linecap:butt;stroke-linejoin:miter;stroke:rgb(0%,0%,0%);stroke-opacity:1;stroke-miterlimit:10;" d="M 289.214844 351 C 289.214844 362.714844 279.714844 372.214844 268 372.214844 C 256.285156 372.214844 246.785156 362.714844 246.785156 351 C 246.785156 339.285156 256.285156 329.785156 268 329.785156 C 279.714844 329.785156 289.214844 339.285156 289.214844 351 "/>
<path style="fill-rule:nonzero;fill:rgb(35%,70%,90%);fill-opacity:1;stroke-width:1;stroke-linecap:butt;stroke-linejoin:miter;stroke:rgb(0%,0%,0%);stroke-opacity:1;stroke-miterlimit:10;" d="M 699 55 L 728.664062 55 L 740.664062 26.785156 L 752.664062 55 L 782.332031 55 L 758.332031 72.4375 L 766.417969 103.980469 L 740.664062 86.542969 L 714.914062 103.980469 L 727.214844 72.4375 L 699 55 "/>
<path style="fill-rule:nonzero;fill:rgb(35%,70%,90%);fill-opacity:1;stroke-width:1;stroke-linecap:butt;stroke-linejoin:miter;stroke:rgb(0%,0%,0%);stroke-opacity:1;stroke-miterlimit:10;" d="M 179 372 L 208.664062 372 L 220.664062 343.785156 L 232.664062 372 L 262.332031 372 L 238.332031 389.4375 L 246.417969 420.980469 L 220.664062 403.542969 L 194.914062 420.980469 L 207.214844 389.4375 L 179 372 "/>
<path style="fill-rule:nonzero;fill:rgb(35%,70%,90%);fill-opacity:1;stroke-width:1;stroke-linecap:butt;stroke-linejoin:miter;stroke:rgb(0%,0%,0%);stroke-opacity:1;stroke-miterlimit:10;" d="M 614 418 L 643.664062 418 L 655.664062 389.785156 L 667.664062 418 L 697.332031 418 L 673.332031 435.4375 L 681.417969 466.980469 L 655.664062 449.542969 L 629.914062 466.980469 L 642.214844 435.4375 L 614 418 "/>
<path style="fill-rule:nonzero;fill:rgb(35%,70%,90%);fill-opacity:1;stroke-width:1;stroke-linecap:butt;stroke-linejoin:miter;stroke:rgb(0%,0%,0%);stroke-opacity:1;stroke-miterlimit:10;" d="M 792 158 L 821.664062 158 L 833.664062 129.785156 L 845.664062 158 L 875.332031 158 L 851.332031 175.4375 L 859.417969 206.980469 L 833.664062 189.542969 L 807.914062 206.980469 L 820.214844 175.4375 L 792 158 "/>
<path style="fill-rule:nonzero;fill:rgb(35%,70%,90%);fill-opacity:1;stroke-width:1;stroke-linecap:butt;stroke-linejoin:miter;stroke:rgb(0%,0%,0%);stroke-opacity:1;stroke-miterlimit:10;" d="M 393 205 L 422.664062 205 L 434.664062 176.785156 L 446.664062 205 L 476.332031 205 L 452.332031 222.4375 L 460.417969 253.980469 L 434.664062 236.542969 L 408.914062 253.980469 L 421.214844 222.4375 L 393 205 "/>
</g>
</svg>
