<?xml version="1.0" encoding="UTF-8"?>
<svg xmlns="http://www.w3.org/2000/svg" xmlns:xlink="http://www.w3.org/1999/xlink" width="1129pt" height="517pt" viewBox="0 0 1129 517" version="1.1">
<g id="surface826">
<rect x="0" y="0" width="1129" height="517" style="fill:rgb(90%,90%,90%);fill-opacity:1;stroke:none;"/>
<path style="fill-rule:nonzero;fill:rgb(53%,27%,7%);fill-opacity:1;stroke-width:1;stroke-linecap:butt;stroke-linejoin:miter;stroke:rgb(0%,0%,0%);stroke-opacity:1;stroke-miterlimit:10;" d="M 111 366 L 140.664062 366 L 152.664062 337.785156 L 164.664062 366 L 194.332031 366 L 170.332031 383.4375 L 178.417969 414.980469 L 152.664062 397.542969 L 126.914062 414.980469 L 139.214844 383.4375 L 111 366 "/>
<path style="fill-rule:nonzero;fill:rgb(53%,27%,7%);fill-opacity:1;stroke-width:1;stroke-linecap:butt;stroke-linejoin:miter;stroke:rgb(0%,0%,0%);stroke-opacity:1;stroke-miterlimit:10;" d="M 589 308 L 618.664062 308 L 630.664062 279.785156 L 642.664062 308 L 672.332031 308 L 648.332031 325.4375 L 656.417969 356.980469 L 630.664062 339.542969 L 604.914062 356.980469 L 617.214844 325.4375 L 589 308 "/>
<path style="fill-rule:nonzero;fill:rgb(53%,27%,7%);fill-opacity:1;stroke-width:1;stroke-linecap:butt;stroke-linejoin:miter;stroke:rgb(0%,0%,0%);stroke-opacity:1;stroke-miterlimit:10;" d="M 253 139 L 282.664062 139 L 294.664062 110.785156 L 306.664062 139 L 336.332031 139 L 312.332031 156.4375 L 320.417969 187.980469 L 294.664062 170.542969 L 268.914062 187.980469 L 281.214844 156.4375 L 253 139 "/>
<path style="fill-rule:nonzero;fill:rgb(53%,27%,7%);fill-opacity:1;stroke-width:1;stroke-linecap:butt;stroke-linejoin:miter;stroke:rgb(0%,0%,0%);stroke-opacity:1;stroke-miterlimit:10;" d="M 807 212 L 836.664062 212 L 848.664062 183.785156 L 860.664062 212 L 890.332031 212 L 866.332031 229.4375 L 874.417969 260.980469 L 848.664062 243.542969 L 822.914062 260.980469 L 835.214844 229.4375 L 807 212 "/>
<path style="fill-rule:nonzero;fill:rgb(53%,27%,7%);fill-opacity:1;stroke-width:1;stroke-linecap:butt;stroke-linejoin:miter;stroke:rgb(0%,0%,0%);stroke-opacity:1;stroke-miterlimit:10;" d="M 65 263 L 94.664062 263 L 106.664062 234.785156 L 118.664062 263 L 148.332031 263 L 124.332031 280.4375 L 132.417969 311.980469 L 106.664062 294.542969 L 80.914062 311.980469 L 93.214844 280.4375 L 65 263 "/>
<path style="fill-rule:nonzero;fill:rgb(55%,51%,53%);fill-opacity:1;stroke-width:1;stroke-linecap:butt;stroke-linejoin:miter;stroke:rgb(0%,0%,0%);stroke-opacity:1;stroke-miterlimit:10;" d="M 353 363 L 382.664062 363 L 394.664062 334.785156 L 406.664062 363 L 436.332031 363 L 412.332031 380.4375 L 420.417969 411.980469 L 394.664062 394.542969 L 368.914062 411.980469 L 381.214844 380.4375 L 353 363 "/>
<path style="fill-rule:nonzero;fill:rgb(55%,51%,53%);fill-opacity:1;stroke-width:1;stroke-linecap:butt;stroke-linejoin:miter;stroke:rgb(0%,0%,0%);stroke-opacity:1;stroke-miterlimit:10;" d="M 451 306 L 480.664062 306 L 492.664062 277.785156 L 504.664062 306 L 534.332031 306 L 510.332031 323.4375 L 518.417969 354.980469 L 492.664062 337.542969 L 466.914062 354.980469 L 479.214844 323.4375 L 451 306 "/>
<path style="fill-rule:nonzero;fill:rgb(55%,51%,53%);fill-opacity:1;stroke-width:1;stroke-linecap:butt;stroke-linejoin:miter;stroke:rgb(0%,0%,0%);stroke-opacity:1;stroke-miterlimit:10;" d="M 653 192 L 682.664062 192 L 694.664062 163.785156 L 706.664062 192 L 736.332031 192 L 712.332031 209.4375 L 720.417969 240.980469 L 694.664062 223.542969 L 668.914062 240.980469 L 681.214844 209.4375 L 653 192 "/>
<path style="fill-rule:nonzero;fill:rgb(55%,51%,53%);fill-opacity:1;stroke-width:1;stroke-linecap:butt;stroke-linejoin:miter;stroke:rgb(0%,0%,0%);stroke-opacity:1;stroke-miterlimit:10;" d="M 387 132 L 416.664062 132 L 428.664062 103.785156 L 440.664062 132 L 470.332031 132 L 446.332031 149.4375 L 454.417969 180.980469 L 428.664062 163.542969 L 402.914062 180.980469 L 415.214844 149.4375 L 387 132 "/>
<path style="fill-rule:nonzero;fill:rgb(55%,51%,53%);fill-opacity:1;stroke-width:1;stroke-linecap:butt;stroke-linejoin:miter;stroke:rgb(0%,0%,0%);stroke-opacity:1;stroke-miterlimit:10;" d="M 579 111 L 608.664062 111 L 620.664062 82.785156 L 632.664062 111 L 662.332031 111 L 638.332031 128.4375 L 646.417969 159.980469 L 620.664062 142.542969 L 594.914062 159.980469 L 607.214844 128.4375 L 579 111 "/>
<path style="fill-rule:nonzero;fill:rgb(55%,51%,53%);fill-opacity:1;stroke-width:1;stroke-linecap:butt;stroke-linejoin:miter;stroke:rgb(0%,0%,0%);stroke-opacity:1;stroke-miterlimit:10;" d="M 604 439 L 633.664062 439 L 645.664062 410.785156 L 657.664062 439 L 687.332031 439 L 663.332031 456.4375 L 671.417969 487.980469 L 645.664062 470.542969 L 619.914062 487.980469 L 632.214844 456.4375 L 604 439 "/>
<path style="fill-rule:nonzero;fill:rgb(55%,51%,53%);fill-opacity:1;stroke-width:1;stroke-linecap:butt;stroke-linejoin:miter;stroke:rgb(0%,0%,0%);stroke-opacity:1;stroke-miterlimit:10;" d="M 918 208 L 947.664062 208 L 959.664062 179.785156 L 971.664062 208 L 1001.332031 208 L 977.332031 225.4375 L 985.417969 256.980469 L 959.664062 239.542969 L 933.914062 256.980469 L 946.214844 225.4375 L 918 208 "/>
<path style="fill-rule:nonzero;fill:rgb(55%,51%,53%);fill-opacity:1;stroke-width:1;stroke-linecap:butt;stroke-linejoin:miter;stroke:rgb(0%,0%,0%);stroke-opacity:1;stroke-miterlimit:10;" d="M 927 417 L 956.664062 417 L 968.664062 388.785156 L 980.664062 417 L 1010.332031 417 L 986.332031 434.4375 L 994.417969 465.980469 L 968.664062 448.542969 L 942.914062 465.980469 L 955.214844 434.4375 L 927 417 "/>
</g>
</svg>
