<?xml version="1.0" encoding="UTF-8"?>
<svg xmlns="http://www.w3.org/2000/svg" xmlns:xlink="http://www.w3.org/1999/xlink" width="1129pt" height="517pt" viewBox="0 0 1129 517" version="1.1">
<g id="surface941">
<rect x="0" y="0" width="1129" height="517" style="fill:rgb(90%,90%,90%);fill-opacity:1;stroke:none;"/>
<path style="fill-rule:nonzero;fill:rgb(53%,27%,7%);fill-opacity:1;stroke-width:1;stroke-linecap:butt;stroke-linejoin:miter;stroke:rgb(0%,0%,0%);stroke-opacity:1;stroke-miterlimit:10;" d="M 142 278.601562 C 142 264.199219 118 264.199219 118 278.601562 C 118 293 142 295.398438 142 307.398438 C 142 295.398438 166 293 166 278.601562 C 166 264.199219 142 264.199219 142 278.601562 "/>
<path style="fill-rule:nonzero;fill:rgb(53%,27%,7%);fill-opacity:1;stroke-width:1;stroke-linecap:butt;stroke-linejoin:miter;stroke:rgb(0%,0%,0%);stroke-opacity:1;stroke-miterlimit:10;" d="M 82 100.601562 C 82 86.199219 58 86.199219 58 100.601562 C 58 115 82 117.398438 82 129.398438 C 82 117.398438 106 115 106 100.601562 C 106 86.199219 82 86.199219 82 100.601562 "/>
<path style="fill-rule:nonzero;fill:rgb(53%,27%,7%);fill-opacity:1;stroke-width:1;stroke-linecap:butt;stroke-linejoin:miter;stroke:rgb(0%,0%,0%);stroke-opacity:1;stroke-miterlimit:10;" d="M 398.214844 104 C 398.214844 115.714844 388.714844 125.214844 377 125.214844 C 365.285156 125.214844 355.785156 115.714844 355.785156 104 C 355.785156 92.285156 365.285156 82.785156 377 82.785156 C 388.714844 82.785156 398.214844 92.285156 398.214844 104 "/>
<path style="fill-rule:nonzero;fill:rgb(53%,27%,7%);fill-opacity:1;stroke-width:1;stroke-linecap:butt;stroke-linejoin:miter;stroke:rgb(0%,0%,0%);stroke-opacity:1;stroke-miterlimit:10;" d="M 390.214844 337 C 390.214844 348.714844 380.714844 358.214844 369 358.214844 C 357.285156 358.214844 347.785156 348.714844 347.785156 337 C 347.785156 325.285156 357.285156 315.785156 369 315.785156 C 380.714844 315.785156 390.214844 325.285156 390.214844 337 "/>
<path style="fill-rule:nonzero;fill:rgb(53%,27%,7%);fill-opacity:1;stroke-width:1;stroke-linecap:butt;stroke-linejoin:miter;stroke:rgb(0%,0%,0%);stroke-opacity:1;stroke-miterlimit:10;" d="M 170 129.601562 C 170 115.199219 146 115.199219 146 129.601562 C 146 144 170 146.398438 170 158.398438 C 170 146.398438 194 144 194 129.601562 C 194 115.199219 170 115.199219 170 129.601562 "/>
<path style="fill-rule:nonzero;fill:rgb(53%,27%,7%);fill-opacity:1;stroke-width:1;stroke-linecap:butt;stroke-linejoin:miter;stroke:rgb(0%,0%,0%);stroke-opacity:1;stroke-miterlimit:10;" d="M 383 413.601562 C 383 399.199219 359 399.199219 359 413.601562 C 359 428 383 430.398438 383 442.398438 C 383 430.398438 407 428 407 413.601562 C 407 399.199219 383 399.199219 383 413.601562 "/>
<path style="fill-rule:nonzero;fill:rgb(53%,27%,7%);fill-opacity:1;stroke-width:1;stroke-linecap:butt;stroke-linejoin:miter;stroke:rgb(0%,0%,0%);stroke-opacity:1;stroke-miterlimit:10;" d="M 311 161.601562 C 311 147.199219 287 147.199219 287 161.601562 C 287 176 311 178.398438 311 190.398438 C 311 178.398438 335 176 335 161.601562 C 335 147.199219 311 147.199219 311 161.601562 "/>
<path style="fill-rule:nonzero;fill:rgb(53%,27%,7%);fill-opacity:1;stroke-width:1;stroke-linecap:butt;stroke-linejoin:miter;stroke:rgb(0%,0%,0%);stroke-opacity:1;stroke-miterlimit:10;" d="M 66 437.601562 C 66 423.199219 42 423.199219 42 437.601562 C 42 452 66 454.398438 66 466.398438 C 66 454.398438 90 452 90 437.601562 C 90 423.199219 66 423.199219 66 437.601562 "/>
<path style="fill-rule:nonzero;fill:rgb(100%,51%,0%);fill-opacity:1;stroke-width:1;stroke-linecap:butt;stroke-linejoin:miter;stroke:rgb(0%,0%,0%);stroke-opacity:1;stroke-miterlimit:10;" d="M 972.214844 131 C 972.214844 142.714844 962.714844 152.214844 951 152.214844 C 939.285156 152.214844 929.785156 142.714844 929.785156 131 C 929.785156 119.285156 939.285156 109.785156 951 109.785156 C 962.714844 109.785156 972.214844 119.285156 972.214844 131 "/>
<path style="fill-rule:nonzero;fill:rgb(100%,51%,0%);fill-opacity:1;stroke-width:1;stroke-linecap:butt;stroke-linejoin:miter;stroke:rgb(0%,0%,0%);stroke-opacity:1;stroke-miterlimit:10;" d="M 858.214844 383 C 858.214844 394.714844 848.714844 404.214844 837 404.214844 C 825.285156 404.214844 815.785156 394.714844 815.785156 383 C 815.785156 371.285156 825.285156 361.785156 837 361.785156 C 848.714844 361.785156 858.214844 371.285156 858.214844 383 "/>
<path style="fill-rule:nonzero;fill:rgb(100%,51%,0%);fill-opacity:1;stroke-width:1;stroke-linecap:butt;stroke-linejoin:miter;stroke:rgb(0%,0%,0%);stroke-opacity:1;stroke-miterlimit:10;" d="M 723 53.601562 C 723 39.199219 699 39.199219 699 53.601562 C 699 68 723 70.398438 723 82.398438 C 723 70.398438 747 68 747 53.601562 C 747 39.199219 723 39.199219 723 53.601562 "/>
<path style="fill-rule:nonzero;fill:rgb(100%,51%,0%);fill-opacity:1;stroke-width:1;stroke-linecap:butt;stroke-linejoin:miter;stroke:rgb(0%,0%,0%);stroke-opacity:1;stroke-miterlimit:10;" d="M 623 397.601562 C 623 383.199219 599 383.199219 599 397.601562 C 599 412 623 414.398438 623 426.398438 C 623 414.398438 647 412 647 397.601562 C 647 383.199219 623 383.199219 623 397.601562 "/>
<path style="fill-rule:nonzero;fill:rgb(100%,51%,0%);fill-opacity:1;stroke-width:1;stroke-linecap:butt;stroke-linejoin:miter;stroke:rgb(0%,0%,0%);stroke-opacity:1;stroke-miterlimit:10;" d="M 802.214844 307 C 802.214844 318.714844 792.714844 328.214844 781 328.214844 C 769.285156 328.214844 759.785156 318.714844 759.785156 307 C 759.785156 295.285156 769.285156 285.785156 781 285.785156 C 792.714844 285.785156 802.214844 295.285156 802.214844 307 "/>
<path style="fill-rule:nonzero;fill:rgb(100%,51%,0%);fill-opacity:1;stroke-width:1;stroke-linecap:butt;stroke-linejoin:miter;stroke:rgb(0%,0%,0%);stroke-opacity:1;stroke-miterlimit:10;" d="M 909.214844 220 C 909.214844 231.714844 899.714844 241.214844 888 241.214844 C 876.285156 241.214844 866.785156 231.714844 866.785156 220 C 866.785156 208.285156 876.285156 198.785156 888 198.785156 C 899.714844 198.785156 909.214844 208.285156 909.214844 220 "/>
<path style="fill-rule:nonzero;fill:rgb(100%,51%,0%);fill-opacity:1;stroke-width:1;stroke-linecap:butt;stroke-linejoin:miter;stroke:rgb(0%,0%,0%);stroke-opacity:1;stroke-miterlimit:10;" d="M 667.214844 183 C 667.214844 194.714844 657.714844 204.214844 646 204.214844 C 634.285156 204.214844 624.785156 194.714844 624.785156 183 C 624.785156 171.285156 634.285156 161.785156 646 161.785156 C 657.714844 161.785156 667.214844 171.285156 667.214844 183 "/>
<path style="fill-rule:nonzero;fill:rgb(100%,51%,0%);fill-opacity:1;stroke-width:1;stroke-linecap:butt;stroke-linejoin:miter;stroke:rgb(0%,0%,0%);stroke-opacity:1;stroke-miterlimit:10;" d="M 664.214844 311 C 664.214844 322.714844 654.714844 332.214844 643 332.214844 C 631.285156 332.214844 621.785156 322.714844 621.785156 311 C 621.785156 299.285156 631.285156 289.785156 643 289.785156 C 654.714844 289.785156 664.214844 299.285156 664.214844 311 "/>
</g>
</svg>
