<?xml version="1.0" encoding="UTF-8"?>
<svg xmlns="http://www.w3.org/2000/svg" xmlns:xlink="http://www.w3.org/1999/xlink" width="1129pt" height="517pt" viewBox="0 0 1129 517" version="1.1">
<g id="surface71">
<rect x="0" y="0" width="1129" height="517" style="fill:rgb(90%,90%,90%);fill-opacity:1;stroke:none;"/>
<path style="fill-rule:nonzero;fill:rgb(35%,70%,90%);fill-opacity:1;stroke-width:1;stroke-linecap:butt;stroke-linejoin:miter;stroke:rgb(0%,0%,0%);stroke-opacity:1;stroke-miterlimit:10;" d="M 107 79 L 136.664062 79 L 148.664062 50.785156 L 160.664062 79 L 190.332031 79 L 166.332031 96.4375 L 174.417969 127.980469 L 148.664062 110.542969 L 122.914062 127.980469 L 135.214844 96.4375 L 107 79 "/>
<path style="fill-rule:nonzero;fill:rgb(35%,70%,90%);fill-opacity:1;stroke-width:1;stroke-linecap:butt;stroke-linejoin:miter;stroke:rgb(0%,0%,0%);stroke-opacity:1;stroke-miterlimit:10;" d="M 142.785156 317.785156 L 142.785156 360.214844 L 185.214844 360.214844 L 185.214844 317.785156 L 142.785156 317.785156 "/>
<path style="fill-rule:nonzero;fill:rgb(35%,70%,90%);fill-opacity:1;stroke-width:1;stroke-linecap:butt;stroke-linejoin:miter;stroke:rgb(0%,0%,0%);stroke-opacity:1;stroke-miterlimit:10;" d="M 216.785156 217.785156 L 216.785156 260.214844 L 259.214844 260.214844 L 259.214844 217.785156 L 216.785156 217.785156 "/>
<path style="fill-rule:nonzero;fill:rgb(35%,70%,90%);fill-opacity:1;stroke-width:1;stroke-linecap:butt;stroke-linejoin:miter;stroke:rgb(0%,0%,0%);stroke-opacity:1;stroke-miterlimit:10;" d="M 424 456 L 453.664062 456 L 465.664062 427.785156 L 477.664062 456 L 507.332031 456 L 483.332031 473.4375 L 491.417969 504.980469 L 465.664062 487.542969 L 439.914062 504.980469 L 452.214844 473.4375 L 424 456 "/>
<path style="fill-rule:nonzero;fill:rgb(35%,70%,90%);fill-opacity:1;stroke-width:1;stroke-linecap:butt;stroke-linejoin:miter;stroke:rgb(0%,0%,0%);stroke-opacity:1;stroke-miterlimit:10;" d="M 452 120 L 481.664062 120 L 493.664062 91.785156 L 505.664062 120 L 535.332031 120 L 511.332031 137.4375 L 519.417969 168.980469 L 493.664062 151.542969 L 467.914062 168.980469 L 480.214844 137.4375 L 452 120 "/>
<path style="fill-rule:nonzero;fill:rgb(55%,51%,53%);fill-opacity:1;stroke-width:1;stroke-linecap:butt;stroke-linejoin:miter;stroke:rgb(0%,0%,0%);stroke-opacity:1;stroke-miterlimit:10;" d="M 873.785156 283.785156 L 873.785156 326.214844 L 916.214844 326.214844 L 916.214844 283.785156 L 873.785156 283.785156 "/>
<path style="fill-rule:nonzero;fill:rgb(55%,51%,53%);fill-opacity:1;stroke-width:1;stroke-linecap:butt;stroke-linejoin:miter;stroke:rgb(0%,0%,0%);stroke-opacity:1;stroke-miterlimit:10;" d="M 617 68 L 646.664062 68 L 658.664062 39.785156 L 670.664062 68 L 700.332031 68 L 676.332031 85.4375 L 684.417969 116.980469 L 658.664062 99.542969 L 632.914062 116.980469 L 645.214844 85.4375 L 617 68 "/>
<path style="fill-rule:nonzero;fill:rgb(55%,51%,53%);fill-opacity:1;stroke-width:1;stroke-linecap:butt;stroke-linejoin:miter;stroke:rgb(0%,0%,0%);stroke-opacity:1;stroke-miterlimit:10;" d="M 690 189 L 719.664062 189 L 731.664062 160.785156 L 743.664062 189 L 773.332031 189 L 749.332031 206.4375 L 757.417969 237.980469 L 731.664062 220.542969 L 705.914062 237.980469 L 718.214844 206.4375 L 690 189 "/>
<path style="fill-rule:nonzero;fill:rgb(55%,51%,53%);fill-opacity:1;stroke-width:1;stroke-linecap:butt;stroke-linejoin:miter;stroke:rgb(0%,0%,0%);stroke-opacity:1;stroke-miterlimit:10;" d="M 792.785156 157.785156 L 792.785156 200.214844 L 835.214844 200.214844 L 835.214844 157.785156 L 792.785156 157.785156 "/>
</g>
</svg>
