<?xml version="1.0" encoding="UTF-8"?>
<svg xmlns="http://www.w3.org/2000/svg" xmlns:xlink="http://www.w3.org/1999/xlink" width="1129pt" height="517pt" viewBox="0 0 1129 517" version="1.1">
<g id="surface621">
<rect x="0" y="0" width="1129" height="517" style="fill:rgb(90%,90%,90%);fill-opacity:1;stroke:none;"/>
<path style="fill-rule:nonzero;fill:rgb(35%,70%,90%);fill-opacity:1;stroke-width:1;stroke-linecap:butt;stroke-linejoin:miter;stroke:rgb(0%,0%,0%);stroke-opacity:1;stroke-miterlimit:10;" d="M 166.214844 415 C 166.214844 426.714844 156.714844 436.214844 145 436.214844 C 133.285156 436.214844 123.785156 426.714844 123.785156 415 C 123.785156 403.285156 133.285156 393.785156 145 393.785156 C 156.714844 393.785156 166.214844 403.285156 166.214844 415 "/>
<path style="fill-rule:nonzero;fill:rgb(35%,70%,90%);fill-opacity:1;stroke-width:1;stroke-linecap:butt;stroke-linejoin:miter;stroke:rgb(0%,0%,0%);stroke-opacity:1;stroke-miterlimit:10;" d="M 396.785156 196.785156 L 396.785156 239.214844 L 439.214844 239.214844 L 439.214844 196.785156 L 396.785156 196.785156 "/>
<path style="fill-rule:nonzero;fill:rgb(35%,70%,90%);fill-opacity:1;stroke-width:1;stroke-linecap:butt;stroke-linejoin:miter;stroke:rgb(0%,0%,0%);stroke-opacity:1;stroke-miterlimit:10;" d="M 171.214844 278 C 171.214844 289.714844 161.714844 299.214844 150 299.214844 C 138.285156 299.214844 128.785156 289.714844 128.785156 278 C 128.785156 266.285156 138.285156 256.785156 150 256.785156 C 161.714844 256.785156 171.214844 266.285156 171.214844 278 "/>
<path style="fill-rule:nonzero;fill:rgb(35%,70%,90%);fill-opacity:1;stroke-width:1;stroke-linecap:butt;stroke-linejoin:miter;stroke:rgb(0%,0%,0%);stroke-opacity:1;stroke-miterlimit:10;" d="M 355.214844 268 C 355.214844 279.714844 345.714844 289.214844 334 289.214844 C 322.285156 289.214844 312.785156 279.714844 312.785156 268 C 312.785156 256.285156 322.285156 246.785156 334 246.785156 C 345.714844 246.785156 355.214844 256.285156 355.214844 268 "/>
<path style="fill-rule:nonzero;fill:rgb(35%,70%,90%);fill-opacity:1;stroke-width:1;stroke-linecap:butt;stroke-linejoin:miter;stroke:rgb(0%,0%,0%);stroke-opacity:1;stroke-miterlimit:10;" d="M 213.214844 99 C 213.214844 110.714844 203.714844 120.214844 192 120.214844 C 180.285156 120.214844 170.785156 110.714844 170.785156 99 C 170.785156 87.285156 180.285156 77.785156 192 77.785156 C 203.714844 77.785156 213.214844 87.285156 213.214844 99 "/>
<path style="fill-rule:nonzero;fill:rgb(35%,70%,90%);fill-opacity:1;stroke-width:1;stroke-linecap:butt;stroke-linejoin:miter;stroke:rgb(0%,0%,0%);stroke-opacity:1;stroke-miterlimit:10;" d="M 94.214844 333 C 94.214844 344.714844 84.714844 354.214844 73 354.214844 C 61.285156 354.214844 51.785156 344.714844 51.785156 333 C 51.785156 321.285156 61.285156 311.785156 73 311.785156 C 84.714844 311.785156 94.214844 321.285156 94.214844 333 "/>
<path style="fill-rule:nonzero;fill:rgb(35%,70%,90%);fill-opacity:1;stroke-width:1;stroke-linecap:butt;stroke-linejoin:miter;stroke:rgb(0%,0%,0%);stroke-opacity:1;stroke-miterlimit:10;" d="M 371.214844 126 C 371.214844 137.714844 361.714844 147.214844 350 147.214844 C 338.285156 147.214844 328.785156 137.714844 328.785156 126 C 328.785156 114.285156 338.285156 104.785156 350 104.785156 C 361.714844 104.785156 371.214844 114.285156 371.214844 126 "/>
<path style="fill-rule:nonzero;fill:rgb(55%,51%,53%);fill-opacity:1;stroke-width:1;stroke-linecap:butt;stroke-linejoin:miter;stroke:rgb(0%,0%,0%);stroke-opacity:1;stroke-miterlimit:10;" d="M 701.785156 112.785156 L 701.785156 155.214844 L 744.214844 155.214844 L 744.214844 112.785156 L 701.785156 112.785156 "/>
<path style="fill-rule:nonzero;fill:rgb(55%,51%,53%);fill-opacity:1;stroke-width:1;stroke-linecap:butt;stroke-linejoin:miter;stroke:rgb(0%,0%,0%);stroke-opacity:1;stroke-miterlimit:10;" d="M 989.214844 289 C 989.214844 300.714844 979.714844 310.214844 968 310.214844 C 956.285156 310.214844 946.785156 300.714844 946.785156 289 C 946.785156 277.285156 956.285156 267.785156 968 267.785156 C 979.714844 267.785156 989.214844 277.285156 989.214844 289 "/>
<path style="fill-rule:nonzero;fill:rgb(55%,51%,53%);fill-opacity:1;stroke-width:1;stroke-linecap:butt;stroke-linejoin:miter;stroke:rgb(0%,0%,0%);stroke-opacity:1;stroke-miterlimit:10;" d="M 605.785156 384.785156 L 605.785156 427.214844 L 648.214844 427.214844 L 648.214844 384.785156 L 605.785156 384.785156 "/>
<path style="fill-rule:nonzero;fill:rgb(55%,51%,53%);fill-opacity:1;stroke-width:1;stroke-linecap:butt;stroke-linejoin:miter;stroke:rgb(0%,0%,0%);stroke-opacity:1;stroke-miterlimit:10;" d="M 774.785156 319.785156 L 774.785156 362.214844 L 817.214844 362.214844 L 817.214844 319.785156 L 774.785156 319.785156 "/>
<path style="fill-rule:nonzero;fill:rgb(55%,51%,53%);fill-opacity:1;stroke-width:1;stroke-linecap:butt;stroke-linejoin:miter;stroke:rgb(0%,0%,0%);stroke-opacity:1;stroke-miterlimit:10;" d="M 867.785156 66.785156 L 867.785156 109.214844 L 910.214844 109.214844 L 910.214844 66.785156 L 867.785156 66.785156 "/>
<path style="fill-rule:nonzero;fill:rgb(55%,51%,53%);fill-opacity:1;stroke-width:1;stroke-linecap:butt;stroke-linejoin:miter;stroke:rgb(0%,0%,0%);stroke-opacity:1;stroke-miterlimit:10;" d="M 845.785156 391.785156 L 845.785156 434.214844 L 888.214844 434.214844 L 888.214844 391.785156 L 845.785156 391.785156 "/>
</g>
</svg>
