<?xml version="1.0" encoding="UTF-8"?>
<svg xmlns="http://www.w3.org/2000/svg" xmlns:xlink="http://www.w3.org/1999/xlink" width="1129pt" height="517pt" viewBox="0 0 1129 517" version="1.1">
<g id="surface331">
<rect x="0" y="0" width="1129" height="517" style="fill:rgb(90%,90%,90%);fill-opacity:1;stroke:none;"/>
<path style="fill-rule:nonzero;fill:rgb(55%,51%,53%);fill-opacity:1;stroke-width:1;stroke-linecap:butt;stroke-linejoin:miter;stroke:rgb(0%,0%,0%);stroke-opacity:1;stroke-miterlimit:10;" d="M 381 212 L 410.664062 212 L 422.664062 183.785156 L 434.664062 212 L 464.332031 212 L 440.332031 229.4375 L 448.417969 260.980469 L 422.664062 243.542969 L 396.914062 260.980469 L 409.214844 229.4375 L 381 212 "/>
<path style="fill-rule:nonzero;fill:rgb(55%,51%,53%);fill-opacity:1;stroke-width:1;stroke-linecap:butt;stroke-linejoin:miter;stroke:rgb(0%,0%,0%);stroke-opacity:1;stroke-miterlimit:10;" d="M 283 265 L 312.664062 265 L 324.664062 236.785156 L 336.664062 265 L 366.332031 265 L 342.332031 282.4375 L 350.417969 313.980469 L 324.664062 296.542969 L 298.914062 313.980469 L 311.214844 282.4375 L 283 265 "/>
<path style="fill-rule:nonzero;fill:rgb(55%,51%,53%);fill-opacity:1;stroke-width:1;stroke-linecap:butt;stroke-linejoin:miter;stroke:rgb(0%,0%,0%);stroke-opacity:1;stroke-miterlimit:10;" d="M 620 74 L 649.664062 74 L 661.664062 45.785156 L 673.664062 74 L 703.332031 74 L 679.332031 91.4375 L 687.417969 122.980469 L 661.664062 105.542969 L 635.914062 122.980469 L 648.214844 91.4375 L 620 74 "/>
<path style="fill-rule:nonzero;fill:rgb(55%,51%,53%);fill-opacity:1;stroke-width:1;stroke-linecap:butt;stroke-linejoin:miter;stroke:rgb(0%,0%,0%);stroke-opacity:1;stroke-miterlimit:10;" d="M 725 85 L 754.664062 85 L 766.664062 56.785156 L 778.664062 85 L 808.332031 85 L 784.332031 102.4375 L 792.417969 133.980469 L 766.664062 116.542969 L 740.914062 133.980469 L 753.214844 102.4375 L 725 85 "/>
<path style="fill-rule:nonzero;fill:rgb(55%,51%,53%);fill-opacity:1;stroke-width:1;stroke-linecap:butt;stroke-linejoin:miter;stroke:rgb(0%,0%,0%);stroke-opacity:1;stroke-miterlimit:10;" d="M 162 259 L 191.664062 259 L 203.664062 230.785156 L 215.664062 259 L 245.332031 259 L 221.332031 276.4375 L 229.417969 307.980469 L 203.664062 290.542969 L 177.914062 307.980469 L 190.214844 276.4375 L 162 259 "/>
<path style="fill-rule:nonzero;fill:rgb(53%,27%,7%);fill-opacity:1;stroke-width:1;stroke-linecap:butt;stroke-linejoin:miter;stroke:rgb(0%,0%,0%);stroke-opacity:1;stroke-miterlimit:10;" d="M 594.214844 195 C 594.214844 206.714844 584.714844 216.214844 573 216.214844 C 561.285156 216.214844 551.785156 206.714844 551.785156 195 C 551.785156 183.285156 561.285156 173.785156 573 173.785156 C 584.714844 173.785156 594.214844 183.285156 594.214844 195 "/>
<path style="fill-rule:nonzero;fill:rgb(53%,27%,7%);fill-opacity:1;stroke-width:1;stroke-linecap:butt;stroke-linejoin:miter;stroke:rgb(0%,0%,0%);stroke-opacity:1;stroke-miterlimit:10;" d="M 267.214844 145 C 267.214844 156.714844 257.714844 166.214844 246 166.214844 C 234.285156 166.214844 224.785156 156.714844 224.785156 145 C 224.785156 133.285156 234.285156 123.785156 246 123.785156 C 257.714844 123.785156 267.214844 133.285156 267.214844 145 "/>
<path style="fill-rule:nonzero;fill:rgb(53%,27%,7%);fill-opacity:1;stroke-width:1;stroke-linecap:butt;stroke-linejoin:miter;stroke:rgb(0%,0%,0%);stroke-opacity:1;stroke-miterlimit:10;" d="M 140.214844 135 C 140.214844 146.714844 130.714844 156.214844 119 156.214844 C 107.285156 156.214844 97.785156 146.714844 97.785156 135 C 97.785156 123.285156 107.285156 113.785156 119 113.785156 C 130.714844 113.785156 140.214844 123.285156 140.214844 135 "/>
<path style="fill-rule:nonzero;fill:rgb(53%,27%,7%);fill-opacity:1;stroke-width:1;stroke-linecap:butt;stroke-linejoin:miter;stroke:rgb(0%,0%,0%);stroke-opacity:1;stroke-miterlimit:10;" d="M 170.214844 352 C 170.214844 363.714844 160.714844 373.214844 149 373.214844 C 137.285156 373.214844 127.785156 363.714844 127.785156 352 C 127.785156 340.285156 137.285156 330.785156 149 330.785156 C 160.714844 330.785156 170.214844 340.285156 170.214844 352 "/>
<path style="fill-rule:nonzero;fill:rgb(53%,27%,7%);fill-opacity:1;stroke-width:1;stroke-linecap:butt;stroke-linejoin:miter;stroke:rgb(0%,0%,0%);stroke-opacity:1;stroke-miterlimit:10;" d="M 359.214844 397 C 359.214844 408.714844 349.714844 418.214844 338 418.214844 C 326.285156 418.214844 316.785156 408.714844 316.785156 397 C 316.785156 385.285156 326.285156 375.785156 338 375.785156 C 349.714844 375.785156 359.214844 385.285156 359.214844 397 "/>
<path style="fill-rule:nonzero;fill:rgb(53%,27%,7%);fill-opacity:1;stroke-width:1;stroke-linecap:butt;stroke-linejoin:miter;stroke:rgb(0%,0%,0%);stroke-opacity:1;stroke-miterlimit:10;" d="M 409.214844 56 C 409.214844 67.714844 399.714844 77.214844 388 77.214844 C 376.285156 77.214844 366.785156 67.714844 366.785156 56 C 366.785156 44.285156 376.285156 34.785156 388 34.785156 C 399.714844 34.785156 409.214844 44.285156 409.214844 56 "/>
<path style="fill-rule:nonzero;fill:rgb(53%,27%,7%);fill-opacity:1;stroke-width:1;stroke-linecap:butt;stroke-linejoin:miter;stroke:rgb(0%,0%,0%);stroke-opacity:1;stroke-miterlimit:10;" d="M 603.214844 308 C 603.214844 319.714844 593.714844 329.214844 582 329.214844 C 570.285156 329.214844 560.785156 319.714844 560.785156 308 C 560.785156 296.285156 570.285156 286.785156 582 286.785156 C 593.714844 286.785156 603.214844 296.285156 603.214844 308 "/>
</g>
</svg>
