<?xml version="1.0" encoding="UTF-8"?>
<svg xmlns="http://www.w3.org/2000/svg" xmlns:xlink="http://www.w3.org/1999/xlink" width="1129pt" height="517pt" viewBox="0 0 1129 517" version="1.1">
<g id="surface921">
<rect x="0" y="0" width="1129" height="517" style="fill:rgb(90%,90%,90%);fill-opacity:1;stroke:none;"/>
<path style="fill-rule:nonzero;fill:rgb(100%,51%,0%);fill-opacity:1;stroke-width:1;stroke-linecap:butt;stroke-linejoin:miter;stroke:rgb(0%,0%,0%);stroke-opacity:1;stroke-miterlimit:10;" d="M 574.214844 141 C 574.214844 152.714844 564.714844 162.214844 553 162.214844 C 541.285156 162.214844 531.785156 152.714844 531.785156 141 C 531.785156 129.285156 541.285156 119.785156 553 119.785156 C 564.714844 119.785156 574.214844 129.285156 574.214844 141 "/>
<path style="fill-rule:nonzero;fill:rgb(100%,51%,0%);fill-opacity:1;stroke-width:1;stroke-linecap:butt;stroke-linejoin:miter;stroke:rgb(0%,0%,0%);stroke-opacity:1;stroke-miterlimit:10;" d="M 643.214844 434 C 643.214844 445.714844 633.714844 455.214844 622 455.214844 C 610.285156 455.214844 600.785156 445.714844 600.785156 434 C 600.785156 422.285156 610.285156 412.785156 622 412.785156 C 633.714844 412.785156 643.214844 422.285156 643.214844 434 "/>
<path style="fill-rule:nonzero;fill:rgb(100%,51%,0%);fill-opacity:1;stroke-width:1;stroke-linecap:butt;stroke-linejoin:miter;stroke:rgb(0%,0%,0%);stroke-opacity:1;stroke-miterlimit:10;" d="M 685.214844 251 C 685.214844 262.714844 675.714844 272.214844 664 272.214844 C 652.285156 272.214844 642.785156 262.714844 642.785156 251 C 642.785156 239.285156 652.285156 229.785156 664 229.785156 C 675.714844 229.785156 685.214844 239.285156 685.214844 251 "/>
<path style="fill-rule:nonzero;fill:rgb(100%,51%,0%);fill-opacity:1;stroke-width:1;stroke-linecap:butt;stroke-linejoin:miter;stroke:rgb(0%,0%,0%);stroke-opacity:1;stroke-miterlimit:10;" d="M 921.214844 225 C 921.214844 236.714844 911.714844 246.214844 900 246.214844 C 888.285156 246.214844 878.785156 236.714844 878.785156 225 C 878.785156 213.285156 888.285156 203.785156 900 203.785156 C 911.714844 203.785156 921.214844 213.285156 921.214844 225 "/>
<path style="fill-rule:nonzero;fill:rgb(100%,51%,0%);fill-opacity:1;stroke-width:1;stroke-linecap:butt;stroke-linejoin:miter;stroke:rgb(0%,0%,0%);stroke-opacity:1;stroke-miterlimit:10;" d="M 796.214844 257 C 796.214844 268.714844 786.714844 278.214844 775 278.214844 C 763.285156 278.214844 753.785156 268.714844 753.785156 257 C 753.785156 245.285156 763.285156 235.785156 775 235.785156 C 786.714844 235.785156 796.214844 245.285156 796.214844 257 "/>
<path style="fill-rule:nonzero;fill:rgb(35%,70%,90%);fill-opacity:1;stroke-width:1;stroke-linecap:butt;stroke-linejoin:miter;stroke:rgb(0%,0%,0%);stroke-opacity:1;stroke-miterlimit:10;" d="M 407 308 L 436.664062 308 L 448.664062 279.785156 L 460.664062 308 L 490.332031 308 L 466.332031 325.4375 L 474.417969 356.980469 L 448.664062 339.542969 L 422.914062 356.980469 L 435.214844 325.4375 L 407 308 "/>
<path style="fill-rule:nonzero;fill:rgb(35%,70%,90%);fill-opacity:1;stroke-width:1;stroke-linecap:butt;stroke-linejoin:miter;stroke:rgb(0%,0%,0%);stroke-opacity:1;stroke-miterlimit:10;" d="M 87 376 L 116.664062 376 L 128.664062 347.785156 L 140.664062 376 L 170.332031 376 L 146.332031 393.4375 L 154.417969 424.980469 L 128.664062 407.542969 L 102.914062 424.980469 L 115.214844 393.4375 L 87 376 "/>
<path style="fill-rule:nonzero;fill:rgb(35%,70%,90%);fill-opacity:1;stroke-width:1;stroke-linecap:butt;stroke-linejoin:miter;stroke:rgb(0%,0%,0%);stroke-opacity:1;stroke-miterlimit:10;" d="M 212 267 L 241.664062 267 L 253.664062 238.785156 L 265.664062 267 L 295.332031 267 L 271.332031 284.4375 L 279.417969 315.980469 L 253.664062 298.542969 L 227.914062 315.980469 L 240.214844 284.4375 L 212 267 "/>
<path style="fill-rule:nonzero;fill:rgb(35%,70%,90%);fill-opacity:1;stroke-width:1;stroke-linecap:butt;stroke-linejoin:miter;stroke:rgb(0%,0%,0%);stroke-opacity:1;stroke-miterlimit:10;" d="M 339 55 L 368.664062 55 L 380.664062 26.785156 L 392.664062 55 L 422.332031 55 L 398.332031 72.4375 L 406.417969 103.980469 L 380.664062 86.542969 L 354.914062 103.980469 L 367.214844 72.4375 L 339 55 "/>
<path style="fill-rule:nonzero;fill:rgb(35%,70%,90%);fill-opacity:1;stroke-width:1;stroke-linecap:butt;stroke-linejoin:miter;stroke:rgb(0%,0%,0%);stroke-opacity:1;stroke-miterlimit:10;" d="M 794 134 L 823.664062 134 L 835.664062 105.785156 L 847.664062 134 L 877.332031 134 L 853.332031 151.4375 L 861.417969 182.980469 L 835.664062 165.542969 L 809.914062 182.980469 L 822.214844 151.4375 L 794 134 "/>
<path style="fill-rule:nonzero;fill:rgb(35%,70%,90%);fill-opacity:1;stroke-width:1;stroke-linecap:butt;stroke-linejoin:miter;stroke:rgb(0%,0%,0%);stroke-opacity:1;stroke-miterlimit:10;" d="M 649 71 L 678.664062 71 L 690.664062 42.785156 L 702.664062 71 L 732.332031 71 L 708.332031 88.4375 L 716.417969 119.980469 L 690.664062 102.542969 L 664.914062 119.980469 L 677.214844 88.4375 L 649 71 "/>
<path style="fill-rule:nonzero;fill:rgb(35%,70%,90%);fill-opacity:1;stroke-width:1;stroke-linecap:butt;stroke-linejoin:miter;stroke:rgb(0%,0%,0%);stroke-opacity:1;stroke-miterlimit:10;" d="M 359 151 L 388.664062 151 L 400.664062 122.785156 L 412.664062 151 L 442.332031 151 L 418.332031 168.4375 L 426.417969 199.980469 L 400.664062 182.542969 L 374.914062 199.980469 L 387.214844 168.4375 L 359 151 "/>
<path style="fill-rule:nonzero;fill:rgb(35%,70%,90%);fill-opacity:1;stroke-width:1;stroke-linecap:butt;stroke-linejoin:miter;stroke:rgb(0%,0%,0%);stroke-opacity:1;stroke-miterlimit:10;" d="M 165 109 L 194.664062 109 L 206.664062 80.785156 L 218.664062 109 L 248.332031 109 L 224.332031 126.4375 L 232.417969 157.980469 L 206.664062 140.542969 L 180.914062 157.980469 L 193.214844 126.4375 L 165 109 "/>
</g>
</svg>
