<?xml version="1.0" encoding="UTF-8"?>
<svg xmlns="http://www.w3.org/2000/svg" xmlns:xlink="http://www.w3.org/1999/xlink" width="1129pt" height="517pt" viewBox="0 0 1129 517" version="1.1">
<g id="surface736">
<rect x="0" y="0" width="1129" height="517" style="fill:rgb(90%,90%,90%);fill-opacity:1;stroke:none;"/>
<path style="fill-rule:nonzero;fill:rgb(53%,27%,7%);fill-opacity:1;stroke-width:1;stroke-linecap:butt;stroke-linejoin:miter;stroke:rgb(0%,0%,0%);stroke-opacity:1;stroke-miterlimit:10;" d="M 771 265 L 800.664062 265 L 812.664062 236.785156 L 824.664062 265 L 854.332031 265 L 830.332031 282.4375 L 838.417969 313.980469 L 812.664062 296.542969 L 786.914062 313.980469 L 799.214844 282.4375 L 771 265 "/>
<path style="fill-rule:nonzero;fill:rgb(53%,27%,7%);fill-opacity:1;stroke-width:1;stroke-linecap:butt;stroke-linejoin:miter;stroke:rgb(0%,0%,0%);stroke-opacity:1;stroke-miterlimit:10;" d="M 383 336 L 412.664062 336 L 424.664062 307.785156 L 436.664062 336 L 466.332031 336 L 442.332031 353.4375 L 450.417969 384.980469 L 424.664062 367.542969 L 398.914062 384.980469 L 411.214844 353.4375 L 383 336 "/>
<path style="fill-rule:nonzero;fill:rgb(53%,27%,7%);fill-opacity:1;stroke-width:1;stroke-linecap:butt;stroke-linejoin:miter;stroke:rgb(0%,0%,0%);stroke-opacity:1;stroke-miterlimit:10;" d="M 328 174 L 357.664062 174 L 369.664062 145.785156 L 381.664062 174 L 411.332031 174 L 387.332031 191.4375 L 395.417969 222.980469 L 369.664062 205.542969 L 343.914062 222.980469 L 356.214844 191.4375 L 328 174 "/>
<path style="fill-rule:nonzero;fill:rgb(53%,27%,7%);fill-opacity:1;stroke-width:1;stroke-linecap:butt;stroke-linejoin:miter;stroke:rgb(0%,0%,0%);stroke-opacity:1;stroke-miterlimit:10;" d="M 924 158 L 953.664062 158 L 965.664062 129.785156 L 977.664062 158 L 1007.332031 158 L 983.332031 175.4375 L 991.417969 206.980469 L 965.664062 189.542969 L 939.914062 206.980469 L 952.214844 175.4375 L 924 158 "/>
<path style="fill-rule:nonzero;fill:rgb(53%,27%,7%);fill-opacity:1;stroke-width:1;stroke-linecap:butt;stroke-linejoin:miter;stroke:rgb(0%,0%,0%);stroke-opacity:1;stroke-miterlimit:10;" d="M 652 142 L 681.664062 142 L 693.664062 113.785156 L 705.664062 142 L 735.332031 142 L 711.332031 159.4375 L 719.417969 190.980469 L 693.664062 173.542969 L 667.914062 190.980469 L 680.214844 159.4375 L 652 142 "/>
<path style="fill-rule:nonzero;fill:rgb(55%,51%,53%);fill-opacity:1;stroke-width:1;stroke-linecap:butt;stroke-linejoin:miter;stroke:rgb(0%,0%,0%);stroke-opacity:1;stroke-miterlimit:10;" d="M 197 86 L 226.664062 86 L 238.664062 57.785156 L 250.664062 86 L 280.332031 86 L 256.332031 103.4375 L 264.417969 134.980469 L 238.664062 117.542969 L 212.914062 134.980469 L 225.214844 103.4375 L 197 86 "/>
<path style="fill-rule:nonzero;fill:rgb(55%,51%,53%);fill-opacity:1;stroke-width:1;stroke-linecap:butt;stroke-linejoin:miter;stroke:rgb(0%,0%,0%);stroke-opacity:1;stroke-miterlimit:10;" d="M 581 206 L 610.664062 206 L 622.664062 177.785156 L 634.664062 206 L 664.332031 206 L 640.332031 223.4375 L 648.417969 254.980469 L 622.664062 237.542969 L 596.914062 254.980469 L 609.214844 223.4375 L 581 206 "/>
<path style="fill-rule:nonzero;fill:rgb(55%,51%,53%);fill-opacity:1;stroke-width:1;stroke-linecap:butt;stroke-linejoin:miter;stroke:rgb(0%,0%,0%);stroke-opacity:1;stroke-miterlimit:10;" d="M 487 403 L 516.664062 403 L 528.664062 374.785156 L 540.664062 403 L 570.332031 403 L 546.332031 420.4375 L 554.417969 451.980469 L 528.664062 434.542969 L 502.914062 451.980469 L 515.214844 420.4375 L 487 403 "/>
<path style="fill-rule:nonzero;fill:rgb(55%,51%,53%);fill-opacity:1;stroke-width:1;stroke-linecap:butt;stroke-linejoin:miter;stroke:rgb(0%,0%,0%);stroke-opacity:1;stroke-miterlimit:10;" d="M 778 441 L 807.664062 441 L 819.664062 412.785156 L 831.664062 441 L 861.332031 441 L 837.332031 458.4375 L 845.417969 489.980469 L 819.664062 472.542969 L 793.914062 489.980469 L 806.214844 458.4375 L 778 441 "/>
<path style="fill-rule:nonzero;fill:rgb(55%,51%,53%);fill-opacity:1;stroke-width:1;stroke-linecap:butt;stroke-linejoin:miter;stroke:rgb(0%,0%,0%);stroke-opacity:1;stroke-miterlimit:10;" d="M 70 78 L 99.664062 78 L 111.664062 49.785156 L 123.664062 78 L 153.332031 78 L 129.332031 95.4375 L 137.417969 126.980469 L 111.664062 109.542969 L 85.914062 126.980469 L 98.214844 95.4375 L 70 78 "/>
<path style="fill-rule:nonzero;fill:rgb(55%,51%,53%);fill-opacity:1;stroke-width:1;stroke-linecap:butt;stroke-linejoin:miter;stroke:rgb(0%,0%,0%);stroke-opacity:1;stroke-miterlimit:10;" d="M 585 301 L 614.664062 301 L 626.664062 272.785156 L 638.664062 301 L 668.332031 301 L 644.332031 318.4375 L 652.417969 349.980469 L 626.664062 332.542969 L 600.914062 349.980469 L 613.214844 318.4375 L 585 301 "/>
<path style="fill-rule:nonzero;fill:rgb(55%,51%,53%);fill-opacity:1;stroke-width:1;stroke-linecap:butt;stroke-linejoin:miter;stroke:rgb(0%,0%,0%);stroke-opacity:1;stroke-miterlimit:10;" d="M 130 171 L 159.664062 171 L 171.664062 142.785156 L 183.664062 171 L 213.332031 171 L 189.332031 188.4375 L 197.417969 219.980469 L 171.664062 202.542969 L 145.914062 219.980469 L 158.214844 188.4375 L 130 171 "/>
<path style="fill-rule:nonzero;fill:rgb(55%,51%,53%);fill-opacity:1;stroke-width:1;stroke-linecap:butt;stroke-linejoin:miter;stroke:rgb(0%,0%,0%);stroke-opacity:1;stroke-miterlimit:10;" d="M 688 434 L 717.664062 434 L 729.664062 405.785156 L 741.664062 434 L 771.332031 434 L 747.332031 451.4375 L 755.417969 482.980469 L 729.664062 465.542969 L 703.914062 482.980469 L 716.214844 451.4375 L 688 434 "/>
</g>
</svg>
