<?xml version="1.0" encoding="UTF-8"?>
<svg xmlns="http://www.w3.org/2000/svg" xmlns:xlink="http://www.w3.org/1999/xlink" width="1129pt" height="517pt" viewBox="0 0 1129 517" version="1.1">
<g id="surface951">
<rect x="0" y="0" width="1129" height="517" style="fill:rgb(90%,90%,90%);fill-opacity:1;stroke:none;"/>
<path style="fill-rule:nonzero;fill:rgb(55%,51%,53%);fill-opacity:1;stroke-width:1;stroke-linecap:butt;stroke-linejoin:miter;stroke:rgb(0%,0%,0%);stroke-opacity:1;stroke-miterlimit:10;" d="M 420 92 L 394.019531 137 L 445.980469 137 L 420 92 "/>
<path style="fill-rule:nonzero;fill:rgb(55%,51%,53%);fill-opacity:1;stroke-width:1;stroke-linecap:butt;stroke-linejoin:miter;stroke:rgb(0%,0%,0%);stroke-opacity:1;stroke-miterlimit:10;" d="M 337 278 L 311.019531 323 L 362.980469 323 L 337 278 "/>
<path style="fill-rule:nonzero;fill:rgb(55%,51%,53%);fill-opacity:1;stroke-width:1;stroke-linecap:butt;stroke-linejoin:miter;stroke:rgb(0%,0%,0%);stroke-opacity:1;stroke-miterlimit:10;" d="M 73 385 L 47.019531 430 L 98.980469 430 L 73 385 "/>
<path style="fill-rule:nonzero;fill:rgb(55%,51%,53%);fill-opacity:1;stroke-width:1;stroke-linecap:butt;stroke-linejoin:miter;stroke:rgb(0%,0%,0%);stroke-opacity:1;stroke-miterlimit:10;" d="M 649 415 L 623.019531 460 L 674.980469 460 L 649 415 "/>
<path style="fill-rule:nonzero;fill:rgb(55%,51%,53%);fill-opacity:1;stroke-width:1;stroke-linecap:butt;stroke-linejoin:miter;stroke:rgb(0%,0%,0%);stroke-opacity:1;stroke-miterlimit:10;" d="M 962 138 L 936.019531 183 L 987.980469 183 L 962 138 "/>
<path style="fill-rule:nonzero;fill:rgb(55%,51%,53%);fill-opacity:1;stroke-width:1;stroke-linecap:butt;stroke-linejoin:miter;stroke:rgb(0%,0%,0%);stroke-opacity:1;stroke-miterlimit:10;" d="M 726 31 L 700.019531 76 L 751.980469 76 L 726 31 "/>
<path style="fill-rule:nonzero;fill:rgb(55%,51%,53%);fill-opacity:1;stroke-width:1;stroke-linecap:butt;stroke-linejoin:miter;stroke:rgb(0%,0%,0%);stroke-opacity:1;stroke-miterlimit:10;" d="M 306 158 L 280.019531 203 L 331.980469 203 L 306 158 "/>
<path style="fill-rule:nonzero;fill:rgb(55%,51%,53%);fill-opacity:1;stroke-width:1;stroke-linecap:butt;stroke-linejoin:miter;stroke:rgb(0%,0%,0%);stroke-opacity:1;stroke-miterlimit:10;" d="M 236 353 L 210.019531 398 L 261.980469 398 L 236 353 "/>
<path style="fill-rule:nonzero;fill:rgb(55%,51%,53%);fill-opacity:1;stroke-width:1;stroke-linecap:butt;stroke-linejoin:miter;stroke:rgb(0%,0%,0%);stroke-opacity:1;stroke-miterlimit:10;" d="M 303 90 L 332.664062 90 L 344.664062 61.785156 L 356.664062 90 L 386.332031 90 L 362.332031 107.4375 L 370.417969 138.980469 L 344.664062 121.542969 L 318.914062 138.980469 L 331.214844 107.4375 L 303 90 "/>
<path style="fill-rule:nonzero;fill:rgb(55%,51%,53%);fill-opacity:1;stroke-width:1;stroke-linecap:butt;stroke-linejoin:miter;stroke:rgb(0%,0%,0%);stroke-opacity:1;stroke-miterlimit:10;" d="M 381 390 L 410.664062 390 L 422.664062 361.785156 L 434.664062 390 L 464.332031 390 L 440.332031 407.4375 L 448.417969 438.980469 L 422.664062 421.542969 L 396.914062 438.980469 L 409.214844 407.4375 L 381 390 "/>
<path style="fill-rule:nonzero;fill:rgb(55%,51%,53%);fill-opacity:1;stroke-width:1;stroke-linecap:butt;stroke-linejoin:miter;stroke:rgb(0%,0%,0%);stroke-opacity:1;stroke-miterlimit:10;" d="M 874 91 L 903.664062 91 L 915.664062 62.785156 L 927.664062 91 L 957.332031 91 L 933.332031 108.4375 L 941.417969 139.980469 L 915.664062 122.542969 L 889.914062 139.980469 L 902.214844 108.4375 L 874 91 "/>
<path style="fill-rule:nonzero;fill:rgb(55%,51%,53%);fill-opacity:1;stroke-width:1;stroke-linecap:butt;stroke-linejoin:miter;stroke:rgb(0%,0%,0%);stroke-opacity:1;stroke-miterlimit:10;" d="M 778 179 L 807.664062 179 L 819.664062 150.785156 L 831.664062 179 L 861.332031 179 L 837.332031 196.4375 L 845.417969 227.980469 L 819.664062 210.542969 L 793.914062 227.980469 L 806.214844 196.4375 L 778 179 "/>
<path style="fill-rule:nonzero;fill:rgb(55%,51%,53%);fill-opacity:1;stroke-width:1;stroke-linecap:butt;stroke-linejoin:miter;stroke:rgb(0%,0%,0%);stroke-opacity:1;stroke-miterlimit:10;" d="M 639 108 L 668.664062 108 L 680.664062 79.785156 L 692.664062 108 L 722.332031 108 L 698.332031 125.4375 L 706.417969 156.980469 L 680.664062 139.542969 L 654.914062 156.980469 L 667.214844 125.4375 L 639 108 "/>
<path style="fill-rule:nonzero;fill:rgb(55%,51%,53%);fill-opacity:1;stroke-width:1;stroke-linecap:butt;stroke-linejoin:miter;stroke:rgb(0%,0%,0%);stroke-opacity:1;stroke-miterlimit:10;" d="M 918 282 L 947.664062 282 L 959.664062 253.785156 L 971.664062 282 L 1001.332031 282 L 977.332031 299.4375 L 985.417969 330.980469 L 959.664062 313.542969 L 933.914062 330.980469 L 946.214844 299.4375 L 918 282 "/>
<path style="fill-rule:nonzero;fill:rgb(55%,51%,53%);fill-opacity:1;stroke-width:1;stroke-linecap:butt;stroke-linejoin:miter;stroke:rgb(0%,0%,0%);stroke-opacity:1;stroke-miterlimit:10;" d="M 633 340 L 662.664062 340 L 674.664062 311.785156 L 686.664062 340 L 716.332031 340 L 692.332031 357.4375 L 700.417969 388.980469 L 674.664062 371.542969 L 648.914062 388.980469 L 661.214844 357.4375 L 633 340 "/>
</g>
</svg>
