<?xml version="1.0" encoding="UTF-8"?>
<svg xmlns="http://www.w3.org/2000/svg" xmlns:xlink="http://www.w3.org/1999/xlink" width="1129pt" height="517pt" viewBox="0 0 1129 517" version="1.1">
<g id="surface981">
<rect x="0" y="0" width="1129" height="517" style="fill:rgb(90%,90%,90%);fill-opacity:1;stroke:none;"/>
<path style="fill-rule:nonzero;fill:rgb(100%,0%,0%);fill-opacity:1;stroke-width:1;stroke-linecap:butt;stroke-linejoin:miter;stroke:rgb(0%,0%,0%);stroke-opacity:1;stroke-miterlimit:10;" d="M 701 142.601562 C 701 128.199219 677 128.199219 677 142.601562 C 677 157 701 159.398438 701 171.398438 C 701 159.398438 725 157 725 142.601562 C 725 128.199219 701 128.199219 701 142.601562 "/>
<path style="fill-rule:nonzero;fill:rgb(100%,0%,0%);fill-opacity:1;stroke-width:1;stroke-linecap:butt;stroke-linejoin:miter;stroke:rgb(0%,0%,0%);stroke-opacity:1;stroke-miterlimit:10;" d="M 120 154.601562 C 120 140.199219 96 140.199219 96 154.601562 C 96 169 120 171.398438 120 183.398438 C 120 171.398438 144 169 144 154.601562 C 144 140.199219 120 140.199219 120 154.601562 "/>
<path style="fill-rule:nonzero;fill:rgb(100%,0%,0%);fill-opacity:1;stroke-width:1;stroke-linecap:butt;stroke-linejoin:miter;stroke:rgb(0%,0%,0%);stroke-opacity:1;stroke-miterlimit:10;" d="M 492 260.601562 C 492 246.199219 468 246.199219 468 260.601562 C 468 275 492 277.398438 492 289.398438 C 492 277.398438 516 275 516 260.601562 C 516 246.199219 492 246.199219 492 260.601562 "/>
<path style="fill-rule:nonzero;fill:rgb(100%,0%,0%);fill-opacity:1;stroke-width:1;stroke-linecap:butt;stroke-linejoin:miter;stroke:rgb(0%,0%,0%);stroke-opacity:1;stroke-miterlimit:10;" d="M 922 398.601562 C 922 384.199219 898 384.199219 898 398.601562 C 898 413 922 415.398438 922 427.398438 C 922 415.398438 946 413 946 398.601562 C 946 384.199219 922 384.199219 922 398.601562 "/>
<path style="fill-rule:nonzero;fill:rgb(100%,0%,0%);fill-opacity:1;stroke-width:1;stroke-linecap:butt;stroke-linejoin:miter;stroke:rgb(0%,0%,0%);stroke-opacity:1;stroke-miterlimit:10;" d="M 199 375.601562 C 199 361.199219 175 361.199219 175 375.601562 C 175 390 199 392.398438 199 404.398438 C 199 392.398438 223 390 223 375.601562 C 223 361.199219 199 361.199219 199 375.601562 "/>
<path style="fill-rule:nonzero;fill:rgb(0%,0%,0%);fill-opacity:1;stroke-width:1;stroke-linecap:butt;stroke-linejoin:miter;stroke:rgb(0%,0%,0%);stroke-opacity:1;stroke-miterlimit:10;" d="M 620 244 L 600 244 L 600 254 L 620 254 L 620 274 L 630 274 L 630 254 L 650 254 L 650 244 L 630 244 L 630 224 L 620 224 L 620 244 "/>
<path style="fill-rule:nonzero;fill:rgb(0%,0%,0%);fill-opacity:1;stroke-width:1;stroke-linecap:butt;stroke-linejoin:miter;stroke:rgb(0%,0%,0%);stroke-opacity:1;stroke-miterlimit:10;" d="M 579 151 L 559 151 L 559 161 L 579 161 L 579 181 L 589 181 L 589 161 L 609 161 L 609 151 L 589 151 L 589 131 L 579 131 L 579 151 "/>
<path style="fill-rule:nonzero;fill:rgb(0%,0%,0%);fill-opacity:1;stroke-width:1;stroke-linecap:butt;stroke-linejoin:miter;stroke:rgb(0%,0%,0%);stroke-opacity:1;stroke-miterlimit:10;" d="M 814 343 L 794 343 L 794 353 L 814 353 L 814 373 L 824 373 L 824 353 L 844 353 L 844 343 L 824 343 L 824 323 L 814 323 L 814 343 "/>
<path style="fill-rule:nonzero;fill:rgb(0%,0%,0%);fill-opacity:1;stroke-width:1;stroke-linecap:butt;stroke-linejoin:miter;stroke:rgb(0%,0%,0%);stroke-opacity:1;stroke-miterlimit:10;" d="M 100 371 L 80 371 L 80 381 L 100 381 L 100 401 L 110 401 L 110 381 L 130 381 L 130 371 L 110 371 L 110 351 L 100 351 L 100 371 "/>
<path style="fill-rule:nonzero;fill:rgb(0%,0%,0%);fill-opacity:1;stroke-width:1;stroke-linecap:butt;stroke-linejoin:miter;stroke:rgb(0%,0%,0%);stroke-opacity:1;stroke-miterlimit:10;" d="M 286 422 L 266 422 L 266 432 L 286 432 L 286 452 L 296 452 L 296 432 L 316 432 L 316 422 L 296 422 L 296 402 L 286 402 L 286 422 "/>
<path style="fill-rule:nonzero;fill:rgb(0%,0%,0%);fill-opacity:1;stroke-width:1;stroke-linecap:butt;stroke-linejoin:miter;stroke:rgb(0%,0%,0%);stroke-opacity:1;stroke-miterlimit:10;" d="M 936 268 L 916 268 L 916 278 L 936 278 L 936 298 L 946 298 L 946 278 L 966 278 L 966 268 L 946 268 L 946 248 L 936 248 L 936 268 "/>
</g>
</svg>
