<?xml version="1.0" encoding="UTF-8"?>
<svg xmlns="http://www.w3.org/2000/svg" xmlns:xlink="http://www.w3.org/1999/xlink" width="1129pt" height="517pt" viewBox="0 0 1129 517" version="1.1">
<g id="surface906">
<rect x="0" y="0" width="1129" height="517" style="fill:rgb(90%,90%,90%);fill-opacity:1;stroke:none;"/>
<path style="fill-rule:nonzero;fill:rgb(55%,51%,53%);fill-opacity:1;stroke-width:1;stroke-linecap:butt;stroke-linejoin:miter;stroke:rgb(0%,0%,0%);stroke-opacity:1;stroke-miterlimit:10;" d="M 255 140 L 229.019531 185 L 280.980469 185 L 255 140 "/>
<path style="fill-rule:nonzero;fill:rgb(55%,51%,53%);fill-opacity:1;stroke-width:1;stroke-linecap:butt;stroke-linejoin:miter;stroke:rgb(0%,0%,0%);stroke-opacity:1;stroke-miterlimit:10;" d="M 558 196 L 532.019531 241 L 583.980469 241 L 558 196 "/>
<path style="fill-rule:nonzero;fill:rgb(55%,51%,53%);fill-opacity:1;stroke-width:1;stroke-linecap:butt;stroke-linejoin:miter;stroke:rgb(0%,0%,0%);stroke-opacity:1;stroke-miterlimit:10;" d="M 582 101 L 556.019531 146 L 607.980469 146 L 582 101 "/>
<path style="fill-rule:nonzero;fill:rgb(55%,51%,53%);fill-opacity:1;stroke-width:1;stroke-linecap:butt;stroke-linejoin:miter;stroke:rgb(0%,0%,0%);stroke-opacity:1;stroke-miterlimit:10;" d="M 390 148 L 364.019531 193 L 415.980469 193 L 390 148 "/>
<path style="fill-rule:nonzero;fill:rgb(55%,51%,53%);fill-opacity:1;stroke-width:1;stroke-linecap:butt;stroke-linejoin:miter;stroke:rgb(0%,0%,0%);stroke-opacity:1;stroke-miterlimit:10;" d="M 140 121 L 114.019531 166 L 165.980469 166 L 140 121 "/>
<path style="fill-rule:nonzero;fill:rgb(55%,51%,53%);fill-opacity:1;stroke-width:1;stroke-linecap:butt;stroke-linejoin:miter;stroke:rgb(0%,0%,0%);stroke-opacity:1;stroke-miterlimit:10;" d="M 769 377 L 743.019531 422 L 794.980469 422 L 769 377 "/>
<path style="fill-rule:nonzero;fill:rgb(55%,51%,53%);fill-opacity:1;stroke-width:1;stroke-linecap:butt;stroke-linejoin:miter;stroke:rgb(0%,0%,0%);stroke-opacity:1;stroke-miterlimit:10;" d="M 805 251 L 779.019531 296 L 830.980469 296 L 805 251 "/>
<path style="fill-rule:nonzero;fill:rgb(55%,51%,53%);fill-opacity:1;stroke-width:1;stroke-linecap:butt;stroke-linejoin:miter;stroke:rgb(0%,0%,0%);stroke-opacity:1;stroke-miterlimit:10;" d="M 195 215 L 169.019531 260 L 220.980469 260 L 195 215 "/>
<path style="fill-rule:nonzero;fill:rgb(55%,51%,53%);fill-opacity:1;stroke-width:1;stroke-linecap:butt;stroke-linejoin:miter;stroke:rgb(0%,0%,0%);stroke-opacity:1;stroke-miterlimit:10;" d="M 502 395 L 531.664062 395 L 543.664062 366.785156 L 555.664062 395 L 585.332031 395 L 561.332031 412.4375 L 569.417969 443.980469 L 543.664062 426.542969 L 517.914062 443.980469 L 530.214844 412.4375 L 502 395 "/>
<path style="fill-rule:nonzero;fill:rgb(55%,51%,53%);fill-opacity:1;stroke-width:1;stroke-linecap:butt;stroke-linejoin:miter;stroke:rgb(0%,0%,0%);stroke-opacity:1;stroke-miterlimit:10;" d="M 187 74 L 216.664062 74 L 228.664062 45.785156 L 240.664062 74 L 270.332031 74 L 246.332031 91.4375 L 254.417969 122.980469 L 228.664062 105.542969 L 202.914062 122.980469 L 215.214844 91.4375 L 187 74 "/>
<path style="fill-rule:nonzero;fill:rgb(55%,51%,53%);fill-opacity:1;stroke-width:1;stroke-linecap:butt;stroke-linejoin:miter;stroke:rgb(0%,0%,0%);stroke-opacity:1;stroke-miterlimit:10;" d="M 249 336 L 278.664062 336 L 290.664062 307.785156 L 302.664062 336 L 332.332031 336 L 308.332031 353.4375 L 316.417969 384.980469 L 290.664062 367.542969 L 264.914062 384.980469 L 277.214844 353.4375 L 249 336 "/>
<path style="fill-rule:nonzero;fill:rgb(55%,51%,53%);fill-opacity:1;stroke-width:1;stroke-linecap:butt;stroke-linejoin:miter;stroke:rgb(0%,0%,0%);stroke-opacity:1;stroke-miterlimit:10;" d="M 881 92 L 910.664062 92 L 922.664062 63.785156 L 934.664062 92 L 964.332031 92 L 940.332031 109.4375 L 948.417969 140.980469 L 922.664062 123.542969 L 896.914062 140.980469 L 909.214844 109.4375 L 881 92 "/>
<path style="fill-rule:nonzero;fill:rgb(55%,51%,53%);fill-opacity:1;stroke-width:1;stroke-linecap:butt;stroke-linejoin:miter;stroke:rgb(0%,0%,0%);stroke-opacity:1;stroke-miterlimit:10;" d="M 407 297 L 436.664062 297 L 448.664062 268.785156 L 460.664062 297 L 490.332031 297 L 466.332031 314.4375 L 474.417969 345.980469 L 448.664062 328.542969 L 422.914062 345.980469 L 435.214844 314.4375 L 407 297 "/>
<path style="fill-rule:nonzero;fill:rgb(55%,51%,53%);fill-opacity:1;stroke-width:1;stroke-linecap:butt;stroke-linejoin:miter;stroke:rgb(0%,0%,0%);stroke-opacity:1;stroke-miterlimit:10;" d="M 756 203 L 785.664062 203 L 797.664062 174.785156 L 809.664062 203 L 839.332031 203 L 815.332031 220.4375 L 823.417969 251.980469 L 797.664062 234.542969 L 771.914062 251.980469 L 784.214844 220.4375 L 756 203 "/>
<path style="fill-rule:nonzero;fill:rgb(55%,51%,53%);fill-opacity:1;stroke-width:1;stroke-linecap:butt;stroke-linejoin:miter;stroke:rgb(0%,0%,0%);stroke-opacity:1;stroke-miterlimit:10;" d="M 963 200 L 992.664062 200 L 1004.664062 171.785156 L 1016.664062 200 L 1046.332031 200 L 1022.332031 217.4375 L 1030.417969 248.980469 L 1004.664062 231.542969 L 978.914062 248.980469 L 991.214844 217.4375 L 963 200 "/>
</g>
</svg>
