<?xml version="1.0" encoding="UTF-8"?>
<svg xmlns="http://www.w3.org/2000/svg" xmlns:xlink="http://www.w3.org/1999/xlink" width="1129pt" height="517pt" viewBox="0 0 1129 517" version="1.1">
<g id="surface866">
<rect x="0" y="0" width="1129" height="517" style="fill:rgb(90%,90%,90%);fill-opacity:1;stroke:none;"/>
<path style="fill-rule:nonzero;fill:rgb(35%,70%,90%);fill-opacity:1;stroke-width:1;stroke-linecap:butt;stroke-linejoin:miter;stroke:rgb(0%,0%,0%);stroke-opacity:1;stroke-miterlimit:10;" d="M 67 80 L 96.664062 80 L 108.664062 51.785156 L 120.664062 80 L 150.332031 80 L 126.332031 97.4375 L 134.417969 128.980469 L 108.664062 111.542969 L 82.914062 128.980469 L 95.214844 97.4375 L 67 80 "/>
<path style="fill-rule:nonzero;fill:rgb(35%,70%,90%);fill-opacity:1;stroke-width:1;stroke-linecap:butt;stroke-linejoin:miter;stroke:rgb(0%,0%,0%);stroke-opacity:1;stroke-miterlimit:10;" d="M 956 312 L 985.664062 312 L 997.664062 283.785156 L 1009.664062 312 L 1039.332031 312 L 1015.332031 329.4375 L 1023.417969 360.980469 L 997.664062 343.542969 L 971.914062 360.980469 L 984.214844 329.4375 L 956 312 "/>
<path style="fill-rule:nonzero;fill:rgb(35%,70%,90%);fill-opacity:1;stroke-width:1;stroke-linecap:butt;stroke-linejoin:miter;stroke:rgb(0%,0%,0%);stroke-opacity:1;stroke-miterlimit:10;" d="M 75 282 L 104.664062 282 L 116.664062 253.785156 L 128.664062 282 L 158.332031 282 L 134.332031 299.4375 L 142.417969 330.980469 L 116.664062 313.542969 L 90.914062 330.980469 L 103.214844 299.4375 L 75 282 "/>
<path style="fill-rule:nonzero;fill:rgb(35%,70%,90%);fill-opacity:1;stroke-width:1;stroke-linecap:butt;stroke-linejoin:miter;stroke:rgb(0%,0%,0%);stroke-opacity:1;stroke-miterlimit:10;" d="M 796 243 L 825.664062 243 L 837.664062 214.785156 L 849.664062 243 L 879.332031 243 L 855.332031 260.4375 L 863.417969 291.980469 L 837.664062 274.542969 L 811.914062 291.980469 L 824.214844 260.4375 L 796 243 "/>
<path style="fill-rule:nonzero;fill:rgb(35%,70%,90%);fill-opacity:1;stroke-width:1;stroke-linecap:butt;stroke-linejoin:miter;stroke:rgb(0%,0%,0%);stroke-opacity:1;stroke-miterlimit:10;" d="M 831 55 L 860.664062 55 L 872.664062 26.785156 L 884.664062 55 L 914.332031 55 L 890.332031 72.4375 L 898.417969 103.980469 L 872.664062 86.542969 L 846.914062 103.980469 L 859.214844 72.4375 L 831 55 "/>
<path style="fill-rule:nonzero;fill:rgb(35%,70%,90%);fill-opacity:1;stroke-width:1;stroke-linecap:butt;stroke-linejoin:miter;stroke:rgb(0%,0%,0%);stroke-opacity:1;stroke-miterlimit:10;" d="M 440 338 L 469.664062 338 L 481.664062 309.785156 L 493.664062 338 L 523.332031 338 L 499.332031 355.4375 L 507.417969 386.980469 L 481.664062 369.542969 L 455.914062 386.980469 L 468.214844 355.4375 L 440 338 "/>
<path style="fill-rule:nonzero;fill:rgb(55%,51%,53%);fill-opacity:1;stroke-width:1;stroke-linecap:butt;stroke-linejoin:miter;stroke:rgb(0%,0%,0%);stroke-opacity:1;stroke-miterlimit:10;" d="M 585.214844 308 C 585.214844 319.714844 575.714844 329.214844 564 329.214844 C 552.285156 329.214844 542.785156 319.714844 542.785156 308 C 542.785156 296.285156 552.285156 286.785156 564 286.785156 C 575.714844 286.785156 585.214844 296.285156 585.214844 308 "/>
<path style="fill-rule:nonzero;fill:rgb(55%,51%,53%);fill-opacity:1;stroke-width:1;stroke-linecap:butt;stroke-linejoin:miter;stroke:rgb(0%,0%,0%);stroke-opacity:1;stroke-miterlimit:10;" d="M 235.214844 313 C 235.214844 324.714844 225.714844 334.214844 214 334.214844 C 202.285156 334.214844 192.785156 324.714844 192.785156 313 C 192.785156 301.285156 202.285156 291.785156 214 291.785156 C 225.714844 291.785156 235.214844 301.285156 235.214844 313 "/>
<path style="fill-rule:nonzero;fill:rgb(55%,51%,53%);fill-opacity:1;stroke-width:1;stroke-linecap:butt;stroke-linejoin:miter;stroke:rgb(0%,0%,0%);stroke-opacity:1;stroke-miterlimit:10;" d="M 248.214844 101 C 248.214844 112.714844 238.714844 122.214844 227 122.214844 C 215.285156 122.214844 205.785156 112.714844 205.785156 101 C 205.785156 89.285156 215.285156 79.785156 227 79.785156 C 238.714844 79.785156 248.214844 89.285156 248.214844 101 "/>
<path style="fill-rule:nonzero;fill:rgb(55%,51%,53%);fill-opacity:1;stroke-width:1;stroke-linecap:butt;stroke-linejoin:miter;stroke:rgb(0%,0%,0%);stroke-opacity:1;stroke-miterlimit:10;" d="M 343.214844 142 C 343.214844 153.714844 333.714844 163.214844 322 163.214844 C 310.285156 163.214844 300.785156 153.714844 300.785156 142 C 300.785156 130.285156 310.285156 120.785156 322 120.785156 C 333.714844 120.785156 343.214844 130.285156 343.214844 142 "/>
<path style="fill-rule:nonzero;fill:rgb(55%,51%,53%);fill-opacity:1;stroke-width:1;stroke-linecap:butt;stroke-linejoin:miter;stroke:rgb(0%,0%,0%);stroke-opacity:1;stroke-miterlimit:10;" d="M 826.214844 335 C 826.214844 346.714844 816.714844 356.214844 805 356.214844 C 793.285156 356.214844 783.785156 346.714844 783.785156 335 C 783.785156 323.285156 793.285156 313.785156 805 313.785156 C 816.714844 313.785156 826.214844 323.285156 826.214844 335 "/>
<path style="fill-rule:nonzero;fill:rgb(55%,51%,53%);fill-opacity:1;stroke-width:1;stroke-linecap:butt;stroke-linejoin:miter;stroke:rgb(0%,0%,0%);stroke-opacity:1;stroke-miterlimit:10;" d="M 512.214844 121 C 512.214844 132.714844 502.714844 142.214844 491 142.214844 C 479.285156 142.214844 469.785156 132.714844 469.785156 121 C 469.785156 109.285156 479.285156 99.785156 491 99.785156 C 502.714844 99.785156 512.214844 109.285156 512.214844 121 "/>
<path style="fill-rule:nonzero;fill:rgb(55%,51%,53%);fill-opacity:1;stroke-width:1;stroke-linecap:butt;stroke-linejoin:miter;stroke:rgb(0%,0%,0%);stroke-opacity:1;stroke-miterlimit:10;" d="M 951.214844 419 C 951.214844 430.714844 941.714844 440.214844 930 440.214844 C 918.285156 440.214844 908.785156 430.714844 908.785156 419 C 908.785156 407.285156 918.285156 397.785156 930 397.785156 C 941.714844 397.785156 951.214844 407.285156 951.214844 419 "/>
<path style="fill-rule:nonzero;fill:rgb(55%,51%,53%);fill-opacity:1;stroke-width:1;stroke-linecap:butt;stroke-linejoin:miter;stroke:rgb(0%,0%,0%);stroke-opacity:1;stroke-miterlimit:10;" d="M 237.214844 207 C 237.214844 218.714844 227.714844 228.214844 216 228.214844 C 204.285156 228.214844 194.785156 218.714844 194.785156 207 C 194.785156 195.285156 204.285156 185.785156 216 185.785156 C 227.714844 185.785156 237.214844 195.285156 237.214844 207 "/>
</g>
</svg>
