<?xml version="1.0" encoding="UTF-8"?>
<svg xmlns="http://www.w3.org/2000/svg" xmlns:xlink="http://www.w3.org/1999/xlink" width="1129pt" height="517pt" viewBox="0 0 1129 517" version="1.1">
<g id="surface171">
<rect x="0" y="0" width="1129" height="517" style="fill:rgb(90%,90%,90%);fill-opacity:1;stroke:none;"/>
<path style="fill-rule:nonzero;fill:rgb(55%,51%,53%);fill-opacity:1;stroke-width:1;stroke-linecap:butt;stroke-linejoin:miter;stroke:rgb(0%,0%,0%);stroke-opacity:1;stroke-miterlimit:10;" d="M 397.214844 441 C 397.214844 452.714844 387.714844 462.214844 376 462.214844 C 364.285156 462.214844 354.785156 452.714844 354.785156 441 C 354.785156 429.285156 364.285156 419.785156 376 419.785156 C 387.714844 419.785156 397.214844 429.285156 397.214844 441 "/>
<path style="fill-rule:nonzero;fill:rgb(53%,27%,7%);fill-opacity:1;stroke-width:1;stroke-linecap:butt;stroke-linejoin:miter;stroke:rgb(0%,0%,0%);stroke-opacity:1;stroke-miterlimit:10;" d="M 461.214844 336 C 461.214844 347.714844 451.714844 357.214844 440 357.214844 C 428.285156 357.214844 418.785156 347.714844 418.785156 336 C 418.785156 324.285156 428.285156 314.785156 440 314.785156 C 451.714844 314.785156 461.214844 324.285156 461.214844 336 "/>
<path style="fill-rule:nonzero;fill:rgb(55%,51%,53%);fill-opacity:1;stroke-width:1;stroke-linecap:butt;stroke-linejoin:miter;stroke:rgb(0%,0%,0%);stroke-opacity:1;stroke-miterlimit:10;" d="M 127.214844 449 C 127.214844 460.714844 117.714844 470.214844 106 470.214844 C 94.285156 470.214844 84.785156 460.714844 84.785156 449 C 84.785156 437.285156 94.285156 427.785156 106 427.785156 C 117.714844 427.785156 127.214844 437.285156 127.214844 449 "/>
<path style="fill-rule:nonzero;fill:rgb(53%,27%,7%);fill-opacity:1;stroke-width:1;stroke-linecap:butt;stroke-linejoin:miter;stroke:rgb(0%,0%,0%);stroke-opacity:1;stroke-miterlimit:10;" d="M 123.214844 201 C 123.214844 212.714844 113.714844 222.214844 102 222.214844 C 90.285156 222.214844 80.785156 212.714844 80.785156 201 C 80.785156 189.285156 90.285156 179.785156 102 179.785156 C 113.714844 179.785156 123.214844 189.285156 123.214844 201 "/>
<path style="fill-rule:nonzero;fill:rgb(55%,51%,53%);fill-opacity:1;stroke-width:1;stroke-linecap:butt;stroke-linejoin:miter;stroke:rgb(0%,0%,0%);stroke-opacity:1;stroke-miterlimit:10;" d="M 318.214844 100 C 318.214844 111.714844 308.714844 121.214844 297 121.214844 C 285.285156 121.214844 275.785156 111.714844 275.785156 100 C 275.785156 88.285156 285.285156 78.785156 297 78.785156 C 308.714844 78.785156 318.214844 88.285156 318.214844 100 "/>
<path style="fill-rule:nonzero;fill:rgb(55%,51%,53%);fill-opacity:1;stroke-width:1;stroke-linecap:butt;stroke-linejoin:miter;stroke:rgb(0%,0%,0%);stroke-opacity:1;stroke-miterlimit:10;" d="M 362.214844 238 C 362.214844 249.714844 352.714844 259.214844 341 259.214844 C 329.285156 259.214844 319.785156 249.714844 319.785156 238 C 319.785156 226.285156 329.285156 216.785156 341 216.785156 C 352.714844 216.785156 362.214844 226.285156 362.214844 238 "/>
<path style="fill-rule:nonzero;fill:rgb(55%,51%,53%);fill-opacity:1;stroke-width:1;stroke-linecap:butt;stroke-linejoin:miter;stroke:rgb(0%,0%,0%);stroke-opacity:1;stroke-miterlimit:10;" d="M 179.214844 86 C 179.214844 97.714844 169.714844 107.214844 158 107.214844 C 146.285156 107.214844 136.785156 97.714844 136.785156 86 C 136.785156 74.285156 146.285156 64.785156 158 64.785156 C 169.714844 64.785156 179.214844 74.285156 179.214844 86 "/>
<path style="fill-rule:nonzero;fill:rgb(55%,51%,53%);fill-opacity:1;stroke-width:1;stroke-linecap:butt;stroke-linejoin:miter;stroke:rgb(0%,0%,0%);stroke-opacity:1;stroke-miterlimit:10;" d="M 465.214844 136 C 465.214844 147.714844 455.714844 157.214844 444 157.214844 C 432.285156 157.214844 422.785156 147.714844 422.785156 136 C 422.785156 124.285156 432.285156 114.785156 444 114.785156 C 455.714844 114.785156 465.214844 124.285156 465.214844 136 "/>
<path style="fill-rule:nonzero;fill:rgb(53%,27%,7%);fill-opacity:1;stroke-width:1;stroke-linecap:butt;stroke-linejoin:miter;stroke:rgb(0%,0%,0%);stroke-opacity:1;stroke-miterlimit:10;" d="M 645.785156 343.785156 L 645.785156 386.214844 L 688.214844 386.214844 L 688.214844 343.785156 L 645.785156 343.785156 "/>
<path style="fill-rule:nonzero;fill:rgb(55%,51%,53%);fill-opacity:1;stroke-width:1;stroke-linecap:butt;stroke-linejoin:miter;stroke:rgb(0%,0%,0%);stroke-opacity:1;stroke-miterlimit:10;" d="M 613.785156 55.785156 L 613.785156 98.214844 L 656.214844 98.214844 L 656.214844 55.785156 L 613.785156 55.785156 "/>
<path style="fill-rule:nonzero;fill:rgb(53%,27%,7%);fill-opacity:1;stroke-width:1;stroke-linecap:butt;stroke-linejoin:miter;stroke:rgb(0%,0%,0%);stroke-opacity:1;stroke-miterlimit:10;" d="M 625.785156 184.785156 L 625.785156 227.214844 L 668.214844 227.214844 L 668.214844 184.785156 L 625.785156 184.785156 "/>
<path style="fill-rule:nonzero;fill:rgb(55%,51%,53%);fill-opacity:1;stroke-width:1;stroke-linecap:butt;stroke-linejoin:miter;stroke:rgb(0%,0%,0%);stroke-opacity:1;stroke-miterlimit:10;" d="M 773.785156 314.785156 L 773.785156 357.214844 L 816.214844 357.214844 L 816.214844 314.785156 L 773.785156 314.785156 "/>
<path style="fill-rule:nonzero;fill:rgb(53%,27%,7%);fill-opacity:1;stroke-width:1;stroke-linecap:butt;stroke-linejoin:miter;stroke:rgb(0%,0%,0%);stroke-opacity:1;stroke-miterlimit:10;" d="M 946.785156 325.785156 L 946.785156 368.214844 L 989.214844 368.214844 L 989.214844 325.785156 L 946.785156 325.785156 "/>
<path style="fill-rule:nonzero;fill:rgb(53%,27%,7%);fill-opacity:1;stroke-width:1;stroke-linecap:butt;stroke-linejoin:miter;stroke:rgb(0%,0%,0%);stroke-opacity:1;stroke-miterlimit:10;" d="M 990.785156 88.785156 L 990.785156 131.214844 L 1033.214844 131.214844 L 1033.214844 88.785156 L 990.785156 88.785156 "/>
<path style="fill-rule:nonzero;fill:rgb(53%,27%,7%);fill-opacity:1;stroke-width:1;stroke-linecap:butt;stroke-linejoin:miter;stroke:rgb(0%,0%,0%);stroke-opacity:1;stroke-miterlimit:10;" d="M 804.785156 45.785156 L 804.785156 88.214844 L 847.214844 88.214844 L 847.214844 45.785156 L 804.785156 45.785156 "/>
<path style="fill-rule:nonzero;fill:rgb(53%,27%,7%);fill-opacity:1;stroke-width:1;stroke-linecap:butt;stroke-linejoin:miter;stroke:rgb(0%,0%,0%);stroke-opacity:1;stroke-miterlimit:10;" d="M 593.785156 424.785156 L 593.785156 467.214844 L 636.214844 467.214844 L 636.214844 424.785156 L 593.785156 424.785156 "/>
</g>
</svg>
