<?xml version="1.0" encoding="UTF-8"?>
<svg xmlns="http://www.w3.org/2000/svg" xmlns:xlink="http://www.w3.org/1999/xlink" width="1129pt" height="517pt" viewBox="0 0 1129 517" version="1.1">
<g id="surface411">
<rect x="0" y="0" width="1129" height="517" style="fill:rgb(90%,90%,90%);fill-opacity:1;stroke:none;"/>
<path style="fill-rule:nonzero;fill:rgb(35%,70%,90%);fill-opacity:1;stroke-width:1;stroke-linecap:butt;stroke-linejoin:miter;stroke:rgb(0%,0%,0%);stroke-opacity:1;stroke-miterlimit:10;" d="M 185.214844 353 C 185.214844 364.714844 175.714844 374.214844 164 374.214844 C 152.285156 374.214844 142.785156 364.714844 142.785156 353 C 142.785156 341.285156 152.285156 331.785156 164 331.785156 C 175.714844 331.785156 185.214844 341.285156 185.214844 353 "/>
<path style="fill-rule:nonzero;fill:rgb(35%,70%,90%);fill-opacity:1;stroke-width:1;stroke-linecap:butt;stroke-linejoin:miter;stroke:rgb(0%,0%,0%);stroke-opacity:1;stroke-miterlimit:10;" d="M 370.214844 401 C 370.214844 412.714844 360.714844 422.214844 349 422.214844 C 337.285156 422.214844 327.785156 412.714844 327.785156 401 C 327.785156 389.285156 337.285156 379.785156 349 379.785156 C 360.714844 379.785156 370.214844 389.285156 370.214844 401 "/>
<path style="fill-rule:nonzero;fill:rgb(53%,27%,7%);fill-opacity:1;stroke-width:1;stroke-linecap:butt;stroke-linejoin:miter;stroke:rgb(0%,0%,0%);stroke-opacity:1;stroke-miterlimit:10;" d="M 113.214844 127 C 113.214844 138.714844 103.714844 148.214844 92 148.214844 C 80.285156 148.214844 70.785156 138.714844 70.785156 127 C 70.785156 115.285156 80.285156 105.785156 92 105.785156 C 103.714844 105.785156 113.214844 115.285156 113.214844 127 "/>
<path style="fill-rule:nonzero;fill:rgb(53%,27%,7%);fill-opacity:1;stroke-width:1;stroke-linecap:butt;stroke-linejoin:miter;stroke:rgb(0%,0%,0%);stroke-opacity:1;stroke-miterlimit:10;" d="M 453.214844 248 C 453.214844 259.714844 443.714844 269.214844 432 269.214844 C 420.285156 269.214844 410.785156 259.714844 410.785156 248 C 410.785156 236.285156 420.285156 226.785156 432 226.785156 C 443.714844 226.785156 453.214844 236.285156 453.214844 248 "/>
<path style="fill-rule:nonzero;fill:rgb(35%,70%,90%);fill-opacity:1;stroke-width:1;stroke-linecap:butt;stroke-linejoin:miter;stroke:rgb(0%,0%,0%);stroke-opacity:1;stroke-miterlimit:10;" d="M 325.214844 281 C 325.214844 292.714844 315.714844 302.214844 304 302.214844 C 292.285156 302.214844 282.785156 292.714844 282.785156 281 C 282.785156 269.285156 292.285156 259.785156 304 259.785156 C 315.714844 259.785156 325.214844 269.285156 325.214844 281 "/>
<path style="fill-rule:nonzero;fill:rgb(35%,70%,90%);fill-opacity:1;stroke-width:1;stroke-linecap:butt;stroke-linejoin:miter;stroke:rgb(0%,0%,0%);stroke-opacity:1;stroke-miterlimit:10;" d="M 361.214844 91 C 361.214844 102.714844 351.714844 112.214844 340 112.214844 C 328.285156 112.214844 318.785156 102.714844 318.785156 91 C 318.785156 79.285156 328.285156 69.785156 340 69.785156 C 351.714844 69.785156 361.214844 79.285156 361.214844 91 "/>
<path style="fill-rule:nonzero;fill:rgb(53%,27%,7%);fill-opacity:1;stroke-width:1;stroke-linecap:butt;stroke-linejoin:miter;stroke:rgb(0%,0%,0%);stroke-opacity:1;stroke-miterlimit:10;" d="M 984.785156 198.785156 L 984.785156 241.214844 L 1027.214844 241.214844 L 1027.214844 198.785156 L 984.785156 198.785156 "/>
<path style="fill-rule:nonzero;fill:rgb(53%,27%,7%);fill-opacity:1;stroke-width:1;stroke-linecap:butt;stroke-linejoin:miter;stroke:rgb(0%,0%,0%);stroke-opacity:1;stroke-miterlimit:10;" d="M 745.785156 225.785156 L 745.785156 268.214844 L 788.214844 268.214844 L 788.214844 225.785156 L 745.785156 225.785156 "/>
<path style="fill-rule:nonzero;fill:rgb(35%,70%,90%);fill-opacity:1;stroke-width:1;stroke-linecap:butt;stroke-linejoin:miter;stroke:rgb(0%,0%,0%);stroke-opacity:1;stroke-miterlimit:10;" d="M 696.785156 121.785156 L 696.785156 164.214844 L 739.214844 164.214844 L 739.214844 121.785156 L 696.785156 121.785156 "/>
<path style="fill-rule:nonzero;fill:rgb(35%,70%,90%);fill-opacity:1;stroke-width:1;stroke-linecap:butt;stroke-linejoin:miter;stroke:rgb(0%,0%,0%);stroke-opacity:1;stroke-miterlimit:10;" d="M 703.785156 333.785156 L 703.785156 376.214844 L 746.214844 376.214844 L 746.214844 333.785156 L 703.785156 333.785156 "/>
<path style="fill-rule:nonzero;fill:rgb(53%,27%,7%);fill-opacity:1;stroke-width:1;stroke-linecap:butt;stroke-linejoin:miter;stroke:rgb(0%,0%,0%);stroke-opacity:1;stroke-miterlimit:10;" d="M 923.785156 387.785156 L 923.785156 430.214844 L 966.214844 430.214844 L 966.214844 387.785156 L 923.785156 387.785156 "/>
<path style="fill-rule:nonzero;fill:rgb(53%,27%,7%);fill-opacity:1;stroke-width:1;stroke-linecap:butt;stroke-linejoin:miter;stroke:rgb(0%,0%,0%);stroke-opacity:1;stroke-miterlimit:10;" d="M 839.785156 85.785156 L 839.785156 128.214844 L 882.214844 128.214844 L 882.214844 85.785156 L 839.785156 85.785156 "/>
<path style="fill-rule:nonzero;fill:rgb(53%,27%,7%);fill-opacity:1;stroke-width:1;stroke-linecap:butt;stroke-linejoin:miter;stroke:rgb(0%,0%,0%);stroke-opacity:1;stroke-miterlimit:10;" d="M 992.785156 53.785156 L 992.785156 96.214844 L 1035.214844 96.214844 L 1035.214844 53.785156 L 992.785156 53.785156 "/>
<path style="fill-rule:nonzero;fill:rgb(53%,27%,7%);fill-opacity:1;stroke-width:1;stroke-linecap:butt;stroke-linejoin:miter;stroke:rgb(0%,0%,0%);stroke-opacity:1;stroke-miterlimit:10;" d="M 807.785156 369.785156 L 807.785156 412.214844 L 850.214844 412.214844 L 850.214844 369.785156 L 807.785156 369.785156 "/>
</g>
</svg>
