<?xml version="1.0" encoding="UTF-8"?>
<svg xmlns="http://www.w3.org/2000/svg" xmlns:xlink="http://www.w3.org/1999/xlink" width="1179pt" height="517pt" viewBox="0 0 1179 517" version="1.1">
<g id="surface671">
<rect x="0" y="0" width="1179" height="517" style="fill:rgb(90%,90%,90%);fill-opacity:1;stroke:none;"/>
<path style="fill-rule:nonzero;fill:rgb(100%,51%,0%);fill-opacity:1;stroke-width:1;stroke-linecap:butt;stroke-linejoin:miter;stroke:rgb(0%,0%,0%);stroke-opacity:1;stroke-miterlimit:10;" d="M 359 188 L 388.664062 188 L 400.664062 159.785156 L 412.664062 188 L 442.332031 188 L 418.332031 205.4375 L 426.417969 236.980469 L 400.664062 219.542969 L 374.914062 236.980469 L 387.214844 205.4375 L 359 188 "/>
<path style="fill-rule:nonzero;fill:rgb(55%,51%,53%);fill-opacity:1;stroke-width:1;stroke-linecap:butt;stroke-linejoin:miter;stroke:rgb(0%,0%,0%);stroke-opacity:1;stroke-miterlimit:10;" d="M 261 341 L 290.664062 341 L 302.664062 312.785156 L 314.664062 341 L 344.332031 341 L 320.332031 358.4375 L 328.417969 389.980469 L 302.664062 372.542969 L 276.914062 389.980469 L 289.214844 358.4375 L 261 341 "/>
<path style="fill-rule:nonzero;fill:rgb(100%,51%,0%);fill-opacity:1;stroke-width:1;stroke-linecap:butt;stroke-linejoin:miter;stroke:rgb(0%,0%,0%);stroke-opacity:1;stroke-miterlimit:10;" d="M 83 353 L 112.664062 353 L 124.664062 324.785156 L 136.664062 353 L 166.332031 353 L 142.332031 370.4375 L 150.417969 401.980469 L 124.664062 384.542969 L 98.914062 401.980469 L 111.214844 370.4375 L 83 353 "/>
<path style="fill-rule:nonzero;fill:rgb(55%,51%,53%);fill-opacity:1;stroke-width:1;stroke-linecap:butt;stroke-linejoin:miter;stroke:rgb(0%,0%,0%);stroke-opacity:1;stroke-miterlimit:10;" d="M 100 130 L 129.664062 130 L 141.664062 101.785156 L 153.664062 130 L 183.332031 130 L 159.332031 147.4375 L 167.417969 178.980469 L 141.664062 161.542969 L 115.914062 178.980469 L 128.214844 147.4375 L 100 130 "/>
<path style="fill-rule:nonzero;fill:rgb(55%,51%,53%);fill-opacity:1;stroke-width:1;stroke-linecap:butt;stroke-linejoin:miter;stroke:rgb(0%,0%,0%);stroke-opacity:1;stroke-miterlimit:10;" d="M 1011.785156 298.785156 L 1011.785156 341.214844 L 1054.214844 341.214844 L 1054.214844 298.785156 L 1011.785156 298.785156 "/>
<path style="fill-rule:nonzero;fill:rgb(100%,51%,0%);fill-opacity:1;stroke-width:1;stroke-linecap:butt;stroke-linejoin:miter;stroke:rgb(0%,0%,0%);stroke-opacity:1;stroke-miterlimit:10;" d="M 836.785156 135.785156 L 836.785156 178.214844 L 879.214844 178.214844 L 879.214844 135.785156 L 836.785156 135.785156 "/>
<path style="fill-rule:nonzero;fill:rgb(55%,51%,53%);fill-opacity:1;stroke-width:1;stroke-linecap:butt;stroke-linejoin:miter;stroke:rgb(0%,0%,0%);stroke-opacity:1;stroke-miterlimit:10;" d="M 856.785156 239.785156 L 856.785156 282.214844 L 899.214844 282.214844 L 899.214844 239.785156 L 856.785156 239.785156 "/>
<path style="fill-rule:nonzero;fill:rgb(100%,51%,0%);fill-opacity:1;stroke-width:1;stroke-linecap:butt;stroke-linejoin:miter;stroke:rgb(0%,0%,0%);stroke-opacity:1;stroke-miterlimit:10;" d="M 919.785156 363.785156 L 919.785156 406.214844 L 962.214844 406.214844 L 962.214844 363.785156 L 919.785156 363.785156 "/>
<path style="fill-rule:nonzero;fill:rgb(55%,51%,53%);fill-opacity:1;stroke-width:1;stroke-linecap:butt;stroke-linejoin:miter;stroke:rgb(0%,0%,0%);stroke-opacity:1;stroke-miterlimit:10;" d="M 911.785156 76.785156 L 911.785156 119.214844 L 954.214844 119.214844 L 954.214844 76.785156 L 911.785156 76.785156 "/>
</g>
</svg>
