<?xml version="1.0" encoding="UTF-8"?>
<svg xmlns="http://www.w3.org/2000/svg" xmlns:xlink="http://www.w3.org/1999/xlink" width="1129pt" height="517pt" viewBox="0 0 1129 517" version="1.1">
<g id="surface826">
<rect x="0" y="0" width="1129" height="517" style="fill:rgb(90%,90%,90%);fill-opacity:1;stroke:none;"/>
<path style="fill-rule:nonzero;fill:rgb(53%,27%,7%);fill-opacity:1;stroke-width:1;stroke-linecap:butt;stroke-linejoin:miter;stroke:rgb(0%,0%,0%);stroke-opacity:1;stroke-miterlimit:10;" d="M 214 189 L 243.664062 189 L 255.664062 160.785156 L 267.664062 189 L 297.332031 189 L 273.332031 206.4375 L 281.417969 237.980469 L 255.664062 220.542969 L 229.914062 237.980469 L 242.214844 206.4375 L 214 189 "/>
<path style="fill-rule:nonzero;fill:rgb(53%,27%,7%);fill-opacity:1;stroke-width:1;stroke-linecap:butt;stroke-linejoin:miter;stroke:rgb(0%,0%,0%);stroke-opacity:1;stroke-miterlimit:10;" d="M 349 64 L 378.664062 64 L 390.664062 35.785156 L 402.664062 64 L 432.332031 64 L 408.332031 81.4375 L 416.417969 112.980469 L 390.664062 95.542969 L 364.914062 112.980469 L 377.214844 81.4375 L 349 64 "/>
<path style="fill-rule:nonzero;fill:rgb(53%,27%,7%);fill-opacity:1;stroke-width:1;stroke-linecap:butt;stroke-linejoin:miter;stroke:rgb(0%,0%,0%);stroke-opacity:1;stroke-miterlimit:10;" d="M 651 427 L 680.664062 427 L 692.664062 398.785156 L 704.664062 427 L 734.332031 427 L 710.332031 444.4375 L 718.417969 475.980469 L 692.664062 458.542969 L 666.914062 475.980469 L 679.214844 444.4375 L 651 427 "/>
<path style="fill-rule:nonzero;fill:rgb(53%,27%,7%);fill-opacity:1;stroke-width:1;stroke-linecap:butt;stroke-linejoin:miter;stroke:rgb(0%,0%,0%);stroke-opacity:1;stroke-miterlimit:10;" d="M 731 76 L 760.664062 76 L 772.664062 47.785156 L 784.664062 76 L 814.332031 76 L 790.332031 93.4375 L 798.417969 124.980469 L 772.664062 107.542969 L 746.914062 124.980469 L 759.214844 93.4375 L 731 76 "/>
<path style="fill-rule:nonzero;fill:rgb(53%,27%,7%);fill-opacity:1;stroke-width:1;stroke-linecap:butt;stroke-linejoin:miter;stroke:rgb(0%,0%,0%);stroke-opacity:1;stroke-miterlimit:10;" d="M 894 294 L 923.664062 294 L 935.664062 265.785156 L 947.664062 294 L 977.332031 294 L 953.332031 311.4375 L 961.417969 342.980469 L 935.664062 325.542969 L 909.914062 342.980469 L 922.214844 311.4375 L 894 294 "/>
<path style="fill-rule:nonzero;fill:rgb(55%,51%,53%);fill-opacity:1;stroke-width:1;stroke-linecap:butt;stroke-linejoin:miter;stroke:rgb(0%,0%,0%);stroke-opacity:1;stroke-miterlimit:10;" d="M 179 455 L 208.664062 455 L 220.664062 426.785156 L 232.664062 455 L 262.332031 455 L 238.332031 472.4375 L 246.417969 503.980469 L 220.664062 486.542969 L 194.914062 503.980469 L 207.214844 472.4375 L 179 455 "/>
<path style="fill-rule:nonzero;fill:rgb(55%,51%,53%);fill-opacity:1;stroke-width:1;stroke-linecap:butt;stroke-linejoin:miter;stroke:rgb(0%,0%,0%);stroke-opacity:1;stroke-miterlimit:10;" d="M 517 444 L 546.664062 444 L 558.664062 415.785156 L 570.664062 444 L 600.332031 444 L 576.332031 461.4375 L 584.417969 492.980469 L 558.664062 475.542969 L 532.914062 492.980469 L 545.214844 461.4375 L 517 444 "/>
<path style="fill-rule:nonzero;fill:rgb(55%,51%,53%);fill-opacity:1;stroke-width:1;stroke-linecap:butt;stroke-linejoin:miter;stroke:rgb(0%,0%,0%);stroke-opacity:1;stroke-miterlimit:10;" d="M 883 93 L 912.664062 93 L 924.664062 64.785156 L 936.664062 93 L 966.332031 93 L 942.332031 110.4375 L 950.417969 141.980469 L 924.664062 124.542969 L 898.914062 141.980469 L 911.214844 110.4375 L 883 93 "/>
<path style="fill-rule:nonzero;fill:rgb(55%,51%,53%);fill-opacity:1;stroke-width:1;stroke-linecap:butt;stroke-linejoin:miter;stroke:rgb(0%,0%,0%);stroke-opacity:1;stroke-miterlimit:10;" d="M 178 307 L 207.664062 307 L 219.664062 278.785156 L 231.664062 307 L 261.332031 307 L 237.332031 324.4375 L 245.417969 355.980469 L 219.664062 338.542969 L 193.914062 355.980469 L 206.214844 324.4375 L 178 307 "/>
<path style="fill-rule:nonzero;fill:rgb(55%,51%,53%);fill-opacity:1;stroke-width:1;stroke-linecap:butt;stroke-linejoin:miter;stroke:rgb(0%,0%,0%);stroke-opacity:1;stroke-miterlimit:10;" d="M 82 296 L 111.664062 296 L 123.664062 267.785156 L 135.664062 296 L 165.332031 296 L 141.332031 313.4375 L 149.417969 344.980469 L 123.664062 327.542969 L 97.914062 344.980469 L 110.214844 313.4375 L 82 296 "/>
<path style="fill-rule:nonzero;fill:rgb(55%,51%,53%);fill-opacity:1;stroke-width:1;stroke-linecap:butt;stroke-linejoin:miter;stroke:rgb(0%,0%,0%);stroke-opacity:1;stroke-miterlimit:10;" d="M 471 254 L 500.664062 254 L 512.664062 225.785156 L 524.664062 254 L 554.332031 254 L 530.332031 271.4375 L 538.417969 302.980469 L 512.664062 285.542969 L 486.914062 302.980469 L 499.214844 271.4375 L 471 254 "/>
<path style="fill-rule:nonzero;fill:rgb(55%,51%,53%);fill-opacity:1;stroke-width:1;stroke-linecap:butt;stroke-linejoin:miter;stroke:rgb(0%,0%,0%);stroke-opacity:1;stroke-miterlimit:10;" d="M 738 265 L 767.664062 265 L 779.664062 236.785156 L 791.664062 265 L 821.332031 265 L 797.332031 282.4375 L 805.417969 313.980469 L 779.664062 296.542969 L 753.914062 313.980469 L 766.214844 282.4375 L 738 265 "/>
<path style="fill-rule:nonzero;fill:rgb(55%,51%,53%);fill-opacity:1;stroke-width:1;stroke-linecap:butt;stroke-linejoin:miter;stroke:rgb(0%,0%,0%);stroke-opacity:1;stroke-miterlimit:10;" d="M 283 338 L 312.664062 338 L 324.664062 309.785156 L 336.664062 338 L 366.332031 338 L 342.332031 355.4375 L 350.417969 386.980469 L 324.664062 369.542969 L 298.914062 386.980469 L 311.214844 355.4375 L 283 338 "/>
</g>
</svg>
