<?xml version="1.0" encoding="UTF-8"?>
<svg xmlns="http://www.w3.org/2000/svg" xmlns:xlink="http://www.w3.org/1999/xlink" width="1129pt" height="517pt" viewBox="0 0 1129 517" version="1.1">
<g id="surface316">
<rect x="0" y="0" width="1129" height="517" style="fill:rgb(90%,90%,90%);fill-opacity:1;stroke:none;"/>
<path style="fill-rule:nonzero;fill:rgb(100%,51%,0%);fill-opacity:1;stroke-width:1;stroke-linecap:butt;stroke-linejoin:miter;stroke:rgb(0%,0%,0%);stroke-opacity:1;stroke-miterlimit:10;" d="M 466.214844 79 C 466.214844 90.714844 456.714844 100.214844 445 100.214844 C 433.285156 100.214844 423.785156 90.714844 423.785156 79 C 423.785156 67.285156 433.285156 57.785156 445 57.785156 C 456.714844 57.785156 466.214844 67.285156 466.214844 79 "/>
<path style="fill-rule:nonzero;fill:rgb(55%,51%,53%);fill-opacity:1;stroke-width:1;stroke-linecap:butt;stroke-linejoin:miter;stroke:rgb(0%,0%,0%);stroke-opacity:1;stroke-miterlimit:10;" d="M 383.214844 371 C 383.214844 382.714844 373.714844 392.214844 362 392.214844 C 350.285156 392.214844 340.785156 382.714844 340.785156 371 C 340.785156 359.285156 350.285156 349.785156 362 349.785156 C 373.714844 349.785156 383.214844 359.285156 383.214844 371 "/>
<path style="fill-rule:nonzero;fill:rgb(100%,51%,0%);fill-opacity:1;stroke-width:1;stroke-linecap:butt;stroke-linejoin:miter;stroke:rgb(0%,0%,0%);stroke-opacity:1;stroke-miterlimit:10;" d="M 204.214844 100 C 204.214844 111.714844 194.714844 121.214844 183 121.214844 C 171.285156 121.214844 161.785156 111.714844 161.785156 100 C 161.785156 88.285156 171.285156 78.785156 183 78.785156 C 194.714844 78.785156 204.214844 88.285156 204.214844 100 "/>
<path style="fill-rule:nonzero;fill:rgb(55%,51%,53%);fill-opacity:1;stroke-width:1;stroke-linecap:butt;stroke-linejoin:miter;stroke:rgb(0%,0%,0%);stroke-opacity:1;stroke-miterlimit:10;" d="M 211.214844 443 C 211.214844 454.714844 201.714844 464.214844 190 464.214844 C 178.285156 464.214844 168.785156 454.714844 168.785156 443 C 168.785156 431.285156 178.285156 421.785156 190 421.785156 C 201.714844 421.785156 211.214844 431.285156 211.214844 443 "/>
<path style="fill-rule:nonzero;fill:rgb(100%,51%,0%);fill-opacity:1;stroke-width:1;stroke-linecap:butt;stroke-linejoin:miter;stroke:rgb(0%,0%,0%);stroke-opacity:1;stroke-miterlimit:10;" d="M 372.214844 124 C 372.214844 135.714844 362.714844 145.214844 351 145.214844 C 339.285156 145.214844 329.785156 135.714844 329.785156 124 C 329.785156 112.285156 339.285156 102.785156 351 102.785156 C 362.714844 102.785156 372.214844 112.285156 372.214844 124 "/>
<path style="fill-rule:nonzero;fill:rgb(100%,51%,0%);fill-opacity:1;stroke-width:1;stroke-linecap:butt;stroke-linejoin:miter;stroke:rgb(0%,0%,0%);stroke-opacity:1;stroke-miterlimit:10;" d="M 431.214844 200 C 431.214844 211.714844 421.714844 221.214844 410 221.214844 C 398.285156 221.214844 388.785156 211.714844 388.785156 200 C 388.785156 188.285156 398.285156 178.785156 410 178.785156 C 421.714844 178.785156 431.214844 188.285156 431.214844 200 "/>
<path style="fill-rule:nonzero;fill:rgb(55%,51%,53%);fill-opacity:1;stroke-width:1;stroke-linecap:butt;stroke-linejoin:miter;stroke:rgb(0%,0%,0%);stroke-opacity:1;stroke-miterlimit:10;" d="M 964 323 L 938.019531 368 L 989.980469 368 L 964 323 "/>
<path style="fill-rule:nonzero;fill:rgb(100%,51%,0%);fill-opacity:1;stroke-width:1;stroke-linecap:butt;stroke-linejoin:miter;stroke:rgb(0%,0%,0%);stroke-opacity:1;stroke-miterlimit:10;" d="M 853 193 L 827.019531 238 L 878.980469 238 L 853 193 "/>
<path style="fill-rule:nonzero;fill:rgb(55%,51%,53%);fill-opacity:1;stroke-width:1;stroke-linecap:butt;stroke-linejoin:miter;stroke:rgb(0%,0%,0%);stroke-opacity:1;stroke-miterlimit:10;" d="M 661 402 L 635.019531 447 L 686.980469 447 L 661 402 "/>
<path style="fill-rule:nonzero;fill:rgb(100%,51%,0%);fill-opacity:1;stroke-width:1;stroke-linecap:butt;stroke-linejoin:miter;stroke:rgb(0%,0%,0%);stroke-opacity:1;stroke-miterlimit:10;" d="M 883 32 L 857.019531 77 L 908.980469 77 L 883 32 "/>
<path style="fill-rule:nonzero;fill:rgb(55%,51%,53%);fill-opacity:1;stroke-width:1;stroke-linecap:butt;stroke-linejoin:miter;stroke:rgb(0%,0%,0%);stroke-opacity:1;stroke-miterlimit:10;" d="M 760 161 L 734.019531 206 L 785.980469 206 L 760 161 "/>
<path style="fill-rule:nonzero;fill:rgb(55%,51%,53%);fill-opacity:1;stroke-width:1;stroke-linecap:butt;stroke-linejoin:miter;stroke:rgb(0%,0%,0%);stroke-opacity:1;stroke-miterlimit:10;" d="M 817 377 L 791.019531 422 L 842.980469 422 L 817 377 "/>
<path style="fill-rule:nonzero;fill:rgb(55%,51%,53%);fill-opacity:1;stroke-width:1;stroke-linecap:butt;stroke-linejoin:miter;stroke:rgb(0%,0%,0%);stroke-opacity:1;stroke-miterlimit:10;" d="M 645 46 L 619.019531 91 L 670.980469 91 L 645 46 "/>
<path style="fill-rule:nonzero;fill:rgb(55%,51%,53%);fill-opacity:1;stroke-width:1;stroke-linecap:butt;stroke-linejoin:miter;stroke:rgb(0%,0%,0%);stroke-opacity:1;stroke-miterlimit:10;" d="M 1008 60 L 982.019531 105 L 1033.980469 105 L 1008 60 "/>
</g>
</svg>
