<?xml version="1.0" encoding="UTF-8"?>
<svg xmlns="http://www.w3.org/2000/svg" xmlns:xlink="http://www.w3.org/1999/xlink" width="1129pt" height="517pt" viewBox="0 0 1129 517" version="1.1">
<g id="surface551">
<rect x="0" y="0" width="1129" height="517" style="fill:rgb(90%,90%,90%);fill-opacity:1;stroke:none;"/>
<path style="fill-rule:nonzero;fill:rgb(35%,70%,90%);fill-opacity:1;stroke-width:1;stroke-linecap:butt;stroke-linejoin:miter;stroke:rgb(0%,0%,0%);stroke-opacity:1;stroke-miterlimit:10;" d="M 334 227 L 363.664062 227 L 375.664062 198.785156 L 387.664062 227 L 417.332031 227 L 393.332031 244.4375 L 401.417969 275.980469 L 375.664062 258.542969 L 349.914062 275.980469 L 362.214844 244.4375 L 334 227 "/>
<path style="fill-rule:nonzero;fill:rgb(35%,70%,90%);fill-opacity:1;stroke-width:1;stroke-linecap:butt;stroke-linejoin:miter;stroke:rgb(0%,0%,0%);stroke-opacity:1;stroke-miterlimit:10;" d="M 99 208 L 128.664062 208 L 140.664062 179.785156 L 152.664062 208 L 182.332031 208 L 158.332031 225.4375 L 166.417969 256.980469 L 140.664062 239.542969 L 114.914062 256.980469 L 127.214844 225.4375 L 99 208 "/>
<path style="fill-rule:nonzero;fill:rgb(100%,51%,0%);fill-opacity:1;stroke-width:1;stroke-linecap:butt;stroke-linejoin:miter;stroke:rgb(0%,0%,0%);stroke-opacity:1;stroke-miterlimit:10;" d="M 171 325 L 200.664062 325 L 212.664062 296.785156 L 224.664062 325 L 254.332031 325 L 230.332031 342.4375 L 238.417969 373.980469 L 212.664062 356.542969 L 186.914062 373.980469 L 199.214844 342.4375 L 171 325 "/>
<path style="fill-rule:nonzero;fill:rgb(35%,70%,90%);fill-opacity:1;stroke-width:1;stroke-linecap:butt;stroke-linejoin:miter;stroke:rgb(0%,0%,0%);stroke-opacity:1;stroke-miterlimit:10;" d="M 210 441 L 239.664062 441 L 251.664062 412.785156 L 263.664062 441 L 293.332031 441 L 269.332031 458.4375 L 277.417969 489.980469 L 251.664062 472.542969 L 225.914062 489.980469 L 238.214844 458.4375 L 210 441 "/>
<path style="fill-rule:nonzero;fill:rgb(35%,70%,90%);fill-opacity:1;stroke-width:1;stroke-linecap:butt;stroke-linejoin:miter;stroke:rgb(0%,0%,0%);stroke-opacity:1;stroke-miterlimit:10;" d="M 191 217 L 220.664062 217 L 232.664062 188.785156 L 244.664062 217 L 274.332031 217 L 250.332031 234.4375 L 258.417969 265.980469 L 232.664062 248.542969 L 206.914062 265.980469 L 219.214844 234.4375 L 191 217 "/>
<path style="fill-rule:nonzero;fill:rgb(35%,70%,90%);fill-opacity:1;stroke-width:1;stroke-linecap:butt;stroke-linejoin:miter;stroke:rgb(0%,0%,0%);stroke-opacity:1;stroke-miterlimit:10;" d="M 79 119 L 108.664062 119 L 120.664062 90.785156 L 132.664062 119 L 162.332031 119 L 138.332031 136.4375 L 146.417969 167.980469 L 120.664062 150.542969 L 94.914062 167.980469 L 107.214844 136.4375 L 79 119 "/>
<path style="fill-rule:nonzero;fill:rgb(35%,70%,90%);fill-opacity:1;stroke-width:1;stroke-linecap:butt;stroke-linejoin:miter;stroke:rgb(0%,0%,0%);stroke-opacity:1;stroke-miterlimit:10;" d="M 368 399 L 397.664062 399 L 409.664062 370.785156 L 421.664062 399 L 451.332031 399 L 427.332031 416.4375 L 435.417969 447.980469 L 409.664062 430.542969 L 383.914062 447.980469 L 396.214844 416.4375 L 368 399 "/>
<path style="fill-rule:nonzero;fill:rgb(100%,51%,0%);fill-opacity:1;stroke-width:1;stroke-linecap:butt;stroke-linejoin:miter;stroke:rgb(0%,0%,0%);stroke-opacity:1;stroke-miterlimit:10;" d="M 740.785156 53.785156 L 740.785156 96.214844 L 783.214844 96.214844 L 783.214844 53.785156 L 740.785156 53.785156 "/>
<path style="fill-rule:nonzero;fill:rgb(100%,51%,0%);fill-opacity:1;stroke-width:1;stroke-linecap:butt;stroke-linejoin:miter;stroke:rgb(0%,0%,0%);stroke-opacity:1;stroke-miterlimit:10;" d="M 910.785156 151.785156 L 910.785156 194.214844 L 953.214844 194.214844 L 953.214844 151.785156 L 910.785156 151.785156 "/>
<path style="fill-rule:nonzero;fill:rgb(35%,70%,90%);fill-opacity:1;stroke-width:1;stroke-linecap:butt;stroke-linejoin:miter;stroke:rgb(0%,0%,0%);stroke-opacity:1;stroke-miterlimit:10;" d="M 995.785156 81.785156 L 995.785156 124.214844 L 1038.214844 124.214844 L 1038.214844 81.785156 L 995.785156 81.785156 "/>
<path style="fill-rule:nonzero;fill:rgb(100%,51%,0%);fill-opacity:1;stroke-width:1;stroke-linecap:butt;stroke-linejoin:miter;stroke:rgb(0%,0%,0%);stroke-opacity:1;stroke-miterlimit:10;" d="M 727.785156 336.785156 L 727.785156 379.214844 L 770.214844 379.214844 L 770.214844 336.785156 L 727.785156 336.785156 "/>
<path style="fill-rule:nonzero;fill:rgb(100%,51%,0%);fill-opacity:1;stroke-width:1;stroke-linecap:butt;stroke-linejoin:miter;stroke:rgb(0%,0%,0%);stroke-opacity:1;stroke-miterlimit:10;" d="M 804.785156 248.785156 L 804.785156 291.214844 L 847.214844 291.214844 L 847.214844 248.785156 L 804.785156 248.785156 "/>
<path style="fill-rule:nonzero;fill:rgb(100%,51%,0%);fill-opacity:1;stroke-width:1;stroke-linecap:butt;stroke-linejoin:miter;stroke:rgb(0%,0%,0%);stroke-opacity:1;stroke-miterlimit:10;" d="M 967.785156 250.785156 L 967.785156 293.214844 L 1010.214844 293.214844 L 1010.214844 250.785156 L 967.785156 250.785156 "/>
</g>
</svg>
