<?xml version="1.0" encoding="UTF-8"?>
<svg xmlns="http://www.w3.org/2000/svg" xmlns:xlink="http://www.w3.org/1999/xlink" width="1129pt" height="517pt" viewBox="0 0 1129 517" version="1.1">
<g id="surface631">
<rect x="0" y="0" width="1129" height="517" style="fill:rgb(90%,90%,90%);fill-opacity:1;stroke:none;"/>
<path style="fill-rule:nonzero;fill:rgb(100%,51%,0%);fill-opacity:1;stroke-width:1;stroke-linecap:butt;stroke-linejoin:miter;stroke:rgb(0%,0%,0%);stroke-opacity:1;stroke-miterlimit:10;" d="M 424 168 L 453.664062 168 L 465.664062 139.785156 L 477.664062 168 L 507.332031 168 L 483.332031 185.4375 L 491.417969 216.980469 L 465.664062 199.542969 L 439.914062 216.980469 L 452.214844 185.4375 L 424 168 "/>
<path style="fill-rule:nonzero;fill:rgb(100%,51%,0%);fill-opacity:1;stroke-width:1;stroke-linecap:butt;stroke-linejoin:miter;stroke:rgb(0%,0%,0%);stroke-opacity:1;stroke-miterlimit:10;" d="M 924 402 L 953.664062 402 L 965.664062 373.785156 L 977.664062 402 L 1007.332031 402 L 983.332031 419.4375 L 991.417969 450.980469 L 965.664062 433.542969 L 939.914062 450.980469 L 952.214844 419.4375 L 924 402 "/>
<path style="fill-rule:nonzero;fill:rgb(100%,51%,0%);fill-opacity:1;stroke-width:1;stroke-linecap:butt;stroke-linejoin:miter;stroke:rgb(0%,0%,0%);stroke-opacity:1;stroke-miterlimit:10;" d="M 797 318 L 826.664062 318 L 838.664062 289.785156 L 850.664062 318 L 880.332031 318 L 856.332031 335.4375 L 864.417969 366.980469 L 838.664062 349.542969 L 812.914062 366.980469 L 825.214844 335.4375 L 797 318 "/>
<path style="fill-rule:nonzero;fill:rgb(100%,51%,0%);fill-opacity:1;stroke-width:1;stroke-linecap:butt;stroke-linejoin:miter;stroke:rgb(0%,0%,0%);stroke-opacity:1;stroke-miterlimit:10;" d="M 720 413 L 749.664062 413 L 761.664062 384.785156 L 773.664062 413 L 803.332031 413 L 779.332031 430.4375 L 787.417969 461.980469 L 761.664062 444.542969 L 735.914062 461.980469 L 748.214844 430.4375 L 720 413 "/>
<path style="fill-rule:nonzero;fill:rgb(100%,51%,0%);fill-opacity:1;stroke-width:1;stroke-linecap:butt;stroke-linejoin:miter;stroke:rgb(0%,0%,0%);stroke-opacity:1;stroke-miterlimit:10;" d="M 256 440 L 285.664062 440 L 297.664062 411.785156 L 309.664062 440 L 339.332031 440 L 315.332031 457.4375 L 323.417969 488.980469 L 297.664062 471.542969 L 271.914062 488.980469 L 284.214844 457.4375 L 256 440 "/>
<path style="fill-rule:nonzero;fill:rgb(100%,51%,0%);fill-opacity:1;stroke-width:1;stroke-linecap:butt;stroke-linejoin:miter;stroke:rgb(0%,0%,0%);stroke-opacity:1;stroke-miterlimit:10;" d="M 168 259 L 197.664062 259 L 209.664062 230.785156 L 221.664062 259 L 251.332031 259 L 227.332031 276.4375 L 235.417969 307.980469 L 209.664062 290.542969 L 183.914062 307.980469 L 196.214844 276.4375 L 168 259 "/>
<path style="fill-rule:nonzero;fill:rgb(53%,27%,7%);fill-opacity:1;stroke-width:1;stroke-linecap:butt;stroke-linejoin:miter;stroke:rgb(0%,0%,0%);stroke-opacity:1;stroke-miterlimit:10;" d="M 300.214844 96 C 300.214844 107.714844 290.714844 117.214844 279 117.214844 C 267.285156 117.214844 257.785156 107.714844 257.785156 96 C 257.785156 84.285156 267.285156 74.785156 279 74.785156 C 290.714844 74.785156 300.214844 84.285156 300.214844 96 "/>
<path style="fill-rule:nonzero;fill:rgb(53%,27%,7%);fill-opacity:1;stroke-width:1;stroke-linecap:butt;stroke-linejoin:miter;stroke:rgb(0%,0%,0%);stroke-opacity:1;stroke-miterlimit:10;" d="M 733.214844 231 C 733.214844 242.714844 723.714844 252.214844 712 252.214844 C 700.285156 252.214844 690.785156 242.714844 690.785156 231 C 690.785156 219.285156 700.285156 209.785156 712 209.785156 C 723.714844 209.785156 733.214844 219.285156 733.214844 231 "/>
<path style="fill-rule:nonzero;fill:rgb(53%,27%,7%);fill-opacity:1;stroke-width:1;stroke-linecap:butt;stroke-linejoin:miter;stroke:rgb(0%,0%,0%);stroke-opacity:1;stroke-miterlimit:10;" d="M 962.214844 172 C 962.214844 183.714844 952.714844 193.214844 941 193.214844 C 929.285156 193.214844 919.785156 183.714844 919.785156 172 C 919.785156 160.285156 929.285156 150.785156 941 150.785156 C 952.714844 150.785156 962.214844 160.285156 962.214844 172 "/>
<path style="fill-rule:nonzero;fill:rgb(53%,27%,7%);fill-opacity:1;stroke-width:1;stroke-linecap:butt;stroke-linejoin:miter;stroke:rgb(0%,0%,0%);stroke-opacity:1;stroke-miterlimit:10;" d="M 570.214844 114 C 570.214844 125.714844 560.714844 135.214844 549 135.214844 C 537.285156 135.214844 527.785156 125.714844 527.785156 114 C 527.785156 102.285156 537.285156 92.785156 549 92.785156 C 560.714844 92.785156 570.214844 102.285156 570.214844 114 "/>
</g>
</svg>
