<?xml version="1.0" encoding="UTF-8"?>
<svg xmlns="http://www.w3.org/2000/svg" xmlns:xlink="http://www.w3.org/1999/xlink" width="1129pt" height="517pt" viewBox="0 0 1129 517" version="1.1">
<g id="surface836">
<rect x="0" y="0" width="1129" height="517" style="fill:rgb(90%,90%,90%);fill-opacity:1;stroke:none;"/>
<path style="fill-rule:nonzero;fill:rgb(35%,70%,90%);fill-opacity:1;stroke-width:1;stroke-linecap:butt;stroke-linejoin:miter;stroke:rgb(0%,0%,0%);stroke-opacity:1;stroke-miterlimit:10;" d="M 802.214844 214 C 802.214844 225.714844 792.714844 235.214844 781 235.214844 C 769.285156 235.214844 759.785156 225.714844 759.785156 214 C 759.785156 202.285156 769.285156 192.785156 781 192.785156 C 792.714844 192.785156 802.214844 202.285156 802.214844 214 "/>
<path style="fill-rule:nonzero;fill:rgb(35%,70%,90%);fill-opacity:1;stroke-width:1;stroke-linecap:butt;stroke-linejoin:miter;stroke:rgb(0%,0%,0%);stroke-opacity:1;stroke-miterlimit:10;" d="M 87.214844 368 C 87.214844 379.714844 77.714844 389.214844 66 389.214844 C 54.285156 389.214844 44.785156 379.714844 44.785156 368 C 44.785156 356.285156 54.285156 346.785156 66 346.785156 C 77.714844 346.785156 87.214844 356.285156 87.214844 368 "/>
<path style="fill-rule:nonzero;fill:rgb(35%,70%,90%);fill-opacity:1;stroke-width:1;stroke-linecap:butt;stroke-linejoin:miter;stroke:rgb(0%,0%,0%);stroke-opacity:1;stroke-miterlimit:10;" d="M 453.214844 333 C 453.214844 344.714844 443.714844 354.214844 432 354.214844 C 420.285156 354.214844 410.785156 344.714844 410.785156 333 C 410.785156 321.285156 420.285156 311.785156 432 311.785156 C 443.714844 311.785156 453.214844 321.285156 453.214844 333 "/>
<path style="fill-rule:nonzero;fill:rgb(35%,70%,90%);fill-opacity:1;stroke-width:1;stroke-linecap:butt;stroke-linejoin:miter;stroke:rgb(0%,0%,0%);stroke-opacity:1;stroke-miterlimit:10;" d="M 956.214844 369 C 956.214844 380.714844 946.714844 390.214844 935 390.214844 C 923.285156 390.214844 913.785156 380.714844 913.785156 369 C 913.785156 357.285156 923.285156 347.785156 935 347.785156 C 946.714844 347.785156 956.214844 357.285156 956.214844 369 "/>
<path style="fill-rule:nonzero;fill:rgb(35%,70%,90%);fill-opacity:1;stroke-width:1;stroke-linecap:butt;stroke-linejoin:miter;stroke:rgb(0%,0%,0%);stroke-opacity:1;stroke-miterlimit:10;" d="M 108.214844 183 C 108.214844 194.714844 98.714844 204.214844 87 204.214844 C 75.285156 204.214844 65.785156 194.714844 65.785156 183 C 65.785156 171.285156 75.285156 161.785156 87 161.785156 C 98.714844 161.785156 108.214844 171.285156 108.214844 183 "/>
<path style="fill-rule:nonzero;fill:rgb(35%,70%,90%);fill-opacity:1;stroke-width:1;stroke-linecap:butt;stroke-linejoin:miter;stroke:rgb(0%,0%,0%);stroke-opacity:1;stroke-miterlimit:10;" d="M 349.214844 214 C 349.214844 225.714844 339.714844 235.214844 328 235.214844 C 316.285156 235.214844 306.785156 225.714844 306.785156 214 C 306.785156 202.285156 316.285156 192.785156 328 192.785156 C 339.714844 192.785156 349.214844 202.285156 349.214844 214 "/>
<path style="fill-rule:nonzero;fill:rgb(35%,70%,90%);fill-opacity:1;stroke-width:1;stroke-linecap:butt;stroke-linejoin:miter;stroke:rgb(0%,0%,0%);stroke-opacity:1;stroke-miterlimit:10;" d="M 176 255 L 205.664062 255 L 217.664062 226.785156 L 229.664062 255 L 259.332031 255 L 235.332031 272.4375 L 243.417969 303.980469 L 217.664062 286.542969 L 191.914062 303.980469 L 204.214844 272.4375 L 176 255 "/>
<path style="fill-rule:nonzero;fill:rgb(35%,70%,90%);fill-opacity:1;stroke-width:1;stroke-linecap:butt;stroke-linejoin:miter;stroke:rgb(0%,0%,0%);stroke-opacity:1;stroke-miterlimit:10;" d="M 502 94 L 531.664062 94 L 543.664062 65.785156 L 555.664062 94 L 585.332031 94 L 561.332031 111.4375 L 569.417969 142.980469 L 543.664062 125.542969 L 517.914062 142.980469 L 530.214844 111.4375 L 502 94 "/>
<path style="fill-rule:nonzero;fill:rgb(35%,70%,90%);fill-opacity:1;stroke-width:1;stroke-linecap:butt;stroke-linejoin:miter;stroke:rgb(0%,0%,0%);stroke-opacity:1;stroke-miterlimit:10;" d="M 868 300 L 897.664062 300 L 909.664062 271.785156 L 921.664062 300 L 951.332031 300 L 927.332031 317.4375 L 935.417969 348.980469 L 909.664062 331.542969 L 883.914062 348.980469 L 896.214844 317.4375 L 868 300 "/>
<path style="fill-rule:nonzero;fill:rgb(35%,70%,90%);fill-opacity:1;stroke-width:1;stroke-linecap:butt;stroke-linejoin:miter;stroke:rgb(0%,0%,0%);stroke-opacity:1;stroke-miterlimit:10;" d="M 348 96 L 377.664062 96 L 389.664062 67.785156 L 401.664062 96 L 431.332031 96 L 407.332031 113.4375 L 415.417969 144.980469 L 389.664062 127.542969 L 363.914062 144.980469 L 376.214844 113.4375 L 348 96 "/>
<path style="fill-rule:nonzero;fill:rgb(35%,70%,90%);fill-opacity:1;stroke-width:1;stroke-linecap:butt;stroke-linejoin:miter;stroke:rgb(0%,0%,0%);stroke-opacity:1;stroke-miterlimit:10;" d="M 620 111 L 649.664062 111 L 661.664062 82.785156 L 673.664062 111 L 703.332031 111 L 679.332031 128.4375 L 687.417969 159.980469 L 661.664062 142.542969 L 635.914062 159.980469 L 648.214844 128.4375 L 620 111 "/>
</g>
</svg>
