<?xml version="1.0" encoding="UTF-8"?>
<svg xmlns="http://www.w3.org/2000/svg" xmlns:xlink="http://www.w3.org/1999/xlink" width="1129pt" height="517pt" viewBox="0 0 1129 517" version="1.1">
<g id="surface746">
<rect x="0" y="0" width="1129" height="517" style="fill:rgb(90%,90%,90%);fill-opacity:1;stroke:none;"/>
<path style="fill-rule:nonzero;fill:rgb(35%,70%,90%);fill-opacity:1;stroke-width:1;stroke-linecap:butt;stroke-linejoin:miter;stroke:rgb(0%,0%,0%);stroke-opacity:1;stroke-miterlimit:10;" d="M 90.214844 59 C 90.214844 70.714844 80.714844 80.214844 69 80.214844 C 57.285156 80.214844 47.785156 70.714844 47.785156 59 C 47.785156 47.285156 57.285156 37.785156 69 37.785156 C 80.714844 37.785156 90.214844 47.285156 90.214844 59 "/>
<path style="fill-rule:nonzero;fill:rgb(35%,70%,90%);fill-opacity:1;stroke-width:1;stroke-linecap:butt;stroke-linejoin:miter;stroke:rgb(0%,0%,0%);stroke-opacity:1;stroke-miterlimit:10;" d="M 223.214844 165 C 223.214844 176.714844 213.714844 186.214844 202 186.214844 C 190.285156 186.214844 180.785156 176.714844 180.785156 165 C 180.785156 153.285156 190.285156 143.785156 202 143.785156 C 213.714844 143.785156 223.214844 153.285156 223.214844 165 "/>
<path style="fill-rule:nonzero;fill:rgb(35%,70%,90%);fill-opacity:1;stroke-width:1;stroke-linecap:butt;stroke-linejoin:miter;stroke:rgb(0%,0%,0%);stroke-opacity:1;stroke-miterlimit:10;" d="M 89.214844 375 C 89.214844 386.714844 79.714844 396.214844 68 396.214844 C 56.285156 396.214844 46.785156 386.714844 46.785156 375 C 46.785156 363.285156 56.285156 353.785156 68 353.785156 C 79.714844 353.785156 89.214844 363.285156 89.214844 375 "/>
<path style="fill-rule:nonzero;fill:rgb(35%,70%,90%);fill-opacity:1;stroke-width:1;stroke-linecap:butt;stroke-linejoin:miter;stroke:rgb(0%,0%,0%);stroke-opacity:1;stroke-miterlimit:10;" d="M 827.214844 209 C 827.214844 220.714844 817.714844 230.214844 806 230.214844 C 794.285156 230.214844 784.785156 220.714844 784.785156 209 C 784.785156 197.285156 794.285156 187.785156 806 187.785156 C 817.714844 187.785156 827.214844 197.285156 827.214844 209 "/>
<path style="fill-rule:nonzero;fill:rgb(35%,70%,90%);fill-opacity:1;stroke-width:1;stroke-linecap:butt;stroke-linejoin:miter;stroke:rgb(0%,0%,0%);stroke-opacity:1;stroke-miterlimit:10;" d="M 953.214844 282 C 953.214844 293.714844 943.714844 303.214844 932 303.214844 C 920.285156 303.214844 910.785156 293.714844 910.785156 282 C 910.785156 270.285156 920.285156 260.785156 932 260.785156 C 943.714844 260.785156 953.214844 270.285156 953.214844 282 "/>
<path style="fill-rule:nonzero;fill:rgb(35%,70%,90%);fill-opacity:1;stroke-width:1;stroke-linecap:butt;stroke-linejoin:miter;stroke:rgb(0%,0%,0%);stroke-opacity:1;stroke-miterlimit:10;" d="M 365.214844 170 C 365.214844 181.714844 355.714844 191.214844 344 191.214844 C 332.285156 191.214844 322.785156 181.714844 322.785156 170 C 322.785156 158.285156 332.285156 148.785156 344 148.785156 C 355.714844 148.785156 365.214844 158.285156 365.214844 170 "/>
<path style="fill-rule:nonzero;fill:rgb(35%,70%,90%);fill-opacity:1;stroke-width:1;stroke-linecap:butt;stroke-linejoin:miter;stroke:rgb(0%,0%,0%);stroke-opacity:1;stroke-miterlimit:10;" d="M 311 323 L 340.664062 323 L 352.664062 294.785156 L 364.664062 323 L 394.332031 323 L 370.332031 340.4375 L 378.417969 371.980469 L 352.664062 354.542969 L 326.914062 371.980469 L 339.214844 340.4375 L 311 323 "/>
<path style="fill-rule:nonzero;fill:rgb(35%,70%,90%);fill-opacity:1;stroke-width:1;stroke-linecap:butt;stroke-linejoin:miter;stroke:rgb(0%,0%,0%);stroke-opacity:1;stroke-miterlimit:10;" d="M 53 155 L 82.664062 155 L 94.664062 126.785156 L 106.664062 155 L 136.332031 155 L 112.332031 172.4375 L 120.417969 203.980469 L 94.664062 186.542969 L 68.914062 203.980469 L 81.214844 172.4375 L 53 155 "/>
<path style="fill-rule:nonzero;fill:rgb(35%,70%,90%);fill-opacity:1;stroke-width:1;stroke-linecap:butt;stroke-linejoin:miter;stroke:rgb(0%,0%,0%);stroke-opacity:1;stroke-miterlimit:10;" d="M 739 331 L 768.664062 331 L 780.664062 302.785156 L 792.664062 331 L 822.332031 331 L 798.332031 348.4375 L 806.417969 379.980469 L 780.664062 362.542969 L 754.914062 379.980469 L 767.214844 348.4375 L 739 331 "/>
<path style="fill-rule:nonzero;fill:rgb(35%,70%,90%);fill-opacity:1;stroke-width:1;stroke-linecap:butt;stroke-linejoin:miter;stroke:rgb(0%,0%,0%);stroke-opacity:1;stroke-miterlimit:10;" d="M 925 182 L 954.664062 182 L 966.664062 153.785156 L 978.664062 182 L 1008.332031 182 L 984.332031 199.4375 L 992.417969 230.980469 L 966.664062 213.542969 L 940.914062 230.980469 L 953.214844 199.4375 L 925 182 "/>
<path style="fill-rule:nonzero;fill:rgb(35%,70%,90%);fill-opacity:1;stroke-width:1;stroke-linecap:butt;stroke-linejoin:miter;stroke:rgb(0%,0%,0%);stroke-opacity:1;stroke-miterlimit:10;" d="M 624 141 L 653.664062 141 L 665.664062 112.785156 L 677.664062 141 L 707.332031 141 L 683.332031 158.4375 L 691.417969 189.980469 L 665.664062 172.542969 L 639.914062 189.980469 L 652.214844 158.4375 L 624 141 "/>
</g>
</svg>
