<?xml version="1.0" encoding="UTF-8"?>
<svg xmlns="http://www.w3.org/2000/svg" xmlns:xlink="http://www.w3.org/1999/xlink" width="1179pt" height="517pt" viewBox="0 0 1179 517" version="1.1">
<g id="surface101">
<rect x="0" y="0" width="1179" height="517" style="fill:rgb(90%,90%,90%);fill-opacity:1;stroke:none;"/>
<path style="fill-rule:nonzero;fill:rgb(100%,51%,0%);fill-opacity:1;stroke-width:1;stroke-linecap:butt;stroke-linejoin:miter;stroke:rgb(0%,0%,0%);stroke-opacity:1;stroke-miterlimit:10;" d="M 161 224 L 190.664062 224 L 202.664062 195.785156 L 214.664062 224 L 244.332031 224 L 220.332031 241.4375 L 228.417969 272.980469 L 202.664062 255.542969 L 176.914062 272.980469 L 189.214844 241.4375 L 161 224 "/>
<path style="fill-rule:nonzero;fill:rgb(100%,51%,0%);fill-opacity:1;stroke-width:1;stroke-linecap:butt;stroke-linejoin:miter;stroke:rgb(0%,0%,0%);stroke-opacity:1;stroke-miterlimit:10;" d="M 215 132 L 244.664062 132 L 256.664062 103.785156 L 268.664062 132 L 298.332031 132 L 274.332031 149.4375 L 282.417969 180.980469 L 256.664062 163.542969 L 230.914062 180.980469 L 243.214844 149.4375 L 215 132 "/>
<path style="fill-rule:nonzero;fill:rgb(100%,51%,0%);fill-opacity:1;stroke-width:1;stroke-linecap:butt;stroke-linejoin:miter;stroke:rgb(0%,0%,0%);stroke-opacity:1;stroke-miterlimit:10;" d="M 106 329 L 135.664062 329 L 147.664062 300.785156 L 159.664062 329 L 189.332031 329 L 165.332031 346.4375 L 173.417969 377.980469 L 147.664062 360.542969 L 121.914062 377.980469 L 134.214844 346.4375 L 106 329 "/>
<path style="fill-rule:nonzero;fill:rgb(100%,51%,0%);fill-opacity:1;stroke-width:1;stroke-linecap:butt;stroke-linejoin:miter;stroke:rgb(0%,0%,0%);stroke-opacity:1;stroke-miterlimit:10;" d="M 258.785156 305.785156 L 258.785156 348.214844 L 301.214844 348.214844 L 301.214844 305.785156 L 258.785156 305.785156 "/>
<path style="fill-rule:nonzero;fill:rgb(100%,51%,0%);fill-opacity:1;stroke-width:1;stroke-linecap:butt;stroke-linejoin:miter;stroke:rgb(0%,0%,0%);stroke-opacity:1;stroke-miterlimit:10;" d="M 378 336 L 407.664062 336 L 419.664062 307.785156 L 431.664062 336 L 461.332031 336 L 437.332031 353.4375 L 445.417969 384.980469 L 419.664062 367.542969 L 393.914062 384.980469 L 406.214844 353.4375 L 378 336 "/>
<path style="fill-rule:nonzero;fill:rgb(100%,51%,0%);fill-opacity:1;stroke-width:1;stroke-linecap:butt;stroke-linejoin:miter;stroke:rgb(0%,0%,0%);stroke-opacity:1;stroke-miterlimit:10;" d="M 150 409 L 179.664062 409 L 191.664062 380.785156 L 203.664062 409 L 233.332031 409 L 209.332031 426.4375 L 217.417969 457.980469 L 191.664062 440.542969 L 165.914062 457.980469 L 178.214844 426.4375 L 150 409 "/>
<path style="fill-rule:nonzero;fill:rgb(53%,27%,7%);fill-opacity:1;stroke-width:1;stroke-linecap:butt;stroke-linejoin:miter;stroke:rgb(0%,0%,0%);stroke-opacity:1;stroke-miterlimit:10;" d="M 782.785156 352.785156 L 782.785156 395.214844 L 825.214844 395.214844 L 825.214844 352.785156 L 782.785156 352.785156 "/>
<path style="fill-rule:nonzero;fill:rgb(53%,27%,7%);fill-opacity:1;stroke-width:1;stroke-linecap:butt;stroke-linejoin:miter;stroke:rgb(0%,0%,0%);stroke-opacity:1;stroke-miterlimit:10;" d="M 924.785156 326.785156 L 924.785156 369.214844 L 967.214844 369.214844 L 967.214844 326.785156 L 924.785156 326.785156 "/>
<path style="fill-rule:nonzero;fill:rgb(53%,27%,7%);fill-opacity:1;stroke-width:1;stroke-linecap:butt;stroke-linejoin:miter;stroke:rgb(0%,0%,0%);stroke-opacity:1;stroke-miterlimit:10;" d="M 839.785156 190.785156 L 839.785156 233.214844 L 882.214844 233.214844 L 882.214844 190.785156 L 839.785156 190.785156 "/>
<path style="fill-rule:nonzero;fill:rgb(53%,27%,7%);fill-opacity:1;stroke-width:1;stroke-linecap:butt;stroke-linejoin:miter;stroke:rgb(0%,0%,0%);stroke-opacity:1;stroke-miterlimit:10;" d="M 930 150 L 959.664062 150 L 971.664062 121.785156 L 983.664062 150 L 1013.332031 150 L 989.332031 167.4375 L 997.417969 198.980469 L 971.664062 181.542969 L 945.914062 198.980469 L 958.214844 167.4375 L 930 150 "/>
</g>
</svg>
