<?xml version="1.0" encoding="UTF-8"?>
<svg xmlns="http://www.w3.org/2000/svg" xmlns:xlink="http://www.w3.org/1999/xlink" width="1129pt" height="517pt" viewBox="0 0 1129 517" version="1.1">
<g id="surface841">
<rect x="0" y="0" width="1129" height="517" style="fill:rgb(90%,90%,90%);fill-opacity:1;stroke:none;"/>
<path style="fill-rule:nonzero;fill:rgb(55%,51%,53%);fill-opacity:1;stroke-width:1;stroke-linecap:butt;stroke-linejoin:miter;stroke:rgb(0%,0%,0%);stroke-opacity:1;stroke-miterlimit:10;" d="M 199.214844 437 C 199.214844 448.714844 189.714844 458.214844 178 458.214844 C 166.285156 458.214844 156.785156 448.714844 156.785156 437 C 156.785156 425.285156 166.285156 415.785156 178 415.785156 C 189.714844 415.785156 199.214844 425.285156 199.214844 437 "/>
<path style="fill-rule:nonzero;fill:rgb(55%,51%,53%);fill-opacity:1;stroke-width:1;stroke-linecap:butt;stroke-linejoin:miter;stroke:rgb(0%,0%,0%);stroke-opacity:1;stroke-miterlimit:10;" d="M 478.214844 293 C 478.214844 304.714844 468.714844 314.214844 457 314.214844 C 445.285156 314.214844 435.785156 304.714844 435.785156 293 C 435.785156 281.285156 445.285156 271.785156 457 271.785156 C 468.714844 271.785156 478.214844 281.285156 478.214844 293 "/>
<path style="fill-rule:nonzero;fill:rgb(55%,51%,53%);fill-opacity:1;stroke-width:1;stroke-linecap:butt;stroke-linejoin:miter;stroke:rgb(0%,0%,0%);stroke-opacity:1;stroke-miterlimit:10;" d="M 385.214844 85 C 385.214844 96.714844 375.714844 106.214844 364 106.214844 C 352.285156 106.214844 342.785156 96.714844 342.785156 85 C 342.785156 73.285156 352.285156 63.785156 364 63.785156 C 375.714844 63.785156 385.214844 73.285156 385.214844 85 "/>
<path style="fill-rule:nonzero;fill:rgb(67%,100%,18%);fill-opacity:1;stroke-width:1;stroke-linecap:butt;stroke-linejoin:miter;stroke:rgb(0%,0%,0%);stroke-opacity:1;stroke-miterlimit:10;" d="M 221.214844 207 C 221.214844 218.714844 211.714844 228.214844 200 228.214844 C 188.285156 228.214844 178.785156 218.714844 178.785156 207 C 178.785156 195.285156 188.285156 185.785156 200 185.785156 C 211.714844 185.785156 221.214844 195.285156 221.214844 207 "/>
<path style="fill-rule:nonzero;fill:rgb(55%,51%,53%);fill-opacity:1;stroke-width:1;stroke-linecap:butt;stroke-linejoin:miter;stroke:rgb(0%,0%,0%);stroke-opacity:1;stroke-miterlimit:10;" d="M 147.214844 71 C 147.214844 82.714844 137.714844 92.214844 126 92.214844 C 114.285156 92.214844 104.785156 82.714844 104.785156 71 C 104.785156 59.285156 114.285156 49.785156 126 49.785156 C 137.714844 49.785156 147.214844 59.285156 147.214844 71 "/>
<path style="fill-rule:nonzero;fill:rgb(55%,51%,53%);fill-opacity:1;stroke-width:1;stroke-linecap:butt;stroke-linejoin:miter;stroke:rgb(0%,0%,0%);stroke-opacity:1;stroke-miterlimit:10;" d="M 269.214844 126 C 269.214844 137.714844 259.714844 147.214844 248 147.214844 C 236.285156 147.214844 226.785156 137.714844 226.785156 126 C 226.785156 114.285156 236.285156 104.785156 248 104.785156 C 259.714844 104.785156 269.214844 114.285156 269.214844 126 "/>
<path style="fill-rule:nonzero;fill:rgb(55%,51%,53%);fill-opacity:1;stroke-width:1;stroke-linecap:butt;stroke-linejoin:miter;stroke:rgb(0%,0%,0%);stroke-opacity:1;stroke-miterlimit:10;" d="M 243.214844 332 C 243.214844 343.714844 233.714844 353.214844 222 353.214844 C 210.285156 353.214844 200.785156 343.714844 200.785156 332 C 200.785156 320.285156 210.285156 310.785156 222 310.785156 C 233.714844 310.785156 243.214844 320.285156 243.214844 332 "/>
<path style="fill-rule:nonzero;fill:rgb(55%,51%,53%);fill-opacity:1;stroke-width:1;stroke-linecap:butt;stroke-linejoin:miter;stroke:rgb(0%,0%,0%);stroke-opacity:1;stroke-miterlimit:10;" d="M 365.214844 335 C 365.214844 346.714844 355.714844 356.214844 344 356.214844 C 332.285156 356.214844 322.785156 346.714844 322.785156 335 C 322.785156 323.285156 332.285156 313.785156 344 313.785156 C 355.714844 313.785156 365.214844 323.285156 365.214844 335 "/>
<path style="fill-rule:nonzero;fill:rgb(67%,100%,18%);fill-opacity:1;stroke-width:1;stroke-linecap:butt;stroke-linejoin:miter;stroke:rgb(0%,0%,0%);stroke-opacity:1;stroke-miterlimit:10;" d="M 1013 183 L 987.019531 228 L 1038.980469 228 L 1013 183 "/>
<path style="fill-rule:nonzero;fill:rgb(67%,100%,18%);fill-opacity:1;stroke-width:1;stroke-linecap:butt;stroke-linejoin:miter;stroke:rgb(0%,0%,0%);stroke-opacity:1;stroke-miterlimit:10;" d="M 865 193 L 839.019531 238 L 890.980469 238 L 865 193 "/>
<path style="fill-rule:nonzero;fill:rgb(67%,100%,18%);fill-opacity:1;stroke-width:1;stroke-linecap:butt;stroke-linejoin:miter;stroke:rgb(0%,0%,0%);stroke-opacity:1;stroke-miterlimit:10;" d="M 950 316 L 924.019531 361 L 975.980469 361 L 950 316 "/>
<path style="fill-rule:nonzero;fill:rgb(55%,51%,53%);fill-opacity:1;stroke-width:1;stroke-linecap:butt;stroke-linejoin:miter;stroke:rgb(0%,0%,0%);stroke-opacity:1;stroke-miterlimit:10;" d="M 729 331 L 703.019531 376 L 754.980469 376 L 729 331 "/>
<path style="fill-rule:nonzero;fill:rgb(67%,100%,18%);fill-opacity:1;stroke-width:1;stroke-linecap:butt;stroke-linejoin:miter;stroke:rgb(0%,0%,0%);stroke-opacity:1;stroke-miterlimit:10;" d="M 931 86 L 905.019531 131 L 956.980469 131 L 931 86 "/>
<path style="fill-rule:nonzero;fill:rgb(67%,100%,18%);fill-opacity:1;stroke-width:1;stroke-linecap:butt;stroke-linejoin:miter;stroke:rgb(0%,0%,0%);stroke-opacity:1;stroke-miterlimit:10;" d="M 817 384 L 791.019531 429 L 842.980469 429 L 817 384 "/>
</g>
</svg>
