<?xml version="1.0" encoding="UTF-8"?>
<svg xmlns="http://www.w3.org/2000/svg" xmlns:xlink="http://www.w3.org/1999/xlink" width="1129pt" height="517pt" viewBox="0 0 1129 517" version="1.1">
<g id="surface821">
<rect x="0" y="0" width="1129" height="517" style="fill:rgb(90%,90%,90%);fill-opacity:1;stroke:none;"/>
<path style="fill-rule:nonzero;fill:rgb(35%,70%,90%);fill-opacity:1;stroke-width:1;stroke-linecap:butt;stroke-linejoin:miter;stroke:rgb(0%,0%,0%);stroke-opacity:1;stroke-miterlimit:10;" d="M 508 350 L 537.664062 350 L 549.664062 321.785156 L 561.664062 350 L 591.332031 350 L 567.332031 367.4375 L 575.417969 398.980469 L 549.664062 381.542969 L 523.914062 398.980469 L 536.214844 367.4375 L 508 350 "/>
<path style="fill-rule:nonzero;fill:rgb(35%,70%,90%);fill-opacity:1;stroke-width:1;stroke-linecap:butt;stroke-linejoin:miter;stroke:rgb(0%,0%,0%);stroke-opacity:1;stroke-miterlimit:10;" d="M 553 429 L 582.664062 429 L 594.664062 400.785156 L 606.664062 429 L 636.332031 429 L 612.332031 446.4375 L 620.417969 477.980469 L 594.664062 460.542969 L 568.914062 477.980469 L 581.214844 446.4375 L 553 429 "/>
<path style="fill-rule:nonzero;fill:rgb(35%,70%,90%);fill-opacity:1;stroke-width:1;stroke-linecap:butt;stroke-linejoin:miter;stroke:rgb(0%,0%,0%);stroke-opacity:1;stroke-miterlimit:10;" d="M 926 136 L 955.664062 136 L 967.664062 107.785156 L 979.664062 136 L 1009.332031 136 L 985.332031 153.4375 L 993.417969 184.980469 L 967.664062 167.542969 L 941.914062 184.980469 L 954.214844 153.4375 L 926 136 "/>
<path style="fill-rule:nonzero;fill:rgb(35%,70%,90%);fill-opacity:1;stroke-width:1;stroke-linecap:butt;stroke-linejoin:miter;stroke:rgb(0%,0%,0%);stroke-opacity:1;stroke-miterlimit:10;" d="M 889 412 L 918.664062 412 L 930.664062 383.785156 L 942.664062 412 L 972.332031 412 L 948.332031 429.4375 L 956.417969 460.980469 L 930.664062 443.542969 L 904.914062 460.980469 L 917.214844 429.4375 L 889 412 "/>
<path style="fill-rule:nonzero;fill:rgb(35%,70%,90%);fill-opacity:1;stroke-width:1;stroke-linecap:butt;stroke-linejoin:miter;stroke:rgb(0%,0%,0%);stroke-opacity:1;stroke-miterlimit:10;" d="M 753 343 L 782.664062 343 L 794.664062 314.785156 L 806.664062 343 L 836.332031 343 L 812.332031 360.4375 L 820.417969 391.980469 L 794.664062 374.542969 L 768.914062 391.980469 L 781.214844 360.4375 L 753 343 "/>
<path style="fill-rule:nonzero;fill:rgb(35%,70%,90%);fill-opacity:1;stroke-width:1;stroke-linecap:butt;stroke-linejoin:miter;stroke:rgb(0%,0%,0%);stroke-opacity:1;stroke-miterlimit:10;" d="M 303 54 L 332.664062 54 L 344.664062 25.785156 L 356.664062 54 L 386.332031 54 L 362.332031 71.4375 L 370.417969 102.980469 L 344.664062 85.542969 L 318.914062 102.980469 L 331.214844 71.4375 L 303 54 "/>
<path style="fill-rule:nonzero;fill:rgb(55%,51%,53%);fill-opacity:1;stroke-width:1;stroke-linecap:butt;stroke-linejoin:miter;stroke:rgb(0%,0%,0%);stroke-opacity:1;stroke-miterlimit:10;" d="M 707.214844 165 C 707.214844 176.714844 697.714844 186.214844 686 186.214844 C 674.285156 186.214844 664.785156 176.714844 664.785156 165 C 664.785156 153.285156 674.285156 143.785156 686 143.785156 C 697.714844 143.785156 707.214844 153.285156 707.214844 165 "/>
<path style="fill-rule:nonzero;fill:rgb(55%,51%,53%);fill-opacity:1;stroke-width:1;stroke-linecap:butt;stroke-linejoin:miter;stroke:rgb(0%,0%,0%);stroke-opacity:1;stroke-miterlimit:10;" d="M 628.214844 303 C 628.214844 314.714844 618.714844 324.214844 607 324.214844 C 595.285156 324.214844 585.785156 314.714844 585.785156 303 C 585.785156 291.285156 595.285156 281.785156 607 281.785156 C 618.714844 281.785156 628.214844 291.285156 628.214844 303 "/>
<path style="fill-rule:nonzero;fill:rgb(55%,51%,53%);fill-opacity:1;stroke-width:1;stroke-linecap:butt;stroke-linejoin:miter;stroke:rgb(0%,0%,0%);stroke-opacity:1;stroke-miterlimit:10;" d="M 107.214844 97 C 107.214844 108.714844 97.714844 118.214844 86 118.214844 C 74.285156 118.214844 64.785156 108.714844 64.785156 97 C 64.785156 85.285156 74.285156 75.785156 86 75.785156 C 97.714844 75.785156 107.214844 85.285156 107.214844 97 "/>
<path style="fill-rule:nonzero;fill:rgb(55%,51%,53%);fill-opacity:1;stroke-width:1;stroke-linecap:butt;stroke-linejoin:miter;stroke:rgb(0%,0%,0%);stroke-opacity:1;stroke-miterlimit:10;" d="M 266.214844 134 C 266.214844 145.714844 256.714844 155.214844 245 155.214844 C 233.285156 155.214844 223.785156 145.714844 223.785156 134 C 223.785156 122.285156 233.285156 112.785156 245 112.785156 C 256.714844 112.785156 266.214844 122.285156 266.214844 134 "/>
<path style="fill-rule:nonzero;fill:rgb(55%,51%,53%);fill-opacity:1;stroke-width:1;stroke-linecap:butt;stroke-linejoin:miter;stroke:rgb(0%,0%,0%);stroke-opacity:1;stroke-miterlimit:10;" d="M 290.214844 321 C 290.214844 332.714844 280.714844 342.214844 269 342.214844 C 257.285156 342.214844 247.785156 332.714844 247.785156 321 C 247.785156 309.285156 257.285156 299.785156 269 299.785156 C 280.714844 299.785156 290.214844 309.285156 290.214844 321 "/>
<path style="fill-rule:nonzero;fill:rgb(55%,51%,53%);fill-opacity:1;stroke-width:1;stroke-linecap:butt;stroke-linejoin:miter;stroke:rgb(0%,0%,0%);stroke-opacity:1;stroke-miterlimit:10;" d="M 808.214844 245 C 808.214844 256.714844 798.714844 266.214844 787 266.214844 C 775.285156 266.214844 765.785156 256.714844 765.785156 245 C 765.785156 233.285156 775.285156 223.785156 787 223.785156 C 798.714844 223.785156 808.214844 233.285156 808.214844 245 "/>
<path style="fill-rule:nonzero;fill:rgb(55%,51%,53%);fill-opacity:1;stroke-width:1;stroke-linecap:butt;stroke-linejoin:miter;stroke:rgb(0%,0%,0%);stroke-opacity:1;stroke-miterlimit:10;" d="M 440.214844 82 C 440.214844 93.714844 430.714844 103.214844 419 103.214844 C 407.285156 103.214844 397.785156 93.714844 397.785156 82 C 397.785156 70.285156 407.285156 60.785156 419 60.785156 C 430.714844 60.785156 440.214844 70.285156 440.214844 82 "/>
<path style="fill-rule:nonzero;fill:rgb(55%,51%,53%);fill-opacity:1;stroke-width:1;stroke-linecap:butt;stroke-linejoin:miter;stroke:rgb(0%,0%,0%);stroke-opacity:1;stroke-miterlimit:10;" d="M 92.214844 430 C 92.214844 441.714844 82.714844 451.214844 71 451.214844 C 59.285156 451.214844 49.785156 441.714844 49.785156 430 C 49.785156 418.285156 59.285156 408.785156 71 408.785156 C 82.714844 408.785156 92.214844 418.285156 92.214844 430 "/>
</g>
</svg>
