<?xml version="1.0" encoding="UTF-8"?>
<svg xmlns="http://www.w3.org/2000/svg" xmlns:xlink="http://www.w3.org/1999/xlink" width="1179pt" height="517pt" viewBox="0 0 1179 517" version="1.1">
<g id="surface966">
<rect x="0" y="0" width="1179" height="517" style="fill:rgb(90%,90%,90%);fill-opacity:1;stroke:none;"/>
<path style="fill-rule:nonzero;fill:rgb(100%,51%,0%);fill-opacity:1;stroke-width:1;stroke-linecap:butt;stroke-linejoin:miter;stroke:rgb(0%,0%,0%);stroke-opacity:1;stroke-miterlimit:10;" d="M 129.214844 251 C 129.214844 262.714844 119.714844 272.214844 108 272.214844 C 96.285156 272.214844 86.785156 262.714844 86.785156 251 C 86.785156 239.285156 96.285156 229.785156 108 229.785156 C 119.714844 229.785156 129.214844 239.285156 129.214844 251 "/>
<path style="fill-rule:nonzero;fill:rgb(35%,70%,90%);fill-opacity:1;stroke-width:1;stroke-linecap:butt;stroke-linejoin:miter;stroke:rgb(0%,0%,0%);stroke-opacity:1;stroke-miterlimit:10;" d="M 268 297 L 297.664062 297 L 309.664062 268.785156 L 321.664062 297 L 351.332031 297 L 327.332031 314.4375 L 335.417969 345.980469 L 309.664062 328.542969 L 283.914062 345.980469 L 296.214844 314.4375 L 268 297 "/>
<path style="fill-rule:nonzero;fill:rgb(35%,70%,90%);fill-opacity:1;stroke-width:1;stroke-linecap:butt;stroke-linejoin:miter;stroke:rgb(0%,0%,0%);stroke-opacity:1;stroke-miterlimit:10;" d="M 169 319 L 198.664062 319 L 210.664062 290.785156 L 222.664062 319 L 252.332031 319 L 228.332031 336.4375 L 236.417969 367.980469 L 210.664062 350.542969 L 184.914062 367.980469 L 197.214844 336.4375 L 169 319 "/>
<path style="fill-rule:nonzero;fill:rgb(35%,70%,90%);fill-opacity:1;stroke-width:1;stroke-linecap:butt;stroke-linejoin:miter;stroke:rgb(0%,0%,0%);stroke-opacity:1;stroke-miterlimit:10;" d="M 343 176 L 372.664062 176 L 384.664062 147.785156 L 396.664062 176 L 426.332031 176 L 402.332031 193.4375 L 410.417969 224.980469 L 384.664062 207.542969 L 358.914062 224.980469 L 371.214844 193.4375 L 343 176 "/>
<path style="fill-rule:nonzero;fill:rgb(35%,70%,90%);fill-opacity:1;stroke-width:1;stroke-linecap:butt;stroke-linejoin:miter;stroke:rgb(0%,0%,0%);stroke-opacity:1;stroke-miterlimit:10;" d="M 360 327 L 389.664062 327 L 401.664062 298.785156 L 413.664062 327 L 443.332031 327 L 419.332031 344.4375 L 427.417969 375.980469 L 401.664062 358.542969 L 375.914062 375.980469 L 388.214844 344.4375 L 360 327 "/>
<path style="fill-rule:nonzero;fill:rgb(100%,51%,0%);fill-opacity:1;stroke-width:1;stroke-linecap:butt;stroke-linejoin:miter;stroke:rgb(0%,0%,0%);stroke-opacity:1;stroke-miterlimit:10;" d="M 818.214844 83 C 818.214844 94.714844 808.714844 104.214844 797 104.214844 C 785.285156 104.214844 775.785156 94.714844 775.785156 83 C 775.785156 71.285156 785.285156 61.785156 797 61.785156 C 808.714844 61.785156 818.214844 71.285156 818.214844 83 "/>
<path style="fill-rule:nonzero;fill:rgb(35%,70%,90%);fill-opacity:1;stroke-width:1;stroke-linecap:butt;stroke-linejoin:miter;stroke:rgb(0%,0%,0%);stroke-opacity:1;stroke-miterlimit:10;" d="M 787 410 L 816.664062 410 L 828.664062 381.785156 L 840.664062 410 L 870.332031 410 L 846.332031 427.4375 L 854.417969 458.980469 L 828.664062 441.542969 L 802.914062 458.980469 L 815.214844 427.4375 L 787 410 "/>
<path style="fill-rule:nonzero;fill:rgb(100%,51%,0%);fill-opacity:1;stroke-width:1;stroke-linecap:butt;stroke-linejoin:miter;stroke:rgb(0%,0%,0%);stroke-opacity:1;stroke-miterlimit:10;" d="M 855.214844 197 C 855.214844 208.714844 845.714844 218.214844 834 218.214844 C 822.285156 218.214844 812.785156 208.714844 812.785156 197 C 812.785156 185.285156 822.285156 175.785156 834 175.785156 C 845.714844 175.785156 855.214844 185.285156 855.214844 197 "/>
<path style="fill-rule:nonzero;fill:rgb(35%,70%,90%);fill-opacity:1;stroke-width:1;stroke-linecap:butt;stroke-linejoin:miter;stroke:rgb(0%,0%,0%);stroke-opacity:1;stroke-miterlimit:10;" d="M 1020 410 L 1049.664062 410 L 1061.664062 381.785156 L 1073.664062 410 L 1103.332031 410 L 1079.332031 427.4375 L 1087.417969 458.980469 L 1061.664062 441.542969 L 1035.914062 458.980469 L 1048.214844 427.4375 L 1020 410 "/>
<path style="fill-rule:nonzero;fill:rgb(100%,51%,0%);fill-opacity:1;stroke-width:1;stroke-linecap:butt;stroke-linejoin:miter;stroke:rgb(0%,0%,0%);stroke-opacity:1;stroke-miterlimit:10;" d="M 754.214844 218 C 754.214844 229.714844 744.714844 239.214844 733 239.214844 C 721.285156 239.214844 711.785156 229.714844 711.785156 218 C 711.785156 206.285156 721.285156 196.785156 733 196.785156 C 744.714844 196.785156 754.214844 206.285156 754.214844 218 "/>
<path style="fill-rule:nonzero;fill:rgb(35%,70%,90%);fill-opacity:1;stroke-width:1;stroke-linecap:butt;stroke-linejoin:miter;stroke:rgb(0%,0%,0%);stroke-opacity:1;stroke-miterlimit:10;" d="M 1021 283 L 1050.664062 283 L 1062.664062 254.785156 L 1074.664062 283 L 1104.332031 283 L 1080.332031 300.4375 L 1088.417969 331.980469 L 1062.664062 314.542969 L 1036.914062 331.980469 L 1049.214844 300.4375 L 1021 283 "/>
<path style="fill-rule:nonzero;fill:rgb(100%,51%,0%);fill-opacity:1;stroke-width:1;stroke-linecap:butt;stroke-linejoin:miter;stroke:rgb(0%,0%,0%);stroke-opacity:1;stroke-miterlimit:10;" d="M 946.214844 110 C 946.214844 121.714844 936.714844 131.214844 925 131.214844 C 913.285156 131.214844 903.785156 121.714844 903.785156 110 C 903.785156 98.285156 913.285156 88.785156 925 88.785156 C 936.714844 88.785156 946.214844 98.285156 946.214844 110 "/>
<path style="fill-rule:nonzero;fill:rgb(100%,51%,0%);fill-opacity:1;stroke-width:1;stroke-linecap:butt;stroke-linejoin:miter;stroke:rgb(0%,0%,0%);stroke-opacity:1;stroke-miterlimit:10;" d="M 809.214844 304 C 809.214844 315.714844 799.714844 325.214844 788 325.214844 C 776.285156 325.214844 766.785156 315.714844 766.785156 304 C 766.785156 292.285156 776.285156 282.785156 788 282.785156 C 799.714844 282.785156 809.214844 292.285156 809.214844 304 "/>
</g>
</svg>
