<?xml version="1.0" encoding="UTF-8"?>
<svg xmlns="http://www.w3.org/2000/svg" xmlns:xlink="http://www.w3.org/1999/xlink" width="1129pt" height="517pt" viewBox="0 0 1129 517" version="1.1">
<g id="surface796">
<rect x="0" y="0" width="1129" height="517" style="fill:rgb(90%,90%,90%);fill-opacity:1;stroke:none;"/>
<path style="fill-rule:nonzero;fill:rgb(55%,51%,53%);fill-opacity:1;stroke-width:1;stroke-linecap:butt;stroke-linejoin:miter;stroke:rgb(0%,0%,0%);stroke-opacity:1;stroke-miterlimit:10;" d="M 192.214844 253 C 192.214844 264.714844 182.714844 274.214844 171 274.214844 C 159.285156 274.214844 149.785156 264.714844 149.785156 253 C 149.785156 241.285156 159.285156 231.785156 171 231.785156 C 182.714844 231.785156 192.214844 241.285156 192.214844 253 "/>
<path style="fill-rule:nonzero;fill:rgb(67%,100%,18%);fill-opacity:1;stroke-width:1;stroke-linecap:butt;stroke-linejoin:miter;stroke:rgb(0%,0%,0%);stroke-opacity:1;stroke-miterlimit:10;" d="M 433.214844 324 C 433.214844 335.714844 423.714844 345.214844 412 345.214844 C 400.285156 345.214844 390.785156 335.714844 390.785156 324 C 390.785156 312.285156 400.285156 302.785156 412 302.785156 C 423.714844 302.785156 433.214844 312.285156 433.214844 324 "/>
<path style="fill-rule:nonzero;fill:rgb(55%,51%,53%);fill-opacity:1;stroke-width:1;stroke-linecap:butt;stroke-linejoin:miter;stroke:rgb(0%,0%,0%);stroke-opacity:1;stroke-miterlimit:10;" d="M 313.214844 414 C 313.214844 425.714844 303.714844 435.214844 292 435.214844 C 280.285156 435.214844 270.785156 425.714844 270.785156 414 C 270.785156 402.285156 280.285156 392.785156 292 392.785156 C 303.714844 392.785156 313.214844 402.285156 313.214844 414 "/>
<path style="fill-rule:nonzero;fill:rgb(67%,100%,18%);fill-opacity:1;stroke-width:1;stroke-linecap:butt;stroke-linejoin:miter;stroke:rgb(0%,0%,0%);stroke-opacity:1;stroke-miterlimit:10;" d="M 94.214844 405 C 94.214844 416.714844 84.714844 426.214844 73 426.214844 C 61.285156 426.214844 51.785156 416.714844 51.785156 405 C 51.785156 393.285156 61.285156 383.785156 73 383.785156 C 84.714844 383.785156 94.214844 393.285156 94.214844 405 "/>
<path style="fill-rule:nonzero;fill:rgb(55%,51%,53%);fill-opacity:1;stroke-width:1;stroke-linecap:butt;stroke-linejoin:miter;stroke:rgb(0%,0%,0%);stroke-opacity:1;stroke-miterlimit:10;" d="M 131.214844 176 C 131.214844 187.714844 121.714844 197.214844 110 197.214844 C 98.285156 197.214844 88.785156 187.714844 88.785156 176 C 88.785156 164.285156 98.285156 154.785156 110 154.785156 C 121.714844 154.785156 131.214844 164.285156 131.214844 176 "/>
<path style="fill-rule:nonzero;fill:rgb(55%,51%,53%);fill-opacity:1;stroke-width:1;stroke-linecap:butt;stroke-linejoin:miter;stroke:rgb(0%,0%,0%);stroke-opacity:1;stroke-miterlimit:10;" d="M 400.214844 195 C 400.214844 206.714844 390.714844 216.214844 379 216.214844 C 367.285156 216.214844 357.785156 206.714844 357.785156 195 C 357.785156 183.285156 367.285156 173.785156 379 173.785156 C 390.714844 173.785156 400.214844 183.285156 400.214844 195 "/>
<path style="fill-rule:nonzero;fill:rgb(55%,51%,53%);fill-opacity:1;stroke-width:1;stroke-linecap:butt;stroke-linejoin:miter;stroke:rgb(0%,0%,0%);stroke-opacity:1;stroke-miterlimit:10;" d="M 357.214844 275 C 357.214844 286.714844 347.714844 296.214844 336 296.214844 C 324.285156 296.214844 314.785156 286.714844 314.785156 275 C 314.785156 263.285156 324.285156 253.785156 336 253.785156 C 347.714844 253.785156 357.214844 263.285156 357.214844 275 "/>
<path style="fill-rule:nonzero;fill:rgb(55%,51%,53%);fill-opacity:1;stroke-width:1;stroke-linecap:butt;stroke-linejoin:miter;stroke:rgb(0%,0%,0%);stroke-opacity:1;stroke-miterlimit:10;" d="M 197.214844 397 C 197.214844 408.714844 187.714844 418.214844 176 418.214844 C 164.285156 418.214844 154.785156 408.714844 154.785156 397 C 154.785156 385.285156 164.285156 375.785156 176 375.785156 C 187.714844 375.785156 197.214844 385.285156 197.214844 397 "/>
<path style="fill-rule:nonzero;fill:rgb(67%,100%,18%);fill-opacity:1;stroke-width:1;stroke-linecap:butt;stroke-linejoin:miter;stroke:rgb(0%,0%,0%);stroke-opacity:1;stroke-miterlimit:10;" d="M 885 292 L 859.019531 337 L 910.980469 337 L 885 292 "/>
<path style="fill-rule:nonzero;fill:rgb(55%,51%,53%);fill-opacity:1;stroke-width:1;stroke-linecap:butt;stroke-linejoin:miter;stroke:rgb(0%,0%,0%);stroke-opacity:1;stroke-miterlimit:10;" d="M 934 152 L 908.019531 197 L 959.980469 197 L 934 152 "/>
<path style="fill-rule:nonzero;fill:rgb(67%,100%,18%);fill-opacity:1;stroke-width:1;stroke-linecap:butt;stroke-linejoin:miter;stroke:rgb(0%,0%,0%);stroke-opacity:1;stroke-miterlimit:10;" d="M 614 226 L 588.019531 271 L 639.980469 271 L 614 226 "/>
<path style="fill-rule:nonzero;fill:rgb(55%,51%,53%);fill-opacity:1;stroke-width:1;stroke-linecap:butt;stroke-linejoin:miter;stroke:rgb(0%,0%,0%);stroke-opacity:1;stroke-miterlimit:10;" d="M 637 81 L 611.019531 126 L 662.980469 126 L 637 81 "/>
<path style="fill-rule:nonzero;fill:rgb(67%,100%,18%);fill-opacity:1;stroke-width:1;stroke-linecap:butt;stroke-linejoin:miter;stroke:rgb(0%,0%,0%);stroke-opacity:1;stroke-miterlimit:10;" d="M 786 63 L 760.019531 108 L 811.980469 108 L 786 63 "/>
<path style="fill-rule:nonzero;fill:rgb(67%,100%,18%);fill-opacity:1;stroke-width:1;stroke-linecap:butt;stroke-linejoin:miter;stroke:rgb(0%,0%,0%);stroke-opacity:1;stroke-miterlimit:10;" d="M 1023 170 L 997.019531 215 L 1048.980469 215 L 1023 170 "/>
</g>
</svg>
