<?xml version="1.0" encoding="UTF-8"?>
<svg xmlns="http://www.w3.org/2000/svg" xmlns:xlink="http://www.w3.org/1999/xlink" width="1179pt" height="517pt" viewBox="0 0 1179 517" version="1.1">
<g id="surface16">
<rect x="0" y="0" width="1179" height="517" style="fill:rgb(90%,90%,90%);fill-opacity:1;stroke:none;"/>
<path style="fill-rule:nonzero;fill:rgb(35%,70%,90%);fill-opacity:1;stroke-width:1;stroke-linecap:butt;stroke-linejoin:miter;stroke:rgb(0%,0%,0%);stroke-opacity:1;stroke-miterlimit:10;" d="M 101.214844 380 C 101.214844 391.714844 91.714844 401.214844 80 401.214844 C 68.285156 401.214844 58.785156 391.714844 58.785156 380 C 58.785156 368.285156 68.285156 358.785156 80 358.785156 C 91.714844 358.785156 101.214844 368.285156 101.214844 380 "/>
<path style="fill-rule:nonzero;fill:rgb(35%,70%,90%);fill-opacity:1;stroke-width:1;stroke-linecap:butt;stroke-linejoin:miter;stroke:rgb(0%,0%,0%);stroke-opacity:1;stroke-miterlimit:10;" d="M 200 334 L 174.019531 379 L 225.980469 379 L 200 334 "/>
<path style="fill-rule:nonzero;fill:rgb(35%,70%,90%);fill-opacity:1;stroke-width:1;stroke-linecap:butt;stroke-linejoin:miter;stroke:rgb(0%,0%,0%);stroke-opacity:1;stroke-miterlimit:10;" d="M 444.214844 388 C 444.214844 399.714844 434.714844 409.214844 423 409.214844 C 411.285156 409.214844 401.785156 399.714844 401.785156 388 C 401.785156 376.285156 411.285156 366.785156 423 366.785156 C 434.714844 366.785156 444.214844 376.285156 444.214844 388 "/>
<path style="fill-rule:nonzero;fill:rgb(35%,70%,90%);fill-opacity:1;stroke-width:1;stroke-linecap:butt;stroke-linejoin:miter;stroke:rgb(0%,0%,0%);stroke-opacity:1;stroke-miterlimit:10;" d="M 119 237 L 93.019531 282 L 144.980469 282 L 119 237 "/>
<path style="fill-rule:nonzero;fill:rgb(35%,70%,90%);fill-opacity:1;stroke-width:1;stroke-linecap:butt;stroke-linejoin:miter;stroke:rgb(0%,0%,0%);stroke-opacity:1;stroke-miterlimit:10;" d="M 322.214844 190 C 322.214844 201.714844 312.714844 211.214844 301 211.214844 C 289.285156 211.214844 279.785156 201.714844 279.785156 190 C 279.785156 178.285156 289.285156 168.785156 301 168.785156 C 312.714844 168.785156 322.214844 178.285156 322.214844 190 "/>
<path style="fill-rule:nonzero;fill:rgb(35%,70%,90%);fill-opacity:1;stroke-width:1;stroke-linecap:butt;stroke-linejoin:miter;stroke:rgb(0%,0%,0%);stroke-opacity:1;stroke-miterlimit:10;" d="M 222.214844 183 C 222.214844 194.714844 212.714844 204.214844 201 204.214844 C 189.285156 204.214844 179.785156 194.714844 179.785156 183 C 179.785156 171.285156 189.285156 161.785156 201 161.785156 C 212.714844 161.785156 222.214844 171.285156 222.214844 183 "/>
<path style="fill-rule:nonzero;fill:rgb(35%,70%,90%);fill-opacity:1;stroke-width:1;stroke-linecap:butt;stroke-linejoin:miter;stroke:rgb(0%,0%,0%);stroke-opacity:1;stroke-miterlimit:10;" d="M 145.214844 120 C 145.214844 131.714844 135.714844 141.214844 124 141.214844 C 112.285156 141.214844 102.785156 131.714844 102.785156 120 C 102.785156 108.285156 112.285156 98.785156 124 98.785156 C 135.714844 98.785156 145.214844 108.285156 145.214844 120 "/>
<path style="fill-rule:nonzero;fill:rgb(100%,51%,0%);fill-opacity:1;stroke-width:1;stroke-linecap:butt;stroke-linejoin:miter;stroke:rgb(0%,0%,0%);stroke-opacity:1;stroke-miterlimit:10;" d="M 706 376 L 680.019531 421 L 731.980469 421 L 706 376 "/>
<path style="fill-rule:nonzero;fill:rgb(100%,51%,0%);fill-opacity:1;stroke-width:1;stroke-linecap:butt;stroke-linejoin:miter;stroke:rgb(0%,0%,0%);stroke-opacity:1;stroke-miterlimit:10;" d="M 1024.214844 334 C 1024.214844 345.714844 1014.714844 355.214844 1003 355.214844 C 991.285156 355.214844 981.785156 345.714844 981.785156 334 C 981.785156 322.285156 991.285156 312.785156 1003 312.785156 C 1014.714844 312.785156 1024.214844 322.285156 1024.214844 334 "/>
<path style="fill-rule:nonzero;fill:rgb(100%,51%,0%);fill-opacity:1;stroke-width:1;stroke-linecap:butt;stroke-linejoin:miter;stroke:rgb(0%,0%,0%);stroke-opacity:1;stroke-miterlimit:10;" d="M 1000 93 L 974.019531 138 L 1025.980469 138 L 1000 93 "/>
<path style="fill-rule:nonzero;fill:rgb(100%,51%,0%);fill-opacity:1;stroke-width:1;stroke-linecap:butt;stroke-linejoin:miter;stroke:rgb(0%,0%,0%);stroke-opacity:1;stroke-miterlimit:10;" d="M 719.214844 186 C 719.214844 197.714844 709.714844 207.214844 698 207.214844 C 686.285156 207.214844 676.785156 197.714844 676.785156 186 C 676.785156 174.285156 686.285156 164.785156 698 164.785156 C 709.714844 164.785156 719.214844 174.285156 719.214844 186 "/>
</g>
</svg>
