<?xml version="1.0" encoding="UTF-8"?>
<svg xmlns="http://www.w3.org/2000/svg" xmlns:xlink="http://www.w3.org/1999/xlink" width="1129pt" height="517pt" viewBox="0 0 1129 517" version="1.1">
<g id="surface526">
<rect x="0" y="0" width="1129" height="517" style="fill:rgb(90%,90%,90%);fill-opacity:1;stroke:none;"/>
<path style="fill-rule:nonzero;fill:rgb(55%,51%,53%);fill-opacity:1;stroke-width:1;stroke-linecap:butt;stroke-linejoin:miter;stroke:rgb(0%,0%,0%);stroke-opacity:1;stroke-miterlimit:10;" d="M 128.214844 142 C 128.214844 153.714844 118.714844 163.214844 107 163.214844 C 95.285156 163.214844 85.785156 153.714844 85.785156 142 C 85.785156 130.285156 95.285156 120.785156 107 120.785156 C 118.714844 120.785156 128.214844 130.285156 128.214844 142 "/>
<path style="fill-rule:nonzero;fill:rgb(55%,51%,53%);fill-opacity:1;stroke-width:1;stroke-linecap:butt;stroke-linejoin:miter;stroke:rgb(0%,0%,0%);stroke-opacity:1;stroke-miterlimit:10;" d="M 427.214844 116 C 427.214844 127.714844 417.714844 137.214844 406 137.214844 C 394.285156 137.214844 384.785156 127.714844 384.785156 116 C 384.785156 104.285156 394.285156 94.785156 406 94.785156 C 417.714844 94.785156 427.214844 104.285156 427.214844 116 "/>
<path style="fill-rule:nonzero;fill:rgb(55%,51%,53%);fill-opacity:1;stroke-width:1;stroke-linecap:butt;stroke-linejoin:miter;stroke:rgb(0%,0%,0%);stroke-opacity:1;stroke-miterlimit:10;" d="M 401.214844 414 C 401.214844 425.714844 391.714844 435.214844 380 435.214844 C 368.285156 435.214844 358.785156 425.714844 358.785156 414 C 358.785156 402.285156 368.285156 392.785156 380 392.785156 C 391.714844 392.785156 401.214844 402.285156 401.214844 414 "/>
<path style="fill-rule:nonzero;fill:rgb(55%,51%,53%);fill-opacity:1;stroke-width:1;stroke-linecap:butt;stroke-linejoin:miter;stroke:rgb(0%,0%,0%);stroke-opacity:1;stroke-miterlimit:10;" d="M 251 359 L 225.019531 404 L 276.980469 404 L 251 359 "/>
<path style="fill-rule:nonzero;fill:rgb(55%,51%,53%);fill-opacity:1;stroke-width:1;stroke-linecap:butt;stroke-linejoin:miter;stroke:rgb(0%,0%,0%);stroke-opacity:1;stroke-miterlimit:10;" d="M 118.214844 246 C 118.214844 257.714844 108.714844 267.214844 97 267.214844 C 85.285156 267.214844 75.785156 257.714844 75.785156 246 C 75.785156 234.285156 85.285156 224.785156 97 224.785156 C 108.714844 224.785156 118.214844 234.285156 118.214844 246 "/>
<path style="fill-rule:nonzero;fill:rgb(53%,27%,7%);fill-opacity:1;stroke-width:1;stroke-linecap:butt;stroke-linejoin:miter;stroke:rgb(0%,0%,0%);stroke-opacity:1;stroke-miterlimit:10;" d="M 994 392 L 968.019531 437 L 1019.980469 437 L 994 392 "/>
<path style="fill-rule:nonzero;fill:rgb(53%,27%,7%);fill-opacity:1;stroke-width:1;stroke-linecap:butt;stroke-linejoin:miter;stroke:rgb(0%,0%,0%);stroke-opacity:1;stroke-miterlimit:10;" d="M 866 275 L 840.019531 320 L 891.980469 320 L 866 275 "/>
<path style="fill-rule:nonzero;fill:rgb(53%,27%,7%);fill-opacity:1;stroke-width:1;stroke-linecap:butt;stroke-linejoin:miter;stroke:rgb(0%,0%,0%);stroke-opacity:1;stroke-miterlimit:10;" d="M 1008 281 L 982.019531 326 L 1033.980469 326 L 1008 281 "/>
<path style="fill-rule:nonzero;fill:rgb(53%,27%,7%);fill-opacity:1;stroke-width:1;stroke-linecap:butt;stroke-linejoin:miter;stroke:rgb(0%,0%,0%);stroke-opacity:1;stroke-miterlimit:10;" d="M 685.214844 298 C 685.214844 309.714844 675.714844 319.214844 664 319.214844 C 652.285156 319.214844 642.785156 309.714844 642.785156 298 C 642.785156 286.285156 652.285156 276.785156 664 276.785156 C 675.714844 276.785156 685.214844 286.285156 685.214844 298 "/>
<path style="fill-rule:nonzero;fill:rgb(53%,27%,7%);fill-opacity:1;stroke-width:1;stroke-linecap:butt;stroke-linejoin:miter;stroke:rgb(0%,0%,0%);stroke-opacity:1;stroke-miterlimit:10;" d="M 891 27 L 865.019531 72 L 916.980469 72 L 891 27 "/>
<path style="fill-rule:nonzero;fill:rgb(53%,27%,7%);fill-opacity:1;stroke-width:1;stroke-linecap:butt;stroke-linejoin:miter;stroke:rgb(0%,0%,0%);stroke-opacity:1;stroke-miterlimit:10;" d="M 794 132 L 768.019531 177 L 819.980469 177 L 794 132 "/>
<path style="fill-rule:nonzero;fill:rgb(53%,27%,7%);fill-opacity:1;stroke-width:1;stroke-linecap:butt;stroke-linejoin:miter;stroke:rgb(0%,0%,0%);stroke-opacity:1;stroke-miterlimit:10;" d="M 765 394 L 739.019531 439 L 790.980469 439 L 765 394 "/>
</g>
</svg>
