<?xml version="1.0" encoding="UTF-8"?>
<svg xmlns="http://www.w3.org/2000/svg" xmlns:xlink="http://www.w3.org/1999/xlink" width="1129pt" height="517pt" viewBox="0 0 1129 517" version="1.1">
<g id="surface256">
<rect x="0" y="0" width="1129" height="517" style="fill:rgb(90%,90%,90%);fill-opacity:1;stroke:none;"/>
<path style="fill-rule:nonzero;fill:rgb(35%,70%,90%);fill-opacity:1;stroke-width:1;stroke-linecap:butt;stroke-linejoin:miter;stroke:rgb(0%,0%,0%);stroke-opacity:1;stroke-miterlimit:10;" d="M 86.214844 248 C 86.214844 259.714844 76.714844 269.214844 65 269.214844 C 53.285156 269.214844 43.785156 259.714844 43.785156 248 C 43.785156 236.285156 53.285156 226.785156 65 226.785156 C 76.714844 226.785156 86.214844 236.285156 86.214844 248 "/>
<path style="fill-rule:nonzero;fill:rgb(55%,51%,53%);fill-opacity:1;stroke-width:1;stroke-linecap:butt;stroke-linejoin:miter;stroke:rgb(0%,0%,0%);stroke-opacity:1;stroke-miterlimit:10;" d="M 136.214844 409 C 136.214844 420.714844 126.714844 430.214844 115 430.214844 C 103.285156 430.214844 93.785156 420.714844 93.785156 409 C 93.785156 397.285156 103.285156 387.785156 115 387.785156 C 126.714844 387.785156 136.214844 397.285156 136.214844 409 "/>
<path style="fill-rule:nonzero;fill:rgb(55%,51%,53%);fill-opacity:1;stroke-width:1;stroke-linecap:butt;stroke-linejoin:miter;stroke:rgb(0%,0%,0%);stroke-opacity:1;stroke-miterlimit:10;" d="M 288.214844 56 C 288.214844 67.714844 278.714844 77.214844 267 77.214844 C 255.285156 77.214844 245.785156 67.714844 245.785156 56 C 245.785156 44.285156 255.285156 34.785156 267 34.785156 C 278.714844 34.785156 288.214844 44.285156 288.214844 56 "/>
<path style="fill-rule:nonzero;fill:rgb(35%,70%,90%);fill-opacity:1;stroke-width:1;stroke-linecap:butt;stroke-linejoin:miter;stroke:rgb(0%,0%,0%);stroke-opacity:1;stroke-miterlimit:10;" d="M 130.214844 130 C 130.214844 141.714844 120.714844 151.214844 109 151.214844 C 97.285156 151.214844 87.785156 141.714844 87.785156 130 C 87.785156 118.285156 97.285156 108.785156 109 108.785156 C 120.714844 108.785156 130.214844 118.285156 130.214844 130 "/>
<path style="fill-rule:nonzero;fill:rgb(55%,51%,53%);fill-opacity:1;stroke-width:1;stroke-linecap:butt;stroke-linejoin:miter;stroke:rgb(0%,0%,0%);stroke-opacity:1;stroke-miterlimit:10;" d="M 876 388 L 850.019531 433 L 901.980469 433 L 876 388 "/>
<path style="fill-rule:nonzero;fill:rgb(35%,70%,90%);fill-opacity:1;stroke-width:1;stroke-linecap:butt;stroke-linejoin:miter;stroke:rgb(0%,0%,0%);stroke-opacity:1;stroke-miterlimit:10;" d="M 674 113 L 648.019531 158 L 699.980469 158 L 674 113 "/>
<path style="fill-rule:nonzero;fill:rgb(35%,70%,90%);fill-opacity:1;stroke-width:1;stroke-linecap:butt;stroke-linejoin:miter;stroke:rgb(0%,0%,0%);stroke-opacity:1;stroke-miterlimit:10;" d="M 817 102 L 791.019531 147 L 842.980469 147 L 817 102 "/>
<path style="fill-rule:nonzero;fill:rgb(55%,51%,53%);fill-opacity:1;stroke-width:1;stroke-linecap:butt;stroke-linejoin:miter;stroke:rgb(0%,0%,0%);stroke-opacity:1;stroke-miterlimit:10;" d="M 896 194 L 870.019531 239 L 921.980469 239 L 896 194 "/>
<path style="fill-rule:nonzero;fill:rgb(55%,51%,53%);fill-opacity:1;stroke-width:1;stroke-linecap:butt;stroke-linejoin:miter;stroke:rgb(0%,0%,0%);stroke-opacity:1;stroke-miterlimit:10;" d="M 801 308 L 775.019531 353 L 826.980469 353 L 801 308 "/>
</g>
</svg>
