<?xml version="1.0" encoding="UTF-8"?>
<svg xmlns="http://www.w3.org/2000/svg" xmlns:xlink="http://www.w3.org/1999/xlink" width="1179pt" height="517pt" viewBox="0 0 1179 517" version="1.1">
<g id="surface776">
<rect x="0" y="0" width="1179" height="517" style="fill:rgb(90%,90%,90%);fill-opacity:1;stroke:none;"/>
<path style="fill-rule:nonzero;fill:rgb(35%,70%,90%);fill-opacity:1;stroke-width:1;stroke-linecap:butt;stroke-linejoin:miter;stroke:rgb(0%,0%,0%);stroke-opacity:1;stroke-miterlimit:10;" d="M 350 359 L 379.664062 359 L 391.664062 330.785156 L 403.664062 359 L 433.332031 359 L 409.332031 376.4375 L 417.417969 407.980469 L 391.664062 390.542969 L 365.914062 407.980469 L 378.214844 376.4375 L 350 359 "/>
<path style="fill-rule:nonzero;fill:rgb(35%,70%,90%);fill-opacity:1;stroke-width:1;stroke-linecap:butt;stroke-linejoin:miter;stroke:rgb(0%,0%,0%);stroke-opacity:1;stroke-miterlimit:10;" d="M 243 256 L 272.664062 256 L 284.664062 227.785156 L 296.664062 256 L 326.332031 256 L 302.332031 273.4375 L 310.417969 304.980469 L 284.664062 287.542969 L 258.914062 304.980469 L 271.214844 273.4375 L 243 256 "/>
<path style="fill-rule:nonzero;fill:rgb(35%,70%,90%);fill-opacity:1;stroke-width:1;stroke-linecap:butt;stroke-linejoin:miter;stroke:rgb(0%,0%,0%);stroke-opacity:1;stroke-miterlimit:10;" d="M 257 405 L 286.664062 405 L 298.664062 376.785156 L 310.664062 405 L 340.332031 405 L 316.332031 422.4375 L 324.417969 453.980469 L 298.664062 436.542969 L 272.914062 453.980469 L 285.214844 422.4375 L 257 405 "/>
<path style="fill-rule:nonzero;fill:rgb(55%,51%,53%);fill-opacity:1;stroke-width:1;stroke-linecap:butt;stroke-linejoin:miter;stroke:rgb(0%,0%,0%);stroke-opacity:1;stroke-miterlimit:10;" d="M 168.214844 369 C 168.214844 380.714844 158.714844 390.214844 147 390.214844 C 135.285156 390.214844 125.785156 380.714844 125.785156 369 C 125.785156 357.285156 135.285156 347.785156 147 347.785156 C 158.714844 347.785156 168.214844 357.285156 168.214844 369 "/>
<path style="fill-rule:nonzero;fill:rgb(55%,51%,53%);fill-opacity:1;stroke-width:1;stroke-linecap:butt;stroke-linejoin:miter;stroke:rgb(0%,0%,0%);stroke-opacity:1;stroke-miterlimit:10;" d="M 149.214844 99 C 149.214844 110.714844 139.714844 120.214844 128 120.214844 C 116.285156 120.214844 106.785156 110.714844 106.785156 99 C 106.785156 87.285156 116.285156 77.785156 128 77.785156 C 139.714844 77.785156 149.214844 87.285156 149.214844 99 "/>
<path style="fill-rule:nonzero;fill:rgb(55%,51%,53%);fill-opacity:1;stroke-width:1;stroke-linecap:butt;stroke-linejoin:miter;stroke:rgb(0%,0%,0%);stroke-opacity:1;stroke-miterlimit:10;" d="M 305.214844 163 C 305.214844 174.714844 295.714844 184.214844 284 184.214844 C 272.285156 184.214844 262.785156 174.714844 262.785156 163 C 262.785156 151.285156 272.285156 141.785156 284 141.785156 C 295.714844 141.785156 305.214844 151.285156 305.214844 163 "/>
<path style="fill-rule:nonzero;fill:rgb(35%,70%,90%);fill-opacity:1;stroke-width:1;stroke-linecap:butt;stroke-linejoin:miter;stroke:rgb(0%,0%,0%);stroke-opacity:1;stroke-miterlimit:10;" d="M 913 279 L 942.664062 279 L 954.664062 250.785156 L 966.664062 279 L 996.332031 279 L 972.332031 296.4375 L 980.417969 327.980469 L 954.664062 310.542969 L 928.914062 327.980469 L 941.214844 296.4375 L 913 279 "/>
<path style="fill-rule:nonzero;fill:rgb(55%,51%,53%);fill-opacity:1;stroke-width:1;stroke-linecap:butt;stroke-linejoin:miter;stroke:rgb(0%,0%,0%);stroke-opacity:1;stroke-miterlimit:10;" d="M 762.214844 135 C 762.214844 146.714844 752.714844 156.214844 741 156.214844 C 729.285156 156.214844 719.785156 146.714844 719.785156 135 C 719.785156 123.285156 729.285156 113.785156 741 113.785156 C 752.714844 113.785156 762.214844 123.285156 762.214844 135 "/>
<path style="fill-rule:nonzero;fill:rgb(35%,70%,90%);fill-opacity:1;stroke-width:1;stroke-linecap:butt;stroke-linejoin:miter;stroke:rgb(0%,0%,0%);stroke-opacity:1;stroke-miterlimit:10;" d="M 758 276 L 787.664062 276 L 799.664062 247.785156 L 811.664062 276 L 841.332031 276 L 817.332031 293.4375 L 825.417969 324.980469 L 799.664062 307.542969 L 773.914062 324.980469 L 786.214844 293.4375 L 758 276 "/>
<path style="fill-rule:nonzero;fill:rgb(55%,51%,53%);fill-opacity:1;stroke-width:1;stroke-linecap:butt;stroke-linejoin:miter;stroke:rgb(0%,0%,0%);stroke-opacity:1;stroke-miterlimit:10;" d="M 1043.214844 381 C 1043.214844 392.714844 1033.714844 402.214844 1022 402.214844 C 1010.285156 402.214844 1000.785156 392.714844 1000.785156 381 C 1000.785156 369.285156 1010.285156 359.785156 1022 359.785156 C 1033.714844 359.785156 1043.214844 369.285156 1043.214844 381 "/>
<path style="fill-rule:nonzero;fill:rgb(55%,51%,53%);fill-opacity:1;stroke-width:1;stroke-linecap:butt;stroke-linejoin:miter;stroke:rgb(0%,0%,0%);stroke-opacity:1;stroke-miterlimit:10;" d="M 886.214844 141 C 886.214844 152.714844 876.714844 162.214844 865 162.214844 C 853.285156 162.214844 843.785156 152.714844 843.785156 141 C 843.785156 129.285156 853.285156 119.785156 865 119.785156 C 876.714844 119.785156 886.214844 129.285156 886.214844 141 "/>
<path style="fill-rule:nonzero;fill:rgb(55%,51%,53%);fill-opacity:1;stroke-width:1;stroke-linecap:butt;stroke-linejoin:miter;stroke:rgb(0%,0%,0%);stroke-opacity:1;stroke-miterlimit:10;" d="M 1013.214844 98 C 1013.214844 109.714844 1003.714844 119.214844 992 119.214844 C 980.285156 119.214844 970.785156 109.714844 970.785156 98 C 970.785156 86.285156 980.285156 76.785156 992 76.785156 C 1003.714844 76.785156 1013.214844 86.285156 1013.214844 98 "/>
<path style="fill-rule:nonzero;fill:rgb(55%,51%,53%);fill-opacity:1;stroke-width:1;stroke-linecap:butt;stroke-linejoin:miter;stroke:rgb(0%,0%,0%);stroke-opacity:1;stroke-miterlimit:10;" d="M 834.214844 376 C 834.214844 387.714844 824.714844 397.214844 813 397.214844 C 801.285156 397.214844 791.785156 387.714844 791.785156 376 C 791.785156 364.285156 801.285156 354.785156 813 354.785156 C 824.714844 354.785156 834.214844 364.285156 834.214844 376 "/>
<path style="fill-rule:nonzero;fill:rgb(55%,51%,53%);fill-opacity:1;stroke-width:1;stroke-linecap:butt;stroke-linejoin:miter;stroke:rgb(0%,0%,0%);stroke-opacity:1;stroke-miterlimit:10;" d="M 1041.214844 272 C 1041.214844 283.714844 1031.714844 293.214844 1020 293.214844 C 1008.285156 293.214844 998.785156 283.714844 998.785156 272 C 998.785156 260.285156 1008.285156 250.785156 1020 250.785156 C 1031.714844 250.785156 1041.214844 260.285156 1041.214844 272 "/>
</g>
</svg>
