<?xml version="1.0" encoding="UTF-8"?>
<svg xmlns="http://www.w3.org/2000/svg" xmlns:xlink="http://www.w3.org/1999/xlink" width="1129pt" height="517pt" viewBox="0 0 1129 517" version="1.1">
<g id="surface91">
<rect x="0" y="0" width="1129" height="517" style="fill:rgb(90%,90%,90%);fill-opacity:1;stroke:none;"/>
<path style="fill-rule:nonzero;fill:rgb(100%,51%,0%);fill-opacity:1;stroke-width:1;stroke-linecap:butt;stroke-linejoin:miter;stroke:rgb(0%,0%,0%);stroke-opacity:1;stroke-miterlimit:10;" d="M 562 290 L 591.664062 290 L 603.664062 261.785156 L 615.664062 290 L 645.332031 290 L 621.332031 307.4375 L 629.417969 338.980469 L 603.664062 321.542969 L 577.914062 338.980469 L 590.214844 307.4375 L 562 290 "/>
<path style="fill-rule:nonzero;fill:rgb(100%,51%,0%);fill-opacity:1;stroke-width:1;stroke-linecap:butt;stroke-linejoin:miter;stroke:rgb(0%,0%,0%);stroke-opacity:1;stroke-miterlimit:10;" d="M 96 430 L 125.664062 430 L 137.664062 401.785156 L 149.664062 430 L 179.332031 430 L 155.332031 447.4375 L 163.417969 478.980469 L 137.664062 461.542969 L 111.914062 478.980469 L 124.214844 447.4375 L 96 430 "/>
<path style="fill-rule:nonzero;fill:rgb(100%,51%,0%);fill-opacity:1;stroke-width:1;stroke-linecap:butt;stroke-linejoin:miter;stroke:rgb(0%,0%,0%);stroke-opacity:1;stroke-miterlimit:10;" d="M 68 344 L 97.664062 344 L 109.664062 315.785156 L 121.664062 344 L 151.332031 344 L 127.332031 361.4375 L 135.417969 392.980469 L 109.664062 375.542969 L 83.914062 392.980469 L 96.214844 361.4375 L 68 344 "/>
<path style="fill-rule:nonzero;fill:rgb(100%,51%,0%);fill-opacity:1;stroke-width:1;stroke-linecap:butt;stroke-linejoin:miter;stroke:rgb(0%,0%,0%);stroke-opacity:1;stroke-miterlimit:10;" d="M 839 208 L 868.664062 208 L 880.664062 179.785156 L 892.664062 208 L 922.332031 208 L 898.332031 225.4375 L 906.417969 256.980469 L 880.664062 239.542969 L 854.914062 256.980469 L 867.214844 225.4375 L 839 208 "/>
<path style="fill-rule:nonzero;fill:rgb(100%,51%,0%);fill-opacity:1;stroke-width:1;stroke-linecap:butt;stroke-linejoin:miter;stroke:rgb(0%,0%,0%);stroke-opacity:1;stroke-miterlimit:10;" d="M 289 424 L 318.664062 424 L 330.664062 395.785156 L 342.664062 424 L 372.332031 424 L 348.332031 441.4375 L 356.417969 472.980469 L 330.664062 455.542969 L 304.914062 472.980469 L 317.214844 441.4375 L 289 424 "/>
<path style="fill-rule:nonzero;fill:rgb(53%,27%,7%);fill-opacity:1;stroke-width:1;stroke-linecap:butt;stroke-linejoin:miter;stroke:rgb(0%,0%,0%);stroke-opacity:1;stroke-miterlimit:10;" d="M 846.214844 401 C 846.214844 412.714844 836.714844 422.214844 825 422.214844 C 813.285156 422.214844 803.785156 412.714844 803.785156 401 C 803.785156 389.285156 813.285156 379.785156 825 379.785156 C 836.714844 379.785156 846.214844 389.285156 846.214844 401 "/>
<path style="fill-rule:nonzero;fill:rgb(53%,27%,7%);fill-opacity:1;stroke-width:1;stroke-linecap:butt;stroke-linejoin:miter;stroke:rgb(0%,0%,0%);stroke-opacity:1;stroke-miterlimit:10;" d="M 689.214844 128 C 689.214844 139.714844 679.714844 149.214844 668 149.214844 C 656.285156 149.214844 646.785156 139.714844 646.785156 128 C 646.785156 116.285156 656.285156 106.785156 668 106.785156 C 679.714844 106.785156 689.214844 116.285156 689.214844 128 "/>
<path style="fill-rule:nonzero;fill:rgb(53%,27%,7%);fill-opacity:1;stroke-width:1;stroke-linecap:butt;stroke-linejoin:miter;stroke:rgb(0%,0%,0%);stroke-opacity:1;stroke-miterlimit:10;" d="M 621.214844 423 C 621.214844 434.714844 611.714844 444.214844 600 444.214844 C 588.285156 444.214844 578.785156 434.714844 578.785156 423 C 578.785156 411.285156 588.285156 401.785156 600 401.785156 C 611.714844 401.785156 621.214844 411.285156 621.214844 423 "/>
<path style="fill-rule:nonzero;fill:rgb(53%,27%,7%);fill-opacity:1;stroke-width:1;stroke-linecap:butt;stroke-linejoin:miter;stroke:rgb(0%,0%,0%);stroke-opacity:1;stroke-miterlimit:10;" d="M 492.214844 339 C 492.214844 350.714844 482.714844 360.214844 471 360.214844 C 459.285156 360.214844 449.785156 350.714844 449.785156 339 C 449.785156 327.285156 459.285156 317.785156 471 317.785156 C 482.714844 317.785156 492.214844 327.285156 492.214844 339 "/>
<path style="fill-rule:nonzero;fill:rgb(53%,27%,7%);fill-opacity:1;stroke-width:1;stroke-linecap:butt;stroke-linejoin:miter;stroke:rgb(0%,0%,0%);stroke-opacity:1;stroke-miterlimit:10;" d="M 140.214844 57 C 140.214844 68.714844 130.714844 78.214844 119 78.214844 C 107.285156 78.214844 97.785156 68.714844 97.785156 57 C 97.785156 45.285156 107.285156 35.785156 119 35.785156 C 130.714844 35.785156 140.214844 45.285156 140.214844 57 "/>
<path style="fill-rule:nonzero;fill:rgb(53%,27%,7%);fill-opacity:1;stroke-width:1;stroke-linecap:butt;stroke-linejoin:miter;stroke:rgb(0%,0%,0%);stroke-opacity:1;stroke-miterlimit:10;" d="M 771.214844 55 C 771.214844 66.714844 761.714844 76.214844 750 76.214844 C 738.285156 76.214844 728.785156 66.714844 728.785156 55 C 728.785156 43.285156 738.285156 33.785156 750 33.785156 C 761.714844 33.785156 771.214844 43.285156 771.214844 55 "/>
<path style="fill-rule:nonzero;fill:rgb(53%,27%,7%);fill-opacity:1;stroke-width:1;stroke-linecap:butt;stroke-linejoin:miter;stroke:rgb(0%,0%,0%);stroke-opacity:1;stroke-miterlimit:10;" d="M 727.214844 253 C 727.214844 264.714844 717.714844 274.214844 706 274.214844 C 694.285156 274.214844 684.785156 264.714844 684.785156 253 C 684.785156 241.285156 694.285156 231.785156 706 231.785156 C 717.714844 231.785156 727.214844 241.285156 727.214844 253 "/>
<path style="fill-rule:nonzero;fill:rgb(53%,27%,7%);fill-opacity:1;stroke-width:1;stroke-linecap:butt;stroke-linejoin:miter;stroke:rgb(0%,0%,0%);stroke-opacity:1;stroke-miterlimit:10;" d="M 266.214844 221 C 266.214844 232.714844 256.714844 242.214844 245 242.214844 C 233.285156 242.214844 223.785156 232.714844 223.785156 221 C 223.785156 209.285156 233.285156 199.785156 245 199.785156 C 256.714844 199.785156 266.214844 209.285156 266.214844 221 "/>
</g>
</svg>
