<?xml version="1.0" encoding="UTF-8"?>
<svg xmlns="http://www.w3.org/2000/svg" xmlns:xlink="http://www.w3.org/1999/xlink" width="1179pt" height="517pt" viewBox="0 0 1179 517" version="1.1">
<g id="surface736">
<rect x="0" y="0" width="1179" height="517" style="fill:rgb(90%,90%,90%);fill-opacity:1;stroke:none;"/>
<path style="fill-rule:nonzero;fill:rgb(55%,51%,53%);fill-opacity:1;stroke-width:1;stroke-linecap:butt;stroke-linejoin:miter;stroke:rgb(0%,0%,0%);stroke-opacity:1;stroke-miterlimit:10;" d="M 214 192 L 243.664062 192 L 255.664062 163.785156 L 267.664062 192 L 297.332031 192 L 273.332031 209.4375 L 281.417969 240.980469 L 255.664062 223.542969 L 229.914062 240.980469 L 242.214844 209.4375 L 214 192 "/>
<path style="fill-rule:nonzero;fill:rgb(53%,27%,7%);fill-opacity:1;stroke-width:1;stroke-linecap:butt;stroke-linejoin:miter;stroke:rgb(0%,0%,0%);stroke-opacity:1;stroke-miterlimit:10;" d="M 334 197 L 363.664062 197 L 375.664062 168.785156 L 387.664062 197 L 417.332031 197 L 393.332031 214.4375 L 401.417969 245.980469 L 375.664062 228.542969 L 349.914062 245.980469 L 362.214844 214.4375 L 334 197 "/>
<path style="fill-rule:nonzero;fill:rgb(55%,51%,53%);fill-opacity:1;stroke-width:1;stroke-linecap:butt;stroke-linejoin:miter;stroke:rgb(0%,0%,0%);stroke-opacity:1;stroke-miterlimit:10;" d="M 129 342 L 158.664062 342 L 170.664062 313.785156 L 182.664062 342 L 212.332031 342 L 188.332031 359.4375 L 196.417969 390.980469 L 170.664062 373.542969 L 144.914062 390.980469 L 157.214844 359.4375 L 129 342 "/>
<path style="fill-rule:nonzero;fill:rgb(53%,27%,7%);fill-opacity:1;stroke-width:1;stroke-linecap:butt;stroke-linejoin:miter;stroke:rgb(0%,0%,0%);stroke-opacity:1;stroke-miterlimit:10;" d="M 89 212 L 118.664062 212 L 130.664062 183.785156 L 142.664062 212 L 172.332031 212 L 148.332031 229.4375 L 156.417969 260.980469 L 130.664062 243.542969 L 104.914062 260.980469 L 117.214844 229.4375 L 89 212 "/>
<path style="fill-rule:nonzero;fill:rgb(55%,51%,53%);fill-opacity:1;stroke-width:1;stroke-linecap:butt;stroke-linejoin:miter;stroke:rgb(0%,0%,0%);stroke-opacity:1;stroke-miterlimit:10;" d="M 401 340 L 430.664062 340 L 442.664062 311.785156 L 454.664062 340 L 484.332031 340 L 460.332031 357.4375 L 468.417969 388.980469 L 442.664062 371.542969 L 416.914062 388.980469 L 429.214844 357.4375 L 401 340 "/>
<path style="fill-rule:nonzero;fill:rgb(53%,27%,7%);fill-opacity:1;stroke-width:1;stroke-linecap:butt;stroke-linejoin:miter;stroke:rgb(0%,0%,0%);stroke-opacity:1;stroke-miterlimit:10;" d="M 997 246 L 1026.664062 246 L 1038.664062 217.785156 L 1050.664062 246 L 1080.332031 246 L 1056.332031 263.4375 L 1064.417969 294.980469 L 1038.664062 277.542969 L 1012.914062 294.980469 L 1025.214844 263.4375 L 997 246 "/>
<path style="fill-rule:nonzero;fill:rgb(55%,51%,53%);fill-opacity:1;stroke-width:1;stroke-linecap:butt;stroke-linejoin:miter;stroke:rgb(0%,0%,0%);stroke-opacity:1;stroke-miterlimit:10;" d="M 855 121 L 884.664062 121 L 896.664062 92.785156 L 908.664062 121 L 938.332031 121 L 914.332031 138.4375 L 922.417969 169.980469 L 896.664062 152.542969 L 870.914062 169.980469 L 883.214844 138.4375 L 855 121 "/>
<path style="fill-rule:nonzero;fill:rgb(55%,51%,53%);fill-opacity:1;stroke-width:1;stroke-linecap:butt;stroke-linejoin:miter;stroke:rgb(0%,0%,0%);stroke-opacity:1;stroke-miterlimit:10;" d="M 713 406 L 742.664062 406 L 754.664062 377.785156 L 766.664062 406 L 796.332031 406 L 772.332031 423.4375 L 780.417969 454.980469 L 754.664062 437.542969 L 728.914062 454.980469 L 741.214844 423.4375 L 713 406 "/>
<path style="fill-rule:nonzero;fill:rgb(55%,51%,53%);fill-opacity:1;stroke-width:1;stroke-linecap:butt;stroke-linejoin:miter;stroke:rgb(0%,0%,0%);stroke-opacity:1;stroke-miterlimit:10;" d="M 953 87 L 982.664062 87 L 994.664062 58.785156 L 1006.664062 87 L 1036.332031 87 L 1012.332031 104.4375 L 1020.417969 135.980469 L 994.664062 118.542969 L 968.914062 135.980469 L 981.214844 104.4375 L 953 87 "/>
<path style="fill-rule:nonzero;fill:rgb(55%,51%,53%);fill-opacity:1;stroke-width:1;stroke-linecap:butt;stroke-linejoin:miter;stroke:rgb(0%,0%,0%);stroke-opacity:1;stroke-miterlimit:10;" d="M 847 245 L 876.664062 245 L 888.664062 216.785156 L 900.664062 245 L 930.332031 245 L 906.332031 262.4375 L 914.417969 293.980469 L 888.664062 276.542969 L 862.914062 293.980469 L 875.214844 262.4375 L 847 245 "/>
<path style="fill-rule:nonzero;fill:rgb(53%,27%,7%);fill-opacity:1;stroke-width:1;stroke-linecap:butt;stroke-linejoin:miter;stroke:rgb(0%,0%,0%);stroke-opacity:1;stroke-miterlimit:10;" d="M 1023 407 L 1052.664062 407 L 1064.664062 378.785156 L 1076.664062 407 L 1106.332031 407 L 1082.332031 424.4375 L 1090.417969 455.980469 L 1064.664062 438.542969 L 1038.914062 455.980469 L 1051.214844 424.4375 L 1023 407 "/>
<path style="fill-rule:nonzero;fill:rgb(53%,27%,7%);fill-opacity:1;stroke-width:1;stroke-linecap:butt;stroke-linejoin:miter;stroke:rgb(0%,0%,0%);stroke-opacity:1;stroke-miterlimit:10;" d="M 736 85 L 765.664062 85 L 777.664062 56.785156 L 789.664062 85 L 819.332031 85 L 795.332031 102.4375 L 803.417969 133.980469 L 777.664062 116.542969 L 751.914062 133.980469 L 764.214844 102.4375 L 736 85 "/>
<path style="fill-rule:nonzero;fill:rgb(55%,51%,53%);fill-opacity:1;stroke-width:1;stroke-linecap:butt;stroke-linejoin:miter;stroke:rgb(0%,0%,0%);stroke-opacity:1;stroke-miterlimit:10;" d="M 876 356 L 905.664062 356 L 917.664062 327.785156 L 929.664062 356 L 959.332031 356 L 935.332031 373.4375 L 943.417969 404.980469 L 917.664062 387.542969 L 891.914062 404.980469 L 904.214844 373.4375 L 876 356 "/>
</g>
</svg>
