<?xml version="1.0" encoding="UTF-8"?>
<svg xmlns="http://www.w3.org/2000/svg" xmlns:xlink="http://www.w3.org/1999/xlink" width="1129pt" height="517pt" viewBox="0 0 1129 517" version="1.1">
<g id="surface271">
<rect x="0" y="0" width="1129" height="517" style="fill:rgb(90%,90%,90%);fill-opacity:1;stroke:none;"/>
<path style="fill-rule:nonzero;fill:rgb(100%,51%,0%);fill-opacity:1;stroke-width:1;stroke-linecap:butt;stroke-linejoin:miter;stroke:rgb(0%,0%,0%);stroke-opacity:1;stroke-miterlimit:10;" d="M 460 89 L 489.664062 89 L 501.664062 60.785156 L 513.664062 89 L 543.332031 89 L 519.332031 106.4375 L 527.417969 137.980469 L 501.664062 120.542969 L 475.914062 137.980469 L 488.214844 106.4375 L 460 89 "/>
<path style="fill-rule:nonzero;fill:rgb(100%,51%,0%);fill-opacity:1;stroke-width:1;stroke-linecap:butt;stroke-linejoin:miter;stroke:rgb(0%,0%,0%);stroke-opacity:1;stroke-miterlimit:10;" d="M 754 226 L 783.664062 226 L 795.664062 197.785156 L 807.664062 226 L 837.332031 226 L 813.332031 243.4375 L 821.417969 274.980469 L 795.664062 257.542969 L 769.914062 274.980469 L 782.214844 243.4375 L 754 226 "/>
<path style="fill-rule:nonzero;fill:rgb(100%,51%,0%);fill-opacity:1;stroke-width:1;stroke-linecap:butt;stroke-linejoin:miter;stroke:rgb(0%,0%,0%);stroke-opacity:1;stroke-miterlimit:10;" d="M 310 131 L 339.664062 131 L 351.664062 102.785156 L 363.664062 131 L 393.332031 131 L 369.332031 148.4375 L 377.417969 179.980469 L 351.664062 162.542969 L 325.914062 179.980469 L 338.214844 148.4375 L 310 131 "/>
<path style="fill-rule:nonzero;fill:rgb(100%,51%,0%);fill-opacity:1;stroke-width:1;stroke-linecap:butt;stroke-linejoin:miter;stroke:rgb(0%,0%,0%);stroke-opacity:1;stroke-miterlimit:10;" d="M 141 425 L 170.664062 425 L 182.664062 396.785156 L 194.664062 425 L 224.332031 425 L 200.332031 442.4375 L 208.417969 473.980469 L 182.664062 456.542969 L 156.914062 473.980469 L 169.214844 442.4375 L 141 425 "/>
<path style="fill-rule:nonzero;fill:rgb(100%,51%,0%);fill-opacity:1;stroke-width:1;stroke-linecap:butt;stroke-linejoin:miter;stroke:rgb(0%,0%,0%);stroke-opacity:1;stroke-miterlimit:10;" d="M 236 60 L 265.664062 60 L 277.664062 31.785156 L 289.664062 60 L 319.332031 60 L 295.332031 77.4375 L 303.417969 108.980469 L 277.664062 91.542969 L 251.914062 108.980469 L 264.214844 77.4375 L 236 60 "/>
<path style="fill-rule:nonzero;fill:rgb(53%,27%,7%);fill-opacity:1;stroke-width:1;stroke-linecap:butt;stroke-linejoin:miter;stroke:rgb(0%,0%,0%);stroke-opacity:1;stroke-miterlimit:10;" d="M 135.214844 284 C 135.214844 295.714844 125.714844 305.214844 114 305.214844 C 102.285156 305.214844 92.785156 295.714844 92.785156 284 C 92.785156 272.285156 102.285156 262.785156 114 262.785156 C 125.714844 262.785156 135.214844 272.285156 135.214844 284 "/>
<path style="fill-rule:nonzero;fill:rgb(53%,27%,7%);fill-opacity:1;stroke-width:1;stroke-linecap:butt;stroke-linejoin:miter;stroke:rgb(0%,0%,0%);stroke-opacity:1;stroke-miterlimit:10;" d="M 643.214844 397 C 643.214844 408.714844 633.714844 418.214844 622 418.214844 C 610.285156 418.214844 600.785156 408.714844 600.785156 397 C 600.785156 385.285156 610.285156 375.785156 622 375.785156 C 633.714844 375.785156 643.214844 385.285156 643.214844 397 "/>
<path style="fill-rule:nonzero;fill:rgb(53%,27%,7%);fill-opacity:1;stroke-width:1;stroke-linecap:butt;stroke-linejoin:miter;stroke:rgb(0%,0%,0%);stroke-opacity:1;stroke-miterlimit:10;" d="M 871.214844 285 C 871.214844 296.714844 861.714844 306.214844 850 306.214844 C 838.285156 306.214844 828.785156 296.714844 828.785156 285 C 828.785156 273.285156 838.285156 263.785156 850 263.785156 C 861.714844 263.785156 871.214844 273.285156 871.214844 285 "/>
<path style="fill-rule:nonzero;fill:rgb(53%,27%,7%);fill-opacity:1;stroke-width:1;stroke-linecap:butt;stroke-linejoin:miter;stroke:rgb(0%,0%,0%);stroke-opacity:1;stroke-miterlimit:10;" d="M 204.214844 212 C 204.214844 223.714844 194.714844 233.214844 183 233.214844 C 171.285156 233.214844 161.785156 223.714844 161.785156 212 C 161.785156 200.285156 171.285156 190.785156 183 190.785156 C 194.714844 190.785156 204.214844 200.285156 204.214844 212 "/>
<path style="fill-rule:nonzero;fill:rgb(53%,27%,7%);fill-opacity:1;stroke-width:1;stroke-linecap:butt;stroke-linejoin:miter;stroke:rgb(0%,0%,0%);stroke-opacity:1;stroke-miterlimit:10;" d="M 662.214844 58 C 662.214844 69.714844 652.714844 79.214844 641 79.214844 C 629.285156 79.214844 619.785156 69.714844 619.785156 58 C 619.785156 46.285156 629.285156 36.785156 641 36.785156 C 652.714844 36.785156 662.214844 46.285156 662.214844 58 "/>
<path style="fill-rule:nonzero;fill:rgb(53%,27%,7%);fill-opacity:1;stroke-width:1;stroke-linecap:butt;stroke-linejoin:miter;stroke:rgb(0%,0%,0%);stroke-opacity:1;stroke-miterlimit:10;" d="M 978.214844 295 C 978.214844 306.714844 968.714844 316.214844 957 316.214844 C 945.285156 316.214844 935.785156 306.714844 935.785156 295 C 935.785156 283.285156 945.285156 273.785156 957 273.785156 C 968.714844 273.785156 978.214844 283.285156 978.214844 295 "/>
<path style="fill-rule:nonzero;fill:rgb(53%,27%,7%);fill-opacity:1;stroke-width:1;stroke-linecap:butt;stroke-linejoin:miter;stroke:rgb(0%,0%,0%);stroke-opacity:1;stroke-miterlimit:10;" d="M 842.214844 392 C 842.214844 403.714844 832.714844 413.214844 821 413.214844 C 809.285156 413.214844 799.785156 403.714844 799.785156 392 C 799.785156 380.285156 809.285156 370.785156 821 370.785156 C 832.714844 370.785156 842.214844 380.285156 842.214844 392 "/>
<path style="fill-rule:nonzero;fill:rgb(53%,27%,7%);fill-opacity:1;stroke-width:1;stroke-linecap:butt;stroke-linejoin:miter;stroke:rgb(0%,0%,0%);stroke-opacity:1;stroke-miterlimit:10;" d="M 483.214844 295 C 483.214844 306.714844 473.714844 316.214844 462 316.214844 C 450.285156 316.214844 440.785156 306.714844 440.785156 295 C 440.785156 283.285156 450.285156 273.785156 462 273.785156 C 473.714844 273.785156 483.214844 283.285156 483.214844 295 "/>
</g>
</svg>
