<?xml version="1.0" encoding="UTF-8"?>
<svg xmlns="http://www.w3.org/2000/svg" xmlns:xlink="http://www.w3.org/1999/xlink" width="1129pt" height="517pt" viewBox="0 0 1129 517" version="1.1">
<g id="surface551">
<rect x="0" y="0" width="1129" height="517" style="fill:rgb(90%,90%,90%);fill-opacity:1;stroke:none;"/>
<path style="fill-rule:nonzero;fill:rgb(35%,70%,90%);fill-opacity:1;stroke-width:1;stroke-linecap:butt;stroke-linejoin:miter;stroke:rgb(0%,0%,0%);stroke-opacity:1;stroke-miterlimit:10;" d="M 374 51 L 403.664062 51 L 415.664062 22.785156 L 427.664062 51 L 457.332031 51 L 433.332031 68.4375 L 441.417969 99.980469 L 415.664062 82.542969 L 389.914062 99.980469 L 402.214844 68.4375 L 374 51 "/>
<path style="fill-rule:nonzero;fill:rgb(100%,51%,0%);fill-opacity:1;stroke-width:1;stroke-linecap:butt;stroke-linejoin:miter;stroke:rgb(0%,0%,0%);stroke-opacity:1;stroke-miterlimit:10;" d="M 243 454 L 272.664062 454 L 284.664062 425.785156 L 296.664062 454 L 326.332031 454 L 302.332031 471.4375 L 310.417969 502.980469 L 284.664062 485.542969 L 258.914062 502.980469 L 271.214844 471.4375 L 243 454 "/>
<path style="fill-rule:nonzero;fill:rgb(35%,70%,90%);fill-opacity:1;stroke-width:1;stroke-linecap:butt;stroke-linejoin:miter;stroke:rgb(0%,0%,0%);stroke-opacity:1;stroke-miterlimit:10;" d="M 410 237 L 439.664062 237 L 451.664062 208.785156 L 463.664062 237 L 493.332031 237 L 469.332031 254.4375 L 477.417969 285.980469 L 451.664062 268.542969 L 425.914062 285.980469 L 438.214844 254.4375 L 410 237 "/>
<path style="fill-rule:nonzero;fill:rgb(100%,51%,0%);fill-opacity:1;stroke-width:1;stroke-linecap:butt;stroke-linejoin:miter;stroke:rgb(0%,0%,0%);stroke-opacity:1;stroke-miterlimit:10;" d="M 176 110 L 205.664062 110 L 217.664062 81.785156 L 229.664062 110 L 259.332031 110 L 235.332031 127.4375 L 243.417969 158.980469 L 217.664062 141.542969 L 191.914062 158.980469 L 204.214844 127.4375 L 176 110 "/>
<path style="fill-rule:nonzero;fill:rgb(35%,70%,90%);fill-opacity:1;stroke-width:1;stroke-linecap:butt;stroke-linejoin:miter;stroke:rgb(0%,0%,0%);stroke-opacity:1;stroke-miterlimit:10;" d="M 286 287 L 315.664062 287 L 327.664062 258.785156 L 339.664062 287 L 369.332031 287 L 345.332031 304.4375 L 353.417969 335.980469 L 327.664062 318.542969 L 301.914062 335.980469 L 314.214844 304.4375 L 286 287 "/>
<path style="fill-rule:nonzero;fill:rgb(35%,70%,90%);fill-opacity:1;stroke-width:1;stroke-linecap:butt;stroke-linejoin:miter;stroke:rgb(0%,0%,0%);stroke-opacity:1;stroke-miterlimit:10;" d="M 56 364 L 85.664062 364 L 97.664062 335.785156 L 109.664062 364 L 139.332031 364 L 115.332031 381.4375 L 123.417969 412.980469 L 97.664062 395.542969 L 71.914062 412.980469 L 84.214844 381.4375 L 56 364 "/>
<path style="fill-rule:nonzero;fill:rgb(35%,70%,90%);fill-opacity:1;stroke-width:1;stroke-linecap:butt;stroke-linejoin:miter;stroke:rgb(0%,0%,0%);stroke-opacity:1;stroke-miterlimit:10;" d="M 161 234 L 190.664062 234 L 202.664062 205.785156 L 214.664062 234 L 244.332031 234 L 220.332031 251.4375 L 228.417969 282.980469 L 202.664062 265.542969 L 176.914062 282.980469 L 189.214844 251.4375 L 161 234 "/>
<path style="fill-rule:nonzero;fill:rgb(100%,51%,0%);fill-opacity:1;stroke-width:1;stroke-linecap:butt;stroke-linejoin:miter;stroke:rgb(0%,0%,0%);stroke-opacity:1;stroke-miterlimit:10;" d="M 723.785156 325.785156 L 723.785156 368.214844 L 766.214844 368.214844 L 766.214844 325.785156 L 723.785156 325.785156 "/>
<path style="fill-rule:nonzero;fill:rgb(35%,70%,90%);fill-opacity:1;stroke-width:1;stroke-linecap:butt;stroke-linejoin:miter;stroke:rgb(0%,0%,0%);stroke-opacity:1;stroke-miterlimit:10;" d="M 649.785156 30.785156 L 649.785156 73.214844 L 692.214844 73.214844 L 692.214844 30.785156 L 649.785156 30.785156 "/>
<path style="fill-rule:nonzero;fill:rgb(100%,51%,0%);fill-opacity:1;stroke-width:1;stroke-linecap:butt;stroke-linejoin:miter;stroke:rgb(0%,0%,0%);stroke-opacity:1;stroke-miterlimit:10;" d="M 892.785156 220.785156 L 892.785156 263.214844 L 935.214844 263.214844 L 935.214844 220.785156 L 892.785156 220.785156 "/>
<path style="fill-rule:nonzero;fill:rgb(35%,70%,90%);fill-opacity:1;stroke-width:1;stroke-linecap:butt;stroke-linejoin:miter;stroke:rgb(0%,0%,0%);stroke-opacity:1;stroke-miterlimit:10;" d="M 940.785156 369.785156 L 940.785156 412.214844 L 983.214844 412.214844 L 983.214844 369.785156 L 940.785156 369.785156 "/>
<path style="fill-rule:nonzero;fill:rgb(100%,51%,0%);fill-opacity:1;stroke-width:1;stroke-linecap:butt;stroke-linejoin:miter;stroke:rgb(0%,0%,0%);stroke-opacity:1;stroke-miterlimit:10;" d="M 820.785156 344.785156 L 820.785156 387.214844 L 863.214844 387.214844 L 863.214844 344.785156 L 820.785156 344.785156 "/>
<path style="fill-rule:nonzero;fill:rgb(100%,51%,0%);fill-opacity:1;stroke-width:1;stroke-linecap:butt;stroke-linejoin:miter;stroke:rgb(0%,0%,0%);stroke-opacity:1;stroke-miterlimit:10;" d="M 952.785156 100.785156 L 952.785156 143.214844 L 995.214844 143.214844 L 995.214844 100.785156 L 952.785156 100.785156 "/>
</g>
</svg>
