<?xml version="1.0" encoding="UTF-8"?>
<svg xmlns="http://www.w3.org/2000/svg" xmlns:xlink="http://www.w3.org/1999/xlink" width="1179pt" height="517pt" viewBox="0 0 1179 517" version="1.1">
<g id="surface396">
<rect x="0" y="0" width="1179" height="517" style="fill:rgb(90%,90%,90%);fill-opacity:1;stroke:none;"/>
<path style="fill-rule:nonzero;fill:rgb(35%,70%,90%);fill-opacity:1;stroke-width:1;stroke-linecap:butt;stroke-linejoin:miter;stroke:rgb(0%,0%,0%);stroke-opacity:1;stroke-miterlimit:10;" d="M 216 136 L 245.664062 136 L 257.664062 107.785156 L 269.664062 136 L 299.332031 136 L 275.332031 153.4375 L 283.417969 184.980469 L 257.664062 167.542969 L 231.914062 184.980469 L 244.214844 153.4375 L 216 136 "/>
<path style="fill-rule:nonzero;fill:rgb(35%,70%,90%);fill-opacity:1;stroke-width:1;stroke-linecap:butt;stroke-linejoin:miter;stroke:rgb(0%,0%,0%);stroke-opacity:1;stroke-miterlimit:10;" d="M 354 340 L 383.664062 340 L 395.664062 311.785156 L 407.664062 340 L 437.332031 340 L 413.332031 357.4375 L 421.417969 388.980469 L 395.664062 371.542969 L 369.914062 388.980469 L 382.214844 357.4375 L 354 340 "/>
<path style="fill-rule:nonzero;fill:rgb(35%,70%,90%);fill-opacity:1;stroke-width:1;stroke-linecap:butt;stroke-linejoin:miter;stroke:rgb(0%,0%,0%);stroke-opacity:1;stroke-miterlimit:10;" d="M 86 95 L 115.664062 95 L 127.664062 66.785156 L 139.664062 95 L 169.332031 95 L 145.332031 112.4375 L 153.417969 143.980469 L 127.664062 126.542969 L 101.914062 143.980469 L 114.214844 112.4375 L 86 95 "/>
<path style="fill-rule:nonzero;fill:rgb(35%,70%,90%);fill-opacity:1;stroke-width:1;stroke-linecap:butt;stroke-linejoin:miter;stroke:rgb(0%,0%,0%);stroke-opacity:1;stroke-miterlimit:10;" d="M 288 267 L 317.664062 267 L 329.664062 238.785156 L 341.664062 267 L 371.332031 267 L 347.332031 284.4375 L 355.417969 315.980469 L 329.664062 298.542969 L 303.914062 315.980469 L 316.214844 284.4375 L 288 267 "/>
<path style="fill-rule:nonzero;fill:rgb(35%,70%,90%);fill-opacity:1;stroke-width:1;stroke-linecap:butt;stroke-linejoin:miter;stroke:rgb(0%,0%,0%);stroke-opacity:1;stroke-miterlimit:10;" d="M 157 322 L 186.664062 322 L 198.664062 293.785156 L 210.664062 322 L 240.332031 322 L 216.332031 339.4375 L 224.417969 370.980469 L 198.664062 353.542969 L 172.914062 370.980469 L 185.214844 339.4375 L 157 322 "/>
<path style="fill-rule:nonzero;fill:rgb(53%,27%,7%);fill-opacity:1;stroke-width:1;stroke-linecap:butt;stroke-linejoin:miter;stroke:rgb(0%,0%,0%);stroke-opacity:1;stroke-miterlimit:10;" d="M 381 129 L 355.019531 174 L 406.980469 174 L 381 129 "/>
<path style="fill-rule:nonzero;fill:rgb(53%,27%,7%);fill-opacity:1;stroke-width:1;stroke-linecap:butt;stroke-linejoin:miter;stroke:rgb(0%,0%,0%);stroke-opacity:1;stroke-miterlimit:10;" d="M 179 384 L 153.019531 429 L 204.980469 429 L 179 384 "/>
<path style="fill-rule:nonzero;fill:rgb(53%,27%,7%);fill-opacity:1;stroke-width:1;stroke-linecap:butt;stroke-linejoin:miter;stroke:rgb(0%,0%,0%);stroke-opacity:1;stroke-miterlimit:10;" d="M 720 215 L 694.019531 260 L 745.980469 260 L 720 215 "/>
<path style="fill-rule:nonzero;fill:rgb(53%,27%,7%);fill-opacity:1;stroke-width:1;stroke-linecap:butt;stroke-linejoin:miter;stroke:rgb(0%,0%,0%);stroke-opacity:1;stroke-miterlimit:10;" d="M 904 194 L 878.019531 239 L 929.980469 239 L 904 194 "/>
<path style="fill-rule:nonzero;fill:rgb(53%,27%,7%);fill-opacity:1;stroke-width:1;stroke-linecap:butt;stroke-linejoin:miter;stroke:rgb(0%,0%,0%);stroke-opacity:1;stroke-miterlimit:10;" d="M 863 396 L 837.019531 441 L 888.980469 441 L 863 396 "/>
<path style="fill-rule:nonzero;fill:rgb(53%,27%,7%);fill-opacity:1;stroke-width:1;stroke-linecap:butt;stroke-linejoin:miter;stroke:rgb(0%,0%,0%);stroke-opacity:1;stroke-miterlimit:10;" d="M 916 57 L 890.019531 102 L 941.980469 102 L 916 57 "/>
<path style="fill-rule:nonzero;fill:rgb(35%,70%,90%);fill-opacity:1;stroke-width:1;stroke-linecap:butt;stroke-linejoin:miter;stroke:rgb(0%,0%,0%);stroke-opacity:1;stroke-miterlimit:10;" d="M 836 319 L 865.664062 319 L 877.664062 290.785156 L 889.664062 319 L 919.332031 319 L 895.332031 336.4375 L 903.417969 367.980469 L 877.664062 350.542969 L 851.914062 367.980469 L 864.214844 336.4375 L 836 319 "/>
<path style="fill-rule:nonzero;fill:rgb(53%,27%,7%);fill-opacity:1;stroke-width:1;stroke-linecap:butt;stroke-linejoin:miter;stroke:rgb(0%,0%,0%);stroke-opacity:1;stroke-miterlimit:10;" d="M 1009 240 L 983.019531 285 L 1034.980469 285 L 1009 240 "/>
<path style="fill-rule:nonzero;fill:rgb(53%,27%,7%);fill-opacity:1;stroke-width:1;stroke-linecap:butt;stroke-linejoin:miter;stroke:rgb(0%,0%,0%);stroke-opacity:1;stroke-miterlimit:10;" d="M 816 161 L 790.019531 206 L 841.980469 206 L 816 161 "/>
</g>
</svg>
