<?xml version="1.0" encoding="UTF-8"?>
<svg xmlns="http://www.w3.org/2000/svg" xmlns:xlink="http://www.w3.org/1999/xlink" width="1129pt" height="517pt" viewBox="0 0 1129 517" version="1.1">
<g id="surface981">
<rect x="0" y="0" width="1129" height="517" style="fill:rgb(90%,90%,90%);fill-opacity:1;stroke:none;"/>
<path style="fill-rule:nonzero;fill:rgb(100%,0%,0%);fill-opacity:1;stroke-width:1;stroke-linecap:butt;stroke-linejoin:miter;stroke:rgb(0%,0%,0%);stroke-opacity:1;stroke-miterlimit:10;" d="M 461 178.601562 C 461 164.199219 437 164.199219 437 178.601562 C 437 193 461 195.398438 461 207.398438 C 461 195.398438 485 193 485 178.601562 C 485 164.199219 461 164.199219 461 178.601562 "/>
<path style="fill-rule:nonzero;fill:rgb(100%,0%,0%);fill-opacity:1;stroke-width:1;stroke-linecap:butt;stroke-linejoin:miter;stroke:rgb(0%,0%,0%);stroke-opacity:1;stroke-miterlimit:10;" d="M 95 319.601562 C 95 305.199219 71 305.199219 71 319.601562 C 71 334 95 336.398438 95 348.398438 C 95 336.398438 119 334 119 319.601562 C 119 305.199219 95 305.199219 95 319.601562 "/>
<path style="fill-rule:nonzero;fill:rgb(100%,0%,0%);fill-opacity:1;stroke-width:1;stroke-linecap:butt;stroke-linejoin:miter;stroke:rgb(0%,0%,0%);stroke-opacity:1;stroke-miterlimit:10;" d="M 682 252.601562 C 682 238.199219 658 238.199219 658 252.601562 C 658 267 682 269.398438 682 281.398438 C 682 269.398438 706 267 706 252.601562 C 706 238.199219 682 238.199219 682 252.601562 "/>
<path style="fill-rule:nonzero;fill:rgb(100%,0%,0%);fill-opacity:1;stroke-width:1;stroke-linecap:butt;stroke-linejoin:miter;stroke:rgb(0%,0%,0%);stroke-opacity:1;stroke-miterlimit:10;" d="M 352 288.601562 C 352 274.199219 328 274.199219 328 288.601562 C 328 303 352 305.398438 352 317.398438 C 352 305.398438 376 303 376 288.601562 C 376 274.199219 352 274.199219 352 288.601562 "/>
<path style="fill-rule:nonzero;fill:rgb(100%,0%,0%);fill-opacity:1;stroke-width:1;stroke-linecap:butt;stroke-linejoin:miter;stroke:rgb(0%,0%,0%);stroke-opacity:1;stroke-miterlimit:10;" d="M 194 402.601562 C 194 388.199219 170 388.199219 170 402.601562 C 170 417 194 419.398438 194 431.398438 C 194 419.398438 218 417 218 402.601562 C 218 388.199219 194 388.199219 194 402.601562 "/>
<path style="fill-rule:nonzero;fill:rgb(0%,0%,0%);fill-opacity:1;stroke-width:1;stroke-linecap:butt;stroke-linejoin:miter;stroke:rgb(0%,0%,0%);stroke-opacity:1;stroke-miterlimit:10;" d="M 828 368 L 808 368 L 808 378 L 828 378 L 828 398 L 838 398 L 838 378 L 858 378 L 858 368 L 838 368 L 838 348 L 828 348 L 828 368 "/>
<path style="fill-rule:nonzero;fill:rgb(0%,0%,0%);fill-opacity:1;stroke-width:1;stroke-linecap:butt;stroke-linejoin:miter;stroke:rgb(0%,0%,0%);stroke-opacity:1;stroke-miterlimit:10;" d="M 572 168 L 552 168 L 552 178 L 572 178 L 572 198 L 582 198 L 582 178 L 602 178 L 602 168 L 582 168 L 582 148 L 572 148 L 572 168 "/>
<path style="fill-rule:nonzero;fill:rgb(0%,0%,0%);fill-opacity:1;stroke-width:1;stroke-linecap:butt;stroke-linejoin:miter;stroke:rgb(0%,0%,0%);stroke-opacity:1;stroke-miterlimit:10;" d="M 922 384 L 902 384 L 902 394 L 922 394 L 922 414 L 932 414 L 932 394 L 952 394 L 952 384 L 932 384 L 932 364 L 922 364 L 922 384 "/>
<path style="fill-rule:nonzero;fill:rgb(0%,0%,0%);fill-opacity:1;stroke-width:1;stroke-linecap:butt;stroke-linejoin:miter;stroke:rgb(0%,0%,0%);stroke-opacity:1;stroke-miterlimit:10;" d="M 497 349 L 477 349 L 477 359 L 497 359 L 497 379 L 507 379 L 507 359 L 527 359 L 527 349 L 507 349 L 507 329 L 497 329 L 497 349 "/>
<path style="fill-rule:nonzero;fill:rgb(0%,0%,0%);fill-opacity:1;stroke-width:1;stroke-linecap:butt;stroke-linejoin:miter;stroke:rgb(0%,0%,0%);stroke-opacity:1;stroke-miterlimit:10;" d="M 306 62 L 286 62 L 286 72 L 306 72 L 306 92 L 316 92 L 316 72 L 336 72 L 336 62 L 316 62 L 316 42 L 306 42 L 306 62 "/>
<path style="fill-rule:nonzero;fill:rgb(0%,0%,0%);fill-opacity:1;stroke-width:1;stroke-linecap:butt;stroke-linejoin:miter;stroke:rgb(0%,0%,0%);stroke-opacity:1;stroke-miterlimit:10;" d="M 800 97 L 780 97 L 780 107 L 800 107 L 800 127 L 810 127 L 810 107 L 830 107 L 830 97 L 810 97 L 810 77 L 800 77 L 800 97 "/>
</g>
</svg>
