<?xml version="1.0" encoding="UTF-8"?>
<svg xmlns="http://www.w3.org/2000/svg" xmlns:xlink="http://www.w3.org/1999/xlink" width="1129pt" height="517pt" viewBox="0 0 1129 517" version="1.1">
<g id="surface366">
<rect x="0" y="0" width="1129" height="517" style="fill:rgb(90%,90%,90%);fill-opacity:1;stroke:none;"/>
<path style="fill-rule:nonzero;fill:rgb(35%,70%,90%);fill-opacity:1;stroke-width:1;stroke-linecap:butt;stroke-linejoin:miter;stroke:rgb(0%,0%,0%);stroke-opacity:1;stroke-miterlimit:10;" d="M 340 421 L 369.664062 421 L 381.664062 392.785156 L 393.664062 421 L 423.332031 421 L 399.332031 438.4375 L 407.417969 469.980469 L 381.664062 452.542969 L 355.914062 469.980469 L 368.214844 438.4375 L 340 421 "/>
<path style="fill-rule:nonzero;fill:rgb(35%,70%,90%);fill-opacity:1;stroke-width:1;stroke-linecap:butt;stroke-linejoin:miter;stroke:rgb(0%,0%,0%);stroke-opacity:1;stroke-miterlimit:10;" d="M 448 195 L 477.664062 195 L 489.664062 166.785156 L 501.664062 195 L 531.332031 195 L 507.332031 212.4375 L 515.417969 243.980469 L 489.664062 226.542969 L 463.914062 243.980469 L 476.214844 212.4375 L 448 195 "/>
<path style="fill-rule:nonzero;fill:rgb(35%,70%,90%);fill-opacity:1;stroke-width:1;stroke-linecap:butt;stroke-linejoin:miter;stroke:rgb(0%,0%,0%);stroke-opacity:1;stroke-miterlimit:10;" d="M 147 377 L 176.664062 377 L 188.664062 348.785156 L 200.664062 377 L 230.332031 377 L 206.332031 394.4375 L 214.417969 425.980469 L 188.664062 408.542969 L 162.914062 425.980469 L 175.214844 394.4375 L 147 377 "/>
<path style="fill-rule:nonzero;fill:rgb(35%,70%,90%);fill-opacity:1;stroke-width:1;stroke-linecap:butt;stroke-linejoin:miter;stroke:rgb(0%,0%,0%);stroke-opacity:1;stroke-miterlimit:10;" d="M 827 177 L 856.664062 177 L 868.664062 148.785156 L 880.664062 177 L 910.332031 177 L 886.332031 194.4375 L 894.417969 225.980469 L 868.664062 208.542969 L 842.914062 225.980469 L 855.214844 194.4375 L 827 177 "/>
<path style="fill-rule:nonzero;fill:rgb(35%,70%,90%);fill-opacity:1;stroke-width:1;stroke-linecap:butt;stroke-linejoin:miter;stroke:rgb(0%,0%,0%);stroke-opacity:1;stroke-miterlimit:10;" d="M 510 310 L 539.664062 310 L 551.664062 281.785156 L 563.664062 310 L 593.332031 310 L 569.332031 327.4375 L 577.417969 358.980469 L 551.664062 341.542969 L 525.914062 358.980469 L 538.214844 327.4375 L 510 310 "/>
<path style="fill-rule:nonzero;fill:rgb(35%,70%,90%);fill-opacity:1;stroke-width:1;stroke-linecap:butt;stroke-linejoin:miter;stroke:rgb(0%,0%,0%);stroke-opacity:1;stroke-miterlimit:10;" d="M 470 421 L 499.664062 421 L 511.664062 392.785156 L 523.664062 421 L 553.332031 421 L 529.332031 438.4375 L 537.417969 469.980469 L 511.664062 452.542969 L 485.914062 469.980469 L 498.214844 438.4375 L 470 421 "/>
<path style="fill-rule:nonzero;fill:rgb(35%,70%,90%);fill-opacity:1;stroke-width:1;stroke-linecap:butt;stroke-linejoin:miter;stroke:rgb(0%,0%,0%);stroke-opacity:1;stroke-miterlimit:10;" d="M 960 230 L 989.664062 230 L 1001.664062 201.785156 L 1013.664062 230 L 1043.332031 230 L 1019.332031 247.4375 L 1027.417969 278.980469 L 1001.664062 261.542969 L 975.914062 278.980469 L 988.214844 247.4375 L 960 230 "/>
<path style="fill-rule:nonzero;fill:rgb(35%,70%,90%);fill-opacity:1;stroke-width:1;stroke-linecap:butt;stroke-linejoin:miter;stroke:rgb(0%,0%,0%);stroke-opacity:1;stroke-miterlimit:10;" d="M 77 123 L 106.664062 123 L 118.664062 94.785156 L 130.664062 123 L 160.332031 123 L 136.332031 140.4375 L 144.417969 171.980469 L 118.664062 154.542969 L 92.914062 171.980469 L 105.214844 140.4375 L 77 123 "/>
<path style="fill-rule:nonzero;fill:rgb(100%,51%,0%);fill-opacity:1;stroke-width:1;stroke-linecap:butt;stroke-linejoin:miter;stroke:rgb(0%,0%,0%);stroke-opacity:1;stroke-miterlimit:10;" d="M 161 228 L 135.019531 273 L 186.980469 273 L 161 228 "/>
<path style="fill-rule:nonzero;fill:rgb(100%,51%,0%);fill-opacity:1;stroke-width:1;stroke-linecap:butt;stroke-linejoin:miter;stroke:rgb(0%,0%,0%);stroke-opacity:1;stroke-miterlimit:10;" d="M 580 126 L 554.019531 171 L 605.980469 171 L 580 126 "/>
<path style="fill-rule:nonzero;fill:rgb(100%,51%,0%);fill-opacity:1;stroke-width:1;stroke-linecap:butt;stroke-linejoin:miter;stroke:rgb(0%,0%,0%);stroke-opacity:1;stroke-miterlimit:10;" d="M 798 268 L 772.019531 313 L 823.980469 313 L 798 268 "/>
<path style="fill-rule:nonzero;fill:rgb(100%,51%,0%);fill-opacity:1;stroke-width:1;stroke-linecap:butt;stroke-linejoin:miter;stroke:rgb(0%,0%,0%);stroke-opacity:1;stroke-miterlimit:10;" d="M 309 154 L 283.019531 199 L 334.980469 199 L 309 154 "/>
<path style="fill-rule:nonzero;fill:rgb(100%,51%,0%);fill-opacity:1;stroke-width:1;stroke-linecap:butt;stroke-linejoin:miter;stroke:rgb(0%,0%,0%);stroke-opacity:1;stroke-miterlimit:10;" d="M 217 71 L 191.019531 116 L 242.980469 116 L 217 71 "/>
<path style="fill-rule:nonzero;fill:rgb(100%,51%,0%);fill-opacity:1;stroke-width:1;stroke-linecap:butt;stroke-linejoin:miter;stroke:rgb(0%,0%,0%);stroke-opacity:1;stroke-miterlimit:10;" d="M 60 277 L 34.019531 322 L 85.980469 322 L 60 277 "/>
<path style="fill-rule:nonzero;fill:rgb(100%,51%,0%);fill-opacity:1;stroke-width:1;stroke-linecap:butt;stroke-linejoin:miter;stroke:rgb(0%,0%,0%);stroke-opacity:1;stroke-miterlimit:10;" d="M 758 30 L 732.019531 75 L 783.980469 75 L 758 30 "/>
</g>
</svg>
