<?xml version="1.0" encoding="UTF-8"?>
<svg xmlns="http://www.w3.org/2000/svg" xmlns:xlink="http://www.w3.org/1999/xlink" width="1129pt" height="517pt" viewBox="0 0 1129 517" version="1.1">
<g id="surface61">
<rect x="0" y="0" width="1129" height="517" style="fill:rgb(90%,90%,90%);fill-opacity:1;stroke:none;"/>
<path style="fill-rule:nonzero;fill:rgb(35%,70%,90%);fill-opacity:1;stroke-width:1;stroke-linecap:butt;stroke-linejoin:miter;stroke:rgb(0%,0%,0%);stroke-opacity:1;stroke-miterlimit:10;" d="M 817 234 L 846.664062 234 L 858.664062 205.785156 L 870.664062 234 L 900.332031 234 L 876.332031 251.4375 L 884.417969 282.980469 L 858.664062 265.542969 L 832.914062 282.980469 L 845.214844 251.4375 L 817 234 "/>
<path style="fill-rule:nonzero;fill:rgb(35%,70%,90%);fill-opacity:1;stroke-width:1;stroke-linecap:butt;stroke-linejoin:miter;stroke:rgb(0%,0%,0%);stroke-opacity:1;stroke-miterlimit:10;" d="M 235 160 L 264.664062 160 L 276.664062 131.785156 L 288.664062 160 L 318.332031 160 L 294.332031 177.4375 L 302.417969 208.980469 L 276.664062 191.542969 L 250.914062 208.980469 L 263.214844 177.4375 L 235 160 "/>
<path style="fill-rule:nonzero;fill:rgb(35%,70%,90%);fill-opacity:1;stroke-width:1;stroke-linecap:butt;stroke-linejoin:miter;stroke:rgb(0%,0%,0%);stroke-opacity:1;stroke-miterlimit:10;" d="M 685 389 L 714.664062 389 L 726.664062 360.785156 L 738.664062 389 L 768.332031 389 L 744.332031 406.4375 L 752.417969 437.980469 L 726.664062 420.542969 L 700.914062 437.980469 L 713.214844 406.4375 L 685 389 "/>
<path style="fill-rule:nonzero;fill:rgb(35%,70%,90%);fill-opacity:1;stroke-width:1;stroke-linecap:butt;stroke-linejoin:miter;stroke:rgb(0%,0%,0%);stroke-opacity:1;stroke-miterlimit:10;" d="M 742 91 L 771.664062 91 L 783.664062 62.785156 L 795.664062 91 L 825.332031 91 L 801.332031 108.4375 L 809.417969 139.980469 L 783.664062 122.542969 L 757.914062 139.980469 L 770.214844 108.4375 L 742 91 "/>
<path style="fill-rule:nonzero;fill:rgb(35%,70%,90%);fill-opacity:1;stroke-width:1;stroke-linecap:butt;stroke-linejoin:miter;stroke:rgb(0%,0%,0%);stroke-opacity:1;stroke-miterlimit:10;" d="M 595 367 L 624.664062 367 L 636.664062 338.785156 L 648.664062 367 L 678.332031 367 L 654.332031 384.4375 L 662.417969 415.980469 L 636.664062 398.542969 L 610.914062 415.980469 L 623.214844 384.4375 L 595 367 "/>
<path style="fill-rule:nonzero;fill:rgb(55%,51%,53%);fill-opacity:1;stroke-width:1;stroke-linecap:butt;stroke-linejoin:miter;stroke:rgb(0%,0%,0%);stroke-opacity:1;stroke-miterlimit:10;" d="M 380.214844 457 C 380.214844 468.714844 370.714844 478.214844 359 478.214844 C 347.285156 478.214844 337.785156 468.714844 337.785156 457 C 337.785156 445.285156 347.285156 435.785156 359 435.785156 C 370.714844 435.785156 380.214844 445.285156 380.214844 457 "/>
<path style="fill-rule:nonzero;fill:rgb(55%,51%,53%);fill-opacity:1;stroke-width:1;stroke-linecap:butt;stroke-linejoin:miter;stroke:rgb(0%,0%,0%);stroke-opacity:1;stroke-miterlimit:10;" d="M 407.214844 199 C 407.214844 210.714844 397.714844 220.214844 386 220.214844 C 374.285156 220.214844 364.785156 210.714844 364.785156 199 C 364.785156 187.285156 374.285156 177.785156 386 177.785156 C 397.714844 177.785156 407.214844 187.285156 407.214844 199 "/>
<path style="fill-rule:nonzero;fill:rgb(55%,51%,53%);fill-opacity:1;stroke-width:1;stroke-linecap:butt;stroke-linejoin:miter;stroke:rgb(0%,0%,0%);stroke-opacity:1;stroke-miterlimit:10;" d="M 108.214844 296 C 108.214844 307.714844 98.714844 317.214844 87 317.214844 C 75.285156 317.214844 65.785156 307.714844 65.785156 296 C 65.785156 284.285156 75.285156 274.785156 87 274.785156 C 98.714844 274.785156 108.214844 284.285156 108.214844 296 "/>
<path style="fill-rule:nonzero;fill:rgb(55%,51%,53%);fill-opacity:1;stroke-width:1;stroke-linecap:butt;stroke-linejoin:miter;stroke:rgb(0%,0%,0%);stroke-opacity:1;stroke-miterlimit:10;" d="M 978.214844 74 C 978.214844 85.714844 968.714844 95.214844 957 95.214844 C 945.285156 95.214844 935.785156 85.714844 935.785156 74 C 935.785156 62.285156 945.285156 52.785156 957 52.785156 C 968.714844 52.785156 978.214844 62.285156 978.214844 74 "/>
<path style="fill-rule:nonzero;fill:rgb(55%,51%,53%);fill-opacity:1;stroke-width:1;stroke-linecap:butt;stroke-linejoin:miter;stroke:rgb(0%,0%,0%);stroke-opacity:1;stroke-miterlimit:10;" d="M 504.214844 373 C 504.214844 384.714844 494.714844 394.214844 483 394.214844 C 471.285156 394.214844 461.785156 384.714844 461.785156 373 C 461.785156 361.285156 471.285156 351.785156 483 351.785156 C 494.714844 351.785156 504.214844 361.285156 504.214844 373 "/>
</g>
</svg>
