<?xml version="1.0" encoding="UTF-8"?>
<svg xmlns="http://www.w3.org/2000/svg" xmlns:xlink="http://www.w3.org/1999/xlink" width="1129pt" height="517pt" viewBox="0 0 1129 517" version="1.1">
<g id="surface901">
<rect x="0" y="0" width="1129" height="517" style="fill:rgb(90%,90%,90%);fill-opacity:1;stroke:none;"/>
<path style="fill-rule:nonzero;fill:rgb(53%,27%,7%);fill-opacity:1;stroke-width:1;stroke-linecap:butt;stroke-linejoin:miter;stroke:rgb(0%,0%,0%);stroke-opacity:1;stroke-miterlimit:10;" d="M 741 316.601562 C 741 302.199219 717 302.199219 717 316.601562 C 717 331 741 333.398438 741 345.398438 C 741 333.398438 765 331 765 316.601562 C 765 302.199219 741 302.199219 741 316.601562 "/>
<path style="fill-rule:nonzero;fill:rgb(53%,27%,7%);fill-opacity:1;stroke-width:1;stroke-linecap:butt;stroke-linejoin:miter;stroke:rgb(0%,0%,0%);stroke-opacity:1;stroke-miterlimit:10;" d="M 565 338.601562 C 565 324.199219 541 324.199219 541 338.601562 C 541 353 565 355.398438 565 367.398438 C 565 355.398438 589 353 589 338.601562 C 589 324.199219 565 324.199219 565 338.601562 "/>
<path style="fill-rule:nonzero;fill:rgb(53%,27%,7%);fill-opacity:1;stroke-width:1;stroke-linecap:butt;stroke-linejoin:miter;stroke:rgb(0%,0%,0%);stroke-opacity:1;stroke-miterlimit:10;" d="M 366 302.601562 C 366 288.199219 342 288.199219 342 302.601562 C 342 317 366 319.398438 366 331.398438 C 366 319.398438 390 317 390 302.601562 C 390 288.199219 366 288.199219 366 302.601562 "/>
<path style="fill-rule:nonzero;fill:rgb(53%,27%,7%);fill-opacity:1;stroke-width:1;stroke-linecap:butt;stroke-linejoin:miter;stroke:rgb(0%,0%,0%);stroke-opacity:1;stroke-miterlimit:10;" d="M 679 419.601562 C 679 405.199219 655 405.199219 655 419.601562 C 655 434 679 436.398438 679 448.398438 C 679 436.398438 703 434 703 419.601562 C 703 405.199219 679 405.199219 679 419.601562 "/>
<path style="fill-rule:nonzero;fill:rgb(53%,27%,7%);fill-opacity:1;stroke-width:1;stroke-linecap:butt;stroke-linejoin:miter;stroke:rgb(0%,0%,0%);stroke-opacity:1;stroke-miterlimit:10;" d="M 433 239.601562 C 433 225.199219 409 225.199219 409 239.601562 C 409 254 433 256.398438 433 268.398438 C 433 256.398438 457 254 457 239.601562 C 457 225.199219 433 225.199219 433 239.601562 "/>
<path style="fill-rule:nonzero;fill:rgb(100%,51%,0%);fill-opacity:1;stroke-width:1;stroke-linecap:butt;stroke-linejoin:miter;stroke:rgb(0%,0%,0%);stroke-opacity:1;stroke-miterlimit:10;" d="M 818.214844 249 C 818.214844 260.714844 808.714844 270.214844 797 270.214844 C 785.285156 270.214844 775.785156 260.714844 775.785156 249 C 775.785156 237.285156 785.285156 227.785156 797 227.785156 C 808.714844 227.785156 818.214844 237.285156 818.214844 249 "/>
<path style="fill-rule:nonzero;fill:rgb(100%,51%,0%);fill-opacity:1;stroke-width:1;stroke-linecap:butt;stroke-linejoin:miter;stroke:rgb(0%,0%,0%);stroke-opacity:1;stroke-miterlimit:10;" d="M 327.214844 132 C 327.214844 143.714844 317.714844 153.214844 306 153.214844 C 294.285156 153.214844 284.785156 143.714844 284.785156 132 C 284.785156 120.285156 294.285156 110.785156 306 110.785156 C 317.714844 110.785156 327.214844 120.285156 327.214844 132 "/>
<path style="fill-rule:nonzero;fill:rgb(100%,51%,0%);fill-opacity:1;stroke-width:1;stroke-linecap:butt;stroke-linejoin:miter;stroke:rgb(0%,0%,0%);stroke-opacity:1;stroke-miterlimit:10;" d="M 231.214844 74 C 231.214844 85.714844 221.714844 95.214844 210 95.214844 C 198.285156 95.214844 188.785156 85.714844 188.785156 74 C 188.785156 62.285156 198.285156 52.785156 210 52.785156 C 221.714844 52.785156 231.214844 62.285156 231.214844 74 "/>
<path style="fill-rule:nonzero;fill:rgb(100%,51%,0%);fill-opacity:1;stroke-width:1;stroke-linecap:butt;stroke-linejoin:miter;stroke:rgb(0%,0%,0%);stroke-opacity:1;stroke-miterlimit:10;" d="M 132.214844 187 C 132.214844 198.714844 122.714844 208.214844 111 208.214844 C 99.285156 208.214844 89.785156 198.714844 89.785156 187 C 89.785156 175.285156 99.285156 165.785156 111 165.785156 C 122.714844 165.785156 132.214844 175.285156 132.214844 187 "/>
<path style="fill-rule:nonzero;fill:rgb(100%,51%,0%);fill-opacity:1;stroke-width:1;stroke-linecap:butt;stroke-linejoin:miter;stroke:rgb(0%,0%,0%);stroke-opacity:1;stroke-miterlimit:10;" d="M 503.214844 426 C 503.214844 437.714844 493.714844 447.214844 482 447.214844 C 470.285156 447.214844 460.785156 437.714844 460.785156 426 C 460.785156 414.285156 470.285156 404.785156 482 404.785156 C 493.714844 404.785156 503.214844 414.285156 503.214844 426 "/>
<path style="fill-rule:nonzero;fill:rgb(100%,51%,0%);fill-opacity:1;stroke-width:1;stroke-linecap:butt;stroke-linejoin:miter;stroke:rgb(0%,0%,0%);stroke-opacity:1;stroke-miterlimit:10;" d="M 894.214844 181 C 894.214844 192.714844 884.714844 202.214844 873 202.214844 C 861.285156 202.214844 851.785156 192.714844 851.785156 181 C 851.785156 169.285156 861.285156 159.785156 873 159.785156 C 884.714844 159.785156 894.214844 169.285156 894.214844 181 "/>
<path style="fill-rule:nonzero;fill:rgb(100%,51%,0%);fill-opacity:1;stroke-width:1;stroke-linecap:butt;stroke-linejoin:miter;stroke:rgb(0%,0%,0%);stroke-opacity:1;stroke-miterlimit:10;" d="M 858.214844 454 C 858.214844 465.714844 848.714844 475.214844 837 475.214844 C 825.285156 475.214844 815.785156 465.714844 815.785156 454 C 815.785156 442.285156 825.285156 432.785156 837 432.785156 C 848.714844 432.785156 858.214844 442.285156 858.214844 454 "/>
<path style="fill-rule:nonzero;fill:rgb(100%,51%,0%);fill-opacity:1;stroke-width:1;stroke-linecap:butt;stroke-linejoin:miter;stroke:rgb(0%,0%,0%);stroke-opacity:1;stroke-miterlimit:10;" d="M 315.214844 398 C 315.214844 409.714844 305.714844 419.214844 294 419.214844 C 282.285156 419.214844 272.785156 409.714844 272.785156 398 C 272.785156 386.285156 282.285156 376.785156 294 376.785156 C 305.714844 376.785156 315.214844 386.285156 315.214844 398 "/>
</g>
</svg>
