<?xml version="1.0" encoding="UTF-8"?>
<svg xmlns="http://www.w3.org/2000/svg" xmlns:xlink="http://www.w3.org/1999/xlink" width="1129pt" height="517pt" viewBox="0 0 1129 517" version="1.1">
<g id="surface651">
<rect x="0" y="0" width="1129" height="517" style="fill:rgb(90%,90%,90%);fill-opacity:1;stroke:none;"/>
<path style="fill-rule:nonzero;fill:rgb(100%,51%,0%);fill-opacity:1;stroke-width:1;stroke-linecap:butt;stroke-linejoin:miter;stroke:rgb(0%,0%,0%);stroke-opacity:1;stroke-miterlimit:10;" d="M 347.214844 240 C 347.214844 251.714844 337.714844 261.214844 326 261.214844 C 314.285156 261.214844 304.785156 251.714844 304.785156 240 C 304.785156 228.285156 314.285156 218.785156 326 218.785156 C 337.714844 218.785156 347.214844 228.285156 347.214844 240 "/>
<path style="fill-rule:nonzero;fill:rgb(100%,51%,0%);fill-opacity:1;stroke-width:1;stroke-linecap:butt;stroke-linejoin:miter;stroke:rgb(0%,0%,0%);stroke-opacity:1;stroke-miterlimit:10;" d="M 87.785156 165.785156 L 87.785156 208.214844 L 130.214844 208.214844 L 130.214844 165.785156 L 87.785156 165.785156 "/>
<path style="fill-rule:nonzero;fill:rgb(100%,51%,0%);fill-opacity:1;stroke-width:1;stroke-linecap:butt;stroke-linejoin:miter;stroke:rgb(0%,0%,0%);stroke-opacity:1;stroke-miterlimit:10;" d="M 99.214844 333 C 99.214844 344.714844 89.714844 354.214844 78 354.214844 C 66.285156 354.214844 56.785156 344.714844 56.785156 333 C 56.785156 321.285156 66.285156 311.785156 78 311.785156 C 89.714844 311.785156 99.214844 321.285156 99.214844 333 "/>
<path style="fill-rule:nonzero;fill:rgb(100%,51%,0%);fill-opacity:1;stroke-width:1;stroke-linecap:butt;stroke-linejoin:miter;stroke:rgb(0%,0%,0%);stroke-opacity:1;stroke-miterlimit:10;" d="M 256.214844 215 C 256.214844 226.714844 246.714844 236.214844 235 236.214844 C 223.285156 236.214844 213.785156 226.714844 213.785156 215 C 213.785156 203.285156 223.285156 193.785156 235 193.785156 C 246.714844 193.785156 256.214844 203.285156 256.214844 215 "/>
<path style="fill-rule:nonzero;fill:rgb(100%,51%,0%);fill-opacity:1;stroke-width:1;stroke-linecap:butt;stroke-linejoin:miter;stroke:rgb(0%,0%,0%);stroke-opacity:1;stroke-miterlimit:10;" d="M 412.214844 358 C 412.214844 369.714844 402.714844 379.214844 391 379.214844 C 379.285156 379.214844 369.785156 369.714844 369.785156 358 C 369.785156 346.285156 379.285156 336.785156 391 336.785156 C 402.714844 336.785156 412.214844 346.285156 412.214844 358 "/>
<path style="fill-rule:nonzero;fill:rgb(100%,51%,0%);fill-opacity:1;stroke-width:1;stroke-linecap:butt;stroke-linejoin:miter;stroke:rgb(0%,0%,0%);stroke-opacity:1;stroke-miterlimit:10;" d="M 482.214844 199 C 482.214844 210.714844 472.714844 220.214844 461 220.214844 C 449.285156 220.214844 439.785156 210.714844 439.785156 199 C 439.785156 187.285156 449.285156 177.785156 461 177.785156 C 472.714844 177.785156 482.214844 187.285156 482.214844 199 "/>
<path style="fill-rule:nonzero;fill:rgb(100%,51%,0%);fill-opacity:1;stroke-width:1;stroke-linecap:butt;stroke-linejoin:miter;stroke:rgb(0%,0%,0%);stroke-opacity:1;stroke-miterlimit:10;" d="M 208.214844 102 C 208.214844 113.714844 198.714844 123.214844 187 123.214844 C 175.285156 123.214844 165.785156 113.714844 165.785156 102 C 165.785156 90.285156 175.285156 80.785156 187 80.785156 C 198.714844 80.785156 208.214844 90.285156 208.214844 102 "/>
<path style="fill-rule:nonzero;fill:rgb(53%,27%,7%);fill-opacity:1;stroke-width:1;stroke-linecap:butt;stroke-linejoin:miter;stroke:rgb(0%,0%,0%);stroke-opacity:1;stroke-miterlimit:10;" d="M 760.785156 160.785156 L 760.785156 203.214844 L 803.214844 203.214844 L 803.214844 160.785156 L 760.785156 160.785156 "/>
<path style="fill-rule:nonzero;fill:rgb(53%,27%,7%);fill-opacity:1;stroke-width:1;stroke-linecap:butt;stroke-linejoin:miter;stroke:rgb(0%,0%,0%);stroke-opacity:1;stroke-miterlimit:10;" d="M 715.214844 77 C 715.214844 88.714844 705.714844 98.214844 694 98.214844 C 682.285156 98.214844 672.785156 88.714844 672.785156 77 C 672.785156 65.285156 682.285156 55.785156 694 55.785156 C 705.714844 55.785156 715.214844 65.285156 715.214844 77 "/>
<path style="fill-rule:nonzero;fill:rgb(53%,27%,7%);fill-opacity:1;stroke-width:1;stroke-linecap:butt;stroke-linejoin:miter;stroke:rgb(0%,0%,0%);stroke-opacity:1;stroke-miterlimit:10;" d="M 618.785156 374.785156 L 618.785156 417.214844 L 661.214844 417.214844 L 661.214844 374.785156 L 618.785156 374.785156 "/>
<path style="fill-rule:nonzero;fill:rgb(53%,27%,7%);fill-opacity:1;stroke-width:1;stroke-linecap:butt;stroke-linejoin:miter;stroke:rgb(0%,0%,0%);stroke-opacity:1;stroke-miterlimit:10;" d="M 845.785156 129.785156 L 845.785156 172.214844 L 888.214844 172.214844 L 888.214844 129.785156 L 845.785156 129.785156 "/>
<path style="fill-rule:nonzero;fill:rgb(53%,27%,7%);fill-opacity:1;stroke-width:1;stroke-linecap:butt;stroke-linejoin:miter;stroke:rgb(0%,0%,0%);stroke-opacity:1;stroke-miterlimit:10;" d="M 881.785156 309.785156 L 881.785156 352.214844 L 924.214844 352.214844 L 924.214844 309.785156 L 881.785156 309.785156 "/>
</g>
</svg>
