<?xml version="1.0" encoding="UTF-8"?>
<svg xmlns="http://www.w3.org/2000/svg" xmlns:xlink="http://www.w3.org/1999/xlink" width="1129pt" height="517pt" viewBox="0 0 1129 517" version="1.1">
<g id="surface861">
<rect x="0" y="0" width="1129" height="517" style="fill:rgb(90%,90%,90%);fill-opacity:1;stroke:none;"/>
<path style="fill-rule:nonzero;fill:rgb(55%,51%,53%);fill-opacity:1;stroke-width:1;stroke-linecap:butt;stroke-linejoin:miter;stroke:rgb(0%,0%,0%);stroke-opacity:1;stroke-miterlimit:10;" d="M 779 58 L 753.019531 103 L 804.980469 103 L 779 58 "/>
<path style="fill-rule:nonzero;fill:rgb(55%,51%,53%);fill-opacity:1;stroke-width:1;stroke-linecap:butt;stroke-linejoin:miter;stroke:rgb(0%,0%,0%);stroke-opacity:1;stroke-miterlimit:10;" d="M 145 87 L 119.019531 132 L 170.980469 132 L 145 87 "/>
<path style="fill-rule:nonzero;fill:rgb(55%,51%,53%);fill-opacity:1;stroke-width:1;stroke-linecap:butt;stroke-linejoin:miter;stroke:rgb(0%,0%,0%);stroke-opacity:1;stroke-miterlimit:10;" d="M 321 102 L 295.019531 147 L 346.980469 147 L 321 102 "/>
<path style="fill-rule:nonzero;fill:rgb(55%,51%,53%);fill-opacity:1;stroke-width:1;stroke-linecap:butt;stroke-linejoin:miter;stroke:rgb(0%,0%,0%);stroke-opacity:1;stroke-miterlimit:10;" d="M 479 171 L 453.019531 216 L 504.980469 216 L 479 171 "/>
<path style="fill-rule:nonzero;fill:rgb(55%,51%,53%);fill-opacity:1;stroke-width:1;stroke-linecap:butt;stroke-linejoin:miter;stroke:rgb(0%,0%,0%);stroke-opacity:1;stroke-miterlimit:10;" d="M 210 284 L 184.019531 329 L 235.980469 329 L 210 284 "/>
<path style="fill-rule:nonzero;fill:rgb(55%,51%,53%);fill-opacity:1;stroke-width:1;stroke-linecap:butt;stroke-linejoin:miter;stroke:rgb(0%,0%,0%);stroke-opacity:1;stroke-miterlimit:10;" d="M 726 367 L 700.019531 412 L 751.980469 412 L 726 367 "/>
<path style="fill-rule:nonzero;fill:rgb(55%,51%,53%);fill-opacity:1;stroke-width:1;stroke-linecap:butt;stroke-linejoin:miter;stroke:rgb(0%,0%,0%);stroke-opacity:1;stroke-miterlimit:10;" d="M 820 419 L 794.019531 464 L 845.980469 464 L 820 419 "/>
<path style="fill-rule:nonzero;fill:rgb(55%,51%,53%);fill-opacity:1;stroke-width:1;stroke-linecap:butt;stroke-linejoin:miter;stroke:rgb(0%,0%,0%);stroke-opacity:1;stroke-miterlimit:10;" d="M 64 153 L 38.019531 198 L 89.980469 198 L 64 153 "/>
<path style="fill-rule:nonzero;fill:rgb(55%,51%,53%);fill-opacity:1;stroke-width:1;stroke-linecap:butt;stroke-linejoin:miter;stroke:rgb(0%,0%,0%);stroke-opacity:1;stroke-miterlimit:10;" d="M 386 369 L 415.664062 369 L 427.664062 340.785156 L 439.664062 369 L 469.332031 369 L 445.332031 386.4375 L 453.417969 417.980469 L 427.664062 400.542969 L 401.914062 417.980469 L 414.214844 386.4375 L 386 369 "/>
<path style="fill-rule:nonzero;fill:rgb(55%,51%,53%);fill-opacity:1;stroke-width:1;stroke-linecap:butt;stroke-linejoin:miter;stroke:rgb(0%,0%,0%);stroke-opacity:1;stroke-miterlimit:10;" d="M 843 340 L 872.664062 340 L 884.664062 311.785156 L 896.664062 340 L 926.332031 340 L 902.332031 357.4375 L 910.417969 388.980469 L 884.664062 371.542969 L 858.914062 388.980469 L 871.214844 357.4375 L 843 340 "/>
<path style="fill-rule:nonzero;fill:rgb(55%,51%,53%);fill-opacity:1;stroke-width:1;stroke-linecap:butt;stroke-linejoin:miter;stroke:rgb(0%,0%,0%);stroke-opacity:1;stroke-miterlimit:10;" d="M 822 186 L 851.664062 186 L 863.664062 157.785156 L 875.664062 186 L 905.332031 186 L 881.332031 203.4375 L 889.417969 234.980469 L 863.664062 217.542969 L 837.914062 234.980469 L 850.214844 203.4375 L 822 186 "/>
<path style="fill-rule:nonzero;fill:rgb(55%,51%,53%);fill-opacity:1;stroke-width:1;stroke-linecap:butt;stroke-linejoin:miter;stroke:rgb(0%,0%,0%);stroke-opacity:1;stroke-miterlimit:10;" d="M 636 243 L 665.664062 243 L 677.664062 214.785156 L 689.664062 243 L 719.332031 243 L 695.332031 260.4375 L 703.417969 291.980469 L 677.664062 274.542969 L 651.914062 291.980469 L 664.214844 260.4375 L 636 243 "/>
<path style="fill-rule:nonzero;fill:rgb(55%,51%,53%);fill-opacity:1;stroke-width:1;stroke-linecap:butt;stroke-linejoin:miter;stroke:rgb(0%,0%,0%);stroke-opacity:1;stroke-miterlimit:10;" d="M 542 274 L 571.664062 274 L 583.664062 245.785156 L 595.664062 274 L 625.332031 274 L 601.332031 291.4375 L 609.417969 322.980469 L 583.664062 305.542969 L 557.914062 322.980469 L 570.214844 291.4375 L 542 274 "/>
<path style="fill-rule:nonzero;fill:rgb(55%,51%,53%);fill-opacity:1;stroke-width:1;stroke-linecap:butt;stroke-linejoin:miter;stroke:rgb(0%,0%,0%);stroke-opacity:1;stroke-miterlimit:10;" d="M 924 393 L 953.664062 393 L 965.664062 364.785156 L 977.664062 393 L 1007.332031 393 L 983.332031 410.4375 L 991.417969 441.980469 L 965.664062 424.542969 L 939.914062 441.980469 L 952.214844 410.4375 L 924 393 "/>
<path style="fill-rule:nonzero;fill:rgb(55%,51%,53%);fill-opacity:1;stroke-width:1;stroke-linecap:butt;stroke-linejoin:miter;stroke:rgb(0%,0%,0%);stroke-opacity:1;stroke-miterlimit:10;" d="M 155 439 L 184.664062 439 L 196.664062 410.785156 L 208.664062 439 L 238.332031 439 L 214.332031 456.4375 L 222.417969 487.980469 L 196.664062 470.542969 L 170.914062 487.980469 L 183.214844 456.4375 L 155 439 "/>
</g>
</svg>
