<?xml version="1.0" encoding="UTF-8"?>
<svg xmlns="http://www.w3.org/2000/svg" xmlns:xlink="http://www.w3.org/1999/xlink" width="1129pt" height="517pt" viewBox="0 0 1129 517" version="1.1">
<g id="surface771">
<rect x="0" y="0" width="1129" height="517" style="fill:rgb(90%,90%,90%);fill-opacity:1;stroke:none;"/>
<path style="fill-rule:nonzero;fill:rgb(55%,51%,53%);fill-opacity:1;stroke-width:1;stroke-linecap:butt;stroke-linejoin:miter;stroke:rgb(0%,0%,0%);stroke-opacity:1;stroke-miterlimit:10;" d="M 199 339 L 173.019531 384 L 224.980469 384 L 199 339 "/>
<path style="fill-rule:nonzero;fill:rgb(55%,51%,53%);fill-opacity:1;stroke-width:1;stroke-linecap:butt;stroke-linejoin:miter;stroke:rgb(0%,0%,0%);stroke-opacity:1;stroke-miterlimit:10;" d="M 213 89 L 187.019531 134 L 238.980469 134 L 213 89 "/>
<path style="fill-rule:nonzero;fill:rgb(55%,51%,53%);fill-opacity:1;stroke-width:1;stroke-linecap:butt;stroke-linejoin:miter;stroke:rgb(0%,0%,0%);stroke-opacity:1;stroke-miterlimit:10;" d="M 311 69 L 285.019531 114 L 336.980469 114 L 311 69 "/>
<path style="fill-rule:nonzero;fill:rgb(55%,51%,53%);fill-opacity:1;stroke-width:1;stroke-linecap:butt;stroke-linejoin:miter;stroke:rgb(0%,0%,0%);stroke-opacity:1;stroke-miterlimit:10;" d="M 687 78 L 661.019531 123 L 712.980469 123 L 687 78 "/>
<path style="fill-rule:nonzero;fill:rgb(55%,51%,53%);fill-opacity:1;stroke-width:1;stroke-linecap:butt;stroke-linejoin:miter;stroke:rgb(0%,0%,0%);stroke-opacity:1;stroke-miterlimit:10;" d="M 348 234 L 322.019531 279 L 373.980469 279 L 348 234 "/>
<path style="fill-rule:nonzero;fill:rgb(55%,51%,53%);fill-opacity:1;stroke-width:1;stroke-linecap:butt;stroke-linejoin:miter;stroke:rgb(0%,0%,0%);stroke-opacity:1;stroke-miterlimit:10;" d="M 453 184 L 427.019531 229 L 478.980469 229 L 453 184 "/>
<path style="fill-rule:nonzero;fill:rgb(55%,51%,53%);fill-opacity:1;stroke-width:1;stroke-linecap:butt;stroke-linejoin:miter;stroke:rgb(0%,0%,0%);stroke-opacity:1;stroke-miterlimit:10;" d="M 756 294 L 730.019531 339 L 781.980469 339 L 756 294 "/>
<path style="fill-rule:nonzero;fill:rgb(55%,51%,53%);fill-opacity:1;stroke-width:1;stroke-linecap:butt;stroke-linejoin:miter;stroke:rgb(0%,0%,0%);stroke-opacity:1;stroke-miterlimit:10;" d="M 923 426 L 897.019531 471 L 948.980469 471 L 923 426 "/>
<path style="fill-rule:nonzero;fill:rgb(55%,51%,53%);fill-opacity:1;stroke-width:1;stroke-linecap:butt;stroke-linejoin:miter;stroke:rgb(0%,0%,0%);stroke-opacity:1;stroke-miterlimit:10;" d="M 879 341 L 908.664062 341 L 920.664062 312.785156 L 932.664062 341 L 962.332031 341 L 938.332031 358.4375 L 946.417969 389.980469 L 920.664062 372.542969 L 894.914062 389.980469 L 907.214844 358.4375 L 879 341 "/>
<path style="fill-rule:nonzero;fill:rgb(55%,51%,53%);fill-opacity:1;stroke-width:1;stroke-linecap:butt;stroke-linejoin:miter;stroke:rgb(0%,0%,0%);stroke-opacity:1;stroke-miterlimit:10;" d="M 491 335 L 520.664062 335 L 532.664062 306.785156 L 544.664062 335 L 574.332031 335 L 550.332031 352.4375 L 558.417969 383.980469 L 532.664062 366.542969 L 506.914062 383.980469 L 519.214844 352.4375 L 491 335 "/>
<path style="fill-rule:nonzero;fill:rgb(55%,51%,53%);fill-opacity:1;stroke-width:1;stroke-linecap:butt;stroke-linejoin:miter;stroke:rgb(0%,0%,0%);stroke-opacity:1;stroke-miterlimit:10;" d="M 622 299 L 651.664062 299 L 663.664062 270.785156 L 675.664062 299 L 705.332031 299 L 681.332031 316.4375 L 689.417969 347.980469 L 663.664062 330.542969 L 637.914062 347.980469 L 650.214844 316.4375 L 622 299 "/>
<path style="fill-rule:nonzero;fill:rgb(55%,51%,53%);fill-opacity:1;stroke-width:1;stroke-linecap:butt;stroke-linejoin:miter;stroke:rgb(0%,0%,0%);stroke-opacity:1;stroke-miterlimit:10;" d="M 197 249 L 226.664062 249 L 238.664062 220.785156 L 250.664062 249 L 280.332031 249 L 256.332031 266.4375 L 264.417969 297.980469 L 238.664062 280.542969 L 212.914062 297.980469 L 225.214844 266.4375 L 197 249 "/>
<path style="fill-rule:nonzero;fill:rgb(55%,51%,53%);fill-opacity:1;stroke-width:1;stroke-linecap:butt;stroke-linejoin:miter;stroke:rgb(0%,0%,0%);stroke-opacity:1;stroke-miterlimit:10;" d="M 516 105 L 545.664062 105 L 557.664062 76.785156 L 569.664062 105 L 599.332031 105 L 575.332031 122.4375 L 583.417969 153.980469 L 557.664062 136.542969 L 531.914062 153.980469 L 544.214844 122.4375 L 516 105 "/>
<path style="fill-rule:nonzero;fill:rgb(55%,51%,53%);fill-opacity:1;stroke-width:1;stroke-linecap:butt;stroke-linejoin:miter;stroke:rgb(0%,0%,0%);stroke-opacity:1;stroke-miterlimit:10;" d="M 386 398 L 415.664062 398 L 427.664062 369.785156 L 439.664062 398 L 469.332031 398 L 445.332031 415.4375 L 453.417969 446.980469 L 427.664062 429.542969 L 401.914062 446.980469 L 414.214844 415.4375 L 386 398 "/>
<path style="fill-rule:nonzero;fill:rgb(55%,51%,53%);fill-opacity:1;stroke-width:1;stroke-linecap:butt;stroke-linejoin:miter;stroke:rgb(0%,0%,0%);stroke-opacity:1;stroke-miterlimit:10;" d="M 92 273 L 121.664062 273 L 133.664062 244.785156 L 145.664062 273 L 175.332031 273 L 151.332031 290.4375 L 159.417969 321.980469 L 133.664062 304.542969 L 107.914062 321.980469 L 120.214844 290.4375 L 92 273 "/>
</g>
</svg>
