<?xml version="1.0" encoding="UTF-8"?>
<svg xmlns="http://www.w3.org/2000/svg" xmlns:xlink="http://www.w3.org/1999/xlink" width="1129pt" height="517pt" viewBox="0 0 1129 517" version="1.1">
<g id="surface901">
<rect x="0" y="0" width="1129" height="517" style="fill:rgb(90%,90%,90%);fill-opacity:1;stroke:none;"/>
<path style="fill-rule:nonzero;fill:rgb(53%,27%,7%);fill-opacity:1;stroke-width:1;stroke-linecap:butt;stroke-linejoin:miter;stroke:rgb(0%,0%,0%);stroke-opacity:1;stroke-miterlimit:10;" d="M 365 221.601562 C 365 207.199219 341 207.199219 341 221.601562 C 341 236 365 238.398438 365 250.398438 C 365 238.398438 389 236 389 221.601562 C 389 207.199219 365 207.199219 365 221.601562 "/>
<path style="fill-rule:nonzero;fill:rgb(53%,27%,7%);fill-opacity:1;stroke-width:1;stroke-linecap:butt;stroke-linejoin:miter;stroke:rgb(0%,0%,0%);stroke-opacity:1;stroke-miterlimit:10;" d="M 246 83.601562 C 246 69.199219 222 69.199219 222 83.601562 C 222 98 246 100.398438 246 112.398438 C 246 100.398438 270 98 270 83.601562 C 270 69.199219 246 69.199219 246 83.601562 "/>
<path style="fill-rule:nonzero;fill:rgb(53%,27%,7%);fill-opacity:1;stroke-width:1;stroke-linecap:butt;stroke-linejoin:miter;stroke:rgb(0%,0%,0%);stroke-opacity:1;stroke-miterlimit:10;" d="M 349 312.601562 C 349 298.199219 325 298.199219 325 312.601562 C 325 327 349 329.398438 349 341.398438 C 349 329.398438 373 327 373 312.601562 C 373 298.199219 349 298.199219 349 312.601562 "/>
<path style="fill-rule:nonzero;fill:rgb(53%,27%,7%);fill-opacity:1;stroke-width:1;stroke-linecap:butt;stroke-linejoin:miter;stroke:rgb(0%,0%,0%);stroke-opacity:1;stroke-miterlimit:10;" d="M 849 163.601562 C 849 149.199219 825 149.199219 825 163.601562 C 825 178 849 180.398438 849 192.398438 C 849 180.398438 873 178 873 163.601562 C 873 149.199219 849 149.199219 849 163.601562 "/>
<path style="fill-rule:nonzero;fill:rgb(53%,27%,7%);fill-opacity:1;stroke-width:1;stroke-linecap:butt;stroke-linejoin:miter;stroke:rgb(0%,0%,0%);stroke-opacity:1;stroke-miterlimit:10;" d="M 495 182.601562 C 495 168.199219 471 168.199219 471 182.601562 C 471 197 495 199.398438 495 211.398438 C 495 199.398438 519 197 519 182.601562 C 519 168.199219 495 168.199219 495 182.601562 "/>
<path style="fill-rule:nonzero;fill:rgb(100%,51%,0%);fill-opacity:1;stroke-width:1;stroke-linecap:butt;stroke-linejoin:miter;stroke:rgb(0%,0%,0%);stroke-opacity:1;stroke-miterlimit:10;" d="M 689.214844 209 C 689.214844 220.714844 679.714844 230.214844 668 230.214844 C 656.285156 230.214844 646.785156 220.714844 646.785156 209 C 646.785156 197.285156 656.285156 187.785156 668 187.785156 C 679.714844 187.785156 689.214844 197.285156 689.214844 209 "/>
<path style="fill-rule:nonzero;fill:rgb(100%,51%,0%);fill-opacity:1;stroke-width:1;stroke-linecap:butt;stroke-linejoin:miter;stroke:rgb(0%,0%,0%);stroke-opacity:1;stroke-miterlimit:10;" d="M 620.214844 370 C 620.214844 381.714844 610.714844 391.214844 599 391.214844 C 587.285156 391.214844 577.785156 381.714844 577.785156 370 C 577.785156 358.285156 587.285156 348.785156 599 348.785156 C 610.714844 348.785156 620.214844 358.285156 620.214844 370 "/>
<path style="fill-rule:nonzero;fill:rgb(100%,51%,0%);fill-opacity:1;stroke-width:1;stroke-linecap:butt;stroke-linejoin:miter;stroke:rgb(0%,0%,0%);stroke-opacity:1;stroke-miterlimit:10;" d="M 243.214844 333 C 243.214844 344.714844 233.714844 354.214844 222 354.214844 C 210.285156 354.214844 200.785156 344.714844 200.785156 333 C 200.785156 321.285156 210.285156 311.785156 222 311.785156 C 233.714844 311.785156 243.214844 321.285156 243.214844 333 "/>
<path style="fill-rule:nonzero;fill:rgb(100%,51%,0%);fill-opacity:1;stroke-width:1;stroke-linecap:butt;stroke-linejoin:miter;stroke:rgb(0%,0%,0%);stroke-opacity:1;stroke-miterlimit:10;" d="M 88.214844 138 C 88.214844 149.714844 78.714844 159.214844 67 159.214844 C 55.285156 159.214844 45.785156 149.714844 45.785156 138 C 45.785156 126.285156 55.285156 116.785156 67 116.785156 C 78.714844 116.785156 88.214844 126.285156 88.214844 138 "/>
<path style="fill-rule:nonzero;fill:rgb(100%,51%,0%);fill-opacity:1;stroke-width:1;stroke-linecap:butt;stroke-linejoin:miter;stroke:rgb(0%,0%,0%);stroke-opacity:1;stroke-miterlimit:10;" d="M 179.214844 448 C 179.214844 459.714844 169.714844 469.214844 158 469.214844 C 146.285156 469.214844 136.785156 459.714844 136.785156 448 C 136.785156 436.285156 146.285156 426.785156 158 426.785156 C 169.714844 426.785156 179.214844 436.285156 179.214844 448 "/>
<path style="fill-rule:nonzero;fill:rgb(100%,51%,0%);fill-opacity:1;stroke-width:1;stroke-linecap:butt;stroke-linejoin:miter;stroke:rgb(0%,0%,0%);stroke-opacity:1;stroke-miterlimit:10;" d="M 99.214844 266 C 99.214844 277.714844 89.714844 287.214844 78 287.214844 C 66.285156 287.214844 56.785156 277.714844 56.785156 266 C 56.785156 254.285156 66.285156 244.785156 78 244.785156 C 89.714844 244.785156 99.214844 254.285156 99.214844 266 "/>
<path style="fill-rule:nonzero;fill:rgb(100%,51%,0%);fill-opacity:1;stroke-width:1;stroke-linecap:butt;stroke-linejoin:miter;stroke:rgb(0%,0%,0%);stroke-opacity:1;stroke-miterlimit:10;" d="M 244.214844 242 C 244.214844 253.714844 234.714844 263.214844 223 263.214844 C 211.285156 263.214844 201.785156 253.714844 201.785156 242 C 201.785156 230.285156 211.285156 220.785156 223 220.785156 C 234.714844 220.785156 244.214844 230.285156 244.214844 242 "/>
<path style="fill-rule:nonzero;fill:rgb(100%,51%,0%);fill-opacity:1;stroke-width:1;stroke-linecap:butt;stroke-linejoin:miter;stroke:rgb(0%,0%,0%);stroke-opacity:1;stroke-miterlimit:10;" d="M 855.214844 378 C 855.214844 389.714844 845.714844 399.214844 834 399.214844 C 822.285156 399.214844 812.785156 389.714844 812.785156 378 C 812.785156 366.285156 822.285156 356.785156 834 356.785156 C 845.714844 356.785156 855.214844 366.285156 855.214844 378 "/>
</g>
</svg>
