<?xml version="1.0" encoding="UTF-8"?>
<svg xmlns="http://www.w3.org/2000/svg" xmlns:xlink="http://www.w3.org/1999/xlink" width="1129pt" height="517pt" viewBox="0 0 1129 517" version="1.1">
<g id="surface951">
<rect x="0" y="0" width="1129" height="517" style="fill:rgb(90%,90%,90%);fill-opacity:1;stroke:none;"/>
<path style="fill-rule:nonzero;fill:rgb(55%,51%,53%);fill-opacity:1;stroke-width:1;stroke-linecap:butt;stroke-linejoin:miter;stroke:rgb(0%,0%,0%);stroke-opacity:1;stroke-miterlimit:10;" d="M 126 294 L 100.019531 339 L 151.980469 339 L 126 294 "/>
<path style="fill-rule:nonzero;fill:rgb(55%,51%,53%);fill-opacity:1;stroke-width:1;stroke-linecap:butt;stroke-linejoin:miter;stroke:rgb(0%,0%,0%);stroke-opacity:1;stroke-miterlimit:10;" d="M 701 308 L 675.019531 353 L 726.980469 353 L 701 308 "/>
<path style="fill-rule:nonzero;fill:rgb(55%,51%,53%);fill-opacity:1;stroke-width:1;stroke-linecap:butt;stroke-linejoin:miter;stroke:rgb(0%,0%,0%);stroke-opacity:1;stroke-miterlimit:10;" d="M 480 421 L 454.019531 466 L 505.980469 466 L 480 421 "/>
<path style="fill-rule:nonzero;fill:rgb(55%,51%,53%);fill-opacity:1;stroke-width:1;stroke-linecap:butt;stroke-linejoin:miter;stroke:rgb(0%,0%,0%);stroke-opacity:1;stroke-miterlimit:10;" d="M 275 296 L 249.019531 341 L 300.980469 341 L 275 296 "/>
<path style="fill-rule:nonzero;fill:rgb(55%,51%,53%);fill-opacity:1;stroke-width:1;stroke-linecap:butt;stroke-linejoin:miter;stroke:rgb(0%,0%,0%);stroke-opacity:1;stroke-miterlimit:10;" d="M 557 359 L 531.019531 404 L 582.980469 404 L 557 359 "/>
<path style="fill-rule:nonzero;fill:rgb(55%,51%,53%);fill-opacity:1;stroke-width:1;stroke-linecap:butt;stroke-linejoin:miter;stroke:rgb(0%,0%,0%);stroke-opacity:1;stroke-miterlimit:10;" d="M 287 402 L 261.019531 447 L 312.980469 447 L 287 402 "/>
<path style="fill-rule:nonzero;fill:rgb(55%,51%,53%);fill-opacity:1;stroke-width:1;stroke-linecap:butt;stroke-linejoin:miter;stroke:rgb(0%,0%,0%);stroke-opacity:1;stroke-miterlimit:10;" d="M 560 186 L 534.019531 231 L 585.980469 231 L 560 186 "/>
<path style="fill-rule:nonzero;fill:rgb(55%,51%,53%);fill-opacity:1;stroke-width:1;stroke-linecap:butt;stroke-linejoin:miter;stroke:rgb(0%,0%,0%);stroke-opacity:1;stroke-miterlimit:10;" d="M 861 351 L 835.019531 396 L 886.980469 396 L 861 351 "/>
<path style="fill-rule:nonzero;fill:rgb(55%,51%,53%);fill-opacity:1;stroke-width:1;stroke-linecap:butt;stroke-linejoin:miter;stroke:rgb(0%,0%,0%);stroke-opacity:1;stroke-miterlimit:10;" d="M 82 111 L 111.664062 111 L 123.664062 82.785156 L 135.664062 111 L 165.332031 111 L 141.332031 128.4375 L 149.417969 159.980469 L 123.664062 142.542969 L 97.914062 159.980469 L 110.214844 128.4375 L 82 111 "/>
<path style="fill-rule:nonzero;fill:rgb(55%,51%,53%);fill-opacity:1;stroke-width:1;stroke-linecap:butt;stroke-linejoin:miter;stroke:rgb(0%,0%,0%);stroke-opacity:1;stroke-miterlimit:10;" d="M 210 92 L 239.664062 92 L 251.664062 63.785156 L 263.664062 92 L 293.332031 92 L 269.332031 109.4375 L 277.417969 140.980469 L 251.664062 123.542969 L 225.914062 140.980469 L 238.214844 109.4375 L 210 92 "/>
<path style="fill-rule:nonzero;fill:rgb(55%,51%,53%);fill-opacity:1;stroke-width:1;stroke-linecap:butt;stroke-linejoin:miter;stroke:rgb(0%,0%,0%);stroke-opacity:1;stroke-miterlimit:10;" d="M 408 310 L 437.664062 310 L 449.664062 281.785156 L 461.664062 310 L 491.332031 310 L 467.332031 327.4375 L 475.417969 358.980469 L 449.664062 341.542969 L 423.914062 358.980469 L 436.214844 327.4375 L 408 310 "/>
<path style="fill-rule:nonzero;fill:rgb(55%,51%,53%);fill-opacity:1;stroke-width:1;stroke-linecap:butt;stroke-linejoin:miter;stroke:rgb(0%,0%,0%);stroke-opacity:1;stroke-miterlimit:10;" d="M 826 198 L 855.664062 198 L 867.664062 169.785156 L 879.664062 198 L 909.332031 198 L 885.332031 215.4375 L 893.417969 246.980469 L 867.664062 229.542969 L 841.914062 246.980469 L 854.214844 215.4375 L 826 198 "/>
<path style="fill-rule:nonzero;fill:rgb(55%,51%,53%);fill-opacity:1;stroke-width:1;stroke-linecap:butt;stroke-linejoin:miter;stroke:rgb(0%,0%,0%);stroke-opacity:1;stroke-miterlimit:10;" d="M 727 454 L 756.664062 454 L 768.664062 425.785156 L 780.664062 454 L 810.332031 454 L 786.332031 471.4375 L 794.417969 502.980469 L 768.664062 485.542969 L 742.914062 502.980469 L 755.214844 471.4375 L 727 454 "/>
<path style="fill-rule:nonzero;fill:rgb(55%,51%,53%);fill-opacity:1;stroke-width:1;stroke-linecap:butt;stroke-linejoin:miter;stroke:rgb(0%,0%,0%);stroke-opacity:1;stroke-miterlimit:10;" d="M 354 225 L 383.664062 225 L 395.664062 196.785156 L 407.664062 225 L 437.332031 225 L 413.332031 242.4375 L 421.417969 273.980469 L 395.664062 256.542969 L 369.914062 273.980469 L 382.214844 242.4375 L 354 225 "/>
<path style="fill-rule:nonzero;fill:rgb(55%,51%,53%);fill-opacity:1;stroke-width:1;stroke-linecap:butt;stroke-linejoin:miter;stroke:rgb(0%,0%,0%);stroke-opacity:1;stroke-miterlimit:10;" d="M 155 236 L 184.664062 236 L 196.664062 207.785156 L 208.664062 236 L 238.332031 236 L 214.332031 253.4375 L 222.417969 284.980469 L 196.664062 267.542969 L 170.914062 284.980469 L 183.214844 253.4375 L 155 236 "/>
</g>
</svg>
