<?xml version="1.0" encoding="UTF-8"?>
<svg xmlns="http://www.w3.org/2000/svg" xmlns:xlink="http://www.w3.org/1999/xlink" width="1129pt" height="517pt" viewBox="0 0 1129 517" version="1.1">
<g id="surface681">
<rect x="0" y="0" width="1129" height="517" style="fill:rgb(90%,90%,90%);fill-opacity:1;stroke:none;"/>
<path style="fill-rule:nonzero;fill:rgb(100%,51%,0%);fill-opacity:1;stroke-width:1;stroke-linecap:butt;stroke-linejoin:miter;stroke:rgb(0%,0%,0%);stroke-opacity:1;stroke-miterlimit:10;" d="M 230.214844 75 C 230.214844 86.714844 220.714844 96.214844 209 96.214844 C 197.285156 96.214844 187.785156 86.714844 187.785156 75 C 187.785156 63.285156 197.285156 53.785156 209 53.785156 C 220.714844 53.785156 230.214844 63.285156 230.214844 75 "/>
<path style="fill-rule:nonzero;fill:rgb(100%,51%,0%);fill-opacity:1;stroke-width:1;stroke-linecap:butt;stroke-linejoin:miter;stroke:rgb(0%,0%,0%);stroke-opacity:1;stroke-miterlimit:10;" d="M 195.214844 186 C 195.214844 197.714844 185.714844 207.214844 174 207.214844 C 162.285156 207.214844 152.785156 197.714844 152.785156 186 C 152.785156 174.285156 162.285156 164.785156 174 164.785156 C 185.714844 164.785156 195.214844 174.285156 195.214844 186 "/>
<path style="fill-rule:nonzero;fill:rgb(100%,51%,0%);fill-opacity:1;stroke-width:1;stroke-linecap:butt;stroke-linejoin:miter;stroke:rgb(0%,0%,0%);stroke-opacity:1;stroke-miterlimit:10;" d="M 399.785156 32.785156 L 399.785156 75.214844 L 442.214844 75.214844 L 442.214844 32.785156 L 399.785156 32.785156 "/>
<path style="fill-rule:nonzero;fill:rgb(100%,51%,0%);fill-opacity:1;stroke-width:1;stroke-linecap:butt;stroke-linejoin:miter;stroke:rgb(0%,0%,0%);stroke-opacity:1;stroke-miterlimit:10;" d="M 144.785156 411.785156 L 144.785156 454.214844 L 187.214844 454.214844 L 187.214844 411.785156 L 144.785156 411.785156 "/>
<path style="fill-rule:nonzero;fill:rgb(100%,51%,0%);fill-opacity:1;stroke-width:1;stroke-linecap:butt;stroke-linejoin:miter;stroke:rgb(0%,0%,0%);stroke-opacity:1;stroke-miterlimit:10;" d="M 439.214844 284 C 439.214844 295.714844 429.714844 305.214844 418 305.214844 C 406.285156 305.214844 396.785156 295.714844 396.785156 284 C 396.785156 272.285156 406.285156 262.785156 418 262.785156 C 429.714844 262.785156 439.214844 272.285156 439.214844 284 "/>
<path style="fill-rule:nonzero;fill:rgb(55%,51%,53%);fill-opacity:1;stroke-width:1;stroke-linecap:butt;stroke-linejoin:miter;stroke:rgb(0%,0%,0%);stroke-opacity:1;stroke-miterlimit:10;" d="M 915.785156 355.785156 L 915.785156 398.214844 L 958.214844 398.214844 L 958.214844 355.785156 L 915.785156 355.785156 "/>
<path style="fill-rule:nonzero;fill:rgb(55%,51%,53%);fill-opacity:1;stroke-width:1;stroke-linecap:butt;stroke-linejoin:miter;stroke:rgb(0%,0%,0%);stroke-opacity:1;stroke-miterlimit:10;" d="M 771.785156 298.785156 L 771.785156 341.214844 L 814.214844 341.214844 L 814.214844 298.785156 L 771.785156 298.785156 "/>
<path style="fill-rule:nonzero;fill:rgb(55%,51%,53%);fill-opacity:1;stroke-width:1;stroke-linecap:butt;stroke-linejoin:miter;stroke:rgb(0%,0%,0%);stroke-opacity:1;stroke-miterlimit:10;" d="M 698.214844 308 C 698.214844 319.714844 688.714844 329.214844 677 329.214844 C 665.285156 329.214844 655.785156 319.714844 655.785156 308 C 655.785156 296.285156 665.285156 286.785156 677 286.785156 C 688.714844 286.785156 698.214844 296.285156 698.214844 308 "/>
<path style="fill-rule:nonzero;fill:rgb(55%,51%,53%);fill-opacity:1;stroke-width:1;stroke-linecap:butt;stroke-linejoin:miter;stroke:rgb(0%,0%,0%);stroke-opacity:1;stroke-miterlimit:10;" d="M 650.214844 414 C 650.214844 425.714844 640.714844 435.214844 629 435.214844 C 617.285156 435.214844 607.785156 425.714844 607.785156 414 C 607.785156 402.285156 617.285156 392.785156 629 392.785156 C 640.714844 392.785156 650.214844 402.285156 650.214844 414 "/>
<path style="fill-rule:nonzero;fill:rgb(55%,51%,53%);fill-opacity:1;stroke-width:1;stroke-linecap:butt;stroke-linejoin:miter;stroke:rgb(0%,0%,0%);stroke-opacity:1;stroke-miterlimit:10;" d="M 791.785156 117.785156 L 791.785156 160.214844 L 834.214844 160.214844 L 834.214844 117.785156 L 791.785156 117.785156 "/>
<path style="fill-rule:nonzero;fill:rgb(55%,51%,53%);fill-opacity:1;stroke-width:1;stroke-linecap:butt;stroke-linejoin:miter;stroke:rgb(0%,0%,0%);stroke-opacity:1;stroke-miterlimit:10;" d="M 609.785156 68.785156 L 609.785156 111.214844 L 652.214844 111.214844 L 652.214844 68.785156 L 609.785156 68.785156 "/>
</g>
</svg>
