<?xml version="1.0" encoding="UTF-8"?>
<svg xmlns="http://www.w3.org/2000/svg" xmlns:xlink="http://www.w3.org/1999/xlink" width="1129pt" height="517pt" viewBox="0 0 1129 517" version="1.1">
<g id="surface796">
<rect x="0" y="0" width="1129" height="517" style="fill:rgb(90%,90%,90%);fill-opacity:1;stroke:none;"/>
<path style="fill-rule:nonzero;fill:rgb(55%,51%,53%);fill-opacity:1;stroke-width:1;stroke-linecap:butt;stroke-linejoin:miter;stroke:rgb(0%,0%,0%);stroke-opacity:1;stroke-miterlimit:10;" d="M 356.214844 226 C 356.214844 237.714844 346.714844 247.214844 335 247.214844 C 323.285156 247.214844 313.785156 237.714844 313.785156 226 C 313.785156 214.285156 323.285156 204.785156 335 204.785156 C 346.714844 204.785156 356.214844 214.285156 356.214844 226 "/>
<path style="fill-rule:nonzero;fill:rgb(67%,100%,18%);fill-opacity:1;stroke-width:1;stroke-linecap:butt;stroke-linejoin:miter;stroke:rgb(0%,0%,0%);stroke-opacity:1;stroke-miterlimit:10;" d="M 140.214844 218 C 140.214844 229.714844 130.714844 239.214844 119 239.214844 C 107.285156 239.214844 97.785156 229.714844 97.785156 218 C 97.785156 206.285156 107.285156 196.785156 119 196.785156 C 130.714844 196.785156 140.214844 206.285156 140.214844 218 "/>
<path style="fill-rule:nonzero;fill:rgb(67%,100%,18%);fill-opacity:1;stroke-width:1;stroke-linecap:butt;stroke-linejoin:miter;stroke:rgb(0%,0%,0%);stroke-opacity:1;stroke-miterlimit:10;" d="M 270.214844 87 C 270.214844 98.714844 260.714844 108.214844 249 108.214844 C 237.285156 108.214844 227.785156 98.714844 227.785156 87 C 227.785156 75.285156 237.285156 65.785156 249 65.785156 C 260.714844 65.785156 270.214844 75.285156 270.214844 87 "/>
<path style="fill-rule:nonzero;fill:rgb(55%,51%,53%);fill-opacity:1;stroke-width:1;stroke-linecap:butt;stroke-linejoin:miter;stroke:rgb(0%,0%,0%);stroke-opacity:1;stroke-miterlimit:10;" d="M 129.214844 53 C 129.214844 64.714844 119.714844 74.214844 108 74.214844 C 96.285156 74.214844 86.785156 64.714844 86.785156 53 C 86.785156 41.285156 96.285156 31.785156 108 31.785156 C 119.714844 31.785156 129.214844 41.285156 129.214844 53 "/>
<path style="fill-rule:nonzero;fill:rgb(55%,51%,53%);fill-opacity:1;stroke-width:1;stroke-linecap:butt;stroke-linejoin:miter;stroke:rgb(0%,0%,0%);stroke-opacity:1;stroke-miterlimit:10;" d="M 446.214844 308 C 446.214844 319.714844 436.714844 329.214844 425 329.214844 C 413.285156 329.214844 403.785156 319.714844 403.785156 308 C 403.785156 296.285156 413.285156 286.785156 425 286.785156 C 436.714844 286.785156 446.214844 296.285156 446.214844 308 "/>
<path style="fill-rule:nonzero;fill:rgb(55%,51%,53%);fill-opacity:1;stroke-width:1;stroke-linecap:butt;stroke-linejoin:miter;stroke:rgb(0%,0%,0%);stroke-opacity:1;stroke-miterlimit:10;" d="M 277.214844 417 C 277.214844 428.714844 267.714844 438.214844 256 438.214844 C 244.285156 438.214844 234.785156 428.714844 234.785156 417 C 234.785156 405.285156 244.285156 395.785156 256 395.785156 C 267.714844 395.785156 277.214844 405.285156 277.214844 417 "/>
<path style="fill-rule:nonzero;fill:rgb(55%,51%,53%);fill-opacity:1;stroke-width:1;stroke-linecap:butt;stroke-linejoin:miter;stroke:rgb(0%,0%,0%);stroke-opacity:1;stroke-miterlimit:10;" d="M 97.214844 331 C 97.214844 342.714844 87.714844 352.214844 76 352.214844 C 64.285156 352.214844 54.785156 342.714844 54.785156 331 C 54.785156 319.285156 64.285156 309.785156 76 309.785156 C 87.714844 309.785156 97.214844 319.285156 97.214844 331 "/>
<path style="fill-rule:nonzero;fill:rgb(55%,51%,53%);fill-opacity:1;stroke-width:1;stroke-linecap:butt;stroke-linejoin:miter;stroke:rgb(0%,0%,0%);stroke-opacity:1;stroke-miterlimit:10;" d="M 478.214844 462 C 478.214844 473.714844 468.714844 483.214844 457 483.214844 C 445.285156 483.214844 435.785156 473.714844 435.785156 462 C 435.785156 450.285156 445.285156 440.785156 457 440.785156 C 468.714844 440.785156 478.214844 450.285156 478.214844 462 "/>
<path style="fill-rule:nonzero;fill:rgb(67%,100%,18%);fill-opacity:1;stroke-width:1;stroke-linecap:butt;stroke-linejoin:miter;stroke:rgb(0%,0%,0%);stroke-opacity:1;stroke-miterlimit:10;" d="M 914 300 L 888.019531 345 L 939.980469 345 L 914 300 "/>
<path style="fill-rule:nonzero;fill:rgb(55%,51%,53%);fill-opacity:1;stroke-width:1;stroke-linecap:butt;stroke-linejoin:miter;stroke:rgb(0%,0%,0%);stroke-opacity:1;stroke-miterlimit:10;" d="M 625 96 L 599.019531 141 L 650.980469 141 L 625 96 "/>
<path style="fill-rule:nonzero;fill:rgb(55%,51%,53%);fill-opacity:1;stroke-width:1;stroke-linecap:butt;stroke-linejoin:miter;stroke:rgb(0%,0%,0%);stroke-opacity:1;stroke-miterlimit:10;" d="M 934 32 L 908.019531 77 L 959.980469 77 L 934 32 "/>
<path style="fill-rule:nonzero;fill:rgb(67%,100%,18%);fill-opacity:1;stroke-width:1;stroke-linecap:butt;stroke-linejoin:miter;stroke:rgb(0%,0%,0%);stroke-opacity:1;stroke-miterlimit:10;" d="M 844 112 L 818.019531 157 L 869.980469 157 L 844 112 "/>
<path style="fill-rule:nonzero;fill:rgb(67%,100%,18%);fill-opacity:1;stroke-width:1;stroke-linecap:butt;stroke-linejoin:miter;stroke:rgb(0%,0%,0%);stroke-opacity:1;stroke-miterlimit:10;" d="M 751 129 L 725.019531 174 L 776.980469 174 L 751 129 "/>
<path style="fill-rule:nonzero;fill:rgb(67%,100%,18%);fill-opacity:1;stroke-width:1;stroke-linecap:butt;stroke-linejoin:miter;stroke:rgb(0%,0%,0%);stroke-opacity:1;stroke-miterlimit:10;" d="M 991 191 L 965.019531 236 L 1016.980469 236 L 991 191 "/>
</g>
</svg>
