<?xml version="1.0" encoding="UTF-8"?>
<svg xmlns="http://www.w3.org/2000/svg" xmlns:xlink="http://www.w3.org/1999/xlink" width="1179pt" height="517pt" viewBox="0 0 1179 517" version="1.1">
<g id="surface306">
<rect x="0" y="0" width="1179" height="517" style="fill:rgb(90%,90%,90%);fill-opacity:1;stroke:none;"/>
<path style="fill-rule:nonzero;fill:rgb(100%,51%,0%);fill-opacity:1;stroke-width:1;stroke-linecap:butt;stroke-linejoin:miter;stroke:rgb(0%,0%,0%);stroke-opacity:1;stroke-miterlimit:10;" d="M 111 380 L 140.664062 380 L 152.664062 351.785156 L 164.664062 380 L 194.332031 380 L 170.332031 397.4375 L 178.417969 428.980469 L 152.664062 411.542969 L 126.914062 428.980469 L 139.214844 397.4375 L 111 380 "/>
<path style="fill-rule:nonzero;fill:rgb(55%,51%,53%);fill-opacity:1;stroke-width:1;stroke-linecap:butt;stroke-linejoin:miter;stroke:rgb(0%,0%,0%);stroke-opacity:1;stroke-miterlimit:10;" d="M 226 138 L 200.019531 183 L 251.980469 183 L 226 138 "/>
<path style="fill-rule:nonzero;fill:rgb(55%,51%,53%);fill-opacity:1;stroke-width:1;stroke-linecap:butt;stroke-linejoin:miter;stroke:rgb(0%,0%,0%);stroke-opacity:1;stroke-miterlimit:10;" d="M 417 180 L 391.019531 225 L 442.980469 225 L 417 180 "/>
<path style="fill-rule:nonzero;fill:rgb(100%,51%,0%);fill-opacity:1;stroke-width:1;stroke-linecap:butt;stroke-linejoin:miter;stroke:rgb(0%,0%,0%);stroke-opacity:1;stroke-miterlimit:10;" d="M 114 133 L 143.664062 133 L 155.664062 104.785156 L 167.664062 133 L 197.332031 133 L 173.332031 150.4375 L 181.417969 181.980469 L 155.664062 164.542969 L 129.914062 181.980469 L 142.214844 150.4375 L 114 133 "/>
<path style="fill-rule:nonzero;fill:rgb(55%,51%,53%);fill-opacity:1;stroke-width:1;stroke-linecap:butt;stroke-linejoin:miter;stroke:rgb(0%,0%,0%);stroke-opacity:1;stroke-miterlimit:10;" d="M 884 95 L 858.019531 140 L 909.980469 140 L 884 95 "/>
<path style="fill-rule:nonzero;fill:rgb(55%,51%,53%);fill-opacity:1;stroke-width:1;stroke-linecap:butt;stroke-linejoin:miter;stroke:rgb(0%,0%,0%);stroke-opacity:1;stroke-miterlimit:10;" d="M 894 203 L 868.019531 248 L 919.980469 248 L 894 203 "/>
<path style="fill-rule:nonzero;fill:rgb(100%,51%,0%);fill-opacity:1;stroke-width:1;stroke-linecap:butt;stroke-linejoin:miter;stroke:rgb(0%,0%,0%);stroke-opacity:1;stroke-miterlimit:10;" d="M 806 276 L 835.664062 276 L 847.664062 247.785156 L 859.664062 276 L 889.332031 276 L 865.332031 293.4375 L 873.417969 324.980469 L 847.664062 307.542969 L 821.914062 324.980469 L 834.214844 293.4375 L 806 276 "/>
<path style="fill-rule:nonzero;fill:rgb(100%,51%,0%);fill-opacity:1;stroke-width:1;stroke-linecap:butt;stroke-linejoin:miter;stroke:rgb(0%,0%,0%);stroke-opacity:1;stroke-miterlimit:10;" d="M 1039 344 L 1068.664062 344 L 1080.664062 315.785156 L 1092.664062 344 L 1122.332031 344 L 1098.332031 361.4375 L 1106.417969 392.980469 L 1080.664062 375.542969 L 1054.914062 392.980469 L 1067.214844 361.4375 L 1039 344 "/>
</g>
</svg>
