<?xml version="1.0" encoding="UTF-8"?>
<svg xmlns="http://www.w3.org/2000/svg" xmlns:xlink="http://www.w3.org/1999/xlink" width="1179pt" height="517pt" viewBox="0 0 1179 517" version="1.1">
<g id="surface251">
<rect x="0" y="0" width="1179" height="517" style="fill:rgb(90%,90%,90%);fill-opacity:1;stroke:none;"/>
<path style="fill-rule:nonzero;fill:rgb(35%,70%,90%);fill-opacity:1;stroke-width:1;stroke-linecap:butt;stroke-linejoin:miter;stroke:rgb(0%,0%,0%);stroke-opacity:1;stroke-miterlimit:10;" d="M 128 210 L 157.664062 210 L 169.664062 181.785156 L 181.664062 210 L 211.332031 210 L 187.332031 227.4375 L 195.417969 258.980469 L 169.664062 241.542969 L 143.914062 258.980469 L 156.214844 227.4375 L 128 210 "/>
<path style="fill-rule:nonzero;fill:rgb(35%,70%,90%);fill-opacity:1;stroke-width:1;stroke-linecap:butt;stroke-linejoin:miter;stroke:rgb(0%,0%,0%);stroke-opacity:1;stroke-miterlimit:10;" d="M 390 91 L 419.664062 91 L 431.664062 62.785156 L 443.664062 91 L 473.332031 91 L 449.332031 108.4375 L 457.417969 139.980469 L 431.664062 122.542969 L 405.914062 139.980469 L 418.214844 108.4375 L 390 91 "/>
<path style="fill-rule:nonzero;fill:rgb(55%,51%,53%);fill-opacity:1;stroke-width:1;stroke-linecap:butt;stroke-linejoin:miter;stroke:rgb(0%,0%,0%);stroke-opacity:1;stroke-miterlimit:10;" d="M 193 429 L 222.664062 429 L 234.664062 400.785156 L 246.664062 429 L 276.332031 429 L 252.332031 446.4375 L 260.417969 477.980469 L 234.664062 460.542969 L 208.914062 477.980469 L 221.214844 446.4375 L 193 429 "/>
<path style="fill-rule:nonzero;fill:rgb(55%,51%,53%);fill-opacity:1;stroke-width:1;stroke-linecap:butt;stroke-linejoin:miter;stroke:rgb(0%,0%,0%);stroke-opacity:1;stroke-miterlimit:10;" d="M 366 196 L 395.664062 196 L 407.664062 167.785156 L 419.664062 196 L 449.332031 196 L 425.332031 213.4375 L 433.417969 244.980469 L 407.664062 227.542969 L 381.914062 244.980469 L 394.214844 213.4375 L 366 196 "/>
<path style="fill-rule:nonzero;fill:rgb(35%,70%,90%);fill-opacity:1;stroke-width:1;stroke-linecap:butt;stroke-linejoin:miter;stroke:rgb(0%,0%,0%);stroke-opacity:1;stroke-miterlimit:10;" d="M 364 370 L 393.664062 370 L 405.664062 341.785156 L 417.664062 370 L 447.332031 370 L 423.332031 387.4375 L 431.417969 418.980469 L 405.664062 401.542969 L 379.914062 418.980469 L 392.214844 387.4375 L 364 370 "/>
<path style="fill-rule:nonzero;fill:rgb(55%,51%,53%);fill-opacity:1;stroke-width:1;stroke-linecap:butt;stroke-linejoin:miter;stroke:rgb(0%,0%,0%);stroke-opacity:1;stroke-miterlimit:10;" d="M 832.785156 128.785156 L 832.785156 171.214844 L 875.214844 171.214844 L 875.214844 128.785156 L 832.785156 128.785156 "/>
<path style="fill-rule:nonzero;fill:rgb(55%,51%,53%);fill-opacity:1;stroke-width:1;stroke-linecap:butt;stroke-linejoin:miter;stroke:rgb(0%,0%,0%);stroke-opacity:1;stroke-miterlimit:10;" d="M 891.785156 408.785156 L 891.785156 451.214844 L 934.214844 451.214844 L 934.214844 408.785156 L 891.785156 408.785156 "/>
<path style="fill-rule:nonzero;fill:rgb(35%,70%,90%);fill-opacity:1;stroke-width:1;stroke-linecap:butt;stroke-linejoin:miter;stroke:rgb(0%,0%,0%);stroke-opacity:1;stroke-miterlimit:10;" d="M 988.785156 294.785156 L 988.785156 337.214844 L 1031.214844 337.214844 L 1031.214844 294.785156 L 988.785156 294.785156 "/>
<path style="fill-rule:nonzero;fill:rgb(35%,70%,90%);fill-opacity:1;stroke-width:1;stroke-linecap:butt;stroke-linejoin:miter;stroke:rgb(0%,0%,0%);stroke-opacity:1;stroke-miterlimit:10;" d="M 739.785156 132.785156 L 739.785156 175.214844 L 782.214844 175.214844 L 782.214844 132.785156 L 739.785156 132.785156 "/>
<path style="fill-rule:nonzero;fill:rgb(55%,51%,53%);fill-opacity:1;stroke-width:1;stroke-linecap:butt;stroke-linejoin:miter;stroke:rgb(0%,0%,0%);stroke-opacity:1;stroke-miterlimit:10;" d="M 1005.785156 132.785156 L 1005.785156 175.214844 L 1048.214844 175.214844 L 1048.214844 132.785156 L 1005.785156 132.785156 "/>
<path style="fill-rule:nonzero;fill:rgb(55%,51%,53%);fill-opacity:1;stroke-width:1;stroke-linecap:butt;stroke-linejoin:miter;stroke:rgb(0%,0%,0%);stroke-opacity:1;stroke-miterlimit:10;" d="M 845.785156 330.785156 L 845.785156 373.214844 L 888.214844 373.214844 L 888.214844 330.785156 L 845.785156 330.785156 "/>
<path style="fill-rule:nonzero;fill:rgb(55%,51%,53%);fill-opacity:1;stroke-width:1;stroke-linecap:butt;stroke-linejoin:miter;stroke:rgb(0%,0%,0%);stroke-opacity:1;stroke-miterlimit:10;" d="M 755.785156 405.785156 L 755.785156 448.214844 L 798.214844 448.214844 L 798.214844 405.785156 L 755.785156 405.785156 "/>
<path style="fill-rule:nonzero;fill:rgb(55%,51%,53%);fill-opacity:1;stroke-width:1;stroke-linecap:butt;stroke-linejoin:miter;stroke:rgb(0%,0%,0%);stroke-opacity:1;stroke-miterlimit:10;" d="M 870.785156 228.785156 L 870.785156 271.214844 L 913.214844 271.214844 L 913.214844 228.785156 L 870.785156 228.785156 "/>
</g>
</svg>
