<?xml version="1.0" encoding="UTF-8"?>
<svg xmlns="http://www.w3.org/2000/svg" xmlns:xlink="http://www.w3.org/1999/xlink" width="1179pt" height="517pt" viewBox="0 0 1179 517" version="1.1">
<g id="surface976">
<rect x="0" y="0" width="1179" height="517" style="fill:rgb(90%,90%,90%);fill-opacity:1;stroke:none;"/>
<path style="fill-rule:nonzero;fill:rgb(55%,51%,53%);fill-opacity:1;stroke-width:1;stroke-linecap:butt;stroke-linejoin:miter;stroke:rgb(0%,0%,0%);stroke-opacity:1;stroke-miterlimit:10;" d="M 335.214844 94 C 335.214844 105.714844 325.714844 115.214844 314 115.214844 C 302.285156 115.214844 292.785156 105.714844 292.785156 94 C 292.785156 82.285156 302.285156 72.785156 314 72.785156 C 325.714844 72.785156 335.214844 82.285156 335.214844 94 "/>
<path style="fill-rule:nonzero;fill:rgb(67%,100%,18%);fill-opacity:1;stroke-width:1;stroke-linecap:butt;stroke-linejoin:miter;stroke:rgb(0%,0%,0%);stroke-opacity:1;stroke-miterlimit:10;" d="M 412.214844 228 C 412.214844 239.714844 402.714844 249.214844 391 249.214844 C 379.285156 249.214844 369.785156 239.714844 369.785156 228 C 369.785156 216.285156 379.285156 206.785156 391 206.785156 C 402.714844 206.785156 412.214844 216.285156 412.214844 228 "/>
<path style="fill-rule:nonzero;fill:rgb(55%,51%,53%);fill-opacity:1;stroke-width:1;stroke-linecap:butt;stroke-linejoin:miter;stroke:rgb(0%,0%,0%);stroke-opacity:1;stroke-miterlimit:10;" d="M 139.214844 130 C 139.214844 141.714844 129.714844 151.214844 118 151.214844 C 106.285156 151.214844 96.785156 141.714844 96.785156 130 C 96.785156 118.285156 106.285156 108.785156 118 108.785156 C 129.714844 108.785156 139.214844 118.285156 139.214844 130 "/>
<path style="fill-rule:nonzero;fill:rgb(67%,100%,18%);fill-opacity:1;stroke-width:1;stroke-linecap:butt;stroke-linejoin:miter;stroke:rgb(0%,0%,0%);stroke-opacity:1;stroke-miterlimit:10;" d="M 187.214844 351 C 187.214844 362.714844 177.714844 372.214844 166 372.214844 C 154.285156 372.214844 144.785156 362.714844 144.785156 351 C 144.785156 339.285156 154.285156 329.785156 166 329.785156 C 177.714844 329.785156 187.214844 339.285156 187.214844 351 "/>
<path style="fill-rule:nonzero;fill:rgb(55%,51%,53%);fill-opacity:1;stroke-width:1;stroke-linecap:butt;stroke-linejoin:miter;stroke:rgb(0%,0%,0%);stroke-opacity:1;stroke-miterlimit:10;" d="M 283.214844 307 C 283.214844 318.714844 273.714844 328.214844 262 328.214844 C 250.285156 328.214844 240.785156 318.714844 240.785156 307 C 240.785156 295.285156 250.285156 285.785156 262 285.785156 C 273.714844 285.785156 283.214844 295.285156 283.214844 307 "/>
<path style="fill-rule:nonzero;fill:rgb(55%,51%,53%);fill-opacity:1;stroke-width:1;stroke-linecap:butt;stroke-linejoin:miter;stroke:rgb(0%,0%,0%);stroke-opacity:1;stroke-miterlimit:10;" d="M 444.214844 321 C 444.214844 332.714844 434.714844 342.214844 423 342.214844 C 411.285156 342.214844 401.785156 332.714844 401.785156 321 C 401.785156 309.285156 411.285156 299.785156 423 299.785156 C 434.714844 299.785156 444.214844 309.285156 444.214844 321 "/>
<path style="fill-rule:nonzero;fill:rgb(55%,51%,53%);fill-opacity:1;stroke-width:1;stroke-linecap:butt;stroke-linejoin:miter;stroke:rgb(0%,0%,0%);stroke-opacity:1;stroke-miterlimit:10;" d="M 318.214844 185 C 318.214844 196.714844 308.714844 206.214844 297 206.214844 C 285.285156 206.214844 275.785156 196.714844 275.785156 185 C 275.785156 173.285156 285.285156 163.785156 297 163.785156 C 308.714844 163.785156 318.214844 173.285156 318.214844 185 "/>
<path style="fill-rule:nonzero;fill:rgb(55%,51%,53%);fill-opacity:1;stroke-width:1;stroke-linecap:butt;stroke-linejoin:miter;stroke:rgb(0%,0%,0%);stroke-opacity:1;stroke-miterlimit:10;" d="M 101.214844 384 C 101.214844 395.714844 91.714844 405.214844 80 405.214844 C 68.285156 405.214844 58.785156 395.714844 58.785156 384 C 58.785156 372.285156 68.285156 362.785156 80 362.785156 C 91.714844 362.785156 101.214844 372.285156 101.214844 384 "/>
<path style="fill-rule:nonzero;fill:rgb(67%,100%,18%);fill-opacity:1;stroke-width:1;stroke-linecap:butt;stroke-linejoin:miter;stroke:rgb(0%,0%,0%);stroke-opacity:1;stroke-miterlimit:10;" d="M 822 142 L 796.019531 187 L 847.980469 187 L 822 142 "/>
<path style="fill-rule:nonzero;fill:rgb(55%,51%,53%);fill-opacity:1;stroke-width:1;stroke-linecap:butt;stroke-linejoin:miter;stroke:rgb(0%,0%,0%);stroke-opacity:1;stroke-miterlimit:10;" d="M 1021 294 L 995.019531 339 L 1046.980469 339 L 1021 294 "/>
<path style="fill-rule:nonzero;fill:rgb(67%,100%,18%);fill-opacity:1;stroke-width:1;stroke-linecap:butt;stroke-linejoin:miter;stroke:rgb(0%,0%,0%);stroke-opacity:1;stroke-miterlimit:10;" d="M 916 263 L 890.019531 308 L 941.980469 308 L 916 263 "/>
<path style="fill-rule:nonzero;fill:rgb(55%,51%,53%);fill-opacity:1;stroke-width:1;stroke-linecap:butt;stroke-linejoin:miter;stroke:rgb(0%,0%,0%);stroke-opacity:1;stroke-miterlimit:10;" d="M 726 119 L 700.019531 164 L 751.980469 164 L 726 119 "/>
<path style="fill-rule:nonzero;fill:rgb(67%,100%,18%);fill-opacity:1;stroke-width:1;stroke-linecap:butt;stroke-linejoin:miter;stroke:rgb(0%,0%,0%);stroke-opacity:1;stroke-miterlimit:10;" d="M 890 70 L 864.019531 115 L 915.980469 115 L 890 70 "/>
<path style="fill-rule:nonzero;fill:rgb(67%,100%,18%);fill-opacity:1;stroke-width:1;stroke-linecap:butt;stroke-linejoin:miter;stroke:rgb(0%,0%,0%);stroke-opacity:1;stroke-miterlimit:10;" d="M 816 337 L 790.019531 382 L 841.980469 382 L 816 337 "/>
</g>
</svg>
