<?xml version="1.0" encoding="UTF-8"?>
<svg xmlns="http://www.w3.org/2000/svg" xmlns:xlink="http://www.w3.org/1999/xlink" width="1129pt" height="517pt" viewBox="0 0 1129 517" version="1.1">
<g id="surface781">
<rect x="0" y="0" width="1129" height="517" style="fill:rgb(90%,90%,90%);fill-opacity:1;stroke:none;"/>
<path style="fill-rule:nonzero;fill:rgb(53%,27%,7%);fill-opacity:1;stroke-width:1;stroke-linecap:butt;stroke-linejoin:miter;stroke:rgb(0%,0%,0%);stroke-opacity:1;stroke-miterlimit:10;" d="M 86 112 L 115.664062 112 L 127.664062 83.785156 L 139.664062 112 L 169.332031 112 L 145.332031 129.4375 L 153.417969 160.980469 L 127.664062 143.542969 L 101.914062 160.980469 L 114.214844 129.4375 L 86 112 "/>
<path style="fill-rule:nonzero;fill:rgb(53%,27%,7%);fill-opacity:1;stroke-width:1;stroke-linecap:butt;stroke-linejoin:miter;stroke:rgb(0%,0%,0%);stroke-opacity:1;stroke-miterlimit:10;" d="M 470 212 L 499.664062 212 L 511.664062 183.785156 L 523.664062 212 L 553.332031 212 L 529.332031 229.4375 L 537.417969 260.980469 L 511.664062 243.542969 L 485.914062 260.980469 L 498.214844 229.4375 L 470 212 "/>
<path style="fill-rule:nonzero;fill:rgb(53%,27%,7%);fill-opacity:1;stroke-width:1;stroke-linecap:butt;stroke-linejoin:miter;stroke:rgb(0%,0%,0%);stroke-opacity:1;stroke-miterlimit:10;" d="M 471 379 L 500.664062 379 L 512.664062 350.785156 L 524.664062 379 L 554.332031 379 L 530.332031 396.4375 L 538.417969 427.980469 L 512.664062 410.542969 L 486.914062 427.980469 L 499.214844 396.4375 L 471 379 "/>
<path style="fill-rule:nonzero;fill:rgb(53%,27%,7%);fill-opacity:1;stroke-width:1;stroke-linecap:butt;stroke-linejoin:miter;stroke:rgb(0%,0%,0%);stroke-opacity:1;stroke-miterlimit:10;" d="M 811 347 L 840.664062 347 L 852.664062 318.785156 L 864.664062 347 L 894.332031 347 L 870.332031 364.4375 L 878.417969 395.980469 L 852.664062 378.542969 L 826.914062 395.980469 L 839.214844 364.4375 L 811 347 "/>
<path style="fill-rule:nonzero;fill:rgb(53%,27%,7%);fill-opacity:1;stroke-width:1;stroke-linecap:butt;stroke-linejoin:miter;stroke:rgb(0%,0%,0%);stroke-opacity:1;stroke-miterlimit:10;" d="M 247 431 L 276.664062 431 L 288.664062 402.785156 L 300.664062 431 L 330.332031 431 L 306.332031 448.4375 L 314.417969 479.980469 L 288.664062 462.542969 L 262.914062 479.980469 L 275.214844 448.4375 L 247 431 "/>
<path style="fill-rule:nonzero;fill:rgb(55%,51%,53%);fill-opacity:1;stroke-width:1;stroke-linecap:butt;stroke-linejoin:miter;stroke:rgb(0%,0%,0%);stroke-opacity:1;stroke-miterlimit:10;" d="M 530 290 L 559.664062 290 L 571.664062 261.785156 L 583.664062 290 L 613.332031 290 L 589.332031 307.4375 L 597.417969 338.980469 L 571.664062 321.542969 L 545.914062 338.980469 L 558.214844 307.4375 L 530 290 "/>
<path style="fill-rule:nonzero;fill:rgb(55%,51%,53%);fill-opacity:1;stroke-width:1;stroke-linecap:butt;stroke-linejoin:miter;stroke:rgb(0%,0%,0%);stroke-opacity:1;stroke-miterlimit:10;" d="M 128 355 L 157.664062 355 L 169.664062 326.785156 L 181.664062 355 L 211.332031 355 L 187.332031 372.4375 L 195.417969 403.980469 L 169.664062 386.542969 L 143.914062 403.980469 L 156.214844 372.4375 L 128 355 "/>
<path style="fill-rule:nonzero;fill:rgb(55%,51%,53%);fill-opacity:1;stroke-width:1;stroke-linecap:butt;stroke-linejoin:miter;stroke:rgb(0%,0%,0%);stroke-opacity:1;stroke-miterlimit:10;" d="M 627 276 L 656.664062 276 L 668.664062 247.785156 L 680.664062 276 L 710.332031 276 L 686.332031 293.4375 L 694.417969 324.980469 L 668.664062 307.542969 L 642.914062 324.980469 L 655.214844 293.4375 L 627 276 "/>
<path style="fill-rule:nonzero;fill:rgb(55%,51%,53%);fill-opacity:1;stroke-width:1;stroke-linecap:butt;stroke-linejoin:miter;stroke:rgb(0%,0%,0%);stroke-opacity:1;stroke-miterlimit:10;" d="M 892 265 L 921.664062 265 L 933.664062 236.785156 L 945.664062 265 L 975.332031 265 L 951.332031 282.4375 L 959.417969 313.980469 L 933.664062 296.542969 L 907.914062 313.980469 L 920.214844 282.4375 L 892 265 "/>
<path style="fill-rule:nonzero;fill:rgb(55%,51%,53%);fill-opacity:1;stroke-width:1;stroke-linecap:butt;stroke-linejoin:miter;stroke:rgb(0%,0%,0%);stroke-opacity:1;stroke-miterlimit:10;" d="M 371 170 L 400.664062 170 L 412.664062 141.785156 L 424.664062 170 L 454.332031 170 L 430.332031 187.4375 L 438.417969 218.980469 L 412.664062 201.542969 L 386.914062 218.980469 L 399.214844 187.4375 L 371 170 "/>
<path style="fill-rule:nonzero;fill:rgb(55%,51%,53%);fill-opacity:1;stroke-width:1;stroke-linecap:butt;stroke-linejoin:miter;stroke:rgb(0%,0%,0%);stroke-opacity:1;stroke-miterlimit:10;" d="M 963 182 L 992.664062 182 L 1004.664062 153.785156 L 1016.664062 182 L 1046.332031 182 L 1022.332031 199.4375 L 1030.417969 230.980469 L 1004.664062 213.542969 L 978.914062 230.980469 L 991.214844 199.4375 L 963 182 "/>
<path style="fill-rule:nonzero;fill:rgb(55%,51%,53%);fill-opacity:1;stroke-width:1;stroke-linecap:butt;stroke-linejoin:miter;stroke:rgb(0%,0%,0%);stroke-opacity:1;stroke-miterlimit:10;" d="M 312 344 L 341.664062 344 L 353.664062 315.785156 L 365.664062 344 L 395.332031 344 L 371.332031 361.4375 L 379.417969 392.980469 L 353.664062 375.542969 L 327.914062 392.980469 L 340.214844 361.4375 L 312 344 "/>
<path style="fill-rule:nonzero;fill:rgb(55%,51%,53%);fill-opacity:1;stroke-width:1;stroke-linecap:butt;stroke-linejoin:miter;stroke:rgb(0%,0%,0%);stroke-opacity:1;stroke-miterlimit:10;" d="M 626 113 L 655.664062 113 L 667.664062 84.785156 L 679.664062 113 L 709.332031 113 L 685.332031 130.4375 L 693.417969 161.980469 L 667.664062 144.542969 L 641.914062 161.980469 L 654.214844 130.4375 L 626 113 "/>
</g>
</svg>
