<?xml version="1.0" encoding="UTF-8"?>
<svg xmlns="http://www.w3.org/2000/svg" xmlns:xlink="http://www.w3.org/1999/xlink" width="1129pt" height="517pt" viewBox="0 0 1129 517" version="1.1">
<g id="surface966">
<rect x="0" y="0" width="1129" height="517" style="fill:rgb(90%,90%,90%);fill-opacity:1;stroke:none;"/>
<path style="fill-rule:nonzero;fill:rgb(100%,51%,0%);fill-opacity:1;stroke-width:1;stroke-linecap:butt;stroke-linejoin:miter;stroke:rgb(0%,0%,0%);stroke-opacity:1;stroke-miterlimit:10;" d="M 270.214844 119 C 270.214844 130.714844 260.714844 140.214844 249 140.214844 C 237.285156 140.214844 227.785156 130.714844 227.785156 119 C 227.785156 107.285156 237.285156 97.785156 249 97.785156 C 260.714844 97.785156 270.214844 107.285156 270.214844 119 "/>
<path style="fill-rule:nonzero;fill:rgb(100%,51%,0%);fill-opacity:1;stroke-width:1;stroke-linecap:butt;stroke-linejoin:miter;stroke:rgb(0%,0%,0%);stroke-opacity:1;stroke-miterlimit:10;" d="M 658.214844 431 C 658.214844 442.714844 648.714844 452.214844 637 452.214844 C 625.285156 452.214844 615.785156 442.714844 615.785156 431 C 615.785156 419.285156 625.285156 409.785156 637 409.785156 C 648.714844 409.785156 658.214844 419.285156 658.214844 431 "/>
<path style="fill-rule:nonzero;fill:rgb(100%,51%,0%);fill-opacity:1;stroke-width:1;stroke-linecap:butt;stroke-linejoin:miter;stroke:rgb(0%,0%,0%);stroke-opacity:1;stroke-miterlimit:10;" d="M 829.214844 167 C 829.214844 178.714844 819.714844 188.214844 808 188.214844 C 796.285156 188.214844 786.785156 178.714844 786.785156 167 C 786.785156 155.285156 796.285156 145.785156 808 145.785156 C 819.714844 145.785156 829.214844 155.285156 829.214844 167 "/>
<path style="fill-rule:nonzero;fill:rgb(100%,51%,0%);fill-opacity:1;stroke-width:1;stroke-linecap:butt;stroke-linejoin:miter;stroke:rgb(0%,0%,0%);stroke-opacity:1;stroke-miterlimit:10;" d="M 704.214844 70 C 704.214844 81.714844 694.714844 91.214844 683 91.214844 C 671.285156 91.214844 661.785156 81.714844 661.785156 70 C 661.785156 58.285156 671.285156 48.785156 683 48.785156 C 694.714844 48.785156 704.214844 58.285156 704.214844 70 "/>
<path style="fill-rule:nonzero;fill:rgb(100%,51%,0%);fill-opacity:1;stroke-width:1;stroke-linecap:butt;stroke-linejoin:miter;stroke:rgb(0%,0%,0%);stroke-opacity:1;stroke-miterlimit:10;" d="M 302.214844 462 C 302.214844 473.714844 292.714844 483.214844 281 483.214844 C 269.285156 483.214844 259.785156 473.714844 259.785156 462 C 259.785156 450.285156 269.285156 440.785156 281 440.785156 C 292.714844 440.785156 302.214844 450.285156 302.214844 462 "/>
<path style="fill-rule:nonzero;fill:rgb(35%,70%,90%);fill-opacity:1;stroke-width:1;stroke-linecap:butt;stroke-linejoin:miter;stroke:rgb(0%,0%,0%);stroke-opacity:1;stroke-miterlimit:10;" d="M 586 55 L 615.664062 55 L 627.664062 26.785156 L 639.664062 55 L 669.332031 55 L 645.332031 72.4375 L 653.417969 103.980469 L 627.664062 86.542969 L 601.914062 103.980469 L 614.214844 72.4375 L 586 55 "/>
<path style="fill-rule:nonzero;fill:rgb(35%,70%,90%);fill-opacity:1;stroke-width:1;stroke-linecap:butt;stroke-linejoin:miter;stroke:rgb(0%,0%,0%);stroke-opacity:1;stroke-miterlimit:10;" d="M 71 160 L 100.664062 160 L 112.664062 131.785156 L 124.664062 160 L 154.332031 160 L 130.332031 177.4375 L 138.417969 208.980469 L 112.664062 191.542969 L 86.914062 208.980469 L 99.214844 177.4375 L 71 160 "/>
<path style="fill-rule:nonzero;fill:rgb(35%,70%,90%);fill-opacity:1;stroke-width:1;stroke-linecap:butt;stroke-linejoin:miter;stroke:rgb(0%,0%,0%);stroke-opacity:1;stroke-miterlimit:10;" d="M 956 145 L 985.664062 145 L 997.664062 116.785156 L 1009.664062 145 L 1039.332031 145 L 1015.332031 162.4375 L 1023.417969 193.980469 L 997.664062 176.542969 L 971.914062 193.980469 L 984.214844 162.4375 L 956 145 "/>
<path style="fill-rule:nonzero;fill:rgb(35%,70%,90%);fill-opacity:1;stroke-width:1;stroke-linecap:butt;stroke-linejoin:miter;stroke:rgb(0%,0%,0%);stroke-opacity:1;stroke-miterlimit:10;" d="M 367 221 L 396.664062 221 L 408.664062 192.785156 L 420.664062 221 L 450.332031 221 L 426.332031 238.4375 L 434.417969 269.980469 L 408.664062 252.542969 L 382.914062 269.980469 L 395.214844 238.4375 L 367 221 "/>
<path style="fill-rule:nonzero;fill:rgb(35%,70%,90%);fill-opacity:1;stroke-width:1;stroke-linecap:butt;stroke-linejoin:miter;stroke:rgb(0%,0%,0%);stroke-opacity:1;stroke-miterlimit:10;" d="M 454 108 L 483.664062 108 L 495.664062 79.785156 L 507.664062 108 L 537.332031 108 L 513.332031 125.4375 L 521.417969 156.980469 L 495.664062 139.542969 L 469.914062 156.980469 L 482.214844 125.4375 L 454 108 "/>
<path style="fill-rule:nonzero;fill:rgb(35%,70%,90%);fill-opacity:1;stroke-width:1;stroke-linecap:butt;stroke-linejoin:miter;stroke:rgb(0%,0%,0%);stroke-opacity:1;stroke-miterlimit:10;" d="M 770 317 L 799.664062 317 L 811.664062 288.785156 L 823.664062 317 L 853.332031 317 L 829.332031 334.4375 L 837.417969 365.980469 L 811.664062 348.542969 L 785.914062 365.980469 L 798.214844 334.4375 L 770 317 "/>
<path style="fill-rule:nonzero;fill:rgb(35%,70%,90%);fill-opacity:1;stroke-width:1;stroke-linecap:butt;stroke-linejoin:miter;stroke:rgb(0%,0%,0%);stroke-opacity:1;stroke-miterlimit:10;" d="M 625 229 L 654.664062 229 L 666.664062 200.785156 L 678.664062 229 L 708.332031 229 L 684.332031 246.4375 L 692.417969 277.980469 L 666.664062 260.542969 L 640.914062 277.980469 L 653.214844 246.4375 L 625 229 "/>
<path style="fill-rule:nonzero;fill:rgb(35%,70%,90%);fill-opacity:1;stroke-width:1;stroke-linecap:butt;stroke-linejoin:miter;stroke:rgb(0%,0%,0%);stroke-opacity:1;stroke-miterlimit:10;" d="M 860 290 L 889.664062 290 L 901.664062 261.785156 L 913.664062 290 L 943.332031 290 L 919.332031 307.4375 L 927.417969 338.980469 L 901.664062 321.542969 L 875.914062 338.980469 L 888.214844 307.4375 L 860 290 "/>
</g>
</svg>
