<?xml version="1.0" encoding="UTF-8"?>
<svg xmlns="http://www.w3.org/2000/svg" xmlns:xlink="http://www.w3.org/1999/xlink" width="1129pt" height="517pt" viewBox="0 0 1129 517" version="1.1">
<g id="surface896">
<rect x="0" y="0" width="1129" height="517" style="fill:rgb(90%,90%,90%);fill-opacity:1;stroke:none;"/>
<path style="fill-rule:nonzero;fill:rgb(53%,27%,7%);fill-opacity:1;stroke-width:1;stroke-linecap:butt;stroke-linejoin:miter;stroke:rgb(0%,0%,0%);stroke-opacity:1;stroke-miterlimit:10;" d="M 295 370.601562 C 295 356.199219 271 356.199219 271 370.601562 C 271 385 295 387.398438 295 399.398438 C 295 387.398438 319 385 319 370.601562 C 319 356.199219 295 356.199219 295 370.601562 "/>
<path style="fill-rule:nonzero;fill:rgb(53%,27%,7%);fill-opacity:1;stroke-width:1;stroke-linecap:butt;stroke-linejoin:miter;stroke:rgb(0%,0%,0%);stroke-opacity:1;stroke-miterlimit:10;" d="M 165 149.601562 C 165 135.199219 141 135.199219 141 149.601562 C 141 164 165 166.398438 165 178.398438 C 165 166.398438 189 164 189 149.601562 C 189 135.199219 165 135.199219 165 149.601562 "/>
<path style="fill-rule:nonzero;fill:rgb(53%,27%,7%);fill-opacity:1;stroke-width:1;stroke-linecap:butt;stroke-linejoin:miter;stroke:rgb(0%,0%,0%);stroke-opacity:1;stroke-miterlimit:10;" d="M 282.214844 210 C 282.214844 221.714844 272.714844 231.214844 261 231.214844 C 249.285156 231.214844 239.785156 221.714844 239.785156 210 C 239.785156 198.285156 249.285156 188.785156 261 188.785156 C 272.714844 188.785156 282.214844 198.285156 282.214844 210 "/>
<path style="fill-rule:nonzero;fill:rgb(53%,27%,7%);fill-opacity:1;stroke-width:1;stroke-linecap:butt;stroke-linejoin:miter;stroke:rgb(0%,0%,0%);stroke-opacity:1;stroke-miterlimit:10;" d="M 351.214844 113 C 351.214844 124.714844 341.714844 134.214844 330 134.214844 C 318.285156 134.214844 308.785156 124.714844 308.785156 113 C 308.785156 101.285156 318.285156 91.785156 330 91.785156 C 341.714844 91.785156 351.214844 101.285156 351.214844 113 "/>
<path style="fill-rule:nonzero;fill:rgb(53%,27%,7%);fill-opacity:1;stroke-width:1;stroke-linecap:butt;stroke-linejoin:miter;stroke:rgb(0%,0%,0%);stroke-opacity:1;stroke-miterlimit:10;" d="M 442 238.601562 C 442 224.199219 418 224.199219 418 238.601562 C 418 253 442 255.398438 442 267.398438 C 442 255.398438 466 253 466 238.601562 C 466 224.199219 442 224.199219 442 238.601562 "/>
<path style="fill-rule:nonzero;fill:rgb(53%,27%,7%);fill-opacity:1;stroke-width:1;stroke-linecap:butt;stroke-linejoin:miter;stroke:rgb(0%,0%,0%);stroke-opacity:1;stroke-miterlimit:10;" d="M 115 230.601562 C 115 216.199219 91 216.199219 91 230.601562 C 91 245 115 247.398438 115 259.398438 C 115 247.398438 139 245 139 230.601562 C 139 216.199219 115 216.199219 115 230.601562 "/>
<path style="fill-rule:nonzero;fill:rgb(53%,27%,7%);fill-opacity:1;stroke-width:1;stroke-linecap:butt;stroke-linejoin:miter;stroke:rgb(0%,0%,0%);stroke-opacity:1;stroke-miterlimit:10;" d="M 238 85.601562 C 238 71.199219 214 71.199219 214 85.601562 C 214 100 238 102.398438 238 114.398438 C 238 102.398438 262 100 262 85.601562 C 262 71.199219 238 71.199219 238 85.601562 "/>
<path style="fill-rule:nonzero;fill:rgb(53%,27%,7%);fill-opacity:1;stroke-width:1;stroke-linecap:butt;stroke-linejoin:miter;stroke:rgb(0%,0%,0%);stroke-opacity:1;stroke-miterlimit:10;" d="M 72 337.601562 C 72 323.199219 48 323.199219 48 337.601562 C 48 352 72 354.398438 72 366.398438 C 72 354.398438 96 352 96 337.601562 C 96 323.199219 72 323.199219 72 337.601562 "/>
<path style="fill-rule:nonzero;fill:rgb(100%,51%,0%);fill-opacity:1;stroke-width:1;stroke-linecap:butt;stroke-linejoin:miter;stroke:rgb(0%,0%,0%);stroke-opacity:1;stroke-miterlimit:10;" d="M 654.214844 344 C 654.214844 355.714844 644.714844 365.214844 633 365.214844 C 621.285156 365.214844 611.785156 355.714844 611.785156 344 C 611.785156 332.285156 621.285156 322.785156 633 322.785156 C 644.714844 322.785156 654.214844 332.285156 654.214844 344 "/>
<path style="fill-rule:nonzero;fill:rgb(100%,51%,0%);fill-opacity:1;stroke-width:1;stroke-linecap:butt;stroke-linejoin:miter;stroke:rgb(0%,0%,0%);stroke-opacity:1;stroke-miterlimit:10;" d="M 914.214844 339 C 914.214844 350.714844 904.714844 360.214844 893 360.214844 C 881.285156 360.214844 871.785156 350.714844 871.785156 339 C 871.785156 327.285156 881.285156 317.785156 893 317.785156 C 904.714844 317.785156 914.214844 327.285156 914.214844 339 "/>
<path style="fill-rule:nonzero;fill:rgb(100%,51%,0%);fill-opacity:1;stroke-width:1;stroke-linecap:butt;stroke-linejoin:miter;stroke:rgb(0%,0%,0%);stroke-opacity:1;stroke-miterlimit:10;" d="M 739 105.601562 C 739 91.199219 715 91.199219 715 105.601562 C 715 120 739 122.398438 739 134.398438 C 739 122.398438 763 120 763 105.601562 C 763 91.199219 739 91.199219 739 105.601562 "/>
<path style="fill-rule:nonzero;fill:rgb(100%,51%,0%);fill-opacity:1;stroke-width:1;stroke-linecap:butt;stroke-linejoin:miter;stroke:rgb(0%,0%,0%);stroke-opacity:1;stroke-miterlimit:10;" d="M 624 82.601562 C 624 68.199219 600 68.199219 600 82.601562 C 600 97 624 99.398438 624 111.398438 C 624 99.398438 648 97 648 82.601562 C 648 68.199219 624 68.199219 624 82.601562 "/>
<path style="fill-rule:nonzero;fill:rgb(100%,51%,0%);fill-opacity:1;stroke-width:1;stroke-linecap:butt;stroke-linejoin:miter;stroke:rgb(0%,0%,0%);stroke-opacity:1;stroke-miterlimit:10;" d="M 958.214844 230 C 958.214844 241.714844 948.714844 251.214844 937 251.214844 C 925.285156 251.214844 915.785156 241.714844 915.785156 230 C 915.785156 218.285156 925.285156 208.785156 937 208.785156 C 948.714844 208.785156 958.214844 218.285156 958.214844 230 "/>
<path style="fill-rule:nonzero;fill:rgb(100%,51%,0%);fill-opacity:1;stroke-width:1;stroke-linecap:butt;stroke-linejoin:miter;stroke:rgb(0%,0%,0%);stroke-opacity:1;stroke-miterlimit:10;" d="M 694.214844 225 C 694.214844 236.714844 684.714844 246.214844 673 246.214844 C 661.285156 246.214844 651.785156 236.714844 651.785156 225 C 651.785156 213.285156 661.285156 203.785156 673 203.785156 C 684.714844 203.785156 694.214844 213.285156 694.214844 225 "/>
<path style="fill-rule:nonzero;fill:rgb(100%,51%,0%);fill-opacity:1;stroke-width:1;stroke-linecap:butt;stroke-linejoin:miter;stroke:rgb(0%,0%,0%);stroke-opacity:1;stroke-miterlimit:10;" d="M 1033.214844 309 C 1033.214844 320.714844 1023.714844 330.214844 1012 330.214844 C 1000.285156 330.214844 990.785156 320.714844 990.785156 309 C 990.785156 297.285156 1000.285156 287.785156 1012 287.785156 C 1023.714844 287.785156 1033.214844 297.285156 1033.214844 309 "/>
<path style="fill-rule:nonzero;fill:rgb(100%,51%,0%);fill-opacity:1;stroke-width:1;stroke-linecap:butt;stroke-linejoin:miter;stroke:rgb(0%,0%,0%);stroke-opacity:1;stroke-miterlimit:10;" d="M 785.214844 223 C 785.214844 234.714844 775.714844 244.214844 764 244.214844 C 752.285156 244.214844 742.785156 234.714844 742.785156 223 C 742.785156 211.285156 752.285156 201.785156 764 201.785156 C 775.714844 201.785156 785.214844 211.285156 785.214844 223 "/>
</g>
</svg>
