<?xml version="1.0" encoding="UTF-8"?>
<svg xmlns="http://www.w3.org/2000/svg" xmlns:xlink="http://www.w3.org/1999/xlink" width="1129pt" height="517pt" viewBox="0 0 1129 517" version="1.1">
<g id="surface801">
<rect x="0" y="0" width="1129" height="517" style="fill:rgb(90%,90%,90%);fill-opacity:1;stroke:none;"/>
<path style="fill-rule:nonzero;fill:rgb(100%,0%,0%);fill-opacity:1;stroke-width:1;stroke-linecap:butt;stroke-linejoin:miter;stroke:rgb(0%,0%,0%);stroke-opacity:1;stroke-miterlimit:10;" d="M 844 306.601562 C 844 292.199219 820 292.199219 820 306.601562 C 820 321 844 323.398438 844 335.398438 C 844 323.398438 868 321 868 306.601562 C 868 292.199219 844 292.199219 844 306.601562 "/>
<path style="fill-rule:nonzero;fill:rgb(100%,0%,0%);fill-opacity:1;stroke-width:1;stroke-linecap:butt;stroke-linejoin:miter;stroke:rgb(0%,0%,0%);stroke-opacity:1;stroke-miterlimit:10;" d="M 552 368.601562 C 552 354.199219 528 354.199219 528 368.601562 C 528 383 552 385.398438 552 397.398438 C 552 385.398438 576 383 576 368.601562 C 576 354.199219 552 354.199219 552 368.601562 "/>
<path style="fill-rule:nonzero;fill:rgb(100%,0%,0%);fill-opacity:1;stroke-width:1;stroke-linecap:butt;stroke-linejoin:miter;stroke:rgb(0%,0%,0%);stroke-opacity:1;stroke-miterlimit:10;" d="M 776 197.601562 C 776 183.199219 752 183.199219 752 197.601562 C 752 212 776 214.398438 776 226.398438 C 776 214.398438 800 212 800 197.601562 C 800 183.199219 776 183.199219 776 197.601562 "/>
<path style="fill-rule:nonzero;fill:rgb(100%,0%,0%);fill-opacity:1;stroke-width:1;stroke-linecap:butt;stroke-linejoin:miter;stroke:rgb(0%,0%,0%);stroke-opacity:1;stroke-miterlimit:10;" d="M 258 71.601562 C 258 57.199219 234 57.199219 234 71.601562 C 234 86 258 88.398438 258 100.398438 C 258 88.398438 282 86 282 71.601562 C 282 57.199219 258 57.199219 258 71.601562 "/>
<path style="fill-rule:nonzero;fill:rgb(100%,0%,0%);fill-opacity:1;stroke-width:1;stroke-linecap:butt;stroke-linejoin:miter;stroke:rgb(0%,0%,0%);stroke-opacity:1;stroke-miterlimit:10;" d="M 408 155.601562 C 408 141.199219 384 141.199219 384 155.601562 C 384 170 408 172.398438 408 184.398438 C 408 172.398438 432 170 432 155.601562 C 432 141.199219 408 141.199219 408 155.601562 "/>
<path style="fill-rule:nonzero;fill:rgb(0%,0%,0%);fill-opacity:1;stroke-width:1;stroke-linecap:butt;stroke-linejoin:miter;stroke:rgb(0%,0%,0%);stroke-opacity:1;stroke-miterlimit:10;" d="M 868 200 L 848 200 L 848 210 L 868 210 L 868 230 L 878 230 L 878 210 L 898 210 L 898 200 L 878 200 L 878 180 L 868 180 L 868 200 "/>
<path style="fill-rule:nonzero;fill:rgb(0%,0%,0%);fill-opacity:1;stroke-width:1;stroke-linecap:butt;stroke-linejoin:miter;stroke:rgb(0%,0%,0%);stroke-opacity:1;stroke-miterlimit:10;" d="M 483 292 L 463 292 L 463 302 L 483 302 L 483 322 L 493 322 L 493 302 L 513 302 L 513 292 L 493 292 L 493 272 L 483 272 L 483 292 "/>
<path style="fill-rule:nonzero;fill:rgb(0%,0%,0%);fill-opacity:1;stroke-width:1;stroke-linecap:butt;stroke-linejoin:miter;stroke:rgb(0%,0%,0%);stroke-opacity:1;stroke-miterlimit:10;" d="M 671 365 L 651 365 L 651 375 L 671 375 L 671 395 L 681 395 L 681 375 L 701 375 L 701 365 L 681 365 L 681 345 L 671 345 L 671 365 "/>
<path style="fill-rule:nonzero;fill:rgb(0%,0%,0%);fill-opacity:1;stroke-width:1;stroke-linecap:butt;stroke-linejoin:miter;stroke:rgb(0%,0%,0%);stroke-opacity:1;stroke-miterlimit:10;" d="M 969 353 L 949 353 L 949 363 L 969 363 L 969 383 L 979 383 L 979 363 L 999 363 L 999 353 L 979 353 L 979 333 L 969 333 L 969 353 "/>
<path style="fill-rule:nonzero;fill:rgb(0%,0%,0%);fill-opacity:1;stroke-width:1;stroke-linecap:butt;stroke-linejoin:miter;stroke:rgb(0%,0%,0%);stroke-opacity:1;stroke-miterlimit:10;" d="M 474 75 L 454 75 L 454 85 L 474 85 L 474 105 L 484 105 L 484 85 L 504 85 L 504 75 L 484 75 L 484 55 L 474 55 L 474 75 "/>
<path style="fill-rule:nonzero;fill:rgb(0%,0%,0%);fill-opacity:1;stroke-width:1;stroke-linecap:butt;stroke-linejoin:miter;stroke:rgb(0%,0%,0%);stroke-opacity:1;stroke-miterlimit:10;" d="M 118 182 L 98 182 L 98 192 L 118 192 L 118 212 L 128 212 L 128 192 L 148 192 L 148 182 L 128 182 L 128 162 L 118 162 L 118 182 "/>
</g>
</svg>
