<?xml version="1.0" encoding="UTF-8"?>
<svg xmlns="http://www.w3.org/2000/svg" xmlns:xlink="http://www.w3.org/1999/xlink" width="1129pt" height="517pt" viewBox="0 0 1129 517" version="1.1">
<g id="surface471">
<rect x="0" y="0" width="1129" height="517" style="fill:rgb(90%,90%,90%);fill-opacity:1;stroke:none;"/>
<path style="fill-rule:nonzero;fill:rgb(100%,51%,0%);fill-opacity:1;stroke-width:1;stroke-linecap:butt;stroke-linejoin:miter;stroke:rgb(0%,0%,0%);stroke-opacity:1;stroke-miterlimit:10;" d="M 404.214844 51 C 404.214844 62.714844 394.714844 72.214844 383 72.214844 C 371.285156 72.214844 361.785156 62.714844 361.785156 51 C 361.785156 39.285156 371.285156 29.785156 383 29.785156 C 394.714844 29.785156 404.214844 39.285156 404.214844 51 "/>
<path style="fill-rule:nonzero;fill:rgb(100%,51%,0%);fill-opacity:1;stroke-width:1;stroke-linecap:butt;stroke-linejoin:miter;stroke:rgb(0%,0%,0%);stroke-opacity:1;stroke-miterlimit:10;" d="M 167.214844 198 C 167.214844 209.714844 157.714844 219.214844 146 219.214844 C 134.285156 219.214844 124.785156 209.714844 124.785156 198 C 124.785156 186.285156 134.285156 176.785156 146 176.785156 C 157.714844 176.785156 167.214844 186.285156 167.214844 198 "/>
<path style="fill-rule:nonzero;fill:rgb(53%,27%,7%);fill-opacity:1;stroke-width:1;stroke-linecap:butt;stroke-linejoin:miter;stroke:rgb(0%,0%,0%);stroke-opacity:1;stroke-miterlimit:10;" d="M 417.214844 226 C 417.214844 237.714844 407.714844 247.214844 396 247.214844 C 384.285156 247.214844 374.785156 237.714844 374.785156 226 C 374.785156 214.285156 384.285156 204.785156 396 204.785156 C 407.714844 204.785156 417.214844 214.285156 417.214844 226 "/>
<path style="fill-rule:nonzero;fill:rgb(53%,27%,7%);fill-opacity:1;stroke-width:1;stroke-linecap:butt;stroke-linejoin:miter;stroke:rgb(0%,0%,0%);stroke-opacity:1;stroke-miterlimit:10;" d="M 316.214844 137 C 316.214844 148.714844 306.714844 158.214844 295 158.214844 C 283.285156 158.214844 273.785156 148.714844 273.785156 137 C 273.785156 125.285156 283.285156 115.785156 295 115.785156 C 306.714844 115.785156 316.214844 125.285156 316.214844 137 "/>
<path style="fill-rule:nonzero;fill:rgb(100%,51%,0%);fill-opacity:1;stroke-width:1;stroke-linecap:butt;stroke-linejoin:miter;stroke:rgb(0%,0%,0%);stroke-opacity:1;stroke-miterlimit:10;" d="M 71.214844 449 C 71.214844 460.714844 61.714844 470.214844 50 470.214844 C 38.285156 470.214844 28.785156 460.714844 28.785156 449 C 28.785156 437.285156 38.285156 427.785156 50 427.785156 C 61.714844 427.785156 71.214844 437.285156 71.214844 449 "/>
<path style="fill-rule:nonzero;fill:rgb(53%,27%,7%);fill-opacity:1;stroke-width:1;stroke-linecap:butt;stroke-linejoin:miter;stroke:rgb(0%,0%,0%);stroke-opacity:1;stroke-miterlimit:10;" d="M 929.785156 281.785156 L 929.785156 324.214844 L 972.214844 324.214844 L 972.214844 281.785156 L 929.785156 281.785156 "/>
<path style="fill-rule:nonzero;fill:rgb(53%,27%,7%);fill-opacity:1;stroke-width:1;stroke-linecap:butt;stroke-linejoin:miter;stroke:rgb(0%,0%,0%);stroke-opacity:1;stroke-miterlimit:10;" d="M 998.785156 160.785156 L 998.785156 203.214844 L 1041.214844 203.214844 L 1041.214844 160.785156 L 998.785156 160.785156 "/>
<path style="fill-rule:nonzero;fill:rgb(100%,51%,0%);fill-opacity:1;stroke-width:1;stroke-linecap:butt;stroke-linejoin:miter;stroke:rgb(0%,0%,0%);stroke-opacity:1;stroke-miterlimit:10;" d="M 729.785156 131.785156 L 729.785156 174.214844 L 772.214844 174.214844 L 772.214844 131.785156 L 729.785156 131.785156 "/>
<path style="fill-rule:nonzero;fill:rgb(100%,51%,0%);fill-opacity:1;stroke-width:1;stroke-linecap:butt;stroke-linejoin:miter;stroke:rgb(0%,0%,0%);stroke-opacity:1;stroke-miterlimit:10;" d="M 933.785156 91.785156 L 933.785156 134.214844 L 976.214844 134.214844 L 976.214844 91.785156 L 933.785156 91.785156 "/>
</g>
</svg>
