<?xml version="1.0" encoding="UTF-8"?>
<svg xmlns="http://www.w3.org/2000/svg" xmlns:xlink="http://www.w3.org/1999/xlink" width="1129pt" height="517pt" viewBox="0 0 1129 517" version="1.1">
<g id="surface46">
<rect x="0" y="0" width="1129" height="517" style="fill:rgb(90%,90%,90%);fill-opacity:1;stroke:none;"/>
<path style="fill-rule:nonzero;fill:rgb(35%,70%,90%);fill-opacity:1;stroke-width:1;stroke-linecap:butt;stroke-linejoin:miter;stroke:rgb(0%,0%,0%);stroke-opacity:1;stroke-miterlimit:10;" d="M 268.214844 355 C 268.214844 366.714844 258.714844 376.214844 247 376.214844 C 235.285156 376.214844 225.785156 366.714844 225.785156 355 C 225.785156 343.285156 235.285156 333.785156 247 333.785156 C 258.714844 333.785156 268.214844 343.285156 268.214844 355 "/>
<path style="fill-rule:nonzero;fill:rgb(35%,70%,90%);fill-opacity:1;stroke-width:1;stroke-linecap:butt;stroke-linejoin:miter;stroke:rgb(0%,0%,0%);stroke-opacity:1;stroke-miterlimit:10;" d="M 338 293 L 312.019531 338 L 363.980469 338 L 338 293 "/>
<path style="fill-rule:nonzero;fill:rgb(35%,70%,90%);fill-opacity:1;stroke-width:1;stroke-linecap:butt;stroke-linejoin:miter;stroke:rgb(0%,0%,0%);stroke-opacity:1;stroke-miterlimit:10;" d="M 82.214844 461 C 82.214844 472.714844 72.714844 482.214844 61 482.214844 C 49.285156 482.214844 39.785156 472.714844 39.785156 461 C 39.785156 449.285156 49.285156 439.785156 61 439.785156 C 72.714844 439.785156 82.214844 449.285156 82.214844 461 "/>
<path style="fill-rule:nonzero;fill:rgb(35%,70%,90%);fill-opacity:1;stroke-width:1;stroke-linecap:butt;stroke-linejoin:miter;stroke:rgb(0%,0%,0%);stroke-opacity:1;stroke-miterlimit:10;" d="M 161 378 L 135.019531 423 L 186.980469 423 L 161 378 "/>
<path style="fill-rule:nonzero;fill:rgb(35%,70%,90%);fill-opacity:1;stroke-width:1;stroke-linecap:butt;stroke-linejoin:miter;stroke:rgb(0%,0%,0%);stroke-opacity:1;stroke-miterlimit:10;" d="M 313.214844 93 C 313.214844 104.714844 303.714844 114.214844 292 114.214844 C 280.285156 114.214844 270.785156 104.714844 270.785156 93 C 270.785156 81.285156 280.285156 71.785156 292 71.785156 C 303.714844 71.785156 313.214844 81.285156 313.214844 93 "/>
<path style="fill-rule:nonzero;fill:rgb(35%,70%,90%);fill-opacity:1;stroke-width:1;stroke-linecap:butt;stroke-linejoin:miter;stroke:rgb(0%,0%,0%);stroke-opacity:1;stroke-miterlimit:10;" d="M 453.214844 86 C 453.214844 97.714844 443.714844 107.214844 432 107.214844 C 420.285156 107.214844 410.785156 97.714844 410.785156 86 C 410.785156 74.285156 420.285156 64.785156 432 64.785156 C 443.714844 64.785156 453.214844 74.285156 453.214844 86 "/>
<path style="fill-rule:nonzero;fill:rgb(35%,70%,90%);fill-opacity:1;stroke-width:1;stroke-linecap:butt;stroke-linejoin:miter;stroke:rgb(0%,0%,0%);stroke-opacity:1;stroke-miterlimit:10;" d="M 85.214844 102 C 85.214844 113.714844 75.714844 123.214844 64 123.214844 C 52.285156 123.214844 42.785156 113.714844 42.785156 102 C 42.785156 90.285156 52.285156 80.785156 64 80.785156 C 75.714844 80.785156 85.214844 90.285156 85.214844 102 "/>
<path style="fill-rule:nonzero;fill:rgb(35%,70%,90%);fill-opacity:1;stroke-width:1;stroke-linecap:butt;stroke-linejoin:miter;stroke:rgb(0%,0%,0%);stroke-opacity:1;stroke-miterlimit:10;" d="M 184.214844 103 C 184.214844 114.714844 174.714844 124.214844 163 124.214844 C 151.285156 124.214844 141.785156 114.714844 141.785156 103 C 141.785156 91.285156 151.285156 81.785156 163 81.785156 C 174.714844 81.785156 184.214844 91.285156 184.214844 103 "/>
<path style="fill-rule:nonzero;fill:rgb(53%,27%,7%);fill-opacity:1;stroke-width:1;stroke-linecap:butt;stroke-linejoin:miter;stroke:rgb(0%,0%,0%);stroke-opacity:1;stroke-miterlimit:10;" d="M 847 252 L 821.019531 297 L 872.980469 297 L 847 252 "/>
<path style="fill-rule:nonzero;fill:rgb(53%,27%,7%);fill-opacity:1;stroke-width:1;stroke-linecap:butt;stroke-linejoin:miter;stroke:rgb(0%,0%,0%);stroke-opacity:1;stroke-miterlimit:10;" d="M 794.214844 355 C 794.214844 366.714844 784.714844 376.214844 773 376.214844 C 761.285156 376.214844 751.785156 366.714844 751.785156 355 C 751.785156 343.285156 761.285156 333.785156 773 333.785156 C 784.714844 333.785156 794.214844 343.285156 794.214844 355 "/>
<path style="fill-rule:nonzero;fill:rgb(53%,27%,7%);fill-opacity:1;stroke-width:1;stroke-linecap:butt;stroke-linejoin:miter;stroke:rgb(0%,0%,0%);stroke-opacity:1;stroke-miterlimit:10;" d="M 614 347 L 588.019531 392 L 639.980469 392 L 614 347 "/>
<path style="fill-rule:nonzero;fill:rgb(53%,27%,7%);fill-opacity:1;stroke-width:1;stroke-linecap:butt;stroke-linejoin:miter;stroke:rgb(0%,0%,0%);stroke-opacity:1;stroke-miterlimit:10;" d="M 675.214844 278 C 675.214844 289.714844 665.714844 299.214844 654 299.214844 C 642.285156 299.214844 632.785156 289.714844 632.785156 278 C 632.785156 266.285156 642.285156 256.785156 654 256.785156 C 665.714844 256.785156 675.214844 266.285156 675.214844 278 "/>
<path style="fill-rule:nonzero;fill:rgb(53%,27%,7%);fill-opacity:1;stroke-width:1;stroke-linecap:butt;stroke-linejoin:miter;stroke:rgb(0%,0%,0%);stroke-opacity:1;stroke-miterlimit:10;" d="M 808 426 L 782.019531 471 L 833.980469 471 L 808 426 "/>
<path style="fill-rule:nonzero;fill:rgb(53%,27%,7%);fill-opacity:1;stroke-width:1;stroke-linecap:butt;stroke-linejoin:miter;stroke:rgb(0%,0%,0%);stroke-opacity:1;stroke-miterlimit:10;" d="M 1001 32 L 975.019531 77 L 1026.980469 77 L 1001 32 "/>
<path style="fill-rule:nonzero;fill:rgb(53%,27%,7%);fill-opacity:1;stroke-width:1;stroke-linecap:butt;stroke-linejoin:miter;stroke:rgb(0%,0%,0%);stroke-opacity:1;stroke-miterlimit:10;" d="M 669 426 L 643.019531 471 L 694.980469 471 L 669 426 "/>
</g>
</svg>
