<?xml version="1.0" encoding="UTF-8"?>
<svg xmlns="http://www.w3.org/2000/svg" xmlns:xlink="http://www.w3.org/1999/xlink" width="1129pt" height="517pt" viewBox="0 0 1129 517" version="1.1">
<g id="surface431">
<rect x="0" y="0" width="1129" height="517" style="fill:rgb(90%,90%,90%);fill-opacity:1;stroke:none;"/>
<path style="fill-rule:nonzero;fill:rgb(35%,70%,90%);fill-opacity:1;stroke-width:1;stroke-linecap:butt;stroke-linejoin:miter;stroke:rgb(0%,0%,0%);stroke-opacity:1;stroke-miterlimit:10;" d="M 167 53 L 196.664062 53 L 208.664062 24.785156 L 220.664062 53 L 250.332031 53 L 226.332031 70.4375 L 234.417969 101.980469 L 208.664062 84.542969 L 182.914062 101.980469 L 195.214844 70.4375 L 167 53 "/>
<path style="fill-rule:nonzero;fill:rgb(35%,70%,90%);fill-opacity:1;stroke-width:1;stroke-linecap:butt;stroke-linejoin:miter;stroke:rgb(0%,0%,0%);stroke-opacity:1;stroke-miterlimit:10;" d="M 254 266 L 283.664062 266 L 295.664062 237.785156 L 307.664062 266 L 337.332031 266 L 313.332031 283.4375 L 321.417969 314.980469 L 295.664062 297.542969 L 269.914062 314.980469 L 282.214844 283.4375 L 254 266 "/>
<path style="fill-rule:nonzero;fill:rgb(35%,70%,90%);fill-opacity:1;stroke-width:1;stroke-linecap:butt;stroke-linejoin:miter;stroke:rgb(0%,0%,0%);stroke-opacity:1;stroke-miterlimit:10;" d="M 406.785156 212.785156 L 406.785156 255.214844 L 449.214844 255.214844 L 449.214844 212.785156 L 406.785156 212.785156 "/>
<path style="fill-rule:nonzero;fill:rgb(35%,70%,90%);fill-opacity:1;stroke-width:1;stroke-linecap:butt;stroke-linejoin:miter;stroke:rgb(0%,0%,0%);stroke-opacity:1;stroke-miterlimit:10;" d="M 411.785156 34.785156 L 411.785156 77.214844 L 454.214844 77.214844 L 454.214844 34.785156 L 411.785156 34.785156 "/>
<path style="fill-rule:nonzero;fill:rgb(55%,51%,53%);fill-opacity:1;stroke-width:1;stroke-linecap:butt;stroke-linejoin:miter;stroke:rgb(0%,0%,0%);stroke-opacity:1;stroke-miterlimit:10;" d="M 962.785156 59.785156 L 962.785156 102.214844 L 1005.214844 102.214844 L 1005.214844 59.785156 L 962.785156 59.785156 "/>
<path style="fill-rule:nonzero;fill:rgb(55%,51%,53%);fill-opacity:1;stroke-width:1;stroke-linecap:butt;stroke-linejoin:miter;stroke:rgb(0%,0%,0%);stroke-opacity:1;stroke-miterlimit:10;" d="M 618.785156 158.785156 L 618.785156 201.214844 L 661.214844 201.214844 L 661.214844 158.785156 L 618.785156 158.785156 "/>
<path style="fill-rule:nonzero;fill:rgb(55%,51%,53%);fill-opacity:1;stroke-width:1;stroke-linecap:butt;stroke-linejoin:miter;stroke:rgb(0%,0%,0%);stroke-opacity:1;stroke-miterlimit:10;" d="M 812 359 L 841.664062 359 L 853.664062 330.785156 L 865.664062 359 L 895.332031 359 L 871.332031 376.4375 L 879.417969 407.980469 L 853.664062 390.542969 L 827.914062 407.980469 L 840.214844 376.4375 L 812 359 "/>
<path style="fill-rule:nonzero;fill:rgb(55%,51%,53%);fill-opacity:1;stroke-width:1;stroke-linecap:butt;stroke-linejoin:miter;stroke:rgb(0%,0%,0%);stroke-opacity:1;stroke-miterlimit:10;" d="M 628 289 L 657.664062 289 L 669.664062 260.785156 L 681.664062 289 L 711.332031 289 L 687.332031 306.4375 L 695.417969 337.980469 L 669.664062 320.542969 L 643.914062 337.980469 L 656.214844 306.4375 L 628 289 "/>
<path style="fill-rule:nonzero;fill:rgb(55%,51%,53%);fill-opacity:1;stroke-width:1;stroke-linecap:butt;stroke-linejoin:miter;stroke:rgb(0%,0%,0%);stroke-opacity:1;stroke-miterlimit:10;" d="M 922.785156 178.785156 L 922.785156 221.214844 L 965.214844 221.214844 L 965.214844 178.785156 L 922.785156 178.785156 "/>
<path style="fill-rule:nonzero;fill:rgb(55%,51%,53%);fill-opacity:1;stroke-width:1;stroke-linecap:butt;stroke-linejoin:miter;stroke:rgb(0%,0%,0%);stroke-opacity:1;stroke-miterlimit:10;" d="M 978.785156 431.785156 L 978.785156 474.214844 L 1021.214844 474.214844 L 1021.214844 431.785156 L 978.785156 431.785156 "/>
</g>
</svg>
