<?xml version="1.0" encoding="UTF-8"?>
<svg xmlns="http://www.w3.org/2000/svg" xmlns:xlink="http://www.w3.org/1999/xlink" width="1129pt" height="517pt" viewBox="0 0 1129 517" version="1.1">
<g id="surface96">
<rect x="0" y="0" width="1129" height="517" style="fill:rgb(90%,90%,90%);fill-opacity:1;stroke:none;"/>
<path style="fill-rule:nonzero;fill:rgb(100%,51%,0%);fill-opacity:1;stroke-width:1;stroke-linecap:butt;stroke-linejoin:miter;stroke:rgb(0%,0%,0%);stroke-opacity:1;stroke-miterlimit:10;" d="M 408 438 L 437.664062 438 L 449.664062 409.785156 L 461.664062 438 L 491.332031 438 L 467.332031 455.4375 L 475.417969 486.980469 L 449.664062 469.542969 L 423.914062 486.980469 L 436.214844 455.4375 L 408 438 "/>
<path style="fill-rule:nonzero;fill:rgb(100%,51%,0%);fill-opacity:1;stroke-width:1;stroke-linecap:butt;stroke-linejoin:miter;stroke:rgb(0%,0%,0%);stroke-opacity:1;stroke-miterlimit:10;" d="M 269 108 L 298.664062 108 L 310.664062 79.785156 L 322.664062 108 L 352.332031 108 L 328.332031 125.4375 L 336.417969 156.980469 L 310.664062 139.542969 L 284.914062 156.980469 L 297.214844 125.4375 L 269 108 "/>
<path style="fill-rule:nonzero;fill:rgb(100%,51%,0%);fill-opacity:1;stroke-width:1;stroke-linecap:butt;stroke-linejoin:miter;stroke:rgb(0%,0%,0%);stroke-opacity:1;stroke-miterlimit:10;" d="M 675 203 L 704.664062 203 L 716.664062 174.785156 L 728.664062 203 L 758.332031 203 L 734.332031 220.4375 L 742.417969 251.980469 L 716.664062 234.542969 L 690.914062 251.980469 L 703.214844 220.4375 L 675 203 "/>
<path style="fill-rule:nonzero;fill:rgb(100%,51%,0%);fill-opacity:1;stroke-width:1;stroke-linecap:butt;stroke-linejoin:miter;stroke:rgb(0%,0%,0%);stroke-opacity:1;stroke-miterlimit:10;" d="M 280 416 L 309.664062 416 L 321.664062 387.785156 L 333.664062 416 L 363.332031 416 L 339.332031 433.4375 L 347.417969 464.980469 L 321.664062 447.542969 L 295.914062 464.980469 L 308.214844 433.4375 L 280 416 "/>
<path style="fill-rule:nonzero;fill:rgb(100%,51%,0%);fill-opacity:1;stroke-width:1;stroke-linecap:butt;stroke-linejoin:miter;stroke:rgb(0%,0%,0%);stroke-opacity:1;stroke-miterlimit:10;" d="M 358 135 L 387.664062 135 L 399.664062 106.785156 L 411.664062 135 L 441.332031 135 L 417.332031 152.4375 L 425.417969 183.980469 L 399.664062 166.542969 L 373.914062 183.980469 L 386.214844 152.4375 L 358 135 "/>
<path style="fill-rule:nonzero;fill:rgb(100%,51%,0%);fill-opacity:1;stroke-width:1;stroke-linecap:butt;stroke-linejoin:miter;stroke:rgb(0%,0%,0%);stroke-opacity:1;stroke-miterlimit:10;" d="M 585 141 L 614.664062 141 L 626.664062 112.785156 L 638.664062 141 L 668.332031 141 L 644.332031 158.4375 L 652.417969 189.980469 L 626.664062 172.542969 L 600.914062 189.980469 L 613.214844 158.4375 L 585 141 "/>
<path style="fill-rule:nonzero;fill:rgb(53%,27%,7%);fill-opacity:1;stroke-width:1;stroke-linecap:butt;stroke-linejoin:miter;stroke:rgb(0%,0%,0%);stroke-opacity:1;stroke-miterlimit:10;" d="M 129 192 L 103.019531 237 L 154.980469 237 L 129 192 "/>
<path style="fill-rule:nonzero;fill:rgb(53%,27%,7%);fill-opacity:1;stroke-width:1;stroke-linecap:butt;stroke-linejoin:miter;stroke:rgb(0%,0%,0%);stroke-opacity:1;stroke-miterlimit:10;" d="M 163 371 L 137.019531 416 L 188.980469 416 L 163 371 "/>
<path style="fill-rule:nonzero;fill:rgb(53%,27%,7%);fill-opacity:1;stroke-width:1;stroke-linecap:butt;stroke-linejoin:miter;stroke:rgb(0%,0%,0%);stroke-opacity:1;stroke-miterlimit:10;" d="M 877 368 L 851.019531 413 L 902.980469 413 L 877 368 "/>
<path style="fill-rule:nonzero;fill:rgb(53%,27%,7%);fill-opacity:1;stroke-width:1;stroke-linecap:butt;stroke-linejoin:miter;stroke:rgb(0%,0%,0%);stroke-opacity:1;stroke-miterlimit:10;" d="M 941 66 L 915.019531 111 L 966.980469 111 L 941 66 "/>
<path style="fill-rule:nonzero;fill:rgb(53%,27%,7%);fill-opacity:1;stroke-width:1;stroke-linecap:butt;stroke-linejoin:miter;stroke:rgb(0%,0%,0%);stroke-opacity:1;stroke-miterlimit:10;" d="M 63 119 L 37.019531 164 L 88.980469 164 L 63 119 "/>
<path style="fill-rule:nonzero;fill:rgb(53%,27%,7%);fill-opacity:1;stroke-width:1;stroke-linecap:butt;stroke-linejoin:miter;stroke:rgb(0%,0%,0%);stroke-opacity:1;stroke-miterlimit:10;" d="M 505 282 L 479.019531 327 L 530.980469 327 L 505 282 "/>
<path style="fill-rule:nonzero;fill:rgb(53%,27%,7%);fill-opacity:1;stroke-width:1;stroke-linecap:butt;stroke-linejoin:miter;stroke:rgb(0%,0%,0%);stroke-opacity:1;stroke-miterlimit:10;" d="M 671 21 L 645.019531 66 L 696.980469 66 L 671 21 "/>
<path style="fill-rule:nonzero;fill:rgb(53%,27%,7%);fill-opacity:1;stroke-width:1;stroke-linecap:butt;stroke-linejoin:miter;stroke:rgb(0%,0%,0%);stroke-opacity:1;stroke-miterlimit:10;" d="M 722 407 L 696.019531 452 L 747.980469 452 L 722 407 "/>
</g>
</svg>
