<?xml version="1.0" encoding="UTF-8"?>
<svg xmlns="http://www.w3.org/2000/svg" xmlns:xlink="http://www.w3.org/1999/xlink" width="1129pt" height="517pt" viewBox="0 0 1129 517" version="1.1">
<g id="surface661">
<rect x="0" y="0" width="1129" height="517" style="fill:rgb(90%,90%,90%);fill-opacity:1;stroke:none;"/>
<path style="fill-rule:nonzero;fill:rgb(100%,51%,0%);fill-opacity:1;stroke-width:1;stroke-linecap:butt;stroke-linejoin:miter;stroke:rgb(0%,0%,0%);stroke-opacity:1;stroke-miterlimit:10;" d="M 847 100 L 876.664062 100 L 888.664062 71.785156 L 900.664062 100 L 930.332031 100 L 906.332031 117.4375 L 914.417969 148.980469 L 888.664062 131.542969 L 862.914062 148.980469 L 875.214844 117.4375 L 847 100 "/>
<path style="fill-rule:nonzero;fill:rgb(100%,51%,0%);fill-opacity:1;stroke-width:1;stroke-linecap:butt;stroke-linejoin:miter;stroke:rgb(0%,0%,0%);stroke-opacity:1;stroke-miterlimit:10;" d="M 615 243 L 644.664062 243 L 656.664062 214.785156 L 668.664062 243 L 698.332031 243 L 674.332031 260.4375 L 682.417969 291.980469 L 656.664062 274.542969 L 630.914062 291.980469 L 643.214844 260.4375 L 615 243 "/>
<path style="fill-rule:nonzero;fill:rgb(100%,51%,0%);fill-opacity:1;stroke-width:1;stroke-linecap:butt;stroke-linejoin:miter;stroke:rgb(0%,0%,0%);stroke-opacity:1;stroke-miterlimit:10;" d="M 453 314 L 482.664062 314 L 494.664062 285.785156 L 506.664062 314 L 536.332031 314 L 512.332031 331.4375 L 520.417969 362.980469 L 494.664062 345.542969 L 468.914062 362.980469 L 481.214844 331.4375 L 453 314 "/>
<path style="fill-rule:nonzero;fill:rgb(100%,51%,0%);fill-opacity:1;stroke-width:1;stroke-linecap:butt;stroke-linejoin:miter;stroke:rgb(0%,0%,0%);stroke-opacity:1;stroke-miterlimit:10;" d="M 196 279 L 225.664062 279 L 237.664062 250.785156 L 249.664062 279 L 279.332031 279 L 255.332031 296.4375 L 263.417969 327.980469 L 237.664062 310.542969 L 211.914062 327.980469 L 224.214844 296.4375 L 196 279 "/>
<path style="fill-rule:nonzero;fill:rgb(100%,51%,0%);fill-opacity:1;stroke-width:1;stroke-linecap:butt;stroke-linejoin:miter;stroke:rgb(0%,0%,0%);stroke-opacity:1;stroke-miterlimit:10;" d="M 270 402 L 299.664062 402 L 311.664062 373.785156 L 323.664062 402 L 353.332031 402 L 329.332031 419.4375 L 337.417969 450.980469 L 311.664062 433.542969 L 285.914062 450.980469 L 298.214844 419.4375 L 270 402 "/>
<path style="fill-rule:nonzero;fill:rgb(100%,51%,0%);fill-opacity:1;stroke-width:1;stroke-linecap:butt;stroke-linejoin:miter;stroke:rgb(0%,0%,0%);stroke-opacity:1;stroke-miterlimit:10;" d="M 499 166 L 528.664062 166 L 540.664062 137.785156 L 552.664062 166 L 582.332031 166 L 558.332031 183.4375 L 566.417969 214.980469 L 540.664062 197.542969 L 514.914062 214.980469 L 527.214844 183.4375 L 499 166 "/>
<path style="fill-rule:nonzero;fill:rgb(100%,51%,0%);fill-opacity:1;stroke-width:1;stroke-linecap:butt;stroke-linejoin:miter;stroke:rgb(0%,0%,0%);stroke-opacity:1;stroke-miterlimit:10;" d="M 950 425 L 979.664062 425 L 991.664062 396.785156 L 1003.664062 425 L 1033.332031 425 L 1009.332031 442.4375 L 1017.417969 473.980469 L 991.664062 456.542969 L 965.914062 473.980469 L 978.214844 442.4375 L 950 425 "/>
<path style="fill-rule:nonzero;fill:rgb(55%,51%,53%);fill-opacity:1;stroke-width:1;stroke-linecap:butt;stroke-linejoin:miter;stroke:rgb(0%,0%,0%);stroke-opacity:1;stroke-miterlimit:10;" d="M 927.214844 172 C 927.214844 183.714844 917.714844 193.214844 906 193.214844 C 894.285156 193.214844 884.785156 183.714844 884.785156 172 C 884.785156 160.285156 894.285156 150.785156 906 150.785156 C 917.714844 150.785156 927.214844 160.285156 927.214844 172 "/>
<path style="fill-rule:nonzero;fill:rgb(55%,51%,53%);fill-opacity:1;stroke-width:1;stroke-linecap:butt;stroke-linejoin:miter;stroke:rgb(0%,0%,0%);stroke-opacity:1;stroke-miterlimit:10;" d="M 867.214844 448 C 867.214844 459.714844 857.714844 469.214844 846 469.214844 C 834.285156 469.214844 824.785156 459.714844 824.785156 448 C 824.785156 436.285156 834.285156 426.785156 846 426.785156 C 857.714844 426.785156 867.214844 436.285156 867.214844 448 "/>
<path style="fill-rule:nonzero;fill:rgb(55%,51%,53%);fill-opacity:1;stroke-width:1;stroke-linecap:butt;stroke-linejoin:miter;stroke:rgb(0%,0%,0%);stroke-opacity:1;stroke-miterlimit:10;" d="M 665.214844 461 C 665.214844 472.714844 655.714844 482.214844 644 482.214844 C 632.285156 482.214844 622.785156 472.714844 622.785156 461 C 622.785156 449.285156 632.285156 439.785156 644 439.785156 C 655.714844 439.785156 665.214844 449.285156 665.214844 461 "/>
<path style="fill-rule:nonzero;fill:rgb(55%,51%,53%);fill-opacity:1;stroke-width:1;stroke-linecap:butt;stroke-linejoin:miter;stroke:rgb(0%,0%,0%);stroke-opacity:1;stroke-miterlimit:10;" d="M 137.214844 353 C 137.214844 364.714844 127.714844 374.214844 116 374.214844 C 104.285156 374.214844 94.785156 364.714844 94.785156 353 C 94.785156 341.285156 104.285156 331.785156 116 331.785156 C 127.714844 331.785156 137.214844 341.285156 137.214844 353 "/>
</g>
</svg>
