<?xml version="1.0" encoding="UTF-8"?>
<svg xmlns="http://www.w3.org/2000/svg" xmlns:xlink="http://www.w3.org/1999/xlink" width="1129pt" height="517pt" viewBox="0 0 1129 517" version="1.1">
<g id="surface81">
<rect x="0" y="0" width="1129" height="517" style="fill:rgb(90%,90%,90%);fill-opacity:1;stroke:none;"/>
<path style="fill-rule:nonzero;fill:rgb(35%,70%,90%);fill-opacity:1;stroke-width:1;stroke-linecap:butt;stroke-linejoin:miter;stroke:rgb(0%,0%,0%);stroke-opacity:1;stroke-miterlimit:10;" d="M 242.214844 435 C 242.214844 446.714844 232.714844 456.214844 221 456.214844 C 209.285156 456.214844 199.785156 446.714844 199.785156 435 C 199.785156 423.285156 209.285156 413.785156 221 413.785156 C 232.714844 413.785156 242.214844 423.285156 242.214844 435 "/>
<path style="fill-rule:nonzero;fill:rgb(55%,51%,53%);fill-opacity:1;stroke-width:1;stroke-linecap:butt;stroke-linejoin:miter;stroke:rgb(0%,0%,0%);stroke-opacity:1;stroke-miterlimit:10;" d="M 187.214844 170 C 187.214844 181.714844 177.714844 191.214844 166 191.214844 C 154.285156 191.214844 144.785156 181.714844 144.785156 170 C 144.785156 158.285156 154.285156 148.785156 166 148.785156 C 177.714844 148.785156 187.214844 158.285156 187.214844 170 "/>
<path style="fill-rule:nonzero;fill:rgb(55%,51%,53%);fill-opacity:1;stroke-width:1;stroke-linecap:butt;stroke-linejoin:miter;stroke:rgb(0%,0%,0%);stroke-opacity:1;stroke-miterlimit:10;" d="M 270.214844 103 C 270.214844 114.714844 260.714844 124.214844 249 124.214844 C 237.285156 124.214844 227.785156 114.714844 227.785156 103 C 227.785156 91.285156 237.285156 81.785156 249 81.785156 C 260.714844 81.785156 270.214844 91.285156 270.214844 103 "/>
<path style="fill-rule:nonzero;fill:rgb(35%,70%,90%);fill-opacity:1;stroke-width:1;stroke-linecap:butt;stroke-linejoin:miter;stroke:rgb(0%,0%,0%);stroke-opacity:1;stroke-miterlimit:10;" d="M 454.214844 208 C 454.214844 219.714844 444.714844 229.214844 433 229.214844 C 421.285156 229.214844 411.785156 219.714844 411.785156 208 C 411.785156 196.285156 421.285156 186.785156 433 186.785156 C 444.714844 186.785156 454.214844 196.285156 454.214844 208 "/>
<path style="fill-rule:nonzero;fill:rgb(55%,51%,53%);fill-opacity:1;stroke-width:1;stroke-linecap:butt;stroke-linejoin:miter;stroke:rgb(0%,0%,0%);stroke-opacity:1;stroke-miterlimit:10;" d="M 754.785156 410.785156 L 754.785156 453.214844 L 797.214844 453.214844 L 797.214844 410.785156 L 754.785156 410.785156 "/>
<path style="fill-rule:nonzero;fill:rgb(35%,70%,90%);fill-opacity:1;stroke-width:1;stroke-linecap:butt;stroke-linejoin:miter;stroke:rgb(0%,0%,0%);stroke-opacity:1;stroke-miterlimit:10;" d="M 887.785156 33.785156 L 887.785156 76.214844 L 930.214844 76.214844 L 930.214844 33.785156 L 887.785156 33.785156 "/>
<path style="fill-rule:nonzero;fill:rgb(35%,70%,90%);fill-opacity:1;stroke-width:1;stroke-linecap:butt;stroke-linejoin:miter;stroke:rgb(0%,0%,0%);stroke-opacity:1;stroke-miterlimit:10;" d="M 956.785156 281.785156 L 956.785156 324.214844 L 999.214844 324.214844 L 999.214844 281.785156 L 956.785156 281.785156 "/>
<path style="fill-rule:nonzero;fill:rgb(55%,51%,53%);fill-opacity:1;stroke-width:1;stroke-linecap:butt;stroke-linejoin:miter;stroke:rgb(0%,0%,0%);stroke-opacity:1;stroke-miterlimit:10;" d="M 777.785156 180.785156 L 777.785156 223.214844 L 820.214844 223.214844 L 820.214844 180.785156 L 777.785156 180.785156 "/>
<path style="fill-rule:nonzero;fill:rgb(55%,51%,53%);fill-opacity:1;stroke-width:1;stroke-linecap:butt;stroke-linejoin:miter;stroke:rgb(0%,0%,0%);stroke-opacity:1;stroke-miterlimit:10;" d="M 937.785156 390.785156 L 937.785156 433.214844 L 980.214844 433.214844 L 980.214844 390.785156 L 937.785156 390.785156 "/>
<path style="fill-rule:nonzero;fill:rgb(55%,51%,53%);fill-opacity:1;stroke-width:1;stroke-linecap:butt;stroke-linejoin:miter;stroke:rgb(0%,0%,0%);stroke-opacity:1;stroke-miterlimit:10;" d="M 644.785156 382.785156 L 644.785156 425.214844 L 687.214844 425.214844 L 687.214844 382.785156 L 644.785156 382.785156 "/>
<path style="fill-rule:nonzero;fill:rgb(55%,51%,53%);fill-opacity:1;stroke-width:1;stroke-linecap:butt;stroke-linejoin:miter;stroke:rgb(0%,0%,0%);stroke-opacity:1;stroke-miterlimit:10;" d="M 977.785156 49.785156 L 977.785156 92.214844 L 1020.214844 92.214844 L 1020.214844 49.785156 L 977.785156 49.785156 "/>
<path style="fill-rule:nonzero;fill:rgb(55%,51%,53%);fill-opacity:1;stroke-width:1;stroke-linecap:butt;stroke-linejoin:miter;stroke:rgb(0%,0%,0%);stroke-opacity:1;stroke-miterlimit:10;" d="M 832.785156 283.785156 L 832.785156 326.214844 L 875.214844 326.214844 L 875.214844 283.785156 L 832.785156 283.785156 "/>
</g>
</svg>
