<?xml version="1.0" encoding="UTF-8"?>
<svg xmlns="http://www.w3.org/2000/svg" xmlns:xlink="http://www.w3.org/1999/xlink" width="1129pt" height="517pt" viewBox="0 0 1129 517" version="1.1">
<g id="surface131">
<rect x="0" y="0" width="1129" height="517" style="fill:rgb(90%,90%,90%);fill-opacity:1;stroke:none;"/>
<path style="fill-rule:nonzero;fill:rgb(100%,51%,0%);fill-opacity:1;stroke-width:1;stroke-linecap:butt;stroke-linejoin:miter;stroke:rgb(0%,0%,0%);stroke-opacity:1;stroke-miterlimit:10;" d="M 379 93 L 408.664062 93 L 420.664062 64.785156 L 432.664062 93 L 462.332031 93 L 438.332031 110.4375 L 446.417969 141.980469 L 420.664062 124.542969 L 394.914062 141.980469 L 407.214844 110.4375 L 379 93 "/>
<path style="fill-rule:nonzero;fill:rgb(100%,51%,0%);fill-opacity:1;stroke-width:1;stroke-linecap:butt;stroke-linejoin:miter;stroke:rgb(0%,0%,0%);stroke-opacity:1;stroke-miterlimit:10;" d="M 136 73 L 165.664062 73 L 177.664062 44.785156 L 189.664062 73 L 219.332031 73 L 195.332031 90.4375 L 203.417969 121.980469 L 177.664062 104.542969 L 151.914062 121.980469 L 164.214844 90.4375 L 136 73 "/>
<path style="fill-rule:nonzero;fill:rgb(100%,51%,0%);fill-opacity:1;stroke-width:1;stroke-linecap:butt;stroke-linejoin:miter;stroke:rgb(0%,0%,0%);stroke-opacity:1;stroke-miterlimit:10;" d="M 300 193 L 329.664062 193 L 341.664062 164.785156 L 353.664062 193 L 383.332031 193 L 359.332031 210.4375 L 367.417969 241.980469 L 341.664062 224.542969 L 315.914062 241.980469 L 328.214844 210.4375 L 300 193 "/>
<path style="fill-rule:nonzero;fill:rgb(100%,51%,0%);fill-opacity:1;stroke-width:1;stroke-linecap:butt;stroke-linejoin:miter;stroke:rgb(0%,0%,0%);stroke-opacity:1;stroke-miterlimit:10;" d="M 370.785156 406.785156 L 370.785156 449.214844 L 413.214844 449.214844 L 413.214844 406.785156 L 370.785156 406.785156 "/>
<path style="fill-rule:nonzero;fill:rgb(100%,51%,0%);fill-opacity:1;stroke-width:1;stroke-linecap:butt;stroke-linejoin:miter;stroke:rgb(0%,0%,0%);stroke-opacity:1;stroke-miterlimit:10;" d="M 69 372 L 98.664062 372 L 110.664062 343.785156 L 122.664062 372 L 152.332031 372 L 128.332031 389.4375 L 136.417969 420.980469 L 110.664062 403.542969 L 84.914062 420.980469 L 97.214844 389.4375 L 69 372 "/>
<path style="fill-rule:nonzero;fill:rgb(55%,51%,53%);fill-opacity:1;stroke-width:1;stroke-linecap:butt;stroke-linejoin:miter;stroke:rgb(0%,0%,0%);stroke-opacity:1;stroke-miterlimit:10;" d="M 736.785156 251.785156 L 736.785156 294.214844 L 779.214844 294.214844 L 779.214844 251.785156 L 736.785156 251.785156 "/>
<path style="fill-rule:nonzero;fill:rgb(55%,51%,53%);fill-opacity:1;stroke-width:1;stroke-linecap:butt;stroke-linejoin:miter;stroke:rgb(0%,0%,0%);stroke-opacity:1;stroke-miterlimit:10;" d="M 871.785156 269.785156 L 871.785156 312.214844 L 914.214844 312.214844 L 914.214844 269.785156 L 871.785156 269.785156 "/>
<path style="fill-rule:nonzero;fill:rgb(55%,51%,53%);fill-opacity:1;stroke-width:1;stroke-linecap:butt;stroke-linejoin:miter;stroke:rgb(0%,0%,0%);stroke-opacity:1;stroke-miterlimit:10;" d="M 591.785156 85.785156 L 591.785156 128.214844 L 634.214844 128.214844 L 634.214844 85.785156 L 591.785156 85.785156 "/>
<path style="fill-rule:nonzero;fill:rgb(55%,51%,53%);fill-opacity:1;stroke-width:1;stroke-linecap:butt;stroke-linejoin:miter;stroke:rgb(0%,0%,0%);stroke-opacity:1;stroke-miterlimit:10;" d="M 1013 308 L 1042.664062 308 L 1054.664062 279.785156 L 1066.664062 308 L 1096.332031 308 L 1072.332031 325.4375 L 1080.417969 356.980469 L 1054.664062 339.542969 L 1028.914062 356.980469 L 1041.214844 325.4375 L 1013 308 "/>
<path style="fill-rule:nonzero;fill:rgb(55%,51%,53%);fill-opacity:1;stroke-width:1;stroke-linecap:butt;stroke-linejoin:miter;stroke:rgb(0%,0%,0%);stroke-opacity:1;stroke-miterlimit:10;" d="M 993.785156 129.785156 L 993.785156 172.214844 L 1036.214844 172.214844 L 1036.214844 129.785156 L 993.785156 129.785156 "/>
</g>
</svg>
