<?xml version="1.0" encoding="UTF-8"?>
<svg xmlns="http://www.w3.org/2000/svg" xmlns:xlink="http://www.w3.org/1999/xlink" width="1129pt" height="517pt" viewBox="0 0 1129 517" version="1.1">
<g id="surface541">
<rect x="0" y="0" width="1129" height="517" style="fill:rgb(90%,90%,90%);fill-opacity:1;stroke:none;"/>
<path style="fill-rule:nonzero;fill:rgb(35%,70%,90%);fill-opacity:1;stroke-width:1;stroke-linecap:butt;stroke-linejoin:miter;stroke:rgb(0%,0%,0%);stroke-opacity:1;stroke-miterlimit:10;" d="M 500 366 L 529.664062 366 L 541.664062 337.785156 L 553.664062 366 L 583.332031 366 L 559.332031 383.4375 L 567.417969 414.980469 L 541.664062 397.542969 L 515.914062 414.980469 L 528.214844 383.4375 L 500 366 "/>
<path style="fill-rule:nonzero;fill:rgb(35%,70%,90%);fill-opacity:1;stroke-width:1;stroke-linecap:butt;stroke-linejoin:miter;stroke:rgb(0%,0%,0%);stroke-opacity:1;stroke-miterlimit:10;" d="M 199 237 L 228.664062 237 L 240.664062 208.785156 L 252.664062 237 L 282.332031 237 L 258.332031 254.4375 L 266.417969 285.980469 L 240.664062 268.542969 L 214.914062 285.980469 L 227.214844 254.4375 L 199 237 "/>
<path style="fill-rule:nonzero;fill:rgb(35%,70%,90%);fill-opacity:1;stroke-width:1;stroke-linecap:butt;stroke-linejoin:miter;stroke:rgb(0%,0%,0%);stroke-opacity:1;stroke-miterlimit:10;" d="M 358 182 L 387.664062 182 L 399.664062 153.785156 L 411.664062 182 L 441.332031 182 L 417.332031 199.4375 L 425.417969 230.980469 L 399.664062 213.542969 L 373.914062 230.980469 L 386.214844 199.4375 L 358 182 "/>
<path style="fill-rule:nonzero;fill:rgb(35%,70%,90%);fill-opacity:1;stroke-width:1;stroke-linecap:butt;stroke-linejoin:miter;stroke:rgb(0%,0%,0%);stroke-opacity:1;stroke-miterlimit:10;" d="M 108 248 L 137.664062 248 L 149.664062 219.785156 L 161.664062 248 L 191.332031 248 L 167.332031 265.4375 L 175.417969 296.980469 L 149.664062 279.542969 L 123.914062 296.980469 L 136.214844 265.4375 L 108 248 "/>
<path style="fill-rule:nonzero;fill:rgb(35%,70%,90%);fill-opacity:1;stroke-width:1;stroke-linecap:butt;stroke-linejoin:miter;stroke:rgb(0%,0%,0%);stroke-opacity:1;stroke-miterlimit:10;" d="M 531 229 L 560.664062 229 L 572.664062 200.785156 L 584.664062 229 L 614.332031 229 L 590.332031 246.4375 L 598.417969 277.980469 L 572.664062 260.542969 L 546.914062 277.980469 L 559.214844 246.4375 L 531 229 "/>
<path style="fill-rule:nonzero;fill:rgb(100%,51%,0%);fill-opacity:1;stroke-width:1;stroke-linecap:butt;stroke-linejoin:miter;stroke:rgb(0%,0%,0%);stroke-opacity:1;stroke-miterlimit:10;" d="M 161.214844 391 C 161.214844 402.714844 151.714844 412.214844 140 412.214844 C 128.285156 412.214844 118.785156 402.714844 118.785156 391 C 118.785156 379.285156 128.285156 369.785156 140 369.785156 C 151.714844 369.785156 161.214844 379.285156 161.214844 391 "/>
<path style="fill-rule:nonzero;fill:rgb(100%,51%,0%);fill-opacity:1;stroke-width:1;stroke-linecap:butt;stroke-linejoin:miter;stroke:rgb(0%,0%,0%);stroke-opacity:1;stroke-miterlimit:10;" d="M 574.214844 114 C 574.214844 125.714844 564.714844 135.214844 553 135.214844 C 541.285156 135.214844 531.785156 125.714844 531.785156 114 C 531.785156 102.285156 541.285156 92.785156 553 92.785156 C 564.714844 92.785156 574.214844 102.285156 574.214844 114 "/>
<path style="fill-rule:nonzero;fill:rgb(100%,51%,0%);fill-opacity:1;stroke-width:1;stroke-linecap:butt;stroke-linejoin:miter;stroke:rgb(0%,0%,0%);stroke-opacity:1;stroke-miterlimit:10;" d="M 405.214844 453 C 405.214844 464.714844 395.714844 474.214844 384 474.214844 C 372.285156 474.214844 362.785156 464.714844 362.785156 453 C 362.785156 441.285156 372.285156 431.785156 384 431.785156 C 395.714844 431.785156 405.214844 441.285156 405.214844 453 "/>
<path style="fill-rule:nonzero;fill:rgb(100%,51%,0%);fill-opacity:1;stroke-width:1;stroke-linecap:butt;stroke-linejoin:miter;stroke:rgb(0%,0%,0%);stroke-opacity:1;stroke-miterlimit:10;" d="M 842.214844 249 C 842.214844 260.714844 832.714844 270.214844 821 270.214844 C 809.285156 270.214844 799.785156 260.714844 799.785156 249 C 799.785156 237.285156 809.285156 227.785156 821 227.785156 C 832.714844 227.785156 842.214844 237.285156 842.214844 249 "/>
<path style="fill-rule:nonzero;fill:rgb(100%,51%,0%);fill-opacity:1;stroke-width:1;stroke-linecap:butt;stroke-linejoin:miter;stroke:rgb(0%,0%,0%);stroke-opacity:1;stroke-miterlimit:10;" d="M 779.214844 167 C 779.214844 178.714844 769.714844 188.214844 758 188.214844 C 746.285156 188.214844 736.785156 178.714844 736.785156 167 C 736.785156 155.285156 746.285156 145.785156 758 145.785156 C 769.714844 145.785156 779.214844 155.285156 779.214844 167 "/>
</g>
</svg>
