<?xml version="1.0" encoding="UTF-8"?>
<svg xmlns="http://www.w3.org/2000/svg" xmlns:xlink="http://www.w3.org/1999/xlink" width="1179pt" height="517pt" viewBox="0 0 1179 517" version="1.1">
<g id="surface191">
<rect x="0" y="0" width="1179" height="517" style="fill:rgb(90%,90%,90%);fill-opacity:1;stroke:none;"/>
<path style="fill-rule:nonzero;fill:rgb(35%,70%,90%);fill-opacity:1;stroke-width:1;stroke-linecap:butt;stroke-linejoin:miter;stroke:rgb(0%,0%,0%);stroke-opacity:1;stroke-miterlimit:10;" d="M 373 184 L 402.664062 184 L 414.664062 155.785156 L 426.664062 184 L 456.332031 184 L 432.332031 201.4375 L 440.417969 232.980469 L 414.664062 215.542969 L 388.914062 232.980469 L 401.214844 201.4375 L 373 184 "/>
<path style="fill-rule:nonzero;fill:rgb(100%,51%,0%);fill-opacity:1;stroke-width:1;stroke-linecap:butt;stroke-linejoin:miter;stroke:rgb(0%,0%,0%);stroke-opacity:1;stroke-miterlimit:10;" d="M 173 308 L 202.664062 308 L 214.664062 279.785156 L 226.664062 308 L 256.332031 308 L 232.332031 325.4375 L 240.417969 356.980469 L 214.664062 339.542969 L 188.914062 356.980469 L 201.214844 325.4375 L 173 308 "/>
<path style="fill-rule:nonzero;fill:rgb(100%,51%,0%);fill-opacity:1;stroke-width:1;stroke-linecap:butt;stroke-linejoin:miter;stroke:rgb(0%,0%,0%);stroke-opacity:1;stroke-miterlimit:10;" d="M 397 354 L 426.664062 354 L 438.664062 325.785156 L 450.664062 354 L 480.332031 354 L 456.332031 371.4375 L 464.417969 402.980469 L 438.664062 385.542969 L 412.914062 402.980469 L 425.214844 371.4375 L 397 354 "/>
<path style="fill-rule:nonzero;fill:rgb(35%,70%,90%);fill-opacity:1;stroke-width:1;stroke-linecap:butt;stroke-linejoin:miter;stroke:rgb(0%,0%,0%);stroke-opacity:1;stroke-miterlimit:10;" d="M 165 176 L 194.664062 176 L 206.664062 147.785156 L 218.664062 176 L 248.332031 176 L 224.332031 193.4375 L 232.417969 224.980469 L 206.664062 207.542969 L 180.914062 224.980469 L 193.214844 193.4375 L 165 176 "/>
<path style="fill-rule:nonzero;fill:rgb(35%,70%,90%);fill-opacity:1;stroke-width:1;stroke-linecap:butt;stroke-linejoin:miter;stroke:rgb(0%,0%,0%);stroke-opacity:1;stroke-miterlimit:10;" d="M 113 89 L 142.664062 89 L 154.664062 60.785156 L 166.664062 89 L 196.332031 89 L 172.332031 106.4375 L 180.417969 137.980469 L 154.664062 120.542969 L 128.914062 137.980469 L 141.214844 106.4375 L 113 89 "/>
<path style="fill-rule:nonzero;fill:rgb(100%,51%,0%);fill-opacity:1;stroke-width:1;stroke-linecap:butt;stroke-linejoin:miter;stroke:rgb(0%,0%,0%);stroke-opacity:1;stroke-miterlimit:10;" d="M 1001.785156 303.785156 L 1001.785156 346.214844 L 1044.214844 346.214844 L 1044.214844 303.785156 L 1001.785156 303.785156 "/>
<path style="fill-rule:nonzero;fill:rgb(35%,70%,90%);fill-opacity:1;stroke-width:1;stroke-linecap:butt;stroke-linejoin:miter;stroke:rgb(0%,0%,0%);stroke-opacity:1;stroke-miterlimit:10;" d="M 751.785156 384.785156 L 751.785156 427.214844 L 794.214844 427.214844 L 794.214844 384.785156 L 751.785156 384.785156 "/>
<path style="fill-rule:nonzero;fill:rgb(35%,70%,90%);fill-opacity:1;stroke-width:1;stroke-linecap:butt;stroke-linejoin:miter;stroke:rgb(0%,0%,0%);stroke-opacity:1;stroke-miterlimit:10;" d="M 781.785156 233.785156 L 781.785156 276.214844 L 824.214844 276.214844 L 824.214844 233.785156 L 781.785156 233.785156 "/>
<path style="fill-rule:nonzero;fill:rgb(100%,51%,0%);fill-opacity:1;stroke-width:1;stroke-linecap:butt;stroke-linejoin:miter;stroke:rgb(0%,0%,0%);stroke-opacity:1;stroke-miterlimit:10;" d="M 857.785156 369.785156 L 857.785156 412.214844 L 900.214844 412.214844 L 900.214844 369.785156 L 857.785156 369.785156 "/>
<path style="fill-rule:nonzero;fill:rgb(100%,51%,0%);fill-opacity:1;stroke-width:1;stroke-linecap:butt;stroke-linejoin:miter;stroke:rgb(0%,0%,0%);stroke-opacity:1;stroke-miterlimit:10;" d="M 964.785156 126.785156 L 964.785156 169.214844 L 1007.214844 169.214844 L 1007.214844 126.785156 L 964.785156 126.785156 "/>
<path style="fill-rule:nonzero;fill:rgb(100%,51%,0%);fill-opacity:1;stroke-width:1;stroke-linecap:butt;stroke-linejoin:miter;stroke:rgb(0%,0%,0%);stroke-opacity:1;stroke-miterlimit:10;" d="M 889.785156 198.785156 L 889.785156 241.214844 L 932.214844 241.214844 L 932.214844 198.785156 L 889.785156 198.785156 "/>
</g>
</svg>
