<?xml version="1.0" encoding="UTF-8"?>
<svg xmlns="http://www.w3.org/2000/svg" xmlns:xlink="http://www.w3.org/1999/xlink" width="1129pt" height="517pt" viewBox="0 0 1129 517" version="1.1">
<g id="surface851">
<rect x="0" y="0" width="1129" height="517" style="fill:rgb(90%,90%,90%);fill-opacity:1;stroke:none;"/>
<path style="fill-rule:nonzero;fill:rgb(53%,27%,7%);fill-opacity:1;stroke-width:1;stroke-linecap:butt;stroke-linejoin:miter;stroke:rgb(0%,0%,0%);stroke-opacity:1;stroke-miterlimit:10;" d="M 172 167.601562 C 172 153.199219 148 153.199219 148 167.601562 C 148 182 172 184.398438 172 196.398438 C 172 184.398438 196 182 196 167.601562 C 196 153.199219 172 153.199219 172 167.601562 "/>
<path style="fill-rule:nonzero;fill:rgb(53%,27%,7%);fill-opacity:1;stroke-width:1;stroke-linecap:butt;stroke-linejoin:miter;stroke:rgb(0%,0%,0%);stroke-opacity:1;stroke-miterlimit:10;" d="M 342 225.601562 C 342 211.199219 318 211.199219 318 225.601562 C 318 240 342 242.398438 342 254.398438 C 342 242.398438 366 240 366 225.601562 C 366 211.199219 342 211.199219 342 225.601562 "/>
<path style="fill-rule:nonzero;fill:rgb(53%,27%,7%);fill-opacity:1;stroke-width:1;stroke-linecap:butt;stroke-linejoin:miter;stroke:rgb(0%,0%,0%);stroke-opacity:1;stroke-miterlimit:10;" d="M 207.214844 82 C 207.214844 93.714844 197.714844 103.214844 186 103.214844 C 174.285156 103.214844 164.785156 93.714844 164.785156 82 C 164.785156 70.285156 174.285156 60.785156 186 60.785156 C 197.714844 60.785156 207.214844 70.285156 207.214844 82 "/>
<path style="fill-rule:nonzero;fill:rgb(53%,27%,7%);fill-opacity:1;stroke-width:1;stroke-linecap:butt;stroke-linejoin:miter;stroke:rgb(0%,0%,0%);stroke-opacity:1;stroke-miterlimit:10;" d="M 461.214844 407 C 461.214844 418.714844 451.714844 428.214844 440 428.214844 C 428.285156 428.214844 418.785156 418.714844 418.785156 407 C 418.785156 395.285156 428.285156 385.785156 440 385.785156 C 451.714844 385.785156 461.214844 395.285156 461.214844 407 "/>
<path style="fill-rule:nonzero;fill:rgb(53%,27%,7%);fill-opacity:1;stroke-width:1;stroke-linecap:butt;stroke-linejoin:miter;stroke:rgb(0%,0%,0%);stroke-opacity:1;stroke-miterlimit:10;" d="M 324 76.601562 C 324 62.199219 300 62.199219 300 76.601562 C 300 91 324 93.398438 324 105.398438 C 324 93.398438 348 91 348 76.601562 C 348 62.199219 324 62.199219 324 76.601562 "/>
<path style="fill-rule:nonzero;fill:rgb(53%,27%,7%);fill-opacity:1;stroke-width:1;stroke-linecap:butt;stroke-linejoin:miter;stroke:rgb(0%,0%,0%);stroke-opacity:1;stroke-miterlimit:10;" d="M 53 94.601562 C 53 80.199219 29 80.199219 29 94.601562 C 29 109 53 111.398438 53 123.398438 C 53 111.398438 77 109 77 94.601562 C 77 80.199219 53 80.199219 53 94.601562 "/>
<path style="fill-rule:nonzero;fill:rgb(53%,27%,7%);fill-opacity:1;stroke-width:1;stroke-linecap:butt;stroke-linejoin:miter;stroke:rgb(0%,0%,0%);stroke-opacity:1;stroke-miterlimit:10;" d="M 457 296.601562 C 457 282.199219 433 282.199219 433 296.601562 C 433 311 457 313.398438 457 325.398438 C 457 313.398438 481 311 481 296.601562 C 481 282.199219 457 282.199219 457 296.601562 "/>
<path style="fill-rule:nonzero;fill:rgb(53%,27%,7%);fill-opacity:1;stroke-width:1;stroke-linecap:butt;stroke-linejoin:miter;stroke:rgb(0%,0%,0%);stroke-opacity:1;stroke-miterlimit:10;" d="M 240 439.601562 C 240 425.199219 216 425.199219 216 439.601562 C 216 454 240 456.398438 240 468.398438 C 240 456.398438 264 454 264 439.601562 C 264 425.199219 240 425.199219 240 439.601562 "/>
<path style="fill-rule:nonzero;fill:rgb(100%,51%,0%);fill-opacity:1;stroke-width:1;stroke-linecap:butt;stroke-linejoin:miter;stroke:rgb(0%,0%,0%);stroke-opacity:1;stroke-miterlimit:10;" d="M 978.214844 308 C 978.214844 319.714844 968.714844 329.214844 957 329.214844 C 945.285156 329.214844 935.785156 319.714844 935.785156 308 C 935.785156 296.285156 945.285156 286.785156 957 286.785156 C 968.714844 286.785156 978.214844 296.285156 978.214844 308 "/>
<path style="fill-rule:nonzero;fill:rgb(100%,51%,0%);fill-opacity:1;stroke-width:1;stroke-linecap:butt;stroke-linejoin:miter;stroke:rgb(0%,0%,0%);stroke-opacity:1;stroke-miterlimit:10;" d="M 666.214844 148 C 666.214844 159.714844 656.714844 169.214844 645 169.214844 C 633.285156 169.214844 623.785156 159.714844 623.785156 148 C 623.785156 136.285156 633.285156 126.785156 645 126.785156 C 656.714844 126.785156 666.214844 136.285156 666.214844 148 "/>
<path style="fill-rule:nonzero;fill:rgb(100%,51%,0%);fill-opacity:1;stroke-width:1;stroke-linecap:butt;stroke-linejoin:miter;stroke:rgb(0%,0%,0%);stroke-opacity:1;stroke-miterlimit:10;" d="M 870 179.601562 C 870 165.199219 846 165.199219 846 179.601562 C 846 194 870 196.398438 870 208.398438 C 870 196.398438 894 194 894 179.601562 C 894 165.199219 870 165.199219 870 179.601562 "/>
<path style="fill-rule:nonzero;fill:rgb(100%,51%,0%);fill-opacity:1;stroke-width:1;stroke-linecap:butt;stroke-linejoin:miter;stroke:rgb(0%,0%,0%);stroke-opacity:1;stroke-miterlimit:10;" d="M 688 313.601562 C 688 299.199219 664 299.199219 664 313.601562 C 664 328 688 330.398438 688 342.398438 C 688 330.398438 712 328 712 313.601562 C 712 299.199219 688 299.199219 688 313.601562 "/>
<path style="fill-rule:nonzero;fill:rgb(100%,51%,0%);fill-opacity:1;stroke-width:1;stroke-linecap:butt;stroke-linejoin:miter;stroke:rgb(0%,0%,0%);stroke-opacity:1;stroke-miterlimit:10;" d="M 894.214844 450 C 894.214844 461.714844 884.714844 471.214844 873 471.214844 C 861.285156 471.214844 851.785156 461.714844 851.785156 450 C 851.785156 438.285156 861.285156 428.785156 873 428.785156 C 884.714844 428.785156 894.214844 438.285156 894.214844 450 "/>
<path style="fill-rule:nonzero;fill:rgb(100%,51%,0%);fill-opacity:1;stroke-width:1;stroke-linecap:butt;stroke-linejoin:miter;stroke:rgb(0%,0%,0%);stroke-opacity:1;stroke-miterlimit:10;" d="M 774.214844 451 C 774.214844 462.714844 764.714844 472.214844 753 472.214844 C 741.285156 472.214844 731.785156 462.714844 731.785156 451 C 731.785156 439.285156 741.285156 429.785156 753 429.785156 C 764.714844 429.785156 774.214844 439.285156 774.214844 451 "/>
<path style="fill-rule:nonzero;fill:rgb(100%,51%,0%);fill-opacity:1;stroke-width:1;stroke-linecap:butt;stroke-linejoin:miter;stroke:rgb(0%,0%,0%);stroke-opacity:1;stroke-miterlimit:10;" d="M 811.214844 328 C 811.214844 339.714844 801.714844 349.214844 790 349.214844 C 778.285156 349.214844 768.785156 339.714844 768.785156 328 C 768.785156 316.285156 778.285156 306.785156 790 306.785156 C 801.714844 306.785156 811.214844 316.285156 811.214844 328 "/>
<path style="fill-rule:nonzero;fill:rgb(100%,51%,0%);fill-opacity:1;stroke-width:1;stroke-linecap:butt;stroke-linejoin:miter;stroke:rgb(0%,0%,0%);stroke-opacity:1;stroke-miterlimit:10;" d="M 985.214844 79 C 985.214844 90.714844 975.714844 100.214844 964 100.214844 C 952.285156 100.214844 942.785156 90.714844 942.785156 79 C 942.785156 67.285156 952.285156 57.785156 964 57.785156 C 975.714844 57.785156 985.214844 67.285156 985.214844 79 "/>
</g>
</svg>
