<?xml version="1.0" encoding="UTF-8"?>
<svg xmlns="http://www.w3.org/2000/svg" xmlns:xlink="http://www.w3.org/1999/xlink" width="1129pt" height="517pt" viewBox="0 0 1129 517" version="1.1">
<g id="surface916">
<rect x="0" y="0" width="1129" height="517" style="fill:rgb(90%,90%,90%);fill-opacity:1;stroke:none;"/>
<path style="fill-rule:nonzero;fill:rgb(53%,27%,7%);fill-opacity:1;stroke-width:1;stroke-linecap:butt;stroke-linejoin:miter;stroke:rgb(0%,0%,0%);stroke-opacity:1;stroke-miterlimit:10;" d="M 830 352 L 859.664062 352 L 871.664062 323.785156 L 883.664062 352 L 913.332031 352 L 889.332031 369.4375 L 897.417969 400.980469 L 871.664062 383.542969 L 845.914062 400.980469 L 858.214844 369.4375 L 830 352 "/>
<path style="fill-rule:nonzero;fill:rgb(53%,27%,7%);fill-opacity:1;stroke-width:1;stroke-linecap:butt;stroke-linejoin:miter;stroke:rgb(0%,0%,0%);stroke-opacity:1;stroke-miterlimit:10;" d="M 507 50 L 536.664062 50 L 548.664062 21.785156 L 560.664062 50 L 590.332031 50 L 566.332031 67.4375 L 574.417969 98.980469 L 548.664062 81.542969 L 522.914062 98.980469 L 535.214844 67.4375 L 507 50 "/>
<path style="fill-rule:nonzero;fill:rgb(53%,27%,7%);fill-opacity:1;stroke-width:1;stroke-linecap:butt;stroke-linejoin:miter;stroke:rgb(0%,0%,0%);stroke-opacity:1;stroke-miterlimit:10;" d="M 699 168 L 728.664062 168 L 740.664062 139.785156 L 752.664062 168 L 782.332031 168 L 758.332031 185.4375 L 766.417969 216.980469 L 740.664062 199.542969 L 714.914062 216.980469 L 727.214844 185.4375 L 699 168 "/>
<path style="fill-rule:nonzero;fill:rgb(53%,27%,7%);fill-opacity:1;stroke-width:1;stroke-linecap:butt;stroke-linejoin:miter;stroke:rgb(0%,0%,0%);stroke-opacity:1;stroke-miterlimit:10;" d="M 611 448 L 640.664062 448 L 652.664062 419.785156 L 664.664062 448 L 694.332031 448 L 670.332031 465.4375 L 678.417969 496.980469 L 652.664062 479.542969 L 626.914062 496.980469 L 639.214844 465.4375 L 611 448 "/>
<path style="fill-rule:nonzero;fill:rgb(53%,27%,7%);fill-opacity:1;stroke-width:1;stroke-linecap:butt;stroke-linejoin:miter;stroke:rgb(0%,0%,0%);stroke-opacity:1;stroke-miterlimit:10;" d="M 371 450 L 400.664062 450 L 412.664062 421.785156 L 424.664062 450 L 454.332031 450 L 430.332031 467.4375 L 438.417969 498.980469 L 412.664062 481.542969 L 386.914062 498.980469 L 399.214844 467.4375 L 371 450 "/>
<path style="fill-rule:nonzero;fill:rgb(55%,51%,53%);fill-opacity:1;stroke-width:1;stroke-linecap:butt;stroke-linejoin:miter;stroke:rgb(0%,0%,0%);stroke-opacity:1;stroke-miterlimit:10;" d="M 703 69 L 732.664062 69 L 744.664062 40.785156 L 756.664062 69 L 786.332031 69 L 762.332031 86.4375 L 770.417969 117.980469 L 744.664062 100.542969 L 718.914062 117.980469 L 731.214844 86.4375 L 703 69 "/>
<path style="fill-rule:nonzero;fill:rgb(55%,51%,53%);fill-opacity:1;stroke-width:1;stroke-linecap:butt;stroke-linejoin:miter;stroke:rgb(0%,0%,0%);stroke-opacity:1;stroke-miterlimit:10;" d="M 972 357 L 1001.664062 357 L 1013.664062 328.785156 L 1025.664062 357 L 1055.332031 357 L 1031.332031 374.4375 L 1039.417969 405.980469 L 1013.664062 388.542969 L 987.914062 405.980469 L 1000.214844 374.4375 L 972 357 "/>
<path style="fill-rule:nonzero;fill:rgb(55%,51%,53%);fill-opacity:1;stroke-width:1;stroke-linecap:butt;stroke-linejoin:miter;stroke:rgb(0%,0%,0%);stroke-opacity:1;stroke-miterlimit:10;" d="M 462 390 L 491.664062 390 L 503.664062 361.785156 L 515.664062 390 L 545.332031 390 L 521.332031 407.4375 L 529.417969 438.980469 L 503.664062 421.542969 L 477.914062 438.980469 L 490.214844 407.4375 L 462 390 "/>
<path style="fill-rule:nonzero;fill:rgb(55%,51%,53%);fill-opacity:1;stroke-width:1;stroke-linecap:butt;stroke-linejoin:miter;stroke:rgb(0%,0%,0%);stroke-opacity:1;stroke-miterlimit:10;" d="M 112 96 L 141.664062 96 L 153.664062 67.785156 L 165.664062 96 L 195.332031 96 L 171.332031 113.4375 L 179.417969 144.980469 L 153.664062 127.542969 L 127.914062 144.980469 L 140.214844 113.4375 L 112 96 "/>
<path style="fill-rule:nonzero;fill:rgb(55%,51%,53%);fill-opacity:1;stroke-width:1;stroke-linecap:butt;stroke-linejoin:miter;stroke:rgb(0%,0%,0%);stroke-opacity:1;stroke-miterlimit:10;" d="M 312 227 L 341.664062 227 L 353.664062 198.785156 L 365.664062 227 L 395.332031 227 L 371.332031 244.4375 L 379.417969 275.980469 L 353.664062 258.542969 L 327.914062 275.980469 L 340.214844 244.4375 L 312 227 "/>
<path style="fill-rule:nonzero;fill:rgb(55%,51%,53%);fill-opacity:1;stroke-width:1;stroke-linecap:butt;stroke-linejoin:miter;stroke:rgb(0%,0%,0%);stroke-opacity:1;stroke-miterlimit:10;" d="M 234 276 L 263.664062 276 L 275.664062 247.785156 L 287.664062 276 L 317.332031 276 L 293.332031 293.4375 L 301.417969 324.980469 L 275.664062 307.542969 L 249.914062 324.980469 L 262.214844 293.4375 L 234 276 "/>
<path style="fill-rule:nonzero;fill:rgb(55%,51%,53%);fill-opacity:1;stroke-width:1;stroke-linecap:butt;stroke-linejoin:miter;stroke:rgb(0%,0%,0%);stroke-opacity:1;stroke-miterlimit:10;" d="M 887 183 L 916.664062 183 L 928.664062 154.785156 L 940.664062 183 L 970.332031 183 L 946.332031 200.4375 L 954.417969 231.980469 L 928.664062 214.542969 L 902.914062 231.980469 L 915.214844 200.4375 L 887 183 "/>
<path style="fill-rule:nonzero;fill:rgb(55%,51%,53%);fill-opacity:1;stroke-width:1;stroke-linecap:butt;stroke-linejoin:miter;stroke:rgb(0%,0%,0%);stroke-opacity:1;stroke-miterlimit:10;" d="M 233 78 L 262.664062 78 L 274.664062 49.785156 L 286.664062 78 L 316.332031 78 L 292.332031 95.4375 L 300.417969 126.980469 L 274.664062 109.542969 L 248.914062 126.980469 L 261.214844 95.4375 L 233 78 "/>
</g>
</svg>
