<?xml version="1.0" encoding="UTF-8"?>
<svg xmlns="http://www.w3.org/2000/svg" xmlns:xlink="http://www.w3.org/1999/xlink" width="1179pt" height="517pt" viewBox="0 0 1179 517" version="1.1">
<g id="surface701">
<rect x="0" y="0" width="1179" height="517" style="fill:rgb(90%,90%,90%);fill-opacity:1;stroke:none;"/>
<path style="fill-rule:nonzero;fill:rgb(55%,51%,53%);fill-opacity:1;stroke-width:1;stroke-linecap:butt;stroke-linejoin:miter;stroke:rgb(0%,0%,0%);stroke-opacity:1;stroke-miterlimit:10;" d="M 313 264 L 342.664062 264 L 354.664062 235.785156 L 366.664062 264 L 396.332031 264 L 372.332031 281.4375 L 380.417969 312.980469 L 354.664062 295.542969 L 328.914062 312.980469 L 341.214844 281.4375 L 313 264 "/>
<path style="fill-rule:nonzero;fill:rgb(55%,51%,53%);fill-opacity:1;stroke-width:1;stroke-linecap:butt;stroke-linejoin:miter;stroke:rgb(0%,0%,0%);stroke-opacity:1;stroke-miterlimit:10;" d="M 398 329 L 427.664062 329 L 439.664062 300.785156 L 451.664062 329 L 481.332031 329 L 457.332031 346.4375 L 465.417969 377.980469 L 439.664062 360.542969 L 413.914062 377.980469 L 426.214844 346.4375 L 398 329 "/>
<path style="fill-rule:nonzero;fill:rgb(55%,51%,53%);fill-opacity:1;stroke-width:1;stroke-linecap:butt;stroke-linejoin:miter;stroke:rgb(0%,0%,0%);stroke-opacity:1;stroke-miterlimit:10;" d="M 173 197 L 202.664062 197 L 214.664062 168.785156 L 226.664062 197 L 256.332031 197 L 232.332031 214.4375 L 240.417969 245.980469 L 214.664062 228.542969 L 188.914062 245.980469 L 201.214844 214.4375 L 173 197 "/>
<path style="fill-rule:nonzero;fill:rgb(53%,27%,7%);fill-opacity:1;stroke-width:1;stroke-linecap:butt;stroke-linejoin:miter;stroke:rgb(0%,0%,0%);stroke-opacity:1;stroke-miterlimit:10;" d="M 426 125 L 455.664062 125 L 467.664062 96.785156 L 479.664062 125 L 509.332031 125 L 485.332031 142.4375 L 493.417969 173.980469 L 467.664062 156.542969 L 441.914062 173.980469 L 454.214844 142.4375 L 426 125 "/>
<path style="fill-rule:nonzero;fill:rgb(55%,51%,53%);fill-opacity:1;stroke-width:1;stroke-linecap:butt;stroke-linejoin:miter;stroke:rgb(0%,0%,0%);stroke-opacity:1;stroke-miterlimit:10;" d="M 431 414 L 460.664062 414 L 472.664062 385.785156 L 484.664062 414 L 514.332031 414 L 490.332031 431.4375 L 498.417969 462.980469 L 472.664062 445.542969 L 446.914062 462.980469 L 459.214844 431.4375 L 431 414 "/>
<path style="fill-rule:nonzero;fill:rgb(53%,27%,7%);fill-opacity:1;stroke-width:1;stroke-linecap:butt;stroke-linejoin:miter;stroke:rgb(0%,0%,0%);stroke-opacity:1;stroke-miterlimit:10;" d="M 978.785156 81.785156 L 978.785156 124.214844 L 1021.214844 124.214844 L 1021.214844 81.785156 L 978.785156 81.785156 "/>
<path style="fill-rule:nonzero;fill:rgb(53%,27%,7%);fill-opacity:1;stroke-width:1;stroke-linecap:butt;stroke-linejoin:miter;stroke:rgb(0%,0%,0%);stroke-opacity:1;stroke-miterlimit:10;" d="M 865.785156 105.785156 L 865.785156 148.214844 L 908.214844 148.214844 L 908.214844 105.785156 L 865.785156 105.785156 "/>
<path style="fill-rule:nonzero;fill:rgb(53%,27%,7%);fill-opacity:1;stroke-width:1;stroke-linecap:butt;stroke-linejoin:miter;stroke:rgb(0%,0%,0%);stroke-opacity:1;stroke-miterlimit:10;" d="M 841.785156 218.785156 L 841.785156 261.214844 L 884.214844 261.214844 L 884.214844 218.785156 L 841.785156 218.785156 "/>
<path style="fill-rule:nonzero;fill:rgb(55%,51%,53%);fill-opacity:1;stroke-width:1;stroke-linecap:butt;stroke-linejoin:miter;stroke:rgb(0%,0%,0%);stroke-opacity:1;stroke-miterlimit:10;" d="M 812.785156 388.785156 L 812.785156 431.214844 L 855.214844 431.214844 L 855.214844 388.785156 L 812.785156 388.785156 "/>
<path style="fill-rule:nonzero;fill:rgb(53%,27%,7%);fill-opacity:1;stroke-width:1;stroke-linecap:butt;stroke-linejoin:miter;stroke:rgb(0%,0%,0%);stroke-opacity:1;stroke-miterlimit:10;" d="M 996.785156 261.785156 L 996.785156 304.214844 L 1039.214844 304.214844 L 1039.214844 261.785156 L 996.785156 261.785156 "/>
<path style="fill-rule:nonzero;fill:rgb(53%,27%,7%);fill-opacity:1;stroke-width:1;stroke-linecap:butt;stroke-linejoin:miter;stroke:rgb(0%,0%,0%);stroke-opacity:1;stroke-miterlimit:10;" d="M 684.785156 233.785156 L 684.785156 276.214844 L 727.214844 276.214844 L 727.214844 233.785156 L 684.785156 233.785156 "/>
<path style="fill-rule:nonzero;fill:rgb(53%,27%,7%);fill-opacity:1;stroke-width:1;stroke-linecap:butt;stroke-linejoin:miter;stroke:rgb(0%,0%,0%);stroke-opacity:1;stroke-miterlimit:10;" d="M 882.785156 326.785156 L 882.785156 369.214844 L 925.214844 369.214844 L 925.214844 326.785156 L 882.785156 326.785156 "/>
</g>
</svg>
