<?xml version="1.0" encoding="UTF-8"?>
<svg xmlns="http://www.w3.org/2000/svg" xmlns:xlink="http://www.w3.org/1999/xlink" width="1129pt" height="517pt" viewBox="0 0 1129 517" version="1.1">
<g id="surface611">
<rect x="0" y="0" width="1129" height="517" style="fill:rgb(90%,90%,90%);fill-opacity:1;stroke:none;"/>
<path style="fill-rule:nonzero;fill:rgb(35%,70%,90%);fill-opacity:1;stroke-width:1;stroke-linecap:butt;stroke-linejoin:miter;stroke:rgb(0%,0%,0%);stroke-opacity:1;stroke-miterlimit:10;" d="M 446 299 L 475.664062 299 L 487.664062 270.785156 L 499.664062 299 L 529.332031 299 L 505.332031 316.4375 L 513.417969 347.980469 L 487.664062 330.542969 L 461.914062 347.980469 L 474.214844 316.4375 L 446 299 "/>
<path style="fill-rule:nonzero;fill:rgb(35%,70%,90%);fill-opacity:1;stroke-width:1;stroke-linecap:butt;stroke-linejoin:miter;stroke:rgb(0%,0%,0%);stroke-opacity:1;stroke-miterlimit:10;" d="M 146 240 L 175.664062 240 L 187.664062 211.785156 L 199.664062 240 L 229.332031 240 L 205.332031 257.4375 L 213.417969 288.980469 L 187.664062 271.542969 L 161.914062 288.980469 L 174.214844 257.4375 L 146 240 "/>
<path style="fill-rule:nonzero;fill:rgb(55%,51%,53%);fill-opacity:1;stroke-width:1;stroke-linecap:butt;stroke-linejoin:miter;stroke:rgb(0%,0%,0%);stroke-opacity:1;stroke-miterlimit:10;" d="M 372 430 L 401.664062 430 L 413.664062 401.785156 L 425.664062 430 L 455.332031 430 L 431.332031 447.4375 L 439.417969 478.980469 L 413.664062 461.542969 L 387.914062 478.980469 L 400.214844 447.4375 L 372 430 "/>
<path style="fill-rule:nonzero;fill:rgb(55%,51%,53%);fill-opacity:1;stroke-width:1;stroke-linecap:butt;stroke-linejoin:miter;stroke:rgb(0%,0%,0%);stroke-opacity:1;stroke-miterlimit:10;" d="M 81 308 L 110.664062 308 L 122.664062 279.785156 L 134.664062 308 L 164.332031 308 L 140.332031 325.4375 L 148.417969 356.980469 L 122.664062 339.542969 L 96.914062 356.980469 L 109.214844 325.4375 L 81 308 "/>
<path style="fill-rule:nonzero;fill:rgb(35%,70%,90%);fill-opacity:1;stroke-width:1;stroke-linecap:butt;stroke-linejoin:miter;stroke:rgb(0%,0%,0%);stroke-opacity:1;stroke-miterlimit:10;" d="M 325 183 L 354.664062 183 L 366.664062 154.785156 L 378.664062 183 L 408.332031 183 L 384.332031 200.4375 L 392.417969 231.980469 L 366.664062 214.542969 L 340.914062 231.980469 L 353.214844 200.4375 L 325 183 "/>
<path style="fill-rule:nonzero;fill:rgb(55%,51%,53%);fill-opacity:1;stroke-width:1;stroke-linecap:butt;stroke-linejoin:miter;stroke:rgb(0%,0%,0%);stroke-opacity:1;stroke-miterlimit:10;" d="M 806.785156 275.785156 L 806.785156 318.214844 L 849.214844 318.214844 L 849.214844 275.785156 L 806.785156 275.785156 "/>
<path style="fill-rule:nonzero;fill:rgb(55%,51%,53%);fill-opacity:1;stroke-width:1;stroke-linecap:butt;stroke-linejoin:miter;stroke:rgb(0%,0%,0%);stroke-opacity:1;stroke-miterlimit:10;" d="M 783.785156 378.785156 L 783.785156 421.214844 L 826.214844 421.214844 L 826.214844 378.785156 L 783.785156 378.785156 "/>
<path style="fill-rule:nonzero;fill:rgb(35%,70%,90%);fill-opacity:1;stroke-width:1;stroke-linecap:butt;stroke-linejoin:miter;stroke:rgb(0%,0%,0%);stroke-opacity:1;stroke-miterlimit:10;" d="M 614.785156 103.785156 L 614.785156 146.214844 L 657.214844 146.214844 L 657.214844 103.785156 L 614.785156 103.785156 "/>
<path style="fill-rule:nonzero;fill:rgb(35%,70%,90%);fill-opacity:1;stroke-width:1;stroke-linecap:butt;stroke-linejoin:miter;stroke:rgb(0%,0%,0%);stroke-opacity:1;stroke-miterlimit:10;" d="M 917.785156 210.785156 L 917.785156 253.214844 L 960.214844 253.214844 L 960.214844 210.785156 L 917.785156 210.785156 "/>
<path style="fill-rule:nonzero;fill:rgb(55%,51%,53%);fill-opacity:1;stroke-width:1;stroke-linecap:butt;stroke-linejoin:miter;stroke:rgb(0%,0%,0%);stroke-opacity:1;stroke-miterlimit:10;" d="M 714.785156 134.785156 L 714.785156 177.214844 L 757.214844 177.214844 L 757.214844 134.785156 L 714.785156 134.785156 "/>
</g>
</svg>
