<?xml version="1.0" encoding="UTF-8"?>
<svg xmlns="http://www.w3.org/2000/svg" xmlns:xlink="http://www.w3.org/1999/xlink" width="1129pt" height="517pt" viewBox="0 0 1129 517" version="1.1">
<g id="surface866">
<rect x="0" y="0" width="1129" height="517" style="fill:rgb(90%,90%,90%);fill-opacity:1;stroke:none;"/>
<path style="fill-rule:nonzero;fill:rgb(35%,70%,90%);fill-opacity:1;stroke-width:1;stroke-linecap:butt;stroke-linejoin:miter;stroke:rgb(0%,0%,0%);stroke-opacity:1;stroke-miterlimit:10;" d="M 359 235 L 388.664062 235 L 400.664062 206.785156 L 412.664062 235 L 442.332031 235 L 418.332031 252.4375 L 426.417969 283.980469 L 400.664062 266.542969 L 374.914062 283.980469 L 387.214844 252.4375 L 359 235 "/>
<path style="fill-rule:nonzero;fill:rgb(35%,70%,90%);fill-opacity:1;stroke-width:1;stroke-linecap:butt;stroke-linejoin:miter;stroke:rgb(0%,0%,0%);stroke-opacity:1;stroke-miterlimit:10;" d="M 162 426 L 191.664062 426 L 203.664062 397.785156 L 215.664062 426 L 245.332031 426 L 221.332031 443.4375 L 229.417969 474.980469 L 203.664062 457.542969 L 177.914062 474.980469 L 190.214844 443.4375 L 162 426 "/>
<path style="fill-rule:nonzero;fill:rgb(35%,70%,90%);fill-opacity:1;stroke-width:1;stroke-linecap:butt;stroke-linejoin:miter;stroke:rgb(0%,0%,0%);stroke-opacity:1;stroke-miterlimit:10;" d="M 420 344 L 449.664062 344 L 461.664062 315.785156 L 473.664062 344 L 503.332031 344 L 479.332031 361.4375 L 487.417969 392.980469 L 461.664062 375.542969 L 435.914062 392.980469 L 448.214844 361.4375 L 420 344 "/>
<path style="fill-rule:nonzero;fill:rgb(35%,70%,90%);fill-opacity:1;stroke-width:1;stroke-linecap:butt;stroke-linejoin:miter;stroke:rgb(0%,0%,0%);stroke-opacity:1;stroke-miterlimit:10;" d="M 103 113 L 132.664062 113 L 144.664062 84.785156 L 156.664062 113 L 186.332031 113 L 162.332031 130.4375 L 170.417969 161.980469 L 144.664062 144.542969 L 118.914062 161.980469 L 131.214844 130.4375 L 103 113 "/>
<path style="fill-rule:nonzero;fill:rgb(35%,70%,90%);fill-opacity:1;stroke-width:1;stroke-linecap:butt;stroke-linejoin:miter;stroke:rgb(0%,0%,0%);stroke-opacity:1;stroke-miterlimit:10;" d="M 819 215 L 848.664062 215 L 860.664062 186.785156 L 872.664062 215 L 902.332031 215 L 878.332031 232.4375 L 886.417969 263.980469 L 860.664062 246.542969 L 834.914062 263.980469 L 847.214844 232.4375 L 819 215 "/>
<path style="fill-rule:nonzero;fill:rgb(35%,70%,90%);fill-opacity:1;stroke-width:1;stroke-linecap:butt;stroke-linejoin:miter;stroke:rgb(0%,0%,0%);stroke-opacity:1;stroke-miterlimit:10;" d="M 956 85 L 985.664062 85 L 997.664062 56.785156 L 1009.664062 85 L 1039.332031 85 L 1015.332031 102.4375 L 1023.417969 133.980469 L 997.664062 116.542969 L 971.914062 133.980469 L 984.214844 102.4375 L 956 85 "/>
<path style="fill-rule:nonzero;fill:rgb(55%,51%,53%);fill-opacity:1;stroke-width:1;stroke-linecap:butt;stroke-linejoin:miter;stroke:rgb(0%,0%,0%);stroke-opacity:1;stroke-miterlimit:10;" d="M 995.214844 257 C 995.214844 268.714844 985.714844 278.214844 974 278.214844 C 962.285156 278.214844 952.785156 268.714844 952.785156 257 C 952.785156 245.285156 962.285156 235.785156 974 235.785156 C 985.714844 235.785156 995.214844 245.285156 995.214844 257 "/>
<path style="fill-rule:nonzero;fill:rgb(55%,51%,53%);fill-opacity:1;stroke-width:1;stroke-linecap:butt;stroke-linejoin:miter;stroke:rgb(0%,0%,0%);stroke-opacity:1;stroke-miterlimit:10;" d="M 489.214844 222 C 489.214844 233.714844 479.714844 243.214844 468 243.214844 C 456.285156 243.214844 446.785156 233.714844 446.785156 222 C 446.785156 210.285156 456.285156 200.785156 468 200.785156 C 479.714844 200.785156 489.214844 210.285156 489.214844 222 "/>
<path style="fill-rule:nonzero;fill:rgb(55%,51%,53%);fill-opacity:1;stroke-width:1;stroke-linecap:butt;stroke-linejoin:miter;stroke:rgb(0%,0%,0%);stroke-opacity:1;stroke-miterlimit:10;" d="M 787.214844 410 C 787.214844 421.714844 777.714844 431.214844 766 431.214844 C 754.285156 431.214844 744.785156 421.714844 744.785156 410 C 744.785156 398.285156 754.285156 388.785156 766 388.785156 C 777.714844 388.785156 787.214844 398.285156 787.214844 410 "/>
<path style="fill-rule:nonzero;fill:rgb(55%,51%,53%);fill-opacity:1;stroke-width:1;stroke-linecap:butt;stroke-linejoin:miter;stroke:rgb(0%,0%,0%);stroke-opacity:1;stroke-miterlimit:10;" d="M 204.214844 64 C 204.214844 75.714844 194.714844 85.214844 183 85.214844 C 171.285156 85.214844 161.785156 75.714844 161.785156 64 C 161.785156 52.285156 171.285156 42.785156 183 42.785156 C 194.714844 42.785156 204.214844 52.285156 204.214844 64 "/>
<path style="fill-rule:nonzero;fill:rgb(55%,51%,53%);fill-opacity:1;stroke-width:1;stroke-linecap:butt;stroke-linejoin:miter;stroke:rgb(0%,0%,0%);stroke-opacity:1;stroke-miterlimit:10;" d="M 813.214844 56 C 813.214844 67.714844 803.714844 77.214844 792 77.214844 C 780.285156 77.214844 770.785156 67.714844 770.785156 56 C 770.785156 44.285156 780.285156 34.785156 792 34.785156 C 803.714844 34.785156 813.214844 44.285156 813.214844 56 "/>
<path style="fill-rule:nonzero;fill:rgb(55%,51%,53%);fill-opacity:1;stroke-width:1;stroke-linecap:butt;stroke-linejoin:miter;stroke:rgb(0%,0%,0%);stroke-opacity:1;stroke-miterlimit:10;" d="M 157.214844 209 C 157.214844 220.714844 147.714844 230.214844 136 230.214844 C 124.285156 230.214844 114.785156 220.714844 114.785156 209 C 114.785156 197.285156 124.285156 187.785156 136 187.785156 C 147.714844 187.785156 157.214844 197.285156 157.214844 209 "/>
<path style="fill-rule:nonzero;fill:rgb(55%,51%,53%);fill-opacity:1;stroke-width:1;stroke-linecap:butt;stroke-linejoin:miter;stroke:rgb(0%,0%,0%);stroke-opacity:1;stroke-miterlimit:10;" d="M 592.214844 343 C 592.214844 354.714844 582.714844 364.214844 571 364.214844 C 559.285156 364.214844 549.785156 354.714844 549.785156 343 C 549.785156 331.285156 559.285156 321.785156 571 321.785156 C 582.714844 321.785156 592.214844 331.285156 592.214844 343 "/>
<path style="fill-rule:nonzero;fill:rgb(55%,51%,53%);fill-opacity:1;stroke-width:1;stroke-linecap:butt;stroke-linejoin:miter;stroke:rgb(0%,0%,0%);stroke-opacity:1;stroke-miterlimit:10;" d="M 581.214844 243 C 581.214844 254.714844 571.714844 264.214844 560 264.214844 C 548.285156 264.214844 538.785156 254.714844 538.785156 243 C 538.785156 231.285156 548.285156 221.785156 560 221.785156 C 571.714844 221.785156 581.214844 231.285156 581.214844 243 "/>
</g>
</svg>
