<?xml version="1.0" encoding="UTF-8"?>
<svg xmlns="http://www.w3.org/2000/svg" xmlns:xlink="http://www.w3.org/1999/xlink" width="1129pt" height="517pt" viewBox="0 0 1129 517" version="1.1">
<g id="surface831">
<rect x="0" y="0" width="1129" height="517" style="fill:rgb(90%,90%,90%);fill-opacity:1;stroke:none;"/>
<path style="fill-rule:nonzero;fill:rgb(100%,51%,0%);fill-opacity:1;stroke-width:1;stroke-linecap:butt;stroke-linejoin:miter;stroke:rgb(0%,0%,0%);stroke-opacity:1;stroke-miterlimit:10;" d="M 964.214844 308 C 964.214844 319.714844 954.714844 329.214844 943 329.214844 C 931.285156 329.214844 921.785156 319.714844 921.785156 308 C 921.785156 296.285156 931.285156 286.785156 943 286.785156 C 954.714844 286.785156 964.214844 296.285156 964.214844 308 "/>
<path style="fill-rule:nonzero;fill:rgb(100%,51%,0%);fill-opacity:1;stroke-width:1;stroke-linecap:butt;stroke-linejoin:miter;stroke:rgb(0%,0%,0%);stroke-opacity:1;stroke-miterlimit:10;" d="M 504.214844 381 C 504.214844 392.714844 494.714844 402.214844 483 402.214844 C 471.285156 402.214844 461.785156 392.714844 461.785156 381 C 461.785156 369.285156 471.285156 359.785156 483 359.785156 C 494.714844 359.785156 504.214844 369.285156 504.214844 381 "/>
<path style="fill-rule:nonzero;fill:rgb(100%,51%,0%);fill-opacity:1;stroke-width:1;stroke-linecap:butt;stroke-linejoin:miter;stroke:rgb(0%,0%,0%);stroke-opacity:1;stroke-miterlimit:10;" d="M 798.214844 265 C 798.214844 276.714844 788.714844 286.214844 777 286.214844 C 765.285156 286.214844 755.785156 276.714844 755.785156 265 C 755.785156 253.285156 765.285156 243.785156 777 243.785156 C 788.714844 243.785156 798.214844 253.285156 798.214844 265 "/>
<path style="fill-rule:nonzero;fill:rgb(100%,51%,0%);fill-opacity:1;stroke-width:1;stroke-linecap:butt;stroke-linejoin:miter;stroke:rgb(0%,0%,0%);stroke-opacity:1;stroke-miterlimit:10;" d="M 349.214844 259 C 349.214844 270.714844 339.714844 280.214844 328 280.214844 C 316.285156 280.214844 306.785156 270.714844 306.785156 259 C 306.785156 247.285156 316.285156 237.785156 328 237.785156 C 339.714844 237.785156 349.214844 247.285156 349.214844 259 "/>
<path style="fill-rule:nonzero;fill:rgb(100%,51%,0%);fill-opacity:1;stroke-width:1;stroke-linecap:butt;stroke-linejoin:miter;stroke:rgb(0%,0%,0%);stroke-opacity:1;stroke-miterlimit:10;" d="M 165.214844 283 C 165.214844 294.714844 155.714844 304.214844 144 304.214844 C 132.285156 304.214844 122.785156 294.714844 122.785156 283 C 122.785156 271.285156 132.285156 261.785156 144 261.785156 C 155.714844 261.785156 165.214844 271.285156 165.214844 283 "/>
<path style="fill-rule:nonzero;fill:rgb(35%,70%,90%);fill-opacity:1;stroke-width:1;stroke-linecap:butt;stroke-linejoin:miter;stroke:rgb(0%,0%,0%);stroke-opacity:1;stroke-miterlimit:10;" d="M 859 205 L 888.664062 205 L 900.664062 176.785156 L 912.664062 205 L 942.332031 205 L 918.332031 222.4375 L 926.417969 253.980469 L 900.664062 236.542969 L 874.914062 253.980469 L 887.214844 222.4375 L 859 205 "/>
<path style="fill-rule:nonzero;fill:rgb(35%,70%,90%);fill-opacity:1;stroke-width:1;stroke-linecap:butt;stroke-linejoin:miter;stroke:rgb(0%,0%,0%);stroke-opacity:1;stroke-miterlimit:10;" d="M 462 90 L 491.664062 90 L 503.664062 61.785156 L 515.664062 90 L 545.332031 90 L 521.332031 107.4375 L 529.417969 138.980469 L 503.664062 121.542969 L 477.914062 138.980469 L 490.214844 107.4375 L 462 90 "/>
<path style="fill-rule:nonzero;fill:rgb(35%,70%,90%);fill-opacity:1;stroke-width:1;stroke-linecap:butt;stroke-linejoin:miter;stroke:rgb(0%,0%,0%);stroke-opacity:1;stroke-miterlimit:10;" d="M 318 169 L 347.664062 169 L 359.664062 140.785156 L 371.664062 169 L 401.332031 169 L 377.332031 186.4375 L 385.417969 217.980469 L 359.664062 200.542969 L 333.914062 217.980469 L 346.214844 186.4375 L 318 169 "/>
<path style="fill-rule:nonzero;fill:rgb(35%,70%,90%);fill-opacity:1;stroke-width:1;stroke-linecap:butt;stroke-linejoin:miter;stroke:rgb(0%,0%,0%);stroke-opacity:1;stroke-miterlimit:10;" d="M 101 366 L 130.664062 366 L 142.664062 337.785156 L 154.664062 366 L 184.332031 366 L 160.332031 383.4375 L 168.417969 414.980469 L 142.664062 397.542969 L 116.914062 414.980469 L 129.214844 383.4375 L 101 366 "/>
<path style="fill-rule:nonzero;fill:rgb(35%,70%,90%);fill-opacity:1;stroke-width:1;stroke-linecap:butt;stroke-linejoin:miter;stroke:rgb(0%,0%,0%);stroke-opacity:1;stroke-miterlimit:10;" d="M 656 456 L 685.664062 456 L 697.664062 427.785156 L 709.664062 456 L 739.332031 456 L 715.332031 473.4375 L 723.417969 504.980469 L 697.664062 487.542969 L 671.914062 504.980469 L 684.214844 473.4375 L 656 456 "/>
<path style="fill-rule:nonzero;fill:rgb(35%,70%,90%);fill-opacity:1;stroke-width:1;stroke-linecap:butt;stroke-linejoin:miter;stroke:rgb(0%,0%,0%);stroke-opacity:1;stroke-miterlimit:10;" d="M 51 202 L 80.664062 202 L 92.664062 173.785156 L 104.664062 202 L 134.332031 202 L 110.332031 219.4375 L 118.417969 250.980469 L 92.664062 233.542969 L 66.914062 250.980469 L 79.214844 219.4375 L 51 202 "/>
<path style="fill-rule:nonzero;fill:rgb(35%,70%,90%);fill-opacity:1;stroke-width:1;stroke-linecap:butt;stroke-linejoin:miter;stroke:rgb(0%,0%,0%);stroke-opacity:1;stroke-miterlimit:10;" d="M 537 214 L 566.664062 214 L 578.664062 185.785156 L 590.664062 214 L 620.332031 214 L 596.332031 231.4375 L 604.417969 262.980469 L 578.664062 245.542969 L 552.914062 262.980469 L 565.214844 231.4375 L 537 214 "/>
<path style="fill-rule:nonzero;fill:rgb(35%,70%,90%);fill-opacity:1;stroke-width:1;stroke-linecap:butt;stroke-linejoin:miter;stroke:rgb(0%,0%,0%);stroke-opacity:1;stroke-miterlimit:10;" d="M 274 392 L 303.664062 392 L 315.664062 363.785156 L 327.664062 392 L 357.332031 392 L 333.332031 409.4375 L 341.417969 440.980469 L 315.664062 423.542969 L 289.914062 440.980469 L 302.214844 409.4375 L 274 392 "/>
</g>
</svg>
