<?xml version="1.0" encoding="UTF-8"?>
<svg xmlns="http://www.w3.org/2000/svg" xmlns:xlink="http://www.w3.org/1999/xlink" width="1179pt" height="517pt" viewBox="0 0 1179 517" version="1.1">
<g id="surface76">
<rect x="0" y="0" width="1179" height="517" style="fill:rgb(90%,90%,90%);fill-opacity:1;stroke:none;"/>
<path style="fill-rule:nonzero;fill:rgb(35%,70%,90%);fill-opacity:1;stroke-width:1;stroke-linecap:butt;stroke-linejoin:miter;stroke:rgb(0%,0%,0%);stroke-opacity:1;stroke-miterlimit:10;" d="M 447.214844 322 C 447.214844 333.714844 437.714844 343.214844 426 343.214844 C 414.285156 343.214844 404.785156 333.714844 404.785156 322 C 404.785156 310.285156 414.285156 300.785156 426 300.785156 C 437.714844 300.785156 447.214844 310.285156 447.214844 322 "/>
<path style="fill-rule:nonzero;fill:rgb(35%,70%,90%);fill-opacity:1;stroke-width:1;stroke-linecap:butt;stroke-linejoin:miter;stroke:rgb(0%,0%,0%);stroke-opacity:1;stroke-miterlimit:10;" d="M 358.214844 399 C 358.214844 410.714844 348.714844 420.214844 337 420.214844 C 325.285156 420.214844 315.785156 410.714844 315.785156 399 C 315.785156 387.285156 325.285156 377.785156 337 377.785156 C 348.714844 377.785156 358.214844 387.285156 358.214844 399 "/>
<path style="fill-rule:nonzero;fill:rgb(35%,70%,90%);fill-opacity:1;stroke-width:1;stroke-linecap:butt;stroke-linejoin:miter;stroke:rgb(0%,0%,0%);stroke-opacity:1;stroke-miterlimit:10;" d="M 245 311 L 219.019531 356 L 270.980469 356 L 245 311 "/>
<path style="fill-rule:nonzero;fill:rgb(35%,70%,90%);fill-opacity:1;stroke-width:1;stroke-linecap:butt;stroke-linejoin:miter;stroke:rgb(0%,0%,0%);stroke-opacity:1;stroke-miterlimit:10;" d="M 166 94 L 140.019531 139 L 191.980469 139 L 166 94 "/>
<path style="fill-rule:nonzero;fill:rgb(35%,70%,90%);fill-opacity:1;stroke-width:1;stroke-linecap:butt;stroke-linejoin:miter;stroke:rgb(0%,0%,0%);stroke-opacity:1;stroke-miterlimit:10;" d="M 353.214844 221 C 353.214844 232.714844 343.714844 242.214844 332 242.214844 C 320.285156 242.214844 310.785156 232.714844 310.785156 221 C 310.785156 209.285156 320.285156 199.785156 332 199.785156 C 343.714844 199.785156 353.214844 209.285156 353.214844 221 "/>
<path style="fill-rule:nonzero;fill:rgb(35%,70%,90%);fill-opacity:1;stroke-width:1;stroke-linecap:butt;stroke-linejoin:miter;stroke:rgb(0%,0%,0%);stroke-opacity:1;stroke-miterlimit:10;" d="M 340.214844 103 C 340.214844 114.714844 330.714844 124.214844 319 124.214844 C 307.285156 124.214844 297.785156 114.714844 297.785156 103 C 297.785156 91.285156 307.285156 81.785156 319 81.785156 C 330.714844 81.785156 340.214844 91.285156 340.214844 103 "/>
<path style="fill-rule:nonzero;fill:rgb(35%,70%,90%);fill-opacity:1;stroke-width:1;stroke-linecap:butt;stroke-linejoin:miter;stroke:rgb(0%,0%,0%);stroke-opacity:1;stroke-miterlimit:10;" d="M 161.214844 304 C 161.214844 315.714844 151.714844 325.214844 140 325.214844 C 128.285156 325.214844 118.785156 315.714844 118.785156 304 C 118.785156 292.285156 128.285156 282.785156 140 282.785156 C 151.714844 282.785156 161.214844 292.285156 161.214844 304 "/>
<path style="fill-rule:nonzero;fill:rgb(35%,70%,90%);fill-opacity:1;stroke-width:1;stroke-linecap:butt;stroke-linejoin:miter;stroke:rgb(0%,0%,0%);stroke-opacity:1;stroke-miterlimit:10;" d="M 228.214844 240 C 228.214844 251.714844 218.714844 261.214844 207 261.214844 C 195.285156 261.214844 185.785156 251.714844 185.785156 240 C 185.785156 228.285156 195.285156 218.785156 207 218.785156 C 218.714844 218.785156 228.214844 228.285156 228.214844 240 "/>
<path style="fill-rule:nonzero;fill:rgb(55%,51%,53%);fill-opacity:1;stroke-width:1;stroke-linecap:butt;stroke-linejoin:miter;stroke:rgb(0%,0%,0%);stroke-opacity:1;stroke-miterlimit:10;" d="M 778 369 L 752.019531 414 L 803.980469 414 L 778 369 "/>
<path style="fill-rule:nonzero;fill:rgb(55%,51%,53%);fill-opacity:1;stroke-width:1;stroke-linecap:butt;stroke-linejoin:miter;stroke:rgb(0%,0%,0%);stroke-opacity:1;stroke-miterlimit:10;" d="M 705 89 L 679.019531 134 L 730.980469 134 L 705 89 "/>
<path style="fill-rule:nonzero;fill:rgb(55%,51%,53%);fill-opacity:1;stroke-width:1;stroke-linecap:butt;stroke-linejoin:miter;stroke:rgb(0%,0%,0%);stroke-opacity:1;stroke-miterlimit:10;" d="M 969.214844 169 C 969.214844 180.714844 959.714844 190.214844 948 190.214844 C 936.285156 190.214844 926.785156 180.714844 926.785156 169 C 926.785156 157.285156 936.285156 147.785156 948 147.785156 C 959.714844 147.785156 969.214844 157.285156 969.214844 169 "/>
<path style="fill-rule:nonzero;fill:rgb(55%,51%,53%);fill-opacity:1;stroke-width:1;stroke-linecap:butt;stroke-linejoin:miter;stroke:rgb(0%,0%,0%);stroke-opacity:1;stroke-miterlimit:10;" d="M 864.214844 286 C 864.214844 297.714844 854.714844 307.214844 843 307.214844 C 831.285156 307.214844 821.785156 297.714844 821.785156 286 C 821.785156 274.285156 831.285156 264.785156 843 264.785156 C 854.714844 264.785156 864.214844 274.285156 864.214844 286 "/>
<path style="fill-rule:nonzero;fill:rgb(55%,51%,53%);fill-opacity:1;stroke-width:1;stroke-linecap:butt;stroke-linejoin:miter;stroke:rgb(0%,0%,0%);stroke-opacity:1;stroke-miterlimit:10;" d="M 1003 370 L 977.019531 415 L 1028.980469 415 L 1003 370 "/>
<path style="fill-rule:nonzero;fill:rgb(55%,51%,53%);fill-opacity:1;stroke-width:1;stroke-linecap:butt;stroke-linejoin:miter;stroke:rgb(0%,0%,0%);stroke-opacity:1;stroke-miterlimit:10;" d="M 1013 225 L 987.019531 270 L 1038.980469 270 L 1013 225 "/>
<path style="fill-rule:nonzero;fill:rgb(55%,51%,53%);fill-opacity:1;stroke-width:1;stroke-linecap:butt;stroke-linejoin:miter;stroke:rgb(0%,0%,0%);stroke-opacity:1;stroke-miterlimit:10;" d="M 743 226 L 717.019531 271 L 768.980469 271 L 743 226 "/>
<path style="fill-rule:nonzero;fill:rgb(55%,51%,53%);fill-opacity:1;stroke-width:1;stroke-linecap:butt;stroke-linejoin:miter;stroke:rgb(0%,0%,0%);stroke-opacity:1;stroke-miterlimit:10;" d="M 998 55 L 972.019531 100 L 1023.980469 100 L 998 55 "/>
</g>
</svg>
