<?xml version="1.0" encoding="UTF-8"?>
<svg xmlns="http://www.w3.org/2000/svg" xmlns:xlink="http://www.w3.org/1999/xlink" width="1129pt" height="517pt" viewBox="0 0 1129 517" version="1.1">
<g id="surface501">
<rect x="0" y="0" width="1129" height="517" style="fill:rgb(90%,90%,90%);fill-opacity:1;stroke:none;"/>
<path style="fill-rule:nonzero;fill:rgb(100%,51%,0%);fill-opacity:1;stroke-width:1;stroke-linecap:butt;stroke-linejoin:miter;stroke:rgb(0%,0%,0%);stroke-opacity:1;stroke-miterlimit:10;" d="M 224.214844 164 C 224.214844 175.714844 214.714844 185.214844 203 185.214844 C 191.285156 185.214844 181.785156 175.714844 181.785156 164 C 181.785156 152.285156 191.285156 142.785156 203 142.785156 C 214.714844 142.785156 224.214844 152.285156 224.214844 164 "/>
<path style="fill-rule:nonzero;fill:rgb(100%,51%,0%);fill-opacity:1;stroke-width:1;stroke-linecap:butt;stroke-linejoin:miter;stroke:rgb(0%,0%,0%);stroke-opacity:1;stroke-miterlimit:10;" d="M 126.214844 56 C 126.214844 67.714844 116.714844 77.214844 105 77.214844 C 93.285156 77.214844 83.785156 67.714844 83.785156 56 C 83.785156 44.285156 93.285156 34.785156 105 34.785156 C 116.714844 34.785156 126.214844 44.285156 126.214844 56 "/>
<path style="fill-rule:nonzero;fill:rgb(55%,51%,53%);fill-opacity:1;stroke-width:1;stroke-linecap:butt;stroke-linejoin:miter;stroke:rgb(0%,0%,0%);stroke-opacity:1;stroke-miterlimit:10;" d="M 156.214844 409 C 156.214844 420.714844 146.714844 430.214844 135 430.214844 C 123.285156 430.214844 113.785156 420.714844 113.785156 409 C 113.785156 397.285156 123.285156 387.785156 135 387.785156 C 146.714844 387.785156 156.214844 397.285156 156.214844 409 "/>
<path style="fill-rule:nonzero;fill:rgb(55%,51%,53%);fill-opacity:1;stroke-width:1;stroke-linecap:butt;stroke-linejoin:miter;stroke:rgb(0%,0%,0%);stroke-opacity:1;stroke-miterlimit:10;" d="M 475.214844 186 C 475.214844 197.714844 465.714844 207.214844 454 207.214844 C 442.285156 207.214844 432.785156 197.714844 432.785156 186 C 432.785156 174.285156 442.285156 164.785156 454 164.785156 C 465.714844 164.785156 475.214844 174.285156 475.214844 186 "/>
<path style="fill-rule:nonzero;fill:rgb(100%,51%,0%);fill-opacity:1;stroke-width:1;stroke-linecap:butt;stroke-linejoin:miter;stroke:rgb(0%,0%,0%);stroke-opacity:1;stroke-miterlimit:10;" d="M 100.214844 306 C 100.214844 317.714844 90.714844 327.214844 79 327.214844 C 67.285156 327.214844 57.785156 317.714844 57.785156 306 C 57.785156 294.285156 67.285156 284.785156 79 284.785156 C 90.714844 284.785156 100.214844 294.285156 100.214844 306 "/>
<path style="fill-rule:nonzero;fill:rgb(55%,51%,53%);fill-opacity:1;stroke-width:1;stroke-linecap:butt;stroke-linejoin:miter;stroke:rgb(0%,0%,0%);stroke-opacity:1;stroke-miterlimit:10;" d="M 686.785156 343.785156 L 686.785156 386.214844 L 729.214844 386.214844 L 729.214844 343.785156 L 686.785156 343.785156 "/>
<path style="fill-rule:nonzero;fill:rgb(55%,51%,53%);fill-opacity:1;stroke-width:1;stroke-linecap:butt;stroke-linejoin:miter;stroke:rgb(0%,0%,0%);stroke-opacity:1;stroke-miterlimit:10;" d="M 978.785156 77.785156 L 978.785156 120.214844 L 1021.214844 120.214844 L 1021.214844 77.785156 L 978.785156 77.785156 "/>
<path style="fill-rule:nonzero;fill:rgb(100%,51%,0%);fill-opacity:1;stroke-width:1;stroke-linecap:butt;stroke-linejoin:miter;stroke:rgb(0%,0%,0%);stroke-opacity:1;stroke-miterlimit:10;" d="M 990.785156 187.785156 L 990.785156 230.214844 L 1033.214844 230.214844 L 1033.214844 187.785156 L 990.785156 187.785156 "/>
<path style="fill-rule:nonzero;fill:rgb(100%,51%,0%);fill-opacity:1;stroke-width:1;stroke-linecap:butt;stroke-linejoin:miter;stroke:rgb(0%,0%,0%);stroke-opacity:1;stroke-miterlimit:10;" d="M 598.785156 217.785156 L 598.785156 260.214844 L 641.214844 260.214844 L 641.214844 217.785156 L 598.785156 217.785156 "/>
</g>
</svg>
