<?xml version="1.0" encoding="UTF-8"?>
<svg xmlns="http://www.w3.org/2000/svg" xmlns:xlink="http://www.w3.org/1999/xlink" width="1129pt" height="517pt" viewBox="0 0 1129 517" version="1.1">
<g id="surface261">
<rect x="0" y="0" width="1129" height="517" style="fill:rgb(90%,90%,90%);fill-opacity:1;stroke:none;"/>
<path style="fill-rule:nonzero;fill:rgb(35%,70%,90%);fill-opacity:1;stroke-width:1;stroke-linecap:butt;stroke-linejoin:miter;stroke:rgb(0%,0%,0%);stroke-opacity:1;stroke-miterlimit:10;" d="M 179.214844 167 C 179.214844 178.714844 169.714844 188.214844 158 188.214844 C 146.285156 188.214844 136.785156 178.714844 136.785156 167 C 136.785156 155.285156 146.285156 145.785156 158 145.785156 C 169.714844 145.785156 179.214844 155.285156 179.214844 167 "/>
<path style="fill-rule:nonzero;fill:rgb(35%,70%,90%);fill-opacity:1;stroke-width:1;stroke-linecap:butt;stroke-linejoin:miter;stroke:rgb(0%,0%,0%);stroke-opacity:1;stroke-miterlimit:10;" d="M 278.214844 171 C 278.214844 182.714844 268.714844 192.214844 257 192.214844 C 245.285156 192.214844 235.785156 182.714844 235.785156 171 C 235.785156 159.285156 245.285156 149.785156 257 149.785156 C 268.714844 149.785156 278.214844 159.285156 278.214844 171 "/>
<path style="fill-rule:nonzero;fill:rgb(35%,70%,90%);fill-opacity:1;stroke-width:1;stroke-linecap:butt;stroke-linejoin:miter;stroke:rgb(0%,0%,0%);stroke-opacity:1;stroke-miterlimit:10;" d="M 322.214844 48 C 322.214844 59.714844 312.714844 69.214844 301 69.214844 C 289.285156 69.214844 279.785156 59.714844 279.785156 48 C 279.785156 36.285156 289.285156 26.785156 301 26.785156 C 312.714844 26.785156 322.214844 36.285156 322.214844 48 "/>
<path style="fill-rule:nonzero;fill:rgb(55%,51%,53%);fill-opacity:1;stroke-width:1;stroke-linecap:butt;stroke-linejoin:miter;stroke:rgb(0%,0%,0%);stroke-opacity:1;stroke-miterlimit:10;" d="M 232.214844 76 C 232.214844 87.714844 222.714844 97.214844 211 97.214844 C 199.285156 97.214844 189.785156 87.714844 189.785156 76 C 189.785156 64.285156 199.285156 54.785156 211 54.785156 C 222.714844 54.785156 232.214844 64.285156 232.214844 76 "/>
<path style="fill-rule:nonzero;fill:rgb(55%,51%,53%);fill-opacity:1;stroke-width:1;stroke-linecap:butt;stroke-linejoin:miter;stroke:rgb(0%,0%,0%);stroke-opacity:1;stroke-miterlimit:10;" d="M 752.785156 275.785156 L 752.785156 318.214844 L 795.214844 318.214844 L 795.214844 275.785156 L 752.785156 275.785156 "/>
<path style="fill-rule:nonzero;fill:rgb(55%,51%,53%);fill-opacity:1;stroke-width:1;stroke-linecap:butt;stroke-linejoin:miter;stroke:rgb(0%,0%,0%);stroke-opacity:1;stroke-miterlimit:10;" d="M 934.785156 168.785156 L 934.785156 211.214844 L 977.214844 211.214844 L 977.214844 168.785156 L 934.785156 168.785156 "/>
<path style="fill-rule:nonzero;fill:rgb(55%,51%,53%);fill-opacity:1;stroke-width:1;stroke-linecap:butt;stroke-linejoin:miter;stroke:rgb(0%,0%,0%);stroke-opacity:1;stroke-miterlimit:10;" d="M 581.785156 79.785156 L 581.785156 122.214844 L 624.214844 122.214844 L 624.214844 79.785156 L 581.785156 79.785156 "/>
</g>
</svg>
