<?xml version="1.0" encoding="UTF-8"?>
<svg xmlns="http://www.w3.org/2000/svg" xmlns:xlink="http://www.w3.org/1999/xlink" width="1129pt" height="517pt" viewBox="0 0 1129 517" version="1.1">
<g id="surface291">
<rect x="0" y="0" width="1129" height="517" style="fill:rgb(90%,90%,90%);fill-opacity:1;stroke:none;"/>
<path style="fill-rule:nonzero;fill:rgb(100%,51%,0%);fill-opacity:1;stroke-width:1;stroke-linecap:butt;stroke-linejoin:miter;stroke:rgb(0%,0%,0%);stroke-opacity:1;stroke-miterlimit:10;" d="M 459.214844 124 C 459.214844 135.714844 449.714844 145.214844 438 145.214844 C 426.285156 145.214844 416.785156 135.714844 416.785156 124 C 416.785156 112.285156 426.285156 102.785156 438 102.785156 C 449.714844 102.785156 459.214844 112.285156 459.214844 124 "/>
<path style="fill-rule:nonzero;fill:rgb(53%,27%,7%);fill-opacity:1;stroke-width:1;stroke-linecap:butt;stroke-linejoin:miter;stroke:rgb(0%,0%,0%);stroke-opacity:1;stroke-miterlimit:10;" d="M 321.214844 46 C 321.214844 57.714844 311.714844 67.214844 300 67.214844 C 288.285156 67.214844 278.785156 57.714844 278.785156 46 C 278.785156 34.285156 288.285156 24.785156 300 24.785156 C 311.714844 24.785156 321.214844 34.285156 321.214844 46 "/>
<path style="fill-rule:nonzero;fill:rgb(100%,51%,0%);fill-opacity:1;stroke-width:1;stroke-linecap:butt;stroke-linejoin:miter;stroke:rgb(0%,0%,0%);stroke-opacity:1;stroke-miterlimit:10;" d="M 195.214844 298 C 195.214844 309.714844 185.714844 319.214844 174 319.214844 C 162.285156 319.214844 152.785156 309.714844 152.785156 298 C 152.785156 286.285156 162.285156 276.785156 174 276.785156 C 185.714844 276.785156 195.214844 286.285156 195.214844 298 "/>
<path style="fill-rule:nonzero;fill:rgb(53%,27%,7%);fill-opacity:1;stroke-width:1;stroke-linecap:butt;stroke-linejoin:miter;stroke:rgb(0%,0%,0%);stroke-opacity:1;stroke-miterlimit:10;" d="M 732.785156 429.785156 L 732.785156 472.214844 L 775.214844 472.214844 L 775.214844 429.785156 L 732.785156 429.785156 "/>
<path style="fill-rule:nonzero;fill:rgb(100%,51%,0%);fill-opacity:1;stroke-width:1;stroke-linecap:butt;stroke-linejoin:miter;stroke:rgb(0%,0%,0%);stroke-opacity:1;stroke-miterlimit:10;" d="M 588.785156 441.785156 L 588.785156 484.214844 L 631.214844 484.214844 L 631.214844 441.785156 L 588.785156 441.785156 "/>
<path style="fill-rule:nonzero;fill:rgb(53%,27%,7%);fill-opacity:1;stroke-width:1;stroke-linecap:butt;stroke-linejoin:miter;stroke:rgb(0%,0%,0%);stroke-opacity:1;stroke-miterlimit:10;" d="M 726.785156 330.785156 L 726.785156 373.214844 L 769.214844 373.214844 L 769.214844 330.785156 L 726.785156 330.785156 "/>
<path style="fill-rule:nonzero;fill:rgb(100%,51%,0%);fill-opacity:1;stroke-width:1;stroke-linecap:butt;stroke-linejoin:miter;stroke:rgb(0%,0%,0%);stroke-opacity:1;stroke-miterlimit:10;" d="M 852.785156 35.785156 L 852.785156 78.214844 L 895.214844 78.214844 L 895.214844 35.785156 L 852.785156 35.785156 "/>
<path style="fill-rule:nonzero;fill:rgb(53%,27%,7%);fill-opacity:1;stroke-width:1;stroke-linecap:butt;stroke-linejoin:miter;stroke:rgb(0%,0%,0%);stroke-opacity:1;stroke-miterlimit:10;" d="M 897.785156 333.785156 L 897.785156 376.214844 L 940.214844 376.214844 L 940.214844 333.785156 L 897.785156 333.785156 "/>
<path style="fill-rule:nonzero;fill:rgb(53%,27%,7%);fill-opacity:1;stroke-width:1;stroke-linecap:butt;stroke-linejoin:miter;stroke:rgb(0%,0%,0%);stroke-opacity:1;stroke-miterlimit:10;" d="M 745.785156 71.785156 L 745.785156 114.214844 L 788.214844 114.214844 L 788.214844 71.785156 L 745.785156 71.785156 "/>
</g>
</svg>
