<?xml version="1.0" encoding="UTF-8"?>
<svg xmlns="http://www.w3.org/2000/svg" xmlns:xlink="http://www.w3.org/1999/xlink" width="1129pt" height="517pt" viewBox="0 0 1129 517" version="1.1">
<g id="surface481">
<rect x="0" y="0" width="1129" height="517" style="fill:rgb(90%,90%,90%);fill-opacity:1;stroke:none;"/>
<path style="fill-rule:nonzero;fill:rgb(100%,51%,0%);fill-opacity:1;stroke-width:1;stroke-linecap:butt;stroke-linejoin:miter;stroke:rgb(0%,0%,0%);stroke-opacity:1;stroke-miterlimit:10;" d="M 258 40 L 287.664062 40 L 299.664062 11.785156 L 311.664062 40 L 341.332031 40 L 317.332031 57.4375 L 325.417969 88.980469 L 299.664062 71.542969 L 273.914062 88.980469 L 286.214844 57.4375 L 258 40 "/>
<path style="fill-rule:nonzero;fill:rgb(100%,51%,0%);fill-opacity:1;stroke-width:1;stroke-linecap:butt;stroke-linejoin:miter;stroke:rgb(0%,0%,0%);stroke-opacity:1;stroke-miterlimit:10;" d="M 730 99 L 759.664062 99 L 771.664062 70.785156 L 783.664062 99 L 813.332031 99 L 789.332031 116.4375 L 797.417969 147.980469 L 771.664062 130.542969 L 745.914062 147.980469 L 758.214844 116.4375 L 730 99 "/>
<path style="fill-rule:nonzero;fill:rgb(100%,51%,0%);fill-opacity:1;stroke-width:1;stroke-linecap:butt;stroke-linejoin:miter;stroke:rgb(0%,0%,0%);stroke-opacity:1;stroke-miterlimit:10;" d="M 681 358 L 710.664062 358 L 722.664062 329.785156 L 734.664062 358 L 764.332031 358 L 740.332031 375.4375 L 748.417969 406.980469 L 722.664062 389.542969 L 696.914062 406.980469 L 709.214844 375.4375 L 681 358 "/>
<path style="fill-rule:nonzero;fill:rgb(100%,51%,0%);fill-opacity:1;stroke-width:1;stroke-linecap:butt;stroke-linejoin:miter;stroke:rgb(0%,0%,0%);stroke-opacity:1;stroke-miterlimit:10;" d="M 545 268 L 574.664062 268 L 586.664062 239.785156 L 598.664062 268 L 628.332031 268 L 604.332031 285.4375 L 612.417969 316.980469 L 586.664062 299.542969 L 560.914062 316.980469 L 573.214844 285.4375 L 545 268 "/>
<path style="fill-rule:nonzero;fill:rgb(100%,51%,0%);fill-opacity:1;stroke-width:1;stroke-linecap:butt;stroke-linejoin:miter;stroke:rgb(0%,0%,0%);stroke-opacity:1;stroke-miterlimit:10;" d="M 207 425 L 236.664062 425 L 248.664062 396.785156 L 260.664062 425 L 290.332031 425 L 266.332031 442.4375 L 274.417969 473.980469 L 248.664062 456.542969 L 222.914062 473.980469 L 235.214844 442.4375 L 207 425 "/>
<path style="fill-rule:nonzero;fill:rgb(100%,51%,0%);fill-opacity:1;stroke-width:1;stroke-linecap:butt;stroke-linejoin:miter;stroke:rgb(0%,0%,0%);stroke-opacity:1;stroke-miterlimit:10;" d="M 514 179 L 543.664062 179 L 555.664062 150.785156 L 567.664062 179 L 597.332031 179 L 573.332031 196.4375 L 581.417969 227.980469 L 555.664062 210.542969 L 529.914062 227.980469 L 542.214844 196.4375 L 514 179 "/>
<path style="fill-rule:nonzero;fill:rgb(55%,51%,53%);fill-opacity:1;stroke-width:1;stroke-linecap:butt;stroke-linejoin:miter;stroke:rgb(0%,0%,0%);stroke-opacity:1;stroke-miterlimit:10;" d="M 828.214844 438 C 828.214844 449.714844 818.714844 459.214844 807 459.214844 C 795.285156 459.214844 785.785156 449.714844 785.785156 438 C 785.785156 426.285156 795.285156 416.785156 807 416.785156 C 818.714844 416.785156 828.214844 426.285156 828.214844 438 "/>
<path style="fill-rule:nonzero;fill:rgb(55%,51%,53%);fill-opacity:1;stroke-width:1;stroke-linecap:butt;stroke-linejoin:miter;stroke:rgb(0%,0%,0%);stroke-opacity:1;stroke-miterlimit:10;" d="M 729.214844 445 C 729.214844 456.714844 719.714844 466.214844 708 466.214844 C 696.285156 466.214844 686.785156 456.714844 686.785156 445 C 686.785156 433.285156 696.285156 423.785156 708 423.785156 C 719.714844 423.785156 729.214844 433.285156 729.214844 445 "/>
<path style="fill-rule:nonzero;fill:rgb(55%,51%,53%);fill-opacity:1;stroke-width:1;stroke-linecap:butt;stroke-linejoin:miter;stroke:rgb(0%,0%,0%);stroke-opacity:1;stroke-miterlimit:10;" d="M 981.214844 143 C 981.214844 154.714844 971.714844 164.214844 960 164.214844 C 948.285156 164.214844 938.785156 154.714844 938.785156 143 C 938.785156 131.285156 948.285156 121.785156 960 121.785156 C 971.714844 121.785156 981.214844 131.285156 981.214844 143 "/>
<path style="fill-rule:nonzero;fill:rgb(55%,51%,53%);fill-opacity:1;stroke-width:1;stroke-linecap:butt;stroke-linejoin:miter;stroke:rgb(0%,0%,0%);stroke-opacity:1;stroke-miterlimit:10;" d="M 395.214844 446 C 395.214844 457.714844 385.714844 467.214844 374 467.214844 C 362.285156 467.214844 352.785156 457.714844 352.785156 446 C 352.785156 434.285156 362.285156 424.785156 374 424.785156 C 385.714844 424.785156 395.214844 434.285156 395.214844 446 "/>
<path style="fill-rule:nonzero;fill:rgb(55%,51%,53%);fill-opacity:1;stroke-width:1;stroke-linecap:butt;stroke-linejoin:miter;stroke:rgb(0%,0%,0%);stroke-opacity:1;stroke-miterlimit:10;" d="M 954.214844 246 C 954.214844 257.714844 944.714844 267.214844 933 267.214844 C 921.285156 267.214844 911.785156 257.714844 911.785156 246 C 911.785156 234.285156 921.285156 224.785156 933 224.785156 C 944.714844 224.785156 954.214844 234.285156 954.214844 246 "/>
</g>
</svg>
