<?xml version="1.0" encoding="UTF-8"?>
<svg xmlns="http://www.w3.org/2000/svg" xmlns:xlink="http://www.w3.org/1999/xlink" width="1129pt" height="517pt" viewBox="0 0 1129 517" version="1.1">
<g id="surface646">
<rect x="0" y="0" width="1129" height="517" style="fill:rgb(90%,90%,90%);fill-opacity:1;stroke:none;"/>
<path style="fill-rule:nonzero;fill:rgb(100%,51%,0%);fill-opacity:1;stroke-width:1;stroke-linecap:butt;stroke-linejoin:miter;stroke:rgb(0%,0%,0%);stroke-opacity:1;stroke-miterlimit:10;" d="M 176.214844 73 C 176.214844 84.714844 166.714844 94.214844 155 94.214844 C 143.285156 94.214844 133.785156 84.714844 133.785156 73 C 133.785156 61.285156 143.285156 51.785156 155 51.785156 C 166.714844 51.785156 176.214844 61.285156 176.214844 73 "/>
<path style="fill-rule:nonzero;fill:rgb(53%,27%,7%);fill-opacity:1;stroke-width:1;stroke-linecap:butt;stroke-linejoin:miter;stroke:rgb(0%,0%,0%);stroke-opacity:1;stroke-miterlimit:10;" d="M 445.214844 458 C 445.214844 469.714844 435.714844 479.214844 424 479.214844 C 412.285156 479.214844 402.785156 469.714844 402.785156 458 C 402.785156 446.285156 412.285156 436.785156 424 436.785156 C 435.714844 436.785156 445.214844 446.285156 445.214844 458 "/>
<path style="fill-rule:nonzero;fill:rgb(100%,51%,0%);fill-opacity:1;stroke-width:1;stroke-linecap:butt;stroke-linejoin:miter;stroke:rgb(0%,0%,0%);stroke-opacity:1;stroke-miterlimit:10;" d="M 218.214844 221 C 218.214844 232.714844 208.714844 242.214844 197 242.214844 C 185.285156 242.214844 175.785156 232.714844 175.785156 221 C 175.785156 209.285156 185.285156 199.785156 197 199.785156 C 208.714844 199.785156 218.214844 209.285156 218.214844 221 "/>
<path style="fill-rule:nonzero;fill:rgb(53%,27%,7%);fill-opacity:1;stroke-width:1;stroke-linecap:butt;stroke-linejoin:miter;stroke:rgb(0%,0%,0%);stroke-opacity:1;stroke-miterlimit:10;" d="M 404.214844 89 C 404.214844 100.714844 394.714844 110.214844 383 110.214844 C 371.285156 110.214844 361.785156 100.714844 361.785156 89 C 361.785156 77.285156 371.285156 67.785156 383 67.785156 C 394.714844 67.785156 404.214844 77.285156 404.214844 89 "/>
<path style="fill-rule:nonzero;fill:rgb(100%,51%,0%);fill-opacity:1;stroke-width:1;stroke-linecap:butt;stroke-linejoin:miter;stroke:rgb(0%,0%,0%);stroke-opacity:1;stroke-miterlimit:10;" d="M 171.214844 367 C 171.214844 378.714844 161.714844 388.214844 150 388.214844 C 138.285156 388.214844 128.785156 378.714844 128.785156 367 C 128.785156 355.285156 138.285156 345.785156 150 345.785156 C 161.714844 345.785156 171.214844 355.285156 171.214844 367 "/>
<path style="fill-rule:nonzero;fill:rgb(53%,27%,7%);fill-opacity:1;stroke-width:1;stroke-linecap:butt;stroke-linejoin:miter;stroke:rgb(0%,0%,0%);stroke-opacity:1;stroke-miterlimit:10;" d="M 106 129 L 80.019531 174 L 131.980469 174 L 106 129 "/>
</g>
</svg>
