<?xml version="1.0" encoding="UTF-8"?>
<svg xmlns="http://www.w3.org/2000/svg" xmlns:xlink="http://www.w3.org/1999/xlink" width="1129pt" height="517pt" viewBox="0 0 1129 517" version="1.1">
<g id="surface316">
<rect x="0" y="0" width="1129" height="517" style="fill:rgb(90%,90%,90%);fill-opacity:1;stroke:none;"/>
<path style="fill-rule:nonzero;fill:rgb(100%,51%,0%);fill-opacity:1;stroke-width:1;stroke-linecap:butt;stroke-linejoin:miter;stroke:rgb(0%,0%,0%);stroke-opacity:1;stroke-miterlimit:10;" d="M 462.214844 64 C 462.214844 75.714844 452.714844 85.214844 441 85.214844 C 429.285156 85.214844 419.785156 75.714844 419.785156 64 C 419.785156 52.285156 429.285156 42.785156 441 42.785156 C 452.714844 42.785156 462.214844 52.285156 462.214844 64 "/>
<path style="fill-rule:nonzero;fill:rgb(55%,51%,53%);fill-opacity:1;stroke-width:1;stroke-linecap:butt;stroke-linejoin:miter;stroke:rgb(0%,0%,0%);stroke-opacity:1;stroke-miterlimit:10;" d="M 300.214844 290 C 300.214844 301.714844 290.714844 311.214844 279 311.214844 C 267.285156 311.214844 257.785156 301.714844 257.785156 290 C 257.785156 278.285156 267.285156 268.785156 279 268.785156 C 290.714844 268.785156 300.214844 278.285156 300.214844 290 "/>
<path style="fill-rule:nonzero;fill:rgb(100%,51%,0%);fill-opacity:1;stroke-width:1;stroke-linecap:butt;stroke-linejoin:miter;stroke:rgb(0%,0%,0%);stroke-opacity:1;stroke-miterlimit:10;" d="M 131.214844 423 C 131.214844 434.714844 121.714844 444.214844 110 444.214844 C 98.285156 444.214844 88.785156 434.714844 88.785156 423 C 88.785156 411.285156 98.285156 401.785156 110 401.785156 C 121.714844 401.785156 131.214844 411.285156 131.214844 423 "/>
<path style="fill-rule:nonzero;fill:rgb(55%,51%,53%);fill-opacity:1;stroke-width:1;stroke-linecap:butt;stroke-linejoin:miter;stroke:rgb(0%,0%,0%);stroke-opacity:1;stroke-miterlimit:10;" d="M 218.214844 105 C 218.214844 116.714844 208.714844 126.214844 197 126.214844 C 185.285156 126.214844 175.785156 116.714844 175.785156 105 C 175.785156 93.285156 185.285156 83.785156 197 83.785156 C 208.714844 83.785156 218.214844 93.285156 218.214844 105 "/>
<path style="fill-rule:nonzero;fill:rgb(100%,51%,0%);fill-opacity:1;stroke-width:1;stroke-linecap:butt;stroke-linejoin:miter;stroke:rgb(0%,0%,0%);stroke-opacity:1;stroke-miterlimit:10;" d="M 431.214844 450 C 431.214844 461.714844 421.714844 471.214844 410 471.214844 C 398.285156 471.214844 388.785156 461.714844 388.785156 450 C 388.785156 438.285156 398.285156 428.785156 410 428.785156 C 421.714844 428.785156 431.214844 438.285156 431.214844 450 "/>
<path style="fill-rule:nonzero;fill:rgb(100%,51%,0%);fill-opacity:1;stroke-width:1;stroke-linecap:butt;stroke-linejoin:miter;stroke:rgb(0%,0%,0%);stroke-opacity:1;stroke-miterlimit:10;" d="M 460.214844 226 C 460.214844 237.714844 450.714844 247.214844 439 247.214844 C 427.285156 247.214844 417.785156 237.714844 417.785156 226 C 417.785156 214.285156 427.285156 204.785156 439 204.785156 C 450.714844 204.785156 460.214844 214.285156 460.214844 226 "/>
<path style="fill-rule:nonzero;fill:rgb(100%,51%,0%);fill-opacity:1;stroke-width:1;stroke-linecap:butt;stroke-linejoin:miter;stroke:rgb(0%,0%,0%);stroke-opacity:1;stroke-miterlimit:10;" d="M 399.214844 349 C 399.214844 360.714844 389.714844 370.214844 378 370.214844 C 366.285156 370.214844 356.785156 360.714844 356.785156 349 C 356.785156 337.285156 366.285156 327.785156 378 327.785156 C 389.714844 327.785156 399.214844 337.285156 399.214844 349 "/>
<path style="fill-rule:nonzero;fill:rgb(55%,51%,53%);fill-opacity:1;stroke-width:1;stroke-linecap:butt;stroke-linejoin:miter;stroke:rgb(0%,0%,0%);stroke-opacity:1;stroke-miterlimit:10;" d="M 60 197 L 34.019531 242 L 85.980469 242 L 60 197 "/>
</g>
</svg>
