<?xml version="1.0" encoding="UTF-8"?>
<svg xmlns="http://www.w3.org/2000/svg" xmlns:xlink="http://www.w3.org/1999/xlink" width="1129pt" height="517pt" viewBox="0 0 1129 517" version="1.1">
<g id="surface701">
<rect x="0" y="0" width="1129" height="517" style="fill:rgb(90%,90%,90%);fill-opacity:1;stroke:none;"/>
<path style="fill-rule:nonzero;fill:rgb(55%,51%,53%);fill-opacity:1;stroke-width:1;stroke-linecap:butt;stroke-linejoin:miter;stroke:rgb(0%,0%,0%);stroke-opacity:1;stroke-miterlimit:10;" d="M 240 220 L 269.664062 220 L 281.664062 191.785156 L 293.664062 220 L 323.332031 220 L 299.332031 237.4375 L 307.417969 268.980469 L 281.664062 251.542969 L 255.914062 268.980469 L 268.214844 237.4375 L 240 220 "/>
<path style="fill-rule:nonzero;fill:rgb(55%,51%,53%);fill-opacity:1;stroke-width:1;stroke-linecap:butt;stroke-linejoin:miter;stroke:rgb(0%,0%,0%);stroke-opacity:1;stroke-miterlimit:10;" d="M 319 119 L 348.664062 119 L 360.664062 90.785156 L 372.664062 119 L 402.332031 119 L 378.332031 136.4375 L 386.417969 167.980469 L 360.664062 150.542969 L 334.914062 167.980469 L 347.214844 136.4375 L 319 119 "/>
<path style="fill-rule:nonzero;fill:rgb(55%,51%,53%);fill-opacity:1;stroke-width:1;stroke-linecap:butt;stroke-linejoin:miter;stroke:rgb(0%,0%,0%);stroke-opacity:1;stroke-miterlimit:10;" d="M 345 385 L 374.664062 385 L 386.664062 356.785156 L 398.664062 385 L 428.332031 385 L 404.332031 402.4375 L 412.417969 433.980469 L 386.664062 416.542969 L 360.914062 433.980469 L 373.214844 402.4375 L 345 385 "/>
<path style="fill-rule:nonzero;fill:rgb(53%,27%,7%);fill-opacity:1;stroke-width:1;stroke-linecap:butt;stroke-linejoin:miter;stroke:rgb(0%,0%,0%);stroke-opacity:1;stroke-miterlimit:10;" d="M 103 351 L 132.664062 351 L 144.664062 322.785156 L 156.664062 351 L 186.332031 351 L 162.332031 368.4375 L 170.417969 399.980469 L 144.664062 382.542969 L 118.914062 399.980469 L 131.214844 368.4375 L 103 351 "/>
<path style="fill-rule:nonzero;fill:rgb(53%,27%,7%);fill-opacity:1;stroke-width:1;stroke-linecap:butt;stroke-linejoin:miter;stroke:rgb(0%,0%,0%);stroke-opacity:1;stroke-miterlimit:10;" d="M 405.785156 160.785156 L 405.785156 203.214844 L 448.214844 203.214844 L 448.214844 160.785156 L 405.785156 160.785156 "/>
</g>
</svg>
