<?xml version="1.0" encoding="UTF-8"?>
<svg xmlns="http://www.w3.org/2000/svg" xmlns:xlink="http://www.w3.org/1999/xlink" width="1129pt" height="517pt" viewBox="0 0 1129 517" version="1.1">
<g id="surface601">
<rect x="0" y="0" width="1129" height="517" style="fill:rgb(90%,90%,90%);fill-opacity:1;stroke:none;"/>
<path style="fill-rule:nonzero;fill:rgb(35%,70%,90%);fill-opacity:1;stroke-width:1;stroke-linecap:butt;stroke-linejoin:miter;stroke:rgb(0%,0%,0%);stroke-opacity:1;stroke-miterlimit:10;" d="M 666 352 L 695.664062 352 L 707.664062 323.785156 L 719.664062 352 L 749.332031 352 L 725.332031 369.4375 L 733.417969 400.980469 L 707.664062 383.542969 L 681.914062 400.980469 L 694.214844 369.4375 L 666 352 "/>
<path style="fill-rule:nonzero;fill:rgb(35%,70%,90%);fill-opacity:1;stroke-width:1;stroke-linecap:butt;stroke-linejoin:miter;stroke:rgb(0%,0%,0%);stroke-opacity:1;stroke-miterlimit:10;" d="M 313 447 L 342.664062 447 L 354.664062 418.785156 L 366.664062 447 L 396.332031 447 L 372.332031 464.4375 L 380.417969 495.980469 L 354.664062 478.542969 L 328.914062 495.980469 L 341.214844 464.4375 L 313 447 "/>
<path style="fill-rule:nonzero;fill:rgb(35%,70%,90%);fill-opacity:1;stroke-width:1;stroke-linecap:butt;stroke-linejoin:miter;stroke:rgb(0%,0%,0%);stroke-opacity:1;stroke-miterlimit:10;" d="M 809 126 L 838.664062 126 L 850.664062 97.785156 L 862.664062 126 L 892.332031 126 L 868.332031 143.4375 L 876.417969 174.980469 L 850.664062 157.542969 L 824.914062 174.980469 L 837.214844 143.4375 L 809 126 "/>
<path style="fill-rule:nonzero;fill:rgb(35%,70%,90%);fill-opacity:1;stroke-width:1;stroke-linecap:butt;stroke-linejoin:miter;stroke:rgb(0%,0%,0%);stroke-opacity:1;stroke-miterlimit:10;" d="M 390 392 L 419.664062 392 L 431.664062 363.785156 L 443.664062 392 L 473.332031 392 L 449.332031 409.4375 L 457.417969 440.980469 L 431.664062 423.542969 L 405.914062 440.980469 L 418.214844 409.4375 L 390 392 "/>
<path style="fill-rule:nonzero;fill:rgb(35%,70%,90%);fill-opacity:1;stroke-width:1;stroke-linecap:butt;stroke-linejoin:miter;stroke:rgb(0%,0%,0%);stroke-opacity:1;stroke-miterlimit:10;" d="M 301 268 L 330.664062 268 L 342.664062 239.785156 L 354.664062 268 L 384.332031 268 L 360.332031 285.4375 L 368.417969 316.980469 L 342.664062 299.542969 L 316.914062 316.980469 L 329.214844 285.4375 L 301 268 "/>
<path style="fill-rule:nonzero;fill:rgb(35%,70%,90%);fill-opacity:1;stroke-width:1;stroke-linecap:butt;stroke-linejoin:miter;stroke:rgb(0%,0%,0%);stroke-opacity:1;stroke-miterlimit:10;" d="M 546 276 L 575.664062 276 L 587.664062 247.785156 L 599.664062 276 L 629.332031 276 L 605.332031 293.4375 L 613.417969 324.980469 L 587.664062 307.542969 L 561.914062 324.980469 L 574.214844 293.4375 L 546 276 "/>
<path style="fill-rule:nonzero;fill:rgb(55%,51%,53%);fill-opacity:1;stroke-width:1;stroke-linecap:butt;stroke-linejoin:miter;stroke:rgb(0%,0%,0%);stroke-opacity:1;stroke-miterlimit:10;" d="M 641.214844 87 C 641.214844 98.714844 631.714844 108.214844 620 108.214844 C 608.285156 108.214844 598.785156 98.714844 598.785156 87 C 598.785156 75.285156 608.285156 65.785156 620 65.785156 C 631.714844 65.785156 641.214844 75.285156 641.214844 87 "/>
<path style="fill-rule:nonzero;fill:rgb(55%,51%,53%);fill-opacity:1;stroke-width:1;stroke-linecap:butt;stroke-linejoin:miter;stroke:rgb(0%,0%,0%);stroke-opacity:1;stroke-miterlimit:10;" d="M 698.214844 242 C 698.214844 253.714844 688.714844 263.214844 677 263.214844 C 665.285156 263.214844 655.785156 253.714844 655.785156 242 C 655.785156 230.285156 665.285156 220.785156 677 220.785156 C 688.714844 220.785156 698.214844 230.285156 698.214844 242 "/>
<path style="fill-rule:nonzero;fill:rgb(55%,51%,53%);fill-opacity:1;stroke-width:1;stroke-linecap:butt;stroke-linejoin:miter;stroke:rgb(0%,0%,0%);stroke-opacity:1;stroke-miterlimit:10;" d="M 266.214844 351 C 266.214844 362.714844 256.714844 372.214844 245 372.214844 C 233.285156 372.214844 223.785156 362.714844 223.785156 351 C 223.785156 339.285156 233.285156 329.785156 245 329.785156 C 256.714844 329.785156 266.214844 339.285156 266.214844 351 "/>
<path style="fill-rule:nonzero;fill:rgb(55%,51%,53%);fill-opacity:1;stroke-width:1;stroke-linecap:butt;stroke-linejoin:miter;stroke:rgb(0%,0%,0%);stroke-opacity:1;stroke-miterlimit:10;" d="M 478.214844 137 C 478.214844 148.714844 468.714844 158.214844 457 158.214844 C 445.285156 158.214844 435.785156 148.714844 435.785156 137 C 435.785156 125.285156 445.285156 115.785156 457 115.785156 C 468.714844 115.785156 478.214844 125.285156 478.214844 137 "/>
<path style="fill-rule:nonzero;fill:rgb(55%,51%,53%);fill-opacity:1;stroke-width:1;stroke-linecap:butt;stroke-linejoin:miter;stroke:rgb(0%,0%,0%);stroke-opacity:1;stroke-miterlimit:10;" d="M 93.214844 416 C 93.214844 427.714844 83.714844 437.214844 72 437.214844 C 60.285156 437.214844 50.785156 427.714844 50.785156 416 C 50.785156 404.285156 60.285156 394.785156 72 394.785156 C 83.714844 394.785156 93.214844 404.285156 93.214844 416 "/>
</g>
</svg>
