<?xml version="1.0" encoding="UTF-8"?>
<svg xmlns="http://www.w3.org/2000/svg" xmlns:xlink="http://www.w3.org/1999/xlink" width="1129pt" height="517pt" viewBox="0 0 1129 517" version="1.1">
<g id="surface6">
<rect x="0" y="0" width="1129" height="517" style="fill:rgb(90%,90%,90%);fill-opacity:1;stroke:none;"/>
<path style="fill-rule:nonzero;fill:rgb(35%,70%,90%);fill-opacity:1;stroke-width:1;stroke-linecap:butt;stroke-linejoin:miter;stroke:rgb(0%,0%,0%);stroke-opacity:1;stroke-miterlimit:10;" d="M 419 164 L 448.664062 164 L 460.664062 135.785156 L 472.664062 164 L 502.332031 164 L 478.332031 181.4375 L 486.417969 212.980469 L 460.664062 195.542969 L 434.914062 212.980469 L 447.214844 181.4375 L 419 164 "/>
<path style="fill-rule:nonzero;fill:rgb(35%,70%,90%);fill-opacity:1;stroke-width:1;stroke-linecap:butt;stroke-linejoin:miter;stroke:rgb(0%,0%,0%);stroke-opacity:1;stroke-miterlimit:10;" d="M 805 303 L 834.664062 303 L 846.664062 274.785156 L 858.664062 303 L 888.332031 303 L 864.332031 320.4375 L 872.417969 351.980469 L 846.664062 334.542969 L 820.914062 351.980469 L 833.214844 320.4375 L 805 303 "/>
<path style="fill-rule:nonzero;fill:rgb(35%,70%,90%);fill-opacity:1;stroke-width:1;stroke-linecap:butt;stroke-linejoin:miter;stroke:rgb(0%,0%,0%);stroke-opacity:1;stroke-miterlimit:10;" d="M 233 250 L 262.664062 250 L 274.664062 221.785156 L 286.664062 250 L 316.332031 250 L 292.332031 267.4375 L 300.417969 298.980469 L 274.664062 281.542969 L 248.914062 298.980469 L 261.214844 267.4375 L 233 250 "/>
<path style="fill-rule:nonzero;fill:rgb(35%,70%,90%);fill-opacity:1;stroke-width:1;stroke-linecap:butt;stroke-linejoin:miter;stroke:rgb(0%,0%,0%);stroke-opacity:1;stroke-miterlimit:10;" d="M 159 463 L 188.664062 463 L 200.664062 434.785156 L 212.664062 463 L 242.332031 463 L 218.332031 480.4375 L 226.417969 511.980469 L 200.664062 494.542969 L 174.914062 511.980469 L 187.214844 480.4375 L 159 463 "/>
<path style="fill-rule:nonzero;fill:rgb(35%,70%,90%);fill-opacity:1;stroke-width:1;stroke-linecap:butt;stroke-linejoin:miter;stroke:rgb(0%,0%,0%);stroke-opacity:1;stroke-miterlimit:10;" d="M 692 276 L 721.664062 276 L 733.664062 247.785156 L 745.664062 276 L 775.332031 276 L 751.332031 293.4375 L 759.417969 324.980469 L 733.664062 307.542969 L 707.914062 324.980469 L 720.214844 293.4375 L 692 276 "/>
<path style="fill-rule:nonzero;fill:rgb(35%,70%,90%);fill-opacity:1;stroke-width:1;stroke-linecap:butt;stroke-linejoin:miter;stroke:rgb(0%,0%,0%);stroke-opacity:1;stroke-miterlimit:10;" d="M 119 127 L 148.664062 127 L 160.664062 98.785156 L 172.664062 127 L 202.332031 127 L 178.332031 144.4375 L 186.417969 175.980469 L 160.664062 158.542969 L 134.914062 175.980469 L 147.214844 144.4375 L 119 127 "/>
<path style="fill-rule:nonzero;fill:rgb(35%,70%,90%);fill-opacity:1;stroke-width:1;stroke-linecap:butt;stroke-linejoin:miter;stroke:rgb(0%,0%,0%);stroke-opacity:1;stroke-miterlimit:10;" d="M 545 352 L 574.664062 352 L 586.664062 323.785156 L 598.664062 352 L 628.332031 352 L 604.332031 369.4375 L 612.417969 400.980469 L 586.664062 383.542969 L 560.914062 400.980469 L 573.214844 369.4375 L 545 352 "/>
<path style="fill-rule:nonzero;fill:rgb(35%,70%,90%);fill-opacity:1;stroke-width:1;stroke-linecap:butt;stroke-linejoin:miter;stroke:rgb(0%,0%,0%);stroke-opacity:1;stroke-miterlimit:10;" d="M 917 201 L 946.664062 201 L 958.664062 172.785156 L 970.664062 201 L 1000.332031 201 L 976.332031 218.4375 L 984.417969 249.980469 L 958.664062 232.542969 L 932.914062 249.980469 L 945.214844 218.4375 L 917 201 "/>
<path style="fill-rule:nonzero;fill:rgb(100%,51%,0%);fill-opacity:1;stroke-width:1;stroke-linecap:butt;stroke-linejoin:miter;stroke:rgb(0%,0%,0%);stroke-opacity:1;stroke-miterlimit:10;" d="M 561 440 L 535.019531 485 L 586.980469 485 L 561 440 "/>
<path style="fill-rule:nonzero;fill:rgb(100%,51%,0%);fill-opacity:1;stroke-width:1;stroke-linecap:butt;stroke-linejoin:miter;stroke:rgb(0%,0%,0%);stroke-opacity:1;stroke-miterlimit:10;" d="M 696 404 L 670.019531 449 L 721.980469 449 L 696 404 "/>
<path style="fill-rule:nonzero;fill:rgb(100%,51%,0%);fill-opacity:1;stroke-width:1;stroke-linecap:butt;stroke-linejoin:miter;stroke:rgb(0%,0%,0%);stroke-opacity:1;stroke-miterlimit:10;" d="M 800 65 L 774.019531 110 L 825.980469 110 L 800 65 "/>
<path style="fill-rule:nonzero;fill:rgb(100%,51%,0%);fill-opacity:1;stroke-width:1;stroke-linecap:butt;stroke-linejoin:miter;stroke:rgb(0%,0%,0%);stroke-opacity:1;stroke-miterlimit:10;" d="M 832 389 L 806.019531 434 L 857.980469 434 L 832 389 "/>
<path style="fill-rule:nonzero;fill:rgb(100%,51%,0%);fill-opacity:1;stroke-width:1;stroke-linecap:butt;stroke-linejoin:miter;stroke:rgb(0%,0%,0%);stroke-opacity:1;stroke-miterlimit:10;" d="M 275 319 L 249.019531 364 L 300.980469 364 L 275 319 "/>
<path style="fill-rule:nonzero;fill:rgb(100%,51%,0%);fill-opacity:1;stroke-width:1;stroke-linecap:butt;stroke-linejoin:miter;stroke:rgb(0%,0%,0%);stroke-opacity:1;stroke-miterlimit:10;" d="M 984 99 L 958.019531 144 L 1009.980469 144 L 984 99 "/>
</g>
</svg>
