<?xml version="1.0" encoding="UTF-8"?>
<svg xmlns="http://www.w3.org/2000/svg" xmlns:xlink="http://www.w3.org/1999/xlink" width="1129pt" height="517pt" viewBox="0 0 1129 517" version="1.1">
<g id="surface216">
<rect x="0" y="0" width="1129" height="517" style="fill:rgb(90%,90%,90%);fill-opacity:1;stroke:none;"/>
<path style="fill-rule:nonzero;fill:rgb(35%,70%,90%);fill-opacity:1;stroke-width:1;stroke-linecap:butt;stroke-linejoin:miter;stroke:rgb(0%,0%,0%);stroke-opacity:1;stroke-miterlimit:10;" d="M 764 252 L 793.664062 252 L 805.664062 223.785156 L 817.664062 252 L 847.332031 252 L 823.332031 269.4375 L 831.417969 300.980469 L 805.664062 283.542969 L 779.914062 300.980469 L 792.214844 269.4375 L 764 252 "/>
<path style="fill-rule:nonzero;fill:rgb(35%,70%,90%);fill-opacity:1;stroke-width:1;stroke-linecap:butt;stroke-linejoin:miter;stroke:rgb(0%,0%,0%);stroke-opacity:1;stroke-miterlimit:10;" d="M 591 363 L 620.664062 363 L 632.664062 334.785156 L 644.664062 363 L 674.332031 363 L 650.332031 380.4375 L 658.417969 411.980469 L 632.664062 394.542969 L 606.914062 411.980469 L 619.214844 380.4375 L 591 363 "/>
<path style="fill-rule:nonzero;fill:rgb(35%,70%,90%);fill-opacity:1;stroke-width:1;stroke-linecap:butt;stroke-linejoin:miter;stroke:rgb(0%,0%,0%);stroke-opacity:1;stroke-miterlimit:10;" d="M 449 90 L 478.664062 90 L 490.664062 61.785156 L 502.664062 90 L 532.332031 90 L 508.332031 107.4375 L 516.417969 138.980469 L 490.664062 121.542969 L 464.914062 138.980469 L 477.214844 107.4375 L 449 90 "/>
<path style="fill-rule:nonzero;fill:rgb(53%,27%,7%);fill-opacity:1;stroke-width:1;stroke-linecap:butt;stroke-linejoin:miter;stroke:rgb(0%,0%,0%);stroke-opacity:1;stroke-miterlimit:10;" d="M 50 63 L 24.019531 108 L 75.980469 108 L 50 63 "/>
<path style="fill-rule:nonzero;fill:rgb(53%,27%,7%);fill-opacity:1;stroke-width:1;stroke-linecap:butt;stroke-linejoin:miter;stroke:rgb(0%,0%,0%);stroke-opacity:1;stroke-miterlimit:10;" d="M 834 93 L 808.019531 138 L 859.980469 138 L 834 93 "/>
<path style="fill-rule:nonzero;fill:rgb(53%,27%,7%);fill-opacity:1;stroke-width:1;stroke-linecap:butt;stroke-linejoin:miter;stroke:rgb(0%,0%,0%);stroke-opacity:1;stroke-miterlimit:10;" d="M 126 134 L 100.019531 179 L 151.980469 179 L 126 134 "/>
</g>
</svg>
