<?xml version="1.0" encoding="UTF-8"?>
<svg xmlns="http://www.w3.org/2000/svg" xmlns:xlink="http://www.w3.org/1999/xlink" width="1129pt" height="517pt" viewBox="0 0 1129 517" version="1.1">
<g id="surface381">
<rect x="0" y="0" width="1129" height="517" style="fill:rgb(90%,90%,90%);fill-opacity:1;stroke:none;"/>
<path style="fill-rule:nonzero;fill:rgb(35%,70%,90%);fill-opacity:1;stroke-width:1;stroke-linecap:butt;stroke-linejoin:miter;stroke:rgb(0%,0%,0%);stroke-opacity:1;stroke-miterlimit:10;" d="M 433.214844 443 C 433.214844 454.714844 423.714844 464.214844 412 464.214844 C 400.285156 464.214844 390.785156 454.714844 390.785156 443 C 390.785156 431.285156 400.285156 421.785156 412 421.785156 C 423.714844 421.785156 433.214844 431.285156 433.214844 443 "/>
<path style="fill-rule:nonzero;fill:rgb(35%,70%,90%);fill-opacity:1;stroke-width:1;stroke-linecap:butt;stroke-linejoin:miter;stroke:rgb(0%,0%,0%);stroke-opacity:1;stroke-miterlimit:10;" d="M 411.214844 101 C 411.214844 112.714844 401.714844 122.214844 390 122.214844 C 378.285156 122.214844 368.785156 112.714844 368.785156 101 C 368.785156 89.285156 378.285156 79.785156 390 79.785156 C 401.714844 79.785156 411.214844 89.285156 411.214844 101 "/>
<path style="fill-rule:nonzero;fill:rgb(35%,70%,90%);fill-opacity:1;stroke-width:1;stroke-linecap:butt;stroke-linejoin:miter;stroke:rgb(0%,0%,0%);stroke-opacity:1;stroke-miterlimit:10;" d="M 150.785156 146.785156 L 150.785156 189.214844 L 193.214844 189.214844 L 193.214844 146.785156 L 150.785156 146.785156 "/>
<path style="fill-rule:nonzero;fill:rgb(35%,70%,90%);fill-opacity:1;stroke-width:1;stroke-linecap:butt;stroke-linejoin:miter;stroke:rgb(0%,0%,0%);stroke-opacity:1;stroke-miterlimit:10;" d="M 58.785156 138.785156 L 58.785156 181.214844 L 101.214844 181.214844 L 101.214844 138.785156 L 58.785156 138.785156 "/>
<path style="fill-rule:nonzero;fill:rgb(35%,70%,90%);fill-opacity:1;stroke-width:1;stroke-linecap:butt;stroke-linejoin:miter;stroke:rgb(0%,0%,0%);stroke-opacity:1;stroke-miterlimit:10;" d="M 445.214844 311 C 445.214844 322.714844 435.714844 332.214844 424 332.214844 C 412.285156 332.214844 402.785156 322.714844 402.785156 311 C 402.785156 299.285156 412.285156 289.785156 424 289.785156 C 435.714844 289.785156 445.214844 299.285156 445.214844 311 "/>
<path style="fill-rule:nonzero;fill:rgb(35%,70%,90%);fill-opacity:1;stroke-width:1;stroke-linecap:butt;stroke-linejoin:miter;stroke:rgb(0%,0%,0%);stroke-opacity:1;stroke-miterlimit:10;" d="M 492.214844 170 C 492.214844 181.714844 482.714844 191.214844 471 191.214844 C 459.285156 191.214844 449.785156 181.714844 449.785156 170 C 449.785156 158.285156 459.285156 148.785156 471 148.785156 C 482.714844 148.785156 492.214844 158.285156 492.214844 170 "/>
<path style="fill-rule:nonzero;fill:rgb(35%,70%,90%);fill-opacity:1;stroke-width:1;stroke-linecap:butt;stroke-linejoin:miter;stroke:rgb(0%,0%,0%);stroke-opacity:1;stroke-miterlimit:10;" d="M 266.214844 78 C 266.214844 89.714844 256.714844 99.214844 245 99.214844 C 233.285156 99.214844 223.785156 89.714844 223.785156 78 C 223.785156 66.285156 233.285156 56.785156 245 56.785156 C 256.714844 56.785156 266.214844 66.285156 266.214844 78 "/>
<path style="fill-rule:nonzero;fill:rgb(100%,51%,0%);fill-opacity:1;stroke-width:1;stroke-linecap:butt;stroke-linejoin:miter;stroke:rgb(0%,0%,0%);stroke-opacity:1;stroke-miterlimit:10;" d="M 983.785156 378.785156 L 983.785156 421.214844 L 1026.214844 421.214844 L 1026.214844 378.785156 L 983.785156 378.785156 "/>
<path style="fill-rule:nonzero;fill:rgb(100%,51%,0%);fill-opacity:1;stroke-width:1;stroke-linecap:butt;stroke-linejoin:miter;stroke:rgb(0%,0%,0%);stroke-opacity:1;stroke-miterlimit:10;" d="M 740.785156 242.785156 L 740.785156 285.214844 L 783.214844 285.214844 L 783.214844 242.785156 L 740.785156 242.785156 "/>
<path style="fill-rule:nonzero;fill:rgb(100%,51%,0%);fill-opacity:1;stroke-width:1;stroke-linecap:butt;stroke-linejoin:miter;stroke:rgb(0%,0%,0%);stroke-opacity:1;stroke-miterlimit:10;" d="M 962.214844 328 C 962.214844 339.714844 952.714844 349.214844 941 349.214844 C 929.285156 349.214844 919.785156 339.714844 919.785156 328 C 919.785156 316.285156 929.285156 306.785156 941 306.785156 C 952.714844 306.785156 962.214844 316.285156 962.214844 328 "/>
<path style="fill-rule:nonzero;fill:rgb(100%,51%,0%);fill-opacity:1;stroke-width:1;stroke-linecap:butt;stroke-linejoin:miter;stroke:rgb(0%,0%,0%);stroke-opacity:1;stroke-miterlimit:10;" d="M 634.214844 158 C 634.214844 169.714844 624.714844 179.214844 613 179.214844 C 601.285156 179.214844 591.785156 169.714844 591.785156 158 C 591.785156 146.285156 601.285156 136.785156 613 136.785156 C 624.714844 136.785156 634.214844 146.285156 634.214844 158 "/>
<path style="fill-rule:nonzero;fill:rgb(100%,51%,0%);fill-opacity:1;stroke-width:1;stroke-linecap:butt;stroke-linejoin:miter;stroke:rgb(0%,0%,0%);stroke-opacity:1;stroke-miterlimit:10;" d="M 708.785156 357.785156 L 708.785156 400.214844 L 751.214844 400.214844 L 751.214844 357.785156 L 708.785156 357.785156 "/>
<path style="fill-rule:nonzero;fill:rgb(100%,51%,0%);fill-opacity:1;stroke-width:1;stroke-linecap:butt;stroke-linejoin:miter;stroke:rgb(0%,0%,0%);stroke-opacity:1;stroke-miterlimit:10;" d="M 626.785156 306.785156 L 626.785156 349.214844 L 669.214844 349.214844 L 669.214844 306.785156 L 626.785156 306.785156 "/>
</g>
</svg>
