<?xml version="1.0" encoding="UTF-8"?>
<svg xmlns="http://www.w3.org/2000/svg" xmlns:xlink="http://www.w3.org/1999/xlink" width="1129pt" height="517pt" viewBox="0 0 1129 517" version="1.1">
<g id="surface366">
<rect x="0" y="0" width="1129" height="517" style="fill:rgb(90%,90%,90%);fill-opacity:1;stroke:none;"/>
<path style="fill-rule:nonzero;fill:rgb(35%,70%,90%);fill-opacity:1;stroke-width:1;stroke-linecap:butt;stroke-linejoin:miter;stroke:rgb(0%,0%,0%);stroke-opacity:1;stroke-miterlimit:10;" d="M 729 372 L 758.664062 372 L 770.664062 343.785156 L 782.664062 372 L 812.332031 372 L 788.332031 389.4375 L 796.417969 420.980469 L 770.664062 403.542969 L 744.914062 420.980469 L 757.214844 389.4375 L 729 372 "/>
<path style="fill-rule:nonzero;fill:rgb(35%,70%,90%);fill-opacity:1;stroke-width:1;stroke-linecap:butt;stroke-linejoin:miter;stroke:rgb(0%,0%,0%);stroke-opacity:1;stroke-miterlimit:10;" d="M 528 160 L 557.664062 160 L 569.664062 131.785156 L 581.664062 160 L 611.332031 160 L 587.332031 177.4375 L 595.417969 208.980469 L 569.664062 191.542969 L 543.914062 208.980469 L 556.214844 177.4375 L 528 160 "/>
<path style="fill-rule:nonzero;fill:rgb(35%,70%,90%);fill-opacity:1;stroke-width:1;stroke-linecap:butt;stroke-linejoin:miter;stroke:rgb(0%,0%,0%);stroke-opacity:1;stroke-miterlimit:10;" d="M 319 310 L 348.664062 310 L 360.664062 281.785156 L 372.664062 310 L 402.332031 310 L 378.332031 327.4375 L 386.417969 358.980469 L 360.664062 341.542969 L 334.914062 358.980469 L 347.214844 327.4375 L 319 310 "/>
<path style="fill-rule:nonzero;fill:rgb(35%,70%,90%);fill-opacity:1;stroke-width:1;stroke-linecap:butt;stroke-linejoin:miter;stroke:rgb(0%,0%,0%);stroke-opacity:1;stroke-miterlimit:10;" d="M 608 302 L 637.664062 302 L 649.664062 273.785156 L 661.664062 302 L 691.332031 302 L 667.332031 319.4375 L 675.417969 350.980469 L 649.664062 333.542969 L 623.914062 350.980469 L 636.214844 319.4375 L 608 302 "/>
<path style="fill-rule:nonzero;fill:rgb(35%,70%,90%);fill-opacity:1;stroke-width:1;stroke-linecap:butt;stroke-linejoin:miter;stroke:rgb(0%,0%,0%);stroke-opacity:1;stroke-miterlimit:10;" d="M 217 400 L 246.664062 400 L 258.664062 371.785156 L 270.664062 400 L 300.332031 400 L 276.332031 417.4375 L 284.417969 448.980469 L 258.664062 431.542969 L 232.914062 448.980469 L 245.214844 417.4375 L 217 400 "/>
<path style="fill-rule:nonzero;fill:rgb(100%,51%,0%);fill-opacity:1;stroke-width:1;stroke-linecap:butt;stroke-linejoin:miter;stroke:rgb(0%,0%,0%);stroke-opacity:1;stroke-miterlimit:10;" d="M 176 286 L 150.019531 331 L 201.980469 331 L 176 286 "/>
<path style="fill-rule:nonzero;fill:rgb(100%,51%,0%);fill-opacity:1;stroke-width:1;stroke-linecap:butt;stroke-linejoin:miter;stroke:rgb(0%,0%,0%);stroke-opacity:1;stroke-miterlimit:10;" d="M 103 379 L 77.019531 424 L 128.980469 424 L 103 379 "/>
<path style="fill-rule:nonzero;fill:rgb(100%,51%,0%);fill-opacity:1;stroke-width:1;stroke-linecap:butt;stroke-linejoin:miter;stroke:rgb(0%,0%,0%);stroke-opacity:1;stroke-miterlimit:10;" d="M 366 379 L 340.019531 424 L 391.980469 424 L 366 379 "/>
<path style="fill-rule:nonzero;fill:rgb(100%,51%,0%);fill-opacity:1;stroke-width:1;stroke-linecap:butt;stroke-linejoin:miter;stroke:rgb(0%,0%,0%);stroke-opacity:1;stroke-miterlimit:10;" d="M 970 379 L 944.019531 424 L 995.980469 424 L 970 379 "/>
</g>
</svg>
