<?xml version="1.0" encoding="UTF-8"?>
<svg xmlns="http://www.w3.org/2000/svg" xmlns:xlink="http://www.w3.org/1999/xlink" width="1129pt" height="517pt" viewBox="0 0 1129 517" version="1.1">
<g id="surface231">
<rect x="0" y="0" width="1129" height="517" style="fill:rgb(90%,90%,90%);fill-opacity:1;stroke:none;"/>
<path style="fill-rule:nonzero;fill:rgb(35%,70%,90%);fill-opacity:1;stroke-width:1;stroke-linecap:butt;stroke-linejoin:miter;stroke:rgb(0%,0%,0%);stroke-opacity:1;stroke-miterlimit:10;" d="M 69.214844 284 C 69.214844 295.714844 59.714844 305.214844 48 305.214844 C 36.285156 305.214844 26.785156 295.714844 26.785156 284 C 26.785156 272.285156 36.285156 262.785156 48 262.785156 C 59.714844 262.785156 69.214844 272.285156 69.214844 284 "/>
<path style="fill-rule:nonzero;fill:rgb(53%,27%,7%);fill-opacity:1;stroke-width:1;stroke-linecap:butt;stroke-linejoin:miter;stroke:rgb(0%,0%,0%);stroke-opacity:1;stroke-miterlimit:10;" d="M 436.214844 88 C 436.214844 99.714844 426.714844 109.214844 415 109.214844 C 403.285156 109.214844 393.785156 99.714844 393.785156 88 C 393.785156 76.285156 403.285156 66.785156 415 66.785156 C 426.714844 66.785156 436.214844 76.285156 436.214844 88 "/>
<path style="fill-rule:nonzero;fill:rgb(35%,70%,90%);fill-opacity:1;stroke-width:1;stroke-linecap:butt;stroke-linejoin:miter;stroke:rgb(0%,0%,0%);stroke-opacity:1;stroke-miterlimit:10;" d="M 284.214844 416 C 284.214844 427.714844 274.714844 437.214844 263 437.214844 C 251.285156 437.214844 241.785156 427.714844 241.785156 416 C 241.785156 404.285156 251.285156 394.785156 263 394.785156 C 274.714844 394.785156 284.214844 404.285156 284.214844 416 "/>
<path style="fill-rule:nonzero;fill:rgb(53%,27%,7%);fill-opacity:1;stroke-width:1;stroke-linecap:butt;stroke-linejoin:miter;stroke:rgb(0%,0%,0%);stroke-opacity:1;stroke-miterlimit:10;" d="M 224.214844 265 C 224.214844 276.714844 214.714844 286.214844 203 286.214844 C 191.285156 286.214844 181.785156 276.714844 181.785156 265 C 181.785156 253.285156 191.285156 243.785156 203 243.785156 C 214.714844 243.785156 224.214844 253.285156 224.214844 265 "/>
<path style="fill-rule:nonzero;fill:rgb(35%,70%,90%);fill-opacity:1;stroke-width:1;stroke-linecap:butt;stroke-linejoin:miter;stroke:rgb(0%,0%,0%);stroke-opacity:1;stroke-miterlimit:10;" d="M 430.214844 244 C 430.214844 255.714844 420.714844 265.214844 409 265.214844 C 397.285156 265.214844 387.785156 255.714844 387.785156 244 C 387.785156 232.285156 397.285156 222.785156 409 222.785156 C 420.714844 222.785156 430.214844 232.285156 430.214844 244 "/>
<path style="fill-rule:nonzero;fill:rgb(35%,70%,90%);fill-opacity:1;stroke-width:1;stroke-linecap:butt;stroke-linejoin:miter;stroke:rgb(0%,0%,0%);stroke-opacity:1;stroke-miterlimit:10;" d="M 471.214844 399 C 471.214844 410.714844 461.714844 420.214844 450 420.214844 C 438.285156 420.214844 428.785156 410.714844 428.785156 399 C 428.785156 387.285156 438.285156 377.785156 450 377.785156 C 461.714844 377.785156 471.214844 387.285156 471.214844 399 "/>
<path style="fill-rule:nonzero;fill:rgb(35%,70%,90%);fill-opacity:1;stroke-width:1;stroke-linecap:butt;stroke-linejoin:miter;stroke:rgb(0%,0%,0%);stroke-opacity:1;stroke-miterlimit:10;" d="M 116.214844 438 C 116.214844 449.714844 106.714844 459.214844 95 459.214844 C 83.285156 459.214844 73.785156 449.714844 73.785156 438 C 73.785156 426.285156 83.285156 416.785156 95 416.785156 C 106.714844 416.785156 116.214844 426.285156 116.214844 438 "/>
<path style="fill-rule:nonzero;fill:rgb(53%,27%,7%);fill-opacity:1;stroke-width:1;stroke-linecap:butt;stroke-linejoin:miter;stroke:rgb(0%,0%,0%);stroke-opacity:1;stroke-miterlimit:10;" d="M 942.785156 280.785156 L 942.785156 323.214844 L 985.214844 323.214844 L 985.214844 280.785156 L 942.785156 280.785156 "/>
<path style="fill-rule:nonzero;fill:rgb(35%,70%,90%);fill-opacity:1;stroke-width:1;stroke-linecap:butt;stroke-linejoin:miter;stroke:rgb(0%,0%,0%);stroke-opacity:1;stroke-miterlimit:10;" d="M 653.785156 347.785156 L 653.785156 390.214844 L 696.214844 390.214844 L 696.214844 347.785156 L 653.785156 347.785156 "/>
<path style="fill-rule:nonzero;fill:rgb(53%,27%,7%);fill-opacity:1;stroke-width:1;stroke-linecap:butt;stroke-linejoin:miter;stroke:rgb(0%,0%,0%);stroke-opacity:1;stroke-miterlimit:10;" d="M 799.785156 44.785156 L 799.785156 87.214844 L 842.214844 87.214844 L 842.214844 44.785156 L 799.785156 44.785156 "/>
</g>
</svg>
