<?xml version="1.0" encoding="UTF-8"?>
<svg xmlns="http://www.w3.org/2000/svg" xmlns:xlink="http://www.w3.org/1999/xlink" width="1129pt" height="517pt" viewBox="0 0 1129 517" version="1.1">
<g id="surface606">
<rect x="0" y="0" width="1129" height="517" style="fill:rgb(90%,90%,90%);fill-opacity:1;stroke:none;"/>
<path style="fill-rule:nonzero;fill:rgb(35%,70%,90%);fill-opacity:1;stroke-width:1;stroke-linecap:butt;stroke-linejoin:miter;stroke:rgb(0%,0%,0%);stroke-opacity:1;stroke-miterlimit:10;" d="M 102 448 L 131.664062 448 L 143.664062 419.785156 L 155.664062 448 L 185.332031 448 L 161.332031 465.4375 L 169.417969 496.980469 L 143.664062 479.542969 L 117.914062 496.980469 L 130.214844 465.4375 L 102 448 "/>
<path style="fill-rule:nonzero;fill:rgb(35%,70%,90%);fill-opacity:1;stroke-width:1;stroke-linecap:butt;stroke-linejoin:miter;stroke:rgb(0%,0%,0%);stroke-opacity:1;stroke-miterlimit:10;" d="M 758 71 L 787.664062 71 L 799.664062 42.785156 L 811.664062 71 L 841.332031 71 L 817.332031 88.4375 L 825.417969 119.980469 L 799.664062 102.542969 L 773.914062 119.980469 L 786.214844 88.4375 L 758 71 "/>
<path style="fill-rule:nonzero;fill:rgb(35%,70%,90%);fill-opacity:1;stroke-width:1;stroke-linecap:butt;stroke-linejoin:miter;stroke:rgb(0%,0%,0%);stroke-opacity:1;stroke-miterlimit:10;" d="M 545 204 L 574.664062 204 L 586.664062 175.785156 L 598.664062 204 L 628.332031 204 L 604.332031 221.4375 L 612.417969 252.980469 L 586.664062 235.542969 L 560.914062 252.980469 L 573.214844 221.4375 L 545 204 "/>
<path style="fill-rule:nonzero;fill:rgb(35%,70%,90%);fill-opacity:1;stroke-width:1;stroke-linecap:butt;stroke-linejoin:miter;stroke:rgb(0%,0%,0%);stroke-opacity:1;stroke-miterlimit:10;" d="M 575 59 L 604.664062 59 L 616.664062 30.785156 L 628.664062 59 L 658.332031 59 L 634.332031 76.4375 L 642.417969 107.980469 L 616.664062 90.542969 L 590.914062 107.980469 L 603.214844 76.4375 L 575 59 "/>
<path style="fill-rule:nonzero;fill:rgb(35%,70%,90%);fill-opacity:1;stroke-width:1;stroke-linecap:butt;stroke-linejoin:miter;stroke:rgb(0%,0%,0%);stroke-opacity:1;stroke-miterlimit:10;" d="M 910 141 L 939.664062 141 L 951.664062 112.785156 L 963.664062 141 L 993.332031 141 L 969.332031 158.4375 L 977.417969 189.980469 L 951.664062 172.542969 L 925.914062 189.980469 L 938.214844 158.4375 L 910 141 "/>
<path style="fill-rule:nonzero;fill:rgb(35%,70%,90%);fill-opacity:1;stroke-width:1;stroke-linecap:butt;stroke-linejoin:miter;stroke:rgb(0%,0%,0%);stroke-opacity:1;stroke-miterlimit:10;" d="M 238 264 L 267.664062 264 L 279.664062 235.785156 L 291.664062 264 L 321.332031 264 L 297.332031 281.4375 L 305.417969 312.980469 L 279.664062 295.542969 L 253.914062 312.980469 L 266.214844 281.4375 L 238 264 "/>
<path style="fill-rule:nonzero;fill:rgb(35%,70%,90%);fill-opacity:1;stroke-width:1;stroke-linecap:butt;stroke-linejoin:miter;stroke:rgb(0%,0%,0%);stroke-opacity:1;stroke-miterlimit:10;" d="M 361 181 L 390.664062 181 L 402.664062 152.785156 L 414.664062 181 L 444.332031 181 L 420.332031 198.4375 L 428.417969 229.980469 L 402.664062 212.542969 L 376.914062 229.980469 L 389.214844 198.4375 L 361 181 "/>
<path style="fill-rule:nonzero;fill:rgb(55%,51%,53%);fill-opacity:1;stroke-width:1;stroke-linecap:butt;stroke-linejoin:miter;stroke:rgb(0%,0%,0%);stroke-opacity:1;stroke-miterlimit:10;" d="M 196 442 L 170.019531 487 L 221.980469 487 L 196 442 "/>
<path style="fill-rule:nonzero;fill:rgb(55%,51%,53%);fill-opacity:1;stroke-width:1;stroke-linecap:butt;stroke-linejoin:miter;stroke:rgb(0%,0%,0%);stroke-opacity:1;stroke-miterlimit:10;" d="M 906 306 L 880.019531 351 L 931.980469 351 L 906 306 "/>
<path style="fill-rule:nonzero;fill:rgb(55%,51%,53%);fill-opacity:1;stroke-width:1;stroke-linecap:butt;stroke-linejoin:miter;stroke:rgb(0%,0%,0%);stroke-opacity:1;stroke-miterlimit:10;" d="M 110 274 L 84.019531 319 L 135.980469 319 L 110 274 "/>
<path style="fill-rule:nonzero;fill:rgb(55%,51%,53%);fill-opacity:1;stroke-width:1;stroke-linecap:butt;stroke-linejoin:miter;stroke:rgb(0%,0%,0%);stroke-opacity:1;stroke-miterlimit:10;" d="M 408 384 L 382.019531 429 L 433.980469 429 L 408 384 "/>
<path style="fill-rule:nonzero;fill:rgb(55%,51%,53%);fill-opacity:1;stroke-width:1;stroke-linecap:butt;stroke-linejoin:miter;stroke:rgb(0%,0%,0%);stroke-opacity:1;stroke-miterlimit:10;" d="M 792 363 L 766.019531 408 L 817.980469 408 L 792 363 "/>
<path style="fill-rule:nonzero;fill:rgb(55%,51%,53%);fill-opacity:1;stroke-width:1;stroke-linecap:butt;stroke-linejoin:miter;stroke:rgb(0%,0%,0%);stroke-opacity:1;stroke-miterlimit:10;" d="M 790 185 L 764.019531 230 L 815.980469 230 L 790 185 "/>
<path style="fill-rule:nonzero;fill:rgb(55%,51%,53%);fill-opacity:1;stroke-width:1;stroke-linecap:butt;stroke-linejoin:miter;stroke:rgb(0%,0%,0%);stroke-opacity:1;stroke-miterlimit:10;" d="M 415 38 L 389.019531 83 L 440.980469 83 L 415 38 "/>
<path style="fill-rule:nonzero;fill:rgb(55%,51%,53%);fill-opacity:1;stroke-width:1;stroke-linecap:butt;stroke-linejoin:miter;stroke:rgb(0%,0%,0%);stroke-opacity:1;stroke-miterlimit:10;" d="M 161 51 L 135.019531 96 L 186.980469 96 L 161 51 "/>
</g>
</svg>
