<?xml version="1.0" encoding="UTF-8"?>
<svg xmlns="http://www.w3.org/2000/svg" xmlns:xlink="http://www.w3.org/1999/xlink" width="1129pt" height="517pt" viewBox="0 0 1129 517" version="1.1">
<g id="surface456">
<rect x="0" y="0" width="1129" height="517" style="fill:rgb(90%,90%,90%);fill-opacity:1;stroke:none;"/>
<path style="fill-rule:nonzero;fill:rgb(100%,51%,0%);fill-opacity:1;stroke-width:1;stroke-linecap:butt;stroke-linejoin:miter;stroke:rgb(0%,0%,0%);stroke-opacity:1;stroke-miterlimit:10;" d="M 717 218 L 746.664062 218 L 758.664062 189.785156 L 770.664062 218 L 800.332031 218 L 776.332031 235.4375 L 784.417969 266.980469 L 758.664062 249.542969 L 732.914062 266.980469 L 745.214844 235.4375 L 717 218 "/>
<path style="fill-rule:nonzero;fill:rgb(100%,51%,0%);fill-opacity:1;stroke-width:1;stroke-linecap:butt;stroke-linejoin:miter;stroke:rgb(0%,0%,0%);stroke-opacity:1;stroke-miterlimit:10;" d="M 263 291 L 292.664062 291 L 304.664062 262.785156 L 316.664062 291 L 346.332031 291 L 322.332031 308.4375 L 330.417969 339.980469 L 304.664062 322.542969 L 278.914062 339.980469 L 291.214844 308.4375 L 263 291 "/>
<path style="fill-rule:nonzero;fill:rgb(100%,51%,0%);fill-opacity:1;stroke-width:1;stroke-linecap:butt;stroke-linejoin:miter;stroke:rgb(0%,0%,0%);stroke-opacity:1;stroke-miterlimit:10;" d="M 362 85 L 391.664062 85 L 403.664062 56.785156 L 415.664062 85 L 445.332031 85 L 421.332031 102.4375 L 429.417969 133.980469 L 403.664062 116.542969 L 377.914062 133.980469 L 390.214844 102.4375 L 362 85 "/>
<path style="fill-rule:nonzero;fill:rgb(100%,51%,0%);fill-opacity:1;stroke-width:1;stroke-linecap:butt;stroke-linejoin:miter;stroke:rgb(0%,0%,0%);stroke-opacity:1;stroke-miterlimit:10;" d="M 889 272 L 918.664062 272 L 930.664062 243.785156 L 942.664062 272 L 972.332031 272 L 948.332031 289.4375 L 956.417969 320.980469 L 930.664062 303.542969 L 904.914062 320.980469 L 917.214844 289.4375 L 889 272 "/>
<path style="fill-rule:nonzero;fill:rgb(100%,51%,0%);fill-opacity:1;stroke-width:1;stroke-linecap:butt;stroke-linejoin:miter;stroke:rgb(0%,0%,0%);stroke-opacity:1;stroke-miterlimit:10;" d="M 245 104 L 274.664062 104 L 286.664062 75.785156 L 298.664062 104 L 328.332031 104 L 304.332031 121.4375 L 312.417969 152.980469 L 286.664062 135.542969 L 260.914062 152.980469 L 273.214844 121.4375 L 245 104 "/>
<path style="fill-rule:nonzero;fill:rgb(100%,51%,0%);fill-opacity:1;stroke-width:1;stroke-linecap:butt;stroke-linejoin:miter;stroke:rgb(0%,0%,0%);stroke-opacity:1;stroke-miterlimit:10;" d="M 584 384 L 613.664062 384 L 625.664062 355.785156 L 637.664062 384 L 667.332031 384 L 643.332031 401.4375 L 651.417969 432.980469 L 625.664062 415.542969 L 599.914062 432.980469 L 612.214844 401.4375 L 584 384 "/>
<path style="fill-rule:nonzero;fill:rgb(53%,27%,7%);fill-opacity:1;stroke-width:1;stroke-linecap:butt;stroke-linejoin:miter;stroke:rgb(0%,0%,0%);stroke-opacity:1;stroke-miterlimit:10;" d="M 752 367 L 726.019531 412 L 777.980469 412 L 752 367 "/>
<path style="fill-rule:nonzero;fill:rgb(53%,27%,7%);fill-opacity:1;stroke-width:1;stroke-linecap:butt;stroke-linejoin:miter;stroke:rgb(0%,0%,0%);stroke-opacity:1;stroke-miterlimit:10;" d="M 618 68 L 592.019531 113 L 643.980469 113 L 618 68 "/>
<path style="fill-rule:nonzero;fill:rgb(53%,27%,7%);fill-opacity:1;stroke-width:1;stroke-linecap:butt;stroke-linejoin:miter;stroke:rgb(0%,0%,0%);stroke-opacity:1;stroke-miterlimit:10;" d="M 917 430 L 891.019531 475 L 942.980469 475 L 917 430 "/>
<path style="fill-rule:nonzero;fill:rgb(53%,27%,7%);fill-opacity:1;stroke-width:1;stroke-linecap:butt;stroke-linejoin:miter;stroke:rgb(0%,0%,0%);stroke-opacity:1;stroke-miterlimit:10;" d="M 311 137 L 285.019531 182 L 336.980469 182 L 311 137 "/>
<path style="fill-rule:nonzero;fill:rgb(53%,27%,7%);fill-opacity:1;stroke-width:1;stroke-linecap:butt;stroke-linejoin:miter;stroke:rgb(0%,0%,0%);stroke-opacity:1;stroke-miterlimit:10;" d="M 415 402 L 389.019531 447 L 440.980469 447 L 415 402 "/>
<path style="fill-rule:nonzero;fill:rgb(53%,27%,7%);fill-opacity:1;stroke-width:1;stroke-linecap:butt;stroke-linejoin:miter;stroke:rgb(0%,0%,0%);stroke-opacity:1;stroke-miterlimit:10;" d="M 836 167 L 810.019531 212 L 861.980469 212 L 836 167 "/>
</g>
</svg>
