<?xml version="1.0" encoding="UTF-8"?>
<svg xmlns="http://www.w3.org/2000/svg" xmlns:xlink="http://www.w3.org/1999/xlink" width="1129pt" height="517pt" viewBox="0 0 1129 517" version="1.1">
<g id="surface306">
<rect x="0" y="0" width="1129" height="517" style="fill:rgb(90%,90%,90%);fill-opacity:1;stroke:none;"/>
<path style="fill-rule:nonzero;fill:rgb(100%,51%,0%);fill-opacity:1;stroke-width:1;stroke-linecap:butt;stroke-linejoin:miter;stroke:rgb(0%,0%,0%);stroke-opacity:1;stroke-miterlimit:10;" d="M 40 261 L 69.664062 261 L 81.664062 232.785156 L 93.664062 261 L 123.332031 261 L 99.332031 278.4375 L 107.417969 309.980469 L 81.664062 292.542969 L 55.914062 309.980469 L 68.214844 278.4375 L 40 261 "/>
<path style="fill-rule:nonzero;fill:rgb(100%,51%,0%);fill-opacity:1;stroke-width:1;stroke-linecap:butt;stroke-linejoin:miter;stroke:rgb(0%,0%,0%);stroke-opacity:1;stroke-miterlimit:10;" d="M 273 123 L 302.664062 123 L 314.664062 94.785156 L 326.664062 123 L 356.332031 123 L 332.332031 140.4375 L 340.417969 171.980469 L 314.664062 154.542969 L 288.914062 171.980469 L 301.214844 140.4375 L 273 123 "/>
<path style="fill-rule:nonzero;fill:rgb(100%,51%,0%);fill-opacity:1;stroke-width:1;stroke-linecap:butt;stroke-linejoin:miter;stroke:rgb(0%,0%,0%);stroke-opacity:1;stroke-miterlimit:10;" d="M 818 168 L 847.664062 168 L 859.664062 139.785156 L 871.664062 168 L 901.332031 168 L 877.332031 185.4375 L 885.417969 216.980469 L 859.664062 199.542969 L 833.914062 216.980469 L 846.214844 185.4375 L 818 168 "/>
<path style="fill-rule:nonzero;fill:rgb(100%,51%,0%);fill-opacity:1;stroke-width:1;stroke-linecap:butt;stroke-linejoin:miter;stroke:rgb(0%,0%,0%);stroke-opacity:1;stroke-miterlimit:10;" d="M 245 285 L 274.664062 285 L 286.664062 256.785156 L 298.664062 285 L 328.332031 285 L 304.332031 302.4375 L 312.417969 333.980469 L 286.664062 316.542969 L 260.914062 333.980469 L 273.214844 302.4375 L 245 285 "/>
<path style="fill-rule:nonzero;fill:rgb(100%,51%,0%);fill-opacity:1;stroke-width:1;stroke-linecap:butt;stroke-linejoin:miter;stroke:rgb(0%,0%,0%);stroke-opacity:1;stroke-miterlimit:10;" d="M 700 301 L 729.664062 301 L 741.664062 272.785156 L 753.664062 301 L 783.332031 301 L 759.332031 318.4375 L 767.417969 349.980469 L 741.664062 332.542969 L 715.914062 349.980469 L 728.214844 318.4375 L 700 301 "/>
<path style="fill-rule:nonzero;fill:rgb(100%,51%,0%);fill-opacity:1;stroke-width:1;stroke-linecap:butt;stroke-linejoin:miter;stroke:rgb(0%,0%,0%);stroke-opacity:1;stroke-miterlimit:10;" d="M 802 344 L 831.664062 344 L 843.664062 315.785156 L 855.664062 344 L 885.332031 344 L 861.332031 361.4375 L 869.417969 392.980469 L 843.664062 375.542969 L 817.914062 392.980469 L 830.214844 361.4375 L 802 344 "/>
<path style="fill-rule:nonzero;fill:rgb(55%,51%,53%);fill-opacity:1;stroke-width:1;stroke-linecap:butt;stroke-linejoin:miter;stroke:rgb(0%,0%,0%);stroke-opacity:1;stroke-miterlimit:10;" d="M 97 126 L 71.019531 171 L 122.980469 171 L 97 126 "/>
<path style="fill-rule:nonzero;fill:rgb(55%,51%,53%);fill-opacity:1;stroke-width:1;stroke-linecap:butt;stroke-linejoin:miter;stroke:rgb(0%,0%,0%);stroke-opacity:1;stroke-miterlimit:10;" d="M 883 427 L 857.019531 472 L 908.980469 472 L 883 427 "/>
<path style="fill-rule:nonzero;fill:rgb(55%,51%,53%);fill-opacity:1;stroke-width:1;stroke-linecap:butt;stroke-linejoin:miter;stroke:rgb(0%,0%,0%);stroke-opacity:1;stroke-miterlimit:10;" d="M 541 271 L 515.019531 316 L 566.980469 316 L 541 271 "/>
<path style="fill-rule:nonzero;fill:rgb(55%,51%,53%);fill-opacity:1;stroke-width:1;stroke-linecap:butt;stroke-linejoin:miter;stroke:rgb(0%,0%,0%);stroke-opacity:1;stroke-miterlimit:10;" d="M 761 414 L 735.019531 459 L 786.980469 459 L 761 414 "/>
<path style="fill-rule:nonzero;fill:rgb(55%,51%,53%);fill-opacity:1;stroke-width:1;stroke-linecap:butt;stroke-linejoin:miter;stroke:rgb(0%,0%,0%);stroke-opacity:1;stroke-miterlimit:10;" d="M 386 237 L 360.019531 282 L 411.980469 282 L 386 237 "/>
<path style="fill-rule:nonzero;fill:rgb(55%,51%,53%);fill-opacity:1;stroke-width:1;stroke-linecap:butt;stroke-linejoin:miter;stroke:rgb(0%,0%,0%);stroke-opacity:1;stroke-miterlimit:10;" d="M 982 366 L 956.019531 411 L 1007.980469 411 L 982 366 "/>
<path style="fill-rule:nonzero;fill:rgb(55%,51%,53%);fill-opacity:1;stroke-width:1;stroke-linecap:butt;stroke-linejoin:miter;stroke:rgb(0%,0%,0%);stroke-opacity:1;stroke-miterlimit:10;" d="M 908 116 L 882.019531 161 L 933.980469 161 L 908 116 "/>
<path style="fill-rule:nonzero;fill:rgb(55%,51%,53%);fill-opacity:1;stroke-width:1;stroke-linecap:butt;stroke-linejoin:miter;stroke:rgb(0%,0%,0%);stroke-opacity:1;stroke-miterlimit:10;" d="M 399 87 L 373.019531 132 L 424.980469 132 L 399 87 "/>
</g>
</svg>
