<?xml version="1.0" encoding="UTF-8"?>
<svg xmlns="http://www.w3.org/2000/svg" xmlns:xlink="http://www.w3.org/1999/xlink" width="1129pt" height="517pt" viewBox="0 0 1129 517" version="1.1">
<g id="surface126">
<rect x="0" y="0" width="1129" height="517" style="fill:rgb(90%,90%,90%);fill-opacity:1;stroke:none;"/>
<path style="fill-rule:nonzero;fill:rgb(100%,51%,0%);fill-opacity:1;stroke-width:1;stroke-linecap:butt;stroke-linejoin:miter;stroke:rgb(0%,0%,0%);stroke-opacity:1;stroke-miterlimit:10;" d="M 455 115 L 484.664062 115 L 496.664062 86.785156 L 508.664062 115 L 538.332031 115 L 514.332031 132.4375 L 522.417969 163.980469 L 496.664062 146.542969 L 470.914062 163.980469 L 483.214844 132.4375 L 455 115 "/>
<path style="fill-rule:nonzero;fill:rgb(100%,51%,0%);fill-opacity:1;stroke-width:1;stroke-linecap:butt;stroke-linejoin:miter;stroke:rgb(0%,0%,0%);stroke-opacity:1;stroke-miterlimit:10;" d="M 333 221 L 362.664062 221 L 374.664062 192.785156 L 386.664062 221 L 416.332031 221 L 392.332031 238.4375 L 400.417969 269.980469 L 374.664062 252.542969 L 348.914062 269.980469 L 361.214844 238.4375 L 333 221 "/>
<path style="fill-rule:nonzero;fill:rgb(100%,51%,0%);fill-opacity:1;stroke-width:1;stroke-linecap:butt;stroke-linejoin:miter;stroke:rgb(0%,0%,0%);stroke-opacity:1;stroke-miterlimit:10;" d="M 535 250 L 564.664062 250 L 576.664062 221.785156 L 588.664062 250 L 618.332031 250 L 594.332031 267.4375 L 602.417969 298.980469 L 576.664062 281.542969 L 550.914062 298.980469 L 563.214844 267.4375 L 535 250 "/>
<path style="fill-rule:nonzero;fill:rgb(100%,51%,0%);fill-opacity:1;stroke-width:1;stroke-linecap:butt;stroke-linejoin:miter;stroke:rgb(0%,0%,0%);stroke-opacity:1;stroke-miterlimit:10;" d="M 425 209 L 454.664062 209 L 466.664062 180.785156 L 478.664062 209 L 508.332031 209 L 484.332031 226.4375 L 492.417969 257.980469 L 466.664062 240.542969 L 440.914062 257.980469 L 453.214844 226.4375 L 425 209 "/>
<path style="fill-rule:nonzero;fill:rgb(100%,51%,0%);fill-opacity:1;stroke-width:1;stroke-linecap:butt;stroke-linejoin:miter;stroke:rgb(0%,0%,0%);stroke-opacity:1;stroke-miterlimit:10;" d="M 576 84 L 605.664062 84 L 617.664062 55.785156 L 629.664062 84 L 659.332031 84 L 635.332031 101.4375 L 643.417969 132.980469 L 617.664062 115.542969 L 591.914062 132.980469 L 604.214844 101.4375 L 576 84 "/>
<path style="fill-rule:nonzero;fill:rgb(100%,51%,0%);fill-opacity:1;stroke-width:1;stroke-linecap:butt;stroke-linejoin:miter;stroke:rgb(0%,0%,0%);stroke-opacity:1;stroke-miterlimit:10;" d="M 703 113 L 732.664062 113 L 744.664062 84.785156 L 756.664062 113 L 786.332031 113 L 762.332031 130.4375 L 770.417969 161.980469 L 744.664062 144.542969 L 718.914062 161.980469 L 731.214844 130.4375 L 703 113 "/>
<path style="fill-rule:nonzero;fill:rgb(100%,51%,0%);fill-opacity:1;stroke-width:1;stroke-linecap:butt;stroke-linejoin:miter;stroke:rgb(0%,0%,0%);stroke-opacity:1;stroke-miterlimit:10;" d="M 105 119 L 134.664062 119 L 146.664062 90.785156 L 158.664062 119 L 188.332031 119 L 164.332031 136.4375 L 172.417969 167.980469 L 146.664062 150.542969 L 120.914062 167.980469 L 133.214844 136.4375 L 105 119 "/>
<path style="fill-rule:nonzero;fill:rgb(55%,51%,53%);fill-opacity:1;stroke-width:1;stroke-linecap:butt;stroke-linejoin:miter;stroke:rgb(0%,0%,0%);stroke-opacity:1;stroke-miterlimit:10;" d="M 197 39 L 171.019531 84 L 222.980469 84 L 197 39 "/>
<path style="fill-rule:nonzero;fill:rgb(55%,51%,53%);fill-opacity:1;stroke-width:1;stroke-linecap:butt;stroke-linejoin:miter;stroke:rgb(0%,0%,0%);stroke-opacity:1;stroke-miterlimit:10;" d="M 905 238 L 879.019531 283 L 930.980469 283 L 905 238 "/>
<path style="fill-rule:nonzero;fill:rgb(55%,51%,53%);fill-opacity:1;stroke-width:1;stroke-linecap:butt;stroke-linejoin:miter;stroke:rgb(0%,0%,0%);stroke-opacity:1;stroke-miterlimit:10;" d="M 826 299 L 800.019531 344 L 851.980469 344 L 826 299 "/>
<path style="fill-rule:nonzero;fill:rgb(55%,51%,53%);fill-opacity:1;stroke-width:1;stroke-linecap:butt;stroke-linejoin:miter;stroke:rgb(0%,0%,0%);stroke-opacity:1;stroke-miterlimit:10;" d="M 980 309 L 954.019531 354 L 1005.980469 354 L 980 309 "/>
</g>
</svg>
