<?xml version="1.0" encoding="UTF-8"?>
<svg xmlns="http://www.w3.org/2000/svg" xmlns:xlink="http://www.w3.org/1999/xlink" width="1129pt" height="517pt" viewBox="0 0 1129 517" version="1.1">
<g id="surface436">
<rect x="0" y="0" width="1129" height="517" style="fill:rgb(90%,90%,90%);fill-opacity:1;stroke:none;"/>
<path style="fill-rule:nonzero;fill:rgb(35%,70%,90%);fill-opacity:1;stroke-width:1;stroke-linecap:butt;stroke-linejoin:miter;stroke:rgb(0%,0%,0%);stroke-opacity:1;stroke-miterlimit:10;" d="M 138.214844 223 C 138.214844 234.714844 128.714844 244.214844 117 244.214844 C 105.285156 244.214844 95.785156 234.714844 95.785156 223 C 95.785156 211.285156 105.285156 201.785156 117 201.785156 C 128.714844 201.785156 138.214844 211.285156 138.214844 223 "/>
<path style="fill-rule:nonzero;fill:rgb(35%,70%,90%);fill-opacity:1;stroke-width:1;stroke-linecap:butt;stroke-linejoin:miter;stroke:rgb(0%,0%,0%);stroke-opacity:1;stroke-miterlimit:10;" d="M 361.214844 257 C 361.214844 268.714844 351.714844 278.214844 340 278.214844 C 328.285156 278.214844 318.785156 268.714844 318.785156 257 C 318.785156 245.285156 328.285156 235.785156 340 235.785156 C 351.714844 235.785156 361.214844 245.285156 361.214844 257 "/>
<path style="fill-rule:nonzero;fill:rgb(35%,70%,90%);fill-opacity:1;stroke-width:1;stroke-linecap:butt;stroke-linejoin:miter;stroke:rgb(0%,0%,0%);stroke-opacity:1;stroke-miterlimit:10;" d="M 360 429 L 334.019531 474 L 385.980469 474 L 360 429 "/>
<path style="fill-rule:nonzero;fill:rgb(35%,70%,90%);fill-opacity:1;stroke-width:1;stroke-linecap:butt;stroke-linejoin:miter;stroke:rgb(0%,0%,0%);stroke-opacity:1;stroke-miterlimit:10;" d="M 420.214844 174 C 420.214844 185.714844 410.714844 195.214844 399 195.214844 C 387.285156 195.214844 377.785156 185.714844 377.785156 174 C 377.785156 162.285156 387.285156 152.785156 399 152.785156 C 410.714844 152.785156 420.214844 162.285156 420.214844 174 "/>
<path style="fill-rule:nonzero;fill:rgb(35%,70%,90%);fill-opacity:1;stroke-width:1;stroke-linecap:butt;stroke-linejoin:miter;stroke:rgb(0%,0%,0%);stroke-opacity:1;stroke-miterlimit:10;" d="M 129.214844 129 C 129.214844 140.714844 119.714844 150.214844 108 150.214844 C 96.285156 150.214844 86.785156 140.714844 86.785156 129 C 86.785156 117.285156 96.285156 107.785156 108 107.785156 C 119.714844 107.785156 129.214844 117.285156 129.214844 129 "/>
<path style="fill-rule:nonzero;fill:rgb(35%,70%,90%);fill-opacity:1;stroke-width:1;stroke-linecap:butt;stroke-linejoin:miter;stroke:rgb(0%,0%,0%);stroke-opacity:1;stroke-miterlimit:10;" d="M 247.214844 247 C 247.214844 258.714844 237.714844 268.214844 226 268.214844 C 214.285156 268.214844 204.785156 258.714844 204.785156 247 C 204.785156 235.285156 214.285156 225.785156 226 225.785156 C 237.714844 225.785156 247.214844 235.285156 247.214844 247 "/>
<path style="fill-rule:nonzero;fill:rgb(35%,70%,90%);fill-opacity:1;stroke-width:1;stroke-linecap:butt;stroke-linejoin:miter;stroke:rgb(0%,0%,0%);stroke-opacity:1;stroke-miterlimit:10;" d="M 187.214844 46 C 187.214844 57.714844 177.714844 67.214844 166 67.214844 C 154.285156 67.214844 144.785156 57.714844 144.785156 46 C 144.785156 34.285156 154.285156 24.785156 166 24.785156 C 177.714844 24.785156 187.214844 34.285156 187.214844 46 "/>
<path style="fill-rule:nonzero;fill:rgb(35%,70%,90%);fill-opacity:1;stroke-width:1;stroke-linecap:butt;stroke-linejoin:miter;stroke:rgb(0%,0%,0%);stroke-opacity:1;stroke-miterlimit:10;" d="M 426.214844 371 C 426.214844 382.714844 416.714844 392.214844 405 392.214844 C 393.285156 392.214844 383.785156 382.714844 383.785156 371 C 383.785156 359.285156 393.285156 349.785156 405 349.785156 C 416.714844 349.785156 426.214844 359.285156 426.214844 371 "/>
<path style="fill-rule:nonzero;fill:rgb(55%,51%,53%);fill-opacity:1;stroke-width:1;stroke-linecap:butt;stroke-linejoin:miter;stroke:rgb(0%,0%,0%);stroke-opacity:1;stroke-miterlimit:10;" d="M 709 323 L 683.019531 368 L 734.980469 368 L 709 323 "/>
<path style="fill-rule:nonzero;fill:rgb(55%,51%,53%);fill-opacity:1;stroke-width:1;stroke-linecap:butt;stroke-linejoin:miter;stroke:rgb(0%,0%,0%);stroke-opacity:1;stroke-miterlimit:10;" d="M 966 60 L 940.019531 105 L 991.980469 105 L 966 60 "/>
<path style="fill-rule:nonzero;fill:rgb(55%,51%,53%);fill-opacity:1;stroke-width:1;stroke-linecap:butt;stroke-linejoin:miter;stroke:rgb(0%,0%,0%);stroke-opacity:1;stroke-miterlimit:10;" d="M 1053.214844 329 C 1053.214844 340.714844 1043.714844 350.214844 1032 350.214844 C 1020.285156 350.214844 1010.785156 340.714844 1010.785156 329 C 1010.785156 317.285156 1020.285156 307.785156 1032 307.785156 C 1043.714844 307.785156 1053.214844 317.285156 1053.214844 329 "/>
<path style="fill-rule:nonzero;fill:rgb(55%,51%,53%);fill-opacity:1;stroke-width:1;stroke-linecap:butt;stroke-linejoin:miter;stroke:rgb(0%,0%,0%);stroke-opacity:1;stroke-miterlimit:10;" d="M 682 66 L 656.019531 111 L 707.980469 111 L 682 66 "/>
<path style="fill-rule:nonzero;fill:rgb(55%,51%,53%);fill-opacity:1;stroke-width:1;stroke-linecap:butt;stroke-linejoin:miter;stroke:rgb(0%,0%,0%);stroke-opacity:1;stroke-miterlimit:10;" d="M 839 246 L 813.019531 291 L 864.980469 291 L 839 246 "/>
<path style="fill-rule:nonzero;fill:rgb(55%,51%,53%);fill-opacity:1;stroke-width:1;stroke-linecap:butt;stroke-linejoin:miter;stroke:rgb(0%,0%,0%);stroke-opacity:1;stroke-miterlimit:10;" d="M 790 414 L 764.019531 459 L 815.980469 459 L 790 414 "/>
<path style="fill-rule:nonzero;fill:rgb(55%,51%,53%);fill-opacity:1;stroke-width:1;stroke-linecap:butt;stroke-linejoin:miter;stroke:rgb(0%,0%,0%);stroke-opacity:1;stroke-miterlimit:10;" d="M 691 210 L 665.019531 255 L 716.980469 255 L 691 210 "/>
</g>
</svg>
