<?xml version="1.0" encoding="UTF-8"?>
<svg xmlns="http://www.w3.org/2000/svg" xmlns:xlink="http://www.w3.org/1999/xlink" width="1129pt" height="517pt" viewBox="0 0 1129 517" version="1.1">
<g id="surface1">
<rect x="0" y="0" width="1129" height="517" style="fill:rgb(90%,90%,90%);fill-opacity:1;stroke:none;"/>
<path style="fill-rule:nonzero;fill:rgb(35%,70%,90%);fill-opacity:1;stroke-width:1;stroke-linecap:butt;stroke-linejoin:miter;stroke:rgb(0%,0%,0%);stroke-opacity:1;stroke-miterlimit:10;" d="M 632 380 L 661.664062 380 L 673.664062 351.785156 L 685.664062 380 L 715.332031 380 L 691.332031 397.4375 L 699.417969 428.980469 L 673.664062 411.542969 L 647.914062 428.980469 L 660.214844 397.4375 L 632 380 "/>
<path style="fill-rule:nonzero;fill:rgb(35%,70%,90%);fill-opacity:1;stroke-width:1;stroke-linecap:butt;stroke-linejoin:miter;stroke:rgb(0%,0%,0%);stroke-opacity:1;stroke-miterlimit:10;" d="M 582 155 L 611.664062 155 L 623.664062 126.785156 L 635.664062 155 L 665.332031 155 L 641.332031 172.4375 L 649.417969 203.980469 L 623.664062 186.542969 L 597.914062 203.980469 L 610.214844 172.4375 L 582 155 "/>
<path style="fill-rule:nonzero;fill:rgb(35%,70%,90%);fill-opacity:1;stroke-width:1;stroke-linecap:butt;stroke-linejoin:miter;stroke:rgb(0%,0%,0%);stroke-opacity:1;stroke-miterlimit:10;" d="M 759 68 L 788.664062 68 L 800.664062 39.785156 L 812.664062 68 L 842.332031 68 L 818.332031 85.4375 L 826.417969 116.980469 L 800.664062 99.542969 L 774.914062 116.980469 L 787.214844 85.4375 L 759 68 "/>
<path style="fill-rule:nonzero;fill:rgb(100%,51%,0%);fill-opacity:1;stroke-width:1;stroke-linecap:butt;stroke-linejoin:miter;stroke:rgb(0%,0%,0%);stroke-opacity:1;stroke-miterlimit:10;" d="M 767.214844 431 C 767.214844 442.714844 757.714844 452.214844 746 452.214844 C 734.285156 452.214844 724.785156 442.714844 724.785156 431 C 724.785156 419.285156 734.285156 409.785156 746 409.785156 C 757.714844 409.785156 767.214844 419.285156 767.214844 431 "/>
<path style="fill-rule:nonzero;fill:rgb(100%,51%,0%);fill-opacity:1;stroke-width:1;stroke-linecap:butt;stroke-linejoin:miter;stroke:rgb(0%,0%,0%);stroke-opacity:1;stroke-miterlimit:10;" d="M 651.214844 234 C 651.214844 245.714844 641.714844 255.214844 630 255.214844 C 618.285156 255.214844 608.785156 245.714844 608.785156 234 C 608.785156 222.285156 618.285156 212.785156 630 212.785156 C 641.714844 212.785156 651.214844 222.285156 651.214844 234 "/>
<path style="fill-rule:nonzero;fill:rgb(100%,51%,0%);fill-opacity:1;stroke-width:1;stroke-linecap:butt;stroke-linejoin:miter;stroke:rgb(0%,0%,0%);stroke-opacity:1;stroke-miterlimit:10;" d="M 114.214844 278 C 114.214844 289.714844 104.714844 299.214844 93 299.214844 C 81.285156 299.214844 71.785156 289.714844 71.785156 278 C 71.785156 266.285156 81.285156 256.785156 93 256.785156 C 104.714844 256.785156 114.214844 266.285156 114.214844 278 "/>
<path style="fill-rule:nonzero;fill:rgb(100%,51%,0%);fill-opacity:1;stroke-width:1;stroke-linecap:butt;stroke-linejoin:miter;stroke:rgb(0%,0%,0%);stroke-opacity:1;stroke-miterlimit:10;" d="M 841.214844 154 C 841.214844 165.714844 831.714844 175.214844 820 175.214844 C 808.285156 175.214844 798.785156 165.714844 798.785156 154 C 798.785156 142.285156 808.285156 132.785156 820 132.785156 C 831.714844 132.785156 841.214844 142.285156 841.214844 154 "/>
<path style="fill-rule:nonzero;fill:rgb(100%,51%,0%);fill-opacity:1;stroke-width:1;stroke-linecap:butt;stroke-linejoin:miter;stroke:rgb(0%,0%,0%);stroke-opacity:1;stroke-miterlimit:10;" d="M 391.214844 177 C 391.214844 188.714844 381.714844 198.214844 370 198.214844 C 358.285156 198.214844 348.785156 188.714844 348.785156 177 C 348.785156 165.285156 358.285156 155.785156 370 155.785156 C 381.714844 155.785156 391.214844 165.285156 391.214844 177 "/>
<path style="fill-rule:nonzero;fill:rgb(100%,51%,0%);fill-opacity:1;stroke-width:1;stroke-linecap:butt;stroke-linejoin:miter;stroke:rgb(0%,0%,0%);stroke-opacity:1;stroke-miterlimit:10;" d="M 254.214844 183 C 254.214844 194.714844 244.714844 204.214844 233 204.214844 C 221.285156 204.214844 211.785156 194.714844 211.785156 183 C 211.785156 171.285156 221.285156 161.785156 233 161.785156 C 244.714844 161.785156 254.214844 171.285156 254.214844 183 "/>
<path style="fill-rule:nonzero;fill:rgb(100%,51%,0%);fill-opacity:1;stroke-width:1;stroke-linecap:butt;stroke-linejoin:miter;stroke:rgb(0%,0%,0%);stroke-opacity:1;stroke-miterlimit:10;" d="M 341.214844 284 C 341.214844 295.714844 331.714844 305.214844 320 305.214844 C 308.285156 305.214844 298.785156 295.714844 298.785156 284 C 298.785156 272.285156 308.285156 262.785156 320 262.785156 C 331.714844 262.785156 341.214844 272.285156 341.214844 284 "/>
<path style="fill-rule:nonzero;fill:rgb(100%,51%,0%);fill-opacity:1;stroke-width:1;stroke-linecap:butt;stroke-linejoin:miter;stroke:rgb(0%,0%,0%);stroke-opacity:1;stroke-miterlimit:10;" d="M 409.214844 424 C 409.214844 435.714844 399.714844 445.214844 388 445.214844 C 376.285156 445.214844 366.785156 435.714844 366.785156 424 C 366.785156 412.285156 376.285156 402.785156 388 402.785156 C 399.714844 402.785156 409.214844 412.285156 409.214844 424 "/>
</g>
</svg>
