<?xml version="1.0" encoding="UTF-8"?>
<svg xmlns="http://www.w3.org/2000/svg" xmlns:xlink="http://www.w3.org/1999/xlink" width="1129pt" height="517pt" viewBox="0 0 1129 517" version="1.1">
<g id="surface71">
<rect x="0" y="0" width="1129" height="517" style="fill:rgb(90%,90%,90%);fill-opacity:1;stroke:none;"/>
<path style="fill-rule:nonzero;fill:rgb(35%,70%,90%);fill-opacity:1;stroke-width:1;stroke-linecap:butt;stroke-linejoin:miter;stroke:rgb(0%,0%,0%);stroke-opacity:1;stroke-miterlimit:10;" d="M 251 262 L 280.664062 262 L 292.664062 233.785156 L 304.664062 262 L 334.332031 262 L 310.332031 279.4375 L 318.417969 310.980469 L 292.664062 293.542969 L 266.914062 310.980469 L 279.214844 279.4375 L 251 262 "/>
<path style="fill-rule:nonzero;fill:rgb(35%,70%,90%);fill-opacity:1;stroke-width:1;stroke-linecap:butt;stroke-linejoin:miter;stroke:rgb(0%,0%,0%);stroke-opacity:1;stroke-miterlimit:10;" d="M 210.785156 407.785156 L 210.785156 450.214844 L 253.214844 450.214844 L 253.214844 407.785156 L 210.785156 407.785156 "/>
<path style="fill-rule:nonzero;fill:rgb(35%,70%,90%);fill-opacity:1;stroke-width:1;stroke-linecap:butt;stroke-linejoin:miter;stroke:rgb(0%,0%,0%);stroke-opacity:1;stroke-miterlimit:10;" d="M 55.785156 231.785156 L 55.785156 274.214844 L 98.214844 274.214844 L 98.214844 231.785156 L 55.785156 231.785156 "/>
<path style="fill-rule:nonzero;fill:rgb(35%,70%,90%);fill-opacity:1;stroke-width:1;stroke-linecap:butt;stroke-linejoin:miter;stroke:rgb(0%,0%,0%);stroke-opacity:1;stroke-miterlimit:10;" d="M 41 336 L 70.664062 336 L 82.664062 307.785156 L 94.664062 336 L 124.332031 336 L 100.332031 353.4375 L 108.417969 384.980469 L 82.664062 367.542969 L 56.914062 384.980469 L 69.214844 353.4375 L 41 336 "/>
<path style="fill-rule:nonzero;fill:rgb(35%,70%,90%);fill-opacity:1;stroke-width:1;stroke-linecap:butt;stroke-linejoin:miter;stroke:rgb(0%,0%,0%);stroke-opacity:1;stroke-miterlimit:10;" d="M 72 104 L 101.664062 104 L 113.664062 75.785156 L 125.664062 104 L 155.332031 104 L 131.332031 121.4375 L 139.417969 152.980469 L 113.664062 135.542969 L 87.914062 152.980469 L 100.214844 121.4375 L 72 104 "/>
<path style="fill-rule:nonzero;fill:rgb(35%,70%,90%);fill-opacity:1;stroke-width:1;stroke-linecap:butt;stroke-linejoin:miter;stroke:rgb(0%,0%,0%);stroke-opacity:1;stroke-miterlimit:10;" d="M 431 205 L 460.664062 205 L 472.664062 176.785156 L 484.664062 205 L 514.332031 205 L 490.332031 222.4375 L 498.417969 253.980469 L 472.664062 236.542969 L 446.914062 253.980469 L 459.214844 222.4375 L 431 205 "/>
<path style="fill-rule:nonzero;fill:rgb(35%,70%,90%);fill-opacity:1;stroke-width:1;stroke-linecap:butt;stroke-linejoin:miter;stroke:rgb(0%,0%,0%);stroke-opacity:1;stroke-miterlimit:10;" d="M 193 68 L 222.664062 68 L 234.664062 39.785156 L 246.664062 68 L 276.332031 68 L 252.332031 85.4375 L 260.417969 116.980469 L 234.664062 99.542969 L 208.914062 116.980469 L 221.214844 85.4375 L 193 68 "/>
<path style="fill-rule:nonzero;fill:rgb(55%,51%,53%);fill-opacity:1;stroke-width:1;stroke-linecap:butt;stroke-linejoin:miter;stroke:rgb(0%,0%,0%);stroke-opacity:1;stroke-miterlimit:10;" d="M 942.785156 241.785156 L 942.785156 284.214844 L 985.214844 284.214844 L 985.214844 241.785156 L 942.785156 241.785156 "/>
<path style="fill-rule:nonzero;fill:rgb(55%,51%,53%);fill-opacity:1;stroke-width:1;stroke-linecap:butt;stroke-linejoin:miter;stroke:rgb(0%,0%,0%);stroke-opacity:1;stroke-miterlimit:10;" d="M 827 162 L 856.664062 162 L 868.664062 133.785156 L 880.664062 162 L 910.332031 162 L 886.332031 179.4375 L 894.417969 210.980469 L 868.664062 193.542969 L 842.914062 210.980469 L 855.214844 179.4375 L 827 162 "/>
<path style="fill-rule:nonzero;fill:rgb(55%,51%,53%);fill-opacity:1;stroke-width:1;stroke-linecap:butt;stroke-linejoin:miter;stroke:rgb(0%,0%,0%);stroke-opacity:1;stroke-miterlimit:10;" d="M 639 443 L 668.664062 443 L 680.664062 414.785156 L 692.664062 443 L 722.332031 443 L 698.332031 460.4375 L 706.417969 491.980469 L 680.664062 474.542969 L 654.914062 491.980469 L 667.214844 460.4375 L 639 443 "/>
</g>
</svg>
