<?xml version="1.0" encoding="UTF-8"?>
<svg xmlns="http://www.w3.org/2000/svg" xmlns:xlink="http://www.w3.org/1999/xlink" width="1129pt" height="517pt" viewBox="0 0 1129 517" version="1.1">
<g id="surface41">
<rect x="0" y="0" width="1129" height="517" style="fill:rgb(90%,90%,90%);fill-opacity:1;stroke:none;"/>
<path style="fill-rule:nonzero;fill:rgb(35%,70%,90%);fill-opacity:1;stroke-width:1;stroke-linecap:butt;stroke-linejoin:miter;stroke:rgb(0%,0%,0%);stroke-opacity:1;stroke-miterlimit:10;" d="M 92 236 L 121.664062 236 L 133.664062 207.785156 L 145.664062 236 L 175.332031 236 L 151.332031 253.4375 L 159.417969 284.980469 L 133.664062 267.542969 L 107.914062 284.980469 L 120.214844 253.4375 L 92 236 "/>
<path style="fill-rule:nonzero;fill:rgb(100%,51%,0%);fill-opacity:1;stroke-width:1;stroke-linecap:butt;stroke-linejoin:miter;stroke:rgb(0%,0%,0%);stroke-opacity:1;stroke-miterlimit:10;" d="M 84 462 L 113.664062 462 L 125.664062 433.785156 L 137.664062 462 L 167.332031 462 L 143.332031 479.4375 L 151.417969 510.980469 L 125.664062 493.542969 L 99.914062 510.980469 L 112.214844 479.4375 L 84 462 "/>
<path style="fill-rule:nonzero;fill:rgb(35%,70%,90%);fill-opacity:1;stroke-width:1;stroke-linecap:butt;stroke-linejoin:miter;stroke:rgb(0%,0%,0%);stroke-opacity:1;stroke-miterlimit:10;" d="M 248 351 L 277.664062 351 L 289.664062 322.785156 L 301.664062 351 L 331.332031 351 L 307.332031 368.4375 L 315.417969 399.980469 L 289.664062 382.542969 L 263.914062 399.980469 L 276.214844 368.4375 L 248 351 "/>
<path style="fill-rule:nonzero;fill:rgb(100%,51%,0%);fill-opacity:1;stroke-width:1;stroke-linecap:butt;stroke-linejoin:miter;stroke:rgb(0%,0%,0%);stroke-opacity:1;stroke-miterlimit:10;" d="M 463 349 L 492.664062 349 L 504.664062 320.785156 L 516.664062 349 L 546.332031 349 L 522.332031 366.4375 L 530.417969 397.980469 L 504.664062 380.542969 L 478.914062 397.980469 L 491.214844 366.4375 L 463 349 "/>
<path style="fill-rule:nonzero;fill:rgb(35%,70%,90%);fill-opacity:1;stroke-width:1;stroke-linecap:butt;stroke-linejoin:miter;stroke:rgb(0%,0%,0%);stroke-opacity:1;stroke-miterlimit:10;" d="M 295 168 L 324.664062 168 L 336.664062 139.785156 L 348.664062 168 L 378.332031 168 L 354.332031 185.4375 L 362.417969 216.980469 L 336.664062 199.542969 L 310.914062 216.980469 L 323.214844 185.4375 L 295 168 "/>
<path style="fill-rule:nonzero;fill:rgb(35%,70%,90%);fill-opacity:1;stroke-width:1;stroke-linecap:butt;stroke-linejoin:miter;stroke:rgb(0%,0%,0%);stroke-opacity:1;stroke-miterlimit:10;" d="M 355 435 L 384.664062 435 L 396.664062 406.785156 L 408.664062 435 L 438.332031 435 L 414.332031 452.4375 L 422.417969 483.980469 L 396.664062 466.542969 L 370.914062 483.980469 L 383.214844 452.4375 L 355 435 "/>
<path style="fill-rule:nonzero;fill:rgb(35%,70%,90%);fill-opacity:1;stroke-width:1;stroke-linecap:butt;stroke-linejoin:miter;stroke:rgb(0%,0%,0%);stroke-opacity:1;stroke-miterlimit:10;" d="M 403 155 L 432.664062 155 L 444.664062 126.785156 L 456.664062 155 L 486.332031 155 L 462.332031 172.4375 L 470.417969 203.980469 L 444.664062 186.542969 L 418.914062 203.980469 L 431.214844 172.4375 L 403 155 "/>
<path style="fill-rule:nonzero;fill:rgb(100%,51%,0%);fill-opacity:1;stroke-width:1;stroke-linecap:butt;stroke-linejoin:miter;stroke:rgb(0%,0%,0%);stroke-opacity:1;stroke-miterlimit:10;" d="M 828.785156 204.785156 L 828.785156 247.214844 L 871.214844 247.214844 L 871.214844 204.785156 L 828.785156 204.785156 "/>
<path style="fill-rule:nonzero;fill:rgb(35%,70%,90%);fill-opacity:1;stroke-width:1;stroke-linecap:butt;stroke-linejoin:miter;stroke:rgb(0%,0%,0%);stroke-opacity:1;stroke-miterlimit:10;" d="M 641.785156 431.785156 L 641.785156 474.214844 L 684.214844 474.214844 L 684.214844 431.785156 L 641.785156 431.785156 "/>
<path style="fill-rule:nonzero;fill:rgb(100%,51%,0%);fill-opacity:1;stroke-width:1;stroke-linecap:butt;stroke-linejoin:miter;stroke:rgb(0%,0%,0%);stroke-opacity:1;stroke-miterlimit:10;" d="M 973.785156 99.785156 L 973.785156 142.214844 L 1016.214844 142.214844 L 1016.214844 99.785156 L 973.785156 99.785156 "/>
<path style="fill-rule:nonzero;fill:rgb(35%,70%,90%);fill-opacity:1;stroke-width:1;stroke-linecap:butt;stroke-linejoin:miter;stroke:rgb(0%,0%,0%);stroke-opacity:1;stroke-miterlimit:10;" d="M 704.785156 362.785156 L 704.785156 405.214844 L 747.214844 405.214844 L 747.214844 362.785156 L 704.785156 362.785156 "/>
</g>
</svg>
