<?xml version="1.0" encoding="UTF-8"?>
<svg xmlns="http://www.w3.org/2000/svg" xmlns:xlink="http://www.w3.org/1999/xlink" width="1129pt" height="517pt" viewBox="0 0 1129 517" version="1.1">
<g id="surface571">
<rect x="0" y="0" width="1129" height="517" style="fill:rgb(90%,90%,90%);fill-opacity:1;stroke:none;"/>
<path style="fill-rule:nonzero;fill:rgb(35%,70%,90%);fill-opacity:1;stroke-width:1;stroke-linecap:butt;stroke-linejoin:miter;stroke:rgb(0%,0%,0%);stroke-opacity:1;stroke-miterlimit:10;" d="M 93 66 L 122.664062 66 L 134.664062 37.785156 L 146.664062 66 L 176.332031 66 L 152.332031 83.4375 L 160.417969 114.980469 L 134.664062 97.542969 L 108.914062 114.980469 L 121.214844 83.4375 L 93 66 "/>
<path style="fill-rule:nonzero;fill:rgb(35%,70%,90%);fill-opacity:1;stroke-width:1;stroke-linecap:butt;stroke-linejoin:miter;stroke:rgb(0%,0%,0%);stroke-opacity:1;stroke-miterlimit:10;" d="M 492 221 L 521.664062 221 L 533.664062 192.785156 L 545.664062 221 L 575.332031 221 L 551.332031 238.4375 L 559.417969 269.980469 L 533.664062 252.542969 L 507.914062 269.980469 L 520.214844 238.4375 L 492 221 "/>
<path style="fill-rule:nonzero;fill:rgb(35%,70%,90%);fill-opacity:1;stroke-width:1;stroke-linecap:butt;stroke-linejoin:miter;stroke:rgb(0%,0%,0%);stroke-opacity:1;stroke-miterlimit:10;" d="M 343 138 L 372.664062 138 L 384.664062 109.785156 L 396.664062 138 L 426.332031 138 L 402.332031 155.4375 L 410.417969 186.980469 L 384.664062 169.542969 L 358.914062 186.980469 L 371.214844 155.4375 L 343 138 "/>
<path style="fill-rule:nonzero;fill:rgb(35%,70%,90%);fill-opacity:1;stroke-width:1;stroke-linecap:butt;stroke-linejoin:miter;stroke:rgb(0%,0%,0%);stroke-opacity:1;stroke-miterlimit:10;" d="M 85 356 L 114.664062 356 L 126.664062 327.785156 L 138.664062 356 L 168.332031 356 L 144.332031 373.4375 L 152.417969 404.980469 L 126.664062 387.542969 L 100.914062 404.980469 L 113.214844 373.4375 L 85 356 "/>
<path style="fill-rule:nonzero;fill:rgb(35%,70%,90%);fill-opacity:1;stroke-width:1;stroke-linecap:butt;stroke-linejoin:miter;stroke:rgb(0%,0%,0%);stroke-opacity:1;stroke-miterlimit:10;" d="M 673 438 L 702.664062 438 L 714.664062 409.785156 L 726.664062 438 L 756.332031 438 L 732.332031 455.4375 L 740.417969 486.980469 L 714.664062 469.542969 L 688.914062 486.980469 L 701.214844 455.4375 L 673 438 "/>
<path style="fill-rule:nonzero;fill:rgb(35%,70%,90%);fill-opacity:1;stroke-width:1;stroke-linecap:butt;stroke-linejoin:miter;stroke:rgb(0%,0%,0%);stroke-opacity:1;stroke-miterlimit:10;" d="M 774 360 L 803.664062 360 L 815.664062 331.785156 L 827.664062 360 L 857.332031 360 L 833.332031 377.4375 L 841.417969 408.980469 L 815.664062 391.542969 L 789.914062 408.980469 L 802.214844 377.4375 L 774 360 "/>
<path style="fill-rule:nonzero;fill:rgb(53%,27%,7%);fill-opacity:1;stroke-width:1;stroke-linecap:butt;stroke-linejoin:miter;stroke:rgb(0%,0%,0%);stroke-opacity:1;stroke-miterlimit:10;" d="M 923.214844 350 C 923.214844 361.714844 913.714844 371.214844 902 371.214844 C 890.285156 371.214844 880.785156 361.714844 880.785156 350 C 880.785156 338.285156 890.285156 328.785156 902 328.785156 C 913.714844 328.785156 923.214844 338.285156 923.214844 350 "/>
<path style="fill-rule:nonzero;fill:rgb(53%,27%,7%);fill-opacity:1;stroke-width:1;stroke-linecap:butt;stroke-linejoin:miter;stroke:rgb(0%,0%,0%);stroke-opacity:1;stroke-miterlimit:10;" d="M 548.214844 120 C 548.214844 131.714844 538.714844 141.214844 527 141.214844 C 515.285156 141.214844 505.785156 131.714844 505.785156 120 C 505.785156 108.285156 515.285156 98.785156 527 98.785156 C 538.714844 98.785156 548.214844 108.285156 548.214844 120 "/>
<path style="fill-rule:nonzero;fill:rgb(53%,27%,7%);fill-opacity:1;stroke-width:1;stroke-linecap:butt;stroke-linejoin:miter;stroke:rgb(0%,0%,0%);stroke-opacity:1;stroke-miterlimit:10;" d="M 243.214844 141 C 243.214844 152.714844 233.714844 162.214844 222 162.214844 C 210.285156 162.214844 200.785156 152.714844 200.785156 141 C 200.785156 129.285156 210.285156 119.785156 222 119.785156 C 233.714844 119.785156 243.214844 129.285156 243.214844 141 "/>
<path style="fill-rule:nonzero;fill:rgb(53%,27%,7%);fill-opacity:1;stroke-width:1;stroke-linecap:butt;stroke-linejoin:miter;stroke:rgb(0%,0%,0%);stroke-opacity:1;stroke-miterlimit:10;" d="M 746.214844 170 C 746.214844 181.714844 736.714844 191.214844 725 191.214844 C 713.285156 191.214844 703.785156 181.714844 703.785156 170 C 703.785156 158.285156 713.285156 148.785156 725 148.785156 C 736.714844 148.785156 746.214844 158.285156 746.214844 170 "/>
<path style="fill-rule:nonzero;fill:rgb(53%,27%,7%);fill-opacity:1;stroke-width:1;stroke-linecap:butt;stroke-linejoin:miter;stroke:rgb(0%,0%,0%);stroke-opacity:1;stroke-miterlimit:10;" d="M 175.214844 456 C 175.214844 467.714844 165.714844 477.214844 154 477.214844 C 142.285156 477.214844 132.785156 467.714844 132.785156 456 C 132.785156 444.285156 142.285156 434.785156 154 434.785156 C 165.714844 434.785156 175.214844 444.285156 175.214844 456 "/>
<path style="fill-rule:nonzero;fill:rgb(53%,27%,7%);fill-opacity:1;stroke-width:1;stroke-linecap:butt;stroke-linejoin:miter;stroke:rgb(0%,0%,0%);stroke-opacity:1;stroke-miterlimit:10;" d="M 715.214844 286 C 715.214844 297.714844 705.714844 307.214844 694 307.214844 C 682.285156 307.214844 672.785156 297.714844 672.785156 286 C 672.785156 274.285156 682.285156 264.785156 694 264.785156 C 705.714844 264.785156 715.214844 274.285156 715.214844 286 "/>
</g>
</svg>
