<?xml version="1.0" encoding="UTF-8"?>
<svg xmlns="http://www.w3.org/2000/svg" xmlns:xlink="http://www.w3.org/1999/xlink" width="1129pt" height="517pt" viewBox="0 0 1129 517" version="1.1">
<g id="surface546">
<rect x="0" y="0" width="1129" height="517" style="fill:rgb(90%,90%,90%);fill-opacity:1;stroke:none;"/>
<path style="fill-rule:nonzero;fill:rgb(35%,70%,90%);fill-opacity:1;stroke-width:1;stroke-linecap:butt;stroke-linejoin:miter;stroke:rgb(0%,0%,0%);stroke-opacity:1;stroke-miterlimit:10;" d="M 978 470 L 1007.664062 470 L 1019.664062 441.785156 L 1031.664062 470 L 1061.332031 470 L 1037.332031 487.4375 L 1045.417969 518.980469 L 1019.664062 501.542969 L 993.914062 518.980469 L 1006.214844 487.4375 L 978 470 "/>
<path style="fill-rule:nonzero;fill:rgb(35%,70%,90%);fill-opacity:1;stroke-width:1;stroke-linecap:butt;stroke-linejoin:miter;stroke:rgb(0%,0%,0%);stroke-opacity:1;stroke-miterlimit:10;" d="M 406 246 L 435.664062 246 L 447.664062 217.785156 L 459.664062 246 L 489.332031 246 L 465.332031 263.4375 L 473.417969 294.980469 L 447.664062 277.542969 L 421.914062 294.980469 L 434.214844 263.4375 L 406 246 "/>
<path style="fill-rule:nonzero;fill:rgb(35%,70%,90%);fill-opacity:1;stroke-width:1;stroke-linecap:butt;stroke-linejoin:miter;stroke:rgb(0%,0%,0%);stroke-opacity:1;stroke-miterlimit:10;" d="M 757 293 L 786.664062 293 L 798.664062 264.785156 L 810.664062 293 L 840.332031 293 L 816.332031 310.4375 L 824.417969 341.980469 L 798.664062 324.542969 L 772.914062 341.980469 L 785.214844 310.4375 L 757 293 "/>
<path style="fill-rule:nonzero;fill:rgb(35%,70%,90%);fill-opacity:1;stroke-width:1;stroke-linecap:butt;stroke-linejoin:miter;stroke:rgb(0%,0%,0%);stroke-opacity:1;stroke-miterlimit:10;" d="M 737 103 L 766.664062 103 L 778.664062 74.785156 L 790.664062 103 L 820.332031 103 L 796.332031 120.4375 L 804.417969 151.980469 L 778.664062 134.542969 L 752.914062 151.980469 L 765.214844 120.4375 L 737 103 "/>
<path style="fill-rule:nonzero;fill:rgb(35%,70%,90%);fill-opacity:1;stroke-width:1;stroke-linecap:butt;stroke-linejoin:miter;stroke:rgb(0%,0%,0%);stroke-opacity:1;stroke-miterlimit:10;" d="M 866 464 L 895.664062 464 L 907.664062 435.785156 L 919.664062 464 L 949.332031 464 L 925.332031 481.4375 L 933.417969 512.980469 L 907.664062 495.542969 L 881.914062 512.980469 L 894.214844 481.4375 L 866 464 "/>
<path style="fill-rule:nonzero;fill:rgb(35%,70%,90%);fill-opacity:1;stroke-width:1;stroke-linecap:butt;stroke-linejoin:miter;stroke:rgb(0%,0%,0%);stroke-opacity:1;stroke-miterlimit:10;" d="M 302 176 L 331.664062 176 L 343.664062 147.785156 L 355.664062 176 L 385.332031 176 L 361.332031 193.4375 L 369.417969 224.980469 L 343.664062 207.542969 L 317.914062 224.980469 L 330.214844 193.4375 L 302 176 "/>
<path style="fill-rule:nonzero;fill:rgb(35%,70%,90%);fill-opacity:1;stroke-width:1;stroke-linecap:butt;stroke-linejoin:miter;stroke:rgb(0%,0%,0%);stroke-opacity:1;stroke-miterlimit:10;" d="M 956 139 L 985.664062 139 L 997.664062 110.785156 L 1009.664062 139 L 1039.332031 139 L 1015.332031 156.4375 L 1023.417969 187.980469 L 997.664062 170.542969 L 971.914062 187.980469 L 984.214844 156.4375 L 956 139 "/>
<path style="fill-rule:nonzero;fill:rgb(35%,70%,90%);fill-opacity:1;stroke-width:1;stroke-linecap:butt;stroke-linejoin:miter;stroke:rgb(0%,0%,0%);stroke-opacity:1;stroke-miterlimit:10;" d="M 127 311 L 156.664062 311 L 168.664062 282.785156 L 180.664062 311 L 210.332031 311 L 186.332031 328.4375 L 194.417969 359.980469 L 168.664062 342.542969 L 142.914062 359.980469 L 155.214844 328.4375 L 127 311 "/>
<path style="fill-rule:nonzero;fill:rgb(100%,51%,0%);fill-opacity:1;stroke-width:1;stroke-linecap:butt;stroke-linejoin:miter;stroke:rgb(0%,0%,0%);stroke-opacity:1;stroke-miterlimit:10;" d="M 830 334 L 804.019531 379 L 855.980469 379 L 830 334 "/>
<path style="fill-rule:nonzero;fill:rgb(100%,51%,0%);fill-opacity:1;stroke-width:1;stroke-linecap:butt;stroke-linejoin:miter;stroke:rgb(0%,0%,0%);stroke-opacity:1;stroke-miterlimit:10;" d="M 529 227 L 503.019531 272 L 554.980469 272 L 529 227 "/>
<path style="fill-rule:nonzero;fill:rgb(100%,51%,0%);fill-opacity:1;stroke-width:1;stroke-linecap:butt;stroke-linejoin:miter;stroke:rgb(0%,0%,0%);stroke-opacity:1;stroke-miterlimit:10;" d="M 482 384 L 456.019531 429 L 507.980469 429 L 482 384 "/>
</g>
</svg>
