<?xml version="1.0" encoding="UTF-8"?>
<svg xmlns="http://www.w3.org/2000/svg" xmlns:xlink="http://www.w3.org/1999/xlink" width="1129pt" height="517pt" viewBox="0 0 1129 517" version="1.1">
<g id="surface21">
<rect x="0" y="0" width="1129" height="517" style="fill:rgb(90%,90%,90%);fill-opacity:1;stroke:none;"/>
<path style="fill-rule:nonzero;fill:rgb(35%,70%,90%);fill-opacity:1;stroke-width:1;stroke-linecap:butt;stroke-linejoin:miter;stroke:rgb(0%,0%,0%);stroke-opacity:1;stroke-miterlimit:10;" d="M 189.214844 453 C 189.214844 464.714844 179.714844 474.214844 168 474.214844 C 156.285156 474.214844 146.785156 464.714844 146.785156 453 C 146.785156 441.285156 156.285156 431.785156 168 431.785156 C 179.714844 431.785156 189.214844 441.285156 189.214844 453 "/>
<path style="fill-rule:nonzero;fill:rgb(35%,70%,90%);fill-opacity:1;stroke-width:1;stroke-linecap:butt;stroke-linejoin:miter;stroke:rgb(0%,0%,0%);stroke-opacity:1;stroke-miterlimit:10;" d="M 410.785156 138.785156 L 410.785156 181.214844 L 453.214844 181.214844 L 453.214844 138.785156 L 410.785156 138.785156 "/>
<path style="fill-rule:nonzero;fill:rgb(35%,70%,90%);fill-opacity:1;stroke-width:1;stroke-linecap:butt;stroke-linejoin:miter;stroke:rgb(0%,0%,0%);stroke-opacity:1;stroke-miterlimit:10;" d="M 274.785156 438.785156 L 274.785156 481.214844 L 317.214844 481.214844 L 317.214844 438.785156 L 274.785156 438.785156 "/>
<path style="fill-rule:nonzero;fill:rgb(35%,70%,90%);fill-opacity:1;stroke-width:1;stroke-linecap:butt;stroke-linejoin:miter;stroke:rgb(0%,0%,0%);stroke-opacity:1;stroke-miterlimit:10;" d="M 302.214844 235 C 302.214844 246.714844 292.714844 256.214844 281 256.214844 C 269.285156 256.214844 259.785156 246.714844 259.785156 235 C 259.785156 223.285156 269.285156 213.785156 281 213.785156 C 292.714844 213.785156 302.214844 223.285156 302.214844 235 "/>
<path style="fill-rule:nonzero;fill:rgb(35%,70%,90%);fill-opacity:1;stroke-width:1;stroke-linecap:butt;stroke-linejoin:miter;stroke:rgb(0%,0%,0%);stroke-opacity:1;stroke-miterlimit:10;" d="M 157.214844 243 C 157.214844 254.714844 147.714844 264.214844 136 264.214844 C 124.285156 264.214844 114.785156 254.714844 114.785156 243 C 114.785156 231.285156 124.285156 221.785156 136 221.785156 C 147.714844 221.785156 157.214844 231.285156 157.214844 243 "/>
<path style="fill-rule:nonzero;fill:rgb(100%,51%,0%);fill-opacity:1;stroke-width:1;stroke-linecap:butt;stroke-linejoin:miter;stroke:rgb(0%,0%,0%);stroke-opacity:1;stroke-miterlimit:10;" d="M 766.785156 132.785156 L 766.785156 175.214844 L 809.214844 175.214844 L 809.214844 132.785156 L 766.785156 132.785156 "/>
<path style="fill-rule:nonzero;fill:rgb(100%,51%,0%);fill-opacity:1;stroke-width:1;stroke-linecap:butt;stroke-linejoin:miter;stroke:rgb(0%,0%,0%);stroke-opacity:1;stroke-miterlimit:10;" d="M 705.214844 113 C 705.214844 124.714844 695.714844 134.214844 684 134.214844 C 672.285156 134.214844 662.785156 124.714844 662.785156 113 C 662.785156 101.285156 672.285156 91.785156 684 91.785156 C 695.714844 91.785156 705.214844 101.285156 705.214844 113 "/>
<path style="fill-rule:nonzero;fill:rgb(100%,51%,0%);fill-opacity:1;stroke-width:1;stroke-linecap:butt;stroke-linejoin:miter;stroke:rgb(0%,0%,0%);stroke-opacity:1;stroke-miterlimit:10;" d="M 962.214844 362 C 962.214844 373.714844 952.714844 383.214844 941 383.214844 C 929.285156 383.214844 919.785156 373.714844 919.785156 362 C 919.785156 350.285156 929.285156 340.785156 941 340.785156 C 952.714844 340.785156 962.214844 350.285156 962.214844 362 "/>
<path style="fill-rule:nonzero;fill:rgb(100%,51%,0%);fill-opacity:1;stroke-width:1;stroke-linecap:butt;stroke-linejoin:miter;stroke:rgb(0%,0%,0%);stroke-opacity:1;stroke-miterlimit:10;" d="M 733.785156 336.785156 L 733.785156 379.214844 L 776.214844 379.214844 L 776.214844 336.785156 L 733.785156 336.785156 "/>
<path style="fill-rule:nonzero;fill:rgb(100%,51%,0%);fill-opacity:1;stroke-width:1;stroke-linecap:butt;stroke-linejoin:miter;stroke:rgb(0%,0%,0%);stroke-opacity:1;stroke-miterlimit:10;" d="M 984.785156 36.785156 L 984.785156 79.214844 L 1027.214844 79.214844 L 1027.214844 36.785156 L 984.785156 36.785156 "/>
<path style="fill-rule:nonzero;fill:rgb(100%,51%,0%);fill-opacity:1;stroke-width:1;stroke-linecap:butt;stroke-linejoin:miter;stroke:rgb(0%,0%,0%);stroke-opacity:1;stroke-miterlimit:10;" d="M 712.785156 450.785156 L 712.785156 493.214844 L 755.214844 493.214844 L 755.214844 450.785156 L 712.785156 450.785156 "/>
</g>
</svg>
