<?xml version="1.0" encoding="UTF-8"?>
<svg xmlns="http://www.w3.org/2000/svg" xmlns:xlink="http://www.w3.org/1999/xlink" width="1129pt" height="517pt" viewBox="0 0 1129 517" version="1.1">
<g id="surface711">
<rect x="0" y="0" width="1129" height="517" style="fill:rgb(90%,90%,90%);fill-opacity:1;stroke:none;"/>
<path style="fill-rule:nonzero;fill:rgb(55%,51%,53%);fill-opacity:1;stroke-width:1;stroke-linecap:butt;stroke-linejoin:miter;stroke:rgb(0%,0%,0%);stroke-opacity:1;stroke-miterlimit:10;" d="M 431.214844 119 C 431.214844 130.714844 421.714844 140.214844 410 140.214844 C 398.285156 140.214844 388.785156 130.714844 388.785156 119 C 388.785156 107.285156 398.285156 97.785156 410 97.785156 C 421.714844 97.785156 431.214844 107.285156 431.214844 119 "/>
<path style="fill-rule:nonzero;fill:rgb(55%,51%,53%);fill-opacity:1;stroke-width:1;stroke-linecap:butt;stroke-linejoin:miter;stroke:rgb(0%,0%,0%);stroke-opacity:1;stroke-miterlimit:10;" d="M 226.214844 71 C 226.214844 82.714844 216.714844 92.214844 205 92.214844 C 193.285156 92.214844 183.785156 82.714844 183.785156 71 C 183.785156 59.285156 193.285156 49.785156 205 49.785156 C 216.714844 49.785156 226.214844 59.285156 226.214844 71 "/>
<path style="fill-rule:nonzero;fill:rgb(53%,27%,7%);fill-opacity:1;stroke-width:1;stroke-linecap:butt;stroke-linejoin:miter;stroke:rgb(0%,0%,0%);stroke-opacity:1;stroke-miterlimit:10;" d="M 257.214844 268 C 257.214844 279.714844 247.714844 289.214844 236 289.214844 C 224.285156 289.214844 214.785156 279.714844 214.785156 268 C 214.785156 256.285156 224.285156 246.785156 236 246.785156 C 247.714844 246.785156 257.214844 256.285156 257.214844 268 "/>
<path style="fill-rule:nonzero;fill:rgb(55%,51%,53%);fill-opacity:1;stroke-width:1;stroke-linecap:butt;stroke-linejoin:miter;stroke:rgb(0%,0%,0%);stroke-opacity:1;stroke-miterlimit:10;" d="M 382.214844 342 C 382.214844 353.714844 372.714844 363.214844 361 363.214844 C 349.285156 363.214844 339.785156 353.714844 339.785156 342 C 339.785156 330.285156 349.285156 320.785156 361 320.785156 C 372.714844 320.785156 382.214844 330.285156 382.214844 342 "/>
<path style="fill-rule:nonzero;fill:rgb(55%,51%,53%);fill-opacity:1;stroke-width:1;stroke-linecap:butt;stroke-linejoin:miter;stroke:rgb(0%,0%,0%);stroke-opacity:1;stroke-miterlimit:10;" d="M 442.214844 469 C 442.214844 480.714844 432.714844 490.214844 421 490.214844 C 409.285156 490.214844 399.785156 480.714844 399.785156 469 C 399.785156 457.285156 409.285156 447.785156 421 447.785156 C 432.714844 447.785156 442.214844 457.285156 442.214844 469 "/>
<path style="fill-rule:nonzero;fill:rgb(55%,51%,53%);fill-opacity:1;stroke-width:1;stroke-linecap:butt;stroke-linejoin:miter;stroke:rgb(0%,0%,0%);stroke-opacity:1;stroke-miterlimit:10;" d="M 479.214844 196 C 479.214844 207.714844 469.714844 217.214844 458 217.214844 C 446.285156 217.214844 436.785156 207.714844 436.785156 196 C 436.785156 184.285156 446.285156 174.785156 458 174.785156 C 469.714844 174.785156 479.214844 184.285156 479.214844 196 "/>
<path style="fill-rule:nonzero;fill:rgb(55%,51%,53%);fill-opacity:1;stroke-width:1;stroke-linecap:butt;stroke-linejoin:miter;stroke:rgb(0%,0%,0%);stroke-opacity:1;stroke-miterlimit:10;" d="M 99.214844 357 C 99.214844 368.714844 89.714844 378.214844 78 378.214844 C 66.285156 378.214844 56.785156 368.714844 56.785156 357 C 56.785156 345.285156 66.285156 335.785156 78 335.785156 C 89.714844 335.785156 99.214844 345.285156 99.214844 357 "/>
<path style="fill-rule:nonzero;fill:rgb(55%,51%,53%);fill-opacity:1;stroke-width:1;stroke-linecap:butt;stroke-linejoin:miter;stroke:rgb(0%,0%,0%);stroke-opacity:1;stroke-miterlimit:10;" d="M 150.214844 460 C 150.214844 471.714844 140.714844 481.214844 129 481.214844 C 117.285156 481.214844 107.785156 471.714844 107.785156 460 C 107.785156 448.285156 117.285156 438.785156 129 438.785156 C 140.714844 438.785156 150.214844 448.285156 150.214844 460 "/>
<path style="fill-rule:nonzero;fill:rgb(53%,27%,7%);fill-opacity:1;stroke-width:1;stroke-linecap:butt;stroke-linejoin:miter;stroke:rgb(0%,0%,0%);stroke-opacity:1;stroke-miterlimit:10;" d="M 854.785156 400.785156 L 854.785156 443.214844 L 897.214844 443.214844 L 897.214844 400.785156 L 854.785156 400.785156 "/>
<path style="fill-rule:nonzero;fill:rgb(53%,27%,7%);fill-opacity:1;stroke-width:1;stroke-linecap:butt;stroke-linejoin:miter;stroke:rgb(0%,0%,0%);stroke-opacity:1;stroke-miterlimit:10;" d="M 701.785156 275.785156 L 701.785156 318.214844 L 744.214844 318.214844 L 744.214844 275.785156 L 701.785156 275.785156 "/>
<path style="fill-rule:nonzero;fill:rgb(55%,51%,53%);fill-opacity:1;stroke-width:1;stroke-linecap:butt;stroke-linejoin:miter;stroke:rgb(0%,0%,0%);stroke-opacity:1;stroke-miterlimit:10;" d="M 776.785156 124.785156 L 776.785156 167.214844 L 819.214844 167.214844 L 819.214844 124.785156 L 776.785156 124.785156 "/>
<path style="fill-rule:nonzero;fill:rgb(53%,27%,7%);fill-opacity:1;stroke-width:1;stroke-linecap:butt;stroke-linejoin:miter;stroke:rgb(0%,0%,0%);stroke-opacity:1;stroke-miterlimit:10;" d="M 1005.785156 18.785156 L 1005.785156 61.214844 L 1048.214844 61.214844 L 1048.214844 18.785156 L 1005.785156 18.785156 "/>
<path style="fill-rule:nonzero;fill:rgb(53%,27%,7%);fill-opacity:1;stroke-width:1;stroke-linecap:butt;stroke-linejoin:miter;stroke:rgb(0%,0%,0%);stroke-opacity:1;stroke-miterlimit:10;" d="M 932.785156 79.785156 L 932.785156 122.214844 L 975.214844 122.214844 L 975.214844 79.785156 L 932.785156 79.785156 "/>
<path style="fill-rule:nonzero;fill:rgb(53%,27%,7%);fill-opacity:1;stroke-width:1;stroke-linecap:butt;stroke-linejoin:miter;stroke:rgb(0%,0%,0%);stroke-opacity:1;stroke-miterlimit:10;" d="M 950.785156 223.785156 L 950.785156 266.214844 L 993.214844 266.214844 L 993.214844 223.785156 L 950.785156 223.785156 "/>
<path style="fill-rule:nonzero;fill:rgb(53%,27%,7%);fill-opacity:1;stroke-width:1;stroke-linecap:butt;stroke-linejoin:miter;stroke:rgb(0%,0%,0%);stroke-opacity:1;stroke-miterlimit:10;" d="M 823.785156 295.785156 L 823.785156 338.214844 L 866.214844 338.214844 L 866.214844 295.785156 L 823.785156 295.785156 "/>
</g>
</svg>
