<?xml version="1.0" encoding="UTF-8"?>
<svg xmlns="http://www.w3.org/2000/svg" xmlns:xlink="http://www.w3.org/1999/xlink" width="1129pt" height="517pt" viewBox="0 0 1129 517" version="1.1">
<g id="surface346">
<rect x="0" y="0" width="1129" height="517" style="fill:rgb(90%,90%,90%);fill-opacity:1;stroke:none;"/>
<path style="fill-rule:nonzero;fill:rgb(55%,51%,53%);fill-opacity:1;stroke-width:1;stroke-linecap:butt;stroke-linejoin:miter;stroke:rgb(0%,0%,0%);stroke-opacity:1;stroke-miterlimit:10;" d="M 235.214844 429 C 235.214844 440.714844 225.714844 450.214844 214 450.214844 C 202.285156 450.214844 192.785156 440.714844 192.785156 429 C 192.785156 417.285156 202.285156 407.785156 214 407.785156 C 225.714844 407.785156 235.214844 417.285156 235.214844 429 "/>
<path style="fill-rule:nonzero;fill:rgb(53%,27%,7%);fill-opacity:1;stroke-width:1;stroke-linecap:butt;stroke-linejoin:miter;stroke:rgb(0%,0%,0%);stroke-opacity:1;stroke-miterlimit:10;" d="M 132.214844 461 C 132.214844 472.714844 122.714844 482.214844 111 482.214844 C 99.285156 482.214844 89.785156 472.714844 89.785156 461 C 89.785156 449.285156 99.285156 439.785156 111 439.785156 C 122.714844 439.785156 132.214844 449.285156 132.214844 461 "/>
<path style="fill-rule:nonzero;fill:rgb(55%,51%,53%);fill-opacity:1;stroke-width:1;stroke-linecap:butt;stroke-linejoin:miter;stroke:rgb(0%,0%,0%);stroke-opacity:1;stroke-miterlimit:10;" d="M 290.214844 284 C 290.214844 295.714844 280.714844 305.214844 269 305.214844 C 257.285156 305.214844 247.785156 295.714844 247.785156 284 C 247.785156 272.285156 257.285156 262.785156 269 262.785156 C 280.714844 262.785156 290.214844 272.285156 290.214844 284 "/>
<path style="fill-rule:nonzero;fill:rgb(55%,51%,53%);fill-opacity:1;stroke-width:1;stroke-linecap:butt;stroke-linejoin:miter;stroke:rgb(0%,0%,0%);stroke-opacity:1;stroke-miterlimit:10;" d="M 120.214844 306 C 120.214844 317.714844 110.714844 327.214844 99 327.214844 C 87.285156 327.214844 77.785156 317.714844 77.785156 306 C 77.785156 294.285156 87.285156 284.785156 99 284.785156 C 110.714844 284.785156 120.214844 294.285156 120.214844 306 "/>
<path style="fill-rule:nonzero;fill:rgb(53%,27%,7%);fill-opacity:1;stroke-width:1;stroke-linecap:butt;stroke-linejoin:miter;stroke:rgb(0%,0%,0%);stroke-opacity:1;stroke-miterlimit:10;" d="M 334 186 L 308.019531 231 L 359.980469 231 L 334 186 "/>
</g>
</svg>
