<?xml version="1.0" encoding="UTF-8"?>
<svg xmlns="http://www.w3.org/2000/svg" xmlns:xlink="http://www.w3.org/1999/xlink" width="1129pt" height="517pt" viewBox="0 0 1129 517" version="1.1">
<g id="surface36">
<rect x="0" y="0" width="1129" height="517" style="fill:rgb(90%,90%,90%);fill-opacity:1;stroke:none;"/>
<path style="fill-rule:nonzero;fill:rgb(35%,70%,90%);fill-opacity:1;stroke-width:1;stroke-linecap:butt;stroke-linejoin:miter;stroke:rgb(0%,0%,0%);stroke-opacity:1;stroke-miterlimit:10;" d="M 901 450 L 930.664062 450 L 942.664062 421.785156 L 954.664062 450 L 984.332031 450 L 960.332031 467.4375 L 968.417969 498.980469 L 942.664062 481.542969 L 916.914062 498.980469 L 929.214844 467.4375 L 901 450 "/>
<path style="fill-rule:nonzero;fill:rgb(35%,70%,90%);fill-opacity:1;stroke-width:1;stroke-linecap:butt;stroke-linejoin:miter;stroke:rgb(0%,0%,0%);stroke-opacity:1;stroke-miterlimit:10;" d="M 718 106 L 747.664062 106 L 759.664062 77.785156 L 771.664062 106 L 801.332031 106 L 777.332031 123.4375 L 785.417969 154.980469 L 759.664062 137.542969 L 733.914062 154.980469 L 746.214844 123.4375 L 718 106 "/>
<path style="fill-rule:nonzero;fill:rgb(35%,70%,90%);fill-opacity:1;stroke-width:1;stroke-linecap:butt;stroke-linejoin:miter;stroke:rgb(0%,0%,0%);stroke-opacity:1;stroke-miterlimit:10;" d="M 86 425 L 115.664062 425 L 127.664062 396.785156 L 139.664062 425 L 169.332031 425 L 145.332031 442.4375 L 153.417969 473.980469 L 127.664062 456.542969 L 101.914062 473.980469 L 114.214844 442.4375 L 86 425 "/>
<path style="fill-rule:nonzero;fill:rgb(35%,70%,90%);fill-opacity:1;stroke-width:1;stroke-linecap:butt;stroke-linejoin:miter;stroke:rgb(0%,0%,0%);stroke-opacity:1;stroke-miterlimit:10;" d="M 460 471 L 489.664062 471 L 501.664062 442.785156 L 513.664062 471 L 543.332031 471 L 519.332031 488.4375 L 527.417969 519.980469 L 501.664062 502.542969 L 475.914062 519.980469 L 488.214844 488.4375 L 460 471 "/>
<path style="fill-rule:nonzero;fill:rgb(53%,27%,7%);fill-opacity:1;stroke-width:1;stroke-linecap:butt;stroke-linejoin:miter;stroke:rgb(0%,0%,0%);stroke-opacity:1;stroke-miterlimit:10;" d="M 258 289 L 232.019531 334 L 283.980469 334 L 258 289 "/>
<path style="fill-rule:nonzero;fill:rgb(53%,27%,7%);fill-opacity:1;stroke-width:1;stroke-linecap:butt;stroke-linejoin:miter;stroke:rgb(0%,0%,0%);stroke-opacity:1;stroke-miterlimit:10;" d="M 644 399 L 618.019531 444 L 669.980469 444 L 644 399 "/>
<path style="fill-rule:nonzero;fill:rgb(53%,27%,7%);fill-opacity:1;stroke-width:1;stroke-linecap:butt;stroke-linejoin:miter;stroke:rgb(0%,0%,0%);stroke-opacity:1;stroke-miterlimit:10;" d="M 795 355 L 769.019531 400 L 820.980469 400 L 795 355 "/>
<path style="fill-rule:nonzero;fill:rgb(53%,27%,7%);fill-opacity:1;stroke-width:1;stroke-linecap:butt;stroke-linejoin:miter;stroke:rgb(0%,0%,0%);stroke-opacity:1;stroke-miterlimit:10;" d="M 721 166 L 695.019531 211 L 746.980469 211 L 721 166 "/>
<path style="fill-rule:nonzero;fill:rgb(53%,27%,7%);fill-opacity:1;stroke-width:1;stroke-linecap:butt;stroke-linejoin:miter;stroke:rgb(0%,0%,0%);stroke-opacity:1;stroke-miterlimit:10;" d="M 529 325 L 503.019531 370 L 554.980469 370 L 529 325 "/>
</g>
</svg>
