<?xml version="1.0" encoding="UTF-8"?>
<svg xmlns="http://www.w3.org/2000/svg" xmlns:xlink="http://www.w3.org/1999/xlink" width="1129pt" height="517pt" viewBox="0 0 1129 517" version="1.1">
<g id="surface636">
<rect x="0" y="0" width="1129" height="517" style="fill:rgb(90%,90%,90%);fill-opacity:1;stroke:none;"/>
<path style="fill-rule:nonzero;fill:rgb(100%,51%,0%);fill-opacity:1;stroke-width:1;stroke-linecap:butt;stroke-linejoin:miter;stroke:rgb(0%,0%,0%);stroke-opacity:1;stroke-miterlimit:10;" d="M 788 380 L 817.664062 380 L 829.664062 351.785156 L 841.664062 380 L 871.332031 380 L 847.332031 397.4375 L 855.417969 428.980469 L 829.664062 411.542969 L 803.914062 428.980469 L 816.214844 397.4375 L 788 380 "/>
<path style="fill-rule:nonzero;fill:rgb(100%,51%,0%);fill-opacity:1;stroke-width:1;stroke-linecap:butt;stroke-linejoin:miter;stroke:rgb(0%,0%,0%);stroke-opacity:1;stroke-miterlimit:10;" d="M 768 193 L 797.664062 193 L 809.664062 164.785156 L 821.664062 193 L 851.332031 193 L 827.332031 210.4375 L 835.417969 241.980469 L 809.664062 224.542969 L 783.914062 241.980469 L 796.214844 210.4375 L 768 193 "/>
<path style="fill-rule:nonzero;fill:rgb(100%,51%,0%);fill-opacity:1;stroke-width:1;stroke-linecap:butt;stroke-linejoin:miter;stroke:rgb(0%,0%,0%);stroke-opacity:1;stroke-miterlimit:10;" d="M 554 400 L 583.664062 400 L 595.664062 371.785156 L 607.664062 400 L 637.332031 400 L 613.332031 417.4375 L 621.417969 448.980469 L 595.664062 431.542969 L 569.914062 448.980469 L 582.214844 417.4375 L 554 400 "/>
<path style="fill-rule:nonzero;fill:rgb(100%,51%,0%);fill-opacity:1;stroke-width:1;stroke-linecap:butt;stroke-linejoin:miter;stroke:rgb(0%,0%,0%);stroke-opacity:1;stroke-miterlimit:10;" d="M 579 312 L 608.664062 312 L 620.664062 283.785156 L 632.664062 312 L 662.332031 312 L 638.332031 329.4375 L 646.417969 360.980469 L 620.664062 343.542969 L 594.914062 360.980469 L 607.214844 329.4375 L 579 312 "/>
<path style="fill-rule:nonzero;fill:rgb(100%,51%,0%);fill-opacity:1;stroke-width:1;stroke-linecap:butt;stroke-linejoin:miter;stroke:rgb(0%,0%,0%);stroke-opacity:1;stroke-miterlimit:10;" d="M 941 398 L 970.664062 398 L 982.664062 369.785156 L 994.664062 398 L 1024.332031 398 L 1000.332031 415.4375 L 1008.417969 446.980469 L 982.664062 429.542969 L 956.914062 446.980469 L 969.214844 415.4375 L 941 398 "/>
<path style="fill-rule:nonzero;fill:rgb(53%,27%,7%);fill-opacity:1;stroke-width:1;stroke-linecap:butt;stroke-linejoin:miter;stroke:rgb(0%,0%,0%);stroke-opacity:1;stroke-miterlimit:10;" d="M 862 121 L 836.019531 166 L 887.980469 166 L 862 121 "/>
<path style="fill-rule:nonzero;fill:rgb(53%,27%,7%);fill-opacity:1;stroke-width:1;stroke-linecap:butt;stroke-linejoin:miter;stroke:rgb(0%,0%,0%);stroke-opacity:1;stroke-miterlimit:10;" d="M 178 249 L 152.019531 294 L 203.980469 294 L 178 249 "/>
<path style="fill-rule:nonzero;fill:rgb(53%,27%,7%);fill-opacity:1;stroke-width:1;stroke-linecap:butt;stroke-linejoin:miter;stroke:rgb(0%,0%,0%);stroke-opacity:1;stroke-miterlimit:10;" d="M 481 252 L 455.019531 297 L 506.980469 297 L 481 252 "/>
<path style="fill-rule:nonzero;fill:rgb(53%,27%,7%);fill-opacity:1;stroke-width:1;stroke-linecap:butt;stroke-linejoin:miter;stroke:rgb(0%,0%,0%);stroke-opacity:1;stroke-miterlimit:10;" d="M 502 103 L 476.019531 148 L 527.980469 148 L 502 103 "/>
<path style="fill-rule:nonzero;fill:rgb(53%,27%,7%);fill-opacity:1;stroke-width:1;stroke-linecap:butt;stroke-linejoin:miter;stroke:rgb(0%,0%,0%);stroke-opacity:1;stroke-miterlimit:10;" d="M 779 25 L 753.019531 70 L 804.980469 70 L 779 25 "/>
<path style="fill-rule:nonzero;fill:rgb(53%,27%,7%);fill-opacity:1;stroke-width:1;stroke-linecap:butt;stroke-linejoin:miter;stroke:rgb(0%,0%,0%);stroke-opacity:1;stroke-miterlimit:10;" d="M 483 439 L 457.019531 484 L 508.980469 484 L 483 439 "/>
</g>
</svg>
