<?xml version="1.0" encoding="UTF-8"?>
<svg xmlns="http://www.w3.org/2000/svg" xmlns:xlink="http://www.w3.org/1999/xlink" width="1129pt" height="517pt" viewBox="0 0 1129 517" version="1.1">
<g id="surface106">
<rect x="0" y="0" width="1129" height="517" style="fill:rgb(90%,90%,90%);fill-opacity:1;stroke:none;"/>
<path style="fill-rule:nonzero;fill:rgb(100%,51%,0%);fill-opacity:1;stroke-width:1;stroke-linecap:butt;stroke-linejoin:miter;stroke:rgb(0%,0%,0%);stroke-opacity:1;stroke-miterlimit:10;" d="M 473.214844 389 C 473.214844 400.714844 463.714844 410.214844 452 410.214844 C 440.285156 410.214844 430.785156 400.714844 430.785156 389 C 430.785156 377.285156 440.285156 367.785156 452 367.785156 C 463.714844 367.785156 473.214844 377.285156 473.214844 389 "/>
<path style="fill-rule:nonzero;fill:rgb(100%,51%,0%);fill-opacity:1;stroke-width:1;stroke-linecap:butt;stroke-linejoin:miter;stroke:rgb(0%,0%,0%);stroke-opacity:1;stroke-miterlimit:10;" d="M 82 297 L 56.019531 342 L 107.980469 342 L 82 297 "/>
<path style="fill-rule:nonzero;fill:rgb(100%,51%,0%);fill-opacity:1;stroke-width:1;stroke-linecap:butt;stroke-linejoin:miter;stroke:rgb(0%,0%,0%);stroke-opacity:1;stroke-miterlimit:10;" d="M 329.214844 465 C 329.214844 476.714844 319.714844 486.214844 308 486.214844 C 296.285156 486.214844 286.785156 476.714844 286.785156 465 C 286.785156 453.285156 296.285156 443.785156 308 443.785156 C 319.714844 443.785156 329.214844 453.285156 329.214844 465 "/>
<path style="fill-rule:nonzero;fill:rgb(100%,51%,0%);fill-opacity:1;stroke-width:1;stroke-linecap:butt;stroke-linejoin:miter;stroke:rgb(0%,0%,0%);stroke-opacity:1;stroke-miterlimit:10;" d="M 238 309 L 212.019531 354 L 263.980469 354 L 238 309 "/>
<path style="fill-rule:nonzero;fill:rgb(100%,51%,0%);fill-opacity:1;stroke-width:1;stroke-linecap:butt;stroke-linejoin:miter;stroke:rgb(0%,0%,0%);stroke-opacity:1;stroke-miterlimit:10;" d="M 456.214844 131 C 456.214844 142.714844 446.714844 152.214844 435 152.214844 C 423.285156 152.214844 413.785156 142.714844 413.785156 131 C 413.785156 119.285156 423.285156 109.785156 435 109.785156 C 446.714844 109.785156 456.214844 119.285156 456.214844 131 "/>
<path style="fill-rule:nonzero;fill:rgb(100%,51%,0%);fill-opacity:1;stroke-width:1;stroke-linecap:butt;stroke-linejoin:miter;stroke:rgb(0%,0%,0%);stroke-opacity:1;stroke-miterlimit:10;" d="M 171.214844 189 C 171.214844 200.714844 161.714844 210.214844 150 210.214844 C 138.285156 210.214844 128.785156 200.714844 128.785156 189 C 128.785156 177.285156 138.285156 167.785156 150 167.785156 C 161.714844 167.785156 171.214844 177.285156 171.214844 189 "/>
<path style="fill-rule:nonzero;fill:rgb(100%,51%,0%);fill-opacity:1;stroke-width:1;stroke-linecap:butt;stroke-linejoin:miter;stroke:rgb(0%,0%,0%);stroke-opacity:1;stroke-miterlimit:10;" d="M 92.214844 103 C 92.214844 114.714844 82.714844 124.214844 71 124.214844 C 59.285156 124.214844 49.785156 114.714844 49.785156 103 C 49.785156 91.285156 59.285156 81.785156 71 81.785156 C 82.714844 81.785156 92.214844 91.285156 92.214844 103 "/>
<path style="fill-rule:nonzero;fill:rgb(53%,27%,7%);fill-opacity:1;stroke-width:1;stroke-linecap:butt;stroke-linejoin:miter;stroke:rgb(0%,0%,0%);stroke-opacity:1;stroke-miterlimit:10;" d="M 778 345 L 752.019531 390 L 803.980469 390 L 778 345 "/>
<path style="fill-rule:nonzero;fill:rgb(53%,27%,7%);fill-opacity:1;stroke-width:1;stroke-linecap:butt;stroke-linejoin:miter;stroke:rgb(0%,0%,0%);stroke-opacity:1;stroke-miterlimit:10;" d="M 876.214844 183 C 876.214844 194.714844 866.714844 204.214844 855 204.214844 C 843.285156 204.214844 833.785156 194.714844 833.785156 183 C 833.785156 171.285156 843.285156 161.785156 855 161.785156 C 866.714844 161.785156 876.214844 171.285156 876.214844 183 "/>
<path style="fill-rule:nonzero;fill:rgb(53%,27%,7%);fill-opacity:1;stroke-width:1;stroke-linecap:butt;stroke-linejoin:miter;stroke:rgb(0%,0%,0%);stroke-opacity:1;stroke-miterlimit:10;" d="M 862 428 L 836.019531 473 L 887.980469 473 L 862 428 "/>
<path style="fill-rule:nonzero;fill:rgb(53%,27%,7%);fill-opacity:1;stroke-width:1;stroke-linecap:butt;stroke-linejoin:miter;stroke:rgb(0%,0%,0%);stroke-opacity:1;stroke-miterlimit:10;" d="M 1007.214844 398 C 1007.214844 409.714844 997.714844 419.214844 986 419.214844 C 974.285156 419.214844 964.785156 409.714844 964.785156 398 C 964.785156 386.285156 974.285156 376.785156 986 376.785156 C 997.714844 376.785156 1007.214844 386.285156 1007.214844 398 "/>
</g>
</svg>
