<?xml version="1.0" encoding="UTF-8"?>
<svg xmlns="http://www.w3.org/2000/svg" xmlns:xlink="http://www.w3.org/1999/xlink" width="1129pt" height="517pt" viewBox="0 0 1129 517" version="1.1">
<g id="surface131">
<rect x="0" y="0" width="1129" height="517" style="fill:rgb(90%,90%,90%);fill-opacity:1;stroke:none;"/>
<path style="fill-rule:nonzero;fill:rgb(100%,51%,0%);fill-opacity:1;stroke-width:1;stroke-linecap:butt;stroke-linejoin:miter;stroke:rgb(0%,0%,0%);stroke-opacity:1;stroke-miterlimit:10;" d="M 434 239 L 463.664062 239 L 475.664062 210.785156 L 487.664062 239 L 517.332031 239 L 493.332031 256.4375 L 501.417969 287.980469 L 475.664062 270.542969 L 449.914062 287.980469 L 462.214844 256.4375 L 434 239 "/>
<path style="fill-rule:nonzero;fill:rgb(100%,51%,0%);fill-opacity:1;stroke-width:1;stroke-linecap:butt;stroke-linejoin:miter;stroke:rgb(0%,0%,0%);stroke-opacity:1;stroke-miterlimit:10;" d="M 293 385 L 322.664062 385 L 334.664062 356.785156 L 346.664062 385 L 376.332031 385 L 352.332031 402.4375 L 360.417969 433.980469 L 334.664062 416.542969 L 308.914062 433.980469 L 321.214844 402.4375 L 293 385 "/>
<path style="fill-rule:nonzero;fill:rgb(100%,51%,0%);fill-opacity:1;stroke-width:1;stroke-linecap:butt;stroke-linejoin:miter;stroke:rgb(0%,0%,0%);stroke-opacity:1;stroke-miterlimit:10;" d="M 228.785156 446.785156 L 228.785156 489.214844 L 271.214844 489.214844 L 271.214844 446.785156 L 228.785156 446.785156 "/>
<path style="fill-rule:nonzero;fill:rgb(100%,51%,0%);fill-opacity:1;stroke-width:1;stroke-linecap:butt;stroke-linejoin:miter;stroke:rgb(0%,0%,0%);stroke-opacity:1;stroke-miterlimit:10;" d="M 100 355 L 129.664062 355 L 141.664062 326.785156 L 153.664062 355 L 183.332031 355 L 159.332031 372.4375 L 167.417969 403.980469 L 141.664062 386.542969 L 115.914062 403.980469 L 128.214844 372.4375 L 100 355 "/>
<path style="fill-rule:nonzero;fill:rgb(100%,51%,0%);fill-opacity:1;stroke-width:1;stroke-linecap:butt;stroke-linejoin:miter;stroke:rgb(0%,0%,0%);stroke-opacity:1;stroke-miterlimit:10;" d="M 449 389 L 478.664062 389 L 490.664062 360.785156 L 502.664062 389 L 532.332031 389 L 508.332031 406.4375 L 516.417969 437.980469 L 490.664062 420.542969 L 464.914062 437.980469 L 477.214844 406.4375 L 449 389 "/>
<path style="fill-rule:nonzero;fill:rgb(55%,51%,53%);fill-opacity:1;stroke-width:1;stroke-linecap:butt;stroke-linejoin:miter;stroke:rgb(0%,0%,0%);stroke-opacity:1;stroke-miterlimit:10;" d="M 786.785156 262.785156 L 786.785156 305.214844 L 829.214844 305.214844 L 829.214844 262.785156 L 786.785156 262.785156 "/>
<path style="fill-rule:nonzero;fill:rgb(55%,51%,53%);fill-opacity:1;stroke-width:1;stroke-linecap:butt;stroke-linejoin:miter;stroke:rgb(0%,0%,0%);stroke-opacity:1;stroke-miterlimit:10;" d="M 690.785156 424.785156 L 690.785156 467.214844 L 733.214844 467.214844 L 733.214844 424.785156 L 690.785156 424.785156 "/>
<path style="fill-rule:nonzero;fill:rgb(55%,51%,53%);fill-opacity:1;stroke-width:1;stroke-linecap:butt;stroke-linejoin:miter;stroke:rgb(0%,0%,0%);stroke-opacity:1;stroke-miterlimit:10;" d="M 909 320 L 938.664062 320 L 950.664062 291.785156 L 962.664062 320 L 992.332031 320 L 968.332031 337.4375 L 976.417969 368.980469 L 950.664062 351.542969 L 924.914062 368.980469 L 937.214844 337.4375 L 909 320 "/>
<path style="fill-rule:nonzero;fill:rgb(55%,51%,53%);fill-opacity:1;stroke-width:1;stroke-linecap:butt;stroke-linejoin:miter;stroke:rgb(0%,0%,0%);stroke-opacity:1;stroke-miterlimit:10;" d="M 750.785156 25.785156 L 750.785156 68.214844 L 793.214844 68.214844 L 793.214844 25.785156 L 750.785156 25.785156 "/>
<path style="fill-rule:nonzero;fill:rgb(55%,51%,53%);fill-opacity:1;stroke-width:1;stroke-linecap:butt;stroke-linejoin:miter;stroke:rgb(0%,0%,0%);stroke-opacity:1;stroke-miterlimit:10;" d="M 795.785156 354.785156 L 795.785156 397.214844 L 838.214844 397.214844 L 838.214844 354.785156 L 795.785156 354.785156 "/>
</g>
</svg>
