<?xml version="1.0" encoding="UTF-8"?>
<svg xmlns="http://www.w3.org/2000/svg" xmlns:xlink="http://www.w3.org/1999/xlink" width="1129pt" height="517pt" viewBox="0 0 1129 517" version="1.1">
<g id="surface576">
<rect x="0" y="0" width="1129" height="517" style="fill:rgb(90%,90%,90%);fill-opacity:1;stroke:none;"/>
<path style="fill-rule:nonzero;fill:rgb(35%,70%,90%);fill-opacity:1;stroke-width:1;stroke-linecap:butt;stroke-linejoin:miter;stroke:rgb(0%,0%,0%);stroke-opacity:1;stroke-miterlimit:10;" d="M 917 260 L 946.664062 260 L 958.664062 231.785156 L 970.664062 260 L 1000.332031 260 L 976.332031 277.4375 L 984.417969 308.980469 L 958.664062 291.542969 L 932.914062 308.980469 L 945.214844 277.4375 L 917 260 "/>
<path style="fill-rule:nonzero;fill:rgb(35%,70%,90%);fill-opacity:1;stroke-width:1;stroke-linecap:butt;stroke-linejoin:miter;stroke:rgb(0%,0%,0%);stroke-opacity:1;stroke-miterlimit:10;" d="M 155 216 L 184.664062 216 L 196.664062 187.785156 L 208.664062 216 L 238.332031 216 L 214.332031 233.4375 L 222.417969 264.980469 L 196.664062 247.542969 L 170.914062 264.980469 L 183.214844 233.4375 L 155 216 "/>
<path style="fill-rule:nonzero;fill:rgb(35%,70%,90%);fill-opacity:1;stroke-width:1;stroke-linecap:butt;stroke-linejoin:miter;stroke:rgb(0%,0%,0%);stroke-opacity:1;stroke-miterlimit:10;" d="M 724 231 L 753.664062 231 L 765.664062 202.785156 L 777.664062 231 L 807.332031 231 L 783.332031 248.4375 L 791.417969 279.980469 L 765.664062 262.542969 L 739.914062 279.980469 L 752.214844 248.4375 L 724 231 "/>
<path style="fill-rule:nonzero;fill:rgb(35%,70%,90%);fill-opacity:1;stroke-width:1;stroke-linecap:butt;stroke-linejoin:miter;stroke:rgb(0%,0%,0%);stroke-opacity:1;stroke-miterlimit:10;" d="M 761 72 L 790.664062 72 L 802.664062 43.785156 L 814.664062 72 L 844.332031 72 L 820.332031 89.4375 L 828.417969 120.980469 L 802.664062 103.542969 L 776.914062 120.980469 L 789.214844 89.4375 L 761 72 "/>
<path style="fill-rule:nonzero;fill:rgb(35%,70%,90%);fill-opacity:1;stroke-width:1;stroke-linecap:butt;stroke-linejoin:miter;stroke:rgb(0%,0%,0%);stroke-opacity:1;stroke-miterlimit:10;" d="M 378 143 L 407.664062 143 L 419.664062 114.785156 L 431.664062 143 L 461.332031 143 L 437.332031 160.4375 L 445.417969 191.980469 L 419.664062 174.542969 L 393.914062 191.980469 L 406.214844 160.4375 L 378 143 "/>
<path style="fill-rule:nonzero;fill:rgb(35%,70%,90%);fill-opacity:1;stroke-width:1;stroke-linecap:butt;stroke-linejoin:miter;stroke:rgb(0%,0%,0%);stroke-opacity:1;stroke-miterlimit:10;" d="M 219 412 L 248.664062 412 L 260.664062 383.785156 L 272.664062 412 L 302.332031 412 L 278.332031 429.4375 L 286.417969 460.980469 L 260.664062 443.542969 L 234.914062 460.980469 L 247.214844 429.4375 L 219 412 "/>
<path style="fill-rule:nonzero;fill:rgb(53%,27%,7%);fill-opacity:1;stroke-width:1;stroke-linecap:butt;stroke-linejoin:miter;stroke:rgb(0%,0%,0%);stroke-opacity:1;stroke-miterlimit:10;" d="M 344 425 L 318.019531 470 L 369.980469 470 L 344 425 "/>
<path style="fill-rule:nonzero;fill:rgb(53%,27%,7%);fill-opacity:1;stroke-width:1;stroke-linecap:butt;stroke-linejoin:miter;stroke:rgb(0%,0%,0%);stroke-opacity:1;stroke-miterlimit:10;" d="M 49 250 L 23.019531 295 L 74.980469 295 L 49 250 "/>
<path style="fill-rule:nonzero;fill:rgb(53%,27%,7%);fill-opacity:1;stroke-width:1;stroke-linecap:butt;stroke-linejoin:miter;stroke:rgb(0%,0%,0%);stroke-opacity:1;stroke-miterlimit:10;" d="M 605 312 L 579.019531 357 L 630.980469 357 L 605 312 "/>
</g>
</svg>
