<?xml version="1.0" encoding="UTF-8"?>
<svg xmlns="http://www.w3.org/2000/svg" xmlns:xlink="http://www.w3.org/1999/xlink" width="1129pt" height="517pt" viewBox="0 0 1129 517" version="1.1">
<g id="surface301">
<rect x="0" y="0" width="1129" height="517" style="fill:rgb(90%,90%,90%);fill-opacity:1;stroke:none;"/>
<path style="fill-rule:nonzero;fill:rgb(100%,51%,0%);fill-opacity:1;stroke-width:1;stroke-linecap:butt;stroke-linejoin:miter;stroke:rgb(0%,0%,0%);stroke-opacity:1;stroke-miterlimit:10;" d="M 341 214 L 370.664062 214 L 382.664062 185.785156 L 394.664062 214 L 424.332031 214 L 400.332031 231.4375 L 408.417969 262.980469 L 382.664062 245.542969 L 356.914062 262.980469 L 369.214844 231.4375 L 341 214 "/>
<path style="fill-rule:nonzero;fill:rgb(100%,51%,0%);fill-opacity:1;stroke-width:1;stroke-linecap:butt;stroke-linejoin:miter;stroke:rgb(0%,0%,0%);stroke-opacity:1;stroke-miterlimit:10;" d="M 262 150 L 291.664062 150 L 303.664062 121.785156 L 315.664062 150 L 345.332031 150 L 321.332031 167.4375 L 329.417969 198.980469 L 303.664062 181.542969 L 277.914062 198.980469 L 290.214844 167.4375 L 262 150 "/>
<path style="fill-rule:nonzero;fill:rgb(100%,51%,0%);fill-opacity:1;stroke-width:1;stroke-linecap:butt;stroke-linejoin:miter;stroke:rgb(0%,0%,0%);stroke-opacity:1;stroke-miterlimit:10;" d="M 619 394 L 648.664062 394 L 660.664062 365.785156 L 672.664062 394 L 702.332031 394 L 678.332031 411.4375 L 686.417969 442.980469 L 660.664062 425.542969 L 634.914062 442.980469 L 647.214844 411.4375 L 619 394 "/>
<path style="fill-rule:nonzero;fill:rgb(100%,51%,0%);fill-opacity:1;stroke-width:1;stroke-linecap:butt;stroke-linejoin:miter;stroke:rgb(0%,0%,0%);stroke-opacity:1;stroke-miterlimit:10;" d="M 493 369 L 522.664062 369 L 534.664062 340.785156 L 546.664062 369 L 576.332031 369 L 552.332031 386.4375 L 560.417969 417.980469 L 534.664062 400.542969 L 508.914062 417.980469 L 521.214844 386.4375 L 493 369 "/>
<path style="fill-rule:nonzero;fill:rgb(100%,51%,0%);fill-opacity:1;stroke-width:1;stroke-linecap:butt;stroke-linejoin:miter;stroke:rgb(0%,0%,0%);stroke-opacity:1;stroke-miterlimit:10;" d="M 909 414 L 938.664062 414 L 950.664062 385.785156 L 962.664062 414 L 992.332031 414 L 968.332031 431.4375 L 976.417969 462.980469 L 950.664062 445.542969 L 924.914062 462.980469 L 937.214844 431.4375 L 909 414 "/>
<path style="fill-rule:nonzero;fill:rgb(100%,51%,0%);fill-opacity:1;stroke-width:1;stroke-linecap:butt;stroke-linejoin:miter;stroke:rgb(0%,0%,0%);stroke-opacity:1;stroke-miterlimit:10;" d="M 510 465 L 539.664062 465 L 551.664062 436.785156 L 563.664062 465 L 593.332031 465 L 569.332031 482.4375 L 577.417969 513.980469 L 551.664062 496.542969 L 525.914062 513.980469 L 538.214844 482.4375 L 510 465 "/>
<path style="fill-rule:nonzero;fill:rgb(55%,51%,53%);fill-opacity:1;stroke-width:1;stroke-linecap:butt;stroke-linejoin:miter;stroke:rgb(0%,0%,0%);stroke-opacity:1;stroke-miterlimit:10;" d="M 298.214844 55 C 298.214844 66.714844 288.714844 76.214844 277 76.214844 C 265.285156 76.214844 255.785156 66.714844 255.785156 55 C 255.785156 43.285156 265.285156 33.785156 277 33.785156 C 288.714844 33.785156 298.214844 43.285156 298.214844 55 "/>
<path style="fill-rule:nonzero;fill:rgb(55%,51%,53%);fill-opacity:1;stroke-width:1;stroke-linecap:butt;stroke-linejoin:miter;stroke:rgb(0%,0%,0%);stroke-opacity:1;stroke-miterlimit:10;" d="M 102.214844 270 C 102.214844 281.714844 92.714844 291.214844 81 291.214844 C 69.285156 291.214844 59.785156 281.714844 59.785156 270 C 59.785156 258.285156 69.285156 248.785156 81 248.785156 C 92.714844 248.785156 102.214844 258.285156 102.214844 270 "/>
<path style="fill-rule:nonzero;fill:rgb(55%,51%,53%);fill-opacity:1;stroke-width:1;stroke-linecap:butt;stroke-linejoin:miter;stroke:rgb(0%,0%,0%);stroke-opacity:1;stroke-miterlimit:10;" d="M 341.214844 312 C 341.214844 323.714844 331.714844 333.214844 320 333.214844 C 308.285156 333.214844 298.785156 323.714844 298.785156 312 C 298.785156 300.285156 308.285156 290.785156 320 290.785156 C 331.714844 290.785156 341.214844 300.285156 341.214844 312 "/>
<path style="fill-rule:nonzero;fill:rgb(55%,51%,53%);fill-opacity:1;stroke-width:1;stroke-linecap:butt;stroke-linejoin:miter;stroke:rgb(0%,0%,0%);stroke-opacity:1;stroke-miterlimit:10;" d="M 796.214844 159 C 796.214844 170.714844 786.714844 180.214844 775 180.214844 C 763.285156 180.214844 753.785156 170.714844 753.785156 159 C 753.785156 147.285156 763.285156 137.785156 775 137.785156 C 786.714844 137.785156 796.214844 147.285156 796.214844 159 "/>
</g>
</svg>
