<?xml version="1.0" encoding="UTF-8"?>
<svg xmlns="http://www.w3.org/2000/svg" xmlns:xlink="http://www.w3.org/1999/xlink" width="1129pt" height="517pt" viewBox="0 0 1129 517" version="1.1">
<g id="surface551">
<rect x="0" y="0" width="1129" height="517" style="fill:rgb(90%,90%,90%);fill-opacity:1;stroke:none;"/>
<path style="fill-rule:nonzero;fill:rgb(35%,70%,90%);fill-opacity:1;stroke-width:1;stroke-linecap:butt;stroke-linejoin:miter;stroke:rgb(0%,0%,0%);stroke-opacity:1;stroke-miterlimit:10;" d="M 206 220 L 235.664062 220 L 247.664062 191.785156 L 259.664062 220 L 289.332031 220 L 265.332031 237.4375 L 273.417969 268.980469 L 247.664062 251.542969 L 221.914062 268.980469 L 234.214844 237.4375 L 206 220 "/>
<path style="fill-rule:nonzero;fill:rgb(100%,51%,0%);fill-opacity:1;stroke-width:1;stroke-linecap:butt;stroke-linejoin:miter;stroke:rgb(0%,0%,0%);stroke-opacity:1;stroke-miterlimit:10;" d="M 59 83 L 88.664062 83 L 100.664062 54.785156 L 112.664062 83 L 142.332031 83 L 118.332031 100.4375 L 126.417969 131.980469 L 100.664062 114.542969 L 74.914062 131.980469 L 87.214844 100.4375 L 59 83 "/>
<path style="fill-rule:nonzero;fill:rgb(35%,70%,90%);fill-opacity:1;stroke-width:1;stroke-linecap:butt;stroke-linejoin:miter;stroke:rgb(0%,0%,0%);stroke-opacity:1;stroke-miterlimit:10;" d="M 291 429 L 320.664062 429 L 332.664062 400.785156 L 344.664062 429 L 374.332031 429 L 350.332031 446.4375 L 358.417969 477.980469 L 332.664062 460.542969 L 306.914062 477.980469 L 319.214844 446.4375 L 291 429 "/>
<path style="fill-rule:nonzero;fill:rgb(35%,70%,90%);fill-opacity:1;stroke-width:1;stroke-linecap:butt;stroke-linejoin:miter;stroke:rgb(0%,0%,0%);stroke-opacity:1;stroke-miterlimit:10;" d="M 276 88 L 305.664062 88 L 317.664062 59.785156 L 329.664062 88 L 359.332031 88 L 335.332031 105.4375 L 343.417969 136.980469 L 317.664062 119.542969 L 291.914062 136.980469 L 304.214844 105.4375 L 276 88 "/>
<path style="fill-rule:nonzero;fill:rgb(100%,51%,0%);fill-opacity:1;stroke-width:1;stroke-linecap:butt;stroke-linejoin:miter;stroke:rgb(0%,0%,0%);stroke-opacity:1;stroke-miterlimit:10;" d="M 346.785156 34.785156 L 346.785156 77.214844 L 389.214844 77.214844 L 389.214844 34.785156 L 346.785156 34.785156 "/>
</g>
</svg>
