<?xml version="1.0" encoding="UTF-8"?>
<svg xmlns="http://www.w3.org/2000/svg" xmlns:xlink="http://www.w3.org/1999/xlink" width="1129pt" height="517pt" viewBox="0 0 1129 517" version="1.1">
<g id="surface41">
<rect x="0" y="0" width="1129" height="517" style="fill:rgb(90%,90%,90%);fill-opacity:1;stroke:none;"/>
<path style="fill-rule:nonzero;fill:rgb(35%,70%,90%);fill-opacity:1;stroke-width:1;stroke-linecap:butt;stroke-linejoin:miter;stroke:rgb(0%,0%,0%);stroke-opacity:1;stroke-miterlimit:10;" d="M 392 167 L 421.664062 167 L 433.664062 138.785156 L 445.664062 167 L 475.332031 167 L 451.332031 184.4375 L 459.417969 215.980469 L 433.664062 198.542969 L 407.914062 215.980469 L 420.214844 184.4375 L 392 167 "/>
<path style="fill-rule:nonzero;fill:rgb(35%,70%,90%);fill-opacity:1;stroke-width:1;stroke-linecap:butt;stroke-linejoin:miter;stroke:rgb(0%,0%,0%);stroke-opacity:1;stroke-miterlimit:10;" d="M 399.785156 413.785156 L 399.785156 456.214844 L 442.214844 456.214844 L 442.214844 413.785156 L 399.785156 413.785156 "/>
<path style="fill-rule:nonzero;fill:rgb(35%,70%,90%);fill-opacity:1;stroke-width:1;stroke-linecap:butt;stroke-linejoin:miter;stroke:rgb(0%,0%,0%);stroke-opacity:1;stroke-miterlimit:10;" d="M 211.785156 321.785156 L 211.785156 364.214844 L 254.214844 364.214844 L 254.214844 321.785156 L 211.785156 321.785156 "/>
<path style="fill-rule:nonzero;fill:rgb(35%,70%,90%);fill-opacity:1;stroke-width:1;stroke-linecap:butt;stroke-linejoin:miter;stroke:rgb(0%,0%,0%);stroke-opacity:1;stroke-miterlimit:10;" d="M 112 50 L 141.664062 50 L 153.664062 21.785156 L 165.664062 50 L 195.332031 50 L 171.332031 67.4375 L 179.417969 98.980469 L 153.664062 81.542969 L 127.914062 98.980469 L 140.214844 67.4375 L 112 50 "/>
<path style="fill-rule:nonzero;fill:rgb(35%,70%,90%);fill-opacity:1;stroke-width:1;stroke-linecap:butt;stroke-linejoin:miter;stroke:rgb(0%,0%,0%);stroke-opacity:1;stroke-miterlimit:10;" d="M 165 128 L 194.664062 128 L 206.664062 99.785156 L 218.664062 128 L 248.332031 128 L 224.332031 145.4375 L 232.417969 176.980469 L 206.664062 159.542969 L 180.914062 176.980469 L 193.214844 145.4375 L 165 128 "/>
<path style="fill-rule:nonzero;fill:rgb(35%,70%,90%);fill-opacity:1;stroke-width:1;stroke-linecap:butt;stroke-linejoin:miter;stroke:rgb(0%,0%,0%);stroke-opacity:1;stroke-miterlimit:10;" d="M 318 261 L 347.664062 261 L 359.664062 232.785156 L 371.664062 261 L 401.332031 261 L 377.332031 278.4375 L 385.417969 309.980469 L 359.664062 292.542969 L 333.914062 309.980469 L 346.214844 278.4375 L 318 261 "/>
<path style="fill-rule:nonzero;fill:rgb(35%,70%,90%);fill-opacity:1;stroke-width:1;stroke-linecap:butt;stroke-linejoin:miter;stroke:rgb(0%,0%,0%);stroke-opacity:1;stroke-miterlimit:10;" d="M 445 335 L 474.664062 335 L 486.664062 306.785156 L 498.664062 335 L 528.332031 335 L 504.332031 352.4375 L 512.417969 383.980469 L 486.664062 366.542969 L 460.914062 383.980469 L 473.214844 352.4375 L 445 335 "/>
<path style="fill-rule:nonzero;fill:rgb(53%,27%,7%);fill-opacity:1;stroke-width:1;stroke-linecap:butt;stroke-linejoin:miter;stroke:rgb(0%,0%,0%);stroke-opacity:1;stroke-miterlimit:10;" d="M 602.785156 93.785156 L 602.785156 136.214844 L 645.214844 136.214844 L 645.214844 93.785156 L 602.785156 93.785156 "/>
<path style="fill-rule:nonzero;fill:rgb(53%,27%,7%);fill-opacity:1;stroke-width:1;stroke-linecap:butt;stroke-linejoin:miter;stroke:rgb(0%,0%,0%);stroke-opacity:1;stroke-miterlimit:10;" d="M 1024 357 L 1053.664062 357 L 1065.664062 328.785156 L 1077.664062 357 L 1107.332031 357 L 1083.332031 374.4375 L 1091.417969 405.980469 L 1065.664062 388.542969 L 1039.914062 405.980469 L 1052.214844 374.4375 L 1024 357 "/>
<path style="fill-rule:nonzero;fill:rgb(53%,27%,7%);fill-opacity:1;stroke-width:1;stroke-linecap:butt;stroke-linejoin:miter;stroke:rgb(0%,0%,0%);stroke-opacity:1;stroke-miterlimit:10;" d="M 754 128 L 783.664062 128 L 795.664062 99.785156 L 807.664062 128 L 837.332031 128 L 813.332031 145.4375 L 821.417969 176.980469 L 795.664062 159.542969 L 769.914062 176.980469 L 782.214844 145.4375 L 754 128 "/>
<path style="fill-rule:nonzero;fill:rgb(53%,27%,7%);fill-opacity:1;stroke-width:1;stroke-linecap:butt;stroke-linejoin:miter;stroke:rgb(0%,0%,0%);stroke-opacity:1;stroke-miterlimit:10;" d="M 632.785156 328.785156 L 632.785156 371.214844 L 675.214844 371.214844 L 675.214844 328.785156 L 632.785156 328.785156 "/>
</g>
</svg>
