<?xml version="1.0" encoding="UTF-8"?>
<svg xmlns="http://www.w3.org/2000/svg" xmlns:xlink="http://www.w3.org/1999/xlink" width="1129pt" height="517pt" viewBox="0 0 1129 517" version="1.1">
<g id="surface201">
<rect x="0" y="0" width="1129" height="517" style="fill:rgb(90%,90%,90%);fill-opacity:1;stroke:none;"/>
<path style="fill-rule:nonzero;fill:rgb(35%,70%,90%);fill-opacity:1;stroke-width:1;stroke-linecap:butt;stroke-linejoin:miter;stroke:rgb(0%,0%,0%);stroke-opacity:1;stroke-miterlimit:10;" d="M 362.214844 392 C 362.214844 403.714844 352.714844 413.214844 341 413.214844 C 329.285156 413.214844 319.785156 403.714844 319.785156 392 C 319.785156 380.285156 329.285156 370.785156 341 370.785156 C 352.714844 370.785156 362.214844 380.285156 362.214844 392 "/>
<path style="fill-rule:nonzero;fill:rgb(35%,70%,90%);fill-opacity:1;stroke-width:1;stroke-linecap:butt;stroke-linejoin:miter;stroke:rgb(0%,0%,0%);stroke-opacity:1;stroke-miterlimit:10;" d="M 408.214844 204 C 408.214844 215.714844 398.714844 225.214844 387 225.214844 C 375.285156 225.214844 365.785156 215.714844 365.785156 204 C 365.785156 192.285156 375.285156 182.785156 387 182.785156 C 398.714844 182.785156 408.214844 192.285156 408.214844 204 "/>
<path style="fill-rule:nonzero;fill:rgb(100%,51%,0%);fill-opacity:1;stroke-width:1;stroke-linecap:butt;stroke-linejoin:miter;stroke:rgb(0%,0%,0%);stroke-opacity:1;stroke-miterlimit:10;" d="M 168.214844 439 C 168.214844 450.714844 158.714844 460.214844 147 460.214844 C 135.285156 460.214844 125.785156 450.714844 125.785156 439 C 125.785156 427.285156 135.285156 417.785156 147 417.785156 C 158.714844 417.785156 168.214844 427.285156 168.214844 439 "/>
<path style="fill-rule:nonzero;fill:rgb(100%,51%,0%);fill-opacity:1;stroke-width:1;stroke-linecap:butt;stroke-linejoin:miter;stroke:rgb(0%,0%,0%);stroke-opacity:1;stroke-miterlimit:10;" d="M 251.214844 161 C 251.214844 172.714844 241.714844 182.214844 230 182.214844 C 218.285156 182.214844 208.785156 172.714844 208.785156 161 C 208.785156 149.285156 218.285156 139.785156 230 139.785156 C 241.714844 139.785156 251.214844 149.285156 251.214844 161 "/>
<path style="fill-rule:nonzero;fill:rgb(35%,70%,90%);fill-opacity:1;stroke-width:1;stroke-linecap:butt;stroke-linejoin:miter;stroke:rgb(0%,0%,0%);stroke-opacity:1;stroke-miterlimit:10;" d="M 100.214844 349 C 100.214844 360.714844 90.714844 370.214844 79 370.214844 C 67.285156 370.214844 57.785156 360.714844 57.785156 349 C 57.785156 337.285156 67.285156 327.785156 79 327.785156 C 90.714844 327.785156 100.214844 337.285156 100.214844 349 "/>
<path style="fill-rule:nonzero;fill:rgb(35%,70%,90%);fill-opacity:1;stroke-width:1;stroke-linecap:butt;stroke-linejoin:miter;stroke:rgb(0%,0%,0%);stroke-opacity:1;stroke-miterlimit:10;" d="M 429.214844 111 C 429.214844 122.714844 419.714844 132.214844 408 132.214844 C 396.285156 132.214844 386.785156 122.714844 386.785156 111 C 386.785156 99.285156 396.285156 89.785156 408 89.785156 C 419.714844 89.785156 429.214844 99.285156 429.214844 111 "/>
<path style="fill-rule:nonzero;fill:rgb(100%,51%,0%);fill-opacity:1;stroke-width:1;stroke-linecap:butt;stroke-linejoin:miter;stroke:rgb(0%,0%,0%);stroke-opacity:1;stroke-miterlimit:10;" d="M 999.785156 310.785156 L 999.785156 353.214844 L 1042.214844 353.214844 L 1042.214844 310.785156 L 999.785156 310.785156 "/>
<path style="fill-rule:nonzero;fill:rgb(100%,51%,0%);fill-opacity:1;stroke-width:1;stroke-linecap:butt;stroke-linejoin:miter;stroke:rgb(0%,0%,0%);stroke-opacity:1;stroke-miterlimit:10;" d="M 641.785156 301.785156 L 641.785156 344.214844 L 684.214844 344.214844 L 684.214844 301.785156 L 641.785156 301.785156 "/>
<path style="fill-rule:nonzero;fill:rgb(35%,70%,90%);fill-opacity:1;stroke-width:1;stroke-linecap:butt;stroke-linejoin:miter;stroke:rgb(0%,0%,0%);stroke-opacity:1;stroke-miterlimit:10;" d="M 587.785156 160.785156 L 587.785156 203.214844 L 630.214844 203.214844 L 630.214844 160.785156 L 587.785156 160.785156 "/>
<path style="fill-rule:nonzero;fill:rgb(35%,70%,90%);fill-opacity:1;stroke-width:1;stroke-linecap:butt;stroke-linejoin:miter;stroke:rgb(0%,0%,0%);stroke-opacity:1;stroke-miterlimit:10;" d="M 805.785156 286.785156 L 805.785156 329.214844 L 848.214844 329.214844 L 848.214844 286.785156 L 805.785156 286.785156 "/>
<path style="fill-rule:nonzero;fill:rgb(100%,51%,0%);fill-opacity:1;stroke-width:1;stroke-linecap:butt;stroke-linejoin:miter;stroke:rgb(0%,0%,0%);stroke-opacity:1;stroke-miterlimit:10;" d="M 622.785156 38.785156 L 622.785156 81.214844 L 665.214844 81.214844 L 665.214844 38.785156 L 622.785156 38.785156 "/>
<path style="fill-rule:nonzero;fill:rgb(100%,51%,0%);fill-opacity:1;stroke-width:1;stroke-linecap:butt;stroke-linejoin:miter;stroke:rgb(0%,0%,0%);stroke-opacity:1;stroke-miterlimit:10;" d="M 974.785156 133.785156 L 974.785156 176.214844 L 1017.214844 176.214844 L 1017.214844 133.785156 L 974.785156 133.785156 "/>
<path style="fill-rule:nonzero;fill:rgb(100%,51%,0%);fill-opacity:1;stroke-width:1;stroke-linecap:butt;stroke-linejoin:miter;stroke:rgb(0%,0%,0%);stroke-opacity:1;stroke-miterlimit:10;" d="M 724.785156 211.785156 L 724.785156 254.214844 L 767.214844 254.214844 L 767.214844 211.785156 L 724.785156 211.785156 "/>
</g>
</svg>
