<?xml version="1.0" encoding="UTF-8"?>
<svg xmlns="http://www.w3.org/2000/svg" xmlns:xlink="http://www.w3.org/1999/xlink" width="1129pt" height="517pt" viewBox="0 0 1129 517" version="1.1">
<g id="surface676">
<rect x="0" y="0" width="1129" height="517" style="fill:rgb(90%,90%,90%);fill-opacity:1;stroke:none;"/>
<path style="fill-rule:nonzero;fill:rgb(100%,51%,0%);fill-opacity:1;stroke-width:1;stroke-linecap:butt;stroke-linejoin:miter;stroke:rgb(0%,0%,0%);stroke-opacity:1;stroke-miterlimit:10;" d="M 105.214844 462 C 105.214844 473.714844 95.714844 483.214844 84 483.214844 C 72.285156 483.214844 62.785156 473.714844 62.785156 462 C 62.785156 450.285156 72.285156 440.785156 84 440.785156 C 95.714844 440.785156 105.214844 450.285156 105.214844 462 "/>
<path style="fill-rule:nonzero;fill:rgb(55%,51%,53%);fill-opacity:1;stroke-width:1;stroke-linecap:butt;stroke-linejoin:miter;stroke:rgb(0%,0%,0%);stroke-opacity:1;stroke-miterlimit:10;" d="M 361.214844 224 C 361.214844 235.714844 351.714844 245.214844 340 245.214844 C 328.285156 245.214844 318.785156 235.714844 318.785156 224 C 318.785156 212.285156 328.285156 202.785156 340 202.785156 C 351.714844 202.785156 361.214844 212.285156 361.214844 224 "/>
<path style="fill-rule:nonzero;fill:rgb(100%,51%,0%);fill-opacity:1;stroke-width:1;stroke-linecap:butt;stroke-linejoin:miter;stroke:rgb(0%,0%,0%);stroke-opacity:1;stroke-miterlimit:10;" d="M 203.214844 338 C 203.214844 349.714844 193.714844 359.214844 182 359.214844 C 170.285156 359.214844 160.785156 349.714844 160.785156 338 C 160.785156 326.285156 170.285156 316.785156 182 316.785156 C 193.714844 316.785156 203.214844 326.285156 203.214844 338 "/>
<path style="fill-rule:nonzero;fill:rgb(55%,51%,53%);fill-opacity:1;stroke-width:1;stroke-linecap:butt;stroke-linejoin:miter;stroke:rgb(0%,0%,0%);stroke-opacity:1;stroke-miterlimit:10;" d="M 96.214844 44 C 96.214844 55.714844 86.714844 65.214844 75 65.214844 C 63.285156 65.214844 53.785156 55.714844 53.785156 44 C 53.785156 32.285156 63.285156 22.785156 75 22.785156 C 86.714844 22.785156 96.214844 32.285156 96.214844 44 "/>
<path style="fill-rule:nonzero;fill:rgb(100%,51%,0%);fill-opacity:1;stroke-width:1;stroke-linecap:butt;stroke-linejoin:miter;stroke:rgb(0%,0%,0%);stroke-opacity:1;stroke-miterlimit:10;" d="M 297.214844 48 C 297.214844 59.714844 287.714844 69.214844 276 69.214844 C 264.285156 69.214844 254.785156 59.714844 254.785156 48 C 254.785156 36.285156 264.285156 26.785156 276 26.785156 C 287.714844 26.785156 297.214844 36.285156 297.214844 48 "/>
<path style="fill-rule:nonzero;fill:rgb(55%,51%,53%);fill-opacity:1;stroke-width:1;stroke-linecap:butt;stroke-linejoin:miter;stroke:rgb(0%,0%,0%);stroke-opacity:1;stroke-miterlimit:10;" d="M 251 130 L 225.019531 175 L 276.980469 175 L 251 130 "/>
</g>
</svg>
