<?xml version="1.0" encoding="UTF-8"?>
<svg xmlns="http://www.w3.org/2000/svg" xmlns:xlink="http://www.w3.org/1999/xlink" width="1129pt" height="517pt" viewBox="0 0 1129 517" version="1.1">
<g id="surface121">
<rect x="0" y="0" width="1129" height="517" style="fill:rgb(90%,90%,90%);fill-opacity:1;stroke:none;"/>
<path style="fill-rule:nonzero;fill:rgb(100%,51%,0%);fill-opacity:1;stroke-width:1;stroke-linecap:butt;stroke-linejoin:miter;stroke:rgb(0%,0%,0%);stroke-opacity:1;stroke-miterlimit:10;" d="M 335 85 L 364.664062 85 L 376.664062 56.785156 L 388.664062 85 L 418.332031 85 L 394.332031 102.4375 L 402.417969 133.980469 L 376.664062 116.542969 L 350.914062 133.980469 L 363.214844 102.4375 L 335 85 "/>
<path style="fill-rule:nonzero;fill:rgb(100%,51%,0%);fill-opacity:1;stroke-width:1;stroke-linecap:butt;stroke-linejoin:miter;stroke:rgb(0%,0%,0%);stroke-opacity:1;stroke-miterlimit:10;" d="M 202 78 L 231.664062 78 L 243.664062 49.785156 L 255.664062 78 L 285.332031 78 L 261.332031 95.4375 L 269.417969 126.980469 L 243.664062 109.542969 L 217.914062 126.980469 L 230.214844 95.4375 L 202 78 "/>
<path style="fill-rule:nonzero;fill:rgb(100%,51%,0%);fill-opacity:1;stroke-width:1;stroke-linecap:butt;stroke-linejoin:miter;stroke:rgb(0%,0%,0%);stroke-opacity:1;stroke-miterlimit:10;" d="M 765 159 L 794.664062 159 L 806.664062 130.785156 L 818.664062 159 L 848.332031 159 L 824.332031 176.4375 L 832.417969 207.980469 L 806.664062 190.542969 L 780.914062 207.980469 L 793.214844 176.4375 L 765 159 "/>
<path style="fill-rule:nonzero;fill:rgb(100%,51%,0%);fill-opacity:1;stroke-width:1;stroke-linecap:butt;stroke-linejoin:miter;stroke:rgb(0%,0%,0%);stroke-opacity:1;stroke-miterlimit:10;" d="M 170 423 L 199.664062 423 L 211.664062 394.785156 L 223.664062 423 L 253.332031 423 L 229.332031 440.4375 L 237.417969 471.980469 L 211.664062 454.542969 L 185.914062 471.980469 L 198.214844 440.4375 L 170 423 "/>
<path style="fill-rule:nonzero;fill:rgb(100%,51%,0%);fill-opacity:1;stroke-width:1;stroke-linecap:butt;stroke-linejoin:miter;stroke:rgb(0%,0%,0%);stroke-opacity:1;stroke-miterlimit:10;" d="M 815 362 L 844.664062 362 L 856.664062 333.785156 L 868.664062 362 L 898.332031 362 L 874.332031 379.4375 L 882.417969 410.980469 L 856.664062 393.542969 L 830.914062 410.980469 L 843.214844 379.4375 L 815 362 "/>
<path style="fill-rule:nonzero;fill:rgb(55%,51%,53%);fill-opacity:1;stroke-width:1;stroke-linecap:butt;stroke-linejoin:miter;stroke:rgb(0%,0%,0%);stroke-opacity:1;stroke-miterlimit:10;" d="M 170.214844 189 C 170.214844 200.714844 160.714844 210.214844 149 210.214844 C 137.285156 210.214844 127.785156 200.714844 127.785156 189 C 127.785156 177.285156 137.285156 167.785156 149 167.785156 C 160.714844 167.785156 170.214844 177.285156 170.214844 189 "/>
<path style="fill-rule:nonzero;fill:rgb(55%,51%,53%);fill-opacity:1;stroke-width:1;stroke-linecap:butt;stroke-linejoin:miter;stroke:rgb(0%,0%,0%);stroke-opacity:1;stroke-miterlimit:10;" d="M 946.214844 110 C 946.214844 121.714844 936.714844 131.214844 925 131.214844 C 913.285156 131.214844 903.785156 121.714844 903.785156 110 C 903.785156 98.285156 913.285156 88.785156 925 88.785156 C 936.714844 88.785156 946.214844 98.285156 946.214844 110 "/>
<path style="fill-rule:nonzero;fill:rgb(55%,51%,53%);fill-opacity:1;stroke-width:1;stroke-linecap:butt;stroke-linejoin:miter;stroke:rgb(0%,0%,0%);stroke-opacity:1;stroke-miterlimit:10;" d="M 463.214844 403 C 463.214844 414.714844 453.714844 424.214844 442 424.214844 C 430.285156 424.214844 420.785156 414.714844 420.785156 403 C 420.785156 391.285156 430.285156 381.785156 442 381.785156 C 453.714844 381.785156 463.214844 391.285156 463.214844 403 "/>
<path style="fill-rule:nonzero;fill:rgb(55%,51%,53%);fill-opacity:1;stroke-width:1;stroke-linecap:butt;stroke-linejoin:miter;stroke:rgb(0%,0%,0%);stroke-opacity:1;stroke-miterlimit:10;" d="M 383.214844 451 C 383.214844 462.714844 373.714844 472.214844 362 472.214844 C 350.285156 472.214844 340.785156 462.714844 340.785156 451 C 340.785156 439.285156 350.285156 429.785156 362 429.785156 C 373.714844 429.785156 383.214844 439.285156 383.214844 451 "/>
<path style="fill-rule:nonzero;fill:rgb(55%,51%,53%);fill-opacity:1;stroke-width:1;stroke-linecap:butt;stroke-linejoin:miter;stroke:rgb(0%,0%,0%);stroke-opacity:1;stroke-miterlimit:10;" d="M 633.214844 58 C 633.214844 69.714844 623.714844 79.214844 612 79.214844 C 600.285156 79.214844 590.785156 69.714844 590.785156 58 C 590.785156 46.285156 600.285156 36.785156 612 36.785156 C 623.714844 36.785156 633.214844 46.285156 633.214844 58 "/>
<path style="fill-rule:nonzero;fill:rgb(55%,51%,53%);fill-opacity:1;stroke-width:1;stroke-linecap:butt;stroke-linejoin:miter;stroke:rgb(0%,0%,0%);stroke-opacity:1;stroke-miterlimit:10;" d="M 478.214844 181 C 478.214844 192.714844 468.714844 202.214844 457 202.214844 C 445.285156 202.214844 435.785156 192.714844 435.785156 181 C 435.785156 169.285156 445.285156 159.785156 457 159.785156 C 468.714844 159.785156 478.214844 169.285156 478.214844 181 "/>
</g>
</svg>
