<?xml version="1.0" encoding="UTF-8"?>
<svg xmlns="http://www.w3.org/2000/svg" xmlns:xlink="http://www.w3.org/1999/xlink" width="1129pt" height="517pt" viewBox="0 0 1129 517" version="1.1">
<g id="surface111">
<rect x="0" y="0" width="1129" height="517" style="fill:rgb(90%,90%,90%);fill-opacity:1;stroke:none;"/>
<path style="fill-rule:nonzero;fill:rgb(100%,51%,0%);fill-opacity:1;stroke-width:1;stroke-linecap:butt;stroke-linejoin:miter;stroke:rgb(0%,0%,0%);stroke-opacity:1;stroke-miterlimit:10;" d="M 145.214844 159 C 145.214844 170.714844 135.714844 180.214844 124 180.214844 C 112.285156 180.214844 102.785156 170.714844 102.785156 159 C 102.785156 147.285156 112.285156 137.785156 124 137.785156 C 135.714844 137.785156 145.214844 147.285156 145.214844 159 "/>
<path style="fill-rule:nonzero;fill:rgb(100%,51%,0%);fill-opacity:1;stroke-width:1;stroke-linecap:butt;stroke-linejoin:miter;stroke:rgb(0%,0%,0%);stroke-opacity:1;stroke-miterlimit:10;" d="M 158.214844 419 C 158.214844 430.714844 148.714844 440.214844 137 440.214844 C 125.285156 440.214844 115.785156 430.714844 115.785156 419 C 115.785156 407.285156 125.285156 397.785156 137 397.785156 C 148.714844 397.785156 158.214844 407.285156 158.214844 419 "/>
<path style="fill-rule:nonzero;fill:rgb(100%,51%,0%);fill-opacity:1;stroke-width:1;stroke-linecap:butt;stroke-linejoin:miter;stroke:rgb(0%,0%,0%);stroke-opacity:1;stroke-miterlimit:10;" d="M 200.785156 429.785156 L 200.785156 472.214844 L 243.214844 472.214844 L 243.214844 429.785156 L 200.785156 429.785156 "/>
<path style="fill-rule:nonzero;fill:rgb(100%,51%,0%);fill-opacity:1;stroke-width:1;stroke-linecap:butt;stroke-linejoin:miter;stroke:rgb(0%,0%,0%);stroke-opacity:1;stroke-miterlimit:10;" d="M 439.214844 368 C 439.214844 379.714844 429.714844 389.214844 418 389.214844 C 406.285156 389.214844 396.785156 379.714844 396.785156 368 C 396.785156 356.285156 406.285156 346.785156 418 346.785156 C 429.714844 346.785156 439.214844 356.285156 439.214844 368 "/>
<path style="fill-rule:nonzero;fill:rgb(100%,51%,0%);fill-opacity:1;stroke-width:1;stroke-linecap:butt;stroke-linejoin:miter;stroke:rgb(0%,0%,0%);stroke-opacity:1;stroke-miterlimit:10;" d="M 267.214844 155 C 267.214844 166.714844 257.714844 176.214844 246 176.214844 C 234.285156 176.214844 224.785156 166.714844 224.785156 155 C 224.785156 143.285156 234.285156 133.785156 246 133.785156 C 257.714844 133.785156 267.214844 143.285156 267.214844 155 "/>
<path style="fill-rule:nonzero;fill:rgb(100%,51%,0%);fill-opacity:1;stroke-width:1;stroke-linecap:butt;stroke-linejoin:miter;stroke:rgb(0%,0%,0%);stroke-opacity:1;stroke-miterlimit:10;" d="M 346.214844 378 C 346.214844 389.714844 336.714844 399.214844 325 399.214844 C 313.285156 399.214844 303.785156 389.714844 303.785156 378 C 303.785156 366.285156 313.285156 356.785156 325 356.785156 C 336.714844 356.785156 346.214844 366.285156 346.214844 378 "/>
<path style="fill-rule:nonzero;fill:rgb(100%,51%,0%);fill-opacity:1;stroke-width:1;stroke-linecap:butt;stroke-linejoin:miter;stroke:rgb(0%,0%,0%);stroke-opacity:1;stroke-miterlimit:10;" d="M 135.214844 316 C 135.214844 327.714844 125.714844 337.214844 114 337.214844 C 102.285156 337.214844 92.785156 327.714844 92.785156 316 C 92.785156 304.285156 102.285156 294.785156 114 294.785156 C 125.714844 294.785156 135.214844 304.285156 135.214844 316 "/>
<path style="fill-rule:nonzero;fill:rgb(53%,27%,7%);fill-opacity:1;stroke-width:1;stroke-linecap:butt;stroke-linejoin:miter;stroke:rgb(0%,0%,0%);stroke-opacity:1;stroke-miterlimit:10;" d="M 809.785156 400.785156 L 809.785156 443.214844 L 852.214844 443.214844 L 852.214844 400.785156 L 809.785156 400.785156 "/>
<path style="fill-rule:nonzero;fill:rgb(53%,27%,7%);fill-opacity:1;stroke-width:1;stroke-linecap:butt;stroke-linejoin:miter;stroke:rgb(0%,0%,0%);stroke-opacity:1;stroke-miterlimit:10;" d="M 915.785156 419.785156 L 915.785156 462.214844 L 958.214844 462.214844 L 958.214844 419.785156 L 915.785156 419.785156 "/>
<path style="fill-rule:nonzero;fill:rgb(53%,27%,7%);fill-opacity:1;stroke-width:1;stroke-linecap:butt;stroke-linejoin:miter;stroke:rgb(0%,0%,0%);stroke-opacity:1;stroke-miterlimit:10;" d="M 741.214844 134 C 741.214844 145.714844 731.714844 155.214844 720 155.214844 C 708.285156 155.214844 698.785156 145.714844 698.785156 134 C 698.785156 122.285156 708.285156 112.785156 720 112.785156 C 731.714844 112.785156 741.214844 122.285156 741.214844 134 "/>
<path style="fill-rule:nonzero;fill:rgb(53%,27%,7%);fill-opacity:1;stroke-width:1;stroke-linecap:butt;stroke-linejoin:miter;stroke:rgb(0%,0%,0%);stroke-opacity:1;stroke-miterlimit:10;" d="M 584.785156 138.785156 L 584.785156 181.214844 L 627.214844 181.214844 L 627.214844 138.785156 L 584.785156 138.785156 "/>
<path style="fill-rule:nonzero;fill:rgb(53%,27%,7%);fill-opacity:1;stroke-width:1;stroke-linecap:butt;stroke-linejoin:miter;stroke:rgb(0%,0%,0%);stroke-opacity:1;stroke-miterlimit:10;" d="M 615.785156 401.785156 L 615.785156 444.214844 L 658.214844 444.214844 L 658.214844 401.785156 L 615.785156 401.785156 "/>
</g>
</svg>
