<?xml version="1.0" encoding="UTF-8"?>
<svg xmlns="http://www.w3.org/2000/svg" xmlns:xlink="http://www.w3.org/1999/xlink" width="1129pt" height="517pt" viewBox="0 0 1129 517" version="1.1">
<g id="surface531">
<rect x="0" y="0" width="1129" height="517" style="fill:rgb(90%,90%,90%);fill-opacity:1;stroke:none;"/>
<path style="fill-rule:nonzero;fill:rgb(55%,51%,53%);fill-opacity:1;stroke-width:1;stroke-linecap:butt;stroke-linejoin:miter;stroke:rgb(0%,0%,0%);stroke-opacity:1;stroke-miterlimit:10;" d="M 197.214844 325 C 197.214844 336.714844 187.714844 346.214844 176 346.214844 C 164.285156 346.214844 154.785156 336.714844 154.785156 325 C 154.785156 313.285156 164.285156 303.785156 176 303.785156 C 187.714844 303.785156 197.214844 313.285156 197.214844 325 "/>
<path style="fill-rule:nonzero;fill:rgb(55%,51%,53%);fill-opacity:1;stroke-width:1;stroke-linecap:butt;stroke-linejoin:miter;stroke:rgb(0%,0%,0%);stroke-opacity:1;stroke-miterlimit:10;" d="M 242.785156 383.785156 L 242.785156 426.214844 L 285.214844 426.214844 L 285.214844 383.785156 L 242.785156 383.785156 "/>
<path style="fill-rule:nonzero;fill:rgb(55%,51%,53%);fill-opacity:1;stroke-width:1;stroke-linecap:butt;stroke-linejoin:miter;stroke:rgb(0%,0%,0%);stroke-opacity:1;stroke-miterlimit:10;" d="M 392.785156 448.785156 L 392.785156 491.214844 L 435.214844 491.214844 L 435.214844 448.785156 L 392.785156 448.785156 "/>
<path style="fill-rule:nonzero;fill:rgb(55%,51%,53%);fill-opacity:1;stroke-width:1;stroke-linecap:butt;stroke-linejoin:miter;stroke:rgb(0%,0%,0%);stroke-opacity:1;stroke-miterlimit:10;" d="M 446.214844 369 C 446.214844 380.714844 436.714844 390.214844 425 390.214844 C 413.285156 390.214844 403.785156 380.714844 403.785156 369 C 403.785156 357.285156 413.285156 347.785156 425 347.785156 C 436.714844 347.785156 446.214844 357.285156 446.214844 369 "/>
<path style="fill-rule:nonzero;fill:rgb(55%,51%,53%);fill-opacity:1;stroke-width:1;stroke-linecap:butt;stroke-linejoin:miter;stroke:rgb(0%,0%,0%);stroke-opacity:1;stroke-miterlimit:10;" d="M 167.214844 427 C 167.214844 438.714844 157.714844 448.214844 146 448.214844 C 134.285156 448.214844 124.785156 438.714844 124.785156 427 C 124.785156 415.285156 134.285156 405.785156 146 405.785156 C 157.714844 405.785156 167.214844 415.285156 167.214844 427 "/>
<path style="fill-rule:nonzero;fill:rgb(53%,27%,7%);fill-opacity:1;stroke-width:1;stroke-linecap:butt;stroke-linejoin:miter;stroke:rgb(0%,0%,0%);stroke-opacity:1;stroke-miterlimit:10;" d="M 904.785156 294.785156 L 904.785156 337.214844 L 947.214844 337.214844 L 947.214844 294.785156 L 904.785156 294.785156 "/>
<path style="fill-rule:nonzero;fill:rgb(53%,27%,7%);fill-opacity:1;stroke-width:1;stroke-linecap:butt;stroke-linejoin:miter;stroke:rgb(0%,0%,0%);stroke-opacity:1;stroke-miterlimit:10;" d="M 787.214844 255 C 787.214844 266.714844 777.714844 276.214844 766 276.214844 C 754.285156 276.214844 744.785156 266.714844 744.785156 255 C 744.785156 243.285156 754.285156 233.785156 766 233.785156 C 777.714844 233.785156 787.214844 243.285156 787.214844 255 "/>
<path style="fill-rule:nonzero;fill:rgb(53%,27%,7%);fill-opacity:1;stroke-width:1;stroke-linecap:butt;stroke-linejoin:miter;stroke:rgb(0%,0%,0%);stroke-opacity:1;stroke-miterlimit:10;" d="M 715.214844 181 C 715.214844 192.714844 705.714844 202.214844 694 202.214844 C 682.285156 202.214844 672.785156 192.714844 672.785156 181 C 672.785156 169.285156 682.285156 159.785156 694 159.785156 C 705.714844 159.785156 715.214844 169.285156 715.214844 181 "/>
<path style="fill-rule:nonzero;fill:rgb(53%,27%,7%);fill-opacity:1;stroke-width:1;stroke-linecap:butt;stroke-linejoin:miter;stroke:rgb(0%,0%,0%);stroke-opacity:1;stroke-miterlimit:10;" d="M 746.785156 61.785156 L 746.785156 104.214844 L 789.214844 104.214844 L 789.214844 61.785156 L 746.785156 61.785156 "/>
<path style="fill-rule:nonzero;fill:rgb(53%,27%,7%);fill-opacity:1;stroke-width:1;stroke-linecap:butt;stroke-linejoin:miter;stroke:rgb(0%,0%,0%);stroke-opacity:1;stroke-miterlimit:10;" d="M 950.785156 57.785156 L 950.785156 100.214844 L 993.214844 100.214844 L 993.214844 57.785156 L 950.785156 57.785156 "/>
<path style="fill-rule:nonzero;fill:rgb(53%,27%,7%);fill-opacity:1;stroke-width:1;stroke-linecap:butt;stroke-linejoin:miter;stroke:rgb(0%,0%,0%);stroke-opacity:1;stroke-miterlimit:10;" d="M 736.785156 422.785156 L 736.785156 465.214844 L 779.214844 465.214844 L 779.214844 422.785156 L 736.785156 422.785156 "/>
</g>
</svg>
