<?xml version="1.0" encoding="UTF-8"?>
<svg xmlns="http://www.w3.org/2000/svg" xmlns:xlink="http://www.w3.org/1999/xlink" width="1129pt" height="517pt" viewBox="0 0 1129 517" version="1.1">
<g id="surface681">
<rect x="0" y="0" width="1129" height="517" style="fill:rgb(90%,90%,90%);fill-opacity:1;stroke:none;"/>
<path style="fill-rule:nonzero;fill:rgb(100%,51%,0%);fill-opacity:1;stroke-width:1;stroke-linecap:butt;stroke-linejoin:miter;stroke:rgb(0%,0%,0%);stroke-opacity:1;stroke-miterlimit:10;" d="M 67.214844 163 C 67.214844 174.714844 57.714844 184.214844 46 184.214844 C 34.285156 184.214844 24.785156 174.714844 24.785156 163 C 24.785156 151.285156 34.285156 141.785156 46 141.785156 C 57.714844 141.785156 67.214844 151.285156 67.214844 163 "/>
<path style="fill-rule:nonzero;fill:rgb(55%,51%,53%);fill-opacity:1;stroke-width:1;stroke-linecap:butt;stroke-linejoin:miter;stroke:rgb(0%,0%,0%);stroke-opacity:1;stroke-miterlimit:10;" d="M 223.214844 221 C 223.214844 232.714844 213.714844 242.214844 202 242.214844 C 190.285156 242.214844 180.785156 232.714844 180.785156 221 C 180.785156 209.285156 190.285156 199.785156 202 199.785156 C 213.714844 199.785156 223.214844 209.285156 223.214844 221 "/>
<path style="fill-rule:nonzero;fill:rgb(55%,51%,53%);fill-opacity:1;stroke-width:1;stroke-linecap:butt;stroke-linejoin:miter;stroke:rgb(0%,0%,0%);stroke-opacity:1;stroke-miterlimit:10;" d="M 88.214844 431 C 88.214844 442.714844 78.714844 452.214844 67 452.214844 C 55.285156 452.214844 45.785156 442.714844 45.785156 431 C 45.785156 419.285156 55.285156 409.785156 67 409.785156 C 78.714844 409.785156 88.214844 419.285156 88.214844 431 "/>
<path style="fill-rule:nonzero;fill:rgb(100%,51%,0%);fill-opacity:1;stroke-width:1;stroke-linecap:butt;stroke-linejoin:miter;stroke:rgb(0%,0%,0%);stroke-opacity:1;stroke-miterlimit:10;" d="M 438.214844 266 C 438.214844 277.714844 428.714844 287.214844 417 287.214844 C 405.285156 287.214844 395.785156 277.714844 395.785156 266 C 395.785156 254.285156 405.285156 244.785156 417 244.785156 C 428.714844 244.785156 438.214844 254.285156 438.214844 266 "/>
<path style="fill-rule:nonzero;fill:rgb(100%,51%,0%);fill-opacity:1;stroke-width:1;stroke-linecap:butt;stroke-linejoin:miter;stroke:rgb(0%,0%,0%);stroke-opacity:1;stroke-miterlimit:10;" d="M 192.214844 126 C 192.214844 137.714844 182.714844 147.214844 171 147.214844 C 159.285156 147.214844 149.785156 137.714844 149.785156 126 C 149.785156 114.285156 159.285156 104.785156 171 104.785156 C 182.714844 104.785156 192.214844 114.285156 192.214844 126 "/>
<path style="fill-rule:nonzero;fill:rgb(100%,51%,0%);fill-opacity:1;stroke-width:1;stroke-linecap:butt;stroke-linejoin:miter;stroke:rgb(0%,0%,0%);stroke-opacity:1;stroke-miterlimit:10;" d="M 129.214844 268 C 129.214844 279.714844 119.714844 289.214844 108 289.214844 C 96.285156 289.214844 86.785156 279.714844 86.785156 268 C 86.785156 256.285156 96.285156 246.785156 108 246.785156 C 119.714844 246.785156 129.214844 256.285156 129.214844 268 "/>
<path style="fill-rule:nonzero;fill:rgb(100%,51%,0%);fill-opacity:1;stroke-width:1;stroke-linecap:butt;stroke-linejoin:miter;stroke:rgb(0%,0%,0%);stroke-opacity:1;stroke-miterlimit:10;" d="M 388.214844 138 C 388.214844 149.714844 378.714844 159.214844 367 159.214844 C 355.285156 159.214844 345.785156 149.714844 345.785156 138 C 345.785156 126.285156 355.285156 116.785156 367 116.785156 C 378.714844 116.785156 388.214844 126.285156 388.214844 138 "/>
<path style="fill-rule:nonzero;fill:rgb(55%,51%,53%);fill-opacity:1;stroke-width:1;stroke-linecap:butt;stroke-linejoin:miter;stroke:rgb(0%,0%,0%);stroke-opacity:1;stroke-miterlimit:10;" d="M 840.785156 183.785156 L 840.785156 226.214844 L 883.214844 226.214844 L 883.214844 183.785156 L 840.785156 183.785156 "/>
<path style="fill-rule:nonzero;fill:rgb(100%,51%,0%);fill-opacity:1;stroke-width:1;stroke-linecap:butt;stroke-linejoin:miter;stroke:rgb(0%,0%,0%);stroke-opacity:1;stroke-miterlimit:10;" d="M 672.785156 302.785156 L 672.785156 345.214844 L 715.214844 345.214844 L 715.214844 302.785156 L 672.785156 302.785156 "/>
<path style="fill-rule:nonzero;fill:rgb(100%,51%,0%);fill-opacity:1;stroke-width:1;stroke-linecap:butt;stroke-linejoin:miter;stroke:rgb(0%,0%,0%);stroke-opacity:1;stroke-miterlimit:10;" d="M 950.785156 296.785156 L 950.785156 339.214844 L 993.214844 339.214844 L 993.214844 296.785156 L 950.785156 296.785156 "/>
</g>
</svg>
