<?xml version="1.0" encoding="UTF-8"?>
<svg xmlns="http://www.w3.org/2000/svg" xmlns:xlink="http://www.w3.org/1999/xlink" width="1129pt" height="517pt" viewBox="0 0 1129 517" version="1.1">
<g id="surface141">
<rect x="0" y="0" width="1129" height="517" style="fill:rgb(90%,90%,90%);fill-opacity:1;stroke:none;"/>
<path style="fill-rule:nonzero;fill:rgb(100%,51%,0%);fill-opacity:1;stroke-width:1;stroke-linecap:butt;stroke-linejoin:miter;stroke:rgb(0%,0%,0%);stroke-opacity:1;stroke-miterlimit:10;" d="M 235.214844 146 C 235.214844 157.714844 225.714844 167.214844 214 167.214844 C 202.285156 167.214844 192.785156 157.714844 192.785156 146 C 192.785156 134.285156 202.285156 124.785156 214 124.785156 C 225.714844 124.785156 235.214844 134.285156 235.214844 146 "/>
<path style="fill-rule:nonzero;fill:rgb(100%,51%,0%);fill-opacity:1;stroke-width:1;stroke-linecap:butt;stroke-linejoin:miter;stroke:rgb(0%,0%,0%);stroke-opacity:1;stroke-miterlimit:10;" d="M 300.785156 193.785156 L 300.785156 236.214844 L 343.214844 236.214844 L 343.214844 193.785156 L 300.785156 193.785156 "/>
<path style="fill-rule:nonzero;fill:rgb(100%,51%,0%);fill-opacity:1;stroke-width:1;stroke-linecap:butt;stroke-linejoin:miter;stroke:rgb(0%,0%,0%);stroke-opacity:1;stroke-miterlimit:10;" d="M 223.214844 278 C 223.214844 289.714844 213.714844 299.214844 202 299.214844 C 190.285156 299.214844 180.785156 289.714844 180.785156 278 C 180.785156 266.285156 190.285156 256.785156 202 256.785156 C 213.714844 256.785156 223.214844 266.285156 223.214844 278 "/>
<path style="fill-rule:nonzero;fill:rgb(100%,51%,0%);fill-opacity:1;stroke-width:1;stroke-linecap:butt;stroke-linejoin:miter;stroke:rgb(0%,0%,0%);stroke-opacity:1;stroke-miterlimit:10;" d="M 30.785156 55.785156 L 30.785156 98.214844 L 73.214844 98.214844 L 73.214844 55.785156 L 30.785156 55.785156 "/>
<path style="fill-rule:nonzero;fill:rgb(100%,51%,0%);fill-opacity:1;stroke-width:1;stroke-linecap:butt;stroke-linejoin:miter;stroke:rgb(0%,0%,0%);stroke-opacity:1;stroke-miterlimit:10;" d="M 338.214844 49 C 338.214844 60.714844 328.714844 70.214844 317 70.214844 C 305.285156 70.214844 295.785156 60.714844 295.785156 49 C 295.785156 37.285156 305.285156 27.785156 317 27.785156 C 328.714844 27.785156 338.214844 37.285156 338.214844 49 "/>
<path style="fill-rule:nonzero;fill:rgb(100%,51%,0%);fill-opacity:1;stroke-width:1;stroke-linecap:butt;stroke-linejoin:miter;stroke:rgb(0%,0%,0%);stroke-opacity:1;stroke-miterlimit:10;" d="M 206.214844 396 C 206.214844 407.714844 196.714844 417.214844 185 417.214844 C 173.285156 417.214844 163.785156 407.714844 163.785156 396 C 163.785156 384.285156 173.285156 374.785156 185 374.785156 C 196.714844 374.785156 206.214844 384.285156 206.214844 396 "/>
<path style="fill-rule:nonzero;fill:rgb(100%,51%,0%);fill-opacity:1;stroke-width:1;stroke-linecap:butt;stroke-linejoin:miter;stroke:rgb(0%,0%,0%);stroke-opacity:1;stroke-miterlimit:10;" d="M 458.214844 114 C 458.214844 125.714844 448.714844 135.214844 437 135.214844 C 425.285156 135.214844 415.785156 125.714844 415.785156 114 C 415.785156 102.285156 425.285156 92.785156 437 92.785156 C 448.714844 92.785156 458.214844 102.285156 458.214844 114 "/>
<path style="fill-rule:nonzero;fill:rgb(55%,51%,53%);fill-opacity:1;stroke-width:1;stroke-linecap:butt;stroke-linejoin:miter;stroke:rgb(0%,0%,0%);stroke-opacity:1;stroke-miterlimit:10;" d="M 584.785156 365.785156 L 584.785156 408.214844 L 627.214844 408.214844 L 627.214844 365.785156 L 584.785156 365.785156 "/>
<path style="fill-rule:nonzero;fill:rgb(55%,51%,53%);fill-opacity:1;stroke-width:1;stroke-linecap:butt;stroke-linejoin:miter;stroke:rgb(0%,0%,0%);stroke-opacity:1;stroke-miterlimit:10;" d="M 1047.214844 414 C 1047.214844 425.714844 1037.714844 435.214844 1026 435.214844 C 1014.285156 435.214844 1004.785156 425.714844 1004.785156 414 C 1004.785156 402.285156 1014.285156 392.785156 1026 392.785156 C 1037.714844 392.785156 1047.214844 402.285156 1047.214844 414 "/>
<path style="fill-rule:nonzero;fill:rgb(55%,51%,53%);fill-opacity:1;stroke-width:1;stroke-linecap:butt;stroke-linejoin:miter;stroke:rgb(0%,0%,0%);stroke-opacity:1;stroke-miterlimit:10;" d="M 627.785156 253.785156 L 627.785156 296.214844 L 670.214844 296.214844 L 670.214844 253.785156 L 627.785156 253.785156 "/>
<path style="fill-rule:nonzero;fill:rgb(55%,51%,53%);fill-opacity:1;stroke-width:1;stroke-linecap:butt;stroke-linejoin:miter;stroke:rgb(0%,0%,0%);stroke-opacity:1;stroke-miterlimit:10;" d="M 727.214844 377 C 727.214844 388.714844 717.714844 398.214844 706 398.214844 C 694.285156 398.214844 684.785156 388.714844 684.785156 377 C 684.785156 365.285156 694.285156 355.785156 706 355.785156 C 717.714844 355.785156 727.214844 365.285156 727.214844 377 "/>
<path style="fill-rule:nonzero;fill:rgb(55%,51%,53%);fill-opacity:1;stroke-width:1;stroke-linecap:butt;stroke-linejoin:miter;stroke:rgb(0%,0%,0%);stroke-opacity:1;stroke-miterlimit:10;" d="M 754.785156 99.785156 L 754.785156 142.214844 L 797.214844 142.214844 L 797.214844 99.785156 L 754.785156 99.785156 "/>
</g>
</svg>
