<?xml version="1.0" encoding="UTF-8"?>
<svg xmlns="http://www.w3.org/2000/svg" xmlns:xlink="http://www.w3.org/1999/xlink" width="1129pt" height="517pt" viewBox="0 0 1129 517" version="1.1">
<g id="surface51">
<rect x="0" y="0" width="1129" height="517" style="fill:rgb(90%,90%,90%);fill-opacity:1;stroke:none;"/>
<path style="fill-rule:nonzero;fill:rgb(35%,70%,90%);fill-opacity:1;stroke-width:1;stroke-linecap:butt;stroke-linejoin:miter;stroke:rgb(0%,0%,0%);stroke-opacity:1;stroke-miterlimit:10;" d="M 98.214844 423 C 98.214844 434.714844 88.714844 444.214844 77 444.214844 C 65.285156 444.214844 55.785156 434.714844 55.785156 423 C 55.785156 411.285156 65.285156 401.785156 77 401.785156 C 88.714844 401.785156 98.214844 411.285156 98.214844 423 "/>
<path style="fill-rule:nonzero;fill:rgb(35%,70%,90%);fill-opacity:1;stroke-width:1;stroke-linecap:butt;stroke-linejoin:miter;stroke:rgb(0%,0%,0%);stroke-opacity:1;stroke-miterlimit:10;" d="M 264.785156 46.785156 L 264.785156 89.214844 L 307.214844 89.214844 L 307.214844 46.785156 L 264.785156 46.785156 "/>
<path style="fill-rule:nonzero;fill:rgb(35%,70%,90%);fill-opacity:1;stroke-width:1;stroke-linecap:butt;stroke-linejoin:miter;stroke:rgb(0%,0%,0%);stroke-opacity:1;stroke-miterlimit:10;" d="M 160.214844 252 C 160.214844 263.714844 150.714844 273.214844 139 273.214844 C 127.285156 273.214844 117.785156 263.714844 117.785156 252 C 117.785156 240.285156 127.285156 230.785156 139 230.785156 C 150.714844 230.785156 160.214844 240.285156 160.214844 252 "/>
<path style="fill-rule:nonzero;fill:rgb(35%,70%,90%);fill-opacity:1;stroke-width:1;stroke-linecap:butt;stroke-linejoin:miter;stroke:rgb(0%,0%,0%);stroke-opacity:1;stroke-miterlimit:10;" d="M 320.214844 235 C 320.214844 246.714844 310.714844 256.214844 299 256.214844 C 287.285156 256.214844 277.785156 246.714844 277.785156 235 C 277.785156 223.285156 287.285156 213.785156 299 213.785156 C 310.714844 213.785156 320.214844 223.285156 320.214844 235 "/>
<path style="fill-rule:nonzero;fill:rgb(35%,70%,90%);fill-opacity:1;stroke-width:1;stroke-linecap:butt;stroke-linejoin:miter;stroke:rgb(0%,0%,0%);stroke-opacity:1;stroke-miterlimit:10;" d="M 257.214844 453 C 257.214844 464.714844 247.714844 474.214844 236 474.214844 C 224.285156 474.214844 214.785156 464.714844 214.785156 453 C 214.785156 441.285156 224.285156 431.785156 236 431.785156 C 247.714844 431.785156 257.214844 441.285156 257.214844 453 "/>
<path style="fill-rule:nonzero;fill:rgb(53%,27%,7%);fill-opacity:1;stroke-width:1;stroke-linecap:butt;stroke-linejoin:miter;stroke:rgb(0%,0%,0%);stroke-opacity:1;stroke-miterlimit:10;" d="M 776.785156 42.785156 L 776.785156 85.214844 L 819.214844 85.214844 L 819.214844 42.785156 L 776.785156 42.785156 "/>
<path style="fill-rule:nonzero;fill:rgb(53%,27%,7%);fill-opacity:1;stroke-width:1;stroke-linecap:butt;stroke-linejoin:miter;stroke:rgb(0%,0%,0%);stroke-opacity:1;stroke-miterlimit:10;" d="M 875.214844 334 C 875.214844 345.714844 865.714844 355.214844 854 355.214844 C 842.285156 355.214844 832.785156 345.714844 832.785156 334 C 832.785156 322.285156 842.285156 312.785156 854 312.785156 C 865.714844 312.785156 875.214844 322.285156 875.214844 334 "/>
<path style="fill-rule:nonzero;fill:rgb(53%,27%,7%);fill-opacity:1;stroke-width:1;stroke-linecap:butt;stroke-linejoin:miter;stroke:rgb(0%,0%,0%);stroke-opacity:1;stroke-miterlimit:10;" d="M 997.785156 204.785156 L 997.785156 247.214844 L 1040.214844 247.214844 L 1040.214844 204.785156 L 997.785156 204.785156 "/>
<path style="fill-rule:nonzero;fill:rgb(53%,27%,7%);fill-opacity:1;stroke-width:1;stroke-linecap:butt;stroke-linejoin:miter;stroke:rgb(0%,0%,0%);stroke-opacity:1;stroke-miterlimit:10;" d="M 627.785156 23.785156 L 627.785156 66.214844 L 670.214844 66.214844 L 670.214844 23.785156 L 627.785156 23.785156 "/>
<path style="fill-rule:nonzero;fill:rgb(53%,27%,7%);fill-opacity:1;stroke-width:1;stroke-linecap:butt;stroke-linejoin:miter;stroke:rgb(0%,0%,0%);stroke-opacity:1;stroke-miterlimit:10;" d="M 726.785156 117.785156 L 726.785156 160.214844 L 769.214844 160.214844 L 769.214844 117.785156 L 726.785156 117.785156 "/>
<path style="fill-rule:nonzero;fill:rgb(53%,27%,7%);fill-opacity:1;stroke-width:1;stroke-linecap:butt;stroke-linejoin:miter;stroke:rgb(0%,0%,0%);stroke-opacity:1;stroke-miterlimit:10;" d="M 748.785156 393.785156 L 748.785156 436.214844 L 791.214844 436.214844 L 791.214844 393.785156 L 748.785156 393.785156 "/>
<path style="fill-rule:nonzero;fill:rgb(53%,27%,7%);fill-opacity:1;stroke-width:1;stroke-linecap:butt;stroke-linejoin:miter;stroke:rgb(0%,0%,0%);stroke-opacity:1;stroke-miterlimit:10;" d="M 776.785156 205.785156 L 776.785156 248.214844 L 819.214844 248.214844 L 819.214844 205.785156 L 776.785156 205.785156 "/>
<path style="fill-rule:nonzero;fill:rgb(53%,27%,7%);fill-opacity:1;stroke-width:1;stroke-linecap:butt;stroke-linejoin:miter;stroke:rgb(0%,0%,0%);stroke-opacity:1;stroke-miterlimit:10;" d="M 976.785156 330.785156 L 976.785156 373.214844 L 1019.214844 373.214844 L 1019.214844 330.785156 L 976.785156 330.785156 "/>
</g>
</svg>
