<?xml version="1.0" encoding="UTF-8"?>
<svg xmlns="http://www.w3.org/2000/svg" xmlns:xlink="http://www.w3.org/1999/xlink" width="1129pt" height="517pt" viewBox="0 0 1129 517" version="1.1">
<g id="surface251">
<rect x="0" y="0" width="1129" height="517" style="fill:rgb(90%,90%,90%);fill-opacity:1;stroke:none;"/>
<path style="fill-rule:nonzero;fill:rgb(35%,70%,90%);fill-opacity:1;stroke-width:1;stroke-linecap:butt;stroke-linejoin:miter;stroke:rgb(0%,0%,0%);stroke-opacity:1;stroke-miterlimit:10;" d="M 410 221 L 439.664062 221 L 451.664062 192.785156 L 463.664062 221 L 493.332031 221 L 469.332031 238.4375 L 477.417969 269.980469 L 451.664062 252.542969 L 425.914062 269.980469 L 438.214844 238.4375 L 410 221 "/>
<path style="fill-rule:nonzero;fill:rgb(35%,70%,90%);fill-opacity:1;stroke-width:1;stroke-linecap:butt;stroke-linejoin:miter;stroke:rgb(0%,0%,0%);stroke-opacity:1;stroke-miterlimit:10;" d="M 199 396 L 228.664062 396 L 240.664062 367.785156 L 252.664062 396 L 282.332031 396 L 258.332031 413.4375 L 266.417969 444.980469 L 240.664062 427.542969 L 214.914062 444.980469 L 227.214844 413.4375 L 199 396 "/>
<path style="fill-rule:nonzero;fill:rgb(55%,51%,53%);fill-opacity:1;stroke-width:1;stroke-linecap:butt;stroke-linejoin:miter;stroke:rgb(0%,0%,0%);stroke-opacity:1;stroke-miterlimit:10;" d="M 146 49 L 175.664062 49 L 187.664062 20.785156 L 199.664062 49 L 229.332031 49 L 205.332031 66.4375 L 213.417969 97.980469 L 187.664062 80.542969 L 161.914062 97.980469 L 174.214844 66.4375 L 146 49 "/>
<path style="fill-rule:nonzero;fill:rgb(55%,51%,53%);fill-opacity:1;stroke-width:1;stroke-linecap:butt;stroke-linejoin:miter;stroke:rgb(0%,0%,0%);stroke-opacity:1;stroke-miterlimit:10;" d="M 384.785156 330.785156 L 384.785156 373.214844 L 427.214844 373.214844 L 427.214844 330.785156 L 384.785156 330.785156 "/>
</g>
</svg>
