<?xml version="1.0" encoding="UTF-8"?>
<svg xmlns="http://www.w3.org/2000/svg" xmlns:xlink="http://www.w3.org/1999/xlink" width="1129pt" height="517pt" viewBox="0 0 1129 517" version="1.1">
<g id="surface501">
<rect x="0" y="0" width="1129" height="517" style="fill:rgb(90%,90%,90%);fill-opacity:1;stroke:none;"/>
<path style="fill-rule:nonzero;fill:rgb(100%,51%,0%);fill-opacity:1;stroke-width:1;stroke-linecap:butt;stroke-linejoin:miter;stroke:rgb(0%,0%,0%);stroke-opacity:1;stroke-miterlimit:10;" d="M 410.214844 140 C 410.214844 151.714844 400.714844 161.214844 389 161.214844 C 377.285156 161.214844 367.785156 151.714844 367.785156 140 C 367.785156 128.285156 377.285156 118.785156 389 118.785156 C 400.714844 118.785156 410.214844 128.285156 410.214844 140 "/>
<path style="fill-rule:nonzero;fill:rgb(100%,51%,0%);fill-opacity:1;stroke-width:1;stroke-linecap:butt;stroke-linejoin:miter;stroke:rgb(0%,0%,0%);stroke-opacity:1;stroke-miterlimit:10;" d="M 307.214844 443 C 307.214844 454.714844 297.714844 464.214844 286 464.214844 C 274.285156 464.214844 264.785156 454.714844 264.785156 443 C 264.785156 431.285156 274.285156 421.785156 286 421.785156 C 297.714844 421.785156 307.214844 431.285156 307.214844 443 "/>
<path style="fill-rule:nonzero;fill:rgb(100%,51%,0%);fill-opacity:1;stroke-width:1;stroke-linecap:butt;stroke-linejoin:miter;stroke:rgb(0%,0%,0%);stroke-opacity:1;stroke-miterlimit:10;" d="M 194.785156 295.785156 L 194.785156 338.214844 L 237.214844 338.214844 L 237.214844 295.785156 L 194.785156 295.785156 "/>
<path style="fill-rule:nonzero;fill:rgb(55%,51%,53%);fill-opacity:1;stroke-width:1;stroke-linecap:butt;stroke-linejoin:miter;stroke:rgb(0%,0%,0%);stroke-opacity:1;stroke-miterlimit:10;" d="M 960.785156 58.785156 L 960.785156 101.214844 L 1003.214844 101.214844 L 1003.214844 58.785156 L 960.785156 58.785156 "/>
<path style="fill-rule:nonzero;fill:rgb(55%,51%,53%);fill-opacity:1;stroke-width:1;stroke-linecap:butt;stroke-linejoin:miter;stroke:rgb(0%,0%,0%);stroke-opacity:1;stroke-miterlimit:10;" d="M 865.785156 183.785156 L 865.785156 226.214844 L 908.214844 226.214844 L 908.214844 183.785156 L 865.785156 183.785156 "/>
<path style="fill-rule:nonzero;fill:rgb(55%,51%,53%);fill-opacity:1;stroke-width:1;stroke-linecap:butt;stroke-linejoin:miter;stroke:rgb(0%,0%,0%);stroke-opacity:1;stroke-miterlimit:10;" d="M 721.214844 415 C 721.214844 426.714844 711.714844 436.214844 700 436.214844 C 688.285156 436.214844 678.785156 426.714844 678.785156 415 C 678.785156 403.285156 688.285156 393.785156 700 393.785156 C 711.714844 393.785156 721.214844 403.285156 721.214844 415 "/>
<path style="fill-rule:nonzero;fill:rgb(55%,51%,53%);fill-opacity:1;stroke-width:1;stroke-linecap:butt;stroke-linejoin:miter;stroke:rgb(0%,0%,0%);stroke-opacity:1;stroke-miterlimit:10;" d="M 814.785156 352.785156 L 814.785156 395.214844 L 857.214844 395.214844 L 857.214844 352.785156 L 814.785156 352.785156 "/>
</g>
</svg>
