<?xml version="1.0" encoding="UTF-8"?>
<svg xmlns="http://www.w3.org/2000/svg" xmlns:xlink="http://www.w3.org/1999/xlink" width="1129pt" height="517pt" viewBox="0 0 1129 517" version="1.1">
<g id="surface256">
<rect x="0" y="0" width="1129" height="517" style="fill:rgb(90%,90%,90%);fill-opacity:1;stroke:none;"/>
<path style="fill-rule:nonzero;fill:rgb(35%,70%,90%);fill-opacity:1;stroke-width:1;stroke-linecap:butt;stroke-linejoin:miter;stroke:rgb(0%,0%,0%);stroke-opacity:1;stroke-miterlimit:10;" d="M 480.214844 98 C 480.214844 109.714844 470.714844 119.214844 459 119.214844 C 447.285156 119.214844 437.785156 109.714844 437.785156 98 C 437.785156 86.285156 447.285156 76.785156 459 76.785156 C 470.714844 76.785156 480.214844 86.285156 480.214844 98 "/>
<path style="fill-rule:nonzero;fill:rgb(55%,51%,53%);fill-opacity:1;stroke-width:1;stroke-linecap:butt;stroke-linejoin:miter;stroke:rgb(0%,0%,0%);stroke-opacity:1;stroke-miterlimit:10;" d="M 258.214844 50 C 258.214844 61.714844 248.714844 71.214844 237 71.214844 C 225.285156 71.214844 215.785156 61.714844 215.785156 50 C 215.785156 38.285156 225.285156 28.785156 237 28.785156 C 248.714844 28.785156 258.214844 38.285156 258.214844 50 "/>
<path style="fill-rule:nonzero;fill:rgb(35%,70%,90%);fill-opacity:1;stroke-width:1;stroke-linecap:butt;stroke-linejoin:miter;stroke:rgb(0%,0%,0%);stroke-opacity:1;stroke-miterlimit:10;" d="M 107.214844 198 C 107.214844 209.714844 97.714844 219.214844 86 219.214844 C 74.285156 219.214844 64.785156 209.714844 64.785156 198 C 64.785156 186.285156 74.285156 176.785156 86 176.785156 C 97.714844 176.785156 107.214844 186.285156 107.214844 198 "/>
<path style="fill-rule:nonzero;fill:rgb(55%,51%,53%);fill-opacity:1;stroke-width:1;stroke-linecap:butt;stroke-linejoin:miter;stroke:rgb(0%,0%,0%);stroke-opacity:1;stroke-miterlimit:10;" d="M 268.214844 327 C 268.214844 338.714844 258.714844 348.214844 247 348.214844 C 235.285156 348.214844 225.785156 338.714844 225.785156 327 C 225.785156 315.285156 235.285156 305.785156 247 305.785156 C 258.714844 305.785156 268.214844 315.285156 268.214844 327 "/>
<path style="fill-rule:nonzero;fill:rgb(55%,51%,53%);fill-opacity:1;stroke-width:1;stroke-linecap:butt;stroke-linejoin:miter;stroke:rgb(0%,0%,0%);stroke-opacity:1;stroke-miterlimit:10;" d="M 101 341 L 75.019531 386 L 126.980469 386 L 101 341 "/>
</g>
</svg>
