<?xml version="1.0" encoding="UTF-8"?>
<svg xmlns="http://www.w3.org/2000/svg" xmlns:xlink="http://www.w3.org/1999/xlink" width="1129pt" height="517pt" viewBox="0 0 1129 517" version="1.1">
<g id="surface661">
<rect x="0" y="0" width="1129" height="517" style="fill:rgb(90%,90%,90%);fill-opacity:1;stroke:none;"/>
<path style="fill-rule:nonzero;fill:rgb(100%,51%,0%);fill-opacity:1;stroke-width:1;stroke-linecap:butt;stroke-linejoin:miter;stroke:rgb(0%,0%,0%);stroke-opacity:1;stroke-miterlimit:10;" d="M 646 359 L 675.664062 359 L 687.664062 330.785156 L 699.664062 359 L 729.332031 359 L 705.332031 376.4375 L 713.417969 407.980469 L 687.664062 390.542969 L 661.914062 407.980469 L 674.214844 376.4375 L 646 359 "/>
<path style="fill-rule:nonzero;fill:rgb(100%,51%,0%);fill-opacity:1;stroke-width:1;stroke-linecap:butt;stroke-linejoin:miter;stroke:rgb(0%,0%,0%);stroke-opacity:1;stroke-miterlimit:10;" d="M 369 66 L 398.664062 66 L 410.664062 37.785156 L 422.664062 66 L 452.332031 66 L 428.332031 83.4375 L 436.417969 114.980469 L 410.664062 97.542969 L 384.914062 114.980469 L 397.214844 83.4375 L 369 66 "/>
<path style="fill-rule:nonzero;fill:rgb(100%,51%,0%);fill-opacity:1;stroke-width:1;stroke-linecap:butt;stroke-linejoin:miter;stroke:rgb(0%,0%,0%);stroke-opacity:1;stroke-miterlimit:10;" d="M 965 138 L 994.664062 138 L 1006.664062 109.785156 L 1018.664062 138 L 1048.332031 138 L 1024.332031 155.4375 L 1032.417969 186.980469 L 1006.664062 169.542969 L 980.914062 186.980469 L 993.214844 155.4375 L 965 138 "/>
<path style="fill-rule:nonzero;fill:rgb(100%,51%,0%);fill-opacity:1;stroke-width:1;stroke-linecap:butt;stroke-linejoin:miter;stroke:rgb(0%,0%,0%);stroke-opacity:1;stroke-miterlimit:10;" d="M 44 174 L 73.664062 174 L 85.664062 145.785156 L 97.664062 174 L 127.332031 174 L 103.332031 191.4375 L 111.417969 222.980469 L 85.664062 205.542969 L 59.914062 222.980469 L 72.214844 191.4375 L 44 174 "/>
<path style="fill-rule:nonzero;fill:rgb(100%,51%,0%);fill-opacity:1;stroke-width:1;stroke-linecap:butt;stroke-linejoin:miter;stroke:rgb(0%,0%,0%);stroke-opacity:1;stroke-miterlimit:10;" d="M 275 306 L 304.664062 306 L 316.664062 277.785156 L 328.664062 306 L 358.332031 306 L 334.332031 323.4375 L 342.417969 354.980469 L 316.664062 337.542969 L 290.914062 354.980469 L 303.214844 323.4375 L 275 306 "/>
<path style="fill-rule:nonzero;fill:rgb(100%,51%,0%);fill-opacity:1;stroke-width:1;stroke-linecap:butt;stroke-linejoin:miter;stroke:rgb(0%,0%,0%);stroke-opacity:1;stroke-miterlimit:10;" d="M 106 257 L 135.664062 257 L 147.664062 228.785156 L 159.664062 257 L 189.332031 257 L 165.332031 274.4375 L 173.417969 305.980469 L 147.664062 288.542969 L 121.914062 305.980469 L 134.214844 274.4375 L 106 257 "/>
<path style="fill-rule:nonzero;fill:rgb(55%,51%,53%);fill-opacity:1;stroke-width:1;stroke-linecap:butt;stroke-linejoin:miter;stroke:rgb(0%,0%,0%);stroke-opacity:1;stroke-miterlimit:10;" d="M 406.214844 409 C 406.214844 420.714844 396.714844 430.214844 385 430.214844 C 373.285156 430.214844 363.785156 420.714844 363.785156 409 C 363.785156 397.285156 373.285156 387.785156 385 387.785156 C 396.714844 387.785156 406.214844 397.285156 406.214844 409 "/>
<path style="fill-rule:nonzero;fill:rgb(55%,51%,53%);fill-opacity:1;stroke-width:1;stroke-linecap:butt;stroke-linejoin:miter;stroke:rgb(0%,0%,0%);stroke-opacity:1;stroke-miterlimit:10;" d="M 181.214844 465 C 181.214844 476.714844 171.714844 486.214844 160 486.214844 C 148.285156 486.214844 138.785156 476.714844 138.785156 465 C 138.785156 453.285156 148.285156 443.785156 160 443.785156 C 171.714844 443.785156 181.214844 453.285156 181.214844 465 "/>
<path style="fill-rule:nonzero;fill:rgb(55%,51%,53%);fill-opacity:1;stroke-width:1;stroke-linecap:butt;stroke-linejoin:miter;stroke:rgb(0%,0%,0%);stroke-opacity:1;stroke-miterlimit:10;" d="M 692.214844 111 C 692.214844 122.714844 682.714844 132.214844 671 132.214844 C 659.285156 132.214844 649.785156 122.714844 649.785156 111 C 649.785156 99.285156 659.285156 89.785156 671 89.785156 C 682.714844 89.785156 692.214844 99.285156 692.214844 111 "/>
</g>
</svg>
