<?xml version="1.0" encoding="UTF-8"?>
<svg xmlns="http://www.w3.org/2000/svg" xmlns:xlink="http://www.w3.org/1999/xlink" width="1129pt" height="517pt" viewBox="0 0 1129 517" version="1.1">
<g id="surface421">
<rect x="0" y="0" width="1129" height="517" style="fill:rgb(90%,90%,90%);fill-opacity:1;stroke:none;"/>
<path style="fill-rule:nonzero;fill:rgb(35%,70%,90%);fill-opacity:1;stroke-width:1;stroke-linecap:butt;stroke-linejoin:miter;stroke:rgb(0%,0%,0%);stroke-opacity:1;stroke-miterlimit:10;" d="M 843 176 L 872.664062 176 L 884.664062 147.785156 L 896.664062 176 L 926.332031 176 L 902.332031 193.4375 L 910.417969 224.980469 L 884.664062 207.542969 L 858.914062 224.980469 L 871.214844 193.4375 L 843 176 "/>
<path style="fill-rule:nonzero;fill:rgb(35%,70%,90%);fill-opacity:1;stroke-width:1;stroke-linecap:butt;stroke-linejoin:miter;stroke:rgb(0%,0%,0%);stroke-opacity:1;stroke-miterlimit:10;" d="M 700 85 L 729.664062 85 L 741.664062 56.785156 L 753.664062 85 L 783.332031 85 L 759.332031 102.4375 L 767.417969 133.980469 L 741.664062 116.542969 L 715.914062 133.980469 L 728.214844 102.4375 L 700 85 "/>
<path style="fill-rule:nonzero;fill:rgb(35%,70%,90%);fill-opacity:1;stroke-width:1;stroke-linecap:butt;stroke-linejoin:miter;stroke:rgb(0%,0%,0%);stroke-opacity:1;stroke-miterlimit:10;" d="M 346 42 L 375.664062 42 L 387.664062 13.785156 L 399.664062 42 L 429.332031 42 L 405.332031 59.4375 L 413.417969 90.980469 L 387.664062 73.542969 L 361.914062 90.980469 L 374.214844 59.4375 L 346 42 "/>
<path style="fill-rule:nonzero;fill:rgb(35%,70%,90%);fill-opacity:1;stroke-width:1;stroke-linecap:butt;stroke-linejoin:miter;stroke:rgb(0%,0%,0%);stroke-opacity:1;stroke-miterlimit:10;" d="M 489 347 L 518.664062 347 L 530.664062 318.785156 L 542.664062 347 L 572.332031 347 L 548.332031 364.4375 L 556.417969 395.980469 L 530.664062 378.542969 L 504.914062 395.980469 L 517.214844 364.4375 L 489 347 "/>
<path style="fill-rule:nonzero;fill:rgb(35%,70%,90%);fill-opacity:1;stroke-width:1;stroke-linecap:butt;stroke-linejoin:miter;stroke:rgb(0%,0%,0%);stroke-opacity:1;stroke-miterlimit:10;" d="M 414 120 L 443.664062 120 L 455.664062 91.785156 L 467.664062 120 L 497.332031 120 L 473.332031 137.4375 L 481.417969 168.980469 L 455.664062 151.542969 L 429.914062 168.980469 L 442.214844 137.4375 L 414 120 "/>
<path style="fill-rule:nonzero;fill:rgb(55%,51%,53%);fill-opacity:1;stroke-width:1;stroke-linecap:butt;stroke-linejoin:miter;stroke:rgb(0%,0%,0%);stroke-opacity:1;stroke-miterlimit:10;" d="M 599.214844 411 C 599.214844 422.714844 589.714844 432.214844 578 432.214844 C 566.285156 432.214844 556.785156 422.714844 556.785156 411 C 556.785156 399.285156 566.285156 389.785156 578 389.785156 C 589.714844 389.785156 599.214844 399.285156 599.214844 411 "/>
<path style="fill-rule:nonzero;fill:rgb(55%,51%,53%);fill-opacity:1;stroke-width:1;stroke-linecap:butt;stroke-linejoin:miter;stroke:rgb(0%,0%,0%);stroke-opacity:1;stroke-miterlimit:10;" d="M 149.214844 186 C 149.214844 197.714844 139.714844 207.214844 128 207.214844 C 116.285156 207.214844 106.785156 197.714844 106.785156 186 C 106.785156 174.285156 116.285156 164.785156 128 164.785156 C 139.714844 164.785156 149.214844 174.285156 149.214844 186 "/>
<path style="fill-rule:nonzero;fill:rgb(55%,51%,53%);fill-opacity:1;stroke-width:1;stroke-linecap:butt;stroke-linejoin:miter;stroke:rgb(0%,0%,0%);stroke-opacity:1;stroke-miterlimit:10;" d="M 222.214844 293 C 222.214844 304.714844 212.714844 314.214844 201 314.214844 C 189.285156 314.214844 179.785156 304.714844 179.785156 293 C 179.785156 281.285156 189.285156 271.785156 201 271.785156 C 212.714844 271.785156 222.214844 281.285156 222.214844 293 "/>
<path style="fill-rule:nonzero;fill:rgb(55%,51%,53%);fill-opacity:1;stroke-width:1;stroke-linecap:butt;stroke-linejoin:miter;stroke:rgb(0%,0%,0%);stroke-opacity:1;stroke-miterlimit:10;" d="M 175.214844 431 C 175.214844 442.714844 165.714844 452.214844 154 452.214844 C 142.285156 452.214844 132.785156 442.714844 132.785156 431 C 132.785156 419.285156 142.285156 409.785156 154 409.785156 C 165.714844 409.785156 175.214844 419.285156 175.214844 431 "/>
<path style="fill-rule:nonzero;fill:rgb(55%,51%,53%);fill-opacity:1;stroke-width:1;stroke-linecap:butt;stroke-linejoin:miter;stroke:rgb(0%,0%,0%);stroke-opacity:1;stroke-miterlimit:10;" d="M 679.214844 288 C 679.214844 299.714844 669.714844 309.214844 658 309.214844 C 646.285156 309.214844 636.785156 299.714844 636.785156 288 C 636.785156 276.285156 646.285156 266.785156 658 266.785156 C 669.714844 266.785156 679.214844 276.285156 679.214844 288 "/>
<path style="fill-rule:nonzero;fill:rgb(55%,51%,53%);fill-opacity:1;stroke-width:1;stroke-linecap:butt;stroke-linejoin:miter;stroke:rgb(0%,0%,0%);stroke-opacity:1;stroke-miterlimit:10;" d="M 842.214844 316 C 842.214844 327.714844 832.714844 337.214844 821 337.214844 C 809.285156 337.214844 799.785156 327.714844 799.785156 316 C 799.785156 304.285156 809.285156 294.785156 821 294.785156 C 832.714844 294.785156 842.214844 304.285156 842.214844 316 "/>
</g>
</svg>
