<?xml version="1.0" encoding="UTF-8"?>
<svg xmlns="http://www.w3.org/2000/svg" xmlns:xlink="http://www.w3.org/1999/xlink" width="1129pt" height="517pt" viewBox="0 0 1129 517" version="1.1">
<g id="surface651">
<rect x="0" y="0" width="1129" height="517" style="fill:rgb(90%,90%,90%);fill-opacity:1;stroke:none;"/>
<path style="fill-rule:nonzero;fill:rgb(100%,51%,0%);fill-opacity:1;stroke-width:1;stroke-linecap:butt;stroke-linejoin:miter;stroke:rgb(0%,0%,0%);stroke-opacity:1;stroke-miterlimit:10;" d="M 320.214844 407 C 320.214844 418.714844 310.714844 428.214844 299 428.214844 C 287.285156 428.214844 277.785156 418.714844 277.785156 407 C 277.785156 395.285156 287.285156 385.785156 299 385.785156 C 310.714844 385.785156 320.214844 395.285156 320.214844 407 "/>
<path style="fill-rule:nonzero;fill:rgb(53%,27%,7%);fill-opacity:1;stroke-width:1;stroke-linecap:butt;stroke-linejoin:miter;stroke:rgb(0%,0%,0%);stroke-opacity:1;stroke-miterlimit:10;" d="M 402.214844 247 C 402.214844 258.714844 392.714844 268.214844 381 268.214844 C 369.285156 268.214844 359.785156 258.714844 359.785156 247 C 359.785156 235.285156 369.285156 225.785156 381 225.785156 C 392.714844 225.785156 402.214844 235.285156 402.214844 247 "/>
<path style="fill-rule:nonzero;fill:rgb(53%,27%,7%);fill-opacity:1;stroke-width:1;stroke-linecap:butt;stroke-linejoin:miter;stroke:rgb(0%,0%,0%);stroke-opacity:1;stroke-miterlimit:10;" d="M 368.214844 146 C 368.214844 157.714844 358.714844 167.214844 347 167.214844 C 335.285156 167.214844 325.785156 157.714844 325.785156 146 C 325.785156 134.285156 335.285156 124.785156 347 124.785156 C 358.714844 124.785156 368.214844 134.285156 368.214844 146 "/>
<path style="fill-rule:nonzero;fill:rgb(100%,51%,0%);fill-opacity:1;stroke-width:1;stroke-linecap:butt;stroke-linejoin:miter;stroke:rgb(0%,0%,0%);stroke-opacity:1;stroke-miterlimit:10;" d="M 458.214844 52 C 458.214844 63.714844 448.714844 73.214844 437 73.214844 C 425.285156 73.214844 415.785156 63.714844 415.785156 52 C 415.785156 40.285156 425.285156 30.785156 437 30.785156 C 448.714844 30.785156 458.214844 40.285156 458.214844 52 "/>
<path style="fill-rule:nonzero;fill:rgb(100%,51%,0%);fill-opacity:1;stroke-width:1;stroke-linecap:butt;stroke-linejoin:miter;stroke:rgb(0%,0%,0%);stroke-opacity:1;stroke-miterlimit:10;" d="M 421.214844 429 C 421.214844 440.714844 411.714844 450.214844 400 450.214844 C 388.285156 450.214844 378.785156 440.714844 378.785156 429 C 378.785156 417.285156 388.285156 407.785156 400 407.785156 C 411.714844 407.785156 421.214844 417.285156 421.214844 429 "/>
<path style="fill-rule:nonzero;fill:rgb(100%,51%,0%);fill-opacity:1;stroke-width:1;stroke-linecap:butt;stroke-linejoin:miter;stroke:rgb(0%,0%,0%);stroke-opacity:1;stroke-miterlimit:10;" d="M 470.214844 153 C 470.214844 164.714844 460.714844 174.214844 449 174.214844 C 437.285156 174.214844 427.785156 164.714844 427.785156 153 C 427.785156 141.285156 437.285156 131.785156 449 131.785156 C 460.714844 131.785156 470.214844 141.285156 470.214844 153 "/>
<path style="fill-rule:nonzero;fill:rgb(100%,51%,0%);fill-opacity:1;stroke-width:1;stroke-linecap:butt;stroke-linejoin:miter;stroke:rgb(0%,0%,0%);stroke-opacity:1;stroke-miterlimit:10;" d="M 202.214844 83 C 202.214844 94.714844 192.714844 104.214844 181 104.214844 C 169.285156 104.214844 159.785156 94.714844 159.785156 83 C 159.785156 71.285156 169.285156 61.785156 181 61.785156 C 192.714844 61.785156 202.214844 71.285156 202.214844 83 "/>
<path style="fill-rule:nonzero;fill:rgb(100%,51%,0%);fill-opacity:1;stroke-width:1;stroke-linecap:butt;stroke-linejoin:miter;stroke:rgb(0%,0%,0%);stroke-opacity:1;stroke-miterlimit:10;" d="M 99.214844 167 C 99.214844 178.714844 89.714844 188.214844 78 188.214844 C 66.285156 188.214844 56.785156 178.714844 56.785156 167 C 56.785156 155.285156 66.285156 145.785156 78 145.785156 C 89.714844 145.785156 99.214844 155.285156 99.214844 167 "/>
<path style="fill-rule:nonzero;fill:rgb(53%,27%,7%);fill-opacity:1;stroke-width:1;stroke-linecap:butt;stroke-linejoin:miter;stroke:rgb(0%,0%,0%);stroke-opacity:1;stroke-miterlimit:10;" d="M 630.785156 299.785156 L 630.785156 342.214844 L 673.214844 342.214844 L 673.214844 299.785156 L 630.785156 299.785156 "/>
<path style="fill-rule:nonzero;fill:rgb(100%,51%,0%);fill-opacity:1;stroke-width:1;stroke-linecap:butt;stroke-linejoin:miter;stroke:rgb(0%,0%,0%);stroke-opacity:1;stroke-miterlimit:10;" d="M 958.785156 170.785156 L 958.785156 213.214844 L 1001.214844 213.214844 L 1001.214844 170.785156 L 958.785156 170.785156 "/>
<path style="fill-rule:nonzero;fill:rgb(100%,51%,0%);fill-opacity:1;stroke-width:1;stroke-linecap:butt;stroke-linejoin:miter;stroke:rgb(0%,0%,0%);stroke-opacity:1;stroke-miterlimit:10;" d="M 876.785156 448.785156 L 876.785156 491.214844 L 919.214844 491.214844 L 919.214844 448.785156 L 876.785156 448.785156 "/>
<path style="fill-rule:nonzero;fill:rgb(53%,27%,7%);fill-opacity:1;stroke-width:1;stroke-linecap:butt;stroke-linejoin:miter;stroke:rgb(0%,0%,0%);stroke-opacity:1;stroke-miterlimit:10;" d="M 599.785156 177.785156 L 599.785156 220.214844 L 642.214844 220.214844 L 642.214844 177.785156 L 599.785156 177.785156 "/>
<path style="fill-rule:nonzero;fill:rgb(53%,27%,7%);fill-opacity:1;stroke-width:1;stroke-linecap:butt;stroke-linejoin:miter;stroke:rgb(0%,0%,0%);stroke-opacity:1;stroke-miterlimit:10;" d="M 878.785156 239.785156 L 878.785156 282.214844 L 921.214844 282.214844 L 921.214844 239.785156 L 878.785156 239.785156 "/>
<path style="fill-rule:nonzero;fill:rgb(53%,27%,7%);fill-opacity:1;stroke-width:1;stroke-linecap:butt;stroke-linejoin:miter;stroke:rgb(0%,0%,0%);stroke-opacity:1;stroke-miterlimit:10;" d="M 752.785156 134.785156 L 752.785156 177.214844 L 795.214844 177.214844 L 795.214844 134.785156 L 752.785156 134.785156 "/>
<path style="fill-rule:nonzero;fill:rgb(53%,27%,7%);fill-opacity:1;stroke-width:1;stroke-linecap:butt;stroke-linejoin:miter;stroke:rgb(0%,0%,0%);stroke-opacity:1;stroke-miterlimit:10;" d="M 985.785156 260.785156 L 985.785156 303.214844 L 1028.214844 303.214844 L 1028.214844 260.785156 L 985.785156 260.785156 "/>
</g>
</svg>
