<?xml version="1.0" encoding="UTF-8"?>
<svg xmlns="http://www.w3.org/2000/svg" xmlns:xlink="http://www.w3.org/1999/xlink" width="1129pt" height="517pt" viewBox="0 0 1129 517" version="1.1">
<g id="surface396">
<rect x="0" y="0" width="1129" height="517" style="fill:rgb(90%,90%,90%);fill-opacity:1;stroke:none;"/>
<path style="fill-rule:nonzero;fill:rgb(35%,70%,90%);fill-opacity:1;stroke-width:1;stroke-linecap:butt;stroke-linejoin:miter;stroke:rgb(0%,0%,0%);stroke-opacity:1;stroke-miterlimit:10;" d="M 793 123 L 822.664062 123 L 834.664062 94.785156 L 846.664062 123 L 876.332031 123 L 852.332031 140.4375 L 860.417969 171.980469 L 834.664062 154.542969 L 808.914062 171.980469 L 821.214844 140.4375 L 793 123 "/>
<path style="fill-rule:nonzero;fill:rgb(35%,70%,90%);fill-opacity:1;stroke-width:1;stroke-linecap:butt;stroke-linejoin:miter;stroke:rgb(0%,0%,0%);stroke-opacity:1;stroke-miterlimit:10;" d="M 441 135 L 470.664062 135 L 482.664062 106.785156 L 494.664062 135 L 524.332031 135 L 500.332031 152.4375 L 508.417969 183.980469 L 482.664062 166.542969 L 456.914062 183.980469 L 469.214844 152.4375 L 441 135 "/>
<path style="fill-rule:nonzero;fill:rgb(35%,70%,90%);fill-opacity:1;stroke-width:1;stroke-linecap:butt;stroke-linejoin:miter;stroke:rgb(0%,0%,0%);stroke-opacity:1;stroke-miterlimit:10;" d="M 326 91 L 355.664062 91 L 367.664062 62.785156 L 379.664062 91 L 409.332031 91 L 385.332031 108.4375 L 393.417969 139.980469 L 367.664062 122.542969 L 341.914062 139.980469 L 354.214844 108.4375 L 326 91 "/>
<path style="fill-rule:nonzero;fill:rgb(35%,70%,90%);fill-opacity:1;stroke-width:1;stroke-linecap:butt;stroke-linejoin:miter;stroke:rgb(0%,0%,0%);stroke-opacity:1;stroke-miterlimit:10;" d="M 47 330 L 76.664062 330 L 88.664062 301.785156 L 100.664062 330 L 130.332031 330 L 106.332031 347.4375 L 114.417969 378.980469 L 88.664062 361.542969 L 62.914062 378.980469 L 75.214844 347.4375 L 47 330 "/>
<path style="fill-rule:nonzero;fill:rgb(35%,70%,90%);fill-opacity:1;stroke-width:1;stroke-linecap:butt;stroke-linejoin:miter;stroke:rgb(0%,0%,0%);stroke-opacity:1;stroke-miterlimit:10;" d="M 642 335 L 671.664062 335 L 683.664062 306.785156 L 695.664062 335 L 725.332031 335 L 701.332031 352.4375 L 709.417969 383.980469 L 683.664062 366.542969 L 657.914062 383.980469 L 670.214844 352.4375 L 642 335 "/>
<path style="fill-rule:nonzero;fill:rgb(35%,70%,90%);fill-opacity:1;stroke-width:1;stroke-linecap:butt;stroke-linejoin:miter;stroke:rgb(0%,0%,0%);stroke-opacity:1;stroke-miterlimit:10;" d="M 763 282 L 792.664062 282 L 804.664062 253.785156 L 816.664062 282 L 846.332031 282 L 822.332031 299.4375 L 830.417969 330.980469 L 804.664062 313.542969 L 778.914062 330.980469 L 791.214844 299.4375 L 763 282 "/>
<path style="fill-rule:nonzero;fill:rgb(53%,27%,7%);fill-opacity:1;stroke-width:1;stroke-linecap:butt;stroke-linejoin:miter;stroke:rgb(0%,0%,0%);stroke-opacity:1;stroke-miterlimit:10;" d="M 929 227 L 903.019531 272 L 954.980469 272 L 929 227 "/>
<path style="fill-rule:nonzero;fill:rgb(53%,27%,7%);fill-opacity:1;stroke-width:1;stroke-linecap:butt;stroke-linejoin:miter;stroke:rgb(0%,0%,0%);stroke-opacity:1;stroke-miterlimit:10;" d="M 982 355 L 956.019531 400 L 1007.980469 400 L 982 355 "/>
<path style="fill-rule:nonzero;fill:rgb(53%,27%,7%);fill-opacity:1;stroke-width:1;stroke-linecap:butt;stroke-linejoin:miter;stroke:rgb(0%,0%,0%);stroke-opacity:1;stroke-miterlimit:10;" d="M 564 259 L 538.019531 304 L 589.980469 304 L 564 259 "/>
<path style="fill-rule:nonzero;fill:rgb(53%,27%,7%);fill-opacity:1;stroke-width:1;stroke-linecap:butt;stroke-linejoin:miter;stroke:rgb(0%,0%,0%);stroke-opacity:1;stroke-miterlimit:10;" d="M 92 51 L 66.019531 96 L 117.980469 96 L 92 51 "/>
<path style="fill-rule:nonzero;fill:rgb(53%,27%,7%);fill-opacity:1;stroke-width:1;stroke-linecap:butt;stroke-linejoin:miter;stroke:rgb(0%,0%,0%);stroke-opacity:1;stroke-miterlimit:10;" d="M 973 73 L 947.019531 118 L 998.980469 118 L 973 73 "/>
<path style="fill-rule:nonzero;fill:rgb(53%,27%,7%);fill-opacity:1;stroke-width:1;stroke-linecap:butt;stroke-linejoin:miter;stroke:rgb(0%,0%,0%);stroke-opacity:1;stroke-miterlimit:10;" d="M 152 162 L 126.019531 207 L 177.980469 207 L 152 162 "/>
<path style="fill-rule:nonzero;fill:rgb(53%,27%,7%);fill-opacity:1;stroke-width:1;stroke-linecap:butt;stroke-linejoin:miter;stroke:rgb(0%,0%,0%);stroke-opacity:1;stroke-miterlimit:10;" d="M 665 123 L 639.019531 168 L 690.980469 168 L 665 123 "/>
<path style="fill-rule:nonzero;fill:rgb(53%,27%,7%);fill-opacity:1;stroke-width:1;stroke-linecap:butt;stroke-linejoin:miter;stroke:rgb(0%,0%,0%);stroke-opacity:1;stroke-miterlimit:10;" d="M 807 383 L 781.019531 428 L 832.980469 428 L 807 383 "/>
</g>
</svg>
