<?xml version="1.0" encoding="UTF-8"?>
<svg xmlns="http://www.w3.org/2000/svg" xmlns:xlink="http://www.w3.org/1999/xlink" width="1129pt" height="517pt" viewBox="0 0 1129 517" version="1.1">
<g id="surface36">
<rect x="0" y="0" width="1129" height="517" style="fill:rgb(90%,90%,90%);fill-opacity:1;stroke:none;"/>
<path style="fill-rule:nonzero;fill:rgb(100%,51%,0%);fill-opacity:1;stroke-width:1;stroke-linecap:butt;stroke-linejoin:miter;stroke:rgb(0%,0%,0%);stroke-opacity:1;stroke-miterlimit:10;" d="M 972 454 L 952 454 L 952 464 L 972 464 L 972 484 L 982 484 L 982 464 L 1002 464 L 1002 454 L 982 454 L 982 434 L 972 434 L 972 454 "/>
<path style="fill-rule:nonzero;fill:rgb(100%,51%,0%);fill-opacity:1;stroke-width:1;stroke-linecap:butt;stroke-linejoin:miter;stroke:rgb(0%,0%,0%);stroke-opacity:1;stroke-miterlimit:10;" d="M 766 240 L 746 240 L 746 250 L 766 250 L 766 270 L 776 270 L 776 250 L 796 250 L 796 240 L 776 240 L 776 220 L 766 220 L 766 240 "/>
<path style="fill-rule:nonzero;fill:rgb(100%,51%,0%);fill-opacity:1;stroke-width:1;stroke-linecap:butt;stroke-linejoin:miter;stroke:rgb(0%,0%,0%);stroke-opacity:1;stroke-miterlimit:10;" d="M 63 373 L 43 373 L 43 383 L 63 383 L 63 403 L 73 403 L 73 383 L 93 383 L 93 373 L 73 373 L 73 353 L 63 353 L 63 373 "/>
<path style="fill-rule:nonzero;fill:rgb(100%,51%,0%);fill-opacity:1;stroke-width:1;stroke-linecap:butt;stroke-linejoin:miter;stroke:rgb(0%,0%,0%);stroke-opacity:1;stroke-miterlimit:10;" d="M 298 215 L 278 215 L 278 225 L 298 225 L 298 245 L 308 245 L 308 225 L 328 225 L 328 215 L 308 215 L 308 195 L 298 195 L 298 215 "/>
<path style="fill-rule:nonzero;fill:rgb(100%,51%,0%);fill-opacity:1;stroke-width:1;stroke-linecap:butt;stroke-linejoin:miter;stroke:rgb(0%,0%,0%);stroke-opacity:1;stroke-miterlimit:10;" d="M 182 387 L 162 387 L 162 397 L 182 397 L 182 417 L 192 417 L 192 397 L 212 397 L 212 387 L 192 387 L 192 367 L 182 367 L 182 387 "/>
<path style="fill-rule:nonzero;fill:rgb(100%,51%,0%);fill-opacity:1;stroke-width:1;stroke-linecap:butt;stroke-linejoin:miter;stroke:rgb(0%,0%,0%);stroke-opacity:1;stroke-miterlimit:10;" d="M 520 89 L 500 89 L 500 99 L 520 99 L 520 119 L 530 119 L 530 99 L 550 99 L 550 89 L 530 89 L 530 69 L 520 69 L 520 89 "/>
</g>
</svg>
