<?xml version="1.0" encoding="UTF-8"?>
<svg xmlns="http://www.w3.org/2000/svg" xmlns:xlink="http://www.w3.org/1999/xlink" width="1129pt" height="517pt" viewBox="0 0 1129 517" version="1.1">
<g id="surface621">
<rect x="0" y="0" width="1129" height="517" style="fill:rgb(90%,90%,90%);fill-opacity:1;stroke:none;"/>
<path style="fill-rule:nonzero;fill:rgb(35%,70%,90%);fill-opacity:1;stroke-width:1;stroke-linecap:butt;stroke-linejoin:miter;stroke:rgb(0%,0%,0%);stroke-opacity:1;stroke-miterlimit:10;" d="M 61.214844 75 C 61.214844 86.714844 51.714844 96.214844 40 96.214844 C 28.285156 96.214844 18.785156 86.714844 18.785156 75 C 18.785156 63.285156 28.285156 53.785156 40 53.785156 C 51.714844 53.785156 61.214844 63.285156 61.214844 75 "/>
<path style="fill-rule:nonzero;fill:rgb(55%,51%,53%);fill-opacity:1;stroke-width:1;stroke-linecap:butt;stroke-linejoin:miter;stroke:rgb(0%,0%,0%);stroke-opacity:1;stroke-miterlimit:10;" d="M 340.214844 425 C 340.214844 436.714844 330.714844 446.214844 319 446.214844 C 307.285156 446.214844 297.785156 436.714844 297.785156 425 C 297.785156 413.285156 307.285156 403.785156 319 403.785156 C 330.714844 403.785156 340.214844 413.285156 340.214844 425 "/>
<path style="fill-rule:nonzero;fill:rgb(55%,51%,53%);fill-opacity:1;stroke-width:1;stroke-linecap:butt;stroke-linejoin:miter;stroke:rgb(0%,0%,0%);stroke-opacity:1;stroke-miterlimit:10;" d="M 480.214844 463 C 480.214844 474.714844 470.714844 484.214844 459 484.214844 C 447.285156 484.214844 437.785156 474.714844 437.785156 463 C 437.785156 451.285156 447.285156 441.785156 459 441.785156 C 470.714844 441.785156 480.214844 451.285156 480.214844 463 "/>
<path style="fill-rule:nonzero;fill:rgb(35%,70%,90%);fill-opacity:1;stroke-width:1;stroke-linecap:butt;stroke-linejoin:miter;stroke:rgb(0%,0%,0%);stroke-opacity:1;stroke-miterlimit:10;" d="M 226.214844 327 C 226.214844 338.714844 216.714844 348.214844 205 348.214844 C 193.285156 348.214844 183.785156 338.714844 183.785156 327 C 183.785156 315.285156 193.285156 305.785156 205 305.785156 C 216.714844 305.785156 226.214844 315.285156 226.214844 327 "/>
<path style="fill-rule:nonzero;fill:rgb(35%,70%,90%);fill-opacity:1;stroke-width:1;stroke-linecap:butt;stroke-linejoin:miter;stroke:rgb(0%,0%,0%);stroke-opacity:1;stroke-miterlimit:10;" d="M 306.214844 182 C 306.214844 193.714844 296.714844 203.214844 285 203.214844 C 273.285156 203.214844 263.785156 193.714844 263.785156 182 C 263.785156 170.285156 273.285156 160.785156 285 160.785156 C 296.714844 160.785156 306.214844 170.285156 306.214844 182 "/>
<path style="fill-rule:nonzero;fill:rgb(35%,70%,90%);fill-opacity:1;stroke-width:1;stroke-linecap:butt;stroke-linejoin:miter;stroke:rgb(0%,0%,0%);stroke-opacity:1;stroke-miterlimit:10;" d="M 477.214844 262 C 477.214844 273.714844 467.714844 283.214844 456 283.214844 C 444.285156 283.214844 434.785156 273.714844 434.785156 262 C 434.785156 250.285156 444.285156 240.785156 456 240.785156 C 467.714844 240.785156 477.214844 250.285156 477.214844 262 "/>
<path style="fill-rule:nonzero;fill:rgb(55%,51%,53%);fill-opacity:1;stroke-width:1;stroke-linecap:butt;stroke-linejoin:miter;stroke:rgb(0%,0%,0%);stroke-opacity:1;stroke-miterlimit:10;" d="M 835.785156 335.785156 L 835.785156 378.214844 L 878.214844 378.214844 L 878.214844 335.785156 L 835.785156 335.785156 "/>
<path style="fill-rule:nonzero;fill:rgb(35%,70%,90%);fill-opacity:1;stroke-width:1;stroke-linecap:butt;stroke-linejoin:miter;stroke:rgb(0%,0%,0%);stroke-opacity:1;stroke-miterlimit:10;" d="M 790.785156 246.785156 L 790.785156 289.214844 L 833.214844 289.214844 L 833.214844 246.785156 L 790.785156 246.785156 "/>
<path style="fill-rule:nonzero;fill:rgb(35%,70%,90%);fill-opacity:1;stroke-width:1;stroke-linecap:butt;stroke-linejoin:miter;stroke:rgb(0%,0%,0%);stroke-opacity:1;stroke-miterlimit:10;" d="M 612.785156 368.785156 L 612.785156 411.214844 L 655.214844 411.214844 L 655.214844 368.785156 L 612.785156 368.785156 "/>
<path style="fill-rule:nonzero;fill:rgb(55%,51%,53%);fill-opacity:1;stroke-width:1;stroke-linecap:butt;stroke-linejoin:miter;stroke:rgb(0%,0%,0%);stroke-opacity:1;stroke-miterlimit:10;" d="M 641.785156 265.785156 L 641.785156 308.214844 L 684.214844 308.214844 L 684.214844 265.785156 L 641.785156 265.785156 "/>
<path style="fill-rule:nonzero;fill:rgb(55%,51%,53%);fill-opacity:1;stroke-width:1;stroke-linecap:butt;stroke-linejoin:miter;stroke:rgb(0%,0%,0%);stroke-opacity:1;stroke-miterlimit:10;" d="M 725.785156 414.785156 L 725.785156 457.214844 L 768.214844 457.214844 L 768.214844 414.785156 L 725.785156 414.785156 "/>
<path style="fill-rule:nonzero;fill:rgb(55%,51%,53%);fill-opacity:1;stroke-width:1;stroke-linecap:butt;stroke-linejoin:miter;stroke:rgb(0%,0%,0%);stroke-opacity:1;stroke-miterlimit:10;" d="M 862.785156 138.785156 L 862.785156 181.214844 L 905.214844 181.214844 L 905.214844 138.785156 L 862.785156 138.785156 "/>
<path style="fill-rule:nonzero;fill:rgb(55%,51%,53%);fill-opacity:1;stroke-width:1;stroke-linecap:butt;stroke-linejoin:miter;stroke:rgb(0%,0%,0%);stroke-opacity:1;stroke-miterlimit:10;" d="M 700.785156 142.785156 L 700.785156 185.214844 L 743.214844 185.214844 L 743.214844 142.785156 L 700.785156 142.785156 "/>
</g>
</svg>
