<?xml version="1.0" encoding="UTF-8"?>
<svg xmlns="http://www.w3.org/2000/svg" xmlns:xlink="http://www.w3.org/1999/xlink" width="1129pt" height="517pt" viewBox="0 0 1129 517" version="1.1">
<g id="surface16">
<rect x="0" y="0" width="1129" height="517" style="fill:rgb(90%,90%,90%);fill-opacity:1;stroke:none;"/>
<path style="fill-rule:nonzero;fill:rgb(35%,70%,90%);fill-opacity:1;stroke-width:1;stroke-linecap:butt;stroke-linejoin:miter;stroke:rgb(0%,0%,0%);stroke-opacity:1;stroke-miterlimit:10;" d="M 278.214844 108 C 278.214844 119.714844 268.714844 129.214844 257 129.214844 C 245.285156 129.214844 235.785156 119.714844 235.785156 108 C 235.785156 96.285156 245.285156 86.785156 257 86.785156 C 268.714844 86.785156 278.214844 96.285156 278.214844 108 "/>
<path style="fill-rule:nonzero;fill:rgb(35%,70%,90%);fill-opacity:1;stroke-width:1;stroke-linecap:butt;stroke-linejoin:miter;stroke:rgb(0%,0%,0%);stroke-opacity:1;stroke-miterlimit:10;" d="M 399.214844 310 C 399.214844 321.714844 389.714844 331.214844 378 331.214844 C 366.285156 331.214844 356.785156 321.714844 356.785156 310 C 356.785156 298.285156 366.285156 288.785156 378 288.785156 C 389.714844 288.785156 399.214844 298.285156 399.214844 310 "/>
<path style="fill-rule:nonzero;fill:rgb(35%,70%,90%);fill-opacity:1;stroke-width:1;stroke-linecap:butt;stroke-linejoin:miter;stroke:rgb(0%,0%,0%);stroke-opacity:1;stroke-miterlimit:10;" d="M 422.214844 96 C 422.214844 107.714844 412.714844 117.214844 401 117.214844 C 389.285156 117.214844 379.785156 107.714844 379.785156 96 C 379.785156 84.285156 389.285156 74.785156 401 74.785156 C 412.714844 74.785156 422.214844 84.285156 422.214844 96 "/>
<path style="fill-rule:nonzero;fill:rgb(35%,70%,90%);fill-opacity:1;stroke-width:1;stroke-linecap:butt;stroke-linejoin:miter;stroke:rgb(0%,0%,0%);stroke-opacity:1;stroke-miterlimit:10;" d="M 113 397 L 87.019531 442 L 138.980469 442 L 113 397 "/>
<path style="fill-rule:nonzero;fill:rgb(100%,51%,0%);fill-opacity:1;stroke-width:1;stroke-linecap:butt;stroke-linejoin:miter;stroke:rgb(0%,0%,0%);stroke-opacity:1;stroke-miterlimit:10;" d="M 721 64 L 695.019531 109 L 746.980469 109 L 721 64 "/>
<path style="fill-rule:nonzero;fill:rgb(100%,51%,0%);fill-opacity:1;stroke-width:1;stroke-linecap:butt;stroke-linejoin:miter;stroke:rgb(0%,0%,0%);stroke-opacity:1;stroke-miterlimit:10;" d="M 1025 127 L 999.019531 172 L 1050.980469 172 L 1025 127 "/>
<path style="fill-rule:nonzero;fill:rgb(100%,51%,0%);fill-opacity:1;stroke-width:1;stroke-linecap:butt;stroke-linejoin:miter;stroke:rgb(0%,0%,0%);stroke-opacity:1;stroke-miterlimit:10;" d="M 831 178 L 805.019531 223 L 856.980469 223 L 831 178 "/>
<path style="fill-rule:nonzero;fill:rgb(100%,51%,0%);fill-opacity:1;stroke-width:1;stroke-linecap:butt;stroke-linejoin:miter;stroke:rgb(0%,0%,0%);stroke-opacity:1;stroke-miterlimit:10;" d="M 627.214844 208 C 627.214844 219.714844 617.714844 229.214844 606 229.214844 C 594.285156 229.214844 584.785156 219.714844 584.785156 208 C 584.785156 196.285156 594.285156 186.785156 606 186.785156 C 617.714844 186.785156 627.214844 196.285156 627.214844 208 "/>
<path style="fill-rule:nonzero;fill:rgb(100%,51%,0%);fill-opacity:1;stroke-width:1;stroke-linecap:butt;stroke-linejoin:miter;stroke:rgb(0%,0%,0%);stroke-opacity:1;stroke-miterlimit:10;" d="M 812 388 L 786.019531 433 L 837.980469 433 L 812 388 "/>
</g>
</svg>
