<?xml version="1.0" encoding="UTF-8"?>
<svg xmlns="http://www.w3.org/2000/svg" xmlns:xlink="http://www.w3.org/1999/xlink" width="1129pt" height="517pt" viewBox="0 0 1129 517" version="1.1">
<g id="surface521">
<rect x="0" y="0" width="1129" height="517" style="fill:rgb(90%,90%,90%);fill-opacity:1;stroke:none;"/>
<path style="fill-rule:nonzero;fill:rgb(55%,51%,53%);fill-opacity:1;stroke-width:1;stroke-linecap:butt;stroke-linejoin:miter;stroke:rgb(0%,0%,0%);stroke-opacity:1;stroke-miterlimit:10;" d="M 358 213 L 387.664062 213 L 399.664062 184.785156 L 411.664062 213 L 441.332031 213 L 417.332031 230.4375 L 425.417969 261.980469 L 399.664062 244.542969 L 373.914062 261.980469 L 386.214844 230.4375 L 358 213 "/>
<path style="fill-rule:nonzero;fill:rgb(55%,51%,53%);fill-opacity:1;stroke-width:1;stroke-linecap:butt;stroke-linejoin:miter;stroke:rgb(0%,0%,0%);stroke-opacity:1;stroke-miterlimit:10;" d="M 255.785156 372.785156 L 255.785156 415.214844 L 298.214844 415.214844 L 298.214844 372.785156 L 255.785156 372.785156 "/>
<path style="fill-rule:nonzero;fill:rgb(55%,51%,53%);fill-opacity:1;stroke-width:1;stroke-linecap:butt;stroke-linejoin:miter;stroke:rgb(0%,0%,0%);stroke-opacity:1;stroke-miterlimit:10;" d="M 163.785156 176.785156 L 163.785156 219.214844 L 206.214844 219.214844 L 206.214844 176.785156 L 163.785156 176.785156 "/>
<path style="fill-rule:nonzero;fill:rgb(55%,51%,53%);fill-opacity:1;stroke-width:1;stroke-linecap:butt;stroke-linejoin:miter;stroke:rgb(0%,0%,0%);stroke-opacity:1;stroke-miterlimit:10;" d="M 129 324 L 158.664062 324 L 170.664062 295.785156 L 182.664062 324 L 212.332031 324 L 188.332031 341.4375 L 196.417969 372.980469 L 170.664062 355.542969 L 144.914062 372.980469 L 157.214844 341.4375 L 129 324 "/>
<path style="fill-rule:nonzero;fill:rgb(55%,51%,53%);fill-opacity:1;stroke-width:1;stroke-linecap:butt;stroke-linejoin:miter;stroke:rgb(0%,0%,0%);stroke-opacity:1;stroke-miterlimit:10;" d="M 81 139 L 110.664062 139 L 122.664062 110.785156 L 134.664062 139 L 164.332031 139 L 140.332031 156.4375 L 148.417969 187.980469 L 122.664062 170.542969 L 96.914062 187.980469 L 109.214844 156.4375 L 81 139 "/>
<path style="fill-rule:nonzero;fill:rgb(55%,51%,53%);fill-opacity:1;stroke-width:1;stroke-linecap:butt;stroke-linejoin:miter;stroke:rgb(0%,0%,0%);stroke-opacity:1;stroke-miterlimit:10;" d="M 248 74 L 277.664062 74 L 289.664062 45.785156 L 301.664062 74 L 331.332031 74 L 307.332031 91.4375 L 315.417969 122.980469 L 289.664062 105.542969 L 263.914062 122.980469 L 276.214844 91.4375 L 248 74 "/>
<path style="fill-rule:nonzero;fill:rgb(55%,51%,53%);fill-opacity:1;stroke-width:1;stroke-linecap:butt;stroke-linejoin:miter;stroke:rgb(0%,0%,0%);stroke-opacity:1;stroke-miterlimit:10;" d="M 297 290 L 326.664062 290 L 338.664062 261.785156 L 350.664062 290 L 380.332031 290 L 356.332031 307.4375 L 364.417969 338.980469 L 338.664062 321.542969 L 312.914062 338.980469 L 325.214844 307.4375 L 297 290 "/>
<path style="fill-rule:nonzero;fill:rgb(53%,27%,7%);fill-opacity:1;stroke-width:1;stroke-linecap:butt;stroke-linejoin:miter;stroke:rgb(0%,0%,0%);stroke-opacity:1;stroke-miterlimit:10;" d="M 776.785156 74.785156 L 776.785156 117.214844 L 819.214844 117.214844 L 819.214844 74.785156 L 776.785156 74.785156 "/>
<path style="fill-rule:nonzero;fill:rgb(53%,27%,7%);fill-opacity:1;stroke-width:1;stroke-linecap:butt;stroke-linejoin:miter;stroke:rgb(0%,0%,0%);stroke-opacity:1;stroke-miterlimit:10;" d="M 792 379 L 821.664062 379 L 833.664062 350.785156 L 845.664062 379 L 875.332031 379 L 851.332031 396.4375 L 859.417969 427.980469 L 833.664062 410.542969 L 807.914062 427.980469 L 820.214844 396.4375 L 792 379 "/>
<path style="fill-rule:nonzero;fill:rgb(53%,27%,7%);fill-opacity:1;stroke-width:1;stroke-linecap:butt;stroke-linejoin:miter;stroke:rgb(0%,0%,0%);stroke-opacity:1;stroke-miterlimit:10;" d="M 606 153 L 635.664062 153 L 647.664062 124.785156 L 659.664062 153 L 689.332031 153 L 665.332031 170.4375 L 673.417969 201.980469 L 647.664062 184.542969 L 621.914062 201.980469 L 634.214844 170.4375 L 606 153 "/>
<path style="fill-rule:nonzero;fill:rgb(53%,27%,7%);fill-opacity:1;stroke-width:1;stroke-linecap:butt;stroke-linejoin:miter;stroke:rgb(0%,0%,0%);stroke-opacity:1;stroke-miterlimit:10;" d="M 583.785156 301.785156 L 583.785156 344.214844 L 626.214844 344.214844 L 626.214844 301.785156 L 583.785156 301.785156 "/>
</g>
</svg>
