<?xml version="1.0" encoding="UTF-8"?>
<svg xmlns="http://www.w3.org/2000/svg" xmlns:xlink="http://www.w3.org/1999/xlink" width="1129pt" height="517pt" viewBox="0 0 1129 517" version="1.1">
<g id="surface461">
<rect x="0" y="0" width="1129" height="517" style="fill:rgb(90%,90%,90%);fill-opacity:1;stroke:none;"/>
<path style="fill-rule:nonzero;fill:rgb(100%,51%,0%);fill-opacity:1;stroke-width:1;stroke-linecap:butt;stroke-linejoin:miter;stroke:rgb(0%,0%,0%);stroke-opacity:1;stroke-miterlimit:10;" d="M 289 54 L 318.664062 54 L 330.664062 25.785156 L 342.664062 54 L 372.332031 54 L 348.332031 71.4375 L 356.417969 102.980469 L 330.664062 85.542969 L 304.914062 102.980469 L 317.214844 71.4375 L 289 54 "/>
<path style="fill-rule:nonzero;fill:rgb(100%,51%,0%);fill-opacity:1;stroke-width:1;stroke-linecap:butt;stroke-linejoin:miter;stroke:rgb(0%,0%,0%);stroke-opacity:1;stroke-miterlimit:10;" d="M 125.785156 146.785156 L 125.785156 189.214844 L 168.214844 189.214844 L 168.214844 146.785156 L 125.785156 146.785156 "/>
<path style="fill-rule:nonzero;fill:rgb(100%,51%,0%);fill-opacity:1;stroke-width:1;stroke-linecap:butt;stroke-linejoin:miter;stroke:rgb(0%,0%,0%);stroke-opacity:1;stroke-miterlimit:10;" d="M 367 101 L 396.664062 101 L 408.664062 72.785156 L 420.664062 101 L 450.332031 101 L 426.332031 118.4375 L 434.417969 149.980469 L 408.664062 132.542969 L 382.914062 149.980469 L 395.214844 118.4375 L 367 101 "/>
<path style="fill-rule:nonzero;fill:rgb(100%,51%,0%);fill-opacity:1;stroke-width:1;stroke-linecap:butt;stroke-linejoin:miter;stroke:rgb(0%,0%,0%);stroke-opacity:1;stroke-miterlimit:10;" d="M 326 421 L 355.664062 421 L 367.664062 392.785156 L 379.664062 421 L 409.332031 421 L 385.332031 438.4375 L 393.417969 469.980469 L 367.664062 452.542969 L 341.914062 469.980469 L 354.214844 438.4375 L 326 421 "/>
<path style="fill-rule:nonzero;fill:rgb(100%,51%,0%);fill-opacity:1;stroke-width:1;stroke-linecap:butt;stroke-linejoin:miter;stroke:rgb(0%,0%,0%);stroke-opacity:1;stroke-miterlimit:10;" d="M 451 471 L 480.664062 471 L 492.664062 442.785156 L 504.664062 471 L 534.332031 471 L 510.332031 488.4375 L 518.417969 519.980469 L 492.664062 502.542969 L 466.914062 519.980469 L 479.214844 488.4375 L 451 471 "/>
<path style="fill-rule:nonzero;fill:rgb(100%,51%,0%);fill-opacity:1;stroke-width:1;stroke-linecap:butt;stroke-linejoin:miter;stroke:rgb(0%,0%,0%);stroke-opacity:1;stroke-miterlimit:10;" d="M 469 265 L 498.664062 265 L 510.664062 236.785156 L 522.664062 265 L 552.332031 265 L 528.332031 282.4375 L 536.417969 313.980469 L 510.664062 296.542969 L 484.914062 313.980469 L 497.214844 282.4375 L 469 265 "/>
<path style="fill-rule:nonzero;fill:rgb(53%,27%,7%);fill-opacity:1;stroke-width:1;stroke-linecap:butt;stroke-linejoin:miter;stroke:rgb(0%,0%,0%);stroke-opacity:1;stroke-miterlimit:10;" d="M 703.785156 242.785156 L 703.785156 285.214844 L 746.214844 285.214844 L 746.214844 242.785156 L 703.785156 242.785156 "/>
<path style="fill-rule:nonzero;fill:rgb(53%,27%,7%);fill-opacity:1;stroke-width:1;stroke-linecap:butt;stroke-linejoin:miter;stroke:rgb(0%,0%,0%);stroke-opacity:1;stroke-miterlimit:10;" d="M 606 165 L 635.664062 165 L 647.664062 136.785156 L 659.664062 165 L 689.332031 165 L 665.332031 182.4375 L 673.417969 213.980469 L 647.664062 196.542969 L 621.914062 213.980469 L 634.214844 182.4375 L 606 165 "/>
<path style="fill-rule:nonzero;fill:rgb(53%,27%,7%);fill-opacity:1;stroke-width:1;stroke-linecap:butt;stroke-linejoin:miter;stroke:rgb(0%,0%,0%);stroke-opacity:1;stroke-miterlimit:10;" d="M 891.785156 353.785156 L 891.785156 396.214844 L 934.214844 396.214844 L 934.214844 353.785156 L 891.785156 353.785156 "/>
<path style="fill-rule:nonzero;fill:rgb(53%,27%,7%);fill-opacity:1;stroke-width:1;stroke-linecap:butt;stroke-linejoin:miter;stroke:rgb(0%,0%,0%);stroke-opacity:1;stroke-miterlimit:10;" d="M 948.785156 136.785156 L 948.785156 179.214844 L 991.214844 179.214844 L 991.214844 136.785156 L 948.785156 136.785156 "/>
<path style="fill-rule:nonzero;fill:rgb(53%,27%,7%);fill-opacity:1;stroke-width:1;stroke-linecap:butt;stroke-linejoin:miter;stroke:rgb(0%,0%,0%);stroke-opacity:1;stroke-miterlimit:10;" d="M 729.785156 343.785156 L 729.785156 386.214844 L 772.214844 386.214844 L 772.214844 343.785156 L 729.785156 343.785156 "/>
<path style="fill-rule:nonzero;fill:rgb(53%,27%,7%);fill-opacity:1;stroke-width:1;stroke-linecap:butt;stroke-linejoin:miter;stroke:rgb(0%,0%,0%);stroke-opacity:1;stroke-miterlimit:10;" d="M 1012.785156 245.785156 L 1012.785156 288.214844 L 1055.214844 288.214844 L 1055.214844 245.785156 L 1012.785156 245.785156 "/>
<path style="fill-rule:nonzero;fill:rgb(53%,27%,7%);fill-opacity:1;stroke-width:1;stroke-linecap:butt;stroke-linejoin:miter;stroke:rgb(0%,0%,0%);stroke-opacity:1;stroke-miterlimit:10;" d="M 758.785156 87.785156 L 758.785156 130.214844 L 801.214844 130.214844 L 801.214844 87.785156 L 758.785156 87.785156 "/>
<path style="fill-rule:nonzero;fill:rgb(53%,27%,7%);fill-opacity:1;stroke-width:1;stroke-linecap:butt;stroke-linejoin:miter;stroke:rgb(0%,0%,0%);stroke-opacity:1;stroke-miterlimit:10;" d="M 826.785156 263.785156 L 826.785156 306.214844 L 869.214844 306.214844 L 869.214844 263.785156 L 826.785156 263.785156 "/>
</g>
</svg>
