<?xml version="1.0" encoding="UTF-8"?>
<svg xmlns="http://www.w3.org/2000/svg" xmlns:xlink="http://www.w3.org/1999/xlink" width="1129pt" height="517pt" viewBox="0 0 1129 517" version="1.1">
<g id="surface186">
<rect x="0" y="0" width="1129" height="517" style="fill:rgb(90%,90%,90%);fill-opacity:1;stroke:none;"/>
<path style="fill-rule:nonzero;fill:rgb(35%,70%,90%);fill-opacity:1;stroke-width:1;stroke-linecap:butt;stroke-linejoin:miter;stroke:rgb(0%,0%,0%);stroke-opacity:1;stroke-miterlimit:10;" d="M 524 318 L 553.664062 318 L 565.664062 289.785156 L 577.664062 318 L 607.332031 318 L 583.332031 335.4375 L 591.417969 366.980469 L 565.664062 349.542969 L 539.914062 366.980469 L 552.214844 335.4375 L 524 318 "/>
<path style="fill-rule:nonzero;fill:rgb(35%,70%,90%);fill-opacity:1;stroke-width:1;stroke-linecap:butt;stroke-linejoin:miter;stroke:rgb(0%,0%,0%);stroke-opacity:1;stroke-miterlimit:10;" d="M 98 129 L 127.664062 129 L 139.664062 100.785156 L 151.664062 129 L 181.332031 129 L 157.332031 146.4375 L 165.417969 177.980469 L 139.664062 160.542969 L 113.914062 177.980469 L 126.214844 146.4375 L 98 129 "/>
<path style="fill-rule:nonzero;fill:rgb(35%,70%,90%);fill-opacity:1;stroke-width:1;stroke-linecap:butt;stroke-linejoin:miter;stroke:rgb(0%,0%,0%);stroke-opacity:1;stroke-miterlimit:10;" d="M 425 458 L 454.664062 458 L 466.664062 429.785156 L 478.664062 458 L 508.332031 458 L 484.332031 475.4375 L 492.417969 506.980469 L 466.664062 489.542969 L 440.914062 506.980469 L 453.214844 475.4375 L 425 458 "/>
<path style="fill-rule:nonzero;fill:rgb(35%,70%,90%);fill-opacity:1;stroke-width:1;stroke-linecap:butt;stroke-linejoin:miter;stroke:rgb(0%,0%,0%);stroke-opacity:1;stroke-miterlimit:10;" d="M 928 434 L 957.664062 434 L 969.664062 405.785156 L 981.664062 434 L 1011.332031 434 L 987.332031 451.4375 L 995.417969 482.980469 L 969.664062 465.542969 L 943.914062 482.980469 L 956.214844 451.4375 L 928 434 "/>
<path style="fill-rule:nonzero;fill:rgb(35%,70%,90%);fill-opacity:1;stroke-width:1;stroke-linecap:butt;stroke-linejoin:miter;stroke:rgb(0%,0%,0%);stroke-opacity:1;stroke-miterlimit:10;" d="M 429 206 L 458.664062 206 L 470.664062 177.785156 L 482.664062 206 L 512.332031 206 L 488.332031 223.4375 L 496.417969 254.980469 L 470.664062 237.542969 L 444.914062 254.980469 L 457.214844 223.4375 L 429 206 "/>
<path style="fill-rule:nonzero;fill:rgb(100%,51%,0%);fill-opacity:1;stroke-width:1;stroke-linecap:butt;stroke-linejoin:miter;stroke:rgb(0%,0%,0%);stroke-opacity:1;stroke-miterlimit:10;" d="M 981 30 L 955.019531 75 L 1006.980469 75 L 981 30 "/>
<path style="fill-rule:nonzero;fill:rgb(100%,51%,0%);fill-opacity:1;stroke-width:1;stroke-linecap:butt;stroke-linejoin:miter;stroke:rgb(0%,0%,0%);stroke-opacity:1;stroke-miterlimit:10;" d="M 283 326 L 257.019531 371 L 308.980469 371 L 283 326 "/>
<path style="fill-rule:nonzero;fill:rgb(100%,51%,0%);fill-opacity:1;stroke-width:1;stroke-linecap:butt;stroke-linejoin:miter;stroke:rgb(0%,0%,0%);stroke-opacity:1;stroke-miterlimit:10;" d="M 65 362 L 39.019531 407 L 90.980469 407 L 65 362 "/>
<path style="fill-rule:nonzero;fill:rgb(100%,51%,0%);fill-opacity:1;stroke-width:1;stroke-linecap:butt;stroke-linejoin:miter;stroke:rgb(0%,0%,0%);stroke-opacity:1;stroke-miterlimit:10;" d="M 941 271 L 915.019531 316 L 966.980469 316 L 941 271 "/>
<path style="fill-rule:nonzero;fill:rgb(100%,51%,0%);fill-opacity:1;stroke-width:1;stroke-linecap:butt;stroke-linejoin:miter;stroke:rgb(0%,0%,0%);stroke-opacity:1;stroke-miterlimit:10;" d="M 659 109 L 633.019531 154 L 684.980469 154 L 659 109 "/>
<path style="fill-rule:nonzero;fill:rgb(100%,51%,0%);fill-opacity:1;stroke-width:1;stroke-linecap:butt;stroke-linejoin:miter;stroke:rgb(0%,0%,0%);stroke-opacity:1;stroke-miterlimit:10;" d="M 627 351 L 601.019531 396 L 652.980469 396 L 627 351 "/>
</g>
</svg>
