<?xml version="1.0" encoding="UTF-8"?>
<svg xmlns="http://www.w3.org/2000/svg" xmlns:xlink="http://www.w3.org/1999/xlink" width="1129pt" height="517pt" viewBox="0 0 1129 517" version="1.1">
<g id="surface706">
<rect x="0" y="0" width="1129" height="517" style="fill:rgb(90%,90%,90%);fill-opacity:1;stroke:none;"/>
<path style="fill-rule:nonzero;fill:rgb(55%,51%,53%);fill-opacity:1;stroke-width:1;stroke-linecap:butt;stroke-linejoin:miter;stroke:rgb(0%,0%,0%);stroke-opacity:1;stroke-miterlimit:10;" d="M 217.214844 416 C 217.214844 427.714844 207.714844 437.214844 196 437.214844 C 184.285156 437.214844 174.785156 427.714844 174.785156 416 C 174.785156 404.285156 184.285156 394.785156 196 394.785156 C 207.714844 394.785156 217.214844 404.285156 217.214844 416 "/>
<path style="fill-rule:nonzero;fill:rgb(55%,51%,53%);fill-opacity:1;stroke-width:1;stroke-linecap:butt;stroke-linejoin:miter;stroke:rgb(0%,0%,0%);stroke-opacity:1;stroke-miterlimit:10;" d="M 367.214844 185 C 367.214844 196.714844 357.714844 206.214844 346 206.214844 C 334.285156 206.214844 324.785156 196.714844 324.785156 185 C 324.785156 173.285156 334.285156 163.785156 346 163.785156 C 357.714844 163.785156 367.214844 173.285156 367.214844 185 "/>
<path style="fill-rule:nonzero;fill:rgb(53%,27%,7%);fill-opacity:1;stroke-width:1;stroke-linecap:butt;stroke-linejoin:miter;stroke:rgb(0%,0%,0%);stroke-opacity:1;stroke-miterlimit:10;" d="M 360.214844 51 C 360.214844 62.714844 350.714844 72.214844 339 72.214844 C 327.285156 72.214844 317.785156 62.714844 317.785156 51 C 317.785156 39.285156 327.285156 29.785156 339 29.785156 C 350.714844 29.785156 360.214844 39.285156 360.214844 51 "/>
<path style="fill-rule:nonzero;fill:rgb(55%,51%,53%);fill-opacity:1;stroke-width:1;stroke-linecap:butt;stroke-linejoin:miter;stroke:rgb(0%,0%,0%);stroke-opacity:1;stroke-miterlimit:10;" d="M 149.214844 150 C 149.214844 161.714844 139.714844 171.214844 128 171.214844 C 116.285156 171.214844 106.785156 161.714844 106.785156 150 C 106.785156 138.285156 116.285156 128.785156 128 128.785156 C 139.714844 128.785156 149.214844 138.285156 149.214844 150 "/>
<path style="fill-rule:nonzero;fill:rgb(55%,51%,53%);fill-opacity:1;stroke-width:1;stroke-linecap:butt;stroke-linejoin:miter;stroke:rgb(0%,0%,0%);stroke-opacity:1;stroke-miterlimit:10;" d="M 61.214844 449 C 61.214844 460.714844 51.714844 470.214844 40 470.214844 C 28.285156 470.214844 18.785156 460.714844 18.785156 449 C 18.785156 437.285156 28.285156 427.785156 40 427.785156 C 51.714844 427.785156 61.214844 437.285156 61.214844 449 "/>
<path style="fill-rule:nonzero;fill:rgb(55%,51%,53%);fill-opacity:1;stroke-width:1;stroke-linecap:butt;stroke-linejoin:miter;stroke:rgb(0%,0%,0%);stroke-opacity:1;stroke-miterlimit:10;" d="M 392.214844 275 C 392.214844 286.714844 382.714844 296.214844 371 296.214844 C 359.285156 296.214844 349.785156 286.714844 349.785156 275 C 349.785156 263.285156 359.285156 253.785156 371 253.785156 C 382.714844 253.785156 392.214844 263.285156 392.214844 275 "/>
<path style="fill-rule:nonzero;fill:rgb(53%,27%,7%);fill-opacity:1;stroke-width:1;stroke-linecap:butt;stroke-linejoin:miter;stroke:rgb(0%,0%,0%);stroke-opacity:1;stroke-miterlimit:10;" d="M 132 267 L 106.019531 312 L 157.980469 312 L 132 267 "/>
</g>
</svg>
