<?xml version="1.0" encoding="UTF-8"?>
<svg xmlns="http://www.w3.org/2000/svg" xmlns:xlink="http://www.w3.org/1999/xlink" width="1129pt" height="517pt" viewBox="0 0 1129 517" version="1.1">
<g id="surface591">
<rect x="0" y="0" width="1129" height="517" style="fill:rgb(90%,90%,90%);fill-opacity:1;stroke:none;"/>
<path style="fill-rule:nonzero;fill:rgb(35%,70%,90%);fill-opacity:1;stroke-width:1;stroke-linecap:butt;stroke-linejoin:miter;stroke:rgb(0%,0%,0%);stroke-opacity:1;stroke-miterlimit:10;" d="M 126.214844 200 C 126.214844 211.714844 116.714844 221.214844 105 221.214844 C 93.285156 221.214844 83.785156 211.714844 83.785156 200 C 83.785156 188.285156 93.285156 178.785156 105 178.785156 C 116.714844 178.785156 126.214844 188.285156 126.214844 200 "/>
<path style="fill-rule:nonzero;fill:rgb(53%,27%,7%);fill-opacity:1;stroke-width:1;stroke-linecap:butt;stroke-linejoin:miter;stroke:rgb(0%,0%,0%);stroke-opacity:1;stroke-miterlimit:10;" d="M 73.214844 425 C 73.214844 436.714844 63.714844 446.214844 52 446.214844 C 40.285156 446.214844 30.785156 436.714844 30.785156 425 C 30.785156 413.285156 40.285156 403.785156 52 403.785156 C 63.714844 403.785156 73.214844 413.285156 73.214844 425 "/>
<path style="fill-rule:nonzero;fill:rgb(53%,27%,7%);fill-opacity:1;stroke-width:1;stroke-linecap:butt;stroke-linejoin:miter;stroke:rgb(0%,0%,0%);stroke-opacity:1;stroke-miterlimit:10;" d="M 329.214844 162 C 329.214844 173.714844 319.714844 183.214844 308 183.214844 C 296.285156 183.214844 286.785156 173.714844 286.785156 162 C 286.785156 150.285156 296.285156 140.785156 308 140.785156 C 319.714844 140.785156 329.214844 150.285156 329.214844 162 "/>
<path style="fill-rule:nonzero;fill:rgb(35%,70%,90%);fill-opacity:1;stroke-width:1;stroke-linecap:butt;stroke-linejoin:miter;stroke:rgb(0%,0%,0%);stroke-opacity:1;stroke-miterlimit:10;" d="M 445.214844 57 C 445.214844 68.714844 435.714844 78.214844 424 78.214844 C 412.285156 78.214844 402.785156 68.714844 402.785156 57 C 402.785156 45.285156 412.285156 35.785156 424 35.785156 C 435.714844 35.785156 445.214844 45.285156 445.214844 57 "/>
<path style="fill-rule:nonzero;fill:rgb(35%,70%,90%);fill-opacity:1;stroke-width:1;stroke-linecap:butt;stroke-linejoin:miter;stroke:rgb(0%,0%,0%);stroke-opacity:1;stroke-miterlimit:10;" d="M 233.214844 182 C 233.214844 193.714844 223.714844 203.214844 212 203.214844 C 200.285156 203.214844 190.785156 193.714844 190.785156 182 C 190.785156 170.285156 200.285156 160.785156 212 160.785156 C 223.714844 160.785156 233.214844 170.285156 233.214844 182 "/>
<path style="fill-rule:nonzero;fill:rgb(35%,70%,90%);fill-opacity:1;stroke-width:1;stroke-linecap:butt;stroke-linejoin:miter;stroke:rgb(0%,0%,0%);stroke-opacity:1;stroke-miterlimit:10;" d="M 490.214844 354 C 490.214844 365.714844 480.714844 375.214844 469 375.214844 C 457.285156 375.214844 447.785156 365.714844 447.785156 354 C 447.785156 342.285156 457.285156 332.785156 469 332.785156 C 480.714844 332.785156 490.214844 342.285156 490.214844 354 "/>
<path style="fill-rule:nonzero;fill:rgb(35%,70%,90%);fill-opacity:1;stroke-width:1;stroke-linecap:butt;stroke-linejoin:miter;stroke:rgb(0%,0%,0%);stroke-opacity:1;stroke-miterlimit:10;" d="M 443.214844 460 C 443.214844 471.714844 433.714844 481.214844 422 481.214844 C 410.285156 481.214844 400.785156 471.714844 400.785156 460 C 400.785156 448.285156 410.285156 438.785156 422 438.785156 C 433.714844 438.785156 443.214844 448.285156 443.214844 460 "/>
<path style="fill-rule:nonzero;fill:rgb(53%,27%,7%);fill-opacity:1;stroke-width:1;stroke-linecap:butt;stroke-linejoin:miter;stroke:rgb(0%,0%,0%);stroke-opacity:1;stroke-miterlimit:10;" d="M 773.785156 248.785156 L 773.785156 291.214844 L 816.214844 291.214844 L 816.214844 248.785156 L 773.785156 248.785156 "/>
<path style="fill-rule:nonzero;fill:rgb(35%,70%,90%);fill-opacity:1;stroke-width:1;stroke-linecap:butt;stroke-linejoin:miter;stroke:rgb(0%,0%,0%);stroke-opacity:1;stroke-miterlimit:10;" d="M 996.785156 242.785156 L 996.785156 285.214844 L 1039.214844 285.214844 L 1039.214844 242.785156 L 996.785156 242.785156 "/>
<path style="fill-rule:nonzero;fill:rgb(35%,70%,90%);fill-opacity:1;stroke-width:1;stroke-linecap:butt;stroke-linejoin:miter;stroke:rgb(0%,0%,0%);stroke-opacity:1;stroke-miterlimit:10;" d="M 623.785156 100.785156 L 623.785156 143.214844 L 666.214844 143.214844 L 666.214844 100.785156 L 623.785156 100.785156 "/>
<path style="fill-rule:nonzero;fill:rgb(53%,27%,7%);fill-opacity:1;stroke-width:1;stroke-linecap:butt;stroke-linejoin:miter;stroke:rgb(0%,0%,0%);stroke-opacity:1;stroke-miterlimit:10;" d="M 697.785156 342.785156 L 697.785156 385.214844 L 740.214844 385.214844 L 740.214844 342.785156 L 697.785156 342.785156 "/>
<path style="fill-rule:nonzero;fill:rgb(53%,27%,7%);fill-opacity:1;stroke-width:1;stroke-linecap:butt;stroke-linejoin:miter;stroke:rgb(0%,0%,0%);stroke-opacity:1;stroke-miterlimit:10;" d="M 590.785156 372.785156 L 590.785156 415.214844 L 633.214844 415.214844 L 633.214844 372.785156 L 590.785156 372.785156 "/>
<path style="fill-rule:nonzero;fill:rgb(53%,27%,7%);fill-opacity:1;stroke-width:1;stroke-linecap:butt;stroke-linejoin:miter;stroke:rgb(0%,0%,0%);stroke-opacity:1;stroke-miterlimit:10;" d="M 820.785156 105.785156 L 820.785156 148.214844 L 863.214844 148.214844 L 863.214844 105.785156 L 820.785156 105.785156 "/>
<path style="fill-rule:nonzero;fill:rgb(53%,27%,7%);fill-opacity:1;stroke-width:1;stroke-linecap:butt;stroke-linejoin:miter;stroke:rgb(0%,0%,0%);stroke-opacity:1;stroke-miterlimit:10;" d="M 882.785156 250.785156 L 882.785156 293.214844 L 925.214844 293.214844 L 925.214844 250.785156 L 882.785156 250.785156 "/>
</g>
</svg>
