<?xml version="1.0" encoding="UTF-8"?>
<svg xmlns="http://www.w3.org/2000/svg" xmlns:xlink="http://www.w3.org/1999/xlink" width="1129pt" height="517pt" viewBox="0 0 1129 517" version="1.1">
<g id="surface586">
<rect x="0" y="0" width="1129" height="517" style="fill:rgb(90%,90%,90%);fill-opacity:1;stroke:none;"/>
<path style="fill-rule:nonzero;fill:rgb(35%,70%,90%);fill-opacity:1;stroke-width:1;stroke-linecap:butt;stroke-linejoin:miter;stroke:rgb(0%,0%,0%);stroke-opacity:1;stroke-miterlimit:10;" d="M 158.214844 416 C 158.214844 427.714844 148.714844 437.214844 137 437.214844 C 125.285156 437.214844 115.785156 427.714844 115.785156 416 C 115.785156 404.285156 125.285156 394.785156 137 394.785156 C 148.714844 394.785156 158.214844 404.285156 158.214844 416 "/>
<path style="fill-rule:nonzero;fill:rgb(53%,27%,7%);fill-opacity:1;stroke-width:1;stroke-linecap:butt;stroke-linejoin:miter;stroke:rgb(0%,0%,0%);stroke-opacity:1;stroke-miterlimit:10;" d="M 325.214844 179 C 325.214844 190.714844 315.714844 200.214844 304 200.214844 C 292.285156 200.214844 282.785156 190.714844 282.785156 179 C 282.785156 167.285156 292.285156 157.785156 304 157.785156 C 315.714844 157.785156 325.214844 167.285156 325.214844 179 "/>
<path style="fill-rule:nonzero;fill:rgb(35%,70%,90%);fill-opacity:1;stroke-width:1;stroke-linecap:butt;stroke-linejoin:miter;stroke:rgb(0%,0%,0%);stroke-opacity:1;stroke-miterlimit:10;" d="M 240.214844 268 C 240.214844 279.714844 230.714844 289.214844 219 289.214844 C 207.285156 289.214844 197.785156 279.714844 197.785156 268 C 197.785156 256.285156 207.285156 246.785156 219 246.785156 C 230.714844 246.785156 240.214844 256.285156 240.214844 268 "/>
<path style="fill-rule:nonzero;fill:rgb(35%,70%,90%);fill-opacity:1;stroke-width:1;stroke-linecap:butt;stroke-linejoin:miter;stroke:rgb(0%,0%,0%);stroke-opacity:1;stroke-miterlimit:10;" d="M 305.214844 460 C 305.214844 471.714844 295.714844 481.214844 284 481.214844 C 272.285156 481.214844 262.785156 471.714844 262.785156 460 C 262.785156 448.285156 272.285156 438.785156 284 438.785156 C 295.714844 438.785156 305.214844 448.285156 305.214844 460 "/>
<path style="fill-rule:nonzero;fill:rgb(35%,70%,90%);fill-opacity:1;stroke-width:1;stroke-linecap:butt;stroke-linejoin:miter;stroke:rgb(0%,0%,0%);stroke-opacity:1;stroke-miterlimit:10;" d="M 131.214844 109 C 131.214844 120.714844 121.714844 130.214844 110 130.214844 C 98.285156 130.214844 88.785156 120.714844 88.785156 109 C 88.785156 97.285156 98.285156 87.785156 110 87.785156 C 121.714844 87.785156 131.214844 97.285156 131.214844 109 "/>
<path style="fill-rule:nonzero;fill:rgb(53%,27%,7%);fill-opacity:1;stroke-width:1;stroke-linecap:butt;stroke-linejoin:miter;stroke:rgb(0%,0%,0%);stroke-opacity:1;stroke-miterlimit:10;" d="M 229 348 L 203.019531 393 L 254.980469 393 L 229 348 "/>
</g>
</svg>
