<?xml version="1.0" encoding="UTF-8"?>
<svg xmlns="http://www.w3.org/2000/svg" xmlns:xlink="http://www.w3.org/1999/xlink" width="1129pt" height="517pt" viewBox="0 0 1129 517" version="1.1">
<g id="surface11">
<rect x="0" y="0" width="1129" height="517" style="fill:rgb(90%,90%,90%);fill-opacity:1;stroke:none;"/>
<path style="fill-rule:nonzero;fill:rgb(35%,70%,90%);fill-opacity:1;stroke-width:1;stroke-linecap:butt;stroke-linejoin:miter;stroke:rgb(0%,0%,0%);stroke-opacity:1;stroke-miterlimit:10;" d="M 51 381 L 80.664062 381 L 92.664062 352.785156 L 104.664062 381 L 134.332031 381 L 110.332031 398.4375 L 118.417969 429.980469 L 92.664062 412.542969 L 66.914062 429.980469 L 79.214844 398.4375 L 51 381 "/>
<path style="fill-rule:nonzero;fill:rgb(35%,70%,90%);fill-opacity:1;stroke-width:1;stroke-linecap:butt;stroke-linejoin:miter;stroke:rgb(0%,0%,0%);stroke-opacity:1;stroke-miterlimit:10;" d="M 180.785156 263.785156 L 180.785156 306.214844 L 223.214844 306.214844 L 223.214844 263.785156 L 180.785156 263.785156 "/>
<path style="fill-rule:nonzero;fill:rgb(35%,70%,90%);fill-opacity:1;stroke-width:1;stroke-linecap:butt;stroke-linejoin:miter;stroke:rgb(0%,0%,0%);stroke-opacity:1;stroke-miterlimit:10;" d="M 68 162 L 97.664062 162 L 109.664062 133.785156 L 121.664062 162 L 151.332031 162 L 127.332031 179.4375 L 135.417969 210.980469 L 109.664062 193.542969 L 83.914062 210.980469 L 96.214844 179.4375 L 68 162 "/>
<path style="fill-rule:nonzero;fill:rgb(35%,70%,90%);fill-opacity:1;stroke-width:1;stroke-linecap:butt;stroke-linejoin:miter;stroke:rgb(0%,0%,0%);stroke-opacity:1;stroke-miterlimit:10;" d="M 136.785156 142.785156 L 136.785156 185.214844 L 179.214844 185.214844 L 179.214844 142.785156 L 136.785156 142.785156 "/>
<path style="fill-rule:nonzero;fill:rgb(100%,51%,0%);fill-opacity:1;stroke-width:1;stroke-linecap:butt;stroke-linejoin:miter;stroke:rgb(0%,0%,0%);stroke-opacity:1;stroke-miterlimit:10;" d="M 746.785156 116.785156 L 746.785156 159.214844 L 789.214844 159.214844 L 789.214844 116.785156 L 746.785156 116.785156 "/>
<path style="fill-rule:nonzero;fill:rgb(100%,51%,0%);fill-opacity:1;stroke-width:1;stroke-linecap:butt;stroke-linejoin:miter;stroke:rgb(0%,0%,0%);stroke-opacity:1;stroke-miterlimit:10;" d="M 899 67 L 928.664062 67 L 940.664062 38.785156 L 952.664062 67 L 982.332031 67 L 958.332031 84.4375 L 966.417969 115.980469 L 940.664062 98.542969 L 914.914062 115.980469 L 927.214844 84.4375 L 899 67 "/>
<path style="fill-rule:nonzero;fill:rgb(100%,51%,0%);fill-opacity:1;stroke-width:1;stroke-linecap:butt;stroke-linejoin:miter;stroke:rgb(0%,0%,0%);stroke-opacity:1;stroke-miterlimit:10;" d="M 834.785156 448.785156 L 834.785156 491.214844 L 877.214844 491.214844 L 877.214844 448.785156 L 834.785156 448.785156 "/>
<path style="fill-rule:nonzero;fill:rgb(100%,51%,0%);fill-opacity:1;stroke-width:1;stroke-linecap:butt;stroke-linejoin:miter;stroke:rgb(0%,0%,0%);stroke-opacity:1;stroke-miterlimit:10;" d="M 716 456 L 745.664062 456 L 757.664062 427.785156 L 769.664062 456 L 799.332031 456 L 775.332031 473.4375 L 783.417969 504.980469 L 757.664062 487.542969 L 731.914062 504.980469 L 744.214844 473.4375 L 716 456 "/>
</g>
</svg>
