<?xml version="1.0" encoding="UTF-8"?>
<svg xmlns="http://www.w3.org/2000/svg" xmlns:xlink="http://www.w3.org/1999/xlink" width="1129pt" height="517pt" viewBox="0 0 1129 517" version="1.1">
<g id="surface61">
<rect x="0" y="0" width="1129" height="517" style="fill:rgb(90%,90%,90%);fill-opacity:1;stroke:none;"/>
<path style="fill-rule:nonzero;fill:rgb(35%,70%,90%);fill-opacity:1;stroke-width:1;stroke-linecap:butt;stroke-linejoin:miter;stroke:rgb(0%,0%,0%);stroke-opacity:1;stroke-miterlimit:10;" d="M 788 50 L 817.664062 50 L 829.664062 21.785156 L 841.664062 50 L 871.332031 50 L 847.332031 67.4375 L 855.417969 98.980469 L 829.664062 81.542969 L 803.914062 98.980469 L 816.214844 67.4375 L 788 50 "/>
<path style="fill-rule:nonzero;fill:rgb(35%,70%,90%);fill-opacity:1;stroke-width:1;stroke-linecap:butt;stroke-linejoin:miter;stroke:rgb(0%,0%,0%);stroke-opacity:1;stroke-miterlimit:10;" d="M 981 402 L 1010.664062 402 L 1022.664062 373.785156 L 1034.664062 402 L 1064.332031 402 L 1040.332031 419.4375 L 1048.417969 450.980469 L 1022.664062 433.542969 L 996.914062 450.980469 L 1009.214844 419.4375 L 981 402 "/>
<path style="fill-rule:nonzero;fill:rgb(35%,70%,90%);fill-opacity:1;stroke-width:1;stroke-linecap:butt;stroke-linejoin:miter;stroke:rgb(0%,0%,0%);stroke-opacity:1;stroke-miterlimit:10;" d="M 854 466 L 883.664062 466 L 895.664062 437.785156 L 907.664062 466 L 937.332031 466 L 913.332031 483.4375 L 921.417969 514.980469 L 895.664062 497.542969 L 869.914062 514.980469 L 882.214844 483.4375 L 854 466 "/>
<path style="fill-rule:nonzero;fill:rgb(35%,70%,90%);fill-opacity:1;stroke-width:1;stroke-linecap:butt;stroke-linejoin:miter;stroke:rgb(0%,0%,0%);stroke-opacity:1;stroke-miterlimit:10;" d="M 152 68 L 181.664062 68 L 193.664062 39.785156 L 205.664062 68 L 235.332031 68 L 211.332031 85.4375 L 219.417969 116.980469 L 193.664062 99.542969 L 167.914062 116.980469 L 180.214844 85.4375 L 152 68 "/>
<path style="fill-rule:nonzero;fill:rgb(35%,70%,90%);fill-opacity:1;stroke-width:1;stroke-linecap:butt;stroke-linejoin:miter;stroke:rgb(0%,0%,0%);stroke-opacity:1;stroke-miterlimit:10;" d="M 582 251 L 611.664062 251 L 623.664062 222.785156 L 635.664062 251 L 665.332031 251 L 641.332031 268.4375 L 649.417969 299.980469 L 623.664062 282.542969 L 597.914062 299.980469 L 610.214844 268.4375 L 582 251 "/>
<path style="fill-rule:nonzero;fill:rgb(35%,70%,90%);fill-opacity:1;stroke-width:1;stroke-linecap:butt;stroke-linejoin:miter;stroke:rgb(0%,0%,0%);stroke-opacity:1;stroke-miterlimit:10;" d="M 103 270 L 132.664062 270 L 144.664062 241.785156 L 156.664062 270 L 186.332031 270 L 162.332031 287.4375 L 170.417969 318.980469 L 144.664062 301.542969 L 118.914062 318.980469 L 131.214844 287.4375 L 103 270 "/>
<path style="fill-rule:nonzero;fill:rgb(55%,51%,53%);fill-opacity:1;stroke-width:1;stroke-linecap:butt;stroke-linejoin:miter;stroke:rgb(0%,0%,0%);stroke-opacity:1;stroke-miterlimit:10;" d="M 492.214844 297 C 492.214844 308.714844 482.714844 318.214844 471 318.214844 C 459.285156 318.214844 449.785156 308.714844 449.785156 297 C 449.785156 285.285156 459.285156 275.785156 471 275.785156 C 482.714844 275.785156 492.214844 285.285156 492.214844 297 "/>
<path style="fill-rule:nonzero;fill:rgb(55%,51%,53%);fill-opacity:1;stroke-width:1;stroke-linecap:butt;stroke-linejoin:miter;stroke:rgb(0%,0%,0%);stroke-opacity:1;stroke-miterlimit:10;" d="M 320.214844 88 C 320.214844 99.714844 310.714844 109.214844 299 109.214844 C 287.285156 109.214844 277.785156 99.714844 277.785156 88 C 277.785156 76.285156 287.285156 66.785156 299 66.785156 C 310.714844 66.785156 320.214844 76.285156 320.214844 88 "/>
<path style="fill-rule:nonzero;fill:rgb(55%,51%,53%);fill-opacity:1;stroke-width:1;stroke-linecap:butt;stroke-linejoin:miter;stroke:rgb(0%,0%,0%);stroke-opacity:1;stroke-miterlimit:10;" d="M 659.214844 129 C 659.214844 140.714844 649.714844 150.214844 638 150.214844 C 626.285156 150.214844 616.785156 140.714844 616.785156 129 C 616.785156 117.285156 626.285156 107.785156 638 107.785156 C 649.714844 107.785156 659.214844 117.285156 659.214844 129 "/>
</g>
</svg>
