<?xml version="1.0" encoding="UTF-8"?>
<svg xmlns="http://www.w3.org/2000/svg" xmlns:xlink="http://www.w3.org/1999/xlink" width="1129pt" height="517pt" viewBox="0 0 1129 517" version="1.1">
<g id="surface486">
<rect x="0" y="0" width="1129" height="517" style="fill:rgb(90%,90%,90%);fill-opacity:1;stroke:none;"/>
<path style="fill-rule:nonzero;fill:rgb(100%,51%,0%);fill-opacity:1;stroke-width:1;stroke-linecap:butt;stroke-linejoin:miter;stroke:rgb(0%,0%,0%);stroke-opacity:1;stroke-miterlimit:10;" d="M 101 314 L 130.664062 314 L 142.664062 285.785156 L 154.664062 314 L 184.332031 314 L 160.332031 331.4375 L 168.417969 362.980469 L 142.664062 345.542969 L 116.914062 362.980469 L 129.214844 331.4375 L 101 314 "/>
<path style="fill-rule:nonzero;fill:rgb(100%,51%,0%);fill-opacity:1;stroke-width:1;stroke-linecap:butt;stroke-linejoin:miter;stroke:rgb(0%,0%,0%);stroke-opacity:1;stroke-miterlimit:10;" d="M 592 93 L 621.664062 93 L 633.664062 64.785156 L 645.664062 93 L 675.332031 93 L 651.332031 110.4375 L 659.417969 141.980469 L 633.664062 124.542969 L 607.914062 141.980469 L 620.214844 110.4375 L 592 93 "/>
<path style="fill-rule:nonzero;fill:rgb(100%,51%,0%);fill-opacity:1;stroke-width:1;stroke-linecap:butt;stroke-linejoin:miter;stroke:rgb(0%,0%,0%);stroke-opacity:1;stroke-miterlimit:10;" d="M 497 161 L 526.664062 161 L 538.664062 132.785156 L 550.664062 161 L 580.332031 161 L 556.332031 178.4375 L 564.417969 209.980469 L 538.664062 192.542969 L 512.914062 209.980469 L 525.214844 178.4375 L 497 161 "/>
<path style="fill-rule:nonzero;fill:rgb(100%,51%,0%);fill-opacity:1;stroke-width:1;stroke-linecap:butt;stroke-linejoin:miter;stroke:rgb(0%,0%,0%);stroke-opacity:1;stroke-miterlimit:10;" d="M 459 365 L 488.664062 365 L 500.664062 336.785156 L 512.664062 365 L 542.332031 365 L 518.332031 382.4375 L 526.417969 413.980469 L 500.664062 396.542969 L 474.914062 413.980469 L 487.214844 382.4375 L 459 365 "/>
<path style="fill-rule:nonzero;fill:rgb(100%,51%,0%);fill-opacity:1;stroke-width:1;stroke-linecap:butt;stroke-linejoin:miter;stroke:rgb(0%,0%,0%);stroke-opacity:1;stroke-miterlimit:10;" d="M 44 445 L 73.664062 445 L 85.664062 416.785156 L 97.664062 445 L 127.332031 445 L 103.332031 462.4375 L 111.417969 493.980469 L 85.664062 476.542969 L 59.914062 493.980469 L 72.214844 462.4375 L 44 445 "/>
<path style="fill-rule:nonzero;fill:rgb(100%,51%,0%);fill-opacity:1;stroke-width:1;stroke-linecap:butt;stroke-linejoin:miter;stroke:rgb(0%,0%,0%);stroke-opacity:1;stroke-miterlimit:10;" d="M 979 272 L 1008.664062 272 L 1020.664062 243.785156 L 1032.664062 272 L 1062.332031 272 L 1038.332031 289.4375 L 1046.417969 320.980469 L 1020.664062 303.542969 L 994.914062 320.980469 L 1007.214844 289.4375 L 979 272 "/>
<path style="fill-rule:nonzero;fill:rgb(100%,51%,0%);fill-opacity:1;stroke-width:1;stroke-linecap:butt;stroke-linejoin:miter;stroke:rgb(0%,0%,0%);stroke-opacity:1;stroke-miterlimit:10;" d="M 660 282 L 689.664062 282 L 701.664062 253.785156 L 713.664062 282 L 743.332031 282 L 719.332031 299.4375 L 727.417969 330.980469 L 701.664062 313.542969 L 675.914062 330.980469 L 688.214844 299.4375 L 660 282 "/>
<path style="fill-rule:nonzero;fill:rgb(100%,51%,0%);fill-opacity:1;stroke-width:1;stroke-linecap:butt;stroke-linejoin:miter;stroke:rgb(0%,0%,0%);stroke-opacity:1;stroke-miterlimit:10;" d="M 545 273 L 574.664062 273 L 586.664062 244.785156 L 598.664062 273 L 628.332031 273 L 604.332031 290.4375 L 612.417969 321.980469 L 586.664062 304.542969 L 560.914062 321.980469 L 573.214844 290.4375 L 545 273 "/>
<path style="fill-rule:nonzero;fill:rgb(55%,51%,53%);fill-opacity:1;stroke-width:1;stroke-linecap:butt;stroke-linejoin:miter;stroke:rgb(0%,0%,0%);stroke-opacity:1;stroke-miterlimit:10;" d="M 903 392 L 877.019531 437 L 928.980469 437 L 903 392 "/>
<path style="fill-rule:nonzero;fill:rgb(55%,51%,53%);fill-opacity:1;stroke-width:1;stroke-linecap:butt;stroke-linejoin:miter;stroke:rgb(0%,0%,0%);stroke-opacity:1;stroke-miterlimit:10;" d="M 754 431 L 728.019531 476 L 779.980469 476 L 754 431 "/>
<path style="fill-rule:nonzero;fill:rgb(55%,51%,53%);fill-opacity:1;stroke-width:1;stroke-linecap:butt;stroke-linejoin:miter;stroke:rgb(0%,0%,0%);stroke-opacity:1;stroke-miterlimit:10;" d="M 415 425 L 389.019531 470 L 440.980469 470 L 415 425 "/>
</g>
</svg>
