<?xml version="1.0" encoding="UTF-8"?>
<svg xmlns="http://www.w3.org/2000/svg" xmlns:xlink="http://www.w3.org/1999/xlink" width="1129pt" height="517pt" viewBox="0 0 1129 517" version="1.1">
<g id="surface191">
<rect x="0" y="0" width="1129" height="517" style="fill:rgb(90%,90%,90%);fill-opacity:1;stroke:none;"/>
<path style="fill-rule:nonzero;fill:rgb(35%,70%,90%);fill-opacity:1;stroke-width:1;stroke-linecap:butt;stroke-linejoin:miter;stroke:rgb(0%,0%,0%);stroke-opacity:1;stroke-miterlimit:10;" d="M 108 348 L 137.664062 348 L 149.664062 319.785156 L 161.664062 348 L 191.332031 348 L 167.332031 365.4375 L 175.417969 396.980469 L 149.664062 379.542969 L 123.914062 396.980469 L 136.214844 365.4375 L 108 348 "/>
<path style="fill-rule:nonzero;fill:rgb(100%,51%,0%);fill-opacity:1;stroke-width:1;stroke-linecap:butt;stroke-linejoin:miter;stroke:rgb(0%,0%,0%);stroke-opacity:1;stroke-miterlimit:10;" d="M 469 203 L 498.664062 203 L 510.664062 174.785156 L 522.664062 203 L 552.332031 203 L 528.332031 220.4375 L 536.417969 251.980469 L 510.664062 234.542969 L 484.914062 251.980469 L 497.214844 220.4375 L 469 203 "/>
<path style="fill-rule:nonzero;fill:rgb(100%,51%,0%);fill-opacity:1;stroke-width:1;stroke-linecap:butt;stroke-linejoin:miter;stroke:rgb(0%,0%,0%);stroke-opacity:1;stroke-miterlimit:10;" d="M 118 191 L 147.664062 191 L 159.664062 162.785156 L 171.664062 191 L 201.332031 191 L 177.332031 208.4375 L 185.417969 239.980469 L 159.664062 222.542969 L 133.914062 239.980469 L 146.214844 208.4375 L 118 191 "/>
<path style="fill-rule:nonzero;fill:rgb(35%,70%,90%);fill-opacity:1;stroke-width:1;stroke-linecap:butt;stroke-linejoin:miter;stroke:rgb(0%,0%,0%);stroke-opacity:1;stroke-miterlimit:10;" d="M 313 405 L 342.664062 405 L 354.664062 376.785156 L 366.664062 405 L 396.332031 405 L 372.332031 422.4375 L 380.417969 453.980469 L 354.664062 436.542969 L 328.914062 453.980469 L 341.214844 422.4375 L 313 405 "/>
<path style="fill-rule:nonzero;fill:rgb(35%,70%,90%);fill-opacity:1;stroke-width:1;stroke-linecap:butt;stroke-linejoin:miter;stroke:rgb(0%,0%,0%);stroke-opacity:1;stroke-miterlimit:10;" d="M 292 82 L 321.664062 82 L 333.664062 53.785156 L 345.664062 82 L 375.332031 82 L 351.332031 99.4375 L 359.417969 130.980469 L 333.664062 113.542969 L 307.914062 130.980469 L 320.214844 99.4375 L 292 82 "/>
<path style="fill-rule:nonzero;fill:rgb(35%,70%,90%);fill-opacity:1;stroke-width:1;stroke-linecap:butt;stroke-linejoin:miter;stroke:rgb(0%,0%,0%);stroke-opacity:1;stroke-miterlimit:10;" d="M 181 437 L 210.664062 437 L 222.664062 408.785156 L 234.664062 437 L 264.332031 437 L 240.332031 454.4375 L 248.417969 485.980469 L 222.664062 468.542969 L 196.914062 485.980469 L 209.214844 454.4375 L 181 437 "/>
<path style="fill-rule:nonzero;fill:rgb(100%,51%,0%);fill-opacity:1;stroke-width:1;stroke-linecap:butt;stroke-linejoin:miter;stroke:rgb(0%,0%,0%);stroke-opacity:1;stroke-miterlimit:10;" d="M 410.785156 369.785156 L 410.785156 412.214844 L 453.214844 412.214844 L 453.214844 369.785156 L 410.785156 369.785156 "/>
</g>
</svg>
