<?xml version="1.0" encoding="UTF-8"?>
<svg xmlns="http://www.w3.org/2000/svg" xmlns:xlink="http://www.w3.org/1999/xlink" width="1129pt" height="517pt" viewBox="0 0 1129 517" version="1.1">
<g id="surface136">
<rect x="0" y="0" width="1129" height="517" style="fill:rgb(90%,90%,90%);fill-opacity:1;stroke:none;"/>
<path style="fill-rule:nonzero;fill:rgb(100%,51%,0%);fill-opacity:1;stroke-width:1;stroke-linecap:butt;stroke-linejoin:miter;stroke:rgb(0%,0%,0%);stroke-opacity:1;stroke-miterlimit:10;" d="M 381.214844 287 C 381.214844 298.714844 371.714844 308.214844 360 308.214844 C 348.285156 308.214844 338.785156 298.714844 338.785156 287 C 338.785156 275.285156 348.285156 265.785156 360 265.785156 C 371.714844 265.785156 381.214844 275.285156 381.214844 287 "/>
<path style="fill-rule:nonzero;fill:rgb(100%,51%,0%);fill-opacity:1;stroke-width:1;stroke-linecap:butt;stroke-linejoin:miter;stroke:rgb(0%,0%,0%);stroke-opacity:1;stroke-miterlimit:10;" d="M 362 411 L 336.019531 456 L 387.980469 456 L 362 411 "/>
<path style="fill-rule:nonzero;fill:rgb(100%,51%,0%);fill-opacity:1;stroke-width:1;stroke-linecap:butt;stroke-linejoin:miter;stroke:rgb(0%,0%,0%);stroke-opacity:1;stroke-miterlimit:10;" d="M 406.214844 65 C 406.214844 76.714844 396.714844 86.214844 385 86.214844 C 373.285156 86.214844 363.785156 76.714844 363.785156 65 C 363.785156 53.285156 373.285156 43.785156 385 43.785156 C 396.714844 43.785156 406.214844 53.285156 406.214844 65 "/>
<path style="fill-rule:nonzero;fill:rgb(100%,51%,0%);fill-opacity:1;stroke-width:1;stroke-linecap:butt;stroke-linejoin:miter;stroke:rgb(0%,0%,0%);stroke-opacity:1;stroke-miterlimit:10;" d="M 252 90 L 226.019531 135 L 277.980469 135 L 252 90 "/>
<path style="fill-rule:nonzero;fill:rgb(100%,51%,0%);fill-opacity:1;stroke-width:1;stroke-linecap:butt;stroke-linejoin:miter;stroke:rgb(0%,0%,0%);stroke-opacity:1;stroke-miterlimit:10;" d="M 127.214844 408 C 127.214844 419.714844 117.714844 429.214844 106 429.214844 C 94.285156 429.214844 84.785156 419.714844 84.785156 408 C 84.785156 396.285156 94.285156 386.785156 106 386.785156 C 117.714844 386.785156 127.214844 396.285156 127.214844 408 "/>
<path style="fill-rule:nonzero;fill:rgb(100%,51%,0%);fill-opacity:1;stroke-width:1;stroke-linecap:butt;stroke-linejoin:miter;stroke:rgb(0%,0%,0%);stroke-opacity:1;stroke-miterlimit:10;" d="M 206.214844 330 C 206.214844 341.714844 196.714844 351.214844 185 351.214844 C 173.285156 351.214844 163.785156 341.714844 163.785156 330 C 163.785156 318.285156 173.285156 308.785156 185 308.785156 C 196.714844 308.785156 206.214844 318.285156 206.214844 330 "/>
<path style="fill-rule:nonzero;fill:rgb(100%,51%,0%);fill-opacity:1;stroke-width:1;stroke-linecap:butt;stroke-linejoin:miter;stroke:rgb(0%,0%,0%);stroke-opacity:1;stroke-miterlimit:10;" d="M 228.214844 206 C 228.214844 217.714844 218.714844 227.214844 207 227.214844 C 195.285156 227.214844 185.785156 217.714844 185.785156 206 C 185.785156 194.285156 195.285156 184.785156 207 184.785156 C 218.714844 184.785156 228.214844 194.285156 228.214844 206 "/>
<path style="fill-rule:nonzero;fill:rgb(100%,51%,0%);fill-opacity:1;stroke-width:1;stroke-linecap:butt;stroke-linejoin:miter;stroke:rgb(0%,0%,0%);stroke-opacity:1;stroke-miterlimit:10;" d="M 129.214844 169 C 129.214844 180.714844 119.714844 190.214844 108 190.214844 C 96.285156 190.214844 86.785156 180.714844 86.785156 169 C 86.785156 157.285156 96.285156 147.785156 108 147.785156 C 119.714844 147.785156 129.214844 157.285156 129.214844 169 "/>
<path style="fill-rule:nonzero;fill:rgb(55%,51%,53%);fill-opacity:1;stroke-width:1;stroke-linecap:butt;stroke-linejoin:miter;stroke:rgb(0%,0%,0%);stroke-opacity:1;stroke-miterlimit:10;" d="M 881 12 L 855.019531 57 L 906.980469 57 L 881 12 "/>
<path style="fill-rule:nonzero;fill:rgb(55%,51%,53%);fill-opacity:1;stroke-width:1;stroke-linecap:butt;stroke-linejoin:miter;stroke:rgb(0%,0%,0%);stroke-opacity:1;stroke-miterlimit:10;" d="M 880.214844 456 C 880.214844 467.714844 870.714844 477.214844 859 477.214844 C 847.285156 477.214844 837.785156 467.714844 837.785156 456 C 837.785156 444.285156 847.285156 434.785156 859 434.785156 C 870.714844 434.785156 880.214844 444.285156 880.214844 456 "/>
<path style="fill-rule:nonzero;fill:rgb(55%,51%,53%);fill-opacity:1;stroke-width:1;stroke-linecap:butt;stroke-linejoin:miter;stroke:rgb(0%,0%,0%);stroke-opacity:1;stroke-miterlimit:10;" d="M 711 36 L 685.019531 81 L 736.980469 81 L 711 36 "/>
<path style="fill-rule:nonzero;fill:rgb(55%,51%,53%);fill-opacity:1;stroke-width:1;stroke-linecap:butt;stroke-linejoin:miter;stroke:rgb(0%,0%,0%);stroke-opacity:1;stroke-miterlimit:10;" d="M 642.214844 429 C 642.214844 440.714844 632.714844 450.214844 621 450.214844 C 609.285156 450.214844 599.785156 440.714844 599.785156 429 C 599.785156 417.285156 609.285156 407.785156 621 407.785156 C 632.714844 407.785156 642.214844 417.285156 642.214844 429 "/>
</g>
</svg>
