<?xml version="1.0" encoding="UTF-8"?>
<svg xmlns="http://www.w3.org/2000/svg" xmlns:xlink="http://www.w3.org/1999/xlink" width="1129pt" height="517pt" viewBox="0 0 1129 517" version="1.1">
<g id="surface156">
<rect x="0" y="0" width="1129" height="517" style="fill:rgb(90%,90%,90%);fill-opacity:1;stroke:none;"/>
<path style="fill-rule:nonzero;fill:rgb(55%,51%,53%);fill-opacity:1;stroke-width:1;stroke-linecap:butt;stroke-linejoin:miter;stroke:rgb(0%,0%,0%);stroke-opacity:1;stroke-miterlimit:10;" d="M 904 98 L 933.664062 98 L 945.664062 69.785156 L 957.664062 98 L 987.332031 98 L 963.332031 115.4375 L 971.417969 146.980469 L 945.664062 129.542969 L 919.914062 146.980469 L 932.214844 115.4375 L 904 98 "/>
<path style="fill-rule:nonzero;fill:rgb(55%,51%,53%);fill-opacity:1;stroke-width:1;stroke-linecap:butt;stroke-linejoin:miter;stroke:rgb(0%,0%,0%);stroke-opacity:1;stroke-miterlimit:10;" d="M 107 357 L 136.664062 357 L 148.664062 328.785156 L 160.664062 357 L 190.332031 357 L 166.332031 374.4375 L 174.417969 405.980469 L 148.664062 388.542969 L 122.914062 405.980469 L 135.214844 374.4375 L 107 357 "/>
<path style="fill-rule:nonzero;fill:rgb(55%,51%,53%);fill-opacity:1;stroke-width:1;stroke-linecap:butt;stroke-linejoin:miter;stroke:rgb(0%,0%,0%);stroke-opacity:1;stroke-miterlimit:10;" d="M 639 223 L 668.664062 223 L 680.664062 194.785156 L 692.664062 223 L 722.332031 223 L 698.332031 240.4375 L 706.417969 271.980469 L 680.664062 254.542969 L 654.914062 271.980469 L 667.214844 240.4375 L 639 223 "/>
<path style="fill-rule:nonzero;fill:rgb(53%,27%,7%);fill-opacity:1;stroke-width:1;stroke-linecap:butt;stroke-linejoin:miter;stroke:rgb(0%,0%,0%);stroke-opacity:1;stroke-miterlimit:10;" d="M 615 391 L 589.019531 436 L 640.980469 436 L 615 391 "/>
<path style="fill-rule:nonzero;fill:rgb(53%,27%,7%);fill-opacity:1;stroke-width:1;stroke-linecap:butt;stroke-linejoin:miter;stroke:rgb(0%,0%,0%);stroke-opacity:1;stroke-miterlimit:10;" d="M 423 181 L 397.019531 226 L 448.980469 226 L 423 181 "/>
<path style="fill-rule:nonzero;fill:rgb(53%,27%,7%);fill-opacity:1;stroke-width:1;stroke-linecap:butt;stroke-linejoin:miter;stroke:rgb(0%,0%,0%);stroke-opacity:1;stroke-miterlimit:10;" d="M 268 52 L 242.019531 97 L 293.980469 97 L 268 52 "/>
</g>
</svg>
