<?xml version="1.0" encoding="UTF-8"?>
<svg xmlns="http://www.w3.org/2000/svg" xmlns:xlink="http://www.w3.org/1999/xlink" width="1129pt" height="517pt" viewBox="0 0 1129 517" version="1.1">
<g id="surface321">
<rect x="0" y="0" width="1129" height="517" style="fill:rgb(90%,90%,90%);fill-opacity:1;stroke:none;"/>
<path style="fill-rule:nonzero;fill:rgb(100%,51%,0%);fill-opacity:1;stroke-width:1;stroke-linecap:butt;stroke-linejoin:miter;stroke:rgb(0%,0%,0%);stroke-opacity:1;stroke-miterlimit:10;" d="M 346.214844 427 C 346.214844 438.714844 336.714844 448.214844 325 448.214844 C 313.285156 448.214844 303.785156 438.714844 303.785156 427 C 303.785156 415.285156 313.285156 405.785156 325 405.785156 C 336.714844 405.785156 346.214844 415.285156 346.214844 427 "/>
<path style="fill-rule:nonzero;fill:rgb(100%,51%,0%);fill-opacity:1;stroke-width:1;stroke-linecap:butt;stroke-linejoin:miter;stroke:rgb(0%,0%,0%);stroke-opacity:1;stroke-miterlimit:10;" d="M 445.214844 254 C 445.214844 265.714844 435.714844 275.214844 424 275.214844 C 412.285156 275.214844 402.785156 265.714844 402.785156 254 C 402.785156 242.285156 412.285156 232.785156 424 232.785156 C 435.714844 232.785156 445.214844 242.285156 445.214844 254 "/>
<path style="fill-rule:nonzero;fill:rgb(55%,51%,53%);fill-opacity:1;stroke-width:1;stroke-linecap:butt;stroke-linejoin:miter;stroke:rgb(0%,0%,0%);stroke-opacity:1;stroke-miterlimit:10;" d="M 259.214844 184 C 259.214844 195.714844 249.714844 205.214844 238 205.214844 C 226.285156 205.214844 216.785156 195.714844 216.785156 184 C 216.785156 172.285156 226.285156 162.785156 238 162.785156 C 249.714844 162.785156 259.214844 172.285156 259.214844 184 "/>
<path style="fill-rule:nonzero;fill:rgb(100%,51%,0%);fill-opacity:1;stroke-width:1;stroke-linecap:butt;stroke-linejoin:miter;stroke:rgb(0%,0%,0%);stroke-opacity:1;stroke-miterlimit:10;" d="M 334.214844 327 C 334.214844 338.714844 324.714844 348.214844 313 348.214844 C 301.285156 348.214844 291.785156 338.714844 291.785156 327 C 291.785156 315.285156 301.285156 305.785156 313 305.785156 C 324.714844 305.785156 334.214844 315.285156 334.214844 327 "/>
<path style="fill-rule:nonzero;fill:rgb(100%,51%,0%);fill-opacity:1;stroke-width:1;stroke-linecap:butt;stroke-linejoin:miter;stroke:rgb(0%,0%,0%);stroke-opacity:1;stroke-miterlimit:10;" d="M 90.214844 312 C 90.214844 323.714844 80.714844 333.214844 69 333.214844 C 57.285156 333.214844 47.785156 323.714844 47.785156 312 C 47.785156 300.285156 57.285156 290.785156 69 290.785156 C 80.714844 290.785156 90.214844 300.285156 90.214844 312 "/>
<path style="fill-rule:nonzero;fill:rgb(55%,51%,53%);fill-opacity:1;stroke-width:1;stroke-linecap:butt;stroke-linejoin:miter;stroke:rgb(0%,0%,0%);stroke-opacity:1;stroke-miterlimit:10;" d="M 789.785156 244.785156 L 789.785156 287.214844 L 832.214844 287.214844 L 832.214844 244.785156 L 789.785156 244.785156 "/>
<path style="fill-rule:nonzero;fill:rgb(55%,51%,53%);fill-opacity:1;stroke-width:1;stroke-linecap:butt;stroke-linejoin:miter;stroke:rgb(0%,0%,0%);stroke-opacity:1;stroke-miterlimit:10;" d="M 680.785156 402.785156 L 680.785156 445.214844 L 723.214844 445.214844 L 723.214844 402.785156 L 680.785156 402.785156 "/>
<path style="fill-rule:nonzero;fill:rgb(100%,51%,0%);fill-opacity:1;stroke-width:1;stroke-linecap:butt;stroke-linejoin:miter;stroke:rgb(0%,0%,0%);stroke-opacity:1;stroke-miterlimit:10;" d="M 672.785156 302.785156 L 672.785156 345.214844 L 715.214844 345.214844 L 715.214844 302.785156 L 672.785156 302.785156 "/>
<path style="fill-rule:nonzero;fill:rgb(55%,51%,53%);fill-opacity:1;stroke-width:1;stroke-linecap:butt;stroke-linejoin:miter;stroke:rgb(0%,0%,0%);stroke-opacity:1;stroke-miterlimit:10;" d="M 931.785156 398.785156 L 931.785156 441.214844 L 974.214844 441.214844 L 974.214844 398.785156 L 931.785156 398.785156 "/>
</g>
</svg>
