<?xml version="1.0" encoding="UTF-8"?>
<svg xmlns="http://www.w3.org/2000/svg" xmlns:xlink="http://www.w3.org/1999/xlink" width="1129pt" height="517pt" viewBox="0 0 1129 517" version="1.1">
<g id="surface341">
<rect x="0" y="0" width="1129" height="517" style="fill:rgb(90%,90%,90%);fill-opacity:1;stroke:none;"/>
<path style="fill-rule:nonzero;fill:rgb(55%,51%,53%);fill-opacity:1;stroke-width:1;stroke-linecap:butt;stroke-linejoin:miter;stroke:rgb(0%,0%,0%);stroke-opacity:1;stroke-miterlimit:10;" d="M 325 151 L 354.664062 151 L 366.664062 122.785156 L 378.664062 151 L 408.332031 151 L 384.332031 168.4375 L 392.417969 199.980469 L 366.664062 182.542969 L 340.914062 199.980469 L 353.214844 168.4375 L 325 151 "/>
<path style="fill-rule:nonzero;fill:rgb(55%,51%,53%);fill-opacity:1;stroke-width:1;stroke-linecap:butt;stroke-linejoin:miter;stroke:rgb(0%,0%,0%);stroke-opacity:1;stroke-miterlimit:10;" d="M 131 259 L 160.664062 259 L 172.664062 230.785156 L 184.664062 259 L 214.332031 259 L 190.332031 276.4375 L 198.417969 307.980469 L 172.664062 290.542969 L 146.914062 307.980469 L 159.214844 276.4375 L 131 259 "/>
<path style="fill-rule:nonzero;fill:rgb(53%,27%,7%);fill-opacity:1;stroke-width:1;stroke-linecap:butt;stroke-linejoin:miter;stroke:rgb(0%,0%,0%);stroke-opacity:1;stroke-miterlimit:10;" d="M 165 413 L 194.664062 413 L 206.664062 384.785156 L 218.664062 413 L 248.332031 413 L 224.332031 430.4375 L 232.417969 461.980469 L 206.664062 444.542969 L 180.914062 461.980469 L 193.214844 430.4375 L 165 413 "/>
<path style="fill-rule:nonzero;fill:rgb(53%,27%,7%);fill-opacity:1;stroke-width:1;stroke-linecap:butt;stroke-linejoin:miter;stroke:rgb(0%,0%,0%);stroke-opacity:1;stroke-miterlimit:10;" d="M 190 190 L 219.664062 190 L 231.664062 161.785156 L 243.664062 190 L 273.332031 190 L 249.332031 207.4375 L 257.417969 238.980469 L 231.664062 221.542969 L 205.914062 238.980469 L 218.214844 207.4375 L 190 190 "/>
<path style="fill-rule:nonzero;fill:rgb(53%,27%,7%);fill-opacity:1;stroke-width:1;stroke-linecap:butt;stroke-linejoin:miter;stroke:rgb(0%,0%,0%);stroke-opacity:1;stroke-miterlimit:10;" d="M 110.785156 53.785156 L 110.785156 96.214844 L 153.214844 96.214844 L 153.214844 53.785156 L 110.785156 53.785156 "/>
</g>
</svg>
