<?xml version="1.0" encoding="UTF-8"?>
<svg xmlns="http://www.w3.org/2000/svg" xmlns:xlink="http://www.w3.org/1999/xlink" width="1129pt" height="517pt" viewBox="0 0 1129 517" version="1.1">
<g id="surface101">
<rect x="0" y="0" width="1129" height="517" style="fill:rgb(90%,90%,90%);fill-opacity:1;stroke:none;"/>
<path style="fill-rule:nonzero;fill:rgb(100%,51%,0%);fill-opacity:1;stroke-width:1;stroke-linecap:butt;stroke-linejoin:miter;stroke:rgb(0%,0%,0%);stroke-opacity:1;stroke-miterlimit:10;" d="M 243 59 L 272.664062 59 L 284.664062 30.785156 L 296.664062 59 L 326.332031 59 L 302.332031 76.4375 L 310.417969 107.980469 L 284.664062 90.542969 L 258.914062 107.980469 L 271.214844 76.4375 L 243 59 "/>
<path style="fill-rule:nonzero;fill:rgb(100%,51%,0%);fill-opacity:1;stroke-width:1;stroke-linecap:butt;stroke-linejoin:miter;stroke:rgb(0%,0%,0%);stroke-opacity:1;stroke-miterlimit:10;" d="M 81.785156 314.785156 L 81.785156 357.214844 L 124.214844 357.214844 L 124.214844 314.785156 L 81.785156 314.785156 "/>
<path style="fill-rule:nonzero;fill:rgb(100%,51%,0%);fill-opacity:1;stroke-width:1;stroke-linecap:butt;stroke-linejoin:miter;stroke:rgb(0%,0%,0%);stroke-opacity:1;stroke-miterlimit:10;" d="M 215 288 L 244.664062 288 L 256.664062 259.785156 L 268.664062 288 L 298.332031 288 L 274.332031 305.4375 L 282.417969 336.980469 L 256.664062 319.542969 L 230.914062 336.980469 L 243.214844 305.4375 L 215 288 "/>
<path style="fill-rule:nonzero;fill:rgb(100%,51%,0%);fill-opacity:1;stroke-width:1;stroke-linecap:butt;stroke-linejoin:miter;stroke:rgb(0%,0%,0%);stroke-opacity:1;stroke-miterlimit:10;" d="M 145.785156 443.785156 L 145.785156 486.214844 L 188.214844 486.214844 L 188.214844 443.785156 L 145.785156 443.785156 "/>
<path style="fill-rule:nonzero;fill:rgb(100%,51%,0%);fill-opacity:1;stroke-width:1;stroke-linecap:butt;stroke-linejoin:miter;stroke:rgb(0%,0%,0%);stroke-opacity:1;stroke-miterlimit:10;" d="M 448 117 L 477.664062 117 L 489.664062 88.785156 L 501.664062 117 L 531.332031 117 L 507.332031 134.4375 L 515.417969 165.980469 L 489.664062 148.542969 L 463.914062 165.980469 L 476.214844 134.4375 L 448 117 "/>
<path style="fill-rule:nonzero;fill:rgb(100%,51%,0%);fill-opacity:1;stroke-width:1;stroke-linecap:butt;stroke-linejoin:miter;stroke:rgb(0%,0%,0%);stroke-opacity:1;stroke-miterlimit:10;" d="M 380 275 L 409.664062 275 L 421.664062 246.785156 L 433.664062 275 L 463.332031 275 L 439.332031 292.4375 L 447.417969 323.980469 L 421.664062 306.542969 L 395.914062 323.980469 L 408.214844 292.4375 L 380 275 "/>
<path style="fill-rule:nonzero;fill:rgb(53%,27%,7%);fill-opacity:1;stroke-width:1;stroke-linecap:butt;stroke-linejoin:miter;stroke:rgb(0%,0%,0%);stroke-opacity:1;stroke-miterlimit:10;" d="M 690.785156 109.785156 L 690.785156 152.214844 L 733.214844 152.214844 L 733.214844 109.785156 L 690.785156 109.785156 "/>
<path style="fill-rule:nonzero;fill:rgb(53%,27%,7%);fill-opacity:1;stroke-width:1;stroke-linecap:butt;stroke-linejoin:miter;stroke:rgb(0%,0%,0%);stroke-opacity:1;stroke-miterlimit:10;" d="M 710 237 L 739.664062 237 L 751.664062 208.785156 L 763.664062 237 L 793.332031 237 L 769.332031 254.4375 L 777.417969 285.980469 L 751.664062 268.542969 L 725.914062 285.980469 L 738.214844 254.4375 L 710 237 "/>
<path style="fill-rule:nonzero;fill:rgb(53%,27%,7%);fill-opacity:1;stroke-width:1;stroke-linecap:butt;stroke-linejoin:miter;stroke:rgb(0%,0%,0%);stroke-opacity:1;stroke-miterlimit:10;" d="M 790.785156 104.785156 L 790.785156 147.214844 L 833.214844 147.214844 L 833.214844 104.785156 L 790.785156 104.785156 "/>
<path style="fill-rule:nonzero;fill:rgb(53%,27%,7%);fill-opacity:1;stroke-width:1;stroke-linecap:butt;stroke-linejoin:miter;stroke:rgb(0%,0%,0%);stroke-opacity:1;stroke-miterlimit:10;" d="M 804 255 L 833.664062 255 L 845.664062 226.785156 L 857.664062 255 L 887.332031 255 L 863.332031 272.4375 L 871.417969 303.980469 L 845.664062 286.542969 L 819.914062 303.980469 L 832.214844 272.4375 L 804 255 "/>
<path style="fill-rule:nonzero;fill:rgb(53%,27%,7%);fill-opacity:1;stroke-width:1;stroke-linecap:butt;stroke-linejoin:miter;stroke:rgb(0%,0%,0%);stroke-opacity:1;stroke-miterlimit:10;" d="M 750.785156 401.785156 L 750.785156 444.214844 L 793.214844 444.214844 L 793.214844 401.785156 L 750.785156 401.785156 "/>
</g>
</svg>
