<?xml version="1.0" encoding="UTF-8"?>
<svg xmlns="http://www.w3.org/2000/svg" xmlns:xlink="http://www.w3.org/1999/xlink" width="1129pt" height="517pt" viewBox="0 0 1129 517" version="1.1">
<g id="surface441">
<rect x="0" y="0" width="1129" height="517" style="fill:rgb(90%,90%,90%);fill-opacity:1;stroke:none;"/>
<path style="fill-rule:nonzero;fill:rgb(35%,70%,90%);fill-opacity:1;stroke-width:1;stroke-linecap:butt;stroke-linejoin:miter;stroke:rgb(0%,0%,0%);stroke-opacity:1;stroke-miterlimit:10;" d="M 393.214844 282 C 393.214844 293.714844 383.714844 303.214844 372 303.214844 C 360.285156 303.214844 350.785156 293.714844 350.785156 282 C 350.785156 270.285156 360.285156 260.785156 372 260.785156 C 383.714844 260.785156 393.214844 270.285156 393.214844 282 "/>
<path style="fill-rule:nonzero;fill:rgb(35%,70%,90%);fill-opacity:1;stroke-width:1;stroke-linecap:butt;stroke-linejoin:miter;stroke:rgb(0%,0%,0%);stroke-opacity:1;stroke-miterlimit:10;" d="M 233.214844 269 C 233.214844 280.714844 223.714844 290.214844 212 290.214844 C 200.285156 290.214844 190.785156 280.714844 190.785156 269 C 190.785156 257.285156 200.285156 247.785156 212 247.785156 C 223.714844 247.785156 233.214844 257.285156 233.214844 269 "/>
<path style="fill-rule:nonzero;fill:rgb(35%,70%,90%);fill-opacity:1;stroke-width:1;stroke-linecap:butt;stroke-linejoin:miter;stroke:rgb(0%,0%,0%);stroke-opacity:1;stroke-miterlimit:10;" d="M 100.785156 142.785156 L 100.785156 185.214844 L 143.214844 185.214844 L 143.214844 142.785156 L 100.785156 142.785156 "/>
<path style="fill-rule:nonzero;fill:rgb(35%,70%,90%);fill-opacity:1;stroke-width:1;stroke-linecap:butt;stroke-linejoin:miter;stroke:rgb(0%,0%,0%);stroke-opacity:1;stroke-miterlimit:10;" d="M 279.785156 350.785156 L 279.785156 393.214844 L 322.214844 393.214844 L 322.214844 350.785156 L 279.785156 350.785156 "/>
<path style="fill-rule:nonzero;fill:rgb(35%,70%,90%);fill-opacity:1;stroke-width:1;stroke-linecap:butt;stroke-linejoin:miter;stroke:rgb(0%,0%,0%);stroke-opacity:1;stroke-miterlimit:10;" d="M 464.214844 139 C 464.214844 150.714844 454.714844 160.214844 443 160.214844 C 431.285156 160.214844 421.785156 150.714844 421.785156 139 C 421.785156 127.285156 431.285156 117.785156 443 117.785156 C 454.714844 117.785156 464.214844 127.285156 464.214844 139 "/>
<path style="fill-rule:nonzero;fill:rgb(35%,70%,90%);fill-opacity:1;stroke-width:1;stroke-linecap:butt;stroke-linejoin:miter;stroke:rgb(0%,0%,0%);stroke-opacity:1;stroke-miterlimit:10;" d="M 281.214844 59 C 281.214844 70.714844 271.714844 80.214844 260 80.214844 C 248.285156 80.214844 238.785156 70.714844 238.785156 59 C 238.785156 47.285156 248.285156 37.785156 260 37.785156 C 271.714844 37.785156 281.214844 47.285156 281.214844 59 "/>
<path style="fill-rule:nonzero;fill:rgb(55%,51%,53%);fill-opacity:1;stroke-width:1;stroke-linecap:butt;stroke-linejoin:miter;stroke:rgb(0%,0%,0%);stroke-opacity:1;stroke-miterlimit:10;" d="M 1008.785156 410.785156 L 1008.785156 453.214844 L 1051.214844 453.214844 L 1051.214844 410.785156 L 1008.785156 410.785156 "/>
<path style="fill-rule:nonzero;fill:rgb(55%,51%,53%);fill-opacity:1;stroke-width:1;stroke-linecap:butt;stroke-linejoin:miter;stroke:rgb(0%,0%,0%);stroke-opacity:1;stroke-miterlimit:10;" d="M 798.785156 107.785156 L 798.785156 150.214844 L 841.214844 150.214844 L 841.214844 107.785156 L 798.785156 107.785156 "/>
<path style="fill-rule:nonzero;fill:rgb(55%,51%,53%);fill-opacity:1;stroke-width:1;stroke-linecap:butt;stroke-linejoin:miter;stroke:rgb(0%,0%,0%);stroke-opacity:1;stroke-miterlimit:10;" d="M 664.214844 139 C 664.214844 150.714844 654.714844 160.214844 643 160.214844 C 631.285156 160.214844 621.785156 150.714844 621.785156 139 C 621.785156 127.285156 631.285156 117.785156 643 117.785156 C 654.714844 117.785156 664.214844 127.285156 664.214844 139 "/>
<path style="fill-rule:nonzero;fill:rgb(55%,51%,53%);fill-opacity:1;stroke-width:1;stroke-linecap:butt;stroke-linejoin:miter;stroke:rgb(0%,0%,0%);stroke-opacity:1;stroke-miterlimit:10;" d="M 922.214844 441 C 922.214844 452.714844 912.714844 462.214844 901 462.214844 C 889.285156 462.214844 879.785156 452.714844 879.785156 441 C 879.785156 429.285156 889.285156 419.785156 901 419.785156 C 912.714844 419.785156 922.214844 429.285156 922.214844 441 "/>
<path style="fill-rule:nonzero;fill:rgb(55%,51%,53%);fill-opacity:1;stroke-width:1;stroke-linecap:butt;stroke-linejoin:miter;stroke:rgb(0%,0%,0%);stroke-opacity:1;stroke-miterlimit:10;" d="M 793.785156 322.785156 L 793.785156 365.214844 L 836.214844 365.214844 L 836.214844 322.785156 L 793.785156 322.785156 "/>
<path style="fill-rule:nonzero;fill:rgb(55%,51%,53%);fill-opacity:1;stroke-width:1;stroke-linecap:butt;stroke-linejoin:miter;stroke:rgb(0%,0%,0%);stroke-opacity:1;stroke-miterlimit:10;" d="M 969.785156 141.785156 L 969.785156 184.214844 L 1012.214844 184.214844 L 1012.214844 141.785156 L 969.785156 141.785156 "/>
</g>
</svg>
