<?xml version="1.0" encoding="UTF-8"?>
<svg xmlns="http://www.w3.org/2000/svg" xmlns:xlink="http://www.w3.org/1999/xlink" width="1129pt" height="517pt" viewBox="0 0 1129 517" version="1.1">
<g id="surface406">
<rect x="0" y="0" width="1129" height="517" style="fill:rgb(90%,90%,90%);fill-opacity:1;stroke:none;"/>
<path style="fill-rule:nonzero;fill:rgb(35%,70%,90%);fill-opacity:1;stroke-width:1;stroke-linecap:butt;stroke-linejoin:miter;stroke:rgb(0%,0%,0%);stroke-opacity:1;stroke-miterlimit:10;" d="M 430.214844 57 C 430.214844 68.714844 420.714844 78.214844 409 78.214844 C 397.285156 78.214844 387.785156 68.714844 387.785156 57 C 387.785156 45.285156 397.285156 35.785156 409 35.785156 C 420.714844 35.785156 430.214844 45.285156 430.214844 57 "/>
<path style="fill-rule:nonzero;fill:rgb(35%,70%,90%);fill-opacity:1;stroke-width:1;stroke-linecap:butt;stroke-linejoin:miter;stroke:rgb(0%,0%,0%);stroke-opacity:1;stroke-miterlimit:10;" d="M 358.214844 230 C 358.214844 241.714844 348.714844 251.214844 337 251.214844 C 325.285156 251.214844 315.785156 241.714844 315.785156 230 C 315.785156 218.285156 325.285156 208.785156 337 208.785156 C 348.714844 208.785156 358.214844 218.285156 358.214844 230 "/>
<path style="fill-rule:nonzero;fill:rgb(35%,70%,90%);fill-opacity:1;stroke-width:1;stroke-linecap:butt;stroke-linejoin:miter;stroke:rgb(0%,0%,0%);stroke-opacity:1;stroke-miterlimit:10;" d="M 89 387 L 63.019531 432 L 114.980469 432 L 89 387 "/>
<path style="fill-rule:nonzero;fill:rgb(35%,70%,90%);fill-opacity:1;stroke-width:1;stroke-linecap:butt;stroke-linejoin:miter;stroke:rgb(0%,0%,0%);stroke-opacity:1;stroke-miterlimit:10;" d="M 62.214844 50 C 62.214844 61.714844 52.714844 71.214844 41 71.214844 C 29.285156 71.214844 19.785156 61.714844 19.785156 50 C 19.785156 38.285156 29.285156 28.785156 41 28.785156 C 52.714844 28.785156 62.214844 38.285156 62.214844 50 "/>
<path style="fill-rule:nonzero;fill:rgb(35%,70%,90%);fill-opacity:1;stroke-width:1;stroke-linecap:butt;stroke-linejoin:miter;stroke:rgb(0%,0%,0%);stroke-opacity:1;stroke-miterlimit:10;" d="M 468.214844 292 C 468.214844 303.714844 458.714844 313.214844 447 313.214844 C 435.285156 313.214844 425.785156 303.714844 425.785156 292 C 425.785156 280.285156 435.285156 270.785156 447 270.785156 C 458.714844 270.785156 468.214844 280.285156 468.214844 292 "/>
<path style="fill-rule:nonzero;fill:rgb(35%,70%,90%);fill-opacity:1;stroke-width:1;stroke-linecap:butt;stroke-linejoin:miter;stroke:rgb(0%,0%,0%);stroke-opacity:1;stroke-miterlimit:10;" d="M 482.214844 147 C 482.214844 158.714844 472.714844 168.214844 461 168.214844 C 449.285156 168.214844 439.785156 158.714844 439.785156 147 C 439.785156 135.285156 449.285156 125.785156 461 125.785156 C 472.714844 125.785156 482.214844 135.285156 482.214844 147 "/>
<path style="fill-rule:nonzero;fill:rgb(53%,27%,7%);fill-opacity:1;stroke-width:1;stroke-linecap:butt;stroke-linejoin:miter;stroke:rgb(0%,0%,0%);stroke-opacity:1;stroke-miterlimit:10;" d="M 652 218 L 626.019531 263 L 677.980469 263 L 652 218 "/>
<path style="fill-rule:nonzero;fill:rgb(53%,27%,7%);fill-opacity:1;stroke-width:1;stroke-linecap:butt;stroke-linejoin:miter;stroke:rgb(0%,0%,0%);stroke-opacity:1;stroke-miterlimit:10;" d="M 676 55 L 650.019531 100 L 701.980469 100 L 676 55 "/>
<path style="fill-rule:nonzero;fill:rgb(53%,27%,7%);fill-opacity:1;stroke-width:1;stroke-linecap:butt;stroke-linejoin:miter;stroke:rgb(0%,0%,0%);stroke-opacity:1;stroke-miterlimit:10;" d="M 910.214844 143 C 910.214844 154.714844 900.714844 164.214844 889 164.214844 C 877.285156 164.214844 867.785156 154.714844 867.785156 143 C 867.785156 131.285156 877.285156 121.785156 889 121.785156 C 900.714844 121.785156 910.214844 131.285156 910.214844 143 "/>
<path style="fill-rule:nonzero;fill:rgb(53%,27%,7%);fill-opacity:1;stroke-width:1;stroke-linecap:butt;stroke-linejoin:miter;stroke:rgb(0%,0%,0%);stroke-opacity:1;stroke-miterlimit:10;" d="M 966 319 L 940.019531 364 L 991.980469 364 L 966 319 "/>
</g>
</svg>
