<?xml version="1.0" encoding="UTF-8"?>
<svg xmlns="http://www.w3.org/2000/svg" xmlns:xlink="http://www.w3.org/1999/xlink" width="1129pt" height="517pt" viewBox="0 0 1129 517" version="1.1">
<g id="surface556">
<rect x="0" y="0" width="1129" height="517" style="fill:rgb(90%,90%,90%);fill-opacity:1;stroke:none;"/>
<path style="fill-rule:nonzero;fill:rgb(35%,70%,90%);fill-opacity:1;stroke-width:1;stroke-linecap:butt;stroke-linejoin:miter;stroke:rgb(0%,0%,0%);stroke-opacity:1;stroke-miterlimit:10;" d="M 468.214844 270 C 468.214844 281.714844 458.714844 291.214844 447 291.214844 C 435.285156 291.214844 425.785156 281.714844 425.785156 270 C 425.785156 258.285156 435.285156 248.785156 447 248.785156 C 458.714844 248.785156 468.214844 258.285156 468.214844 270 "/>
<path style="fill-rule:nonzero;fill:rgb(100%,51%,0%);fill-opacity:1;stroke-width:1;stroke-linecap:butt;stroke-linejoin:miter;stroke:rgb(0%,0%,0%);stroke-opacity:1;stroke-miterlimit:10;" d="M 423.214844 152 C 423.214844 163.714844 413.714844 173.214844 402 173.214844 C 390.285156 173.214844 380.785156 163.714844 380.785156 152 C 380.785156 140.285156 390.285156 130.785156 402 130.785156 C 413.714844 130.785156 423.214844 140.285156 423.214844 152 "/>
<path style="fill-rule:nonzero;fill:rgb(35%,70%,90%);fill-opacity:1;stroke-width:1;stroke-linecap:butt;stroke-linejoin:miter;stroke:rgb(0%,0%,0%);stroke-opacity:1;stroke-miterlimit:10;" d="M 302.214844 377 C 302.214844 388.714844 292.714844 398.214844 281 398.214844 C 269.285156 398.214844 259.785156 388.714844 259.785156 377 C 259.785156 365.285156 269.285156 355.785156 281 355.785156 C 292.714844 355.785156 302.214844 365.285156 302.214844 377 "/>
<path style="fill-rule:nonzero;fill:rgb(100%,51%,0%);fill-opacity:1;stroke-width:1;stroke-linecap:butt;stroke-linejoin:miter;stroke:rgb(0%,0%,0%);stroke-opacity:1;stroke-miterlimit:10;" d="M 301 161 L 275.019531 206 L 326.980469 206 L 301 161 "/>
</g>
</svg>
