<?xml version="1.0" encoding="UTF-8"?>
<svg xmlns="http://www.w3.org/2000/svg" xmlns:xlink="http://www.w3.org/1999/xlink" width="1129pt" height="517pt" viewBox="0 0 1129 517" version="1.1">
<g id="surface196">
<rect x="0" y="0" width="1129" height="517" style="fill:rgb(90%,90%,90%);fill-opacity:1;stroke:none;"/>
<path style="fill-rule:nonzero;fill:rgb(35%,70%,90%);fill-opacity:1;stroke-width:1;stroke-linecap:butt;stroke-linejoin:miter;stroke:rgb(0%,0%,0%);stroke-opacity:1;stroke-miterlimit:10;" d="M 377.214844 335 C 377.214844 346.714844 367.714844 356.214844 356 356.214844 C 344.285156 356.214844 334.785156 346.714844 334.785156 335 C 334.785156 323.285156 344.285156 313.785156 356 313.785156 C 367.714844 313.785156 377.214844 323.285156 377.214844 335 "/>
<path style="fill-rule:nonzero;fill:rgb(35%,70%,90%);fill-opacity:1;stroke-width:1;stroke-linecap:butt;stroke-linejoin:miter;stroke:rgb(0%,0%,0%);stroke-opacity:1;stroke-miterlimit:10;" d="M 243.214844 61 C 243.214844 72.714844 233.714844 82.214844 222 82.214844 C 210.285156 82.214844 200.785156 72.714844 200.785156 61 C 200.785156 49.285156 210.285156 39.785156 222 39.785156 C 233.714844 39.785156 243.214844 49.285156 243.214844 61 "/>
<path style="fill-rule:nonzero;fill:rgb(100%,51%,0%);fill-opacity:1;stroke-width:1;stroke-linecap:butt;stroke-linejoin:miter;stroke:rgb(0%,0%,0%);stroke-opacity:1;stroke-miterlimit:10;" d="M 116.214844 105 C 116.214844 116.714844 106.714844 126.214844 95 126.214844 C 83.285156 126.214844 73.785156 116.714844 73.785156 105 C 73.785156 93.285156 83.285156 83.785156 95 83.785156 C 106.714844 83.785156 116.214844 93.285156 116.214844 105 "/>
<path style="fill-rule:nonzero;fill:rgb(100%,51%,0%);fill-opacity:1;stroke-width:1;stroke-linecap:butt;stroke-linejoin:miter;stroke:rgb(0%,0%,0%);stroke-opacity:1;stroke-miterlimit:10;" d="M 136 363 L 110.019531 408 L 161.980469 408 L 136 363 "/>
</g>
</svg>
