<?xml version="1.0" encoding="UTF-8"?>
<svg xmlns="http://www.w3.org/2000/svg" xmlns:xlink="http://www.w3.org/1999/xlink" width="1129pt" height="517pt" viewBox="0 0 1129 517" version="1.1">
<g id="surface451">
<rect x="0" y="0" width="1129" height="517" style="fill:rgb(90%,90%,90%);fill-opacity:1;stroke:none;"/>
<path style="fill-rule:nonzero;fill:rgb(100%,51%,0%);fill-opacity:1;stroke-width:1;stroke-linecap:butt;stroke-linejoin:miter;stroke:rgb(0%,0%,0%);stroke-opacity:1;stroke-miterlimit:10;" d="M 590 60 L 619.664062 60 L 631.664062 31.785156 L 643.664062 60 L 673.332031 60 L 649.332031 77.4375 L 657.417969 108.980469 L 631.664062 91.542969 L 605.914062 108.980469 L 618.214844 77.4375 L 590 60 "/>
<path style="fill-rule:nonzero;fill:rgb(100%,51%,0%);fill-opacity:1;stroke-width:1;stroke-linecap:butt;stroke-linejoin:miter;stroke:rgb(0%,0%,0%);stroke-opacity:1;stroke-miterlimit:10;" d="M 303 351 L 332.664062 351 L 344.664062 322.785156 L 356.664062 351 L 386.332031 351 L 362.332031 368.4375 L 370.417969 399.980469 L 344.664062 382.542969 L 318.914062 399.980469 L 331.214844 368.4375 L 303 351 "/>
<path style="fill-rule:nonzero;fill:rgb(100%,51%,0%);fill-opacity:1;stroke-width:1;stroke-linecap:butt;stroke-linejoin:miter;stroke:rgb(0%,0%,0%);stroke-opacity:1;stroke-miterlimit:10;" d="M 119 130 L 148.664062 130 L 160.664062 101.785156 L 172.664062 130 L 202.332031 130 L 178.332031 147.4375 L 186.417969 178.980469 L 160.664062 161.542969 L 134.914062 178.980469 L 147.214844 147.4375 L 119 130 "/>
<path style="fill-rule:nonzero;fill:rgb(100%,51%,0%);fill-opacity:1;stroke-width:1;stroke-linecap:butt;stroke-linejoin:miter;stroke:rgb(0%,0%,0%);stroke-opacity:1;stroke-miterlimit:10;" d="M 778 90 L 807.664062 90 L 819.664062 61.785156 L 831.664062 90 L 861.332031 90 L 837.332031 107.4375 L 845.417969 138.980469 L 819.664062 121.542969 L 793.914062 138.980469 L 806.214844 107.4375 L 778 90 "/>
<path style="fill-rule:nonzero;fill:rgb(100%,51%,0%);fill-opacity:1;stroke-width:1;stroke-linecap:butt;stroke-linejoin:miter;stroke:rgb(0%,0%,0%);stroke-opacity:1;stroke-miterlimit:10;" d="M 334 438 L 363.664062 438 L 375.664062 409.785156 L 387.664062 438 L 417.332031 438 L 393.332031 455.4375 L 401.417969 486.980469 L 375.664062 469.542969 L 349.914062 486.980469 L 362.214844 455.4375 L 334 438 "/>
<path style="fill-rule:nonzero;fill:rgb(100%,51%,0%);fill-opacity:1;stroke-width:1;stroke-linecap:butt;stroke-linejoin:miter;stroke:rgb(0%,0%,0%);stroke-opacity:1;stroke-miterlimit:10;" d="M 764 254 L 793.664062 254 L 805.664062 225.785156 L 817.664062 254 L 847.332031 254 L 823.332031 271.4375 L 831.417969 302.980469 L 805.664062 285.542969 L 779.914062 302.980469 L 792.214844 271.4375 L 764 254 "/>
<path style="fill-rule:nonzero;fill:rgb(100%,51%,0%);fill-opacity:1;stroke-width:1;stroke-linecap:butt;stroke-linejoin:miter;stroke:rgb(0%,0%,0%);stroke-opacity:1;stroke-miterlimit:10;" d="M 806 472 L 835.664062 472 L 847.664062 443.785156 L 859.664062 472 L 889.332031 472 L 865.332031 489.4375 L 873.417969 520.980469 L 847.664062 503.542969 L 821.914062 520.980469 L 834.214844 489.4375 L 806 472 "/>
<path style="fill-rule:nonzero;fill:rgb(100%,51%,0%);fill-opacity:1;stroke-width:1;stroke-linecap:butt;stroke-linejoin:miter;stroke:rgb(0%,0%,0%);stroke-opacity:1;stroke-miterlimit:10;" d="M 638 208 L 667.664062 208 L 679.664062 179.785156 L 691.664062 208 L 721.332031 208 L 697.332031 225.4375 L 705.417969 256.980469 L 679.664062 239.542969 L 653.914062 256.980469 L 666.214844 225.4375 L 638 208 "/>
<path style="fill-rule:nonzero;fill:rgb(53%,27%,7%);fill-opacity:1;stroke-width:1;stroke-linecap:butt;stroke-linejoin:miter;stroke:rgb(0%,0%,0%);stroke-opacity:1;stroke-miterlimit:10;" d="M 442.214844 227 C 442.214844 238.714844 432.714844 248.214844 421 248.214844 C 409.285156 248.214844 399.785156 238.714844 399.785156 227 C 399.785156 215.285156 409.285156 205.785156 421 205.785156 C 432.714844 205.785156 442.214844 215.285156 442.214844 227 "/>
<path style="fill-rule:nonzero;fill:rgb(53%,27%,7%);fill-opacity:1;stroke-width:1;stroke-linecap:butt;stroke-linejoin:miter;stroke:rgb(0%,0%,0%);stroke-opacity:1;stroke-miterlimit:10;" d="M 629.214844 437 C 629.214844 448.714844 619.714844 458.214844 608 458.214844 C 596.285156 458.214844 586.785156 448.714844 586.785156 437 C 586.785156 425.285156 596.285156 415.785156 608 415.785156 C 619.714844 415.785156 629.214844 425.285156 629.214844 437 "/>
<path style="fill-rule:nonzero;fill:rgb(53%,27%,7%);fill-opacity:1;stroke-width:1;stroke-linecap:butt;stroke-linejoin:miter;stroke:rgb(0%,0%,0%);stroke-opacity:1;stroke-miterlimit:10;" d="M 298.214844 79 C 298.214844 90.714844 288.714844 100.214844 277 100.214844 C 265.285156 100.214844 255.785156 90.714844 255.785156 79 C 255.785156 67.285156 265.285156 57.785156 277 57.785156 C 288.714844 57.785156 298.214844 67.285156 298.214844 79 "/>
<path style="fill-rule:nonzero;fill:rgb(53%,27%,7%);fill-opacity:1;stroke-width:1;stroke-linecap:butt;stroke-linejoin:miter;stroke:rgb(0%,0%,0%);stroke-opacity:1;stroke-miterlimit:10;" d="M 992.214844 72 C 992.214844 83.714844 982.714844 93.214844 971 93.214844 C 959.285156 93.214844 949.785156 83.714844 949.785156 72 C 949.785156 60.285156 959.285156 50.785156 971 50.785156 C 982.714844 50.785156 992.214844 60.285156 992.214844 72 "/>
</g>
</svg>
