<?xml version="1.0" encoding="UTF-8"?>
<svg xmlns="http://www.w3.org/2000/svg" xmlns:xlink="http://www.w3.org/1999/xlink" width="1129pt" height="517pt" viewBox="0 0 1129 517" version="1.1">
<g id="surface276">
<rect x="0" y="0" width="1129" height="517" style="fill:rgb(90%,90%,90%);fill-opacity:1;stroke:none;"/>
<path style="fill-rule:nonzero;fill:rgb(100%,51%,0%);fill-opacity:1;stroke-width:1;stroke-linecap:butt;stroke-linejoin:miter;stroke:rgb(0%,0%,0%);stroke-opacity:1;stroke-miterlimit:10;" d="M 376 158 L 405.664062 158 L 417.664062 129.785156 L 429.664062 158 L 459.332031 158 L 435.332031 175.4375 L 443.417969 206.980469 L 417.664062 189.542969 L 391.914062 206.980469 L 404.214844 175.4375 L 376 158 "/>
<path style="fill-rule:nonzero;fill:rgb(100%,51%,0%);fill-opacity:1;stroke-width:1;stroke-linecap:butt;stroke-linejoin:miter;stroke:rgb(0%,0%,0%);stroke-opacity:1;stroke-miterlimit:10;" d="M 795 110 L 824.664062 110 L 836.664062 81.785156 L 848.664062 110 L 878.332031 110 L 854.332031 127.4375 L 862.417969 158.980469 L 836.664062 141.542969 L 810.914062 158.980469 L 823.214844 127.4375 L 795 110 "/>
<path style="fill-rule:nonzero;fill:rgb(100%,51%,0%);fill-opacity:1;stroke-width:1;stroke-linecap:butt;stroke-linejoin:miter;stroke:rgb(0%,0%,0%);stroke-opacity:1;stroke-miterlimit:10;" d="M 840 403 L 869.664062 403 L 881.664062 374.785156 L 893.664062 403 L 923.332031 403 L 899.332031 420.4375 L 907.417969 451.980469 L 881.664062 434.542969 L 855.914062 451.980469 L 868.214844 420.4375 L 840 403 "/>
<path style="fill-rule:nonzero;fill:rgb(100%,51%,0%);fill-opacity:1;stroke-width:1;stroke-linecap:butt;stroke-linejoin:miter;stroke:rgb(0%,0%,0%);stroke-opacity:1;stroke-miterlimit:10;" d="M 314 86 L 343.664062 86 L 355.664062 57.785156 L 367.664062 86 L 397.332031 86 L 373.332031 103.4375 L 381.417969 134.980469 L 355.664062 117.542969 L 329.914062 134.980469 L 342.214844 103.4375 L 314 86 "/>
<path style="fill-rule:nonzero;fill:rgb(53%,27%,7%);fill-opacity:1;stroke-width:1;stroke-linecap:butt;stroke-linejoin:miter;stroke:rgb(0%,0%,0%);stroke-opacity:1;stroke-miterlimit:10;" d="M 50 344 L 24.019531 389 L 75.980469 389 L 50 344 "/>
<path style="fill-rule:nonzero;fill:rgb(53%,27%,7%);fill-opacity:1;stroke-width:1;stroke-linecap:butt;stroke-linejoin:miter;stroke:rgb(0%,0%,0%);stroke-opacity:1;stroke-miterlimit:10;" d="M 661 19 L 635.019531 64 L 686.980469 64 L 661 19 "/>
<path style="fill-rule:nonzero;fill:rgb(53%,27%,7%);fill-opacity:1;stroke-width:1;stroke-linecap:butt;stroke-linejoin:miter;stroke:rgb(0%,0%,0%);stroke-opacity:1;stroke-miterlimit:10;" d="M 530 344 L 504.019531 389 L 555.980469 389 L 530 344 "/>
</g>
</svg>
