<?xml version="1.0" encoding="UTF-8"?>
<svg xmlns="http://www.w3.org/2000/svg" xmlns:xlink="http://www.w3.org/1999/xlink" width="1129pt" height="517pt" viewBox="0 0 1129 517" version="1.1">
<g id="surface11">
<rect x="0" y="0" width="1129" height="517" style="fill:rgb(90%,90%,90%);fill-opacity:1;stroke:none;"/>
<path style="fill-rule:nonzero;fill:rgb(35%,70%,90%);fill-opacity:1;stroke-width:1;stroke-linecap:butt;stroke-linejoin:miter;stroke:rgb(0%,0%,0%);stroke-opacity:1;stroke-miterlimit:10;" d="M 360 293 L 389.664062 293 L 401.664062 264.785156 L 413.664062 293 L 443.332031 293 L 419.332031 310.4375 L 427.417969 341.980469 L 401.664062 324.542969 L 375.914062 341.980469 L 388.214844 310.4375 L 360 293 "/>
<path style="fill-rule:nonzero;fill:rgb(35%,70%,90%);fill-opacity:1;stroke-width:1;stroke-linecap:butt;stroke-linejoin:miter;stroke:rgb(0%,0%,0%);stroke-opacity:1;stroke-miterlimit:10;" d="M 142 125 L 171.664062 125 L 183.664062 96.785156 L 195.664062 125 L 225.332031 125 L 201.332031 142.4375 L 209.417969 173.980469 L 183.664062 156.542969 L 157.914062 173.980469 L 170.214844 142.4375 L 142 125 "/>
<path style="fill-rule:nonzero;fill:rgb(35%,70%,90%);fill-opacity:1;stroke-width:1;stroke-linecap:butt;stroke-linejoin:miter;stroke:rgb(0%,0%,0%);stroke-opacity:1;stroke-miterlimit:10;" d="M 426.785156 119.785156 L 426.785156 162.214844 L 469.214844 162.214844 L 469.214844 119.785156 L 426.785156 119.785156 "/>
<path style="fill-rule:nonzero;fill:rgb(35%,70%,90%);fill-opacity:1;stroke-width:1;stroke-linecap:butt;stroke-linejoin:miter;stroke:rgb(0%,0%,0%);stroke-opacity:1;stroke-miterlimit:10;" d="M 457 419 L 486.664062 419 L 498.664062 390.785156 L 510.664062 419 L 540.332031 419 L 516.332031 436.4375 L 524.417969 467.980469 L 498.664062 450.542969 L 472.914062 467.980469 L 485.214844 436.4375 L 457 419 "/>
<path style="fill-rule:nonzero;fill:rgb(100%,51%,0%);fill-opacity:1;stroke-width:1;stroke-linecap:butt;stroke-linejoin:miter;stroke:rgb(0%,0%,0%);stroke-opacity:1;stroke-miterlimit:10;" d="M 892.785156 440.785156 L 892.785156 483.214844 L 935.214844 483.214844 L 935.214844 440.785156 L 892.785156 440.785156 "/>
<path style="fill-rule:nonzero;fill:rgb(100%,51%,0%);fill-opacity:1;stroke-width:1;stroke-linecap:butt;stroke-linejoin:miter;stroke:rgb(0%,0%,0%);stroke-opacity:1;stroke-miterlimit:10;" d="M 604.785156 181.785156 L 604.785156 224.214844 L 647.214844 224.214844 L 647.214844 181.785156 L 604.785156 181.785156 "/>
<path style="fill-rule:nonzero;fill:rgb(100%,51%,0%);fill-opacity:1;stroke-width:1;stroke-linecap:butt;stroke-linejoin:miter;stroke:rgb(0%,0%,0%);stroke-opacity:1;stroke-miterlimit:10;" d="M 886 44 L 915.664062 44 L 927.664062 15.785156 L 939.664062 44 L 969.332031 44 L 945.332031 61.4375 L 953.417969 92.980469 L 927.664062 75.542969 L 901.914062 92.980469 L 914.214844 61.4375 L 886 44 "/>
<path style="fill-rule:nonzero;fill:rgb(100%,51%,0%);fill-opacity:1;stroke-width:1;stroke-linecap:butt;stroke-linejoin:miter;stroke:rgb(0%,0%,0%);stroke-opacity:1;stroke-miterlimit:10;" d="M 923.785156 95.785156 L 923.785156 138.214844 L 966.214844 138.214844 L 966.214844 95.785156 L 923.785156 95.785156 "/>
</g>
</svg>
