<?xml version="1.0" encoding="UTF-8"?>
<svg xmlns="http://www.w3.org/2000/svg" xmlns:xlink="http://www.w3.org/1999/xlink" width="1129pt" height="517pt" viewBox="0 0 1129 517" version="1.1">
<g id="surface526">
<rect x="0" y="0" width="1129" height="517" style="fill:rgb(90%,90%,90%);fill-opacity:1;stroke:none;"/>
<path style="fill-rule:nonzero;fill:rgb(55%,51%,53%);fill-opacity:1;stroke-width:1;stroke-linecap:butt;stroke-linejoin:miter;stroke:rgb(0%,0%,0%);stroke-opacity:1;stroke-miterlimit:10;" d="M 198.214844 309 C 198.214844 320.714844 188.714844 330.214844 177 330.214844 C 165.285156 330.214844 155.785156 320.714844 155.785156 309 C 155.785156 297.285156 165.285156 287.785156 177 287.785156 C 188.714844 287.785156 198.214844 297.285156 198.214844 309 "/>
<path style="fill-rule:nonzero;fill:rgb(55%,51%,53%);fill-opacity:1;stroke-width:1;stroke-linecap:butt;stroke-linejoin:miter;stroke:rgb(0%,0%,0%);stroke-opacity:1;stroke-miterlimit:10;" d="M 255 53 L 229.019531 98 L 280.980469 98 L 255 53 "/>
<path style="fill-rule:nonzero;fill:rgb(55%,51%,53%);fill-opacity:1;stroke-width:1;stroke-linecap:butt;stroke-linejoin:miter;stroke:rgb(0%,0%,0%);stroke-opacity:1;stroke-miterlimit:10;" d="M 369 147 L 343.019531 192 L 394.980469 192 L 369 147 "/>
<path style="fill-rule:nonzero;fill:rgb(55%,51%,53%);fill-opacity:1;stroke-width:1;stroke-linecap:butt;stroke-linejoin:miter;stroke:rgb(0%,0%,0%);stroke-opacity:1;stroke-miterlimit:10;" d="M 459.214844 385 C 459.214844 396.714844 449.714844 406.214844 438 406.214844 C 426.285156 406.214844 416.785156 396.714844 416.785156 385 C 416.785156 373.285156 426.285156 363.785156 438 363.785156 C 449.714844 363.785156 459.214844 373.285156 459.214844 385 "/>
<path style="fill-rule:nonzero;fill:rgb(55%,51%,53%);fill-opacity:1;stroke-width:1;stroke-linecap:butt;stroke-linejoin:miter;stroke:rgb(0%,0%,0%);stroke-opacity:1;stroke-miterlimit:10;" d="M 201.214844 210 C 201.214844 221.714844 191.714844 231.214844 180 231.214844 C 168.285156 231.214844 158.785156 221.714844 158.785156 210 C 158.785156 198.285156 168.285156 188.785156 180 188.785156 C 191.714844 188.785156 201.214844 198.285156 201.214844 210 "/>
<path style="fill-rule:nonzero;fill:rgb(55%,51%,53%);fill-opacity:1;stroke-width:1;stroke-linecap:butt;stroke-linejoin:miter;stroke:rgb(0%,0%,0%);stroke-opacity:1;stroke-miterlimit:10;" d="M 367.214844 453 C 367.214844 464.714844 357.714844 474.214844 346 474.214844 C 334.285156 474.214844 324.785156 464.714844 324.785156 453 C 324.785156 441.285156 334.285156 431.785156 346 431.785156 C 357.714844 431.785156 367.214844 441.285156 367.214844 453 "/>
<path style="fill-rule:nonzero;fill:rgb(55%,51%,53%);fill-opacity:1;stroke-width:1;stroke-linecap:butt;stroke-linejoin:miter;stroke:rgb(0%,0%,0%);stroke-opacity:1;stroke-miterlimit:10;" d="M 131.214844 393 C 131.214844 404.714844 121.714844 414.214844 110 414.214844 C 98.285156 414.214844 88.785156 404.714844 88.785156 393 C 88.785156 381.285156 98.285156 371.785156 110 371.785156 C 121.714844 371.785156 131.214844 381.285156 131.214844 393 "/>
<path style="fill-rule:nonzero;fill:rgb(55%,51%,53%);fill-opacity:1;stroke-width:1;stroke-linecap:butt;stroke-linejoin:miter;stroke:rgb(0%,0%,0%);stroke-opacity:1;stroke-miterlimit:10;" d="M 392.214844 59 C 392.214844 70.714844 382.714844 80.214844 371 80.214844 C 359.285156 80.214844 349.785156 70.714844 349.785156 59 C 349.785156 47.285156 359.285156 37.785156 371 37.785156 C 382.714844 37.785156 392.214844 47.285156 392.214844 59 "/>
<path style="fill-rule:nonzero;fill:rgb(53%,27%,7%);fill-opacity:1;stroke-width:1;stroke-linecap:butt;stroke-linejoin:miter;stroke:rgb(0%,0%,0%);stroke-opacity:1;stroke-miterlimit:10;" d="M 772 229 L 746.019531 274 L 797.980469 274 L 772 229 "/>
<path style="fill-rule:nonzero;fill:rgb(53%,27%,7%);fill-opacity:1;stroke-width:1;stroke-linecap:butt;stroke-linejoin:miter;stroke:rgb(0%,0%,0%);stroke-opacity:1;stroke-miterlimit:10;" d="M 973.214844 324 C 973.214844 335.714844 963.714844 345.214844 952 345.214844 C 940.285156 345.214844 930.785156 335.714844 930.785156 324 C 930.785156 312.285156 940.285156 302.785156 952 302.785156 C 963.714844 302.785156 973.214844 312.285156 973.214844 324 "/>
<path style="fill-rule:nonzero;fill:rgb(53%,27%,7%);fill-opacity:1;stroke-width:1;stroke-linecap:butt;stroke-linejoin:miter;stroke:rgb(0%,0%,0%);stroke-opacity:1;stroke-miterlimit:10;" d="M 752.214844 394 C 752.214844 405.714844 742.714844 415.214844 731 415.214844 C 719.285156 415.214844 709.785156 405.714844 709.785156 394 C 709.785156 382.285156 719.285156 372.785156 731 372.785156 C 742.714844 372.785156 752.214844 382.285156 752.214844 394 "/>
<path style="fill-rule:nonzero;fill:rgb(53%,27%,7%);fill-opacity:1;stroke-width:1;stroke-linecap:butt;stroke-linejoin:miter;stroke:rgb(0%,0%,0%);stroke-opacity:1;stroke-miterlimit:10;" d="M 732 65 L 706.019531 110 L 757.980469 110 L 732 65 "/>
</g>
</svg>
