<?xml version="1.0" encoding="UTF-8"?>
<svg xmlns="http://www.w3.org/2000/svg" xmlns:xlink="http://www.w3.org/1999/xlink" width="1129pt" height="517pt" viewBox="0 0 1129 517" version="1.1">
<g id="surface431">
<rect x="0" y="0" width="1129" height="517" style="fill:rgb(90%,90%,90%);fill-opacity:1;stroke:none;"/>
<path style="fill-rule:nonzero;fill:rgb(35%,70%,90%);fill-opacity:1;stroke-width:1;stroke-linecap:butt;stroke-linejoin:miter;stroke:rgb(0%,0%,0%);stroke-opacity:1;stroke-miterlimit:10;" d="M 200 364 L 229.664062 364 L 241.664062 335.785156 L 253.664062 364 L 283.332031 364 L 259.332031 381.4375 L 267.417969 412.980469 L 241.664062 395.542969 L 215.914062 412.980469 L 228.214844 381.4375 L 200 364 "/>
<path style="fill-rule:nonzero;fill:rgb(35%,70%,90%);fill-opacity:1;stroke-width:1;stroke-linecap:butt;stroke-linejoin:miter;stroke:rgb(0%,0%,0%);stroke-opacity:1;stroke-miterlimit:10;" d="M 132.785156 197.785156 L 132.785156 240.214844 L 175.214844 240.214844 L 175.214844 197.785156 L 132.785156 197.785156 "/>
<path style="fill-rule:nonzero;fill:rgb(35%,70%,90%);fill-opacity:1;stroke-width:1;stroke-linecap:butt;stroke-linejoin:miter;stroke:rgb(0%,0%,0%);stroke-opacity:1;stroke-miterlimit:10;" d="M 153 103 L 182.664062 103 L 194.664062 74.785156 L 206.664062 103 L 236.332031 103 L 212.332031 120.4375 L 220.417969 151.980469 L 194.664062 134.542969 L 168.914062 151.980469 L 181.214844 120.4375 L 153 103 "/>
<path style="fill-rule:nonzero;fill:rgb(35%,70%,90%);fill-opacity:1;stroke-width:1;stroke-linecap:butt;stroke-linejoin:miter;stroke:rgb(0%,0%,0%);stroke-opacity:1;stroke-miterlimit:10;" d="M 375.785156 427.785156 L 375.785156 470.214844 L 418.214844 470.214844 L 418.214844 427.785156 L 375.785156 427.785156 "/>
<path style="fill-rule:nonzero;fill:rgb(35%,70%,90%);fill-opacity:1;stroke-width:1;stroke-linecap:butt;stroke-linejoin:miter;stroke:rgb(0%,0%,0%);stroke-opacity:1;stroke-miterlimit:10;" d="M 471 392 L 500.664062 392 L 512.664062 363.785156 L 524.664062 392 L 554.332031 392 L 530.332031 409.4375 L 538.417969 440.980469 L 512.664062 423.542969 L 486.914062 440.980469 L 499.214844 409.4375 L 471 392 "/>
<path style="fill-rule:nonzero;fill:rgb(55%,51%,53%);fill-opacity:1;stroke-width:1;stroke-linecap:butt;stroke-linejoin:miter;stroke:rgb(0%,0%,0%);stroke-opacity:1;stroke-miterlimit:10;" d="M 979.785156 79.785156 L 979.785156 122.214844 L 1022.214844 122.214844 L 1022.214844 79.785156 L 979.785156 79.785156 "/>
<path style="fill-rule:nonzero;fill:rgb(55%,51%,53%);fill-opacity:1;stroke-width:1;stroke-linecap:butt;stroke-linejoin:miter;stroke:rgb(0%,0%,0%);stroke-opacity:1;stroke-miterlimit:10;" d="M 674 381 L 703.664062 381 L 715.664062 352.785156 L 727.664062 381 L 757.332031 381 L 733.332031 398.4375 L 741.417969 429.980469 L 715.664062 412.542969 L 689.914062 429.980469 L 702.214844 398.4375 L 674 381 "/>
<path style="fill-rule:nonzero;fill:rgb(55%,51%,53%);fill-opacity:1;stroke-width:1;stroke-linecap:butt;stroke-linejoin:miter;stroke:rgb(0%,0%,0%);stroke-opacity:1;stroke-miterlimit:10;" d="M 788.785156 320.785156 L 788.785156 363.214844 L 831.214844 363.214844 L 831.214844 320.785156 L 788.785156 320.785156 "/>
<path style="fill-rule:nonzero;fill:rgb(55%,51%,53%);fill-opacity:1;stroke-width:1;stroke-linecap:butt;stroke-linejoin:miter;stroke:rgb(0%,0%,0%);stroke-opacity:1;stroke-miterlimit:10;" d="M 652 198 L 681.664062 198 L 693.664062 169.785156 L 705.664062 198 L 735.332031 198 L 711.332031 215.4375 L 719.417969 246.980469 L 693.664062 229.542969 L 667.914062 246.980469 L 680.214844 215.4375 L 652 198 "/>
<path style="fill-rule:nonzero;fill:rgb(55%,51%,53%);fill-opacity:1;stroke-width:1;stroke-linecap:butt;stroke-linejoin:miter;stroke:rgb(0%,0%,0%);stroke-opacity:1;stroke-miterlimit:10;" d="M 804.785156 40.785156 L 804.785156 83.214844 L 847.214844 83.214844 L 847.214844 40.785156 L 804.785156 40.785156 "/>
<path style="fill-rule:nonzero;fill:rgb(55%,51%,53%);fill-opacity:1;stroke-width:1;stroke-linecap:butt;stroke-linejoin:miter;stroke:rgb(0%,0%,0%);stroke-opacity:1;stroke-miterlimit:10;" d="M 938.785156 224.785156 L 938.785156 267.214844 L 981.214844 267.214844 L 981.214844 224.785156 L 938.785156 224.785156 "/>
</g>
</svg>
