<?xml version="1.0" encoding="UTF-8"?>
<svg xmlns="http://www.w3.org/2000/svg" xmlns:xlink="http://www.w3.org/1999/xlink" width="1129pt" height="517pt" viewBox="0 0 1129 517" version="1.1">
<g id="surface471">
<rect x="0" y="0" width="1129" height="517" style="fill:rgb(90%,90%,90%);fill-opacity:1;stroke:none;"/>
<path style="fill-rule:nonzero;fill:rgb(100%,51%,0%);fill-opacity:1;stroke-width:1;stroke-linecap:butt;stroke-linejoin:miter;stroke:rgb(0%,0%,0%);stroke-opacity:1;stroke-miterlimit:10;" d="M 249.214844 232 C 249.214844 243.714844 239.714844 253.214844 228 253.214844 C 216.285156 253.214844 206.785156 243.714844 206.785156 232 C 206.785156 220.285156 216.285156 210.785156 228 210.785156 C 239.714844 210.785156 249.214844 220.285156 249.214844 232 "/>
<path style="fill-rule:nonzero;fill:rgb(100%,51%,0%);fill-opacity:1;stroke-width:1;stroke-linecap:butt;stroke-linejoin:miter;stroke:rgb(0%,0%,0%);stroke-opacity:1;stroke-miterlimit:10;" d="M 217.785156 66.785156 L 217.785156 109.214844 L 260.214844 109.214844 L 260.214844 66.785156 L 217.785156 66.785156 "/>
<path style="fill-rule:nonzero;fill:rgb(100%,51%,0%);fill-opacity:1;stroke-width:1;stroke-linecap:butt;stroke-linejoin:miter;stroke:rgb(0%,0%,0%);stroke-opacity:1;stroke-miterlimit:10;" d="M 418.214844 83 C 418.214844 94.714844 408.714844 104.214844 397 104.214844 C 385.285156 104.214844 375.785156 94.714844 375.785156 83 C 375.785156 71.285156 385.285156 61.785156 397 61.785156 C 408.714844 61.785156 418.214844 71.285156 418.214844 83 "/>
<path style="fill-rule:nonzero;fill:rgb(100%,51%,0%);fill-opacity:1;stroke-width:1;stroke-linecap:butt;stroke-linejoin:miter;stroke:rgb(0%,0%,0%);stroke-opacity:1;stroke-miterlimit:10;" d="M 131.214844 286 C 131.214844 297.714844 121.714844 307.214844 110 307.214844 C 98.285156 307.214844 88.785156 297.714844 88.785156 286 C 88.785156 274.285156 98.285156 264.785156 110 264.785156 C 121.714844 264.785156 131.214844 274.285156 131.214844 286 "/>
<path style="fill-rule:nonzero;fill:rgb(100%,51%,0%);fill-opacity:1;stroke-width:1;stroke-linecap:butt;stroke-linejoin:miter;stroke:rgb(0%,0%,0%);stroke-opacity:1;stroke-miterlimit:10;" d="M 390.214844 182 C 390.214844 193.714844 380.714844 203.214844 369 203.214844 C 357.285156 203.214844 347.785156 193.714844 347.785156 182 C 347.785156 170.285156 357.285156 160.785156 369 160.785156 C 380.714844 160.785156 390.214844 170.285156 390.214844 182 "/>
<path style="fill-rule:nonzero;fill:rgb(100%,51%,0%);fill-opacity:1;stroke-width:1;stroke-linecap:butt;stroke-linejoin:miter;stroke:rgb(0%,0%,0%);stroke-opacity:1;stroke-miterlimit:10;" d="M 180.214844 454 C 180.214844 465.714844 170.714844 475.214844 159 475.214844 C 147.285156 475.214844 137.785156 465.714844 137.785156 454 C 137.785156 442.285156 147.285156 432.785156 159 432.785156 C 170.714844 432.785156 180.214844 442.285156 180.214844 454 "/>
<path style="fill-rule:nonzero;fill:rgb(100%,51%,0%);fill-opacity:1;stroke-width:1;stroke-linecap:butt;stroke-linejoin:miter;stroke:rgb(0%,0%,0%);stroke-opacity:1;stroke-miterlimit:10;" d="M 348.214844 458 C 348.214844 469.714844 338.714844 479.214844 327 479.214844 C 315.285156 479.214844 305.785156 469.714844 305.785156 458 C 305.785156 446.285156 315.285156 436.785156 327 436.785156 C 338.714844 436.785156 348.214844 446.285156 348.214844 458 "/>
<path style="fill-rule:nonzero;fill:rgb(53%,27%,7%);fill-opacity:1;stroke-width:1;stroke-linecap:butt;stroke-linejoin:miter;stroke:rgb(0%,0%,0%);stroke-opacity:1;stroke-miterlimit:10;" d="M 834.785156 225.785156 L 834.785156 268.214844 L 877.214844 268.214844 L 877.214844 225.785156 L 834.785156 225.785156 "/>
<path style="fill-rule:nonzero;fill:rgb(53%,27%,7%);fill-opacity:1;stroke-width:1;stroke-linecap:butt;stroke-linejoin:miter;stroke:rgb(0%,0%,0%);stroke-opacity:1;stroke-miterlimit:10;" d="M 961.214844 335 C 961.214844 346.714844 951.714844 356.214844 940 356.214844 C 928.285156 356.214844 918.785156 346.714844 918.785156 335 C 918.785156 323.285156 928.285156 313.785156 940 313.785156 C 951.714844 313.785156 961.214844 323.285156 961.214844 335 "/>
<path style="fill-rule:nonzero;fill:rgb(53%,27%,7%);fill-opacity:1;stroke-width:1;stroke-linecap:butt;stroke-linejoin:miter;stroke:rgb(0%,0%,0%);stroke-opacity:1;stroke-miterlimit:10;" d="M 717.785156 110.785156 L 717.785156 153.214844 L 760.214844 153.214844 L 760.214844 110.785156 L 717.785156 110.785156 "/>
<path style="fill-rule:nonzero;fill:rgb(53%,27%,7%);fill-opacity:1;stroke-width:1;stroke-linecap:butt;stroke-linejoin:miter;stroke:rgb(0%,0%,0%);stroke-opacity:1;stroke-miterlimit:10;" d="M 813.785156 25.785156 L 813.785156 68.214844 L 856.214844 68.214844 L 856.214844 25.785156 L 813.785156 25.785156 "/>
<path style="fill-rule:nonzero;fill:rgb(53%,27%,7%);fill-opacity:1;stroke-width:1;stroke-linecap:butt;stroke-linejoin:miter;stroke:rgb(0%,0%,0%);stroke-opacity:1;stroke-miterlimit:10;" d="M 986.785156 192.785156 L 986.785156 235.214844 L 1029.214844 235.214844 L 1029.214844 192.785156 L 986.785156 192.785156 "/>
</g>
</svg>
