<?xml version="1.0" encoding="UTF-8"?>
<svg xmlns="http://www.w3.org/2000/svg" xmlns:xlink="http://www.w3.org/1999/xlink" width="1129pt" height="517pt" viewBox="0 0 1129 517" version="1.1">
<g id="surface691">
<rect x="0" y="0" width="1129" height="517" style="fill:rgb(90%,90%,90%);fill-opacity:1;stroke:none;"/>
<path style="fill-rule:nonzero;fill:rgb(55%,51%,53%);fill-opacity:1;stroke-width:1;stroke-linecap:butt;stroke-linejoin:miter;stroke:rgb(0%,0%,0%);stroke-opacity:1;stroke-miterlimit:10;" d="M 539 374 L 568.664062 374 L 580.664062 345.785156 L 592.664062 374 L 622.332031 374 L 598.332031 391.4375 L 606.417969 422.980469 L 580.664062 405.542969 L 554.914062 422.980469 L 567.214844 391.4375 L 539 374 "/>
<path style="fill-rule:nonzero;fill:rgb(55%,51%,53%);fill-opacity:1;stroke-width:1;stroke-linecap:butt;stroke-linejoin:miter;stroke:rgb(0%,0%,0%);stroke-opacity:1;stroke-miterlimit:10;" d="M 403 427 L 432.664062 427 L 444.664062 398.785156 L 456.664062 427 L 486.332031 427 L 462.332031 444.4375 L 470.417969 475.980469 L 444.664062 458.542969 L 418.914062 475.980469 L 431.214844 444.4375 L 403 427 "/>
<path style="fill-rule:nonzero;fill:rgb(55%,51%,53%);fill-opacity:1;stroke-width:1;stroke-linecap:butt;stroke-linejoin:miter;stroke:rgb(0%,0%,0%);stroke-opacity:1;stroke-miterlimit:10;" d="M 45 422 L 74.664062 422 L 86.664062 393.785156 L 98.664062 422 L 128.332031 422 L 104.332031 439.4375 L 112.417969 470.980469 L 86.664062 453.542969 L 60.914062 470.980469 L 73.214844 439.4375 L 45 422 "/>
<path style="fill-rule:nonzero;fill:rgb(55%,51%,53%);fill-opacity:1;stroke-width:1;stroke-linecap:butt;stroke-linejoin:miter;stroke:rgb(0%,0%,0%);stroke-opacity:1;stroke-miterlimit:10;" d="M 882 133 L 911.664062 133 L 923.664062 104.785156 L 935.664062 133 L 965.332031 133 L 941.332031 150.4375 L 949.417969 181.980469 L 923.664062 164.542969 L 897.914062 181.980469 L 910.214844 150.4375 L 882 133 "/>
<path style="fill-rule:nonzero;fill:rgb(55%,51%,53%);fill-opacity:1;stroke-width:1;stroke-linecap:butt;stroke-linejoin:miter;stroke:rgb(0%,0%,0%);stroke-opacity:1;stroke-miterlimit:10;" d="M 520 113 L 549.664062 113 L 561.664062 84.785156 L 573.664062 113 L 603.332031 113 L 579.332031 130.4375 L 587.417969 161.980469 L 561.664062 144.542969 L 535.914062 161.980469 L 548.214844 130.4375 L 520 113 "/>
<path style="fill-rule:nonzero;fill:rgb(55%,51%,53%);fill-opacity:1;stroke-width:1;stroke-linecap:butt;stroke-linejoin:miter;stroke:rgb(0%,0%,0%);stroke-opacity:1;stroke-miterlimit:10;" d="M 940 266 L 969.664062 266 L 981.664062 237.785156 L 993.664062 266 L 1023.332031 266 L 999.332031 283.4375 L 1007.417969 314.980469 L 981.664062 297.542969 L 955.914062 314.980469 L 968.214844 283.4375 L 940 266 "/>
<path style="fill-rule:nonzero;fill:rgb(55%,51%,53%);fill-opacity:1;stroke-width:1;stroke-linecap:butt;stroke-linejoin:miter;stroke:rgb(0%,0%,0%);stroke-opacity:1;stroke-miterlimit:10;" d="M 322 125 L 351.664062 125 L 363.664062 96.785156 L 375.664062 125 L 405.332031 125 L 381.332031 142.4375 L 389.417969 173.980469 L 363.664062 156.542969 L 337.914062 173.980469 L 350.214844 142.4375 L 322 125 "/>
<path style="fill-rule:nonzero;fill:rgb(55%,51%,53%);fill-opacity:1;stroke-width:1;stroke-linecap:butt;stroke-linejoin:miter;stroke:rgb(0%,0%,0%);stroke-opacity:1;stroke-miterlimit:10;" d="M 729 145 L 758.664062 145 L 770.664062 116.785156 L 782.664062 145 L 812.332031 145 L 788.332031 162.4375 L 796.417969 193.980469 L 770.664062 176.542969 L 744.914062 193.980469 L 757.214844 162.4375 L 729 145 "/>
<path style="fill-rule:nonzero;fill:rgb(53%,27%,7%);fill-opacity:1;stroke-width:1;stroke-linecap:butt;stroke-linejoin:miter;stroke:rgb(0%,0%,0%);stroke-opacity:1;stroke-miterlimit:10;" d="M 911.214844 412 C 911.214844 423.714844 901.714844 433.214844 890 433.214844 C 878.285156 433.214844 868.785156 423.714844 868.785156 412 C 868.785156 400.285156 878.285156 390.785156 890 390.785156 C 901.714844 390.785156 911.214844 400.285156 911.214844 412 "/>
<path style="fill-rule:nonzero;fill:rgb(53%,27%,7%);fill-opacity:1;stroke-width:1;stroke-linecap:butt;stroke-linejoin:miter;stroke:rgb(0%,0%,0%);stroke-opacity:1;stroke-miterlimit:10;" d="M 234.214844 91 C 234.214844 102.714844 224.714844 112.214844 213 112.214844 C 201.285156 112.214844 191.785156 102.714844 191.785156 91 C 191.785156 79.285156 201.285156 69.785156 213 69.785156 C 224.714844 69.785156 234.214844 79.285156 234.214844 91 "/>
<path style="fill-rule:nonzero;fill:rgb(53%,27%,7%);fill-opacity:1;stroke-width:1;stroke-linecap:butt;stroke-linejoin:miter;stroke:rgb(0%,0%,0%);stroke-opacity:1;stroke-miterlimit:10;" d="M 343.214844 341 C 343.214844 352.714844 333.714844 362.214844 322 362.214844 C 310.285156 362.214844 300.785156 352.714844 300.785156 341 C 300.785156 329.285156 310.285156 319.785156 322 319.785156 C 333.714844 319.785156 343.214844 329.285156 343.214844 341 "/>
<path style="fill-rule:nonzero;fill:rgb(53%,27%,7%);fill-opacity:1;stroke-width:1;stroke-linecap:butt;stroke-linejoin:miter;stroke:rgb(0%,0%,0%);stroke-opacity:1;stroke-miterlimit:10;" d="M 492.214844 237 C 492.214844 248.714844 482.714844 258.214844 471 258.214844 C 459.285156 258.214844 449.785156 248.714844 449.785156 237 C 449.785156 225.285156 459.285156 215.785156 471 215.785156 C 482.714844 215.785156 492.214844 225.285156 492.214844 237 "/>
<path style="fill-rule:nonzero;fill:rgb(53%,27%,7%);fill-opacity:1;stroke-width:1;stroke-linecap:butt;stroke-linejoin:miter;stroke:rgb(0%,0%,0%);stroke-opacity:1;stroke-miterlimit:10;" d="M 173.214844 201 C 173.214844 212.714844 163.714844 222.214844 152 222.214844 C 140.285156 222.214844 130.785156 212.714844 130.785156 201 C 130.785156 189.285156 140.285156 179.785156 152 179.785156 C 163.714844 179.785156 173.214844 189.285156 173.214844 201 "/>
<path style="fill-rule:nonzero;fill:rgb(53%,27%,7%);fill-opacity:1;stroke-width:1;stroke-linecap:butt;stroke-linejoin:miter;stroke:rgb(0%,0%,0%);stroke-opacity:1;stroke-miterlimit:10;" d="M 601.214844 253 C 601.214844 264.714844 591.714844 274.214844 580 274.214844 C 568.285156 274.214844 558.785156 264.714844 558.785156 253 C 558.785156 241.285156 568.285156 231.785156 580 231.785156 C 591.714844 231.785156 601.214844 241.285156 601.214844 253 "/>
<path style="fill-rule:nonzero;fill:rgb(53%,27%,7%);fill-opacity:1;stroke-width:1;stroke-linecap:butt;stroke-linejoin:miter;stroke:rgb(0%,0%,0%);stroke-opacity:1;stroke-miterlimit:10;" d="M 818.214844 458 C 818.214844 469.714844 808.714844 479.214844 797 479.214844 C 785.285156 479.214844 775.785156 469.714844 775.785156 458 C 775.785156 446.285156 785.285156 436.785156 797 436.785156 C 808.714844 436.785156 818.214844 446.285156 818.214844 458 "/>
<path style="fill-rule:nonzero;fill:rgb(53%,27%,7%);fill-opacity:1;stroke-width:1;stroke-linecap:butt;stroke-linejoin:miter;stroke:rgb(0%,0%,0%);stroke-opacity:1;stroke-miterlimit:10;" d="M 853.214844 333 C 853.214844 344.714844 843.714844 354.214844 832 354.214844 C 820.285156 354.214844 810.785156 344.714844 810.785156 333 C 810.785156 321.285156 820.285156 311.785156 832 311.785156 C 843.714844 311.785156 853.214844 321.285156 853.214844 333 "/>
</g>
</svg>
