<?xml version="1.0" encoding="UTF-8"?>
<svg xmlns="http://www.w3.org/2000/svg" xmlns:xlink="http://www.w3.org/1999/xlink" width="1129pt" height="517pt" viewBox="0 0 1129 517" version="1.1">
<g id="surface221">
<rect x="0" y="0" width="1129" height="517" style="fill:rgb(90%,90%,90%);fill-opacity:1;stroke:none;"/>
<path style="fill-rule:nonzero;fill:rgb(35%,70%,90%);fill-opacity:1;stroke-width:1;stroke-linecap:butt;stroke-linejoin:miter;stroke:rgb(0%,0%,0%);stroke-opacity:1;stroke-miterlimit:10;" d="M 302 253 L 331.664062 253 L 343.664062 224.785156 L 355.664062 253 L 385.332031 253 L 361.332031 270.4375 L 369.417969 301.980469 L 343.664062 284.542969 L 317.914062 301.980469 L 330.214844 270.4375 L 302 253 "/>
<path style="fill-rule:nonzero;fill:rgb(53%,27%,7%);fill-opacity:1;stroke-width:1;stroke-linecap:butt;stroke-linejoin:miter;stroke:rgb(0%,0%,0%);stroke-opacity:1;stroke-miterlimit:10;" d="M 340 459 L 369.664062 459 L 381.664062 430.785156 L 393.664062 459 L 423.332031 459 L 399.332031 476.4375 L 407.417969 507.980469 L 381.664062 490.542969 L 355.914062 507.980469 L 368.214844 476.4375 L 340 459 "/>
<path style="fill-rule:nonzero;fill:rgb(53%,27%,7%);fill-opacity:1;stroke-width:1;stroke-linecap:butt;stroke-linejoin:miter;stroke:rgb(0%,0%,0%);stroke-opacity:1;stroke-miterlimit:10;" d="M 366.785156 295.785156 L 366.785156 338.214844 L 409.214844 338.214844 L 409.214844 295.785156 L 366.785156 295.785156 "/>
</g>
</svg>
