<?xml version="1.0" encoding="UTF-8"?>
<svg xmlns="http://www.w3.org/2000/svg" xmlns:xlink="http://www.w3.org/1999/xlink" width="1129pt" height="517pt" viewBox="0 0 1129 517" version="1.1">
<g id="surface311">
<rect x="0" y="0" width="1129" height="517" style="fill:rgb(90%,90%,90%);fill-opacity:1;stroke:none;"/>
<path style="fill-rule:nonzero;fill:rgb(100%,51%,0%);fill-opacity:1;stroke-width:1;stroke-linecap:butt;stroke-linejoin:miter;stroke:rgb(0%,0%,0%);stroke-opacity:1;stroke-miterlimit:10;" d="M 278 171 L 307.664062 171 L 319.664062 142.785156 L 331.664062 171 L 361.332031 171 L 337.332031 188.4375 L 345.417969 219.980469 L 319.664062 202.542969 L 293.914062 219.980469 L 306.214844 188.4375 L 278 171 "/>
<path style="fill-rule:nonzero;fill:rgb(100%,51%,0%);fill-opacity:1;stroke-width:1;stroke-linecap:butt;stroke-linejoin:miter;stroke:rgb(0%,0%,0%);stroke-opacity:1;stroke-miterlimit:10;" d="M 387 417 L 416.664062 417 L 428.664062 388.785156 L 440.664062 417 L 470.332031 417 L 446.332031 434.4375 L 454.417969 465.980469 L 428.664062 448.542969 L 402.914062 465.980469 L 415.214844 434.4375 L 387 417 "/>
<path style="fill-rule:nonzero;fill:rgb(100%,51%,0%);fill-opacity:1;stroke-width:1;stroke-linecap:butt;stroke-linejoin:miter;stroke:rgb(0%,0%,0%);stroke-opacity:1;stroke-miterlimit:10;" d="M 232 416 L 261.664062 416 L 273.664062 387.785156 L 285.664062 416 L 315.332031 416 L 291.332031 433.4375 L 299.417969 464.980469 L 273.664062 447.542969 L 247.914062 464.980469 L 260.214844 433.4375 L 232 416 "/>
<path style="fill-rule:nonzero;fill:rgb(55%,51%,53%);fill-opacity:1;stroke-width:1;stroke-linecap:butt;stroke-linejoin:miter;stroke:rgb(0%,0%,0%);stroke-opacity:1;stroke-miterlimit:10;" d="M 324 250 L 353.664062 250 L 365.664062 221.785156 L 377.664062 250 L 407.332031 250 L 383.332031 267.4375 L 391.417969 298.980469 L 365.664062 281.542969 L 339.914062 298.980469 L 352.214844 267.4375 L 324 250 "/>
<path style="fill-rule:nonzero;fill:rgb(100%,51%,0%);fill-opacity:1;stroke-width:1;stroke-linecap:butt;stroke-linejoin:miter;stroke:rgb(0%,0%,0%);stroke-opacity:1;stroke-miterlimit:10;" d="M 180 98 L 209.664062 98 L 221.664062 69.785156 L 233.664062 98 L 263.332031 98 L 239.332031 115.4375 L 247.417969 146.980469 L 221.664062 129.542969 L 195.914062 146.980469 L 208.214844 115.4375 L 180 98 "/>
<path style="fill-rule:nonzero;fill:rgb(100%,51%,0%);fill-opacity:1;stroke-width:1;stroke-linecap:butt;stroke-linejoin:miter;stroke:rgb(0%,0%,0%);stroke-opacity:1;stroke-miterlimit:10;" d="M 50 367 L 79.664062 367 L 91.664062 338.785156 L 103.664062 367 L 133.332031 367 L 109.332031 384.4375 L 117.417969 415.980469 L 91.664062 398.542969 L 65.914062 415.980469 L 78.214844 384.4375 L 50 367 "/>
<path style="fill-rule:nonzero;fill:rgb(100%,51%,0%);fill-opacity:1;stroke-width:1;stroke-linecap:butt;stroke-linejoin:miter;stroke:rgb(0%,0%,0%);stroke-opacity:1;stroke-miterlimit:10;" d="M 262 48 L 291.664062 48 L 303.664062 19.785156 L 315.664062 48 L 345.332031 48 L 321.332031 65.4375 L 329.417969 96.980469 L 303.664062 79.542969 L 277.914062 96.980469 L 290.214844 65.4375 L 262 48 "/>
<path style="fill-rule:nonzero;fill:rgb(55%,51%,53%);fill-opacity:1;stroke-width:1;stroke-linecap:butt;stroke-linejoin:miter;stroke:rgb(0%,0%,0%);stroke-opacity:1;stroke-miterlimit:10;" d="M 160.785156 269.785156 L 160.785156 312.214844 L 203.214844 312.214844 L 203.214844 269.785156 L 160.785156 269.785156 "/>
</g>
</svg>
