<?xml version="1.0" encoding="UTF-8"?>
<svg xmlns="http://www.w3.org/2000/svg" xmlns:xlink="http://www.w3.org/1999/xlink" width="1129pt" height="517pt" viewBox="0 0 1129 517" version="1.1">
<g id="surface391">
<rect x="0" y="0" width="1129" height="517" style="fill:rgb(90%,90%,90%);fill-opacity:1;stroke:none;"/>
<path style="fill-rule:nonzero;fill:rgb(35%,70%,90%);fill-opacity:1;stroke-width:1;stroke-linecap:butt;stroke-linejoin:miter;stroke:rgb(0%,0%,0%);stroke-opacity:1;stroke-miterlimit:10;" d="M 469 110 L 498.664062 110 L 510.664062 81.785156 L 522.664062 110 L 552.332031 110 L 528.332031 127.4375 L 536.417969 158.980469 L 510.664062 141.542969 L 484.914062 158.980469 L 497.214844 127.4375 L 469 110 "/>
<path style="fill-rule:nonzero;fill:rgb(35%,70%,90%);fill-opacity:1;stroke-width:1;stroke-linecap:butt;stroke-linejoin:miter;stroke:rgb(0%,0%,0%);stroke-opacity:1;stroke-miterlimit:10;" d="M 870 467 L 899.664062 467 L 911.664062 438.785156 L 923.664062 467 L 953.332031 467 L 929.332031 484.4375 L 937.417969 515.980469 L 911.664062 498.542969 L 885.914062 515.980469 L 898.214844 484.4375 L 870 467 "/>
<path style="fill-rule:nonzero;fill:rgb(35%,70%,90%);fill-opacity:1;stroke-width:1;stroke-linecap:butt;stroke-linejoin:miter;stroke:rgb(0%,0%,0%);stroke-opacity:1;stroke-miterlimit:10;" d="M 744 122 L 773.664062 122 L 785.664062 93.785156 L 797.664062 122 L 827.332031 122 L 803.332031 139.4375 L 811.417969 170.980469 L 785.664062 153.542969 L 759.914062 170.980469 L 772.214844 139.4375 L 744 122 "/>
<path style="fill-rule:nonzero;fill:rgb(35%,70%,90%);fill-opacity:1;stroke-width:1;stroke-linecap:butt;stroke-linejoin:miter;stroke:rgb(0%,0%,0%);stroke-opacity:1;stroke-miterlimit:10;" d="M 507 193 L 536.664062 193 L 548.664062 164.785156 L 560.664062 193 L 590.332031 193 L 566.332031 210.4375 L 574.417969 241.980469 L 548.664062 224.542969 L 522.914062 241.980469 L 535.214844 210.4375 L 507 193 "/>
<path style="fill-rule:nonzero;fill:rgb(35%,70%,90%);fill-opacity:1;stroke-width:1;stroke-linecap:butt;stroke-linejoin:miter;stroke:rgb(0%,0%,0%);stroke-opacity:1;stroke-miterlimit:10;" d="M 778 276 L 807.664062 276 L 819.664062 247.785156 L 831.664062 276 L 861.332031 276 L 837.332031 293.4375 L 845.417969 324.980469 L 819.664062 307.542969 L 793.914062 324.980469 L 806.214844 293.4375 L 778 276 "/>
<path style="fill-rule:nonzero;fill:rgb(35%,70%,90%);fill-opacity:1;stroke-width:1;stroke-linecap:butt;stroke-linejoin:miter;stroke:rgb(0%,0%,0%);stroke-opacity:1;stroke-miterlimit:10;" d="M 325 266 L 354.664062 266 L 366.664062 237.785156 L 378.664062 266 L 408.332031 266 L 384.332031 283.4375 L 392.417969 314.980469 L 366.664062 297.542969 L 340.914062 314.980469 L 353.214844 283.4375 L 325 266 "/>
<path style="fill-rule:nonzero;fill:rgb(53%,27%,7%);fill-opacity:1;stroke-width:1;stroke-linecap:butt;stroke-linejoin:miter;stroke:rgb(0%,0%,0%);stroke-opacity:1;stroke-miterlimit:10;" d="M 524.214844 416 C 524.214844 427.714844 514.714844 437.214844 503 437.214844 C 491.285156 437.214844 481.785156 427.714844 481.785156 416 C 481.785156 404.285156 491.285156 394.785156 503 394.785156 C 514.714844 394.785156 524.214844 404.285156 524.214844 416 "/>
<path style="fill-rule:nonzero;fill:rgb(53%,27%,7%);fill-opacity:1;stroke-width:1;stroke-linecap:butt;stroke-linejoin:miter;stroke:rgb(0%,0%,0%);stroke-opacity:1;stroke-miterlimit:10;" d="M 686.214844 274 C 686.214844 285.714844 676.714844 295.214844 665 295.214844 C 653.285156 295.214844 643.785156 285.714844 643.785156 274 C 643.785156 262.285156 653.285156 252.785156 665 252.785156 C 676.714844 252.785156 686.214844 262.285156 686.214844 274 "/>
<path style="fill-rule:nonzero;fill:rgb(53%,27%,7%);fill-opacity:1;stroke-width:1;stroke-linecap:butt;stroke-linejoin:miter;stroke:rgb(0%,0%,0%);stroke-opacity:1;stroke-miterlimit:10;" d="M 303.214844 88 C 303.214844 99.714844 293.714844 109.214844 282 109.214844 C 270.285156 109.214844 260.785156 99.714844 260.785156 88 C 260.785156 76.285156 270.285156 66.785156 282 66.785156 C 293.714844 66.785156 303.214844 76.285156 303.214844 88 "/>
<path style="fill-rule:nonzero;fill:rgb(53%,27%,7%);fill-opacity:1;stroke-width:1;stroke-linecap:butt;stroke-linejoin:miter;stroke:rgb(0%,0%,0%);stroke-opacity:1;stroke-miterlimit:10;" d="M 608.214844 83 C 608.214844 94.714844 598.714844 104.214844 587 104.214844 C 575.285156 104.214844 565.785156 94.714844 565.785156 83 C 565.785156 71.285156 575.285156 61.785156 587 61.785156 C 598.714844 61.785156 608.214844 71.285156 608.214844 83 "/>
<path style="fill-rule:nonzero;fill:rgb(53%,27%,7%);fill-opacity:1;stroke-width:1;stroke-linecap:butt;stroke-linejoin:miter;stroke:rgb(0%,0%,0%);stroke-opacity:1;stroke-miterlimit:10;" d="M 83.214844 117 C 83.214844 128.714844 73.714844 138.214844 62 138.214844 C 50.285156 138.214844 40.785156 128.714844 40.785156 117 C 40.785156 105.285156 50.285156 95.785156 62 95.785156 C 73.714844 95.785156 83.214844 105.285156 83.214844 117 "/>
<path style="fill-rule:nonzero;fill:rgb(53%,27%,7%);fill-opacity:1;stroke-width:1;stroke-linecap:butt;stroke-linejoin:miter;stroke:rgb(0%,0%,0%);stroke-opacity:1;stroke-miterlimit:10;" d="M 996.214844 223 C 996.214844 234.714844 986.714844 244.214844 975 244.214844 C 963.285156 244.214844 953.785156 234.714844 953.785156 223 C 953.785156 211.285156 963.285156 201.785156 975 201.785156 C 986.714844 201.785156 996.214844 211.285156 996.214844 223 "/>
<path style="fill-rule:nonzero;fill:rgb(53%,27%,7%);fill-opacity:1;stroke-width:1;stroke-linecap:butt;stroke-linejoin:miter;stroke:rgb(0%,0%,0%);stroke-opacity:1;stroke-miterlimit:10;" d="M 65.214844 295 C 65.214844 306.714844 55.714844 316.214844 44 316.214844 C 32.285156 316.214844 22.785156 306.714844 22.785156 295 C 22.785156 283.285156 32.285156 273.785156 44 273.785156 C 55.714844 273.785156 65.214844 283.285156 65.214844 295 "/>
<path style="fill-rule:nonzero;fill:rgb(53%,27%,7%);fill-opacity:1;stroke-width:1;stroke-linecap:butt;stroke-linejoin:miter;stroke:rgb(0%,0%,0%);stroke-opacity:1;stroke-miterlimit:10;" d="M 146.214844 412 C 146.214844 423.714844 136.714844 433.214844 125 433.214844 C 113.285156 433.214844 103.785156 423.714844 103.785156 412 C 103.785156 400.285156 113.285156 390.785156 125 390.785156 C 136.714844 390.785156 146.214844 400.285156 146.214844 412 "/>
</g>
</svg>
