<?xml version="1.0" encoding="UTF-8"?>
<svg xmlns="http://www.w3.org/2000/svg" xmlns:xlink="http://www.w3.org/1999/xlink" width="1129pt" height="517pt" viewBox="0 0 1129 517" version="1.1">
<g id="surface331">
<rect x="0" y="0" width="1129" height="517" style="fill:rgb(90%,90%,90%);fill-opacity:1;stroke:none;"/>
<path style="fill-rule:nonzero;fill:rgb(55%,51%,53%);fill-opacity:1;stroke-width:1;stroke-linecap:butt;stroke-linejoin:miter;stroke:rgb(0%,0%,0%);stroke-opacity:1;stroke-miterlimit:10;" d="M 900 426 L 929.664062 426 L 941.664062 397.785156 L 953.664062 426 L 983.332031 426 L 959.332031 443.4375 L 967.417969 474.980469 L 941.664062 457.542969 L 915.914062 474.980469 L 928.214844 443.4375 L 900 426 "/>
<path style="fill-rule:nonzero;fill:rgb(55%,51%,53%);fill-opacity:1;stroke-width:1;stroke-linecap:butt;stroke-linejoin:miter;stroke:rgb(0%,0%,0%);stroke-opacity:1;stroke-miterlimit:10;" d="M 484 90 L 513.664062 90 L 525.664062 61.785156 L 537.664062 90 L 567.332031 90 L 543.332031 107.4375 L 551.417969 138.980469 L 525.664062 121.542969 L 499.914062 138.980469 L 512.214844 107.4375 L 484 90 "/>
<path style="fill-rule:nonzero;fill:rgb(55%,51%,53%);fill-opacity:1;stroke-width:1;stroke-linecap:butt;stroke-linejoin:miter;stroke:rgb(0%,0%,0%);stroke-opacity:1;stroke-miterlimit:10;" d="M 578 80 L 607.664062 80 L 619.664062 51.785156 L 631.664062 80 L 661.332031 80 L 637.332031 97.4375 L 645.417969 128.980469 L 619.664062 111.542969 L 593.914062 128.980469 L 606.214844 97.4375 L 578 80 "/>
<path style="fill-rule:nonzero;fill:rgb(53%,27%,7%);fill-opacity:1;stroke-width:1;stroke-linecap:butt;stroke-linejoin:miter;stroke:rgb(0%,0%,0%);stroke-opacity:1;stroke-miterlimit:10;" d="M 520.214844 408 C 520.214844 419.714844 510.714844 429.214844 499 429.214844 C 487.285156 429.214844 477.785156 419.714844 477.785156 408 C 477.785156 396.285156 487.285156 386.785156 499 386.785156 C 510.714844 386.785156 520.214844 396.285156 520.214844 408 "/>
<path style="fill-rule:nonzero;fill:rgb(53%,27%,7%);fill-opacity:1;stroke-width:1;stroke-linecap:butt;stroke-linejoin:miter;stroke:rgb(0%,0%,0%);stroke-opacity:1;stroke-miterlimit:10;" d="M 395.214844 349 C 395.214844 360.714844 385.714844 370.214844 374 370.214844 C 362.285156 370.214844 352.785156 360.714844 352.785156 349 C 352.785156 337.285156 362.285156 327.785156 374 327.785156 C 385.714844 327.785156 395.214844 337.285156 395.214844 349 "/>
<path style="fill-rule:nonzero;fill:rgb(53%,27%,7%);fill-opacity:1;stroke-width:1;stroke-linecap:butt;stroke-linejoin:miter;stroke:rgb(0%,0%,0%);stroke-opacity:1;stroke-miterlimit:10;" d="M 848.214844 279 C 848.214844 290.714844 838.714844 300.214844 827 300.214844 C 815.285156 300.214844 805.785156 290.714844 805.785156 279 C 805.785156 267.285156 815.285156 257.785156 827 257.785156 C 838.714844 257.785156 848.214844 267.285156 848.214844 279 "/>
<path style="fill-rule:nonzero;fill:rgb(53%,27%,7%);fill-opacity:1;stroke-width:1;stroke-linecap:butt;stroke-linejoin:miter;stroke:rgb(0%,0%,0%);stroke-opacity:1;stroke-miterlimit:10;" d="M 323.214844 421 C 323.214844 432.714844 313.714844 442.214844 302 442.214844 C 290.285156 442.214844 280.785156 432.714844 280.785156 421 C 280.785156 409.285156 290.285156 399.785156 302 399.785156 C 313.714844 399.785156 323.214844 409.285156 323.214844 421 "/>
<path style="fill-rule:nonzero;fill:rgb(53%,27%,7%);fill-opacity:1;stroke-width:1;stroke-linecap:butt;stroke-linejoin:miter;stroke:rgb(0%,0%,0%);stroke-opacity:1;stroke-miterlimit:10;" d="M 66.214844 40 C 66.214844 51.714844 56.714844 61.214844 45 61.214844 C 33.285156 61.214844 23.785156 51.714844 23.785156 40 C 23.785156 28.285156 33.285156 18.785156 45 18.785156 C 56.714844 18.785156 66.214844 28.285156 66.214844 40 "/>
<path style="fill-rule:nonzero;fill:rgb(53%,27%,7%);fill-opacity:1;stroke-width:1;stroke-linecap:butt;stroke-linejoin:miter;stroke:rgb(0%,0%,0%);stroke-opacity:1;stroke-miterlimit:10;" d="M 195.214844 263 C 195.214844 274.714844 185.714844 284.214844 174 284.214844 C 162.285156 284.214844 152.785156 274.714844 152.785156 263 C 152.785156 251.285156 162.285156 241.785156 174 241.785156 C 185.714844 241.785156 195.214844 251.285156 195.214844 263 "/>
</g>
</svg>
