<?xml version="1.0" encoding="UTF-8"?>
<svg xmlns="http://www.w3.org/2000/svg" xmlns:xlink="http://www.w3.org/1999/xlink" width="1129pt" height="517pt" viewBox="0 0 1129 517" version="1.1">
<g id="surface271">
<rect x="0" y="0" width="1129" height="517" style="fill:rgb(90%,90%,90%);fill-opacity:1;stroke:none;"/>
<path style="fill-rule:nonzero;fill:rgb(100%,51%,0%);fill-opacity:1;stroke-width:1;stroke-linecap:butt;stroke-linejoin:miter;stroke:rgb(0%,0%,0%);stroke-opacity:1;stroke-miterlimit:10;" d="M 921 320 L 950.664062 320 L 962.664062 291.785156 L 974.664062 320 L 1004.332031 320 L 980.332031 337.4375 L 988.417969 368.980469 L 962.664062 351.542969 L 936.914062 368.980469 L 949.214844 337.4375 L 921 320 "/>
<path style="fill-rule:nonzero;fill:rgb(100%,51%,0%);fill-opacity:1;stroke-width:1;stroke-linecap:butt;stroke-linejoin:miter;stroke:rgb(0%,0%,0%);stroke-opacity:1;stroke-miterlimit:10;" d="M 755 472 L 784.664062 472 L 796.664062 443.785156 L 808.664062 472 L 838.332031 472 L 814.332031 489.4375 L 822.417969 520.980469 L 796.664062 503.542969 L 770.914062 520.980469 L 783.214844 489.4375 L 755 472 "/>
<path style="fill-rule:nonzero;fill:rgb(100%,51%,0%);fill-opacity:1;stroke-width:1;stroke-linecap:butt;stroke-linejoin:miter;stroke:rgb(0%,0%,0%);stroke-opacity:1;stroke-miterlimit:10;" d="M 549 149 L 578.664062 149 L 590.664062 120.785156 L 602.664062 149 L 632.332031 149 L 608.332031 166.4375 L 616.417969 197.980469 L 590.664062 180.542969 L 564.914062 197.980469 L 577.214844 166.4375 L 549 149 "/>
<path style="fill-rule:nonzero;fill:rgb(100%,51%,0%);fill-opacity:1;stroke-width:1;stroke-linecap:butt;stroke-linejoin:miter;stroke:rgb(0%,0%,0%);stroke-opacity:1;stroke-miterlimit:10;" d="M 119 293 L 148.664062 293 L 160.664062 264.785156 L 172.664062 293 L 202.332031 293 L 178.332031 310.4375 L 186.417969 341.980469 L 160.664062 324.542969 L 134.914062 341.980469 L 147.214844 310.4375 L 119 293 "/>
<path style="fill-rule:nonzero;fill:rgb(100%,51%,0%);fill-opacity:1;stroke-width:1;stroke-linecap:butt;stroke-linejoin:miter;stroke:rgb(0%,0%,0%);stroke-opacity:1;stroke-miterlimit:10;" d="M 340 279 L 369.664062 279 L 381.664062 250.785156 L 393.664062 279 L 423.332031 279 L 399.332031 296.4375 L 407.417969 327.980469 L 381.664062 310.542969 L 355.914062 327.980469 L 368.214844 296.4375 L 340 279 "/>
<path style="fill-rule:nonzero;fill:rgb(100%,51%,0%);fill-opacity:1;stroke-width:1;stroke-linecap:butt;stroke-linejoin:miter;stroke:rgb(0%,0%,0%);stroke-opacity:1;stroke-miterlimit:10;" d="M 231 90 L 260.664062 90 L 272.664062 61.785156 L 284.664062 90 L 314.332031 90 L 290.332031 107.4375 L 298.417969 138.980469 L 272.664062 121.542969 L 246.914062 138.980469 L 259.214844 107.4375 L 231 90 "/>
<path style="fill-rule:nonzero;fill:rgb(100%,51%,0%);fill-opacity:1;stroke-width:1;stroke-linecap:butt;stroke-linejoin:miter;stroke:rgb(0%,0%,0%);stroke-opacity:1;stroke-miterlimit:10;" d="M 682 291 L 711.664062 291 L 723.664062 262.785156 L 735.664062 291 L 765.332031 291 L 741.332031 308.4375 L 749.417969 339.980469 L 723.664062 322.542969 L 697.914062 339.980469 L 710.214844 308.4375 L 682 291 "/>
<path style="fill-rule:nonzero;fill:rgb(100%,51%,0%);fill-opacity:1;stroke-width:1;stroke-linecap:butt;stroke-linejoin:miter;stroke:rgb(0%,0%,0%);stroke-opacity:1;stroke-miterlimit:10;" d="M 306 146 L 335.664062 146 L 347.664062 117.785156 L 359.664062 146 L 389.332031 146 L 365.332031 163.4375 L 373.417969 194.980469 L 347.664062 177.542969 L 321.914062 194.980469 L 334.214844 163.4375 L 306 146 "/>
<path style="fill-rule:nonzero;fill:rgb(53%,27%,7%);fill-opacity:1;stroke-width:1;stroke-linecap:butt;stroke-linejoin:miter;stroke:rgb(0%,0%,0%);stroke-opacity:1;stroke-miterlimit:10;" d="M 884.214844 117 C 884.214844 128.714844 874.714844 138.214844 863 138.214844 C 851.285156 138.214844 841.785156 128.714844 841.785156 117 C 841.785156 105.285156 851.285156 95.785156 863 95.785156 C 874.714844 95.785156 884.214844 105.285156 884.214844 117 "/>
<path style="fill-rule:nonzero;fill:rgb(53%,27%,7%);fill-opacity:1;stroke-width:1;stroke-linecap:butt;stroke-linejoin:miter;stroke:rgb(0%,0%,0%);stroke-opacity:1;stroke-miterlimit:10;" d="M 716.214844 101 C 716.214844 112.714844 706.714844 122.214844 695 122.214844 C 683.285156 122.214844 673.785156 112.714844 673.785156 101 C 673.785156 89.285156 683.285156 79.785156 695 79.785156 C 706.714844 79.785156 716.214844 89.285156 716.214844 101 "/>
<path style="fill-rule:nonzero;fill:rgb(53%,27%,7%);fill-opacity:1;stroke-width:1;stroke-linecap:butt;stroke-linejoin:miter;stroke:rgb(0%,0%,0%);stroke-opacity:1;stroke-miterlimit:10;" d="M 478.214844 463 C 478.214844 474.714844 468.714844 484.214844 457 484.214844 C 445.285156 484.214844 435.785156 474.714844 435.785156 463 C 435.785156 451.285156 445.285156 441.785156 457 441.785156 C 468.714844 441.785156 478.214844 451.285156 478.214844 463 "/>
<path style="fill-rule:nonzero;fill:rgb(53%,27%,7%);fill-opacity:1;stroke-width:1;stroke-linecap:butt;stroke-linejoin:miter;stroke:rgb(0%,0%,0%);stroke-opacity:1;stroke-miterlimit:10;" d="M 376.214844 451 C 376.214844 462.714844 366.714844 472.214844 355 472.214844 C 343.285156 472.214844 333.785156 462.714844 333.785156 451 C 333.785156 439.285156 343.285156 429.785156 355 429.785156 C 366.714844 429.785156 376.214844 439.285156 376.214844 451 "/>
<path style="fill-rule:nonzero;fill:rgb(53%,27%,7%);fill-opacity:1;stroke-width:1;stroke-linecap:butt;stroke-linejoin:miter;stroke:rgb(0%,0%,0%);stroke-opacity:1;stroke-miterlimit:10;" d="M 92.214844 49 C 92.214844 60.714844 82.714844 70.214844 71 70.214844 C 59.285156 70.214844 49.785156 60.714844 49.785156 49 C 49.785156 37.285156 59.285156 27.785156 71 27.785156 C 82.714844 27.785156 92.214844 37.285156 92.214844 49 "/>
</g>
</svg>
