<?xml version="1.0" encoding="UTF-8"?>
<svg xmlns="http://www.w3.org/2000/svg" xmlns:xlink="http://www.w3.org/1999/xlink" width="1129pt" height="517pt" viewBox="0 0 1129 517" version="1.1">
<g id="surface281">
<rect x="0" y="0" width="1129" height="517" style="fill:rgb(90%,90%,90%);fill-opacity:1;stroke:none;"/>
<path style="fill-rule:nonzero;fill:rgb(100%,51%,0%);fill-opacity:1;stroke-width:1;stroke-linecap:butt;stroke-linejoin:miter;stroke:rgb(0%,0%,0%);stroke-opacity:1;stroke-miterlimit:10;" d="M 153 229 L 182.664062 229 L 194.664062 200.785156 L 206.664062 229 L 236.332031 229 L 212.332031 246.4375 L 220.417969 277.980469 L 194.664062 260.542969 L 168.914062 277.980469 L 181.214844 246.4375 L 153 229 "/>
<path style="fill-rule:nonzero;fill:rgb(53%,27%,7%);fill-opacity:1;stroke-width:1;stroke-linecap:butt;stroke-linejoin:miter;stroke:rgb(0%,0%,0%);stroke-opacity:1;stroke-miterlimit:10;" d="M 376 311 L 405.664062 311 L 417.664062 282.785156 L 429.664062 311 L 459.332031 311 L 435.332031 328.4375 L 443.417969 359.980469 L 417.664062 342.542969 L 391.914062 359.980469 L 404.214844 328.4375 L 376 311 "/>
<path style="fill-rule:nonzero;fill:rgb(100%,51%,0%);fill-opacity:1;stroke-width:1;stroke-linecap:butt;stroke-linejoin:miter;stroke:rgb(0%,0%,0%);stroke-opacity:1;stroke-miterlimit:10;" d="M 100 111 L 129.664062 111 L 141.664062 82.785156 L 153.664062 111 L 183.332031 111 L 159.332031 128.4375 L 167.417969 159.980469 L 141.664062 142.542969 L 115.914062 159.980469 L 128.214844 128.4375 L 100 111 "/>
<path style="fill-rule:nonzero;fill:rgb(100%,51%,0%);fill-opacity:1;stroke-width:1;stroke-linecap:butt;stroke-linejoin:miter;stroke:rgb(0%,0%,0%);stroke-opacity:1;stroke-miterlimit:10;" d="M 168 410 L 197.664062 410 L 209.664062 381.785156 L 221.664062 410 L 251.332031 410 L 227.332031 427.4375 L 235.417969 458.980469 L 209.664062 441.542969 L 183.914062 458.980469 L 196.214844 427.4375 L 168 410 "/>
<path style="fill-rule:nonzero;fill:rgb(53%,27%,7%);fill-opacity:1;stroke-width:1;stroke-linecap:butt;stroke-linejoin:miter;stroke:rgb(0%,0%,0%);stroke-opacity:1;stroke-miterlimit:10;" d="M 246.785156 236.785156 L 246.785156 279.214844 L 289.214844 279.214844 L 289.214844 236.785156 L 246.785156 236.785156 "/>
</g>
</svg>
