<?xml version="1.0" encoding="UTF-8"?>
<svg xmlns="http://www.w3.org/2000/svg" xmlns:xlink="http://www.w3.org/1999/xlink" width="1129pt" height="517pt" viewBox="0 0 1129 517" version="1.1">
<g id="surface466">
<rect x="0" y="0" width="1129" height="517" style="fill:rgb(90%,90%,90%);fill-opacity:1;stroke:none;"/>
<path style="fill-rule:nonzero;fill:rgb(100%,51%,0%);fill-opacity:1;stroke-width:1;stroke-linecap:butt;stroke-linejoin:miter;stroke:rgb(0%,0%,0%);stroke-opacity:1;stroke-miterlimit:10;" d="M 366.214844 107 C 366.214844 118.714844 356.714844 128.214844 345 128.214844 C 333.285156 128.214844 323.785156 118.714844 323.785156 107 C 323.785156 95.285156 333.285156 85.785156 345 85.785156 C 356.714844 85.785156 366.214844 95.285156 366.214844 107 "/>
<path style="fill-rule:nonzero;fill:rgb(100%,51%,0%);fill-opacity:1;stroke-width:1;stroke-linecap:butt;stroke-linejoin:miter;stroke:rgb(0%,0%,0%);stroke-opacity:1;stroke-miterlimit:10;" d="M 463 279 L 437.019531 324 L 488.980469 324 L 463 279 "/>
<path style="fill-rule:nonzero;fill:rgb(100%,51%,0%);fill-opacity:1;stroke-width:1;stroke-linecap:butt;stroke-linejoin:miter;stroke:rgb(0%,0%,0%);stroke-opacity:1;stroke-miterlimit:10;" d="M 134 236 L 108.019531 281 L 159.980469 281 L 134 236 "/>
<path style="fill-rule:nonzero;fill:rgb(100%,51%,0%);fill-opacity:1;stroke-width:1;stroke-linecap:butt;stroke-linejoin:miter;stroke:rgb(0%,0%,0%);stroke-opacity:1;stroke-miterlimit:10;" d="M 237.214844 312 C 237.214844 323.714844 227.714844 333.214844 216 333.214844 C 204.285156 333.214844 194.785156 323.714844 194.785156 312 C 194.785156 300.285156 204.285156 290.785156 216 290.785156 C 227.714844 290.785156 237.214844 300.285156 237.214844 312 "/>
<path style="fill-rule:nonzero;fill:rgb(100%,51%,0%);fill-opacity:1;stroke-width:1;stroke-linecap:butt;stroke-linejoin:miter;stroke:rgb(0%,0%,0%);stroke-opacity:1;stroke-miterlimit:10;" d="M 81.214844 348 C 81.214844 359.714844 71.714844 369.214844 60 369.214844 C 48.285156 369.214844 38.785156 359.714844 38.785156 348 C 38.785156 336.285156 48.285156 326.785156 60 326.785156 C 71.714844 326.785156 81.214844 336.285156 81.214844 348 "/>
<path style="fill-rule:nonzero;fill:rgb(53%,27%,7%);fill-opacity:1;stroke-width:1;stroke-linecap:butt;stroke-linejoin:miter;stroke:rgb(0%,0%,0%);stroke-opacity:1;stroke-miterlimit:10;" d="M 920 116 L 894.019531 161 L 945.980469 161 L 920 116 "/>
<path style="fill-rule:nonzero;fill:rgb(53%,27%,7%);fill-opacity:1;stroke-width:1;stroke-linecap:butt;stroke-linejoin:miter;stroke:rgb(0%,0%,0%);stroke-opacity:1;stroke-miterlimit:10;" d="M 778.214844 122 C 778.214844 133.714844 768.714844 143.214844 757 143.214844 C 745.285156 143.214844 735.785156 133.714844 735.785156 122 C 735.785156 110.285156 745.285156 100.785156 757 100.785156 C 768.714844 100.785156 778.214844 110.285156 778.214844 122 "/>
<path style="fill-rule:nonzero;fill:rgb(53%,27%,7%);fill-opacity:1;stroke-width:1;stroke-linecap:butt;stroke-linejoin:miter;stroke:rgb(0%,0%,0%);stroke-opacity:1;stroke-miterlimit:10;" d="M 1011.214844 84 C 1011.214844 95.714844 1001.714844 105.214844 990 105.214844 C 978.285156 105.214844 968.785156 95.714844 968.785156 84 C 968.785156 72.285156 978.285156 62.785156 990 62.785156 C 1001.714844 62.785156 1011.214844 72.285156 1011.214844 84 "/>
<path style="fill-rule:nonzero;fill:rgb(53%,27%,7%);fill-opacity:1;stroke-width:1;stroke-linecap:butt;stroke-linejoin:miter;stroke:rgb(0%,0%,0%);stroke-opacity:1;stroke-miterlimit:10;" d="M 964 364 L 938.019531 409 L 989.980469 409 L 964 364 "/>
<path style="fill-rule:nonzero;fill:rgb(53%,27%,7%);fill-opacity:1;stroke-width:1;stroke-linecap:butt;stroke-linejoin:miter;stroke:rgb(0%,0%,0%);stroke-opacity:1;stroke-miterlimit:10;" d="M 613 185 L 587.019531 230 L 638.980469 230 L 613 185 "/>
<path style="fill-rule:nonzero;fill:rgb(53%,27%,7%);fill-opacity:1;stroke-width:1;stroke-linecap:butt;stroke-linejoin:miter;stroke:rgb(0%,0%,0%);stroke-opacity:1;stroke-miterlimit:10;" d="M 642 34 L 616.019531 79 L 667.980469 79 L 642 34 "/>
<path style="fill-rule:nonzero;fill:rgb(53%,27%,7%);fill-opacity:1;stroke-width:1;stroke-linecap:butt;stroke-linejoin:miter;stroke:rgb(0%,0%,0%);stroke-opacity:1;stroke-miterlimit:10;" d="M 668 300 L 642.019531 345 L 693.980469 345 L 668 300 "/>
</g>
</svg>
