<?xml version="1.0" encoding="UTF-8"?>
<svg xmlns="http://www.w3.org/2000/svg" xmlns:xlink="http://www.w3.org/1999/xlink" width="1129pt" height="517pt" viewBox="0 0 1129 517" version="1.1">
<g id="surface376">
<rect x="0" y="0" width="1129" height="517" style="fill:rgb(90%,90%,90%);fill-opacity:1;stroke:none;"/>
<path style="fill-rule:nonzero;fill:rgb(35%,70%,90%);fill-opacity:1;stroke-width:1;stroke-linecap:butt;stroke-linejoin:miter;stroke:rgb(0%,0%,0%);stroke-opacity:1;stroke-miterlimit:10;" d="M 449.214844 299 C 449.214844 310.714844 439.714844 320.214844 428 320.214844 C 416.285156 320.214844 406.785156 310.714844 406.785156 299 C 406.785156 287.285156 416.285156 277.785156 428 277.785156 C 439.714844 277.785156 449.214844 287.285156 449.214844 299 "/>
<path style="fill-rule:nonzero;fill:rgb(35%,70%,90%);fill-opacity:1;stroke-width:1;stroke-linecap:butt;stroke-linejoin:miter;stroke:rgb(0%,0%,0%);stroke-opacity:1;stroke-miterlimit:10;" d="M 334.214844 69 C 334.214844 80.714844 324.714844 90.214844 313 90.214844 C 301.285156 90.214844 291.785156 80.714844 291.785156 69 C 291.785156 57.285156 301.285156 47.785156 313 47.785156 C 324.714844 47.785156 334.214844 57.285156 334.214844 69 "/>
<path style="fill-rule:nonzero;fill:rgb(35%,70%,90%);fill-opacity:1;stroke-width:1;stroke-linecap:butt;stroke-linejoin:miter;stroke:rgb(0%,0%,0%);stroke-opacity:1;stroke-miterlimit:10;" d="M 328.214844 178 C 328.214844 189.714844 318.714844 199.214844 307 199.214844 C 295.285156 199.214844 285.785156 189.714844 285.785156 178 C 285.785156 166.285156 295.285156 156.785156 307 156.785156 C 318.714844 156.785156 328.214844 166.285156 328.214844 178 "/>
<path style="fill-rule:nonzero;fill:rgb(100%,51%,0%);fill-opacity:1;stroke-width:1;stroke-linecap:butt;stroke-linejoin:miter;stroke:rgb(0%,0%,0%);stroke-opacity:1;stroke-miterlimit:10;" d="M 766 270 L 740.019531 315 L 791.980469 315 L 766 270 "/>
<path style="fill-rule:nonzero;fill:rgb(100%,51%,0%);fill-opacity:1;stroke-width:1;stroke-linecap:butt;stroke-linejoin:miter;stroke:rgb(0%,0%,0%);stroke-opacity:1;stroke-miterlimit:10;" d="M 711 184 L 685.019531 229 L 736.980469 229 L 711 184 "/>
<path style="fill-rule:nonzero;fill:rgb(100%,51%,0%);fill-opacity:1;stroke-width:1;stroke-linecap:butt;stroke-linejoin:miter;stroke:rgb(0%,0%,0%);stroke-opacity:1;stroke-miterlimit:10;" d="M 948 227 L 922.019531 272 L 973.980469 272 L 948 227 "/>
</g>
</svg>
