<?xml version="1.0" encoding="UTF-8"?>
<svg xmlns="http://www.w3.org/2000/svg" xmlns:xlink="http://www.w3.org/1999/xlink" width="1129pt" height="517pt" viewBox="0 0 1129 517" version="1.1">
<g id="surface401">
<rect x="0" y="0" width="1129" height="517" style="fill:rgb(90%,90%,90%);fill-opacity:1;stroke:none;"/>
<path style="fill-rule:nonzero;fill:rgb(35%,70%,90%);fill-opacity:1;stroke-width:1;stroke-linecap:butt;stroke-linejoin:miter;stroke:rgb(0%,0%,0%);stroke-opacity:1;stroke-miterlimit:10;" d="M 136 209 L 165.664062 209 L 177.664062 180.785156 L 189.664062 209 L 219.332031 209 L 195.332031 226.4375 L 203.417969 257.980469 L 177.664062 240.542969 L 151.914062 257.980469 L 164.214844 226.4375 L 136 209 "/>
<path style="fill-rule:nonzero;fill:rgb(35%,70%,90%);fill-opacity:1;stroke-width:1;stroke-linecap:butt;stroke-linejoin:miter;stroke:rgb(0%,0%,0%);stroke-opacity:1;stroke-miterlimit:10;" d="M 83.785156 313.785156 L 83.785156 356.214844 L 126.214844 356.214844 L 126.214844 313.785156 L 83.785156 313.785156 "/>
<path style="fill-rule:nonzero;fill:rgb(35%,70%,90%);fill-opacity:1;stroke-width:1;stroke-linecap:butt;stroke-linejoin:miter;stroke:rgb(0%,0%,0%);stroke-opacity:1;stroke-miterlimit:10;" d="M 441 126 L 470.664062 126 L 482.664062 97.785156 L 494.664062 126 L 524.332031 126 L 500.332031 143.4375 L 508.417969 174.980469 L 482.664062 157.542969 L 456.914062 174.980469 L 469.214844 143.4375 L 441 126 "/>
<path style="fill-rule:nonzero;fill:rgb(35%,70%,90%);fill-opacity:1;stroke-width:1;stroke-linecap:butt;stroke-linejoin:miter;stroke:rgb(0%,0%,0%);stroke-opacity:1;stroke-miterlimit:10;" d="M 302.785156 128.785156 L 302.785156 171.214844 L 345.214844 171.214844 L 345.214844 128.785156 L 302.785156 128.785156 "/>
<path style="fill-rule:nonzero;fill:rgb(35%,70%,90%);fill-opacity:1;stroke-width:1;stroke-linecap:butt;stroke-linejoin:miter;stroke:rgb(0%,0%,0%);stroke-opacity:1;stroke-miterlimit:10;" d="M 379 279 L 408.664062 279 L 420.664062 250.785156 L 432.664062 279 L 462.332031 279 L 438.332031 296.4375 L 446.417969 327.980469 L 420.664062 310.542969 L 394.914062 327.980469 L 407.214844 296.4375 L 379 279 "/>
<path style="fill-rule:nonzero;fill:rgb(35%,70%,90%);fill-opacity:1;stroke-width:1;stroke-linecap:butt;stroke-linejoin:miter;stroke:rgb(0%,0%,0%);stroke-opacity:1;stroke-miterlimit:10;" d="M 44 168 L 73.664062 168 L 85.664062 139.785156 L 97.664062 168 L 127.332031 168 L 103.332031 185.4375 L 111.417969 216.980469 L 85.664062 199.542969 L 59.914062 216.980469 L 72.214844 185.4375 L 44 168 "/>
<path style="fill-rule:nonzero;fill:rgb(53%,27%,7%);fill-opacity:1;stroke-width:1;stroke-linecap:butt;stroke-linejoin:miter;stroke:rgb(0%,0%,0%);stroke-opacity:1;stroke-miterlimit:10;" d="M 699.785156 444.785156 L 699.785156 487.214844 L 742.214844 487.214844 L 742.214844 444.785156 L 699.785156 444.785156 "/>
<path style="fill-rule:nonzero;fill:rgb(53%,27%,7%);fill-opacity:1;stroke-width:1;stroke-linecap:butt;stroke-linejoin:miter;stroke:rgb(0%,0%,0%);stroke-opacity:1;stroke-miterlimit:10;" d="M 962 457 L 991.664062 457 L 1003.664062 428.785156 L 1015.664062 457 L 1045.332031 457 L 1021.332031 474.4375 L 1029.417969 505.980469 L 1003.664062 488.542969 L 977.914062 505.980469 L 990.214844 474.4375 L 962 457 "/>
<path style="fill-rule:nonzero;fill:rgb(53%,27%,7%);fill-opacity:1;stroke-width:1;stroke-linecap:butt;stroke-linejoin:miter;stroke:rgb(0%,0%,0%);stroke-opacity:1;stroke-miterlimit:10;" d="M 984.785156 82.785156 L 984.785156 125.214844 L 1027.214844 125.214844 L 1027.214844 82.785156 L 984.785156 82.785156 "/>
<path style="fill-rule:nonzero;fill:rgb(53%,27%,7%);fill-opacity:1;stroke-width:1;stroke-linecap:butt;stroke-linejoin:miter;stroke:rgb(0%,0%,0%);stroke-opacity:1;stroke-miterlimit:10;" d="M 874 317 L 903.664062 317 L 915.664062 288.785156 L 927.664062 317 L 957.332031 317 L 933.332031 334.4375 L 941.417969 365.980469 L 915.664062 348.542969 L 889.914062 365.980469 L 902.214844 334.4375 L 874 317 "/>
<path style="fill-rule:nonzero;fill:rgb(53%,27%,7%);fill-opacity:1;stroke-width:1;stroke-linecap:butt;stroke-linejoin:miter;stroke:rgb(0%,0%,0%);stroke-opacity:1;stroke-miterlimit:10;" d="M 833.785156 80.785156 L 833.785156 123.214844 L 876.214844 123.214844 L 876.214844 80.785156 L 833.785156 80.785156 "/>
<path style="fill-rule:nonzero;fill:rgb(53%,27%,7%);fill-opacity:1;stroke-width:1;stroke-linecap:butt;stroke-linejoin:miter;stroke:rgb(0%,0%,0%);stroke-opacity:1;stroke-miterlimit:10;" d="M 728.785156 349.785156 L 728.785156 392.214844 L 771.214844 392.214844 L 771.214844 349.785156 L 728.785156 349.785156 "/>
<path style="fill-rule:nonzero;fill:rgb(53%,27%,7%);fill-opacity:1;stroke-width:1;stroke-linecap:butt;stroke-linejoin:miter;stroke:rgb(0%,0%,0%);stroke-opacity:1;stroke-miterlimit:10;" d="M 606.785156 230.785156 L 606.785156 273.214844 L 649.214844 273.214844 L 649.214844 230.785156 L 606.785156 230.785156 "/>
</g>
</svg>
