<?xml version="1.0" encoding="UTF-8"?>
<svg xmlns="http://www.w3.org/2000/svg" xmlns:xlink="http://www.w3.org/1999/xlink" width="1129pt" height="517pt" viewBox="0 0 1129 517" version="1.1">
<g id="surface641">
<rect x="0" y="0" width="1129" height="517" style="fill:rgb(90%,90%,90%);fill-opacity:1;stroke:none;"/>
<path style="fill-rule:nonzero;fill:rgb(100%,51%,0%);fill-opacity:1;stroke-width:1;stroke-linecap:butt;stroke-linejoin:miter;stroke:rgb(0%,0%,0%);stroke-opacity:1;stroke-miterlimit:10;" d="M 131 125 L 160.664062 125 L 172.664062 96.785156 L 184.664062 125 L 214.332031 125 L 190.332031 142.4375 L 198.417969 173.980469 L 172.664062 156.542969 L 146.914062 173.980469 L 159.214844 142.4375 L 131 125 "/>
<path style="fill-rule:nonzero;fill:rgb(100%,51%,0%);fill-opacity:1;stroke-width:1;stroke-linecap:butt;stroke-linejoin:miter;stroke:rgb(0%,0%,0%);stroke-opacity:1;stroke-miterlimit:10;" d="M 239 211 L 268.664062 211 L 280.664062 182.785156 L 292.664062 211 L 322.332031 211 L 298.332031 228.4375 L 306.417969 259.980469 L 280.664062 242.542969 L 254.914062 259.980469 L 267.214844 228.4375 L 239 211 "/>
<path style="fill-rule:nonzero;fill:rgb(53%,27%,7%);fill-opacity:1;stroke-width:1;stroke-linecap:butt;stroke-linejoin:miter;stroke:rgb(0%,0%,0%);stroke-opacity:1;stroke-miterlimit:10;" d="M 320.785156 354.785156 L 320.785156 397.214844 L 363.214844 397.214844 L 363.214844 354.785156 L 320.785156 354.785156 "/>
</g>
</svg>
