<?xml version="1.0" encoding="UTF-8"?>
<svg xmlns="http://www.w3.org/2000/svg" xmlns:xlink="http://www.w3.org/1999/xlink" width="1129pt" height="517pt" viewBox="0 0 1129 517" version="1.1">
<g id="surface561">
<rect x="0" y="0" width="1129" height="517" style="fill:rgb(90%,90%,90%);fill-opacity:1;stroke:none;"/>
<path style="fill-rule:nonzero;fill:rgb(35%,70%,90%);fill-opacity:1;stroke-width:1;stroke-linecap:butt;stroke-linejoin:miter;stroke:rgb(0%,0%,0%);stroke-opacity:1;stroke-miterlimit:10;" d="M 467.214844 76 C 467.214844 87.714844 457.714844 97.214844 446 97.214844 C 434.285156 97.214844 424.785156 87.714844 424.785156 76 C 424.785156 64.285156 434.285156 54.785156 446 54.785156 C 457.714844 54.785156 467.214844 64.285156 467.214844 76 "/>
<path style="fill-rule:nonzero;fill:rgb(100%,51%,0%);fill-opacity:1;stroke-width:1;stroke-linecap:butt;stroke-linejoin:miter;stroke:rgb(0%,0%,0%);stroke-opacity:1;stroke-miterlimit:10;" d="M 198.214844 199 C 198.214844 210.714844 188.714844 220.214844 177 220.214844 C 165.285156 220.214844 155.785156 210.714844 155.785156 199 C 155.785156 187.285156 165.285156 177.785156 177 177.785156 C 188.714844 177.785156 198.214844 187.285156 198.214844 199 "/>
<path style="fill-rule:nonzero;fill:rgb(35%,70%,90%);fill-opacity:1;stroke-width:1;stroke-linecap:butt;stroke-linejoin:miter;stroke:rgb(0%,0%,0%);stroke-opacity:1;stroke-miterlimit:10;" d="M 346.214844 397 C 346.214844 408.714844 336.714844 418.214844 325 418.214844 C 313.285156 418.214844 303.785156 408.714844 303.785156 397 C 303.785156 385.285156 313.285156 375.785156 325 375.785156 C 336.714844 375.785156 346.214844 385.285156 346.214844 397 "/>
<path style="fill-rule:nonzero;fill:rgb(100%,51%,0%);fill-opacity:1;stroke-width:1;stroke-linecap:butt;stroke-linejoin:miter;stroke:rgb(0%,0%,0%);stroke-opacity:1;stroke-miterlimit:10;" d="M 134.214844 114 C 134.214844 125.714844 124.714844 135.214844 113 135.214844 C 101.285156 135.214844 91.785156 125.714844 91.785156 114 C 91.785156 102.285156 101.285156 92.785156 113 92.785156 C 124.714844 92.785156 134.214844 102.285156 134.214844 114 "/>
<path style="fill-rule:nonzero;fill:rgb(35%,70%,90%);fill-opacity:1;stroke-width:1;stroke-linecap:butt;stroke-linejoin:miter;stroke:rgb(0%,0%,0%);stroke-opacity:1;stroke-miterlimit:10;" d="M 409.214844 276 C 409.214844 287.714844 399.714844 297.214844 388 297.214844 C 376.285156 297.214844 366.785156 287.714844 366.785156 276 C 366.785156 264.285156 376.285156 254.785156 388 254.785156 C 399.714844 254.785156 409.214844 264.285156 409.214844 276 "/>
<path style="fill-rule:nonzero;fill:rgb(35%,70%,90%);fill-opacity:1;stroke-width:1;stroke-linecap:butt;stroke-linejoin:miter;stroke:rgb(0%,0%,0%);stroke-opacity:1;stroke-miterlimit:10;" d="M 305.214844 260 C 305.214844 271.714844 295.714844 281.214844 284 281.214844 C 272.285156 281.214844 262.785156 271.714844 262.785156 260 C 262.785156 248.285156 272.285156 238.785156 284 238.785156 C 295.714844 238.785156 305.214844 248.285156 305.214844 260 "/>
<path style="fill-rule:nonzero;fill:rgb(100%,51%,0%);fill-opacity:1;stroke-width:1;stroke-linecap:butt;stroke-linejoin:miter;stroke:rgb(0%,0%,0%);stroke-opacity:1;stroke-miterlimit:10;" d="M 988.785156 308.785156 L 988.785156 351.214844 L 1031.214844 351.214844 L 1031.214844 308.785156 L 988.785156 308.785156 "/>
<path style="fill-rule:nonzero;fill:rgb(35%,70%,90%);fill-opacity:1;stroke-width:1;stroke-linecap:butt;stroke-linejoin:miter;stroke:rgb(0%,0%,0%);stroke-opacity:1;stroke-miterlimit:10;" d="M 629.785156 31.785156 L 629.785156 74.214844 L 672.214844 74.214844 L 672.214844 31.785156 L 629.785156 31.785156 "/>
<path style="fill-rule:nonzero;fill:rgb(100%,51%,0%);fill-opacity:1;stroke-width:1;stroke-linecap:butt;stroke-linejoin:miter;stroke:rgb(0%,0%,0%);stroke-opacity:1;stroke-miterlimit:10;" d="M 824.785156 379.785156 L 824.785156 422.214844 L 867.214844 422.214844 L 867.214844 379.785156 L 824.785156 379.785156 "/>
<path style="fill-rule:nonzero;fill:rgb(35%,70%,90%);fill-opacity:1;stroke-width:1;stroke-linecap:butt;stroke-linejoin:miter;stroke:rgb(0%,0%,0%);stroke-opacity:1;stroke-miterlimit:10;" d="M 909.785156 153.785156 L 909.785156 196.214844 L 952.214844 196.214844 L 952.214844 153.785156 L 909.785156 153.785156 "/>
<path style="fill-rule:nonzero;fill:rgb(100%,51%,0%);fill-opacity:1;stroke-width:1;stroke-linecap:butt;stroke-linejoin:miter;stroke:rgb(0%,0%,0%);stroke-opacity:1;stroke-miterlimit:10;" d="M 652.785156 404.785156 L 652.785156 447.214844 L 695.214844 447.214844 L 695.214844 404.785156 L 652.785156 404.785156 "/>
<path style="fill-rule:nonzero;fill:rgb(100%,51%,0%);fill-opacity:1;stroke-width:1;stroke-linecap:butt;stroke-linejoin:miter;stroke:rgb(0%,0%,0%);stroke-opacity:1;stroke-miterlimit:10;" d="M 676.785156 243.785156 L 676.785156 286.214844 L 719.214844 286.214844 L 719.214844 243.785156 L 676.785156 243.785156 "/>
</g>
</svg>
