<?xml version="1.0" encoding="UTF-8"?>
<svg xmlns="http://www.w3.org/2000/svg" xmlns:xlink="http://www.w3.org/1999/xlink" width="1129pt" height="517pt" viewBox="0 0 1129 517" version="1.1">
<g id="surface46">
<rect x="0" y="0" width="1129" height="517" style="fill:rgb(90%,90%,90%);fill-opacity:1;stroke:none;"/>
<path style="fill-rule:nonzero;fill:rgb(35%,70%,90%);fill-opacity:1;stroke-width:1;stroke-linecap:butt;stroke-linejoin:miter;stroke:rgb(0%,0%,0%);stroke-opacity:1;stroke-miterlimit:10;" d="M 125.214844 288 C 125.214844 299.714844 115.714844 309.214844 104 309.214844 C 92.285156 309.214844 82.785156 299.714844 82.785156 288 C 82.785156 276.285156 92.285156 266.785156 104 266.785156 C 115.714844 266.785156 125.214844 276.285156 125.214844 288 "/>
<path style="fill-rule:nonzero;fill:rgb(35%,70%,90%);fill-opacity:1;stroke-width:1;stroke-linecap:butt;stroke-linejoin:miter;stroke:rgb(0%,0%,0%);stroke-opacity:1;stroke-miterlimit:10;" d="M 491.214844 182 C 491.214844 193.714844 481.714844 203.214844 470 203.214844 C 458.285156 203.214844 448.785156 193.714844 448.785156 182 C 448.785156 170.285156 458.285156 160.785156 470 160.785156 C 481.714844 160.785156 491.214844 170.285156 491.214844 182 "/>
<path style="fill-rule:nonzero;fill:rgb(35%,70%,90%);fill-opacity:1;stroke-width:1;stroke-linecap:butt;stroke-linejoin:miter;stroke:rgb(0%,0%,0%);stroke-opacity:1;stroke-miterlimit:10;" d="M 50 369 L 24.019531 414 L 75.980469 414 L 50 369 "/>
<path style="fill-rule:nonzero;fill:rgb(35%,70%,90%);fill-opacity:1;stroke-width:1;stroke-linecap:butt;stroke-linejoin:miter;stroke:rgb(0%,0%,0%);stroke-opacity:1;stroke-miterlimit:10;" d="M 247 90 L 221.019531 135 L 272.980469 135 L 247 90 "/>
<path style="fill-rule:nonzero;fill:rgb(35%,70%,90%);fill-opacity:1;stroke-width:1;stroke-linecap:butt;stroke-linejoin:miter;stroke:rgb(0%,0%,0%);stroke-opacity:1;stroke-miterlimit:10;" d="M 463.214844 312 C 463.214844 323.714844 453.714844 333.214844 442 333.214844 C 430.285156 333.214844 420.785156 323.714844 420.785156 312 C 420.785156 300.285156 430.285156 290.785156 442 290.785156 C 453.714844 290.785156 463.214844 300.285156 463.214844 312 "/>
<path style="fill-rule:nonzero;fill:rgb(35%,70%,90%);fill-opacity:1;stroke-width:1;stroke-linecap:butt;stroke-linejoin:miter;stroke:rgb(0%,0%,0%);stroke-opacity:1;stroke-miterlimit:10;" d="M 225.214844 357 C 225.214844 368.714844 215.714844 378.214844 204 378.214844 C 192.285156 378.214844 182.785156 368.714844 182.785156 357 C 182.785156 345.285156 192.285156 335.785156 204 335.785156 C 215.714844 335.785156 225.214844 345.285156 225.214844 357 "/>
<path style="fill-rule:nonzero;fill:rgb(35%,70%,90%);fill-opacity:1;stroke-width:1;stroke-linecap:butt;stroke-linejoin:miter;stroke:rgb(0%,0%,0%);stroke-opacity:1;stroke-miterlimit:10;" d="M 361.214844 214 C 361.214844 225.714844 351.714844 235.214844 340 235.214844 C 328.285156 235.214844 318.785156 225.714844 318.785156 214 C 318.785156 202.285156 328.285156 192.785156 340 192.785156 C 351.714844 192.785156 361.214844 202.285156 361.214844 214 "/>
<path style="fill-rule:nonzero;fill:rgb(35%,70%,90%);fill-opacity:1;stroke-width:1;stroke-linecap:butt;stroke-linejoin:miter;stroke:rgb(0%,0%,0%);stroke-opacity:1;stroke-miterlimit:10;" d="M 330.214844 368 C 330.214844 379.714844 320.714844 389.214844 309 389.214844 C 297.285156 389.214844 287.785156 379.714844 287.785156 368 C 287.785156 356.285156 297.285156 346.785156 309 346.785156 C 320.714844 346.785156 330.214844 356.285156 330.214844 368 "/>
<path style="fill-rule:nonzero;fill:rgb(53%,27%,7%);fill-opacity:1;stroke-width:1;stroke-linecap:butt;stroke-linejoin:miter;stroke:rgb(0%,0%,0%);stroke-opacity:1;stroke-miterlimit:10;" d="M 996 27 L 970.019531 72 L 1021.980469 72 L 996 27 "/>
<path style="fill-rule:nonzero;fill:rgb(53%,27%,7%);fill-opacity:1;stroke-width:1;stroke-linecap:butt;stroke-linejoin:miter;stroke:rgb(0%,0%,0%);stroke-opacity:1;stroke-miterlimit:10;" d="M 652 277 L 626.019531 322 L 677.980469 322 L 652 277 "/>
<path style="fill-rule:nonzero;fill:rgb(53%,27%,7%);fill-opacity:1;stroke-width:1;stroke-linecap:butt;stroke-linejoin:miter;stroke:rgb(0%,0%,0%);stroke-opacity:1;stroke-miterlimit:10;" d="M 969.214844 299 C 969.214844 310.714844 959.714844 320.214844 948 320.214844 C 936.285156 320.214844 926.785156 310.714844 926.785156 299 C 926.785156 287.285156 936.285156 277.785156 948 277.785156 C 959.714844 277.785156 969.214844 287.285156 969.214844 299 "/>
<path style="fill-rule:nonzero;fill:rgb(53%,27%,7%);fill-opacity:1;stroke-width:1;stroke-linecap:butt;stroke-linejoin:miter;stroke:rgb(0%,0%,0%);stroke-opacity:1;stroke-miterlimit:10;" d="M 836.214844 271 C 836.214844 282.714844 826.714844 292.214844 815 292.214844 C 803.285156 292.214844 793.785156 282.714844 793.785156 271 C 793.785156 259.285156 803.285156 249.785156 815 249.785156 C 826.714844 249.785156 836.214844 259.285156 836.214844 271 "/>
<path style="fill-rule:nonzero;fill:rgb(53%,27%,7%);fill-opacity:1;stroke-width:1;stroke-linecap:butt;stroke-linejoin:miter;stroke:rgb(0%,0%,0%);stroke-opacity:1;stroke-miterlimit:10;" d="M 780 158 L 754.019531 203 L 805.980469 203 L 780 158 "/>
<path style="fill-rule:nonzero;fill:rgb(53%,27%,7%);fill-opacity:1;stroke-width:1;stroke-linecap:butt;stroke-linejoin:miter;stroke:rgb(0%,0%,0%);stroke-opacity:1;stroke-miterlimit:10;" d="M 720 371 L 694.019531 416 L 745.980469 416 L 720 371 "/>
<path style="fill-rule:nonzero;fill:rgb(53%,27%,7%);fill-opacity:1;stroke-width:1;stroke-linecap:butt;stroke-linejoin:miter;stroke:rgb(0%,0%,0%);stroke-opacity:1;stroke-miterlimit:10;" d="M 681 152 L 655.019531 197 L 706.980469 197 L 681 152 "/>
</g>
</svg>
