<?xml version="1.0" encoding="UTF-8"?>
<svg xmlns="http://www.w3.org/2000/svg" xmlns:xlink="http://www.w3.org/1999/xlink" width="1129pt" height="517pt" viewBox="0 0 1129 517" version="1.1">
<g id="surface491">
<rect x="0" y="0" width="1129" height="517" style="fill:rgb(90%,90%,90%);fill-opacity:1;stroke:none;"/>
<path style="fill-rule:nonzero;fill:rgb(100%,51%,0%);fill-opacity:1;stroke-width:1;stroke-linecap:butt;stroke-linejoin:miter;stroke:rgb(0%,0%,0%);stroke-opacity:1;stroke-miterlimit:10;" d="M 87 135 L 116.664062 135 L 128.664062 106.785156 L 140.664062 135 L 170.332031 135 L 146.332031 152.4375 L 154.417969 183.980469 L 128.664062 166.542969 L 102.914062 183.980469 L 115.214844 152.4375 L 87 135 "/>
<path style="fill-rule:nonzero;fill:rgb(100%,51%,0%);fill-opacity:1;stroke-width:1;stroke-linecap:butt;stroke-linejoin:miter;stroke:rgb(0%,0%,0%);stroke-opacity:1;stroke-miterlimit:10;" d="M 190.785156 332.785156 L 190.785156 375.214844 L 233.214844 375.214844 L 233.214844 332.785156 L 190.785156 332.785156 "/>
<path style="fill-rule:nonzero;fill:rgb(100%,51%,0%);fill-opacity:1;stroke-width:1;stroke-linecap:butt;stroke-linejoin:miter;stroke:rgb(0%,0%,0%);stroke-opacity:1;stroke-miterlimit:10;" d="M 445.785156 97.785156 L 445.785156 140.214844 L 488.214844 140.214844 L 488.214844 97.785156 L 445.785156 97.785156 "/>
<path style="fill-rule:nonzero;fill:rgb(100%,51%,0%);fill-opacity:1;stroke-width:1;stroke-linecap:butt;stroke-linejoin:miter;stroke:rgb(0%,0%,0%);stroke-opacity:1;stroke-miterlimit:10;" d="M 197 156 L 226.664062 156 L 238.664062 127.785156 L 250.664062 156 L 280.332031 156 L 256.332031 173.4375 L 264.417969 204.980469 L 238.664062 187.542969 L 212.914062 204.980469 L 225.214844 173.4375 L 197 156 "/>
<path style="fill-rule:nonzero;fill:rgb(100%,51%,0%);fill-opacity:1;stroke-width:1;stroke-linecap:butt;stroke-linejoin:miter;stroke:rgb(0%,0%,0%);stroke-opacity:1;stroke-miterlimit:10;" d="M 391 330 L 420.664062 330 L 432.664062 301.785156 L 444.664062 330 L 474.332031 330 L 450.332031 347.4375 L 458.417969 378.980469 L 432.664062 361.542969 L 406.914062 378.980469 L 419.214844 347.4375 L 391 330 "/>
<path style="fill-rule:nonzero;fill:rgb(100%,51%,0%);fill-opacity:1;stroke-width:1;stroke-linecap:butt;stroke-linejoin:miter;stroke:rgb(0%,0%,0%);stroke-opacity:1;stroke-miterlimit:10;" d="M 306 376 L 335.664062 376 L 347.664062 347.785156 L 359.664062 376 L 389.332031 376 L 365.332031 393.4375 L 373.417969 424.980469 L 347.664062 407.542969 L 321.914062 424.980469 L 334.214844 393.4375 L 306 376 "/>
<path style="fill-rule:nonzero;fill:rgb(55%,51%,53%);fill-opacity:1;stroke-width:1;stroke-linecap:butt;stroke-linejoin:miter;stroke:rgb(0%,0%,0%);stroke-opacity:1;stroke-miterlimit:10;" d="M 621.785156 201.785156 L 621.785156 244.214844 L 664.214844 244.214844 L 664.214844 201.785156 L 621.785156 201.785156 "/>
<path style="fill-rule:nonzero;fill:rgb(55%,51%,53%);fill-opacity:1;stroke-width:1;stroke-linecap:butt;stroke-linejoin:miter;stroke:rgb(0%,0%,0%);stroke-opacity:1;stroke-miterlimit:10;" d="M 973 82 L 1002.664062 82 L 1014.664062 53.785156 L 1026.664062 82 L 1056.332031 82 L 1032.332031 99.4375 L 1040.417969 130.980469 L 1014.664062 113.542969 L 988.914062 130.980469 L 1001.214844 99.4375 L 973 82 "/>
<path style="fill-rule:nonzero;fill:rgb(55%,51%,53%);fill-opacity:1;stroke-width:1;stroke-linecap:butt;stroke-linejoin:miter;stroke:rgb(0%,0%,0%);stroke-opacity:1;stroke-miterlimit:10;" d="M 744 202 L 773.664062 202 L 785.664062 173.785156 L 797.664062 202 L 827.332031 202 L 803.332031 219.4375 L 811.417969 250.980469 L 785.664062 233.542969 L 759.914062 250.980469 L 772.214844 219.4375 L 744 202 "/>
</g>
</svg>
