<?xml version="1.0" encoding="UTF-8"?>
<svg xmlns="http://www.w3.org/2000/svg" xmlns:xlink="http://www.w3.org/1999/xlink" width="1129pt" height="517pt" viewBox="0 0 1129 517" version="1.1">
<g id="surface181">
<rect x="0" y="0" width="1129" height="517" style="fill:rgb(90%,90%,90%);fill-opacity:1;stroke:none;"/>
<path style="fill-rule:nonzero;fill:rgb(35%,70%,90%);fill-opacity:1;stroke-width:1;stroke-linecap:butt;stroke-linejoin:miter;stroke:rgb(0%,0%,0%);stroke-opacity:1;stroke-miterlimit:10;" d="M 218 151 L 247.664062 151 L 259.664062 122.785156 L 271.664062 151 L 301.332031 151 L 277.332031 168.4375 L 285.417969 199.980469 L 259.664062 182.542969 L 233.914062 199.980469 L 246.214844 168.4375 L 218 151 "/>
<path style="fill-rule:nonzero;fill:rgb(35%,70%,90%);fill-opacity:1;stroke-width:1;stroke-linecap:butt;stroke-linejoin:miter;stroke:rgb(0%,0%,0%);stroke-opacity:1;stroke-miterlimit:10;" d="M 385 116 L 414.664062 116 L 426.664062 87.785156 L 438.664062 116 L 468.332031 116 L 444.332031 133.4375 L 452.417969 164.980469 L 426.664062 147.542969 L 400.914062 164.980469 L 413.214844 133.4375 L 385 116 "/>
<path style="fill-rule:nonzero;fill:rgb(35%,70%,90%);fill-opacity:1;stroke-width:1;stroke-linecap:butt;stroke-linejoin:miter;stroke:rgb(0%,0%,0%);stroke-opacity:1;stroke-miterlimit:10;" d="M 932 312 L 961.664062 312 L 973.664062 283.785156 L 985.664062 312 L 1015.332031 312 L 991.332031 329.4375 L 999.417969 360.980469 L 973.664062 343.542969 L 947.914062 360.980469 L 960.214844 329.4375 L 932 312 "/>
<path style="fill-rule:nonzero;fill:rgb(35%,70%,90%);fill-opacity:1;stroke-width:1;stroke-linecap:butt;stroke-linejoin:miter;stroke:rgb(0%,0%,0%);stroke-opacity:1;stroke-miterlimit:10;" d="M 681 451 L 710.664062 451 L 722.664062 422.785156 L 734.664062 451 L 764.332031 451 L 740.332031 468.4375 L 748.417969 499.980469 L 722.664062 482.542969 L 696.914062 499.980469 L 709.214844 468.4375 L 681 451 "/>
<path style="fill-rule:nonzero;fill:rgb(35%,70%,90%);fill-opacity:1;stroke-width:1;stroke-linecap:butt;stroke-linejoin:miter;stroke:rgb(0%,0%,0%);stroke-opacity:1;stroke-miterlimit:10;" d="M 949 454 L 978.664062 454 L 990.664062 425.785156 L 1002.664062 454 L 1032.332031 454 L 1008.332031 471.4375 L 1016.417969 502.980469 L 990.664062 485.542969 L 964.914062 502.980469 L 977.214844 471.4375 L 949 454 "/>
<path style="fill-rule:nonzero;fill:rgb(100%,51%,0%);fill-opacity:1;stroke-width:1;stroke-linecap:butt;stroke-linejoin:miter;stroke:rgb(0%,0%,0%);stroke-opacity:1;stroke-miterlimit:10;" d="M 893.214844 402 C 893.214844 413.714844 883.714844 423.214844 872 423.214844 C 860.285156 423.214844 850.785156 413.714844 850.785156 402 C 850.785156 390.285156 860.285156 380.785156 872 380.785156 C 883.714844 380.785156 893.214844 390.285156 893.214844 402 "/>
<path style="fill-rule:nonzero;fill:rgb(100%,51%,0%);fill-opacity:1;stroke-width:1;stroke-linecap:butt;stroke-linejoin:miter;stroke:rgb(0%,0%,0%);stroke-opacity:1;stroke-miterlimit:10;" d="M 584.214844 205 C 584.214844 216.714844 574.714844 226.214844 563 226.214844 C 551.285156 226.214844 541.785156 216.714844 541.785156 205 C 541.785156 193.285156 551.285156 183.785156 563 183.785156 C 574.714844 183.785156 584.214844 193.285156 584.214844 205 "/>
<path style="fill-rule:nonzero;fill:rgb(100%,51%,0%);fill-opacity:1;stroke-width:1;stroke-linecap:butt;stroke-linejoin:miter;stroke:rgb(0%,0%,0%);stroke-opacity:1;stroke-miterlimit:10;" d="M 369.214844 358 C 369.214844 369.714844 359.714844 379.214844 348 379.214844 C 336.285156 379.214844 326.785156 369.714844 326.785156 358 C 326.785156 346.285156 336.285156 336.785156 348 336.785156 C 359.714844 336.785156 369.214844 346.285156 369.214844 358 "/>
<path style="fill-rule:nonzero;fill:rgb(100%,51%,0%);fill-opacity:1;stroke-width:1;stroke-linecap:butt;stroke-linejoin:miter;stroke:rgb(0%,0%,0%);stroke-opacity:1;stroke-miterlimit:10;" d="M 76.214844 282 C 76.214844 293.714844 66.714844 303.214844 55 303.214844 C 43.285156 303.214844 33.785156 293.714844 33.785156 282 C 33.785156 270.285156 43.285156 260.785156 55 260.785156 C 66.714844 260.785156 76.214844 270.285156 76.214844 282 "/>
<path style="fill-rule:nonzero;fill:rgb(100%,51%,0%);fill-opacity:1;stroke-width:1;stroke-linecap:butt;stroke-linejoin:miter;stroke:rgb(0%,0%,0%);stroke-opacity:1;stroke-miterlimit:10;" d="M 773.214844 365 C 773.214844 376.714844 763.714844 386.214844 752 386.214844 C 740.285156 386.214844 730.785156 376.714844 730.785156 365 C 730.785156 353.285156 740.285156 343.785156 752 343.785156 C 763.714844 343.785156 773.214844 353.285156 773.214844 365 "/>
<path style="fill-rule:nonzero;fill:rgb(100%,51%,0%);fill-opacity:1;stroke-width:1;stroke-linecap:butt;stroke-linejoin:miter;stroke:rgb(0%,0%,0%);stroke-opacity:1;stroke-miterlimit:10;" d="M 601.214844 380 C 601.214844 391.714844 591.714844 401.214844 580 401.214844 C 568.285156 401.214844 558.785156 391.714844 558.785156 380 C 558.785156 368.285156 568.285156 358.785156 580 358.785156 C 591.714844 358.785156 601.214844 368.285156 601.214844 380 "/>
</g>
</svg>
