<?xml version="1.0" encoding="UTF-8"?>
<svg xmlns="http://www.w3.org/2000/svg" xmlns:xlink="http://www.w3.org/1999/xlink" width="1129pt" height="517pt" viewBox="0 0 1129 517" version="1.1">
<g id="surface671">
<rect x="0" y="0" width="1129" height="517" style="fill:rgb(90%,90%,90%);fill-opacity:1;stroke:none;"/>
<path style="fill-rule:nonzero;fill:rgb(100%,51%,0%);fill-opacity:1;stroke-width:1;stroke-linecap:butt;stroke-linejoin:miter;stroke:rgb(0%,0%,0%);stroke-opacity:1;stroke-miterlimit:10;" d="M 454 306 L 483.664062 306 L 495.664062 277.785156 L 507.664062 306 L 537.332031 306 L 513.332031 323.4375 L 521.417969 354.980469 L 495.664062 337.542969 L 469.914062 354.980469 L 482.214844 323.4375 L 454 306 "/>
<path style="fill-rule:nonzero;fill:rgb(100%,51%,0%);fill-opacity:1;stroke-width:1;stroke-linecap:butt;stroke-linejoin:miter;stroke:rgb(0%,0%,0%);stroke-opacity:1;stroke-miterlimit:10;" d="M 161 397 L 190.664062 397 L 202.664062 368.785156 L 214.664062 397 L 244.332031 397 L 220.332031 414.4375 L 228.417969 445.980469 L 202.664062 428.542969 L 176.914062 445.980469 L 189.214844 414.4375 L 161 397 "/>
<path style="fill-rule:nonzero;fill:rgb(55%,51%,53%);fill-opacity:1;stroke-width:1;stroke-linecap:butt;stroke-linejoin:miter;stroke:rgb(0%,0%,0%);stroke-opacity:1;stroke-miterlimit:10;" d="M 334 123 L 363.664062 123 L 375.664062 94.785156 L 387.664062 123 L 417.332031 123 L 393.332031 140.4375 L 401.417969 171.980469 L 375.664062 154.542969 L 349.914062 171.980469 L 362.214844 140.4375 L 334 123 "/>
<path style="fill-rule:nonzero;fill:rgb(100%,51%,0%);fill-opacity:1;stroke-width:1;stroke-linecap:butt;stroke-linejoin:miter;stroke:rgb(0%,0%,0%);stroke-opacity:1;stroke-miterlimit:10;" d="M 421 57 L 450.664062 57 L 462.664062 28.785156 L 474.664062 57 L 504.332031 57 L 480.332031 74.4375 L 488.417969 105.980469 L 462.664062 88.542969 L 436.914062 105.980469 L 449.214844 74.4375 L 421 57 "/>
<path style="fill-rule:nonzero;fill:rgb(100%,51%,0%);fill-opacity:1;stroke-width:1;stroke-linecap:butt;stroke-linejoin:miter;stroke:rgb(0%,0%,0%);stroke-opacity:1;stroke-miterlimit:10;" d="M 256 49 L 285.664062 49 L 297.664062 20.785156 L 309.664062 49 L 339.332031 49 L 315.332031 66.4375 L 323.417969 97.980469 L 297.664062 80.542969 L 271.914062 97.980469 L 284.214844 66.4375 L 256 49 "/>
<path style="fill-rule:nonzero;fill:rgb(100%,51%,0%);fill-opacity:1;stroke-width:1;stroke-linecap:butt;stroke-linejoin:miter;stroke:rgb(0%,0%,0%);stroke-opacity:1;stroke-miterlimit:10;" d="M 68 229 L 97.664062 229 L 109.664062 200.785156 L 121.664062 229 L 151.332031 229 L 127.332031 246.4375 L 135.417969 277.980469 L 109.664062 260.542969 L 83.914062 277.980469 L 96.214844 246.4375 L 68 229 "/>
<path style="fill-rule:nonzero;fill:rgb(55%,51%,53%);fill-opacity:1;stroke-width:1;stroke-linecap:butt;stroke-linejoin:miter;stroke:rgb(0%,0%,0%);stroke-opacity:1;stroke-miterlimit:10;" d="M 136.785156 229.785156 L 136.785156 272.214844 L 179.214844 272.214844 L 179.214844 229.785156 L 136.785156 229.785156 "/>
</g>
</svg>
