<?xml version="1.0" encoding="UTF-8"?>
<svg xmlns="http://www.w3.org/2000/svg" xmlns:xlink="http://www.w3.org/1999/xlink" width="1129pt" height="517pt" viewBox="0 0 1129 517" version="1.1">
<g id="surface616">
<rect x="0" y="0" width="1129" height="517" style="fill:rgb(90%,90%,90%);fill-opacity:1;stroke:none;"/>
<path style="fill-rule:nonzero;fill:rgb(35%,70%,90%);fill-opacity:1;stroke-width:1;stroke-linecap:butt;stroke-linejoin:miter;stroke:rgb(0%,0%,0%);stroke-opacity:1;stroke-miterlimit:10;" d="M 382.214844 434 C 382.214844 445.714844 372.714844 455.214844 361 455.214844 C 349.285156 455.214844 339.785156 445.714844 339.785156 434 C 339.785156 422.285156 349.285156 412.785156 361 412.785156 C 372.714844 412.785156 382.214844 422.285156 382.214844 434 "/>
<path style="fill-rule:nonzero;fill:rgb(35%,70%,90%);fill-opacity:1;stroke-width:1;stroke-linecap:butt;stroke-linejoin:miter;stroke:rgb(0%,0%,0%);stroke-opacity:1;stroke-miterlimit:10;" d="M 142.214844 404 C 142.214844 415.714844 132.714844 425.214844 121 425.214844 C 109.285156 425.214844 99.785156 415.714844 99.785156 404 C 99.785156 392.285156 109.285156 382.785156 121 382.785156 C 132.714844 382.785156 142.214844 392.285156 142.214844 404 "/>
<path style="fill-rule:nonzero;fill:rgb(55%,51%,53%);fill-opacity:1;stroke-width:1;stroke-linecap:butt;stroke-linejoin:miter;stroke:rgb(0%,0%,0%);stroke-opacity:1;stroke-miterlimit:10;" d="M 474.214844 443 C 474.214844 454.714844 464.714844 464.214844 453 464.214844 C 441.285156 464.214844 431.785156 454.714844 431.785156 443 C 431.785156 431.285156 441.285156 421.785156 453 421.785156 C 464.714844 421.785156 474.214844 431.285156 474.214844 443 "/>
<path style="fill-rule:nonzero;fill:rgb(35%,70%,90%);fill-opacity:1;stroke-width:1;stroke-linecap:butt;stroke-linejoin:miter;stroke:rgb(0%,0%,0%);stroke-opacity:1;stroke-miterlimit:10;" d="M 156.214844 146 C 156.214844 157.714844 146.714844 167.214844 135 167.214844 C 123.285156 167.214844 113.785156 157.714844 113.785156 146 C 113.785156 134.285156 123.285156 124.785156 135 124.785156 C 146.714844 124.785156 156.214844 134.285156 156.214844 146 "/>
<path style="fill-rule:nonzero;fill:rgb(35%,70%,90%);fill-opacity:1;stroke-width:1;stroke-linecap:butt;stroke-linejoin:miter;stroke:rgb(0%,0%,0%);stroke-opacity:1;stroke-miterlimit:10;" d="M 89.214844 40 C 89.214844 51.714844 79.714844 61.214844 68 61.214844 C 56.285156 61.214844 46.785156 51.714844 46.785156 40 C 46.785156 28.285156 56.285156 18.785156 68 18.785156 C 79.714844 18.785156 89.214844 28.285156 89.214844 40 "/>
<path style="fill-rule:nonzero;fill:rgb(35%,70%,90%);fill-opacity:1;stroke-width:1;stroke-linecap:butt;stroke-linejoin:miter;stroke:rgb(0%,0%,0%);stroke-opacity:1;stroke-miterlimit:10;" d="M 162.214844 247 C 162.214844 258.714844 152.714844 268.214844 141 268.214844 C 129.285156 268.214844 119.785156 258.714844 119.785156 247 C 119.785156 235.285156 129.285156 225.785156 141 225.785156 C 152.714844 225.785156 162.214844 235.285156 162.214844 247 "/>
<path style="fill-rule:nonzero;fill:rgb(35%,70%,90%);fill-opacity:1;stroke-width:1;stroke-linecap:butt;stroke-linejoin:miter;stroke:rgb(0%,0%,0%);stroke-opacity:1;stroke-miterlimit:10;" d="M 61.214844 234 C 61.214844 245.714844 51.714844 255.214844 40 255.214844 C 28.285156 255.214844 18.785156 245.714844 18.785156 234 C 18.785156 222.285156 28.285156 212.785156 40 212.785156 C 51.714844 212.785156 61.214844 222.285156 61.214844 234 "/>
<path style="fill-rule:nonzero;fill:rgb(55%,51%,53%);fill-opacity:1;stroke-width:1;stroke-linecap:butt;stroke-linejoin:miter;stroke:rgb(0%,0%,0%);stroke-opacity:1;stroke-miterlimit:10;" d="M 264 27 L 238.019531 72 L 289.980469 72 L 264 27 "/>
</g>
</svg>
