<?xml version="1.0" encoding="UTF-8"?>
<svg xmlns="http://www.w3.org/2000/svg" xmlns:xlink="http://www.w3.org/1999/xlink" width="1129pt" height="517pt" viewBox="0 0 1129 517" version="1.1">
<g id="surface51">
<rect x="0" y="0" width="1129" height="517" style="fill:rgb(90%,90%,90%);fill-opacity:1;stroke:none;"/>
<path style="fill-rule:nonzero;fill:rgb(35%,70%,90%);fill-opacity:1;stroke-width:1;stroke-linecap:butt;stroke-linejoin:miter;stroke:rgb(0%,0%,0%);stroke-opacity:1;stroke-miterlimit:10;" d="M 151.214844 95 C 151.214844 106.714844 141.714844 116.214844 130 116.214844 C 118.285156 116.214844 108.785156 106.714844 108.785156 95 C 108.785156 83.285156 118.285156 73.785156 130 73.785156 C 141.714844 73.785156 151.214844 83.285156 151.214844 95 "/>
<path style="fill-rule:nonzero;fill:rgb(35%,70%,90%);fill-opacity:1;stroke-width:1;stroke-linecap:butt;stroke-linejoin:miter;stroke:rgb(0%,0%,0%);stroke-opacity:1;stroke-miterlimit:10;" d="M 274.785156 244.785156 L 274.785156 287.214844 L 317.214844 287.214844 L 317.214844 244.785156 L 274.785156 244.785156 "/>
<path style="fill-rule:nonzero;fill:rgb(35%,70%,90%);fill-opacity:1;stroke-width:1;stroke-linecap:butt;stroke-linejoin:miter;stroke:rgb(0%,0%,0%);stroke-opacity:1;stroke-miterlimit:10;" d="M 490.214844 217 C 490.214844 228.714844 480.714844 238.214844 469 238.214844 C 457.285156 238.214844 447.785156 228.714844 447.785156 217 C 447.785156 205.285156 457.285156 195.785156 469 195.785156 C 480.714844 195.785156 490.214844 205.285156 490.214844 217 "/>
<path style="fill-rule:nonzero;fill:rgb(35%,70%,90%);fill-opacity:1;stroke-width:1;stroke-linecap:butt;stroke-linejoin:miter;stroke:rgb(0%,0%,0%);stroke-opacity:1;stroke-miterlimit:10;" d="M 198.785156 35.785156 L 198.785156 78.214844 L 241.214844 78.214844 L 241.214844 35.785156 L 198.785156 35.785156 "/>
<path style="fill-rule:nonzero;fill:rgb(35%,70%,90%);fill-opacity:1;stroke-width:1;stroke-linecap:butt;stroke-linejoin:miter;stroke:rgb(0%,0%,0%);stroke-opacity:1;stroke-miterlimit:10;" d="M 464.214844 113 C 464.214844 124.714844 454.714844 134.214844 443 134.214844 C 431.285156 134.214844 421.785156 124.714844 421.785156 113 C 421.785156 101.285156 431.285156 91.785156 443 91.785156 C 454.714844 91.785156 464.214844 101.285156 464.214844 113 "/>
<path style="fill-rule:nonzero;fill:rgb(35%,70%,90%);fill-opacity:1;stroke-width:1;stroke-linecap:butt;stroke-linejoin:miter;stroke:rgb(0%,0%,0%);stroke-opacity:1;stroke-miterlimit:10;" d="M 228.214844 283 C 228.214844 294.714844 218.714844 304.214844 207 304.214844 C 195.285156 304.214844 185.785156 294.714844 185.785156 283 C 185.785156 271.285156 195.285156 261.785156 207 261.785156 C 218.714844 261.785156 228.214844 271.285156 228.214844 283 "/>
<path style="fill-rule:nonzero;fill:rgb(100%,51%,0%);fill-opacity:1;stroke-width:1;stroke-linecap:butt;stroke-linejoin:miter;stroke:rgb(0%,0%,0%);stroke-opacity:1;stroke-miterlimit:10;" d="M 672.785156 193.785156 L 672.785156 236.214844 L 715.214844 236.214844 L 715.214844 193.785156 L 672.785156 193.785156 "/>
<path style="fill-rule:nonzero;fill:rgb(100%,51%,0%);fill-opacity:1;stroke-width:1;stroke-linecap:butt;stroke-linejoin:miter;stroke:rgb(0%,0%,0%);stroke-opacity:1;stroke-miterlimit:10;" d="M 1004.214844 166 C 1004.214844 177.714844 994.714844 187.214844 983 187.214844 C 971.285156 187.214844 961.785156 177.714844 961.785156 166 C 961.785156 154.285156 971.285156 144.785156 983 144.785156 C 994.714844 144.785156 1004.214844 154.285156 1004.214844 166 "/>
<path style="fill-rule:nonzero;fill:rgb(100%,51%,0%);fill-opacity:1;stroke-width:1;stroke-linecap:butt;stroke-linejoin:miter;stroke:rgb(0%,0%,0%);stroke-opacity:1;stroke-miterlimit:10;" d="M 763.785156 446.785156 L 763.785156 489.214844 L 806.214844 489.214844 L 806.214844 446.785156 L 763.785156 446.785156 "/>
<path style="fill-rule:nonzero;fill:rgb(100%,51%,0%);fill-opacity:1;stroke-width:1;stroke-linecap:butt;stroke-linejoin:miter;stroke:rgb(0%,0%,0%);stroke-opacity:1;stroke-miterlimit:10;" d="M 890.214844 147 C 890.214844 158.714844 880.714844 168.214844 869 168.214844 C 857.285156 168.214844 847.785156 158.714844 847.785156 147 C 847.785156 135.285156 857.285156 125.785156 869 125.785156 C 880.714844 125.785156 890.214844 135.285156 890.214844 147 "/>
<path style="fill-rule:nonzero;fill:rgb(100%,51%,0%);fill-opacity:1;stroke-width:1;stroke-linecap:butt;stroke-linejoin:miter;stroke:rgb(0%,0%,0%);stroke-opacity:1;stroke-miterlimit:10;" d="M 803.785156 208.785156 L 803.785156 251.214844 L 846.214844 251.214844 L 846.214844 208.785156 L 803.785156 208.785156 "/>
<path style="fill-rule:nonzero;fill:rgb(100%,51%,0%);fill-opacity:1;stroke-width:1;stroke-linecap:butt;stroke-linejoin:miter;stroke:rgb(0%,0%,0%);stroke-opacity:1;stroke-miterlimit:10;" d="M 977.785156 450.785156 L 977.785156 493.214844 L 1020.214844 493.214844 L 1020.214844 450.785156 L 977.785156 450.785156 "/>
<path style="fill-rule:nonzero;fill:rgb(100%,51%,0%);fill-opacity:1;stroke-width:1;stroke-linecap:butt;stroke-linejoin:miter;stroke:rgb(0%,0%,0%);stroke-opacity:1;stroke-miterlimit:10;" d="M 713.785156 306.785156 L 713.785156 349.214844 L 756.214844 349.214844 L 756.214844 306.785156 L 713.785156 306.785156 "/>
</g>
</svg>
