<?xml version="1.0" encoding="UTF-8"?>
<svg xmlns="http://www.w3.org/2000/svg" xmlns:xlink="http://www.w3.org/1999/xlink" width="1129pt" height="517pt" viewBox="0 0 1129 517" version="1.1">
<g id="surface511">
<rect x="0" y="0" width="1129" height="517" style="fill:rgb(90%,90%,90%);fill-opacity:1;stroke:none;"/>
<path style="fill-rule:nonzero;fill:rgb(55%,51%,53%);fill-opacity:1;stroke-width:1;stroke-linecap:butt;stroke-linejoin:miter;stroke:rgb(0%,0%,0%);stroke-opacity:1;stroke-miterlimit:10;" d="M 546 227 L 575.664062 227 L 587.664062 198.785156 L 599.664062 227 L 629.332031 227 L 605.332031 244.4375 L 613.417969 275.980469 L 587.664062 258.542969 L 561.914062 275.980469 L 574.214844 244.4375 L 546 227 "/>
<path style="fill-rule:nonzero;fill:rgb(55%,51%,53%);fill-opacity:1;stroke-width:1;stroke-linecap:butt;stroke-linejoin:miter;stroke:rgb(0%,0%,0%);stroke-opacity:1;stroke-miterlimit:10;" d="M 932 197 L 961.664062 197 L 973.664062 168.785156 L 985.664062 197 L 1015.332031 197 L 991.332031 214.4375 L 999.417969 245.980469 L 973.664062 228.542969 L 947.914062 245.980469 L 960.214844 214.4375 L 932 197 "/>
<path style="fill-rule:nonzero;fill:rgb(55%,51%,53%);fill-opacity:1;stroke-width:1;stroke-linecap:butt;stroke-linejoin:miter;stroke:rgb(0%,0%,0%);stroke-opacity:1;stroke-miterlimit:10;" d="M 240 62 L 269.664062 62 L 281.664062 33.785156 L 293.664062 62 L 323.332031 62 L 299.332031 79.4375 L 307.417969 110.980469 L 281.664062 93.542969 L 255.914062 110.980469 L 268.214844 79.4375 L 240 62 "/>
<path style="fill-rule:nonzero;fill:rgb(53%,27%,7%);fill-opacity:1;stroke-width:1;stroke-linecap:butt;stroke-linejoin:miter;stroke:rgb(0%,0%,0%);stroke-opacity:1;stroke-miterlimit:10;" d="M 975.214844 372 C 975.214844 383.714844 965.714844 393.214844 954 393.214844 C 942.285156 393.214844 932.785156 383.714844 932.785156 372 C 932.785156 360.285156 942.285156 350.785156 954 350.785156 C 965.714844 350.785156 975.214844 360.285156 975.214844 372 "/>
<path style="fill-rule:nonzero;fill:rgb(53%,27%,7%);fill-opacity:1;stroke-width:1;stroke-linecap:butt;stroke-linejoin:miter;stroke:rgb(0%,0%,0%);stroke-opacity:1;stroke-miterlimit:10;" d="M 478.214844 453 C 478.214844 464.714844 468.714844 474.214844 457 474.214844 C 445.285156 474.214844 435.785156 464.714844 435.785156 453 C 435.785156 441.285156 445.285156 431.785156 457 431.785156 C 468.714844 431.785156 478.214844 441.285156 478.214844 453 "/>
<path style="fill-rule:nonzero;fill:rgb(53%,27%,7%);fill-opacity:1;stroke-width:1;stroke-linecap:butt;stroke-linejoin:miter;stroke:rgb(0%,0%,0%);stroke-opacity:1;stroke-miterlimit:10;" d="M 231.214844 280 C 231.214844 291.714844 221.714844 301.214844 210 301.214844 C 198.285156 301.214844 188.785156 291.714844 188.785156 280 C 188.785156 268.285156 198.285156 258.785156 210 258.785156 C 221.714844 258.785156 231.214844 268.285156 231.214844 280 "/>
<path style="fill-rule:nonzero;fill:rgb(53%,27%,7%);fill-opacity:1;stroke-width:1;stroke-linecap:butt;stroke-linejoin:miter;stroke:rgb(0%,0%,0%);stroke-opacity:1;stroke-miterlimit:10;" d="M 824.214844 121 C 824.214844 132.714844 814.714844 142.214844 803 142.214844 C 791.285156 142.214844 781.785156 132.714844 781.785156 121 C 781.785156 109.285156 791.285156 99.785156 803 99.785156 C 814.714844 99.785156 824.214844 109.285156 824.214844 121 "/>
</g>
</svg>
