<?xml version="1.0" encoding="UTF-8"?>
<svg xmlns="http://www.w3.org/2000/svg" xmlns:xlink="http://www.w3.org/1999/xlink" width="1129pt" height="517pt" viewBox="0 0 1129 517" version="1.1">
<g id="surface426">
<rect x="0" y="0" width="1129" height="517" style="fill:rgb(90%,90%,90%);fill-opacity:1;stroke:none;"/>
<path style="fill-rule:nonzero;fill:rgb(35%,70%,90%);fill-opacity:1;stroke-width:1;stroke-linecap:butt;stroke-linejoin:miter;stroke:rgb(0%,0%,0%);stroke-opacity:1;stroke-miterlimit:10;" d="M 814 379 L 843.664062 379 L 855.664062 350.785156 L 867.664062 379 L 897.332031 379 L 873.332031 396.4375 L 881.417969 427.980469 L 855.664062 410.542969 L 829.914062 427.980469 L 842.214844 396.4375 L 814 379 "/>
<path style="fill-rule:nonzero;fill:rgb(35%,70%,90%);fill-opacity:1;stroke-width:1;stroke-linecap:butt;stroke-linejoin:miter;stroke:rgb(0%,0%,0%);stroke-opacity:1;stroke-miterlimit:10;" d="M 828 153 L 857.664062 153 L 869.664062 124.785156 L 881.664062 153 L 911.332031 153 L 887.332031 170.4375 L 895.417969 201.980469 L 869.664062 184.542969 L 843.914062 201.980469 L 856.214844 170.4375 L 828 153 "/>
<path style="fill-rule:nonzero;fill:rgb(35%,70%,90%);fill-opacity:1;stroke-width:1;stroke-linecap:butt;stroke-linejoin:miter;stroke:rgb(0%,0%,0%);stroke-opacity:1;stroke-miterlimit:10;" d="M 107 413 L 136.664062 413 L 148.664062 384.785156 L 160.664062 413 L 190.332031 413 L 166.332031 430.4375 L 174.417969 461.980469 L 148.664062 444.542969 L 122.914062 461.980469 L 135.214844 430.4375 L 107 413 "/>
<path style="fill-rule:nonzero;fill:rgb(35%,70%,90%);fill-opacity:1;stroke-width:1;stroke-linecap:butt;stroke-linejoin:miter;stroke:rgb(0%,0%,0%);stroke-opacity:1;stroke-miterlimit:10;" d="M 608 344 L 637.664062 344 L 649.664062 315.785156 L 661.664062 344 L 691.332031 344 L 667.332031 361.4375 L 675.417969 392.980469 L 649.664062 375.542969 L 623.914062 392.980469 L 636.214844 361.4375 L 608 344 "/>
<path style="fill-rule:nonzero;fill:rgb(35%,70%,90%);fill-opacity:1;stroke-width:1;stroke-linecap:butt;stroke-linejoin:miter;stroke:rgb(0%,0%,0%);stroke-opacity:1;stroke-miterlimit:10;" d="M 474 146 L 503.664062 146 L 515.664062 117.785156 L 527.664062 146 L 557.332031 146 L 533.332031 163.4375 L 541.417969 194.980469 L 515.664062 177.542969 L 489.914062 194.980469 L 502.214844 163.4375 L 474 146 "/>
<path style="fill-rule:nonzero;fill:rgb(55%,51%,53%);fill-opacity:1;stroke-width:1;stroke-linecap:butt;stroke-linejoin:miter;stroke:rgb(0%,0%,0%);stroke-opacity:1;stroke-miterlimit:10;" d="M 76 235 L 50.019531 280 L 101.980469 280 L 76 235 "/>
<path style="fill-rule:nonzero;fill:rgb(55%,51%,53%);fill-opacity:1;stroke-width:1;stroke-linecap:butt;stroke-linejoin:miter;stroke:rgb(0%,0%,0%);stroke-opacity:1;stroke-miterlimit:10;" d="M 445 420 L 419.019531 465 L 470.980469 465 L 445 420 "/>
<path style="fill-rule:nonzero;fill:rgb(55%,51%,53%);fill-opacity:1;stroke-width:1;stroke-linecap:butt;stroke-linejoin:miter;stroke:rgb(0%,0%,0%);stroke-opacity:1;stroke-miterlimit:10;" d="M 622 104 L 596.019531 149 L 647.980469 149 L 622 104 "/>
<path style="fill-rule:nonzero;fill:rgb(55%,51%,53%);fill-opacity:1;stroke-width:1;stroke-linecap:butt;stroke-linejoin:miter;stroke:rgb(0%,0%,0%);stroke-opacity:1;stroke-miterlimit:10;" d="M 940 30 L 914.019531 75 L 965.980469 75 L 940 30 "/>
<path style="fill-rule:nonzero;fill:rgb(55%,51%,53%);fill-opacity:1;stroke-width:1;stroke-linecap:butt;stroke-linejoin:miter;stroke:rgb(0%,0%,0%);stroke-opacity:1;stroke-miterlimit:10;" d="M 295 339 L 269.019531 384 L 320.980469 384 L 295 339 "/>
</g>
</svg>
