<?xml version="1.0" encoding="UTF-8"?>
<svg xmlns="http://www.w3.org/2000/svg" xmlns:xlink="http://www.w3.org/1999/xlink" width="1129pt" height="517pt" viewBox="0 0 1129 517" version="1.1">
<g id="surface541">
<rect x="0" y="0" width="1129" height="517" style="fill:rgb(90%,90%,90%);fill-opacity:1;stroke:none;"/>
<path style="fill-rule:nonzero;fill:rgb(35%,70%,90%);fill-opacity:1;stroke-width:1;stroke-linecap:butt;stroke-linejoin:miter;stroke:rgb(0%,0%,0%);stroke-opacity:1;stroke-miterlimit:10;" d="M 405 340 L 434.664062 340 L 446.664062 311.785156 L 458.664062 340 L 488.332031 340 L 464.332031 357.4375 L 472.417969 388.980469 L 446.664062 371.542969 L 420.914062 388.980469 L 433.214844 357.4375 L 405 340 "/>
<path style="fill-rule:nonzero;fill:rgb(35%,70%,90%);fill-opacity:1;stroke-width:1;stroke-linecap:butt;stroke-linejoin:miter;stroke:rgb(0%,0%,0%);stroke-opacity:1;stroke-miterlimit:10;" d="M 498 195 L 527.664062 195 L 539.664062 166.785156 L 551.664062 195 L 581.332031 195 L 557.332031 212.4375 L 565.417969 243.980469 L 539.664062 226.542969 L 513.914062 243.980469 L 526.214844 212.4375 L 498 195 "/>
<path style="fill-rule:nonzero;fill:rgb(35%,70%,90%);fill-opacity:1;stroke-width:1;stroke-linecap:butt;stroke-linejoin:miter;stroke:rgb(0%,0%,0%);stroke-opacity:1;stroke-miterlimit:10;" d="M 572 81 L 601.664062 81 L 613.664062 52.785156 L 625.664062 81 L 655.332031 81 L 631.332031 98.4375 L 639.417969 129.980469 L 613.664062 112.542969 L 587.914062 129.980469 L 600.214844 98.4375 L 572 81 "/>
<path style="fill-rule:nonzero;fill:rgb(35%,70%,90%);fill-opacity:1;stroke-width:1;stroke-linecap:butt;stroke-linejoin:miter;stroke:rgb(0%,0%,0%);stroke-opacity:1;stroke-miterlimit:10;" d="M 735 386 L 764.664062 386 L 776.664062 357.785156 L 788.664062 386 L 818.332031 386 L 794.332031 403.4375 L 802.417969 434.980469 L 776.664062 417.542969 L 750.914062 434.980469 L 763.214844 403.4375 L 735 386 "/>
<path style="fill-rule:nonzero;fill:rgb(100%,51%,0%);fill-opacity:1;stroke-width:1;stroke-linecap:butt;stroke-linejoin:miter;stroke:rgb(0%,0%,0%);stroke-opacity:1;stroke-miterlimit:10;" d="M 996.214844 273 C 996.214844 284.714844 986.714844 294.214844 975 294.214844 C 963.285156 294.214844 953.785156 284.714844 953.785156 273 C 953.785156 261.285156 963.285156 251.785156 975 251.785156 C 986.714844 251.785156 996.214844 261.285156 996.214844 273 "/>
<path style="fill-rule:nonzero;fill:rgb(100%,51%,0%);fill-opacity:1;stroke-width:1;stroke-linecap:butt;stroke-linejoin:miter;stroke:rgb(0%,0%,0%);stroke-opacity:1;stroke-miterlimit:10;" d="M 590.214844 335 C 590.214844 346.714844 580.714844 356.214844 569 356.214844 C 557.285156 356.214844 547.785156 346.714844 547.785156 335 C 547.785156 323.285156 557.285156 313.785156 569 313.785156 C 580.714844 313.785156 590.214844 323.285156 590.214844 335 "/>
<path style="fill-rule:nonzero;fill:rgb(100%,51%,0%);fill-opacity:1;stroke-width:1;stroke-linecap:butt;stroke-linejoin:miter;stroke:rgb(0%,0%,0%);stroke-opacity:1;stroke-miterlimit:10;" d="M 102.214844 251 C 102.214844 262.714844 92.714844 272.214844 81 272.214844 C 69.285156 272.214844 59.785156 262.714844 59.785156 251 C 59.785156 239.285156 69.285156 229.785156 81 229.785156 C 92.714844 229.785156 102.214844 239.285156 102.214844 251 "/>
<path style="fill-rule:nonzero;fill:rgb(100%,51%,0%);fill-opacity:1;stroke-width:1;stroke-linecap:butt;stroke-linejoin:miter;stroke:rgb(0%,0%,0%);stroke-opacity:1;stroke-miterlimit:10;" d="M 301.214844 335 C 301.214844 346.714844 291.714844 356.214844 280 356.214844 C 268.285156 356.214844 258.785156 346.714844 258.785156 335 C 258.785156 323.285156 268.285156 313.785156 280 313.785156 C 291.714844 313.785156 301.214844 323.285156 301.214844 335 "/>
</g>
</svg>
