<?xml version="1.0" encoding="UTF-8"?>
<svg xmlns="http://www.w3.org/2000/svg" xmlns:xlink="http://www.w3.org/1999/xlink" width="1129pt" height="517pt" viewBox="0 0 1129 517" version="1.1">
<g id="surface171">
<rect x="0" y="0" width="1129" height="517" style="fill:rgb(90%,90%,90%);fill-opacity:1;stroke:none;"/>
<path style="fill-rule:nonzero;fill:rgb(55%,51%,53%);fill-opacity:1;stroke-width:1;stroke-linecap:butt;stroke-linejoin:miter;stroke:rgb(0%,0%,0%);stroke-opacity:1;stroke-miterlimit:10;" d="M 172.214844 114 C 172.214844 125.714844 162.714844 135.214844 151 135.214844 C 139.285156 135.214844 129.785156 125.714844 129.785156 114 C 129.785156 102.285156 139.285156 92.785156 151 92.785156 C 162.714844 92.785156 172.214844 102.285156 172.214844 114 "/>
<path style="fill-rule:nonzero;fill:rgb(55%,51%,53%);fill-opacity:1;stroke-width:1;stroke-linecap:butt;stroke-linejoin:miter;stroke:rgb(0%,0%,0%);stroke-opacity:1;stroke-miterlimit:10;" d="M 420.214844 46 C 420.214844 57.714844 410.714844 67.214844 399 67.214844 C 387.285156 67.214844 377.785156 57.714844 377.785156 46 C 377.785156 34.285156 387.285156 24.785156 399 24.785156 C 410.714844 24.785156 420.214844 34.285156 420.214844 46 "/>
<path style="fill-rule:nonzero;fill:rgb(55%,51%,53%);fill-opacity:1;stroke-width:1;stroke-linecap:butt;stroke-linejoin:miter;stroke:rgb(0%,0%,0%);stroke-opacity:1;stroke-miterlimit:10;" d="M 123.785156 287.785156 L 123.785156 330.214844 L 166.214844 330.214844 L 166.214844 287.785156 L 123.785156 287.785156 "/>
<path style="fill-rule:nonzero;fill:rgb(55%,51%,53%);fill-opacity:1;stroke-width:1;stroke-linecap:butt;stroke-linejoin:miter;stroke:rgb(0%,0%,0%);stroke-opacity:1;stroke-miterlimit:10;" d="M 184.785156 390.785156 L 184.785156 433.214844 L 227.214844 433.214844 L 227.214844 390.785156 L 184.785156 390.785156 "/>
<path style="fill-rule:nonzero;fill:rgb(55%,51%,53%);fill-opacity:1;stroke-width:1;stroke-linecap:butt;stroke-linejoin:miter;stroke:rgb(0%,0%,0%);stroke-opacity:1;stroke-miterlimit:10;" d="M 370.214844 370 C 370.214844 381.714844 360.714844 391.214844 349 391.214844 C 337.285156 391.214844 327.785156 381.714844 327.785156 370 C 327.785156 358.285156 337.285156 348.785156 349 348.785156 C 360.714844 348.785156 370.214844 358.285156 370.214844 370 "/>
<path style="fill-rule:nonzero;fill:rgb(53%,27%,7%);fill-opacity:1;stroke-width:1;stroke-linecap:butt;stroke-linejoin:miter;stroke:rgb(0%,0%,0%);stroke-opacity:1;stroke-miterlimit:10;" d="M 800.785156 412.785156 L 800.785156 455.214844 L 843.214844 455.214844 L 843.214844 412.785156 L 800.785156 412.785156 "/>
<path style="fill-rule:nonzero;fill:rgb(53%,27%,7%);fill-opacity:1;stroke-width:1;stroke-linecap:butt;stroke-linejoin:miter;stroke:rgb(0%,0%,0%);stroke-opacity:1;stroke-miterlimit:10;" d="M 596.785156 337.785156 L 596.785156 380.214844 L 639.214844 380.214844 L 639.214844 337.785156 L 596.785156 337.785156 "/>
<path style="fill-rule:nonzero;fill:rgb(53%,27%,7%);fill-opacity:1;stroke-width:1;stroke-linecap:butt;stroke-linejoin:miter;stroke:rgb(0%,0%,0%);stroke-opacity:1;stroke-miterlimit:10;" d="M 717.214844 267 C 717.214844 278.714844 707.714844 288.214844 696 288.214844 C 684.285156 288.214844 674.785156 278.714844 674.785156 267 C 674.785156 255.285156 684.285156 245.785156 696 245.785156 C 707.714844 245.785156 717.214844 255.285156 717.214844 267 "/>
</g>
</svg>
