<?xml version="1.0" encoding="UTF-8"?>
<svg xmlns="http://www.w3.org/2000/svg" xmlns:xlink="http://www.w3.org/1999/xlink" width="1129pt" height="517pt" viewBox="0 0 1129 517" version="1.1">
<g id="surface361">
<rect x="0" y="0" width="1129" height="517" style="fill:rgb(90%,90%,90%);fill-opacity:1;stroke:none;"/>
<path style="fill-rule:nonzero;fill:rgb(35%,70%,90%);fill-opacity:1;stroke-width:1;stroke-linecap:butt;stroke-linejoin:miter;stroke:rgb(0%,0%,0%);stroke-opacity:1;stroke-miterlimit:10;" d="M 782 468 L 811.664062 468 L 823.664062 439.785156 L 835.664062 468 L 865.332031 468 L 841.332031 485.4375 L 849.417969 516.980469 L 823.664062 499.542969 L 797.914062 516.980469 L 810.214844 485.4375 L 782 468 "/>
<path style="fill-rule:nonzero;fill:rgb(35%,70%,90%);fill-opacity:1;stroke-width:1;stroke-linecap:butt;stroke-linejoin:miter;stroke:rgb(0%,0%,0%);stroke-opacity:1;stroke-miterlimit:10;" d="M 907 153 L 936.664062 153 L 948.664062 124.785156 L 960.664062 153 L 990.332031 153 L 966.332031 170.4375 L 974.417969 201.980469 L 948.664062 184.542969 L 922.914062 201.980469 L 935.214844 170.4375 L 907 153 "/>
<path style="fill-rule:nonzero;fill:rgb(35%,70%,90%);fill-opacity:1;stroke-width:1;stroke-linecap:butt;stroke-linejoin:miter;stroke:rgb(0%,0%,0%);stroke-opacity:1;stroke-miterlimit:10;" d="M 623 130 L 652.664062 130 L 664.664062 101.785156 L 676.664062 130 L 706.332031 130 L 682.332031 147.4375 L 690.417969 178.980469 L 664.664062 161.542969 L 638.914062 178.980469 L 651.214844 147.4375 L 623 130 "/>
<path style="fill-rule:nonzero;fill:rgb(100%,51%,0%);fill-opacity:1;stroke-width:1;stroke-linecap:butt;stroke-linejoin:miter;stroke:rgb(0%,0%,0%);stroke-opacity:1;stroke-miterlimit:10;" d="M 876.214844 238 C 876.214844 249.714844 866.714844 259.214844 855 259.214844 C 843.285156 259.214844 833.785156 249.714844 833.785156 238 C 833.785156 226.285156 843.285156 216.785156 855 216.785156 C 866.714844 216.785156 876.214844 226.285156 876.214844 238 "/>
<path style="fill-rule:nonzero;fill:rgb(100%,51%,0%);fill-opacity:1;stroke-width:1;stroke-linecap:butt;stroke-linejoin:miter;stroke:rgb(0%,0%,0%);stroke-opacity:1;stroke-miterlimit:10;" d="M 329.214844 89 C 329.214844 100.714844 319.714844 110.214844 308 110.214844 C 296.285156 110.214844 286.785156 100.714844 286.785156 89 C 286.785156 77.285156 296.285156 67.785156 308 67.785156 C 319.714844 67.785156 329.214844 77.285156 329.214844 89 "/>
<path style="fill-rule:nonzero;fill:rgb(100%,51%,0%);fill-opacity:1;stroke-width:1;stroke-linecap:butt;stroke-linejoin:miter;stroke:rgb(0%,0%,0%);stroke-opacity:1;stroke-miterlimit:10;" d="M 286.214844 462 C 286.214844 473.714844 276.714844 483.214844 265 483.214844 C 253.285156 483.214844 243.785156 473.714844 243.785156 462 C 243.785156 450.285156 253.285156 440.785156 265 440.785156 C 276.714844 440.785156 286.214844 450.285156 286.214844 462 "/>
<path style="fill-rule:nonzero;fill:rgb(100%,51%,0%);fill-opacity:1;stroke-width:1;stroke-linecap:butt;stroke-linejoin:miter;stroke:rgb(0%,0%,0%);stroke-opacity:1;stroke-miterlimit:10;" d="M 544.214844 141 C 544.214844 152.714844 534.714844 162.214844 523 162.214844 C 511.285156 162.214844 501.785156 152.714844 501.785156 141 C 501.785156 129.285156 511.285156 119.785156 523 119.785156 C 534.714844 119.785156 544.214844 129.285156 544.214844 141 "/>
</g>
</svg>
