<?xml version="1.0" encoding="UTF-8"?>
<svg xmlns="http://www.w3.org/2000/svg" xmlns:xlink="http://www.w3.org/1999/xlink" width="1129pt" height="517pt" viewBox="0 0 1129 517" version="1.1">
<g id="surface246">
<rect x="0" y="0" width="1129" height="517" style="fill:rgb(90%,90%,90%);fill-opacity:1;stroke:none;"/>
<path style="fill-rule:nonzero;fill:rgb(35%,70%,90%);fill-opacity:1;stroke-width:1;stroke-linecap:butt;stroke-linejoin:miter;stroke:rgb(0%,0%,0%);stroke-opacity:1;stroke-miterlimit:10;" d="M 444 362 L 473.664062 362 L 485.664062 333.785156 L 497.664062 362 L 527.332031 362 L 503.332031 379.4375 L 511.417969 410.980469 L 485.664062 393.542969 L 459.914062 410.980469 L 472.214844 379.4375 L 444 362 "/>
<path style="fill-rule:nonzero;fill:rgb(35%,70%,90%);fill-opacity:1;stroke-width:1;stroke-linecap:butt;stroke-linejoin:miter;stroke:rgb(0%,0%,0%);stroke-opacity:1;stroke-miterlimit:10;" d="M 639 44 L 668.664062 44 L 680.664062 15.785156 L 692.664062 44 L 722.332031 44 L 698.332031 61.4375 L 706.417969 92.980469 L 680.664062 75.542969 L 654.914062 92.980469 L 667.214844 61.4375 L 639 44 "/>
<path style="fill-rule:nonzero;fill:rgb(35%,70%,90%);fill-opacity:1;stroke-width:1;stroke-linecap:butt;stroke-linejoin:miter;stroke:rgb(0%,0%,0%);stroke-opacity:1;stroke-miterlimit:10;" d="M 332 129 L 361.664062 129 L 373.664062 100.785156 L 385.664062 129 L 415.332031 129 L 391.332031 146.4375 L 399.417969 177.980469 L 373.664062 160.542969 L 347.914062 177.980469 L 360.214844 146.4375 L 332 129 "/>
<path style="fill-rule:nonzero;fill:rgb(35%,70%,90%);fill-opacity:1;stroke-width:1;stroke-linecap:butt;stroke-linejoin:miter;stroke:rgb(0%,0%,0%);stroke-opacity:1;stroke-miterlimit:10;" d="M 309 362 L 338.664062 362 L 350.664062 333.785156 L 362.664062 362 L 392.332031 362 L 368.332031 379.4375 L 376.417969 410.980469 L 350.664062 393.542969 L 324.914062 410.980469 L 337.214844 379.4375 L 309 362 "/>
<path style="fill-rule:nonzero;fill:rgb(35%,70%,90%);fill-opacity:1;stroke-width:1;stroke-linecap:butt;stroke-linejoin:miter;stroke:rgb(0%,0%,0%);stroke-opacity:1;stroke-miterlimit:10;" d="M 173 306 L 202.664062 306 L 214.664062 277.785156 L 226.664062 306 L 256.332031 306 L 232.332031 323.4375 L 240.417969 354.980469 L 214.664062 337.542969 L 188.914062 354.980469 L 201.214844 323.4375 L 173 306 "/>
<path style="fill-rule:nonzero;fill:rgb(35%,70%,90%);fill-opacity:1;stroke-width:1;stroke-linecap:butt;stroke-linejoin:miter;stroke:rgb(0%,0%,0%);stroke-opacity:1;stroke-miterlimit:10;" d="M 196 176 L 225.664062 176 L 237.664062 147.785156 L 249.664062 176 L 279.332031 176 L 255.332031 193.4375 L 263.417969 224.980469 L 237.664062 207.542969 L 211.914062 224.980469 L 224.214844 193.4375 L 196 176 "/>
<path style="fill-rule:nonzero;fill:rgb(55%,51%,53%);fill-opacity:1;stroke-width:1;stroke-linecap:butt;stroke-linejoin:miter;stroke:rgb(0%,0%,0%);stroke-opacity:1;stroke-miterlimit:10;" d="M 726 89 L 700.019531 134 L 751.980469 134 L 726 89 "/>
<path style="fill-rule:nonzero;fill:rgb(55%,51%,53%);fill-opacity:1;stroke-width:1;stroke-linecap:butt;stroke-linejoin:miter;stroke:rgb(0%,0%,0%);stroke-opacity:1;stroke-miterlimit:10;" d="M 704 433 L 678.019531 478 L 729.980469 478 L 704 433 "/>
<path style="fill-rule:nonzero;fill:rgb(55%,51%,53%);fill-opacity:1;stroke-width:1;stroke-linecap:butt;stroke-linejoin:miter;stroke:rgb(0%,0%,0%);stroke-opacity:1;stroke-miterlimit:10;" d="M 402 438 L 376.019531 483 L 427.980469 483 L 402 438 "/>
</g>
</svg>
