<?xml version="1.0" encoding="UTF-8"?>
<svg xmlns="http://www.w3.org/2000/svg" xmlns:xlink="http://www.w3.org/1999/xlink" width="1129pt" height="517pt" viewBox="0 0 1129 517" version="1.1">
<g id="surface241">
<rect x="0" y="0" width="1129" height="517" style="fill:rgb(90%,90%,90%);fill-opacity:1;stroke:none;"/>
<path style="fill-rule:nonzero;fill:rgb(35%,70%,90%);fill-opacity:1;stroke-width:1;stroke-linecap:butt;stroke-linejoin:miter;stroke:rgb(0%,0%,0%);stroke-opacity:1;stroke-miterlimit:10;" d="M 759 416 L 788.664062 416 L 800.664062 387.785156 L 812.664062 416 L 842.332031 416 L 818.332031 433.4375 L 826.417969 464.980469 L 800.664062 447.542969 L 774.914062 464.980469 L 787.214844 433.4375 L 759 416 "/>
<path style="fill-rule:nonzero;fill:rgb(35%,70%,90%);fill-opacity:1;stroke-width:1;stroke-linecap:butt;stroke-linejoin:miter;stroke:rgb(0%,0%,0%);stroke-opacity:1;stroke-miterlimit:10;" d="M 199 348 L 228.664062 348 L 240.664062 319.785156 L 252.664062 348 L 282.332031 348 L 258.332031 365.4375 L 266.417969 396.980469 L 240.664062 379.542969 L 214.914062 396.980469 L 227.214844 365.4375 L 199 348 "/>
<path style="fill-rule:nonzero;fill:rgb(35%,70%,90%);fill-opacity:1;stroke-width:1;stroke-linecap:butt;stroke-linejoin:miter;stroke:rgb(0%,0%,0%);stroke-opacity:1;stroke-miterlimit:10;" d="M 670 224 L 699.664062 224 L 711.664062 195.785156 L 723.664062 224 L 753.332031 224 L 729.332031 241.4375 L 737.417969 272.980469 L 711.664062 255.542969 L 685.914062 272.980469 L 698.214844 241.4375 L 670 224 "/>
<path style="fill-rule:nonzero;fill:rgb(35%,70%,90%);fill-opacity:1;stroke-width:1;stroke-linecap:butt;stroke-linejoin:miter;stroke:rgb(0%,0%,0%);stroke-opacity:1;stroke-miterlimit:10;" d="M 472 448 L 501.664062 448 L 513.664062 419.785156 L 525.664062 448 L 555.332031 448 L 531.332031 465.4375 L 539.417969 496.980469 L 513.664062 479.542969 L 487.914062 496.980469 L 500.214844 465.4375 L 472 448 "/>
<path style="fill-rule:nonzero;fill:rgb(55%,51%,53%);fill-opacity:1;stroke-width:1;stroke-linecap:butt;stroke-linejoin:miter;stroke:rgb(0%,0%,0%);stroke-opacity:1;stroke-miterlimit:10;" d="M 786.214844 208 C 786.214844 219.714844 776.714844 229.214844 765 229.214844 C 753.285156 229.214844 743.785156 219.714844 743.785156 208 C 743.785156 196.285156 753.285156 186.785156 765 186.785156 C 776.714844 186.785156 786.214844 196.285156 786.214844 208 "/>
<path style="fill-rule:nonzero;fill:rgb(55%,51%,53%);fill-opacity:1;stroke-width:1;stroke-linecap:butt;stroke-linejoin:miter;stroke:rgb(0%,0%,0%);stroke-opacity:1;stroke-miterlimit:10;" d="M 587.214844 86 C 587.214844 97.714844 577.714844 107.214844 566 107.214844 C 554.285156 107.214844 544.785156 97.714844 544.785156 86 C 544.785156 74.285156 554.285156 64.785156 566 64.785156 C 577.714844 64.785156 587.214844 74.285156 587.214844 86 "/>
<path style="fill-rule:nonzero;fill:rgb(55%,51%,53%);fill-opacity:1;stroke-width:1;stroke-linecap:butt;stroke-linejoin:miter;stroke:rgb(0%,0%,0%);stroke-opacity:1;stroke-miterlimit:10;" d="M 692.214844 351 C 692.214844 362.714844 682.714844 372.214844 671 372.214844 C 659.285156 372.214844 649.785156 362.714844 649.785156 351 C 649.785156 339.285156 659.285156 329.785156 671 329.785156 C 682.714844 329.785156 692.214844 339.285156 692.214844 351 "/>
</g>
</svg>
