<?xml version="1.0" encoding="UTF-8"?>
<svg xmlns="http://www.w3.org/2000/svg" xmlns:xlink="http://www.w3.org/1999/xlink" width="1129pt" height="517pt" viewBox="0 0 1129 517" version="1.1">
<g id="surface211">
<rect x="0" y="0" width="1129" height="517" style="fill:rgb(90%,90%,90%);fill-opacity:1;stroke:none;"/>
<path style="fill-rule:nonzero;fill:rgb(35%,70%,90%);fill-opacity:1;stroke-width:1;stroke-linecap:butt;stroke-linejoin:miter;stroke:rgb(0%,0%,0%);stroke-opacity:1;stroke-miterlimit:10;" d="M 386 191 L 415.664062 191 L 427.664062 162.785156 L 439.664062 191 L 469.332031 191 L 445.332031 208.4375 L 453.417969 239.980469 L 427.664062 222.542969 L 401.914062 239.980469 L 414.214844 208.4375 L 386 191 "/>
<path style="fill-rule:nonzero;fill:rgb(35%,70%,90%);fill-opacity:1;stroke-width:1;stroke-linecap:butt;stroke-linejoin:miter;stroke:rgb(0%,0%,0%);stroke-opacity:1;stroke-miterlimit:10;" d="M 284 85 L 313.664062 85 L 325.664062 56.785156 L 337.664062 85 L 367.332031 85 L 343.332031 102.4375 L 351.417969 133.980469 L 325.664062 116.542969 L 299.914062 133.980469 L 312.214844 102.4375 L 284 85 "/>
<path style="fill-rule:nonzero;fill:rgb(35%,70%,90%);fill-opacity:1;stroke-width:1;stroke-linecap:butt;stroke-linejoin:miter;stroke:rgb(0%,0%,0%);stroke-opacity:1;stroke-miterlimit:10;" d="M 192 300 L 221.664062 300 L 233.664062 271.785156 L 245.664062 300 L 275.332031 300 L 251.332031 317.4375 L 259.417969 348.980469 L 233.664062 331.542969 L 207.914062 348.980469 L 220.214844 317.4375 L 192 300 "/>
<path style="fill-rule:nonzero;fill:rgb(53%,27%,7%);fill-opacity:1;stroke-width:1;stroke-linecap:butt;stroke-linejoin:miter;stroke:rgb(0%,0%,0%);stroke-opacity:1;stroke-miterlimit:10;" d="M 949.214844 339 C 949.214844 350.714844 939.714844 360.214844 928 360.214844 C 916.285156 360.214844 906.785156 350.714844 906.785156 339 C 906.785156 327.285156 916.285156 317.785156 928 317.785156 C 939.714844 317.785156 949.214844 327.285156 949.214844 339 "/>
<path style="fill-rule:nonzero;fill:rgb(53%,27%,7%);fill-opacity:1;stroke-width:1;stroke-linecap:butt;stroke-linejoin:miter;stroke:rgb(0%,0%,0%);stroke-opacity:1;stroke-miterlimit:10;" d="M 856.214844 118 C 856.214844 129.714844 846.714844 139.214844 835 139.214844 C 823.285156 139.214844 813.785156 129.714844 813.785156 118 C 813.785156 106.285156 823.285156 96.785156 835 96.785156 C 846.714844 96.785156 856.214844 106.285156 856.214844 118 "/>
<path style="fill-rule:nonzero;fill:rgb(53%,27%,7%);fill-opacity:1;stroke-width:1;stroke-linecap:butt;stroke-linejoin:miter;stroke:rgb(0%,0%,0%);stroke-opacity:1;stroke-miterlimit:10;" d="M 701.214844 390 C 701.214844 401.714844 691.714844 411.214844 680 411.214844 C 668.285156 411.214844 658.785156 401.714844 658.785156 390 C 658.785156 378.285156 668.285156 368.785156 680 368.785156 C 691.714844 368.785156 701.214844 378.285156 701.214844 390 "/>
<path style="fill-rule:nonzero;fill:rgb(53%,27%,7%);fill-opacity:1;stroke-width:1;stroke-linecap:butt;stroke-linejoin:miter;stroke:rgb(0%,0%,0%);stroke-opacity:1;stroke-miterlimit:10;" d="M 578.214844 288 C 578.214844 299.714844 568.714844 309.214844 557 309.214844 C 545.285156 309.214844 535.785156 299.714844 535.785156 288 C 535.785156 276.285156 545.285156 266.785156 557 266.785156 C 568.714844 266.785156 578.214844 276.285156 578.214844 288 "/>
<path style="fill-rule:nonzero;fill:rgb(53%,27%,7%);fill-opacity:1;stroke-width:1;stroke-linecap:butt;stroke-linejoin:miter;stroke:rgb(0%,0%,0%);stroke-opacity:1;stroke-miterlimit:10;" d="M 476.214844 103 C 476.214844 114.714844 466.714844 124.214844 455 124.214844 C 443.285156 124.214844 433.785156 114.714844 433.785156 103 C 433.785156 91.285156 443.285156 81.785156 455 81.785156 C 466.714844 81.785156 476.214844 91.285156 476.214844 103 "/>
</g>
</svg>
