<?xml version="1.0" encoding="UTF-8"?>
<svg xmlns="http://www.w3.org/2000/svg" xmlns:xlink="http://www.w3.org/1999/xlink" width="1129pt" height="517pt" viewBox="0 0 1129 517" version="1.1">
<g id="surface66">
<rect x="0" y="0" width="1129" height="517" style="fill:rgb(90%,90%,90%);fill-opacity:1;stroke:none;"/>
<path style="fill-rule:nonzero;fill:rgb(35%,70%,90%);fill-opacity:1;stroke-width:1;stroke-linecap:butt;stroke-linejoin:miter;stroke:rgb(0%,0%,0%);stroke-opacity:1;stroke-miterlimit:10;" d="M 135 321 L 164.664062 321 L 176.664062 292.785156 L 188.664062 321 L 218.332031 321 L 194.332031 338.4375 L 202.417969 369.980469 L 176.664062 352.542969 L 150.914062 369.980469 L 163.214844 338.4375 L 135 321 "/>
<path style="fill-rule:nonzero;fill:rgb(35%,70%,90%);fill-opacity:1;stroke-width:1;stroke-linecap:butt;stroke-linejoin:miter;stroke:rgb(0%,0%,0%);stroke-opacity:1;stroke-miterlimit:10;" d="M 775 420 L 804.664062 420 L 816.664062 391.785156 L 828.664062 420 L 858.332031 420 L 834.332031 437.4375 L 842.417969 468.980469 L 816.664062 451.542969 L 790.914062 468.980469 L 803.214844 437.4375 L 775 420 "/>
<path style="fill-rule:nonzero;fill:rgb(35%,70%,90%);fill-opacity:1;stroke-width:1;stroke-linecap:butt;stroke-linejoin:miter;stroke:rgb(0%,0%,0%);stroke-opacity:1;stroke-miterlimit:10;" d="M 844 308 L 873.664062 308 L 885.664062 279.785156 L 897.664062 308 L 927.332031 308 L 903.332031 325.4375 L 911.417969 356.980469 L 885.664062 339.542969 L 859.914062 356.980469 L 872.214844 325.4375 L 844 308 "/>
<path style="fill-rule:nonzero;fill:rgb(35%,70%,90%);fill-opacity:1;stroke-width:1;stroke-linecap:butt;stroke-linejoin:miter;stroke:rgb(0%,0%,0%);stroke-opacity:1;stroke-miterlimit:10;" d="M 898 173 L 927.664062 173 L 939.664062 144.785156 L 951.664062 173 L 981.332031 173 L 957.332031 190.4375 L 965.417969 221.980469 L 939.664062 204.542969 L 913.914062 221.980469 L 926.214844 190.4375 L 898 173 "/>
<path style="fill-rule:nonzero;fill:rgb(35%,70%,90%);fill-opacity:1;stroke-width:1;stroke-linecap:butt;stroke-linejoin:miter;stroke:rgb(0%,0%,0%);stroke-opacity:1;stroke-miterlimit:10;" d="M 537 171 L 566.664062 171 L 578.664062 142.785156 L 590.664062 171 L 620.332031 171 L 596.332031 188.4375 L 604.417969 219.980469 L 578.664062 202.542969 L 552.914062 219.980469 L 565.214844 188.4375 L 537 171 "/>
<path style="fill-rule:nonzero;fill:rgb(35%,70%,90%);fill-opacity:1;stroke-width:1;stroke-linecap:butt;stroke-linejoin:miter;stroke:rgb(0%,0%,0%);stroke-opacity:1;stroke-miterlimit:10;" d="M 432 193 L 461.664062 193 L 473.664062 164.785156 L 485.664062 193 L 515.332031 193 L 491.332031 210.4375 L 499.417969 241.980469 L 473.664062 224.542969 L 447.914062 241.980469 L 460.214844 210.4375 L 432 193 "/>
<path style="fill-rule:nonzero;fill:rgb(35%,70%,90%);fill-opacity:1;stroke-width:1;stroke-linecap:butt;stroke-linejoin:miter;stroke:rgb(0%,0%,0%);stroke-opacity:1;stroke-miterlimit:10;" d="M 652 415 L 681.664062 415 L 693.664062 386.785156 L 705.664062 415 L 735.332031 415 L 711.332031 432.4375 L 719.417969 463.980469 L 693.664062 446.542969 L 667.914062 463.980469 L 680.214844 432.4375 L 652 415 "/>
<path style="fill-rule:nonzero;fill:rgb(55%,51%,53%);fill-opacity:1;stroke-width:1;stroke-linecap:butt;stroke-linejoin:miter;stroke:rgb(0%,0%,0%);stroke-opacity:1;stroke-miterlimit:10;" d="M 42 317 L 16.019531 362 L 67.980469 362 L 42 317 "/>
<path style="fill-rule:nonzero;fill:rgb(55%,51%,53%);fill-opacity:1;stroke-width:1;stroke-linecap:butt;stroke-linejoin:miter;stroke:rgb(0%,0%,0%);stroke-opacity:1;stroke-miterlimit:10;" d="M 113 29 L 87.019531 74 L 138.980469 74 L 113 29 "/>
<path style="fill-rule:nonzero;fill:rgb(55%,51%,53%);fill-opacity:1;stroke-width:1;stroke-linecap:butt;stroke-linejoin:miter;stroke:rgb(0%,0%,0%);stroke-opacity:1;stroke-miterlimit:10;" d="M 301 185 L 275.019531 230 L 326.980469 230 L 301 185 "/>
<path style="fill-rule:nonzero;fill:rgb(55%,51%,53%);fill-opacity:1;stroke-width:1;stroke-linecap:butt;stroke-linejoin:miter;stroke:rgb(0%,0%,0%);stroke-opacity:1;stroke-miterlimit:10;" d="M 138 143 L 112.019531 188 L 163.980469 188 L 138 143 "/>
<path style="fill-rule:nonzero;fill:rgb(55%,51%,53%);fill-opacity:1;stroke-width:1;stroke-linecap:butt;stroke-linejoin:miter;stroke:rgb(0%,0%,0%);stroke-opacity:1;stroke-miterlimit:10;" d="M 389 291 L 363.019531 336 L 414.980469 336 L 389 291 "/>
<path style="fill-rule:nonzero;fill:rgb(55%,51%,53%);fill-opacity:1;stroke-width:1;stroke-linecap:butt;stroke-linejoin:miter;stroke:rgb(0%,0%,0%);stroke-opacity:1;stroke-miterlimit:10;" d="M 983 80 L 957.019531 125 L 1008.980469 125 L 983 80 "/>
<path style="fill-rule:nonzero;fill:rgb(55%,51%,53%);fill-opacity:1;stroke-width:1;stroke-linecap:butt;stroke-linejoin:miter;stroke:rgb(0%,0%,0%);stroke-opacity:1;stroke-miterlimit:10;" d="M 204 415 L 178.019531 460 L 229.980469 460 L 204 415 "/>
<path style="fill-rule:nonzero;fill:rgb(55%,51%,53%);fill-opacity:1;stroke-width:1;stroke-linecap:butt;stroke-linejoin:miter;stroke:rgb(0%,0%,0%);stroke-opacity:1;stroke-miterlimit:10;" d="M 779 100 L 753.019531 145 L 804.980469 145 L 779 100 "/>
</g>
</svg>
