<?xml version="1.0" encoding="UTF-8"?>
<svg xmlns="http://www.w3.org/2000/svg" xmlns:xlink="http://www.w3.org/1999/xlink" width="1129pt" height="517pt" viewBox="0 0 1129 517" version="1.1">
<g id="surface611">
<rect x="0" y="0" width="1129" height="517" style="fill:rgb(90%,90%,90%);fill-opacity:1;stroke:none;"/>
<path style="fill-rule:nonzero;fill:rgb(35%,70%,90%);fill-opacity:1;stroke-width:1;stroke-linecap:butt;stroke-linejoin:miter;stroke:rgb(0%,0%,0%);stroke-opacity:1;stroke-miterlimit:10;" d="M 287 226 L 316.664062 226 L 328.664062 197.785156 L 340.664062 226 L 370.332031 226 L 346.332031 243.4375 L 354.417969 274.980469 L 328.664062 257.542969 L 302.914062 274.980469 L 315.214844 243.4375 L 287 226 "/>
<path style="fill-rule:nonzero;fill:rgb(55%,51%,53%);fill-opacity:1;stroke-width:1;stroke-linecap:butt;stroke-linejoin:miter;stroke:rgb(0%,0%,0%);stroke-opacity:1;stroke-miterlimit:10;" d="M 368 464 L 397.664062 464 L 409.664062 435.785156 L 421.664062 464 L 451.332031 464 L 427.332031 481.4375 L 435.417969 512.980469 L 409.664062 495.542969 L 383.914062 512.980469 L 396.214844 481.4375 L 368 464 "/>
<path style="fill-rule:nonzero;fill:rgb(55%,51%,53%);fill-opacity:1;stroke-width:1;stroke-linecap:butt;stroke-linejoin:miter;stroke:rgb(0%,0%,0%);stroke-opacity:1;stroke-miterlimit:10;" d="M 266 325 L 295.664062 325 L 307.664062 296.785156 L 319.664062 325 L 349.332031 325 L 325.332031 342.4375 L 333.417969 373.980469 L 307.664062 356.542969 L 281.914062 373.980469 L 294.214844 342.4375 L 266 325 "/>
<path style="fill-rule:nonzero;fill:rgb(35%,70%,90%);fill-opacity:1;stroke-width:1;stroke-linecap:butt;stroke-linejoin:miter;stroke:rgb(0%,0%,0%);stroke-opacity:1;stroke-miterlimit:10;" d="M 252 51 L 281.664062 51 L 293.664062 22.785156 L 305.664062 51 L 335.332031 51 L 311.332031 68.4375 L 319.417969 99.980469 L 293.664062 82.542969 L 267.914062 99.980469 L 280.214844 68.4375 L 252 51 "/>
<path style="fill-rule:nonzero;fill:rgb(35%,70%,90%);fill-opacity:1;stroke-width:1;stroke-linecap:butt;stroke-linejoin:miter;stroke:rgb(0%,0%,0%);stroke-opacity:1;stroke-miterlimit:10;" d="M 424 152 L 453.664062 152 L 465.664062 123.785156 L 477.664062 152 L 507.332031 152 L 483.332031 169.4375 L 491.417969 200.980469 L 465.664062 183.542969 L 439.914062 200.980469 L 452.214844 169.4375 L 424 152 "/>
<path style="fill-rule:nonzero;fill:rgb(55%,51%,53%);fill-opacity:1;stroke-width:1;stroke-linecap:butt;stroke-linejoin:miter;stroke:rgb(0%,0%,0%);stroke-opacity:1;stroke-miterlimit:10;" d="M 143.785156 149.785156 L 143.785156 192.214844 L 186.214844 192.214844 L 186.214844 149.785156 L 143.785156 149.785156 "/>
</g>
</svg>
