<?xml version="1.0" encoding="UTF-8"?>
<svg xmlns="http://www.w3.org/2000/svg" xmlns:xlink="http://www.w3.org/1999/xlink" width="1129pt" height="517pt" viewBox="0 0 1129 517" version="1.1">
<g id="surface411">
<rect x="0" y="0" width="1129" height="517" style="fill:rgb(90%,90%,90%);fill-opacity:1;stroke:none;"/>
<path style="fill-rule:nonzero;fill:rgb(35%,70%,90%);fill-opacity:1;stroke-width:1;stroke-linecap:butt;stroke-linejoin:miter;stroke:rgb(0%,0%,0%);stroke-opacity:1;stroke-miterlimit:10;" d="M 166.214844 444 C 166.214844 455.714844 156.714844 465.214844 145 465.214844 C 133.285156 465.214844 123.785156 455.714844 123.785156 444 C 123.785156 432.285156 133.285156 422.785156 145 422.785156 C 156.714844 422.785156 166.214844 432.285156 166.214844 444 "/>
<path style="fill-rule:nonzero;fill:rgb(35%,70%,90%);fill-opacity:1;stroke-width:1;stroke-linecap:butt;stroke-linejoin:miter;stroke:rgb(0%,0%,0%);stroke-opacity:1;stroke-miterlimit:10;" d="M 492.214844 183 C 492.214844 194.714844 482.714844 204.214844 471 204.214844 C 459.285156 204.214844 449.785156 194.714844 449.785156 183 C 449.785156 171.285156 459.285156 161.785156 471 161.785156 C 482.714844 161.785156 492.214844 171.285156 492.214844 183 "/>
<path style="fill-rule:nonzero;fill:rgb(35%,70%,90%);fill-opacity:1;stroke-width:1;stroke-linecap:butt;stroke-linejoin:miter;stroke:rgb(0%,0%,0%);stroke-opacity:1;stroke-miterlimit:10;" d="M 358.214844 57 C 358.214844 68.714844 348.714844 78.214844 337 78.214844 C 325.285156 78.214844 315.785156 68.714844 315.785156 57 C 315.785156 45.285156 325.285156 35.785156 337 35.785156 C 348.714844 35.785156 358.214844 45.285156 358.214844 57 "/>
<path style="fill-rule:nonzero;fill:rgb(35%,70%,90%);fill-opacity:1;stroke-width:1;stroke-linecap:butt;stroke-linejoin:miter;stroke:rgb(0%,0%,0%);stroke-opacity:1;stroke-miterlimit:10;" d="M 29.785156 240.785156 L 29.785156 283.214844 L 72.214844 283.214844 L 72.214844 240.785156 L 29.785156 240.785156 "/>
<path style="fill-rule:nonzero;fill:rgb(35%,70%,90%);fill-opacity:1;stroke-width:1;stroke-linecap:butt;stroke-linejoin:miter;stroke:rgb(0%,0%,0%);stroke-opacity:1;stroke-miterlimit:10;" d="M 344.214844 278 C 344.214844 289.714844 334.714844 299.214844 323 299.214844 C 311.285156 299.214844 301.785156 289.714844 301.785156 278 C 301.785156 266.285156 311.285156 256.785156 323 256.785156 C 334.714844 256.785156 344.214844 266.285156 344.214844 278 "/>
<path style="fill-rule:nonzero;fill:rgb(35%,70%,90%);fill-opacity:1;stroke-width:1;stroke-linecap:butt;stroke-linejoin:miter;stroke:rgb(0%,0%,0%);stroke-opacity:1;stroke-miterlimit:10;" d="M 387.214844 409 C 387.214844 420.714844 377.714844 430.214844 366 430.214844 C 354.285156 430.214844 344.785156 420.714844 344.785156 409 C 344.785156 397.285156 354.285156 387.785156 366 387.785156 C 377.714844 387.785156 387.214844 397.285156 387.214844 409 "/>
<path style="fill-rule:nonzero;fill:rgb(35%,70%,90%);fill-opacity:1;stroke-width:1;stroke-linecap:butt;stroke-linejoin:miter;stroke:rgb(0%,0%,0%);stroke-opacity:1;stroke-miterlimit:10;" d="M 275.214844 348 C 275.214844 359.714844 265.714844 369.214844 254 369.214844 C 242.285156 369.214844 232.785156 359.714844 232.785156 348 C 232.785156 336.285156 242.285156 326.785156 254 326.785156 C 265.714844 326.785156 275.214844 336.285156 275.214844 348 "/>
<path style="fill-rule:nonzero;fill:rgb(53%,27%,7%);fill-opacity:1;stroke-width:1;stroke-linecap:butt;stroke-linejoin:miter;stroke:rgb(0%,0%,0%);stroke-opacity:1;stroke-miterlimit:10;" d="M 654.785156 398.785156 L 654.785156 441.214844 L 697.214844 441.214844 L 697.214844 398.785156 L 654.785156 398.785156 "/>
<path style="fill-rule:nonzero;fill:rgb(53%,27%,7%);fill-opacity:1;stroke-width:1;stroke-linecap:butt;stroke-linejoin:miter;stroke:rgb(0%,0%,0%);stroke-opacity:1;stroke-miterlimit:10;" d="M 745.785156 142.785156 L 745.785156 185.214844 L 788.214844 185.214844 L 788.214844 142.785156 L 745.785156 142.785156 "/>
<path style="fill-rule:nonzero;fill:rgb(53%,27%,7%);fill-opacity:1;stroke-width:1;stroke-linecap:butt;stroke-linejoin:miter;stroke:rgb(0%,0%,0%);stroke-opacity:1;stroke-miterlimit:10;" d="M 586.785156 60.785156 L 586.785156 103.214844 L 629.214844 103.214844 L 629.214844 60.785156 L 586.785156 60.785156 "/>
<path style="fill-rule:nonzero;fill:rgb(53%,27%,7%);fill-opacity:1;stroke-width:1;stroke-linecap:butt;stroke-linejoin:miter;stroke:rgb(0%,0%,0%);stroke-opacity:1;stroke-miterlimit:10;" d="M 779.214844 274 C 779.214844 285.714844 769.714844 295.214844 758 295.214844 C 746.285156 295.214844 736.785156 285.714844 736.785156 274 C 736.785156 262.285156 746.285156 252.785156 758 252.785156 C 769.714844 252.785156 779.214844 262.285156 779.214844 274 "/>
<path style="fill-rule:nonzero;fill:rgb(53%,27%,7%);fill-opacity:1;stroke-width:1;stroke-linecap:butt;stroke-linejoin:miter;stroke:rgb(0%,0%,0%);stroke-opacity:1;stroke-miterlimit:10;" d="M 904.785156 385.785156 L 904.785156 428.214844 L 947.214844 428.214844 L 947.214844 385.785156 L 904.785156 385.785156 "/>
<path style="fill-rule:nonzero;fill:rgb(53%,27%,7%);fill-opacity:1;stroke-width:1;stroke-linecap:butt;stroke-linejoin:miter;stroke:rgb(0%,0%,0%);stroke-opacity:1;stroke-miterlimit:10;" d="M 791.785156 57.785156 L 791.785156 100.214844 L 834.214844 100.214844 L 834.214844 57.785156 L 791.785156 57.785156 "/>
<path style="fill-rule:nonzero;fill:rgb(53%,27%,7%);fill-opacity:1;stroke-width:1;stroke-linecap:butt;stroke-linejoin:miter;stroke:rgb(0%,0%,0%);stroke-opacity:1;stroke-miterlimit:10;" d="M 790.785156 331.785156 L 790.785156 374.214844 L 833.214844 374.214844 L 833.214844 331.785156 L 790.785156 331.785156 "/>
</g>
</svg>
