<?xml version="1.0" encoding="UTF-8"?>
<svg xmlns="http://www.w3.org/2000/svg" xmlns:xlink="http://www.w3.org/1999/xlink" width="1129pt" height="517pt" viewBox="0 0 1129 517" version="1.1">
<g id="surface371">
<rect x="0" y="0" width="1129" height="517" style="fill:rgb(90%,90%,90%);fill-opacity:1;stroke:none;"/>
<path style="fill-rule:nonzero;fill:rgb(35%,70%,90%);fill-opacity:1;stroke-width:1;stroke-linecap:butt;stroke-linejoin:miter;stroke:rgb(0%,0%,0%);stroke-opacity:1;stroke-miterlimit:10;" d="M 70 364 L 99.664062 364 L 111.664062 335.785156 L 123.664062 364 L 153.332031 364 L 129.332031 381.4375 L 137.417969 412.980469 L 111.664062 395.542969 L 85.914062 412.980469 L 98.214844 381.4375 L 70 364 "/>
<path style="fill-rule:nonzero;fill:rgb(35%,70%,90%);fill-opacity:1;stroke-width:1;stroke-linecap:butt;stroke-linejoin:miter;stroke:rgb(0%,0%,0%);stroke-opacity:1;stroke-miterlimit:10;" d="M 416 265 L 445.664062 265 L 457.664062 236.785156 L 469.664062 265 L 499.332031 265 L 475.332031 282.4375 L 483.417969 313.980469 L 457.664062 296.542969 L 431.914062 313.980469 L 444.214844 282.4375 L 416 265 "/>
<path style="fill-rule:nonzero;fill:rgb(35%,70%,90%);fill-opacity:1;stroke-width:1;stroke-linecap:butt;stroke-linejoin:miter;stroke:rgb(0%,0%,0%);stroke-opacity:1;stroke-miterlimit:10;" d="M 290.785156 163.785156 L 290.785156 206.214844 L 333.214844 206.214844 L 333.214844 163.785156 L 290.785156 163.785156 "/>
<path style="fill-rule:nonzero;fill:rgb(35%,70%,90%);fill-opacity:1;stroke-width:1;stroke-linecap:butt;stroke-linejoin:miter;stroke:rgb(0%,0%,0%);stroke-opacity:1;stroke-miterlimit:10;" d="M 100.785156 74.785156 L 100.785156 117.214844 L 143.214844 117.214844 L 143.214844 74.785156 L 100.785156 74.785156 "/>
<path style="fill-rule:nonzero;fill:rgb(35%,70%,90%);fill-opacity:1;stroke-width:1;stroke-linecap:butt;stroke-linejoin:miter;stroke:rgb(0%,0%,0%);stroke-opacity:1;stroke-miterlimit:10;" d="M 335 352 L 364.664062 352 L 376.664062 323.785156 L 388.664062 352 L 418.332031 352 L 394.332031 369.4375 L 402.417969 400.980469 L 376.664062 383.542969 L 350.914062 400.980469 L 363.214844 369.4375 L 335 352 "/>
<path style="fill-rule:nonzero;fill:rgb(100%,51%,0%);fill-opacity:1;stroke-width:1;stroke-linecap:butt;stroke-linejoin:miter;stroke:rgb(0%,0%,0%);stroke-opacity:1;stroke-miterlimit:10;" d="M 586.785156 194.785156 L 586.785156 237.214844 L 629.214844 237.214844 L 629.214844 194.785156 L 586.785156 194.785156 "/>
<path style="fill-rule:nonzero;fill:rgb(100%,51%,0%);fill-opacity:1;stroke-width:1;stroke-linecap:butt;stroke-linejoin:miter;stroke:rgb(0%,0%,0%);stroke-opacity:1;stroke-miterlimit:10;" d="M 580.785156 340.785156 L 580.785156 383.214844 L 623.214844 383.214844 L 623.214844 340.785156 L 580.785156 340.785156 "/>
<path style="fill-rule:nonzero;fill:rgb(100%,51%,0%);fill-opacity:1;stroke-width:1;stroke-linecap:butt;stroke-linejoin:miter;stroke:rgb(0%,0%,0%);stroke-opacity:1;stroke-miterlimit:10;" d="M 1022 256 L 1051.664062 256 L 1063.664062 227.785156 L 1075.664062 256 L 1105.332031 256 L 1081.332031 273.4375 L 1089.417969 304.980469 L 1063.664062 287.542969 L 1037.914062 304.980469 L 1050.214844 273.4375 L 1022 256 "/>
<path style="fill-rule:nonzero;fill:rgb(100%,51%,0%);fill-opacity:1;stroke-width:1;stroke-linecap:butt;stroke-linejoin:miter;stroke:rgb(0%,0%,0%);stroke-opacity:1;stroke-miterlimit:10;" d="M 777 228 L 806.664062 228 L 818.664062 199.785156 L 830.664062 228 L 860.332031 228 L 836.332031 245.4375 L 844.417969 276.980469 L 818.664062 259.542969 L 792.914062 276.980469 L 805.214844 245.4375 L 777 228 "/>
<path style="fill-rule:nonzero;fill:rgb(100%,51%,0%);fill-opacity:1;stroke-width:1;stroke-linecap:butt;stroke-linejoin:miter;stroke:rgb(0%,0%,0%);stroke-opacity:1;stroke-miterlimit:10;" d="M 878.785156 403.785156 L 878.785156 446.214844 L 921.214844 446.214844 L 921.214844 403.785156 L 878.785156 403.785156 "/>
<path style="fill-rule:nonzero;fill:rgb(100%,51%,0%);fill-opacity:1;stroke-width:1;stroke-linecap:butt;stroke-linejoin:miter;stroke:rgb(0%,0%,0%);stroke-opacity:1;stroke-miterlimit:10;" d="M 612.785156 77.785156 L 612.785156 120.214844 L 655.214844 120.214844 L 655.214844 77.785156 L 612.785156 77.785156 "/>
</g>
</svg>
