<?xml version="1.0" encoding="UTF-8"?>
<svg xmlns="http://www.w3.org/2000/svg" xmlns:xlink="http://www.w3.org/1999/xlink" width="1129pt" height="517pt" viewBox="0 0 1129 517" version="1.1">
<g id="surface161">
<rect x="0" y="0" width="1129" height="517" style="fill:rgb(90%,90%,90%);fill-opacity:1;stroke:none;"/>
<path style="fill-rule:nonzero;fill:rgb(55%,51%,53%);fill-opacity:1;stroke-width:1;stroke-linecap:butt;stroke-linejoin:miter;stroke:rgb(0%,0%,0%);stroke-opacity:1;stroke-miterlimit:10;" d="M 424 376 L 453.664062 376 L 465.664062 347.785156 L 477.664062 376 L 507.332031 376 L 483.332031 393.4375 L 491.417969 424.980469 L 465.664062 407.542969 L 439.914062 424.980469 L 452.214844 393.4375 L 424 376 "/>
<path style="fill-rule:nonzero;fill:rgb(55%,51%,53%);fill-opacity:1;stroke-width:1;stroke-linecap:butt;stroke-linejoin:miter;stroke:rgb(0%,0%,0%);stroke-opacity:1;stroke-miterlimit:10;" d="M 128.785156 288.785156 L 128.785156 331.214844 L 171.214844 331.214844 L 171.214844 288.785156 L 128.785156 288.785156 "/>
<path style="fill-rule:nonzero;fill:rgb(55%,51%,53%);fill-opacity:1;stroke-width:1;stroke-linecap:butt;stroke-linejoin:miter;stroke:rgb(0%,0%,0%);stroke-opacity:1;stroke-miterlimit:10;" d="M 50 57 L 79.664062 57 L 91.664062 28.785156 L 103.664062 57 L 133.332031 57 L 109.332031 74.4375 L 117.417969 105.980469 L 91.664062 88.542969 L 65.914062 105.980469 L 78.214844 74.4375 L 50 57 "/>
<path style="fill-rule:nonzero;fill:rgb(53%,27%,7%);fill-opacity:1;stroke-width:1;stroke-linecap:butt;stroke-linejoin:miter;stroke:rgb(0%,0%,0%);stroke-opacity:1;stroke-miterlimit:10;" d="M 932.785156 253.785156 L 932.785156 296.214844 L 975.214844 296.214844 L 975.214844 253.785156 L 932.785156 253.785156 "/>
<path style="fill-rule:nonzero;fill:rgb(53%,27%,7%);fill-opacity:1;stroke-width:1;stroke-linecap:butt;stroke-linejoin:miter;stroke:rgb(0%,0%,0%);stroke-opacity:1;stroke-miterlimit:10;" d="M 633 275 L 662.664062 275 L 674.664062 246.785156 L 686.664062 275 L 716.332031 275 L 692.332031 292.4375 L 700.417969 323.980469 L 674.664062 306.542969 L 648.914062 323.980469 L 661.214844 292.4375 L 633 275 "/>
<path style="fill-rule:nonzero;fill:rgb(53%,27%,7%);fill-opacity:1;stroke-width:1;stroke-linecap:butt;stroke-linejoin:miter;stroke:rgb(0%,0%,0%);stroke-opacity:1;stroke-miterlimit:10;" d="M 743.785156 350.785156 L 743.785156 393.214844 L 786.214844 393.214844 L 786.214844 350.785156 L 743.785156 350.785156 "/>
<path style="fill-rule:nonzero;fill:rgb(53%,27%,7%);fill-opacity:1;stroke-width:1;stroke-linecap:butt;stroke-linejoin:miter;stroke:rgb(0%,0%,0%);stroke-opacity:1;stroke-miterlimit:10;" d="M 705 85 L 734.664062 85 L 746.664062 56.785156 L 758.664062 85 L 788.332031 85 L 764.332031 102.4375 L 772.417969 133.980469 L 746.664062 116.542969 L 720.914062 133.980469 L 733.214844 102.4375 L 705 85 "/>
<path style="fill-rule:nonzero;fill:rgb(53%,27%,7%);fill-opacity:1;stroke-width:1;stroke-linecap:butt;stroke-linejoin:miter;stroke:rgb(0%,0%,0%);stroke-opacity:1;stroke-miterlimit:10;" d="M 680.785156 185.785156 L 680.785156 228.214844 L 723.214844 228.214844 L 723.214844 185.785156 L 680.785156 185.785156 "/>
<path style="fill-rule:nonzero;fill:rgb(53%,27%,7%);fill-opacity:1;stroke-width:1;stroke-linecap:butt;stroke-linejoin:miter;stroke:rgb(0%,0%,0%);stroke-opacity:1;stroke-miterlimit:10;" d="M 915.785156 46.785156 L 915.785156 89.214844 L 958.214844 89.214844 L 958.214844 46.785156 L 915.785156 46.785156 "/>
</g>
</svg>
