<?xml version="1.0" encoding="UTF-8"?>
<svg xmlns="http://www.w3.org/2000/svg" xmlns:xlink="http://www.w3.org/1999/xlink" width="1129pt" height="517pt" viewBox="0 0 1129 517" version="1.1">
<g id="surface696">
<rect x="0" y="0" width="1129" height="517" style="fill:rgb(90%,90%,90%);fill-opacity:1;stroke:none;"/>
<path style="fill-rule:nonzero;fill:rgb(55%,51%,53%);fill-opacity:1;stroke-width:1;stroke-linecap:butt;stroke-linejoin:miter;stroke:rgb(0%,0%,0%);stroke-opacity:1;stroke-miterlimit:10;" d="M 726 188 L 755.664062 188 L 767.664062 159.785156 L 779.664062 188 L 809.332031 188 L 785.332031 205.4375 L 793.417969 236.980469 L 767.664062 219.542969 L 741.914062 236.980469 L 754.214844 205.4375 L 726 188 "/>
<path style="fill-rule:nonzero;fill:rgb(55%,51%,53%);fill-opacity:1;stroke-width:1;stroke-linecap:butt;stroke-linejoin:miter;stroke:rgb(0%,0%,0%);stroke-opacity:1;stroke-miterlimit:10;" d="M 441 157 L 470.664062 157 L 482.664062 128.785156 L 494.664062 157 L 524.332031 157 L 500.332031 174.4375 L 508.417969 205.980469 L 482.664062 188.542969 L 456.914062 205.980469 L 469.214844 174.4375 L 441 157 "/>
<path style="fill-rule:nonzero;fill:rgb(55%,51%,53%);fill-opacity:1;stroke-width:1;stroke-linecap:butt;stroke-linejoin:miter;stroke:rgb(0%,0%,0%);stroke-opacity:1;stroke-miterlimit:10;" d="M 544 436 L 573.664062 436 L 585.664062 407.785156 L 597.664062 436 L 627.332031 436 L 603.332031 453.4375 L 611.417969 484.980469 L 585.664062 467.542969 L 559.914062 484.980469 L 572.214844 453.4375 L 544 436 "/>
<path style="fill-rule:nonzero;fill:rgb(55%,51%,53%);fill-opacity:1;stroke-width:1;stroke-linecap:butt;stroke-linejoin:miter;stroke:rgb(0%,0%,0%);stroke-opacity:1;stroke-miterlimit:10;" d="M 621 291 L 650.664062 291 L 662.664062 262.785156 L 674.664062 291 L 704.332031 291 L 680.332031 308.4375 L 688.417969 339.980469 L 662.664062 322.542969 L 636.914062 339.980469 L 649.214844 308.4375 L 621 291 "/>
<path style="fill-rule:nonzero;fill:rgb(53%,27%,7%);fill-opacity:1;stroke-width:1;stroke-linecap:butt;stroke-linejoin:miter;stroke:rgb(0%,0%,0%);stroke-opacity:1;stroke-miterlimit:10;" d="M 161 135 L 135.019531 180 L 186.980469 180 L 161 135 "/>
<path style="fill-rule:nonzero;fill:rgb(53%,27%,7%);fill-opacity:1;stroke-width:1;stroke-linecap:butt;stroke-linejoin:miter;stroke:rgb(0%,0%,0%);stroke-opacity:1;stroke-miterlimit:10;" d="M 522 72 L 496.019531 117 L 547.980469 117 L 522 72 "/>
<path style="fill-rule:nonzero;fill:rgb(53%,27%,7%);fill-opacity:1;stroke-width:1;stroke-linecap:butt;stroke-linejoin:miter;stroke:rgb(0%,0%,0%);stroke-opacity:1;stroke-miterlimit:10;" d="M 910 289 L 884.019531 334 L 935.980469 334 L 910 289 "/>
<path style="fill-rule:nonzero;fill:rgb(53%,27%,7%);fill-opacity:1;stroke-width:1;stroke-linecap:butt;stroke-linejoin:miter;stroke:rgb(0%,0%,0%);stroke-opacity:1;stroke-miterlimit:10;" d="M 857 92 L 831.019531 137 L 882.980469 137 L 857 92 "/>
<path style="fill-rule:nonzero;fill:rgb(53%,27%,7%);fill-opacity:1;stroke-width:1;stroke-linecap:butt;stroke-linejoin:miter;stroke:rgb(0%,0%,0%);stroke-opacity:1;stroke-miterlimit:10;" d="M 371 219 L 345.019531 264 L 396.980469 264 L 371 219 "/>
</g>
</svg>
