<?xml version="1.0" encoding="UTF-8"?>
<svg xmlns="http://www.w3.org/2000/svg" xmlns:xlink="http://www.w3.org/1999/xlink" width="1129pt" height="517pt" viewBox="0 0 1129 517" version="1.1">
<g id="surface151">
<rect x="0" y="0" width="1129" height="517" style="fill:rgb(90%,90%,90%);fill-opacity:1;stroke:none;"/>
<path style="fill-rule:nonzero;fill:rgb(55%,51%,53%);fill-opacity:1;stroke-width:1;stroke-linecap:butt;stroke-linejoin:miter;stroke:rgb(0%,0%,0%);stroke-opacity:1;stroke-miterlimit:10;" d="M 973 445 L 1002.664062 445 L 1014.664062 416.785156 L 1026.664062 445 L 1056.332031 445 L 1032.332031 462.4375 L 1040.417969 493.980469 L 1014.664062 476.542969 L 988.914062 493.980469 L 1001.214844 462.4375 L 973 445 "/>
<path style="fill-rule:nonzero;fill:rgb(55%,51%,53%);fill-opacity:1;stroke-width:1;stroke-linecap:butt;stroke-linejoin:miter;stroke:rgb(0%,0%,0%);stroke-opacity:1;stroke-miterlimit:10;" d="M 636 94 L 665.664062 94 L 677.664062 65.785156 L 689.664062 94 L 719.332031 94 L 695.332031 111.4375 L 703.417969 142.980469 L 677.664062 125.542969 L 651.914062 142.980469 L 664.214844 111.4375 L 636 94 "/>
<path style="fill-rule:nonzero;fill:rgb(55%,51%,53%);fill-opacity:1;stroke-width:1;stroke-linecap:butt;stroke-linejoin:miter;stroke:rgb(0%,0%,0%);stroke-opacity:1;stroke-miterlimit:10;" d="M 45 348 L 74.664062 348 L 86.664062 319.785156 L 98.664062 348 L 128.332031 348 L 104.332031 365.4375 L 112.417969 396.980469 L 86.664062 379.542969 L 60.914062 396.980469 L 73.214844 365.4375 L 45 348 "/>
<path style="fill-rule:nonzero;fill:rgb(55%,51%,53%);fill-opacity:1;stroke-width:1;stroke-linecap:butt;stroke-linejoin:miter;stroke:rgb(0%,0%,0%);stroke-opacity:1;stroke-miterlimit:10;" d="M 824 415 L 853.664062 415 L 865.664062 386.785156 L 877.664062 415 L 907.332031 415 L 883.332031 432.4375 L 891.417969 463.980469 L 865.664062 446.542969 L 839.914062 463.980469 L 852.214844 432.4375 L 824 415 "/>
<path style="fill-rule:nonzero;fill:rgb(53%,27%,7%);fill-opacity:1;stroke-width:1;stroke-linecap:butt;stroke-linejoin:miter;stroke:rgb(0%,0%,0%);stroke-opacity:1;stroke-miterlimit:10;" d="M 730.214844 170 C 730.214844 181.714844 720.714844 191.214844 709 191.214844 C 697.285156 191.214844 687.785156 181.714844 687.785156 170 C 687.785156 158.285156 697.285156 148.785156 709 148.785156 C 720.714844 148.785156 730.214844 158.285156 730.214844 170 "/>
<path style="fill-rule:nonzero;fill:rgb(53%,27%,7%);fill-opacity:1;stroke-width:1;stroke-linecap:butt;stroke-linejoin:miter;stroke:rgb(0%,0%,0%);stroke-opacity:1;stroke-miterlimit:10;" d="M 121.214844 147 C 121.214844 158.714844 111.714844 168.214844 100 168.214844 C 88.285156 168.214844 78.785156 158.714844 78.785156 147 C 78.785156 135.285156 88.285156 125.785156 100 125.785156 C 111.714844 125.785156 121.214844 135.285156 121.214844 147 "/>
<path style="fill-rule:nonzero;fill:rgb(53%,27%,7%);fill-opacity:1;stroke-width:1;stroke-linecap:butt;stroke-linejoin:miter;stroke:rgb(0%,0%,0%);stroke-opacity:1;stroke-miterlimit:10;" d="M 303.214844 462 C 303.214844 473.714844 293.714844 483.214844 282 483.214844 C 270.285156 483.214844 260.785156 473.714844 260.785156 462 C 260.785156 450.285156 270.285156 440.785156 282 440.785156 C 293.714844 440.785156 303.214844 450.285156 303.214844 462 "/>
<path style="fill-rule:nonzero;fill:rgb(53%,27%,7%);fill-opacity:1;stroke-width:1;stroke-linecap:butt;stroke-linejoin:miter;stroke:rgb(0%,0%,0%);stroke-opacity:1;stroke-miterlimit:10;" d="M 922.214844 114 C 922.214844 125.714844 912.714844 135.214844 901 135.214844 C 889.285156 135.214844 879.785156 125.714844 879.785156 114 C 879.785156 102.285156 889.285156 92.785156 901 92.785156 C 912.714844 92.785156 922.214844 102.285156 922.214844 114 "/>
<path style="fill-rule:nonzero;fill:rgb(53%,27%,7%);fill-opacity:1;stroke-width:1;stroke-linecap:butt;stroke-linejoin:miter;stroke:rgb(0%,0%,0%);stroke-opacity:1;stroke-miterlimit:10;" d="M 717.214844 422 C 717.214844 433.714844 707.714844 443.214844 696 443.214844 C 684.285156 443.214844 674.785156 433.714844 674.785156 422 C 674.785156 410.285156 684.285156 400.785156 696 400.785156 C 707.714844 400.785156 717.214844 410.285156 717.214844 422 "/>
<path style="fill-rule:nonzero;fill:rgb(53%,27%,7%);fill-opacity:1;stroke-width:1;stroke-linecap:butt;stroke-linejoin:miter;stroke:rgb(0%,0%,0%);stroke-opacity:1;stroke-miterlimit:10;" d="M 419.214844 181 C 419.214844 192.714844 409.714844 202.214844 398 202.214844 C 386.285156 202.214844 376.785156 192.714844 376.785156 181 C 376.785156 169.285156 386.285156 159.785156 398 159.785156 C 409.714844 159.785156 419.214844 169.285156 419.214844 181 "/>
<path style="fill-rule:nonzero;fill:rgb(53%,27%,7%);fill-opacity:1;stroke-width:1;stroke-linecap:butt;stroke-linejoin:miter;stroke:rgb(0%,0%,0%);stroke-opacity:1;stroke-miterlimit:10;" d="M 414.214844 399 C 414.214844 410.714844 404.714844 420.214844 393 420.214844 C 381.285156 420.214844 371.785156 410.714844 371.785156 399 C 371.785156 387.285156 381.285156 377.785156 393 377.785156 C 404.714844 377.785156 414.214844 387.285156 414.214844 399 "/>
<path style="fill-rule:nonzero;fill:rgb(53%,27%,7%);fill-opacity:1;stroke-width:1;stroke-linecap:butt;stroke-linejoin:miter;stroke:rgb(0%,0%,0%);stroke-opacity:1;stroke-miterlimit:10;" d="M 226.214844 318 C 226.214844 329.714844 216.714844 339.214844 205 339.214844 C 193.285156 339.214844 183.785156 329.714844 183.785156 318 C 183.785156 306.285156 193.285156 296.785156 205 296.785156 C 216.714844 296.785156 226.214844 306.285156 226.214844 318 "/>
</g>
</svg>
