<?xml version="1.0" encoding="UTF-8"?>
<svg xmlns="http://www.w3.org/2000/svg" xmlns:xlink="http://www.w3.org/1999/xlink" width="1129pt" height="517pt" viewBox="0 0 1129 517" version="1.1">
<g id="surface226">
<rect x="0" y="0" width="1129" height="517" style="fill:rgb(90%,90%,90%);fill-opacity:1;stroke:none;"/>
<path style="fill-rule:nonzero;fill:rgb(35%,70%,90%);fill-opacity:1;stroke-width:1;stroke-linecap:butt;stroke-linejoin:miter;stroke:rgb(0%,0%,0%);stroke-opacity:1;stroke-miterlimit:10;" d="M 395.214844 92 C 395.214844 103.714844 385.714844 113.214844 374 113.214844 C 362.285156 113.214844 352.785156 103.714844 352.785156 92 C 352.785156 80.285156 362.285156 70.785156 374 70.785156 C 385.714844 70.785156 395.214844 80.285156 395.214844 92 "/>
<path style="fill-rule:nonzero;fill:rgb(53%,27%,7%);fill-opacity:1;stroke-width:1;stroke-linecap:butt;stroke-linejoin:miter;stroke:rgb(0%,0%,0%);stroke-opacity:1;stroke-miterlimit:10;" d="M 157.214844 114 C 157.214844 125.714844 147.714844 135.214844 136 135.214844 C 124.285156 135.214844 114.785156 125.714844 114.785156 114 C 114.785156 102.285156 124.285156 92.785156 136 92.785156 C 147.714844 92.785156 157.214844 102.285156 157.214844 114 "/>
<path style="fill-rule:nonzero;fill:rgb(35%,70%,90%);fill-opacity:1;stroke-width:1;stroke-linecap:butt;stroke-linejoin:miter;stroke:rgb(0%,0%,0%);stroke-opacity:1;stroke-miterlimit:10;" d="M 390.214844 299 C 390.214844 310.714844 380.714844 320.214844 369 320.214844 C 357.285156 320.214844 347.785156 310.714844 347.785156 299 C 347.785156 287.285156 357.285156 277.785156 369 277.785156 C 380.714844 277.785156 390.214844 287.285156 390.214844 299 "/>
<path style="fill-rule:nonzero;fill:rgb(35%,70%,90%);fill-opacity:1;stroke-width:1;stroke-linecap:butt;stroke-linejoin:miter;stroke:rgb(0%,0%,0%);stroke-opacity:1;stroke-miterlimit:10;" d="M 194.214844 356 C 194.214844 367.714844 184.714844 377.214844 173 377.214844 C 161.285156 377.214844 151.785156 367.714844 151.785156 356 C 151.785156 344.285156 161.285156 334.785156 173 334.785156 C 184.714844 334.785156 194.214844 344.285156 194.214844 356 "/>
<path style="fill-rule:nonzero;fill:rgb(53%,27%,7%);fill-opacity:1;stroke-width:1;stroke-linecap:butt;stroke-linejoin:miter;stroke:rgb(0%,0%,0%);stroke-opacity:1;stroke-miterlimit:10;" d="M 212 410 L 186.019531 455 L 237.980469 455 L 212 410 "/>
</g>
</svg>
