<?xml version="1.0" encoding="UTF-8"?>
<svg xmlns="http://www.w3.org/2000/svg" xmlns:xlink="http://www.w3.org/1999/xlink" width="1129pt" height="517pt" viewBox="0 0 1129 517" version="1.1">
<g id="surface81">
<rect x="0" y="0" width="1129" height="517" style="fill:rgb(90%,90%,90%);fill-opacity:1;stroke:none;"/>
<path style="fill-rule:nonzero;fill:rgb(35%,70%,90%);fill-opacity:1;stroke-width:1;stroke-linecap:butt;stroke-linejoin:miter;stroke:rgb(0%,0%,0%);stroke-opacity:1;stroke-miterlimit:10;" d="M 74.214844 333 C 74.214844 344.714844 64.714844 354.214844 53 354.214844 C 41.285156 354.214844 31.785156 344.714844 31.785156 333 C 31.785156 321.285156 41.285156 311.785156 53 311.785156 C 64.714844 311.785156 74.214844 321.285156 74.214844 333 "/>
<path style="fill-rule:nonzero;fill:rgb(35%,70%,90%);fill-opacity:1;stroke-width:1;stroke-linecap:butt;stroke-linejoin:miter;stroke:rgb(0%,0%,0%);stroke-opacity:1;stroke-miterlimit:10;" d="M 296.214844 84 C 296.214844 95.714844 286.714844 105.214844 275 105.214844 C 263.285156 105.214844 253.785156 95.714844 253.785156 84 C 253.785156 72.285156 263.285156 62.785156 275 62.785156 C 286.714844 62.785156 296.214844 72.285156 296.214844 84 "/>
<path style="fill-rule:nonzero;fill:rgb(35%,70%,90%);fill-opacity:1;stroke-width:1;stroke-linecap:butt;stroke-linejoin:miter;stroke:rgb(0%,0%,0%);stroke-opacity:1;stroke-miterlimit:10;" d="M 406.785156 243.785156 L 406.785156 286.214844 L 449.214844 286.214844 L 449.214844 243.785156 L 406.785156 243.785156 "/>
<path style="fill-rule:nonzero;fill:rgb(35%,70%,90%);fill-opacity:1;stroke-width:1;stroke-linecap:butt;stroke-linejoin:miter;stroke:rgb(0%,0%,0%);stroke-opacity:1;stroke-miterlimit:10;" d="M 187.785156 303.785156 L 187.785156 346.214844 L 230.214844 346.214844 L 230.214844 303.785156 L 187.785156 303.785156 "/>
<path style="fill-rule:nonzero;fill:rgb(35%,70%,90%);fill-opacity:1;stroke-width:1;stroke-linecap:butt;stroke-linejoin:miter;stroke:rgb(0%,0%,0%);stroke-opacity:1;stroke-miterlimit:10;" d="M 375.214844 416 C 375.214844 427.714844 365.714844 437.214844 354 437.214844 C 342.285156 437.214844 332.785156 427.714844 332.785156 416 C 332.785156 404.285156 342.285156 394.785156 354 394.785156 C 365.714844 394.785156 375.214844 404.285156 375.214844 416 "/>
<path style="fill-rule:nonzero;fill:rgb(55%,51%,53%);fill-opacity:1;stroke-width:1;stroke-linecap:butt;stroke-linejoin:miter;stroke:rgb(0%,0%,0%);stroke-opacity:1;stroke-miterlimit:10;" d="M 720.785156 224.785156 L 720.785156 267.214844 L 763.214844 267.214844 L 763.214844 224.785156 L 720.785156 224.785156 "/>
<path style="fill-rule:nonzero;fill:rgb(55%,51%,53%);fill-opacity:1;stroke-width:1;stroke-linecap:butt;stroke-linejoin:miter;stroke:rgb(0%,0%,0%);stroke-opacity:1;stroke-miterlimit:10;" d="M 975.785156 322.785156 L 975.785156 365.214844 L 1018.214844 365.214844 L 1018.214844 322.785156 L 975.785156 322.785156 "/>
<path style="fill-rule:nonzero;fill:rgb(55%,51%,53%);fill-opacity:1;stroke-width:1;stroke-linecap:butt;stroke-linejoin:miter;stroke:rgb(0%,0%,0%);stroke-opacity:1;stroke-miterlimit:10;" d="M 892.214844 222 C 892.214844 233.714844 882.714844 243.214844 871 243.214844 C 859.285156 243.214844 849.785156 233.714844 849.785156 222 C 849.785156 210.285156 859.285156 200.785156 871 200.785156 C 882.714844 200.785156 892.214844 210.285156 892.214844 222 "/>
<path style="fill-rule:nonzero;fill:rgb(55%,51%,53%);fill-opacity:1;stroke-width:1;stroke-linecap:butt;stroke-linejoin:miter;stroke:rgb(0%,0%,0%);stroke-opacity:1;stroke-miterlimit:10;" d="M 884.214844 362 C 884.214844 373.714844 874.714844 383.214844 863 383.214844 C 851.285156 383.214844 841.785156 373.714844 841.785156 362 C 841.785156 350.285156 851.285156 340.785156 863 340.785156 C 874.714844 340.785156 884.214844 350.285156 884.214844 362 "/>
<path style="fill-rule:nonzero;fill:rgb(55%,51%,53%);fill-opacity:1;stroke-width:1;stroke-linecap:butt;stroke-linejoin:miter;stroke:rgb(0%,0%,0%);stroke-opacity:1;stroke-miterlimit:10;" d="M 669.785156 85.785156 L 669.785156 128.214844 L 712.214844 128.214844 L 712.214844 85.785156 L 669.785156 85.785156 "/>
<path style="fill-rule:nonzero;fill:rgb(55%,51%,53%);fill-opacity:1;stroke-width:1;stroke-linecap:butt;stroke-linejoin:miter;stroke:rgb(0%,0%,0%);stroke-opacity:1;stroke-miterlimit:10;" d="M 926.785156 22.785156 L 926.785156 65.214844 L 969.214844 65.214844 L 969.214844 22.785156 L 926.785156 22.785156 "/>
<path style="fill-rule:nonzero;fill:rgb(55%,51%,53%);fill-opacity:1;stroke-width:1;stroke-linecap:butt;stroke-linejoin:miter;stroke:rgb(0%,0%,0%);stroke-opacity:1;stroke-miterlimit:10;" d="M 601.785156 431.785156 L 601.785156 474.214844 L 644.214844 474.214844 L 644.214844 431.785156 L 601.785156 431.785156 "/>
<path style="fill-rule:nonzero;fill:rgb(55%,51%,53%);fill-opacity:1;stroke-width:1;stroke-linecap:butt;stroke-linejoin:miter;stroke:rgb(0%,0%,0%);stroke-opacity:1;stroke-miterlimit:10;" d="M 674.785156 341.785156 L 674.785156 384.214844 L 717.214844 384.214844 L 717.214844 341.785156 L 674.785156 341.785156 "/>
</g>
</svg>
