<?xml version="1.0" encoding="UTF-8"?>
<svg xmlns="http://www.w3.org/2000/svg" xmlns:xlink="http://www.w3.org/1999/xlink" width="1129pt" height="517pt" viewBox="0 0 1129 517" version="1.1">
<g id="surface31">
<rect x="0" y="0" width="1129" height="517" style="fill:rgb(90%,90%,90%);fill-opacity:1;stroke:none;"/>
<path style="fill-rule:nonzero;fill:rgb(35%,70%,90%);fill-opacity:1;stroke-width:1;stroke-linecap:butt;stroke-linejoin:miter;stroke:rgb(0%,0%,0%);stroke-opacity:1;stroke-miterlimit:10;" d="M 606 379 L 635.664062 379 L 647.664062 350.785156 L 659.664062 379 L 689.332031 379 L 665.332031 396.4375 L 673.417969 427.980469 L 647.664062 410.542969 L 621.914062 427.980469 L 634.214844 396.4375 L 606 379 "/>
<path style="fill-rule:nonzero;fill:rgb(35%,70%,90%);fill-opacity:1;stroke-width:1;stroke-linecap:butt;stroke-linejoin:miter;stroke:rgb(0%,0%,0%);stroke-opacity:1;stroke-miterlimit:10;" d="M 199 440 L 228.664062 440 L 240.664062 411.785156 L 252.664062 440 L 282.332031 440 L 258.332031 457.4375 L 266.417969 488.980469 L 240.664062 471.542969 L 214.914062 488.980469 L 227.214844 457.4375 L 199 440 "/>
<path style="fill-rule:nonzero;fill:rgb(35%,70%,90%);fill-opacity:1;stroke-width:1;stroke-linecap:butt;stroke-linejoin:miter;stroke:rgb(0%,0%,0%);stroke-opacity:1;stroke-miterlimit:10;" d="M 303 44 L 332.664062 44 L 344.664062 15.785156 L 356.664062 44 L 386.332031 44 L 362.332031 61.4375 L 370.417969 92.980469 L 344.664062 75.542969 L 318.914062 92.980469 L 331.214844 61.4375 L 303 44 "/>
<path style="fill-rule:nonzero;fill:rgb(35%,70%,90%);fill-opacity:1;stroke-width:1;stroke-linecap:butt;stroke-linejoin:miter;stroke:rgb(0%,0%,0%);stroke-opacity:1;stroke-miterlimit:10;" d="M 183 274 L 212.664062 274 L 224.664062 245.785156 L 236.664062 274 L 266.332031 274 L 242.332031 291.4375 L 250.417969 322.980469 L 224.664062 305.542969 L 198.914062 322.980469 L 211.214844 291.4375 L 183 274 "/>
<path style="fill-rule:nonzero;fill:rgb(35%,70%,90%);fill-opacity:1;stroke-width:1;stroke-linecap:butt;stroke-linejoin:miter;stroke:rgb(0%,0%,0%);stroke-opacity:1;stroke-miterlimit:10;" d="M 679 141 L 708.664062 141 L 720.664062 112.785156 L 732.664062 141 L 762.332031 141 L 738.332031 158.4375 L 746.417969 189.980469 L 720.664062 172.542969 L 694.914062 189.980469 L 707.214844 158.4375 L 679 141 "/>
<path style="fill-rule:nonzero;fill:rgb(53%,27%,7%);fill-opacity:1;stroke-width:1;stroke-linecap:butt;stroke-linejoin:miter;stroke:rgb(0%,0%,0%);stroke-opacity:1;stroke-miterlimit:10;" d="M 450.214844 395 C 450.214844 406.714844 440.714844 416.214844 429 416.214844 C 417.285156 416.214844 407.785156 406.714844 407.785156 395 C 407.785156 383.285156 417.285156 373.785156 429 373.785156 C 440.714844 373.785156 450.214844 383.285156 450.214844 395 "/>
<path style="fill-rule:nonzero;fill:rgb(53%,27%,7%);fill-opacity:1;stroke-width:1;stroke-linecap:butt;stroke-linejoin:miter;stroke:rgb(0%,0%,0%);stroke-opacity:1;stroke-miterlimit:10;" d="M 125.214844 331 C 125.214844 342.714844 115.714844 352.214844 104 352.214844 C 92.285156 352.214844 82.785156 342.714844 82.785156 331 C 82.785156 319.285156 92.285156 309.785156 104 309.785156 C 115.714844 309.785156 125.214844 319.285156 125.214844 331 "/>
<path style="fill-rule:nonzero;fill:rgb(53%,27%,7%);fill-opacity:1;stroke-width:1;stroke-linecap:butt;stroke-linejoin:miter;stroke:rgb(0%,0%,0%);stroke-opacity:1;stroke-miterlimit:10;" d="M 843.214844 435 C 843.214844 446.714844 833.714844 456.214844 822 456.214844 C 810.285156 456.214844 800.785156 446.714844 800.785156 435 C 800.785156 423.285156 810.285156 413.785156 822 413.785156 C 833.714844 413.785156 843.214844 423.285156 843.214844 435 "/>
<path style="fill-rule:nonzero;fill:rgb(53%,27%,7%);fill-opacity:1;stroke-width:1;stroke-linecap:butt;stroke-linejoin:miter;stroke:rgb(0%,0%,0%);stroke-opacity:1;stroke-miterlimit:10;" d="M 1002.214844 161 C 1002.214844 172.714844 992.714844 182.214844 981 182.214844 C 969.285156 182.214844 959.785156 172.714844 959.785156 161 C 959.785156 149.285156 969.285156 139.785156 981 139.785156 C 992.714844 139.785156 1002.214844 149.285156 1002.214844 161 "/>
<path style="fill-rule:nonzero;fill:rgb(53%,27%,7%);fill-opacity:1;stroke-width:1;stroke-linecap:butt;stroke-linejoin:miter;stroke:rgb(0%,0%,0%);stroke-opacity:1;stroke-miterlimit:10;" d="M 730.214844 471 C 730.214844 482.714844 720.714844 492.214844 709 492.214844 C 697.285156 492.214844 687.785156 482.714844 687.785156 471 C 687.785156 459.285156 697.285156 449.785156 709 449.785156 C 720.714844 449.785156 730.214844 459.285156 730.214844 471 "/>
<path style="fill-rule:nonzero;fill:rgb(53%,27%,7%);fill-opacity:1;stroke-width:1;stroke-linecap:butt;stroke-linejoin:miter;stroke:rgb(0%,0%,0%);stroke-opacity:1;stroke-miterlimit:10;" d="M 927.214844 387 C 927.214844 398.714844 917.714844 408.214844 906 408.214844 C 894.285156 408.214844 884.785156 398.714844 884.785156 387 C 884.785156 375.285156 894.285156 365.785156 906 365.785156 C 917.714844 365.785156 927.214844 375.285156 927.214844 387 "/>
<path style="fill-rule:nonzero;fill:rgb(53%,27%,7%);fill-opacity:1;stroke-width:1;stroke-linecap:butt;stroke-linejoin:miter;stroke:rgb(0%,0%,0%);stroke-opacity:1;stroke-miterlimit:10;" d="M 618.214844 228 C 618.214844 239.714844 608.714844 249.214844 597 249.214844 C 585.285156 249.214844 575.785156 239.714844 575.785156 228 C 575.785156 216.285156 585.285156 206.785156 597 206.785156 C 608.714844 206.785156 618.214844 216.285156 618.214844 228 "/>
<path style="fill-rule:nonzero;fill:rgb(53%,27%,7%);fill-opacity:1;stroke-width:1;stroke-linecap:butt;stroke-linejoin:miter;stroke:rgb(0%,0%,0%);stroke-opacity:1;stroke-miterlimit:10;" d="M 832.214844 337 C 832.214844 348.714844 822.714844 358.214844 811 358.214844 C 799.285156 358.214844 789.785156 348.714844 789.785156 337 C 789.785156 325.285156 799.285156 315.785156 811 315.785156 C 822.714844 315.785156 832.214844 325.285156 832.214844 337 "/>
</g>
</svg>
