<?xml version="1.0" encoding="UTF-8"?>
<svg xmlns="http://www.w3.org/2000/svg" xmlns:xlink="http://www.w3.org/1999/xlink" width="1129pt" height="517pt" viewBox="0 0 1129 517" version="1.1">
<g id="surface1">
<rect x="0" y="0" width="1129" height="517" style="fill:rgb(90%,90%,90%);fill-opacity:1;stroke:none;"/>
<path style="fill-rule:nonzero;fill:rgb(35%,70%,90%);fill-opacity:1;stroke-width:1;stroke-linecap:butt;stroke-linejoin:miter;stroke:rgb(0%,0%,0%);stroke-opacity:1;stroke-miterlimit:10;" d="M 933 432 L 962.664062 432 L 974.664062 403.785156 L 986.664062 432 L 1016.332031 432 L 992.332031 449.4375 L 1000.417969 480.980469 L 974.664062 463.542969 L 948.914062 480.980469 L 961.214844 449.4375 L 933 432 "/>
<path style="fill-rule:nonzero;fill:rgb(35%,70%,90%);fill-opacity:1;stroke-width:1;stroke-linecap:butt;stroke-linejoin:miter;stroke:rgb(0%,0%,0%);stroke-opacity:1;stroke-miterlimit:10;" d="M 337 424 L 366.664062 424 L 378.664062 395.785156 L 390.664062 424 L 420.332031 424 L 396.332031 441.4375 L 404.417969 472.980469 L 378.664062 455.542969 L 352.914062 472.980469 L 365.214844 441.4375 L 337 424 "/>
<path style="fill-rule:nonzero;fill:rgb(35%,70%,90%);fill-opacity:1;stroke-width:1;stroke-linecap:butt;stroke-linejoin:miter;stroke:rgb(0%,0%,0%);stroke-opacity:1;stroke-miterlimit:10;" d="M 903 263 L 932.664062 263 L 944.664062 234.785156 L 956.664062 263 L 986.332031 263 L 962.332031 280.4375 L 970.417969 311.980469 L 944.664062 294.542969 L 918.914062 311.980469 L 931.214844 280.4375 L 903 263 "/>
<path style="fill-rule:nonzero;fill:rgb(100%,51%,0%);fill-opacity:1;stroke-width:1;stroke-linecap:butt;stroke-linejoin:miter;stroke:rgb(0%,0%,0%);stroke-opacity:1;stroke-miterlimit:10;" d="M 498.214844 295 C 498.214844 306.714844 488.714844 316.214844 477 316.214844 C 465.285156 316.214844 455.785156 306.714844 455.785156 295 C 455.785156 283.285156 465.285156 273.785156 477 273.785156 C 488.714844 273.785156 498.214844 283.285156 498.214844 295 "/>
<path style="fill-rule:nonzero;fill:rgb(100%,51%,0%);fill-opacity:1;stroke-width:1;stroke-linecap:butt;stroke-linejoin:miter;stroke:rgb(0%,0%,0%);stroke-opacity:1;stroke-miterlimit:10;" d="M 559.214844 43 C 559.214844 54.714844 549.714844 64.214844 538 64.214844 C 526.285156 64.214844 516.785156 54.714844 516.785156 43 C 516.785156 31.285156 526.285156 21.785156 538 21.785156 C 549.714844 21.785156 559.214844 31.285156 559.214844 43 "/>
<path style="fill-rule:nonzero;fill:rgb(100%,51%,0%);fill-opacity:1;stroke-width:1;stroke-linecap:butt;stroke-linejoin:miter;stroke:rgb(0%,0%,0%);stroke-opacity:1;stroke-miterlimit:10;" d="M 807.214844 77 C 807.214844 88.714844 797.714844 98.214844 786 98.214844 C 774.285156 98.214844 764.785156 88.714844 764.785156 77 C 764.785156 65.285156 774.285156 55.785156 786 55.785156 C 797.714844 55.785156 807.214844 65.285156 807.214844 77 "/>
<path style="fill-rule:nonzero;fill:rgb(100%,51%,0%);fill-opacity:1;stroke-width:1;stroke-linecap:butt;stroke-linejoin:miter;stroke:rgb(0%,0%,0%);stroke-opacity:1;stroke-miterlimit:10;" d="M 710.214844 155 C 710.214844 166.714844 700.714844 176.214844 689 176.214844 C 677.285156 176.214844 667.785156 166.714844 667.785156 155 C 667.785156 143.285156 677.285156 133.785156 689 133.785156 C 700.714844 133.785156 710.214844 143.285156 710.214844 155 "/>
<path style="fill-rule:nonzero;fill:rgb(100%,51%,0%);fill-opacity:1;stroke-width:1;stroke-linecap:butt;stroke-linejoin:miter;stroke:rgb(0%,0%,0%);stroke-opacity:1;stroke-miterlimit:10;" d="M 174.214844 99 C 174.214844 110.714844 164.714844 120.214844 153 120.214844 C 141.285156 120.214844 131.785156 110.714844 131.785156 99 C 131.785156 87.285156 141.285156 77.785156 153 77.785156 C 164.714844 77.785156 174.214844 87.285156 174.214844 99 "/>
<path style="fill-rule:nonzero;fill:rgb(100%,51%,0%);fill-opacity:1;stroke-width:1;stroke-linecap:butt;stroke-linejoin:miter;stroke:rgb(0%,0%,0%);stroke-opacity:1;stroke-miterlimit:10;" d="M 478.214844 468 C 478.214844 479.714844 468.714844 489.214844 457 489.214844 C 445.285156 489.214844 435.785156 479.714844 435.785156 468 C 435.785156 456.285156 445.285156 446.785156 457 446.785156 C 468.714844 446.785156 478.214844 456.285156 478.214844 468 "/>
<path style="fill-rule:nonzero;fill:rgb(100%,51%,0%);fill-opacity:1;stroke-width:1;stroke-linecap:butt;stroke-linejoin:miter;stroke:rgb(0%,0%,0%);stroke-opacity:1;stroke-miterlimit:10;" d="M 676.214844 291 C 676.214844 302.714844 666.714844 312.214844 655 312.214844 C 643.285156 312.214844 633.785156 302.714844 633.785156 291 C 633.785156 279.285156 643.285156 269.785156 655 269.785156 C 666.714844 269.785156 676.214844 279.285156 676.214844 291 "/>
<path style="fill-rule:nonzero;fill:rgb(100%,51%,0%);fill-opacity:1;stroke-width:1;stroke-linecap:butt;stroke-linejoin:miter;stroke:rgb(0%,0%,0%);stroke-opacity:1;stroke-miterlimit:10;" d="M 327.214844 75 C 327.214844 86.714844 317.714844 96.214844 306 96.214844 C 294.285156 96.214844 284.785156 86.714844 284.785156 75 C 284.785156 63.285156 294.285156 53.785156 306 53.785156 C 317.714844 53.785156 327.214844 63.285156 327.214844 75 "/>
</g>
</svg>
