<?xml version="1.0" encoding="UTF-8"?>
<svg xmlns="http://www.w3.org/2000/svg" xmlns:xlink="http://www.w3.org/1999/xlink" width="1129pt" height="517pt" viewBox="0 0 1129 517" version="1.1">
<g id="surface581">
<rect x="0" y="0" width="1129" height="517" style="fill:rgb(90%,90%,90%);fill-opacity:1;stroke:none;"/>
<path style="fill-rule:nonzero;fill:rgb(35%,70%,90%);fill-opacity:1;stroke-width:1;stroke-linecap:butt;stroke-linejoin:miter;stroke:rgb(0%,0%,0%);stroke-opacity:1;stroke-miterlimit:10;" d="M 100 394 L 129.664062 394 L 141.664062 365.785156 L 153.664062 394 L 183.332031 394 L 159.332031 411.4375 L 167.417969 442.980469 L 141.664062 425.542969 L 115.914062 442.980469 L 128.214844 411.4375 L 100 394 "/>
<path style="fill-rule:nonzero;fill:rgb(53%,27%,7%);fill-opacity:1;stroke-width:1;stroke-linecap:butt;stroke-linejoin:miter;stroke:rgb(0%,0%,0%);stroke-opacity:1;stroke-miterlimit:10;" d="M 45 261 L 74.664062 261 L 86.664062 232.785156 L 98.664062 261 L 128.332031 261 L 104.332031 278.4375 L 112.417969 309.980469 L 86.664062 292.542969 L 60.914062 309.980469 L 73.214844 278.4375 L 45 261 "/>
<path style="fill-rule:nonzero;fill:rgb(35%,70%,90%);fill-opacity:1;stroke-width:1;stroke-linecap:butt;stroke-linejoin:miter;stroke:rgb(0%,0%,0%);stroke-opacity:1;stroke-miterlimit:10;" d="M 116 98 L 145.664062 98 L 157.664062 69.785156 L 169.664062 98 L 199.332031 98 L 175.332031 115.4375 L 183.417969 146.980469 L 157.664062 129.542969 L 131.914062 146.980469 L 144.214844 115.4375 L 116 98 "/>
<path style="fill-rule:nonzero;fill:rgb(53%,27%,7%);fill-opacity:1;stroke-width:1;stroke-linecap:butt;stroke-linejoin:miter;stroke:rgb(0%,0%,0%);stroke-opacity:1;stroke-miterlimit:10;" d="M 193.785156 73.785156 L 193.785156 116.214844 L 236.214844 116.214844 L 236.214844 73.785156 L 193.785156 73.785156 "/>
</g>
</svg>
