<?xml version="1.0" encoding="UTF-8"?>
<svg xmlns="http://www.w3.org/2000/svg" xmlns:xlink="http://www.w3.org/1999/xlink" width="1129pt" height="517pt" viewBox="0 0 1129 517" version="1.1">
<g id="surface351">
<rect x="0" y="0" width="1129" height="517" style="fill:rgb(90%,90%,90%);fill-opacity:1;stroke:none;"/>
<path style="fill-rule:nonzero;fill:rgb(55%,51%,53%);fill-opacity:1;stroke-width:1;stroke-linecap:butt;stroke-linejoin:miter;stroke:rgb(0%,0%,0%);stroke-opacity:1;stroke-miterlimit:10;" d="M 284.214844 312 C 284.214844 323.714844 274.714844 333.214844 263 333.214844 C 251.285156 333.214844 241.785156 323.714844 241.785156 312 C 241.785156 300.285156 251.285156 290.785156 263 290.785156 C 274.714844 290.785156 284.214844 300.285156 284.214844 312 "/>
<path style="fill-rule:nonzero;fill:rgb(53%,27%,7%);fill-opacity:1;stroke-width:1;stroke-linecap:butt;stroke-linejoin:miter;stroke:rgb(0%,0%,0%);stroke-opacity:1;stroke-miterlimit:10;" d="M 232.214844 80 C 232.214844 91.714844 222.714844 101.214844 211 101.214844 C 199.285156 101.214844 189.785156 91.714844 189.785156 80 C 189.785156 68.285156 199.285156 58.785156 211 58.785156 C 222.714844 58.785156 232.214844 68.285156 232.214844 80 "/>
<path style="fill-rule:nonzero;fill:rgb(55%,51%,53%);fill-opacity:1;stroke-width:1;stroke-linecap:butt;stroke-linejoin:miter;stroke:rgb(0%,0%,0%);stroke-opacity:1;stroke-miterlimit:10;" d="M 61.214844 444 C 61.214844 455.714844 51.714844 465.214844 40 465.214844 C 28.285156 465.214844 18.785156 455.714844 18.785156 444 C 18.785156 432.285156 28.285156 422.785156 40 422.785156 C 51.714844 422.785156 61.214844 432.285156 61.214844 444 "/>
<path style="fill-rule:nonzero;fill:rgb(55%,51%,53%);fill-opacity:1;stroke-width:1;stroke-linecap:butt;stroke-linejoin:miter;stroke:rgb(0%,0%,0%);stroke-opacity:1;stroke-miterlimit:10;" d="M 90.214844 199 C 90.214844 210.714844 80.714844 220.214844 69 220.214844 C 57.285156 220.214844 47.785156 210.714844 47.785156 199 C 47.785156 187.285156 57.285156 177.785156 69 177.785156 C 80.714844 177.785156 90.214844 187.285156 90.214844 199 "/>
<path style="fill-rule:nonzero;fill:rgb(55%,51%,53%);fill-opacity:1;stroke-width:1;stroke-linecap:butt;stroke-linejoin:miter;stroke:rgb(0%,0%,0%);stroke-opacity:1;stroke-miterlimit:10;" d="M 119.214844 107 C 119.214844 118.714844 109.714844 128.214844 98 128.214844 C 86.285156 128.214844 76.785156 118.714844 76.785156 107 C 76.785156 95.285156 86.285156 85.785156 98 85.785156 C 109.714844 85.785156 119.214844 95.285156 119.214844 107 "/>
<path style="fill-rule:nonzero;fill:rgb(53%,27%,7%);fill-opacity:1;stroke-width:1;stroke-linecap:butt;stroke-linejoin:miter;stroke:rgb(0%,0%,0%);stroke-opacity:1;stroke-miterlimit:10;" d="M 914.785156 112.785156 L 914.785156 155.214844 L 957.214844 155.214844 L 957.214844 112.785156 L 914.785156 112.785156 "/>
<path style="fill-rule:nonzero;fill:rgb(55%,51%,53%);fill-opacity:1;stroke-width:1;stroke-linecap:butt;stroke-linejoin:miter;stroke:rgb(0%,0%,0%);stroke-opacity:1;stroke-miterlimit:10;" d="M 826.785156 301.785156 L 826.785156 344.214844 L 869.214844 344.214844 L 869.214844 301.785156 L 826.785156 301.785156 "/>
<path style="fill-rule:nonzero;fill:rgb(53%,27%,7%);fill-opacity:1;stroke-width:1;stroke-linecap:butt;stroke-linejoin:miter;stroke:rgb(0%,0%,0%);stroke-opacity:1;stroke-miterlimit:10;" d="M 646.785156 264.785156 L 646.785156 307.214844 L 689.214844 307.214844 L 689.214844 264.785156 L 646.785156 264.785156 "/>
</g>
</svg>
