<?xml version="1.0" encoding="UTF-8"?>
<svg xmlns="http://www.w3.org/2000/svg" xmlns:xlink="http://www.w3.org/1999/xlink" width="1129pt" height="517pt" viewBox="0 0 1129 517" version="1.1">
<g id="surface286">
<rect x="0" y="0" width="1129" height="517" style="fill:rgb(90%,90%,90%);fill-opacity:1;stroke:none;"/>
<path style="fill-rule:nonzero;fill:rgb(100%,51%,0%);fill-opacity:1;stroke-width:1;stroke-linecap:butt;stroke-linejoin:miter;stroke:rgb(0%,0%,0%);stroke-opacity:1;stroke-miterlimit:10;" d="M 259.214844 282 C 259.214844 293.714844 249.714844 303.214844 238 303.214844 C 226.285156 303.214844 216.785156 293.714844 216.785156 282 C 216.785156 270.285156 226.285156 260.785156 238 260.785156 C 249.714844 260.785156 259.214844 270.285156 259.214844 282 "/>
<path style="fill-rule:nonzero;fill:rgb(53%,27%,7%);fill-opacity:1;stroke-width:1;stroke-linecap:butt;stroke-linejoin:miter;stroke:rgb(0%,0%,0%);stroke-opacity:1;stroke-miterlimit:10;" d="M 67.214844 204 C 67.214844 215.714844 57.714844 225.214844 46 225.214844 C 34.285156 225.214844 24.785156 215.714844 24.785156 204 C 24.785156 192.285156 34.285156 182.785156 46 182.785156 C 57.714844 182.785156 67.214844 192.285156 67.214844 204 "/>
<path style="fill-rule:nonzero;fill:rgb(100%,51%,0%);fill-opacity:1;stroke-width:1;stroke-linecap:butt;stroke-linejoin:miter;stroke:rgb(0%,0%,0%);stroke-opacity:1;stroke-miterlimit:10;" d="M 287.214844 433 C 287.214844 444.714844 277.714844 454.214844 266 454.214844 C 254.285156 454.214844 244.785156 444.714844 244.785156 433 C 244.785156 421.285156 254.285156 411.785156 266 411.785156 C 277.714844 411.785156 287.214844 421.285156 287.214844 433 "/>
<path style="fill-rule:nonzero;fill:rgb(53%,27%,7%);fill-opacity:1;stroke-width:1;stroke-linecap:butt;stroke-linejoin:miter;stroke:rgb(0%,0%,0%);stroke-opacity:1;stroke-miterlimit:10;" d="M 422.214844 136 C 422.214844 147.714844 412.714844 157.214844 401 157.214844 C 389.285156 157.214844 379.785156 147.714844 379.785156 136 C 379.785156 124.285156 389.285156 114.785156 401 114.785156 C 412.714844 114.785156 422.214844 124.285156 422.214844 136 "/>
<path style="fill-rule:nonzero;fill:rgb(100%,51%,0%);fill-opacity:1;stroke-width:1;stroke-linecap:butt;stroke-linejoin:miter;stroke:rgb(0%,0%,0%);stroke-opacity:1;stroke-miterlimit:10;" d="M 190.214844 200 C 190.214844 211.714844 180.714844 221.214844 169 221.214844 C 157.285156 221.214844 147.785156 211.714844 147.785156 200 C 147.785156 188.285156 157.285156 178.785156 169 178.785156 C 180.714844 178.785156 190.214844 188.285156 190.214844 200 "/>
<path style="fill-rule:nonzero;fill:rgb(100%,51%,0%);fill-opacity:1;stroke-width:1;stroke-linecap:butt;stroke-linejoin:miter;stroke:rgb(0%,0%,0%);stroke-opacity:1;stroke-miterlimit:10;" d="M 210.214844 88 C 210.214844 99.714844 200.714844 109.214844 189 109.214844 C 177.285156 109.214844 167.785156 99.714844 167.785156 88 C 167.785156 76.285156 177.285156 66.785156 189 66.785156 C 200.714844 66.785156 210.214844 76.285156 210.214844 88 "/>
<path style="fill-rule:nonzero;fill:rgb(100%,51%,0%);fill-opacity:1;stroke-width:1;stroke-linecap:butt;stroke-linejoin:miter;stroke:rgb(0%,0%,0%);stroke-opacity:1;stroke-miterlimit:10;" d="M 373.214844 358 C 373.214844 369.714844 363.714844 379.214844 352 379.214844 C 340.285156 379.214844 330.785156 369.714844 330.785156 358 C 330.785156 346.285156 340.285156 336.785156 352 336.785156 C 363.714844 336.785156 373.214844 346.285156 373.214844 358 "/>
<path style="fill-rule:nonzero;fill:rgb(53%,27%,7%);fill-opacity:1;stroke-width:1;stroke-linecap:butt;stroke-linejoin:miter;stroke:rgb(0%,0%,0%);stroke-opacity:1;stroke-miterlimit:10;" d="M 434 241 L 408.019531 286 L 459.980469 286 L 434 241 "/>
</g>
</svg>
